<?xml version="1.0" encoding="utf-8"?>
<!-- Generator: Adobe Illustrator 21.1.0, SVG Export Plug-In . SVG Version: 6.00 Build 0)  -->
<svg version="1.1" id="Layer_2" xmlns="http://www.w3.org/2000/svg" xmlns:xlink="http://www.w3.org/1999/xlink" x="0px" y="0px"
	 viewBox="0 0 200 200" style="enable-background:new 0 0 200 200;" xml:space="preserve">
<g>
	<path d="M180.7,112.1c0.8-3.6,3.9-17.4,4.5-21.4c0.1-0.5-0.3-1.3-0.8-1.6c-20.9-11.8-42.5-22.3-66.1-27.8
		c-11.3-2.6-22.7-4.5-34.3-5c-9.1-0.4-18.2-0.1-27.3,1c-12.2,1.5-24.1,4.3-35.5,9.1C14.3,69.3,7.6,72.7,1.4,77
		c-0.3,0.2-0.7,0.4-1,0.6c-0.1-0.1-0.2-0.2-0.3-0.3c1.5-1.8,3-3.8,4.7-5.5c8.4-8.6,18.8-13.8,30.1-17.3c10.8-3.3,21.9-4.6,33.1-4.7
		c8,0,15.9,0.1,23.9,0.7c11,0.9,21.7,3.3,32.3,6.6c16.6,5.1,32.4,12.1,48,19.5c4.7,2.3,9.4,4.6,14.2,6.9c1.3-2.4,1.6-13.8,1.4-16.9
		c0-1.2-0.6-2.1-1.6-2.8c-15-11.5-30-23.2-45.1-34.6c-5.7-4.3-11.5-8.6-17.5-12.5C113.6,10.4,102.7,6.3,91,4.6
		c-9.3-1.3-18.6-1.1-27.8,0.8c-0.4,0.1-0.8,0.1-1.6,0.2c0.6-0.4,0.8-0.6,1.1-0.7c5.2-2.3,10.6-3.4,16.3-3.7c18.6-1,35.2,5.1,51.2,14
		c12.6,7,23.8,15.8,34.4,25.4c6.8,6.2,13.8,12.2,20.8,18.3c0.3,0.3,0.7,0.6,1.2,0.7c-2.2-9.2-5.9-17.7-11.1-25.7
		c-5.2-8.1-12.7-13.7-20.5-18.9c0.1-0.2,0.3-0.4,0.4-0.5c3.3,2.1,6.9,4,10,6.4c13,10.5,20.8,24.3,24.2,40.5c0.5,2.2,1.6,3.5,3.2,4.7
		c1.1,0.8,2.3,1.5,3.5,2.2c-1.3,1.9-3.8-0.5-5.3-0.3c-0.2,1.3,0.1,3.6,0,5c-0.4,3.9-0.3,7.8-0.7,11.7c-0.1,1.2,0.3,1.9,1,2.8
		c4.5,5.5,7.5,11.7,8.6,18.8c0.3,1.9,0,3.8,0,5.8c-1.8-5.4-3.3-12.5-7.4-16.8c-0.5-0.5-2.7-2.7-3.4-3.1c-0.9,4.7-1.9,11.8-2.8,16.4
		c-0.6,2.3-1,5.4-0.9,7.6c0,2.1,1.5,4.2,2.2,6.4c2,5.8,3.1,11.8,2.7,17.9c-0.4,7.2-2.9,13.6-7.9,18.8c-2.6,2.7-5.1,5.5-7.7,8.2
		c-0.2-0.2-0.4-0.4-0.7-0.5c6-5.7,11-12,12.2-20.5c1.2-8.3-0.6-16-4.2-23.8c-0.8,1.7-1.4,3.1-2.1,4.5c-9.9,19.5-23.6,35.8-40.7,49.4
		c-9.5,7.5-19.7,13.9-31.3,17.9c-15.5,5.3-31.1,6.1-46.9,1.7c-0.4-0.1-0.9-0.3-1.3-0.6c0.7,0.1,1.5,0.2,2.2,0.3
		c6.3,1.2,12.7,1.2,19.1,0.7c11.8-1,23.1-4.1,33.9-8.9c4.9-2.2,9.3-5.4,13.8-8.5c11.2-7.8,21.5-16.7,30.4-27
		c7.9-9.1,14.4-19,18.3-30.4c0.5-1.4,0.3-2.3-0.9-3.2c-3.5-2.8-7.6-4.1-12-4.9c-9.9-1.7-19.6-0.5-29.3,1.4
		c-13.9,2.8-27.2,7.9-40.6,12.5c-15,5.1-30,10.1-45,14.9c-7.6,2.4-15.4,4.1-23.3,4.8c-4.7,0.4-9.5,0.6-14.1-0.8
		c-3.7-1.1-6.5-3.2-8-7.2c6.4,1.5,12.8,1.8,19.1,1.8c4.6,0,9.1-0.7,13.6-1.3c19.8-2.7,38.1-10,56.4-17.5c9.5-3.9,18.9-8.1,28.9-10.7
		c11.8-3,23.6-5.5,35.8-5.4c6.5,0.1,12.6,0.1,18.4,3.4C177.8,110.5,179,111,180.7,112.1z"/>
	<path d="M16.3,86.2c-0.2,0.1-0.3,0.1-0.5,0.2c0.5,3,1,6,1.4,9c0.3-0.1,0.5-0.1,0.8-0.2c0.3,1.7,0.4,2.5,0.7,4.2
		c-2.2,0.5-3.2,0.8-5.4,1.4c-0.3-1.6-0.4-2.4-0.7-4c0.3-0.1,0.5-0.1,0.8-0.2c-0.5-2.9-1-5.8-1.5-8.7c-0.2,0.1-0.3,0.1-0.5,0.2
		c0.1,0.4,0.1,0.6,0.2,1c-1.3,0.5-1.9,0.7-3.2,1.2c-0.3-2-0.5-3-0.9-4.9c3.7-1.6,7.5-3,11.3-4.3c0.3,2.1,0.5,3.2,0.8,5.3
		c-1.3,0.4-1.9,0.6-3.2,1C16.4,86.8,16.4,86.6,16.3,86.2z M16.8,86.5c1-0.3,1.5-0.5,2.4-0.8c-0.3-1.7-0.4-2.6-0.7-4.3
		c-3.6,1.2-7.1,2.6-10.5,4c0.3,1.6,0.4,2.4,0.7,4c1-0.4,1.4-0.5,2.4-0.9c-0.1-0.4-0.1-0.6-0.2-1c0.5-0.2,0.8-0.3,1.3-0.5
		c0.5,3.2,1.1,6.5,1.6,9.7c-0.3,0.1-0.5,0.1-0.8,0.2c0.2,1.2,0.3,1.8,0.5,3.1c1.8-0.5,2.8-0.8,4.6-1.2c-0.2-1.3-0.3-1.9-0.5-3.2
		c-0.3,0.1-0.5,0.1-0.8,0.2c-0.5-3.3-1.1-6.6-1.6-9.9c0.5-0.2,0.8-0.3,1.3-0.4C16.7,85.9,16.8,86.1,16.8,86.5z M17,84.7
		c-0.9,0.3-1.3,0.5-2.2,0.8c0.6,3.7,1.2,7.4,1.8,11.1c0.3-0.1,0.5-0.1,0.8-0.2c0.1,0.8,0.2,1.2,0.3,2c-1.5,0.4-2.2,0.6-3.7,1
		c-0.1-0.8-0.2-1.1-0.3-1.9c0.3-0.1,0.5-0.1,0.8-0.2c-0.6-3.7-1.2-7.3-1.8-11c-0.9,0.3-1.3,0.5-2.2,0.8c0.1,0.4,0.1,0.6,0.2,1
		c-0.6,0.2-0.9,0.3-1.5,0.6c-0.2-1.1-0.3-1.7-0.5-2.8c3.2-1.3,6.4-2.4,9.6-3.6c0.2,1.2,0.3,1.8,0.5,3c-0.6,0.2-0.9,0.3-1.5,0.5
		C17.1,85.4,17.1,85.1,17,84.7z"/>
	<path d="M26.2,90.5c0.1,0.9,0.2,1.4,0.3,2.4c0.3-0.1,0.5-0.1,0.8-0.2c0.3,1.8,0.4,2.7,0.6,4.4c-2.1,0.5-3.2,0.7-5.3,1.2
		c-0.3-1.7-0.4-2.6-0.7-4.3c0.3-0.1,0.5-0.1,0.8-0.2c-0.5-3.1-0.9-6.2-1.4-9.3c-0.3,0.1-0.5,0.1-0.8,0.2c-0.3-1.7-0.4-2.6-0.7-4.3
		c3.3-1.1,4.9-1.6,8.3-2.6c1.1,1,1.6,1.5,2.7,2.5c0.3,2.2,0.4,3.3,0.7,5.6c-0.7,1.5-1.1,2.2-1.8,3.7C28.3,90,27.6,90.1,26.2,90.5z
		 M29.5,89.1c0.6-1.3,1-2,1.6-3.3c-0.3-2-0.4-3-0.7-5.1c-1-0.9-1.4-1.4-2.4-2.2c-3.1,0.9-4.6,1.4-7.7,2.4c0.2,1.3,0.3,2,0.5,3.3
		c0.3-0.1,0.5-0.1,0.8-0.2c0.5,3.4,1,6.9,1.5,10.3c-0.3,0.1-0.5,0.1-0.8,0.2c0.2,1.3,0.3,2,0.5,3.3c1.8-0.4,2.7-0.7,4.6-1.1
		c-0.2-1.3-0.3-2-0.5-3.4c-0.3,0.1-0.5,0.1-0.8,0.2c-0.2-1.4-0.3-2.1-0.5-3.4C27.2,89.7,28,89.5,29.5,89.1z M25.2,89.5
		c0.3,1.9,0.4,2.8,0.7,4.7c0.3-0.1,0.5-0.1,0.8-0.2c0.1,0.8,0.2,1.2,0.3,2.1c-1.5,0.3-2.2,0.5-3.7,0.9c-0.1-0.8-0.2-1.2-0.3-2
		c0.3-0.1,0.5-0.1,0.8-0.2c-0.6-3.9-1.2-7.8-1.7-11.6c-0.3,0.1-0.5,0.1-0.8,0.2c-0.1-0.8-0.2-1.2-0.3-2c2.8-0.9,4.2-1.3,7-2.2
		c0.8,0.8,1.2,1.2,2,1.9c0.2,1.8,0.4,2.7,0.6,4.5c-0.6,1.1-0.8,1.7-1.4,2.8C27.6,88.9,26.8,89.1,25.2,89.5z M28.3,85.4
		c-0.2-1.1-0.2-1.7-0.4-2.9c-0.4-0.4-0.6-0.6-1-0.9c-1.1,0.3-1.7,0.5-2.8,0.8c0.3,2,0.4,3,0.7,5c1.1-0.3,1.7-0.5,2.8-0.8
		C27.9,86.2,28.1,85.9,28.3,85.4z M27.4,86.1c-0.9,0.2-1.3,0.3-2.2,0.6c-0.2-1.5-0.3-2.2-0.5-3.7c0.9-0.3,1.3-0.4,2.2-0.6
		c0.3,0.2,0.4,0.3,0.6,0.6c0.1,0.9,0.2,1.4,0.3,2.3C27.7,85.6,27.6,85.8,27.4,86.1z M27.4,85.1c-0.1-0.7-0.2-1.1-0.3-1.8
		c-0.2-0.1-0.2-0.2-0.4-0.4c-0.6,0.2-1,0.3-1.6,0.5c0.2,1.1,0.2,1.6,0.4,2.7c0.6-0.2,1-0.3,1.6-0.4C27.2,85.4,27.3,85.3,27.4,85.1z"
		/>
	<path d="M40.5,83.4c-0.2-1.5-0.3-2.2-0.4-3.7c-0.3,0.1-0.5,0.1-0.8,0.2C39.1,78,39,77,38.7,75.2c2.3-0.5,3.4-0.8,5.8-1.2
		c0.2,1.9,0.3,2.8,0.5,4.7c-0.3,0.1-0.5,0.1-0.8,0.2c0.4,3.4,0.7,6.8,1.1,10.2c0.3-0.1,0.5-0.1,0.8-0.1c0.2,1.9,0.3,2.8,0.5,4.7
		c-1.8,0.3-2.8,0.4-4.6,0.7c-1.5-2.5-3-5-4.5-7.5c0.2,1.4,0.3,2.1,0.4,3.4c0.3-0.1,0.5-0.1,0.8-0.2c0.2,1.9,0.3,2.8,0.6,4.7
		c-2.2,0.4-3.3,0.6-5.6,1c-0.2-1.8-0.4-2.7-0.6-4.6c0.3-0.1,0.5-0.1,0.8-0.2c-0.4-3.3-0.8-6.5-1.3-9.8c-0.3,0.1-0.5,0.1-0.8,0.2
		c-0.2-1.8-0.4-2.7-0.6-4.6c1.8-0.5,2.7-0.7,4.6-1.2C37.5,78.3,39,80.8,40.5,83.4z M40.4,79c0.3,2.5,0.4,3.8,0.7,6.3
		c-1.8-3-3.6-5.9-5.5-8.9c-1.6,0.4-2.4,0.6-3.9,1c0.2,1.4,0.3,2.1,0.5,3.5c0.3-0.1,0.5-0.1,0.8-0.2c0.5,3.6,0.9,7.3,1.4,10.9
		c-0.3,0.1-0.5,0.1-0.8,0.2c0.2,1.4,0.3,2.1,0.5,3.5c1.9-0.4,2.9-0.6,4.8-0.9c-0.2-1.4-0.3-2.1-0.4-3.5c-0.3,0.1-0.5,0.1-0.8,0.2
		c-0.3-2.4-0.4-3.6-0.7-6c1.8,2.9,3.6,5.9,5.3,8.8c1.6-0.3,2.4-0.4,4-0.6c-0.2-1.4-0.2-2.2-0.4-3.6c-0.3,0.1-0.5,0.1-0.8,0.1
		c-0.4-3.8-0.8-7.5-1.2-11.3c0.3-0.1,0.5-0.1,0.8-0.2c-0.2-1.4-0.2-2.2-0.4-3.6c-2,0.4-3,0.6-4.9,1c0.2,1.4,0.3,2.1,0.4,3.6
		C39.9,79.1,40.1,79.1,40.4,79z M40,78.4c-0.1-0.9-0.2-1.3-0.3-2.2c1.6-0.3,2.4-0.5,3.9-0.8c0.1,0.9,0.1,1.3,0.2,2.2
		c-0.3,0.1-0.5,0.1-0.8,0.2c0.5,4.2,0.9,8.4,1.4,12.7c0.3-0.1,0.5-0.1,0.8-0.1c0.1,0.9,0.1,1.3,0.2,2.2c-1.3,0.2-1.9,0.3-3.2,0.5
		c-2-3.5-4.1-7-6.3-10.4c0.4,3,0.8,6.1,1.1,9.1c0.3-0.1,0.5-0.1,0.8-0.2c0.1,0.9,0.2,1.3,0.3,2.2c-1.5,0.3-2.3,0.4-3.8,0.7
		c-0.1-0.9-0.2-1.3-0.3-2.1c0.3-0.1,0.5-0.1,0.8-0.2c-0.5-4.1-1-8.2-1.6-12.3C33.1,80,33,80,32.6,80.1c-0.1-0.8-0.2-1.3-0.3-2.1
		c1.3-0.3,1.9-0.5,3.2-0.8c2.2,3.5,4.3,7,6.4,10.6c-0.4-3.2-0.7-6.4-1.1-9.6C40.5,78.3,40.4,78.3,40,78.4z"/>
	<path d="M49,85.7c-1-1.2-1.6-1.8-2.6-2.9c-0.2-2.3-0.4-3.4-0.6-5.7c0.8-1.5,1.2-2.2,1.9-3.7c2.4-0.4,3.6-0.6,5.9-1
		c1,1.2,1.6,1.8,2.6,3c0.1,1.6,0.2,2.5,0.4,4.1c-1.6,0.2-2.4,0.3-4,0.5c-0.1-0.8-0.1-1.3-0.2-2.1c-0.1-0.2-0.2-0.3-0.4-0.4
		c-0.7,0.1-1.1,0.2-1.9,0.3c-0.1,0.2-0.2,0.3-0.3,0.5c0.1,0.7,0.1,1.1,0.2,1.8c0,0.1,0.1,0.1,0.2,0.2c0.1,0.1,0.1,0.1,0.2,0.2
		c1.6-0.2,2.3-0.4,3.9-0.6c1,1.2,1.5,1.8,2.6,3.1c0.2,2.3,0.3,3.4,0.5,5.7c-0.8,1.4-1.2,2.2-1.9,3.6c-2.3,0.3-3.5,0.4-5.8,0.8
		c-1-1.2-1.5-1.8-2.6-3c-0.2-1.6-0.3-2.4-0.4-3.9c1.6-0.3,2.3-0.4,3.9-0.6c0.1,0.8,0.1,1.2,0.2,2c0,0,0.1,0.1,0.2,0.2
		c0.1,0.1,0.1,0.1,0.2,0.2c0.7-0.1,1.1-0.2,1.8-0.3c0-0.1,0.1-0.2,0.1-0.2c0-0.1,0.1-0.2,0.1-0.3c-0.1-0.7-0.1-1.1-0.2-1.8
		c-0.1-0.2-0.2-0.3-0.4-0.4C51.3,85.3,50.5,85.4,49,85.7z M53,84.5c0.2,0.3,0.4,0.4,0.6,0.7c0.1,0.9,0.1,1.4,0.2,2.3
		c-0.1,0.2-0.2,0.3-0.2,0.4c-0.1,0.1-0.1,0.2-0.2,0.4c-0.9,0.1-1.3,0.2-2.2,0.3c-0.1-0.2-0.2-0.3-0.3-0.3c-0.1-0.1-0.2-0.2-0.3-0.3
		c-0.1-0.7-0.1-1-0.2-1.7c-1.2,0.2-1.9,0.3-3.1,0.5c0.1,1.2,0.2,1.9,0.3,3.1c0.9,1.1,1.4,1.6,2.3,2.7c2.2-0.3,3.3-0.5,5.4-0.7
		c0.7-1.3,1-1.9,1.7-3.2c-0.2-2.1-0.3-3.1-0.5-5.2c-0.9-1.1-1.4-1.6-2.3-2.7c-1.6,0.2-2.3,0.3-3.9,0.6c-0.1-0.2-0.2-0.3-0.3-0.4
		c-0.1-0.1-0.2-0.2-0.3-0.3c-0.1-1-0.1-1.4-0.2-2.4c0.2-0.3,0.3-0.5,0.5-0.9c0.9-0.1,1.3-0.2,2.2-0.3c0.2,0.3,0.4,0.4,0.6,0.7
		c0.1,0.7,0.1,1.1,0.2,1.8c1.3-0.2,1.9-0.3,3.2-0.4c-0.1-1.3-0.2-1.9-0.3-3.2c-0.9-1.1-1.4-1.6-2.3-2.7c-2.2,0.3-3.4,0.5-5.6,0.9
		c-0.7,1.3-1,2-1.7,3.3c0.2,2.1,0.3,3.1,0.6,5.2c0.9,1.1,1.4,1.6,2.3,2.7C50.7,84.9,51.4,84.7,53,84.5z M49.2,84.3
		c-0.8-0.9-1.2-1.4-2-2.3c-0.2-1.9-0.3-2.8-0.5-4.7c0.6-1.1,0.9-1.7,1.5-2.9c2.1-0.4,3.1-0.5,5.2-0.8c0.8,0.9,1.2,1.4,2,2.3
		c0.1,0.9,0.1,1.3,0.2,2.2c-0.9,0.1-1.3,0.2-2.2,0.3c-0.1-0.5-0.1-0.8-0.1-1.3c-0.4-0.4-0.6-0.7-0.9-1.1c-1.1,0.2-1.6,0.2-2.6,0.4
		c-0.3,0.5-0.4,0.8-0.7,1.4c0.1,1.2,0.2,1.8,0.3,2.9c0.4,0.4,0.6,0.6,0.9,1.1c1.5-0.2,2.3-0.4,3.9-0.6c0.8,0.9,1.2,1.4,2,2.4
		c0.2,1.8,0.3,2.8,0.4,4.6c-0.6,1.1-0.9,1.7-1.5,2.8c-2,0.3-3,0.4-5.1,0.7c-0.8-0.9-1.2-1.4-2-2.3c-0.1-0.9-0.1-1.3-0.2-2.1
		c0.9-0.1,1.3-0.2,2.2-0.3c0.1,0.5,0.1,0.8,0.1,1.3c0.4,0.4,0.6,0.6,0.9,1.1c1-0.1,1.5-0.2,2.6-0.4c0.3-0.5,0.4-0.8,0.7-1.3
		c-0.1-1.1-0.2-1.7-0.3-2.9c-0.4-0.5-0.6-0.7-0.9-1.1C51.6,84,50.8,84.1,49.2,84.3z"/>
	<path d="M67.4,83.5c-1-1.3-1.5-1.9-2.5-3.2c-0.2-2.3-0.3-3.5-0.4-5.9c0.8-1.4,1.2-2.2,2.1-3.6c2.4-0.2,3.6-0.3,6-0.4
		c1,1.3,1.5,2,2.5,3.3c0.1,1.6,0.1,2.5,0.2,4.1c-1.6,0.1-2.4,0.1-4,0.2c-0.1-0.8-0.1-1.3-0.1-2.1c-0.1-0.2-0.2-0.3-0.4-0.5
		c-0.8,0-1.1,0.1-1.9,0.1c-0.1,0.2-0.2,0.3-0.3,0.5c0.1,0.8,0.1,1.1,0.1,1.9c0,0.1,0.1,0.1,0.1,0.2c0.1,0.1,0.1,0.1,0.2,0.2
		c1.6-0.1,2.4-0.2,3.9-0.3c1,1.3,1.5,1.9,2.5,3.3c0.1,2.3,0.2,3.4,0.3,5.7c-0.8,1.4-1.2,2.1-2.1,3.5c-2.3,0.1-3.5,0.2-5.8,0.4
		c-1-1.3-1.5-1.9-2.5-3.2c-0.1-1.6-0.2-2.4-0.3-4c1.6-0.1,2.4-0.2,4-0.3c0.1,0.8,0.1,1.2,0.1,2.1c0,0.1,0.1,0.1,0.1,0.2
		c0.1,0.1,0.1,0.2,0.2,0.3c0.7-0.1,1.1-0.1,1.9-0.1c0-0.1,0.1-0.1,0.1-0.2c0-0.1,0.1-0.2,0.2-0.3c0-0.7-0.1-1.1-0.1-1.8
		c-0.1-0.2-0.2-0.3-0.4-0.5C69.8,83.3,69,83.4,67.4,83.5z M71.5,82.6c0.2,0.3,0.4,0.5,0.6,0.8c0.1,0.9,0.1,1.4,0.1,2.3
		c-0.1,0.2-0.2,0.3-0.3,0.4c-0.1,0.1-0.1,0.2-0.2,0.4c-0.9,0.1-1.3,0.1-2.2,0.2c-0.1-0.2-0.2-0.3-0.3-0.4c-0.1-0.1-0.2-0.2-0.3-0.3
		c0-0.7-0.1-1-0.1-1.7c-1.3,0.1-1.9,0.1-3.1,0.3c0.1,1.3,0.1,1.9,0.2,3.2c0.9,1.1,1.3,1.7,2.2,2.9c2.2-0.2,3.3-0.3,5.5-0.4
		c0.7-1.3,1.1-1.9,1.8-3.1c-0.1-2.1-0.2-3.1-0.3-5.2c-0.9-1.2-1.3-1.7-2.2-2.9c-1.6,0.1-2.4,0.1-3.9,0.3c-0.1-0.2-0.2-0.3-0.3-0.4
		c-0.1-0.1-0.2-0.2-0.3-0.4c-0.1-1-0.1-1.5-0.2-2.4c0.2-0.3,0.3-0.5,0.5-0.8c0.9-0.1,1.4-0.1,2.3-0.2c0.2,0.3,0.4,0.5,0.6,0.8
		c0,0.7,0.1,1.1,0.1,1.8c1.3-0.1,1.9-0.1,3.2-0.2c-0.1-1.3-0.1-2-0.2-3.3c-0.9-1.2-1.4-1.8-2.3-2.9c-2.3,0.1-3.4,0.2-5.7,0.4
		c-0.7,1.3-1.1,1.9-1.9,3.2c0.2,2.1,0.2,3.2,0.4,5.3c0.9,1.1,1.4,1.7,2.3,2.9C69.1,82.8,69.9,82.7,71.5,82.6z M67.7,82.2
		c-0.8-1-1.2-1.5-1.9-2.4c-0.1-1.9-0.2-2.9-0.3-4.8c0.6-1.1,1-1.7,1.6-2.8c2.1-0.2,3.2-0.2,5.3-0.4c0.8,1,1.2,1.5,2,2.5
		c0.1,0.9,0.1,1.4,0.1,2.3c-0.9,0-1.3,0.1-2.2,0.1c0-0.5-0.1-0.8-0.1-1.4c-0.4-0.5-0.6-0.7-0.9-1.2c-1.1,0.1-1.6,0.1-2.7,0.2
		c-0.3,0.5-0.5,0.8-0.8,1.3c0.1,1.2,0.1,1.8,0.2,3c0.4,0.5,0.6,0.7,0.9,1.2c1.6-0.1,2.3-0.2,3.9-0.3c0.8,1,1.2,1.5,1.9,2.5
		c0.1,1.9,0.2,2.8,0.3,4.6c-0.6,1.1-1,1.6-1.6,2.7c-2,0.1-3.1,0.2-5.1,0.4c-0.8-1-1.2-1.5-1.9-2.5c-0.1-0.9-0.1-1.3-0.2-2.2
		c0.9-0.1,1.3-0.1,2.2-0.2c0,0.5,0.1,0.8,0.1,1.3c0.4,0.5,0.5,0.7,0.9,1.1c1-0.1,1.6-0.1,2.6-0.2c0.3-0.5,0.4-0.8,0.7-1.3
		c-0.1-1.2-0.1-1.7-0.2-2.9c-0.4-0.5-0.5-0.7-0.9-1.2C70.1,82,69.3,82,67.7,82.2z"/>
	<path d="M81.4,82.9c0,1,0.1,1.6,0.1,2.6c0.3,0,0.5,0,0.8,0c0.1,1.9,0.1,2.9,0.2,4.8c-2.2,0.1-3.3,0.1-5.5,0.2
		c-0.1-1.9-0.2-2.9-0.3-4.9c0.3,0,0.5,0,0.8,0c-0.2-3.5-0.4-6.9-0.6-10.4c-0.3,0-0.5,0-0.8,0c-0.1-1.9-0.2-2.9-0.3-4.9
		c3.5-0.1,5.2-0.1,8.7-0.1c1,1.3,1.5,2,2.5,3.3c0.1,2.3,0.1,3.5,0.2,5.9c-0.9,1.3-1.3,2-2.2,3.3C83.6,82.8,82.9,82.8,81.4,82.9z
		 M84.9,82.2c0.8-1.2,1.2-1.8,2-3c-0.1-2.1-0.1-3.2-0.2-5.4c-0.9-1.2-1.3-1.8-2.2-3c-3.2,0-4.9,0-8.1,0.1c0.1,1.5,0.1,2.2,0.2,3.7
		c0.3,0,0.5,0,0.8,0c0.2,3.9,0.4,7.7,0.6,11.6c-0.3,0-0.5,0-0.8,0c0.1,1.5,0.1,2.2,0.2,3.7c1.9-0.1,2.8-0.1,4.7-0.2
		C82,88.2,82,87.5,81.9,86c-0.3,0-0.5,0-0.8,0c-0.1-1.5-0.1-2.3-0.2-3.8C82.5,82.2,83.3,82.2,84.9,82.2z M80.4,81.6
		c0.1,2.1,0.1,3.1,0.2,5.2c0.3,0,0.5,0,0.8,0c0,0.9,0.1,1.4,0.1,2.3c-1.5,0.1-2.3,0.1-3.8,0.2c0-0.9-0.1-1.4-0.1-2.3
		c0.3,0,0.5,0,0.8,0c-0.2-4.3-0.4-8.7-0.7-13c-0.3,0-0.5,0-0.8,0c0-0.9-0.1-1.4-0.1-2.3c2.9-0.1,4.4-0.1,7.4-0.1
		c0.8,1,1.1,1.6,1.9,2.6c0.1,1.9,0.1,2.9,0.2,4.8c-0.7,1-1,1.5-1.7,2.6C83,81.5,82.1,81.6,80.4,81.6z M84.1,78.1
		c0-1.2-0.1-1.8-0.1-3.1c-0.4-0.5-0.5-0.7-0.9-1.2c-1.2,0-1.8,0-3,0c0.1,2.2,0.2,3.3,0.3,5.5c1.2,0,1.8,0,2.9-0.1
		C83.6,78.8,83.7,78.5,84.1,78.1z M83.1,78.6c-0.9,0-1.4,0-2.3,0c-0.1-1.6-0.1-2.4-0.2-4.1c0.9,0,1.4,0,2.3,0
		c0.2,0.3,0.3,0.5,0.6,0.8c0,1,0.1,1.5,0.1,2.5C83.4,78.1,83.3,78.3,83.1,78.6z M83.1,77.5c0-0.8-0.1-1.2-0.1-2
		c-0.1-0.2-0.2-0.3-0.4-0.5c-0.7,0-1,0-1.7,0c0.1,1.2,0.1,1.8,0.1,2.9c0.7,0,1,0,1.7,0C83,77.8,83,77.7,83.1,77.5z"/>
	<path d="M90.2,70.4c2.4,0.1,3.6,0.1,6.1,0.3c1,1.4,1.4,2,2.4,3.4c0.1,4.3,0.1,8.6,0.2,12.9c-0.9,1.3-1.3,1.9-2.2,3.2
		c-2.3,0-3.5,0-5.8,0c-0.9-1.3-1.4-2-2.4-3.3c-0.1-4.4-0.3-8.8-0.4-13.2C88.9,72.3,89.3,71.6,90.2,70.4z M88.4,73.9
		c0.1,4.2,0.3,8.5,0.4,12.7c0.9,1.2,1.3,1.8,2.1,2.9c2.2,0,3.3,0,5.5,0c0.8-1.2,1.2-1.7,2-2.9c-0.1-4.1-0.1-8.3-0.2-12.4
		c-0.9-1.2-1.3-1.8-2.1-3c-2.3-0.1-3.4-0.2-5.7-0.3C89.6,72.1,89.2,72.7,88.4,73.9z M90.7,71.6c2.1,0.1,3.2,0.1,5.3,0.2
		c0.7,1,1.1,1.6,1.9,2.6c0.1,3.9,0.1,7.9,0.2,11.8c-0.7,1-1,1.5-1.7,2.5c-2.1,0-3.1,0-5.1,0c-0.7-1-1.1-1.5-1.8-2.5
		c-0.1-4-0.3-8.1-0.4-12.1C89.6,73.1,90,72.6,90.7,71.6z M94.7,74c-1.1,0-1.6-0.1-2.7-0.1c-0.3,0.5-0.5,0.7-0.8,1.2
		c0.1,3.4,0.2,6.9,0.3,10.3c0.3,0.5,0.5,0.7,0.9,1.2c1,0,1.6,0,2.6,0c0.3-0.5,0.5-0.7,0.8-1.1c-0.1-3.4-0.1-6.8-0.2-10.2
		C95.2,74.7,95,74.5,94.7,74z M95.1,75.5c0.1,3.2,0.1,6.5,0.2,9.7c-0.1,0.2-0.2,0.3-0.3,0.4c-0.1,0.1-0.1,0.2-0.2,0.4
		c-0.9,0-1.3,0-2.2,0c-0.1-0.2-0.2-0.3-0.3-0.4c-0.1-0.1-0.2-0.2-0.3-0.4c-0.1-3.3-0.2-6.5-0.3-9.8c0.2-0.3,0.3-0.5,0.5-0.8
		c0.9,0,1.4,0,2.3,0.1C94.7,75,94.9,75.2,95.1,75.5z M94.3,75.2c-0.8,0-1.1,0-1.9-0.1c-0.1,0.2-0.2,0.3-0.3,0.5
		c0.1,3.1,0.2,6.2,0.2,9.2c0,0.1,0.1,0.1,0.1,0.2c0.1,0.1,0.1,0.2,0.2,0.3c0.7,0,1.1,0,1.9,0c0-0.1,0.1-0.1,0.1-0.2
		c0-0.1,0.1-0.1,0.2-0.2c-0.1-3.1-0.1-6.1-0.2-9.2C94.5,75.5,94.5,75.4,94.3,75.2z"/>
	<path d="M99.9,90.1c0-1.9,0-2.8,0-4.6c0.3,0,0.5,0,0.8,0c0-3.3-0.1-6.6-0.1-9.9c-0.3,0-0.5,0-0.8-0.1c0-1.9,0-2.8,0-4.6
		c2.9,0.2,5.9,0.5,8.8,0.9c1,1.4,1.4,2,2.4,3.4c0,1.9,0,2.8-0.1,4.7c-0.3,0.4-0.5,0.6-0.9,1c0.3,0.5,0.5,0.7,0.8,1.2
		c0,1.6,0,2.4,0,4c0.3,0,0.5,0,0.8,0.1c0,1.8,0,2.7-0.1,4.4c-1.9-0.1-2.9-0.2-4.8-0.2c0-2.8,0-4.2,0-7c-0.1-0.1-0.2-0.3-0.3-0.5
		c-0.7,0-1-0.1-1.7-0.1c0,1.2,0,1.8,0,2.9c0.3,0,0.5,0,0.8,0c0,1.8,0,2.7,0,4.6C103.2,90.2,102.1,90.2,99.9,90.1z M105.1,89.7
		c0-1.4,0-2.1,0-3.5c-0.3,0-0.5,0-0.8,0c0-1.6,0-2.4,0-4c0.9,0.1,1.4,0.1,2.3,0.2c0.1,0.2,0.2,0.3,0.3,0.4c0.1,0.1,0.2,0.2,0.3,0.4
		c0,2.7,0,4,0,6.7c1.6,0.1,2.4,0.1,4,0.2c0-1.4,0-2,0-3.4c-0.3,0-0.5,0-0.8-0.1c0-1.7,0-2.6,0-4.3c-0.4-0.6-0.6-0.9-1-1.5
		c0.4-0.5,0.6-0.8,1-1.3c0-1.7,0-2.5,0-4.2c-0.8-1.2-1.3-1.8-2.1-3c-3.3-0.4-4.9-0.5-8.2-0.8c0,1.4,0,2.1,0,3.5c0.3,0,0.5,0,0.8,0.1
		c0,3.7,0.1,7.3,0.1,11c-0.3,0-0.5,0-0.8,0c0,1.4,0,2.1,0,3.5C102.2,89.6,103.1,89.6,105.1,89.7z M100.7,88.9c0-0.9,0-1.3,0-2.2
		c0.3,0,0.5,0,0.8,0c0-4.1-0.1-8.2-0.1-12.4c-0.3,0-0.5,0-0.8-0.1c0-0.9,0-1.3,0-2.1c3,0.2,4.5,0.4,7.5,0.7c0.7,1,1.1,1.6,1.8,2.6
		c0,1.5,0,2.2,0,3.7c-0.5,0.6-0.7,0.9-1.2,1.5c0.5,0.7,0.7,1,1.2,1.7c0,1.9,0,2.8,0,4.7c0.3,0,0.5,0,0.8,0.1c0,0.8,0,1.3,0,2.1
		c-1.2-0.1-1.8-0.1-3-0.2c0-2.5,0-3.8,0-6.3c-0.3-0.5-0.5-0.7-0.8-1.2c-1.2-0.1-1.8-0.1-3-0.2c0,2.1,0,3.2,0,5.4c0.3,0,0.5,0,0.8,0
		c0,0.9,0,1.3,0,2.1C103,89,102.3,88.9,100.7,88.9z M107.6,78.5c0-1,0-1.4,0-2.4c-0.3-0.5-0.5-0.7-0.9-1.2c-1.2-0.1-1.8-0.2-3-0.3
		c0,1.9,0,2.9,0,4.8c1.2,0.1,1.8,0.1,3,0.2C107.1,79.1,107.2,78.9,107.6,78.5z M106.5,78.9c-0.9-0.1-1.4-0.1-2.3-0.2
		c0-1.4,0-2,0-3.4c0.9,0.1,1.4,0.1,2.3,0.2c0.2,0.3,0.3,0.5,0.6,0.8c0,0.7,0,1.1,0,1.9C106.9,78.5,106.8,78.6,106.5,78.9z
		 M106.7,77.9c0-0.6,0-0.8,0-1.4c-0.1-0.2-0.2-0.3-0.3-0.5c-0.7-0.1-1-0.1-1.7-0.2c0,0.9,0,1.4,0,2.3c0.7,0.1,1,0.1,1.7,0.1
		C106.5,78.2,106.6,78.1,106.7,77.9z"/>
	<path d="M121.2,77.9c-0.2,0-0.3,0-0.5-0.1c-0.1,3-0.2,6.1-0.3,9.1c0.3,0,0.5,0.1,0.8,0.1c-0.1,1.7-0.1,2.5-0.1,4.2
		c-2.2-0.2-3.4-0.3-5.6-0.4c0-1.7,0.1-2.6,0.1-4.4c0.3,0,0.5,0,0.8,0.1c0.1-3.1,0.1-6.2,0.2-9.3c-0.2,0-0.3,0-0.5-0.1
		c0,0.4,0,0.6,0,1.1c-1.4-0.2-2.1-0.3-3.4-0.4c0-2.2,0.1-3.3,0.1-5.5c4,0.6,8.1,1.2,12.1,2c-0.1,2.1-0.1,3.1-0.2,5.2
		c-1.4-0.2-2-0.3-3.4-0.5C121.2,78.5,121.2,78.3,121.2,77.9z M121.6,78.5c1,0.2,1.5,0.2,2.6,0.4c0.1-1.7,0.1-2.5,0.2-4.2
		c-3.7-0.7-7.5-1.3-11.2-1.8c0,1.8,0,2.7-0.1,4.4c1,0.1,1.6,0.2,2.6,0.3c0-0.4,0-0.6,0-1c0.5,0.1,0.8,0.1,1.4,0.2
		c-0.1,3.4-0.2,6.9-0.3,10.3c-0.3,0-0.5,0-0.8-0.1c0,1.3,0,2-0.1,3.3c1.9,0.1,2.9,0.2,4.8,0.4c0-1.3,0.1-1.9,0.1-3.2
		c-0.3,0-0.5-0.1-0.8-0.1c0.1-3.4,0.2-6.8,0.3-10.1c0.5,0.1,0.8,0.1,1.4,0.2C121.6,77.9,121.6,78.1,121.6,78.5z M122.1,76.9
		c-0.9-0.2-1.4-0.2-2.4-0.4c-0.1,3.8-0.2,7.6-0.4,11.4c0.3,0,0.5,0,0.8,0.1c0,0.8,0,1.2-0.1,2c-1.5-0.1-2.3-0.2-3.9-0.3
		c0-0.8,0-1.2,0-2c0.3,0,0.5,0,0.8,0.1c0.1-3.9,0.2-7.7,0.3-11.6c-0.9-0.1-1.4-0.2-2.4-0.3c0,0.4,0,0.6,0,1.1
		c-0.6-0.1-1-0.1-1.6-0.2c0-1.3,0-1.9,0.1-3.1c3.4,0.5,6.8,1,10.2,1.6c0,1.2-0.1,1.8-0.1,3c-0.6-0.1-0.9-0.2-1.6-0.3
		C122.1,77.5,122.1,77.3,122.1,76.9z"/>
	<path d="M127.5,85.5c-0.9-1.3-1.3-1.9-2.1-3.2c0.1-2,0.1-3,0.2-5c1-1,1.5-1.5,2.4-2.4c2.4,0.5,3.6,0.8,6,1.3
		c0.9,1.3,1.3,1.9,2.1,3.2c-0.1,1.3-0.1,1.9-0.2,3.2c-1.6-0.3-2.4-0.5-4-0.8c0-0.7,0.1-1,0.1-1.7c-0.1-0.2-0.2-0.3-0.3-0.5
		c-0.8-0.2-1.1-0.2-1.9-0.4c-0.1,0.1-0.2,0.2-0.3,0.3c0,0.6-0.1,0.9-0.1,1.6c0,0.1,0.1,0.1,0.1,0.2c0,0.1,0.1,0.1,0.2,0.2
		c1.6,0.3,2.3,0.4,3.9,0.7c0.8,1.3,1.3,1.9,2.1,3.1c-0.1,1.8-0.2,2.7-0.3,4.5c-1,0.9-1.5,1.4-2.4,2.4c-2.3-0.3-3.5-0.4-5.8-0.7
		c-0.8-1.2-1.3-1.8-2.1-3.1c0.1-1.4,0.1-2.1,0.2-3.4c1.6,0.2,2.4,0.3,4,0.6c0,0.7-0.1,1-0.1,1.7c0,0.1,0.1,0.1,0.1,0.2
		c0,0.1,0.1,0.1,0.2,0.2c0.7,0.1,1.1,0.2,1.9,0.3c0.1-0.1,0.1-0.1,0.2-0.1c0.1,0,0.1-0.1,0.2-0.2c0-0.6,0.1-0.9,0.1-1.5
		c-0.1-0.2-0.2-0.3-0.3-0.5C129.9,85.8,129.1,85.7,127.5,85.5z M131.6,85.6c0.2,0.3,0.3,0.4,0.5,0.7c0,0.8-0.1,1.1-0.1,1.9
		c-0.1,0.1-0.2,0.2-0.3,0.3c-0.1,0.1-0.2,0.1-0.3,0.3c-0.9-0.1-1.3-0.2-2.2-0.3c-0.1-0.2-0.2-0.3-0.3-0.4c-0.1-0.1-0.1-0.2-0.2-0.3
		c0-0.6,0-0.9,0.1-1.4c-1.3-0.2-1.9-0.3-3.2-0.4c0,1.1-0.1,1.6-0.1,2.7c0.8,1.1,1.1,1.7,1.9,2.8c2.2,0.2,3.3,0.4,5.5,0.6
		c0.9-0.9,1.3-1.3,2.2-2.1c0.1-1.7,0.2-2.5,0.3-4.2c-0.7-1.1-1.1-1.7-1.9-2.8c-1.6-0.3-2.3-0.4-3.9-0.7c-0.1-0.2-0.2-0.3-0.3-0.4
		c-0.1-0.1-0.1-0.2-0.2-0.4c0-0.8,0.1-1.2,0.1-2c0.2-0.2,0.3-0.3,0.6-0.5c0.9,0.2,1.4,0.3,2.3,0.5c0.2,0.3,0.3,0.5,0.5,0.8
		c0,0.6-0.1,0.9-0.1,1.5c1.3,0.2,1.9,0.4,3.2,0.6c0.1-1,0.1-1.6,0.2-2.6c-0.8-1.1-1.1-1.7-1.9-2.9c-2.3-0.5-3.4-0.8-5.6-1.2
		c-0.9,0.8-1.3,1.3-2.2,2.1c-0.1,1.8-0.1,2.7-0.2,4.5c0.8,1.2,1.2,1.7,1.9,2.9C129.3,85.2,130.1,85.4,131.6,85.6z M128,84.4
		c-0.7-1-1-1.5-1.7-2.4c0.1-1.6,0.1-2.4,0.2-4c0.8-0.8,1.1-1.1,1.9-1.8c2.1,0.4,3.2,0.7,5.2,1.1c0.7,1,1,1.5,1.7,2.5
		c0,0.7-0.1,1.1-0.1,1.8c-0.9-0.2-1.3-0.3-2.2-0.5c0-0.4,0-0.7,0.1-1.1c-0.3-0.5-0.5-0.7-0.8-1.2c-1.1-0.2-1.6-0.3-2.7-0.5
		c-0.4,0.3-0.5,0.5-0.9,0.9c-0.1,1-0.1,1.5-0.1,2.5c0.3,0.5,0.5,0.7,0.8,1.2c1.6,0.3,2.3,0.4,3.9,0.7c0.7,1,1,1.5,1.6,2.4
		c-0.1,1.5-0.2,2.2-0.3,3.7c-0.8,0.7-1.1,1.1-1.9,1.8c-2-0.3-3.1-0.4-5.1-0.6c-0.6-1-1-1.4-1.6-2.4c0-0.7,0.1-1.1,0.1-1.8
		c0.9,0.1,1.3,0.2,2.2,0.3c0,0.4,0,0.7-0.1,1.1c0.3,0.4,0.5,0.7,0.8,1.1c1,0.1,1.6,0.2,2.6,0.3c0.4-0.3,0.5-0.5,0.9-0.9
		c0.1-0.9,0.1-1.4,0.1-2.3c-0.3-0.5-0.5-0.7-0.8-1.2C130.3,84.8,129.5,84.7,128,84.4z"/>
	<path d="M148.6,89.9c0-0.2,0-0.3,0.1-0.5c-0.1,0-0.1,0-0.2-0.1c-0.1,0.8-0.1,1.2-0.2,2c0.6,0.1,0.9,0.2,1.5,0.3
		c-0.2,1.3-0.2,2-0.4,3.4c-2.4-0.4-3.6-0.6-6.1-1c0.1-1.4,0.2-2.2,0.3-3.6c0.3,0.1,0.5,0.1,0.8,0.1c0.3-3.1,0.4-4.6,0.7-7.6
		c-0.3-0.1-0.5-0.1-0.8-0.2c0.1-1.4,0.2-2.2,0.3-3.6c3.4,1,6.7,2,10.1,3.1c-0.2,1.5-0.3,2.3-0.5,3.8c-1.3-0.4-1.9-0.6-3.2-0.9
		c0-0.2,0-0.3,0.1-0.6c-0.8-0.2-1.2-0.3-2-0.6c-0.1,0.8-0.1,1.2-0.2,2c0.1,0,0.1,0,0.2,0.1c0-0.2,0-0.3,0.1-0.6
		c1.3,0.3,2,0.5,3.2,0.9c-0.2,1.7-0.3,2.6-0.5,4.4C150.5,90.3,149.9,90.2,148.6,89.9z M149.1,89c0,0.2,0,0.3-0.1,0.6
		c1,0.2,1.5,0.3,2.4,0.6c0.2-1.4,0.3-2.2,0.4-3.6c-1-0.3-1.5-0.4-2.5-0.7c0,0.2,0,0.3-0.1,0.6c-0.4-0.1-0.6-0.2-1-0.3
		c0.1-1.1,0.2-1.7,0.3-2.8c1.1,0.3,1.7,0.5,2.8,0.8c0,0.2,0,0.3-0.1,0.5c1,0.3,1.5,0.4,2.4,0.7c0.1-1.2,0.2-1.8,0.4-3
		c-3.1-1-6.2-2-9.3-2.9c-0.1,1.1-0.2,1.6-0.3,2.7c0.3,0.1,0.5,0.1,0.8,0.2c-0.3,3.4-0.5,5.1-0.8,8.4c-0.3-0.1-0.5-0.1-0.8-0.1
		c-0.1,1.1-0.2,1.6-0.3,2.7c2.1,0.3,3.2,0.5,5.3,0.9c0.1-1,0.2-1.5,0.3-2.6c-0.6-0.1-0.9-0.2-1.5-0.3c0.1-1.1,0.2-1.7,0.3-2.8
		C148.4,88.9,148.6,88.9,149.1,89z M147.6,88.2c-0.2,1.5-0.2,2.3-0.4,3.8c0.6,0.1,0.9,0.2,1.5,0.3c-0.1,0.6-0.1,1-0.2,1.6
		c-1.8-0.3-2.6-0.5-4.4-0.8c0.1-0.7,0.1-1,0.2-1.7c0.3,0.1,0.5,0.1,0.8,0.1c0.3-3.2,0.6-6.3,0.9-9.5c-0.3-0.1-0.5-0.1-0.8-0.2
		c0.1-0.7,0.1-1,0.2-1.7c2.8,0.8,5.6,1.6,8.3,2.5c-0.1,0.8-0.2,1.2-0.3,2.1c-0.6-0.2-0.9-0.3-1.5-0.5c0-0.2,0-0.3,0.1-0.6
		c-1.5-0.5-2.3-0.7-3.8-1.1c-0.2,1.5-0.2,2.3-0.4,3.8c0.8,0.2,1.2,0.3,2,0.5c0-0.2,0-0.3,0.1-0.6c0.6,0.2,0.9,0.2,1.5,0.4
		c-0.1,1.1-0.2,1.6-0.3,2.6c-0.6-0.1-0.9-0.2-1.5-0.4c0-0.2,0-0.3,0.1-0.5C148.8,88.5,148.4,88.4,147.6,88.2z"/>
	<path d="M171.4,88.6c-0.2,1-0.3,1.5-0.5,2.6c-0.3-0.1-0.5-0.2-0.8-0.3c-0.4,2.2-0.6,3.3-1.1,5.6c0.3,0.1,0.5,0.1,0.8,0.2
		c-0.2,1-0.3,1.5-0.5,2.6c-2.3-0.6-3.4-0.8-5.7-1.3c0.2-1.1,0.3-1.7,0.5-2.8c0.3,0.1,0.5,0.1,0.8,0.2c0.2-0.9,0.2-1.3,0.4-2.2
		c-0.6,0.5-1.2,1.1-1.8,1.7c-0.6,0.6-1.2,1.1-1.6,1.5c-0.9-1.9-1.3-2.9-2.2-4.9c-0.1,1-0.2,1.5-0.4,2.4c0.3,0.1,0.5,0.1,0.8,0.2
		c-0.2,1.2-0.3,1.8-0.5,3c-2.3-0.5-3.4-0.7-5.7-1.1c0.2-1.3,0.2-1.9,0.4-3.2c0.3,0.1,0.5,0.1,0.8,0.2c0.4-2.7,0.5-4.1,0.9-6.8
		c-0.3-0.1-0.5-0.2-0.8-0.3c0.2-1.3,0.2-1.9,0.4-3.2c1.8,0.6,2.8,1,4.6,1.6c1.1,2.4,1.6,3.6,2.6,5.9c1.6-1.4,2.4-2.1,4-3.3
		C168.7,87.4,169.6,87.8,171.4,88.6z M167,87.1c-0.7,0.5-1.4,1.1-2.2,1.7c-0.7,0.6-1.5,1.2-2.2,1.9c-1.1-2.4-1.7-3.7-2.8-6.3
		c-1.6-0.6-2.4-0.8-3.9-1.4c-0.1,1-0.2,1.5-0.3,2.4c0.3,0.1,0.5,0.2,0.8,0.3c-0.4,3-0.6,4.5-1,7.5c-0.3-0.1-0.5-0.1-0.8-0.2
		c-0.1,1-0.2,1.5-0.3,2.4c2,0.4,2.9,0.6,4.9,1c0.1-0.9,0.2-1.4,0.3-2.3c-0.3-0.1-0.5-0.1-0.8-0.2c0.2-1.6,0.4-2.5,0.6-4.1
		c1,2.3,1.5,3.5,2.6,5.6c0.6-0.6,1.2-1.2,1.9-1.8c0.7-0.6,1.4-1.2,2.1-1.8c-0.3,1.5-0.4,2.2-0.7,3.7c-0.3-0.1-0.5-0.1-0.8-0.2
		c-0.1,0.8-0.2,1.3-0.4,2.1c2,0.5,2.9,0.7,4.9,1.2c0.2-0.8,0.2-1.2,0.4-2c-0.3-0.1-0.5-0.1-0.8-0.2c0.5-2.5,0.7-3.7,1.2-6.2
		c0.3,0.1,0.5,0.2,0.8,0.3c0.2-0.8,0.2-1.2,0.4-2C169.4,88.1,168.6,87.7,167,87.1z M170.4,88.9c-0.1,0.5-0.1,0.7-0.2,1.2
		c-0.3-0.1-0.5-0.2-0.8-0.3c-0.5,2.8-0.8,4.2-1.3,7c0.3,0.1,0.5,0.1,0.8,0.2c-0.1,0.5-0.1,0.7-0.2,1.2c-1.6-0.4-2.3-0.6-3.9-1
		c0.1-0.5,0.1-0.8,0.2-1.3c0.3,0.1,0.5,0.1,0.8,0.2c0.4-2.2,0.6-3.3,1-5.6c-1.9,1.5-2.8,2.3-4.6,4.1c-1.2-2.5-1.8-3.8-3-6.6
		c-0.4,2.5-0.5,3.7-0.9,6.2c0.3,0.1,0.5,0.1,0.8,0.2c-0.1,0.6-0.1,0.8-0.2,1.4c-1.6-0.3-2.3-0.5-3.9-0.8c0.1-0.6,0.1-0.9,0.2-1.5
		c0.3,0.1,0.5,0.1,0.8,0.2c0.5-3.4,0.7-5,1.1-8.4c-0.3-0.1-0.5-0.2-0.8-0.3c0.1-0.6,0.1-0.9,0.2-1.5c1.3,0.4,1.9,0.6,3.1,1.1
		c1.2,2.8,1.8,4.2,3,6.8c1.9-1.7,2.8-2.5,4.7-3.9C168.5,88.1,169.1,88.4,170.4,88.9z"/>
	<path d="M16.1,121.1c-1-1-1.6-1.5-2.6-2.5c-0.3-1.8-0.5-2.7-0.8-4.5c0.7-1.3,1-1.9,1.7-3.2c2.3-0.5,3.5-0.7,5.9-1.1
		c1,1,1.6,1.5,2.6,2.6c0.6,3.9,1.2,7.8,1.8,11.8c-0.7,1.3-1,1.9-1.7,3.1c-2.3,0.2-3.4,0.2-5.7,0.4c-1.1-1.1-1.6-1.6-2.6-2.6
		c-0.2-1.1-0.3-1.7-0.5-2.8c1.5-0.2,2.2-0.3,3.7-0.4c0.1,0.5,0.1,0.7,0.2,1.2c0.1,0.1,0.2,0.2,0.4,0.4c0.8-0.1,1.2-0.1,2-0.2
		c0.1-0.2,0.1-0.3,0.2-0.4c-0.1-0.9-0.2-1.3-0.4-2.2C18.6,120.8,17.8,120.9,16.1,121.1z M20.6,120.1c0.2,1.2,0.3,1.8,0.5,2.9
		c-0.2,0.3-0.2,0.4-0.4,0.7c-0.9,0.1-1.4,0.1-2.4,0.2c-0.1-0.1-0.2-0.2-0.3-0.3c-0.1-0.1-0.2-0.2-0.3-0.3c-0.1-0.4-0.1-0.6-0.2-1
		c-1.2,0.1-1.8,0.2-3,0.3c0.1,0.8,0.2,1.2,0.4,2.1c1,0.9,1.4,1.4,2.4,2.4c2.2-0.2,3.3-0.2,5.4-0.4c0.6-1.1,0.9-1.7,1.5-2.8
		c-0.6-3.8-1.2-7.5-1.8-11.3c-0.9-0.9-1.4-1.4-2.4-2.3c-2.2,0.4-3.3,0.6-5.5,1c-0.6,1.2-0.9,1.7-1.5,2.8c0.3,1.6,0.4,2.5,0.7,4.1
		c0.9,0.9,1.4,1.3,2.4,2.2C17.9,120.4,18.8,120.3,20.6,120.1z M16.2,120c-0.8-0.8-1.2-1.2-2-1.9c-0.3-1.5-0.4-2.2-0.6-3.6
		c0.5-1,0.8-1.5,1.3-2.5c2.1-0.4,3.1-0.6,5.2-1c0.8,0.8,1.2,1.2,2,2c0.6,3.6,1.1,7.2,1.7,10.7c-0.5,1-0.8,1.4-1.3,2.4
		c-2,0.2-3,0.2-5.1,0.4c-0.8-0.8-1.2-1.2-2.1-2c-0.1-0.5-0.1-0.8-0.2-1.3c0.8-0.1,1.2-0.1,2.1-0.2c0,0.2,0.1,0.4,0.1,0.6
		c0.4,0.4,0.6,0.6,0.9,0.9c1.1-0.1,1.6-0.1,2.7-0.2c0.2-0.4,0.4-0.7,0.6-1.1c-0.2-1.5-0.4-2.3-0.6-3.8
		C19.1,119.7,18.1,119.8,16.2,120z M15.8,114.8c0.1,0.9,0.2,1.3,0.4,2.2c0.4,0.4,0.6,0.5,0.9,0.9c1.1-0.2,1.7-0.2,2.8-0.4
		c0.2-0.5,0.4-0.7,0.6-1.2c-0.1-0.9-0.2-1.4-0.4-2.3c-0.4-0.4-0.6-0.6-0.9-0.9c-1.1,0.2-1.7,0.3-2.8,0.5
		C16.1,114.1,16,114.4,15.8,114.8z M16.7,114.2c1-0.2,1.4-0.2,2.4-0.4c0.1,0.1,0.3,0.2,0.3,0.3c0.1,0.1,0.2,0.2,0.3,0.3
		c0.1,0.7,0.2,1.1,0.3,1.8c-0.1,0.2-0.1,0.3-0.2,0.4c0,0.1-0.1,0.2-0.2,0.4c-1,0.1-1.4,0.2-2.4,0.3c-0.2-0.2-0.4-0.4-0.6-0.6
		c-0.1-0.7-0.2-1.1-0.3-1.8C16.4,114.7,16.5,114.5,16.7,114.2z M16.7,115.1c0.1,0.5,0.1,0.8,0.2,1.3c0.2,0.1,0.2,0.2,0.4,0.4
		c0.8-0.1,1.2-0.2,2-0.3c0-0.1,0.1-0.1,0.1-0.2c0-0.1,0.1-0.2,0.1-0.3c-0.1-0.5-0.1-0.8-0.2-1.3c0-0.1-0.1-0.1-0.1-0.2
		c-0.1-0.1-0.1-0.1-0.2-0.2c-0.8,0.1-1.2,0.2-2,0.3C16.8,114.9,16.8,115,16.7,115.1z"/>
	<path d="M29.9,126.8c-0.3-1.8-0.4-2.6-0.6-4.4c0.3,0,0.5,0,0.8-0.1c-0.1-0.4-0.1-0.6-0.1-1c-1.9,0.2-2.8,0.3-4.7,0.5
		c-0.3-2.1-0.5-3.2-0.8-5.3c1.4-2.7,2.8-5.4,4.1-8.1c1.3-0.2,2-0.3,3.3-0.5c0.4,2.9,0.8,5.8,1.2,8.6c0.5-0.1,0.8-0.1,1.3-0.2
		c0.2,1.8,0.4,2.7,0.6,4.5c-0.5,0.1-0.8,0.1-1.3,0.1c0.1,0.4,0.1,0.6,0.1,1c0.3,0,0.4,0,0.7-0.1c0.2,1.8,0.4,2.7,0.6,4.5
		C33,126.5,31.9,126.6,29.9,126.8z M34.6,125.8c-0.2-1.4-0.3-2-0.5-3.4c-0.3,0-0.5,0-0.8,0.1c-0.1-0.8-0.2-1.2-0.3-2.1
		c0.5-0.1,0.8-0.1,1.3-0.1c-0.2-1.4-0.3-2-0.5-3.4c-0.5,0.1-0.8,0.1-1.3,0.2c-0.4-2.9-0.8-5.8-1.2-8.6c-1.1,0.2-1.6,0.3-2.7,0.4
		c-1.3,2.6-2.6,5.2-4,7.8c0.3,1.8,0.4,2.7,0.7,4.6c1.9-0.2,2.8-0.3,4.7-0.5c0.1,0.8,0.2,1.2,0.3,2c-0.3,0-0.5,0-0.8,0.1
		c0.2,1.3,0.3,2,0.5,3.3C32,126.1,32.8,126,34.6,125.8z M30.5,125.5c-0.1-0.8-0.2-1.2-0.3-2.1c0.3,0,0.5,0,0.8-0.1
		c-0.2-1.3-0.3-2-0.5-3.3c-1.9,0.2-2.8,0.3-4.7,0.5c-0.2-1.5-0.3-2.2-0.6-3.7c1.5-2.9,2.2-4.3,3.7-7.4c0.8-0.1,1.2-0.2,2.1-0.3
		c0.4,2.9,0.8,5.7,1.2,8.6c0.5-0.1,0.8-0.1,1.3-0.2c0.1,0.8,0.2,1.3,0.3,2.1c-0.5,0.1-0.8,0.1-1.3,0.1c0.2,1.3,0.3,2,0.5,3.3
		c0.3,0,0.5,0,0.8-0.1c0.1,0.8,0.2,1.3,0.3,2.1C32.7,125.3,32,125.4,30.5,125.5z M27.5,117.5c0.1,0.4,0.1,0.5,0.1,0.9
		c1.1-0.1,1.6-0.2,2.6-0.3c-0.3-1.9-0.4-2.8-0.7-4.6C28.7,115,28.3,115.9,27.5,117.5z M29.3,115c0.1,1,0.2,1.5,0.4,2.5
		c-0.7,0.1-1,0.1-1.7,0.2C28.5,116.6,28.8,116.1,29.3,115z M28.8,117c0.2,0,0.3,0,0.4-0.1c0-0.2-0.1-0.4-0.1-0.6
		C29,116.6,28.9,116.7,28.8,117z"/>
	<path d="M38.3,123.4c0.2,1.2,0.2,1.9,0.4,3.1c-0.9,0.1-1.3,0.1-2.2,0.2c-0.2-1.2-0.2-1.8-0.4-3.1C37,123.5,37.4,123.5,38.3,123.4z
		 M36.4,123.9c0.1,1,0.2,1.4,0.3,2.4c0.7-0.1,1-0.1,1.7-0.1c-0.1-1-0.2-1.5-0.3-2.4C37.4,123.8,37.1,123.9,36.4,123.9z M37.9,124.2
		c0.1,0.6,0.1,1,0.2,1.6c-0.5,0-0.7,0.1-1.1,0.1c-0.1-0.6-0.1-1-0.2-1.6C37.2,124.3,37.4,124.2,37.9,124.2z"/>
	<path d="M43.8,113.5c0-0.1,0.1-0.1,0.1-0.2c0-0.1,0.1-0.2,0.1-0.3c-0.1-0.7-0.1-1-0.2-1.7c-0.1-0.2-0.2-0.3-0.4-0.4
		c-0.7,0.1-1.1,0.1-1.8,0.2c-0.1,0.2-0.1,0.3-0.2,0.5c0.1,0.6,0.1,0.9,0.2,1.4c-1.5,0.2-2.3,0.3-3.7,0.5c-0.2-1.3-0.3-2-0.4-3.3
		c0.7-1.4,1.1-2.1,1.8-3.5c2.2-0.3,3.4-0.5,5.6-0.8c1,1.2,1.5,1.8,2.5,3c0.3,2.3,0.4,3.5,0.6,5.8c-0.2,0.3-0.2,0.5-0.4,0.8
		c0.2,0.3,0.3,0.4,0.6,0.7c0.3,2.3,0.4,3.5,0.6,5.8c-0.7,1.4-1.1,2.1-1.7,3.5c-2.2,0.2-3.3,0.3-5.5,0.4c-1-1.2-1.5-1.8-2.5-3
		c-0.1-1.2-0.2-1.8-0.4-2.9c1.5-0.1,2.2-0.2,3.7-0.4c0.1,0.4,0.1,0.7,0.1,1.1c0,0,0.1,0.1,0.1,0.2c0.1,0.1,0.1,0.1,0.2,0.2
		c0.7-0.1,1-0.1,1.7-0.2c0-0.1,0.1-0.1,0.1-0.2c0-0.1,0.1-0.2,0.1-0.3c-0.1-0.7-0.1-1-0.2-1.7c-0.1-0.2-0.2-0.3-0.4-0.4
		c-0.7,0.1-1,0.1-1.6,0.2c-0.2-1.9-0.3-2.9-0.6-4.8C42.8,113.6,43.2,113.5,43.8,113.5z M42.6,114.2c0.2,1.5,0.3,2.2,0.4,3.6
		c0.6-0.1,0.9-0.1,1.4-0.1c0.2,0.3,0.4,0.4,0.6,0.7c0.1,0.9,0.2,1.4,0.3,2.3c-0.1,0.2-0.2,0.3-0.2,0.4c-0.1,0.1-0.1,0.2-0.2,0.4
		c-0.8,0.1-1.3,0.1-2.1,0.2c-0.1-0.2-0.2-0.3-0.3-0.4c-0.1-0.1-0.2-0.2-0.3-0.3c0-0.3-0.1-0.5-0.1-0.8c-1.2,0.1-1.8,0.2-3,0.3
		c0.1,0.9,0.2,1.3,0.3,2.1c0.9,1.1,1.4,1.6,2.3,2.7c2.1-0.2,3.1-0.2,5.2-0.4c0.6-1.2,0.9-1.8,1.6-3.1c-0.2-2.1-0.4-3.2-0.6-5.3
		c-0.3-0.4-0.4-0.5-0.7-0.9c0.2-0.4,0.3-0.6,0.5-1.1c-0.2-2.1-0.4-3.2-0.6-5.3c-0.9-1.1-1.4-1.6-2.3-2.7c-2.1,0.3-3.2,0.4-5.3,0.7
		c-0.6,1.3-1,1.9-1.6,3.1c0.1,1,0.2,1.5,0.3,2.5c1.2-0.2,1.8-0.2,3-0.4c-0.1-0.5-0.1-0.7-0.1-1.1c0.2-0.3,0.3-0.5,0.4-0.8
		c0.8-0.1,1.3-0.2,2.1-0.3c0.2,0.3,0.4,0.4,0.6,0.7c0.1,0.9,0.2,1.4,0.3,2.3c-0.1,0.2-0.2,0.3-0.2,0.4c-0.1,0.1-0.1,0.2-0.2,0.4
		C43.5,114.1,43.2,114.1,42.6,114.2z M44.3,114.7c0.3-0.5,0.4-0.7,0.6-1.2c-0.1-1.1-0.2-1.7-0.3-2.8c-0.4-0.4-0.6-0.7-0.9-1.1
		c-1,0.1-1.5,0.2-2.5,0.3c-0.3,0.5-0.4,0.8-0.6,1.3c0,0.3,0.1,0.4,0.1,0.7c-0.8,0.1-1.2,0.2-2.1,0.3c-0.1-0.6-0.1-0.9-0.2-1.6
		c0.5-1.1,0.8-1.6,1.4-2.7c2-0.3,2.9-0.4,4.9-0.7c0.8,0.9,1.2,1.4,2,2.3c0.2,1.9,0.3,2.8,0.5,4.7c-0.3,0.5-0.4,0.8-0.7,1.4
		c0.4,0.5,0.6,0.7,1,1.2c0.2,1.9,0.3,2.8,0.5,4.7c-0.5,1.1-0.8,1.6-1.4,2.7c-1.9,0.2-2.9,0.2-4.8,0.4c-0.8-0.9-1.2-1.4-1.9-2.3
		c-0.1-0.5-0.1-0.7-0.1-1.2c0.8-0.1,1.2-0.1,2.1-0.2c0,0.1,0,0.2,0,0.4c0.4,0.4,0.5,0.6,0.9,1.1c1-0.1,1.5-0.1,2.4-0.2
		c0.3-0.5,0.4-0.7,0.6-1.2c-0.1-1.1-0.2-1.7-0.3-2.8c-0.4-0.5-0.6-0.7-0.9-1.1c-0.5,0-0.7,0.1-1.2,0.1c-0.1-0.9-0.2-1.4-0.3-2.3
		C43.6,114.8,43.9,114.7,44.3,114.7z"/>
</g>
</svg>
