<?xml version="1.0" encoding="utf-8"?>
<!-- Generator: Adobe Illustrator 21.1.0, SVG Export Plug-In . SVG Version: 6.00 Build 0)  -->
<svg version="1.1" id="Layer_1" xmlns="http://www.w3.org/2000/svg" xmlns:xlink="http://www.w3.org/1999/xlink" x="0px" y="0px"
	 viewBox="0 0 200 200" style="enable-background:new 0 0 200 200;" xml:space="preserve">
<style type="text/css">
	.st0{fill:#2E3192;}
	.st1{fill:#FFFFFF;}
	.st2{fill:#ED1C24;}
</style>
<g>
	<polygon class="st0" points="100,100.1 53,130.6 72.7,81.1 31.3,50.3 83.8,50.4 100,0.2 116.2,50.4 168.7,50.3 127.3,81.1 
		147,130.6 	"/>
	<polygon class="st1" points="100,99.3 54.5,128.8 73.6,80.8 33.4,51 84.3,51.1 100,2.5 115.7,51.1 166.6,51 126.5,80.8 
		145.5,128.8 	"/>
	<polygon class="st0" points="100,95.9 60.3,121.7 76.9,79.9 41.9,53.8 86.3,53.9 100,11.5 113.7,53.9 158.2,53.8 123.1,79.9 
		139.7,121.7 	"/>
	<polygon class="st1" points="118.4,95.7 110.7,76.4 127.3,64.1 106.3,64.1 100,44.7 93.8,64.1 72.7,64.1 89.3,76.4 81.6,95.7 
		100,83.8 	"/>
	<polygon class="st2" points="108.8,84 105.1,74.7 113.3,68.7 102.9,68.7 100,59.8 97.1,68.7 86.7,68.7 94.9,74.7 91.2,84 100,78.3 
			"/>
	<path class="st1" d="M109.4,109c1.6-2.5,2.2-5.5,1.6-8.4c-0.6-3-2.3-5.5-4.8-7.1c-2.5-1.6-5.5-2.3-8.4-1.6c-3,0.6-5.5,2.3-7.1,4.8
		c-1.6,2.5-2.3,5.5-1.6,8.4c0.6,3,2.3,5.5,4.8,7.1C98.9,115.6,106,114.2,109.4,109L109.4,109z"/>
	<circle class="st1" cx="88.7" cy="105.1" r="0"/>
	<path class="st0" d="M110,109.4c3.7-5.5,2.1-13-3.4-16.6c-2.7-1.8-5.9-2.4-9-1.8c-3.1,0.6-5.8,2.4-7.6,5.1c-1.8,2.7-2.4,5.9-1.8,9
		c0.6,3.1,2.4,5.8,5.1,7.6C98.9,116.4,106.3,114.9,110,109.4L110,109.4z M98.1,113.9c-0.7-0.3-1.3-0.7-2-1.3c-1.1-1-2-2.5-2.6-4.1
		c2.4,0.6,6.5,3.3,6.5,3.3c2,0.9,4,1.1,5.7,0.7C103.5,113.9,100.8,114.3,98.1,113.9L98.1,113.9z M106.9,111.7
		c-1.8,0.9-4.3,0.9-6.7-0.2c-0.2-0.1-4.4-2.8-6.8-3.4c-0.2-0.7-0.5-1.5-0.6-2.3c2,0.4,4.5,0.6,7.2,0.5c5.2-0.1,9.7-1.2,11.2-2.6
		c-0.2,1.9-0.7,3.7-1.8,5.4C108.7,110.1,107.8,111,106.9,111.7L106.9,111.7z M111.3,103.1c-0.1,0.1-0.1,0.2-0.2,0.3
		c-1.3,1.4-5.9,2.5-11,2.6c-2.7,0.1-5.3-0.2-7.3-0.5c-0.1-0.8-0.2-1.5-0.2-2.3c0-0.3,0-0.6,0-0.9c2.4,0.4,4.8-2.1,4.8-2.3
		c4.1-3.9,8.4-6.2,10.3-5.3C110.1,96.8,111.3,99.9,111.3,103.1L111.3,103.1z M88.8,103.8c-0.2-2.1,0.2-4.1,1.2-6
		c0,0.3-0.4,3.5,2.3,4.3c0,0.3,0,0.7,0,1c0,0.8,0.1,1.5,0.2,2.3c-1.6-0.4-2.8-0.9-3.4-1.4C88.9,103.9,88.8,103.8,88.8,103.8
		L88.8,103.8z M106.2,93.4c0.3,0.2,0.6,0.4,0.9,0.6c-2.3-0.2-6.2,1.9-9.9,5.5c0,0-2.3,2.6-4.6,2.1c0.2-3.4,1.3-6.4,3.1-8.4
		c0.8-0.9,1.7-1.4,2.7-1.7C101.1,91.3,103.9,91.9,106.2,93.4L106.2,93.4z M96.8,92c-0.5,0.3-0.9,0.7-1.3,1.1c-1.9,2-3,5.1-3.2,8.5
		c-2.4-0.8-1.9-3.7-1.9-3.9c0.1-0.4,0.2-0.9,0.3-1.2C92.1,94.4,94.2,92.8,96.8,92L96.8,92z M89,105c-0.1-0.2-0.1-0.5-0.1-0.7
		c0.7,0.6,2,1,3.6,1.4c0.2,0.8,0.3,1.6,0.6,2.3c-0.7-0.1-1.2,0-1.6,0.4c-0.3,0.4-0.4,0.9-0.4,1.2C90,108.3,89.3,106.7,89,105L89,105
		z M93.8,112.2c-0.9-0.6-1.7-1.3-2.3-2.1c0,0,0,0,0-0.1s-0.2-0.9,0.3-1.4c0.3-0.3,0.8-0.4,1.4-0.2c0.6,1.8,1.6,3.4,2.8,4.4
		c0.3,0.3,0.6,0.5,1,0.8C95.8,113.3,94.8,112.8,93.8,112.2L93.8,112.2z"/>
	<polygon class="st0" points="34.1,186 40.2,152.4 62.6,152.4 62.6,158.1 45.6,158.1 44.4,166.4 55.7,166.4 55.1,171.9 43.3,171.9 
		41.8,180.5 59.7,180.5 59.7,186 	"/>
	<polygon class="st0" points="71.1,186 74,152.4 96.4,152.4 96.4,158 80.1,158 79.6,166.6 90.4,166.6 90.4,172 79.1,172 78.3,186 	
		"/>
	<polygon class="st0" points="105.6,152.4 128.8,152.4 128.8,158 112.4,158 112.4,166.6 123.9,166.6 123.9,171.9 112.4,171.9 
		112.4,180.5 130.4,180.5 130.4,186 105.6,186 	"/>
	<polygon class="st0" points="139.4,156.5 143.7,152.4 158.7,152.4 162.3,155.1 162.6,158 146.6,158 147.5,166.1 159.4,166.1 
		164.9,170.3 166.7,181.9 162.3,186 146.1,186 142.1,182.9 142.1,180.5 159.4,180.5 158.3,171.4 145.7,171.4 140.8,167.6 	"/>
	<path class="st0" d="M73.2,146.9h-2.5l-1-2.6h-4.5l-0.9,2.6h-2.4l4.4-11.4h2.4L73.2,146.9L73.2,146.9z M68.9,142.4l-1.6-4.2
		l-1.5,4.2H68.9L68.9,142.4z M74.4,146.9v-11.4h2.2l4.7,7.6v-7.6h2.1v11.4h-2.3l-4.6-7.4v7.4H74.4L74.4,146.9z M96.2,146.9h-2.5
		l-1-2.6h-4.5l-0.9,2.6h-2.4l4.4-11.4h2.4L96.2,146.9L96.2,146.9z M91.9,142.4l-1.6-4.2l-1.6,4.2H91.9L91.9,142.4z M97.4,135.5h4.2
		c0.9,0,1.7,0.1,2.2,0.2c0.7,0.2,1.2,0.5,1.7,1c0.5,0.5,0.9,1.1,1.1,1.9c0.2,0.7,0.4,1.6,0.4,2.7c0,0.9-0.1,1.7-0.3,2.4
		c-0.3,0.8-0.7,1.5-1.2,2c-0.4,0.4-0.9,0.7-1.6,0.9c-0.5,0.2-1.2,0.2-2,0.2h-4.3V135.5L97.4,135.5z M99.7,137.4v7.6h1.7
		c0.6,0,1.1,0,1.4-0.1c0.4-0.1,0.7-0.2,0.9-0.5c0.2-0.2,0.5-0.6,0.6-1.1c0.2-0.5,0.2-1.2,0.2-2.1s-0.1-1.6-0.2-2
		c-0.2-0.5-0.4-0.9-0.6-1.1c-0.3-0.3-0.6-0.4-1.1-0.5c-0.3-0.1-0.9-0.1-1.9-0.1L99.7,137.4L99.7,137.4z M108.4,141.3
		c0-1.2,0.2-2.1,0.5-2.9c0.3-0.6,0.6-1.1,1.1-1.6c0.5-0.5,0.9-0.8,1.5-1c0.7-0.3,1.5-0.5,2.5-0.5c1.7,0,3,0.5,4,1.6s1.5,2.5,1.5,4.4
		c0,1.8-0.5,3.3-1.5,4.3c-1,1-2.3,1.6-4,1.6c-1.7,0-3-0.5-4.1-1.6C108.9,144.5,108.4,143.1,108.4,141.3L108.4,141.3z M110.8,141.2
		c0,1.3,0.3,2.3,0.9,2.9c0.6,0.7,1.3,1,2.3,1c0.9,0,1.7-0.3,2.3-1c0.6-0.7,0.9-1.6,0.9-3c0-1.3-0.3-2.3-0.9-2.9
		c-0.6-0.6-1.3-1-2.3-1c-0.9,0-1.7,0.3-2.3,1C111.1,138.9,110.8,139.9,110.8,141.2L110.8,141.2z M121.3,146.9v-11.3h2.3v9.4h5.7v1.9
		H121.3L121.3,146.9z M131,135.5h2.3v6.2c0,1,0,1.6,0.1,1.9c0.1,0.5,0.3,0.9,0.7,1.1c0.4,0.3,0.9,0.4,1.5,0.4s1.2-0.1,1.5-0.4
		c0.3-0.3,0.5-0.6,0.6-1c0.1-0.4,0.1-1,0.1-2v-6.3h2.3v6c0,1.4-0.1,2.3-0.2,2.9c-0.1,0.6-0.4,1-0.7,1.4c-0.3,0.4-0.8,0.7-1.3,0.9
		c-0.5,0.2-1.3,0.3-2.2,0.3c-1.1,0-1.9-0.1-2.5-0.4c-0.5-0.2-1-0.6-1.3-1c-0.3-0.4-0.5-0.8-0.6-1.2c-0.2-0.6-0.2-1.6-0.2-2.9
		L131,135.5L131,135.5z"/>
	<path class="st0" d="M30.9,199.7c0.1-0.4,0.1-0.9,0.2-1.3c1.1,0,2.1,0,3.2,0c0.5,0,0.9-0.1,1-0.2c0.3-0.2,0.4-0.4,0.5-0.7
		c0-0.4-0.1-0.6-0.3-0.8c-0.2-0.1-0.4-0.2-0.7-0.2c-0.4,0-0.9,0-1.3,0c-0.8,0-1.3-0.2-1.6-0.5c-0.4-0.4-0.5-0.9-0.5-1.6
		c0.1-0.6,0.3-1.1,0.6-1.5c0.4-0.4,0.8-0.6,1.4-0.7c0.2,0,0.5,0,0.9,0c1.1,0,2.3,0,3.4,0c-0.1,0.4-0.1,0.9-0.2,1.3c-1,0-2,0-3.1,0
		c-0.5,0-0.8,0-0.9,0.1c-0.3,0.1-0.5,0.3-0.5,0.8c-0.1,0.3,0,0.6,0.3,0.7c0.2,0.1,0.5,0.1,0.9,0.1c0.4,0,0.7,0,1.1,0
		c0.5,0,1,0.1,1.2,0.2c0.5,0.2,0.8,0.5,0.9,0.9c0.1,0.4,0.1,0.7,0.1,1.1c-0.1,0.4-0.2,0.9-0.5,1.2c-0.3,0.5-0.8,0.8-1.3,0.9
		c-0.3,0.1-0.7,0.1-1.2,0.1C33.3,199.7,32.1,199.7,30.9,199.7L30.9,199.7z M47.3,197.1c0,0.4-0.1,0.9-0.1,1.3c0,0.4-0.1,0.9-0.2,1.3
		c-0.5,0-1,0-1.5,0c0.1-1.2,0.2-2.4,0.4-3.7c0.1-1.2,0.3-2.4,0.4-3.7c1.1,0,2.3,0,3.4,0c0.6,0,1.1,0,1.3,0.2c0.5,0.2,0.8,0.5,1,1
		c0.2,0.4,0.2,0.8,0.2,1.2c-0.1,0.8-0.4,1.4-0.9,1.9c-0.2,0.2-0.5,0.3-0.7,0.4c-0.2,0.1-0.6,0.1-1,0.1
		C48.9,197.1,48.1,197.1,47.3,197.1L47.3,197.1z M47.4,195.8c0.6,0,1.3,0,2,0c0.3,0,0.6-0.1,0.8-0.2c0.2-0.2,0.4-0.5,0.4-0.9
		c0.1-0.5-0.1-0.8-0.4-0.9c-0.1,0-0.3-0.1-0.5-0.1c-0.7,0-1.3,0-2,0C47.6,194.4,47.5,195.1,47.4,195.8L47.4,195.8z M63.6,192.3
		c1.6,0,2.6,0.6,3,1.9c0.2,0.5,0.2,1.2,0.2,2c-0.1,0.9-0.2,1.6-0.5,2.1c-0.3,0.5-0.8,0.9-1.3,1.2c-0.5,0.2-1,0.3-1.6,0.3
		c-1.6,0-2.6-0.5-3-1.7c-0.2-0.5-0.3-1.2-0.2-2c0-0.7,0.2-1.3,0.4-1.8c0.2-0.5,0.5-0.9,0.8-1.2C61.7,192.6,62.6,192.3,63.6,192.3
		L63.6,192.3z M63.5,193.6c-0.7,0-1.2,0.2-1.5,0.7c-0.2,0.4-0.4,0.9-0.5,1.8c-0.1,0.8,0,1.4,0.2,1.8c0.3,0.5,0.8,0.7,1.4,0.7
		c0.6,0,1.1-0.2,1.4-0.6c0.3-0.4,0.5-1,0.6-1.9c0.1-0.8,0-1.3-0.2-1.7C64.7,193.8,64.2,193.6,63.5,193.6L63.5,193.6z M76.5,196.9
		c0,0.5,0,0.9,0,1.4c0,0.5,0,0.9-0.1,1.4c-0.5,0-1,0-1.5,0c0-1.2,0.1-2.4,0.1-3.7c0-1.2,0.1-2.4,0.2-3.7c1.1,0,2.2,0,3.3,0
		c0.9,0,1.6,0.1,2,0.4c0.5,0.4,0.8,0.9,0.8,1.6c0,0.7-0.2,1.2-0.5,1.6c-0.2,0.2-0.5,0.4-0.9,0.5c0.3,0.1,0.5,0.2,0.6,0.3
		c0.1,0.1,0.2,0.3,0.4,0.5c0.1,0.2,0.2,0.5,0.2,0.9c0,0.1,0,0.2,0,0.4c0,0.4,0,0.8,0.2,1.1c-0.5,0-1.1,0-1.6,0
		c0-0.1-0.1-0.5-0.2-1.1c0-0.5-0.1-0.8-0.3-1.1c-0.1-0.2-0.2-0.3-0.4-0.4c-0.3-0.2-0.6-0.2-1.2-0.2
		C77.3,196.9,76.9,196.9,76.5,196.9L76.5,196.9z M76.6,195.6c0.7,0,1.4,0,2,0c0.3,0,0.6-0.1,0.8-0.2c0.2-0.2,0.3-0.5,0.3-0.9
		c0-0.5-0.2-0.7-0.5-0.9c-0.1,0-0.3-0.1-0.5-0.1c-0.7,0-1.4,0-2,0C76.6,194.3,76.6,195,76.6,195.6L76.6,195.6z M93.8,192.4
		c0,1.2,0,2.4,0,3.7c0,1.2,0,2.4,0,3.7c-0.5,0-1,0-1.5,0c0-1.2,0-2.4,0-3.7c0-1.2,0-2.4,0-3.7C92.8,192.4,93.3,192.4,93.8,192.4
		L93.8,192.4z M93.9,196c0.4-0.6,0.9-1.2,1.3-1.8c0.4-0.6,0.9-1.2,1.3-1.8c0.6,0,1.2,0,1.9,0c-0.5,0.6-0.9,1.2-1.4,1.8
		c-0.5,0.6-0.9,1.2-1.4,1.8c0.5,0.6,0.9,1.2,1.4,1.9c0.5,0.6,0.9,1.2,1.4,1.9c-0.6,0-1.3,0-2,0c-0.5-0.6-0.9-1.2-1.3-1.9
		C94.7,197.2,94.3,196.6,93.9,196L93.9,196z M107.7,192.4c0,0.7,0.1,1.5,0.1,2.2c0,0.7,0.1,1.5,0.1,2.2c0,0.6,0.2,1.1,0.4,1.3
		c0.3,0.3,0.7,0.5,1.2,0.5c0.7,0,1.2-0.2,1.4-0.7c0.1-0.2,0.1-0.6,0.1-1.1c0-0.7-0.1-1.5-0.1-2.2c0-0.7-0.1-1.5-0.1-2.2
		c0.5,0,1,0,1.5,0c0,0.7,0.1,1.4,0.1,2.2c0,0.7,0.1,1.4,0.1,2.2c0,0.5,0,1-0.1,1.4c-0.1,0.4-0.2,0.7-0.5,0.9
		c-0.5,0.5-1.3,0.8-2.3,0.8c-1.1,0-1.9-0.2-2.4-0.7c-0.3-0.3-0.5-0.6-0.6-1c-0.1-0.3-0.2-0.7-0.2-1.2c0-0.7-0.1-1.5-0.1-2.2
		c0-0.7-0.1-1.5-0.1-2.2C106.7,192.4,107.2,192.4,107.7,192.4L107.7,192.4z M120.7,192.4c0.5,0,0.9,0,1.4,0c0,0.7,0.1,1.4,0.2,2
		c0.1,0.7,0.1,1.4,0.2,2c0,0.4,0.1,0.7,0.2,1c0.1,0.4,0.3,0.6,0.8,0.8c0.2,0.1,0.6,0.1,1.1,0.1c0.5,0,0.9,0,1.4,0
		c0,0.4,0.1,0.9,0.1,1.3c-0.5,0-1.1,0-1.6,0c-0.8,0-1.3,0-1.6-0.1c-0.8-0.2-1.3-0.7-1.6-1.6c-0.1-0.3-0.2-0.8-0.2-1.6
		c-0.1-0.7-0.1-1.4-0.2-2C120.8,193.7,120.7,193.1,120.7,192.4L120.7,192.4z M134.8,192.4c0.1,0.7,0.2,1.5,0.2,2.2
		c0.1,0.7,0.1,1.5,0.2,2.2c0.1,0.6,0.2,1.1,0.5,1.3c0.3,0.3,0.7,0.5,1.2,0.5c0.7,0,1.2-0.2,1.3-0.7c0.1-0.2,0.1-0.6,0-1.1
		c-0.1-0.7-0.2-1.5-0.2-2.2s-0.2-1.5-0.2-2.2c0.5,0,0.9,0,1.4,0c0.1,0.7,0.2,1.4,0.2,2.2c0.1,0.7,0.2,1.4,0.2,2.2
		c0.1,0.5,0.1,1,0,1.4c-0.1,0.4-0.2,0.7-0.4,0.9c-0.5,0.5-1.2,0.8-2.3,0.8c-1.1,0-1.9-0.2-2.4-0.7c-0.3-0.3-0.5-0.6-0.7-1
		c-0.1-0.3-0.2-0.7-0.2-1.2c-0.1-0.7-0.1-1.5-0.2-2.2c-0.1-0.7-0.2-1.5-0.2-2.2C133.8,192.4,134.3,192.4,134.8,192.4L134.8,192.4z
		 M137.7,190.6c0.1,0.4,0.1,0.8,0.2,1.2c-0.4,0-0.7,0-1.1,0c-0.1-0.4-0.1-0.8-0.2-1.2C136.9,190.6,137.3,190.6,137.7,190.6
		L137.7,190.6z M135.7,190.6c0.1,0.4,0.1,0.8,0.2,1.2c-0.4,0-0.7,0-1.1,0c0-0.4-0.1-0.8-0.1-1.2C135,190.6,135.3,190.6,135.7,190.6
		L135.7,190.6z M148.9,199.7c-0.2-1.2-0.3-2.4-0.5-3.7c-0.2-1.2-0.3-2.4-0.5-3.7c1.3,0,2.6,0,3.9,0c0.6,0,1.1,0.1,1.4,0.2
		c0.3,0.2,0.6,0.5,0.9,0.9c0.2,0.3,0.2,0.5,0.3,0.9c0.1,0.4,0,0.7-0.1,1s-0.4,0.6-0.6,0.7c0.7,0.3,1.1,0.9,1.2,1.7
		c0.1,0.4,0.1,0.8-0.1,1.1c-0.1,0.3-0.4,0.6-0.7,0.7c-0.3,0.1-0.7,0.2-1.3,0.2C151.4,199.7,150.1,199.7,148.9,199.7L148.9,199.7z
		 M149.7,195.4c0.7,0,1.3,0,2,0c0.3,0,0.6-0.1,0.7-0.2c0.2-0.2,0.3-0.4,0.2-0.7c-0.1-0.5-0.5-0.8-1.2-0.8s-1.3,0-2,0
		C149.6,194.3,149.7,194.8,149.7,195.4L149.7,195.4z M150.2,198.4c0.7,0,1.3,0,2,0c0.3,0,0.6-0.1,0.7-0.2c0.2-0.2,0.3-0.4,0.2-0.7
		c-0.1-0.5-0.5-0.8-1.2-0.8c-0.7,0-1.3,0-2,0C150,197.2,150.1,197.8,150.2,198.4L150.2,198.4z M163.6,192.4c0.2,0.7,0.2,1.5,0.4,2.2
		s0.2,1.5,0.4,2.2c0.1,0.6,0.3,1.1,0.6,1.3c0.3,0.3,0.8,0.5,1.3,0.5c0.7,0,1.1-0.2,1.2-0.7c0.1-0.2,0-0.6-0.1-1.1
		c-0.1-0.7-0.2-1.5-0.4-2.2s-0.3-1.5-0.4-2.2c0.5,0,1,0,1.5,0c0.1,0.7,0.2,1.4,0.4,2.2c0.1,0.7,0.3,1.4,0.4,2.2
		c0.1,0.5,0.1,1,0.1,1.4c0,0.4-0.2,0.7-0.4,0.9c-0.5,0.5-1.2,0.8-2.2,0.8c-1.1,0-1.9-0.2-2.5-0.7c-0.3-0.3-0.6-0.6-0.8-1
		c-0.1-0.3-0.2-0.7-0.3-1.2c-0.1-0.7-0.2-1.5-0.4-2.2c-0.1-0.7-0.2-1.5-0.4-2.2C162.6,192.4,163.2,192.4,163.6,192.4L163.6,192.4z
		 M166.4,190.6c0.1,0.4,0.2,0.8,0.2,1.2c-0.4,0-0.7,0-1.1,0c-0.1-0.4-0.2-0.8-0.2-1.2C165.7,190.6,166,190.6,166.4,190.6
		L166.4,190.6z M164.4,190.6c0.1,0.4,0.1,0.8,0.2,1.2c-0.4,0-0.7,0-1.1,0c-0.1-0.4-0.2-0.8-0.2-1.2
		C163.7,190.6,164,190.6,164.4,190.6L164.4,190.6z"/>
</g>
</svg>
