<?xml version="1.0" encoding="utf-8"?>
<!-- Generator: Adobe Illustrator 21.1.0, SVG Export Plug-In . SVG Version: 6.00 Build 0)  -->
<svg version="1.1" id="Layer_1" xmlns="http://www.w3.org/2000/svg" xmlns:xlink="http://www.w3.org/1999/xlink" x="0px" y="0px"
	 viewBox="0 0 200 200" style="enable-background:new 0 0 200 200;" xml:space="preserve">
<style type="text/css">
	.st0{filter:url(#Adobe_OpacityMaskFilter);}
	.st1{fill:#FFFFFF;}
	.st2{mask:url(#mask-2);fill:#FEFEFE;}
	.st3{fill:#FEFEFE;}
	.st4{fill:#2D2925;}
	.st5{fill:#007940;}
	.st6{fill:#9A3820;}
	.st7{fill:#E89E6C;}
	.st8{fill:#8C6F4B;}
</style>
<g>
	<defs>
		<filter id="Adobe_OpacityMaskFilter" filterUnits="userSpaceOnUse" x="9.5" y="0" width="181" height="200">
			<feColorMatrix  type="matrix" values="1 0 0 0 0  0 1 0 0 0  0 0 1 0 0  0 0 0 1 0"/>
		</filter>
	</defs>
	<mask maskUnits="userSpaceOnUse" x="9.5" y="0" width="181" height="200" id="mask-2">
		<g class="st0">
			<polygon id="path-1" class="st1" points="190.5,100 190.5,200 9.5,200 9.5,100 9.5,0 190.5,0 			"/>
		</g>
	</mask>
	<path id="Fill-1" class="st2" d="M190.5,94.3c0-24.2-9.4-46.9-26.5-64C149.6,16,131.4,7.1,111.3,4.6c-0.3-0.2-0.6-0.4-0.9-0.6
		c-8.9-5.7-16.6-1.9-20.8,0.2l-0.9,0.4c-6.2,0.8-12.3,2.2-18.2,4.2c-0.3-0.3-0.6-0.6-0.9-0.9C64.6,2.8,57.8,0,50.6,0
		C35.8,0,23.7,12.1,23.7,26.9c0,4.8,1.2,9.5,3.6,13.5C15.8,55.9,9.5,74.9,9.5,94.3c0,24.2,9.4,46.9,26.5,64
		c7.4,7.4,16,13.4,25.3,17.9c0,1.7,0.2,3.2,0.5,4.6c-0.4,0.6-0.7,1.3-0.9,2.1c-2.2,4.1-0.1,8.6,6.5,13.6c4,3.1,7.1,3.6,9.7,3.6
		c0.7,0,1.4,0,2-0.1l0.9-0.1c4.5-0.2,8.2-3.3,11-6.5l4.4-0.7c1.8-0.3,4-0.7,6.9-1.9c4.4-1.8,6.2-4.4,6.9-6.4
		c10.5-1,20.6-3.9,30.1-8.4c0.3,1.5,0.5,3.5,0.8,6.1c0.3,3.6,0.9,6,2.5,11.2c1.4,4.4,3.6,6.4,6.8,6c1.5-0.2,4.9-1.2,5.2-7.6
		c0.1-1.7,0.3-6.3,0.1-9.7c-0.3-4.7-0.1-7.9,0.2-8.7c0.5-1.5,0.9-4.1-0.6-6.4c3.5-2.6,6.7-5.4,9.8-8.5
		C181.1,141.2,190.5,118.5,190.5,94.3"/>
	<path id="Fill-4" class="st3" d="M185.5,94.3c0-22.8-8.9-44.3-25-60.4C146.5,20,128.6,11.5,109.3,9.4c-0.5-0.4-1-0.9-1.5-1.2
		C100.9,3.8,95.2,7,91.2,9c-0.3,0.1-0.6,0.3-1,0.5c-7.5,0.9-14.6,2.7-21.4,5.3c-0.8-1.2-1.7-2.3-2.8-3.4C62,7.3,56.5,5,50.6,5
		c-12.1,0-21.9,9.8-21.9,21.9c0,5.1,1.7,9.8,4.8,13.7C21.7,55.3,14.5,74,14.5,94.3c0,22.8,8.9,44.3,25,60.4c7.9,7.9,17,14,27,18.3
		c-0.6,4.5,0.2,7.6,1,8.8c-1.3,1.1-1.8,1.7-2,2.9c-2,2.7,2.8,6.1,4.8,7.7c4.1,3.1,6.2,2.6,9.4,2.4c3.9-0.2,7.6-4.8,9.7-7.7
		c4.2-0.6,5,0.1,5.2,0.6c1.3-0.2,3.2-0.5,5.7-1.6c5.7-2.4,4.1-5.3,3.5-5.9c-0.2-0.1-0.3-0.3-0.4-0.6c13.6-0.5,26.5-4.2,38.1-10.7
		c0.4,0.5,0.8,1,1.3,1.6c1.3,1.8,1.9,7.9,2.2,11c0.3,3.1,0.8,5.2,2.3,10.1c1.5,4.9,2.1,1.3,2.2,0c0.1-1.3,0.3-6.1,0.1-9.5
		c-0.2-3.4-0.3-8.4,0.4-10.5c0.7-2.1-0.5-2.6-0.9-3c-0.3-0.4,0-0.5-0.9-3.2c0-0.2-0.1-0.3-0.1-0.5c4.3-3,8.5-6.4,12.3-10.2
		C176.6,138.6,185.5,117.2,185.5,94.3"/>
	<path id="Fill-6" class="st4" d="M185.5,94.3c0-22.8-8.9-44.3-25-60.4C146.5,20,128.6,11.5,109.3,9.4c-0.5-0.4-1-0.9-1.5-1.2
		C100.9,3.8,95.2,7,91.2,9c-0.3,0.1-0.6,0.3-1,0.5c-7.5,0.9-14.6,2.7-21.4,5.3c-0.8-1.2-1.7-2.3-2.8-3.4C62,7.3,56.5,5,50.6,5
		c-12.1,0-21.9,9.8-21.9,21.9c0,5.1,1.7,9.8,4.8,13.7C21.7,55.3,14.5,74,14.5,94.3c0,22.8,8.9,44.3,25,60.4c7.9,7.9,17,14,27,18.3
		c-0.6,4.5,0.2,7.6,1,8.8c-1.3,1.1-1.8,1.7-2,2.9c-2,2.7,2.8,6.1,4.8,7.7c4.1,3.1,6.2,2.6,9.4,2.4c3.9-0.2,7.6-4.8,9.7-7.7
		c4.2-0.6,5,0.1,5.2,0.6c1.3-0.2,3.2-0.5,5.7-1.6c5.7-2.4,4.1-5.3,3.5-5.9c-0.2-0.1-0.3-0.3-0.4-0.6c13.6-0.5,26.5-4.2,38.1-10.7
		c0.4,0.5,0.8,1,1.3,1.6c1.3,1.8,1.9,7.9,2.2,11c0.3,3.1,0.8,5.2,2.3,10.1c1.5,4.9,2.1,1.3,2.2,0c0.1-1.3,0.3-6.1,0.1-9.5
		c-0.2-3.4-0.3-8.4,0.4-10.5c0.7-2.1-0.5-2.6-0.9-3c-0.3-0.4,0-0.5-0.9-3.2c0-0.2-0.1-0.3-0.1-0.5c4.3-3,8.5-6.4,12.3-10.2
		C176.6,138.6,185.5,117.2,185.5,94.3"/>
	<path id="Fill-8" class="st5" d="M79.8,174.1c3.2-0.1,7.6-1.1,9.6-2c0.3,0.1,0.7,0.3,1.4,0.6c0.3-2.1-1.1-6.5-1.9-8.5
		c-0.5-1.3-1-2.2-1.6-3.6c-1.8-0.3-4-1.3-5.6-1.9c0,1.3,0.2,4.5,0.5,6.7c-0.7,0.1-1.6,0.1-2.7,0.1C79.7,167.8,79.9,172.1,79.8,174.1
		"/>
	<path id="Fill-10" class="st5" d="M139.6,167.1c-0.6-0.6,0.7-2.4,1.3-5.9c0.6-3.4,0.7-9.2-1.9-12.4c-1.2-1.6-1.8-2.6-2-3.3
		c-7.8,5.7-16.8,9.5-26.3,11.1c-0.1,0.2-0.2,0.4-0.3,0.5c-1.4,1.8-4.1,4.4-6.1,5.4c-2,1.1-4.3,1.9-5.5,2.2c-0.3,2.1-0.6,6.8-0.1,8.5
		c0.2,0.6,2.6,2,3.5,3.6c0.1,0.2,0.2,0.3,0.2,0.5c13.5-0.4,26.2-4,37.3-10.1C139.7,167.2,139.6,167.1,139.6,167.1"/>
	<path id="Fill-12" class="st5" d="M158.7,35.6c-13-13-29.6-21.2-47.6-23.6c1.4,2.8,1.7,6.1,1.8,8.2c2.6-1.1,4.6-1.7,5.6-3.4
		c1.1-1.7,2.5-1.4,3.4-0.1c0.9,1.3,0.9,2.8-1.5,4.4c-2.4,1.5-4.2,2.2-4.8,2.5c-0.5,0.3-0.1,0.7,0.5,1.7c0.6,1,2.1,3.4,2.4,8.6
		c0,0.1,0,0.1,0,0.2c9.7,3,18.6,8.3,26,15.7c11.9,11.9,18.5,27.8,18.5,44.6c0,9.7-2.2,19-6.3,27.5c0.5,0.3,1.3,2.2,1.5,4.7
		c0.1,1.3,0.1,2.8-0.3,3.7c-0.4,0.9-3.5,5.6-5.1,7c-0.6,0.5-2,0.5-2.6-0.4c-0.6-0.9-0.7-0.4-1.1,0.1c-0.5,0.5-2.1,2.8-2.4,3.4
		c-0.4,0.6-1.7,1.2-0.9,3.6c0.9,2.4,1.8,4.2,1.5,5.5s-0.5,1.7,1.3,3.2c1.8,1.5,1.7,3.4,0.9,4.6c-0.5,0.7-1.3,2.7-1.6,4.8
		c21.1-15.1,34.9-39.8,34.9-67.6C183.1,72.2,174.4,51.3,158.7,35.6"/>
	<path id="Fill-14" class="st5" d="M63.3,155.6c-0.2-2.2-0.6-6.3,1-9.2c-3.2-2.2-6.2-4.7-9-7.5c-11.9-11.9-18.5-27.8-18.5-44.6
		c0-18.1,7.6-34.4,19.8-45.9c0.1-0.2,0.3-0.5,0.4-0.7c-2.1,0.6-4.2,1-6.5,1c-5.8,0-11.3-2.3-15.4-6.4c-11.8,14.7-18.3,32.8-18.3,52
		c0,22.2,8.6,43,24.3,58.7c7.5,7.5,16.2,13.4,25.7,17.5c0.4-1.8,0.9-3.7,1.7-5.8c0.7-1.9-0.4-6.3-2.3-8.7
		C65.4,155.8,64.2,155.7,63.3,155.6"/>
	<path id="Fill-16" class="st5" d="M85.4,12.6C80.1,13.5,75,15,70.1,16.8c1.6,3.1,2.4,6.5,2.4,10c0,4.7-1.5,9.2-4.2,12.9
		c4.6-2.7,9.5-4.8,14.7-6.2c0.3-0.3,0.7-0.7,1-0.9c-1.9-3.2-4.5-8.3-2.2-15.1C82.4,15.5,83.8,13.9,85.4,12.6"/>
	<path id="Fill-18" class="st3" d="M118.6,37.6c1.8,0.9,3.9,2.9,3.1,6.7c-0.3,1.5-1.6,3-1.7,3.6c-0.2,1-2.3,2.7-2.9,4
		c-0.7,1.3-0.8,2.4-0.6,3c0,0,0,0,0,0c1.1,1,3.4,2.3,4.8,2.8c1,0.4,1,0.6,0.5,1.3c0.7,0.1,1.1,0.5,1.8,1.3c0.7,0.9,2.6,0.3,3.8-0.3
		c1.2-0.6,2.7-0.8,3.9,0.7c1.2,1.5,3,4.2,3.8,6.7c0.9,2.5,1.8,4.6,2.1,5c0.3,0.4-0.9,7.7-1.3,10.6c-0.3,2.9-0.6,4.2-0.7,4.6
		c-0.1,0.5,1.8-1.6,1.9,0.9c0.1,2,1,8.4,2.1,13.2c0.3,1.2,0.6,2.3,0.8,3.2c0.8,0.1,1.5,1.7,1.9,4.2c0.5,2.4,1.5,4,1.5,5.2
		c0.1,1.2,0.4,1.4,0.8,1.6c0.4,0.2,0.3,0.8-0.9,2.2c0.3,0.2,0.7,0.6,0.9,0.9c0.3-0.3,1.3-1.4,1.3-1.4s3.6,1.4,4.4,1.7
		c0.8,0.3,1.7-1.7,4.1-0.7c0.6,0.3,1.4,1.2,1.9,2.1c3.7-7.9,5.8-16.7,5.8-26c0-16.5-6.4-32-18.1-43.6c-7.1-7.1-15.7-12.3-25-15.2
		C118.6,36.4,118.6,37.3,118.6,37.6"/>
	<path id="Fill-20" class="st3" d="M137.7,141.5c-0.9-0.5-1.5,0.2-2-3.4c-0.1-1.1-1-2.4-1.6-3.1c-0.7-0.7-0.7-1.9-0.4-3
		c0.5-1.7,0.7-3.2,0.6-4.5c-0.1-1.3,0.2-3,2-3.8c-0.7-0.7-1-1.6-1.2-2.4c-2.7-0.9-3.2-1-3.8-2.3c-0.9-2.2-1.5-5.4-1.8-7.2
		c-0.1-0.9-0.2-1.7-0.2-2.4c-0.9-1.6-2.8-5.3-4.3-8c-0.5-1-1-1.9-1.4-2.5c-1.3-2.3,0-5.4,0.7-7.1c0.7-1.8,1.2-3.4,0.6-5.2
		c-0.6-1.8-0.6-2.2-0.7-2.9c-0.1-0.7-0.7-1.7-1.5,0.9c-0.8,2.5-2.3,6.2-3.2,10c-0.5,2.2-0.8,4.5-0.7,6.8c0.1,1.7,0.4,3.4,1.2,5
		c1.7,3.6,3.8,6.9,3.5,8.9c-0.3,2-0.7,2-0.7,2.4c-0.3,3.8-2,11.2-2.8,13.3c-0.9,2.1-4.2,9.8-5,13c-0.6,2.5-2.1,7.8-3.4,10.9
		c9.9-1.9,18.9-6.1,26.6-12.1C138.3,142.3,138.2,141.8,137.7,141.5"/>
	<path id="Fill-22" class="st3" d="M64.2,54.8c0.7,1,1.7,1.8,2.9,2.5c3.2,1.6,3.9,2.8,3.9,5.7c0,2.8,0.5,8.7,1.5,9.6
		c0.6-0.6,1.3-1.5,1.4-1.7c0.9,1.7,2.8,4.9,5.7,6.9c0.2,0.1,0.1,0.9,0.6,1c1,0.3,7.4,1.3,7.6,2.6c1.3-1.3,3.4-4.6,3.8-5.7
		c0.4-1.1,2.7-4.7,4.4-6.7c0-0.8,0-1.3,0.1-1.5c-0.5,0.4-1.2,1.4-2.2,1.8c-1.1,0.5-4.8,2-7.4,3.4c-0.9,0.5-2.6,1-3.2-3.8
		c-0.7-4.8,0-7.3,0.5-8.5c0.5-1.1,1.3-2.1,3-1.6c1.6,0.5,4.3,1.5,5,1.5c0.1-0.5,0.6-1.5-1.2-1.7c-1.3-0.1-4.6-1.1-6.5-3.6
		c-0.8-1-1.3-2.3-1.3-3.9c-3.8,0.6-12.4,1.7-14.3,2.2c-1.9,0.5-3.5,0.9-4.2-3.5c-0.3-1.8-0.7-4.4,0.6-3.5c1.1-0.8,2.5-1.7,5.1-1.3
		c0.5,0.1,1.1,0.5,1.2,0.8c0.1,0.6-0.1,1.7-0.4,2.7c-0.6,1.8-1.7,3,1.9,2.2c3.8-0.9,8.6-1.6,9.8-1.8c0.2-1.3,1.2-3.3,2.5-4.7
		c1.3-1.5,1.5-2.6,1.5-3.1c0.1-0.5-0.4-0.6-1,0c-0.7,0.7-2.9,2-5,1.5c-0.8-0.2-1.8-1.7-2.3-2.6c0.4-0.9,1.5-2.5,2.9-4.1
		c-7,2.3-13.6,5.8-19.5,10.4c0,0.7,0.1,2.4,0.5,4.3C62.5,51.6,63.1,53.3,64.2,54.8"/>
	<path id="Fill-24" class="st3" d="M68.8,145.1c2.7-1.1,4.8-1,6.9,1.8c0.6,0.8,1.1,3.1,6.1,1.1c-2.7-3.2-4.3-7.1-5.8-12.2
		c-2.3-8.1-7.6-17.4-5.7-21.6c-1.1-1.1-2.4-5.2-3.8-4.7c-0.9,0.3-2.2,0.3-1.2-2.8c0.5-1.4,1.3-3.1,2.7-5.1c1.8-2.5,4.7-5.5,9.3-9
		c0.4-0.3,0.5-0.6,0.2-0.9c-0.5-0.5-0.9-1-1.4-1.3c-0.5-0.3-0.9-0.1-1.3,0.3c-0.4,0.4-1.1,0.9-1.5,1.1c-0.4,0.3-3.6-2.8-5.2-5.1
		c-1.6-2.2-3.4-3-3.9-3.2c0.7-0.7,2.2-2.3,1.6-2.1c-1,0.3-2.7,0.5-4.5-1.3c-2.2-2.3-1.3-3.5-1.8-3.8c-0.5-0.3-2.8,0.2-4.6-2.6
		c-1.8-2.8-2.5-4-1.1-5.9c0.7-1,1-1.5,0.8-2.7c-0.2-1.3,0-2,1.6-3.6c1.7-1.6,2.6-3,3.4-2.9c0.6,0.1-1.1-2-2.1-3.6
		c-0.3-0.4-0.5-0.8-0.6-1.1c-0.3-0.6-0.7-1.7-0.8-2.9c-11.6,11.6-18,27.1-18,43.5c0,16.5,6.4,32,18.1,43.6c2.7,2.7,5.7,5.2,8.8,7.3
		C66.5,143.8,68.1,144.4,68.8,145.1"/>
	<path id="Fill-26" class="st6" d="M33.7,14.8c5.4,1.4,9.5,5.8,11.3,8.2c0.5,0.6,0.9,0.5,1.1,0.1c0.4-1,1.2-4.2,1.2-6.6
		c0-5.5,0.8-7.7,2.2-10.3C42.9,6.5,37.3,9.9,33.7,14.8"/>
	<path id="Fill-28" class="st6" d="M30.4,31.8c10.2,0.9,13.3-4.8,14-5.6c0.7-0.9-0.1-1.4-0.5-1.8c-1.8-2.5-5.7-6.8-11.1-8.2
		c-1.9,3.1-3,6.8-3,10.7C29.8,28.6,30,30.2,30.4,31.8"/>
	<path id="Fill-30" class="st6" d="M70.8,31.4c-4.3-1.8-9.4-0.1-13,3c-3.6,3.2-5.5,5.6-6.7,13.1c-0.2,0-0.3,0-0.5,0
		c-5.4,0-10.3-2-14-5.4c6.2-1.6,11.4-4.4,17.3-10c5.9-5.5,8.8-12,9.6-15.1c0.8-3-0.3-1.3-0.9,0.1c-0.9,2.1-4,7.9-10,13.5
		c-6,5.6-10.6,8.4-16.9,10.5c-2.1-2.1-3.7-4.8-4.7-7.7c2.1,0.1,8.8-0.6,12.1-3.4c4.4-3.6,4.9-7.9,5.5-13.9c0.6-6.1,1.5-7.9,2.9-10.2
		c11,0.5,19.8,9.6,19.8,20.7C71.3,28.4,71.1,30,70.8,31.4"/>
	<path id="Fill-32" class="st6" d="M70.2,33.5c-1-1.4-4.5-2.1-10.1,1.5c-0.5,0.3-0.9,0.6-0.3,1.2c1.2,1.2,3,3.4,4.2,6.5
		C66.9,40.2,69,37.1,70.2,33.5"/>
	<path id="Fill-34" class="st6" d="M62.4,43.9c-1.2-2.9-2.2-5-3.3-6.5c-0.6-0.8-0.7-1.1-1.9-0.1c-3.1,2.8-4.3,6.9-5,10.2
		C56,47.2,59.5,45.9,62.4,43.9"/>
	<path id="Fill-36" class="st7" d="M56.7,67.1c-0.9-0.3-1.5,0.7-1.9,1.5c-0.4,0.8-0.9,1.7,0.4,3.4c1.3,1.8,2,2.8,4.2,2.7
		c1.1-0.1,2-0.9,2.3-1.3c0.3-0.5,0.4,0.3-0.1,1.1c-0.5,0.8-0.9,2.6,0.1,3.9c1,1.3,3,2.3,5.7,0.7c2.7-1.6,3.8-3.5,4.3-4.4
		c0.5-0.9,0.5-1.3,0-1.8c-0.5-0.5-2-3-2.3-8c-0.2-3,0.3-4.9-1.5-5.9c-1.8-1.1-6.1-3.6-6.6-8.5c-0.2-1.8-0.1-4.7-1.9-3.2
		c-1.8,1.5-1.8,2.6-2.1,3.7c-0.2,1.1,0.7,2.6,1.5,3.7c0.8,1.1,1.7,3.4,2.4,4c0.7,0.6,1.2,1.1,1.8,1.1c0.6,0.1,3,0.1,3.6,0.3
		c0.6,0.2,0.9,0.9-0.5,0.9c-1.5,0-3.7,0.4-4.7,0.5c-1,0.1-1.9,0.2-2.4,2.2c-0.5,2-1.1,4.3-1.2,5c-0.1,0.7-0.5,1.1-0.5,1.5
		c0,0.4,0.8,2.3,2.6,0.4c1.8-1.9,2.5-3.8,2.8-4.8s0.7-0.8,0.4,0.7c-0.3,1.5-0.4,5.1,0.3,6.3c0.7,1.3,2.3,2.7,4.2,1.8
		c0.4-0.2,1.1-0.5,1.6-0.5c0.5,0.1-0.1,1-0.6,1.4c-0.5,0.4-2,2.1-4.7-0.3c-0.7-0.6-1.6-1.9-1.8-3.6c-0.1-0.5-0.8-0.7-1.1-0.3
		c-0.3,0.5-2.1,2.1-3.4,0.9c-1.3-1.2-1.8-1.8-1.1-4.4C56.8,67.7,57,67.2,56.7,67.1"/>
	<path id="Fill-38" class="st7" d="M58,63.4c-0.3,0.9-0.5,2-0.7,2.4c-0.1,0.4-0.7,1.3-1.3,0.1c-0.5-1.1-0.5-2,0.3-2.8
		c0.3-0.3,0.7-0.8,0.9-0.5C57.7,62.8,58.1,63.2,58,63.4"/>
	<path id="Fill-40" class="st7" d="M61,60.3c-0.5,0.3-1.7,0.3-2.1,1.2c-0.3,0.6-1.3-0.1-0.8-0.8c0.5-0.7,0.9-0.7,1.3-0.9
		c0.3-0.2,0.5-0.8,1.1-0.5C61.2,59.7,61.3,60.2,61,60.3"/>
	<path id="Fill-42" class="st7" d="M104.6,27.6c-1.8,0.2-3.6,1.3-5.3,2.5c-1.7,1.2-7.9,6.4-9.4,7.5c1.5,0.8,1.9,2.4,1.4,5
		c-0.1,0.6,0,0.8,0.4,0.4c0.4-0.4,2.2-2.4,2.2-4c-0.1-1.6-0.8-2.5-0.9-2.7c-0.1-0.2,0.5-1,1.3,0.7c0.7,1.6,0.5,4-1.7,6.5
		c-2.2,2.6-3.9,2.5-4.8,3c-0.9,0.5-1.8,1.2-1,2.6c0.9,1.4,2.5,0.9,3.2,0.4c0.7-0.5,1.6-1,3.7-0.8c2.1,0.2,2.8-1.1,1.4-2.6
		c-0.5-0.5-1.7-1.5-0.2-1.5c0.9,0,1.9,1.9,2.5,2.4c0.6,0.5,1.9,0.7,3.7,0.9c1.8,0.1,4.6,0.8,4.6,2.5c0,1.1-0.6,1.4-1.3,0.5
		c-0.3-0.3-0.7,0.2-1.1,0.5c-1.1,1.1-4,4.2-6,4.7c-2,0.5-2.8-0.1-5.5-1.5c-2.7-1.5-5.2-2.9-5.9-3.4c-0.7-0.5-2.3-1.5-1.5,0.6
		c0.7,2.1,2.5,4.3,6.1,5.5c3.6,1.2,4.1,1.6,4.9,2c0.8,0.4,0.3,0.8-0.7,0.7c-0.9-0.1-1.9-0.9-1.1,0.9c0.8,1.8,2,3.7,5.6,3.2
		c3.6-0.5,3.7-1.2,6-5c0.4-0.7,0.8-0.2,0.5,1.5c1.8-0.9,2.8-1.1,3.8-1.4c1.1-0.3,3.8-1.2,5.6-4.6c0.9-1.7,1.4-2.3,1.3-4.1
		c-0.1-0.7,0.9-2,1.9-2.9c1-0.9,3.7-4.4,2.3-6.9c-1.4-2.5-3.7-1.3-4.8,0.6c-1.1,1.9-2.4,3.9-2.4,7.1c-0.8-0.3-1.6,0-2,0.7
		c-0.2,0.3-3.1-0.1-4.1,0.2c-1,0.3-1.3-0.3-0.3-1.7c1.1-1.4,4.8-6.4,4.6-10.2c-0.1-1.1,0.1-1.3,0.3-2.2c0.2-1.1,0.3-1.1-1-1.9
		c-0.9-0.5-0.9-1.9-1.1-2.9c-0.2-1.1-0.4-1.1-1.6-0.9C106.9,29.8,105.3,28.8,104.6,27.6"/>
	<path id="Fill-44" class="st7" d="M96.8,48.3c-0.4,0.8-1.4,1.6-3.7,1.4c-1.2-0.1-2.3-0.1-2.5,0.8C90.6,51.1,90,51,89.3,51
		c-0.8,0-1.6-0.2-1.6,0c0,0.3,3.2,2.2,4.3,2.7c1.1,0.5,2.7,1.7,4,1.5c1.7-0.2,3.2-1,5.7-3.7c1-1.1,1.9-1.7,0.9-2.1
		c-0.7-0.3-1.4-0.4-2.2-0.4S97.6,48.9,96.8,48.3"/>
	<path id="Fill-46" class="st7" d="M84.5,48.4c-0.9,0-1-0.7-0.4-1.7c0.6-1,1.2-1.9,2-2.5c0.1,0.4,0.4,1,0.8,1.2
		c-0.5,0.6-1.2,1.3-1.1,2.7L84.5,48.4z"/>
	<path id="Fill-48" class="st4" d="M104.6,44.3c-1.1,0-2.8-0.4-4-1.2c-1.2-0.8-1.6-1.2-1.4-2.5c0.1-0.8,0.2-1.2,0.2-1.5
		c0-0.2,0.1-0.3,0.1-0.5c0.1-0.6,0.1-1-0.1-1.2c-0.1-0.1-0.2-0.2-0.4-0.2c-0.3,0-0.6,0.2-1,0.5c-0.7-0.5-1.4-1.1-1.8-1.5
		c-0.4-0.3-0.7-0.6-0.8-0.7c-0.1-0.1-0.3-0.2-0.3-0.4c0-0.1,0.1-0.3,0.2-0.4c0.1-0.1,0.2-0.1,0.4-0.1h0.1h0.1c0.1,0,0.3,0,0.5-0.2
		c0.1-0.2,0.2-0.4,0.1-0.9c0,0,0.1-0.1,0.4-0.1c0.1,0,0.2,0,0.2,0c0.1,0,0.2,0,0.2,0c0.2,0,0.3,0,0.4-0.1c0.2-0.1,0.2-0.2,0.2-0.3
		c0-0.1,0.1-0.2,0.3-0.2c0.1,0,0.3,0,0.5,0.1c0,0,0.1,0,0.1,0c0.2,0,0.3-0.2,0.4-0.3l0-0.1c0.1-0.1,0.2-0.2,0.4-0.2c0,0,0.1,0,0.1,0
		c0.2,0,0.3,0.1,0.5,0.1c0.2,0,0.4,0.1,0.5,0.1c0.4,0,0.5-0.3,0.6-0.5c0.1-0.4,0.2-0.6,0.4-0.6c0.2,0,0.4,0.1,0.7,0.3
		c0.3,0.2,0.5,0.3,0.7,0.3c0.3,0,0.5-0.2,0.6-0.5c0,0,0,0,0.1,0c0.2,0,0.5,0.1,0.9,0.3l0.2,0.1c0.6,0.4,1.9,1.1,3.4,2.8
		c0.3,0.4,0.4,0.7,0.4,0.8h0c0,0-0.1,0-0.1,0c-0.2,0-0.6,0.1-0.6,0.7c0,0.3-0.1,0.5-0.2,0.5c0,0-0.1,0-0.1-0.2
		c-0.1-0.2-0.2-0.4-0.4-0.4c0,0-0.1,0-0.1,0c0,0,0-0.1-0.1-0.2c0-0.1-0.1-0.4-0.4-0.4c-0.1,0-0.2,0.1-0.3,0.1c0,0,0,0,0,0
		c0-0.1-0.1-0.3-0.4-0.3c-0.1,0-0.1,0-0.2,0c0,0,0,0,0,0c0,0,0,0-0.1-0.1c0-0.1-0.1-0.2-0.3-0.2c-0.1,0-0.2,0-0.3,0.1
		c-0.1,0-0.2,0.1-0.3,0.1c-0.1,0-0.1,0-0.1,0c-0.1-0.2-0.2-0.2-0.3-0.2c-0.1,0-0.2,0.1-0.3,0.1c-0.1,0-0.2,0.1-0.2,0.1
		c0,0-0.1,0-0.1-0.1c0-0.1-0.1-0.2-0.3-0.2c-0.2,0-0.3,0.1-0.3,0.2l0,0c-0.1,0.1-0.1,0.1-0.2,0.1c0,0-0.1,0-0.1,0
		c-0.1,0-0.2,0-0.2,0c-0.2,0-0.3,0.2-0.4,0.3c-0.1,0.1-0.1,0.1-0.1,0.1c0,0-0.1,0-0.1,0c-0.1,0-0.2-0.1-0.2-0.1
		c-0.3,0-0.4,0.2-0.4,0.4c-0.1,0.2-0.1,0.2-0.2,0.2c0,0,0,0-0.1,0c-0.1,0-0.2,0-0.3,0c-0.4,0-0.4,0.3-0.5,0.7c0,0.1,0,0.1,0,0.2
		c-0.1,0.5-0.3,2.7-0.3,3.3c0,0.5,0.7,0.5,1,0.5c0.5,0,1.2-0.1,2-0.2c1.6-0.2,4.6-1.1,6.2-2.4c0.4-0.3,0.7-0.4,0.8-0.4
		c0.1,0,0.1,0,0.2,0c0,0.1-0.2,0.5-0.6,0.8c0,0-0.1,0.1-0.1,0.1c-0.5,0.4-1.6,1.4-3.9,1.9c-2.2,0.4-4.2,0.8-4.9,0.8
		c-0.1,0-0.1,0-0.2,0c0,0-0.1,0-0.1,0c-0.1,0-0.2,0.1-0.2,0.2c0,0.1,0,0.3,0.2,0.4c0.2,0.2,0.5,0.3,0.8,0.3c0.1,0,0.2,0,0.3,0
		c0.1,0,0.3,0.2,0.5,0.4c0.5,0.4,1.2,1.1,2.1,1.1c1.2,0,2.9-1.3,3.4-1.7c0.2-0.2,0.7-0.4,1-0.5c-0.1,0.1-0.1,0.2-0.2,0.3l-0.1,0.1
		c-1.1,1.1-2.2,2.2-3.3,2.2H104.6"/>
	<path id="Fill-50" class="st4" d="M118.6,42.8c-0.8,0.5-1.2,0.7-1.3,1.6c-0.1,0.9-0.3,2.5-0.6,2.6c-0.5,0.2-0.4-0.9-0.5-0.5
		c-0.2,0.5-0.8,0.3-0.9-0.2c-0.1-0.2-1.7-0.2-0.4-2.1c1.2-1.7,2.1-2.6,3-3C118.7,40.9,120.2,41.7,118.6,42.8"/>
	<path id="Fill-52" class="st7" d="M150.9,121.3c-0.3-0.8,0.2-2.1,1.9-1.2c1.7,0.9,2.9,1.7,1.7,5.4c-1.2,3.6-2.1,5.7-2.5,7.3
		c-0.5,1.5-2.2,3.4-1.7,0.9c0.6-2.6,0.9-5.7,0.7-7.3c-0.5-2.9,0.5-2.7,0.2-4.1C151.1,121.8,151,121.5,150.9,121.3"/>
	<path id="Fill-54" class="st7" d="M157.2,124.4c0.5,1.4,1,4.7,0.2,6c-0.8,1.3-3.2,5-4.2,5.9c-0.9,0.9-1.6,0.5-1.1-0.5
		c0.6-1,1.4-2.3,1.4-2.8c0-0.5-0.1-1,0.7-2.5c0.8-1.5,2.2-6.6,2.3-7C156.7,123.1,157,124,157.2,124.4"/>
	<path id="Fill-56" class="st7" d="M140.1,136.6c-0.4-1.2-0.6-2.9-1.3-3.9c0.5-1.5,2.3-5.4,5.2-6.5c0.3-0.1,0.5-0.5,0.4-0.7
		c-0.1-0.3,0.4-0.5,0.7,0.5c0.3,0.9,0.7,3.6,0.7,3.6c0.1,0.6-0.1,1.1-0.3,1.9c-0.1,0.8-0.5,2.6-0.3,3.5c0.2,0.9,0.5,1.6,2.4,1.2
		c0.9-0.2,0.9-0.5,1.1-1.3c0.3-0.8,1-3,1.3-4.3c0.3-1.3,0-4.3-0.2-5.1c-0.3-0.8,0.1-3.5-0.1-4c-0.2-0.5-0.3-1.3-2-1.8
		c-1.6-0.5-2.1-0.7-3.2,0.5c-1.1,1.1-1.5,1.6-2,2.1c-0.5,0.5-1.8,0.1-0.7-1c1.1-1.1,2.2-2.1,2.5-2.4l-0.3-0.9h-0.6
		c-1.8,1.8-4.2,2.8-5.7,3.2c-0.6,0.1-1.7,0.2-0.9,1.3c0.2,0.3,0.3,1,0.7,0.7c0.5-0.3,1.2-1.5,1.8-0.9c0.7,0.5-0.1,1.8-0.9,2.4
		c-0.8,0.6-1.7,1.2-2.2,1.5c-0.6,0.3-0.9,0.7-0.9,1.7c0.1,1.1,0.1,3-0.5,4.4c-0.6,1.5-0.3,1.8,0.3,2.8c0.5,1,1.4,1.9,1.6,3.4
		c0.3,1.6,0.4,2,1.5,1.8c1.1-0.1,1.5-0.6,1.8-1.3L140.1,136.6z"/>
	<path id="Fill-58" class="st6" d="M140.5,139.7c-0.5,0.8-1.3,2-1.3,3.2c0,1.1-1.1,2.3-1,2.8c0.1,0.5,1.6,1.9,2.4,3.4
		c0.9,1.5,2,3.6,2,7.3c0,3.6-1.2,8.6-1.3,9.2c-0.1,0.7-0.5,1.2,0.5,2.1c1,0.9,2.6,2.6,3.2,6.5c0.6,3.9,1,5.9,1.3,6.1
		c0.3,0.2,0.2,0.5,0.2,1.3c0,0.7,0.7,4.9,1.1,5.7c0.5,0.8,0.4-4.5,0.3-6c-0.1-1.5,0.1-8.8,0.3-9.8c0.3-1.1,0.5-2.2-0.4-3.6
		c-0.9-1.3-2.5-3.6-1.3-7.5c1.2-3.8,3.1-3.8,2.5-5.3c-0.6-1.5-1.6-2.6-2.4-3.4c-0.8-0.9-0.2-2.9-0.2-3.8c-0.1-1.6-1.3-1.8-1.5-3.6
		c-0.1-1.8-0.3-3.2,1.1-5c1.3-1.8-0.5-1.7-1.1-2.8c-0.6-1.1-0.9-2.6-0.4-5c0.3-1.2,0.1-1.5-0.2-1.7c-0.3-0.1-1.7-0.4-1.7-0.4l-2,4.1
		c0.3,0.8,0.5,2,0.5,2.8L140.5,139.7z"/>
	<path id="Fill-60" class="st3" d="M121.4,59.3c-1.6,2.2-4.2,7.7-5.4,11.1c-1.2,3.4-3.9,11.6-2,17c1.9,5.4,5.7,2,6.5-0.1
		c0.9-2,2.2-5.5,2.6-6.5c0.4-0.9,0.6-1.5,1.3,0.7c0.7,2.2,1.8,7.4,1.8,7.9c0,0.5-0.7,1.8-1.5,3.8c-0.8,2-1.3,3.5-0.5,4.8
		c0.8,1.3,3.9,6.6,4.9,8.9c0.6,1.4,1.1,1.6,2.7,1.3c1.6-0.4,5.4-1.7,6.5-2.2c1.1-0.5,0.6-1.5,0.3-2.6c-0.5-1.7-2.5-11.2-2.5-12.5
		c0-1.3,0.3-2.9-1.3-1.1c-0.6,0.7-1.4,0-1.2-0.9c0.2-0.9,2.2-13.8,2.3-15.4c-1.1-2.4-4.4-10.2-5.4-11.6c-0.9-1.4-1.3-1.5-2.6-0.7
		c-1.4,0.7-4.5,1.8-5.6-0.8c-0.2-0.5-0.5-1.5,0.3-1.6l-0.6-0.2C122.1,58.6,121.6,59,121.4,59.3"/>
	<path id="Fill-62" class="st3" d="M138.7,106.8c-1.2,0.7-5.4,2.5-7.1,2.8c-1.8,0.3-1.3,0.7-1,2c0.3,1.3,1.3,5.3,1.8,6.7
		c0.5,1.4,1.3,1.4,2.6,1.3c2.1-0.1,5.7-1,8.3-3.4c-0.7-0.9-2-5-2.4-6.7C140.6,107.6,140.6,105.7,138.7,106.8"/>
	<path id="Fill-64" class="st3" d="M100.9,68.7c-0.1,0.3-0.6,1.1-1.6,1.1c-1.1,0-1.9-0.3-2.6,0.6c-0.7,0.9-4.3,5.3-5.1,8.1
		c0.8,1.7,1.8,4.6,2.6,6.7c2.6-2.2,10.8-10.2,12.4-11.8c0.6-0.6,0.7-1.1-0.2-1.7c-0.9-0.6-4-2.6-4.6-2.9
		C101.3,68.4,101,68.4,100.9,68.7"/>
	<path id="Fill-66" class="st3" d="M80,80.3c-0.5,2-1.5,5.6-3.2,8.4c0.7,1.1,1.2,2,2,2.3c1.8-1.3,5.3-4.6,6.3-5.7
		c1-1.2,2.2-3,2.2-3.4s-0.5-0.5-1.1-0.4c-0.6,0.1-3-0.8-5.4-1.3C80.3,80,80.1,80,80,80.3"/>
	<path id="Fill-68" class="st3" d="M78.6,78.3c-0.7-0.1-3.2-2.8-4.1-4.3c-0.9-1.5-1-1.3-1.3-0.3c-0.3,1.1-1.6,3.4-2.4,4.5
		c-0.9,1.1-3.1,4-3.7,4.7c-0.6,0.7,0,0.9,0.5,1.5c0.5,0.5,3.2,3.8,3.8,4.6c0.6,0.7,1.3,2,2.8,0.6c1.6-1.5,3.5-4.1,4.4-6.8
		c0.9-2.7,0.9-4.1,1.6-4l0-0.6l-0.2-0.3l-0.4-0.3c0.1,0.2,0.1,0.4-0.1,0.7C79.5,78.5,78.9,78.4,78.6,78.3"/>
	<path id="Fill-70" class="st3" d="M119,17.5c-1.8,2.1-5.4,4-11.4,5.5c-6,1.5-11.8,5.7-14.2,7.8s-8.6,7.1-11.6,8.3
		c-0.8,0.3-2.5,1.4-0.3,1.7c1.6,0.2,2.7-0.7,6.1-3.2c3.4-2.5,6.1-4.3,8.7-6.9c2.4-2.4,6.9-4.6,11.6-5.9c4.8-1.3,11-3.4,12.8-5.4
		c0.9-0.9,0.9-1.4,0.1-2.2C120.2,16.5,119.8,16.7,119,17.5"/>
	<path id="Fill-72" class="st3" d="M88.7,38.3c-0.5,0.3-0.7,0.6-1.3,2.5c-0.6,1.9-0.5,3,0,3.5c0.4,0.3,0.9,0.4,1.2,0.4
		c0.2,0,0.4,0.1,0.4-0.5c0-0.6-0.1-3,1.7-4c0.3-0.2,0-1.6-1.2-1.4C89,38.8,89.4,38,88.7,38.3"/>
	<path id="Fill-74" class="st3" d="M68.3,45.9c0.9,0,1.5,0,1.5,1.1c-0.1,1.1-0.5,2.5-0.6,3.5c-0.1,1-0.1,1.4,0.5,1.4
		c0.6,0-0.9,0.6-1.7,0.7c-0.8,0.1-2,0.6-2.6-2.8c-0.2-1.1-0.1-2.7-0.3-3.1C66,46.3,67.2,45.9,68.3,45.9"/>
	<path id="Fill-76" class="st3" d="M85.9,48.7c0.2,1.3,0.6,1.3,0.3,1.5c-0.3,0.2-0.5-0.5-1.6-0.3c-1,0.2-9.3,1.5-9.9,1.5
		c-1.8,0.2-2-0.1-0.2-0.5c1.7-0.4,8-1.5,9.9-1.9L85.9,48.7z"/>
	<path id="Fill-78" class="st3" d="M75.8,149.7c0.9,0.5,2.9,1.1,6.4-0.3c3.5-1.5,7.4-0.5,8,2c0.6,2.5,0.6,5.7-0.5,7.1
		c-0.9,1.2-1.8,1.1-2.8,0.7c-1.9-0.6-6.3-2.6-7.6-3.2c-1.3-0.6-3.4-1.3-4.9-1.3c-0.6-1.3-0.5-3.4-0.1-4.2c0.4-0.8,0.4-1.6,0.7-1.4
		C75.4,149.4,75.8,149.7,75.8,149.7"/>
	<path id="Fill-80" class="st3" d="M89.7,161.4c0.9,0,2.4,0.4,2.9,1.9c0.4,1.3,3,1.6,4.1,1.5s0.9,0.5,0.9,1.2
		c-0.1,0.7-0.3,2.6-0.3,3.4s0.2,3.6,0.3,4.1c0.1,0.5-0.3,0.8-0.9,1.1c-0.6,0.3-2.8,0.9-4.2-0.1c-0.7-0.5-1.6-1.3-0.7-1.3
		c0.9-0.1-1.1-7.5-1.6-8.8C89.7,163,88.2,161.4,89.7,161.4"/>
	<path id="Fill-82" class="st3" d="M67,145.8c0.4,0.1,0.5,0.5,0.8,0.9c0.3,0.5,0.4,0.9-0.1,1.3c-0.7,0.8-1.6,4.4-1.5,7
		c-0.5-0.1-1.5-0.3-2-0.2c-0.2-1.5-0.1-6,0.6-7.5C65.5,145.9,66.2,145.5,67,145.8"/>
	<path id="Fill-84" class="st3" d="M67.1,186.1c1.6,1.9,4.8,4.7,7.1,5.7c2.3,1,3.8,1.3,5.9,1.1c1.7-0.2,1.3,0.5,0,0.7
		c-1.3,0.2-4.4,0.2-6.3-0.9c-2-1.1-5.1-3-7.1-5.9C66.1,186.2,66.6,185.5,67.1,186.1"/>
	<path id="Fill-86" class="st3" d="M101.5,181.5c-1.3,0.6-3.8,1.8-6.2,2.4c0.3,1.2,0.3,1.7,0.3,2c1.5,0,4.3-1,6.5-2.4
		c0.5-0.3,0.7-0.7,0.5-1.2C102.5,181.9,102.2,181.1,101.5,181.5"/>
	<path id="Fill-88" class="st3" d="M85.9,176c-0.3-0.3,1.5-0.7,1.9-0.7c0.5,0.3,1.3,1,1.6,1.4c0.2,0.2,0.1,0.3-0.1,0.5
		c-0.2,0.1-1.4,0.4-1.9,0.5C86.9,177.1,86,176.2,85.9,176"/>
	<path id="Fill-90" class="st3" d="M89.4,148.6c-0.5-0.4-0.5-0.6-0.2-1c0.3-0.4,0.5-0.7,0.8-0.8c0.3-0.1,0.7-0.2,1.1,0.5
		c0.5,0.7,3,4.8,3.5,5.9c0.5,1.1,1.2,0.4,0.9-0.3c-0.3-0.7-0.8-1.8-1-2.1c0.7-2.2,1.5-5.7,1.5-7.9c0-2.2-0.5-4.5-0.9-5.3
		c1.8,0.1,5.7,0,7.2-0.5c1.5-0.5,0.3-0.6-0.3-0.5c-0.6,0.1-4.9,0.1-8-0.3c-5.4-0.7-10.7-3.7-12.4-5.8c-0.3-0.3-1.9-0.2-0.5,0.9
		c1.3,1.1,4.7,4.2,9.6,5.1c1.1,0.2,2.9,0.5,3.2,4.6c0.3,4.1-0.1,6.7-0.1,7.1c0,0.4-0.3,0.5-0.6,0.1c-0.3-0.5-1.5-2-2.1-2.3
		c-0.6-0.3-1-0.3-1.5,0.1c-0.5,0.4-1.3,1.2-1.6,1.6L89.4,148.6z"/>
	<path id="Fill-92" class="st3" d="M78.7,161.5c-0.5,0-3.5,0.2-4.1,0c-0.6-0.2-1-1-0.6-1.3c0.5-0.4,1.6,0.1,2.6,0.1
		c1,0,2.1-0.3,2.4-0.1c0.3,0.2,0.6,0.1,0.6,1.4L78.7,161.5z"/>
	<path id="Fill-94" class="st3" d="M71.5,179.6c-0.9-0.5-1.9-3-2.1-7.9c-0.1-1.7,0.6-4.4,1.1-5.7c0.5-1.3-0.3-0.8-0.5-0.3
		c-0.2,0.5-0.9,2.3-1.1,3.7c-0.2,1.4-0.5,3.4,0,6.4c0.5,3,0.8,3.9,0.9,4.4L71.5,179.6z"/>
	<path id="Fill-96" class="st5" d="M101.8,21.9c0.9,0.1,1.9,0,2.1-0.6c0.2-0.6,0-1-0.3-1.2c-0.3-0.1-0.4-0.1-0.3-0.7
		c0.1-0.6,0.6-0.5,0.5-1.5c0-0.9-0.7-1-1.4-0.8c-0.6,0.2-0.9,0.5-1.5,1.3c-0.6,0.8-0.3-0.5-0.2-0.8c0.1-0.2,0.3-1.7-0.5-2
		c-0.5,0.2-0.9,0.5-1.3,0.7c-0.1,0.3-0.3,0.6-0.4,1c-0.3,0.9-0.7,0.2-1-0.2l0,0c-0.9,0.5-1.7,0.9-2.2,1.3c-0.1,0-0.1,0.1-0.2,0.1
		c0.1,0.5,0.7,1.2,1.1,1.4c0.4,0.3,0.2,0.9-0.4,0.9c-0.5,0-1.2-0.4-1.8,0.4c-0.7,0.8-0.2,1.5,0.4,1.5c0.6,0,1.2,0.2,1.4,1
		c0.2,0.7,0.4,1,1.3,1.1c0.9,0.1,1.4-0.6,1.6-1c0.2-0.4,0.5-1,0.9-0.8c0.5,0.2,0.5,0.8,0.3,1.4c0.6-0.4,1.3-0.7,1.9-1
		c-0.1-0.6-0.4-1.1-0.7-1.3C100.8,21.9,100.9,21.8,101.8,21.9"/>
	<path id="Fill-98" class="st5" d="M109.1,12.3c-0.3,0.1-0.6,0.2-1,0.3c0.2,0.8,0.5,1.7,0.3,1.9c-0.2,0.2-1,0.3-1.6,0.5
		c-0.6,0.2-2,1.5-1.3,2.4c0.7,1,1,1.5,1.1,2c0.1,0.5,1.3,1.1,2.1,0.1c0.8-1,1.5-2.1,1.7-1.4c0.2,0.6,0.1,2,0,2.7
		c0.2,0,0.3-0.1,0.5-0.1C111.4,17,110.4,14.4,109.1,12.3"/>
	<path id="Fill-100" class="st5" d="M91,30.1c-0.5-0.4-0.6-0.9,0-1.1c0.6-0.2,1.3-0.3,2.7-0.9c1.4-0.6,0.7-1.6,0-1.9
		c-0.6-0.3-0.7-0.9-0.6-1.5c0.1-0.6-0.1-1.5-1.3-1.1c-1.2,0.5-0.8,1.7-1.2,2c-0.4,0.4-0.6,0.3-0.5-0.3c0.1-0.6-0.5-1-0.8-1.1
		c-0.2-0.1-0.7-0.2-1.2-0.3c-1.3,1.1-2.4,2.3-3.3,3.5c0.2,0.4,0.7,0.9,0.9,0.9c0.3,0.1,0.8,0.3,0.8,1c0,0.6-1.3,0.6-2.1,0.6
		c0.6,1.6,1.2,2.7,2,3.6c0.2-0.1,0.4-0.1,0.8-0.3c1-0.4,1.4-2,1.5-2.4c0.2-0.5,0.6-0.4,0.9,0.2c0.2,0.4,0.3,0.8,0.3,1.2
		c0.6-0.6,1.1-1.1,1.7-1.6C91.5,30.5,91.3,30.3,91,30.1"/>
	<path id="Fill-102" class="st5" d="M108.5,69.5c0.2,0-0.3-2.4,0.1-2.5c0.4-0.1,0.6,1.3,1.6,1.1c0.9-0.2,1.2-1.1,1-2.1
		c-0.1-1,0.5-0.5,0.9-1.2c0.5-0.7-0.5-1.7-1.7-1s-0.9-0.2-0.3-0.6c0.6-0.4,0.2-1.7-1.1-1.3c-0.9,0.3-1.4-0.3-1.8-0.5
		c-0.3,0.1-0.7,0.3-1,0.4c-0.1,0.3,0,0.6,0.1,0.9c0.1,0.4,0.3,1.5-0.4,1.1c-0.6-0.4-1.4-0.6-1.7,0.1c-0.2,0.8,0.2,0.8,0.2,1.3
		c-0.1,0.5-1.3,0.6-0.7,1.5c0.6,1,1.4,0.4,2,0.1c0.6-0.4,1.1,0.1,0.9,0.6c-0.2,0.4-0.5,1.7-0.5,2.5c0.3,0.2,0.5,0.4,0.8,0.6
		C107.2,70.2,107.9,69.6,108.5,69.5"/>
	<path id="Fill-104" class="st5" d="M90.5,67.2c0.5-0.1,1.5,0.9,2.3,0.3c0.9-0.6-0.4-1.2-0.2-1.7c0.2-0.5,0.6-1.5,0-1.9
		c-0.6-0.5-1.2,0-1.8,0.7c-0.6,0.7-0.4-0.6-0.1-1.2c0.4-0.7,0-1.2-0.7-1.4c-0.7-0.1-1,0.9-1.5,0.4c-0.8-0.7-2-0.4-1.7,0.6
		c0.3,1,0.6,1.4,0,1.5c-0.6,0.1-1.2-1.5-2-0.2c-0.7,1.3,0.4,1.7,0.3,2.7c-0.1,1,0.3,2,0.9,2.1c0.6,0.1,1.2-0.6,1.6-1
		c0.3-0.4,1.1-0.7,1,0.1c-0.1,0.5-0.1,1.6-0.1,2.2c1.2-0.6,2.5-1.2,3.2-1.4c0,0,0.1,0,0.1,0c-0.3-0.1-0.8-0.4-1.2-0.7
		C89.9,68,90,67.4,90.5,67.2"/>
	<path id="Fill-106" class="st5" d="M75.9,97.3c1.5-0.5,1.6,0.7,1.4,1.7c-0.2,1-0.2,3.1-0.1,4.2l2.5,0.1c-0.1-0.7,0-2.6,0.1-3.7
		c0.1-1.1,1.2-2.8,1.6-1.1c0.4,1.7,2.1,1.8,3.3,1.1c1.2-0.7,2.1-2.3,3.3-4.6c1.3-2.2-0.4-2.8-1.4-2.7c-1,0.1-2,0.3,0.3-1.6
		c2.1-1.7-1.4-2.6-3-2.9c-2.7,2.8-5.9,6-8.9,8.5c-0.4,0.3-0.7,0.6-1.1,0.9C74.2,97.4,74.9,97.6,75.9,97.3"/>
	<path id="Fill-108" class="st5" d="M73.2,114c1.3-0.4,2.1,2.3,3.9,0.7c1.8-1.6,0.5-2.9,0.5-4.2c-0.1-1.3,1.5-1.8,1-3.5
		c-0.7-2.5-3-0.1-4.5,1.3c-1.4,1.4-1.5,0.3-0.1-2c1.5-2.2-0.9-3-2.4-2.4c-1.3,0.5-2.5,0-3.2-0.7c-0.6,0.9-1,1.7-1.4,2.6
		c-1.3,2.6-0.4,2.6,0.5,2.6c0.9,0,2.9,3.9,3.2,4.6c0.1,0.3,0.8,1.2,1.7,2.5C72.4,114.9,72.5,114.2,73.2,114"/>
	<path id="Fill-110" class="st5" d="M109.4,87.9c-1.2-0.3-2.7-0.5-2.9,2c-0.1,0.9,0.9,1.6,1.7,2c0.9,0.3,0.7,0.9-0.2,0.6
		c-0.9-0.3-1.6-0.5-2.3,1.4c-0.7,1.9,0.5,2.2,1.1,2.3c0.6,0.1,1.1,0.3,0.9,1.1c-0.1,0.8-0.5,3.1,1,3.3c1.5,0.2,2.8-1.7,3.3-2.6
		c0.5-0.9,1-1.9,1.1-0.8s-0.1,1.6-0.6,2.8c-0.5,1.2-0.5,1.7,0.3,1.7c0.8-0.1,2.1,0,2.5-0.9c0.4-0.9,1-2.7,1.1-4
		c0-0.8,0.7-0.9,1.2-0.8c0.2-1.3,0.4-2.7,0.5-3.8c-2.6,0.4-4.8-2.8-5.6-5.5C111.7,87.5,110.4,88.2,109.4,87.9"/>
	<path id="Fill-112" class="st5" d="M97,87.5c-0.5,0.8-1.8,3-1.2,3.8c0.6,0.7,1.3-0.7,1.8-0.2c0.5,0.5,1.7,1.1,1.7,0.7
		c0-0.4,0.1-1.2,0.3-2.2c0.2-1.1,0.7-1.7,1.1-0.8c0.5,0.9,1.1,1.6,2.8,1.2c1.7-0.4,1.5-2.1,1.1-3.4c-0.3-1.3,0.9-1.8,1.4-2.2
		c0.6-0.3,2.1-1.5,1-2.6c-1.1-1.1-2.1,0.5-3.1,0.7c-1,0.2-0.6-0.7,1.5-2.2c1.8-1.4,0.3-2.7-0.8-3.2c-2.8,2.9-7.9,7.5-9,8.6
		c-0.4,0.4-0.7,0.8-1.1,1.4C97.3,85.7,97.5,86.7,97,87.5"/>
	<path id="Fill-114" class="st5" d="M113.4,114c0.9,0.8,2.9,1.9,4.4,0.6c1.5-1.3-0.3-2.8-0.5-3.8c-0.2-1.1,1.1-1.7,0.4-3.4
		c-1.2-3-2.8,0.6-3.8,1.6c-1,1-0.8-0.7,0.1-1.6c0.5-0.5,2.5-1.7,1.3-3.1c-1.2-1.4-2.9-0.6-3.8,0c-0.9,0.6-1.5,1.3-2.8,0.9
		c-1.3-0.4-2.4-0.5-3.2,1.4c-0.8,1.9,0.7,1.4,2,2.8c1.3,1.4,0.5,1.5-0.5,1.1s-1.5-1.6-2.9-1.4c-1.5,0.2-1.5,2.5-1,3.1
		c0.5,0.6,1.4,0.9,0.7,2c-0.7,1.1,0.3,2.4,1.5,3c1.2,0.5,3-1.6,3.6-2.4c0.7-0.9,1.3-0.7,1.2,0c-0.1,0.6-0.4,2.1-0.5,3.3
		c1-0.3,2-0.6,3-0.9c0-0.7-0.2-1.8-0.4-2.9C111.6,112.8,112.6,113.2,113.4,114"/>
	<path id="Fill-116" class="st5" d="M96.2,121.1c-1.6,0.5-1.8-0.3-2.9-0.7c-1.1-0.4-1.1,0.5-0.4,1.6c0.7,1.1,1.5,2.2,0.7,2.2
		c-0.9,0-1.5,0.1-1.7,0.8c-0.1,0.7-1.5-0.1-1.8-1.5c-0.3-1.4-0.7-4-1.4-2.7c-0.7,1.3-1.4,3.5-3.2,2.5c-1.9-1-0.6-2.3-1.5-3.2
		c-0.9-0.9-1.8-2.1-0.9-3.8c0.9-1.7,1.7-0.3,2.6-0.3c0.9,0,1-0.8,0.2-1.4c-0.8-0.6-1.8-3.4,1.8-3.2c1.4,0.1,2.9-0.4,4.1-1.3
		c1.2-0.9,4.3-0.4,3,1.8c-1.3,2.2-0.9,2.6-0.1,1.8c0.7-0.8,1.6-2.2,3-1.8c1.4,0.4,0.8,1.5-0.1,2.6c-0.9,1.2-0.3,2,0.3,2.4
		C98.7,117.5,99.9,120,96.2,121.1"/>
	<path id="Fill-118" class="st5" d="M103,105.5c-1.2,0.1-2.6-0.3-2.6-0.3c-0.1,1.3-1.3,3.1-2.6,4.9c-0.1,0.2-0.9,0.2-1.2-0.1
		c-0.3-0.3-1.3-0.7-0.5-1.5c0.7-0.8,1.9-2.4,1.7-3.2c-0.2-0.7-0.7-1.4-1.5-0.4c-0.8,1-2,3-3.4,3.1s-2.8-1.2-2.1-2.4
		c0.7-1.3,0.9-1.9-0.1-3c-0.9-1.1-0.6-2.6,1.4-3.4c0.6-0.3,1.6,0,2.4,0.6c0.7,0.6,1.1,0,0.1-0.6c-1-0.6-1.8-1.3-1.9-2.6
		c-0.1-1.3,0.7-2.6,2.4-1.8c1.7,0.7,2.8,0.1,3.5-0.5c0.7-0.6,3.8-1.3,3.4,1.4c-0.3,2-1.3,2-1.5,3.1c-0.3,1.1,0.5,0.4,1-0.4
		s1.5-4,3.7-1.6c0.5,0.6,0.3,1.6-0.3,2.7c-0.7,1.1-0.1,1.8,0.3,2.4C105.4,102.4,106.3,105.3,103,105.5"/>
	<polygon id="Fill-120" class="st3" points="157.5,53 159.5,51.6 163.9,58.1 166.4,56.2 161.9,49.9 163.9,48.5 168.7,55.2 
		171.3,53.4 164.2,43.4 152.4,51.7 158.9,60.9 161.5,59 	"/>
	<polygon id="Fill-122" class="st3" points="165.9,75.5 169.8,73.8 167.1,68 176.1,64.3 174.5,60.7 161.8,66.2 	"/>
	<polygon id="Fill-124" class="st3" points="168.2,81.6 168.6,85.1 177.1,84.1 177.5,87.8 181.3,87.5 180.2,75.2 176.4,75.5 
		176.7,80.6 	"/>
	<polygon id="Fill-126" class="st3" points="168.7,93.6 168.7,97.8 181.2,97.8 181.1,93.6 	"/>
	<path id="Fill-128" class="st3" d="M174.5,103.8c-2.1-0.4-4.6-0.1-6.3,1.3c-1.6,1.2-2.3,2.4-2.7,4.5c-0.3,1.4-0.1,3.2,0.4,4.7
		l3.3-1.1c-0.3-0.8-0.5-1.9-0.1-3.1c0.7-2.3,2.5-3.3,4.7-2.9c2.4,0.3,3.7,2.5,3.3,5.1c-0.2,1-0.7,1.9-1.9,2.6l2,2.5
		c1.7-1,2.9-3,3.2-4.4c0.5-2.4-0.1-4-1.2-5.9C178.3,105.1,176.4,104.2,174.5,103.8"/>
	<path id="Fill-130" class="st3" d="M172.2,121.2c-1.7-0.4-4.1,1.5-5.3,2.6c-0.7,0.6-3,3-4,2.6c-1-0.3-0.7-1.8-0.3-2.7
		c0.5-1.4,1.2-2.6,2.3-3.3l-2.1-0.9c-1,0.8-2.1,2.2-2.6,3.6c-0.5,1.6-0.8,3.4-0.5,4.6c0.3,1.5,0.8,2.5,2.5,2.3
		c1.3-0.1,4.6-2.3,6.5-4.1c1-0.9,1.8-1,2.2-0.8c0.7,0.4,0.7,1.6,0.4,2.3c-0.3,1-0.8,2.5-1.6,3.1l2.8,1.9c1.2-1.2,1.7-2.9,2.1-4.5
		C175.5,123.9,173.4,121.5,172.2,121.2"/>
	<path id="Fill-132" class="st3" d="M156.5,38.3c-0.2-1.9-1.3-4.2-2.4-5.1c-1.7-1.5-3.7-1.8-5.8-1.6c-2.1,0.3-4.1,1.7-5.3,3.3
		c-1.2,1.7-1.9,4.1-1.4,6.3c0.4,1.9,1.2,3.1,3,4.3c1.1,0.8,2.9,1.3,4.5,1.6l0.3-3.5c-0.8,0-1.9-0.4-2.9-1.2c-1.8-1.5-1.9-4-0.7-5.5
		c1.4-1.9,3.9-2.4,6.1-0.9c0.9,0.6,1.2,1.5,1.4,2.9L156.5,38.3z"/>
	<path id="Fill-134" class="st3" d="M28.7,110.3c0.1-0.9,0-2.7,1.1-2.9c1-0.2,1.6,0.8,1.8,1.7c0.3,1.4,0.7,2.5,0.1,3.8l2.7-0.3
		c0.4-1.2,0.3-2.9,0-4.3c-0.3-1.6-0.9-2.8-2.1-3.8c-1.2-1-2-1.3-3.7-0.9c-1,0.2-2.9,2-2.9,5.7c0,0.7-0.2,2-0.8,2.1
		c-0.8,0-1.4-0.9-1.6-1.7c-0.2-1,0.1-3.3,0.5-4.2l-2.8,0c-0.4,1.6-0.6,3.8-0.2,5.4c0.8,3.6,2.9,4.8,4.7,4.6
		C27.4,115.3,28.4,113.3,28.7,110.3"/>
	<polygon id="Fill-136" class="st3" points="23.1,95.2 33,95 33,91.9 23.1,92.1 23.1,87.9 19.9,87.9 20,99.7 23.2,99.6 	"/>
	<polygon id="Fill-138" class="st3" points="41,64.2 33.3,59.8 33.4,59.8 43.5,59.6 45.9,55.9 33.4,48.7 31.6,51.7 40,57 28.5,57.3 
		26.9,60.4 39.1,67.5 	"/>
	<path id="Fill-140" class="st3" d="M28.6,71.4c2.2,0,4,1.8,4,4c0,2.2-1.8,4-4,4s-4-1.8-4-4C24.6,73.2,26.4,71.4,28.6,71.4 M28.6,83
		c4.2,0,7.6-3.4,7.6-7.6c0-4.2-3.4-7.6-7.6-7.6c-4.2,0-7.6,3.4-7.6,7.6C21,79.6,24.4,83,28.6,83"/>
	<path id="Fill-142" class="st3" d="M33.6,129.6c-2.2,0-4-1.8-4-4c0-2.2,1.8-4,4-4s4,1.8,4,4C37.5,127.8,35.7,129.6,33.6,129.6
		 M41.2,125.6c0-4.2-3.4-7.6-7.6-7.6c-4.2,0-7.6,3.4-7.6,7.6c0,4.2,3.4,7.6,7.6,7.6C37.8,133.3,41.2,129.8,41.2,125.6"/>
	<path id="Fill-144" class="st3" d="M47.9,143.4l-0.3-0.3c-0.8-1-3.7-4-2.5-5.1c1.1-1,3.8,2.4,4.5,3.3l0.3,0.4L47.9,143.4z
		 M43.2,147.7c-1-1.2-4-3.6-2.7-4.8c1.2-1.2,4.2,2.5,4.6,3L43.2,147.7z M42.7,134.3c-1.2,1-1.7,3.5-0.6,5.2
		c-1.2-0.6-3.6-0.8-4.7,0.2c-2.7,2.4,0.6,5.8,3.3,8.6l3.8,3.8l10.1-8.4l-4.1-4.8C49.1,137.1,45.1,132.2,42.7,134.3L42.7,134.3z"/>
	<path id="Fill-146" class="st8" d="M87.9,173.8c0.4-0.2,1-0.5,1.3-0.3c0.3,0.2,1.8,1.3,2.8,2.2c1,0.9,1.3,1.1,0.5,1.6
		c-0.8,0.5-1.5,0.9-1.4,0.5c0.1-0.4,0.3-1-0.2-1.5c-0.5-0.5-1.8-1.5-2.4-2C88.2,174,87.9,173.8,87.9,173.8"/>
	<path id="Fill-148" class="st8" d="M84.1,174.9c-0.3,0.3-0.4,0.8,0,1.2c0.4,0.4,2.6,2.2,3,2.6c0.4,0.4,0.9,0.5,1.5,0.4
		c0.6-0.1-0.7,0.7-1.2,0.8c-0.5,0.1-1.1,0.1-1.6-0.4c-0.5-0.5-3.5-3.3-4.1-3.9c-0.6-0.6,0.2-0.6,0.7-0.6
		C83,174.9,83.4,175,84.1,174.9"/>
	<path id="Fill-150" class="st8" d="M80.4,158c0.2,0.6,0.3,1.2-0.7,1c-0.9-0.1-4.8-0.5-5.9-0.5c-0.3,0-0.2-0.7-0.6-0.4
		c-0.4,0.3-0.2,0.9-0.2,1.5c0,0.7-0.1,1.1,0,1.5c0,0.7,0.5,1.6,2.2,1.7c1.8,0.1,3.5-0.1,4-0.5c0.5-0.4,0-1-0.5-1
		c-0.5,0-3.5,0.2-4.1,0c-0.6-0.2-1-1-0.6-1.3c0.5-0.4,1.6,0.1,2.6,0.1s2.1-0.3,2.4-0.1c0.3,0.2,0.6,0.1,0.6,1.4
		c0,0.3,0.6,0.4,0.9,0.4c0.3,0,0.4,0.5,0.4,1.2c0,0.7,0,0.8-1.2,0.8c-1.2,0-6.3-0.1-7.1-0.1c-0.3,0-0.3-0.2-0.4-0.8
		c0-0.6-0.2-4.7-0.3-5.1c-0.1-0.3,0.8-0.4,1.5-0.2c0.7,0.1,1.6,0.3,2.7,0.3s2.8,0.2,2.8,0.2s0.9,0.1,1-0.2
		C80.1,157.9,80.4,157.8,80.4,158"/>
	<path id="Fill-152" class="st8" d="M98.6,17.4c0.1-0.3,0.2-0.7,0.4-1c-0.5,0.3-0.9,0.5-1.4,0.7C97.9,17.6,98.3,18.3,98.6,17.4"/>
	<path id="Fill-154" class="st8" d="M110.5,18.1c-0.2-0.7-0.8,0.4-1.7,1.4c-0.8,1-2,0.4-2.1-0.1c-0.1-0.5-0.4-1.1-1.1-2
		c-0.7-1,0.7-2.3,1.3-2.4c0.6-0.2,1.4-0.3,1.5-0.5c0.2-0.1-0.1-1.1-0.3-1.9c-2.4,0.7-5.3,1.9-7.8,3.2c0.8,0.3,0.6,1.8,0.5,2
		c-0.1,0.2-0.4,1.6,0.2,0.8c0.6-0.8,0.8-1.1,1.5-1.3c0.6-0.2,1.3-0.2,1.4,0.8c0,0.9-0.4,0.9-0.5,1.5c-0.1,0.6,0,0.6,0.3,0.7
		c0.3,0.1,0.5,0.5,0.3,1.2c-0.2,0.6-1.2,0.7-2.1,0.6c-0.9-0.1-1,0-0.7,0.3c0.2,0.2,0.6,0.8,0.7,1.3c2.2-1,4.8-1.9,8.8-2.7
		C110.6,20.1,110.7,18.6,110.5,18.1"/>
	<path id="Fill-156" class="st8" d="M89.6,31.1c-0.3-0.6-0.7-0.7-0.9-0.2c-0.2,0.5-0.5,2-1.5,2.4c-0.3,0.1-0.6,0.2-0.8,0.3
		c0.4,0.4,0.8,0.7,1.2,1c0.8-0.9,1.6-1.6,2.3-2.4C89.9,31.9,89.8,31.5,89.6,31.1"/>
	<path id="Fill-158" class="st8" d="M99.5,23.2c-0.4-0.1-0.7,0.4-0.9,0.8c-0.2,0.4-0.7,1.1-1.6,1c-0.9-0.1-1.1-0.4-1.3-1.1
		c-0.2-0.7-0.8-1-1.4-1c-0.6,0-1.1-0.8-0.4-1.6c0.7-0.8,1.3-0.4,1.8-0.4s0.8-0.6,0.4-0.9c-0.3-0.2-0.9-0.9-1-1.4
		c-1.9,1.2-4.6,3.2-6.9,5.3c0.4,0,0.9,0.2,1.2,0.3c0.3,0.1,0.8,0.5,0.8,1.1c-0.1,0.6,0.1,0.7,0.5,0.3c0.4-0.4-0.1-1.6,1.2-2
		c1.2-0.5,1.4,0.5,1.3,1.1c-0.1,0.6,0,1.2,0.6,1.5c0.6,0.3,1.3,1.3,0,1.9c-1.4,0.6-2.1,0.7-2.7,0.9c-0.6,0.2-0.4,0.7,0,1.1
		c0.3,0.2,0.5,0.4,0.7,0.6c1.7-1.6,3.4-2.9,5.3-4.2c1-0.7,2-1.3,2.9-1.9C100,24,100,23.4,99.5,23.2"/>
	<path id="Fill-160" class="st8" d="M86.6,29.4c0-0.7-0.5-0.9-0.8-1c-0.2-0.1-0.7-0.5-0.9-0.9c-0.3,0.4-0.6,0.9-0.9,1.3
		c0.1,0.4,0.3,0.9,0.4,1.2C85.3,30,86.5,30,86.6,29.4"/>
	<path id="Fill-162" class="st8" d="M114.5,60.2c-2.2-0.1-4.7,0.3-7.2,1.2c0.4,0.3,0.9,0.8,1.8,0.5c1.3-0.4,1.7,0.9,1.1,1.3
		c-0.6,0.4-0.8,1.3,0.3,0.6c1.1-0.7,2.1,0.3,1.7,1c-0.5,0.7-1.1,0.2-0.9,1.2c0.1,1-0.1,1.9-1,2.1c-0.9,0.2-1.1-1.2-1.5-1.1
		c-0.4,0.1,0.1,2.4-0.1,2.5c-0.6,0.1-1.3,0.7-1.6,1c0,0,0.1,0,0.1,0.1c3.6,2.6,4.6,1.2,5.1-0.1c0.5-1.3,1.7-5,2.1-6.9
		C114.3,62.5,114.6,61.3,114.5,60.2"/>
	<path id="Fill-164" class="st8" d="M106.6,67.4c0.2-0.5-0.3-0.9-0.9-0.6c-0.6,0.4-1.4,0.9-2-0.1c-0.6-1,0.6-1.1,0.7-1.5
		c0.1-0.5-0.4-0.5-0.2-1.3c0.2-0.8,1-0.5,1.6-0.1c0.7,0.5,0.5-0.6,0.4-1.1c-0.1-0.3-0.1-0.6-0.1-0.9c-0.7,0.3-1.4,0.7-2.1,1.1
		c-3.4,2.1-3.5,3.8-2.7,4.5c0.7,0.6,2.2,0.9,4.6,2.5C106.1,69.1,106.4,67.8,106.6,67.4"/>
	<path id="Fill-166" class="st8" d="M95.8,65.4c-1.4-0.7-2.8-2.2-3.7-4c0,0,0.1-0.3-0.3-0.3c-0.4,0-1.8-0.1-4.3-1
		c-2.4-0.9-2.8-0.3-3.1,0.7c-0.3,1.1-0.6,3-0.7,6.1c-0.1,3.2,1.3,5.2,2.2,4.8c0.4-0.2,1.5-0.7,2.7-1.3c0-0.6,0.1-1.7,0.1-2.2
		c0.1-0.8-0.7-0.5-1-0.1s-1,1.1-1.5,1c-0.6-0.1-1-1.2-0.9-2.1c0.1-1-1.1-1.4-0.3-2.7c0.7-1.3,1.3,0.3,2,0.2c0.6-0.1,0.3-0.5,0-1.5
		c-0.3-1,0.9-1.3,1.7-0.6c0.5,0.5,0.7-0.6,1.5-0.4c0.7,0.1,1.2,0.6,0.7,1.4c-0.3,0.6-0.6,1.9,0.1,1.2c0.6-0.7,1.3-1.1,1.8-0.7
		c0.6,0.5,0.2,1.4,0,1.9c-0.2,0.5,1.1,1.1,0.2,1.7c-0.9,0.6-1.8-0.4-2.3-0.3c-0.5,0.1-0.6,0.7,0.1,1.2c0.4,0.3,0.9,0.5,1.2,0.7
		c1.4-0.5,3-1.4,3.5-1.7l0.9,0.1C96.2,66.4,96.2,65.6,95.8,65.4"/>
	<path id="Fill-168" class="st8" d="M90.9,80c-0.5-1.2-0.7-0.3-2.2,2c-0.7,1.2-2.6,3.4-5,5.8c1.6,0.3,5.1,1.2,3,2.9
		c-2.2,1.8-1.3,1.7-0.3,1.6c1-0.1,2.6,0.5,1.4,2.7c-1.3,2.2-2.1,3.8-3.3,4.6c-1.2,0.7-2.9,0.7-3.3-1.1c-0.4-1.7-1.5,0-1.6,1.1
		c-0.1,1.1-0.2,3-0.1,3.7l-2.5-0.1c-0.1-1.1-0.1-3.2,0.1-4.2c0.2-1,0.1-2.2-1.4-1.7c-1,0.3-1.7,0.1-2-0.2c-3,2.6-4.4,4.4-5.4,6
		c0.8,0.7,2,1.2,3.2,0.7c1.4-0.6,3.8,0.1,2.4,2.4c-1.5,2.2-1.4,3.4,0.1,2s3.8-3.8,4.5-1.3c0.5,1.6-1.1,2.2-1,3.5
		c0.1,1.3,1.4,2.6-0.5,4.2c-1.8,1.6-2.6-1.1-3.9-0.7c-0.8,0.2-0.9,0.9-0.9,1.6c1.6,2.3,4,5.6,4.9,7c1.3,2.2,1.3,4.8,1.8,4.4
		c0.5-0.4,1.8-1.6,2.2-1.9c0.4-0.3,0.8-0.7,0.6-1.5c-0.2-0.7-1-4.6-0.7-7.3c0.3-3.1,1.7-6.5,2.8-8.5c1-1.9,4.1-7.9,4.8-9.4
		c0.7-1.6,2.1-3.4,2.4-4.9c0.3-1.5,1.6-4.8,2.1-6.4C93.1,85.8,92.3,83.1,90.9,80"/>
	<path id="Fill-170" class="st8" d="M100.8,65.2c-0.4,1.1-0.9,2.4-1.2,3c-0.3,0.7-1.5,0.4-1.4-0.1c0.2-1-1.2-0.3-1.1-1.1
		c0.1-0.7-0.1-1.7,0.6-1.7C98.5,65.4,99.9,65.2,100.8,65.2"/>
	<path id="Fill-172" class="st8" d="M98.6,17.4c0.1-0.3,0.2-0.7,0.4-1c-0.5,0.3-0.9,0.5-1.4,0.7C97.9,17.6,98.3,18.3,98.6,17.4"/>
	<path id="Fill-174" class="st8" d="M103,105.5c-1.2,0.1-2.6-0.3-2.6-0.3c-0.1,1.3-1.3,3.1-2.6,4.9c-0.1,0.2-0.9,0.2-1.2-0.1
		c-0.3-0.3-1.3-0.7-0.5-1.5c0.7-0.8,1.9-2.4,1.7-3.2c-0.2-0.7-0.7-1.4-1.5-0.4c-0.8,1-2,3-3.4,3.1s-2.8-1.2-2.1-2.4
		c0.7-1.3,0.9-1.9-0.1-3c-0.9-1.1-0.6-2.6,1.4-3.4c0.6-0.3,1.6,0,2.4,0.6c0.7,0.6,1.1,0,0.1-0.6c-1-0.6-1.8-1.3-1.9-2.6
		c-0.1-1.3,0.7-2.6,2.4-1.8c1.7,0.7,2.8,0.1,3.5-0.5c0.7-0.6,3.8-1.3,3.4,1.4c-0.3,2-1.3,2-1.5,3.1c-0.3,1.1,0.5,0.4,1-0.4
		s1.5-4,3.7-1.6c0.5,0.6,0.3,1.6-0.3,2.7c-0.7,1.1-0.1,1.8,0.3,2.4C105.4,102.4,106.3,105.3,103,105.5 M96.2,121.1
		c-1.6,0.5-1.8-0.3-2.9-0.7c-1.1-0.4-1.1,0.5-0.4,1.6c0.7,1.1,1.5,2.2,0.7,2.2s-1.5,0.1-1.7,0.8c-0.1,0.7-1.5-0.1-1.8-1.5
		c-0.3-1.4-0.7-4-1.4-2.7c-0.7,1.3-1.4,3.5-3.2,2.5c-1.8-1-0.6-2.3-1.5-3.2c-0.9-0.9-1.8-2.1-0.9-3.8c0.9-1.6,1.7-0.3,2.6-0.3
		c0.9,0,1-0.8,0.2-1.4c-0.8-0.6-1.8-3.4,1.8-3.2c1.4,0.1,2.9-0.4,4.1-1.3c1.2-0.9,4.3-0.4,3,1.8c-1.3,2.2-0.9,2.6-0.1,1.8
		c0.7-0.8,1.7-2.2,3-1.8c1.4,0.4,0.8,1.4-0.1,2.6c-0.9,1.2-0.3,2,0.3,2.4C98.7,117.5,99.9,120,96.2,121.1 M119.7,109.3
		c-1.7-2.8-2-4-2.3-6.9c-0.2-1.8,0-4.2,0.2-6.5c-0.5,0-1.2,0.1-1.2,0.8c-0.1,1.3-0.7,3-1.1,4c-0.4,0.9-1.7,0.9-2.5,0.9
		c-0.8,0.1-0.8-0.5-0.3-1.6c0.5-1.2,0.7-1.7,0.6-2.8c-0.1-1.1-0.7-0.1-1.1,0.8c-0.5,0.9-1.8,2.8-3.3,2.6c-1.5-0.2-1.1-2.5-1-3.3
		c0.1-0.8-0.3-0.9-0.9-1.1c-0.6-0.1-1.8-0.4-1.1-2.3c0.7-1.9,1.4-1.7,2.3-1.4c0.9,0.3,1.1-0.3,0.2-0.6c-0.9-0.3-1.8-1.1-1.7-2
		c0.2-2.4,1.7-2.2,2.9-2c1,0.2,2.3-0.4,3.2-1.3c0-0.1,0-0.1-0.1-0.2c-1.8-6.7,1.6-15,2.5-17.3c0.9-2.3,4.5-8.8,5.7-10.8
		c-0.7-0.3-2.4-1.2-3.4-1.7c-1-0.5-1.5-0.7-1.7-0.4c-0.3,0.4-0.6,0.6-1.1,1.2c-0.9,1.3-0.1,1.1,0.1,1.1c0.3,0,1.4,1.5,1.6,1.8
		c0.2,0.3,0,0.6-0.5,1.6c-0.6,1.4-1,4.6-1.5,6.5c-1.6,5.8-4.1,5.2-5.2,4.5c-1.1-0.7-1.5,0.4-2.6,2c-0.3,0.4-0.9,1.1-1.8,2
		c1.1,0.5,2.5,1.9,0.8,3.2c-2.1,1.6-2.4,2.4-1.5,2.2c1-0.2,2-1.7,3.1-0.7c1.1,1.1-0.4,2.2-1,2.6c-0.6,0.3-1.8,0.9-1.5,2.2
		c0.3,1.3,0.5,3-1.1,3.4c-1.6,0.4-2.3-0.3-2.8-1.2c-0.5-0.9-0.9-0.3-1.1,0.8c-0.2,1.1-0.3,1.8-0.3,2.2s-1.2-0.2-1.7-0.7
		c-0.5-0.5-1.2,0.9-1.8,0.2c-0.6-0.7,0.7-3,1.2-3.8c0.4-0.8,0.3-1.8-2.4-0.6c-0.8,1.4-1.5,3.5-2.6,6.7c-1.5,4.4-4.7,10.5-6.1,12.6
		c-3.6,5.7-4.2,11.1-3.7,14.5c0.5,3.4,1,3.1,1.7,3.1c0.7,0,2.5,2.2,3.7,3.6c1.2,1.4,1.7,0.8,2.2,0.3c1.9-1.5,5.7-4,11.2-6.5
		c2.3-1.1,5.4-2.3,8.4-3.2c0.1-1.2,0.4-2.7,0.5-3.3c0.1-0.7-0.5-0.9-1.2,0c-0.7,0.9-2.4,3-3.6,2.4c-1.2-0.5-2.2-1.8-1.5-3
		c0.7-1.1-0.3-1.5-0.7-2c-0.5-0.6-0.5-2.9,1-3.1c1.5-0.2,1.9,1.1,2.9,1.4c1,0.3,1.8,0.3,0.5-1.1c-1.3-1.4-2.8-0.9-2-2.8
		c0.8-1.9,1.9-1.8,3.2-1.4c1.3,0.4,2-0.3,2.8-0.9c0.9-0.6,2.6-1.4,3.8,0c1.2,1.4-0.9,2.6-1.3,3.1c-0.9,0.9-1.1,2.6-0.1,1.6
		c1-1,2.7-4.6,3.8-1.6c0.7,1.7-0.6,2.4-0.4,3.4c0.2,1.1,2,2.5,0.5,3.8c-1.5,1.3-3.5,0.2-4.4-0.6c-0.9-0.8-1.8-1.2-1.4,0.3
		c0.3,1.1,0.4,2.2,0.4,2.9c2.9-0.8,5.4-1.3,6.7-1.2c1.9,0.2,3.3,0.7,3.2-1C122.3,113.3,121.4,112.1,119.7,109.3"/>
</g>
</svg>
