<?xml version="1.0" encoding="utf-8"?>
<!-- Generator: Adobe Illustrator 21.1.0, SVG Export Plug-In . SVG Version: 6.00 Build 0)  -->
<svg version="1.1" id="Layer_1" xmlns="http://www.w3.org/2000/svg" xmlns:xlink="http://www.w3.org/1999/xlink" x="0px" y="0px"
	 viewBox="0 0 200 200" style="enable-background:new 0 0 200 200;" xml:space="preserve">
<style type="text/css">
	.st0{fill:#FEFEFE;}
	.st1{fill:#2D2925;}
</style>
<g>
	<path id="Fill-1" class="st0" d="M198,31.1l0-8.9l-5.2-2.6C191.2,18.8,153.4,0,101.2,0h-2.4C46.4,0,8.8,18.8,7.3,19.6L2,22.2l0,8.7
		c-0.4,22.3,2.3,78.8,37.1,122.9c28.3,36,55.5,44.6,58.5,45.4l2.6,0.7l2.6-0.7c1.2-0.3,28.9-8.4,58-45.4
		C195.6,109.7,198.4,53.4,198,31.1"/>
	<path id="Fill-4" class="st1" d="M192.4,31.2c0-2,0-3.1,0-3.1v-2.4l-2.2-1.1c-1.5-0.8-38.2-19-89.1-19h-2.4
		c-50.8,0-87.5,18.2-89.1,19l-2.2,1.1v2.4c0,0,0,1.1,0,3c-0.4,21.6,2.2,76.6,35.9,119.3c27.3,34.7,52.8,42.7,55.7,43.5l1.1,0.3
		l1.1-0.3c1.1-0.3,27.1-7.9,55.2-43.5C190.2,107.6,192.8,52.7,192.4,31.2"/>
	<path id="Fill-6" class="st0" d="M100.2,188.3c-2.1-0.6-26.4-8.1-52.6-41.3C13.2,103.2,13.1,46,13.3,32.5c0-1.9,0-3,0-3
		s0,0,0.1-0.1v-0.1l0.8-0.4c1.8-0.8,5.9-2.6,11.8-4.7c14.7-5.4,41-12.9,72.8-12.9h2.3c31.8,0,58,7.5,72.7,12.9
		c6,2.1,10.1,3.9,11.9,4.8l0.8,0.4v0.1c0.1,0,0.1,0.1,0.1,0.1s0,1.1,0,3c0.3,13.5,0.1,70.8-34.3,114.5
		C126.1,180.3,102.2,187.8,100.2,188.3 M154.1,148.5c32.9-41.8,35.5-95.7,35.1-116.9c0-2,0-3.1,0-3.1v-0.8l-0.7-0.4
		c-1.5-0.8-37.4-18.6-87.3-18.6h-2.4C48.9,8.8,13,26.6,11.5,27.3l-0.7,0.4v0.8c0,0,0,1.1,0,2.9c-0.4,21.3,2.2,75.2,35.1,117
		c26.6,33.8,51.3,41.6,54,42.3l0.4,0.1l0.4-0.1C101.7,190.5,126.7,183.2,154.1,148.5"/>
	<path id="Fill-8" class="st0" d="M163.7,56.5c-12.2-12.7-13.7-14.7-13.7-19.9c0-5.2,2.3-5.8,4.5-5.8c1.1,0,2.6,0.2,4.2,0.7
		c8.9,2.5,8.9,7.4,8.9,11v5.1c0,0.4,0.3,0.8,0.7,0.9c2.1,0.7,3.2,1.1,5.5,1.9c0.3,0.1,0.6,0.1,0.9-0.1c0.3-0.2,0.4-0.5,0.4-0.8v-4.3
		c0-5.4,0-14.5-15.8-19.1C148,23,142.4,26.4,142.4,36c0,8,4.9,12.8,13,20.7l1.6,1.6c9.6,9.4,11.6,12.5,11.6,18.5
		c0,2.1-0.3,3.6-1,4.6c-0.7,1-1.8,1.4-3.4,1.4c-1.3,0-2.9-0.3-4.8-0.8c-4.2-1.2-7.3-2.9-9.1-4.9c-2.2-2.5-2.2-4.6-2.2-8.8v-4.6
		c0-0.5-0.3-0.8-0.7-0.9c-2.4-0.5-3.5-0.8-5.8-1.2c-0.3-0.1-0.6,0-0.8,0.2c-0.2,0.2-0.3,0.5-0.3,0.7v8.1c0,7.6,6.2,13.4,18,16.7
		c3.3,1,6.2,1.4,8.5,1.4c9.2,0,9.2-7.4,9.2-10.6C176.1,69.7,171.9,65,163.7,56.5 M139.1,22.2c-11.7-2.1-23.6-3.3-35.5-3.4
		c-0.3,0-0.5,0.1-0.7,0.3c-0.2,0.2-0.3,0.4-0.3,0.7v3.7c0,0.5,0.4,1,0.9,1c5.6,0.1,8.4,0.2,13.7,0.6v53.1c0,0.5,0.4,0.9,0.9,1
		c2.3,0.2,3.5,0.3,5.8,0.5c0,0,0.1,0,0.1,0c0.2,0,0.5-0.1,0.6-0.3c0.2-0.2,0.3-0.4,0.3-0.7V25.7c5.3,0.6,8.2,1,13.8,2.1
		c0.3,0.1,0.6,0,0.8-0.2c0.2-0.2,0.3-0.5,0.3-0.7v-3.7C139.8,22.7,139.5,22.3,139.1,22.2 M97.7,18.9c-9.9,0.2-20,1-29.8,2.6
		C67.4,21.6,67,22,67,22.4V80c0,0.3,0.1,0.6,0.3,0.7c0.2,0.1,0.4,0.2,0.6,0.2c0,0,0.1,0,0.1,0c9.7-1.6,19.6-2.4,29.4-2.6
		c0.5,0,0.9-0.4,0.9-1v-3.6c0-0.3-0.1-0.5-0.3-0.7c-0.2-0.2-0.5-0.3-0.7-0.3c-9.2,0.2-14.1,0.5-22.9,1.6V51.7
		c7.3-0.9,11.2-1.3,18.8-1.5c0.5,0,0.9-0.5,0.9-1v-3.5c0-0.3-0.1-0.5-0.3-0.7c-0.2-0.2-0.4-0.3-0.7-0.3c-7.5,0.3-11.5,0.6-18.6,1.5
		V26c9-1.2,13.6-1.5,23-1.7c0.5,0,0.9-0.4,0.9-1v-3.6c0-0.3-0.1-0.5-0.3-0.7C98.2,19,97.9,18.9,97.7,18.9 M59.5,23
		c-2.3,0.5-3.4,0.7-5.7,1.2c-0.4,0.1-0.7,0.5-0.7,1L53.6,67c0,2.8,0.1,5.3,0.2,7.6c-5.7-14.5-11.6-29.4-17.6-44.6
		c-0.2-0.5-0.7-0.7-1.2-0.6c-3.3,1.1-5,1.7-8.2,2.9c-0.4,0.1-0.6,0.5-0.6,0.9v57.6c0,0.3,0.2,0.6,0.4,0.8c0.2,0.1,0.4,0.2,0.6,0.2
		c0.1,0,0.2,0,0.3-0.1c2-0.8,3.1-1.1,5.2-1.9c0.4-0.1,0.6-0.5,0.6-0.9c-0.1-13.6-0.2-27.3-0.2-40.9c0-3.6,0-5.6-0.2-8.1
		C38.8,55,44.6,69.7,50,83.8c0.2,0.5,0.7,0.7,1.1,0.6c3.5-0.9,5.2-1.2,8.7-2c0.4-0.1,0.8-0.5,0.8-0.9V23.9c0-0.3-0.1-0.6-0.4-0.7
		C60.1,23,59.8,22.9,59.5,23"/>
	<path id="Fill-10" class="st0" d="M132.3,153.3c-0.6,0.4-1.1,0.8-1.7,1.2c-1.6,1.1-3.2,2.1-4.9,3.1c-0.8,0.5-1.6,1-2.4,1.5
		c-5.7,3.5-12.6,7.5-20,9.7c-2.1,0.7-4.1,1.1-6,1.4c-1.8,0.3-3.4,0.4-5.1,0.4h-0.3c-2.2,0-4.3-0.2-6.3-0.6
		c7.7,2.7,16.3,3.3,24.8,1.2c4.9-1.2,9.4-3.2,13.3-5.8c3.8-3,6.9-7.2,8.8-12.3C132.4,153.2,132.4,153.3,132.3,153.3L132.3,153.3z
		 M93.3,168.5c4.9-0.6,8.9-1.8,13.6-4.1c0.7-0.3,1.3-0.7,2-1c0.6-0.3,1.1-0.6,1.7-0.9c3.9-2,8.1-4.3,13.2-7c1.8-1,3.6-2,5.3-3l2-1.1
		c0.8-0.4,1.5-0.8,2.3-1.3c0.1,0,0.2-0.1,0.2-0.2c0.7-2.4,1.1-5,1.3-7.7c-5,2.5-12.5,4.7-23.5,6.9c-14.1,2.8-27.9,1.5-40.2-3.6
		c-8.3-3.5-12.2-8.3-13.8-11c0.2,1.9,0.5,3.8,1,5.7c2.7,10.7,9.3,19.5,17.9,25.2l0-0.1l1.2,0.7c1,0.6,2.2,1.1,3.6,1.5
		c2.7,0.8,5.3,1.2,8.1,1.2C90.5,168.8,91.8,168.7,93.3,168.5L93.3,168.5z M137.2,150.4c0-0.2-0.1-0.2-0.2-0.2c-0.1,0-0.4,0.1-1,0.4
		c-0.1,0.1-0.2,0.2-0.3,0.2c-0.1,0.1-0.2,0.1-0.3,0.2c-1.1,2.8-2.5,5.5-4.1,7.9c2.4-2.5,4.4-5.3,6.1-8.3h-0.1L137.2,150.4z
		 M138.8,139.8c-0.2,0.1-0.3,0.2-0.4,0.3c-0.2,0.2-0.5,0.4-0.7,0.5c-0.2,2.7-0.7,5.4-1.5,8c1.3-0.5,1.8,0.1,1.9,0.4c0,0,0,0.1,0,0.1
		c2.2-4.4,3.7-9.1,4.3-14C141.8,136.8,140.7,138.5,138.8,139.8L138.8,139.8z M137.8,137.5c0.1-0.1,0.2-0.2,0.3-0.2
		c3.6-2.5,4.5-6.6,4.7-7.2c0-3.4-0.4-6.9-1.3-10.3c0-0.1-0.1-0.3-0.1-0.4c-0.3,3.2-1.9,6.1-4.7,8.7
		C137.4,131.2,137.8,134.4,137.8,137.5L137.8,137.5z M73.6,142.7c10.2,3.3,15.8,4.4,23.2,4.4c2.7,0,5.8-0.2,9.7-0.5
		c10.8-0.9,22.3-4.5,28.4-7.5c0-3-0.3-6-0.8-9c-1.8,1.1-3.9,1.6-6.4,1.6c-2.5,0-5.6-0.5-10.6-1.7c-5.9-1.4-14.4-6.4-21.8-10.9
		c-4.1-2.4-8-4.7-11.2-6.3c-12.2-6-19.1-5.2-20.9-4.8c-4.3,7.2-6.5,15.7-6,24.5C58,133.7,62.1,138.9,73.6,142.7L73.6,142.7z
		 M79.8,107.8c4.1,1.7,9.6,4.6,15.3,7.7c9.1,4.9,18.4,9.9,24.8,11.5c5.6,1.4,10.3,1.3,13.5-0.4c0-0.1,0-0.1,0-0.2
		c0-0.2-0.1-0.5-0.2-0.7C130.5,114.3,116,89,91,89c-1.1,0-2.1,0.1-3.2,0.2c-9.7,2.8-17.6,8.7-23,16.4c0.9-0.3,2.1-0.6,3.7-0.6
		C71.6,105,75.4,106,79.8,107.8L79.8,107.8z M135.9,124.9c0.7-0.7,1.2-1.4,1.6-2.2c3-5.8,0.3-12.3-0.8-14.6
		c-8.4-13.9-24.3-22-40.9-20.5C112.9,88.6,129.5,103.9,135.9,124.9L135.9,124.9z"/>
	<path id="Fill-12" class="st0" d="M116.9,138.7c0-3.1,0-7.8-3.7-11.4c0.4-0.7,0.7-1.5,1-2.3c0.6-1.9,0.7-3.9,0.6-5.2l0-8.6v-0.1
		c-0.1-3.2-0.6-6.6-3.2-9.5c-2.3-2.6-5.9-4-10.2-4l-11.7,0c-1.3,0-2.5,0.5-3.5,1.4c-0.9,0.9-1.4,2.1-1.4,3.4l0.1,56.4
		c0,1.7,0.9,3.2,2.3,4.1c0.8,0.5,1.7,0.7,2.6,0.7l11.9,0c4.3,0,7.9-1.2,10.7-3.6l0,0c3.9-3.5,4.3-7.6,4.4-11.6v0L116.9,138.7z"/>
	<path id="Fill-14" class="st1" d="M101.2,124.7c-1,0.3-1.5,0.4-3.7,0.4l-2.2,0c-0.4,0-0.5-0.2-0.5-0.5c0-0.2,0-18.1,0-18.1
		c0-0.3,0.1-0.5,0.4-0.5h3.3h0.3c1.6,0.1,3.4,0.1,4.5,0.8c0.5,0.3,0.9,0.7,1,1.2c0.2,0.5,0.3,1.5,0.4,3.1l0,7c0,0.1,0,0.3,0,0.5
		C104.8,120.6,104.8,123.7,101.2,124.7L101.2,124.7z M105.3,154c-0.9,0.6-1.9,1-4.6,1.1c0,0-4.7,0-5,0c-0.4,0-0.6-0.3-0.6-0.7
		c0-3.4,0-22.3,0-22.5c0-0.2,0-0.4,0.4-0.4c0.4,0,2.3,0,2.3,0c2.5,0.1,5.1,0.3,6.7,1.4c1,0.6,1.6,1.4,2,2.5c0.4,1.1,0.4,2.4,0.4,3.6
		l0,8.3C107,151.1,106.7,152.9,105.3,154L105.3,154z M113.9,139.1c0-3.2,0-7-3.3-9.7c-0.7-0.6-1.5-1.1-2.5-1.5
		c1.5-1,2.6-2.4,3.1-4.2c0.5-1.6,0.5-3.5,0.5-4.3l0-9c-0.1-2.5-0.4-5.3-2.4-7.6c-1.8-2-4.5-3-7.9-3l-12.2,0c-0.4,0-0.7,0.1-1,0.4
		c-0.3,0.3-0.4,0.6-0.4,1l0.1,58.9c0,0.5,0.2,0.9,0.7,1.2c0.2,0.1,0.5,0.2,0.8,0.2l12.4,0c1.3,0,5.3,0,8.7-2.9
		c3-2.7,3.3-5.9,3.4-9.4L113.9,139.1z"/>
</g>
</svg>
