<?xml version="1.0" encoding="utf-8"?>
<!-- Generator: Adobe Illustrator 21.1.0, SVG Export Plug-In . SVG Version: 6.00 Build 0)  -->
<svg version="1.1" id="svg111094" xmlns:svg="http://www.w3.org/2000/svg"
	 xmlns="http://www.w3.org/2000/svg" xmlns:xlink="http://www.w3.org/1999/xlink" x="0px" y="0px" viewBox="0 0 200 200"
	 style="enable-background:new 0 0 200 200;" xml:space="preserve">
<style type="text/css">
	.st0{fill:#FFFFFF;}
	.st1{fill:#3A3A38;}
	.st2{fill:#CB0B39;}
	.st3{fill:#CA0838;}
	.st4{fill:#C80536;}
	.st5{fill:#C50536;}
	.st6{fill:#BF0534;}
	.st7{fill:#B90632;}
	.st8{fill:#B2042F;}
	.st9{fill:#AC042D;}
	.st10{fill:#A6052B;}
	.st11{fill:#A10529;}
	.st12{fill:#9E0528;}
	.st13{fill:#970525;}
	.st14{fill:#930524;}
	.st15{fill:#900623;}
	.st16{fill:#8D0622;}
	.st17{fill:#890520;}
	.st18{fill:#86051F;}
	.st19{fill:#83051E;}
	.st20{fill:#80051D;}
	.st21{fill:#7E051C;}
	.st22{fill:#7A041B;}
	.st23{fill:#760419;}
	.st24{fill:#730417;}
	.st25{fill:#CC153B;}
	.st26{fill:#CD203E;}
	.st27{fill:#CD2540;}
	.st28{fill:#CF2B43;}
	.st29{fill:#CF3046;}
	.st30{fill:#D03548;}
	.st31{fill:#D13A4C;}
	.st32{fill:#D3404F;}
	.st33{fill:#D64A55;}
	.st34{fill:#D74F57;}
	.st35{fill:#D6565A;}
	.st36{fill:#D85A5D;}
	.st37{fill:#DA6062;}
	.st38{fill:#DF6C6C;}
	.st39{fill:#DF7170;}
	.st40{fill:#E17674;}
	.st41{fill:#E1807F;}
	.st42{fill:#E38683;}
	.st43{fill:#E48C89;}
	.st44{fill:#CA0035;}
</style>
<g>
	<path class="st0" d="M128.1,76.5c0.6,3.1-0.2,6.8-1.9,10.3c0,0,0.9,0.6,2.7,2.1L129,89c2.3-4.4,3.3-8.9,2.5-13.1
		c-3-15.6-28.3-19.2-50.3-12.2c-9.3,3-18,7.6-24.9,13.2l0,4.5c6.7-6,15.7-11.2,25.9-14.5C104.7,59.8,125.9,64.9,128.1,76.5z"/>
	<path id="path121123" class="st1" d="M56.3,49.8v27.1c6.9-5.6,15.6-10.2,24.9-13.2c22-7,47.3-3.4,50.3,12.2
		c0.8,4.2-0.2,8.7-2.5,13.1l-0.1-0.1c-1.8-1.5-2.7-2.1-2.7-2.1c1.8-3.5,2.5-7.2,1.9-10.3c-2.2-11.7-23.4-16.7-45.9-9.6
		C72,70.2,63,75.4,56.3,81.4v36.5l96.2,13.1V49.8L56.3,49.8z"/>
	<path id="path121131" class="st1" d="M113.7,196.1c20.4,0.8,41-12.9,46.8-31.1c4.8-15.1-1.8-29.4-15.8-35.5
		c-3.7-1.6-7.9-2.7-12.6-3.1c-23.1-1.8-45.5,14.6-49.3,34.9C79.2,180.1,93.1,195.3,113.7,196.1 M113.6,200
		C91,199.1,74.9,182.1,79,160.6c4.3-22.5,28.6-40,53.4-38.1c24.5,1.9,38.5,21.9,31.7,43.6C157.8,186.2,135.5,200.8,113.6,200"/>
	<path id="path121135" class="st1" d="M152.5,130.1c-2.2,31.5-30.3,55.2-62.7,52.9S32.1,153.4,34.3,122C36.5,90.5,64.6,66.8,97,69
		C115.2,93,152.5,130.1,152.5,130.1"/>
	<path class="st2" d="M142.2,112.6c-6.9-20.1-25.7-32.6-45.7-32.6c-5.2,0-10.6,0.8-15.8,2.7c-20,6.9-32.6,25.7-32.6,45.7
		c0,5.2,0.9,10.6,2.7,15.8c6.9,20.1,25.7,32.6,45.7,32.6c5.2,0,10.5-0.8,15.8-2.7c20-6.9,32.6-25.6,32.6-45.7
		C144.8,123.1,144,117.8,142.2,112.6z"/>
	<path class="st3" d="M101.3,124.1c-3.7-3.8-7.8-7.2-12.3-10.1c-14.5-9.4-29.4-11.1-39.5-6c-2.8,6.3-4.3,13.3-4.3,20.3
		c0,5.5,0.9,11.2,2.8,16.7c7.3,21.2,27.1,34.5,48.3,34.5c5.5,0,11.1-0.9,16.6-2.8c1.1-0.4,2.2-0.8,3.2-1.2c0.5-1,1-2.1,1.4-3.2
		C122.5,157.8,115.4,138.5,101.3,124.1z"/>
	<path class="st4" d="M98.3,127c-3.4-3.5-7.3-6.7-11.5-9.4c-14.7-9.5-29.8-10.6-39.2-4.2c-1.5,4.8-2.2,9.8-2.2,14.9
		c0,5.5,0.9,11.2,2.8,16.7c7.3,21.2,27.1,34.5,48.3,34.5c4.8,0,9.6-0.7,14.4-2.1c1.1-1.6,2-3.4,2.7-5.5
		C118,158.6,111.4,140.5,98.3,127z"/>
	<path class="st5" d="M94.7,130.6c-3.1-3.2-6.7-6.1-10.5-8.7c-14.8-9.6-30-9.9-38.2-1.9c-0.5,2.7-0.7,5.5-0.7,8.3
		c0,5.5,0.9,11.2,2.8,16.7c7.3,21.2,27.1,34.5,48.3,34.5c2.7,0,5.4-0.2,8.1-0.6c1.8-1.9,3.2-4.3,4.1-7.1
		C112.8,159.5,106.7,142.9,94.7,130.6z"/>
	<path class="st6" d="M104.2,171.5c3.7-11.2-1.8-26.3-12.8-37.6c-2.9-3-6.1-5.6-9.6-7.9c-13.6-8.8-27.5-9-35-1.7
		c-0.5,0.5-0.9,0.9-1.4,1.5c-0.1,0.8-0.1,1.7-0.1,2.5c0,5.5,0.9,11.2,2.8,16.7c7.3,21.2,27.1,34.5,48.3,34.5c0.8,0,1.7,0,2.5-0.1
		c0.2-0.2,0.5-0.4,0.7-0.7C101.7,176.8,103.2,174.4,104.2,171.5z"/>
	<path class="st7" d="M101.3,171.3c3.5-10.5-1.7-24.8-12.1-35.4c-2.7-2.8-5.7-5.3-9.1-7.4c-12.8-8.3-25.9-8.5-32.9-1.6
		c-0.7,0.7-1.3,1.4-1.9,2.2c0.1,5.3,1,10.7,2.8,15.9c7.2,20.8,26.5,34.1,47.4,34.5c0.6-0.4,1.1-0.9,1.6-1.4
		C99,176.3,100.4,174,101.3,171.3z"/>
	<path class="st8" d="M97.9,171.4c3.3-9.9-1.6-23.3-11.3-33.3c-2.5-2.6-5.4-5-8.5-7c-12-7.8-24.3-8-31-1.5c-0.6,0.6-1.2,1.2-1.7,1.9
		c0.3,4.5,1.2,9,2.7,13.5c6.8,19.8,24.5,32.6,44.1,34.3c0.6-0.4,1.2-0.9,1.8-1.5C95.7,176.1,97.1,174,97.9,171.4z"/>
	<path class="st9" d="M94.6,170.9c3.1-9.2-1.5-21.7-10.6-31c-2.4-2.4-5-4.7-8-6.5c-11.2-7.2-22.7-7.4-28.9-1.4
		c-0.6,0.5-1.1,1.2-1.6,1.8c0.4,3.7,1.2,7.5,2.5,11.2c6.4,18.5,22.3,30.9,40.3,33.8c0.9-0.5,1.7-1.2,2.5-1.9
		C92.5,175.3,93.8,173.3,94.6,170.9z"/>
	<path class="st10" d="M92.3,170.9c2.8-8.5-1.4-20-9.7-28.6c-2.2-2.2-4.7-4.3-7.3-6c-10.3-6.7-20.9-6.8-26.6-1.3
		c-0.9,0.9-1.7,1.9-2.3,3.1c0.5,2.3,1.1,4.6,1.8,6.9c6.1,17.7,21,29.9,38.1,33.4c1-0.5,1.9-1.2,2.7-2
		C90.4,175,91.5,173.1,92.3,170.9z"/>
	<path class="st11" d="M89.9,170.8c2.6-8-1.3-18.8-9.1-26.8c-2.1-2.1-4.4-4-6.9-5.6c-9.7-6.3-19.6-6.4-24.9-1.2
		c-0.9,0.9-1.7,1.9-2.3,3c0.4,1.6,0.8,3.2,1.4,4.8c5.8,17,19.8,28.9,36,32.9c1-0.5,1.9-1.2,2.7-1.9
		C88.2,174.6,89.2,172.9,89.9,170.8z"/>
	<path class="st12" d="M87.4,170.7c2.4-7.4-1.2-17.4-8.5-24.9c-1.9-1.9-4-3.7-6.4-5.2c-9-5.8-18.2-6-23.1-1.1
		c-0.8,0.8-1.6,1.8-2.1,2.9c0.2,0.9,0.5,1.8,0.8,2.7c5.6,16.2,18.5,27.8,33.8,32.3c0.9-0.5,1.8-1.1,2.6-1.9
		C85.8,174.2,86.8,172.6,87.4,170.7z"/>
	<path class="st13" d="M85.4,170.6c2.3-6.9-1.1-16.3-7.9-23.3c-1.8-1.8-3.8-3.5-6-4.9c-8.4-5.4-17-5.6-21.7-1.1
		c-0.8,0.8-1.5,1.7-2,2.7c0.1,0.3,0.2,0.7,0.3,1c5.4,15.6,17.6,26.9,32.1,31.8c0.9-0.5,1.7-1.1,2.4-1.7
		C83.9,173.9,84.8,172.4,85.4,170.6z"/>
	<path class="st14" d="M83.5,170.5c2.2-6.5-1.1-15.3-7.4-21.9c-1.7-1.7-3.5-3.3-5.6-4.6c-7.9-5.1-16-5.3-20.4-1
		c-0.7,0.7-1.3,1.5-1.8,2.4c5.3,14.9,16.8,25.8,30.5,30.9c0.8-0.4,1.5-0.9,2.1-1.6C82.1,173.6,83,172.2,83.5,170.5z"/>
	<path class="st15" d="M81.8,170.4c2-6.1-1-14.4-7-20.5c-1.6-1.6-3.3-3.1-5.3-4.3c-7.4-4.8-15-4.9-19.1-0.9
		c-0.6,0.6-1.2,1.3-1.6,2.1c5.3,13.7,15.9,23.9,28.7,29c0.7-0.4,1.3-0.9,1.9-1.4C80.4,173.3,81.3,172,81.8,170.4z"/>
	<path class="st16" d="M80,170.3c1.9-5.7-0.9-13.4-6.5-19.1c-1.5-1.5-3.1-2.9-4.9-4c-6.9-4.5-14-4.6-17.8-0.9
		c-0.5,0.5-1,1.1-1.4,1.8c5.3,12.6,15.1,22,26.8,27.2c0.6-0.4,1.1-0.8,1.6-1.2C78.7,173,79.5,171.8,80,170.3z"/>
	<path class="st17" d="M77.6,170.2c1.7-5.2-0.8-12.2-5.9-17.4c-1.3-1.4-2.8-2.6-4.4-3.7c-6.3-4-12.7-4.2-16.2-0.8
		c-0.4,0.4-0.8,0.8-1.1,1.3c5.1,11.2,13.9,19.7,24.4,24.7c0.4-0.3,0.8-0.6,1.1-0.9C76.5,172.7,77.2,171.6,77.6,170.2z"/>
	<path class="st18" d="M76.2,170.1c1.6-4.8-0.8-11.4-5.5-16.3c-1.2-1.3-2.7-2.4-4.2-3.4c-5.9-3.8-11.9-3.9-15.1-0.7
		c-0.3,0.3-0.6,0.6-0.9,1c5,10.3,13.2,18.3,23,23.3c0.3-0.2,0.6-0.4,0.8-0.7C75.1,172.4,75.8,171.4,76.2,170.1z"/>
	<path class="st19" d="M74,170c1.4-4.3-0.7-10.2-5-14.6c-1.1-1.1-2.4-2.2-3.7-3.1c-5.3-3.4-10.7-3.5-13.6-0.6
		c-0.2,0.2-0.3,0.3-0.5,0.5c4.8,9.1,12.1,16.3,20.7,21c0.1-0.1,0.2-0.2,0.4-0.3C73,172.1,73.6,171.2,74,170z"/>
	<path class="st20" d="M72.4,169.9c1.3-4-0.6-9.3-4.5-13.3c-1-1.1-2.2-2-3.4-2.8c-4.8-3.1-9.7-3.2-12.4-0.6
		c-0.1,0.1-0.1,0.1-0.1,0.1c4.6,8.1,11.2,14.7,18.9,19.2l0,0C71.5,171.8,72,171,72.4,169.9z"/>
	<path class="st21" d="M66.6,157.8c-0.9-0.9-1.9-1.8-3.1-2.5c-4.2-2.7-8.5-2.9-10.9-0.8c4.3,7.2,10.2,13,17.1,17.3
		c0.5-0.5,0.8-1.2,1.1-1.9C71.9,166.3,70.1,161.4,66.6,157.8z"/>
	<path class="st22" d="M65.9,158.5c-0.9-0.9-1.8-1.7-2.9-2.4c-3.8-2.4-7.7-2.7-10-0.9c4.1,6.6,9.6,12.1,16,16.2
		c0.3-0.5,0.6-1,0.8-1.6C70.8,166.5,69.2,161.9,65.9,158.5z"/>
	<path class="st23" d="M64.5,159.8c-0.8-0.8-1.6-1.5-2.5-2.1c-3-1.9-6.1-2.3-8.2-1.2c3.7,5.6,8.4,10.3,13.8,14
		c0.1-0.2,0.2-0.5,0.3-0.8C68.9,166.8,67.4,162.8,64.5,159.8z"/>
	<path class="st24" d="M63.3,161c-0.7-0.7-1.4-1.3-2.2-1.8c-2.3-1.5-4.7-1.9-6.4-1.4c3.2,4.6,7.2,8.6,11.6,11.8
		C67.1,167,65.8,163.6,63.3,161z"/>
	<path class="st25" d="M88.7,85.5c-3.7,11.2,1.8,26.3,12.8,37.6c2.9,3,6.1,5.6,9.6,7.9c13.6,8.8,27.5,9,35,1.7
		c0.5-0.5,0.9-0.9,1.4-1.5c0.1-0.8,0.1-1.7,0.1-2.5c0-5.5-0.9-11.2-2.8-16.7c-7.3-21.2-27.1-34.5-48.3-34.5c-0.8,0-1.7,0-2.5,0.1
		c-0.2,0.2-0.5,0.4-0.7,0.7C91.2,80.2,89.7,82.6,88.7,85.5z"/>
	<path class="st26" d="M91.6,85.7c-3.5,10.5,1.7,24.8,12.1,35.4c2.7,2.8,5.7,5.3,9.1,7.4c12.8,8.3,25.9,8.5,32.9,1.6
		c0.7-0.7,1.3-1.4,1.9-2.2c-0.1-5.3-1-10.7-2.8-15.9c-7.2-20.8-26.5-34.1-47.4-34.5c-0.6,0.4-1.1,0.9-1.6,1.4
		C93.9,80.7,92.5,83,91.6,85.7z"/>
	<path class="st27" d="M94.9,85.6c-3.3,9.9,1.6,23.3,11.3,33.3c2.5,2.6,5.4,5,8.5,7c12,7.8,24.3,8,31,1.5c0.6-0.6,1.2-1.2,1.7-1.9
		c-0.3-4.5-1.2-9-2.7-13.5c-6.8-19.8-24.5-32.6-44.1-34.3c-0.6,0.4-1.2,0.9-1.8,1.5C97.2,80.9,95.8,83,94.9,85.6z"/>
	<path class="st28" d="M98.3,86.1c-3.1,9.2,1.5,21.7,10.6,31c2.4,2.4,5,4.7,8,6.5c11.2,7.2,22.7,7.4,28.9,1.4
		c0.6-0.5,1.1-1.2,1.6-1.8c-0.4-3.7-1.2-7.5-2.5-11.2c-6.4-18.5-22.3-30.9-40.3-33.8c-0.9,0.5-1.7,1.2-2.5,1.9
		C100.4,81.6,99.1,83.6,98.3,86.1z"/>
	<path class="st29" d="M100.6,86.1c-2.8,8.5,1.4,20,9.7,28.6c2.2,2.2,4.7,4.3,7.3,6c10.3,6.7,20.9,6.8,26.6,1.3
		c0.9-0.9,1.7-1.9,2.3-3.1c-0.5-2.3-1.1-4.6-1.8-6.9c-6.1-17.7-21-29.9-38.1-33.4c-1,0.5-1.9,1.2-2.7,2
		C102.5,82,101.3,83.8,100.6,86.1z"/>
	<path class="st30" d="M102.9,86.2c-2.6,8,1.3,18.8,9.1,26.8c2.1,2.1,4.4,4,6.9,5.6c9.7,6.3,19.6,6.4,24.9,1.2
		c0.9-0.9,1.7-1.9,2.3-3c-0.4-1.6-0.8-3.2-1.4-4.8c-5.8-17-19.8-28.9-36-32.9c-1,0.5-1.9,1.2-2.7,1.9
		C104.7,82.4,103.6,84.1,102.9,86.2z"/>
	<path class="st31" d="M105.5,86.3c-2.4,7.4,1.2,17.4,8.5,24.9c1.9,1.9,4,3.7,6.4,5.2c9,5.8,18.2,6,23.1,1.1
		c0.8-0.8,1.6-1.8,2.1-2.9c-0.2-0.9-0.5-1.8-0.8-2.7c-5.6-16.2-18.5-27.8-33.8-32.3c-0.9,0.5-1.8,1.1-2.6,1.9
		C107.1,82.8,106.1,84.4,105.5,86.3z"/>
	<path class="st32" d="M107.5,86.4c-2.3,6.9,1.1,16.3,7.9,23.3c1.8,1.8,3.8,3.5,6,4.9c8.4,5.4,17,5.6,21.7,1.1
		c0.8-0.8,1.5-1.7,2-2.7c-0.1-0.3-0.2-0.7-0.3-1c-5.4-15.6-17.6-26.9-32.1-31.8c-0.9,0.5-1.7,1.1-2.4,1.7
		C109,83.1,108.1,84.6,107.5,86.4z"/>
	<path class="st33" d="M109.4,86.5c-2.2,6.5,1.1,15.3,7.4,21.9c1.7,1.7,3.5,3.3,5.6,4.6c7.9,5.1,16,5.3,20.4,1
		c0.7-0.7,1.3-1.5,1.8-2.4c-5.3-14.9-16.8-25.8-30.5-30.9c-0.8,0.4-1.5,0.9-2.1,1.6C110.8,83.4,109.9,84.8,109.4,86.5z"/>
	<path class="st34" d="M111.1,86.6c-2,6.1,1,14.4,7,20.5c1.6,1.6,3.3,3.1,5.3,4.3c7.4,4.8,15,4.9,19.1,0.9c0.6-0.6,1.2-1.3,1.6-2.1
		c-5.3-13.7-15.9-23.9-28.7-29c-0.7,0.4-1.3,0.9-1.9,1.4C112.5,83.6,111.6,85,111.1,86.6z"/>
	<path class="st35" d="M112.9,86.7c-1.9,5.7,0.9,13.4,6.5,19.1c1.5,1.5,3.1,2.9,4.9,4c6.9,4.5,14,4.6,17.8,0.9
		c0.5-0.5,1-1.1,1.4-1.8c-5.3-12.6-15.1-22-26.8-27.2c-0.6,0.4-1.1,0.8-1.6,1.2C114.2,83.9,113.4,85.2,112.9,86.7z"/>
	<path class="st36" d="M115.3,86.8c-1.7,5.2,0.8,12.2,5.9,17.4c1.3,1.4,2.8,2.6,4.4,3.7c6.3,4,12.7,4.2,16.2,0.8
		c0.4-0.4,0.8-0.8,1.1-1.3c-5.1-11.2-13.9-19.7-24.4-24.7c-0.4,0.3-0.8,0.6-1.1,0.9C116.4,84.3,115.7,85.4,115.3,86.8z"/>
	<path class="st37" d="M116.7,86.8c-1.6,4.8,0.8,11.4,5.5,16.3c1.2,1.3,2.7,2.4,4.2,3.4c5.9,3.8,11.9,3.9,15.1,0.7
		c0.3-0.3,0.6-0.6,0.9-1c-5-10.3-13.2-18.3-23-23.3c-0.3,0.2-0.6,0.4-0.8,0.7C117.8,84.5,117.1,85.6,116.7,86.8z"/>
	<path class="st38" d="M118.9,86.9c-1.4,4.3,0.7,10.2,5,14.6c1.1,1.1,2.4,2.2,3.7,3.1c5.3,3.4,10.7,3.5,13.6,0.6
		c0.2-0.2,0.3-0.3,0.5-0.5c-4.8-9.1-12.1-16.3-20.7-21c-0.1,0.1-0.2,0.2-0.4,0.3C119.8,84.9,119.2,85.8,118.9,86.9z"/>
	<path class="st39" d="M120.5,87c-1.3,4,0.6,9.3,4.5,13.3c1,1.1,2.2,2,3.4,2.8c4.8,3.1,9.7,3.2,12.4,0.6c0.1-0.1,0.1-0.1,0.1-0.1
		c-4.6-8.1-11.2-14.7-18.9-19.2l0,0C121.4,85.1,120.9,86,120.5,87z"/>
	<path class="st40" d="M126.3,99.1c0.9,0.9,1.9,1.8,3.1,2.5c4.2,2.7,8.5,2.9,10.9,0.8c-4.3-7.2-10.2-13-17.1-17.3
		c-0.5,0.5-0.8,1.2-1.1,1.9C121,90.7,122.8,95.5,126.3,99.1z"/>
	<path class="st41" d="M127,98.5c0.9,0.9,1.8,1.7,2.9,2.4c3.8,2.4,7.7,2.7,10,0.9c-4.1-6.6-9.6-12.1-16-16.2c-0.3,0.5-0.6,1-0.8,1.6
		C122,90.5,123.7,95.1,127,98.5z"/>
	<path class="st42" d="M128.4,97.2c0.8,0.8,1.6,1.5,2.5,2.1c3,1.9,6.1,2.3,8.2,1.2c-3.7-5.6-8.4-10.3-13.8-14
		c-0.1,0.2-0.2,0.5-0.3,0.8C124,90.2,125.5,94.2,128.4,97.2z"/>
	<path class="st43" d="M129.5,96c0.7,0.7,1.4,1.3,2.2,1.8c2.3,1.5,4.7,1.9,6.4,1.4c-3.2-4.6-7.2-8.6-11.6-11.8
		C125.8,90,127,93.4,129.5,96z"/>
	<path id="path121137" class="st0" d="M80.7,82.6C60.6,89.5,48,108.3,48,128.3c0,5.2,0.9,10.6,2.7,15.8c6.9,20,25.7,32.6,45.8,32.6
		c5.2,0,10.6-0.9,15.8-2.7c20-6.9,32.6-25.6,32.6-45.7c0-5.2-0.9-10.6-2.7-15.8c-6.9-20-25.7-32.6-45.8-32.6
		C91.2,80,85.9,80.8,80.7,82.6 M113.1,176.7c-5.5,1.9-11.1,2.8-16.6,2.8c-21.2,0-41-13.3-48.3-34.5c-1.9-5.5-2.8-11.2-2.8-16.7
		c0-21.2,13.3-41,34.5-48.3c5.5-1.9,11.1-2.8,16.6-2.8c21.2,0,41,13.3,48.3,34.5c1.9,5.5,2.8,11.1,2.8,16.7
		C147.6,149.6,134.3,169.4,113.1,176.7L113.1,176.7"/>
	<path id="path121141" class="st0" d="M125.7,166.9c2.8-8.6,4.6-17.3,5.1-25.7c0.2-3.2,0.3-6.4,0.1-9.4c0.4-0.1,0.8-0.2,1.2-0.2
		c4.4-0.6,8.6,0.4,12.2,3c0,0,0.4-2.1,0.4-5l-0.1-0.2c-4.1-2.2-8.6-3.1-13.3-2.4l-0.8,0.1c-0.5-4.6-1.3-9.1-2.6-13.4
		c4.6-0.6,9.4-0.9,14.2-0.8l-0.1-0.2c-0.9-2.7-1.8-4.5-1.8-4.5c-4.7,0-9.4,0.4-13.9,1c-1.8-4.7-4-9.2-6.8-13.3
		c2.9-1.2,5.4-2.9,7.1-5.2c0,0-2-1.7-3.8-2.8l0,0c-1.3,1.7-3.4,3.2-6,4.2c-3.2-4.2-7.1-7.9-11.4-11.3l-0.1-0.1
		c-5.1-1-9.6-0.9-9.6-0.9c6.3,3.7,11.7,8.3,16.2,13.5c-14.2,2.7-36.2-1.2-45.5-3.2l-0.2-0.1c-2.7,2.1-4.3,3.8-4.3,3.8
		c6,1.4,35.4,7.8,53.1,3.4c2.7,3.9,5,8.1,6.7,12.6c-34.9,6.6-62.1,30.1-70,37.4c0,0,0.9,2.2,2.1,4.2l0.6-0.5
		c7.1-6.7,34.2-30.3,68.8-36.7c1.3,4.4,2.2,9,2.7,13.9c-21.3,7.8-41.5,40.6-44.5,45.7l-0.2,0.3c0,0,2.6,0.8,4.7,1.3
		c4.3-7,22.3-34.8,40.3-42.3c0.1,2.5,0,5.1-0.2,7.6c-0.7,9.8-3.1,20-7,30.2c0,0,3.7-2,6.3-4L125.7,166.9"/>
	<path id="path121285" class="st1" d="M99.2,43.6c0,1.7-0.6,2.3-2.3,2.3c-1.6,0-2.9,0-4.1,0c-1.2,0-4,0-4,0c-1.6,0-2.2-0.7-2.2-1.8
		v-1.1h4c0,0.5,0.2,0.6,0.7,0.6c0,0,2,0,1.7,0c-0.3,0,1.6,0,1.6,0c0.5,0,0.7-0.2,0.8-0.8c0,0,0-0.6,0-0.8c0-0.1,0-0.7,0-0.7
		c0-0.5-0.2-0.6-0.7-0.6h-5.8c-1.7,0-2.3-0.7-2.3-2.4l0-1.3c0-0.4,0-1.2,0-1.2c0-1.7,0.7-2.3,2.3-2.3c0,0,2.7,0,3.9,0
		c1.3,0,4.3,0,4.3,0c1.4,0,2,0.9,2,2v0.8h-3.8c0-0.5-0.1-0.6-0.6-0.6c0,0-1.2-0.1-1.9-0.1c-0.5,0-1.8,0.1-1.8,0.1
		c-0.5,0-0.6,0.1-0.7,0.6c0,0,0,0.5,0,0.7c0,0.2,0,0.5,0,0.5c0,0.5,0.3,0.7,0.8,0.7l5.8,0.1c1.7,0,2.3,0.7,2.3,2.4v1.3L99.2,43.6
		L99.2,43.6z"/>
	<path id="path121287" class="st1" d="M130.6,36.2c-0.3,0-0.5-0.3-0.5-0.4v-0.8V34c0-0.3,0.3-0.4,0.4-0.4h0h0.9
		c0.3,0,0.4-0.2,0.4-0.4v-4.5v0c0-0.5,0.2-0.7,0.6-0.7h1.3h1.4c0.5,0,0.6,0.2,0.6,0.7v4.5c0,0.2,0.2,0.4,0.4,0.4c0.2,0,1.3,0,1.3,0
		c0.5,0,0.7,0.2,0.7,0.6v0.5v0.7c0,0.5-0.2,0.6-0.7,0.6l-0.3,0c-0.5,0-1,0-1,0c-0.2,0-0.4,0.2-0.4,0.4c0,0-0.1,2.3-0.1,3
		c0,0.8,0.1,3.1,0.1,3.1c0,0.2,0.2,0.4,0.5,0.4h1.5c0.2,0,0.4,0.2,0.4,0.4v0.8v1.3c0,0.3-0.2,0.4-0.4,0.4h-1.4c-1,0-2.8,0-2.8,0
		c-0.9,0-1.7-0.6-1.7-1.7V41v-4.4c0-0.2-0.2-0.4-0.4-0.4L130.6,36.2L130.6,36.2z"/>
	<path id="path121289" class="st1" d="M152.6,43.6c0,1.7-0.7,2.3-2.3,2.3c-1.6,0-2.9,0-4.1,0c-1.2,0-4,0-4,0c-1.7,0-2.2-0.7-2.2-1.8
		v-1.1h3.9c0,0.5,0.2,0.6,0.7,0.6c0,0,2.1,0,1.7,0c-0.3,0,1.6,0,1.6,0c0.5,0,0.7-0.2,0.8-0.8c0,0,0-0.6,0-0.8c0-0.1,0-0.7,0-0.7
		c0-0.5-0.2-0.6-0.7-0.6h-5.8c-1.7,0-2.3-0.7-2.4-2.4l0-1.3c0-0.4,0-1.2,0-1.2c0-1.7,0.7-2.3,2.4-2.3c0,0,2.7,0,3.9,0
		c1.3,0,4.3,0,4.3,0c1.4,0,2,0.9,2,2v0.8h-3.8c0-0.5-0.1-0.6-0.6-0.6c0,0-1.2-0.1-1.9-0.1c-0.5,0-1.9,0.1-1.9,0.1
		c-0.5,0-0.6,0.1-0.7,0.6c0,0,0,0.5,0,0.7c0,0.2,0,0.5,0,0.5c0,0.5,0.3,0.7,0.8,0.7l5.9,0.1c1.7,0,2.3,0.7,2.3,2.4v1.3L152.6,43.6
		L152.6,43.6z"/>
	<path id="path121291" class="st1" d="M69.6,43.6c0,1.7-0.6,2.3-2.3,2.3c0,0-3.3,0-4.4,0c-1,0-4.2,0-4.2,0c-1.7,0-2.3-0.7-2.3-2.3
		v-15c0-0.5,0.2-0.6,0.7-0.6h1.3h1.4c0.5,0,0.7,0.2,0.7,0.6V33c0,0.5,0.2,0.6,0.6,0.6l6.3,0c1.7,0,2.3,0.6,2.3,2.3c0,0,0,2.5,0,3.6
		C69.6,40.6,69.6,43.6,69.6,43.6 M65.6,36.5c0-0.5-0.2-0.6-0.6-0.6c0,0-1.3,0-1.9,0c-0.5,0-2.1,0-2.1,0c-0.5,0-0.6,0.2-0.6,0.6
		c0,0,0,2.3,0,3c0,0.8,0,3.5,0,3.5c0,0.5,0.2,0.7,0.6,0.7c0,0,1.6,0,1.9,0c0.3,0,1.5,0,2.1,0c0.5,0,0.6-0.2,0.6-0.7c0,0,0-2.8,0-3.5
		c0-0.6,0-2,0-2.9V36.5L65.6,36.5z"/>
	<path id="path121293" class="st1" d="M84.4,37.2v4.2v2.7c0,1.1-0.5,1.8-2.2,1.8c0,0-2.9,0-4.1,0c-1.3,0-2.5,0-4.1,0
		c-1.7,0-2.3-0.6-2.3-2.3v-1.4v-1.3c0-1.7,0.7-2.3,2.3-2.4l5.8-0.1c0.5,0,0.7-0.2,0.8-0.7c0,0,0-0.3,0-0.5c0-0.2,0-0.6,0-0.6
		c0-0.5-0.1-0.6-0.6-0.6l-3.8,0c-0.5,0-4.4,0.1-4.4,0.1c0-1.2,0.6-2.4,2-2.4c0,0,3.1,0,4.3,0c1.2,0,3.9,0,3.9,0
		c1.7,0,2.3,0.6,2.3,2.3C84.4,36,84.4,36.8,84.4,37.2 M78.4,43.7L78.4,43.7c0.2,0,1.5,0,1.5,0c0.5,0,0.7-0.2,0.8-0.8
		c0,0,0-0.6,0-0.8c0-0.1,0-0.7,0-0.7c0-0.5-0.2-0.6-0.6-0.6h-3.7c-0.5,0-0.6,0.2-0.6,0.6c0,0,0,0.6,0,0.7c0,0.2,0,0.8,0,0.8
		c0,0.5,0.2,0.8,0.8,0.8l1.6,0L78.4,43.7L78.4,43.7z"/>
	<path id="path121295" class="st1" d="M109.7,34.2c0.5-0.5,1.4-0.5,1.5-0.5h1.1h1.4c0.4,0,0.5,0.5,0.3,0.7c-0.3,0.3-4.4,4.2-4.4,4.2
		c-0.1,0.2-0.1,0.3,0,0.5c0,0,4.9,6.1,5,6.3c0.1,0.2,0.1,0.4,0,0.5c-0.1,0.2-0.3,0.2-0.4,0.2l-1.5,0H112h-0.4c-0.1,0-0.9,0-1.5-0.6
		l-3-3.8c-0.2-0.2-0.5-0.3-0.8-0.1c-0.4,0.4-1,0.9-1,1c-0.1,0.1-0.1,0.2-0.1,0.3v2.5c0,0.5-0.2,0.6-0.6,0.6h-1.3H102
		c-0.5,0-0.7-0.2-0.7-0.6v-1.7v-2.5v-0.2V28.6c0-0.5,0.2-0.6,0.7-0.6h1.3h1.4c0.5,0,0.6,0.2,0.6,0.6V37v0.2c0,0.2,0.2,0.4,0.4,0.4
		c0.1,0,0.2,0,0.3-0.1L109.7,34.2L109.7,34.2z"/>
	<path id="path121297" class="st1" d="M128.6,39.9c0,0.9-0.4,1.1-1,1.1H120c-0.5,0-0.7,0.1-0.7,0.6v0.6v0.6c0,0.5,0.3,0.8,0.8,0.8
		l3.8,0c0.5,0,4.6,0,4.6,0c0,1.7-0.7,2.3-2.3,2.3c0,0-3,0-4.4,0c-1.1,0-4.1,0-4.1,0c-1.7,0-2.3-0.6-2.3-2.3c0,0,0-3.7,0-4
		c0-0.5,0-3.7,0-3.7c0-1.7,0.7-2.3,2.3-2.3c0,0,3,0,4.2,0c1.2,0,4.3,0,4.3,0c1.7,0,2.3,0.6,2.3,2.3c0,0,0,1.5,0,2c0-0.2,0-0.3,0,0
		c0,0.3,0,0.2,0,0C128.6,38.5,128.6,39.9,128.6,39.9 M122.1,35.9c-1,0-2,0-2,0c-0.5,0-0.7,0.1-0.7,0.6v0.8V38c0,0.5,0.2,0.7,0.7,0.7
		c0,0,1.8,0,2,0c0.7,0,1.5,0,2.2,0c0.5,0,0.6-0.2,0.7-0.7c0,0,0-0.4,0-0.6c0-0.4,0-0.9,0-0.9c0-0.5-0.1-0.5-0.7-0.5
		C124.3,35.9,123,35.9,122.1,35.9"/>
	<path id="path133949" class="st44" d="M69.1,11.6c0-0.7-0.2-0.9-0.9-0.9c0,0-1.8,0-2.6,0c-0.7,0-2.9,0-2.9,0
		c-0.7,0-0.9,0.2-0.9,0.9c0,0,0,3.2,0,4.2c0,1.1,0,4.9,0,4.9c0,0.7,0.2,0.9,0.9,0.9c0,0,2.1,0,2.6,0c0.4,0,2,0,2.9,0
		c0.7,0,0.9-0.2,0.9-0.9c0,0,0-4,0-4.9c0-0.8,0-2.8,0-4V11.6L69.1,11.6z M106.2,11.6c0-0.7-0.2-0.9-0.9-0.9c0,0-1.5,0-2.4,0
		c-0.8,0-2.6,0-2.6,0c-0.7,0-0.9,0.2-0.9,0.9c0,0,0,3,0,4.2c0,1.3,0,4.9,0,4.9c0,0.7,0.2,0.9,0.9,0.9c0,0,1.7,0,2.5,0
		c0.8,0,2.6,0,2.6,0c0.7,0,0.9-0.2,0.9-0.9c0,0,0-4.7,0-4.9c0-0.7,0-2.8,0-4V11.6L106.2,11.6z M143.5,10.7c-1.3,0-2.8,0-2.8,0
		c-0.7,0-0.9,0.2-0.9,0.9v1.1v0.9c0,0.7,0.2,0.9,0.9,0.9c0,0,2.5,0,2.8,0c1,0,2,0,3,0c0.7,0,0.9-0.2,0.9-0.9c0,0,0-0.5,0-0.9
		c0-0.5,0-1.1,0-1.1c0-0.7-0.2-0.9-0.9-0.9C146.6,10.7,144.8,10.7,143.5,10.7 M152.5,16.3c0,1.2-0.5,1.4-1.4,1.4
		c0,0-3.9,0.1-5.2,0.1c-1.9,0-5.2-0.1-5.2-0.1c-0.7,0-0.9,0.2-0.9,0.9v1v0.9c0,0.7,0.4,1.1,1.1,1.1c0,0,3.3,0,5.3,0
		c2.4,0,6.3-0.1,6.3-0.1c0,2.3-0.9,3.2-3.2,3.2c0,0-4.1,0-6,0c-1.6,0-5.6,0-5.6,0c-2.3,0-3.2-0.9-3.2-3.2c0,0,0-5.1,0-5.4
		c0-0.7,0-5.1,0-5.1c0-2.3,0.9-3.2,3.2-3.2c0,0,4.2-0.1,5.7-0.1c1.7,0,6,0.1,6,0.1c2.2,0,3.1,0.9,3.2,3.2c0,0,0,1.4,0,2.6
		C152.5,14.8,152.5,16.3,152.5,16.3L152.5,16.3L152.5,16.3z M74.5,21.4c0,2.3-0.9,3.2-3.2,3.2c0,0-4.5,0-6.1,0c-1.4,0-5.8,0-5.8,0
		c-2.3,0-3.2-0.9-3.2-3.2V0.9c0-0.7,0.3-0.9,0.9-0.9H59h1.9c0.7,0,0.9,0.2,0.9,0.9v5.9c0,0.7,0.2,0.9,0.9,0.9l8.6,0.1
		c2.3,0,3.2,0.9,3.2,3.2c0,0,0,3.4,0,4.9C74.6,17.3,74.5,21.4,74.5,21.4 M87.1,11.7l0-0.4c-0.1-0.5-0.3-0.6-0.9-0.6H85h-1.1
		c-0.7,0-0.9,0.2-0.9,0.9v12.1c0,0.7-0.2,0.9-0.9,0.9c0,0-1.4,0-1.9,0c-0.5,0-1.7,0-1.7,0c-0.7,0-0.9-0.2-0.9-0.9v-15
		c0-0.7,0.2-0.9,0.9-0.9c0,0,3.4-0.1,5.8-0.1c2.4,0,5.3,0.1,5.3,0.1c2.4,0,3,0.8,3,2.9v1.1h-3.1H87.1L87.1,11.7z M111.7,21.4
		c0,2.3-0.9,3.2-3.2,3.2c0,0-4,0-5.7,0c-1.8,0-5.7,0-5.7,0c-2.2,0-3.2-0.9-3.2-3.2c0,0,0-6.7,0-5.6c0,1.1,0-4.9,0-4.9
		c0-2.3,0.9-3.2,3.2-3.2c0,0,4.4-0.1,5.7-0.1c1.4,0,5.7,0.1,5.7,0.1c2.3,0,3.2,0.9,3.2,3.2c0,0,0,3.8,0,4.9
		C111.8,17.1,111.7,21.4,111.7,21.4 M131.9,21.4c0,2.3-0.9,3.2-3.2,3.2c-2.2,0-4,0-5.7,0c-1.7,0-5.5,0-5.5,0c-2.2,0-3-1-3-2.5v-1.5
		c0.4,0,1.4,0,2.5,0c1.2,0,2.5,0,2.9,0V21c0.1,0.6,0.4,0.7,1,0.7c0,0,1.7,0,2.3,0c0.4,0,2.2,0,2.2,0c0.7,0,1-0.3,1-1
		c0,0,0.1-0.9,0.1-1.1c0-0.2-0.1-1-0.1-1c0-0.7-0.2-0.9-0.9-0.9c0,0-2.9,0.1-4.4,0.1c-1,0-3.5-0.1-3.5-0.1c-2.3,0-3.2-0.9-3.2-3.2
		c0,0,0-1.6,0-1.8c0-0.5,0-1.7,0-1.7c0-2.4,0.9-3.2,3.2-3.2c0,0,3.7-0.1,5.4-0.1c1.7,0,5.9,0.1,5.9,0.1c1.9,0,2.8,1.2,2.8,2.8v1.2
		c-0.8,0-1.9,0-2.9,0c-1,0-1.9,0-2.3,0v-0.3c0-0.5-0.2-0.7-0.8-0.7c0,0-1.6-0.1-2.6-0.1c-0.7,0-2.5,0.1-2.5,0.1
		c-0.7,0-0.9,0.2-0.9,0.9c0,0-0.1,0.8-0.1,1.1c0,0.3,0.1,0.9,0.1,0.9c0,0.7,0.4,1,1,1c0,0,2.7,0,4.1,0s3.9,0,3.9,0
		c2.3,0,3.2,0.9,3.2,3.2v1.8L131.9,21.4L131.9,21.4z"/>
</g>
</svg>
