<?xml version="1.0" encoding="utf-8"?>
<!-- Generator: Adobe Illustrator 21.1.0, SVG Export Plug-In . SVG Version: 6.00 Build 0)  -->
<svg version="1.1"
	 id="Layer_1" xmlns:cc="http://creativecommons.org/ns#" xmlns:dc="http://purl.org/dc/elements/1.1/" xmlns:rdf="http://www.w3.org/1999/02/22-rdf-syntax-ns#"
	 xmlns="http://www.w3.org/2000/svg" xmlns:xlink="http://www.w3.org/1999/xlink" x="0px" y="0px" viewBox="0 0 200 200"
	 style="enable-background:new 0 0 200 200;" xml:space="preserve">
<style type="text/css">
	.st0{fill:#1D1160;}
	.st1{fill:#008CA8;}
	.st2{fill:#FFFFFF;}
	.st3{fill:#A0A0A3;}
</style>
<g>
	<path class="st0" d="M48.7,91.6H34.6V107l-8.5,4.2l8.5,4.4v13.7L44,135c3.5-0.5,7.9-1,13-1.5l36.4,21L100,185l6.7-30.5l36.3-21
		c5.1,0.5,9.6,1.1,13,1.5l9.4-5.8v-13.7l8.5-4.4l-8.5-4.3V91.6h-14.2c1.9-2.1,3.6-4.4,5-6.9c1.2-2,2.3-4.5,3.6-7.4
		c8.9-2.4,16.5-8.2,21.2-16.2c6.1-11.6,11.2-23.6,15.5-36c0,0-3.8,1.8-8.4,4.1c3.7-11.4,6-21.1,6-21.1s-40.8,27-72.6,52.3l-2.7-1.7
		l0.1-2.8c0,0,0.3-2.7-4.4-4.3l-0.8-0.3c2.3-1.7,5.9-4.4,8.5-6.2c4.2-2.9,3.7-6,3.7-6l-15.1,11.2c-6.9-2.3-14.4-2.3-21.4,0
		L74.2,39.3c0,0-0.5,3.1,3.7,6c2.6,1.8,6.2,4.4,8.5,6.2l-0.8,0.3c-4.7,1.6-4.4,4.3-4.4,4.3l0.1,2.8l-2.8,1.7
		C46.7,35.1,5.9,8.1,5.9,8.1s2.2,9.7,6,21.1c-4.9-2.4-8.4-4.1-8.4-4.1c4.3,12.4,9.4,24.4,15.5,36c4.7,8,12.3,13.8,21.2,16.2
		c0,0,1.7,4,3.3,6.9C44.9,86.8,46.7,89.3,48.7,91.6"/>
	<path class="st1" d="M117.1,68.5c-0.1,0.4-0.3,0.9-0.4,1.3c14.3-9.3,39.2-25.6,67.2-43.8c0,0,0,0.6,2.5-6.6
		C162.2,34.3,139.1,50.7,117.1,68.5"/>
	<path class="st1" d="M82.9,68.5c-22-17.8-45.1-34.2-69.3-49.1c2.5,7.2,2.5,6.6,2.5,6.6c28,18.2,52.9,34.4,67.2,43.8
		C83.2,69.4,83,69,82.9,68.5"/>
	<path class="st1" d="M100,83c-5.5-2.3-9.9-6.6-12.3-12c2.6,2.9,7,3.1,9.9,0.5c0,0,0.1-0.1,0.1-0.1c-3.8-1.6-4.2-8.4-5-10.1
		c-1-2.7-3-4.9-5.7-6.2c0.9-0.3,1.8-0.6,2.6-0.8c2.9,1.6,5,4.3,5.7,7.6c0.2-3-0.6-6-2.1-8.5c4.5-1.1,9.2-1.1,13.7,0
		c-1.6,2.6-2.3,5.5-2.1,8.5c0.7-3.2,2.7-6,5.7-7.6c0.8,0.3,1.7,0.5,2.6,0.8c-2.6,1.2-4.7,3.4-5.7,6.2c-0.7,1.8-1.2,8.5-5,10.1
		C103.4,75.4,102.5,79.7,100,83 M57,92.4c-4.8-3.7-8.5-8.6-11-14.2l2.8,0.8c9.1,2.4,26.6,4.8,26.6,4.8c-8.4,0.2-15.5,0.8-19.6,1.3
		c-0.9-1-1.6-2.2-2.2-3.4c0.2,1.8,0.5,3.5,1,5.2C55.2,88.9,56,90.7,57,92.4"/>
	<path class="st1" d="M145.3,87L145.3,87c0.5-1.7,0.9-3.4,1-5.2c-0.6,1.2-1.3,2.4-2.2,3.4c-4.1-0.4-11.2-1.1-19.6-1.3
		c0,0,17.5-2.4,26.6-4.8l2.8-0.8c-2.4,5.6-6.2,10.4-11,14.2C144,90.7,144.7,88.9,145.3,87"/>
	<path class="st1" d="M78.2,135.8l-17.8-10.3c-1.3,0.1-2.5,0.2-3.8,0.4l24.7,14.3C80.2,138.8,79.1,137.3,78.2,135.8"/>
	<path class="st1" d="M121.8,135.8l17.8-10.3c1.3,0.1,2.5,0.2,3.7,0.4l-24.7,14.3C119.8,138.8,120.9,137.3,121.8,135.8"/>
	<path class="st1" d="M92.1,138.2c-4.2-0.7-8.1-2.6-11.1-5.6c1.6,3.3,4,6.1,7,8.1C88,140.7,91.3,139.8,92.1,138.2"/>
	<path class="st1" d="M87.3,129.8c-0.6-0.5-1.1-1.1-1.7-1.7c-1.7,0.5-3.3,1.4-4.7,2.5c3.1,2.7,6.9,4.5,11,5.1
		C90.8,133.4,89.2,131.4,87.3,129.8"/>
	<path class="st1" d="M99.8,148.3c-1.8,0.1-3.5,0.5-5.1,1.3c-0.7-1.2-1.4-2.5-2.1-3.6c1.4,0.2,2.8,0.1,4.2-0.1
		c-2.3-0.8-4.5-1.9-6.5-3.2l0,0l0.8-0.4l0,0c0.9-0.4,1.7-1,2.3-1.7c0.8-0.8,1.3-1.9,1.3-3.1c0-3.9-2.6-5.2-5.6-8.1
		c-0.6-0.6-1.2-1.2-1.9-1.8c3.7-0.9,7.5-1.4,11.3-1.4l1.2,16.6h0.2l1.2-16.6c3.8,0,7.6,0.5,11.3,1.4c-0.6,0.6-1.3,1.2-1.9,1.8
		c-3,2.9-5.6,4.2-5.6,8.1c0,1.2,0.5,2.3,1.3,3.1c0.7,0.7,1.5,1.2,2.3,1.7l0,0l0.8,0.4l0,0c-2,1.4-4.2,2.5-6.5,3.2
		c1.4,0.3,2.8,0.3,4.2,0.1c-0.7,1.1-1.5,2.3-2.1,3.6c-1.6-0.8-3.3-1.2-5.1-1.3H99.8z"/>
	<path class="st1" d="M112,140.7c3-2.1,5.4-4.9,7-8.1c-3,3-6.9,4.9-11.1,5.6C108.7,139.8,112,140.7,112,140.7"/>
	<path class="st1" d="M108.1,135.7c4.1-0.6,7.9-2.4,11-5.1c-1.4-1.1-3-2-4.7-2.5c-0.6,0.6-1.1,1.1-1.7,1.7
		C110.8,131.4,109.2,133.4,108.1,135.7"/>
	<path class="st2" d="M94.7,71.8c-1.9-1.4-3.1-3.6-3.3-6C91.3,65.9,87.6,72.1,94.7,71.8"/>
	<path class="st2" d="M105.5,71.8c1.9-1.4,3.1-3.6,3.3-6C108.9,65.9,112.6,72.1,105.5,71.8"/>
	<path class="st2" d="M103.4,154.4c-0.9-0.9-2.3-1.3-3.6-1.2c-1.3-0.1-2.6,0.2-3.6,1.1l3.7,14.6L103.4,154.4z"/>
	<polygon class="st2" points="127.9,90 127.9,95.4 126.1,95.4 126.1,90 124.6,90 124.6,88.5 129.4,88.5 129.4,90 	"/>
	<polygon class="st2" points="119.5,90 119.5,95.4 117.7,95.4 117.7,90 116.2,90 116.2,88.5 121,88.5 121,90 	"/>
	<path class="st2" d="M94.2,92.9h0.7v-3.7l-0.8-0.7h-4.6v6.9h1.7v-2.4h1.3l1,2.4h1.7L94.2,92.9z M93.1,91.4h-1.9V90h1.9V91.4z"/>
	<polygon class="st2" points="138.3,90 138.3,88.5 133.2,88.5 133.2,95.4 138.3,95.4 138.3,93.8 135,93.8 135,92.7 138.3,92.7 
		138.3,91.1 135,91.1 135,90 	"/>
	<polygon class="st2" points="100.9,93.8 100.9,88.5 99.2,88.5 99.2,95.4 103.5,95.4 103.5,93.8 	"/>
	<path class="st2" d="M111.4,88.5h-4.6v6.1l0.8,0.8h4.6v-6.1L111.4,88.5z M110.5,93.8h-2V90h2V93.8z"/>
	<path class="st2" d="M85.4,95.4l0-6.1l-0.8-0.8H80v6.9h1.7v-2.2h2v2.2L85.4,95.4z M81.7,90h2v1.6h-2V90z"/>
	<polygon class="st2" points="74.5,88.5 74.5,91.6 72.5,91.6 72.5,88.5 70.8,88.5 70.8,95.4 72.5,95.4 72.5,93.1 74.5,93.1 
		74.5,95.4 76.2,95.4 76.2,88.5 	"/>
	<path class="st2" d="M178,39.5c3.4-7.9,5.9-13.5,5.9-13.5c-28,18.2-52.9,34.4-67.2,43.8c-0.5,1.4-1.1,2.8-1.8,4.2l56.3-30.7
		l-44,31.8l2-0.4l23.2-2.2c9.5-1.2,18.3-5.9,24.4-13.3c4.3-8,8-16.3,11.1-24.7L178,39.5z"/>
	<path class="st2" d="M43.4,113l5.4-2.3V123c1.6-0.2,3.2-0.4,4.8-0.6l0-27h-4.8l0,9.7l-5.4,2.3l0-12h-4.8v14l-3.9,1.9l3.9,2v11.3
		c1.5-0.3,3.2-0.5,4.8-0.8V113z"/>
	<path class="st2" d="M80.6,112.9c1.2,0,2.4-0.1,3.5-0.1c0.9,2.3,1.8,4.9,2.7,7.2c1.6,0,3.2-0.1,4.8-0.1c-0.9-2.3-1.8-4.9-2.6-7.1
		c0.6,0,1.2,0,1.8,0l0-11l-2.1-2.1H74l1.8,2.2v18.7c1.6-0.1,3.2-0.2,4.8-0.2V112.9z M80.6,104H86c0,1.3,0,3,0,4.2
		c-1.8,0-3.6,0.1-5.4,0.1L80.6,104z"/>
	<path class="st2" d="M99.2,104h5.5v15.9c1.6,0,3.4,0,5,0.1v-18.1l-2.2-2.2h-15l1.8,2.2l0,18.1c1.6,0,3.2,0,4.9,0L99.2,104z"/>
	<path class="st2" d="M127.5,116c-3.1-0.2-6.1-0.3-9.2-0.4c0-1.1,0-2.3,0-3.4c3.1,0.1,6.2,0.2,9.2,0.3v-4.8
		c-3.1-0.1-6.2-0.2-9.2-0.2c0-0.9,0-2.5,0-3.6h9.3v-4.4h-16l1.8,2.1V120c4.9,0.1,9.7,0.4,14.3,0.6V116z"/>
	<path class="st2" d="M139.5,104h4.1v-4.4h-13.5v4.4h4.2v17.2c1.7,0.1,3.5,0.3,5.2,0.4V104z"/>
	<path class="st2" d="M72.2,101.7l-2.2-2.2H55.4l1.7,2.1v17.8l1.9,2.3c4.2-0.4,8.7-0.8,13.2-1.1L72.2,101.7z M67.5,116.3
		c-1.8,0.1-3.6,0.2-5.5,0.4V104h5.5V116.3z"/>
	<path class="st2" d="M160.9,113.1c1.5-0.7,3-1.3,4.4-2c-4.8-2.2-9.5-4.2-14.3-6.1l0-5.4h5v2h4.8v-6.2h-16.4l1.8,2.1v11.2l9.8,4.3
		v6.2c0,0-2.3-0.3-5-0.6v-2l-4.8-0.6v6.4c5.2,0.6,10.1,1.3,14.6,2.1C160.9,121,160.9,115.7,160.9,113.1"/>
	<polygon class="st2" points="65.2,93.2 65.2,93.8 63.7,93.8 63.7,90 65.2,90 65.2,90.6 66.9,90.6 66.9,88.5 62,88.5 62,94.6 
		62.7,95.4 66.9,95.4 66.9,93.2 	"/>
	<path class="st2" d="M22,39.5c-3.4-7.9-5.9-13.5-5.9-13.5c28,18.2,52.9,34.4,67.2,43.8c0.5,1.4,1.1,2.8,1.8,4.2L28.9,43.3l44,31.8
		l-2-0.4l-23.2-2.2c-9.5-1.2-18.3-5.9-24.4-13.3c-4.3-8-8-16.3-11.1-24.7L22,39.5z"/>
	<path class="st3" d="M195.5,34.1c-3.8,10.1-8.2,19.9-13.4,29.3c-5,7.4-12.3,12.9-20.8,15.5c-1.5,3.7-3.5,7.3-5.8,10.6h11.9v16.2
		l11.3,5.4l-11.3,5.7l0,13.6l-11,6.7c0,0-8.8-1.1-13-1.5l-34.8,20.1c-7,31.5-8.6,40.7-8.6,40.7s-1.6-8.7-8.6-40.7l-34.8-20.1
		c-4.3,0.4-13,1.5-13,1.5l-11-6.7l0-13.6l-11.3-5.7l11.3-5.4V89.5h11.9c-2.3-3.3-4.2-6.9-5.8-10.6c-3.4-1.1-6.7-2.7-9.8-4.6
		c-4.5-2.7-8.2-6.5-11-10.9c-5.2-9.4-9.6-19.2-13.4-29.3C2.5,29,0,21.2,0,21.2s6.5,3.1,8.5,4.1C5.4,16,2.7,3.6,2.7,3.6
		S47.3,32.9,78.6,58l0.5-0.3c0-0.5,0-1,0-1.6c0-0.6,0.1-1.1,0.3-1.7c0.6-1.5,1.6-2.7,3-3.4c-2.3-1.7-6.4-4.5-6.8-4.9
		c-2.2-1.7-3.4-4.3-3.3-7l0.5-3.3l17,12.6c6.7-2,13.9-2,20.6,0l17-12.6l0.5,3.3c0.1,2.8-1.1,5.4-3.3,7c-0.4,0.4-4.5,3.3-6.8,4.9
		c1.4,0.8,2.4,2,3,3.4c0.2,0.5,0.3,1.1,0.3,1.7c0,0.5,0,1.1,0,1.6l0.5,0.3c32-25.6,75.9-54.4,75.9-54.4s-2.2,10.2-5.7,21.7
		c1.7-0.8,8.5-4.1,8.5-4.1C198.1,27.4,195.5,34.1,195.5,34.1 M48.7,91.6H34.6V107l-8.5,4.2l8.5,4.4v13.7L44,135
		c3.5-0.5,7.9-1,13-1.5l36.4,21L100,185l6.7-30.5l36.3-21c5.1,0.5,9.6,1.1,13,1.5l9.4-5.8v-13.7l8.5-4.4l-8.5-4.3V91.6h-14.2
		c1.9-2.1,3.6-4.4,5-6.9c1.2-2,2.3-4.5,3.6-7.4c8.9-2.4,16.5-8.2,21.2-16.2c6.1-11.6,11.2-23.6,15.5-36c0,0-3.8,1.8-8.4,4.1
		c3.7-11.4,6-21.1,6-21.1s-40.8,27-72.6,52.3l-2.7-1.7l0.1-2.8c0,0,0.3-2.7-4.4-4.3l-0.8-0.3c2.3-1.7,5.9-4.4,8.5-6.2
		c4.2-2.9,3.7-6,3.7-6l-15.1,11.2c-6.9-2.3-14.4-2.3-21.4,0L74.2,39.3c0,0-0.5,3.1,3.7,6c2.6,1.8,6.2,4.4,8.5,6.2l-0.8,0.3
		c-4.7,1.6-4.4,4.3-4.4,4.3l0.1,2.8l-2.8,1.7C46.7,35.1,5.9,8.1,5.9,8.1s2.2,9.7,6,21.1c-4.9-2.4-8.4-4.1-8.4-4.1
		c4.3,12.4,9.4,24.4,15.5,36c4.7,8,12.3,13.8,21.2,16.2c0,0,1.7,4,3.3,6.9C44.9,86.8,46.7,89.3,48.7,91.6"/>
</g>
</svg>
