<?xml version="1.0" encoding="utf-8"?>
<!-- Generator: Adobe Illustrator 21.1.0, SVG Export Plug-In . SVG Version: 6.00 Build 0)  -->
<svg version="1.1" id="Layer_1" xmlns="http://www.w3.org/2000/svg" xmlns:xlink="http://www.w3.org/1999/xlink" x="0px" y="0px"
	 viewBox="0 0 200 200" style="enable-background:new 0 0 200 200;" xml:space="preserve">
<style type="text/css">
	.st0{filter:url(#Adobe_OpacityMaskFilter);}
	.st1{fill:#FFFFFF;}
	.st2{mask:url(#mask-2);fill:#FEFEFE;}
	.st3{fill:#2D2925;}
	.st4{fill:#C21F32;}
	.st5{fill:#FEFEFE;}
</style>
<g>
	<defs>
		<filter id="Adobe_OpacityMaskFilter" filterUnits="userSpaceOnUse" x="0.6" y="0" width="198.8" height="200">
			<feColorMatrix  type="matrix" values="1 0 0 0 0  0 1 0 0 0  0 0 1 0 0  0 0 0 1 0"/>
		</filter>
	</defs>
	<mask maskUnits="userSpaceOnUse" x="0.6" y="0" width="198.8" height="200" id="mask-2">
		<g class="st0">
			<polygon id="path-1" class="st1" points="199.4,0 0.6,0 0.6,200 199.4,200 			"/>
		</g>
	</mask>
	<path id="Fill-1" class="st2" d="M183.6,98.5l-7.9-2.7c12.1-4.9,24.7-14.7,23.6-35.1c-0.8-14.2-7-26.5-10.7-33.9L175.2,0l2.7,28.9
		c0.8,9.1,0.5,21-2.9,27.5c-4.5,9.5-19.6,8.4-25,8.1c-9.5-0.6-40.6-1.7-50-1.7c-12.6,0.1-26.4,1.1-37.6,1.9
		c-5.3,0.4-10,0.7-13.1,0.9c-0.3,0-0.8,0.1-1.4,0.1c-19.7,1.8-23.1-7.4-24.2-10.4c-2-5.6-2-18.1-2-23.5L21.8,8L11.4,27.2
		C8.4,32.8,2.6,43.4,0.7,61.3c-1.3,25.1,14.5,32.5,19.7,34.9c0.7,0.3,1.4,0.6,2.1,0.9c-0.4,0.1-0.8,0.3-1.2,0.4
		c-3.4,1.2-6.9,2.8-8,3.3l-5.9,2.8l3.9,5.4c0.5,0.7,1.8,2.4,3.2,3.7c3.6,3.5,12.6,9.1,23.6,7.7c3.9-0.5,6.9-1.2,9.3-1.9
		c0.4,1.2,0.9,2.4,1.3,3.6c3.4,8.4,11.1,24.4,13.9,29.9c1.9,3.7,3.8,7,5.3,9.5l-0.1,0.1c-0.3,0.3-0.6,0.5-1,0.9l-1.3,1.6l-0.1,1.8
		c-0.1,1.7-0.5,17.3,10.3,28.9l0.9,0.9l1,0.4c5.1,1.9,11.6,3.9,22.2,3.9c10.9,0,20-2.6,23.5-4.4l1-0.5l0.7-0.8
		c7.3-8.6,10.5-21.3,10.7-26.6l0.1-0.1l-0.1-0.1l-0.1-2.1l-2-2.1c-0.4-0.4-0.8-0.7-1.1-1.2c0.8-1.5,1.7-3.4,2.7-5.5l0.2-0.4
		c0.6-1.2,1.1-2.3,1.4-2.9c2.8-5.4,10.9-22.9,14.2-31.2c0.7-1.7,1.3-3.2,1.7-4.3c2.3,0.7,5.4,1.4,9.3,1.8c11,1.1,21.4-5.7,25-10.6
		c0.2-0.3,0.5-0.6,0.6-0.8l5-5.8l-6.8-3.1C185.6,99.2,185.2,99.1,183.6,98.5"/>
	<path id="Fill-4" class="st3" d="M194.5,61c-0.8-13.2-6.7-25-10.2-32.1l-0.4-0.8l-1.5-3.1l0.3,3.4c0.4,4.7,1.5,20.9-3.3,30
		c-6,12.4-23.5,11.2-29.3,10.8l-0.4,0c-9.5-0.6-40.3-1.7-49.7-1.7c-12.5,0.1-26.2,1.1-37.3,1.9c-5.4,0.4-10.1,0.7-13.3,0.9
		c-0.3,0-0.6,0-1.1,0.1c-15.5,1.4-25.3-3.1-29.1-13.6c-2.3-6.4-2.3-19.1-2.3-25.2l0-1.8l0-2.6l-1.2,2.3c-2.9,5.4-8.3,15.4-10.2,32.1
		c-1,19.6,9.2,26.7,16.9,30.2c8.1,3.7,16.4,4.3,19.1,4.5l0.2,0l-0.1,0c0.6,0.1,1.2,0.1,1.9,0.2c0.8,0,1.7,0.1,2.7,0.3
		c-1.5,0.3-3.4,0.6-5.1,0.9c-1.8,0.3-3.5,0.6-4.4,0.8c-1.8,0.4-9.6,2.2-13.9,3.6c-3.6,1.2-7.4,3-7.5,3.1l-0.7,0.3l0.5,0.6
		c0.1,0.1,1.3,1.9,2.7,3.2c2.7,2.7,10.4,7.5,19.6,6.4c7.4-0.9,11.3-2.6,12.9-3.4c0.5,1.6,1.6,5.3,2.8,8.1c3.3,8.3,10.9,24,13.7,29.5
		c2.3,4.4,4.6,8.4,6.1,11l0.5,0.9c-0.5,1.7-1.7,2.8-2.6,3.5c-0.2,0.2-0.4,0.4-0.6,0.6l-0.2,0.2l0,0.2c-0.1,1.5-0.4,15.2,8.9,25.2
		l0.1,0.1l0.1,0.1c4.6,1.8,10.7,3.6,20.5,3.6c10,0,18.3-2.4,21.3-3.8l0.1-0.1l0.1-0.1c6.5-7.7,9.5-19.2,9.5-23.4v-0.3l-0.2-0.2
		c-0.2-0.2-0.3-0.3-0.5-0.5c-1-1-2.3-2.2-3-5c0.8-1.4,2.3-4.6,3.6-7.2c0.7-1.5,1.3-2.8,1.7-3.4c2.8-5.4,10.8-22.6,14-30.7
		c2-5.1,3.1-7.7,3.6-8.8c1.4,0.8,5.2,2.4,12.4,3.2c9.3,1,18.2-5.3,20.7-8.7c0.4-0.6,1.1-1.4,1.1-1.4l0.6-0.7l-0.8-0.4
		c-0.1,0-0.4-0.2-1.8-0.6l-5.2-1.7l-5.1-1.7c-1.4-0.5-7.7-1.8-12.3-2.8l-3.5-0.8l1.1-0.2C167.9,94,196.1,89,194.5,61"/>
	<path id="Fill-6" class="st4" d="M7.9,55.4c1.6-8,4.1-15.5,7.6-22.7l0-0.1h0.1h0.1v0.2v-0.2h0.2l0,0.2c-0.1,2.2-0.2,4.4-0.2,6.6
		c0,5.3,0.4,10.7,1.6,15.6l0.1,0.5L17,55c-1.5-1.4-3.1-3-4.7-4.3c-1.4,1.6-2.8,3.3-4.2,4.8l-0.4,0.4L7.9,55.4z"/>
	<path id="Fill-8" class="st4" d="M191.8,52.1l-0.1,0L191.8,52.1c-2.1-6.8-3.9-13.6-7.2-19.8l-0.3,0.1c0.1,2.2,0.2,4.3,0.2,6.4
		c0,5.2-0.4,10.3-1.2,15.2l0,0.3l0.3-0.1c1.6-0.8,3.2-1.9,4.9-2.6l4.1,2.9L191.8,52.1z"/>
	<path id="Fill-10" class="st4" d="M125.5,124.4l-0.3,0.1c-2.3,1-4.7,2-7.2,2.5c-1.6,0.4-3.3,0.6-4.9,0.6c-5.1,0-9.9-2.1-12.9-6.7
		l-0.1-0.1L100,121c-0.6,0.5-1,1.2-1.6,1.8c-3.2,3.7-7.8,5.1-12.6,5.1c-3.7,0-7.4-0.9-10.5-2.2l-0.3-0.1l0.1,0.3
		c2.4,6.3,3.9,13.4,3.9,20.4c0,3.2-0.3,6.3-0.9,9.5c-0.4,2.2-1.2,4.5-1.8,6.6l-0.1,0.3l0.3-0.2c6.8-3.6,15-5.4,23.2-5.4
		c7.8,0,15.5,1.6,22,4.9c1.1,0.4,2.1,1.2,3,1.5l0.3,0.1l-0.1-0.3c-1.9-5.6-3-11.5-3-17.7v-0.3c0-0.4,0-0.8,0-1.2
		c0-6.8,1.4-13.5,3.4-19.5L125.5,124.4z"/>
	<path id="Fill-12" class="st4" d="M59.5,131c-0.7-0.9-1.3-1.9-1.5-3l-0.1-0.3l0.3,0.2c1.2,0.8,2.5,1.1,3.9,1.1c2.8,0,5.8-1.4,8-2.9
		l0.1-0.1l0.1,0.1l0.1,0.1l-0.1,0.1l0.1-0.1l0,0l0,0.1c-0.3,2.9-1.3,6.2-4.4,7.3c-0.5,0.1-0.9,0.2-1.3,0.2
		C62.6,133.7,60.8,132.5,59.5,131"/>
	<path id="Fill-14" class="st4" d="M131.2,129.9c-0.7-1-1-2-1.2-3.2l-0.1-0.4l0.3,0.2c1.5,1.2,3.4,1.7,5.4,1.7
		c2.3,0,4.6-0.7,6.5-1.9l0.4-0.2l-0.1,0.4c-0.9,2.6-3.2,5.3-5.9,5.9c-0.2,0-0.5,0.1-0.7,0.1C133.9,132.5,132.2,131.5,131.2,129.9"/>
	<path id="Fill-16" class="st4" d="M134.7,133.7c0.4,0.1,0.7,0.1,1.1,0.1c1,0,2.1-0.3,3.1-0.6l0.3-0.1l-0.1,0.3
		c-3.8,9.5-8.4,18.6-13.1,27.7l-0.2,0.3l-0.1-0.3c-1-2.6-1.2-5.4-1.2-8.2c0-2.1,0.1-4.2,0.3-6.3c0.7-6.1,2.2-12,4-17.6l0.1-0.3
		l0.2,0.3C130.1,131.1,132.3,133.4,134.7,133.7"/>
	<path id="Fill-18" class="st4" d="M74.9,161.2c-5.7-8.7-10.1-17.9-14.2-27.3l-0.2-0.4l0.4,0.2c1.1,0.6,2.7,1.1,4.1,1.1
		c1,0,1.9-0.2,2.7-0.8c1.8-1.3,2.9-3.3,3.6-5.3l0.1-0.3l0.2,0.3c3.2,6.4,4.7,14.1,4.7,21.7c0,3.6-0.3,7.2-1,10.6l0,0l0,0l-0.2,0.2
		L74.9,161.2z"/>
	<path id="Fill-20" class="st4" d="M79.9,190.4L79.9,190.4L79.9,190.4c-5.9-6.4-8.1-14.6-8.4-23.3V167l0.1,0
		c7.7-5.6,17.9-8.5,28-8.5c6.6,0,13.2,1.3,18.9,3.9c3.7,1.6,7.2,3.4,10.4,6l-0.1,0.1l0.1-0.1l0.1,0.1l0,0.1
		c-1,8.2-3.9,15.5-9.1,21.8l0,0l0,0c-6.1,2.4-13.4,3.7-20.6,3.7C92.5,194,85.7,192.8,79.9,190.4"/>
	<path id="Fill-22" class="st4" d="M182.3,104.5c0,0-3.6-1.4-4.5-1.7c-9.9-3.7-22.6-6-33.3-6.2c-1-12-2.4-19.5-4.8-26.3l0-0.1
		l-0.1,0c-5.6-0.3-30.2-1.3-39.7-1.3c-9.5,0-33.7,1.5-39.3,1.8l-0.1,0l0,0.1c-2.2,6.5-4.8,14.5-6,26.4c-10.9,0.7-25.6,3.8-35.4,7.5
		c-0.7,0.3-1.2,0.5-1.6,0.7c-0.2,0.1-0.3,0.2-0.4,0.2c0,0,0,0-0.1,0l-0.3-0.3l0.1,0.5c0,0,0,0.1,0,0.1c1.5,1.7,7.1,8.4,17.4,8.6
		c0.2,0,0.3,0,0.5,0c3.4,0,9.1-0.7,12.9-2.3c0.9-0.4,2.7-1.2,3.2-1.4c0.2,0.3,0.7,1.4,1,2.2c1.1,3.1,2.4,7.5,3.4,9.4
		c1.4,2.9,3.8,5.2,7.6,5.3h0.1c3.4,0,5.8-2.7,6.2-3.3l0.2-0.2l-0.3,0c-9.5-0.5-13.4-5.5-14.1-13.2l0-0.1l-0.1,0
		c-1.1-0.2-1.8-0.4-2.3-0.6c-0.4-0.2-0.6-0.5-0.8-1.1c-0.1-0.3-0.1-0.5-0.1-0.8c0-0.9,0.4-2,1.1-3.1c0.7-1,1.8-2,4-2
		c0.9,0,2,0.2,3.3,0.6c3,0.9,5.4,2.9,7,4.3c2,1.7,7.7,7.7,11.2,9.8c2.1,1.2,5.2,2.4,8.3,2.4c2.5,0,5.1-0.7,7.2-2.8
		c4.4-4.4,5-8.1,5.6-10.4l0-0.2l-0.2,0c-7.7-0.2-14.9-1-21.6-1.9c-0.8-0.1-1-0.4-1-0.7c0-0.3,0.4-0.7,1-0.7c0.1,0,0.2,0,0.4,0
		c0,0,12.6,1.7,21.5,1.7h0.1l0-0.1c0.1-1,0.1-2.8,0.1-4.9l0-0.2l-0.2,0c-5.2-0.1-14-0.7-22.4-2.3c-0.7-0.1-1-0.6-1-0.9
		c0-0.4,0.2-0.7,0.8-0.7c0.1,0,0.2,0,0.4,0.1c1.2,0.3,14.8,2.2,22.2,2.2h0.1l0.2,0v-0.1c0-1.6,0-3.8,0.1-5.9v-0.1h-0.2h-0.5
		c-4.8,0-11.7-0.5-21.5-2c-0.8-0.1-1.1-0.5-1.1-0.8c0-0.3,0.3-0.6,0.9-0.6c0.1,0,0.1,0,0.2,0c0,0,12,1.8,21.4,1.8c0.2,0,0.4,0,0.6,0
		h0.1v-0.1c0-1.4,0-3.1,0-4.8v0c0-0.9,0.4-1.3,0.7-1.3c0.3,0,0.6,0.3,0.6,1.2c0,0.6,0,2.5,0,4.8v0.1v0.2l0.2,0c9-0.3,17-1.3,20.7-2
		c0.2,0,0.4-0.1,0.6-0.1c0.7,0,0.9,0.3,0.9,0.6c0,0.3-0.3,0.6-0.6,0.7c-1.2,0.2-11.7,2.2-21.7,2.5h-0.1l0,0.1c0,1.8,0.1,4,0.1,5.9
		l0,0.2l0.1,0c6.7-0.2,14.5-0.5,21.1-2c0.3-0.1,0.6-0.1,0.8-0.1c0.8,0,1.1,0.3,1.1,0.6c0,0.3-0.4,0.8-1.3,0.9
		c-6.5,1.1-16,2.2-21.6,2.3h-0.2l0,0.2c0,1.6,0.1,3.6,0.1,4.9l0,0.1h0.1c10.7-0.3,20.8-1.8,22.5-2.1c0.1,0,0.2,0,0.4,0
		c0.7,0,1,0.4,1,0.7c0,0.3-0.3,0.7-1.1,0.9c-1.9,0.3-14.4,1.9-22.5,2.1l-0.2,0l0.1,0.2c0.8,2.7,0.9,6.7,4.9,10.1
		c1.9,1.7,4.5,2.4,7.2,2.4c2.6,0,5.4-0.7,7.6-2c3.5-2,9.1-8.1,11.1-9.9c1.6-1.4,5.4-4.9,10.4-4.9c0.1,0,0.1,0,0.2,0
		c2.6,0.1,3.8,0.7,4.5,1.5c0.7,0.7,0.7,1.6,0.9,2c0.1,0.3,0.2,0.7,0.2,1.2c0,0.6-0.2,1.2-0.8,1.6c-0.9,0.5-1.7,0.4-2.6,0.8l-0.1,0
		l0,0.1c-0.7,4.2-2,8.9-5.3,11.4c-1.8,1.3-4.1,2.1-5.9,2.5c-1.8,0.4-3.2,0.5-3.2,0.5l-0.3,0l0.2,0.2c0,0,0.8,0.9,1,1.1
		c0.6,0.5,2.2,1.3,4.4,1.4c0.2,0,0.5,0,0.7,0c2.4-0.2,5.1-2,6.2-3.2c1.8-2.3,3.4-7,4.6-10.1c0.4-1.1,1.4-3,1.8-3.9
		c1,0.5,1.5,0.8,3.4,1.5c3.9,1.5,8.8,2.2,12,2.2c0.2,0,0.4,0,0.5,0c5.4-0.1,11.4-3.4,15.1-6.8c0.6-0.6,1.8-2.1,1.8-2.1l0.1-0.2
		L182.3,104.5z"/>
	<path id="Fill-24" class="st3" d="M105.5,170.5c-0.6,1-0.8,2-0.8,3.2c0,1.8,0.7,3.6,1.7,5c0.1,0.1,0.1,0.1,0.3,0.1
		c0.1,0,0.2-0.1,0.3-0.2v-0.1c0-1.1-0.7-2-0.7-3.2c0-0.3,0-0.6,0.1-0.9l0.1-0.3l0.2,0.3c1,1.7,2.7,2.8,4.5,3.4
		c0.7,0.2,1.4,0.3,2,0.3c2.3,0,4.5-1.1,6.1-3c0.7-1,1.3-2.3,1.3-3.6c0-0.6-0.1-1.2-0.4-1.8c-1.1-2.2-3.4-3.4-5.6-3.8
		c-0.4,0-0.8-0.1-1.2-0.1C110.2,166,107.1,167.4,105.5,170.5"/>
	<path id="Fill-26" class="st3" d="M92.7,179.5c0.2,0,0.4-0.2,0.6-0.5c0.9-1.3,1.4-3.1,1.4-4.8c0-1.1-0.3-2.2-0.8-3.2l0.1-0.1
		l-0.1,0.1c-0.9-1.7-2.7-3.1-4.5-3.7c-1-0.3-2.1-0.5-3.1-0.5c-2.5,0-5,1-6.5,3c-0.6,0.8-0.9,1.8-0.9,2.8c0,0.5,0.1,1,0.3,1.5
		c0.8,2.3,3,4.1,5.3,4.6c0.5,0.1,1,0.1,1.5,0.1c2.7,0,5.1-1.3,6.8-3.6l0.2-0.2l0.1,0.3c0.1,0.2,0.1,0.4,0.1,0.6c0,0.5-0.1,1-0.2,1.3
		c-0.1,0.7-0.6,1.2-0.6,1.7c0,0.2,0,0.3,0.2,0.5C92.6,179.4,92.7,179.5,92.7,179.5"/>
	<path id="Fill-28" class="st3" d="M80.5,188.3c5.9-2.5,12.9-3.9,19.9-3.9c5.3,0,10.5,0.8,15.2,2.6c1.2,0.5,2.4,0.9,3.6,1.3
		c0.3-0.4,0.4-0.5,0.6-0.8c-5.7-2.8-12.5-4.1-19.3-4.1c-7.2,0-14.5,1.5-20.6,4.2C80.2,187.9,80.3,188.1,80.5,188.3"/>
	<path id="Fill-30" class="st3" d="M85.7,144.9c3.5,4.4,8.8,6.3,14.1,6.3c2,0,4-0.3,5.9-0.8c9-2.5,14.4-12.2,16.2-20.8
		c-0.3-0.2-0.5-0.3-0.8-0.4c-1.1,5-3.3,10-6.4,14.1c-3.8,4.6-9.4,7-14.9,7c-2,0-3.9-0.3-5.8-0.9c-8.2-2.6-12.5-11.5-13.3-19.7
		c-0.3,0-0.6,0-0.8,0.2C80.4,135.6,82.1,140.6,85.7,144.9"/>
	<path id="Fill-32" class="st5" d="M19,60.5c4.7,9.1,14.2,12,23.8,11.5c5.4,0,10.6-0.6,15.9-0.9l0,0.4c-2.7,7.6-4.5,15.4-5.6,23.4
		c-14,0.5-28.3-0.6-38.6-9.9c-7-7.1-8.8-16.8-7.2-26.5c1.7-2,3.4-3.6,5.1-5.6C14.7,55.3,18.4,57.2,19,60.5"/>
	<path id="Fill-34" class="st5" d="M192.5,56.4c0.4,1.4,0.4,2.7,0.6,4.2c0.7,10.7-4,20.6-13.1,26.1c-10,6-21.6,8.1-33.9,8.4
		c-0.2-1.1-0.3-2.5-0.5-3.7c-1-7.1-2.3-14.2-4.3-21c13.2-0.1,29.2,3.3,37.9-8.8c1.2-1.7,2.3-3.2,3.3-5.1c1.9-0.9,3.8-2.1,5.7-3.1
		C189.7,54.3,190.9,55.6,192.5,56.4"/>
	<path id="Fill-36" class="st5" d="M142.5,110.8c0.1,4.1-1.3,8.4-4.9,10.3c-1.7,0.9-3.7,1.3-5.7,1.2c-0.1-0.4-0.2-0.8-0.1-1.2
		c3,0.1,5.9-1,7.5-3.5c1.1-1.8,1.5-3.9,1.5-6.2C141.4,111.1,141.9,110.9,142.5,110.8"/>
	<path id="Fill-38" class="st5" d="M68.2,121.9c-0.5,0.1-0.8,0.2-1.8,0c-4.8,0-9.9-3.9-9.6-10.5c0.6-0.2,1.2-0.1,1.8,0.1
		c0,3.7,1.5,8.8,9.4,8.8C68.6,121.3,68.1,121.3,68.2,121.9"/>
</g>
</svg>
