<?xml version="1.0" encoding="utf-8"?>
<!-- Generator: Adobe Illustrator 21.1.0, SVG Export Plug-In . SVG Version: 6.00 Build 0)  -->
<svg version="1.1" id="Layer_1" xmlns="http://www.w3.org/2000/svg" xmlns:xlink="http://www.w3.org/1999/xlink" x="0px" y="0px"
	 viewBox="0 0 200 200" style="enable-background:new 0 0 200 200;" xml:space="preserve">
<style type="text/css">
	.st0{fill:#FEFEFE;}
	.st1{fill:#FCB61A;}
	.st2{fill:#000840;}
	.st3{fill:#690031;}
</style>
<g>
	<path class="st0" d="M148.6,73.5c-8.7-8.3-21.7-10.3-38.6-5.9l0-33.1l0-1c0-4.7,0-9.1-0.3-13.2c-0.5-5.4-1.6-9.6-3.3-13.2L102.8,0
		l-3.3,7.2c-1.8,3.9-2.9,8.3-3.4,13.7c-0.4,4.3-0.4,8.8-0.5,13.6l-0.3,38.1C80,78.9,66.3,88,59.2,93.9l-9.9,15.2l9.8-2.4
		c-13.5,18.5-8.4,30.7-7.6,32.3c1.8,5,5.9,8.9,12.1,11.3c4,1.6,8.8,2.2,14.8,1.9c4.9-0.2,10.4-1.2,16.3-3l0,0.4
		c-5,2.9-9.1,7.9-11.3,13.7c-0.9,2.4-1.4,5-1.6,7.6l0,0.3c0,0.6,0,1.8-0.1,3.3c-0.2,2.2-0.5,4.2-1.1,6.1l-0.3,1.2l-1.4,3.4l0.1,0.3
		c0.1,0.3,0.3,0.6,0.6,0.8c0.4,0.2,1.1,0.6,6.2-1.3c0.4-0.1,0.8-0.3,1.3-0.6c1.1-0.6,2.4-1.6,3.6-2.8c0.8-0.7,1.5-1.6,2.3-2.7
		c0.4-0.5,0.8-1.1,1.1-1.6l0.5-0.8c0,0,0.1-0.1,0.1-0.1l0.1,11.7c-0.3,0.4-0.5,0.8-0.7,1.2c-0.7,1.4-2.7,6-2.9,8.8
		c0,0.4,0.1,0.8,0.4,1.1c0.4,0.5,1.1,0.6,2.4,0.6c0.7,0,1.6,0,2.7-0.1l0.2,0c0.4,0,0.8-0.1,1.4-0.1c0.9-0.1,2.6-0.4,4.6-1
		c3.7-1.1,8.2-3.5,8.9-8.5l0.3-2.1c6.2-5.9,7.3-12.1,7.1-16.3c-0.1-1-0.2-2.1-0.4-3.1l4.3,0.8l0.6-3.7c0.8-4.7-0.1-9-2.6-12.5
		c-2.4-3.4-6.2-5.6-11-6.5v-3.6c9.5-4.6,18.8-10.7,26.2-17.1l0.6-0.5l3.5-17.5l-7.7,4.3c-7.3,3.2-14.9,6.2-22.5,9l0-31.4
		c1.6-0.9,3.2-1.7,4.6-2.3c3.7-1.5,5.9-2.2,7.2-2.4c-0.4,0.9-0.8,1.8-1.3,2.8c-2.1,4.2-7.6,15-7.9,15.5l-0.4,0.8l0.6,0.6
		c0.6,0.6,0.6,0.6,7-3c3.4-1.9,7.9-4.6,12.4-7.2c9-5.2,18-10.5,18-10.5l0.5-0.3v-8.3L148.6,73.5z M97.2,108.2l0,2.5L97,128.1
		l-0.8,0.2c-6.9,2.1-11.5,3.1-15,3.1c-1.2,0-2.3-0.1-3.3-0.4l-0.6-0.2c-1.4-0.6-1.8-1.8-1.8-2.5c-0.2-7.3,12.3-22.4,17.2-27.6
		c0.9-1,1.9-1.9,2.8-2.8l1.9-1.8L97.2,108.2L97.2,108.2z"/>
	<path class="st0" d="M122.4,89.1c-0.2,0.4-4,7.9-6.3,12.4c6.4-3.6,21.4-12.4,32.4-18.8v-6.2L147,75c-8.3-7.9-21.1-9.6-37.9-5
		l-1.4,0.4l0-36.9c0-4.6,0-9-0.3-13c-0.5-5.1-1.5-9-3.1-12.4l-1.4-2.9l-1.4,3c-1.7,3.7-2.7,7.8-3.2,13c-0.4,4.2-0.4,8.7-0.5,13.4
		l0,0.7L97.5,74l-0.7,0.3c-15.3,6.3-29,15.3-36.1,21.2l-6.6,10.2l10.6-2.6l-2,2.5c-15.2,19.1-9.9,31.2-9.2,32.6l0,0.1
		c1.6,4.5,5.2,7.8,10.8,10.1c3.7,1.5,8.2,2.1,13.9,1.8c5.1-0.2,10.9-1.4,17.1-3.3l1.4-0.5l0,4.7l-0.6,0.3
		c-4.8,2.6-8.8,7.3-10.8,12.9c-0.8,2.2-1.3,4.6-1.4,6.9l0,0.2c0,0.6,0,1.9-0.1,3.5c-0.2,2.4-0.6,4.5-1.1,6.5l-0.4,1.4l-0.6,1.5
		c0.8-0.2,2-0.6,3.3-1.1c0.3-0.1,0.6-0.2,0.9-0.4c1-0.6,2.1-1.4,3.2-2.5c0.7-0.6,1.3-1.4,2.1-2.5c0.4-0.5,0.8-1,1.1-1.5l0.6-0.8
		c0.4-0.6,0.8-1.1,1.2-1.7c0.3-0.4,0.6-0.8,0.8-1.2l2-2.8L97,189l-0.2,0.3c-0.3,0.4-0.6,0.9-0.8,1.3c-0.6,1.2-2.1,4.8-2.6,7.2
		c0.7,0,2,0,3.1-0.1l0.1,0c0.3,0,0.7-0.1,1.3-0.1c0.8-0.1,2.4-0.4,4.2-0.9c3.1-1,6.9-2.9,7.4-6.7l0.1-1l-1.1-0.7l1.1-0.9
		c6.3-5.5,7.4-11.4,7.2-15.3c-0.1-1.4-0.3-2.8-0.7-4.3l-0.5-1.7l5.5,0.9l0.3-1.5c0.7-4.1,0-7.9-2.2-10.8c-2.2-3.1-5.9-5.1-10.5-5.7
		l-0.9-0.1v-6.8l0.6-0.3c9.5-4.5,18.9-10.6,26.3-17.1l0.1-0.1l2.4-12.2l-3.7,2.1c-7.9,3.5-16.1,6.7-24.2,9.7l-1.5,0.5l0-35.8
		l0.5-0.3c1.9-1.1,3.7-2,5.4-2.8c4.7-2,8-2.9,9.8-2.7l1.3,0.1l-0.4,1.3C124,85.7,123.3,87.3,122.4,89.1z M94.8,126.5
		c-8.4,2.5-13.2,3.2-16.4,2.5l-0.4-0.1c-0.3-0.2-0.4-0.4-0.4-0.5c-0.1-5.6,9.6-18.6,16.6-26.1h0c0.3-0.3,0.5-0.6,0.8-0.8L94.8,126.5
		z"/>
	<path id="Fill-5" class="st1" d="M93.5,101.6c0.8-0.9,1.8-1.8,2.7-2.7l-0.1,11.8l0,0l-0.2,16.7c-9.8,3-14.5,3.5-17.8,2.7l-0.4-0.1
		c-0.9-0.4-1.1-1.2-1.1-1.5C76.4,121.9,87.8,107.7,93.5,101.6 M113.5,104.1c-0.2,0.3,36.1-20.8,36.1-20.8v-7.2l-1.8-1.8
		c-9.7-9.3-24.2-9.3-38.9-5.3l0-34.5c0-5,0.1-9.7-0.3-14.1c-0.4-4.5-1.3-8.9-3.2-12.8l-2.5-5l-2.3,5.1c-1.9,4.3-2.9,8.7-3.3,13.3
		c-0.4,4.5-0.4,9.2-0.5,14.2l-0.3,38.1c-15.2,6.2-29.1,15.3-36.5,21.5l-8.2,12.6l10.2-2.5c-15.6,19.6-10,32.4-9.4,33.7
		c1.6,4.6,5.4,8.3,11.5,10.7c4.6,1.8,9.8,2.1,14.3,1.9c5.6-0.3,11.5-1.5,17.4-3.4l0,2.5c-5.1,2.8-9.2,7.6-11.3,13.4
		c-0.8,2.3-1.4,4.7-1.5,7.2c0,0.4,0,1.8-0.1,3.7c-0.1,1.8-0.4,4-1.1,6.3l-0.4,1.3l-1.3,3.1c0.1,0.5,3.8-0.7,5.4-1.3
		c0.2-0.1,0.6-0.2,1.1-0.5c0.9-0.5,2-1.3,3.4-2.6c0.8-0.8,1.6-1.7,2.2-2.6c0.6-0.8,1.2-1.6,1.7-2.3c0.7-1,1.4-2,2-2.9l0,8.4l0,5.6
		l0,1.5c-0.3,0.4-0.6,0.8-0.9,1.4c-0.7,1.4-2.6,5.9-2.8,8.4c-0.1,0.6,1.7,0.5,4.3,0.4c0.4,0,0.9-0.1,1.5-0.2c1.2-0.2,2.8-0.5,4.4-1
		c2.9-0.9,7.5-3,8.2-7.6l0.2-1.7l-0.5-0.3c6.2-5.4,7.9-11.3,7.6-16.2c-0.1-1.7-0.4-3.2-0.8-4.5l2.2,0.4l2.6,0.5l0.5-2.6
		c1.5-8.9-3.5-16.4-13.6-17.8v-5.2c9.9-4.7,19.2-10.9,26.6-17.2l0.3-0.3l3-14.9l-5.8,3.2c-9.3,4.1-17.7,7.3-24.1,9.6l0-33.6
		c1.8-1.1,3.6-2,5.3-2.7c4.7-2,7.8-2.8,9.2-2.6c-0.4,1.2-1,2.7-2,4.6C121.4,88.6,113.9,103.5,113.5,104.1"/>
	<path id="Fill-7" class="st2" d="M147.5,82.1l-0.1-4.7L123.7,92c-0.2,0.4-3.3,6.4-3.6,6.7L147.5,82.1z"/>
	<path id="Fill-9" class="st2" d="M58.2,103.3c2.6-0.6,5.5-1.4,8.4-2.1c1.7-1.9,3.3-3.7,4.7-5.1c-3,0.7-6.2,1.4-9.5,2.2
		C61.2,99.1,58.5,102.8,58.2,103.3"/>
	<path id="Fill-11" class="st2" d="M106.5,136.7c-1.2,0.6-2.5,1.2-3.7,1.7c-0.8,0.3-1.6,0.7-2.4,1c-0.5,0.2-1.1,0.4-1.6,0.6
		c-7.5,2.9-15.1,4.8-22.2,5.2c-4.3,0.2-9.1-0.1-13.2-1.7c-3.8-1.5-6.4-3.5-8.1-5.7c1.3,3.8,4.4,7,10,9.2c4.1,1.6,8.9,1.9,13.2,1.7
		c6.5-0.3,13.4-1.9,20.2-4.4c0.6-0.2,1.1-0.4,1.7-0.6c0.8-0.3,1.6-0.6,2.4-1c1.3-0.5,2.5-1.1,3.7-1.6c10.2-4.7,19.9-11,27.5-17.6
		l1.4-6.5C127.8,124.2,117.5,131.4,106.5,136.7"/>
	<path id="Fill-13" class="st2" d="M118.2,163c-8.9-2.4-19.2-0.2-23.9,5.5c-1.9,2.3-3.7,5.8-7.1,9.4c0.7-4.3,0.7-5.7,0.8-7.2
		c0.6-6.8,4.1-12.6,11.2-16c0,0.3,0.1,0.5,0.2,0.8c0.3,0.5,0.8,0.8,1.5,1c0.7,0.1-0.4-0.2,0,0c0.1,0,0.2,0,0.3,0.1c0,0,0,0,0.1,0
		c0.1,0,0.2,0,0.3,0c0,0,0.1,0,0.1,0c0.1,0,0.2,0,0.3,0h0.1c0.1,0,0.2,0,0.4,0c0.1,0,0.2,0,0.3,0c0,0,0,0,0.1,0c0.1,0,0.2,0,0.3-0.1
		h0c0.2-0.1,0.4-0.1,0.6-0.2c0.8-0.3,1.4-0.7,1.6-1.2v0c0.1-0.1,0.1-0.2,0.2-0.3c2.6,0.5,4.8,1.9,5.8,3.4
		c-4.6-0.2-11.3,1.3-16.8,7.7c7.6-6,16.3-6.1,21.9-4.6c0.2-3.4-4.4-6.9-6.9-8.3C114.2,154.3,119.1,158.3,118.2,163L118.2,163z
		 M110.9,181.7c2.3-4.9,3-13.6-2.4-17.4l1.8,0C115.8,168.6,113.4,179.8,110.9,181.7L110.9,181.7z M104.8,186.3
		c4.9-11.9,1.3-20.7,1.4-20.9C112.3,166.3,114.3,179.6,104.8,186.3L104.8,186.3z M102.2,188.7c0,0.9-2,0.9-2,0.2l0.1-22.8
		c0.2-0.2,1.6-0.8,2.1-0.9L102.2,188.7z M106.5,150.3V144c-1.2,0.6-2.5,1.1-3.7,1.6l0,6.5c0,1.6-2.5,1.8-2.4,0.7l0-6.3
		c-0.6,0.2-1.1,0.4-1.7,0.6l0,4.9l-0.3,0.2c-4.9,2.3-9.1,6.9-11.1,12.4c0,0.1-0.1,0.1-0.1,0.2c-0.7,2-1.2,4.2-1.3,6.4
		c-0.1,0.8,0.1,5.7-1.3,10.6c0,0,1.3-0.2,3.8-2.6c1.4-1.3,2.6-3.2,3.6-4.6c2.3-3.1,4.1-6.3,6.8-7.7l0,2.8c0,5.3,0.1,19.9,0.1,19.9
		c0,0.1-2.3,2.5-2.6,6.6c0,0.2,11.2-0.6,12-6.5c0,0-2.2-1.4-2.1-1.5c15.8-11,7-24.2,7-24.2c3.8,0.5,6,0.9,7,1.1
		C121.5,157.4,116.7,150.8,106.5,150.3L106.5,150.3z"/>
	<path id="Fill-15" class="st3" d="M106.5,126.9c-1.4,0.5-2.6,0.9-3.7,1.3c-0.9,0.3-1.7,0.6-2.3,0.8c-0.7,0.2-1.2,0.4-1.6,0.5
		c-0.6,0.2-0.9,0.3-0.9,0.3c-41.7,13-28.4-14.1-9.3-34.4c1.3-1.4,4.2-4.1,7.6-6.9l0.1-12c-14,5.9-27,14.3-34.4,20.4
		c4.8-1.3,9.6-2.4,14.4-3.5C35,133,59,154,98.7,138.1c0.5-0.2,1.1-0.5,1.6-0.7c0.8-0.3,1.6-0.7,2.4-1c1.2-0.6,2.5-1.2,3.7-1.8
		c8.9-4.4,18.3-10.5,27.9-18.6C123.1,120.9,113.1,124.6,106.5,126.9"/>
	<path id="Fill-17" class="st3" d="M146.2,76.4c-9.1-8.6-23.1-8.5-37.4-4.4v8.4c11-5.3,23.7-7,15.2,9.6L146.2,76.4z"/>
	<path id="Fill-19" class="st2" d="M111.5,80.9c-0.8,0.4-1.7,0.8-2.6,1.3v4.5c1.6-0.9,3.1-1.7,4.5-2.3c4.9-2.1,9.1-3.4,11.5-2.6
		C125.2,76.3,119.3,77.6,111.5,80.9"/>
	<path id="Fill-21" class="st2" d="M96.3,90.6c-2.4,1.9-4.6,4-6.4,5.9c-5.4,5.8-17.8,20.8-17.6,28.7c0,2.1,0.8,3.5,2,4.5
		c0-0.3-0.1-0.6-0.1-1c-0.2-7.9,12.2-22.9,17.6-28.7c1.3-1.4,2.8-2.9,4.4-4.3L96.3,90.6z"/>
	<path id="Fill-23" class="st2" d="M103.2,8.9c-3.6,7.8-3.5,16.7-3.6,26.4L99.4,66l-0.3,33.2h0l-0.1,9.5v0l-0.2,18.1
		c0.4-0.1,1-0.3,1.6-0.5l0.1-18.8v0l0.1-15.2l0-4.9l0-2l0.1-10.4l0.2-26.7l0.1-20.7c0.4,0.7,1.8,3.6,2,13.8L102.9,74l0,9.7l0,1.9
		l0,4.8l0,15v0l0,0l0,19.9c1.1-0.4,2.3-0.8,3.7-1.3l0-21.7v0v-3.3l0-22.1v-3.8v-0.5v-1.1V66h0l0-31.3
		C106.5,24.9,106.7,16.1,103.2,8.9"/>
</g>
</svg>
