<?xml version="1.0" encoding="utf-8"?>
<!-- Generator: Adobe Illustrator 21.1.0, SVG Export Plug-In . SVG Version: 6.00 Build 0)  -->
<svg version="1.1" id="Layer_1" xmlns="http://www.w3.org/2000/svg" xmlns:xlink="http://www.w3.org/1999/xlink" x="0px" y="0px"
	 viewBox="0 0 200 200" style="enable-background:new 0 0 200 200;" xml:space="preserve">
<style type="text/css">
	.st0{fill:#FEFEFE;}
	.st1{fill:#051821;}
	.st2{fill:#C4CDD3;}
	.st3{fill:#007DC5;}
</style>
<g>
	<path id="Fill-1" class="st0" d="M7.1,134c-1.6-2.4-6.9-11.4-6.9-26c0-5.5,0.8-11.7,2.7-18.6c0,0,0-0.1,0-0.1l0.9-3.4L4,86.1
		c0.1-0.4,0.3-0.8,0.4-1.2c0.7-2.1,1.4-4.2,1.6-4.8c0.1-0.4,0.7-2.9,1.2-4.7c0.1-0.5,0.3-0.9,0.4-1.3l0-0.2c0.2-1.3,0.4-2.5,0.6-3.7
		c0.1-0.6,0.2-1.3,0.3-1.8l0-0.2l0.1-0.2c0.1-0.1,0.1-0.3,0.1-0.3c2.5-10.1,7.1-16.1,9.7-18.9l0,0l0,0c0.5-0.5,1.9-1.8,3.6-2.8
		c0.8-1,3.2-4.2,5.5-6.7c0.8-0.9,1.5-1.6,2.2-2.3c0.4-0.9,1.3-2.7,3-4.8c2.2-2.8,5.9-6.1,11.5-8.2c4.3-2.9,8.8-5.5,13.6-7.7
		c0.9-0.9,4.3-4.3,9.6-7.7c6.2-4,15-8,25.4-8c0.4,0,0.8,0,1.2,0L98,0.6l-4.7,6.3c2.5-0.2,5-0.3,7.6-0.3c13.4,0,26.3,2.6,37.9,7.4
		l0.1,0l0.1,0c0.5,0.2,1.3,0.6,2.1,1.1c0.7,0.5,1.4,0.9,2.1,1.6c0.8,0.1,2.5,0.4,4.4,1.2l0.1,0l0.1,0c12.6,6.6,23.6,15.9,32.2,27
		l0.1,0.1l0.1,0.1c0.1,0.2,0.5,0.9,0.8,2.3c0.1,0.1,0.3,0.2,0.6,0.4c0.5,0.3,1,0.7,1.5,1.2l0.1,0.1l0.1,0.1
		c10.6,15.4,16.8,33.9,16.8,53.7c0,18.8-5.6,36.5-15.1,51.3l0,0.1l0,0c-0.2,0.2-0.2,0.3-0.4,0.4c-0.1,0.1-0.3,0.3-0.5,0.4
		c-0.3,0.2-0.7,0.5-1.2,0.8c0,0.2-0.1,0.4-0.2,0.7c-0.2,0.6-0.3,1.3-0.8,2.1l0,0l0,0.1c-17.9,24.6-47.4,40.6-80.7,40.6
		C57.3,199.6,20.4,172.1,7.1,134"/>
	<path id="Fill-4" class="st1" d="M181.4,50.5c-0.6-0.6-1.9-1.4-1.9-1.4c-0.5-0.2-0.6-0.6-0.6-0.6c-0.3-1.7-0.6-2.3-0.6-2.3
		c-8.4-10.9-19.2-19.9-31.6-26.4c-2.2-1-4.2-1.1-4.2-1.1c-0.4,0-0.7-0.3-0.7-0.3c-0.7-1-2.9-2.2-3.8-2.5c-11.4-4.7-24-7.2-37.2-7.2
		c-4,0-7.9,0.2-11.8,0.7l5.1-6.8C73.8,1.8,59.2,17.7,59.2,17.7l0,0c-4.9,2.3-9.5,4.9-13.9,7.9l0,0C34.7,29.4,31.6,38,31.6,38
		c-2.7,2.3-8,9.3-8,9.3c-1.5,0.9-3.1,2.3-3.6,2.8c-2.4,2.5-6.9,8.3-9.3,18.1c-0.1,0.2-0.1,0.3-0.2,0.5c-0.1,0.5-0.2,1.2-0.3,1.8
		c-0.2,1.2-0.4,2.4-0.6,3.7L9.8,74c0,0.3-0.1,0.4-0.1,0.4c-0.2,0.2-1.8,6.2-1.8,6.2c-0.2,0.8-3,9.1-3,9.1l0,0c0,0,0,0,0,0.1
		c-7.3,25.5,2.4,40.9,4,43.3c12.9,37.5,49.2,64.5,91.9,64.5c32.6,0,61.5-15.7,79.1-39.8c0.5-0.8,0.7-2.4,0.7-2.4
		c0-0.5,0.4-0.8,0.4-0.8c1.4-0.7,1.8-1.2,1.9-1.3c9.4-14.6,14.8-31.8,14.8-50.3C197.8,83.6,191.8,65.5,181.4,50.5"/>
	<path id="Fill-6" class="st0" d="M60.2,32.2c0.3-0.3,0.5-0.5,0.7-0.7c0.3-0.3,0.5-0.4,0.5-0.4c0,0,0.1-0.1,0.1-0.1
		c0.1-4.9,1.2-8.7,1.2-8.7C71.4,9.9,86,6.6,86,6.6c1.8-0.5,0.6,0.3,0.6,0.3c-9.2,10.3-8.2,18.7-8.2,18.7l8.7,31.9
		c0,0-7.1-2.5-12.5-13.7c-2.5,22.4,18.6,40.5,18.6,40.5c0.9,0.8-0.5-0.1-0.5-0.1c-5.3-2.6-11.4-8.2-13-9.8
		c0.4,1.7,10.7,53.3,10.7,53.5c0.1,0.2,0.2,0.7,0.3,1.1l3.6-8.8l2.9,26.1c-13.4,12.4-27.6,7.5-28.5,7.2c0.3,0.6,0.6,1,0.6,1
		s11.6,22.7,58.6,20.3c0,0,1.1,0,1,0.1c0,0,0,0.1-0.3,0.2c-0.9,0.3-2.3,0.5-2.3,0.5c-56.8,15.2-86.3-33.3-87.6-35.4
		c-0.4-0.5-3.1-4.4-4.7-8.3c0-0.1-0.1-0.5,0.2-0.2c0,0,6,6.3,23.1,7.9c0.1,0,0.2,0,0.2,0c-13.2-14.7-18.8-25.4-19.6-27c0,0,0,0,0,0
		c0,0-1.6-2.4-3.5-9.1c0,0,0.1-0.3,0.2,0c0.6,1.3,5,7.8,10.3,9.2h0c-4.5-7.3-7.3-18.8-7.7-20.5c6.1,8.6,17,9.2,17,9.2
		c0,0,0-0.1-0.1-0.1c0,0,0,0.1,0,0.1c-17.9-17.9-14-37.3-6.8-51.3C51.8,41.6,57.3,35.2,60.2,32.2"/>
	<path id="Fill-8" class="st2" d="M113.7,150.4L102,162.7c0,0,0,0,0,0l14.5-11.1l-7.5-25.9l3.3-31.1l-5.7,29.7L113.7,150.4z"/>
	<path id="Fill-10" class="st2" d="M116.3,74.2c-1,5.3-2.7,10.8-5.6,13.2c0.2-0.1,0.5-0.2,0.8-0.4c0.9-0.5,2-1.3,3.2-2.5
		c2.3-2.4,4.6-6.4,4.6-12.5c0-2.8-0.5-6-1.6-9.7C117.6,64.3,117.3,69.2,116.3,74.2"/>
	<path id="Fill-12" class="st2" d="M116.2,34.5c4.1-6.2,10.8-6.7,13.7-6.7c-2.5-0.7-4.8-1-6.8-1c-4.3,0-7.5,1.2-8.9,1.8
		c-0.2,0.1-0.3,0.2-0.5,0.2C114.8,30.2,115.9,33.4,116.2,34.5L116.2,34.5z M116.2,35l0.2-0.1L116.2,35z"/>
	<path id="Fill-14" class="st2" d="M105.9,50.8l0.2-0.1L105.9,50.8z M111.1,47.5c0.1,0,0.2,0.1,0.2,0.2c0,0.6,0,1.1,0,1.7
		c0,13.3-3.5,27.9-4.9,33c5.1-11.7,6.5-22.6,6.5-30.9c0-4.9-0.5-8.9-0.9-11.7c-0.2-1.5-0.5-2.6-0.7-3.3c-1.3,10-5.1,14.6-5.1,14.6
		c0,0.1-0.1,0.1-0.2,0.1c-0.1,0-0.1-0.1-0.2-0.1C99.5,39.4,90.2,32.3,86,29.5c-0.7-0.5-1.3-0.8-1.7-1.1
		c11.9,25.9,15.4,45.9,16.3,52.5c0-0.8,0-1.5,0-2.3c0-11.8-3-26.1-4.5-32.5c-0.5-2.1-0.8-3.4-0.8-3.4v0c0-0.1,0-0.2,0.1-0.2
		c0.1-0.1,0.2,0,0.2,0c5.4,4.2,9.1,16,9.8,18.2c1-1.2,2.3-4.3,3.4-7.2c1.2-3.1,2-5.9,2-5.9C110.9,47.5,110.9,47.5,111.1,47.5
		C111,47.5,111,47.5,111.1,47.5L111.1,47.5z"/>
	<path id="Fill-16" class="st2" d="M10.7,101.2c0,12.3,2.1,25.2,12.7,41.7l0,0c10,21.1,28.5,32.5,37.1,36.8c2.9,1.5,4.6,2.1,4.6,2.1
		c13.7,6.4,26.5,8.8,38.1,8.8c24.1,0,42.4-10.4,50.1-15.6c2.6-1.7,3.9-2.9,3.9-2.9l0.1,0.2l-0.1-0.2c0.5-0.4,0.9-0.8,1.2-1
		c-0.1,0.1-0.3,0.2-0.5,0.3c-0.5,0.3-1.1,0.7-1.1,0.7c-18.8,11-36.1,14.4-50.2,14.4c-22.1,0-36.4-8.2-36.4-8.3
		c-46.9-24.6-47.6-67.2-47.6-67.3c0-0.1,0.1-0.2,0.2-0.2c0.1,0,0.2,0,0.2,0.1c6,11.7,13.4,15.7,16.6,17c0.5,0.2,0.9,0.3,1.1,0.4
		c-13.6-17.2-17.5-31.6-17.5-42.6c0-14.4,6.8-22.6,6.9-22.6c0.1-0.1,0.2-0.1,0.2-0.1c0.1,0,0.1,0.1,0.1,0.2c-1,5.1-1.4,9.6-1.4,13.5
		c0,9.5,2.2,15.4,3.3,17.8c0,0.1,0.1,0.1,0.1,0.2c-0.4-3.5-0.6-6.8-0.6-10c0-32.1,18.8-52,22.8-55.8c-3,1.2-6.6,4.4-9.5,7.5
		c-3.3,3.3-5.7,6.4-5.7,6.4c-0.1,0.1-0.1,0.1-0.2,0.1c-0.1,0-0.1-0.1-0.1-0.2c0-2.6,1.5-5.8,2.3-7.3c-2.4,2.2-4.4,5.7-5.9,8.7
		c-1.6,3.3-2.5,6.1-2.5,6.2l0,0.1c-7.5,8.4-11.1,17.5-12.4,21.4c-0.4,1.3-0.6,2.1-0.6,2.1c-0.2,0.7-0.3,1-0.4,1.2
		c0,0.1,0,0.1-0.2,0.2c-0.2,0-0.2-0.1-0.2-0.2c0,0,0-0.1,0-0.1c0-0.1,0-0.2,0-0.3c0-0.4,0-0.9,0-0.9c0.1-6.1,2.7-12.9,3.7-15.4
		c-7.2,7.7-8.9,18.1-8.9,26.5c0,3.9,0.4,7.4,0.8,9.9c0.4,2.5,0.8,4,0.8,4l0,0.1c0,4.9,1,11,1.9,15.8c1,4.8,1.9,8.4,1.9,8.4
		c0.3,0.9,0.4,1.4,0.4,1.6c0,0,0,0.1,0,0.1c0,0.1-0.1,0.1-0.2,0.1c-0.2,0-0.2-0.1-0.2-0.1c0-0.1-0.1-0.1-0.1-0.2
		c-0.1-0.1-0.2-0.3-0.3-0.5c-0.2-0.3-0.4-0.7-0.4-0.7c-5-7.7-7.4-20.3-8-23.5C10.7,100.3,10.7,100.8,10.7,101.2"/>
	<path id="Fill-18" class="st3" d="M120.7,41l-0.1-0.1l0.1-0.1c2.3-6.1,13.1-11.6,15.2-12.6c-5-2.8-9.8-3.7-13.8-3.7
		c-3,0-5.6,0.5-7.4,1c-1.8,0.5-2.8,1-2.8,1l-0.1,0.1l-0.1-0.1c-1.9-2.3-4.3-4.6-6.2-6.3c-1.9-1.6-3.3-2.8-3.4-2.9
		c-0.3-0.2-0.4-0.3-0.5-0.5c0-0.1,0.1-0.3,0.2-0.3c0.1,0,0.2-0.1,0.3-0.1c0.2,0,0.4,0,0.6,0c0.3,0,0.5,0,0.5,0
		c43,0,65.8,30.7,65.8,30.7c0.3,0.3,0.4,0.7,0.4,1c0,0.9-1.1,1.4-2,1.7c-1,0.3-1.9,0.4-1.9,0.4c-4.2,0.6-8,0.8-11.6,0.8
		C131.5,50.9,120.7,41.1,120.7,41"/>
	<path id="Fill-20" class="st3" d="M106,165.2c-0.1,0-0.1-0.1-0.1-0.2c0-0.1,0-0.1,0.1-0.2l14.4-11.6l-7.3-27.1V126l2-18.2
		c0-0.1,0-0.1,0.1-0.2c0.1,0,0.1,0,0.2,0c3.3,1,4.8,5.5,5.6,9.6c0.6,3,0.7,5.8,0.8,7.2c3.8-8.3,5.1-14.9,5.1-20.1
		c0-7.3-2.5-11.6-3.7-13.3c-0.4-0.6-0.7-0.8-0.7-0.8c-0.1-0.1-0.1-0.2,0-0.3c0.1-0.1,0.2-0.1,0.3,0c17.2,16.3,20.6,39,20.6,54.7
		c0,10.6-1.6,18-1.6,18l0,0c-0.6,1.7-2.3,2.1-2.3,2.1c-7,1.5-13.1,2.1-18.2,2.1C111.7,166.9,106.1,165.2,106,165.2"/>
	<path id="Fill-22" class="st3" d="M146.4,163.2c-0.3-0.2-0.4-0.6-0.4-1.1c0-0.2,0-0.5,0.1-0.8c0,0,0.6-2.2,1.1-5.9
		c0.5-3.7,1.1-9,1.1-15.1c0-16.4-3.9-39.2-22.1-56.9c-0.1,0-0.3-0.2-0.5-0.4c-0.1-0.1-0.1-0.1-0.1-0.3c0-0.1,0.1-0.2,0.2-0.2
		c0.1,0,0.2,0,0.2,0c0.2,0,0.4,0,0.8,0.1c0,0,4.9,1.5,8.3,5.3c0-0.2-0.1-0.5-0.1-0.9c-0.2-1-0.4-2.3-0.9-3.9
		c-0.9-3.2-2.6-7.3-5.7-10.8c0,0-0.4-0.5-0.7-0.8c-0.1-0.1-0.1-0.2-0.2-0.3c0,0,0-0.1,0.1-0.2c0.1-0.1,0.1-0.1,0.2-0.1
		c0.1,0,0.2,0.1,0.4,0.1c0.1,0.1,0.3,0.2,0.6,0.4c1.1,0.5,46.8,22.7,48.4,67.4c0,0,0,0.3,0,0.7c0,1.1-0.2,3.3-1.6,4.5
		c-0.4,0.6-11.3,14-27.2,19.2c0,0-0.5,0.2-1,0.2C147,163.5,146.7,163.4,146.4,163.2"/>
	<path id="Fill-24" class="st3" d="M180.8,131.7c-0.1-0.3-0.2-0.8-0.2-1.4c-1-43-48.2-70.1-60-76.2c-1.7-0.9-2.6-1.3-2.6-1.3
		l-0.8-0.4l0.9,0h0.1c6.2,0,10,3.7,11.1,5v0c0-1.1-0.2-2.3-0.4-3.2c-0.2-0.9-0.5-1.5-0.5-1.5l-0.1-0.4l0.4,0.2
		c4.9,1.9,11.3,2.5,17.5,2.5c6,0,11.9-0.6,16.3-1.2c4.4-0.6,7.3-1.2,7.3-1.2l0,0h0c0.2,0,0.5,0,0.7,0c2.5,0,3.3,1.4,3.4,1.7
		c5.9,6.6,13.2,21.8,14.4,40.1c0.1,2.3,0.2,4.5,0.2,6.7c0,16.1-3.9,27.8-6.1,30.5c-0.3,0.4-0.6,0.6-1,0.7
		C181.1,132.3,180.9,132,180.8,131.7"/>
	<path id="Fill-26" class="st1" d="M80.4,11.1c0,0,0.1-0.1,0.1-0.1l0,0c-0.5,0.1-9.9,2.9-12.7,17.2c0,0,0,0.3,0.1,0
		c0.8-1.4,3.8-5.8,6.5-4.5c0,0,0-0.1,0-0.3C74.6,22.3,75.5,17.3,80.4,11.1"/>
	<path id="Fill-28" class="st1" d="M73.2,140.6c-2-4.1-15.1-32.6-15.1-32.6c-4.1,1.3-9.1-2-9.1-2v0c6.4,17,21.5,31.9,23.9,34.6
		c0,0,0,0,0,0c0.4,0.4,0.4,0.3,0.4,0.3C73.4,141,73.3,140.8,73.2,140.6"/>
	<path id="Fill-30" class="st1" d="M60.3,47.9C48.5,74.8,75,85.9,75.4,86l0,0L74,79.8l-0.8-3.6c-0.7-0.2-1.3-0.5-1.9-0.7
		c-0.2-0.1-0.4-0.2-0.6-0.3c-0.2-0.1-0.5-0.2-0.7-0.4C58.4,68.8,59.5,54,60.2,49.2c0,0,0-0.1,0-0.1c0-0.1,0.1-0.3,0.1-0.4
		c0.1-0.4,0.1-0.8,0.2-0.9c0-0.1,0-0.1,0-0.1v0C60.5,47.3,60.4,47.7,60.3,47.9"/>
	<path id="Fill-32" class="st2" d="M77.7,123.6l-1.9-33.8l11.4,37.7C87.2,127.5,83.5,118.6,77.7,123.6"/>
	<path id="Fill-34" class="st2" d="M78.4,26.4l2.5,20.2c0,0,1.2,5.5-6.3-2.8c5.5,11.2,12.5,13.7,12.5,13.7l-8.7-31.6
		C78.5,26,78.4,26,78.4,26.4"/>
	<path id="Fill-36" class="st2" d="M66.3,63.3c-0.7-1.7-1-3.2-1-4.5c0-4.9,3.6-7.7,3.6-7.7l0.1-0.1c0,0-0.2-3.1,0.1-8.2
		c-2.9,4.3-9.1,14.4-1.7,22.3c-0.1-0.2-0.2-0.3-0.3-0.5C66.8,64.1,66.5,63.7,66.3,63.3"/>
	<path id="Fill-38" class="st1" d="M74,67.4c-1.3-2.2-4.4-9.2-4.9-16.3c0,0,0-0.1,0-0.1L69,51c0,0-3.6,2.8-3.6,7.7
		c0,1.4,0.3,2.9,1,4.5c0.2,0.4,0.5,0.8,0.8,1.4c0.1,0.1,0.2,0.3,0.3,0.5c0.1,0.2,0.3,0.3,0.5,0.5c1.2,1.4,3.3,2.8,6.8,2.9
		C74.8,68.5,74.5,68.1,74,67.4"/>
	<path id="Fill-42" class="st2" d="M84.3,131.6c1.2,0,2.1,1.1,2.8,2.6c0.7,1.5,1.3,3.5,1.8,5.5c0.6,2.5,0.9,4.9,1.1,6.4
		c0,0.7,0,1.2,0,1.5v0c0.2-1.6,2.6-17.4-5.4-19.7c0,0-5.6-1.4-5.2,10.2c0-0.3,0.1-0.5,0.1-0.7C81.3,133.3,82.9,131.6,84.3,131.6"/>
	<path id="Fill-44" class="st1" d="M90,147.6L90,147.6L90,147.6z"/>
	<path id="Fill-46" class="st1" d="M90,146.1c0-0.5-0.6-4-1.1-6.4c-0.5-2-1-4-1.8-5.5c-0.7-1.5-1.6-2.6-2.8-2.6
		c-1.5,0-3,1.7-4.8,5.8c-0.1,0.3-0.1,0.3-0.1,0.7l2.8,6.1c0,0,1.6-16.3,7.8,3.3c0,0,0,0.1,0,0.1v0v0v0v0
		C90,147.3,90.1,146.9,90,146.1"/>
</g>
</svg>
