<?xml version="1.0" encoding="utf-8"?>
<!-- Generator: Adobe Illustrator 21.1.0, SVG Export Plug-In . SVG Version: 6.00 Build 0)  -->
<svg version="1.1" id="Layer_1" xmlns="http://www.w3.org/2000/svg" xmlns:xlink="http://www.w3.org/1999/xlink" x="0px" y="0px"
	 viewBox="0 0 200 200" style="enable-background:new 0 0 200 200;" xml:space="preserve">
<style type="text/css">
	.st0{filter:url(#Adobe_OpacityMaskFilter);}
	.st1{fill:#FFFFFF;}
	.st2{mask:url(#mask-2);fill:#FEFEFE;}
	.st3{fill:#FEFEFE;}
	.st4{fill:#498AC9;}
	.st5{fill:#081E3F;}
	.st6{fill:#FEC42F;}
</style>
<g>
	<defs>
		<filter id="Adobe_OpacityMaskFilter" filterUnits="userSpaceOnUse" x="0" y="29.7" width="200" height="140.7">
			<feColorMatrix  type="matrix" values="1 0 0 0 0  0 1 0 0 0  0 0 1 0 0  0 0 0 1 0"/>
		</filter>
	</defs>
	<mask maskUnits="userSpaceOnUse" x="0" y="29.7" width="200" height="140.7" id="mask-2">
		<g class="st0">
			<polygon id="path-1" class="st1" points="200,170.3 0,170.3 0,29.7 200,29.7 			"/>
		</g>
	</mask>
	<path id="Fill-1" class="st2" d="M99.9,165.4c0.1,0,0.1,0,0.2,0C100,165.4,100,165.4,99.9,165.4L99.9,165.4z M17,164.7L17,164.7
		L17,164.7L17,164.7L17,164.7z M192.4,98.3L192.4,98.3l-0.1,0l0,0L192.4,98.3z M173,160.6L173,160.6L173,160.6L173,160.6L173,160.6z
		 M170.5,106.8L170.5,106.8C170.5,106.8,170.5,106.8,170.5,106.8L170.5,106.8L170.5,106.8z M168.2,121.5L168.2,121.5L168.2,121.5
		L168.2,121.5z M73.8,150.3C73.8,150.3,73.8,150.3,73.8,150.3C73.8,150.3,73.8,150.3,73.8,150.3L73.8,150.3z M74.1,126.8L74.1,126.8
		L74.1,126.8L74.1,126.8L74.1,126.8z M74.1,135.9L74.1,135.9L74.1,135.9L74.1,135.9z M34.4,121.5L34.4,121.5L34.4,121.5L34.4,121.5
		L34.4,121.5z M33.5,105.6v-0.1l0,0V105.6L33.5,105.6z M163.8,105.5L163.8,105.5L163.8,105.5z M159.5,115.4L159.5,115.4L159.5,115.4
		L159.5,115.4L159.5,115.4z M113.4,126.8L113.4,126.8L113.4,126.8L113.4,126.8z M102.5,121.5L102.5,121.5L102.5,121.5L102.5,121.5z
		 M103.3,135.1L103.3,135.1L103.3,135.1L103.3,135.1z M103.3,146C103.3,146,103.3,146,103.3,146L103.3,146
		C103.3,146,103.3,146,103.3,146L103.3,146z M110.8,97.8L110.8,97.8L110.8,97.8z M103.3,146.1C103.3,146.1,103.3,146.1,103.3,146.1
		C103.3,146.1,103.3,146.1,103.3,146.1L103.3,146.1z M133,126.7L133,126.7L133,126.7L133,126.7L133,126.7z M49.7,87.7L49.7,87.7
		L49.7,87.7L49.7,87.7L49.7,87.7z M140.5,84.4l-0.1,0l0,0L140.5,84.4L140.5,84.4z M80.3,84.9L80.3,84.9
		C80.3,84.9,80.3,84.9,80.3,84.9L80.3,84.9z M79.4,80L79.4,80L79.4,80L79.4,80L79.4,80z M109.1,76L109.1,76L109.1,76L109.1,76z
		 M129.1,74.8L129.1,74.8L129.1,74.8z M98.5,75.9C98.5,75.9,98.5,75.9,98.5,75.9l0-0.1l0,0L98.5,75.9z M114.2,76.2L114.2,76.2
		L114.2,76.2L114.2,76.2L114.2,76.2z M113.8,86.7L113.8,86.7l0-0.1L113.8,86.7z M92.1,86.6L92.1,86.6l0-0.1l0,0L92.1,86.6z
		 M141.6,92.1L141.6,92.1L141.6,92.1z M71.2,63.4L71.2,63.4L71.2,63.4L71.2,63.4L71.2,63.4L71.2,63.4z M71.3,63.6L71.3,63.6
		L71.3,63.6L71.3,63.6L71.3,63.6z M89.5,101.9C89.5,101.9,89.5,101.9,89.5,101.9C89.5,101.9,89.5,101.9,89.5,101.9L89.5,101.9z
		 M89.5,101.8L89.5,101.8C89.5,101.8,89.5,101.8,89.5,101.8C89.5,101.8,89.5,101.8,89.5,101.8L89.5,101.8z M158.7,114.3L158.7,114.3
		L158.7,114.3L158.7,114.3L158.7,114.3z M161.5,154.5L161.5,154.5c-0.1,0-0.1-0.1-0.1-0.1l0,0C161.4,154.4,161.4,154.4,161.5,154.5
		L161.5,154.5z M180.5,119.4C180.5,119.4,180.5,119.4,180.5,119.4L180.5,119.4L180.5,119.4L180.5,119.4z M183.6,136.9
		C183.5,136.8,183.5,136.8,183.6,136.9L183.6,136.9C183.5,136.8,183.5,136.8,183.6,136.9L183.6,136.9z M183.8,152.6L183.8,152.6
		C183.8,152.6,183.8,152.6,183.8,152.6C183.8,152.6,183.8,152.6,183.8,152.6L183.8,152.6z M5.7,95.1L5.7,95.1L5.7,95.1z M7.9,110.7
		L7.9,110.7L7.9,110.7L7.9,110.7z M24.2,110.3L24.2,110.3L24.2,110.3z M200,89.8l-6.6,2.2c-5.2-3.4-11.1-3-11-3h-3.8l-1.8-2.3
		l8.5-0.1l-4.7-4.4c-25.9-24.5-42.5-26.8-44.6-27l-1.1-0.1l0,0c-6.3-5.3-29-24.5-29-24.5l-1.3-1.1l-1.3,1.1c0,0-24.2,19.9-30.6,25.1
		l-0.2-0.2l-1.3,0.3c-23.6,4.6-44,25.6-44.9,26.5l-4.1,4.4h4.2l0.2,2l2-2h0.2L27.6,88l1,1.7H0v20.7l2.2-0.1c0,5.3,0.2,39.1,0.2,39.4
		c0,0.1,0,0.2,0,0.2l-2.3,0.7v19.7l32.3,0.1l5.3-3.1c4,2.9,8.1,3.2,9.5,3.2c0.3,0,0.5,0,0.5,0c4.7,0,8.4-2.4,8.6-2.6l5-3.2
		c5.3,6.2,12.8,5.8,12.7,5.8h0c4.9,0,8.1-2,8.7-2.5c0.3-0.2,3.1-2,5.1-3.3c4.9,5.8,12.2,5.7,12.4,5.7c4.4,0.2,7.9-1.5,10.1-3l2.3,3
		h30v-1.6l2.1,1.6H167v-2.4l3.6,1.9l2.5-2c3.9,2.4,8.4,2.5,9.3,2.5h0c11.3,0,15.2-7.7,15.6-8.5c1.7-3,1.9-6.8,1.9-7.9v-13.7
		c0-9-5.1-13.5-5.6-13.9c-0.1-0.1-0.2-0.2-0.4-0.3h5.9V89.8z"/>
	<path id="Fill-4" class="st3" d="M197.4,123.4h-11.3c0,0,5.2,3.4,6.5,4.8c0,0,4.8,3.9,4.8,12v13.7c0,0-0.1,3.9-1.6,6.7
		c0,0,0,0,0,0.1c-0.4,0.8-3.7,7-13.2,7c0,0-5.6,0.1-9.4-3.2l-2.7,2.1l-5.9-3.2v4.2h-18.7l-5.6-4.2v4.2H114l-3.2-4
		c0,0-4.2,4.4-10.4,4c0,0-7.8,0.1-11.9-6.6l-7.2,4.7c0,0-2.7,2-7.3,2c0,0-7.6,0.6-12.1-6.7c0,0-5.1,3.4-7,4.6c0,0-3.3,2.1-7.2,2.1
		c0,0-5.3,0.4-9.7-3.7l-6.3,3.7H20.3l-0.3-0.9l-1.7,0.9H2.7v-15.2l1.5-0.4c0,0,0,0,0,0c0.2-0.1,0.8-0.7,0.7-2.7l-0.2-39.7
		c0,0,0.2-2-2.2-1.9V92.2h30.7l-2.4-3.9l3.9-4.2h-6.5c0,0,20.1-21.2,43.5-25.7l0.7,1.1L104.6,33l30.6,25.8l0.8-1
		c0,0,16.6,1.6,42.8,26.3l-7.4,0.1l5,6.3l-0.5,1.1h6.5c0,0,5.9-0.5,10.5,3.2l4.4-1.5V123.4z M198,92.7c0,0-4.5,1.5-4.9,1.6
		c-4.7-3.6-10.4-3.2-10.7-3.2c0,0-4.3,0-5.6,0c0.1-0.1,0.3-0.7,0.3-0.7s-3.5-4.4-4.5-5.7c1.6,0,7.6-0.1,7.6-0.1l-1-0.9
		c-26-24.5-42.4-26.4-43.1-26.5l-0.3,0c0,0-0.4,0.5-0.7,0.8c-0.8-0.7-30.5-25.8-30.5-25.8S73.4,57.9,72.5,58.7
		c-0.2-0.3-0.6-0.9-0.6-0.9l-0.4,0.1C48.3,62.4,28,83.6,27.8,83.8l-0.9,0.9h6.5c-1,1.1-3.3,3.5-3.3,3.5s1.5,2.4,2.1,3.5H2v16.5
		l0.6,0c0.6,0,1,0.1,1.3,0.4c0.3,0.3,0.3,0.8,0.3,0.9v0c0,0.3,0.2,39.7,0.2,39.7c0,0.1,0,0.3,0,0.4c0,1.4-0.4,1.8-0.5,1.9
		c-0.2,0-1.8,0.5-1.8,0.5v16.2h16.2c0,0,0.7-0.4,1.2-0.6c0,0.1,0.2,0.7,0.2,0.7H32c0,0,5.5-3.2,6.1-3.5c4.5,3.9,9.6,3.6,9.8,3.6
		c4,0,7.3-2.1,7.5-2.2c0,0,5.1-3.3,6.6-4.3c4.6,6.9,12.2,6.5,12.3,6.5c4.7,0,7.5-2.1,7.6-2.1c0,0,5.2-3.4,6.7-4.4
		c4.2,6.4,11.7,6.5,12,6.4c5.3,0.3,9.1-2.7,10.3-3.8c0.6,0.7,3,3.8,3,3.8h27v-3.7c1.2,0.9,4.8,3.7,4.8,3.7H165v-3.8
		c1.2,0.6,5.4,2.9,5.4,2.9s2.2-1.7,2.6-2.1c3.9,3,9.2,3,9.4,3c10.4,0,13.7-7.4,13.8-7.4c1.6-2.9,1.7-6.8,1.7-6.9v-13.7
		c0-8.3-4.8-12.3-5-12.4c-0.9-0.9-3.4-2.7-5.1-3.8H198V92.7z"/>
	<path id="Fill-6" class="st4" d="M180.5,119.8c0-0.4,0-0.7,0-0.9C180.5,119.1,180.5,119.4,180.5,119.8"/>
	<path id="Fill-8" class="st4" d="M86.3,157.5c-0.3,0.3-0.6,0.6-0.9,0.9C85.7,158.1,86,157.8,86.3,157.5"/>
	<path id="Fill-10" class="st4" d="M56.1,162.2c-0.3,0.3-0.6,0.6-0.9,0.9C55.5,162.8,55.8,162.5,56.1,162.2"/>
	<path id="Fill-12" class="st4" d="M42.3,102.9c0-0.1-0.1-0.1-0.1-0.2C42.3,102.8,42.3,102.9,42.3,102.9"/>
	<path id="Fill-14" class="st4" d="M180.5,118.6L180.5,118.6L180.5,118.6z"/>
	<path id="Fill-16" class="st4" d="M195.2,96.5V97v23.7v0.4h-0.4l-6.7,0l-2.9,0h-0.3c0,0-3.9-1.3-4.3-1.4c0-0.1,0-0.1,0-0.2
		c0,0.4,0.1,0.9,0.2,1.4c0.2,0.9,0.6,1.8,1.3,2.3c0,0,3.5,2.5,8.7,6.2c0.2,0.1,4.5,3.6,4.4,11v14.2c0,0.2,0,4.4-3.2,7.6
		c-2.3,2.3-5.5,3.4-9.7,3.4c-0.2,0-5,0.3-9.3-3.9l-2.3,1.9l-0.4,0.3l-0.2,0.1c0,0-6.5-3.4-7.9-4.2v5.7l-12.3,0l-3.7,0
		c0,0-6.6-4.9-8.1-6v6l-17.8,0l-5.6,0c0,0-3.4-4-4.2-4.9c-4.2,5.1-9.4,5-9.4,5c-4.1-0.1-7.3-1.4-9.5-3.9c-1.1-1.2-1.8-2.5-2.3-3.8
		c-1.1,0.7-6.3,4-7.8,4.8c-0.1,0.1-0.3,0.2-0.4,0.3c-3.4,2.6-6.7,2.5-6.8,2.5c-3.8,0-6.8-1.2-9-3.4c-1.3-1.3-2.1-2.9-2.7-4.4
		c-1.2,0.8-7,4.5-8.3,5.3c-0.5,0.4-0.9,0.7-1.4,1c-2.7,1.6-5.4,1.6-5.5,1.6c-3.5,0-6.3-1.2-8.3-3.4c-0.3-0.3-0.5-0.6-0.7-0.8
		c-1.6,0.9-7.2,4.1-7.2,4.1l-0.4,0h-0.4h-8.3H22l-0.1-0.3l-0.2-1c-1.1,0.4-4,1.3-4,1.3l-0.3,0h0h-12H5v-0.4l0-10.5v-0.2l0.2-0.1
		c0.1-0.1,2.1-1.2,2-4.6c0,0-0.1-38.8-0.1-38.8c0,0,0.1-4.2-2-5.2l-0.2-0.1v-0.2L5,94.7v-0.4h0h0.3h10.5h0.3l5.1,0v0.4v-0.4h0.4
		h11.6h0.4v0h3.4c0,0,0-0.1-0.1-0.1c-1.7-2.8-3.2-5.1-3.2-5.1l-0.3-0.5l0.3-0.4c0.1-0.1,1.7-2.2,6.1-6h-6.6c0,0,1.4-1.3,1.4-1.3
		c0.7-0.7,18.2-16.6,35.6-20.1l0.5-0.1l0.3,0.4c0,0,0.7,0.9,1.1,1.5l32.4-26.7l30.9,26.3c0.4-0.5,1.2-1.6,1.2-1.6l0.3-0.4l0.5,0.1
		C152,63,170.1,79,172.1,80.8l1.5,1.3h-7.3c4.2,4.2,7.1,7.7,7.5,8.1l0.1,0.1l-0.4,0.7l-2,3.2c3.3,0,8.7-0.3,10.4-0.3
		c0,0-0.1,0-0.1,0c0.3,0,0.5-0.1,0.8-0.1c0.3,0,6.2-0.2,10,3.6l2.2-0.8L195.2,96.5z M182.4,91.6h-6.5l0.5-1.1l-5-6.3l7.4-0.1
		c-26.1-24.7-42.8-26.3-42.8-26.3l-0.8,1L104.6,33L72.4,59.5l-0.7-1.1c-23.4,4.5-43.5,25.7-43.5,25.7h6.5l-3.9,4.1l2.4,3.9H2.6v15.4
		c2.4-0.1,2.2,1.9,2.2,1.9L5,149.2c0.1,2-0.6,2.6-0.7,2.7c0,0,0,0,0,0l-1.5,0.4v15.2h15.6l1.7-0.9l0.3,0.9h11.5l6.3-3.7
		c4.4,4.1,9.7,3.7,9.7,3.7c4,0,7.2-2.1,7.2-2.1c1.9-1.2,7-4.6,7-4.6c4.5,7.2,12.1,6.7,12.1,6.7c4.6,0,7.3-2,7.3-2l7.2-4.7
		c4.1,6.8,11.9,6.6,11.9,6.6c6.2,0.3,10.4-4,10.4-4l3.2,4h26.2v-4.2l5.6,4.2h18.7v-4.1l5.9,3.2l2.7-2.1c3.8,3.2,9.4,3.2,9.4,3.2
		c9.6,0,12.9-6.3,13.2-7c0-0.1,0-0.1,0-0.1c1.6-2.8,1.6-6.7,1.6-6.7v-13.7c0-8.1-4.8-12-4.8-12c-1.3-1.3-6.5-4.8-6.5-4.8h11.3v-30
		l-4.4,1.5C188.3,91.2,182.4,91.6,182.4,91.6L182.4,91.6z"/>
	<path id="Fill-18" class="st4" d="M85,158.9c0,0.1-0.1,0.1-0.1,0.1C85,159.1,85,159,85,158.9"/>
	<path id="Fill-20" class="st4" d="M180.5,119.1c0-0.2,0-0.4,0-0.5C180.5,118.7,180.5,118.9,180.5,119.1"/>
	<path id="Fill-22" class="st4" d="M86.8,156.2c-0.3,0.4-0.6,0.8-0.9,1.1C86.2,157,86.5,156.6,86.8,156.2"/>
	<path id="Fill-24" class="st5" d="M184.8,110.4c0,0,0.1-1.8-0.9-2.8c-0.4-0.4-0.8-0.6-1.5-0.5c-0.1,0-1.9,0.1-2,3.7v7.7
		c0,0,0,0,0,0v0.1v0v0.2v0c0,0.1,0,0.3,0,0.5c0,0,0,0.1,0,0.1c0,0.1,0,0.1,0,0.2c0.4,0.2,4.3,1.4,4.3,1.4l0-0.4V110.4z"/>
	<path id="Fill-26" class="st5" d="M14.9,149.6c0,0,0.3,3.4,2.6,4.6l0.2,0.1v0.2v10.5l0,0.4c0,0,3-0.9,4-1.3l-6.8-33.5V149.6"/>
	<path id="Fill-28" class="st6" d="M35,88.9l0.1-0.1c4.3-2.4,27.6-14.5,65.4-15.6c1.4-0.1,35.3-1.5,71.4,17.5l0.1,0.1l-8.4,13.2
		l-0.1-0.1c-4.1-2.3-26.5-13.8-58.5-15.2c-0.3,0-32.6-1.2-61.6,13.5l-0.1,0.1L35,88.9z M36.5,81l0.3-0.2
		c3.6-3.1,16.4-13.6,29.8-17.7l0.1,0.2c-10.1,6.3-18.5,12.2-25,17.7H36.5z M154.5,72.2L154.5,72.2c-0.1-0.1-7.2-5.5-13-9.3l0.1-0.2
		c11.6,4,24.7,14.7,28.4,17.9l0.3,0.2h-0.4l-5.3,0C160.9,77.2,157.5,74.3,154.5,72.2L154.5,72.2z M42.2,102.8
		C42.2,102.8,42.3,102.8,42.2,102.8c0.2,0.4,0.3,0.5,0.3,0.5l0.4,0.6l0.6-0.3C71.7,89.1,103.7,89.9,105,90
		c34.6,1.5,58.3,15.2,58.5,15.3l0.6,0.4l7.3-11.5l2-3.2l0.4-0.7l-0.1-0.1c-0.3-0.4-3.3-3.9-7.5-8.1h7.3l-1.5-1.3
		c-2-1.8-20.1-17.8-34.7-20.5l-0.5-0.1l-0.3,0.4c0,0-0.8,1-1.2,1.6l0.1,0.1l0.9,0.7l1-1.3l0.1,0.1c5.5,3,16.3,11.2,16.4,11.3
		c6.6,4.6,13.4,11.8,16.8,15.6l-0.2,0.2c-2.8-1.4-5.8-2.8-8.8-4.1c-1.6-0.7-3.2-1.3-4.8-2c-30.5-11.8-56-10.5-56.3-10.5
		c-4,0.1-8,0.4-12,0.7c-4.2,0.4-8.4,0.9-12.6,1.7c-8.1,1.4-16,3.3-23.3,5.7c-1,0.3-2,0.7-2.9,1c-5.6,2-9.7,3.9-12.2,5.1l-0.2-0.2
		c4.1-4,13.8-12.4,32.9-24l0.1-0.1l0.8,1.2l0.9-0.7l0.1-0.1c-0.4-0.6-1.1-1.5-1.1-1.5l-0.3-0.4l-0.5,0.1
		c-17.4,3.5-34.9,19.5-35.6,20.1c0,0-1.4,1.3-1.4,1.3h6.6c-4.4,3.8-6,5.9-6.1,6l-0.3,0.4l0.3,0.5c0,0,1.5,2.3,3.2,5.1
		c0,0,0,0.1,0.1,0.1C39,97.6,41.4,101.4,42.2,102.8L42.2,102.8z"/>
	<path id="Fill-30" class="st4" d="M170.3,80.8l-0.3-0.2c-3.7-3.2-16.8-13.9-28.4-17.9l-0.1,0.2c5.8,3.7,12.9,9.2,13,9.3l0,0
		c3,2.1,6.4,5,10.1,8.6l5.3,0H170.3z"/>
	<path id="Fill-32" class="st4" d="M66.7,63.3L66.6,63c-13.4,4.1-26.2,14.6-29.8,17.7L36.5,81h5.1C48.2,75.5,56.6,69.5,66.7,63.3"/>
	<path id="Fill-34" class="st4" d="M159.8,91.1c0,0,0.5-1.1-1.4-1.7l-4-1.5l-0.8,2.1l4.4,1.7C157.9,91.6,159.4,92.4,159.8,91.1"/>
	<path id="Fill-36" class="st4" d="M55.5,92c0,0,2.8-1.1,1.9-4c0,0-0.7-2.5-4.2-1.6l-3.6,1.3l2.1,5.7L55.5,92z"/>
	<path id="Fill-38" class="st4" d="M53.5,83.8c6.4-1.5,7.4,2.8,7.4,2.8c1.6,4.8-3.4,7-3.4,7L48.7,97l-0.1-0.2
		c0.3-0.1,0.2-0.4,0.2-0.4l-3.3-9.1c-0.1-0.1-0.4,0-0.4,0L45,87L53.5,83.8z M78,77.4c0,0,0.6,0,0.5-0.6l0.2-0.1l0.7,3.2l-0.1,0
		c0,0-0.2-0.3-0.5-0.4l-8.2,1.8l0.4,1.8l4.9-1.1c0,0,0.5-0.1,0.5-0.6l0.2-0.1l0.6,2.9l-0.2,0c0,0-0.1-0.2-0.4-0.3l-5.2,1.1l0.4,2
		l8.1-1.8c0,0,0.3,0,0.4-0.6l0.2,0l0.7,3.2l-0.1,0c0,0-0.4-0.4-0.6-0.2l-12.1,2.6l-0.1-0.2c0.3-0.1,0.3-0.4,0.3-0.4l-2-9.6
		c-0.1-0.2-0.4-0.1-0.4-0.1l0-0.2L78,77.4z M92.9,75.9v0.2c0,0-0.4,0-0.3,0.3c0.1,0.2,0.3,0.4,0.3,0.4l6.2,4.9l-0.3-5.6
		c0,0,0-0.3-0.4-0.3l0-0.2l4.2-0.2l0,0.2c-0.3,0-0.3,0.3-0.3,0.3l0.4,9.7c0.1,0.2,0.4,0.1,0.4,0.1l0,0.2l-4.3,0.3l0-0.2
		c0,0,0.4,0,0.3-0.3c-0.1-0.2-0.3-0.4-0.3-0.4l0.2,0.1l-7.7-6l0.4,6.5c0,0,0,0.3,0.4,0.3l0,0.2L88,86.9l0-0.2c0.4,0,0.4-0.3,0.4-0.3
		l-0.4-9.7c-0.1-0.2-0.4-0.1-0.4-0.1l0-0.2L92.9,75.9z M109.2,75.8l5,0.4l0,0.2c-0.2,0-0.3,0.1-0.3,0.2c0,0.2,0,0.3,0.6,1.3l2.5,5.2
		l3.6-5.1c0.2-0.3,0.3-0.5,0.3-0.7c0-0.1,0-0.3-0.2-0.3l0-0.2l4.2,0.4l0,0.2c-0.4,0-0.5,0.2-0.7,0.6l-5.4,8.4
		c-0.1,0.2-0.2,0.3-0.2,0.5c0,0.2,0,0.2,0.2,0.3l0,0.2l-4.8-0.5l0-0.2c0.2,0,0.1-0.3,0.1-0.3l-0.1-0.4l-4-9.1
		c-0.2-0.6-0.2-0.6-0.7-0.8L109.2,75.8z M129.3,88.8c0.3,0.1,0.4-0.2,0.4-0.2l2.3-9.6c0-0.2-0.3-0.2-0.3-0.2l0-0.2l11.9,2.8
		c0,0,0.5,0.2,0.7-0.3l0.2,0l-0.8,3.2l-0.1,0c0,0,0-0.4-0.3-0.6l-8.2-1.9l-0.4,1.8l4.9,1.1c0,0,0.5,0.1,0.7-0.3l0.2,0l-0.7,2.9
		l-0.2,0c0,0,0-0.2-0.2-0.4l-5.1-1.3l-0.5,2l8.1,1.9c0,0,0.3,0.1,0.6-0.4l0.2,0l-0.8,3.2l-0.1,0c0,0-0.2-0.5-0.4-0.5L129.3,89
		L129.3,88.8z M147.5,94c0.3,0.1,0.4-0.2,0.4-0.2l3.6-9.2c0-0.2-0.3-0.2-0.3-0.2l0.1-0.2l9.7,3.9c3.9,1.8,2.4,4.6,2.4,4.6
		c-1.1,2.3-4.5,1.7-4.5,1.7l1.6,4.6c0.1,0.1,0.2,0.2,0.2,0.2l-0.1,0.1l-4.5-1.7l0.1-0.2c0.4,0.1,0.5-0.3,0.5-0.3
		c-0.1-0.3-1.6-4.3-1.6-4.3l-2.4-0.9l-1.3,3.3c-0.1,0.3,0.2,0.4,0.2,0.4l-0.1,0.2l-4.1-1.6L147.5,94z M43.5,102.2
		c29-14.7,61.2-13.5,61.6-13.5c32.1,1.4,54.4,12.9,58.5,15.2l0.1,0.1l8.4-13.2l-0.1-0.1c-36.1-19-70-17.5-71.4-17.5
		c-37.8,1.1-61.1,13.2-65.4,15.6L35,88.9l8.4,13.3L43.5,102.2z"/>
	<path id="Fill-40" class="st4" d="M71.2,63.7L71.2,63.7l-0.1-0.3l-0.8-1.2l-0.1,0.1c-19.1,11.6-28.8,20-32.9,24l0.2,0.2
		c2.5-1.2,6.6-3.1,12.2-5.1h0c1-0.3,1.9-0.7,2.9-1c-1,0.3-1.9,0.6-2.8,0.9C51.5,79.9,71.2,63.7,71.2,63.7"/>
	<path id="Fill-42" class="st4" d="M161.4,84.5c-1.5-0.6-3.1-1.2-4.6-1.8c1.6,0.6,3.2,1.3,4.8,2c3,1.3,6,2.7,8.8,4.1l0.2-0.2
		c-3.4-3.8-10.2-11-16.8-15.6c-0.1-0.1-10.8-8.3-16.4-11.3l-0.1-0.1l-1,1.3l-0.2,0.2L161.4,84.5z"/>
	<path id="Fill-44" class="st3" d="M53.3,86.4c3.4-1,4.2,1.6,4.2,1.6c0.9,2.9-1.9,4-1.9,4l-3.8,1.4l-2.1-5.7L53.3,86.4z M45.6,87.2
		l3.3,9.1c0,0,0.1,0.3-0.2,0.4l0.1,0.2l8.7-3.3c0,0,4.9-2.2,3.4-7c0,0-1-4.3-7.4-2.8L45,87l0.1,0.2C45.2,87.2,45.5,87.1,45.6,87.2
		L45.6,87.2z"/>
	<path id="Fill-46" class="st3" d="M66.5,80.2l2,9.6c0,0,0.1,0.3-0.3,0.4l0.1,0.2l12.1-2.6c0.2-0.1,0.6,0.2,0.6,0.2l0.1,0l-0.7-3.2
		l-0.2,0c0,0.6-0.4,0.6-0.4,0.6l-8.1,1.8l-0.4-2l5.2-1.1c0.3,0.1,0.4,0.3,0.4,0.3l0.2,0l-0.6-2.9l-0.2,0.1c0,0.4-0.5,0.6-0.5,0.6
		L71,83.1l-0.4-1.8l8.2-1.8c0.3,0.1,0.5,0.4,0.5,0.4l0.1,0l-0.7-3.2l-0.2,0.1c0.1,0.5-0.5,0.6-0.5,0.6l-11.9,2.6l0,0.2
		C66.1,80.1,66.4,80,66.5,80.2"/>
	<path id="Fill-48" class="st3" d="M87.9,76.7l0.4,9.7c0,0,0,0.3-0.4,0.3l0,0.2l4.1-0.2l0-0.2c-0.3,0-0.4-0.3-0.4-0.3l-0.4-6.5
		l7.7,5.9l-0.2-0.1c0,0,0.2,0.2,0.3,0.4c0.1,0.3-0.3,0.3-0.3,0.3l0,0.2l4.3-0.3l0-0.2c0,0-0.3,0-0.4-0.1l-0.4-9.7c0,0,0-0.3,0.4-0.3
		l0-0.2l-4.2,0.2l0,0.2c0.3,0,0.4,0.3,0.4,0.3l0.3,5.6l-6.2-4.9c0,0-0.2-0.2-0.3-0.4c-0.1-0.3,0.3-0.3,0.3-0.3v-0.2l-5.4,0.4l0,0.2
		C87.5,76.5,87.9,76.5,87.9,76.7"/>
	<path id="Fill-50" class="st3" d="M141.8,92.4l0.1,0l0.8-3.2l-0.2,0c-0.3,0.5-0.6,0.4-0.6,0.4l-8.1-1.9l0.5-2l5.1,1.3
		c0.2,0.2,0.2,0.4,0.2,0.4l0.2,0l0.7-2.9l-0.2,0c-0.2,0.4-0.7,0.3-0.7,0.3l-4.9-1.1l0.4-1.8l8.2,1.9c0.3,0.2,0.3,0.6,0.3,0.6l0.1,0
		l0.8-3.2l-0.2,0c-0.2,0.5-0.7,0.3-0.7,0.3l-11.9-2.8l0,0.2c0,0,0.3,0,0.3,0.2l-2.3,9.6c0,0,0,0.3-0.4,0.2l-0.1,0.2l12.1,2.9
		C141.6,91.8,141.8,92.4,141.8,92.4"/>
	<path id="Fill-52" class="st3" d="M154.4,87.8l4,1.5c1.9,0.6,1.4,1.7,1.4,1.7c-0.4,1.3-1.9,0.5-1.9,0.5l-4.4-1.7L154.4,87.8z
		 M151.7,95.7c0,0-0.3-0.1-0.2-0.4l1.3-3.3l2.4,0.9c0,0,1.5,4,1.6,4.3c0,0-0.2,0.4-0.5,0.3l-0.1,0.2l4.5,1.7l0.1-0.1
		c0,0-0.1-0.1-0.2-0.2l-1.6-4.6c0,0,3.4,0.6,4.5-1.7c0,0,1.5-2.8-2.4-4.6l-9.7-3.9l-0.1,0.2c0,0,0.3,0.1,0.3,0.2l-3.6,9.2
		c0,0-0.1,0.3-0.4,0.2l-0.1,0.2l4.1,1.6L151.7,95.7z"/>
	<path id="Fill-54" class="st3" d="M109.9,76.8l4,9.1l0.1,0.4c0,0,0.1,0.3-0.1,0.3l0,0.2l4.8,0.5l0-0.2c-0.1,0-0.2-0.1-0.2-0.3
		c0-0.2,0.1-0.3,0.2-0.5l5.4-8.4c0.3-0.4,0.4-0.6,0.7-0.6l0-0.2l-4.2-0.4l0,0.2c0.2,0,0.2,0.2,0.2,0.3c0,0.2-0.2,0.4-0.3,0.7
		l-3.6,5.1l-2.5-5.2c-0.5-1-0.6-1.1-0.6-1.3c0-0.2,0.1-0.2,0.3-0.2l0-0.2l-5-0.4l0,0.2C109.6,76.2,109.7,76.3,109.9,76.8"/>
	<path id="Fill-56" class="st3" d="M30.6,110.2c0,0-0.1,49.8-0.1,54.5h-8l-7.7-37.8l-0.7,0.1v22.6c0,0.2,0.4,3.7,2.8,5.1v10H5.7
		l0-10c0.6-0.4,2.3-1.9,2.2-5.1l0-38.8c0-0.2,0.1-4.4-2.2-5.8l0.1-10h9.8l8,39l0.7-0.1l-0.1-23.7c0-0.2,0.1-4.1-2.2-5.3v-9.9h10.8
		v10.1C32.1,105.5,30.7,106.4,30.6,110.2L30.6,110.2z M31.4,110.2c0.1-4.1,1.8-4.3,1.8-4.3l0.3,0c0,0,0-0.3,0-0.3V94.7v-0.4v0h-0.4
		H21.6h-0.4v0.4v10.5v0.2l0.2,0.1c2.1,0.8,2,4.6,2,4.7c0,0,0,13.4,0.1,20.1l-7.3-35.7l-0.1-0.3h-0.3H5.3H5h0v0.4l-0.1,10.6v0.2
		l0.2,0.1c2.1,1,2,5.2,2,5.2c0,0,0.1,38.8,0.1,38.8c0,3.3-1.9,4.5-2,4.6L5,154.3v0.2l0,10.5v0.4h0.4h12h0l0.3,0l0-0.4v-10.5v-0.2
		l-0.2-0.1c-2.3-1.2-2.6-4.6-2.6-4.6v-18.9l6.8,33.5l0.2,1l0.1,0.3h0.3h8.3H31l0.4,0l0-0.4L31.4,110.2z"/>
	<path id="Fill-58" class="st3" d="M112.7,155.8c-4,9-11.4,9-11.4,9c-3.9-0.1-6.9-1.3-9-3.6c-3.4-3.7-3.1-9-3.1-9.1v-47.4
		c0.2-4,1.5-7.1,3.8-9.2c3.5-3.2,8.3-2.9,8.3-2.9c5.5,0,9.4,5,9.4,5.1l0.2,0.2l0.3-0.1l1.7-0.8v23.8h-9.5v-10.6c0-1.8-0.3-3-1-3.7
		c-0.6-0.6-1.1-0.6-1.2-0.5c-0.5,0-1,0.2-1.3,0.6c-1.2,1.2-1,4-1,4.2v35.4c-0.1,2.2,0.2,3.8,1,4.6c0.6,0.6,1.2,0.6,1.2,0.6
		c0.5,0,1-0.2,1.4-0.6c1.2-1.4,1-4.5,1-4.7c0,0,0-10.5,0-10.5v-0.4H103h-1.4v-7.6h11.1V155.8z M113.4,156L113.4,156v-28.8v-0.4h-0.4
		h-11.9h-0.4v0.4v8.3v0.4h0.4h1.4V146c0.1,0.9,0,3.2-0.8,4.1c-0.2,0.3-0.5,0.4-0.9,0.4c0,0-0.3,0-0.7-0.4c-0.4-0.5-0.9-1.5-0.8-4.1
		v-35.5c0-0.8,0-2.8,0.8-3.6c0.2-0.2,0.5-0.4,0.8-0.4c0,0,0.4,0,0.7,0.4c0.4,0.4,0.8,1.3,0.8,3.2v10.9v0.4h0.4h10.2h0.4v-0.4V96.5
		v-0.6l-0.5,0.2L111,97c-0.8-1-4.6-5.2-9.8-5.2c-0.2,0-5.1-0.2-8.8,3.1c-2.5,2.2-3.8,5.5-4,9.7v47.4c0,0.1-0.1,2.9,1,5.8
		c0.5,1.3,1.2,2.6,2.3,3.8c2.2,2.4,5.4,3.7,9.5,3.9c0.1,0,5.2,0.1,9.4-5C111.7,159.3,112.6,157.9,113.4,156L113.4,156z"/>
	<path id="Fill-60" class="st3" d="M137.4,164.7h-21.8v-10.3c0.6-0.3,2-1.5,1.7-5.4v-40.9c0-0.1,0-2.6-1.8-4V93.7
		c2.1,0.1,12,1,21.7,4.1v23h-6.8c0-2.4-0.1-12.9-3.6-13.1l-0.4,0v0.4v19v0.4h0.4h5.4v7.6h-5.4h-0.4v0.4v16.9v0.3l0.3,0.1
		c0.1,0,0.7,0.2,1.4-0.3c1.2-0.9,2.5-3.6,2.3-11.5h7V164.7z M129.7,140l0,0.4c0.2,8.3-1.2,10.6-2,11.3c-0.2,0.2-0.4,0.2-0.5,0.2
		v-16.1h5.4h0.4v-0.4v-8.4v-0.4h-0.4h-5.4v-18.1c2,0.9,2.6,8,2.5,12.6l0,0.4h0.4h7.5h0.4v-0.4V97.5v-0.3l-0.2-0.1
		c-11-3.6-22.5-4.3-22.6-4.3l-0.4,0v0.4v11.1v0.2l0.2,0.1c1.6,1.1,1.7,3.5,1.7,3.5v40.9c0.3,4.2-1.4,4.7-1.4,4.7l-0.3,0.1
		c0,0,0,11.5,0,11.5l5.6,0l17.8,0v-6V140H129.7z"/>
	<path id="Fill-62" class="st3" d="M161.5,164.7H147v-10.2c0.7-0.4,2.8-1.9,2.7-6.7v-35.1v-0.2l-0.2-0.1c0,0-0.4-0.2-0.9,0.1
		c-1.2,0.7-1.8,3.4-2.1,8.2h-5.9v-22c2.4,0.7,13.9,4.2,26.8,11.7v10.3h-5.6c-0.2-1.5-1-6-2.7-6.4l-0.4-0.1v0.4v33.1
		c0,0.2-0.1,5.2,2.8,6.6V164.7z M162,153.9c-2.7-1.1-2.5-6-2.5-6.1v-32.5c0.8,0.9,1.5,3.7,1.8,5.8l0,0.3h0.3h6.3h0.4v-0.4v-10.8V110
		l-0.2-0.1c-14.7-8.4-27.5-12-27.7-12l-0.5-0.1v0.5v22.9v0.4h0.4h6.6h0.4l0-0.4c0.3-6.3,1.3-7.7,1.7-8c0,0,0,0,0,0v34.7
		c0,5.1-2.4,6-2.5,6.1l-0.2,0.1l0,11.4l3.7,0l12.3,0v-5.7V154L162,153.9z"/>
	<path id="Fill-64" class="st6" d="M32.8,105.2V95.1H22v9.9c2.3,1.2,2.2,5.1,2.2,5.3l0.1,23.7l-0.7,0.1l-8-39H5.7l-0.1,10
		c2.3,1.4,2.2,5.6,2.2,5.8l0,38.8c0,3.2-1.6,4.7-2.2,5.1l0,10H17v-10c-2.5-1.4-2.8-4.9-2.8-5.1V127l0.7-0.1l7.7,37.8h8
		c0-4.8,0.1-54.5,0.1-54.5C30.7,106.4,32.1,105.5,32.8,105.2"/>
	<path id="Fill-66" class="st6" d="M101.6,135.1h1.4h0.4v0.4c0,0,0,10.6,0,10.5c0,0.1,0.2,3.3-1,4.7c-0.4,0.4-0.9,0.6-1.4,0.6
		c-0.1,0-0.6,0-1.2-0.6c-0.8-0.8-1.2-2.4-1-4.6v-35.4c0-0.1-0.1-2.9,1-4.2c0.4-0.4,0.8-0.6,1.3-0.6c0.1,0,0.6,0,1.2,0.6
		c0.7,0.7,1.1,2,1,3.7v10.6h9.5V97l-1.7,0.8l-0.3,0.1l-0.2-0.2c0-0.1-3.9-5.1-9.4-5.1c0,0-4.8-0.2-8.3,2.9c-2.3,2.1-3.6,5.2-3.8,9.2
		v47.4c0,0.1-0.2,5.4,3.1,9.1c2.1,2.3,5.1,3.5,9,3.6c0.1,0,7.4,0.1,11.4-9v-28.3h-11.1V135.1z"/>
	<path id="Fill-68" class="st6" d="M128.1,152.3c-0.7,0.5-1.3,0.4-1.4,0.3l-0.3-0.1v-0.3v-16.9v-0.4h0.4h5.4v-7.6h-5.4h-0.4v-0.4
		v-19v-0.4l0.4,0c3.5,0.2,3.6,10.6,3.6,13.1h6.8v-23c-9.7-3.1-19.7-4-21.7-4.1v10.5c1.8,1.3,1.8,3.9,1.8,4v40.9
		c0.3,3.9-1.1,5-1.7,5.4v10.3h21.8v-23.9h-7C130.6,148.7,129.3,151.4,128.1,152.3"/>
	<path id="Fill-70" class="st6" d="M158.7,147.8v-33.1v-0.4l0.4,0.1c1.8,0.3,2.5,4.8,2.7,6.4h5.6v-10.3c-12.9-7.4-24.4-11-26.8-11.7
		v22h5.9c0.2-4.8,0.9-7.6,2.1-8.2c0.5-0.3,0.8-0.1,0.9-0.1l0.2,0.1v0.2v35.1c0.1,4.8-2,6.3-2.7,6.7v10.2h14.5v-10.2
		C158.6,153.1,158.7,148,158.7,147.8"/>
	<path id="Fill-72" class="st5" d="M170.1,142.4V142h0.4h9.5h0.4v0.4c0,0,0,5.9,0,6c0,0,0,2.4,1,3.4c0.3,0.3,0.7,0.5,1.2,0.5h0l0,0
		c0,0,0.5,0,1-0.4c0.6-0.6,1-1.7,1.1-3.3c0,0,0-6.2,0-6.2c0,0,0.3-3.9-2.1-5.3c0,0-8-5.6-8-5.6c-0.2-0.1-4.7-3-4.8-11v-13.5
		c0-0.1-0.3-10.4,10-12.6c0.6-0.1,1.3-0.2,2-0.3c0,0,0,0,0.1,0c-1.6,0-7,0.3-10.4,0.3l-7.3,11.5l-0.6-0.4
		c-0.2-0.1-23.9-13.8-58.5-15.3c-1.3,0-33.3-0.9-61.4,13.6l-0.6,0.3l-0.4-0.6c0,0-0.1-0.2-0.3-0.5c0,0,0,0,0-0.1
		c-0.9-1.4-3.2-5.2-5.3-8.4h-3.4v0.4v10.8c0,0,0,0.3,0,0.3l-0.3,0c0,0-1.7,0.2-1.8,4.3l-0.1,54.9l0,0.4c0,0,5.7-3.2,7.2-4.1
		c-3.4-4.6-2.9-11.4-2.9-11.7v-25.5c0-0.9-0.2-1.5-0.6-1.8c-0.4-0.3-0.9-0.1-0.9-0.1l-0.5,0.2v-0.5v-10.5v-0.2l0.1-0.1
		c4.5-3.3,12.5-6.6,12.5-6.7l0.5-0.2v0.6v10.5v0.2l-0.1,0.1c-0.7,0.7-0.8,3.7-0.7,5.5v25.4c-0.1,2.7,0.5,3.6,0.9,3.9
		c0.3,0.3,0.6,0.2,0.6,0.2l0,0h0c0.2,0,0.3,0,0.4-0.2c0.7-0.7,0.8-3.1,0.8-4c0,0,0.1-29.5,0.1-29.5c0-1.2-0.2-1.6-0.4-1.7
		c-0.1-0.1-0.3-0.1-0.3-0.1l-0.4,0.1v-0.4V104v-0.2l0.2-0.1c8.3-4,12.9-5,12.9-5.1l0.5-0.1V99v11v0.2l-0.2,0.1
		c-2.1,1.2-1.9,4.5-1.9,4.5v35.5c0.2,5.2-1.1,9.1-3.7,11.8c-0.1,0.1-0.2,0.2-0.4,0.3c-0.2,0.2-0.4,0.4-0.6,0.6
		c1.3-0.8,7.1-4.5,8.3-5.3c-1-2.8-1-5.3-1-5.4v-43.7c0.7-13.4,12.5-13.5,12.6-13.5c5.5-0.2,9.1,3.8,9.9,4.9l1.6-0.7l0.5-0.2v0.6
		v21.6v0.4h-0.4h-10h-0.4v-0.4v-7.8c0-1.9-0.4-2.7-0.8-3.1c-0.3-0.3-0.7-0.4-0.7-0.4c-0.3,0-0.6,0.1-0.8,0.3
		c-0.8,0.8-0.8,2.8-0.8,3.6v32.3c-0.1,2.4,0.3,3.5,0.8,4c0.3,0.4,0.7,0.4,0.7,0.4c0.3,0,0.6-0.1,0.9-0.4c0.8-0.9,0.8-3.2,0.8-4
		v-10.2h-1.4h-0.4v-0.4v-8.3v-0.4h0.4h11.6h0.4v0.4v28.9v0.1l0,0.1c-0.2,0.4-0.3,0.8-0.5,1.1c0,0.1-0.1,0.1-0.1,0.2
		c-0.1,0.3-0.3,0.5-0.4,0.8c-0.1,0.2-0.3,0.5-0.4,0.7c0,0,0,0,0,0.1c-1,1.6-2.1,2.8-3.3,3.7c1.5-0.9,6.6-4.1,7.8-4.8
		c-1.2-3-1-5.7-1-5.8v-47.4c0.2-4.2,1.6-7.5,4-9.7c3.7-3.4,8.6-3.1,8.8-3.1c5.2,0,8.9,4.1,9.8,5.2l1.9-0.9l0.5-0.2v0.6v24.7v0.4
		h-0.4h-10.2h-0.4v-0.4v-10.9c0-1.9-0.4-2.8-0.8-3.2c-0.3-0.4-0.7-0.4-0.7-0.4c-0.3,0-0.6,0.1-0.8,0.3c-0.8,0.8-0.9,2.9-0.8,3.6
		v35.5c-0.1,2.5,0.4,3.6,0.8,4c0.3,0.4,0.7,0.4,0.7,0.4c0.4,0,0.6-0.1,0.9-0.4c0.8-0.9,0.9-3.3,0.8-4.1v-10.2h-1.4h-0.4v-0.4v-8.3
		v-0.4h0.4h11.9h0.4v0.4v28.7v0.1l0,0.1c-0.8,1.8-1.7,3.3-2.7,4.5c0.8,0.9,4.2,4.9,4.2,4.9s0-11.5,0-11.5l0.3-0.1
		c0,0,1.7-0.5,1.4-4.7v-40.9c0,0,0-2.4-1.7-3.5l-0.2-0.1v-0.2V93.3v-0.4l0.4,0c0.1,0,11.6,0.6,22.6,4.3l0.2,0.1v0.3v23.6v0.4h-0.4
		h-7.5h-0.4l0-0.4c0.1-4.6-0.6-11.7-2.5-12.6v18.1h5.4h0.4v0.4v8.4v0.4h-0.4h-5.4v16.1c0.1,0,0.3-0.1,0.5-0.2c0.8-0.7,2.2-3,2-11.3
		l0-0.4h8.5v19.4c1.5,1.1,8.1,6,8.1,6l0-11.4l0.2-0.1c0.1,0,2.5-1,2.5-6.1v-34.7c0,0,0,0,0,0c-0.4,0.3-1.4,1.6-1.7,8l0,0.4h-0.4
		h-6.6h-0.4v-0.4V98.3v-0.5l0.5,0.1c0.1,0,13,3.5,27.7,12l0.2,0.1v0.2v10.8v0.4h-0.4h-6.3h-0.3l0-0.3c-0.2-2.1-0.9-4.9-1.8-5.8v32.5
		c0,0-0.1,5,2.5,6.1l0.2,0.1v5.8c1.4,0.8,7.9,4.2,7.9,4.2l0-0.7V142.4z"/>
	<path id="Fill-74" class="st5" d="M23.5,130.3c0-6.7-0.1-20.1-0.1-20.1c0,0,0.1-3.8-2-4.7l-0.2-0.1v-0.2V94.7v-0.4l-5.1,0l0.1,0.3
		L23.5,130.3z"/>
	<path id="Fill-76" class="st5" d="M16.1,94.3h-0.3H16.1z"/>
	<path id="Fill-78" class="st3" d="M194.4,97.5v22.8h-8.9v-9.9c0-0.1,0.1-2.1-1.1-3.3c-0.5-0.5-1.2-0.8-2-0.8c-0.1,0-2.7,0-2.7,4.4
		v7.7c0,0.1-0.2,4,1.9,5.3c0,0,3.5,2.5,8.7,6.2c0,0,4.2,3.4,4.1,10.4v14.2c0,0,0,4.2-3,7.1c-2.1,2.1-5.2,3.2-9.2,3.1
		c-0.1,0-4.9,0.3-9-3.9l-0.2-0.2l-0.3,0.2l-1.9,1.6v-19.7h8.8c0,1.3,0,5.6,0,5.6c0,0.1,0,2.7,1.2,3.9c0.5,0.5,1.1,0.7,1.7,0.7h0
		c0,0,0.8,0.1,1.5-0.6c0.8-0.7,1.3-2,1.4-3.8v-6.2c0-0.1,0.3-4.3-2.5-6c0,0-8-5.6-8-5.6c-0.1,0-4.3-2.8-4.5-10.4v-13.5
		c0-0.5-0.3-11.4,12-12.3c0.1,0,6.1-0.2,9.6,3.6l0.2,0.2l0.2-0.1L194.4,97.5z M182.5,93.8c-0.3,0-0.5,0-0.8,0.1
		c-0.7,0.1-1.3,0.2-2,0.3c-10.3,2.3-10,12.5-10,12.6v13.5c0.2,8,4.6,10.9,4.8,11c0,0,8,5.6,8,5.6c2.4,1.4,2.1,5.3,2.1,5.3
		c0,0,0,6.2,0,6.2c-0.1,1.6-0.5,2.7-1.1,3.3c-0.5,0.4-1,0.4-1,0.4l0,0h0c-0.5,0-0.9-0.1-1.2-0.5c-1-1-1-3.4-1-3.4c0,0,0-6,0-6V142
		H180h-9.5h-0.4v0.4v20.8l0,0.7l0.2-0.1l0.4-0.3l2.3-1.9c4.3,4.2,9.1,3.9,9.3,3.9c4.1,0,7.4-1.1,9.7-3.4c3.2-3.2,3.2-7.5,3.2-7.6
		v-14.2c0.1-7.4-4.2-10.8-4.4-11c-5.2-3.7-8.7-6.2-8.7-6.2c-0.7-0.5-1.1-1.4-1.3-2.3c-0.1-0.5-0.2-1-0.2-1.4c0,0,0-0.1,0-0.1
		c0-0.2,0-0.4,0-0.5v0c0-0.1,0-0.2,0-0.2v0v-0.1v0v-7.7c0.1-3.6,1.9-3.7,2-3.7c0.6,0,1.1,0.2,1.5,0.5c0.9,0.9,0.9,2.7,0.9,2.8v10.3
		l0,0.4h0.3l2.9,0l6.7,0h0.4v-0.4V97v-0.5l-0.5,0.2l-2.2,0.8C188.7,93.6,182.7,93.8,182.5,93.8L182.5,93.8z"/>
	<path id="Fill-80" class="st6" d="M192.1,98.1c-3.5-3.8-9.5-3.6-9.6-3.6c-12.4,0.8-12.1,11.8-12,12.3v13.5
		c0.2,7.5,4.4,10.3,4.5,10.4c0,0,8,5.6,8,5.6c2.8,1.7,2.5,5.8,2.5,6v6.2c-0.1,1.8-0.5,3.1-1.4,3.8c-0.7,0.6-1.5,0.6-1.5,0.6h0
		c-0.7,0-1.3-0.2-1.7-0.7c-1.3-1.3-1.2-3.8-1.2-3.9c0,0,0-4.3,0-5.6h-8.8v19.7l1.9-1.6l0.3-0.2l0.2,0.2c4.1,4.2,8.9,3.9,9,3.9
		c4,0,7.1-1,9.2-3.1c3-3,3-7.1,3-7.1v-14.2c0.1-7-4.1-10.3-4.1-10.4c-5.1-3.7-8.7-6.2-8.7-6.2c-2.1-1.4-1.9-5.2-1.9-5.3v-7.7
		c0.1-4.4,2.6-4.4,2.7-4.4c0.8,0,1.5,0.2,2,0.8c1.1,1.1,1.1,3.2,1.1,3.3v9.9h8.9V97.5l-2,0.7l-0.2,0.1L192.1,98.1z"/>
	<path id="Fill-82" class="st3" d="M74.5,164.8c-3.6,0-6.4-1.1-8.4-3.2c-3.5-3.6-3.4-9.2-3.4-9.3v-43.7C63.3,96,74.1,95.8,74.5,95.8
		c5.8-0.2,9.5,4.8,9.5,4.8l0.2,0.2l0.3-0.1l1.3-0.6v20.6h-9.3v-7.4c0-1.7-0.3-3-1-3.6c-0.6-0.5-1.1-0.5-1.2-0.5
		c-0.5,0-0.9,0.2-1.3,0.6c-1.1,1.2-1,4-1,4.1v32.3c-0.1,2.2,0.2,3.7,1,4.5c0.6,0.6,1.1,0.6,1.2,0.6c0.5,0,1-0.2,1.4-0.6
		c1.2-1.3,1-4.4,1-4.6v-10.5v-0.4h-0.4h-1.3v-7.6h10.9V156C81.8,165,74.8,164.8,74.5,164.8 M85,159C85,159,85,159,85,159
		c0.2-0.3,0.3-0.5,0.4-0.7c0.1-0.2,0.3-0.5,0.4-0.8c0-0.1,0.1-0.1,0.1-0.2c0.2-0.4,0.4-0.7,0.5-1.1l0-0.1v-0.1v-28.9v-0.4h-0.4H74.5
		h-0.4v0.4v8.3v0.4h0.4h1.3v10.2c0.1,0.8,0.1,3.1-0.8,4c-0.2,0.3-0.5,0.4-0.9,0.4c0,0-0.3,0-0.7-0.4c-0.4-0.5-0.9-1.5-0.8-4v-32.3
		c0-0.7,0-2.7,0.8-3.6c0.2-0.2,0.5-0.3,0.8-0.3c0,0,0.3,0,0.7,0.4c0.4,0.4,0.8,1.2,0.8,3.1v7.8v0.4h0.4h10h0.4v-0.4V99.6V99L86,99.2
		l-1.6,0.7c-0.8-1-4.4-5.1-9.9-4.9c-0.1,0-11.9,0.2-12.6,13.5v43.7c0,0.2,0,2.6,1,5.4c0.5,1.5,1.4,3,2.7,4.4c2.2,2.2,5.2,3.4,9,3.4
		c0,0,3.3,0.1,6.8-2.5c0.1-0.1,0.3-0.2,0.4-0.3C82.8,161.8,83.9,160.6,85,159"/>
	<path id="Fill-84" class="st6" d="M85.7,156v-28.4H74.8v7.6h1.3h0.4v0.4V146c0,0.1,0.2,3.2-1,4.6c-0.4,0.4-0.8,0.6-1.4,0.6
		c-0.1,0-0.6,0-1.2-0.6c-0.8-0.8-1.1-2.3-1-4.5v-32.3c0-0.1-0.1-2.9,1-4.1c0.4-0.4,0.8-0.6,1.3-0.6c0.1,0,0.6,0,1.2,0.5
		c0.7,0.7,1,1.9,1,3.6v7.4h9.3v-20.6l-1.3,0.6l-0.3,0.1l-0.2-0.2c0,0-3.7-5-9.5-4.8c-0.5,0-11.2,0.2-11.9,12.8v43.7
		c0,0.1-0.1,5.6,3.4,9.3c2,2.1,4.9,3.2,8.4,3.2C74.8,164.8,81.8,165,85.7,156"/>
	<path id="Fill-86" class="st3" d="M47.6,164.8c-3.3,0-5.9-1.1-7.8-3.2c-4-4.4-3.4-11.9-3.4-12v-25.5c0-1.2-0.3-2-0.9-2.4
		c-0.4-0.3-0.8-0.3-1.1-0.3v-9.9c3.8-2.7,9.9-5.5,11.7-6.3v9.8c-1,1.3-0.8,5.4-0.8,5.9v25.4c-0.1,2.3,0.3,3.8,1.1,4.5
		c0.5,0.5,1.1,0.4,1.2,0.4c0.3,0,0.6-0.1,0.9-0.4c1.1-1,1-4.2,1-4.5c0,0,0.1-29.5,0.1-29.5c0-1.1-0.2-1.9-0.7-2.3
		c-0.1-0.1-0.3-0.2-0.4-0.2v-10.2c6.7-3.1,10.8-4.4,12.1-4.8v10.3c-2.3,1.5-2.1,4.9-2.1,5.1v35.5c0.1,5-1,8.8-3.5,11.3
		C51.9,164.9,47.7,164.8,47.6,164.8 M55.6,162.2c2.6-2.7,3.9-6.6,3.7-11.8v-35.5c0-0.1-0.2-3.3,1.9-4.6l0.2-0.1V110V99v-0.5
		l-0.5,0.1c0,0-4.6,1.1-12.9,5.1l-0.2,0.1v0.2v10.7v0.4l0.4-0.1c0,0,0.1,0,0.3,0.1c0.2,0.1,0.4,0.6,0.4,1.7c0,0-0.1,29.5-0.1,29.5
		c0,0.9-0.1,3.3-0.8,4c-0.1,0.1-0.3,0.2-0.4,0.2l0,0l0,0c0,0-0.3,0-0.6-0.2c-0.4-0.3-1-1.2-0.9-3.9V121c-0.1-1.8,0-4.8,0.7-5.5
		l0.1-0.1v-0.2v-10.5v-0.6l-0.5,0.2c-0.1,0-8,3.4-12.5,6.7l-0.1,0.1v0.2v10.5v0.5l0.5-0.2c0,0,0.5-0.2,0.9,0.1
		c0.4,0.3,0.6,0.9,0.6,1.8v25.5c0,0.3-0.6,7,2.9,11.7c0.2,0.3,0.4,0.6,0.7,0.8c2,2.2,4.8,3.4,8.3,3.4c0.1,0,2.8,0,5.5-1.6
		c0.5-0.3,1-0.6,1.4-1c0.2-0.2,0.4-0.4,0.6-0.6C55.3,162.4,55.4,162.3,55.6,162.2"/>
	<path id="Fill-88" class="st6" d="M58.5,150.4v-35.5c0-0.1-0.2-3.5,2.1-5.1V99.4c-1.3,0.4-5.5,1.7-12.1,4.8v10.2
		c0.1,0,0.3,0.1,0.4,0.2c0.5,0.4,0.7,1.2,0.7,2.3c0,0-0.1,29.5-0.1,29.5c0,0.3,0.1,3.4-1,4.5c-0.3,0.2-0.6,0.4-0.9,0.4
		c-0.1,0-0.7,0.1-1.2-0.4c-0.8-0.7-1.2-2.2-1.1-4.5V121c0-0.5-0.2-4.6,0.8-5.9v-9.8c-1.8,0.8-7.9,3.6-11.7,6.3v9.9
		c0.3,0,0.7,0,1.1,0.3c0.6,0.4,0.9,1.2,0.9,2.4v25.5c0,0.1-0.6,7.6,3.4,12c1.9,2.1,4.5,3.1,7.8,3.2c0,0,4.3,0,7.4-3.2
		C57.5,159.1,58.7,155.3,58.5,150.4"/>
	<path id="Fill-90" class="st5" d="M104.6,39l27.9,23.5v0l1.7,1.4l-3.4-1.4l-14.6-6.1v6.2v1.7l-1.7-1.7v0l-5.4-5.3l-1.9,5.3
		l-2.1,5.7l-2.5-5.7l-2.5-5.7l-6.1,5l-1.9-6.2L76,62.3L104.6,39z M72.1,62.6l-0.9,0.7l0.2,0.2l-0.1,0.1c0,0-19.7,16.2-21.4,17.6
		c0.9-0.3,1.8-0.6,2.8-0.9C60,77.9,67.8,76,76,74.6c4.2-0.7,8.4-1.3,12.6-1.7c3.9-0.4,8-0.6,12-0.7c0.3,0,25.8-1.3,56.3,10.5
		c1.5,0.6,3.1,1.1,4.6,1.8l-25.2-21.4l0.2-0.2l-0.9-0.7l-0.1-0.1l-30.9-26.3L72.2,62.6L72.1,62.6z"/>
	<polygon id="Fill-92" class="st3" points="94,62.1 100.1,57.1 102.6,62.8 105.2,68.5 107.2,62.8 109.1,57.5 114.5,62.7 114.5,62.7 
		116.2,64.4 116.2,62.7 116.2,56.5 130.8,62.6 134.2,64 132.5,62.6 132.5,62.6 104.6,39 76,62.3 92.1,55.9 	"/>
</g>
</svg>
