<?xml version="1.0" encoding="utf-8"?>
<!-- Generator: Adobe Illustrator 21.1.0, SVG Export Plug-In . SVG Version: 6.00 Build 0)  -->
<svg version="1.1" id="Layer_1" xmlns="http://www.w3.org/2000/svg" xmlns:xlink="http://www.w3.org/1999/xlink" x="0px" y="0px"
	 viewBox="0 0 200 200" style="enable-background:new 0 0 200 200;" xml:space="preserve">
<style type="text/css">
	.st0{fill:#FEFEFE;}
	.st1{fill:#FFFFFF;}
	.st2{fill:#006AB6;}
	.st3{fill:#ED174B;}
</style>
<g>
	<circle class="st0" cx="100" cy="100" r="100"/>
	<path id="Fill-4_7_" class="st0" d="M197.1,100c0,53.5-43.5,97.1-97.1,97.1c-53.8,0-97.1-43.5-97.1-97.1C2.9,46.3,46.5,2.9,100,2.9
		C153.5,2.9,197.1,46.3,197.1,100"/>
	<path id="Fill-6_7_" class="st0" d="M182.9,100c0,45.8-37.1,82.9-82.9,82.9S17.1,145.8,17.1,100S54.2,17.1,100,17.1
		S182.9,54.2,182.9,100"/>
	<path id="Fill-8_7_" class="st0" d="M100,178.1c-33.1,0-61.5-20.6-72.7-49.8c14,19,41.3,31.9,72.7,31.9s59-12.9,72.7-31.9
		C161.5,157.3,133.1,178.1,100,178.1 M100,21.9c33.1,0,61.5,20.6,72.7,49.8c-14-19-41.3-31.9-72.7-31.9S41,52.7,27.3,71.7
		C38.5,42.7,66.9,21.9,100,21.9 M22.1,102.5h15.2v-4.8H22.1c0-1.9,0.2-3.8,0.4-5.4C27.7,64.8,60.4,44,100,44s72.3,21,77.7,48.1
		c0.2,1.9,0.2,3.5,0.4,5.4h-15.2v4.8h15.2c0,1.9-0.2,3.8-0.4,5.4c-5.4,27.5-38.1,48.3-77.7,48.3s-72.3-21-77.7-48.1
		C22.1,106,22.1,104.4,22.1,102.5 M100,17.1c-45.6,0-82.9,37.1-82.9,82.9c0,45.6,37.1,82.9,82.9,82.9c45.6,0,82.9-37.1,82.9-82.9
		C182.9,54.4,145.6,17.1,100,17.1"/>
	<polygon id="Fill-10_7_" class="st0" points="65,128.5 70.8,128.5 70.8,102.1 65,102.1 	"/>
	<path id="Fill-12_7_" class="st0" d="M87.5,102.1L87.5,102.1c-1.9,0-7.7,0-9,0h-0.2c-1.7,0-2.9,0.8-3.1,2.3c0,0.2,0,0.4,0,0.4
		s-0.4,5,0,6.5c0.8,2.3,2.7,3.1,4.4,3.5h0.2c0.2,0,0.2,0,0.4,0c0.2,0,0.4,0.2,0.4,0.2v9.4h-4.8v3.5h6.5l0,0c2.3,0,3.8-1,4.4-2.7
		c0.2-1.3,0.2-10.2,0-11.9c0-0.6-0.4-1.3-1-1.7c-0.2-0.2-0.6-0.4-1-0.6c-0.4-0.2-0.6-0.4-1-0.6c-1.5-0.6-2.9-1.5-2.9-3.1v-1.5h4.6
		c1,0,1.7-0.4,2.1-1.2c0.4-0.6,0.4-1.3,0.4-1.5C87.5,103.1,87.5,102.7,87.5,102.1L87.5,102.1z"/>
	<path id="Fill-14_7_" class="st0" d="M112.3,108.1c0-0.6,0-1.2,0.2-1.7h0.2c0.2,0,0.4,0,0.8,0h0.2c2.1,0,2.1,0.6,2.1,4.2v11
		c0,0.4,0,0.6,0,1c0,0.4,0,0.6-0.2,0.8h-0.2c-0.4,0-0.6,0-1,0c-0.6,0-1.2-0.2-1.5-0.4c-0.4-0.4-0.4-1.3-0.4-2.3v-11
		C112.3,109.8,112.3,108.5,112.3,108.1 M114.2,102.1c-1.2,0-2.7,0-3.8,0.4c-2.9,0.6-4.2,2.7-4.2,5.8V124c0,4,2.9,4.8,7.1,4.8
		c5.2,0,8.1-1.9,8.1-5v-16.3C121.5,102.1,118.1,102.1,114.2,102.1"/>
	<path id="Fill-16_7_" class="st0" d="M135.2,113.3c-2.7-10.2-7.3-11.3-9.2-11.3c-0.4,0-0.8,0-0.8,0H125v26.2h5.8v-10.6l4.2,10.6h6
		v-26h-6v11H135.2z"/>
	<path id="Fill-18_7_" class="st0" d="M55.4,113.8h-3.3v-7.5c0,0,1.9,0,2.1,0c0.6,0,1.2,0.4,1.2,1C55.4,107.5,55.4,113.8,55.4,113.8
		 M57.9,102.1H43.1h-0.2v0.2c0,0-0.2,3.1,3.3,3.8v22.3h6v-11.3h5c2.7,0,4.2-1.9,4.2-4.8v-1C61.7,104,61.3,102.5,57.9,102.1"/>
	<path id="Fill-20_7_" class="st0" d="M104.4,102.3H90.6v4.2h4v22.3h6v-22.3h0.2c1,0,1.9-0.4,2.5-1
		C104.4,104.2,104.4,102.5,104.4,102.3L104.4,102.3z"/>
	<path id="Fill-22_7_" class="st0" d="M157.1,102.1L157.1,102.1c-1.9,0-7.7,0-9,0h-0.2c-1.7,0-2.9,0.8-3.1,2.3c0,0.2,0,0.4,0,0.4
		s-0.4,5,0,6.5c0.8,2.3,2.7,3.1,4.4,3.5h0.2c0.2,0,0.2,0,0.4,0s0.4,0.2,0.4,0.2v9.4h-4.8v3.5h6.5l0,0c2.3,0,3.8-1,4.4-2.7
		c0.2-1.3,0.2-10.2,0-11.9c0-0.6-0.4-1.3-1-1.7c-0.2-0.2-0.6-0.4-1-0.6c-0.4-0.2-0.6-0.4-1-0.6c-1.5-0.6-2.9-1.5-2.9-3.1v-1.5h4.6
		c1,0,1.7-0.4,2.1-1.2c0.4-0.6,0.4-1.3,0.4-1.5C157.1,103.1,157.1,102.7,157.1,102.1L157.1,102.1z"/>
	<path id="Fill-24_7_" class="st0" d="M103.3,75.2h1h0.2c1.5,0,2.1,0,2.1,2.7c0,2.1,0,2.3,0,3.3v0.2c0,0.2-0.2,0.6-0.4,0.8
		c-0.2,0.2-0.2,0.2-0.4,0.2h-2.3v-7.3H103.3z M103.3,85.8h1c1,0,2.7,0.4,2.7,2.1c0,0.8,0,3.5,0,4.4v0.4c0,0.2,0,1.5,0.2,1.7
		c0.4,1.5,1.7,2.5,3.5,2.7h1.7v-9.4c0-0.8-0.4-1.9-1-2.7l-0.2-0.2c1-1,1.3-2.1,1.3-3.8v-0.8c0-7.3-0.2-8.8-3.8-9.2H97.3v25.6h5.8
		V85.8H103.3z"/>
	<polygon id="Fill-26_7_" class="st0" points="139.6,71.3 134,71.3 134,96.9 139.6,96.9 	"/>
	<path id="Fill-28_7_" class="st0" d="M84.8,96.9h5.8V75.2h0.2c1,0,1.9-0.4,2.5-1c1-1,1-2.7,1-2.9V71H81v4h3.8V96.9z"/>
	<path id="Fill-30_7_" class="st0" d="M146.5,96.9h5.8V75.2h0.2c1,0,1.9-0.4,2.5-1c1-1,1-2.7,1-2.9V71h-13.3v4h3.8V96.9z"/>
	<polygon id="Fill-32_7_" class="st0" points="77.9,92.7 71.9,92.7 71.9,86.5 76,86.5 76,80.8 71.9,80.8 71.9,75 77.9,75 77.9,71.3 
		66,71.3 66,96.9 77.9,96.9 	"/>
	<path id="Fill-34_7_" class="st0" d="M56.7,92.7h-3.3V75.2c2.1,0,2.5,0,2.5,0.2c0.8,0.2,0.8,1.7,0.8,1.7C56.7,79,56.7,91,56.7,92.7
		 M58.5,71.3H44v0.2c0,0-0.2,1.5,0.8,2.7c0.6,0.6,1.5,1,2.7,1.2v21.7h10.8c2.5,0,4.2-2.1,4.2-5.2V80C62.5,73.1,62.5,71.3,58.5,71.3"
		/>
	<path id="Fill-36_7_" class="st0" d="M121.7,76.9c0-0.6,0-1.2,0.2-1.7h0.2c0.2,0,0.4,0,0.8,0l0,0c1.9,0,2.1,0.6,2.1,4.2v10.8
		c0,0.4,0,0.6,0,1c0,0.2,0,0.6-0.2,0.8h-0.2c-0.4,0-0.6,0-1,0c-0.6,0-1.2-0.2-1.5-0.4c-0.4-0.4-0.4-1.2-0.4-2.1V78.8
		C121.7,78.5,121.7,77.3,121.7,76.9 M123.5,71.3c-1.2,0-2.7,0-3.8,0.4c-2.9,0.6-4.2,2.5-4.2,5.8v15.4c0,4,2.9,4.8,7.1,4.8
		c5.2,0,8.1-1.9,8.1-5v-16C130.8,71.3,127.5,71.3,123.5,71.3"/>
	<circle class="st1" cx="100" cy="100" r="100"/>
	<path id="Fill-4_6_" class="st2" d="M197.1,100c0,53.5-43.5,97.1-97.1,97.1c-53.8,0-97.1-43.5-97.1-97.1C2.9,46.3,46.5,2.9,100,2.9
		C153.5,2.9,197.1,46.3,197.1,100"/>
	<path id="Fill-6_6_" class="st3" d="M182.9,100c0,45.8-37.1,82.9-82.9,82.9S17.1,145.8,17.1,100S54.2,17.1,100,17.1
		S182.9,54.2,182.9,100"/>
	<path id="Fill-8_6_" class="st0" d="M100,178.1c-33.1,0-61.5-20.6-72.7-49.8c14,19,41.3,31.9,72.7,31.9s59-12.9,72.7-31.9
		C161.5,157.3,133.1,178.1,100,178.1 M100,21.9c33.1,0,61.5,20.6,72.7,49.8c-14-19-41.3-31.9-72.7-31.9S41,52.7,27.3,71.7
		C38.5,42.7,66.9,21.9,100,21.9 M22.1,102.5h15.2v-4.8H22.1c0-1.9,0.2-3.8,0.4-5.4C27.7,64.8,60.4,44,100,44s72.3,21,77.7,48.1
		c0.2,1.9,0.2,3.5,0.4,5.4h-15.2v4.8h15.2c0,1.9-0.2,3.8-0.4,5.4c-5.4,27.5-38.1,48.3-77.7,48.3s-72.3-21-77.7-48.1
		C22.1,106,22.1,104.4,22.1,102.5 M100,17.1c-45.6,0-82.9,37.1-82.9,82.9c0,45.6,37.1,82.9,82.9,82.9c45.6,0,82.9-37.1,82.9-82.9
		C182.9,54.4,145.6,17.1,100,17.1"/>
	<polygon id="Fill-10_6_" class="st0" points="65,128.5 70.8,128.5 70.8,102.1 65,102.1 	"/>
	<path id="Fill-12_6_" class="st0" d="M87.5,102.1L87.5,102.1c-1.9,0-7.7,0-9,0h-0.2c-1.7,0-2.9,0.8-3.1,2.3c0,0.2,0,0.4,0,0.4
		s-0.4,5,0,6.5c0.8,2.3,2.7,3.1,4.4,3.5h0.2c0.2,0,0.2,0,0.4,0c0.2,0,0.4,0.2,0.4,0.2v9.4h-4.8v3.5h6.5l0,0c2.3,0,3.8-1,4.4-2.7
		c0.2-1.3,0.2-10.2,0-11.9c0-0.6-0.4-1.3-1-1.7c-0.2-0.2-0.6-0.4-1-0.6c-0.4-0.2-0.6-0.4-1-0.6c-1.5-0.6-2.9-1.5-2.9-3.1v-1.5h4.6
		c1,0,1.7-0.4,2.1-1.2c0.4-0.6,0.4-1.3,0.4-1.5C87.5,103.1,87.5,102.7,87.5,102.1L87.5,102.1z"/>
	<path id="Fill-14_6_" class="st0" d="M112.3,108.1c0-0.6,0-1.2,0.2-1.7h0.2c0.2,0,0.4,0,0.8,0h0.2c2.1,0,2.1,0.6,2.1,4.2v11
		c0,0.4,0,0.6,0,1c0,0.4,0,0.6-0.2,0.8h-0.2c-0.4,0-0.6,0-1,0c-0.6,0-1.2-0.2-1.5-0.4c-0.4-0.4-0.4-1.3-0.4-2.3v-11
		C112.3,109.8,112.3,108.5,112.3,108.1 M114.2,102.1c-1.2,0-2.7,0-3.8,0.4c-2.9,0.6-4.2,2.7-4.2,5.8V124c0,4,2.9,4.8,7.1,4.8
		c5.2,0,8.1-1.9,8.1-5v-16.3C121.5,102.1,118.1,102.1,114.2,102.1"/>
	<path id="Fill-16_6_" class="st0" d="M135.2,113.3c-2.7-10.2-7.3-11.3-9.2-11.3c-0.4,0-0.8,0-0.8,0H125v26.2h5.8v-10.6l4.2,10.6h6
		v-26h-6v11H135.2z"/>
	<path id="Fill-18_6_" class="st0" d="M55.4,113.8h-3.3v-7.5c0,0,1.9,0,2.1,0c0.6,0,1.2,0.4,1.2,1C55.4,107.5,55.4,113.8,55.4,113.8
		 M57.9,102.1H43.1h-0.2v0.2c0,0-0.2,3.1,3.3,3.8v22.3h6v-11.3h5c2.7,0,4.2-1.9,4.2-4.8v-1C61.7,104,61.3,102.5,57.9,102.1"/>
	<path id="Fill-20_6_" class="st0" d="M104.4,102.3H90.6v4.2h4v22.3h6v-22.3h0.2c1,0,1.9-0.4,2.5-1
		C104.4,104.2,104.4,102.5,104.4,102.3L104.4,102.3z"/>
	<path id="Fill-22_6_" class="st0" d="M157.1,102.1L157.1,102.1c-1.9,0-7.7,0-9,0h-0.2c-1.7,0-2.9,0.8-3.1,2.3c0,0.2,0,0.4,0,0.4
		s-0.4,5,0,6.5c0.8,2.3,2.7,3.1,4.4,3.5h0.2c0.2,0,0.2,0,0.4,0s0.4,0.2,0.4,0.2v9.4h-4.8v3.5h6.5l0,0c2.3,0,3.8-1,4.4-2.7
		c0.2-1.3,0.2-10.2,0-11.9c0-0.6-0.4-1.3-1-1.7c-0.2-0.2-0.6-0.4-1-0.6c-0.4-0.2-0.6-0.4-1-0.6c-1.5-0.6-2.9-1.5-2.9-3.1v-1.5h4.6
		c1,0,1.7-0.4,2.1-1.2c0.4-0.6,0.4-1.3,0.4-1.5C157.1,103.1,157.1,102.7,157.1,102.1L157.1,102.1z"/>
	<path id="Fill-24_6_" class="st0" d="M103.3,75.2h1h0.2c1.5,0,2.1,0,2.1,2.7c0,2.1,0,2.3,0,3.3v0.2c0,0.2-0.2,0.6-0.4,0.8
		c-0.2,0.2-0.2,0.2-0.4,0.2h-2.3v-7.3H103.3z M103.3,85.8h1c1,0,2.7,0.4,2.7,2.1c0,0.8,0,3.5,0,4.4v0.4c0,0.2,0,1.5,0.2,1.7
		c0.4,1.5,1.7,2.5,3.5,2.7h1.7v-9.4c0-0.8-0.4-1.9-1-2.7l-0.2-0.2c1-1,1.3-2.1,1.3-3.8v-0.8c0-7.3-0.2-8.8-3.8-9.2H97.3v25.6h5.8
		V85.8H103.3z"/>
	<polygon id="Fill-26_6_" class="st0" points="139.6,71.3 134,71.3 134,96.9 139.6,96.9 	"/>
	<path id="Fill-28_6_" class="st0" d="M84.8,96.9h5.8V75.2h0.2c1,0,1.9-0.4,2.5-1c1-1,1-2.7,1-2.9V71H81v4h3.8V96.9z"/>
	<path id="Fill-30_6_" class="st0" d="M146.5,96.9h5.8V75.2h0.2c1,0,1.9-0.4,2.5-1c1-1,1-2.7,1-2.9V71h-13.3v4h3.8V96.9z"/>
	<polygon id="Fill-32_6_" class="st1" points="77.9,92.7 71.9,92.7 71.9,86.5 76,86.5 76,80.8 71.9,80.8 71.9,75 77.9,75 77.9,71.3 
		66,71.3 66,96.9 77.9,96.9 	"/>
	<path id="Fill-34_6_" class="st0" d="M56.7,92.7h-3.3V75.2c2.1,0,2.5,0,2.5,0.2c0.8,0.2,0.8,1.7,0.8,1.7C56.7,79,56.7,91,56.7,92.7
		 M58.5,71.3H44v0.2c0,0-0.2,1.5,0.8,2.7c0.6,0.6,1.5,1,2.7,1.2v21.7h10.8c2.5,0,4.2-2.1,4.2-5.2V80C62.5,73.1,62.5,71.3,58.5,71.3"
		/>
	<path id="Fill-36_6_" class="st0" d="M121.7,76.9c0-0.6,0-1.2,0.2-1.7h0.2c0.2,0,0.4,0,0.8,0l0,0c1.9,0,2.1,0.6,2.1,4.2v10.8
		c0,0.4,0,0.6,0,1c0,0.2,0,0.6-0.2,0.8h-0.2c-0.4,0-0.6,0-1,0c-0.6,0-1.2-0.2-1.5-0.4c-0.4-0.4-0.4-1.2-0.4-2.1V78.8
		C121.7,78.5,121.7,77.3,121.7,76.9 M123.5,71.3c-1.2,0-2.7,0-3.8,0.4c-2.9,0.6-4.2,2.5-4.2,5.8v15.4c0,4,2.9,4.8,7.1,4.8
		c5.2,0,8.1-1.9,8.1-5v-16C130.8,71.3,127.5,71.3,123.5,71.3"/>
</g>
</svg>
