<?xml version="1.0" encoding="utf-8"?>
<!-- Generator: Adobe Illustrator 21.1.0, SVG Export Plug-In . SVG Version: 6.00 Build 0)  -->
<svg version="1.1" id="katman_1" xmlns="http://www.w3.org/2000/svg" xmlns:xlink="http://www.w3.org/1999/xlink" x="0px" y="0px"
	 viewBox="0 0 600 600" style="enable-background:new 0 0 600 600;" xml:space="preserve">
<style type="text/css">
	.st0{fill:#3E4549;}
	.st1{fill:#FFFFFF;}
	.st2{fill:#454545;}
	.st3{fill:#E20025;}
	.st4{fill:#163962;}
	.st5{fill:#FFED00;}
	.st6{fill:#39A642;}
</style>
<g>
	<path class="st0" d="M301,600.6c165.4,0,300.3-134.9,300.3-300.3C601.3,135,466.4,0,301,0C135.6,0,0.7,135,0.7,300.3
		C0.7,465.7,135.6,600.6,301,600.6L301,600.6z"/>
	<path class="st1" d="M301,591.5c160.4,0,291.2-130.9,291.2-291.2C592.1,140,461.3,9.2,301,9.2C140.7,9.2,9.9,140,9.9,300.3
		S140.7,591.5,301,591.5L301,591.5z"/>
	<path class="st2" d="M301,498.1c109,0,197.8-89,197.8-197.8c0-108.9-88.9-197.7-197.8-197.7c-108.9,0-197.7,88.9-197.7,197.7
		C103.2,409.2,192.1,498.1,301,498.1L301,498.1z"/>
	<path class="st3" d="M134.2,212.6c31-58.7,92.1-99.2,162.5-100.8c-20.9,28-46.8,53.2-76.5,71.4c-17.9,10.9-37.1,19.4-57.4,24.5
		C153.4,210.1,143.9,211.6,134.2,212.6L134.2,212.6z"/>
	<path class="st3" d="M273.8,487c-91-13.3-161.3-92-161.3-186.7c0-25.9,5.3-50.7,14.8-73.2c0.3,4.5,0.6,8.9,1,13.3
		c4.7,46.4,21.6,93.9,47.4,137.2C200.9,419.7,234.6,457.8,273.8,487L273.8,487z"/>
	<path class="st3" d="M474.8,227.1c9.5,22.5,14.8,47.3,14.8,73.2c0,94.6-70.3,173.3-161.3,186.7c39.1-29.2,72.8-67.2,98.1-109.4
		c26.2-43.9,43.2-92.1,47.6-139.1C474.3,234.7,474.6,230.9,474.8,227.1L474.8,227.1z"/>
	<path class="st3" d="M305.1,111.8c70.5,1.6,131.6,42.1,162.6,100.8c-8-0.7-16-2-24-3.7c-22-4.9-42.8-13.9-62-25.6
		C352,165,326.1,139.8,305.1,111.8L305.1,111.8z"/>
	<path class="st4" d="M159.3,213.1h283.4c-22.5-5-43.7-14.2-63.2-26.2c-30.6-18.7-57.2-44.6-78.5-73.5
		c-21.2,28.9-47.8,54.8-78.4,73.5C203,199,181.7,208.1,159.3,213.1L159.3,213.1z"/>
	<path class="st4" d="M204.3,318.8h-52.3c7.5,19.3,16.7,38.3,27.6,56.4c26.3,44,61.8,83.5,103.3,112.7c2.7,0.3,5.3,0.5,8,0.7
		c1.5-9,0.7-50.8,0.5-52.7c-1.9-2.1-3.7-3.4-5.9-4.3c-2.3-0.8-5.1-1.2-8.6-1.3c-3.3,0-6,0.3-8.6,0.8c-2.6,0.5-5.3,1.3-8.6,2.4
		c-3,0.9-5.4,1.9-8,1.9c-2.8,0-5.4-1-8.4-3.9c-0.6-0.5-1-0.9-1.6-1.5c-2.2-2.2-4.5-4.5-7-4.5c-3.1,0.1-5.9-0.3-8.4-1
		c-2.5-0.7-4.8-2-6.8-3.8c-4.4-4.2-4.4-10.1-4.3-14.8c0-2,0-3.7-0.4-4.5c-0.6-1.2-2.5-2.7-4.9-4.1c-2.6-1.6-5.6-3.1-7.9-4.1
		c-4.2-1.9-6.8-5-8.4-8.8c-1.4-3.5-1.9-7.7-1.8-11.7c0.1-1.8,0.1-3.4-0.2-4.9c-0.2-1.2-0.5-2.2-1-2.8l-0.1-0.1
		c-1.3-1.5-2.7-3.1-3.7-5c-1.1-2-1.9-4.5-1.9-7.4c0-2.5,0.7-4.7,2-6.2c1.5-2,3.6-3.1,5.6-3.1c4.7-0.2,9.2,4.3,12.1,7.3
		c0.3,0.2,0.5,0.5,0.7,0.6c1.3,1.4,2.9,2.9,4.5,4.1c1.6,1.1,3.2,2,4.8,2.4c3.2,0.7,5.7,0.6,7.8,0.6c0.1,0,0.2,0,0.4,0
		c3.8-0.1,6.6,0.4,8.9,1.9c2.3,1.4,4,3.6,5.7,7.2c1.9,3.7,3.4,3.7,6.1,3.7c0.9-0.1,1.9-0.1,3,0c6.1,0.3,7.5,3.1,10,7.6
		c0.4,0.7,0.7,1.5,1.2,2.1c0.9,1.7,1.8,3,2.7,4.1c0.8,0.9,1.6,1.6,2.2,2c1,0.6,2,0.7,3.1,1c1.9,0.4,4,0.8,7.4,3
		c2,1.3,3.4,3.2,4.5,5.3c0.9,2.1,1.5,4.3,2,6.5c1,4.5,1.8,8.5,3.4,11.5c1.5,2.9,3.8,5.1,8.1,6.7c0-0.5,0.1-0.9,0.1-1.6
		c0.7-14,1-22.8,0.3-28.7c-0.6-5.3-2-8-4.8-9.9c-8.6-6-17.5-11.9-25.7-17.3c-8.1-5.1-15.6-9.7-21.4-12.6c-1-0.2-2.1-0.4-3.3-0.5
		c-1.3-0.1-2.4-0.1-3.5-0.2c-0.5,0-0.7,0-1.1,0c-5.5-0.1-10.6-0.3-16.3-4.2c-3.4-2.3-5.8-5-7.1-8c-1.2-2.9-1.3-6.1,0.2-9
		c0.3-0.6,0.6-0.9,0.7-1.3c0.6-1.1,0.8-1.6-0.1-2.5c-1.5-1.4-3.1-3.3-4.1-5.3C204.5,319.6,204.4,319.2,204.3,318.8L204.3,318.8z"/>
	<path class="st4" d="M279.7,318.8h-49.2c1.2,1.6,3,2,4.8,2.4c1.9,0.4,3.8,0.8,5.9,2.1c1.6,0.9,3.1,2.2,4.3,3.9
		c1.2,1.7,2.1,3.8,2.7,6.3c0.2,0.9,0.3,1.5,0.4,2c0.4,2,0.7,3.4,3.2,5.4c9.3,6.9,18.3,12.8,26.5,18.2c5.9,3.7,11.3,7.3,16,10.7
		l-0.1-0.1c0.1,0,0.2,0.1,0.3,0.1c0.1-1,0-2.3-0.2-3.7c-0.3-1.7-0.7-3.5-1-5c-7-8.4-11.4-14.2-14-19.1c-2.8-5.4-3.5-9.8-3.1-15.3
		c0.2-2.2,0.8-4.4,2.2-6.3C278.8,319.9,279.3,319.3,279.7,318.8L279.7,318.8z"/>
	<path class="st4" d="M378.3,318.8h-57.2c-0.8,1-1.7,2-2.5,2.9c1.9,2.1,3.2,4.2,4.1,6.2c1.3,2.7,1.8,5.2,1.8,7.7
		c-0.1,5.2-2.4,9.8-5.7,13.9c-2.9,3.8-6.5,7.1-10,10c-0.3,1.4-0.5,3.2-0.5,4.8c0,1.9,0.2,3.6,0.5,4.9c0.1,0,0.2,0.1,0.3,0.2
		c0.1,0,0.2,0,0.3,0s0.1,0,0.2-0.1h0.1c1.1-0.6,3.4-2,5.8-3.3c11.5-6.4,25.1-14.1,38.5-23.8c1.2-0.9,2-1.9,2.5-3
		c0.5-1.2,0.6-2.6,0.6-4.3c0.1-2.6,0.8-4.9,2-6.8c1.4-2.3,3.4-4.1,5.2-5.2c2.4-1.4,5.1-1.4,7.7-1.3c2.2,0,4.4,0.1,5.3-1.3
		C377.6,320,377.9,319.4,378.3,318.8L378.3,318.8z"/>
	<path class="st4" d="M310,488.7c3.1-0.2,6.1-0.4,9.2-0.7c41.4-29.2,77-68.7,103.3-112.7c10.9-18.2,20.1-37.2,27.6-56.4h-46.5
		c-0.5,1-1,2-1.6,2.8c-1,1.6-2.1,2.9-3.3,4.2c-1.9,2.2-2,5.3-2,8.3c0,5.8,0,11.5-9.2,15.1c-3.3,1.2-5.7,1.9-8,2.2
		c-2.3,0.5-4.5,0.5-7.4,0.6c-2,0.1-4,0.2-5.8,0.5c-1.8,0.3-3.4,0.7-4.9,1.8c-3.4,2-7.4,4.4-11.7,6.8c-12,6.9-26.5,15.3-33.2,21.1
		c-2.6,2.2-4.3,4.8-5.3,10c-1,5.5-1.2,13.9-0.8,27.6c0.1,1.7,0.1,2.2,0.1,2.2c0.2,0.1,1.2-0.5,2.4-1c2.2-1.1,4.8-3,6.9-4.8
		c1.9-1.7,3.2-3.2,3.4-3.9c0.1-0.5,0.3-1.5,0.5-2.6c1.2-5.9,3-14.7,7.7-17.8c2.3-1.6,4.8-2,7.4-2.3c1.7-0.2,3.4-0.5,4.8-1
		c0.6-0.2,1.3-1.9,2-3.8c1.8-4.7,3.9-10.3,11.6-10.6c0.9-0.1,1.9-0.1,2.8-0.1c3.5,0,6.4,0,8.4-3.9c1.8-3.5,3.3-5.7,5.4-7.1
		c2.1-1.5,4.7-1.9,8.6-1.8c0.4,0,0.7,0,1,0c2.8,0.1,8.3,0.3,11.2-0.4c2.1-0.5,2.8-1.2,3.8-2.4c0.6-0.6,1.1-1.3,2-2.1
		c0.4-0.4,0.7-0.7,1.1-1.1c2.4-2.5,4.5-4.7,8.9-4.6c1.5,0.1,3.3,0.3,4.8,1.1c1.9,1,3.2,2.8,3.2,6c0,1.8-0.7,4-1.8,6.1
		c-1,2.2-2.6,4.6-4,6.1l-0.1,0.1c-0.6,0.6-1.1,2-1.6,3.9c-0.6,2.3-0.9,4.9-0.8,6.7c0.1,4-0.1,7.6-1.2,10.8c-1.2,3.4-3.5,6.1-7.8,8
		c-1.6,0.7-3.4,1.3-4.9,1.9c-3.4,1.1-6.6,2.2-7.8,4c-0.5,0.6-0.6,2.9-0.9,5.4c-0.5,4.8-0.9,10.6-4.8,13.2c-2,1.4-4.3,2-6.9,2.4
		c-2.5,0.4-5.2,0.4-8.2,0.4c-1.3,0-2.6,0.6-4,1.5c-2,1.3-3.8,3.4-5.2,5c-5.6,6.8-10.2,4.7-15.8,2.2c-1.3-0.6-2.6-1.1-4-1.7
		c-2.1-0.6-4.4-1.4-6.8-1.9c-2.2-0.5-4.6-0.8-6.7-0.7c-3.5,0-6.6,0.3-9.2,1.1c-2.3,0.7-4.3,2-6.1,4c-0.6,3.5-0.5,33.1-0.4,39.2
		C309.2,479.9,309.4,484.3,310,488.7L310,488.7z"/>
	<path class="st5" d="M470.7,217.6H131.3c0.4,31.9,7.1,64.7,18.9,96.9h52.9c0-0.2,0-0.3,0-0.4c0-0.9,0-1.9,0.2-2.7
		c0.5-2.6,1.7-4.6,3.4-5.9c1.7-1.3,3.7-1.9,6-1.9c0.9-0.1,1.9,0,2.8,0.2c2,0.4,4.1,0.9,6.1,2c2,1.1,3.7,2.7,5.1,4.9
		c0.8,1.4,1.4,2.5,1.9,3.6h51.7c-1.7-2.3-3.2-4.9-4.3-7.7c-1.7-4.1-2.6-8.5-2.2-13c0.2-2.5,1-4.8,2.5-7c1.1-1.7,2.7-3.4,4.7-4.9
		c-0.1-0.5-0.2-0.9-0.3-1.4c-2-8.2-4.5-18.9,10.7-28.9c0.3-5.6,1-9.9,2.8-13.2c2-3.8,4.8-6.4,9.4-8.1h1.5c4.6,1.7,7.8,4.6,9.8,8.8
		c1.9,3.7,2.5,8.5,2.1,14.2c13,12.6,8.4,22.4,5.8,27.8c1.7,1.8,3.2,3.8,4.3,6.1c1.7,3.3,2.6,6.7,2.8,9.3c0.3,4.5-1.1,9.4-3.3,13.9
		c-0.6,1.5-1.5,3-2.3,4.4h56.6c0.4-0.6,0.7-1.2,1.1-1.9c1.4-2.2,2.8-3.8,4.6-4.9c1.8-1.1,3.7-1.7,5.9-1.9c1.6-0.1,3.3,0.1,4.7,0.5
		c1.9,0.5,3.6,1.3,5,2.5c1.4,1.4,2.4,3.1,2.5,5.2c0,0.2,0,0.3,0,0.5h47.1C463.6,282.3,470.3,249.5,470.7,217.6L470.7,217.6z"/>
	<path class="st6" d="M305.3,488.8c-1.5,0.1-2.9,0.1-4.4,0.1c-1.8,0-3.5,0-5.2-0.1c0.2-2.1,0.3-6.4,0.4-8.6
		c0.2-5.2,0.2-11.2,0.2-16.5c0-0.9,0.1-1.8,0.1-2.6c0-4.8,0-10.4-0.1-15.4c-0.1-4.9-0.4-9.2-0.8-11.4l-0.5-0.9c-2.4-3-5-4.8-8-6
		c-2.9-1.1-6.1-1.5-10.2-1.6c-3.4-0.1-6.4,0.3-9.4,0.8c-3,0.6-5.8,1.5-9.1,2.6c-2.6,0.8-4.8,1.7-6.6,1.6c-1.7,0-3.4-0.6-5.4-2.6
		c-0.5-0.5-0.9-0.9-1.4-1.4c-2.9-2.9-5.9-5.8-10.2-5.8c-2.6,0-4.9-0.2-7-0.8c-2-0.6-3.6-1.5-5.1-2.9c-3-2.8-2.9-7.6-2.9-11.5
		c0-2.6,0-4.8-0.7-6.5c-1-2.1-3.6-4.1-6.6-6c-2.8-1.7-6-3.2-8.5-4.3c-3-1.3-4.9-3.6-6.1-6.4c-1.2-2.9-1.5-6.4-1.4-10
		c0-1.9,0-3.9-0.3-5.7c-0.3-2.1-0.9-3.9-2.3-5.3l0.1,0.1c-1.1-1.3-2.3-2.6-3.2-4.2c-0.7-1.4-1.3-3.2-1.3-5.2c0-1.5,0.5-2.7,1.1-3.5
		c0.7-0.8,1.5-1.4,2.2-1.4c2.7-0.1,6.4,3.5,8.9,6c0.3,0.3,0.5,0.5,0.6,0.7c1.5,1.5,3.2,3.1,5,4.5c2,1.5,4.2,2.7,6.4,3.2
		c3.7,0.8,6.5,0.7,8.9,0.7c0.1,0,0.3,0,0.4,0c3-0.1,5,0.2,6.5,1.1c1.5,0.9,2.7,2.6,4.1,5.4c3.1,6.2,5.5,6.2,10.1,6.1
		c0.7,0,1.7,0,2.7,0c3.5,0.2,4.6,2.1,6.2,5.4c0.4,0.7,0.7,1.3,1.3,2.2c1,1.9,2.1,3.4,3.2,4.7c1.1,1.4,2.2,2.4,3.4,3.1
		c1.7,0.9,3,1.2,4.4,1.5c1.5,0.4,3.3,0.7,6,2.4c1.2,0.8,2.1,2.1,2.8,3.4c0.7,1.7,1.3,3.6,1.7,5.5c1,4.9,1.8,9,3.7,12.7
		c2,3.8,5,6.8,10.5,8.8c2.7,1,4.1,0.6,5.1-1.1c0.7-1.1,0.7-2.4,0.8-4.4c0.7-14.2,1.1-23.2,0.4-29.4c-0.8-6.8-2.9-10.3-6.8-12.9
		c-8.7-6-17.6-12-25.9-17.3c-8.3-5.4-16-10.1-22.1-13l-0.6-0.2c-1.5-0.3-2.8-0.5-4-0.6c-1.2-0.1-2.5-0.2-3.7-0.2c-0.3,0-0.7,0-1.2,0
		c-4.8-0.2-9.3-0.3-13.9-3.4c-2.6-1.9-4.6-3.9-5.5-6.1c-0.7-1.8-0.8-3.6,0.1-5.4c0.2-0.4,0.4-0.8,0.6-1.2c1.8-3.2,2.6-4.6-0.9-7.8
		c-1.2-1-2.3-2.5-3.2-4.1c-0.7-1.2-1.1-2.5-1.1-3.8c0-0.7,0.1-1.3,0.2-1.9c0.2-1.5,0.8-2.5,1.7-3.1c0.8-0.7,2-1,3.4-1
		c0.7,0,1.3,0.1,2,0.2c1.6,0.3,3.2,0.7,4.7,1.5c1.3,0.7,2.6,1.9,3.5,3.4c1,1.7,1.5,3,2,4.2c0.6,1.2,0.9,2.3,1.8,3.5
		c2.1,3.4,4.8,4,7.8,4.7c1.5,0.4,3.1,0.7,4.6,1.6c1.1,0.7,2.1,1.5,2.9,2.7c0.9,1.2,1.6,2.7,2,4.7c0.1,0.6,0.2,1.2,0.4,1.8
		c0.5,3.1,0.8,5.2,4.8,8.2c9.2,6.9,18.4,12.9,26.8,18.3c5.8,3.8,11.2,7.3,15.8,10.6c0.7,0.5,1.4,0.8,2,1c0.7,0.2,1.5,0.2,2.2,0
		c0.7-0.2,1.4-0.7,1.9-1.4c0.3-0.4,0.4-0.7,0.6-1.1c0.5-1.8,0.4-4,0-6.3c-0.3-2.2-0.6-4.9-1.6-7c-6.9-8.3-11.3-13.9-13.7-18.6
		c-2.3-4.5-3-8.2-2.6-12.9c0.2-1.5,0.6-3,1.5-4.3c1.7-2.4,4.3-3.7,6.8-5.2c-3.7-3.8-6.9-7.5-8.9-12.6c-1.4-3.4-2.2-7.3-2-11
		c0.2-1.8,0.7-3.4,1.8-4.8c1.6-2.3,3.7-4,6-5.7c-0.9-4.3-2.3-8.5-2.1-12.9c0.2-7.9,5.7-12.8,12-16.8c0.1-4.5,0.3-9.6,2.2-13.7
		c1.3-2.6,3.4-4.4,6.3-5.7c3,1.4,5.2,3.4,6.6,6.2c2,4.4,1.9,9.3,1.5,14.1c4.4,4,8.6,8.8,8.8,15.2c0.1,4.5-2.1,8.1-3.8,12.1
		c2.5,2,4.3,3.8,5.8,6.7c1.3,2.7,2.1,5.6,2.3,7.7c0.2,3.6-1,7.7-2.9,11.6c-2.5,5.3-5.8,9.4-10.2,13.2c2.5,2.5,4.9,5,6.4,8.4
		c0.9,2,1.3,3.9,1.3,5.8c-0.1,4.1-2,7.9-4.7,11.3c-2.8,3.6-6.5,6.9-10,9.8c-1.4,2.2-1.4,5.1-1.4,7.7c0,2.2,0.2,4.5,0.7,6.1
		c0.1,0.4,0.3,0.8,0.6,1.1c0.5,0.8,1.2,1.5,2.1,1.9c1,0.4,2.1,0.6,3.3,0.3c0.4-0.1,0.8-0.3,1.2-0.6c2.6-1.5,4.2-2.3,5.8-3.3
		c11.6-6.4,25.5-14.3,38.9-24c2-1.4,3.2-3,3.9-4.8c0.7-1.8,1-3.7,1.1-5.9c0-1.8,0.6-3.4,1.3-4.7c1-1.7,2.3-2.9,3.5-3.6
		c1.4-0.8,3.5-0.7,5.5-0.7c3.5,0.1,6.9,0.2,9.1-3.3c0.8-1.3,1.5-2.4,2.2-3.8c0.6-1.2,1.5-2.6,2.4-4.2c1-1.7,2-2.8,3.2-3.5
		c1.1-0.7,2.3-1,3.8-1.1c1.2-0.1,2.3,0,3.4,0.3c1.2,0.3,2.2,0.8,3.1,1.5c0.6,0.6,1,1.3,1,2.2c0.1,0.4,0,0.8-0.1,1.3
		c-0.3,1.3-0.9,2.5-1.8,3.6c-0.7,1.2-1.9,2.5-2.9,3.7c-3,3.5-3,7.4-3,11.2c0,4.3,0,8.5-6.4,10.9c-3,1.2-5.1,1.8-7.2,2.1
		c-2,0.3-4,0.4-6.7,0.5c-2.2,0.1-4.3,0.1-6.4,0.5c-2.2,0.4-4.4,1-6.5,2.3c-3.1,1.9-7.2,4.2-11.6,6.8c-12.2,7-26.9,15.5-34,21.6
		c-3.3,3-5.5,6.1-6.6,12.5c-1.1,5.9-1.4,14.5-0.9,28.6c0.1,4,1.3,5.8,3.4,6.3c1.8,0.5,3.4-0.4,5.5-1.4c2.6-1.3,5.6-3.4,7.9-5.5
		c2.4-2.1,4.3-4.5,4.7-6.1c0.2-1.1,0.4-1.9,0.6-2.8c1-5.1,2.5-12.9,5.8-15c1.5-0.9,3.5-1.2,5.7-1.6c1.9-0.3,3.7-0.6,5.7-1.3
		c2.4-0.8,3.4-3.4,4.6-6.3c1.3-3.4,2.9-7.6,7.6-7.8c0.9-0.1,1.9-0.1,2.6-0.1c5.1,0,9.2,0,12.4-6.3c1.4-2.8,2.4-4.5,3.7-5.4h0.1
		c1.3-0.8,3.1-1,6.1-1c0.3,0,0.6,0.1,1,0.1c3,0.1,8.8,0.3,12.3-0.6c3.5-0.7,4.6-2,6.2-3.9c0.4-0.6,0.9-1.1,1.6-1.8
		c0.5-0.5,0.8-0.8,1.2-1.2c1.7-1.8,3.1-3.3,5.6-3.2c0.9,0,2.1,0.1,2.8,0.5c0.5,0.3,0.8,0.9,0.8,2.1c0,1.1-0.5,2.6-1.3,4.3
		c-0.8,1.9-2.1,3.7-3.3,5l0.1-0.1c-1.2,1.2-2.1,3.4-2.8,6c-0.7,2.7-1,5.8-1,7.9c0.1,3.5,0,6.7-0.8,9.2c-0.8,2.3-2.5,4.2-5.5,5.5
		c-1.3,0.6-3,1.2-4.6,1.7c-4,1.4-7.9,2.7-10,5.7c-1.2,1.7-1.5,4.4-1.8,7.5c-0.4,3.9-0.7,8.5-2.9,10c-1.3,0.9-3.1,1.4-5,1.7
		c-2.1,0.4-4.7,0.4-7.5,0.4c-2.2,0-4.4,0.8-6.4,2.2c-2.4,1.6-4.7,3.9-6.2,5.9c-3.4,4.2-6.6,2.8-10.6,1c-1.4-0.7-2.8-1.3-4.4-1.8
		c-2.2-0.8-4.8-1.5-7.3-2c-2.6-0.6-5.2-0.9-7.7-0.9c-3.9,0.1-7.4,0.4-10.4,1.4c-3.3,1.1-6.1,2.9-8.6,5.8l-0.5,0.9
		c-0.8,3.6-0.7,13.5-0.7,22.4c0,1.6,0,3.2,0,4.6c0,4.4,0,9.3,0.1,13.9c0,1.5,0.1,3,0.1,4.4C305,482.2,305.1,486.6,305.3,488.8
		L305.3,488.8z"/>
	<path class="st2" d="M305.8,264c-1.8,2.5-3.1,5.1-4.1,7.9c-0.3,0.9-0.6,2-0.8,2.9c0,0.2-0.1,0.4-0.2,0.7c-0.3,1.4-0.5,2.8-0.6,4.3
		c-0.4,6.7,1.3,12.4,3,18c1.3,4.1,2.5,8.3,3.1,12.9c0,0.3,0,0.6,0.1,0.8c1.4-0.7,2.9-2,4.4-3.8c0.6-0.9,1.4-1.7,2.4-0.9
		c1,0.7,0.6,1.8-0.2,2.7c-2,2.7-4.3,4.4-6.4,5.1c0.1,3.3-0.1,6.8-0.6,10.1c-0.6,3.4-1.6,6.4-3.1,8.8c-0.7,1-1.9,1.9-2.8,1.1
		c-1.1-0.8-0.3-1.9,0.4-2.9c1.2-1.9,2-4.6,2.6-7.5c0.5-3,0.6-6.1,0.6-8.9c-1.4,0.1-2.8-0.2-4-0.7c-1.6-0.6-2.9-1.7-3.8-3
		c-1.4-1.7-2.1-3.9-2-6.1c0.1-1,0.5-2,1.7-1.7c1.3,0.2,1.2,1,1.1,2.1c0,1.4,0.5,2.8,1.3,3.9c0.7,0.8,1.7,1.6,2.8,2.1
		c0.8,0.3,1.7,0.5,2.7,0.4c-0.1-0.4-0.1-0.8-0.2-1.2c-0.5-4.5-1.7-8.5-2.9-12.5c-1.8-5.9-3.5-11.7-3.2-18.9c0.1-1.4,0.3-2.6,0.5-3.9
		c-0.7-0.6-1.2-1.1-1.8-1.9c-0.7-0.9-1.1-1.8-1.5-3.4c-0.2-0.7-0.3-1.8,1-2c1.2-0.3,1.6,0.7,1.8,1.4c0.3,1.2,0.6,1.8,1,2.3
		c0.1,0.2,0.2,0.3,0.3,0.4c0.2-0.5,0.4-1,0.6-1.6c1-3,2.5-5.7,4.4-8.5c0.4-0.7,1.2-1.2,2.1-0.6C306.4,262.4,306.3,263.3,305.8,264
		L305.8,264z"/>
	<path class="st2" d="M390.6,379.6c-10.5,12.7-19.9,17.4-28.2,21.7c-6.7,3.4-12.7,6.5-18.1,13.3c-0.6,0.7-1.9,0.9-2.6,0.3
		c-0.7-0.7-0.8-1.9-0.3-2.5c5.9-7.5,12.2-10.7,19.3-14.3c8-4.1,17-8.8,27.1-20.9c0.6-0.7,1.8-0.8,2.6-0.2
		C391.2,377.6,391.3,378.8,390.6,379.6L390.6,379.6z"/>
	<path class="st2" d="M215.2,373.6c10.2,12.6,19.1,17.2,27.1,21.4c7,3.7,13.2,7,19,14.4c0.6,0.7,0.7,1.9-0.3,2.6
		c-0.9,0.6-2,0.4-2.6-0.4c-5.2-6.8-11.2-10-17.8-13.4c-8.3-4.4-17.7-9.2-28.3-22.4c-0.6-0.7-0.5-2,0.3-2.6
		C213.3,372.7,214.6,372.9,215.2,373.6L215.2,373.6z"/>
	<polygon class="st0" points="525.2,460.9 531.4,465.2 527.5,470.8 521.3,466.5 	"/>
	<polygon class="st0" points="533.1,449.7 539.2,454 535.3,459.6 529.2,455.3 	"/>
	<path class="st0" d="M516.4,467.8l-4.1,5.8l-25.4-17.8c-4.4-3.1-7.5-6.1-9.4-8.8c-2-2.8-2.8-6.1-2.6-9.9c0.2-3.7,1.8-7.7,4.7-12
		c2.9-4.1,6-7,9.2-8.6c3.3-1.7,6.6-2,10.1-1.3c3.5,0.7,7.5,2.8,12.2,6.1l25.4,17.8l-4,5.8L507.1,427c-3.8-2.6-6.9-4.3-9.2-4.8
		c-2.2-0.6-4.6-0.3-6.7,0.7c-2.2,1-4.2,2.8-6,5.3c-3,4.3-4.1,8-3.4,11.3c0.7,3.2,3.7,6.6,9.2,10.5L516.4,467.8L516.4,467.8z"/>
	<polygon class="st0" points="573.3,347.6 580.8,348.8 579.6,355.6 572.3,354.4 	"/>
	<polygon class="st0" points="575.5,334.1 582.9,335.3 581.8,342.1 574.4,340.9 	"/>
	<path class="st0" d="M568.4,357.7l-1.1,7.1l-30.6-4.8c-5.3-0.8-9.4-2.1-12.4-3.8c-3-1.8-5.1-4.3-6.6-7.7c-1.5-3.5-1.8-7.8-1-12.9
		c0.8-5,2.3-8.9,4.6-11.8c2.1-2.9,5-4.7,8.5-5.6c3.4-0.8,8-0.8,13.6,0.1l30.6,4.8l-1.1,7l-30.6-4.8c-4.7-0.7-8.1-0.8-10.4-0.3
		c-2.3,0.5-4.2,1.7-5.8,3.5c-1.5,2-2.5,4.4-3,7.4c-0.8,5.1-0.2,9,1.8,11.6c2,2.6,6.3,4.4,12.9,5.4L568.4,357.7L568.4,357.7z"/>
	<polygon class="st0" points="519.4,276.1 573,274.2 573.3,281.2 526,282.9 526.8,309.3 520.5,309.5 	"/>
	<path class="st0" d="M569.2,248l1.7,6.9l-30.1,7.5c-5.2,1.3-9.6,1.8-12.9,1.4c-3.4-0.5-6.4-2-9.1-4.6c-2.7-2.6-4.7-6.4-5.9-11.5
		c-1.3-4.8-1.4-9.1-0.5-12.6c0.8-3.5,2.7-6.4,5.6-8.5c2.9-2.1,7.1-3.9,12.6-5.3l30.1-7.5l1.8,6.9l-30.1,7.5
		c-4.6,1.1-7.7,2.4-9.7,3.7c-2,1.4-3.3,3.3-3.9,5.6c-0.7,2.3-0.6,5,0.2,8c1.2,5,3.3,8.4,6.1,10c2.8,1.6,7.5,1.6,14.1-0.1L569.2,248
		L569.2,248z"/>
	<polygon class="st0" points="487.5,184 534.9,158.7 538.3,165 514.8,177.5 550.9,188.5 555.3,197 525.5,187.4 508.4,223.2 
		504,214.9 519,185.2 507.4,181.4 490.9,190.2 	"/>
	<path class="st0" d="M302.2,63.1L309,63c0.1,2.7,0.7,4.9,1.7,6.7c1.1,1.9,2.8,3.4,5.1,4.6c2.3,1.2,5,2,8.1,2.1
		c2.7,0.2,5.1,0,7.3-0.7c2.1-0.7,3.7-1.7,4.8-3c1.1-1.4,1.8-2.9,1.9-4.6c0.1-1.7-0.3-3.2-1.2-4.5c-0.8-1.3-2.4-2.5-4.6-3.4
		c-1.4-0.7-4.5-1.8-9.3-3.4c-4.8-1.5-8.3-2.9-10.1-4c-2.4-1.6-4.3-3.4-5.4-5.4c-1.1-2-1.6-4.4-1.4-6.8c0.2-2.7,1.1-5.2,2.9-7.5
		c1.7-2.2,4-3.8,7.1-4.8c3-1,6.3-1.4,10-1.2c3.9,0.3,7.4,1.2,10.3,2.7c3,1.5,5.1,3.5,6.6,6.1c1.5,2.6,2.1,5.5,2,8.6l-6.8,0.1
		c-0.2-3.4-1.2-6.1-3.3-7.9c-2-2-5-3-9.1-3.3c-4.3-0.3-7.5,0.3-9.5,1.7c-2,1.4-3.2,3.3-3.4,5.5c-0.2,2,0.5,3.5,1.8,4.8
		c1.2,1.4,4.7,2.9,10.4,4.6c5.6,1.8,9.5,3.2,11.6,4.3c3.1,1.7,5.2,3.6,6.5,6c1.4,2.3,2,4.9,1.8,7.7c-0.3,2.9-1.2,5.5-3.1,7.9
		c-1.8,2.4-4.3,4.2-7.5,5.4c-3.2,1.2-6.6,1.7-10.4,1.4c-4.8-0.4-8.9-1.3-12-3c-3.2-1.7-5.6-4-7.3-6.9
		C302.8,70,302.1,66.6,302.2,63.1L302.2,63.1z"/>
	<polygon class="st0" points="237.1,90 225,37.6 262.9,28.9 264.3,35 233.4,42.2 237.1,58.2 266,51.5 267.4,57.7 238.5,64.4 
		242.6,82.2 274.8,74.8 276.2,80.9 	"/>
	<path class="st0" d="M222.7,91.4c2.3-4.4,3-9.5,2-15.5l-7.3,1.2c0.9,4.6,0.7,8.4-0.9,11.6c-1.6,3.3-4.2,5.7-7.8,7.3
		c-3,1.3-6.1,1.8-9.4,1.4c-3.3-0.4-6.1-1.9-8.8-4.5c-2.6-2.5-4.8-6-6.7-10.1c-1.4-3.3-2.3-6.6-2.6-10.2c-0.4-3.4,0.3-6.7,2.1-9.7
		c1.8-2.9,4.5-5.2,8.3-6.9c3.3-1.5,6.3-1.9,9.2-1.2c2.9,0.7,5.7,2.5,8.4,5.6l5.8-4.3c-3.4-4-7.3-6.4-11.7-7.5
		c-4.5-1-9.1-0.5-14.1,1.8c-4.3,2-7.8,4.7-10.5,8.2c-2.7,3.6-4.2,7.7-4.5,12.4c-0.3,4.8,0.7,9.6,3,14.7c2.1,4.7,4.9,8.7,8.5,12
		c3.5,3.3,7.5,5.3,11.7,6c3.1,0.5,6.5,0.1,10.2-1l0.6,6.5c1.6-0.7,2.8-1.1,3.6-1.2c0.7-0.1,1.4,0,1.8,0.2c0.4,0.2,0.7,0.6,0.8,0.9
		c1.3,2.7-2.7,5.2-4.3,5.9c-0.7,0.3-1.7,0.7-3.2,1.3l-0.1,3.5c1.6-0.4,4.7-1.4,6.4-2.2c3.3-1.4,5.4-3.2,6.4-5.1c1-2,1.2-3.8,0.5-5.5
		c-0.6-1.2-1.5-2.1-2.9-2.5c-1.4-0.6-3.1-0.5-5.8,0.4l-0.3-3.4c0.2-0.1,0.3-0.1,0.5-0.2C216.8,99.1,220.5,95.8,222.7,91.4
		L222.7,91.4z"/>
	<polygon class="st0" points="148.9,140.8 115.9,98.5 121.5,94.2 135.1,111.6 157,94.4 143.4,76.9 149.1,72.6 182.2,114.9 
		176.5,119.3 161,99.4 139,116.5 154.5,136.5 	"/>
	<polygon class="st0" points="160.6,487.1 177.6,474.3 170.8,494.7 187.3,507.1 166.7,507.1 160.6,525.9 154.4,507.1 133.9,507.1 
		150.3,494.7 143.6,474.3 	"/>
	<path class="st0" d="M342.3,522.9l-1.5-5.7l31.4-7.8l1.2,4.7c-2.2,4-4.3,9.1-6,15.4c-1.7,6.1-2.6,12.4-2.8,18.5
		c-0.2,4.4,0.2,9,1,13.9l-6.1,1.6c-0.8-3.8-1.2-8.7-1.2-14.4c0.1-5.8,0.9-11.5,2.3-17.1c1.4-5.7,3.2-10.6,5.4-14.8L342.3,522.9
		L342.3,522.9z"/>
	<path class="st0" d="M231.1,560.5l-5.9-1.8l10.5-36.6l-10.6-3.2l1.5-4.9c6.4,1.7,9.9,1.9,14-3.1l4.4,1.2L231.1,560.5L231.1,560.5z"
		/>
	<polygon class="st0" points="441.5,487.1 424.4,474.3 431.2,494.7 414.7,507.1 435.3,507.1 441.5,525.9 447.7,507.1 468.1,507.1 
		451.8,494.7 458.4,474.3 	"/>
	<polygon class="st0" points="133.1,443.3 89,474.1 68.3,444.4 73.5,440.8 90.2,464.7 103.9,455.1 89.3,434.5 94.5,430.8 109,451.5 
		129,437.5 	"/>
	<polygon class="st0" points="80.9,314.8 27.2,313 28.6,274.3 34.9,274.5 33.8,306.1 50.2,306.7 51.3,277.1 57.6,277.2 56.5,306.9 
		74.8,307.6 76,274.7 82.3,274.9 	"/>
	<polygon class="st0" points="89.5,365.4 36.5,373.8 35.3,366.6 72.6,332.2 30.9,338.8 29.9,332.1 82.9,323.6 84,330.9 46.8,365.3 
		88.5,358.7 	"/>
	<polygon class="st0" points="108.6,408.4 59.5,430.2 43.8,394.7 49.6,392.2 62.4,421.2 77.5,414.5 65.4,387.4 71.2,384.8 83.3,412 
		99.9,404.5 86.5,374.4 92.3,371.8 	"/>
	<path class="st0" d="M302.7,546c-0.5-6-0.3-10.7,0.6-14.4c0.8-3.6,2.4-6.6,4.7-8.8c2.2-2.1,5.1-3.4,8.8-3.7c2.7-0.2,5,0.1,7.2,1
		c2.1,0.8,3.9,2.3,5.4,4.2c1.5,2,2.7,4.3,3.7,7.2c1,2.8,1.8,6.7,2.1,11.6c0.6,5.9,0.4,10.6-0.6,14.3c-0.8,3.6-2.4,6.6-4.7,8.8
		c-2.2,2.1-5.1,3.4-8.8,3.7c-4.8,0.5-8.8-0.9-11.8-4.2C305.8,561.9,303.6,555.3,302.7,546L302.7,546z M309.1,545.5
		c0.7,8.2,2.1,13.5,4.3,16c2.1,2.6,4.7,3.7,7.5,3.4c2.8-0.2,5-1.8,6.7-4.7c1.7-2.9,2.1-8.4,1.5-16.6c-0.7-8.2-2.1-13.6-4.3-16.1
		c-2.2-2.5-4.7-3.6-7.5-3.3c-2.8,0.2-4.9,1.6-6.4,4.1C308.9,531.6,308.3,537.3,309.1,545.5L309.1,545.5z"/>
	<path class="st0" d="M257.5,554.7l5.9,0.2c0.2,2.8,0.8,4.8,2.1,6.3c1.2,1.4,3,2.2,5.1,2.5c1.9,0.2,3.5,0,5.1-0.7
		c1.5-0.7,2.8-1.7,3.8-3c1.1-1.3,2.1-3.2,3.1-5.5c0.8-2.4,1.5-4.8,1.8-7.4c0-0.3,0.1-0.6,0.1-1.2c-1.4,1.8-3.3,3.2-5.5,4.1
		c-2.3,0.9-4.7,1.3-7.1,0.9c-4.2-0.5-7.5-2.4-10-5.7c-2.4-3.4-3.4-7.5-2.8-12.3c0.7-5.1,2.6-8.9,6-11.6c3.4-2.7,7.3-3.8,11.7-3.3
		c3.3,0.4,6.1,1.7,8.6,3.7c2.4,2,4.1,4.8,5.1,8.2c1,3.4,1.1,8.1,0.4,14.2c-0.7,6.3-2,11.4-3.9,14.9c-1.9,3.6-4.3,6.2-7.2,7.8
		c-3,1.7-6.3,2.2-10,1.8c-3.9-0.5-6.9-2-9.1-4.4C258.7,561.9,257.5,558.6,257.5,554.7L257.5,554.7z M285.1,535.8
		c0.5-3.4-0.1-6.3-1.8-8.7c-1.6-2.2-3.7-3.5-6.3-3.9c-2.7-0.3-5.2,0.6-7.5,2.5c-2.3,2-3.6,4.7-4.1,8.2c-0.4,3.2,0.3,5.9,2,8
		c1.7,2.2,3.9,3.5,6.7,3.9c2.8,0.3,5.2-0.4,7.3-2.1C283.4,541.9,284.7,539.3,285.1,535.8L285.1,535.8z"/>
	<path class="st0" d="M115.2,181.4l-28.8-49.8l4.8-6l55.6,16.7l-5.1,6.3l-16.6-5.4L111,160.8l8.9,14.8L115.2,181.4L115.2,181.4z
		 M107.9,155.5l11.5-14.2c0,0-23.4-7.8-26.2-9C95.4,135,107.9,155.5,107.9,155.5L107.9,155.5z"/>
	<path class="st0" d="M96.5,218.5l-47.4-25.2l9.4-17.8c2-3.6,4-6.2,6.1-7.9c2.1-1.7,4.6-2.6,7.2-2.8c2.7-0.2,5.1,0.3,7.3,1.4
		c2,1.1,3.6,2.7,4.8,4.8c1.2,2,1.8,4.5,1.7,7.3c2.4-2.4,5-3.8,7.8-4.3c2.9-0.5,5.7,0,8.5,1.5c2.1,1.1,4,2.7,5.4,4.7
		c1.4,2,2.2,3.9,2.6,5.9c0.3,2,0.1,4.1-0.5,6.4c-0.6,2.3-1.7,5-3.3,8.1L96.5,218.5L96.5,218.5z M94.2,209.2l6.3-11.7
		c1-2.1,1.8-3.5,2-4.4c0.5-1.6,0.7-3.1,0.7-4.4c-0.1-1.3-0.6-2.5-1.4-3.8c-0.8-1.2-2-2.2-3.5-3c-1.7-0.9-3.5-1.3-5.3-1.1
		c-1.8,0.2-3.4,0.9-4.8,2.3c-1.4,1.3-2.9,3.4-4.5,6.5L78,200.5L94.2,209.2L94.2,209.2z M72.3,197.6l5.5-10.2
		c1.5-2.7,2.3-4.8,2.6-6.2c0.4-1.9,0.3-3.4-0.5-4.8c-0.7-1.4-1.8-2.5-3.4-3.4c-1.6-0.8-3.2-1.2-4.8-1.1c-1.6,0.2-3,0.8-4.2,2
		c-1.2,1.2-2.7,3.4-4.5,6.9l-5,9.5L72.3,197.6L72.3,197.6z"/>
	<path class="st0" d="M83.2,267.9l-52.3-12.1l5.4-23.2c1-4.7,2.3-8.1,3.8-10.3c1.5-2.1,3.6-3.7,6.3-4.7c2.7-0.9,5.5-1,8.4-0.4
		c3.7,0.9,6.6,2.8,8.6,5.8c2,3,2.8,7.1,2.3,12.3c1.3-1.7,2.4-2.8,3.5-3.5c2.3-1.7,5.1-3,8.3-4.2l16.3-5.8l-2,8.7l-12.5,4.5
		c-3.6,1.2-6.4,2.3-8.4,3.3c-2,0.9-3.4,1.9-4.3,2.7c-0.9,0.9-1.7,1.9-2.1,2.9c-0.4,0.7-0.7,2-1.1,3.8l-1.9,8l23.2,5.4L83.2,267.9
		L83.2,267.9z M55.5,254.2l3.4-14.9c0.7-3.2,1-5.7,0.7-7.6c-0.3-2-0.9-3.5-2.2-4.8c-1.2-1.3-2.6-2.1-4.4-2.5
		c-2.4-0.6-4.7-0.2-6.7,1.3c-2,1.4-3.4,4.1-4.4,7.9l-3.8,16.6L55.5,254.2L55.5,254.2z"/>
	<path class="st0" d="M441,130l38.7-37.3l16.5,17.1c3.4,3.4,5.6,6.3,6.6,8.8c1,2.4,1.1,5,0.5,7.8c-0.7,2.8-2.1,5.1-4.3,7.3
		c-2.8,2.6-5.9,3.9-9.5,4c-3.6,0-7.4-1.6-11.5-4.8c0.7,2,1,3.6,1,4.9c0.1,2.8-0.3,5.9-1,9.2l-4,16.9l-6.2-6.4l3.2-12.9
		c0.8-3.7,1.4-6.6,1.8-8.8c0.3-2.1,0.3-3.9,0-5.1c-0.2-1.2-0.7-2.3-1.2-3.4c-0.4-0.7-1.3-1.7-2.5-3l-5.8-6L446,135.2L441,130
		L441,130z M467.6,114.3l10.6,11c2.2,2.3,4.3,4,6,4.8c1.8,0.8,3.5,1,5.2,0.7c1.8-0.4,3.3-1.1,4.5-2.3c1.9-1.8,2.7-3.9,2.6-6.3
		c-0.1-2.5-1.6-5.1-4.3-8L480.3,102L467.6,114.3L467.6,114.3z"/>
	<path class="st0" d="M405.1,77.7c4.3-7.8,9.8-12.8,16.4-14.8c6.6-2.1,13.3-1.3,19.9,2.3c4.3,2.4,7.6,5.6,10,9.6s3.4,8.4,3.2,13.1
		c-0.2,4.7-1.7,9.4-4.3,14.1c-2.6,4.8-6,8.6-10,11.2c-4,2.7-8.3,4.1-12.9,4.1c-4.7-0.1-8.9-1.2-13-3.4c-4.4-2.5-7.8-5.7-10.1-9.8
		c-2.3-4.1-3.4-8.5-3.1-13.1C401.6,86.2,402.8,81.8,405.1,77.7L405.1,77.7z M411.4,81.3c-3.2,5.7-4.1,11-2.9,15.9
		c1.3,4.9,4.2,8.7,8.8,11.3c4.8,2.5,9.5,3.1,14.3,1.4c4.8-1.6,8.9-5.4,12.3-11.5c2.1-3.8,3.3-7.5,3.6-11.1c0.3-3.5-0.5-6.8-2-9.8
		c-1.6-3-4-5.3-7.1-7c-4.4-2.4-9-3.1-13.9-1.8C419.7,70,415.3,74.2,411.4,81.3L411.4,81.3z"/>
	<path class="st0" d="M350,85.6l16.6-51.1l19.3,6.3c3.4,1,6,2.1,7.6,3c2.3,1.2,4.2,2.7,5.5,4.5c1.3,1.7,2.1,3.7,2.5,6.2
		c0.4,2.4,0.1,4.9-0.7,7.5c-1.4,4.3-3.9,7.5-7.7,9.7c-3.7,2.1-9.2,2-16.4-0.4L363.5,67l-6.7,20.8L350,85.6L350,85.6z M365.5,61
		l13.2,4.3c4.4,1.4,7.7,1.6,10.1,0.6c2.4-1,4.1-3,5-6c0.6-2.1,0.7-4.2,0.2-6.1c-0.7-1.9-1.7-3.4-3.4-4.4c-1-0.7-3.1-1.5-6.1-2.5
		l-13-4.2L365.5,61L365.5,61z"/>
	<path class="st0" d="M510.8,364.9l50.2,19.3l-7.3,18.8c-1.5,3.8-3.2,6.7-5,8.6c-2,2-4.2,3.2-6.8,3.6c-2.6,0.6-5,0.4-7.4-0.6
		c-2.1-0.8-4-2.1-5.4-4c-1.5-2-2.3-4.3-2.6-7.1c-2,2.7-4.4,4.5-7.2,5.2c-2.8,0.8-5.7,0.7-8.6-0.5c-2.3-0.8-4.3-2.2-6-4
		c-1.7-1.8-2.7-3.5-3.3-5.4c-0.6-1.9-0.7-4.1-0.4-6.4c0.3-2.4,1-5.2,2.2-8.5L510.8,364.9L510.8,364.9z M514.2,373.9l-4.8,12.5
		c-0.8,2.1-1.3,3.6-1.5,4.6c-0.3,1.7-0.4,3.1-0.1,4.4c0.2,1.3,0.8,2.4,1.8,3.6c1,1.1,2.2,2,3.9,2.6c1.9,0.6,3.6,0.8,5.4,0.4
		c1.8-0.4,3.2-1.4,4.4-2.9c1.2-1.4,2.4-3.8,3.7-7l4.4-11.5L514.2,373.9L514.2,373.9z M537.4,382.7l-4.2,10.9
		c-1.1,2.9-1.7,5.1-1.9,6.5c-0.1,1.9,0.3,3.4,1.1,4.7c0.8,1.3,2,2.3,3.8,3c1.7,0.7,3.3,0.8,4.8,0.5c1.6-0.3,2.9-1.1,3.9-2.4
		c1-1.3,2.2-3.7,3.6-7.4l3.9-10L537.4,382.7L537.4,382.7z"/>
</g>
</svg>
