<?xml version="1.0" encoding="utf-8"?>
<!-- Generator: Adobe Illustrator 21.1.0, SVG Export Plug-In . SVG Version: 6.00 Build 0)  -->
<svg version="1.1" id="Layer_1" xmlns="http://www.w3.org/2000/svg" xmlns:xlink="http://www.w3.org/1999/xlink" x="0px" y="0px"
	 viewBox="0 0 200 200" style="enable-background:new 0 0 200 200;" xml:space="preserve">
<style type="text/css">
	.st0{fill:#FFFFFF;}
	.st1{fill:#B52148;}
	.st2{fill:#F2A82D;}
	.st3{fill:#231F20;}
</style>
<g>
	<path class="st0" d="M100,200c-17.4,0-33.7-9-46-25.2c-12.2-16.2-19-37.8-19-60.7c0-22.9,6.7-44.5,19-60.7
		c12.3-16.3,28.6-25.2,46-25.2s33.7,9,46,25.2c12.2,16.2,19,37.8,19,60.7c0,22.9-6.7,44.5-19,60.7C133.7,191,117.4,200,100,200z"/>
	<path class="st1" d="M100.2,95.8c9.9,0,18.8,4,25.3,10.5l6.9-7.3c-8.3-8.2-19.7-13.3-32.3-13.3c-25.3,0-46,20.7-46,46
		c0,25.3,20.6,46,46,46c25.3,0,46-20.6,46-46c0-3.6-0.4-7.1-1.2-10.5h-22.6v10.1h13.7c0,0.1,0,0.2,0,0.4c0,19.8-16.1,35.9-35.9,35.9
		c-19.8,0-35.9-16.1-35.9-35.9C64.3,111.9,80.5,95.8,100.2,95.8z"/>
	<path class="st2" d="M134.8,131.3c0,0.1,0,0.2,0,0.4c0,19.1-15.5,34.6-34.6,34.6c-19,0-34.6-15.6-34.6-34.6c0-3.6,0.6-7.1,1.6-10.5
		h10.8c-1.5,3.2-2.3,6.7-2.3,10.5c0,13.5,11,24.5,24.5,24.5c13.5,0,24.5-11,24.5-24.5c0-0.1,0-0.3,0-0.4H134.8z M124.3,72.4
		c-0.4-12.9-11.1-23.3-24.1-23.3c-13.2,0-24.1,10.8-24.1,24.1c0,8.3,4.2,15.6,10.6,20l27,18.1c3.7,2.5,6.7,5.9,8.6,10v0h10.8
		c-2.4-7.5-7.2-13.9-13.7-18.2L92.4,84.8c-3.7-2.5-6.2-6.8-6.2-11.6c0-7.7,6.3-14,14-14c7.5,0,13.6,5.9,14,13.3H124.3z"/>
	<path class="st3" d="M108.3,125.2c0.2-0.1,0.3-0.3,0.5-0.4c0.3-0.1,0.6-0.2,1.1-0.2c0.8,0,1.6,0.3,2.2,1c0.5,0.5,0.8,1.3,0.8,2.4
		c0,0.8-0.3,2-1,2.7c-0.6,0.6-1.4,1-2.7,1c-0.9,0-1.7-0.3-2.3-0.9c-0.7-0.6-0.9-1.4-1-2.3h2.1c0,0.4,0.2,0.8,0.4,1.1
		c0.2,0.2,0.5,0.3,0.9,0.3c0.4,0,0.8-0.2,1-0.5c0.3-0.3,0.4-0.8,0.4-1.3c0-0.5-0.1-0.9-0.4-1.3c-0.2-0.3-0.6-0.5-1-0.5
		c-0.1,0-0.4,0-0.6,0.1c-0.4,0.1-0.6,0.4-0.7,0.6l-1.8-0.1l0.7-5.7h5.6v1.8h-4.1L108.3,125.2z M99.2,130.5c0.6,0.9,1.5,1.3,2.7,1.3
		c1.2,0,2.1-0.4,2.7-1.3c0.6-0.9,0.9-2.2,0.9-4c0-1.8-0.3-3.1-0.9-4c-0.6-0.9-1.5-1.3-2.7-1.3c-1.2,0-2.1,0.4-2.7,1.3
		c-0.6,0.9-0.9,2.2-0.9,4C98.4,128.3,98.6,129.6,99.2,130.5z M100.8,123.7c0.2-0.5,0.6-0.8,1.1-0.8c0.5,0,0.9,0.2,1.1,0.8
		c0.2,0.6,0.3,1.5,0.3,2.8c0,1.3-0.1,2.2-0.3,2.8c-0.2,0.5-0.6,0.8-1.1,0.8c-0.5,0-0.9-0.3-1.1-0.8c-0.2-0.6-0.3-1.5-0.3-2.8
		C100.5,125.2,100.6,124.3,100.8,123.7z M91.7,131c0.6,0.5,1.3,0.7,2.1,0.7c1,0,2-0.4,2.7-1.4c0.6-0.8,0.9-2.1,0.9-3.9
		c0-0.7,0-2-0.4-3.2c-0.4-1.1-1.3-2.1-3-2.1c-1,0-1.9,0.3-2.5,1c-0.6,0.6-0.9,1.6-0.9,2.8c0,0.9,0.3,1.7,0.9,2.3
		c0.5,0.6,1.2,0.9,2.2,0.9c0.3,0,0.7,0,1-0.2c0.3-0.1,0.6-0.3,0.8-0.6c0,0.9-0.2,1.5-0.4,1.9c-0.3,0.5-0.7,0.7-1.1,0.7
		c-0.3,0-0.6-0.1-0.7-0.3c-0.2-0.2-0.4-0.5-0.4-0.8h-2C90.8,129.8,91.1,130.5,91.7,131z M92.9,123.4c0.3-0.4,0.7-0.4,1-0.4
		c0.5,0,0.8,0.2,1.1,0.5c0.2,0.3,0.4,0.8,0.4,1.4c0,0.5-0.1,0.9-0.4,1.2c-0.3,0.3-0.6,0.4-1,0.4c-0.3,0-0.7-0.1-1-0.3
		c-0.3-0.3-0.4-0.7-0.4-1.5C92.6,124.1,92.7,123.7,92.9,123.4z M84.9,124.6l2,0v7h2v-10.3h-1.7v0.1c0,0.6-0.3,1-0.6,1.2
		c-0.5,0.4-1.1,0.4-1.7,0.4V124.6z"/>
	<path class="st3" d="M100,200c-17.4,0-33.7-9-46-25.2c-12.2-16.2-19-37.8-19-60.7c0-22.9,6.7-44.5,19-60.7
		c12.3-16.3,28.6-25.2,46-25.2s33.7,9,46,25.2c12.2,16.2,19,37.8,19,60.7c0,22.9-6.7,44.5-19,60.7C133.7,191,117.4,200,100,200z
		 M100,29.3c-35.2,0-63.8,38-63.8,84.7s28.6,84.7,63.8,84.7s63.8-38,63.8-84.7S135.2,29.3,100,29.3z"/>
	<polygon class="st2" points="126.7,11.1 117.6,8.9 116.6,0 111.9,7.6 102.6,5.4 108.8,12.5 103.8,20.5 112.6,16.9 119.2,24.2 
		118.2,14.6 	"/>
	<polygon class="st2" points="153.1,29.9 145.8,24.1 148.8,15.6 141.3,20.4 133.9,14.5 136.4,23.6 128.5,28.7 137.9,29.1 
		140.8,38.6 144,29.4 	"/>
	<polygon class="st2" points="65.7,14.7 58.4,20.6 50.7,16 53.9,24.3 46.5,30.3 55.9,29.8 59.3,38.6 61.7,29.4 71.5,28.6 63.3,23.6 
			"/>
	<polygon class="st2" points="95.2,5.6 86.2,8 81.1,0.6 80.5,9.5 71.4,12 80.2,15.3 79.6,24.7 85.6,17.3 94.9,20.6 89.4,12.7 	"/>
</g>
</svg>
