<?xml version="1.0" encoding="utf-8"?>
<!-- Generator: Adobe Illustrator 21.1.0, SVG Export Plug-In . SVG Version: 6.00 Build 0)  -->
<svg version="1.1" id="Layer_1" xmlns="http://www.w3.org/2000/svg" xmlns:xlink="http://www.w3.org/1999/xlink" x="0px" y="0px"
	 viewBox="0 0 200 200" style="enable-background:new 0 0 200 200;" xml:space="preserve">
<style type="text/css">
	.st0{filter:url(#Adobe_OpacityMaskFilter);}
	.st1{fill:#FFFFFF;}
	.st2{mask:url(#mask-2);fill:#FEFEFE;}
	.st3{fill:#0F4B90;}
	.st4{fill:#FEC42F;}
	.st5{fill:#FEFEFE;}
</style>
<g>
	<defs>
		<filter id="Adobe_OpacityMaskFilter" filterUnits="userSpaceOnUse" x="0.2" y="0" width="199.6" height="200">
			<feColorMatrix  type="matrix" values="1 0 0 0 0  0 1 0 0 0  0 0 1 0 0  0 0 0 1 0"/>
		</filter>
	</defs>
	<mask maskUnits="userSpaceOnUse" x="0.2" y="0" width="199.6" height="200" id="mask-2">
		<g class="st0">
			<polygon id="path-1" class="st1" points="199.8,0 0.2,0 0.2,200 199.8,200 			"/>
		</g>
	</mask>
	<path id="Fill-1" class="st2" d="M100,0C45,0,0.2,44.9,0.2,100c0,55.1,44.8,100,99.8,100s99.8-44.9,99.8-100
		C199.8,44.9,155,0,100,0"/>
	<path id="Fill-4" class="st3" d="M100,2.7C46.4,2.7,2.9,46.3,2.9,100s43.4,97.3,97.1,97.3c53.6,0,97.1-43.5,97.1-97.3
		S153.6,2.7,100,2.7"/>
	<path id="Fill-6" class="st4" d="M174.4,135.2c-14.8-3.3-28.4-8.4-40.9-14.4c-1.9-0.9-3.8-1.9-5.7-2.9c-9.1-4.7-17.6-10-25.2-15.3
		c-1.5-1.1-3.1-2.2-4.5-3.2c-0.1-0.1-0.2-0.1-0.3-0.2c-2-1.4-3.9-2.9-5.7-4.3c-3-2.4-5.9-4.7-8.6-7c-3.1-2.7-6.1-5.3-8.8-7.8
		c-2.4-2.2-4.6-4.4-6.6-6.4c-0.4-0.4-0.8-0.8-1.3-1.3c-3.2-3.3-6-6.3-8.3-8.8c-0.1-1.9-0.1-3.6-0.2-5.1c-0.1-3.7-0.2-5.8-0.2-5.8
		l-2.6-1.2l-1.8,1.6l-0.6,0.5c0,0,0,1.4,0.1,3.9c-0.6-0.7-1-1.2-1.4-1.7c0-2.1,0-3.7,0-4.7c0-0.9,0-1.5,0-1.5h-3.6l-0.1,2.1L46,52.3
		c0,0-0.1,4.6-0.2,11.8c-5.2,11.8-10.6,21.2-15.5,28.5c-2.5,3.7-4.8,6.8-6.9,9.4c-2.4,3-4.6,5.4-6.2,7c-0.3-2.1-0.5-4.3-0.7-6.4
		c-0.1-1.9-0.2-3.8-0.2-5.7c0-1.9,0.1-3.8,0.2-5.7c1.3-19.4,9.2-37,21.4-50.6c2.7-2.9,5.5-5.7,8.6-8.2c13.2-11,29.8-18,48-19.1
		c1.8-0.1,3.6-0.2,5.4-0.2c2.1,0,4.2,0.1,6.3,0.3c18.3,1.4,35,8.6,48.1,19.9c2.9,2.5,5.7,5.2,8.2,8.1c11.8,13.3,19.4,30.4,20.8,49.1
		c0.2,2.1,0.3,4.3,0.3,6.5c0,1.6-0.1,3.1-0.1,4.7C182.8,113.6,179.6,125,174.4,135.2L174.4,135.2z M19.1,118.5
		c-0.3-1.3-0.6-2.5-0.9-3.8c0.9-1.2,1.9-2.6,3-4.2L19.1,118.5z M27.9,101.6l-4.9,28.1c-1-2.3-1.8-4.6-2.6-6.9l3.7-16.6
		c0.9-1.4,1.9-2.9,2.9-4.5c0.4-0.6,0.8-1.2,1.2-1.9L27.9,101.6z M43.6,79l-2.6,14.4l-1.3,7.5l-7.9,44.7c-1.2-1.7-2.4-3.4-3.4-5.2
		l7-39.3l1.4-8.1l1.2-6.8l0.8-4.8c2.4-4.4,4.7-9.1,6.8-13.8L43.6,79z M82.6,94.8l1.4,4.5l13.1,41.6c-1.8,0.1-3.6,0.2-5.3,0.4
		L78.7,99.4l-1.5-4.7l-0.7-2.1l-4.5-14.3c0.9,0.9,1.8,1.8,2.7,2.6c1.6,1.6,3.3,3.1,4.8,4.6L82.6,94.8z M89.6,94.9l1.4,4.4l6.8,21.6
		l6.2,19.6l0,0h0c-1.7,0.1-3.4,0.2-5,0.3l-1.5-4.9L85.9,99.3l-1.4-4.5L82.4,88c2.4,2.2,4.7,4.2,7,6.2L89.6,94.9z M118.6,139.8
		c-1.8,0.1-3.5,0.1-5.2,0.2l-10.7-34.1l-0.3-1.1c0.1,0.1,0.2,0.2,0.3,0.2c2.2,1.7,4.4,3.4,6.5,4.9L118.6,139.8z M133.3,139.4
		c-1.9,0-3.8,0.1-5.6,0.1l-6.7-21.2c2.5,1.7,4.9,3.2,7.3,4.6L133.3,139.4z M147.8,133.6c6.4,3,11.3,4.8,14.2,5.8
		c-4.2-0.1-8.3-0.2-12.5-0.2L147.8,133.6z M139.1,129.3c2.3,1.2,4.5,2.3,6.5,3.3l2.1,6.7c-0.6,0-1.3,0-1.9,0c-1.2,0-2.4,0-3.6,0
		l-2.2-7L139.1,129.3z M130.5,124.4c2.2,1.3,4.4,2.6,6.4,3.7l3.5,11.2c-1,0-1.9,0-2.9,0c-0.8,0-1.6,0-2.4,0l-3.2-10.4L130.5,124.4z
		 M118.6,116.8c0.1,0.1,0.2,0.1,0.3,0.2l-0.3-0.1l7.1,22.7c-1.8,0.1-3.6,0.1-5.4,0.2l-8.7-27.8C114.1,113.7,116.4,115.2,118.6,116.8
		l0,0.1l0,0L118.6,116.8z M91.9,96.4c1.1,1,2.3,1.9,3.4,2.8c0.9,0.8,1.8,1.5,2.8,2.3c0.6,0.4,1.1,0.9,1.7,1.4l3.1,9.8l8.7,27.5
		c-1.9,0.1-3.8,0.2-5.7,0.3l-2.2-7l-5.7-18l-5.1-16.1L91.9,96.4z M148.9,154.3c-9.8-0.5-24.2-0.9-43.9-0.9c-2.6,0-5.3,0-8.1,0
		c-6.3,0-13,0.1-20.2,0.3c6.8-0.3,13.6-0.5,20.2-0.7c2.7-0.1,5.4-0.1,8-0.2c16.3-0.3,31.2-0.3,42.6-0.1c6,0.1,11,0.2,14.7,0.3
		c-0.6,0.7-1.3,1.4-1.9,2C157.5,154.8,153.7,154.5,148.9,154.3L148.9,154.3z M63.1,156.7c9.7-0.2,21.4-0.4,33.6-0.4
		c2.8,0,5.6,0,8.4,0c16.4,0.2,33.3,0.7,47.4,2c1.3,0.1,2.7,0.2,4,0.4c-0.6,0.6-1.3,1.1-1.9,1.7c-14.7,12.7-33.7,20.4-54.6,20.4
		c-12.6,0-24.5-2.8-35.2-7.8C64.1,168.5,63.6,162.9,63.1,156.7L63.1,156.7z M57,168.9c-0.7-0.4-1.3-0.8-1.9-1.2
		c-0.2-3.3-0.4-6.9-0.6-10.8c0.6,0,1.3,0,1.9-0.1C56.6,161.6,56.8,165.6,57,168.9L57,168.9z M61.4,132.6c-0.3-5.3-0.6-10.8-0.9-16.2
		l3.7,11.8l2.3,7.1l2.5,7.9c-2.4,0.2-4.7,0.5-6.9,0.7c0-0.4-0.1-0.9-0.1-1.3C61.8,139.3,61.6,136,61.4,132.6L61.4,132.6z M59.6,94.3
		c0-1.1-0.1-2.3-0.1-3.4l1.1,3.5l1.7,5.5l6.3,20.2l2.1,6.8l4.9,15.7c-1.6,0.1-3.2,0.3-4.7,0.4l-3.1-9.9l-2.2-7.1l-5.3-17
		c-0.1-3.1-0.3-6.1-0.4-9.1C59.7,98,59.7,96.2,59.6,94.3L59.6,94.3z M40,146.5l4.9-27.8c-0.1,9.7-0.2,19.2-0.2,27.1
		C43.1,146.1,41.5,146.3,40,146.5L40,146.5z M44.9,160c-1-0.9-2-1.8-3-2.7c0.9,0,1.8-0.1,2.9-0.1C44.9,158.2,44.9,159.1,44.9,160
		L44.9,160z M42.9,93.5l2.6-14.8c-0.1,4.7-0.2,9.7-0.2,15c0,2.3-0.1,4.6-0.1,7c0,2.9-0.1,5.9-0.1,8.9l-0.2,0l-6.6,37.3
		c-1.8,0.3-3.5,0.5-4.9,0.7l8.3-46.7L42.9,93.5z M61.8,67.9c1.1,1.2,2.2,2.3,3.3,3.4c1.2,1.2,2.3,2.4,3.5,3.5
		c0.1,0.1,0.3,0.3,0.4,0.4l0.6,1.8L73,87.7l2.2,7l1.5,4.7l0.1,0.2L90,141.4c-1.7,0.1-3.5,0.3-5.1,0.4l-9.5-30.2l-2.1-6.8l-1.6-5.2
		l-1.5-5l-7.5-23.8L61.8,67.9z M58.5,64.4c0.1,0.2,0.3,0.3,0.4,0.4l1.7,5.5l7.6,24.3l1.6,5.1l2.8,8.8l2.1,6.6l8.4,26.9
		c-1.9,0.2-3.8,0.3-5.7,0.5l-5.6-18.2l-2.1-6.7l-5.5-17.7l-1.7-5.4l-3.4-10.9c-0.2-5-0.4-9.6-0.5-13.6
		C58.6,67.9,58.5,66.1,58.5,64.4L58.5,64.4z M51.9,57.2c0.5,0.5,0.9,1,1.4,1.5c0.1,3,0.2,7.2,0.3,12.2c0.2,6.6,0.4,14.5,0.6,23.2
		c0.1,2,0.1,4,0.2,6.1c0.4,13,0.8,27,1.3,39.4c0.1,1.7,0.1,3.4,0.2,5c-0.7,0.1-1.3,0.1-1.9,0.2c0-1.1-0.1-2.3-0.1-3.4
		c-0.5-13.2-0.9-27.7-1.2-41.1c0-2.1-0.1-4.2-0.1-6.2c-0.2-8.1-0.3-15.7-0.4-22.2C52,65.9,51.9,60.9,51.9,57.2L51.9,57.2z
		 M32.5,92.7c1.2-2.1,2.5-4.2,3.7-6.4l-0.5,2.9l-0.7,3.7l-1.5,8.3l-6.5,37c-1.1-1.9-2.1-3.9-3-5.9l5.4-30.8l1-5.5
		c0.2-0.4,0.5-0.8,0.7-1.2C31.7,94.2,32.1,93.5,32.5,92.7L32.5,92.7z M100,7.5c-49.3,0-89.3,40-89.3,89.5c0,49.4,40,89.5,89.3,89.5
		c25.1,0,47.7-10.4,63.9-27c0.5-0.3,1.2-1.1,1.8-1.9c14.6-15.9,23.6-37.2,23.6-60.6C189.2,47.5,149.3,7.5,100,7.5L100,7.5z"/>
	<path id="Fill-8" class="st5" d="M16.3,96.9c0,1.9,0.1,3.8,0.2,5.7c1.2-0.1,3.5-0.3,6.9-0.6c2.1-2.6,4.4-5.7,6.9-9.4
		c-7.5-0.6-12.2-1.2-13.8-1.4C16.4,93.1,16.3,95,16.3,96.9 M183.6,96.9c0-2.2-0.1-4.3-0.3-6.5c-19.9,1.9-38.5,3-55.5,3.7
		C128.7,81,135,69.2,144,57.8c7.2-9.3,14.8-14.3,18.6-16.5c-2.6-2.9-5.3-5.6-8.2-8.1c-6.5,6.5-27.8,29.9-29.4,61
		c-7.9,0.3-15.4,0.4-22.5,0.5c-0.4-48.6,3.4-78.6,3.8-81.5c-2.1-0.2-4.2-0.3-6.3-0.3c-1.8,0-3.6,0.1-5.4,0.2
		C95,17.2,97.9,47,98,94.8c-2,0-4,0-6,0c1.9,1.4,3.8,2.9,5.7,4.3H98v0.2c1.5,1.1,3,2.2,4.5,3.2c0-1.2,0-2.3-0.1-3.4
		c7.1,0,14.6,0,22.4,0.2c0.1,6,1,12.2,2.9,18.6c1.9,1,3.8,1.9,5.7,2.9c-3.6-7.6-5.3-14.6-5.7-21.4c17,0.3,35.7,1,55.7,2.2
		C183.6,100,183.6,98.5,183.6,96.9 M46.5,32.4c-3,2.5-5.9,5.3-8.6,8.2c2.2,1.1,6.9,3.9,12.4,9h1.5c0,0,0,0.5,0,1.5
		c0.6,0.6,1.3,1.3,1.9,2l1.8-1.6l2.6,1.2c0,0,0.1,2.2,0.2,5.9c3.8,4.9,7,9.9,9.6,15l6.6,6.2C68.3,54.5,50.9,36.6,46.5,32.4"/>
</g>
</svg>
