<?xml version="1.0" encoding="utf-8"?>
<!-- Generator: Adobe Illustrator 21.1.0, SVG Export Plug-In . SVG Version: 6.00 Build 0)  -->
<svg version="1.1" id="Layer_1" xmlns="http://www.w3.org/2000/svg" xmlns:xlink="http://www.w3.org/1999/xlink" x="0px" y="0px"
	 viewBox="0 0 200 200" style="enable-background:new 0 0 200 200;" xml:space="preserve">
<style type="text/css">
	.st0{fill:#FEFEFE;}
	.st1{fill:#2D2925;}
	.st2{fill:#C21F32;}
</style>
<g>
	<path id="Fill-1" class="st0" d="M45.2,106.6c4.4-2.4,16.2-4.2,27.1-5.9c0,4.1-0.1,8.5-0.2,13.4C52.9,112,45.9,108.2,45.2,106.6
		L45.2,106.6z M92,43.3c11.5,1.5,18,4.6,18.6,8.6c0.6,4.2-0.4,7.6-2.9,10.3c-3.9,3.6-9.9,5.5-15,6.4C92.8,59,92.5,50.8,92,43.3
		L92,43.3z M92.3,88.7c0.1-3.9,0.2-7.9,0.3-11.9c9.4,1.4,14.8,4,14.7,7.1l-0.3,31.5c-4.9,0.1-10.1,0.1-15,0l0.1-2.1
		C91.9,106.1,92.1,97.7,92.3,88.7L92.3,88.7z M127,114.2l0.2-13.4c21.3,2.9,26.7,5.2,27.4,6.5c0,0,0,0.1-0.2,0.3
		C150.6,110.4,140.5,112.9,127,114.2L127,114.2z M174.9,108.2c-0.1-1.9-1-3.6-2.7-5.2c-6.4-5.9-24.7-9.3-45-8.8l0.2-14.9
		c0-3.1-1-5.6-3-7.6c-1.4-1.4-3.2-2.4-5.5-3.1c2.1-1.3,4.2-2.8,5.9-4.7c5-4.6,7.2-10.4,6.8-17.2c-0.3-4.3-2.2-8-5.6-10.9
		c-6.8-5.8-19.1-8-35.6-6.5c-1.3-8.7-3-16.2-5.4-23l-2.3-6.5l-0.8,2.4l-0.4-1.2l-2.1,6.5c-2.9,9.1-4.9,16.8-6.1,24.1
		c-13.6,2.4-22.9,5.5-23.3,5.6l-19.4,6.3l3.4-0.3l-4.5,1.5L49.9,43c0.1,0,10.4-0.8,22.3-0.9c-0.7,8.7-0.5,17.4-0.2,28.2
		c0.2,6.9,0.4,14.6,0.4,24c-18.3-0.2-38.4,2.5-44.3,9.4c-2.6,2.2-3,4.4-3,5.8c0.4,11.5,34.1,15.8,47.4,17l1.1,35.4l4.6,0.1l0.1-1.2
		l0.3,0l0.2,9l4.6,0.1l0.1-1.2l0.5,0l0.2,8.5l4.6,0l0-1.2H90l1.6-48.4c5.1,0.1,10.4,0.1,15.5,0l1.6,50.6l4.6,0l0.1-1.2l0.6,12.1
		l4.6,0l0.1-1.2l0.5,0l0.3,12.1l4.6,0l0-1.2h1.2l1.7-72.4c23.7-2.3,40.5-7,45-12.6c2.1-1.8,3.1-3.6,3.1-5.6V108.2z"/>
	<path id="Fill-4" class="st1" d="M171.4,109.5c0,8.4-32.8,16-72.4,16c-39.6,0-71.4-7.5-71.7-16c-0.3-7.6,22.2-12.6,47.8-11.6
		c-16.7,2.5-33.5,4.9-33.5,9.4c0,6.8,25.3,11.6,57.4,11.6c32.1,0,57.8-4.8,57.8-11.6c0-4.4-15.5-7-34-9.4
		C148.8,96.6,171.1,102.2,171.4,109.5"/>
	<path id="Fill-6" class="st1" d="M85.6,142.4l0.9,34.8l2-62.7c-0.8-27.6,4.8-72.8-6.8-106.2c-12.3,38.3-5.7,47-7.3,107.2l1.5,46.4
		l1.9-25.4c0.1-3.1,2.5-2.9,2.5-0.2l0.8,33.4l2.1-27.2C83.1,139,85.7,139.1,85.6,142.4"/>
	<path id="Fill-8" class="st1" d="M123.4,124.6l-1.8,75.5l-1.2-44.4c-0.1-3.2-2.7-3.3-2.8,0l-1.4,33.5l-1.4-38.8
		c0-3.1-2.4-3.3-2.4,0.2l-1.4,27.7l-1.7-54.7l0.4-39.6c0.3-10.6-30.8-10.5-30.8-10.5s37,0.8,34-21.8c-2.2-16.4-63.2-10.9-63.2-10.9
		s17.2-5.6,38.8-7.7c24.2-2.4,38.8,3.5,39.6,15.2c1.4,20.7-25.4,23.7-25.4,23.7s21.1-4.1,21.2,8.7L123.4,124.6z"/>
	<path id="Fill-10" class="st2" d="M172.6,108.3c0,8.4-32.8,16-72.4,16c-39.6,0-71.4-7.6-71.7-16c-0.3-7.6,22.2-12.6,47.8-11.6
		c-16.7,2.5-33.5,4.9-33.5,9.4c0,6.8,25.3,11.7,57.4,11.7c32.1,0,57.8-4.8,57.8-11.7c0-4.4-15.5-7-34-9.4
		C150,95.4,172.3,101,172.6,108.3"/>
	<path id="Fill-12" class="st2" d="M86.8,141.2l0.9,34.8l2-62.7C89,85.7,94.5,40.5,82.9,7.2c-12.3,38.3-5.7,47-7.3,107.2l1.5,46.4
		l1.9-25.4c0.1-3.1,2.5-2.9,2.5-0.1l0.9,33.4l2.1-27.2C84.3,137.8,86.9,137.9,86.8,141.2"/>
	<path id="Fill-14" class="st2" d="M124.6,123.4l-1.8,75.5l-1.2-44.4c-0.1-3.2-2.7-3.3-2.8,0l-1.4,33.5l-1.4-38.8
		c0-3.1-2.4-3.3-2.4,0.2l-1.4,27.7l-1.7-54.7l0.4-39.6C111.1,72.1,80,72.3,80,72.3s37,0.8,34-21.8C111.8,34,50.9,39.6,50.9,39.6
		s17.2-5.7,38.8-7.8c24.2-2.4,38.8,3.5,39.6,15.2c1.4,20.7-25.4,23.7-25.4,23.7s21.1-4.1,21.2,8.7L124.6,123.4z"/>
</g>
</svg>
