<?xml version="1.0" encoding="utf-8"?>
<!-- Generator: Adobe Illustrator 21.1.0, SVG Export Plug-In . SVG Version: 6.00 Build 0)  -->
<svg version="1.1" id="Layer_1" xmlns="http://www.w3.org/2000/svg" xmlns:xlink="http://www.w3.org/1999/xlink" x="0px" y="0px"
	 viewBox="0 0 200 200" style="enable-background:new 0 0 200 200;" xml:space="preserve">
<style type="text/css">
	.st0{fill:#BEC0C2;}
	.st1{fill:#002D62;}
	.st2{fill:#FDBB30;}
</style>
<g>
	<path class="st0" d="M184.1,32.9c-13.6-16.3-33.3-25.6-55.2-25.6H41L0.3,192.6h75l10.7-44.9c10.1,0,36.6,0,36.6,0
		c25.2,0.2,45.7-8.3,59.7-24.6C207.4,95.9,203.1,55.8,184.1,32.9z"/>
	<path class="st1" d="M82.2,143l-10.7,44.9H6.3L45,12.2h83.9c20.9,0,38.9,8.5,51.5,23.8c18.6,22.5,20.5,59.7-1.9,84.1
		c-13.6,16.1-33.7,23.1-55.8,22.9L82.2,143z"/>
	<path class="st2" d="M36.3,51.3h36.8c4.1,0,8.7,3.5,6.8,8.9c-1.2,3.3-2.1,7.2-2.5,10.7c-0.4,2.9,2.9,4.5,4.5,4.5h75
		c1.4,0,2.1-0.4,2.1-1s0-3.1-0.4-5c-0.2-1.7-0.6-1.9-1.9-1.9c-9.3,0-13.2-4.1-22.9-10.5c-9.7-6.4-24.2-9.9-36.6-9.9H37.1L36.3,51.3z
		"/>
	<path class="st2" d="M81.8,99.8c-1.2-2.7-2.5-6-3.3-9.1c-0.8-3.9-4.1-7-9.9-7H29.1l1-4.3H158c1.2,0,1,0.6,1,1.9
		c0,1.4-0.4,4.1-0.6,5.6c-0.2,1.4-1.4,1.2-2.7,1.2c-2.9,0-8.3,0.8-11.4,3.1c-5.4,3.9-16.5,11-22.9,13
		C114.6,106.3,89,114.1,81.8,99.8"/>
	<path class="st2" d="M22,115.8h66.8c2.9,0,5.6,0.6,7.4,2.3c5.6,4.8,13,8.1,20.7,10.3c3.5,1,9.5-0.2,14.9-3.3
		c13.4-7.6,21.9-21.9,24.8-31.2c0.8-2.5-0.6-2.3-2.5-2.1c-5.6,0.4-11.6,5.6-19.4,10.5c-7.9,5-23.6,9.7-38.7,9.7H22.9L22,115.8z"/>
	<path class="st2" d="M120,26.3c1-0.2,4.3-0.4,6.2,0.4c12.6,5,24.6,18.2,29.8,32.2c1,2.7,1.2,4.3,0,4.5c-5.8,0.6-8.5-2.3-15.3-6.8
		c-6.8-4.5-13.2-7.9-21.9-10.5c-8.5-2.7-24.2-3.1-26-3.1c-2.1,0-1.7-0.8-0.8-1.9C99.3,33.7,109.3,28.3,120,26.3z"/>
	<path class="st2" d="M181,74.4c0,0.6-0.6,1.2-1.2,1.2h-14.7c-1.9,0-1.9-0.8-2.1-1.9c0-1-0.4-3.3-0.4-4.5c0-1.2-0.4-2.7,1.2-3.3
		c4.1-1.7,7.9-5.8,9.7-9.1c0.6-1.2,1.4-3.1,2.5-1.4C179.5,60.8,180.6,67.6,181,74.4z"/>
	<path class="st2" d="M175.8,100.9c-0.2,0.4-1.2,0.8-1.4,0c-2.1-5.8-7.2-9.7-10.7-11.6c-1-0.6-1.2-1.2-1-2.3c0.2-1,0.6-4.3,0.6-5.8
		c0-1,0.4-1.9,1.4-1.9h15.3c0.6,0,1.2,0.4,1.2,0.8C181,87.4,178.7,94.7,175.8,100.9z"/>
	<path class="st2" d="M136.1,129.4c-1,0.2-3.5-0.2,0.2-2.3c11.2-6.4,20.9-21.5,23.6-30.2c1-3.3,1-3.5,2.5-3.1
		c1.7,0.4,4.3,2.9,6.4,5.6c2.1,2.9,2.9,8.3,1.7,9.9C162.6,119.9,149.8,127.3,136.1,129.4z"/>
	<path class="st2" d="M164.2,61c-2.5,1.4-3.1,1-3.7-0.8c-4.8-16.9-19-29.3-24.8-33.1c-1-0.6-0.8-1.2,0-1
		c13.8,1.9,27.5,9.5,34.3,19.8C174.2,51.9,166.7,59.7,164.2,61z"/>
</g>
</svg>
