<?xml version="1.0" encoding="utf-8"?>
<!-- Generator: Adobe Illustrator 21.1.0, SVG Export Plug-In . SVG Version: 6.00 Build 0)  -->
<svg version="1.1" id="Layer_1" xmlns="http://www.w3.org/2000/svg" xmlns:xlink="http://www.w3.org/1999/xlink" x="0px" y="0px"
	 viewBox="0 0 200 200" style="enable-background:new 0 0 200 200;" xml:space="preserve">
<style type="text/css">
	.st0{fill:#FFFFFF;}
	.st1{fill:#051821;}
	.st2{fill:#ED174B;}
	.st3{fill:#006AB6;}
</style>
<g>
	<path class="st0" d="M100,0C44.9,0,0,44.9,0,100c0,55.1,44.8,100,100,100c55.1,0,100-44.9,100-100C200,44.9,155.1,0,100,0z"/>
	<path id="Fill-5" class="st1" d="M170.7,154.3c-11.2-14.5-17.6-31.8-18.4-50h36.8C188.2,122.5,181.8,139.8,170.7,154.3
		 M104.3,189.1v-25.6h-8.6v25.6C72.5,188,51,178,35,161c13.1-16.3,20.4-35.9,21.3-56.7v-8.6C55.4,74.9,48.1,55.3,35,39
		c16-17,37.5-27,60.7-28.1v25.3h8.6V10.9C127.5,12,149,22,165,39c-13.1,16.3-20.4,35.9-21.3,56.7v8.6c0.9,20.8,8.3,40.4,21.3,56.7
		C149,178,127.5,188,104.3,189.1 M29.3,154.3c-11.2-14.5-17.5-31.8-18.4-50h36.8C46.9,122.5,40.5,139.8,29.3,154.3 M29.3,45.7
		c11.2,14.5,17.6,31.8,18.4,50H10.9C11.8,77.5,18.2,60.2,29.3,45.7 M170.7,45.7c11.2,14.5,17.5,31.8,18.4,50h-36.8
		C153.1,77.5,159.5,60.2,170.7,45.7 M100,2.2C46.1,2.2,2.2,46.1,2.2,100s43.9,97.8,97.7,97.8c53.9,0,97.8-43.9,97.8-97.8
		S153.9,2.2,100,2.2"/>
	<polygon id="Fill-7" class="st2" points="78.2,59 78.2,140.6 121.8,140.6 121.8,129.4 89.9,129.4 89.9,59 	"/>
	<path id="Fill-9" class="st3" d="M136.6,86.4V52.8c0-5-2-7.1-7-7.1H70.3c-4.9,0-6.9,2.1-6.9,7.1v94.5c0,5,2,7.1,6.9,7.1h59.3
		c5,0,7-2.1,7-7.1v-33.7h-11.7V144H75.1V56h49.8v30.4H136.6z"/>
	<path class="st2" d="M93.5,59l-0.3,67.2h11.3l0.2-20.9h5.8l-0.1,20.9h11.4l0-67.2H93.5z M110.4,94.1h-5.7V70.3h5.7V94.1z"/>
</g>
</svg>
