<?xml version="1.0" encoding="utf-8"?>
<!-- Generator: Adobe Illustrator 21.1.0, SVG Export Plug-In . SVG Version: 6.00 Build 0)  -->
<svg version="1.1" id="Layer_1" xmlns="http://www.w3.org/2000/svg" xmlns:xlink="http://www.w3.org/1999/xlink" x="0px" y="0px"
	 viewBox="0 0 200 200" style="enable-background:new 0 0 200 200;" xml:space="preserve">
<style type="text/css">
	.st0{fill:#FEFEFE;}
	.st1{fill:#FEC42F;}
	.st2{fill:#542582;}
	.st3{filter:url(#Adobe_OpacityMaskFilter);}
	.st4{fill:#FFFFFF;}
	.st5{mask:url(#mask-2);fill:#542582;}
	.st6{filter:url(#Adobe_OpacityMaskFilter_1_);}
	.st7{mask:url(#mask-4);fill:#542582;}
	.st8{filter:url(#Adobe_OpacityMaskFilter_2_);}
	.st9{mask:url(#mask-6);fill:#542582;}
	.st10{fill:#2D2925;}
	.st11{filter:url(#Adobe_OpacityMaskFilter_3_);}
	.st12{mask:url(#mask-8);fill:#2D2925;}
	.st13{filter:url(#Adobe_OpacityMaskFilter_4_);}
	.st14{mask:url(#mask-10);fill:#2D2925;}
</style>
<g>
	<path id="Fill-1" class="st0" d="M43.5,65.7c0,0,17-27.9,51.9-27.9s51.1,27.1,51.1,27.1h47.3l-1.9,11.6c0,0-1.4,4.6-3.5,5.2h3.2
		c0,0,1.1,4.1-5.4,18.2H200c0,0,0.5,24.6-29.2,36.3c0,0-15.4,4.9-23.2-3.5c0,0-15.7,29.3-52.2,29.3s-53-30.1-53-30.1H0l6.8-12.2H2.1
		l5.4-10h9.2l1.6-3.8H14l10.5-19.5h5.9l2.4-6h-5.1l7.8-14.6H43.5z"/>
	<path id="Fill-3" class="st1" d="M95.9,155.4c29.8,0,54-24.6,54-55c0-30.3-24.2-55-54-55c-29.8,0-54,24.6-54,55
		C41.9,130.8,66.1,155.4,95.9,155.4"/>
	<path id="Fill-5" class="st2" d="M101.9,100.1l-2.4,0c-0.2,0-0.3,0.1-0.3,0.3c0,0.2,0.1,0.3,0.3,0.3l2.4,0c0.8,0,1.5,0.1,1.3,0.5
		L97,113c-0.8,1.4-2.4,1.1-2.7-0.1l-3.1-15.9l10.8-8.4c1.1-0.9,3.1-2.4,4.2-2.4l2.4,0c1.4,0,1.9,0.7,1.6,1.5l-0.4,0.8
		c-0.3,0.4-1.1,0.5-1.8,0.5h-1.4c-0.2,0-0.3,0.1-0.3,0.3c0,0.2,0.1,0.3,0.3,0.3h1.3c0.6,0,1.3,0,1,0.4l-5,9.6
		C103.8,100.1,102.7,100.1,101.9,100.1 M120.5,106c-5,6.1-7.9,8.2-13,8.2c-1.7,0-2.7-0.4-2.2-1.2l6.1-12.2h2.3
		c2.6,0,2.2,2.2,1.5,5.1c-0.1,0.4,0.2,0.4,0.5,0.1l5.8-10.2c0.3-0.6-0.4-0.8-0.8-0.3c-2.9,3.9-5.9,3.6-7.2,3.6h-1l6.5-12.4h2.6
		c3.3,0.2,4.8,3,3.9,9.8h1.4l4.8-9.4c0.4-0.8-0.4-1.5-1.3-1.5l-32.4,0c-1.9,0-2,1.4-0.2,1.4c1.5,0,1.4,2.1,0.1,3.1L84,101.1
		l2.8,12.9c0.2,1,0.8,1.4,1.9,1.4h26.8c1.1,0,1.6-0.5,1.9-0.9l4.9-8.4C122.9,104.9,121.4,105,120.5,106"/>
	<path id="Fill-7" class="st2" d="M61.3,102.5h-8.5l10.8-14.2L61.3,102.5z M59.3,111.4c-0.3,1.5-1.7,2.4-3.6,2.9l-1.9,0.5l1.6-2.8
		c0.4-0.8-0.5-1.2-1.5-0.1c-6.6,7.7-8.7,11.4-19,11.5l-2.7,0c-0.8,0-1.7-0.3-1.2-1.1l3.6-6.7h13.7c1.9,0,1.4-1.4,0.3-1.5
		c-0.7,0-1.5-0.4-2.1-1.3c-0.2-0.2-0.5-1.2,0-2l5.3-7h8.7L59.3,111.4z M79.6,114c-0.7,0-1.2-0.5-1.4-1c-0.2-0.7-0.2-1.9,0.1-2.5
		l12.5-22.2c0.2-0.4,0.7-1.3,1.3-1.3c1.1,0,1.6-1.5-0.3-1.5h-10C80,85.6,80,87,81.8,87c0.7,0,1,0.7,0.8,1.2l-2.8,5
		c-0.3,0.6-1.1,0.6-1.9,0.6l-2.4,0c-0.2,0-0.3,0.1-0.3,0.3c0,0.2,0.1,0.3,0.3,0.3h2.4c0.6,0,1.2,0.2,0.8,0.9l-9.2,16.8
		c-0.7,0.9-2,1.1-1.9-0.6l3.3-24.7c0.1-0.8-0.1-1.3-0.9-1.3l-4.9,0c-0.6,0-1,0.3-1.2,0.7l-1.8,2.2c-0.2,0.2-0.7,0.2-1.3,0.2l-4.2,0
		c-0.2,0-0.3,0.1-0.3,0.3c0,0.2,0.1,0.3,0.3,0.3h3.4c0.6,0,1.3,0.1,1.1,0.4l-4.8,6c-0.1,0.2-0.6,0.2-0.9,0.2L54,96
		c-0.2,0-0.3,0.1-0.3,0.3c0,0.2,0.1,0.3,0.3,0.3h1.1c0.3,0,0.3,0.2,0.2,0.3l-4.5,5.6c-0.2,0.2-0.7,0.3-1.1,0.3l-3.9,0
		c-0.2,0-0.3,0.1-0.3,0.3c0,0.2,0.1,0.3,0.3,0.3h3.4c0.5,0,0.9,0.1,0.6,0.4l-6.4,8c-1.2,1.5-7,2.3-8.1,2.3l21.5-40.3
		c0.2-0.5,1-1.2,1.8-1.2h4.6c2.2,0,2.1-1.4,0.2-1.4h-23c-1.9,0-1.9,1.4,0.2,1.4H45c1.2,0,1.6,0.7,1.3,1.3L45.7,75
		c-0.2,0.4-0.5,0.5-1.7,0.5l-7.5,0c-0.2,0-0.3,0.1-0.3,0.3s0.1,0.3,0.3,0.3H44c0.4,0,1,0.1,0.6,0.8l-1,2c-0.2,0.3-0.6,0.4-1.2,0.4
		l-3.4,0c-0.2,0-0.3,0.1-0.3,0.3c0,0.2,0.1,0.3,0.3,0.3h3.4c0.5,0,0.5,0.3,0.2,0.8l-2.4,4.5c-0.2,0.4-0.6,0.4-1.4,0.4l-1.4,0
		c-0.2,0-0.3,0.1-0.3,0.3s0.1,0.3,0.3,0.3h1.3c0.5,0,0.6,0.3,0.4,0.8l-2,3.7c-0.3,0.5-0.7,0.7-2,0.7l-7.5,0c-0.2,0-0.3,0.1-0.3,0.3
		c0,0.2,0.1,0.3,0.3,0.3h7.5c0.8,0,1.2,0.4,0.8,1l-3.9,7.3c-0.2,0.3-0.9,0.4-1.9,0.4l-7.5,0c-0.2,0-0.3,0.1-0.3,0.3
		c0,0.2,0.1,0.3,0.3,0.3l7.5,0c0.9,0,1.4,0,1.2,0.5l-2.2,4.2c-0.4,0.6-1.6,0.6-2,0.6l-2.4,0c-0.2,0-0.3,0.1-0.3,0.3s0.1,0.3,0.3,0.3
		h2.4c0.8,0,1.3,0.1,1.1,0.6l-3,5.6c-0.3,0.5-1.4,0.5-2.3,0.5l-11.6,0c-0.2,0-0.3,0.1-0.3,0.3c0,0.2,0.1,0.3,0.3,0.3l11.6,0
		c0.8,0,1.7,0.1,1.4,0.7l-1.9,3.6c-0.2,0.3-0.8,0.3-1.8,0.3l-2.4,0c-0.2,0-0.3,0.1-0.3,0.3c0,0.2,0.1,0.3,0.3,0.3h2.4
		c0.6,0,1.3,0.1,1,0.5l-1.2,2.3c-0.4,0.6-0.8,1.1-1.7,1.1h-5.8c-2.2,0-2.1,1.4-0.2,1.4l34.2,0c1,0,1-0.1,1.5-0.9l5.1-8.9h25.9
		C81.2,115.5,80.7,114,79.6,114L79.6,114z"/>
	<path id="Fill-9" class="st2" d="M145.8,97.7c-0.9,0.8-2.4,1.7-2.7,1.4c-0.4-0.4-1.6-1.3-2.3-1.6l5.6-10.2c0.2-0.4,0.5-0.6,1.1-0.6
		c2.2,0,2.9,2.4,1.9,5.3C148.7,94.1,147.5,96.4,145.8,97.7 M191,106.9c-0.1-0.7-0.4-0.3-0.9,0.6c-0.1,0.3-0.6,0.3-1,0.3l-1.4,0
		c-0.2,0-0.3,0.1-0.3,0.3c0,0.2,0.1,0.3,0.3,0.3h1.3c0.5,0,0.5,0.3,0.3,0.9c-0.9,2-1.9,3.4-3.2,5c-0.2,0.3-0.7,0.5-1.1,0.5l-1.4,0
		c-0.2,0-0.3,0.1-0.3,0.3c0,0.2,0.1,0.3,0.3,0.3h1.3c0.7,0,0,0.4-0.1,0.6c-2.4,3.2-4,4.6-5.8,6.1c-0.2,0.2-1.2,0.1-1.9,0.1l-1.4,0
		c-0.2,0-0.3,0.1-0.3,0.3c0,0.2,0.1,0.3,0.3,0.3h1.3c1,0,0.3,0.6,0.1,0.7c-3.7,3.1-9.3,4.1-11.8,3.8c-8.3-1-10-7.3-10.6-9.8
		c-0.1-0.5-0.5-1.6-0.7-2.3c-0.3-1.3,3.5-1.7,4.5-1c1.6,1,5.2,2.1,8.1,2.1c2.6,0,8.1-1.9,9.6-6.5c1.6-4.7-2.4-9.8-4.2-11.6
		c-2.3-2.3-4.4-5.9-3.5-8.6c0.7-2,1.8-2.9,4.3-2.9c3.2,0,5.5,2,5.5,4.9c0,0.3-0.2,0.6-0.4,0.6l-1.1,0c-0.2,0-0.3,0.1-0.3,0.3
		s0.1,0.3,0.3,0.3h1c0.3,0,0.5,0.2,0.4,0.6c-0.2,1-0.3,1.6-0.5,2.6c-0.1,0.6,0.7,0.9,1,0.5l5-8.9c0.4-0.7-0.4-0.8-1-0.6
		c-1.4,0.5-3.6,0.8-4.3,0.2c-1.9-1.3-3.5-2.2-6.1-2.2c-4.4,0-7.5,1.1-9.5,4.7c-0.2,0.3-0.6,0.3-1,0.3l-0.8,0c-0.2,0-0.3,0.1-0.3,0.3
		c0,0.2,0.1,0.3,0.3,0.3l0.7,0c0.3,0,0.5,0.1,0.4,0.4c-0.1,0.3-0.3,0.7-0.4,1c-0.5,1.6-0.3,3.8,0.4,5.8c0.1,0.1-0.1,0.2-0.4,0.2
		l-1.4,0c-0.2,0-0.3,0.1-0.3,0.3c0,0.2,0.1,0.3,0.3,0.3h1.3c0.6,0,0.8,0.1,1,0.4c0.7,1,1.4,1.7,2.3,2.8c0.3,0.4-0.9,0.5-1.6,0.5
		h-5.3c-0.2,0-0.3,0.1-0.3,0.3c0,0.2,0.1,0.3,0.3,0.3l5.4,0c0.9,0,2.4,0,2.5,0.2c1.3,1.5,2.9,3.8,3.2,5.8c0.1,0.6-0.1,0.8-0.8,0.8
		h-0.7c-0.2,0-0.3,0.1-0.3,0.3s0.1,0.3,0.3,0.3h0.6c0.5,0,0.9,0.1,0.7,0.5c-0.7,2.3-1.8,3.9-6,3.9c-4.5,0-5.4-4.4-4.1-9
		c0.3-0.9,0-1.3-0.4-0.6l-3.1,4.9c-0.1,0.1-0.4,0.4-0.9,0.4l-0.4,0c-0.2,0-0.3,0.1-0.3,0.3c0,0.2,0.1,0.3,0.3,0.3
		c0.4,0,0.6,0.2,0.4,0.4l-1.2,1.8c-1.9-4.3-5.1-9.7-6.7-11.6l0-0.1c4.2-0.3,10.3-4.2,11.3-7.7c1.7-6.1-4.1-8.3-7.3-8.3l-14.1,0
		c-1.9,0-2,1.4-0.2,1.4c1,0,1.8,0.9,1.4,1.7l-3.1,5.6c-0.3,0.5-1.2,0.4-2.5,0.4h-1.4c-0.2,0-0.3,0.1-0.3,0.3s0.1,0.3,0.3,0.3h1.3
		c0.9,0,1.9,0.1,1.6,0.7l-3.7,6.7c-0.2,0.3-0.7,0.3-1.9,0.3l-1.4,0c-0.2,0-0.3,0.1-0.3,0.3c0,0.2,0.1,0.3,0.3,0.3l1.3,0
		c1,0,1.4,0.1,1.1,0.6l-4.9,8.9c-0.6,0.6-1.3,0.8-2.5,0.8c-1.8,0-1.8,1.4,0.1,1.4h12.1c1.9,0,1.4-1.5,0.3-1.5
		c-0.6,0-1.3-1.2-0.9-1.9l6.2-11.7h0.6c2.7,0,3.4,4.5,3.9,9.4c0,0.3-0.6,0.4-2,0.4l-3.4,0c-0.2,0-0.3,0.1-0.3,0.3
		c0,0.2,0.1,0.3,0.3,0.3h3.4c0.9,0,2.2,0,2.2,0.3c0.2,2.2,0.4,4.1,0.8,5.8c0.1,0.5-0.8,0.5-1.9,0.5l-4.4,0c-0.2,0-0.3,0.1-0.3,0.3
		c0,0.2,0.1,0.3,0.3,0.3l4.4,0c1.4,0,2.1,0,2.2,0.3c1.9,6.9,9.9,12.3,17.7,12c6.7-0.3,12.4-3.9,15.3-6.2c3.9-3.1,9.5-9.6,11.8-14.3
		C190.4,108.8,191.1,107.7,191,106.9"/>
	<path id="Fill-11" class="st2" d="M78,76.5c-1.1,1.5-2.6,1.8-4.3,1.8h-0.5l3-5.9c0.1-0.3,0.5-0.5,0.8-0.5c0.4,0,0.3-0.7-0.2-0.7
		h-4.7c-0.4,0-0.5,0.7-0.2,0.7c0.4,0,0.5,0.4,0.3,0.8L69.6,78c-0.2,0.3-0.5,0.4-0.8,0.4c-0.4,0.1-0.7,0.8-0.2,0.8H76
		c0.6,0,0.7-0.2,0.9-0.4l1.5-2.3C78.6,76.3,78.2,76.2,78,76.5"/>
	<path id="Fill-13" class="st2" d="M100.4,71.4c-0.2,0.1-0.8,0.2-1,0c-0.6-0.5-1.8-0.9-2.4-0.9c-1.8,0-3,0.3-3.8,2
		c-0.7,1.4,0,2.6,1.6,3.3c0.7,0.3,1.6,0.7,1.2,1.5c-0.3,0.6-0.9,0.7-1.6,0.6c-0.8,0-2.1-0.6-2.3-1.8c-0.1-0.4-0.5-0.3-0.6-0.1
		l-1.1,2.1c-0.2,0.3,0.3,0.6,0.4,0.4c0.4-0.4,1.1-0.5,1.5-0.2c0.5,0.3,1.9,1,2.7,1c1.8,0,3-0.5,3.9-2c0.9-1.4,0.3-2.8-1.3-3.6
		c-0.9-0.4-1.6-1.1-1.2-1.9c0.2-0.5,1-0.4,1.4-0.3c0.7,0.1,1.7,0.8,1.8,1.4c0,0.3,0.4,0.3,0.5,0.1l0.6-1.3
		C101,71.6,100.6,71.4,100.4,71.4"/>
	<path id="Fill-15" class="st2" d="M152.2,73.5l0.6-1.2c0.3-0.5-0.2-1.1-0.9-1.1h-8.7c-0.6,0-0.4,0.7-0.2,0.7c0.6,0,0.7,0.7,0.4,1.3
		l-2.6,4.8c-0.4,0.5-0.6,0.7-1.2,0.7c-0.4,0-0.6,0.7,0,0.7h8.8c0.4,0,0.5-0.1,0.6-0.3l1.2-1.6c0.3-0.4-0.3-0.4-0.5-0.2
		c-1.5,1.5-3.2,1.5-4.3,1.5h-1l1.2-2.7h0.3c0.8,0,1.7,0,1.9,0.6c0.1,0.1,0.4,0.3,0.6,0l1-2.1c0.2-0.3-0.3-0.4-0.4-0.1
		c-0.4,0.7-2.2,0.5-2.7,0.5h-0.3l1.5-3h1.7c1,0,1.9,0.7,2.2,1.5C151.6,73.6,152.1,73.8,152.2,73.5"/>
	<path id="Fill-17" class="st2" d="M109.1,75.1l2.9-2.4l0,2.4H109.1z M129.9,71.2h-3.1c-0.6,0-0.4,0.7-0.2,0.7
		c0.7,0,1.3,0.8,0.9,1.5l-1.3,2.4l-2.8-4.2c-0.2-0.3-0.6-0.4-1-0.4h-3.1c-0.6,0-0.5,0.7-0.2,0.7c0.6,0,0.5,0.5,0.3,0.8l-2.4,4.7
		c-0.2,0.4-0.8,0.4-1,0l-1.9-6.1c-0.1-0.2-1.2-0.2-1.5,0l-4.7,3.9l-2.4,0c-0.5,0-0.7,0.2-0.7,0.5s0.2,0.5,0.7,0.5l1.3,0l-1.3,1.1
		c-0.7,0.5-1.4,1.3-1.9,1.3h-0.3c-0.5,0-0.7,0.1-0.7,0.4s0.2,0.5,0.6,0.5h3.8c0.7,0,0.6-0.9,0.2-0.9c-0.4,0-1-0.5-0.4-1.2l1.2-1.1
		h2.3c1.4,0,2.3,1.6,1.5,2.1l-0.6,0.3c-0.3,0.2-0.4,0.8,0,0.8h7.4c0.5,0,0.4-0.7,0.2-0.7c-0.8,0-0.4-1.1-0.3-1.4l2-3.7l2.7,5.3
		c0.2,0.3,0.3,0.5,0.7,0.5h1c0.3,0,0.4-0.2,0.6-0.4l3.1-5.7c0.5-1,0.9-1.3,1.5-1.3C130.4,71.9,130.6,71.2,129.9,71.2L129.9,71.2z"/>
	<path id="Fill-19" class="st2" d="M86.6,75.9c-0.8,1.7-2.2,2.6-3.1,2.2c-0.9-0.4-0.9-2.1-0.1-3.8c0.8-1.7,2.2-2.6,3.1-2.2
		C87.4,72.5,87.5,74.2,86.6,75.9 M85.9,70.9c-2.6,0-5.3,1.3-5.8,4c-0.5,2.4,1.2,4.9,4.1,4.9c2.8,0,5.3-1.8,5.9-4.5
		C90.5,72.7,88.6,70.9,85.9,70.9"/>
	<path id="Fill-21" class="st2" d="M138.8,74.9h-3.4c-0.6,0-0.4,0.7-0.2,0.7c0.3,0,0.5,0.1,0.5,0.6c0,1.4-0.6,1.9-1.7,1.9
		c-1.3,0-1.7-1.6-0.9-3.5c0.5-1.2,2-2.4,3.7-2.4c1.1,0,1.9,0.2,2.1,1.2c0,0.2,0.4,0.2,0.5,0l0.8-1.4c0.1-0.2,0-0.3-0.3-0.3
		c-0.2,0-0.7,0.2-1,0c-0.7-0.5-2.1-1-3.2-1c-1.8,0-4.3,0.4-6,3.4c-1.5,2.7,0.7,5.5,2.8,5.5c1.2,0,2.5-0.9,3.3-1.2l0.9,0.6
		c0.1,0.2,0.4,0.3,0.7,0.3h0.3c0.3,0,0.4-0.4,0.5-0.7l1.3-3.2C139.6,75.1,139.5,74.9,138.8,74.9"/>
	<path id="Fill-23" class="st2" d="M184.8,71.4c-0.2,0.1-0.8,0.2-1,0c-0.6-0.5-1.8-0.9-2.4-0.9c-1.8,0-3,0.3-3.8,2
		c-0.7,1.4,0,2.6,1.6,3.3c0.7,0.3,1.6,0.7,1.2,1.5c-0.3,0.6-0.9,0.7-1.6,0.6c-0.8,0-2.1-0.6-2.3-1.8c-0.1-0.4-0.5-0.3-0.6-0.1
		l-1.1,2.1c-0.2,0.3,0.3,0.6,0.4,0.4c0.4-0.4,1.1-0.5,1.5-0.2c0.5,0.3,1.9,1,2.7,1c1.8,0,3-0.5,3.9-2c0.9-1.4,0.3-2.8-1.3-3.6
		c-0.9-0.4-1.6-1.1-1.2-1.9c0.3-0.5,1-0.4,1.4-0.3c0.7,0.1,1.7,0.8,1.8,1.4c0,0.3,0.4,0.3,0.5,0.1l0.6-1.3
		C185.3,71.6,184.9,71.4,184.8,71.4"/>
	<path id="Fill-25" class="st2" d="M161.4,76.5c-1.1,1.5-2.6,1.8-4.3,1.8h-0.5l3-5.9c0.1-0.3,0.5-0.5,0.8-0.5c0.4,0,0.3-0.7-0.2-0.7
		h-4.7c-0.4,0-0.5,0.7-0.2,0.7c0.4,0,0.5,0.4,0.3,0.8l-2.7,5.3c-0.2,0.3-0.5,0.4-0.8,0.4c-0.4,0.1-0.7,0.8-0.2,0.8h7.5
		c0.6,0,0.7-0.2,0.9-0.4l1.5-2.3C162.1,76.3,161.6,76.2,161.4,76.5"/>
	<path id="Fill-27" class="st2" d="M172.7,71.9c1,0,1.9,0.7,2.2,1.5c0.1,0.2,0.6,0.3,0.7,0.1l0.7-1.2c0.3-0.5-0.2-1.1-0.9-1.1h-8.7
		c-0.6,0-0.4,0.7-0.2,0.7c0.6,0,0.7,0.7,0.4,1.3l-2.6,4.8c-0.4,0.5-0.6,0.7-1.2,0.7c-0.4,0-0.6,0.7,0,0.7h8.8c0.4,0,0.5-0.1,0.6-0.3
		l1.2-1.6c0.3-0.4-0.3-0.4-0.5-0.2c-1.5,1.5-3.2,1.5-4.3,1.5h-1L169,76h0.3c0.8,0,1.7,0,1.9,0.6c0.1,0.1,0.4,0.3,0.6,0l1-2.1
		c0.2-0.3-0.3-0.4-0.4-0.1c-0.4,0.7-2.2,0.5-2.7,0.5h-0.3l1.5-3H172.7z"/>
	<path id="Fill-30" class="st2" d="M101.9,100.1l-2.4,0c-0.2,0-0.3,0.1-0.3,0.3c0,0.2,0.1,0.3,0.3,0.3l2.4,0c0.8,0,1.5,0.1,1.3,0.5
		L97,113c-0.8,1.4-2.4,1.1-2.7-0.1l-3.1-15.9l10.8-8.4c1.1-0.9,3.1-2.4,4.2-2.4l2.4,0c1.4,0,1.9,0.7,1.6,1.5l-0.4,0.8
		c-0.3,0.4-1.1,0.5-1.8,0.5h-1.4c-0.2,0-0.3,0.1-0.3,0.3c0,0.2,0.1,0.3,0.3,0.3h1.3c0.6,0,1.3,0,1,0.4l-5,9.6
		C103.8,100.1,102.7,100.1,101.9,100.1 M120.5,106c-5,6.1-7.9,8.2-13,8.2c-1.7,0-2.7-0.4-2.2-1.2l6.1-12.2h2.3
		c2.6,0,2.2,2.2,1.5,5.1c-0.1,0.4,0.2,0.4,0.5,0.1l5.8-10.2c0.3-0.6-0.4-0.8-0.8-0.3c-2.9,3.9-5.9,3.6-7.2,3.6h-1l6.5-12.4h2.6
		c3.3,0.2,4.8,3,3.9,9.8h1.4l4.8-9.4c0.4-0.8-0.4-1.5-1.3-1.5l-32.4,0c-1.9,0-2,1.4-0.2,1.4c1.5,0,1.4,2.1,0.1,3.1L84,101.1
		l2.8,12.9c0.2,1,0.8,1.4,1.9,1.4h26.8c1.1,0,1.6-0.5,1.9-0.9l4.9-8.4C122.9,104.9,121.4,105,120.5,106"/>
	<defs>
		<filter id="Adobe_OpacityMaskFilter" filterUnits="userSpaceOnUse" x="10.9" y="71.2" width="82.2" height="54">
			<feColorMatrix  type="matrix" values="1 0 0 0 0  0 1 0 0 0  0 0 1 0 0  0 0 0 1 0"/>
		</filter>
	</defs>
	<mask maskUnits="userSpaceOnUse" x="10.9" y="71.2" width="82.2" height="54" id="mask-2">
		<g class="st3">
			<path id="path-1" class="st4" d="M47.7,125.2c-3.7-7.4-5.8-15.9-5.8-24.8c0-10.7,3-20.8,8.3-29.2h43v54H47.7L47.7,125.2z"/>
		</g>
	</mask>
	<path id="Fill-32" class="st5" d="M61.3,102.5h-8.5l10.8-14.2L61.3,102.5z M59.3,111.4c-0.3,1.5-1.7,2.4-3.6,2.9l-1.9,0.5l1.6-2.8
		c0.4-0.8-0.5-1.2-1.5-0.1c-6.6,7.7-8.7,11.4-19,11.5l-2.7,0c-0.8,0-1.7-0.3-1.2-1.1l3.6-6.7h13.7c1.9,0,1.4-1.4,0.3-1.5
		c-0.7,0-1.5-0.4-2.1-1.3c-0.2-0.2-0.5-1.2,0-2l5.3-7h8.7L59.3,111.4z M79.6,114c-0.7,0-1.2-0.5-1.4-1c-0.2-0.7-0.2-1.9,0.1-2.5
		l12.5-22.2c0.2-0.4,0.7-1.3,1.3-1.3c1.1,0,1.6-1.5-0.3-1.5h-10C80,85.6,80,87,81.8,87c0.7,0,1,0.7,0.8,1.2l-2.8,5
		c-0.3,0.6-1.1,0.6-1.9,0.6l-2.4,0c-0.2,0-0.3,0.1-0.3,0.3c0,0.2,0.1,0.3,0.3,0.3h2.4c0.6,0,1.2,0.2,0.8,0.9l-9.2,16.8
		c-0.7,0.9-2,1.1-1.9-0.6l3.3-24.7c0.1-0.8-0.1-1.3-0.9-1.3l-4.9,0c-0.6,0-1,0.3-1.2,0.7l-1.8,2.2c-0.2,0.2-0.7,0.2-1.3,0.2l-4.2,0
		c-0.2,0-0.3,0.1-0.3,0.3c0,0.2,0.1,0.3,0.3,0.3h3.4c0.6,0,1.3,0.1,1.1,0.4l-4.8,6c-0.1,0.2-0.6,0.2-0.9,0.2L54,96
		c-0.2,0-0.3,0.1-0.3,0.3c0,0.2,0.1,0.3,0.3,0.3h1.1c0.3,0,0.3,0.2,0.2,0.3l-4.5,5.6c-0.2,0.2-0.7,0.3-1.1,0.3l-3.9,0
		c-0.2,0-0.3,0.1-0.3,0.3c0,0.2,0.1,0.3,0.3,0.3h3.4c0.5,0,0.9,0.1,0.6,0.4l-6.4,8c-1.2,1.5-7,2.3-8.1,2.3l21.5-40.3
		c0.2-0.5,1-1.2,1.8-1.2h4.6c2.2,0,2.1-1.4,0.2-1.4h-23c-1.9,0-1.9,1.4,0.2,1.4H45c1.2,0,1.6,0.7,1.3,1.3L45.7,75
		c-0.2,0.4-0.5,0.5-1.7,0.5l-7.5,0c-0.2,0-0.3,0.1-0.3,0.3s0.1,0.3,0.3,0.3H44c0.4,0,1,0.1,0.6,0.8l-1,2c-0.2,0.3-0.6,0.4-1.2,0.4
		l-3.4,0c-0.2,0-0.3,0.1-0.3,0.3c0,0.2,0.1,0.3,0.3,0.3h3.4c0.5,0,0.5,0.3,0.2,0.8l-2.4,4.5c-0.2,0.4-0.6,0.4-1.4,0.4l-1.4,0
		c-0.2,0-0.3,0.1-0.3,0.3s0.1,0.3,0.3,0.3h1.3c0.5,0,0.6,0.3,0.4,0.8l-2,3.7c-0.3,0.5-0.7,0.7-2,0.7l-7.5,0c-0.2,0-0.3,0.1-0.3,0.3
		c0,0.2,0.1,0.3,0.3,0.3h7.5c0.8,0,1.2,0.4,0.8,1l-3.9,7.3c-0.2,0.3-0.9,0.4-1.9,0.4l-7.5,0c-0.2,0-0.3,0.1-0.3,0.3s0.1,0.3,0.3,0.3
		l7.5,0c0.9,0,1.4,0,1.2,0.5l-2.2,4.2c-0.4,0.6-1.6,0.6-2,0.6l-2.4,0c-0.2,0-0.3,0.1-0.3,0.3s0.1,0.3,0.3,0.3h2.4
		c0.8,0,1.3,0.1,1.1,0.6l-3,5.6c-0.3,0.5-1.4,0.5-2.3,0.5l-11.6,0c-0.2,0-0.3,0.1-0.3,0.3c0,0.2,0.1,0.3,0.3,0.3l11.6,0
		c0.8,0,1.7,0.1,1.4,0.7l-1.9,3.6c-0.2,0.3-0.8,0.3-1.8,0.3l-2.4,0c-0.2,0-0.3,0.1-0.3,0.3s0.1,0.3,0.3,0.3h2.4c0.6,0,1.3,0.1,1,0.5
		l-1.2,2.3c-0.4,0.6-0.8,1.1-1.7,1.1h-5.8c-2.2,0-2.1,1.4-0.2,1.4l34.2,0c1,0,1-0.1,1.5-0.9l5.1-8.9h25.9
		C81.2,115.5,80.7,114,79.6,114L79.6,114z"/>
	<defs>
		<filter id="Adobe_OpacityMaskFilter_1_" filterUnits="userSpaceOnUse" x="120.3" y="85" width="70.7" height="45.2">
			<feColorMatrix  type="matrix" values="1 0 0 0 0  0 1 0 0 0  0 0 1 0 0  0 0 0 1 0"/>
		</filter>
	</defs>
	<mask maskUnits="userSpaceOnUse" x="120.3" y="85" width="70.7" height="45.2" id="mask-4">
		<g class="st6">
			<path id="path-3" class="st4" d="M141.3,130.3c5.5-8.6,8.7-18.8,8.7-29.8c0-5.3-0.7-10.5-2.1-15.4h-27.5v45.2H141.3L141.3,130.3z
				"/>
		</g>
	</mask>
	<path id="Fill-35" class="st7" d="M145.8,97.7c-0.9,0.8-2.4,1.7-2.7,1.4c-0.4-0.4-1.6-1.3-2.3-1.6l5.6-10.2
		c0.2-0.4,0.5-0.6,1.1-0.6c2.2,0,2.9,2.4,1.9,5.3C148.7,94.1,147.5,96.4,145.8,97.7 M191,106.9c-0.1-0.7-0.4-0.3-0.9,0.6
		c-0.1,0.3-0.6,0.3-1,0.3l-1.4,0c-0.2,0-0.3,0.1-0.3,0.3s0.1,0.3,0.3,0.3h1.3c0.5,0,0.5,0.3,0.3,0.9c-0.9,2-1.9,3.4-3.2,5
		c-0.2,0.3-0.7,0.5-1.1,0.5l-1.4,0c-0.2,0-0.3,0.1-0.3,0.3c0,0.2,0.1,0.3,0.3,0.3h1.3c0.7,0,0,0.4-0.1,0.6c-2.4,3.2-4,4.6-5.8,6.1
		c-0.2,0.2-1.2,0.1-1.9,0.1l-1.4,0c-0.2,0-0.3,0.1-0.3,0.3c0,0.2,0.1,0.3,0.3,0.3h1.3c1,0,0.3,0.6,0.1,0.7
		c-3.7,3.1-9.3,4.1-11.8,3.8c-8.3-1-10-7.3-10.6-9.8c-0.1-0.5-0.5-1.6-0.7-2.3c-0.3-1.3,3.5-1.7,4.5-1c1.6,1,5.2,2.1,8.1,2.1
		c2.6,0,8.1-1.9,9.6-6.5c1.6-4.7-2.4-9.8-4.2-11.6c-2.3-2.3-4.4-5.9-3.5-8.6c0.7-2,1.8-2.9,4.3-2.9c3.2,0,5.5,2,5.5,4.9
		c0,0.3-0.2,0.6-0.4,0.6l-1.1,0c-0.2,0-0.3,0.1-0.3,0.3s0.1,0.3,0.3,0.3h1c0.3,0,0.5,0.2,0.4,0.6c-0.2,1-0.3,1.6-0.5,2.6
		c-0.1,0.6,0.7,0.9,1,0.5l5-8.9c0.4-0.7-0.4-0.8-1-0.6c-1.4,0.5-3.6,0.8-4.3,0.2c-1.9-1.3-3.5-2.2-6.1-2.2c-4.4,0-7.5,1.1-9.5,4.7
		c-0.2,0.3-0.6,0.3-1,0.3l-0.8,0c-0.2,0-0.3,0.1-0.3,0.3c0,0.2,0.1,0.3,0.3,0.3l0.7,0c0.3,0,0.5,0.1,0.4,0.4c-0.1,0.3-0.3,0.7-0.4,1
		c-0.5,1.6-0.3,3.8,0.4,5.8c0.1,0.1-0.1,0.2-0.4,0.2l-1.4,0c-0.2,0-0.3,0.1-0.3,0.3c0,0.2,0.1,0.3,0.3,0.3h1.3c0.6,0,0.8,0.1,1,0.4
		c0.7,1,1.4,1.7,2.3,2.8c0.3,0.4-0.9,0.5-1.6,0.5h-5.3c-0.2,0-0.3,0.1-0.3,0.3c0,0.2,0.1,0.3,0.3,0.3l5.4,0c0.9,0,2.4,0,2.5,0.2
		c1.3,1.5,2.9,3.8,3.2,5.8c0.1,0.6-0.1,0.8-0.8,0.8h-0.7c-0.2,0-0.3,0.1-0.3,0.3s0.1,0.3,0.3,0.3h0.6c0.5,0,0.9,0.1,0.7,0.5
		c-0.7,2.3-1.8,3.9-6,3.9c-4.5,0-5.4-4.4-4.1-9c0.3-0.9,0-1.3-0.4-0.6l-3.1,4.9c-0.1,0.1-0.4,0.4-0.9,0.4l-0.4,0
		c-0.2,0-0.3,0.1-0.3,0.3c0,0.2,0.1,0.3,0.3,0.3c0.4,0,0.6,0.2,0.4,0.4l-1.2,1.8c-1.9-4.3-5.1-9.7-6.7-11.6l0-0.1
		c4.2-0.3,10.3-4.2,11.3-7.7c1.7-6.1-4.1-8.3-7.3-8.3l-14.1,0c-1.9,0-2,1.4-0.2,1.4c1,0,1.8,0.9,1.4,1.7l-3.1,5.6
		c-0.3,0.5-1.2,0.4-2.5,0.4h-1.4c-0.2,0-0.3,0.1-0.3,0.3s0.1,0.3,0.3,0.3h1.3c0.9,0,1.9,0.1,1.6,0.7l-3.7,6.7
		c-0.2,0.3-0.7,0.3-1.9,0.3l-1.4,0c-0.2,0-0.3,0.1-0.3,0.3c0,0.2,0.1,0.3,0.3,0.3l1.3,0c1,0,1.4,0.1,1.1,0.6l-4.9,8.9
		c-0.6,0.6-1.3,0.8-2.5,0.8c-1.8,0-1.8,1.4,0.1,1.4h12.1c1.9,0,1.4-1.5,0.3-1.5c-0.6,0-1.3-1.2-0.9-1.9l6.2-11.7h0.6
		c2.7,0,3.4,4.5,3.9,9.4c0,0.3-0.6,0.4-2,0.4l-3.4,0c-0.2,0-0.3,0.1-0.3,0.3c0,0.2,0.1,0.3,0.3,0.3h3.4c0.9,0,2.2,0,2.2,0.3
		c0.2,2.2,0.4,4.1,0.8,5.8c0.1,0.5-0.8,0.5-1.9,0.5l-4.4,0c-0.2,0-0.3,0.1-0.3,0.3c0,0.2,0.1,0.3,0.3,0.3l4.4,0c1.4,0,2.1,0,2.2,0.3
		c1.9,6.9,9.9,12.3,17.7,12c6.7-0.3,12.4-3.9,15.3-6.2c3.9-3.1,9.5-9.6,11.8-14.3C190.4,108.8,191.1,107.7,191,106.9"/>
	<path id="Fill-38" class="st2" d="M78,76.5c-1.1,1.5-2.6,1.8-4.3,1.8h-0.5l3-5.9c0.1-0.3,0.5-0.5,0.8-0.5c0.4,0,0.3-0.7-0.2-0.7
		h-4.7c-0.4,0-0.5,0.7-0.2,0.7c0.4,0,0.5,0.4,0.3,0.8L69.6,78c-0.2,0.3-0.5,0.4-0.8,0.4c-0.4,0.1-0.7,0.8-0.2,0.8H76
		c0.6,0,0.7-0.2,0.9-0.4l1.5-2.3C78.6,76.3,78.2,76.2,78,76.5"/>
	<path id="Fill-40" class="st2" d="M100.4,71.4c-0.2,0.1-0.8,0.2-1,0c-0.6-0.5-1.8-0.9-2.4-0.9c-1.8,0-3,0.3-3.8,2
		c-0.7,1.4,0,2.6,1.6,3.3c0.7,0.3,1.6,0.7,1.2,1.5c-0.3,0.6-0.9,0.7-1.6,0.6c-0.8,0-2.1-0.6-2.3-1.8c-0.1-0.4-0.5-0.3-0.6-0.1
		l-1.1,2.1c-0.2,0.3,0.3,0.6,0.4,0.4c0.4-0.4,1.1-0.5,1.5-0.2c0.5,0.3,1.9,1,2.7,1c1.8,0,3-0.5,3.9-2c0.9-1.4,0.3-2.8-1.3-3.6
		c-0.9-0.4-1.6-1.1-1.2-1.9c0.2-0.5,1-0.4,1.4-0.3c0.7,0.1,1.7,0.8,1.8,1.4c0,0.3,0.4,0.3,0.5,0.1l0.6-1.3
		C101,71.6,100.6,71.4,100.4,71.4"/>
	<defs>
		<filter id="Adobe_OpacityMaskFilter_2_" filterUnits="userSpaceOnUse" x="139.2" y="71.2" width="13.7" height="8.1">
			<feColorMatrix  type="matrix" values="1 0 0 0 0  0 1 0 0 0  0 0 1 0 0  0 0 0 1 0"/>
		</filter>
	</defs>
	<mask maskUnits="userSpaceOnUse" x="139.2" y="71.2" width="13.7" height="8.1" id="mask-6">
		<g class="st8">
			<path id="path-5" class="st4" d="M145.8,79.3c-1.2-2.8-2.5-5.5-4.1-8.1h-2.5v8.1H145.8L145.8,79.3z"/>
		</g>
	</mask>
	<path id="Fill-42" class="st9" d="M152.2,73.5l0.6-1.2c0.3-0.5-0.2-1.1-0.9-1.1h-8.7c-0.6,0-0.4,0.7-0.2,0.7c0.6,0,0.7,0.7,0.4,1.3
		l-2.6,4.8c-0.4,0.5-0.6,0.7-1.2,0.7c-0.4,0-0.6,0.7,0,0.7h8.8c0.4,0,0.5-0.1,0.6-0.3l1.2-1.6c0.3-0.4-0.3-0.4-0.5-0.2
		c-1.5,1.5-3.2,1.5-4.3,1.5h-1l1.2-2.7h0.3c0.8,0,1.7,0,1.9,0.6c0.1,0.1,0.4,0.3,0.6,0l1-2.1c0.2-0.3-0.3-0.4-0.4-0.1
		c-0.4,0.7-2.2,0.5-2.7,0.5h-0.3l1.5-3h1.7c1,0,1.9,0.7,2.2,1.5C151.6,73.6,152.1,73.8,152.2,73.5"/>
	<path id="Fill-45" class="st2" d="M109.1,75.1l2.9-2.4l0,2.4H109.1z M129.9,71.2h-3.1c-0.6,0-0.4,0.7-0.2,0.7
		c0.7,0,1.3,0.8,0.9,1.5l-1.3,2.4l-2.8-4.2c-0.2-0.3-0.6-0.4-1-0.4h-3.1c-0.6,0-0.5,0.7-0.2,0.7c0.6,0,0.5,0.5,0.3,0.8l-2.4,4.7
		c-0.2,0.4-0.8,0.4-1,0l-1.9-6.1c-0.1-0.2-1.2-0.2-1.5,0l-4.7,3.9l-2.4,0c-0.5,0-0.7,0.2-0.7,0.5c0,0.3,0.2,0.5,0.7,0.5l1.3,0
		l-1.3,1.1c-0.7,0.5-1.4,1.3-1.9,1.3h-0.3c-0.5,0-0.7,0.1-0.7,0.4s0.2,0.5,0.6,0.5h3.8c0.7,0,0.6-0.9,0.2-0.9c-0.4,0-1-0.5-0.4-1.2
		l1.2-1.1h2.3c1.4,0,2.3,1.6,1.5,2.1l-0.6,0.3c-0.3,0.2-0.4,0.8,0,0.8h7.4c0.5,0,0.4-0.7,0.2-0.7c-0.8,0-0.4-1.1-0.3-1.4l2-3.7
		l2.7,5.3c0.2,0.3,0.3,0.5,0.7,0.5h1c0.3,0,0.4-0.2,0.6-0.4l3.1-5.7c0.5-1,0.9-1.3,1.5-1.3C130.4,71.9,130.6,71.2,129.9,71.2
		L129.9,71.2z"/>
	<path id="Fill-47" class="st2" d="M86.6,75.9c-0.8,1.7-2.2,2.6-3.1,2.2c-0.9-0.4-0.9-2.1-0.1-3.8c0.8-1.7,2.2-2.6,3.1-2.2
		C87.4,72.5,87.5,74.2,86.6,75.9 M85.9,70.9c-2.6,0-5.3,1.3-5.8,4c-0.5,2.4,1.2,4.9,4.1,4.9c2.8,0,5.3-1.8,5.9-4.5
		C90.5,72.7,88.6,70.9,85.9,70.9"/>
	<path id="Fill-49" class="st2" d="M138.8,74.9h-3.4c-0.6,0-0.4,0.7-0.2,0.7c0.3,0,0.5,0.1,0.5,0.6c0,1.4-0.6,1.9-1.7,1.9
		c-1.3,0-1.7-1.6-0.9-3.5c0.5-1.2,2-2.4,3.7-2.4c1.1,0,1.9,0.2,2.1,1.2c0,0.2,0.4,0.2,0.5,0l0.8-1.4c0.1-0.2,0-0.3-0.3-0.3
		c-0.2,0-0.7,0.2-1,0c-0.7-0.5-2.1-1-3.2-1c-1.8,0-4.3,0.4-6,3.4c-1.5,2.7,0.7,5.5,2.8,5.5c1.2,0,2.5-0.9,3.3-1.2l0.9,0.6
		c0.1,0.2,0.4,0.3,0.7,0.3h0.3c0.3,0,0.4-0.4,0.5-0.7l1.3-3.2C139.6,75.1,139.5,74.9,138.8,74.9"/>
	<path id="Fill-51" class="st2" d="M184.8,71.4c-0.2,0.1-0.8,0.2-1,0c-0.6-0.5-1.8-0.9-2.4-0.9c-1.8,0-3,0.3-3.8,2
		c-0.7,1.4,0,2.6,1.6,3.3c0.7,0.3,1.6,0.7,1.2,1.5c-0.3,0.6-0.9,0.7-1.6,0.6c-0.8,0-2.1-0.6-2.3-1.8c-0.1-0.4-0.5-0.3-0.6-0.1
		l-1.1,2.1c-0.2,0.3,0.3,0.6,0.4,0.4c0.4-0.4,1.1-0.5,1.5-0.2c0.5,0.3,1.9,1,2.7,1c1.8,0,3-0.5,3.9-2c0.9-1.4,0.3-2.8-1.3-3.6
		c-0.9-0.4-1.6-1.1-1.2-1.9c0.3-0.5,1-0.4,1.4-0.3c0.7,0.1,1.7,0.8,1.8,1.4c0,0.3,0.4,0.3,0.5,0.1l0.6-1.3
		C185.3,71.6,184.9,71.4,184.8,71.4"/>
	<path id="Fill-54" class="st2" d="M161.4,76.5c-1.1,1.5-2.6,1.8-4.3,1.8h-0.5l3-5.9c0.1-0.3,0.5-0.5,0.8-0.5c0.4,0,0.3-0.7-0.2-0.7
		h-4.7c-0.4,0-0.5,0.7-0.2,0.7c0.4,0,0.5,0.4,0.3,0.8l-2.7,5.3c-0.2,0.3-0.5,0.4-0.8,0.4c-0.4,0.1-0.7,0.8-0.2,0.8h7.5
		c0.6,0,0.7-0.2,0.9-0.4l1.5-2.3C162.1,76.3,161.6,76.2,161.4,76.5"/>
	<path id="Fill-57" class="st2" d="M172.7,71.9c1,0,1.9,0.7,2.2,1.5c0.1,0.2,0.6,0.3,0.7,0.1l0.7-1.2c0.3-0.5-0.2-1.1-0.9-1.1h-8.7
		c-0.6,0-0.4,0.7-0.2,0.7c0.6,0,0.7,0.7,0.4,1.3l-2.6,4.8c-0.4,0.5-0.6,0.7-1.2,0.7c-0.4,0-0.6,0.7,0,0.7h8.8c0.4,0,0.5-0.1,0.6-0.3
		l1.2-1.6c0.3-0.4-0.3-0.4-0.5-0.2c-1.5,1.5-3.2,1.5-4.3,1.5h-1L169,76h0.3c0.8,0,1.7,0,1.9,0.6c0.1,0.1,0.4,0.3,0.6,0l1-2.1
		c0.2-0.3-0.3-0.4-0.4-0.1c-0.4,0.7-2.2,0.5-2.7,0.5h-0.3l1.5-3H172.7z"/>
	<path id="Fill-61" class="st10" d="M105.3,51.1c-4.1-0.3-7.5-0.4-10.4-0.1c0.9-2.1,2.6-4.2,3.9-5c2.8,0.1,5.7,0.5,8,1
		c7.3,1.5,18.7,5.9,23.7,12.5C123.8,55,112.9,51.6,105.3,51.1 M93,51.2c-2.5,0.2-7,1.1-8.6,1.6c-0.4-1.1-1.5-4.4-1.9-5.5
		c4.6-1.3,9.8-1.7,13.9-1.4C95.3,46.8,93.4,50.2,93,51.2 M72.2,57.3c-0.5-0.9-2.9-3.1-4.2-3.5c3-2.3,10.1-5.5,12.8-6.1
		c0.5,0.8,1.7,4.1,2.1,5.4C80.5,53.7,74.3,56,72.2,57.3 M138.4,64.8c-0.7-0.8-1.6-2.4-8.2-8.2c-9.8-8.5-22.7-12.4-34.9-12.4
		c-9,0-16.8,2-25.5,6.8c-11.1,6.1-15.7,13.1-16.8,14.6c-0.8,1.1-1,1.7-0.4,2c0.4,0.2,1.1-0.6,1.8-1.5c3.3-4.4,7.6-8.7,12.2-11.2
		c1.4,0.2,3.4,2.2,4.2,3.2c-2.9,1.6-7.8,5.3-9.6,6.7c-1.6,1.2-2.1,1.9-1.7,2.4c0.4,0.4,1.6-0.4,2.6-1.2c1.8-1.4,7-5.1,9.5-6.5
		c1.8,2.1,1.2,5.9,0.6,6.7c-0.3,0.4-0.4,0.9,0,1.1c0.4,0.2,0.8-0.3,1.3-1.1c1.2-1.7,0.7-5.9-0.3-7.4c3.1-2,7.7-3.3,10.4-3.9
		c0.2,0.4,3.5,10.1,4.2,11.9c0.3,1,0.7,2.1,1.4,1.9c0.5-0.1,0.2-1.2-0.2-2.3c-0.5-1.3-3-9.5-3.8-11.9c0.9-0.5,6.3-1.6,7.7-1.5
		c-0.7,3.5,1.8,5,4.7,6.9c1.5,1,11.1,6.5,13.1,7.7c1.1,0.7,2,1.2,2.3,0.8c0.3-0.4-0.5-1.2-1.5-1.8c-0.8-0.5-9.7-5.7-13.5-8
		c-2.7-1.7-4.1-3.5-3.5-5.9c0.9-0.3,3.6-0.3,6.3-0.3c19,0.2,34.2,11,35.9,12.8c0.9,0.9,2.1,1.6,2.5,1.3
		C139.3,66.3,138.8,65.3,138.4,64.8"/>
	<path id="Fill-63" class="st10" d="M142.5,129.9c0.7-1.3,1.3-2,0.7-2.4c-0.5-0.3-1.1,0.9-1.8,2.1c-2.2,3.9-4.6,7-10.1,12
		c-6.1,5.5-13,8.7-15.4,9.6c-2.1-5.8-9.9-30.5-10.1-31.2c-0.3-1.1-0.6-1.4-0.9-1.2c-0.4,0.1-0.2,0.7,0.1,1.6
		c0.2,0.9,9.6,30.2,9.9,31.2c-1.9,0.9-9.4,3-14.7,3.2c-4.7,0.2-10.2,0-13-0.6c-3.3-2.6-10.7-13.1-13.5-18.7
		c-3.3-6.6-5.5-12.6-6.1-15.2c-0.3-1.2-0.6-2.1-1.2-2c-0.7,0.1-0.3,1.1,0.1,2.4c1,3.4,2.6,8.2,6.1,15c3.7,7.2,10.2,15.7,12.1,18.1
		c-6-1.3-13.2-4.1-20.1-9.2c-5.9-4.4-11-10.1-13.6-14.2c-0.4-0.7-1-1.7-1.6-1.3c-0.3,0.2,0.1,1,0.5,1.8c3.7,6.7,12.8,16.2,24.5,21.4
		c13.6,6.1,28.4,5.8,41.6,0.6C127.4,148.3,137.5,139.1,142.5,129.9"/>
	<defs>
		<filter id="Adobe_OpacityMaskFilter_3_" filterUnits="userSpaceOnUse" x="52.2" y="44.2" width="86.9" height="24.5">
			<feColorMatrix  type="matrix" values="1 0 0 0 0  0 1 0 0 0  0 0 1 0 0  0 0 0 1 0"/>
		</filter>
	</defs>
	<mask maskUnits="userSpaceOnUse" x="52.2" y="44.2" width="86.9" height="24.5" id="mask-8">
		<g class="st11">
			<path id="path-7" class="st4" d="M139.1,67.4c-9.9-13.3-25.5-21.9-43.2-21.9c-18,0-33.9,8.9-43.7,22.7v0.5h86.9V67.4L139.1,67.4z
				"/>
		</g>
	</mask>
	<path id="Fill-66" class="st12" d="M105.3,51.1c-4.1-0.3-7.5-0.4-10.4-0.1c0.9-2.1,2.6-4.2,3.9-5c2.8,0.1,5.7,0.5,8,1
		c7.3,1.5,18.7,5.9,23.7,12.5C123.8,55,112.9,51.6,105.3,51.1 M93,51.2c-2.5,0.2-7,1.1-8.6,1.6c-0.4-1.1-1.5-4.4-1.9-5.5
		c4.6-1.3,9.8-1.7,13.9-1.4C95.3,46.8,93.4,50.2,93,51.2 M72.2,57.3c-0.5-0.9-2.9-3.1-4.2-3.5c3-2.3,10.1-5.5,12.8-6.1
		c0.5,0.8,1.7,4.1,2.1,5.4C80.5,53.7,74.3,56,72.2,57.3 M138.4,64.8c-0.7-0.8-1.6-2.4-8.2-8.2c-9.8-8.5-22.7-12.4-34.9-12.4
		c-9,0-16.8,2-25.5,6.8c-11.1,6.1-15.7,13.1-16.8,14.6c-0.8,1.1-1,1.7-0.4,2c0.4,0.2,1.1-0.6,1.8-1.5c3.3-4.4,7.6-8.7,12.2-11.2
		c1.4,0.2,3.4,2.2,4.2,3.2c-2.9,1.6-7.8,5.3-9.6,6.7c-1.6,1.2-2.1,1.9-1.7,2.4c0.4,0.4,1.6-0.4,2.6-1.2c1.8-1.4,7-5.1,9.5-6.5
		c1.8,2.1,1.2,5.9,0.6,6.7c-0.3,0.4-0.4,0.9,0,1.1c0.4,0.2,0.8-0.3,1.3-1.1c1.2-1.7,0.7-5.9-0.3-7.4c3.1-2,7.7-3.3,10.4-3.9
		c0.2,0.4,3.5,10.1,4.2,11.9c0.3,1,0.7,2.1,1.4,1.9c0.5-0.1,0.2-1.2-0.2-2.3c-0.5-1.3-3-9.5-3.8-11.9c0.9-0.5,6.3-1.6,7.7-1.5
		c-0.7,3.5,1.8,5,4.7,6.9c1.5,1,11.1,6.5,13.1,7.7c1.1,0.7,2,1.2,2.3,0.8c0.3-0.4-0.5-1.2-1.5-1.8c-0.8-0.5-9.7-5.7-13.5-8
		c-2.7-1.7-4.1-3.5-3.5-5.9c0.9-0.3,3.6-0.3,6.3-0.3c19,0.2,34.2,11,35.9,12.8c0.9,0.9,2.1,1.6,2.5,1.3
		C139.3,66.3,138.8,65.3,138.4,64.8"/>
	<defs>
		<filter id="Adobe_OpacityMaskFilter_4_" filterUnits="userSpaceOnUse" x="49.1" y="118.2" width="94.3" height="38.5">
			<feColorMatrix  type="matrix" values="1 0 0 0 0  0 1 0 0 0  0 0 1 0 0  0 0 0 1 0"/>
		</filter>
	</defs>
	<mask maskUnits="userSpaceOnUse" x="49.1" y="118.2" width="94.3" height="38.5" id="mask-10">
		<g class="st13">
			<path id="path-9" class="st4" d="M49.1,127.9c9.3,16.4,26.8,27.5,46.8,27.5c20.5,0,38.3-11.6,47.5-28.7v-8.5H49.1V127.9
				L49.1,127.9z"/>
		</g>
	</mask>
	<path id="Fill-69" class="st14" d="M142.5,129.9c0.7-1.3,1.3-2,0.7-2.4c-0.5-0.3-1.1,0.9-1.8,2.1c-2.2,3.9-4.6,7-10.1,12
		c-6.1,5.5-13,8.7-15.4,9.6c-2.1-5.8-9.9-30.5-10.1-31.2c-0.3-1.1-0.6-1.4-0.9-1.2c-0.4,0.1-0.2,0.7,0.1,1.6
		c0.2,0.9,9.6,30.2,9.9,31.2c-1.9,0.9-9.4,3-14.7,3.2c-4.7,0.2-10.2,0-13-0.6c-3.3-2.6-10.7-13.1-13.5-18.7
		c-3.3-6.6-5.5-12.6-6.1-15.2c-0.3-1.2-0.6-2.1-1.2-2c-0.7,0.1-0.3,1.1,0.1,2.4c1,3.4,2.6,8.2,6.1,15c3.7,7.2,10.2,15.7,12.1,18.1
		c-6-1.3-13.2-4.1-20.1-9.2c-5.9-4.4-11-10.1-13.6-14.2c-0.4-0.7-1-1.7-1.6-1.3c-0.3,0.2,0.1,1,0.5,1.8c3.7,6.7,12.8,16.2,24.5,21.4
		c13.6,6.1,28.4,5.8,41.6,0.6C127.4,148.3,137.5,139.1,142.5,129.9"/>
</g>
</svg>
