<?xml version="1.0" encoding="utf-8"?>
<!-- Generator: Adobe Illustrator 21.1.0, SVG Export Plug-In . SVG Version: 6.00 Build 0)  -->
<svg version="1.1" id="Layer_1" xmlns="http://www.w3.org/2000/svg" xmlns:xlink="http://www.w3.org/1999/xlink" x="0px" y="0px"
	 viewBox="0 0 200 200" style="enable-background:new 0 0 200 200;" xml:space="preserve">
<style type="text/css">
	.st0{fill:#0076BC;}
	.st1{fill:#FFFFFF;}
	.st2{fill:#FFF116;}
</style>
<g>
	<path class="st0" d="M97.4,0h3c15.1,0.1,30.2,3.6,43.8,10.3c16.5,8.1,30.7,20.9,40.5,36.6c5.4,8.6,9.5,18.1,12.1,28
		c1.9,7.4,2.9,15,3.2,22.6v4.1c-0.2,11.5-2.3,23-6.4,33.8c-6.3,16.7-17.1,31.6-31.1,42.7c-15.3,12.4-34.4,20-54,21.6
		c-1.1,0.1-2.2,0.2-3.3,0.4H94.7c-2.4-0.4-4.9-0.4-7.4-0.8c-19.7-2.4-38.6-11-53.4-24.1c-13.9-12.2-24.3-28.3-29.6-46
		c-2.7-8.8-4.1-17.9-4.3-27.1v-4.6c0.1-1.5,0.1-2.9,0.3-4.4c1.5-22.6,11-44.5,26.4-61.1c2.2-2.6,4.7-4.9,7.3-7.1
		C46.7,13.4,62.6,5.5,79.4,2.1C85.3,0.9,91.4,0.3,97.4,0"/>
	<path class="st0" d="M98.6,1c0,3.1,0,6.3,0,9.5c1.4,0.2,2.9,0.1,4.3,0.2c19.1,0.9,37.8,8.5,52.3,21c-4.4,6.9-8.9,13.7-13.1,20.6
		c-2.2,3.7-4.5,7.4-6.3,11.3c2.3,0.1,4.6,0.2,6.9,0.1c0.6,0.1,0.9-0.5,1.1-0.9c4.5-8.2,10-15.8,15.3-23.5c0.2-0.3,0.4-0.5,0.7-0.7
		c7.8,7.9,14.4,17,18.9,27.1c4.4,10,6.4,20.9,6.4,31.8c-11.7,0-23.4,0-35,0c-0.5,0.7-0.9,1.4-1.4,2.1c0.3,0.6,0.5,1.1,0.8,1.6
		c11.9,0.1,23.7,0,35.6,0c0.1,12.4-2.7,24.9-8.4,36c-4.4,8.6-10.2,16.3-17.1,23.1c-5.5-8.7-11.1-17.4-15.9-26.5c-2.2,0-4.4,0-6.6,0
		c5.6,10.9,11.5,21.7,18.1,32.1c-6.6,5.6-13.9,10.3-21.8,13.7c-10.7,4.6-22.4,6.9-34,6.9c-0.1,4.1,0,8.2,0,12.4
		c18.5,0.1,37.1-5.1,52.8-14.9c16.3-10.1,29.6-25.1,37.6-42.6c9.3-20,11.5-43.2,6.4-64.7c-2.5-10.3-6.6-20.2-12.3-29.2
		c-9.7-15.5-23.7-28.2-40.1-36.3C129.8,4.3,114.2,0.8,98.6,1"/>
	<path class="st0" d="M81.3,8.8c-1.2-1-2.8-0.3-4.2,0c0.1,0.9,0.3,1.8,0.4,2.7c0.5-0.1,1.1-0.1,1.6-0.2c-0.1,0.6-0.4,1.3-0.2,1.9
		c0.4,2.7,1,5.4,1.4,8.1c1-0.1,2-0.2,2.9-0.4c-0.5-2.4-0.9-4.9-1.3-7.3c-0.1-0.7-0.3-1.5,0.2-2.1c1.1-1.5,3.8-1.8,4.8-0.1
		c0.6,1.9,0.7,3.9,1.1,5.9c-1.2,0.2-2.4,0.4-3.7,0.6c0.1,0.9,0.2,1.8,0.4,2.7c2.2-0.3,4.4-0.8,6.6-1.1c-0.4-2.7-0.9-5.4-1.4-8.1
		c-0.1-1-0.6-1.9-1.4-2.6C86.6,6.8,83.2,6.8,81.3,8.8"/>
	<path class="st0" d="M70,10.9c-2.3,0.9-4.6,1.7-6.9,2.5c0.3,0.9,0.6,1.7,1,2.6c2.1-0.6,4.1-1.4,6.1-2.2c0.8,1.8,1.4,3.6,2.1,5.4
		c0.2,0.5,0.4,1.4-0.2,1.7c-1.7,0.8-3.6,1.3-5.4,2c0.3,0.9,0.7,1.8,1.1,2.6c2.4-0.9,4.9-1.7,7.3-2.7c0.9-0.4,1.3-1.5,0.9-2.4
		c-0.9-2.8-2-5.4-2.9-8.2c-0.2-0.6-0.4-1.3-0.9-1.8C71.2,10.4,70.6,10.7,70,10.9"/>
	<path class="st0" d="M98.7,11.1c0,0.7,0,1.3,0,2c1.1,1,2.5,2.1,4.1,1.9c-1,1.9-1.9,4-2.8,6c0.9,0.4,1.9,0.6,2.5,1.4
		c-1.2,0.1-2.5-0.4-3.3-1.2c0.2-1.6,0.4-3.1,1.1-4.5c-0.5-0.2-1.1-0.4-1.6-0.6c-0.1,2.4,0.4,4.8-0.3,7.2c-12.5-0.2-25,3.1-36,9.1
		c-15.1,8.1-27.2,21.5-33.8,37.3C24,80,22.1,91.6,22.6,103c0.5,9.8,3,19.6,7.2,28.5c0.2,0.3,0.4,0.6,0.6,0.9
		c5.2-8.2,10.4-16.4,15.6-24.5c0.8-1.3,1.6-2.6,2.6-3.8c1.9,2.1,4.1,4,6,6.1c9.1,0.1,18.2,0,27.3,0c0-4.3,0.1-8.6-0.1-12.8
		c-2.7-3.8-5.4-7.6-8.3-11.4c-4.4,0-8.9,0-13.3,0c1.9-7.4,3.7-14.9,5.8-22.2c3.4,0,6.9,0,10.4-0.1c5.4,7.3,11,14.6,16.4,21.9
		c0.2,0.3,0.4,0.6,0.4,1c0.1,5.9,0.1,11.8,0.1,17.6c0,1.1-0.1,2.1,0.1,3.2c0.7,1.5,2,2.5,3,3.8c-1.9,7.6-3.8,15.1-5.6,22.7
		c-19.8,0.1-39.7,0-59.5,0c1.6,3.5,3.8,6.7,6,9.8c3.1,4.2,6.6,8.1,10.6,11.6c13.8,12.5,32.2,19.7,50.8,19.8c-6.6-11-13.2-22-19.8-33
		c6.7,0,13.4,0,20.1,0c4.9-4.7,9.8-9.4,14.6-14.1c0.6-0.6,0.4-1.4,0.4-2.1c0-11.8,0-23.5,0-35.3c4.3,0,8.6,0,12.9,0
		c0,5.2,0,10.3,0,15.5c0,8.4-0.1,16.8,0,25.2c1.2-0.1,2.4-0.1,3.6-0.2c0-3.8-0.1-7.5,0-11.3c-0.1-3.4-0.1-6.7,0-10.1
		c3.4,0,6.9,0,10.3,0c0-3.9,0-7.9,0-11.8c0.1-1.1-0.5-2-0.9-2.9c-1.4-3.2-2.8-6.3-4.3-9.4c-8.3,0.1-16.7,0.1-25,0
		c-0.2,12.2,0,24.5-0.1,36.7c-3.3,3.1-6.5,6.2-9.8,9.2c0-13.6,0-27.2,0-40.8c0-0.5,0-1-0.3-1.4c-6.2-8.6-12.7-17-18.9-25.6
		c4.3-0.1,8.6-0.1,12.9,0c0.7,0,1.4-0.1,2,0.1c0.8,0.5,1.3,1.2,1.9,1.8c4.3,4.4,8.7,8.7,13,13.1c5.2-4.9,10.3-9.8,15.4-14.6
		c-1-1.3-2-2.5-3-3.8c-1.9,1.5-3.5,3.4-5.2,5.1c-2.3,2.3-4.7,4.5-6.9,6.9c-1.4-1.1-2.6-2.5-3.8-3.7c-3.7-3.6-7.3-7.4-11-11
		c-6.8,0-13.6,0-20.4,0c6.9-10.8,13.9-21.4,20.8-32.2c0.4-0.7,1-1.3,1.4-2c0.9,0.8,1.2,2.1,2.3,2.6c0.1,0.6,0.3,1.2,0.7,1.6
		c1.4,2,2.7,4,4.1,6c0.7,1.1,2,1.3,3,1.9c0.3-0.7,0.4-1.6,1.1-1.9c1.3-0.2,2.6,0.3,3.8,0.5c-0.1,0.7-0.2,1.4-0.5,2.1
		c-1.2-0.6-2.4-1.1-3.6-1.8c-0.5,0.9-1,1.9-1.5,2.7c0.9,1.2,1.8,2.5,2.7,3.8c0.8,0.2,1.8,0.4,2.4,1.1c0.8,1.1,1.5,2.4,2.9,2.8
		c0,0.3,0,0.7,0,1c0.6,0.9,1.9,1,2.7,1.8c0.4,0.4,0.2,1,0.2,1.5c-1.1,0.3-2.1-0.3-3.1-0.8c0.5,0.8,1.1,1.5,1.6,2.3
		c1.6-0.8,3.6-0.9,5.1-1.8c0.9-0.9,1.2-2.1,1.6-3.3c1.1,1.2,3,1.4,4.4,2.3c-0.9,1.2-2.4,0.3-3.6,0.2c-0.6,0.2-0.8,0.9-1.1,1.4
		c-1.9,0.6-3.8,1.4-5.6,2.4c1.3,2.2,2.9,4.4,4.4,6.5c0.6,0.8,1.1,1.8,2,2.4c0.1-0.4,0.3-0.7,0.4-1c-1.6-1-1.7-3-3-4.3
		c0.8-0.2,1.6-0.5,2.4-0.8c-0.2,0.4-0.4,0.9-0.6,1.3c0.4,1.2,1.2,2.1,2.1,3.1c-0.1,0.2-0.3,0.6-0.4,0.9c0.4,1.4,1,2.7,1.6,4
		c2.7,0,5.4,0.2,8.1,0c0.8-0.6,0.3-1.6,0.1-2.3c0.3,0.3,0.5,0.5,0.8,0.8c1.9-3.4,3.7-6.8,5.8-10.1c-1.8-1.3-3.5-2.6-5.1-4.2
		c2.1,0.7,4,1.8,6.1,2.5c1.5-2.5,3.1-4.9,4.6-7.4c-0.3-0.3-0.6-0.6-0.9-0.9c0.8-0.4,1.8-0.5,2.2-1.3c1.4-2.2,2.9-4.5,4.3-6.8
		c0-1,0-2,0.4-2.9c-2.3-1.9-4.6-3.7-7.1-5.3c-1.8-1.4-4.1-0.4-6.1-0.8c-0.1,0.3-0.2,0.6-0.4,0.9c-1.1-0.3-2.2-0.1-3.2,0.3
		c0.9-1,1.8-2,2.8-2.9c-0.6-0.4-1.2-0.9-1.6-1.5c1,0.2,2,0.5,2.9,0.8c-2.4-1.7-5.1-3-7.9-4.1c0.4,1.1,0.8,2.3,1.2,3.4
		c-1.6,0.4-2.3,2.1-3,3.4c0.4,0.5,0.7,1.1,1.4,1.1c0,0.3,0,0.6,0.1,0.9c-0.7,0.5-0.9,1.5-1.7,1.9c-0.4,0.2-0.9,0-1.3,0
		c0.1-0.5,0.3-1,0.4-1.5c-1.2-0.2-2.4-0.6-3.3-1.4c-2.5-1.9-3.5-5-5.9-7c-1.1-1-2.6-0.6-3.9-0.2c0.6-1.2,1.2-2.5,1.8-3.7
		c1.4,1.2,2.5,2.8,4.1,3.6c0.8,0.4,1.6,0.5,2.5,0.5c-0.1,1.1-0.4,2.2-0.1,3.3c0.6,0.9,1.8,1.1,2.7,1.6c0.3-0.4,0.5-0.9,0.9-1.3
		c0.6-0.5,1.3,0.1,1.9,0.3c0.4-0.7,0.8-1.4,1.1-2.1c0.5-1,0.1-2.3,1.1-3c-1-0.3-1.9-0.6-2.9-1c-0.2,1.1-0.6,2.3-1,3.4
		c-0.2-1.3-0.3-2.6-0.5-4c-1.7-0.7-3.5-1.2-5.4-1.4c-1.5-1-3.4-1.3-5.1-1.6c-0.1,0.5-0.2,1.1-0.4,1.6c-1-0.4-1.8-1.2-2.4-2.1
		c-2.1-0.6-4.4-0.8-6.6-1.1c-0.1,0.7-0.3,1.4-0.4,2.1c-1.1-0.3-2.3-0.4-3.3-1.1c0.2-0.4,0.4-0.7,0.6-1.1c0.1,0.3,0.3,0.5,0.4,0.8
		c0.5,0,1,0.1,1.4,0c0.2-0.1,0.7-0.5,0.4-0.7c-0.4-0.6-1.3-0.4-1.8,0c-0.1-0.1-0.3-0.3-0.4-0.4C103.4,11.4,101,11,98.7,11.1"/>
	<path class="st0" d="M54.9,17.5c-2.4,1.2-4.7,2.7-7.1,4c0.5,0.9,0.9,1.7,1.4,2.5c1.8-1,3.4-2.2,5.4-2.9c1.1,2.1,2.3,4.1,3.5,6.1
		c-1.7,1.1-3.5,2.1-5.3,3.1c0.5,0.8,0.9,1.6,1.4,2.4c3-1.7,6-3.4,9-5.1c-0.5-0.8-0.9-1.6-1.4-2.4c-0.4,0.2-0.7,0.4-1,0.6
		c-1.9-2.5-3.1-5.4-4.9-8C55.8,17.4,55.3,17.3,54.9,17.5"/>
	<path class="st0" d="M40.1,27.2c0.6,0.8,1.1,1.5,1.6,2.3c0.5-0.4,1.1-0.8,1.6-1.2c0.6,0.9,1.3,1.8,2,2.6c0.8-0.6,1.6-1.2,2.4-1.8
		c-1.2-1.5-2.2-3.2-3.6-4.6C42.5,25,41.4,26.4,40.1,27.2"/>
	<path class="st0" d="M29.5,37.8c1.3,1.3,2.8,2.3,4.2,3.6c-0.5-0.1-0.9-0.1-1.4-0.2c-1.8,2.2-3.6,4.5-5.4,6.7
		c2.1,1.8,4.3,3.5,6.5,5.3c0.9-1.1,1.7-2.2,2.7-3.2c-1.7-1.8-3.7-3.1-5.6-4.6c2.9,0.1,5.7,0.6,8.5,0.8c1-1.3,2.1-2.5,3-3.9
		c-2.2-0.2-4.5-0.4-6.7-0.7c0.6-0.8,1.3-1.6,1.9-2.4c-1.8-1.4-3.5-2.8-5.2-4.2C31.1,35.9,30.3,36.9,29.5,37.8"/>
	<path class="st0" d="M158.6,41c-0.3,0.5-0.6,1.1-0.9,1.6c1.3,0.4,1.7,1.7,2.3,2.8c-1.1-0.7-2.5-1.4-2.6-2.9
		c-0.6,1.2-1.5,2.3-2.3,3.4c0.6-0.2,1.3-0.4,1.9-0.6c0,0.6,0.5,1.4-0.2,1.9c-0.8,0.5-1.7,0.2-2.5,0.1c-0.9,1.3-1.8,2.6-2.7,4
		c0,0.1,0.1,0.2,0.1,0.3c0.2,0.1,0.5,0.2,0.7,0.3c0,0.1,0.1,0.4,0.1,0.5c0.4,0.2,0.8,0.4,1.2,0.6c-0.4,0.7-1,1.4-1.5,2
		c-0.6-0.6-0.7-1.5-0.1-2.1c-0.2-0.3-0.5-0.5-0.7-0.8l-0.1-0.1c-0.6,1.1-1.3,2.2-2,3.3c0.8-0.1,1.5-0.3,2.3-0.4
		c-0.3,0.6-0.2,1.6-1,1.9c-0.8,0.4-1.7,0.2-2.5,0.5c-0.8,0.8-1.3,1.9-1.9,2.8c1.9-0.3,3.9-0.3,5.6,0.6c0.1-0.4,0.1-0.8,0.2-1.1
		c-0.5-0.8-0.4-1.8-0.1-2.6c0.6,0.3,1.6,0.4,1.6,1.3c0,1.1-0.9,2.1-0.9,3.2c0.7,0.7,1.5,1.5,1.6,2.6c1.4,0,2.8,0,4.1,0
		c1.2-1.3,1.6-3,1.9-4.7c-0.6-0.2-1.1-0.4-1.6-0.6c-0.4,1.1-0.8,2.2-1.2,3.4c-0.6-0.1-1.2-0.2-1.7-0.6c1.8-2,3.5-4.5,3.1-7.3
		c-0.3-1.4-2.2-1.5-2.8-2.7c-0.2-0.6,0.3-1.1,0.5-1.6c0.3,0.9,0.6,1.7,1.1,2.4c1.3-0.3,2.6-0.1,3.7,0.6c-1.6,2.5-0.1,6,2.4,7.1
		c0.7,0.3,1.6,0.3,2.3-0.3c1.3-1,1.4-2.8,2-4.2c0.9-0.1,1.8-0.3,2.6,0.3c0.9,0.7,0.6,1.9,0.6,2.9c-0.6-0.1-1.1-0.1-1.6-0.2
		c-0.9,1.6-0.6,3.5,0,5.1c-2-0.1-3.7-1.1-5.4-2.1c-0.7-0.4-1.5-0.9-2.3-0.6c-1.2,0.5-1.7,1.9-2.2,3c3.8,0,7.6,0.1,11.3,0.1
		c-1.6,2.6-3.3,5.2-4.8,7.9c1.1,0.6,2.5,0.8,3.2,1.9c-1.4,0.3-2.7-0.1-3.9-0.8c-0.5,0.7-1,1.5-1.5,2.3c0.8,1,1.8,1.9,2.7,2.8
		c-1.1-0.7-2.4-0.9-3.6-1.4c-0.4,0.6-0.7,1.2-1.1,1.8c1.2,1.1,1.9,2.5,2.4,3.9c-0.9-1-1.9-2-3.1-2.7c-0.8,0.9-1.2,2.1-1.8,3.1
		c-1.3,1.5-2.2,3.3-3.3,5c0.3,0,0.8,0.3,1,0c0.4-0.5,0.9-1,1.4-1.4c-0.4,1.4-1.1,2.6-1.7,3.9c0.8,0.4,1.5,0.7,2.3,1.1
		c-0.1,0.6-1.2,0.4-1.7,0.6c0,0.6,0,1.2-0.1,1.8l0.5-0.1c0,0.1,0.1,0.4,0.1,0.6c-0.2,0-0.7-0.1-0.9-0.1c0.1-0.5,0.1-0.9,0.2-1.4
		c-0.2,0.1-0.6,0.2-0.7,0.2c0.3-0.2,0.6-0.4,0.8-0.7c-0.5-0.4-1-0.8-1.4-1.3c0.5-0.7,0.5-1.6,0-2.4c-1.2,1.4-2.1,3-2.7,4.7
		c-1.1,1.1-1.9,2.4-2.6,3.7c0.8,0.1,1.7,0.2,2.5,0.2c0.2-1,0.6-2,1.1-2.9c0.4,0.1,0.8,0.3,1.2,0.5c-0.2,0.5-0.4,1-0.5,1.4
		c0.5,0.4,1,1,1.7,0.9c2.6-0.1,5.1,0.1,7.6-0.1c-0.9-0.9-2.2-0.9-3.4-1.1c0.2-0.4,0.4-0.8,0.7-1.2c1.5,0.4,2.9,0.9,4.4,1.3
		c-0.1,0.4-0.3,0.9-0.5,1.3c0.8-0.1,1.5-0.2,2.3-0.2c4.3,0,8.6,0,12.9,0c0.2-0.6,0.3-1.3,0.3-1.9c0.3,0.5,0.8,0.9,1.3,1.2
		c0,0.2-0.1,0.7-0.1,0.9c0.2,0,0.7-0.1,0.9-0.1c-0.2-0.3-0.4-0.5-0.5-0.8c0.4-0.5,0.8-1,1.3-1.5c0.2,0,0.6,0.1,0.7,0.1
		c-0.1-1.4-0.1-2.9-0.2-4.3c-0.4,0.4-0.8,0.9-1.2,1.3c-0.5-0.1-0.9-0.3-1.4-0.4c-0.3,1.1-0.6,2.1-0.9,3.1c-0.4-0.2-0.9-0.7-1.4-0.3
		c-0.3,0.5-0.4,1-0.6,1.5c0.3-1.3,0.6-2.5,1-3.7c0.4,0,0.9,0.1,1.3,0.1c0.4-1.1,0.7-2.1,0.6-3.3h0.1c0.7,0.5,1.6,0.5,2.4,0.4
		c-0.3-2.4-0.6-4.7-1-7c-1.2-0.4-2.3-1-2.9-2.1c-0.8-0.2-1.6-0.5-2.4-0.7c0.2-0.5,0.4-1.1,0.6-1.6c-0.3-0.3-0.6-0.6-0.9-0.9
		c0.9,0.5,1.6,1.1,2.4,1.7c0.8,0.7,1.9,0.6,2.8,0.9c-0.3-1.4-0.9-2.7-1.2-4.1c-0.6-2.9-1.9-5.7-2.9-8.5c-0.8,0.4-1.6,0.7-2.4,1
		c0.2-0.4,0.4-0.7,0.5-1.1c-0.7-0.5-1.5-0.9-1.7-1.8c1,0,2,0.2,3,0.6c-1.1-2.3-1.8-4.7-3.6-6.6c-0.3,0.1-0.6,0.3-0.8,0.5
		c0-0.8,0.1-1.6,0.1-2.4c-1.1-1.9-2.2-3.9-3.7-5.5c-0.9-1.3-1.5-3.1-3.2-3.5c-0.9,0-1.6,0.8-2.1,1.4c-0.4-0.1-0.7-0.3-1-0.5
		c0.1-0.4,0.3-0.8,0.4-1.1c0.8,0.1,1.6,0,2.5-0.1c0.1-0.4,0.2-0.9,0.3-1.3c-1.5,0-3,0-4.4-0.1c-0.2,0.3-0.4,0.6-0.5,0.9
		c-1-0.4-2-0.2-2.9,0.1c0.9-1,1.8-1.9,2.6-2.8c-0.6-0.5-1.1-1-1.6-1.6c1.9,0.4,3.4,1.6,5.2,2.1c-1.2-2-2.9-3.6-4.5-5.3
		C160,40.6,159.3,40.9,158.6,41"/>
	<path class="st0" d="M27.3,40.6c-1.2,1.5-2.5,3-3.7,4.6c0.9,0.8,1.8,1.6,2.7,2.3c1.7-2.1,3.4-4.2,5.1-6.3
		C30.1,40.9,28.7,40.7,27.3,40.6"/>
	<path class="st0" d="M112.9,44c0.6,1.4,1.6,2.7,2.6,3.9c0.1-0.4,0.1-0.8,0.2-1.1C114.9,45.7,114.2,44.5,112.9,44"/>
	<path class="st0" d="M15.2,59.4c-0.8-0.4-1.5-0.8-2.3-1.2c-0.7,1.1-1.3,2.2-1.9,3.3c1.7,1.2,3.7,2,5.5,3.1
		c2.2-3.8,4.1-7.7,6.2-11.5c-1.1-0.6-2.2-1.1-3.3-1.7C18,54.1,16.6,56.7,15.2,59.4"/>
	<path class="st0" d="M21.3,56.8c1.3,0.7,2.6,1.4,3.8,2.1c-1.3,2.2-2.4,4.5-3.7,6.7c1.2,0.6,2.4,1.2,3.5,1.9
		c1.9-3.5,3.8-6.9,5.5-10.4c-2.4-1.2-4.9-2.6-7.3-3.9C22.6,54.5,21.9,55.7,21.3,56.8"/>
	<path class="st0" d="M144.3,63.7c0.7,0,1.6,0.3,2.3-0.2c0.6-0.7,0.7-1.7,1-2.6c-0.6-0.4-1.1-0.7-1.6-1
		C145.4,61.2,144.4,62.3,144.3,63.7"/>
	<path class="st0" d="M148.2,63.8c1.5,0,3,0,4.5,0.1c-0.9-0.7-0.9-1.9-0.5-2.9c-0.7-0.3-1.5-0.6-2.2-0.9
		C149.2,61.2,148.6,62.5,148.2,63.8"/>
	<path class="st0" d="M11.5,67.7c-1.2,3.9-2.4,7.9-3.6,11.8c1.1,0.4,2.2,0.8,3.3,1.1c0.5-1,0.8-2.1,1.1-3.1c0.9-2.9,1.8-5.9,2.7-8.8
		C13.8,68.3,12.6,68,11.5,67.7"/>
	<path class="st0" d="M15.5,68.9c-0.4,1.3-0.9,2.6-1.2,4c1.4,0.4,2.8,0.8,4.1,1.3c-0.2,0.9-0.5,1.7-0.7,2.6c1.3,0.4,2.5,0.8,3.8,1.1
		c0.6-2.1,1.2-4.2,2-6.3C20.9,70.4,18.2,69.8,15.5,68.9"/>
	<path class="st0" d="M13.1,76.9c-0.4,1.3-0.8,2.6-1.1,3.9c3.3,0.9,6.6,2,9.9,3c0.4-1.3,0.8-2.5,1.2-3.8
		C19.7,78.9,16.4,77.9,13.1,76.9"/>
	<path class="st0" d="M7.1,86.1c-0.1,2.5-0.3,5-0.5,7.5c1.2,0.1,2.4,0.2,3.6,0.3c0.3-2.5,0.3-5.1,0.5-7.6
		C9.5,86.2,8.3,86.1,7.1,86.1"/>
	<path class="st0" d="M11.2,86.4c0,1.4-0.1,2.8-0.3,4.2c1.4,0.2,2.9,0.3,4.3,0.4c-0.1,1.9-0.2,3.7-0.3,5.5c-2.9-0.1-5.7-0.4-8.5-0.6
		c-0.1,1.3-0.2,2.6-0.3,4c4.1,0.3,8.3,0.6,12.4,0.9c0.3-4.6,0.6-9.2,1-13.8C16.7,86.8,14,86.4,11.2,86.4"/>
	<path class="st0" d="M150,102c0.4,0.8,0.8,1.5,1.4,2.1c0.2-0.4,0.4-0.8,0.7-1.2c0.6,0.5,1.2,1,1.9,1.4c-0.5,0.6-1,1.2-1.6,1.7
		c0.4,0.9,0.9,1.7,1.6,2.4c0.2-2.3,0.4-4.8,2.1-6.5C154,102,152,101.9,150,102"/>
	<path class="st0" d="M157.4,102c-0.7,1.1-1.4,2.2-2.1,3.3c0.4,0.2,0.8,0.4,1.2,0.6c-0.7,1.2-1.4,2.4-2.2,3.6
		c0.6,1.1,1.2,2.3,1.9,3.4c0.1-0.2,0.4-0.6,0.5-0.7c1.4,0.7,2.6,1.7,4,2.5c0.6-0.9,0.9-1.8,1.3-2.8c0.1,0.2,0.2,0.6,0.3,0.7
		c0.1,0,0.4-0.1,0.5-0.2c0.6,1.1,1,2.4,2.3,2.8c-0.2,0.3-0.4,0.6-0.6,0.9c-0.7,0.1-1.4-0.3-2.1-0.1c-0.6,0.8-1.1,1.6-1.2,2.6
		c1.4,0.7,2.9,1.3,4.3,2c-1.8-0.1-3.6-0.4-5.3-0.7c1.6,2.7,3.2,5.4,4.7,8.2c0.5-0.5,1-1.1,1.7-1.4c0.8-0.1,1.6,0.1,2.4,0.1
		c0.5,0,0.8-0.6,0.6-1c-0.7-2.8-1.5-5.7-3.4-7.9c0.5-0.6,1.3-1.2,1.2-2c-0.4-0.6-1.1-0.9-1.7-1c0.3-0.4,0.5-0.7,0.8-1.1
		c0.4,0.1,0.8,0.4,1.1,0.1c0.4-0.3,0.6-0.8,1-1.1c0.6-0.4,1.3,0.2,1.8,0.6c-0.6,0-1.3-0.1-1.9-0.2c-0.3,0.5-0.5,1.1-0.6,1.7
		c0.4,0.2,0.9,0.5,1.3,0.7c-0.5,1.2-1.4,2.8-0.2,3.9c1.4,1.2,3.3,2.3,3.3,4.4c-0.7,0.1-1.4,0.1-2-0.2c0,1.6-0.4,3.2-0.4,4.9
		c0.9,0.4,1.8,0.8,2.6,1.3c-1.9,0.2-2.9-1.9-4.7-2c-0.9-0.3-1.8,0.8-1.3,1.6c0.7,1.6,2.7,1.8,3.7,3.2c0.5,0.6,1.1,1.1,1.7,1.6
		c-0.1,0.4-0.3,0.7-0.4,1.1c-1.2-1.1-2.4-2.2-3.9-2.9c0.3,0.6,0.7,1.1,1.1,1.7c-1.3,0-2.5,0-3.8,0.1c1.4,1,2.9,1.7,4.5,2.4
		c1.3,0.6,2.6,1.4,4.1,1.3c-0.4,0.4-0.7,1-1.3,1.2c-1.1,0.4-2.2,0.3-3.3,0.2c-0.1-0.9-0.1-2.3-1.3-2.6c-1.5-0.4-3.1-0.4-4.4-1.2
		c0-0.4,0-0.8,0-1.2c-1.3,0-2.6-0.1-4-0.1c-0.5,1.3-1.1,2.5-1.7,3.8c-0.1-1.3-0.1-2.6,0.1-3.8c-4.3,0.1-8.6,0-12.9,0
		c0.8,2,2,3.8,3,5.7c3.1,5.5,6.5,10.8,9.8,16.1c0.7,1.1,1.3,2.3,2.3,3.2c0.2-0.4,0.4-0.8,0.3-1.3c-0.2-1.3-1.6-1.9-1.9-3.2
		c0.2-0.6,0.7-1.1,1-1.6c-1.1-0.8-2.1-1.8-2.9-2.9c1.6,0.5,3.1,1.5,4.8,2.1c0.3-0.4,0.7-0.8,1-1.1c-0.1,0.7-0.2,1.4-0.4,2.1
		c0.4,0.3,0.8,0.5,1.2,0.8c-0.7,0.1-1.4,0-2.1-0.2c-0.1,1.7-1.3,3.7,0,5.2c1.8-2,3.9-3.8,5.2-6.2c0.4-0.6-0.5-1.1-0.7-1.6
		c-0.2,0.1-0.6,0.3-0.7,0.4c0.2-0.3,0.4-0.7,0.6-1c0.7,0.4,1.4,0.7,2.1,1.1c1.3-1.7,2.6-3.5,3.9-5.3c-1.7-0.1-2-2-2.7-3.2
		c-0.4-0.9-1.5-0.7-2.3-1c-0.6,1.3-1.1,2.7-2.1,3.9c1.4,0.9,2.9,1.7,4.2,2.6c-1.7,0.3-3.2-0.8-4.7-1.6c-0.2-0.5-0.4-1-0.6-1.5
		c0.2,0,0.6-0.1,0.9-0.1c1-1.5,2-3.1,2.8-4.7c0.7,0.2,1.4,0.4,1.4,1.3c0.6-0.2,1.2-0.4,1.7-0.7c-0.4,1.7,0.7,3.1,1.9,4.2
		c1-1.6,2-3.2,3-4.9c-0.6-0.2-1.3-0.4-1.9-0.6c-0.2,0.4-0.5,0.8-0.7,1.2c-0.7-0.3-1.3-0.6-2-0.8c0.7,0.1,1.5,0.4,2.1-0.1
		c1.3-0.8,1.6-2.5,2.8-3.4c0.6-0.5,1.7-0.1,2.1-0.9c0.2-0.4,0.4-0.7,0.6-1.1c-1-0.6-2.4-1-2.6-2.3c1.2-0.2,2.3,0.6,3.4,0.9
		c-1.1-1.8-2.1-3.7-3.3-5.5c-0.5-0.8-1.4-1.4-1.7-2.4c2.8,0.3,3.4,4.1,6.3,4.1c0.6-1.9,1.4-3.8,1.9-5.7c-1.1-0.4-2.4-0.6-2.8-1.8
		c1.1,0.2,2.1,0.4,3.2,0.6c1.8-6.9,2.8-14.1,2.8-21.2c-4.6,0-9.2-0.1-13.8,0.1c-0.1,0.2-0.4,0.5-0.5,0.6c-0.9-0.6-1.9-0.9-2.9-0.7
		c-0.4,1-0.8,1.9-1.3,2.8c0.5,0.1,1,0.3,1.5,0.5c0.6-0.4,1.2-0.8,1.9-1.1c1-0.2,2.1-0.2,3.1-0.3c-0.7,0.1-1.4,0.1-2.1,0.3
		c-1.4,0.4-2.4,1.7-3.8,1.9c-1.1,0.1-1.9-0.7-2.6-1.4c1.3-0.4,2-1.6,2.5-2.7C163.6,101.9,160.5,102,157.4,102"/>
	<path class="st0" d="M10,104.7c0.1,1.4,0.1,2.7,0.3,4c2.8-0.1,5.5-0.5,8.2-0.7c-0.1-1.4-0.2-2.7-0.4-4
		C15.4,104.3,12.7,104.6,10,104.7"/>
	<path class="st0" d="M5.8,105.1c0.2,3.6,0.6,7.1,0.9,10.7c1.2-0.1,2.4-0.1,3.6-0.2c-0.2-3.6-0.6-7.2-0.9-10.8
		C8.1,104.9,6.9,105,5.8,105.1"/>
	<path class="st0" d="M157.6,114.9c0.4,1.2,1.1,2.3,1.9,3.3c0.4-0.5,1-0.9,0.9-1.6C159.7,115.6,158.5,115.4,157.6,114.9"/>
	<path class="st0" d="M12.2,118.7c0.1,1.4,0.6,2.6,0.9,3.9c2.6-0.7,5.3-1.4,7.9-2.1c-0.4-1.3-0.7-2.6-1.1-3.9
		C17.4,117.3,14.8,117.9,12.2,118.7"/>
	<path class="st0" d="M7.9,119.9c1.1,3.4,1.8,6.9,2.9,10.3c1.1-0.3,2.3-0.6,3.4-0.9c-0.9-3.5-1.9-6.9-2.8-10.4
		C10.2,119.1,9,119.3,7.9,119.9"/>
	<path class="st0" d="M15,124.9c0.3,1.3,0.6,2.6,1,3.9c2.2-0.6,4.5-1.2,6.7-1.7c-0.3-1.3-0.6-2.6-1-3.9
		C19.5,123.7,17.3,124.3,15,124.9"/>
	<path class="st0" d="M126.8,131.8c-0.1,1.3-0.9,2.3-1.6,3.3c-1.6,2.7-3.3,5.4-5.1,7.9c0.5,0.4,1,0.9,1.5,1.2
		c-0.5,1.2-1.1,2.4-1.6,3.5c-0.4-0.1-0.8-0.3-1.2-0.4c0.3-0.7,0.6-1.4,0.3-2.2c-0.8,0.7-1.4,1.7-1.9,2.6
		c-3.6,5.5-7.1,11.1-10.8,16.6c0.1,0.1,0.4,0.4,0.4,0.6c-0.1,0.4-0.2,0.7-0.4,1.1c0.6,1.1,1.7,2.4,3.1,1.9c2-1.1,2.8-3.5,4.8-4.6
		c1-0.5,1.9,0.4,2.6,0.9c0.5-0.2,1.1-0.4,1.6-0.5c0.3,1,0.9,2,2,2.3c-0.5,0.1-0.9,0.6-1.4,0.3c-1.8-0.7-3.7-0.7-5.6-0.7
		c-0.9,0.8-2,1.5-2.9,2.4c-0.6,0.8-0.1,2.1,0.9,2.1c0.7-0.1,1.5-0.4,2.2-0.5c0.1,0.3,0.1,0.7,0.1,1c-2.9,1.1-5.3-1.4-7.8-2.4
		c-0.4,0.8-0.8,1.7-1.2,2.5c-0.7-0.4-1.4-0.6-2.1-0.9c-0.6,0.9-1.1,1.8-1.7,2.8c1.2,0.2,2.5,0.4,3.8,0.5c-0.7,1.2-2.1,1.7-3.4,1.9
		c-0.6-0.1-1.1-0.4-1.6-0.5c0,1.5,0.1,3.1,0,4.6c1.6,1,3.4,1.9,5,2.9c-0.1,0.9-0.7,1.7-1,2.6c1,0.3,2.1,0.9,3.1,0.5
		c2.6-1.1,3.4-4.7,6.4-5.2c-0.9,1.9-1.8,3.7-2.6,5.6c2.7-0.4,5.3-0.9,8-1.4c0.4-0.8,0.8-1.7,1.2-2.5c0,0.7,0.1,1.4,0.1,2.1
		c2.1-0.5,4.2-1.1,6.2-1.7c-0.9-1.8-2.1-3.4-3.7-4.4c-0.4,0.9-0.8,1.7-1.1,2.6c-0.6-0.3-1.1-0.6-1.6-1c0.9-1.1,2.2-1.9,3.4-2.7
		c0.4,0.2,0.8,0.4,1.1,0.5c0.3-1.1,0.5-2.3,0.9-3.4c0.9,0.7,1.8,1.6,1.9,2.8c0.2,1.8-0.2,3.6-0.1,5.4c1.5-0.4,2.9-1,4.3-1.6
		c-0.1-0.6-0.4-1.2-0.4-1.8c0.2-0.7,0.9-1.1,1.4-1.5c0.8,0.7,0.7,1.7,0.6,2.7c1.9-0.8,3.7-1.7,5.5-2.6c0.9-0.5,1.9-0.8,2.5-1.7
		c0.8-1.1,0.9-2.4,0.6-3.7c0.5,0.9,1.2,1.8,2,2.6c0.9-0.5,1.8-1.1,2.6-1.8c-0.6-1.3-1.2-2.6-1.6-4c0.8-0.1,1.6,0.1,2.3,0.4
		c0.3,0.9,0.6,1.8,1,2.7c0.8-0.5,1.5-1.4,1.1-2.4c0.4,0.1,0.9,0.3,1.4,0.4c0.6-0.4,1.2-0.8,1.9-1.2c-0.6-0.2-1.1-0.4-1.7-0.6
		c0.1-0.7,0.1-1.4-0.1-2.1c0.9,0.4,1.8,0.6,2.7,0.9c-0.2,0.4-0.4,0.8-0.6,1.3c0.5-0.4,1-0.7,1.6-1.1c0.4-1.8-1.1-3.2-2-4.6
		c-1.2-0.1-2.1-1-3.3-1c0.2-0.4,0.4-0.9,0.8-1.3c0.4-0.5,1,0.1,1.4,0.2c-0.6-0.8-1.1-1.7-1.6-2.6c-1-0.4-2-0.8-2.7-1.6
		c-1.9-2.2-3.2-4.9-5.7-6.4c-0.3,0.5-0.5,1-0.8,1.4c-1.6-0.4-1.7-2.2-2.1-3.5c0.9,0.1,1.9,0.3,2.8,0.7c2.4,1.2,3.4,4,5.9,5
		c-0.8-1.8-1.6-3.6-2.8-5.1c-0.5-0.7-1.2-1.3-1.4-2.1c-0.4-1.2-0.8-2.4-1.5-3.4c-1.1,0.6-2.2,1.5-3.5,1.8c-0.8,0.2-1.4-0.2-2-0.6
		c-0.2,0.3-0.4,0.6-0.6,0.9c-0.8-0.3-1.6-0.7-2.4-1.1c-0.1,0.4-0.3,0.9-0.5,1.3c-0.4-0.2-0.9-0.4-1.3-0.6c0.2-0.4,0.4-0.7,0.6-1.1
		c-0.6-0.4-1.2-0.7-1.9-1.1c2.8,0.4,5.5,1.2,8.3,1.7c0.9-0.7,1.9-1.4,2.8-2c-0.8-1.4-1.3-3-2.4-4.2c-0.4,1,0.3,1.8,0.9,2.4
		c-0.7-0.3-1.4-0.6-2.1-1c0.2-0.9,0.4-1.9,0.7-2.8c-0.3-0.6-0.6-1.2-0.9-1.8c-2.2-0.1-4.3,0-6.5,0c0-0.8,0-1.6,0-2.4
		C129.1,131.7,127.9,131.8,126.8,131.8"/>
	<path class="st0" d="M23,134.2c1,1.7,1.8,3.5,2.8,5.2c-2.1,1.2-4.3,2.4-6.6,3.3c-0.9-1.8-1.8-3.6-2.7-5.3c-0.8,0.4-1.6,0.9-2.4,1.4
		c1.6,3.1,3.1,6.1,4.7,9.2c0.8-0.4,1.6-0.8,2.5-1.2c-0.2-0.4-0.4-0.9-0.5-1.3c2.9-1.5,5.9-2.9,8.8-4.5c-1-2.8-2.6-5.3-3.9-8
		C24.7,133.2,23.8,133.7,23,134.2"/>
	<path class="st0" d="M29.3,145.8c0.4,0.5,0.8,1,1.2,1.6c-0.9,0.6-1.8,1.2-2.7,1.9c0.5,0.9,1.1,1.7,1.6,2.5c1.7-1.2,3.5-2.1,4.9-3.7
		c-0.9-1.3-1.7-2.6-2.6-3.9C30.9,144.6,30.1,145.2,29.3,145.8"/>
	<path class="st0" d="M34.1,152.5c1.3,1.6,2.7,3,4,4.5c-1.7,1.7-3.6,3.3-5.4,4.9c-1.4-1.5-2.7-3-4-4.5c-0.7,0.6-1.4,1.3-2.1,2
		c2.3,2.6,4.6,5.1,6.9,7.6c0.7-0.6,1.5-1.3,2.1-2c-0.3-0.3-0.6-0.7-0.9-1c2.5-2.2,5-4.3,7.3-6.7c-1.8-2.4-3.9-4.4-5.8-6.6
		C35.6,151.3,34.8,151.9,34.1,152.5"/>
	<path class="st0" d="M45.9,161c-0.1,1.2-0.1,2.4-0.2,3.6c-1.1,0-2.4,0-3.2,0.9c-0.9,1.1-1.2,2.4-1.8,3.6c-0.4,0.1-0.8-0.1-1.2-0.2
		c-0.5,0.7-1.1,1.4-1.6,2c1.2,0.9,2.4,1.9,3.6,2.8c1.1-1.8,1.9-3.7,2.9-5.6c0.2-0.4,0.6-0.6,1.1-0.9c-0.1,3-0.5,6-0.6,9
		c0.9,0.7,1.9,1.4,2.8,2c0.2-1.9,0.3-3.8,0.4-5.7c1.2,0.1,2.6,0.3,3.6-0.6c1.2-1.3,2.3-2.8,3.2-4.3c-1-0.9-2.1-1.7-3.1-2.5
		c-0.6,0.7-1.2,1.4-1.8,2.2c0.4,0.3,0.7,0.6,1.1,0.9c-0.6,0.9-1.5,1.6-2.6,1.6c0-2.3,0.3-4.5,0.3-6.8
		C48.1,162.2,46.9,161.7,45.9,161"/>
	<path class="st0" d="M66.1,177.1c2,0.8,4.1,1.6,6.1,2.2c-0.5,1.6-1.1,3.2-1.7,4.8c-0.3,0.7-0.8,1.5-1.6,1.5c-1,0.1-1.8-0.4-2.7-0.8
		c-0.4,0.9-0.7,1.7-1,2.6c1.2,0.4,2.3,1,3.5,1.3c1.7,0.4,3.6-0.7,4.1-2.4c1-2.9,2.2-5.7,3.1-8.6c-2-0.9-4.1-1.5-6.1-2.4
		c0.3-0.8,0.6-1.5,0.9-2.3c-0.9-0.4-1.9-0.7-2.8-1C67.3,173.9,66.8,175.5,66.1,177.1"/>
	<path class="st0" d="M56.1,175.6c-0.5,0.8-0.9,1.6-1.4,2.5c1.8,1,3.6,1.8,5.4,2.8c0.5-0.8,1-1.6,1.4-2.5
		C59.8,177.5,57.9,176.6,56.1,175.6"/>
	<path class="st0" d="M80.7,181.8c0.3,0.1,0.6,0.3,0.9,0.4c-1.4,2-1.4,4.6-1.8,6.9c-0.5-0.1-1-0.2-1.6-0.2c-0.2,0.9-0.4,1.9-0.5,2.8
		c1.5,0.2,3,0.5,4.5,0.7c0.5-3.3,1-6.6,1.6-10c1.6,0.3,3.3,0.5,4.9,0.8c-0.6,3.3-1.1,6.7-1.6,10c1,0.1,1.9,0.3,2.9,0.4
		c0.5-3.5,1.1-6.9,1.6-10.4c0.2-1.1-0.4-2.4-1.6-2.6c-3-0.6-6.1-1.1-9.1-1.4C80.8,180,80.4,180.9,80.7,181.8"/>
	<path class="st0" d="M99.7,183.2c0,1-0.1,1.9,0,2.9c1-0.6,1.8-1.4,2.6-2.3C101.5,183.6,100.6,183.4,99.7,183.2"/>
	<path class="st0" d="M108.4,15.8c1.1,0.1,2.2,0,3.3-0.4c-0.1,0.7-0.2,1.4-0.3,2.1C110.3,17,109.2,16.6,108.4,15.8"/>
	<path class="st0" d="M105.8,18.2c0.5,0.4,1.1,0.7,1.2,1.4c0.2,1.5,0.5,2.9,0.6,4.4c0.7,0,1.7,0.2,2.1-0.6c0.6-1,1.3-2.2,2.5-2.5
		c0.4-0.2,0.9,0.1,1.1,0.5c0.7,1.1,1.5,2.2,1.8,3.5c-0.8-0.5-1.5-1.2-2.5-1.2c-1.6,0.7-2.1,2.6-3.2,3.9c-0.5,0.7-1.2,1.1-1.9,1.5
		c1.4,0.7,2.6-0.4,3.9-0.8c-0.6,1.4-2.1,2.4-3.7,2.2c-1,0-1.9-1.1-1.6-2.1c0.3-1,0.9-2,1.4-2.9c-0.5-0.5-1.1-0.9-1.8-1.3
		c0.6-1.1,1.3-2.2,1.3-3.6C106.8,19.7,106.2,18.9,105.8,18.2"/>
	<path class="st0" d="M117.3,20.6c0.6,0.1,1.2,0.1,1.8,0.3c1,0.4,1.2,1.6,1.5,2.5c-0.5-0.1-1-0.2-1.5-0.3c-0.2,0.4-0.4,0.8-0.6,1.1
		c-0.8-0.4-1.6-0.8-2.4-1.2C116.5,22.2,116.9,21.4,117.3,20.6"/>
	<path class="st0" d="M119.1,27.3c0.2-0.3,0.3-0.6,0.5-0.9c0.4,0.2,0.9,0.4,1.3,0.6c-0.5,1.1-1.6,2-2.8,1.8c-0.9,0-1.1-1-1.3-1.6
		C117.6,27.1,118.4,27.2,119.1,27.3"/>
	<path class="st0" d="M132.9,27.7c0.2-0.4,0.4-0.7,0.6-1.1c1.1,0.5,2.5,0.9,2.9,2.1c0.6,1.4,0.3,3.1-0.6,4.3c-0.7-0.4-1.5-0.7-2.2-1
		c0.4-0.5,0.9-0.9,1.2-1.4C134.4,29.4,133.8,28.5,132.9,27.7"/>
	<path class="st0" d="M121.3,30.8c0.9-1.1,1.9-2,2.8-3c0.9,1.5,2.9,1.5,4.1,2.6c0.7,0.5,0.1,1.4-0.1,1.9c-0.5-1.5-1.9-2.4-3.4-2.6
		C123.5,29.9,122.4,30.5,121.3,30.8"/>
	<path class="st0" d="M139.5,33.2c0.6-1.2,1.1-2.4,1.6-3.6c0.7,0.3,1.3,0.7,1.7,1.4c-0.5,0.9-0.9,1.8-1.3,2.7
		c0.6,0.1,1.3,0.3,1.9,0.4c0.2-0.9,0.5-1.9,1.1-2.7c2.4,0.2,5.2,0.1,6.9,2.2c0.5,0.4,0.3,1.4-0.3,1.5c-1.3-0.7-2.1-2.1-3.5-2.5
		c-0.8-0.2-2,0-2.2,0.9c-0.3,1-0.4,2-0.5,3c-1.2-0.6-2.5-1.2-3.9-1.2c-1.2,0-2.3-0.6-3.4-1.2c0.2-0.4,0.4-0.8,0.6-1.2
		C138.6,33,139,33.1,139.5,33.2"/>
	<path class="st0" d="M115.8,32.6c1.5,0,3.1,0.5,4.1,1.6c0.2,0.8,0.1,1.6,0.1,2.4c-1.1,0.5-2.2,0-3.3,0c-0.6-0.1-1,0.5-1.3,1
		c1.2,1.2,2.7,2.1,4,3.3c-0.7-0.1-1.4-0.2-2-0.4c-0.2,1.1-0.5,2.2-0.9,3.3c-0.4-0.2-0.8-0.4-1.2-0.6c0.4-1.1,1.1-2.1,1.1-3.3
		c-0.1-0.8-1-1.1-1.6-1.4c-0.1-1.7,0.6-3.3,1.2-4.8C116,33.3,115.9,33,115.8,32.6"/>
	<path class="st0" d="M120.5,33.9c0.2-0.6,0.8-1.4,1.5-1.1c1.2,0.4,2.4,1.1,3.5,1.6C124,35.6,122,34.7,120.5,33.9"/>
	<path class="st0" d="M132.2,32.8c0.5,0.3,1.1,0.6,1.4,1.2c0.5,0.8,0.3,1.8,0.3,2.6c1,0.6,2,1.3,3.3,1.5c0.2-0.3,0.4-0.6,0.5-0.9
		c1.7,0.9,3.6,0.8,5.5,0.9c0.3,0.9,0.6,1.8,0.9,2.7c-2.2-0.9-4.6-1.2-6.7-2.3c-0.5-0.3-1.1-0.4-1.6-0.5c-0.1,0.5-0.6,1-0.2,1.6
		c0.4,0.4,0.9,0.7,1.4,1c-0.2,0.6-0.7,1.2-0.3,1.8c0.4,0.6,1.2,0.8,1.9,0.7c0.4-0.3,0.6-0.9,0.9-1.3c0.4,0.1,0.8,0.2,1.3,0.4
		c-0.4,0.9-0.8,1.8-1.2,2.7c0.5,0.1,0.9,0.5,1.4,0.4c1.2-0.4,1.6-1.7,2.7-2.2c0.7-0.1,1.4,0.3,1.6,0.9c-0.6,1.2-2.1,1.4-3.2,1.9
		c-0.8,0.2-1.3,0.9-1.8,1.5c-1.1-1-1.9-2.4-3-3.5c-0.7-0.8-1.7-1.1-2.7-1.6c0.2-0.4,0.3-0.8,0.5-1.2c-1.6-0.3-3.2-0.4-4.6-1.2
		c-0.2,0.4-0.4,0.8-0.5,1.2c-0.4-0.2-0.8-0.4-1.2-0.6c0.1-0.4,0.3-0.8,0.4-1.2c0.6,0.1,1.2,0.4,1.8,0.3c0.6-0.1,0.7-0.9,1-1.3
		c0.6,0.1,1.3,0.4,1.9,0.2c0.4-0.2,0.6-0.6,0.9-1c-0.9-0.9-2.2-1.1-2.9-2.1C131.2,34.5,131.9,33.6,132.2,32.8"/>
	<path class="st0" d="M124.6,38.1c1.4-1.6,3.2-2.8,4.9-4.1c-0.1,0.9-0.2,1.9-0.6,2.7c-1.4,2.5-4.1,3.9-5.3,6.6
		c0.7,0.2,1.4,0.3,2.1,0.5c-0.2,0.5-0.5,1-0.7,1.5c-0.5-0.4-1-0.6-1.6-0.6c-0.3-0.6-0.7-1.2-0.5-1.9
		C123.4,41.2,123.6,39.4,124.6,38.1"/>
	<path class="st0" d="M149,35.1c0.4,0.4,0.9,0.7,0.9,1.2c0.1,1.1-0.4,2.1-0.8,3c-0.6-0.4-1.1-0.8-1.6-1.2
		C148,37.1,148.4,36.1,149,35.1"/>
	<path class="st0" d="M129.2,42.2c0.7,0.2,1.5,0.5,2.3,0.3c-0.4,0.8-0.7,1.6-1.1,2.5c-0.5-0.3-1.2-0.6-1.5-1.1
		C128.8,43.3,129.1,42.7,129.2,42.2"/>
	<path class="st0" d="M132.9,45.7c0.7,0.1,1.4,0.2,2.1,0.4c-0.6,1.3-1.1,2.6-1.8,3.9C132.9,48.6,133.5,47.1,132.9,45.7"/>
	<path class="st0" d="M127.5,51.8c0.1-0.5,0.3-1,0.5-1.4c-0.2,1-0.6,2-0.9,3c-1.5-0.1-3-0.7-4.2-1.6C124.5,51.9,126,52.4,127.5,51.8
		"/>
	<path class="st0" d="M166.1,52c0.2-0.5,0.5-1,0.8-1.4c0.7,0.5,1.2,1.1,1.5,1.9C167.6,52.5,166.9,52.3,166.1,52"/>
	<path class="st0" d="M135,51.1c1.2-0.2,2.2,0.7,3.2,1.2c0.8,1.6,0.7,3.6-0.1,5.2c-0.8-0.3-1.6-0.7-2.4-1.1c0.5-0.5,0.9-1,1.3-1.6
		c-0.7-1.1-1.5-2.1-2.1-3.2C134.9,51.5,135,51.2,135,51.1"/>
	<path class="st0" d="M163.5,53.3c0.4-0.8,1.4-1.2,2.2-1.6c0.1,0.1,0.3,0.2,0.4,0.3c-1.5,1.4-2.9,3.3-3,5.4
		C162.9,56.1,162.7,54.6,163.5,53.3"/>
	<path class="st0" d="M126.8,57.2c0.6-1,1.4-1.9,2.3-2.6c1.5,1,1.8,3,2.8,4.4c-0.5,0-1,0-1.5,0c0,0.8,0.2,1.6,0.6,2.2
		c-0.1,0.3-0.2,0.6-0.4,0.9c-0.4-0.1-0.8-0.3-1.2-0.5c0.4-0.8,0.7-1.7,0.9-2.6c-0.9-0.9-1.8-1.7-2.8-2.5
		C127.3,56.8,127,57,126.8,57.2"/>
	<path class="st0" d="M171.7,63.5c0.1-0.4,0.3-0.9,0.4-1.3c0.4,0.2,0.9,0.4,1.3,0.6c-0.2,0.4-0.4,0.9-0.6,1.3
		C172.4,63.9,172.1,63.7,171.7,63.5"/>
	<path class="st0" d="M32.5,63.7c9.7,0.1,19.4,0,29.1-0.1c-1.4,5.9-2.9,11.7-4.4,17.6c-0.4,1.7-0.6,3.5-1.8,4.9
		c-2.3,2.9-4.1,6.2-6.5,9c-0.1-3.4,0.2-6.9-0.1-10.3c-2.1-0.9-4.1-1.8-6-2.8c-0.7-0.2-0.9-0.9-1.2-1.5c-2.3-4.3-4.6-8.5-6.9-12.8
		C33.9,66.5,33.1,65.1,32.5,63.7"/>
	<path class="st0" d="M169.4,69.1c0.1-2.1,1.9-3.5,3.3-4.8c-0.1,0.3-0.3,0.6-0.4,1c0.9,0.4,1.7,0.9,2.6,1.3
		c-0.4,0.5-0.6,1.1-1.1,1.3c-1,0.1-2-0.1-3-0.1C170.2,68.2,169.8,68.6,169.4,69.1"/>
	<path class="st0" d="M170,70c0.4-0.8,1.4-0.4,2.1-0.4c-0.5,0.7-1,1.4-1.4,2.1c0.4,0.4,0.7,0.9,1.2,1c1.4-0.1,2.8-0.4,4.2-0.4
		c0.1,1.3-1.1,2.6-0.3,3.8c-1.3,0.7-1,2.3-0.5,3.4c-0.8-0.4-1.6-0.8-2.5-1.2c0.7-1,1.5-1.9,2.4-2.7c0-0.6,0-1.1,0-1.7
		c-1.3-0.2-2.7-0.1-3.9-0.6C170,73,169.4,71.1,170,70"/>
	<path class="st0" d="M167,79.3c0.8-0.2,1.6-0.5,2.3-0.8c-0.9,1.8,0.9,3.3,1.9,4.6c-0.5,0-1.1,0.2-1.6,0
		C168.3,82.1,168.2,80.3,167,79.3"/>
	<path class="st0" d="M171.7,82.1c1.5-0.2,3.4-0.4,4.4,1.1c-0.5,0.4-1.1,1-1.8,1C173.1,83.9,172.4,82.9,171.7,82.1"/>
	<path class="st0" d="M159.6,84c1.6,0.8,3.2,1.9,5,1.5c0.5-0.4,0.9-0.8,1.3-1.2c0.1,1.5,0.5,3,0.6,4.5c-0.2,0.6-1,0.7-1.5,0.8
		c-1.6,0.1-3.1-0.3-4.6-0.7c-0.4-1.1,0.4-2.1,0.9-2.9C160.5,85.5,159.9,84.9,159.6,84"/>
	<path class="st0" d="M177.3,84.9c1.4,1.4,2.4,3.2,4.2,4.1c-0.3-0.1-0.5-0.1-0.8-0.2c-1.2,0.8-2.3,1.9-3.1,3.1
		c-1.3-1.1-2.7-2.4-2.6-4.2c0.5,0.1,1,0.3,1.5,0.5C176.8,87.1,177,86,177.3,84.9"/>
	<path class="st0" d="M170.3,85.4c0.7-0.1,1.4-0.2,2,0.1c-0.1,1.1-0.4,2.2-0.8,3.2C171.1,87.6,170.8,86.5,170.3,85.4"/>
	<path class="st0" d="M169.6,91.1c1.6,0.1,3.3-0.9,4.9-0.1c0.2,1.4,0.4,2.7,0.5,4.1c-1.1-0.6-2.3-1.1-3.5-1.7
		c-0.5,0.7-1.1,1.4-1.9,1.6C169.6,93.7,170,92.3,169.6,91.1"/>
	<path class="st0" d="M176,103.7c0.2-0.4,0.4-0.8,0.6-1.2c1.1,0.5,2.3,1,3.4,1.6c0.4,0.7-0.4,0.7-0.9,0.7
		C178,104.8,177,104.2,176,103.7"/>
	<path class="st0" d="M158.2,106.1c0-1.2,0.6-2.3,1.1-3.3c0.8,0.3,1.6,0.6,2.4,1C160.7,104.8,159.5,105.6,158.2,106.1"/>
	<path class="st0" d="M169.2,108c0.8-0.5,1.1-1.4,1.5-2.2c1.5,0.4,2.9,0.9,4.4,1.3c-1.3,1.4-2.3,3.3-4.3,3.7c-1.4-0.2-2.6-1-3.9-1.5
		c-0.1-0.3-0.2-0.6-0.4-0.9C167.4,108.4,168.4,108.5,169.2,108"/>
	<path class="st0" d="M181.7,105.7c0.4,0.2,0.9,0.4,1.4,0.6c-0.2,0.4-0.4,0.8-0.6,1.2c-0.4-0.1-0.8-0.3-1.2-0.4
		C181.4,106.7,181.6,106.2,181.7,105.7"/>
	<path class="st0" d="M178.4,107.8c0.9-0.1,1.7,0.1,2.6,0.4c-0.3,0.5-0.5,0.9-0.8,1.4C179.3,109.3,178.6,108.7,178.4,107.8"/>
	<path class="st0" d="M163.6,108.4c0.9,0.8,1.8,1.5,2.9,1.9c-1.2,0.7-2.5,0.2-3.7,0.3c-0.4,0-0.6,0.3-0.9,0.5
		c-0.6,0.3-1.1-0.4-1.6-0.7C161.6,110.1,163.1,109.9,163.6,108.4"/>
	<path class="st0" d="M176.9,111.1c0.8-0.3,1.6-0.6,2.5-0.9c-0.1,0.6-0.6,1.3-0.2,1.9c0.4,1,1.3,1.6,1.8,2.6
		c0.1,0.5-0.4,0.3-0.7,0.3c-1.1-0.1-1.6-1.3-2-2.2c-0.9-0.1-1.9-0.1-2.8,0.1c-0.2-0.4-0.6-0.6-1-0.7c1.3,0,2.5,0.3,3.8,0.4
		C177.8,112.1,177.4,111.6,176.9,111.1"/>
	<path class="st0" d="M171.9,112.8c1.3,1.1,2.9,1.9,4.4,2.8c0.9,0.5,1.8-0.1,2.5-0.6c-0.1,0.6-0.2,1.1-0.3,1.7
		c0.9,0.6,1.8,1.1,2.7,1.6c-0.4,1.1-0.7,2.3-1.7,2.9c0.5-1.6-0.2-3.2-1.4-4.3c-0.1,0.2-0.3,0.6-0.4,0.8c-2.4,0.1-4.5-1.3-6.8-2
		C171,114.7,171.1,113.5,171.9,112.8"/>
	<path class="st0" d="M173.2,120.9c2.4-0.3,3.9,1.9,5.5,3.4C176.6,123.8,174.6,122.6,173.2,120.9"/>
	<path class="st0" d="M159.8,137.4c0.2-0.9,0.7-1.8,1.3-2.5c0.1,0.7,0,1.5-0.3,2.2c1.6,0.5,3.1,1.1,4.7,1.5
		c-1.2,0.2-2.4,0.4-3.5,0.4C161,139,160.1,138.4,159.8,137.4"/>
	<path class="st0" d="M125.7,135.8c0.3-0.2,0.6-0.4,1-0.6c1.6,0.9,3.3,1.5,4.8,2.5c-0.4,0.5-0.7,1.1-1.3,1.4
		c-0.9-0.3-1.9-0.7-2.8-1.1c-0.3,1.2-0.5,2.3-0.9,3.5c-0.9-0.4-1.4-1.3-1.9-2.2c1.2-0.7,1.6-2,2-3.2
		C126.4,136,126,135.9,125.7,135.8"/>
	<path class="st0" d="M152.3,136c0.8-0.5,1.8-0.7,2.7-0.9c-0.5,1.2-1.4,2.4-1.6,3.7c-0.2,0.5,0.2,0.8,0.5,1.1
		c-0.9-0.4-1.9-0.9-2.3-1.9C151.3,137.2,151.6,136.4,152.3,136"/>
	<path class="st0" d="M148,138.8c0-0.9,0.7-1.6,1.4-2c-0.1,0.5-0.3,0.9-0.4,1.4c0.5,0.3,1.1,0.6,1.4,1.1c0,0.6-0.3,1.1-0.4,1.7
		c1.1,0.3,2.3,0.7,3.5,0.6c0.6-0.1,1.3,0,1.9,0.2c-0.2,0.6-0.4,1.1-0.5,1.8c0.8,1.6,2.7,2.6,3,4.5c-0.4,0.2-0.7,0.4-1,0.6
		c0.1-0.7,0.4-1.7-0.3-2.3c-1.2-1.2-3.1-1.9-3.5-3.8c-0.4,0.3-0.8,0.6-1.3,0.6c-1.1,0-2-0.7-2.9-1.3c0.2-0.6,0.4-1.2,0.5-1.8
		C148.9,139.8,148.2,139.4,148,138.8"/>
	<path class="st0" d="M134.2,137.4c0.5,0.2,1.1,0.4,1.6,0.6c-0.4,0.6-0.9,1.3-1.6,1.7C133.7,139,134,138.2,134.2,137.4"/>
	<path class="st0" d="M157.1,141.4c1.7,0.7,3.4,1.4,5,2.4c-0.9,0.1-1.9-0.1-2.7-0.5C158.5,142.8,157.4,142.4,157.1,141.4"/>
	<path class="st0" d="M122.1,142.9c0.4,0.2,0.8,0.4,1.2,0.6c-0.2,0.4-0.4,0.8-0.5,1.2c-0.4-0.1-0.9-0.3-1.3-0.5
		C121.8,143.8,121.9,143.4,122.1,142.9"/>
	<path class="st0" d="M126.7,146.6c0.7-0.3,0.9-1.1,1.3-1.7c0,1.6-0.4,3.2-0.4,4.8c0,0.9,0.9,1.4,1.5,1.9c0.9-0.7,1.8-1.4,2.7-2
		c-0.6,2.1-2.3,3.8-3.9,5.2c0.5-0.8,1.1-1.5,1.6-2.2c-1-0.4-2.1-0.7-2.7-1.7c-0.8-1.2-0.9-2.9-2.2-3.7c-0.4,1.2-0.8,2.7-2.2,2.9
		c-0.3-1.4,0.5-2.6,1.1-3.7C124.6,146.4,125.6,146.6,126.7,146.6"/>
	<path class="st0" d="M131.3,145.6c0.4,0.2,0.9,0.5,1.3,0.7c-0.2,0.4-0.4,0.8-0.6,1.2c-0.4-0.2-0.8-0.4-1.2-0.5
		C130.9,146.6,131.1,146.1,131.3,145.6"/>
	<path class="st0" d="M134,149.8c0.7,0.2,1.5,0.3,1.9,0.9c0.4,1,0,2.1,0.3,3.1c0.3,0.4,0.8,0.7,1.3,1.1c-0.3,1.1-0.5,2.1-0.9,3.2
		c-0.4-0.7-0.1-1.5,0.1-2.2c-0.8-0.3-1.5-0.6-2.3-1c0.4-0.8,0.7-1.6,1.1-2.4c-0.8-0.4-1.7-0.8-2.4-1.4
		C133.4,150.6,133.7,150.2,134,149.8"/>
	<path class="st0" d="M118.7,152.6c0.1-0.8,0.2-1.8,1-2.1c0.9-0.3,1.9,0.3,2.3,1.2c0.5,1.1,0.8,2.6,2.2,3.1c-0.4,1-0.8,2.2-2,2.6
		c0.2-0.7,1-1.6,0.2-2.3c-1.1-1-3.1-0.2-3.5,1.2c0.4,0.2,0.8,0.5,1.2,0.8c-0.9,0.7-1.9,1.3-2.9,2.1
		C118.3,157.1,118.5,154.9,118.7,152.6"/>
	<path class="st0" d="M140.2,153.7c1.3,0.8,2.6,1.7,4,2.6c-0.4,0.3-0.8,0.3-1.2,0.2c-1.2-0.3-2.2-1-3.3-1.5
		C139.8,154.5,140,154.1,140.2,153.7"/>
	<path class="st0" d="M130.8,154.9c0.6,0.1,1.2,0.2,1.8,0.4c-0.3,1.1-0.4,2.3,0.4,3.2c0.7,0.5,1.6,0.8,2.4,1.2
		c-1.1,0.4-2.8,0.5-3.3,1.9c-0.3,0.9,0.6,1.5,1.4,1.7c0.7-0.1,1.3-0.4,2-0.6c-0.6,1.2-1.1,2.5-1.7,3.7c-0.4-0.1-0.8-0.3-1.1-0.4
		c-0.2,0.2-0.4,0.4-0.6,0.7c0-2.2-0.8-4.4-0.7-6.6c-1-0.5-1.9-1.2-3.1-1c0.4-0.7,0.7-1.4,1-2.1c0.4,0.1,0.8,0.3,1.3,0.4
		C131,156.6,130.8,155.6,130.8,154.9"/>
	<path class="st0" d="M113.1,158.4c0.3-0.7,0.8-1.2,1.4-1.6c0.8,0.9,1.5,1.8,2,2.9C115.2,159.8,114,159.2,113.1,158.4"/>
	<path class="st0" d="M124.8,161.4c0.4-1.1,0.6-2.2,1.6-2.9c0.5,0.2,1.1,0.5,1.6,0.7c-0.4,0.7-0.7,1.4-1.1,2.1
		c0.8,0.7,1.5,1.5,1.9,2.5C127.3,163.4,126.1,162.3,124.8,161.4"/>
	<path class="st0" d="M144.6,160c1.3,0.1,2.6,0.6,3.9,1.1c-0.2,1.8,0.7,3.4,1.6,4.9c-1.3-0.2-2.6-0.4-3.8-1c0.6-0.5,1.1-1,1.6-1.5
		C146.8,162.2,145.5,161.3,144.6,160"/>
	<path class="st0" d="M138.7,162.4c0.9-0.7,1.8-1.3,2.7-1.9c-0.4,0.5-0.7,1.1-1.1,1.6c1.1,1.3,3.1,1.7,3.6,3.4
		c-0.7,0.4-1.6,0.9-2.3,0.3c-0.7-0.8-0.9-1.9-1.6-2.7C139.7,162.7,139.2,162.6,138.7,162.4"/>
	<path class="st0" d="M120.2,166.7c1.3-1,2.9-0.5,4.4-0.3c-0.4,1.3-1,2.5-1.6,3.7c-0.6-0.1-1.2-0.3-1.8-0.4
		C121.3,168.6,121.2,167.4,120.2,166.7"/>
	<path class="st0" d="M132,167.4c-0.1,0.6-0.1,1.2-0.3,1.7c-0.3,0.2-0.6,0.3-0.9,0.4C131.2,168.8,131.7,168.1,132,167.4"/>
	<path class="st0" d="M133.9,170.1c-0.4-0.7,0.3-1.3,0.5-1.9c1.3,0.7,3.1,1.1,3.9,2.4c-0.1,0.9-0.7,1.7-1.1,2.5
		c0.2,0.2,0.5,0.4,0.7,0.5c-1,0.7-1.6,2.4-3.1,2c0.2-1.5,1.1-2.9,1.7-4.3C135.6,171,134.5,170.9,133.9,170.1"/>
	<path class="st0" d="M114.3,174.4c0.9-2,1.7-4.1,2.8-5.9c0.3,0.9,0.8,1.7,1.5,2.4c0.3-0.4,0.6-0.9,1-1.2c0.4-0.3,0.9,0,1.4,0.1
		c-0.9,1.2-1.9,2.7-3.6,2.6c-0.9,1.2-0.9,2.8-1.2,4.3c-0.3,1.1-1.7,1.2-2.6,1.3c0.3-0.9,0.7-1.8,1.1-2.6c-0.9-0.5-1.9-1-2.9-0.7
		c-0.9,0.4-1.6,1-2.3,1.5c0-1.2,0.6-2.3,1.2-3.4C111.8,173.3,113.1,173.9,114.3,174.4"/>
	<path class="st0" d="M119.1,173.7c0.8-0.5,1.7-0.7,2.6-1c-0.6,1.4-1.3,3.4-3.2,3.2C118.6,175.1,118.5,174.2,119.1,173.7"/>
	<path class="st0" d="M105.7,178.6c0.9-0.4,1.7-0.7,2.6-1c0.2,0.7,0.5,1.3,0.7,2C107.8,180,106.7,179.3,105.7,178.6L105.7,178.6z"/>
	<path class="st1" d="M98.6,1c15.6-0.2,31.2,3.3,45.2,10.2c16.4,8.1,30.4,20.8,40.1,36.3c5.6,9,9.8,18.9,12.3,29.2
		c5.2,21.5,3,44.6-6.4,64.7c-8,17.5-21.3,32.4-37.6,42.6c-15.7,9.8-34.2,15-52.8,14.9c0-4.1,0-8.2,0-12.4c11.6,0,23.3-2.2,34-6.9
		c7.9-3.4,15.2-8.1,21.8-13.7c-6.6-10.3-12.5-21.1-18.1-32.1c2.2,0,4.4,0,6.6,0c4.9,9.1,10.4,17.8,15.9,26.5
		c6.8-6.8,12.7-14.5,17.1-23.1c5.7-11.1,8.5-23.5,8.4-36c-11.9-0.1-23.7,0-35.6,0c-0.3-0.6-0.5-1.1-0.8-1.6c0.5-0.7,0.9-1.4,1.4-2.1
		c11.7,0,23.4,0,35,0c0-10.9-2-21.9-6.4-31.8c-4.4-10.2-11.1-19.3-18.9-27.1c-0.3,0.2-0.5,0.4-0.7,0.7c-5.3,7.7-10.8,15.3-15.3,23.5
		c-0.3,0.4-0.5,1-1.1,0.9c-2.3,0.1-4.6,0-6.9-0.1c1.9-3.9,4.1-7.6,6.3-11.3c4.2-7,8.6-13.8,13.1-20.6c-14.6-12.4-33.3-20.1-52.4-21
		c-1.4-0.1-2.9,0-4.3-0.2C98.6,7.4,98.6,4.2,98.6,1"/>
	<path class="st1" d="M62.3,32.2c11-5.9,23.5-9.2,36-9.1c0,0-0.1,0.1-0.1,0.2c-0.4,0.7-1,1.3-1.4,2C90,36,83,46.7,76.1,57.4
		c6.8-0.1,13.6,0,20.4,0c3.7,3.7,7.3,7.4,11,11c1.3,1.2,2.5,2.6,3.8,3.7c2.2-2.4,4.6-4.6,6.9-6.9c1.8-1.7,3.4-3.5,5.2-5.1
		c1,1.3,2,2.5,3,3.8c-5.1,4.9-10.2,9.8-15.4,14.6c-4.3-4.4-8.7-8.7-13-13.1c-0.6-0.6-1.2-1.4-1.9-1.8c-0.6-0.2-1.4-0.1-2-0.1
		c-4.3,0-8.6,0-12.9,0c6.2,8.6,12.6,17,18.9,25.6c0.3,0.4,0.3,0.9,0.3,1.4c0,13.6,0,27.2,0,40.8c3.3-3,6.5-6.1,9.8-9.2
		c0.1-12.2-0.1-24.5,0.1-36.7c8.3,0.1,16.7,0.1,25,0c1.5,3.1,2.9,6.3,4.3,9.4c0.4,0.9,1,1.9,0.9,2.9c0,3.9,0,7.9,0,11.8
		c-3.4,0-6.9,0-10.3,0c-0.1,3.4-0.1,6.7,0,10.1c-0.1,3.8,0,7.5,0,11.3c-1.2,0.1-2.4,0.2-3.6,0.2c0-8.4,0.1-16.8,0-25.2
		c-0.1-5.2,0-10.3,0-15.5c-4.3,0-8.6,0-12.9,0c0,11.8,0,23.5,0,35.3c-0.1,0.7,0.2,1.6-0.4,2.1c-4.8,4.8-9.7,9.4-14.6,14.1
		c-6.7-0.1-13.4,0-20.1,0c6.6,11,13.2,22,19.8,33c-18.6-0.1-37-7.3-50.8-19.8c-3.9-3.5-7.4-7.4-10.6-11.6c-2.2-3.1-4.4-6.3-6-9.8
		c19.8,0,39.7,0.1,59.5,0c1.9-7.6,3.8-15.2,5.6-22.7c-1-1.3-2.3-2.3-3-3.8c-0.2-1.1-0.1-2.1-0.1-3.2c-0.1-5.9,0-11.8-0.1-17.6
		c0-0.4-0.2-0.7-0.4-1C87.2,78.3,81.6,71,76.2,63.7c-3.4,0.1-6.9,0.1-10.4,0.1c-2.1,7.4-3.8,14.8-5.8,22.2c4.4,0,8.9,0,13.3,0
		c2.8,3.7,5.5,7.6,8.3,11.4c0.1,4.3,0,8.6,0.1,12.8c-9.1,0-18.2,0-27.3,0c-1.9-2.1-4.1-4-6-6.1c-1,1.1-1.7,2.5-2.6,3.8
		c-5.2,8.2-10.4,16.4-15.6,24.5c-0.2-0.3-0.5-0.6-0.6-0.9c-4.1-8.9-6.5-18.6-7-28.4C22,91.5,24,80,28.5,69.5
		C35.1,53.7,47.3,40.3,62.3,32.2"/>
	<path class="st0" d="M32.5,63.7c0.6,1.4,1.4,2.7,2.1,4.1c2.3,4.3,4.6,8.5,6.9,12.8c0.3,0.6,0.6,1.3,1.2,1.5c2,1,4,1.9,6,2.8
		c0.3,3.4-0.1,6.9,0.1,10.3c2.4-2.8,4.3-6.1,6.5-9c1.1-1.4,1.4-3.2,1.8-4.9c1.5-5.9,3-11.7,4.4-17.6C51.9,63.7,42.2,63.9,32.5,63.7
		L32.5,63.7z"/>
	<path class="st2" d="M81.3,8.8c1.9-1.9,5.4-2,7.4-0.2c0.8,0.6,1.2,1.6,1.4,2.6c0.5,2.7,1,5.4,1.4,8.1c-2.2,0.3-4.4,0.8-6.6,1.1
		c-0.1-0.9-0.3-1.8-0.4-2.7c1.2-0.2,2.4-0.4,3.7-0.6c-0.4-2-0.5-4-1.1-5.9c-1.1-1.7-3.8-1.4-4.8,0.1c-0.5,0.6-0.3,1.4-0.2,2.1
		c0.4,2.4,0.9,4.9,1.3,7.3c-1,0.2-2,0.4-2.9,0.4c-0.4-2.7-1-5.4-1.4-8.1c-0.1-0.6,0.1-1.3,0.2-1.9c-0.5,0.1-1.1,0.2-1.6,0.2
		c-0.1-0.9-0.3-1.8-0.4-2.7C78.5,8.5,80.1,7.8,81.3,8.8"/>
	<path class="st2" d="M70,10.9c0.6-0.2,1.2-0.5,1.9-0.4c0.5,0.5,0.7,1.2,0.9,1.8c0.9,2.7,2,5.4,2.9,8.2c0.4,0.9,0,2-0.9,2.4
		c-2.4,1-4.9,1.8-7.3,2.7c-0.4-0.9-0.7-1.8-1.1-2.6c1.8-0.7,3.6-1.2,5.4-2c0.6-0.3,0.4-1.1,0.2-1.7c-0.6-1.8-1.3-3.7-2.1-5.4
		c-2,0.9-4,1.6-6.1,2.2c-0.3-0.9-0.6-1.7-1-2.6C65.4,12.6,67.7,11.8,70,10.9"/>
	<path class="st2" d="M98.7,11.1c2.3-0.1,4.7,0.3,7,0.1c0.1,0.1,0.3,0.3,0.4,0.4c0.5-0.4,1.4-0.6,1.8,0c0.3,0.2-0.2,0.6-0.4,0.7
		c-0.5,0.1-1,0-1.4,0c-0.1-0.3-0.3-0.5-0.4-0.8c-0.2,0.4-0.4,0.8-0.6,1.1c0.9,0.7,2.1,0.8,3.3,1.1c0.1-0.7,0.3-1.4,0.4-2.1
		c2.2,0.4,4.4,0.6,6.6,1.1c0.6,0.9,1.3,1.7,2.4,2.1c0.1-0.5,0.2-1.1,0.4-1.6c1.8,0.4,3.6,0.6,5.1,1.6c1.9,0.2,3.6,0.7,5.4,1.4
		c0.2,1.3,0.3,2.6,0.5,4c0.5-1.1,0.8-2.2,1-3.4c0.9,0.4,1.9,0.8,2.9,1c-1,0.7-0.6,2-1.1,3c-0.3,0.7-0.7,1.4-1.1,2.1
		c-0.6-0.1-1.3-0.8-1.9-0.3c-0.4,0.4-0.6,0.9-0.9,1.3c-0.9-0.5-2.1-0.7-2.7-1.6c-0.3-1.1,0.1-2.2,0.1-3.3c-0.9,0-1.8,0-2.5-0.5
		c-1.6-0.9-2.7-2.4-4.1-3.6c-0.6,1.3-1.1,2.5-1.8,3.7c1.3-0.4,2.7-0.7,3.9,0.2c2.4,2,3.4,5.1,5.9,7c0.9,0.8,2.1,1.2,3.3,1.4
		c-0.1,0.5-0.3,1-0.4,1.5c0.4,0,0.9,0.2,1.3,0c0.8-0.4,1-1.4,1.7-1.9c0-0.3,0-0.6-0.1-0.9c-0.6-0.1-1-0.6-1.4-1.1
		c0.7-1.3,1.3-3,3-3.4c-0.4-1.1-0.8-2.3-1.2-3.4c2.8,1.1,5.5,2.3,7.9,4.1c-1-0.3-1.9-0.6-2.9-0.8c0.5,0.6,1,1.1,1.6,1.5
		c-1,0.9-1.9,1.9-2.8,2.9c1-0.4,2.1-0.6,3.2-0.3c0.1-0.3,0.2-0.6,0.4-0.9c2,0.4,4.4-0.6,6.1,0.8c2.5,1.6,4.8,3.4,7.1,5.3
		c-0.4,0.9-0.4,1.9-0.4,2.9c-1.4,2.3-2.9,4.5-4.3,6.8c-0.4,0.8-1.4,1-2.2,1.3c0.3,0.3,0.6,0.6,0.9,0.9c-1.6,2.4-3.1,4.9-4.6,7.4
		c-2.1-0.6-4-1.7-6.1-2.5c1.5,1.6,3.3,2.9,5.1,4.2c-2.1,3.3-4,6.6-5.8,10.1c-0.3-0.3-0.5-0.5-0.8-0.8c0.2,0.7,0.6,1.8-0.1,2.3
		c-2.7,0.2-5.4,0.1-8.1,0c-0.6-1.3-1.3-2.6-1.6-4c0.1-0.2,0.3-0.6,0.4-0.9c-0.9-0.9-1.6-1.9-2.1-3.1c0.2-0.4,0.4-0.9,0.6-1.3
		c-0.8,0.3-1.6,0.6-2.4,0.8c1.3,1.3,1.5,3.3,3,4.3c-0.1,0.4-0.3,0.7-0.4,1c-0.9-0.6-1.4-1.5-2-2.4c-1.5-2.1-3-4.3-4.4-6.5
		c1.8-0.9,3.6-1.8,5.6-2.4c0.3-0.5,0.5-1.3,1.1-1.4c1.2,0.1,2.6,1,3.6-0.2c-1.4-0.9-3.2-1.1-4.4-2.3c-0.4,1.1-0.8,2.4-1.6,3.3
		c-1.6,0.9-3.5,1-5.1,1.8c-0.6-0.7-1.1-1.5-1.6-2.3c0.9,0.5,1.9,1.1,3.1,0.8c0-0.5,0.2-1.1-0.2-1.5c-0.8-0.8-2.1-0.9-2.7-1.8
		c0-0.4,0-0.7,0-1c-1.4-0.4-2.1-1.7-2.9-2.8c-0.5-0.8-1.5-0.9-2.4-1.1c-0.9-1.2-1.7-2.6-2.7-3.8c0.5-0.9,1-1.8,1.5-2.7
		c1.2,0.6,2.4,1.2,3.6,1.8c0.3-0.6,0.4-1.4,0.5-2.1c-1.3-0.2-2.5-0.7-3.8-0.5c-0.7,0.4-0.8,1.3-1.1,1.9c-1.1-0.5-2.4-0.8-3-1.9
		c-1.4-2-2.7-4-4.1-6c-0.4-0.5-0.6-1.1-0.7-1.6c-1.1-0.5-1.5-1.8-2.3-2.6c0,0,0.1-0.1,0.1-0.2c0.6-2.4,0.2-4.8,0.3-7.2
		c0.6,0.2,1.1,0.4,1.6,0.6c-0.7,1.4-0.9,3-1.1,4.5c0.8,0.9,2.1,1.4,3.3,1.2c-0.6-0.8-1.6-1.1-2.5-1.4c0.9-2,1.8-4,2.8-6
		c-1.6,0.2-3-0.8-4.1-1.9C98.7,12.4,98.7,11.8,98.7,11.1"/>
	<path class="st2" d="M108.4,15.8c0.8,0.9,1.9,1.3,3,1.6c0.1-0.7,0.2-1.4,0.3-2.1C110.6,15.7,109.5,15.9,108.4,15.8"/>
	<path class="st2" d="M105.8,18.2c0.4,0.8,1.1,1.5,1.2,2.4c0,1.3-0.8,2.4-1.3,3.6c0.6,0.4,1.2,0.8,1.8,1.3c-0.5,1-1.1,1.9-1.4,2.9
		c-0.3,1,0.6,2,1.6,2.1c1.6,0.2,3.1-0.8,3.7-2.2c-1.3,0.4-2.6,1.5-3.9,0.8c0.7-0.4,1.4-0.8,1.9-1.5c1-1.3,1.5-3.2,3.2-3.9
		c1,0,1.7,0.7,2.5,1.2c-0.2-1.3-1.1-2.4-1.8-3.5c-0.2-0.4-0.6-0.7-1.1-0.5c-1.2,0.4-1.9,1.5-2.5,2.5c-0.4,0.8-1.4,0.5-2.1,0.6
		c-0.1-1.5-0.4-3-0.6-4.4C107,18.9,106.3,18.6,105.8,18.2"/>
	<path class="st2" d="M117.3,20.6c-0.4,0.8-0.8,1.6-1.2,2.4c0.8,0.4,1.6,0.8,2.4,1.2c0.2-0.4,0.4-0.8,0.6-1.1c0.5,0.1,1,0.2,1.5,0.3
		c-0.3-0.9-0.5-2.1-1.5-2.5C118.6,20.8,117.9,20.8,117.3,20.6"/>
	<path class="st2" d="M119.1,27.3c-0.8-0.1-1.6-0.1-2.3-0.1c0.3,0.6,0.4,1.6,1.3,1.6c1.3,0.2,2.3-0.7,2.8-1.8
		c-0.4-0.2-0.9-0.4-1.3-0.6C119.5,26.6,119.3,26.9,119.1,27.3"/>
	<path class="st2" d="M132.9,27.7c0.8,0.8,1.5,1.8,1.9,2.9c-0.4,0.5-0.8,1-1.2,1.4c0.7,0.3,1.5,0.7,2.2,1c0.9-1.2,1.1-2.9,0.6-4.3
		c-0.4-1.3-1.9-1.6-2.9-2.1C133.3,26.9,133.1,27.3,132.9,27.7"/>
	<path class="st2" d="M121.3,30.8c1.1-0.4,2.2-0.9,3.3-1.1c1.5,0.2,3,1.1,3.4,2.6c0.3-0.6,0.8-1.4,0.1-1.9c-1.3-1-3.2-1-4.1-2.6
		C123.1,28.8,122.1,29.8,121.3,30.8"/>
	<path class="st2" d="M139.5,33.2c-0.4-0.1-0.9-0.2-1.3-0.3c-0.2,0.4-0.4,0.8-0.6,1.2c1,0.6,2.1,1.2,3.4,1.2c1.4,0,2.6,0.6,3.9,1.2
		c0.1-1,0.2-2,0.5-3c0.3-0.9,1.4-1.1,2.2-0.9c1.5,0.4,2.2,1.8,3.5,2.5c0.6-0.1,0.8-1.1,0.3-1.5c-1.6-2-4.5-2-6.9-2.2
		c-0.6,0.8-0.9,1.7-1.1,2.7c-0.6-0.1-1.3-0.3-1.9-0.4c0.4-0.9,0.9-1.8,1.3-2.7c-0.5-0.6-1.1-1.1-1.7-1.4
		C140.6,30.8,140,32,139.5,33.2"/>
	<path class="st2" d="M115.8,32.6c0.1,0.3,0.2,0.7,0.3,1c-0.6,1.5-1.4,3.1-1.2,4.8c0.6,0.4,1.5,0.6,1.6,1.4c0,1.2-0.6,2.2-1.1,3.3
		c0.4,0.2,0.8,0.4,1.2,0.6c0.3-1.1,0.6-2.2,0.9-3.3c0.6,0.2,1.3,0.3,2,0.4c-1.3-1.1-2.8-2.1-4-3.3c0.3-0.4,0.6-1,1.3-1
		c1.1,0,2.2,0.6,3.3,0c0-0.8,0.1-1.6-0.1-2.4C118.9,33.2,117.3,32.6,115.8,32.6"/>
	<path class="st2" d="M120.5,33.9c1.5,0.9,3.5,1.7,5,0.5c-1.1-0.6-2.3-1.2-3.5-1.6C121.3,32.4,120.7,33.2,120.5,33.9"/>
	<path class="st2" d="M132.2,32.8c-0.3,0.8-1,1.7-0.4,2.5c0.7,1,2,1.3,2.9,2.1c-0.3,0.4-0.4,0.9-0.9,1c-0.6,0.2-1.3-0.1-1.9-0.2
		c-0.3,0.4-0.4,1.1-1,1.3c-0.6,0.1-1.2-0.2-1.8-0.3c-0.1,0.4-0.3,0.8-0.4,1.2c0.4,0.2,0.8,0.4,1.2,0.6c0.2-0.4,0.4-0.8,0.5-1.2
		c1.4,0.8,3,0.9,4.6,1.2c-0.2,0.4-0.3,0.8-0.5,1.2c0.9,0.4,1.9,0.8,2.7,1.6c1.1,1.1,1.9,2.5,3,3.5c0.4-0.6,1-1.3,1.8-1.5
		c1.1-0.5,2.6-0.6,3.2-1.9c-0.2-0.7-1-1-1.6-0.9c-1.1,0.5-1.6,1.8-2.7,2.2c-0.5,0.1-1-0.3-1.4-0.4c0.4-0.9,0.8-1.8,1.2-2.7
		c-0.4-0.1-0.9-0.2-1.3-0.4c-0.3,0.4-0.4,1-0.9,1.3c-0.7,0.1-1.5-0.1-1.9-0.7c-0.4-0.6,0.1-1.2,0.3-1.8c-0.5-0.3-1-0.5-1.4-1
		c-0.3-0.5,0.1-1.1,0.2-1.6c0.6,0.1,1.1,0.3,1.6,0.5c2.1,1,4.5,1.4,6.7,2.3c-0.3-0.9-0.6-1.8-0.9-2.7c-1.9-0.1-3.8,0.1-5.5-0.9
		c-0.2,0.3-0.4,0.6-0.5,0.9c-1.2-0.1-2.2-0.9-3.3-1.5c0-0.9,0.2-1.9-0.3-2.6C133.3,33.4,132.7,33.1,132.2,32.8"/>
	<path class="st2" d="M124.6,38.1c-1.1,1.3-1.3,3.1-1.6,4.7c-0.2,0.7,0.2,1.3,0.5,1.9c0.6,0,1.1,0.3,1.6,0.6c0.2-0.5,0.4-1,0.7-1.5
		c-0.7-0.1-1.4-0.3-2.1-0.5c1.1-2.7,3.9-4.1,5.3-6.6c0.5-0.8,0.5-1.8,0.6-2.7C127.8,35.3,126,36.4,124.6,38.1"/>
	<path class="st2" d="M149,35.1c-0.6,1-1.1,2-1.5,3.1c0.5,0.4,1.1,0.8,1.6,1.2c0.3-1,0.9-2,0.8-3C149.9,35.8,149.4,35.5,149,35.1"/>
	<path class="st2" d="M129.2,42.2c-0.1,0.5-0.4,1.1-0.3,1.6c0.3,0.6,0.9,0.8,1.5,1.1c0.4-0.8,0.7-1.6,1.1-2.5
		C130.7,42.7,129.9,42.4,129.2,42.2"/>
	<path class="st2" d="M132.9,45.7c0.6,1.4,0,2.9,0.2,4.3c0.7-1.2,1.3-2.6,1.8-3.9C134.3,45.9,133.6,45.8,132.9,45.7"/>
	<path class="st2" d="M127.5,51.8c-1.5,0.5-3.1,0.1-4.6-0.1c1.2,1,2.6,1.5,4.2,1.6c0.3-1,0.7-2,0.9-3
		C127.8,50.9,127.7,51.4,127.5,51.8"/>
	<path class="st2" d="M135,51.1c0,0.1-0.1,0.4-0.1,0.5c0.6,1.1,1.4,2.1,2.1,3.2c-0.4,0.6-0.8,1.1-1.3,1.6c0.8,0.4,1.6,0.8,2.4,1.1
		c0.8-1.6,0.9-3.6,0.1-5.2C137.2,51.8,136.2,50.9,135,51.1"/>
	<path class="st2" d="M126.8,57.2c0.3-0.2,0.5-0.4,0.8-0.6c0.9,0.8,1.9,1.6,2.8,2.5c-0.2,0.9-0.5,1.8-0.9,2.6
		c0.4,0.1,0.8,0.3,1.2,0.5c0.1-0.3,0.2-0.6,0.4-0.9c-0.5-0.6-0.6-1.4-0.6-2.2c0.5,0,1,0,1.5,0c-1-1.4-1.2-3.4-2.8-4.4
		C128.1,55.3,127.4,56.3,126.8,57.2"/>
	<path class="st2" d="M54.9,17.5c0.3-0.3,0.8-0.1,1,0.2c1.8,2.6,3,5.5,4.9,8c0.4-0.2,0.7-0.4,1-0.6c0.5,0.8,0.9,1.6,1.4,2.4
		c-3,1.7-6,3.5-9,5.1c-0.5-0.8-0.9-1.6-1.4-2.4c1.7-1.1,3.5-2,5.3-3.1c-1.2-2-2.4-4-3.5-6.1c-1.9,0.7-3.6,1.9-5.4,2.9
		c-0.5-0.8-1-1.6-1.4-2.5C50.3,20.3,52.5,18.8,54.9,17.5"/>
	<path class="st2" d="M40.1,27.2c1.4-0.9,2.4-2.2,4-2.6c1.4,1.4,2.4,3.1,3.6,4.6c-0.8,0.6-1.6,1.2-2.4,1.8c-0.6-0.9-1.3-1.8-2-2.6
		c-0.5,0.4-1.1,0.8-1.6,1.2C41.2,28.8,40.6,28,40.1,27.2"/>
	<path class="st2" d="M29.5,37.8c0.9-0.9,1.6-1.9,2.4-3c1.8,1.4,3.5,2.8,5.2,4.2c-0.7,0.8-1.3,1.6-1.9,2.4c2.2,0.3,4.4,0.5,6.7,0.7
		c-0.9,1.4-2,2.6-3,3.9c-2.9-0.2-5.6-0.7-8.5-0.8c1.9,1.5,3.9,2.9,5.6,4.6c-1,1-1.9,2.1-2.7,3.2c-2.1-1.8-4.4-3.5-6.5-5.3
		c1.9-2.2,3.6-4.4,5.4-6.7c0.5,0.1,0.9,0.1,1.4,0.2C32.3,40.1,30.8,39.1,29.5,37.8"/>
	<path class="st2" d="M158.6,41c0.7-0.2,1.5-0.4,2.2-0.6c1.5,1.7,3.3,3.3,4.5,5.3c-1.8-0.5-3.4-1.7-5.2-2.1c0.5,0.6,1,1.1,1.6,1.6
		c-0.9,1-1.8,1.9-2.6,2.8c0.9-0.3,2-0.5,2.9-0.1c0.2-0.3,0.3-0.6,0.5-0.9c1.5,0.1,2.9,0.1,4.4,0.1c-0.1,0.4-0.2,0.9-0.3,1.3
		c-0.8,0.1-1.6,0.1-2.5,0.1c-0.1,0.4-0.3,0.8-0.4,1.1c0.4,0.1,0.7,0.3,1,0.5c0.5-0.6,1.3-1.4,2.1-1.4c1.7,0.4,2.4,2.2,3.2,3.5
		c1.5,1.6,2.6,3.6,3.7,5.5c0,0.8-0.1,1.6-0.1,2.4c0.3-0.1,0.6-0.3,0.8-0.5c1.8,1.8,2.5,4.3,3.6,6.6c-0.9-0.4-2-0.6-3-0.6
		c0.2,0.9,1,1.3,1.7,1.8c-0.2,0.4-0.4,0.7-0.5,1.1c0.9-0.3,1.6-0.6,2.4-1c1,2.8,2.2,5.6,2.9,8.5c0.3,1.4,0.8,2.7,1.2,4.1
		c-0.9-0.4-2-0.2-2.8-0.9c-0.8-0.6-1.6-1.2-2.4-1.7c0.3,0.3,0.6,0.6,0.9,0.9c-0.2,0.5-0.4,1.1-0.6,1.6c0.8,0.2,1.6,0.5,2.4,0.7
		c0.6,1.1,1.7,1.8,2.9,2.1c0.4,2.3,0.7,4.7,1,7c-0.8,0.1-1.7,0.1-2.4-0.4h-0.1c0.1,1.1-0.3,2.2-0.6,3.3c-0.4,0-0.9-0.1-1.3-0.1
		c-0.4,1.2-0.7,2.5-1,3.7c0.2-0.5,0.4-1,0.6-1.5c0.5-0.4,1,0.1,1.4,0.3c0.3-1.1,0.6-2.1,0.9-3.1c0.5,0.1,0.9,0.3,1.4,0.4
		c0.4-0.4,0.8-0.9,1.2-1.3c0.1,1.4,0.1,2.9,0.2,4.3c-0.2,0-0.6-0.1-0.7-0.1c-0.4,0.5-0.8,1-1.3,1.5c0.2,0.3,0.3,0.5,0.5,0.8
		c-0.2,0-0.7,0.1-0.9,0.1c0-0.2,0.1-0.7,0.1-0.9c-0.5-0.4-1-0.7-1.3-1.2c0,0.6-0.1,1.3-0.3,1.9c-4.3,0-8.6,0-12.9,0
		c-0.8,0-1.5,0.1-2.3,0.2c0.1-0.4,0.3-0.9,0.5-1.3c-1.5-0.4-2.9-0.9-4.4-1.3c-0.2,0.4-0.4,0.8-0.7,1.2c1.1,0.3,2.4,0.3,3.4,1.1
		c-2.6,0.1-5.1,0-7.6,0.1c-0.7,0.1-1.2-0.5-1.7-0.9c0.2-0.5,0.4-1,0.5-1.4c-0.4-0.2-0.8-0.3-1.2-0.5c-0.5,0.9-0.9,1.9-1.1,2.9
		c-0.8-0.1-1.7-0.1-2.5-0.2c0.6-1.4,1.4-2.7,2.6-3.7c0.6-1.7,1.5-3.3,2.7-4.7c0.6,0.7,0.5,1.6,0,2.4c0.4,0.5,0.9,0.9,1.4,1.3
		c-0.3,0.2-0.6,0.4-0.8,0.7c0.2-0.1,0.6-0.2,0.7-0.2c-0.1,0.4-0.2,0.9-0.2,1.4c0.2,0,0.7,0.1,0.9,0.1c0-0.1-0.1-0.4-0.1-0.6
		l-0.5,0.1c0-0.6,0-1.2,0.1-1.8c0.5-0.1,1.6,0,1.7-0.6c-0.7-0.4-1.5-0.7-2.3-1.1c0.6-1.3,1.2-2.6,1.7-3.9c-0.6,0.4-1,0.9-1.4,1.4
		c-0.2,0.4-0.7,0-1,0c1.1-1.7,2-3.5,3.3-5c0.6-1,1-2.2,1.8-3.1c1.2,0.7,2.2,1.7,3.1,2.7c-0.5-1.5-1.3-2.9-2.4-3.9
		c0.4-0.6,0.7-1.2,1.1-1.8c1.2,0.5,2.5,0.6,3.6,1.4c-0.9-0.9-1.9-1.8-2.7-2.8c0.5-0.8,1-1.6,1.5-2.3c1.2,0.7,2.5,1.1,3.9,0.8
		c-0.7-1.2-2.1-1.3-3.2-1.9c1.5-2.7,3.2-5.3,4.8-7.9c-3.8,0-7.6-0.1-11.3-0.1c0.5-1.1,0.9-2.5,2.2-3c0.8-0.3,1.6,0.2,2.3,0.6
		c1.7,1,3.4,2,5.4,2.1c-0.6-1.6-0.9-3.5,0-5.1c0.6,0.1,1.1,0.1,1.6,0.2c0-1,0.3-2.2-0.6-2.9c-0.7-0.5-1.7-0.4-2.6-0.3
		c-0.6,1.4-0.7,3.1-2,4.2c-0.6,0.6-1.5,0.6-2.3,0.3c-2.6-1.2-4.1-4.6-2.4-7.1c-1.1-0.7-2.5-0.8-3.7-0.6c-0.5-0.8-0.8-1.6-1.1-2.4
		c-0.2,0.5-0.7,1-0.5,1.6c0.6,1.2,2.5,1.3,2.8,2.7c0.4,2.8-1.4,5.3-3.1,7.3c0.5,0.4,1.1,0.5,1.7,0.6c0.4-1.1,0.8-2.2,1.2-3.4
		c0.6,0.2,1.1,0.4,1.6,0.6c-0.3,1.6-0.7,3.4-1.9,4.7c-1.4,0-2.8,0-4.1,0c-0.1-1.1-0.9-1.9-1.6-2.6c0-1.1,0.9-2.1,0.9-3.2
		c0-0.9-1-1-1.6-1.3c-0.3,0.9-0.4,1.8,0.1,2.6c-0.1,0.4-0.1,0.8-0.2,1.1c-1.7-0.9-3.7-0.9-5.6-0.6c0.6-0.9,1.1-2,1.9-2.8
		c0.8-0.4,1.7-0.2,2.5-0.5c0.8-0.2,0.7-1.2,1-1.9c-0.8,0.1-1.5,0.3-2.3,0.4c0.7-1.1,1.4-2.1,2-3.3l0.1,0.1c0.2,0.3,0.4,0.6,0.7,0.8
		c-0.6,0.7-0.4,1.5,0.1,2.1c0.6-0.6,1.1-1.3,1.5-2c-0.4-0.2-0.8-0.4-1.2-0.6c0-0.1-0.1-0.4-0.1-0.5c-0.2-0.1-0.5-0.2-0.7-0.3
		c0-0.1-0.1-0.2-0.1-0.3c0.9-1.3,1.8-2.6,2.7-4c0.8,0.1,1.8,0.4,2.5-0.1c0.6-0.4,0.2-1.2,0.2-1.9c-0.6,0.2-1.3,0.4-1.9,0.6
		c0.8-1.1,1.6-2.2,2.3-3.4c0.1,1.5,1.5,2.1,2.6,2.9c-0.6-1.1-1-2.4-2.3-2.8C158,42.1,158.3,41.6,158.6,41"/>
	<path class="st2" d="M166.1,52c0.7,0.3,1.5,0.5,2.3,0.4c-0.3-0.7-0.8-1.4-1.5-1.9C166.6,51,166.3,51.5,166.1,52"/>
	<path class="st2" d="M163.5,53.3c-0.8,1.3-0.6,2.8-0.3,4.2c0-2.2,1.4-4,3-5.4c-0.1-0.1-0.3-0.2-0.4-0.3
		C164.8,52.1,163.9,52.5,163.5,53.3"/>
	<path class="st2" d="M171.7,63.5c0.4,0.2,0.7,0.4,1.1,0.7c0.2-0.4,0.4-0.9,0.6-1.3c-0.4-0.2-0.9-0.4-1.3-0.6
		C172,62.6,171.8,63.1,171.7,63.5"/>
	<path class="st2" d="M169.4,69.1c0.4-0.4,0.9-0.9,1.4-1.3c1-0.1,2,0.2,3,0.1c0.5-0.3,0.8-0.9,1.1-1.3c-0.8-0.5-1.7-0.9-2.6-1.3
		c0.1-0.3,0.3-0.6,0.4-1C171.3,65.6,169.4,66.9,169.4,69.1"/>
	<path class="st2" d="M170,70c-0.6,1.1,0,3,1.4,3.3c1.3,0.4,2.6,0.4,3.9,0.6c0,0.6,0,1.1,0,1.7c-0.9,0.8-1.7,1.7-2.4,2.7
		c0.8,0.4,1.6,0.8,2.5,1.2c-0.5-1.1-0.7-2.6,0.5-3.4c-0.8-1.2,0.4-2.5,0.3-3.8c-1.4,0-2.8,0.3-4.2,0.4c-0.5-0.2-0.8-0.7-1.2-1
		c0.4-0.7,0.9-1.4,1.4-2.1C171.4,69.6,170.4,69.1,170,70"/>
	<path class="st2" d="M167,79.3c1.2,1,1.4,2.9,2.6,3.9c0.5,0.1,1.1,0,1.6,0c-1-1.3-2.8-2.8-1.9-4.6C168.5,78.8,167.8,79.1,167,79.3"
		/>
	<path class="st2" d="M171.7,82.1c0.7,0.8,1.5,1.8,2.6,2c0.7,0.1,1.3-0.6,1.8-1C175.1,81.8,173.2,81.9,171.7,82.1"/>
	<path class="st2" d="M159.6,84c0.3,0.9,0.9,1.5,1.6,1.9c-0.5,0.9-1.4,1.9-0.9,2.9c1.5,0.4,3.1,0.8,4.6,0.7c0.6-0.1,1.3-0.1,1.5-0.8
		c-0.1-1.5-0.4-3-0.6-4.5c-0.4,0.4-0.8,0.9-1.3,1.2C162.8,86,161.2,84.8,159.6,84"/>
	<path class="st2" d="M177.3,84.9c-0.3,1.1-0.5,2.2-0.8,3.3c-0.5-0.1-1-0.3-1.5-0.5c-0.1,1.8,1.4,3.1,2.6,4.2
		c0.8-1.2,1.9-2.3,3.1-3.1c0.3,0.1,0.5,0.1,0.8,0.2C179.7,88.1,178.6,86.3,177.3,84.9"/>
	<path class="st2" d="M170.3,85.4c0.4,1.1,0.8,2.2,1.2,3.4c0.4-1,0.7-2.1,0.8-3.2C171.7,85.1,171,85.2,170.3,85.4"/>
	<path class="st2" d="M169.6,91.1c0.5,1.3,0,2.6-0.1,3.9c0.9-0.3,1.4-1,1.9-1.6c1.1,0.6,2.3,1.1,3.5,1.7c-0.1-1.4-0.3-2.8-0.5-4.1
		C172.8,90.2,171.2,91.1,169.6,91.1"/>
	<path class="st2" d="M27.3,40.6c1.4,0.1,2.8,0.3,4.1,0.6c-1.7,2.1-3.4,4.2-5.1,6.3c-0.9-0.8-1.8-1.5-2.7-2.3
		C24.8,43.6,26.1,42.1,27.3,40.6"/>
	<path class="st2" d="M112.9,44c1.3,0.5,2,1.7,2.8,2.7c-0.1,0.4-0.1,0.8-0.2,1.1C114.5,46.6,113.6,45.4,112.9,44"/>
	<path class="st2" d="M15.2,59.4c1.4-2.7,2.9-5.3,4.2-8c1.1,0.5,2.2,1.1,3.3,1.7c-2.1,3.8-4,7.7-6.2,11.5c-1.8-1.1-3.7-1.9-5.5-3.1
		c0.6-1.1,1.2-2.2,1.9-3.3C13.6,58.6,14.4,59,15.2,59.4"/>
	<path class="st2" d="M21.3,56.8c0.6-1.2,1.3-2.3,1.9-3.5c2.4,1.3,4.8,2.6,7.3,3.9c-1.7,3.5-3.6,7-5.5,10.4
		c-1.1-0.7-2.3-1.3-3.5-1.9c1.2-2.2,2.4-4.5,3.7-6.7C23.8,58.2,22.5,57.5,21.3,56.8"/>
	<path class="st2" d="M144.3,63.7c0-1.4,1-2.6,1.6-3.8c0.6,0.4,1.1,0.7,1.6,1c-0.3,0.9-0.4,1.8-1,2.6C146,64,145.1,63.7,144.3,63.7"
		/>
	<path class="st2" d="M148.2,63.8c0.5-1.3,1.1-2.5,1.7-3.8c0.7,0.3,1.5,0.6,2.2,0.9c-0.4,1-0.4,2.2,0.5,2.9
		C151.1,63.7,149.6,63.8,148.2,63.8"/>
	<path class="st2" d="M11.5,67.7c1.1,0.3,2.3,0.6,3.4,1c-0.9,2.9-1.8,5.9-2.7,8.8c-0.3,1.1-0.6,2.1-1.1,3.1
		c-1.1-0.4-2.1-0.8-3.3-1.1C9.1,75.6,10.3,71.6,11.5,67.7"/>
	<path class="st2" d="M15.5,68.9c2.6,0.9,5.4,1.5,8,2.6c-0.8,2.1-1.4,4.2-2,6.3c-1.3-0.3-2.5-0.7-3.8-1.1c0.2-0.9,0.5-1.7,0.7-2.6
		c-1.4-0.4-2.7-0.9-4.1-1.3C14.7,71.5,15.1,70.2,15.5,68.9"/>
	<path class="st2" d="M13.1,76.9c3.3,1.1,6.7,2,10,3.1c-0.4,1.3-0.8,2.5-1.2,3.8c-3.3-0.9-6.6-2.1-9.9-3
		C12.3,79.5,12.6,78.2,13.1,76.9"/>
	<path class="st2" d="M7.1,86.1c1.2,0,2.4,0.1,3.6,0.2c-0.2,2.5-0.3,5.1-0.5,7.6c-1.2-0.1-2.4-0.2-3.6-0.3
		C6.8,91.1,6.9,88.6,7.1,86.1"/>
	<path class="st2" d="M11.2,86.4c2.8,0.1,5.6,0.4,8.4,0.5c-0.4,4.6-0.6,9.2-1,13.8c-4.1-0.2-8.3-0.6-12.4-0.9c0.1-1.3,0.2-2.6,0.3-4
		c2.9,0.1,5.7,0.4,8.5,0.6c0.1-1.9,0.2-3.7,0.3-5.5c-1.4,0-2.9-0.1-4.3-0.4C11.1,89.2,11.1,87.8,11.2,86.4"/>
	<path class="st2" d="M150,102c2,0,4,0.1,5.9-0.1c-1.7,1.7-1.9,4.2-2.1,6.5c-0.7-0.7-1.1-1.6-1.6-2.4c0.6-0.5,1.2-1,1.6-1.7
		c-0.6-0.4-1.2-0.9-1.9-1.4c-0.3,0.4-0.5,0.8-0.7,1.2C150.8,103.5,150.4,102.8,150,102"/>
	<path class="st2" d="M157.4,102c3.1,0,6.2,0,9.3,0c-0.5,1.2-1.2,2.4-2.5,2.7c0.7,0.6,1.6,1.4,2.6,1.4c1.4-0.2,2.4-1.6,3.8-1.9
		c0.7-0.1,1.4-0.2,2.1-0.3c-1,0.1-2.1,0-3.1,0.3c-0.7,0.3-1.3,0.7-1.9,1.1c-0.5-0.1-1-0.3-1.5-0.5c0.5-0.9,1-1.9,1.3-2.8
		c1.1-0.1,2.1,0.1,2.9,0.7c0.1-0.2,0.4-0.5,0.5-0.6c4.6-0.1,9.2,0,13.8-0.1c0,7.2-1,14.3-2.8,21.2c-1.1-0.2-2.1-0.4-3.2-0.6
		c0.4,1.2,1.7,1.5,2.8,1.8c-0.5,1.9-1.3,3.8-1.9,5.7c-2.9,0.1-3.6-3.8-6.3-4.1c0.3,1,1.2,1.6,1.7,2.4c1.2,1.8,2.1,3.7,3.3,5.5
		c-1.1-0.4-2.2-1.2-3.4-0.9c0.1,1.3,1.6,1.7,2.6,2.3c-0.2,0.4-0.4,0.8-0.6,1.1c-0.4,0.8-1.4,0.4-2.1,0.9c-1.2,0.9-1.6,2.5-2.8,3.4
		c-0.6,0.5-1.4,0.2-2.1,0.1c0.7,0.2,1.4,0.5,2,0.8c0.2-0.4,0.5-0.8,0.7-1.2c0.6,0.2,1.3,0.4,1.9,0.6c-0.9,1.6-2,3.2-3,4.9
		c-1.2-1-2.3-2.5-1.9-4.2c-0.6,0.2-1.2,0.4-1.7,0.7c0-0.8-0.7-1.1-1.4-1.3c-0.9,1.6-1.9,3.1-2.8,4.7c-0.2,0-0.6,0.1-0.9,0.1
		c0.2,0.5,0.4,1,0.6,1.5c1.4,0.8,2.9,1.9,4.7,1.6c-1.4-0.9-2.8-1.7-4.2-2.6c1-1.1,1.5-2.5,2.1-3.9c0.8,0.3,1.9,0.1,2.3,1
		c0.7,1.2,1,3,2.7,3.2c-1.3,1.7-2.6,3.5-3.9,5.3c-0.7-0.4-1.4-0.8-2.1-1.1c-0.2,0.3-0.4,0.7-0.6,1c0.2-0.1,0.6-0.3,0.7-0.4
		c0.3,0.5,1.2,0.9,0.7,1.6c-1.3,2.4-3.4,4.2-5.2,6.2c-1.2-1.6-0.1-3.5,0-5.2c0.7,0.2,1.4,0.3,2.1,0.2c-0.4-0.3-0.8-0.6-1.2-0.8
		c0.2-0.7,0.4-1.4,0.4-2.1c-0.4,0.4-0.7,0.7-1,1.1c-1.6-0.6-3.1-1.5-4.8-2.1c0.8,1.1,1.7,2.1,2.9,2.9c-0.4,0.5-0.8,1-1,1.6
		c0.3,1.2,1.6,1.9,1.9,3.2c0.1,0.4-0.1,0.9-0.3,1.3c-1-0.9-1.6-2.1-2.3-3.2c-3.3-5.4-6.7-10.6-9.8-16.1c-1-1.9-2.2-3.7-3-5.7
		c4.3,0,8.6,0.1,12.9,0c-0.2,1.3-0.2,2.6-0.1,3.8c0.6-1.2,1.1-2.5,1.7-3.8c1.3,0,2.6,0.1,4,0.1c0,0.4,0,0.8,0,1.2
		c1.3,0.9,2.9,0.9,4.4,1.2c1.1,0.3,1.1,1.7,1.3,2.6c1.1,0.1,2.2,0.2,3.3-0.2c0.6-0.2,0.9-0.7,1.3-1.2c-1.5,0.1-2.8-0.7-4.1-1.3
		c-1.6-0.7-3.1-1.5-4.5-2.4c1.3-0.1,2.5-0.1,3.8-0.1c-0.4-0.6-0.7-1.1-1.1-1.7c1.5,0.7,2.7,1.8,3.9,2.9c0.1-0.4,0.3-0.8,0.4-1.1
		c-0.7-0.4-1.3-1-1.7-1.6c-1-1.3-3-1.6-3.7-3.2c-0.5-0.8,0.4-1.9,1.3-1.6c1.8,0.1,2.8,2.2,4.7,2c-0.8-0.5-1.7-0.9-2.6-1.3
		c0.1-1.6,0.4-3.2,0.4-4.9c0.6,0.3,1.3,0.4,2,0.2c0-2.1-1.9-3.2-3.3-4.4c-1.1-1.1-0.3-2.7,0.2-3.9c-0.4-0.2-0.9-0.5-1.3-0.7
		c0.1-0.6,0.3-1.2,0.6-1.7c0.6,0.1,1.2,0.1,1.9,0.2c-0.4-0.5-1.1-1-1.8-0.6c-0.4,0.4-0.6,0.8-1,1.1c-0.4,0.3-0.8,0.1-1.1-0.1
		c-0.3,0.4-0.5,0.7-0.8,1.1c0.7,0.1,1.4,0.4,1.7,1c0.1,0.9-0.6,1.5-1.2,2c1.9,2.2,2.7,5.1,3.4,7.9c0.2,0.4-0.1,1-0.6,1
		c-0.8,0.1-1.6-0.1-2.4-0.1c-0.7,0.3-1.1,0.9-1.7,1.4c-1.5-2.8-3.1-5.5-4.7-8.2c1.8,0.3,3.5,0.6,5.3,0.7c-1.4-0.7-2.9-1.3-4.3-2
		c0.1-1,0.6-1.9,1.2-2.6c0.7-0.2,1.4,0.2,2.1,0.1c0.2-0.3,0.4-0.6,0.6-0.9c-1.3-0.4-1.7-1.7-2.3-2.8c-0.1,0-0.4,0.1-0.5,0.2
		c-0.1-0.2-0.2-0.6-0.3-0.7c-0.4,0.9-0.8,1.9-1.3,2.8c-1.3-0.8-2.6-1.8-4-2.5c-0.1,0.2-0.4,0.6-0.5,0.7c-0.7-1.1-1.3-2.2-1.9-3.4
		c0.8-1.1,1.5-2.4,2.2-3.6c-0.4-0.2-0.8-0.4-1.2-0.6C156,104.2,156.7,103.1,157.4,102"/>
	<path class="st2" d="M176,103.7c1,0.4,2,1.1,3.1,1.1c0.4-0.1,1.3-0.1,0.9-0.7c-1.1-0.6-2.2-1-3.4-1.6
		C176.4,102.9,176.2,103.4,176,103.7"/>
	<path class="st2" d="M158.2,106.1c1.3-0.5,2.5-1.4,3.5-2.3c-0.8-0.4-1.6-0.7-2.4-1C158.8,103.8,158.2,104.9,158.2,106.1"/>
	<path class="st2" d="M169.2,108c-0.8,0.5-1.8,0.4-2.7,0.4c0.1,0.3,0.2,0.6,0.4,0.9c1.3,0.5,2.5,1.4,3.9,1.5c2-0.4,3.1-2.3,4.3-3.7
		c-1.5-0.4-2.9-0.9-4.4-1.3C170.3,106.6,170,107.5,169.2,108"/>
	<path class="st2" d="M181.7,105.7c-0.1,0.5-0.3,0.9-0.5,1.4c0.4,0.1,0.8,0.3,1.2,0.4c0.2-0.4,0.4-0.8,0.6-1.2
		C182.6,106.1,182.2,105.9,181.7,105.7"/>
	<path class="st2" d="M178.4,107.8c0.2,0.9,0.9,1.6,1.8,1.8c0.3-0.5,0.5-0.9,0.8-1.4C180.1,107.9,179.3,107.6,178.4,107.8"/>
	<path class="st2" d="M163.6,108.4c-0.5,1.4-2.1,1.7-3.4,2c0.5,0.3,1,1,1.6,0.7c0.3-0.2,0.5-0.6,0.9-0.5c1.2-0.1,2.6,0.3,3.7-0.3
		C165.4,109.9,164.5,109.2,163.6,108.4"/>
	<path class="st2" d="M176.9,111.1c0.5,0.5,0.9,1,1.3,1.5c-1.3-0.1-2.5-0.4-3.8-0.4c0.4,0.1,0.8,0.3,1,0.7c0.9-0.2,1.9-0.2,2.8-0.1
		c0.4,0.9,0.9,2.1,2,2.2c0.3,0,0.9,0.2,0.7-0.3c-0.5-0.9-1.4-1.6-1.8-2.6c-0.4-0.6,0.1-1.3,0.2-1.9
		C178.6,110.6,177.8,110.9,176.9,111.1"/>
	<path class="st2" d="M171.9,112.8c-0.9,0.7-0.9,1.9-0.9,2.9c2.3,0.7,4.3,2.1,6.8,2c0.1-0.2,0.3-0.6,0.4-0.8
		c1.1,1.1,1.8,2.7,1.4,4.3c1-0.7,1.3-1.9,1.7-2.9c-0.9-0.5-1.8-1-2.7-1.6c0.1-0.6,0.2-1.1,0.3-1.7c-0.7,0.5-1.6,1.1-2.5,0.6
		C174.8,114.7,173.3,113.9,171.9,112.8"/>
	<path class="st2" d="M173.2,120.9c1.4,1.7,3.4,2.9,5.5,3.4C177.1,122.9,175.6,120.7,173.2,120.9"/>
	<path class="st2" d="M159.8,137.4c0.3,0.9,1.3,1.6,2.2,1.6c1.2,0,2.4-0.2,3.5-0.4c-1.6-0.4-3.1-1-4.7-1.5c0.2-0.7,0.3-1.4,0.3-2.2
		C160.5,135.6,160,136.5,159.8,137.4"/>
	<path class="st2" d="M152.3,136c-0.6,0.4-1,1.2-0.7,1.9c0.4,1,1.4,1.5,2.3,1.9c-0.3-0.3-0.7-0.6-0.5-1.1c0.2-1.4,1-2.5,1.6-3.7
		C154.1,135.4,153.1,135.5,152.3,136"/>
	<path class="st2" d="M148,138.8c0.2,0.6,0.9,0.9,1.4,1.3c-0.2,0.6-0.4,1.2-0.5,1.8c0.9,0.5,1.8,1.2,2.9,1.3c0.5,0,0.9-0.4,1.3-0.6
		c0.4,1.8,2.3,2.5,3.5,3.8c0.6,0.6,0.3,1.5,0.3,2.3c0.4-0.2,0.7-0.4,1-0.6c-0.3-1.9-2.2-2.9-3-4.5c0.1-0.6,0.3-1.2,0.5-1.8
		c-0.6-0.1-1.3-0.3-1.9-0.2c-1.2,0.1-2.3-0.3-3.5-0.6c0.1-0.6,0.5-1.1,0.4-1.7c-0.3-0.5-0.9-0.8-1.4-1.1c0.1-0.5,0.3-0.9,0.4-1.4
		C148.7,137.2,148,137.9,148,138.8"/>
	<path class="st2" d="M157.1,141.4c0.4,1,1.4,1.4,2.3,1.9c0.8,0.4,1.8,0.6,2.7,0.5C160.5,142.9,158.8,142.1,157.1,141.4"/>
	<path class="st2" d="M10,104.7c2.7-0.1,5.4-0.4,8.1-0.7c0.1,1.4,0.3,2.7,0.4,4c-2.7,0.2-5.5,0.5-8.2,0.7
		C10.1,107.4,10,106.1,10,104.7"/>
	<path class="st2" d="M5.8,105.1c1.2-0.1,2.3-0.2,3.5-0.3c0.3,3.6,0.8,7.2,0.9,10.8c-1.2,0.1-2.4,0.1-3.6,0.2
		C6.4,112.2,5.9,108.6,5.8,105.1"/>
	<path class="st2" d="M157.6,114.9c1,0.4,2.2,0.7,2.8,1.7c0.1,0.7-0.5,1.1-0.9,1.6C158.6,117.2,158,116.1,157.6,114.9"/>
	<path class="st2" d="M12.2,118.7c2.6-0.8,5.2-1.4,7.8-2.1c0.4,1.3,0.7,2.6,1.1,3.9c-2.6,0.7-5.3,1.4-7.9,2.1
		C12.7,121.3,12.2,120.1,12.2,118.7"/>
	<path class="st2" d="M7.9,119.9c1.1-0.6,2.4-0.8,3.6-1.1c0.9,3.5,1.9,6.9,2.8,10.4c-1.1,0.3-2.3,0.6-3.4,0.9
		C9.7,126.9,9.1,123.3,7.9,119.9"/>
	<path class="st2" d="M15,124.9c2.3-0.6,4.5-1.2,6.7-1.8c0.4,1.3,0.7,2.6,1,3.9c-2.2,0.5-4.5,1.2-6.7,1.7
		C15.7,127.5,15.3,126.2,15,124.9"/>
	<path class="st2" d="M126.8,131.8c1.1-0.1,2.2-0.1,3.4-0.2c0,0.8,0,1.6,0,2.4c2.2,0,4.3-0.1,6.5,0c0.3,0.6,0.6,1.2,0.9,1.8
		c-0.3,0.9-0.4,1.9-0.7,2.8c0.7,0.3,1.4,0.6,2.1,1c-0.6-0.7-1.3-1.4-0.9-2.4c1.1,1.2,1.6,2.8,2.4,4.2c-0.9,0.7-1.9,1.4-2.8,2
		c-2.8-0.5-5.5-1.3-8.3-1.7c0.6,0.4,1.2,0.7,1.9,1.1c-0.2,0.4-0.4,0.7-0.6,1.1c0.4,0.2,0.9,0.4,1.3,0.6c0.1-0.4,0.3-0.9,0.5-1.3
		c0.8,0.4,1.6,0.8,2.4,1.1c0.2-0.3,0.4-0.6,0.6-0.9c0.6,0.4,1.3,0.8,2,0.6c1.3-0.2,2.4-1.1,3.5-1.8c0.6,1.1,1.1,2.2,1.5,3.4
		c0.2,0.8,1,1.4,1.4,2.1c1.1,1.6,1.9,3.4,2.8,5.1c-2.5-0.9-3.5-3.8-5.9-5c-0.9-0.4-1.8-0.6-2.8-0.7c0.4,1.3,0.5,3.1,2.1,3.5
		c0.3-0.5,0.5-1,0.8-1.4c2.5,1.6,3.9,4.2,5.7,6.4c0.7,0.8,1.7,1.2,2.7,1.6c0.5,0.9,1,1.7,1.6,2.6c-0.4-0.1-1-0.6-1.4-0.2
		c-0.3,0.4-0.5,0.9-0.8,1.3c1.2,0,2.1,0.9,3.3,1c0.9,1.4,2.3,2.8,2,4.6c-0.5,0.4-1,0.7-1.6,1.1c0.2-0.4,0.4-0.9,0.6-1.3
		c-0.9-0.3-1.8-0.5-2.7-0.9c0.2,0.7,0.2,1.4,0.1,2.1c0.6,0.2,1.1,0.4,1.7,0.6c-0.6,0.4-1.3,0.8-1.9,1.2c-0.5-0.1-0.9-0.3-1.4-0.4
		c0.4,1-0.3,1.9-1.1,2.4c-0.4-0.9-0.7-1.8-1-2.7c-0.7-0.3-1.5-0.5-2.3-0.4c0.4,1.4,0.9,2.7,1.6,4c-0.8,0.6-1.7,1.2-2.6,1.8
		c-0.7-0.8-1.4-1.6-2-2.6c0.3,1.3,0.1,2.6-0.6,3.7c-0.6,0.9-1.6,1.3-2.5,1.7c-1.8,0.9-3.6,1.8-5.5,2.6c0.1-0.9,0.2-2-0.6-2.7
		c-0.5,0.4-1.2,0.8-1.4,1.5c0,0.6,0.2,1.2,0.4,1.8c-1.4,0.6-2.9,1.1-4.3,1.6c-0.1-1.8,0.3-3.6,0.1-5.4c-0.1-1.2-1-2.1-1.9-2.8
		c-0.3,1.1-0.6,2.3-0.9,3.4c-0.4-0.2-0.8-0.4-1.1-0.5c-1.2,0.8-2.4,1.6-3.4,2.7c0.5,0.4,1,0.7,1.6,1c0.4-0.9,0.8-1.7,1.1-2.6
		c1.6,1.1,2.9,2.7,3.7,4.4c-2.1,0.6-4.1,1.3-6.2,1.7c-0.1-0.7-0.1-1.4-0.1-2.1c-0.4,0.9-0.8,1.7-1.2,2.5c-2.6,0.5-5.3,1-8,1.4
		c0.8-1.9,1.7-3.7,2.6-5.6c-3,0.5-3.8,4.1-6.4,5.2c-1.1,0.4-2.1-0.2-3.1-0.5c0.3-0.9,1-1.7,1-2.6c-1.6-1-3.3-1.9-5-2.9
		c0.1-1.5,0-3.1,0-4.6c0.6,0.2,1.1,0.4,1.6,0.5c1.3-0.2,2.7-0.7,3.4-1.9c-1.3-0.1-2.5-0.3-3.8-0.5c0.5-0.9,1.1-1.9,1.7-2.8
		c0.7,0.3,1.4,0.6,2.1,0.9c0.4-0.8,0.9-1.6,1.2-2.5c2.5,1,4.9,3.5,7.8,2.4c0-0.4-0.1-0.7-0.1-1c-0.7,0.1-1.4,0.4-2.2,0.5
		c-1,0-1.6-1.4-0.9-2.1c0.8-0.9,1.9-1.6,2.9-2.4c1.9,0,3.8,0,5.6,0.7c0.5,0.3,1-0.1,1.4-0.3c-1.1-0.3-1.7-1.3-2-2.3
		c-0.5,0.2-1.1,0.4-1.6,0.5c-0.7-0.5-1.6-1.4-2.6-0.9c-1.9,1.1-2.8,3.5-4.8,4.6c-1.4,0.5-2.6-0.8-3.1-1.9c0.1-0.4,0.2-0.7,0.4-1.1
		c-0.1-0.1-0.4-0.4-0.4-0.6c3.7-5.5,7.2-11.1,10.8-16.6c0.6-0.9,1.1-1.9,1.9-2.6c0.3,0.8,0,1.5-0.3,2.2c0.4,0.1,0.8,0.3,1.2,0.4
		c0.5-1.2,1.1-2.4,1.6-3.5c-0.5-0.4-1-0.8-1.5-1.2c1.8-2.6,3.5-5.2,5.1-7.9C125.8,134.1,126.7,133.1,126.8,131.8"/>
	<path class="st2" d="M125.7,135.8c0.4,0.1,0.7,0.2,1.1,0.3c-0.4,1.2-0.8,2.6-2,3.2c0.4,0.9,0.9,1.7,1.9,2.2
		c0.3-1.1,0.6-2.3,0.9-3.5c0.9,0.4,1.8,0.8,2.8,1.1c0.6-0.3,0.9-0.9,1.3-1.4c-1.5-1-3.3-1.6-4.8-2.5
		C126.3,135.4,126,135.6,125.7,135.8"/>
	<path class="st2" d="M134.2,137.4c-0.2,0.8-0.5,1.6-0.1,2.3c0.7-0.4,1.2-1,1.6-1.7C135.3,137.9,134.7,137.6,134.2,137.4"/>
	<path class="st2" d="M122.1,142.9c-0.2,0.4-0.4,0.9-0.6,1.3c0.4,0.1,0.9,0.3,1.3,0.5c0.2-0.4,0.4-0.8,0.5-1.2
		C123,143.3,122.6,143.1,122.1,142.9"/>
	<path class="st2" d="M126.7,146.6c-1.1,0-2.1-0.2-3.1-0.2c-0.6,1.1-1.4,2.4-1.1,3.7c1.4-0.2,1.9-1.7,2.2-2.9
		c1.3,0.9,1.5,2.5,2.2,3.7c0.6,1,1.7,1.3,2.7,1.7c-0.6,0.7-1.1,1.4-1.6,2.2c1.6-1.4,3.3-3.1,3.9-5.2c-0.9,0.6-1.8,1.4-2.7,2
		c-0.6-0.6-1.4-1-1.5-1.9c-0.1-1.6,0.4-3.2,0.4-4.8C127.6,145.5,127.4,146.3,126.7,146.6"/>
	<path class="st2" d="M131.3,145.6c-0.2,0.5-0.4,0.9-0.5,1.4c0.4,0.2,0.8,0.4,1.2,0.5c0.2-0.4,0.4-0.8,0.6-1.2
		C132.1,146.1,131.7,145.9,131.3,145.6"/>
	<path class="st2" d="M134,149.8c-0.3,0.4-0.6,0.8-0.8,1.2c0.8,0.5,1.6,0.9,2.4,1.4c-0.4,0.8-0.7,1.6-1.1,2.4c0.8,0.3,1.5,0.7,2.3,1
		c-0.2,0.7-0.6,1.5-0.1,2.2c0.4-1,0.6-2.1,0.9-3.2c-0.4-0.4-0.9-0.6-1.3-1.1c-0.4-1,0-2.1-0.3-3.1C135.5,150,134.7,150,134,149.8"/>
	<path class="st2" d="M118.7,152.6c-0.2,2.2-0.4,4.5-1.5,6.4c0.9-0.7,1.9-1.4,2.9-2.1c-0.4-0.3-0.8-0.5-1.2-0.8
		c0.5-1.4,2.4-2.2,3.5-1.2c0.8,0.6,0,1.6-0.2,2.3c1.2-0.4,1.6-1.6,2-2.6c-1.4-0.5-1.6-1.9-2.2-3.1c-0.3-0.9-1.4-1.5-2.3-1.2
		C119,150.9,118.8,151.9,118.7,152.6"/>
	<path class="st2" d="M140.2,153.7c-0.2,0.4-0.4,0.8-0.5,1.2c1.1,0.5,2.1,1.2,3.3,1.5c0.4,0.1,0.8,0.1,1.2-0.2
		C142.8,155.4,141.6,154.5,140.2,153.7"/>
	<path class="st2" d="M130.8,154.9c0,0.8,0.3,1.7-0.4,2.3c-0.4-0.1-0.9-0.3-1.3-0.4c-0.3,0.7-0.6,1.4-1,2.1c1.1-0.2,2.1,0.5,3.1,1
		c-0.1,2.2,0.7,4.4,0.7,6.6c0.2-0.2,0.4-0.4,0.6-0.7c0.4,0.1,0.8,0.3,1.1,0.4c0.6-1.2,1.1-2.5,1.7-3.7c-0.6,0.2-1.3,0.5-2,0.6
		c-0.7-0.3-1.6-0.9-1.4-1.7c0.5-1.4,2.1-1.4,3.3-1.9c-0.8-0.4-1.6-0.7-2.4-1.2c-0.9-0.8-0.7-2.1-0.4-3.2
		C132,155.1,131.4,155,130.8,154.9"/>
	<path class="st2" d="M113.1,158.4c0.9,0.8,2.1,1.3,3.4,1.3c-0.5-1.1-1.3-2-2-2.9C113.8,157.2,113.3,157.7,113.1,158.4"/>
	<path class="st2" d="M124.8,161.4c1.4,0.8,2.6,1.9,4.1,2.4c-0.4-1-1-1.9-1.9-2.5c0.4-0.7,0.7-1.4,1.1-2.1c-0.6-0.2-1.1-0.5-1.6-0.7
		C125.5,159.2,125.1,160.4,124.8,161.4"/>
	<path class="st2" d="M144.6,160c0.9,1.3,2.3,2.2,3.3,3.5c-0.5,0.5-1,1-1.6,1.5c1.2,0.6,2.5,0.8,3.8,1c-0.9-1.5-1.8-3.1-1.6-4.9
		C147.2,160.6,145.9,160.1,144.6,160"/>
	<path class="st2" d="M138.7,162.4c0.5,0.2,1.1,0.3,1.4,0.7c0.7,0.8,0.9,1.9,1.6,2.7c0.7,0.6,1.6,0.1,2.3-0.3
		c-0.6-1.7-2.5-2.2-3.6-3.4c0.4-0.5,0.7-1.1,1.1-1.6C140.4,161.1,139.5,161.7,138.7,162.4"/>
	<path class="st2" d="M120.2,166.7c1,0.7,1.1,1.9,0.9,3c0.6,0.1,1.2,0.3,1.8,0.4c0.6-1.2,1.1-2.4,1.6-3.7
		C123.1,166.2,121.5,165.7,120.2,166.7"/>
	<path class="st2" d="M132,167.4c-0.3,0.8-0.8,1.4-1.2,2.1c0.3-0.1,0.6-0.2,0.9-0.4C131.9,168.6,131.8,167.9,132,167.4"/>
	<path class="st2" d="M133.9,170.1c0.6,0.8,1.7,0.9,2.6,1.3c-0.5,1.4-1.4,2.7-1.7,4.3c1.5,0.4,2.1-1.3,3.1-2
		c-0.2-0.2-0.5-0.4-0.7-0.5c0.4-0.8,1-1.6,1.1-2.5c-0.8-1.4-2.6-1.7-3.9-2.4C134.1,168.7,133.5,169.4,133.9,170.1"/>
	<path class="st2" d="M114.3,174.4c-1.3-0.5-2.5-1.1-3.7-1.7c-0.6,1-1.3,2.1-1.2,3.4c0.8-0.5,1.5-1.1,2.3-1.5c1-0.3,2,0.3,2.9,0.7
		c-0.4,0.9-0.8,1.7-1.1,2.6c0.9-0.1,2.3-0.2,2.6-1.3c0.3-1.4,0.3-3,1.2-4.3c1.7,0.1,2.7-1.4,3.6-2.6c-0.4-0.1-0.9-0.4-1.4-0.1
		c-0.4,0.3-0.7,0.8-1,1.2c-0.7-0.7-1.1-1.5-1.5-2.4C116,170.4,115.2,172.4,114.3,174.4"/>
	<path class="st2" d="M119.1,173.7c-0.6,0.5-0.6,1.4-0.6,2.1c1.9,0.2,2.5-1.8,3.2-3.2C120.9,173,120,173.3,119.1,173.7"/>
	<path class="st2" d="M105.7,178.6c1,0.7,2.1,1.4,3.3,1c-0.2-0.7-0.5-1.4-0.7-2C107.4,177.9,106.6,178.3,105.7,178.6"/>
	<path class="st2" d="M23,134.2c0.8-0.5,1.7-0.9,2.5-1.4c1.2,2.7,2.9,5.2,3.9,8c-2.9,1.6-5.8,3-8.8,4.5c0.2,0.4,0.4,0.9,0.5,1.3
		c-0.8,0.4-1.7,0.8-2.5,1.2c-1.5-3.1-3.1-6.1-4.7-9.2c0.8-0.5,1.6-0.9,2.4-1.4c1,1.7,1.8,3.6,2.7,5.3c2.3-0.9,4.4-2.1,6.6-3.3
		C24.8,137.7,24,135.9,23,134.2"/>
	<path class="st2" d="M29.3,145.8c0.8-0.6,1.6-1.1,2.4-1.7c0.9,1.3,1.8,2.5,2.6,3.9c-1.4,1.6-3.2,2.5-4.9,3.7
		c-0.6-0.8-1.1-1.6-1.6-2.5c0.9-0.6,1.8-1.2,2.7-1.9C30.1,146.8,29.7,146.3,29.3,145.8"/>
	<path class="st2" d="M34.1,152.5c0.7-0.6,1.4-1.2,2.1-1.8c1.9,2.2,4,4.3,5.8,6.6c-2.3,2.4-4.8,4.5-7.3,6.7c0.3,0.3,0.6,0.7,0.9,1
		c-0.7,0.7-1.4,1.4-2.1,2c-2.3-2.6-4.6-5.1-6.9-7.6c0.7-0.7,1.4-1.3,2.1-2c1.4,1.5,2.7,3,4,4.5c1.8-1.6,3.7-3.2,5.4-4.9
		C36.8,155.5,35.4,154.1,34.1,152.5"/>
	<path class="st2" d="M45.9,161c1,0.7,2.2,1.2,2.8,2.3c0,2.3-0.3,4.5-0.3,6.8c1.1-0.1,2-0.8,2.6-1.6c-0.4-0.3-0.7-0.6-1.1-0.9
		c0.6-0.7,1.2-1.5,1.8-2.2c1.1,0.8,2.1,1.6,3.1,2.5c-0.9,1.5-2,3-3.2,4.3c-0.9,0.9-2.4,0.7-3.6,0.6c-0.1,1.9-0.3,3.8-0.4,5.7
		c-0.9-0.7-1.9-1.4-2.8-2c0.1-3,0.4-6,0.6-9c-0.4,0.2-0.9,0.4-1.1,0.9c-1,1.8-1.8,3.8-2.9,5.6c-1.2-0.9-2.4-1.9-3.6-2.8
		c0.5-0.7,1.1-1.4,1.6-2c0.4,0.1,0.8,0.3,1.2,0.2c0.6-1.2,0.9-2.6,1.8-3.6c0.8-0.9,2.1-0.9,3.2-0.9C45.8,163.4,45.8,162.2,45.9,161"
		/>
	<path class="st2" d="M66.1,177.1c0.7-1.6,1.3-3.3,1.9-4.9c0.9,0.3,1.9,0.7,2.8,1c-0.3,0.8-0.6,1.5-0.9,2.3c2,0.8,4.1,1.4,6.1,2.4
		c-0.9,2.9-2.1,5.7-3.1,8.6c-0.5,1.7-2.4,2.7-4.1,2.4c-1.2-0.3-2.4-0.8-3.5-1.3c0.3-0.9,0.7-1.8,1-2.6c0.9,0.3,1.7,0.8,2.7,0.8
		c0.8-0.1,1.4-0.8,1.6-1.5c0.6-1.6,1.2-3.2,1.7-4.8C70.1,178.7,68.1,177.9,66.1,177.1"/>
	<path class="st2" d="M56.1,175.6c1.8,1,3.6,1.9,5.4,2.9c-0.4,0.9-0.9,1.7-1.4,2.5c-1.8-1-3.6-1.9-5.4-2.8
		C55.2,177.2,55.7,176.4,56.1,175.6"/>
	<path class="st2" d="M80.7,181.8c-0.2-0.9,0.2-1.8,0.3-2.6c3.1,0.4,6.1,0.9,9.1,1.4c1.2,0.2,1.7,1.5,1.6,2.6
		c-0.5,3.5-1.1,6.9-1.6,10.4c-1-0.1-1.9-0.2-2.9-0.4c0.5-3.4,1-6.7,1.6-10c-1.6-0.3-3.3-0.5-4.9-0.8c-0.5,3.3-1.1,6.6-1.6,10
		c-1.5-0.2-3-0.5-4.5-0.7c0.2-0.9,0.4-1.9,0.5-2.8c0.5,0.1,1,0.1,1.6,0.2c0.4-2.3,0.3-4.9,1.8-6.9C81.3,182.1,81,182,80.7,181.8"/>
	<path class="st2" d="M99.7,183.2c0.9,0.2,1.8,0.4,2.6,0.6c-0.8,0.9-1.6,1.7-2.6,2.3C99.7,185.2,99.7,184.2,99.7,183.2L99.7,183.2z"
		/>
</g>
</svg>
