<?xml version="1.0" encoding="utf-8"?>
<!-- Generator: Adobe Illustrator 21.1.0, SVG Export Plug-In . SVG Version: 6.00 Build 0)  -->
<svg version="1.1" id="Layer_1" xmlns="http://www.w3.org/2000/svg" xmlns:xlink="http://www.w3.org/1999/xlink" x="0px" y="0px"
	 viewBox="0 0 200 200" style="enable-background:new 0 0 200 200;" xml:space="preserve">
<style type="text/css">
	.st0{fill:#FEFEFE;}
	.st1{fill:#00275D;}
	.st2{fill:#FDB826;}
	.st3{fill:#6089B8;}
	.st4{fill:#BDD3E8;}
</style>
<g>
	<path id="Fill-1" class="st0" d="M187,51L187,51c-0.5-0.7-0.9-1.4-1.4-2c9.2-16.6,1.7-31.4-9.5-38.2c-11.4-6.9-28-6.8-37.4,6.6
		c-18.2-2.8-33.6,2.8-38.1,4.7c-4.9-2.1-19.9-7.4-37.8-4.8C51.7,3.1,35.4,4.2,24.8,11.5C13.7,19,7.3,34,15.8,48.7
		c-0.5,0.8-1.1,1.5-1.6,2.3c-26.3,40-7.2,67.1-6.3,68.3l1.8,2.5l3-2.9c3,8.7,11.8,28.1,35.1,42.1l3.3,2l0.8-4.6
		c8.2,7.7,16,11.9,23.6,16c8.2,4.4,16,8.6,23.5,17l2,2.3l2-2.3c6.4-7.4,14.2-11.4,22.5-15.7c8.3-4.3,16.9-8.7,24.9-16.8v4.6l3.8-1.9
		c22.4-10.9,30.4-30.4,33.2-41.2l1.2,2.1l2.5-3.1C191.4,119.2,213.3,91.1,187,51"/>
	<path id="Fill-3" class="st1" d="M184.8,52.5c-0.8-1.2-1.5-2.3-2.3-3.3c19.2-31.4-26.1-55.5-42.5-28.8c-20.2-3.7-37.1,3.7-39.3,4.7
		c-2.3-1-18.9-8.3-38.9-4.8C41.9-7.6,1,21.2,19,48.8c-0.9,1.2-1.7,2.4-2.6,3.7c-25.6,38.9-6.4,65.2-6.4,65.2l3.9-3.9
		c0,0,5.6,27.1,35.2,44.9l1.1-5.8c18.2,19.4,35.1,19,50.8,36.7c14.5-16.8,35.6-16.8,52.1-37.8v7.4c30.4-14.8,33.2-46.7,33.2-46.7
		l2.8,5.2C189.1,117.8,210.4,91.4,184.8,52.5"/>
	<path id="Fill-5" class="st2" d="M120.4,80c1.4-0.5,3.9,1,5.3,3.6c6.2-1.8,5.8-10.1,5.8-10.7C126.5,74.9,122.5,78.1,120.4,80"/>
	<path id="Fill-7" class="st3" d="M124,84.9c14.9,40.1-4.1,65.8-4.1,65.8c11.7-30.6,4.2-56-0.9-65.5c-2.6,0.3-5.8,0.1-5.8,0.1
		s3.9-2.4,6.5-4.8c0.2-0.2,0.4-0.4,0.7-0.6c0,0,0,0,0,0c1.4-0.5,3.9,1,5.3,3.6c6.2-1.8,5.8-10,5.8-10.6c1.8-0.7,3.7-1.2,5.7-1.4
		C137.1,71.6,135.7,84.7,124,84.9 M131.4,73L131.4,73c-0.1,0-0.1,0.1-0.2,0.1C131.3,73,131.4,73,131.4,73 M31.9,46
		c-0.5-5,5.9-10.1,5.9-10.1c-2.6-2.7-7.2-0.4-7.2-0.4c4.2-8.2,13.5-4.2,13.5-4.2C40.5,27.1,33,27.3,33,27.3
		c9.3-9.2,20.5,4.9,20.5,4.9C43.6,34.4,31.9,46,31.9,46 M147.5,33.2c0,0,6.1-15.1,24.7-11.5c0,0-17.1-11.2-28.9,9.1
		c0,0-16.9-8-42.3,3c0,0-24.1-8.4-42.2-3.6c0,0-10.6-18.3-25.5-10.8c-14.9,7.5-7.1,25-4.5,29.5c0,0-24.7,25.1-15.4,56.2l5-6.2
		c0,0,7.1,33.8,25.4,44.5l1.1-8.3c0,0,19.1,23,41.6,32.8c2.1,1,14.1,6.9,14.4,9.8v-16.1c0,0-15.6,1.3-19.7-5.9
		c-2.8-4.9-20.7-36.8-11.9-70.2c0,0-8.6-1.3-10.2-15.8c0,0-6.4-3.1-14.4-2.5c0,0,14.3-4.5,27.7,0.7c13.4,5.2,17,18.3,26.1,12.5
		l2.7-37.1l2.6,37.1c9.1,5.8,12.7-7.4,26.1-12.5c13.4-5.2,27.7-0.7,27.7-0.7s-5.7-4-14.9-5.9c-7.7-1.5-18.9,3.4-18.9,3.4
		s1.6-10.5,6.7-16.1C134.5,43.7,144.5,42.6,147.5,33.2 M100.9,120c1.7-0.3,28.7-1.2,12.1,15.5C124.5,120.3,103.6,120.2,100.9,120"/>
	<path id="Fill-9" class="st2" d="M71.1,72.9c0,0.6-0.4,8.9,5.8,10.7c1.3-2.6,3.7-4,5.1-3.6C78.7,77.5,74.6,74.6,71.1,72.9"/>
	<path id="Fill-11" class="st4" d="M100.8,140.3v7.6l-5.2,0.3c-5.4,0.2-12.6,2.4-12.6,2.4c-13.2-32.6-5.9-57.3-2.4-66.1
		c-13.1,2.8-15.2-12.8-15.2-12.8c1.4-0.3,3.3,0.3,5.6,1.4c0,0.6-0.4,8.9,5.8,10.7c1.3-2.6,3.7-4,5.1-3.6c1,0.7,1.9,1.5,2.7,2.2
		c8.9,7.5,15.8,5.9,15.8,5.9s0.1,28.4,0.1,31.9c0,0-25.7-2-11.9,15.5c0,0,2.2-6.4,4.6-4.4C96.5,134,100.8,139.7,100.8,140.3
		 M71.1,73C71.1,72.9,71.1,72.9,71.1,73C71.1,72.9,71.1,72.9,71.1,73 M100.8,157.7c-18.8,0-16.3-4.1-16.3-4.1
		c2-1.3,15.2-1.5,16.3-1.5c1,0,14.3,0.3,16.3,1.5C117.1,153.5,119.6,157.7,100.8,157.7"/>
</g>
</svg>
