<?xml version="1.0" encoding="utf-8"?>
<!-- Generator: Adobe Illustrator 21.1.0, SVG Export Plug-In . SVG Version: 6.00 Build 0)  -->
<svg version="1.1" id="Layer_1" xmlns="http://www.w3.org/2000/svg" xmlns:xlink="http://www.w3.org/1999/xlink" x="0px" y="0px"
	 viewBox="0 0 200 200" style="enable-background:new 0 0 200 200;" xml:space="preserve">
<style type="text/css">
	.st0{fill:#FEFEFE;}
	.st1{fill:#2D2925;}
	.st2{fill:#8B2231;}
	.st3{fill:#F9A11A;}
</style>
<g>
	<path id="Fill-1" class="st0" d="M34.8,81.4c-0.1,0-0.1-0.1-0.2-0.1c-3.4-1.9-4.4-3.3-4.5-3.6c0.3-3,16.5-11.2,51.4-13.4
		c-2,2.8-3.7,6.4-4.4,11L76.8,78c-0.2,1.4-0.5,3.1-1.1,4.6c-0.9,2.4-3.6,5-7.8,7.4C53.3,88.1,41.5,85.1,34.8,81.4 M148,71.4
		c1-0.4,1.7-1.3,1.8-2.3c9.7,2.4,16.8,5.4,19.5,8.3c0.5,0.5,0.6,0.8,0.6,0.8c-0.1,0.4-1.2,1.9-4.8,3.8c-5.4,2.9-13.8,5.3-24.1,7
		c1.7-2.1,2.8-4.9,3-8.9c0.1-3.6,0.4-4.7,0.5-5C145.2,73.7,147,71.7,148,71.4 M189.8,63.8c-6.8-7.6-21-13.9-40.2-18
		c0.3-0.2,0.7-0.5,1.1-0.8c1.3-0.9,2.9-2,4.6-3.6c6.7-6.3,2.4-15.4-1.2-19.8l-4.2-5.1c-0.8-1-2.2-1.3-3.3-0.8
		c-1.2,0.5-1.8,1.7-1.6,3l1,6.5c0.3,2,0.2,2.9-1.8,4.6c-0.1-1.6-0.4-3.4-0.8-5.3c-1.2-4.9-3.7-7.1-4-7.4c-0.8-0.6-1.9-0.8-2.9-0.4
		c-0.3,0.1-0.6,0.3-0.9,0.6l-0.1-0.6c-0.8-4.9,0.3-7.5,0.3-7.7c0.3-0.2,0.5-0.4,0.7-0.6c1-1.2,2.9-3.1,2.9-3.1
		c0.6-0.7,0.9-1.6,0.8-2.5c-0.2-0.9-0.8-1.7-1.6-2c-0.5-0.2-2.2-0.7-5.6-0.3c-6.5,0.9-12.9,4.7-12.7,11.1c0.1,2.8,1,5.3,1.7,7.4
		c0.3,0.9,0.7,2,0.8,2.8c-0.4,0.2-1,0.4-2.1,0.6C110.7,24.2,103,29,99,35.8c-1,1.6-1.7,3.3-2.2,5.1c-22.3,0.2-43.4,3.1-59.8,8.2
		c-19.9,6.2-31,14.9-31.9,25.3C4.7,80,6.8,87.9,19.6,95.3c0.2,0.2,0.5,0.4,0.8,0.6l5.2,2.5c0.1,0.1,0.3,0.1,0.4,0.2
		c4,1.8,8.5,3.4,13.4,4.8c-0.7,0.6-1.5,1.2-2.1,1.8c-12.3,10.2-19.4,25.2-19.4,41.2c0,14.3,5.5,27.7,15.6,37.7
		c10.1,10.1,23.4,15.6,37.6,15.6c25.2,0,47.1-17.9,52.1-42.2c4.2-12.7,3.7-26.2,3.6-31.2c-0.3-9.4,4-14.9,7-17.5
		c15.9-2.1,29.8-5.6,40.2-10.2c0.2,0,0.3-0.1,0.4-0.2l1.6-0.8c0,0,0,0,0.1,0l3.6-1.7c0.3-0.1,0.6-0.3,0.8-0.6
		c8.8-5.1,13.8-11.3,14.4-18C195.3,72.5,193.6,68,189.8,63.8"/>
	<path id="Fill-4" class="st1" d="M27.3,77.4c0.6-6.4,23.8-15,61.2-16.3c-3.5,2.6-7.6,7.2-8.6,14.5l-0.4,2.8
		c-0.3,1.7-0.6,3.5-1.2,5.2c-1.4,3.8-5.5,6.9-9.9,9.3c-15.1-1.9-27.7-5.1-35.1-9.1h0C29.4,81.7,27.2,79.3,27.3,77.4 M171.3,75.5
		c1.4,1.6,1.3,2.6,1.3,2.9c-0.2,1.8-2.4,4-6.3,6h0c-8,4.2-21.8,7.4-38.2,9.1c0.7-0.5,1.5-0.9,2.4-1.2l0.3-0.1
		c4.7-1.9,10.1-4.1,10.3-11.9c0-1.2,0.1-5.1,0.8-6.4c0.9-1.7,3.1-4.5,5.1-5.2c0,0-3.3-0.7-3.3-0.7c-0.2,0-0.3,0-0.5,0
		c1.1-0.8,1.9-1.8,2.5-2.8C159,68,168,71.8,171.3,75.5 M187.7,65.7c-7-7.8-22.6-14.1-42.6-17.9c0.1-2.3,1.5-3.3,4-5
		c1.3-0.9,2.8-1.9,4.3-3.3c6.5-6.1-1.1-15.6-1.4-16l-4.2-5.1l1,6.5c0.7,4.5-1,6-5.8,9.4c-0.6,0.4-1.1,0.9-1.6,1.4
		c0.2-3,0.3-6.3-0.7-10.5c-1-4.2-3-5.9-3-5.9l-0.5,6c0,0-0.5,4.7-6.7,10.4c0.5-0.6,1-1.2,1.5-1.9c3.1-4.5,2.2-9.5,1.2-15.4l-0.2-1.2
		c-1.1-6.1,0.6-9.9,1.6-10.6c1-1.2,3.1-3.3,3.1-3.3s-1.1-0.5-4.1-0.1c-3.9,0.5-10.5,2.9-10.3,8.2c0.1,2.4,0.8,4.6,1.5,6.6
		c0.7,2.1,1.4,4.1,0.8,5.1c-0.5,0.8-1.9,1.5-4.2,1.9c-9.2,1.7-16.2,6-19.8,12.1c-1.2,2-2,4.2-2.4,6.5c-22.8,0.1-44.4,2.9-61.2,8.1
		C19.1,57.7,8.7,65.6,7.9,74.8c-0.4,4.8,1.7,11.8,13.8,18.5l-0.1,0.1l3.4,1.6c0,0,0,0,0,0l1.8,0.9l0,0c5.6,2.5,12.1,4.6,19.3,6.4
		c-2.6,1.5-5,3.1-7.1,5c-11.7,9.6-18.4,23.8-18.4,39c0,13.5,5.2,26.2,14.8,35.7s22.2,14.8,35.7,14.8c23.8,0,44.6-16.9,49.4-40.3
		c4.1-12.2,3.6-25.3,3.4-30.2c-0.4-11.2,5.1-17.4,8.6-20.2c15.9-2,30-5.5,40.5-10.2l0,0l1.7-0.8c0,0,0,0,0,0l3.6-1.7l-0.1-0.1
		c8.4-4.7,13.2-10.3,13.7-16.2C192.4,73.1,190.9,69.3,187.7,65.7"/>
	<path id="Fill-6" class="st2" d="M22.7,149.9c1.3,6.7,5.1,14.6,12.7,19.9c2.3,1.6,4.8,2.9,7.4,3.9c-1.6-2.8-3.5-5.6-5.5-8.4
		c-3.6-5.3-7.3-10.8-9.7-16.8c-2.4-6.1-3.1-12.6-2.1-19c-1.9,5.2-3,10.9-3,16.8C22.5,147.5,22.6,148.7,22.7,149.9"/>
	<path id="Fill-8" class="st2" d="M30.8,147.2c2.2,5.6,5.9,10.9,9.4,16.1c2.7,4,5.4,7.9,7.4,11.9c2.2,0.5,4.5,0.9,6.9,1
		c-2.4-3.5-4.5-7.4-6.3-11.9c-7-17.4-6-39,2.7-51.5c4.5-6.4,9.9-10.8,16.8-14.6c5.9-3.3,9.7-4.2,13.4-6.5c4.1-2.5,6.3-6.6,3.6-15.8
		c-0.8-2.7-0.9-4.8-0.8-6.5c-0.9,1.8-1.7,3.9-2,6.4l0,0c-0.4,2.6-0.6,5.5-1.7,8.4c-3.6,9.5-21.2,14.8-23.6,15.5
		c-6.7,2-12,5.1-16.2,8.8C28.3,119.4,26.1,135.5,30.8,147.2"/>
	<path id="Fill-10" class="st2" d="M104.2,61c0.2,0.6,0.3,1.2,0.4,1.7c0.5,3.3-0.5,6-4.6,6.7c-4.2,0.7-5.6-3-6-6c0-1,0-1.9,0.1-2.5
		c-0.7,0-1.4,0-2.1,0c-1.3,0.8-3.1,2-4.8,3.7c-0.8,1.8-1.9,4.3-0.3,10.1c2.7,10.3,1.6,16.5-6.7,20.1C69.7,99.5,63,102.2,54,113.6
		c-4.3,5.4-6.6,14.4-7,23.4c-0.4,8.8,1.4,18.1,4.5,25.8c2.1,5.1,4.5,9.6,7.3,13.4c2.8-0.1,5.7-0.5,8.5-1.1
		c-3.1-3.7-4.9-8.2-5.3-13.2c-1.1-16.7,7.9-23.8,21.7-34.9l6.2-5.2c24.7-21,17.5-42.4,20.2-60.7C108.2,61.1,106.2,61,104.2,61"/>
	<path id="Fill-12" class="st2" d="M114.1,61.4c-0.8,3.6-1.1,7.5-1.3,11.4c-1,15.9-0.5,33.9-20.6,51.8l-6.1,4.9
		C72.6,140.3,65,147,65.5,161.7c0.2,4.8,2.2,9.1,5.6,12.4c3.8-1.1,7.5-2.7,11-4.8c17.5-9.9,28.5-24.8,32.7-43.8
		c2.7-12,2.6-21.8,2.6-29.7c0-4,0.5-11.8,0.5-11.8c0.6-4.9,1.4-11.8,7.1-20.9c0.2-0.3,0.4-0.6,0.6-0.9
		C121.9,61.9,118.1,61.6,114.1,61.4"/>
	<path id="Fill-14" class="st2" d="M120,112.5L120,112.5C120,112.4,120,112.5,120,112.5c-0.6,2.9-0.7,6.1-1,9.3
		c-0.2,1.2-0.3,2.4-0.5,3.6c-0.1,0.3-0.1,0.6-0.2,1c-4.4,20.1-15.8,35.7-34.2,46.1c-3.2,1.8-6.4,3.3-9.6,4.4c5.4,3.6,11.7,4.7,16,4
		c16.5-2.5,24.5-13.3,28.4-24.8c4-11.8,3.5-24.5,3.4-29.7c-0.6-17.5,12.9-23.9,12.9-23.9C124.6,101.9,121.1,106.5,120,112.5"/>
	<path id="Fill-16" class="st2" d="M109,176.9c-6.7,5.6-14,6.9-17.3,7.4c-6.5,1-14.2-0.5-21-5.9c-0.1-0.1-0.2-0.2-0.3-0.3
		c-2.9,0.8-5.8,1.3-8.7,1.5c6.7,7.2,15.4,11.2,27.2,12c0.1,0,0.1,0,0.2,0h0c8-3.1,15-8.3,20.2-15C109.1,176.8,109,176.8,109,176.9"
		/>
	<path id="Fill-18" class="st2" d="M47.6,188.9c0.1-3.7-0.9-7.3-2.6-10.9c-4-1.2-8-2.9-11.8-5.2c-2.1-1.3-4.1-3.3-5.8-5.2
		c0,0,0,0,0,0C31.8,176.6,38.9,184.1,47.6,188.9L47.6,188.9z"/>
	<path id="Fill-20" class="st2" d="M81.2,193.9c-6.6-1.5-12.2-3.9-17.1-7.6c-2.5-1.9-4.8-4.1-6.9-6.5c-2.7,0-5.3-0.3-7.9-0.8
		c1.5,3.8,2.2,7.6,1.7,11.6v0c6.2,2.8,13,4.4,20.2,4.4C74.6,195,78,194.7,81.2,193.9C81.3,194,81.2,193.9,81.2,193.9"/>
	<path id="Fill-22" class="st2" d="M137.7,74.2c-1.1,3.8-4.9,3.4-5.9,1.3c-1.7-3.2-1.1-5.7,0.7-7.5c1.8-1.7,4.7-2.6,7.5-3.9
		c0,0,0,0,0,0c-3.3-0.6-6.8-1.1-10.5-1.5c-0.1,0.1-0.1,0.1-0.2,0.2c-0.3,0.4-0.7,0.7-1,1.1c-5.9,8.8-6.6,15.4-7.2,20.4l-0.2,1.6
		c-0.3,2.6-0.3,6-0.3,9.8c0,0.5,0,1.1,0,1.6c0,1.3-0.1,2.7-0.2,4c0,0,0.1,0,0.1,0c0-0.5,0.1-0.7,0.1-0.5c1.7-5.3,4.7-8.5,9-10.3
		c4.7-1.9,9.2-3.6,9.5-10.4c0.1-2.8,0.3-5.7,0.9-7.1c1.2-2.6,3.3-3.3,3.3-3.3C141.3,69.6,138.8,70.6,137.7,74.2"/>
	<path id="Fill-24" class="st3" d="M143.4,47.4c0.3-4.5,4.6-5.4,8.8-9.3c5.3-5.1-1.6-13.5-1.6-13.5c0.9,5.7-1.8,7.8-6.5,11.2
		c-1.5,1.1-2.6,2.6-2.8,4.4c-0.2,2.1-0.3,4.4-0.8,6.7C141.4,47.1,142.4,47.3,143.4,47.4"/>
	<path id="Fill-26" class="st3" d="M128.7,39.5c-1.3,1-2.5,1.9-3.6,2.9c-0.8,0.8-1.6,1.5-2.3,2.3c4.7,0.4,9.2,0.9,13.6,1.6
		c2.8-5.1,4.1-10.9,2.5-20.7C138.9,25.6,138.5,32.2,128.7,39.5"/>
	<path id="Fill-28" class="st3" d="M102.6,43.8c5.3,0.1,10.6,0.3,15.7,0.6c0.2-0.2,0.3-0.3,0.5-0.5c3.4-3.7,8.7-6.8,11.6-10.9
		c2.8-4.1,1.7-9.2,0.6-15.3c-1.8-10.6,2.6-12.5,2.6-12.5s-8.9,1.2-8.7,6.4c0.2,6.9,7.4,13.4-3.4,15.4c-11.8,2.1-19.1,8.5-20.7,16.9
		C101.4,43.8,102,43.8,102.6,43.8"/>
	<path id="Fill-30" class="st0" d="M102.6,46.5C53.3,46,12.1,58.8,10.7,75c-0.6,6.5,5.3,12.5,15.6,17.5c6.4,3.1,14.5,5.7,23.9,7.8
		c1.9-0.8,3.8-1.6,5.9-2.2c1.6-0.5,4.6-1.5,8-2.9c-13.8-2-25-5.1-31.9-8.9c-5.1-2.8-7.8-5.8-7.5-9.1c1-10.9,35.5-19.4,77.1-19
		c41.6,0.4,74.6,9.6,73.7,20.5c-0.3,3-3,5.8-7.7,8.2c-8.7,4.6-24.1,8.1-42.7,9.7c-0.6,0.9-1.2,1.9-1.7,3c8.5-3.2,18.3,1.5,18.3,1.5
		s0.7,0.3,1.1,0.6c12.4-2.2,23-5.4,31-9.2c9.4-4.5,15.2-9.9,15.7-15.8C190.8,60.6,151.9,47,102.6,46.5"/>
</g>
</svg>
