<?xml version="1.0" encoding="utf-8"?>
<!-- Generator: Adobe Illustrator 21.1.0, SVG Export Plug-In . SVG Version: 6.00 Build 0)  -->
<svg version="1.1" id="Layer_1" xmlns="http://www.w3.org/2000/svg" xmlns:xlink="http://www.w3.org/1999/xlink" x="0px" y="0px"
	 viewBox="0 0 200 200" style="enable-background:new 0 0 200 200;" xml:space="preserve">
<style type="text/css">
	.st0{fill:#EDE0C5;}
	.st1{fill:#00471A;}
	.st2{fill:#FEFEFE;}
</style>
<g>
	<path id="Fill-1" class="st0" d="M64.7,171.4c-0.9-0.7-1.3-1.9-1-3l10.6-37.4c0.1-0.2,0.1-0.4,0.3-0.6l-4.8-7.7
		c-0.4-0.7-0.6-1.6-0.3-2.4l0.7-2.3l-6.6-0.4c-6.2-0.5-8.5-1.3-10-2.1c-6.3-3.5-7.9-13.4-8.3-16.3l-0.4-3.3c-0.2-1.4,0.2-2.7,1-3.6
		c0.6-0.7,1.5-1.2,2.4-1.3c-14.4-13-27.5-29.2-22.9-52C30.4,13.6,50.8,6,51.6,5.7c0.3-0.1,0.7-0.2,1-0.2c1.1,0,2.1,0.6,2.6,1.5
		c0.4,0.7,0.4,1.4,0.2,2.1C62.2,3.5,68.6,1,71.3,0.1C71.6,0,71.9,0,72.2,0c1.1,0,2.2,0.6,2.7,1.7C75.5,3,75,4.6,73.7,5.4
		C67.6,9.1,62.2,14.2,58.2,20c4.9-1.1,8.2-1.3,9.4-1.3c0.4,0,0.6,0,0.6,0c1.4,0.1,2.6,1.2,2.7,2.6c0.1,1.4-0.8,2.7-2.2,3.1
		c-0.1,0-8.1,2-17,8.4c-1.7,5.1-2.5,10.4-2.5,15.8c0,10.2,3.3,20.7,9,28.8c1.4,1.9,2.7,3.6,4.1,5.1c-0.5-10.5,2.5-26.9,21.5-34.5
		c0.4-0.1,0.7-0.2,1.1-0.2c1.1,0,2.1,0.6,2.6,1.6c0.7,1.4,0.2,3-1.1,3.8l-0.1,0.1c-2.9,1.9-5.4,4.4-7.3,7.2c2.1-0.6,3.8-0.8,5.1-1
		l0.2,0c0.1,0,0.2,0,0.3,0c1.2,0,2.3,0.8,2.7,1.9c0.5,1.3,0,2.7-1.2,3.4l-0.1,0.1C86,65,86,65,86,65c-6.1,3.5-9.5,7.6-10.1,12.1
		c-0.6,5,2.1,9.6,4.1,12.3c5.1-5.9,8.5-16,9.4-19.8c0.3-1.3,1.5-2.2,2.8-2.2c0.1,0,0.2,0,0.3,0c1.5,0.2,2.6,1.4,2.6,2.9
		c0.1,12.4-3.3,20.9-6.7,26.3c5.1,2.6,10.2,2.7,11.2,2.7c0.1,0,0.3,0,0.3,0c0,0,0.2,0,0.3,0c1.1,0,6.1-0.2,11.2-2.7
		c-3.4-5.4-6.8-13.9-6.7-26.3c0-1.5,1.1-2.7,2.6-2.9c0.1,0,0.2,0,0.3,0c1.3,0,2.5,0.9,2.8,2.2c0.9,3.8,4.3,13.9,9.4,19.8
		c2-2.6,4.7-7.3,4.1-12.3c-0.6-4.5-4-8.6-10.1-12.1c0,0-0.2-0.1-0.2-0.1c-1.2-0.7-1.7-2.2-1.2-3.4c0.4-1.2,1.5-1.9,2.7-1.9
		c0.1,0,0.2,0,0.3,0l0.2,0c1.2,0.1,3,0.4,5.1,1c-1.9-2.9-4.4-5.3-7.3-7.2l-0.1-0.1c-1.3-0.8-1.8-2.4-1.1-3.8c0.5-1,1.5-1.6,2.6-1.6
		c0.4,0,0.7,0.1,1.1,0.2c19,7.6,22,24,21.5,34.5c1.4-1.5,2.8-3.2,4.1-5.1c5.7-8.1,9-18.6,9-28.8c0-5.4-0.8-10.7-2.5-15.8
		c-8.9-6.4-16.9-8.4-17-8.4c-1.4-0.3-2.3-1.7-2.2-3.1c0.1-1.4,1.3-2.6,2.7-2.6c0,0,0.2,0,0.6,0c1.1,0,4.5,0.1,9.4,1.3
		c-4-5.8-9.4-10.9-15.6-14.6c-1.3-0.8-1.8-2.3-1.1-3.7c0.5-1.1,1.5-1.7,2.7-1.7c0.3,0,0.6,0,0.9,0.1c2.7,0.9,9.1,3.4,15.9,9.1
		c-0.2-0.7-0.1-1.5,0.2-2.1c0.5-1,1.5-1.5,2.6-1.5c0.3,0,0.7,0.1,1,0.2c0.9,0.3,21.3,7.9,26.3,33.1c4.6,22.8-8.5,39-22.9,52
		c0.9,0.1,1.8,0.6,2.4,1.3c0.8,1,1.2,2.3,1,3.6l-0.4,3.3c-0.4,3-2,12.9-8.2,16.3c-1.5,0.8-3.7,1.6-9.9,2.1l-6.7,0.4l0.7,2.3
		c0.2,0.8,0.1,1.7-0.3,2.4l-4.8,7.7c0.1,0.2,0.2,0.4,0.3,0.6l10.6,37.4c0.3,1.1-0.1,2.3-1,3L100,200L64.7,171.4z"/>
	<path id="Fill-4" class="st1" d="M42,69.2c0,0-4.3-19.3-1.1-30.8c-0.8,0.9-1.7,1.9-2.5,2.9C30.7,51.3,42,69.2,42,69.2 M158,69.2
		c0,0,11.3-17.9,3.6-27.9c-0.8-1-1.7-2-2.5-2.9C162.3,49.9,158,69.2,158,69.2 M28.2,39.4C33,15.5,52.6,8.4,52.6,8.4
		C45.4,13.7,38.1,23.7,35,37.7c3-3.7,5.7-6.4,8.9-8.6C51.9,12,65.5,5,72.2,2.9c-8.7,5.2-15.9,13-20.3,21.9c10-3.6,16.1-3.2,16.1-3.2
		s-9,2.2-18.7,9.4c-1.9,5.5-3,11.4-3,17.6c0,10.9,3.5,22,9.5,30.5c3.4,4.8,6.7,8.1,10.8,11.1c-1.4-3.4-6.5-29.6,18.3-39.5l-0.2,0.1
		c-5.9,3.8-10.2,9.7-11.9,16.6c4.5-4.3,9.3-4.8,11.8-5.1c0,0-0.1,0.1-0.1,0.1c-23,13.3-4.7,31.2-4.7,31.2C87,87.6,91.3,74,92.2,70.3
		c0.1,14.4-4.7,23-8,27.2c7.4,5.1,15.8,4.7,15.8,4.7h0h0c0,0,8.3,0.3,15.8-4.7c-3.3-4.2-8-12.8-8-27.2c0.9,3.7,5.1,17.3,12.4,23.4
		c0,0,18.3-18-4.7-31.2c0,0-0.1,0-0.1-0.1c2.5,0.3,7.3,0.8,11.8,5.1c-1.8-6.9-6.1-12.8-11.9-16.6l-0.2-0.1
		c24.8,9.9,19.7,36.1,18.3,39.5c4.1-3,7.4-6.3,10.8-11.1c6-8.5,9.5-19.6,9.5-30.5c0-6.2-1.1-12.1-3-17.6c-9.8-7.2-18.7-9.4-18.7-9.4
		s6-0.3,16.1,3.2c-4.4-8.9-11.6-16.7-20.3-21.9C134.5,5,148.1,12,156,29.1c3.2,2.2,6,4.9,8.9,8.6c-3-14-10.4-24-17.6-29.3
		c0,0,19.7,7.1,24.4,30.9c5.6,27.8-16.7,45.1-34.6,60l13.7-5.6c0.9-0.4,1.6,0.5,1.4,1.6l-0.4,3.4c-0.2,1.9-1.6,11.3-6.8,14.1
		c-1.1,0.6-3,1.3-8.7,1.7l-10.3,0.7l1.7,5.8l-10.1,16.1l5.2-5.4l10.6,37.4l-28.9,23.8l9-40.9L100,168.4L86.5,152l9,40.9l-28.9-23.8
		l10.6-37.4l5.2,5.4L72.2,121l1.7-5.8l-10.3-0.7c-5.7-0.4-7.6-1.1-8.7-1.7c-5.2-2.8-6.5-12.2-6.8-14.1l-0.4-3.4
		c-0.2-1.1,0.5-2,1.4-1.6l13.7,5.6C44.9,84.5,22.6,67.2,28.2,39.4"/>
	<path id="Fill-6" class="st2" d="M52.6,98.7L52.6,98.7c0,0,1,8.4,4.5,10.3c2.4,1.3,8.2,1.2,13.3,1.6
		C64.8,108.4,56.5,102.5,52.6,98.7L52.6,98.7z M83.8,116.4c3.1,2.4,5.7,1,7.1-0.3c0.5-0.4,0.3-1.2-0.3-1.5c-1.5-0.7-4.2-1.9-7-3.2
		c-0.6-0.2-1.2,0.1-1.3,0.7C82.1,113.3,82.2,115.1,83.8,116.4L83.8,116.4z M89.4,132.7l-1.7,7.3l4.1,5.5h4.3l-4-5.9l0.6-3.6
		c1.8,1.9,4.4,3.1,7.3,3.2c2.9,0,5.4-1.2,7.3-3.2l0.6,3.6l-4,5.9h4.3l4.1-5.5l-1.7-7.3c-3.9-2.5-4.8-6-4.8-6l-2.7-8.9l-3.1,1.5
		l-3.1-1.5l-2.7,8.9C94.2,126.7,93.3,130.2,89.4,132.7L89.4,132.7z M109.1,116.1c1.4,1.4,4,2.7,7.1,0.3c1.6-1.3,1.7-3.1,1.5-4.3
		c-0.1-0.6-0.7-0.9-1.3-0.7c-2.8,1.3-5.5,2.5-7,3.2C108.8,114.9,108.7,115.6,109.1,116.1L109.1,116.1z M105.9,148.8H100h-5.9
		l2.8,3.8h3h3.1L105.9,148.8z M129.6,110.6c5.1-0.4,10.9-0.3,13.3-1.6c3.5-1.9,4.5-10.3,4.5-10.3l0,0
		C143.5,102.5,135.2,108.4,129.6,110.6L129.6,110.6z"/>
</g>
</svg>
