<?xml version="1.0" encoding="utf-8"?>
<!-- Generator: Adobe Illustrator 21.1.0, SVG Export Plug-In . SVG Version: 6.00 Build 0)  -->
<svg version="1.1" id="Layer_1" xmlns="http://www.w3.org/2000/svg" xmlns:xlink="http://www.w3.org/1999/xlink" x="0px" y="0px"
	 viewBox="0 0 200 200" style="enable-background:new 0 0 200 200;" xml:space="preserve">
<style type="text/css">
	.st0{fill:#C4CDD3;}
	.st1{fill:#002B5C;}
	.st2{fill:#005082;}
	.st3{fill:#7BC043;}
	.st4{fill:#FFFFFF;}
</style>
<g>
	<path class="st0" d="M100.1,200C44.8,200,0,155.3,0,100.1C0,44.8,44.7,0,99.9,0c42.6,0,80.6,27,94.6,67.3l0.5,1.4l0,0
		c17.3,52.5-11.2,109-63.7,126.3C121.2,198.3,110.7,200,100.1,200"/>
	<path class="st1" d="M182.4,54.8c-11.9-21.9-32.1-38.1-56.1-45c-4.2-1.2-8.4-2.1-12.7-2.8l0,0c-51.3-7.5-99,28-106.6,79.4
		s28,99,79.4,106.6c9.2,1.4,18.6,1.3,27.8-0.1l0.3,0.2l0.1-0.2c35.9-5.8,65.2-31.6,75.5-66.5C197.4,102.3,194.5,76.6,182.4,54.8
		 M136.5,21.8v-0.1c19.2,8.9,34.5,24.6,42.9,44.1c-9-11.2-21.2-18.2-32.8-22.6c-1.2-4.7-4.4-8.7-8.9-10.7c-0.8-2.2-2.6-3.9-4.8-4.6
		c-2.8,0.6-7.5,3.9-10.3,9.1c-3.1-0.5-5.8-0.8-7.8-0.9h-0.6l-2.6-0.2c-5.8-0.3-11.5-1.2-17.1-2.8c0.4-0.3,0.8-0.5,1.2-0.7
		C118,21.4,136.2,21.8,136.5,21.8 M79,73.1c-3.1-6.1-7.6-11.4-13.3-15.4c2.5-1.4,5.1-2.7,7.5-3.9c5.9,0.7,11.7,1.8,17.4,3.4
		c3,1.8,5.9,3.7,8.9,5.6l-2.3,2.9C90.5,66.3,84.2,68.8,79,73.1 M74.8,76.8c-7.6,7.7-20.3,24.3-35.5,38.1c1.1-18.3,7.2-36,17.8-51
		c1.1-1.1,2.3-2,3.5-2.9C66.5,64,71.1,69.7,74.8,76.8 M103,58.5c-2.9-2-5.9-3.9-8.8-5.6c-2.2-2.5-6.7-7.1-9-9.6
		c1.3-2.1,2.9-4.2,4.5-6c6.9,2.3,14.1,3.7,21.4,4l2.5,0.2h0.7c1.3,0.1,2.5,0.2,3.7,0.4C113.5,46.6,108.7,51.8,103,58.5 M81.1,15.7
		c14.2-3.2,29-2.7,43,1.3l0.4,0.1c-6.9,1.1-13.8,2.9-20.4,5.3c-6.2,2.1-12.7,4.6-18.7,7c-2-1.1-3.6-2.8-4.5-4.9c-1-2.9-1-6,0-8.9
		 M75,17.3c-0.6,3.1-0.3,6.4,0.8,9.3c0.8,2.1,2.1,3.9,3.7,5.4c-3.7,1.6-7.2,3.1-10,4.4c-6.7-0.3-18.3-0.6-26.4-0.1h-1.3
		c9.6-8.7,21-15.2,33.4-18.9 M36.2,42c1.9-0.1,4.6-0.2,7.9-0.1c7.9,0.7,10.7,2.9,15.3,5.9l-3.4,6c-14.7-2.9-27.9,6.8-36.6,15.9
		C23.1,59.4,28.8,50,36.2,42 M15.6,82.7c5.8-7.9,20.9-25.6,37.5-23.9c-1.3,2.4-2.4,4.4-3.1,5.7c-4.9,7.6-8.7,15.7-11.5,24.3
		c-3.2,10-4.8,20.5-5,31c-3.5,2.9-7.1,5.6-10.9,8c3.9,3.5,8.4,6.3,13.3,8.3c0,0-4.5,7.2-7.5,11.8c-12.9-19.2-17.5-42.8-12.9-65.4
		 M145.9,173c-0.4-6.1-1.1-12.2-2.3-18.2c1.1,0.6,2.2,1.3,3.2,2c-0.4-18.8-8.4-25.5-8.1-35.7c-0.1-6.8,1.1-13.6,3.6-20
		c13.7,16.2,24,33.6,27.3,50C163.1,159.8,155,167.2,145.9,173 M183,124.1c-2.1,7.3-5.2,14.4-9.2,20.9c-4.6-16.6-15.1-33.6-28.7-49.3
		c1.2-2.1,2.6-4.2,4.2-6.4c3.7-4,5.5-0.3,5.5-0.3c3-8.1,1.1-12.1-0.4-13.9c-0.3-0.5-0.7-0.8-1.2-1.1c-1-3.6-3.3-6.6-6.4-8.6
		c1.1-5.3,1.4-10.8,0.9-16.2c27.8,11.6,36,32.6,38.4,43.6C187,103.4,185.9,114,183,124.1"/>
	<path class="st2" d="M85.6,29.6c6-2.4,12.4-4.9,18.7-7c6.6-2.4,13.4-4.2,20.4-5.3l-0.4-0.1c-3.8-1.1-7.7-2-11.6-2.5
		c-10.5-1.6-21.1-1.2-31.4,1.1c-1,2.9-1,6,0,8.9C82,26.7,83.6,28.4,85.6,29.6"/>
	<path class="st2" d="M38.5,88.9c2.7-8.6,6.6-16.7,11.5-24.3c0.7-1.3,1.8-3.3,3.1-5.7c-16.6-1.8-31.8,15.9-37.5,23.9
		c-4.7,22.7,0,46.2,12.9,65.4c2.9-4.7,7.5-11.8,7.5-11.8c-4.8-2-9.3-4.8-13.3-8.3c3.8-2.4,7.5-5.1,10.9-8c0.1-10.5,1.8-21,5-31"/>
	<path class="st2" d="M41.9,36.2h1.3c8.2-0.5,19.8-0.1,26.4,0.1c2.8-1.3,6.2-2.8,10-4.4c-1.6-1.5-2.9-3.3-3.7-5.4
		c-1.1-3-1.4-6.2-0.8-9.3C62.8,21,51.4,27.5,41.9,36.2"/>
	<path class="st2" d="M145.9,173.1c9.2-5.7,17.2-13.2,23.7-21.9c-3.3-16.3-13.6-33.9-27.3-50c-2.5,6.4-3.7,13.1-3.6,20
		c-0.2,10.3,7.7,16.8,8.1,35.7c-1-0.7-2.1-1.4-3.2-2C144.7,160.9,145.5,167,145.9,173.1"/>
	<path class="st2" d="M73.2,53.8c-2.4,1.1-5,2.4-7.5,3.9c5.6,4,10.2,9.3,13.3,15.4c5.2-4.2,11.5-6.8,18.1-7.4l2.3-2.9
		c-3-2-5.9-3.9-8.9-5.6C84.9,55.7,79.1,54.6,73.2,53.8"/>
	<path class="st2" d="M118,41.9c-1.2-0.1-2.4-0.3-3.7-0.4h-0.7l-2.5-0.2c-7.3-0.4-14.5-1.7-21.4-4.1c-1.7,1.9-3.2,3.9-4.5,6.1
		c2.3,2.4,6.8,7.1,9,9.6c3,1.8,5.9,3.7,8.8,5.6C108.5,51.8,113.3,46.7,118,41.9"/>
	<path class="st2" d="M19.3,69.6c8.8-9.1,22-18.8,36.6-15.9l3.4-6c-4.6-3-7.5-5.2-15.3-5.9c-3.3,0-6,0-7.9,0.1
		C28.8,50.1,23.1,59.4,19.3,69.6"/>
	<path class="st2" d="M183,124.1c2.9-10.1,4-20.7,3.1-31.3c-2.4-11-10.6-32-38.4-43.6c0.5,5.4,0.2,10.9-0.9,16.2
		c3.2,2,5.4,5.1,6.4,8.7c0.5,0.3,0.9,0.6,1.2,1.1c1.4,1.7,3.3,5.8,0.4,13.9c0,0-1.7-3.7-5.5,0.3c-1.6,2.2-3,4.3-4.2,6.4
		c13.6,15.6,24.1,32.7,28.7,49.3C177.7,138.5,180.8,131.5,183,124.1"/>
	<path class="st2" d="M132.9,27.9c2.2,0.7,4,2.4,4.8,4.6c4.4,2,7.7,6,8.9,10.7c11.6,4.4,23.8,11.4,32.8,22.6
		c-8.4-19.5-23.6-35.1-42.9-44.1v0.1c-0.2,0-18.4-0.4-40.8,10.5c-0.4,0.2-0.8,0.5-1.2,0.7c5.5,1.6,11.3,2.5,17,2.8l2.6,0.2h0.6
		c2.1,0.2,4.7,0.5,7.8,0.9C125.4,31.8,130,28.5,132.9,27.9"/>
	<path class="st2" d="M74.8,76.8C71.1,69.7,66.5,64,60.6,61c-1.2,0.9-2.4,1.9-3.5,2.9c-10.5,15-16.7,32.7-17.7,51
		C54.5,101.1,67.2,84.5,74.8,76.8"/>
	<path class="st3" d="M83.2,35.2l-6,8.7c3,2.1,5.8,4.6,8.2,7.3c-6.5-1.3-13.6-2.5-13.6-2.5l-11.2,6.1L66,46c-2.4-2-5-3.9-7.7-5.6
		c4.5,0.1,13.1,0.8,13.1,0.8L83.2,35.2z"/>
	<path class="st3" d="M94.5,73.5c-0.8,2.2-1.2,4.4-1.4,6.7c0,0-7.9,1.2-11.7,3.7C81.3,84,89.2,76.1,94.5,73.5"/>
	<path class="st4" d="M147.8,73.2c0.7-0.2,1.4-0.2,2-0.2c-0.2-0.6-0.5-1.1-0.9-1.6c-0.5-0.6-1.1-1.1-1.7-1.5
		C147.8,70.9,148,72.1,147.8,73.2"/>
	<path class="st4" d="M140.7,76.8c1-0.7,1.9-1.3,2.8-1.8c-0.2-0.5-0.5-1-0.7-1.5c-0.6-0.9-1.5-1.7-2.4-2.3
		C140.8,73,141,74.9,140.7,76.8"/>
	<path class="st0" d="M55.7,130.3c-6.7,2.7-22.7-1-22.7-1c16.1-0.9,31.8-12.5,31.8-12.5l0,0c-3,4.5-6.8,8.4-11.2,11.4
		c0.6,0.7,1.3,1.4,2.1,1.9"/>
	<path class="st3" d="M136,34.2c0,0-4-3.1-8.4,1.7C132.3,27.1,135.1,32.2,136,34.2"/>
	<path class="st0" d="M151.6,76.7l-0.5-0.3c-2.5-1.3-7,2.6-10,4.2s-7.2,5.1-9.3,0.3s2.7-12.2,4.4-16.8c3.7-10.3,3.7-16.4,3-19.7
		c3.4,3.8,4.5,11.2,4.5,11.2s1.3-13.9-5.4-17.5c0.1,1.2,0,2.4-0.1,3.6l0,0c-4.2,0.5-8.4,0-12.3-1.4c-9.4,10.4-17.7,21.6-24.8,33.6
		c-3,6.2-6,13.4-6.7,19.3c-0.7-2-1.1-4.1-1.2-6.2c-3.9,1.5-17,8-19.9,27.8c0,0,8.4-8.6,17.6-12c0,0-5.9,15.3,5.3,42.5
		c0,0,4.5-16.7,14-20.9c5.7,28.3,22.5,28.8,27.4,48.2c0,0,5.1-10-1-27.1c1.5,0.5,2.9,1.5,3.9,2.7c0,0-0.3-5-4.9-15.7
		c-2-4.3-3.4-8.8-4-13.5c-2.7,2.5-3.4,10.8-3.4,10.8c-8.4-22.6,15.3-45,19.6-48.4c2.1-1.6,3.4-1.6,4.2-1.3
		C152.7,78.5,152.6,77.4,151.6,76.7"/>
</g>
</svg>
