<?xml version="1.0" encoding="utf-8"?>
<!-- Generator: Adobe Illustrator 21.1.0, SVG Export Plug-In . SVG Version: 6.00 Build 0)  -->
<svg version="1.1"
	 id="Layer_1" xmlns:cc="http://creativecommons.org/ns#" xmlns:dc="http://purl.org/dc/elements/1.1/" xmlns:rdf="http://www.w3.org/1999/02/22-rdf-syntax-ns#"
	 xmlns="http://www.w3.org/2000/svg" xmlns:xlink="http://www.w3.org/1999/xlink" x="0px" y="0px" viewBox="0 0 200 200"
	 style="enable-background:new 0 0 200 200;" xml:space="preserve">
<style type="text/css">
	.st0{fill:#FFFFFF;}
	.st1{fill:#BEC0C2;}
	.st2{fill:#006BB6;}
	.st3{fill:#F58427;}
</style>
<g>
	<path class="st0" d="M99.7,181.1l-13.3-17.2c-16.9-5.6-28.6-20.8-29.7-38.5l-8.2-10.7c-5.4,2.5-10.7,5.4-15.7,8.7L8.2,98.6
		l10.4-22.8L0,51.7h29.6l5.7-12.5l14.6-5.9l1.6-4.4l11.9,5.4l2.8-9.9l1.9-0.6c10.1-3.2,20.7-4.9,31.3-4.9c0.3,0,3.8,0,3.9,0
		c0.4,0,2.1,0.1,2.1,0.1c8.9,0.4,17.7,1.9,26.2,4.6l2,0.6l2.6,9.4l4.3-3.2l24,8.5l5.8,12.6H200l-18.8,24.2l10.2,22.5l-25,25.8
		c0,0-9.2-6.7-15.5-9.2l-7.5,9.7c-0.9,18.2-13.1,34-30.6,39.4L99.7,181.1z"/>
	<polygon class="st1" points="99.7,169.1 185.1,59 14.8,59 	"/>
	<path class="st2" d="M7.8,55.5l91.9,119.3l92.5-119.3L7.8,55.5z M185.1,59L99.7,169.1L14.8,59L185.1,59z"/>
	<path class="st2" d="M172.8,66.6L172.8,66.6l-0.1-0.1l-5.5-3.7l2-3.9l0.1-0.1l-0.1-0.1l-7.5-16.5l0-0.1l-0.1,0l-20.3-7.2l-0.1-0.1
		l-0.1,0.1l-5.4,4.1l-0.1,0l0,0.1l-0.9,2.3c-6.8-1.6-13.8-2.7-20.8-3.3c-1.3-0.1-4.6-0.4-10-0.8l-0.5,0l-0.5,0l-0.1,0l-0.1,0.1l-4,4
		l0-4.1c0,0-11.4,0.6-18.8,1.7c-7.4,1-14.8,2.9-14.8,2.9l-1.3-2.9l0-0.1l-0.1,0L54,34.2l-0.3-0.1l-0.1,0.3l-1.1,3l-0.3-0.6l-0.1-0.2
		l-0.3,0.1l-13.7,5.5l-0.1,0l0,0.1L12.8,97.8l20.7,20.8l1-0.5c0.6-0.4,1.5-0.9,2.5-1.5c2.5-1.5,5.9-3.5,7.6-4.3l0.3-0.2
		c2.1-1,3.2-1.5,13.3-5.9l0.8-0.3c0,0,1.1-0.4,3.2-1.1c5.5-1.8,19.9-6.1,33.9-6.1h0.2c0.6,0,1.1,0,1.7,0c9.5,0.5,18.9,1.8,28.2,3.9
		c7.3,1.6,12.8,3.1,14.4,3.5l1.1,0.3c8.1,3.3,15.9,7.4,23.3,12.1l1,0.6l21-21.6L172.8,66.6z"/>
	<path class="st3" d="M170.5,68.6l-20.2-13.5l-3.5-9.9l6.2,2.2l2.5,6.2l9.5,3l-5.5-12.2l-17.9-6.4l-3.3,2.5l6,19.4l19.2,13.6
		l4.9,12.3l-8-3.6l-2.7-7.6l-9.8-2.9l5.2,17.2c1.6,0.6,3.2,1.2,4.8,1.8c4.4,1.8,8.6,3.7,12.8,5.9c2.9,1.5,5.7,3,8.5,4.7l4.2-4.3
		L170.5,68.6z"/>
	<path class="st3" d="M34.4,77.7l6.7-6l1.6,1.9l-6.6,19.1c3.6-1.6,7.3-3.1,11.1-4.4L52,72.5l-4.2-6.9l8.6-8.2l5-16.7L55.3,38
		l-5.5,15.8l-8.9,7.7L49,40.9l-8.7,3.5l-24,52.7l3.8,3.8c2.2-1.3,4.5-2.5,6.8-3.7L34.4,77.7z"/>
	<path class="st3" d="M95.3,40.1l-7.4,0.4L84.5,80c3.1-0.3,6.3-0.5,9.5-0.6L95.3,40.1z"/>
	<path class="st3" d="M117.2,71.8l-8.6-0.5l-1.4-24.2l7.2,0.4l-0.8-6.7l-9.7-0.7l-4.4,4.4l0,30.3l4.6,4.7c4.7,0.1,9.4,0.5,14,1.1
		L117.2,71.8z"/>
	<path class="st3" d="M68.7,55.7l3.1,15l-2,11.4c3-0.6,6-1.1,9-1.5l0,0L83.6,41l-6.8,1l-2.2,13L72,42.8l-8,2L52.8,86.4
		c3.2-1,6.5-1.9,9.8-2.7L68.7,55.7z"/>
	<path class="st3" d="M128.1,69.6l2.4-3.3l3.5,2.9l3.2,14.7c3.4,0.9,6.8,1.8,10.1,2.9l-6-21.6l-6.2-5.1l3.5-4.7l-2.9-11l-7.5-1.7
		l3,11l-4.7,6.3L123,42l-7-0.9c0,0,3.5,26.7,5.1,39.8c3.2,0.4,6.3,1,9.4,1.6L128.1,69.6z"/>
	<path class="st1" d="M85.6,87.5c2.7-1.3,5.7-2.1,8.7-2.3l-0.2-4.6c-3.2,0.1-6.3,0.3-9.5,0.6C84.9,83,85.3,85.7,85.6,87.5"/>
	<path class="st1" d="M104,84.9c2.4,0.4,4.8,0.9,7.1,1.7c2,0.5,4,1.2,5.9,2.1l1-7c-4.7-0.6-9.1-0.9-13.8-1.1
		C104.1,82,104.1,83.9,104,84.9"/>
	<path class="st1" d="M73.5,96.1c2.7-2,4.3-4.1,7.2-5.8c-0.5-2.6-1.3-5.9-1.8-8.4c-3.1,0.4-6.2,0.9-9.2,1.5
		C70.8,87.2,72.3,92.3,73.5,96.1"/>
	<path class="st1" d="M119.4,90.1c2.6,1.5,4.9,3.4,7,5.5l0.5,0.4l3.7-12.3c-3.2-0.7-6.3-1.2-9.6-1.7L119.4,90.1z"/>
	<path class="st1" d="M131.1,100.8l8.8,2.1l7.4-14.7c-3.4-1.1-6.7-2-10.3-2.9L131.1,100.8z"/>
	<path class="st1" d="M59.9,102.9c2.3-0.9,5.5-2,8.5-2.8l-5.7-15.2c-3.5,0.8-6.5,1.7-9.9,2.8C55,92.8,57.4,98,59.9,102.9"/>
	<path class="st1" d="M46.6,108.3c0.5-0.4,5.5-2.6,9-4.1c-2.6-4.7-5.7-9.9-8.4-14.7c-3.7,1.3-7.2,2.7-10.8,4.3L46.6,108.3z"/>
	<path class="st1" d="M34.1,115c1.6-1,3.3-1.9,5.2-3L27.5,98.1c-2.2,1.2-4.4,2.4-6.6,3.6L34.1,115z"/>
	<path class="st1" d="M144.6,104.7c7.2,3,14.2,6.7,20.8,10.9c1.8-1.7,11.6-12,12.9-13.4c-8.2-4.8-16.7-8.8-25.6-12.1L144.6,104.7z"
		/>
	<polygon class="st1" points="102.6,84.7 99.3,84.6 99.2,76.4 102.7,80 	"/>
	<path class="st2" d="M100,83.1c-21.9,0-39.6,17.7-39.6,39.6s17.7,39.6,39.6,39.6c21.9,0,39.6-17.7,39.6-39.6
		C139.6,100.8,121.9,83.1,100,83.1"/>
	<path class="st3" d="M102.5,86c-3,1.1-6,2.6-8.9,3.9c-2-1.2-3.1-1.5-4.4-2.3C93.5,86.3,98,85.7,102.5,86"/>
	<path class="st3" d="M130.8,102.8c-9.3-9.4-23.3-8.7-35.2-12c3.4-1.7,7-3.1,10.6-4.2C116.3,88.3,125.3,94.2,130.8,102.8"/>
	<path class="st3" d="M78.4,104.3c-9,13.6-10.1,30.9-3,45.5c-9.2-7.7-14.7-22.7-10.6-37.3C68.2,107.7,72.5,103.5,78.4,104.3"/>
	<path class="st3" d="M88,114c4.8,14.4,5.9,30.2,18.4,44.7c-9.7,2-19.4-0.9-27.1-5.8c-9.5-13.9-8.6-34.7,0.9-48.2
		C84.8,106.1,87.4,112.2,88,114"/>
	<path class="st3" d="M81.3,103.2c1.5-2.1,3.1-4,4.9-5.8c20.3,5.7,39.6,26.7,42.9,47.4c-1.4,1.9-3.1,3.7-4.8,5.3
		c-4.5,4-10,6.8-15.9,8.1c-9.5-9.8-12.6-22.6-15.9-35.1C89.9,113.5,88.1,106.2,81.3,103.2L81.3,103.2z"/>
	<path class="st3" d="M128.7,103.1c-9.8-8.6-23.4-7.5-34.9-11.6c-2.2,1.3-4.3,2.9-6.2,4.6c20.3,6.4,38.7,26.2,43,46.7
		c3.2-4.7,5.2-10,5.9-15.6C137,118.6,136.9,110.7,128.7,103.1"/>
	<path class="st3" d="M84.5,96.8c-1.8,1.8-3.5,3.8-4.9,5.9l0,0c-5.4-1.2-9.6,1.6-13,5c2-4.6,4.9-8.8,8.6-12.1
		C78.3,95.5,81.5,96,84.5,96.8"/>
	<path class="st3" d="M86,95.6c1.9-1.7,3.9-3.3,6.1-4.6l-5.2-2.6c-3.5,1.3-6.8,3.2-9.7,5.6C80.1,94.3,83.1,94.8,86,95.6"/>
	<path class="st2" d="M94.4,34.6l-1.6,1.6l-2.7,0.2l-1-0.9l-1.3,1.1l-3,0.3l-1.3-1.2l1.7-11.7l2.3-0.3l-1.2,10.3l1.6-0.2l1.3-10.3
		l2.2-0.2l-0.9,10.3l1.6-0.1l0.8-10.2c1-0.1,1.4-0.1,2.3-0.1L94.4,34.6z"/>
	<path class="st2" d="M101.8,22.8l0,7.4l1.4,0l-0.1-7.3c0,0,1.5,0,2.2,0.1l0.3,8.3l-1.4,1.4l-0.5,0l0.1,3.5l-2.5-0.1l0-3.5l-0.5,0
		l-1.5-1.5l0.1-8.2C100.3,22.7,101.8,22.8,101.8,22.8"/>
	<path class="st2" d="M83.6,24.1l-0.4,2.4l-2.7,0.5l-0.5,2.8c1-0.2,1.6-0.3,2.8-0.4c-0.2,1.1-0.2,1.4-0.4,2.4l-2.7,0.4l-0.5,2.7
		l2.8-0.4c0,0-0.3,1.8-0.4,2.6c-2,0.2-4,0.5-5.8,0.9c0,0,2.1-9.8,2.6-12.8L83.6,24.1z"/>
	<path class="st2" d="M73.3,38.5L70.4,39l1.3-5.3l-0.9-1.9l-2.2,7.7l-2.8,0.6c1.2-4.2,2.3-8.3,3.5-12.5c1-0.3,1.7-0.5,2.5-0.8
		c0.3,0.7,1.1,2.1,1.1,2.1l0.7-2.6c0,0,1.8-0.5,2.7-0.7L73.3,38.5z"/>
	<path class="st2" d="M113.3,25c0.3,3.4,0.8,6.6,1.2,9.7l-1.2,1.9l-4-0.3l-1.5-1.6c-0.3-3.4-0.4-6.9-0.6-10.3
		c0.4-0.5,0.9-0.9,1.4-1.3l3.4,0.3L113.3,25z M109.6,25.6l0.7,8l1.4,0.1l-0.8-7.9L109.6,25.6z"/>
	<path class="st2" d="M126.3,26.2c0.5,1.9,1.5,5.9,1.5,5.9l1,0.2l0.5-0.6l-1.2-4.9c0,0,1.2,0.3,2.4,0.7l1.3,4.8l-0.6,0.9l1.1,1.2
		l1.7,5.8l-2.8-0.6l-1.1-4.1l-1.7-0.4l0.9,4l-2.8-0.5c-1-4.4-2.7-12.9-2.7-12.9S125.2,25.9,126.3,26.2"/>
	<path class="st2" d="M122,26.7l0.9,4.8l-0.5,0.7l0.9,1.1l0.8,4.7l-2.7-0.5l-0.7-4l-1.6-0.2l0.6,3.9L117,37l-1.8-13.1l5.1,0.9
		L122,26.7z M118.1,26.9l0.5,3.3l1.5,0.2l-0.6-3.3L118.1,26.9z"/>
</g>
</svg>
