<?xml version="1.0" encoding="utf-8"?>
<!-- Generator: Adobe Illustrator 21.1.0, SVG Export Plug-In . SVG Version: 6.00 Build 0)  -->
<svg version="1.1"
	 id="Layer_1" xmlns:cc="http://creativecommons.org/ns#" xmlns:dc="http://purl.org/dc/elements/1.1/" xmlns:rdf="http://www.w3.org/1999/02/22-rdf-syntax-ns#"
	 xmlns="http://www.w3.org/2000/svg" xmlns:xlink="http://www.w3.org/1999/xlink" x="0px" y="0px" viewBox="0 0 200 200"
	 style="enable-background:new 0 0 200 200;" xml:space="preserve">
<style type="text/css">
	.st0{fill:#8D734A;}
	.st1{fill:#00103E;}
	.st2{fill:#FFFFFF;}
	.st3{fill:#CF0A2C;}
</style>
<g>
	<path class="st0" d="M198.2,84.5l-6.9-3.3c-22.7-10.9-46.8-17.7-71.9-20.3c-1.2-0.1-2.2-0.2-3.1-0.2c-8.3,0-9.7,2.8-8.7,6.7
		l-3.3-1.9L104,67c0,0-1.4-0.4-2.1-0.9c-0.5-0.3-1.9-1.3-1.9-1.3s-1.3,1-1.7,1.2c-1.2,0.9-2.4,1.1-2.4,1.1l-0.4-1.7l-3.1,1.5
		c0.6-2.7-0.5-6.1-9-6.1c-0.9,0-1.9,0.1-3.1,0.2c-25,2.5-49.2,9.3-71.9,20.3l-6.9,3.3L0,85.4l1,1.8c0.1,0.3,2.9,5.1,8.6,7
		c-0.2,0.3-0.2,0.7-0.1,1.2l1.3,1.5c1.1,1.2,3.4,3.5,6.7,4.6l-0.5,0.2l1.4,1.8c0.2,0.2,3.2,4.3,9.1,6l0,0l1.3,1.8
		c0.7,0.9,4.9,4.1,10.8,4.6l1.3,0.6c3.1,2.3,7.2,3.7,11.7,3.9l-0.3,0.2l3.9,1c0.3,0.1,6.4,1.5,13.1,1.5c3.2,0,5.9-0.3,8.2-1
		c2.6,9.9,11.7,17.3,22.4,17.3c10.9,0,20.1-7.6,22.5-17.7c2.8,0.8,5.8,1.1,9.1,1.1c6.6,0,12-1.5,12.2-1.6l2.5-0.7
		c4.9,0,9.4-1.4,12.7-4l0.7-0.4c7.9-0.5,11.3-4.8,11.4-4.8l1.3-1.8l-0.1-0.1c5.7-1.7,9-5.7,9.1-5.9l1.5-1.8l-0.7-0.3
		c4.1-1.3,6.3-3.9,7.4-5.2l0.1-0.1l0.6-0.7l-0.2-0.9c0-0.1-0.1-0.2-0.1-0.3c6-1.9,8.8-6.7,8.9-7l1-1.8L198.2,84.5z"/>
	<path class="st1" d="M86.8,104.8c-0.8,4.3,1,8.4,2.6,12.1c0.4,0.8,0.8,1.7,1.1,2.6c-1.6,0-3.2,0-4.6,0c-1.5-1.9-2.6-4.1-3.2-6.5
		C83.4,109.9,84.8,107.1,86.8,104.8z M109.5,119.2c1.7,0,3.3-0.1,4.7-0.1c1.3-1.8,2.4-3.9,2.9-6.1c-0.6-3-2-5.8-4-8.2
		c0.8,4.3-1,8.4-2.6,12.1C110.1,117.6,109.8,118.4,109.5,119.2z M82.8,119.3L82.8,119.3C82.8,119.4,82.8,119.4,82.8,119.3
		C82.9,119.4,82.9,119.3,82.8,119.3z M184.5,93c8.8,0.4,12.8-6.7,12.8-6.7l-6.9-3.3c-22.5-10.8-46.4-17.6-71.2-20.1
		c-1.1-0.1-2.1-0.2-2.9-0.2c-1.2,0-4.5,0-5.9,2.7c-0.8,2,0.2,3.8,0.7,4.6c3.2,5,5.3,7.6,5.5,11.9c0.3,5.5-0.3,7.8-3.9,11.1
		c-0.9,0.8-4.2,2.6-4.2,2.6c-0.5-0.2,4.4-13.6,4.1-13.7l-12.6-14.5L87.8,81.9c0,0,4.6,13.4,4.1,13.7c0,0-3.1-0.3-5.3-2.6
		c-2.6-2.6-3.5-7.5-3.5-10.5c0.1-4.3,1.6-7.6,6.1-13.5c1-0.9,0.7-3.2,0.4-3.8c-1.4-2.7-4.6-2.7-5.9-2.7c-0.8,0-1.8,0.1-2.9,0.2
		C55.9,65.3,32,72.1,9.5,82.9l-6.9,3.3c0,0,4.2,7.4,12.8,6.7l-3.8,1.9c0,0,5.1,7.2,13.1,5c1.2-0.3-4.7,2.5-4.7,2.5s4.8,6.4,13.9,6
		l-3.5,1.8c0.4,0.5,6.7,5.4,14.8,3.4l-3.3,1.3c0.3,0.1,6.1,5.2,17.1,3.1l-2.4,1.7c0,0,15,3.6,23.1-0.5l0,0c-0.2-1-0.3-2-0.3-3.1
		c0-11.3,9.1-20.4,20.4-20.4s20.4,9.1,20.4,20.4l0,0c0,0.9-0.1,1.8-0.2,2.7l0,0c10.3,4.2,23.1,0.5,23.1,0.5l-1.8-1.3
		c10.9,1.9,16.3-3.2,16.6-3.3l-5.5-1.3c11.3,2.6,16.6-2.9,17-3.4l-3.5-1.8c8.8,0.4,13.9-6,13.9-6l-4.5-2.2c8,0.7,11.4-3.7,12.8-5.4
		C188.4,94.8,183.2,92.5,184.5,93z M101.3,98.8v20.5c1.9,0,3.7-0.1,5.5-0.1c0.4-1.2,0.9-2.3,1.4-3.4c2.3-5.1,4.2-9.6,0.7-14.6
		C106.6,99.9,104,99,101.3,98.8z M91.8,115.9c0.6,1.2,1.1,2.4,1.5,3.6c1.8,0,3.6,0,5.4-0.1V98.8c-2.7,0.2-5.4,1-7.7,2.4
		C87.6,106.3,89.5,110.7,91.8,115.9z"/>
	<path class="st2" d="M92.6,102.8c0,0-23.1-7.7-13.1-32.3c0,0-24.4,1-57.9,14.5c0,0-2.3,1-3.7,1.5c-2.1,1-4.6,0.9-6.7-0.1
		c22-10.6,45.7-17.3,70-19.7c5.2-0.5,5.9,0.3,4.5,2.3C84.5,70.4,70.4,88.3,92.6,102.8"/>
	<path class="st0" d="M72,77.4c-13.3,1.9-26.4,5.1-39.2,9.5c3.3,5.9,12.2,3.4,12.2,3.4c16.8-4.7,24.3-6.4,26.7-6.8
		C71.7,81.5,71.8,79.4,72,77.4"/>
	<path class="st0" d="M72.2,87.1c-10.6,2.1-21,5-31.1,8.7c0,0,4.4,5,13.1,2.5c7.4-2.1,16.8-5.1,19.6-6C73,90.7,72.5,88.9,72.2,87.1"
		/>
	<path class="st0" d="M75.2,95.1c-3,1-17.9,5.8-24.2,8.2c0,0,3.6,4.9,14.1,0.7c7.3-2.9,11.3-4.5,13-5.3C77,97.7,76.1,96.4,75.2,95.1
		"/>
	<path class="st0" d="M80.4,100.9c-2.6,1.1-12.3,5.4-17.9,8.1c0,0,7.1,3.5,15.9-2l5.5-3.6C82.7,102.6,81.6,101.8,80.4,100.9"/>
	<path class="st0" d="M86.7,104.7c-1.8,1.1-9.1,5.7-12.7,8.4c0,0,6.1,2.5,12.3-3.4c2-1.9,3.1-3,3.8-3.6
		C89,105.8,87.8,105.3,86.7,104.7"/>
	<path class="st2" d="M107.4,102.8c0,0,23.1-7.7,13.1-32.3c0,0,24.4,1,57.9,14.5c0,0,2.3,1,3.7,1.5c2.1,1,4.6,0.9,6.7-0.1
		c-22-10.6-45.7-17.3-70-19.7c-5.2-0.5-5.9,0.3-4.5,2.3C115.5,70.4,129.6,88.3,107.4,102.8"/>
	<path class="st0" d="M128,77.4c13.3,1.9,26.4,5.1,39.2,9.5c-3.3,5.9-12.2,3.4-12.2,3.4c-16.8-4.7-24.3-6.4-26.7-6.8
		C128.3,81.5,128.2,79.4,128,77.4"/>
	<path class="st0" d="M127.8,87.1c10.6,2.1,21,5,31.1,8.7c0,0-4.4,5-13.1,2.5c-7.4-2.1-16.8-5.1-19.6-6
		C126.9,90.7,127.5,88.9,127.8,87.1"/>
	<path class="st0" d="M124.7,95.1c3,1,17.9,5.8,24.2,8.2c0,0-3.6,4.9-14.1,0.7c-7.3-2.9-11.3-4.5-13-5.3
		C122.9,97.7,123.9,96.4,124.7,95.1"/>
	<path class="st0" d="M119.6,100.9c2.6,1.1,12.3,5.4,17.9,8.1c0,0-7.1,3.5-15.9-2l-5.5-3.6C117.3,102.6,118.4,101.8,119.6,100.9"/>
	<path class="st0" d="M113.3,104.7c1.8,1.1,9.1,5.7,12.7,8.4c0,0-6.1,2.5-12.3-3.4c-2-1.9-3.1-3-3.8-3.6
		C111,105.8,112.2,105.3,113.3,104.7"/>
	<path class="st2" d="M118.9,116.2c0,10.4-8.5,18.9-18.9,18.9s-18.9-8.5-18.9-18.9s8.5-18.9,18.9-18.9
		C110.4,97.3,118.9,105.8,118.9,116.2L118.9,116.2"/>
	<path class="st0" d="M115,120.2c0,8.3-6.7,15-15,15s-15-6.7-15-15s6.7-15,15-15S115,111.9,115,120.2L115,120.2"/>
	<path class="st1" d="M99.8,95.6c-11.4,0-20.5,9.1-20.5,20.5s9.1,20.5,20.5,20.5s20.5-9.1,20.5-20.5l0,0
		C120.3,104.8,111.2,95.6,99.8,95.6 M117,112.8c-1.3,5-4.6,9.1-9.2,11.6c0.5-2.6,1.4-5.1,2.6-7.5c1.6-3.7,3.4-7.8,2.6-12.2
		C115.1,106.9,116.4,109.7,117,112.8 M90.8,101c2.3-1.4,5-2.2,7.7-2.4v27.5c-1.4-0.1-2.7-0.4-4-0.8c-0.4-3.4-1.3-6.6-2.9-9.7
		C89.3,110.5,87.3,106.1,90.8,101 M94.3,128c1.4,0.4,2.8,0.6,4.2,0.7v4.8c-2.2-0.2-4.4-0.7-6.4-1.7C93.2,130.8,94,129.5,94.3,128
		 M101.1,128.7c1.4-0.1,2.8-0.3,4.2-0.7c0.3,1.5,1.1,2.8,2.2,3.8c-2,1-4.2,1.6-6.4,1.7L101.1,128.7z M105.1,125.3
		c-1.3,0.4-2.7,0.7-4,0.8V98.5c2.7,0.2,5.4,1,7.7,2.4c3.5,5,1.5,9.5-0.7,14.7C106.4,118.7,105.5,121.9,105.1,125.3 M86.5,104.6
		c-0.8,4.3,1,8.4,2.6,12.2c1.2,2.4,2.1,4.9,2.6,7.6c-4.6-2.3-8-6.5-9.2-11.6C83.1,109.7,84.5,106.9,86.5,104.6 M82.5,119.1
		c2.2,3.6,5.4,6.4,9.3,8c0,0.1,0,0.2,0,0.3c-0.3,1.2-1,2.2-2,3C85.9,127.8,83.3,123.7,82.5,119.1 M109.9,130.5c-1-0.7-1.7-1.8-2-3
		c0-0.1,0-0.2,0-0.3c3.9-1.6,7.1-4.4,9.3-8C116.2,123.7,113.7,127.8,109.9,130.5"/>
	<path class="st1" d="M106.1,69.4c0,0-0.2,0.6-0.5,0.6c-1.4-0.5-2.7-1.1-4-1.8c-0.5-0.3-1.2-0.7-1.5-0.8c0,0-1,0.6-1.5,0.8
		c-1.3,0.7-2.6,1.3-4,1.8c-0.4,0-0.5-0.6-0.5-0.6s-6.4,3.9-6.4,14.6c0,8,4.2,11.6,4.2,11.6l0.6,2.3H108l0.6-2.3
		c0,0,4.2-3.6,4.2-11.6C112.5,73.3,106.1,69.4,106.1,69.4"/>
	<path class="st2" d="M109.1,81.3c0-2.8-1-5.5-2.8-7.6c0,0,0,0.9-1.6-0.1c-2.8-2-6.6-2-9.4,0c-1.5,1-1.6,0.1-1.6,0.1
		c-1.8,2.1-2.8,4.8-2.8,7.6c-0.1,1.6,0.2,3.1,0.9,4.5c1.5,4.5,6.3,7,10.9,5.5c2.6-0.8,4.6-2.9,5.5-5.4
		C108.9,84.5,109.2,82.9,109.1,81.3"/>
	<path class="st1" d="M103.4,88.7L103.4,88.7c-0.5-1-0.3-2.2,0.5-2.9c0,0,3.4,0.7,3.4-3.8c0-0.5,0.1-1,0.4-1.4c0,0-0.9-0.8-2.7,0.6
		c-1.9,1.4-2.9,5.4-3.9,4.5s-0.6-6.1-1.2-6.3l0,0c-0.5,0.2-0.2,5.4-1.2,6.3s-2-3.1-3.9-4.5s-2.7-0.6-2.7-0.6
		c0.3,0.4,0.4,0.9,0.4,1.4c0.1,4.5,3.4,3.8,3.4,3.8c0.9,0.7,1.1,1.9,0.6,2.9c0,0,0,0,0,0.1c-4-4.3-6.3-3.7-5.2,1.1
		c1.1,4.7,5.5,25.1,6.2,29.8c0.1,2.1-0.2,4.1-0.7,6.1l-0.4,0.9l0.5,1c0.6,0.9,1.1,1.8,1.5,2.8l1.7,4.2l1.6-4.2
		c0.4-1,0.9-1.9,1.5-2.8l0.5-0.9l-0.5-0.9c-0.5-1.9-0.8-3.9-0.7-5.9c0.6-4.2,5-25.2,6.2-30.1C109.8,85,107.4,84.4,103.4,88.7"/>
	<path class="st3" d="M97.3,110c-1.4-7.6-2.6-13.2-3.5-17.3c-0.7-3.1,1.2-1.9,2.2,0.1L97.3,110z"/>
	<path class="st3" d="M102.7,110c1.4-7.6,2.6-13.2,3.5-17.3c0.7-3.1-1.2-1.9-2.2,0.1L102.7,110z"/>
	<path class="st3" d="M95,84.3c-0.3-0.1-0.4-0.4-0.4-0.7l0,0c0-0.1,0.1-0.2,0.2-0.3c-0.2-0.2-0.4-0.4-0.7-0.6c0,0-0.5,2.2,1.5,2
		c-0.1-0.2-0.1-0.3-0.2-0.5C95.3,84.3,95.1,84.3,95,84.3"/>
	<path class="st3" d="M105.9,82.8c-0.2,0.2-0.5,0.4-0.7,0.6c0.2,0.2,0.3,0.5,0.1,0.7c-0.2,0.2-0.5,0.3-0.7,0.1
		c-0.1,0.2-0.2,0.3-0.2,0.5C106.3,85,105.9,82.8,105.9,82.8"/>
	<path class="st3" d="M100.9,112.8c0.6-11.7,1.6-20,1.6-21c0-0.5-0.1-0.9-0.2-1.4l-0.7,2.2l-0.2-3.9c-0.4-0.5-0.9-0.9-1.4-1.3l0,0
		c-0.5,0.4-1,0.8-1.3,1.3l-0.2,3.9l-0.7-2.2c-0.1,0.4-0.2,0.9-0.2,1.4c0,1,0.9,9.3,1.6,21c0.6,11.7-0.8,13.9-0.8,13.9
		c0.7,1.1,1.3,2.2,1.8,3.4c0.5-1.2,1.1-2.3,1.8-3.4C101.7,126.7,100.3,124.5,100.9,112.8"/>
</g>
</svg>
