<?xml version="1.0" encoding="utf-8"?>
<!-- Generator: Adobe Illustrator 21.1.0, SVG Export Plug-In . SVG Version: 6.00 Build 0)  -->
<svg version="1.1"
	 id="Layer_1" xmlns:cc="http://creativecommons.org/ns#" xmlns:dc="http://purl.org/dc/elements/1.1/" xmlns:rdf="http://www.w3.org/1999/02/22-rdf-syntax-ns#"
	 xmlns="http://www.w3.org/2000/svg" xmlns:xlink="http://www.w3.org/1999/xlink" x="0px" y="0px" viewBox="0 0 200 200"
	 style="enable-background:new 0 0 200 200;" xml:space="preserve">
<style type="text/css">
	.st0{fill:#FFFFFF;}
	.st1{fill:#002D62;}
	.st2{fill:#EF3B32;}
	.st3{fill:#FDBB30;stroke:#FDBB30;stroke-width:0.3;}
	.st4{fill:#007DC3;}
</style>
<g>
	<path class="st0" d="M185.2,77.9l13.8-4.4l-14.5,0.7l-1.7,0.1c-9.9,0.8-20,2.3-30.2,4.4c0.5-1.3,1-2.7,1.4-4.1
		c9.9-1.8,19.7-3.4,29.3-4.7l1.7-0.2l15.1-2.3l-15.2-1.5l-1.7-0.1c-5.8-0.5-11.9-0.7-17.9-0.7l-0.4,0c-2.6,0-5.3,0.1-8,0.1
		c0.2-0.8,0.4-1.6,0.6-2.4l0.4-1.5l-1.4-0.7c-20-10.3-35.9-14.5-55-14.5h-2.7l0,0c-17.9,0.4-33.2,4.7-52.3,14.5L45,61.4l0.4,1.5
		l1.2,4.9c1.8,7.2,4.2,14.1,7.3,20.6c-12.5,5.4-24.4,11.6-35.2,18.5l-1.5,0.9L0,118.7l18.9-7.7l1.6-0.6c10.2-3.7,20.7-7.3,31.5-10.7
		c-1.9,4-3.8,8.1-5.6,12.2c-0.1,0.2-0.2,0.5-0.3,0.7c-1.1,2.3-2.5,5.5-1.5,8.3c0.5,1.3,1.5,2.3,2.9,2.9l0.1,0.1l0.1,0
		c-7.5,5.2-14.5,10.8-21,16.5l-1.3,1.2l-13.1,12.2l15.3-9.1l1.5-0.8c15.1-8.4,31.1-16.5,47.4-24.1c6.9,6.6,14.8,12.7,23.8,18l1,0.6
		l1-0.6c21.1-12.7,35.5-27.6,45.2-47.4c12-4.3,24.1-8.4,36-12L185.2,77.9z"/>
	<path class="st1" d="M101.3,48.1c-20.4,0-36.1,5-54.1,14.3l1.2,4.9c2.2,9,5.4,17.2,9.4,24.8c-3.4,6.8-6.6,13.8-9.7,20.7
		c-1.2,2.8-3.8,7.6,0.1,9.3c3.6,0.9,7.2-1.5,10.3-3.1c2.8-1.4,5.6-2.8,8.4-4.2c0.9-0.5,2.7-1.3,5-2.4c8.2,9.2,18,17.1,29.2,23.8
		c29.8-17.9,45.7-40.1,54.1-73.7C137.4,53.1,121.7,48.1,101.3,48.1L101.3,48.1z"/>
	<path class="st0" d="M101.3,51.5c18.8,0,33.5,4.4,50.1,12.7c-8.1,30.6-23,51.2-50.1,67.9c-10.2-6.3-18.8-13.3-26-21.3
		c3.2-1.5,6.8-3.2,10-4.8c1.3,0.1,2.5,0.2,3.7,0.2c-0.1,1.8-0.6,3.1-1.5,4c0.5,0.6,1,1.2,1.6,1.8c1.4-1.2,2.3-3.1,2.4-5.7
		c3.3-0.1,6.5-0.4,9.4-1c-0.2,4.8-0.8,8.4-2.2,9.8l-0.1,0.1c-0.3,0.4-0.6,0.7-0.9,0.9c1.3-0.3,2.6-0.6,3.9-0.9
		c1.7-3.4,1.7-9.4,1.7-10.5c3.1-0.8,5.8-1.6,8.3-2.4c0.1,2.8,1.2,5.5,3.4,6.5c1-0.7,1.9-1.4,2.8-2.2c-0.5,0.1-4,0.3-3.9-5.2
		c7.2-2.7,11.9-6,16-10.9c1.1-2.5,2-5,2.6-7.7c-4.9,7.8-9.5,12.3-18.4,15.9c0.3-1.6,0.7-3.5,1.4-5.7c2.6-1.1,5.3-2.4,6.9-3.1
		l3.9-4.1c1-3.8,1.9-7.5,2.9-11.3l-3,0.9l3.6-3.8c0.8-2.9,1.5-5.9,2.2-8.9c-1.8,0.3-3.6,0.5-5.4,0.8c0.3-1.5,0.5-2.9,0.6-4.4
		c-0.9-0.2-1.7-0.4-2.6-0.6c-0.2,1.6-0.5,3.5-1,5.5l-0.2,0c-1.7,0.3-3.4,0.8-4.9,2.1l0.5-1.4c-2.9,0.5-5.8,1-8.6,1.6l-2.9,3l0.1-0.2
		l0.9-2.4c-2.8,0.6-5.7,1.2-8.5,1.8c-0.6-3.8-1.2-7.3-1.7-10.1c-0.8,0.1-1.6,0.2-2.4,0.3c0.5,2.8,1.1,6.4,1.7,10.3l-2,0.5l-2.6,2.7
		c-1.8-1.9-5.4-0.7-7.7-0.1c-2.5,0.6-5,1.3-7.4,1.9c-0.7,0.2-1.5,0.4-2.2,0.7c-1.9-2.7-3.6-5.4-5-8.4l-0.3-0.6
		c-0.8,0.3-1.5,0.6-2.2,0.9l0.3,0.7c1.4,2.9,3.1,5.6,4.9,8.2c-2.7,1.2-5.1,2.8-7.3,5.2c0,0-3.5,3.6-3.9,4.1c-0.9,1-1.7,2.1-2.4,3.3
		c-3.6-7.3-6.5-15.3-8.7-24.1C67.9,55.9,82.6,51.5,101.3,51.5"/>
	<path class="st2" d="M86.1,72.2c2.2-0.6,5.3-1.4,6.9,0.3l0.1,0.1l2.6-2.8l2.1-0.5l0-0.1c-0.6-3.7-1.2-7.2-1.7-10.3l0-0.1l-0.1,0
		c-8.6,1.2-17.2,3.6-25.5,7l-0.1,0.1l0.3,0.7c1.2,2.6,2.8,5.3,5,8.4l0.1,0.1l0.1,0c0.7-0.2,1.5-0.5,2.2-0.7c2.3-0.6,4.7-1.3,7.4-1.9
		C85.6,72.3,85.9,72.2,86.1,72.2z"/>
	<path class="st1" d="M96,58.7l0,0.1c0.6,3.1,1.2,6.6,1.7,10.3l0,0.1l-2.1,0.5l-2.6,2.8L93,72.4c-0.7-0.7-1.7-1-2.8-1
		c-1.4,0-2.9,0.4-4.1,0.7c-0.2,0.1-0.5,0.1-0.7,0.2c-2.7,0.7-5.2,1.3-7.4,1.9c-0.7,0.2-1.4,0.4-2.2,0.7l-0.1,0l-0.1-0.1
		c-2.2-3.2-3.8-5.8-5-8.4l-0.3-0.7l0.1-0.1c8.3-3.4,16.9-5.8,25.5-7L96,58.7 M97.6,56.6l-1.9,0.3l-0.1,0c-8.8,1.3-17.5,3.7-26,7.1
		L69.5,64l-1.9,0.8l0.9,1.9l0.3,0.7c1.3,2.7,2.9,5.4,5.2,8.7l0.1,0.1l0.8,1.2l1.4-0.5l0.1,0c0.7-0.2,1.4-0.4,2.1-0.6
		c2.3-0.6,4.7-1.2,7.4-1.9c0.2,0,0.4-0.1,0.6-0.1l0.1,0c1.1-0.3,2.5-0.7,3.6-0.7c0.7,0,1.1,0.1,1.4,0.4l0.1,0.1l1.4,1.5l1.4-1.5
		l2.2-2.3l1.5-0.3l1.8-0.4L99.7,69l0-0.1c-0.6-3.7-1.2-7.3-1.7-10.4l0-0.1L97.6,56.6L97.6,56.6z"/>
	<path class="st2" d="M91.4,106.1l-0.1,0l0,0.1c-0.1,2.4-0.9,4.3-2.3,5.6l-0.1,0.1l0.1,0.1c1.4,1.5,2.9,3.1,4.5,4.6l0,0l0.1,0
		c1.3-0.1,2.7-0.3,4.1-0.6l0,0l0,0c0.3-0.2,0.6-0.6,0.9-0.9l0.1-0.1c1.3-1.3,2.1-4.7,2.3-9.9l0-0.2l-0.2,0
		C97.9,105.7,94.7,106.1,91.4,106.1z"/>
	<path class="st0" d="M101,105.1L101,105.1 M101,105.1l0,0.2c-0.2,5.2-0.9,8.5-2.3,9.9l-0.1,0.1c-0.3,0.4-0.7,0.7-0.9,0.9l0,0l0,0
		c-1.5,0.3-2.8,0.4-4.1,0.6l-0.1,0l0,0c-1.6-1.5-3.1-3.1-4.5-4.6l-0.1-0.1l0.1-0.1c1.5-1.3,2.3-3.2,2.3-5.6l0-0.1l0.1,0
		c3.3-0.1,6.5-0.4,9.4-1L101,105.1 M103,102.6l-2.4,0.5l-0.2,0c-2.8,0.6-5.8,0.9-9,1l-0.1,0l-1.9,0l-0.1,1.9l0,0.1
		c-0.1,1.9-0.6,3.3-1.7,4.2l-0.1,0.1l-1.5,1.3l1.3,1.4l0.1,0.1c1.4,1.6,3,3.2,4.5,4.7l0,0l0.6,0.6l0.9-0.1l0.1,0
		c1.4-0.1,2.8-0.3,4.3-0.6l0.5-0.1l0.4-0.4l0,0l0,0c0.3-0.3,0.7-0.7,1.1-1.1l0.1-0.1l0.1-0.1l0,0c1.7-1.8,2.5-5.3,2.7-11.1l0-0.2
		L103,102.6L103,102.6z M101,103.1L101,103.1L101,103.1L101,103.1z M101,107L101,107L101,107L101,107z"/>
	<path class="st2" d="M68.7,67.4l-0.3-0.7l-0.1,0.1l-0.1-0.1L68,66.8l0,0c-1,0.4-2,0.9-3.2,1.5l-0.1,0.1l0,0.1
		c1,3.5,2.2,7.1,3.6,10.5l0.1,0.2l0.2-0.1c1.5-1.2,3.1-2.2,5-3.1l0.2-0.1l-0.1-0.1C71.5,72.7,69.9,70,68.7,67.4z"/>
	<path class="st1" d="M68.2,66.7l0.1,0.1l0.1-0.1l0.3,0.7c1.3,2.6,2.8,5.2,4.9,8.2l0.1,0.1l-0.2,0.1c-1.9,0.8-3.5,1.9-5,3.1
		l-0.2,0.1l-0.1-0.2c-1.3-3.4-2.5-6.9-3.6-10.5l0-0.1l0.1-0.1c1.2-0.6,2.3-1.1,3.2-1.5l0,0L68.2,66.7 M69.3,64.2l-0.8,0.4l-0.9,0.3
		l-0.2,0.1l-2.1,0.7l0.1,0.2c-0.4,0.2-0.9,0.4-1.4,0.7l-0.1,0.1l-1.5,0.7l0.5,1.6l0,0.1c1,3.6,2.2,7.2,3.6,10.7l0.1,0.2l1,2.5
		l2.1-1.7l0.2-0.1c1.4-1.1,2.9-2,4.6-2.8l0.2-0.1l2.1-1l-1.3-1.9l-0.1-0.1c-2-2.9-3.5-5.5-4.7-8l-0.3-0.7l-0.7-1.4L69.3,64.2l0,0.1
		L69.3,64.2L69.3,64.2z"/>
	<path class="st2" d="M56.7,89.3l-0.1-0.1l-0.1,0.1c-13.1,5.5-25.5,12-36.8,19.1l0.1,0.3c11.6-4.2,23.7-8.3,36-12.1l0.1,0l0-0.1
		c0.7-1.5,1.4-2.9,2.1-4.4l0-0.1l0-0.1C57.5,91.1,57.1,90.2,56.7,89.3z"/>
	<path class="st2" d="M101,98.7l-1.4,0.6c-0.3-0.6-0.5-1-0.7-1.4c-0.2-0.4-0.4-0.8-0.7-1.4l-0.2-0.3l-1,2.8l-4.1,3.3l-1.7,0.8
		l0.1,0.8l0.1,0c3.4-0.1,6.7-0.4,9.6-1.1l0.1,0v-0.1c0-1.2,0-2.5-0.1-3.8L101,98.7z"/>
	<path class="st1" d="M97.9,96.3l0.2,0.3c0.3,0.6,0.5,1,0.7,1.4c0.2,0.4,0.4,0.8,0.7,1.4l1.4-0.6l0,0.2c0,1.3,0.1,2.6,0.1,3.8v0.1
		l-0.1,0c-2.9,0.7-6.2,1-9.6,1.1l-0.1,0l-0.1-0.8l1.7-0.8l4.1-3.3L97.9,96.3 M97.6,91.3l-1.6,4.3l-0.8,2.3l-3.5,2.8l-1.5,0.7L89,102
		l0.2,1.4l0.1,0.8l0.2,1.7l1.7,0l0.1,0c3.6-0.1,6.9-0.5,10-1.2l0.1,0l1.5-0.3v-1.6v-0.1c0-1.3,0-2.6-0.1-3.9l0-0.2l-0.1-2.9
		l-2.4,1.1c-0.2-0.3-0.4-0.7-0.6-1.1l-0.2-0.3L97.6,91.3L97.6,91.3z"/>
	<path class="st2" d="M89.1,106.1l-0.1,0c-1.2,0-2.4-0.1-3.7-0.2l0,0l-1.2,0.5l0.1,0.1c1,1.2,2,2.5,3.1,3.8l0.1,0.1l0.1-0.1
		c1-1,1.5-2.4,1.6-4.1L89.1,106.1z"/>
	<path class="st1" d="M85.3,105.9L85.3,105.9c1.3,0.1,2.5,0.2,3.7,0.2l0.1,0l0,0.1c-0.1,1.7-0.6,3.1-1.6,4.1l-0.1,0.1l-0.1-0.1
		c-1.1-1.3-2.2-2.5-3.1-3.8l-0.1-0.1L85.3,105.9 M84.9,103.9l-0.5,0.2l-1.2,0.5l-2.2,1l1.5,1.9l0.1,0.1c1,1.2,2,2.5,3.2,3.8l0.1,0.1
		l1.4,1.6l1.5-1.5l0.1-0.1c1.3-1.4,2-3.2,2.1-5.3l0-0.1l0.1-2l-2,0l-0.1,0c-1.2,0-2.3-0.1-3.5-0.2l0,0l0,0L84.9,103.9L84.9,103.9z"
		/>
	<path class="st2" d="M132,60.5L132,60.5c-3-0.9-5.9-1.7-8.8-2.3c-3.8-0.4-7.8-0.6-11.7-0.6l0,0c-4.4,0-8.8,0.3-13.1,0.8l-0.2,0
		l0,0.2c0.6,3.1,1.2,6.5,1.7,10.1l0,0.2l0.2,0c2.4-0.5,5-1.1,8.2-1.8l-0.8,2.2l-0.1,0.2l0.2,0.2l2.8-3c2.8-0.5,5.6-1.1,8.3-1.6
		l-0.6,1.7l0.4-0.3c1.3-1.1,2.8-1.7,4.8-2.1l0.3-0.1l0-0.1c0.5-1.9,0.8-3.7,1-5.3c0.7,0.1,1.4,0.3,2.3,0.5c-0.1,1.4-0.3,2.8-0.6,4.3
		l0,0.2l0.2,0c1.7-0.3,3.4-0.5,5.2-0.8c-0.7,2.9-1.5,5.8-2.2,8.6l-3.9,4.1l3.3-1c-0.9,3.7-1.9,7.4-2.8,11l-3.8,4
		c-0.8,0.3-1.8,0.8-2.9,1.3c-1.2,0.6-2.6,1.2-4,1.8l-0.1,0l0,0.1c-0.7,2.1-1.2,4-1.5,5.7l0,0.3l0.2-0.1c9.3-3.7,13.8-8.7,18.4-16
		l0,0c0.8-3.3,1.2-6.7,1.2-10.1C133.7,68.7,133.2,64.6,132,60.5L132,60.5z"/>
	<path class="st2" d="M182.9,67.7c-5.8-0.5-11.8-0.7-17.8-0.7c-3.6,0-7.4,0.1-11,0.2l-0.1,0l0,0.1c-0.5,1.8-1,3.6-1.6,5.4l-0.1,0.2
		l0.2,0c10.2-1.9,20.5-3.5,30.4-4.9L182.9,67.7z"/>
	<path class="st2" d="M129.7,90.5c-4.2,5-9,8.2-16,10.8l-0.1,0l0,0.1c0,2.1,0.5,3.7,1.5,4.5c0.8,0.7,1.6,0.8,2.2,0.8
		c0.2,0,0.3,0,0.4,0l0,0l0,0c5.2-4.3,9.4-9.9,12.2-16.1l0.1-0.2L129.7,90.5L129.7,90.5z"/>
	<path class="st1" d="M130.1,90.4L130.1,90.4 M130.1,90.4l-0.1,0.2c-2.7,6.2-7,11.8-12.2,16.1l0,0l0,0c-0.1,0-0.2,0-0.4,0
		c-0.5,0-1.4-0.1-2.2-0.8c-1-0.9-1.5-2.4-1.5-4.5l0-0.1l0.1,0c7-2.6,11.8-5.9,16-10.8l0-0.1H130.1 M133.1,88.5h-3h-0.3h-0.9
		l-0.6,0.7l0,0.1c-4,4.7-8.5,7.8-15.2,10.3l-0.1,0l-1.3,0.5l0,1.3l0,0.1c0,2.7,0.7,4.8,2.1,6c0.9,0.8,2.2,1.3,3.5,1.3
		c0.2,0,0.5,0,0.7,0l0.6-0.1l0.5-0.4c5.5-4.5,9.8-10.3,12.7-16.8l0.1-0.2L133.1,88.5L133.1,88.5z M130.1,88.5L130.1,88.5L130.1,88.5
		L130.1,88.5z M130.1,92.4L130.1,92.4L130.1,92.4L130.1,92.4z"/>
	<path class="st2" d="M103.1,102.4l0.2,0c3.1-0.8,5.9-1.6,8.4-2.5l0.1,0l0-0.1c0.2-1.6,0.5-3.5,1.1-5.5l0.1-0.3l-0.3,0.1
		c-0.9,0.3-1.7,0.5-2.3,0.6c-0.4,0-0.8,0-1.1,0l-0.1,0l-0.8,0.9c-1.3,0.5-2.5,1.1-3.8,1.6l-1.5,0.6l0,0.1c0.1,1.6,0.1,3,0.1,4.3
		L103.1,102.4z"/>
	<path class="st1" d="M112.9,93.9l-0.1,0.3c-0.6,2-0.9,3.9-1.1,5.5l0,0.1l-0.1,0c-2.5,0.9-5.2,1.7-8.4,2.5l-0.2,0l0-0.2
		c0-1.3,0-2.7-0.1-4.3l0-0.1l1.5-0.6c1.3-0.6,2.5-1.1,3.8-1.6l0.8-0.9l0.1,0c0.2,0,0.4,0,0.6,0c0.2,0,0.3,0,0.5,0
		c0.6-0.1,1.4-0.3,2.3-0.6L112.9,93.9 M115.8,90.9l-3.5,1.2l-0.3,0.1c-1,0.3-1.6,0.5-2,0.6c-0.1,0-0.2,0-0.3,0c-0.1,0-0.2,0-0.3,0
		l-0.1,0l-1-0.2l-0.7,0.7l-0.6,0.6c-1.1,0.5-2.2,0.9-3.2,1.4l-0.2,0.1l-1.5,0.6l-1.2,0.5l0.1,1.3l0,0.1c0.1,1.6,0.1,3,0.1,4.2l0,0.2
		l0,2.5l2.4-0.6l0.2,0c3.2-0.8,6-1.6,8.5-2.5l0.1,0l1.2-0.4l0.1-1.2l0-0.1c0.2-1.5,0.5-3.3,1-5.2l0.1-0.3L115.8,90.9L115.8,90.9z
		 M112.9,95.9L112.9,95.9L112.9,95.9L112.9,95.9z"/>
	<path class="st2" d="M111.7,102.3l0-0.2l-0.2,0.1c-2.3,0.8-5,1.6-8.3,2.4l-0.1,0l0,0.3c-0.1,4.6-0.7,8.1-1.7,10.2l-0.1,0.3l0.3-0.1
		c4.8-1.4,9.3-3.5,13.4-6.4l0.2-0.1l-0.2-0.1C113,107.8,111.8,105.3,111.7,102.3z"/>
	<path class="st1" d="M111.7,102.1l0,0.2c0.1,3.1,1.4,5.5,3.3,6.4l0.2,0.1l-0.2,0.1c-4.1,2.9-8.6,5-13.4,6.4l-0.3,0.1l0.1-0.3
		c1-2.1,1.6-5.6,1.7-10.2l0-0.3l0.1,0c3.2-0.8,5.9-1.6,8.3-2.4L111.7,102.1 M113.5,99.4l-2.5,0.8l-0.2,0.1c-2.3,0.8-4.9,1.5-8.1,2.4
		l-0.1,0l-1.4,0.4l0,1.5l0,0.3c-0.1,5.4-0.9,8.1-1.5,9.4l-0.1,0.3l-1.9,3.9l4.2-1.2l0.3-0.1c5-1.4,9.7-3.7,14-6.7l0.2-0.1l2.8-1.9
		L116,107l-0.2-0.1c-1.2-0.6-2.1-2.4-2.2-4.7l0-0.2L113.5,99.4L113.5,99.4z"/>
	<path class="st3" d="M102.3,56.2c-15.3,0.4-29.7,4-43.6,10.5c1.6,5.5,3.5,10.8,5.9,15.9l1.6-1.7c0.7-0.8,1.4-1.5,2.2-2.1
		c-1.3-3.4-2.5-6.9-3.5-10.5c1.1-0.5,2.2-1,3.4-1.5c0.7-0.3,1.5-0.6,2.2-0.9c8.3-3.4,16.7-5.7,25.5-7c0.8-0.1,1.6-0.2,2.4-0.3
		c4.3-0.5,8.7-0.8,13.1-0.8c4,0,7.9,0.2,11.7,0.6C116.4,57,109.4,56.3,102.3,56.2L102.3,56.2z M84.4,106.5l-3.4,1.6
		c6.1,7.1,13.2,13.5,21.2,18.9c0.7-0.4,1.3-0.9,2-1.3C98.6,121.6,93.6,117,89,112c-0.5-0.6-1.1-1.2-1.6-1.8
		C86.4,109,85.4,107.8,84.4,106.5L84.4,106.5z"/>
	<path class="st0" d="M130.1,64.7c-2.2,0.3-4.3,0.7-6.5,1c-1.7,0.3-3.3,0.8-4.6,2.1c-1.1,1.1-1.6,2.5-2.1,3.9
		c-1.4,4.3-2.8,8.6-4.1,12.9c-0.5,1.7-1.4,4.8,1.3,4.6c0.9-0.2,1.8-0.5,2.7-0.9c2.8-1.2,5.5-2.3,8.3-3.5c0.7-2.7,1.4-5.4,2.1-8.1
		c-1.5,0.5-2.9,0.9-4.4,1.4c-0.3,1.2-0.7,2.4-1,3.7c-1,0.4-2,0.7-3,1.1c1.3-4.4,2.6-8.7,3.8-13.1c0.9-0.2,1.8-0.4,2.7-0.6
		c-0.2,0.8-0.4,1.5-0.6,2.3c1.3-0.3,2.6-0.6,3.9-0.9C129.1,68.7,129.6,66.7,130.1,64.7L130.1,64.7z M116.9,66.8
		c-1.9,0.3-3.8,0.7-5.7,1.1c-3.1,4-6.2,8.1-9.2,12.2c1.4-3.8,2.8-7.5,4.3-11.2c-3.2,0.7-6.4,1.4-9.6,2.1c-0.8,1.9-1.7,3.9-2.5,5.8
		c0.7-0.2,1.4-0.4,2.1-0.6c-2.5,6.1-5,12.2-7.4,18.3c-1,2.5-2,5-2.9,7.5c3.2-1.5,6.4-3,9.6-4.5c1.5-4,2.9-8,4.4-12
		c1.4,2.7,2.7,5.5,4.1,8.2c2.1-0.9,4.1-1.8,6.2-2.7c-1.3-2.9-2.5-5.8-3.8-8.6c2.3-3.5,4.6-7,7-10.4c0.7-0.2,1.3-0.3,2-0.5
		C115.9,69.8,116.4,68.3,116.9,66.8L116.9,66.8z M90.4,72.8c-1.6-0.1-3.6,0.6-4.8,0.9c-2.5,0.6-4.9,1.3-7.4,1.9c-4.2,1.2-8,3-11,6.3
		c-1.7,2-3,4.3-4.1,6.6c-3.4,6.9-6.6,13.8-9.7,20.8c-0.8,1.8-3.3,6.3-0.7,7.4c2.9,0.8,6.6-1.7,9.2-3c2.8-1.4,5.6-2.8,8.4-4.2
		c4.8-2.4,9.1-5.3,12-9.9c1.2-2,2-4.1,2.9-6.2c1.8-4.5,3.7-9,5.6-13.5c0.7-1.7,2-3.8,1.6-5.7C92.1,73.2,91.4,72.8,90.4,72.8
		L90.4,72.8z M82.2,80.3c-3.2,7-6.3,14-9.3,21.1c-2.2,1-4.5,2-6.7,3c3.2-7.5,6.6-14.9,10.1-22.3C78.3,81.5,80.2,80.9,82.2,80.3
		L82.2,80.3z"/>
	<path class="st4" d="M147.2,66.4l-0.1-0.1c-2.4-1.2-5.2-2.3-8.1-3.4c-1.4-0.5-2.6-1-3.8-1.3c-0.6-0.2-1.2-0.4-1.7-0.6l-0.3-0.1
		l0.1,0.3c0.1,0.4,0.2,0.9,0.4,1.4l0.5,2.3c0.1,0.3,0.1,0.6,0.2,1c2.4,14.8-2.7,29.8-13.6,40c-6.5,6-14.5,10-23.1,11.4l-3,0.5
		l0.2,0.2c0,0,3.5,3.5,9.4,7.9l0.1,0.1l1.7-1.2c20.1-14.3,34.4-34.4,41.3-58.2L147.2,66.4z"/>
	<path class="st0" d="M133.2,60.9l0.3,0.1c0.6,0.2,1.2,0.4,1.7,0.6c1.2,0.4,2.4,0.8,3.8,1.3c2.9,1.1,5.7,2.2,8.1,3.4l0.1,0.1l0,0.1
		c-6.9,23.8-21.2,43.9-41.3,58.2l-1.7,1.2l-0.1-0.1c-5.8-4.4-9.3-7.8-9.4-7.9l-0.2-0.2l3-0.5c8.7-1.4,16.7-5.4,23.1-11.4
		c11-10.2,16.1-25.2,13.6-40c-0.1-0.3-0.1-0.6-0.2-1l-0.5-2.3c-0.1-0.5-0.2-0.9-0.4-1.4L133.2,60.9 M130.4,58l1,3.5l0.1,0.3
		c0.1,0.4,0.2,0.8,0.3,1.3l0.5,2.2c0,0.3,0.1,0.6,0.2,0.9c2.3,14.2-2.5,28.5-13,38.3c-6.2,5.8-13.8,9.5-22.1,10.9l-3,0.5l-3.7,0.6
		l2.7,2.7l0.2,0.2c0.2,0.2,3.7,3.7,9.6,8.1l0.1,0.1l1.1,0.8l1.2-0.8l1.7-1.2c20.5-14.5,35-35,42.1-59.3l0-0.1l0.5-1.6l-1.5-0.7
		l-0.1-0.1c-2.5-1.2-5.3-2.4-8.2-3.5c-1.4-0.5-2.7-1-3.9-1.4c-0.5-0.2-1.1-0.4-1.7-0.5l-0.1,0l-0.3-0.1L130.4,58L130.4,58z"/>
	<path class="st4" d="M72.2,112.2L72.2,112.2l-0.4,0.1c-2.2,1-3.9,1.9-4.8,2.3c-2.4,1.2-4.6,2.3-6.7,3.4
		c-11.7,7.3-22.6,15.4-32.3,24l0.2,0.2c15.5-8.6,31.9-16.9,48.7-24.7l0.2-0.1l-0.1-0.1C75.3,115.6,73.7,113.9,72.2,112.2z"/>
	<path class="st4" d="M182.9,76.3c-11,0.9-22.3,2.6-33.6,5.1l-0.1,0l0,0.1c-1,2.4-2,4.8-3.1,7.1l-0.2,0.3l0.3-0.1
		c12.2-4.4,24.6-8.5,36.7-12.3L182.9,76.3z"/>
</g>
</svg>
