<?xml version="1.0" encoding="utf-8"?>
<!-- Generator: Adobe Illustrator 21.1.0, SVG Export Plug-In . SVG Version: 6.00 Build 0)  -->
<svg version="1.1"
	 id="svg2" inkscape:version="0.48.5 r10040" sodipodi:docname="NBA TRIP 2009.pdf" xmlns:cc="http://creativecommons.org/ns#" xmlns:dc="http://purl.org/dc/elements/1.1/" xmlns:inkscape="http://www.inkscape.org/namespaces/inkscape" xmlns:rdf="http://www.w3.org/1999/02/22-rdf-syntax-ns#" xmlns:sodipodi="http://sodipodi.sourceforge.net/DTD/sodipodi-0.dtd" xmlns:svg="http://www.w3.org/2000/svg"
	 xmlns="http://www.w3.org/2000/svg" xmlns:xlink="http://www.w3.org/1999/xlink" x="0px" y="0px" viewBox="0 0 200 200"
	 style="enable-background:new 0 0 200 200;" xml:space="preserve">
<style type="text/css">
	.st0{fill:#FFFFFF;}
	.st1{fill:#E51636;}
</style>
<g>
	<path id="path30" inkscape:connector-curvature="0" class="st0" d="M179,23.7c-1.9-7-7.3-9-7.3-9C147.2,3.7,122.1,0.4,100,0.6
		c-22.2-0.2-47.3,3-71.7,14.1c0,0-5.5,2-7.3,9c0,0-40.9,112.9,67.1,172.9c0,0,5.3,2.9,12,2.9c6.7,0,12-2.9,12-2.9
		C219.9,136.6,179,23.7,179,23.7"/>
	<path id="path32" inkscape:connector-curvature="0" class="st1" d="M111.5,192.4c0,0-5.1,2.7-11.5,2.7s-11.5-2.7-11.5-2.7
		C-14.9,135.1,24.2,26.8,24.2,26.8c1.8-6.8,7-8.7,7-8.7C54.7,7.6,78.7,4.4,100,4.6c21.2-0.2,45.3,3,68.7,13.5c0,0,5.2,1.9,7,8.7
		C175.8,26.8,214.9,135.1,111.5,192.4"/>
	<path id="path34" inkscape:connector-curvature="0" class="st0" d="M109.6,179.1c8.4-5.6,54.7-39,46.5-120.5
		c5.7-2.6,6.1-2.8,12.7-5.2C174.2,149.9,120.1,174.8,109.6,179.1z M30.4,53.4c6.6,2.3,7.1,2.6,12.7,5.2
		c-8.2,81.6,38.1,115,46.5,120.5C79.1,174.8,25.1,149.9,30.4,53.4L30.4,53.4z M172.6,29.9c-1.7-6.5-6.8-8.3-6.8-8.3
		C143.3,11.5,120.3,8.5,100,8.7c-20.3-0.2-43.4,2.8-65.8,12.9c0,0-5,1.8-6.8,8.3c0,0-37.4,103.6,61.5,158.6c0,0,4.8,2.7,11,2.7
		s11-2.7,11-2.7C210,133.6,172.6,29.9,172.6,29.9"/>
	<path id="path36" inkscape:connector-curvature="0" class="st1" d="M116,134.7c-0.8-0.1-0.9-0.2-0.9-1.2v-3c0-1,0.1-1.1,0.9-1.2
		l0.2-0.1c0.1-0.1,0.1-0.3,0-0.4c-0.4,0-1,0.1-1.7,0.1c-0.6,0-1.3,0-1.6-0.1c-0.2,0-0.2,0.3-0.1,0.4l0.2,0.1
		c0.9,0.2,0.9,0.2,0.9,1.2v3c0,1,0,1.2-0.9,1.2l-0.4,0.1c-0.1,0.1-0.1,0.3,0.1,0.4c0.3,0,1.2-0.1,1.8-0.1c0.7,0,1.5,0,1.9,0.1
		c0.2,0,0.2-0.3,0.1-0.4L116,134.7"/>
	<path id="path38" inkscape:connector-curvature="0" class="st1" d="M120.5,128.6c-1.6,0-2.9,1.2-2.9,2.9c0,1.2,0.8,2.2,2,2.2
		c0.6,0,1-0.2,1.5-0.5c0-0.1,0-0.2-0.1-0.3c-0.2,0.1-0.5,0.2-0.7,0.2c-1,0-1.6-1.2-1.6-2.2c0-1,0.6-1.8,1.5-1.8
		c1.5,0,1.8,1.6,1.8,2.6c0,2.7-1.6,4.4-2.3,4.9c-0.5,0.5-1.2,0.9-2.1,1.1c-0.1,0.1,0,0.3,0.1,0.3c1.1-0.2,2.4-0.8,3.4-1.7
		c1.6-1.4,2.2-3.1,2.2-4.6C123.1,129.9,122.3,128.6,120.5,128.6"/>
	<path id="path40" inkscape:connector-curvature="0" class="st1" d="M130.1,133.5c-0.3,0.7-0.7,0.7-1.5,0.7h-1.8
		c-0.2,0-0.3-0.1-0.3-0.2l1.2-1.2c0.9-0.9,1.3-1.6,1.3-2.4c0-1-0.7-1.7-2-1.7c-1.2,0-2,0.9-2.4,1.6c0,0.2,0.2,0.2,0.3,0.2
		c0.4-0.6,0.9-1,1.6-1c0.8,0,1.3,0.5,1.3,1.4c0,0.9-0.8,1.8-1.6,2.7c-0.6,0.6-1.1,1-1.5,1.3c0,0.1,0,0.2,0.1,0.2
		c0.3,0,0.9-0.1,1.3-0.1h1.5c0.9,0,1.5,0,2,0.1c0.2-0.4,0.4-0.9,0.7-1.5C130.4,133.5,130.1,133.4,130.1,133.5"/>
	<path id="path42" inkscape:connector-curvature="0" class="st1" d="M135.1,128.6c-0.2,0.1-0.2,0.2-0.8,0.2l-1,0.2
		c-0.5,0.1-0.8,0.2-0.9,0.2c-0.2,0.1-0.5,0.5-0.6,0.9c-0.2,0.5-0.3,0.9-0.3,1.2c0,0.5,0.5,0.8,1.2,1.2c0.6,0.5,1.2,1.2,1.2,2.1
		c0,1.6-1.6,2.7-2.3,3c-0.2,0.1-0.1,0.3,0.2,0.4c1.1-0.3,3.3-1.7,3.3-3.7c0-1.2-0.7-2-1.6-2.7c-0.2-0.2-0.5-0.3-0.7-0.5
		c-0.4-0.3-0.5-0.5-0.4-0.7c0.1-0.2,0.2-0.4,0.5-0.4l1.9-0.2c0.5-0.1,0.7-0.6,0.9-0.9C135.2,128.6,135.2,128.6,135.1,128.6"/>
	<path id="path44" inkscape:connector-curvature="0" class="st1" d="M127.4,104.3c3.4-4.1,16,1.2,16,3.1c-2.2,0.9-3.8,1-5.6,1.2
		C133.7,108.9,128,105,127.4,104.3L127.4,104.3z M138.7,120.9c-5.4-0.2-8.7-5.2-8.7-10.8c1.6,0.2,3.4,1.2,4.2,2.3
		C136.1,114.3,138,117.6,138.7,120.9z M126.8,119.6c-1.6-0.5-3.2-2.4-4-3.4c-2.5-3.7-1.5-8.4,0.5-11.9c0.6,0.5,1.3,1.4,2,2.3
		C128.5,111.1,127.7,113.8,126.8,119.6L126.8,119.6z M111.6,96.5c2.9-1.5,4.4-4.4,6.9-6.1c4.2-2.9,8-2.3,8.7-1.5
		c-0.9,1.7-3.6,4.9-5.4,6.4C118.6,97.2,112.6,97.4,111.6,96.5L111.6,96.5z M116.2,117.5c-0.5-1.1-1.4-2.3-1.9-3.4
		c-1-2.4-0.5-7.3,0.5-9.5c0.8-1.6,2.4-2.3,3.4-3.7C121.7,104.3,117.4,116.9,116.2,117.5L116.2,117.5z M104,109.3
		c0.4-3,1.2-7.6,3.2-8.9c1.3-0.9,4.1-1.7,5.6-1.9C113.8,101.5,109.4,108.9,104,109.3z M101.8,93.9c-1.5-0.4-2.9-1-3.8-1.6
		c3.9-4.1,10.1-6.7,13.7-5.3c-0.9,2.4-3.4,4.8-5.9,5.9C105.1,93,102.9,94.1,101.8,93.9L101.8,93.9z M100.1,110.4
		c-0.5-2.7-4.5-9-3.4-12.7c0.3-0.9,0.6-2,1.1-3c1.6,0.8,3.7,4.2,4.2,5.6C103.3,104.5,100.9,110.1,100.1,110.4L100.1,110.4z M91,90.1
		c0.4-4.9,5.9-9.5,13.4-10.3c-0.2,4.6-4.5,9.3-8.3,10.3C94.5,90.4,91.3,90.3,91,90.1z M91.2,109.3c-0.7-2.8-2.5-4.8-3.2-7.7
		c-0.2-0.9-0.5-2.4-0.2-3.7c0.5-1.6,1.6-3.4,2.5-4.6C94.1,94.8,95.5,105.7,91.2,109.3L91.2,109.3z M84.7,88.3
		c-2.8-4.5-2.9-8.4-0.5-13.5c2.9,0.4,8.7,9.4,3.3,16.3C86.4,90.5,85.4,89.4,84.7,88.3z M79.3,103.2c-1.7,0.9-4.1,0.8-6.8,1.5
		c2.4-11,10.8-11.6,12.7-11.6C85.2,95.8,84.1,100.7,79.3,103.2L79.3,103.2z M70.6,93.8c-3.2-1.1-9.1-6.2-9.8-9.3
		c2.3,0.1,3.9,0.5,5.8,0.9c2.8,0.4,4.4,0.5,7.1,2.6c1.3,1.1,2.9,3.7,3,4.8C75.8,93.6,72.5,94.4,70.6,93.8z M64.7,103.2
		c-0.9,0.5-2.2,0.5-3.1,0.6c-1.8,0.2-3.7-0.5-5.1-0.9c0-0.2,6.4-4.8,10.2-6.2c0.8-0.3,4.4-0.5,5.1-0.1
		C71.2,98.3,66.4,102.4,64.7,103.2L64.7,103.2z M53.1,91.8c1.2-1.5,8.7-1.4,10.1-0.5c1,0.6,3.3,2.3,4.5,2.7c-0.5,1-3.8,2.1-6.1,2
		C58.6,95.9,54.6,94.1,53.1,91.8L53.1,91.8z M71.5,75.5c1.8,0.3,6.7,2.9,7.8,4c1,1,1.4,2.9,1.8,4.5c0.5,2.2,0.5,4.8-0.2,6.1
		c-2.7-0.3-7.9-5.3-8.7-8.5C71.2,78.3,71.3,77.1,71.5,75.5z M116.1,81.8c2,5.7-1,13-11.6,14.6c0-0.1,9.2-4.2,9.6-10.2
		c-1-0.4-2.9-0.7-2.8-0.7C112.4,84,114.8,82.1,116.1,81.8L116.1,81.8z M137.5,93.9c-0.3,1-1.1,1.5-1.8,2.1c-5.6,5-7.3,3.7-13.5,3
		C125.8,92.8,134.4,92,137.5,93.9L137.5,93.9z M70.3,130c0-3.2,0-7.3,0.4-10.2c0.1-0.9,0.2-2,0.3-2.7c0.1-0.6,0.1-0.9,0.3-1.3
		c2.8,0.1,5.2,0.9,7.9,1.2c1.2-1.2,2.7-2,4.1-3c0.9-0.7,2.2-1.5,3-2.1c0.1-0.1,0.2-0.2,0.2-0.3s-0.1-1-0.3-1.5c-0.9,0-3,0.9-4.3,1.3
		c-2.2,0.8-4.5,1.2-6.6,1.8c-1.6,0.5-3.4,1.1-4.8,1.3c-1.2-0.1-2.6-1.2-3-2.1c-0.6-1.4,1.6-6.9,1.2-9.2c2.1-2.1,3.1-3.5,4.1-4
		c-1.5,2.5-2.3,4.8-2.3,7.8c2.6-0.3,5.6-0.5,8.2-1.4c4.1-1.6,5.8-3.4,7.3-5.4c1,5.6,3,7.4,4.5,11.9c3.1,0.2,5.4-8.6,5.4-8.6
		c1.3,5.2,3,6.1,3.7,9.4c1.2-0.2,2.3-2.8,3-3c0.2,0.5,0.2,0.9,0.4,1.3c5.2-0.4,9.2-4.6,9.3-4.6c-2.3,5.7,2.8,13.1,3.4,13.7
		c2-0.9,4.5-4.5,4.9-4.9c0.9,2.2,2.3,4.1,4.1,5.4c0.9,0.6,1.6,1,2.6,1.6c0.9-0.9,1.6-3.7,2.1-4.3c2.3,2.6,7.1,5.2,10.6,4
		c0,0-0.6-8.4-6.1-11.7c0.8,0.1,1.9,0.4,2.7,0.5c1.2,0.2,7-0.8,9.1-3.1c-1.6-2.5-4.9-5.9-12-6.3c1.8-0.5,5.9-5.6,6.2-8.4
		c-1.6-1.5-4.3-1.7-6.3-2.1c0.6-4.3-2.9-7-3.3-7.4c-0.2-0.5-0.4-6.6-8.4-8.7c-0.2-0.1-2.1-4.5-6.9-6.7c-7.4-3.4-13-0.9-14.3-0.5
		c-11.3-1.7-14.1,3.5-14.8,4.3c-0.3,0.4-4.5-0.5-8.6,4c-1.1-0.2-5.6-2.6-7.2-2.2c-0.6,1.8,0.2,8.6,0.5,9.9
		c-3.8,0.9-10.2-1.6-11.6-0.4c-0.5,2.8,2,6.1,2,6.1c-2.9-0.3-8.5,0.1-10.2,1.4c-0.4,0.4,0.6,2.7,2.1,4.1c1.6,1.6,4.1,2.9,7.5,3.1
		c0,0.1-6.1,3.7-8.1,6.4c0.6,0.4,4.9,1.6,5.3,1.8c2.3,0.8,9-1.5,9.1-1.5c-0.4,1.8-1.6,6.6-1.6,7.6c0.1,1.4,2.8,3.4,3.8,4
		c0,3.1-0.3,12.2-0.3,12.2c0,1.4-0.2,3.4,0.2,4.5c1.3,0.2,6.4-1.1,6.6-0.9c0.5,0.7,0.5,3,0.8,3.9c0.9,0.2,1.6,0.6,2.5,0.8
		c0.2,0.8-0.5,2.2,0,2.9c0.4,1,2,1.2,3,1.6c0,1.8,0.1,3.6,0.1,5.5c0.5,0.9,4.1,2.3,5.1,2.9c0-0.1,7.8-7.6,7.9-7.6
		c1.5,1.5,2.5,2.6,3.5,4.3c-1.2,3.4-5.5,9.5-5.9,9.8c-0.2,0.3,1,1.2,1.2,1.4c1.6-1.9,2.2-2.7,3.6-5.1c1.4-2.4,2.1-3.7,3.4-6.6
		c-1.3-1.7-2.8-3.3-4.1-4.8c0.6-1.9,1.5-2.5,2.6-4.3c-0.5-0.3-0.7-0.5-1.3-0.5c-3.7,4.5-6.7,7.3-10.9,11.1c-0.5-0.4-2.3-1-2.9-1.2
		c-0.2-1.2,0.2-4.8-0.2-5.5c-0.5-1.2-2-1-2.9-1.6c-0.1,0-0.2-0.2-0.3-0.2c0.2-4.1,0-3-2.6-4.2c-0.1-0.1-0.2-0.5-0.2-0.8
		c0-1.2-0.1-3.5-0.4-4.5c-1.2,0.1-5.8,1.5-6.6,1.9c-0.1,0-0.2,0-0.2,0l-0.1-0.2C70.3,130.3,70.3,130.1,70.3,130"/>
	<path id="path46" inkscape:connector-curvature="0" class="st1" d="M42.3,31c-0.3-0.9-1.2-1.1-2.1-0.8c-0.9,0.3-1.5,1.1-1.2,2
		l2.3,6.4c0.3,0.9,1.2,1,2.1,0.7c0.9-0.3,1.5-1,1.2-1.9L42.3,31z M44.7,42.2c-2.9,1-5.7,0.5-6.7-2.3l-2.3-6.4
		c-1-2.7,0.8-5.1,3.6-6.1c2.9-1,5.7-0.5,6.7,2.3l2.3,6.4C49.3,38.8,47.5,41.2,44.7,42.2"/>
	<path id="path48" inkscape:connector-curvature="0" class="st1" d="M61.5,33.7c0.3-0.1,0.6,0,0.7,0.4l0.5,2
		c0.1,0.3-0.1,0.5-0.5,0.6L53,39.2c-0.4,0.1-0.6,0-0.7-0.3l-3.7-13.8c-0.1-0.3,0.1-0.5,0.5-0.6l2.5-0.7c0.3-0.1,0.6,0,0.7,0.3
		l2.9,10.8c0.1,0.4,0.5,0.5,0.9,0.4L61.5,33.7"/>
	<path id="path50" inkscape:connector-curvature="0" class="st1" d="M66.7,20.8c0.1-0.4,0.2-0.6,0.9-0.7l2.7-0.5
		c0.7-0.2,0.8,0.4,0.7,0.6l-2.7,8C68,28.6,68,28.7,68.1,29l1.2,5.9c0.1,0.3-0.1,0.5-0.5,0.6L66.3,36c-0.4,0.1-0.6-0.1-0.7-0.4
		l-1.2-6c0-0.2-0.1-0.3-0.3-0.5l-5.6-6.4c-0.2-0.2-0.3-0.7,0.4-0.9l2.7-0.5c0.5-0.1,0.7-0.2,1,0.3l2.7,3.4c0.2,0.2,0.3,0.2,0.4-0.1
		L66.7,20.8"/>
	<path id="path52" inkscape:connector-curvature="0" class="st1" d="M84.1,18.4c0.2-0.5,0.4-0.6,0.9-0.7l2.1-0.2
		c0.4-0.1,0.7,0.2,0.8,0.5l1.5,14.1c0,0.3-0.2,0.5-0.5,0.6L86.5,33c-0.4,0.1-0.6-0.1-0.6-0.5l-0.7-6.2c0-0.2-0.2-0.2-0.3,0
		c-0.5,1.6-0.9,3.1-1.6,4.6c-0.2,0.3-0.4,0.4-0.8,0.5l-0.9,0.1c-0.4,0.1-0.6,0-0.9-0.4L78.2,27c-0.2-0.2-0.3-0.2-0.3,0l0.6,6.2
		c0,0.3-0.2,0.5-0.5,0.5L75.5,34c-0.4,0.1-0.6-0.1-0.6-0.5l-1.5-14.1c0-0.3,0.2-0.6,0.6-0.7l2.1-0.2c0.6-0.1,0.7-0.1,1,0.5l4.1,7
		c0.2,0.3,0.3,0.2,0.4-0.1L84.1,18.4"/>
	<path id="path54" inkscape:connector-curvature="0" class="st1" d="M98.6,23.3c0.9,0,1.6-0.6,1.6-1.5c0-0.9-0.7-1.5-1.6-1.5h-1.7
		c-0.5,0-0.6,0.3-0.6,0.6v1.8c0,0.5,0.2,0.6,0.6,0.6L98.6,23.3L98.6,23.3z M96.2,32.1c0,0.3-0.2,0.5-0.6,0.5H93
		c-0.4,0-0.6-0.2-0.6-0.5l-0.1-14.3c0-0.3,0.2-0.5,0.6-0.5h5.5c3.3,0,5.4,1.9,5.4,4.6c0,2.6-2.2,4.5-5.4,4.5h-2.4L96.2,32.1"/>
	<path id="path56" inkscape:connector-curvature="0" class="st1" d="M106.1,32.6c-0.4,0-0.6-0.2-0.5-0.5l0.6-14.3
		c0-0.3,0.2-0.5,0.6-0.5l2.6,0.1c0.3,0,0.6,0.2,0.5,0.5l-0.6,14.3c0,0.3-0.2,0.5-0.6,0.5L106.1,32.6"/>
	<path id="path58" inkscape:connector-curvature="0" class="st1" d="M119.2,23.6c-0.1-0.2-0.2-0.2-0.2,0l-1.2,3.4
		c-0.1,0.2,0,0.4,0.3,0.4l1.2,0.2c0.2,0,0.4-0.1,0.3-0.5L119.2,23.6L119.2,23.6z M115.6,32.8c-0.1,0.3-0.4,0.4-0.6,0.3l-2.5-0.2
		c-0.7-0.1-0.6-0.5-0.5-0.7l5.9-13.7c0.1-0.2,0.3-0.3,0.6-0.3l2.7,0.3c0.2,0,0.5,0.2,0.5,0.5l2.8,14.7c0.1,0.2,0.1,0.7-0.7,0.6
		l-2.6-0.3c-0.3,0-0.5-0.2-0.5-0.5l-0.3-2.3c-0.1-0.4-0.2-0.6-0.7-0.7l-2.3-0.2c-0.5-0.1-0.7,0.2-0.9,0.5L115.6,32.8"/>
	<path id="path60" inkscape:connector-curvature="0" class="st1" d="M131.2,35.6c-3.2-0.6-5-2.7-4.5-5.4l1.2-6.7
		c0.5-2.7,3-4,6.1-3.4c1.2,0.2,2.3,0.5,3.3,1.4c0.9,0.8,1.3,1.7,1.4,2.3c0.1,0.2-0.1,0.5-0.5,0.7L136,25c-0.6,0.2-0.6-0.2-0.8-0.5
		c-0.4-0.9-0.9-1.2-1.8-1.5c-0.9-0.2-1.7,0.3-1.9,1.1l-1.2,6.7c-0.2,0.8,0.5,1.5,1.3,1.6c0.9,0.2,1.6-0.1,2.3-0.7
		c0.2-0.2,0.4-0.5,0.7-0.2l2,1.4c0.3,0.2,0.3,0.5,0.1,0.8c-0.4,0.5-1.2,1.2-1.5,1.3C134,35.9,132.6,35.8,131.2,35.6"/>
	<path id="path62" inkscape:connector-curvature="0" class="st1" d="M147.6,27.8c0.2-0.9-0.3-1.6-1.2-1.8c-0.9-0.2-1.8,0-2,0.9
		l-1.8,6.6c-0.2,0.9,0.5,1.6,1.3,1.8c0.9,0.2,1.8,0,2-0.9L147.6,27.8z M143.1,38.3c-3-0.8-4.9-2.8-4.1-5.7l1.8-6.6
		c0.8-2.8,3.6-3.7,6.5-2.9c3,0.8,4.9,2.9,4.2,5.8l-1.8,6.6C148.8,38.2,146,39,143.1,38.3"/>
	<path id="path64" inkscape:connector-curvature="0" class="st1" d="M151.4,39.6c-0.2-0.4-1.2-2.4-0.1-2.5l2.2-0.2
		c0.6-0.1,0.8,0.2,0.9,0.6c0.2,0.9,0.5,1.4,1.6,1.8c0.9,0.3,1.7,0,2-0.8c0.3-0.9-0.2-1.5-1.6-2.8c-2.3-2.2-3.6-3.8-2.7-6.2
		c0.9-2.5,3.6-3.4,6.6-2.3c1.2,0.5,2.2,0.9,3,2c0.7,0.9,1,1.9,1,2.5c0,0.2-0.1,0.4-0.5,0.5l-2,0.4c-0.3,0.1-0.5-0.1-0.7-0.4
		c-0.2-0.5-0.5-1.7-1.7-2.1c-0.9-0.3-1.7,0-2,0.8c-0.2,0.8,0.2,1.2,0.9,1.8c1.2,1.2,2.5,2.1,3.3,3.5c0.6,1.2,0.7,2.3,0.2,3.7
		c-0.9,2.5-3.5,3.4-6.6,2.3C153.3,41.5,152.1,40.8,151.4,39.6"/>
	<path id="path66" inkscape:connector-curvature="0" class="st1" d="M60.4,52.8c0.7-0.2,0.9-0.9,0.8-1.4c-0.2-0.5-0.7-1-1.5-0.8
		l-1.6,0.5c-0.4,0.2-0.4,0.3-0.3,0.5l0.5,1.5c0.1,0.2,0.2,0.3,0.5,0.2L60.4,52.8z M58.9,48.7c0.7-0.2,0.9-0.8,0.8-1.3
		c-0.2-0.5-0.8-0.8-1.4-0.6l-1.5,0.5c-0.3,0.1-0.3,0.2-0.2,0.5L57,49c0.1,0.3,0.2,0.4,0.5,0.3L58.9,48.7L58.9,48.7z M63.7,50.4
		c0.7,2-0.3,3.7-2.6,4.4L57,56.1c-0.2,0.1-0.5,0-0.5-0.2l-3.2-9.4c-0.1-0.2,0-0.4,0.3-0.5l4-1.3c2.2-0.7,4-0.1,4.6,1.8
		c0.2,0.7,0.2,1.5-0.5,2.1c-0.1,0.1,0,0.2,0.1,0.2C62.7,48.9,63.4,49.5,63.7,50.4"/>
	<path id="path68" inkscape:connector-curvature="0" class="st1" d="M68.4,45.5c-0.1-0.2-0.2-0.1-0.2,0.1l0.1,2.5
		c0,0.2,0.1,0.2,0.3,0.2l0.9-0.2c0.2,0,0.2-0.2,0.2-0.4L68.4,45.5z M68.1,52.4c0,0.2-0.2,0.3-0.3,0.4l-1.7,0.4
		c-0.5,0.1-0.5-0.2-0.5-0.3l0.6-10.3c0-0.2,0.2-0.3,0.3-0.3l1.8-0.5c0.2-0.1,0.4,0,0.5,0.2l5.3,8.9c0.1,0.1,0.2,0.4-0.3,0.5L72,51.9
		c-0.2,0.1-0.4,0-0.5-0.2l-0.7-1.4c-0.2-0.2-0.2-0.4-0.6-0.3l-1.6,0.4c-0.4,0.1-0.5,0.2-0.5,0.5L68.1,52.4"/>
	<path id="path70" inkscape:connector-curvature="0" class="st1" d="M75.9,50.3c-0.2-0.2-1.6-1-0.9-1.5l1.2-0.9
		c0.3-0.2,0.5-0.2,0.7,0.1c0.4,0.5,0.8,0.7,1.6,0.5c0.6-0.1,1-0.6,0.9-1.2c-0.1-0.6-0.6-0.9-2-1.1c-2.2-0.5-3.5-1.1-3.8-2.8
		c-0.3-1.8,1-3.3,3.2-3.7c0.9-0.2,1.6-0.2,2.5,0.2c0.8,0.3,1.2,0.8,1.5,1.2c0.1,0.1,0.1,0.2-0.2,0.5l-1.1,0.9
		c-0.2,0.2-0.4,0.2-0.5,0c-0.4-0.2-0.9-0.9-1.8-0.7c-0.6,0.1-1,0.6-0.9,1.2c0.1,0.5,0.6,0.7,1.2,0.8c1.2,0.3,2.3,0.4,3.2,1
		c0.8,0.5,1.2,1.2,1.4,2.1c0.3,1.8-0.9,3.3-3.2,3.7C77.7,50.8,76.7,50.8,75.9,50.3"/>
	<path id="path72" inkscape:connector-curvature="0" class="st1" d="M88.3,38.8c0.2-0.2,0.3-0.3,0.8-0.4l1.6-0.2
		c0.2,0,0.5,0,0.5,0.3c0,0.1,0,0.2-0.1,0.2l-2.5,3.6c-0.2,0.2-0.2,0.3,0.2,0.4c1.6,0.1,2.7,1.2,2.9,2.6l0.3,3c0,0.2-0.2,0.4-0.4,0.4
		L89.7,49c-0.3,0-0.5-0.1-0.5-0.3l-0.3-3c-0.1-0.7-0.8-1-1.5-0.9c-0.6,0.1-1.3,0.5-1.2,1.2l0.3,3c0,0.2-0.1,0.4-0.4,0.4l-1.8,0.2
		c-0.3,0-0.5-0.1-0.5-0.3l-0.9-9.8c0-0.2,0.1-0.4,0.4-0.4l1.8-0.2c0.2,0,0.5,0.1,0.5,0.3l0.2,2.6c0,0.2,0.2,0.3,0.3,0.1L88.3,38.8"
		/>
	<path id="path74" inkscape:connector-curvature="0" class="st1" d="M100.6,46.5c0.2,0,0.4,0.1,0.5,0.4v1.4c0,0.2-0.2,0.4-0.4,0.4
		L94,48.9c-0.3,0-0.4-0.1-0.5-0.4l-0.2-9.9c0-0.2,0.2-0.4,0.4-0.4l6.7-0.2c0.2,0,0.4,0.1,0.5,0.4v1.4c0,0.2-0.2,0.4-0.4,0.4l-4,0.1
		c-0.5,0-0.5,0.2-0.5,0.4v1.2c0,0.4,0.1,0.5,0.5,0.5l3.1-0.1c0.3,0,0.4,0.1,0.5,0.4v1.4c0,0.2-0.2,0.4-0.4,0.4l-3.2,0.1
		c-0.5,0-0.5,0.2-0.5,0.4v1.4c0,0.4,0.2,0.4,0.6,0.4L100.6,46.5"/>
	<path id="path76" inkscape:connector-curvature="0" class="st1" d="M102.5,40.1c-0.3,0-0.5-0.2-0.4-0.4l0.1-1.4
		c0-0.2,0.2-0.4,0.5-0.3l6.7,0.3c0.2,0,0.4,0.2,0.4,0.4l-0.1,1.4c0,0.2-0.2,0.4-0.5,0.3l-1.6-0.1c-0.4,0-0.5,0.2-0.5,0.3l-0.3,7.8
		c0,0.2-0.2,0.4-0.5,0.3l-1.8-0.1c-0.3,0-0.4-0.2-0.4-0.4l0.3-7.7c0-0.2,0-0.4-0.5-0.4L102.5,40.1"/>
	<path id="path78" inkscape:connector-curvature="0" class="st1" d="M115.4,43.1c0.7,0.1,1.2-0.3,1.2-0.9c0.1-0.6-0.4-1.1-1-1.2
		l-1.6-0.2c-0.3,0-0.4,0.1-0.4,0.3l-0.2,1.2c0,0.3,0.1,0.5,0.4,0.5L115.4,43.1L115.4,43.1z M115.1,47.4c0.8,0.1,1.2-0.4,1.2-0.9
		c0.1-0.5-0.2-1.2-1-1.3l-1.6-0.2c-0.4-0.1-0.5,0.1-0.5,0.4l-0.2,1.5c0,0.3,0,0.4,0.5,0.4L115.1,47.4z M119,46.6
		c-0.2,2.1-1.8,3.2-4.1,2.9l-4.3-0.5c-0.3,0-0.4-0.2-0.4-0.4l1.1-9.8c0-0.2,0.2-0.3,0.5-0.3l4.1,0.5c2.3,0.2,3.6,1.6,3.4,3.5
		c-0.1,0.8-0.5,1.4-1.3,1.7c-0.1,0.1-0.1,0.1,0,0.2C118.7,44.9,119.1,45.8,119,46.6"/>
	<path id="path80" inkscape:connector-curvature="0" class="st1" d="M124.8,44c0-0.2-0.1-0.2-0.2,0l-1,2.3c-0.1,0.2,0,0.2,0.2,0.3
		l0.9,0.2c0.2,0,0.3-0.1,0.2-0.3L124.8,44z M121.8,50.2c-0.1,0.2-0.3,0.2-0.5,0.2l-1.7-0.3c-0.5-0.1-0.4-0.4-0.3-0.5l4.8-9.1
		c0.1-0.2,0.2-0.2,0.5-0.2l1.9,0.3c0.2,0,0.3,0.2,0.4,0.3l1.2,10.3c0,0.2,0,0.5-0.5,0.4l-1.8-0.3c-0.2,0-0.3-0.2-0.4-0.3l-0.1-1.6
		c0-0.3-0.1-0.5-0.5-0.5l-1.6-0.3c-0.4-0.1-0.5,0.1-0.6,0.3L121.8,50.2"/>
	<path id="path82" inkscape:connector-curvature="0" class="st1" d="M136.6,51.8c0.2,0.1,0.4,0.2,0.3,0.5l-0.3,1.3
		c-0.1,0.2-0.2,0.3-0.5,0.2l-6.5-1.7c-0.3-0.1-0.4-0.2-0.3-0.5l2.5-9.5c0.1-0.2,0.2-0.3,0.5-0.2l1.7,0.5c0.2,0.1,0.4,0.2,0.3,0.5
		l-2,7.4c-0.1,0.3,0.1,0.5,0.4,0.5L136.6,51.8"/>
	<path id="path84" inkscape:connector-curvature="0" class="st1" d="M145.5,54.8c0.2,0.1,0.4,0.2,0.2,0.5l-0.5,1.3
		c-0.1,0.2-0.2,0.3-0.5,0.2l-6.3-2.3c-0.2-0.1-0.4-0.2-0.3-0.5l3.3-9.3c0.1-0.2,0.2-0.3,0.5-0.2l1.7,0.6c0.2,0.1,0.4,0.2,0.3,0.5
		l-2.6,7.3c-0.1,0.3,0,0.5,0.4,0.6L145.5,54.8"/>
</g>
</svg>
