<?xml version="1.0" encoding="utf-8"?>
<!-- Generator: Adobe Illustrator 21.1.0, SVG Export Plug-In . SVG Version: 6.00 Build 0)  -->
<svg version="1.1"
	 id="Layer_1" xmlns:cc="http://creativecommons.org/ns#" xmlns:dc="http://purl.org/dc/elements/1.1/" xmlns:rdf="http://www.w3.org/1999/02/22-rdf-syntax-ns#"
	 xmlns="http://www.w3.org/2000/svg" xmlns:xlink="http://www.w3.org/1999/xlink" x="0px" y="0px" viewBox="0 0 200 200"
	 style="enable-background:new 0 0 200 200;" xml:space="preserve">
<style type="text/css">
	.st0{fill:#130C0E;}
	.st1{fill:#BAC3C8;}
	.st2{fill:#0077BF;}
	.st3{fill:#FFFFFF;}
</style>
<g>
	<path class="st0" d="M165.5,68.1c54.6,21.6,31.9,85.1-8.1,85.6c-21.9,0.3-40.6-20.1-39-41.8c-9.8-7.9-22.3-11.7-34.2-15.1
		c12.3-0.8,24.7,1.3,36,6.3l3.7-8c-18.3-6.7-47.3-7.9-65.2,0.7l4.9-11.4c-18.9,4.2-40,15.8-55.6,30.5c10.9-21,35.7-42.2,58.3-49.3
		l-1.7,4.9c14.5-5.2,29.8-8.3,45.2-9.1c13.7-1.1,27.5-0.2,41.1,2.5c-2-2.6-5.3-7.4-5.3-7.4s8.8,2.2,10.5,2.7
		c0.9-1.5,2.7-4.3,2.7-4.3l2.7-4.5c0,0,1.3,9.2,1.6,10.8c1.5,0.5,10,3.3,10,3.3L165.5,68.1z"/>
	<path class="st1" d="M161.4,50.4c0,0,1.3,9.2,1.6,10.8c1.5,0.5,10,3.3,10,3.3l-7.5,3.6c54.6,21.6,31.9,85.1-8.1,85.6
		c-0.1,0-0.3,0-0.4,0c-21.7,0-40.1-20.2-38.6-41.8c-9.8-7.9-22.3-11.7-34.2-15.1c1.7-0.1,3.4-0.2,5-0.2c10.6,0,21.2,2.2,30.9,6.4
		l3.7-8c-9.3-3.4-21.3-5.4-33.3-5.4c-11.6,0-23.1,1.9-31.9,6.1l4.9-11.4c-18.9,4.2-40,15.8-55.6,30.5c10.9-21,35.7-42.2,58.3-49.3
		l-1.7,4.9c14.5-5.2,29.8-8.3,45.2-9.1c3.8-0.3,7.6-0.4,11.5-0.4c9.9,0,19.8,1,29.6,3c-2-2.6-5.3-7.4-5.3-7.4s8.8,2.2,10.5,2.7
		c0.9-1.5,2.7-4.3,2.7-4.3L161.4,50.4 M162.7,44.1l-3.2,5.2l-2.7,4.5c0,0,0,0,0,0c0,0-1,1.6-1.8,3l-8.9-2.3l-5.7-1.5l3.4,4.8
		c0.1,0.1,1,1.4,2.1,2.9c-8.1-1.3-16.3-2-24.5-2c-3.9,0-7.8,0.2-11.6,0.4c-14.1,0.7-28.1,3.3-41.5,7.7l0.2-0.7l1.4-4.1l-4.1,1.3
		C42.9,70.5,17.2,92.2,6,113.8l-6,11.5l9.4-8.8c14.2-13.3,33.1-24.1,50.4-28.9l-3.2,7.3l-2.3,5.4l5.3-2.6c7.9-3.8,18.9-5.9,30.9-5.9
		c10.6,0,21.5,1.6,30.3,4.5l-1.8,3.9c-9.5-3.8-19.5-5.8-29.8-5.8c-1.7,0-3.5,0.1-5.2,0.2l-12.8,0.8l12.3,3.5
		c11.9,3.4,23.4,7,32.6,14c-0.4,10.6,3.7,21.4,11.4,29.7c7.9,8.5,18.6,13.3,29.4,13.3l0.5,0c20.3-0.2,37.9-16,41.8-37.6
		c3.1-16.7-3-38.2-28.5-50.2l3.2-1.5l4.9-2.4l-5.2-1.7c0,0-5.9-1.9-8.7-2.9c-0.4-3.1-1.4-9.5-1.4-9.5L162.7,44.1L162.7,44.1z"/>
	<path class="st1" d="M169.9,97.2c3.5-2.6,6.4-5.8,8.5-9.5c-6.1-6-17.7-13.3-47.3-15.3c12.5,2.8,24.3,6.8,30.9,11.5
		c-2.8-1.1-5.8-2-8.8-2.6c-1.6,0.2-3.8,0.4-5.5,0.8C156.3,85.1,163.9,90.4,169.9,97.2 M167.8,98.7C148.2,77.3,109.3,73,82.3,80.3
		c18.7-0.5,55.9,0.5,69.2,16.3c-4.3-2.4-13-6.4-18.1-6.1c-1.8,2-3.5,4.2-4.9,6.6C141.5,101.9,154.8,106.8,167.8,98.7 M175.3,109.9
		c-1.7-3.1-3.7-6.1-5.9-8.9c-14,9-28.1,3.8-42.3-1.4c-3.5,7.3-4.4,15.6-2.5,23.4C142.3,123.3,159.9,118.8,175.3,109.9 M178.8,118.8
		c-0.7-2.2-1.4-4.3-2.3-6.3c-15.5,9-33.2,13.6-51.1,13.4c4.8,13.5,17.5,22.6,31.8,22.8C161.9,137.1,167,124.6,178.8,118.8
		 M179.7,121.7c-10.8,5.1-15.2,16.5-19.5,26.8c7-0.6,13.7-3.4,19.2-7.9C180.9,134.4,181,127.9,179.7,121.7 M182,120.4
		c1.2,5.4,1.6,10.9,1.3,16.3c4.2-5.2,6.9-11.5,7.9-18.1C188.1,118.9,185,119.5,182,120.4 M178.8,111.1c1,2.2,1.8,4.4,2.6,6.7
		c3.3-1.1,6.7-1.7,10.1-1.9c0.1-4.6-0.6-9.2-2.2-13.5C186.1,105.7,182.6,108.6,178.8,111.1 M171.6,99.5c2.2,2.9,4.1,5.9,5.9,9
		c3.9-2.5,7.4-5.6,10.4-9.1c-2-3.7-4.6-7.1-7.8-10C178,93.3,175,96.7,171.6,99.5"/>
	<polygon class="st1" points="151.7,71.1 157.7,69 162.4,74.2 161.8,67.4 167.7,64.8 161.3,62.7 160.3,55.9 156.9,61.4 150.4,59.8 
		154.7,65.3 	"/>
	<path class="st2" d="M164.3,145.6c4-1.3,7.8-3.3,11.1-5.9c1.2-4,1.7-8.2,1.4-12.4l-4.1,6.9l1.3-6.7
		C169.4,132.7,166.1,138.9,164.3,145.6 M130.5,130c10.2-0.4,24.6-3.1,35.7-9.6c-6.4,6.5-13.3,10-23.7,15.4c11.4-1.9,17-6.4,24.5-12
		c-5.8,6.5-8.7,13.3-13.2,20.4C153.9,144.3,140.6,146,130.5,130 M128.7,104.7c9.3,4.4,16.7,4.5,26.2,5l-15.3,4.5
		c8.1,0.3,16.3-0.3,24.2-1.9c-16.5,8.2-36.5,7.6-36.5,7.6C125.9,114.8,126.4,109.4,128.7,104.7"/>
	<polygon class="st3" points="119.3,76 123.5,73.9 127,77.1 126.3,72.4 130.4,70 125.8,69.3 124.8,64.7 122.6,68.8 117.9,68.4 
		121.2,71.7 	"/>
	<polygon class="st3" points="71.9,85.3 74.6,84 76.9,86 76.5,83 79.2,81.4 76.1,80.9 75.5,77.9 74,80.6 70.9,80.3 73.1,82.5 	"/>
	<path class="st3" d="M185.7,98.5c-1,1-1.9,1.9-2.8,2.8c-1-2.2-2.3-4.4-3.7-6.4c0.7-0.9,1.4-1.8,2.1-2.8
		C183.1,94,184.5,96.2,185.7,98.5 M189.5,112.5c-1.1,0.1-2.2,0.3-3.2,0.5c-0.2-1.7-0.6-3.3-1-4.9c1.1-0.9,2.2-1.9,3.2-2.9
		C189.2,107.7,189.5,110.1,189.5,112.5 M185.9,127.6l0-0.6c0.5-2.3,0.7-4.6,0.8-6.9c0.6-0.2,1.2-0.3,1.8-0.4
		C187.9,122.4,187.1,125,185.9,127.6 M159.6,79.6c-0.5-0.3-1.1-0.5-1.6-0.8c6.3,1.7,12.3,4.5,17.6,8.4c-0.5,0.7-1.1,1.4-1.6,2.1
		C169.8,85.1,165,81.8,159.6,79.6"/>
</g>
</svg>
