<?xml version="1.0" encoding="utf-8"?>
<!-- Generator: Adobe Illustrator 21.1.0, SVG Export Plug-In . SVG Version: 6.00 Build 0)  -->
<svg version="1.1"
	 id="Layer_1" xmlns:cc="http://creativecommons.org/ns#" xmlns:dc="http://purl.org/dc/elements/1.1/" xmlns:rdf="http://www.w3.org/1999/02/22-rdf-syntax-ns#"
	 xmlns="http://www.w3.org/2000/svg" xmlns:xlink="http://www.w3.org/1999/xlink" x="0px" y="0px" viewBox="0 0 200 200"
	 style="enable-background:new 0 0 200 200;" xml:space="preserve">
<style type="text/css">
	.st0{fill:#FFFFFF;}
	.st1{fill:#006BB6;}
	.st2{fill:#ED174C;}
</style>
<g>
	<path class="st0" d="M200,100.1c0,55.2-44.8,100-100.1,99.9C44.7,200,0,155.2,0,99.9C0,44.7,44.8,0,100.1,0
		C155.3,0.1,200,44.8,200,100.1z"/>
	<path class="st1" d="M5.9,119.7c10.9,51.9,61.8,85.2,113.8,74.4c25.2-5.3,46.9-19.9,60.8-41.5c13.8-21.5,18.6-47.4,13.6-72.4
		c-5-25.1-20-46.6-41.5-60.7C108.2-9.5,48.6,3,19.6,47.4C5.6,68.8,0.7,94.8,5.9,119.7z"/>
	<path class="st0" d="M132.8,25.1c0.3,3.7-1.4,7.4-5.2,10.9c-18-13.2-35.2-19.7-52-19.8c-3.5,0-7.1,0.3-10.5,0.8
		c5.3-2.3,10.9-4,16.6-5.1c14.8-3.2,30.2-2.5,44.6,1.9C129.3,16.8,132.4,20.7,132.8,25.1z"/>
	<path class="st0" d="M114,180.4c18.9-17.4,27.6-54.8,33-77l0.8-3.5c2.7-11.3,7.5-19.8,12.6-24.9c19,29.5,16.5,60,11.7,79.2
		c-13.1,17.5-32.1,29.6-53.6,34c-6.1,1.3-12.3,2-18.5,1.9C105,187.6,109.8,184.3,114,180.4z"/>
	<path class="st0" d="M148.4,53.9c7.7-6.5,13.9-11.4,18.2-14.5c9.6,10.4,16.5,22.9,20.3,36.6c-3.6-4.8-8.1-9.3-13-10.3
		c-4.2-0.9-8.6,0.3-12.7,3.2C157.3,63.5,153,58.5,148.4,53.9z"/>
	<path class="st0" d="M11.6,96c8.8-23.6,40.9-33.1,52.9-36.7l0.5-0.2c4-1.2,9.7-2.2,16.3-3.3c15.6-2.7,34.7-5.9,46.4-14.5
		c5,3.9,9.8,8,14.4,12.4c-26.2,22.2-66.8,59.7-110.1,105.7c-10.1-11.7-17.1-25.7-20.3-40.9c-1.2-6.1-1.8-12.2-1.8-18.4
		C11,97.7,11.6,96,11.6,96z"/>
	<path class="st0" d="M145.3,50.9c-4.6-4.4-9.4-8.5-14.4-12.4c4.5-4.3,6.5-8.9,6-13.7c-0.3-2.9-1.4-5.8-3.1-8.2
		c5.4,2.2,10.6,4.9,15.5,8.1c5.2,3.4,10,7.2,14.3,11.6C159.1,39.6,152.9,44.6,145.3,50.9z"/>
	<path class="st0" d="M124.2,38.7c-10.9,7.5-28.9,10.5-43.5,13.1c-6.8,1.1-12.6,2-16.8,3.4l-0.5,0.2c-11.6,3.4-40.8,12.1-52.7,33.1
		c1.8-13.5,6.6-26.3,14-37.7c6.4-9.9,14.6-18.5,24.2-25.3C70.1,16.5,94,17,124.2,38.7z"/>
	<path class="st0" d="M173,69.7c6.2,1.2,13.1,11.8,16.3,17.9c2.8,19.7-1.1,39.7-11,56.9c0.5-3.2,0.9-6.4,1.1-9.6
		c1.8-22-3.7-44.1-15.9-62.6C166.8,70,170.2,69,173,69.7z"/>
	<path class="st0" d="M145.2,56.5c4.7,4.6,8.9,9.6,12.7,15c-6.1,5.9-11.4,15.7-14.2,27.5l-0.8,3.5c-5.1,21.8-13.7,58.4-31.7,74.9
		c-7.4,6.9-14.6,10.4-21.2,12.3c-14-1.6-27.5-6.5-39.2-14.2c-5.7-3.7-11-8.1-15.8-13C78.5,115.9,119.3,78.5,145.2,56.5z"/>
	<path class="st0" d="M124.8,126.8l2.5-0.6c1.4-0.4,2.5-0.9,2.5-3.1c0-1.7-0.5-4.9-2.6-4.9c-2.4,0-2.4,3.8-2.4,5.9L124.8,126.8z"/>
	<path class="st0" d="M95.5,125.4c0-7.7-0.2-14.3-5.4-14.3c-4.3,0-5,6.7-5,14.3s-0.2,14.3,5,14.3C94.5,139.8,95.5,133.1,95.5,125.4z
		"/>
	<path class="st0" d="M124.8,126.8l2.5-0.6c1.4-0.4,2.5-0.9,2.5-3.1c0-1.7-0.5-4.9-2.6-4.9c-2.4,0-2.4,3.8-2.4,5.9L124.8,126.8z"/>
	<path class="st0" d="M84.5,107.7h0.1c2.5-3.9,7.3-5.7,12-5.7c10.5,0,17.1,9.1,17.1,21.4c0,14.5-9.9,23.1-22,23.1
		c-18.7,0-25.6-15.1-25.6-32.6c0-20.2,8.8-36.8,30.6-36.8c8.5,0,15.5,5.4,15.5,13.8c0,5.4-4.2,8.1-8.2,8.1c-5.8,0-7.7-4.9-8.5-9.2
		c-0.4-1.8,0.3-5.8-2.8-5.8c-6.3,0-7.4,12.4-7.6,16.9L84.5,107.7z"/>
	<path class="st0" d="M95.5,125.4c0-7.7-0.2-14.3-5.4-14.3c-4.3,0-5,6.7-5,14.3s-0.2,14.3,5,14.3C94.5,139.8,95.5,133.1,95.5,125.4z
		"/>
	<path class="st0" d="M156.3,111.7c-1.8,0-3.6,0.8-4.8,2.2c-0.1-0.3-0.3-0.6-0.4-0.8l-1-1.8l-14.3,4.2v7.9h3.1
		c0.2,0.2,0.4,0.9,0.4,3.4v9.1l-2.7,0.4v8.6h20v-8.6l-2.7-0.4v-2.7c0-2.1,0.3-4.2,0.7-6.2c0.9,0.3,1.8,0.4,2.7,0.4
		c3.6,0,6-3.2,6-7.8C163.1,114.9,160.4,111.7,156.3,111.7z"/>
	<path class="st0" d="M181.3,120.9c-0.2-0.4-0.3-0.9-0.3-1.3c0-2.4-0.9-7.9-9.6-7.9c-4.8,0-14.3,3.7-14.3,12.3
		c-0.1,2.6,0.8,5.2,2.4,7.3c-1.9,1-3.1,3.3-3.1,5.9c0,3.1,1.5,8.3,12,8.3c8.9,0,14.1-4.6,14.1-12.7
		C182.3,125.1,181.7,122.6,181.3,120.9z"/>
	<path class="st0" d="M76,74.7c-0.5-0.7-1.4-1.1-2.3-1c-1.3,0-2.4,0.8-3.6,2.2c-4.4,4.5-10.4,7-16.7,6.9c-8.7,0-17.8-4-25.1-11
		c-0.5-0.6-1.3-0.9-2-0.9c-3.6,0-4.5,5.7-4.5,5.7v28.6l2.3,0.3c8.6,1.3,16,1,22.7-0.8c-7.3,6.6-23.8,24.4-23.5,41.3
		c0,3.2,1.9,3.5,2.8,3.5c0.8-0.1,1.6-0.4,2.3-0.9c0.1-0.1,0.3-0.2,0.4-0.3c2.3-1.7,6.1-2.8,10.4-2.8c3.3,0,6.6,0.6,9.6,1.9
		c0.6,0.3,1.2,0.4,1.8,0.4c0.8,0,1.5-0.3,2-0.9c0.7-0.9,1-2,0.8-3.1c-1.2-12.3,1.4-25.7,6.7-33.5L61,109
		c4.5-6.6,13.7-20.3,15.5-31.6C76.8,76.4,76.6,75.4,76,74.7z"/>
	<path class="st0" d="M131,134.2c-0.9,0-1.8-0.6-2.2-1.4l5.1-1.4C132.5,133,131.4,134.1,131,134.2z M142.1,129.1L142,127
		c0-1.4-0.2-2.7-0.6-4l-0.1-2.6l-0.4,0.7c-2.2-5.8-7-9.4-13.1-9.4c-9.2,0-15.7,7.3-15.7,17.7c0,8,4.6,16.2,15.2,16.2
		c5.8,0.1,11.3-2.9,14.3-7.9l0.4-0.6l-0.4-7.8L142.1,129.1z"/>
	<path class="st0" d="M107.8,103.8c-0.5-0.7-1.1-1.5-1.6-2.3c5.1-0.9,8.7-5.4,8.5-10.5c0-9.4-7.8-16.5-18.1-16.5
		c-20.8,0-33.3,14.7-33.3,39.4c0,22.4,10.3,35.2,28.2,35.2c14.5,0,24.8-10.5,24.8-25.8C116.2,115.8,111.2,108.7,107.8,103.8z"/>
	<path class="st1" d="M124.9,124c0-2,0-5.9,2.3-5.9c2.2,0,2.7,3.3,2.7,5c0,2-1,2.6-2.6,3l-2.4,0.6V124z M131.1,136.8
		c-3.3,0-5.1-3-5.4-5.9l13.8-3.7c-0.4-6.8-4.3-12.8-11.7-12.8c-7.8,0-13,6.1-13,15.2c0,7.1,4,13.4,12.5,13.4
		c4.9,0.1,9.6-2.4,12.2-6.6l-2.8-3.3C135.3,135.2,133.6,136.8,131.1,136.8z"/>
	<path class="st1" d="M153.8,142.1h-14.6v-3.7l2.7-0.4v-11.5c0-4.1-0.5-6-3.5-6v-3.2l10.3-3.1c1.2,2.3,1.5,4.9,1.7,7.5h0.1
		c1-3.1,2.4-7.5,5.7-7.5c3,0,4.3,2.4,4.3,5.1c0,2.9-1.2,5.2-3.4,5.2c-1.2-0.1-2.4-0.4-3.5-0.9c-1.9-0.6-2.5,7.6-2.5,9.3v5l2.6,0.4
		L153.8,142.1z"/>
	<path class="st1" d="M178.4,119.7c0,2.3-2,3.4-4.1,3.4c-2.5,0-4.3-2-4.7-4.5c-1.1,0-1.8,0.6-1.8,2.4c0,4.2,12,1.2,12,12
		c0,8.1-5.8,10-11.5,10c-3.4,0-9.3-0.4-9.3-5.6c0-2.4,1.3-4.1,3.7-4.1c3.6,0,4.3,3.3,4.8,5.6c0.2,0.5,0.7,0.8,1.2,0.7
		c1.9,0,3.4-0.7,3.4-2c0-4.8-12.3-3-12.3-13.4c0-6.7,7.9-9.6,11.6-9.6C175.6,114.5,178.4,115.9,178.4,119.7z"/>
	<path class="st1" d="M90.1,139.8c-5.2,0-5-6.7-5-14.3s0.7-14.3,5-14.3c5.2,0,5.4,6.7,5.4,14.3S94.5,139.8,90.1,139.8z M96.6,102.1
		c-4.7,0-9.4,1.8-12,5.7h-0.1l0.5-6.8c0.2-4.6,1.2-17,7.6-17c3.1,0,2.4,4.1,2.7,5.9c0.8,4.3,2.8,9.2,8.6,9.2c4,0,8.2-2.7,8.2-8.1
		c0-8.4-7-13.9-15.5-13.9c-21.8,0-30.6,16.7-30.6,36.9c0,17.4,6.8,32.6,25.5,32.6c12.2,0,22-8.7,22-23.1
		C113.7,111.2,107.2,102.1,96.6,102.1L96.6,102.1z"/>
	<path class="st2" d="M24.6,76.9v25.9c14.5,2.3,32,0.7,44.1-17.2c0.5-0.7,0.8-0.2,0.5,0.5c-3.5,7-11.6,13.4-18.5,18.9
		c-6.8,5.2-24.9,24.2-24.6,41c0,1.2,0,0.9,1.1,0c5.5-4.1,16.3-4.2,22.8-1c0.9,0.5,0.9,0.3,0.9-0.9c-1.3-12.9,1.6-27,7.2-35.2
		c3.8-5.7,14-20.3,15.9-31.7c0.2-1.2-0.5-1-1.9,0.6c-11.7,12.3-32.7,12-46.3-1C25,75.8,24.6,76.2,24.6,76.9z"/>
	<path class="st0" d="M74.7,61.3c0,13.7-11.1,24.9-24.9,24.9c-13.7,0-24.9-11.1-24.9-24.9S36,36.5,49.8,36.5
		C63.5,36.5,74.6,47.6,74.7,61.3z"/>
	<polygon class="st1" points="49.8,37.3 50.6,39.9 53.5,39.9 51.1,41.6 51.9,44.1 49.8,42.6 47.5,44.1 48.3,41.6 46.1,39.9 49,39.9 
			"/>
	<polygon class="st1" points="66.4,46.9 67.2,49.6 69.9,49.6 67.8,51.3 68.6,53.9 66.4,52.2 64.1,53.9 65,51.3 62.7,49.6 65.5,49.6 
			"/>
	<polygon class="st1" points="59.2,39.5 60.1,42.1 62.9,42.1 60.6,43.7 61.4,46.4 59.2,44.8 57,46.4 57.9,43.7 55.6,42.1 58.4,42.1 
			"/>
	<polygon class="st1" points="69,56 69.9,58.7 72.7,58.7 70.5,60.3 71.3,63 69.1,61.3 66.9,63 67.7,60.3 65.3,58.7 68.2,58.7 	"/>
	<polygon class="st1" points="67.9,65.7 68.7,68.3 71.5,68.3 69.2,70 70,72.6 67.9,71.1 65.7,72.6 66.5,70 64.2,68.3 67.1,68.3 	"/>
	<polygon class="st1" points="62.6,73.4 63.4,76.1 66.3,76.1 63.9,77.7 64.7,80.3 62.6,78.8 60.3,80.3 61.1,77.7 58.9,76.1 
		61.6,76.1 	"/>
	<polygon class="st1" points="54.2,77.7 55,80.4 57.9,80.4 55.5,82 56.3,84.7 54.2,83.1 51.9,84.7 52.7,82 50.5,80.4 53.3,80.4 	"/>
	<polygon class="st1" points="32.9,46.1 32.1,48.7 29.2,48.7 31.4,50.4 30.6,52.9 32.9,51.4 35.1,52.9 34.2,50.4 36.6,48.7 
		33.7,48.7 	"/>
	<polygon class="st1" points="39.7,39.5 38.9,42.1 36.1,42.1 38.4,43.7 37.6,46.4 39.7,44.8 42,46.4 41.2,43.7 43.5,42.1 40.7,42.1 
			"/>
	<polygon class="st1" points="29.6,54.9 28.9,57.6 25.9,57.6 28.3,59.2 27.4,61.9 29.6,60.1 31.8,61.9 31,59.2 33.3,57.6 30.5,57.6 
			"/>
	<polygon class="st1" points="30.5,64.5 29.7,67.2 26.8,67.2 29.2,68.8 28.4,71.5 30.5,69.8 32.8,71.5 31.8,68.8 34.1,67.2 
		31.3,67.2 	"/>
	<polygon class="st1" points="35.8,72.4 35,75.1 32.2,75.1 34.5,76.7 33.6,79.3 35.8,77.7 38.1,79.3 37.2,76.7 39.5,75.1 36.7,75.1 
			"/>
	<polygon class="st1" points="44.2,77.4 43.3,80.1 40.6,80.1 42.8,81.7 42,84.4 44.2,82.7 46.4,84.4 45.6,81.7 47.9,80.1 45.1,80.1 
			"/>
</g>
</svg>
