<?xml version="1.0" encoding="utf-8"?>
<!-- Generator: Adobe Illustrator 21.1.0, SVG Export Plug-In . SVG Version: 6.00 Build 0)  -->
<svg version="1.1"
	 id="Layer_1" xmlns:cc="http://creativecommons.org/ns#" xmlns:dc="http://purl.org/dc/elements/1.1/" xmlns:rdf="http://www.w3.org/1999/02/22-rdf-syntax-ns#"
	 xmlns="http://www.w3.org/2000/svg" xmlns:xlink="http://www.w3.org/1999/xlink" x="0px" y="0px" viewBox="0 0 200 200"
	 style="enable-background:new 0 0 200 200;" xml:space="preserve">
<style type="text/css">
	.st0{fill:#F9A01B;}
	.st1{fill:#FFFFFF;}
	.st2{fill:#E56020;}
	.st3{fill:#B95915;}
</style>
<g>
	<polygon class="st0" points="23,165.6 105.9,120.2 49.7,165.6 117.8,126.4 116.7,134.3 128.1,128 153.8,152.3 167.4,111.2 
		187.2,109.9 177.2,85 195.1,71 171.9,62 177.8,37.1 158.1,46.1 147.9,24.7 132.1,40.4 103.7,27.7 99.8,53.1 74.5,58.5 89.5,67.6 
		74.4,75.1 87.2,76.2 34.5,117.2 87.5,89.1 30.7,132.3 91.2,100.8 26.6,149.4 97.8,111.4 	"/>
	<path class="st1" d="M147.9,24.7l10.2,21.4l19.7-9L171.9,62l23.2,9l-17.9,14l10.1,24.9l-19.8,1.3l-13.7,41.1L128.1,128l-11.4,6.3
		l1.1-7.9l-68.2,39.2l56.2-45.4L23,165.6l74.8-54.2l-71.2,38l64.6-48.6l-60.5,31.5l56.8-43.3l-53,28.1l52.7-41l-12.8-1.1l15.1-7.6
		l-15-9l25.3-5.5l3.9-25.4l28.4,12.7L147.9,24.7 M148.6,20.5l-2.5,2.5l-14.6,14.6l-26.9-12.1l-3-1.3l-0.5,3.2L97.6,51L74,56.1
		l-6.1,1.3l5.3,3.2l11.1,6.7l-11.1,5.6l-7.8,3.9l8.7,0.8l6.5,0.6l-67.4,52.4l48.6-25.1L7.4,147.2l58.4-30.4L0,166.3l67.3-35.8
		L1.1,179.4l81.8-43.8l-53.5,43.9l85.4-48.5l-0.4,2.9l-0.7,4.9l4.3-2.4l9.8-5.4l24.4,23l2.8,2.7l1.2-3.7l13.1-39.5l18.1-1.2l3.4-0.2
		l-1.3-3.2l-9.4-23.2L196.6,73l3.4-2.7l-4-1.6l-21.2-8.2l5.4-22.8l1.2-4.9l-4.6,2.1l-17.5,8l-9.1-19.2L148.6,20.5L148.6,20.5z"/>
	<path class="st2" d="M174.6,85.4c-0.9,22.8-20.2,40.5-42.9,39.5C108.9,124,91.2,104.8,92.2,82c0.9-22.8,20.2-40.5,42.9-39.5
		C157.9,43.4,175.6,62.6,174.6,85.4C174.6,85.4,174.6,85.4,174.6,85.4"/>
	<path class="st3" d="M138.4,119.3c-22.8-0.9-40.5-20.2-39.5-42.9c0.4-10.1,4.5-19.7,11.6-27C91.5,62,86.4,87.6,99,106.6
		s38.2,24.1,57.2,11.5c2.5-1.6,4.7-3.5,6.8-5.6C155.8,117.2,147.2,119.7,138.4,119.3"/>
	<path d="M174.6,84.2c0-1.5,0-2.9-0.2-4.4c-2.5-1.8-5.5-3-8.6-3.4c-0.6-0.1-1.2-0.1-1.9-0.2c-0.4-2.7-1-5.4-1.8-8
		c0.4,0,0.9,0,1.3,0.1c2.9,0.2,5.8,0.5,8.6,1c-0.4-1-0.8-2.1-1.3-3.1c-3.2-0.5-6.4-0.9-9.7-1.1h0c-1-2.7-2.3-5.2-3.8-7.6
		c2.1-0.4,4-1.3,5.5-2.7c-0.8-0.8-1.6-1.5-2.4-2.3c-1.4,1.2-3.2,2-5,2.1c-0.3-0.4-0.6-0.8-0.9-1.3c-2.7-3.6-6-6.7-9.6-9.3
		c-3.2-0.9-6.4-1.4-9.7-1.6c-0.2,0-0.4,0-0.6,0c6.4,2.6,12.1,6.8,16.4,12.2c-4.8-0.7-9.5-1.8-14.1-3.3c-1.4-0.4-2.9-0.8-4.2-1.2
		c-6.3-1.9-13-2.7-19.6-2.3c-3.6,2-6.8,4.6-9.6,7.6c8.9-4,18.9-4.8,28.4-2.3c1.4,0.4,2.8,0.8,4.2,1.2c5.6,1.9,11.5,3.1,17.4,3.6
		c1.5,2.2,2.8,4.6,3.9,7.1c-1.1-0.1-2.1-0.1-3.2-0.1c-26.5-0.5-49.2,7.5-61.8,20.1c0.1,2.5,0.4,4.9,0.9,7.4
		c4.1-5.6,9.5-10.3,15.6-13.5c12.8-7.2,29.8-11,47.9-10.7c0.6,0,1.2,0,1.9,0.1c0.9,2.6,1.6,5.3,2,8.1c-11.6,0.5-19.2,7.8-27.9,15.5
		c-8.9,8.3-19.5,14.5-31.2,18.1c1.3,1.6,2.7,3.1,4.3,4.5c13.1-5.3,21.8-13.5,29.1-20c8.3-7.5,15.5-14.6,26-15c0.3,2.9,0.3,5.9,0,8.9
		c-1.2,15.4-10,29.2-23.5,36.6c3.2-0.3,6.4-1,9.4-2c1-0.8,2-1.7,3-2.7c8.5-8.5,13.7-19.7,14.6-31.6c0.3-3,0.3-6,0-9
		c0.5,0.1,1,0.1,1.6,0.2C169.3,80.2,172.3,81.8,174.6,84.2"/>
</g>
</svg>
