<?xml version="1.0" encoding="utf-8"?>
<!-- Generator: Adobe Illustrator 21.1.0, SVG Export Plug-In . SVG Version: 6.00 Build 0)  -->
<svg version="1.1" id="Layer_1" xmlns="http://www.w3.org/2000/svg" xmlns:xlink="http://www.w3.org/1999/xlink" x="0px" y="0px"
	 viewBox="0 0 200 200" style="enable-background:new 0 0 200 200;" xml:space="preserve">
<style type="text/css">
	.st0{fill:#FFFFFF;}
	.st1{fill:#141006;}
	.st2{fill:#A7A9AC;}
	.st3{fill:#E13A3E;}
</style>
<g>
	<path class="st0" d="M157,39.5l38.1-39H91L48.4,34.1c-0.1,0.1-0.2,0.2-0.3,0.3L47.3,35v0C28.5,50.2,16.5,73.5,16.5,99.6
		c0,24.2,10.4,46,26.9,61.2L4.9,199.5h102.8l41.7-33.3c20.2-15.2,33.3-39.3,33.3-66.5C182.7,76,172.9,54.6,157,39.5z"/>
	<path class="st1" d="M150.7,39.6l35.5-35.5h-16.4l-29,25l25.1-25h-15.7l-28.1,25.1l25.2-25.1h-15l-29.1,25l25.2-25h-14.9L84.3,29.2
		l25.3-25.1H92.3L49.4,37.7c-4,3.2-7.7,6.9-11,10.8C26.4,62.7,19.8,80.7,19.8,99.2c0,2.4,0.1,4.7,0.3,7c1.9,20.9,12.2,40.4,29,53.9
		l-35.5,35.5h17.1l29-25l-25.2,25h14.9l29.1-25.1l-25.2,25.1h14.9l29.1-25l-25.2,25h15.2l29.1-25.1l-25.2,25.1H107l42.9-33.6
		c4-3.2,7.7-6.9,11.1-10.8c11.9-14.2,18.5-32.2,18.5-50.7c0-2.4-0.1-4.7-0.3-7C177.3,72.5,166.9,53.1,150.7,39.6"/>
	<path class="st2" d="M92.7,118.8l6.2-6.2c-7.1-2.2-11.1-7.1-11.1-13.3c0-3.2,1.4-6.2,3.6-8.2l81.1-81.1h-4.5L91.6,78.7l-6.5,5.9
		c-3.9,3.7-6.3,8.9-6.3,14.7c0,1.3,0.1,2.7,0.4,3.9C80.6,110.5,86.6,116.6,92.7,118.8"/>
	<path class="st2" d="M83.3,128.2l6.1-6.1c-9.5-4.8-14.8-12.9-14.8-22.8c0-6.7,2.7-12.7,7-17.1l72.2-72.2h-4.2L82,69.6
		c-0.9,0.7-6.7,6-7.5,6.9c-5.6,6-9,14-9,22.8c0,1.6,0.1,3.1,0.4,4.6C67.5,114.5,74.1,123.5,83.3,128.2"/>
	<path class="st2" d="M73.6,137.9l6.2-6.2c-11.6-7.1-18.5-18.7-18.5-32.4c0-10.1,4-19.2,10.4-26l63.3-63.3h-3.8L72.5,60.5
		c-1.9,1.5-6.9,6.1-8.4,8c-7.3,8.2-11.7,19-11.7,30.8c0,1.8,0.1,3.5,0.3,5.2C54.3,118.5,62.3,130.7,73.6,137.9"/>
	<path class="st2" d="M64,147.5l6.3-6.3c-13.6-9.4-22.2-24.6-22.2-41.9c0-13.5,5.3-25.7,13.8-34.8l54.4-54.5h-3.5l-50,41.4
		c-2.8,2.3-7,6.3-9.3,9c-9,10.5-14.4,24.1-14.4,38.9c0,2,0.1,4,0.3,5.9C41.2,122.6,50.5,137.8,64,147.5"/>
	<path class="st2" d="M26.2,105.8c1.9,20.8,12.5,39.2,28.1,51.3l6.4-6.4C45.1,139,35,120.3,35,99.3c0-16.9,6.6-32.3,17.3-43.7
		L97.7,9.9h-3.1L53.3,42.3c-3.7,3-7.2,6.4-10.2,10C32.4,65,26,81.4,26,99.3C26,101.4,26.1,103.6,26.2,105.8"/>
	<path class="st3" d="M107.2,81l-6.2,6.2c7.1,2.2,11.1,7.1,11.1,13.3c0,3.2-1.4,6.2-3.6,8.2l-81.1,81.1H32l76.3-68.8l6.5-5.9
		c3.9-3.7,6.3-8.9,6.3-14.7c0-1.3-0.1-2.7-0.4-3.9C119.3,89.3,113.2,83.1,107.2,81"/>
	<path class="st3" d="M116.6,71.5l-6.1,6.1c9.5,4.9,14.8,12.9,14.8,22.8c0,6.7-2.7,12.7-7,17.1l-72.2,72.2h4.2l67.5-59.7
		c0.9-0.7,6.7-6,7.4-6.9c5.6-6,9-14,9-22.8c0-1.6-0.1-3.1-0.4-4.6C132.4,85.3,125.8,76.2,116.6,71.5"/>
	<path class="st3" d="M126.2,61.9l-6.2,6.2c11.6,7.1,18.5,18.7,18.5,32.4c0,10.1-4,19.2-10.4,26l-63.3,63.4h3.8l58.8-50.6
		c1.9-1.5,6.8-6.1,8.4-8c7.3-8.2,11.7-19,11.7-30.8c0-1.8-0.1-3.5-0.3-5.2C145.5,81.2,137.5,69.1,126.2,61.9"/>
	<path class="st3" d="M135.9,52.3l-6.3,6.3c13.6,9.4,22.2,24.6,22.2,41.9c0,13.5-5.3,25.7-13.8,34.9l-54.4,54.5h3.5l50-41.4
		c2.8-2.3,7-6.2,9.3-9c9-10.5,14.4-24.1,14.4-38.9c0-2-0.1-3.9-0.3-5.9C158.7,77.2,149.3,62,135.9,52.3"/>
	<path class="st3" d="M173.6,94c-1.9-20.8-12.5-39.2-28.1-51.3l-6.4,6.4c15.7,11.7,25.9,30.4,25.9,51.4c0,16.9-6.6,32.3-17.3,43.7
		l-45.5,45.6h3.2l41.3-32.3c3.7-3,7.2-6.4,10.2-10c10.7-12.7,17.1-29.1,17.1-47C173.9,98.3,173.8,96.1,173.6,94"/>
</g>
</svg>
