<?xml version="1.0" encoding="utf-8"?>
<!-- Generator: Adobe Illustrator 21.1.0, SVG Export Plug-In . SVG Version: 6.00 Build 0)  -->
<svg version="1.1"
	 id="Capa_1" inkscape:version="0.48.4 r9939" sodipodi:docname="real_madrid_cf.svg" xmlns:cc="http://creativecommons.org/ns#" xmlns:dc="http://purl.org/dc/elements/1.1/" xmlns:inkscape="http://www.inkscape.org/namespaces/inkscape" xmlns:rdf="http://www.w3.org/1999/02/22-rdf-syntax-ns#" xmlns:sodipodi="http://sodipodi.sourceforge.net/DTD/sodipodi-0.dtd" xmlns:svg="http://www.w3.org/2000/svg"
	 xmlns="http://www.w3.org/2000/svg" xmlns:xlink="http://www.w3.org/1999/xlink" x="0px" y="0px" viewBox="0 0 200 200"
	 style="enable-background:new 0 0 200 200;" xml:space="preserve">
<style type="text/css">
	.st0{fill:#00529F;}
	.st1{fill:#EE324E;}
	.st2{fill:#FFFFFF;}
	.st3{fill:#FEBE10;}
</style>
<g>
	<path id="path3" inkscape:connector-curvature="0" class="st0" d="M147.4,46.5c0.4-0.6,0.7-1.3,0.7-2c0-0.2,0-0.4-0.1-0.6
		c-0.1-0.8-0.6-1.5-1.2-1.9c0.2-0.4,0.3-0.9,0.3-1.4c0-1.4-0.9-2.6-2.1-3.1c0.6-0.6,0.9-1.4,0.9-2.2c0-1.6-1.1-2.9-2.6-3.3
		c0.2-0.5,0.4-0.9,0.4-1.4c0-1.9-1.5-3.4-3.4-3.4c-0.1,0-0.2,0-0.3,0c0.1-0.3,0.1-0.6,0.1-0.9c0-1.9-1.5-3.4-3.4-3.4
		c-0.3,0-0.7,0.1-1,0.2c0-1.9-1.5-3.4-3.4-3.4c-0.6,0-1.1,0.2-1.6,0.4c-0.5-1.3-1.7-2.3-3.1-2.3c-1,0-2,0.5-2.6,1.3
		c-0.6-0.5-1.4-0.9-2.2-0.9c0,0-0.1,0-0.2,0c0.1-0.2,0.1-0.5,0.1-0.7c0-1.9-1.5-3.4-3.4-3.4c-0.4,0-0.8,0.1-1.2,0.3
		c0-0.9-0.4-1.7-1-2.3c-0.6-0.6-1.5-1-2.4-1c-0.6,0-1.1,0.2-1.7,0.5c-0.5-1.3-1.7-2.3-3.1-2.3c-0.8,0-1.5,0.3-2.1,0.7
		c-0.6-1-1.7-1.6-2.8-1.6c-0.3,0-0.6,0.1-0.9,0.1c-0.6-0.6-1.2-1.1-2-1.3c0,0-0.2-0.1-0.3-0.1c0-0.3,0-1.3,0-1.8c0.5,0,2,0,2,0
		c0.2,0,0.3-0.1,0.3-0.3V2.3c0-0.2-0.1-0.3-0.3-0.3c0,0-1.5,0-2,0c0-0.5,0-1.7,0-1.7c0-0.2-0.1-0.3-0.3-0.3h-2.5
		c-0.1-0.1-0.2,0.1-0.2,0.3c0,0,0,1.3,0,1.7c-0.5,0-2,0-2,0c-0.2,0-0.3,0.1-0.3,0.3v2.3c0,0.2,0.1,0.3,0.3,0.3c0,0,1.5,0,2,0
		c0,0.4,0,1.4,0,1.8c-0.2,0.1-0.3,0.1-0.3,0.1c-0.8,0.3-1.4,0.8-2,1.3c-0.3-0.1-0.6-0.1-0.9-0.1c-1.2,0-2.2,0.6-2.8,1.6
		C91.8,9.2,91.1,9,90.3,9c-1.4,0-2.7,0.9-3.1,2.3c-0.5-0.3-1.1-0.5-1.7-0.5c-1.8,0-3.3,1.5-3.4,3.3c-0.4-0.2-0.8-0.3-1.2-0.3
		c-1.9,0-3.4,1.5-3.4,3.4c0,0.2,0,0.5,0.1,0.7c-0.1,0-0.2,0-0.2,0c-0.8,0-1.6,0.3-2.2,0.9c-0.6-0.8-1.6-1.3-2.6-1.3
		c-1.4,0-2.7,0.9-3.1,2.3c-0.5-0.3-1-0.4-1.6-0.4c-1.9,0-3.4,1.5-3.4,3.4c-0.3-0.1-0.7-0.2-1-0.2c-1.9,0-3.4,1.5-3.4,3.4
		c0,0.3,0.1,0.6,0.1,0.9c-0.1,0-0.2,0-0.3,0c-1.9,0-3.4,1.5-3.4,3.4c0,0.5,0.1,1,0.4,1.4c-1.5,0.3-2.6,1.7-2.6,3.3
		c0,0.8,0.3,1.6,0.9,2.2c-1.3,0.5-2.1,1.7-2.1,3.1c0,0.5,0.1,1,0.3,1.4c-0.6,0.5-1,1.1-1.2,1.9c0,0.2-0.1,0.4-0.1,0.6
		c0,0.7,0.3,1.4,0.7,2c-0.4,0.5-0.7,1-0.7,1.7c0,0,0,0,0,0.1c0,1.3,0.9,2.6,1.7,3.2c1.5,1.2,3.2,1.3,4.6,0.5c1.3,1,3,1.3,4.6,1
		c0,0.1-0.1,0.2-0.1,0.3c0,0.3,0.1,0.6,0.2,0.9c0.2,0.5,0.6,0.9,1.2,1.1c0.3,0.1,0.7,0.1,1,0.1c0,0.1-0.1,0.1-0.1,0.2
		c-0.1,0.3-0.1,0.6,0.1,0.9c0.1,0.3,0.3,0.5,0.6,0.6c0.1,0,0.1,0,0.2,0l-0.5,1.9c0,0.1,0,0.2,0.1,0.2l1.9,1.1
		c-0.2,0.2-0.3,0.5-0.3,0.7s0,0.3,0.1,0.5c0.3,0.6,1,0.9,1.5,0.6c9.8-4.6,20.2-7,31.1-7s21.5,2.3,31.1,7c0.6,0.3,1.2,0,1.5-0.6
		c0.1-0.2,0.1-0.3,0.1-0.5c0-0.3-0.1-0.5-0.3-0.7l1.9-1.1c0.1,0,0.1-0.1,0.1-0.2l-0.5-1.9c0.4,0,0.7-0.2,0.8-0.6
		c0.1-0.2,0.1-0.3,0.1-0.5c0-0.1,0-0.2-0.1-0.4c0-0.1-0.1-0.2-0.1-0.2c0.9,0.1,1.8-0.3,2.2-1.1c0.1-0.3,0.2-0.6,0.2-0.9
		c0-0.1-0.1-0.2-0.1-0.3c1.6,0.3,3.3,0,4.6-1c1.4,0.8,3.1,0.7,4.6-0.5c0.8-0.6,1.7-1.9,1.7-3.2c0,0,0,0,0-0.1
		C148.2,47.5,148,46.9,147.4,46.5L147.4,46.5z M70.3,31.6c0,0.1,0,0.1,0,0.2c-1.6,0.4-3.5,0.9-5,1.4c-1.1,0.4-2,1-2.7,1.5
		c1.6-3.5,4.4-6,9.1-8.4c0,0.8,0.3,1.5,0.9,2C71.1,28.9,70.3,30.1,70.3,31.6z M97.5,20.2c-0.3,0.5-0.5,1-0.5,1.6s0.2,1.1,0.5,1.6
		c0,0.1,0,0.8,0,1.5c-5.4-0.8-12.3-0.3-17.7,2.5C82.4,21,88.3,15.8,97,16.3c0,0.6,0.2,1.1,0.5,1.6C97.5,18,97.5,20.1,97.5,20.2z
		 M102.5,24.8c0-0.6,0-1.4,0-1.5c0.3-0.5,0.5-1,0.5-1.6s-0.2-1.1-0.5-1.6c0-0.1,0-2.2,0-2.3c0.3-0.5,0.5-1,0.5-1.6
		c8.7-0.5,14.7,4.6,17.2,11.1C114.9,24.5,108,24,102.5,24.8z M134.9,33.3c-1.5-0.6-3.4-1.1-5-1.4c0-0.1,0-0.1,0-0.2
		c0-1.4-0.9-2.6-2.1-3.1c0.5-0.6,0.8-1.3,0.9-2c4.6,2.4,7.4,4.8,9.1,8.4C136.9,34.2,136,33.7,134.9,33.3L134.9,33.3z"/>
	<path id="path5" inkscape:connector-curvature="0" class="st1" d="M138.6,49.9c-0.5,0-1-0.1-1.4-0.3c-0.9-0.5-1.4-1.4-1.4-2.3
		c0-0.1,0-0.1,0-0.2c0.3-0.4,0.5-0.8,0.7-1.3c0.1-0.3,0.1-0.6,0.1-0.9c0-0.6-0.2-1.2-0.5-1.7c-0.5-0.8-1.2-1.3-2.1-1.6
		c-1.8-0.5-3.7,0.6-4.1,2.4c0,0-0.1,0.4-0.1,0.6c-0.7,0.8-1.7,1.2-2.7,0.9c-1.1-0.3-1.9-1.3-2-2.4c2.4,0.5,3.9-0.4,4.5-2.8
		c0.1-0.5,0.2-0.9,0.2-1.4c0-1.3-0.6-2.2-1.8-2.8v-0.1c0-0.5-0.1-0.9-0.2-1.3c1-0.4,1.8-1.3,2-2.4c1.6,0.4,3.4,0.8,4.9,1.4
		c1.4,0.5,2.5,1.3,3.3,2c0.8,2.1,1.3,4.5,1.5,7.5c-0.8,0.4-1.5,1.1-2,2.4c-0.2,0.6-0.4,1.2-0.4,1.7
		C137.2,48.4,137.7,49.2,138.6,49.9L138.6,49.9z"/>
	<path id="path7" inkscape:connector-curvature="0" class="st1" d="M119.2,41.6c-0.6,1-1.8,1.5-2.9,1.2c-1.1-0.3-1.9-1.3-2-2.5
		c0.3-0.5,0.4-1,0.4-1.6c0-1.9-1.5-3.4-3.4-3.4s-3.4,1.5-3.4,3.4c0,0.3,0.1,0.6,0.1,0.8c-0.4,1.1-1.4,1.9-2.5,1.9
		c-1.2,0-2.2-0.8-2.5-1.9c2.4-0.2,3.6-1.4,3.6-3.8c0-2.1-0.9-3.3-2.6-3.7c-0.3-1.2-1-2-2.1-2.4c0.7-0.6,1.1-1.4,1.1-2.3
		c0-0.6-0.2-1.1-0.5-1.6c0,0,0-0.2,0-0.4c5.4-0.8,12.6-0.3,17.9,2.7c0.5,1.5,0.9,3,1.1,4.5c-0.6,0.3-1.1,0.8-1.5,1.5
		c-1.8,0-2.9,0.9-3.4,2.9c-0.1,0.5-0.2,0.9-0.2,1.4C116.4,39.9,117.4,41,119.2,41.6z"/>
	<path id="path9" inkscape:connector-curvature="0" class="st1" d="M98.2,29.5c-1.1,0.4-1.8,1.2-2.1,2.4c-1.8,0.4-2.6,1.6-2.6,3.7
		c0,2.4,1.2,3.7,3.6,3.8c-0.3,1.1-1.3,1.9-2.5,1.9c-1.1,0-2.2-0.8-2.5-1.9c0.1-0.3,0.1-0.5,0.1-0.8c0-0.9-0.4-1.8-1-2.4
		c-0.6-0.6-1.5-1-2.4-1c-1.9,0-3.4,1.5-3.4,3.4c0,0.5,0.1,1.1,0.4,1.6c0,1.2-0.9,2.2-2,2.5c-1.1,0.3-2.3-0.2-2.9-1.2
		c1.9-0.6,2.8-1.7,2.8-3.3c0-0.4-0.1-0.9-0.2-1.4c-0.5-2-1.6-2.9-3.4-2.9c-0.4-0.7-0.9-1.2-1.5-1.5c0.2-1.5,0.5-3.1,1.1-4.5
		c5.3-3,12.5-3.5,17.9-2.7c0,0.2,0,0.4,0,0.4c-0.3,0.5-0.5,1-0.5,1.6C97,28.1,97.5,29,98.2,29.5z"/>
	<path id="path11" inkscape:connector-curvature="0" class="st1" d="M72.1,36.1c-1.2,0.6-1.8,1.5-1.8,2.8c0,0.4,0.1,0.9,0.2,1.4
		c0.6,2.3,2.1,3.3,4.5,2.8c-0.1,1.1-0.8,2.1-2,2.4c-1,0.3-2.1-0.1-2.7-0.9c0-0.2-0.1-0.6-0.1-0.6c-0.5-1.8-2.3-2.9-4.1-2.4
		c-0.9,0.2-1.6,0.8-2.1,1.6c-0.3,0.5-0.5,1.1-0.5,1.7c0,0.3,0,0.6,0.1,0.8c0.1,0.5,0.4,0.9,0.7,1.3c0,0.1,0,0.1,0,0.2
		c0,1-0.5,1.9-1.4,2.3c-0.4,0.2-0.9,0.3-1.4,0.3c0.9-0.7,1.4-1.5,1.4-2.5c0-0.5-0.1-1.1-0.4-1.7c-0.5-1.3-1.2-2-2-2.4
		c0.2-3,0.7-5.4,1.5-7.5c0.8-0.7,1.9-1.4,3.3-2c1.5-0.6,3.3-1.1,4.9-1.4c0.2,1.1,1,2,2,2.4c-0.1,0.4-0.2,0.8-0.2,1.3
		C72.1,36,72.1,36,72.1,36.1z"/>
	<path id="path13" inkscape:connector-curvature="0" class="st1" d="M129.4,48.6c0.7-0.2,1.3-0.5,1.9-0.9c0.3,0.2,0.6,0.4,1,0.4
		c0,0,0.1,0,0.2,0c0.2,0.7,0.4,1.3,0.8,1.9C132,49.6,130.7,49.1,129.4,48.6z"/>
	<path id="path15" inkscape:connector-curvature="0" class="st1" d="M100,43.3c0,0-1,0-1.9,0c0.9-0.7,1.5-1.6,1.9-2.6
		c0.4,1,1,1.9,1.9,2.6C101,43.3,100,43.3,100,43.3z"/>
	<path id="path17" inkscape:connector-curvature="0" class="st1" d="M66.8,50.1c0.4-0.6,0.6-1.2,0.8-1.9c0.1,0,0.2,0,0.2,0
		c0.4-0.1,0.7-0.2,1-0.4c0.6,0.4,1.2,0.7,1.9,0.9C69.4,49.1,68.1,49.6,66.8,50.1z"/>
	<path id="path19" inkscape:connector-curvature="0" class="st1" d="M77,46.6c0.7-0.9,1-1.9,1.2-3c0.6,0.9,1.5,1.6,2.5,2
		C79.4,45.9,78.2,46.2,77,46.6z"/>
	<path id="path21" inkscape:connector-curvature="0" class="st1" d="M87.2,44.4c0.6-0.6,1.2-1.4,1.5-2.2c0.2,0,0.5-0.1,0.7-0.1
		c0.5,0.7,1.2,1.3,2,1.8C90,44,88.6,44.2,87.2,44.4z"/>
	<path id="path23" inkscape:connector-curvature="0" class="st1" d="M108.6,43.8c0.8-0.4,1.5-1,2-1.8c0.2,0.1,0.5,0.1,0.7,0.1
		c0.3,0.8,0.8,1.6,1.5,2.2C111.4,44.2,110,44,108.6,43.8z"/>
	<path id="path25" inkscape:connector-curvature="0" class="st1" d="M119.3,45.6c1-0.4,1.9-1.1,2.5-2c0.1,1.1,0.5,2.1,1.2,3
		C121.8,46.2,120.6,45.9,119.3,45.6z"/>
	<path id="path27" inkscape:connector-curvature="0" class="st2" d="M93.8,11.5c0-0.8,0.7-1.5,1.5-1.5s1.5,0.7,1.5,1.5
		c0,0.8-0.7,1.5-1.5,1.5C94.4,13,93.8,12.4,93.8,11.5z"/>
	<path id="path29" inkscape:connector-curvature="0" class="st2" d="M98.5,16.2c0-0.8,0.7-1.5,1.5-1.5s1.5,0.7,1.5,1.5
		s-0.7,1.5-1.5,1.5S98.5,17.1,98.5,16.2z"/>
	<path id="path31" inkscape:connector-curvature="0" class="st2" d="M98.5,21.7c0-0.8,0.7-1.5,1.5-1.5s1.5,0.7,1.5,1.5
		s-0.7,1.5-1.5,1.5S98.5,22.6,98.5,21.7z"/>
	<path id="path33" inkscape:connector-curvature="0" class="st2" d="M98.5,27.2c0-0.8,0.7-1.5,1.5-1.5s1.5,0.7,1.5,1.5
		s-0.7,1.5-1.5,1.5S98.5,28,98.5,27.2z"/>
	<path id="path35" inkscape:connector-curvature="0" class="st2" d="M88.7,12.4c0-0.4,0.2-0.8,0.4-1.1c0.3-0.3,0.7-0.4,1.1-0.4
		c0.8,0,1.5,0.7,1.5,1.5c0,0.8-0.7,1.5-1.5,1.5C89.4,13.9,88.7,13.2,88.7,12.4z"/>
	<path id="path37" inkscape:connector-curvature="0" class="st2" d="M84,14.2c0-0.8,0.7-1.5,1.5-1.5s1.5,0.7,1.5,1.5
		c0,0.8-0.7,1.5-1.5,1.5C84.6,15.7,84,15,84,14.2z"/>
	<path id="path39" inkscape:connector-curvature="0" class="st2" d="M79.3,17.3c0-0.8,0.7-1.5,1.5-1.5c0.4,0,0.8,0.2,1.1,0.4
		c0.3,0.3,0.4,0.7,0.4,1.1c0,0.8-0.7,1.5-1.5,1.5C80,18.8,79.3,18.2,79.3,17.3z"/>
	<path id="path41" inkscape:connector-curvature="0" class="st2" d="M75.7,21.4c0-0.8,0.7-1.5,1.5-1.5c0.8,0,1.5,0.7,1.5,1.5
		s-0.7,1.5-1.5,1.5S75.7,22.2,75.7,21.4z"/>
	<path id="path43" inkscape:connector-curvature="0" class="st2" d="M70.9,21c0-0.8,0.7-1.5,1.5-1.5c0.4,0,0.8,0.2,1.1,0.4
		c0.3,0.3,0.4,0.7,0.4,1.1c0,0.8-0.7,1.5-1.5,1.5S70.9,21.8,70.9,21z"/>
	<path id="path45" inkscape:connector-curvature="0" class="st2" d="M66.2,22.8c0-0.8,0.7-1.5,1.5-1.5s1.5,0.7,1.5,1.5
		s-0.7,1.5-1.5,1.5S66.2,23.7,66.2,22.8z"/>
	<path id="path47" inkscape:connector-curvature="0" class="st2" d="M61.7,26c0-0.8,0.7-1.5,1.5-1.5s1.5,0.7,1.5,1.5
		s-0.7,1.5-1.5,1.5S61.7,26.8,61.7,26z"/>
	<path id="path49" inkscape:connector-curvature="0" class="st2" d="M58.2,30.2c0-0.8,0.7-1.5,1.5-1.5c0.8,0,1.5,0.7,1.5,1.5
		c0,0.8-0.7,1.5-1.5,1.5C58.8,31.8,58.2,31.1,58.2,30.2z"/>
	<path id="path51" inkscape:connector-curvature="0" class="st2" d="M55.9,35c0-0.8,0.7-1.5,1.5-1.5c0.8,0,1.5,0.7,1.5,1.5
		c0,0.8-0.7,1.5-1.5,1.5S55.9,35.8,55.9,35z"/>
	<path id="path53" inkscape:connector-curvature="0" class="st2" d="M54.7,40.4c0-0.8,0.7-1.5,1.5-1.5c0.8,0,1.5,0.7,1.5,1.5
		c0,0.8-0.7,1.5-1.5,1.5C55.4,41.9,54.7,41.2,54.7,40.4z"/>
	<path id="path55" inkscape:connector-curvature="0" class="st2" d="M73.4,26.1c0-0.4,0.2-0.8,0.4-1.1c0.3-0.3,0.7-0.4,1.1-0.4
		c0.8,0,1.5,0.7,1.5,1.5s-0.7,1.5-1.5,1.5C74,27.6,73.4,26.9,73.4,26.1z"/>
	<path id="path57" inkscape:connector-curvature="0" class="st2" d="M72.1,31.6c0-0.8,0.7-1.5,1.5-1.5c0.8,0,1.5,0.7,1.5,1.5
		s-0.7,1.5-1.5,1.5C72.8,33.1,72.1,32.4,72.1,31.6z"/>
	<path id="path59" inkscape:connector-curvature="0" class="st2" d="M97.3,35.1c0-1.5,1.2-2.7,2.7-2.7s2.7,1.2,2.7,2.7
		s-1.2,2.7-2.7,2.7S97.3,36.6,97.3,35.1z"/>
	<path id="path61" inkscape:connector-curvature="0" class="st2" d="M75.4,40.3c-0.6-0.4-1.1-1-1.2-1.7c-0.4-1.4,0.5-2.9,1.9-3.3
		c1.4-0.4,2.9,0.5,3.3,1.9l0,0c0.4,1.4-0.5,2.9-1.9,3.3C76.7,40.8,76,40.7,75.4,40.3z"/>
	<path id="path63" inkscape:connector-curvature="0" class="st2" d="M54.4,48.8c-0.7-1.3-0.2-2.9,1.1-3.7c0.6-0.3,1.4-0.4,2.1-0.2
		s1.3,0.7,1.6,1.3l0,0c0.7,1.3,0.2,2.9-1.1,3.7C56.8,50.6,55.1,50.1,54.4,48.8z"/>
	<path id="path65" inkscape:connector-curvature="0" class="st2" d="M103.3,11.5c0-0.4,0.2-0.8,0.4-1.1c0.3-0.3,0.7-0.4,1.1-0.4
		c0.8,0,1.5,0.7,1.5,1.5c0,0.8-0.7,1.5-1.5,1.5C104,13,103.3,12.4,103.3,11.5z"/>
	<path id="path67" inkscape:connector-curvature="0" class="st2" d="M108.3,12.4c0-0.8,0.7-1.5,1.5-1.5s1.5,0.7,1.5,1.5
		c0,0.8-0.7,1.5-1.5,1.5C109,13.9,108.3,13.2,108.3,12.4z"/>
	<path id="path69" inkscape:connector-curvature="0" class="st2" d="M113.1,14.2c0-0.8,0.7-1.5,1.5-1.5s1.5,0.7,1.5,1.5
		c0,0.8-0.7,1.5-1.5,1.5C113.7,15.7,113.1,15,113.1,14.2z"/>
	<path id="path71" inkscape:connector-curvature="0" class="st2" d="M117.7,17.3c0-0.8,0.7-1.5,1.5-1.5s1.5,0.7,1.5,1.5
		s-0.7,1.5-1.5,1.5C118.3,18.8,117.7,18.2,117.7,17.3z"/>
	<path id="path73" inkscape:connector-curvature="0" class="st2" d="M121.3,21.4c0-0.8,0.7-1.5,1.5-1.5c0.4,0,0.8,0.2,1.1,0.4
		c0.3,0.3,0.4,0.7,0.4,1.1c0,0.8-0.7,1.5-1.5,1.5C122,22.9,121.3,22.2,121.3,21.4z"/>
	<path id="path75" inkscape:connector-curvature="0" class="st2" d="M126.1,21c0-0.8,0.7-1.5,1.5-1.5c0.8,0,1.5,0.7,1.5,1.5
		s-0.7,1.5-1.5,1.5C126.8,22.5,126.1,21.8,126.1,21z"/>
	<path id="path77" inkscape:connector-curvature="0" class="st2" d="M130.8,22.8c0-0.8,0.7-1.5,1.5-1.5c0.8,0,1.5,0.7,1.5,1.5
		s-0.7,1.5-1.5,1.5S130.8,23.7,130.8,22.8z"/>
	<path id="path79" inkscape:connector-curvature="0" class="st2" d="M135.3,26c0-0.8,0.7-1.5,1.5-1.5s1.5,0.7,1.5,1.5
		s-0.7,1.5-1.5,1.5S135.3,26.8,135.3,26z"/>
	<path id="path81" inkscape:connector-curvature="0" class="st2" d="M138.9,30.2c0-0.8,0.7-1.5,1.5-1.5s1.5,0.7,1.5,1.5
		c0,0.8-0.7,1.5-1.5,1.5C139.5,31.8,138.9,31.1,138.9,30.2z"/>
	<path id="path83" inkscape:connector-curvature="0" class="st2" d="M141.1,35c0-0.8,0.7-1.5,1.5-1.5s1.5,0.7,1.5,1.5
		c0,0.8-0.7,1.5-1.5,1.5S141.1,35.8,141.1,35z"/>
	<path id="path85" inkscape:connector-curvature="0" class="st2" d="M142.3,40.4c0-0.8,0.7-1.5,1.5-1.5s1.5,0.7,1.5,1.5
		c0,0.8-0.7,1.5-1.5,1.5S142.3,41.2,142.3,40.4z"/>
	<path id="path87" inkscape:connector-curvature="0" class="st2" d="M123.7,26.1c0-0.8,0.7-1.5,1.5-1.5c0.8,0,1.5,0.7,1.5,1.5
		s-0.7,1.5-1.5,1.5C124.3,27.6,123.7,26.9,123.7,26.1z"/>
	<path id="path89" inkscape:connector-curvature="0" class="st2" d="M124.9,31.6c0-0.8,0.7-1.5,1.5-1.5s1.5,0.7,1.5,1.5
		s-0.7,1.5-1.5,1.5C125.6,33.1,124.9,32.4,124.9,31.6z"/>
	<path id="path91" inkscape:connector-curvature="0" class="st2" d="M122.6,40.6c-0.7-0.2-1.3-0.6-1.6-1.2c-0.4-0.6-0.5-1.3-0.3-2
		l0,0c0.2-0.7,0.6-1.3,1.2-1.6c0.6-0.4,1.3-0.5,2-0.3s1.3,0.6,1.6,1.2c0.4,0.6,0.5,1.3,0.3,2c-0.2,0.7-0.6,1.3-1.2,1.7
		C124,40.7,123.3,40.8,122.6,40.6L122.6,40.6z"/>
	<path id="path93" inkscape:connector-curvature="0" class="st2" d="M142,49.9c-0.6-0.3-1.1-0.9-1.3-1.6c-0.2-0.7-0.1-1.4,0.2-2l0,0
		c0.3-0.6,0.9-1.1,1.6-1.3c0.7-0.2,1.4-0.1,2.1,0.2c0.6,0.3,1.1,0.9,1.3,1.6c0.2,0.7,0.1,1.4-0.2,2.1
		C144.9,50.1,143.3,50.6,142,49.9z"/>
	<path id="path95" inkscape:connector-curvature="0" class="st2" d="M88.8,51.5c0-0.4,0.2-0.8,0.4-1.1c0.3-0.3,0.7-0.4,1.1-0.4
		c0.8,0,1.5,0.7,1.5,1.5c0,0.8-0.7,1.5-1.5,1.5C89.4,53,88.8,52.3,88.8,51.5z"/>
	<path id="path97" inkscape:connector-curvature="0" class="st2" d="M70.1,56.5c0-0.4,0.2-0.8,0.4-1.1c0.3-0.3,0.7-0.4,1.1-0.4
		c0.8,0,1.5,0.7,1.5,1.5c0,0.8-0.7,1.5-1.5,1.5S70.1,57.4,70.1,56.5z"/>
	<path id="path99" inkscape:connector-curvature="0" class="st1" d="M100,49.2c0.1,0,3.9,1.5,4.8,1.8c-0.9,0.3-4.7,1.7-4.8,1.8
		c-0.1-0.1-3.9-1.5-4.8-1.8C96.1,50.7,99.9,49.3,100,49.2z"/>
	<path id="path101" inkscape:connector-curvature="0" class="st1" d="M66.4,56.8c0.3,0.1,1.7,0.6,2,0.7c-0.1,0.3-0.5,1.9-0.6,2.3
		c-0.4-0.2-1.7-0.9-1.9-1.1C65.9,58.6,66.3,57.2,66.4,56.8z"/>
	<path id="path103" inkscape:connector-curvature="0" class="st2" d="M108.3,51.5c0-0.8,0.7-1.5,1.5-1.5s1.5,0.7,1.5,1.5
		c0,0.8-0.7,1.5-1.5,1.5C108.9,53,108.3,52.3,108.3,51.5z"/>
	<path id="path105" inkscape:connector-curvature="0" class="st2" d="M126.9,56.5c0-0.8,0.7-1.5,1.5-1.5s1.5,0.7,1.5,1.5
		c0,0.8-0.7,1.5-1.5,1.5C127.6,58.1,126.9,57.4,126.9,56.5z"/>
	<path id="path107" inkscape:connector-curvature="0" class="st3" d="M134.3,55.5L134.3,55.5c-10.8-5-22.3-7.7-34.3-7.7
		s-23.5,2.5-34.3,7.7c-0.1,0-0.1,0.1-0.2,0.2c0,0.1,0,0.2,0,0.4c0,0.1,0.1,0.2,0.2,0.2c0.1,0,0.2,0,0.3,0s0.2,0,0.3,0
		c0.1,0,0.1,0.1,0.2,0.2v0.1l2,0.7c0.1,0,0.2,0.2,0.1,0.3l-0.4,2.2l0.1,0.1c0.1,0.2,0,0.4-0.2,0.4c-0.3,0.1-0.4,0.4-0.3,0.7
		c0.1,0.2,0.4,0.4,0.7,0.3c9.9-4.6,20.5-7,31.4-7s21.6,2.3,31.4,7c0.3,0.1,0.5,0,0.7-0.3c0.1-0.3,0-0.6-0.3-0.7
		c-0.2-0.1-0.2-0.3-0.2-0.4l0.1-0.1l-0.6-2.4c0-0.1,0-0.2,0.1-0.3l2-0.7v-0.1c0-0.1,0.1-0.1,0.2-0.2c0.1,0,0.2,0,0.3,0
		c0.2,0.1,0.5,0,0.6-0.2c0.1-0.1,0.1-0.3,0-0.4C134.4,55.6,134.4,55.5,134.3,55.5L134.3,55.5z M71.6,58.6c-1.1,0-1.9-0.9-1.9-1.9
		c0-0.5,0.2-1,0.6-1.4s0.9-0.6,1.4-0.6c1.1,0,1.9,0.9,1.9,1.9C73.5,57.7,72.7,58.6,71.6,58.6z M86.3,52.3l-4.7,3.3h-0.1L75.6,55
		c-0.1,0-0.2-0.1-0.2-0.2s0-0.2,0.1-0.2l4.7-3.3h0.1l5.8,0.6c0.1,0,0.2,0.1,0.2,0.2C86.4,52.1,86.3,52.2,86.3,52.3z M90.3,53.5
		c-1.1,0-1.9-0.9-1.9-1.9c0-0.5,0.2-1,0.6-1.4s0.9-0.6,1.4-0.6c1.1,0,1.9,0.9,1.9,1.9C92.2,52.6,91.3,53.5,90.3,53.5z M105.5,51.2
		l-5.4,2c0,0-0.1,0-0.2,0l-5.4-2c-0.1,0-0.1-0.1-0.1-0.2s0.1-0.2,0.1-0.2l5.4-2c0,0,0.1,0,0.2,0l5.4,2c0.1,0,0.1,0.1,0.1,0.2
		C105.7,51.1,105.6,51.2,105.5,51.2z M109.8,53.5c-1.1,0-1.9-0.9-1.9-1.9c0-1.1,0.9-1.9,1.9-1.9c1.1,0,1.9,0.9,1.9,1.9
		C111.7,52.6,110.8,53.5,109.8,53.5z M124.5,55l-5.8,0.6c-0.1,0-0.1,0-0.1,0l-4.7-3.3c-0.1-0.1-0.1-0.1-0.1-0.2s0.1-0.2,0.2-0.2
		l5.8-0.6c0.1,0,0.1,0,0.1,0l4.7,3.3c0.1,0,0.1,0.1,0.1,0.2S124.6,55,124.5,55z M128.4,58.6c-1.1,0-1.9-0.9-1.9-1.9
		c0-1.1,0.9-1.9,1.9-1.9c1.1,0,1.9,0.9,1.9,1.9C130.4,57.7,129.5,58.6,128.4,58.6z"/>
	<path id="path109" inkscape:connector-curvature="0" class="st3" d="M146.8,46.8c-0.1-0.1-0.2-0.3,0-0.5c0.6-0.7,0.8-1.6,0.6-2.4
		c-0.1-0.7-0.5-1.3-1.1-1.7c-0.1-0.1-0.2-0.3-0.1-0.4c0.2-0.4,0.4-0.9,0.4-1.4c0-1.3-0.9-2.4-2.2-2.7c-0.1,0-0.2-0.1-0.3-0.2
		c0-0.1,0-0.3,0.1-0.3c0.7-0.5,1-1.3,1-2.1c0-1.4-1.1-2.6-2.5-2.7c-0.1,0-0.2-0.1-0.3-0.2c0-0.1,0-0.2,0-0.3c0.3-0.4,0.5-1,0.5-1.5
		c0-1.5-1.2-2.7-2.7-2.7c-0.2,0-0.5,0-0.7,0.1c-0.1,0-0.3,0-0.3-0.1c-0.1-0.1-0.1-0.2,0-0.3c0.2-0.4,0.2-0.7,0.2-1.1
		c0-1.5-1.2-2.7-2.7-2.7c-0.4,0-0.9,0.1-1.2,0.3c-0.1,0.1-0.2,0-0.3,0c-0.1-0.1-0.2-0.2-0.1-0.3V23c0-1.5-1.2-2.7-2.7-2.7
		c-0.6,0-1.1,0.2-1.5,0.5c-0.1,0.1-0.2,0.1-0.3,0c-0.1,0-0.2-0.1-0.2-0.2c-0.3-1.2-1.4-2.1-2.7-2.1c-0.9,0-1.8,0.5-2.3,1.3
		c-0.1,0.1-0.1,0.1-0.2,0.1s-0.2,0-0.3-0.1c-0.5-0.6-1.2-0.9-2-0.9l-0.6,0.1c-0.1,0-0.2,0-0.3-0.1c-0.1-0.1-0.1-0.2-0.1-0.3
		c0.1-0.3,0.2-0.6,0.2-1c0-1.5-1.2-2.7-2.7-2.7c-0.5,0-1,0.1-1.4,0.4c-0.1,0.1-0.2,0.1-0.3,0c-0.1-0.1-0.2-0.2-0.2-0.3v-0.4
		c0-0.7-0.3-1.4-0.8-1.9c-0.5-0.9-1.2-1.2-1.9-1.2c-0.6,0-1.1,0.2-1.6,0.5c-0.1,0.1-0.2,0.1-0.3,0c-0.1,0-0.2-0.1-0.2-0.2
		c-0.3-1.2-1.4-2.1-2.6-2.1c-0.7,0-1.4,0.3-1.9,0.8c-0.1,0.1-0.2,0.1-0.3,0.1c-0.1,0-0.2-0.1-0.2-0.2c-0.4-0.9-1.4-1.6-2.5-1.6
		c-0.3,0-0.6,0.1-0.9,0.1c-0.1,0-0.3,0-0.4-0.1c-0.5-0.6-1.2-1-1.9-1.3l-0.5,0c-0.1,0-0.2-0.2-0.2-0.3V4.8c0-0.2,0.1-0.3,0.3-0.3
		c0,0,1.5,0,2,0c0-0.4,0-1.3,0-1.7c-0.5,0-2,0-2,0c-0.2,0-0.3-0.1-0.3-0.3c0,0,0-1.3,0-1.7c-0.4,0-1.4,0-1.8,0c0,0.5,0,1.7,0,1.7
		c0,0.2-0.1,0.3-0.3,0.3c0,0-1.5,0-2,0c0,0.4,0,1.3,0,1.7c0.5,0,2,0,2,0c0.2,0,0.3,0.1,0.3,0.3v2.3c0,0.1-0.1,0.3-0.2,0.3l-0.5,0.2
		c-0.7,0.3-1.4,0.7-1.9,1.3C96.5,9,96.4,9,96.2,9c-0.3-0.1-0.6-0.1-0.9-0.1c-1,0-2,0.6-2.5,1.6c0,0.1-0.1,0.2-0.2,0.2
		c-0.1,0-0.2,0-0.3-0.1c-0.5-0.5-1.2-0.8-1.9-0.8c-1.3,0-2.4,0.9-2.6,2.1c0,0.1-0.1,0.2-0.2,0.2c-0.1,0-0.2,0-0.3,0
		c-0.5-0.4-1-0.5-1.6-0.5c-1.5,0-2.7,1.2-2.7,2.7v0.4c0,0.1,0,0.3-0.2,0.3c-0.1,0.1-0.2,0.1-0.3,0c-0.4-0.3-0.9-0.4-1.4-0.4
		c-1.5,0-2.7,1.2-2.7,2.7c0,0.3,0.1,0.7,0.2,1c0,0.1,0,0.2-0.1,0.3c-0.1,0.1-0.2,0.1-0.3,0.1l-0.6-0.1c-0.8,0-1.5,0.3-2,0.9
		c-0.1,0.1-0.2,0.1-0.3,0.1c-0.1,0-0.2-0.1-0.2-0.1c-0.5-0.8-1.4-1.3-2.3-1.3c-1.3,0-2.4,0.9-2.6,2.1c0,0.1-0.1,0.2-0.2,0.2
		s-0.2,0-0.3,0c-0.5-0.3-1-0.5-1.6-0.5c-1.5,0-2.7,1.2-2.7,2.7v0.4c0,0.1,0,0.2-0.1,0.3c-0.1,0.1-0.2,0.1-0.3,0
		c-0.4-0.2-0.8-0.3-1.2-0.3c-1.5,0-2.7,1.2-2.7,2.7c0,0.4,0.1,0.8,0.2,1.1c0.1,0.1,0,0.3,0,0.3c-0.1,0.1-0.2,0.1-0.3,0.1
		c-0.6,0.1-0.8,0.1-1,0.1c-1.5,0-2.7,1.2-2.7,2.7c0,0.5,0.2,1.1,0.5,1.5c0.1,0.1,0.1,0.2,0,0.3c0,0.1-0.2,0.2-0.3,0.2
		c-1.4,0.1-2.5,1.3-2.5,2.7c0,0.8,0.4,1.6,1,2.1c0.1,0.1,0.1,0.2,0.1,0.3c0,0.1-0.1,0.2-0.3,0.2c-1.2,0.3-2.2,1.4-2.2,2.7
		c0,0.5,0.1,1,0.4,1.4c0.1,0.2,0,0.3-0.1,0.4c-0.6,0.4-1,1-1.1,1.7c-0.1,0.8,0.1,1.6,0.6,2.4c0.1,0.1,0.1,0.3,0,0.5
		c-0.4,0.4-0.7,0.9-0.7,1.5c0,1.1,0.7,2.2,1.5,2.7c0.8,0.6,2.4,1.5,4,0.4c0.1-0.1,0.3-0.1,0.4,0c1.3,1,3.1,1.3,4.7,0.8
		c0.1,0,0.3,0,0.3,0.1c0.1,0.1,0.1,0.2,0,0.4c-0.2,0.4-0.2,0.8,0,1.2s0.4,0.6,0.8,0.7c0.3,0.1,0.7,0.1,1-0.1
		c10.9-5.1,22.6-7.8,34.7-7.8s23.8,2.6,34.7,7.8c0.7,0.3,1.5,0,1.8-0.7c0.2-0.4,0.2-0.8,0-1.2c-0.1-0.1,0-0.3,0-0.4
		c0.1-0.1,0.2-0.1,0.3-0.1c1.6,0.5,3.4,0.2,4.7-0.8c0.1-0.1,0.3-0.1,0.4,0c1.6,1.1,3.2,0.2,4-0.4c0.7-0.6,1.4-1.7,1.5-2.7
		C147.6,47.6,147.3,47.1,146.8,46.8L146.8,46.8z M145.8,40.4c0,1.1-0.9,1.9-1.9,1.9c-1.1,0-1.9-0.9-1.9-1.9c0-1.1,0.9-1.9,1.9-1.9
		C144.9,38.4,145.8,39.3,145.8,40.4z M142.6,33.1c1.1,0,1.9,0.9,1.9,1.9c0,1.1-0.9,1.9-1.9,1.9c-1.1,0-1.9-0.9-1.9-1.9
		C140.7,33.9,141.5,33.1,142.6,33.1z M140.4,28.3c1.1,0,1.9,0.9,1.9,1.9c0,1.1-0.9,1.9-1.9,1.9c-1.1,0-1.9-0.9-1.9-1.9
		C138.4,29.1,139.3,28.3,140.4,28.3L140.4,28.3z M140.5,46L140.5,46L140.5,46z M136.8,24.1c1.1,0,1.9,0.9,1.9,1.9
		c0,1.1-0.9,1.9-1.9,1.9c-1.1,0-1.9-0.9-1.9-1.9C134.9,24.9,135.7,24.1,136.8,24.1z M132.3,20.9c1.1,0,1.9,0.9,1.9,1.9
		c0,1.1-0.9,1.9-1.9,1.9c-1.1,0-1.9-0.9-1.9-1.9S131.2,20.9,132.3,20.9z M127.6,19c1.1,0,1.9,0.9,1.9,1.9c0,1.1-0.9,1.9-1.9,1.9
		c-1.1,0-1.9-0.9-1.9-1.9S126.5,19,127.6,19z M125.2,24.2c1.1,0,1.9,0.9,1.9,1.9c0,1.1-0.9,1.9-1.9,1.9c-1.1,0-1.9-0.9-1.9-1.9
		C123.2,25,124.1,24.2,125.2,24.2z M121.7,35.3c0.7-0.4,1.6-0.5,2.4-0.3c0.8,0.2,1.5,0.7,1.9,1.4s0.5,1.6,0.3,2.4
		c-0.2,0.8-0.7,1.5-1.4,1.9c-0.7,0.4-1.6,0.5-2.4,0.3s-1.5-0.7-1.9-1.4c-0.3-0.5-0.4-1-0.4-1.6c0-0.3,0-0.5,0.1-0.8l0,0l0,0
		C120.3,36.4,121,35.7,121.7,35.3z M126.4,33.5c-1.1,0-1.9-0.9-1.9-1.9c0-1.1,0.9-1.9,1.9-1.9c1.1,0,1.9,0.9,1.9,1.9
		C128.3,32.7,127.5,33.5,126.4,33.5z M122.8,19.4c0.5,0,1,0.2,1.4,0.6c0.4,0.4,0.6,0.9,0.6,1.4c0,1.1-0.9,1.9-1.9,1.9
		c-1.1,0-1.9-0.9-1.9-1.9C120.9,20.3,121.7,19.4,122.8,19.4z M119.2,15.3c1.1,0,1.9,0.9,1.9,1.9c0,1.1-0.9,1.9-1.9,1.9
		c-1.1,0-1.9-0.9-1.9-1.9C117.2,16.2,118.1,15.3,119.2,15.3z M114.6,12.2c1.1,0,1.9,0.9,1.9,1.9c0,1.1-0.9,1.9-1.9,1.9
		c-1.1,0-1.9-0.9-1.9-1.9C112.6,13.1,113.5,12.2,114.6,12.2z M109.8,10.4c1.1,0,1.9,0.9,1.9,1.9s-0.9,1.9-1.9,1.9
		c-1.1,0-1.9-0.9-1.9-1.9C107.8,11.3,108.7,10.4,109.8,10.4z M103.4,10.2c0.4-0.4,0.9-0.6,1.4-0.6c1.1,0,1.9,0.9,1.9,1.9
		c0,1.1-0.9,1.9-1.9,1.9c-1.1,0-1.9-0.9-1.9-1.9C102.8,11,103,10.5,103.4,10.2z M100,14.3c1.1,0,1.9,0.9,1.9,1.9
		c0,1.1-0.9,1.9-1.9,1.9s-1.9-0.9-1.9-1.9C98.1,15.1,98.9,14.3,100,14.3z M98.1,27.2c0-1.1,0.9-1.9,1.9-1.9c1.1,0,1.9,0.9,1.9,1.9
		s-0.9,1.9-1.9,1.9C98.9,29.1,98.1,28.3,98.1,27.2z M103.1,35.1c0,1.7-1.4,3.1-3.1,3.1s-3.1-1.4-3.1-3.1c0-1.7,1.4-3.1,3.1-3.1
		S103.1,33.4,103.1,35.1z M100,23.7c-1.1,0-1.9-0.9-1.9-1.9c0-1.1,0.9-1.9,1.9-1.9c1.1,0,1.9,0.9,1.9,1.9
		C102,22.8,101.1,23.7,100,23.7z M95.3,9.6c1.1,0,1.9,0.9,1.9,1.9c0,1.1-0.9,1.9-1.9,1.9c-1.1,0-1.9-0.9-1.9-1.9
		C93.3,10.5,94.2,9.6,95.3,9.6z M88.9,11c0.4-0.4,0.9-0.6,1.4-0.6c1.1,0,1.9,0.9,1.9,1.9s-0.9,1.9-1.9,1.9c-1.1,0-1.9-0.9-1.9-1.9
		C88.3,11.9,88.5,11.4,88.9,11z M85.5,12.2c1.1,0,1.9,0.9,1.9,1.9c0,1.1-0.9,1.9-1.9,1.9c-1.1,0-1.9-0.9-1.9-1.9
		C83.5,13.1,84.4,12.2,85.5,12.2z M80.9,15.3c0.5,0,1,0.2,1.4,0.6c0.4,0.4,0.6,0.9,0.6,1.4c0,1.1-0.9,1.9-1.9,1.9
		c-1.1,0-1.9-0.9-1.9-1.9C78.8,16.2,79.8,15.3,80.9,15.3z M77.2,19.4c1.1,0,1.9,0.9,1.9,1.9c0,1.1-0.9,1.9-1.9,1.9
		c-1.1,0-1.9-0.9-1.9-1.9C75.3,20.3,76.2,19.4,77.2,19.4z M76,35c1.7-0.4,3.4,0.6,3.8,2.3c0.4,1.7-0.6,3.4-2.3,3.8
		c-0.8,0.2-1.7,0.1-2.4-0.3c-0.7-0.4-1.2-1.1-1.4-1.9C73.3,37.1,74.3,35.4,76,35z M71.7,31.6c0-1.1,0.9-1.9,1.9-1.9
		c1.1,0,1.9,0.9,1.9,1.9c0,1.1-0.9,1.9-1.9,1.9S71.7,32.7,71.7,31.6z M74.9,24.2c1.1,0,1.9,0.9,1.9,1.9c0,1.1-0.9,1.9-1.9,1.9
		c-1.1,0-1.9-0.9-1.9-1.9c0-0.5,0.2-1,0.6-1.4C73.9,24.4,74.4,24.2,74.9,24.2z M72.4,19c0.5,0,1,0.2,1.4,0.6
		c0.4,0.4,0.6,0.9,0.6,1.4c0,1.1-0.9,1.9-1.9,1.9c-1.1,0-1.9-0.9-1.9-1.9C70.5,19.9,71.4,19,72.4,19z M67.7,20.9
		c1.1,0,1.9,0.9,1.9,1.9c0,1.1-0.9,1.9-1.9,1.9c-1.1,0-1.9-0.9-1.9-1.9S66.6,20.9,67.7,20.9z M63.2,24.1c1.1,0,1.9,0.9,1.9,1.9
		c0,1.1-0.9,1.9-1.9,1.9c-1.1,0-1.9-0.9-1.9-1.9C61.3,24.9,62.2,24.1,63.2,24.1z M59.7,28.3c1.1,0,1.9,0.9,1.9,1.9
		c0,1.1-0.9,1.9-1.9,1.9c-1.1,0-1.9-0.9-1.9-1.9C57.7,29.1,58.6,28.3,59.7,28.3z M59.5,46L59.5,46L59.5,46z M55.5,35
		c0-1.1,0.9-1.9,1.9-1.9c1.1,0,1.9,0.9,1.9,1.9c0,1.1-0.9,1.9-1.9,1.9C56.4,37,55.5,36.1,55.5,35z M56.2,38.4c1.1,0,1.9,0.9,1.9,1.9
		c0,1.1-0.9,1.9-1.9,1.9c-1,0-2-0.7-2-1.8C54.2,39.3,55.1,38.4,56.2,38.4z M58.3,50.2C56.8,51,54.9,50.5,54,49
		c-0.8-1.5-0.3-3.4,1.2-4.3c0.7-0.4,1.6-0.5,2.4-0.3c0.8,0.2,1.5,0.8,1.9,1.5c0.3,0.5,0.4,1,0.4,1.5C59.9,48.6,59.3,49.7,58.3,50.2z
		 M72,48.8c-2,0.7-4.1,1.5-6.1,2.4c-0.1,0.1-0.3,0-0.4-0.1c-0.1-0.1-0.1-0.3,0-0.4c0.7-0.8,1.2-1.8,1.4-2.8c0-0.1,0.1-0.2,0.3-0.3
		l0.4-0.1c0.3-0.1,0.7-0.2,1-0.5c0.1-0.1,0.3-0.1,0.4,0c0.8,0.6,1.9,1,3,1.1c0.2,0,0.3,0.1,0.3,0.3C72.2,48.6,72.2,48.7,72,48.8z
		 M73.2,46.2c-1.3,0.3-2.7-0.1-3.5-1.2c0,0-0.1-0.1-0.1-0.2l-0.1-0.6c-0.4-1.5-1.9-2.3-3.3-2c-0.7,0.2-1.3,0.6-1.7,1.3
		c-0.4,0.6-0.5,1.4-0.3,2.1c0.1,0.4,0.3,0.8,0.6,1.1c0,0.1,0.1,0.1,0.1,0.2c0.1,1.3-0.5,2.6-1.7,3.2c-0.8,0.5-1.8,0.5-2.7,0.2
		c-0.1,0-0.2-0.2-0.2-0.3c0-0.1,0.1-0.3,0.2-0.3c1.7-0.9,2.2-2.1,1.5-3.9c-0.5-1.2-1.1-1.9-1.8-2.1c-0.1,0-0.2-0.2-0.2-0.3
		c0.7-9.3,3.6-13.6,11.9-17.8c0.1-0.1,0.2-0.1,0.3,0c0.1,0.1,0.2,0.2,0.2,0.3v0.3c0,0.8,0.4,1.6,1,2.1c0.1,0.1,0.1,0.2,0.1,0.3
		s-0.1,0.2-0.3,0.2c-1.3,0.3-2.2,1.4-2.2,2.7c0,1.2,0.8,2.3,1.9,2.6c0.1,0,0.2,0.1,0.2,0.2s0,0.2,0,0.3c-0.2,0.4-0.3,1-0.3,1.6
		c0,0.1-0.1,0.3-0.2,0.3c-1.4,0.7-1.9,1.8-1.4,3.5c0.5,2.1,1.8,2.8,4.1,2.2c0.1,0,0.2,0,0.3,0.1c0.1,0.1,0.1,0.1,0.1,0.2
		C75.8,44.3,74.8,45.8,73.2,46.2z M82,46c-2,0.4-3.9,0.9-5.9,1.5c-0.1,0-0.3,0-0.4-0.2c-0.1-0.1,0-0.3,0.1-0.4
		c1.3-1.1,2-2.8,1.8-4.5c0-0.2,0.1-0.3,0.2-0.4c0.2,0,0.3,0,0.4,0.2c0.7,1.6,2.1,2.7,3.7,3.1c0.2,0,0.3,0.2,0.3,0.3
		C82.3,45.8,82.2,46,82,46z M92.7,44.4c-2.2,0.2-4.4,0.5-6.5,0.8c-0.2,0-0.3-0.1-0.4-0.2c-0.1-0.1,0-0.3,0.1-0.4
		c1.1-0.7,1.9-1.7,2.3-2.8c0-0.1,0.2-0.2,0.3-0.2h0.2c0.3,0,0.5,0,0.8-0.1c0.1,0,0.3,0,0.4,0.1c0.7,1,1.7,1.8,2.9,2.2
		c0.1,0,0.2,0.2,0.2,0.3C93,44.2,92.8,44.4,92.7,44.4z M91.3,39.7c0-0.1,0-0.1,0-0.2c0.1-0.3,0.1-0.5,0.1-0.8c0-0.7-0.3-1.4-0.8-1.9
		c-0.5-0.5-1.2-0.8-1.9-0.8c-1.5,0-2.7,1.2-2.7,2.7c0,0.5,0.1,0.9,0.4,1.4c0,0.1,0,0.1,0,0.2c0,1.5-1.1,2.8-2.5,3.1
		c-1.6,0.4-3.2-0.4-3.9-1.9c0-0.1,0-0.2,0-0.3c0-0.1,0.1-0.2,0.2-0.2c2.3-0.6,3.1-1.8,2.5-3.9c-0.5-1.8-1.4-2.5-3-2.4
		c-0.1,0-0.3-0.1-0.3-0.2c-0.4-0.8-0.8-1.2-1.5-1.5c-0.1-0.1-0.2-0.2-0.2-0.3c0.9-9.2,8-17.9,19.6-17c0.2,0,0.3,0.2,0.3,0.4v0.3
		c0,0.5,0.1,0.9,0.4,1.3c0,0.1,0.1,0.1,0.1,0.2v2.5c0,0.1,0,0.1-0.1,0.2c-0.3,0.4-0.4,0.8-0.4,1.3c0,0.5,0.1,0.9,0.4,1.3
		c0,0.1,0.1,0.1,0.1,0.2v2.5c0,0.1,0,0.1-0.1,0.2c-0.3,0.4-0.4,0.8-0.4,1.3c0,0.9,0.5,1.8,1.4,2.1c0.1,0.1,0.2,0.2,0.2,0.3
		c0,0.1-0.1,0.3-0.3,0.3c-1.4,0.2-2.1,1-2.4,2.3c0,0.1-0.1,0.2-0.3,0.3c-1.6,0.3-2.3,1.3-2.3,3.1c0,2.2,1.1,3.2,3.4,3.2
		c0.1,0,0.2,0,0.2,0.1c0.1,0.1,0.1,0.2,0.1,0.3c-0.3,1.6-1.6,2.8-3.3,2.8C93,42.1,91.7,41.1,91.3,39.7L91.3,39.7z M103.4,43.8
		c0,0.2-0.2,0.3-0.3,0.3l-3.1-0.1l-3.1,0.1c-0.2,0-0.3-0.1-0.3-0.3s0-0.3,0.2-0.4c1.6-0.7,2.6-2.2,2.9-3.9c0-0.2,0.2-0.3,0.3-0.3
		s0.3,0.1,0.3,0.3c0.2,1.7,1.3,3.2,2.9,3.9C103.4,43.5,103.4,43.6,103.4,43.8z M114.2,45c-0.1,0.1-0.2,0.2-0.4,0.2
		c-2.2-0.4-4.4-0.6-6.5-0.8c-0.2,0-0.3-0.1-0.3-0.3s0.1-0.3,0.2-0.3c1.2-0.4,2.2-1.2,2.9-2.2c0.1-0.1,0.2-0.2,0.4-0.1
		c0.3,0.1,0.5,0.1,0.8,0.1h0.2c0.1,0,0.3,0.1,0.3,0.2c0.4,1.2,1.2,2.2,2.3,2.8C114.2,44.7,114.3,44.8,114.2,45z M116.2,43.4
		c-1.4-0.4-2.5-1.7-2.5-3.1c0-0.1,0-0.1,0-0.2c0.2-0.4,0.4-0.9,0.4-1.4c0-1.5-1.2-2.7-2.7-2.7c-1.5,0-2.7,1.2-2.7,2.7
		c0,0.3,0,0.5,0.1,0.8c0,0.1,0,0.1,0,0.2c-0.4,1.4-1.7,2.4-3.2,2.4c-1.6,0-3-1.2-3.3-2.8c0-0.1,0-0.2,0.1-0.3
		c0.1-0.1,0.2-0.1,0.2-0.1c2.4,0,3.4-1,3.4-3.2c0-1.8-0.7-2.8-2.3-3.1c-0.1,0-0.2-0.1-0.3-0.3c-0.3-1.4-1-2.1-2.4-2.3
		c-0.1,0-0.3-0.1-0.3-0.3s0.1-0.3,0.2-0.3c0.8-0.4,1.4-1.2,1.4-2.1c0-0.5-0.1-0.9-0.4-1.3c0-0.1-0.1-0.1-0.1-0.2v-2.5
		c0-0.1,0-0.1,0.1-0.2c0.3-0.4,0.4-0.8,0.4-1.3c0-0.5-0.1-0.9-0.4-1.3c0-0.1-0.1-0.1-0.1-0.2v-2.5c0-0.1,0-0.1,0.1-0.2
		c0.3-0.4,0.4-0.8,0.4-1.3v-0.3c0-0.2,0.1-0.4,0.3-0.4c11.7-0.8,18.7,8,19.6,17c0,0.1-0.1,0.3-0.2,0.3c-0.6,0.2-1.1,0.7-1.5,1.5
		c-0.1,0.1-0.2,0.2-0.3,0.2c-1.6-0.1-2.5,0.7-3,2.4c-0.5,2.1,0.2,3.3,2.5,3.9c0.1,0,0.2,0.1,0.2,0.2c0,0.1,0,0.2,0,0.3
		C119.4,43,117.7,43.8,116.2,43.4z M124.4,47.3c-0.1,0.1-0.2,0.2-0.4,0.2c-1.9-0.6-3.9-1.1-5.8-1.5c-0.2,0-0.3-0.2-0.3-0.3
		c0-0.2,0.1-0.3,0.3-0.3c1.7-0.3,3.1-1.5,3.7-3.1c0.1-0.2,0.2-0.2,0.4-0.2s0.3,0.2,0.2,0.4c-0.2,1.7,0.5,3.4,1.8,4.5
		C124.4,47,124.4,47.2,124.4,47.3z M134.6,51.1c-0.1,0.1-0.3,0.2-0.4,0.1c-2-0.9-4-1.7-6.1-2.4c-0.1-0.1-0.2-0.2-0.2-0.4
		s0.1-0.3,0.3-0.3c1.1-0.1,2.1-0.4,3-1.1c0.1-0.1,0.3-0.1,0.4,0c0.3,0.2,0.6,0.4,1,0.5l0.4,0.1c0.1,0,0.3,0.1,0.3,0.3
		c0.2,1,0.7,2,1.4,2.8C134.7,50.8,134.7,51,134.6,51.1z M140,43.6c-0.7,0.2-1.4,0.9-1.8,2.1c-0.7,1.9-0.2,3.1,1.5,3.9
		c0.1,0.1,0.2,0.2,0.2,0.3c0,0.1-0.1,0.2-0.2,0.3c-0.9,0.3-1.9,0.3-2.7-0.2c-1.2-0.6-1.8-1.9-1.7-3.2c0-0.1,0-0.1,0.1-0.2
		c0.3-0.3,0.5-0.7,0.6-1.1c0.2-0.7,0.1-1.4-0.3-2.1c-0.4-0.6-1-1.1-1.7-1.3c-1.5-0.4-2.9,0.5-3.3,2l-0.1,0.6c0,0.1,0,0.1-0.1,0.2
		c-0.8,1.1-2.2,1.6-3.5,1.2c-1.6-0.4-2.6-1.9-2.5-3.5c0-0.1,0.1-0.2,0.1-0.2c0.1-0.1,0.2-0.1,0.3-0.1c2.3,0.6,3.6-0.1,4.1-2.2
		c0.5-1.8,0-2.9-1.4-3.5c-0.1-0.1-0.2-0.2-0.2-0.3c0-0.6,0-1.1-0.3-1.6c0-0.1,0-0.2,0-0.3s0.1-0.2,0.2-0.2c1.1-0.3,1.9-1.4,1.9-2.6
		c0-1.3-0.9-2.4-2.2-2.7c-0.1,0-0.2-0.1-0.3-0.2c0-0.1,0-0.3,0.1-0.3c0.7-0.5,1-1.3,1-2.1v-0.3c0-0.1,0.1-0.2,0.2-0.3
		c0.1-0.1,0.2-0.1,0.3,0c8.3,4.1,11.1,8.5,11.9,17.8C140.2,43.4,140.1,43.5,140,43.6L140,43.6z M146,49c-0.8,1.5-2.7,2.1-4.3,1.2
		c-0.7-0.4-1.3-1.1-1.5-1.9c-0.1-0.3-0.1-0.6-0.1-0.9c0-0.5,0.1-1,0.4-1.5c0.4-0.7,1.1-1.3,1.9-1.5c0.8-0.2,1.7-0.1,2.4,0.3
		s1.3,1.1,1.5,1.9C146.5,47.4,146.4,48.3,146,49L146,49z"/>
	<path id="path111" inkscape:connector-curvature="0" class="st1" d="M133.6,56.8c0.1,0.4,0.4,1.7,0.5,2c-0.2,0.1-1.5,0.9-1.9,1.1
		c-0.1-0.4-0.5-2-0.6-2.3C131.9,57.4,133.3,56.9,133.6,56.8z"/>
	<path id="path113" inkscape:connector-curvature="0" class="st0" d="M28.5,128.5c0,39.4,32.1,71.5,71.5,71.5s71.5-32,71.5-71.5
		S139.4,56.8,100,56.8C60.5,56.8,28.5,89,28.5,128.5z"/>
	<path id="path115" inkscape:connector-curvature="0" class="st3" d="M30.5,128.5c0,19.1,7.8,36.6,20.3,49.2l0,0
		c12.6,12.6,30,20.3,49.2,20.3l0,0c19.1,0,36.6-7.8,49.2-20.3l0,0c12.6-12.6,20.3-29.9,20.3-49.2l0,0c0-19.1-7.8-36.6-20.3-49.2l0,0
		C136.6,66.7,119.1,59,100,59l0,0c-19.1,0-36.6,7.8-49.2,20.3l0,0C38.2,91.9,30.5,109.2,30.5,128.5L30.5,128.5L30.5,128.5
		L30.5,128.5z"/>
	<path id="path117" inkscape:connector-curvature="0" class="st0" d="M36.5,128.4c0-35,28.4-63.5,63.5-63.5l0,0
		c35,0,63.5,28.4,63.5,63.5l0,0c0,35-28.4,63.5-63.5,63.5l0,0C65,191.8,36.5,163.4,36.5,128.4L36.5,128.4z"/>
	<path id="path119" inkscape:connector-curvature="0" class="st2" d="M38.6,128.4c0-33.8,27.5-61.5,61.5-61.5s61.5,27.5,61.5,61.5
		c0,33.8-27.5,61.5-61.5,61.5S38.6,162.3,38.6,128.4L38.6,128.4z"/>
	<path id="path121" inkscape:connector-curvature="0" class="st0" d="M158.8,128.2c0-21.5-11.7-41.2-30.5-51.7l-0.4-0.2
		c0,0-13.4,13.9-13.7,14.2h-0.1l-0.2,0.2c-4.4-1.6-9.1-2.5-13.9-2.6l0,0c-4.9,0-10.1,0.9-14.5,2.5C85,90.1,71.8,76.3,71.8,76.3
		l-0.4,0.2c-0.1,0.1-0.3,0.2-0.4,0.2l0,0c-10.8,6.2-19.3,15.6-24.6,26.9l0,0c-3.5,7.7-5.4,16-5.4,24.6c0,14.1,5,27.2,14.6,38
		l0.4,0.5l7.9-8l-0.4-0.4c-4.2-4-12.1-15.2-12.1-29.4c0-0.4,0-0.8,0-1.2c0.2-5.6,1.2-11,3-15.9c2.2,2.2,4.3,4.4,6.5,6.6
		c-0.7,2.7-1.1,5.4-1.1,8.3c0,0.2,0,0.3,0,0.5c0,17.9,12.4,34,29.7,38.5c0,0.8,0,10.1,0,10.1h10.9c0,0,0-7.9,0-8.8
		c2.4-0.1,4.9-0.3,7.3-0.9c5.2,5.3,10.5,10.7,15.8,16.1c11.2-4.9,20.6-13.1,26.8-23.5l0,0C155.9,149.6,158.8,139.1,158.8,128.2
		L158.8,128.2z M89.6,153.6c-11.2-4-18.2-13.6-18.5-24.9c6.1,6.3,12.4,12.6,18.5,18.9C89.6,150.7,89.6,153.2,89.6,153.6z
		 M99.9,105.7c-0.7-0.7-4.7-4.8-5.8-5.9c2-0.4,4-0.6,5.4-0.5c2.1,0.1,4.1,0.3,5.9,0.7C104.3,101,100.6,105,99.9,105.7z M141.8,150
		l-34.8-35.9c4.2-4.4,8.8-9.3,9.1-9.6c3.6,2.6,6.6,5.9,8.6,9.8l0.3,0.7l8.8-7.6l-0.2-0.4c-2.4-4-5.6-7.7-9.6-10.7
		c0.7-0.7,5.2-5.3,5.7-5.9c9,6.4,18,21.2,18,37.2C147.8,137,145.6,143.9,141.8,150L141.8,150z"/>
	<path id="path123" inkscape:connector-curvature="0" class="st3" d="M128.3,78.8c-2.4,2.5-13,13.5-13,13.5l-0.3,0.3h-0.1
		c-0.1,0.1-0.1,0.1-0.1,0.1l-0.4,0.4l-0.5-0.2l-0.3-0.1c-4.2-1.6-8.9-2.5-13.6-2.5s-10,0.9-14.2,2.5l-0.9,0.3l-0.4-0.4
		c0,0-10.7-11.2-13.1-13.7C53.9,89.3,43,108,43,128.2c0,13.1,4.5,25.3,13.1,35.5c1.2-1.3,3.7-3.8,4.8-5c-4.6-4.9-11.6-16-11.7-29.8
		c0-0.4,0-0.8,0-1.2c0.5-15.8,7.2-29,19.4-39.1l1-0.8l8.8,9.1l-1.3,1c-9.5,7.2-15.2,18-15.3,28.9c0,0.2,0,0.3,0,0.5
		c0,17.1,12,32.5,28.6,36.7l1.1,0.3v0.7c0,0,0,6.4,0,9c1.7,0,5.1,0,6.9,0c0-0.9,0-2.4,0-3.9c0-2.1,0-4,0-4V165h1.4
		c10.6-0.1,21.3-4.9,28.2-12.8c-1.2-1.2-4-4-5.3-5.4c-6.6,7.2-15.9,10.9-22.2,10.9c-0.3,0-0.5,0-0.8,0l-1.4-0.1v-10.4h0.9
		c0,0,8.3,0,11.1,0c0-1.5,0-4.4,0-5.9c-2.8,0-11.1,0-11.1,0h-0.9v-8.5h0.9c0,0,8.4,0,11.2,0c0-1.3,0-3.7,0-5c-3.4,0-15.4,0-18.8,0
		c0,4.8,0,27.5,0,27.5v1.2l-1.9-0.6c-12.6-4.2-20.8-15-20.7-27.7c0-0.2,0-0.4,0-0.6c0.3-10.3,5.1-19.4,13.4-25.2l1-0.7l0.5,0.5
		c0,0,13,13.4,16,16.5c3-3.2,15.4-16.3,15.4-16.3l0.5-0.5l1,0.7c3.6,2.4,6.5,5.6,8.8,9.3c1.4-1.3,4.2-3.7,5.5-4.7
		c-2.3-3.5-5.3-6.9-8.9-9.5l-1.3-1l8.6-8.8l1,0.7c9.7,6.7,19.2,22.2,19.2,39.2c0,13.5-4.6,22.3-11.5,30.7c1.3,1.3,4.2,4.3,5.6,5.6
		c8.3-10.1,12.8-22.8,12.8-35.9C156.8,107.9,145.9,89.1,128.3,78.8L128.3,78.8z M100.6,107.9l-0.6,0.6l-9.9-10.1l2.5-0.6
		c2.2-0.5,4.6-0.8,6.3-0.8c0.2,0,0.4,0,0.6,0c2.6,0.1,5,0.4,7.4,1l2.3,0.6L100.6,107.9L100.6,107.9z"/>
</g>
</svg>
