<?xml version="1.0" encoding="utf-8"?>
<!-- Generator: Adobe Illustrator 21.1.0, SVG Export Plug-In . SVG Version: 6.00 Build 0)  -->
<svg version="1.1"
	 id="Layer_1" xmlns:cc="http://creativecommons.org/ns#" xmlns:dc="http://purl.org/dc/elements/1.1/" xmlns:rdf="http://www.w3.org/1999/02/22-rdf-syntax-ns#"
	 xmlns="http://www.w3.org/2000/svg" xmlns:xlink="http://www.w3.org/1999/xlink" x="0px" y="0px" viewBox="0 0 200 200"
	 style="enable-background:new 0 0 200 200;" xml:space="preserve">
<style type="text/css">
	.st0{fill:#FFFFFF;}
	.st1{fill:#63727A;}
	.st2{fill:#5A2D81;}
</style>
<g>
	<path class="st0" d="M187.7,0l-25.1,25.2l-21-20.9l-21.1,20.9L99.6,4.2L78.7,25.2L57.7,4.2l-20.9,21L12.3,0.5V112
		c-0.2,48.4,38.9,87.8,87.3,88c48.4,0.2,87.8-38.9,88-87.3c0-0.2,0-0.4,0-0.6V0z"/>
	<path class="st1" d="M20.2,127.3c2.1,10.5,6.2,20.5,12.2,29.4c3.6-6.4,10.9-14.3,25.3-17.7c-1.1-3.7-2.1-7.6-2.9-11.7L20.2,127.3z"
		/>
	<path class="st1" d="M38.1,164.2c15.3,18,37.6,28.5,61.3,28.8c-2.2-1.1-4.4-2.4-6.5-3.7c-10-6.4-23.7-19-32.5-42.2
		C46.5,150.1,40.6,158,38.1,164.2"/>
	<path class="st1" d="M69,145.8c5.4,14.7,15.3,27.3,28.2,36c6.5,4.3,13.7,7.3,21.3,8.9c13.1-3.1,25.2-9.3,35.2-18.2
		c-7.9-0.9-16.1-5.4-24.7-10.3c-13.4-7.5-30.1-16.9-52.7-16.9C73.9,145.5,71.5,145.6,69,145.8"/>
	<path class="st2" d="M102.9,86.3h-29v34.5h12V93.1H95v27.7h11.5V91.1C106.5,88.5,104.9,86.3,102.9,86.3"/>
	<path class="st2" d="M111.5,86.3v29.6c0,2.6,1.6,4.9,3.6,4.9h29v-21l-11.6,0V114h-9v-21h20.6v-6.7H111.5z"/>
	<polygon class="st2" points="41.8,86.3 35.3,100.2 31.5,100.2 31.5,86.3 19.5,86.3 19.5,120.8 31.5,120.8 31.5,106.9 35.3,106.9 
		41.8,120.8 53.8,120.8 45.3,103.5 53.8,86.3 	"/>
	<rect x="57" y="86.3" class="st2" width="12.4" height="34.5"/>
	<path class="st2" d="M180.5,95.6v-9.3h-31.8V102c0,2.6,1.6,4.8,3.6,4.8h16.2v7.5h-19.8v6.5h31.8v-15.8c0-2.5-1.4-4.8-3.2-4.8h-16.7
		V93h8.4v2.6H180.5z"/>
	<polygon class="st2" points="146.7,51.2 136.5,51.2 157.5,30.3 141.6,14.4 120.5,35.4 99.6,14.4 62.8,51.2 52.6,51.2 73.6,30.2 
		57.7,14.4 36.8,35.4 19.5,18.2 19.5,52.5 19.5,79.9 180.5,79.9 180.5,53.3 180.5,17.4 	"/>
	<path class="st0" d="M54.7,73.3c0,0.9,0.7,1.6,1.6,1.6h9.1v-2.4H58v-7.9h7.4v-2.4H54.7L54.7,73.3z"/>
	<path class="st0" d="M47.3,69.2h-4.1v-4.6h4.1V69.2z M39.9,62.2v12.7h3.3v-3.3h4.1v3.3h3.3V63.8c0-0.9-0.8-1.6-1.7-1.6
		c0,0-0.1,0-0.1,0L39.9,62.2z"/>
	<path class="st0" d="M171.3,72.5h-4.1v-7.9h4.1V72.5z M172.9,62.2h-7.5c-0.9,0-1.6,0.7-1.6,1.6v9.5c0,0.9,0.7,1.6,1.6,1.6h7.5
		c0.9,0,1.6-0.7,1.6-1.6v-9.5C174.6,62.9,173.8,62.2,172.9,62.2"/>
	<path class="st0" d="M25.1,68.1c0,0.9,0.7,1.6,1.6,1.6h5.8v2.7h-7.4v2.4h10.7v-6c0-0.8-0.6-1.5-1.4-1.6l-0.1,0h-5.8v-2.7h7.4v-2.4
		H25.1V68.1z"/>
	<path class="st0" d="M91.3,69.2h-4.1v-4.6h4.1V69.2z M93,62.2h-9v12.7h3.3v-3.3h4.1v3.3h3.3V63.8C94.6,62.9,93.9,62.2,93,62.2"/>
	<polygon class="st0" points="149.5,64.6 153.2,64.6 153.2,74.9 156.5,74.9 156.5,64.6 160.2,64.6 160.2,62.2 149.5,62.2 	"/>
	<path class="st0" d="M115.3,62.2H99v12.7h3.3V64.6h4v10.3h3.3V64.6h4v10.3h3.3V63.8C117,62.9,116.2,62.2,115.3,62.2"/>
	<path class="st0" d="M144.5,62.2h-9v12.7h3.3V64.6h4.1v10.3h3.3V63.8C146.2,62.9,145.4,62.2,144.5,62.2"/>
	<path class="st0" d="M121.5,73.3c0,0.9,0.7,1.6,1.6,1.6h9v-2.4h-7.4v-2.7h7.4v-2.4h-7.4v-2.7h7.4v-2.4h-10.7V73.3z"/>
	<path class="st0" d="M76.5,67.9h-4.1v-3.3h4.1V67.9z M78,70.3h1.8v-6.5c0-0.9-0.8-1.6-1.7-1.6c0,0-0.1,0-0.1,0h-8.9v12.7h3.3v-4.6
		h2.4l2,4.6H80L78,70.3z"/>
	<path class="st1" d="M74.6,137.1c17.2-0.3,34.1,3.9,55.8,16.3c16,9.1,23,11.9,27.8,10.7c4.4-1.1,8.5-3.7,15.8-19
		c2.6-5.7,4.5-11.6,5.7-17.8l-116.4,0c0.8,3.5,1.6,7,2.7,10.3C68.8,137.2,71.7,137.1,74.6,137.1"/>
</g>
</svg>
