<?xml version="1.0" encoding="utf-8"?>
<!-- Generator: Adobe Illustrator 21.1.0, SVG Export Plug-In . SVG Version: 6.00 Build 0)  -->
<svg version="1.1"
	 id="Layer_1" xmlns:cc="http://creativecommons.org/ns#" xmlns:dc="http://purl.org/dc/elements/1.1/" xmlns:rdf="http://www.w3.org/1999/02/22-rdf-syntax-ns#"
	 xmlns="http://www.w3.org/2000/svg" xmlns:xlink="http://www.w3.org/1999/xlink" x="0px" y="0px" viewBox="0 0 200 200"
	 style="enable-background:new 0 0 200 200;" xml:space="preserve">
<style type="text/css">
	.st0{fill:#FFFFFF;}
	.st1{fill:#C4CED4;}
</style>
<g>
	<path class="st0" d="M53.3,88.3c0.1,2.6,2.2,31.3,2.2,31.3s-34.6,1.4-39.2,1.6C20.1,124,48,143.6,48,143.6s-19.5,29-22,32.8
		c4.3-1.4,36.6-12,36.6-12s13.1,31.5,14.8,35.6c1.2-4.3,11-37.8,11-37.8s36.5,9.4,41.4,10.6c-3.3-3.8-26.9-31.1-26.9-31.1
		s28.7-24.5,32.1-27.3c-4,0-22.2-0.3-22.2-0.3l4.7-5.1h30.3l35.9-63.5V0h-31.5l-13.7,24.3c0,0-1.5,12.3-1.8,14.9
		c-1.3,2.3-12,21.3-15.5,27.5H116c5.3-9.4,12.2-21.6,12.2-21.6V0H95.8L82.6,24.3c0,0-1.4,12.3-1.7,15C79.5,41.7,53.3,88.3,53.3,88.3
		"/>
	<polygon points="157,8.5 146.6,27 144.7,41.9 126,75.2 101.5,75.2 119.8,42.9 119.8,8.5 100.8,8.5 90.8,26.9 89.1,41.9 62.4,89.4 
		66.9,100.6 83.5,100.6 75.9,119.8 61.8,104.5 63.4,126.9 38.9,127.9 58.4,141.7 44.5,162.4 67,155 76.2,177.3 83.2,153 
		108.2,159.5 92.1,140.8 112,124.4 91.5,125.7 113.6,100.6 142.8,100.6 175.2,43.3 175.2,8.5 	"/>
	<polygon class="st1" points="159.6,13.4 153.1,25 162,25 168.1,13.4 	"/>
	<polygon class="st1" points="113,13.4 103.8,13.5 97.4,25.1 107,25 	"/>
	<path class="st1" d="M129.4,79.7H82.9l19.4-34.1h-9.1L69.8,86.9h26l-19,43.3l-8.6-9.3l0.9,11.7l-12.8,0.5l10.1,7.1l-7.2,10.8
		l11.7-3.8l4.8,11.6l3.7-12.6l13,3.3l-8.4-9.7l10.3-8.5l-14.5,0.9h-1l30-45.3h26l23-41.3h-9L129.4,79.7z M74,142.5
		c-1.8,0-3.2-1.4-3.2-3.2c0-1.8,1.4-3.2,3.2-3.2c1.8,0,3.2,1.4,3.2,3.2l0,0C77.2,141.1,75.8,142.5,74,142.5
		C74,142.5,74,142.5,74,142.5"/>
	<polygon class="st1" points="104.6,29.7 96.2,29.7 95.2,39.6 103.7,39.6 	"/>
	<polygon class="st1" points="150.7,39.6 159.3,39.7 160.1,29.7 151.7,29.7 	"/>
</g>
</svg>
