<?xml version="1.0" encoding="utf-8"?>
<!-- Generator: Adobe Illustrator 21.1.0, SVG Export Plug-In . SVG Version: 6.00 Build 0)  -->
<svg version="1.1"
	 id="Layer_1" xmlns:cc="http://creativecommons.org/ns#" xmlns:dc="http://purl.org/dc/elements/1.1/" xmlns:rdf="http://www.w3.org/1999/02/22-rdf-syntax-ns#"
	 xmlns="http://www.w3.org/2000/svg" xmlns:xlink="http://www.w3.org/1999/xlink" x="0px" y="0px" viewBox="0 0 200 200"
	 style="enable-background:new 0 0 200 200;" xml:space="preserve">
<style type="text/css">
	.st0{fill:#FFFFFF;}
</style>
<g>
	<path d="M133.3,191.5c0,0.4,0.4,0.4,0.4,0.4c0.4,0,1.5-0.4,1.5-0.4l1.1-0.4l3-1.1l7.1-3.3l1.1-0.7l0.7-0.4l0.7-0.4l1.1-0.7l1.5-0.7
		l1.9-1.1l3.3-2.2l1.5-1.5l2.2-1.9l2.2-1.5l1.1-0.7l1.9-1.9l1.5-1.5l2.2-2.2l3-2.6l3.3-3.7l1.9-2.2l0.7-0.7l1.9-2.2l3.7-5.2l1.1-1.9
		l2.6-4.8l1.5-2.6l2.2-4.8l1.1-3l1.5-4.5c0,0,1.5-5.9,2.6-9.3c0-0.4,0-0.7,0-1.1c-0.4-0.7-0.7-1.5-1.5-2.6c-0.4-0.4-0.7-0.7-0.7-1.1
		c-0.4-0.4-0.7-1.1-1.1-1.5c-0.4-0.4-0.7-0.7-0.7-0.7c-0.7-0.7-1.5-1.5-2.2-1.9c-0.4,0-0.7-0.4-0.7-0.7c-1.9-1.5-4.1-3-6.3-3.7
		c-1.1-0.4-1.9-0.7-3-1.1c-0.7-0.4-1.9-0.4-2.6-0.7c-0.4,0-0.7,0-1.1,0c-0.4,0.4-0.4,0.7-0.4,1.1c0,1.1,0,2.6-0.4,3.7
		c0,1.1-0.4,2.6-0.4,3.7c0,1.1,0,2.2-0.4,3.3c0,1.5-0.4,3-0.7,4.5c-0.4,3-1.1,5.6-1.9,8.5c0,0.7-0.4,1.5-0.7,2.2
		c-0.4,1.1-0.7,2.6-1.1,3.7c-0.7,2.6-1.5,5.2-2.6,7.8c-0.7,2.2-1.5,4.1-2.6,5.9v0.4c-0.7,1.5-1.1,2.6-1.9,4.1
		c-0.4,0.7-0.7,1.5-1.1,2.6c-0.4,1.1-1.1,2.2-1.9,3c-1.1,1.5-2.2,3-3,4.8c-0.7,1.1-1.1,2.2-1.9,3.3c-0.4,0.4-0.4,0.4-0.4,0.7
		c-0.7,0.7-1.1,1.9-1.9,2.6c-1.1,1.5-2.6,3.3-3.7,4.8c-0.7,1.1-1.9,1.9-2.6,3c-0.7,0.7-1.5,1.9-2.2,2.6c0,0-0.4,0.4-0.7,0.4
		c-0.4,0.4-1.1,0.7-1.5,1.1c-1.1,1.1-2.2,1.9-3.3,3c-0.4,0.4-1.1,0.7-1.5,1.1C136.3,189.6,134.8,190.7,133.3,191.5"/>
	<path class="st0" d="M132.6,193.7l-1.9-3l1.9-1.1c1.5-0.7,2.6-1.5,4.1-2.6c0.7-0.4,1.1-0.7,1.9-1.1c1.1-0.7,2.2-1.5,3-2.6
		c0.4-0.4,0.7-0.7,1.1-1.1l0.4-0.4l1.9,1.1l-1.1-1.5l3.3-3.3c0.7-0.7,1.1-1.1,1.5-1.9c1.5-1.5,2.6-3,3.7-4.8
		c0.4-0.4,0.7-1.1,1.1-1.9l1.1-1.5c0.7-1.1,1.5-1.9,1.9-3c0.7-1.1,1.5-2.6,2.2-3.7l0.7-1.1c0.7-0.7,1.1-1.9,1.5-2.6
		c0.4-0.4,0.4-1.1,0.7-1.5s0.4-0.7,0.4-1.1c0.4-0.7,0.7-1.9,1.1-2.6l0.4-1.1c0,0,0-0.4,0.4-0.7c1.1-1.9,1.9-3.7,2.6-5.6
		c1.1-2.6,1.9-5.2,2.2-7.8c0.4-1.5,0.7-2.6,1.1-4.1c0-0.4,0.4-1.1,0.4-1.9l0.4-2.2c0.4-2.2,0.7-4.5,1.5-6.7c0.4-1.5,0.4-3,0.7-4.5
		c0-0.7,0-1.5,0.4-2.6l0.4-6.3c0-0.7,0-1.5,0-2.2c0-0.7,0.4-1.9,1.1-2.6c0.7-0.4,1.9-0.7,2.6-0.4c0.7,0,1.5,0.4,2.6,0.7
		c1.1,0.4,2.2,0.7,3,1.1c2.2,1.1,4.8,2.2,6.7,4.1c0.4,0,0.4,0.4,0.7,0.4c1.1,0.7,1.9,1.5,2.6,2.2c0.4,0,0.7,0.4,1.1,0.7
		c0.4,0.4,1.1,1.1,1.1,1.5l0.4,0.4c0.4,0.4,0.4,0.7,0.7,0.7c0.4,0.4,0.4,0.7,0.7,1.1c0.4,0.4,0.4,0.7,0.7,1.1c0.7,0.7,0.7,1.9,0.4,3
		c-0.7,3.7-2.6,9.6-2.6,9.6l-1.5,4.5l-1.5,3l-7.4,14.5l-3.7,5.6l-7.8,9.3l-7.8,8.5l-13,9.3l-5.6,3l0,0c-0.7,0.4-2.2,1.1-7.4,3.3
		l-4.5,1.9c0,0-1.1,0-1.9,0.4H132.6z M177.5,108c0,0.7,0,1.1,0,1.9l-0.7,6.3c0,0.7,0,1.9-0.4,2.6c0,1.5-0.4,3-0.7,4.8
		c-0.4,2.2-0.7,4.5-1.5,6.7v1.9c0,0.7-0.4,1.9-0.7,2.6c-0.4,1.1-0.7,2.2-1.1,3.3c-0.7,3-1.5,5.6-2.6,8.2c-0.7,2.2-1.5,4.5-3,6.3
		L166,154c-0.4,1.1-0.7,1.9-1.1,3c-0.4,0.4-0.4,0.7-0.7,1.5c-0.4,0.4-0.4,0.7-0.7,1.1c-0.4,1.1-1.1,2.2-1.9,3.3l-0.7,1.1
		c-0.7,1.1-1.5,2.2-2.2,3.3c-0.7,1.1-1.5,2.2-2.2,3.3l-1.1,1.5c-0.4,0.7-0.7,1.5-1.5,1.9c-1.1,1.5-2.6,3.3-4.1,4.8
		c-0.7,0.7-1.1,1.5-1.9,1.9l-2.2,3.3c-0.4,0.4-0.4,0.4-0.7,0.4l-0.7,0.4c0,0,0,0-0.4,0.4c0.7-0.4,1.1-0.4,1.1-0.4l0,0
		c0.4,0,1.1-0.7,1.1-0.7l1.1-0.7l4.8-3l10.4-7.8l2.6-2.6l2.2-2.6l3-2.6l3-3.7l4.1-5.6l4.5-6.7l7.4-15.2l1.5-4.5l0,0
		c0,0,1.5-5.6,2.6-8.9c-0.4-0.4-0.4-0.7-0.7-1.5c0-0.4-0.4-0.7-0.4-0.7c0-0.4-0.4-0.4-0.4-0.4c0-0.4-0.4-0.4-0.4-0.7
		c0-0.4-0.7-1.1-1.1-1.1c0,0-0.4-0.4-0.7-0.4c-0.7-0.7-1.5-1.5-2.2-1.9c0,0-0.4-0.4-0.7-0.7c-1.9-1.5-3.7-2.6-5.9-3.7
		C179.7,108.7,178.6,108.3,177.5,108C178.2,108.3,177.9,108.3,177.5,108z M194.2,120.6L194.2,120.6L194.2,120.6z"/>
	<path d="M197.2,114.7C197.2,114.7,197.5,114.7,197.2,114.7c0-0.4,0-0.7,0-0.7l0.7-6.3l0.4-5.9v-5.9V95l-0.7-6.7
		c0,0-0.7-5.9-1.5-8.9c-0.4-1.1-0.7-1.9-1.9-2.2c-0.4,0-0.7-0.4-1.1-0.4c-0.7-0.4-1.5-0.4-1.9-0.7c-1.5-0.4-3-0.7-4.5-1.1
		c-1.9-0.4-3.7-0.4-5.2-0.7c-1.5,0-3,0-4.5-0.4c-1.1,0-1.9,0-3,0c-0.7,0-1.1,0-1.5,0.4c-0.4,0.4,0,1.1,0,1.9
		c0.4,1.5,0.4,2.2,0.7,3.7c0.7,4.1,1.5,8.5,1.5,12.6c0,1.9,0.4,3.7,0.4,5.9c0,0.4,0,0.7,0,1.5c0,0.4,0,0.7,0.4,1.1
		c0,0.4,0.4,0.4,0.7,0.4s0.7,0,1.1,0.4c0.4,0,1.1,0.4,1.5,0.4c1.9,0.4,3.7,1.1,5.2,1.9c1.1,0.4,2.2,1.1,3.3,1.9c0,0,0.4,0,0.4,0.4
		c0.7,0.4,1.5,1.1,1.9,1.5c1.5,1.1,3,2.2,4.5,3.7c0.4,0.4,0.4,0.7,0.7,0.7C195.7,112.4,196.4,113.9,197.2,114.7L197.2,114.7"/>
	<path class="st0" d="M197.2,116.5h-1.1l-0.7-0.7c0-0.4-0.4-0.7-0.7-1.1c-0.4-0.4-0.4-0.7-0.7-1.1c-0.4-0.4-0.7-0.7-1.1-1.1
		c-1.1-1.1-2.2-2.6-3.7-3.3l-2.2-1.5c-1.1-0.7-2.2-1.1-3.3-1.9c-1.5-0.7-3.3-1.1-4.8-1.9c-0.4,0-0.7,0-1.1-0.4h-0.4
		c-0.7,0-0.7,0-1.1-0.4c-0.4,0-1.1-0.4-1.9-1.1c-0.4-0.7-0.4-1.1-0.4-1.9l-0.4-7.1c-0.4-4.1-0.7-8.2-1.5-12.6c0-0.7-0.4-1.1-0.4-1.5
		c0-0.7-0.4-1.1-0.4-1.9c-0.4-1.1-0.4-2.2,0.4-3.3c0.7-1.1,2.2-1.1,3-1.1c0.7,0,1.5,0,2.2,0h0.7c1.5,0,3,0,4.5,0.4
		c1.9,0,3.7,0.4,5.6,0.7c1.1,0,2.2,0.4,3,0.7c0.4,0,1.1,0.4,1.5,0.4c0.4,0,0.7,0.4,1.5,0.4c0.4,0,0.4,0.4,0.7,0.4
		c0.4,0,0.7,0.4,1.1,0.4c1.1,0.4,2.2,1.9,2.6,3.3c0.7,3,1.5,8.9,1.5,9.3l0.7,7.8v5.9l-0.4,5.9l-0.7,7.8L197.2,116.5z M177.5,99.8
		L177.5,99.8l1.1,0.4c0.4,0,0.7,0.4,1.1,0.4c1.9,0.7,3.7,1.1,5.2,1.9c1.1,0.7,2.6,1.1,3.7,1.9c0.4,0,0.4,0.4,0.7,0.4l1.9,1.5
		c1.9,1.1,3.3,2.6,4.8,4.1l0,0l0.4-2.6l0.4-5.9v-5.6v-0.7l-0.7-6.3c0,0-0.7-5.9-1.5-8.9c0-0.4-0.4-0.7-0.7-0.7
		c-0.4-0.4-0.7-0.4-0.7-0.4c-0.4,0-0.7-0.4-0.7-0.4c-0.4,0-0.7-0.4-1.1-0.4c-0.4,0-1.1-0.4-1.5-0.4c-0.7-0.4-1.9-0.4-2.6-0.7
		c-1.9-0.4-3.3-0.4-5.2-0.7c-1.5,0-3,0-4.5-0.4h-0.7c-0.7,0-1.1,0-1.9,0l0,0c0,0.7,0.4,1.1,0.4,1.9c0,0.4,0.4,1.1,0.4,1.9
		c0.7,4.1,1.5,8.5,1.5,13l0.4,5.9C177.5,98.7,177.5,99.1,177.5,99.8L177.5,99.8z"/>
	<path d="M153.4,44.5c0.7,0,1.1,0,1.5,0s0.7,0,0.7-0.4s0-0.7-0.4-0.7c0-0.4-1.1-2.2-1.1-2.2l-1.1-1.9l-4.5-6.7l-1.1-1.1l-0.7-1.1
		l-1.5-1.9l-3.7-4.1l-1.9-1.9l-5.9-5.2l-4.8-3.7L127,13l-5.6-3.3l-4.1-2.2l0-0.4l-3.3-1.1l-4.8-1.9h-0.4l-1.5-0.4H107l-1.5-0.4
		l-3-0.4h-1.5l-1.9-0.7l-3-0.4h-1.1h-1.9h-3L87,2.2h-2.2l-2.2,0.4L80.3,3l-1.5,0.4l-2.6,0.4h-0.7l-2.6,1.1l-1.5,0.4l-1.1,0.7L68,6.7
		l-1.1,0.7l-1.5,0.4l-3.3,1.5L58,10.8l-1.5,0.7l-2.2,1.1l-2.6,1.5l-2.2,1.1l-0.7,0.4l-2.6,1.5l-0.4,0.4l-3,2.2l-2.6,1.5l-0.4,0.4
		l-2.6,2.2l-1.1,0.7c-0.4,0.4-1.1,0.7-1.5,1.5l1.1-0.4l1.9-0.7H38l2.6-1.1H41l3-1.1l1.5-0.4l1.5-0.7l2.2-0.7l5.2-2.2h0.4l2.6-1.1
		l2.2-0.7l0.4,0.4H64l2.6,0.4l0,0l5.6,0.4l0,0l7.4,0.4l0,0l2.6,2.2h0.4l2.6,2.6h0.4h3.7l0,0l9.3,0.4v0.4l4.1,2.2l0,0l7.4,3.7v0.4
		l4.1-1.5l5.9,2.2l1.1,1.9h2.2l2.2,2.6h0.4l1.9,1.9l0,0h0.7l4.8,1.1l1.9,2.6l4.5,2.2c0,0,4.8,1.1,7.1,1.5
		C148.9,44.5,151.2,44.5,153.4,44.5"/>
	<path class="st0" d="M150.4,46.4c-1.1,0-2.6,0-3.7,0c-2.6-0.4-7.4-1.5-7.4-1.5l-5.2-1.9l-1.9-3l-3.7-0.7H127l-0.4-1.1l-3.3-3.7
		h-2.6l-1.1-1.9l-4.8-1.5l-5.6,2.2l-0.4-1.9l-5.9-3l0,0l-0.7-0.4l-4.1-2.6l-7.8-0.4h-0.7h-3.3l-0.7,0.4l-1.1-0.7l-5.2-4.5L73.2,20
		l0,0h-0.7l-8.2-0.7h-4.1h-0.4l-12.2,4.5c-0.7,0.4-1.5,0.7-1.9,0.7l0,0c-0.4,0-1.5,0.4-1.5,0.4L38,27.1h-0.4c-0.4,0-1.5,0.4-1.5,0.4
		l-7.4,2.2l4.5-4.8c0.4-0.7,1.1-1.1,1.9-1.5l4.5-3.3l2.2-1.5L45,16l5.9-3.3l2.2-1.5l4.5-2.2l10-4.1l1.9-0.4l1.1-0.7l4.1-1.5h0.7
		L84,0.4h2.6l3-0.4h3.3l5.9,0.4l10.4,1.9l8.9,3.3l4.1,2.2l7.4,4.5l5.2,3.7l7.4,7.1l7.4,8.2l5.9,8.5c0,0,1.1,2.2,1.5,2.6
		c0,0.4,0.7,1.1,0.4,2.2c-0.7,1.5-1.9,1.5-2.2,1.5s-0.7,0-1.1,0h-0.7C152.3,46.4,151.5,46.4,150.4,46.4z M140.4,41.2
		c0,0,4.5,1.1,6.7,1.5c1.9,0.4,4.1,0.4,5.9,0c-0.4-0.4-0.4-0.7-0.4-0.7l-1.1-1.5l-6.3-8.9l-6.7-7.1l-5.9-5.2l-4.5-3.7l-1.5-0.7
		l-5.6-3.7l-4.5-2.2l-11.1-3.7l-6.7-1.1l-5.6-0.4h-3l-3,0.4l-4.5,0.4l-7.1,1.5h-0.4l-8.9,3.3L58,13l-3,1.5L52.8,16l-6.3,3.3
		l-2.2,1.9c0.4,0,0.4,0,0.7-0.4l0,0c0.4,0,1.5-0.4,1.5-0.4l13.7-5.2l0.7,0.4L68,16l4.5,0.4h0.4l8.9,0.4l0.4,1.1l1.5,1.5l0,0l0.7,0.4
		l1.9,1.9h2.6l0,0h0.7l10.8,0.7l0.4,0.7l3.7,1.9l7.1,3.3l3.7-1.5l7.4,2.6l0.7,1.5h1.9l4.5,4.5l5.2,1.1l1.9,3L140.4,41.2L140.4,41.2z
		 M37.2,27.1L37.2,27.1L37.2,27.1z"/>
	<path d="M194.6,72.7c0-0.7-0.7-2.2-0.7-2.2l-0.4-0.7l-0.4-1.1l-0.7-2.2l-0.7-2.2l-2.2-5.2l-1.1-2.6l-1.5-3l-1.5-2.6l-0.4-0.7
		l-1.1-2.2l-1.1-1.5l-0.4-0.4l-6.7-8.9c0,0-0.7-0.7-1.1-1.1c0-0.4-0.4-0.4-0.4-0.4l0,0c-0.7,1.5-1.9,3-3,4.5
		c-0.7,1.1-2.6,2.6-2.6,2.6s-1.5,1.1-1.9,1.5c-0.4,0.4-1.5,0.7-1.5,0.7l-1.5,0.7c0,0-1.1,0.4-1.5,0.7c-0.4,0-0.4,0-0.4,0.4v0.4
		c0,0.4,0,0.4,0.4,0.7c0.7,1.1,1.1,2.6,1.9,3.7c1.1,1.9,1.5,3.7,2.6,5.9c0.4,0.7,0.7,1.1,0.7,1.9c0.7,1.9,1.1,3.3,1.5,5.2
		c0.4,0.7,0.4,1.5,0.7,2.2c0.4,0.7,0.4,1.5,0.7,2.2c0,0.4,0.4,0.7,1.1,0.7c0.4,0,1.1,0,1.5,0c1.9,0,3.7,0,5.2,0
		c0.4,0,4.1,0.4,4.1,0.4s1.1,0,1.9,0.4c1.5,0.4,2.6,0.4,4.1,0.7c1.1,0.4,2.2,0.7,3.3,1.1c0.4,0.4,1.1,0.4,1.5,0.4
		C194.2,73.1,194.6,73.1,194.6,72.7L194.6,72.7"/>
	<path class="st0" d="M194.6,75c-0.4,0-0.7,0-1.1,0c-0.7,0-1.1-0.4-1.9-0.7c-1.1-0.4-1.9-0.7-3-1.1l-1.1-0.4
		c-0.7-0.4-1.9-0.4-2.6-0.7c-0.4,0-1.9-0.4-1.9-0.4l0,0c0,0-3.3-0.4-3.7-0.4c-1.1,0-2.6,0-3.7,0h-3c-1.1,0-2.6-0.7-3-2.2l-0.4-0.4
		c0-0.4-0.4-0.7-0.4-1.1c0-0.4-0.4-1.1-0.4-1.5l-0.7-2.2c-0.4-1.1-0.7-2.2-1.1-3.3c-0.4-0.7-0.4-1.1-0.7-1.9
		c-0.4-0.7-0.7-1.5-0.7-2.2c-0.4-1.1-1.1-2.6-1.5-3.7c-0.4-0.7-0.7-1.9-1.5-2.6l-0.7-1.1c0-0.4-0.4-0.7-0.4-1.1
		c-0.4-0.7,0-1.5,0.4-2.2c0.4-0.4,1.1-0.7,1.5-0.7l1.1-0.4l1.5-0.7l0,0c0,0,0.7-0.7,1.1-0.7c0.4-0.4,1.5-1.1,1.5-1.5l0,0
		c0,0,1.5-1.5,2.2-2.2c0.7-1.1,1.9-2.6,2.6-4.1l0.4-0.7h0.7c1.1,0,1.9,0.4,2.2,1.1l1.1,1.1l8.2,11.5l1.5,3l1.5,2.2l4.8,10.8l2.2,6.3
		c0,0,0.7,1.5,0.7,2.2v1.1l-1.1,1.5L194.6,75L194.6,75z M179,67.9c0.7,0,3,0.4,4.1,0.4c0,0,1.5,0,1.9,0.4c1.1,0,1.9,0.4,3,0.7
		l1.1,0.4c0.7,0,1.9,0.4,2.6,0.7l-1.9-5.2l-4.5-10.4l-1.9-3.3l-2.2-4.1l-6.3-8.5c-0.4,0.7-1.1,1.5-1.9,2.2c-1.1,1.1-3,2.6-3,2.6
		s-1.5,1.1-1.9,1.5c-0.4,0.4-1.5,1.1-1.5,1.1l-1.5,1.1c0,0-0.4,0-0.7,0.4l0.4,0.4c0.4,0.7,0.7,1.9,1.1,2.6c0.7,1.5,1.1,2.6,1.9,4.1
		c0.4,0.7,0.4,1.5,0.7,1.9c0.4,0.7,0.7,1.5,0.7,2.2c0.4,1.1,0.7,2.2,1.1,3.7l0.7,2.2c0,0.7,0.4,1.1,0.4,1.9c0,0.4,0.4,0.7,0.4,1.5
		v0.4h2.2C176.4,67.9,177.9,67.9,179,67.9L179,67.9z M173,68.6L173,68.6L173,68.6z M172.3,68.3L172.3,68.3L172.3,68.3L172.3,68.3z"
		/>
	<path d="M171.6,33c0-0.4-0.4-0.7-0.4-1.1l-0.4-0.7l-1.1-1.1l-0.7-1.1l-1.1-0.7l-0.4-0.4c-2.2-1.9-6.3-5.2-6.3-5.2l-1.1-1.1
		l-2.2-1.9L146.7,13l-8.5-4.1l-4.5-1.9l-1.9-0.7l-5.6-1.9l-4.1-1.1l-3.7-0.7h-0.7L117.4,3l0,0c0,0,0.4,0.4,0.7,0.4
		c1.1,0.4,2.6,0.7,3.7,1.5c0.7,0.4,1.5,0.7,2.2,1.1c0.4,0,1.1,0.4,1.5,0.7c1.9,1.1,3.7,2.2,5.6,3.3c1.1,0.7,2.2,1.5,3,2.2
		c0.7,0.7,1.5,1.1,2.2,1.9c0.4,0.4,0.7,0.4,1.1,0.7c0.4,0,0.4,0.4,0.7,0.4c1.1,0.7,2.2,1.9,3.3,2.6c1.1,1.1,2.2,2.2,3.3,3.3
		c1.1,1.1,1.9,1.9,3,3c0.7,1.1,1.5,1.9,2.2,2.6c1.5,1.5,3,3.3,4.5,5.2c0,0.4,0.4,0.4,0.4,0.7c0.7,1.5,1.9,3,3,4.5
		c0.7,1.1,1.5,1.9,1.9,3c0.4,0.7,0.7,1.5,1.1,1.9c0.4,0.4,0.4,0.4,0.7,0.4s0.4,0,0.7-0.4l0.7-0.4c0,0,1.1-0.4,1.5-0.7
		c0.4-0.4,0.7-0.4,1.1-0.7c0.4-0.4,1.1-1.1,1.9-1.5c0.7-0.4,1.9-1.9,1.9-1.9l0.7-1.1L171.6,33C171.2,33.4,171.6,33.4,171.6,33"/>
	<path class="st0" d="M161.2,44.5L161.2,44.5c-1.1,0-1.9-0.7-2.6-1.5c-0.4-0.7-0.7-1.5-1.1-2.2c-0.4-1.1-1.1-1.9-1.9-2.6
		c-1.1-1.5-2.2-3-3-4.8c0-0.4-0.4-0.4-0.4-0.4c-0.4-0.4-1.1-1.1-1.5-1.9c-0.7-1.1-1.5-2.2-2.6-3c-0.7-1.1-1.9-1.9-2.6-3
		c-0.7-1.1-1.9-1.9-2.6-3c-1.1-1.1-2.2-2.2-3.3-3.3c-0.7-0.7-1.9-1.9-3-2.6l-0.7-0.4c-0.4-0.4-0.4-0.4-0.7-0.7
		c-0.7-0.4-1.9-1.1-2.6-1.9c-0.7-0.7-1.9-1.5-2.6-1.9c-1.9-1.1-3.7-2.2-5.6-3.3c-0.4-0.4-0.7-0.4-1.1-0.4c-0.7,0-1.1-0.4-1.9-0.7
		c-0.4,0-0.4-0.4-0.7-0.4c-0.7-0.4-1.5-0.7-2.2-0.7l-2.6-1.1l-1.1-1.5l2.2-2.2h1.5l8.2,1.9c0,0,5.2,1.9,5.6,1.9l0,0
		c0.4,0,0.7,0.4,1.5,0.4h0.4l0,0c1.1,0.4,2.2,0.7,4.8,1.9l8.9,4.1l11.1,6.7l2.6,2.2c0.4,0.4,0.7,0.7,1.1,1.1l0,0
		c0,0,0.7,0.7,1.9,1.5l4.5,3.7l0.4,0.4l1.1,1.1l2.2,3c0.4,0.4,0.4,0.7,0.7,1.1l-1.9,0.7h1.9c0,0.7-0.4,1.1-0.4,1.5l-2.6,3.7
		c0,0-1.5,1.5-1.9,2.2c-0.4,0.4-1.1,0.7-1.5,1.1l-0.4,0.4c-0.7,0.4-1.1,0.7-1.9,1.1l-2.2,1.1C162.3,44.2,161.9,44.5,161.2,44.5
		L161.2,44.5z M161.9,40.8L161.9,40.8L161.9,40.8z M133.3,9.3c0.7,0.4,1.1,1.1,1.9,1.5c0.7,0.7,1.1,1.1,1.9,1.5
		c0.7,0.4,1.1,0.7,1.5,1.1l0,0c1.5,1.1,2.6,1.9,3.7,3s1.9,2.2,3,3c1.1,1.1,2.2,2.2,3.3,3.3c0.7,1.1,1.5,1.9,2.2,2.6
		c1.1,1.1,1.9,2.2,3,3.3c0.4,0.7,1.1,1.5,1.5,1.9c0.4,0.4,0.4,0.7,0.7,1.1c0.7,1.5,1.9,3,2.6,4.1c0.7,1.1,1.5,2.2,2.2,3.3
		c0.4,0.4,0.4,0.7,0.7,1.1l1.9-0.7c0.4,0,0.7-0.4,0.7-0.4s0.4-0.4,0.7-0.4c0.4-0.4,0.7-0.7,1.1-0.7c0.4-0.4,1.5-1.9,1.5-1.9l0.7-1.1
		l1.1-1.9l0,0l-0.4-0.7l-2.6-3l-4.8-3.7c-1.1-0.7-1.5-1.5-1.9-1.5l0,0l-1.1-0.7l-2.2-1.9l-10.8-6.3l-8.5-4.1l0,0
		C137.1,10.8,134.5,9.6,133.3,9.3z"/>
	<path d="M166.7,69.8c-0.7-1.9-1.1-3.7-1.9-5.6c-0.4-1.5-1.1-3-1.5-4.5c-0.4-0.7-0.7-1.9-1.1-2.6c0-0.4-0.4-0.7-0.4-1.5
		c-0.7-2.2-1.9-4.5-3-6.3c0,0,0-0.4-0.4-0.4c0-0.4-0.4-0.4-0.4-0.4c-0.4,0-0.4,0-1.1,0c-1.1,0-2.2,0.4-2.6,0.4s-2.2,0-3.7,0.4h-0.4
		h-1.9l-4.8-0.7c-1.9-0.4-5.6-1.1-5.6-1.1l-3-1.1l-3.7-1.1h-0.4l-5.6-0.4l0,0l-3-2.2h-0.4l-1.9-1.9v-0.4l-2.2-0.4h-0.4l-1.9-0.7
		l-0.4-0.4l-3.7,0.4l-3.7-1.5l-13,0.7h-0.4h-2.6L91.8,39l-5.9,0.4l0,0l-9.3,4.8v0.4l-0.4,0.4h-0.4l-4.5-0.4H71h-8.2l0,0h-2.2
		l-0.7-0.4l-8.5,6.3l0,0l-3,2.2L45,51.2h-0.4l-1.1-0.4l-5.9,1.5L32,51.6l-0.4-0.4l-1.1,1.1l-2.2,1.1v0.4l-4.5,3.3L17.6,62l-7.4,5.6
		l-3.3,2.2v1.5l-1.5,3.3l-0.7,2.6l-0.7,5.6L3.5,85l-0.4,3l-0.7,5.9l-0.4,13l0.4,0.7l0.4,3.7c0,0,0,0.7,0.4,0.7l0,0l16-16.7l5.2-2.2
		l4.5-0.4l2.6-3l0.4-0.7H32l7.4-0.7l0.4-0.4h2.6h0.4l0.7-1.1l3.3-1.9l3.3-2.2h9.6v0.4l3.7,0.4l3-0.7l5.6-5.6l0,0l4.5-4.1l6.7-0.7
		h0.4l0.4,0.4l3.3,1.5l0.4-0.4l3-0.4l0,0l3-0.4H94l3,2.6v-0.4h6.3l0.4-0.4l5.2,0.4h0.4L110,75v-0.4l1.9-0.7h0.4l2.2-1.1l0.4-0.4
		l2.6-1.1v-0.4l7.1-2.6l0,0l1.1-0.4l0.4-0.4l0.4,0.4l1.9,1.1h0.7l2.2,1.1v-0.4l0.7-0.4l0,0L133,69l0,0l1.5-0.4l4.1,1.1l0.7-0.4
		l0.7,0.4l3,0.4l3,1.1h1.9l0.7,0.4l0.4-0.4c0,0,5.9-0.7,8.9-1.1c1.9,0,3.7-0.4,5.6-0.4c1.1,0,2.2-0.4,3.3-0.4
		C166.7,70.5,167.1,70.1,166.7,69.8"/>
	<path class="st0" d="M2.7,114.7l-1.1-0.7c-0.4-0.4-1.1-0.7-1.1-2.2l-0.7-4.1l0.4-13.7L1.2,85L2,82.4l1.5-8.2L5,70.9L5.3,69L28,52.3
		l1.9-1.1l1.9-2.2l1.5,1.1c1.1,0,4.1,0.7,4.8,0.7c1.1-0.4,2.6-0.7,5.6-1.5h0.4l1.1,0.4l0,0l1.1,0.4l2.2,1.1l11.5-9.3l1.5,0.7h2.2
		h8.2l3.7,0.4l10.8-6.3l0.7,0.4l8.9-0.7h0.4l12.6-0.7l3.7,1.5l4.5-0.4l0.4,0.4l1.1,0.4h0.4l3.3,0.4l0.4,1.1l1.1,1.1l0.7,0.4l2.6,1.9
		l4.8,0.4h0.4h1.1l6.7,2.2l0,0c0,0,3.7,1.1,5.6,1.1l4.8,0.7h1.9h0.4c1.1,0,3-0.4,3.7-0.4c0.7,0,1.5,0,2.2-0.4c0.7,0,1.5-0.4,2.2,0.4
		c0.7,0.4,1.1,0.7,1.1,1.5v0.4c1.1,1.9,2.2,4.1,3,6.3c0,0.4,0,0.4,0.4,0.7c0,0.4,0.4,0.4,0.4,0.7c0.4,1.1,0.7,1.9,1.1,2.6
		c0.7,1.5,1.1,3,1.9,4.5c0.4,1.1,0.7,2.2,1.1,3.3l0.7,1.9c0.4,1.1,0,1.9-0.4,2.2c-0.4,0.7-1.1,1.1-1.9,1.1c-0.7,0-1.9,0.4-2.6,0.4
		h-1.5c-1.5,0-3.3,0.4-4.8,0.4c-2.6,0.4-7.1,0.7-8.2,0.7l-1.1,0.7l-3,0.4h-1.5l-3.3-1.1l-3.7-0.7h-0.4l-4.1-1.1l-0.7,0.4l-1.5,0.7
		l-0.7,0.7l-1.5-0.4l-1.9-1.1l-0.7-0.4l-1.9-0.7l-0.7,0.4l-6.3,2.6l-0.7,0.4l-5.2,2.2h-0.4l-3.3,1.5l-0.4-0.4l-4.1-0.4l-0.4,0.4
		h-5.9L97,77.9l-1.9-0.7l-2.2-1.9l-5.2,0.7l-0.4,0.4h-1.5L82.5,75l-5.6,0.7l-4.5,4.1l0,0l-5.2,5.6l-3.7,0.7L58,85.3h-7.8l-5.9,4.1
		l-1.5,1.9l-1.5-0.4l-2.6,0.4L32,91.7l-3,3.3l-4.8,0.4l-4.5,1.9L2.7,114.7z M3.5,106.9l0.4,1.1l14.1-14.1l5.9-2.2l3.7-0.4l2.2-2.6
		l0.7-1.9l1.5,0.7l6.3-0.7l0.4-0.4h3l0.7-0.7l3.3-1.9l3.7-2.6H61v0.4l2.2,0.4l2.2-0.4l5.6-5.6l0,0l4.1-4.1l6.7-0.7l0.7-0.7l1.5,1.1
		l2.2,1.1l0,0l5.6-0.7l0.7-0.4l1.1,0.7l2.2,1.9h5.6l0.4-0.4l5.9,0.4h0.4l2.6-1.1h0.4l4.8-2.2l7.8-3l1.5-1.1l1.5,1.5l1.5,0.7h0.4
		l1.5,1.1l0.7-0.4l0,0l0,0l3-0.7l4.1,1.1l1.1-0.4l1.1,0.7l3,0.4l2.6,1.1c0.4,0,1.5,0,1.5,0c0.4,0,0.4,0,0.7,0l0,0
		c0,0,5.9-0.7,8.9-1.1c1.5,0,3-0.4,4.8-0.4h1.5c0.4,0,0.7,0,1.1,0l-0.4-0.7c-0.4-1.1-0.7-2.2-1.1-3.3c-0.4-1.5-1.1-3-1.5-4.5
		c-0.4-1.1-0.7-1.9-1.1-3v-0.4c0-0.4-0.4-0.7-0.4-0.7c-0.7-1.9-1.9-4.1-3-5.9c-1.1,0-2.2,0.4-2.6,0.4s-2.2,0-3.7,0.4H150h-0.4h-1.5
		l-4.8-0.7c-1.9-0.4-5.9-1.1-5.9-1.5l-5.6-3.7h-0.4l-5.2-0.4l-0.4,0.4l-1.1-0.7l-3.7-2.6l-1.9-1.9h-0.7l0,0h-0.7l-1.9-0.7l-3.7,0.4
		l-3.7-1.5l-13,0.7h-0.4l-8.5,0.7l-8.5,5.2l-1.1,1.1l-1.9-0.7l-3.7-0.4H71h-8.5h-0.4h-2.2l-11.5,8.9l-5.2-2.2
		c-1.1,0.4-3.7,1.1-4.8,1.1c-0.7,0.4-2.2,0-6.7-0.7l-0.7,0.7l-1.9,1.1L24.6,59L8.3,70.9L7.9,72l-1.5,3.3l-0.4,2.2l-1.5,7.8v2.6
		l-0.7,5.9L3.5,106.9z M165.3,70.1L165.3,70.1L165.3,70.1z"/>
	<path d="M171.2,99.4c0-0.4,0-0.7,0-1.1c0-1.1,0-2.2,0-3.3c0-0.4,0-0.7,0-1.1c0-1.5,0-3-0.4-4.1c0-1.9-0.4-3.7-0.7-5.2
		s-0.4-2.6-0.7-4.1c-0.4-1.5-0.4-2.6-0.7-4.1c-0.4-1.5-0.7-1.5-2.2-1.5H166c-0.4,0-1.5,0-1.9,0.4c-3,0.4-5.6,0.4-8.5,0.7l-8.2,3
		l-11.9-0.4l-1.1-0.4v0.4l-3.3,2.6h-0.4l-2.6,2.6v0.4l-7.1,1.1l-7.4,4.5h-0.7l-3.3,1.9h-1.5l-1.5,1.1l-0.4-0.4L99.6,92l-0.7,1.9v0.4
		l-5.6,6.3v0.4h-0.4l-7.4,8.2h-1.9v0.4l-5.9,1.1h-0.4v0.4l-10,5.6l-4.5-0.4l-1.1-0.4l-4.5-0.4l-4.5,4.8l-2.6,0.4h-1.5l-1.5,0.7h-0.7
		l0,0l-5.6,4.1h-0.4l-8.5,6.7v0.4l-5.2,12.6l0.4,0.4l-8.5,0.7l-3,2.6l-0.4,0.7l3.7,5.2l3,4.5l2.6,3l4.1,4.5v0.4h0.4l2.2,0.7l3,0.7
		l0,0h0.4l4.8,1.9h0.4l0.4,0.4h0.4l1.1,0.7l1.9-1.1l0,0l0.7-0.7l7.4,1.9l5.6-2.6l12.2-1.1l4.8-7.8c0.7-0.7,2.2-2.2,2.2-2.2h0.4
		l1.9-1.5c0,0,0,0,0-0.4l3-3l1.5-1.5c0,0,0.4,0,0.4-0.4l1.9-1.9l1.5-1.5h0.4l-0.4-1.1l1.5-5.2l2.6-0.7l0,0h0.7v-0.4l3.7-5.9h0.4
		l1.5-3l2.6-1.5l0.4-0.4h0.4l1.5-0.7l0,0l2.6-1.1l0.4-0.4l8.9-4.1h0.4v-0.4l0.4-0.4l0.7-3l3-1.1l3.3-0.4l3-1.9h4.1l0.4,0.4l0.4-0.4
		l5.9-2.6v-0.7l1.5-2.6l2.6-0.4l0,0l4.1-0.7l1.5-1.9h0.4c0,0,0.7-0.7,1.1-0.7l2.6,0.4l0,0l1.5,0.4h0.7c0,0,4.1-1.9,5.6-2.6
		c0.7-0.4,1.5-0.4,2.2-0.7c0.7-0.4,1.9-0.7,2.6-1.1c0.4,0,0.7-0.4,1.5-0.4l1.9-0.4l2.2-0.4h1.5h0.7c0.4,0,0.7,0,0.7-0.4
		c0.4-0.4,0.4-0.4,0.4-0.7C171.2,99.8,171.2,99.8,171.2,99.4"/>
	<path class="st0" d="M41.7,174.4l-1.1-0.7c0,0-0.4-0.4-0.7-0.4h-0.4l-0.4-0.4l-4.5-1.9h-1.5v-0.4c-1.1-0.4-1.9-0.4-1.9-0.7l0,0
		l-1.1-0.4c-0.7-0.4-1.1-0.4-1.1-0.4c-0.4,0-0.4,0-0.7,0l-1.1-0.4v-0.7l-3.7-4.1l-2.6-3.3l-3-4.5l-4.5-5.9l0.7-2.2l3.7-3.3l7.8-0.7
		l4.8-11.9V131l9.6-7.4h0.4l4.1-3.3l-0.4-1.5h3l1.5-0.7h1.5l1.9-0.4l4.5-4.8l4.8,0.4l1.1-0.4l4.1,0.4c1.9-1.1,7.1-4.1,8.9-4.8
		l0.4-0.7h1.5l6.3-1.1h1.1l14.5-16.3l7.4,0.4l1.1-0.7h1.5l3.7-2.2h0.4l6.3-4.8l6.7-0.7l3.3-3h0.7l2.2-1.9v-1.5l3.3,0.7l11.1,0.4
		l8.2-3c1.1,0,2.6-0.4,3.7-0.4c1.5,0,3-0.4,4.5-0.4h0.7c0.4,0,0.7,0,1.1,0h0.4c2.6-0.4,3.7,0.4,4.1,3c0.4,1.1,0.4,2.2,0.7,3.7
		l0.4,1.5c0.4,1.1,0.4,2.2,0.7,3.3c0.4,1.9,0.4,3.7,0.7,5.2c0,0.7,0,1.9,0.4,2.6l0.4,5.9c0,0.4,0,0.7,0,1.1c0,0.4,0,0.7,0,1.1
		c0,0.4-0.4,1.5-0.7,1.9c-0.7,0.7-1.5,0.7-2.2,0.7h-0.7h-1.5l-3.7,0.7c-0.4,0-0.7,0.4-1.1,0.4c-0.7,0.4-1.9,0.7-2.6,1.1
		c-0.4,0-0.7,0.4-1.1,0.4c-0.4,0-0.7,0.4-1.1,0.4c-1.5,0.7-5.6,2.6-5.6,2.6l-0.4,0.4l-3.7-0.4c-0.4,0-0.7,0-1.5-0.4l-2.2,2.6
		l-6.7,1.9l-0.7,0.7v1.5l-6.7,3l-0.7,1.1l-1.5-0.7h-3l-3,1.9l-3.3,0.4l-1.9,0.7l-0.7,3l-0.4,0.4l-0.4,1.1h-1.5l-8.2,3.7v0.4
		l-3.7,1.5c-0.4,0.4-1.1,0.7-1.1,0.7l-0.4,0h-0.4l-1.9,1.1l-1.5,3H97l-3,4.8v1.5l-4.1,1.1l-1.1,3.7l0.7,2.6l-1.9,0.7l-1.1,1.1
		c-1.5,1.5-1.9,1.9-2.2,2.2l-1.1,1.1l-7.1,6.7l-5.2,8.5l-12.6,1.1l-5.6,3l-7.4-1.9l-0.7,0.4l0,0L41.7,174.4z M44.7,168.5l7.4,1.9
		l5.6-2.6l11.1-1.1l4.8-7.4l3.3-3.3v-0.4l0.7-0.4l4.8-4.5c0,0,0,0,0.4,0c0.4-0.4,1.5-1.5,1.5-1.5l0.7-1.1v-0.4L87,141l3.7-1.1
		l4.1-6.3l1.5-3l2.6-1.5l0.7-0.7h0.7c0.7-0.4,1.1-0.7,1.5-0.7l1.9-0.7l0.4-0.4l9.6-4.5l1.1-3.3l4.1-1.9l2.6-0.4l3-2.2l5.2,0.4
		l4.1-1.9l1.9-3.7l7.1-1.9l1.9-1.9c0.4-0.4,0.7-0.7,0.7-0.7l0.4-0.4h0.4c0.4,0,0.4,0,3.3,0.4l1.9,0.4c1.1-0.4,4.1-1.9,5.2-2.2
		c0.4,0,0.7-0.4,1.1-0.4l0.7-0.4c1.1-0.4,1.9-0.7,3-1.1c0.4,0,0.7-0.4,1.1-0.4h0.4l5.9-0.7l0,0v-0.4l-0.4-6.7c0-0.7,0-1.9,0-2.6
		c0-1.9-0.4-3.3-0.7-5.2c0-1.1-0.4-2.2-0.4-3.3l0-1.5c-0.4-1.1-0.4-2.2-0.7-3.3l0,0c-0.7,0-1.1,0.4-1.5,0.4h-0.4
		c-1.5,0.4-3.3,0.4-4.8,0.4c-1.1,0-2.2,0.4-3.3,0.4l-8.2,3l-13.4-0.7l-3.3,2.6h-0.4l-1.9,1.9l-0.7,1.1l-7.4,0.7l-6.7,5.2h-0.7
		l-3.7,1.9h-0.7l-2.2,1.9l-1.1-0.7l-5.2-0.4l0,0l-0.4,0.7l-5.2,5.9v0.7l-0.7,0.4l-7.4,8.5l-2.6,0.4l-5.9,1.1c0,0,0,0-10,5.6L68,118
		l-5.2-0.7l-1.1,0.4l-3.7-0.4l-4.1,4.5l-3.3,0.7h-1.1l-1.5,0.7h-0.4l-5.6,4.1h-0.4l-7.4,5.9l-4.8,11.9l0.7,2.2l-10.4,1.1l-1.9,1.5
		l3.3,4.5l3,4.5l2.2,3l3.7,4.1l0,0l0,0l1.5,0.4c0.4,0,0.7,0.4,1.1,0.4l0,0c0.4,0,2.6,0.7,3,0.7l0,0l4.8,1.9h0.7l0.4,0.4
		c0.4,0,0.4,0,0.7,0.4L44.7,168.5z M169.3,100.2L169.3,100.2L169.3,100.2z M169.7,99.4L169.7,99.4h1.5H169.7z"/>
	<path d="M171.2,107.2c0-0.4,0-0.7-0.4-1.1c-0.4-0.4-0.4-0.4-0.7-0.4s-1.1,0-1.1,0l-1.9,0.4c-0.4,0-0.4,0-0.7,0
		c-1.1,0.4-2.2,0.4-3,0.7c-1.1,0.4-2.2,0.7-3.3,1.1c-1.1,0.4-2.2,0.7-3.7,1.5c-0.4,0.4-4.1,2.2-5.9,3l-2.2,2.2v0.4h-0.4h-1.5l0,0
		l-4.5,1.5v0.4l-0.4,0.4v0.4l-2.2,3.7h-0.4v0.4c0,0-0.4,0.7-0.7,1.5l-9.6,6.7h-0.4l-1.5,1.1l-1.1,4.1l-1.1,0.7l-3.7,13.7l0.4,1.5
		l-5.6,2.6h-0.7l-1.1,4.8l0,0l-1.5,4.5v0.4l-0.7,3.7l-0.4,0.4v0.4l-5.2,8.5h-0.4l-1.1,1.9v0.4l-4.5,6.3l-4.8,3l0.4,0.4l-0.4,1.9
		l0.4,0.7l0.4,0.7l-3.3,2.2h-0.4l-5.2,3l-0.7,1.1c0.7,0,1.5,0.4,1.9,0.4l3.3,0.4h2.2h2.6h1.1h1.9h1.9l7.1-0.7l4.1-0.7l3.3-0.7
		l3.3-1.1l4.5-1.9l0.4-0.4l1.1-0.7c1.9-1.1,3.3-1.9,5.2-3c3-1.9,5.6-4.1,8.2-6.7c0.7-0.7,1.9-1.5,2.6-2.6c0.7-0.7,1.5-1.5,2.2-2.2
		l0.4-0.4c0.4-0.7,0.7-1.1,1.1-1.5c0.4-0.4,0.7-0.7,1.1-1.1c0.7-0.7,1.1-1.5,2.2-2.2c0.7-0.7,1.1-1.1,1.5-1.9
		c0.7-1.1,1.5-2.6,2.6-3.7c1.1-1.5,2.2-3.3,3-4.8c1.1-1.9,1.9-3.7,3-5.6c0.7-1.5,1.9-3,2.6-4.8c1.1-2.6,2.2-5.2,3.3-8.2
		c1.1-3,1.9-5.9,2.6-8.9c0.7-2.2,1.1-4.5,1.9-6.7c0-0.4,0-0.7,0.4-0.7c0.4-1.9,0.7-3.7,0.7-5.6c0.4-1.9,0.4-3.3,0.7-5.2
		c0-1.1,0.4-2.2,0.4-3.3c0-1.5,0.4-3.3,0.4-4.8V108C170.8,108,171.2,107.6,171.2,107.2"/>
	<path class="st0" d="M99.6,200l-11.5-0.4c-0.7,0-1.5,0-2.2-0.4l-2.6-0.7l2.2-3.7l5.9-3.7h0.4l2.2-1.5c0,0,0-0.7,0-1.1l-1.1-1.5
		l1.5-1.1c2.2-1.5,3.7-2.2,4.5-2.6c0.7-1.1,3.3-4.5,4.1-5.6v-0.4l1.9-3h0.4l4.5-7.1h0.4l0.7-0.7l0.4-3l0,0v-0.7l1.5-4.8l1.1-5.6h1.9
		l3.7-1.9v-0.4l4.1-14.8l0.7-0.7l1.1-4.1l2.6-2.2h0.4l8.5-5.6l0.4-0.7l0.4-1.5h0.7l1.9-3.3v-1.1l5.2-1.9v-0.4l1.9-0.4l2.6-2.6
		c1.9-0.7,5.6-2.6,5.9-3c0.7-0.4,1.5-0.7,2.2-0.7c0.4-0.4,1.1-0.4,1.5-0.7c1.1-0.4,2.6-0.7,3.7-1.1c0.7,0,1.5-0.4,1.9-0.4l1.1-0.4
		c0.4,0,0.4,0,0.7,0l1.9-0.4c0,0,1.1,0,1.5,0c0.7,0,1.5,0.4,2.2,0.7l0.4,0.4c0.4,0.7,0.4,1.5,0.4,2.2v1.1c0,1.9,0,3.3-0.4,4.8
		c0,1.1-0.4,2.2-0.4,3.3h-1.9l1.9,0.4c-0.4,1.9-0.4,3.3-0.7,5.2c-0.4,1.5-0.4,3-0.7,4.5v0.7c0,0.4,0,0.7-0.4,1.1
		c-0.4,1.5-0.7,2.6-1.1,4.1c0,0.7-0.4,1.5-0.7,2.2c-0.7,3-1.9,5.9-3,8.9c-0.7,1.9-1.5,3.7-2.2,5.6l-1.1,2.2
		c-0.7,1.9-1.5,3.3-2.6,4.8c-0.7,1.5-1.9,3-2.6,4.5l-0.4,0.7c-0.7,1.1-1.5,2.6-2.2,3.7l-1.5,2.2c-0.7,0.7-1.1,1.9-1.9,2.6
		c-0.4,0.7-1.1,1.5-1.9,2.2c-0.7,0.7-1.5,1.5-1.9,1.9c-0.4,0.4-0.7,0.7-1.1,1.1c-0.4,0.4-0.7,0.7-0.7,1.1c-0.4,0.4-0.4,0.7-0.7,1.1
		l-2.2,2.2c-0.7,0.7-1.9,1.5-2.6,2.6c-2.6,2.2-5.2,4.5-8.2,6.7c-1.9,1.1-3.7,2.2-5.2,3.3l-1.9,1.9l-4.8,1.9l-6.7,1.9l-4.5,0.7
		l-7.1,0.7L99.6,200z M91.4,195.9l8.5,0.4h1.9l7.1-0.7l4.1-0.7l6.3-1.9l4.5-1.9l1.1-0.7c1.9-0.7,3.3-1.9,5.2-3
		c2.6-1.9,5.2-4.1,7.8-6.3c0.7-0.7,1.5-1.5,2.6-2.2l2.2-2.2c0.4-0.7,1.1-1.5,1.9-2.2c0,0,0.4-0.4,0.7-0.7c0.7-1.1,1.5-1.9,2.2-2.6
		c0.4-0.4,0.7-0.7,1.1-1.5c0.7-0.7,1.1-1.9,1.9-2.6l1.5-2.6c0.7-1.1,1.5-2.2,2.2-3.3l0.4-0.7c0.7-1.5,1.9-3,2.6-4.8
		c0.7-1.5,1.5-3,2.2-4.5l1.1-2.2c0.7-1.9,1.5-3.7,2.2-5.6c1.1-3,1.9-5.6,2.6-8.5c0.4-0.7,0.4-1.5,0.4-2.2c0.4-1.5,0.7-3,1.1-4.5
		v-0.4v-1.1c0.4-1.5,0.4-3,0.7-4.5c0.4-1.9,0.4-3.3,0.7-5.2v-0.4c0-1.1,0.4-1.9,0.4-3c0-1.5,0.4-3.3,0.4-4.8V108l0,0l-1.5,0.4h-0.4
		l-1.1,0.4c-0.7,0-1.1,0.4-1.9,0.4c-1.1,0.4-2.2,0.7-3.3,1.1c-0.4,0.4-1.1,0.4-1.5,0.7c-0.7,0.4-1.1,0.4-1.9,0.7
		c-0.4,0-3.7,1.9-5.6,2.6l-1.5,1.9l-0.4,2.2l-2.2-1.1h-0.7l-3.3,1.1l-0.4,0.7l-3.7,5.9l-10.4,6.7l0,0l-0.7,0.4l-1.1,4.1l-1.1,0.7
		l-3.3,12.6l0.7,2.6l-7.1,3.3l-0.7,4.1l-0.4,0.4l-1.1,3.3v0.4l-0.4,3.7l0.4,0.4l-6.3,10h-0.4l-0.7,1.1v0.4l-0.4,0.4
		c-3.3,4.8-4.5,6.3-5.2,7.1l0,0c-0.4,0-2.2,1.5-3.7,2.2c0,0.4,0,0.7,0,1.1l1.1,2.2l-2.6,0.7l-3.7,2.2h-0.4L91.4,195.9z M170.1,107.6
		L170.1,107.6L170.1,107.6z"/>
</g>
</svg>
