<?xml version="1.0" encoding="utf-8"?>
<!-- Generator: Adobe Illustrator 21.1.0, SVG Export Plug-In . SVG Version: 6.00 Build 0)  -->
<svg version="1.1" id="Layer_1" xmlns="http://www.w3.org/2000/svg" xmlns:xlink="http://www.w3.org/1999/xlink" x="0px" y="0px"
	 viewBox="0 0 200 200" style="enable-background:new 0 0 200 200;" xml:space="preserve">
<style type="text/css">
	.st0{fill:#ED1B2E;}
	.st1{fill:#2CA343;}
</style>
<g>
	<polygon class="st0" points="6.4,195.1 193.6,195.1 193.6,200 6.4,200 	"/>
	<path class="st1" d="M102.9,111.8C59.6,76.1,18.4,42.4,18.4,42.4s10.6-16.1,28-27.3L102.9,111.8L102.9,111.8z"/>
	<path class="st1" d="M99,98.9C75.7,59.7,49,14.2,49,14.2S64.5,4.4,79.4,1.8L99,98.9L99,98.9z"/>
	<path class="st1" d="M99.6,87.5C92.4,51.8,83.1,1.2,83.1,1.2s12.5-2.4,26.5-0.6L99.6,87.5L99.6,87.5z"/>
	<path class="st1" d="M104.1,76.5C109,36.7,112.7,1,112.7,1s12.5,1.2,20.8,5.9C133.5,6.7,123.1,31.6,104.1,76.5L104.1,76.5z"/>
	<path class="st1" d="M110.4,70.1c17.5-40.4,26.5-62.4,26.5-62.4s7.6,2.2,15.7,8.8L110.4,70.1L110.4,70.1z"/>
	<path class="st1" d="M118,65.2c31-39,36.7-47.1,36.7-47.1s2.7,0.4,10.2,8.6L118,65.2L118,65.2z"/>
	<path class="st1" d="M124.5,63.8c37.3-30,42.5-34.1,42.5-34.1s4.7,4.3,6.9,8.4L124.5,63.8L124.5,63.8z"/>
	<path class="st1" d="M138,60.5c25.5-13.1,38.2-19,38.2-19s1.4,1.4,2.9,5.3L138,60.5L138,60.5z"/>
	<path class="st1" d="M145.9,60.7c35.3-10.8,34.3-10.8,34.3-10.8s1.4,2.5,1.4,4.3L145.9,60.7L145.9,60.7z"/>
	<path d="M34.2,139.5v22c0,7.1-4.5,9.8-9.4,9.8c-5.3,0-9.2-3.3-9.2-9v-22.5H6.4V162c0,12.2,7.8,17.5,18.6,17.5
		c10.2,0,18.4-4.5,18.4-17.5v-22.4h-9.2V139.5z"/>
	<path d="M58.5,152.2h-7.8v26.7h7.8v-17.1c2.2-3.3,3.5-4.3,5.5-4.3c2.4,0,3.9,1.6,3.9,5.3v16.3h7.8v-16.9c0-7.8-5.3-10.2-9.2-10.2
		c-3.1,0-5.7,1.2-8,4.3L58.5,152.2L58.5,152.2z"/>
	<polygon points="90.3,152.2 82.5,152.2 82.5,178.7 90.3,178.7 	"/>
	<path d="M118.9,171.4c-3.5,1.4-5.3,2-7.1,2c-4.5,0-7.5-3.1-7.5-7.8c0-4.7,2.9-7.6,7.8-7.6c2,0,4.3,0.6,6.5,1.8v-6.3
		c-2.5-1-5.9-1.8-8.4-1.8c-8.2,0-14.1,5.7-14.1,13.9c0,8.2,5.7,13.7,14.5,13.7c2.7,0,5.3-0.6,8.4-1.8v-6.1H118.9z"/>
	<path d="M149.9,172c-2,1.4-2.5,1.6-2.9,1.6c-0.8,0-1.4-0.6-1.4-2v-12.2c0-5.9-4.3-8-10.6-8c-3.9,0-7.6,1-11,3.1v6.9
		c2.5-2.7,6.1-4.5,9.2-4.5c3.5,0,4.5,2,4.3,4.5c-10.6,3.5-14.9,4.7-14.9,11c0,3.3,2.9,6.5,7.1,6.5c2.7,0,5.3-0.8,8.2-2.9
		c0.6,2.2,1.8,2.9,4.5,2.9c2.2,0,5.3-1,7.5-2.5V172L149.9,172z M137.7,172.2c-1.4,1.2-2.9,2-4.3,2s-2.5-1.2-2.5-2.7
		c0-2.7,2.2-3.7,6.9-5.7V172.2L137.7,172.2z"/>
	<path d="M161.3,152.2h-7.8v25.3c0,4.3-1.2,6.5-4.1,6.9l2.5,7.6c3.9-0.4,9.4-3.5,9.4-12.5L161.3,152.2L161.3,152.2z"/>
	<path d="M193.6,172c-2,1.4-2.5,1.6-2.9,1.6c-0.8,0-1.4-0.6-1.4-2v-12.2c0-5.9-4.3-8-10.6-8c-3.9,0-7.6,1-11,3.1v6.9
		c2.5-2.7,6.1-4.5,9.2-4.5c3.5,0,4.5,2,4.3,4.5c-10.6,3.5-14.9,4.7-14.9,11c0,3.3,2.9,6.5,7.1,6.5c2.7,0,5.3-0.8,8.2-2.9
		c0.6,2.2,1.8,2.9,4.5,2.9c2.2,0,5.3-1,7.5-2.5V172L193.6,172z M181.3,172.2c-1.4,1.2-2.9,2-4.3,2c-1.4,0-2.5-1.2-2.5-2.7
		c0-2.7,2.2-3.7,6.9-5.7V172.2L181.3,172.2z"/>
	<path class="st0" d="M77.4,138.5c0-3.9,3.1-7.3,7.3-7.3c3.9,0,7.3,3.1,7.3,7.3c0,3.9-3.3,7.3-7.3,7.3S77.4,142.4,77.4,138.5
		L77.4,138.5z"/>
	<path class="st1" d="M149.3,138.9c0-4.1,3.3-7.5,7.5-7.5c4.1,0,7.5,3.3,7.5,7.5c0,4.1-3.3,7.5-7.5,7.5
		C152.6,146.1,149.3,142.8,149.3,138.9L149.3,138.9z"/>
</g>
</svg>
