<?xml version="1.0" encoding="utf-8"?>
<!-- Generator: Adobe Illustrator 21.1.0, SVG Export Plug-In . SVG Version: 6.00 Build 0)  -->
<svg version="1.1"
	 id="Layer_1" xmlns:cc="http://creativecommons.org/ns#" xmlns:dc="http://purl.org/dc/elements/1.1/" xmlns:rdf="http://www.w3.org/1999/02/22-rdf-syntax-ns#"
	 xmlns="http://www.w3.org/2000/svg" xmlns:xlink="http://www.w3.org/1999/xlink" x="0px" y="0px" viewBox="0 0 200 200"
	 style="enable-background:new 0 0 200 200;" xml:space="preserve">
<style type="text/css">
	.st0{fill:#FFFFFF;}
	.st1{fill:#002B5C;}
	.st2{fill:#F9A01B;}
	.st3{fill:#00471B;}
</style>
<g>
	<path class="st0" d="M182.4,74.8l17.1-40.9h-96.1L85.7,74.8h0l-13.3,30.4c-7-10.6-19-17.5-32.7-17.5c-21.7,0-39.3,17.6-39.3,39.3
		s17.6,39.3,39.3,39.3c21.5,0,38.9-17.2,39.2-38.6l22.7-52.7H182.4z"/>
	<path class="st1" d="M3.3,128.6c0.5,9.3,4.4,18.1,11,24.4c7.1-6.1,11.5-15.1,11.7-24.4H3.3z"/>
	<path class="st2" d="M29.5,128.6c-0.5,10.3-5.1,19.8-12.7,26.6c6.1,4.9,13.7,7.8,21.3,8.1v-34.7H29.5z"/>
	<path class="st1" d="M3.3,125.4h23c-0.5-9.5-4.6-18.6-11.7-24.7C7.7,107.3,3.6,116.1,3.3,125.4"/>
	<path class="st2" d="M16.8,98.5c7.6,6.8,12.2,16.6,12.7,26.9h8.8V90.5C30.2,90.7,22.9,93.6,16.8,98.5"/>
	<path class="st1" d="M76.1,128.6h-23c0.5,9.5,4.6,18.3,11.7,24.4C71.7,146.7,75.6,137.9,76.1,128.6"/>
	<path class="st3" d="M50,128.6h-8.8v34.7c7.8-0.2,15.4-3.2,21.3-8.1C55.1,148.4,50.5,138.8,50,128.6"/>
	<path class="st3" d="M62.7,98.5c-6.1-4.9-13.4-7.8-21.3-8.1v34.9h8.8C50.5,115.1,55.1,105.4,62.7,98.5"/>
	<path class="st1" d="M105.2,37l-32.5,74.3c-2-3.9-4.4-7.6-7.6-10.5c-7.1,6.4-11.5,15.1-11.7,24.7h23l23.5-53.7h68.4L183.4,37
		L105.2,37z"/>
	<polygon class="st3" points="179.7,71.7 194.6,37 188.3,37 173.1,71.7 	"/>
</g>
</svg>
