<?xml version="1.0" encoding="utf-8"?>
<!-- Generator: Adobe Illustrator 21.1.0, SVG Export Plug-In . SVG Version: 6.00 Build 0)  -->
<svg version="1.1" id="Layer_1" xmlns="http://www.w3.org/2000/svg" xmlns:xlink="http://www.w3.org/1999/xlink" x="0px" y="0px"
	 viewBox="0 0 200 200" style="enable-background:new 0 0 200 200;" xml:space="preserve">
<style type="text/css">
	.st0{fill:#5A6972;}
	.st1{fill:#FFFFFF;}
	.st2{fill:#5B6A74;}
	.st3{fill:#008BCD;}
	.st4{fill:#FE5800;}
	.st5{fill:#FE0000;}
	.st6{fill:#FEFE00;}
	.st7{fill:#FDFD00;}
	.st8{fill:#FD5801;}
	.st9{fill:#FE5801;}
	.st10{fill:#FEFEFE;}
	.st11{fill:#FD5802;}
	.st12{fill:#FA5803;}
	.st13{fill:#FDFDFD;}
	.st14{fill:#B44142;}
	.st15{fill:#001E7F;}
	.st16{fill:#001D80;}
	.st17{fill:#001E80;}
	.st18{fill:#001D7F;}
	.st19{fill:#002181;}
	.st20{fill:#001E7E;}
	.st21{fill:#001D81;}
	.st22{fill:#001C81;}
	.st23{fill:#001F80;}
	.st24{fill:#0081C9;}
	.st25{fill:#007FC8;}
	.st26{fill:#0078C2;}
	.st27{fill:#007EC5;}
	.st28{fill:#007DC5;}
</style>
<g>
	<path class="st0" d="M106.8,177.8c-1.6,3.1-3.1,6.1-4.6,9.1c-0.2,0.4-0.1,0.7-0.1,1.1c0,3,0,6,0,9c0,0.6-0.1,1-0.8,0.8
		c-0.6-0.1-1.5,0.2-1.7-0.1c-0.3-0.5-0.2-1.3-0.2-1.9c0-1.3-0.1-2.7,0-4c0.3-2.7-0.4-5-1.7-7.3c-1.2-2.1-2.2-4.2-3.4-6.5
		c-1,1.7-1.8,3.3-2.7,4.9c-0.6,1.1-1.2,2.2-1.8,3.3c-0.5,0.9-0.8,1.8-0.8,2.8c0.1,2.6,0,5.2,0,7.8c0,0.7-0.1,1-1,1
		c-1.9,0-1.9,0-1.9-1.9c0-2.1,0-4.2,0-6.3c0-1.2-0.2-2.3-0.9-3.3c-1.5-2.3-2.7-4.6-4.1-6.9c-0.4-0.6-0.7-0.8-1.1,0
		c-1.3,2.3-2.7,4.5-4.1,6.8c-0.3,0.5-0.3,1-0.3,1.5c0,3.1,0,6.1,0,9.2c0,0.8-0.1,1.1-1,1c-1.8-0.1-1.8-0.1-1.8-1.9
		c0-9.8,0-19.5,0-29.3c0-0.7-0.2-1.1-0.6-1.7c-4-4.8-8-9.5-12-14.3c-4.1-5-8.3-10-12.4-15c-4.1-4.9-8.3-9.8-12.4-14.8
		c-1.2-1.5-3.1-1.9-4.5-3.1c-2.6-2.1-4-4.8-3.7-8c0.4-4.4,3.5-7.4,7.4-8.6c1.7-0.5,3.4-0.5,5.1-0.4c0.8,0,1-0.1,0.9-1.1
		c-0.3-3.3-0.6-6.5-0.4-9.9c0.2-3.1,0.5-6.2,1.1-9.2c0.8-3.9,1.9-7.7,3.4-11.4c3.5-8.2,8.5-15.3,15.1-21.2
		c8.2-7.4,17.8-12.2,28.7-14.2c3.2-0.6,6.5-0.9,9.8-1c10.3-0.2,19.9,2,29,6.7c6.1,3.2,11.5,7.4,16.2,12.5
		c6.3,6.9,10.7,14.8,13.4,23.7c1.1,3.6,1.7,7.3,2,11c0.3,3,0.2,5.9,0.2,8.9c0,1.3-0.1,2.7-0.4,4c-0.2,1.1,0.2,1.2,1,1.1
		c2.5-0.1,5,0.1,7.2,1.4c3.2,1.8,5.2,4.6,5.1,8.3c0,4.4-2.5,7.3-6.4,9c-0.5,0.2-0.8,0.4-1.1,0.8c-2.9,3.4-5.7,6.9-8.5,10.4
		c-3.4,4.2-6.9,8.3-10.3,12.4c-2.9,3.5-5.7,7-8.6,10.4c-3,3.6-6,7.3-9.1,10.9c-0.7,0.9-1.1,1.7-1.1,2.9c0.1,9.8,0,19.6,0,29.4
		c0,0.4,0.2,1-0.2,1.1c-0.7,0.2-1.5,0.2-2.3,0c-0.3-0.1-0.1-0.5-0.1-0.8c0-2.9,0-5.9,0-8.8c0-1.2-0.2-2.3-1-3.3
		c-1.3-1.8-2.4-3.7-3.5-5.6c-0.4-0.7-0.6-0.7-1,0c-1.4,2.4-2.9,4.8-4.3,7.2c-0.2,0.4-0.2,0.8-0.2,1.3c0,3.1,0,6.1,0,9.2
		c0,0.9-0.2,1.2-1.1,1.1c-0.3,0-0.6,0-0.9,0c-0.7,0.1-0.9-0.2-0.9-0.9c0-2.7-0.1-5.4,0-8.1c0.1-1.5-0.4-2.8-1.1-4.1
		C109.4,182.5,108.2,180.2,106.8,177.8z"/>
	<path class="st1" d="M100.2,32.8c9.7,0,18.9,2.3,27.5,6.8c6.1,3.2,11.5,7.4,16.2,12.5c6.3,6.9,10.7,14.8,13.4,23.7
		c1.1,3.6,1.7,7.3,2,11c0.3,3,0.2,5.9,0.2,8.9c0,1.3-0.1,2.7-0.4,4c-0.2,1,0.1,1.1,0.8,1.1c0.1,0,0.2,0,0.3,0c0.4,0,0.8,0,1.1,0
		c2.1,0,4.2,0.3,6.1,1.4c3.2,1.8,5.2,4.6,5.1,8.3c0,4.4-2.5,7.3-6.4,9c-0.5,0.2-0.8,0.4-1.1,0.8c-2.9,3.4-5.7,6.9-8.5,10.4
		c-3.4,4.2-6.9,8.3-10.3,12.4c-2.9,3.5-5.7,7-8.6,10.4c-3,3.6-6,7.3-9.1,10.9c-0.7,0.9-1.1,1.7-1.1,2.9c0.1,9.8,0,19.6,0,29.4
		c0,0.4,0.2,1-0.2,1.1c-0.4,0.1-0.8,0.1-1.1,0.1c-0.4,0-0.8,0-1.1-0.2c-0.3-0.1-0.1-0.5-0.1-0.8c0-2.9,0-5.9,0-8.8
		c0-1.2-0.2-2.3-1-3.3c-1.3-1.8-2.4-3.7-3.5-5.6c-0.2-0.4-0.4-0.5-0.5-0.5c-0.2,0-0.3,0.2-0.5,0.5c-1.4,2.4-2.9,4.8-4.3,7.2
		c-0.2,0.4-0.2,0.8-0.2,1.3c0,3.1,0,6.1,0,9.2c0,0.8-0.2,1.1-0.8,1.1c-0.1,0-0.2,0-0.3,0c-0.1,0-0.3,0-0.4,0c-0.2,0-0.3,0-0.5,0
		c-0.1,0-0.2,0-0.2,0c-0.5,0-0.6-0.3-0.6-0.9c0-2.7-0.1-5.4,0-8.1c0.1-1.5-0.4-2.8-1.1-4.1c-1.3-2.2-2.6-4.5-3.9-6.9
		c-1.6,3.1-3.1,6.1-4.6,9.1c-0.2,0.4-0.1,0.7-0.1,1.1c0,3,0,6,0,9c0,0.5,0,0.9-0.5,0.9c-0.1,0-0.2,0-0.3,0c-0.1,0-0.2,0-0.3,0
		c-0.3,0-0.7,0.1-1,0.1c-0.2,0-0.3,0-0.4-0.1c-0.3-0.5-0.2-1.3-0.2-1.9c0-1.3-0.1-2.7,0-4c0.3-2.7-0.4-5-1.7-7.3
		c-1.2-2.1-2.2-4.2-3.4-6.5c-1,1.7-1.8,3.3-2.7,4.9c-0.6,1.1-1.2,2.2-1.8,3.3c-0.5,0.9-0.8,1.8-0.8,2.8c0.1,2.6,0,5.2,0,7.8
		c0,0.7-0.1,1-0.9,1c0,0,0,0,0,0c-1.9,0-1.9,0-1.9-1.9c0-2.1,0-4.2,0-6.3c0-1.2-0.2-2.3-0.9-3.3c-1.5-2.3-2.7-4.6-4.1-6.9
		c-0.2-0.4-0.4-0.6-0.6-0.6c-0.2,0-0.3,0.2-0.6,0.5c-1.4,2.3-2.8,4.5-4.1,6.8c-0.3,0.5-0.3,1-0.3,1.5c0,3.1,0,6.1,0,9.2
		c0,0.7-0.1,1-0.8,1c-0.1,0-0.1,0-0.2,0c-1.8-0.1-1.8-0.1-1.8-1.9c0-9.8,0-19.5,0-29.3c0-0.7-0.2-1.1-0.6-1.7c-4-4.8-8-9.5-12-14.3
		c-4.1-5-8.3-10-12.4-15c-4.1-4.9-8.3-9.8-12.4-14.8c-1.2-1.5-3.1-1.9-4.5-3.1c-2.6-2.1-4-4.8-3.7-8c0.4-4.4,3.5-7.4,7.4-8.6
		c1.2-0.4,2.5-0.5,3.8-0.5c0.4,0,0.9,0,1.3,0c0.1,0,0.1,0,0.2,0c0.7,0,0.8-0.2,0.8-1.1c-0.3-3.3-0.6-6.5-0.4-9.9
		c0.2-3.1,0.5-6.2,1.1-9.2c0.8-3.9,1.9-7.7,3.4-11.4c3.5-8.2,8.5-15.3,15.1-21.2c8.2-7.4,17.8-12.2,28.7-14.2c3.2-0.6,6.5-0.9,9.8-1
		C99.2,32.8,99.7,32.8,100.2,32.8 M100.2,30.5c-0.5,0-1,0-1.6,0c-3.8,0.1-7.1,0.4-10.2,1c-11.2,2.1-21.2,7.1-29.8,14.7
		c-6.8,6.1-12.1,13.5-15.7,21.9c-1.6,3.7-2.8,7.7-3.6,11.8c-0.6,3.3-0.9,6.6-1.1,9.5c-0.2,3.1,0,6,0.3,8.9c-1.2,0-2.7,0.1-4.4,0.6
		c-5.2,1.5-8.6,5.6-9,10.5c-0.3,3.8,1.2,7.3,4.5,9.9c0.8,0.6,1.5,1,2.2,1.4c0.8,0.4,1.5,0.8,1.9,1.3c2.7,3.3,5.4,6.6,8.1,9.8
		c1.4,1.7,2.8,3.4,4.2,5c2.4,2.9,4.9,5.9,7.3,8.8c1.7,2,3.4,4.1,5.2,6.2c3.9,4.7,8,9.6,12,14.4c0,0.1,0.1,0.1,0.1,0.1c0,0,0,0,0,0.2
		c0,7.7,0,15.6,0,23.2v6.1c0,1.1,0,2.1,0.8,3c0.8,0.9,1.8,1,2.9,1.1l0.2,0c0.1,0,0.2,0,0.4,0c0.9,0,1.6-0.3,2.2-0.8
		c0.8-0.9,0.8-1.9,0.8-2.4c0-1.9,0-3.9,0-5.7c0-1.1,0-2.3,0-3.4c0-0.2,0-0.3,0-0.4c0.3-0.5,0.6-1,0.9-1.5c0.6-1,1.2-2,1.8-3
		c0.9,1.5,1.8,3.1,2.8,4.7c0.4,0.6,0.5,1.2,0.5,2c0,1.5,0,3,0,4.5c0,0.6,0,1.3,0,1.9c0,1.2,0,2.3,0.8,3.2c0.9,0.9,2,0.9,3.1,1H88
		c0,0,0.1,0,0.1,0c1,0,1.7-0.3,2.3-0.9c0.8-0.9,0.8-2,0.8-2.4c0-1.1,0-2.3,0-3.4c0-1.5,0-3,0-4.5c0-0.6,0.1-1.1,0.5-1.6
		c0.4-0.8,0.9-1.5,1.3-2.3c0.2-0.3,0.4-0.7,0.6-1l0.7-1.2c0.5,1,1,2,1.6,2.9c1.2,2,1.7,3.9,1.5,6c-0.1,1.1-0.1,2.1,0,3.2
		c0,0.4,0,0.7,0,1.1c0,0.1,0,0.2,0,0.4c0,0.7-0.1,1.8,0.6,2.7c0.3,0.4,0.9,1.1,2.2,1.1c0.2,0,0.5,0,0.7,0c0.1,0,0.2,0,0.3,0
		c0.2,0,0.5,0.1,0.7,0.1c1,0,1.6-0.4,1.9-0.8c0.8-0.8,0.8-1.9,0.8-2.3c0-2.7,0-5.5,0-8.2V188c0-0.1,0-0.2,0-0.3c0,0,0,0,0,0
		c0.9-1.7,1.7-3.4,2.6-5.2c0.6,1.1,1.3,2.2,1.9,3.3c0.6,1,0.9,1.9,0.8,2.9c-0.1,1.7-0.1,3.4,0,5c0,1,0,2.1,0,3.1
		c0,0.4,0,1.5,0.8,2.3c0.4,0.4,1,0.8,2,0.8c0.2,0,0.3,0,0.5,0c0.1,0,0.1,0,0.2,0s0.1,0,0.1,0c0.2,0,0.5,0.1,0.7,0.1
		c1.1,0,1.7-0.5,2.1-0.8c0.9-0.9,0.9-2.1,0.9-2.5c0-2,0-4.1,0-6.1c0-1,0-2,0-3.1c0,0,0-0.2,0-0.2l0.3-0.5c0.8-1.4,1.7-2.8,2.5-4.2
		c0.7,1.1,1.4,2.3,2.2,3.4c0.4,0.6,0.6,1.1,0.6,2c0,2.3,0,4.7,0,7c0,0.6,0,1.2,0,1.9c0,0,0,0,0,0c-0.2,2.1,1.2,2.8,1.6,2.9
		c0.6,0.2,1.2,0.3,1.9,0.3c0.5,0,1-0.1,1.6-0.2c0.4-0.1,2.3-0.6,2-3.2c0,0,0,0,0-0.1v-2.9c0-8.7,0-17.7,0-26.5
		c0-0.6,0.1-0.9,0.6-1.5c2.3-2.8,4.7-5.6,7-8.4c0.7-0.8,1.4-1.7,2.1-2.5c1.1-1.3,2.2-2.7,3.4-4c1.7-2.1,3.5-4.2,5.3-6.4
		c1.6-1.9,3.2-3.8,4.7-5.7c1.8-2.2,3.8-4.5,5.6-6.7c1.9-2.3,3.9-4.7,5.7-7c0.9-1.1,1.9-2.3,2.8-3.4c0,0,0.1-0.1,0.3-0.2
		c2.4-1,4.2-2.5,5.5-4.2c1.4-1.9,2.2-4.2,2.2-6.8c0-4.3-2.2-7.9-6.3-10.2c-2-1.1-4.2-1.7-7-1.7c0.1-1,0.1-1.9,0.2-2.8
		c0-2.8,0.1-6-0.2-9.2c-0.4-4.2-1.1-8-2.1-11.4c-2.8-9.4-7.5-17.7-13.8-24.6c-4.9-5.3-10.6-9.7-16.8-13
		C119.8,32.9,110.3,30.5,100.2,30.5L100.2,30.5z"/>
	<path class="st2" d="M73.8,5.5C72.9,6.7,72,7.8,71.1,9c-2.3,3.1-3.9,6.4-4.9,10.1c-0.9,3.6-1.6,7.2-1.7,10.8c0,1.4,0.2,2.8,0.4,4.1
		c0.1,0.6,0,0.8-0.4,1.1c-3.5,2-6.7,4.4-9.7,7c-2.9,2.5-5.6,5.1-7.9,8.1c-0.6,0.7-1.2,1.4-1.7,2c-0.8-14.7,5.4-26.6,14.8-37.2
		c3.8-4.3,8.4-7.3,13.5-9.9C73.7,5.4,73.8,5.5,73.8,5.5z"/>
	<path class="st1" d="M73.6,5.3c0.1,0.1,0.2,0.2,0.2,0.3C72.9,6.7,72,7.8,71.1,9c-2.3,3.1-3.9,6.4-4.9,10.1
		c-0.9,3.6-1.6,7.2-1.7,10.8c0,1.4,0.2,2.8,0.4,4.1c0.1,0.6,0,0.8-0.4,1.1c-3.5,2-6.7,4.4-9.7,7c-2.9,2.5-5.6,5.1-7.9,8.1
		c-0.6,0.7-1.2,1.4-1.7,2c-0.8-14.7,5.4-26.6,14.8-37.2C63.9,10.9,68.6,7.8,73.6,5.3 M73.6,3.1c-0.3,0-0.7,0.1-1,0.2
		C66.5,6.4,62,9.7,58.4,13.7c-5.2,5.9-9,11.7-11.6,17.7c-2.9,6.8-4.2,13.7-3.8,21.1c0,0.9,0.6,1.7,1.5,2c0.2,0.1,0.5,0.1,0.7,0.1
		c0.6,0,1.3-0.3,1.7-0.8c0.2-0.2,0.3-0.4,0.5-0.6c0.4-0.5,0.8-1,1.3-1.5c2.4-3.1,5.3-5.8,7.6-7.8c3.2-2.8,6.2-5,9.3-6.8
		c0.9-0.5,1.8-1.5,1.5-3.4c-0.3-1.5-0.4-2.7-0.4-3.7c0-3.1,0.5-6.3,1.6-10.3c0.9-3.4,2.4-6.5,4.5-9.4C73.4,9.6,74,8.8,74.6,8
		c0.3-0.4,0.6-0.7,0.9-1.1c0.7-0.8,0.6-2.1-0.1-2.9L75.3,4l-0.1-0.1C74.8,3.3,74.2,3.1,73.6,3.1L73.6,3.1z"/>
	<path class="st2" d="M154.3,52.2c-1.8-2.3-3.8-4.3-5.8-6.4c-1.8-1.8-3.8-3.5-5.7-5.2c-1.7-1.5-3.5-2.9-5.4-4.2
		c-1-0.6-0.8-1.6-0.9-2.4c-0.9-7.8-3.2-15.1-6.7-22.1c-1-2-2.2-3.9-3.4-5.7c-0.2-0.2-0.5-0.5-0.2-0.8c0.2-0.2,0.5,0,0.7,0.2
		c5.9,3.2,11.2,7.2,15.2,12.6c3.6,4.9,7.1,9.9,9.3,15.7c1.4,3.7,2.2,7.5,2.6,11.4C154.3,47.6,154.5,49.8,154.3,52.2z"/>
	<path class="st1" d="M126.5,5.3c0.2,0,0.3,0.2,0.5,0.2c5.9,3.2,11.2,7.2,15.2,12.6c3.6,4.9,7.1,9.9,9.3,15.7
		c1.4,3.7,2.2,7.5,2.6,11.4c0.2,2.3,0.5,4.5,0.3,6.8c-1.8-2.3-3.8-4.3-5.8-6.4c-1.8-1.8-3.8-3.5-5.7-5.2c-1.7-1.5-3.5-2.9-5.4-4.2
		c-1-0.6-0.8-1.6-0.9-2.4c-0.9-7.8-3.2-15.1-6.7-22.1c-1-2-2.2-3.9-3.4-5.7c-0.2-0.2-0.5-0.5-0.2-0.8C126.4,5.3,126.4,5.3,126.5,5.3
		 M126.5,3.1c-0.6,0-1.3,0.3-1.7,0.7c-0.8,0.8-1.3,2.1-0.1,3.6l0,0c1.3,1.8,2.3,3.7,3.3,5.5c3.5,6.9,5.7,14,6.5,21.3
		c0,0.1,0,0.2,0,0.4c0,0.8,0.1,2.6,1.8,3.7c1.7,1.1,3.5,2.5,5.1,4c0.5,0.5,1.1,1,1.6,1.4c1.4,1.2,2.7,2.4,4,3.7
		c1.7,1.8,3.8,3.9,5.7,6.2c0.4,0.5,1.1,0.8,1.7,0.8c0.2,0,0.4,0,0.6-0.1c0.9-0.3,1.5-1,1.5-1.9c0.2-2.5,0-4.8-0.2-7.1l0-0.1
		c-0.4-4.2-1.3-8.2-2.7-12c-2.3-6.2-6-11.4-9.6-16.3c-3.9-5.2-9.1-9.5-15.9-13.2C127.8,3.5,127.3,3.1,126.5,3.1L126.5,3.1z"/>
	<path class="st2" d="M96.2,2.6c2.5,1.3,4.9,1.1,7.3,0c0.1,0.1,0.1,0.2,0.1,0.2c-1.3,1.8,0.3,3.1,0.8,4.6c0.9,2.5,1.3,5.1,1.4,7.8
		c0.2,4-0.4,7.9-2,11.7c-0.8,1.9-1.9,2.9-3.7,2.9s-3.1-1-3.8-3c-1.6-4.4-2.1-9-1.9-13.7c0.1-2,0.5-4,0.9-5.9c0-0.2,0.1-0.5,0.2-0.6
		C96.7,5.4,96.9,4.1,96.2,2.6z"/>
	<path class="st1" d="M103.5,2.6c0.1,0.1,0.1,0.2,0.1,0.2c-1.3,1.8,0.3,3.1,0.8,4.6c0.9,2.5,1.3,5.1,1.4,7.8c0.2,4-0.4,7.9-2,11.7
		c-0.8,1.9-1.9,2.9-3.7,2.9l0,0c-1.8,0-3.1-1-3.8-3c-1.6-4.4-2.1-9-1.9-13.7c0.1-2,0.5-4,0.9-5.9c0-0.2,0.1-0.5,0.2-0.6
		c1.1-1.1,1.3-2.4,0.7-3.9c1.2,0.6,2.3,0.9,3.5,0.9C101,3.6,102.2,3.2,103.5,2.6 M103.5,0.4c-0.3,0-0.7,0.1-1,0.2
		c-1,0.5-1.9,0.8-2.8,0.8c-0.8,0-1.6-0.2-2.5-0.7c-0.3-0.2-0.7-0.3-1-0.3c-0.6,0-1.1,0.2-1.5,0.6c-0.7,0.6-0.9,1.7-0.5,2.5
		c0.3,0.7,0.2,1-0.2,1.5c-0.6,0.6-0.7,1.3-0.8,1.6c0,0,0,0,0,0c-0.5,2-0.9,4.1-1,6.4c-0.2,5.7,0.5,10.3,2.1,14.5
		c1,2.8,3.2,4.4,5.8,4.4c2.7,0,4.6-1.4,5.7-4.2c1.6-3.9,2.3-8.1,2.2-12.6c-0.1-2.9-0.6-5.7-1.6-8.4c-0.2-0.6-0.5-1.1-0.7-1.5
		c-0.2-0.3-0.4-0.8-0.4-0.9c0,0,0-0.1,0.1-0.1c0.2-0.3,0.8-1.3,0.1-2.5l0,0C105.1,0.8,104.3,0.4,103.5,0.4L103.5,0.4z"/>
	<path class="st2" d="M118.8,21.6c0.2,1.5-0.2,3.1-0.2,4.7c0,0.9-0.4,1-1.1,0.8c-2.9-0.9-5.8-1.5-8.8-1.9c-0.6-0.1-0.6-0.4-0.6-0.8
		c0.8-3.6,0.7-7.3,0.6-10.9c0-1.9-0.4-3.8-0.8-5.6c-0.1-0.7,0-1.1,0.6-1.5c1.7-1.1,3.3-2.2,5-3.3c0.6-0.4,0.8-0.4,1.1,0.3
		c2,4,3.1,8.2,3.7,12.5C118.7,17.7,118.9,19.6,118.8,21.6z"/>
	<path class="st1" d="M114.2,2.7c0.2,0,0.4,0.2,0.6,0.6c2,4,3.1,8.2,3.7,12.5c0.3,1.9,0.5,3.8,0.4,5.8c0.2,1.5-0.2,3.1-0.2,4.7
		c0,0.6-0.2,0.8-0.6,0.8c-0.1,0-0.3,0-0.5-0.1c-2.9-0.9-5.8-1.5-8.8-1.9c-0.6-0.1-0.6-0.4-0.6-0.8c0.8-3.6,0.7-7.3,0.6-10.9
		c0-1.9-0.4-3.8-0.8-5.6c-0.1-0.7,0-1.1,0.6-1.5c1.7-1.1,3.3-2.2,5-3.3C113.9,2.8,114.1,2.7,114.2,2.7 M114.2,0.5L114.2,0.5
		c-0.8,0-1.4,0.4-1.9,0.7c-1.4,1-3,2-4.9,3.2c-1,0.6-2,1.7-1.5,3.8c0.4,1.7,0.7,3.4,0.8,5.2v0.3c0.1,3.5,0.1,6.9-0.6,10.1
		c-0.2,0.9-0.1,1.7,0.4,2.3c0.3,0.4,0.9,1,2,1.2c3.1,0.5,5.9,1.1,8.5,1.9c0.4,0.1,0.8,0.2,1.1,0.2c1.3,0,2.8-1,2.8-3
		c0-0.5,0-1.1,0.1-1.7c0.1-1,0.2-2,0.1-3.1c0.1-2.1-0.1-4.1-0.4-6c-0.7-5.1-2-9.4-3.9-13.2C116.2,1.1,115.3,0.5,114.2,0.5L114.2,0.5
		z"/>
	<path class="st2" d="M119,3.5c4.5,3.7,8,7.9,10.1,13.1c1.1,2.6,2,5.3,2.7,8.1c0.6,2.7,0.6,5.4,0.6,8.1c0,0.6-0.2,0.6-0.7,0.4
		c-2.9-1.7-5.9-3.1-9-4.2c-0.5-0.2-0.5-0.4-0.5-0.9c0.1-4.6,0-9.2-0.6-13.7C121.1,10.8,120.2,7.3,119,3.5z"/>
	<path class="st1" d="M119,3.5c4.5,3.7,8,7.9,10.1,13.1c1.1,2.6,2,5.3,2.7,8.1c0.6,2.7,0.6,5.4,0.6,8.1c0,0.4-0.1,0.5-0.2,0.5
		c-0.1,0-0.2-0.1-0.4-0.2c-2.9-1.7-5.9-3.1-9-4.2c-0.5-0.2-0.5-0.4-0.5-0.9c0.1-4.6,0-9.2-0.6-13.7C121.1,10.8,120.2,7.3,119,3.5
		 M119,1.3c-0.4,0-0.9,0.1-1.2,0.4c-0.8,0.6-1.2,1.6-0.9,2.5c1.3,4.1,2.1,7.4,2.5,10.5c0.6,4.6,0.7,9.3,0.6,13.4
		c0,0.3,0,0.9,0.2,1.5c0.2,0.5,0.7,1.2,1.8,1.6c2.8,0.9,5.6,2.2,8.6,4c0.3,0.2,0.9,0.5,1.5,0.5c1.2,0,2.4-0.8,2.5-2.7
		c0-2.9,0-5.7-0.6-8.6c-0.6-2.8-1.6-5.6-2.8-8.5c-2.2-5.2-5.7-9.8-10.8-13.9C120,1.5,119.6,1.3,119,1.3L119,1.3z"/>
	<path class="st2" d="M69.2,32.2c-0.8-6.2,0.7-12,2.9-17.6c1.7-4.4,4.6-8.1,8.1-11.2c0.2-0.2,0.3-0.5,0.6-0.3c0.3,0.2,0.1,0.5,0,0.8
		C80,6.8,79.1,9.7,79,12.7c-0.2,4.6-0.4,9.2,0.6,13.7c0.4,1.6,0.4,1.6-1.1,2c-3.1,0.8-6,2-8.7,3.6C69.7,32,69.5,32.1,69.2,32.2z"/>
	<path class="st1" d="M80.6,3.1c0,0,0.1,0,0.2,0.1c0.3,0.2,0.1,0.5,0,0.8C80,6.8,79.1,9.7,79,12.7c-0.2,4.6-0.4,9.2,0.6,13.7
		c0.4,1.6,0.4,1.6-1.1,2c-3.1,0.8-6,2-8.7,3.6c-0.2,0.1-0.4,0.2-0.6,0.3c-0.8-6.2,0.7-12,2.9-17.6c1.7-4.4,4.6-8.1,8.1-11.2
		C80.3,3.3,80.4,3.1,80.6,3.1 M80.6,0.9L80.6,0.9c-0.8,0-1.4,0.3-2,1c-4,3.6-6.8,7.6-8.6,12c-1.9,4.9-4,11.4-3,18.7
		c0.1,0.7,0.5,1.3,1.1,1.7c0.3,0.2,0.7,0.3,1,0.3c0.3,0,0.7-0.1,1-0.2c0.1,0,0.1-0.1,0.2-0.1c0.2-0.1,0.4-0.2,0.6-0.3
		c2.6-1.5,5.3-2.7,8.1-3.4c1-0.2,2-0.5,2.6-1.6c0.5-1,0.3-1.9,0-3c-1-4.2-0.8-8.5-0.6-13v0c0.1-2.6,0.9-5.1,1.7-7.8L83,4.5v0
		c0.8-2-0.6-3.1-1-3.3C81.6,1,81.1,0.9,80.6,0.9L80.6,0.9z"/>
	<path class="st2" d="M82.2,18.1c0.1-5.2,0.5-10.3,2.6-15.1c0.3-0.6,0.4-0.8,1-0.4c1.7,1.4,3.4,2.8,5.2,4.1c0.6,0.4,0.3,0.9,0.2,1.3
		c-0.9,3.3-0.8,6.7-0.8,10.1c0,2.3,0.5,4.5,1,6.7c0.2,0.6,0.1,0.9-0.7,1c-2.2,0.3-4.4,0.6-6.4,1.5c-0.6,0.3-0.8,0-0.9-0.5
		C82.7,23.8,82.2,21,82.2,18.1z"/>
	<path class="st1" d="M85.3,2.3c0.1,0,0.3,0.1,0.5,0.3c1.7,1.4,3.4,2.8,5.2,4.1c0.6,0.4,0.3,0.9,0.2,1.3c-0.9,3.3-0.8,6.7-0.8,10.1
		c0,2.3,0.5,4.5,1,6.7c0.2,0.6,0.1,0.9-0.7,1c-2.2,0.3-4.4,0.6-6.4,1.5c-0.2,0.1-0.3,0.1-0.4,0.1c-0.3,0-0.4-0.3-0.5-0.6
		c-0.7-2.8-1.2-5.7-1.2-8.6c0.1-5.2,0.5-10.3,2.6-15.1C84.9,2.5,85.1,2.3,85.3,2.3 M85.3,0.1L85.3,0.1c-0.8,0-1.6,0.4-2.1,1.1
		C83,1.5,82.8,1.8,82.8,2c-2.3,5.4-2.7,11.1-2.8,16c0,3.4,0.6,6.7,1.2,9.1c0.5,2.1,2.2,2.3,2.7,2.3c0.4,0,0.8-0.1,1.3-0.3
		c1.8-0.8,3.9-1.1,5.7-1.3c0.4,0,1.5-0.2,2.2-1.2c0.7-1,0.4-2.1,0.4-2.5c-0.4-1.9-0.9-4.1-0.9-6.2v-0.5c0-3.2,0-6.1,0.7-9
		c0,0,0,0,0-0.1c0.6-1.8-0.3-2.9-1.1-3.5c-1.5-1.2-3.1-2.4-4.6-3.6l-0.5-0.4C86.8,0.5,86.1,0.1,85.3,0.1L85.3,0.1z"/>
	<path class="st3" d="M100.2,103.2c20.6,0,41.2,0,61.9,0c3.4,0,5.9,1.7,7.2,4.7c1.1,2.5,0.8,5.4-1.8,7.7c-1.3,1.1-2.7,1.7-4.4,2
		c-3.4,0.8-6.9,0.3-10.4,0.4c-6.5,0.1-13,0-19.5,0c-9.5,0-18.9,0-28.4,0c-3.2,0-6.3,0.1-9.5,0c-2.6-0.1-5.2-0.1-7.8-0.1
		c-8.4,0.2-16.9,0-25.3,0.1c-6.7,0.1-13.5,0-20.2,0c-1.9,0-3.8,0-5.7-0.4c-4-0.9-7.3-4.4-6.1-8.8c1-3.5,4.2-5.5,7.6-5.5
		c15.5-0.1,30.9,0,46.4,0C89.6,103.1,94.9,103.1,100.2,103.2C100.2,103.1,100.2,103.1,100.2,103.2z"/>
	<path class="st4" d="M146.1,91.9c-9.6,0-19.3,0-28.9,0c-1.4,0-1.5-0.1-1.5-1.5c0.1-5.4,0.5-10.9,1.6-16.2
		c1.1-5.2,2.7-10.1,5.2-14.8c2.4-4.3,5.5-8.1,9.4-11.2c0.5-0.4,0.9-0.7,1.4-1c0.6-0.4,1.1-0.3,1.7,0.1c2.1,1.6,4,3.4,5.9,5.3
		c4.5,4.5,8,9.7,10.7,15.4c2.9,6,4.6,12.3,5.2,18.9c0.1,1.2,0.2,2.5,0.2,3.7c0,1-0.4,1.4-1.4,1.4c-3.2,0-6.3,0-9.5,0
		C146.1,92,146.1,91.9,146.1,91.9z"/>
	<path class="st4" d="M64.1,91.9c-6.5,0-13,0-19.6,0c-1.4,0-1.5-0.1-1.4-1.4c0.1-3.6,0.7-7.1,1.4-10.7c1-4.9,2.8-9.5,5-13.9
		c2.1-4.1,4.8-7.8,7.8-11.4c2.1-2.5,4.5-4.7,7.1-6.7c0.6-0.5,1-0.5,1.6,0c3.7,2.9,6.7,6.2,9.5,10c2.3,3.2,4.1,6.7,5.6,10.4
		c1.7,4.1,2.8,8.5,3.5,12.9c0.5,3.2,0.3,6.5,0.6,9.7c0.1,1.1-0.6,1.2-1.5,1.2C77.2,91.9,70.6,91.9,64.1,91.9z"/>
	<path class="st4" d="M101,63.5c0-9,0-18,0-27c0-1,0.3-1.2,1.2-1.2c2.1,0.1,4.2,0.4,6.3,0.7c1.7,0.3,3.4,0.6,5,1
		c2.3,0.5,4.4,1.3,6.6,2c3.7,1.3,7.2,3.1,10.5,5.2c1.1,0.7,1.1,0.8,0.1,1.6c-4.1,3.1-7.2,7.1-9.8,11.4c-2.1,3.5-3.7,7.3-4.9,11.3
		c-1.5,5.2-2.4,10.4-2.7,15.8c-0.1,2.1-0.2,4.2-0.2,6.3c0,1-0.4,1.3-1.3,1.3c-3.2,0-6.3,0-9.5,0c-1,0-1.4-0.3-1.3-1.3
		C101,81.5,101,72.5,101,63.5L101,63.5z"/>
	<path class="st4" d="M98.5,63.6c0,9,0,17.9,0,26.8c0,1.4,0,1.4-1.4,1.5c-2.6,0.1-5.2-0.1-7.8,0.1c-1.2,0.1-1.6-0.3-1.6-1.5
		c0.1-4.8-0.5-9.5-1.6-14.2c-1.3-5.7-3.5-11.1-6.4-16.1c-2.4-4-5.3-7.6-8.6-11c-0.9-0.9-1.9-1.8-2.9-2.6c-0.9-0.7-0.9-0.9,0-1.6
		c2.1-1.6,4.4-2.8,6.8-4c2.2-1.1,4.5-2.1,6.9-2.8c1.6-0.5,3.2-1,4.8-1.3c3.4-0.8,7-1.3,10.5-1.5c1.1-0.1,1.3,0.3,1.3,1.3
		C98.5,45.6,98.5,54.6,98.5,63.6L98.5,63.6z"/>
	<path class="st5" d="M76.9,155.3c0,0.7-0.4,1.2-0.7,1.7c-0.6,1.4-1.2,2.7-1.9,4.1c-0.5,1-0.7,1-1.4,0.2c-3-3.6-6-7.2-9-10.8
		c-4.4-5.3-8.9-10.6-13.4-15.9c-3.4-4.1-6.8-8.2-10.2-12.2c-0.4-0.5-1.3-1.1-1-1.6c0.2-0.5,1.2-0.2,1.9-0.2c4,0,8.1,0,12.2,0
		c0.3,0,0.7,0.1,1,0.1c1.1,0.8,1.6,2,2.3,3.1c2.8,4.3,5.6,8.6,8.4,12.8c3.8,5.9,7.7,11.8,11.5,17.8
		C76.7,154.6,76.9,154.9,76.9,155.3z"/>
	<path class="st5" d="M89.7,159.5c-1,1.2-1.2,1.2-1.9-0.2c-2.3-4.7-4.6-9.3-7-14c-3.8-7.6-7.7-15.3-11.5-22.9
		c-0.1-0.1-0.1-0.3-0.2-0.4c-0.6-1.3-0.6-1.5,0.9-1.5c3.9,0,7.7,0,11.6,0c0.3,0,0.7,0.1,1,0.1c0.4,0.2,0.6,0.7,0.7,1.1
		c2.7,7,5.5,13.9,8.3,20.8c1.1,2.7,2.2,5.5,3.3,8.2c0.2,0.6,0.5,1.2,0.6,1.8c0.1,0.6-0.2,0.9-0.6,1.2c-0.7,0.7-1.3,1.4-1.9,2.2l0,0
		C91.8,157,90.9,158.4,89.7,159.5z"/>
	<path class="st6" d="M117.1,120.6c0.4-0.3,0.8-0.2,1.2-0.2c4.1,0,8.2,0,12.2,0c1.3,0,1.4,0.1,0.8,1.3c-2.2,4.4-4.4,8.8-6.5,13.2
		c-3.9,7.9-7.8,15.9-11.8,23.8c-1,1.9-1,1.9-2.4,0.3c-1.1-1.3-2.1-2.5-3.1-3.8c0-1.8,0.7-3.5,1.2-5.2c1.6-5.9,3.2-11.8,4.9-17.7
		c1-3.6,2-7.3,3-11C116.6,121.1,116.7,120.8,117.1,120.6z"/>
	<path class="st7" d="M148.8,120.6c0.6-0.3,1.2-0.2,1.9-0.2c3,0,6,0,9,0c0.3,0,0.8-0.1,0.9,0.2c0.2,0.3-0.2,0.6-0.4,0.8
		c-8.4,10.1-16.8,20.2-25.2,30.2c-2.7,3.2-5.3,6.4-8,9.6c-0.8,1-0.9,1-1.4-0.1c-0.8-1.6-1.9-3.1-2.5-4.8c0-0.5,0.3-0.8,0.5-1.1
		c3.6-5.2,7.4-10.3,11.1-15.4c4.3-6.1,8.7-12,13-18.1C148,121.3,148.2,120.8,148.8,120.6z"/>
	<path class="st5" d="M148.8,120.6c-2.6,3.6-5.2,7.3-7.8,10.9c-5.8,8.1-11.6,16.2-17.4,24.2c-0.2,0.2-0.3,0.4-0.5,0.6
		c-1.3-1.5-2-3.5-3.1-5.2c-0.2-0.4,0.1-0.8,0.3-1.2c4-7.9,7.9-15.9,11.9-23.8c0.8-1.6,1.6-3.1,2.3-4.7c0.4-0.8,0.8-1,1.6-1
		c3.2,0,6.3,0,9.5,0C146.7,120.4,147.8,120,148.8,120.6z"/>
	<path class="st5" d="M117.1,120.6c-3.1,11.3-6.2,22.6-9.3,34c-0.1,0.2-0.2,0.5-0.3,0.7c-1.9-1.9-3.5-3.9-5.2-6
		c-0.4-0.5-0.4-1-0.4-1.6c0-8.5,0-16.9,0-25.4c0-1.8,0-1.8,1.8-1.8c4.3,0,8.6,0,12.9,0C116.8,120.5,116.9,120.6,117.1,120.6z"/>
	<path class="st6" d="M95.2,152.6c-4.2-10.7-8.4-21.3-12.7-32c0.6-0.2,1.2-0.1,1.9-0.1c4.5,0,9,0,13.5,0c0.9,0,1.3,0.2,1.3,1.2
		c0,8.6,0,17.2,0,25.8c0,1-0.3,1.8-1,2.5c-0.9,0.9-1.7,1.9-2.5,2.8C95.4,153,95.4,152.8,95.2,152.6z"/>
	<path class="st7" d="M76.9,155.3c-4.7-7.2-9.4-14.3-14.1-21.5c-2.9-4.4-5.7-8.8-8.5-13.2c3.5-0.2,7,0,10.5-0.1
		c0.5,0,0.7,0.3,0.9,0.7c2.5,5.1,5.1,10.1,7.6,15.2c2,3.9,3.9,7.8,5.9,11.7c0.5,0.9,0.6,1.6,0.1,2.5
		C78.4,152.1,77.8,153.8,76.9,155.3z"/>
	<path class="st8" d="M64,94.6c6.4,0,12.7,0,19.1,0c1.8,0,1.9,0.1,1.7,1.9c-0.1,1.2-0.3,2.5-0.5,3.7c0,0.4-0.3,0.6-0.6,0.6
		c-0.3,0-0.5,0-0.8,0c-12.6,0-25.2,0-37.8,0c-1.1,0-1.6-0.4-1.7-1.4c-0.1-1.3-0.3-2.6-0.4-3.8c-0.1-0.8,0.5-0.9,1.1-0.9c1,0,2,0,3,0
		C52.8,94.6,58.4,94.6,64,94.6z"/>
	<path class="st9" d="M136.3,94.6c6.5,0,12.9,0,19.3,0c0.9,0,1.3,0.2,1.2,1.2c0,1.3-0.2,2.6-0.3,3.8c-0.1,0.8-0.5,1.2-1.4,1.2
		c-5.5,0-10.9,0-16.4,0c-7.1,0-14.1,0-21.2,0c-1,0-1.4-0.3-1.5-1.2c-0.1-1.2-0.2-2.5-0.3-3.7c-0.1-0.9,0.3-1.2,1.2-1.2
		C123.4,94.6,129.9,94.6,136.3,94.6z"/>
	<path class="st10" d="M80.8,173.1c-1.2-2-2.2-4-3.5-5.8c-1.3-1.9-1.2-3.4-0.1-5.4c1.4-2.6,2.5-5.3,3.8-8c0.1-0.3,0.2-0.8,0.6-0.8
		c0.4,0,0.4,0.5,0.6,0.8c1.4,2.8,2.8,5.6,4.2,8.5c0.2,0.3,0.4,0.6,0.2,1C84.6,166.5,82.8,169.7,80.8,173.1z"/>
	<path class="st10" d="M88.3,166.1c1.3,2.5,2.4,4.9,3.8,7.3c0.7,1.3,0.6,2.2-0.1,3.4c-1.3,2.2-2.5,4.5-3.8,6.8c-0.6,1-0.7,1-1.3,0
		c-1.4-2.3-2.8-4.7-4.2-7.1c-0.2-0.4-0.4-0.6-0.1-1.1c1.8-2.9,3.5-5.8,5.3-8.7C87.9,166.5,88.1,166.3,88.3,166.1z"/>
	<path class="st10" d="M119.8,173c-1.9-3.2-3.7-6.2-5.5-9.2c-0.1-0.2-0.3-0.4-0.1-0.7c1.5-2.9,2.9-5.8,4.5-8.9
		c0.6,1,1.1,1.9,1.5,2.7c1.3,2.4,2.5,4.8,3.8,7.2c0.4,0.7,0.4,1.2,0,1.9C122.6,168.1,121.2,170.5,119.8,173z"/>
	<path class="st10" d="M94.3,172c-1.4-2.9-2.8-5.5-4.1-8.1c-0.2-0.4-0.1-0.7,0.2-1c2.9-3.1,5.8-6.3,8.7-9.4c0,0,0.1,0,0.2,0
		c0,0.9,0,1.8,0,2.7c0,0.6,0,1.2,0,1.8c0,5.7,0,5.6-3,10.5C95.7,169.5,95.1,170.7,94.3,172z"/>
	<path class="st10" d="M112.5,166.2c1.9,3.1,3.6,6,5.4,8.9c0.2,0.4,0.2,0.7-0.1,1.1c-1.4,2.2-2.6,4.4-3.9,6.7
		c-0.2,0.3-0.3,0.7-0.6,0.7c-0.4,0-0.4-0.4-0.6-0.7c-1.4-2.5-2.7-5-4.1-7.5c-0.3-0.5-0.3-0.9,0-1.5
		C110,171.5,111.2,168.9,112.5,166.2z"/>
	<path class="st10" d="M100.6,166.4c1.5,2.8,2.9,5.4,4.4,8c0.2,0.3,0.2,0.5,0,0.8c-1.4,2.9-2.8,5.8-4.4,8.9
		c-0.5-0.9-0.9-1.6-1.3-2.3c-1.1-2.1-2.1-4.2-3.2-6.3c-0.2-0.3-0.3-0.6-0.1-1C97.6,172,99,169.3,100.6,166.4z"/>
	<path class="st10" d="M102.1,153.4c1.7,1.9,3.1,3.6,4.6,5.3c1.1,1.3,2.1,2.5,3.2,3.8c0.6,0.7,0.9,1.2,0.3,2.2
		c-1.2,2.1-2.2,4.3-3.2,6.5c-0.2,0.5-0.4,0.8-0.8,0.1c-1.2-2.3-2.5-4.5-3.7-6.7c-0.2-0.4-0.4-0.7-0.4-1.1
		C102.1,160.1,102.1,156.9,102.1,153.4z"/>
	<path class="st11" d="M107.3,100.7c-1.7,0-3.4,0-5.2,0c-0.8,0-1.1-0.3-1.1-1.1c0-1.3,0-2.6,0-3.9c0-0.8,0.4-1.2,1.2-1.2
		c3.3,0,6.7,0,10,0c0.6,0,0.9,0.2,1,0.8c0.1,1.5,0.3,3,0.4,4.5c0,0.6-0.4,0.9-1,0.9C110.8,100.7,109.1,100.7,107.3,100.7
		L107.3,100.7z"/>
	<path class="st12" d="M92.7,100.7c-1.5,0-3.1,0-4.6,0c-0.8,0-1.1-0.3-1-1.1c0.2-1.5,0.3-2.9,0.5-4.4c0.1-0.5,0.4-0.8,0.9-0.8
		c2.9,0,5.7,0,8.6,0c1,0,1.5,0.4,1.5,1.5c-0.1,1.2,0,2.3,0,3.5c0,0.8-0.3,1.1-1.1,1.1C95.8,100.7,94.2,100.7,92.7,100.7L92.7,100.7z
		"/>
	<path class="st13" d="M75.9,180.9c0-3.4,0-6.7,0-10.1c0.1,0,0.1-0.1,0.2-0.1c1,1.6,1.9,3.2,2.9,4.8c0.1,0.2,0.1,0.4,0,0.5
		c-1,1.6-2,3.3-2.9,4.9C76,180.9,75.9,180.9,75.9,180.9z"/>
	<path class="st13" d="M124.4,170.6c0,3.4,0,6.6,0,10c-1.1-1.7-1.9-3.2-2.9-4.7c-0.2-0.3-0.1-0.5,0.1-0.7
		C122.5,173.8,123.4,172.3,124.4,170.6z"/>
	<path class="st14" d="M89.7,159.5c0.9-1.3,1.9-2.6,3.3-3.5C92,157.2,91.3,158.7,89.7,159.5z"/>
	<path class="st14" d="M95.2,152.6c0.1,0.1,0.3,0.2,0.4,0.2c-0.7,1.2-1.6,2.2-2.6,3.1c0.1-1,1-1.4,1.6-2.1
		C94.9,153.5,95.3,153.2,95.2,152.6z"/>
	<path class="st15" d="M78.8,111.4c0-1.6,0-3.2,0-4.7c0-1,0.6-0.9,1.2-0.9c0.6,0,1.3-0.2,1.3,0.8c0,2.6,0,5.2,0,7.8
		c0,0.6-0.2,0.8-0.8,0.9c-1.1,0-1.9-0.1-2.6-1.1c-1-1.5-2.2-2.9-3.6-4.3c0,1.3,0,2.6,0,3.9c0,1.6,0,1.5-1.5,1.6c-0.8,0-1-0.3-1-1
		c0-2.5,0-5.1,0-7.6c0-0.4,0-1,0.5-0.9c0.8,0,1.8-0.4,2.5,0.5c1.2,1.5,2.4,3.1,3.6,4.6C78.4,111.1,78.5,111.3,78.8,111.4z"/>
	<path class="st16" d="M117.4,110.3c1.5,0.7,1.9,1.5,1.7,3c-0.2,1-1.2,1.9-2.4,1.9c-1.4,0.1-2.8,0-4.2,0c-0.5,0-0.7-0.2-0.7-0.7
		c0-2.7,0-5.4,0-8.2c0-0.4,0.1-0.7,0.6-0.6c1.3,0,2.6-0.2,3.8,0.1c2.1,0.4,2.7,2.3,1.5,4C117.7,110,117.6,110.1,117.4,110.3z"/>
	<path class="st17" d="M142.1,111.5c0,1.1,0,2,0,3c0,1.1-0.8,0.8-1.3,0.8c-0.6,0-1.2,0.1-1.2-0.8c0-2.7,0-5.3,0-7.9
		c0-1,0.7-0.7,1.2-0.7c0.5,0,1.3-0.3,1.2,0.7c0,0.9,0,1.9,0,3c0.9-0.6,1.4-1.3,1.7-2.1c0.9-1.7,2.4-1.9,4.2-1.6
		c-0.8,1.3-1.8,2.4-2.8,3.4c-0.7,0.7-0.7,1.2,0,1.9c1,1,1.8,2.2,2.7,3.3c0.1,0.2,0.4,0.3,0.3,0.6c-0.1,0.3-0.4,0.2-0.6,0.2
		c-1.5,0.2-2.7-0.1-3.5-1.5C143.6,113,143.1,112.2,142.1,111.5z"/>
	<path class="st15" d="M51.4,105.8c1.1-0.3,1.4,0.3,1.8,1.2c0.9,2.5,1.8,4.9,2.8,7.3c0.3,0.8,0.1,1.1-0.7,1.1
		c-0.9,0-1.7,0.1-1.9-1.1c-0.1-0.4-0.4-0.6-0.8-0.5c-0.6,0-1.2,0-1.8,0c-0.7,0-1.2,0.1-1.4,0.9c-0.2,0.6-2.3,1.1-2.7,0.6
		c-0.2-0.2,0-0.4,0.1-0.6c1.1-2.8,2.1-5.5,3.2-8.3C50.2,105.4,50.9,106,51.4,105.8z"/>
	<path class="st18" d="M101,105.8c1.1-0.3,1.5,0.3,1.8,1.2c0.9,2.4,1.8,4.8,2.7,7.2c0.3,0.7,0.3,1.1-0.7,1.1c-1,0-1.8,0-2.1-1.2
		c-0.1-0.4-0.4-0.4-0.8-0.4c-0.6,0-1.1,0-1.7,0c-0.8-0.1-1.2,0.1-1.5,0.9c-0.2,0.6-1.9,1-2.5,0.6c-0.3-0.2-0.2-0.4-0.1-0.7
		c1.1-2.8,2.1-5.5,3.2-8.3C99.8,105.5,100.5,106,101,105.8z"/>
	<path class="st17" d="M125.1,105.8c1.1-0.3,1.5,0.3,1.9,1.3c0.8,2.4,1.8,4.8,2.7,7.2c0.3,0.8,0.1,1.1-0.7,1c-0.9,0-1.7,0.1-1.9-1.1
		c-0.1-0.4-0.4-0.6-0.8-0.6c-0.6,0-1.2,0-1.8,0c-0.8-0.1-1.2,0.2-1.5,1c-0.2,0.6-2.2,1-2.6,0.6c-0.2-0.2,0-0.4,0-0.6
		c1.1-2.7,2.1-5.5,3.1-8.2C123.9,105.5,124.6,105.9,125.1,105.8z"/>
	<path class="st16" d="M38.5,105.9c1.2-0.4,1.6,0.2,1.9,1.1c0.5,1.2,1,2.5,1.4,3.7c0.1,0.2,0.1,0.5,0.4,0.5c0.3,0,0.4-0.3,0.5-0.5
		c0.5-1.3,1-2.6,1.5-3.9c0.3-0.8,2.1-1.3,2.8-0.9c0.3,0.2,0.2,0.4,0.1,0.6c-1.2,2.8-2.4,5.6-3.6,8.4c-0.2,0.6-0.7,0.5-1.1,0.5
		c-0.6,0-1.1,0.1-1.4-0.6c-1.1-2.8-2.4-5.5-3.4-8.3C37.1,105.2,38.4,106.3,38.5,105.9z"/>
	<path class="st15" d="M135,105.6c0.2,0,0.6,0.1,1.1,0.2c1.4,0.3,1.5,0.8,0.8,1.9c-0.2,0.3-0.5,0.4-0.8,0.3
		c-0.2-0.1-0.5-0.2-0.7-0.3c-0.6-0.2-1.2,0-1.4,0.6c-0.3,0.6,0.3,0.9,0.8,1.1c0.4,0.2,0.8,0.2,1.3,0.4c1,0.4,1.8,0.9,1.9,2.1
		c0.1,1.4-0.1,2.7-1.4,3.3c-1.6,0.8-3.3,0.8-4.9-0.2c-1-0.6,0-1.1,0.1-1.6c0.2-0.6,0.6-0.6,1-0.2c0.6,0.5,1.3,0.6,2.1,0.4
		c0.8-0.3,0.9-0.8,0.3-1.4c-0.4-0.4-0.8-0.5-1.3-0.6c-2-0.6-2.7-1.5-2.4-3.1C131.6,106.6,132.8,105.6,135,105.6z"/>
	<path class="st16" d="M149.6,110.6c0-1.3,0-2.7,0-4c0-0.6,0.2-0.8,0.8-0.8c1.3,0,2.6,0,3.9,0c0.8,0,0.8,0.4,0.8,1
		c0,0.6,0.1,1.3-0.8,1.2c-0.5,0-1,0-1.4,0c-0.6,0-0.8,0.2-0.8,0.8c0,0.6,0.2,0.8,0.8,0.8c0.3,0,0.6,0,0.9,0c1.1-0.2,1.3,0.4,1.2,1.3
		c0,0.5-0.2,0.7-0.7,0.7c-0.4,0-0.8,0-1.2,0c-0.6,0-0.9,0.2-0.9,0.9s0.3,0.9,1,0.9c0.3,0,0.6,0,0.9,0c1.1-0.2,1.3,0.4,1.2,1.3
		c0,0.6-0.3,0.8-0.8,0.8c-1.3,0-2.6-0.1-3.9,0c-0.7,0-0.8-0.2-0.8-0.8C149.6,113.2,149.6,111.9,149.6,110.6z"/>
	<path class="st19" d="M64.3,110.5c0-1.3,0-2.6,0-3.9c0-0.6,0.2-0.8,0.8-0.8c1.3,0,2.5,0,3.8,0c0.9,0,0.9,0.5,0.9,1.1
		c0,0.7-0.2,1.1-1,1.1c-0.4,0-0.9,0-1.3,0c-0.7,0-0.7,0.4-0.8,1c0,0.6,0.4,0.6,0.8,0.6c0.3,0,0.6,0,0.9,0c0.8-0.1,1.2,0,1.2,1
		c0,1-0.6,1-1.2,1c-0.7,0-1.7-0.5-1.6,0.9c0,0.5,0.2,0.8,0.8,0.8c0.4,0,0.8,0,1.1,0c1-0.2,1.3,0.3,1.2,1.3c0,0.6-0.2,0.8-0.8,0.8
		c-1.3,0-2.7,0-4,0c-0.6,0-0.8-0.2-0.8-0.8C64.3,113.2,64.3,111.8,64.3,110.5L64.3,110.5z"/>
	<path class="st20" d="M90.2,112.4c0,0.6,0,0.8,0,1.1c0,1.8-0.3,2.1-2.1,2.1c-2.1,0-3.8-1-4.7-2.9c-1-1.8-0.7-3.7,0.6-5.3
		c1.3-1.6,3.1-2.3,5.2-1.8c0.8,0.2,1.4,2.1,0.9,2.7c-0.3,0.3-0.6,0-0.9-0.1c-1.2-0.5-2.3-0.3-3,0.5c-0.8,0.9-0.9,2.3-0.3,3.3
		c0.5,0.9,1.6,1.4,2.7,1.1C89.1,113.1,89.5,112.8,90.2,112.4z"/>
	<path class="st21" d="M159.7,105.8c0.8,0,1.7,0,2.5,0c0.9,0,0.7,0.6,0.7,1.1c0,0.5,0.2,1.2-0.7,1.1c-1.3-0.2-1.4,0.6-1.3,1.5
		c0,1.7,0,3.3,0,5c0,1.1-0.6,0.9-1.3,0.9c-0.6,0-1.3,0.2-1.2-0.9c0.1-1.8,0-3.7,0-5.5c0-0.7-0.1-1-0.9-1c-0.9,0.1-1.3-0.4-1.3-1.3
		c0-0.6,0.3-0.8,0.9-0.8C158,105.8,158.8,105.8,159.7,105.8z"/>
	<path class="st22" d="M57.6,110.6c0-1.3,0-2.6,0-3.8c-0.1-1.1,0.6-0.9,1.3-0.9c0.6,0,1.2-0.1,1.2,0.9c-0.1,1.9,0,3.7,0,5.6
		c0,0.8,0.3,1.1,1,1c0.2,0,0.5,0,0.8,0c0.8-0.1,1.2,0.1,1.2,1c0,1-0.5,1-1.2,1c-1.1,0-2.1,0-3.2,0c-0.8,0-1-0.3-1-1
		C57.6,113.1,57.6,111.8,57.6,110.6L57.6,110.6z"/>
	<path class="st23" d="M92.1,110.4c0-1.3,0-2.6,0-3.9c0-1,0.7-0.8,1.2-0.8c0.5,0,1.3-0.3,1.2,0.7c0,2.7,0,5.4,0,8.1
		c0,1.1-0.8,0.6-1.4,0.7c-0.6,0.1-1.1,0.1-1.1-0.8C92.2,113.1,92.1,111.8,92.1,110.4z"/>
	<path class="st24" d="M114.4,112.4c0-0.5-0.2-1.1,0.7-1c0.7,0.1,1.5,0.1,1.6,1.1c0,0.9-0.7,1-1.4,1
		C114.4,113.6,114.4,113,114.4,112.4z"/>
	<path class="st25" d="M114.4,108.7c0-0.4-0.1-0.9,0.6-0.9c0.6,0,1,0.3,1,0.9c0,0.6-0.4,0.8-1,0.8
		C114.4,109.6,114.4,109.1,114.4,108.7z"/>
	<path class="st26" d="M51.4,109c0.3,0.7,0.4,1.2,0.6,1.6c0.4,1.1,0.4,1.2-0.8,1.2c-0.7,0-0.9-0.2-0.6-0.8c0.2-0.5,0.4-1,0.5-1.5
		C51.1,109.3,51.2,109.3,51.4,109z"/>
	<path class="st27" d="M100.9,108.8c0.3,0.8,0.5,1.3,0.7,1.9c0.1,0.3,0.5,0.7,0,1c-0.4,0.2-1,0.2-1.4,0c-0.4-0.2-0.2-0.7-0.1-1.1
		C100.4,110.1,100.6,109.6,100.9,108.8z"/>
	<path class="st28" d="M125.1,108.8c0.3,0.8,0.5,1.3,0.7,1.8c0.1,0.4,0.4,0.8,0,1.1c-0.4,0.2-0.9,0.2-1.3,0
		c-0.4-0.1-0.2-0.4-0.2-0.6C124.5,110.4,124.8,109.7,125.1,108.8z"/>
</g>
</svg>
