<?xml version="1.0" encoding="utf-8"?>
<!-- Generator: Adobe Illustrator 21.1.0, SVG Export Plug-In . SVG Version: 6.00 Build 0)  -->
<svg version="1.1"
	 id="Layer_1" xmlns:cc="http://creativecommons.org/ns#" xmlns:dc="http://purl.org/dc/elements/1.1/" xmlns:rdf="http://www.w3.org/1999/02/22-rdf-syntax-ns#"
	 xmlns="http://www.w3.org/2000/svg" xmlns:xlink="http://www.w3.org/1999/xlink" x="0px" y="0px" viewBox="0 0 200 200"
	 style="enable-background:new 0 0 200 200;" xml:space="preserve">
<style type="text/css">
	.st0{fill:#C4CED4;}
	.st1{fill:#FFFFFF;}
	.st2{fill:#002B5C;}
	.st3{fill:#E31837;}
</style>
<g>
	<path class="st0" d="M188,52.5c-6.1-11.4-14.3-21.3-24.2-29.4c-1.7-1.5-3.8-2.9-5.8-4.4C141.1,6.7,121,0,100.3,0H100
		C47,0,3,41.7,0.1,94.7c0,1.7,0,3.5,0,5.2v0.3c0,13.4,2.6,26.5,7.9,38.8c0.6,1.5,1.2,2.9,2,4.4c5.5,11.7,13.4,21.9,22.7,30.6
		c2.3,2,5,4.1,7.3,6.1c17.2,12.8,38.2,19.8,59.7,19.8l0,0c55.1,0,99.9-44.6,99.9-99.7l0,0l0,0c0-13.4-2.6-26.5-7.9-38.8
		C191,58.3,189.5,55.4,188,52.5"/>
	<path class="st1" d="M189.8,62.4c-1.2-2.9-2.6-5.8-4.1-8.5c-5.8-11.1-14-20.7-23.6-28.6c-1.7-1.5-3.8-2.9-5.5-4.4
		C140.3,9.3,120.4,2.9,100.3,2.9H100C48.5,2.9,5.6,43.4,3,95c0,1.7,0,3.2,0,5v0.3c0,13.1,2.6,25.9,7.6,37.9c0.6,1.5,1.2,2.9,2,4.4
		c5.5,11.4,13.1,21.3,22.1,29.7c2.3,2,4.7,4.1,7.3,5.8c16.9,12.5,37.3,19.2,58.3,19.2l0,0c53.6,0,97.3-43.4,97.3-97l0,0l0,0
		C197.4,87.1,194.8,74.3,189.8,62.4"/>
	<path class="st2" d="M82,55.4l2.3-8.2l0.6-2l-10.5-5.8c0,0-6.1-4.1-19.5,3.8c-15.7,9.3-28.6,21.3-35.3,34.1
		c-4.1,7.6-6.7,16-8.2,24.5c0.3,16.9,5.8,33.5,15.2,47.5C24,124.1,48.5,96.5,67.7,77.5C73.8,71.1,78.8,63.5,82,55.4"/>
	<path class="st2" d="M145.5,43.1c-13.4-7.9-19.5-3.8-19.5-3.8l-10.5,5.8l0.6,2l2.3,8.2c3.2,8.2,8.2,15.7,14.3,21.9
		c18.9,18.9,43.4,46.3,41.1,71.7c9.6-14.3,14.9-30.9,15.2-48.1c-1.5-8.2-4.1-16.3-7.9-23.6C174.4,64.7,161.5,52.5,145.5,43.1"/>
	<path class="st3" d="M113.2,28c28.6,2.9,54.5,18.4,70.8,42c-9-25.6-29.7-46-55.7-54.8C121.6,16.9,115.8,21.6,113.2,28"/>
	<path class="st3" d="M87.5,28c-2.9-6.4-8.5-11.1-15.4-12.8c-26.2,8.7-46.9,29.1-55.9,55.4C32.4,46.6,58.7,30.9,87.5,28"/>
	<path class="st3" d="M93.1,27.1l7-10.5l7,10.5c2-6.1,6.1-11.4,11.7-14.3c-12.5-2.6-25.4-2.6-37.6,0C86.9,15.7,91.3,21,93.1,27.1"/>
	<path class="st2" d="M100.3,57.1c-1.2,0.9-33.8,24.2-48.1,47.8c-19.5,31.5-16.9,49.8-11.9,60c12.8,11.9,28.8,19.5,46,22.4
		l7.6-107.5l6.4-6.4l0,0l0,0l0,0l0,0l6.4,6.4l7.6,107.2l0,0c17.5-2.6,33.5-10.5,46.3-22.4c5-10.5,7.3-28.6-11.9-59.7
		C134.1,81.6,101.2,58,100.3,57.1"/>
	<polygon class="st0" points="106.5,79.6 100.3,73.1 100.3,194.9 114,187.1 114,187.1 114.3,187.1 	"/>
	<path class="st0" d="M119.3,34.4c-3.8-0.6-7.9-1.2-11.7-1.5l-2.9-0.3l0,0l0,0l-1.2-2.3l0,0l0,0l-3.2-6.4l-1.2,2l-2,4.1l0,0v0.3v0.3
		l-1.2,2v0.3l0,0l-2.9,0.3c-3.8,0.3-7.9,0.9-11.7,1.5c-1.7,0.3-3.5,0.6-5.2,0.9l0,0l5.5,2.9l5.5,2.9l1.7,0.9l1.7,0.9l-1.2,3.8v0.3
		L89,49L86.1,60l0,0l0,0l7-5l4.7-3.5l1.5-0.9l1.5-0.9l0,0l0,0l0,0l0,0l1.5,0.9l1.5,0.9l11.7,8.5L112.3,49l-0.9-1.5l-0.3-0.9
		l-0.9-3.8l1.2-0.6l2.3-1.2L121,37l3.5-2l0,0C122.5,35,121,34.7,119.3,34.4"/>
</g>
</svg>
