<?xml version="1.0" encoding="utf-8"?>
<!-- Generator: Adobe Illustrator 21.1.0, SVG Export Plug-In . SVG Version: 6.00 Build 0)  -->
<svg version="1.1"
	 id="svg3326" inkscape:version="0.48.4 r9939" sodipodi:docname="New document 4" xmlns:cc="http://creativecommons.org/ns#" xmlns:dc="http://purl.org/dc/elements/1.1/" xmlns:inkscape="http://www.inkscape.org/namespaces/inkscape" xmlns:rdf="http://www.w3.org/1999/02/22-rdf-syntax-ns#" xmlns:sodipodi="http://sodipodi.sourceforge.net/DTD/sodipodi-0.dtd" xmlns:svg="http://www.w3.org/2000/svg"
	 xmlns="http://www.w3.org/2000/svg" xmlns:xlink="http://www.w3.org/1999/xlink" x="0px" y="0px" viewBox="0 0 200 200"
	 style="enable-background:new 0 0 200 200;" xml:space="preserve">
<style type="text/css">
	.st0{fill:none;}
	.st1{fill:#FFFFFF;}
	.st2{fill:#ED1D24;}
</style>
<g>
	<rect x="23" class="st0" width="154" height="200"/>
	<path id="path3037" inkscape:connector-curvature="0" class="st1" d="M76.1,27.6l4.8,14.7l1.6-1.1l-12.5-9.1l-0.6-0.4l-0.6,0.4
		l-12.5,9.1l1.6,1.1l4.8-14.7l0.2-0.7l-0.6-0.4l-12.5-9.1L49,19.2h3.1c0.1,0-2.5-1.8-2.5-1.8l-0.9,1.8l0.1,0l0.2,0.1h0.2h15.4h0.7
		l0.2-0.7l4.8-14.7h-1.9l4.8,14.7l0.2,0.7h0.7h15.5l-0.6-1.8l-12.5,9.1l-0.6,0.4L76.1,27.6z M89.5,17.1H74.1l1,0.7L70.3,3.1l-1-3
		l-1,3l-4.8,14.7l1-0.7H49.1l0.3,0.1l-1,1.8l0.6-1.8H49h-3.1l2.5,1.8L61,28.1L60.6,27l-4.8,14.7l-1,3l2.5-1.8l12.5-9.1h-1.2
		l12.5,9.1l2.5,1.8l-1-3L78,27l-0.4,1.1L90.2,19l2.5-1.8L89.5,17.1L89.5,17.1z"/>
	<path id="path3041" inkscape:connector-curvature="0" class="st2" d="M23,123c0-42.5,34.5-77,77-77s77,34.5,77,77s-34.5,77-77,77
		S23,165.5,23,123"/>
	<path id="path3045" inkscape:connector-curvature="0" class="st1" d="M25.9,123C25.9,82,59,48.9,100,48.9S174.1,82,174.1,123
		s-33.2,74.1-74.1,74.1S25.9,163.9,25.9,123"/>
	<path id="path3049" inkscape:connector-curvature="0" class="st2" d="M28.7,123c0-39.3,31.9-71.2,71.2-71.2s71.2,31.9,71.2,71.2
		s-31.9,71.2-71.2,71.2S28.7,162.3,28.7,123"/>
	<path id="path3053" inkscape:connector-curvature="0" class="st1" d="M51.9,123c0-26.6,21.5-48.1,48.1-48.1s48.1,21.5,48.1,48.1
		s-21.5,48.1-48.1,48.1S51.9,149.6,51.9,123"/>
	<path id="path3057" inkscape:connector-curvature="0" class="st2" d="M54.8,123c0-25,20.3-45.2,45.2-45.2S145.2,98,145.2,123
		S125,168.2,100,168.2S54.8,148,54.8,123"/>
	<path id="path3061" inkscape:connector-curvature="0" class="st1" d="M60,136.7l35.7-50.4c0,0,1.9-3.2,5.6-3.2h13.3v53.6h25.5
		c0,0-9.2,28.5-40.1,28.5C69.4,165.3,60,136.7,60,136.7"/>
	<path id="path3065" inkscape:connector-curvature="0" class="st2" d="M64.8,136.7l34.5-48.5c0,0,0.6-1,2.1-1h9.3v49.4L64.8,136.7
		L64.8,136.7z"/>
	<path id="path3069" inkscape:connector-curvature="0" class="st1" d="M86.5,113.2c0-6.3,5.1-11.3,11.3-11.3s11.3,5.1,11.3,11.3
		s-5.1,11.3-11.3,11.3C91.5,124.5,86.5,119.5,86.5,113.2"/>
	<path id="path3073" inkscape:connector-curvature="0" class="st1" d="M51.1,140.9l-2.3-8.8c-1.1,0.8-2.3,1.3-3.7,1.7l-7.1,1.9
		c-1.4,0.4-2.7,0.6-4,0.4l1.2,4.4c1.1-0.8,2.3-1.3,3.7-1.7l2.7-0.7c0.1,0.2,0.1,0.3,0.2,0.5c0.3,1,0.3,2,0,2.9l3.1,0.6l-1.2-4.6
		l4-1.1c0.4,1.5,0.5,2.7,0.3,3.8L51.1,140.9z"/>
	<path id="path3077" inkscape:connector-curvature="0" class="st1" d="M45.5,157.7c-0.7-0.5-1.2-1.1-1.6-1.8c-0.9-1.6-1-3.1-0.5-4.8
		c0.5-1.6,1.4-2.8,2.8-3.5c1.5-0.8,3-1.2,4.6-1c0.5,0.5,0.8,1,1,1.5c0.8,1.4,1,3,0.8,4.2c-0.3,2-1.4,3.4-3.3,4.4
		C48.1,157.4,46.7,157.7,45.5,157.7 M40.9,155.6c1.4,2.5,4,4.2,6.7,4.3c1.5,0.1,2.9-0.3,4.3-1c1.9-1.1,3.2-2.7,3.7-4.8
		c0.5-2,0.2-4-0.8-5.9c-1.1-2-2.9-3.5-5.1-4c-1.9-0.5-3.9-0.3-5.7,0.7c-2,1.1-3.5,3.1-3.9,5.4C39.8,152.2,40,154,40.9,155.6"/>
	<path id="path3081" inkscape:connector-curvature="0" class="st1" d="M58.5,172.4c-0.8-0.2-1.4-0.6-2.1-1.2
		c-1.3-1.2-1.9-2.7-1.9-4.4c0-1.7,0.5-3.1,1.6-4.2c1.2-1.2,2.5-2,4.1-2.4c0.6,0.4,1.1,0.7,1.4,1.1c1.2,1.1,1.9,2.5,2.1,3.8
		c0.3,2-0.3,3.7-1.8,5.2C60.8,171.3,59.7,172.1,58.5,172.4 M53.5,171.9c2.1,2,5.1,2.7,7.7,2c1.4-0.4,2.7-1.1,3.8-2.3
		c1.5-1.6,2.2-3.6,2.1-5.7c-0.2-2-1.1-3.9-2.6-5.3c-1.7-1.6-3.8-2.4-6.1-2.3c-2,0.1-3.8,0.9-5.2,2.4c-1.6,1.7-2.3,4-2.1,6.3
		C51.3,168.9,52.2,170.6,53.5,171.9"/>
	<path id="path3085" inkscape:connector-curvature="0" class="st1" d="M66.2,181.3l4,2.1c0.2-1.3,0.6-2.6,1.3-3.8l4.4-8.2
		c1.1,0.7,1.9,1.4,2.5,2.4l2.5-2.1l-10-5.3l-2.4,2.6c1.6,0,3.1,0.3,4.6,0.9l-4.4,8.2C67.9,179.3,67.2,180.4,66.2,181.3"/>
	<path id="path3089" inkscape:connector-curvature="0" class="st1" d="M84.4,180.3c1.7,1.1,2.4,2.5,2.1,3.9
		c-0.4,1.6-1.6,2.3-3.3,1.9c-0.1,0-0.2,0-0.2-0.1L84.4,180.3z M84.5,180l1.2-4.9c1.7,0.5,2.3,1.5,2,2.9
		C87.4,179.2,86.2,180,84.5,180 M85,172.8l-2.6-0.6c0.2,1.3,0,2.6-0.3,4.1l-1.8,7.2c-0.4,1.4-0.8,2.7-1.6,3.7l4,1
		c3.6,0.9,6.2-0.4,6.8-2.8c0.4-1.5-0.2-2.9-1.7-4.4c1.6-0.7,2.6-1.6,2.9-2.8c0.3-1.2-0.2-2.6-1.4-3.6c-0.8-0.7-2-1-3.4-1.4
		C85.6,172.9,85.3,172.9,85,172.8"/>
	<path id="path3093" inkscape:connector-curvature="0" class="st1" d="M96.3,183.6c0.7-1.8,1.4-3.6,2-5.5c0.4,2,0.8,3.8,1.2,5.6
		L96.3,183.6z M95.4,186.1l4.8,0.2l0.6,2.3c0.1,0.4,0.2,0.8,0.2,1.1c0,0.2-0.1,0.5-0.1,0.7l4.7,0.2c-1-1.1-1.3-2.3-1.7-3.6l-3.7-12
		l-2.8-0.1l-5.5,11.8c-0.5,1-1.2,2.2-2.1,3.4l4.5,0.2c-0.1-0.3-0.1-0.6-0.1-0.9c0-0.3,0.1-0.8,0.4-1.3
		C94.5,188,95.4,186.1,95.4,186.1z"/>
	<path id="path3097" inkscape:connector-curvature="0" class="st1" d="M108.8,189.9l8.2-1.6l0.5-3.7c-1.7,1.1-3.4,1.8-5.3,2.2
		l-1.7-8.9c-0.3-1.4-0.4-2.7-0.1-4.1l-4.4,0.9c0.7,1.1,1.1,2.4,1.4,3.8l1.4,7.3C108.9,187.2,109,188.6,108.8,189.9"/>
	<path id="path3101" inkscape:connector-curvature="0" class="st1" d="M120.3,187.3l7.8-3l-0.2-3.7c-1.5,1.4-3.1,2.4-4.8,3.1
		l-3.3-8.5c-0.5-1.4-0.8-2.6-0.8-4l-4.2,1.6c0.9,1,1.5,2.1,2,3.5l2.7,6.9C120,184.7,120.3,186,120.3,187.3"/>
	<path id="path3105" inkscape:connector-curvature="0" class="st1" d="M139.6,163.2l-2.4-3c-1.2,0.5-2.3,1.1-3.2,1.8
		c-1.7,1.4-2.8,3.2-3.3,5.3c-0.5,2.4,0.1,4.8,1.7,6.8c1.5,1.9,3.5,2.8,5.9,2.8c1.6,0,3.2-0.7,4.6-1.8c1.3-1,2.3-2.3,3-3.7l-1.9-3
		c0,1.8-0.6,3.1-1.9,4.2c-2.3,1.9-5.3,1.5-7.4-1.1c-2.1-2.6-1.9-5.4,0.2-7.1C136.3,163.4,137.8,163,139.6,163.2"/>
	<path id="path3109" inkscape:connector-curvature="0" class="st1" d="M149.6,168.8l5.2-6.5l-2-3.1c-0.6,1.9-1.4,3.6-2.6,5.1
		l-7.1-5.7c-1.1-0.9-2.1-1.9-2.7-3l-2.8,3.5c1.3,0.4,2.4,1.1,3.5,2l5.7,4.7C148,166.7,148.9,167.6,149.6,168.8"/>
	<path id="path3113" inkscape:connector-curvature="0" class="st1" d="M159.8,150.8l1.3,0.7l1.7-3.3c-1.3-0.2-2.6-0.6-3.8-1.3
		l-6.5-3.5c-1.3-0.7-2.4-1.4-3.2-2.5l-2.1,4c1.3,0.2,2.6,0.6,3.8,1.3l6.9,3.7c0.2,1.4,0.1,2.5-0.4,3.4c-0.8,1.6-2.1,1.6-4.3,0.5
		l-4.9-2.6c-1.3-0.7-2.4-1.5-3.2-2.5l-2.1,4c1.3,0.2,2.6,0.6,3.8,1.3l4.5,2.4c1.5,0.8,2.8,1.4,4.5,1.2c1.6-0.2,2.8-1.1,3.5-2.5
		C160,153.9,160.2,152.4,159.8,150.8"/>
	<path id="path3117" inkscape:connector-curvature="0" class="st1" d="M157.5,137.6c1.1-1.7,2.5-2.4,3.9-2.1
		c1.6,0.4,2.3,1.6,1.9,3.3c0,0.1,0,0.2-0.1,0.2L157.5,137.6z M157.2,137.6l-4.9-1.2c0.5-1.7,1.5-2.3,2.9-2
		C156.5,134.7,157.3,135.8,157.2,137.6 M150,137l-0.6,2.6c1.3-0.2,2.6,0,4,0.3l7.2,1.8c1.4,0.4,2.6,0.8,3.7,1.6l1-4
		c0.9-3.6-0.4-6.2-2.8-6.8c-1.5-0.4-2.9,0.2-4.4,1.7c-0.7-1.6-1.6-2.6-2.8-2.9c-1.2-0.3-2.6,0.2-3.6,1.4c-0.7,0.8-1,2-1.4,3.4
		C150.2,136.4,150.1,136.7,150,137"/>
	<path id="path3121" inkscape:connector-curvature="0" class="st1" d="M56.8,84.1c-0.8-1.6-1.7-3.2-2.6-4.8c1.6,0.9,3.2,1.8,4.7,2.6
		L56.8,84.1z M57.9,86.3L61,83l2,1c0.4,0.2,0.7,0.3,0.9,0.5c0.2,0.1,0.3,0.3,0.4,0.6l3-3.2c-1.4,0-2.5-0.5-3.6-1L53,76.1l-1.8,1.9
		l5,11.1c0.4,1,0.8,2.1,1.1,3.6l2.8-3c-0.3-0.1-0.5-0.3-0.7-0.5c-0.2-0.2-0.5-0.6-0.7-1C58.7,88.2,57.9,86.3,57.9,86.3z"/>
	<path id="path3125" inkscape:connector-curvature="0" class="st1" d="M67.7,73.1c1.8-0.5,3.3,0,4,1.1c0.8,1.3,0.5,2.6-0.8,3.5
		c-0.1,0-0.1,0.1-0.2,0.1L67.7,73.1z M67.5,72.9l-2.5-4c1.4-0.8,2.5-0.6,3.2,0.5C68.9,70.4,68.7,71.7,67.5,72.9 M63,67.9l-2.1,1.3
		c1,0.7,1.8,1.7,2.5,2.9l3.7,5.9c0.7,1.2,1.2,2.3,1.5,3.5l3.3-2.1c2.9-1.8,3.7-4.5,2.5-6.4c-0.7-1.2-2.1-1.7-4.1-1.8
		c0.6-1.5,0.6-2.8,0-3.8c-0.6-1-1.9-1.6-3.3-1.4c-1,0.1-2,0.7-3.2,1.4C63.6,67.5,63.3,67.7,63,67.9"/>
	<path id="path3129" inkscape:connector-curvature="0" class="st1" d="M78.6,75.5l7.6-2.6l0.1-3.1c-1,0.9-2.2,1.6-3.8,2.1
		c-0.4,0.1-0.7,0.2-1.1,0.3L80,68.4c0.1,0,0.2-0.1,0.3-0.1c0.9-0.3,1.7-0.4,2.4-0.2l0.6-3l-3.9,1.3l-1.3-3.8
		c1.2-0.4,2.3-0.5,3.2-0.4l0.4-3.1L74,61.9c0.8,0.9,1.4,2,1.8,3.3l2.2,6.5C78.4,73,78.7,74.2,78.6,75.5"/>
	<path id="path3133" inkscape:connector-curvature="0" class="st1" d="M91.7,64.8L91,59.1c1.7,0.1,2.7,0.8,2.9,2.2
		C94.1,62.9,93.3,64.1,91.7,64.8 M91.8,65.1c3.2,4,5.4,5.9,6.2,5.8l2.5-0.3c-2.4-1.9-4.2-3.9-5.5-6c1.6-1,2.3-2.3,2.1-3.8
		c-0.1-1.2-0.9-2.2-2.1-2.9c-1.3-0.8-2.7-0.8-4.5-0.6l-3.1,0.4c0.6,1.1,0.9,2.3,1.1,3.6l0.8,6.8c0.2,1.4,0.2,2.6-0.1,3.8l4.2-0.5
		c-0.6-1.1-0.9-2.3-1.1-3.6C92.1,67.8,91.8,65.1,91.8,65.1z"/>
	<path id="path3137" inkscape:connector-curvature="0" class="st1" d="M101.3,70.7l3.1,0.4c1.7,0.2,3.2,0.1,4.4-0.3
		c2.6-1,4.3-3.1,4.7-5.5c0.4-2.8-0.7-5.3-3-6.9c-1.2-0.9-2.7-1.3-4.5-1.6l-2.7-0.4c0.3,1.2,0.3,2.4,0.1,3.8l-1,6.8
		C102.3,68.5,102,69.7,101.3,70.7 M105.2,69.3l1.4-10.2c2.7,0.8,4.1,3.2,3.8,5.9C110,67.7,108.1,69.3,105.2,69.3"/>
	<path id="path3141" inkscape:connector-curvature="0" class="st1" d="M113.5,72.7l7.6,2.6l2-2.3c-1.3,0.1-2.7-0.1-4.3-0.7
		c-0.4-0.1-0.7-0.3-1.1-0.4l1.3-3.9c0.1,0,0.2,0.1,0.3,0.1c0.9,0.3,1.6,0.7,2,1.3l2.3-2l-3.9-1.3l1.3-3.8c1.2,0.5,2.1,1,2.8,1.6
		l2.2-2.2l-7.7-2.7c0.1,1.2-0.2,2.4-0.6,3.7l-2.2,6.5C114.9,70.6,114.3,71.7,113.5,72.7"/>
	<path id="path3145" inkscape:connector-curvature="0" class="st1" d="M123.8,76.6l6.8,4.2L133,79c-1.3-0.2-2.6-0.7-4.1-1.6
		c-0.3-0.2-0.7-0.4-1-0.7l2.2-3.5c0.1,0.1,0.1,0.1,0.2,0.1c0.8,0.5,1.4,1.1,1.6,1.8l2.7-1.4l-3.5-2.2l2.1-3.4
		c1.1,0.7,1.9,1.4,2.4,2.2l2.6-1.7l-6.9-4.3c-0.2,1.2-0.7,2.3-1.5,3.5l-3.7,5.9C125.5,74.9,124.8,75.9,123.8,76.6"/>
	<path id="path3149" inkscape:connector-curvature="0" class="st1" d="M142,78.8l-1.8,8.6c-0.1,0.7-0.3,1.3-0.6,1.9l2.3,2.4
		c0.6-0.9,1.2-1.7,2.1-2.5l5.4-5.1c1-0.9,2-1.6,3.2-2.1l-2.6-2.8c-0.5,1.1-1.3,2.1-2.3,3l-4.7,4.3l2-9.6c0.2-0.8,0.5-1.5,0.9-2.1
		l-3-3.2l-0.3,3l-6.1,5.7c-1,0.9-2,1.6-3.2,2.1l2.6,2.8c0.5-1.1,1.3-2.1,2.3-3L142,78.8z"/>
	<path id="path3157" inkscape:connector-curvature="0" class="st1" d="M137.5,27.4l4.8,14.7l1.6-1.1l-12.5-9.1l-0.6-0.4l-0.6,0.4
		L117.6,41l1.6,1.1l4.8-14.7l0.2-0.7l-0.6-0.4l-12.5-9.1l-0.6,1.8h3.1c0.1,0-2.5-1.8-2.5-1.8l-0.9,1.8l0.1,0l0.2,0.1h0.2H126h0.7
		l0.2-0.7l4.8-14.7h-1.9l4.8,14.7l0.2,0.7h0.7H151l-0.6-1.8l-12.5,9.1l-0.6,0.4L137.5,27.4z M151,17h-15.5l1,0.7L131.7,3l-1-3l-1,3
		L125,17.7l1-0.7h-15.4l0.3,0l-1,1.8l0.6-1.8h-0.1h-3.1l2.5,1.8l12.5,9.1l-0.4-1.1l-4.8,14.7l-1,3l2.5-1.8l12.5-9.1h-1.2l12.5,9.1
		l2.5,1.8l-1-3l-4.8-14.7l-0.4,1.1l12.5-9.1l2.5-1.8L151,17L151,17z"/>
	<path id="path3161" inkscape:connector-curvature="0" class="st2" d="M101.1,115.9l-4.6,1.6l-3.3-4.2l3-4.4l5.2,1.5L101.1,115.9z"
		/>
	<path id="path3165" inkscape:connector-curvature="0" class="st2" d="M89,116l2.5-3.3l-1.6-3.6l-1.7,0.6c0,0-0.4,1.4-0.5,2.5
		c-0.1,1.1,0,2.1,0,2.1L89,116z"/>
	<path id="path3169" inkscape:connector-curvature="0" class="st2" d="M91.9,105.8l1.1-1.6c0,0,1-0.5,1.9-0.8c1-0.3,2.2-0.4,2.2-0.4
		l1.6,1.3l-2.9,2.8L91.9,105.8z"/>
	<path id="path3173" inkscape:connector-curvature="0" class="st2" d="M101.9,104.8l1.8,0c0,0,1,0.7,1.8,1.6c0.9,1,1.5,2.2,1.5,2.2
		l-0.8,1.5l-4-1.5L101.9,104.8z"/>
	<path id="path3177" inkscape:connector-curvature="0" class="st2" d="M103.2,116.1l3.4-1.6l0.8,2.1c0,0-0.5,1.4-1,2.2
		c-0.5,0.8-1.4,1.7-1.4,1.7h-2L103.2,116.1z"/>
	<path id="path3181" inkscape:connector-curvature="0" class="st2" d="M91.2,119.8l3.4-1l3.1,3.2l-1.7,1.3c0,0-1-0.2-2.5-0.8
		c-1.2-0.5-2.2-1.3-2.2-1.3L91.2,119.8z"/>
	<path id="path3185" inkscape:connector-curvature="0" class="st2" d="M85.6,147v4.9c0,1-0.1,1.9-0.5,2.8h2.9
		c-0.3-0.9-0.5-1.8-0.5-2.8v-8L84,147L85.6,147L85.6,147z"/>
	<path id="path3189" inkscape:connector-curvature="0" class="st2" d="M95.3,145.6c0.9,0,1.6,0.6,1.6,1.5c0,1-0.7,1.7-1.6,1.7
		c-0.9,0-1.5-0.6-1.5-1.6S94.4,145.6,95.3,145.6 M92.4,154.7h3.1c0-0.1,0-0.2,0-0.3c0-0.7,0.5-1.4,1.2-2.5c1.1-1.8,2.1-3.2,2.1-4.8
		c0-1.9-1.3-3.2-3.5-3.2c-2,0-3.4,1.4-3.4,3.4c0,1.8,1.2,3,2.9,3c0.2,0,0.4,0,0.7-0.1l-1.4,2.3C93.7,153.1,93.2,153.8,92.4,154.7"/>
	<path id="path3193" inkscape:connector-curvature="0" class="st2" d="M104.4,152.9c-1.1,0-1.8-1.3-1.8-3.7c0-2.3,0.7-3.5,1.8-3.5
		c1.1,0,1.8,1.2,1.8,3.4C106.1,151.7,105.5,152.9,104.4,152.9 M108.4,149.3c0-2.1-0.7-3.7-1.9-4.6c-0.7-0.5-1.4-0.8-2.1-0.8
		c-1,0-2,0.5-2.7,1.3c-0.9,1-1.4,2.5-1.4,4.2c0,1.6,0.4,2.9,1.2,4c0.7,0.9,1.7,1.4,2.8,1.4c1,0,2-0.5,2.8-1.4
		C108,152.3,108.4,151,108.4,149.3"/>
	<path id="path3197" inkscape:connector-curvature="0" class="st2" d="M114.5,148.4l2.1-4.4h-7v2.4c0.4-0.5,1.6-0.7,3.5-0.7h0.7
		l-1.8,3.7c1.6,0.2,2.4,0.8,2.4,2c0,1.2-0.7,2-1.8,2c-1,0-1.8-0.6-2.1-1.8l-1.2,2.2c0.9,0.7,2,1.1,3.3,1.1c2.4,0,3.9-1.4,3.9-3.4
		C116.6,150,115.9,149,114.5,148.4"/>
	<path id="path3201" inkscape:connector-curvature="0" class="st1" d="M125.7,105.8H118c0.4,1.1,0.6,2.2,0.6,3.4v6.3
		c0,1.2-0.1,2.4-0.6,3.4h3.9c-0.4-1.1-0.6-2.2-0.6-3.4v-2.4c0.2,0,0.3,0,0.5,0c0.9,0,1.7,0.2,2.4,0.6l1.2-2.4h-4.1v-3.5
		c1.3,0,2.4,0.2,3.2,0.6L125.7,105.8z"/>
	<path id="path3205" inkscape:connector-curvature="0" class="st1" d="M137.2,109.5v-3.3c-1.1-0.3-2.1-0.5-3-0.5
		c-1.9,0-3.6,0.6-5,1.8c-1.6,1.3-2.5,3.2-2.5,5.4c0,2.1,0.8,3.8,2.4,5c1.1,0.8,2.4,1.3,4,1.3c1.4,0,2.7-0.3,3.9-0.8l0.4-3
		c-1,1.2-2,1.8-3.5,1.8c-2.6,0-4.3-1.8-4.3-4.7c0-2.8,1.6-4.6,4-4.6C134.9,107.8,136,108.3,137.2,109.5"/>
	<path id="path3025" inkscape:connector-curvature="0" class="st2" d="M89.5,18.2H74.1L69.3,3.5l-4.8,14.7H49.1l-0.1,0l0,0H49
		l12.5,9.1L56.8,42l12.5-9.1L81.8,42L77,27.3L89.5,18.2L89.5,18.2z"/>
	<path id="path3025_1_" inkscape:connector-curvature="0" class="st2" d="M151.3,18.2h-15.5L131,3.5l-4.8,14.7h-15.4l-0.1,0l0,0
		h-0.1l12.5,9.1L118.5,42l12.5-9.1l12.5,9.1l-4.8-14.7L151.3,18.2L151.3,18.2z"/>
</g>
</svg>
