<?xml version="1.0" encoding="utf-8"?>
<!-- Generator: Adobe Illustrator 21.1.0, SVG Export Plug-In . SVG Version: 6.00 Build 0)  -->
<svg version="1.1" id="Layer_1" xmlns="http://www.w3.org/2000/svg" xmlns:xlink="http://www.w3.org/1999/xlink" x="0px" y="0px"
	 viewBox="0 0 200 200" style="enable-background:new 0 0 200 200;" xml:space="preserve">
<style type="text/css">
	.st0{fill:#FFFFFF;}
	.st1{fill:#FB090B;}
	.st2{fill:none;}
</style>
<g>
	<path class="st0" d="M100,194.9c30.9,0,56.7-42.5,56.7-94.9S130.9,5.1,100,5.1S43.3,47.6,43.3,100S69.1,194.9,100,194.9z"/>
	<path d="M100,200c-34.1,0-61.9-44.9-61.9-100S65.9,0,100,0c34.1,0,61.9,44.9,61.9,100S134.1,200,100,200z M100,10.3
		c-28,0-51.6,41.1-51.6,89.7S72,189.7,100,189.7s51.6-41.1,51.6-89.7S128,10.3,100,10.3z"/>
	<path class="st1" d="M99.8,196.4c-32.3,0-58.6-43.4-58.6-96.7C41.3,46.4,67.5,3,99.8,3c32.3,0,58.6,43.4,58.6,96.7
		C158.4,153,132.1,196.4,99.8,196.4z M99.8,6.7c-14.3,0-28,9.6-38.4,26.9C50.8,51.3,44.9,74.8,44.9,99.7c0,24.9,5.9,48.4,16.5,66.1
		c10.4,17.3,24.1,26.9,38.4,26.9c14.3,0,28-9.6,38.4-26.9c10.6-17.7,16.5-41.2,16.5-66.1s-5.9-48.4-16.5-66.1
		C127.8,16.2,114.1,6.7,99.8,6.7z"/>
	<path class="st1" d="M80.7,52.4c-3.4,1.4-6.5,3.1-9.5,5.1V142c3,2,6.1,3.7,9.5,5.1V52.4z"/>
	<path class="st1" d="M61.7,65.8c-4,4.5-7.3,9.8-9.5,15.6V118c2.2,5.8,5.5,11,9.5,15.6V65.8z"/>
	<rect x="116.3" y="49.3" width="3.7" height="101"/>
	<rect x="129.5" y="56.3" width="3.7" height="87.1"/>
	<rect x="99.8" y="104.1" width="53.4" height="3.7"/>
	<rect x="99.8" y="91.3" width="53.4" height="3.7"/>
	<path class="st2" d="M61.7,65.8c-4.1,4.6-7.3,9.9-9.6,15.7V118c2.2,5.8,5.5,11.1,9.6,15.7V65.8z"/>
	<path class="st2" d="M80.8,52.4c-3.4,1.4-6.6,3.1-9.6,5.1V142c3,2,6.2,3.7,9.6,5.1V52.4z"/>
	<path class="st2" d="M90.3,149.9c3.1,0.6,6.3,0.9,9.5,0.9V48.7c-3.3,0-6.4,0.3-9.5,0.9V149.9z"/>
	<path class="st2" d="M103.5,48.8v101.8c26.4-1.9,47.4-24,47.4-50.9S129.9,50.7,103.5,48.8z"/>
	<path d="M99.8,45c-30.2,0-54.7,24.5-54.7,54.7s24.5,54.7,54.7,54.7s54.7-24.5,54.7-54.7S130,45,99.8,45z M71.2,57.5
		c3-2,6.2-3.7,9.6-5.1v94.7c-3.4-1.4-6.6-3.1-9.6-5.1V57.5z M52.2,118V81.5c2.2-5.8,5.5-11.1,9.6-15.7v67.8
		C57.6,129.1,54.4,123.8,52.2,118z M99.8,150.8c-3.3,0-6.4-0.3-9.5-0.9V49.6c3.1-0.6,6.3-0.9,9.5-0.9V150.8z M103.5,150.6V48.8
		c26.4,1.9,47.4,24,47.4,50.9S129.9,148.7,103.5,150.6z"/>
	<path class="st1" d="M150.6,94.9h-21.1V58.2c-3-2.1-6.1-3.9-9.5-5.4v42.1h-16.5v9.5H120v42.1c3.4-1.5,6.6-3.3,9.5-5.4v-36.8h21.1
		c0.1-1.6,0.2-3.1,0.2-4.7C150.9,98.1,150.8,96.5,150.6,94.9z"/>
	<path class="st1" d="M99.8,94.9V48.7c-3.2,0-6.4,0.3-9.5,0.9v100.3c3.1,0.6,6.3,0.9,9.5,0.9v-46.3h0L99.8,94.9L99.8,94.9z"/>
	<path d="M73.2,155.4l0.5,0.2c3.3,1.2,4.7,0,5.2-1.2l2.8,1L76,171.1l-3.4-1.2l3.9-10.8l-4.1-1.5L73.2,155.4z"/>
	<path d="M89.3,164c-1.5-0.2-2.2-1.4-2-2.4c0.2-1.2,1.2-1.9,2.8-1.7c1.1,0.2,2,1.1,1.8,2.4C91.6,163.5,90.7,164.2,89.3,164z
		 M94.8,169.9c0.3-2.1-0.5-3.3-2.1-4.4c1.6-0.5,2.4-1.6,2.6-3c0.3-2.3-1.3-4.6-5.1-5.2c-3.2-0.5-5.9,0.8-6.3,3.6
		c-0.2,1.5,0.4,2.7,1.7,3.6c-2.9,0.7-3.3,2.9-3.4,3.8c-0.3,2.3,0.8,5.3,5.5,6C92.5,175,94.5,171.9,94.8,169.9z M91.1,169.4
		c-0.2,1.1-1.1,2.5-3,2.2c-1.6-0.2-2.5-1.4-2.2-3c0.3-1.8,1.6-2.4,2.9-2.2C90.8,166.8,91.3,168.3,91.1,169.4z"/>
	<path d="M101.7,163.5c-0.2-2.4,1.4-2.9,2.4-3c1.9-0.2,2.8,0.9,3,2.8c0.2,2-1.2,2.9-2.4,3C103.3,166.4,101.9,166,101.7,163.5z
		 M99,171.1c0.5,2.6,2.9,4.1,6,3.8c3.3-0.3,6.5-2.6,5.9-9.1c-0.2-2.3-0.8-8.5-7.1-8c-3.6,0.3-6.1,2.4-5.7,6.5c0.2,2.8,2.5,5,6,4.7
		c1.2-0.1,2.6-0.5,3.4-1.7l0.1,0c0.3,3.5-1.1,4.8-2.6,4.9c-1.1,0.1-1.9-0.3-2.2-1.5l0,0L99,171.1z"/>
	<path d="M117.1,161c-0.8-2.3,0.7-3.2,1.6-3.5c1.8-0.6,3,0.2,3.6,2c0.6,1.9-0.4,3.1-1.6,3.5C119.3,163.5,117.9,163.4,117.1,161z
		 M116.3,169c1.1,2.4,3.8,3.2,6.8,2.2c3.1-1.1,5.6-4.1,3.5-10.2c-0.8-2.2-2.9-8.1-8.9-6c-3.4,1.2-5.3,3.8-4,7.7
		c0.9,2.6,3.6,4.3,6.9,3.1c1.2-0.4,2.4-1.1,2.8-2.5l0.1,0c1.1,3.3,0.1,4.9-1.4,5.4c-1.1,0.4-2,0.2-2.5-0.9l0,0L116.3,169z"/>
	<path d="M100.7,20.4c-5.1,0.1-9.6,4.1-9.5,9c0.1,4.8,4.7,8.7,9.8,8.6c2.5,0,4.9-0.9,6.6-2.5l2.6,2.4c-2.3,2.1-5.6,3.5-9.1,3.5
		c-7.3,0.1-13.4-5.2-13.5-11.9c-0.1-6.7,5.7-12.3,13.2-12.4c3.6-0.1,6.8,1.1,9.1,3.2l-2.5,2.4C105.6,21.1,103.3,20.3,100.7,20.4z"/>
	<polygon points="115.9,21.3 110.1,41.7 113,42.4 116.7,30.7 119.6,44.6 121,44.6 124.7,35.9 129.2,49.1 133.4,52.1 126.9,29.3 
		124.2,27.8 121.4,35.5 118.8,22.7 	"/>
	<path d="M89.3,41.8l-5.7-20.5l-4.9,2.8l-14,28.6l5.7-3.7l3.7-7.4l10.1-3.8l1.5,4.9L89.3,41.8z M75.8,37.2l5.5-11.1l1.9,8.2
		L75.8,37.2z"/>
</g>
</svg>
