<?xml version="1.0" encoding="utf-8"?>
<!-- Generator: Adobe Illustrator 21.1.0, SVG Export Plug-In . SVG Version: 6.00 Build 0)  -->
<svg version="1.1" id="Ñëîé_1" xmlns="http://www.w3.org/2000/svg" xmlns:xlink="http://www.w3.org/1999/xlink" x="0px" y="0px"
	 viewBox="0 0 200 200" style="enable-background:new 0 0 200 200;" xml:space="preserve">
<style type="text/css">
	.st0{fill:url(#SVGID_1_);}
	.st1{fill:url(#SVGID_2_);}
	.st2{fill:url(#SVGID_3_);}
	.st3{fill:url(#SVGID_4_);}
	.st4{fill:url(#SVGID_5_);}
</style>
<g>
	
		<linearGradient id="SVGID_1_" gradientUnits="userSpaceOnUse" x1="78.1778" y1="134.3339" x2="158.634" y2="40.4684" gradientTransform="matrix(1 0 0 -1 0 200.1)">
		<stop  offset="0" style="stop-color:#760022"/>
		<stop  offset="0.1991" style="stop-color:#58001C"/>
		<stop  offset="0.4179" style="stop-color:#3E0014"/>
		<stop  offset="0.6291" style="stop-color:#2C000B"/>
		<stop  offset="0.8276" style="stop-color:#200003"/>
		<stop  offset="1" style="stop-color:#1C0000"/>
	</linearGradient>
	<path class="st0" d="M100,24c-36.5-0.3-61,23.4-65.6,28.1L34,52.6L33.9,53c-1.7,9.7-2.3,33.5,5.6,61c4.5,15.7,11.2,30.4,19.9,43.6
		c10.4,15.9,23.8,29.9,39.7,41.4l0.8,0.6l0.8-0.6c15.9-11.6,29.2-25.5,39.7-41.4c8.7-13.3,15.4-27.9,19.9-43.6
		c8-27.5,7.3-51.3,5.6-61l-0.1-0.4l-0.4-0.4C161,47.4,136.5,23.8,100,24z"/>
	
		<linearGradient id="SVGID_2_" gradientUnits="userSpaceOnUse" x1="47.9629" y1="157.4772" x2="152.0226" y2="53.4174" gradientTransform="matrix(1 0 0 -1 0 200.1)">
		<stop  offset="0" style="stop-color:#FFFFFF"/>
		<stop  offset="0.2671" style="stop-color:#F8F7F8"/>
		<stop  offset="0.5664" style="stop-color:#E9E9EC"/>
		<stop  offset="0.8801" style="stop-color:#D4D5DB"/>
		<stop  offset="1" style="stop-color:#CACCD3"/>
	</linearGradient>
	<path class="st1" d="M163.3,53.9c0.5,3.3,1,8.2,1,14.3c0,11.6-1.5,27.5-6.6,45.1c-4.4,15.4-11,29.8-19.6,42.8
		c-10,15.3-22.9,28.8-38.1,40c-15.2-11.2-28.1-24.7-38.1-40c-8.5-13.1-15.1-27.5-19.6-42.9c-5.1-17.5-6.6-33.5-6.6-45.1
		c0-6.1,0.4-10.9,1-14.3c4.8-5,28.4-27.3,63.3-27C134.9,26.6,158.4,48.9,163.3,53.9z M100,31L100,31c-31.5-0.2-53.4,18.9-59.4,24.8
		c0,0-0.1,0.1-0.1,0.1c0,0.1,0,0.1,0,0.1c-0.3,2.4-0.7,6.4-0.7,12c0,10,1.1,25.8,6.4,44.1c4.4,15,10.7,29,19,41.7
		c9.1,13.9,20.7,26.4,34.4,36.9c0,0,0.1,0.1,0.2,0.2c0.1-0.1,0.2-0.2,0.2-0.2c13.7-10.6,25.3-23,34.4-36.9
		c8.3-12.7,14.7-26.7,19-41.7c5.3-18.3,6.4-34.1,6.4-44.1c0-5.7-0.3-9.7-0.7-12c0,0,0-0.1,0-0.1s-0.1-0.1-0.1-0.1
		C153.4,49.9,131.4,30.8,100,31L100,31L100,31z M100.1,34.4L100.1,34.4c29.1-0.2,49.9,17.1,56.1,23c0.3,2.2,0.5,5.8,0.5,10.6
		c0,9.8-1.1,25.3-6.3,43.2c-4.2,14.7-10.5,28.4-18.6,40.8c-8.5,12.9-19.2,24.6-31.8,34.6c-12.6-10-23.4-21.7-31.8-34.6
		c-8.1-12.4-14.4-26.1-18.6-40.8c-5.1-17.9-6.2-33.3-6.2-43.2c0-4.8,0.3-8.3,0.5-10.6c6.3-5.9,27.1-23.3,56.1-23L100.1,34.4
		L100.1,34.4z M100,59.6c16.4-0.1,29.5,8.3,35.7,13.3l6.3,5.2l13.5-18.5l-5.4-4.4c-8.6-7-26.5-18.6-50.1-18.5l0,0
		c-23.6-0.2-41.6,11.5-50.1,18.5l-5.4,4.4L58,78.1l6.3-5.2C70.5,67.9,83.6,59.4,100,59.6z M91.6,72.5c0,0.2-0.1,0.3-0.1,0.5
		c-0.3,0.9-0.8,1.6-1,2.4c-0.1,0.2,0,0.8,0,1c-0.2,1.7-1.2,3.3-0.8,5c0.3,1.2,1.1,2,1.4,3.3c0.3,1.6-0.2,3.2,0,4.8
		c0.3,2.2,0.9,4.1,1,6.4c0.3,4.2-0.4,8-0.9,12.2c-0.5,4-1.9,7.5-4.1,10.8c-1.3,2-3.4,3.9-4.2,6.2c-0.6,1.6,0.5,4.8-0.4,6
		c-0.1,0.2-0.8,0.6-1,0.8c-0.4,0.3-0.8,0.3-1,0.7c-0.2,0.3-0.3,0.8-0.5,1.2s-0.3,0.6-0.4,1.1c-0.3,1.3,0,2.7-0.1,4.1
		c0,1.3-0.6,2.4-0.7,3.7c0,0.6,0,0.7-0.4,1.2c-0.1,0.2-0.2,0.3-0.4,0.4c-0.4,0.2-0.5,0.1-0.8,0.4c-0.2,0.2,0,0.6-0.3,0.8
		c-0.4,0.3-1.1-0.1-1.5,0.1c-0.4,0.2-0.2,0.4-0.5,0.6c-0.4,0.3-0.9,0-1.1,0.6c2.6,0.4,4.5-0.4,5.8-2.7c0.7-1.1,0.5-2.2,0.9-3.4
		c0.3-0.8,1-1.2,1.3-2.1c0.1,0,0.4,0,0.5,0c0.3,1.6,0.3,2.6-0.6,4c-0.8,1.2-1.4,2.3-2.4,3.4c-1,1.1-1.8,2.1-3.4,2
		c-1-0.1-1.8-0.4-2.4,0.6c0.3,0,1,0.1,1.2,0.3c0.7,0.9-1.6,0.9-1.8,1.3c0.8,0.2,1.5,0.1,2.2-0.2c0.6-0.2,1.4-0.4,2-0.1
		c-0.5,0.5-1.3,0.6-1.9,1c0.6,0.4,1.3,0,1.8-0.3c1-0.6,2.3,0.3,3.4-0.2c0.9-0.4,1.4-1.4,1.9-2.1c1-1.4,1.7-2.7,2.4-4.3
		c0.4,0.7,0.2,1.5,0,2.2c-0.6,1.7-1.8,3.4-3,4.7c-0.5,0.5-1.1,1.2-1.7,1.5c-0.6,0.3-1.3,0.1-1.6,0.7c0.4,0.1,0.9-0.2,1.2,0.2
		c-0.3,0.6-1,0.8-1.7,0.9c-0.1,0-1.8,0.3-1.6,0.6c0.5,0.5,1.2-0.2,1.6,0.4c-0.6,0.7-1.5,0.4-2.3,0.8c0.8,0.3,1.4,0.2,2.2,0
		c0.4-0.1,1.2-0.4,1.2,0.3c-0.4,0.1-2,0.2-2,0.8c-0.1,0.7,1.7,0,2.1-0.1c0.6-0.1,2.9-1.4,3.3-0.9c0.7,1-2,1.5-2.6,1.6
		c0.7,1,2.1-0.3,2.8-0.7c1.1-0.8,2.6,0.4,3.6-0.5c1-0.9,2.1-2.2,2.9-3.3c1.1-1.4,1.3-3.2,1.3-4.9c0-1-0.2-1.9-0.2-2.8
		c0-0.7,0.6-2.3,1.2-0.9c0.3,0.6,0.4,1.8,0.5,2.6c0.1,1.2-0.6,2.5-0.3,3.8c0.5,1.8,2.1,2.8,3.3,4.1c0.5,0.5,0.6,1,1,1.6
		c0.8,1.4,1.4,2.7,1.8,4.2c0.1,0.4,0.4,0.8,0.6,1.2c0.2,0.5,0.1,1,0.4,1.5c0.2,0.4,0.6,0.5,0.9,0.8c0.2,0.2,0.4,0.6,0.7,0.8
		c0.3,0.2,0.7,0.1,1,0.2c0.1,0.1,0.3,0.4,0.5,0.4c0.1,0,3.4,0,3.4,0l0.2-0.2c0-1.7-1.2-1.9-2.1-3.1c-0.9-1.2-1.4-2.6-2-3.9
		c-0.8-1.8-2.6-3-3.5-4.7c-0.5-1-0.5-2-0.6-3c-0.2-1.3-0.5-2.6-0.6-3.9c-0.1-2,0.3-3.8,0.3-5.8c0-1.1,0-1.8,0.4-2.8
		c0.3-0.9,0.7-1.7,0.8-2.7c0.1-0.9-0.3-1.7-0.3-2.6c0-0.7,0-1.5,0.8-1.6c1.6-0.3,1.9,0.9,3.2,1.4c1.2,0.4,2.5-0.1,3.7,0.6
		c0.9,0.6,1.6,1.6,2.3,2.5c0.3,0.5,0.6,1,0.9,1.4c0.5,0.7,1.4,0.9,1.3,1.9c0,0.5-0.1,0.9-0.2,1.5c0,0-0.1,0.9-0.1,0.9
		c0,0.8-0.1,1.3,0.7,1.7c0.5,0.3,1.3,0.4,1.9,0.3c0.6-0.1,0.7-0.5,1.2-0.7c0.8-0.3,2-0.1,2.8-0.1c0.8-0.1,1.8,0,2.6-0.3
		c0.8-0.3,1.2-0.4,2.2-0.3c0.7,0,1.4,0.1,2.1,0.3c1,0.2,1.1,0.6,1.8,1.2c0.1,0.1,1.1,0.7,1.1,0.6c0,0.1,0,1.9,0,1.9l0.3,0.2l0.1,0.5
		l0.5,0.2c0.9,1.2,3.3-0.2,4.4-0.8c0.1-0.1,2.1-1.3,2-1.4c-0.6-1-1.2-1.1-2.2-1.4c-1.4-0.5-2.4-1.6-3.3-2.8c-1.1-1.6-2.1-2.1-4-2.1
		l-0.5,0.2c-1.4,0.5-3,0.5-4.5,0.4c-1.4-0.1-3.2-0.5-4-1.6c-1.2-1.8-2.2-5.1-1.8-7.3c0-0.2,0.2-0.3,0.3-0.5c0.3-0.6,0.1-1.5,0-2.2
		c0-0.3,0-0.5-0.1-0.8c-0.1-0.3-0.4-0.4-0.6-0.7c-0.2-0.2-0.3-0.4-0.5-0.7l-0.6-0.7c-0.3-0.6-1.7-2.6-0.5-3c0.6-0.2,1.6,0.8,1.9,1.2
		c0.3,0.4,0.6,0.7,1.1,0.9c0.3,0.2,0.4,0.3,0.6,0.6c0.2,0.4,0.6,0.7,1.1,0.6c1-0.3,0.7-1.5,0.6-2.3c-0.1-1.2,0.2-2.2,0.3-3.3
		c0.1-1.5-0.3-1.2-0.3-2.8c0-0.4,0.1-2.8,0.1-3.2c-0.1-0.4-0.5-0.8-0.3-1.3c0.1-0.4,0.5-0.6,0.6-0.9c0.1-0.3,0-0.6,0-0.9
		c0-0.6-0.2-1.4,0.4-1.7c0.5-0.3,1.3-0.3,1.8-0.5c1.1-0.4,2.1-1.1,3-1.8c1.4-1.1,2.1-2.6,3.3-3.9c0.4-0.5,1.8-1.5,2.1-0.3
		c0.2,0.7-0.1,1.5,0,2.2c0,0.6,0.1,1.2-0.2,1.7c-0.3,0.5-0.8,0.9-1,1.4c0,0.1-0.2,1.5-0.2,1.5c-0.1,0-1.2,0-1.2,0.2
		c-0.1,0.5-0.3,0.7-0.6,1l0.1,2.2l0.1,0.6l0.4,1.1l0.4,0.8l0.4,0.6c1,0.9,1.8,0,2.2-1.1c0.2-0.7,0.3-1.5,0.5-2.1
		c0.1-0.5,0.2-1.2,0.6-1.6c0.4-0.6,0.9-0.7,1.1-1.5c0.3-1.1,0.1-2.5-0.2-3.5c-0.3-1.1-0.2-2.4,0-3.5c0.1-0.7,0.2-1.2,0.3-1.9
		c0.3-1.1,0.6-2.5-0.1-3.5c-0.5-0.7-1.2-1.3-2.1-1.3s-1.5,0.4-2.1,0.9c-0.7,0.6-1.4,1-2.1,1.5c-0.3,0.2-0.7,0.3-1,0.5
		c-0.5,0.2-0.8,0.4-1.3,0.5c-0.7,0.2-1.5,1.2-2.2,0.6c-0.6-0.4-0.7-1.2-1.2-1.7c-1.5-1.6-2.1-3.8-3.9-5.1c-1.5-1.1-3.4-1.4-4.8-2.8
		c-2.1-2-2.6-5.2-4.3-7.5c-0.3-0.4-0.7-0.9-0.5-1.5c0.2-0.6,0.8-0.9,1.2-1.2c0.6-0.4,0.6-0.3,1-1c0.5-1,1.6-1.5,2.5-2
		c0.2-0.1,0.4-0.2,0.5-0.4c0.3-0.4,0.1-0.8,0.8-0.5c0.3,0.1,0.5,0.3,0.8,0.4c0.4,0.2,1.1,0.2,1.6,0.2c0.4,0,1.2-0.3,1.5-0.6
		c0.2-0.4,0.1-1.1-0.1-1.5c-0.1-0.2-0.3-0.4-0.4-0.6c-0.1-0.4,0.2-0.6,0.3-0.9c0.1-0.2,0.1-0.6,0.1-0.8l-0.1-1.5
		c-0.1-0.5-0.1-1.2-0.5-1.6c-0.3-0.3-0.8-0.4-1.2-0.6c-0.4-0.1-0.8-0.2-1.1-0.4c-0.5-0.3-0.8-0.4-1.4-0.3c-0.4,0.1-0.4,0.6-1,0.5
		c-0.5-0.1-0.5-0.4-0.8-0.7c-0.2-0.2-0.6-0.1-0.9,0c-0.5,0.1-1,0.3-1.5,0.4c-1.2,0.2-2.4,0.2-3.5,0.1c-1.1-0.1-2.3-0.4-3.3,0
		c-0.6,0.3-1.1,1.5-1.8,0.7c-0.3-0.4-0.4-0.6-0.9-0.7c-0.3-0.1-0.9-0.2-1.2,0c-0.1,0.1-0.2,0.3-0.3,0.5c-0.1,0.1-0.2,0.2-0.4,0.3
		c-0.4,0.2-0.6,0.5-1,0.8c-0.4,0.3-1,0.5-1.5,0.6c-0.5,0.1-1,0.1-1.4,0.3c-0.5,0.3-0.5,0.9-0.2,1.4c0.3,0.5,0.9,0.8,1.5,0.9
		C91,72.3,91.4,72.3,91.6,72.5C91.5,72.2,91.6,72.3,91.6,72.5z M132.9,51l-0.7,15.4c0,0.2,0.1,0.4,0.3,0.5l2.5,1.7
		c0.1,0.1,0.3,0,0.3-0.1l0.9-19.4c0-0.2-0.1-0.4-0.3-0.5l-3.1-1.5c-0.1-0.1-0.4,0-0.5,0.1L119.6,60c-0.1,0.1-0.1,0.3,0.1,0.3l2.6,1
		c0.2,0.1,0.4,0,0.5-0.1L132.9,51z M96.5,49.1h6.8c0.2,0,0.3-0.1,0.3-0.3v-1.9c0-0.2-0.1-0.3-0.3-0.3h-6.8v-4.7h8.9
		c0.2,0,0.3-0.1,0.3-0.3v-1.9c0-0.2-0.1-0.3-0.3-0.3H93.7c-0.2,0-0.3,0.1-0.3,0.3v17.4c0,0.2,0.1,0.3,0.3,0.3h12.9
		c0.2,0,0.3-0.1,0.3-0.3V55c0-0.2-0.1-0.3-0.3-0.3h-10L96.5,49.1z M67.4,58.2L67.1,51l4.7,4.7L67.4,58.2z M73.7,57.7l3.6,3.6
		c0.1,0.1,0.3,0.2,0.5,0.1l2.6-1c0.2-0.1,0.2-0.2,0.1-0.3L67.8,47.2c-0.1-0.1-0.3-0.2-0.5-0.1l-3.1,1.5c-0.1,0.1-0.3,0.3-0.3,0.5
		l0.9,19.4c0,0.2,0.1,0.2,0.3,0.1l2.5-1.7c0.1-0.1,0.3-0.3,0.3-0.5L67.6,61L73.7,57.7z M102,164.4c0,0,0.1,0.1,0.1,0.1
		c0.3,0.1,0.7,0.1,1,0.2c0.4,0.1,1-0.1,0.5-0.6c-0.2-0.2-0.2-0.2-0.6-0.1c-0.3,0-0.5,0-0.8,0.1C102.1,164,101.8,164.2,102,164.4z
		 M99,162.9C99.1,162.9,99.1,163,99,162.9c0.3,0.1,0.5,0.1,0.8,0.1c0.3,0.1,0.3,0.1,0.6,0.3c0.5,0.3,1,0.2,1.5,0
		c0.5-0.2,0.4-0.6,0.2-1c-0.1-0.2-0.1-0.3-0.3-0.3c-0.3-0.1-0.6-0.1-1-0.1c-0.5,0-1,0.1-1.5,0.1C98.9,162.1,98.6,162.6,99,162.9z
		 M97.1,159.3c0.1,0.1,0.3,0.2,0.5,0.2c0.7,0,0.7-0.9,0.3-1.2c-0.2-0.2-0.6-1.1-1-0.5c-0.1,0.2,0,0.5,0,0.7c0,0.2-0.1,0.4,0.1,0.6
		C96.9,159.2,97,159.3,97.1,159.3z M84.7,155.3c0.3,0.2,0.8-0.1,1-0.3c0.2-0.3,0.2-0.7,0.5-1c0.2-0.2,0.6-0.2,0.8-0.4
		c0.3-0.3,0.7-0.8,0.8-1.2c0.1-0.4,0.1-0.8,0.3-1.2c0.1-0.3,0.4-0.3,0.5-0.7c0.1-0.3,0.6-2.4-0.1-1.7c-0.1,0.2-0.2,0.4-0.3,0.6
		c-0.3,0.6-0.5,1.9-1.3,1.9c0-0.3,0.1-0.4,0.2-0.7c0.1-0.3,0.3-0.6,0.5-0.9c0.4-0.8,0.8-1.3,0.7-2.2c0-0.2-0.1-1.6-0.6-0.8
		c-0.3,0.4-0.4,1.3-0.5,1.8c-0.2,0.7-0.4,1.4-0.9,1.9c-0.6,0.7-1.1,1.4-1.3,2.3c-0.1,0.4-0.5,2.1-0.3,2.4
		C84.6,155.2,84.6,155.2,84.7,155.3z M82.2,151.9c-0.3,0.4,0.2,1.4,0.6,1.5c0.8,0.4,1.2-1,1.5-1.5c0.2-0.4,0.2-0.8,0.3-1.2
		c0.1-0.4,0.3-0.5,0.6-0.8c0.3-0.4,0.2-1,0.5-1.3c0.7-1,1.7-2.6,1.8-3.8c0-0.2,0-0.8-0.3-0.9c-0.4-0.2-0.3,0.5-0.4,0.7
		c-0.6,1.5-1.3,2.9-2.1,4.3c-0.3,0.6-0.5,0.8-0.8,1.5C83.6,151.2,82.6,151.2,82.2,151.9z M80.4,147.6c0.8-0.4,1.4-1.4,1.8-2.2
		c0.5-1,1.9-2.8,1.9-3.9c0.1-2.5-1.3,1-1.6,1.5C81.9,144.2,79.7,146.1,80.4,147.6C80.4,147.6,80.4,147.6,80.4,147.6z M126.2,144.4
		c-0.2,0.1-0.3,0.3-0.2,0.7c0.3,1.1,2,0.4,2.5-0.1c0.3-0.3,0.3-0.3,0.7-0.5c0.5-0.2,0.9-0.2,0.7-0.8c-0.1-0.3-1-0.4-1.3-0.5
		c-0.6-0.1-0.8-0.1-1.2,0.2c0,0,0.1,0.3,0,0.4c-0.1,0.2-0.1,0.1-0.3,0.2C126.9,144.2,126.4,144.2,126.2,144.4z M121.9,140.1
		c0.5-0.1,0.7-0.7,1.3-0.5c0.4,0.1,0.6,0.4,0.9,0.6c0.4,0.2,0.8,0.1,1.1,0.5c0.8,0.8,1.1,1.6,2.3,1.6c0.2-0.4-0.7-1.2-1-1.5
		c-0.8-0.7-1.6-1.7-2.7-1.9c-0.8-0.1-2-0.1-2.6,0.3c-0.2,0.1-0.3,0.3-0.3,0.4C121,140,121.5,140.2,121.9,140.1z M109.9,142
		c0.4,0.3,1.2,0.4,1.4-0.2c0.1-0.6-0.3-1.8-1-1.7c-0.6,0.1-0.9,1.1-0.7,1.6C109.7,141.8,109.8,141.9,109.9,142z M112.8,120.4
		c-0.2-0.5-0.4-1-1-0.9c-0.4,0.1-0.8,0.5-0.5,0.9c0.2,0.2,0.8,0.2,1.1,0.2C112.6,120.6,112.8,120.6,112.8,120.4z M113.4,122.2
		c0.1,0.2,0.1,0.4,0.1,0.4c0.4,0.4,1.1-0.2,0.8-0.7C114.2,121.6,113.3,121.6,113.4,122.2z M110,109.7c-1,1.3,1.4,1.4,0.8,0.2
		C110.5,109.4,110.2,109.4,110,109.7z M110.5,108.6c0.1,0.3,0.3,0.6,0.5,0.8c0.8,0.8,0.8,1.5,0.9,2.5c0.1,0.6,0.3,0.9,0.2,1.5
		c0,0.3,0.1,0.6,0.1,0.8c-0.1,0.3-0.4,0.4-0.3,0.7c0.4,1.5,1.9,0,2.1-0.7c0.4-1.1-0.8-2.1-1.1-3c-0.2-0.7-0.3-1.4-0.7-2
		C112,108.8,110.8,107.9,110.5,108.6z M124.3,111.7c0,0,0.8-0.8,0.9-0.9c0.4-0.7-0.6-1.5-1.2-1c-0.2,0.1-0.1,0.3-0.1,0.6
		C123.7,110.8,123.8,111.5,124.3,111.7z M125,99.7c0.3,0.3,0.6,0.1,1,0.2c0.6,0,0.4,0.5,0.9,0.7c0.3,0.1,0.8,0.2,1-0.1
		c0.2-0.3,0.2-1,0-1.3c-0.4-0.8-0.6-0.7,0-1.4c0.6-0.7-1.1-1.9-1.8-1.9c-0.8,0.1-1.7,0.7-2.2,1.2c-0.3,0.3-0.5,0.7-0.9,0.9
		c-0.6,0.3-1.2,0.1-1.7,0.3c-0.5,0.2-1.1,0.3-1.6,0.6c-0.3,0.2-0.6,0.5-0.9,0.8c-0.6,0.5-0.4,1.1-0.3,1.7c0.1,0.3,0.1,0.5,0.4,0.6
		c0.9,0.3,1.3-0.7,1.7-1.4c0.1-0.3,0.7-0.9,0.9-0.4c0.3,0.5-0.8,1.4-1,1.8c-0.1,0.3-0.3,0.8-0.1,1c0.1,0.2,0.6,0.3,0.8,0.3
		c0.4-0.1,0.5-0.3,0.5-0.7c0-0.6,0.5-0.4,0.8-0.8c0.4-0.3,0.1-1,0.1-1.5c0.1-0.6,0.6-0.8,1.1-1.1c0.6-0.4,0.8-0.9,1.3-1.4
		c0.5-0.4,1.7-0.3,1,0.5c-0.1,0.2-0.6,0.2-0.8,0.3C125,98.9,124.7,99.3,125,99.7L125,99.7z M112.9,96.3c-0.1,0.4-0.1,1.1,0.2,1.4
		c0.4,0.5,1.5,0.1,2.1,0.3c0.3,0.1,0.8,0.1,1,0.4c0.3,0.3,0.1,0.9,0.1,1.3c0.2,1.1,1.5-0.2,1-1.1c-0.6-0.9-1.7-1.2-2.4-1.9
		c-0.4-0.4-0.7-1.2-1.3-1C113.1,95.8,112.9,96,112.9,96.3z M109.5,106.9c0.2-0.2,0.2-0.9,0.1-1.2c0-0.3-0.3-0.5-0.4-0.8
		c-0.1-0.2-0.1-0.5-0.1-0.7c-0.2-0.4-0.7-0.5-1.2-0.5c-1.1,0.1-1.2,1.4-0.8,2.1c0.2,0.4,0.6,0.6,1,0.8c0.3,0.1,0.9,0.4,1.2,0.3
		C109.5,107,109.5,106.9,109.5,106.9z M90.7,70.4c-0.2,0.1-0.4,0.4-0.2,0.6c0.3,0.3,1,0.2,1.4,0.2c0.6-0.1,1.4-0.3,1.9-0.6
		c-0.3-0.5-1.3-0.3-1.8-0.3c-0.3,0-0.6-0.1-1,0C90.9,70.3,90.8,70.3,90.7,70.4z M104,78.2c0.1-0.7-0.8-1-1.2-0.6
		c-0.2,0.2-0.3,0.8-0.1,1c0.2,0.2,0.6,0.1,0.8,0C103.8,78.6,104,78.4,104,78.2z M103.1,69.6c0.3-0.3,0.2-0.4,0.7-0.4
		c0.1,0,0.8,0.1,0.8,0c0-0.4,0.4-1.1,0-1.4c-0.3-0.2-1.3-0.1-1.7-0.2c-0.2,0-2.3-0.1-2.3-0.1c-0.1,0.3-0.1,0.6-0.3,0.8
		c-0.2,0.3-0.5,0.5-0.8,0.5c-0.3,0-0.6-0.1-0.8-0.3c-0.4-0.4-0.6-0.9-1.2-0.6c-0.4,0.1-0.9,0.5-1.1,0.9c-0.2,0.5-0.7,1.4,0.1,1.7
		c0.3,0.1,0.6,0,0.9-0.1c0.4-0.1,0.9-0.1,1.3-0.1c0.6,0,1.1,0,1.7-0.1c0.4,0,0.8-0.1,1.2-0.2C101.9,69.9,102.8,69.9,103.1,69.6z
		 M94.8,71.9c0.3,0.1,1,0.1,1.2,0.1c0.4,0,0.8,0.1,1.2-0.1c0.4-0.1,0.7-0.4,1.1-0.5c0.8-0.1,1.7,0.1,2.4,0.1c1,0.1,1.9,0.1,2.9,0.1
		c0.4,0,0.8,0.1,1.1,0.2c0.5,0.1,1,0.4,1.2-0.3c0.1-0.5-0.4-0.8-0.9-0.9c-0.3-0.1-0.7-0.1-1-0.1c-0.5,0-1-0.1-1.5-0.1
		c-1,0-2,0.2-3,0.3c-1,0.1-1.9,0.2-3,0.1c-0.6,0-1.6-0.1-1.9,0.5C94.5,71.6,94.6,71.8,94.8,71.9z M110.3,73.4
		c-0.1,0.3-0.2,0.6,0,0.8c0.5,0.5,1,1,1.5,0.3c0.6-0.9,0-1.5-0.9-1.5C110.7,72.9,110.4,73.1,110.3,73.4z M106.6,68.3
		c-0.2,0.2-0.3,0.6-0.2,0.9c0,0.1,0.1,0.3,0.3,0.4c0.3,0.1,0.5-0.7,1-0.7c0.5,0,0.9,0.5,1.2,0.8c0.5,0.5,0,0.6,0,1.2
		c0,0.3,0.1,0.6,0.4,0.7c0.5,0.2,1.6,0.3,2,0c0.5-0.3-0.1-1.2-0.5-1.3c-0.4-0.1-1-0.3-1-0.8c0-0.4,0.1-0.6,0.4-0.7
		c0.2-0.1,0.3-0.1,0.5-0.2c0.5-0.7-1.2-0.4-1.4-0.4c-0.4,0.1-0.8,0-1.2,0C107.6,67.9,106.8,68,106.6,68.3z M95.6,73.5
		c-0.1,0.1-0.2,0.2-0.3,0.3c-0.4,0.7,0.1,1.6,0.5,2.2c0.4,0.6,0.9,1.4,1.7,1.6c0.4,0.1,1.2,0.1,1.6,0c0.4-0.1,0.7-0.5,1.1-0.7
		c0.3-0.1,0.7,0.1,1-0.1c0.3-0.2,0.3-0.6,0.4-0.8c0.2-0.3,0.4-1.2,0.9-1.2c0.4,0,0.2,0.4,0.3,0.7c0.1,0.5,0.6,0.9,1.2,0.8
		c0.3,0,0.4-0.2,0.7-0.3c0.4-0.2,1.3-0.1,1.4-0.7c0-0.1-1-0.6-1-0.7c-0.1-0.2,0-0.6-0.2-0.7c-0.2-0.1-0.6-0.1-0.8,0
		c-0.2,0.1-0.2,0.4-0.5,0.1c-0.2-0.2-0.2-0.6-0.4-0.8c-0.2-0.2-0.5-0.3-0.8-0.3c-0.3,0-0.9-0.1-1.2,0c-0.5,0.2-0.7,0.5-0.8,1
		c-0.1,0.3-0.4,0.8-0.7,0.4c-0.2-0.3-0.1-0.7-0.1-1c-0.1-0.3-0.2-0.3-0.6-0.3c-0.8-0.1-1.3,0.3-2.1,0.3
		C96.5,73.4,95.9,73.3,95.6,73.5z M111.2,98.5c0.3-0.3-0.2-0.9-0.3-1.2c-0.1-0.2-0.1-1.1,0.2-1.2c0.4-0.1,0.6,0.9,0.7,1.1
		c0.8,1.5,1.7,2.2,3.2,2.5c0.5,0.1,0.5,0.5,0.4,0.9c-0.3,0.9-0.5,1.6-1.6,1.2c-0.4-0.1-0.6-0.4-0.7-0.8c-0.1-0.4-0.1-0.7-0.4-0.9
		c-0.2-0.1-0.8-0.6-1-0.3c-0.2,0.3,0.4,0.7,0.5,1c0.1,0.3,0.1,0.7,0.3,1c0.2,0.3,0.5,0.3,0.5,0.6c0.1,0.6,0,2.4-0.8,2.4
		c-0.8-0.1-0.7-1.7-1-2.2c-0.1-0.3-0.4-0.8-0.8-1c-0.5-0.2-0.6,0.3-0.9,0.6c-0.3,0.2-0.6,0.3-0.9,0.3c-0.4-0.1-1.4-0.3-1.1-0.9
		c0.1-0.3,0.1-0.6,0.3-0.8c0.2-0.3,0.7-0.7,0.3-1.2c-0.7-0.8-0.9,0.7-1,1c-0.1,0.2-0.3,0.4-0.4,0.7c-0.1,0.3,0,1-0.3,1.2
		c-0.3,0.2-0.8-0.1-1.1-0.1c-0.6-0.1-1-0.1-1.5-0.4c-0.7-0.3-1.8-0.1-2.6-0.2c-0.2,0-1,0.1-0.5,0.4c1.1,0.7,1.7,1.2,2.6,2.2
		c0.4,0.6,0.7,1.1,1.4,1.4c0.7,0.3,0.9-0.3,1.6,0.1c0.4,0.3,0.6,0.1,0.8,0.5c0.4,1-0.4,0.7-1,0.8c-0.2,0-0.1,0.6,0,0.7
		c0.5,0.6,1-0.1,1.4-0.1c0.6-0.1,1.3,0.1,1,0.8c-0.2,0.6-1.6,0.5-2.1,0.8c-0.5,0.3-0.3,1-0.9,1.1c-0.6,0.1-0.9-1.2-1.6-1
		c-0.3,0.1-0.6,0.8-0.9,0.9c-0.2,0.1-0.4,0.4-0.6,0.5c-0.3,0.2-1.5,0.4-1.5-0.2c0-0.3,0.9-0.7,1.1-0.8c0.4-0.2,0.9-0.2,1.1-0.7
		c0.1-0.4-0.1-0.7-0.2-1c0-0.2,0.6-2.1-0.4-1.1c-0.2,0.2-0.2,0.7-0.4,0.8c-0.5,0.3-1-0.3-1.5,0c-0.4,0.2-0.4,0.8-0.8,1.1
		s-0.8,0.2-1.2,0.4c-0.4,0.2-0.7,0.6-1,0.9c-0.4,0.4-0.5,0.5-1,0.1c-0.3-0.2-0.6-0.5-0.9-0.8c-0.5-0.4-0.7-0.1-1.2-0.1
		c-0.8,0.1-0.8-0.8-0.8-1.5c0-0.7-0.3-1.4-0.6-2.1c-1.2-2.9,2.4-5,1.2-8c1.3-0.3,1.6-1.3,1.4-2.6c-0.1-0.9-1.2-1.5-1.2-2.2
		c-0.1-1,0.6-0.9,0.8-1.9c0.3-2-0.8-3.5-1.3-5.3c-0.2-0.6-0.9-2.1-0.6-2.7c0.1-0.3,0.9-1.7,1.3-0.6c0.3,0.7,0,1.5,0,2.2
		c0,0.4,0.7,1.9,1.2,0.9c0.1-0.2-0.1-0.8-0.1-0.8s-0.1-1.1-0.1-1.2c-0.1-0.5,0-1,0-1.5c0-1.2-1.3-1.7-1.7-2.7
		c-0.2-0.6,0.1-0.9,0.2-1.4c0.1-0.6,0.1-1.4-0.2-2c-0.1-0.3-0.4-0.4-0.5-0.6c-0.1-0.2-0.1-0.7-0.1-0.9c0-0.3,0.3-0.8,0.5-0.4
		c0.1,0.2,0.1,0.7,0.1,0.9c0.2,1,0.7,3.1,1.3,3.9c0.2,0.3,0.7,0.7,1.1,0.4c0.4-0.3,0.3-0.8,1-0.3c0.3,0.2,0.5,0.6,0.8,0.8
		c0.5,0.2,1.2,0,1.6,0.2c0.2,0.1,1.1,2.3,1.3,2.8c0.9,1.5,2.1,2.8,3,4.4c1,1.9,2.3,4.6,3.8,6.1c0.8,0.8,0.8,1.8,1.4,2.7
		c0.2,0.3,0.8,0.7,1,1c0.3,0.6,0.1,0.7,0.2,1.2C110.5,98.5,111,98.8,111.2,98.5z M97.1,80.6C97.1,80.6,97,80.6,97.1,80.6
		c-0.2,0.5,0.7,1.5,0.9,1.9c0.3,0.8,1.1,1,1.4,1.8c0.1,0.3,0.1,1.3,0.4,1.4c0.4,0.1,0.3-0.5,0.3-0.8c0-0.9-0.5-1.6-1-2.4
		c-0.2-0.4-0.3-0.9-0.6-1.3C98.4,80.8,97.4,80.1,97.1,80.6z M100.3,86.7c-0.3,0.1-0.4,0.6-0.3,0.9c0.1,0.2,0.8,0.7,1,0.5
		c0.1-0.1-0.1-1.1-0.3-1.2C100.5,86.7,100.4,86.6,100.3,86.7z M95.4,98.2c-0.2,0.2,0.1,0.7,0.3,1c0.2,0.3,0.6,0.5,0.7,0.8
		c0.3,0.6,0.1,1.5,0.6,2c0.8-0.2,0.3-1.8,0.1-2.3c-0.1-0.4-0.3-0.7-0.6-1c-0.2-0.1-0.7-0.6-0.9-0.6C95.5,98.2,95.5,98.2,95.4,98.2z
		 M98.2,103.7C98.1,103.8,98.1,103.8,98.2,103.7c-0.3,0.4,0.1,1.5,0.4,1.7c0.4,0.4,1.3,0.6,1.9,0.6c0.2,0,0.4,0.1,0.6-0.1
		c0.1-0.1-0.1-0.6-0.2-0.7c-0.5-0.1-1.1-0.1-1.5-0.5C99,104.5,98.7,103.4,98.2,103.7z M97.9,98.4c-0.2,0.3-0.1,0.7,0.6,1
		c1.2,0.5,2.8-0.3,3.9-0.7c1.2-0.3,2.4,0.5,3.5,0.3c0.5-0.1,1-0.3,0.5-0.8c-0.6-0.5-1.5,0-2.1,0c-0.9,0-1.9-0.3-2.7-0.7
		c-1-0.5-1.7-0.2-2.7,0.1C98.5,97.7,98.1,98,97.9,98.4z M88.6,136.4c0.5,0.2,0.7,0.5,1.2,0.4c0.2-1.5-1.8-2.1-2.8-2.8
		c-0.8-0.7,0.1-1.7,0.9-1.8c0.9-0.1,1.7,1.1,2.7,1.1c1,0,1.4-0.4,2.1-1.1c0.7-0.7,2.1-3.8,0-3.6c-0.6,0.1-1.2,1.3-1.9,1.5
		c-0.8,0.3-1.6,0.2-2.4,0.5c-0.8,0.3-2.2,0.6-2.8,1.3c-0.9,1.1,0,1.4,0.3,2.5c0.2,0.7,0.4,1.6-0.1,2.1c-0.3-1.2-1.4-1.9-1.8-3.1
		c-0.5-1.3,0.4-1.8,0.7-2.9c0.8-2.6,0-4.8,2.5-6.7c0.9-0.7,1-0.9,1.4-1.9c0.3-0.7,0.8-1.2,1.1-1.9c0.3-0.8,0.1-1.7,0.5-2.5
		c0.4-0.9,0.9-1.2,1.1-2.2c0.2-0.8,0.6-1.6,0.8-2.3c0.2-0.8-0.5-2.4,0.6-2.8c1.9-0.6,1.7,2.1,2.2,2.8c0.5,0.6,2.1,0.4,2.6-0.1
		c0.7-0.7,0-1.4,1.3-1.5c1.1-0.1,1.7,1.1,2.7,1.2c1.2,0.1,1-0.5,1.7-1.1c1.3-1.2,2.2,0.9,3.4,0.3c0.4-0.2,0.1-0.9,0.6-1.1
		c0.7-0.2,1.1,0.3,1.5,0.8c1.5,1.9,0,9-3.2,7.5c-0.2,0.4-0.2,1,0.1,1.4c0.4-0.3,0.7-0.1,1-0.2c-0.1,0.5-0.7,0.6-0.8,1
		c-0.3,0.6-0.1,1-0.3,1.7c-0.1,0.9-0.5,1.2-0.9,2c-0.4,0.7-0.4,1.5-0.7,2.2c-1,2.1-3.7,1.5-5.6,1.6c-0.9,0-1.9,0-2.6,0.7
		c-1,0.9-0.8,2.7-1.5,3.8c-0.2,0.3-2.5,2.9-2.8,2.7c1.9,1.3,1.8-0.7,3.1-0.9c2.1-0.3,0.2,2.4-0.5,3c-1.4,1.1-1.8,1.9-3.3,1.2
		c-0.8-0.3-2.3-0.6-2.8-1.5c-0.3-0.5-0.4-1-0.2-1.3C87.8,136.2,88.1,136.2,88.6,136.4z M90.6,120.7c-0.2-0.1-0.3,0.5-0.3,0.7
		c0,0.1,0,0.3,0.1,0.3c0.2,0.2,0.3,0.2,0.3,0.1C90.9,121.7,90.8,120.7,90.6,120.7z M92.8,115c-0.6,0.6,0.8,1.3,0.6,0.3
		C93.3,114.8,93,114.8,92.8,115z M92,116.5c0,0-0.1,0.1-0.1,0.1c-0.1,0.2,0,0.8-0.1,1.1c-0.1,0.4-0.4,1.4,0.4,1.1
		c0.4-0.1,0.3-0.9,0.3-1.2c0-0.3,0-0.5-0.1-0.8C92.3,116.6,92.1,116.4,92,116.5z M90.9,120.1c0.1,0,0.2-0.1,0.3-0.2
		c0.1-0.1,0.2-0.3,0.1-0.5c-0.1-0.2-0.3-0.2-0.4,0C90.9,119.5,90.9,119.9,90.9,120.1z M97.3,121.4c0.5-0.8,1.3-1.2,1.8-1.9
		c0.2-0.2,0.8-1.7,0.1-1.6c-0.5,0.1-0.4,1-0.6,1.3c-0.3,0.4-0.7,0.4-1,0.7c-0.1,0.1-0.1,0.4-0.2,0.6c-0.1,0.1-0.4-0.1-0.5,0
		c-0.2,0.2-0.5,0.9-0.1,1.2c0.3,0.3,0.4,0.2,0.5,0.1C97.2,121.7,97.3,121.5,97.3,121.4z M97.1,123.9c0.9,1.3,2.5-1.2,3.2-1.7
		c0.4-0.3,1-0.2,1.3-0.7c0.3-0.4,0.2-1.2-0.3-1.4c-0.8-0.3-1,1.5-1.7,1.9c-0.6,0.3-3.4,0.3-2.5,1.7C97,123.9,97,123.9,97.1,123.9z
		 M87.1,130c0.9,0,0.8-0.2,1.5-0.6c0.2-0.1,0.4,0,0.6-0.1c0.3-0.1,0.6-0.4,0.9-0.5c0.2-0.1,0.8-0.2,1-0.4c0.2-0.2,0.1-0.6,0.3-0.8
		c0.3-0.4,0.8-0.1,0.7-0.8c0-0.4-0.1-0.8-0.2-1.1c0-0.3,0-0.7-0.3-0.8c-0.8-0.5-0.9,0.8-1,1.2c0,0.2,0,0.7-0.1,0.8
		c-0.8,0.7-2.3-0.6-3,0.4c-0.3,0.5-1.2,2.3-0.9,2.8c0,0,0,0,0,0C86.8,130,87,130,87.1,130z"/>
	
		<radialGradient id="SVGID_3_" cx="99.971" cy="189.9607" r="10.0224" gradientTransform="matrix(1 0 0 -1 0 200.1)" gradientUnits="userSpaceOnUse">
		<stop  offset="0" style="stop-color:#E9C466"/>
		<stop  offset="0.2869" style="stop-color:#EAC663"/>
		<stop  offset="0.5752" style="stop-color:#EDCC59"/>
		<stop  offset="0.8632" style="stop-color:#F3D644"/>
		<stop  offset="1" style="stop-color:#F6DD34"/>
	</radialGradient>
	<polygon class="st2" points="100,0.4 102.4,7.8 110.2,7.8 103.9,12.4 106.3,19.9 100,15.3 93.6,19.9 96.1,12.4 89.7,7.8 97.6,7.8 	
		"/>
	
		<radialGradient id="SVGID_4_" cx="39.0868" cy="167.2235" r="8.1862" gradientTransform="matrix(1 0 0 -1 0 200.1)" gradientUnits="userSpaceOnUse">
		<stop  offset="0" style="stop-color:#A8ABAE"/>
		<stop  offset="0.2606" style="stop-color:#ACAEB1"/>
		<stop  offset="0.5225" style="stop-color:#B5B6B8"/>
		<stop  offset="0.7843" style="stop-color:#C5C5C6"/>
		<stop  offset="1" style="stop-color:#D8D6D6"/>
	</radialGradient>
	<polygon class="st3" points="39.1,24.9 41.1,31 47.5,31 42.3,34.8 44.3,40.9 39.1,37.1 33.9,40.9 35.9,34.8 30.7,31 37.1,31 	"/>
	
		<radialGradient id="SVGID_5_" cx="160.9132" cy="167.2235" r="8.1773" gradientTransform="matrix(1 0 0 -1 0 200.1)" gradientUnits="userSpaceOnUse">
		<stop  offset="0" style="stop-color:#A8ABAE"/>
		<stop  offset="0.2606" style="stop-color:#ACAEB1"/>
		<stop  offset="0.5225" style="stop-color:#B5B6B8"/>
		<stop  offset="0.7843" style="stop-color:#C5C5C6"/>
		<stop  offset="1" style="stop-color:#D8D6D6"/>
	</radialGradient>
	<polygon class="st4" points="160.9,24.9 158.9,31 152.5,31 157.7,34.8 155.7,40.9 160.9,37.1 166.1,40.9 164.1,34.8 169.3,31 
		162.9,31 	"/>
</g>
</svg>
