<?xml version="1.0" encoding="utf-8"?>
<!-- Generator: Adobe Illustrator 21.1.0, SVG Export Plug-In . SVG Version: 6.00 Build 0)  -->
<svg version="1.1"
	 id="svg2" xmlns:cc="http://creativecommons.org/ns#" xmlns:dc="http://purl.org/dc/elements/1.1/" xmlns:rdf="http://www.w3.org/1999/02/22-rdf-syntax-ns#" xmlns:svg="http://www.w3.org/2000/svg"
	 xmlns="http://www.w3.org/2000/svg" xmlns:xlink="http://www.w3.org/1999/xlink" x="0px" y="0px" viewBox="0 0 200 200"
	 style="enable-background:new 0 0 200 200;" xml:space="preserve">
<style type="text/css">
	.st0{fill:#07568F;}
	.st1{fill:#E21F2D;}
	.st2{fill:#C82A33;}
	.st3{fill:#FFFFFF;}
	.st4{fill:#8AB8D4;}
	.st5{fill:#007DB0;}
	.st6{fill:#EEEBE9;}
</style>
<g>
	<path id="path8" class="st0" d="M148.1,86.5v31.2l8.4,4.3v30.5l-8.4-4V178l-48,22L52,178v-29.6l-8.4,4v-30.5l8.4-4.2V86.5
		L16.7,70.3C20.1,52.2,28.8,36.2,41,24c5.3-5.3,11.6-9.9,18.4-13.6C71.5,3.8,85.5,0,99.8,0c12.8,0,24.9,2.8,35.7,7.9
		c10.3,4.8,19.5,11.6,27.1,20c10.4,11.6,17.7,26,20.7,42.4L148.1,86.5z"/>
	<path id="path10" class="st1" d="M48.3,124.5l51.9-23.7l51.7,23.7v20.4l-51.7-23.7L48.3,145V124.5z"/>
	<path id="path12" class="st2" d="M100.1,100.8l51.7,23.7v20.4l-51.7-23.7L100.1,100.8z"/>
	<path id="path14" class="st3" d="M58.5,144.5L58.5,144.5l35.6,0v7.4H82.2v32.8l12.1,5.5v-38.1h11.5v38.1l12.1-5.5v-32.8H106v-7.4
		h35.6v0l-21.5-10H106V128l-5.8-2.7l-6.1,2.8v6.4H80.1L58.5,144.5z M58.5,151.9v22l12.2,5.6v-27.5H58.5z M129.4,179.4l12.2-5.6v-22
		h-12.2V179.4z"/>
	<path id="path16" class="st4" d="M58.7,86.4v29L84,103.6v-9.8l-11.5-5.6c-2.5-1.2-1.3-6,2.7-8.7c2.1-1.4,4.8-1.9,7.4-2
		c6.2-0.3,11.5,3.4,11.5,7.2L94,98.4l6,2.7l6-2.6V84.3c0-1.9,1.4-3.7,3.9-5.2c1.7-1,4.4-1.7,6.6-1.7c2.2,0,5.4,0.5,7.4,1.6
		c4.7,2.6,6.9,7.3,4.2,8.7L116,94v9.6l25.6,11.7V86.4c0-9.8-2.1-22.8-15.5-34.3l3.3-4.1c-6.1-4.7-12.5-7.6-19.1-9.1l-1.2,5
		c-3.3-0.7-6.3-1.1-9.3-1.1c-2.9,0-5.8,0.4-9,1l-1.3-5c-6.9,1.6-13,4.7-18.8,9.1l3.3,4C59.5,64.5,58.6,78.2,58.7,86.4z"/>
	<path id="path18" class="st3" d="M58.7,86.4v29l4.3-2V83.9c0-12.2,5.4-25.5,13.8-33.8l-2.9-4.2c-1.1,0.7-2.2,1.5-3.3,2.3l3.3,4
		C59.5,64.5,58.6,78.2,58.7,86.4z"/>
	<path id="path20" class="st5" d="M137.2,113.3l4.4,2V86.4c0-9.8-2.1-22.8-15.5-34.3l3.3-4.1c-1.1-0.8-2.1-1.6-3.2-2.3l-2.8,4.2
		c8.7,8.5,13.9,21.7,13.9,33.9V113.3z"/>
	<path id="path22" class="st5" d="M100.1,101l6-2.6v-14L100.1,101z"/>
	<path id="path24" class="st5" d="M114,77.6c2.9-0.6,6.9-0.7,10.4,0.4c4.4,1.5,7.9,4.6,6,8.7l-3.3,1.6c1.6-3.1,0-7-2.9-8.7
		C121.8,78.2,119.1,77.1,114,77.6z"/>
	<path id="path26" class="st3" d="M94.1,84.6C94.1,84.6,94.1,84.6,94.1,84.6l0,13.8l6.1,2.6L94.1,84.6z"/>
	<path id="path28" class="st3" d="M86,77.7c-2.8-0.7-6.9-0.8-10.4,0.4c-4.4,1.5-7.9,4.7-6,8.8l3.3,1.6c-1.7-3.4,0-7,2.9-8.8
		C78.2,78.2,80.8,77.2,86,77.7z"/>
	<path id="path30" class="st3" d="M67.6,44l3.4,4.3c-5.7,4.5-9.9,9.7-12.9,16.3l-4.9-2.4C56.9,54.6,61.6,48.9,67.6,44z"/>
	<path id="path32" class="st3" d="M132.3,43.9l-3.4,4.2c5.7,4.5,10,9.8,13,16.4l4.8-2.3C143.1,54.6,138.2,48.8,132.3,43.9z"/>
	<path id="path34" class="st3" d="M88.1,33.9l1.3,5.4c3.4-0.9,7.1-1.3,10.6-1.3c3.5,0,7.2,0.3,10.4,1.3l1.2-5.3
		C104.4,32.1,95.8,32.3,88.1,33.9z"/>
	<path id="path36" class="st4" d="M49.4,74.1l-0.5,3.7L24.5,66.5c1.9-8.4,5.1-15.8,8.9-22.1c9.9-16.7,25.3-27.8,41.2-33.5
		c-15.4,7-27.1,16.5-36.2,31.2c-3.9,6.3-7.2,13.7-9.4,22.6L49.4,74.1z"/>
	<path id="path38" class="st5" d="M150.7,74.1l0.5,3.7l24.4-11.3c-1.9-8.4-5.1-15.8-8.9-22.1c-9.9-16.7-25.3-27.8-41.2-33.5
		c15.4,7,27.1,16.5,36.2,31.2c3.9,6.3,7.2,13.7,9.4,22.6L150.7,74.1z"/>
	<path id="path42" class="st3" d="M106.2,13.6l10.4,1.7l-1.1,2.8l-3.2-0.5l-1.7,10.2l-2.9-0.5l1.7-10.2l-3.6-0.6L106.2,13.6z"/>
	<path id="path44" class="st3" d="M119,15.9l2.8,1l-1.7,4.7l4.6,1.7l1.7-4.7l2.8,1l-4.6,12.4l-2.8-1l1.8-5l-4.6-1.7l-1.8,5l-2.8-1
		L119,15.9z"/>
	<path id="path46" class="st3" d="M138.9,25.1l8.5,6.7l-8.2,10.4l-2.3-1.8l6.4-8.1l-3.8-3l-6.4,8.1l-2.3-1.8L138.9,25.1z"/>
	<path id="path48" class="st3" d="M67.9,20.8l10-4.1l5,12.3l-2.7,1.1l-3.9-9.6l-4.5,1.9l3.9,9.6L73,33L67.9,20.8z"/>
	<path id="path50" class="st3" d="M159.2,46l4,7l-2.8,0.9l-2.2-3.9l-1.9,1.1l2.2,3.8l-2.5,1.4l-2.2-3.8l-2.2,1.2l2.5,4.5l-2.4,1.4
		l-4-7L159.2,46z"/>
	<path id="path52" class="st3" d="M44.1,40.5l5.3-6.1l1.7,2.4l-3,3.4l1.6,1.4l2.9-3.3l2.1,1.9L52,43.5l1.9,1.6l3.4-3.9l2.1,1.8
		l-5.3,6.1L44.1,40.5z"/>
	<path id="path54" class="st3" d="M96,13.5l3.2-0.1c3.1-0.1,5,1.2,5.1,4.4c0,2.8-2.3,4.1-4.3,4.2l-0.9,0l0.1,4.6l-2.9,0L96,13.5z
		 M99,19.1l1.1,0c0.4,0,1.2-0.3,1.2-1.4c0-1.1-0.7-1.4-1.3-1.4l-1,0L99,19.1z"/>
	<path id="path56" class="st3" d="M63.3,39.5l-0.6-7.8L56,28.5l8.5-5.7l1.1,2.7l-4,2.7l3.8,1.7l0.4,4.6l4.6-3.1l1.6,2.4L63.3,39.5z"
		/>
	<path id="path58" class="st3" d="M86.2,14.8l2.1-0.4l7.5,12.1l-3.2,0.6L91,24.6l-3.9,0.7l-0.5,2.9l-3.2,0.6L86.2,14.8z M88.1,19.8
		l-0.5,2.7l1.9-0.3L88.1,19.8z"/>
	<path id="path60" class="st3" d="M38.6,49l1.1-1.8l14.1,2.2l-1.6,2.8l-2.9-0.4l-2,3.4l1.9,2.2l-1.6,2.8L38.6,49z M43.7,50.8
		l1.7,2.1l1-1.7L43.7,50.8z"/>
	<path id="path62" class="st3" d="M153.2,38l1.4,1.6l-6.8,12.5l-2.1-2.5L147,47l-2.5-3l-2.7,1l-2.1-2.5L153.2,38z M149.8,42.1
		l-2.6,0.9l1.2,1.5L149.8,42.1z"/>
	<path id="path66" class="st3" d="M90,62.7h1.4v-6.5h-0.9l-2.1,1.1l0.6,1.1l1-0.6V62.7z"/>
	<path id="path68" class="st3" d="M109.2,62.7h1.4v-6.5h-0.9l-2.1,1.1l0.6,1.1l1-0.6V62.7z"/>
	<path class="st3" d="M96.4,55.9c-1.2,0-2.2,1-2.2,2.2c0,1.4,1.3,2.3,2.6,1.9c-0.5,0.7-1.1,1.2-1.9,1.7l0.9,1.1
		c1.4-1.1,2.9-2.4,2.8-4.4C98.7,57.2,98,55.9,96.4,55.9z M96.4,58.9c-0.4,0-0.8-0.4-0.8-0.8c0-0.4,0.4-0.8,0.8-0.8
		c0.4,0,0.8,0.4,0.8,0.8C97.2,58.5,96.9,58.9,96.4,58.9z"/>
	<path class="st3" d="M102.8,55.9c-1.2,0-2.2,1-2.2,2.2c0,1.4,1.3,2.3,2.6,1.9c-0.5,0.7-1.1,1.2-1.9,1.7l0.9,1.1
		c1.4-1.1,2.9-2.4,2.8-4.4C105.1,57.2,104.4,55.9,102.8,55.9z M102.9,58.9c-0.4,0-0.8-0.4-0.8-0.8c0-0.4,0.4-0.8,0.8-0.8
		c0.4,0,0.8,0.4,0.8,0.8C103.7,58.5,103.3,58.9,102.9,58.9z"/>
	<path id="path76" class="st3" d="M59,126.4c0.5-0.2,0.7-0.3,1.2-0.5c-0.1,0.9-0.1,1.9-0.1,2.8l3.5-1.6c0-0.9,0-1.9-0.1-2.7
		c0.5-0.2,0.7-0.3,1.2-0.5c0,0.9,0,2.1,0,3.2c0,1.2,0,2.3,0,3.5c-0.5,0.2-0.7,0.3-1.2,0.6c0.1-1.1,0-1.9,0-2.9l-3.5,1.6
		c0,1,0,2.2,0.1,2.8c-0.5,0.2-0.7,0.2-1.2,0.5c0-1.2,0-2.5,0-3.7C59,128.4,59,127.4,59,126.4z"/>
	<path id="path78" class="st3" d="M94.3,111.2c0.5-0.2,0.7-0.3,1.2-0.5c-0.1,0.9-0.1,1.9-0.1,2.8l3.5-1.5c0-0.9,0-1.9-0.1-2.7
		c0.5-0.2,0.7-0.3,1.2-0.5c0,0.9,0,2.1,0,3.2c0,1.2,0,2.3,0,3.5c-0.5,0.1-0.7,0.3-1.2,0.5c0.1-1.1,0-1.9,0-2.9l-3.5,1.5
		c0,1,0,2.2,0.1,2.8c-0.5,0.1-0.7,0.2-1.2,0.5c0-1.2,0-2.5,0-3.7C94.3,113.2,94.3,112.2,94.3,111.2z"/>
	<path id="path80" class="st3" d="M82.8,115.7l5.1,2.5c0.1-0.9,0-3.8-0.1-4.6c0.5-0.2,0.7-0.3,1.2-0.5c0,0.9,0,2.2,0,3.3
		c0,1.3,0,2.5,0,3.8l-5.3-2.5c0,1.1-0.2,4.3-0.2,5c-0.5,0.2-0.7,0.2-1.2,0.5c0-0.3,0.1-0.8,0.1-1.3c0-0.6,0.1-1.6,0.2-2.3
		c0.1-0.9,0.1-1.6,0.1-2.5C82.8,116.6,82.8,116.1,82.8,115.7z"/>
	<path id="path82" class="st3" d="M73.1,121.2c0,0.7,0,1.4,0,2.1c0,1.1,0,2.3,0.1,3.4c-0.5,0.1-0.8,0.2-1.3,0.4
		c0.1-1.2,0.1-2.4,0.1-3.6c0-0.7,0-1.2,0-1.8c-1.2,0.5-2,0.8-2.8,1.4l0.2-1.3l6.1-2.6l0.4,1C75,120.4,74,120.8,73.1,121.2z"/>
	<path id="path84" class="st3" d="M75,125.8c0.4,0,0.7,0.1,1,0.1c0.3-0.8,0.6-1.6,1-2.5l2.8-1.2c0.3,0.6,0.6,1.1,0.9,1.7
		c0.3-0.3,0.7-0.7,1-0.9c-1.1-1.7-2.2-3.6-3.2-5.3C77.3,120.5,76.2,123.3,75,125.8z M77.5,122.2c0.3-0.7,0.6-1.5,0.9-2.3
		c0.3,0.5,0.6,1,0.9,1.5L77.5,122.2z"/>
	<path id="path88" class="st6" d="M120.1,116.4c-0.5-0.2-0.7-0.2-1.2-0.5c0.1,1.1,0.1,2.1,0.1,3.2c0,1.2,0,2.4-0.1,3.6
		c0.5,0.1,0.7,0.3,1.3,0.6c0-1.4-0.1-2.6-0.1-3.8C120.1,118.5,120,117.5,120.1,116.4z"/>
	<path id="path90" class="st6" d="M109.5,111.8l-4.1-1.8c0.1,1.1,0.1,2.1,0.1,3.2c0,1.2,0,2.3,0,3.5l4.1,1.8l0.2-1.2
		c-0.6-0.1-2.1-0.6-3.1-1.3l0-1.8c1,0.4,2.4,1,3.2,1.4c0-0.3,0-0.7,0-1.1c-1-0.4-2.1-0.9-3.2-1.4l0-1.6c1.2,0.5,2,0.8,3.1,1.4
		L109.5,111.8z"/>
	<path id="path92" class="st6" d="M116.8,115.3l-5.8-2.6c0,0.9,0,2.1,0,3.2c0,1.2,0,2.3,0,3.5c0.5,0.2,0.7,0.3,1.2,0.6
		c-0.1-1.1,0-4.6,0-5.6l3.6,1.6c0,1-0.1,4.9-0.1,5.6c0.5,0.2,0.7,0.2,1.2,0.5c0-1.2,0-2.5,0-3.7
		C116.8,117.2,116.8,116.3,116.8,115.3z"/>
	<path id="path94" class="st6" d="M128,121.2c0,0.7,0,1.4,0,2.1c0,1.1,0,2.3-0.1,3.4c0.5,0.2,0.8,0.2,1.3,0.5
		c-0.1-1.2-0.1-2.4-0.1-3.6c0-0.7,0-1.2,0-1.8c1.2,0.5,2,0.9,2.8,1.4l-0.2-1.3l-6.1-2.7l-0.4,1C126.1,120.3,127.1,120.8,128,121.2z"
		/>
	<path id="path96" class="st6" d="M131.1,128c0.4,0.3,0.7,0.6,1.1,1c0.3-0.6,0.6-1,0.9-1.6l2.8,1.3c0.3,0.9,0.6,1.7,0.9,2.5
		c0.3,0,0.6,0,1,0c-1.1-2.7-2.2-5.5-3.2-8.1C133.4,124.8,132.2,126.5,131.1,128z M133.6,126.6c0.3-0.5,0.6-0.9,0.9-1.5
		c0.3,0.7,0.6,1.5,0.9,2.3L133.6,126.6z"/>
	<path id="path98" class="st6" d="M141.9,126c0.1,0.4,0.3,0.8,0.6,1.2c-0.9,0-1.8,0-2.7,0.1c0.5,0.7,0.9,1.5,1.6,2.2
		c-0.6,0.2-1,0.4-1.5,0.7c0.9,0.9,1.8,1.8,2.8,2.7c-0.2,0.3-0.4,0.6-0.6,0.8c-1.2-1.3-2.6-2.7-4-4.1c0.5-0.2,1.2-0.5,1.8-0.7
		c-0.6-0.8-1.2-1.7-1.7-2.5C139.5,126.3,140.7,126.2,141.9,126z"/>
</g>
</svg>
