<?xml version="1.0" encoding="utf-8"?>
<!-- Generator: Adobe Illustrator 21.1.0, SVG Export Plug-In . SVG Version: 6.00 Build 0)  -->
<svg version="1.1" id="Layer_1" xmlns="http://www.w3.org/2000/svg" xmlns:xlink="http://www.w3.org/1999/xlink" x="0px" y="0px"
	 viewBox="0 0 200 200" style="enable-background:new 0 0 200 200;" xml:space="preserve">
<style type="text/css">
	.st0{fill:#FDD300;}
	.st1{fill:#FFFFFF;}
</style>
<g>
	<path d="M175.7,81.2V15.7h-5.2c-33.6,0-67.9-14.6-68.4-14.8L100,0l-2.1,0.9C97.6,1,63.2,15.7,29.5,15.7h-5.2v65.6
		c0,2.5-0.6,43.1,15.4,69.1c1.5,2.8,14.1,24.7,57.7,48.3l2.5,1.3l2.5-1.3c43.7-23.6,56.3-45.5,57.7-48.3
		C176.2,124.4,175.7,83.7,175.7,81.2z M100,5.7c0,0,35.3,15.2,70.5,15.2l0,26.7l-140.9,0l0-26.7C64.7,20.9,100,5.7,100,5.7z
		 M155.7,147.8c0,0-10.8,22.1-55.7,46.3c-44.9-24.2-55.7-46.3-55.7-46.3c-15.6-25.2-14.8-61-14.8-61l0-34.3l140.9,0l0,28.8
		C170.5,81.3,171.3,122.6,155.7,147.8z"/>
	<path class="st0" d="M170.5,52.5v28.8c0,0,0.9,41.3-14.8,66.5c0,0-10.8,22.1-55.7,46.3c-44.9-24.2-55.7-46.3-55.7-46.3
		c-15.6-25.2-14.8-61-14.8-61V52.5L170.5,52.5z"/>
	<path class="st1" d="M29.5,47.6V20.9C64.7,20.9,100,5.7,100,5.7s35.3,15.2,70.5,15.2v26.7L29.5,47.6z"/>
	<path d="M74.3,42.6c0-0.6-0.6-0.7-0.6-0.7C64,38.4,61.2,24,61.2,24l-6.7-1c0.1,1.4,0.2,2.7,0.5,3.9c-3.3,2.9-10.8,9.8-14.7,14.3
		c0,0-0.3,0.3-0.3,0.7c0,0,0,0.7,0.7,0.7c0,0,10.8,0.3,22.3-3.9c5.2,3.8,10.8,4.7,10.8,4.7C74.4,43.5,74.3,42.6,74.3,42.6z
		 M47.7,38.6c0,0,0.1-0.5,0.4-0.8c0,0,4.4-4.6,8.1-7.1c0.9,2.1,2.2,3.9,3.6,5.3c-2.2,1.2-6.6,3.1-11.6,3.1
		C48.2,39,47.7,39,47.7,38.6z M84.4,34c0,0,0.9,9.4,15.8,9.4c7.7,0,12.6-5.2,12.6-5.2c0.8-0.7,0.8-1.1,0.8-1.1
		c0-0.8-0.9-0.9-0.9-0.9c-0.9,0-1.7,0.7-1.7,0.7c-3.5,2.6-8.9,2.5-8.9,2.5c-10,0-9.6-5.3-9.6-5.3h17v-2.9h-17c0-5,9.4-5,9.4-5
		c7,0,9.1,1.6,9.1,1.6c0.8,0.5,1.5,0.4,1.5,0.4c0.9,0,0.8-0.8,0.8-0.8c0-0.5-0.6-1-0.6-1c-4.9-4.3-11.7-4.2-11.7-4.2
		c-16,0-16.6,9.4-16.6,9.4S84.2,32.8,84.4,34z M160.1,41c0,0-0.1,2.3-5.5,2.3c0,0-10.5-0.3-16.2-7.4c0,0-0.7-0.5-2.2,0
		c0,0-2.5,1-3.8,2.1v5.3h-6.9V24.7h6.9v9.2c0,0,0,0.6,0.7,0.6c0,0,0.6,0.1,1.5-0.4c0,0,10.8-6.2,16.2-8.6c0,0,2-0.8,3.1-0.8
		c0,0,2.7,0,2.7,1.4c0,0,0,0.3-0.5,0.6c0,0-4.9,2.6-11.9,5.4c0,0-0.8,0.3-0.8,1.2c0,0,0,0.5,0.6,1.1c0,0,8,7.1,13.8,7.1
		C157.6,41.4,158.9,41.5,160.1,41z M80.5,38.4c1.4,0,2.5,1.1,2.5,2.5s-1.1,2.5-2.5,2.5c-1.4,0-2.5-1.1-2.5-2.5S79.1,38.4,80.5,38.4z
		 M118.6,38.4c1.4,0,2.5,1.1,2.5,2.5s-1.1,2.5-2.5,2.5s-2.5-1.1-2.5-2.5S117.2,38.4,118.6,38.4z"/>
	<path d="M156.2,139.4c-2-11.1-15.9-47.3-15.9-47.3c-4.5-10.6-11-10.6-11-10.6c-3.5,0-5.9,4.5-5.9,4.5c-3.3,4.7-6.5,4.3-6.5,4.3
		c-3.5,0-3.5-3-3.5-3c0-4.7,4.5-4.9,4.5-4.9c3.8,0,5.5-2,5.5-2c1.8-1.8,3.5-1.4,3.5-1.4c3,0,4.1,0.8,4.1,0.8c0-4-4.7-6.2-4.7-6.2
		c1-2.1,0.9-3.8,0.9-3.8c0-5.6-5.8-5.8-5.8-5.8l-0.3-3c-0.5-0.5-1.4,0-1.4,0l-0.4,3c-6.5,0-6.5,7.8-6.5,7.8c-2.1,0-2.7,1.5-2.7,1.5
		c-1.5,2.2-4.3,1.8-4.3,1.8c0-2.3,0.5-3.2,0.5-3.2l2.6-2.4v-7.4l-5.2,4.8v4.3l-3.7,7l-3.7-7v-4.3l-5.2-4.8v7.4l2.6,2.4
		c0,0,0.5,0.9,0.5,3.2c0,0-2.8,0.3-4.3-1.8c0,0-0.7-1.5-2.7-1.5c0,0,0-7.8-6.5-7.8l-0.4-3c0,0-0.9-0.5-1.4,0l-0.3,3
		c0,0-5.8,0.1-5.8,5.8c0,0-0.1,1.7,0.9,3.8c0,0-4.7,2.2-4.7,6.2c0,0,1.1-0.8,4.1-0.8c0,0,1.7-0.4,3.5,1.4c0,0,1.7,2,5.5,2
		c0,0,4.5,0.2,4.5,4.9c0,0,0,3-3.5,3c0,0-3.3,0.3-6.5-4.3c0,0-2.4-4.5-5.9-4.5c0,0-6.5,0-11,10.6c0,0-3.1,8.1-6.6,17.7L38.1,90.6
		l-2.6-1.4l0.7,2.9l14.9,23.4c-3.3,9.3-6.4,19-7.3,23.9c0,0,3,0,8.5-10.3c0,0-0.9,5.3-2.1,9c0,0,2.6-0.1,6.3-7.6v2.8
		c0,0,2.6-0.8,4.3-3.9c0,0,0.7-1.1,1.5-1.1c0,0,1.1,0,1.1,0.8c0,0,0,0.4-0.5,1.2c0,0-0.6,0.6-0.6,2.9c0,0-0.1,3.3,2.5,4.8
		c0,0,0.8,0.7,2.7,1.1c0,0,1.9,0.5,3.3,2.5c0,0,0.3,0.8,2.1,0.8c0,0,3.3,0.1,3.3-5.7l10.3-1.5c0,0-1.1,9.5-10.7,19.5
		c0,0-0.6,0.5-0.6,1.1c0,0,0,0.9,1.1,0.9c0,0,3.1-0.5,7.4-5.2c0,0-0.8,3.6-4.2,6.2c0,0-0.5,0.4-0.5,1.1c0,0,0,1.1,1.1,1.1
		c0,0,2.5,0.1,5.5-3.8c0,0-0.2,2-1.2,3.7c0,0-0.8,1.4,1,1.4c0,0,1.8,0.1,3.7-2.1c0,0,0.2,1.4-0.1,2.5c0,0-0.3,0.8,0.8,0.9
		c0,0,1.4,0,2.1-1.3c0,0,0.4-0.7,1-0.7c0,0,0.6,0,0.6,0.7v1.2c0,0,0,0.8,0.8,0.8c0,0,1.5,0,2.3-1.3c0,0,0.4-0.7,0.8-0.7
		c0,0,0.6-0.1,0.9,0.8c0,0,0.5,1.8,1.5,1.8c0.9,0,1.5-1.8,1.5-1.8c0.4-0.9,0.9-0.8,0.9-0.8c0.5,0,0.8,0.7,0.8,0.7
		c0.8,1.3,2.3,1.3,2.3,1.3c0.8,0,0.8-0.8,0.8-0.8v-1.2c0-0.6,0.6-0.7,0.6-0.7c0.7,0,1,0.7,1,0.7c0.7,1.3,2.1,1.3,2.1,1.3
		c1.1,0,0.8-0.9,0.8-0.9c-0.3-1.1-0.1-2.5-0.1-2.5c1.9,2.1,3.7,2.1,3.7,2.1c1.8,0,1-1.4,1-1.4c-1.1-1.8-1.2-3.7-1.2-3.7
		c2.9,3.8,5.5,3.8,5.5,3.8c1.1,0,1.1-1.1,1.1-1.1c0-0.7-0.5-1.1-0.5-1.1c-3.3-2.6-4.2-6.2-4.2-6.2c4.3,4.7,7.4,5.2,7.4,5.2
		c1.1,0,1.1-0.9,1.1-0.9c0-0.7-0.6-1.1-0.6-1.1c-9.6-10-10.7-19.5-10.7-19.5l10.3,1.5c0,5.8,3.3,5.7,3.3,5.7c1.8,0,2.1-0.8,2.1-0.8
		c1.4-2,3.3-2.5,3.3-2.5c2-0.4,2.7-1.1,2.7-1.1c2.6-1.6,2.5-4.8,2.5-4.8c0-2.3-0.6-2.9-0.6-2.9c-0.5-0.8-0.5-1.2-0.5-1.2
		c0-0.8,1.1-0.8,1.1-0.8c0.8,0,1.5,1.1,1.5,1.1c1.7,3.2,4.3,3.9,4.3,3.9v-2.8c3.7,7.5,6.3,7.6,6.3,7.6c-1.2-3.7-2.1-9-2.1-9
		C153.2,139.4,156.2,139.4,156.2,139.4z M124.7,70.8c0,0-1.6-0.1-1.6-3.6C123.2,67.2,124.7,67.2,124.7,70.8z M117.6,67.2
		c0,3.5-1.6,3.6-1.6,3.6C116,67.2,117.6,67.2,117.6,67.2z M75.2,70.8c0-3.6,1.6-3.6,1.6-3.6C76.8,70.7,75.2,70.8,75.2,70.8z
		 M82.4,67.2c0,0,1.6,0,1.6,3.6C84,70.8,82.4,70.7,82.4,67.2z M83.5,124.1c-2,0-5,2.9-5,2.9c-1.6,1.4-3.1,1.1-3.1,1.1
		s-1.8-6.5-6.9-6.5c-3.6,0-3.5-1.9-3.5-1.9c0-1.7,1.3-1.7,1.3-1.7c0.5,0,0.6,0.7,0.6,0.7c0.2,0.3,0.8,0.3,0.8,0.3
		c1.3,0,5.3-4.8,5.3-4.8c0.4-0.3,0.9,0,0.9,0c0.3,0.3,1.1,0.3,1.1,0.3c1.9,0,4.1-3.7,4.1-3.7c3.9,0,6.6,1.7,6.9,4
		c0.2,2.1,1,4.9,1,4.9C85.1,120.7,83.5,124.1,83.5,124.1z M131.5,121.5c-5.1,0-6.9,6.5-6.9,6.5s-1.5,0.3-3.1-1.1c0,0-3-2.9-5-2.9
		c0,0-1.6-3.3-3.5-4.4c0,0,0.8-2.8,1-4.9c0.3-2.3,3-4,6.9-4c0,0,2.2,3.7,4.1,3.7c0,0,0.8,0,1.1-0.3c0,0,0.4-0.3,0.9,0
		c0,0,4,4.8,5.3,4.8c0,0,0.6,0,0.8-0.3c0,0,0.1-0.7,0.6-0.7c0,0,1.3,0,1.3,1.7C135,119.6,135.1,121.5,131.5,121.5z"/>
	<path d="M89.3,170.4h5.4v1.6h-3.4v2h3.2v1.6h-3.2v3.5h-2L89.3,170.4L89.3,170.4z M99.7,179.3c-0.7,0-1.1-0.5-1.1-1.2
		c0-0.7,0.5-1.2,1.2-1.2c0.7,0,1.1,0.5,1.2,1.2C100.9,178.8,100.4,179.3,99.7,179.3L99.7,179.3z M110.5,179
		c-0.4,0.2-1.2,0.4-2.2,0.4c-3,0-4.6-1.9-4.6-4.4c0-3,2.1-4.7,4.8-4.7c1,0,1.8,0.2,2.2,0.4l-0.4,1.6c-0.4-0.2-1-0.3-1.7-0.3
		c-1.6,0-2.8,1-2.8,2.9c0,1.8,1,2.9,2.8,2.9c0.6,0,1.3-0.1,1.7-0.3L110.5,179z M115.4,179.3c-0.7,0-1.1-0.5-1.1-1.2
		c0-0.7,0.5-1.2,1.2-1.2c0.7,0,1.1,0.5,1.2,1.2C116.5,178.8,116.1,179.3,115.4,179.3L115.4,179.3z"/>
</g>
</svg>
