<?xml version="1.0" encoding="utf-8"?>
<!-- Generator: Adobe Illustrator 21.1.0, SVG Export Plug-In . SVG Version: 6.00 Build 0)  -->
<svg version="1.1" id="Layer_1" xmlns="http://www.w3.org/2000/svg" xmlns:xlink="http://www.w3.org/1999/xlink" x="0px" y="0px"
	 viewBox="0 0 200 200" style="enable-background:new 0 0 200 200;" xml:space="preserve">
<style type="text/css">
	.st0{fill:#6DB94A;}
	.st1{fill:#231F20;}
	.st2{fill:#FCDB25;}
</style>
<g>
	<path class="st0" d="M168.6,148.9c10.3-8,10.4-15.5,10.4-26.6V10.4C157.6,5.8,125.6,0,100,0h0C74.4,0,42.4,5.8,21,10.4v111.9
		c0,11.1,0,18.7,10.4,26.6c10.6,8.2,68.6,51,68.6,51S158.1,157.1,168.6,148.9z"/>
	<path class="st1" d="M21,10.4C21,10.4,21,10.4,21,10.4l0,111.9c0,11.2,0,18.7,10.4,26.7c10.4,8.1,68.1,50.6,68.6,51c0,0,0,0,0,0
		c0.6-0.4,58.2-43,68.6-51c10.4-8,10.4-15.4,10.4-26.7V10.4c0,0,0,0,0,0C156.9,5.6,125.3,0,100,0C74.7,0,43.1,5.6,21,10.4z M100,0.1
		c25.3,0,56.9,5.6,79,10.4c0,0.1,0,111.9,0,111.9c0,11.2,0,18.6-10.4,26.6c-10.4,8-67.5,50.2-68.6,51c-1.1-0.8-58.2-43-68.6-51
		c-10.3-8-10.3-15.4-10.4-26.6c0,0,0-111.8,0-111.9C43.1,5.7,74.7,0.1,100,0.1z"/>
	<path class="st2" d="M77.4,4.4c7.8-0.8,15.4-1.2,22.6-1.2c24.1,0,54.1,5.2,75.8,9.8c0,4.9,0,109.3,0,109.3c0,11,0,17.1-9.1,24.1
		l0,0c-9.3,7.2-56.6,42.2-66.7,49.6c-3.7-2.7-12.5-9.2-22.6-16.7l0,0L77.4,4.4L77.4,4.4z"/>
	<path class="st1" d="M77.4,4.4C77.4,4.4,77.4,4.4,77.4,4.4l0,174.9c0,0,0,0,0,0L100,196c0,0,0,0,0,0c9.5-7,57.4-42.4,66.7-49.6
		c9.1-7.1,9.1-13.1,9.1-24.2V13c0,0,0,0,0,0c-21.2-4.5-51.5-9.8-75.8-9.8C93.3,3.2,85.7,3.6,77.4,4.4z M77.5,4.4
		C77.5,4.4,77.5,4.4,77.5,4.4L77.5,4.4z M100,3.2c24.3,0,54.6,5.3,75.8,9.8c0,0.1,0,109.3,0,109.3c0,11,0,17.1-9.1,24.1
		c-9.3,7.2-57.1,42.5-66.7,49.6c0,0-22.5-16.7-22.5-16.7s0-174.8,0-174.8C85.7,3.7,93.3,3.2,100,3.2z"/>
	<path class="st0" d="M156.6,66.7c2.8,7.2,1.1,16.8-2.3,23.5c-3.2,6.2-7.7,13.1-10.6,20c-2.8,6.7-1.7,15.2,0.4,19
		c1.6,2.8,3.9,4.4,5,5.1c0.4,0.2,0.5,0.1,0.4-0.3c-0.3-1.4-1-5-0.7-8.7c0.2-3.3,0.7-5.7,1.1-7c0.2-0.6,0.3-0.2,0.3,0.1
		c0.4,9.5,2,13.1,3.5,16.7c1.2,2.9,2.5,5.7,3.1,6.9c0.2,0.3-0.1,0.5-0.3,0.4c-8.8-1.6-14.5-7.2-16.2-14.7c-2.3-9.7-1.2-16.2,3-23.6
		c3-5.3,5.5-9.4,7.4-13c0.6-1.2,2.2-4.9,2.4-5.6c0.7-2.4,1.1-4.8,1.1-7.3c0-4.3-1-8.6-3.1-12.5c-3.6-6.8-11.5-14.1-23.1-14.6
		c-0.8,0-1.5,0-2.3,0c-2.8,0-8.2,0.8-10.2,1.1c-0.5,0.1-0.6,0-0.3-0.1c1-0.5,3.5-1.6,7.9-2.5C136,46.7,150.1,50.1,156.6,66.7z"/>
	<path class="st1" d="M123.1,49.3c-4.5,0.9-7,2-7.9,2.5c-0.2,0.1-0.2,0.1-0.2,0.2c0,0,0,0.1,0.5,0c2.1-0.3,7.4-1,10.2-1.1l0.5,0
		l1.8,0c11.6,0.5,19.5,7.8,23,14.5c2,3.9,3.1,8.2,3.1,12.5c0,2.5-0.4,5-1.1,7.3c-0.2,0.7-1.8,4.4-2.4,5.6c-1.3,2.4-2.8,5.1-4.6,8.2
		l-2.8,4.8c-4.4,7.7-5.2,14.3-3,23.7c1.8,7.8,7.8,13.2,16.3,14.8c0.1,0,0.2,0,0.3-0.1c0.1-0.1,0.1-0.2,0-0.4c-0.5-1.1-1.9-4-3.1-6.9
		l-0.2-0.5c-1.4-3.5-2.9-7.1-3.3-16.2c0-0.2,0-0.4-0.2-0.4c-0.1,0-0.1,0.1-0.2,0.3c-0.3,1.2-0.9,3.7-1.1,7c-0.2,3.7,0.5,7.4,0.7,8.8
		c0,0.2,0,0.3,0,0.3c-0.1,0-0.2,0-0.3-0.1c-1-0.6-3.4-2.2-5-5.1c-1.9-3.5-3.4-11.9-0.4-18.9c1.9-4.4,4.3-8.8,6.7-13
		c1.4-2.4,2.7-4.7,3.8-7c3.3-6.3,5.2-16,2.3-23.5C148.7,46.4,130.5,47.8,123.1,49.3z M115.2,51.9c0.9-0.4,3.4-1.5,7.9-2.5
		c7.4-1.5,25.5-2.9,33.5,17.4c2.9,7.4,1,17.1-2.3,23.4c-1.2,2.2-2.5,4.5-3.8,7c-2.4,4.3-4.9,8.7-6.8,13c-3,7.1-1.5,15.5,0.4,19
		c1.6,2.9,4,4.5,5,5.1c0.2,0.1,0.3,0.1,0.4,0.1c0.1-0.1,0.1-0.2,0.1-0.4c-0.3-1.4-1-5-0.7-8.7c0.2-3.3,0.7-5.8,1.1-7
		c0.1-0.3,0.1-0.3,0.1-0.3c0,0,0.1,0.1,0.1,0.4c0.4,9.1,1.9,12.7,3.3,16.2l0.2,0.5c1.2,2.9,2.6,5.8,3.1,6.9c0.1,0.1,0.1,0.2,0,0.3
		c-0.1,0.1-0.2,0.1-0.2,0.1c-8.5-1.6-14.4-6.9-16.2-14.7c-2.2-9.4-1.4-16,3-23.6l2.8-4.8c1.8-3.1,3.3-5.7,4.6-8.2
		c0.6-1.2,2.2-4.9,2.4-5.6c0.7-2.3,1.1-4.8,1.1-7.3c0-4.3-1.1-8.7-3.1-12.6c-3.5-6.7-11.5-14.1-23.1-14.6l-1.8,0l-0.5,0
		c-2.8,0-8.1,0.8-10.2,1.1c-0.4,0.1-0.4,0-0.4,0C115.1,51.9,115.1,51.9,115.2,51.9z"/>
	<path class="st0" d="M89.5,83.3c-1.1-0.1-3.4-0.4-5.7-0.6c-0.2,0-0.5-0.2-0.2-0.4c1.7-1.6,8.8-8.3,13.6-12.9
		c5.5-5.3,15.4-14,25.9-15.4c12.2-1.6,21.5,5.1,25.5,12.8c6,11.5,2.4,27-12.6,31.8c-0.2,0.1-0.5,0.3-0.5,0.6c0,1.9-0.1,9.7-0.1,12.8
		c0,0.2-0.2,0.4-0.5,0.1c-2.8-2.5-15.7-14-17-15.2c-1.4-1.3-2.8-2.5-2.2-5.6c0.4-2.1,0.7-3.6,0.8-4.4c0.1-0.4-0.1-0.6-0.6-0.6
		c-0.6,0-1.7,0.1-3.1,0.3c-0.2,0-0.7,0.3-0.9,0.7c-0.4,0.6-1.1,1.5-2.1,1.4c-1.6-0.2-1.7-1.9-1.8-3.3c-0.1-1.3-0.4-1-1.9,0.3
		c-1.5,1.2-2.3,1.5-3.6-0.3c-1.3-1.8-3.1-3.5-5.6-1.8c-2.6,1.8-3.2,3.2-2.1,5.1c1.1,1.9,0.4,3.9-1.9,6.7c-1.9,2.3-5.1,6.2-6.1,7.5
		c-0.2,0.2-0.3,0.1-0.1-0.3c0.4-1.3,1.2-4.3,2.3-6.7C90.3,92.5,91,91,91,91s-0.8-1.2-1.2-2.8c-0.4-1.8-0.1-3.4,0.2-4.2
		C90.1,83.6,89.9,83.4,89.5,83.3z M134.4,93.1c0.7-0.1,3.7-0.5,6.2-2.4c2.5-1.9,3.8-4.2,4.6-6.2c0.8-1.9,1-4.8,0.5-6.7
		c0-0.2-0.2-0.4-0.3-0.2c-0.7,1.1-3.4,5.7-5.5,7.9c-2.2,2.4-5,3.2-7.1,3.7c-0.1,0-0.3,0.2-0.3,0.3c0,0.5,0.3,1.9,1.6,3.3
		C134.1,92.9,134.3,93.1,134.4,93.1z M116.3,65.5c-0.1,0-0.1,0.1-0.2,0.1c-0.5,0.5-0.6,1.5-0.4,2.1c0.5,1.1,2.7,1.4,4.5,1.3
		c3.4-0.1,5.2-1.4,5.4-2.9c0.2-1.5-1-3.8-3-4.7c-2-0.9-5.5-1.7-8.2-0.2c-6.5,3.5-12.1,8.9-14.4,11.1l0,0c0,0-0.7,0.7-1.7,1.7
		c-0.1,0.1,0,0.3,0.2,0.4c0.3,0.1,0.7,0.2,1.1,0.3c0.1,0,0.4,0,0.7-0.2c1-0.9,4.3-3.5,8.2-6.2c4.8-3.2,6.5-4.1,8.2-3.9
		c1.8,0.2,1.7,1.2,1.4,1.4C117.3,66.3,116.3,65.5,116.3,65.5z"/>
	<path class="st1" d="M123.1,53.9c-11.4,1.5-22.3,12-25.9,15.4L83.5,82.3c-0.1,0.1-0.1,0.1-0.1,0.2c0,0,0,0,0,0.1
		c0,0.1,0.2,0.2,0.3,0.2l5.7,0.6l0,0l0,0c0.2,0,0.4,0.1,0.4,0.2c0,0.1,0.1,0.1,0.1,0.2c0,0.1,0,0.1,0,0.2c-0.2,0.5-0.4,1.4-0.4,2.5
		c0,0.5,0.1,1.1,0.2,1.7C90.1,89.8,91,91,91,91c0,0-0.7,1.5-2.1,4.7c-1.1,2.5-2,5.5-2.3,6.7c-0.1,0.4-0.1,0.4,0,0.5
		c0.1,0,0.1,0,0.2-0.1l6.1-7.5c2.4-2.9,2.9-4.8,1.9-6.7c-1-1.9-0.5-3.3,2.1-5.1c2.5-1.7,4.2-0.1,5.6,1.8c0.6,0.8,1.1,1.2,1.6,1.3
		c0.6,0.1,1.2-0.3,2-1l0.4-0.3c0.6-0.5,1-0.9,1.2-0.8c0.1,0.1,0.2,0.3,0.2,0.8l0,0.1c0.1,1.3,0.2,3,1.8,3.2c1,0.1,1.7-0.7,2.1-1.4
		c0.2-0.3,0.7-0.6,0.9-0.6l3.1-0.3c0.2,0,0.4,0,0.5,0.1c0.1,0.1,0.1,0.2,0.1,0.4l-0.8,4.4c-0.6,3.1,0.7,4.3,2.1,5.6l0.1,0.1
		c1.4,1.3,16.8,15,17,15.2c0.2,0.2,0.4,0.2,0.4,0.2c0.1,0,0.1-0.1,0.1-0.3l0.1-12.8c0-0.2,0.3-0.5,0.5-0.5
		c8.4-2.7,12.1-8.1,13.8-12.2c2.5-6.1,2.1-13.5-1.2-19.6C144.9,59.7,136,52.2,123.1,53.9z M83.8,82.7c-0.1,0-0.2-0.1-0.3-0.2
		c0-0.1,0-0.1,0.1-0.2l13.6-12.9c3.6-3.4,14.5-13.9,25.9-15.4c12.9-1.7,21.8,5.8,25.5,12.8c3.2,6.2,3.7,13.5,1.2,19.6
		c-1.7,4.1-5.4,9.6-13.8,12.2c-0.2,0.1-0.6,0.3-0.6,0.6l-0.1,12.8c0,0.1,0,0.2-0.1,0.2c-0.1,0-0.2,0-0.4-0.1
		c-0.2-0.1-15.6-13.9-17-15.2l-0.1-0.1c-1.4-1.3-2.7-2.4-2.1-5.5l0.8-4.4c0-0.2,0-0.4-0.1-0.5c-0.1-0.1-0.3-0.2-0.5-0.1l-3.1,0.3
		c-0.2,0-0.7,0.3-0.9,0.7c-0.4,0.7-1.1,1.5-2.1,1.3c-1.5-0.2-1.6-1.8-1.7-3.2l0-0.1c0-0.6-0.1-0.8-0.3-0.9c-0.2-0.1-0.6,0.2-1.3,0.8
		l-0.4,0.3c-0.8,0.7-1.4,1-2,1c-0.5-0.1-1-0.4-1.6-1.2c-1.4-1.9-3.2-3.5-5.7-1.8c-2.6,1.8-3.2,3.2-2.1,5.2c1,1.9,0.5,3.8-1.8,6.7
		l-6.1,7.5c-0.1,0.1-0.1,0.1-0.1,0.1v0c0,0,0,0,0-0.1c0-0.1,0-0.1,0.1-0.3c0.3-1.2,1.2-4.2,2.3-6.7C90.3,92.5,91,91,91,91
		c0,0-0.8-1.2-1.2-2.8c-0.1-0.6-0.2-1.2-0.2-1.7c0-1.1,0.2-2,0.4-2.5c0-0.1,0-0.2,0-0.2c0-0.1,0-0.2-0.1-0.2
		c-0.1-0.1-0.2-0.2-0.5-0.2l0,0L83.8,82.7z M89.5,83.3L89.5,83.3L89.5,83.3z"/>
	<path class="st1" d="M145.3,77.6c-0.6,0.9-3.4,5.7-5.5,7.9c-2.3,2.4-5.1,3.2-7.1,3.7c-0.1,0-0.3,0.2-0.3,0.4c0,0.5,0.3,1.9,1.6,3.3
		c0.1,0.1,0.3,0.2,0.4,0.2l0,0c0.8-0.1,3.8-0.5,6.2-2.4c2-1.5,3.5-3.6,4.6-6.2c0.8-1.9,1-4.9,0.5-6.7c0-0.1-0.1-0.3-0.2-0.3
		C145.4,77.5,145.4,77.5,145.3,77.6z M134.1,92.8c-1.3-1.4-1.5-2.7-1.6-3.2c0-0.1,0.2-0.3,0.3-0.3c2-0.6,4.8-1.3,7.1-3.8
		c2.1-2.2,5-7,5.5-7.9c0,0,0,0,0.1,0c0.1,0,0.1,0.1,0.2,0.2c0.5,1.8,0.3,4.7-0.5,6.7c-1.1,2.6-2.5,4.6-4.6,6.1
		c-2.5,1.9-5.4,2.3-6.2,2.4l0,0C134.3,93,134.1,92.9,134.1,92.8z"/>
	<path class="st1" d="M114.4,61.2c-6.5,3.5-12,8.8-14.4,11.1l-1.8,1.7c0,0-0.1,0.1,0,0.2c0,0.1,0.1,0.2,0.3,0.2l1.1,0.3
		c0.1,0.1,0.5,0,0.7-0.2c1.2-1,4.3-3.6,8.2-6.2c4.6-3.1,6.4-4.1,8.2-3.9c1.2,0.2,1.5,0.7,1.5,0.9c0,0.2,0,0.4-0.1,0.4
		c-0.7,0.5-1.7-0.3-1.7-0.3c0,0,0,0,0,0l-0.2,0.1c-0.5,0.5-0.6,1.6-0.4,2.1c0.5,1.1,2.7,1.4,4.5,1.3c3-0.1,5.2-1.2,5.4-2.9
		c0.2-1.5-0.9-3.8-3-4.7C120.5,60.4,117.1,59.7,114.4,61.2z M99.6,74.6l-1.1-0.3c-0.1,0-0.2-0.1-0.3-0.2c0,0,0-0.1,0-0.1l1.8-1.7
		c2.4-2.3,7.9-7.5,14.4-11c2.7-1.4,6.1-0.8,8.2,0.2c2,0.9,3.2,3.2,3,4.7c-0.3,1.6-2.4,2.8-5.4,2.9c-1.8,0.1-3.9-0.2-4.4-1.3
		c-0.1-0.2-0.1-0.5-0.1-0.7c0-0.5,0.2-1,0.5-1.3c0,0,0.1-0.1,0.1-0.1c0.1,0.1,1,0.8,1.8,0.3c0.1-0.1,0.2-0.3,0.2-0.5
		c-0.1-0.2-0.3-0.7-1.6-0.9c-1.8-0.2-3.7,0.8-8.3,3.9c-3.8,2.6-7,5.2-8.2,6.2C100,74.6,99.7,74.7,99.6,74.6z"/>
	<path class="st0" d="M117.5,102.3c-0.1,0.9-0.2,3.1,0.1,5.1c0.4,2.8,2.1,3.9,5,6.3c2.9,2.4,2.2,5.9,1.9,8.8
		c-0.4,2.9,1.1,4.6,1.1,6.4c0.1,1.9-1.9,4.2-1.9,4.2s-2.8-3.4-2.7-5.4c0.1-2,1.7-3.4,1.4-5.3c-0.3-1.9-1.9-3.4-3.8-5.1
		c-1.9-1.8-2.3-3.7-2-6.5c0.3-2.8-0.4-4.6-1.7-5.8c-1.3-1.2-1.8-1.8-2.1-3.1c-0.3-1-0.2-2.9-0.1-3.9c0-0.4,0.1-0.5,0.3-0.4
		c0.5,0.5,1.8,1.7,4.3,3.8C117.3,101.6,117.5,102,117.5,102.3z"/>
	<path class="st1" d="M112.7,97.6c-0.1,0-0.2,0.2-0.2,0.5c-0.1,1-0.1,2.9,0.1,3.9c0.3,1.3,0.8,1.8,2.1,3.1c1.4,1.3,1.9,3.1,1.7,5.8
		c-0.3,2.7,0,4.7,2,6.6l0.1,0.1c1.9,1.7,3.4,3.1,3.7,5c0.1,1-0.2,1.9-0.7,2.8c-0.3,0.8-0.7,1.6-0.8,2.5c-0.1,2,2.7,5.4,2.7,5.4
		c0,0,0,0,0,0c0,0,0,0,0,0c0,0,2-2.4,1.9-4.3c0-0.7-0.3-1.4-0.5-2.2c-0.4-1.2-0.8-2.5-0.6-4.3l0.1-0.6c0.4-2.8,0.8-6-1.9-8.2l-1-0.8
		c-2.3-1.9-3.7-3-4-5.4c-0.3-2-0.2-4.2-0.1-5.1l0,0c0-0.3-0.2-0.7-0.3-0.8l-4.3-3.8C112.8,97.6,112.8,97.6,112.7,97.6z M120.9,127.9
		C120.9,127.8,120.9,127.8,120.9,127.9c0-1,0.4-1.8,0.7-2.6c0.4-0.8,0.7-1.5,0.7-2.4c0-0.1,0-0.3,0-0.4c-0.3-1.9-1.8-3.3-3.7-5
		l-0.1-0.1c-1.6-1.5-2.1-3.1-2.1-5c0-0.5,0-1,0.1-1.5c0-0.4,0.1-0.8,0.1-1.2c0-2-0.6-3.5-1.7-4.6c-1.3-1.3-1.8-1.8-2.1-3.1
		c-0.1-0.5-0.2-1.3-0.2-2.1c0-0.6,0-1.3,0.1-1.7c0-0.3,0.1-0.4,0.1-0.4c0,0,0.1,0,0.1,0.1l4.3,3.8c0.1,0.1,0.3,0.5,0.3,0.7
		c0,0,0,0,0,0c0,0.5-0.1,1.3-0.1,2.2c0,0.9,0,1.9,0.2,2.9c0.3,2.5,1.7,3.6,4.1,5.5l1,0.8c1.7,1.4,2.2,3.2,2.2,5.1c0,1-0.1,2-0.3,3
		l-0.1,0.6c0,0.3-0.1,0.6-0.1,0.9c0,1.3,0.4,2.4,0.7,3.4c0.2,0.7,0.5,1.4,0.5,2.1c0,0,0,0.1,0,0.1c0,1.7-1.8,3.9-1.9,4.1
		C123.4,132.8,120.9,129.8,120.9,127.9z"/>
	<path class="st0" d="M130.3,118.9c0.2-5.8-4.1-9.6-8.8-13.7c-0.1-0.1-0.4-0.1-0.3,0.1c0.1,0.9,0.3,2.8,0.5,3.6
		c0.2,1.1,1.3,2.5,3.2,3.9c1.9,1.4,3.4,2.7,4.1,4.1C129.4,118,130.3,118.9,130.3,118.9z"/>
	<path class="st1" d="M121.2,105.2c0,0-0.1,0.1-0.1,0.3c0.1,0.8,0.3,2.8,0.5,3.6c0.2,1.1,1.3,2.5,3.2,3.9c1.6,1.2,3.3,2.6,4,4
		c0.6,1.1,1.4,2,1.4,2c0,0,0,0,0,0c0,0,0,0,0,0c0.2-5.8-4.2-9.7-8.8-13.7C121.4,105.2,121.3,105.1,121.2,105.2z M128.9,116.9
		c-0.8-1.4-2.5-2.9-4.1-4.1c-1.8-1.4-3-2.8-3.2-3.9c-0.1-0.8-0.4-2.8-0.5-3.6c0,0,0,0,0-0.1c0-0.1,0-0.1,0.1-0.1
		c0.1,0,0.1,0,0.2,0.1c4.5,3.9,8.8,7.6,8.8,13.2c0,0.1,0,0.2,0,0.4C130,118.6,129.4,117.8,128.9,116.9z"/>
	<path class="st0" d="M111.6,119.4c0-0.4,0.1-0.5,0.4-0.3c0.8,0.6,2.4,1.8,3.3,2.4c1.1,0.9,1.9,3.2,1.5,5.7
		c-0.4,2.6,0.2,3.5,0.7,5.6c0.5,2,0.1,4.3,0.1,4.3s-0.8-1.1-2.6-2.9c-1.9-1.8-1.9-3.5-1.5-5.8c0.4-2.3-0.4-4.5-1-5.3
		C112,122.5,111.7,120.5,111.6,119.4z"/>
	<path class="st1" d="M111.7,119c-0.1,0.1-0.1,0.2-0.1,0.4l0,0c0.1,1.1,0.4,3.1,0.8,3.7c0.6,0.8,1.3,3,1,5.3c-0.3,2.1-0.4,4,1.5,5.9
		c1.8,1.7,2.6,2.9,2.6,2.9c0,0,0,0,0,0c0,0,0,0,0,0c0,0,0.4-2.3-0.1-4.3l-0.3-1.2c-0.4-1.3-0.7-2.4-0.4-4.4c0.5-2.7-0.4-4.9-1.5-5.8
		L112,119C111.8,118.9,111.7,118.9,111.7,119z M114.9,134.2c-1.3-1.2-1.7-2.5-1.7-3.8c0-0.6,0.1-1.3,0.2-1.9
		c0.1-0.4,0.1-0.8,0.1-1.3c0-1.8-0.6-3.4-1.1-4.1c-0.5-0.6-0.7-2.8-0.8-3.7l0,0c0,0,0-0.1,0-0.1c0-0.1,0-0.2,0.1-0.2
		c0.1,0,0.1,0,0.2,0.1l3.3,2.4c0.9,0.7,1.6,2.3,1.6,4.3c0,0.5,0,0.9-0.1,1.4c-0.1,0.6-0.1,1.1-0.1,1.6c0,1.1,0.2,1.9,0.5,2.8
		l0.3,1.2c0.2,0.8,0.3,1.5,0.3,2.2c0,1-0.1,1.8-0.2,2C117.3,136.8,116.5,135.7,114.9,134.2z"/>
	<path class="st0" d="M106.6,121.9c0-0.2,0-0.6,0.3-0.4c0.8,0.6,2.4,2.2,3.1,4.4c0.9,3,0.3,4.5-0.4,7.1c-0.7,2.6-0.8,5.6,1.7,8.3
		c0,0-3-0.8-4.5-2.6c-1.5-1.8-2.1-4.8-1.4-7.7C106,128.3,107.2,126.1,106.6,121.9z"/>
	<path class="st1" d="M106.6,121.4c-0.1,0.1-0.1,0.3-0.1,0.5l0,0c0.5,3.2-0.1,5.3-0.7,7.3l-0.5,1.8c-0.7,2.9-0.1,5.9,1.4,7.7
		c1.5,1.8,4.5,2.6,4.5,2.6c0,0,0,0,0,0c0,0,0,0,0,0c-2-2.2-2.6-4.9-1.7-8.3l0.2-0.7c0.6-2.1,1-3.6,0.2-6.3c-0.7-2.3-2.4-3.9-3.1-4.5
		C106.8,121.4,106.7,121.4,106.6,121.4z M106.7,138.7c-1.1-1.3-1.7-3.2-1.7-5.2c0-0.8,0.1-1.6,0.3-2.4l0.5-1.8
		c0.5-1.5,0.9-3.1,0.9-5.1c0-0.7-0.1-1.4-0.2-2.2l0,0c0,0,0-0.1,0-0.1c0-0.1,0-0.3,0.1-0.3c0,0,0.1,0,0.2,0c0.7,0.6,2.4,2.1,3.1,4.4
		c0.3,1,0.4,1.9,0.4,2.7c0,1.2-0.3,2.3-0.7,3.6l-0.2,0.7c-0.3,1-0.4,2-0.4,2.9c0,2,0.7,3.8,2,5.3
		C110.6,141.1,108.1,140.3,106.7,138.7z"/>
	<path class="st0" d="M100.9,126.7c0.2-0.3,0.4-0.4,0.5-0.1c0.3,0.9,0.9,2.8,0.4,4.9c-0.6,2.8-0.9,5.1-0.7,8.1c0,0-1.1-0.7-2.4-2.6
		c-1.3-1.9,0.1-5.6,0.6-7.1C99.7,128.9,100.5,127.5,100.9,126.7z"/>
	<path class="st1" d="M100.9,126.7L100.9,126.7c-0.4,0.7-1.2,2.2-1.5,3.3l-0.1,0.4c-0.6,1.8-1.7,5.1-0.5,6.8
		c1.3,1.8,2.4,2.6,2.4,2.6c0,0,0,0,0,0c0,0,0,0,0,0c-0.2-3.2,0.1-5.6,0.7-8.1c0.5-2.2-0.1-4.2-0.4-5c-0.1-0.2-0.1-0.2-0.2-0.2
		C101.1,126.4,101,126.5,100.9,126.7z M98.8,137.1c-0.4-0.6-0.5-1.3-0.5-2.1c0-1.6,0.6-3.5,1-4.7l0.1-0.4c0.4-1.1,1.1-2.5,1.5-3.2v0
		c0.1-0.2,0.2-0.3,0.3-0.3c0.1,0,0.1,0.1,0.1,0.2c0.2,0.6,0.6,1.8,0.6,3.3c0,0.5,0,1.1-0.2,1.6c-0.5,2.1-0.8,4-0.8,6.4
		c0,0.5,0,1.1,0.1,1.7C100.9,139.4,99.9,138.7,98.8,137.1z"/>
	<path class="st0" d="M95.8,141.3c0,0-0.4-2.8-1.1-4.4c-0.6-1.6-0.4-3.9,0.5-5.7c0.9-1.8,2.1-3.8-0.3-7.5c-0.1-0.2-0.4-0.3-0.4,0.2
		c-0.1,0.8-0.5,2.1-1.5,3.7c-1.6,2.6-2.8,5.7-2.2,8.5C91.4,138.7,95.8,141.3,95.8,141.3z"/>
	<path class="st1" d="M94.7,123.4c-0.1,0-0.2,0.1-0.2,0.4c-0.1,0.8-0.5,2.1-1.5,3.7c-2,3.3-2.7,6.2-2.2,8.5c0.6,2.7,4.9,5.3,5,5.3
		c0,0,0,0,0,0c0,0,0,0,0,0c0,0-0.4-2.8-1.1-4.4c-0.6-1.6-0.4-3.9,0.5-5.7l0.1-0.1c0.9-1.8,2-3.8-0.3-7.4
		C94.9,123.5,94.8,123.4,94.7,123.4z M90.9,136c-0.1-0.5-0.2-1-0.2-1.5c0-2,0.8-4.3,2.4-6.9c1-1.6,1.4-2.9,1.5-3.7
		c0-0.2,0.1-0.3,0.2-0.3c0.1,0,0.2,0.1,0.2,0.1c1,1.6,1.4,2.9,1.4,4c0,1.3-0.5,2.4-1,3.3l-0.1,0.1c-0.6,1.1-0.9,2.4-0.9,3.7
		c0,0.8,0.1,1.5,0.4,2.1c0.6,1.5,1,4,1,4.3C95.2,140.9,91.4,138.5,90.9,136z"/>
	<path class="st0" d="M90.5,121.9c0.2-0.2,0.4-0.2,0.4,0.1c0,0.9-0.1,2.7-1.3,3.7c-1.5,1.2-2.5,2.9-1.8,5.7c0,0-1.9-0.8-2.3-3.2
		c-0.4-2.4,0.9-3.6,2.2-4.3C88.7,123.5,89.9,122.5,90.5,121.9z"/>
	<path class="st1" d="M90.4,121.9L90.4,121.9c-0.6,0.5-1.8,1.5-2.7,2c-1.8,0.9-2.5,2.4-2.2,4.4c0.4,2.4,2.3,3.2,2.3,3.2c0,0,0,0,0,0
		c0,0,0,0,0,0c-0.6-2.4,0-4.2,1.8-5.7c1.1-0.9,1.3-2.7,1.3-3.7c0-0.2-0.1-0.3-0.1-0.3C90.7,121.8,90.6,121.8,90.4,121.9z
		 M90.7,121.9c0,0,0.1,0.1,0.1,0.2c0,0,0,0,0,0c0,0.8-0.1,2.7-1.2,3.6c-1.4,1.1-2,2.4-2,4c0,0.5,0.1,1.1,0.2,1.7
		c-0.3-0.1-1.9-1-2.2-3.1c0-0.3-0.1-0.5-0.1-0.8c0-1.5,0.7-2.7,2.2-3.5c0.9-0.5,2.1-1.5,2.7-2l0,0C90.6,121.9,90.7,121.8,90.7,121.9
		z"/>
	<path class="st0" d="M90.2,107c-0.2,0-0.7,0.2-0.8,0.7c-0.2,0.8-0.5,2.2-0.5,3.3c0.1,1.7,1.7,2.7,1.9,3.7c0.2,1-0.4,1.9-0.4,1.9
		s2.3,0.2,2.6-1.6c0.5-2.4-0.8-2.6-0.8-4.4C92.2,108.9,92.6,107.2,90.2,107z"/>
	<path class="st1" d="M89.3,107.6c-0.2,0.7-0.6,2.2-0.5,3.3c0.1,1,0.6,1.8,1.1,2.5c0.3,0.5,0.6,0.9,0.7,1.2c0.2,0.9-0.3,1.9-0.3,1.9
		c0,0,0,0,0,0c0,0,0,0,0,0c0,0,2.3,0.1,2.7-1.6c0.3-1.4,0-2.1-0.3-2.7c-0.2-0.5-0.5-1-0.5-1.7l0-0.6c0-1.5,0.1-2.8-2.1-3l0,0
		C90,106.9,89.5,107.2,89.3,107.6z M90.8,115c0-0.1,0-0.3,0-0.4c-0.1-0.4-0.4-0.8-0.7-1.3c-0.5-0.7-1.1-1.4-1.1-2.4
		c0-0.1,0-0.2,0-0.3c0-1.1,0.3-2.3,0.5-3c0.1-0.4,0.6-0.7,0.8-0.6l0,0c2.1,0.2,2,1.5,2,2.9l0,0.6c0,0.8,0.2,1.3,0.5,1.8
		c0.3,0.7,0.6,1.3,0.3,2.6c-0.4,1.6-2.3,1.6-2.6,1.6C90.5,116.4,90.8,115.8,90.8,115z"/>
	<path class="st0" d="M112,52.2c0.2,0.3,0.3,0.2,0.3-0.2c0.1-1.6,0-6.1-2.4-10.2c-2.6-4.5-9.6-10.6-11.5-12.1
		c-0.3-0.2-0.3-0.5,0.1-0.7c2.5-1.5,13.8-7.6,29.3-4.2c17.6,3.9,32.2,14.4,36.1,29.4c3.9,15,0.2,27.2-5.8,39.5
		c-5.6,11.6-6.3,13.9-7.1,17c-0.1,0.2,0,0.4,0.3,0.1c1.3-1.8,5.5-9.1,10-18.5c5.9-12.2,9.3-23.1,6.3-37.9c-3-14.8-14.4-24-25.9-29.9
		c-9.3-4.7-32.5-10.8-52.5,4.8c-0.2,0.2-0.4,0.5-0.1,0.6c2.1,0.9,10.9,4.9,14.9,10C107.8,45,111.1,50.6,112,52.2z"/>
	<path class="st1" d="M89.1,29.4c-0.1,0.1-0.3,0.3-0.3,0.5c0,0.1,0.1,0.1,0.2,0.2c1.8,0.8,10.8,4.9,14.9,10
		c3.9,4.9,7.2,10.5,8.1,12.1l0,0c0.1,0.1,0.2,0.2,0.2,0.2c0.1,0,0.1-0.1,0.1-0.4c0.1-1.7,0-6.1-2.4-10.3
		c-2.6-4.5-9.4-10.4-11.5-12.1c-0.1-0.1-0.2-0.2-0.2-0.3c0-0.1,0.1-0.2,0.3-0.3c2.1-1.3,13.6-7.6,29.3-4.2
		c18.9,4.2,32.4,15.1,36.1,29.4c4.1,15.8-0.4,28.3-5.8,39.5c-5.5,11.4-6.3,13.8-7.1,17c0,0.1,0,0.3,0,0.3c0.1,0,0.2,0,0.3-0.2
		c1.2-1.7,5.3-8.7,10-18.5c6.1-12.6,9.2-23.4,6.3-37.9c-2.5-12.3-11.2-22.4-25.9-29.9C131.2,19.2,108.4,14.2,89.1,29.4z M112,52.1
		L112,52.1c-0.9-1.6-4.2-7.2-8.1-12.1C99.8,34.9,90.8,30.8,89,30c-0.1,0-0.1-0.1-0.1-0.1c0-0.1,0.1-0.3,0.3-0.5
		c19.3-15.1,42.1-10.1,52.5-4.8c14.7,7.5,23.4,17.5,25.9,29.9c2.9,14.5-0.2,25.3-6.3,37.9c-4.7,9.8-8.8,16.9-10,18.5
		c-0.1,0.2-0.2,0.2-0.2,0.2c0,0,0-0.1,0-0.2c0.8-3.2,1.5-5.6,7.1-17c5.4-11.2,9.9-23.7,5.8-39.5c-3.7-14.2-17.2-25.2-36.1-29.4
		c-15.7-3.4-27.2,2.9-29.3,4.2c-0.2,0.1-0.3,0.2-0.3,0.4c0,0.1,0.1,0.3,0.2,0.4c2,1.7,8.9,7.6,11.5,12.1c2.4,4.1,2.5,8.5,2.4,10.2
		c0,0.3-0.1,0.3-0.1,0.3C112.2,52.3,112.1,52.3,112,52.1z"/>
	<path class="st0" d="M86.6,157.3v14.4c0,1.1,0,1.8,0.1,2.1c0.1,0.3,0.2,0.5,0.4,0.7c0.2,0.2,0.5,0.3,0.9,0.3h0.3v0.4h-6v-0.4h0.3
		c0.5,0,0.8-0.1,1.1-0.3c0.2-0.2,0.4-0.4,0.4-0.7c0.1-0.3,0.1-1,0.1-2.1v-9.1c0-0.8,0-1.3-0.1-1.5c-0.1-0.2-0.1-0.4-0.3-0.5
		c-0.1-0.1-0.3-0.2-0.5-0.2c-0.3,0-0.6,0.1-1,0.4l-0.2-0.4l4.2-3H86.6z"/>
	<path class="st1" d="M86.3,157.3l-4.2,3c0,0,0,0,0,0l0.2,0.4c0,0,0,0,0,0c0,0,0,0,0,0c0.4-0.3,0.7-0.4,1-0.4c0.2,0,0.3,0.1,0.5,0.2
		c0.1,0.1,0.2,0.3,0.3,0.5c0,0.2,0.1,0.7,0.1,1.5v9.1c0,1.1,0,1.8-0.1,2.1c-0.1,0.3-0.2,0.5-0.4,0.7c-0.2,0.2-0.5,0.3-1,0.3h-0.3
		c0,0,0,0,0,0v0.4c0,0,0,0,0,0h6c0,0,0,0,0,0v-0.4c0,0,0,0,0,0H88c-0.4,0-0.7-0.1-0.9-0.3c-0.2-0.2-0.3-0.4-0.4-0.7
		c-0.1-0.3-0.1-1-0.1-2.1v-14.4c0,0,0,0,0,0H86.3z M86.3,157.4c0,0,0.2,0,0.2,0c0,0.1,0,14.3,0,14.3c0,1.1,0,1.8,0.1,2.1
		c0.1,0.3,0.2,0.6,0.4,0.8c0.2,0.2,0.5,0.3,1,0.3c0,0,0.2,0,0.2,0c0,0.1,0,0.3,0,0.4c-0.1,0-5.9,0-6,0c0-0.1,0-0.3,0-0.4
		c0.1,0,0.3,0,0.3,0c0.5,0,0.9-0.1,1.1-0.3c0.2-0.2,0.4-0.4,0.4-0.7c0.1-0.3,0.1-1,0.1-2.2v-9.1c0-0.8,0-1.3-0.1-1.5
		c-0.1-0.2-0.2-0.4-0.3-0.5c-0.1-0.1-0.3-0.2-0.5-0.2c-0.3,0-0.6,0.1-1,0.4c0-0.1-0.1-0.3-0.1-0.4C82.2,160.3,86.3,157.4,86.3,157.4
		z"/>
	<path class="st0" d="M90.2,175.6v-0.4c0.9-0.3,1.7-0.8,2.4-1.5c0.6-0.6,1.2-1.4,1.5-2.4c0.4-0.9,0.6-2,0.8-3.3
		c-0.3,0.3-0.6,0.5-0.9,0.6c-0.2,0.1-0.5,0.2-0.8,0.2c-0.8,0-1.6-0.5-2.1-1.4c-0.6-1-0.8-2.3-0.8-3.9c0-1.1,0.2-2.2,0.5-3.2
		c0.3-1,0.7-1.7,1.3-2.2c0.6-0.5,1.2-0.8,1.8-0.8c0.7,0,1.3,0.3,1.9,0.9c0.6,0.6,1.1,1.4,1.4,2.5c0.3,1.1,0.5,2.4,0.5,3.8
		c0,1.8-0.3,3.6-0.9,5.3c-0.6,1.7-1.4,3-2.6,4.1C93.1,175,91.7,175.5,90.2,175.6z M95,167.1c0.1-1,0.1-1.8,0.1-2.6
		c0-1.6-0.1-3-0.3-4.4c-0.1-0.8-0.3-1.3-0.6-1.7c-0.1-0.2-0.3-0.3-0.5-0.3c-0.3,0-0.5,0.2-0.6,0.6c-0.2,0.5-0.3,1.5-0.3,2.9
		c0,2.4,0.2,4,0.5,5c0.2,0.6,0.5,0.9,0.9,0.9C94.4,167.5,94.6,167.3,95,167.1z"/>
	<path class="st1" d="M92,158.1c-0.6,0.5-1,1.3-1.3,2.2c-0.3,1-0.5,2-0.5,3.2c0,1.7,0.3,3,0.9,3.9c0.6,1,1.3,1.4,2.2,1.4
		c0.3,0,0.5-0.1,0.8-0.2c0.2-0.1,0.5-0.3,0.8-0.5c-0.2,1.2-0.4,2.3-0.8,3.2c-0.4,0.9-0.9,1.7-1.5,2.4c-0.6,0.6-1.4,1.1-2.3,1.5
		c0,0,0,0,0,0v0.4c0,0,0,0,0,0c0,0,0,0,0,0c1.6-0.1,2.9-0.6,4.1-1.7c1.1-1,2-2.4,2.6-4.1c0.6-1.7,0.9-3.5,0.9-5.3
		c0-1.4-0.2-2.7-0.5-3.8c-0.4-1.1-0.8-2-1.4-2.6c-0.6-0.6-1.2-0.9-1.9-0.9C93.2,157.3,92.6,157.6,92,158.1z M91.1,167.4
		c-0.6-0.9-0.8-2.3-0.8-3.9c0-1.1,0.2-2.2,0.5-3.1c0.3-0.9,0.7-1.7,1.3-2.2c0.6-0.5,1.2-0.8,1.8-0.8c0.6,0,1.3,0.3,1.8,0.9
		c0.6,0.6,1.1,1.4,1.4,2.5c0.3,1.1,0.5,2.4,0.5,3.8c0,1.8-0.3,3.6-0.9,5.3c-0.6,1.7-1.4,3-2.6,4.1c-1.1,1-2.5,1.6-4,1.6
		c0-0.1,0-0.3,0-0.3c0.9-0.3,1.7-0.8,2.4-1.5c0.6-0.6,1.2-1.4,1.5-2.4c0.4-0.9,0.6-2,0.8-3.3c0,0,0,0,0,0c0,0,0,0,0,0c0,0,0,0,0,0
		c-0.3,0.3-0.6,0.5-0.9,0.6c-0.2,0.1-0.5,0.2-0.7,0.2C92.4,168.8,91.7,168.3,91.1,167.4z"/>
	<path class="st1" d="M93,158.7c-0.2,0.5-0.3,1.5-0.3,2.9c0,2.4,0.2,4.1,0.5,5c0.2,0.6,0.6,0.9,1,0.9c0.2,0,0.5-0.1,0.9-0.4
		c0,0,0,0,0,0c0.1-1,0.1-1.8,0.1-2.6c0-1.6-0.1-3-0.3-4.4c-0.1-0.8-0.3-1.3-0.6-1.7c-0.1-0.2-0.3-0.3-0.6-0.3
		C93.3,158.1,93.1,158.3,93,158.7z M93.2,166.6c-0.4-0.9-0.5-2.6-0.5-4.9c0-1.4,0.1-2.4,0.3-2.9c0.1-0.4,0.3-0.5,0.6-0.5
		c0.2,0,0.4,0.1,0.5,0.3c0.2,0.3,0.4,0.9,0.6,1.6c0.2,1.3,0.3,2.8,0.3,4.4c0,0.7,0,1.6-0.1,2.5c-0.3,0.3-0.6,0.4-0.8,0.4l0,0
		C93.8,167.4,93.5,167.2,93.2,166.6z"/>
	<path class="st0" d="M98.8,175.6v-0.4c0.9-0.3,1.7-0.8,2.4-1.5c0.6-0.6,1.2-1.4,1.5-2.4c0.4-0.9,0.6-2,0.8-3.3
		c-0.3,0.3-0.6,0.5-0.9,0.6c-0.2,0.1-0.5,0.2-0.8,0.2c-0.8,0-1.6-0.5-2.1-1.4c-0.6-1-0.8-2.3-0.8-3.9c0-1.1,0.2-2.2,0.5-3.2
		c0.3-1,0.7-1.7,1.3-2.2c0.6-0.5,1.2-0.8,1.8-0.8c0.7,0,1.3,0.3,1.9,0.9c0.6,0.6,1.1,1.4,1.4,2.5c0.3,1.1,0.5,2.4,0.5,3.8
		c0,1.8-0.3,3.6-0.9,5.3c-0.6,1.7-1.4,3-2.6,4.1C101.7,175,100.4,175.5,98.8,175.6z M103.6,167.1c0.1-1,0.1-1.8,0.1-2.6
		c0-1.6-0.1-3-0.3-4.4c-0.1-0.8-0.3-1.3-0.6-1.7c-0.1-0.2-0.3-0.3-0.5-0.3c-0.3,0-0.5,0.2-0.6,0.6c-0.2,0.5-0.3,1.5-0.3,2.9
		c0,2.4,0.2,4,0.5,5c0.2,0.6,0.5,0.9,0.9,0.9C103,167.5,103.3,167.3,103.6,167.1z"/>
	<path class="st1" d="M100.7,158.1c-0.6,0.5-1,1.3-1.3,2.2c-0.3,1-0.5,2-0.5,3.2c0,1.7,0.3,3,0.9,3.9c0.6,1,1.3,1.4,2.2,1.4
		c0.3,0,0.5-0.1,0.8-0.2c0.2-0.1,0.5-0.3,0.8-0.5c-0.2,1.2-0.4,2.3-0.8,3.2c-0.4,0.9-0.9,1.7-1.5,2.4c-0.6,0.6-1.4,1.1-2.3,1.5
		c0,0,0,0,0,0v0.4c0,0,0,0,0,0c0,0,0,0,0,0c1.6-0.1,2.9-0.6,4.1-1.7c1.1-1,2-2.4,2.6-4.1c0.6-1.7,0.9-3.5,0.9-5.3
		c0-1.4-0.2-2.7-0.5-3.8c-0.4-1.1-0.8-2-1.4-2.6c-0.6-0.6-1.2-0.9-1.9-0.9C101.8,157.3,101.2,157.6,100.7,158.1z M99.8,167.4
		c-0.6-0.9-0.8-2.3-0.8-3.9c0-1.1,0.2-2.2,0.5-3.1c0.3-0.9,0.7-1.7,1.3-2.2c0.6-0.5,1.2-0.8,1.8-0.8c0.6,0,1.3,0.3,1.8,0.9
		c0.6,0.6,1.1,1.4,1.4,2.5c0.3,1.1,0.5,2.4,0.5,3.8c0,1.8-0.3,3.6-0.9,5.3c-0.6,1.7-1.4,3-2.6,4.1c-1.1,1-2.5,1.6-4,1.6
		c0-0.1,0-0.3,0-0.3c0.9-0.3,1.7-0.8,2.3-1.5c0.6-0.6,1.2-1.4,1.5-2.4c0.4-0.9,0.6-2,0.8-3.3c0,0,0,0,0,0c0,0,0,0,0,0c0,0,0,0,0,0
		c-0.3,0.3-0.6,0.5-0.9,0.6c-0.2,0.1-0.5,0.2-0.7,0.2C101,168.8,100.3,168.3,99.8,167.4z"/>
	<path class="st1" d="M101.6,158.7c-0.2,0.5-0.3,1.5-0.3,2.9c0,2.4,0.2,4.1,0.5,5c0.2,0.6,0.6,0.9,1,0.9c0.2,0,0.5-0.1,0.9-0.4
		c0,0,0,0,0,0c0.1-1,0.1-1.8,0.1-2.6c0-1.6-0.1-3-0.3-4.4c-0.1-0.8-0.3-1.3-0.6-1.7c-0.1-0.2-0.3-0.3-0.6-0.3
		C102,158.1,101.8,158.3,101.6,158.7z M101.9,166.6c-0.4-0.9-0.5-2.6-0.5-4.9c0-1.4,0.1-2.4,0.3-2.9c0.1-0.4,0.3-0.5,0.6-0.5
		c0.2,0,0.4,0.1,0.5,0.3c0.2,0.3,0.4,0.9,0.6,1.6c0.2,1.3,0.3,2.8,0.3,4.4c0,0.7,0,1.6-0.1,2.5c-0.3,0.3-0.6,0.4-0.8,0.4l0,0
		C102.4,167.4,102.1,167.2,101.9,166.6z"/>
	<path class="st0" d="M114.4,174.6c0.2,0.2,0.5,0.3,0.9,0.3h0.3v0.4h-6v-0.4h0.3c0.5,0,0.8-0.1,1.1-0.3c0.2-0.2,0.3-0.3,0.4-0.6
		c0.1-0.4,0.2-0.6,0.2-0.9v-1.7h-4.1v-2.7l5.4-11.3h1v11.3h1.1v2.7h-1.1v1.8C113.8,173.8,113.9,174.2,114.4,174.6z M108.1,168.7h3.4
		v-7L108.1,168.7z"/>
	<path class="st1" d="M112.8,157.3l-5.5,11.4l0,2.7c0,0,0,0,0,0c0,0,4,0,4.1,0c0,0.1,0,1.6,0,1.6c0,0.3,0,0.5-0.2,0.9
		c-0.1,0.3-0.2,0.4-0.4,0.6c-0.2,0.2-0.5,0.3-1,0.3h-0.3c0,0,0,0,0,0v0.4c0,0,0,0,0,0h6c0,0,0,0,0,0v-0.4c0,0,0,0,0,0h-0.3
		c-0.4,0-0.7-0.1-0.9-0.3l0,0c-0.4-0.3-0.5-0.7-0.5-1.4c0,0,0-1.7,0-1.7c0.1,0,1,0,1,0c0,0,0,0,0,0v-2.7c0,0,0,0,0,0c0,0-1,0-1,0
		c0-0.1,0-11.3,0-11.3c0,0,0,0,0,0H112.8z M107.4,168.7l5.4-11.3c0,0,0.9,0,1,0c0,0.1,0,11.3,0,11.3c0,0,0,0,0,0c0,0,1,0,1,0
		c0,0.1,0,2.6,0,2.6c-0.1,0-1,0-1,0c0,0,0,0,0,0v1.8c0,0.7,0.1,1.1,0.6,1.5l0,0c0.2,0.2,0.6,0.3,1,0.3c0,0,0.2,0,0.2,0
		c0,0.1,0,0.3,0,0.4c-0.1,0-5.9,0-6,0c0-0.1,0-0.3,0-0.4c0.1,0,0.3,0,0.3,0c0.5,0,0.9-0.1,1.1-0.3c0.2-0.2,0.3-0.4,0.5-0.7
		c0.1-0.4,0.2-0.7,0.2-0.9v-1.7c0,0,0,0,0,0c0,0-4,0-4.1,0C107.4,171.3,107.4,168.7,107.4,168.7z"/>
	<path class="st1" d="M111.4,161.6l-3.4,7c0,0,0,0,0,0c0,0,0,0,0,0h3.4c0,0,0,0,0,0L111.4,161.6
		C111.5,161.6,111.5,161.6,111.4,161.6C111.5,161.6,111.4,161.6,111.4,161.6z M111.4,161.8c0,0.3,0,6.8,0,6.8c-0.1,0-3.2,0-3.3,0
		C108.2,168.5,111.3,162.1,111.4,161.8z"/>
	<path class="st2" d="M49.8,32.4l4.3,7.5h-8.6L49.8,32.4z M39.5,50.5h20.7l4.3,7.5h12.2L49.8,11L23,58.1h12.2L39.5,50.5z"/>
	<path class="st1" d="M49.8,32.4C49.8,32.4,49.8,32.4,49.8,32.4l-4.3,7.5c0,0,0,0,0,0c0,0,0,0,0,0h8.6c0,0,0,0,0,0c0,0,0,0,0,0
		L49.8,32.4C49.9,32.4,49.8,32.4,49.8,32.4z M49.8,32.5c0.1,0.1,4.2,7.3,4.2,7.4c-0.1,0-8.3,0-8.4,0C45.7,39.8,49.8,32.6,49.8,32.5z
		"/>
	<path class="st1" d="M49.8,11L23,58c0,0,0,0,0,0c0,0,0,0,0,0h12.2c0,0,4.3-7.5,4.3-7.5c0,0,20.7,0,20.7,0l4.3,7.5l12.2,0
		c0,0,0,0,0,0c0,0,0,0,0,0L49.8,11C49.9,11,49.8,11,49.8,11C49.8,11,49.8,11,49.8,11z M49.8,11.1c0.1,0.1,26.7,46.8,26.8,46.9
		c-0.1,0-12.2,0-12.2,0l-4.3-7.5l-20.7,0c0,0,0,0,0,0L35.2,58c0,0-12,0-12.1,0C23.1,57.9,49.8,11.2,49.8,11.1z"/>
	<path class="st2" d="M38.6,79.6h24.4v10.6H38.6l0,0c2.2,5.9,7.9,10.2,14.5,10.2c5.8,0,11-3.2,13.7-8.3l9.4,4.9
		c-4.4,8.3-13.1,14-23.1,14C38.7,111,27,99.3,27,84.9c0-14.4,11.7-26.1,26.1-26.1c7.6,0,14.4,3.2,19.1,8.3l-7.8,7.2
		c-3-3.2-7-4.9-11.4-4.9C46.4,69.4,40.7,73.6,38.6,79.6L38.6,79.6z"/>
	<path class="st1" d="M27,84.9C27,99.3,38.7,111,53.1,111c9.7,0,18.6-5.4,23.1-14c0,0,0,0,0,0l-9.4-4.9c0,0,0,0,0,0c0,0,0,0,0,0
		c-2.7,5.1-7.9,8.3-13.7,8.3c-6.4,0-12.3-4.1-14.5-10.1c0.1,0,24.3,0,24.3,0c0,0,0,0,0,0V79.6c0,0,0,0,0,0c0,0-24.2,0-24.3,0
		c2.2-6,8.1-10.1,14.5-10.1c4.3,0,8.4,1.8,11.3,4.9c0,0,0,0,0,0l7.8-7.2c0,0,0,0,0,0c0,0,0,0,0,0c-4.9-5.3-11.9-8.3-19.1-8.3
		C38.7,58.8,27,70.5,27,84.9z M27,84.9c0-14.4,11.7-26.1,26.1-26.1c7.2,0,14.2,3,19.1,8.3c-0.1,0.1-7.7,7.1-7.7,7.2
		c-3-3.2-7-4.9-11.4-4.9c-6.5,0-12.3,4.1-14.6,10.2c0,0,0,0,0,0c0,0,0,0,0,0c0,0,24.3,0,24.3,0c0,0.1,0,10.5,0,10.5
		c-0.1,0-24.3,0-24.3,0c0,0,0,0,0,0c0,0,0,0,0,0c0,0,0,0,0,0c2.2,6.1,8.1,10.2,14.6,10.2c5.8,0,11-3.2,13.7-8.3
		c0.1,0,9.3,4.9,9.3,4.9c-4.5,8.6-13.4,13.9-23.1,13.9C38.7,111,27,99.3,27,84.9z M38.6,79.6L38.6,79.6
		C38.6,79.6,38.6,79.6,38.6,79.6z M38.6,90.2L38.6,90.2C38.6,90.2,38.6,90.2,38.6,90.2z"/>
	<path class="st2" d="M41.1,152.3c-3.5-2.6-6.2-4.7-7.8-5.9c-1-0.8-2-1.6-2.8-2.4l0,0v-32.1h10.6v18.3l23.5-18.8l6.6,8.3l-20,15.9
		l24.4,18.9l-6.5,8.4l-26.5-20.5l-1.6,1.3L41.1,152.3L41.1,152.3z"/>
	<path class="st1" d="M64.6,111.4c0,0-23.3,18.6-23.4,18.7c0-0.1,0-18.2,0-18.2c0,0,0,0,0,0H30.5c0,0,0,0,0,0V144
		c0.8,0.8,1.8,1.6,2.8,2.4c1.5,1.2,4.1,3.2,7.8,5.9c0,0,0,0,0.1,0c0,0,0,0,0,0v-8.6c0,0,1.5-1.2,1.6-1.2c0,0,26.5,20.5,26.5,20.5
		c0,0,0,0,0,0c0,0,0,0,0,0l6.5-8.4c0,0,0,0,0,0c0,0,0,0,0,0c0,0-24.3-18.9-24.4-18.9c0.1-0.1,19.9-15.9,19.9-15.9c0,0,0,0,0,0
		c0,0,0,0,0,0L64.6,111.4C64.6,111.4,64.6,111.4,64.6,111.4z M41.1,130.2c0,0,23.4-18.7,23.5-18.7c0,0.1,6.5,8.2,6.6,8.2
		c-0.1,0-19.9,15.9-19.9,15.9c0,0,0,0,0,0c0,0,0,0,0,0c0,0,0,0,0,0c0,0,24.4,18.9,24.4,18.9c0,0.1-6.4,8.3-6.5,8.3
		c-0.1,0-26.5-20.5-26.5-20.5c0,0,0,0,0,0l-1.6,1.3c0,0,0,8.4,0,8.6c-3.6-2.7-6.3-4.7-7.8-5.9c-1-0.8-2-1.6-2.8-2.4c0,0,0-32,0-32.1
		c0.1,0,10.5,0,10.5,0C41.1,112,41.1,130.2,41.1,130.2C41.1,130.2,41.1,130.2,41.1,130.2C41.1,130.2,41.1,130.2,41.1,130.2z
		 M41.1,152.3C41.1,152.3,41.1,152.3,41.1,152.3C41.1,152.3,41.1,152.3,41.1,152.3C41.1,152.3,41.1,152.3,41.1,152.3z"/>
</g>
</svg>
