<?xml version="1.0" encoding="utf-8"?>
<!-- Generator: Adobe Illustrator 21.1.0, SVG Export Plug-In . SVG Version: 6.00 Build 0)  -->
<svg version="1.1" id="Layer_1" xmlns="http://www.w3.org/2000/svg" xmlns:xlink="http://www.w3.org/1999/xlink" x="0px" y="0px"
	 viewBox="0 0 200 200" style="enable-background:new 0 0 200 200;" xml:space="preserve">
<style type="text/css">
	.st0{fill:#364B99;}
	.st1{fill:#FCEA0D;}
</style>
<g>
	<path class="st0" d="M100,0.9c54.7,0,99.1,44.4,99.1,99.1s-44.4,99.1-99.1,99.1S0.9,154.7,0.9,100S45.3,0.9,100,0.9"/>
	<path class="st1" d="M100,2.9c-13.1,0-25.8,2.6-37.8,7.6c-11.6,4.9-22,11.9-30.9,20.8c-8.9,8.9-15.9,19.3-20.8,30.9
		c-5.1,12-7.6,24.7-7.6,37.8c0,13.1,2.6,25.8,7.6,37.8c4.9,11.6,11.9,22,20.8,30.9c8.9,8.9,19.3,15.9,30.9,20.8
		c12,5.1,24.7,7.6,37.8,7.6c13.1,0,25.8-2.6,37.8-7.6c11.6-4.9,22-11.9,30.9-20.8c8.9-8.9,15.9-19.3,20.8-30.9
		c5.1-12,7.6-24.7,7.6-37.8c0-13.1-2.6-25.8-7.6-37.8c-4.9-11.6-11.9-22-20.8-30.9c-8.9-8.9-19.3-15.9-30.9-20.8
		C125.8,5.4,113.1,2.9,100,2.9L100,2.9z"/>
	<path class="st0" d="M100,25.9c-40.9,0-74.1,33.2-74.1,74.1c0,40.9,33.2,74.1,74.1,74.1c40.9,0,74.1-33.2,74.1-74.1
		C174.1,59.1,140.9,25.9,100,25.9"/>
	<path class="st1" d="M100,38c16.6,0,32.1,6.5,43.9,18.2C155.6,67.9,162,83.4,162,100s-6.5,32.1-18.2,43.9
		C132.1,155.6,116.6,162,100,162c-16.6,0-32.1-6.5-43.9-18.2C44.4,132.1,38,116.6,38,100s6.5-32.1,18.2-43.9
		C67.9,44.4,83.4,38,100,38L100,38z"/>
	<path class="st0" d="M31.2,142.1l2.9,4.4l2.5-0.8l2.6,3.9l-15.6,3.5l-2.8-4.2l9.4-12.9l2.7,4L31.2,142.1z M29,144.7l-3.6,4.3
		l5.4-1.6L29,144.7z"/>
	<path class="st0" d="M12.5,132.8c-0.9-2.3-0.9-4.4-0.2-6.1c0.8-1.7,2.3-3,4.6-3.9c2.4-0.9,4.4-0.9,6.1-0.2c1.7,0.8,3,2.3,3.9,4.5
		c0.9,2.5,1,4.6,0.1,6.3c-0.9,1.7-2.4,3-4.6,3.8c-2.3,0.8-4.3,0.9-6,0.1C14.7,136.7,13.4,135.1,12.5,132.8z M23.8,128.6
		c-0.4-1-0.9-1.6-1.8-1.8c-0.8-0.3-2-0.1-3.5,0.5c-2.6,1-3.5,2.4-2.7,4.4c0.7,1.9,2.4,2.4,5.1,1.4C23.6,132,24.5,130.5,23.8,128.6z
		 M20.3,127.6l1.4,3.8l-2.6,1l-1.4-3.8L20.3,127.6z"/>
	<path class="st0" d="M21.5,102.5l0.6,4.8l-10.2,4.8l11.1,1.8l0.6,4.7L8,115l-0.7-5L21.5,102.5z"/>
	<path class="st0" d="M6.6,98.9L7,94.3l5.2,0.5l0.4-5l-5.2-0.5l0.4-4.6l14.9,1.3l-0.4,4.6l-6-0.5l-0.4,5l6,0.5l-0.4,4.6L6.6,98.9z"
		/>
	<path class="st0" d="M9,78.8l4.2-13.4l3.5,1.1L15.4,71l10.7,3.4l-1.4,4.4L14,75.4l-1.4,4.5L9,78.8z"/>
	<path class="st0" d="M15.8,60.1l2.1-4.1l13.4,6.7l-2.1,4.1L15.8,60.1z"/>
	<path class="st0" d="M21.2,49.8l2.8-3.7l4.5,3.4l-1.6-7.3l3.7-4.9l1.2,7.8l10.9,1l-3.4,4.6l-6.8-1.2l0.6,3.4l2.9,2.2l-2.8,3.7
		L21.2,49.8z"/>
	<path class="st0" d="M34.7,33.2l3.5-3l3.4,4l3.9-3.2l-3.4-4l3.6-3l9.6,11.5l-3.6,3l-3.9-4.6L44,37.1l3.9,4.6l-3.5,3L34.7,33.2z"/>
	<path class="st0" d="M60.5,15.4L72,10.9l1.2,3L66,16.7l0.9,2.2l6.7-2.6l1.1,2.8L68,21.8l1.1,2.7l7.4-2.9l1.2,3.2L66,29.4L60.5,15.4
		z"/>
	<path class="st0" d="M78.5,9.1l4.3-0.7l6.8,7.3l-1.3-8.2l4.3-0.7L95,21.7l-4.3,0.7l-6.8-7.3l1.3,8.1l-4.3,0.7L78.5,9.1z"/>
	<path class="st0" d="M100.7,18.4c-0.5-0.5-1-1.2-1.4-2.3c-0.4-1-0.6-2-0.5-3c0.2-2.1,0.9-3.7,2.4-4.8c1.4-1.1,3.4-1.6,5.8-1.4
		c2.5,0.2,4.4,0.9,5.7,2.2c1.2,1.3,1.8,3,1.6,5.2c-0.1,1-0.4,2-1,2.9c-0.6,1-1.2,1.6-1.8,2l2.2,0.2l-0.2,3.2l-6.7-0.5l0.2-3.2
		c1.6-0.9,2.4-2.5,2.6-4.6c0.2-2.4-0.8-3.7-2.9-3.9c-1-0.1-1.8,0.2-2.4,0.8c-0.6,0.6-0.9,1.5-1,2.6c-0.1,2,0.5,3.7,1.9,5L105,22
		l-6.7-0.5l0.2-3.2L100.7,18.4z"/>
	<path class="st0" d="M128.8,27l-12.1-3.6l0.9-3.1l5.5-3l-3.1-5.2l0.9-3l11.9,3.6l-0.9,3.1l-7.1-2.1l3.1,5.1l-5.5,2.9l7.3,2.2
		L128.8,27z"/>
	<path class="st0" d="M139,15.1l4,2.3l-2.5,4.6l4.4,2.5l2.5-4.6l4.1,2.3l-7.3,13.1l-4.1-2.3l2.9-5.3l-4.4-2.5l-2.9,5.3l-4-2.3
		L139,15.1z"/>
	<path class="st0" d="M163.6,53.8l-3.2-3.6l5.8-9.7l-10.2,4.8l-3.1-3.5l14.8-5.9l3.3,3.7L163.6,53.8z"/>
	<path class="st0" d="M177.8,48.4l6.2,10.7l-2.8,1.6l-3.9-6.7l-2.1,1.2l3.6,6.2l-2.6,1.5l-3.6-6.2l-2.6,1.5l4,6.9l-2.9,1.7
		l-6.3-10.9L177.8,48.4z"/>
	<path class="st0" d="M186.8,65.2l1.7,5.8l-8,4.9l9.4-0.4l1.7,5.8l-14.3,4.3l-1.1-3.6l10.9-3.3l-11.8,0.5l-1-3.3l10.1-6.1l-10.9,3.3
		l-1.1-3.6L186.8,65.2z"/>
	<path class="st0" d="M192.6,88.3l0.7,12.4l-3.2,0.2l-0.5-7.7l-2.4,0.1l0.4,7.2l-3,0.2l-0.4-7.2l-2.9,0.2l0.5,8l-3.4,0.2l-0.8-12.6
		L192.6,88.3z"/>
	<path class="st0" d="M176.5,117.6l1.8-12.5l3.2,0.5l3.8,5l4.7-3.8l3.1,0.4l-1.7,12.3l-3.2-0.5l1-7.3l-4.6,3.8l-3.7-5l-1.1,7.6
		L176.5,117.6z"/>
	<path class="st0" d="M182.9,122.8c2.3,0.9,3.8,2.2,4.6,3.9c0.8,1.8,0.8,3.8-0.1,6c-0.9,2.3-2.2,3.9-3.9,4.7c-1.7,0.8-3.7,0.8-6-0.1
		c-1.6-0.6-2.9-1.4-3.7-2.3s-1.4-2-1.6-3.3c-0.2-1.3,0-2.7,0.6-4.2c0.6-1.6,1.3-2.8,2.2-3.6c0.9-0.8,2-1.4,3.3-1.6
		C179.8,122,181.3,122.2,182.9,122.8z M181.3,127.1c-1.4-0.5-2.5-0.6-3.3-0.4c-0.8,0.3-1.4,0.9-1.7,1.8c-0.3,0.9-0.3,1.8,0.1,2.5
		c0.4,0.7,1.4,1.4,3,2c1.3,0.5,2.4,0.6,3.2,0.3c0.8-0.3,1.4-0.9,1.7-1.8c0.3-0.9,0.3-1.7-0.1-2.5
		C183.6,128.3,182.7,127.6,181.3,127.1z"/>
	<path class="st0" d="M182.3,144.4l-2.8,4.3l-5.9-0.3l2.6,5.3l-2.8,4.3l-4.1-9.6l-5.2-3.4l2.6-3.9l5.2,3.4L182.3,144.4z"/>
	<path class="st0" d="M31.2,142.1l2.9,4.4l2.5-0.8l2.6,3.9l-15.6,3.5l-2.8-4.2l9.4-12.9l2.7,4L31.2,142.1z M29,144.7l-3.6,4.3
		l5.4-1.6L29,144.7z"/>
	<path class="st0" d="M12.5,132.8c-0.9-2.3-0.9-4.4-0.2-6.1c0.8-1.7,2.3-3,4.6-3.9c2.4-0.9,4.4-0.9,6.1-0.2c1.7,0.8,3,2.3,3.9,4.5
		c0.9,2.5,1,4.6,0.1,6.3c-0.9,1.7-2.4,3-4.6,3.8c-2.3,0.8-4.3,0.9-6,0.1C14.7,136.7,13.4,135.1,12.5,132.8z M23.8,128.6
		c-0.4-1-0.9-1.6-1.8-1.8c-0.8-0.3-2-0.1-3.5,0.5c-2.6,1-3.5,2.4-2.7,4.4c0.7,1.9,2.4,2.4,5.1,1.4C23.6,132,24.5,130.5,23.8,128.6z
		 M20.3,127.6l1.4,3.8l-2.6,1l-1.4-3.8L20.3,127.6z"/>
	<path class="st0" d="M21.5,102.5l0.6,4.8l-10.2,4.8l11.1,1.8l0.6,4.7L8,115l-0.7-5L21.5,102.5z"/>
	<path class="st0" d="M6.6,98.9L7,94.3l5.2,0.5l0.4-5l-5.2-0.5l0.4-4.6l14.9,1.3l-0.4,4.6l-6-0.5l-0.4,5l6,0.5l-0.4,4.6L6.6,98.9z"
		/>
	<path class="st0" d="M9,78.8l4.2-13.4l3.5,1.1L15.4,71l10.7,3.4l-1.4,4.4L14,75.4l-1.4,4.5L9,78.8z"/>
	<path class="st0" d="M15.8,60.1l2.1-4.1l13.4,6.7l-2.1,4.1L15.8,60.1z"/>
	<path class="st0" d="M21.2,49.8l2.8-3.7l4.5,3.4l-1.6-7.3l3.7-4.9l1.2,7.8l10.9,1l-3.4,4.6l-6.8-1.2l0.6,3.4l2.9,2.2l-2.8,3.7
		L21.2,49.8z"/>
	<path class="st0" d="M34.7,33.2l3.5-3l3.4,4l3.9-3.2l-3.4-4l3.6-3l9.6,11.5l-3.6,3l-3.9-4.6L44,37.1l3.9,4.6l-3.5,3L34.7,33.2z"/>
	<path class="st0" d="M60.5,15.4L72,10.9l1.2,3L66,16.7l0.9,2.2l6.7-2.6l1.1,2.8L68,21.8l1.1,2.7l7.4-2.9l1.2,3.2L66,29.4L60.5,15.4
		z"/>
	<path class="st0" d="M78.5,9.1l4.3-0.7l6.8,7.3l-1.3-8.2l4.3-0.7L95,21.7l-4.3,0.7l-6.8-7.3l1.3,8.1l-4.3,0.7L78.5,9.1z"/>
	<path class="st0" d="M100.7,18.4c-0.5-0.5-1-1.2-1.4-2.3c-0.4-1-0.6-2-0.5-3c0.2-2.1,0.9-3.7,2.4-4.8c1.4-1.1,3.4-1.6,5.8-1.4
		c2.5,0.2,4.4,0.9,5.7,2.2c1.2,1.3,1.8,3,1.6,5.2c-0.1,1-0.4,2-1,2.9c-0.6,1-1.2,1.6-1.8,2l2.2,0.2l-0.2,3.2l-6.7-0.5l0.2-3.2
		c1.6-0.9,2.4-2.5,2.6-4.6c0.2-2.4-0.8-3.7-2.9-3.9c-1-0.1-1.8,0.2-2.4,0.8c-0.6,0.6-0.9,1.5-1,2.6c-0.1,2,0.5,3.7,1.9,5L105,22
		l-6.7-0.5l0.2-3.2L100.7,18.4z"/>
	<path class="st0" d="M128.8,27l-12.1-3.6l0.9-3.1l5.5-3l-3.1-5.2l0.9-3l11.9,3.6l-0.9,3.1l-7.1-2.1l3.1,5.1l-5.5,2.9l7.3,2.2
		L128.8,27z"/>
	<path class="st0" d="M139,15.1l4,2.3l-2.5,4.6l4.4,2.5l2.5-4.6l4.1,2.3l-7.3,13.1l-4.1-2.3l2.9-5.3l-4.4-2.5l-2.9,5.3l-4-2.3
		L139,15.1z"/>
	<path class="st0" d="M163.6,53.8l-3.2-3.6l5.8-9.7l-10.2,4.8l-3.1-3.5l14.8-5.9l3.3,3.7L163.6,53.8z"/>
	<path class="st0" d="M177.8,48.4l6.2,10.7l-2.8,1.6l-3.9-6.7l-2.1,1.2l3.6,6.2l-2.6,1.5l-3.6-6.2l-2.6,1.5l4,6.9l-2.9,1.7
		l-6.3-10.9L177.8,48.4z"/>
	<path class="st0" d="M186.8,65.2l1.7,5.8l-8,4.9l9.4-0.4l1.7,5.8l-14.3,4.3l-1.1-3.6l10.9-3.3l-11.8,0.5l-1-3.3l10.1-6.1l-10.9,3.3
		l-1.1-3.6L186.8,65.2z"/>
	<path class="st0" d="M192.6,88.3l0.7,12.4l-3.2,0.2l-0.5-7.7l-2.4,0.1l0.4,7.2l-3,0.2l-0.4-7.2l-2.9,0.2l0.5,8l-3.4,0.2l-0.8-12.6
		L192.6,88.3z"/>
	<path class="st0" d="M176.5,117.6l1.8-12.5l3.2,0.5l3.8,5l4.7-3.8l3.1,0.4l-1.7,12.3l-3.2-0.5l1-7.3l-4.6,3.8l-3.7-5l-1.1,7.6
		L176.5,117.6z"/>
	<path class="st0" d="M182.9,122.8c2.3,0.9,3.8,2.2,4.6,3.9c0.8,1.8,0.8,3.8-0.1,6c-0.9,2.3-2.2,3.9-3.9,4.7c-1.7,0.8-3.7,0.8-6-0.1
		c-1.6-0.6-2.9-1.4-3.7-2.3s-1.4-2-1.6-3.3c-0.2-1.3,0-2.7,0.6-4.2c0.6-1.6,1.3-2.8,2.2-3.6c0.9-0.8,2-1.4,3.3-1.6
		C179.8,122,181.3,122.2,182.9,122.8z M181.3,127.1c-1.4-0.5-2.5-0.6-3.3-0.4c-0.8,0.3-1.4,0.9-1.7,1.8c-0.3,0.9-0.3,1.8,0.1,2.5
		c0.4,0.7,1.4,1.4,3,2c1.3,0.5,2.4,0.6,3.2,0.3c0.8-0.3,1.4-0.9,1.7-1.8c0.3-0.9,0.3-1.7-0.1-2.5
		C183.6,128.3,182.7,127.6,181.3,127.1z"/>
	<path class="st0" d="M182.3,144.4l-2.8,4.3l-5.9-0.3l2.6,5.3l-2.8,4.3l-4.1-9.6l-5.2-3.4l2.6-3.9l5.2,3.4L182.3,144.4z"/>
	<path class="st0" d="M81.3,175.7L77,190.3l-4-1.2l2.8-9.6c-0.8,0.3-1.5,0.5-2.2,0.7c-0.7,0.1-1.6,0.2-2.6,0.2l1-3.3
		c1.5,0,2.7-0.3,3.6-0.7c0.9-0.4,1.7-1,2.4-1.8L81.3,175.7z"/>
	<path class="st0" d="M85.6,188.8l4.2-0.1c0.1,0.6,0.2,1,0.4,1.3c0.2,0.3,0.5,0.4,0.9,0.4c0.7,0.1,1.2-0.2,1.6-0.9
		c0.3-0.5,0.6-1.5,0.9-3.1c-0.5,0.5-1.1,0.8-1.6,1c-0.5,0.2-1.2,0.3-1.8,0.2c-1.3-0.1-2.4-0.7-3.2-1.7c-0.8-1-1.2-2.3-1-3.7
		c0.1-1,0.4-1.9,1-2.6c0.5-0.8,1.2-1.3,2.1-1.7c0.9-0.3,1.9-0.5,3.1-0.3c1.5,0.1,2.7,0.5,3.5,1.1c0.9,0.6,1.5,1.5,1.9,2.6
		c0.4,1.2,0.6,2.7,0.4,4.5c-0.3,2.7-1,4.6-2.3,5.8c-1.2,1.1-2.9,1.6-4.9,1.4c-1.2-0.1-2.1-0.3-2.8-0.7c-0.7-0.3-1.2-0.8-1.6-1.4
		C86.1,190.3,85.8,189.6,85.6,188.8z M93.8,182.9c0.1-0.8-0.1-1.5-0.4-2c-0.4-0.5-0.8-0.8-1.4-0.8c-0.5-0.1-1,0.1-1.4,0.5
		c-0.4,0.4-0.6,1-0.7,1.8c-0.1,0.8,0.1,1.5,0.4,2c0.3,0.5,0.8,0.7,1.3,0.8c0.6,0.1,1.1-0.1,1.5-0.5
		C93.5,184.3,93.8,183.7,93.8,182.9z"/>
	<path class="st0" d="M105.7,182.3l-4-0.3c0.2-1.3,0.7-2.3,1.6-3c0.9-0.8,2.1-1.2,3.8-1.4c1.9-0.2,3.4,0,4.3,0.7
		c0.9,0.6,1.5,1.5,1.6,2.6c0.1,0.6-0.1,1.2-0.4,1.8c-0.3,0.6-0.8,1.1-1.5,1.5c0.6,0.1,1,0.2,1.4,0.4c0.5,0.3,0.9,0.6,1.3,1.1
		c0.3,0.5,0.5,1.1,0.6,1.7c0.1,0.9-0.1,1.7-0.4,2.6c-0.4,0.8-1,1.5-1.8,2c-0.8,0.5-1.9,0.8-3.3,1c-1.4,0.1-2.4,0.1-3.3-0.2
		c-0.8-0.2-1.5-0.7-2.1-1.2c-0.6-0.6-1-1.3-1.4-2.2l4.1-0.9c0.2,0.8,0.5,1.4,0.9,1.7c0.4,0.3,0.8,0.4,1.4,0.4c0.6-0.1,1-0.3,1.3-0.7
		c0.3-0.4,0.5-1,0.4-1.7c-0.1-0.7-0.3-1.2-0.7-1.6c-0.4-0.3-0.9-0.5-1.5-0.4c-0.3,0-0.8,0.2-1.3,0.4l-0.1-3c0.2,0,0.4,0,0.5,0
		c0.5-0.1,1-0.3,1.3-0.6c0.3-0.4,0.5-0.8,0.4-1.3c0-0.5-0.2-0.8-0.5-1c-0.3-0.2-0.7-0.3-1.2-0.3c-0.5,0-0.9,0.2-1.1,0.6
		C105.9,181,105.8,181.6,105.7,182.3z"/>
	<path class="st0" d="M118.2,183.9c-0.8-2.7-0.9-4.8-0.2-6.2c0.7-1.4,2-2.4,4-2.9c1-0.3,1.8-0.4,2.5-0.3c0.7,0.1,1.3,0.2,1.8,0.5
		c0.5,0.3,0.9,0.6,1.3,0.9c0.3,0.4,0.7,0.8,1,1.3c0.6,1,1,2.1,1.4,3.2c0.8,2.6,0.9,4.6,0.3,6.1c-0.5,1.5-1.9,2.5-4,3.1
		c-1.2,0.4-2.2,0.4-3.1,0.3c-0.9-0.2-1.6-0.6-2.3-1.2c-0.5-0.4-1-1.1-1.4-1.9C118.9,186,118.5,185,118.2,183.9z M122.1,182.7
		c0.5,1.8,1.1,3,1.6,3.6c0.5,0.6,1.1,0.8,1.7,0.6c0.4-0.1,0.7-0.4,0.9-0.7c0.2-0.4,0.3-0.9,0.3-1.5c0-0.7-0.2-1.6-0.6-2.9
		c-0.6-1.9-1.1-3.1-1.6-3.7c-0.5-0.6-1.1-0.7-1.7-0.6c-0.7,0.2-1,0.7-1.1,1.4C121.4,179.6,121.6,180.9,122.1,182.7z"/>
	<circle class="st0" cx="49.4" cy="169.1" r="3.4"/>
	<circle class="st0" cx="150.6" cy="169.1" r="3.4"/>
	<path class="st0" d="M86.6,47.9v104.2c4.3,1.1,8.8,1.7,13.4,1.7c5,0,9.9-0.7,14.6-2v-11.4c-4.6,1.7-9.5,2.5-14.6,2.5
		c-0.9,0-1.9,0-2.8-0.1V100h17.4V89.5H97.2V57.2c0.9-0.1,1.9-0.1,2.8-0.1c5,0,10,0.9,14.6,2.5V48.2c-4.7-1.3-9.6-2-14.6-2
		C95.4,46.2,90.9,46.8,86.6,47.9z"/>
	<path class="st0" d="M46.2,100c0,14.3,5.5,27.7,15.6,37.8v-18.3c-3.1-6-4.7-12.6-4.7-19.5v0h13.8v45.2c3.3,2.1,6.9,3.9,10.5,5.3
		v-101C74.2,52.2,67.6,56.4,62,62C51.8,72.1,46.2,85.6,46.2,100z M70.9,68.5v21H58.4c1.9-7.4,5.7-14.2,11.3-19.8
		C70.1,69.3,70.5,68.9,70.9,68.5z"/>
	<path class="st0" d="M138,62c-5.3-5.3-11.5-9.4-18.3-12V150c3.7-1.5,7.2-3.3,10.5-5.6V69.6c0,0,0,0,0,0
		c8.1,8.1,12.6,18.9,12.6,30.3c0,8.7-2.6,17.1-7.4,24.2v16.3c0.9-0.8,1.8-1.6,2.6-2.4c10.2-10.2,15.7-23.7,15.7-38
		C153.8,85.6,148.2,72.1,138,62z"/>
</g>
</svg>
