<?xml version="1.0" encoding="utf-8"?>
<!-- Generator: Adobe Illustrator 21.1.0, SVG Export Plug-In . SVG Version: 6.00 Build 0)  -->
<svg version="1.1" id="Layer_1" xmlns="http://www.w3.org/2000/svg" xmlns:xlink="http://www.w3.org/1999/xlink" x="0px" y="0px"
	 viewBox="0 0 200 200" style="enable-background:new 0 0 200 200;" xml:space="preserve">
<style type="text/css">
	.st0{fill:#087DC2;}
	.st1{fill:#FFFFFF;}
	.st2{fill:#F3FBF9;}
	.st3{fill:#FCFDFD;}
	.st4{fill:#0A7FBC;}
	.st5{fill:#0A80BB;}
	.st6{fill:#FDFEFD;}
	.st7{fill:#F1FAF8;}
	.st8{fill:#F6FBF5;}
	.st9{fill:#FCFCFC;}
	.st10{fill:#F6FBF7;}
</style>
<path class="st0" d="M184.6,43.4c-1.4-16.8-3.2-27.5-6.8-39.9c-0.8,0.4-6.7,3.8-14.7,6.5c-5.3,1.8-10.7,3.4-16.3,4.1
	c-10.8,1.3-21.9-0.6-31.8-5.2c-4.9-2.3-7.4-4-12-6.8c-0.4-0.2-3.1-2.1-3.1-2.1s-2.2,1.3-3.1,1.8c-2.3,1.4-6.6,4.2-9,5.5
	c-9.3,4.9-19.6,7.5-30.1,7.1c-6.2-0.2-12.4-1.6-18.3-3.6c-2.9-1-5.9-2-8.7-3.4c-2.8-1.3-5.5-2.9-8.5-4c-0.8,3.4-1.9,6.7-2.7,10.1
	c-0.5,1.9-0.9,3.9-1.3,5.8c-1.5,7.1-2.7,18.9-2.7,26.2c-0.1,14.5,1.3,29.1,4.6,43.3c3.2,13.6,7.9,26.9,13.8,39.6
	c3,6.3,6.6,12.3,10.4,18.1c3.8,5.8,7.8,11.5,12.2,16.9c8.9,10.9,19.2,20.7,30.8,28.6c2.3,1.6,4.7,2.9,7,4.4c1.3,0.8,2.5,1.6,3.7,2.4
	c1.4,0.9,2.4,0.9,3.8,0c5.8-3.7,11.6-7.4,17-11.6c19.7-15.4,34.5-36.3,46.4-58.2C178.6,104.9,186.4,64.5,184.6,43.4z"/>
<path class="st1" d="M95,13.9c1.2-0.8,4.8-3.1,4.8-3.1s5.4,3.3,7.3,4.2c2.2,1.1,6.6,3.4,8.9,4.2c3.2,1.2,9.8,3.1,13.2,3.6
	c2.5,0.4,7.6,0.7,10.2,0.8c1.3,0,4,0,5.4-0.1c1.6-0.1,4.8-0.6,6.4-0.9c1.7-0.3,5.1-1.1,6.7-1.5c1.4-0.4,4.2-1.1,5.6-1.6
	c2.1-0.7,8.2-3.1,8.2-3.1s1.2,6,1.6,8.1c0.5,2.7,1.2,8,1.4,10.7c0.2,1.6,0.3,6.5,0.3,6.5H24.8c0,0,0.8-10.9,1.4-14.4
	c0.4-2.5,1.9-9.9,1.9-9.9l0.3-0.8c0,0,4.3,1.6,5.7,2.1c1.9,0.7,5.9,2,7.9,2.5c3.1,0.8,9.6,1.9,12.8,2.3c2.4,0.3,7.4,0.4,9.8,0.2
	c3.9-0.3,11.6-2,15.4-3c2.1-0.6,6.1-2.2,8.1-3.1C89.8,16.8,95,13.9,95,13.9L95,13.9L95,13.9z"/>
<path class="st0" d="M128.5,33.4c-0.5,1.2-1.3,2.3-2.5,2.9c-1.4,0.6-3,0.5-4.5,0.4c0-1.2,0-2.5,0-3.7c0.6,0,1.3,0,1.9,0.1
	c0.6,0.4,0.4,1.1,0.5,1.7c0.6,0,1.2,0,1.8,0c0-1.8,0.1-3.6,0-5.4l-0.1-0.2c-0.6,0-1.1,0-1.7,0c-0.2,0.6,0.1,1.6-0.7,1.7
	c-0.5,0.2-1.1,0.2-1.7,0.2c0-1.1,0-2.2,0-3.3c1.3,0,2.7-0.2,4,0.2c1.2,0.4,1.7,1.5,2.5,2.3c0.5-0.1,1-0.3,1.5-0.5
	c0.1,0,0.2-0.1,0.2-0.1s-1.1-2.7-1.5-4.2c-2.2,0.2-4.3,0-6.5,0.1c-1.8,0-3.6,0.1-5.4-0.1c0,0.6,0,1.3,0,1.9c0.4,0,0.8,0,1.2,0
	c0.3,0.3,0.5,0.6,0.5,1.1c0,2.4,0,4.9,0,7.3c0,0.4,0.1,0.9-0.3,1.1c-0.5,0.1-0.9,0.1-1.4,0.1c0,0.6,0,1.2,0,1.8c4.1,0,8.2,0,12.3,0
	c0.1-0.2,0.2-0.5,0.3-0.8c0.2-0.8,0.5-1.5,0.8-2.2c0.2-0.7,0.5-1.3,0.7-2C129.7,33.8,129.1,33.6,128.5,33.4z"/>
<path class="st0" d="M84.3,37.1c-0.1,0-0.2,0-0.3-0.1c-0.4-1-0.2-2.1-0.2-3.2c0.1-2-0.1-4.1,0.1-6.1c0.5-0.1,1.1-0.2,1.6-0.2
	c0-0.6,0-1.2,0-1.8h-0.2c-4.9,0-9.9,0.1-14.8,0c-0.2,0-0.5,0-0.7,0c0,0.6,0,1.2,0,1.9c0.5,0.1,1.1,0.1,1.6,0.2
	c0.2,1.4,0.1,2.8,0.1,4.3c0,1.6,0.1,3.2-0.1,4.8c-0.4,0.5-1.1,0.3-1.7,0.5c0,0.6,0,1.2,0,1.8c2.3,0,4.7,0.1,7-0.1c0-0.6,0-1.1,0-1.7
	c-0.5-0.1-1.1,0-1.6-0.4C75,36.4,75,36,75,35.6c0-2.4,0-4.8,0-7.2c0-0.3,0-0.5,0-0.8c1.7,0.1,3.5,0,5.2,0.1c0,0.8,0,1.7,0,2.6
	c0,2.2,0,4.3,0,6.5c-0.5,0.2-1.1,0.3-1.7,0.4c0,0.6,0,1.2,0,1.7c2.3,0,4.6,0,7,0c0-0.6,0-1.2,0-1.8C85.1,37.1,84.7,37.1,84.3,37.1z"
	/>
<path class="st0" d="M106.8,36.5c-0.1-0.5-0.2-0.8-0.4-1.3c-1.3-3.1-2.6-6.3-3.9-9.4c-1.1-0.2-2.2-0.1-3.3-0.1
	c-1.3,3.2-2.7,6.4-4,9.5c-0.1,0.2-0.1,0.4-0.2,0.5c-0.2,0.3-0.4,0.7-0.7,1c-0.3,0.2-0.7,0.3-1.1,0.4c0,0.6,0,1.1,0,1.7
	c1.9,0,3.8,0.1,5.6-0.1c0-0.1-0.1-0.3-0.2-0.4c0-0.5,0-0.9,0-1.4c-0.5-0.1-0.9-0.1-1.4-0.2c0-0.8,0.3-1.5,0.6-2.3c1.4,0,2.9,0,4.3,0
	c0.3,0.7,0.5,1.4,0.7,2.1c-0.5,0.2-1,0.3-1.5,0.3l0.2,0c-0.1,0.6-0.1,1.2-0.1,1.8c2.3,0,4.5,0,6.8,0c0-0.6,0-1.1,0-1.7
	C107.8,37.1,107.2,36.8,106.8,36.5z"/>
<path class="st2" d="M98.8,32.8c0.4-1.2,0.9-2.4,1.4-3.5c0.5,1.2,1,2.3,1.4,3.5C100.7,32.8,99.7,32.8,98.8,32.8L98.8,32.8z"/>
<path class="st0" d="M89.2,35.6c1.2-0.4,2.7,0.6,2.5,1.9c-0.2,1.5-2.4,2.1-3.3,1C87.4,37.6,87.9,35.9,89.2,35.6L89.2,35.6z"/>
<path class="st0" d="M133.5,35.6c1.1-0.3,2.4,0.6,2.3,1.7c0.1,1.4-1.7,2.2-2.8,1.6c-0.9-0.3-1.2-1.4-0.9-2.2
	C132.4,36.1,133,35.8,133.5,35.6L133.5,35.6z"/>
<path class="st0" d="M111.4,35.6c-1.2,0.2-1.9,1.7-1.2,2.6c0.8,1.4,3.2,1,3.5-0.6C114,36.4,112.7,35.2,111.4,35.6z"/>
<path class="st3" d="M24.6,45.5l1.8-0.1h149c0,0-0.1,9.4-0.2,12.5c-0.1,2.5-0.9,9.9-0.9,9.9l-11.1,0.1H25.7c0,0-0.1-1-0.1-1.3
	c-0.3-3-0.7-8.9-0.8-11.9C24.6,52.4,24.6,45.5,24.6,45.5L24.6,45.5L24.6,45.5z"/>
<path class="st4" d="M143.5,49.8c1.7-0.2,3.5-0.1,5.1,0.5c2,0.8,3.7,2.6,4.1,4.8c0.3,1.7,0.2,3.6-0.7,5.1c-1.1,1.9-3.1,3.1-5.1,3.4
	c-1.8,0.3-3.8,0.2-5.5-0.5c-1.7-0.8-3.3-2.3-3.8-4.1c-0.6-1.9-0.4-4.1,0.6-5.8C139.3,51.2,141.4,50,143.5,49.8L143.5,49.8z"/>
<path class="st0" d="M56.1,61.6c-0.6,0-1.1-0.1-1.7-0.2c-0.2-2.6,0-5.2-0.1-7.8c0-0.6-0.1-1.2,0.3-1.7c0.5-0.1,1-0.1,1.4-0.2
	c0-0.6,0-1.2,0-1.9c-2.4,0-4.8,0-7.1,0c0,0.6,0,1.2,0,1.8c0.5,0,1.1,0.1,1.7,0.2c0.2,2.2,0,4.4,0.1,6.6c0,0.9,0.1,1.9-0.1,2.8
	c-0.5,0.4-1.1,0.2-1.6,0.2c0,0.2-0.1,0.5-0.1,0.7c0,0.1,0.1,0.2,0.1,0.3c0,0.3,0,0.6-0.1,0.9c2.4,0,4.8,0,7.1,0
	C56.1,62.8,56.1,62.2,56.1,61.6z"/>
<path class="st0" d="M103.2,51.7c0-0.6,0-1.2,0-1.8c-2.4,0-4.7,0-7.1,0c0,0.6,0,1.2,0,1.8c0.5,0.1,1.2-0.1,1.6,0.3
	c0.3,1.1,0.1,2.3,0.2,3.4c-0.1,2,0.1,4-0.2,6c-0.5,0.1-1.1,0.2-1.6,0.2c0,0.6,0,1.2,0,1.9c2.4,0,4.7,0,7.1,0c0-0.6,0-1.2,0-1.9
	c-0.5,0-1.1,0-1.5-0.2c-0.2-0.3-0.2-0.8-0.2-1.1c0-2.4,0-4.7,0-7.1c0-0.5,0-0.9,0.3-1.3C102.2,51.8,102.7,51.8,103.2,51.7z"/>
<path class="st5" d="M105.4,60.8c1.6-3.6,3.1-7.3,4.6-10.9c1.1,0,2.1,0,3.2,0c0.2,0.2,0.3,0.5,0.4,0.7c1.2,3,2.5,6,3.7,9
	c0.2,0.5,0.4,1,0.7,1.4c0.2,0.5,0.8,0.5,1.3,0.6c0,0.6,0,1.2,0,1.8c-2.3,0-4.6,0-6.9,0c0-0.6,0-1.2,0-1.8c0.5-0.1,0.9-0.2,1.4-0.3
	c0-0.8-0.3-1.5-0.6-2.2c-1.5,0-3,0-4.4,0c-0.3,0.7-0.6,1.4-0.8,2.2c0.5,0.1,1,0.2,1.5,0.3c0,0.6,0,1.2,0,1.8c-1.9,0-3.8,0-5.6,0
	c0-0.6,0-1.2,0-1.8C104.5,61.5,105.2,61.4,105.4,60.8L105.4,60.8z"/>
<path class="st0" d="M48.2,61.6c-0.3-0.1-0.6-0.2-0.9-0.2c-0.4-0.3-0.6-0.8-0.8-1.2c-0.1-0.5-0.3-0.9-0.5-1.3c-1.3-3-2.5-6.1-3.8-9
	c-1.1,0-2.2,0-3.3,0c-1.2,2.8-2.4,5.7-3.6,8.5c-0.5,1.1-0.8,2.3-1.6,3.2c-0.3,0-0.6,0-0.8,0c0,0.6,0,1.2,0,1.9c1.9,0,3.7,0,5.6,0
	c0-0.6,0-1.2,0-1.8c-0.5,0-0.9-0.1-1.4-0.2c-0.2-0.8,0.4-1.6,0.7-2.4c1.5,0,3,0,4.4,0c0.2,0.7,0.6,1.4,0.5,2.1
	c-0.4,0.3-0.9,0.3-1.4,0.4c0,0.6,0,1.2,0,1.8c0.3,0,0.7,0,1-0.1c2,0.1,3.9,0,5.9,0C48.2,62.9,48.2,62.3,48.2,61.6z"/>
<path class="st0" d="M70.4,51.9c-0.2-0.6-0.5-1.3-0.7-1.9c-0.1,0-0.2,0-0.3,0c-3.9-0.1-7.7,0-11.6,0h-0.2c0,0.6,0,1.2,0,1.9
	c0.6,0.1,1.4-0.1,1.7,0.5c0,3,0.1,5.9,0,8.8c-0.3,0.6-1.1,0.4-1.7,0.5c0,0.6,0,1.2,0,1.8c2.3,0,4.7,0,7.1,0c0-0.6,0-1.2,0-1.8
	c-0.6-0.1-1.4,0.1-1.8-0.5c0-3,0-6,0-9c1.1,0,2.3-0.1,3.5,0.1c1.1,0.1,2,1,2.6,1.9c0.1,0.2,0.2,0.5,0.3,0.8c0.7-0.2,1.3-0.4,2-0.6
	C71,53.4,70.7,52.6,70.4,51.9z"/>
<path class="st6" d="M143.9,52c1.4-0.5,3.1,0.1,3.9,1.3c0.7,1.1,0.9,2.5,0.9,3.8c-0.1,1.4-0.5,2.8-1.6,3.7c-1.4,1.1-3.6,0.9-4.7-0.4
	c-1.2-1.4-1.3-3.3-1.1-5C141.5,54,142.5,52.5,143.9,52L143.9,52z"/>
<path class="st7" d="M38.5,57.2c0.5-1.2,0.9-2.4,1.4-3.6c0.5,1.2,1,2.4,1.4,3.6C40.4,57.2,39.5,57.2,38.5,57.2L38.5,57.2z"/>
<path class="st8" d="M111,53.6c0.5,1.2,1,2.4,1.4,3.6c-0.9,0-1.9,0-2.8,0C110,56,110.5,54.8,111,53.6L111,53.6z"/>
<path class="st0" d="M165.2,57.8c-0.5,0.8-1,1.9-1.9,2.3c-1.7,0.8-3.6,0.4-5.3,0.5c1.2-1.4,2.4-2.9,3.7-4.3c-1-1.4-2.2-2.7-3.1-4.2
	c1.3,0,2.8-0.2,4,0.5c1.1,0.6,1.6,1.8,2.3,2.8c0.6-0.2,1.2-0.5,1.8-0.7c-0.7-1.6-1.5-3.1-2.2-4.7c-3.4,0-6.8,0-10.2,0
	c0.1,0.8-0.2,1.6,0.3,2.3c1.2,1.6,2.4,3.1,3.6,4.7c-0.9,1-1.9,2-2.7,3.1c-0.5,0.5-1.1,1-1.4,1.6c-0.2,0.6-0.1,1.3-0.1,1.9
	c3,0,6.1,0.1,9.1,0c0.7,0.1,1.4,0.2,2.1-0.1c0.6-1.6,1.3-3.3,1.8-4.9C166.4,58.2,165.8,58,165.2,57.8z"/>
<path class="st0" d="M88.8,50c0,0.6,0,1.2,0,1.8c0.5,0.1,1.1-0.1,1.6,0.2c0.2,0.6,0.2,1.3,0.2,2c0,1.2,0,2.4,0,3.6
	c-1-1.5-1.7-3.2-2.7-4.7c-0.4-1.1-1-2-1.6-3c-2,0-3.9,0-5.9,0c0,0.6,0,1.2,0,1.9c0.6,0,1.3,0,1.7,0.5c0,3,0.1,6.1,0,9.1
	c-0.5,0.2-1.1,0.3-1.7,0.3c0,0.6,0,1.2,0,1.8c2,0,4,0,6.1,0c0-0.6,0-1.2,0-1.9c-0.4,0-0.9,0-1.3,0c-0.6-0.5-0.5-1.3-0.5-1.9
	c0-2-0.1-4,0.1-6.1c1.7,3.3,3.6,6.6,5.3,9.9c1,0,2,0,3,0c0-3,0-5.9,0-8.9c0-0.4,0-0.8-0.1-1.2c0.1-0.5,0.1-0.9,0.2-1.4
	c0.4-0.4,1.1-0.2,1.6-0.3c0-0.6,0-1.2,0-1.9C92.8,49.9,90.8,49.8,88.8,50z"/>
<path class="st0" d="M78.9,61.6c-0.5,0-1.1-0.1-1.7-0.2c-0.2-2.1-0.1-4.2-0.1-6.2c0-1.1-0.1-2.3,0.2-3.4c0.5,0,1.1-0.1,1.6-0.1
	c0-0.6,0-1.2,0-1.9c-2.4,0-4.8,0-7.1,0c0,0.6,0,1.2,0,1.9c0.5,0.1,1.1-0.1,1.6,0.2c0.2,0.5,0.2,1,0.2,1.6c0,2.2,0,4.5,0,6.7
	c0,0.4,0,0.9-0.3,1.2c-0.5,0.1-1,0.1-1.4,0.1c0,0.6,0,1.2,0,1.8c2.4,0,4.8,0.1,7.2-0.1C78.9,62.8,78.9,62.2,78.9,61.6z"/>
<path class="st0" d="M136.4,61.6c-0.3,0-0.7,0-1,0c-0.5-0.4-0.9-0.8-1.3-1.3c-1.3-1.7-2.6-3.3-3.9-5c1.3-1,2.5-2.1,3.8-3
	c0.5-0.4,1.1-0.5,1.7-0.6c0-0.6,0-1.2,0-1.7c-2.2,0-4.4,0-6.6,0c0,0.6,0,1.2,0,1.8c0.5,0,1,0.1,1.4,0.2c-1.6,1.6-3.4,3-5.1,4.4
	c0-1.5-0.1-3,0.1-4.5c0.5-0.1,1.1-0.1,1.6-0.2c0-0.6,0-1.2,0-1.8c-2.4,0-4.7,0-7.1,0c0,0.6,0,1.2,0,1.8c0.5,0,1.1,0.1,1.6,0.2
	c0.2,2,0.1,4.2,0.1,6.2c0,1.1,0.2,2.3-0.2,3.4c-0.5,0-1,0-1.5,0.1c0,0.6,0,1.3,0,1.9c2.3,0,4.7,0,7.1,0c0-0.6,0-1.2,0-1.9
	c-0.5,0-0.9,0-1.4,0c-0.5-0.7-0.5-1.6-0.3-2.3c0.6-0.7,1.4-1.2,2.1-1.8c1,1.4,2.2,2.6,3,4.1c-0.5,0.1-1,0.1-1.5,0.1
	c0,0.6,0,1.2,0,1.8c0.9,0,1.9,0.1,2.8,0c1.5,0.1,3,0.1,4.4,0C136.6,62.9,136.4,62.2,136.4,61.6z"/>
<path class="st9" d="M26.2,71.6h22v60.4l0,3.1c0,0-3-5-3.9-6.8c-3.1-6.4-8.6-19.5-10.9-26.2c-1-3-2.8-9.2-3.5-12.3
	c-0.8-3.4-2.4-10.2-3-13.6C26.6,75.1,26.2,71.6,26.2,71.6L26.2,71.6L26.2,71.6z"/>
<path class="st9" d="M63.9,71.6l27.4,0v103.8l0,8.4c0,0-6.2-4.4-8.1-6.1c-2.2-1.9-6.5-5.8-8.6-7.9c-2-2-6-6-7.9-8.2
	c-0.7-0.8-2.7-3.3-2.7-3.3l-0.2-2.3v-50.4L63.9,71.6L63.9,71.6L63.9,71.6z"/>
<path class="st9" d="M107.9,71.6h27.5l0,33.8l0,51l-0.1,2.3c0,0-0.8,1.4-1.2,1.8c-1.7,2.1-7.3,7.7-7.3,7.7s-5,5-6.8,6.5
	c-1.1,1-4.5,3.8-4.5,3.8s-2.1,1.8-2.9,2.3c-1.2,0.9-4.9,3.4-4.9,3.4l0-69.2L107.9,71.6L107.9,71.6L107.9,71.6z"/>
<path class="st9" d="M151.3,71.6h22.6c0,0-0.3,2.5-0.5,3.3c-0.8,4.4-2.7,13.2-3.9,17.5c-0.8,3.1-2.7,9.3-3.8,12.3
	c-1.2,3.3-3.6,9.9-5,13.1c-1.2,2.8-3.9,8.2-5.3,10.9c-1,1.8-4,7.2-4,7.2l-0.1-28.1L151.3,71.6L151.3,71.6L151.3,71.6L151.3,71.6z"/>
<path class="st0" d="M117.8,147.5c0.8,0.1,1.6-0.4,2.4-0.5c0,1,0,1.9,0,2.9c-2,0.1-3.9,0-5.9,0.1c0,0.5,0,0.9,0,1.4
	c1.9-0.1,4.1-0.3,5.6,1.1c1,0.8,1.2,2.1,1.1,3.3c-0.2,1-0.8,1.8-1.6,2.4c-1.1,0.7-2.5,0.9-3.8,0.9c-1.2-0.1-2.4-0.5-3.2-1.4
	c-0.5-0.5-0.8-1.1-0.7-1.8c0.1-0.8,1.1-1.3,1.8-0.9c0.6,0.4,0.8,1.1,1.3,1.7c0.8,1.2,2.9,1,3.5-0.3c0.2-0.7,0.2-1.5-0.4-2.1
	c-0.5-0.5-1.3-0.7-2-0.8c-1.1-0.1-2.1,0-3.1,0.2c-0.1,0-0.4,0.1-0.5,0.1c0.1-2,0.2-4.1,0.3-6.2C114.3,147.5,116.1,147.5,117.8,147.5
	L117.8,147.5z"/>
<path class="st0" d="M79.1,148.3c1.3-1.1,3.1-1.2,4.7-0.9c1.8,0.3,3.3,1.8,3.5,3.6c0.2,1.6,0.2,3.3-0.6,4.6c-0.9,1.6-2.6,2.7-4.4,3
	c-1.1,0.2-2.3,0.3-3.4,0.3c0-0.5,0-1.1,0-1.6c1.5-0.1,3.1-0.2,4.4-1.2c0.7-0.5,1-1.3,1.3-2c-1.9,1.4-5,1.2-6.4-0.8
	C77.2,151.8,77.6,149.5,79.1,148.3L79.1,148.3z"/>
<path class="st10" d="M81.7,149.2c1.3-0.6,3,0.6,2.8,2c0.1,1.4-1.3,2.4-2.6,2C80.1,152.7,80,149.9,81.7,149.2L81.7,149.2z"/>
<path class="st0" d="M75.5,157.4l-2-0.1l-0.1-1.3v-8.6l-4.8,1.1v1.6h2.3v4.3l-0.2,3h-2.1v1.6l7,0l0-0.7L75.5,157.4L75.5,157.4z"/>
<path class="st0" d="M131.4,154.2c-0.4-0.8-1.3-1.1-2-1.4c1.1-0.7,2-1.5,1.8-2.9c-0.2-1.3-1.5-2.1-2.6-2.4c-2.7-0.7-5.8,0.6-5.8,3.6
	c0.3,0,1.4,0.2,1.7,0c0.1-0.1,0.3-0.8,0.4-1c0.5-0.7,1.4-0.9,2.2-0.7c0.9,0.1,1.7,0.7,1.5,1.7c-0.2,1.2-1.8,1.1-2.8,1
	c0,0.4-0.1,1.4,0.2,1.6c0.4,0.3,1.5,0,2,0.3c1.1,0.5,1.3,2.1,0.4,2.9c-0.9,0.7-2.3,0.6-3-0.3c-0.5-0.8-0.7-2.3-2.1-1.9
	c-1.5,0.4-0.9,2.2-0.2,3c0.9,0.9,2.2,1.3,3.4,1.4C128.9,159.1,133.3,157.3,131.4,154.2z"/>
</svg>
