<?xml version="1.0" encoding="utf-8"?>
<!-- Generator: Adobe Illustrator 21.1.0, SVG Export Plug-In . SVG Version: 6.00 Build 0)  -->
<svg version="1.1" id="Layer_1" xmlns="http://www.w3.org/2000/svg" xmlns:xlink="http://www.w3.org/1999/xlink" x="0px" y="0px"
	 viewBox="0 0 200 200" style="enable-background:new 0 0 200 200;" xml:space="preserve">
<style type="text/css">
	.st0{fill:#FFFFFF;}
	.st1{fill:#D2122E;}
</style>
<g>
	<path class="st0" d="M100,199c54.7,0,99-44.3,99-99c0-54.7-44.3-99-99-99C45.3,1,1,45.3,1,100C1,154.7,45.3,199,100,199L100,199
		L100,199z"/>
	<path class="st1" d="M182,116.6c0.5-2.7,1-5.5,1.2-8.2c0.3-2.7,0.4-5.5,0.4-8.3c0-23.1-9.4-44-24.5-59.1
		c-15.1-15.1-36-24.5-59.1-24.5c-0.3,0-0.7,0-1,0l0-3.3c0.3,0,0.7,0,1.1,0c24,0,45.7,9.7,61.4,25.4S186.9,76,186.9,100
		c0,2.9-0.1,5.8-0.4,8.7c-0.3,2.9-0.7,5.8-1.3,8.5L182,116.6L182,116.6L182,116.6z"/>
	<path class="st1" d="M179,116c0.5-2.6,0.9-5.3,1.2-7.9c0.3-2.6,0.4-5.3,0.4-8.1c0-22.3-9-42.4-23.6-57
		c-14.6-14.6-34.7-23.6-57-23.6c-0.2,0-0.4,0-0.5,0c-0.2,0-0.4,0-0.5,0l0-0.8c0.2,0,0.4,0,0.5,0c0.2,0,0.4,0,0.5,0
		c22.5,0,42.8,9.1,57.6,23.8c14.7,14.7,23.8,35.1,23.8,57.6c0,2.7-0.1,5.4-0.4,8.1c-0.3,2.7-0.7,5.4-1.2,8L179,116L179,116L179,116z
		"/>
	<path class="st1" d="M187.3,117.7c0.6-2.9,1-5.8,1.3-8.8c0.3-2.9,0.4-5.9,0.4-8.9c0-24.6-10-46.9-26.1-63
		c-16.1-16.1-38.4-26.1-63-26.1c-0.2,0-0.4,0-0.5,0c-0.2,0-0.4,0-0.5,0l0-0.8c0.2,0,0.4,0,0.5,0c0.2,0,0.4,0,0.5,0
		c24.8,0,47.3,10.1,63.6,26.3c16.3,16.3,26.3,38.8,26.3,63.6c0,3-0.2,6-0.4,9c-0.3,3-0.7,6-1.3,8.9L187.3,117.7L187.3,117.7
		L187.3,117.7z"/>
	<path class="st1" d="M16.5,95.3c0,0.8-0.1,1.6-0.1,2.4c0,0.8,0,1.6,0,2.4c0,23.1,9.4,44,24.5,59.1c15.1,15.1,36,24.5,59.1,24.5
		c2,0,4.1-0.1,6.1-0.2c2.1-0.2,4.1-0.4,6.1-0.7l0.5,3.2c-2.1,0.3-4.2,0.5-6.3,0.7c-2.1,0.2-4.2,0.2-6.4,0.2
		c-24,0-45.7-9.7-61.4-25.4C22.8,145.7,13.1,124,13.1,100c0-0.8,0-1.7,0-2.4c0-0.9,0.1-1.7,0.1-2.4L16.5,95.3L16.5,95.3L16.5,95.3z"
		/>
	<path class="st1" d="M19.5,95.6c0,0.7-0.1,1.5-0.1,2.2c0,0.7,0,1.5,0,2.2c0,22.3,9,42.4,23.6,57c14.6,14.6,34.7,23.6,57,23.6
		c2,0,4-0.1,6-0.2c2-0.1,4-0.4,5.9-0.7l0.1,0.8c-2,0.3-4,0.5-6,0.7c-2,0.1-4,0.2-6,0.2c-22.5,0-42.8-9.1-57.6-23.8
		c-14.7-14.7-23.8-35.1-23.8-57.6c0-0.7,0-1.5,0-2.2c0-0.7,0-1.5,0.1-2.2L19.5,95.6L19.5,95.6L19.5,95.6z"/>
	<path class="st1" d="M11,94.8c0,0.9-0.1,1.7-0.1,2.6c0,0.9,0,1.7,0,2.6c0,24.6,10,46.9,26.1,63c16.1,16.1,38.4,26.1,63,26.1
		c2.2,0,4.3-0.1,6.5-0.2c2.2-0.2,4.3-0.4,6.4-0.7l0.1,0.8c-2.2,0.3-4.3,0.6-6.5,0.7c-2.1,0.2-4.3,0.2-6.5,0.2
		c-24.8,0-47.3-10.1-63.6-26.3c-16.3-16.3-26.3-38.8-26.3-63.6c0-0.9,0-1.8,0-2.6c0-0.9,0.1-1.8,0.1-2.6L11,94.8L11,94.8L11,94.8z"
		/>
	<path d="M123,183.1l-2.1,0.6l0.1-3.6L123,183.1L123,183.1L123,183.1z M121.5,177.7l-2,0.5l-0.5,9.3l1.8-0.5l0.1-1.8l3.1-0.8l1,1.6
		l1.8-0.5L121.5,177.7L121.5,177.7L121.5,177.7z"/>
	<polygon points="133.2,173.5 134.6,172.9 138.1,181.1 136.4,181.8 134.3,176.7 133.6,180 133.3,180.1 130.5,178.3 132.6,183.4 
		131,184.1 127.6,175.9 129,175.3 132.4,177.4 133.2,173.5 	"/>
	<path d="M143.5,170.7c-1.2,0-1.8,0.1-2.3,0.4c-0.6,0.3-0.8,0.8-0.5,1.2c0.7,1.2,3.6-1,5.2,1.7c0.9,1.5,0.3,2.9-1,3.7
		c-1.1,0.6-1.8,0.6-2.7,0.5l-1-1.7c1.3,0.2,2,0.2,2.7-0.2c0.6-0.3,0.8-0.8,0.5-1.2c-0.7-1.3-3.6,1-5.2-1.8c-0.8-1.3-0.4-2.7,1.1-3.6
		c0.7-0.4,1.4-0.6,2.4-0.6L143.5,170.7L143.5,170.7L143.5,170.7z"/>
	<polygon points="151.8,164 149.7,165.5 154.1,171.4 152.7,172.4 148.3,166.6 146.3,168.1 145.3,166.8 150.8,162.7 151.8,164 	"/>
	<polygon points="163.4,163.2 159.6,166.8 153.5,160.4 157.3,156.8 158.4,158 155.9,160.3 157.2,161.7 159.6,159.5 160.7,160.6 
		158.3,162.9 159.8,164.4 162.3,162 163.4,163.2 	"/>
	<path d="M162.4,153.7l0.6-0.7c0.4-0.5,0.9-0.6,1.4-0.1c0.6,0.5,0.5,1,0.2,1.4l-0.6,0.7L162.4,153.7L162.4,153.7L162.4,153.7z
		 M160,154l6.8,5.7l1.1-1.4l-2.8-2.3l0.3-0.4c0.6-0.7,2.1,0.1,4.1,0.8l1.3-1.5c-2.6-0.9-3.6-1.4-4.4-1.2c0.2-0.9-0.1-1.7-0.9-2.3
		c-1-0.9-2.5-1-3.5,0.1L160,154L160,154L160,154z"/>
	<path d="M168.2,146l0.6-1c0.9-1.4,2.4-1.3,3.6-0.4c1.1,0.7,2.1,2,1.1,3.5l-0.6,1L168.2,146L168.2,146L168.2,146z M165.9,146.6
		l7.5,4.8l1.6-2.5c1.5-2.4,0.7-4.5-1.5-5.9c-2-1.3-4.5-1.3-5.9,0.9L165.9,146.6L165.9,146.6L165.9,146.6z"/>
	<path d="M178.2,136.4l-0.9,2l-2.7-2.4L178.2,136.4L178.2,136.4L178.2,136.4z M173.1,134.1l-0.9,1.9l6.8,6.4l0.8-1.7l-1.4-1.2
		l1.4-2.9l1.8,0.2l0.8-1.7L173.1,134.1L173.1,134.1L173.1,134.1z"/>
	<polygon points="177.5,122.4 178,120.9 186.4,123.7 185.9,125.4 180.6,123.7 182.7,126.3 182.6,126.6 179.4,127.6 184.6,129.3 
		184.1,131 175.6,128.2 176.1,126.8 179.9,125.6 177.5,122.4 	"/>
	<path d="M13,75.8l9.5-0.8l-1.8,6.7L13,75.8L13,75.8L13,75.8z M27.9,87.3l-3.9-3l2.6-9.7l4.8-0.4l1.6-6l-25,2.6l-1.8,6.5l19.9,16
		L27.9,87.3L27.9,87.3L27.9,87.3z"/>
	<path d="M38.5,64.5c0.8-1.2,1.1-2.2,0.9-2.9c-0.2-0.7-1-1.6-2.6-2.7L19.7,46.8l3.4-4.8l17.3,12.2c2.7,1.9,4.2,3.7,4.7,5.3
		c0.4,1.7-0.1,3.6-1.6,5.9L38.5,64.5L38.5,64.5L38.5,64.5z"/>
	<path d="M46.6,27l7.9,5.2L49,36.4L46.6,27L46.6,27L46.6,27z M51.2,45.4L50,40.6l8.1-6l4,2.7l5-3.7L46,20.2l-5.4,4l5.7,24.8
		L51.2,45.4L51.2,45.4L51.2,45.4z"/>
	<polygon points="70.7,31.8 77.7,17.9 66.1,8.9 73.3,7.3 80.3,12.8 84.2,4.8 91.4,3.2 84.7,16.2 97.3,25.9 90,27.5 82.2,21.4 
		77.8,30.2 70.7,31.8 	"/>
	<path d="M40.1,136.6c0,0,10.1-2.4,32.6,7.4c0.4,0.1,4.4,1.6,7.3,2c-0.1-0.2-0.3-0.6-0.9-1.2c-0.6-0.6-1.2-1.2,0-2.3
		c1.2-1.2,1.7-0.6,2.3,0c4.7,4.7-0.1,6.7-0.1,6.7l-0.8,0.1c-3.4-0.3-9-2.3-9-2.3l-0.1,0c-21.5-9.4-30.6-7.2-30.6-7.2
		c-0.8,0.2-1.6,0.3-1.9-1.2C38.5,136.9,39.3,136.7,40.1,136.6L40.1,136.6L40.1,136.6z M88.1,101.1c-0.7,0.6-2.5,2.4-2.8,4.3
		l-0.1,0.8l-0.7,0.4c0,0-3.5,1.9-7.8,2.6c-0.8,0.1-1.6,0.3-1.9-1.3c-0.3-1.6,0.5-1.7,1.3-1.9c2.8-0.5,5.1-1.4,6.2-1.9
		c0.6-2.2,2.3-4.1,3.3-5.1l-1.5-9.5l2.6-1.6l8.9,6.5c0.6,0.4,0.9,0.7,0.9,1.1c0,0.3,0,0.7-0.4,1.2c-2.2,4.2-1,4.9-1,4.9l0.2,0.2
		c2.2,1.9,2.8,5,2.8,5l0,0.1c1.5,8.4-1.1,11.5-1.8,12.2c-1.3,1.6-3.4,6.5-3.8,7.5c-1,5.3-6.1,5.4-7.2,5.4c-4.5,0.9-6.1,1.8-6.1,1.8
		l-0.2,0.1c-4.5,2-7.9,0.8-8.9,0.3c-3.9-0.8-5.2-2.7-5.2-2.7l-0.2-0.4c-1.4-3.7-3.5-4.4-3.5-4.4l-0.5-0.3
		c-5.9-4.9-1.8-10.5-1.8-10.5l0.2-0.2c0.3-0.3,1.2-1.6,2-2.7c-0.5-0.1-0.8-0.5-0.8-1.6c0-1.6,0.8-1.6,1.6-1.6l0,0h1.4
		c0.3-0.2,0.6-0.2,1.1,0h2.2c0.8,0,1.6,0,1.6,1.6c0,1.6-0.8,1.6-1.6,1.6h-1.7c-0.9,1.3-2.7,4-3.4,4.9c-0.3,0.5-1.9,3.2,1.1,5.8
		c0.9,0.4,3.5,2,5,6c0.2,0.2,1.1,0.8,3.2,1.3l0.5,0.2c0,0,2.4,1.4,6.3-0.3c0.5-0.3,2.7-1.3,7.2-2.2l0.4,0c0,0,3.4,0.3,4-2.9l0.1-0.3
		c0,0,2.7-6.5,4.5-8.6l0.2-0.2c0,0,2.1-1.6,0.8-9.2c-0.1-0.3-0.5-2.1-1.8-3.1l0,0c-0.7-0.6-2.8-2.8-0.6-7.9L88,92.9l1,6.1
		c0.3,0.6,0.3,1,0.1,1.3C89,100.6,88.7,100.9,88.1,101.1L88.1,101.1z M129.7,161.2L129.7,161.2L129.7,161.2L129.7,161.2
		c0,0.1,0,1.2,0.1,1.1l0,0c0,0,2.6-2.2,3.6-12l0-0.2c0,0,2.2-9.9,9.9-0.4c0.5,0.5,4.9,4.9,5.2,1.2c-0.5-1.6-3-8.9-3.5-10.3
		c-0.5-0.9-3.6-6.8,5.9-7h0.1c0,0,5.9,0.3,12.1,2.5c0.8,0.3,1.5,0.6,1,2.1c-0.6,1.5-1.3,1.3-2.1,1c-5.4-2-10.7-2.3-11.2-2.3
		c-4.4,0.1-3,2.1-3,2.1l0.1,0.3c0.5,1.2,3.7,10.9,3.7,10.9l0.1,0.5c-0.2,12.4-10.8,1.3-10.8,1.2l-0.1-0.1c-3.2-3.9-4.1-1.5-4.2-1
		c-1.2,11-4.8,14-4.8,14l0,0c-4.4,3.9-5.3-0.9-5.5-2.8c0-0.2-0.1-0.5-0.1-0.7v0c0-0.2,0-0.4,0-0.5v-8.5c0-6.8-2.6-4.7-3-4.3
		c-9.3,10.2-14.4,26.5-14.4,26.5c-0.3,0.8-0.5,1.6-2,1.1c-1.5-0.5-1.3-1.3-1-2l0,0c0,0,5.4-17,15.1-27.8l0.1-0.1
		c0,0,8.5-8.5,8.6,6.3c0,0.1,0,0.2,0,0.3v0v0v0L129.7,161.2L129.7,161.2z M129.7,161.2L129.7,161.2L129.7,161.2z M123.4,148
		C123.4,148,123.4,148,123.4,148L123.4,148L123.4,148L123.4,148z M136.7,150.9C136.7,150.9,136.7,150.9,136.7,150.9L136.7,150.9
		L136.7,150.9L136.7,150.9z M71.1,81c0,0-2,2.2-1,2.3c1-0.1,6.8-0.5,6.8,4.3v-0.1c0,0,0.6,6.1-6,4.4l-0.5-0.2c0,0-0.5-0.3-0.3,3.2
		c0,0.2,0,0.3,0,0.5l0,0c0,0.2,0,0.5,0,0.7v5.6c1.2,1.6,4.5,6.6-2.9,6.6c-0.2,0-0.5,0-0.7,0c-0.3,0-0.6,0-0.8-0.1l-3.2-0.4
		c-0.8-0.1-1.6-0.2-1.4-1.8c0.2-1.6,1-1.5,1.8-1.4l3.8,0.5c1.4,0.1,1.2-0.7,0.9-1.2c-0.5-0.2-0.6-0.5-0.7-0.9
		c-0.2-0.3-0.3-0.7,0-1.2v-6.1c-0.5-9.3,3.9-7.5,5.1-6.8c1.8,0.4,1.7-1.1,1.7-1.1v-0.1c0-1.5-3.3-1.1-3.3-1.1l-0.2,0
		c-8.4,0-1.5-7.7-1.5-7.7c0.5-0.6,1.1-1.2,2.3-0.1C72.2,79.8,71.6,80.4,71.1,81L71.1,81L71.1,81z M61.6,79.5c0,0-2.7-2.9-3.1-3.6
		c-0.1-0.2-0.2-0.5-0.3-0.7c-0.8-1.2-3.8-6.3,5.8-5.3l0.3,0.1c0.1,0,25.1,7.2,64.1,45.8l0,0c0,0,5.7,5.5-2,7.7l-0.1,0
		c0,0-3.3,0.6-3,4c0.9,1.2,2.4,4.5-4,6.1l-0.1,0c0,0-4.2,0.7-6,1.5l-0.4,0.1c0,0-4.8,0.9-4.2-7.3l0.1-0.4c0,0,1.1-3.3-0.6-5.4
		c-0.5-0.6-1.2-0.8-1.9-0.9c-2.2-0.5-4-0.8-3.6-5.6c0-0.1,0-2,0.7-3.6c0.3-0.8,0.6-1.5,2.1-0.9c1.5,0.6,1.2,1.4,0.9,2.1
		c-0.4,1.1-0.4,2.4-0.4,2.4l0,0.2c-0.2,2,0.4,2.1,1,2.3c1.2,0.3,2.6,0.5,3.8,2.1c2.3,3.1,1.4,7.1,1.1,8.2c-0.2,3.1,0.2,3.6,0.3,3.7
		c2.1-0.9,5.8-1.5,6.4-1.6c2.6-0.7,2-1.2,2-1.2l-0.4-0.9c-1-6.4,4.7-7.9,5.4-8.1c2.3-0.7,0.6-2.3,0.6-2.3l0,0
		C89.3,81.6,65.5,73.7,63.6,73.1c-3.1-0.3-2.6,0.4-2.6,0.4l0.3,1c0,0,0-0.2,0.1,0c0.2,0.3,2.6,2.9,2.6,2.9c0.6,0.6,1.1,1.2-0.1,2.3
		C62.7,80.7,62.2,80.1,61.6,79.5L61.6,79.5L61.6,79.5z M58,74.5L58,74.5L58,74.5L58,74.5L58,74.5z M100.6,128c0,0-2,7.4-3.8,10.6
		l-0.1,0.1c0,0-3.2,4.4,0.5,2.4l0.2-0.1c0,0,5.3-2.1,8.8-2.5c0.8-0.1,1.6-0.2,1.8,1.4c0.2,1.6-0.6,1.7-1.4,1.8
		c-2.8,0.4-7.3,2.1-8,2.3c-15.8,8.6-5.5-5.9-4.6-7.1c1.6-2.8,3.5-9.7,3.5-9.7c0.2-0.8,0.4-1.6,2-1.2
		C101,126.4,100.8,127.2,100.6,128L100.6,128L100.6,128z M143.2,42.2c3.8,1,19.3,6.7,19.3,29.4v0c0,0.1,0.9,34.3-31.2,34.3h0.1
		c0,0-14.7,1.3-22-15.6l-0.1-0.1c0,0-3.7-11.8-9.9-11.7l-0.4,0c0,0-1.8-0.4-4.4,1.7c-0.6,0.5-1.3,1-2.3-0.2c-1-1.3-0.4-1.8,0.2-2.3
		c3.3-2.7,6.2-2.5,7-2.4c8.1,0,12.4,12.5,12.9,13.8c6.4,14.8,18.7,13.7,18.7,13.7h0.1c28.7,0,27.9-30.9,27.9-31v0
		c0-18.3-11-24.2-15.6-25.8v9.8c8.4,6.2,8.7,13.2,8.7,13.2c0,0.8,0.1,1.6-1.5,1.7c-1.6,0.1-1.7-0.7-1.7-1.6l0,0
		c0,0-0.2-5.6-7.6-10.9c-0.6-0.1-0.9-0.4-1-0.8c-0.2-0.3-0.3-0.7-0.1-1.2V44.3c-0.1-0.2-0.1-0.5,0-0.8c0-0.5,0-1,0.5-1.3
		c0.3-0.4,0.8-0.3,1.3-0.2C142.7,42,143,42.1,143.2,42.2L143.2,42.2z M112.6,89.1C112.6,89.1,112.6,89.1,112.6,89.1L112.6,89.1
		L112.6,89.1L112.6,89.1z M64.3,87.7c0,0-4.7,7.8-5.2,9l-0.2,0.4c0,0-1.3,1.7,0.4,2l0.4,0.1c0,0,0.7,0.4,2,0.4c0.8,0,1.6,0,1.6,1.6
		c0,1.6-0.8,1.6-1.6,1.6c-1.5,0-2.7-0.4-3.2-0.6c-6-1.2-3-6-2.3-7c0.9-1.9,5.3-9.2,5.3-9.2c0.4-0.7,0.8-1.4,2.2-0.6
		C65.2,86.3,64.8,87,64.3,87.7L64.3,87.7L64.3,87.7z M58.3,102.1C58.3,102.1,58.3,102.1,58.3,102.1L58.3,102.1L58.3,102.1
		L58.3,102.1z M95,107.4L95,107.4C95,107.4,95,107.4,95,107.4L95,107.4L95,107.4z M93.5,104.4L93.5,104.4
		C93.5,104.4,93.5,104.4,93.5,104.4L93.5,104.4L93.5,104.4z M70.9,65.5c0,0,5.8,0,19.3-8.8l-0.1,0c0,0,16-11.3,28.7-11.4h0.1
		c0,0,9,0.2,15,4.4c0.7,0.5,1.3,0.9,0.4,2.3c-0.9,1.3-1.6,0.9-2.3,0.4c-5.1-3.5-12.9-3.8-13.3-3.8C107.1,48.7,92.1,59.4,92,59.4
		l-0.1,0c-14.4,9.3-21,9.3-21,9.3c-0.8,0-1.6,0-1.6-1.6C69.3,65.5,70.1,65.5,70.9,65.5L70.9,65.5L70.9,65.5z M134.6,132
		c0,0-3.9,0.3-3.9,3.8c0,0.2,0.3,2.9,3.8,2.9l0.5,0.1c0,0,2.4,0.8,4-3.6c0.3-0.8,0.6-1.5,2.1-1c1.5,0.6,1.2,1.3,1,2.1
		c-2.3,6.3-6.5,5.9-7.7,5.7c-6.7-0.1-6.9-6-6.9-6v-0.1c0-6.5,6.9-7.1,6.9-7.1c0.8-0.1,1.6-0.1,1.8,1.5
		C136.2,131.9,135.4,132,134.6,132L134.6,132L134.6,132z M73.7,156.1c0,0,9.8,1.6,11,14.6c0.1,0.8,0.1,1.6-1.5,1.8
		c-1.6,0.1-1.7-0.7-1.8-1.5c-1-10.6-8.3-11.7-8.3-11.7c-0.8-0.1-1.6-0.3-1.3-1.9C72.1,155.8,72.9,156,73.7,156.1L73.7,156.1
		L73.7,156.1z"/>
</g>
</svg>
