<?xml version="1.0" encoding="utf-8"?>
<!-- Generator: Adobe Illustrator 21.1.0, SVG Export Plug-In . SVG Version: 6.00 Build 0)  -->
<svg version="1.1"
	 id="svg4842" inkscape:version="0.91 r13725" sodipodi:docname="alashkert fc.svg" xmlns:cc="http://creativecommons.org/ns#" xmlns:dc="http://purl.org/dc/elements/1.1/" xmlns:inkscape="http://www.inkscape.org/namespaces/inkscape" xmlns:rdf="http://www.w3.org/1999/02/22-rdf-syntax-ns#" xmlns:sodipodi="http://sodipodi.sourceforge.net/DTD/sodipodi-0.dtd" xmlns:svg="http://www.w3.org/2000/svg"
	 xmlns="http://www.w3.org/2000/svg" xmlns:xlink="http://www.w3.org/1999/xlink" x="0px" y="0px" viewBox="0 0 253 253"
	 style="enable-background:new 0 0 253 253;" xml:space="preserve">
<style type="text/css">
	.st0{fill:none;}
	.st1{fill:#563786;}
	.st2{fill:#FFFFFF;}
	.st3{fill:#FEFEFE;}
	.st4{fill:#543881;}
	.st5{fill:#553980;}
</style>
<g id="g5546" transform="matrix(0.69866008,0,0,0.69866008,-81.447719,631.76483)">
	<path id="path5548" inkscape:connector-curvature="0" class="st0" d="M292.7-787.1c-32.9,0-59.8,28.5-59.8,63.6
		c0,35.1,26.9,64.1,59.8,64.1s60.4-29.1,60.4-64.2C353.2-758.7,325.6-787.1,292.7-787.1z"/>
	<g id="g5550">
		<path id="path5552" inkscape:connector-curvature="0" class="st0" d="M292.7-785.7c-10,0-19.6,2.7-28.2,7.8
			c-19.1,11.3-30.2,32.4-30.2,54.4c0,22.8,11.9,44.9,32.2,56c8.1,4.4,17,6.7,26.2,6.7c8.8,0,17.5-2.2,25.3-6.2
			c20.9-10.8,33.7-33.2,33.7-56.6c0-22.4-11.8-43.7-31.4-54.8C311.9-783.2,302.4-785.7,292.7-785.7L292.7-785.7z"/>
	</g>
	<path id="path5554" inkscape:connector-curvature="0" class="st0" d="M297.6-544.2c-98.8,0-178.9-80.1-178.9-178.9
		s80.1-179,178.9-179S476.5-822,476.5-723.2S396.4-544.2,297.6-544.2L297.6-544.2z"/>
	<path id="path5556" inkscape:connector-curvature="0" class="st0" d="M297.7-546.3c-97.6,0-176.6-79.1-176.6-176.6l0,0
		c0-97.6,79.1-176.6,176.6-176.6s176.6,79.1,176.6,176.6C474.4-625.4,395.3-546.3,297.7-546.3z"/>
	<g id="g5558">
		<path id="path5560" inkscape:connector-curvature="0" class="st0" d="M297.7-554.3C204.5-554.3,129-629.8,129-723l0,0
			c0-93.2,75.5-168.7,168.7-168.7S466.5-816.1,466.5-723C466.5-629.8,390.9-554.3,297.7-554.3z"/>
	</g>
	<path id="path5562" inkscape:connector-curvature="0" class="st0" d="M297.6-597c-69.7,0-126.2-56.5-126.2-126.2
		s56.5-126.2,126.2-126.2s126.2,56.5,126.2,126.2S367.3-597,297.6-597L297.6-597z"/>
	<path id="path5564" inkscape:connector-curvature="0" class="st0" d="M250.4-766.4l14.1,1.5l26.9-10l8.6-10.2"/>
	<path id="path5566" inkscape:connector-curvature="0" class="st0" d="M327.6-773.6l0.1,10.8l18.9,24l2.1-4.1"/>
	<path id="path5568" inkscape:connector-curvature="0" class="st0" d="M308.8-759.8l18.8-1.5l18.4,24l-7.4,16.7l-21.5,2.7
		l-13.8-16.9L308.8-759.8L308.8-759.8z"/>
	<path id="path5570" inkscape:connector-curvature="0" class="st0" d="M264.7-763.5l27.1-9.8l15.1,13.9l-5.3,23.5l-23.1,7.1
		l-19.2-15.8L264.7-763.5z"/>
	<path id="path5572" inkscape:connector-curvature="0" class="st0" d="M237.6-744.2l4.8,9.7l-0.6,29l-3.3,5.2"/>
	<path id="path5574" inkscape:connector-curvature="0" class="st0" d="M244-734.6l14.9-8.2l18.8,15.4l0.6,24.3l-16.8,10.2
		l-18.6-12.9L244-734.6L244-734.6z"/>
	<path id="path5576" inkscape:connector-curvature="0" class="st0" d="M262.3-691.7l17.2-10.3l22.7,6.3l5.1,15.6l-14.2,11l-27.2-8.2
		L262.3-691.7L262.3-691.7z"/>
	<path id="path5578" inkscape:connector-curvature="0" class="st0" d="M303.9-697l13.8-19.5l21.3-2.6l5.6,15.1l-16.2,25.1l-19.6-0.9
		L303.9-697z"/>
	<path id="path5580" inkscape:connector-curvature="0" class="st0" d="M346.8-698.7l-1.5-3.6L330.2-679h3.9"/>
	<path id="path5582" inkscape:connector-curvature="0" class="st0" d="M257.7-673.4l7.8-2.7l26.9,8.4l3.9,6.8"/>
	<path id="path5584" inkscape:connector-curvature="0" class="st1" d="M237.6-744.2c2.7-8.2,7-15.8,12.8-22.3c4-4.5,8.7-8.4,14-11.5
		c8.6-5.1,18.2-7.8,28.2-7.8c2.5,0,4.9,0.2,7.4,0.5c7.1,1,13.9,3.4,20.2,6.9c2.5,1.4,5,2.9,7.3,4.7c10.1,7.8,17.4,18.6,21.2,30.7
		c1.9,6.2,3,12.7,3,19.3c0,8.6-1.9,17.1-5,24.9c-3,7.3-7.3,14-12.8,19.7c-4.6,4.8-9.9,8.8-15.9,12c-6.8,3.5-14.1,5.6-21.7,6.1
		c-1.2,0.1-2.4,0.1-3.7,0.1c-9.2,0-18.2-2.3-26.2-6.7c-3.1-1.7-6-3.7-8.8-5.9c-8.7-7-15.3-16.4-19.2-26.8
		c-2.8-7.4-4.2-15.3-4.2-23.3C234.3-730.6,235.4-737.6,237.6-744.2L237.6-744.2z M292.7-787.1c-32.9,0-59.8,28.5-59.8,63.6
		c0,35.1,26.9,64.1,59.8,64.1s60.4-29.1,60.4-64.2C353.2-758.7,325.6-787.1,292.7-787.1z"/>
	<path id="path5586" inkscape:connector-curvature="0" class="st1" d="M250.4-766.4c-5.8,6.4-10.2,14.1-12.8,22.3l4.8,9.7l-0.6,29
		l-3.3,5.3c3.9,10.4,10.5,19.7,19.2,26.8l7.9-2.7l26.9,8.4l3.9,6.8c7.6-0.5,14.9-2.6,21.7-6.1c6-3.1,11.3-7,15.8-11.8l-3.7-0.2
		l15.1-23.3l1.3,4.1c3.3-7.5,5.2-16.8,5.2-25.4c0-6.6-1-13.6-3.1-19.7l-2,4.4l-18.9-24l-0.1-10.8c-2.3-1.9-4.7-3.4-7.2-4.8
		c-6.3-3.6-13-5.9-20.3-6.8l-8.6,10.2l-26.9,10L250.4-766.4L250.4-766.4z M244-734.6l14.9-8.2l18.8,15.4l0.6,24.3l-16.8,10.2
		l-18.4-12.9L244-734.6L244-734.6z M279.5-702l22.7,6.3l5.1,15.6l-14.5,11l-27-8.3l-3.5-14.3L279.5-702z M259.4-744.7l5.3-18.8
		l27.1-9.8l15.1,13.9l-5.3,23.5l-23.1,7.1L259.4-744.7z M303.6-696.4l14-19.9L339-719l5.6,15.1l-16.1,25l-19.7-0.8L303.6-696.4
		L303.6-696.4z M308.8-759.8l18.8-1.5l18.4,24l-7.4,16.7l-21.5,2.7l-13.8-16.9L308.8-759.8L308.8-759.8z"/>
	<path id="path5588" inkscape:connector-curvature="0" class="st1" d="M313.4-658.4c36.5-15.9,68.5-60.4,34.4-103.1
		c-19.2-24-6.2-46.8,6.8-63.6c-0.3,13.7,11,30.2,20.8,43.2C421.1-721.1,375.8-671.2,313.4-658.4L313.4-658.4z"/>
	<g id="g5590">
		<path id="path5592" inkscape:connector-curvature="0" class="st2" d="M155.5-658.1c14.6-12.2,32.3-23.3,51.9-24.4
			c11.1-0.6,21.5,2.1,31.3,7.2c25,13.1,54.2,22.4,82.7,20c21.4-1.8,41.3-10.2,55.5-26.6c9.3-10.7,15.1-23.7,17.6-37.6
			c2.9-16,1.4-32.5-3-48l-1.4-5l4.1,3.2c1.8,1.4,3.5,3,5.1,4.7c10.5,11.3,14.7,27,14.6,42.1c-0.1,17.1-5.5,34.4-14.8,48.8
			c-11.4,17.7-28,30.5-48.1,36.8c-26.3,8.3-54.7,4.2-80.2-4.9c-13-4.6-26.3-8.8-39.8-11.6c-10.9-2.3-21.8-3.6-32.9-3.9
			c-13.8-0.4-27.6,0.8-41.4,2.2l-5.6,0.6L155.5-658.1L155.5-658.1z"/>
	</g>
	<path id="path5594" inkscape:connector-curvature="0" class="st1" d="M156.6-656.8c26.8-22.3,53-31.7,81.3-16.9
		c105.4,55,179.2-8.6,155.3-94.2c47.9,37.6,4.8,169.8-121.8,124.6C222.2-661,196.9-661.1,156.6-656.8L156.6-656.8z"/>
	<path class="st1" d="M297.7-845.3c-67.6,0-122.4,54.8-122.4,122.4s54.8,122.4,122.4,122.4s122.4-54.8,122.4-122.4
		S365.3-845.3,297.7-845.3z M297.7-604c-65.7,0-119-53.3-119-119s53.3-119,119-119s119,53.3,119,119S363.4-604,297.7-604z"/>
	<path id="path5598" inkscape:connector-curvature="0" class="st3" d="M414.5-832.8l15,18.2l-4.4,3.6l-4.9-5.9L400-800.3l-5.2-6.3
		l20.2-16.6l-4.9-5.9L414.5-832.8z"/>
	<g id="g5600">
		<path id="path5602" inkscape:connector-curvature="0" class="st3" d="M390.9-854l6.3,5.4c0.3,0.3,0.7,0.6,1,0.8
			c0.4,0.3,0.5,0.4,0.6,0.5c3.4,2.9,5.5,5.6,6.1,8c0.7,2.4,0,4.7-1.9,7c-1.3,1.5-2.8,2.3-4.4,2.6c-1.7,0.2-3.5-0.2-5.5-1.2
			c0.7,0.9,1,1.8,1,2.7c0,0.9-0.3,2.3-1,4.1l-4.1,10.7l-6.4-5.5l3.7-8.7c0.7-1.6,1-2.7,0.9-3.5s-0.6-1.6-1.5-2.3l-1.2-1l-8.5,9.9
			l-6-5.2L390.9-854L390.9-854z"/>
		<path id="path5604" inkscape:connector-curvature="0" class="st4" d="M393.5-844.8l-5.3,6.2l1.3,1.1c1.5,1.3,2.8,2,3.9,2.1
			c1.1,0.1,2.1-0.4,3-1.5c1-1.2,1.4-2.2,1.2-3.2c-0.2-1-1.1-2.2-2.7-3.5L393.5-844.8z"/>
	</g>
	<path id="path5606" inkscape:connector-curvature="0" class="st3" d="M363-869.7l17.9,9.2l-2.4,4.7l-10.7-5.5l-3.5,6.8l10.1,5.2
		l-2.4,4.7l-10.1-5.2l-3.7,7.3l11.2,5.7L367-832l-18.4-9.4L363-869.7L363-869.7z"/>
	<path id="path5608" inkscape:connector-curvature="0" class="st3" d="M327.5-881.1l7.8,2.1l-3.3,12.6l11.9-10.4l8.7,2.3l-14.1,11.6
		l6.9,19.4l-9.3-2.4l-5.2-16.5l-3.7,14.1l-7.8-2.1L327.5-881.1L327.5-881.1z"/>
	<path id="path5610" inkscape:connector-curvature="0" class="st3" d="M287.8-883.7h8.1v12.5h8.6v-12.5h8.1v31.8h-8.1v-13.5h-8.6
		v13.5h-8.1V-883.7L287.8-883.7z"/>
	<path id="path5612" inkscape:connector-curvature="0" class="st3" d="M275.6-882.4l0.4,5.7c-1.3-0.3-2.6-0.5-3.8-0.6
		c-1.2-0.1-2.3,0-3.3,0.1c-1.5,0.2-2.7,0.7-3.5,1.4s-1.1,1.5-0.9,2.6c0.1,0.9,0.6,1.7,1.4,2.2s2.4,1.1,4.7,1.7
		c3.9,1,6.4,2.1,7.7,3.3c1.3,1.2,2.1,2.8,2.4,4.9c0.5,3-0.3,5.6-2.3,7.7c-2,2.1-4.9,3.4-8.7,4c-1.3,0.2-2.7,0.3-4.2,0.3
		s-3.1-0.1-4.9-0.3l-0.2-5.8c1.6,0.4,3,0.7,4.4,0.8s2.6,0.1,3.9-0.1c1.6-0.2,2.8-0.7,3.6-1.5c0.8-0.8,1.1-1.8,0.9-2.9
		c-0.2-1.6-2.4-3-6.3-4.2c-0.5-0.1-0.9-0.2-1.1-0.3c-3.2-0.9-5.3-1.9-6.5-3c-1.2-1.1-1.9-2.6-2.2-4.6c-0.4-3,0.3-5.4,2.2-7.4
		c1.9-2,4.8-3.3,8.6-3.9c1.2-0.2,2.4-0.3,3.7-0.3C272.9-882.6,274.2-882.5,275.6-882.4L275.6-882.4z"/>
	<g id="g5614">
		<path id="path5616" inkscape:connector-curvature="0" class="st3" d="M225.9-868l8.6-3.9l23.1,24.5l-7.7,3.5l-4.8-5.6l-10.4,4.7
			l1,7.4l-7.2,3.3L225.9-868z"/>
		<path id="path5618" inkscape:connector-curvature="0" class="st5" d="M232.6-864.2l1.5,13.5l7.3-3.3L232.6-864.2z"/>
	</g>
	<path id="path5620" inkscape:connector-curvature="0" class="st3" d="M193.9-848.6l6.6-4.8l15.3,21.1l9.4-6.8l3.4,4.7l-15.9,11.6
		L193.9-848.6z"/>
	<g id="g5622">
		<path id="path5624" inkscape:connector-curvature="0" class="st3" d="M172-826.3l6.1-7.1l31.2,12.6l-5.5,6.4l-6.7-3.1l-7.4,8.6
			l4,6.3l-5.2,6L172-826.3L172-826.3z"/>
		<path id="path5626" inkscape:connector-curvature="0" class="st5" d="M179.7-825.6l7,11.7l5.2-6L179.7-825.6z"/>
	</g>
	<path id="path5628" inkscape:connector-curvature="0" class="st3" d="M384.4-614.3l7.7-7.6c2-2,3.7-3.1,5-3.4
		c1.3-0.3,2.7,0.3,3.9,1.6l1,1c0.8,0.9,1.3,1.8,1.3,2.7s-0.4,1.9-1.2,2.9c1.1-0.8,2.2-1.2,3.3-1.1c1.1,0,2,0.4,2.8,1.3l0.9,0.9
		c1.4,1.5,2,2.9,1.7,4.3c-0.3,1.4-1.5,3.2-3.8,5.5l-7.6,7.5L384.4-614.3L384.4-614.3z"/>
	<path id="path5630" inkscape:connector-curvature="0" class="st1" d="M396.9-608.4l2.3,2.4l4.3-4c0.8-0.8,1.4-2.2,1-2.6l-0.6-0.6
		c-0.5-0.5-1.8,0-2.7,0.8L396.9-608.4L396.9-608.4z"/>
	<path id="path5632" inkscape:connector-curvature="0" class="st1" d="M391.4-613.8l2,2.1l4.1-4.1c0.6-0.6,1.4-2,1-2.4l-0.6-0.6
		c-0.6-0.6-2,0.4-2.5,0.9L391.4-613.8L391.4-613.8z"/>
	<path id="path5634" inkscape:connector-curvature="0" class="st3" d="M369.1-603.5l4.5-3.2l7.4,10.4c1,1.4,1.9,2.3,2.5,2.4
		c0.6,0.2,1.5-0.1,2.6-0.9l0.8-0.6c1.1-0.8,1.6-1.5,1.6-2.1c0-0.7-0.5-1.7-1.5-3.2l-7.4-10.4l4.5-3.2l7.6,10.8
		c1.1,1.6,1.9,2.8,2.2,3.7c0.3,0.9,0.5,1.8,0.4,2.6c-0.1,1-0.4,2-1,2.8s-1.6,1.7-2.9,2.7l-2.2,1.6c-1.3,1-2.5,1.6-3.5,1.9
		c-1,0.3-2,0.3-3,0c-0.8-0.2-1.6-0.7-2.4-1.3c-0.7-0.6-1.7-1.7-2.8-3.3L369.1-603.5L369.1-603.5z"/>
	<path id="path5636" inkscape:connector-curvature="0" class="st3" d="M366.8-578.7l-10.4-19.2l4.9-2.7l8,14.7l8.1-4.4l2.4,4.5
		L366.8-578.7L366.8-578.7z"/>
	<path id="path5638" inkscape:connector-curvature="0" class="st3" d="M361-585.1l0.2,0.6c1,2.7,1.2,4.8,0.6,6.4
		c-0.7,1.6-2.2,2.9-4.8,3.9l-1.8,0.7c-2.7,1.1-4.9,1.2-6.5,0.4s-3-2.7-4.2-5.8l-1.6-4.2c-1.2-3.1-1.5-5.5-0.9-7.1
		c0.6-1.7,2.3-3,5-4.1l1.4-0.6c2.7-1.1,4.8-1.2,6.3-0.6c1.5,0.7,2.8,2.3,3.8,5.1l0.2,0.4l-5.2,2l-0.1-0.4c-0.4-0.9-0.8-1.5-1.4-1.7
		s-1.3-0.1-2.3,0.3c-1.1,0.4-1.8,0.9-2,1.5s0,1.8,0.7,3.5l1.3,3.3c0.7,1.7,1.3,2.8,1.8,3.1s1.4,0.2,2.5-0.2c1-0.4,1.7-0.9,1.9-1.5
		c0.2-0.6,0.2-1.4-0.3-2.4l-0.2-0.5L361-585.1L361-585.1z"/>
	<path id="path5640" inkscape:connector-curvature="0" class="st3" d="M320.8-564.7l-4.1-21.4l5.5-1.1l3.1,16.5l9.1-1.7l1,5
		L320.8-564.7L320.8-564.7z"/>
	<path id="path5642" inkscape:connector-curvature="0" class="st3" d="M304.4-563.4l-1.4-21.8l5.6-0.4l1.1,16.7l9.3-0.6l0.3,5.1
		L304.4-563.4L304.4-563.4z"/>
	<g id="g5644">
		<path id="path5646" inkscape:connector-curvature="0" class="st3" d="M281.8-563.8l6.8-21.6l8.5,0.3l5,22l-6-0.2l-0.8-3.8
			l-6.5-0.2l-1.1,3.8L281.8-563.8L281.8-563.8z"/>
		<path id="path5648" inkscape:connector-curvature="0" class="st1" d="M290-571.8l4.5,0.2l-1.7-9.1h-0.4L290-571.8L290-571.8z"/>
	</g>
	<path id="path5650" inkscape:connector-curvature="0" class="st3" d="M266-588.2l10.2,2c2.7,0.5,4.5,1.3,5.4,2.2
		c0.9,1,1.2,2.3,0.9,4.2l-0.3,1.4c-0.2,1.2-0.7,2.1-1.4,2.6c-0.7,0.5-1.7,0.8-3,0.7c1.2,0.5,2.1,1.2,2.7,2.1c0.6,0.9,0.7,1.9,0.5,3
		l-0.2,1.3c-0.4,2-1.2,3.4-2.5,3.9c-1.3,0.6-3.4,0.6-6.4,0l-10.1-1.9L266-588.2L266-588.2z"/>
	<path id="path5652" inkscape:connector-curvature="0" class="st1" d="M268.4-574.3l-0.6,3l5.3,1c1.4,0.3,2.7,0,2.8-0.4l0.2-0.9
		c0.1-0.6-1-1.5-2.4-1.7L268.4-574.3z"/>
	<path id="path5654" inkscape:connector-curvature="0" class="st1" d="M269.9-582.1l-0.6,2.9l5,1c1.2,0.2,2.6-0.1,2.7-0.5l0.2-0.9
		c0.1-0.5-1.2-1.3-2.3-1.6L269.9-582.1z"/>
	<path id="path5656" inkscape:connector-curvature="0" class="st3" d="M247.3-570.8l5.1-16.2l-5.1-1.6l1.5-4.6l15.5,4.9l-1.5,4.6
		l-5.1-1.6l-5.1,16.2L247.3-570.8L247.3-570.8z"/>
	<g id="g5658">
		<path id="path5660" inkscape:connector-curvature="0" class="st3" d="M228.1-593.2c1.3-3,2.8-4.9,4.4-5.6c1.6-0.7,3.8-0.5,6.4,0.7
			l2.5,1.1c2.7,1.2,4.3,2.6,4.9,4.3c0.5,1.7,0.1,4-1.2,7.1l-1.8,4.1c-1.3,3-2.8,4.9-4.4,5.6c-1.6,0.7-3.8,0.5-6.5-0.7l-2.5-1.1
			c-2.7-1.2-4.3-2.6-4.8-4.3s-0.1-4,1.2-7.1L228.1-593.2L228.1-593.2z"/>
		<path id="path5662" inkscape:connector-curvature="0" class="st1" d="M233.1-590.5l-1.5,3.3c-0.8,1.7-1.1,2.9-0.9,3.5
			c0.2,0.6,0.8,1.2,2,1.7l0.9,0.4c1.2,0.5,2,0.6,2.6,0.3s1.2-1.3,2-3l1.5-3.3c0.8-1.7,1-2.9,0.9-3.5c-0.2-0.6-0.8-1.2-2-1.7
			l-0.9-0.4c-1.2-0.5-2-0.6-2.6-0.3C234.5-593.2,233.9-592.2,233.1-590.5L233.1-590.5z"/>
	</g>
	<g id="g5664">
		<path id="path5666" inkscape:connector-curvature="0" class="st3" d="M211.5-603.9c1.8-2.8,3.6-4.4,5.3-4.8
			c1.7-0.5,3.8,0.1,6.2,1.7l2.3,1.5c2.5,1.6,3.8,3.3,4.1,5c0.3,1.8-0.5,4-2.3,6.8l-2.5,3.8c-1.8,2.8-3.6,4.4-5.3,4.8
			c-1.7,0.5-3.8-0.1-6.3-1.7l-2.3-1.5c-2.5-1.6-3.8-3.3-4.1-5s0.5-4,2.3-6.8L211.5-603.9L211.5-603.9z"/>
		<path id="path5668" inkscape:connector-curvature="0" class="st1" d="M216-600.4l-2,3c-1,1.6-1.5,2.7-1.4,3.3s0.6,1.3,1.7,2
			l0.9,0.6c1.1,0.7,1.9,1,2.5,0.8s1.4-1.1,2.4-2.6l2-3c1-1.6,1.5-2.7,1.4-3.3s-0.6-1.3-1.7-2l-0.9-0.6c-1.1-0.7-1.9-0.9-2.5-0.8
			C217.9-602.9,217-602,216-600.4L216-600.4z"/>
	</g>
	<path id="path5670" inkscape:connector-curvature="0" class="st3" d="M190.8-604.1l14.6-16.3l10.4,9.3l-3.2,3.6l-6.2-5.6l-2.8,3.2
		l4.3,3.8l-3.2,3.6l-4.3-3.8l-5.3,5.9L190.8-604.1L190.8-604.1z"/>
	<path id="path5672" inkscape:connector-curvature="0" class="st1" d="M121.1-723c0-97.6,79.1-176.6,176.6-176.6
		S474.3-820.5,474.3-723c0,97.6-79.1,176.6-176.6,176.6S121.1-625.4,121.1-723z M118.7-721.1c1.1,97.9,80.8,176.9,178.9,176.9
		c98.8,0,178.9-80.1,178.9-178.9s-80.1-179-178.9-179c-98.1,0-177.8,79-178.9,176.9L118.7-721.1L118.7-721.1z"/>
	<path id="path5674" inkscape:connector-curvature="0" class="st1" d="M297.7-891.7C204.6-891.7,129-816.1,129-723
		c0,93.2,75.5,168.7,168.7,168.7S466.4-629.8,466.4-723C466.5-816.1,390.9-891.7,297.7-891.7L297.7-891.7z M188.5-796.8L172-826.3
		l6.1-7.1l31.2,12.6l-5.5,6.4l-6.7-3.1l-7.4,8.6l4,6.3L188.5-796.8L188.5-796.8z M212.6-822.8l-18.7-25.8l6.6-4.8l15.3,21.1l9.4-6.8
		l3.4,4.6l-2.6-33.6l8.6-3.9l23.1,24.5L250-844l-4.8-5.6l-10.4,4.7l1,7.4l-7.2,3.3v-0.1L212.6-822.8L212.6-822.8z M265.8-863.4
		c-3.2-0.9-5.3-1.9-6.5-3c-1.2-1.1-1.9-2.6-2.2-4.6c-0.4-3,0.3-5.4,2.2-7.4c1.9-2,4.8-3.3,8.6-3.9c1.2-0.2,2.4-0.3,3.7-0.3
		c1.3,0,2.6,0,4.1,0.2l0.4,5.7c-1.3-0.3-2.6-0.5-3.8-0.6c-1.2-0.1-2.3,0-3.3,0.1c-1.5,0.2-2.7,0.7-3.5,1.4c-0.8,0.7-1.1,1.5-0.9,2.6
		c0.1,0.9,0.6,1.7,1.4,2.2s2.4,1.1,4.7,1.7c3.9,1,6.4,2.1,7.7,3.3c1.3,1.2,2.1,2.8,2.4,4.9c0.5,3-0.3,5.6-2.3,7.7
		c-2,2.1-4.9,3.4-8.7,4c-1.3,0.2-2.7,0.3-4.2,0.3s-3.1-0.1-4.9-0.3l-0.2-5.8c1.6,0.4,3,0.7,4.4,0.8c1.4,0.1,2.6,0.1,3.9-0.1
		c1.6-0.2,2.8-0.7,3.6-1.5c0.8-0.8,1.1-1.8,0.9-2.9c-0.2-1.6-2.4-3-6.3-4.2L265.8-863.4L265.8-863.4z M287.8-851.9v-31.8h8.1v12.5
		h8.6v-12.5h8.1v31.8h-8.1v-13.5h-8.6v13.5H287.8L287.8-851.9z M171.4-723.2c0-69.7,56.5-126.2,126.2-126.2s126.2,56.5,126.2,126.2
		S367.3-597,297.6-597c-45.6,0-85.6-24.2-107.7-60.5c-11.1,0.1-22.1,1.1-33.1,2.3l-5.6,0.6l4.3-3.6c7.7-6.4,16.2-12.5,25.4-17
		C174.8-689.9,171.4-706.2,171.4-723.2z M190.8-604.1l14.6-16.3l10.4,9.3l-3.2,3.6l-6.2-5.6l-2.8,3.2l4.3,3.8l-3.2,3.6l-4.3-3.8
		l-5.3,5.9L190.8-604.1L190.8-604.1z M211.5-603.9c1.8-2.8,3.6-4.4,5.3-4.8c1.7-0.5,3.8,0.1,6.2,1.7l2.3,1.5c2.5,1.6,3.8,3.3,4.1,5
		c0.3,1.8-0.5,4-2.3,6.8l-2.5,3.8c-1.8,2.8-3.6,4.4-5.3,4.8c-1.7,0.5-3.8-0.1-6.3-1.7l-2.3-1.5c-2.5-1.6-3.8-3.3-4.1-5
		s0.5-4,2.3-6.8L211.5-603.9L211.5-603.9z M228.1-593.2c1.3-3,2.8-4.9,4.4-5.6c1.6-0.7,3.8-0.5,6.4,0.7l2.5,1.1
		c2.7,1.2,4.3,2.6,4.9,4.3c0.5,1.7,0.1,4-1.2,7.1l-1.8,4.1c-1.3,3-2.8,4.9-4.4,5.6c-1.6,0.7-3.8,0.5-6.5-0.7l-2.5-1.1
		c-2.7-1.2-4.3-2.6-4.8-4.3s-0.1-4,1.2-7.1L228.1-593.2L228.1-593.2z M247.3-570.8l5.1-16.2l-5.1-1.6l1.5-4.6l15.5,4.9l-1.5,4.6
		l-5.1-1.6l-5.1,16.2L247.3-570.8z M261.9-566.8l4.1-21.4l10.2,2c2.7,0.5,4.5,1.3,5.4,2.2c0.9,1,1.2,2.3,0.9,4.2l-0.3,1.4
		c-0.2,1.2-0.7,2.1-1.4,2.6c-0.7,0.5-1.7,0.8-3,0.7c1.2,0.5,2.1,1.2,2.7,2.1c0.6,0.9,0.7,1.9,0.5,3l-0.2,1.3c-0.4,2-1.2,3.4-2.5,3.9
		c-1.3,0.6-3.4,0.6-6.4,0L261.9-566.8L261.9-566.8z M281.8-563.8l6.8-21.6l8.5,0.3l5,22l-6-0.2l-0.8-3.8l-6.5-0.2l-1.1,3.8
		L281.8-563.8L281.8-563.8z M304.4-563.4l-1.4-21.8l5.6-0.4l1.1,16.7l9.2-0.6l0.3,5.1L304.4-563.4L304.4-563.4z M320.8-564.7
		l-4.1-21.4l5.5-1.1l3.1,16.5l9.1-1.7l1,5L320.8-564.7L320.8-564.7z M348.6-595c2.7-1.1,4.8-1.2,6.3-0.6c1.5,0.7,2.8,2.3,3.8,5.1
		l0.2,0.4l-5.2,2l-0.1-0.4c-0.4-0.9-0.8-1.5-1.4-1.7s-1.3-0.1-2.3,0.3c-1.1,0.4-1.8,0.9-2,1.5s0,1.8,0.7,3.5l1.3,3.3
		c0.7,1.7,1.3,2.8,1.8,3.1s1.4,0.2,2.5-0.2c1-0.4,1.7-0.9,1.9-1.5c0.2-0.6,0.2-1.4-0.3-2.4l-0.2-0.5l5.3-2l0.2,0.6
		c1,2.7,1.2,4.8,0.6,6.4c-0.7,1.6-2.2,2.9-4.8,3.9l-1.8,0.7c-2.7,1.1-4.9,1.2-6.5,0.4s-3-2.7-4.2-5.8l-1.6-4.2
		c-1.2-3.1-1.5-5.5-0.9-7.1c0.6-1.7,2.3-3,5-4.1L348.6-595L348.6-595z M366.8-578.7l-10.4-19.2l4.9-2.7l8,14.7l8.1-4.4l2.4,4.5
		L366.8-578.7L366.8-578.7z M369.1-603.5l4.5-3.2l7.4,10.4c1,1.4,1.9,2.3,2.5,2.4c0.6,0.2,1.5-0.1,2.6-0.9l0.8-0.6
		c1.1-0.8,1.6-1.5,1.6-2.1c0-0.7-0.5-1.7-1.5-3.2l-7.4-10.4l4.5-3.2l7.6,10.8c1.1,1.6,1.9,2.8,2.2,3.7c0.3,0.9,0.5,1.8,0.4,2.6
		c-0.1,1-0.4,2-1,2.8s-1.6,1.7-2.9,2.7l-2.2,1.6c-1.3,1-2.5,1.6-3.5,1.9c-1,0.3-2,0.3-3,0c-0.8-0.2-1.6-0.7-2.4-1.3
		c-0.7-0.6-1.7-1.7-2.8-3.3L369.1-603.5L369.1-603.5z M384.4-614.3l7.7-7.6c2-2,3.7-3.1,5-3.4c1.3-0.3,2.7,0.3,3.9,1.6l1,1
		c0.8,0.9,1.3,1.8,1.3,2.7s-0.4,1.9-1.2,2.9c1.1-0.8,2.2-1.2,3.3-1.1c1.1,0,2,0.4,2.8,1.3l0.9,0.9c1.4,1.5,2,2.9,1.7,4.3
		c-0.3,1.4-1.5,3.2-3.8,5.5l-7.6,7.5L384.4-614.3L384.4-614.3z M319.4-850.3l8.1-30.8l7.8,2.1l-3.3,12.6l11.9-10.4l8.7,2.3
		l-14.1,11.6l6.9,19.4l-9.3-2.4l-5.2-16.5l-3.7,14.1L319.4-850.3L319.4-850.3z M348.5-841.4l14.5-28.3l17.9,9.2l-2.4,4.7l-10.7-5.5
		l-3.5,6.8l10.1,5.2l-2.4,4.7l-10.1-5.2l-3.7,7.3l11.2,5.7L367-832L348.5-841.4L348.5-841.4z M370.2-829.9l20.7-24.1l6.3,5.4
		c0.3,0.3,0.7,0.6,1,0.8l0.6,0.5c3.4,2.9,5.5,5.6,6.1,8c0.7,2.4,0,4.7-1.9,7c-1.3,1.5-2.8,2.3-4.4,2.6c-1.7,0.2-3.5-0.2-5.5-1.2
		c0.7,0.9,1,1.8,1,2.7c0,0.9-0.3,2.3-1,4.1l-4.1,10.7l-6.4-5.5l3.7-8.7c0.7-1.6,1-2.7,0.9-3.5s-0.6-1.6-1.5-2.3l-1.2-1l-8.5,9.9
		L370.2-829.9L370.2-829.9z M415.1-823.3l-4.9-5.9l4.4-3.6l15,18.2l-4.4,3.6l-4.9-5.9l-20.2,16.6l-5.2-6.3L415.1-823.3L415.1-823.3z
		"/>
</g>
</svg>
