<?xml version="1.0" encoding="utf-8"?>
<!-- Generator: Adobe Illustrator 21.1.0, SVG Export Plug-In . SVG Version: 6.00 Build 0)  -->
<svg version="1.1"
	 id="svg2" xmlns:cc="http://creativecommons.org/ns#" xmlns:dc="http://purl.org/dc/elements/1.1/" xmlns:rdf="http://www.w3.org/1999/02/22-rdf-syntax-ns#" xmlns:svg="http://www.w3.org/2000/svg"
	 xmlns="http://www.w3.org/2000/svg" xmlns:xlink="http://www.w3.org/1999/xlink" x="0px" y="0px" viewBox="0 0 200 200"
	 style="enable-background:new 0 0 200 200;" xml:space="preserve">
<style type="text/css">
	.st0{fill:#006723;}
	.st1{fill:#FFFFFF;}
</style>
<g>
	<path id="path5" class="st0" d="M46.8,151.7c0.6-0.5,1.8-0.2,2.4,0.4c0.5,0.5,0.5,1.6,0,2.1l-8.7,7.2c-0.3,0.2-0.3,0.5-0.1,0.9
		c0.5,0.8-0.9,1.6-1.4,1l-10.3-12c-0.6-0.7,0.4-2,1.4-1.7l8.8-7.2c0.8-0.6,1.8-0.6,2.5,0.1c0.8,0.9,0.8,1.9-0.1,2.5l-8.7,6.9
		c-0.2,0.1-0.2,0.4-0.1,0.6l5.2,6.1c0.1,0.2,0.5,0.1,0.7,0L46.8,151.7z"/>
	<path id="path7" class="st0" d="M37.8,138.4c-0.6,0-1.1,0.5-1.2,1.1c0,0.6,0.5,1.1,1.1,1.2c0.6,0,1.1-0.5,1.2-1.1
		C38.9,138.9,38.4,138.4,37.8,138.4z"/>
	<path id="path9" class="st0" d="M28,117.8c-0.6,0-1.1,0.5-1.2,1.1s0.5,1.1,1.1,1.2c0.6,0,1.1-0.5,1.2-1.1
		C29.1,118.3,28.6,117.8,28,117.8z"/>
	<path id="path11" class="st0" d="M25.8,97.2c-0.6,0-1.1,0.5-1.2,1.1c0,0.6,0.5,1.1,1.1,1.2c0.6,0,1.1-0.5,1.2-1.1
		C27,97.7,26.5,97.2,25.8,97.2z"/>
	<path id="path13" class="st0" d="M33.6,66.1c-0.6,0-1.1,0.5-1.2,1.1c0,0.6,0.5,1.1,1.1,1.2c0.6,0,1.1-0.5,1.2-1.1
		C34.7,66.7,34.2,66.1,33.6,66.1z"/>
	<path id="path15" class="st0" d="M45.6,49.1c-0.6,0-1.1,0.5-1.2,1.1c0,0.6,0.5,1.1,1.1,1.2c0.6,0,1.1-0.5,1.2-1.1
		C46.8,49.6,46.3,49.1,45.6,49.1z"/>
	<path id="path17" class="st0" d="M28.6,120.8c0.2-1.1,1.2-0.8,1.3-0.2c0.4,3-0.1,5.8-0.6,8.7c-0.1,0.3,0.2,0.7,0.4,0.9
		c2.1,2.1,4.6,3.7,6.6,5.9c0.3,0.3,0,1.1-0.3,1.1c-3.2,0.2-6.2-0.5-8.9-1.1c-0.5-0.1-1-0.2-1.4,0.3c-0.9,0.9-1.5,2.3-2.7,2.8
		c-0.7,0.3-1.4,0-2-0.5c-0.4-0.4-0.5-1.1-0.3-1.8c0.4-1.2,1.3-2,2.2-2.8C25.4,132.3,27.8,126.6,28.6,120.8L28.6,120.8z M28.2,132.7
		c0.1-0.2,0.4-0.3,0.5-0.2c1.2,0.6,2.3,1.4,3.3,2.3c0.1,0.1,0.1,0.5-0.1,0.5c-1.4,0-2.8-0.2-4.1-0.4c-0.2,0-0.5-0.2-0.5-0.4
		C27.4,133.7,27.8,133.2,28.2,132.7z"/>
	<path id="path19" class="st0" d="M32.7,69.4c0.9-0.6,1.4,0.3,1,0.8c-1.8,2.4-4.2,4-6.5,5.7c-0.3,0.2-0.4,0.6-0.4,1
		c0,3,0.7,5.9,0.5,8.9c0,0.4-0.7,0.8-1,0.5c-2.4-2.1-4-4.7-5.5-7c-0.3-0.4-0.6-0.8-1.2-0.8c-1.3,0-2.7,0.5-3.9,0.1
		c-0.7-0.3-1-1-1-1.7c0-0.5,0.4-1.1,1-1.5c1.1-0.5,2.4-0.5,3.5-0.4C22.2,75.3,28,72.9,32.7,69.4L32.7,69.4z M23.9,77.5
		c0.2,0,0.5,0,0.5,0.2c0.4,1.3,0.7,2.6,0.8,4c0,0.2-0.3,0.4-0.4,0.3c-1-0.9-1.8-2.1-2.6-3.2c-0.1-0.2-0.2-0.5,0-0.7
		C22.6,77.7,23.3,77.6,23.9,77.5L23.9,77.5z"/>
	<path id="path21" class="st0" d="M143.5,40.9c0.5,0.9-0.5,1.4-0.9,0.9c-2.2-2.2-3.4-4.7-4.8-7.3c-0.2-0.3-0.6-0.4-0.9-0.5
		c-2.9-0.4-6-0.1-8.9-0.7c-0.4-0.1-0.7-0.8-0.4-1.1c2.4-2.1,5.2-3.3,7.7-4.5c0.5-0.2,0.9-0.5,1-1.1c0.2-1.3-0.2-2.7,0.5-3.9
		c0.4-0.6,1.1-0.9,1.9-0.8c0.5,0.1,1.1,0.5,1.3,1.2c0.4,1.2,0.2,2.4-0.1,3.6C139.1,29.8,140.7,35.8,143.5,40.9L143.5,40.9z
		 M136.7,31.2c0,0.2-0.1,0.4-0.3,0.5c-1.3,0.2-2.7,0.3-4,0.2c-0.2,0-0.4-0.4-0.2-0.5c1.1-0.9,2.3-1.5,3.6-2.2
		c0.2-0.1,0.6-0.1,0.7,0.1C136.7,29.9,136.7,30.5,136.7,31.2z"/>
	<path id="path23" class="st0" d="M167.5,68.8c0,1.1-1.1,1-1.3,0.4c-0.9-2.9-0.9-5.7-0.9-8.6c0-0.3-0.3-0.7-0.6-0.8
		c-2.4-1.7-5.2-2.9-7.5-4.7c-0.3-0.2-0.2-1,0.2-1.1c3.1-0.7,6.2-0.5,8.9-0.4c0.5,0,1,0,1.4-0.5c0.7-1.1,1.1-2.5,2.2-3.2
		c0.6-0.4,1.4-0.2,2,0.2c0.4,0.3,0.7,1,0.6,1.7c-0.2,1.2-0.9,2.2-1.7,3.1C168.8,56.9,167.4,62.9,167.5,68.8z M166,57
		c-0.1,0.2-0.3,0.4-0.5,0.3c-1.3-0.4-2.5-1-3.7-1.7c-0.2-0.1-0.2-0.5,0-0.5c1.3-0.3,2.8-0.3,4.2-0.3c0.2,0,0.5,0.1,0.6,0.4
		C166.6,55.8,166.3,56.4,166,57L166,57z"/>
	<path id="path25" class="st0" d="M172.9,116c-0.7,0.8-1.5,0.1-1.2-0.5c1.1-2.8,2.9-5,4.7-7.3c0.2-0.3,0.2-0.7,0.1-1
		c-0.9-2.8-2.3-5.5-2.9-8.4c-0.1-0.4,0.5-0.9,0.8-0.8c2.9,1.4,5.1,3.4,7.2,5.3c0.4,0.3,0.8,0.6,1.4,0.5c1.2-0.4,2.4-1.3,3.7-1.1
		c0.7,0.1,1.3,0.7,1.5,1.4c0.1,0.5-0.1,1.2-0.6,1.7c-0.9,0.8-2.1,1.2-3.3,1.3C181.3,107.5,176.4,111.4,172.9,116L172.9,116z
		 M179.1,105.8c-0.2,0.1-0.5,0.1-0.6-0.1c-0.7-1.1-1.4-2.3-1.8-3.6c-0.1-0.2,0.2-0.5,0.3-0.4c1.2,0.6,2.4,1.5,3.4,2.4
		c0.2,0.1,0.3,0.5,0.2,0.6C180.2,105.2,179.6,105.5,179.1,105.8L179.1,105.8z"/>
	<path id="path27" class="st0" d="M19.3,102.4c0.2-0.2,0.6-0.3,0.9-0.2c0.4,0.1,0.9,0.5,0.9,0.9c0.1,0.6-0.4,1-0.4,1.4l1.4,8.7
		c0,0.3,0.6,0.1,0.8,0.1c1.9-0.5,3.2-2.4,3.3-4.1c0.1-2.5-1.5-4.4-3.7-5.9c-0.4-0.3-0.6-0.9-0.3-1.4c0.3-0.6,0.7-0.8,1.8-0.8
		c1.4,0.1,2.7,1.3,3.6,2.6c1,1.4,1.8,3.8,1.5,6.1c-0.5,3.6-3.4,7.3-7.9,7.6c-4.2,0.2-8.8-3.2-9-8.8c-0.1-2.7,1.2-5.8,3.4-6.3
		c1.2-0.3,2,0.5,2.2,1.6c0.2,1-0.2,1.9-1.1,1.8c-0.8-0.2-1.3,0-1.7,0.3c-0.9,0.7-0.6,2-0.6,2.9c0,1.8,1.8,4.3,3.7,4.8
		c0.5,0.1,1,0.2,1.6,0.2c0.4,0,0.6-0.4,0.5-0.8l-1.3-8.8C18.8,103.2,18.9,102.8,19.3,102.4z"/>
	<path id="path29" class="st0" d="M82.5,22.9c0.3,0.2,0.4,0.6,0.3,0.9c-0.1,0.4-0.3,0.9-0.8,1c-0.6,0.2-1.1-0.3-1.4-0.2l-8.4,2.6
		c-0.3,0.1-0.1,0.6,0,0.8c0.8,1.8,2.7,2.8,4.4,2.6c2.5-0.2,4.2-2,5.4-4.4c0.2-0.4,0.8-0.7,1.4-0.5c0.6,0.2,0.9,0.6,1,1.7
		c0.1,1.4-0.9,2.9-2.1,3.9c-1.3,1.2-3.6,1.9-5.8,2.1c-3.7,0.2-7.9-2.6-8.6-6.6c-0.7-4.2,2-9.1,7.5-10.1c2.6-0.4,5.9,0.4,6.7,2.5
		c0.4,1.1-0.2,2.1-1.3,2.4c-0.9,0.3-2,0-1.9-0.8c0.1-0.8-0.2-1.3-0.5-1.6c-0.8-0.8-2.1-0.4-3-0.2c-1.8,0.3-4,2.3-4.3,4.3
		c-0.1,0.5-0.1,1.1,0,1.6c0.1,0.4,0.5,0.5,0.9,0.4l8.6-2.5C81.7,22.5,82.1,22.5,82.5,22.9L82.5,22.9z"/>
	<path id="path31" class="st0" d="M33.6,47.1c-4.3,0.2-7.8,3.8-7.6,8.1c0.1,4.3,3.8,7.7,8.1,7.5c4.3-0.2,7.8-3.8,7.6-8.1
		C41.6,50.3,37.9,46.9,33.6,47.1z M34.9,50.1c-3.4-0.9-6.8,0.6-7.4,3.3c-0.7,2.7,1.6,5.6,5,6.4c3.4,0.9,6.8-0.6,7.4-3.3
		C40.5,53.9,38.3,51,34.9,50.1z"/>
	<path id="path33" class="st0" d="M98.3,15.2c-3.3-2.8-8.3-2.4-11.1,0.9c-2.8,3.3-2.3,8.2,1,11c3.3,2.8,8.3,2.4,11.1-0.9
		C102.1,22.9,101.6,18,98.3,15.2z M97.2,18.3c-2-2.9-5.5-4-7.8-2.5S86.8,21,88.8,24c2,2.9,5.5,4,7.8,2.5
		C98.9,24.9,99.2,21.3,97.2,18.3L97.2,18.3z"/>
	<path id="path35" class="st0" d="M168.1,152.7c4.2-0.9,7-5.1,6-9.3c-0.9-4.2-5.1-6.9-9.3-5.9c-4.2,0.9-7,5.1-6,9.3
		C159.7,151,163.8,153.7,168.1,152.7z M166.3,149.9c3.5,0.2,6.5-1.8,6.7-4.6c0.2-2.8-2.5-5.2-6.1-5.4c-3.5-0.2-6.5,1.8-6.7,4.6
		C160,147.3,162.8,149.7,166.3,149.9L166.3,149.9z"/>
	<path id="path37" class="st0" d="M47.8,29.4c0.8-0.5,1.7-0.6,2.5,0.3c0.3,0.3,0.7,0.4,1.1,0.5l12.3,2.6c0.6,0.1,0.6-0.2,0.3-0.6
		l-5-7.3c-0.4-0.6-0.3-1.9,0.4-2.7c0.6-0.7,1.6-0.6,2,0l7.6,11.2c0.7,1-0.7,2.1-2.8,1.6l-13.8-3.1c-0.4-0.1-0.6,0-0.4,0.4l4.7,7
		c0.3,0.4,0.7,1.1,0.6,1.6c-0.1,0.8-0.2,1.6-0.8,2.1c-0.5,0.4-1.5,0.3-1.9-0.2l-7.3-10.9C46.7,31.1,46.9,29.9,47.8,29.4L47.8,29.4z"
		/>
	<path id="path39" class="st0" d="M186.7,79.2c0.2,0.9-0.1,1.8-1.3,2.1c-0.4,0.1-0.7,0.5-0.9,0.8l-7.2,10.2c-0.4,0.5,0,0.6,0.4,0.5
		l8.7-1.7c0.7-0.1,1.8,0.5,2.3,1.4c0.5,0.8-0.1,1.7-0.8,1.9l-13.3,2.5c-1.1,0.2-1.6-1.5-0.4-3.2l8.3-11.4c0.3-0.4,0.2-0.6-0.2-0.5
		l-8.3,1.5c-0.5,0.1-1.3,0.2-1.7-0.1c-0.7-0.4-1.4-0.8-1.6-1.6c-0.2-0.6,0.3-1.5,0.9-1.6l12.9-2.3C185.5,77.5,186.5,78.2,186.7,79.2
		L186.7,79.2z"/>
	<path id="path41" class="st0" d="M114.3,16.8c0.3,0.2,0.3,0.7,0.4,1.1c0.2,0.6,0.8,1.2,1.5,1.2c0.6,0,1.2-0.3,1.3-0.8
		c0.2-0.6,0-1.1-0.3-1.5c-1.4-1.8-3.3-3.2-5.9-3.2c-5,0-8.3,3.4-8.5,7.7c-0.2,5.1,4.4,8.3,8.1,8.3c2.6,0,4.9-1,6.8-3.5
		c0.3-0.4,0.6-1.2,0.4-1.7c-0.3-0.8-1.2-1.1-1.9-1.1c-1,0-1.6,0.6-1.7,1.3c-0.1,0.6-0.3,1.5-0.7,1.8c-0.5,0.4-0.9,0.9-2.5,0.9
		c-3.1,0.1-4.8-2.5-4.8-5.7c0-2.7,1.2-6,4.6-6.1C112.2,15.7,113.2,16,114.3,16.8L114.3,16.8z"/>
	<path id="path43" class="st0" d="M156.6,163.7c-0.3,0.1-0.8-0.2-1.1-0.3c-0.6-0.2-1.4-0.1-1.9,0.5c-0.4,0.5-0.5,1.1-0.2,1.5
		c0.4,0.5,0.8,0.7,1.3,0.7c2.3,0.1,4.5-0.6,6.1-2.7c3.1-4,2.4-8.6-0.9-11.4c-3.9-3.3-9.3-1.6-11.5,1.3c-1.6,2-2.2,4.4-1.3,7.5
		c0.2,0.5,0.6,1.2,1.1,1.3c0.8,0.3,1.6-0.2,2.1-0.8c0.6-0.8,0.6-1.6,0-2.2c-0.5-0.4-1-1.2-1-1.7c0-0.6-0.1-1.3,0.8-2.5
		c1.9-2.5,5-2.3,7.4-0.3c2.1,1.7,4.1,4.6,2,7.4C158.8,162.8,157.9,163.3,156.6,163.7L156.6,163.7z"/>
	<path id="path45" class="st0" d="M153.2,33.9c0-0.6-0.6-0.9-0.6-1.6c0-0.7,0.4-1,0.9-1c0.9-0.1,1.7,0.5,2.3,1.3
		c0.5,0.6,0.7,1.5,0.7,2.2l0,4.9c0,0.3,0.4,0.6,0.7,0.6l5.3-0.2c0.8,0,1.7,0,2.3,0.5c0.5,0.5,0.9,1.6,0.5,2.1
		c-0.3,0.4-1,0.7-1.5,0.4c-0.3-0.2-0.6-0.5-0.7-0.8c-0.1-0.3-0.4-0.5-0.7-0.4l-5.3,0c-0.3,0-0.4,0.2-0.4,0.4l0.4,8.4
		c0,0.8,0,2-0.6,2.2c-0.8,0.3-1.7-0.5-2.3-1.1c-0.6-0.6-0.8-1.6-0.8-2.5l0-6.8c0-0.2-0.3-0.4-0.4-0.4l-7.4,0.4
		c-0.7,0-1.6-0.2-1.7-0.8c-0.1-0.5,0.2-0.8,0.6-0.9c0.5-0.2,0.9-0.3,3-0.4l5.4-0.1c0.3,0,0.4-0.3,0.4-0.5L153.2,33.9L153.2,33.9z"/>
	<path id="path47" class="st0" d="M166.3,69.7c-0.6,0.3-1.1,1.3-1.1,1.9c0,0.8,0.8,1.7,1.6,1.3l8.1-3.6c0.3-0.1,0.5,0,0.5,0.2
		c-0.1,1.7-0.1,3.3,0.6,4.7c0.7,1.5,1.8,2.3,3.3,2.2c1.7-0.1,3-1.2,3.5-2.6c0.5-1.4,0.6-3.5-0.3-5.3l-1.6-3.3
		c-0.4-0.9-2-1.1-2.9-0.7L166.3,69.7L166.3,69.7z M177.5,68.3l1.3-0.7c0.5-0.3,1.4,0,1.8,0.4c0.5,0.6,0.8,1.5,0.7,2.3
		c0,0.8-0.4,1.6-1,2.1c-0.5,0.4-1.2,0.5-1.8,0.5c-0.7-0.1-1.1-0.8-1.4-1.4c-0.3-0.5-0.2-1.4-0.3-2C176.8,69.2,177.1,68.5,177.5,68.3
		z"/>
	<path id="path49" class="st0" d="M173.7,115.9c-1.1-0.3-2.2-0.1-2.5,0.7c-0.3,0.9,0.2,2,1.5,2.3l10.7,2.6c1.4,0.3,2.4,0,2.7-1
		c0.2-0.8-0.4-1.9-1.4-2.1L173.7,115.9L173.7,115.9z M187.2,117.7c-0.4,0-0.7,0.2-0.8,0.6c0,0.4,0.2,0.7,0.6,0.8
		c0.4,0,0.7-0.2,0.8-0.6C187.8,118.1,187.6,117.7,187.2,117.7L187.2,117.7z M186.2,122.1c-0.4,0-0.7,0.2-0.8,0.6
		c0,0.4,0.2,0.7,0.6,0.8c0.4,0,0.7-0.2,0.8-0.6C186.8,122.5,186.6,122.1,186.2,122.1z"/>
	<path id="path51" class="st0" d="M172.1,120.6c-0.7-0.2-1.7-0.5-2.2,0c-0.5,0.4-0.4,1.1-0.2,1.7c0.2,0.5,0.9,1.2,1.4,1.3l3.6,1.2
		c0.2,0.1,0.3,0.5,0,0.6l-7.2,4.1c-0.7,0.4-1.2,1-1.6,1.7c-0.3,0.6-0.6,1.2-0.6,1.9c0,0.6,0.4,1.2,0.9,1.3c0.6,0.2,1.4-0.4,1.9-0.7
		l7.5-5c0.3-0.2,0.8,0,0.9,0.4l2,5.8c0.1,0.3-0.1,0.9-0.3,1.1c-0.5,0.4-0.5,1.2-0.1,1.6c0.3,0.4,1,0.6,1.4,0.4
		c0.5-0.2,0.9-0.7,1-1.2c0.1-0.6,0-1.2-0.2-1.8l-3.3-8.7c-0.2-0.6,0-0.8,0.6-0.6l4.4,1.6c0.6,0.2,1.5-0.1,1.7-0.7
		c0.3-0.7,0.3-1.9-0.7-2.2L172.1,120.6z"/>
	<path id="path53" class="st0" d="M82.9,152.1c-0.4,0.6,0,1,0.6,1c3.8,0.3,7.4,1,11.2,1c3.1,0,4.6-1.3,5-3.2
		c2.2-11.6,5.4-23.8,4.5-32.7c-0.2-1.5,1.1-1.8,1.9-1.3c4.8,3,8.8,7,14.1,9.7c4.6,2.3,9.5,4.1,14,3.8c4.8-0.3,8.4-3.2,10.8-7.6
		c1.3-2.4,2.5-5.1,2.1-8.2c-0.5-3.9-1.4-8.5-1.7-13.9c-0.2-3.1-0.2-6.3,0.2-10c0.8-6.7-2.9-13.4-11.8-13.3
		c-4.8,0.1-8.6,1.5-10.9,4.3c-2.7,3.2-5.1,7.3-7.7,12.3c-0.3,0.5-0.9,0.5-1.7,0c-0.4-0.3-0.4-0.8,0-1.4c2.9-5.5,6.2-10.5,9.8-15.1
		c1.5-2,2.7-4.5,2.9-7.1c0.1-1.4,0.3-2.5,0.2-3.8c-0.1-1.3-0.8-2-1.4-2.8c-3.3-4-7-7.5-12.6-7.5c-3.3,0-6.5,1-9.7,1.9
		c-3.6,1-7.1,0.5-10.1-1.7C92,56,91.2,55.8,90.4,56c-3.9,1.2-7,3.5-9.2,6.7c-2.3,3.5-3,7.1-2.9,10.4c0.2,3.8,1.1,6.4,2.6,8.5
		c2.4,3.3,4.5,6.9,6.5,10.6c0.4,0.7,0.6,1.4,0.2,2c-0.2,0.3-0.6,0.3-0.9,0.4c-0.4,0.2-1-0.1-1.6-1.1c-3-4.9-6.4-9-10.7-12.1
		c-4.7-3.3-9.3-3.5-13-1.4c-5.3,3-8,7-8.3,12.8c-0.1,2.4,0.3,3.8,1.2,4.9c1.1,1.3,1.7,3.8,1.5,7.2c-0.2,3-1,5.9-1.8,8.8
		c-1.2,4.4-0.6,7.8,1.1,10.5c1,1.5,2.2,2.8,3.4,4.2c1.1,1.2,2.4,1.7,3.9,1.9c3.5,0.4,6.7,0.4,9.5-0.1c2.2-0.4,4-1.6,5.7-3
		c6.3-4.9,13.8-10.6,16.9-10.6c1.2,0,1.8,0.3,1.6,1.3c-2,11.2-6.4,21.2-11.1,31.1C84.5,150.1,83.7,151.1,82.9,152.1L82.9,152.1z"/>
	<path class="st1" d="M132,98.4c-3.1-2.4-7.7-1.7-10.4,1.8c-2.7,3.5-2.4,8.4,0.6,10.8c3.1,2.4,7.7,1.5,10.4-2
		C135.3,105.5,135.1,100.8,132,98.4z M130.5,105.4c-0.6,3.3-2.6,5.6-4.5,5.3c-1.9-0.3-2.9-3.3-2.3-6.5c0.6-3.3,2.6-5.6,4.5-5.3
		C130,99.2,131.1,102.1,130.5,105.4z"/>
	<path id="path57" class="st1" d="M94.9,81.4c0.1,2,1.3,3,1.8,2.2c0.9-1.3,1.9-2.5,3-3.2c0.5-0.3,1.2-0.6,1.4,0
		c0.2,0.8,0.1,1.4,0.6,2.1c0.5,0.9,1.3,1.7,2,1.8c1,0.2,1.4-0.7,1.4-1.3c-0.2-4.3-1.1-8.5-2.2-12.7c-0.3-1-1.4-1.7-2.4-1.7
		c-1.1,0-2,0.7-2.6,1.7C95.5,74.6,94.8,78.3,94.9,81.4z M98.8,72.6c0.2-0.3,0.8-0.4,0.9-0.1c0.7,1.2,1.1,2.9,1.3,4.3
		c0.1,0.5-0.4,0.9-0.7,1.3c-0.7,0.7-1.5,1.2-2.3,1.7c-0.6,0.3-1,0.3-0.9-1C97.4,76.5,97.8,74.2,98.8,72.6L98.8,72.6z"/>
	<path id="path59" class="st1" d="M65.7,109.3c0.1,2,1.3,3,1.8,2.2c0.9-1.3,1.9-2.5,3-3.2c0.5-0.3,1.2-0.6,1.4,0
		c0.2,0.8,0.1,1.4,0.6,2.1c0.5,0.9,1.3,1.7,2,1.8c1,0.2,1.4-0.7,1.4-1.3c-0.2-4.3-1.1-8.5-2.2-12.7c-0.3-1-1.4-1.7-2.4-1.7
		c-1.1,0-2,0.7-2.6,1.7C66.3,102.5,65.6,106.2,65.7,109.3L65.7,109.3z M69.6,100.5c0.2-0.3,0.8-0.4,0.9-0.1c0.7,1.2,1.1,2.9,1.3,4.3
		c0.1,0.5-0.4,0.9-0.7,1.3c-0.7,0.7-1.5,1.2-2.3,1.7c-0.6,0.3-1,0.3-0.9-1C68.2,104.4,68.7,102,69.6,100.5z"/>
	<path id="path61" class="st0" d="M81.9,169.6l-1.2,6.2l5.6,3l-6.3,0.8l-1.2,6.2l-2.7-5.7l-6.3,0.8l4.6-4.3l-2.7-5.7l5.5,3
		L81.9,169.6L81.9,169.6z"/>
	<path id="path63" class="st0" d="M103.7,173.7l-1.2,6.2l5.6,3l-6.3,0.8l-1.2,6.2l-2.7-5.7l-6.3,0.8l4.6-4.3l-2.7-5.7l5.5,3
		L103.7,173.7L103.7,173.7z"/>
	<path id="path65" class="st0" d="M127,169.8l-1.2,6.2l5.6,3l-6.3,0.8l-1.2,6.2l-2.7-5.7l-6.3,0.8l4.6-4.3l-2.7-5.7l5.5,3L127,169.8
		L127,169.8z"/>
	<path id="path67" class="st0" d="M100,36c-18,0-34.3,7.2-46.1,18.7C42.1,66.3,34.8,82.3,34.8,100c0,17.7,7.3,33.7,19.1,45.2
		C65.7,156.8,82,164,100,164s34.3-7.2,46.1-18.7c11.8-11.6,19.1-27.6,19.1-45.2c0-17.7-7.3-33.7-19.1-45.2C134.3,43.2,118,36,100,36
		L100,36z M52,52.9c12.3-12,29.2-19.5,48-19.5s35.7,7.5,48,19.5c12.3,12.1,19.9,28.7,19.9,47.1s-7.6,35-19.9,47.1
		c-12.3,12-29.2,19.5-48,19.5s-35.7-7.5-48-19.5C39.7,135,32.1,118.4,32.1,100S39.7,65,52,52.9L52,52.9z"/>
	<path id="path69" class="st0" d="M100,4C73,4,48.5,14.8,30.8,32.1C13.1,49.5,2.1,73.5,2.1,100s10.9,50.5,28.7,67.9
		C48.5,185.2,73,196,100,196s51.5-10.7,69.2-28.1c17.7-17.4,28.7-41.4,28.7-67.9s-10.9-50.5-28.7-67.9C151.5,14.8,127,4,100,4z
		 M29,30.3C47.2,12.4,72.3,1.4,100,1.4s52.8,11,71,28.9c18.2,17.8,29.4,42.5,29.4,69.7s-11.2,51.9-29.4,69.7
		c-18.2,17.8-43.3,28.9-71,28.9s-52.8-11-71-28.9C10.8,151.9-0.5,127.2-0.5,100S10.8,48.1,29,30.3L29,30.3z"/>
	<path id="path71" class="st1" d="M100,36c-18,0-34.3,7.2-46.1,18.7C42.1,66.3,34.8,82.3,34.8,100c0,17.7,7.3,33.7,19.1,45.2
		C65.7,156.8,82,164,100,164s34.3-7.2,46.1-18.7c11.8-11.6,19.1-27.6,19.1-45.2c0-17.7-7.3-33.7-19.1-45.2C134.3,43.2,118,36,100,36
		L100,36z M87.6,94.1c0.4-0.6,0.2-1.3-0.2-2c-2-3.7-4.1-7.3-6.5-10.6c-1.5-2.1-2.5-4.7-2.6-8.5c-0.1-3.2,0.6-6.9,2.9-10.4
		c2.1-3.2,5.3-5.5,9.2-6.7c0.9-0.3,1.7-0.1,2.3,0.4c3,2.3,6.5,2.7,10.1,1.7c3.2-0.9,6.4-1.9,9.7-1.9c5.6,0,9.3,3.6,12.6,7.5
		c0.7,0.8,1.4,1.5,1.4,2.8c0.1,1.3-0.1,2.4-0.2,3.8c-0.2,2.7-1.3,5.2-2.9,7.1c-3.6,4.6-6.9,9.6-9.8,15.1c-0.4,0.7-0.4,1.2,0,1.4
		c0.7,0.5,1.4,0.5,1.7,0c2.6-5,5-9.1,7.7-12.3c2.3-2.8,6.1-4.2,10.9-4.3c8.9-0.2,12.6,6.6,11.8,13.3c-0.4,3.7-0.4,6.9-0.2,10
		c0.3,5.4,1.1,10,1.7,13.9c0.4,3.1-0.7,5.8-2.1,8.2c-2.5,4.4-6,7.3-10.8,7.6c-4.5,0.2-9.4-1.5-14-3.8c-5.3-2.7-9.3-6.7-14.1-9.7
		c-0.8-0.5-2.1-0.2-1.9,1.3c0.9,8.9-2.3,21-4.5,32.7c-0.4,1.9-1.9,3.3-5,3.2c-3.8,0-7.4-0.7-11.2-1c-0.6,0-1-0.5-0.6-1
		c0.8-1,1.6-2,2.2-3.2c4.7-9.9,9.2-19.9,11.1-31.1c0.2-1-0.4-1.3-1.6-1.3c-3.1,0-10.6,5.7-16.9,10.6c-1.8,1.4-3.5,2.6-5.7,3
		c-2.8,0.5-5.9,0.5-9.5,0.1c-1.5-0.2-2.8-0.7-3.9-1.9c-1.2-1.3-2.4-2.7-3.4-4.2c-1.7-2.7-2.3-6.1-1.1-10.5c0.8-2.9,1.6-5.7,1.8-8.8
		c0.2-3.5-0.4-5.9-1.5-7.2c-0.9-1.1-1.3-2.5-1.2-4.9c0.3-5.8,3-9.7,8.3-12.8c3.8-2.2,8.4-1.9,13,1.4c4.3,3,7.6,7.1,10.7,12.1
		c0.6,0.9,1.1,1.2,1.6,1.1C87,94.4,87.4,94.3,87.6,94.1L87.6,94.1z"/>
	<path id="path73" class="st1" d="M100,166.6c-18.7,0-35.7-7.5-48-19.5C39.7,135,32.1,118.4,32.1,100S39.7,65,52,52.9
		c12.3-12,29.2-19.5,48-19.5s35.7,7.5,48,19.5c12.3,12.1,19.9,28.7,19.9,47.1s-7.6,35-19.9,47.1C135.7,159.1,118.7,166.6,100,166.6
		L100,166.6z M68.8,33.4c0.7,1-0.7,2.1-2.8,1.6l-13.8-3.1c-0.4-0.1-0.6,0-0.4,0.4l4.7,7c0.3,0.4,0.7,1.1,0.6,1.6
		c-0.1,0.8-0.2,1.6-0.8,2.1c-0.5,0.4-1.5,0.3-1.9-0.2l-7.3-10.9c-0.6-0.9-0.3-2,0.5-2.6c0.8-0.5,1.7-0.6,2.5,0.3
		c0.3,0.3,0.7,0.4,1.1,0.5l12.3,2.6c0.6,0.1,0.6-0.2,0.3-0.6l-5-7.3c-0.4-0.6-0.3-1.9,0.4-2.7c0.6-0.7,1.6-0.6,2,0L68.8,33.4
		L68.8,33.4z M26.3,86.2c-2.4-2.1-4-4.7-5.5-7c-0.3-0.4-0.6-0.8-1.2-0.8c-1.3,0-2.7,0.5-3.9,0.1c-0.7-0.3-1-1-1-1.7
		c0-0.5,0.4-1.1,1-1.5c1.1-0.5,2.4-0.5,3.5-0.4c3,0.4,8.8-2,13.4-5.5c0.9-0.6,1.4,0.3,1,0.8c-1.8,2.4-4.2,4-6.5,5.7
		c-0.3,0.2-0.4,0.6-0.4,1c0,3,0.7,5.9,0.5,8.9C27.3,86.1,26.6,86.5,26.3,86.2z M49.1,154.2l-8.7,7.2c-0.3,0.2-0.3,0.5-0.1,0.9
		c0.5,0.8-0.9,1.6-1.4,1l-10.3-12c-0.6-0.7,0.4-2,1.4-1.7l8.8-7.2c0.8-0.6,1.8-0.6,2.5,0.1c0.8,0.9,0.8,1.9-0.1,2.5l-8.7,6.9
		c-0.2,0.1-0.2,0.4-0.1,0.6l5.2,6.1c0.1,0.2,0.5,0.1,0.7,0l8.5-6.9c0.6-0.5,1.8-0.2,2.4,0.4C49.7,152.7,49.7,153.8,49.1,154.2z
		 M30.8,167.9C48.5,185.2,73,196,100,196s51.5-10.7,69.2-28.1c17.7-17.4,28.7-41.4,28.7-67.9s-10.9-50.5-28.7-67.9
		C151.5,14.8,127,4,100,4S48.5,14.8,30.8,32.1C13.1,49.5,2.1,73.5,2.1,100S13.1,150.5,30.8,167.9z M153.2,42.1l-7.4,0.4
		c-0.7,0-1.6-0.2-1.7-0.8c-0.1-0.5,0.2-0.8,0.6-0.9c0.5-0.2,0.9-0.3,3-0.4l5.4-0.1c0.3,0,0.4-0.3,0.4-0.5l-0.3-5.9
		c0-0.6-0.6-0.9-0.6-1.6c0-0.7,0.4-1,0.9-1c0.9-0.1,1.7,0.5,2.3,1.3c0.5,0.6,0.7,1.5,0.7,2.2l0,4.9c0,0.3,0.4,0.6,0.7,0.6l5.3-0.2
		c0.8,0,1.7,0,2.3,0.5c0.5,0.5,0.9,1.6,0.5,2.1c-0.3,0.4-1,0.7-1.5,0.4c-0.3-0.2-0.6-0.5-0.7-0.8c-0.1-0.3-0.4-0.5-0.7-0.4l-5.3,0
		c-0.3,0-0.4,0.2-0.4,0.4l0.4,8.4c0,0.8,0,2-0.6,2.2c-0.8,0.3-1.7-0.5-2.3-1.1c-0.6-0.6-0.8-1.6-0.8-2.5l0-6.8
		C153.6,42.3,153.3,42.1,153.2,42.1L153.2,42.1z M128.1,33.4c-0.4-0.1-0.7-0.8-0.4-1.1c2.4-2.1,5.2-3.3,7.7-4.5
		c0.5-0.2,0.9-0.5,1-1.1c0.2-1.3-0.2-2.7,0.5-3.9c0.4-0.6,1.1-0.9,1.9-0.8c0.5,0.1,1.1,0.5,1.3,1.2c0.4,1.2,0.2,2.4-0.1,3.6
		c-0.8,2.9,0.8,8.9,3.6,14.1c0.5,0.9-0.5,1.4-0.9,0.9c-2.2-2.2-3.4-4.7-4.8-7.3c-0.2-0.3-0.6-0.4-0.9-0.5
		C134,33.7,131,34,128.1,33.4L128.1,33.4z M153.6,163.9c0.5-0.5,1.3-0.7,1.9-0.5c0.4,0.1,0.8,0.4,1.1,0.3c1.3-0.4,2.2-1,2.8-1.7
		c2.1-2.7,0.2-5.7-2-7.4c-2.5-1.9-5.6-2.2-7.4,0.3c-0.9,1.2-0.8,1.9-0.8,2.5c0,0.5,0.5,1.3,1,1.7c0.6,0.5,0.7,1.3,0,2.2
		c-0.4,0.6-1.3,1.1-2.1,0.8c-0.5-0.2-1-0.8-1.1-1.3c-0.9-3.1-0.2-5.5,1.3-7.5c2.3-2.9,7.6-4.6,11.5-1.3c3.3,2.8,4,7.4,0.9,11.4
		c-1.6,2-3.8,2.7-6.1,2.7c-0.5,0-1-0.2-1.3-0.7C153.1,165,153.2,164.3,153.6,163.9L153.6,163.9z M38.9,139.6c0,0.6-0.5,1.1-1.2,1.1
		c-0.6,0-1.1-0.5-1.1-1.2c0-0.6,0.5-1.1,1.2-1.1C38.4,138.4,38.9,138.9,38.9,139.6z M36,137.2c-3.2,0.2-6.2-0.5-8.9-1.1
		c-0.5-0.1-1-0.2-1.4,0.3c-0.9,0.9-1.5,2.3-2.7,2.8c-0.7,0.3-1.4,0-2-0.5c-0.4-0.4-0.5-1.1-0.3-1.8c0.4-1.2,1.3-2,2.2-2.8
		c2.4-1.8,4.8-7.6,5.7-13.4c0.2-1.1,1.2-0.8,1.3-0.2c0.4,3-0.1,5.8-0.6,8.7c-0.1,0.3,0.2,0.7,0.4,0.9c2.1,2.1,4.6,3.7,6.6,5.9
		C36.6,136.4,36.4,137.2,36,137.2L36,137.2z M34.7,67.3c0,0.6-0.5,1.1-1.2,1.1c-0.6,0-1.1-0.5-1.1-1.2c0-0.6,0.5-1.1,1.2-1.1
		C34.2,66.1,34.7,66.7,34.7,67.3z M34.1,62.7c-4.3,0.2-8-3.2-8.1-7.5c-0.1-4.3,3.3-7.9,7.6-8.1c4.3-0.2,8,3.2,8.1,7.5
		C41.9,58.9,38.5,62.5,34.1,62.7z M165.2,71.6c0-0.6,0.4-1.6,1.1-1.9l0.3-0.2c-0.2-0.1-0.3-0.2-0.4-0.4c-0.9-2.9-0.9-5.7-0.9-8.6
		c0-0.3-0.3-0.7-0.6-0.8c-2.4-1.7-5.2-2.9-7.5-4.7c-0.3-0.2-0.2-1,0.2-1.1c3.1-0.7,6.2-0.5,8.9-0.4c0.5,0,1,0,1.4-0.5
		c0.7-1.1,1.1-2.5,2.2-3.2c0.6-0.4,1.4-0.2,2,0.2c0.4,0.3,0.7,1,0.6,1.7c-0.2,1.2-0.9,2.2-1.7,3.1c-2.1,2.2-3.4,8.3-3.3,14.1
		c0,0.2,0,0.3-0.1,0.4l10.6-4.7c0.9-0.4,2.5-0.2,2.9,0.7l1.6,3.3c0.9,1.9,0.8,3.9,0.3,5.3c-0.5,1.4-1.8,2.4-3.5,2.6
		c-1.5,0.1-2.6-0.7-3.3-2.2c-0.7-1.4-0.7-3.1-0.6-4.7c0-0.2-0.2-0.3-0.5-0.2l-8.1,3.6C166,73.2,165.2,72.4,165.2,71.6L165.2,71.6z
		 M167.5,129.5l7.2-4.1c0.3-0.2,0.2-0.6,0-0.6l-3.6-1.2c-0.5-0.2-1.2-0.8-1.4-1.3c-0.2-0.6-0.3-1.3,0.2-1.7c0.5-0.5,1.5-0.3,2.2,0
		l11,3.8c0.9,0.3,1,1.5,0.7,2.2c-0.3,0.6-1.1,1-1.7,0.7l-4.4-1.6c-0.5-0.2-0.8,0.1-0.6,0.6l3.3,8.7c0.2,0.6,0.3,1.2,0.2,1.8
		c-0.1,0.5-0.5,1.1-1,1.2c-0.5,0.2-1.1,0-1.4-0.4c-0.3-0.4-0.3-1.2,0.1-1.6c0.2-0.2,0.4-0.8,0.3-1.1l-2-5.8
		c-0.1-0.4-0.6-0.6-0.9-0.4l-7.5,5c-0.5,0.4-1.3,0.9-1.9,0.7c-0.5-0.1-0.9-0.7-0.9-1.3c0-0.7,0.3-1.3,0.6-1.9
		C166.4,130.6,166.9,129.9,167.5,129.5L167.5,129.5z M158.7,146.8c-0.9-4.2,1.8-8.4,6-9.3c4.2-0.9,8.4,1.7,9.3,5.9
		c0.9,4.2-1.8,8.4-6,9.3C163.8,153.7,159.7,151,158.7,146.8z M76.6,33.3c-3.7,0.2-7.9-2.6-8.6-6.6c-0.7-4.2,2-9.1,7.5-10.1
		c2.6-0.4,5.9,0.4,6.7,2.5c0.4,1.1-0.2,2.1-1.3,2.4c-0.9,0.3-2,0-1.9-0.8c0.1-0.8-0.2-1.3-0.5-1.6c-0.8-0.8-2.1-0.4-3-0.2
		c-1.8,0.3-4,2.3-4.3,4.3c-0.1,0.5-0.1,1.1,0,1.6c0.1,0.4,0.5,0.5,0.9,0.4l8.6-2.5c0.9-0.3,1.3-0.2,1.8,0.1c0.3,0.2,0.4,0.6,0.3,0.9
		c-0.1,0.4-0.3,0.9-0.8,1c-0.6,0.2-1.1-0.3-1.4-0.2l-8.4,2.6c-0.3,0.1-0.1,0.6,0,0.8c0.8,1.8,2.7,2.8,4.4,2.6c2.5-0.2,4.2-2,5.4-4.4
		c0.2-0.4,0.8-0.7,1.4-0.5c0.6,0.2,0.9,0.6,1,1.7c0.1,1.4-0.9,2.9-2.1,3.9C81.1,32.4,78.8,33.1,76.6,33.3L76.6,33.3z M99.3,26.2
		c-2.8,3.3-7.7,3.7-11.1,0.9c-3.3-2.8-3.8-7.7-1-11c2.8-3.3,7.7-3.7,11.1-0.9C101.6,18,102.1,22.9,99.3,26.2z M29,109.7
		c-0.5,3.6-3.4,7.3-7.9,7.6c-4.2,0.2-8.8-3.2-9-8.8c-0.1-2.7,1.2-5.8,3.4-6.3c1.2-0.3,2,0.5,2.2,1.6c0.2,1-0.2,1.9-1.1,1.8
		c-0.8-0.2-1.3,0-1.7,0.3c-0.9,0.7-0.6,2-0.6,2.9c0,1.8,1.8,4.3,3.7,4.8c0.5,0.1,1,0.2,1.6,0.2c0.4,0,0.6-0.4,0.5-0.8l-1.3-8.8
		c-0.1-0.9-0.1-1.3,0.4-1.7c0.2-0.2,0.6-0.3,0.9-0.2c0.4,0.1,0.9,0.5,0.9,0.9c0.1,0.6-0.4,1-0.4,1.4l1.4,8.7c0,0.3,0.6,0.1,0.8,0.1
		c1.9-0.5,3.2-2.4,3.3-4.1c0.1-2.5-1.5-4.4-3.7-5.9c-0.4-0.3-0.6-0.9-0.3-1.4c0.3-0.6,0.7-0.8,1.8-0.8c1.4,0.1,2.7,1.3,3.6,2.6
		C28.5,105.1,29.3,107.5,29,109.7L29,109.7z M27,98.3c0,0.6-0.5,1.1-1.2,1.1c-0.6,0-1.1-0.5-1.1-1.2c0-0.6,0.5-1.1,1.2-1.1
		C26.5,97.2,27,97.7,27,98.3z M29.1,118.9c0,0.6-0.5,1.1-1.2,1.1c-0.6,0-1.1-0.5-1.1-1.2s0.5-1.1,1.2-1.1
		C28.6,117.8,29.1,118.3,29.1,118.9z M77.3,174l4.6-4.3l-1.2,6.2l5.6,3l-6.3,0.8l-1.2,6.2l-2.7-5.7l-6.3,0.8l4.6-4.3l-2.7-5.7
		L77.3,174L77.3,174z M99.1,178l4.6-4.3l-1.2,6.2l5.6,3l-6.3,0.8l-1.2,6.2l-2.7-5.7l-6.3,0.8l4.6-4.3l-2.7-5.7L99.1,178L99.1,178z
		 M119.6,176.8l-2.7-5.7l5.5,3l4.6-4.3l-1.2,6.2l5.6,3l-6.3,0.8l-1.2,6.2l-2.7-5.7l-6.3,0.8L119.6,176.8L119.6,176.8z M172.7,119
		c-1.3-0.3-1.8-1.4-1.5-2.3c0.1-0.3,0.3-0.5,0.6-0.6c-0.1-0.2-0.1-0.4,0-0.6c1.1-2.8,2.9-5,4.7-7.3c0.2-0.3,0.2-0.7,0.1-1
		c-0.9-2.8-2.3-5.5-2.9-8.4c-0.1-0.4,0.5-0.9,0.8-0.8c2.9,1.4,5.1,3.4,7.2,5.3c0.4,0.3,0.8,0.6,1.4,0.5c1.2-0.4,2.4-1.3,3.7-1.1
		c0.7,0.1,1.3,0.7,1.5,1.4c0.1,0.5-0.1,1.2-0.6,1.7c-0.9,0.8-2.1,1.2-3.3,1.3c-3,0.4-7.8,4.3-11.3,8.8c0.2,0,0.5,0.1,0.7,0.1
		l10.9,2.5c1.1,0.2,1.7,1.3,1.4,2.1c-0.3,1-1.3,1.3-2.7,1L172.7,119L172.7,119z M186.4,118.3c0-0.4,0.4-0.7,0.8-0.6
		c0.4,0,0.7,0.4,0.6,0.8c0,0.4-0.4,0.7-0.8,0.6C186.6,119.1,186.3,118.7,186.4,118.3L186.4,118.3z M185.4,122.7
		c0-0.4,0.4-0.7,0.8-0.6c0.4,0,0.7,0.4,0.6,0.8c0,0.4-0.4,0.7-0.8,0.6C185.6,123.4,185.3,123.1,185.4,122.7z M174.2,93.7l8.3-11.4
		c0.3-0.4,0.2-0.6-0.2-0.5l-8.3,1.5c-0.5,0.1-1.3,0.2-1.7-0.1c-0.7-0.4-1.4-0.8-1.6-1.6c-0.2-0.6,0.3-1.5,0.9-1.6l12.9-2.3
		c1-0.2,2,0.5,2.1,1.5c0.2,0.9-0.1,1.8-1.3,2.1c-0.4,0.1-0.7,0.5-0.9,0.8l-7.2,10.2c-0.4,0.5,0,0.6,0.4,0.5l8.7-1.7
		c0.7-0.1,1.8,0.5,2.3,1.4c0.5,0.8-0.1,1.7-0.8,1.9l-13.3,2.5C173.4,97.1,172.9,95.4,174.2,93.7L174.2,93.7z M111.2,29.7
		c-3.7,0-8.3-3.2-8.1-8.3c0.1-4.3,3.4-7.7,8.5-7.7c2.6,0,4.5,1.3,5.9,3.2c0.3,0.4,0.5,0.9,0.3,1.5c-0.2,0.5-0.7,0.8-1.3,0.8
		c-0.7,0-1.4-0.6-1.5-1.2c-0.1-0.4-0.2-0.9-0.4-1.1c-1.1-0.8-2.1-1.1-3.1-1.1c-3.4,0-4.6,3.4-4.6,6.1c0,3.1,1.7,5.7,4.8,5.7
		c1.5,0,2-0.5,2.5-0.9c0.4-0.4,0.7-1.2,0.7-1.8c0.1-0.8,0.6-1.3,1.7-1.3c0.7,0,1.6,0.4,1.9,1.1c0.2,0.5-0.1,1.3-0.4,1.7
		C116,28.8,113.7,29.7,111.2,29.7L111.2,29.7z M45.6,51.4c-0.6,0-1.1-0.5-1.1-1.2c0-0.6,0.5-1.1,1.2-1.1c0.6,0,1.1,0.5,1.1,1.2
		C46.7,50.9,46.2,51.4,45.6,51.4z"/>
	<path id="path75" class="st1" d="M160.2,144.5c-0.2,2.8,2.5,5.2,6.1,5.4c3.5,0.2,6.5-1.8,6.7-4.6c0.2-2.8-2.5-5.2-6.1-5.4
		C163.4,139.6,160.4,141.7,160.2,144.5z"/>
	<path id="path77" class="st1" d="M179.1,105.8c0.6-0.3,1.2-0.6,1.6-1.1c0.1-0.2,0-0.5-0.2-0.6c-1.1-0.9-2.2-1.7-3.4-2.4
		c-0.2-0.1-0.4,0.2-0.3,0.4c0.5,1.3,1.1,2.5,1.8,3.6C178.6,105.9,178.9,105.9,179.1,105.8L179.1,105.8z"/>
	<path id="path79" class="st1" d="M178.6,73c0.7,0.1,1.4-0.1,1.8-0.5c0.6-0.5,0.9-1.4,1-2.1c0-0.8-0.2-1.7-0.7-2.3
		c-0.4-0.4-1.2-0.7-1.8-0.4l-1.3,0.7c-0.4,0.2-0.7,0.8-0.7,1.3c0,0.6,0,1.5,0.3,2C177.4,72.2,177.9,72.9,178.6,73L178.6,73z"/>
	<path id="path81" class="st1" d="M166,57c0.3-0.6,0.6-1.2,0.6-1.8c0-0.2-0.3-0.4-0.6-0.4c-1.4,0-2.8,0-4.2,0.3
		c-0.2,0-0.2,0.4,0,0.5c1.2,0.7,2.4,1.3,3.7,1.7C165.7,57.3,165.9,57.1,166,57L166,57z"/>
	<path id="path83" class="st1" d="M132.4,31.9c1.3,0.1,2.7,0,4-0.2c0.2,0,0.3-0.3,0.3-0.5c0-0.6,0-1.3-0.4-1.9
		c-0.1-0.2-0.5-0.2-0.7-0.1c-1.2,0.6-2.5,1.3-3.6,2.2C132,31.5,132.2,31.9,132.4,31.9L132.4,31.9z"/>
	<path id="path85" class="st1" d="M96.6,26.5c2.3-1.6,2.6-5.2,0.6-8.1c-2-2.9-5.5-4-7.8-2.5c-2.3,1.6-2.6,5.2-0.6,8.1
		C90.8,26.9,94.3,28,96.6,26.5L96.6,26.5z"/>
	<path id="path87" class="st1" d="M39.9,56.6c0.7-2.7-1.6-5.6-5-6.4c-3.4-0.9-6.8,0.6-7.4,3.3c-0.7,2.7,1.6,5.6,5,6.4
		C35.9,60.8,39.2,59.3,39.9,56.6z"/>
	<path id="path89" class="st1" d="M25.2,81.7c-0.1-1.3-0.4-2.7-0.8-4c-0.1-0.2-0.3-0.3-0.5-0.2c-0.6,0.1-1.3,0.2-1.8,0.6
		c-0.2,0.1-0.1,0.5,0,0.7c0.8,1.1,1.6,2.3,2.6,3.2C24.9,82.1,25.2,81.8,25.2,81.7z"/>
	<path id="path91" class="st1" d="M32,134.7c-1-0.9-2.2-1.6-3.3-2.3c-0.2-0.1-0.4,0.1-0.5,0.2c-0.4,0.5-0.8,1.1-0.9,1.7
		c0,0.2,0.3,0.4,0.5,0.4c1.4,0.2,2.8,0.5,4.1,0.4C32.1,135.2,32.2,134.9,32,134.7z"/>
</g>
</svg>
