<?xml version="1.0" encoding="utf-8"?>
<!-- Generator: Adobe Illustrator 21.1.0, SVG Export Plug-In . SVG Version: 6.00 Build 0)  -->
<svg version="1.1" id="Layer_1" xmlns="http://www.w3.org/2000/svg" xmlns:xlink="http://www.w3.org/1999/xlink" x="0px" y="0px"
	 viewBox="0 0 200 200" style="enable-background:new 0 0 200 200;" xml:space="preserve">
<style type="text/css">
	.st0{fill:#FFFFFF;}
	.st1{fill:#0056A5;}
	.st2{fill:#D63F40;}
</style>
<g>
	<path class="st0" d="M100,0C44.9,0,0,44.9,0,100s44.9,100,100,100s100-44.9,100-100S155.1,0,100,0L100,0z"/>
	<path class="st1" d="M100,9.4C75.1,9.4,52.4,19.6,36,36S9.4,75.1,9.4,100s10.2,47.6,26.6,64c16.4,16.4,39.1,26.6,64,26.6
		s47.6-10.2,64-26.6c16.4-16.4,26.6-39.1,26.6-64S180.4,52.4,164,36S124.9,9.4,100,9.4L100,9.4z M32.6,32.6
		c17.3-17.3,41.1-28,67.4-28s50.2,10.7,67.4,28s28,41.1,28,67.4s-10.7,50.2-28,67.4s-41.1,28-67.4,28s-50.2-10.7-67.4-28
		s-28-41.1-28-67.4C4.5,73.7,15.3,49.9,32.6,32.6L32.6,32.6z"/>
	<path class="st2" d="M100,18.4c-22.5,0-42.9,9.2-57.6,23.9S18.4,77.5,18.4,100s9.2,42.9,23.9,57.6s35.2,23.9,57.6,23.9
		s42.9-9.2,57.6-23.9s23.9-35.2,23.9-57.6s-9.2-42.9-23.9-57.6S122.5,18.4,100,18.4L100,18.4z M38.9,38.9
		C54.6,23.3,76.2,13.6,100,13.6c23.8,0,45.4,9.7,61.1,25.4c15.6,15.6,25.4,37.3,25.4,61.1s-9.7,45.4-25.4,61.1
		c-15.6,15.6-37.3,25.4-61.1,25.4s-45.4-9.7-61.1-25.4c-15.6-15.7-25.3-37.3-25.3-61.1C13.6,76.2,23.3,54.6,38.9,38.9L38.9,38.9z"/>
	<path class="st1" d="M81.4,76c-6.7,0-12.8,2.8-17.2,7.1c-4.4,4.4-7.1,10.5-7.1,17.2c0,6.7,2.8,12.8,7.1,17.2
		c4.4,4.4,10.5,7.1,17.2,7.1s12.8-2.8,17.2-7.1c4.4-4.4,7.1-10.5,7.1-17.2c0-6.7-2.8-12.8-7.1-17.2C94.2,78.7,88.1,76,81.4,76
		L81.4,76z M59,77.9c5.7-5.7,13.6-9.3,22.3-9.3c8.7,0,16.6,3.6,22.3,9.3c5.7,5.7,9.3,13.6,9.3,22.3c0,8.7-3.6,16.6-9.3,22.4
		S90.1,132,81.4,132c-8.7,0-16.6-3.6-22.3-9.3c-5.7-5.7-9.3-13.6-9.3-22.4C49.7,91.6,53.3,83.7,59,77.9L59,77.9z"/>
	<path class="st2" d="M118.6,76c-6.7,0-12.8,2.8-17.2,7.1c-4.4,4.4-7.1,10.5-7.1,17.2c0,6.7,2.8,12.8,7.1,17.2
		c4.4,4.4,10.5,7.1,17.2,7.1c6.7,0,12.8-2.8,17.2-7.1c4.4-4.4,7.1-10.5,7.1-17.2c0-6.7-2.8-12.8-7.1-17.2
		C131.4,78.7,125.3,76,118.6,76L118.6,76z M96.2,77.9c5.7-5.7,13.6-9.3,22.3-9.3s16.6,3.6,22.3,9.3c5.7,5.7,9.3,13.6,9.3,22.3
		c0,8.7-3.6,16.6-9.3,22.4s-13.6,9.3-22.3,9.3c-8.7,0-16.6-3.6-22.3-9.3c-5.7-5.7-9.3-13.6-9.3-22.4C87,91.6,90.5,83.7,96.2,77.9
		L96.2,77.9z"/>
	<path class="st1" d="M47.2,72.4l-1.4,3.8l-4.5,0.1l-2.5,6.9l3.4,2.9l-1.4,3.7L26,76.8l1.4-3.7L47.2,72.4L47.2,72.4z M38,76.4
		l-7.3,0l5.6,4.7L38,76.4L38,76.4z"/>
	<path class="st1" d="M41.3,65c-1.4-1.2-2.5-2.4-3.1-3.7c-0.4-0.9-0.7-1.9-0.8-3c-0.1-1,0-2,0.2-2.9c0.4-1.2,1-2.4,2-3.5
		c1.8-2.1,3.8-3.2,6.1-3.4s4.7,0.7,7,2.7c2.3,1.9,3.6,4,3.8,6.4c0.2,2.3-0.5,4.5-2.2,6.6c-1.8,2.1-3.8,3.2-6.1,3.4
		C45.8,67.8,43.6,66.9,41.3,65L41.3,65z M43.7,62c1.6,1.4,3.2,2,4.6,2c1.4,0,2.7-0.6,3.6-1.8c1-1.2,1.3-2.4,1.1-3.8
		c-0.2-1.4-1.1-2.8-2.8-4.2c-1.6-1.4-3.2-2-4.5-2s-2.6,0.6-3.6,1.8c-1,1.2-1.4,2.5-1.2,3.9C41.1,59.3,42.1,60.7,43.7,62L43.7,62z"/>
	<polygon class="st1" points="72.1,49.7 65.3,35.9 60.4,38.3 59,35.5 72.2,29.1 73.6,31.9 68.7,34.3 75.4,48.1 	"/>
	<path class="st1" d="M83.4,44.8l-3.2-18.2l5.9-1c2.2-0.4,3.7-0.6,4.4-0.5c1.1,0.1,2.1,0.5,3,1.3c0.9,0.8,1.4,1.9,1.7,3.4
		c0.2,1.1,0.2,2.1-0.1,2.9c-0.3,0.8-0.7,1.5-1.2,2.1c-0.6,0.6-1.1,1-1.8,1.2c-0.8,0.3-2.1,0.6-3.8,0.9l-2.4,0.4l1.2,6.9L83.4,44.8
		L83.4,44.8z M84.4,29l0.9,5.1l2-0.4c1.4-0.2,2.4-0.5,2.9-0.8c0.4-0.3,0.8-0.6,1-1.1c0.2-0.4,0.3-1,0.2-1.5
		c-0.1-0.7-0.4-1.2-0.9-1.6c-0.5-0.4-1-0.6-1.6-0.6c-0.4,0-1.4,0.1-2.7,0.4L84.4,29L84.4,29z"/>
	<polygon class="st1" points="100.7,42.9 101.7,24.4 105.4,24.6 104.5,43.1 	"/>
	<polygon class="st1" points="108.5,43.3 112.9,25.3 116.6,26.2 114.6,34.2 123.9,28.1 128.8,29.2 120.3,34.6 124.7,47.3 120,46.2 
		117.1,36.5 113.4,38.7 112.1,44.2 	"/>
	<path class="st1" d="M140.9,57.6l-3.4-2.2l0.8-4.4l-6.3-3.9l-3.5,2.8l-3.4-2.1l15.9-11.9l3.4,2.1L140.9,57.6L140.9,57.6z
		 M138.9,47.7l1.5-7.2l-5.7,4.5L138.9,47.7L138.9,47.7z"/>
	<polygon class="st1" points="162.3,54.7 152,71.5 149.5,68.3 157.1,56.1 143.7,61.1 141.2,58.1 159.7,51.6 	"/>
	<path class="st1" d="M158.7,89.5l-1.4-3.8l3.4-3l-2.5-6.9h-4.5l-1.4-3.7l19.9,0.4l1.4,3.7L158.7,89.5L158.7,89.5z M163.2,80.5
		l5.6-4.7h-7.3L163.2,80.5L163.2,80.5z"/>
	<polygon class="st1" points="68.9,169.4 74.7,154.2 86.9,158.9 81.1,174.1 78,172.9 82.9,160.3 76.8,158 72,170.6 	"/>
	<polygon class="st1" points="84.5,174.6 85.1,171.5 88.1,172.1 87.5,175.2 	"/>
	<path class="st1" d="M105.6,176.5l-3.6-0.1l-1.3-3.8l-6.5-0.2l-1.5,3.7l-3.5-0.1l6.9-16.1l3.5,0.1L105.6,176.5L105.6,176.5z
		 M99.7,169.8l-2-6.1l-2.4,6L99.7,169.8L99.7,169.8z"/>
	<polygon class="st1" points="107.1,175.7 106.7,172.6 109.8,172.2 110.2,175.3 	"/>
	<polygon class="st1" points="113.4,175 109.2,159.3 120.9,156.1 121.5,158.8 113,161.1 114,164.6 121.9,162.5 122.6,165.1 
		114.7,167.2 115.8,171.5 124.7,169.2 125.4,171.8 	"/>
	<polygon class="st1" points="128.1,170.5 126.9,167.6 129.9,166.5 131,169.4 	"/>
	<path class="st1" d="M90.3,147.3h-1.9v-7.2c-0.7,0.6-1.5,1.1-2.5,1.4v-1.7c0.5-0.2,1-0.5,1.6-0.9s1-1,1.2-1.6h1.6V147.3L90.3,147.3
		z"/>
	<path class="st1" d="M93.2,145l1.8-0.2c0,0.4,0.2,0.6,0.4,0.8c0.2,0.2,0.4,0.3,0.8,0.3c0.4,0,0.7-0.2,1-0.6
		c0.3-0.4,0.4-1.1,0.5-2.2c-0.5,0.6-1.1,0.8-1.8,0.8c-0.8,0-1.4-0.3-2-0.9c-0.6-0.6-0.8-1.4-0.8-2.4c0-1,0.3-1.8,0.9-2.4
		c0.6-0.6,1.4-0.9,2.3-0.9c1,0,1.8,0.4,2.5,1.2c0.6,0.8,1,2.1,1,3.8c0,1.8-0.3,3.1-1,3.9c-0.7,0.8-1.6,1.2-2.6,1.2
		c-0.8,0-1.4-0.2-1.9-0.6C93.7,146.4,93.4,145.8,93.2,145L93.2,145z M97.5,140.8c0-0.6-0.2-1.1-0.4-1.4s-0.6-0.5-1-0.5
		c-0.4,0-0.6,0.1-0.9,0.4c-0.2,0.3-0.4,0.7-0.4,1.4s0.1,1.1,0.4,1.4c0.2,0.3,0.6,0.4,1,0.4c0.4,0,0.7-0.2,0.9-0.4
		C97.4,141.8,97.5,141.4,97.5,140.8L97.5,140.8z"/>
	<path class="st1" d="M107.3,139.8l-1.8,0.2c0-0.4-0.2-0.6-0.4-0.8s-0.4-0.3-0.8-0.3c-0.4,0-0.8,0.2-1,0.6c-0.3,0.4-0.4,1.1-0.5,2.2
		c0.5-0.6,1.1-0.8,1.8-0.8c0.8,0,1.5,0.3,2,0.9c0.6,0.6,0.8,1.4,0.8,2.4c0,1-0.3,1.8-0.9,2.4c-0.6,0.6-1.4,0.9-2.3,0.9
		c-1,0-1.8-0.4-2.5-1.2c-0.6-0.8-1-2-1-3.8c0-1.8,0.3-3.1,1-4c0.7-0.8,1.6-1.2,2.6-1.2c0.8,0,1.4,0.2,1.9,0.6
		C106.9,138.4,107.2,139,107.3,139.8L107.3,139.8z M103,143.9c0,0.6,0.2,1.1,0.4,1.4c0.3,0.3,0.6,0.5,1,0.5c0.4,0,0.6-0.1,0.9-0.4
		c0.2-0.3,0.4-0.7,0.4-1.4s-0.1-1.1-0.4-1.4c-0.2-0.3-0.6-0.4-1-0.4c-0.4,0-0.7,0.2-0.9,0.4C103.2,143,103,143.4,103,143.9
		L103,143.9z"/>
	<path class="st1" d="M108.5,144.7l1.8-0.2c0.1,0.5,0.2,0.8,0.5,1.1c0.2,0.2,0.6,0.4,0.9,0.4c0.4,0,0.7-0.2,1-0.4
		c0.3-0.3,0.4-0.7,0.4-1.2c0-0.5-0.1-0.8-0.4-1.1c-0.2-0.3-0.6-0.4-1-0.4c-0.2,0-0.5,0-0.9,0.2l0.2-1.6c0.5,0,0.9-0.1,1.2-0.3
		c0.3-0.2,0.4-0.6,0.4-1c0-0.3-0.1-0.6-0.3-0.8s-0.5-0.3-0.8-0.3s-0.6,0.1-0.8,0.4c-0.2,0.2-0.4,0.6-0.4,1l-1.8-0.3
		c0.1-0.6,0.3-1.1,0.6-1.4c0.2-0.4,0.6-0.6,1-0.8c0.4-0.2,0.9-0.3,1.5-0.3c0.9,0,1.7,0.3,2.2,0.9c0.5,0.5,0.7,1,0.7,1.6
		c0,0.9-0.5,1.6-1.4,2.1c0.6,0.1,1,0.4,1.4,0.8c0.4,0.4,0.5,0.9,0.5,1.5c0,0.9-0.3,1.6-1,2.2c-0.6,0.6-1.4,0.9-2.4,0.9
		c-0.9,0-1.6-0.2-2.2-0.8C109,146.2,108.6,145.5,108.5,144.7L108.5,144.7z"/>
</g>
</svg>
