<?xml version="1.0" encoding="utf-8"?>
<!-- Generator: Adobe Illustrator 21.1.0, SVG Export Plug-In . SVG Version: 6.00 Build 0)  -->
<svg version="1.1" id="Layer_1" xmlns="http://www.w3.org/2000/svg" xmlns:xlink="http://www.w3.org/1999/xlink" x="0px" y="0px"
	 viewBox="0 0 200 200" style="enable-background:new 0 0 200 200;" xml:space="preserve">
<style type="text/css">
	.st0{fill:#FFFFFF;}
	.st1{fill:none;stroke:#2F3A8E;stroke-width:2.157;stroke-miterlimit:3.864;}
	.st2{fill:#2F3A8E;}
	.st3{fill:#F3BB21;}
	.st4{fill:#A39160;}
</style>
<g>
	<path class="st0" d="M100,198.8c18.4-21.9,71-30.8,71-64V49.1c-13.1,8.1-37.6,3.9-50.4-1.6c-7.3-3.1-13.9-7.5-20.6-11.6
		c-7.4,4-14.7,8.9-22.5,12.1C64,53.4,42.4,55.9,29,49.1v89.1C29,170.5,81.9,177.5,100,198.8"/>
	<path class="st1" d="M100,198.8c18.4-21.9,71-30.8,71-64V49.1c-13.1,8.1-37.6,3.9-50.4-1.6c-7.3-3.1-13.9-7.5-20.6-11.6
		c-7.4,4-14.7,8.9-22.5,12.1C64,53.4,42.4,55.9,29,49.1v89.1C29,170.5,81.9,177.5,100,198.8z"/>
	<path class="st2" d="M35,58.4c19.5,3.4,33,1.2,51.4-7.6c4.3-2,8.8-5.6,13.1-7.5c12.2,8.9,24.5,14,40.4,15.5L35,143.8V58.4z"/>
	<path class="st3" d="M164,80.4v53.8c0,25.8-26.1,31.6-43.6,42.2c-7.1,4.3-14.1,10.5-21.3,14.4c-12.3-11.3-26.8-16.4-40.8-24.6
		L164,80.4z"/>
	<path class="st2" d="M69.8,143.2l4.3-3.4l4,2l4.6-3.6L64,128.1l-2.7,2.1l5.2,20.8l4.6-3.6L69.8,143.2z M67.8,136.1l3.8,1.8
		l-2.8,2.2L67.8,136.1z"/>
	<polygon class="st2" points="90.2,132.5 81.2,120.9 85.2,117.7 94.3,129.3 98.7,125.7 86.7,110.3 73.6,120.5 85.7,135.9 	"/>
	<path class="st2" d="M113.1,102.1c-3.4-4.4-10.3-4.8-15.3-1c-4.9,3.9-6.2,10.7-2.8,15.1c3.4,4.4,10.3,4.8,15.3,1
		C115.2,113.3,116.5,106.5,113.1,102.1 M107,112.9c-2.4,1.8-5.6,1.6-7.3-0.4c-1.6-2.1-1-5.3,1.3-7.2c2.3-1.8,5.6-1.6,7.2,0.5
		C109.9,107.9,109.4,111.1,107,112.9"/>
	<polygon class="st2" points="130.4,101 127.9,97.9 123.1,101.6 120.9,98.7 124.8,95.6 122.2,92.3 118.3,95.3 116.1,92.6 
		120.9,88.8 118.3,85.6 108.8,93 120.9,108.4 	"/>
	<polygon class="st2" points="143.6,90.7 148.3,87 129,77.2 127.2,78.6 132.1,99.7 136.9,96 133.9,85.3 	"/>
	<polygon class="st4" points="74.1,1.2 79.2,11.6 90.6,13.2 82.4,21.3 84.3,32.6 74.1,27.3 63.9,32.6 65.9,21.3 57.6,13.2 69,11.6 	
		"/>
	<polygon class="st4" points="125,1.2 130.1,11.6 141.5,13.2 133.2,21.3 135.2,32.6 125,27.3 114.8,32.6 116.7,21.3 108.5,13.2 
		119.9,11.6 	"/>
</g>
</svg>
