<?xml version="1.0" encoding="utf-8"?>
<!-- Generator: Adobe Illustrator 21.1.0, SVG Export Plug-In . SVG Version: 6.00 Build 0)  -->
<svg version="1.1" id="Layer_1" xmlns="http://www.w3.org/2000/svg" xmlns:xlink="http://www.w3.org/1999/xlink" x="0px" y="0px"
	 viewBox="0 0 200 200" style="enable-background:new 0 0 200 200;" xml:space="preserve">
<style type="text/css">
	.st0{fill:#3F6CB2;}
	.st1{fill:#FFFFFF;}
</style>
<g>
	<path class="st0" d="M6.6,135c0.6-1,1.5-1.4,2.2-1.3c0.3,0,0.6,0.1,0.9,0.2c0-0.5,0-1.2,0-1.7c0-0.2,0.1-0.4,0.2-0.6
		c0.3-0.6,1.1-1.6,2-2.8c2.9-3.5,7.8-8.7,7.8-8.7l0-0.1l0.1,0c0.1,0,1-0.6,2.9-0.6c0.4,0,0.8,0,1.2,0.1c0.1,0,0.1,0,0.2,0
		c-0.2-1.4-0.3-2.9-0.3-4.4c0-3.1,0.4-6.5,1.2-10c2.6-10.8,5.9-23,5.9-37.2c0-4.5-0.3-9.3-1.2-14.3c-1.3-7.7-3.7-14.8-5.9-20
		c-1.1-2.6-2.1-4.7-2.8-6.2c-0.7-1.5-1.2-2.3-1.2-2.3l-0.2-0.4L40.4,1.2h119.1l20.8,23.6l-0.2,0.4c0,0-0.4,0.8-1.2,2.3
		c-2.2,4.4-6.8,14.7-8.6,26.2c-0.8,5-1.2,9.7-1.2,14.3c0,14.2,3.3,26.4,5.9,37.2c0.8,3.5,1.2,6.9,1.2,10c0,1.5-0.1,3-0.3,4.4
		c0.1,0,0.1,0,0.2,0c0.4,0,0.8-0.1,1.2-0.1c1.9,0,2.9,0.5,2.9,0.6l0.1,0l0,0.1c0,0,2.5,2.6,5,5.4c1.2,1.4,2.5,2.8,3.4,4
		c0.5,0.6,0.9,1.1,1.1,1.5c0.1,0.2,0.3,0.4,0.3,0.6c0.1,0.2,0.2,0.3,0.2,0.6c0,0.5,0,1.2,0,1.7c0.2-0.1,0.5-0.2,0.9-0.2
		c0.7,0,1.5,0.4,2.2,1.3c0.5,0.7,0.9,1.7,0.9,2.8c0,1.7-0.9,3.7-3.5,6c-5.4,4.9-11.4,5.5-13.1,5.5c0,2.5-0.4,13.8-2.7,19.7
		c-1.8,4.4-5.1,7.4-10,7.4c-0.5,0-1,0-1.5-0.1c-4.8-0.5-6.8-2.6-7.5-3.6c-2.1,1.3-11.7,7.5-33.2,19.8c-8.1,4.7-14.8,6.3-22.8,6.3
		c0,0,0,0,0,0c-7.9,0-14.6-1.6-22.7-6.3c-21.5-12.3-31.1-18.4-33.2-19.8c-0.7,1-2.8,3.1-7.5,3.6c-0.5,0.1-1,0.1-1.5,0.1
		c-4.9,0-8.3-3-10-7.4c-2.4-5.9-2.7-17.2-2.7-19.7c-1.7-0.1-7.7-0.7-13.1-5.5c-2.6-2.3-3.5-4.3-3.5-6C5.6,136.7,6.1,135.8,6.6,135z
		 M153.3,151.8c0.2,0.3,0.4,0.5,0.5,0.8c0.7-0.4,2.1-1.5,3.5-3.6c0.7-1.1,1.3-2.2,1.7-3.4c-1.5,1.1-3.1,2.2-4.8,3.2
		c-1,0.6-2,1.2-3.1,1.8C152.2,150.9,152.9,151.4,153.3,151.8z M110.7,170.6c3.1-1.3,6.3-3.4,11.6-6.7c2.1-1.3,4-2.5,5.8-3.6
		c-2.8,1-5.3,1.8-7.4,2.6c-7.4,2.7-12.3,6.2-15.4,9.2C107.3,171.8,109,171.4,110.7,170.6z M77.6,163.9c5.3,3.3,8.6,5.4,11.6,6.7
		c1.7,0.7,3.4,1.2,5.4,1.5c-3.1-3-8-6.5-15.4-9.2c-2.1-0.8-4.6-1.6-7.4-2.6C73.6,161.5,75.6,162.7,77.6,163.9z M42.7,149
		c1,1.6,2.1,2.5,2.8,3.1c0.3,0.2,0.5,0.4,0.7,0.5c0.1-0.2,0.2-0.5,0.5-0.8c0.4-0.5,1.1-1,2.1-1.3c-1-0.6-2.1-1.2-3.1-1.8
		c-1.6-1-3.2-2-4.7-3.2C41.4,146.8,42,147.9,42.7,149z"/>
	<path class="st1" d="M25.1,115.1c0-3,0.4-6.2,1.2-9.7c2.6-10.7,5.9-23.1,5.9-37.5c0-4.6-0.3-9.4-1.2-14.5
		c-2.3-14-8.5-26.1-9.7-28.5L41.1,2.6h117.9L178.7,25c-1.3,2.4-7.4,14.5-9.7,28.5c-0.8,5-1.2,9.9-1.2,14.5c0,14.4,3.4,26.7,5.9,37.5
		c0.8,3.4,1.2,6.7,1.2,9.7c0,1.6-0.1,3.2-0.3,4.7c-2,0.5-3.7,1.4-5.3,2.6c1-3,1.6-6.1,1.6-9.2c0-2.5-0.3-5.1-1.1-7.7
		c-2.4-8.8-5.7-28-5.7-44.4c0-7.6,2.3-16.8,4.7-24c1.2-3.6,2.4-6.7,3.2-9c0.9-2.2,1.5-3.5,1.5-3.5l0.2-0.4L156.3,4.7H43.7L26.4,24.1
		l0.2,0.4c0,0,0.6,1.3,1.5,3.5c2.6,6.7,7.9,21.5,7.9,33c0,16.5-3.3,35.6-5.7,44.4c-0.7,2.6-1.1,5.2-1.1,7.7c0,3.2,0.5,6.2,1.6,9.2
		c-1.5-1.2-3.3-2.1-5.3-2.6C25.3,118.3,25.1,116.7,25.1,115.1z"/>
	<path class="st1" d="M149.1,150.1c-0.2,0-0.4,0-0.6,0c-2.8,0-6.2,1.5-10.4,4c-1.5,0.9-3.1,1.8-4.8,2.9c-5,1.9-9.6,3.3-13,4.6
		c-8.6,3.1-13.9,7.4-17.1,10.7c-1,0.1-2.1,0.1-3.3,0.1c-1.2,0-2.3,0-3.3-0.1c-3.1-3.3-8.5-7.6-17.1-10.7c-3.4-1.3-8-2.7-13-4.6
		c-1.7-1.1-3.3-2.1-4.8-2.9c-4.2-2.5-7.6-4-10.4-4c-0.2,0-0.4,0-0.6,0c-1.5-0.8-3-1.6-4.5-2.5c-2.2-1.3-4.2-2.7-6.2-4.3
		c-0.6-2.2-1.1-4.6-1.7-7.2c-0.1-0.6-0.3-1.2-0.5-1.7c1,1.2,2.2,2.3,3.4,3.4c7.9,7.2,19.2,13.1,33.3,17.3c9.5,2.8,15.7,6.2,19.5,8.9
		c1.9,1.3,3.2,2.5,4.1,3.3c0.4,0.4,0.7,0.7,0.9,1c0.1,0.1,0.2,0.2,0.2,0.2c0,0.1,0.1,0.1,0.1,0.1l0.5,0.7l0.5-0.7c0,0,0,0,0.1-0.1
		c0.6-0.8,6.9-8.1,24.7-13.4c14.1-4.2,25.4-10.1,33.3-17.3c1.2-1.1,2.3-2.2,3.4-3.4c-0.2,0.6-0.3,1.2-0.5,1.7
		c-0.6,2.6-1.1,5-1.7,7.2c-2,1.5-4,3-6.2,4.3C152.1,148.5,150.6,149.3,149.1,150.1z"/>
	<path class="st1" d="M162.7,61.1c0-7,1.9-15,3.9-21.8H33.3c2.1,6.8,3.9,14.8,3.9,21.8c0,16.6-3.3,35.8-5.8,44.8
		c-0.7,2.5-1,4.9-1,7.3c0,4,0.9,7.9,2.7,11.7c0.2,0.2,0.4,0.4,0.5,0.7c1.1,1.5,2.1,3.2,2.9,5c1.6,2.2,3.5,4.3,5.7,6.3
		c7.7,7,18.9,12.9,32.8,17c16.1,4.8,23,11.3,24.9,13.3c1.9-2.1,8.8-8.6,24.9-13.3c13.9-4.1,25.1-10,32.8-17c2.2-2,4.1-4.1,5.7-6.3
		c0.8-1.7,1.7-3.4,2.9-5c0.2-0.2,0.4-0.5,0.5-0.7c1.8-3.7,2.7-7.7,2.7-11.7c0-2.4-0.3-4.9-1-7.3C166,96.9,162.7,77.7,162.7,61.1z"/>
	<path class="st1" d="M190.2,143.1c-5.7,5.1-12,5.3-12.8,5.3c-0.1,0-0.1,0-0.1,0l-0.5,0l0,0.5c0,0,0,3.4-0.4,7.6
		c-0.3,4.2-1,9.2-2.3,12.3c-1.7,4.2-4.6,6.7-9.1,6.7c-0.4,0-0.9,0-1.4-0.1c-2.9-0.3-4.7-1.2-5.7-2.1c-0.5-0.4-0.9-0.8-1.1-1.1
		c-0.1-0.1-0.2-0.2-0.2-0.3c0,0,0-0.1,0-0.1c0,0,0,0,0,0l-0.2-0.5l-0.5,0.3c0,0-0.6,0.4-1.8,1.1c-3.7,2.3-13.3,8.3-31.8,18.9
		c-8,4.6-14.5,6.1-22.3,6.1c-7.8,0-14.2-1.5-22.3-6.1c-12.3-7-20.7-12-26-15.3c-2.7-1.6-4.6-2.8-5.8-3.6c-1.2-0.8-1.8-1.1-1.8-1.1
		l-0.5-0.3l-0.2,0.5c0,0,0,0,0,0c-0.1,0.2-1.6,2.9-7,3.5c-0.5,0.1-0.9,0.1-1.4,0.1c-4.5,0-7.4-2.6-9.1-6.7
		c-1.3-3.1-1.9-8.1-2.3-12.3c-0.3-4.2-0.4-7.6-0.4-7.6l0-0.5l-0.5,0c0,0,0,0-0.1,0c-0.8,0-7.1-0.2-12.8-5.3
		c-2.4-2.2-3.1-3.9-3.1-5.2c0-0.9,0.3-1.6,0.7-2.2c0.5-0.8,1-0.9,1.3-0.9c0.3,0,0.5,0.1,0.7,0.2c0.1,0.1,0.2,0.1,0.2,0.2
		c0,0,0,0,0.1,0c0,0,0,0,0,0l0,0c0,0,0.1,0.1,0.3,0.4c0.7,0.7,1.9,2.4,1.9,4c0,0.3,0,0.6-0.1,0.9c-0.1,0.3-0.1,0.2-0.2,0.2
		c-0.2,0-0.7-0.2-1-0.5c-0.2-0.1-0.3-0.3-0.5-0.4c-0.1-0.1-0.2-0.2-0.2-0.2c-0.2-0.2-0.5-0.2-0.7,0c-0.2,0.2-0.2,0.5,0,0.7
		c0,0,0.3,0.3,0.7,0.7c0.4,0.3,1,0.7,1.6,0.7c0,0,0,0,0.1,0c0.5,0,1-0.4,1.1-0.9c0.1-0.4,0.2-0.8,0.2-1.2c0-2.3-1.9-4.3-2.4-4.9
		c0-0.4,0-1.5,0-2.4c0-0.1,0.2-0.4,0.4-0.7c1-1.4,3.3-4.1,5.4-6.4c1.9-2.1,3.5-3.8,3.9-4.2c0.2-0.1,1-0.4,2.3-0.4
		c0.3,0,0.7,0,1.1,0.1c3.9,0.4,6.9,2.6,9.1,5.6c2.3,3,3.8,6.8,4.6,10.2c1.2,5.1,1.8,9.4,4.3,13.2c2.2,3.3,4.4,4.2,4.5,4.2l0.4-0.5
		h0.3c0,0,0,0,0,0c0,0,0,0,0,0c0-0.1,0.1-0.5,0.6-1c0.5-0.4,1.3-0.9,3-1.2c0.2,0,0.5,0,0.8,0c2.5,0,5.7,1.4,9.9,3.9
		c4.2,2.4,9.4,5.9,15.8,9.9c5.3,3.3,8.6,5.4,11.8,6.8c3.2,1.4,6.3,1.9,11.1,1.9c4.8,0,7.9-0.5,11.1-1.9c3.2-1.4,6.5-3.5,11.8-6.8
		c6.4-4,11.6-7.4,15.8-9.9c4.2-2.5,7.4-3.9,9.9-3.9c0.3,0,0.5,0,0.8,0c1.9,0.2,2.8,0.9,3.2,1.3c0.2,0.2,0.3,0.5,0.4,0.6
		c0,0.1,0,0.1,0,0.2c0,0,0,0,0,0c0,0.2,0,0.2,0,0.2c0,0.1,0,0.1,0,0.1l0.2,0.3l0.4-0.1c0.1,0,2.3-0.9,4.5-4.2
		c2.6-3.8,3.1-8.1,4.3-13.2c0.8-3.4,2.3-7.2,4.6-10.2c2.3-3,5.3-5.2,9.1-5.6c0.4,0,0.8-0.1,1.1-0.1c0.9,0,1.5,0.1,1.9,0.2
		c0.2,0.1,0.3,0.1,0.4,0.2c0,0,0,0,0.1,0c0.4,0.4,2.6,2.8,4.9,5.3c1.2,1.4,2.5,2.8,3.4,3.9c0.5,0.6,0.8,1.1,1.1,1.5
		c0.1,0.2,0.2,0.4,0.3,0.5c0,0.1,0,0.1,0.1,0.1c0,0,0,0,0,0c0,0.9,0,1.9,0,2.4c-0.5,0.6-2.4,2.6-2.4,4.9c0,0.4,0.1,0.8,0.2,1.2
		c0.2,0.5,0.7,0.9,1.1,0.9c0,0,0,0,0,0c0.7,0,1.2-0.4,1.6-0.7c0.4-0.3,0.7-0.7,0.7-0.7c0.2-0.2,0.2-0.5,0-0.7
		c-0.2-0.2-0.5-0.2-0.7,0c0,0-0.1,0.1-0.2,0.2c-0.2,0.2-0.5,0.4-0.7,0.6c-0.3,0.2-0.6,0.3-0.7,0.3c-0.1,0-0.1,0-0.2-0.2
		c-0.1-0.3-0.1-0.6-0.1-0.9c0-1,0.5-2.1,1.1-2.9c0.3-0.4,0.6-0.8,0.8-1c0.2-0.2,0.3-0.3,0.3-0.4l0,0c0,0,0,0,0,0
		c0.1-0.1,0.6-0.4,1-0.4c0.4,0,0.8,0.1,1.3,0.9c0.4,0.6,0.7,1.4,0.7,2.2C193.3,139.2,192.6,140.9,190.2,143.1z"/>
	<path class="st0" d="M100,140.5c11.1,0,20.7,4.1,20.7,9.1c0,4.6-9.6,8.6-20.7,8.6c-11.1,0-20.7-4.1-20.7-8.6
		C79.3,144.6,88.9,140.5,100,140.5L100,140.5L100,140.5z"/>
	<path class="st0" d="M42.7,170.8c0,0-1.7-1-4-1.6c-1.6-0.4-2.8,0.1-2.8,0.1l-3.5,3.6c0,0,2.8,0.6,5.5,0
		C41.2,172.3,42.7,170.8,42.7,170.8L42.7,170.8z"/>
	<path class="st0" d="M22.8,123.5l-5.7,6.2c0,0,3,1,5.3,3.3c2.1,2.1,5.3,4.5,4.8,17c-0.4,10.2,0.5,14.6,1.6,17.6
		c1.1,2.9,2,3.4,2,3.4l14.1-15.1c0,0-3.8-3.1-5.3-6.5c-3.3-7.4-2.7-10.8-4.8-15.9C32.7,128.5,28.3,123.3,22.8,123.5L22.8,123.5z"/>
	<path class="st0" d="M177.2,123.5l5.7,6.2c0,0-3,1-5.3,3.3c-2.1,2.1-5.3,4.5-4.8,17c0.4,10.2-0.5,14.6-1.6,17.6
		c-1.1,2.9-2,3.4-2,3.4l-14.1-15.1c0,0,3.8-3.1,5.3-6.5c3.3-7.4,2.7-10.8,4.8-15.9C167.3,128.5,171.7,123.3,177.2,123.5L177.2,123.5
		z"/>
	<path class="st0" d="M22.7,145.6c0,0,0-3.7-2.4-7.7c-1.7-2.9-4.7-6.2-5.5-4.4c-1.2,2.6,0.1,4.6,1.1,6.8c0.6,1.3,0.8,1.8,0.5,2.5
		c-0.3,0.7-1.2,0.9-1.2,0.9s2.4,0.9,4.4,1.4C21.5,145.5,22.7,145.6,22.7,145.6L22.7,145.6z"/>
	<path class="st0" d="M149.7,154.2c-7.1-0.3-11.2,3.8-22.1,10.6c-15,9.5-20.3,11.1-27.6,11.1c-7.3,0-12.6-1.7-27.6-11.1
		c-10.9-6.9-15-11-22.1-10.6c-1.6,0.1-12.3,12.5-12.3,12.5s3.3-0.4,6.2,1c3.5,1.7,20.6,13.9,33.1,20.4c6.7,3.5,13.8,6.4,22.7,6.4
		c8.9,0,15.9-2.9,22.7-6.4c12.5-6.6,29.5-18.7,33.1-20.4c2.9-1.4,6.2-1,6.2-1S151.3,154.3,149.7,154.2z"/>
	<path class="st0" d="M157.3,170.8c0,0,1.7-1,4-1.6c1.6-0.4,2.8,0.1,2.8,0.1l3.5,3.6c0,0-2.8,0.6-5.5,0
		C158.8,172.3,157.3,170.8,157.3,170.8L157.3,170.8z"/>
	<path class="st0" d="M177.3,145.6c0,0,0-3.7,2.4-7.7c1.7-2.9,4.7-6.2,5.5-4.4c1.2,2.6-0.1,4.6-1.1,6.8c-0.6,1.3-0.8,1.8-0.4,2.5
		c0.3,0.7,1.2,0.9,1.2,0.9s-2.4,0.9-4.4,1.4C178.5,145.5,177.3,145.6,177.3,145.6L177.3,145.6z"/>
	<polygon class="st1" points="65.4,162.4 58.7,172.9 64.7,176.8 65.9,175.1 62.2,172.1 67.4,163.9 	"/>
	<polygon class="st1" points="73.9,168.1 67.6,178.6 69.6,179.9 76.2,169.5 	"/>
	<polygon class="st1" points="85,174 81.4,178.7 81.4,173.8 80,173.2 70.9,183.1 73.2,184.6 78.8,178.6 78.9,183.3 80.2,183.7 
		82.6,180.9 81.8,186.3 84,186.9 86.2,174.4 	"/>
	<path class="st1" d="M95.3,177l-9.2,10.7l0.5,1.2l8.2-0.6l0.6,4.5l2.8-0.2L96.4,177H95.3z M89.8,186.3l4.4-4.9l0.3,4.2L89.8,186.3z
		"/>
	<polygon class="st1" points="107.6,178.3 105.1,177 101.1,182.9 104.2,185.2 99.6,192.1 101.8,193.3 108,184.6 105.1,182.3 	"/>
	<polygon class="st1" points="115.7,174.6 113,173.8 110.4,180.9 113.8,182.1 111,189.7 113.5,190.6 117.4,180.5 114.1,179.4 	"/>
	<path class="st1" d="M118.7,178.1l8.2,3.2l3.4-8.1l-8.4-3.6L118.7,178.1z M123.3,173.1l3.4,1.4l-1.3,3.5l-3.5-1.4L123.3,173.1z"/>
	<polygon class="st1" points="139.1,170.5 135.4,172.9 130.1,164.8 127.9,166.2 134.8,176.7 140.8,172.6 	"/>
	<polygon class="st1" points="86.3,147.9 87.9,148.5 89,147.8 89.1,154.4 91.3,154.6 91.3,143.5 90,143.5 	"/>
	<path class="st1" d="M95.4,143.1l-4,4.7l2.8,2.9l-2.6,2.8l1,1.7l6.6-7.6L95.4,143.1z M93.8,147.6l1.4-1.6l1.4,1.5l-1.3,1.4
		L93.8,147.6z"/>
	<polygon class="st1" points="103.4,147 101.8,147.6 102.4,146 105.7,145.9 105.6,143.7 101,143.8 98.7,150.1 100.1,150.2 
		102.4,149.2 103.7,150.6 102.3,152.1 100.5,151.1 99.1,152.6 101.9,154.4 103.2,154.2 106.5,150.5 	"/>
	<polygon class="st1" points="113.7,154.4 113.7,147.6 111.4,147.6 111.4,149.7 109.5,149.8 112.9,144.9 111.4,143.5 106,151.6 
		111.5,151.7 111.5,154.4 	"/>
	<path class="st1" d="M42.5,10.9L32.4,28l0.8,1.4l11-3.4l2.2,7l2.8-0.8l-5.8-20.7L42.5,10.9z M37.8,24.9l4-7.3l1.6,5.7L37.8,24.9z"
		/>
	<path class="st1" d="M52.8,11.7l-2.5,20.6l2.8,0.4l1-6.4l8.7-5.7l-9.2-9.8L52.8,11.7z M55,16.7l3.6,3.5l-4.4,2.6L55,16.7z"/>
	<path class="st1" d="M71.9,12.3l-8.3,7.8l-0.1,1l6.7,7.8l1,0.1l7.6-6.9v-1l-6.1-8.7H71.9z M71.1,25.2l-3.8-4.6l4.5-4.1l3.5,4.9
		L71.1,25.2z"/>
	<polygon class="st1" points="82.9,26.7 83,12.4 80.1,12.4 80.2,29.6 89.3,29.5 89.2,26.7 	"/>
	<polygon class="st1" points="93.8,26.7 93.9,12.4 91,12.3 91,29.5 100.1,29.5 100.1,26.7 	"/>
	<path class="st1" d="M113.7,21.1l-6.1-8.7h-0.9l-8.3,7.8l-0.1,1l6.7,7.8l1,0.1l7.6-6.9V21.1z M106,25.1l-3.8-4.5l4.6-4.2l3.5,4.9
		L106,25.1z"/>
	<polygon class="st1" points="123,20.5 119.9,12.4 118,12.7 113.2,32.8 115.9,33.7 119.6,20.6 123.3,29.3 125.4,29.2 126.9,13.3 
		123.7,13.3 	"/>
	<polygon class="st1" points="144.1,19.3 138,19.3 138,15.3 146.4,16.5 146.5,13.2 134.5,12.4 135.6,32.3 138.7,32.5 138.4,22.5 
		144.3,22.2 	"/>
	<polygon class="st1" points="134.5,12.4 134.5,12.4 134.5,12.3 	"/>
	<polygon class="st1" points="158.2,11.7 150.6,20.8 158.4,30.2 160.5,28 154.6,20.8 160.5,13.7 	"/>
	<rect x="145.9" y="26.7" class="st1" width="3" height="2.8"/>
	<rect x="161.9" y="26.7" class="st1" width="3" height="2.8"/>
	<path class="st0" d="M76.2,146.9c0-0.4,0-1.1-0.1-1.8c-0.9-9.1-1.5-11-3.6-13.3c-1.5-1.6-2.8-3.5-2.8-3.5s0.1,2.3-0.1,4.2
		c-0.2,1.9,0.1,5.1,1.2,8.1c0.4,1.1,1.4,2.5,2.5,3.7c0,0,0,0,0,0c-0.2-0.1-0.3-0.2-0.5-0.3c-0.5-0.5-1-1.1-1.6-1.6
		c-0.5-0.5-1-1-1.5-1.6c-0.1-0.1-0.2-0.2-0.3-0.3c0.1-0.7,0.8-7.5-1.4-13.8c-1.1-3.2-3.4-5.1-3.4-5.1s-0.2,1.9-0.9,4.3
		c-0.7,2.4-0.1,5.6,0.9,8c0.8,1.8,3.2,4.8,4.2,6.1c-0.2-0.2-0.4-0.5-0.7-0.7c-2.1-2.2-4.1-4.3-5.2-5.7c-0.7-0.8-1.5-1.8-2.4-2.9
		c-0.2-0.3-0.5-0.6-0.7-0.9c-0.5-0.6-1-1.2-1.5-1.9c-0.4-0.9-0.7-2.5-0.8-3.9c-0.1-1.2-0.1-2.2-0.1-2.5c0.3-0.1,0.5-0.3,0.7-0.5
		c-0.1,1.2,0,2.6,0.4,4.3c0.8,3.9,4.3,7.9,4.3,7.9s-0.2-1.6,0.2-3.5c0.5-1.9,0.6-6.8,0-8.9c-0.9-3.5-3.4-6.8-3.4-6.8
		s-0.1,1.2-0.8,3.3c-0.3,0.8-0.5,1.6-0.6,2.5c-0.2-0.4-0.6-0.7-1.1-0.7c-0.1,0-0.2,0-0.3,0c0.3-3,1.4-5.7,1-7.7
		c-0.4-2.3-2.4-5.4-2.4-5.4s-0.7,0.7-1.8,3.2c-0.1,0.3-0.2,0.6-0.4,0.9c-0.1-0.1-0.3-0.2-0.4-0.3c1.2-2.9,2.1-3.8,2.5-7
		c0.4-3.1-0.8-4.9-0.8-4.9s-1.1,1.5-3.2,3.9c-2.2,2.4-2.8,4.6-3,7.4c-0.1,2.8,3,8.4,3,8.4s-0.1-2,0.5-4.6c-0.1,0.6-0.2,1.3-0.2,2.1
		c0,0.2,0,0.5,0,0.7c0,1.2,0.2,2.3,0.4,3.1c-1.1-1.7-2.1-3.3-2.8-4.8c-0.7-1.4-1-4.1-1-7.3c0-0.6,0-1.3,0-1.9c0.2-0.9,1-1.9,1.8-2.7
		c0.7-0.7,1.4-1.2,1.6-1.4c0.6,0,1.1-0.6,1.2-1.2c0-0.6-0.5-1.2-1.1-1.2c1.1-0.8,2.4-1.8,3.9-4.2c2-3.4,2.2-7.2,2.2-7.2
		s-1.5,0.8-3.6,2.2c-2.2,1.4-2.8,1.9-4.3,4.7c-0.2,0.3-0.3,0.6-0.4,0.9c0-0.1,0-0.1,0-0.2c0.2-1.1,0.4-2,0.6-2.8
		c0.3-0.2,1.6-1.2,2.2-1.9c0.5-0.5,0.8-1,0.9-1.3c0.2,0.1,0.4,0.2,0.7,0.2c0.7,0,1.2-0.5,1.2-1.2c0-0.7-0.5-1.2-1.2-1.2
		c-0.7,0-1.2,0.5-1.2,1.2c0,0.3,0.1,0.6,0.3,0.8c-0.1,0.2-0.4,0.7-0.9,1.3c-0.4,0.5-1.3,1.2-1.8,1.6c0.7-2.6,1.4-4,2.5-5.3
		c0.3,0,1.4-0.1,2.6-0.4c1.9-0.5,2.2-0.6,5-2.7c3.9-3,4.9-6.9,4.9-6.9s-2.6,1.6-6.2,2.7c-2.2,0.7-3.8,0.4-5.3,2.2
		c-1.6,1.9-1.4,4-1.2,4.8c-0.3,0.4-0.6,0.8-0.9,1.2l-1.2-3c0.4-0.2,0.7-0.6,0.7-1.1c0-0.7-0.5-1.2-1.2-1.2c-0.7,0-1.2,0.5-1.2,1.2
		c0,0.7,0.5,1.2,1.2,1.2c0.1,0,0.1,0,0.2,0l1.3,3.2c-0.5,0.8-0.8,1.7-1.2,2.9c-0.2-0.6-0.4-1.6-0.6-2.1c-0.2-0.5-0.3-0.8-0.5-1
		c0.2-0.2,0.3-0.5,0.3-0.8c0-0.7-0.5-1.2-1.2-1.2c-0.5,0-1,0.4-1.2,0.8c-0.7-1-1.3-1.5-1.3-1.5s-3.2,3-3.1,7.2
		c0.1,3.7,0.2,4.5,1.6,6.8c1.3,2.3,1.8,3.9,1.8,3.9s0-0.1,0.1-0.2c0.2,0.4,0.4,0.8,0.7,1.2c0.6,0.8,1,1.4,1.1,1.6c0,0.1,0,0.2,0,0.3
		c-0.3-0.6-0.7-1.4-1.3-2c-1.4-1.3-2.5-2.1-2.8-2.3c0.2-0.2,0.3-0.5,0.3-0.9c0-0.7-0.5-1.2-1.2-1.2c-0.7,0-1.2,0.5-1.2,1.2
		c0,0.7,0.5,1.2,1.2,1.2c0.2,0,0.4-0.1,0.6-0.2l0,0c0,0,1.2,0.8,2.8,2.3c0.5,0.4,0.9,1.1,1.1,1.6c0.2,0.5,0.4,0.8,0.4,0.9
		c0,0.3,0,0.6,0,0.9c0,3.2,0.3,6,1,7.4c0.3,0.6,0.7,1.3,1.1,2c-0.3-0.2-0.8-0.5-1.4-1c-0.4-0.3-0.7-0.6-0.9-0.8c0.2-1,0.6-4-0.7-6.8
		c-1.6-3.5-2.3-4.3-4.7-5.9c-2.4-1.6-3.8-2.7-3.8-2.7s0,5,0.8,7.6c0.8,2.5,3.9,5,5.2,6.1c-0.3,0.2-0.5,0.6-0.5,0.9
		c0,0.1,0,0.3,0.1,0.4c-2-0.4-3.6-0.6-3.6-0.6s0.8,1.5,2.3,4.5c1.4,2.7,2.6,3.8,5,4.5c-0.1,0.2-0.1,0.3-0.1,0.5
		c0,0.2,0.1,0.5,0.2,0.7c-2.2-0.1-4,0.1-4,0.1s1.5,1.9,3.7,4.5c2.2,2.6,4.7,3.3,7.1,3.4c2,0.1,5.6,0.2,6.6,0.2
		c0.5,0.7,1,1.2,1.5,1.8c0.2,0.2,0.4,0.5,0.7,0.8c-0.8-0.4-2-0.9-3.8-1.3c-1.1-0.2-1.8-0.3-2.3-0.3c-0.3,0-0.5,0-0.7,0.1
		c0-0.2,0-0.3-0.1-0.5c-0.2-0.4-0.6-0.7-1.1-0.7c-0.7,0-1.2,0.5-1.2,1.2c0,0.2,0,0.3,0.1,0.5c-2.3-0.1-4.1,0-4.1,0s1.8,1.7,3.8,3.7
		c2,2,4.9,3,7.8,3.7c0.6,0.2,1.4,0.2,2.3,0.3c-0.1,0.2-0.2,0.4-0.2,0.6c0,0.2,0.1,0.4,0.2,0.6c-1.8,0.1-3.6,0.4-3.6,0.4
		s1.1,0.6,3,2.5c1.3,1.4,3.4,2.7,5.5,3.3c2.1,0.6,8.6,0,8.6,0S76.9,147.7,76.2,146.9z M50.2,99.4c0,0,0,0.1,0,0.1
		c0,0.5,0.3,1,0.8,1.1c-0.6,0.5-2.1,1.8-2.9,3.1c0-0.8,0.1-1.6,0.1-2.4C48.5,101.2,49.3,100.3,50.2,99.4z M46.9,103
		c-0.4-0.5-0.7-1.1-0.8-1.5c0.5-1.4,1.6-4.7,2-7.7c0.5-3.7,0.3-5-0.4-6.6c0.1,0,0.2,0,0.3,0c0.2,0,0.4-0.1,0.6-0.2c0,0,0,0,0,0.1
		c0.1,0.2,0.2,0.5,0.4,0.9c0.2,0.7,0.6,2.3,0.7,2.6c-0.3,1.1-0.6,2.3-0.9,3.9c-0.5,2.5-0.9,6.1-1.1,9.7
		C47.6,103.9,47.2,103.5,46.9,103z M57,121.4c0,0.7,0.1,3.6,0.6,5.5c-0.1-0.1-0.2-0.2-0.3-0.3c0.1,0.1,0.1,0.2,0.1,0.2
		c-0.6-2.7-0.8-3.4-0.8-5.3C56.8,121.3,56.9,121.4,57,121.4C57,121.4,57,121.4,57,121.4z M51.8,115.7c0-0.2,0-0.5,0-0.7
		c0.1-1.2,0.3-2.5,0.4-3c0,0,0.1,0,0.1,0c0.1,0,0.1,0,0.2,0c-0.5,1.8-0.7,3.8-0.3,6c0.2,1.1,0.8,2.4,1.6,3.7c-0.5-0.7-0.9-1.3-1.4-2
		C52.4,119.5,51.8,117.8,51.8,115.7z M45.9,114.5c0.1-0.1,0.2-0.2,0.2-0.2l1.8,1.1c0.1,0.1,0.1,0.1,0.2,0.2c1,0.8,1.8,1.2,2,1.3
		c1.6,2.7,3.7,5.6,5.7,8.3c-0.6-0.3-1.7-0.8-2.8-1.1c-1.7-0.5-2.6-0.7-3-0.7c0,0,0-0.1,0-0.1c2.6,0.7,5.5,1.5,5.5,1.5
		s-0.8-0.9-2.2-2.8c-1.3-1.9-3.2-5.7-6.2-6.9C46.7,114.8,46.3,114.6,45.9,114.5z M51.9,124.1c-0.7-0.2-1.5-0.3-2.2-0.4
		c0-0.1,0.1-0.1,0.1-0.2c0.1,0,0.3,0,0.6,0.1c0.5,0.1,1.3,0.3,2.5,0.6c1.6,0.5,3.2,1.3,3.4,1.4c0.3,0.5,0.7,0.9,1,1.3
		C56,125.7,54.7,124.8,51.9,124.1z M59.3,133.9c-1-0.2-2-0.4-3-0.5c0.1-0.1,0.1-0.2,0.1-0.3c0,0,0,0,0.1,0c0.1,0,0.3-0.1,0.6-0.1
		c0.5,0,1.2,0.1,2.3,0.3c1.7,0.3,2.9,0.8,3.7,1.2c0.4,0.2,0.7,0.4,0.8,0.5c0.2,0.1,0.3,0.2,0.3,0.2l0,0c0.3,0.3,0.6,0.7,1,1.1
		C63.5,135.1,62.1,134.6,59.3,133.9z M69.5,140.9c0.3,0.3,0.7,0.7,1,1c-1.5-0.4-3.8-0.5-4.4-0.5c0-0.1-0.1-0.3-0.1-0.4
		C67.5,141.1,68.8,141,69.5,140.9z M66.5,142.1c-0.2,0-0.4,0-0.6,0c0.1-0.1,0.1-0.2,0.1-0.4c0.3,0,1.1,0.1,1.9,0.1
		c1.1,0.1,2.4,0.3,3,0.6c0.3,0.3,0.5,0.5,0.8,0.8C70.2,142.6,68.2,142.2,66.5,142.1z"/>
	<path class="st1" d="M68.6,146c-3.8-0.8-4.6-2-4.6-1.2c0,0.5,1.9,1.9,3.8,2.6c2.5,0.9,4.3,0.7,4.3,0.7l0.5-1.6
		C72.5,146.5,71.6,146.6,68.6,146z"/>
	<path class="st1" d="M65.3,142.7c-0.1,0-0.2,0.1-0.4,0.1c-0.2,0-0.3,0-0.5-0.1c-0.5,0-1,0-1.4,0.1c-0.8,0.1-0.5,0.6,0.8,1
		c1.3,0.4,5,1.6,7,1.7c2,0.1,2.5-0.4,2.5-0.4c-1-0.9-2.5-1.9-4.8-2.1C67.5,142.9,66.3,142.8,65.3,142.7z"/>
	<path class="st1" d="M52.7,128c0.3,1.1,0.6,1.2,1.5,0.7c0.9-0.6,1.1-0.9,1.7-0.7c0.6,0.2,3.4,1.9,3.4,1.9s-2.7-2.9-3.7-3.7
		c-1-0.8-1.5-0.9-4.4-1.4c-2.9-0.5-5.3-0.6-4.7-0.3c0.6,0.2,1,0,1.7,0.7c0.7,0.7,1.6,0.3,2.8,0.9C52.1,126.6,52.4,126.8,52.7,128z"
		/>
	<path class="st1" d="M67.4,139.3c-0.4-0.9-3.4-3.3-4.4-3.7c-1-0.3-4.4-1.4-6.9-1.6c-0.3,0-0.5,0-0.8-0.1c0,0,0,0-0.1,0
		c-0.1,0-0.2,0-0.3,0c-1.9-0.1-3.3-0.1-2.9,0.3c0.6,0.4,3,1.7,4.5,2c1,0.2-0.1-1.1-0.1-1.1s0.7,0.3,1.7,0.9c1,0.6,1.9,0.8,1.9,0.8
		s0.2-0.7,0.6-1c0.3-0.3,1.6,0.3,3.4,1.4C65.9,138.2,67.4,139.3,67.4,139.3z"/>
	<path class="st1" d="M75.4,141.7c-0.2-1.4-0.7-4.6-1.5-6.8c-0.5-1.5-3.3-4.6-3.3-4.6s1.1,2.4,1.8,4.1c0.8,1.9,1.1,2.6,1.6,4.9
		c0.6,2.3,1.7,6.1,1.7,6.1S75.6,143.4,75.4,141.7z"/>
	<path class="st1" d="M67,130.3c0.2,2.8,0.2,3.3,0.8,5.2c0.6,1.9,1.2,3.6,1.2,3.6s0-2.8-0.1-5.2c-0.1-2.5-0.8-5.9-1.3-7.5
		c-0.6-1.7-2.5-3.9-2.5-3.9s0.4,1.1,0.8,2.6C66.3,126.9,66.8,127.5,67,130.3z"/>
	<path class="st1" d="M60.3,119.8c-0.1-2.4-0.7-3.9-0.7-3.9s-0.4,1.2-0.8,3.5c-0.5,2.9-0.3,3.8,0.4,6.5c0.6,2.3,2.3,5,2.4,4.9
		c0.2-0.1,0.1-0.6-0.2-2c-0.2-1.1-0.6-1.6-1-3.8C60.1,123,60.5,122.2,60.3,119.8z"/>
	<path class="st1" d="M62.7,126.2c0.1-1.9,0-3.4-0.2-4.8c-0.3-2.1-1.9-5.2-1.9-5.2s0.3,2.3,0.4,3c0.2,2.2-0.2,4.3,0.1,5.7
		c0.5,2.3,1.2,4.1,1.1,5.2C62.2,130.9,62.6,128.1,62.7,126.2z"/>
	<path class="st1" d="M56.1,119.2l0.4-0.7c0,0,0-0.9,0.3-2.2c0.4-2.1,0.8-3.4,0.6-5.2c-0.2-1.8-1.8-4.2-1.8-4.2
		c0.2,1.7,0.9,4.2,0.1,7.8C54.7,118.4,56.1,119.2,56.1,119.2z"/>
	<path class="st1" d="M53.6,119.6c0.6,1.5,1.9,0.7,1.9-0.2c0-0.9-1.2-1.4-0.6-4.8c0.5-2.8,0.5-6.5,0.1-6.4c-0.5,0.2-1,1.2-1.4,2.5
		c0,0,0,0.1,0,0.1c0,0.3-0.1,0.5-0.2,0.7c-0.3,1.1-0.5,2.2-0.6,3.2C52.5,116.7,52.9,117.8,53.6,119.6z"/>
	<path class="st1" d="M49.2,117.9c0.7,0.9-0.1,1.6,0.4,2.3c0.6,0.7,1.3,0.2,1.3,0.2c0.6-0.6,0.5-0.1,0.3-0.8
		c-0.2-0.8-1.9-2.8-3.7-3.8c-1.8-1-6.2-1.6-6.2-1.6s1.8,1.1,2.8,1.6c1,0.5,1.6,0,1.6,0s0.8,1.5,1.2,2
		C47.5,118.4,48.5,117,49.2,117.9z"/>
	<path class="st1" d="M43.9,111.6c0.3,0.2,0.7,0.5,1.2,0.8c0,0,0,0,0,0c0.5,0,0.9,0.3,1.1,0.7c0.2,0.1,0.3,0.2,0.3,0.2s-2.7-3.4-5-6
		c-1.7-2-2.6-6-2.6-6c0.3,2.6-0.3,3.7,1.7,6.9C41.7,109.9,43.1,111,43.9,111.6z"/>
	<path class="st1" d="M41.8,102.3c0,0-0.7,2.1,2.5,5c1.9,1.7,2.5,4.6,2.8,4c0.3-0.6-1.1-4.8-2.4-6.5
		C43.5,103.1,41.8,102.3,41.8,102.3z"/>
	<path class="st1" d="M52,109.5c0,0,0.5-0.3,1.4-2c0.8-1.5,1.2-3.3,1.3-5.1c0.1-1.8-0.3-3.2-0.3-3.2s-1.7,3-2.1,5.2
		C51.7,106.7,52,109.5,52,109.5z"/>
	<path class="st1" d="M52.9,100.5c0,0-1.6,2-2.7,3.6c-1.1,1.6-1.6,2.9-1.3,5.4c0.2,2.5,1.3,5.3,1.5,4.2c0.2-1.1,0.5-3.1,0.5-3.1
		s-0.5-2.1,0-4.4C51.3,103.7,52.9,100.5,52.9,100.5z"/>
	<path class="st1" d="M56.9,88.4c0,0-1.9,2.4-3.9,5.1c-2,2.7-3.7,5.4-3.7,5.4s1.4-0.5,3-1.9c1.9-1.6,2.3-2.3,3.1-3.7
		C56.2,91.9,56.9,88.4,56.9,88.4z"/>
	<path class="st1" d="M49.6,97.3l6.2-8.7c0,0-3.6,1.3-5.9,5.5C48.8,96,49.6,97.3,49.6,97.3z"/>
	<path class="st1" d="M45.1,99c0,0,0.1-2-0.3-3.9c-0.5-1.9-0.3-4.3-0.2-6c0.1-1.7,1.1-3,1.1-3s0.6,1.4,1.1,4.8
		c0.5,3.5-0.4,8.3-0.4,8.3s1.6-4.9,1.5-8.7c-0.1-3.4-2.2-5.7-2.2-5.7s-0.8,0.8-1.7,2.3c-1,1.7-1.1,4.7-0.8,6.6
		C43.5,97,45.1,99,45.1,99z"/>
	<path class="st1" d="M55.5,81.9c1.9-1,2.1-0.5,4.3-1.9c2.1-1.5,4-3.2,4-3.2s-2.8,2.1-5.3,2.4c-2.7,0.3-3.6,1-4.6,1.8
		c-1.8,1.5-1.1,3.5-1.1,3.5S53.6,82.9,55.5,81.9z"/>
	<path class="st1" d="M59.6,80.8c-1.6,1-2.2,0.6-4.7,2.3c-2.5,1.7-1.3,2.4,0,1.9c2.6-0.9,5.2-2.3,7.5-5c1.2-1.5,1.7-2.8,1.7-2.8
		S61.1,79.8,59.6,80.8z"/>
	<path class="st1" d="M48.8,122c-0.5,0-0.9,0.4-0.9,0.9c0,0.5,0.4,0.9,0.9,0.9v0c0.5,0,0.9-0.4,0.9-0.9
		C49.7,122.4,49.3,122,48.8,122z"/>
	<ellipse class="st1" cx="42.8" cy="99.9" rx="0.9" ry="0.9"/>
	<circle class="st1" cx="51.4" cy="99.5" r="0.9"/>
	<circle class="st1" cx="49.7" cy="82.7" r="0.9"/>
	<circle class="st1" cx="53.6" cy="87.6" r="0.9"/>
	<circle class="st1" cx="52.4" cy="110.9" r="0.9"/>
	<circle class="st1" cx="48" cy="86" r="0.9"/>
	<path class="st1" d="M55.3,131.9c-0.5,0-0.9,0.4-0.9,0.9c0,0.5,0.4,0.9,0.9,0.9c0.5,0,0.9-0.4,0.9-0.9c0-0.1,0-0.2-0.1-0.3
		C55.9,132.2,55.6,131.9,55.3,131.9z"/>
	<circle class="st1" cx="57" cy="120.1" r="0.9"/>
	<path class="st1" d="M64.9,140.7c-0.5,0-0.9,0.4-0.9,0.9c0,0.5,0.4,0.9,0.9,0.9l0,0c0.5,0,0.9-0.4,0.9-0.9
		C65.8,141.1,65.4,140.7,64.9,140.7z"/>
	<circle class="st1" cx="45.2" cy="113.6" r="0.9"/>
	<path class="st0" d="M123.8,146.9c0-0.4,0-1.1,0.1-1.8c0.9-9.1,1.5-11,3.6-13.3c1.5-1.6,2.8-3.5,2.8-3.5s-0.1,2.3,0.1,4.2
		c0.2,1.9-0.1,5.1-1.2,8.1c-0.4,1.1-1.4,2.5-2.5,3.7c0,0,0,0,0,0c0.2-0.1,0.3-0.2,0.5-0.3c0.5-0.5,1-1.1,1.6-1.6
		c0.5-0.5,1-1,1.5-1.6c0.1-0.1,0.2-0.2,0.3-0.3c-0.1-0.7-0.8-7.5,1.4-13.8c1.1-3.2,3.4-5.1,3.4-5.1s0.2,1.9,0.9,4.3
		c0.7,2.4,0.1,5.6-0.9,8c-0.8,1.8-3.2,4.8-4.2,6.1c0.2-0.2,0.4-0.5,0.7-0.7c2.1-2.2,4.1-4.3,5.2-5.7c0.7-0.8,1.5-1.8,2.4-2.9
		c0.2-0.3,0.5-0.6,0.7-0.9c0.5-0.6,1-1.2,1.5-1.9c0.4-0.9,0.7-2.5,0.8-3.9c0.1-1.2,0.1-2.2,0.1-2.5c-0.3-0.1-0.5-0.3-0.7-0.5
		c0.1,1.2,0,2.6-0.4,4.3c-0.8,3.9-4.3,7.9-4.3,7.9s0.2-1.6-0.2-3.5c-0.5-1.9-0.6-6.8,0-8.9c0.9-3.5,3.4-6.8,3.4-6.8s0.1,1.2,0.8,3.3
		c0.3,0.8,0.5,1.6,0.6,2.5c0.2-0.4,0.6-0.7,1.1-0.7c0.1,0,0.2,0,0.3,0c-0.3-3-1.4-5.7-1-7.7c0.4-2.3,2.4-5.4,2.4-5.4
		s0.7,0.7,1.8,3.2c0.1,0.3,0.2,0.6,0.4,0.9c0.1-0.1,0.3-0.2,0.4-0.3c-1.2-2.9-2.1-3.8-2.5-7c-0.4-3.1,0.8-4.9,0.8-4.9
		s1.1,1.5,3.2,3.9c2.2,2.4,2.8,4.6,3,7.4c0.1,2.8-3,8.4-3,8.4s0.1-2-0.5-4.6c0.1,0.6,0.2,1.3,0.2,2.1c0,0.2,0,0.5,0,0.7
		c0,1.2-0.2,2.3-0.4,3.1c1.1-1.7,2.1-3.3,2.8-4.8c0.7-1.4,1-4.1,1-7.3c0-0.6,0-1.3,0-1.9c-0.2-0.9-1-1.9-1.8-2.7
		c-0.7-0.7-1.4-1.2-1.6-1.4c-0.6,0-1.1-0.6-1.1-1.2c0-0.6,0.5-1.2,1.1-1.2c-1.1-0.8-2.4-1.8-3.9-4.2c-2-3.4-2.2-7.2-2.2-7.2
		s1.5,0.8,3.6,2.2c2.2,1.4,2.8,1.9,4.3,4.7c0.2,0.3,0.3,0.6,0.4,0.9c0-0.1,0-0.1,0-0.2c-0.2-1.1-0.4-2-0.6-2.8
		c-0.3-0.2-1.6-1.2-2.2-1.9c-0.5-0.5-0.8-1-0.9-1.3c-0.2,0.1-0.4,0.2-0.7,0.2c-0.7,0-1.2-0.5-1.2-1.2c0-0.7,0.5-1.2,1.2-1.2
		s1.2,0.5,1.2,1.2c0,0.3-0.1,0.6-0.3,0.8c0.1,0.2,0.4,0.7,0.9,1.3c0.4,0.5,1.3,1.2,1.8,1.6c-0.7-2.6-1.4-4-2.5-5.3
		c-0.3,0-1.4-0.1-2.6-0.4c-1.9-0.5-2.2-0.6-5-2.7c-3.9-3-4.9-6.9-4.9-6.9s2.6,1.6,6.2,2.7c2.2,0.7,3.8,0.4,5.3,2.2
		c1.6,1.9,1.4,4,1.2,4.8c0.3,0.4,0.6,0.8,0.9,1.2l1.2-3c-0.4-0.2-0.7-0.6-0.7-1.1c0-0.7,0.5-1.2,1.2-1.2c0.7,0,1.2,0.5,1.2,1.2
		c0,0.7-0.5,1.2-1.2,1.2c-0.1,0-0.1,0-0.2,0l-1.3,3.2c0.5,0.8,0.8,1.7,1.2,2.9c0.2-0.6,0.4-1.6,0.6-2.1c0.2-0.5,0.3-0.8,0.5-1
		c-0.2-0.2-0.3-0.5-0.3-0.8c0-0.7,0.5-1.2,1.2-1.2c0.5,0,1,0.4,1.2,0.8c0.7-1,1.3-1.5,1.3-1.5s3.2,3,3.1,7.2
		c-0.1,3.7-0.2,4.5-1.6,6.8c-1.3,2.3-1.8,3.9-1.8,3.9s0-0.1-0.1-0.2c-0.2,0.4-0.4,0.8-0.7,1.2c-0.6,0.8-1,1.4-1.1,1.6
		c0,0.1,0,0.2,0,0.3c0.3-0.6,0.7-1.4,1.3-2c1.4-1.3,2.5-2.1,2.8-2.3c-0.2-0.2-0.3-0.5-0.3-0.9c0-0.7,0.5-1.2,1.2-1.2
		c0.7,0,1.2,0.5,1.2,1.2c0,0.7-0.5,1.2-1.2,1.2c-0.2,0-0.4-0.1-0.6-0.2l0,0c0,0-1.2,0.8-2.8,2.3c-0.5,0.4-0.9,1.1-1.1,1.6
		c-0.2,0.5-0.4,0.8-0.4,0.9c0,0.3,0,0.6,0,0.9c0,3.2-0.3,6-1,7.4c-0.3,0.6-0.7,1.3-1.1,2c0.3-0.2,0.8-0.5,1.4-1
		c0.4-0.3,0.7-0.6,0.9-0.8c-0.2-1-0.6-4,0.7-6.8c1.6-3.5,2.3-4.3,4.7-5.9c2.4-1.6,3.8-2.7,3.8-2.7s0,5-0.8,7.6
		c-0.8,2.5-3.9,5-5.2,6.1c0.3,0.2,0.5,0.6,0.5,0.9c0,0.1,0,0.3-0.1,0.4c2-0.4,3.6-0.6,3.6-0.6s-0.8,1.5-2.3,4.5
		c-1.4,2.7-2.6,3.8-5,4.5c0.1,0.2,0.1,0.3,0.1,0.5c0,0.2-0.1,0.5-0.2,0.7c2.2-0.1,4,0.1,4,0.1s-1.5,1.9-3.7,4.5
		c-2.2,2.6-4.7,3.3-7.1,3.4c-2,0.1-5.6,0.2-6.6,0.2c-0.5,0.7-1,1.2-1.5,1.8c-0.2,0.2-0.4,0.5-0.7,0.8c0.8-0.4,2-0.9,3.8-1.3
		c1.1-0.2,1.8-0.3,2.3-0.3c0.3,0,0.5,0,0.7,0.1c0-0.2,0-0.3,0.1-0.5c0.2-0.4,0.6-0.7,1.1-0.7c0.7,0,1.2,0.5,1.2,1.2
		c0,0.2,0,0.3-0.1,0.5c2.3-0.1,4.1,0,4.1,0s-1.8,1.7-3.8,3.7c-2,2-4.9,3-7.8,3.7c-0.6,0.2-1.4,0.2-2.3,0.3c0.1,0.2,0.2,0.4,0.2,0.6
		c0,0.2-0.1,0.4-0.2,0.6c1.8,0.1,3.6,0.4,3.6,0.4s-1.1,0.6-3,2.5c-1.3,1.4-3.4,2.7-5.5,3.3c-2.1,0.6-8.6,0-8.6,0
		S123.1,147.7,123.8,146.9z M149.8,99.4c0,0,0,0.1,0,0.1c0,0.5-0.3,1-0.8,1.1c0.6,0.5,2.1,1.8,2.9,3.1c0-0.8-0.1-1.6-0.1-2.4
		C151.5,101.2,150.7,100.3,149.8,99.4z M153.1,103c0.4-0.5,0.7-1.1,0.8-1.5c-0.5-1.4-1.6-4.7-2-7.7c-0.5-3.7-0.3-5,0.4-6.6
		c-0.1,0-0.2,0-0.3,0c-0.2,0-0.4-0.1-0.6-0.2c0,0,0,0,0,0.1c-0.1,0.2-0.2,0.5-0.4,0.9c-0.2,0.7-0.6,2.3-0.7,2.6
		c0.3,1.1,0.6,2.3,0.9,3.9c0.5,2.5,0.9,6.1,1.1,9.7C152.4,103.9,152.8,103.5,153.1,103z M143,121.4c0,0.7-0.1,3.6-0.6,5.5
		c0.1-0.1,0.2-0.2,0.3-0.3c-0.1,0.1-0.1,0.2-0.1,0.2c0.6-2.7,0.8-3.4,0.8-5.3C143.2,121.3,143.1,121.4,143,121.4
		C143,121.4,143,121.4,143,121.4z M148.2,115.7c0-0.2,0-0.5,0-0.7c-0.1-1.2-0.3-2.5-0.4-3c0,0-0.1,0-0.1,0c-0.1,0-0.1,0-0.2,0
		c0.5,1.8,0.7,3.8,0.3,6c-0.2,1.1-0.8,2.4-1.6,3.7c0.5-0.7,0.9-1.3,1.4-2C147.6,119.5,148.2,117.8,148.2,115.7z M154.1,114.5
		c-0.1-0.1-0.2-0.2-0.2-0.2l-1.8,1.1c-0.1,0.1-0.1,0.1-0.2,0.2c-1,0.8-1.8,1.2-2,1.3c-1.6,2.7-3.7,5.6-5.7,8.3
		c0.6-0.3,1.7-0.8,2.8-1.1c1.7-0.5,2.6-0.7,3-0.7c0,0,0-0.1,0-0.1c-2.6,0.7-5.5,1.5-5.5,1.5s0.8-0.9,2.2-2.8
		c1.3-1.9,3.2-5.7,6.2-6.9C153.3,114.8,153.7,114.6,154.1,114.5z M148.1,124.1c0.7-0.2,1.5-0.3,2.2-0.4c0-0.1-0.1-0.1-0.1-0.2
		c-0.1,0-0.3,0-0.6,0.1c-0.5,0.1-1.3,0.3-2.5,0.6c-1.6,0.5-3.2,1.3-3.4,1.4c-0.3,0.5-0.7,0.9-1,1.3
		C144,125.7,145.3,124.8,148.1,124.1z M140.7,133.9c1-0.2,2-0.4,3-0.5c-0.1-0.1-0.1-0.2-0.1-0.3c0,0,0,0-0.1,0
		c-0.1,0-0.3-0.1-0.6-0.1c-0.5,0-1.2,0.1-2.3,0.3c-1.7,0.3-2.9,0.8-3.7,1.2c-0.4,0.2-0.7,0.4-0.8,0.5c-0.2,0.1-0.3,0.2-0.3,0.2l0,0
		c-0.3,0.3-0.6,0.7-1,1.1C136.5,135.1,137.9,134.6,140.7,133.9z M130.5,140.9c-0.3,0.3-0.7,0.7-1,1c1.5-0.4,3.8-0.5,4.4-0.5
		c0-0.1,0.1-0.3,0.1-0.4C132.5,141.1,131.2,141,130.5,140.9z M133.5,142.1c0.2,0,0.4,0,0.6,0c-0.1-0.1-0.1-0.2-0.1-0.4
		c-0.3,0-1.1,0.1-1.9,0.1c-1.1,0.1-2.4,0.3-3,0.6c-0.3,0.3-0.5,0.5-0.8,0.8C129.8,142.6,131.8,142.2,133.5,142.1z"/>
	<path class="st1" d="M131.4,146c3.8-0.8,4.6-2,4.6-1.2c0,0.5-1.9,1.9-3.8,2.6c-2.5,0.9-4.3,0.7-4.3,0.7l-0.5-1.6
		C127.5,146.5,128.4,146.6,131.4,146z"/>
	<path class="st1" d="M134.7,142.7c0.1,0,0.2,0.1,0.4,0.1c0.2,0,0.3,0,0.5-0.1c0.5,0,1,0,1.4,0.1c0.8,0.1,0.5,0.6-0.8,1
		c-1.3,0.4-5,1.6-7,1.7c-2,0.1-2.5-0.4-2.5-0.4c1-0.9,2.5-1.9,4.8-2.1C132.5,142.9,133.7,142.8,134.7,142.7z"/>
	<path class="st1" d="M147.3,128c-0.3,1.1-0.6,1.2-1.5,0.7c-0.9-0.6-1.1-0.9-1.7-0.7c-0.6,0.2-3.4,1.9-3.4,1.9s2.7-2.9,3.7-3.7
		c1-0.8,1.5-0.9,4.4-1.4c2.9-0.5,5.3-0.6,4.7-0.3c-0.6,0.2-1,0-1.7,0.7c-0.7,0.7-1.6,0.3-2.8,0.9C147.9,126.6,147.6,126.8,147.3,128
		z"/>
	<path class="st1" d="M132.6,139.3c0.5-0.9,3.4-3.3,4.4-3.7c1-0.3,4.4-1.4,6.9-1.6c0.3,0,0.5,0,0.8-0.1c0,0,0,0,0.1,0
		c0.1,0,0.2,0,0.3,0c1.9-0.1,3.3-0.1,2.9,0.3c-0.6,0.4-3,1.7-4.5,2c-1,0.2,0.1-1.1,0.1-1.1s-0.7,0.3-1.7,0.9c-1,0.6-1.9,0.8-1.9,0.8
		s-0.2-0.7-0.6-1c-0.3-0.3-1.6,0.3-3.4,1.4C134.1,138.2,132.6,139.3,132.6,139.3z"/>
	<path class="st1" d="M124.6,141.7c0.2-1.4,0.7-4.6,1.5-6.8c0.5-1.5,3.3-4.6,3.3-4.6s-1.1,2.4-1.8,4.1c-0.8,1.9-1.1,2.6-1.6,4.9
		c-0.6,2.3-1.7,6.1-1.7,6.1S124.4,143.4,124.6,141.7z"/>
	<path class="st1" d="M133,130.3c-0.2,2.8-0.2,3.3-0.8,5.2c-0.6,1.9-1.2,3.6-1.2,3.6s0-2.8,0.1-5.2c0.1-2.5,0.8-5.9,1.3-7.5
		c0.6-1.7,2.5-3.9,2.5-3.9s-0.4,1.1-0.8,2.6C133.7,126.9,133.2,127.5,133,130.3z"/>
	<path class="st1" d="M139.7,119.8c0.1-2.4,0.7-3.9,0.7-3.9s0.4,1.2,0.8,3.5c0.5,2.9,0.3,3.8-0.4,6.5c-0.6,2.3-2.3,5-2.4,4.9
		c-0.2-0.1-0.1-0.6,0.2-2c0.2-1.1,0.6-1.6,1-3.8C139.9,123,139.5,122.2,139.7,119.8z"/>
	<path class="st1" d="M137.3,126.2c-0.1-1.9,0-3.4,0.2-4.8c0.3-2.1,1.9-5.2,1.9-5.2s-0.3,2.3-0.4,3c-0.2,2.2,0.2,4.3-0.1,5.7
		c-0.5,2.3-1.2,4.1-1.1,5.2C137.8,130.9,137.4,128.1,137.3,126.2z"/>
	<path class="st1" d="M143.9,119.2l-0.4-0.7c0,0,0-0.9-0.3-2.2c-0.4-2.1-0.8-3.4-0.6-5.2c0.2-1.8,1.8-4.2,1.8-4.2
		c-0.2,1.7-0.9,4.2-0.1,7.8C145.3,118.4,143.9,119.2,143.9,119.2z"/>
	<path class="st1" d="M146.4,119.6c-0.6,1.5-1.9,0.7-1.9-0.2c0-0.9,1.2-1.4,0.6-4.8c-0.5-2.8-0.5-6.5-0.1-6.4c0.5,0.2,1,1.2,1.4,2.5
		c0,0,0,0.1,0,0.1c0,0.3,0.1,0.5,0.2,0.7c0.3,1.1,0.5,2.2,0.6,3.2C147.5,116.7,147.1,117.8,146.4,119.6z"/>
	<path class="st1" d="M150.8,117.9c-0.7,0.9,0.1,1.6-0.4,2.3c-0.6,0.7-1.3,0.2-1.3,0.2c-0.6-0.6-0.5-0.1-0.3-0.8
		c0.2-0.8,1.9-2.8,3.7-3.8c1.8-1,6.2-1.6,6.2-1.6s-1.8,1.1-2.8,1.6c-1,0.5-1.6,0-1.6,0s-0.8,1.5-1.2,2
		C152.5,118.4,151.5,117,150.8,117.9z"/>
	<path class="st1" d="M156.1,111.6c-0.3,0.2-0.7,0.5-1.2,0.8c0,0,0,0,0,0c-0.5,0-0.9,0.3-1.1,0.7c-0.2,0.1-0.3,0.2-0.3,0.2
		s2.7-3.4,5-6c1.7-2,2.6-6,2.6-6c-0.3,2.6,0.3,3.7-1.7,6.9C158.3,109.9,156.9,111,156.1,111.6z"/>
	<path class="st1" d="M158.2,102.3c0,0,0.7,2.1-2.5,5c-1.9,1.7-2.5,4.6-2.8,4c-0.3-0.6,1.1-4.8,2.4-6.5
		C156.5,103.1,158.2,102.3,158.2,102.3z"/>
	<path class="st1" d="M148,109.5c0,0-0.5-0.3-1.4-2c-0.8-1.5-1.2-3.3-1.3-5.1c-0.1-1.8,0.3-3.2,0.3-3.2s1.7,3,2.1,5.2
		C148.3,106.7,148,109.5,148,109.5z"/>
	<path class="st1" d="M147.1,100.5c0,0,1.6,2,2.7,3.6c1.1,1.6,1.6,2.9,1.3,5.4c-0.2,2.5-1.3,5.3-1.5,4.2c-0.2-1.1-0.4-3.1-0.4-3.1
		s0.5-2.1,0-4.4C148.7,103.7,147.1,100.5,147.1,100.5z"/>
	<path class="st1" d="M143.1,88.4c0,0,1.9,2.4,3.9,5.1c2,2.7,3.7,5.4,3.7,5.4s-1.4-0.5-3-1.9c-1.9-1.6-2.3-2.3-3.1-3.7
		C143.8,91.9,143.1,88.4,143.1,88.4z"/>
	<path class="st1" d="M150.4,97.3l-6.2-8.7c0,0,3.6,1.3,5.9,5.5C151.2,96,150.4,97.3,150.4,97.3z"/>
	<path class="st1" d="M154.9,99c0,0-0.1-2,0.3-3.9c0.4-1.9,0.3-4.3,0.2-6c-0.1-1.7-1.1-3-1.1-3s-0.6,1.4-1.1,4.8
		c-0.4,3.5,0.4,8.3,0.4,8.3s-1.6-4.9-1.5-8.7c0.1-3.4,2.2-5.7,2.2-5.7s0.8,0.8,1.7,2.3c1,1.7,1.1,4.7,0.8,6.6
		C156.5,97,154.9,99,154.9,99z"/>
	<path class="st1" d="M144.5,81.9c-1.9-1-2.1-0.5-4.3-1.9c-2.1-1.5-4-3.2-4-3.2s2.8,2.1,5.3,2.4c2.7,0.3,3.6,1,4.6,1.8
		c1.8,1.5,1.1,3.5,1.1,3.5S146.4,82.9,144.5,81.9z"/>
	<path class="st1" d="M140.4,80.8c1.6,1,2.2,0.6,4.7,2.3c2.5,1.7,1.3,2.4,0,1.9c-2.6-0.9-5.2-2.3-7.5-5c-1.2-1.5-1.7-2.8-1.7-2.8
		S138.9,79.8,140.4,80.8z"/>
	<path class="st1" d="M151.2,122c0.5,0,0.9,0.4,0.9,0.9c0,0.5-0.4,0.9-0.9,0.9v0c-0.5,0-0.9-0.4-0.9-0.9
		C150.3,122.4,150.7,122,151.2,122z"/>
	<circle class="st1" cx="157.2" cy="99.9" r="0.9"/>
	<circle class="st1" cx="148.6" cy="99.5" r="0.9"/>
	<circle class="st1" cx="150.3" cy="82.7" r="0.9"/>
	<circle class="st1" cx="146.4" cy="87.6" r="0.9"/>
	<circle class="st1" cx="147.6" cy="110.9" r="0.9"/>
	<circle class="st1" cx="152" cy="86" r="0.9"/>
	<path class="st1" d="M144.7,131.9c0.5,0,0.9,0.4,0.9,0.9c0,0.5-0.4,0.9-0.9,0.9c-0.5,0-0.9-0.4-0.9-0.9c0-0.1,0-0.2,0.1-0.3
		C144.1,132.2,144.4,131.9,144.7,131.9z"/>
	<circle class="st1" cx="143" cy="120.1" r="0.9"/>
	<path class="st1" d="M135.1,140.7c0.5,0,0.9,0.4,0.9,0.9c0,0.5-0.4,0.9-0.9,0.9l0,0c-0.5,0-0.9-0.4-0.9-0.9
		C134.2,141.1,134.6,140.7,135.1,140.7z"/>
	<circle class="st1" cx="154.8" cy="113.6" r="0.9"/>
	<path class="st0" d="M127.1,105.3c-0.3-4,0-4.7-0.5-8.1c-0.4-2.9-0.4-3.1-2.3-5.6l0.1,0c0,0-1.5-4.5-3.2-5.4
		c-1.3-0.6-1.9-0.8-2.1-0.8c-0.2-0.3-1-1.5-2-2c-0.6-0.3-0.9-0.5-1.1-0.6c-0.2-0.1-0.3-0.2-0.3-0.2c0,0-1.7-1.7-3.4-1.7
		c-0.8,0-1.3-0.1-1.6-0.3c-0.2-0.1-0.3-0.1-0.3-0.2c-0.1,0-0.1-0.1-0.1-0.1c0,0-1.3-1.4-3.7-1.5c-0.1,0-0.1,0-0.2,0
		c-0.7,0-1.3,0.2-1.9,0.4c-0.2-0.1-0.4-0.2-0.6-0.3c-1.6-0.7-2.7-1.3-3-1.5c-0.1-0.3-0.3-1.2-0.8-2.8c-0.8-2.1-1-3-1-3l-0.1-0.6
		l0.2-0.4c0.1-0.1,0.1-0.2,0.2-0.3l0-0.1c1.2-1.8,1.8-3.7,2-6.2c0.1-0.7,0.1-1.4,0.1-2c0-1-0.1-1.6-0.1-1.9c0.2-0.2,0.7-0.9,0.7-1.7
		c0-0.2,0-0.3,0-0.3c0,0,0.1,0,0.2,0c0.2,0,0.4-0.1,0.5-0.4c0.3-0.6,1.4-2.1,1.4-3.2c0-0.1,0-0.2,0-0.2c-0.2-0.9-1-2.1-1.2-2.4
		c0-0.1,0-0.2,0-0.4c0-0.4-0.1-0.9-0.6-1.4c-0.7-0.7-1-1.2-1.1-1.3v-0.1l0,0c-0.1-0.4-0.5-1.7-0.6-2.1c-0.2-0.6-1.1-1.5-2.7-1.5
		c-0.1,0-0.3,0-0.4,0c-1.7,0.2-1.9,0.3-3.4,0.3c-1.5,0-2.1-0.2-3.8-0.7c-0.3-0.1-0.6-0.1-0.8-0.1c-1.3,0-2.2,1-3.7,1.8
		c-0.9,0.5-1.1,0.8-1.1,1.2c0,0.1,0,0.1,0,0.2c-0.3,0-0.5,0.2-0.9,0.5c-1,0.9-2.5,2.7-2.8,3.8c-0.3,1.1-0.3,2.2-0.3,2.5
		c-0.3,0.2-1.5,1.1-1.7,2.8c0,0.3,0,0.5,0,0.8c0,1.1,0.2,1.6,0.2,2.2c0,0.1,0,0.3,0,0.4c-0.1,0.9-0.8,1.3-0.8,2.7
		c0,1.5,1.2,2.6,1.9,3.2c0.7,0.5,1.5,0.7,2.5,2.2c1,1.5,1.5,3,1.5,3l0,0.1h1.2c0.1,0.2,0.3,0.5,0.8,1.6c0.5,1,0.7,1.8,0.7,2.7
		c-0.5,0.4-3.1,2.6-4.7,3.7c-1.8,1.3-3.5,3.1-4,4.2c-0.5,1.2-0.6,2.3-0.6,2.3l0,0c-1.1,0.3-2.3,0.9-3.2,1.8c-1.9,1.9-3.8,6-3.8,12.1
		l-0.7,0.3c-0.2-0.3-0.4-0.7-0.6-1c-1.1-1.3-2.4-1.8-3.5-1.8c-1.1,0-2,0.4-2.5,1.1l0,0c-0.1,0.1-0.1,0.3-0.1,0.4
		c0,0.3,0.2,0.4,0.5,0.5c0.3,0.1,0.6,0.1,1.1,0.1c0.2,0,0.5,0,0.8,0c0.1,0,0.2,0,0.3,0c0.7,0,1.4,0.2,2,1c0.6,0.8,1,2.3,1,5
		c0,0.1,0,0.3,0,0.4c0,3.3-0.4,6.1-0.4,8.7c0,2.3,0.3,4.5,1.3,7c2.2,5.5,6.4,8.4,9.2,9.6c1.4,0.6,2.1,1,2.4,1.3
		c0.2,0.1,0.2,0.2,0.3,0.3c0,0,0,0,0,0h0l0.4,4.4l17.1-5.9l-2.3-3.6c0.1-0.2,0.3-0.6,0.5-1.3c0.2-0.6,0.2-1.2,0.2-1.5
		c0.3,0.1,0.6,0.1,1,0.1c0.6,0,1.2-0.1,1.6-0.1c0.1,0,0.2,0,0.3,0c1.1,0.1,4.2,2,8.1,2.7c0.4,0.1,0.7,0.1,1.1,0.2
		c-0.5,1.6-0.6,3.4-2,4.4c-1.7,1.2-3,3-3,3l0,0l0,0c0,0,0,0,0,0c0,0.1,0,0.2,0.1,0.4c0.1,0.2,0.3,0.3,0.6,0.3c0.3,0,0.6-0.1,1.1-0.4
		c1.1-0.6,1.5-0.9,2-0.9c0.2,0,0.5,0.1,0.8,0.2c0.8,0.3,1.5,1,2.7,1c0.2,0,0.4,0,0.6-0.1c1.1-0.2,2-0.6,2.3-0.8c0.2,0.3,0.9,1,2,1
		c0,0,0,0,0,0c1.3,0,1.5-0.7,2.4-1.2c0.3-0.2,0.7-0.3,1-0.5c0.3-0.2,0.5-0.6,0.5-1.2c0-0.3,0-0.7-0.1-1.2c-0.1-0.8-0.3-2.1-0.5-3.6
		c2-0.1,3.8-0.2,5.4-0.3c0.9,0,1.5-0.4,1.9-1.2c0.4-0.8,0.6-2.1,0.8-4c0.1-0.8,0.1-1.8,0.1-2.9C128.1,115.9,127.3,108.6,127.1,105.3
		z"/>
	<path class="st1" d="M101.5,59c-0.1-0.4-0.4-1-1.8-1.1c0,0-0.1,0-0.1,0c-0.8,0-1.4,0.4-1.7,0.7c-0.2,0.2-0.4,0.3-0.4,0.3L97.5,59
		l0.1,0.1c0.4,0.5,1.1,0.8,2,0.9c0.1,0,0.1,0,0.2,0c0.6,0,1.2-0.2,1.4-0.3c-0.1,0.2-0.2,0.3-0.2,0.3l0,0.1l0,0.1
		c0,0,0.1,0.7,0.1,1.9c0,0.6,0,1.2-0.1,2c-0.3,2.5-0.9,4.3-2,6l0,0c-1,1.7-1.5,1.5-2.8,1.8c-0.3,0.1-0.7,0.1-1,0.1
		c-1,0-2.1-0.3-3.4-0.8c-1.6-0.6-3.2-2.6-4.2-3.9c-0.9-1-1.5-2.3-1.6-2.6c0.1-0.1,0.1-0.2,0.2-0.4c0.4-0.9,0.7-1.6,0.7-2.9
		c0-0.2,0-0.4,0-0.6c-0.1-1-0.2-2-0.2-3c0-0.6,0-1.1,0.2-1.5c0.3-1,1.2-2.1,1.7-2.3c0.6-0.2,1-0.4,1.4-1.1c0.1-0.1,0.2-0.2,0.2-0.3
		c0.1,0,0.2,0,0.3-0.1c0.1,0,0.2,0,0.3,0c0.1,0,0.3,0,0.5,0c0.1,0,0.2,0,0.4,0c0.4,0,0.6,0.1,0.8,0.1c0.2,0,0.5-0.1,0.7-0.5
		c0.1-0.1,0.1-0.2,0.2-0.2l0,0c0.1-0.1,0.1-0.1,0.2-0.2c0.1,0,0.1,0,0.2,0c0.2,0,0.5,0,0.9,0c0.4,0,0.7,0,0.9,0
		c0.3,0,0.6-0.1,0.9-0.3c0.1-0.1,0.3-0.2,0.6-0.2c0.3,0,0.8,0.2,1.2,0.6c0.8,0.8,1.8,1.6,2.5,2c0.5,0.4,0.6,0.5,0.6,1
		c0,0.1,0,0.3,0,0.4c0,0.1,0,0.2,0,0.3c0,0.5,0.1,1.1,0.2,1.6c-0.3-0.2-0.6-0.5-1.2-0.5c-0.2,0-0.3,0-0.4,0c-0.7,0-1,0.2-1.6,0.5
		c-0.6,0.4-0.9,0.8-0.9,0.9c-0.1,0.1-0.3,0.3-0.3,0.6c0,0.1-0.1,0.3-0.1,0.6c0,0.3,0.1,0.8,0.3,1.5c0.3,1.1,0.4,1.7,0.4,2.1
		c0,0.2,0,0.3,0,0.4c0,0.2-0.4,0.5-0.8,0.5c-0.2,0-0.3-0.1-0.5-0.2c-0.3-0.2-0.6-0.2-0.9-0.2c-0.1,0-0.3,0-0.3,0
		c-0.1,0-0.1,0-0.1-0.1c0-0.1,0-0.2,0-0.2c0-0.2,0-0.1,0.2-0.2l-0.1-0.3c-0.3,0-0.5,0.3-0.5,0.5c0,0.1,0,0.2,0,0.3
		c0,0.2,0.1,0.3,0.3,0.4c0.4,0.1,0.9,0,1.1,0.2c0.2,0.2,0.5,0.3,0.7,0.3c0,0,0,0,0,0c0.5,0,1-0.3,1.1-0.8c0-0.1,0-0.3,0-0.5
		c0-0.5-0.1-1.2-0.4-2.2c-0.2-0.8-0.3-1.2-0.3-1.4c0-0.2,0-0.3,0.1-0.5c0-0.1,0.1-0.2,0.1-0.3c0.1-0.1,0.1-0.1,0.1-0.1l0,0l0,0
		c0,0,0-0.1,0.2-0.3c0.1-0.2,0.3-0.4,0.7-0.6c0.6-0.4,0.8-0.5,1.4-0.5c0.1,0,0.3,0,0.4,0c0.5,0,0.8,0.2,1,0.4
		c0.2,0.2,0.3,0.4,0.3,0.4l0,0c0,0.1,0,0.2,0,0.2C101.6,58.6,101.6,58.8,101.5,59z"/>
	<path class="st1" d="M100.3,58.6c0.2,0.1,0.4,0.2,0.6,0.4c0.1,0.1,0.2,0.2,0.2,0.3c-0.2,0.1-0.5,0.2-0.8,0.3
		c0.1-0.1,0.2-0.3,0.2-0.5C100.4,58.9,100.4,58.8,100.3,58.6z"/>
	<path class="st1" d="M100.3,58.3c0.6,0.1,0.7,0.4,0.8,0.6C101,58.6,100.7,58.4,100.3,58.3z"/>
	<path class="st1" d="M99.1,59.6c-0.5-0.1-0.9-0.3-1.2-0.5c0,0,0.1-0.1,0.2-0.2c0.2-0.1,0.5-0.2,1-0.3c-0.1,0.1-0.2,0.3-0.2,0.5
		C98.9,59.3,99,59.4,99.1,59.6z"/>
	<path class="st1" d="M102.2,50.2c0.4,0.4,0.5,0.9,0.5,1.1c0,0.1,0,0.2,0,0.2c-0.2-0.2-0.5-0.2-0.7-0.2c-0.7,0-1.2,0.5-1.8,0.6
		c-0.1,0-0.2,0-0.3,0c-0.3,0-0.2-0.1-0.3-0.2c0,0,0,0,0,0l-0.3-0.1h0c0,0,0,0,0,0.1c0,0.1,0,0.2,0.1,0.3c0.1,0.1,0.3,0.2,0.5,0.2
		c0,0,0,0,0,0c0.1,0,0.3,0,0.4-0.1c0.7-0.2,1.3-0.6,1.7-0.6c0.2,0,0.3,0,0.5,0.2l0.2-0.2c0,0,0,0.1,0,0.1l0,0.1l0.1,0.1
		c0,0,0.2,0.3,0.5,0.8c0.3,0.5,0.6,1,0.6,1.5c0,0.1,0,0.1,0,0.2c0,0.2,0,0.4-0.1,0.6c0-0.4-0.2-0.8-0.5-1.2
		c-0.2-0.3-0.5-0.3-0.7-0.3c-0.4,0-0.7,0.2-0.7,0.2l0.2,0.3c0,0,0.1,0,0.2-0.1c0.1,0,0.2-0.1,0.4-0.1c0.2,0,0.3,0,0.5,0.2
		c0.2,0.2,0.3,0.6,0.4,0.9c0.1,0.3,0.1,0.5,0.1,0.5h0.1c-0.3,0.8-0.8,1.6-1.1,2c-0.2,0.3-0.2,0.2-0.4,0.3c-0.1,0-0.1,0-0.2,0.1
		c-0.1-0.5-0.2-1.4-0.2-1.9c0-0.1,0-0.2,0-0.3c0-0.2,0-0.3,0-0.5c0-0.5-0.2-0.9-0.8-1.3c-0.7-0.4-1.7-1.2-2.4-2c0,0-0.1-0.1-0.1-0.1
		c0,0,0.1,0,0.1,0c0.3,0,0.6-0.1,0.7-0.3c0.1-0.2,0.1-0.4,0.1-0.7c0-0.3,0.1-0.3,0.2-0.4c0.2-0.1,0.5-0.1,0.9-0.2
		c0.5-0.2,0.8-0.6,0.8-0.9C101.4,49.4,101.7,49.7,102.2,50.2z"/>
	<path class="st1" d="M100.3,49.8c-0.4,0.1-0.7,0.1-0.9,0.2c-0.3,0.1-0.4,0.3-0.4,0.7c0,0.3,0,0.5-0.1,0.5c-0.1,0.1-0.1,0.1-0.4,0.1
		c-0.1,0-0.3,0-0.5-0.1l0,0.1c-0.3-0.2-0.6-0.3-0.9-0.3c-0.3,0-0.6,0.1-0.8,0.2c-0.3,0.2-0.4,0.2-0.7,0.2c-0.2,0-0.5,0-0.9,0
		c-0.4,0-0.7,0-0.9,0c0,0-0.1,0-0.1,0c0-0.1,0-0.2,0-0.3c0-0.4-0.2-0.9-0.6-1.4c-0.3-0.3-0.5-0.5-0.7-0.6c0.4-0.2,0.7-0.5,1.4-0.8
		c0.6-0.3,0.8-0.3,1-0.3c0.3,0,0.6,0.1,1.3,0.1c1.2,0,1.8,0,3.1,0.3c0.9,0.2,1.5,0.3,1.8,0.4C100.9,49.1,100.8,49.6,100.3,49.8z"/>
	<path class="st1" d="M86,46.7c1.6-0.9,2.4-1.8,3.5-1.8c0.2,0,0.5,0,0.7,0.1c1.7,0.5,2.4,0.7,3.9,0.7c1.5,0,1.7-0.2,3.4-0.3
		c0.1,0,0.2,0,0.4,0c0.1,0,0.2,0,0.4,0c-0.5,0.1-1.3,0.4-1.8,0.8c-0.2,0.2-0.3,0.2-0.4,0.2c-0.2,0-0.3-0.3-0.3-0.3l-0.3,0.1h0
		c0,0,0.1,0.6,0.7,0.6c0.2,0,0.4-0.1,0.6-0.3c0.4-0.3,0.9-0.5,1.4-0.7c0.5-0.1,0.8-0.2,0.8-0.2l0-0.1c0.8,0.3,1.3,0.8,1.4,1.1
		c0.1,0.4,0.4,1.4,0.6,1.9c-0.3,0-0.8-0.1-1.6-0.4c-1.4-0.3-2-0.3-3.2-0.3c-0.7,0-0.9-0.1-1.3-0.1c-0.3,0-0.6,0.1-1.2,0.3
		c-0.8,0.4-1.2,0.7-1.6,0.8c-0.1,0-0.1-0.1-0.1-0.1L91.9,49c-0.2,0.1-0.3,0.1-0.6,0.1c-0.4,0-0.6,0-0.9,0.1
		c-0.2,0.1-0.4,0.3-1.1,0.5c-0.7,0.3-1.1,0.6-1.4,0.7c-0.3,0.2-0.5,0.3-0.8,0.3c-0.4,0-0.8,0.2-1.1,0.4c0.2-0.5,0.2-1.2,0.4-1.8
		c0.1-0.5,0.2-0.6,0.4-0.8c0.1-0.1,0.3-0.2,0.5-0.5c0.1-0.1,0.2-0.1,0.3-0.2l0,0c0.1-0.1,0.2-0.2,0.3-0.3c0.5-0.6,1.2-0.8,1.7-0.8
		c0.3,0,0.5,0,0.5,0l0.1-0.3h0c0,0-0.2-0.1-0.5-0.1c-0.5,0-1.4,0.1-2,0.9c-0.2,0.2-0.3,0.4-0.4,0.5c-0.2,0.1-0.6,0.2-0.9,0.2
		c-0.2,0-0.3,0-0.5,0c-0.3,0-0.5-0.1-0.6-0.1c0-0.2-0.1-0.2-0.1-0.3C85.1,47.4,85.2,47.2,86,46.7z"/>
	<path class="st1" d="M82.6,67.9c-0.4-0.3-0.8-0.7-0.8-0.7l-0.1,0.1c-0.5-0.4-1-0.6-1.4-0.9c-0.7-0.5-1.8-1.7-1.8-2.9
		c0-1.3,0.6-1.6,0.8-2.7c0-0.1,0-0.2,0-0.2c0.1,0.2,0.3,0.4,0.5,0.6c0.4,0.3,0.8,0.5,1.1,0.5c0.2,0,0.3-0.1,0.5-0.2
		c0,0.3,0.2,0.7,0.5,0.9c0.3,0.2,0.5,0.2,0.7,0.2c0,0,0,0,0,0c0.3,0,0.5-0.2,0.7-0.4L83.3,62c-0.2,0.2-0.3,0.3-0.5,0.3
		c-0.1,0-0.3,0-0.5-0.2c-0.1-0.1-0.3-0.4-0.3-0.6c0-0.1,0-0.3-0.1-0.4c0-0.1,0-0.1,0-0.1c0,0,0-0.1-0.2-0.2c-0.2,0-0.2,0.1-0.2,0.1
		c0,0,0,0.1-0.1,0.2c-0.1,0.3-0.2,0.3-0.3,0.3c-0.2,0-0.5-0.2-0.9-0.5c-0.4-0.3-0.5-0.6-0.6-0.9c-0.1-0.3-0.1-0.6-0.1-0.6l-0.1,0
		c-0.1-0.4-0.1-0.7-0.1-1.3c0-0.2,0-0.5,0-0.7c0.1-0.9,0.5-1.5,0.9-1.9c0.2-0.2,0.4-0.4,0.5-0.5c0.1-0.1,0.2-0.1,0.2-0.1l0.1,0v-0.1
		c0,0,0-1.2,0.3-2.5c0.1-0.6,0.9-1.7,1.6-2.5c0.4-0.4,0.8-0.8,1.1-1.1c0.3-0.3,0.6-0.4,0.7-0.4c0.1,0,0.4,0.1,1,0.2
		c0.2,0,0.4,0,0.6,0c0.1,0,0.3,0,0.4,0c0,0,0,0,0,0c-0.2,0.2-0.4,0.5-0.5,1c-0.2,0.9-0.3,2-0.6,2.3c0,0-0.1,0.1-0.1,0.1
		c-0.5,0.4-1.3,1.5-1.8,1.4c-0.3,0-0.6-0.1-0.9-0.1c-0.3,0-0.6,0.2-0.9,0.7c-0.3,0.5-0.5,1.2-0.5,1.6c0,0.1,0,0.3,0.1,0.4
		c0.1,0.1,0.2,0.2,0.4,0.2c0,0,0,0,0,0c0.1,0,0.2,0,0.3-0.1c0.9-0.3,1.7-0.7,2-0.7c0.1,0,0.1,0,0.1,0l0.2-0.3
		c-0.1-0.1-0.2-0.1-0.3-0.1c-0.5,0-1.3,0.5-2.1,0.7c-0.1,0-0.2,0-0.2,0c-0.1,0-0.1,0-0.2-0.2c0-0.4,0.2-1,0.5-1.5
		c0.2-0.4,0.4-0.5,0.6-0.5c0.2,0,0.5,0.1,0.9,0.1c0.8,0,1.6-1.2,2-1.5c0,0,0,0,0,0l0,0c0,0,0.2-0.2,0.5-0.4c0.3-0.2,0.7-0.4,1-0.4
		c0.4,0,0.7-0.1,1-0.3c0.3-0.2,0.6-0.4,1.3-0.7c0.7-0.3,1-0.5,1.1-0.6c0.2-0.1,0.3-0.1,0.7-0.1c0.3,0,0.5,0,0.7-0.1
		c0.1,0.1,0.4,0.3,0.8,0.7c0.4,0.4,0.5,0.8,0.5,1.1c0,0.2,0,0.3-0.1,0.5c-0.2,0.1-0.3,0.2-0.4,0.5c-0.2,0.3-0.3,0.3-0.4,0.3
		c-0.1,0-0.4-0.1-0.8-0.1c-0.1,0-0.2,0-0.4,0c-0.1,0-0.1,0-0.2,0c0.2-0.1,0.3-0.3,0.4-0.6c0.1-0.2,0.1-0.4,0.1-0.5
		c0-0.3-0.1-0.5-0.1-0.5c0-0.1,0-0.1,0.4-0.2l-0.1-0.3c-0.4,0.1-0.7,0.3-0.7,0.5c0,0.2,0.1,0.3,0.1,0.5c0,0.1,0,0.2-0.1,0.4
		c-0.1,0.3-0.4,0.5-0.7,0.7c0,0-0.1,0-0.1,0c0,0,0,0-0.1,0c-0.3,0-0.5,0.1-0.7,0.5c-0.2,0.3-0.4,0.5-0.6,0.7
		c0.1-0.1,0.2-0.2,0.2-0.4c0.1-0.2,0.1-0.3,0.1-0.5c0-0.1-0.1-0.2-0.1-0.2c-0.2-0.1-0.2,0-0.3-0.3l-0.3,0.1c0.1,0.3,0.3,0.4,0.4,0.5
		c0,0,0,0,0.1,0c0,0,0,0.1-0.1,0.3c-0.3,0.7-1.1,0.7-1.7,0.8c0,0-0.1,0-0.1,0c-0.2,0-0.3-0.1-0.4-0.3c-0.1-0.2-0.2-0.3-0.2-0.3
		l-0.3,0.1c0,0,0.3,0.8,0.9,0.8c0,0,0.1,0,0.1,0c0.2,0,0.4-0.1,0.7-0.1c-0.6,0.4-1.3,1.4-1.6,2.3c-0.1,0.2-0.1,0.5-0.2,0.8l0,0
		c0,0-0.3,0.5-1,1.2c-0.4,0.4-0.8,0.4-1.1,0.4c-0.2,0-0.3,0-0.3,0L83.8,59c0,0,0.2,0,0.4,0c0,0,0,0,0,0c0.2,0,0.4,0,0.7-0.1
		c-0.2,0.4-0.5,0.8-0.8,1.2c-0.1,0.2-0.2,0.2-0.4,0.2c-0.4,0-1-0.5-1.5-0.9c-0.2-0.2-0.3-0.3-0.3-0.4c0-0.1,0.1-0.2,0.1-0.3
		c0.1-0.1,0.1-0.1,0.1-0.1l-0.2-0.3v0c0,0-0.3,0.2-0.4,0.6c-0.1-0.1-0.1-0.2-0.1-0.2c0-0.2,0.3-0.7,0.9-1.4c0.5-0.8,1.1-0.8,1.4-0.8
		c0.1,0,0.2,0,0.2,0l0.1-0.3c0,0-0.1,0-0.3,0c-0.4,0-1.1,0.1-1.7,1c-0.5,0.7-0.9,1.2-0.9,1.6c0,0.2,0.2,0.5,0.4,0.6l0-0.1
		c0,0.2,0.2,0.4,0.4,0.5c0.5,0.3,1,0.8,1.5,0.9c0,0.2,0,1.2,0.6,1.5c0.3,0.2,0.6,0.4,0.9,0.4c0,0,0,0,0,0c0.3,0,0.5-0.2,0.7-0.6
		l-0.3-0.1c-0.1,0.4-0.3,0.4-0.3,0.4c-0.1,0-0.4-0.2-0.8-0.4c-0.2-0.1-0.4-0.4-0.4-0.7c0-0.2-0.1-0.4-0.1-0.5c0.2,0,0.4-0.1,0.5-0.3
		c0.5-0.6,1.2-1.7,1.2-1.8c0.3-0.3,0.6-0.6,0.8-0.8c0,0.1,0,0.2,0,0.3c0,0.9,0.1,2,0.2,3c0,0.2,0,0.4,0,0.6c0,1.2-0.3,1.8-0.7,2.7
		c-0.1,0.2-0.1,0.3-0.2,0.4C85.4,64.5,85,64,84.4,64c-0.1,0-0.2,0-0.4,0.1c-0.1,0-0.2,0-0.2,0c-0.1,0-0.2-0.1-0.3-0.2
		c-0.1-0.2-0.1-0.4-0.1-0.5c0-0.1,0-0.1,0-0.1l-0.3,0c0,0,0,0.1,0,0.2c0,0.2,0,0.4,0.1,0.6c0.1,0.2,0.3,0.5,0.6,0.5
		c0.1,0,0.2,0,0.3-0.1c0.1,0,0.2,0,0.3,0c0.2,0,0.4,0.1,0.6,0.3c0.1,0.1,0.2,0.2,0.4,0.3c-0.2,0.4-0.4,0.7-0.7,1.2
		c-0.2,0.1-0.5,0.3-0.8,1c-0.2,0.3-0.3,0.4-0.3,0.4c0,0-0.1,0-0.2-0.2c-0.1-0.2-0.1-0.4-0.1-0.7c0-0.7,0.4-0.9,0.4-1.4
		c0-0.2-0.1-0.4-0.3-0.6c-0.2-0.2-0.4-0.4-0.7-0.4c-0.4,0-0.6,0.4-1.2,1c-0.2,0.2-0.3,0.2-0.5,0.2c-0.2,0-0.5-0.1-0.6-0.3
		c-0.2-0.2-0.3-0.4-0.3-0.7c0,0,0,0,0,0c0-0.5,0.2-0.9,0.4-1.1c0.1-0.1,0.2-0.2,0.2-0.3c0.1-0.1,0.1-0.1,0.1-0.1l-0.2-0.3
		c0,0-0.7,0.5-0.8,1.7c0,0,0,0,0,0.1c0,0.7,0.6,1.3,1.3,1.3c0.3,0,0.5-0.1,0.7-0.3c0.6-0.6,0.8-0.9,0.9-0.9c0,0,0.2,0.1,0.4,0.3
		c0.2,0.2,0.2,0.3,0.2,0.4c0,0.2-0.4,0.6-0.4,1.4c0,0.3,0,0.6,0.1,0.8c0.1,0.2,0.2,0.4,0.5,0.4c0.3,0,0.5-0.2,0.6-0.6
		c0.1-0.1,0.1-0.3,0.2-0.4c0,0.1-0.1,0.4-0.2,0.6c-0.1,0.4-0.3,0.9-0.4,1.1c0,0,0,0,0,0C83.6,68.5,83,68.2,82.6,67.9z"/>
	<path class="st1" d="M84.5,66.7C84.5,66.7,84.5,66.7,84.5,66.7L84.5,66.7C84.5,66.7,84.5,66.7,84.5,66.7z"/>
	<path class="st1" d="M85.5,71.5h-0.9c-0.1-0.4-0.6-1.7-1.5-3c0,0,0,0,0,0c0.3,0.2,0.5,0.3,0.7,0.3c0,0,0,0,0,0c0.1,0,0.2,0,0.3-0.1
		c0.2-0.3,0.4-0.7,0.5-1.2c0.1,0.7,0.4,1.5,0.7,2.3c0.2,0.7,0.3,1.2,0.3,1.4C85.5,71.4,85.5,71.5,85.5,71.5z"/>
	<path class="st1" d="M85,83.6c0.1-0.2,0.2-0.3,0.3-0.5c0.6-1.2,1.6-3.1,2-3.8c0.1,0.7,0.1,1.3,0.1,1.8h0.3c0-1.4-0.3-4-0.4-5.1
		l0-0.2l0,0c0-0.2,0-0.4,0-0.4l0,0c-0.1-0.7-0.3-1.4-0.7-2.3c-0.6-1.1-0.8-1.5-0.8-1.6c0-0.1,0-0.2,0-0.4c0-0.3-0.1-0.8-0.3-1.5
		c-0.3-1.1-0.7-2.1-0.7-2.8c0-0.3,0-0.5,0.1-0.6c0.3-0.5,0.5-0.8,0.8-1.3c0.3,0.5,0.8,1.5,1.6,2.4c1,1.2,2.6,3.3,4.3,4
		c1.2,0.5,2.4,0.8,3.5,0.8c0.4,0,0.8,0,1.1-0.1c0.9-0.2,1.6-0.2,2.3-1l0,0l0,0c0,0.1-0.1,1.7-3.1,4.9c-2.3,2.4-4.9,4.4-4.9,4.4
		l0.2,0.3c0,0,2.7-2,5-4.4c2-2.2,2.8-3.6,3.1-4.4c0.1,0.5,0.4,1.3,0.9,2.7c0.7,1.8,0.8,2.8,0.8,2.8l0,0.1l0.1,0c0,0,1.2,0.7,3,1.5
		c0.1,0,0.2,0.1,0.3,0.1c-1.4,0.6-3.1,1.6-6,2.5c-4.4,1.3-10.3,2.1-12.2,2.1c-0.1,0-0.2,0-0.3,0c-0.1,0-0.1,0-0.2,0c0,0-0.1,0-0.1,0
		C85,83.8,85,83.7,85,83.6z"/>
	<path class="st1" d="M91.9,96.8c1.3,2.9,4.8,9.8,9.7,14.4c6.1,5.6,10.9,8.5,12.3,9.3c-0.8,0.1-1.8,0.1-2.8,0.1
		c-2.7,0-5.7-0.3-6.6-0.5c-1.3-0.3-2.1-2.4-3.2-4c-1-1.5-2.1-2.1-3.5-2.4c-0.1-0.6-0.3-1.3-0.6-1.9c-2.6-5.8-5.3-8-9.2-12.7
		c-2-2.4-2.7-4-2.7-5C87.1,95.4,89.4,96.5,91.9,96.8L91.9,96.8z"/>
	<path class="st1" d="M74.8,88.5c2.2-2.2,6.4-2.2,6.4-2.2h0l0,0c0,0,0.1,0,0.2,0c0,0.3,0,0.7,0,1.1c0,1.4,0.2,3.2,0.9,4.1
		c0.3,0.4,0.8,0.8,1.3,1.3c-0.1,0.5-0.2,1-0.2,1.6c0,0,0,0,0,0c0,0.3,0,0.5,0.1,0.8l-7.7,3.2c0-0.1,0-0.3-0.1-0.4c0-0.1,0-0.3,0-0.4
		c0-2.3,1.6-6.8,1.6-6.8L77,90.5c0,0-1.6,4.5-1.7,6.9c0,0.2,0,0.3,0,0.5c0,0.2,0,0.3,0.1,0.5l-4.4,1.8C71.1,94.3,73,90.4,74.8,88.5z
		"/>
	<path class="st1" d="M78,103.9c0,0-0.5-0.7-1-1.7c-0.4-0.9-0.9-2.1-1.2-3.5l0.8-0.3l2.6,6.9c-0.2-0.1-0.5-0.3-0.6-0.4
		c-0.3-0.3-0.5-0.5-0.6-0.7C78,104,78,104,78,103.9L78,103.9L78,103.9z"/>
	<path class="st1" d="M73.8,99.5l3.8,9.6c0.1,2.6,1.3,6.8,1.8,10.3l-7.6-19.1L73.8,99.5z"/>
	<path class="st1" d="M74.1,99.3l1.4-0.6c0.5,2.4,1.6,4.4,2,5.1c0,0,0,0.1,0.1,0.3c0,0.2,0,0.5,0,1c0,0.7,0,1.7,0,3L74.1,99.3z"/>
	<path class="st1" d="M76.9,98.2l2.6-1.1l3.1,8.8c0,0-0.1,0-0.1,0c-0.1,0-0.1,0-0.2,0c-1.2,0-2-0.2-2.6-0.5L76.9,98.2z"/>
	<path class="st1" d="M79.8,97l2.5-1l3.2,9.5c-0.7,0.2-1.6,0.4-2.6,0.4L79.8,97z"/>
	<path class="st1" d="M69.8,100.9l0.1,0.2L69.8,100.9z"/>
	<path class="st1" d="M73,124c-1.5-2.7-2.8-6.4-2.8-10.3c0-0.3,0-0.6,0-1c0.2-3.3,0.5-5.9,0.5-8c0-1.5-0.2-2.7-0.6-3.8l0.6-0.2
		c0,1.1,0.1,2.3,0.2,3.5c0.9,8.1,2.3,12.4,2.2,14.2C73.2,119.4,73.1,122,73,124z"/>
	<path class="st1" d="M79.8,122.9c-0.1,4.1-0.2,4.4-0.2,6.9c-1.5-0.5-3.4-1.5-4.6-2.9c-0.5-0.6-1.1-1.4-1.7-2.4c0.1-2,0.2-5,0.2-6.2
		c0-1.9-1.4-6.1-2.2-14.2c-0.1-1.2-0.2-2.4-0.2-3.6c0,0,0,0,0,0l0.5-0.2l8.2,20.4c0.1,0.6,0.1,1.2,0.1,1.8
		C79.8,122.7,79.8,122.8,79.8,122.9z"/>
	<path class="st1" d="M81.9,130.3C81.9,130.3,81.9,130.3,81.9,130.3c-0.4,0-1.1-0.1-2-0.4c0.1-2.6,0.1-2.9,0.2-7c0-0.1,0-0.2,0-0.3
		c0-0.2,0-0.5,0-0.7l3,7.5c0,0.1-0.1,0.3-0.3,0.4C82.6,130,82.3,130.3,81.9,130.3z"/>
	<path class="st1" d="M83.3,129.3l0.2-0.1L83.3,129.3z"/>
	<path class="st1" d="M84.5,129.1c-0.3,0.1-0.5,0.1-0.7,0.1c-0.2,0-0.3,0-0.4,0c0,0,0,0,0,0l-3.4-8.5c-0.4-3.4-1.6-7.7-2-10.6
		l7.3,18.3c0,0.1,0,0.2-0.1,0.3C85.2,128.8,85,129.1,84.5,129.1z"/>
	<path class="st1" d="M86.8,128.4c-0.2,0.1-0.4,0.1-0.5,0.1c-0.2,0-0.4-0.1-0.5-0.1c0,0-0.1-0.1-0.1-0.1c0,0,0,0,0,0l0,0L78,109
		c0,0,0-0.1,0-0.1c0-2.1,0-3.5,0-4.2c0.3,0.3,0.7,0.7,1.4,1.1l8.3,21.9c0,0,0,0,0,0C87.6,127.8,87.5,128.1,86.8,128.4z"/>
	<path class="st1" d="M89.4,127.5c-0.3,0.1-0.5,0.2-0.7,0.2c-0.2,0-0.4-0.1-0.5-0.1c-0.1,0-0.1-0.1-0.1-0.1c0,0,0,0,0,0l-8.2-21.7
		c0.6,0.2,1.4,0.4,2.5,0.4c0,0,0,0,0,0c0.1,0,0.1,0,0.2,0c0.1,0,0.2,0,0.2,0l7.3,20.5C90,126.9,89.9,127.3,89.4,127.5z"/>
	<path class="st1" d="M91.7,126.9c-0.2,0.1-0.3,0.1-0.5,0.1c-0.3,0-0.5-0.1-0.7-0.2c-0.1-0.1-0.1-0.1-0.2-0.1c0,0,0-0.1,0-0.1l0,0
		l-7.2-20.4c1-0.1,1.9-0.2,2.6-0.5l6.8,20.1l0,0c0,0,0,0,0,0.1C92.5,126.2,92.5,126.7,91.7,126.9z"/>
	<path class="st1" d="M94.7,125.2c-0.4,0.5-1,0.6-1.4,0.6c-0.2,0-0.4,0-0.5-0.1L86,105.6c1.7-0.6,2.4-1.4,2.4-1.4l-0.3-0.2
		c0,0-0.1,0.1-0.3,0.3c-0.3,0.3-1,0.7-2,1.1l-3.2-9.5l0.8-0.3c0.6,2.8,3.4,5.2,7.4,9.6c2.5,2.7,3.7,6,4.5,9c-0.1,0-0.3,0-0.4,0
		c-0.3,0-0.6,0.1-1,0.2c-0.6,0.2-0.7,0.6-0.7,1c0,0.3,0.1,0.6,0.2,0.7c-0.2,0.1-0.5,0.5-0.8,1.1c-0.1,0.2-0.1,0.4-0.1,0.5
		c0,0.4,0.3,0.6,0.5,0.7c-0.1,0.2-0.3,0.6-0.4,1.1c0,0,0,0.1,0,0.1c0,0.7,0.7,1.1,1,1.3c-0.1,0.2-0.1,0.4-0.1,0.7c0,0.1,0,0.2,0,0.3
		c0.1,0.5,0.9,1.2,1.7,1.9c0,0.1,0,0.2,0,0.3C95.1,124.4,95,124.9,94.7,125.2z"/>
	<path class="st1" d="M111.9,124.9c-1.4,1.6-1.4,1.3-2.1,3c0,0.1-0.1,0.2-0.1,0.3c-0.4-0.1-0.8-0.1-1.2-0.2
		c-3.8-0.7-6.8-2.6-8.1-2.7c-0.1,0-0.2,0-0.4,0c-0.5,0-1.1,0.1-1.6,0.1c-0.4,0-0.8,0-1-0.1v0l-0.1,0c-0.3-0.2-1.2-0.8-2-1.5
		c-0.1-0.1-0.1-0.1-0.1-0.1l0,0c-0.8-0.7-1.6-1.4-1.6-1.8c0-0.1,0-0.2,0-0.3c0-0.3,0.1-0.5,0.2-0.6c0.1,0,0.3,0.1,0.8,0.3
		c0.8,0.3,1.6,0.8,1.6,0.8l0.2-0.3c0,0-0.8-0.5-1.6-0.8c-0.6-0.3-0.9-0.3-1-0.3c0,0,0,0-0.1,0c-0.1,0-0.3-0.1-0.4-0.3
		c-0.3-0.2-0.5-0.4-0.5-0.7c0,0,0-0.1,0-0.1c0-0.4,0.2-0.7,0.3-0.9c0.1-0.1,0.1-0.2,0.1-0.2c0.1,0,0.2,0,0.3,0.1
		c0.3,0.1,0.7,0.2,1.3,0.5c1.4,0.7,1.9,1.1,1.9,1.1l0.2-0.3c0,0-0.5-0.4-1.9-1.1c-1.1-0.6-1.7-0.6-1.9-0.6c0,0-0.1,0-0.2-0.1
		c-0.1-0.1-0.2-0.2-0.2-0.4c0-0.1,0-0.2,0.1-0.4c0.2-0.4,0.4-0.7,0.6-0.8c0.1-0.1,0.1-0.1,0.2-0.2c0,0,0,0,0,0
		c0.2,0,1.2,0.2,1.9,0.7c0.9,0.5,2,1.6,2,1.6l0.2-0.2c0,0-1.1-1.1-2.1-1.6c-0.8-0.5-1.7-0.7-2-0.7c0,0,0-0.1-0.1-0.1
		c0-0.1-0.1-0.3-0.1-0.5c0-0.3,0.1-0.5,0.5-0.7c0.4-0.1,0.6-0.2,0.9-0.2c0.5,0,0.9,0.2,1.9,0.5c0,0,0.1,0,0.1,0l0.2,0.1
		c0,0,0.8,0.4,1.3,0.8l0.2-0.3c-0.2-0.1-0.4-0.3-0.6-0.4l0,0c0,0,0-0.4-0.1-0.9c1.2,0.3,2.2,0.9,3.1,2.2c1.1,1.5,1.8,3.7,3.4,4.1
		c1,0.2,4,0.5,6.7,0.5c1.1,0,2.1,0,2.9-0.1C113.3,122.5,112.6,124,111.9,124.9z"/>
	<path class="st1" d="M114.3,120.3c-0.5-0.3-1.7-0.9-3.4-2.1c-2.3-1.5-5.5-3.9-9.1-7.3c-3.1-2.9-5.7-6.8-7.5-10
		c-0.9-1.7-1.6-3.1-2.1-4.1c0.7,0.1,1.5,0.1,2.3,0.2c0.6,1.9,2.5,6.2,7.3,11.4c6.1,6.5,12.5,9.8,13.2,10.1
		C114.8,119.1,114.5,119.7,114.3,120.3z"/>
	<path class="st1" d="M127.6,123.5c-0.3,1.9-0.5,3.2-0.8,3.9c-0.3,0.7-0.8,1-1.6,1c-1.5,0.1-3.3,0.2-5.4,0.3
		c-0.2-1.8-0.3-3.7-0.3-5.3c0-0.8,0-1.5,0.1-2c0.1-0.8,0.3-1.5,0.5-2.2c0.2-0.1,0.3-0.2,0.3-0.2l-0.2-0.3c0,0,0,0-0.1,0
		c0.1-0.4,0.1-0.8,0.1-1.3c0-0.9-0.1-1.9-0.5-3c-0.5-1.5-0.9-2.2-1.2-2.6c-0.3-0.4-0.5-0.5-0.8-0.7c-0.5-4.7-1.4-7.2-1.5-9.5
		c-0.2-2-0.5-3.8-0.7-4.9c-0.1-0.7-0.3-1.1-0.3-1.1l-0.3,0.1c0,0,0.1,0.4,0.3,1.1c0,0.2,0.1,0.5,0.1,0.8c0,1-0.3,2.3-1.4,3.5
		c-2.1,2.2-3.7,3-6.4,3c-0.3,0-0.7,0-1.1,0c-2.4-0.2-3.9-0.9-4.9-1.7c-0.5-0.4-0.8-0.7-1-1c-0.2-0.3-0.3-0.4-0.3-0.4l-0.3,0.2
		c0,0,1.5,2.9,6.4,3.2c0.4,0,0.8,0,1.1,0c2.8,0,4.6-0.9,6.7-3.1c0.9-0.9,1.3-2,1.4-2.9c0.2,0.9,0.3,2,0.4,3.2c0.2,2.4,1,4.9,1.6,9.6
		c-0.1,0.3-0.7,4-1.7,5.8c-0.2,0.3-0.3,0.6-0.5,1c-0.3-0.2-1.9-1-4.1-2.4c-2.5-1.7-5.8-4.2-9-7.6c-3.2-3.4-5.1-6.5-6.2-8.7
		c-0.5-1-0.8-1.8-1-2.4c0.3,0,0.6,0,0.9,0c0,0,0,0,0,0c4.5,0,10.4-1,16.3-4.8c5.1-3.3,6.3-4.3,6.9-4.2c0.3,0,0.6,0.3,1.4,0.6
		c1,0.5,2,1.2,2.6,1.9c0.1,0.1,0.1,0.1,0.2,0.2c2.7,3.5,2.5,3.2,3,6.5c0.5,3.4,0.2,4,0.5,8.1c0.3,3.3,1,10.6,1,15.3
		C127.7,121.8,127.7,122.8,127.6,123.5z"/>
	<polygon class="st0" points="102,53.9 102,53.9 102,53.9 	"/>
	<path class="st0" d="M93,47.5c0.6-0.3,1.3-0.8,1.3-0.8l-0.2-0.3c0,0-0.8,0.5-1.4,0.8c-0.5,0.3-0.8,0.9-1.2,0.8
		c-0.1,0-0.2,0-0.3-0.1l-0.1,0.3c0.2,0.1,0.3,0.1,0.4,0.1C92.3,48.3,92.6,47.7,93,47.5z"/>
	<path class="st0" d="M98.3,49.1c-0.3,0-0.4,0.2-0.8,0.5c-0.5,0.5-1,0.6-1.6,0.6c-0.3,0-0.5,0-0.9-0.1c-0.7-0.1-0.7-0.4-0.8-0.6
		c0-0.1,0-0.1,0-0.1L94,49.4v0c0,0,0,0.1,0,0.2c0,0.3,0.2,0.8,1.1,0.9c0.3,0,0.6,0.1,0.9,0.1c0,0,0,0,0,0c0.7,0,1.2-0.2,1.8-0.7
		c0.4-0.3,0.6-0.5,0.6-0.5c0,0,0.2,0.1,0.5,0.5l0.2-0.2C98.7,49.4,98.6,49.2,98.3,49.1z"/>
	<polygon class="st0" points="86.2,53.4 86.2,53.4 86.2,53.4 	"/>
	<path class="st0" d="M97.6,65.6c-0.5,0.1-0.6,0.1-1,0.1c-0.2,0-0.2,0-0.3,0c-0.1,0-0.2-0.1-0.5-0.1c0,0,0,0,0,0
		c-0.5,0-1,0.4-1.8,0.5l0.1,0.3c0,0,0,0,0,0c0.2,0.2,0.9,0.8,2.5,0.8c0.1,0,0.1,0,0.2,0c0,0,0,0,0,0c1.7,0,2.2-0.6,2.3-0.8
		c0,0,0,0,0,0l0.2-0.3h0C99.2,66.2,98.3,65.6,97.6,65.6C97.6,65.6,97.6,65.6,97.6,65.6z"/>
	<path class="st1" d="M96.7,66.9c-0.1,0-0.1,0-0.2,0c-0.9,0-1.4-0.2-1.8-0.4c0,0,0,0,0,0c0.5,0,1.2,0.1,1.9,0.1
		c0.7,0,1.4-0.1,1.9-0.1C98.2,66.7,97.6,66.9,96.7,66.9z"/>
	<path class="st1" d="M96.6,66.3c-0.6,0-1.2,0-1.6-0.1c0,0-0.1,0-0.1,0c0.4-0.1,0.7-0.3,0.9-0.3c0,0,0,0,0,0c0.3,0,0.4,0,0.5,0.1
		c0.1,0,0.2,0.1,0.4,0.1c0.4,0,0.5,0,1-0.1c0,0,0,0,0.1,0c0.2,0,0.6,0.1,0.9,0.2C98.1,66.2,97.3,66.3,96.6,66.3z"/>
	<path class="st0" d="M93,57.2c0.4,0,0.9,0.3,1.3,0.6c0.4,0.3,0.7,0.6,0.7,0.6l0.2-0.2h0c0,0-1.1-1.2-2.2-1.3
		c-0.9,0-1.6,0.1-2.7,0.6c-1.1,0.5-1.6,1.2-1.6,1.3l0.3,0.2c0,0,0.1-0.2,0.4-0.4c0.2-0.2,0.6-0.5,1.1-0.7
		C91.6,57.3,92.2,57.2,93,57.2z"/>
	<path class="st0" d="M94.5,59.1l0.1-0.1c0,0-0.5-0.8-1.5-1c-0.3-0.1-0.6-0.1-0.8-0.1c-0.4,0-0.7,0.1-1.1,0.4
		c-0.2,0.1-0.4,0.3-0.6,0.4c-0.3,0.1-0.4,0.3-0.4,0.4C90,59.2,90,59.3,90,59.3l0.3,0.2c0,0,0,0,0,0c0.3,0.2,1.1,0.7,2.2,0.7
		c0,0,0,0,0,0C93.9,60.1,94.4,59.4,94.5,59.1z"/>
	<path class="st1" d="M90.9,59.4c-0.2-0.1-0.3-0.2-0.4-0.2c0.1-0.1,0.2-0.2,0.3-0.2c0.2-0.1,0.6-0.2,1.1-0.3
		c-0.1,0.1-0.2,0.3-0.2,0.5c0,0.3,0.1,0.5,0.3,0.6C91.6,59.7,91.2,59.6,90.9,59.4z"/>
	<path class="st1" d="M94.1,59c-0.1,0.2-0.3,0.5-1,0.7c0.2-0.1,0.3-0.4,0.3-0.6c0-0.2-0.1-0.4-0.2-0.5c0.3,0,0.5,0.1,0.6,0.2
		C94,58.9,94.1,59,94.1,59C94.1,59,94.1,59,94.1,59z"/>
	<path class="st0" d="M105.9,102.6L105.9,102.6C105.9,102.6,106,102.6,105.9,102.6c0,0.1,0,0.2-0.4,0.2c0,0-0.1,0-0.1,0
		c-0.3,0-0.2-0.1-0.3-0.1c0,0,0-0.1,0-0.1l-0.3-0.1h0c0,0,0,0.1,0,0.2c0,0.1,0,0.2,0.1,0.3c0.1,0.1,0.3,0.1,0.5,0.1c0,0,0.1,0,0.2,0
		c0.5,0,0.7-0.3,0.7-0.5c0-0.1,0-0.2,0-0.2L105.9,102.6z"/>
	<path class="st0" d="M80.9,103.9c-0.1,0.1-0.2,0.1-0.4,0.1c-0.1,0-0.2-0.1-0.2-0.2c-0.1-0.1-0.1-0.3-0.1-0.3l-0.3,0
		c0,0,0,0.2,0.1,0.4c0.1,0.2,0.2,0.4,0.5,0.4c0.5,0,0.8-0.4,0.8-0.4l-0.3-0.2C81,103.7,81,103.8,80.9,103.9z"/>
	<polygon class="st0" points="79.8,103.6 79.8,103.6 79.8,103.6 	"/>
	<circle class="st1" cx="92.7" cy="59.1" r="0.2"/>
	<circle class="st1" cx="99.7" cy="59.1" r="0.2"/>
	<path class="st1" d="M83.1,82.3c0.5,0.2,0.8,0.6,0.8,1.3c0,0.1,0,0.3,0,0.4c0.2,0,0.3-0.1,0.5-0.1c0.3-0.3,0.6-0.6,0.7-0.9
		c0.7-1.5,2-3.7,2.2-4.1l-0.1-2.1c-0.6,0.9-1.8,2.8-2.3,3.4C84.3,80.8,83.4,81.9,83.1,82.3z"/>
	<path class="st1" d="M81.8,81.9c0.3,0,0.5,0.1,0.9,0.2c0.3-0.3,1.3-1.6,1.8-2.2c0.4-0.5,1.3-1.8,1.9-2.8c-0.8,0.7-2,1.7-3.1,2.5
		L81.8,81.9C81.8,81.9,81.8,81.9,81.8,81.9z"/>
	<path class="st1" d="M81.3,82.1l1.2-1.8c-1.1,0.7-2.1,1.7-2.8,2.6l0.5,0.5C80.3,82.8,80.6,82.4,81.3,82.1z"/>
	<path class="st1" d="M79.9,85c0.2,0,0.3,0,0.4,0c-0.1-0.2-0.2-0.4-0.3-0.7c0-0.1,0-0.2,0-0.3c0-0.1,0-0.2,0-0.3l-0.6-0.6
		c-0.4,0.5-0.6,0.9-0.8,1.2c-0.1,0.1-0.1,0.3-0.1,0.4c0.1,0,0.3,0.1,0.4,0.1C79.3,84.9,79.7,85,79.9,85z"/>
	<path class="st1" d="M123,89.3c-0.6-1.2-1.4-2.5-2.1-2.9c-1.2-0.6-1.8-0.7-2-0.8c-0.1,0-0.1,0-0.1,0h0c-0.3,0-0.5,0-0.8,0
		c-0.5,0-1.1,0-1.7-0.3c-0.2-0.1-0.4-0.1-0.5-0.1c-0.4,0-0.7,0.3-1.4,0.9c-1.4,1.2-3.2,1.4-3.2,1.4l0-0.3c0,0,0.4,0,1-0.2
		c0.6-0.2,1.4-0.5,2-1.1c0.7-0.6,1-1,1.7-1c0.2,0,0.4,0,0.6,0.1c0.6,0.2,1.1,0.3,1.6,0.3c0.2,0,0.3,0,0.5,0
		c-0.1-0.1-0.2-0.3-0.4-0.5c-0.4-0.4-0.9-0.9-1.4-1.2c-0.3-0.1-0.5-0.2-0.7-0.4l-0.1,0.2c0,0-0.9-0.3-2.3-0.3
		c-1.4,0-1.5,0.6-2.5,1.5c-0.3,0.3-0.7,0.4-1,0.4c-0.5,0-0.9-0.1-1.6-0.1c-0.3,0-0.6,0-0.9,0.1c-1.7,0.4-2.7,1.9-4.6,3.5
		c-1.9,1.6-4.1,2.3-4.1,2.3l-0.1-0.3c0,0,0.5-0.2,1.3-0.5c0.8-0.4,1.8-0.9,2.7-1.7c1.8-1.6,2.9-3.1,4.7-3.6c0.4-0.1,0.7-0.1,1-0.1
		c0.7,0,1.2,0.1,1.6,0.1c0.3,0,0.5-0.1,0.8-0.3c0.9-0.8,1.2-1.6,2.7-1.6c0.8,0,1.4,0.1,1.9,0.2c-0.2-0.2-0.3-0.3-0.4-0.3
		c0,0-0.4-0.4-1-0.8c-0.6-0.4-1.4-0.8-2.1-0.8c-1.6,0-2.2-0.6-2.3-0.6c0,0-0.1-0.1-0.2-0.2c-0.1-0.1-0.4-0.3-0.7-0.5
		c-0.6-0.3-1.5-0.7-2.6-0.8c-0.1,0-0.1,0-0.2,0c-2.1,0-3.7,1.7-8.3,3c-4.5,1.3-10.3,2.2-12.3,2.2c-0.1,0-0.2,0-0.3,0
		c-0.1,0-0.1,0-0.2,0c-0.2,0-0.4,0-0.6,0.1c-0.3,0.2-0.5,0.5-0.8,0.7c-0.3,0.6-0.8,0.9-1.5,0.9C82,85.9,81.9,86,81.8,86
		c0,0.4,0,0.8,0,1.3c0,1.4,0.2,3.1,0.9,3.9c0.3,0.3,0.7,0.7,1.2,1.2c0.7-1.7,2.1-2.5,3.3-2.5c0.2,0,0.4,0,0.6,0.1
		c0.3,0.1,0.5,0.3,0.5,0.5c0,0.5-0.6,1-1.5,1.6c-0.5,0.4-1,0.9-1.1,1.6c1.7,1.2,4,2.4,6.5,2.7c1.1,0.1,2.4,0.2,3.9,0.2
		c4.4,0,10.3-0.9,16.1-4.7c5.1-3.3,6.2-4.2,7.1-4.3c0.5,0,0.8,0.3,1.5,0.7c1.4,0.6,2.5,1.7,3.1,2.4C123.5,90.4,123.3,89.8,123,89.3z
		"/>
	<path class="st1" d="M81.4,85.7c-0.3-0.1-0.6-0.2-0.8-0.4c-0.1,0-0.5-0.1-0.8-0.1c-0.4,0-1.1-0.2-1.4-0.3c-0.2,0.5-0.3,1-0.3,1.3
		L81.4,85.7C81.4,85.8,81.4,85.8,81.4,85.7z"/>
	<path class="st1" d="M81.8,82.2c-0.1,0-0.2,0-0.4,0.1c-0.8,0.4-1.1,1.1-1.1,1.7c0,0.1,0,0.2,0,0.2c0.1,0.6,0.6,1.2,1.5,1.2
		c0.1,0,0.1,0,0.2,0c0.9,0,1.3-0.2,1.4-1.4c0-0.2,0-0.4,0-0.5c0-0.8-0.1-0.8-0.8-1.1C82.3,82.3,82,82.2,81.8,82.2z"/>
	<path class="st1" d="M114,132.3c0-2.4,0.7-6,3.5-10.7c1.5-2.5,1.7-5.6,1.7-6.9c0-0.4,0-0.7,0-0.7h0l0,0c-0.4-1-0.6-1.5-0.9-1.8
		c-0.2-0.3-0.4-0.3-0.6-0.5c-0.2,0.9-0.8,4-1.7,5.7c-1.1,1.9-2.4,6.1-3.9,7.7c-1.5,1.6-1.3,1.2-2,2.9c-0.7,1.6-0.6,3.9-2.3,5.1
		c-1.5,1.1-2.7,2.6-2.9,2.9c0,0,0,0.1,0,0.2c0,0.1,0.1,0.1,0.3,0.1c0.2,0,0.5-0.1,0.9-0.3c1.1-0.6,1.6-0.9,2.2-0.9
		c0.3,0,0.6,0.1,0.9,0.2c0.8,0.3,1.4,0.9,2.3,0.9c0-0.1,0-0.3,0-0.7c0-2.1,0.3-8.5,3.4-13.2c1.4-2.1,2.1-4,2.4-5.3
		c0.3-1.3,0.4-2.1,0.4-2.1l0.3,0c0,0,0,3.4-2.8,7.6c-3,4.6-3.3,10.9-3.3,13.1c0,0.3,0,0.6,0,0.7c0.1,0,0.3,0,0.4,0
		c1.1-0.2,2-0.6,2.2-0.8h0C114.5,135.4,114,134.3,114,132.3z"/>
	<path class="st1" d="M119.8,131.5c-0.1,0-0.2,0-0.4,0c0,0,0,0,0,0c-0.3,0-0.8-0.1-1.3-0.4c-0.4-0.2-0.8-0.5-0.8-1.3
		c0-0.3,0-0.6,0.1-1.1l0.3,0.1c-0.1,0.4-0.1,0.7-0.1,1c0,0.7,0.2,0.8,0.6,1c0.5,0.3,0.9,0.3,1.1,0.3c0.1,0,0.2,0,0.3,0c0,0,0,0,0,0
		c-0.3-2.2-0.6-5.4-0.6-7.7c0-0.8,0-1.5,0.1-2.1c0.3-1.4,0.6-2.5,0.6-3.9c0-0.8-0.1-1.6-0.4-2.6c0,1.5-0.3,4.4-1.7,6.8
		c-2.8,4.7-3.4,8.2-3.4,10.6c0,1,0.1,1.8,0.2,2.3c0.1,0.5,0.2,0.8,0.2,0.8l-0.1,0l0.1,0.1c0,0,0.2,0.2,0.5,0.5
		c0.3,0.2,0.8,0.5,1.3,0.5c0.8,0,1-0.2,1.4-0.5c-0.2,0-0.4,0-0.6,0c0,0,0,0,0,0c-0.7,0-1.5-0.3-1.6-1.2c0-0.1,0-0.3,0-0.5
		c0-1.3,0.4-4.1,1.1-5.8c0.7-1.9,1-4.5,1-4.5l0,0l0.3,0c0,0-0.3,2.6-1,4.6c-0.6,1.6-1,4.4-1,5.7c0,0.2,0,0.4,0,0.5
		c0.2,0.8,0.7,1,1.4,1c0.5,0,1-0.1,1.2-0.2c0.1,0,0.1-0.1,0.2-0.1c0.4-0.3,0.8-0.3,1-0.5c0.2-0.1,0.3-0.3,0.3-0.9
		c0-0.3,0-0.7-0.1-1.1C119.9,132.4,119.9,132,119.8,131.5z"/>
	<path class="st1" d="M95.7,114l2,0.8c0-0.5-0.2-1.7-0.7-2.8c-2.6-5.8-5.2-7.9-9.1-12.6c-2.1-2.5-2.8-4.1-2.8-5.3
		c0-1.1,0.6-1.8,1.3-2.2c0.9-0.6,1.4-1.2,1.4-1.4c0-0.1,0-0.1-0.2-0.2c-0.1,0-0.3-0.1-0.5-0.1c-1.3,0-3.3,1.3-3.3,4.1c0,0,0,0,0,0
		c0,3.1,2.9,5.5,7.4,10.5C93.7,107.6,95,111,95.7,114z"/>
	<polygon class="st1" points="94.4,133.2 98.5,131.7 97.1,129.5 	"/>
	<path class="st1" d="M96.4,128.3L96.4,128.3c0-0.1,0.3-0.6,0.5-1.4c0.2-0.6,0.2-1.3,0.2-1.5c0,0,0,0-0.1,0l-6.8,9.2l2.2-0.8
		l3.9-5.4L96.4,128.3z"/>
	<path class="st1" d="M95.8,124.4c-0.1-0.1-0.3-0.2-0.4-0.3c0,0,0,0,0,0c0,0.4-0.1,0.9-0.5,1.4c-0.4,0.5-0.9,0.6-1.4,0.7l-7.2,9.8
		l2-0.7l8-10.5C96.1,124.7,95.9,124.5,95.8,124.4z"/>
	<path class="st1" d="M84.3,129.5c-0.2,0-0.3,0-0.4,0c-0.2,0-0.3,0-0.4,0c-0.2,0.3-0.6,1-1.4,1.1c0,0-0.1,0-0.1,0
		c-1.1,0-4.9-1-7.1-3.5c-2.1-2.4-4.9-7.7-4.9-13.4c0-0.3,0-0.6,0-1c0.2-3.3,0.5-5.9,0.5-7.9c0-2.1-0.3-3.6-1.3-4.9
		c-1-1.3-2.2-1.7-3.3-1.7c-1,0-1.9,0.4-2.2,0.9l-0.1-0.1l0.1,0.1c-0.1,0.1-0.1,0.2-0.1,0.2c0,0.1,0,0.1,0.2,0.2
		c0.2,0.1,0.5,0.1,1,0.1c0.2,0,0.5,0,0.7,0c0.1,0,0.2,0,0.3,0c0,0,0,0,0,0c0.8,0,1.6,0.2,2.2,1.1c0.6,0.9,1,2.5,1,5.2
		c0,0.1,0,0.3,0,0.4c0,3.4-0.4,6.1-0.4,8.7c0,2.2,0.3,4.4,1.3,6.8c2.2,5.4,6.3,8.3,9,9.5c1.4,0.6,2.1,1,2.5,1.4l0-0.1L84.3,129.5z"
		/>
	<path class="st1" d="M88,127.9c-0.1,0.2-0.4,0.6-1,0.8c-0.2,0.1-0.4,0.1-0.6,0.1c0,0,0,0,0,0l-4.4,5.1l0.2,1.8l6.2-7.7
		C88.1,127.9,88,127.9,88,127.9z"/>
	<path class="st1" d="M91.2,127.4c-0.4,0-0.7-0.2-0.9-0.3c-0.1,0.2-0.2,0.5-0.5,0.6l-7.6,9.6l0,0.1l2.2-0.7L91.2,127.4
		C91.2,127.4,91.2,127.4,91.2,127.4z"/>
	<path class="st0" d="M88.7,88.3c5.4-0.7,11.4-3.9,11.4-3.9l-0.2-0.3c0,0-1.5,0.8-3.7,1.7c-2.2,0.9-5,1.9-7.7,2.2
		c-0.1,0-0.2,0-0.3,0c-0.8,0-2-0.5-2.9-0.9c-0.9-0.5-1.7-0.9-1.7-0.9l-0.2,0.3c0,0,2.9,1.9,4.8,1.9C88.5,88.4,88.6,88.4,88.7,88.3z"
		/>
	<path class="st0" d="M89.4,86.4c1.9-0.2,2.9-0.5,2.9-0.5l-0.1-0.3c0,0-1,0.3-2.8,0.5c-0.4,0-0.7,0-1,0c-1.2,0-1.9-0.2-1.9-0.2
		l-0.1,0.3c0,0,0.7,0.2,2,0.2C88.7,86.4,89,86.4,89.4,86.4z"/>
	<path class="st0" d="M105.8,81.8c1.1-0.4,2.5-0.7,3.8-0.7l0-0.3c-2.6,0-5.8,1.4-5.8,1.5l0.1,0.3C103.9,82.5,104.7,82.2,105.8,81.8z
		"/>
	<path class="st0" d="M101.9,85.3c0.2,0,0.5,0,0.8-0.1c1.1-0.4,1.5-1.4,2.4-1.6c1-0.2,4.9-0.6,4.9-0.6l0-0.3l0,0c0,0-4,0.3-5,0.6
		c-1.1,0.3-1.5,1.3-2.5,1.6c-0.2,0.1-0.4,0.1-0.6,0.1c-0.1,0-0.3,0-0.5,0c-0.6,0-1.4,0.1-2.7,0.9c-1.8,1.1-4,2.1-5.8,3.1
		c-1.8,1-3.3,1.8-3.7,2.8c0,0.1-0.1,0.3-0.1,0.4c0,0.9,1.1,1.2,2.3,1.4c0.4,0,0.8,0.1,1.2,0.1c0,0,0,0,0,0c2.9,0,4.3-1.4,4.3-1.4
		L96.7,92c0,0-0.1,0.1-0.2,0.2c-0.5,0.4-1.7,1.1-3.8,1.1c-0.3,0-0.7,0-1.1-0.1c-1.2-0.1-2.1-0.5-2-1c0-0.1,0-0.2,0.1-0.3
		c0.3-0.8,1.7-1.7,3.5-2.6c1.8-0.9,4-2,5.8-3.1c1.3-0.8,2-0.9,2.5-0.9C101.6,85.3,101.8,85.3,101.9,85.3z"/>
	<path class="st0" d="M93.1,90.9c0.6-0.4,1.9-1,3.1-1.5c1.2-0.5,2.2-0.8,2.2-0.8l-0.1-0.3c0,0-4,1.4-5.4,2.4L93.1,90.9z"/>
	<path class="st0" d="M91.9,94.9c-2.5-0.6-3.7-1.2-3.7-1.9l-0.3,0h0c0.1,1,1.5,1.6,4,2.2c1.6,0.4,2.5,0.4,2.9,0.4c0.3,0,0.4,0,0.6,0
		v-0.3c-0.1,0-0.3,0-0.6,0C94.3,95.4,93.5,95.3,91.9,94.9z"/>
	<path class="st0" d="M109.1,87.9l-0.3-0.2c0,0-0.4,0.5-1,1.3c-0.7,0.8-1.6,1.8-2.8,2.8c-1.2,1-2.5,1.7-3.6,2.2
		c-1,0.5-1.7,0.7-1.8,0.7l0.1,0.3c0,0,3-0.9,5.4-3C107.6,90.1,109.1,87.9,109.1,87.9z"/>
	<polygon class="st0" points="111.2,87.6 111.2,87.6 111.2,87.6 	"/>
	<path class="st0" d="M112.9,88.4c0,0-1.9,2.1-4.1,3.4c-2.2,1.3-3.3,1.8-3.3,1.8l0.1,0.3c0,0,1.1-0.5,3.3-1.9
		c2.2-1.4,4.2-3.5,4.2-3.5L112.9,88.4L112.9,88.4z"/>
</g>
</svg>
