<?xml version="1.0" encoding="utf-8"?>
<!-- Generator: Adobe Illustrator 21.1.0, SVG Export Plug-In . SVG Version: 6.00 Build 0)  -->
<svg version="1.1"
	 id="svg2" xmlns:cc="http://creativecommons.org/ns#" xmlns:dc="http://purl.org/dc/elements/1.1/" xmlns:rdf="http://www.w3.org/1999/02/22-rdf-syntax-ns#" xmlns:svg="http://www.w3.org/2000/svg"
	 xmlns="http://www.w3.org/2000/svg" xmlns:xlink="http://www.w3.org/1999/xlink" x="0px" y="0px" viewBox="0 0 200 200"
	 style="enable-background:new 0 0 200 200;" xml:space="preserve">
<style type="text/css">
	.st0{fill:#315996;stroke:#48322C;stroke-width:0.216;}
	.st1{fill:#315996;}
	.st2{fill:#FFFFFF;}
	.st3{fill:none;}
</style>
<g id="Layer1000">
	<path id="path5" class="st0" d="M158.8,7.9c3.3,12.5,11.3,24.6,19.5,34.4l1.6,1.8l-1,2.2c-4.1,9.4-5.8,20.2-5.1,30.5
		c0.7,11.2,4.2,22.1,10.8,31.3l1.1,1.6l-0.6,1.8c-12.3,39.3-44.5,74.8-84,87.8l-1.2,0.4l-1.2-0.4c-39.4-13-71.7-48.6-84-87.8
		l-0.6-1.8l1.1-1.6c6.6-9.2,10.1-20,10.8-31.3c0.7-10.2-1-21-5.1-30.5l-1-2.2l1.6-1.8c8.2-9.8,16.3-21.9,19.5-34.4l1.3-5.1L47,5.6
		c8.5,5.2,18.3,6.9,28.1,5.4c7.9-1.2,16.3-4.6,22.4-9.8l1.1-0.9h2.9l1.1,0.9c6.1,5.2,14.5,8.6,22.4,9.8c9.8,1.5,19.6-0.2,28.1-5.4
		l4.5-2.7L158.8,7.9L158.8,7.9z"/>
	<path id="path7" class="st1" d="M97.8,32.5c-0.9,0.1-1.2,0.5-1.7,0.9c-0.3,0.3-2.1,1.2-3.2,2c-0.9,0.6-1.7,1.9-2.6,2.6
		c-1.5,1.1-2.9,1.9-3.9,4c-0.2,0.4-0.6,0.6-0.6,1c0,0.5,0.6,0.9,0.4,1.4c-0.1,0.3-1.6,0-2.8,0.2c-0.3,0-0.5,0.4-0.7,0.4
		c-0.4,0-0.7,1-1.1,1.1c-0.8,0-2.4,0.4-2.5,0c0.1-0.9-1-1.1-0.8-2.1c0.2-0.6,0.5-0.8,1-0.8c0.4,0,0.1,1.1,0.7,1
		c0.2-0.1,0-0.8,0.4-1.6c0.1-0.3,1.3-0.8,1.9-1.1c0.5-0.2,1,0.8,1.1,1.5c0.1,0.3,0.8-0.2,0.5-0.5c-0.8-1.2-0.3-2.3-0.5-2.5
		c-0.6-0.4-0.6-1.1-0.3-1.7c0.3-0.5-0.4-0.9-0.8-1.4c-0.3-0.3,0.5-1,1.1-1.1c0.7-0.3,1.1,0.5,1.7,1c0.7,0.5,1.4-0.5,2.2-0.4
		c0.6,0,0.6-0.8-0.9-0.9c-0.6,0-1.5,0-1.9-0.4c-1.7-0.9-0.2-1.4-0.2-1.9c0-0.8,0.8-1.2,1.2,0c0.2,0.6,0.9,1,1.3,0.8
		c0.4-0.2,0.5-0.8,1.1-0.1c0.4,0.5,1,0.3,0.9-0.1c-0.3-0.7-1.4-0.8-1.9-1.6c-0.2-0.5,0.3-1,1.2-0.9c0.4,0.1,0.7,0,1.1,0.4
		c0.3,0.3,0.5,0.2,0.6,0c0.1-0.2,0-0.5,0.2-0.6c0.4-0.2,1.7,0.1,1.5-0.3c-0.1-0.4-0.3-0.7,0.1-0.8c0.6-0.1,1.2-0.4,1.8,0.1
		c0.6,0.5,1.1,0.7,2.2,0C96.5,29.5,98.5,32.4,97.8,32.5L97.8,32.5z"/>
	<path id="path9" class="st1" d="M76.8,43.1c0.3,0,0.7-0.1,0.9-0.2c0.2-0.2,0.1-0.5,0.7-0.5c0.5,0,1.1,0.2,1.6-0.1
		c0.2-0.2,0.3-0.6,0.4-0.9c0.1-0.3,0.5,0,0.5-0.9c0-0.7-0.1-1.3,0.1-2c0.1-0.5-0.1-0.4-0.4-0.4c-0.6-0.1-1.8-0.1-0.7-0.8
		c1.1-1,0-1.9,1.1-2.7c0.8-0.5,1.6-1,2.3-1.8c0.3-0.4,0.6-0.7,0.7-1.3c0-0.4-0.4-0.7-0.2-1.1c0.1-0.2,0.4-0.4,0.7-0.4
		c0.4,0,0.8,0.2,1-0.2c0.6-1,0.9-0.5,1.4-1c0.4-0.6,0.9,0.3,0.9,0.8c0,0.6,0.5,0.5,0.8,0.5c0.4,0,0.5,0.4,0.9,0.5
		c0.4,0.1,1,0,1.1-0.2c0.2-0.6,0.7-1.2,1.7-1.4c0.9,0,1.8,0.1,2.7,0c0.4,0,0.4-0.5,1-0.5c0.8,0,0.6,0.6,1.1,0.6c0.5,0,0.9-0.2,1-0.5
		c0.1-0.6,0.1-1.3-0.1-1.8c-0.1-0.3-0.7-0.6-0.3-0.8c1.1-0.5-0.4-0.6,1.8-1.8c0.4-0.2,0.1-1.3-0.5-1.3c-0.6,0-1.6,0.7-2.8,0.4
		c-1.1-0.4-1.6-2.1-1.8-2.8c-0.2-0.9-0.1-1.4,0-2c0.1-0.8,0.6-1.5,1-2.1c0.4-0.5,1.8-2.2,3.7-1.6c0.9,0.4,2.1,0.9,2,3.4
		c-0.1,1.6-0.3,2.5-1.1,3.4c-0.4,0.6,0.1,1.3,0.5,1c0.4-0.3,0.3-0.5,0.7-0.9c0.5-0.5,1.4-0.1,1.6,0.5c0.3,0.8-0.1,2.7-0.5,3.2
		c-0.8,0.7-1.9,0.2-2.7,0.5c-0.5,0.2-0.7,1-0.2,1.3c0.4,0.3,1.3,0.1,2.2,0.2c1.1,0,2.8-1.6,2.6-2.5c-0.2-0.5,0.7-0.4,1,0
		c0.4,0.5,1.5,1.4,2.5,1.8c0.5,0.2,1.1,0,1.1-0.5c-0.1-1.5-2.3-2-3.8-3c-0.6-0.3-0.7-1.1-1.5-1.3c-0.5-0.1-0.8-0.1-0.8-0.5
		c0.2-1.4-0.8-2.3,1.3-2.6c1.5-0.2,3.9-0.3,4.6,0.4c0.5,0.4,1.6,0,2.4,1.1c0.3,0.4,2-0.3,2.1,0.6c0.1,0.5,0.2,0.9,0.6,1.1
		c0.6,0.1,0.9,0.4,1,1c0,0.9,0.3,0.5,0.5,0.8c0.2,0.4,0.5,0.6,0.5,1c0,0.5,0.4,0.9,1,1.3c0.4,0.3,0.7,0.4,1-0.1
		c0.2-0.4,0.1-1.3-0.4-2c-0.3-0.3-0.7-0.7-1-1.1c-0.3-0.3-0.1-0.7-0.3-1.1c-0.2-0.4,0-1.4-0.6-2.1c-0.6-0.7-2.3-2.5-4.1-3.4
		c-1.2-0.6-2.4-0.3-3.6-0.5c-0.4-0.1-0.6-0.4-0.6-0.7c0-0.9-2.9-3.4-4.8-4c-0.9-0.3-2.9-0.3-3.2-0.2c-0.5,0.1-0.4,0.4,0,0.5
		c1.2,0.3,3.3,0.9,3.4,1.7c0.1,0.4,0,0.8-0.4,0.8c-0.4,0-0.8-0.6-1.3-0.6c-0.3,0-0.6-1-1.1-1.1c-0.4-0.1-1,0-1.1,0.5
		c-0.1,0.4-0.3,0.9-0.7,0.9c-0.5,0-1.3-0.1-1-0.7c0.1-0.3,0.1-0.9-0.2-1.3c-0.3-0.4-0.7-0.4-1.2-0.4c-1.6,0-2.9-0.3-5.1,1.2
		c-1.7,1.2-2,2.7-3.4,4.1c-0.4,0.5-0.7,1.3,0.1,1.6c0.6,0.1,1.3,0,1.9-0.6c0.8-0.7,0.4-1.4,1-2c0.5-0.5,1.7-1.6,2.3-2.6
		c0.3-0.4,1.2-0.8,2-0.9c0.6-0.1,1.1,0.3,0.9,0.9c-0.3,0.6-1.1,1-1.7,1.4c-0.4,0.2-0.8,0.7-0.3,1.1c0.7,0.6,0.4,1.4-0.2,1.9
		c-0.6,0.5-1.3,0.9-1.5,1.7c-0.1,0.5,1.1,0.5,1,1c-0.1,0.7-0.1,1.4,0.4,1.9c0.5,0.5,1.1,0.9,1.7,1.3c0.6,0.4,1.4,1.3,0.5,2.3
		c-0.3,0.2-1,0-1.2-0.4c-0.2-0.7-0.6-1.4-1.2-1.8c-0.7-0.5-1.1-0.4-1.4,0.1c-0.7,1.1-1.5,2.2-2.7,2.9c-0.4,0.3-1.1,0.7-1.1-0.1
		c0-0.7,0.1-1.1,0.7-1.6c0.5-0.3,1.3-1.1,2.3-1.9c0.3-0.4,1.3-1.7,0.2-1.5c-0.7,0.1-2.3,0.9-3.5,1.8c-0.8,0.6-1.7,0.9-1.7,2.3
		c-0.1,0.6,0.4,1.5-0.1,1.9c-0.5,0.4-0.8,0.6-1.1,1.1c-0.3,0.4-0.7,0.3-1.1,0.3c-0.5,0-1-0.5-1.5-0.3c-0.6,0.2-1.2,0.6-0.9,1.1
		c0.2,0.5,1,0.5,1.1,1c0.1,0.5,0.1,0.8-0.4,1c-1,0.4-0.9,1-1.4,1c-0.5,0-0.6-0.2-0.6-0.6c0.1-0.5,0.2-0.7,0.5-1
		c0.3-0.4-0.1-0.7-0.6-0.6c-0.6,0.1-0.7,0.8-0.8,1.3c-0.2,0.6-1,0.9-0.9,1.8c0.1,0.8,0,1.6-0.5,2.1c-0.5,0.5-0.7,1.2-0.1,1.9
		c0.2,0.2,0.3,0.5,0.7,0.7c0.5,0.1,1.1,0.5,0.1,1.1c-1,0.6-0.6,1.4-1.3,2c-0.6,0.6-0.7,1.2-0.4,1.5C76.2,43.2,76.4,43.1,76.8,43.1
		L76.8,43.1z"/>
	<path id="path11" class="st2" d="M103.6,17.9c-0.7,0-1.2-0.4-1.2-0.9c0-0.5,0.6-0.8,1.3-0.8c0.7,0,1.2,0.4,1.2,0.9
		C104.8,17.6,104.3,17.9,103.6,17.9C103.6,17.9,103.6,17.9,103.6,17.9z"/>
	<path id="path13" class="st2" d="M107.5,18.1c-0.6-0.4-0.9-1-0.7-1.4l0,0c0.2-0.3,0.9-0.3,1.5,0.2c0.6,0.4,0.9,1,0.7,1.4
		C108.8,18.6,108.1,18.5,107.5,18.1z"/>
	<path id="path15" class="st1" d="M89.7,18.9c0.6,0.1,0.4,1.3,0,1.3c-1.1,0-2.4-0.1-2.9,0.6C85.9,22,85,23.2,84,24.4
		c-0.3,0.3-0.5,0.6-0.5,1c0,0.6-0.4,1.1-0.8,1.5c-0.4,0.4-0.8,0.3-1.3,0.5c-0.5,0.2-1.2,0.5-1.5,1.1c-0.2,0.3-0.8,0.5-0.9,0
		c-0.2-0.5-0.1-1.1,0-1.7c0-0.3,0.4-0.4,0.7-0.5c0.4,0,0.8-0.6,1.7-1.4c1-0.8,3-2.4,3-2.7c0-0.4,0.3-0.8,0.7-1.2
		c0.1-0.1,0.3-0.4,0.1-0.6C85,20.3,84.9,20,84.5,20c-0.2,0-0.4,0-0.5,0.2c-0.1,0.7-0.9,1.5-1.4,2c-0.7,0.3-1.8,0.7-2,1
		c-0.6,0.9-1.4,1.7-2.2,2.2c-0.5,0.3-0.7,0.4-0.6,1.3c0.1,0.6,0,0.9-0.3,1c-0.4,0-1.1,0.8-1.2,1.3c0,0.3-0.4,0.4-0.5,0.7
		c-0.1,0.2,0,0.6-0.2,0.7c-0.3,0.1-0.9,0.1-1.2,0c-1.1-0.5-2.9-4.8-0.5-7.5c0.7-0.7,1.4-1.4,2.1-2.1c1-1,2.2,0.3,1.4,0.8
		c-0.8,0.4-1.9,1.8-3,4.3c-0.7,1.1,0.4,0.8,0.6,0.7c0.8-0.1,0-0.6,1.1-2c0.4-0.6,1.4-0.8,1.6-1.5c-0.1-0.6,0.3-1.1,1-1.3
		c0.5-0.2,0.7,0.2,1.1,0.2c0.2,0,0.3-0.2,0.5-0.4c0.5-0.7,1.7-1.5,2.7-2c0.7-0.4,1.3-0.5,2.1-0.6C86.6,18.7,88.2,18.7,89.7,18.9
		L89.7,18.9z"/>
	<path id="path17" class="st1" d="M77.1,29.6c0.7-0.2,1,0.4,0.5,0.5c-0.9,0.5-1.6,2.8-1.6,4.3c0,0.5-0.4,0.4-0.4,1
		c0,0.7,0,1.4,0.1,2c0.1,0.2,0.4,0.6,0.4,0.9c0.1,0.6,0.2,1.4-0.2,1.9c-0.3,0.3-1,0.3-1.5-0.4c-0.4-0.3-0.7-0.5-1.2-0.6
		c-1.7,0-1.6-0.2-2-0.5c-1.8-1.7-2.8-4.2-2.8-6.4c0-0.6,0-1.3,0-1.9c0-1.1,1.1-1.3,1.5-0.9c0.7,0.5,1.9,1,3.2,1.1
		c0.9,0.1,0.5,0.7-0.3,1c-1.4,0.3-1.4-0.7-2.1-0.6c-0.6,0-0.8,0.4-0.9,0.7c-0.1,0.3,0.5,0.5,0.4,2c0,1.2,0.9,3.4,1.8,4.4
		c0.7,0.7,0.9,0,0.7-0.2c-1-1.5-0.3-2.7-1.4-3.9c-0.4-0.4,0-0.9,0.4-1c0.5-0.1,0.8,0.2,0.9,0.4c0,0.1-0.2,0.4,0.2,0.7
		c0.2,0.1,0.8,0.1,0.8-0.2c0-0.7,0.2-1.4,0.5-2.1c0.1-0.2,0.1-0.3,0.5-0.3c0.4-0.1,0.8-0.3,1.2-0.5C76.5,30.2,76.6,29.8,77.1,29.6
		L77.1,29.6z"/>
	<path id="path19" class="st1" d="M71.7,41.3c0.4,0.3,0.9,0.4,0.8-0.4c-0.1-0.6-0.9-1.1-1.8-1.4c-0.5-0.2-2.3,0.3-2.5,1.6
		c-0.2,1.7,0.6,3.1,3,4.1c0.7,0.3,1.3,0.5,1.6,1.3c0.3,0.9,1.1,0.9,1.4,1.9c0.1,0.4,0.1,1-0.1,1.6c-0.1,0.4-0.1,0.9,0.4,0.9
		c0.5-0.1,0.6,0.3,0.9,0.7c0.4,0.6,0.9,1.4,1.8,1.4c0.3,0,0.7,0,0.8-0.3c0.2-0.4,0.7-0.2,0.9,0.2c0.2,0.4,0,0.8,0,1.1
		c0,0.4,0.1,0.9,0.6,1.1c0.4,0.2,0.7,0.5,1.2,0.5c0.6,0,0.8,0.1,1.1,0.4c0.9,0.8,1.4,2.1,1.8,3.4c0.2,0.5,0.5,0.6,1,0.8
		c0.3,0.1,0.4,0.1,0.8,0.1c0.3,0.1,0.5,0.3,0.6,0.5c0.8,1.6,1.5,2.3,1.4,4.4c0,0.2-0.2,0.2-0.4,0.3c-0.2,0.1-0.2,0.4-0.2,0.7
		c0,0.6-0.1,1.5,0.3,1.9c0.3,0.3,0.4,0.8,0.2,1.1c-0.4,0.4-0.5,0.9-0.5,1.3c0,0.6,0.2,1.2,0.5,1.7c0.1,0.4,0.7,1,0.7,1.5
		c0,0.5-0.2,0.7-0.5,0.8c-0.4,0.1-0.9,0.2-1.3,0.4c-1.6,0.8-3.2,1.5-4.7,1.7c-0.6,0.2-2.2,1-2.5,1.7c-0.1,0.5-0.1,1.1,0.6,1.1
		c0.4,0,0.9-0.9,1.6-1.3c0.4-0.2,0.7-0.6,1.2-0.7c0.7,0,1.4,0.3,2.1,0.2c0.4,0,0.8-0.3,1-0.6c0.3-0.4,0.7-0.6,1.1-0.9
		c0.3-0.2,0.5-0.3,0.7-0.2c0.3,0,0.4,0.4,0.5,0.7c0.1,0.2,0.1,0.4,0,0.5c-0.2,0.2-0.4,0.4-0.4,0.6c0,0.4,0.1,0.9,0.4,1.2
		c0.2,0.3,0.3,2.1,0.3,3.2l2,0c-0.6-1-0.8-1.8-0.7-2.7c0-0.4,0-0.7-0.2-1.1c-0.2-0.4-0.3-1.1-0.4-1.7c0-0.3,0.2-0.7,0.7-0.8
		c0.6-0.1,1.1,1,1.9,1.6c0.3,0.2,0.3,0.6,0.5,0.9c0.2,0.3,0.8,0.7,1.4,0.7c0.4,0,0.6-0.3,0.7-0.9c0.1-0.3-0.3-0.5-0.5-0.8
		c-1.2-1.1-2.4-2.1-3.6-3.2c-0.7-0.6-0.7-1-0.7-1.4c0-0.9-0.5-0.4-0.4-2.9c0-0.4,0.4-0.6,0.5-1c0-0.2,0-1.2,0-1.7
		c0-0.2,0.4-0.4,0.5-0.2c0.8,1.4,2.1,2.7,3.5,3.7c0.5,0.3,0.9,0.7,1.4,1.1c1.1,0.9,2.2,2.6,4,4c0.7,0.5,1.5,1,2.2,1.5
		c0.8,0.6,1.3,1.2,2.5,1.7c1.3,0.5,2.9,2,3.3,3.3h1.2c-0.1-0.5-0.2-0.9-0.1-1.4c0.1-0.3,0-0.5-0.1-0.7c-0.3-0.3-0.6-0.7-0.8-1
		c-0.1-0.4-0.2-1,0-1.2c0.3-0.2,0.6,0.1,0.9,0c0.2-0.1,0.3-0.5,0.3-0.8c-0.1-0.4-1-2.2-2.1-2.9c-0.5-0.3-0.2-0.9,0.3-1.1
		c0.5-0.2,3.4-2.5,5.1-4.4c0.5-0.6,0.8-1.1,0.9,0.1c0.1,0.5,0.1,1.2,0,1.5c-0.1,0.4-0.6,0.6-0.5,1.3c0,0.5,0.3,0.9,0.4,1.3
		c0.3,1.1,0,2.9-0.5,3.6c-0.5,0.7-0.6,1.2-0.6,1.9c0.2,1.3,0.6,2.7-0.5,3.3l6.1-0.3c-1.7-1.3-2.5-3.1-2.6-4.9
		c-0.2-1.5,0.1-3.2,0.5-4.4c0.3-1-0.4-2.1-0.4-2.9c0-1.1,0-2.4,0.3-3.4c0.4-1.1,0.7-2.3,1-3.5c0.1-0.4,0.2-0.8,0.2-1.2
		c0-0.5,0.1-1,0.1-1.4c0-0.3,0.1-0.4,0.4-0.4c0.6,0,1.2-0.6,1.3-1.5c0-0.6,0.3-1.1,0.4-1.7c0.1-0.5,0.9-0.3,1-1.6
		c0-0.3,0-0.6,0.1-0.9c0-0.2,0.4-0.2,0.6-0.2c0-0.1-0.1-0.2-0.2-0.2c-0.3,0-0.6-0.1-0.9,0c-0.1,0-0.3,0.4-0.4,0.7
		c0,0.2-0.2,0.4-0.4,0.4c-0.3,0-1-0.3-0.7-0.7c0.2-0.3,0.7-0.2,1-0.7c0.2-0.4,0.5-0.7,0.4-1.1c0-0.4-0.6-0.6-0.9-0.9
		c-0.3-0.2-0.2-0.5-0.1-0.6c0.1-0.2,0.4-0.4,0.7-0.5c0.2-0.1,0.3-0.2,0.4-0.4c0-0.5,0.2-1.4-0.4-1.4c-1,0-1.2-0.5-1.5-0.9
		c-0.1-0.2-0.2-0.4-0.5-0.4c-0.4,0.1-0.9,0.1-0.9,0.6c0,0.4,0.6,0.9,0.8,1.5c0.5,1,0,2.2-0.1,3.4c-0.1,0.9-0.1,1.7-0.2,2.5
		c-1.5,8.9-2.5,11.7-10.8,17.7c-0.7,0.5-1.1-0.3-0.7-0.7c8.8-6.3,9-7.9,10.1-20.7c0.1-0.6-0.7-2.1-1.8,0.2c-0.6,1.7,0.2,5.2-0.5,8
		c-0.1,0.5-0.1,0.8-0.5,1.4c-0.7,0.9-0.3,1.7-0.6,2.3c-1.8,4.1-6.5,8.6-10.5,8.6c-3.4-0.1-10-3.6-13.1-12.1
		c-0.4-1.3,0.2-4.1-1.1-6.6c-0.4-0.6-1-1.2-0.5-1.9c0.3-0.5,0.3-1.1,0.3-1.8c0.1-0.9-0.6-0.6-0.5-2.1c0-0.5,0.6-0.9,1.3-1.1
		c0.7-0.1,1.5,0,2.2-0.5c1.3-1,1.5-0.1,2.7-0.9c0.5-0.4,1.8-0.2,2.8,0.3c0.5,0.3,1,0.8,1.6,0.8c0.4,0,1.2-0.1,1-0.8
		c-0.2-0.5-1.9-1.7-3.6-1.8c-1.6-0.1-3.2,0.2-4.7,0.9c-0.8,0.4-1.4,0.8-2.4,0.8c-1.5,0.1-2.7,0.7-3.8,1.7c-1,0.8-2,2-1.1,3.3
		c0.3,0.4,0.9,0.6,1.6,0.5c0.8-0.1,1.1,1,0.3,1.3c-0.4,0.1-0.3,0.7-1.1,0.6c-0.4,0-0.5-0.4-0.7-0.7c-0.4-0.4-0.7-0.5-1.2-0.4
		c-0.7,0.1-2,0.1-2.2-0.4c-0.2-0.6-1-1.2-1.9-1.3c-0.4,0-0.3-1,0-1.3c0.3-0.3,1-0.6,1.6-0.6c0.6,0,1.3,0.4,1.5-0.5
		c0.1-0.4-0.7-0.1-0.6-0.8c0.1-0.7,0-0.9-0.7-0.9c-0.6,0-1.4-0.1-1.4-0.7c0-0.5,0-1.2-0.5-1.3c-0.7-0.3-0.7-1.4-1.6-1.5
		c-0.6-0.1-1.5-0.1-1.7,0.3c-0.4,0.4-1,0.5-1.3,0.3c-0.5-0.4-0.9-0.7-0.8-1.2C70.5,40.2,71.3,40.8,71.7,41.3L71.7,41.3z"/>
	<path id="path21" class="st2" d="M83,54.6c-0.1,0.4,0,1,0.2,1.2c0.3,0.1,0.3,0.4,0.5,0.5c0.1,0.1,0.3,0.1,0.4,0
		c0.4-0.1,0.3-0.7,0.3-1c0-0.2,0.2-0.3,0.1-0.5c-0.1-0.1-0.2-0.2-0.3-0.3c-0.1-0.3-0.2-0.6-0.6-0.6C83.3,54,83.1,54.3,83,54.6
		L83,54.6z"/>
	<path id="path23" class="st2" d="M85,56.3c-0.1,0-0.3,0.1-0.5,0.2c-0.2,0.2-0.4,0.3-0.5,0.6c0,0.3,0.1,0.6,0.4,0.8
		c0.2,0.1,0.1,0.3,0.2,0.4c0.1,0.2,0.2,0.2,0.3,0.3c0.2,0.1,0.3,0.3,0.5,0.3c0.1,0,0.3-0.2,0.3-0.3c0-0.2,0.2-0.5,0-0.6
		c-0.2-0.2-0.4-0.5-0.4-0.7C85.4,57,85.3,56.4,85,56.3z"/>
	<path id="path25" class="st2" d="M112.8,81.8c-0.3,0-0.4-0.4-0.4-0.6c0.1-0.3,0.3-0.7,0.7-0.7c0.3,0,0.6,0.4,0.7,0.7
		c0,0.3-0.1,0.7-0.4,0.7C113.3,81.8,113,81.8,112.8,81.8L112.8,81.8z"/>
	<path id="path27" class="st1" d="M88.8,61.2c0.4-0.2,1,0.4,1.2,1.1c0.7,1.3,1.5,2.6,2.2,3.9c0.2,0.3,0,0.8-0.3,0.7
		c-0.3,0-0.5-0.3-0.7-0.6c-0.3-0.8-1-1.5-1.5-2.2C88.8,62.5,88.3,61.5,88.8,61.2L88.8,61.2z"/>
	<path id="path29" class="st1" d="M97.8,61c0.3-0.4,0.4-0.9,1.1-1c0.9-0.2,1.8,0,2.6,0c1,0,1.5,0.4,1.6,0.8c0.2,0.4,0.6,0.8,0.9,0.8
		c0.2,0,0.3,0,0.6,0c0.5,0,0.7,0.3,0.6,0.7c0,0.3-0.3,0.5-0.6,0.6c-0.3,0.1-0.7,0.5-0.4,0.6c0.4,0.2,0.5,0.4,0.4,0.6
		c-0.1,0.2-0.4,0.3-0.5,0.5c-0.2,0.4-0.4,0.5-0.9,0.7c-1.3,0.4-2.7,0.5-3.9,0.2c-0.5-0.1-1-0.3-1.4-0.6c-0.5-0.2-1-0.6-1-1
		c0-0.2,0.4-0.2,0.4-0.4c0-0.2-0.1-0.3-0.3-0.5C96,62.7,97.3,61.7,97.8,61L97.8,61z"/>
	<path id="path31" class="st2" d="M98.7,63c0.5,0.1,1.3-0.3,1.5-0.3c0.3,0,0.5,0.3,0.8,0.3c0.7,0,1.2,0,1.9,0
		c0.3,0.1,0.5,0.4,0.5,0.6c-0.2,0.2-0.7,0.4-1.2,0.5c-0.4,0.1-1.1,0.3-1.5,0.3c-0.9,0.1-1-0.4-1.9-0.5c-0.3-0.1-0.4-0.2-0.5-0.5
		C98.3,63.2,98.5,63,98.7,63L98.7,63z"/>
	<path id="path33" class="st1" d="M87.7,48.5c-0.2,0.2-0.4,0.7,0,0.8c0.6,0.1,1,0.5,1.8,0.5c0.5,0,1.2,0.2,1.5-0.2
		c0.2-0.3,0.2-0.4,0.6-0.4c0.7,0,1.5,0.2,2.2-0.2c0.3-0.2,0.8-0.4,0.8-0.8c0-0.4,0-0.9-0.4-1.1C91.8,46.6,88.8,46.5,87.7,48.5z"/>
	<path id="path35" class="st1" d="M89.7,50.8c-0.1-0.1,0-0.2-0.2-0.2c-0.3-0.1-0.5,0-0.8,0.1c-0.2,0.1-0.2,0.3-0.2,0.5
		c-0.1,0.3-0.1,0.7,0.3,0.8c0.3,0,0.5,0.1,0.7,0.2c0.2,0.1,0.2,0.3,0.3,0.3c0.2,0,1.2,0,1.3,0c0.1,0,0.1-0.1,0.3-0.3
		c0.3-0.2,0.8-0.2,1.2-0.2c0.2,0,0.3-0.1,0.3-0.3c0.1-0.3,0.1-0.6-0.1-0.8c-0.2-0.1-0.5-0.1-0.8,0.1C91.8,51.1,90.2,51.3,89.7,50.8
		L89.7,50.8z"/>
	<path id="path37" class="st1" d="M96.4,49.7c0-0.2,0-0.4-0.3-0.4c-0.1-0.1-0.1-0.3,0-0.4c0.3-0.5,1.1-0.6,1.2-0.2
		c0.1,0.5,0,1,0.1,1.5c0.1,0.3,0.4,0.6,0.2,0.9c-0.1,0.5-0.2,1-0.1,1.4c0.1,1-0.5,0.8-0.8,0.8c-0.2,0-0.5-0.4-0.6-0.6
		c-0.1-0.2-0.1-0.5,0-0.8C96.3,51.5,96.4,49.7,96.4,49.7z"/>
	<path id="path39" class="st1" d="M97.1,55.7c0-0.2,0-0.3-0.2-0.4c-0.4-0.1-0.6-0.3-1-0.1c-0.2,0.1-0.3,0.6-0.2,0.9
		c0.2,0.6,1.3,0.2,1.9,1c0.4,0.5,1.7,0.2,2.6,0c0.5,0,0.8-0.5,1.3-0.6c0.5,0,1,0.3,1.4,0.1c0.3-0.1,0.4-0.3,0.5-0.6
		c0.1-0.5,0.2-0.9,0.2-1.4c-0.1-0.3-0.8-0.4-1,0c-0.3,0.5-0.7,1-1.5,1c-0.4,0-0.8,0.1-1.2,0.4c-0.6,0.4-1.5,0.4-2,0.1
		C97.7,56.1,97.4,55.9,97.1,55.7L97.1,55.7z"/>
	<path id="path41" class="st1" d="M105.9,44.6c0.9-0.2,1.2-0.8,2.6-0.5c0.5,0.1,0.3,0.4,0.4,0.5c0.2,0.1,0.8-0.1,0.8-0.4
		c0-0.2-0.1-0.5-0.3-0.6c-0.7-0.4-1.4-0.6-2.4-0.6c-2.5,0.1-5.1,0.9-6.2,3.1c-0.5,1-0.4,2.2-0.2,3.3c0.2,1,0,2,0,3
		c0,0.5,0,0.8,0.2,1.1c0.4,0.4,0.7,0.6,1.4,0.6c0.3,0,0.4-0.3,0.4-0.8c0-0.7-0.4-1.4-0.5-2.1C101.5,47.9,101.5,45.5,105.9,44.6
		L105.9,44.6z"/>
	<path id="path43" class="st1" d="M108.1,49.7c0.3-0.3,0.8-0.3,1,0.2c0.1,0.4-0.3,1.1-0.8,1.4c-0.2,0.1-1.7,0.2-2.5,0
		c-0.2-0.1,0-0.4-0.6-0.4c-0.3,0-0.5,0-0.8,0c-0.4,0-0.5-0.5-0.2-0.7c0.6-0.5,1.4-0.1,2.2-0.1C107,50.1,107.8,50.1,108.1,49.7
		L108.1,49.7z"/>
	<path id="path45" class="st1" d="M104.1,49.1c-0.4,0.2-0.9-0.1-0.9-0.4c0-0.3,0.4-0.6,0.8-0.7c0.4-0.1,0.3-0.6,0.2-0.9
		c-0.1-0.5,0.2-0.8,0.6-1c1.6-0.6,3.9-0.2,4.6,0.4c0.4,0.4,1,0.4,1.3,0c0.3-0.3,0.7-0.6,0.6-1.1c0-0.2,0.1-0.4,0.2-0.6
		c0.7-1.6-0.3-2.9-1.4-3.6c-0.2-0.1-0.1-0.3-0.2-0.5c-0.1-0.4,0.3-0.7,0.4-1.1c0.7,0.3,1.4,1,1.9,1.7c0.3,0.4,0.1,0.8,0.5,1
		c0.2,0.1,0.4,0.1,0.6-0.2c0.1-0.3-0.1-0.5-0.1-0.7c0-0.2,0-0.4,0.3-0.4c0.5-0.1,1.1,0,1.1,0.5c0,0.6,0,1.2,0,1.8
		c0,0.2,0,0.5,0.5,0.5c0.6,0.1,1.4,0.1,2,0c0.8-0.1,0.3-0.7,0-0.8c-0.2,0-0.6,0.1-0.7-0.3c-0.7-2.3-2-4.3-2-4.7
		c0.1-0.6,0.4-0.8,0.5-1.2c0-0.3,0.2-0.4,0.4-0.5c0.1-0.1,0.2-0.5,0-0.6c-0.2-0.1-0.4-0.1-0.4-0.3c-0.1-0.3-0.2-0.8-0.6-0.5
		c-0.7,0.3-0.8,1.6-0.7,3.1c-1.6-1.2-2.3-3.2-2.1-4.9c0-0.2,0.2-0.5,0.4-0.4c0.7,0.2,1.4,0.1,2.1,0c0.2,0,0.4-0.3,0.4-0.5
		c0-0.1,0.1-0.2,0.2-0.1c0.1,0.2,0.3,0.4,0.5,0.5c0.1,0.1,0.2,0.1,0.3-0.1c0.1-0.2,0.2-0.4,0.4-0.4c0.4,0,0.5,0.2,0.7,0.3
		c0.2,0,0.2-0.1,0.2-0.2c0-0.2-0.1-0.3-0.1-0.5c0-0.2-0.1-0.3-0.3-0.4c-0.6-0.1-1.2-0.1-1.9,0c-0.2,0-0.1,0.5-0.6,0.5
		c-0.3,0-0.6,0-0.8,0.1c-0.3,0-0.4-0.1-0.3-0.4c0.4-1,1.3-1.7,2.1-1.7c1.4,0,1.8,0.4,2.2,0.9c0.4,0.4,0.8,0.9,1.3,0.9
		c0.3,0,0.6,0,0.5,0.3c-0.1,0.3-0.1,0.4-0.4,0.5c-0.3,0.1-0.5,0.3-0.4,0.7c0.1,0.2,0.7,0.4,1.1,0.3c0.4-0.1,0.7-0.6,0.6-1.1
		c-0.1-0.6-0.8-0.9-1-1.3c-0.3-0.8-0.9-1.5-1.5-2.3c-0.3-0.3-0.1-0.8,0-1.1c0.5-0.7,1.4-0.2,1.4,0.1c0.1,0.7,0.2,1.5,0.7,2.1
		c0.6,0.8,1.3,1.6,2,2c0.9,0.5,0.6,1.9,0.8,2c0.4,0.4,0.1,1.2,0.7,1.4c0.2,0.2,0.4,0.6,0.6,0.6c0.2,0,0.3-0.1,0.4-0.3
		c0.2-0.3,0-0.8-0.1-1.2c-0.1-0.3-0.4-0.5-0.3-0.7c0-0.6,0-1.1,0-1.7c-0.1-1.1-0.3-0.7-0.5-1c-0.7-1.2-2.5-1.3-3-2
		c-0.3-0.5-0.3-0.9-0.2-1.4c0-0.2,0.5-0.1,0.7-0.4c0.2,0.4,0.6,1,1.3,1c0.5,0,0.2,0.5,1.5,0.5c0.9,0,1-0.4,0.7-0.7
		c-1.2-1.5-1.4-0.9-2.2-1.5c-0.2-0.1-0.5-0.2-0.6,0c-0.1,0.2-0.6,0.1-0.7,0.5c-0.3-0.4-0.7-0.3-1.1-0.3c-0.4,0.1-0.8,0.1-0.7-0.4
		c0.3-1.3-0.3-2.8-1-3.6c-0.2-0.2-0.4-0.3-0.5-0.7c-0.1-0.6,0.2-1.1-0.3-1.6c-0.2-0.2-0.3-0.5-0.4-0.7c-0.2-0.6,0-0.8,0.6-0.7
		c1.7,0.1,2.6,2.3,2.8,2.8c0.3,1,0,2,0.1,3.1c0.1,0.5,0.7,0.5,1.1,0.4c0.3-0.1,0.3-0.6,0.1-0.9c-0.1-0.2-0.5-0.5-0.3-0.5
		c0.3-0.1,0.5-0.1,0.7-0.2c0.5-0.3,0.9-0.9,0.5-1.4c-0.2-0.3-0.7-0.5-1.1-0.8c-0.4-0.3-0.2-0.6,0.1-0.8c0.7-0.3,1.5-0.3,2.2-0.1
		c1.1,0.3,1.5,1.1,1.5,1.7c0,0.8,0.1,1.6,0,2.4c0,0.6,0.1,1.2,0.9,1.2c1.2,0.1,2.3,1.7,3.5,2.5c0.9,0.6,1.5,1.3,1.6,2.3
		c0.3,2.4-0.2,3.8-1.3,5c-0.5,0.4-1.3,0.6-2.2,0.5c-1.5-0.2-2.3,0.1-2.4,0.5c-0.1,0.9-0.5,0.8-0.6,1.3c-0.2,0.7,0.2,1.1,0.7,1.1
		c0.4,0,0.9,0.5,1.2,0.2c0.4-0.4,0.6-0.8,1.1-0.8c0.8,0.1,0.8,1.2,0.5,1.4c-0.8,0.7-1.4,1.1-2.1,1c-0.4,0-0.9,0-1.3,0
		c-0.5,0-0.7,0.2-0.7,0.7c0.1,1.1-0.4,0.8-0.5,1.1c-0.8-0.3-1.5-0.2-2.3-0.2c-0.6,0-1.2-0.2-1.3-0.4c-0.1-0.3,0.1-0.8,0.4-0.8
		c0.4-0.1,0.9-0.1,1.3,0c0.3,0.1,0.8,0.4,1,0.2c0.2-0.3,0.2-1.1-0.2-1.1c-0.3-0.1-0.3-0.4-0.3-0.6c0-0.5,0.3-0.6,0.5-1
		c0.2-0.3,0.5-0.1,0.6-0.3c0.1-0.3,0-0.5-0.4-0.7c-0.3-0.2-0.7-0.2-1.1,0c-0.3,0.2-0.3,0.7-0.6,1c-0.3,0.4-0.5,0.9-0.9,1.1
		c-0.3,0.2-0.6,0.2-0.9,0.2c-0.7,0.1-1.2,0.6-0.9,0.9c0.4,0.4,0.8,0.6,0.8,1.2c0.1,0.5-0.2,1,0,1.5c0.1,0.2,0.4,0.3,0.5,0.5
		c0.1,0.4-0.2,0.6-0.5,0.5c-0.4,0-0.8,0-1.3,0.2c0.1,0.2,0.1,0.3,0.3,0.4c0.7,0.2,1.5,0.3,2.2,0.1c0.4,0,0.8-0.4,1-0.8
		c0.3-0.3,0.8-0.3,1.2-0.4c0.4,0,0.6-0.5,0.7-1.1c0.1,0.5,0.5,0.9,0.8,1.1c0.2,0.2,0.6,0.2,0.9,0c0.3-0.1,0-0.8,0.3-0.9
		c1.6-0.7,2.1-1.8,3.2-2.7c0.3-0.2,0.5-0.8,0.6-1.2c0.3-0.7,0.1-1.7-0.2-2.8c0.8,0.2,1.2,0.3,1.6,0.8c1,1.2,1.6,3.2,1.2,3.7
		c-0.2,0.3-0.5,0.5-0.5,0.9c0.1,0.4,0.1,0.8,0.1,1.1c0,0.3-0.1,0.6-0.4,0.8c-0.9,0.6-1.4,1.5-2.1,2.1c-0.4,0.4-0.7,0.6-0.5,1
		c0.2,0.3,0.2,0.6,0.1,0.9c-0.3,1.7-1.5,3.2-2.8,4.2c-0.6,0.4-0.9,0.7-1.5,0.5c-0.4-0.1-0.7-0.3-1,0.1c-0.5,0.4-1.1,0.3-1.6,0.6
		c-1,0.5-1.7,0.1-2.1-0.2c-0.3-0.3-0.1-0.8,0.3-0.9c0.5-0.1,1,0.1,1.5-0.2c0.5-0.3,1-1,0.9-1.7c-0.1-0.4-0.4-0.4-0.6-0.4
		c-0.8-0.1-1.2-0.8-1-1.2c0.2-0.4,1.1,0.1,1.3-0.2c0.3-0.6,0.9-0.8,1.2-1.3c0.2-0.4-0.3-1.1-0.7-0.5c-0.5,0.7-1.1,0.4-1.4,0.8
		c-0.6,0.8-0.6-0.3-1-0.3c-0.8,0-1.6-0.1-2.4,0c-0.5,0-0.9-0.3-1.3-0.6c-0.5-0.7-1.3-0.4-1.5-1.3c0-0.3-0.2-0.6-0.5-0.8
		c-0.4-0.3-0.8-0.4-0.8,0.1c0,0.9-0.6,1.4-0.5,2.1c0,0.7-0.7,0.5-1.1,0.9c-0.6,0.5-1,1.2-1.9,1.2c-0.5,0-0.9,0-1.3-0.3
		c-0.6-0.4-1.6-0.4-2.5-0.3c-0.7,0.1-0.4,0.5-1.1,0.6C104.3,48.8,104.3,49.1,104.1,49.1L104.1,49.1z"/>
	<path id="path47" class="st2" d="M115.6,36c0,0.3,0.3,0.5,0.6,0.5c1.1,0.1,1.9,0.7,2,1.6c0.1,0.4,0.7,0.5,1,0.3
		c0.3-0.2,0.1-0.8,0.8-1.5c0.2-0.1,0.3-0.5,0.6-0.6c0.4-0.1,0.8,0.1,1.2-0.2c0.2-0.1,0-0.3,0-0.4c-0.1-1-0.4-0.9-0.6-1.3
		c-0.1-0.2,0.2-0.4,0-0.7c-0.1-0.3-0.6-0.5-1-0.2c-0.5,0.4-0.3,0.9-0.8,1.1c-0.1,0.1-0.2,0.2-0.3,0.4c-0.2-0.4-0.5-0.6-0.8-0.6
		c-0.2,0-0.4-0.2-0.5-0.3c-0.2-0.2-0.9-0.6-1.1-0.2C116.2,34.9,115.6,34.8,115.6,36L115.6,36z"/>
	<path id="path49" class="st1" d="M115.2,28.2c0-0.4,0.2-0.8,0.6-0.8c0.4,0,0.7,0.3,0.7,0.7c0,0.4-0.2,0.8-0.6,0.8
		C115.5,28.9,115.2,28.6,115.2,28.2C115.2,28.2,115.2,28.2,115.2,28.2z"/>
	<path id="path51" class="st1" d="M104.8,20c-0.5,0.1-0.7,0.4-0.2,0.8c0.7,0.6,1.7,1.5,3.1,1.6c1,0,2.1,0.5,2.3,1.1
		c0.1,0.5,0.2,1,0.5,1.5c0.3,0.4,0.8,0.6,1.2,0.9c0.2,0.1,0.1,0.5-0.5,0.5c-0.6,0-1.3-0.1-1.9,0c-0.4,0.1-0.4,0.4-0.2,0.6
		c0.4,0.6,1.3,1.1,2.2,1.5c0.3,0.1,0.6,0.3,0.9,0.3c0.4,0,0.8,0.1,1.1-0.2c0.4-0.3,0.3-0.8,0.8-1.1c0.2-0.1,0.2-1-0.1-1.3
		c-0.5-0.5-0.9-0.3-1-0.6c-0.1-0.3,0-0.6,0-0.9c0-0.3,0.2-0.9-0.3-1c-0.5-0.1-1-0.5-1.2-0.9c-0.1-0.5-0.4-0.7-0.8-0.8
		c-1.6-0.4-3.1-1.1-3.9-1.6C106.3,19.9,105.5,19.9,104.8,20L104.8,20z"/>
	<path id="path53" class="st1" d="M104.2,35.5c0.2,0,0.4-0.1,0.6-0.2c0.3-0.3,0.9-0.4,1-0.1c0,0.2,0.3,0.4,0.4,0.6
		c0.3,0.4,0.8,0.8,1.4,0.9c0.6,0.1,1.1,0.1,1.2,0.6c0.1,0.5,0.6,0.8,0.9,1.2c0.2,0.2,0.5,0.3,0.7,0.3c0.4,0,0.9,0,1,0.2
		c0.1,0.2,0.3,0.5,0.6,0.4c0.3,0,0.6-0.2,0.9-0.4c0.2-0.2,0.3-0.4,0.1-0.6c-0.4-0.4-1.1-0.5-1.7-0.5c-0.4,0-0.8-0.5-0.8-0.9
		c0-0.3,0.3-0.3,0.6-0.3c0.2,0,0.2-0.2,0-0.3c-0.2-0.1-0.4-0.3-0.5-0.5c-0.2-0.6-0.3-1.1-1.1-1.1c-0.6,0-0.9-0.5-0.9-0.9
		c0-0.3,0.6-0.3,0.8-0.6c0.2-0.3,0-0.6-0.6-0.7c-0.9-0.3-1.8-0.4-2.8-0.3c-0.8,0.2-0.9,0.6-0.9,1c0,0.4,0,1-0.4,1
		c-0.9-0.2-2.1-0.9-2.5-1.4c-0.2-0.3-0.2-0.7,0.1-0.9c0.5-0.3,1.5-0.1,2.3,0c0.4,0,0.7,0,0.9-0.3c0.2-0.3,0.6-0.3,0.9-0.4
		c0.3-0.1,0.3-0.6,0.5-0.5c0.3,0,0.1,0.4,0.3,0.5c0.3,0.2,1,0.1,1-0.1c0.1-0.2,0.2-0.4,0.4-0.5c0.2-0.1,0.2-0.3,0.3-0.3
		c0.2,0,0.2,0.4,0.4,0.4c0.4,0,0.7,0,0.9,0.3c0.2,0.3,0.6,0.4,0.9,0.4c0.3,0,0.6-0.2,0.7-0.5c0.1-0.3,0.4-0.4,0.5-0.6
		c0.1-0.2,0-0.4-0.4-0.7c-0.9-0.5-2.4-0.6-3.3,0c-0.4,0.2-1,0.4-1.3,0.1c-0.3-0.3-0.7-0.6-1-0.2c-0.5,0.4-1.1,0.4-1.3,0
		c-0.2-0.3,0.1-0.7,0.4-0.8c0.3-0.1,0.7,0.1,0.9-0.1c0.3-0.3,0.2-0.8-0.2-0.9c-0.9-0.1-2.7-0.2-2.9,0.1c-0.2,0.3-0.4,0.4-0.8,0.4
		c-0.3,0-0.7,0.1-0.7,0.3c0,0.4,0.6,0.6,1,0.7c0.9,0.1,0.2,0.8-0.2,0.6c-0.4-0.2-0.7-0.5-1.2-0.5c-0.8,0-2,0.1-2.5,0
		c-0.2-0.1-0.3-0.3-0.7-0.3c-0.3,0.1-0.5,0.2-0.4,0.4c0.1,0.4,0.7,0.5,1.1,0.6c0.3,0.1,0.6,0.1,0.9,0.1c1.1,0.2,0.6,0.9,0.3,1
		c-0.5,0.2-0.9,0.3-1.2,0.6c-0.3,0.3-0.5,0.5-0.5,0.8c0,0.4,0.8,0.8,1.2,0.9c0.5,0,1,0.5,1.3,0.6c0.2,0.1,0,0.6,1,1.2
		c0.2,0.1,0.4,0.2,0.6,0.2C103.1,35.6,103.7,35.5,104.2,35.5L104.2,35.5z"/>
	<path id="path55" class="st3" d="M100,4.2c-11.6,9.9-35,17-55,4.7c-3.4,13-11.7,25.7-20.3,35.9c8.1,18.8,8.3,45.4-6.1,65.5
		c12.7,40.6,45.6,73.5,81.5,85.3h0c35.9-11.9,68.8-44.7,81.5-85.3c-14.4-20.1-14.2-46.7-6.1-65.5c-8.6-10.2-16.9-22.9-20.3-35.9
		C135,21.1,111.6,14,100,4.2L100,4.2L100,4.2z"/>
	<path id="path57" class="st1" d="M27.2,98.9c-1.7,4-3.7,7.9-6.2,11.5c6.2,19.2,17.1,37,31.2,51.5c13.2,13.7,29.7,25,47.8,31.1
		c18.1-6.1,34.6-17.4,47.8-31.1c14-14.5,25-32.3,31.2-51.5c-2.5-3.6-4.6-7.5-6.2-11.5l0,0C124.6,125.3,76.1,125.3,27.2,98.9
		L27.2,98.9L27.2,98.9z"/>
	<path id="path59" class="st1" d="M61,16.7c-5.1-0.8-10-2.4-14.6-4.8c-3.7,11.9-11.2,23.4-19.1,32.9c3.1,7.5,4.8,15.8,5.1,23.9l0,0
		c38.5,31,97.7,28.5,135.4,0l0,0c0.4-8.2,2.1-16.4,5.1-23.9c-7.9-9.6-15.4-21-19.1-32.9c-4.6,2.4-9.6,4-14.6,4.8c0,0-0.1,0-0.1,0
		l0.1,0v58.3c-17.6,9.8-59.3,9.4-78.8-0.2l0.2-58.3L61,16.7L61,16.7z"/>
	<path id="path61" class="st2" d="M116.8,125.4c10.8-1,22.3-3.4,32-7.7c0,13.3,0,26.9,0,40.2c-9.4,10.4-19.9,19.3-32,26
		C116.9,164.3,116.9,145,116.8,125.4z"/>
	<path id="path63" class="st2" d="M83.2,125.2c-10.8-1.4-22.3-3.3-32-7.6c0,13.3,0,26.6,0,39.9c9.5,10.3,19.9,19.7,32,26.4
		C83.1,164.3,83.1,144.9,83.2,125.2z"/>
	<path id="path65" class="st1" d="M45.9,80.6c-5.2,5.6-10.5,11.2-15.7,16.8c1.7,0.9,3.3,1.7,5,2.6c1-1.1,1.9-2.2,2.9-3.3
		c1.8,0.9,3.6,1.9,5.4,2.8c-0.3,1.3-0.5,2.6-0.9,3.9c1.7,0.8,3.4,1.4,5.1,2.1c1.2-7.5,2.4-14.9,3.6-22.4
		C49.5,82.3,47.7,81.5,45.9,80.6z"/>
	<path id="path67" class="st2" d="M46.4,87l-5.5,6.1l3.6,1.9L46.4,87z"/>
	<path id="path69" class="st1" d="M57,85.5c-2.3,7-4.6,14-6.8,21c1.7,0.6,3.4,1.3,5.1,1.8l5.3-16l5.5,1.7
		c-1.7,5.4-3.4,10.7-5.1,16.1c1.8,0.5,3.6,1,5.3,1.5c2.1-7.1,4.1-14.2,6.2-21.3C67.2,89,62.1,87.5,57,85.5L57,85.5z"/>
	<path id="path71" class="st1" d="M89.6,104.4c1-6.3,0.3-10.7-6.9-12.1c-7.2-1.3-9.9,2.9-10.9,9.1c-1,6.2,0.6,11.8,7.2,12.9
		C85.6,115.3,88.7,110.7,89.6,104.4z"/>
	<path id="path73" class="st2" d="M84.7,103.9c0.7-4.5-0.7-6.6-2.8-7c-2.1-0.3-4.3,1.6-5,5.7c-0.6,4.1,0.8,6.6,2.9,7
		C81.9,110,83.9,108.4,84.7,103.9z"/>
	<path id="path75" class="st1" d="M96.8,93.5l-6.9,22.1c1.8,0.1,3.6,0.3,5.4,0.3l4.4-16.1l3.9,16.1c1.9-0.1,3.8-0.1,5.7-0.2
		l-6.7-22.3C100.7,93.6,98.7,93.6,96.8,93.5L96.8,93.5z"/>
	<path id="path77" class="st1" d="M113.6,92.6l-3.6,23.1c1.8-0.1,3.6-0.3,5.4-0.5l2-16.6l6.2,15.4c1.9-0.3,3.8-0.7,5.6-1.1
		l-9.9-21.3C117.4,92.1,115.5,92.4,113.6,92.6L113.6,92.6z"/>
	<path id="path79" class="st1" d="M130.8,112.6l-1.1-4.8c1.1-0.3,2.1-0.6,3.2-1c-1.7-1.6-3.9-1.8-5.5-7.7c-1.6-5.8,1.7-9.6,5.7-10.8
		c4.1-1.3,9-0.7,11.2,4.7c2.2,5.4,1.3,8.2,0.4,10.3c1-0.3,2-0.7,2.9-1c0.6,1.6,1.2,3.2,1.8,4.8c-2.5,1-5.1,1.8-7.7,2.6
		c-0.5-1.6-1-3.6-1.6-5.2c1.2-2.1,1-4.8,0.1-7.3c-0.8-2.6-2.3-5.5-5.2-4.5s-2.5,3.8-2,6.4c0.8,2.4,1.7,4.9,4.2,6.5
		c0.5,1.6,0.9,3.3,1.4,4.9C136.3,111.3,133.3,112.1,130.8,112.6L130.8,112.6z"/>
	<path id="path81" class="st1" d="M142.4,85.2l10,20.8l4.7-1.9l-5.6-11.5l11.7,8.8l4.5-2.2l-10.1-20.7c-1.6,0.8-3.2,1.6-4.8,2.4
		l5.3,11L147,83.4C145.5,84,144,84.6,142.4,85.2L142.4,85.2z"/>
	<path id="path83" class="st1" d="M100,195.6L100,195.6z M24.6,44.8c8.6-10.2,16.9-22.9,20.3-35.9c20,12.2,43.5,5.1,55-4.7h0.1
		c11.6,9.9,35,17,55,4.7c3.4,13,11.7,25.7,20.3,35.9c-8.1,18.8-8.3,45.4,6.1,65.5c-12.7,40.6-45.6,73.5-81.5,85.3
		c-35.9-11.9-68.8-44.7-81.5-85.3C32.9,90.2,32.7,63.6,24.6,44.8z M14.8,111.5c12.3,39.3,44.5,74.8,84,87.8l0.5,0.2h1.4l0.5-0.2
		c39.4-13,71.7-48.6,84-87.8l0.6-1.8l-1.1-1.6c-6.6-9.2-10.1-20-10.8-31.3c-0.7-10.2,1-21,5.1-30.5l1-2.2l-1.6-1.8
		c-8.2-9.8-16.3-21.9-19.5-34.4l-1.3-5.1L153,5.6c-8.5,5.2-18.3,6.9-28.1,5.4c-7.9-1.2-16.3-4.6-22.4-9.8l-1.1-0.9h-2.9l-1.1,0.9
		C91.3,6.4,82.9,9.8,75,11c-9.8,1.5-19.6-0.2-28.1-5.4l-4.5-2.7l-1.3,5.1c-3.3,12.5-11.3,24.6-19.5,34.4l-1.6,1.8l1,2.2
		c4.1,9.4,5.8,20.2,5.1,30.5C25.4,88,21.9,98.9,15.4,108l-1.1,1.6L14.8,111.5L14.8,111.5z"/>
	<path id="path85" class="st2" d="M60.5,16.7l-0.2,58.2c7.1,3.5,17,5.8,27.7,6.8c0-1-0.1-2.2-0.3-2.5c-0.3-0.3-0.4-0.8-0.4-1.2
		c0-0.2,0.2-0.5,0.4-0.6c0.1-0.1,0.1-0.3,0-0.5c-0.2-0.2-0.3-0.6-0.5-0.7c-0.2,0-0.4,0-0.7,0.2c-0.4,0.3-0.7,0.5-1.1,0.9
		c-0.3,0.3-0.6,0.6-1,0.6c-0.8,0-1.5-0.3-2.1-0.2c-0.5,0-0.8,0.4-1.2,0.7c-0.7,0.4-1.2,1.4-1.6,1.3c-0.6,0-0.7-0.6-0.6-1.1
		c0.2-0.7,1.8-1.5,2.5-1.7c1.6-0.2,3.2-1,4.7-1.7c0.5-0.2,0.9-0.3,1.3-0.4c0.3-0.1,0.5-0.4,0.5-0.8c0-0.5-0.6-1.1-0.7-1.5
		c-0.3-0.5-0.5-1.1-0.5-1.7c0-0.5,0.1-0.9,0.5-1.3c0.2-0.3,0.1-0.8-0.2-1.1c-0.4-0.4-0.3-1.3-0.3-1.9c0-0.3,0-0.5,0.2-0.7
		c0.1-0.1,0.3-0.2,0.4-0.3c0.2-2.1-0.6-2.8-1.4-4.4c-0.1-0.2-0.2-0.5-0.6-0.5c-0.3,0-0.4,0-0.8-0.1c-0.5-0.2-0.8-0.3-1-0.8
		c-0.4-1.3-0.9-2.5-1.8-3.4c-0.3-0.3-0.5-0.4-1.1-0.4c-0.5,0-0.8-0.3-1.2-0.5C79.1,54.9,79,54.4,79,54c0-0.4,0.2-0.8,0-1.1
		c-0.2-0.4-0.7-0.6-0.9-0.2C78,53,77.6,52.9,77.3,53c-0.9,0-1.4-0.7-1.8-1.4c-0.3-0.4-0.4-0.8-0.9-0.7c-0.5,0-0.5-0.5-0.4-0.9
		c0.2-0.6,0.2-1.2,0.1-1.6c-0.2-1-1-1-1.4-1.9c-0.3-0.7-0.9-1-1.6-1.3c-2.4-1.1-3.1-2.5-3-4.1c0.2-1.3,2-1.8,2.5-1.6
		c0.8,0.3,1.7,0.9,1.8,1.4c0.1,0.7-0.5,0.7-0.8,0.4c-0.4-0.4-1.2-1.1-1.5,0.5c-0.1,0.5,0.3,0.9,0.8,1.2c0.3,0.3,0.9,0.1,1.3-0.3
		c0.3-0.4,1.1-0.4,1.7-0.3c0.9,0.1,0.9,1.2,1.6,1.5c0.5,0.2,0.5,0.8,0.5,1.3c0,0.6,0.8,0.8,1.4,0.7c0.7,0,0.8,0.2,0.7,0.9
		c-0.1,0.7,0.7,0.5,0.6,0.8c-0.2,0.9-0.9,0.5-1.5,0.5c-0.6,0-1.3,0.3-1.6,0.6c-0.3,0.3-0.4,1.3,0,1.3c1,0.1,1.7,0.7,1.9,1.3
		c0.2,0.4,1.4,0.4,2.2,0.4c0.5-0.1,0.9,0,1.2,0.4c0.2,0.3,0.2,0.6,0.7,0.7c0.8,0.1,0.7-0.5,1.1-0.6c0.9-0.3,0.5-1.3-0.3-1.3
		c-0.7,0.1-1.3-0.1-1.6-0.5c-0.9-1.3,0.1-2.5,1.1-3.3c1.1-1,2.4-1.6,3.8-1.7c1.1,0,1.6-0.4,2.4-0.8c1.5-0.7,3.1-1,4.7-0.9
		c1.7,0.1,3.4,1.3,3.6,1.8c0.2,0.7-0.5,0.8-1,0.8c-0.6,0-1-0.5-1.6-0.8c-1-0.5-2.3-0.6-2.8-0.3c-1.2,0.7-1.4-0.1-2.7,0.9
		c-0.8,0.5-1.5,0.3-2.2,0.5c-0.7,0.2-1.3,0.6-1.3,1.1c-0.1,1.5,0.5,1.2,0.5,2.1c0,0.7,0,1.3-0.3,1.8c-0.4,0.7,0.1,1.3,0.5,1.9
		c1.3,2.5,0.6,5.3,1.1,6.6c3.1,8.5,9.7,12.1,13.1,12.1c4.1,0,8.7-4.5,10.5-8.6c0.3-0.6,0-1.4,0.6-2.3c0.4-0.6,0.4-0.9,0.5-1.4
		c0.7-2.8-0.1-6.3,0.5-8c1-2.3,1.8-0.8,1.8-0.2c-1,12.8-1.3,14.4-10.1,20.7c-0.5,0.4-0.1,1.2,0.7,0.7c8.3-6,9.3-8.8,10.8-17.7
		c0.1-0.8,0.1-1.6,0.2-2.5c0.1-1.2,0.6-2.4,0.1-3.4c-0.3-0.6-0.9-1.1-0.8-1.5c0.1-0.5,0.6-0.5,0.9-0.6c0.3-0.1,0.4,0.2,0.5,0.4
		c0.3,0.3,0.6,0.8,1.5,0.9c0.6,0,0.4,1,0.4,1.4c0,0.3-0.2,0.4-0.4,0.4c-0.3,0.1-0.6,0.3-0.7,0.5c0,0.1-0.1,0.4,0.1,0.6
		c0.3,0.3,0.9,0.5,0.9,0.9c0,0.4-0.3,0.7-0.4,1.1c-0.3,0.5-0.8,0.4-1,0.7c-0.3,0.4,0.4,0.7,0.7,0.7c0.2,0,0.4-0.2,0.4-0.4
		c0.1-0.3,0.2-0.7,0.4-0.7c0.3-0.1,0.6,0,0.9,0c0.1,0,0.2,0.1,0.2,0.2c-0.2,0-0.7-0.1-0.6,0.2c0,0.3,0,0.6-0.1,0.9
		c-0.1,1.2-0.9,1.1-1,1.6c-0.1,0.6-0.4,1.1-0.4,1.7c0,0.9-0.6,1.5-1.3,1.5c-0.3,0-0.4,0.1-0.4,0.4c-0.1,0.5-0.1,0.9-0.1,1.4
		c0,0.4-0.1,0.8-0.2,1.2c-0.3,1.2-0.6,2.3-1,3.5c-0.3,0.9-0.3,2.3-0.3,3.4c0,0.8,0.7,1.9,0.4,2.9c-0.3,1.2-0.7,2.9-0.5,4.4
		c0.1,1.5,0.7,3.1,2,4.4c9.2-1.1,17.4-3.2,23.1-6.4V16.7c5.1-0.8,10-2.4,14.6-4.8c3.7,11.9,11.2,23.4,19.1,32.9
		c-3.1,7.5-4.8,15.7-5.1,23.9c-37.6,28.6-96.8,31.1-135.4,0c-0.4-8.2-2.1-16.4-5.1-23.9c7.9-9.6,15.4-21,19.1-32.9
		C50.8,14.3,55.6,15.9,60.5,16.7L60.5,16.7z M71.3,38.7c-1.8-1.7-2.8-4.2-2.8-6.4l0-1.9c0-1.1,1.1-1.3,1.5-0.9
		c0.7,0.5,1.9,1,3.2,1.1c0.9,0.1,0.5,0.7-0.3,1c-1.4,0.3-1.4-0.7-2.1-0.6c-0.6,0-0.8,0.4-0.9,0.7c-0.1,0.3,0.5,0.5,0.4,2
		c0,1.2,0.9,3.4,1.8,4.4c0.7,0.7,0.9,0,0.7-0.2c-1-1.5-0.3-2.7-1.4-3.9c-0.4-0.4,0-0.9,0.4-1c0.5-0.1,0.8,0.2,0.9,0.4
		c0,0.1-0.2,0.4,0.2,0.7c0.2,0.1,0.8,0.1,0.8-0.2c0-0.7,0.2-1.4,0.5-2.1c0.1-0.2,0.1-0.3,0.5-0.3c0.4-0.1,0.8-0.3,1.2-0.5
		c0.6-0.3,0.6-0.8,1.2-0.9c0.7-0.2,1,0.4,0.5,0.5c-0.9,0.5-1.6,2.8-1.6,4.3c0,0.5-0.4,0.4-0.4,1c0,0.7,0,1.4,0.1,2
		c0.1,0.2,0.4,0.6,0.4,0.9c0.1,0.6,0.2,1.4-0.2,1.9c-0.3,0.3-1,0.3-1.5-0.4c-0.4-0.3-0.7-0.5-1.2-0.6C71.5,39.2,71.6,39,71.3,38.7
		L71.3,38.7z M79,28.4c-0.2-0.5-0.1-1.1,0-1.7c0-0.3,0.4-0.4,0.7-0.5c0.4,0,0.8-0.6,1.7-1.4c1-0.8,3-2.4,3-2.7
		c0-0.4,0.3-0.8,0.7-1.2c0.1-0.1,0.3-0.4,0.1-0.6C85,20.3,84.9,20,84.5,20c-0.2,0-0.4,0-0.5,0.2c-0.1,0.7-0.9,1.5-1.4,2
		c-0.7,0.3-1.8,0.7-2,1c-0.6,0.9-1.4,1.7-2.2,2.2c-0.5,0.3-0.7,0.4-0.6,1.3c0.1,0.6,0,0.9-0.3,1c-0.4,0-1.1,0.8-1.2,1.3
		c0,0.3-0.4,0.4-0.5,0.7c-0.1,0.2,0,0.6-0.2,0.7c-0.3,0.1-0.9,0.1-1.2,0c-1.1-0.5-2.9-4.8-0.5-7.5l2.1-2.1c1-1,2.2,0.3,1.4,0.8
		c-0.8,0.4-1.9,1.8-3,4.3c-0.7,1.1,0.4,0.8,0.6,0.7c0.8-0.1,0-0.6,1.1-2c0.4-0.6,1.4-0.8,1.6-1.5c-0.1-0.6,0.3-1.1,1-1.3
		c0.5-0.2,0.7,0.2,1.1,0.2c0.2,0,0.3-0.2,0.5-0.4c0.5-0.7,1.7-1.5,2.7-2c0.7-0.4,1.3-0.5,2.1-0.6c1.6-0.2,3.3-0.1,4.8,0.1
		c0.6,0.1,0.4,1.3,0,1.3c-1.1,0-2.4-0.1-2.9,0.6C85.9,22,85,23.2,84,24.4c-0.3,0.3-0.5,0.6-0.5,1c0,0.6-0.4,1.1-0.8,1.5
		c-0.4,0.4-0.8,0.3-1.3,0.5c-0.5,0.2-1.2,0.5-1.5,1.1C79.7,28.8,79.1,28.9,79,28.4L79,28.4z M88.7,17.7c-0.6,0.6-1.3,0.7-1.9,0.6
		c-0.8-0.3-0.5-1.1-0.1-1.6c1.3-1.4,1.7-2.9,3.4-4.1c2.2-1.5,3.5-1.2,5.1-1.2c0.5,0,0.9,0,1.2,0.4c0.3,0.4,0.3,1,0.2,1.3
		c-0.3,0.6,0.5,0.7,1,0.7c0.5,0,0.6-0.6,0.7-0.9c0.1-0.5,0.7-0.6,1.1-0.5c0.5,0.1,0.8,1.1,1.1,1.1c0.5,0,0.9,0.6,1.3,0.6
		c0.4,0,0.4-0.4,0.4-0.8c-0.1-0.8-2.3-1.5-3.4-1.7c-0.4-0.1-0.5-0.4,0-0.5c0.3-0.1,2.3-0.1,3.2,0.2c1.9,0.6,4.7,3.1,4.8,4
		c0,0.3,0.2,0.7,0.6,0.7c1.2,0.2,2.4-0.1,3.6,0.5c1.8,0.9,3.5,2.7,4.1,3.4c0.6,0.7,0.4,1.7,0.6,2.1c0.2,0.4,0,0.7,0.3,1.1
		c0.3,0.3,0.7,0.7,1,1.1c0.5,0.7,0.6,1.6,0.4,2c-0.3,0.4-0.6,0.3-1,0.1c-0.5-0.4-1-0.8-1-1.3c0-0.4-0.3-0.6-0.5-1
		c-0.2-0.3-0.5,0.1-0.5-0.8c-0.1-0.6-0.4-0.9-1-1c-0.5-0.2-0.6-0.6-0.6-1.1c-0.1-0.9-1.7-0.2-2.1-0.6c-0.8-1-1.8-0.6-2.4-1.1
		c-0.7-0.7-3.1-0.6-4.6-0.4c-2.1,0.3-1,1.3-1.3,2.6c0,0.4,0.3,0.4,0.8,0.5c0.8,0.1,0.9,0.9,1.5,1.3c1.4,1,3.7,1.4,3.8,3
		c0,0.5-0.6,0.8-1.1,0.5c-1-0.5-2.1-1.3-2.5-1.8c-0.3-0.4-1.2-0.5-1,0c0.1,0.9-1.6,2.5-2.6,2.5c-0.9,0-1.8,0.1-2.2-0.2
		c-0.5-0.3-0.3-1.2,0.2-1.3c0.8-0.3,1.9,0.2,2.7-0.5c0.4-0.5,0.9-2.4,0.5-3.2c-0.3-0.6-1.1-1-1.6-0.5c-0.4,0.4-0.3,0.6-0.7,0.9
		c-0.4,0.3-0.9-0.5-0.5-1c0.8-0.9,1-1.8,1.1-3.4c0.1-2.5-1.1-3-2-3.4c-2-0.5-3.3,1.1-3.7,1.6c-0.4,0.5-0.8,1.2-1,2.1
		c-0.1,0.6-0.2,1.1,0,2c0.2,0.7,0.7,2.3,1.8,2.8c1.2,0.3,2.2-0.4,2.8-0.4c0.6,0,0.9,1,0.5,1.3c-2.3,1.2-0.7,1.3-1.8,1.8
		c-0.4,0.2,0.3,0.5,0.3,0.8c0.2,0.5,0.2,1.2,0.1,1.8c-0.1,0.4-0.5,0.5-1,0.5c-0.4-0.1-0.3-0.6-1.1-0.6c-0.6,0-0.7,0.4-1,0.5
		c-0.9,0.1-1.8,0-2.7,0c-0.9,0.2-1.5,0.9-1.7,1.4c-0.1,0.3-0.7,0.3-1.1,0.2c-0.4-0.1-0.5-0.5-0.9-0.5c-0.3,0-0.8,0.1-0.8-0.5
		c0-0.5-0.5-1.3-0.9-0.8c-0.5,0.6-0.8,0.1-1.4,1c-0.2,0.4-0.6,0.2-1,0.2c-0.3,0-0.6,0.2-0.7,0.4c-0.2,0.3,0.2,0.7,0.2,1.1
		c-0.1,0.6-0.4,1-0.7,1.3c-0.6,0.8-1.5,1.4-2.3,1.8c-1,0.8,0.1,1.8-1.1,2.7c-1.1,0.7,0.2,0.7,0.7,0.8c0.3,0.1,0.5,0,0.4,0.4
		c-0.1,0.6-0.1,1.3-0.1,2c0,0.9-0.4,0.6-0.5,0.9c-0.1,0.3-0.2,0.8-0.4,0.9c-0.5,0.3-1,0.2-1.6,0.1c-0.6,0-0.5,0.3-0.7,0.5
		c-0.2,0.2-0.6,0.2-0.9,0.2c-0.4,0-0.6,0-0.9-0.3c-0.3-0.4-0.2-1,0.4-1.5c0.6-0.6,0.3-1.4,1.3-2c1-0.6,0.5-1-0.1-1.1
		c-0.4-0.1-0.5-0.4-0.7-0.7c-0.5-0.7-0.4-1.3,0.1-1.9c0.5-0.5,0.6-1.4,0.5-2.1c-0.1-0.9,0.7-1.2,0.9-1.8c0.2-0.5,0.2-1.1,0.8-1.3
		c0.5-0.1,0.9,0.2,0.6,0.6c-0.3,0.3-0.4,0.6-0.5,1c0,0.3,0.1,0.6,0.6,0.6c0.5,0,0.4-0.6,1.4-1c0.5-0.2,0.5-0.5,0.4-1
		c-0.1-0.6-0.9-0.6-1.1-1c-0.3-0.5,0.3-0.9,0.9-1.1c0.5-0.1,1,0.3,1.5,0.3c0.4,0,0.8,0.1,1.1-0.3c0.3-0.5,0.7-0.8,1.1-1.1
		c0.4-0.4,0-1.3,0.1-1.9c0-1.4,0.9-1.7,1.7-2.3c1.1-1,2.8-1.8,3.5-1.8c1.1-0.1,0.2,1.2-0.2,1.5c-1,0.8-1.8,1.6-2.3,1.9
		c-0.7,0.5-0.8,0.9-0.7,1.6c0,0.8,0.7,0.4,1.1,0.1c1.2-0.7,2-1.8,2.7-2.9c0.4-0.5,0.7-0.6,1.4-0.1c0.6,0.4,1,1.2,1.2,1.8
		c0.2,0.4,0.9,0.6,1.2,0.4c0.9-1,0.1-1.9-0.5-2.3c-0.7-0.4-1.3-0.8-1.7-1.3c-0.5-0.5-0.5-1.2-0.4-1.9c0.1-0.5-1.1-0.5-1-1
		c0.2-0.8,0.9-1.2,1.5-1.7c0.6-0.6,0.9-1.4,0.2-1.9c-0.5-0.4,0-0.8,0.3-1.1c0.6-0.5,1.4-0.8,1.7-1.4c0.2-0.6-0.4-1-0.9-0.9
		c-0.7,0.1-1.6,0.4-2,0.9c-0.6,1-1.7,2-2.3,2.6C89.1,16.4,89.5,17,88.7,17.7L88.7,17.7z M100,4.2L100,4.2C88.4,14,65,21.1,44.9,8.9
		c-3.4,13-11.7,25.7-20.3,35.9c8.1,18.8,8.3,45.4-6.1,65.5c12.7,40.6,45.6,73.5,81.5,85.3c35.9-11.9,68.8-44.7,81.5-85.3
		c-14.4-20.1-14.2-46.7-6.1-65.5c-8.6-10.2-16.9-22.9-20.3-35.9C135,21.1,111.6,14,100,4.2L100,4.2z M82.9,38.4
		c0.3-0.5-0.4-0.9-0.8-1.4c-0.3-0.3,0.5-1,1.1-1.1c0.7-0.3,1.1,0.5,1.7,1c0.7,0.5,1.4-0.5,2.2-0.4c0.6,0,0.6-0.8-0.9-0.9
		c-0.6,0-1.5,0-1.9-0.4c-1.7-0.9-0.2-1.4-0.2-1.9c0-0.8,0.8-1.2,1.2,0c0.2,0.6,0.9,1,1.3,0.8c0.4-0.2,0.5-0.8,1.1-0.1
		c0.4,0.5,1,0.3,0.9-0.1c-0.3-0.7-1.4-0.8-1.9-1.6c-0.2-0.5,0.3-1,1.2-0.9c0.4,0.1,0.7,0,1.1,0.4c0.3,0.3,0.5,0.2,0.6,0
		c0.1-0.2,0-0.5,0.2-0.6c0.4-0.2,1.7,0.1,1.5-0.3c-0.1-0.4-0.3-0.7,0.1-0.8c0.6-0.1,1.2-0.4,1.8,0.1c0.6,0.5,1.1,0.7,2.2,0
		c1.1-0.7,3.1,2.2,2.4,2.3c-0.9,0.1-1.2,0.5-1.7,0.9c-0.3,0.3-2.1,1.2-3.2,2c-0.9,0.6-1.7,1.9-2.6,2.6c-1.5,1.1-2.9,1.9-3.9,4
		c-0.2,0.4-0.6,0.6-0.6,1c0,0.5,0.6,0.9,0.4,1.4c-0.1,0.3-1.6,0-2.8,0.2c-0.3,0-0.5,0.4-0.7,0.4c-0.4,0-0.7,1-1.1,1.1
		c-0.8,0-2.4,0.4-2.5,0c0.1-0.9-1-1.1-0.8-2.1c0.2-0.6,0.5-0.8,1-0.8c0.4,0,0.1,1.1,0.7,1c0.2-0.1,0-0.8,0.4-1.6
		c0.1-0.3,1.3-0.8,1.9-1.1c0.5-0.2,1,0.8,1.1,1.5c0.1,0.3,0.8-0.2,0.5-0.5c-0.8-1.2-0.3-2.3-0.5-2.5C82.7,39.7,82.7,38.9,82.9,38.4
		L82.9,38.4z M96.9,63c-0.9-0.3,0.4-1.3,0.9-2c0.3-0.4,0.4-0.9,1.1-1c0.9-0.2,1.8,0,2.6,0c1,0,1.5,0.4,1.6,0.8
		c0.2,0.4,0.6,0.8,0.9,0.8h0.6c0.5,0,0.7,0.3,0.6,0.7c0,0.3-0.3,0.5-0.6,0.6c-0.3,0.1-0.7,0.5-0.4,0.6c0.4,0.2,0.5,0.4,0.4,0.6
		c-0.1,0.2-0.4,0.3-0.5,0.5c-0.2,0.4-0.4,0.5-0.9,0.7c-1.3,0.4-2.7,0.5-3.9,0.2c-0.5-0.1-1-0.3-1.4-0.6c-0.5-0.2-1-0.6-1-1
		c0-0.2,0.4-0.2,0.4-0.4C97.2,63.3,97,63.2,96.9,63L96.9,63z M87.7,48.5c1.1-1.9,4.1-1.8,6.4-1.3c0.4,0.2,0.4,0.7,0.4,1.1
		c0,0.4-0.5,0.6-0.8,0.8c-0.6,0.4-1.4,0.2-2.2,0.2c-0.3,0-0.4,0.1-0.6,0.4c-0.3,0.4-1,0.2-1.5,0.2c-0.8,0-1.2-0.4-1.8-0.5
		C87.3,49.2,87.5,48.7,87.7,48.5z M100.6,49.5c-0.2-1.1-0.3-2.3,0.2-3.3c1.2-2.2,3.7-3.1,6.2-3.1c1,0,1.7,0.2,2.4,0.6
		c0.2,0.1,0.4,0.3,0.3,0.6c0,0.3-0.6,0.5-0.8,0.4c-0.1-0.1,0-0.4-0.4-0.5c-1.4-0.3-1.7,0.3-2.6,0.5c-4.4,0.9-4.4,3.3-3.7,6.8
		c0.2,0.7,0.5,1.4,0.5,2.1c0,0.5-0.1,0.7-0.4,0.8c-0.7,0-1.1-0.2-1.4-0.6c-0.2-0.3-0.2-0.6-0.2-1.1
		C100.5,51.5,100.7,50.5,100.6,49.5L100.6,49.5z M104.2,47c-0.1-0.5,0.2-0.8,0.6-1c1.6-0.6,3.9-0.2,4.6,0.4c0.4,0.4,1,0.4,1.3,0
		c0.3-0.3,0.7-0.6,0.6-1.1c0-0.2,0.1-0.4,0.2-0.6c0.7-1.6-0.3-2.9-1.4-3.6c-0.2-0.1-0.1-0.3-0.2-0.5c-0.1-0.4,0.3-0.7,0.4-1.1
		c0.7,0.3,1.4,1,1.9,1.7c0.3,0.4,0.1,0.8,0.5,1c0.2,0.1,0.4,0.1,0.6-0.2c0.1-0.3-0.1-0.5-0.1-0.7c0-0.2,0-0.4,0.3-0.4
		c0.5-0.1,1.1,0,1.1,0.5c0,0.6,0,1.2,0,1.8c0,0.2,0,0.5,0.5,0.5c0.6,0.1,1.4,0.1,2,0c0.8-0.1,0.3-0.7,0-0.8c-0.2,0-0.6,0.1-0.7-0.3
		c-0.7-2.3-2-4.3-2-4.7c0.1-0.6,0.4-0.8,0.5-1.2c0-0.3,0.2-0.4,0.4-0.5c0.1-0.1,0.2-0.5,0-0.6c-0.2-0.1-0.4-0.1-0.4-0.3
		c-0.1-0.3-0.2-0.8-0.6-0.5c-0.7,0.3-0.8,1.6-0.7,3.1c-1.6-1.2-2.3-3.2-2.1-4.9c0-0.2,0.2-0.5,0.4-0.4c0.7,0.2,1.4,0.1,2.1,0
		c0.2,0,0.4-0.3,0.4-0.5c0-0.1,0.1-0.2,0.2-0.1c0.1,0.2,0.3,0.4,0.5,0.5c0.1,0.1,0.2,0.1,0.3-0.1c0.1-0.2,0.2-0.4,0.4-0.4
		c0.4,0,0.5,0.2,0.7,0.3c0.2,0,0.2-0.1,0.2-0.2c0-0.2-0.1-0.3-0.1-0.5c0-0.2-0.1-0.3-0.3-0.4c-0.6-0.1-1.2-0.1-1.9,0
		c-0.2,0-0.1,0.5-0.6,0.5c-0.3,0-0.6,0-0.8,0.1c-0.3,0-0.4-0.1-0.3-0.4c0.4-1,1.3-1.7,2.1-1.7c1.4,0,1.8,0.4,2.2,0.9
		c0.4,0.4,0.8,0.9,1.3,0.9c0.3,0,0.6,0,0.5,0.3c-0.1,0.3-0.1,0.4-0.4,0.5c-0.3,0.1-0.5,0.3-0.4,0.7c0.1,0.2,0.7,0.4,1.1,0.3
		c0.4-0.1,0.7-0.6,0.6-1.1c-0.1-0.6-0.8-0.9-1-1.3c-0.3-0.8-0.9-1.5-1.5-2.3c-0.3-0.3-0.1-0.8,0-1.1c0.5-0.7,1.4-0.2,1.4,0.1
		c0.1,0.7,0.2,1.5,0.7,2.1c0.6,0.8,1.3,1.6,2,2c0.9,0.5,0.6,1.9,0.8,2c0.4,0.4,0.1,1.2,0.7,1.4c0.2,0.2,0.4,0.6,0.6,0.6
		c0.2,0,0.3-0.1,0.4-0.3c0.2-0.3,0-0.8-0.1-1.2c-0.1-0.3-0.4-0.5-0.3-0.7c0-0.6,0-1.1,0-1.7c-0.1-1.1-0.3-0.7-0.5-1
		c-0.7-1.2-2.5-1.3-3-2c-0.3-0.5-0.3-0.9-0.2-1.4c0-0.2,0.5-0.1,0.7-0.4c0.2,0.4,0.6,1,1.3,1c0.5,0,0.2,0.5,1.5,0.5
		c0.9,0,1-0.4,0.7-0.7c-1.2-1.5-1.4-0.9-2.2-1.5c-0.2-0.1-0.5-0.2-0.6,0c-0.1,0.2-0.6,0.1-0.7,0.5c-0.3-0.4-0.7-0.3-1.1-0.3
		c-0.4,0.1-0.8,0.1-0.7-0.4c0.3-1.3-0.3-2.8-1-3.6c-0.2-0.2-0.4-0.3-0.5-0.7c-0.1-0.6,0.2-1.1-0.3-1.6c-0.2-0.2-0.3-0.5-0.4-0.7
		c-0.2-0.6,0-0.8,0.6-0.7c1.7,0.1,2.6,2.3,2.8,2.8c0.3,1,0,2,0.1,3.1c0.1,0.5,0.7,0.5,1.1,0.4c0.3-0.1,0.3-0.6,0.1-0.9
		c-0.1-0.2-0.5-0.5-0.3-0.5c0.3-0.1,0.5-0.1,0.7-0.2c0.5-0.3,0.9-0.9,0.5-1.4c-0.2-0.3-0.7-0.5-1.1-0.8c-0.4-0.3-0.2-0.6,0.1-0.8
		c0.7-0.3,1.5-0.3,2.2-0.1c1.1,0.3,1.5,1.1,1.5,1.7c0,0.8,0.1,1.6,0,2.4c0,0.6,0.1,1.2,0.9,1.2c1.2,0.1,2.3,1.7,3.5,2.5
		c0.9,0.6,1.5,1.3,1.6,2.3c0.3,2.4-0.2,3.8-1.3,5c-0.5,0.4-1.3,0.6-2.2,0.5c-1.5-0.2-2.3,0.1-2.4,0.5c-0.1,0.9-0.5,0.8-0.6,1.3
		c-0.2,0.7,0.2,1.1,0.7,1.1c0.4,0,0.9,0.5,1.2,0.2c0.4-0.4,0.6-0.8,1.1-0.8c0.8,0.1,0.8,1.2,0.5,1.4c-0.8,0.7-1.4,1.1-2.1,1l-1.3,0
		c-0.5,0-0.7,0.2-0.7,0.7c0.1,1.1-0.4,0.8-0.5,1.1c-0.8-0.3-1.5-0.2-2.3-0.2c-0.6,0-1.2-0.2-1.3-0.4c-0.1-0.3,0.1-0.8,0.4-0.8
		c0.4-0.1,0.9-0.1,1.3,0c0.3,0.1,0.8,0.4,1,0.2c0.2-0.3,0.2-1.1-0.2-1.1c-0.3-0.1-0.3-0.4-0.3-0.6c0-0.5,0.3-0.6,0.5-1
		c0.2-0.3,0.5-0.1,0.6-0.3c0.1-0.3,0-0.5-0.4-0.7c-0.3-0.2-0.7-0.2-1.1,0c-0.3,0.2-0.3,0.7-0.6,1c-0.3,0.4-0.5,0.9-0.9,1.1
		c-0.3,0.2-0.6,0.2-0.9,0.2c-0.7,0.1-1.2,0.6-0.9,0.9c0.4,0.4,0.8,0.6,0.8,1.2c0.1,0.5-0.2,1,0,1.5c0.1,0.2,0.4,0.3,0.5,0.5
		c0.1,0.4-0.2,0.6-0.5,0.5c-0.4,0-0.8,0-1.3,0.2c0.1,0.2,0.1,0.3,0.3,0.4c0.7,0.2,1.5,0.3,2.2,0.1c0.4,0,0.8-0.4,1-0.8
		c0.3-0.3,0.8-0.3,1.2-0.4c0.4,0,0.6-0.5,0.7-1.1c0.1,0.5,0.5,0.9,0.8,1.1c0.2,0.2,0.6,0.2,0.9,0c0.3-0.1,0-0.8,0.3-0.9
		c1.6-0.7,2.1-1.8,3.2-2.7c0.3-0.2,0.5-0.8,0.6-1.2c0.3-0.7,0.1-1.7-0.2-2.8c0.8,0.2,1.2,0.3,1.6,0.8c1,1.2,1.6,3.2,1.2,3.7
		c-0.2,0.3-0.5,0.5-0.5,0.9c0.1,0.4,0.1,0.8,0.1,1.1c0,0.3-0.1,0.6-0.4,0.8c-0.9,0.6-1.4,1.5-2.1,2.1c-0.4,0.4-0.7,0.6-0.5,1
		c0.2,0.3,0.2,0.6,0.1,0.9c-0.3,1.7-1.5,3.2-2.8,4.2c-0.6,0.4-0.9,0.7-1.5,0.5c-0.4-0.1-0.7-0.3-1,0.1c-0.5,0.4-1.1,0.3-1.6,0.6
		c-1,0.5-1.7,0.1-2.1-0.2c-0.3-0.3-0.1-0.8,0.3-0.9c0.5-0.1,1,0.1,1.5-0.2c0.5-0.3,1-1,0.9-1.7c-0.1-0.4-0.4-0.4-0.6-0.4
		c-0.8-0.1-1.2-0.8-1-1.2c0.2-0.4,1.1,0.1,1.3-0.2c0.3-0.6,0.9-0.8,1.2-1.3c0.2-0.4-0.3-1.1-0.7-0.5c-0.5,0.7-1.1,0.4-1.4,0.8
		c-0.6,0.8-0.6-0.3-1-0.3c-0.8,0-1.6-0.1-2.4,0c-0.5,0-0.9-0.3-1.3-0.6c-0.5-0.7-1.3-0.4-1.5-1.3c0-0.3-0.2-0.6-0.5-0.8
		c-0.4-0.3-0.8-0.4-0.8,0.1c0,0.9-0.6,1.4-0.5,2.1c0,0.7-0.7,0.5-1.1,0.9c-0.6,0.5-1,1.2-1.9,1.2c-0.5,0-0.9,0-1.3-0.3
		c-0.6-0.4-1.6-0.4-2.5-0.3c-0.7,0.1-0.4,0.5-1.1,0.6c-0.3,0-0.3,0.3-0.5,0.4c-0.4,0.2-0.9-0.1-0.9-0.4c0-0.3,0.4-0.6,0.8-0.7
		C104.3,47.8,104.3,47.3,104.2,47L104.2,47z M88.8,61.2c0.4-0.2,1,0.4,1.2,1.1c0.7,1.3,1.5,2.6,2.2,3.9c0.2,0.3,0,0.8-0.3,0.7
		c-0.3,0-0.5-0.3-0.7-0.6c-0.3-0.8-1-1.5-1.5-2.2C88.8,62.5,88.3,61.5,88.8,61.2L88.8,61.2z M127.4,99.2c-1.6-5.8,1.7-9.6,5.7-10.8
		c4.1-1.3,9-0.7,11.2,4.7c2.2,5.4,1.3,8.2,0.4,10.3c1-0.3,2-0.7,2.9-1l1.8,4.8c-2.5,1-5.1,1.8-7.7,2.6c-0.5-1.6-1-3.6-1.6-5.2
		c1.2-2.1,1-4.8,0.1-7.3c-0.8-2.6-2.3-5.5-5.2-4.5s-2.5,3.8-2,6.4c0.8,2.4,1.7,4.9,4.2,6.5l1.4,4.9c-2.4,0.7-5.4,1.5-7.9,2l-1.1-4.8
		l3.2-1C131.2,105.3,129,105,127.4,99.2L127.4,99.2z M152.5,106l-10-20.8c1.5-0.6,3.1-1.2,4.6-1.8l11.2,8.3l-5.3-11
		c1.6-0.8,3.2-1.5,4.8-2.4l10.1,20.7l-4.5,2.2l-11.7-8.8l5.6,11.5L152.5,106z M71.8,101.4c1-6.2,3.7-10.4,10.9-9.1
		c7.2,1.3,7.9,5.7,6.9,12.1c-1,6.3-4.1,11-10.6,9.9C72.4,113.2,70.8,107.7,71.8,101.4z M50.2,106.5c2.3-7,4.6-14,6.8-21
		c5.1,2,10.1,3.5,15.5,4.9l-6.2,21.3c-1.8-0.5-3.6-1-5.3-1.5L66.1,94l-5.5-1.7l-5.3,16C53.6,107.8,51.9,107.2,50.2,106.5L50.2,106.5
		z M51.3,83.1l-3.6,22.4c-1.7-0.7-3.4-1.4-5.1-2.1c0.3-1.3,0.5-2.6,0.9-3.9l-5.4-2.8l-2.9,3.3c-1.7-0.8-3.4-1.7-5-2.6l15.7-16.8
		C47.7,81.5,49.5,82.3,51.3,83.1z M99.9,30.4c-0.3,0-0.6,0-0.9-0.1c-0.4-0.2-1-0.2-1.1-0.6c-0.1-0.2,0.1-0.4,0.4-0.4
		c0.3,0,0.5,0.2,0.7,0.3c0.4,0.1,1.7,0,2.5,0c0.5,0,0.8,0.3,1.2,0.5c0.3,0.2,1.1-0.5,0.2-0.6c-0.3-0.1-0.9-0.3-1-0.7
		c0-0.2,0.4-0.3,0.7-0.3c0.4,0,0.6-0.1,0.8-0.4c0.2-0.4,2-0.3,2.9-0.1c0.4,0.1,0.5,0.6,0.2,0.9c-0.2,0.2-0.6,0-0.9,0.1
		c-0.3,0.1-0.6,0.5-0.4,0.8c0.2,0.4,0.8,0.4,1.3,0c0.3-0.3,0.7-0.1,1,0.2c0.3,0.3,1,0.1,1.3-0.1c0.9-0.6,2.4-0.5,3.3,0
		c0.4,0.2,0.5,0.5,0.4,0.7c-0.1,0.2-0.4,0.3-0.5,0.6c-0.1,0.2-0.4,0.5-0.7,0.5c-0.3,0-0.7-0.1-0.9-0.4c-0.2-0.2-0.5-0.2-0.9-0.3
		c-0.1,0-0.2-0.4-0.4-0.4c-0.1,0-0.2,0.3-0.3,0.3c-0.2,0.1-0.3,0.3-0.4,0.5c-0.1,0.2-0.8,0.2-1,0.1c-0.2-0.1,0-0.5-0.3-0.5
		c-0.3,0-0.3,0.5-0.5,0.5c-0.3,0.1-0.7,0-0.9,0.4c-0.2,0.3-0.5,0.3-0.9,0.3c-0.8-0.1-1.8-0.3-2.3,0c-0.3,0.2-0.3,0.6-0.1,0.9
		c0.4,0.5,1.5,1.2,2.5,1.4c0.4,0.1,0.4-0.6,0.4-1c0-0.4,0.1-0.8,0.9-1c0.9-0.2,1.8,0,2.8,0.3c0.5,0.1,0.7,0.4,0.6,0.7
		c-0.2,0.2-0.7,0.3-0.8,0.6c0,0.4,0.3,0.9,0.9,0.9c0.8,0,0.9,0.6,1.1,1.1c0.1,0.3,0.3,0.4,0.5,0.5c0.2,0.1,0.2,0.3,0,0.3
		c-0.2,0-0.6,0-0.6,0.3c0,0.3,0.4,0.8,0.8,0.9c0.6,0.1,1.2,0.1,1.7,0.5c0.2,0.2,0.1,0.5-0.1,0.6c-0.3,0.2-0.6,0.4-0.9,0.4
		c-0.3,0-0.5-0.2-0.6-0.4c-0.1-0.3-0.6-0.2-1-0.2c-0.3,0-0.6-0.1-0.7-0.3c-0.3-0.4-0.8-0.7-0.9-1.2c-0.1-0.5-0.6-0.6-1.2-0.6
		c-0.6-0.1-1.2-0.4-1.4-0.9c-0.1-0.2-0.3-0.4-0.4-0.6c-0.1-0.3-0.7-0.2-1,0.1c-0.2,0.2-0.4,0.3-0.6,0.2c-0.5,0-1.1,0.1-1.6,0.1
		c-0.2,0-0.5-0.1-0.6-0.2c-0.9-0.6-0.8-1.2-1-1.2c-0.3-0.1-0.8-0.6-1.3-0.6c-0.5-0.1-1.2-0.5-1.2-0.9c0-0.3,0.2-0.6,0.5-0.8
		c0.3-0.3,0.7-0.4,1.2-0.6C100.4,31.3,101,30.6,99.9,30.4L99.9,30.4z M110.4,24.9c-0.3-0.5-0.4-0.9-0.5-1.5c-0.1-0.6-1.3-1-2.3-1.1
		c-1.4-0.1-2.4-1-3.1-1.6c-0.4-0.4-0.3-0.7,0.2-0.8c0.7-0.1,1.4-0.1,1.9,0.3c0.8,0.5,2.3,1.2,3.9,1.6c0.5,0.1,0.7,0.4,0.8,0.8
		c0.2,0.4,0.7,0.8,1.2,0.9c0.5,0.1,0.3,0.7,0.3,1c0,0.3-0.1,0.6,0,0.9c0.1,0.3,0.5,0.1,1,0.6c0.3,0.3,0.3,1.2,0.1,1.3
		c-0.5,0.3-0.4,0.8-0.8,1.1c-0.3,0.3-0.7,0.2-1.1,0.2c-0.3,0-0.6-0.2-0.9-0.3c-0.9-0.4-1.8-0.9-2.2-1.5c-0.1-0.2-0.2-0.5,0.2-0.6
		c0.6-0.1,1.3,0,1.9,0c0.5,0,0.7-0.4,0.5-0.5C111.2,25.6,110.7,25.4,110.4,24.9L110.4,24.9z M110,115.7l3.6-23.1
		c1.9-0.2,3.8-0.5,5.7-0.9l9.9,21.3c-1.9,0.4-3.7,0.7-5.6,1.1l-6.2-15.4l-2,16.6C113.6,115.4,111.8,115.6,110,115.7L110,115.7z
		 M89.9,115.6l6.9-22.1c2,0,3.9,0,5.9,0l6.7,22.3c-1.9,0.1-3.8,0.2-5.7,0.2l-3.9-16.1L95.3,116C93.5,115.9,91.7,115.8,89.9,115.6
		L89.9,115.6z M27.2,98.9c48.8,26.4,97.4,26.4,145.6,0c1.7,4,3.7,7.9,6.2,11.5c-6.2,19.2-17.1,37-31.2,51.5
		c-13.2,13.7-29.7,25-47.8,31.1c-18.1-6.1-34.6-17.4-47.8-31.1c-14-14.5-25-32.3-31.2-51.5C23.5,106.8,25.6,102.9,27.2,98.9z
		 M95.9,55.3c0.4-0.2,0.6-0.1,1,0.1c0.2,0.1,0.2,0.2,0.2,0.4l0.8,0.5c0.5,0.3,1.3,0.2,2-0.1c0.4-0.3,0.8-0.4,1.2-0.4
		c0.8,0.1,1.2-0.4,1.5-1c0.2-0.4,0.9-0.3,1,0c0,0.5,0,0.9-0.2,1.4c-0.1,0.3-0.2,0.5-0.5,0.6c-0.4,0.1-0.9-0.2-1.4-0.1
		c-0.6,0-0.8,0.5-1.3,0.6c-0.9,0.2-2.2,0.4-2.6,0c-0.6-0.8-1.7-0.4-1.9-1C95.6,55.8,95.7,55.4,95.9,55.3L95.9,55.3z M96.4,49.7
		c0-0.2,0-0.4-0.3-0.4c-0.1-0.1-0.1-0.3,0-0.4c0.3-0.5,1.1-0.6,1.2-0.2c0.1,0.5,0,1,0.1,1.5c0.1,0.3,0.4,0.6,0.2,0.9
		c-0.1,0.5-0.2,1-0.1,1.4c0.1,1-0.5,0.8-0.8,0.8c-0.2,0-0.5-0.4-0.6-0.6c-0.1-0.2-0.1-0.5,0-0.8C96.3,51.5,96.4,49.7,96.4,49.7z
		 M88.7,50.6c0.3-0.1,0.5-0.2,0.8-0.1c0.2,0,0.1,0.1,0.2,0.2c0.5,0.5,2,0.4,2.3,0.1c0.4-0.3,0.6-0.3,0.8-0.1
		c0.2,0.2,0.2,0.5,0.1,0.8c-0.1,0.1-0.1,0.3-0.3,0.3c-0.4,0-0.9,0-1.2,0.2c-0.3,0.2-0.2,0.3-0.3,0.3c-0.1,0-1.2,0-1.3,0
		c-0.2,0-0.2-0.3-0.3-0.3c-0.2-0.1-0.5-0.2-0.7-0.2c-0.4-0.1-0.4-0.5-0.3-0.8C88.5,50.9,88.5,50.7,88.7,50.6L88.7,50.6z M108.1,49.7
		c0.3-0.3,0.8-0.3,1,0.2c0.1,0.4-0.3,1.1-0.8,1.4c-0.2,0.1-1.7,0.2-2.5,0c-0.2-0.1,0-0.4-0.6-0.4h-0.8c-0.4,0-0.5-0.5-0.2-0.7
		c0.6-0.5,1.4-0.1,2.2-0.1C107,50.1,107.8,50.1,108.1,49.7L108.1,49.7z M115.2,28.2c0-0.4,0.2-0.8,0.6-0.8c0.4,0,0.7,0.3,0.7,0.7
		c0,0.4-0.2,0.8-0.6,0.8C115.5,28.9,115.2,28.6,115.2,28.2L115.2,28.2z"/>
	<path id="path87" class="st2" d="M88.8,70.2c-0.1,2.6,0.4,2,0.4,2.9c0,0.4,0,0.9,0.7,1.4l3.6,3.2c0.2,0.2,0.6,0.5,0.5,0.8
		c-0.1,0.5-0.4,0.9-0.7,0.9c-0.7-0.1-1.3-0.5-1.4-0.7c-0.2-0.3-0.1-0.8-0.5-0.9c-0.8-0.5-1.3-1.6-1.9-1.6c-0.6,0.1-0.8,0.5-0.7,0.8
		c0.1,0.6,0.1,1.2,0.4,1.7c0.2,0.4,0.2,0.7,0.2,1.1c-0.1,0.7,0,1.4,0.4,2.1c5.5,0.5,11.2,0.6,16.8,0.4c-0.6-1.2-2-2.4-3.2-2.8
		c-1.1-0.4-1.7-1.1-2.5-1.7c-0.7-0.5-1.5-1-2.2-1.5c-1.8-1.5-2.8-3.1-4-4c-0.5-0.3-0.9-0.7-1.4-1.1c-1.4-1-2.6-2.3-3.5-3.7
		c-0.2-0.2-0.5,0-0.5,0.2c0,0.6,0,1.5,0,1.7C89.3,69.6,88.9,69.7,88.8,70.2z"/>
	<path id="path89" class="st2" d="M105.8,74.6c1.1,0.8,2,2.6,2.1,2.9c0,0.2,0,0.6-0.3,0.8c-0.3,0.1-0.6-0.2-0.9,0
		c-0.2,0.2-0.1,0.8,0,1.2c0.1,0.4,0.5,0.7,0.8,1c0.2,0.2,0.2,0.4,0.1,0.7c0,0.3,0,0.6,0,0.9c1.1-0.1,2.1-0.1,3.2-0.2
		c0.5-0.7,0.3-1.9,0.1-3c0-0.7,0.1-1.2,0.6-1.9c0.6-0.7,0.8-2.5,0.5-3.6c-0.1-0.4-0.4-0.9-0.4-1.3c0-0.7,0.4-0.9,0.5-1.3
		c0.1-0.3,0.1-1,0-1.5c-0.2-1.2-0.5-0.7-0.9-0.1c-1.7,1.9-4.6,4.2-5.1,4.4C105.6,73.7,105.3,74.3,105.8,74.6L105.8,74.6z"/>
</g>
</svg>
