<?xml version="1.0" encoding="utf-8"?>
<!-- Generator: Adobe Illustrator 21.1.0, SVG Export Plug-In . SVG Version: 6.00 Build 0)  -->
<svg version="1.1" id="Layer_1" xmlns="http://www.w3.org/2000/svg" xmlns:xlink="http://www.w3.org/1999/xlink" x="0px" y="0px"
	 viewBox="0 0 200 200" style="enable-background:new 0 0 200 200;" xml:space="preserve">
<style type="text/css">
	.st0{fill-rule:evenodd;clip-rule:evenodd;fill:#F9FD73;}
	.st1{fill-rule:evenodd;clip-rule:evenodd;fill:#A2BEDA;}
	.st2{fill-rule:evenodd;clip-rule:evenodd;fill:#4A7FAD;}
	.st3{fill-rule:evenodd;clip-rule:evenodd;fill:#00539C;}
	.st4{fill-rule:evenodd;clip-rule:evenodd;fill:#FFFFFF;}
	.st5{fill:#FFFFFF;}
	.st6{fill-rule:evenodd;clip-rule:evenodd;fill:#F9FF05;}
</style>
<g>
	<path class="st0" d="M146.2,15.1c5.5-0.1,11.4-0.1,16.9,0C157.5,15.1,151.8,15.1,146.2,15.1z"/>
	<path class="st0" d="M49.4,15.2c15.6-0.2,31.5,0,47.2-0.1C81,15.3,65.1,15.1,49.4,15.2z"/>
	<path class="st1" d="M49.2,18c1.9-0.1,4.3-0.1,6.1,0c0,0-0.1,0-0.1,0C53.2,18,51.2,18,49.2,18C49.2,18,49.2,18,49.2,18z"/>
	<path class="st1" d="M57.7,18c-0.6,0.1-1.6-0.2-2,0.2C55.4,17.7,57.5,17.9,57.7,18z"/>
	<path class="st1" d="M63.3,18c0.2-0.1,0.8-0.1,1.2-0.1c0.4,0,1-0.1,0.9,0.2C64.9,17.8,63.9,18.1,63.3,18z"/>
	<path class="st1" d="M66.1,18c0.2,0.1,1.9-0.4,2.2-0.1c0.2,0.2,0,1.8,0,2.4c0,2.2,0.1,5.3-0.1,7.1c0,0,0-0.1,0-0.1
		c0-3.1,0-6.2,0-9.3C67.5,18,66.8,18,66.1,18C66.1,18,66.1,18,66.1,18z"/>
	<path class="st1" d="M77.1,18c1.9-0.1,4.3-0.1,6.1,0c0,0-0.1,0-0.1,0C81.1,18,79.1,18,77.1,18C77.1,18,77.1,18,77.1,18z"/>
	<path class="st1" d="M84.3,18c0.5-0.1,1.6-0.1,2.2,0c0,0-0.1,0-0.1,0C85.7,18,85,18,84.3,18z"/>
	<path class="st1" d="M130.5,18C130.4,18,130.4,18,130.5,18c-0.6,0.3-1.6-0.4-2.1,0c-0.3,0.2-0.1,1.7-0.1,2.3c0,2.3,0,5.1,0,7
		c0,0,0,0.1,0,0.1c-0.2-3,0-6.3-0.1-9.5C128.9,17.9,129.9,17.8,130.5,18z"/>
	<path class="st1" d="M138.9,18c0.2,0.1,1.9-0.4,2.2-0.1c0.2,0.2,0,2.8,0,3.2c0,1.4,0.1,2.4-0.1,3.1c0-0.7,0-1.8,0-3.1
		c0-0.4,0.2-2.9,0-3.1C140.7,17.6,139.3,18.2,138.9,18C139,18,138.9,18,138.9,18z"/>
	<path class="st1" d="M142.5,18c1.2-0.1,3-0.1,4.3,0C145.3,18,143.9,18,142.5,18C142.5,18,142.5,18,142.5,18z"/>
	<path class="st2" d="M55.2,18C55.2,18,55.3,18,55.2,18c0,0.6,0.2,1.4,0,1.9C55.2,19.2,55.2,18.6,55.2,18z"/>
	<path class="st3" d="M66.1,18c0.7,0,1.4,0,2.1,0c0,3.1,0,6.2,0,9.3c-0.7,0-1.4,0-2.1,0C66.1,24.2,66.1,21.1,66.1,18z"/>
	<path class="st2" d="M77.1,18C77.1,18,77.1,18,77.1,18c0.1,0.7,0,1.5,0.2,2C76.9,19.6,77.2,18.6,77.1,18z"/>
	<path class="st2" d="M83.1,18C83.1,18,83.2,18,83.1,18c0,0.6,0.2,1.4,0,1.9C83.1,19.2,83.1,18.6,83.1,18z"/>
	<path class="st2" d="M86.4,18C86.4,18,86.4,18,86.4,18c0.1,1.1,0,2.4,0.2,3.3c0,0.1-0.1,0.1-0.1,0.2C86.1,20.8,86.6,18.9,86.4,18z"
		/>
	<path class="st3" d="M130.4,18c0.3,2.2-0.4,4.9,0,7c0,0.1,0.1,0.1,0.2,0.1c1.1,0,2.1,0,3.2,0c0,0.7,0,1.5,0,2.2c-1.8,0-3.6,0-5.4,0
		c0-1.8,0-4.7,0-7c0-0.6-0.2-2.1,0.1-2.3C128.9,17.5,129.9,18.3,130.4,18z"/>
	<path class="st2" d="M130.4,18C130.4,18,130.4,18,130.4,18c0.1,2.3,0,4.8,0.2,7c0,0,0,0.1,0,0.1c-0.1,0-0.1,0-0.2-0.1
		C130,22.9,130.7,20.2,130.4,18z"/>
	<path class="st2" d="M134.4,18C134.4,18,134.5,18,134.4,18c0.1,1.9,0.1,3.8,0.1,5.7C134.3,21.9,134.5,19.9,134.4,18z"/>
	<path class="st2" d="M138.9,18C138.9,18,139,18,138.9,18c0,2,0.2,4.2,0,6C138.9,22,138.9,20,138.9,18z"/>
	<path class="st2" d="M144.7,19.8C144.7,19.9,144.7,19.9,144.7,19.8c0,0.6,0,1.2,0,1.8C144.6,21.2,144.6,20.2,144.7,19.8z"/>
	<path class="st2" d="M96.7,22c0.1,0.2,0.1,1,0,1.2C96.7,22.8,96.7,22.4,96.7,22z"/>
	<path class="st2" d="M93.9,22.2c0,0.3,0,0.7,0,1C93.7,23,93.7,22.3,93.9,22.2z"/>
	<path class="st1" d="M98.8,22.2c0.1,0.1,0.1,0.7,0,0.8C98.8,22.7,98.8,22.4,98.8,22.2z"/>
	<path class="st2" d="M144.7,23.4C144.7,23.4,144.7,23.4,144.7,23.4c-0.1,0.6,0.1,1.3-0.1,1.6C144.7,24.5,144.5,23.8,144.7,23.4z"/>
	<path class="st1" d="M130.5,25C130.5,25,130.5,25,130.5,25c1,0,2.3-0.2,3.2,0C132.7,25,131.6,25,130.5,25z"/>
	<path class="st1" d="M48.8,25.3c0,0.6,0,1.3,0,1.9c0,0,0,0.1,0,0.1C48.7,26.9,48.7,25.8,48.8,25.3z"/>
	<path class="st2" d="M76.7,27.1c-0.1-0.4-0.1-1.3,0-1.7C76.7,26,76.7,26.5,76.7,27.1z"/>
	<path class="st2" d="M71.6,25.8c0.6-0.1,1.7-0.1,2.3,0C73.2,25.8,72.4,25.8,71.6,25.8z"/>
	<path class="st2" d="M74.8,27.2c0.1-0.1,0.7-0.1,0.8,0C75.3,27.2,75.1,27.2,74.8,27.2z"/>
	<path class="st4" d="M74.8,27.3C74.8,27.2,74.8,27.2,74.8,27.3c0.3-0.1,0.5-0.1,0.8-0.1c0,0,0,0.1,0,0.1
		C75.3,27.3,75.1,27.3,74.8,27.3z"/>
	<path class="st2" d="M69.1,27.3c0.7,0,1.4,0,2.2,0C70.7,27.4,69.6,27.4,69.1,27.3z"/>
	<path class="st2" d="M91.6,27.3c-0.7,0.1-1.9,0.1-2.6,0C89.8,27.3,90.7,27.3,91.6,27.3z"/>
	<path class="st2" d="M111.5,27.3c0.7,0,1.4,0,2.2,0c0,0,0,0.1,0,0.1C112.9,27.3,112,27.4,111.5,27.3z"/>
	<path class="st2" d="M127.5,27.3c-0.7,0.1-1.9,0.1-2.6,0C125.8,27.3,126.7,27.3,127.5,27.3z"/>
	<path class="st2" d="M138.4,27.4c-0.2,0.1-0.9,0.1-1.1,0C137.7,27.4,138.1,27.4,138.4,27.4z"/>
	<path class="st2" d="M76.7,28.9c0.1,0.1,0.1,0.8,0,0.9C76.7,29.5,76.7,29.2,76.7,28.9z"/>
	<path class="st0" d="M49.5,31.6c33.1-0.1,66.7-0.1,99.8,0C116.1,31.6,82.8,31.6,49.5,31.6z"/>
	<path class="st2" d="M153.8,45.8c-0.1-0.1-0.1-0.7,0-0.9C153.8,45.2,153.8,45.5,153.8,45.8z"/>
	<path class="st1" d="M155,78c0.1,0.1,0.1,0.7,0,0.8C155,78.5,155,78.2,155,78z"/>
	<path class="st2" d="M53.6,78.6c0.1,0.2,0.1,0.8,0,1C53.6,79.2,53.6,78.9,53.6,78.6z"/>
	<path class="st2" d="M151.5,82.8c-0.1,0.1-0.7,0.1-0.8,0C151,82.8,151.3,82.8,151.5,82.8z"/>
	<path class="st2" d="M49.5,83.7c-0.2,0.1-0.8,0.1-1,0C48.8,83.7,49.1,83.7,49.5,83.7z"/>
	<path class="st0" d="M97.3,85.8c0.2,0,0.7-0.1,0.8,0.1C97.8,85.8,97.4,86,97.3,85.8z"/>
	<path class="st0" d="M98.1,89c-0.1,0.1-0.7,0.1-0.9,0C97.5,89,97.8,89,98.1,89z"/>
	<path class="st2" d="M100.9,95.3c0.3,0,0.6,0,0.9,0C101.7,95.4,101.1,95.4,100.9,95.3z"/>
	<path class="st0" d="M46.6,105.5c-3.3,0.2-6.9,0-10.3,0.1c0,8.1,0,16.2,0,24.3c43.1,0,86.3,0,129.4,0c0-6.7,0-14.2,0-21.2
		c0-0.8,0.2-2.8,0-3.1c-0.2-0.2-2.4-0.1-2.9-0.1c-3.2,0-6.3,0.1-9.1-0.1c4,0,8.1,0,12.1,0c0,8.2,0,16.3,0,24.5
		c-43.2,0-86.4,0-129.6,0c0-8.2,0-16.3,0-24.5C39.7,105.5,43.1,105.5,46.6,105.5z"/>
	<path class="st2" d="M77.1,108.6c0,6.5,0,13,0,19.5c0,0-0.1,0-0.1,0C77,121.6,76.9,114.9,77.1,108.6z"/>
	<path class="st2" d="M90.2,108.6c0.3,0,0.7-0.1,0.9,0.1C90.8,108.6,90.4,108.7,90.2,108.6z"/>
	<path class="st2" d="M110,108.6c0.2,2.3,0,4.9,0.1,7.3C109.9,113.6,110.1,111,110,108.6z"/>
	<path class="st2" d="M84.4,112.5c0,1.3,0,2.6,0,3.9c0,0,0,0.1,0,0.1C84.3,115.3,84.3,113.7,84.4,112.5z"/>
	<path class="st2" d="M98.4,113.6c0.1,0.1,0.1,0.7,0,0.8C98.4,114.1,98.4,113.9,98.4,113.6z"/>
	<path class="st2" d="M155.7,117c-0.1-0.1-0.1-0.7,0-0.8C155.7,116.5,155.7,116.8,155.7,117z"/>
	<path class="st2" d="M59,120.6c1.7,0,3.5,0,5.2,0C62.6,120.7,60.5,120.7,59,120.6z"/>
	<path class="st2" d="M110.1,123.3c0,1.6,0,3.2,0,4.7c0,0-0.1,0-0.1,0C110.1,126.5,109.9,124.7,110.1,123.3z"/>
	<path class="st1" d="M56.3,128c-1.1,0.2-2.6,0-3.8,0.1c-1.1,0-2.9,0.1-3.6-0.1C51.3,128,53.8,128,56.3,128z"/>
	<path class="st1" d="M77,128C77,128,77,128,77,128c2.5,0,4.9,0,7.4,0c0,0,0.1,0,0.1,0C82.1,128.2,79.3,128.2,77,128z"/>
	<path class="st1" d="M102.7,128c2.4,0,4.9,0,7.3,0c0,0,0.1,0,0.1,0C107.8,128.2,105,128.2,102.7,128z"/>
	<path class="st2" d="M31.6,134.6c4.3,0.1,8.9-0.1,13.1,0.1C40.4,134.6,35.9,134.8,31.6,134.6z"/>
	<path class="st2" d="M158.7,134.7c3.8-0.2,8,0,12-0.1C166.8,134.8,162.7,134.6,158.7,134.7z"/>
	<path class="st0" d="M51.3,136.3c5.6-0.2,11.6,0,17.4-0.1c0,0,0,0.1,0,0.1C62.9,136.3,57.1,136.3,51.3,136.3z"/>
	<path class="st2" d="M101.2,189.2c0.3,0,0.7,0,1,0C102,189.3,101.3,189.3,101.2,189.2z"/>
	<path class="st2" d="M100,194.9c-0.4-0.1-0.9,0.1-1.2-0.1C99.2,194.9,99.8,194.7,100,194.9z"/>
	<path class="st2" d="M103.4,194.9c0.2-0.2,0.8,0,1.2-0.1C104.3,195,103.8,194.9,103.4,194.9z"/>
	<path class="st1" d="M25.9,95.1c0,15.1,0,30.1,0,45.2c3.2,0.1,6.8,0.1,10.3,0.1c1.1,0,2.7-0.1,3.4,0.2c-4.4-0.2-9.4,0.1-13.8-0.2
		C25.9,125.3,25.7,110,25.9,95.1z"/>
	<path class="st1" d="M50.2,167.6c-0.3-0.2-0.5-0.5-0.6-0.9C49.8,167,49.9,167.4,50.2,167.6C50.2,167.6,50.2,167.6,50.2,167.6z"/>
	<path class="st1" d="M53.3,171.9c-0.1,0.1-0.9-0.9-0.5-0.7C53,171.4,53.2,171.6,53.3,171.9z"/>
	<path class="st1" d="M55.1,174c-0.3-0.2-0.6-0.4-0.7-0.8C54.7,173.4,54.8,173.8,55.1,174C55.1,173.9,55.1,174,55.1,174z"/>
	<path class="st1" d="M59.7,178.6c-1.3-0.9-2.7-2.5-3.9-3.8C57.1,176.1,58.3,177.4,59.7,178.6z"/>
	<path class="st1" d="M61.1,179.8c-0.2,0-0.9-0.6-0.9-0.8C60.5,179.3,60.8,179.6,61.1,179.8z"/>
	<path class="st1" d="M61.3,180c0.2,0.2,0.5,0.3,0.7,0.6C61.8,180.5,61.5,180.3,61.3,180z"/>
	<path class="st1" d="M143.1,179.2c0,0.1-1,1-0.9,0.7C142.5,179.6,142.8,179.4,143.1,179.2z"/>
	<path class="st1" d="M148,174.3c0.3-0.1-0.5,0.7-0.7,0.9c-0.8,0.9-2.3,2.3-3.2,3C145.4,177,146.8,175.7,148,174.3z"/>
	<path class="st1" d="M150,172c-0.5,0.6-1.1,1.5-1.6,1.9C148.9,173.3,149.4,172.7,150,172C149.9,172,150,172,150,172z"/>
	<path class="st1" d="M152.6,168.6c0.2-0.3,0.3-0.6,0.6-0.9C153.1,168,152.9,168.4,152.6,168.6z"/>
	<path class="st1" d="M163.8,140.6c0-0.1,0-0.2,0-0.2c4.2,0,8.5,0,12.7,0C172.5,140.6,167.7,140.2,163.8,140.6z"/>
	<path class="st3" d="M55.2,19.8c-1.2,1.8-2.5,3.5-3.7,5.3c-0.1,0-0.1,0.1-0.1,0.2c1.3,0,2.6,0,4,0c0,0.6,0,1.3,0,1.9
		c-2.2,0-4.3,0-6.5,0c0-0.6,0-1.3,0-1.9c1.2-1.8,2.5-3.5,3.7-5.3c-1.1,0-2.2,0-3.3,0c-0.2-0.5,0-1.4-0.1-2c2,0,4,0,6,0
		C55.2,18.6,55.2,19.2,55.2,19.8z"/>
	<path class="st1" d="M59.4,18.1c0.2-0.3,2.1-0.5,2.2,0.1C61.3,17.8,60,18,59.4,18.1C59.5,18.1,59.4,18.1,59.4,18.1z"/>
	<path class="st2" d="M74.3,27.3c0.2-0.1,0.5,0.1,0.5,0c0.3,0,0.5,0,0.8,0c0.3,0,0.7,0,1,0c-0.2,0.2-0.7,0-1,0.1
		c-0.3,0-0.7-0.1-0.9,0.1C74.8,27.2,74.3,27.5,74.3,27.3z"/>
	<path class="st3" d="M83.1,19.8c-1.2,1.9-2.5,3.5-3.7,5.3c-0.1,0-0.1,0.1-0.1,0.2c1.3,0,2.6,0,4,0c0,0.6,0,1.3,0,1.9
		c-2.2,0-4.3,0-6.5,0c0-0.1,0-0.1,0-0.2c0-0.6,0-1.1,0-1.7c1.1-1.9,2.6-3.5,3.7-5.4c-1.1,0-2.2,0-3.3,0c-0.2-0.5,0-1.4-0.1-2
		c2,0,4,0,6,0C83.1,18.6,83.1,19.2,83.1,19.8z"/>
	<path class="st1" d="M88.5,18c0.4-0.3,2.9-0.2,2.9,0C90.6,17.9,89.3,17.9,88.5,18z"/>
	<path class="st1" d="M99.1,18c0.1-0.3,1.6-0.2,2-0.1C100.5,18,99.7,17.9,99.1,18z"/>
	<path class="st1" d="M111.1,22.6c0.2,0.2,0.3,0.5,0.4,0.9C111.3,23.2,111.1,23,111.1,22.6z"/>
	<path class="st1" d="M113.6,27.3c0.1-1.5-0.2-2.7,0-3.9c0.2-0.9,1.1-1.9,1.3-2.6c-0.3,1-0.8,1.7-1.2,2.6
		C113.7,24.7,113.8,26.2,113.6,27.3C113.6,27.3,113.6,27.3,113.6,27.3z"/>
	<path class="st1" d="M116.2,18.2C116.2,18.1,116.2,18.1,116.2,18.2c-0.5-0.3-2.4-0.5-2.5,0.2c-0.1-0.3,0.2-0.3,0.2-0.5
		c0.8,0,1.7,0,2.5,0C116.4,18.1,116.3,18.1,116.2,18.2C116.3,18.2,116.2,18.2,116.2,18.2z"/>
	<path class="st1" d="M102.9,18.2c0.1-0.6,1.6-0.3,2.1-0.2C104.3,18.1,103.2,17.7,102.9,18.2z"/>
	<path class="st1" d="M124.5,18.1c-0.2-0.4,3.2-0.3,2.9-0.1C126.6,17.9,125.3,17.9,124.5,18.1C124.6,18.1,124.5,18.1,124.5,18.1z"/>
	<path class="st4" d="M96.6,15.1c16.5,0,33.1,0,49.6,0c5.6,0,11.3,0,16.9,0c-3.1,30.1-6.3,60.2-9.4,90.4c2.8,0.1,5.9,0.1,9.1,0.1
		c0.5,0,2.8-0.2,2.9,0.1c0.2,0.3,0,2.3,0,3.1c0,6.9,0,14.5,0,21.2c-43.1,0-86.3,0-129.4,0c0-8.1,0-16.2,0-24.3
		c3.4-0.1,7,0.1,10.3-0.1c-3.4-30.2-6.9-60.2-10.3-90.3c4.4,0,8.7,0,13.1,0C65.1,15.1,81,15.3,96.6,15.1z M134.5,23.7
		c0.1,2.1,0.8,3.6,2.9,3.7c0.2,0.1,0.9,0.1,1.1,0c1.8-0.2,2.4-1.5,2.6-3.3c0.1-0.7,0.1-1.7,0.1-3.1c0-0.4,0.2-3,0-3.2
		c-0.3-0.3-2.1,0.2-2.2,0.1c0,2,0,4,0,6c0,0.2,0,0.3-0.1,0.4c-0.2,0.3-0.3,0.6-0.6,0.8c-0.9,0.3-1.5-0.3-1.5-1.1c0-0.7,0-1.8,0-3.1
		c0-0.4,0.2-2.9,0-3.1c-0.3-0.3-2.1,0.2-2.2,0.1C134.5,19.9,134.3,21.9,134.5,23.7z M107.3,27.3c0.5-3,0.9-6.2,1.6-9.1
		c0.8,1.4,1.5,3,2.2,4.5c0,0.4,0.2,0.6,0.4,0.9c0,1.3,0,2.5,0,3.8c0.6,0.2,1.5,0,2.2,0.1c0.2-1.2,0-2.7,0.1-4
		c0.4-0.9,0.9-1.7,1.2-2.6c0.4-0.9,0.9-1.7,1.2-2.6c0,0,0.1,0,0.1,0c0-0.1,0.1-0.1,0.1-0.3c-0.8,0-1.7,0-2.5,0
		c0,0.2-0.2,0.3-0.2,0.5c-0.4,0.8-0.7,1.8-1.2,2.6c-0.5-0.9-0.9-2-1.3-2.9c-1.2-0.3-3.2-0.2-4.5-0.1c-0.3,1.7-0.4,3.5-0.8,5
		c-0.2-1.8-0.7-3.3-0.9-5c0,0-0.1,0-0.1,0c-0.5,0-2-0.4-2.1,0.2c-0.3,1.6-0.6,3.3-1,4.8c-0.2-1.7-0.5-3.4-0.7-5
		c-0.4-0.1-1.9-0.2-2,0.1c0.5,3.1,1,6.1,1.5,9.1c0.4,0.3,1.6,0.2,2.1,0.1c0.6-1.7,0.7-3.9,1.3-5.7c0.3,1.9,0.8,3.7,1.1,5.6
		C105.5,27.5,106.8,27.4,107.3,27.3z M98.8,22.2c0.1-3-2-5.2-4.9-4.2c-3.1,1.1-3,8.2-0.1,9.3c3.1,1.2,5.1-1.4,5-4.3
		C99,22.8,99,22.2,98.8,22.2z M49.2,18c0.1,0.6-0.2,1.6,0.2,2c1.1,0,2.2,0,3.3,0c-1.2,1.8-2.5,3.5-3.7,5.3c-0.1,0.5-0.1,1.5,0,2
		c2.2,0,4.3,0,6.5,0c0.1-0.5,0.1-1.6,0-2.1c-1.3-0.1-2.7,0.1-3.9-0.1c1.2-1.8,2.5-3.5,3.7-5.3c0.2-0.5,0-1.3,0.1-1.9
		C53.4,17.8,51,17.8,49.2,18z M55.7,18.1c0.5,3.1,1,6.1,1.5,9.1c0,0,0.1,0,0.1,0c0.5,0.1,1.7,0.2,2.1-0.1c0.4-1.8,0.7-3.7,1.2-5.5
		c0.5,1.8,0.8,3.7,1.2,5.5c0.4,0.3,1.6,0.2,2.2,0.1c0.5-3.1,1-6.1,1.5-9.1c0.2-0.4-0.4-0.2-0.9-0.2c-0.4,0-0.9,0-1.2,0.1
		c-0.3,1.6-0.4,3.5-0.8,5c-0.3-1.6-0.6-3.1-0.9-4.7c-0.1-0.5-1.9-0.4-2.2-0.1c-0.3,1.6-0.6,3.3-1,4.8c-0.2-1.7-0.5-3.3-0.7-5
		C57.5,17.9,55.4,17.7,55.7,18.1z M66.1,18c0,1.9,0,4.8,0,7.1c0,0.6-0.2,2.1,0.1,2.3c0.5,0.4,1.6-0.3,2.1,0c0.1-1.7,0.1-4.8,0.1-7.1
		c0-0.6,0.2-2.2,0-2.4C68,17.5,66.2,18.1,66.1,18z M71.6,18c-0.8,3.1-1.7,6.2-2.6,9.3c0.5,0.1,1.6,0.1,2.2,0
		c0.2-0.4,0.2-1.1,0.4-1.5c0.8,0,1.6,0,2.3,0c0.2,0.4,0.2,1,0.4,1.5c0,0.2,0.4-0.1,0.4,0.2c-0.6,1.6,0.4,3.5,2,2.5c0,0,0-0.1,0-0.1
		c0.1-0.1,0.1-0.8,0-0.9c-1,0.5-1.4-0.6-1.2-1.6c0.3,0,0.8,0.1,1-0.1c-0.8-3.1-1.7-6.1-2.6-9.2C73.6,17.7,72.2,17.9,71.6,18z
		 M77.1,18c0.1,0.6-0.2,1.6,0.2,2c1.1,0,2.2,0,3.3,0c-1.2,1.9-2.6,3.5-3.7,5.4c-0.1,0.4-0.1,1.3,0,1.7c0,0.1,0,0.1,0,0.2
		c2,0.2,4.4,0,6.5,0.1c0.1-0.5,0.1-1.6,0-2.1c-1.3-0.1-2.7,0.1-3.9-0.1c1.2-1.8,2.6-3.5,3.7-5.3c0.2-0.5,0-1.3,0.1-1.9
		C81.3,17.8,78.9,17.8,77.1,18z M84.3,18c0,3.1,0,6.2,0,9.3c0.5,0.2,1.4,0,2.1,0.1c0.2-0.6,0-1.6,0.1-2.3c0.3-0.5,0.6-1.1,1.1-1.5
		c0.5,1.3,0.9,2.5,1.4,3.7c0,0,0.1,0,0.1,0c0.7,0.1,1.9,0.1,2.6,0c-0.8-2-1.8-3.8-2.6-5.8c0.8-1.1,1.6-2.2,2.4-3.4
		c0-0.2-2.4-0.3-2.9,0c-0.6,1.1-1.4,2.1-2,3.3c-0.2-1,0-2.2-0.1-3.3C85.9,17.8,84.8,17.8,84.3,18z M120.2,18c0,3.1,0,6.2,0,9.3
		c0.5,0.1,1.8,0.2,2.2-0.1c-0.2-1.8,0.2-2.9,1.1-3.6c0.5,1.2,1,2.5,1.4,3.7c0,0,0.1,0,0.1,0c0.7,0.1,1.9,0.1,2.6,0
		c-0.8-2-1.7-3.8-2.6-5.8c0.8-1.1,1.6-2.2,2.4-3.4c0.4-0.2-3.1-0.3-2.9,0.1c-0.7,1.1-1.4,2.2-2.1,3.3c0-1.1,0-2.2,0-3.3
		C122,17.7,120.8,17.9,120.2,18z M128.3,27.3c0.6,0,1.6,0,2.8,0c0.8,0,2.4,0.3,2.7-0.1c0.4-0.4-0.2-1.7-0.1-2.2
		c-0.9-0.2-2.1,0-3.2-0.1c-0.2-2.2,0-4.7-0.1-7c-0.6-0.2-1.5,0-2.2-0.1C128.3,21,128.1,24.3,128.3,27.3z M142.5,18c0,1.9,0,4.8,0,7
		c0,0.5-0.2,2.1,0,2.3c0.2,0.3,1.5,0.1,1.9,0.1c0.8,0,1.4,0.1,1.9-0.1c3,0.5,3.3-4.3,1.2-5c1.7-0.7,1.4-4.4-0.8-4.3
		C145.5,17.8,143.7,17.8,142.5,18z M49.5,31.6c2.8,24.3,6.2,48.8,9.2,73.2c27.6,0.2,55.6,0,83.4,0.1c2.5-24.3,4.9-48.8,7.3-73.2
		c0,0-0.1,0-0.1,0C116.3,31.5,82.6,31.5,49.5,31.6z M154.8,39.6c1.1-0.2,1.5-1.2,2-2.3c0.1-0.3,0.5-2.1,1.2-1.9c1,0.2,0.1,2.5-0.8,2
		c0,0.8-0.1,1.5-0.1,2.3c1-0.1,1.3-0.1,1.7-0.5c1.6-1.3,1.6-6.4-1.2-6.3c-0.8,0-1.5,0.5-1.9,1.2c-0.6,1-0.8,3-1.8,3
		c-1.4,0-0.6-2.9,0.8-2.4c0-0.9,0.1-1.5,0.1-2.4C150.6,31.9,150.4,40.4,154.8,39.6z M48.7,37.2c-2.8,0.4-5.7,0.8-8.4,1.2
		c0.1,1,0.2,1.9,0.3,2.9c2.9-0.3,5.6-0.8,8.4-1.2C49,39.4,48.8,38.1,48.7,37.2z M153.8,45.8c-0.1,2,2.7,2.9,4.1,1.8
		c1.4-1.1,0.9-4,1.3-6.1c-2.6-0.3-5.3-0.7-8-0.9c0,0.9-0.2,1.6-0.2,2.5c0.9,0.2,2,0.2,2.9,0.4c-0.1,0.5-0.2,1-0.2,1.6
		C153.7,45,153.7,45.7,153.8,45.8z M49.1,41.3c-1.6,1.4-3.1,3-4.8,4.3c-1.2-1-2.2-2-3.5-2.9c0,1.4,0.3,2.6,0.4,3.9
		c1.2,0.8,2.3,1.7,3.5,2.6c-1,0.2-2.1,0.3-3.1,0.5c0,1,0.2,2,0.3,2.9c2.9-0.3,5.6-0.8,8.4-1.2c0-1.1-0.2-2-0.3-3
		c-0.7,0.1-1.3,0.2-2,0.3c-0.6-0.4-1.1-0.9-1.6-1.3c1.1-0.9,2.3-1.6,3.3-2.6C49.3,43.7,49.5,42.2,49.1,41.3z M150.4,50.3
		c-1.3,2-0.7,5.3,1.1,6.3c1.8,1,4.7,0.9,5.9-1c0.6-0.9,0.8-2.5,0.7-3.3c-0.2-2.5-2.3-3.8-5-3.5C151.7,48.9,150.8,49.7,150.4,50.3z
		 M50.9,60.4c1-2.1,0-6.1-1.8-6.9c-2.7-1.1-3.5,1.5-3.7,3.6c-0.1,0.7,0,2.3-0.7,2.4c-0.5,0-0.9-0.8-0.7-1.7c0.2-0.6,0.9-0.7,0.9-1
		c-0.2-0.8-0.3-1.7-0.5-2.6c-3.3,0.2-2.6,7.1-0.2,7.9c2.5,0.8,3-1.7,3.3-3.6c0.1-0.9,0.1-2.3,1-2.3c0.9,0,1.2,1.5,0.8,2.3
		c-0.3,0.6-0.9,0.4-1.1,0.9c0.2,0.9,0.3,1.9,0.5,2.7C49.8,61.6,50.5,61.3,50.9,60.4z M149.3,58c-0.2,0.7-0.3,1.6-0.3,2.5
		c1,0.3,2.2,0.2,3.2,0.5c-0.3,1.6-2.4,1.4-3.6,2.2c0,1-0.2,1.9-0.3,2.8c1.4-0.6,3.2-0.8,3.9-2.1c0,2,2.5,2.8,3.7,1.7
		c1.4-1.2,0.8-4.5,1.3-6.6C154.5,58.6,151.9,58.3,149.3,58z M48.1,65.6c-0.4-0.9-0.8-1.7-1.7-1.9c-4.4-0.9-2.5,6.4-2.2,9.1
		c2.7-0.5,5.6-0.8,8.4-1.2c0-1.1-0.2-2-0.3-3c-1.2,0.1-2.4,0.5-3.5,0.4c-0.1-1,0.6-1.5,1.3-2c0.5-0.4,1.6-1,1.8-1.6
		c0.2-0.9-0.4-2.2-0.5-3.3C50.3,63.2,48.7,63.8,48.1,65.6z M154.3,66.7c0,0.9-0.1,1.7-0.3,2.5c-2-0.2-4-0.4-5.9-0.7
		c-0.2,0.8-0.3,1.6-0.3,2.6c2,0.2,4.2,0.3,6,0.8c-0.1,0.8-0.2,1.6-0.3,2.4c0.6,0.1,1.3,0.2,2,0.2c0.3-2.5,0.6-5,0.9-7.5
		C155.6,66.8,155,66.8,154.3,66.7z M53.6,78.6c0.2-4-3.4-6-6.6-4.4c-3.4,1.7-2.9,9.2,1.5,9.5c0.2,0.1,0.8,0.1,1,0
		c2.5-0.2,3.9-1.6,4.1-4.1C53.7,79.4,53.7,78.7,53.6,78.6z M155,78c0.1-3.8-5.9-4.8-7.7-1.9c-1.7,2.7-0.3,7.1,3.4,6.7
		c0.1,0.1,0.7,0.1,0.8,0c2.3-0.2,3.3-1.7,3.5-4C155.2,78.6,155.2,78,155,78z M146.1,84.4c0,0.9-0.2,1.6-0.2,2.5
		c1.6,0.6,3.2,1.2,4.7,1.9c-1.7,0.3-3.3,0.6-5,0.8c-0.1,0.8-0.2,1.7-0.3,2.5c2.5,0.9,5.2,1.7,7.7,2.7c-0.8,0.4-1.5,0.9-2.4,1.3
		c-0.6,0.3-2,1.2-2.6,1.2c-1,0.1-2-0.5-3.3-0.4c-0.2,0.8-0.2,1.7-0.3,2.5c1.1,0.2,2.2,0.3,3.3,0.4c1.4,1.2,2.8,2.5,4.3,3.6
		c0-1,0.2-1.8,0.3-2.7c-0.8-0.6-1.7-1.2-2.5-1.9c0.9-0.4,1.9-0.8,2.9-1.3c0.1-1.8,0.4-3.4,0.5-5.1c-1.4-0.4-2.9-0.7-4.1-1.4
		c1.5-0.1,2.9-0.5,4.3-0.6c0.1-0.8,0.2-1.6,0.3-2.4c-1.4-0.6-2.9-1-4.1-1.8c1.5,0,2.8-0.2,4.3-0.2c0.1-0.7,0.5-1.8,0.2-2.4
		C151.5,83.8,148.8,84.1,146.1,84.4z M54,84.5c-2.7,0.5-5.5,0.8-8.3,1.2c0,1.4,0.3,2.6,0.4,4c1.8,0.2,3.6,0.4,5.3,0.8
		c-1.7,0.7-3.3,1.4-4.9,2.2c0.1,1.3,0.2,2.7,0.5,3.9c2.9-0.3,5.6-0.8,8.4-1.2c-0.2-0.8-0.2-1.7-0.3-2.5c-2.1,0.3-4.3,0.7-6.3,0.9
		c2.1-0.8,4-1.8,6-2.6c0-0.8-0.2-1.5-0.2-2.2c-2.1-0.4-4.4-0.5-6.4-1c2.1-0.2,4.1-0.6,6.1-0.9C54.3,86.2,54.4,85.2,54,84.5z
		 M74.5,128c-2.8-6.6-5.9-13-8.8-19.5c-2.7,0-5.3,0-8,0c-3,6.5-6,12.9-8.8,19.5c0.8,0.2,2.5,0,3.6,0.1c1.2-0.1,2.7,0.1,3.8-0.1
		c0.4-1.1,0.7-2.2,1.2-3.2c2.8,0,5.5,0,8.3,0c0.4,1,0.7,2,1.1,3c0.2,0.5,1.2,0.1,1.8,0.2c0.7,0,1.3,0,2,0
		C71.8,128.1,73.7,128.2,74.5,128z M77,128c2.3,0.1,5.1,0.1,7.4,0c0-2.6,0-5.2,0-7.8c0.4,0,0.7,0,1.1,0c2.1,0.3,2.9,2.3,4,3.9
		c0.9,1.3,1.7,2.6,2.4,3.7c0.4,0.7,3.1,0.1,4.1,0.3c1.4-0.1,3,0.1,4.3-0.1c-2.3-3.1-3.4-7.4-7.5-8.6c3-0.6,5.3-1.8,5.6-5
		c0.1-0.1,0.1-0.7,0-0.8c-0.3-3.7-3.3-4.9-7.3-5c-0.1-0.2-0.6,0-0.9-0.1c-4.4,0-8.8,0-13.2,0C76.9,114.9,77,121.6,77,128z
		 M102.7,128c2.3,0.1,5.1,0.1,7.4,0c0-1.6,0-3.2,0-4.7c1.3-1.1,2.4-2.2,3.8-3.2c1.6,2.6,3.3,5.3,5,7.9c3.8,0.1,8.4,0.1,12.4,0.1
		c1.4,0,3.4,0.1,4.2-0.2c0.4-1,0.7-2.2,1.2-3.1c2.8,0,5.5,0,8.3,0c0.3,1.1,0.7,2.1,1.1,3.1c0.8,0.3,2.5,0.2,3.8,0.2
		c1.3,0,2.7,0,3.9,0c0.1,0,0.1-0.1,0-0.2c-2.9-6.5-5.9-12.9-8.8-19.4c-2.7,0-5.4,0-8.1,0c-2.9,6.5-5.9,12.9-8.8,19.4
		c-0.1,0-0.1,0-0.2,0c-2.9-4.1-6-8-8.9-12.1c2.9-2.4,5.8-4.8,8.5-7.3c-3.2,0.1-6.7-0.1-9.8,0.1c-0.3,0.2-0.5,0.5-0.8,0.8
		c-0.4,0.3-0.6,0.7-1,0.9c-0.3,0.2-0.5,0.5-0.8,0.8c-0.3,0.2-0.5,0.5-0.8,0.8c-0.7,0.7-1.4,1.4-2.2,2c-0.3,0.2-0.5,0.5-0.8,0.8
		c-0.5,0.3-0.8,0.8-1.2,1.2c-0.1-2.4,0.1-5-0.1-7.3c-2.4,0-4.9,0-7.3,0C102.7,115.1,102.7,121.5,102.7,128z M155.7,117
		c0.2,2,2,3.7,4.5,3c3.8-1,2.8-8-1.9-6.8c-1.3,0.3-2.2,1.1-2.6,3C155.5,116.3,155.5,116.9,155.7,117z M41,117.6c0.1,2.4,2.6,4,4.9,3
		c3.2-1.3,2.5-7.5-2-6.7C42.2,114.2,40.9,115.5,41,117.6z"/>
	<path class="st1" d="M138.8,24.4c0,0.4-0.3,0.6-0.6,0.8C138.5,25,138.7,24.7,138.8,24.4z"/>
	<path class="st2" d="M49.2,18C49.2,18,49.2,18,49.2,18c0.1,0.7,0,1.5,0.2,2C49,19.6,49.2,18.6,49.2,18z"/>
	<path class="st2" d="M51.5,25.2c1.1,0.2,2.6,0,3.9,0.1c0.1,0.5,0.1,1.6,0,2.1c-2.2,0-4.3,0-6.5,0c0,0,0-0.1,0-0.1
		c2.2,0,4.3,0,6.5,0c0-0.6,0-1.3,0-1.9c-1.3,0-2.6,0-4,0C51.4,25.3,51.4,25.2,51.5,25.2z"/>
	<path class="st2" d="M63.8,27.3c-0.5,0.1-1.8,0.2-2.2-0.1C62.2,27.4,63.1,27.2,63.8,27.3z"/>
	<path class="st2" d="M57.2,27.3c0.7,0,1.5,0.1,2.1-0.1C58.9,27.5,57.7,27.4,57.2,27.3z"/>
	<path class="st2" d="M66.1,18C66.1,18,66.1,18,66.1,18c0.1,3.1,0.1,6.2,0.1,9.3c0.7,0,1.4,0,2.1,0c0,0,0,0.1,0,0.1
		c-0.5-0.3-1.6,0.4-2.1,0c-0.3-0.2-0.1-1.7-0.1-2.3C66.1,22.7,66.1,19.8,66.1,18z"/>
	<path class="st2" d="M79.4,25.2c1.1,0.2,2.6,0,3.9,0.1c0.1,0.5,0.1,1.6,0,2.1c-2.1-0.1-4.5,0.1-6.5-0.1c2.2,0,4.3,0,6.5,0
		c0-0.6,0-1.3,0-1.9c-1.3,0-2.6,0-4,0C79.3,25.3,79.3,25.2,79.4,25.2z"/>
	<path class="st2" d="M86.4,25c0,0.8,0.1,1.7-0.1,2.3c-0.7-0.1-1.5,0.1-2.1-0.1c0.7,0,1.3,0,2,0C86.5,26.7,86.2,25.6,86.4,25z"/>
	<path class="st2" d="M107.3,27.3c-0.5,0.1-1.8,0.2-2.2-0.1C105.7,27.4,106.6,27.2,107.3,27.3z"/>
	<path class="st2" d="M102.7,27.3c-0.5,0.1-1.7,0.2-2.1-0.1C101.2,27.4,102,27.2,102.7,27.3z"/>
	<path class="st2" d="M120.2,27.3c0.7,0,1.6,0.1,2.2-0.1C122,27.5,120.8,27.4,120.2,27.3z"/>
	<path class="st2" d="M133.7,25c-0.1,0.6,0.4,1.8,0.1,2.2c-0.3,0.3-1.9,0.1-2.7,0.1c-1.2,0-2.1,0-2.8,0c0,0,0-0.1,0-0.1
		c1.8,0,3.6,0,5.4,0C133.7,26.5,133.7,25.8,133.7,25z"/>
	<path class="st2" d="M142.5,18C142.5,18,142.5,18,142.5,18c0.1,1.8,0.1,4.6,0.1,7c0,0.5-0.2,2,0,2.2c0.2,0.3,1.5,0.1,1.9,0.1
		c0.8,0,1.3,0,1.9,0c-0.5,0.1-1.1,0.1-1.9,0.1c-0.4,0-1.7,0.2-1.9-0.1c-0.2-0.2,0-1.8,0-2.3C142.5,22.7,142.5,19.8,142.5,18z"/>
	<path class="st2" d="M72.1,23.6c0.3,0.1,1.3,0.2,1.4-0.1C73.8,23.9,71.9,23.8,72.1,23.6z"/>
	<path class="st4" d="M72.1,23.6c0.2-1,0.4-2.1,0.7-3c0.3,0.9,0.5,2,0.7,2.9C73.3,23.8,72.4,23.7,72.1,23.6z"/>
	<path class="st2" d="M144.6,25.2c0.3,0.2,0.8,0,1.2,0.1C145.6,25.4,144.8,25.4,144.6,25.2z"/>
	<path class="st3" d="M74.9,89.9c1.5,2.1,2.7,4.7,5.7,5.1c3.3,0.4,5.5-1.5,7.8-2.6c-0.5,3-2.7,5.8-5.7,6.4c-3.2,0.6-5.9-1.1-7.8-2.8
		c-1.4,1.5-3.9,3.1-6.8,2.9c-3-0.2-5.2-1.8-5.5-4.8c4,1,9.6,0.7,10.1-3.3c-1.6,0.6-3.3,1.4-5.7,1c-1.4-0.2-2.7-1.2-3.6-2.2
		c-0.7-0.8-1.9-2.1-2-3.5c-1.4-15.5-2.9-33.7-4.3-48.9c28.6,0,57.2,0,85.8,0c-1.2,12-1.7,25-3.1,37c-0.9,7.3,0.4,16.1-6.7,16.7
		c-3,0.3-4.9-0.9-7.2-1.5c0.8,2.3,2.6,4.4,5.5,4.7c2.2,0.2,4-0.6,5.9-1.1c-0.1,2.8-1.9,4.6-4.5,5c-3.3,0.4-6-1.1-7.6-2.6
		c-1.8,1.5-3.9,2.8-7.1,2.5c-3.3-0.3-5.7-2.8-6.4-5.7c1.7,0.8,3.5,1.9,5.7,1.9c2.8,0,4.5-1.8,5.8-3.5c-1.4,0.1-2.6,0.6-4,0.7
		c-4.3,0.3-6.7-2.9-7.8-6.2c1.9,1.1,3.9,2.5,6.9,2.2c3.2-0.4,5.1-3.3,6.6-5.3c1.1,1.8,2.1,3.6,4.1,4.5c2.3,0.2,3.9-1.3,4.9-2.7
		c1.3-1.9,2-4.1,1.7-7.3c-0.2-2.6-1.1-5.1-2.1-7.3c-2.8-6.2-7.6-11.9-11.9-16c-0.4,0.7-0.7,1.5-1,2.2c-1.7,3.4-4.3,6.3-6.3,9.6
		c-1.1,1.8-2.5,3.9-1.9,6.8c0.4,1.8,1.6,3.1,2.9,4c0.3,1.1,0.3,2.9-0.3,3.6c-0.3,0.1-0.6,0.3-0.9,0.5c-3-0.1-4.9-1.8-6.4-3.5
		c-1.2-1.3-2.1-3.1-2.5-4.7c-0.3-1.4-0.4-3-0.6-4.6c-0.6-4.2-1.6-9.3-2.2-13.4c4.5-2.9,1.9-10.9-4-10.4c-2.8,0.3-5.3,2.4-5.3,5.9
		c0,2.6,1.4,4,3,5c-0.5,4.6-1,9.9-1.5,14.6c-0.6,5.2-2.7,9.4-6.9,10.9c-2.7,0.6-4.8-0.8-4.2-3.7c1.7-1.7,3.4-3.2,3-6.7
		c-0.1-1.5-0.9-3-1.6-4.3c-1.4-2.5-3.3-4.5-4.9-6.9c-1.1-1.7-1.9-3.1-2.6-5c-4.4,4.7-9.1,10.6-12,17.1c-1,2.2-1.9,4.9-2.1,7.6
		c-0.4,4.6,1.7,8,4.7,9.3c0.4,0.2,1.4,0.2,1.9,0c1.9-0.8,3.5-2.8,4.8-4.2c1.6,2,3.3,4.3,6.5,4.7c3,0.3,5.2-1.2,7.3-2.3
		c0.1,0,0.1,0.1,0.1,0.2c-1,3.3-2.9,6.2-7.1,6.2C79.1,91.6,77,90.6,74.9,89.9z"/>
	<path class="st3" d="M51.5,62.1c0.1,1,0.7,2.4,0.5,3.3c-0.1,0.5-1.3,1.1-1.8,1.6c-0.7,0.6-1.4,1-1.3,2c1.1,0.1,2.3-0.3,3.5-0.4
		c0.1,1,0.3,2,0.3,3c-2.8,0.4-5.6,0.8-8.4,1.2c-0.4-2.7-2.3-9.9,2.2-9.1c0.9,0.2,1.4,1,1.7,1.9C48.7,63.8,50.3,63.2,51.5,62.1z
		 M45.5,67c-0.2,0.7,0,1.7,0.1,2.4c0.6,0,1-0.2,1.6-0.2C47.3,67.9,46.8,66,45.5,67z"/>
	<path class="st4" d="M47.2,69.3c-0.6,0-1,0.2-1.6,0.2c-0.1-0.7-0.3-1.7-0.1-2.4C46.8,66,47.3,67.9,47.2,69.3z"/>
	<path class="st3" d="M54.4,87c-2.1,0.3-4,0.6-6.1,0.9c1.9,0.5,4.3,0.6,6.4,1c0.1,0.7,0.2,1.4,0.2,2.2c-2.1,0.8-3.9,1.8-6,2.6
		c2-0.1,4.2-0.6,6.3-0.9c0.1,0.8,0.2,1.7,0.3,2.5c-2.9,0.3-5.5,0.9-8.4,1.2c-0.2-1.2-0.4-2.5-0.5-3.9c1.6-0.7,3.2-1.5,4.9-2.2
		c-1.7-0.4-3.5-0.5-5.3-0.8c-0.1-1.4-0.4-2.5-0.4-4c2.8-0.4,5.6-0.8,8.3-1.2C54.4,85.2,54.3,86.2,54.4,87z"/>
	<path class="st1" d="M66.8,127.9c2.3,0.4,5.2,0.1,7.7,0.2c-0.8,0.2-2.7,0-3.9,0.1c-0.7,0-1.3,0-2,0C68.1,128,67,128.4,66.8,127.9z"
		/>
	<path class="st2" d="M84.3,128c0-1.5,0-3.9,0-5.9c0-0.5-0.2-1.7,0-1.9c0.2-0.3,1,0,1.2,0c-0.4,0-0.7,0-1.1,0
		C84.4,122.8,84.4,125.4,84.3,128C84.4,128,84.4,128,84.3,128z"/>
	<path class="st1" d="M91.9,127.8c0.7,0.4,2.8,0.2,4.3,0.2c1.5,0,3,0,4.2,0c-1.3,0.2-2.9,0-4.3,0.1
		C94.9,127.9,92.3,128.5,91.9,127.8z"/>
	<path class="st1" d="M116.8,109.4c0.2-0.3,0.5-0.5,0.8-0.8C117.4,108.9,117.1,109.2,116.8,109.4z"/>
	<path class="st1" d="M115,111.1c0.2-0.3,0.5-0.5,0.8-0.8C115.6,110.6,115.3,110.9,115,111.1z"/>
	<path class="st2" d="M114.3,111.9c0.2-0.3,0.5-0.5,0.8-0.8C114.8,111.4,114.6,111.7,114.3,111.9z"/>
	<path class="st1" d="M111.3,114.7c0.2-0.3,0.5-0.5,0.8-0.8C111.9,114.2,111.6,114.5,111.3,114.7z"/>
	<path class="st3" d="M110.1,115.9c0.5-0.3,0.8-0.8,1.2-1.2c0.3-0.2,0.5-0.5,0.8-0.8c0.7-0.7,1.4-1.4,2.2-2c0.3-0.2,0.5-0.5,0.8-0.8
		c0.3-0.2,0.5-0.5,0.8-0.8c0.4-0.3,0.6-0.7,1-0.9c0.3-0.2,0.5-0.5,0.8-0.8c3.1-0.2,6.5,0,9.8-0.1c-2.7,2.5-5.6,4.9-8.5,7.3
		c2.9,4.1,6,8,8.9,12.1c0,0,0,0.1,0,0.1c-3,0-5.9,0-8.9,0c-1.7-2.6-3.3-5.3-5-7.9c-1.4,0.9-2.5,2.1-3.8,3.2c-0.2,1.4,0,3.2-0.1,4.7
		c-2.4,0-4.9,0-7.3,0c0-6.5,0-13,0-19.5c2.4,0,4.9,0,7.3,0C110.1,111,109.9,113.6,110.1,115.9z"/>
	<path class="st4" d="M59,120.6c0.9-2.3,1.7-4.6,2.6-6.9c0.9,2.2,1.7,4.6,2.6,6.9C62.5,120.6,60.7,120.6,59,120.6z"/>
	<path class="st2" d="M138.1,120.6c1.7-0.1,3.6,0.1,5.1-0.1C142.2,120.8,139.6,120.7,138.1,120.6z"/>
	<path class="st0" d="M137.3,168.8c-0.3,0.3-0.5,0.5-0.9,0.8C136.6,169.2,136.9,169,137.3,168.8z"/>
	<path class="st0" d="M139.3,166.6c-0.2,0.4-0.4,0.6-0.8,0.9C138.8,167.2,139,166.9,139.3,166.6z"/>
	<path class="st1" d="M126.7,157.2c0.3-0.4,0.6-0.8,1-1.1C127.5,156.6,127.1,156.9,126.7,157.2z"/>
	<path class="st1" d="M125.4,158.5c0.4-0.3,0.7-0.7,1.1-1C126.4,157.7,125.4,158.7,125.4,158.5z"/>
	<path class="st4" d="M122.6,160.9c1-0.7,2-1.5,2.9-2.4c0,0.2,1-0.8,1.1-1c0-0.1,0.1-0.2,0.2-0.2c0.4-0.3,0.8-0.6,1-1.1
		c0.8-0.9,1.6-1.9,2.3-2.9c4.3,2.9,8.5,6.1,12.8,9.1c-1.1,1.5-2.2,3-3.6,4.3c-0.3,0.3-0.5,0.5-0.8,0.9c-0.3,0.5-0.8,0.9-1.2,1.3
		c-0.4,0.2-0.7,0.4-0.9,0.8c-1.5,1.3-3,2.7-4.7,3.8C128.7,169.1,125.6,165,122.6,160.9z M129.1,157.3c-0.2,0-0.2,0.1-0.3,0.2
		c-0.3,0.2-0.5,0.5-0.8,0.8c-0.2,0.1-1.6,1.5-1,1.1c0,0.1-0.1,0.1-0.2,0.2c0,0.3,0.3,0.3,0.3,0.5c0.4,0.5,0.8,0.9,1.3,1.2
		c0,0,0,0.1,0.1,0.1c0.3,0.4,0.7,0.8,1.1,1.1c0.7,0.8,1.5,1.5,2.2,2.2c0.1,0,0.1,0.1,0.2,0.1c0,0,0.1,0,0.1,0.1
		c0.4,0.5,0.9,1,1.4,1.4c0.4,0.3,0.7,0.6,1,1c0.5,0.3,0.8,0.8,1.2,1.2c0.3,0,0.4-0.2,0.5-0.3c0.6-0.5,1.2-1,1.6-1.7
		c0.6-0.3,0-0.7-0.3-0.9c-0.4-0.5-0.9-1-1.4-1.4c-0.4-0.2-0.6-0.6-0.9-0.9c-0.1,0-0.1-0.1-0.2-0.2c-0.7-0.7-1.4-1.4-2.1-2.1
		c-0.2,0-0.2-0.2-0.3-0.2c0,0-0.1,0-0.1-0.1c-0.4-0.5-0.8-0.9-1.2-1.2c-0.5-0.3-0.8-0.8-1.2-1.2
		C129.8,157.9,129.4,157.4,129.1,157.3z"/>
	<path class="st1" d="M78.6,157.6c0.3,0.2,0.5,0.5,0.8,0.8C79.1,158.1,78.8,157.9,78.6,157.6z"/>
	<path class="st0" d="M116.5,181c0.2-0.1,0.4-0.2,0.8-0.2C117,180.8,116.9,181,116.5,181z"/>
	<path class="st0" d="M96.2,182.2c0.1,0.3-0.1,0.7-0.4,0.5C96.3,182.8,96,182.3,96.2,182.2z"/>
	<path class="st4" d="M89.2,164.8c2.6,1.1,5.4,2,8.8,2.4c-0.7,4.9-1.2,10-1.8,15c-0.2,0.1,0.1,0.6-0.4,0.5c-5-0.5-9.1-1.9-13.1-3.4
		C84.9,174.4,87.1,169.6,89.2,164.8z M89.3,167.3C89.3,167.3,89.2,167.3,89.3,167.3c-0.2,2.9,0.5,6,0.2,8.6c-0.2,1.6-0.9,2.9-1,4.3
		c1,0.2,2,0.4,2.9,0.7c0.6-1.6,0.5-3.2,1.1-4.6c0.2-0.6,0.7-1.2,1.1-1.8c1.1-1.9,2.1-3.7,3.1-5.5c-1-0.2-2-0.5-2.9-0.7
		c-0.7,1.4-1.3,2.9-1.9,4.3c0.1-1.5,0.3-3.1,0.3-4.7C91.2,167.8,90.3,167.6,89.3,167.3z"/>
	<path class="st4" d="M82.3,160.7c-3.2,4.2-6.4,8.6-9.5,12.9c-4.5-2.9-8-6.8-11.3-10.9c4.4-3.3,8.9-6.4,13.4-9.6c0,0,0.1,0,0.1,0
		c1,1.7,2.4,3.1,3.7,4.5c0.2,0.4,0.5,0.5,0.8,0.8C80.4,159.1,81.2,160,82.3,160.7z M74.8,156.6c0-0.2-0.2-0.2-0.3-0.2
		c-0.3,0.4-0.6,0.6-0.9,0.9c-0.3,0.2-0.4,0.5-0.7,0.6c-0.5,0.4-1,0.9-1.4,1.4c-0.4,0.3-0.7,0.7-1.1,1c-0.4,0.4-0.8,0.7-1.2,1.2
		c-0.2,0.1-0.3,0.4-0.5,0.5c-0.6,0.5-1.2,1.1-1.7,1.7c-0.3,0.3-0.7,0.6-0.9,0.9c-0.2,0.2-0.5,0.3-0.5,0.6c0.2,0.5,0.7,0.7,1,1.1
		c0.2,0.3,0.5,0.5,0.7,0.8c0.3,0.3,0.5,0.6,0.9,0.9c0.3,0.4,0.6,0.7,1,1c1.1,1.5,3.3,0.6,4.1-0.6c0.3-0.2,0.5-0.5,0.8-0.8
		c0.2,0,0.2-0.2,0.3-0.2c0.4-0.3,0.7-0.6,1-1c0.2-0.1,0.3-0.4,0.5-0.5c0.8-0.7,1.6-1.4,2.2-2.3c2-2.2-1.3-4.7-2.4-6
		C76.1,157.8,75.1,156.8,74.8,156.6z"/>
	<path class="st2" d="M72.9,157.9c0.3-0.2,0.4-0.5,0.7-0.6c-0.2,0.3-0.5,0.5-0.8,0.8C72.8,158,72.9,158,72.9,157.9z"/>
	<path class="st1" d="M71.5,159.3c0.4-0.5,0.9-1,1.4-1.4c0,0.1-0.1,0.1-0.1,0.2C72.3,158.5,72,159,71.5,159.3z"/>
	<path class="st2" d="M70.4,160.3c0.4-0.3,0.7-0.7,1.1-1C71.1,159.7,70.8,160.1,70.4,160.3C70.4,160.4,70.4,160.4,70.4,160.3z"/>
	<path class="st1" d="M69.2,161.5c0.4-0.4,0.7-0.8,1.2-1.2c0,0,0,0.1,0,0.1C70,160.7,69.7,161.2,69.2,161.5z"/>
	<path class="st2" d="M68.7,162c0.2-0.1,0.3-0.4,0.5-0.5c-0.3,0.3-0.6,0.7-0.9,0.9C68.4,162.2,68.6,162.2,68.7,162z"/>
	<path class="st1" d="M67,163.7c0.5-0.6,1.1-1.2,1.7-1.7c-0.1,0.2-0.3,0.3-0.4,0.5C67.8,162.8,67.5,163.3,67,163.7z"/>
	<path class="st2" d="M66.1,164.6c0.3-0.3,0.6-0.7,0.9-0.9C66.7,164,66.4,164.3,66.1,164.6z"/>
	<path class="st1" d="M66.5,166.3c-0.4-0.3-0.8-0.6-1-1.1C65.8,165.6,66.2,165.9,66.5,166.3z"/>
	<path class="st1" d="M67.2,167.1c0.3,0.3,0.6,0.5,0.9,0.9C67.8,167.7,67.5,167.4,67.2,167.1z"/>
	<path class="st2" d="M68.1,167.9c0.4,0.3,0.7,0.6,1,1C68.7,168.6,68.4,168.3,68.1,167.9z"/>
	<path class="st2" d="M73.2,168.3c0.2-0.3,0.5-0.5,0.8-0.8C73.7,167.8,73.5,168.1,73.2,168.3z"/>
	<path class="st1" d="M74.3,167.3c0.3-0.4,0.6-0.7,1-1C75,166.7,74.6,167,74.3,167.3z"/>
	<path class="st1" d="M75.8,165.8c0.1-0.2,0.3-0.3,0.4-0.5c0.7-0.6,1.3-1.2,1.9-1.9C77.4,164.4,76.6,165.1,75.8,165.8z"/>
	<path class="st3" d="M75.7,157.6c1.1,1.3,4.4,3.8,2.4,6c-0.6,0.6-1.2,1.3-1.9,1.9c-0.3,0.3-0.7,0.6-0.9,0.9c-0.4,0.3-0.7,0.6-1,1
		c-0.2,0-0.2,0.2-0.3,0.2c-0.3,0.2-0.5,0.5-0.8,0.8c-0.8,1.2-3,2.1-4.1,0.6c-0.3-0.4-0.6-0.7-1-1c-0.3-0.3-0.5-0.6-0.9-0.9
		c-0.2-0.3-0.5-0.5-0.7-0.8c-0.3-0.4-0.7-0.7-1-1.1c0.1-0.3,0.3-0.4,0.5-0.6c0.3-0.3,0.7-0.6,0.9-0.9c0.5-0.4,0.8-0.9,1.3-1.2
		c0.3-0.3,0.7-0.6,0.9-0.9c0.4-0.3,0.7-0.8,1.2-1.1c0.4-0.3,0.8-0.7,1.1-1.1c0.5-0.4,0.8-0.9,1.3-1.2c0.3-0.2,0.5-0.5,0.8-0.8
		c0.3-0.3,0.7-0.6,0.9-0.9c0.1,0.1,0.3,0.1,0.3,0.2C75,157,75.4,157.2,75.7,157.6z M75.3,160.3c-0.2,0-0.6,0.5-0.8,0.7
		c-0.4,0.3-0.7,0.8-1.2,1.1c-0.3,0.3-0.7,0.6-0.9,0.9c-0.1,0-0.1,0.1-0.2,0.2c-0.4,0.4-0.9,0.8-1.2,1.2c0,0-0.1,0-0.1,0
		c-0.3,0.2-0.5,0.5-0.8,0.8c-0.1,0-0.1,0.1-0.2,0.2c-0.2,0.2-1,0.7-0.4,0.9c0.7,0.5,1.2-0.5,1.7-0.8c0.3-0.3,0.7-0.6,0.9-0.9
		c0.4-0.3,0.7-0.8,1.2-1.1c0.3-0.3,0.7-0.6,0.9-0.9c0.1,0,0.1-0.1,0.2-0.2c0.3-0.3,0.7-0.6,0.9-0.9
		C75.8,161.3,75.7,160.5,75.3,160.3z"/>
	<path class="st1" d="M74.8,156.6c0.3,0.2,1.3,1.2,0.9,0.9C75.4,157.2,75,157,74.8,156.6z"/>
	<path class="st2" d="M75.3,166.3c0.3-0.3,0.6-0.7,0.9-0.9c-0.1,0.2-0.3,0.3-0.4,0.5C75.6,166,75.5,166.2,75.3,166.3z"/>
	<path class="st2" d="M128,158.3c0.2-0.3,0.5-0.5,0.8-0.8C128.5,157.8,128.3,158.1,128,158.3z"/>
	<path class="st1" d="M127,159.4c-0.6,0.4,0.8-1,1-1.1C127.7,158.7,127.3,159,127,159.4z"/>
	<path class="st1" d="M127.1,160c0.5,0.4,0.8,0.9,1.3,1.2C127.9,160.9,127.5,160.5,127.1,160z"/>
	<path class="st2" d="M129.6,162.4c-0.4-0.3-0.8-0.7-1.1-1.1C128.9,161.7,129.3,162,129.6,162.4z"/>
	<path class="st1" d="M129.6,162.4c0.5,0.4,0.9,1,1.5,1.4c0.2,0.3,0.6,0.5,0.8,0.9C131.1,164,130.3,163.2,129.6,162.4z"/>
	<path class="st2" d="M131.9,164.7c-0.2-0.3-0.6-0.5-0.8-0.9c0.3,0.3,0.7,0.6,0.9,0.9C131.9,164.7,131.9,164.7,131.9,164.7z"/>
	<path class="st1" d="M132.1,164.8c0.5,0.4,0.9,0.9,1.4,1.3c0,0,0,0.1,0,0.1C133,165.8,132.5,165.3,132.1,164.8z"/>
	<path class="st2" d="M134.5,167.2c-0.3-0.4-0.6-0.7-1-1c0,0,0-0.1,0-0.1C133.9,166.5,134.2,166.8,134.5,167.2
		C134.5,167.2,134.5,167.2,134.5,167.2z"/>
	<path class="st1" d="M134.5,167.2C134.5,167.2,134.5,167.2,134.5,167.2c0.5,0.4,0.9,0.7,1.2,1.2
		C135.3,168.1,134.9,167.6,134.5,167.2z"/>
	<path class="st1" d="M136.2,168.1c0.6-0.6,1-1.2,1.6-1.7C137.4,167.1,136.8,167.5,136.2,168.1z"/>
	<path class="st3" d="M137.5,165.5c0.3,0.3,0.9,0.6,0.3,0.9c-0.6,0.5-1.1,1.1-1.6,1.7c-0.1,0.1-0.2,0.3-0.5,0.3
		c-0.4-0.4-0.7-0.8-1.2-1.2c-0.3-0.4-0.7-0.8-1.1-1.1c-0.5-0.4-0.9-0.9-1.4-1.3c0-0.1,0-0.1-0.1-0.1c-0.3-0.3-0.6-0.7-0.9-0.9
		c-0.5-0.4-0.9-1-1.5-1.4c-0.3-0.4-0.7-0.8-1.1-1.1c-0.1,0-0.1,0-0.1-0.1c-0.5-0.4-0.8-0.9-1.3-1.2c0-0.2-0.3-0.2-0.3-0.5
		c0.1,0,0.1-0.1,0.2-0.2c0.3-0.4,0.7-0.7,1-1.1c0.3-0.2,0.5-0.5,0.8-0.8c0.1-0.1,0.1-0.2,0.3-0.2c0.4,0.3,0.6,0.7,1,0.9
		c0.4,0.4,0.8,0.9,1.2,1.2c0.5,0.3,0.8,0.8,1.2,1.2c0,0.1,0,0.1,0.1,0.1c0.3,0.3,0.6,0.7,0.9,0.9c0.5,0.4,0.9,1,1.5,1.4
		c0.1,0,0.1,0.2,0.2,0.2c0.3,0.3,0.6,0.7,0.9,0.9C136.6,164.5,137,165.1,137.5,165.5z"/>
	<path class="st1" d="M136.1,164.1c0.5,0.4,1,0.9,1.4,1.4C137,165.1,136.6,164.5,136.1,164.1C136.1,164.1,136.1,164.1,136.1,164.1z"
		/>
	<path class="st2" d="M135.2,163.2c0.4,0.2,0.6,0.6,0.9,0.9c0,0,0,0.1,0,0.1C135.8,163.9,135.5,163.6,135.2,163.2z"/>
	<path class="st1" d="M132.9,161c0.7,0.7,1.4,1.4,2.1,2.1c-0.5-0.4-0.9-1-1.5-1.4C133.4,161.4,133.1,161.2,132.9,161z"/>
	<path class="st2" d="M132.6,160.7c0.2,0,0.2,0.2,0.3,0.2c0.2,0.3,0.5,0.4,0.6,0.7C133.2,161.4,132.9,161.1,132.6,160.7z"/>
	<path class="st1" d="M131.3,159.4c0.4,0.4,0.9,0.8,1.2,1.2C132.1,160.3,131.8,159.8,131.3,159.4
		C131.3,159.5,131.3,159.4,131.3,159.4z"/>
	<path class="st2" d="M130.1,158.3c0.5,0.3,0.8,0.8,1.2,1.2c0,0,0,0.1,0,0.1C130.9,159.1,130.5,158.7,130.1,158.3z"/>
	<path class="st1" d="M129.1,157.3c0.3,0,0.7,0.6,1,0.9C129.7,158,129.4,157.6,129.1,157.3z"/>
	<path class="st2" d="M74.5,161c0.2-0.2,0.6-0.7,0.8-0.7C75,160.5,74.8,160.9,74.5,161z"/>
	<path class="st1" d="M73.3,162.1c0.4-0.3,0.7-0.8,1.2-1.1C74.1,161.5,73.8,161.9,73.3,162.1C73.3,162.2,73.3,162.2,73.3,162.1z"/>
	<path class="st2" d="M72.4,163.1c0.3-0.3,0.6-0.7,0.9-0.9c0,0,0,0.1,0,0.1C73,162.4,72.8,162.8,72.4,163.1z"/>
	<path class="st1" d="M71,164.5c0.4-0.5,0.8-0.9,1.2-1.2C71.9,163.7,71.4,164,71,164.5C71.1,164.5,71,164.5,71,164.5z"/>
	<path class="st2" d="M70.2,165.2c0.2-0.3,0.5-0.5,0.8-0.8C70.7,164.7,70.5,165,70.2,165.2z"/>
	<path class="st1" d="M69.6,166.3c-0.7-0.2,0.1-0.7,0.4-0.9c-0.2,0.2-0.4,0.4-0.6,0.6C69.4,166.2,69.6,166.2,69.6,166.3z"/>
	<path class="st2" d="M71.3,165.5c0.3-0.3,0.6-0.7,0.9-0.9C72,165,71.7,165.3,71.3,165.5z"/>
	<path class="st1" d="M72.3,164.6c0.6-0.6,1.2-1.2,1.8-1.8c-0.2,0.3-0.5,0.4-0.6,0.7C73,163.8,72.7,164.3,72.3,164.6z"/>
	<path class="st2" d="M73.4,163.5c0.2-0.3,0.5-0.4,0.6-0.7c0.2,0,0.2-0.2,0.3-0.2C74.1,162.9,73.8,163.2,73.4,163.5z"/>
	<path class="st1" d="M74.5,162.4c0.3-0.3,0.6-0.7,0.9-0.9C75.2,161.9,74.8,162.2,74.5,162.4z"/>
	<path class="st4" d="M75.3,160.3c0.4,0.1,0.6,0.9,0.2,1.2c-0.3,0.3-0.7,0.6-0.9,0.9c-0.1,0-0.1,0.2-0.2,0.2c-0.2,0-0.2,0.2-0.3,0.2
		c-0.6,0.6-1.2,1.2-1.8,1.8c-0.3,0.3-0.7,0.6-0.9,0.9c-0.5,0.3-1,1.2-1.7,0.8c0-0.2-0.2-0.2-0.2-0.3c0.2-0.2,0.4-0.4,0.6-0.6
		c0.1,0,0.1-0.2,0.2-0.2c0.3-0.2,0.5-0.5,0.8-0.8c0,0,0.1,0,0.1,0c0,0,0.1,0,0.1,0c0.3-0.5,0.8-0.8,1.2-1.2c0.1,0,0.1-0.2,0.2-0.2
		c0.4-0.2,0.6-0.6,0.9-0.9c0.4-0.4,0.8-0.7,1.2-1.2C74.8,160.9,75,160.5,75.3,160.3z"/>
	<path class="st1" d="M174.3,5.2C124.4,5,74.2,5.2,24.1,5.1C72.2,5,121.3,5,169.9,5C171.3,5,173.7,4.8,174.3,5.2
		C174.4,5.2,174.3,5.2,174.3,5.2z"/>
	<path class="st3" d="M174.3,5.2c-3,30-6.2,60-9.3,89.9c3.8,0,7.6,0,11.5,0c0,15.1,0,30.2,0,45.3c-4.2,0-8.5,0-12.7,0
		c0,0.1,0,0.2,0,0.2c-1.5,11-5.5,19.6-10.5,27.1c-0.3,0.2-0.4,0.6-0.6,0.9c-0.8,1.2-1.7,2.3-2.6,3.5c0,0-0.1,0-0.1,0
		c-0.5,0.7-1.1,1.2-1.6,1.9c-0.2,0.1-0.3,0.2-0.4,0.4c-1.2,1.4-2.6,2.7-3.9,4c-0.3,0.3-0.7,0.5-1,0.9c-0.3,0.2-0.6,0.5-0.9,0.7
		c-9.5,8-21.1,14-37.7,15c-0.4,0.1-0.9-0.1-1.2,0.1c-1.1,0-2.3,0-3.4,0c-0.2-0.2-0.8,0-1.2-0.1c-16.1-0.9-27.3-6.7-36.8-14.2
		c-0.2-0.3-0.5-0.4-0.7-0.6c0-0.1-0.1-0.2-0.2-0.2c-0.3-0.2-0.6-0.5-0.9-0.8c-0.1-0.2-0.3-0.3-0.5-0.5c-1.4-1.2-2.6-2.5-3.9-3.8
		c-0.2-0.3-0.4-0.6-0.7-0.8c0,0,0-0.1,0-0.1c-0.3-0.1-0.4-0.5-0.7-0.7c-0.4-0.4-0.7-0.9-1.1-1.3c-0.2-0.2-0.4-0.5-0.5-0.7
		c-0.9-1.2-1.8-2.3-2.6-3.6c0,0,0-0.1,0-0.1c-0.3-0.2-0.3-0.6-0.6-0.8c-4.8-7.3-8.5-15.7-9.9-26.3c-0.7-0.3-2.3-0.2-3.4-0.2
		c-3.5,0-7.1,0.1-10.3-0.1c0-15.1,0-30.1,0-45.2c3,0,5.9,0,8.9,0c-3.6-30-7.1-60-10.7-90C74.2,5.2,124.4,5,174.3,5.2z M170.7,134.6
		c0.3-0.8,0.2-2.8,0.2-4.1c0-9.9,0-20.1,0-29.6c-3.9-0.2-8.2,0.1-12.1-0.2c3.1-30,6.2-60,9.3-89.9c-45.8,0-91.7,0-137.5,0
		c3.6,30,7.1,60,10.7,90c-3.2,0-6.4,0-9.6,0c0,11.3,0,22.5,0,33.8c4.2,0.2,8.8,0,13.1,0.1c0.2,2.1,0.4,4.3,0.7,6.3
		c2.3,13.7,8.5,23.9,16.6,31.9c9.2,9.1,21.7,15.7,39.1,16.3c0.2,0.1,0.8,0.1,1,0c8.8-0.1,16.3-2,22.7-5c6.4-2.9,12-6.7,16.5-11.2
		c9.2-9.2,16.1-21.1,17.2-38.3c0,0,0.1,0,0.1,0C162.7,134.6,166.8,134.8,170.7,134.6z"/>
	<path class="st5" d="M115,5.1c19.8,0,39.6,0,59.3,0.1c-3,30-6.2,60-9.3,89.9c3.8,0,7.6,0,11.5,0c0,15.1,0,30.2,0,45.3
		c-4.2,0-8.5,0-12.7,0c0,0.1,0,0.2,0,0.2c-1.5,11-5.5,19.6-10.5,27.1c-0.3,0.2-0.4,0.6-0.6,0.9c-0.8,1.2-1.7,2.3-2.6,3.5
		c0,0-0.1,0-0.1,0c-0.5,0.7-1.1,1.2-1.6,1.9c-0.2,0.1-0.3,0.2-0.4,0.4c-1.2,1.4-2.6,2.7-3.9,4c-0.3,0.3-0.7,0.6-1,0.9
		c-0.3,0.2-0.6,0.5-0.9,0.7c-9.5,8-21.1,14-37.7,15c-0.1,0-0.1,0-0.2,0c-0.2,0-0.4,0-0.6,0c-0.2,0-0.3,0-0.4,0.1c-1.1,0-2.3,0-3.4,0
		c-0.1-0.1-0.2-0.1-0.4-0.1c-0.2,0-0.4,0-0.6,0c-0.1,0-0.1,0-0.2,0c-16.1-0.9-27.3-6.7-36.8-14.2c-0.2-0.3-0.5-0.4-0.7-0.6
		c0-0.1-0.1-0.2-0.2-0.2c-0.3-0.2-0.6-0.5-0.9-0.8c-0.1-0.2-0.3-0.3-0.5-0.5c-1.4-1.2-2.6-2.5-3.9-3.8c-0.2-0.3-0.4-0.6-0.7-0.8
		c0,0,0-0.1,0-0.1c-0.3-0.1-0.4-0.5-0.7-0.7c-0.4-0.4-0.7-0.9-1.1-1.3c-0.2-0.2-0.4-0.5-0.5-0.7c-0.9-1.2-1.8-2.3-2.6-3.6
		c0,0,0-0.1,0-0.1c-0.3-0.2-0.3-0.6-0.6-0.8c-4.8-7.3-8.5-15.7-9.9-26.3c-0.4-0.1-1-0.2-1.6-0.2c-0.6,0-1.2,0-1.8,0
		c-1.6,0-3.3,0-5,0c-1.8,0-3.7,0-5.3-0.1c0-15.1,0-30.1,0-45.2c3,0,5.9,0,8.9,0c-3.6-30-7.1-60-10.7-90c7.9,0,15.9,0,23.8,0
		C70.3,5.1,92.6,5.1,115,5.1 M36.8,134.7c2,0,4,0,5.9,0c0.7,0,1.4,0,2.1,0c0.2,2.1,0.4,4.3,0.7,6.3c2.3,13.7,8.5,23.9,16.6,31.9
		c9.2,9.1,21.7,15.7,39.1,16.3c0.1,0.1,0.3,0.1,0.5,0.1s0.4,0,0.5-0.1c8.8-0.1,16.3-2,22.7-5c6.4-2.9,12-6.7,16.5-11.2
		c9.2-9.2,16.1-21.1,17.2-38.3c0,0,0.1,0,0.1,0c0.6,0,1.3,0,1.9,0c1.8,0,3.6,0,5.4,0c1.6,0,3.2,0,4.7-0.1c0.3-0.8,0.2-2.8,0.2-4.1
		c0-9.9,0-20.1,0-29.6c-1.2-0.1-2.5-0.1-3.7-0.1c-1.5,0-3.1,0-4.6,0c-1.3,0-2.5,0-3.7-0.1c3.1-30,6.2-60,9.3-89.9
		c-45.8,0-91.7,0-137.5,0c3.6,30,7.1,60,10.7,90c-3.2,0-6.4,0-9.6,0c0,11.3,0,22.5,0,33.8C33.3,134.7,35,134.7,36.8,134.7 M115,0.1
		c-11.2,0-22.4,0-33.5,0c-11.2,0-22.4,0-33.5,0c-7.9,0-15.9,0-23.8,0l-5.6,0l0.7,5.5c2.9,24.7,6.1,51.7,10,84.5h-3.3H21v4.9v45.2
		v4.7l4.7,0.2c1.9,0.1,4,0.1,5.5,0.1c0.8,0,1.7,0,2.5,0c0.6,0,1.1,0,1.7,0c1.7,8.6,5,16.5,10,24.2l0.6,0.9l0.1,0.1
		c0.8,1.2,1.6,2.2,2.3,3.1c0.2,0.2,0.3,0.4,0.5,0.6c0.1,0.1,0.2,0.3,0.3,0.4c0,0,0.1,0.1,0.1,0.1l0.1,0.2l0.2,0.2
		c0.1,0.2,0.3,0.3,0.4,0.5c0.1,0.1,0.1,0.2,0.2,0.2v1l1.8,1.1c0.1,0.1,0.2,0.2,0.3,0.3l0,0l0,0c1.3,1.3,2.6,2.7,4,4l0.1,0.2l0.6,0.5
		c0,0,0.1,0.1,0.1,0.1l0,0l0.9,0.8l0.1,0.1l0.8,0.6c7.6,6,19.9,14.1,39.2,15.2l0.1,0.1h1.7h3.4h1.7l0.1-0.1
		c15.4-0.9,28.2-6,40.2-16.1c0.1-0.1,0.3-0.2,0.4-0.3c0.1-0.1,0.2-0.2,0.3-0.2l0.6-0.5l0.2-0.3c0.2-0.1,0.4-0.3,0.7-0.6
		c0.2-0.2,0.5-0.4,0.7-0.7c1.1-1,2.2-2.1,3.2-3.3l0.2-0.1l0.5-0.7h0.2l1.5-1.9c0.2-0.3,0.5-0.6,0.7-0.9c0.7-0.8,1.3-1.7,2-2.7
		c0.1-0.1,0.1-0.2,0.2-0.3l0.1-0.1l0.4-0.6c5.4-7.9,8.9-16.2,10.7-25.2h8.5h4.9v-4.9V95.1v-4.9h-4.9h-6c2.6-25.2,5.7-54.4,8.7-84.5
		l0.5-5.4l-5.4,0C157.1,0.2,138.8,0.1,115,0.1L115,0.1z M36.1,15.8h126.5c-2.8,27.3-5.8,56-8.7,84.5l-0.5,5.1l5.1,0.3
		c1.1,0.1,2.4,0.1,4,0.1c0.8,0,1.6,0,2.4,0c0.4,0,0.7,0,1.1,0v24c-0.9,0-1.7,0-2.6,0c-0.9,0-1.8,0-2.7,0c-0.6,0-1.3,0-1.9,0h0H154
		l-0.3,4.6c-0.9,13.9-6,25.3-15.8,35.1c-4.1,4.1-9.2,7.6-15.1,10.2c-6.5,2.9-13.3,4.4-20.7,4.5l-0.6,0l-0.2,0
		c-14.4-0.4-26.2-5.3-35.8-14.9c-8.3-8.3-13.3-17.8-15.2-29.2c-0.2-1.4-0.4-2.9-0.5-4.5c0-0.5-0.1-1-0.1-1.5l-0.4-4.4l-4.4-0.1
		c-0.7,0-1.4,0-2.1,0c-1,0-2,0-3,0c-1,0-2,0-2.9,0c-0.1,0-0.1,0-0.2,0v-24h4.7h5.6l-0.7-5.5c-2.3-19-4.5-38.1-6.8-57.1L36.1,15.8
		L36.1,15.8z"/>
	<path class="st1" d="M71.6,18c0.6-0.1,1.9-0.2,2.4,0.1C73.4,17.9,72.4,18,71.6,18z"/>
	<path class="st1" d="M106.7,18c1.3-0.1,3.3-0.2,4.5,0.1C109.9,17.9,108.2,18,106.7,18z"/>
	<path class="st1" d="M120.2,18c0.5-0.1,1.8-0.2,2.2,0.1C121.8,17.9,120.9,18,120.2,18z"/>
	<path class="st3" d="M146.7,18c2.1-0.1,2.4,3.7,0.8,4.3c2.2,0.6,1.8,5.5-1.2,5c-0.6,0-1.1,0-1.9,0c-0.4,0-1.6,0.2-1.9-0.1
		c-0.2-0.2,0-1.8,0-2.2c0-2.4,0-5.2,0-7C143.9,18,145.3,18,146.7,18z M144.7,21.6c0.6,0,1.2,0,1.6-0.2c0.3-0.5,0.3-1.5-0.4-1.6
		c-0.2-0.2-0.8,0-1.2-0.1C144.6,20.2,144.6,21.2,144.7,21.6z M144.6,25c0,0.1,0,0.1,0,0.2c0.1,0.3,1,0.2,1.2,0.1
		c0.3,0.1,0.4-0.2,0.6-0.2c0.4-0.5,0.3-1.6-0.4-1.6c-0.3-0.2-1,0-1.4-0.1C144.5,23.8,144.7,24.5,144.6,25z"/>
	<path class="st3" d="M101.2,18c0.2,1.7,0.5,3.3,0.7,5c0.4-1.5,0.7-3.2,1-4.8c0.3-0.5,1.4-0.1,2.1-0.2c0,0,0.1,0,0.1,0
		c0.2,1.8,0.7,3.2,0.9,5c0.4-1.5,0.5-3.4,0.8-5c1.5,0.1,3.2-0.1,4.5,0.1c0.4,1,0.8,2,1.3,2.9c0.5-0.8,0.8-1.7,1.2-2.6
		c0.1-0.8,2-0.5,2.6-0.3c0,0-0.1,0-0.1,0.1c-0.4,0.9-0.8,1.7-1.2,2.6c-0.2,0.7-1.2,1.7-1.3,2.6c-0.2,1.1,0.1,2.4,0,3.9
		c-0.7,0-1.4,0-2.2,0c0-1.3,0-2.5,0-3.8c0-0.4-0.2-0.6-0.4-0.9c-0.8-1.5-1.4-3-2.2-4.5c-0.6,3-1,6.1-1.6,9.1c-0.7,0-1.6,0.1-2.2-0.1
		c-0.3-1.9-0.8-3.6-1.1-5.6c-0.6,1.7-0.7,3.9-1.3,5.7c-0.7,0-1.5,0.1-2.1-0.1c-0.5-3.1-1-6.1-1.5-9.1C99.7,17.9,100.5,18,101.2,18z"
		/>
	<path class="st3" d="M74,18c0.9,3.1,1.7,6.1,2.6,9.2c-0.3,0-0.7,0-1,0c0,0,0-0.1,0-0.1c-0.1-0.1-0.7-0.1-0.8,0c0,0,0,0.1,0,0.1
		c0,0.1-0.3-0.1-0.5,0c-0.2-0.4-0.2-1.1-0.4-1.5c-0.6-0.1-1.7-0.1-2.3,0c-0.2,0.4-0.2,1.1-0.4,1.5c-0.7,0-1.4,0-2.2,0
		c0.8-3.1,1.7-6.2,2.6-9.3C72.4,18,73.4,17.9,74,18z M73.5,23.5c-0.2-1-0.4-2-0.7-2.9c-0.3,1-0.5,2-0.7,3
		C71.9,23.8,73.8,23.9,73.5,23.5z"/>
	<path class="st3" d="M57.7,18c0.2,1.7,0.5,3.3,0.7,5c0.4-1.5,0.7-3.2,1-4.8c0,0,0.1,0,0.1-0.1c0.5-0.1,1.8-0.3,2.1,0.2
		c0.3,1.6,0.7,3.1,0.9,4.7c0.4-1.5,0.5-3.3,0.8-5c0.6,0.1,1.6-0.2,2,0.2c-0.5,3.1-1,6.1-1.5,9.1c-0.7,0-1.6,0.1-2.2-0.1
		c-0.4-1.8-0.7-3.7-1.2-5.5c-0.4,1.8-0.8,3.7-1.2,5.5c-0.6,0.2-1.4,0-2.1,0.1c0,0-0.1,0-0.1,0c-0.5-3.1-1-6.1-1.5-9.1
		C56,17.8,57.1,18.1,57.7,18z"/>
	<path class="st1" d="M144.7,19.8c0.4,0.1,0.9-0.1,1.2,0.1C145.5,19.9,145.1,19.9,144.7,19.8C144.7,19.9,144.7,19.9,144.7,19.8z"/>
	<path class="st4" d="M145.9,19.9c0.7,0.1,0.7,1.1,0.4,1.6c-0.4,0.2-1,0.2-1.6,0.2c0-0.6,0-1.1,0-1.7
		C145.1,19.9,145.5,19.9,145.9,19.9z"/>
	<path class="st3" d="M86.5,21.3c0.6-1.1,1.4-2.1,2-3.3c0.8-0.1,2.1-0.1,2.9,0c-0.8,1.2-1.6,2.3-2.4,3.4c0.8,2,1.8,3.8,2.6,5.8
		c-0.9,0-1.7,0-2.6,0c0,0-0.1,0-0.1,0c-0.5-1.2-0.9-2.5-1.4-3.7c-0.4,0.4-0.7,1-1.1,1.5c-0.2,0.6,0.1,1.7-0.2,2.2c-0.7,0-1.3,0-2,0
		c0-3.1,0-6.2,0-9.3c0.7,0,1.4,0,2.1,0c0.2,0.9-0.3,2.9,0.1,3.5C86.4,21.4,86.5,21.4,86.5,21.3z"/>
	<path class="st3" d="M122.4,18c0,1.1,0,2.2,0,3.3c0.7-1.1,1.4-2.2,2.1-3.3c0,0,0.1,0,0.1-0.1c0.7-0.1,2-0.1,2.8,0
		c-0.8,1.2-1.6,2.3-2.4,3.4c0.8,2,1.8,3.8,2.6,5.8c-0.9,0-1.7,0-2.6,0c0,0-0.1,0-0.1,0c-0.4-1.3-0.9-2.5-1.4-3.7
		c-0.9,0.7-1.3,1.9-1.1,3.6c-0.6,0.2-1.5,0-2.2,0.1c0-3.1,0-6.2,0-9.3C120.9,18,121.8,17.9,122.4,18z"/>
	<path class="st1" d="M144.7,23.4c0.4,0.1,1.1-0.1,1.4,0.1C145.7,23.5,145.2,23.5,144.7,23.4C144.7,23.4,144.7,23.4,144.7,23.4z"/>
	<path class="st4" d="M146.1,23.5c0.7,0,0.7,1.2,0.4,1.6c-0.3,0-0.3,0.2-0.6,0.2c-0.4,0-1,0.1-1.2-0.1c0-0.1,0-0.1,0-0.2
		c0.2-0.4,0-1.1,0.1-1.6C145.2,23.5,145.7,23.5,146.1,23.5z"/>
	<path class="st1" d="M134.4,18c0.1,0.1,2-0.4,2.2-0.1c0.2,0.2,0,2.7,0,3.1c0,1.3,0,2.4,0,3.1c-0.2-1.9,0-4.1-0.1-6.1
		C135.9,18,135.2,18,134.4,18C134.5,18,134.4,18,134.4,18z"/>
	<path class="st3" d="M136.7,24.1c0,0.8,0.7,1.4,1.5,1.1c0.3-0.1,0.6-0.3,0.6-0.8c0.1-0.1,0.1-0.2,0.1-0.4c0.2-1.9,0-4.1,0.1-6
		c0.3,0.3,1.8-0.3,2.1,0c0.2,0.2,0,2.7,0,3.1c0,1.3,0,2.4,0,3.1c-0.2,1.7-0.8,3.1-2.6,3.3c-0.4,0-0.7,0-1.1,0
		c-2.1-0.1-2.8-1.6-2.9-3.7c0-1.9,0-3.8,0-5.7c0.7,0,1.4,0,2.1,0C136.6,20,136.5,22.2,136.7,24.1z"/>
	<path class="st3" d="M75.6,27.3c-0.2,1,0.1,2.1,1.2,1.6c0,0.3,0,0.6,0,0.9c0,0,0,0.1,0,0.1c-1.7,1-2.6-0.9-2-2.5
		C74.9,27.3,75.3,27.4,75.6,27.3z"/>
	<path class="st3" d="M49.6,44.8c-1,1-2.2,1.8-3.3,2.6c0.5,0.4,1,0.9,1.6,1.3c0.7-0.1,1.4-0.2,2-0.3c0.1,1,0.3,1.9,0.3,3
		c-2.8,0.4-5.5,0.9-8.4,1.2c-0.1-1-0.3-1.9-0.3-2.9c1-0.2,2.1-0.3,3.1-0.5c-1.1-0.9-2.3-1.8-3.5-2.6c-0.1-1.3-0.4-2.5-0.4-3.9
		c1.3,0.8,2.3,1.9,3.5,2.9c1.7-1.4,3.2-2.9,4.8-4.3C49.5,42.2,49.3,43.7,49.6,44.8z"/>
	<path class="st4" d="M157.3,43.8c0.2,1.3-0.9,2.3-1.7,1.4c-0.1-0.5-0.1-1.2,0-1.6C156.1,43.7,156.8,43.6,157.3,43.8z"/>
	<path class="st3" d="M100,45.9c1,0.3,1.5,1,1.9,1.9c0.7,4.4-5.3,4.3-5.4,0.9C96.4,46.9,97.8,45.5,100,45.9z"/>
	<path class="st4" d="M155.3,61.2c0,0.8-0.1,1.6-0.5,2.1c-1.4,0.5-1.4-1.4-1-2.2C154.3,61.1,154.7,61.2,155.3,61.2z"/>
	<path class="st3" d="M107.1,80.7c-1.5,0.2-3.2,0.3-4.8,0.3c-0.1,1-0.1,2.6,0,3.6c1.3,0.7,3.3,0.5,3.3-1.3c0.7,0.9,2.7,1,3.9,0.4
		c0,0.8-1,1.4-1.2,2.2c-1,1-1.9,2.1-3.1,2.9c0.5,1.2,2.3,1,3.7,1.2c0.1,1.7-0.4,2.8-0.9,3.9c-0.7,0.6-1.3,1.2-2.2,1.5
		c-1.2,0.5-2.7,0.5-3.3,1.6c0,0.3,0,0.5,0,0.8c-0.1,0-0.1,0.1-0.1,0.2c-0.9,0.9-1.7,2-2.6,2.9c-1-0.7-1.6-1.8-2.6-2.5
		c0.1-0.2,0.3-0.3,0.4-0.6c-0.3-1.5-1.7-1.8-2.6-2.8c-1.7-0.9-3.3-2-5-2.9c0.9-0.6,0.4-2-0.2-2.6c1,0.1,1.9,0.2,3,0.2
		c-0.5-1.6-1.5-2.8-1.3-5.1c0.5-1.7,3.5-1.4,5.2-0.9c0.6-0.4,0.9-1.7,0.5-2.6c-1.8-0.1-3.2,0.2-4.9,0.2c0.1-0.3,0.1-0.8,0.1-1.2
		c5.6,0.5,5.2-5.9,4.8-10.7c0.4-0.9,0.9-1.7,1.8-2c3.8,0,3.9,5.6,3.2,9.1c0.6,2.2,2.1,3.4,4.8,3.5C106.9,80.3,107.3,80.3,107.1,80.7
		z M97.3,85.8c-1-0.1-2.8-0.2-3.6,0.2c-0.4,2,1.5,2.9,3.5,3c0.1,0.1,0.7,0.1,0.9,0c2.5-0.1,4.4-0.9,5.7-2.2
		c-1.8-0.4-3.6-0.9-5.7-0.9C98,85.7,97.5,85.8,97.3,85.8z M101.9,92.1c-2.4,0.2-4.7,0.4-6.6,1.2c1.5,1.1,3.3,1.9,5.7,2.1
		c0.1,0.1,0.8,0.1,0.9,0c1.9-0.1,4.3-1.4,3.3-3.3c-0.2,0-0.4,0-0.5,0C103.9,91.9,102.6,91.9,101.9,92.1z"/>
	<path class="st6" d="M98.1,85.9c2.2,0.1,3.9,0.5,5.7,0.9c-1.4,1.3-3.2,2-5.7,2.2c-0.3,0-0.6,0-0.9,0c-2-0.1-3.9-1-3.5-3
		c0.8-0.4,2.5-0.2,3.6-0.2C97.4,86,97.8,85.8,98.1,85.9z"/>
	<path class="st6" d="M104.7,92.1c0.2,0,0.4,0,0.5,0c1,1.9-1.4,3.2-3.3,3.3c-0.3,0-0.6,0-0.9,0c-2.4-0.2-4.2-1-5.7-2.1
		c1.9-0.7,4.2-1,6.6-1.2C102.8,92.1,103.7,92.1,104.7,92.1z"/>
	<path class="st6" d="M49.5,31.6c33.3,0,66.6,0,99.8,0c0,0,0.1,0,0.1,0c-2.4,24.5-4.8,48.9-7.3,73.2c-27.8-0.1-55.8,0.1-83.4-0.1
		C55.8,80.4,52.4,55.9,49.5,31.6z M81.6,91.6c4.1,0,6-2.9,7.1-6.2c0-0.1,0-0.2-0.1-0.2c-2,1.1-4.3,2.6-7.3,2.3
		c-3.2-0.3-4.9-2.7-6.5-4.7c-1.3,1.4-2.9,3.4-4.8,4.2c-0.5,0.2-1.5,0.2-1.9,0c-3-1.3-5.1-4.7-4.7-9.3c0.2-2.7,1.1-5.3,2.1-7.6
		c2.9-6.5,7.6-12.4,12-17.1c0.7,1.9,1.5,3.3,2.6,5c1.6,2.4,3.5,4.4,4.9,6.9c0.7,1.3,1.5,2.8,1.6,4.3c0.3,3.6-1.4,5.1-3,6.7
		c-0.6,2.9,1.5,4.3,4.2,3.7c4.2-1.5,6.3-5.7,6.9-10.9c0.5-4.6,1-10,1.5-14.6c-1.7-1.1-3-2.5-3-5c0-3.4,2.5-5.6,5.3-5.9
		c5.8-0.6,8.4,7.4,4,10.4c0.6,4.2,1.5,9.2,2.2,13.4c0.2,1.6,0.3,3.2,0.6,4.6c0.4,1.6,1.3,3.4,2.5,4.7c1.5,1.7,3.3,3.4,6.4,3.5
		c0.3-0.2,0.6-0.3,0.9-0.5c0.6-0.7,0.6-2.5,0.3-3.6c-1.4-1-2.6-2.2-2.9-4c-0.6-3,0.9-5,1.9-6.8c2-3.3,4.6-6.2,6.3-9.6
		c0.4-0.7,0.6-1.5,1-2.2c4.3,4.1,9.1,9.9,11.9,16c1,2.2,1.9,4.7,2.1,7.3c0.3,3.2-0.4,5.4-1.7,7.3c-1,1.4-2.5,2.9-4.9,2.7
		c-2-0.9-3-2.7-4.1-4.5c-1.5,2-3.4,4.9-6.6,5.3c-3,0.4-5-1-6.9-2.2c1.1,3.3,3.5,6.5,7.8,6.2c1.4-0.1,2.6-0.6,4-0.7
		c-1.3,1.6-3,3.5-5.8,3.5c-2.2,0-4-1.1-5.7-1.9c0.7,2.9,3,5.4,6.4,5.7c3.3,0.3,5.3-1,7.1-2.5c1.6,1.5,4.3,3,7.6,2.6
		c2.6-0.3,4.4-2.1,4.5-5c-1.8,0.5-3.7,1.3-5.9,1.1c-2.9-0.3-4.7-2.4-5.5-4.7c2.3,0.6,4.3,1.7,7.2,1.5c7-0.7,5.8-9.4,6.7-16.7
		c1.4-12.1,1.9-25.1,3.1-37c-28.6,0-57.2,0-85.8,0c1.4,15.2,2.8,33.4,4.3,48.9c0.1,1.4,1.3,2.7,2,3.5c1,1,2.2,1.9,3.6,2.2
		c2.4,0.4,4-0.4,5.7-1c-0.5,4-6.1,4.4-10.1,3.3c0.3,3,2.5,4.6,5.5,4.8c2.9,0.2,5.4-1.4,6.8-2.9c1.8,1.7,4.6,3.4,7.8,2.8
		c3-0.6,5.2-3.4,5.7-6.4c-2.2,1.1-4.5,3-7.8,2.6c-3.1-0.4-4.3-3-5.7-5.1C77,90.6,79.1,91.6,81.6,91.6z M96.4,48.7
		c0.2,3.5,6.1,3.6,5.4-0.9c-0.4-0.9-0.9-1.6-1.9-1.9C97.8,45.5,96.4,46.9,96.4,48.7z M106.8,80c-2.7-0.1-4.2-1.3-4.8-3.5
		c0.7-3.4,0.7-9.1-3.2-9.1c-0.9,0.3-1.4,1.1-1.8,2c0.4,4.8,0.8,11.2-4.8,10.7c0,0.4,0.1,0.9-0.1,1.2c1.7,0,3.1-0.2,4.9-0.2
		c0.4,0.9,0.1,2.2-0.5,2.6c-1.7-0.5-4.7-0.8-5.2,0.9c-0.2,2.3,0.8,3.5,1.3,5.1c-1.1,0.1-2-0.1-3-0.2c0.6,0.6,1.2,1.9,0.2,2.6
		c1.7,0.9,3.3,1.9,5,2.9c0.8,0.9,2.2,1.3,2.6,2.8c-0.1,0.3-0.3,0.4-0.4,0.6c1,0.7,1.6,1.8,2.6,2.5c0.9-1,1.6-2,2.6-2.9
		c0-0.1,0-0.2,0.1-0.2c0-0.3,0-0.5,0-0.8c0.6-1,2.1-1,3.3-1.6c1-0.4,1.6-1,2.2-1.5c0.5-1.1,1-2.2,0.9-3.9c-1.4-0.3-3.2-0.1-3.7-1.2
		c1.2-0.8,2.1-1.9,3.1-2.9c0.3-0.8,1.2-1.4,1.2-2.2c-1.1,0.6-3.1,0.5-3.9-0.4c0.1,1.8-1.9,2-3.3,1.3c-0.1-1-0.1-2.6,0-3.6
		c1.6-0.1,3.3-0.1,4.8-0.3C107.3,80.3,106.9,80.3,106.8,80z"/>
	<path class="st3" d="M91.1,108.6c4,0.1,6.9,1.2,7.3,5c0,0.3,0,0.5,0,0.8c-0.3,3.2-2.6,4.5-5.6,5c4.1,1.2,5.2,5.5,7.5,8.6
		c-1.2,0-2.7,0-4.2,0c-1.4,0-3.5,0.2-4.3-0.2c-0.8-1.1-1.5-2.4-2.4-3.7c-1-1.6-1.8-3.5-4-3.9c-0.2,0-0.9-0.3-1.2,0
		c-0.2,0.2,0,1.4,0,1.9c0,2,0,4.4,0,5.9c-2.4,0-4.9,0-7.3,0c0-6.5,0-13,0-19.5c4.4,0,8.8,0,13.2,0C90.4,108.7,90.8,108.6,91.1,108.6
		z M84.4,116.5c1.1-0.1,2.5,0.1,3.5-0.1c1.8,0,3.7-0.9,3-2.7c-0.7-1.8-4.1-1-6.5-1.2C84.3,113.7,84.3,115.3,84.4,116.5z"/>
	<path class="st3" d="M48.8,128c2.8-6.6,5.9-13,8.8-19.5c2.7,0,5.3,0,8,0c2.9,6.5,6,12.9,8.8,19.5c-2.5-0.1-5.4,0.2-7.7-0.2
		c-0.4-1-0.7-2-1.1-3c-2.8,0-5.5,0-8.3,0c-0.4,1-0.8,2.1-1.2,3.2C53.8,128,51.3,128,48.8,128z M64.2,120.6c-0.9-2.3-1.7-4.7-2.6-6.9
		c-0.8,2.3-1.7,4.6-2.6,6.9C60.5,120.7,62.6,120.7,64.2,120.6z"/>
	<path class="st4" d="M84.4,112.5c2.4,0.2,5.9-0.6,6.5,1.2c0.7,1.9-1.2,2.7-3,2.7c-1.2,0-2.3,0-3.5,0
		C84.4,115.1,84.4,113.8,84.4,112.5z"/>
	<path class="st1" d="M84.4,116.4c1.2,0,2.3,0,3.5,0C86.9,116.6,85.6,116.4,84.4,116.4C84.4,116.5,84.4,116.4,84.4,116.4z"/>
	<path class="st3" d="M133.7,146.9c-5-1.8-9.9-4.3-15-6.3c0.6-1.3,1.1-2.7,1.3-4.3c5.2-0.1,11-0.1,16.3,0
		C136.1,140.4,135,143.7,133.7,146.9z"/>
	<path class="st4" d="M51.3,136.3c5.8,0,11.6,0,17.4,0c0.3,4,1.3,7.3,2.6,10.4c-5.1,2.2-10.3,4.4-15.3,6.7
		C53.6,148.5,51.9,143,51.3,136.3z M67.4,145.2c1.6-2,0.2-6-2.1-6.4c-1.8-0.3-3.4,0.6-5.1,1.1c-1.5,0.4-3.1,0.7-3.9,1.2
		c-1.7,1.1-2,4.7,0.3,5.3c-0.3,0.1-0.6,0.2-0.7,0.5c0.2,0.6,0.3,1.3,0.5,1.9c2.3-0.5,4.3-1.2,6.5-1.8c-0.3-1.3-0.7-2.5-1-3.7
		c-0.7,0.1-1.2,0.3-1.9,0.5c-0.1,0.3,0.3,0.5,0.1,0.7c-0.8,0-2.8,1.3-2.9-0.2c1.2-0.7,2.7-1,4.1-1.4c1.4-0.4,2.9-1,4.3-0.9
		c0.2,1.2-1.8,0.9-2.5,1.5c0.4,1,0.6,2.1,0.9,3.1C65.5,146.3,66.7,146.3,67.4,145.2z"/>
	<path class="st3" d="M150.8,140.5c-0.1,1-0.6,2.2-0.8,3.3c-0.7-0.1-1.5-0.2-2.2-0.4c-0.2,0.3-0.2,0.7-0.3,1.1
		c0.6,0.3,1.4,0.5,2.1,0.8c-0.3,1.1-0.5,2.3-0.9,3.3c-4-1.5-7.8-3.2-11.8-4.7c0.3-1.6,0.8-3.1,1.2-4.7
		C142.4,139.6,146.5,140.2,150.8,140.5z M140.5,142.3c1.7,0.5,3,1.3,4.7,1.7c0.1-0.3,0.2-0.6,0.2-1
		C143.8,142.8,142.1,142.3,140.5,142.3z"/>
	<path class="st3" d="M68.7,136.2c4.5-0.2,9.3,0,13.9-0.1c0.4,1.8,1,3.5,1.6,5c-4.2,1.9-8.6,3.6-12.7,5.6c-0.1,0-0.1-0.1-0.2-0.1
		C70,143.6,69,140.3,68.7,136.2C68.7,136.3,68.7,136.3,68.7,136.2z"/>
	<path class="st3" d="M122.6,160.9c-3.3-4.2-6.4-8.5-9.5-12.9c1.5-1.3,2.8-2.6,4-4.2c4.5,3,8.8,6.2,13.1,9.3c0,0.1,0,0.1,0,0.2
		c-0.7,1-1.5,2-2.3,2.9c-0.4,0.3-0.7,0.7-1,1.1c-0.1,0-0.2,0.1-0.2,0.2c-0.4,0.3-0.7,0.7-1.1,1C124.5,159.3,123.6,160.1,122.6,160.9
		z"/>
	<path class="st4" d="M133.7,146.9c1.3-3.1,2.3-6.5,2.6-10.6c5.5,0,11,0,16.4,0c-0.5,6.6-2.3,12-4.4,17
		C143.5,151.1,138.6,149,133.7,146.9z M138.1,139.3c-0.4,1.5-0.8,3-1.2,4.7c3.9,1.6,7.8,3.2,11.8,4.7c0.3-1.1,0.6-2.2,0.9-3.3
		c-0.7-0.2-1.5-0.4-2.1-0.8c0.1-0.4,0.1-0.8,0.3-1.1c0.7,0.2,1.4,0.3,2.2,0.4c0.2-1.1,0.7-2.3,0.8-3.3
		C146.5,140.2,142.4,139.6,138.1,139.3z"/>
	<path class="st6" d="M158.7,134.7C158.6,134.7,158.6,134.7,158.7,134.7c-1.1,17.1-8.1,29.1-17.3,38.3c-4.5,4.5-10.1,8.3-16.5,11.2
		c-6.4,2.9-13.9,4.9-22.7,5c-0.3,0-0.7,0-1,0c-17.5-0.5-30-7.2-39.1-16.3c-8.1-8-14.3-18.2-16.6-31.9c-0.3-2-0.5-4.2-0.7-6.3
		c-4.2-0.2-8.8,0-13.1-0.1c0-11.3,0-22.5,0-33.8c3.2,0,6.4,0,9.6,0c-3.6-30-7.1-60-10.7-90c45.8,0,91.7,0,137.5,0
		c-3.1,29.9-6.2,59.9-9.3,89.9c3.9,0.2,8.2-0.1,12.1,0.2c0,9.5,0,19.7,0,29.6c0,1.4,0.1,3.3-0.2,4.1
		C166.7,134.7,162.5,134.5,158.7,134.7z M146.2,15.1c-16.5,0-33.1,0-49.6,0C80.9,15.1,65,15,49.4,15.2c-4.4,0-8.7,0-13.1,0
		c3.4,30.1,6.9,60.1,10.3,90.3c-3.5,0-6.9,0-10.4,0c0,8.2,0,16.3,0,24.5c43.2,0,86.4,0,129.6,0c0-8.2,0-16.3,0-24.5
		c-4,0-8.1,0-12.1,0c3.1-30.2,6.2-60.3,9.4-90.4C157.6,15,151.6,15,146.2,15.1z M68.7,136.2c-5.8,0.1-11.7-0.1-17.4,0.1
		c0.6,6.6,2.3,12.1,4.6,17.1c5.1-2.3,10.3-4.4,15.3-6.7c0.1,0,0.1,0.1,0.2,0.1c4.2-1.9,8.6-3.6,12.7-5.6c-0.7-1.6-1.2-3.2-1.6-5
		C78,136.2,73.2,136.1,68.7,136.2z M136.4,136.2c-5.2-0.1-11-0.1-16.3,0c-0.3,1.6-0.7,3-1.3,4.3c5,2,10,4.5,15,6.3
		c4.8,2.2,9.8,4.2,14.6,6.4c2.2-5,3.9-10.3,4.4-17C147.3,136.2,141.8,136.2,136.4,136.2z M130.1,153.3c0-0.1,0-0.1,0-0.2
		c-4.3-3.1-8.6-6.3-13.1-9.3c-1.1,1.6-2.5,2.9-4,4.2c3.1,4.3,6.2,8.7,9.5,12.9c3.1,4.1,6.2,8.2,9.1,12.5c1.8-1.1,3.2-2.5,4.7-3.8
		c0.3-0.2,0.6-0.5,0.9-0.8c0.4-0.5,0.9-0.8,1.2-1.3c0.3-0.2,0.6-0.5,0.8-0.9c1.3-1.3,2.5-2.7,3.6-4.3
		C138.6,159.4,134.4,156.2,130.1,153.3z M82.3,160.7c3-3.9,5.9-7.8,8.8-11.9c-2-1-3.2-2.7-4.7-4.1c-3.8,2.7-7.6,5.5-11.5,8.1
		c0,0.1,0,0.2,0,0.2c-4.5,3.2-9,6.4-13.4,9.6c3.3,4.1,6.8,8,11.3,10.9C75.9,169.2,79,164.9,82.3,160.7z M115.4,164.9
		c0.1,0,0.1-0.1,0.1-0.2c-2.2-4.7-4.3-9.6-6.5-14.3c-1.2,0.3-2.8,1-4.3,1.2c0.5,5.2,0.9,10.5,1.5,15.5c0.5,5.2,1.1,10.3,1.5,15.6
		c3.1-0.4,6.2-1,8.8-1.9c0.3,0,0.5-0.1,0.8-0.2c1.6-0.5,3.2-1,4.5-1.8C119.6,174.3,117.6,169.6,115.4,164.9z M98,167.2
		c0.7-5,1.2-10.1,1.8-15.3c-1.7,0-3.2-0.7-4.5-0.8c-2,4.6-4.2,9-6,13.6c-2.1,4.9-4.3,9.7-6.5,14.5c4,1.5,8.1,2.9,13.1,3.4
		c0.3,0.3,0.5-0.1,0.4-0.5C96.8,177.2,97.3,172.1,98,167.2z"/>
	<path class="st3" d="M92.2,168c-0.1,1.6-0.2,3.1-0.3,4.7c0.7-1.4,1.3-2.9,1.9-4.3c1,0.2,1.9,0.5,2.9,0.7c-1,1.8-2,3.6-3.1,5.5
		c-0.3,0.6-0.8,1.2-1.1,1.8c-0.6,1.4-0.5,3-1.1,4.6c-0.9-0.3-1.9-0.5-2.9-0.7c0.1-1.5,0.8-2.7,1-4.3c0.3-2.6-0.5-5.7-0.3-8.5
		c0-0.1,0-0.1,0.1-0.1C90.3,167.6,91.2,167.8,92.2,168z"/>
	<path class="st4" d="M93.9,22.2c-0.4-2.6,3.1-2.8,2.8-0.2c0,0.4,0,0.8,0,1.2c0.3,2.6-3,2.7-2.8-0.1C93.9,22.8,93.9,22.5,93.9,22.2z
		"/>
	<path class="st4" d="M153.1,51.2c1.5-0.2,2.6,0.3,2.9,1.2c0.9,2.7-3.7,2.8-4.3,1.2C151.2,52.3,152,51.3,153.1,51.2z"/>
	<path class="st4" d="M48.8,76.7c0.9-0.2,1.7-0.1,2.2,0.3c0.7,0.5,0.8,2.1,0.2,2.9c-0.8,1-3.1,1.2-4,0.4c-0.7-0.7-0.5-2.3-0.1-2.9
		C47.6,77,48.3,76.8,48.8,76.7z"/>
	<path class="st4" d="M149.8,76.9c1.1-0.3,2.6,0.1,3.1,0.7c0.7,0.9,0.2,2.2-0.7,2.6c-1.7,0.6-4.3-0.5-3.4-2.5
		C148.9,77.4,149.2,77.1,149.8,76.9z"/>
	<path class="st4" d="M138.1,120.6c0.8-2.3,1.7-4.5,2.5-6.8c1,2.1,1.7,4.5,2.6,6.7C141.7,120.7,139.8,120.5,138.1,120.6z"/>
	<path class="st4" d="M145.5,143c0,0.4-0.1,0.7-0.2,1c-1.7-0.4-3.1-1.2-4.7-1.7C142.1,142.3,143.8,142.8,145.5,143z"/>
	<path class="st4" d="M106.2,167.2c3.5-0.3,6.5-1.2,9.2-2.3c2.2,4.6,4.2,9.4,6.4,14c-1.3,0.8-2.9,1.2-4.5,1.8
		c-0.3,0-0.5,0.1-0.8,0.2c-2.7,0.9-5.7,1.4-8.8,1.9C107.3,177.6,106.7,172.4,106.2,167.2z M112.7,167.9c0.3,1.9,0.9,3.5,1.2,5.3
		c-0.4-0.6-0.9-1.4-1.5-2.4c-0.3-0.5-1.1-2.3-1.6-2.4c-0.8-0.2-1.6,0.6-2.6,0.6c1,4.1,2.1,8.2,3,12.3c1-0.1,1.8-0.5,2.7-0.6
		c-0.4-1.8-0.9-3.6-1.3-5.4c1,1.6,2,3.3,2.9,5c1-0.2,1.9-0.4,2.8-0.7c-1-4.2-2-8.2-3-12.3C114.4,167.4,113.6,167.7,112.7,167.9z"/>
	<path class="st1" d="M101.9,92.1c0.7-0.1,2-0.1,2.8,0C103.7,92.1,102.8,92.1,101.9,92.1z"/>
	<path class="st1" d="M127.7,127.9c0.1,0,0.1,0,0.2,0c2.3,0.1,5.2,0.1,7.5,0c-0.8,0.3-2.8,0.2-4.2,0.2c-4,0-8.6,0.1-12.4-0.1
		C121.8,128,124.8,128,127.7,127.9C127.7,128,127.7,128,127.7,127.9z"/>
	<path class="st1" d="M153.6,127.9c0.1,0,0.1,0.2,0,0.2c-1.2,0-2.5,0-3.9,0c-1.3,0-3,0.1-3.8-0.2
		C148.3,128.1,151.3,128.1,153.6,127.9z"/>
	<path class="st3" d="M98.8,22.9c0.2,2.9-1.8,5.5-5,4.3c-3-1.1-3-8.2,0.1-9.3c2.9-1.1,5,1.2,4.9,4.2C98.8,22.4,98.8,22.7,98.8,22.9z
		 M96.7,22c0.3-2.6-3.2-2.5-2.8,0.2c-0.1,0.2-0.1,0.8,0,1c-0.2,2.8,3.1,2.6,2.8,0.1C96.8,23,96.8,22.2,96.7,22z"/>
	<path class="st3" d="M154.9,32.3c0.1,0.9-0.1,1.5-0.1,2.4c-1.4-0.5-2.2,2.4-0.8,2.4c1,0,1.2-2.1,1.8-3c0.4-0.6,1.1-1.1,1.9-1.2
		c2.9-0.1,2.9,5,1.2,6.3c-0.5,0.4-0.7,0.4-1.7,0.5c-0.1-0.9,0.1-1.5,0.1-2.3c0.8,0.5,1.7-1.8,0.8-2c-0.7-0.2-1.1,1.6-1.2,1.9
		c-0.5,1.1-0.9,2.1-2,2.3C150.4,40.4,150.6,31.9,154.9,32.3z"/>
	<path class="st3" d="M49,40.2c-2.9,0.3-5.6,0.8-8.4,1.2c-0.1-1-0.2-1.9-0.3-2.9c2.8-0.5,5.6-0.8,8.4-1.2C48.8,38.1,49,39.4,49,40.2
		z"/>
	<path class="st3" d="M153.8,44.9c0-0.6,0-1.1,0.2-1.6c-0.9-0.2-2-0.2-2.9-0.4c0-0.9,0.2-1.6,0.2-2.5c2.7,0.3,5.4,0.6,8,0.9
		c-0.5,2.1,0.1,5-1.3,6.1c-1.4,1.1-4.2,0.2-4.1-1.8C153.8,45.5,153.8,45.2,153.8,44.9z M155.6,43.5c-0.1,0.5-0.1,1.2,0,1.6
		c0.8,0.9,1.9-0.1,1.7-1.4C156.8,43.6,156.1,43.7,155.6,43.5z"/>
	<path class="st3" d="M153,48.7c2.8-0.3,4.8,1,5,3.5c0.1,0.9-0.1,2.4-0.7,3.3c-1.2,1.9-4.1,2-5.9,1c-1.8-1-2.4-4.3-1.1-6.3
		C150.8,49.7,151.7,48.9,153,48.7z M151.7,53.6c0.7,1.6,5.3,1.4,4.3-1.2c-0.3-0.9-1.5-1.3-2.9-1.2C152,51.3,151.2,52.3,151.7,53.6z"
		/>
	<path class="st3" d="M48.8,62.1c-0.3-0.8-0.3-1.8-0.5-2.7c0.2-0.4,0.8-0.2,1.1-0.9c0.4-0.8,0.1-2.3-0.8-2.3c-0.9,0-0.9,1.4-1,2.3
		c-0.2,1.9-0.7,4.4-3.3,3.6c-2.3-0.8-3-7.7,0.2-7.9c0.1,0.9,0.2,1.8,0.5,2.6c-0.1,0.3-0.8,0.4-0.9,1c-0.2,0.9,0.2,1.8,0.7,1.7
		c0.7-0.1,0.6-1.7,0.7-2.4c0.3-2.1,1.1-4.7,3.7-3.6c1.8,0.8,2.7,4.8,1.8,6.9C50.5,61.3,49.8,61.6,48.8,62.1z"/>
	<path class="st3" d="M157.2,58.9c-0.5,2.1,0.1,5.4-1.3,6.6c-1.3,1.1-3.8,0.3-3.7-1.7c-0.7,1.3-2.5,1.5-3.9,2.1
		c0.1-0.9,0.3-1.8,0.3-2.8c1.2-0.8,3.2-0.6,3.6-2.2c-1-0.2-2.2-0.2-3.2-0.5c0-0.9,0.1-1.8,0.3-2.5C151.9,58.3,154.5,58.6,157.2,58.9
		z M153.8,61.1c-0.4,0.8-0.4,2.8,1,2.2c0.4-0.5,0.4-1.3,0.5-2.1C154.7,61.2,154.3,61.1,153.8,61.1z"/>
	<path class="st3" d="M156.3,67c-0.2,2.5-0.6,5-0.9,7.5c-0.7,0-1.4-0.1-2-0.2c0.1-0.8,0.2-1.6,0.3-2.4c-1.8-0.4-4-0.5-6-0.8
		c0-0.9,0.1-1.8,0.3-2.6c1.9,0.3,3.9,0.5,5.9,0.7c0.2-0.7,0.3-1.6,0.3-2.5C155,66.8,155.6,66.8,156.3,67z"/>
	<path class="st3" d="M48.5,83.7c-4.4-0.3-4.8-7.9-1.5-9.5c3.2-1.6,6.8,0.4,6.6,4.4c0,0.3,0,0.7,0,1c-0.2,2.5-1.6,3.9-4.1,4.1
		C49.1,83.7,48.8,83.7,48.5,83.7z M47.2,77.4c-0.5,0.5-0.6,2.2,0.1,2.9c0.8,0.8,3.2,0.7,4-0.4c0.6-0.8,0.4-2.3-0.2-2.9
		c-0.4-0.4-1.2-0.5-2.2-0.3C48.3,76.8,47.6,77,47.2,77.4z"/>
	<path class="st3" d="M150.8,82.8c-3.7,0.4-5.1-4-3.4-6.7c1.8-2.8,7.8-1.9,7.7,1.9c0,0.3,0,0.5,0,0.8c-0.2,2.3-1.1,3.9-3.5,4
		C151.3,82.8,151,82.8,150.8,82.8z M148.8,77.7c-0.9,1.9,1.7,3.1,3.4,2.5c0.9-0.3,1.4-1.6,0.7-2.6c-0.5-0.6-2-1-3.1-0.7
		C149.2,77.1,148.9,77.4,148.8,77.7z"/>
	<path class="st3" d="M154.2,83.5c0.3,0.6-0.1,1.7-0.2,2.4c-1.5,0-2.8,0.2-4.3,0.2c1.2,0.8,2.7,1.2,4.1,1.8
		c-0.1,0.8-0.2,1.6-0.3,2.4c-1.5,0.2-2.8,0.5-4.3,0.6c1.2,0.6,2.7,0.9,4.1,1.4c-0.1,1.7-0.4,3.3-0.5,5.1c-0.9,0.5-1.9,0.9-2.9,1.3
		c0.8,0.7,1.6,1.3,2.5,1.9c-0.1,0.9-0.3,1.8-0.3,2.7c-1.6-1.1-2.9-2.4-4.3-3.6c-1.1-0.1-2.2-0.2-3.3-0.4c0.1-0.8,0.2-1.7,0.3-2.5
		c1.3-0.1,2.3,0.5,3.3,0.4c0.6-0.1,2-0.9,2.6-1.2c0.9-0.5,1.6-0.9,2.4-1.3c-2.5-1-5.1-1.8-7.7-2.7c0.1-0.8,0.2-1.7,0.3-2.5
		c1.7-0.2,3.4-0.5,5-0.8c-1.5-0.7-3.1-1.3-4.7-1.9c0-0.9,0.2-1.6,0.2-2.5C148.8,84.1,151.5,83.8,154.2,83.5z"/>
	<path class="st3" d="M127.9,127.9c2.9-6.5,5.9-12.9,8.8-19.4c2.7,0,5.4,0,8.1,0c2.9,6.5,5.9,12.9,8.8,19.4c-2.4,0.1-5.3,0.1-7.7,0
		c-0.4-1-0.8-2-1.1-3.1c-2.8,0-5.5,0-8.3,0c-0.5,0.9-0.8,2.1-1.2,3.1C133.1,128.1,130.2,128.1,127.9,127.9z M143.2,120.5
		c-0.9-2.2-1.6-4.7-2.6-6.7c-0.8,2.3-1.7,4.5-2.5,6.8C139.6,120.7,142.2,120.8,143.2,120.5z"/>
	<path class="st3" d="M155.7,116.2c0.4-1.9,1.3-2.7,2.6-3c4.8-1.1,5.7,5.8,1.9,6.8c-2.4,0.7-4.3-1-4.5-3
		C155.7,116.8,155.7,116.5,155.7,116.2z"/>
	<path class="st3" d="M43.9,113.9c4.5-0.8,5.3,5.4,2,6.7c-2.3,1-4.7-0.7-4.9-3C40.9,115.5,42.2,114.2,43.9,113.9z"/>
	<path class="st3" d="M64.2,146.7c-0.4-1-0.6-2.1-0.9-3.1c0.7-0.6,2.7-0.2,2.5-1.5c-1.4-0.2-2.9,0.5-4.3,0.9
		c-1.4,0.4-2.9,0.7-4.1,1.4c0.2,1.5,2.1,0.2,2.9,0.2c0.2-0.2-0.2-0.4-0.1-0.7c0.6-0.1,1.2-0.4,1.9-0.5c0.3,1.3,0.7,2.4,1,3.7
		c-2.2,0.6-4.3,1.3-6.5,1.8c-0.2-0.6-0.4-1.3-0.5-1.9c0.1-0.3,0.4-0.4,0.7-0.5c-2.3-0.7-2.1-4.3-0.3-5.3c0.8-0.5,2.4-0.8,3.9-1.2
		c1.7-0.5,3.4-1.4,5.1-1.1c2.3,0.4,3.7,4.4,2.1,6.4C66.7,146.3,65.5,146.3,64.2,146.7z"/>
	<path class="st3" d="M74.8,153.1c0-0.1,0-0.2,0-0.2c3.9-2.6,7.7-5.4,11.5-8.1c1.5,1.4,2.8,3.1,4.7,4.1c-2.9,4-5.7,8-8.8,11.9
		c-1.1-0.7-1.9-1.6-2.9-2.3c-0.2-0.3-0.5-0.5-0.8-0.8C77.3,156.2,75.9,154.8,74.8,153.1C74.9,153.1,74.8,153.1,74.8,153.1z"/>
	<path class="st3" d="M106.2,167.2c-0.6-5-1-10.3-1.5-15.5c1.5-0.3,3.1-0.9,4.3-1.2c2.3,4.7,4.3,9.6,6.5,14.3c0,0.1,0,0.1-0.1,0.2
		C112.7,166,109.7,166.9,106.2,167.2z"/>
	<path class="st3" d="M89.2,164.8c1.9-4.7,4.1-9.1,6-13.6c1.3,0.1,2.8,0.8,4.5,0.8c-0.6,5.1-1.1,10.3-1.8,15.3
		C94.7,166.8,91.9,165.9,89.2,164.8z"/>
	<path class="st3" d="M115.3,167.2c1,4.1,2.1,8.2,3,12.3c-0.9,0.3-1.8,0.5-2.8,0.7c-1-1.6-1.9-3.3-2.9-5c0.4,1.8,0.9,3.6,1.3,5.4
		c-0.9,0.2-1.7,0.5-2.7,0.6c-1-4.2-2-8.2-3-12.3c0.9,0,1.8-0.8,2.6-0.6c0.5,0.1,1.3,1.9,1.6,2.4c0.6,1,1.1,1.8,1.5,2.4
		c-0.4-1.8-1-3.4-1.2-5.3C113.6,167.7,114.4,167.4,115.3,167.2z"/>
</g>
</svg>
