<?xml version="1.0" encoding="utf-8"?>
<!-- Generator: Adobe Illustrator 21.1.0, SVG Export Plug-In . SVG Version: 6.00 Build 0)  -->
<svg version="1.1"
	 id="svg2" inkscape:version="0.91 r13725" sodipodi:docname="tripoli.svg" xmlns:cc="http://creativecommons.org/ns#" xmlns:dc="http://purl.org/dc/elements/1.1/" xmlns:inkscape="http://www.inkscape.org/namespaces/inkscape" xmlns:rdf="http://www.w3.org/1999/02/22-rdf-syntax-ns#" xmlns:sodipodi="http://sodipodi.sourceforge.net/DTD/sodipodi-0.dtd" xmlns:svg="http://www.w3.org/2000/svg"
	 xmlns="http://www.w3.org/2000/svg" xmlns:xlink="http://www.w3.org/1999/xlink" x="0px" y="0px" viewBox="0 0 200 200"
	 style="enable-background:new 0 0 200 200;" xml:space="preserve">
<style type="text/css">
	.st0{fill:#F0D013;}
	.st1{fill:#0F4D84;}
</style>
<g id="g3366" transform="matrix(0.99337607,0,0,0.99337607,3.6241471,1.4869061)">
	<path id="path3368" inkscape:connector-curvature="0" class="st0" d="M90.4,199.8c-0.6-0.1-2.6-0.3-4.4-0.4
		c-19.1-1.9-38.7-10.3-53.8-22.9c-2.7-2.3-9.3-8.8-11.8-11.7c-12.9-15.1-20.9-33-23.6-53.5c-0.7-5.3-0.7-18.9,0-24.2
		c1.6-11.7,4.5-21.5,9.3-31.4c5.2-10.8,10.5-18.3,18.4-26.4C33.2,20.4,41,14.6,51.4,9.3C62.7,3.6,73.2,0.5,86.1-1.1
		c4.8-0.6,18.2-0.5,23.1,0.1c19.8,2.6,37.8,10.4,52.6,22.8c2.7,2.3,9.3,8.8,11.8,11.7c13,15.1,20.9,33,23.6,53.5
		c0.7,5.3,0.7,18.9,0,24.2c-2.7,20.4-10.6,38.4-23.6,53.5c-2.5,2.9-9.1,9.4-11.8,11.7c-14.8,12.4-33,20.3-52.4,22.8
		C105.8,199.6,93.1,200,90.4,199.8z M93.5,192c0-0.4-4.3-12.7-4.7-13.5c-0.2-0.3-0.6-0.5-1.2-0.5c-0.9,0-1.1,0.3-4.9,5.6
		c-4.8,6.8-4.5,6.4-4,6.7c0.8,0.5,1.5,0.2,2.5-1.2l1.1-1.5l2.1,0.2c1.1,0.1,3,0.4,4.1,0.5l2,0.4l0.5,1.5c0.3,0.8,0.7,1.6,0.8,1.8
		C92.2,192.4,93.5,192.4,93.5,192L93.5,192z M85.8,186.5c-1-0.1-1.8-0.4-2-0.5c-0.3-0.3,2.9-5.3,3.4-5.3c0.2,0,0.5,0.2,0.6,0.5
		c0.6,1.6,1.6,4.6,1.6,5.1C89.4,186.8,88.8,186.9,85.8,186.5L85.8,186.5z M107.5,191.8c1.4-0.2,1.6-0.3,1.7-0.9l0.1-0.7l-4.4,0.2
		c-4,0.2-4.4,0.1-4.5-0.3c-0.1-0.3-0.2-2.8-0.4-5.7c-0.2-5.6-0.4-6.1-1.6-5.5c-0.6,0.3-0.6,0.5-0.5,3c0.1,1.5,0.3,4.3,0.4,6.2
		c0.1,1.9,0.3,3.7,0.4,3.8C99.1,192.3,104.2,192.2,107.5,191.8L107.5,191.8z M119,189.8c5.6-1.3,5.5-1.3,5.5-1.7c0-1-0.7-1-4.6-0.1
		c-3.2,0.7-3.9,0.8-4.2,0.5c-0.2-0.2-0.8-2.6-1.5-5.3s-1.3-5.1-1.5-5.3c-0.3-0.3-0.5-0.3-1-0.1c-0.7,0.4-0.7,0,1,7.5
		c0.9,4.2,1.4,5.7,1.8,5.7C114.4,190.9,116.5,190.4,119,189.8L119,189.8z M73.9,187.5c0.8-0.5,1.5-2.1,1.5-3.1
		c0-0.4-0.2-1.1-0.5-1.5c-0.4-0.8-0.4-0.9,0.4-1.6c0.5-0.4,1-1,1.2-1.4c0.8-1.5,0.1-3.6-1.5-4.4c-1.3-0.6-9.2-3.6-9.7-3.6
		c-0.4,0-0.6,0.4-3.2,7.7c-1.3,3.6-1.5,4.4-1.2,4.7c0.2,0.2,2.4,1.1,4.9,2C70.7,188.1,72.7,188.3,73.9,187.5z M67.7,185.3
		c-4.4-1.5-4.8-1.7-4.8-2c0-0.4,1-3.1,1.3-3.5c0.4-0.6,1-0.5,4.7,0.9c3.9,1.4,4.6,2,4.6,3.4c0,1-1.2,2.3-2.1,2.3
		C71.1,186.5,69.4,186,67.7,185.3L67.7,185.3z M68.7,179.1c-1.7-0.6-3.2-1.3-3.4-1.5c-0.3-0.3-0.3-0.6,0.2-1.8
		c0.3-0.8,0.7-1.5,0.8-1.7c0.4-0.4,6.7,1.8,7.9,2.7c0.8,0.6,0.9,1.8,0.3,2.8C73.7,180.6,72.3,180.5,68.7,179.1z M143.9,180.2
		c3.1-1.4,5.1-3.5,5.6-5.9c0.4-1.5,0.1-2.1-0.9-1.6c-0.5,0.2-0.8,0.7-1.1,1.7c-0.7,2.6-4,5-6.9,5c-1.8,0-3.1-0.7-4.2-2.2
		c-1.7-2.3-1.5-4.5,0.5-6.7c1.9-2,3.8-2.7,6.3-2.5c1.7,0.1,2,0.1,2.5-0.4c0.5-0.6,0.5-0.6-0.6-1.1c-3.3-1.4-9,1-10.8,4.5
		c-1.4,2.7-1.3,4.6,0.5,7.2c1.4,2,3.6,3.1,5.8,3C141.5,181.1,143,180.6,143.9,180.2L143.9,180.2z M51.5,178.4c0.2-0.3,1.6-2.4,3-4.7
		c1.4-2.3,2.7-4.2,2.8-4.3s1.2,0.4,2.3,1.1c2,1.2,3.1,1.3,2.9,0.4c-0.1-0.5-1.8-1.6-7.8-5.3c-2.6-1.6-2.7-1.6-3.1-1.1
		c-0.5,0.7-0.2,1.1,1.8,2.2c0.8,0.5,1.7,1.1,1.9,1.3c0.2,0.3-0.4,1.5-2.6,5.3c-2.5,4.1-2.9,4.9-2.6,5.3
		C50.4,179,50.9,179,51.5,178.4L51.5,178.4z M159.9,168.4c2-1.8,3.6-3.4,3.6-3.7c0-1.1-1.3-0.5-4.2,2c-1.6,1.4-3,2.6-3.2,2.6
		c-0.1,0-1.9-1.8-3.9-4.1c-2-2.3-3.9-4.1-4.1-4.1s-0.6,0.2-0.8,0.6c-0.2,0.5,0.4,1.3,3.9,5.3c2.3,2.6,4.4,4.7,4.6,4.7
		C156.1,171.6,157.9,170.1,159.9,168.4L159.9,168.4z M42.8,169.8c1.7-0.5,3.8-2.6,4.4-4.4c1.6-5-2.9-10.8-8.5-10.8
		c-2.3,0-3.7,0.6-5.2,2.3c-2.9,3.4-1.7,8.4,2.6,11.5C38.4,170,40.6,170.4,42.8,169.8L42.8,169.8z M38.9,168
		c-2.2-0.8-4.7-3.5-5.1-5.7c-0.6-3.2,2.9-6.7,6.2-6c1.4,0.3,3.5,1.8,4.7,3.3c2.2,2.9,1.2,6.8-2.1,8.3
		C41.2,168.5,40.3,168.5,38.9,168L38.9,168z M167.5,159.3c1.5-0.4,4.2-3.1,5.1-5.1c0.9-1.9,1-4.2,0.1-5.3c-0.8-1.1-7.4-6.2-8.1-6.2
		c-0.3,0-0.6,0.3-0.8,0.6c-0.3,0.5,0,0.8,2.2,2.6c1.4,1.1,3.2,2.5,3.9,3.1c0.8,0.6,1.5,1.4,1.6,1.8c0.6,2.5-2.8,6.8-5.4,6.8
		c-1.1,0-2.2-0.7-6.3-3.8c-2.3-1.8-2.4-1.8-2.9-1.4c-0.9,0.7-0.4,1.4,3.2,4C164.7,159.6,165.3,159.9,167.5,159.3L167.5,159.3z
		 M61.1,156.3c2.8-1.5,12.3-6.5,21.1-11.1c8.8-4.6,16.1-8.4,16.3-8.4c0.1,0,6.3,3.2,13.6,7c7.4,3.9,16.4,8.6,20.1,10.5
		c3.7,1.9,7.2,3.8,7.7,4.1c1.1,0.6,1.8,0.7,1.8,0.2c0-0.2-0.3-2.2-0.7-4.5c-0.4-2.3-1.3-7.7-2-12c-0.7-4.3-1.6-9.3-1.9-11.1
		c-1.9-10.8-3.2-18.8-3.2-19.5c0-0.6,3.7-4.3,17.2-17.5c9.5-9.2,17.2-16.9,17.2-17c0-0.4-0.4-0.4-9.3-1.7c-24-3.4-38.4-5.6-38.6-5.8
		c-0.3-0.2-8-15.7-17.6-35.4c-2.1-4.4-4-8-4.2-8s-2.5,4.5-5.2,10C79.7,64.2,77,69.5,76.7,69.7c-0.2,0.1-6.2,1.1-13.4,2.1
		c-7.2,1.1-17.2,2.5-22.3,3.2s-9.8,1.4-10.6,1.5c-0.8,0.1-1.5,0.3-1.5,0.5c-0.1,0.3,21.4,21.4,31.5,31.1c2.2,2.1,2.9,2.9,2.9,3.5
		c0,0.4-0.6,4.2-1.3,8.4c-3.3,18.9-6.6,38.4-6.6,38.7C55.2,159.3,56,159,61.1,156.3L61.1,156.3z M64.6,144.9c0-0.4,0.5-3.8,1.1-7.6
		c2-12,3.5-20.7,4.1-24c0.3-1.8,0.6-3.6,0.6-4.1c0-1-1.3-2.3-21.4-21.8c-3.7-3.6-4.9-4.9-4.7-5.2c0.2-0.2,1.7-0.5,3.4-0.8
		c1.7-0.2,3.9-0.6,4.9-0.7c1.1-0.2,4.3-0.6,7.2-1.1c2.9-0.4,6-0.9,7-1c1-0.1,2.6-0.4,3.7-0.6c5-0.7,6.7-1,8.4-1.2
		c1-0.1,2-0.4,2.1-0.5c0.3-0.3,9.5-18.8,14-28c2.3-4.8,2.9-5.6,3.4-4.7c0.1,0.2,3.8,7.5,8.1,16.3c4.3,8.8,8,16.1,8.2,16.3
		c0.3,0.4,2.5,0.7,10.4,1.8c1.2,0.2,3,0.4,3.9,0.6c1,0.1,2.8,0.4,4.1,0.6s3.2,0.5,4.2,0.6c2.4,0.4,4.6,0.7,9.7,1.4
		c2.3,0.4,4.4,0.7,4.5,0.9c0.3,0.3,0.2,0.4-16,16.2c-9.7,9.4-10.5,10.3-10.3,11c0.1,0.4,0.8,4.7,1.6,9.4c0.8,4.7,1.9,10.9,2.3,13.7
		c2.2,13,2.3,13.3,1.3,12.9c-0.2-0.1-2-1-4-2.1c-2-1.1-9.2-4.8-16.1-8.4l-12.5-6.5l-3.2,1.6c-1.7,0.9-4.5,2.3-6.2,3.2
		c-6.6,3.5-23,12.1-23.5,12.3C64.7,145.6,64.6,145.5,64.6,144.9L64.6,144.9z M31.1,154.1c1.1-0.6,1.8-1.3,2.4-2.4
		c0.9-1.5,1-1.7,0.8-3.9c-0.1-1.6-0.3-2.7-0.8-3.6c-1.9-3.7-5.6-5.8-8.9-4.9c-4.6,1.2-6.6,5.5-4.6,9.9c1.1,2.3,2.3,3.8,3.9,4.8
		C26.7,155.4,28.7,155.5,31.1,154.1L31.1,154.1z M25,152.5c-0.6-0.4-1.5-1.1-1.8-1.5c-2.6-3.5-2.7-6.4-0.2-8.6
		c2.1-1.8,4.8-2,6.7-0.4c1.3,1.1,2.9,3.5,3.1,5C33.6,151.3,28.7,154.7,25,152.5L25,152.5z M180.9,140.2c2.5-5.5,2.8-6.7,2.2-8.2
		c-0.4-0.8-0.8-1.2-1.8-1.7c-1.2-0.5-1.5-0.6-2.7-0.2c-1.1,0.3-1.3,0.3-1.5,0c-0.1-0.2-0.5-0.8-0.9-1.2c-0.6-0.6-1.1-0.8-2.2-0.8
		c-1.2,0-1.5,0.1-2.4,1.1c-1.1,1.2-4.8,9.1-4.6,9.9c0.1,0.5,10.9,5.7,11.6,5.6C178.7,144.6,179.8,142.6,180.9,140.2L180.9,140.2z
		 M175.9,141.6c-0.9-0.4-1.6-1-1.7-1.3c-0.1-0.5,3-7.2,3.7-7.9c0.7-0.8,2.3-0.7,3.2,0.2c0.6,0.6,0.7,0.9,0.6,1.8
		c-0.2,1.3-3.4,7.8-3.8,7.9C177.7,142.3,176.8,142,175.9,141.6L175.9,141.6z M170.4,139c-0.8-0.4-1.5-0.8-1.5-1c0-0.6,3-6.9,3.5-7.4
		c1.3-1.3,3.7-0.1,3.4,1.6c-0.2,0.8-2.7,6.5-3.2,7.2C172.2,139.9,172.2,139.9,170.4,139z M21.3,136.4c0.3-0.4-0.7-3.5-2.6-8
		c-0.1-0.4-0.3-0.7-0.3-0.8c0-0.2,3.2-1.6,3.7-1.6c0.3,0,1,1.5,1.9,3.9c0.8,2.1,1.6,4.2,1.8,4.6c0.3,0.8,1.3,0.8,1.4,0
		c0.1-0.6-3.3-9.8-3.9-10.4c-0.3-0.4-1-0.2-4.1,1.1c-2.1,0.8-4.7,1.8-5.9,2.3c-2.3,0.9-2.7,1.3-2,2.1c0.4,0.4,0.7,0.4,2.9-0.5
		c2-0.8,2.5-0.9,2.8-0.6c0.2,0.2,1,2,1.8,4C20.3,137,20.6,137.3,21.3,136.4L21.3,136.4z M18.3,90.7l0.3-1.6L17.3,88
		c-1.1-1.1-1.2-1.1-0.9-2.4c0.1-0.7,0.4-2.1,0.6-3.2c0.5-2.5,0.6-2.8,2.1-3.2c1.2-0.3,1.3-0.4,1.6-1.4c0.4-1.6,0.4-2.7-0.1-2.7
		c-0.2,0-1.4,0.3-2.6,0.6c-1.2,0.3-4.2,1.1-6.8,1.8c-2.6,0.6-5,1.3-5.3,1.5c-0.5,0.2-0.7,0.7-1,1.9c-0.2,0.9-0.3,1.8-0.2,2
		C5,83.5,17,92.4,17.5,92.3C17.8,92.3,18.1,91.7,18.3,90.7z M11.3,83.7c-1.1-0.8-2-1.5-2-1.8c0-0.2,0.5-0.5,1.1-0.6
		c3-0.8,3.7-0.9,3.9-0.7c0.3,0.3-0.4,3.6-0.8,4.1C13.4,85,12.9,84.8,11.3,83.7z M181.5,90.2c1.5-0.8,2-2.3,2-6.7
		c0-4.2,0.2-4.9,1.5-4.8c1.6,0.2,2.6,4.4,1.6,6.5c-0.5,1-0.5,1.1,0,2.4c0.6,1.7,1,1.9,1.8,0.9c1-1.3,1.4-3.1,1.2-5.6
		c-0.4-5.8-3.5-8.9-7-7.2c-1.7,0.8-2.1,1.8-2.2,6.6c-0.1,2.3-0.2,4.4-0.4,4.6c-0.4,0.6-1.5,0.4-2.1-0.2c-0.6-0.7-1.3-3-1.3-4.5
		c0-0.6,0.3-1.6,0.6-2.3c0.7-1.4,0.7-1.7,0.1-3.1c-0.6-1.3-1-1.3-1.9-0.1c-1.1,1.5-1.5,2.9-1.5,5.1c0,3.8,1.8,7.8,3.8,8.6
		C178.5,90.8,180.5,90.7,181.5,90.2L181.5,90.2z M179,72.3c3.4-1.2,6.3-2.3,6.5-2.5c0.4-0.3,0.4-0.6-0.1-1.7
		c-0.3-0.7-0.6-1.4-0.8-1.5c-0.1-0.1-3.1,0.8-6.5,2c-7.7,2.7-7.2,2.5-7.2,3c0,0.8,1.2,3.1,1.5,3C172.7,74.4,175.6,73.4,179,72.3z
		 M20.6,73c3.2-1.3,6.4-7.8,5.4-11.2c-0.4-1.5-1.9-2.9-3.4-3.2c-1.9-0.4-3.2,0.6-5.4,3.7c-2.4,3.5-2.9,4-3.7,4c-1.3,0-1.4-2-0.3-4.3
		c0.3-0.5,1.1-1.4,1.8-2.1c1.2-1,1.4-1.3,1.5-2.5c0.1-0.7,0-1.4-0.1-1.5c-0.2-0.1-1,0.1-1.8,0.6c-2.7,1.3-5,5.6-5,9.2
		c0,1.5,0.1,1.9,0.9,2.7c1.6,1.8,3.8,2,5.6,0.6c0.5-0.4,1.8-2.1,2.9-3.8c1.6-2.4,2.2-3,2.7-3c1,0,1.4,0.6,1.4,2
		c0,2.2-1.5,4.6-3.5,5.6c-1,0.5-1.4,1.3-1.4,3C18.1,73.5,19.2,73.6,20.6,73L20.6,73z M171.6,69c0.4-0.2,0.8-0.5,0.9-0.7
		c0.1-0.2-0.6-1.8-1.5-3.6c-0.9-1.8-1.6-3.4-1.5-3.6c0.1-0.2,2.4-1.6,5.2-3c2.7-1.4,5-2.7,5-2.8c0-0.5-1.1-2.5-1.5-2.8
		c-0.2-0.1-3.2,1.2-6.6,3c-4.5,2.3-6.3,3.3-6.3,3.7c0,0.5,4.1,9,4.7,9.8C170.5,69.4,170.7,69.4,171.6,69L171.6,69z M32.3,54.1
		c0.4-0.6,0.8-1.3,0.8-1.5s-0.8-0.8-1.8-1.5c-4.3-2.9-7.5-5.3-7.5-5.6c0-0.2,0.5-1.1,1.2-2.1c0.6-1,1.2-2,1.2-2.2
		c0-0.5-1.2-1.4-1.7-1.4c-0.4,0-8.2,11.3-8.2,11.8c0,0.5,1.4,1.4,1.9,1.3c0.2-0.1,1-0.9,1.6-1.9c0.7-1,1.5-1.8,1.7-1.8
		c0.3,0,2.4,1.4,4.8,3.1c2.4,1.7,4.6,3.1,4.8,3.1C31.3,55.3,31.8,54.8,32.3,54.1z M168.5,53.2c4.2-2.1,5.6-6.2,3.6-10.3
		c-2.4-4.9-6.8-7.4-10.8-6.3c-1.8,0.5-3.8,2.3-4.8,4.1c-0.8,1.4-0.8,1.8-0.7,3.7c0.2,2.7,1.2,4.7,3.5,7
		C162.3,54.3,165.2,54.9,168.5,53.2L168.5,53.2z M162,50c-0.6-0.4-1.5-1.2-2-1.9c-0.7-1.1-0.9-1.5-0.9-3c0-1.5,0.1-1.8,0.9-2.8
		c2.7-3.4,7.1-3,9,0.9c0.8,1.7,0.9,1.9,0.4,3.5c-0.6,2.2-3,4-5.3,4C163.7,50.6,162.7,50.3,162,50L162,50z M42.6,42
		c5.2-5.1,5.2-5.2,3.6-6.3c-0.6-0.4-0.8-0.3-4.1,3c-1.9,1.9-3.7,3.4-3.9,3.4c-0.2,0-0.9-0.5-1.4-1l-1-1l3.3-3.3
		c1.8-1.8,3.3-3.5,3.3-3.7c0-0.6-0.9-1.5-1.4-1.5c-0.3,0-1.8,1.4-3.5,3.1c-1.7,1.7-3.3,3.1-3.5,3.1c-0.4,0-1.4-0.9-1.9-1.7
		c-0.1-0.3,0.8-1.5,3.2-3.8c3.1-3.1,3.4-3.5,3.1-4.1c-0.2-0.4-0.6-0.8-0.9-0.9c-0.5-0.3-0.9-0.1-3.1,2.1c-1.4,1.3-3.5,3.4-4.8,4.6
		c-1.3,1.2-2.3,2.3-2.3,2.4c0,0.4,9.8,10.4,10.2,10.4C37.6,46.8,39.9,44.7,42.6,42L42.6,42z M157.2,35.7c2.3-1.2,3.3-4.4,2-6.4
		c-0.8-1.2-8.3-7.3-9-7.3c-0.5,0-9.1,10.5-9.1,11.2c0,0.5,1.9,2,2.5,2c0.2,0,1.1-0.8,1.9-1.9c0.8-1.1,1.6-1.9,1.7-1.9s1.3,0.9,2.7,2
		C153.9,36.5,155,36.8,157.2,35.7z M151.2,31.1c-1.2-1-2.2-1.9-2.2-2c0-0.3,1.7-2.5,2.2-2.7c0.4-0.2,3.6,2.1,4.6,3.3
		c0.7,0.8,0.6,1.8-0.1,2.5C154.7,33.3,153.7,33,151.2,31.1L151.2,31.1z M50.7,35.1c0.6-0.4,1.1-0.8,1.1-1.1s-0.5-1.3-1.2-2.4
		c-0.6-1.1-1.2-2.1-1.2-2.4c0-0.2,0.7-0.8,1.6-1.4l1.6-1l3.1,1.3c1.7,0.7,3.2,1.3,3.4,1.3c0.2,0,1.1-0.4,2-1
		c0.9-0.6,2.4-1.3,3.3-1.6l1.7-0.6l0.2-1.5c0.1-0.8,0.3-1.5,0.4-1.6c0.1-0.1,1.7-0.7,3.5-1.3l3.2-1.1l1.2,1.1l1.2,1.1l1.6-0.6
		c0.9-0.3,1.7-0.7,1.7-0.9c0.1-0.2-2.5-2.8-5.6-5.9L67.9,10l-1.7,0.6c-0.9,0.3-1.8,0.7-1.9,0.8s-0.6,3.5-1,7.5
		c-0.4,4.1-1,7.5-1.1,7.7c-0.3,0.3-0.8,0.2-3-0.7c-1.5-0.6-2.7-1.2-2.8-1.3c-0.1-0.1,0.1-0.7,0.5-1.2c1.3-1.8,0.5-4.9-1.6-6
		c-1.1-0.6-3-0.6-4-0.1c-0.4,0.2-2.7,1.6-5.2,3.1c-3.9,2.4-4.5,2.9-4.4,3.4c0.2,1.2,7,11.8,7.6,11.8C49.4,35.7,50.1,35.5,50.7,35.1
		L50.7,35.1z M46.6,25.2c-0.8-1.2-0.8-1.2-0.2-1.7c1.1-1.1,4.9-3.2,5.7-3.2c1.3,0,2,1.2,1.5,2.5c-0.2,0.6-5.1,3.7-5.8,3.7
		C47.6,26.4,47,25.9,46.6,25.2z M66.8,20c-0.2-0.4,0.2-4.7,0.6-5c0.4-0.4,3.7,3,3.6,3.6c-0.1,0.2-0.9,0.6-1.8,1
		C67.1,20.3,67,20.3,66.8,20z M142,25.7c2-3.3,3.5-6.2,3.5-6.4c0-0.2-0.6-0.7-1.5-1.2l-1.5-0.8l-0.7,1.1c-2,3.1-6.6,11.3-6.5,11.7
		c0.1,0.4,2.1,1.5,2.7,1.5C138.3,31.6,140,29,142,25.7z M134.1,28.6c0-0.1-0.4-1.5-0.8-3.1c-0.4-1.6-0.7-3.1-0.6-3.4
		c0.1-0.3,0.6-0.4,1.4-0.4c1,0,1.4-0.2,2.2-1c0.5-0.5,1.1-1.5,1.3-2.2c0.5-1.7-0.2-3.6-1.7-4.6c-1-0.6-10.5-4.5-11.1-4.5
		c-0.3,0,0-0.6-3,7c-1.4,3.4-2.4,6.4-2.3,6.5c0.1,0.1,0.8,0.5,1.5,0.8c1.6,0.7,1.7,0.6,2.9-2.3c0.4-1.2,0.9-2.2,1.1-2.3
		c0.3-0.2,2.8,0.7,3.5,1.3c0.3,0.2,0.7,1.5,1,2.8c0.9,4.1,0.9,4.2,2.4,4.8C133,28.6,134.1,28.9,134.1,28.6z M129,17.7
		c-1.5-0.6-2.7-1.1-2.9-1.3c-0.3-0.3,0.6-2.9,1.1-3.1c0.4-0.1,5.2,1.7,6.2,2.4c1.3,0.8,0.5,3.1-1,3C132,18.8,130.5,18.3,129,17.7z
		 M112.3,21.5c0.1-0.1,0.6-2.7,1.1-5.6c0.5-3,1.1-5.5,1.2-5.7c0.1-0.1,1.2-0.1,2.7,0.1c2.7,0.4,2.9,0.3,2.9-1.3c0-0.8-0.1-1-0.8-1.1
		c-0.4-0.1-3.6-0.6-6.9-1.2c-5.8-1-6.1-1.1-6.5-0.5c-0.6,0.7-0.5,1.8,0.1,2.1c0.3,0.1,1.2,0.4,2,0.5c2.2,0.3,2.4,0.4,2.4,1.5
		c0,0.5-0.4,3.1-0.9,5.7c-0.5,2.7-0.8,4.9-0.6,5.1C109.5,21.4,112.1,21.9,112.3,21.5L112.3,21.5z M88.9,21.1c4.1-0.9,6.2-3.2,5.4-6
		c-0.6-2.4-2.3-3.1-7.5-3.4c-2.7-0.1-3.1-0.2-3.6-0.8c-1.6-1.9,3.4-3.6,6.3-2c1,0.5,1.1,0.6,2.4,0.1c0.7-0.3,1.4-0.6,1.5-0.7
		c0.3-0.4-0.5-1.2-2.1-1.9c-1.8-0.8-5.6-0.9-8-0.2c-3,0.9-4.6,3.2-3.9,5.7c0.6,2.2,2.1,2.8,7.2,3.1c3.7,0.2,4.3,0.4,4.2,1.5
		c-0.1,1.3-1.4,2-4.1,2.1c-2.2,0.1-2.5,0-3.5-0.7c-1.1-0.7-1.2-0.8-2.3-0.4c-1.8,0.6-1.9,1-0.7,2.2C82,21.2,85.4,21.8,88.9,21.1
		L88.9,21.1z"/>
	<path id="path3370" inkscape:connector-curvature="0" class="st1" d="M90.4,199.8c-0.6-0.1-2.6-0.3-4.4-0.4
		c-19.1-1.9-38.7-10.3-53.8-22.9c-2.7-2.3-9.3-8.8-11.8-11.7c-12.9-15.1-20.9-33-23.6-53.5c-0.7-5.3-0.7-18.9,0-24.2
		c1.6-11.7,4.5-21.5,9.3-31.4c5.2-10.8,10.5-18.3,18.4-26.4C33.2,20.4,41,14.6,51.4,9.3C62.7,3.6,73.2,0.5,86.1-1.1
		c4.8-0.6,18.2-0.5,23.1,0.1c19.8,2.6,37.8,10.4,52.6,22.8c2.7,2.3,9.3,8.8,11.8,11.7c13,15.1,20.9,33,23.6,53.5
		c0.7,5.3,0.7,18.9,0,24.2c-2.7,20.4-10.6,38.4-23.6,53.5c-2.5,2.9-9.1,9.4-11.8,11.7c-14.8,12.4-33,20.3-52.4,22.8
		C105.8,199.6,93.1,200,90.4,199.8z M93.5,192c0-0.4-4.3-12.7-4.7-13.5c-0.2-0.3-0.6-0.5-1.2-0.5c-0.9,0-1.1,0.3-4.9,5.6
		c-4.8,6.8-4.5,6.4-4,6.7c0.8,0.5,1.5,0.2,2.5-1.2l1.1-1.5l2.1,0.2c1.1,0.1,3,0.4,4.1,0.5l2,0.4l0.5,1.5c0.3,0.8,0.7,1.6,0.8,1.8
		C92.2,192.4,93.5,192.4,93.5,192L93.5,192z M85.8,186.5c-1-0.1-1.8-0.4-2-0.5c-0.3-0.3,2.9-5.3,3.4-5.3c0.2,0,0.5,0.2,0.6,0.5
		c0.6,1.6,1.6,4.6,1.6,5.1C89.4,186.8,88.8,186.9,85.8,186.5L85.8,186.5z M107.5,191.8c1.4-0.2,1.6-0.3,1.7-0.9l0.1-0.7l-4.4,0.2
		c-4,0.2-4.4,0.1-4.5-0.3c-0.1-0.3-0.2-2.8-0.4-5.7c-0.2-5.6-0.4-6.1-1.6-5.5c-0.6,0.3-0.6,0.5-0.5,3c0.1,1.5,0.3,4.3,0.4,6.2
		c0.1,1.9,0.3,3.7,0.4,3.8C99.1,192.3,104.2,192.2,107.5,191.8L107.5,191.8z M119,189.8c5.6-1.3,5.5-1.3,5.5-1.7c0-1-0.7-1-4.6-0.1
		c-3.2,0.7-3.9,0.8-4.2,0.5c-0.2-0.2-0.8-2.6-1.5-5.3s-1.3-5.1-1.5-5.3c-0.3-0.3-0.5-0.3-1-0.1c-0.7,0.4-0.7,0,1,7.5
		c0.9,4.2,1.4,5.7,1.8,5.7C114.4,190.9,116.5,190.4,119,189.8L119,189.8z M73.9,187.5c0.8-0.5,1.5-2.1,1.5-3.1
		c0-0.4-0.2-1.1-0.5-1.5c-0.4-0.8-0.4-0.9,0.4-1.6c0.5-0.4,1-1,1.2-1.4c0.8-1.5,0.1-3.6-1.5-4.4c-1.3-0.6-9.2-3.6-9.7-3.6
		c-0.4,0-0.6,0.4-3.2,7.7c-1.3,3.6-1.5,4.4-1.2,4.7c0.2,0.2,2.4,1.1,4.9,2C70.7,188.1,72.7,188.3,73.9,187.5z M67.7,185.3
		c-4.4-1.5-4.8-1.7-4.8-2c0-0.4,1-3.1,1.3-3.5c0.4-0.6,1-0.5,4.7,0.9c3.9,1.4,4.6,2,4.6,3.4c0,1-1.2,2.3-2.1,2.3
		C71.1,186.5,69.4,186,67.7,185.3L67.7,185.3z M68.7,179.1c-1.7-0.6-3.2-1.3-3.4-1.5c-0.3-0.3-0.3-0.6,0.2-1.8
		c0.3-0.8,0.7-1.5,0.8-1.7c0.4-0.4,6.7,1.8,7.9,2.7c0.8,0.6,0.9,1.8,0.3,2.8C73.7,180.6,72.3,180.5,68.7,179.1z M143.9,180.2
		c3.1-1.4,5.1-3.5,5.6-5.9c0.4-1.5,0.1-2.1-0.9-1.6c-0.5,0.2-0.8,0.7-1.1,1.7c-0.7,2.6-4,5-6.9,5c-1.8,0-3.1-0.7-4.2-2.2
		c-1.7-2.3-1.5-4.5,0.5-6.7c1.9-2,3.8-2.7,6.3-2.5c1.7,0.1,2,0.1,2.5-0.4c0.5-0.6,0.5-0.6-0.6-1.1c-3.3-1.4-9,1-10.8,4.5
		c-1.4,2.7-1.3,4.6,0.5,7.2c1.4,2,3.6,3.1,5.8,3C141.5,181.1,143,180.6,143.9,180.2L143.9,180.2z M51.5,178.4c0.2-0.3,1.6-2.4,3-4.7
		c1.4-2.3,2.7-4.2,2.8-4.3s1.2,0.4,2.3,1.1c2,1.2,3.1,1.3,2.9,0.4c-0.1-0.5-1.8-1.6-7.8-5.3c-2.6-1.6-2.7-1.6-3.1-1.1
		c-0.5,0.7-0.2,1.1,1.8,2.2c0.8,0.5,1.7,1.1,1.9,1.3c0.2,0.3-0.4,1.5-2.6,5.3c-2.5,4.1-2.9,4.9-2.6,5.3
		C50.4,179,50.9,179,51.5,178.4L51.5,178.4z M159.9,168.4c2-1.8,3.6-3.4,3.6-3.7c0-1.1-1.3-0.5-4.2,2c-1.6,1.4-3,2.6-3.2,2.6
		c-0.1,0-1.9-1.8-3.9-4.1c-2-2.3-3.9-4.1-4.1-4.1s-0.6,0.2-0.8,0.6c-0.2,0.5,0.4,1.3,3.9,5.3c2.3,2.6,4.4,4.7,4.6,4.7
		C156.1,171.6,157.9,170.1,159.9,168.4L159.9,168.4z M42.8,169.8c1.7-0.5,3.8-2.6,4.4-4.4c1.6-5-2.9-10.8-8.5-10.8
		c-2.3,0-3.7,0.6-5.2,2.3c-2.9,3.4-1.7,8.4,2.6,11.5C38.4,170,40.6,170.4,42.8,169.8L42.8,169.8z M38.9,168
		c-2.2-0.8-4.7-3.5-5.1-5.7c-0.6-3.2,2.9-6.7,6.2-6c1.4,0.3,3.5,1.8,4.7,3.3c2.2,2.9,1.2,6.8-2.1,8.3
		C41.2,168.5,40.3,168.5,38.9,168L38.9,168z M167.5,159.3c1.5-0.4,4.2-3.1,5.1-5.1c0.9-1.9,1-4.2,0.1-5.3c-0.8-1.1-7.4-6.2-8.1-6.2
		c-0.3,0-0.6,0.3-0.8,0.6c-0.3,0.5,0,0.8,2.2,2.6c1.4,1.1,3.2,2.5,3.9,3.1c0.8,0.6,1.5,1.4,1.6,1.8c0.6,2.5-2.8,6.8-5.4,6.8
		c-1.1,0-2.2-0.7-6.3-3.8c-2.3-1.8-2.4-1.8-2.9-1.4c-0.9,0.7-0.4,1.4,3.2,4C164.7,159.6,165.3,159.9,167.5,159.3L167.5,159.3z
		 M61.1,156.3c2.8-1.5,12.3-6.5,21.1-11.1c8.8-4.6,16.1-8.4,16.3-8.4c0.1,0,6.3,3.2,13.6,7c7.4,3.9,16.4,8.6,20.1,10.5
		c3.7,1.9,7.2,3.8,7.7,4.1c1.1,0.6,1.8,0.7,1.8,0.2c0-0.2-0.3-2.2-0.7-4.5c-0.4-2.3-1.3-7.7-2-12c-0.7-4.3-1.6-9.3-1.9-11.1
		c-1.9-10.8-3.2-18.8-3.2-19.5c0-0.6,3.7-4.3,17.2-17.5c9.5-9.2,17.2-16.9,17.2-17c0-0.4-0.4-0.4-9.3-1.7c-24-3.4-38.4-5.6-38.6-5.8
		c-0.3-0.2-8-15.7-17.6-35.4c-2.1-4.4-4-8-4.2-8s-2.5,4.5-5.2,10C79.7,64.2,77,69.5,76.7,69.7c-0.2,0.1-6.2,1.1-13.4,2.1
		c-7.2,1.1-17.2,2.5-22.3,3.2s-9.8,1.4-10.6,1.5c-0.8,0.1-1.5,0.3-1.5,0.5c-0.1,0.3,21.4,21.4,31.5,31.1c2.2,2.1,2.9,2.9,2.9,3.5
		c0,0.4-0.6,4.2-1.3,8.4c-3.3,18.9-6.6,38.4-6.6,38.7C55.2,159.3,56,159,61.1,156.3L61.1,156.3z M31.1,154.1
		c1.1-0.6,1.8-1.3,2.4-2.4c0.9-1.5,1-1.7,0.8-3.9c-0.1-1.6-0.3-2.7-0.8-3.6c-1.9-3.7-5.6-5.8-8.9-4.9c-4.6,1.2-6.6,5.5-4.6,9.9
		c1.1,2.3,2.3,3.8,3.9,4.8C26.7,155.4,28.7,155.5,31.1,154.1L31.1,154.1z M25,152.5c-0.6-0.4-1.5-1.1-1.8-1.5
		c-2.6-3.5-2.7-6.4-0.2-8.6c2.1-1.8,4.8-2,6.7-0.4c1.3,1.1,2.9,3.5,3.1,5C33.6,151.3,28.7,154.7,25,152.5L25,152.5z M180.9,140.2
		c2.5-5.5,2.8-6.7,2.2-8.2c-0.4-0.8-0.8-1.2-1.8-1.7c-1.2-0.5-1.5-0.6-2.7-0.2c-1.1,0.3-1.3,0.3-1.5,0c-0.1-0.2-0.5-0.8-0.9-1.2
		c-0.6-0.6-1.1-0.8-2.2-0.8c-1.2,0-1.5,0.1-2.4,1.1c-1.1,1.2-4.8,9.1-4.6,9.9c0.1,0.5,10.9,5.7,11.6,5.6
		C178.7,144.6,179.8,142.6,180.9,140.2L180.9,140.2z M175.9,141.6c-0.9-0.4-1.6-1-1.7-1.3c-0.1-0.5,3-7.2,3.7-7.9
		c0.7-0.8,2.3-0.7,3.2,0.2c0.6,0.6,0.7,0.9,0.6,1.8c-0.2,1.3-3.4,7.8-3.8,7.9C177.7,142.3,176.8,142,175.9,141.6L175.9,141.6z
		 M170.4,139c-0.8-0.4-1.5-0.8-1.5-1c0-0.6,3-6.9,3.5-7.4c1.3-1.3,3.7-0.1,3.4,1.6c-0.2,0.8-2.7,6.5-3.2,7.2
		C172.2,139.9,172.2,139.9,170.4,139z M21.3,136.4c0.3-0.4-0.7-3.5-2.6-8c-0.1-0.4-0.3-0.7-0.3-0.8c0-0.2,3.2-1.6,3.7-1.6
		c0.3,0,1,1.5,1.9,3.9c0.8,2.1,1.6,4.2,1.8,4.6c0.3,0.8,1.3,0.8,1.4,0c0.1-0.6-3.3-9.8-3.9-10.4c-0.3-0.4-1-0.2-4.1,1.1
		c-2.1,0.8-4.7,1.8-5.9,2.3c-2.3,0.9-2.7,1.3-2,2.1c0.4,0.4,0.7,0.4,2.9-0.5c2-0.8,2.5-0.9,2.8-0.6c0.2,0.2,1,2,1.8,4
		C20.3,137,20.6,137.3,21.3,136.4L21.3,136.4z M18.3,90.7l0.3-1.6L17.3,88c-1.1-1.1-1.2-1.1-0.9-2.4c0.1-0.7,0.4-2.1,0.6-3.2
		c0.5-2.5,0.6-2.8,2.1-3.2c1.2-0.3,1.3-0.4,1.6-1.4c0.4-1.6,0.4-2.7-0.1-2.7c-0.2,0-1.4,0.3-2.6,0.6c-1.2,0.3-4.2,1.1-6.8,1.8
		c-2.6,0.6-5,1.3-5.3,1.5c-0.5,0.2-0.7,0.7-1,1.9c-0.2,0.9-0.3,1.8-0.2,2C5,83.5,17,92.4,17.5,92.3C17.8,92.3,18.1,91.7,18.3,90.7z
		 M11.3,83.7c-1.1-0.8-2-1.5-2-1.8c0-0.2,0.5-0.5,1.1-0.6c3-0.8,3.7-0.9,3.9-0.7c0.3,0.3-0.4,3.6-0.8,4.1
		C13.4,85,12.9,84.8,11.3,83.7z M181.5,90.2c1.5-0.8,2-2.3,2-6.7c0-4.2,0.2-4.9,1.5-4.8c1.6,0.2,2.6,4.4,1.6,6.5
		c-0.5,1-0.5,1.1,0,2.4c0.6,1.7,1,1.9,1.8,0.9c1-1.3,1.4-3.1,1.2-5.6c-0.4-5.8-3.5-8.9-7-7.2c-1.7,0.8-2.1,1.8-2.2,6.6
		c-0.1,2.3-0.2,4.4-0.4,4.6c-0.4,0.6-1.5,0.4-2.1-0.2c-0.6-0.7-1.3-3-1.3-4.5c0-0.6,0.3-1.6,0.6-2.3c0.7-1.4,0.7-1.7,0.1-3.1
		c-0.6-1.3-1-1.3-1.9-0.1c-1.1,1.5-1.5,2.9-1.5,5.1c0,3.8,1.8,7.8,3.8,8.6C178.5,90.8,180.5,90.7,181.5,90.2L181.5,90.2z M179,72.3
		c3.4-1.2,6.3-2.3,6.5-2.5c0.4-0.3,0.4-0.6-0.1-1.7c-0.3-0.7-0.6-1.4-0.8-1.5c-0.1-0.1-3.1,0.8-6.5,2c-7.7,2.7-7.2,2.5-7.2,3
		c0,0.8,1.2,3.1,1.5,3C172.7,74.4,175.6,73.4,179,72.3z M20.6,73c3.2-1.3,6.4-7.8,5.4-11.2c-0.4-1.5-1.9-2.9-3.4-3.2
		c-1.9-0.4-3.2,0.6-5.4,3.7c-2.4,3.5-2.9,4-3.7,4c-1.3,0-1.4-2-0.3-4.3c0.3-0.5,1.1-1.4,1.8-2.1c1.2-1,1.4-1.3,1.5-2.5
		c0.1-0.7,0-1.4-0.1-1.5c-0.2-0.1-1,0.1-1.8,0.6c-2.7,1.3-5,5.6-5,9.2c0,1.5,0.1,1.9,0.9,2.7c1.6,1.8,3.8,2,5.6,0.6
		c0.5-0.4,1.8-2.1,2.9-3.8c1.6-2.4,2.2-3,2.7-3c1,0,1.4,0.6,1.4,2c0,2.2-1.5,4.6-3.5,5.6c-1,0.5-1.4,1.3-1.4,3
		C18.1,73.5,19.2,73.6,20.6,73L20.6,73z M171.6,69c0.4-0.2,0.8-0.5,0.9-0.7c0.1-0.2-0.6-1.8-1.5-3.6c-0.9-1.8-1.6-3.4-1.5-3.6
		c0.1-0.2,2.4-1.6,5.2-3c2.7-1.4,5-2.7,5-2.8c0-0.5-1.1-2.5-1.5-2.8c-0.2-0.1-3.2,1.2-6.6,3c-4.5,2.3-6.3,3.3-6.3,3.7
		c0,0.5,4.1,9,4.7,9.8C170.5,69.4,170.7,69.4,171.6,69L171.6,69z M32.3,54.1c0.4-0.6,0.8-1.3,0.8-1.5s-0.8-0.8-1.8-1.5
		c-4.3-2.9-7.5-5.3-7.5-5.6c0-0.2,0.5-1.1,1.2-2.1c0.6-1,1.2-2,1.2-2.2c0-0.5-1.2-1.4-1.7-1.4c-0.4,0-8.2,11.3-8.2,11.8
		c0,0.5,1.4,1.4,1.9,1.3c0.2-0.1,1-0.9,1.6-1.9c0.7-1,1.5-1.8,1.7-1.8c0.3,0,2.4,1.4,4.8,3.1c2.4,1.7,4.6,3.1,4.8,3.1
		C31.3,55.3,31.8,54.8,32.3,54.1z M168.5,53.2c4.2-2.1,5.6-6.2,3.6-10.3c-2.4-4.9-6.8-7.4-10.8-6.3c-1.8,0.5-3.8,2.3-4.8,4.1
		c-0.8,1.4-0.8,1.8-0.7,3.7c0.2,2.7,1.2,4.7,3.5,7C162.3,54.3,165.2,54.9,168.5,53.2L168.5,53.2z M162,50c-0.6-0.4-1.5-1.2-2-1.9
		c-0.7-1.1-0.9-1.5-0.9-3c0-1.5,0.1-1.8,0.9-2.8c2.7-3.4,7.1-3,9,0.9c0.8,1.7,0.9,1.9,0.4,3.5c-0.6,2.2-3,4-5.3,4
		C163.7,50.6,162.7,50.3,162,50L162,50z M42.6,42c5.2-5.1,5.2-5.2,3.6-6.3c-0.6-0.4-0.8-0.3-4.1,3c-1.9,1.9-3.7,3.4-3.9,3.4
		c-0.2,0-0.9-0.5-1.4-1l-1-1l3.3-3.3c1.8-1.8,3.3-3.5,3.3-3.7c0-0.6-0.9-1.5-1.4-1.5c-0.3,0-1.8,1.4-3.5,3.1
		c-1.7,1.7-3.3,3.1-3.5,3.1c-0.4,0-1.4-0.9-1.9-1.7c-0.1-0.3,0.8-1.5,3.2-3.8c3.1-3.1,3.4-3.5,3.1-4.1c-0.2-0.4-0.6-0.8-0.9-0.9
		c-0.5-0.3-0.9-0.1-3.1,2.1c-1.4,1.3-3.5,3.4-4.8,4.6c-1.3,1.2-2.3,2.3-2.3,2.4c0,0.4,9.8,10.4,10.2,10.4
		C37.6,46.8,39.9,44.7,42.6,42L42.6,42z M157.2,35.7c2.3-1.2,3.3-4.4,2-6.4c-0.8-1.2-8.3-7.3-9-7.3c-0.5,0-9.1,10.5-9.1,11.2
		c0,0.5,1.9,2,2.5,2c0.2,0,1.1-0.8,1.9-1.9c0.8-1.1,1.6-1.9,1.7-1.9s1.3,0.9,2.7,2C153.9,36.5,155,36.8,157.2,35.7z M151.2,31.1
		c-1.2-1-2.2-1.9-2.2-2c0-0.3,1.7-2.5,2.2-2.7c0.4-0.2,3.6,2.1,4.6,3.3c0.7,0.8,0.6,1.8-0.1,2.5C154.7,33.3,153.7,33,151.2,31.1
		L151.2,31.1z M50.7,35.1c0.6-0.4,1.1-0.8,1.1-1.1s-0.5-1.3-1.2-2.4c-0.6-1.1-1.2-2.1-1.2-2.4c0-0.2,0.7-0.8,1.6-1.4l1.6-1l3.1,1.3
		c1.7,0.7,3.2,1.3,3.4,1.3c0.2,0,1.1-0.4,2-1c0.9-0.6,2.4-1.3,3.3-1.6l1.7-0.6l0.2-1.5c0.1-0.8,0.3-1.5,0.4-1.6
		c0.1-0.1,1.7-0.7,3.5-1.3l3.2-1.1l1.2,1.1l1.2,1.1l1.6-0.6c0.9-0.3,1.7-0.7,1.7-0.9c0.1-0.2-2.5-2.8-5.6-5.9L67.9,10l-1.7,0.6
		c-0.9,0.3-1.8,0.7-1.9,0.8s-0.6,3.5-1,7.5c-0.4,4.1-1,7.5-1.1,7.7c-0.3,0.3-0.8,0.2-3-0.7c-1.5-0.6-2.7-1.2-2.8-1.3
		c-0.1-0.1,0.1-0.7,0.5-1.2c1.3-1.8,0.5-4.9-1.6-6c-1.1-0.6-3-0.6-4-0.1c-0.4,0.2-2.7,1.6-5.2,3.1c-3.9,2.4-4.5,2.9-4.4,3.4
		c0.2,1.2,7,11.8,7.6,11.8C49.4,35.7,50.1,35.5,50.7,35.1L50.7,35.1z M46.6,25.2c-0.8-1.2-0.8-1.2-0.2-1.7c1.1-1.1,4.9-3.2,5.7-3.2
		c1.3,0,2,1.2,1.5,2.5c-0.2,0.6-5.1,3.7-5.8,3.7C47.6,26.4,47,25.9,46.6,25.2z M66.8,20c-0.2-0.4,0.2-4.7,0.6-5
		c0.4-0.4,3.7,3,3.6,3.6c-0.1,0.2-0.9,0.6-1.8,1C67.1,20.3,67,20.3,66.8,20z M142,25.7c2-3.3,3.5-6.2,3.5-6.4c0-0.2-0.6-0.7-1.5-1.2
		l-1.5-0.8l-0.7,1.1c-2,3.1-6.6,11.3-6.5,11.7c0.1,0.4,2.1,1.5,2.7,1.5C138.3,31.6,140,29,142,25.7z M134.1,28.6
		c0-0.1-0.4-1.5-0.8-3.1c-0.4-1.6-0.7-3.1-0.6-3.4c0.1-0.3,0.6-0.4,1.4-0.4c1,0,1.4-0.2,2.2-1c0.5-0.5,1.1-1.5,1.3-2.2
		c0.5-1.7-0.2-3.6-1.7-4.6c-1-0.6-10.5-4.5-11.1-4.5c-0.3,0,0-0.6-3,7c-1.4,3.4-2.4,6.4-2.3,6.5c0.1,0.1,0.8,0.5,1.5,0.8
		c1.6,0.7,1.7,0.6,2.9-2.3c0.4-1.2,0.9-2.2,1.1-2.3c0.3-0.2,2.8,0.7,3.5,1.3c0.3,0.2,0.7,1.5,1,2.8c0.9,4.1,0.9,4.2,2.4,4.8
		C133,28.6,134.1,28.9,134.1,28.6z M129,17.7c-1.5-0.6-2.7-1.1-2.9-1.3c-0.3-0.3,0.6-2.9,1.1-3.1c0.4-0.1,5.2,1.7,6.2,2.4
		c1.3,0.8,0.5,3.1-1,3C132,18.8,130.5,18.3,129,17.7z M112.3,21.5c0.1-0.1,0.6-2.7,1.1-5.6c0.5-3,1.1-5.5,1.2-5.7
		c0.1-0.1,1.2-0.1,2.7,0.1c2.7,0.4,2.9,0.3,2.9-1.3c0-0.8-0.1-1-0.8-1.1c-0.4-0.1-3.6-0.6-6.9-1.2c-5.8-1-6.1-1.1-6.5-0.5
		c-0.6,0.7-0.5,1.8,0.1,2.1c0.3,0.1,1.2,0.4,2,0.5c2.2,0.3,2.4,0.4,2.4,1.5c0,0.5-0.4,3.1-0.9,5.7c-0.5,2.7-0.8,4.9-0.6,5.1
		C109.5,21.4,112.1,21.9,112.3,21.5L112.3,21.5z M88.9,21.1c4.1-0.9,6.2-3.2,5.4-6c-0.6-2.4-2.3-3.1-7.5-3.4
		c-2.7-0.1-3.1-0.2-3.6-0.8c-1.6-1.9,3.4-3.6,6.3-2c1,0.5,1.1,0.6,2.4,0.1c0.7-0.3,1.4-0.6,1.5-0.7c0.3-0.4-0.5-1.2-2.1-1.9
		c-1.8-0.8-5.6-0.9-8-0.2c-3,0.9-4.6,3.2-3.9,5.7c0.6,2.2,2.1,2.8,7.2,3.1c3.7,0.2,4.3,0.4,4.2,1.5c-0.1,1.3-1.4,2-4.1,2.1
		c-2.2,0.1-2.5,0-3.5-0.7c-1.1-0.7-1.2-0.8-2.3-0.4c-1.8,0.6-1.9,1-0.7,2.2C82,21.2,85.4,21.8,88.9,21.1L88.9,21.1z"/>
</g>
</svg>
