<?xml version="1.0" encoding="utf-8"?>
<!-- Generator: Adobe Illustrator 21.1.0, SVG Export Plug-In . SVG Version: 6.00 Build 0)  -->
<svg version="1.1"
	 id="svg2" inkscape:version="0.91 r13725" sodipodi:docname="b36 torshavn.svg" xmlns:cc="http://creativecommons.org/ns#" xmlns:dc="http://purl.org/dc/elements/1.1/" xmlns:inkscape="http://www.inkscape.org/namespaces/inkscape" xmlns:rdf="http://www.w3.org/1999/02/22-rdf-syntax-ns#" xmlns:sodipodi="http://sodipodi.sourceforge.net/DTD/sodipodi-0.dtd" xmlns:svg="http://www.w3.org/2000/svg"
	 xmlns="http://www.w3.org/2000/svg" xmlns:xlink="http://www.w3.org/1999/xlink" x="0px" y="0px" viewBox="0 0 200 200"
	 style="enable-background:new 0 0 200 200;" xml:space="preserve">
<style type="text/css">
	.st0{fill:#FFFFFF;}
	.st1{fill:#231F20;}
</style>
<g>
	<path class="st0" d="M100,0C44.8,0,0,44.8,0,100l0,0l0,0l0,0c0,0.6,0,1.2,0,1.8l0,0l0,0l0,0C1,156.2,45.4,200,100,200
		s99-43.8,100-98.1l0,0l0,0l0,0c0-0.6,0-1.2,0-1.8l0,0l0,0l0,0C200,44.8,155.2,0,100,0z"/>
	<path class="st1" d="M86.7,187.1c0.8,0.1,1.5-0.1,2-0.7s0.8-1.3,0.9-2.5c0.1-1.2,0.1-2.1-0.3-2.8c-0.3-0.6-0.9-1-1.8-1.1
		c-0.8-0.1-1.5,0.1-2,0.7s-0.9,1.4-1,2.5s0,2,0.3,2.6C85.3,186.6,85.9,187,86.7,187.1L86.7,187.1z"/>
	<path class="st1" d="M98.3,183.5L98.3,183.5l2.1,0.1c0.4,0,0.7-0.1,1-0.3c0.3-0.2,0.4-0.5,0.4-0.9c0-0.3-0.1-0.7-0.3-0.9
		c-0.2-0.2-0.5-0.3-1-0.3l-2.1-0.1l0,0L98.3,183.5z"/>
	<polygon class="st1" points="135.5,171.8 136.3,176.8 136.3,176.9 136.3,176.9 138.9,175.6 138.9,175.6 138.9,175.6 135.5,171.8 	
		"/>
	<path class="st1" d="M100,0C44.8,0,0,44.8,0,100l0,0l0,0l0,0c0,0.6,0,1.2,0,1.8l0,0l0,0l0,0C1,156.2,45.4,200,100,200
		s99-43.8,100-98.1l0,0l0,0l0,0c0-0.6,0-1.2,0-1.8l0,0l0,0l0,0C200,44.8,155.2,0,100,0z M44,169.9c-0.3,0.4-0.7,0.6-1.1,0.5
		c-0.4,0-0.8-0.3-1.3-0.7s-0.8-0.9-0.9-1.3c-0.1-0.3,0.1-0.7,0.5-1.1c0.3-0.4,0.7-0.6,1.1-0.5c0.4,0,0.8,0.3,1.3,0.7
		c0.5,0.5,0.8,0.9,0.9,1.2C44.5,169.1,44.3,169.5,44,169.9z M45.7,160.5l-3.7-3.9l-1.5,1.4l3.7,3.9l-1.1,1.1l-1.1,1.1l-3.7-3.9
		l-3.3,3.1l-1.1-1.1l-1.1-1.1l9.3-8.6l5.8,6.2l-1.1,1.1L45.7,160.5z M51.9,173.7c0.6,0.4,1.2,0.6,1.9,0.7c0.7,0.1,1.4-0.1,2.1-0.3
		l-1.8,2.7l0,0c-0.7,0.2-1.5,0.2-2.1,0.1c-0.7-0.1-1.4-0.4-2.1-0.9c-1.5-1-2.2-2.2-2.3-3.7c-0.1-1.5,0.4-3.1,1.7-4.9
		c1.2-1.8,2.5-2.9,3.9-3.2c1.3-0.4,2.8-0.1,4.3,1c0.6,0.4,1.1,0.9,1.5,1.4c0.4,0.5,0.7,1.1,0.9,1.8l-2,2.9c-0.1-0.7-0.3-1.3-0.7-1.9
		c-0.3-0.5-0.8-1-1.3-1.4c-0.7-0.5-1.5-0.6-2.2-0.3c-0.7,0.3-1.4,0.9-2.1,1.8c-0.6,0.9-0.9,1.7-0.8,2.5
		C50.8,172.6,51.1,173.2,51.9,173.7z M60.7,180.5c-0.3,0.5-0.5,0.7-0.9,0.8c-0.3,0.1-0.9-0.1-1.5-0.3c-0.6-0.3-1-0.7-1.1-1
		s-0.1-0.7,0.1-1.2c0.3-0.5,0.5-0.7,0.9-0.8c0.3-0.1,0.9,0.1,1.5,0.4c0.6,0.3,1,0.7,1.1,1C61,179.6,61,180,60.7,180.5z M80.7,177.5
		l-0.5,1.5l-3.1-1.1l-3.1,9.1l-1.5-0.5l-1.5-0.5l3.1-9.1l-3.1-1.1l0.5-1.5l0.5-1.5l9.1,3.1L80.7,177.5z M92.9,183.9L92.9,183.9
		c-0.3,2.3-0.9,3.9-2.1,4.9c-1.1,1-2.6,1.4-4.5,1.1l0,0c-1.9-0.2-3.3-1-4.1-2.2c-0.8-1.3-1.1-3-0.8-5.3c0.3-2.1,0.9-3.7,2-4.6
		c1.1-0.9,2.5-1.3,4.5-1.1c2,0.3,3.4,0.9,4.1,2C92.9,179.9,93.1,181.6,92.9,183.9z M86.2,175.7l2.8-1.9l3.1,0.4l-3.3,1.9L86.2,175.7
		z M105,191l-2-0.1l-2-0.1l-2.8-5.5l0,0l-0.3,5.3l-1.6-0.1l-1.6-0.1l0,0l0,0l0,0l0.7-12.6l1.6,0.1l3.9,0.2c1.5,0.1,2.6,0.4,3.3,0.9
		c0.7,0.5,1,1.4,0.9,2.5c-0.1,1.1-0.5,2.1-1.1,2.7c-0.7,0.6-1.5,0.9-2.4,0.9L105,191z M116.3,188.5c-0.7,0.9-1.7,1.3-3.1,1.5
		c-0.9,0.1-1.7,0.1-2.3,0c-0.7-0.1-1.3-0.4-1.9-0.7l-0.4-3.1c0.7,0.5,1.3,0.7,1.9,0.9c0.6,0.2,1.3,0.3,1.9,0.1
		c0.6-0.1,1-0.3,1.3-0.5c0.3-0.3,0.4-0.6,0.3-1c0-0.3-0.2-0.5-0.5-0.5c-0.3-0.1-0.9-0.2-1.7-0.3c-1.3-0.1-2.4-0.5-3.1-1.1
		c-0.7-0.5-1.1-1.3-1.2-2.5c-0.1-1.2,0.2-2.2,0.9-3c0.7-0.8,1.9-1.3,3.3-1.5c0.7-0.1,1.5-0.1,2.1,0.1c0.7,0.1,1.3,0.3,1.9,0.7
		l0.4,3.3l0,0c-0.5-0.3-1.1-0.6-1.7-0.7c-0.6-0.1-1.3-0.1-1.9-0.1c-0.5,0.1-1,0.2-1.3,0.4c-0.3,0.2-0.4,0.5-0.3,0.7
		c0,0.2,0.2,0.4,0.5,0.5c0.3,0.1,0.9,0.2,1.6,0.3c1.3,0.1,2.4,0.5,3,1c0.7,0.5,1.1,1.3,1.2,2.3C117.3,186.6,116.9,187.7,116.3,188.5
		z M130.3,185.7l-1.5,0.5l-1.3-4.7l-3.7,1.1l1.3,4.7l-1.5,0.5l-1.5,0.5l0,0l-3.5-12.1l1.5-0.5l1.5-0.5l1.3,4.5l3.7-1.1l-1.3-4.5
		l1.5-0.5l1.5-0.5l3.5,12.1L130.3,185.7z M144.3,179.3l-1.5,0.7L141,178l-4,1.9l0.5,2.7l-1.5,0.7l-1.5,0.7l0,0l0,0l0,0l-2.2-13
		l2.3-1.1l2.3-1.1l8.9,9.7L144.3,179.3z M152,174.1l-1.6,1.2l-10.7-7.8l0,0l1.4-1.1l1.4-1.1l7.3,5.9l-3.6-8.7l1.4-1l1.4-1.1
		l4.5,12.4L152,174.1z M165.5,162.5l-1.4,1.4l-8.8-3.7l6.2,6.2l0,0l-1.1,1.1l-1.1,1.1l-8.9-8.9l1.7-1.7l1.7-1.7l7.6,3.5l-5.5-5.5
		l1.1-1.1l1.1-1.1l8.9,8.9L165.5,162.5z M197.3,100h-28.2c0,38.1-30.9,69.1-69.1,69.1S30.9,138.1,30.9,100H2.7l0,0
		C2.7,46.3,46.3,2.7,100,2.7S197.3,46.3,197.3,100L197.3,100z"/>
	<path id="path3352" inkscape:connector-curvature="0" class="st1" d="M100,30.9c38.1,0,69.1,30.9,69.1,69.1h-2
		c0-37-30.1-67.1-67.1-67.1s-67.1,30-67.1,67.1h-2C30.9,61.9,61.9,30.9,100,30.9"/>
	<path class="st1" d="M113.8,121.9c6.1,4.3,10,11.4,10,19.3c0,13.1-10.8,23.8-24.1,23.8c-7.6,0-14.1-3.6-18.5-9.1l0,0
		c4.3,4.6,10.3,7.4,17.1,7.4c2,0,3.9-0.3,5.8-0.7c-0.7-0.1-1.3-0.3-1.9-0.5c-0.2-1.3-0.5-2.5-0.9-3.9c3.4-1.1,5.5-3.5,7.3-6.1
		c2.8,1.2,4.7,1.3,6.4,1.1c0.1,1-0.1,2.2-0.1,3.3c3-2.9,5.2-6.7,6.3-10.9l-1.5,0.3c0.6-3.5-0.4-6.6-2.3-9.4c0.8-1.7,1.2-3.5,1.3-5.7
		l1.9,1.9C119.5,129.1,117.2,125.7,113.8,121.9L113.8,121.9z"/>
	<path class="st1" d="M80,148.1c0.1-1.8,0.4-3.1,1.1-4.8c3.1,1.8,6.3,2.8,9.5,3.5c0.2,3.4,0.9,6.8,1.7,9.6c-3,1.1-4.9,1.3-6.6,1.1
		c1-0.4,1.8-0.8,2.4-1.3c-0.6-2.1-1.1-4.2-1.3-6.3c-2.1-1.1-3.7-2.4-5.1-3.8C81.1,146.7,80.6,147.3,80,148.1L80,148.1z"/>
	<path class="st1" d="M98.5,116.7l0.1,2.3c2.7,0.3,5.5,0.7,7.8,2.9c1.6,0,3.2,0,4.8,0c0-0.4,0-1-0.1-1.4
		C107.5,118.4,103.5,116.7,98.5,116.7z"/>
	<path class="st1" d="M78,132.2c1.5,0.6,2.9,1.1,4.3,1.7c1.5-3.1,3.6-5.3,6.3-5.7l0.3-6.8C81.8,121.8,78.7,125.9,78,132.2z
		 M87.9,126.3c-1.4,0.1-2.2,0.7-3.3,1.9c0.1-4.1,2-4.7,3.4-5.3l0,0l0,0l0,0L87.9,126.3z"/>
	<path class="st1" d="M97.1,129.9c0.8,3.8,1.2,7.6,0.7,11.2c3.3,0.2,6.7,1.2,10,2.7c1.7-1.7,3.1-4.3,4-8.3c-0.6-2.4-1.5-4-2.8-5.3
		c0.4,2,1.3,5.1,1.1,6.8c-0.9-1.6-2.1-3.2-3.5-4.7c-2.1,0.5-4.3,2.3-6.1,4.8c-0.6-2.3-1.5-5.3-2.5-7.7L97.1,129.9"/>
	<path class="st1" d="M90.5,100.7l-2.5-18.5c-0.5-3.9-3.1-5.9-9.5-6.1L78.5,76c1.9-1.5,2.2-1.7,3.9-3.4c0.9-0.9,2.1-2.1,2.4-3.9
		c0.7-3.7,0.6-9.6-0.7-11.5c-1.2-1.9-4.7-4.2-7.9-4.4c-1.7-0.1-3.1,0.3-4.5,0.6c-7.7,2.1-15.3,4.3-22.4,8.1
		c-3.5,1.8-4.4,4.7-2.7,7.9l0,0l23.5,42.5c1.8,3.3,3.9,4.1,7.7,2.8l6.9-2.3C90.1,110.4,91.2,105.6,90.5,100.7z M63.2,76.8l-3.7-9.3
		c-0.6-1.5,0.4-3.8,2-4.4l5.7-2c2.4-0.9,5.3,0,6.5,2.4c0.5,1.1,2.1,6.3,2,8.3c-0.1,1.5-1.3,3-2.7,3.5l-6.5,2.4
		C65.3,78.3,63.7,78.1,63.2,76.8z M81.3,107l-2.5,0.9c-2.1,0.7-2.8-0.1-3.3-1.3l0,0l-8.9-21.5c-1.1-2.7,0.9-3.5,1.3-3.6l5.1-1.4
		c2.9-0.8,4.7,0.6,5.4,3.2l5.4,19.7C84.3,104.9,83.1,106.4,81.3,107z"/>
	<path id="path3358" inkscape:connector-curvature="0" class="st1" d="M89.1,54.2l1,11.6c0.4,4.5,4,2.5,5.1,1.3
		c3.5-3.9,7.3-7.7,11.9-10.7c0.3-0.2,1.9-0.3,1.1,1.1c-2.5,5.5-5.3,10.5-7.7,16c-0.4,0.9-0.8,2,1.5,2l3.3,0.1c0.7,0,1.2-0.1,1.1,0.9
		c-0.9,9-1.1,17-2.1,25.9c-0.1,1.5-0.7,1.6-1.7,1.7c-0.9,0-1.8-0.2-1.9-1.7c-0.2-5.3,0.1-10.7,0.2-16.1c0-0.9-0.6-2.2-2.1-2.2
		l-4.1,0.1c-2.1,0-2.4,1.3-2.3,2.3c0.4,5.4,0.9,11.1,1.6,16.6c0.3,2.9,1.1,4.5,3.5,5.9c1,0.6,2.7,0.8,4.1,0.9
		c2.5,0.1,5.1-0.3,6.6-1.8c1.4-1.3,2.4-3.1,2.9-5.3c2.1-9.1,3.7-18.9,5-27.1c0.4-2.5-1.3-3.1-3.7-3.3c-1.5-0.1-3.2-0.3-4.7-0.4
		c-0.9-0.1-1.5-0.1-0.9-0.7c3.8-4.7,8.5-10.1,12.8-15.8c1-1.3,1.2-3.8-1.9-4.3c-8.4-1.3-17.1-1.9-25.7-1.3
		C89.3,50.4,88.9,52.1,89.1,54.2"/>
	<path class="st1" d="M152,62.5c-5.6-3.3-12-5.5-16.2-6.9c-4.9-1.7-11.5,1.6-13.4,10.1l-7.7,35.1c-0.7,3.4-1.7,9.5,1.7,11.3
		c1.9,1.1,6.2,2.7,7.3,2.7c2.6-0.1,4.9-2,6.7-5.2l9.8-17.6c2.7-4.9,2.2-8.5-1.4-11.2c-1.8-1.4-3.6-2.5-5.5-2.9
		c-1.2-0.3-2.5,0.2-3.4,0.7c1.7-5.2,3.7-10.3,5.5-15.4c0.2-0.5,0.9-0.7,1.2-0.2c3.1,4.9,4.1,11.1,7.3,16.1c0.6,0.9,2.5,0.9,3-0.1
		l6.4-10.9C155.3,64.9,153.7,63.5,152,62.5z M131.8,81.2c1.4,0.4,2,2.2,1.4,3.6l-9.3,22.3c-0.9,2.3-4.1,0.7-3.4-1.3l7.9-22.8
		C128.7,82.1,129.9,80.7,131.8,81.2z"/>
	<path id="path3362" inkscape:connector-curvature="0" class="st1" d="M29.4,73.7l-13.5-6.3l0,0l4.3-9.1l0,0l1.6,0.7l1.6,0.7l0,0
		l-2.7,5.7l0,0l2.1,1l0,0l2.7-5.7l1.6,0.7l1.6,0.7l0,0L26,68.1l0,0l4.9,2.3L30.1,72L29.4,73.7"/>
	<path id="path3364" inkscape:connector-curvature="0" class="st1" d="M38.2,58c-1.3,1.8-2.9,2.8-4.6,2.9c-1.7,0.1-3.7-0.6-5.9-2.2
		c-2-1.5-3.2-3.1-3.6-4.7c-0.3-1.7,0.1-3.4,1.4-5.2c1.4-1.9,2.9-3,4.5-3.1c1.6-0.1,3.4,0.5,5.6,2.1h0.1c2.2,1.6,3.5,3.2,3.9,4.9
		C40,54.4,39.5,56.2,38.2,58L38.2,58z M35.5,56c0.6-0.8,0.7-1.6,0.5-2.4c-0.3-0.8-0.9-1.6-2-2.4c-1.2-0.9-2.2-1.3-3-1.3
		c-0.9,0-1.5,0.4-2.1,1.3c-0.6,0.8-0.7,1.6-0.4,2.5c0.3,0.9,1,1.7,2.1,2.5s2,1.1,2.9,1.1C34.2,57.2,34.9,56.8,35.5,56z M23.5,50
		l-0.3-4l2.2-3v4.5L23.5,50"/>
	<path id="path3366" inkscape:connector-curvature="0" class="st1" d="M45.1,48.9L37,41l0,0l-2.6,2.7l0,0l-1.3-1.3l-1.3-1.3l0,0
		l7.9-8.1l0,0l1.3,1.3l1.3,1.3l0,0l-2.7,2.7l0,0l8.1,7.9l0,0l-1.3,1.3L45.1,48.9"/>
	<path id="path3368" inkscape:connector-curvature="0" class="st1" d="M51.6,42.3L43,30.1l0,0l1.5-1.1l0,0l4.8-3.4
		c1.1-0.7,2-1.1,2.9-0.9c0.9,0.1,1.7,0.7,2.3,1.6c0.7,1,0.9,2,0.7,3c-0.2,0.7-0.7,1.5-1.6,2.2l0,0c1-0.6,1.9-0.9,2.8-0.8
		c1,0.1,1.9,0.6,2.5,1.6c0.7,1.1,1,2.1,0.8,3.1c-0.3,0.9-0.9,1.9-2.2,2.7l-4.4,3.1l0,0L51.6,42.3L51.6,42.3z M48.1,30.9l1.4,2l0,0
		l1.6-1.1c0.6-0.5,1-0.8,1.2-1.2c0.1-0.3,0.1-0.7-0.1-1.1c-0.3-0.3-0.5-0.5-0.9-0.5c-0.4,0.1-0.9,0.3-1.5,0.7L48.1,30.9L48.1,30.9z
		 M51.1,35.3l1.7,2.4l0,0l1.9-1.3c0.6-0.4,0.9-0.8,1.1-1.2c0.1-0.4,0.1-0.8-0.3-1.2c-0.3-0.4-0.7-0.6-1.1-0.6
		c-0.4,0-0.9,0.3-1.6,0.7L51.1,35.3"/>
	<path id="path3370" inkscape:connector-curvature="0" class="st1" d="M68.1,32.5c-2.1,0.9-3.9,1-5.4,0.2c-1.5-0.8-2.9-2.4-4-4.8
		c-1-2.3-1.3-4.3-0.7-5.9c0.5-1.6,1.8-2.9,3.9-3.8c2.2-1,4-1.1,5.4-0.5c1.5,0.7,2.7,2.2,3.8,4.6v0.1c1.1,2.5,1.4,4.5,0.9,6.2
		C71.3,30.3,70.1,31.6,68.1,32.5L68.1,32.5z M66.7,29.4c0.9-0.4,1.4-1,1.6-1.9c0.2-0.9,0-1.9-0.5-3.1c-0.6-1.3-1.3-2.2-2-2.7
		c-0.7-0.4-1.5-0.4-2.5,0c-0.9,0.4-1.4,1-1.6,1.9c-0.2,0.9,0,1.9,0.6,3.2c0.5,1.2,1.2,2,1.9,2.5C64.9,29.9,65.8,29.8,66.7,29.4
		L66.7,29.4z M59.3,18.2l1.7-3.7l3.4-1.5l-2.3,3.9L59.3,18.2"/>
	<path id="path3372" inkscape:connector-curvature="0" class="st1" d="M75.9,28.7L75.9,28.7L72,14.3l0,0l1.8-0.5l1.8-0.5l0,0
		l2.9,10.9l0,0l4.9-1.3l0,0l0.5,1.7l0.5,1.7l0,0L75.9,28.7"/>
	<path id="path3374" inkscape:connector-curvature="0" class="st1" d="M88,25.8l-1.2-11.3l0,0L83,14.9l0,0l-0.2-1.8l-0.2-1.8l0,0
		l11.3-1.2l0,0l0.2,1.8l0.2,1.8l0,0l-3.8,0.4l0,0l1.2,11.3l0,0l-1.9,0.2L88,25.8"/>
	<path id="path3376" inkscape:connector-curvature="0" class="st1" d="M106.9,15.1c-0.6-0.5-1.3-0.9-1.9-1.1
		c-0.7-0.3-1.4-0.4-2.3-0.4c-0.7,0-1.2,0.1-1.5,0.3c-0.3,0.2-0.5,0.5-0.5,0.8c0,0.3,0.1,0.5,0.5,0.7c0.3,0.2,0.9,0.4,1.8,0.6
		c1.5,0.4,2.7,0.9,3.4,1.7c0.7,0.7,1,1.7,1,2.9c0,1.5-0.5,2.7-1.5,3.5s-2.3,1.3-3.8,1.3c-1.1,0-1.9-0.1-2.7-0.4
		c-0.8-0.3-1.5-0.7-2.1-1.2l0.1-3.7c0.7,0.6,1.4,1.1,2.1,1.4c0.7,0.3,1.4,0.5,2.1,0.5c0.7,0,1.2-0.1,1.6-0.3
		c0.3-0.3,0.5-0.6,0.5-1.1c0-0.3-0.1-0.5-0.5-0.7c-0.3-0.2-1-0.4-2-0.7c-1.5-0.4-2.7-1-3.4-1.7c-0.7-0.7-1-1.8-1-3.1
		c0-1.4,0.5-2.5,1.6-3.3c1-0.9,2.4-1.3,4-1.2c0.9,0,1.7,0.1,2.5,0.4c0.7,0.3,1.4,0.6,2.1,1.1L106.9,15.1"/>
	<path id="path3378" inkscape:connector-curvature="0" class="st1" d="M109.3,25.3l2.6-14.7l0,0l9.9,1.7l0,0l-0.3,1.7l-0.3,1.8l0,0
		l-6.2-1.1l0,0l-0.4,2.3l0,0l6.2,1.1l-0.3,1.7l-0.3,1.8l0,0l-6.2-1.1l0,0l-0.9,5.3l-1.9-0.3L109.3,25.3"/>
	<path id="path3380" inkscape:connector-curvature="0" class="st1" d="M121.2,27.7L121.2,27.7l5.3-13.9l0,0l9.7,3.7l0,0l-0.7,1.7
		l-0.7,1.7l0,0l-6.1-2.3l0,0l-0.7,1.9l0,0l6.1,2.3l-0.7,1.7l-0.7,1.7l0,0l-6.1-2.3l0,0l-0.7,2l0,0l6.1,2.3l0,0l-0.7,1.7l-0.7,1.7
		l0,0L121.2,27.7"/>
	<path id="path3382" inkscape:connector-curvature="0" class="st1" d="M132.9,32.3L132.9,32.3l7.5-12.9l0,0l1.6,0.9l1.6,0.9l0,0
		l-5.7,9.8l0,0l4.4,2.5l0,0l-0.9,1.5l-0.9,1.5l0,0L132.9,32.3"/>
	<path id="path3384" inkscape:connector-curvature="0" class="st1" d="M141.7,37.5l12.5-9.3l2.4,1.8l2.4,1.8l-5.5,14.5l0,0l-1.6-1.2
		l-1.6-1.2l0,0l1.2-2.9l0,0l-4.2-3.1l0,0l-2.5,2l0,0l-1.5-1.2L141.7,37.5L141.7,37.5z M155.1,32l-4.8,3.6l-0.1,0.1l0,0l2.7,2.1l0,0
		v-0.1L155.1,32L155.1,32"/>
	<path id="path3386" inkscape:connector-curvature="0" class="st1" d="M157.1,51.9c-1.3-1.5-1.9-3.2-1.5-5.1
		c0.3-1.8,1.4-3.5,3.3-5.2c1.8-1.5,3.6-2.3,5.4-2.3c1.8,0.1,3.5,0.9,4.9,2.6c0.6,0.7,1.1,1.5,1.4,2.3c0.3,0.8,0.5,1.7,0.5,2.6
		l-3.1,2.7c0.1-0.9,0.1-1.7-0.1-2.5c-0.2-0.8-0.5-1.5-1.1-2.1c-0.9-0.9-1.7-1.5-2.7-1.5c-1-0.1-2,0.4-3.1,1.3
		c-1,0.9-1.6,1.7-1.7,2.6c-0.2,0.9,0.1,1.7,0.7,2.4c0.5,0.5,1,0.9,1.6,1.1l0,0l2.9-2.5l2.5,2.8l-3.6,3.1l0,0
		c-0.3,0.1-0.7,0.1-1.1,0.1C160.2,54.4,158.5,53.5,157.1,51.9L157.1,51.9"/>
	<path id="path3388" inkscape:connector-curvature="0" class="st1" d="M162,57.8l12.5-8.1l0,0l1,1.5l1,1.5l0,0L164,60.9l0,0l-1-1.5
		L162,57.8"/>
	<path id="path3390" inkscape:connector-curvature="0" class="st1" d="M165.6,62.9L165.6,62.9l5.4-2.5l0,0l-0.5-1.1l2.7-1.3l0.5,1.1
		l0,0l5.4-2.5l0,0l0.8,1.7l0,0l1.7,3.7c0.9,1.9,1.1,3.7,0.5,5.1c-0.5,1.4-1.8,2.6-3.8,3.5h-0.1c-2.5,1.2-4.6,1.5-6.3,1.1
		s-3.1-1.7-4-3.7l-1.6-3.5l0,0L165.6,62.9L165.6,62.9z M177.4,61.5L177.4,61.5l-2.1,1l0,0l1.1,2.3l-2.7,1.3l-1.1-2.3l0,0L170,65l0,0
		l0.8,1.7c0.4,0.9,1.1,1.4,1.9,1.5c0.9,0.1,2-0.1,3.3-0.7c1.1-0.5,1.9-1.1,2.3-1.9c0.4-0.7,0.4-1.5,0-2.3L177.4,61.5"/>
</g>
</svg>
