<?xml version="1.0" encoding="utf-8"?>
<!-- Generator: Adobe Illustrator 21.1.0, SVG Export Plug-In . SVG Version: 6.00 Build 0)  -->
<svg version="1.1" id="Layer_1" xmlns="http://www.w3.org/2000/svg" xmlns:xlink="http://www.w3.org/1999/xlink" x="0px" y="0px"
	 viewBox="0 0 200 200" style="enable-background:new 0 0 200 200;" xml:space="preserve">
<style type="text/css">
	.st0{fill:#FFFFFF;}
	.st1{fill:#38AA48;}
	.st2{fill:#E6311C;}
	.st3{fill:#1B1918;}
	.st4{fill:#E10A1F;}
	.st5{fill:#E9EAEA;}
	.st6{fill:#DADADA;}
	.st7{fill:#797A71;}
	.st8{fill:#EAEFEC;}
	.st9{fill:none;}
</style>
<g>
	<path class="st0" d="M100.8,60.4c-32.2,0.1-67.3,8.3-92.7,29l-0.7,0.5l0.3,0.8c14.6,43.4,48.2,81,91.8,96.4l0.4,0.1l0.4-0.1
		c24.5-8.1,45.3-23.8,61.7-43.5c12.6-15,24.1-34.2,30.1-52.9l0.3-0.8C167.2,68.9,129,60.3,100.8,60.4z"/>
	<path id="path4" class="st1" d="M15.1,107.5h169.6c-0.8,1.7-1.6,3.3-2.5,5l-164.6,0C16.7,110.8,15.9,109.1,15.1,107.5L15.1,107.5z"
		/>
	<path id="path6" class="st1" d="M34.3,138.6h131c-1.2,1.6-2.5,3.1-3.8,4.7l-0.3,0.3H38.3C36.9,141.9,35.6,140.3,34.3,138.6z"/>
	<path id="path8" class="st2" d="M19.6,116.4H180c-3.6,6.4-7.6,12.6-11.8,18.3H31.3C27,128.9,23.1,122.7,19.6,116.4z"/>
	<path id="path10" class="st3" d="M99.4,187.1c-43.6-15.4-77.1-53-91.8-96.4l-0.3-0.8l0.7-0.5c25.4-20.6,60.5-28.9,92.7-29
		c28.2-0.1,66.4,8.5,91.5,29.5l-0.3,0.8c-6,18.8-17.5,37.9-30.1,52.9c-16.4,19.6-37.2,35.4-61.7,43.5l-0.4,0.1L99.4,187.1z
		 M99.8,186c51.2-16.9,81.6-66.1,91-95.6c-24.5-20.4-63.1-28.9-90.1-28.7c-27,0.2-64.1,6.4-92,28.7C21.5,127.8,51.9,169.1,99.8,186z
		"/>
	<path id="path12" class="st3" d="M13.7,48.2l-13.4,6C0.9,57.5,6.6,87.1,6.8,87c27.2-20.7,61.3-29.1,94-29.2
		c31.2-0.1,68.3,9.7,92.5,29.4l6.4-32.8l-13.3-6.1l5.6,12.2c0.8,1.7,1.4,4.3,1.4,5.5c0,1.8-0.6,3.1-3.6,3c-9.3-0.2-29-6.6-33.3-8.1
		c-26.2-9.4-48.8-22.3-53.9-27.9l0-4l9.6-7.3l-11.9-8.9l-12.4,8.8l9.7,7.3l0,4.1C93.3,38,73.2,49.3,51.1,58.1
		c-12.3,4.9-29.8,9.8-38.6,10.7c-1,0.1-2.1,0.2-2.9,0.1c-1.2-0.1-2.4-0.4-2.8-1.6c-0.2-0.7-0.3-1.4-0.2-2.1c0.2-1.3,0.8-3.4,1.7-5.3
		L13.7,48.2z"/>
	<path id="path14" class="st4" d="M7.5,84.9c26.8-19.8,60.3-28.3,93.3-28.4c30.6-0.1,67.1,9.3,91.7,28.4l5.9-29.9l-9.5-4.3l4.2,9.3
		c0.7,1.5,1.5,4.3,1.5,6c0,3.1-1.9,4.3-4.9,4.2c-4.9-0.1-10.8-1.5-15.5-2.7c-6-1.5-12.3-3.4-18.2-5.5c-11.9-4.3-23.8-9.5-35-15.5
		c-4.2-2.2-8.3-4.6-12.3-7.2c-2.3-1.5-5.2-3.5-7.1-5.6l-0.3-0.3l0-5.1l8.8-6.6l-9.9-7.4l-10.3,7.4l8.8,6.7l0,5.1l-0.3,0.3
		c-3.3,3.9-12.4,9-16.9,11.4c-9.6,5.3-19.8,9.9-30,14c-4.6,1.8-9.3,3.4-14,4.9c-4.5,1.4-9.1,2.7-13.8,3.8c-3.6,0.9-7.4,1.7-11.1,2.1
		c-1,0.1-2.1,0.2-3.1,0.2c-1.7-0.1-3.3-0.7-3.9-2.5c-0.3-0.9-0.4-1.8-0.3-2.7c0.3-1.8,1-4,1.7-5.6l4-8.7L1.7,55
		c0.9,5.1,2,10.2,2.9,15.3c0.7,3.6,1.4,7.2,2.1,10.8C7,82.2,7.2,83.6,7.5,84.9L7.5,84.9z"/>
	<path id="path16" class="st0" d="M101,98.5c15.3,0,27.6,12.4,27.6,27.6c0,15.3-12.4,27.6-27.6,27.6c-15.3,0-27.6-12.4-27.6-27.6
		C73.4,110.8,85.8,98.5,101,98.5z"/>
	<path id="path18" class="st5" d="M125.1,120.3l0.5,1.4l0.4,0.1l0.9-4.8c-1.9-5.1-4.3-8.1-6.8-10.6l-1.4,0c1.7,1.7,2.9,3.9,4.6,7
		C123.7,114.1,125.2,118.4,125.1,120.3L125.1,120.3z"/>
	<path id="path20" class="st6" d="M119.1,105.2c5.8,5.1,9.6,12.5,9.6,20.9c0,15.3-12.4,27.6-27.6,27.6c-15.3,0-27.6-12.4-27.6-27.6
		c0-7.3,2.8-13.9,7.5-18.9l0,0.1c-7.2,10.1-7,18-5.8,23.3c1.1,3.6,5.3,7.3,11.7,9.5c1.4,0.5,2.8-0.5,4.2-0.3
		c1.8,0.4,3.7,1.6,6.6,2.2c5,1,12.5-0.5,18.5-4c7-4,12-11.5,11.1-19c-0.4-3.2-4-10.1-7.7-13.2C119.2,105.6,119.2,105.4,119.1,105.2
		L119.1,105.2z"/>
	<path id="path22" class="st5" d="M76.2,119l-0.5,2.2c1.1,3.5,2.7,3.3,4.7,5.8l13.1-3l0.8-2.4c-2,0.1-7.9,0.6-13,0.7
		C80.4,122.3,77.9,119.9,76.2,119L76.2,119z"/>
	<path id="path24" class="st5" d="M98.1,109.5l-4.3,0.2L99,114l9.4,0.3l3.9-5l-2.7,0c-1.4,1.1-3.6,1.3-6.1,1.4
		C101.2,110.6,99,110.4,98.1,109.5L98.1,109.5z"/>
	<path id="path26" class="st3" d="M92.2,124.2l6.4-10.8l10.3,0.2l7.1,8.9l-5.3,10.9l-11.8,0.7L92.2,124.2z"/>
	<path id="path28" class="st3" d="M114.8,150l3-9.2l6.6-0.1C122,144.6,118.7,147.8,114.8,150z"/>
	<path id="path30" class="st3" d="M85.5,148.9l0.4-2.4l10.5-3l8,8.9l-0.4,1.1c-1,0.1-1.9,0.2-2.9,0.2
		C95.2,153.7,89.9,151.9,85.5,148.9z"/>
	<path id="path32" class="st3" d="M74.3,119.2l0.7-0.1l5.9,7.8l-3.7,9.4l-1.6,0.5c-1.4-3.3-2.2-6.9-2.2-10.7
		C73.4,123.7,73.7,121.4,74.3,119.2L74.3,119.2z"/>
	<path id="path34" class="st3" d="M94.5,99.2l-5.2,7.2l-9.3,1.6C83.8,103.7,88.8,100.6,94.5,99.2z"/>
	<path id="path36" class="st3" d="M120.9,106.9l-7.2,0.4l-5.3-7.9C113.2,100.8,117.5,103.4,120.9,106.9L120.9,106.9z"/>
	<path id="path38" class="st3" d="M128.6,126.2l-3.1-4.6l0.9-6.4c1.4,3.3,2.2,7,2.2,10.8L128.6,126.2z"/>
	<path id="path40" class="st7" d="M96.1,121.1l13.2,0l1.8-2.1l-2.7-2.7l-8.8-0.3L96.1,121.1z"/>
	<path id="path42" class="st8" d="M98.2,142.6l6.1,6.6c3.6-0.3,6.3-1,9.2-2.5l3.2-6.7l-1.2-2c-3,1.8-11.6,2.4-16.6,1.3L98.2,142.6z"
		/>
	<path id="path44" class="st5" d="M117.8,138.7l5.6,0c2.2-2.6,3.8-7.4,3.8-11l-3.5-3.3c-0.1,3.4-2.2,7.4-8.4,11.8L117.8,138.7z"/>
	<path id="path46" class="st5" d="M79,136.5c1.7,3.3,4.6,6.3,7.5,7.8l8.1-2.8l1.4-4c-2-0.1-4.5-0.5-6.2-1.9c-2.4-2-4.4-5.1-5.6-7.9
		C82.1,130,80.2,133,79,136.5L79,136.5z"/>
	<path id="path48" d="M24.1,87c1.7,4,3.3,7.9,5,11.9c2.7-1.2,5.6-2.4,8.3-3.4c2.5-1.1,4.6-3.5,3.6-5.7c-0.7-1.7-2.3-1.8-3.7-1.6
		c0.9-1.1,1.8-2.3,1.2-3.8c-0.9-2.1-4.1-1.9-6.3-0.9C29.5,84.5,26.8,85.7,24.1,87z"/>
	<path id="path50" class="st0" d="M29.2,92.6c0.6,1.4,1,2.4,1.5,3.7l5.6-2.3c1.6-0.6,3.1-1.7,2.4-3.2c-0.9-1.8-2.8-1.1-4.5-0.4
		L29.2,92.6z"/>
	<path id="path52" class="st0" d="M27.1,87.6c0.5,1.2,0.9,2.1,1.4,3.3l5.5-2.4c1.4-0.6,3-1.7,2.5-3c-0.6-1.4-2.2-1.3-4.2-0.4
		C30.6,86,28.8,86.8,27.1,87.6z"/>
	<g id="Layer1001">
		<path id="path54" d="M47.6,77.7l2-0.6l11.2,10.7l-2.5,0.6L55,85l-8,2.4l-1.1,4.8l-2.4,0.8L47.6,77.7z"/>
		<path id="path56" class="st0" d="M49.1,79.1l-1.6,6.6l6.2-1.9L49.1,79.1z"/>
	</g>
	<path id="path59" d="M99.7,69.3l2,0l7.7,13.7l-2.6-0.1l-2.2-4.3l-8.4,0l-2.3,4.3L91.5,83L99.7,69.3z"/>
	<path id="path61" class="st0" d="M100.7,71l-3.5,6l6.5-0.1L100.7,71z"/>
	<path id="path63" d="M60.6,74.1l2.4-0.6l2.2,11.3l9.2-1.8c0.1,0.8,0.2,1.1,0.3,1.8c-3.9,0.7-7.8,1.4-11.6,2.3L60.6,74.1z"/>
	<path id="path65" d="M75.7,71.1c4.7-0.6,9.4-1.2,14.1-1.5c0,0.7,0.1,1.2,0.1,1.9c-3.6,3.6-7.2,7.3-10.8,10.9
		c3.8-0.6,7.8-0.9,11.8-1l0.1,1.6c-5,0.3-9.9,0.9-14.7,1.6c-0.1-0.6-0.2-1.3-0.3-1.9c3.5-3.7,7.1-7.4,10.6-11
		c-3.6,0.2-7.2,0.7-10.7,1.3C75.8,72.4,75.8,71.8,75.7,71.1z"/>
	<path id="path67" d="M112.6,69.8l-0.8,13.4l2.3,0.2l0.7-10.2l8.7,11.4l2.4,0.4l2.2-13.1l-2.5-0.4l-1.5,10.3L115.1,70L112.6,69.8z"
		/>
	<path id="path69" d="M141.5,74.6c-1,4.3-2.2,8.6-3.3,12.9c0.7,0.2,1.6,0.4,2.3,0.6c0.5-2,1-3.9,1.5-5.9c2.9,0.9,5.8,1.7,8.7,2.6
		c0.1-0.5,0.3-1,0.4-1.5c-2.9-0.9-5.8-1.8-8.7-2.7c0.3-1.2,0.7-2.4,1-3.6c3.7,1,7.1,2.1,10.4,3.2c0.2-0.5,0.4-1.1,0.6-1.6
		C150.2,76.9,145.9,75.7,141.5,74.6z"/>
	<path id="path71" d="M173.9,91.1c0.8,0.2,1.6,0.5,2.5,0.7c0-2.5-2.4-5.3-5.7-6.9c-4.2-1.9-9.3-2.1-11,2.4c-1.3,3.5,1.1,7.6,5.7,9.6
		c3.1,1.4,6.7,1.9,9.5-0.2c-0.7-0.6-1.4-1.1-2.1-1.7c-1.1,1.8-4.4,1.4-6.5,0.3c-2.3-1.1-5.8-3.8-4.1-7.3c1.6-3.4,5.2-2.9,7.7-1.8
		C172.2,87.3,174,89.4,173.9,91.1z"/>
	<path id="path73" d="M151.9,89.7l2.2,0.7l-0.6,1.7l-2.2-0.7L151.9,89.7z"/>
	<path id="path75" d="M177.3,100.9l2,1.1l-0.9,1.6l-2-1.1L177.3,100.9z"/>
	<path id="path77" d="M90.6,162.6c0.6-0.6,1.3-1.1,1.9-1.7c0.3,0,0.5,0,0.7,0l0,6.9c-0.4,0-0.7,0-1.1,0l0-5.1l-0.9,0.6h-0.6
		L90.6,162.6z"/>
	<path id="path79" d="M97.8,160.8c-1.5,0-2.2,1-2.2,2.3c0,1.6,1.1,2.3,2.3,2.2c0.5,0,0.9-0.2,1.2-0.5c0,1.5-0.7,2.1-1.3,2.1
		c-0.6,0-1.1-0.5-1.4-1.1l-0.8,0.4c0.3,1,1.3,1.6,2.2,1.5c1.7,0,2.2-1.6,2.2-3.4C100.1,162.4,99.5,160.9,97.8,160.8L97.8,160.8z"/>
	<path id="path81" class="st0" d="M97.8,164.5c0.7,0,1.2-0.6,1.2-1.3c0-0.7-0.5-1.4-1.3-1.4c-0.7,0-1.3,0.7-1.3,1.4
		C96.5,163.9,97,164.5,97.8,164.5z"/>
	<path id="path83" class="st9" d="M104.3,162.6c0-0.5-0.4-1-0.9-1c-0.5,0-1,0.4-1,1c0,0.5,0.4,1,1,1
		C103.9,163.6,104.3,163.2,104.3,162.6z"/>
	<path id="path85" class="st9" d="M104.7,165.6c0-0.7-0.6-1.3-1.4-1.3c-0.7,0-1.3,0.6-1.3,1.4c0,0.7,0.6,1.3,1.4,1.3
		C104.2,166.9,104.7,166.3,104.7,165.6L104.7,165.6z"/>
	<path id="path87" d="M101.4,162.1c0-0.7,1.3-1.3,1.9-1.3c1.3,0,1.9,1,1.9,1.7c0,0.5-0.2,1-0.7,1.3c0.7,0.4,1.1,1.2,1.1,1.8
		c0,1.1-1.3,2.1-2.2,2.1c-1.5,0-2.3-1-2.3-1.7c0-0.4,1-0.8,0.9-0.4c0,0.8,0.7,1.3,1.4,1.3c0.7,0,1.3-0.6,1.3-1.3
		c0-0.7-0.6-1.3-1.4-1.3l-0.6,0l0-0.7l0.6,0c0.5,0,0.9-0.5,1-1c0-0.5-0.4-0.9-0.9-0.9c-0.5,0-0.9,0.3-1,0.8
		c-0.1,0.2-0.1,0.3-0.4,0.3C101.6,162.8,101.4,162.4,101.4,162.1L101.4,162.1z"/>
	<path id="path89" d="M106.9,160.9c1.4,0,2.9,0,4.3,0l0,1c-1.7,1.9-2.5,3.8-2.5,5.9l-0.9,0c0-2,0.7-3.8,2.2-5.6
		c0.1-0.1,0-0.3-0.2-0.3l-3,0C106.8,161.5,106.8,161.2,106.9,160.9L106.9,160.9z"/>
</g>
</svg>
