<?xml version="1.0" encoding="utf-8"?>
<!-- Generator: Adobe Illustrator 21.1.0, SVG Export Plug-In . SVG Version: 6.00 Build 0)  -->
<svg version="1.1" id="Layer_1" xmlns="http://www.w3.org/2000/svg" xmlns:xlink="http://www.w3.org/1999/xlink" x="0px" y="0px"
	 viewBox="0 0 200 200" style="enable-background:new 0 0 200 200;" xml:space="preserve">
<style type="text/css">
	.st0{fill-rule:evenodd;clip-rule:evenodd;fill:#ED3028;}
	.st1{fill:#231F20;}
	.st2{fill-rule:evenodd;clip-rule:evenodd;fill:#FADE4C;}
	.st3{fill-rule:evenodd;clip-rule:evenodd;fill:#6298BA;stroke:#231F20;stroke-width:0.8752;stroke-miterlimit:2.6131;}
	.st4{fill:none;stroke:#231F20;stroke-width:0.8752;stroke-miterlimit:2.6131;}
	.st5{fill-rule:evenodd;clip-rule:evenodd;fill:#FFFFFF;}
	.st6{fill-rule:evenodd;clip-rule:evenodd;fill:#221F1F;}
	.st7{fill-rule:evenodd;clip-rule:evenodd;fill:#3B6CAF;}
	.st8{fill:none;stroke:#231F20;stroke-width:9.480035e-02;stroke-linecap:square;stroke-miterlimit:2.6131;}
	.st9{fill-rule:evenodd;clip-rule:evenodd;fill:#3B6CAF;stroke:#231F20;stroke-width:0.8752;stroke-miterlimit:2.6131;}
	.st10{fill:#FFFFFF;}
	.st11{fill-rule:evenodd;clip-rule:evenodd;fill:#FFFFFF;stroke:#231F20;stroke-miterlimit:2.6131;}
	.st12{fill-rule:evenodd;clip-rule:evenodd;fill:#FFFFFF;stroke:#231F20;stroke-width:0.4376;stroke-miterlimit:2.6131;}
	.st13{fill-rule:evenodd;clip-rule:evenodd;fill:#3B6CAF;stroke:#231F20;stroke-miterlimit:2.6131;}
</style>
<g>
	<g>
		<path class="st0" d="M92.5,182.3c-16.7,0-32.4-6.5-44.4-18.4c-11.9-11.9-18.5-27.5-18.5-44.1v-120h139.6v120
			c0,16.6-6.6,32.2-18.5,44.1c-11.9,11.9-27.7,18.4-44.4,18.4H92.5z"/>
		<path class="st1" d="M168.8,0.3v119.5c0,34-28.2,62-62.4,62H92.5c-34.2,0-62.4-28-62.4-62V0.3H168.8 M169.8-0.7h-1H30.1h-1v1
			v119.5c0,16.7,6.6,32.5,18.7,44.5c12,12,27.9,18.5,44.7,18.5h13.9c16.8,0,32.7-6.6,44.7-18.5c12-12,18.7-27.7,18.7-44.5V0.3V-0.7
			L169.8-0.7z"/>
	</g>
	<g>
		<path class="st2" d="M139.8,165.1c-2.4,0-3.9-0.4-4-0.4l-0.1,0l-106-95.6l0-69.5L60.5,15l0,0c101.8,85.9,108.4,91.1,108.7,91.3
			l-0.3,0.4l0.5,0.1c-0.1,0.5-0.1,6.7-0.1,16.6c0,9.1-3.3,19.2-9.8,30.1C153.3,163.6,144.5,165.1,139.8,165.1z"/>
		<path class="st1" d="M30.1,0.3l30,15.1c102.7,86.7,108.6,91.3,108.7,91.3c0,0,0,0,0,0c-0.1,0-0.1,8.8-0.1,16.7
			c0,8-2.6,17.9-9.8,29.8c-5.9,9.8-14.3,11.4-19.2,11.4c-2.3,0-3.9-0.4-3.9-0.4L30.1,68.8L30.1,0.3 M168.9,106.7
			C168.9,106.7,168.9,106.7,168.9,106.7C168.9,106.7,168.9,106.7,168.9,106.7 M29.1-1.3l0,1.6l0,68.5l0,0.4l0.3,0.3L135.2,165
			l0.2,0.2l0.2,0.1c0.1,0,1.7,0.4,4.1,0.4c4.8,0,13.9-1.5,20.1-11.8c6.6-11,9.9-21.2,9.9-30.3c0-14.4,0-16.3,0.1-16.5
			c0,0.3-0.4,0.8-1,0.8v-1l0.6-0.8c-0.2-0.2-7.1-5.6-108.7-91.3l-0.1-0.1l-0.1-0.1l-30-15.1L29.1-1.3L29.1-1.3z"/>
	</g>
	<path class="st3" d="M52.1,175.8c0,0-29.1-17.6-36.1-21.6l13.7-7.6L29.5,134c15.6,9.5,14.2,8.9,32.9,17.5l-4.7,9.6l-5.3,9.3
		c0,0,4.1-5,0.7,10.6L52.1,175.8L52.1,175.8z"/>
	<line class="st4" x1="40.9" y1="151.9" x2="62.4" y2="151.5"/>
	<polygon class="st5" points="134.3,29.2 138.1,40.8 149.3,40.8 140.3,47.9 143.7,59.5 134.3,52.4 124.9,59.5 128.3,47.9 
		119.3,40.8 130.5,40.4 134.3,29.2 	"/>
	<polygon class="st5" points="62.2,114.2 65.9,125.8 77.2,125.8 68.2,132.9 71.6,144.5 62.2,137.4 52.8,144.5 56.2,132.9 
		47.1,125.8 58.4,125.4 62.2,114.2 	"/>
	<path class="st6" d="M35.1,63.6c1.5-1.9,4.9-1.1,7.5,1.1c2.3,2.6,3,6,1.1,7.5c-1.5,1.9-4.9,1.1-7.5-1.1
		C34,68.4,33.3,65.1,35.1,63.6L35.1,63.6L35.1,63.6z"/>
	<g>
		<path class="st7" d="M145.7,157c-4.8-11-10.1-14.6-16.8-19.1c-3.3-2.2-6.9-4.7-10.9-8.4c-3.4-3.3-6.5-7.3-9.5-11.2
			c-5-6.6-10.1-13.3-17.1-16.7c-0.7-0.3-1.5-0.7-2.2-1c-6.4-2.9-13-6-17-12.6C64.3,75,61.3,72.5,47.9,64.4
			C40.8,60,38,52.6,35.5,46.1c-2.3-6.3-4.2-11.2-9.1-11.2c-0.8,0-1.7,0.1-2.7,0.4l-0.5-0.8l21.4-21.3l0.3,0.1
			c8.6,2,10.8,7.8,13.1,13.9c2.1,5.6,4.3,11.3,11.2,15.7C82.6,50.9,86,53.6,93.9,66.6c4.2,6.9,15.6,14.6,23.3,17.3
			c8,2.7,11.2,8.1,14.6,13.7c2.1,3.5,4.2,7.1,7.7,10.4c4.4,4,8.4,6.2,11.9,8.2c6.2,3.5,11.6,6.6,16.3,17.1l0.1,0.3l-21.9,24
			L145.7,157z"/>
		<path class="st1" d="M44.9,13.7c15.7,3.6,9.1,20,24.1,29.5c13.2,8,16.4,10.6,24.5,23.7c4.4,7.3,16.3,15,23.6,17.5
			c12.7,4.3,12.9,15.3,22.1,24.1c12.1,10.9,20.8,8.8,28.1,25.2l-21.2,23.2c-7.3-16.8-16.1-16.8-27.8-27.7
			c-9.1-8.7-15.4-22.6-26.7-28c-6.9-3.3-14.6-6.2-19-13.5c-8-13.1-11.3-15.7-24.5-23.7C34.3,55.5,37,34.4,26.5,34.4
			c-0.8,0-1.8,0.1-2.8,0.4L44.9,13.7 M44.6,12.6L44.2,13L23,34.1l1,1.7c0.9-0.3,1.8-0.4,2.5-0.4c4.5,0,6.3,4.8,8.6,10.9
			c2.4,6.3,5.3,14.1,12.6,18.5C61,72.9,64,75.4,71.8,88.1C75.9,94.9,82.5,98,89,101c0.7,0.3,1.5,0.7,2.2,1
			c6.9,3.3,12,10.1,16.9,16.6c3,3.9,6,8,9.5,11.3c4,3.7,7.7,6.2,11,8.4c6.6,4.5,11.8,8,16.6,18.9l0.6,1.4l1-1.1l21.2-23.2l0.4-0.5
			l-0.3-0.6c-4.8-10.7-10.2-13.8-16.5-17.4c-3.5-2-7.5-4.3-11.8-8.2c-3.4-3.2-5.5-6.8-7.6-10.3c-3.4-5.7-6.6-11.2-14.8-13.9
			c-6.7-2.3-18.8-9.9-23.1-17c-8-13.1-11.3-15.8-24.8-24c-6.8-4.3-8.9-10-11-15.4c-2.4-6.2-4.6-12.1-13.4-14.2L44.6,12.6L44.6,12.6z
			"/>
	</g>
	<path class="st8" d="M95.3,103.1c-7-3.1-18.3-8.2-22.7-15.5c-8-13.1-11.3-15.7-24.5-23.7 M23.7,34.8l21.2-21.1
		c15.7,3.6,9.1,20,24.1,29.5c13.2,8,16.4,10.6,24.5,23.7"/>
	<path class="st3" d="M146.8,175.1c0,0,29.1-17.6,36.1-21.6l-13.7-7.6l0.5-12.9c-15.6,9.5-14.5,9.3-33.2,17.9l4.7,9.6l5.3,9.3
		c0,0-4.1-5-0.7,10.6L146.8,175.1L146.8,175.1z"/>
	<path class="st9" d="M159.1,150.8c-15.5,12.3-36,19.8-58.5,19.8c-22.5,0-44.3-6.5-59.8-18.7l-15.4,25.9
		C45.1,193.8,70.4,200,99.3,200c28.9,0,54.2-6.8,73.8-22.9L159.1,150.8L159.1,150.8z"/>
	<path class="st4" d="M136.4,150.9l22.7,0 M168.7,11l-0.1,16.3l-14.9,0.1l0.3,9.2l14.7-9.1 M29.9,10.5l0.3,16.2L44,26.8l0.3,9.1
		L30,26.7"/>
	<polygon class="st7" points="168.1,26.8 30.6,26.2 29.9,0.5 168.3,0.8 	"/>
	<path class="st3" d="M177.8,25l8.7-14.3l-17.7,0.3l0-10.8c-17-0.1-25.7-0.1-31.4-0.1c-14.7,0-19-0.1-33.1,0C76.6,0.3,66,0.2,35.9,0
		c-5.6,0-6.5,0-6.5,0l0.5,10.7c0,0-15.5,0-17.4,0l7.3,12.3l-7,13.4l31.3-0.2l-0.2-9.5c0.4,0,12.9,0,13.7,0
		c55.1,0.7,22.4,0.3,53.1,0.7c12,0.1,8.5,0.1,35.4,0c0.4,0,6.9,0,7.7,0l0.4,9.8l33.4,0.2L177.8,25z M168.1,26.8L30.6,26.2L29.9,0.5
		l138.4,0.3L168.1,26.8z"/>
	<path class="st6" d="M122.1,141.4c1.5-1.9,4.9-1.1,7.5,1.1c2.3,2.6,3,6,1.1,7.5c-1.5,1.9-4.9,1.1-7.5-1.1
		C121,146.3,120.3,142.9,122.1,141.4L122.1,141.4L122.1,141.4z"/>
	<path class="st6" d="M79.4,102.4c1.5-1.9,4.9-1.1,7.5,1.1c2.3,2.6,3,6,1.1,7.5c-1.5,1.9-4.9,1.1-7.5-1.1
		C78.3,107.3,77.5,103.9,79.4,102.4L79.4,102.4L79.4,102.4z"/>
	<path class="st6" d="M56,81.5c1.5-1.9,4.9-1.1,7.5,1.1c2.3,2.6,3,6,1.1,7.5c-1.5,1.9-4.9,1.1-7.5-1.1C54.9,86.4,54.1,83,56,81.5
		L56,81.5L56,81.5z"/>
	<path class="st6" d="M101.4,122.7c1.5-1.9,4.9-1.1,7.5,1.1c2.3,2.6,3,6,1.1,7.5c-1.5,1.9-4.9,1.1-7.5-1.1
		C100.3,127.5,99.5,124.2,101.4,122.7L101.4,122.7L101.4,122.7z"/>
	<path class="st6" d="M67.4,30.7c1.5-1.9,4.9-1.1,7.5,1.1c2.3,2.6,3,6,1.1,7.5c-1.5,1.9-4.9,1.1-7.5-1.1
		C66.2,35.6,65.5,32.2,67.4,30.7L67.4,30.7L67.4,30.7z"/>
	<path class="st6" d="M89.1,48.3c1.5-1.9,4.9-1.1,7.5,1.1c2.3,2.6,3,6,1.1,7.5c-1.5,1.9-4.9,1.1-7.5-1.1
		C87.9,53.2,87.2,49.8,89.1,48.3L89.1,48.3L89.1,48.3z"/>
	<path class="st6" d="M109.1,67.2c1.5-1.9,4.9-1.1,7.5,1.1c2.3,2.6,3,6,1.1,7.5c-1.5,1.9-4.9,1.1-7.5-1.1
		C108,72.1,107.2,68.7,109.1,67.2L109.1,67.2L109.1,67.2z"/>
	<path class="st6" d="M132.5,86.2c1.5-1.9,4.9-1.1,7.5,1.1c2.3,2.6,3,6,1.1,7.5c-1.5,1.9-4.9,1.1-7.5-1.1
		C131.4,91,130.6,87.7,132.5,86.2L132.5,86.2L132.5,86.2z"/>
	<path class="st6" d="M153.2,104.4c1.5-1.9,4.9-1.1,7.5,1.1c2.3,2.6,3,6,1.1,7.5c-1.5,1.9-4.9,1.1-7.5-1.1
		C152.1,109.3,151.3,105.9,153.2,104.4L153.2,104.4L153.2,104.4z"/>
	<path class="st10" d="M41.7,6.5l-0.8,2.5c-0.4-0.7-1.1-1-2-1c-0.9,0-1.6,0.6-2.1,1.8c-0.5,1.2-0.8,2.7-0.8,4.5
		c0,1.8,0.3,3.2,0.8,4.3c0.5,1.1,1.2,1.6,2,1.6c1,0,1.7-0.6,2.3-1.7l0.9,2.4c-0.7,1.3-1.8,2-3.3,2c-1.4,0-2.6-0.8-3.4-2.3
		c-0.8-1.6-1.2-3.7-1.2-6.4c0-2.5,0.4-4.6,1.3-6.3c0.9-1.7,2-2.5,3.4-2.5C40,5.3,41,5.7,41.7,6.5L41.7,6.5z"/>
	<path class="st10" d="M45.3,16.2v6.2h-1.8V5.6c1.2-0.1,1.9-0.1,2.1-0.1c1.6,0,2.8,0.4,3.6,1.2c0.8,0.8,1.1,2.1,1.1,3.8
		c0,3.9-1.4,5.8-4.2,5.8C45.9,16.3,45.6,16.3,45.3,16.2L45.3,16.2z M45.3,8.2v5.4c0.3,0.1,0.6,0.1,0.7,0.1c0.8,0,1.4-0.2,1.8-0.7
		c0.4-0.5,0.6-1.2,0.6-2.2c0-1.8-0.9-2.6-2.6-2.6C45.6,8.1,45.4,8.1,45.3,8.2L45.3,8.2z"/>
	<path class="st10" d="M54.2,22.5h-2.3V5.6c1.5-0.1,2.4-0.1,2.8-0.1c1.5,0,2.7,0.7,3.6,2.2c0.9,1.4,1.3,3.4,1.3,5.7
		C59.6,19.4,57.8,22.5,54.2,22.5L54.2,22.5z M53.7,8.2v11.5c0.3,0,0.6,0.1,1,0.1c0.9,0,1.7-0.5,2.2-1.7c0.5-1.1,0.8-2.6,0.8-4.6
		c0-3.6-1-5.4-3.1-5.4C54.4,8.1,54.1,8.1,53.7,8.2L53.7,8.2z"/>
	<path class="st10" d="M67.8,22.5h-2.3V5.6c1.5-0.1,2.4-0.1,2.8-0.1c1.5,0,2.7,0.7,3.6,2.2c0.9,1.4,1.3,3.4,1.3,5.7
		C73.2,19.4,71.4,22.5,67.8,22.5L67.8,22.5z M67.4,8.2v11.5c0.3,0,0.6,0.1,1,0.1c0.9,0,1.7-0.5,2.2-1.7c0.5-1.1,0.8-2.6,0.8-4.6
		c0-3.6-1-5.4-3.1-5.4C68,8.1,67.7,8.1,67.4,8.2L67.4,8.2z"/>
	<polygon class="st10" points="74.9,22.5 74.9,5.6 76.7,5.6 76.7,22.5 74.9,22.5 	"/>
	<polygon class="st10" points="85.6,22.7 80.6,12 80.6,22.5 78.8,22.5 78.8,5.6 79.7,5.6 84.6,15.8 84.6,5.6 86.4,5.6 86.4,22.7 
		85.6,22.7 	"/>
	<path class="st10" d="M94.5,22.5L93.8,19h-3.5l-0.7,3.4h-2l4.1-17.1h0.8l4.2,17.1H94.5L94.5,22.5z M92,10.5l-1.2,6.2h2.5L92,10.5
		L92,10.5z"/>
	<path class="st10" d="M97.1,21.5l0.7-2.7c0.7,0.8,1.4,1.2,2.1,1.2c1.1,0,1.6-0.6,1.6-1.8c0-0.6-0.1-1.1-0.4-1.7
		c-0.3-0.5-0.8-1.1-1.6-1.8c-0.8-0.7-1.3-1.2-1.6-1.6c-0.3-0.4-0.5-0.9-0.6-1.5c-0.1-0.6-0.2-1.2-0.2-1.9c0-1.3,0.3-2.4,0.9-3.3
		c0.6-0.9,1.3-1.3,2.3-1.3c1.2,0,2.1,0.4,2.6,1.1l-0.6,2.6c-0.6-0.8-1.3-1.1-2-1.1c-0.4,0-0.8,0.2-1,0.5C99.1,8.7,99,9.2,99,9.8
		c0,1,0.7,2,2,3c0.7,0.6,1.2,1.1,1.5,1.5c0.3,0.5,0.5,1,0.7,1.6c0.2,0.6,0.2,1.3,0.2,2.1c0,1.4-0.3,2.5-1,3.4
		c-0.7,0.9-1.5,1.3-2.7,1.3C98.8,22.7,97.9,22.3,97.1,21.5L97.1,21.5z"/>
	<path class="st10" d="M112.5,22.5h-3.2V5.6c1.4-0.1,2.4-0.2,2.9-0.2c1.1,0,1.9,0.4,2.5,1.1c0.6,0.7,0.9,1.8,0.9,3.2
		c0,1.3-0.4,2.4-1.3,3.2c1.3,0.7,1.9,2.2,1.9,4.5c0,1.5-0.4,2.8-1.1,3.7C114.6,22,113.6,22.5,112.5,22.5L112.5,22.5z M111.2,8V12
		c0.3,0,0.6,0,0.9,0c1.2,0,1.8-0.7,1.8-2.2c0-1.3-0.5-2-1.6-2C112,7.9,111.6,7.9,111.2,8L111.2,8z M111.2,14.4v5.6
		c0.4,0.1,0.7,0.1,0.9,0.1c0.8,0,1.4-0.2,1.8-0.7c0.4-0.5,0.6-1.2,0.6-2.3c0-1-0.2-1.7-0.5-2.1c-0.3-0.4-0.9-0.7-1.8-0.7
		C111.9,14.3,111.6,14.3,111.2,14.4L111.2,14.4z"/>
	<path class="st10" d="M124,22.5l-0.8-3.4h-3.5l-0.7,3.4h-2l4.1-17.1h0.8l4.2,17.1H124L124,22.5z M121.5,10.5l-1.2,6.2h2.5
		L121.5,10.5L121.5,10.5z"/>
	<polygon class="st10" points="133.9,22.7 128.9,12 128.9,22.5 127.1,22.5 127.1,5.6 128,5.6 132.9,15.8 132.9,5.6 134.6,5.6 
		134.6,22.7 133.9,22.7 	"/>
	<path class="st10" d="M144.4,6.9l-0.8,2.4c-0.2-0.3-0.5-0.6-1-0.9c-0.5-0.3-0.8-0.5-1.2-0.5c-1,0-1.8,0.6-2.4,1.7
		c-0.6,1.1-0.9,2.6-0.9,4.5c0,1.8,0.3,3.2,0.9,4.3c0.6,1.1,1.4,1.6,2.4,1.6c0.7,0,1.2-0.3,1.6-0.9v-3.3h-1.4v-2.6h3.3v7.6
		c-0.4,0.6-1,1-1.7,1.4c-0.7,0.3-1.4,0.5-2.1,0.5c-1.5,0-2.7-0.8-3.5-2.4c-0.9-1.6-1.3-3.7-1.3-6.3s0.5-4.7,1.4-6.4
		c0.9-1.6,2.2-2.4,3.8-2.4C142.6,5.3,143.6,5.8,144.4,6.9L144.4,6.9z"/>
	<path class="st10" d="M145.9,13.9c0-2.4,0.4-4.4,1.2-6.1c0.8-1.7,1.9-2.5,3.2-2.5c1.5,0,2.6,0.8,3.4,2.3c0.8,1.5,1.2,3.6,1.2,6.3
		c0,2.7-0.4,4.9-1.2,6.5c-0.8,1.6-2,2.4-3.5,2.4c-1.4,0-2.5-0.8-3.2-2.4C146.3,18.8,145.9,16.6,145.9,13.9L145.9,13.9z M147.8,13.9
		c0,2,0.2,3.5,0.6,4.6c0.4,1.1,1,1.6,1.8,1.6c0.9,0,1.6-0.5,2.1-1.6c0.5-1.1,0.7-2.6,0.7-4.6c0-4-0.9-5.9-2.7-5.9
		c-0.8,0-1.4,0.5-1.9,1.6C148.1,10.6,147.8,12,147.8,13.9L147.8,13.9z"/>
	<path class="st10" d="M162.4,22.5l-2.8-7c-0.3,0-0.7,0-1.2-0.1v7.1h-1.9V5.6c0.1,0,0.5,0,1.2-0.1c0.7-0.1,1.2-0.1,1.7-0.1
		c2.6,0,3.9,1.7,3.9,5c0,1-0.2,1.9-0.5,2.7c-0.4,0.8-0.8,1.4-1.4,1.7l3.1,7.6H162.4L162.4,22.5z M158.5,8.2v4.7
		c0.3,0,0.6,0.1,0.8,0.1c0.8,0,1.3-0.2,1.7-0.5c0.4-0.4,0.5-1,0.5-2.1c0-0.8-0.2-1.4-0.6-1.7c-0.4-0.3-1-0.5-1.8-0.5
		C158.9,8.1,158.7,8.1,158.5,8.2L158.5,8.2z"/>
	<path class="st10" d="M36.2,178c-1.2-0.7-2.4-1.4-3.6-2.1c2.9-4.8,5.8-9.7,8.8-14.5c1.4,0.7,2.4,1.2,3,1.5c1.1,0.6,1.7,1.4,2,2.4
		c0.3,1,0.1,2.1-0.6,3.3c-0.6,1.2-1.6,1.9-2.8,2.1c1,1.4,1,3.1,0,5.1c-0.7,1.4-1.7,2.3-2.9,2.6C38.8,178.9,37.5,178.7,36.2,178
		L36.2,178z M42,164.6c-0.7,1.2-1.4,2.3-2,3.5c0.3,0.2,0.6,0.4,0.9,0.6c1.3,0.7,2.2,0.4,2.9-0.9c0.6-1.2,0.4-2-0.7-2.6
		C42.8,165,42.4,164.8,42,164.6L42,164.6z M38.8,170.2c-0.9,1.6-1.9,3.2-2.8,4.8c0.4,0.3,0.7,0.5,1,0.6c0.9,0.5,1.7,0.7,2.3,0.5
		c0.6-0.2,1.2-0.7,1.7-1.7c0.5-0.8,0.6-1.6,0.4-2.1c-0.2-0.6-0.7-1.1-1.6-1.6C39.6,170.6,39.2,170.4,38.8,170.2L38.8,170.2z"/>
	<path class="st10" d="M49.6,184.5c0.1-1.2,0.3-2.4,0.5-3.5c-1.4-0.6-2.7-1.2-4.1-1.8c-0.8,0.9-1.5,1.8-2.3,2.7
		c-0.8-0.4-1.6-0.8-2.4-1.2c4.2-4.3,8.1-8.7,11.9-13.3c0.3,0.1,0.5,0.2,0.8,0.4c-0.9,5.8-1.6,11.8-2,17.7
		C51.2,185.2,50.4,184.9,49.6,184.5L49.6,184.5z M51.5,172.3c-1.3,1.7-2.6,3.4-4,5c0.9,0.4,1.9,0.8,2.8,1.2
		C50.7,176.5,51.1,174.4,51.5,172.3L51.5,172.3z"/>
	<path class="st10" d="M61.5,189c-1-4-1.8-8.1-2.5-12.1c-1.2,3.3-2.4,6.6-3.6,9.8c-0.7-0.3-1.4-0.5-2.1-0.8c2-5.3,4-10.5,6-15.8
		c0.3,0.1,0.6,0.2,0.9,0.3c0.5,3.8,1.2,7.6,2.1,11.5c1-3.2,2.1-6.5,3.1-9.7c0.6,0.2,1.2,0.4,1.9,0.6c-1.6,5.5-3.3,10.9-4.9,16.4
		C62.1,189.2,61.8,189.1,61.5,189L61.5,189z"/>
	<path class="st10" d="M77.5,176.8c-0.4,0.7-0.9,1.5-1.3,2.2c-0.2-0.4-0.5-0.7-0.9-1.1c-0.4-0.4-0.8-0.6-1.2-0.7
		c-1.1-0.3-2.1,0.1-3,1c-0.9,0.9-1.6,2.3-2.1,4.1c-0.5,1.7-0.5,3.2-0.1,4.4c0.4,1.2,1.3,2,2.5,2.2c0.8,0.2,1.5,0,2.2-0.4
		c0.2-1.1,0.5-2.2,0.7-3.3c-0.6-0.1-1.1-0.2-1.7-0.4c0.2-0.8,0.4-1.7,0.6-2.5c1.2,0.3,2.5,0.5,3.8,0.8c-0.5,2.5-0.9,5-1.4,7.4
		c-0.6,0.5-1.4,0.8-2.4,0.9c-0.9,0.1-1.8,0.1-2.7-0.1c-1.8-0.4-3.1-1.6-3.8-3.4c-0.6-1.8-0.6-4,0.1-6.5c0.7-2.5,1.8-4.4,3.3-5.7
		c1.5-1.3,3-1.7,4.7-1.4C75.9,174.8,76.8,175.6,77.5,176.8L77.5,176.8z"/>
	<path class="st10" d="M78,184c0.4-2.4,1.3-4.3,2.4-5.8c1.2-1.5,2.5-2.1,3.9-1.9c1.6,0.2,2.8,1.1,3.5,2.7c0.7,1.6,1,3.7,0.7,6.4
		c-0.2,2.7-0.9,4.8-2.1,6.3c-1.2,1.5-2.7,2.1-4.6,1.9c-1.7-0.2-3-1.2-3.6-2.9C77.5,188.9,77.5,186.7,78,184L78,184z M80.2,184.3
		c-0.3,1.9-0.3,3.5,0,4.6c0.3,1.1,1,1.8,1.9,1.9c1.1,0.2,2.1-0.3,2.8-1.2c0.7-1,1.2-2.5,1.4-4.5c0.4-3.9-0.4-6-2.3-6.2
		c-0.9-0.1-1.7,0.3-2.3,1.3C81,181.2,80.5,182.6,80.2,184.3L80.2,184.3z"/>
	<path class="st10" d="M97.1,194.4c-1.1-2.4-2.2-4.7-3.2-7.1c-0.3,0-0.8-0.1-1.4-0.1c-0.1,2.4-0.3,4.7-0.4,7.1
		c-0.8,0-1.6-0.1-2.4-0.2c0.4-5.6,0.8-11.2,1.2-16.9c0.1,0,0.6,0,1.3,0c0.8,0,1.4,0,1.8,0c2.9,0.1,4.3,1.8,4.3,5.1
		c0,1-0.2,1.9-0.7,2.7c-0.4,0.8-1,1.4-1.6,1.7c1.1,2.6,2.4,5.1,3.7,7.7C98.9,194.5,98,194.4,97.1,194.4L97.1,194.4z M93,180
		c-0.1,1.6-0.2,3.1-0.3,4.7c0.4,0.1,0.7,0.1,0.9,0.1c0.9,0,1.6-0.1,2-0.5c0.4-0.3,0.6-1,0.7-2c0-0.8-0.2-1.4-0.6-1.8
		c-0.4-0.3-1.1-0.5-2-0.6C93.4,179.9,93.2,179.9,93,180L93,180z"/>
	<path class="st10" d="M113.3,177.6c-0.2,0.9-0.4,1.7-0.5,2.6c-0.5-0.6-1.3-0.8-2.3-0.7c-1,0.1-1.7,0.7-2.2,2
		c-0.5,1.2-0.7,2.7-0.6,4.5c0.1,1.8,0.5,3.2,1.2,4.2c0.7,1,1.6,1.5,2.6,1.4c1.2-0.1,2.1-0.8,2.6-2c0.4,0.8,0.9,1.5,1.3,2.3
		c-0.8,1.4-2.1,2.2-3.9,2.4c-1.8,0.2-3.3-0.5-4.4-2c-1.1-1.5-1.7-3.6-1.8-6.3c-0.1-2.5,0.3-4.6,1.2-6.3c0.9-1.7,2-2.7,3.6-2.8
		C111.4,176.6,112.4,176.9,113.3,177.6L113.3,177.6z"/>
	<path class="st10" d="M117.6,193.2c-0.8-5.6-1.6-11.2-2.4-16.7c0.7-0.1,1.3-0.2,2-0.3c0.9,5.6,1.8,11.1,2.7,16.7
		C119.1,192.9,118.3,193.1,117.6,193.2L117.6,193.2z"/>
	<path class="st10" d="M124.6,177.4c1.1,4.6,2.1,9.2,3.2,13.9c-0.8,0.2-1.5,0.3-2.3,0.5c-1-4.6-2-9.3-2.9-13.9
		c-1.2,0.2-2.4,0.5-3.6,0.7c-0.2-0.9-0.3-1.8-0.5-2.6c3.1-0.5,6.1-1.2,9.2-2c0.2,0.9,0.5,1.7,0.7,2.6
		C127.1,176.9,125.8,177.2,124.6,177.4L124.6,177.4z"/>
	<path class="st10" d="M136.5,181.7c0.7,2.2,1.4,4.4,2.1,6.6c-0.7,0.2-1.5,0.5-2.2,0.7c-0.7-2.2-1.3-4.4-2-6.6
		c-2.3-2.8-4.5-5.6-6.6-8.5c0.7-0.2,1.4-0.4,2.1-0.6c1.5,2.1,3.1,4.1,4.7,6.1c0.2-2.6,0.3-5.1,0.4-7.7c0.7-0.2,1.4-0.5,2-0.7
		C137,174.6,136.8,178.2,136.5,181.7L136.5,181.7z"/>
	<path class="st10" d="M145.4,170.6c0.5,1.2,1.1,2.4,1.6,3.6c1.3-0.6,2.6-1.2,3.9-1.8c0.4,0.8,0.7,1.5,1.1,2.3
		c-1.3,0.6-2.6,1.2-4,1.8c1,2.4,2.1,4.7,3.1,7.1c-0.7,0.3-1.4,0.6-2.2,0.9c-2.2-5.2-4.4-10.4-6.6-15.6c2.3-1,4.6-2,6.9-3.1
		c0.4,0.8,0.8,1.6,1.2,2.4C148.8,169.1,147.1,169.9,145.4,170.6L145.4,170.6z"/>
	<path class="st10" d="M158.4,161.8c0.2,0.9,0.4,1.7,0.6,2.6c-0.8-0.3-1.6-0.2-2.5,0.3c-0.9,0.5-1.3,1.4-1.3,2.7
		c0,1.3,0.4,2.8,1.3,4.4c0.9,1.6,1.8,2.7,2.9,3.3c1.1,0.6,2.1,0.7,3,0.1c1.1-0.6,1.6-1.6,1.6-2.9c0.7,0.5,1.5,1,2.2,1.5
		c-0.1,1.6-1,2.9-2.6,3.9c-1.6,0.9-3.3,0.9-4.9,0.1c-1.6-0.9-3.1-2.6-4.3-4.9c-1.2-2.2-1.6-4.3-1.5-6.3c0.1-2,0.8-3.3,2.2-4.1
		C156.2,161.8,157.3,161.6,158.4,161.8L158.4,161.8z"/>
	<polygon class="st11" points="77.2,69.8 84.2,79.8 96.8,91.1 117.9,110.4 123.9,120 133.2,126.1 146.8,138.4 150.1,138.9 
		152.3,140 154.2,139.9 153.8,138.1 152.6,136.2 152.2,132.9 139.1,121.7 132.5,112.1 122.3,106.6 101.6,86.5 90,75.5 79.4,67.9 
		77.2,69.8 	"/>
	<path class="st11" d="M91.9,76.6c0-2.6-1.9-3.4-4.1-2.6c-2.3,1.1-4.5,3.7-4.5,6c0,2.6,1.9,3.4,4.1,2.6
		C89.6,81.4,91.9,78.8,91.9,76.6L91.9,76.6L91.9,76.6z"/>
	<path class="st11" d="M110.4,93.7c0-2.6-1.9-3.4-4.1-2.6c-2.3,1.1-4.5,3.7-4.5,6c0,2.6,1.9,3.4,4.1,2.6
		C108.2,98.5,110.4,95.9,110.4,93.7L110.4,93.7L110.4,93.7z"/>
	<path class="st11" d="M134,114.4c1.1-3.7-1.1-6-4.1-4.9c-3.4,0.7-7.1,4.5-7.9,7.8c-1.1,3.7,1.1,6,4.1,4.9
		C129.5,121.5,133.2,117.8,134,114.4L134,114.4L134,114.4z"/>
	<path class="st11" d="M153.1,129.7c0.7-4.1-2.2-5.8-6.6-4.3c-4.4,1.8-8.3,6.5-8.7,10.3c-0.7,4.1,2.2,5.8,6.6,4.3
		C148.9,138.2,152.7,133.5,153.1,129.7L153.1,129.7L153.1,129.7z"/>
	<polygon class="st12" points="152.6,136.2 151.9,138 150.1,138.9 152.6,136.2 	"/>
	<polygon class="st11" points="43.1,38.5 44.2,43.2 43.8,44.3 41.9,45.4 41.9,48.1 43,49.9 45.3,52.2 46.4,53.3 48.3,52.2 
		49.8,53.7 51.7,55.2 53.5,54.4 54.7,57 56.9,57.4 58.1,59.3 58.1,61.5 59.9,62.6 60.3,64.5 61.1,67.5 64.4,67.9 65.9,70.8 
		66.3,71.6 67.8,72 68.2,73.5 70.8,72.3 72.7,73.1 74.6,74.6 76.1,73.8 77.6,74.9 79.5,74.2 82.9,70.8 83.6,69 82.9,66 80.6,64.9 
		80.2,63 80.2,60.8 78.7,59.6 78.7,58.5 76.8,57.4 76.5,54 73.8,53.7 72.3,51.4 70.8,49.9 69.3,50.3 67.4,51.8 65.9,51.4 64.1,49.9 
		61.8,47.7 61.4,46.6 59.9,45.8 59.9,43.6 58.4,42.5 58.4,39.8 56.9,39.1 55.1,36.5 52.8,36.1 49.4,36.5 47.9,38.3 45.7,38.7 
		43.1,38.5 	"/>
	<path class="st13" d="M46.5,43c1.6-0.6,3.7,0.8,4.5,3s0.1,4.5-1.5,5c-1.6,0.6-3.7-0.8-4.5-3C44.2,45.9,44.9,43.6,46.5,43L46.5,43
		L46.5,43z"/>
	<path class="st13" d="M49.9,39.9c-1,1.4-0.2,3.7,1.7,5.1c1.9,1.3,4.3,1.3,5.2-0.1c1-1.4,0.2-3.7-1.7-5.1
		C53.3,38.5,50.9,38.5,49.9,39.9L49.9,39.9L49.9,39.9z"/>
	<path class="st13" d="M63.8,57c1.3-1.1,3.7-0.6,5.3,1c1.6,1.6,1.9,4,0.6,5.2c-1.3,1.1-3.7,0.6-5.3-1C62.9,60.5,62.6,58.1,63.8,57
		L63.8,57L63.8,57z"/>
	<path class="st13" d="M67,67.4c0.8,0.8,6.2,3.5,8.5,2.3c2.3-1.2,2.4-2,2.4-1.6c0,0,1.1-2.2-0.9-3.4c0,0,0-3.8,0-3.5
		c0,0-2.3-5.4-5.1-5c-2.3,0.4,2.7,3.1,0,6.1C70.5,65.9,66.6,67.1,67,67.4L67,67.4L67,67.4z"/>
</g>
</svg>
