<?xml version="1.0" encoding="utf-8"?>
<!-- Generator: Adobe Illustrator 21.1.0, SVG Export Plug-In . SVG Version: 6.00 Build 0)  -->
<svg version="1.1" id="Layer_1" xmlns="http://www.w3.org/2000/svg" xmlns:xlink="http://www.w3.org/1999/xlink" x="0px" y="0px"
	 viewBox="0 0 200 200" style="enable-background:new 0 0 200 200;" xml:space="preserve">
<style type="text/css">
	.st0{fill:#FFFF01;}
	.st1{fill:#FFFFFF;}
</style>
<g>
	<path d="M100,200.2c13.3,0,83.7-31.4,83.7-120.1c0-11,0-59.5,0-60.4c0-1.1-0.8-2.7-3.3-2.7c-1.4,0-6.2,1.1-14.9,1.1
		c-28,0-65.5-18.5-65.5-18.5S62.5,18.2,34.5,18.2c-8.7,0-13.5-1.1-14.9-1.1c-2.6,0-3.3,1.6-3.3,2.7c0,0.9,0,49.4,0,60.4
		C16.3,168.8,86.7,200.2,100,200.2z"/>
	<path class="st0" d="M100,197.3c20.3-4.4,79.4-30.5,79.4-127.5v-20c0-0.5-0.4-0.9-0.9-0.9H21.4c-0.5,0-0.9,0.4-0.9,0.9v20
		C20.6,166.8,79.7,192.9,100,197.3z"/>
	<path d="M55.2,93c1.2,0.4,3.1,0.2,3.6,1.3c-0.4,1.4-3.2,0.5-3.8,0C54.9,93.8,54.9,93.3,55.2,93z M72.5,102.8c0,0.2,0,0.4,0,0.7
		c1.4,0.9,4.5,0.1,4.2,2.7c-0.8,0-1.5,0-2.3,0c-0.4,0-0.8,0-1.1,0c-0.2,0-0.4,0-0.6,0c-0.2,0-0.2,0.1-0.3,0.2
		c-0.1,0.1-0.3,0.3-0.4,0.4c-0.2,0.2-0.4,0.4-0.6,0.7c-0.2,0.3-0.3,0.7-0.4,1c-0.1,0.2-0.2,0.5-0.3,0.8c-0.1,0.2-0.1,0.5-0.2,0.7
		c-0.2,0.4-0.5,0.8-0.9,1.1c-0.1,0.2-0.3,0.3-0.4,0.5c-0.5,0.5-0.9,1-1.5,1.5c-1.2,0.9-2.8,1.1-3.6,2.7c2.6,0.3,4-0.4,5.6-1.6
		c1.8-1.4,2.7-4.5,4.7-5.1c1.6-0.5,3.9,0.5,6-0.2C80,104.5,76.6,102.3,72.5,102.8z M69.8,105.2c-0.4,0.7-0.8,1.2-1.4,1.7
		c-0.4,0.4-0.9,0.7-1.4,1c-0.4,0.3-0.8,0.6-1.2,0.7c-0.5,0.1-1,0-1.4,0.1c-0.2,0-0.5,0.1-0.6,0.3c-0.1,0.1-0.1,0.2-0.2,0.3
		c0,0-0.1,0.3,0,0.4c3.1,1.9,6.8-2,6.9-4.4C70.3,105.2,70,105.2,69.8,105.2z M64,102.1c-0.1,0-0.4,0.3-0.5,0.3
		c-0.2,0.1-0.4,0.2-0.6,0.3c-0.2,0.1-0.3,0.2-0.5,0.3c-0.2,0.1-0.4,0.1-0.6,0.1c-0.6,0.1-1.1,0.2-1.7,0.3c-0.3,0-0.6,0-0.9,0
		c-0.1,0-1,0-1,0c0.2,0.6,0.5,1.1,1,1.4c0.1,0.1,0.3,0.2,0.5,0.2c0.1,0.1,0.3,0.1,0.4,0.1c0.2,0,0.3,0.1,0.5,0.1
		c0.2,0,0.3,0,0.5,0.1c0.2,0.1,0.4,0.1,0.7,0.1c0.5,0,0.9-0.2,1.4-0.4c0.1-0.1,0.3-0.2,0.4-0.2c0.2-0.1,0.3,0,0.5-0.1
		c0.1,0,0.2,0,0.3-0.1c0.1,0,0.3,0,0.4,0c0.1,0,0.2,0,0.3-0.1c0.1,0,0.9-0.3,0.9-0.3C65.9,103.3,65.1,102.3,64,102.1z M61.1,93.1
		c0,0,0.1,0,0.1,0c0.1,0,0.2,0,0.3,0c0.2,0,0.4,0.1,0.7,0.1c0.4,0.1,0.9,0.1,1.3,0.2c0.4,0.1,0.8,0.2,1.2,0.3c0.3,0.1,0.7,0.3,1,0.5
		c0.3,0.2,0.5,0.5,0.7,0.8c0,0.1,0.1,0.2,0.1,0.3c-1.3,1.6-2.6-0.9-4.2-1.3c-0.6-0.2-1.7,0.3-2-0.4c0,0-0.3-0.2-0.3-0.2
		c-0.2-0.1-0.3-0.2-0.4-0.3c-0.4-0.3-0.8-0.4-1.2-0.6c-0.3-0.2-0.6-0.3-0.9-0.5c-0.6-0.3-1.2-0.7-1.7-1.1c-0.5-0.4-1.1-0.8-1.6-1.2
		c-0.3-0.2-0.7-0.9-1.1-0.8c-0.6,0.2-0.5,1.3-1.3,1.6c-0.2,0.1-0.5-0.1-0.7,0c-0.5,0.2-0.2,1-0.3,1.3c-0.2,0.5-0.8,0.9-1.2,1
		c-0.6,0.3-1.2,0.5-1.6,1c0.1,5.5-1.5,9.1-4.7,11.3c0.3,1.1,1.5,1.3,1.8,2.4c-0.2,1.3-1.8,1.3-2.2,2.4c-0.2,2,0.6,3.1,0.9,4.7
		c-3.7,0-2.2-5.9-3.3-9.8c-0.3-1-1.1-1.2-1.1-2.2c1,0.1,2,0,2.9-0.5c1.6-0.8,2.4-2.5,2.7-4.2c0.2-1,0.2-2,0.1-3c0-0.2,0-0.6-0.1-0.8
		c-0.1-0.1-0.3-0.1-0.4,0.1c-0.2,0.2-0.2,0.7-0.2,1c0,0.3,0,0.5,0,0.8c-0.1,0.3-0.1,0.7-0.1,1c-0.2,1.6-0.5,3.8-2.6,3.9
		c-0.6-0.8,0.5-1.3,0.4-2.2C41,93.9,42.4,89.1,47.6,89c-0.1-0.9-1.2-0.8-1.8-1.1c0.6-0.9,1.6-0.8,2.7-0.7c0.1-0.7-0.5-0.9,0-1.3
		c3.1-0.2,4.8,1.5,6.4,2.9c0.4,0.4,0.8,0.7,1.2,1.1c0.4,0.3,0.8,0.7,1.3,1c0.4,0.3,0.9,0.6,1.3,0.9c0.4,0.3,0.9,0.6,1.4,0.8
		c0.1,0,0.2,0.1,0.2,0.1c0,0,0.1,0,0.1,0.1c0,0,0.1,0,0.1,0c0.1,0,0.1,0.1,0.2,0.1c0.1,0,0.1,0.1,0.2,0.1c0,0,0,0,0.1,0
		C61.1,93.1,61.1,93.1,61.1,93.1z M66.7,96.8c-0.9,0.7-0.5,2.7-2.2,2.7c-1.3-1.7-5.4-1.2-7.3-0.4c-0.2,0.6-0.3,1.3-0.2,2.2
		c-0.1,0-0.3,0-0.5,0c0,0-0.1-0.1-0.1-0.1c0-0.1-0.1-0.1-0.1-0.2c-0.2-0.5-0.3-1-0.5-1.5c-0.1-0.2-0.2-0.5-0.3-0.7
		c-0.1-0.1-0.1-0.2-0.2-0.3c0,0-0.1-0.1-0.1-0.1c-0.1-0.1-0.1-0.1-0.1-0.2c-0.1-0.1-0.2-0.3-0.3-0.4c-0.1-0.1-0.1-0.2-0.2-0.3
		c-0.1-0.1-0.1-0.2-0.1-0.3c0-0.1,0-0.2-0.1-0.2c-0.1-0.1-0.1-0.3-0.2-0.4c-0.1-0.2-0.3-0.3-0.5-0.3c-0.1,0-0.2-0.1-0.3-0.1
		c0,0-0.4,0-0.4,0c0,0.4,0,0.9,0.4,1.2c0.1,0.1,0.2,0.1,0.3,0.1c0.1,0,0.1,0,0.2,0c0.1,0,0.1,0.1,0.2,0.1c0.1,0,0.1,0.1,0.2,0.1
		c0.1,0.1,0.2,0.2,0.3,0.3c0.1,0.1,0.1,0.1,0.1,0.2c0,0,0,0.1,0,0.1c0,0.1,0,0.2,0,0.3c0,0.1,0,0.3,0,0.4c0,0.2,0,0.3,0,0.5
		c0,0.3,0,0.6,0.1,0.9c0,0.6,0.1,1.2,0.1,1.8c0.1,0.6,0.1,1.2,0.2,1.7c0.1,0.5,0.2,1,0.4,1.6c0.2,0.5,0.4,0.9,0.7,1.3
		c0.1,0.2,0.2,0.3,0.4,0.5c0.1,0.1,0.1,0.1,0.2,0.2c0.1,0.1,0.2,0.1,0.2,0.2c0.5,0.5,1.7,0.4,1.8,1.3c-1.5-0.1-2.8,2.9-3.8,2.9
		c-0.6,0-0.7-1.2-1.6-1.1c-1.5,0.2-1.8,2.4-3.1,3.8c-0.8-0.6-2.2-0.9-3.1-0.2c-1.5-0.6-0.9-3.2-2.9-3.3c0.3,1,0.2,2.3,0.4,3.3
		c0.4,1.7,0.9,4,2,5.1c0.4-1.5,0.1-3.6,1.8-3.8c0.7,2-1,5.8,1.6,6.7c-0.2-0.9,0.3-1.8,0.4-2.7c0.5-2.5,1.3-5.5,3.6-5.6
		c-0.6,2.3-2.5,4.4-2.2,6.9c1.5-0.4,1-1.7,1.6-2.7c0.4-0.7,1.3-1.9,2-2.7c2.3-2.6,5.2-3.8,7.1-6.4c-2.2-2.1-5-3.7-5.8-7.3l0,0
		c0.1,0,0.3,0,0.5,0c0.7,0.6,1.9,0.7,3.3,0.7c0.3-0.4,0.1-1.4,0.7-1.6C64.1,102.4,68.4,99.9,66.7,96.8z M28.5,105.2
		c-1.2,0.4-2.5,1.4-2,2.9c5,1.1,8.5,3.1,9.1,7.8c0.9,6.5-2.3,12.4-0.7,17.1c1.2-0.6,2.5-0.2,3.6-0.4c-0.1-1.4-1.6-2.3-2-4
		c-1.1-4.3,1.1-9.2,0.4-14c-0.4-3.3-2.8-7.4-4.7-9.1c-1-0.9-3.1-2-4.9-1.8C27.3,104.7,28.4,104.5,28.5,105.2z M61.6,139.6
		c0.9,1.7,0.6,4.2,1.3,6.2c0.5,1.5,1.5,3,2.2,4.2c0.8,1.3,1.7,3,3.3,3.3c-0.2-2.2-2-4.1-2.7-6.9c-0.2-1-0.1-1.9-0.2-2.9
		c-0.6-3.7-2.9-5.9-6.2-7.1c-0.1,0-0.3,0-0.4,0C58.9,138.3,60.9,138.2,61.6,139.6z M64.5,117.4c-0.2-0.2-0.5-0.3-0.7-0.4
		c-0.6-0.3-1.3-0.6-1.9-0.8c-0.2-0.1-0.4-0.1-0.6-0.2c-0.1-0.1-0.2-0.2-0.3-0.2c-0.2-0.1-0.3,0-0.2,0.3c0.1,0.2,0.3,0.5,0.5,0.6
		c0.2,0.2,0.5,0.3,0.8,0.5c0.2,0.1,0.4,0.3,0.6,0.4c0.2,0.1,0.4,0.1,0.6,0.2c0.3,0.1,0.7,0.2,0.9,0.3c0.3,0.2,0.5,0.5,0.9,0.7
		c0.7,0.4,1.4,0.7,2,1.2c0.6,0.6,0.9,1.6,1.6,2.2c1.4,1.2,4.1,2.4,6.2,2.7c2.2,0.3,4.9,0.2,7.3-0.4c-0.2-1.5-1-3.2-2.2-4.2
		c-1.4-1.2-4.2-2.2-5.8-1.1c1,1.3,4.3,0.4,4.2,2.9c-2.6,0.3-5-0.2-7.3-1.2c-1-0.5-2-1.1-3-1.6c-0.5-0.3-1-0.5-1.5-0.8
		c-0.2-0.1-0.5-0.3-0.8-0.4c-0.3-0.1-0.5-0.2-0.8-0.3c-0.1,0-0.1-0.1-0.2-0.1C64.6,117.4,64.6,117.4,64.5,117.4z M42.9,140.5
		c0.3,1.8,0.3,3.6,0.2,5.4c-0.2,2.9-0.5,5.8-0.8,8.7c0,0.1,0,0.1,0,0.2c-0.9-1.3-1.7-2.7-2.6-4.1c0.4-1,0.2-3.4,0.3-4.3
		c0.2-1.5,0.4-3,0.3-4.5c0-1.2-0.2-2.5-0.8-3.6c-0.3-0.5-0.7-0.9-1.2-1.2c-0.4-0.3-0.8-0.5-1.2-0.8c-0.2-0.2-0.3-0.3-0.5-0.5
		c-0.2-0.3-0.5-0.5-0.6-0.7c-0.1-0.2-0.3-0.4-0.2-0.6c0-0.2,0.1-0.3,0.3-0.2c0.2,0,0.4,0.2,0.5,0.3c0.2,0.1,0.4,0.2,0.6,0.4
		c0.2,0.1,0.3,0.2,0.5,0.3c0.2,0.1,0.4,0.3,0.5,0.4c0.1,0.1,0.3,0.2,0.4,0.2c0.1,0,0.2,0,0.2,0c0,0,0.2-0.1,0.2-0.1
		c-0.1-5.3,7.9-6.5,8.4-11.3c0.2-1.4-1-2.4,0-3.6c1.5,1.8,1.7,4.6,1.3,6.4c-0.9,4-7.2,5-7.3,9.1C41.6,137.8,42.7,139.1,42.9,140.5z
		 M55.2,162.1c-0.1,0.1-1.1,0.2-1.3,0.2c-0.4,0-0.8,0-1.2,0c-0.4,0-0.8-0.1-1.2-0.1c-0.5,0-0.9,0-1.4-0.1c-0.8-0.1-1.7,0-2.5-0.1
		c0,0-0.1,0-0.1,0c-0.7-0.9-1.5-1.9-2.2-2.9c0.1,0,0.3,0,0.4,0c0.3,0,0.6,0,0.9,0c0.4,0,0.8-0.1,1.2-0.1c0.6,0,1.1,0.1,1.7,0
		c0.2,0,0.5-0.1,0.7-0.1c0.1,0,0.5-0.2,0.5-0.3c0-2.2-3-1.5-3.1-3.6c1.8-0.4,3.5,1.4,4.9,2.4C53.9,158.5,56.1,159.5,55.2,162.1z
		 M67.3,125.7c0.2,0,0.6,0.1,0.8-0.1c0.1-0.2,0-0.5-0.2-0.6c-0.1,0-0.2,0-0.3,0c-0.1,0-0.2,0-0.4-0.1c-0.6-0.1-1.1-0.4-1.6-0.6
		c-0.5-0.2-1-0.5-1.4-0.8c-0.5-0.4-1-0.8-1.4-1.2c-0.2-0.2-0.4-0.5-0.6-0.7c-0.1-0.1-0.2-0.3-0.3-0.4c0,0-0.2-0.4-0.2-0.4
		c-0.2,0-0.4,0-0.7,0c-1,1,0.5,2.7,0,4.7c-2,3.6-6.8,5.9-8.4,9.8c-0.8,1.9-0.4,4-1.1,6.4c-1,3.4-5.3,5.1-6.2,8.7
		c-0.6,2.1-0.4,4.4,1.1,5.1c1-0.8,0.4-2,0.4-3.6c0-0.1,0.2-0.2,0.2-0.2c0.1-0.1,0.2-0.2,0.2-0.2c0.2-0.2,0.3-0.3,0.5-0.5
		c0.3-0.3,0.6-0.7,1-1c0.5-0.6,1.1-1.2,1.6-1.8c0.3-0.3,0.6-0.6,0.8-0.9c0.1-0.1,0.3-0.2,0.4-0.3c0.1-0.1,0.2-0.3,0.3-0.4
		c0.1-0.2,0.3-0.5,0.4-0.7c0.2-0.2,0.4-0.4,0.7-0.5c0.2-0.1,0.5,0,0.7,0.1c0.4,0.1,0.8,0.3,1.1,0.6c0.7,0.7,1.1,1.6,1.5,2.5
		c0.3,0.9,0.5,1.9,0.9,2.8c0.5,1.3,1.1,2.5,2,3.6c0.7,0.8,2,1.2,2.7,2.2c0.2,0.4,0.1,1,0.4,1.3c0.5,0.5,1.3,0.4,1.6,1.1
		c-0.2,1.4,0.3,2,0.9,2.7c3.6,0.4,8.6,0.4,12.2,0c0-0.7,0-1.5,0-2.2c-2-1.9-4.5-4.5-7.5-4.7c0.2,2,3,1.4,3.1,3.6
		c-1.6,0.6-3.1,0.1-5.3,0.2c-0.6-1.7-2-2.6-3.8-3.1c-2.6-4.8-5.6-9.2-9.5-12.7c1.5-3.1,0.5-7.2,2.2-9.1c2-2.2,5.2-3.5,6.2-6.2
		c0.2-1.1-0.1-2.7,0.7-3.3c0.2,0.1,0.3,0.1,0.5,0.2c0.6,0.3,1.2,0.6,1.8,0.7c0.3,0.1,0.7,0.2,1,0.2c0.2,0,0.3,0,0.5,0
		C66.9,125.7,67.1,125.7,67.3,125.7z"/>
	<path d="M145.1,94.3c-0.6,0.5-3.4,1.4-3.8,0c0.5-1.2,2.3-0.9,3.6-1.3C145.1,93.3,145.1,93.8,145.1,94.3z M119.8,108.8
		c2.1,0.7,4.4-0.3,6,0.2c2,0.6,2.9,3.7,4.7,5.1c1.6,1.2,3,1.9,5.6,1.6c-0.7-1.6-2.3-1.7-3.6-2.7c-0.6-0.4-1-1-1.5-1.5
		c-0.1-0.2-0.3-0.3-0.4-0.5c-0.3-0.4-0.7-0.7-0.9-1.1c-0.1-0.2-0.1-0.5-0.2-0.7c-0.1-0.3-0.2-0.5-0.3-0.8c-0.2-0.3-0.3-0.7-0.4-1
		c-0.2-0.3-0.4-0.5-0.6-0.7c-0.1-0.1-0.3-0.3-0.4-0.4c-0.1-0.1-0.2-0.2-0.3-0.2c-0.2,0-0.4,0-0.6,0c-0.4,0-0.8,0-1.1,0
		c-0.8,0-1.5,0-2.3,0c-0.3-2.6,2.8-1.7,4.2-2.7c0-0.2,0-0.4,0-0.7C123.4,102.3,120,104.5,119.8,108.8z M129.5,105.2
		c0.1,2.4,3.8,6.4,6.9,4.4c0,0,0-0.3,0-0.4c0-0.1-0.1-0.2-0.2-0.3c-0.2-0.2-0.4-0.2-0.6-0.3c-0.5-0.1-1,0.1-1.4-0.1
		c-0.5-0.1-0.8-0.4-1.2-0.7c-0.5-0.3-1-0.7-1.4-1c-0.5-0.5-1-1.1-1.4-1.7C130,105.2,129.7,105.2,129.5,105.2z M134,104.3
		c0,0.1,0.8,0.3,0.9,0.3c0.1,0,0.2,0.1,0.3,0.1c0.1,0,0.3,0,0.4,0c0.1,0,0.2,0.1,0.3,0.1c0.2,0,0.4,0,0.5,0.1
		c0.2,0.1,0.3,0.2,0.4,0.2c0.4,0.2,0.9,0.4,1.4,0.4c0.3,0,0.4,0,0.7-0.1c0.2,0,0.3,0,0.5-0.1c0.2,0,0.3-0.1,0.5-0.1
		c0.1,0,0.3,0,0.4-0.1c0.2-0.1,0.3-0.1,0.5-0.2c0.5-0.3,0.8-0.9,1-1.4c0,0.1-0.9,0-1,0c-0.3,0-0.6,0-0.9,0c-0.6-0.1-1.2-0.2-1.7-0.3
		c-0.2,0-0.4-0.1-0.6-0.1c-0.2-0.1-0.3-0.2-0.5-0.3c-0.2-0.1-0.4-0.2-0.6-0.3c-0.1-0.1-0.4-0.3-0.5-0.3
		C134.9,102.3,134.1,103.3,134,104.3z M139,93.1C139,93.1,139,93.1,139,93.1c0.1-0.1,0.2-0.1,0.3-0.1c0.1,0,0.1-0.1,0.2-0.1
		c0,0,0.1,0,0.1,0c0,0,0.1,0,0.1-0.1c0.1-0.1,0.2-0.1,0.2-0.1c0.5-0.3,0.9-0.5,1.4-0.8c0.5-0.3,0.9-0.6,1.3-0.9
		c0.4-0.3,0.8-0.7,1.3-1c0.4-0.3,0.8-0.7,1.2-1.1c1.6-1.4,3.3-3.1,6.4-2.9c0.5,0.5-0.1,0.6,0,1.3c1.1-0.1,2.1-0.2,2.7,0.7
		c-0.6,0.3-1.7,0.2-1.8,1.1c5.2,0,6.6,4.9,5.8,10.2c-0.1,0.9,1.1,1.4,0.4,2.2c-2.1-0.1-2.4-2.3-2.6-3.9c0-0.4-0.1-0.7-0.1-1
		c0-0.3,0-0.5,0-0.8c0-0.3,0-0.8-0.2-1c-0.1-0.1-0.3-0.2-0.4-0.1c-0.1,0.2-0.1,0.6-0.1,0.8c-0.1,1-0.1,2,0.1,3
		c0.3,1.7,1.1,3.4,2.7,4.2c0.9,0.4,1.9,0.5,2.9,0.5c0,1-0.8,1.2-1.1,2.2c-1.1,3.9,0.4,9.7-3.3,9.8c0.3-1.5,1.1-2.6,0.9-4.7
		c-0.5-1.1-2-1.1-2.2-2.4c0.3-1.1,1.5-1.3,1.8-2.4c-3.1-2.2-4.8-5.9-4.7-11.3c-0.4-0.5-1.1-0.8-1.6-1c-0.4-0.2-1.1-0.5-1.2-1
		c-0.1-0.4,0.2-1.1-0.3-1.3c-0.2-0.1-0.5,0.1-0.7,0c-0.8-0.3-0.7-1.4-1.3-1.6c-0.4-0.1-0.8,0.5-1.1,0.8c-0.5,0.4-1.1,0.8-1.6,1.2
		c-0.6,0.4-1.1,0.8-1.7,1.1c-0.3,0.2-0.6,0.3-0.9,0.5c-0.4,0.2-0.9,0.4-1.2,0.6c-0.1,0.1-0.3,0.2-0.4,0.3c-0.1,0-0.3,0.1-0.3,0.2
		c-0.3,0.7-1.4,0.2-2,0.4c-1.6,0.4-2.9,2.9-4.2,1.3c0-0.1,0.1-0.2,0.1-0.3c0.2-0.3,0.4-0.6,0.7-0.8c0.3-0.2,0.6-0.4,1-0.5
		c0.4-0.2,0.8-0.3,1.2-0.3c0.4-0.1,0.9-0.2,1.3-0.2c0.2,0,0.4-0.1,0.7-0.1c0.1,0,0.2,0,0.3,0c0,0,0.1,0,0.1,0
		C138.9,93.1,138.9,93.1,139,93.1z M138.8,101c0.6,0.1,0.3,1.2,0.7,1.6c1.4,0.1,2.6,0,3.3-0.7c0.2,0,0.4-0.1,0.5,0l0,0
		c-0.8,3.6-3.6,5.2-5.8,7.3c1.9,2.7,4.9,3.8,7.1,6.4c0.7,0.8,1.6,1.9,2,2.7c0.5,1,0.1,2.3,1.6,2.7c0.3-2.5-1.6-4.6-2.2-6.9
		c2.2,0.1,3.1,3,3.6,5.6c0.2,0.9,0.7,1.8,0.4,2.7c2.5-0.9,0.9-4.7,1.6-6.7c1.7,0.2,1.4,2.3,1.8,3.8c1.1-1.1,1.6-3.4,2-5.1
		c0.2-1.1,0.2-2.3,0.4-3.3c-2,0.1-1.4,2.8-2.9,3.3c-0.9-0.7-2.3-0.4-3.1,0.2c-1.3-1.4-1.6-3.6-3.1-3.8c-0.9-0.1-0.9,1.1-1.6,1.1
		c-1,0.1-2.3-2.9-3.8-2.9c0.1-0.9,1.3-0.8,1.8-1.3c0.1-0.1,0.2-0.1,0.2-0.2c0.1-0.1,0.2-0.1,0.2-0.2c0.1-0.2,0.3-0.3,0.4-0.5
		c0.3-0.4,0.5-0.9,0.7-1.3c0.2-0.5,0.3-1,0.4-1.6c0.1-0.6,0.2-1.1,0.2-1.7c0.1-0.6,0.1-1.2,0.1-1.8c0-0.3,0-0.6,0.1-0.9
		c0-0.2,0-0.3,0-0.5c0-0.1,0-0.3,0-0.4c0-0.1,0-0.2,0-0.3c0,0,0-0.1,0-0.1c0-0.1,0.1-0.1,0.1-0.2c0.1-0.1,0.2-0.2,0.3-0.3
		c0,0,0.1-0.1,0.2-0.1c0.1,0,0.1-0.1,0.2-0.1c0.1,0,0.1,0,0.2,0c0.1,0,0.2-0.1,0.3-0.1c0.4-0.3,0.4-0.8,0.4-1.2c0,0-0.4,0-0.4,0
		c-0.1,0-0.2,0-0.3,0.1c-0.2,0.1-0.4,0.2-0.5,0.3c-0.1,0.1-0.2,0.2-0.2,0.4c0,0.1-0.1,0.1-0.1,0.2c0,0.1-0.1,0.2-0.1,0.3
		c-0.1,0.1-0.1,0.2-0.2,0.3c-0.1,0.1-0.2,0.2-0.3,0.4c0,0.1-0.1,0.2-0.1,0.2c0,0-0.1,0.1-0.1,0.1c-0.1,0.1-0.2,0.2-0.2,0.3
		c-0.1,0.2-0.2,0.4-0.3,0.7c-0.2,0.5-0.3,1-0.5,1.5c0,0.1-0.1,0.1-0.1,0.2c0,0-0.1,0.1-0.1,0.1c-0.2,0-0.3,0-0.5,0
		c0-0.8,0-1.6-0.2-2.2c-2-0.8-6.1-1.2-7.3,0.4c-1.7,0.1-1.3-2-2.2-2.7C131.6,99.9,135.9,102.4,138.8,101z M172.6,103.7
		c-1.8-0.2-3.9,0.8-4.9,1.8c-1.9,1.7-4.2,5.8-4.7,9.1c-0.6,4.8,1.6,9.7,0.4,14c-0.4,1.7-1.9,2.6-2,4c1.1,0.3,2.4-0.1,3.6,0.4
		c1.7-4.7-1.5-10.6-0.7-17.1c0.6-4.7,4.1-6.6,9.1-7.8c0.5-1.5-0.8-2.4-2-2.9C171.6,104.5,172.7,104.7,172.6,103.7z M141.1,136.5
		c-0.1,0-0.3,0-0.4,0c-3.3,1.2-5.6,3.4-6.2,7.1c-0.2,0.9,0,1.9-0.2,2.9c-0.6,2.8-2.4,4.7-2.7,6.9c1.7-0.3,2.5-2,3.3-3.3
		c0.7-1.2,1.7-2.7,2.2-4.2c0.7-2,0.5-4.5,1.3-6.2C139.1,138.2,141.1,138.3,141.1,136.5z M135.3,117.5c-0.1,0-0.1,0.1-0.2,0.1
		c-0.3,0.1-0.5,0.1-0.8,0.3c-0.3,0.1-0.5,0.2-0.7,0.4c-0.5,0.3-1,0.5-1.5,0.8c-1,0.6-2,1.1-3,1.6c-2.3,1.1-4.8,1.6-7.3,1.2
		c-0.1-2.5,3.2-1.5,4.2-2.9c-1.6-1.1-4.4-0.1-5.8,1.1c-1.2,1-2,2.8-2.2,4.2c2.4,0.6,5.1,0.8,7.3,0.4c2.1-0.3,4.8-1.4,6.2-2.7
		c0.7-0.6,0.9-1.6,1.6-2.2c0.6-0.5,1.3-0.8,2-1.2c0.3-0.2,0.6-0.5,0.9-0.7c0.3-0.2,0.6-0.2,0.9-0.3c0.2-0.1,0.4-0.1,0.6-0.2
		c0.2-0.1,0.4-0.2,0.6-0.4c0.2-0.2,0.5-0.3,0.8-0.5c0.2-0.1,0.4-0.4,0.5-0.6c0.1-0.2,0-0.4-0.2-0.3c-0.1,0.1-0.2,0.2-0.3,0.2
		c-0.2,0.1-0.4,0.2-0.6,0.2c-0.6,0.3-1.3,0.5-1.9,0.8c-0.2,0.1-0.5,0.3-0.7,0.4C135.4,117.4,135.4,117.4,135.3,117.5z M158.4,136.3
		c-0.1-4.1-6.4-5.1-7.3-9.1c-0.4-1.8-0.2-4.6,1.3-6.4c1,1.2-0.2,2.2,0,3.6c0.5,4.8,8.6,6,8.4,11.3c0,0,0.2,0.1,0.2,0.1
		c0.1,0,0.2,0,0.2,0c0.2,0,0.3-0.1,0.4-0.2c0.2-0.1,0.4-0.3,0.5-0.4c0.2-0.1,0.3-0.2,0.5-0.3c0.2-0.1,0.4-0.2,0.6-0.4
		c0.1-0.1,0.3-0.3,0.5-0.3c0.2,0,0.3,0.1,0.3,0.2c0,0.2-0.1,0.4-0.2,0.6c-0.2,0.3-0.4,0.5-0.6,0.7c-0.2,0.2-0.3,0.4-0.5,0.5
		c-0.4,0.3-0.8,0.5-1.2,0.8c-0.5,0.3-0.9,0.7-1.2,1.2c-0.6,1.1-0.8,2.4-0.8,3.6c0,1.5,0.2,3,0.3,4.5c0.1,0.9-0.1,3.3,0.3,4.3
		c-0.8,1.4-1.7,2.8-2.6,4.1c0-0.1,0-0.1,0-0.2c-0.3-2.9-0.6-5.8-0.8-8.7c-0.1-1.8-0.1-3.6,0.2-5.4
		C157.3,139.1,158.4,137.8,158.4,136.3z M147.5,157.4c1.4-1,3.1-2.8,4.9-2.4c-0.1,2.1-3.1,1.4-3.1,3.6c0,0.1,0.4,0.3,0.5,0.3
		c0.2,0.1,0.5,0.1,0.7,0.1c0.6,0,1.1,0,1.7,0c0.4,0,0.8,0.1,1.2,0.1c0.3,0,0.6,0,0.9,0c0.1,0,0.3,0,0.4,0c-0.7,1-1.4,2-2.2,2.9
		c0,0-0.1,0-0.1,0c-0.8,0.1-1.7-0.1-2.5,0.1c-0.5,0.1-0.9,0-1.4,0.1c-0.4,0-0.8,0.1-1.2,0.1c-0.4,0-0.8,0-1.2,0
		c-0.2,0-1.2,0-1.3-0.2C143.9,159.5,146.1,158.5,147.5,157.4z M133.3,125.7c0.2,0,0.3,0,0.5,0c0.3,0,0.7-0.1,1-0.2
		c0.6-0.2,1.2-0.4,1.8-0.7c0.2-0.1,0.3-0.1,0.5-0.2c0.7,0.6,0.5,2.2,0.7,3.3c1,2.7,4.2,4,6.2,6.2c1.7,1.9,0.7,6,2.2,9.1
		c-3.9,3.5-7,7.9-9.5,12.7c-1.8,0.5-3.2,1.4-3.8,3.1c-2.2-0.1-3.7,0.4-5.3-0.2c0.1-2.1,2.9-1.5,3.1-3.6c-3,0.1-5.5,2.8-7.5,4.7
		c0,0.7,0,1.5,0,2.2c3.6,0.4,8.6,0.4,12.2,0c0.6-0.6,1.1-1.3,0.9-2.7c0.3-0.8,1.1-0.6,1.6-1.1c0.3-0.4,0.2-1,0.4-1.3
		c0.7-1,2-1.5,2.7-2.2c0.9-1.1,1.5-2.3,2-3.6c0.4-0.9,0.6-1.8,0.9-2.8c0.3-0.9,0.7-1.9,1.5-2.5c0.3-0.3,0.7-0.5,1.1-0.6
		c0.2-0.1,0.5-0.2,0.7-0.1c0.3,0.1,0.5,0.3,0.7,0.5c0.2,0.2,0.3,0.5,0.4,0.7c0.1,0.1,0.2,0.3,0.3,0.4c0.1,0.1,0.3,0.2,0.4,0.3
		c0.3,0.3,0.6,0.6,0.8,0.9c0.6,0.6,1.1,1.2,1.6,1.8c0.3,0.4,0.6,0.7,1,1c0.2,0.2,0.3,0.3,0.5,0.5c0.1,0.1,0.2,0.2,0.2,0.2
		c0,0,0.2,0.2,0.2,0.2c0.1,1.6-0.6,2.8,0.4,3.6c1.5-0.8,1.7-3,1.1-5.1c-1-3.5-5.2-5.3-6.2-8.7c-0.7-2.5-0.3-4.6-1.1-6.4
		c-1.7-3.8-6.4-6.2-8.4-9.8c-0.5-1.9,1-3.7,0-4.7c-0.2,0-0.4,0-0.7,0c0,0-0.2,0.4-0.2,0.4c-0.1,0.1-0.2,0.3-0.3,0.4
		c-0.2,0.3-0.4,0.5-0.6,0.7c-0.4,0.5-0.9,0.9-1.4,1.2c-0.5,0.3-0.9,0.6-1.4,0.8c-0.5,0.2-1.1,0.6-1.6,0.6c-0.1,0-0.2,0-0.4,0.1
		c-0.1,0-0.2,0-0.3,0c-0.2,0.1-0.4,0.4-0.2,0.6c0.2,0.2,0.6,0.1,0.8,0.1C132.9,125.7,133.1,125.7,133.3,125.7z"/>
	<path d="M86.2,150.3c-2.7,0-4.9-2.2-4.9-4.9v-1.9c0-1.3,1.1-2.9,2.4-2.9c0.6,0,1.1,0.5,1.1,1.1v0.3c0,1,1.6,1.8,2.6,1.8h25.1
		c1,0,2.6-0.8,2.6-1.8v-0.3c0-0.6,0.5-1.1,1.1-1.1c1.3,0,2.4,1.6,2.4,2.9v1.9c0,2.7-2.2,4.9-4.9,4.9H86.2z M161.2,55.6
		c0-1.3-0.5-1.9-1.2-1.9c-0.7,0-10.1,0-11.2,0c-1.5,0-3.1,1.4-3.1,3.1c0,1.7,2.2,3.1,3.1,3.1c0.5,0,2.1,0,3.2,0
		c0.7,0,1.3,0.6,1.3,1.3c0,1.2-1,2.2-2.2,2.2h-1.8h-0.7c-0.6,0-1.1,0.5-1.3,1.1c-0.1,0.2-0.1,0.4-0.2,0.6
		c-2.7,6.7-17.6,26.4-42.7,28.8c0-1.4-0.1-2.8-0.1-4.3c23.9-2.4,40.5-27.8,40.5-34c0-1.3-0.5-1.9-1.2-1.9c-0.7,0-10.1,0-11.2,0
		c-1.5,0-3.1,1.4-3.1,3.1c0,1.7,2.2,3.1,3.1,3.1c0.5,0,2.1,0,3.2,0c0.7,0,1.3,0.6,1.3,1.3c0,1.2-1,2.2-2.2,2.2h-1.8h-0.7
		c-0.6,0-1.1,0.5-1.3,1.1c-0.1,0.2-0.1,0.4-0.2,0.6c-3.8,6.4-11.6,13.2-26.6,14.4l0,0c0-1.3-0.1-2.6-0.1-3.8l0,0
		c13.6-1.9,24-13.9,24-20.1c0-1.3-0.5-1.9-1.2-1.9s-10.1,0-11.2,0c-1.5,0-3.1,1.4-3.1,3.1c0,1.7,2.2,3.1,3.1,3.1c0.5,0,2.1,0,3.2,0
		c0.7,0,1.3,0.6,1.3,1.3c0,1.2-4.5,5.7-16.2,6.3l0,0c-0.1-3.5-0.1-5.9-0.1-6.2c0-1.4,4.8-2.4,4.8-4.8c0-1.5-1.7-2.7-2.7-2.7H94.2
		c-1,0-2.7,1.3-2.7,2.7c0,2.4,4.8,3.4,4.8,4.8c0,0.3,0,2.7-0.1,6.2C84.4,66.9,80,62.4,80,61.2c0-0.7,0.6-1.3,1.3-1.3
		c1.1,0,2.6,0,3.2,0c0.9,0,3.1-1.4,3.1-3.1s-1.6-3.1-3.1-3.1c-1.1,0-10.6,0-11.2,0s-1.2,0.6-1.2,1.9c0,6.2,10.4,18.2,24,20.1
		c0,1.2-0.1,2.5-0.1,3.8l0,0c-15-1.2-22.8-8-26.6-14.4c-0.1-0.2-0.1-0.4-0.2-0.6c-0.2-0.6-0.7-1.1-1.3-1.1h-0.7h-1.8
		c-1.2,0-2.2-1-2.2-2.2c0-0.7,0.6-1.3,1.3-1.3c1.1,0,2.6,0,3.2,0c0.9,0,3.1-1.4,3.1-3.1s-1.6-3.1-3.1-3.1c-1.1,0-10.6,0-11.2,0
		s-1.2,0.6-1.2,1.9c0,6.2,16.6,31.7,40.5,34l0,0c0,1.4-0.1,2.9-0.1,4.3l0,0c-25.1-2.4-40-22.1-42.7-28.8c-0.1-0.2-0.1-0.4-0.2-0.6
		c-0.2-0.6-0.7-1.1-1.3-1.1h-0.7h-1.8c-1.2,0-2.2-1-2.2-2.2c0-0.7,0.6-1.3,1.3-1.3c1.1,0,2.6,0,3.2,0c0.9,0,3.1-1.4,3.1-3.1
		s-1.6-3.1-3.1-3.1c-1.1,0-10.6,0-11.2,0c-0.7,0-1.2,0.6-1.2,1.9c0,6.2,25.7,46,56.6,48.4l0,0c-0.1,2.4-0.1,4.5-0.2,6.1
		c-0.4,10.7-1,17-7.7,23.7c-0.8,0.8-1.8,1.8-1.8,3.7c0,2.7,1.1,3.5,1.8,3.5h25.1c0.7,0,1.8-0.9,1.8-3.5c0-1.9-0.9-2.9-1.8-3.7
		c-6.6-6.6-7.2-13-7.7-23.7c-0.1-1.5-0.1-3.6-0.2-6.1l0,0C135.5,101.6,161.2,61.8,161.2,55.6z"/>
	<g>
		<g>
			<path d="M85.6,157.8c3.9,2.3-0.5,6.5-4.7,4.7c0.6-2.3-0.1-6,0.2-8C84.2,153.2,88.7,155.6,85.6,157.8z M82.9,157.6
				c1.3,0.1,2-0.4,2-1.6C84.1,154.5,81.7,155.9,82.9,157.6z M84.5,158.7c-2.4-0.7-1.9,2.2-1.3,3.1C85.5,162.2,85.9,159.6,84.5,158.7
				z"/>
			<path d="M93.1,155.8c-0.9,0-1.8-0.9-2.7-0.2c-0.5,0.2-0.1,1.4-0.2,2c0.6,0.4,1.9,0.1,2.9,0.2c-0.1,1.1-1.4,1.2-2.7,1.1
				c-0.4,0.7-0.4,2.5,0.2,2.9c1.4,0.3,2.2-0.9,3.1-0.4c0,0.4,0,0.7,0,1.1c-1.3,0.4-4,0.4-5.3,0c-0.2-1.7,0.3-5.7-0.2-7.8
				C90.1,154.5,93.7,153.4,93.1,155.8z"/>
			<path d="M97.1,154.5c0.1,2.6-0.2,5.7,0.2,8c-0.4,0.3-1.8,0.3-2.2,0c0.8-2.2,0.3-5.4,0-7.8C95.5,154.4,96.4,154.6,97.1,154.5z"/>
			<path d="M105.3,154.7c0.1,1.3-1.3,1.1-2.2,0.9c-0.9,1.6-0.4,5.2-0.2,7.1c-0.7,0-1.6,0.2-2-0.2c0.4-1.8,0.1-4.3,0.2-6.4
				c-0.6-0.9-2.1,0.4-2.7-0.7C99.1,153.7,103.6,154.6,105.3,154.7z"/>
			<path d="M108.2,154.5c2.1-0.3,2.4,2.3,2.9,3.6c0.6,1.6,1.4,3.2,1.8,4.7c-2.6,0.5-2-2.3-3.1-3.3c-0.9,0.4-1.5-0.2-2.2,0.2
				c-0.8,0.7-0.9,2.1-1.3,3.1c-0.6,0-1.5,0.1-1.8-0.2C106,160.1,107.1,157.3,108.2,154.5z M108,158.3c0.3,0.3,1,0.3,1.3,0
				c0-0.7-0.2-1.3-0.9-1.3C108.3,157.4,108.1,157.8,108,158.3z"/>
			<path d="M118,159c0.6,1.6,2,2.3,2.7,3.8c-2.7,0.9-3-2.4-4.7-3.3c-0.7,0.4,0,2.1,0,3.1c-0.7,0.5-1.5,0.5-2.2,0
				c0.6-2.3,0.2-5,0-7.5c2-1,5.6-0.6,5.8,1.3C119.7,157.5,118.4,157.6,118,159z M115.6,157.8c1.1,0.8,2.2-0.2,2.2-1.3
				C116.8,154.8,115,156,115.6,157.8z"/>
		</g>
		<g>
			<path d="M71.1,167.2c-0.8,3,1,9.8-2.2,9.5c0.3-2.8,0.4-6.8,0-9.5C69.5,166.6,70.6,166.6,71.1,167.2z"/>
			<path d="M77.8,168.1c-0.9,0.6-1.4-0.6-2.7-0.2c-0.8,0.1-0.3,1.5-0.4,2.2c0.7,0.5,2.1-0.5,2.9,0.2c0,1.2-1.4,1.1-2.7,1.1
				c-0.4,0.6-0.2,2,0,2.7c1.5,0.3,2.6-0.8,3.6-0.2c0.2,2.2-4.7,1.4-5.8,0.9c0.4-2.2,0.3-5.3,0-7.5C74.3,167.2,77.7,165.8,77.8,168.1
				z"/>
			<path d="M79.8,166.9c2.5,0,5.3-0.5,5.6,1.6c0.1,0.9-0.6,1.9-1.8,2.4c0.6,1.8,2.4,2.4,2.9,4.2c-2.6,0.7-3.1-2.5-4.7-3.6
				c-0.8,0.5,0,2.2,0,3.3c-0.4,0.4-1.3,0.2-2,0.2C79.8,172.5,79.7,168.9,79.8,166.9z M81.8,170.5c1-0.1,1.6-0.6,1.6-1.8
				c-0.3-0.5-0.6-1-1.6-0.9C81.5,168.3,81.5,170,81.8,170.5z"/>
			<path d="M89.1,167.2c-0.2,2.5-1,7,1.3,7.1c2.6,0.2,2.3-4.5,1.6-7.1c0.6-0.2,1.2-0.3,2-0.2c0.4,2.3,0.4,6.1,0,8.4
				c-1.8-0.8-2.8,0.2-5.1,0c-2.6-0.8-1.4-5.4-2-8.2C87.4,166.7,88.6,167,89.1,167.2z"/>
			<path d="M100.9,168.5c-1.3-0.3-2.6-1.2-3.3,0.2c0.5,2.5,3.8,1.6,3.8,4.2c0,2.3-3.2,3.3-5.8,2c0-0.5,0-1,0-1.6
				c1.1,0.4,3.3,1.8,4,0c-0.2-2.1-5.9-2.8-3.3-5.8C97,166.7,101,165.9,100.9,168.5z"/>
			<path d="M110.2,175.2c-2.3,1.1-2.2-2-3.1-3.1c-3.2-0.8-3.1,1.7-3.8,3.3c-0.5,0-1,0-1.6,0c0.1-1.5,1.2-2.6,1.8-3.8
				c0.6-1.2,1.1-2.7,1.6-4.2c0.1-0.2,0.4-0.2,0.4-0.4c0.7-0.2,0.8,0.2,1.3,0.2C108,169.8,109,172.6,110.2,175.2z M105.3,170.9
				c0.4,0,0.9,0,1.3,0c-0.1-0.8-0.3-1.5-0.9-1.8C105.6,169.7,105.3,170.1,105.3,170.9z"/>
			<path d="M111.1,167.2c0.6,0,1.2,0,1.8,0c0.2,1.7-0.1,4.5,0,6.9c0.9,0.9,2.3-0.3,3.1,0c0.3,2.6-3.4,1.2-4.9,1.1
				C111.6,172.8,111.2,168.9,111.1,167.2z"/>
			<path d="M117.3,167.2c1.7,0.4,5.1-1,4.9,1.3c-0.8-0.2-1.8-0.3-2.9-0.2c-0.5,0.2-0.1,1.4-0.2,2c0.6,0.5,2.3-0.1,2.9,0.4
				c-0.1,1.2-1.7,1-2.9,1.1c0,1-0.2,2.3,0.4,2.7c1.3,0.1,2-0.5,3.3-0.4c0.2,2.6-4.6,1.4-5.6,1.1
				C117.4,172.1,117.4,170.2,117.3,167.2z"/>
			<path d="M128.4,172.3c1.9-1.1,1.2-5.8,4.4-4.9c0,2.8-0.2,5.8,0.4,8c-0.5,0.4-1.7,0.2-2.2,0c0.3-1.5,0.2-3.3,0.2-5.1
				c-1.6,1.1-1.6,3.7-2.9,5.1c-1.6-0.9-1.3-3.6-2.7-4.7c-0.8,1.3,0.4,4.2-0.4,4.9c-0.4,0-0.7,0-1.1,0c-0.2-2.1,0.4-6.1,0.2-8.2
				C127.4,166.5,127.1,170.8,128.4,172.3z"/>
		</g>
		<g>
			<path d="M109.1,180.1c0.2,0.6,0.4,1.7,0,2.2c-1.4,0.4-1.3-1.1-2.4-1.3c-5.2-0.9-5.3,9.2,0.4,8.7c0.9-0.1,1.3-1,2.7-0.9
				c-1.5,5-8.5,2.9-9.3-1.6c-0.2-1.1,0.2-2.1,0-3.6C101.5,180.5,105.4,178.5,109.1,180.1z"/>
			<path d="M99.8,180.1c0,0.6,0.1,1.3-0.2,1.6c-1.1-0.4-2-0.9-3.8-0.7c-0.5,0.8-0.1,2.4-0.2,3.6c1,0.6,3.3-0.1,4,0.2
				c-0.4,1.4-2,1.6-3.8,1.6c-0.4,1.2,0,3.5,0.2,4.9c-0.6,0.4-2.3,0.4-2.9,0c0.4-3.3,0.2-8.7,0-11.3
				C94.9,179.5,98.3,179.4,99.8,180.1z"/>
		</g>
	</g>
	<g>
		<path class="st1" d="M49.8,23.1c1,1.9-0.1,5.9,0.9,7.8c3.1,0.5,6.2-0.3,6.9,2.2c1.1,3.9-2.2,6.8-5.3,7.5c3.7,6,12.2-4.5,8.7-10.4
			c-1.3-2.2-3.7-1.6-6.9-2.4c0.1-2,0.1-3.8-0.9-4.7C52.4,22.8,50.6,22.7,49.8,23.1z"/>
		<path class="st1" d="M127.1,24.6c1.2,2.5-0.4,5.3-0.4,7.1C130.5,31.9,131.2,23.2,127.1,24.6z"/>
		<path class="st1" d="M131.1,24.6c0.4,1.3,0.2,3.1,0.2,4.7c-0.2,0.7-1.2,1.5-0.7,2.2C134.4,32.4,135.6,23,131.1,24.6z"/>
		<path class="st1" d="M137.1,30.4c0.4,0.6,2.1-0.2,2.2,0.7c-1.5,1.4-1.1,4.7-1.1,7.5c-0.3,0.9-2.1,0.2-2.4,1.1c0.1,1.5,1,2.3,2,2.4
			c5.7,1,4.2-7.5,4.4-11.3c1.2-0.3,3.9-0.6,4.2,0.7c0.5,2.9,0,7.8,0.2,10.4c1.4,0.5,2.9-0.5,3.8-1.3c-0.2-3,0.7-7.9,0-10.7
			c-1.1-4.4-9.6-0.9-14-2.7C135.9,28.4,136.8,29.4,137.1,30.4z"/>
		<path class="st1" d="M157.3,34.8c-0.3-2.2,0.6-4.9-0.4-6.4c-0.7-1-3-1.8-4.2-0.4c-0.1,0.7,0.7,1.4,0.9,2.7c0.3,2-0.2,4.6-0.2,6.4
			C155,37.5,156.4,36,157.3,34.8z"/>
		<path class="st1" d="M160.4,30.6c1.5,0,3,0,4.4,0c1.8,0.8,1.6,3.6,1.6,6.2c-0.6,2.1-3.1,2.2-6,2c-0.7,0.7-1.4,1.4-1.3,2.9
			c2.8,0,7.7,0.2,10.9-0.2c0.5-0.7,1.1-1.4,1.1-2.7c-0.4-0.5-1.9,0.5-2.4-0.2c0.5-1.2,1.4-2.3,1.6-3.8c0.2-2-0.3-4.8-1.3-6
			c-2.1-2.4-6.1-0.7-9.8-1.6C159.2,28.7,159.6,29.9,160.4,30.6z"/>
		<path class="st1" d="M124.4,36.4c-0.1-2.7,0.1-5.9-0.7-7.1c-1.5-2.2-7.8-1.5-9.8-1.6c-0.2,1.4,0.4,2,0.7,2.9c1.5,0.5,4,0,5.3,0.7
			c1.2,2.6,0.6,8.6,0.7,10.9C124.6,42.4,124.6,39.8,124.4,36.4z"/>
		<path class="st1" d="M43.8,28.2c-0.1,0.9,0.7,1.4,0.9,2.4c0.4,2.4-0.4,5.3,0.2,6.9C50.6,38.3,49.6,24.8,43.8,28.2z"/>
		<path class="st1" d="M63.2,28.2c0.2,1.5,0.7,1.7,0.9,2.7c0.5,3.3-0.8,6.8,1.6,9.5c3.6,4.1,13.7,2.4,14.7-3.3
			c0.4-2.6-0.3-4.8,0-7.8c-0.7-1.2-3-2.2-4.7-1.1c0,0.8,0.7,1.2,0.9,2.2c0.3,1.8-0.3,4.4,0,6.4C76,40.2,68.8,41,68,37.3
			c5.1,2.7,7.3-4.5,5.3-8.9c-1-0.5-2.9-1.1-4-0.2c0.9,1.8,2.1,7.6-1.3,7.5C67.9,31.9,67.9,25.9,63.2,28.2z"/>
		<path class="st1" d="M86.9,35.3c-0.2-5.5,0.3-8.4-4.4-7.3c0,0.2-0.2,0.3-0.2,0.4c1.8,3.2,0.8,10,1.1,14
			C87.5,42.4,87.1,39.4,86.9,35.3z"/>
		<path class="st1" d="M89.6,30.8c1.1,0.5,3.2,0.1,4.7,0.2c1.9,2.3,0.3,8.6,1.1,11.3c1.4-0.1,2.4-0.7,3.3-1.3
			c0.4-2.7,0.6-6.9,0.2-9.5c-0.6-4.8-5.8-3.1-10.4-3.8C88.5,29.1,88.8,30.2,89.6,30.8z"/>
		<path class="st1" d="M100.9,28c-0.3,0.8,0.7,1.4,0.9,2.7c0.4,2.2-0.4,5.2,0,6.9C107.2,38.5,107.4,25.1,100.9,28z"/>
		<path class="st1" d="M29.2,41.9c3.6,0.4,8.8,0.4,12.4,0c0.5-2.8,0.9-8.8,0-11.3c-1.5-4.2-8.1-1.4-12.9-2.9
			C29.2,31.2,29.6,37.6,29.2,41.9z M37.2,31.1c1.6,1.4,1,5.1,1.1,8c-1.3,0.5-3.5,0.1-5.1,0.2c-0.4-2.4-0.5-5.1-0.4-8
			C33.8,30.8,35.7,31.2,37.2,31.1z"/>
	</g>
</g>
</svg>
