<?xml version="1.0" encoding="utf-8"?>
<!-- Generator: Adobe Illustrator 21.1.0, SVG Export Plug-In . SVG Version: 6.00 Build 0)  -->
<svg version="1.1" id="Layer_1" xmlns="http://www.w3.org/2000/svg" xmlns:xlink="http://www.w3.org/1999/xlink" x="0px" y="0px"
	 viewBox="0 0 200 200" style="enable-background:new 0 0 200 200;" xml:space="preserve">
<style type="text/css">
	.st0{fill:#EF5A20;}
</style>
<g>
	<path class="st0" d="M28.8,142l-13.8-12.4l-0.3,10.3l-10.5-0.3c18.6,21.9,33.5,33.8,40.9,30.8l5.4-9.4L28.8,142L28.8,142z"/>
	<path d="M27.8,143.1l-11.5-10.3l-0.2,7.2l0,1.4l-1.4,0l-7.3-0.2c1.9,2.2,3.7,4.2,5.5,6.1c2.4,2.7,4.8,5.1,7,7.3
		c10.9,10.7,19.4,16.1,24.3,14.7l4.6-7.9L27.8,143.1L27.8,143.1L27.8,143.1z M15.9,128.6l13.8,12.4l0,0l21.6,19l0.9,0.8l-0.6,1
		l-5.4,9.4l-0.2,0.4l-0.4,0.2c-5.9,2.4-15.6-3.3-27.7-15.1c-2.3-2.3-4.7-4.7-7.1-7.4c-2.5-2.7-5-5.6-7.6-8.7h0l0,0l-2-2.4l3.2,0.1
		l9.1,0.3l0.3-8.8l0.1-3.1L15.9,128.6L15.9,128.6z"/>
	<polygon points="44.2,169.2 26.2,148.1 28.3,146.2 46.4,167.3 	"/>
	<path class="st0" d="M171.2,141.7l13.8-12.4l0.3,10.3l10.5-0.3c-18.6,21.9-33.5,33.8-40.9,30.8l-5.4-9.4L171.2,141.7L171.2,141.7z"
		/>
	<path d="M170.3,140.6l13.8-12.4l2.3-2l0.1,3.1l0.3,8.8l9.1-0.3l3.2-0.1l-2,2.4l0,0h0c-2.6,3.1-5.2,6-7.6,8.7
		c-2.5,2.7-4.8,5.1-7.1,7.4c-12.1,11.9-21.8,17.5-27.7,15.1l-0.4-0.2l-0.2-0.4l-5.4-9.4l-0.6-1l0.9-0.8L170.3,140.6L170.3,140.6
		L170.3,140.6z M183.7,132.4l-11.5,10.3l0,0L151.4,161l4.6,7.9c4.8,1.4,13.3-4,24.3-14.7c2.2-2.2,4.6-4.6,7-7.3
		c1.8-1.9,3.6-4,5.5-6.1l-7.3,0.2l-1.4,0l0-1.4L183.7,132.4L183.7,132.4z"/>
	<polygon points="153.6,167 171.7,145.9 173.8,147.8 155.8,168.9 	"/>
	<path class="st0" d="M61.4,27.3L45.5,42.4C61.2,76.2,54,107,27.4,146.9c47.3,34.3,96.7,35.5,145.4,0
		c-26.5-39.9-33.7-70.7-18.1-104.5l-15.9-15.1C113,42.2,87.2,42.2,61.4,27.3L61.4,27.3z"/>
	<path d="M61.6,29L47.2,42.7c7.7,16.9,9.7,33,6.5,49.9c-3.1,16.8-11.4,34.3-24.4,53.9c6.2,4.4,12.5,8.3,18.7,11.6
		c6.6,3.5,13.3,6.3,20,8.4c33.9,10.9,68.5,4.6,102.9-20c-12.9-19.6-21.2-37.1-24.3-53.9c-3.2-16.9-1.1-33.1,6.5-49.9L138.6,29
		c-3.4,1.9-6.7,3.6-10.1,5c-3.7,1.5-7.4,2.8-11,3.7C98.8,42.5,80.2,39.6,61.6,29L61.6,29z M44.5,41.4l15.9-15.1l0.8-0.7l0.9,0.5
		c18.3,10.6,36.5,13.6,54.7,8.9c3.6-0.9,7.1-2.1,10.6-3.6c3.6-1.5,7.1-3.3,10.7-5.3l0,0l0.9-0.5l0.8,0.7l15.9,15.1l0.7,0.7L156,43
		c-7.7,16.6-9.8,32.5-6.7,49.1c3.1,16.7,11.5,34.2,24.7,54l0.8,1.1l-1.1,0.8c-35.5,25.8-71.3,32.4-106.5,21.1
		c-6.8-2.2-13.6-5.1-20.4-8.6c-6.8-3.5-13.5-7.7-20.2-12.5l0,0c0,0,0,0,0,0l-1.1-0.8l0.8-1.1c13.2-19.8,21.6-37.3,24.7-54
		c3.1-16.6,1-32.5-6.8-49.1l-0.4-0.9L44.5,41.4L44.5,41.4z M26.6,148.1L26.6,148.1C26.6,148.1,26.6,148.1,26.6,148.1L26.6,148.1
		C26.6,148.1,26.6,148.1,26.6,148.1L26.6,148.1z M28.2,145.8C28.2,145.8,28.2,145.8,28.2,145.8L28.2,145.8L28.2,145.8z M26.6,148.1
		C26.5,148,26.5,148,26.6,148.1L26.6,148.1L26.6,148.1z"/>
	<path d="M40.9,134.6c19.2,11.5,38.4,17.4,57.4,17.9c-9.8-6.8-19.8-11.4-30.1-14.2C59.3,135.8,50.1,134.7,40.9,134.6L40.9,134.6z
		 M100.3,155.3c-21.6-0.1-43.3-7-65.1-20.9l0.7-2.6c11.2-0.4,22.2,0.7,33,3.7c10.6,2.9,20.9,7.6,31.1,14.7c9.2-6.2,19-10.9,29.5-14
		c10.8-3.2,22.3-4.6,34.6-4.1l0.7,2.6C143.4,148.5,121.9,155.4,100.3,155.3L100.3,155.3z M101.7,152.5c19.2-0.2,38.4-6.1,57.5-17.6
		c-10.2,0-19.8,1.4-28.9,4.1C120.2,142,110.7,146.5,101.7,152.5L101.7,152.5z"/>
	<polygon points="59.9,60.3 64.7,68.5 59.9,77.2 69.9,77.2 74.5,85.6 79.5,77.2 89.7,77.2 84.5,68.5 89.7,60.3 79.6,60.3 74.8,51.8 
		69.9,60.3 	"/>
	<path d="M114.4,48.5c2.4,0.1,2.2-3.4,5.8-1.5c3.5,2.2,5.8,6.3,9,9c2.4,14.1,0.9,16.5-3.4,21.7c-3,18.3-2.9,28.8,7.5,24.4
		c0.5-10.5,2-17.9,2.3-29.5c-2.6-7.9-1.4-9.2,3.8-15.3c-1.1,6.4,4.4,11.5-0.4,16c-1.1,8.5-0.6,17-0.9,25.5c-0.4,9.7-4.5,7-6.8,10.5
		l4.1,19.4l-3,6.5h-16.7c0.7-2.2,2.1-4,3.7-5.5l5.5-1.8l-1-5c-3.7-0.5-7.1-1.9-10.2-4l-7.5,5.9l0.5,5.7l-4,4.8H88.5l0.1-3.7l8.1-6.1
		l0.6-10.6c3.1-3.4,5.8-7.2,9.2-10.1l-1-3.5l-13.5,3.5l-2.9,2.9l0.5,2.2l-6.8,1c-0.5-1.5-1.3-3.3-2.4-5.1C76,102,68.1,102,60,104.6
		L55.7,98c8.6-4.8,17.5-6,26.7-0.7c2-1.6,4.6-1.3,7.9-0.2l9.6-6.5c-2.8-2.2-4.9-6.3-8.5-9.5c-2.9-0.1-4.4-0.9-5-3.5l-1.5-7.3
		l1.2-0.2c2.3-4.6,4.2-3.4,6.8,2.4c3.1,3.4,6.2,5.3,8.8,6.8c0.4-4.2,1.7-8,4.1-10.3c-3.1-1.3-3.6-2.8-1.5-5c-5.5-1.2-8.9-3-6.9-6.1
		c1.9-1.8,4.5,2.8,5.6,0.6c-4.1-3.3-3.6-5.5,1.5-6.6C108.5,51.2,107.3,44.7,114.4,48.5L114.4,48.5z"/>
	<path d="M50.5,124.1l4.6-2.4c1.2,1.8,2.6,3.3,4.1,4.5l-3.7,4L50.5,124.1L50.5,124.1z"/>
	<path d="M49.1,120.7l6.6-0.6c-0.4-2.5-0.4-4.9,0.1-7.4l-6.9-1.4C48.8,111.3,49.1,120.9,49.1,120.7L49.1,120.7z"/>
	<path d="M56,111c0.5-2,1.4-3.8,2.6-5.2l-5.4-4.3l-3.4,8.3L56,111L56,111z"/>
	<path d="M61.1,125.9c5.7,2.9,11.6,3,17.7,0.2l4.9,6.3c-8,5.2-17.1,5.4-27.6,0.8L61.1,125.9L61.1,125.9z"/>
	<path d="M80.2,126.2l3.9,4.6c1.4-2.5,3-4.7,4.8-6.6l-4.9-2.4C82.8,123.6,81.6,125,80.2,126.2L80.2,126.2z"/>
	<polygon points="83.2,112.2 90.1,111.6 90,121.2 83.9,120.5 	"/>
	<polygon points="64.1,108.1 63.7,106.3 59.9,106.7 58.8,109.8 57.9,112.2 57.6,115 57.8,116.8 60.1,124.3 64.9,125.5 63.9,114.7 	
		"/>
	<polygon points="64.4,107.4 65.7,105.3 68.9,105.7 70.9,107.4 74.1,119.5 73.2,125.1 70.4,125.9 66.8,123.5 65.6,115 	"/>
	<polygon points="75,106.2 75.2,115.8 73.7,123.9 75.4,125.7 79.4,124.4 81.2,116 79.2,106.9 	"/>
	<path d="M39.8,140.9l2.4-0.4l1.1,5.8c2.2,0.4,3.6-0.6,4.4-3l2.3,2.2c-1.6,1.6-2.1,3.2-5.8,3.6l1,5l-2.6,0.3l-1.2-6.1
		c-2.7-0.9-3,1.2-4.5,1.9l-1.7-2c2.3-1.8,2.3-3.2,5.4-2.6L39.8,140.9L39.8,140.9z"/>
	<path d="M52.8,146.2c1,0,1.7,0.7,1.7,1.6c0,0.9-0.8,1.7-1.7,1.7c-1,0-1.7-0.7-1.7-1.7C51.1,147,51.9,146.2,52.8,146.2L52.8,146.2z"
		/>
	<polygon points="51.6,155.5 54.5,156.2 57.7,149.3 67.1,153.4 63.5,163.1 61,162.2 63.9,154.9 59,152.7 55.7,159.6 51,157.8 	"/>
	<polygon points="79.4,156.1 79.1,158.5 86.5,159.4 85.7,167.9 88.6,168.3 89.7,157.3 	"/>
	<polygon points="79,160.4 81.3,160.6 80.7,167.1 78.4,166.8 	"/>
	<polygon points="111,157 111.1,159.4 118.6,158.9 119.4,167.4 122.3,167.2 121.3,156.2 	"/>
	<polygon points="111.4,161.2 113.6,161 114.4,167.5 112,167.6 	"/>
	<polygon points="91.4,157.3 91.1,160 98.1,160.4 97.6,168.8 100.4,169.1 101,158 	"/>
	<polygon points="104.8,157.8 107.3,157.6 107.7,169 105.1,169.1 	"/>
	<path d="M124.3,155.7l2.7-0.7l1.9,6.7l-2.5,0.7C126.3,162.4,124.3,155.6,124.3,155.7L124.3,155.7z"/>
	<polygon points="130.1,156 130.9,158.3 137,156.2 136.2,153.6 	"/>
	<polygon points="138.3,151.1 140.6,150.2 143.1,157 140.7,157.9 	"/>
	<polygon points="142.3,149.5 143,151.6 144.8,151 146.8,155.4 144.3,156.7 145.2,158.9 151.4,155.9 150.3,153.8 149.5,154.1 
		146.3,147.9 	"/>
	<polygon points="149.4,146 150.6,148.1 155.2,145.6 157.6,149.7 151.9,153.2 153,155.2 162.8,149.5 161.5,147.4 160.1,148.4 
		156.3,142 	"/>
</g>
</svg>
