<?xml version="1.0" encoding="utf-8"?>
<!-- Generator: Adobe Illustrator 21.1.0, SVG Export Plug-In . SVG Version: 6.00 Build 0)  -->
<svg version="1.1" id="Layer_1" xmlns="http://www.w3.org/2000/svg" xmlns:xlink="http://www.w3.org/1999/xlink" x="0px" y="0px"
	 viewBox="0 0 200 200" style="enable-background:new 0 0 200 200;" xml:space="preserve">
<style type="text/css">
	.st0{fill-rule:evenodd;clip-rule:evenodd;fill:#FAFAF9;stroke:#231F20;stroke-width:0.1721;stroke-miterlimit:22.9256;}
	.st1{fill-rule:evenodd;clip-rule:evenodd;fill:#D4B755;}
	.st2{fill-rule:evenodd;clip-rule:evenodd;fill:#D4B450;}
	.st3{fill-rule:evenodd;clip-rule:evenodd;fill:#C8252D;}
	.st4{fill-rule:evenodd;clip-rule:evenodd;fill:#C8252D;stroke:#D4B450;stroke-width:7.435200e-02;stroke-miterlimit:22.9256;}
	.st5{fill-rule:evenodd;clip-rule:evenodd;fill:#286945;}
	.st6{fill-rule:evenodd;clip-rule:evenodd;fill:#130C0E;stroke:#130C0E;stroke-width:7.435200e-02;stroke-miterlimit:22.9256;}
	.st7{fill-rule:evenodd;clip-rule:evenodd;fill:#FFCA05;stroke:#130C0E;stroke-width:7.435200e-02;stroke-miterlimit:22.9256;}
	.st8{fill-rule:evenodd;clip-rule:evenodd;fill:#FFFFFF;}
</style>
<g>
	<ellipse class="st0" cx="101.6" cy="105.6" rx="69.3" ry="68.8"/>
	<path class="st1" d="M186.8,130.7h-33.5c-15,29.6-51,41.4-80.6,26.5c-11.8-6.1-20.1-14.7-26.1-26.5l0,0H13.5
		c15,48.1,66,74.6,113.8,59.6C156.6,181.1,177.6,160,186.8,130.7z"/>
	<path class="st2" d="M127.2,17v33.1c11.8,6.1,20.1,14.7,26.1,26.1l0,0h33.5C177.6,47.2,156.6,26.2,127.2,17z"/>
	<path class="st1" d="M72.8,17c-29.3,9.2-50,30.3-59.3,59.3l0,0h33.1C52.7,64.8,61,56.2,72.8,50.1l0,0V17z"/>
	<path class="st3" d="M127.2,19.8v27.4c13.4,6.4,22.9,15.9,29.3,29l0,0H184C174.7,48.5,155,28.8,127.2,19.8z"/>
	<path class="st3" d="M72.8,47.2V19.8C45,28.8,25.3,48.5,16.4,76.2l0,0h27.4C50.1,63.2,59.4,53.6,72.8,47.2z"/>
	<path class="st4" d="M184,130.7h-27.4C141.6,162,104,175,72.8,160c-13.4-6.4-22.6-15.9-29-29.3l0,0H16.4
		c15,46.5,64.7,71.7,110.9,56.7C155,178.5,174.7,158.8,184,130.7z"/>
	<polygon class="st1" points="0.1,133.6 199.9,133.6 199.9,115.6 199.9,73.7 0.1,73.7 	"/>
	<rect x="3" y="76.2" class="st5" width="194.4" height="54.5"/>
	<polygon class="st1" points="130.1,5.5 70.2,5.5 70.2,76.2 100.2,87.4 130.1,76.2 	"/>
	<polygon class="st6" points="127.2,8.4 72.8,8.4 72.8,74.3 100.2,84.5 127.2,74.3 	"/>
	<polygon class="st7" points="127.2,37 127.2,12.5 72.8,73.7 72.8,74.3 89,80.4 	"/>
	<polygon class="st7" points="109.1,8.4 87.4,8.4 72.8,24.6 72.8,49.2 	"/>
	<polygon class="st7" points="127.2,61.9 110.7,80.7 127.2,74.3 	"/>
	<path class="st8" d="M81.2,120.3l-0.1-21.5c-2.7-0.1-5.3-0.2-8-0.3v-5c8,0.5,16.1,0.8,24.7,0.7v4.8c-2.7,0-5.3-0.1-8-0.1l-0.1,21.4
		C86.9,120.3,84.1,120.3,81.2,120.3z"/>
	<path class="st8" d="M102.9,120.4V94.3c8.1,0.1,14.5-0.3,21.5-0.5c0,1.6,0,3.1,0,4.7c-4.5,0.1-9.1,0.2-13.5,0.3c0,2,0,4,0,6
		l10.4-0.2c0,1.5,0,3.1,0,4.6l-10.4,0.2v6.4l13.5-0.2c0,1.5,0,3.1,0,4.7C117.3,120.3,110.1,120.4,102.9,120.4z"/>
	<path class="st8" d="M14.1,118.3c0-8.6,0-17.2,0-25.7c0-1.6,0-3.2,0-4.8c7.3,0.9,14.6,1.9,21.9,2.8c0,1.7,0,3.3,0,5
		c-4.4-0.5-8.8-1-13.2-1.4c0,1.9,0,3.9,0,5.8c4,0.4,8.7,0.7,12.9,2.9c4.3,2.5,5,8,3.5,10.9C34.7,120.9,21.4,118.6,14.1,118.3
		L14.1,118.3z M22.8,113.5c2.6,0,4.7,0.3,7.4-0.7c2.8-1.9,1.5-4.9,0.3-6.1c-2.3-2-5.4-1.4-7.7-1.5C22.8,108,22.8,110.7,22.8,113.5z"
		/>
	<path class="st8" d="M55.8,120.4c-5.6-0.7-9.1-2.5-11.6-8.1c-1.9-7.5-2.1-15.3,5.6-19.5c5.3-2.2,11.8-1.5,16.3,2.3
		c6.2,5,7.1,16.1,1.1,22.2C63.3,120.5,58.9,120.6,55.8,120.4L55.8,120.4z M56.6,115.2c1.6,0.1,3.8,0.1,5.7-2
		c3.1-3.9,2.6-11-0.5-14.2c-2.3-2.4-5.6-2.9-8.2-1.5c-3.9,2.7-3.8,7.6-2.8,12.4C52,113.6,53.7,114.7,56.6,115.2z"/>
	<path class="st8" d="M128.6,120.2l0.1-27c5.6-0.3,11.9-1.1,17.9-0.8c4.2,0.7,6.6,3.1,5.9,8.3c-0.5,1.9-1.9,3.2-3.5,4.1l-1.1,0.6
		c8.3,2.8,7,12.1-0.9,14C145.1,120.3,135.3,120.2,128.6,120.2L128.6,120.2z M136.8,103.7c1.7,0,3.5-0.2,5.1-0.5
		c1.4-0.4,1.7-0.9,2.4-2.3c0.8-5-5.5-3.7-7.5-3.3C136.8,99.6,136.8,101.7,136.8,103.7L136.8,103.7z M136.8,108.5l-0.1,6.9
		c2.2-0.2,6.3,0.4,7.9-1.7C147.1,107,139.5,108.1,136.8,108.5z"/>
	<path class="st8" d="M163,117.9l-0.1-23.2l-8.3,0.8V90c5.4-0.7,10.8-1.3,16.3-1.9L171,99c3.9-0.3,7.6-1,11.6,0.4
		c4.1,2.2,4.8,7.3,3.3,12.2C181.1,119.5,170.8,117.5,163,117.9L163,117.9z M171,112.3c3.2-0.3,6.3,0.2,7.2-3.7
		c0.6-5.5-3.6-4.8-7.2-4.4C171,106.9,171,109.6,171,112.3z"/>
	<path class="st2" d="M84.7,139.3h2.2v10.4h2.2v2h-7.2v-2H84v-7.3c-0.7,0.6-1.4,1.2-2.2,1.5v-2.4C83,141,84,140.3,84.7,139.3
		L84.7,139.3z M90.6,149l2.5-0.5c0.2,1,0.6,1.5,1.4,1.5c1.1,0,1.6-1.2,1.6-3.5l0-0.4c-0.5,0.7-1.3,1.1-2.3,1.1c-1.1,0-2-0.4-2.6-1.2
		c-0.6-0.8-0.9-1.7-0.9-2.7c0-1.1,0.3-2,1-2.8c0.7-0.8,1.7-1.2,3.1-1.2c1.2,0,2.1,0.3,2.8,0.9c0.6,0.6,1,1.4,1.3,2.3
		c0.2,0.9,0.3,1.9,0.3,2.9c0,4.4-1.5,6.6-4.4,6.6C92.3,152,91.1,151,90.6,149L90.6,149z M96,143.1c0-0.6-0.1-1.1-0.4-1.4
		c-0.3-0.3-0.6-0.5-1.1-0.5c-0.4,0-0.7,0.2-1,0.5c-0.3,0.3-0.4,0.8-0.4,1.4c0,1.3,0.5,1.9,1.5,1.9C95.5,145,96,144.4,96,143.1
		L96,143.1z M103.8,139.3h2.2v10.4h2.2v2H101v-2h2.2v-7.3c-0.6,0.6-1.4,1.2-2.2,1.5v-2.4C102.1,141,103.1,140.3,103.8,139.3
		L103.8,139.3z M112.2,143.8l-2.6-0.5c0.4-2.7,1.9-4,4.3-4c1.3,0,2.3,0.3,3,1c0.7,0.7,1,1.5,1,2.5c0,1-0.4,2.1-1.1,3
		c-0.8,1-2.2,2.1-4.3,3.5h5.6l-0.2,2.4h-8.4v-2.4c2.4-1.9,3.9-3.3,4.5-4.1c0.6-0.8,0.9-1.6,0.9-2.3c0-1-0.4-1.5-1.2-1.5
		c-0.5,0-0.9,0.2-1.1,0.6C112.4,142.5,112.3,143,112.2,143.8z"/>
</g>
</svg>
