<?xml version="1.0" encoding="utf-8"?>
<!-- Generator: Adobe Illustrator 21.1.0, SVG Export Plug-In . SVG Version: 6.00 Build 0)  -->
<svg version="1.1" id="Layer_1" xmlns="http://www.w3.org/2000/svg" xmlns:xlink="http://www.w3.org/1999/xlink" x="0px" y="0px"
	 viewBox="0 0 200 200" style="enable-background:new 0 0 200 200;" xml:space="preserve">
<style type="text/css">
	.st0{fill:#FFFFFF;}
	.st1{fill:#FFF200;}
	.st2{fill:#E31A22;}
</style>
<g id="g2544" transform="matrix(1.25,0,0,-1.25,0,189.7935)">
	<path id="path2576" class="st0" d="M157.5,70.7c-23.7-13.2-50.6-20.2-77.9-20.2c-27,0-53.7,6.8-77.2,19.8L0,71.6L2.5,73
		c23.7,13.2,50.6,20.2,77.9,20.2c27,0,53.7-6.8,77.2-19.8L160,72L157.5,70.7"/>
	<path id="path2578" class="st1" d="M80.4,91.6c-28,0-54.3-7.3-77.1-20C25.9,59.1,51.9,52,79.7,52c28,0,54.3,7.3,77.1,20
		C134.1,84.5,108.1,91.6,80.4,91.6"/>
	<path id="path2580" class="st2" d="M80.4,91.6c-28,0-54.3-7.3-77.1-20C25.9,59.1,51.9,52,79.7,52c28,0,54.3,7.3,77.1,20
		C134.1,84.5,108.1,91.6,80.4,91.6"/>
	<path id="path2582" class="st0" d="M152,72.1c-22.2-11.6-47.1-17.8-72.4-17.8c-25,0-49.7,6-71.7,17.4l-0.1,0
		c22.2,11.7,47.2,17.8,72.5,17.8C105.3,89.4,130,83.4,152,72.1"/>
	<path id="path2584" class="st2" d="M38.9,73.8h0.5c1.1,0,2.2,0.2,2.2,1.7c0,1.6-1.3,1.7-2.4,1.7h-0.3V73.8z M38.9,66.6h0.5
		c1.2,0,3.3-0.1,3.3,1.9c0,2.1-2,1.9-3.4,1.9h-0.4V66.6z M34.8,63.1v17.6h5.9c2.8,0,4.7-1.2,4.7-4.6c0-1.6-0.5-2.9-1.7-3.6v0
		c2.3-0.3,3.2-2,3.2-4.5c0-3.7-2.8-4.9-5.7-4.9H34.8"/>
	<path id="path2586" class="st2" d="M55.7,72.8h0.4c1.3,0,2.9,0.3,2.9,2.2c0,1.9-1.5,2.2-2.9,2.2h-0.4V72.8z M64.8,63.1h-5.1
		l-3.9,6.8h0v-6.8h-4.1v17.6h6.1c3.1,0,5.5-1.7,5.5-5.4c0-2.4-1.2-4.5-3.5-5L64.8,63.1"/>
	<path id="path2588" class="st2" d="M75.4,75.3L75.4,75.3l-1.7-5.6h3.4L75.4,75.3z M72.5,66.2l-1.1-3.1h-4.4l6.1,17.6h4.5l6-17.6
		h-4.4l-1,3.1H72.5"/>
	<path id="path2590" class="st2" d="M87.5,80.7h4.1l7.5-10.7h0v10.7h4.1V63.1h-4.1l-7.5,10.8h0V63.1h-4.1V80.7"/>
	<path id="path2592" class="st2" d="M108.6,80.7h4.1l7.5-10.7h0v10.7h4.1V63.1h-4.1l-7.5,10.8h0V63.1h-4.1V80.7"/>
</g>
</svg>
