<?xml version="1.0" encoding="utf-8"?>
<!-- Generator: Adobe Illustrator 21.1.0, SVG Export Plug-In . SVG Version: 6.00 Build 0)  -->
<svg version="1.1" id="Layer_1" xmlns="http://www.w3.org/2000/svg" xmlns:xlink="http://www.w3.org/1999/xlink" x="0px" y="0px"
	 viewBox="0 0 200 200" style="enable-background:new 0 0 200 200;" xml:space="preserve">
<style type="text/css">
	.st0{fill:#FFF100;}
	.st1{fill:none;stroke:#231F20;stroke-width:0.5843;}
	.st2{fill:#817B00;}
	.st3{fill:none;stroke:#231F20;stroke-width:0.5843;stroke-linejoin:bevel;}
	.st4{fill:#004B84;}
	.st5{fill:none;stroke:#231F20;stroke-width:0.3402;}
	.st6{fill:none;stroke:#231F20;stroke-width:0.2441;}
	.st7{fill:none;stroke:#231F20;stroke-width:0.1923;}
	.st8{fill:none;stroke:#231F20;stroke-width:0.3402;stroke-linecap:round;}
	.st9{fill:#231F20;}
	.st10{fill:none;stroke:#231F20;stroke-width:9.620000e-02;}
	.st11{fill:none;stroke:#FFF100;stroke-width:9.620000e-02;}
</style>
<g>
	<path class="st0" d="M54.2,167.4L54.2,167.4c-14.9-8.9-27.3-20.7-35.5-37l18.5,3l6.2-13.3l43.3,22.2l4.1,4.4L54.2,167.4"/>
	<path class="st1" d="M54.2,167.4L54.2,167.4c-14.9-8.9-27.3-20.7-35.5-37l18.5,3l6.2-13.3l43.3,22.2l4.1,4.4L54.2,167.4z"/>
	<path class="st0" d="M145.8,167.4L145.8,167.4c14.9-8.9,27.3-20.7,35.5-37l-18.5,3l-6.7-13.3l-43.3,22.2l-4.1,4.4L145.8,167.4"/>
	<path class="st1" d="M145.8,167.4L145.8,167.4c14.9-8.9,27.3-20.7,35.5-37l-18.5,3l-6.7-13.3l-43.3,22.2l-4.1,4.4L145.8,167.4z"/>
	<polyline class="st2" points="81.5,152.6 75.8,170.4 54.7,157 81.5,152.6 	"/>
	<polygon class="st3" points="81.5,152.6 75.8,170.4 54.7,157 	"/>
	<polyline class="st2" points="118.5,151.1 124.2,170.4 144.8,157 118.5,151.1 	"/>
	<polygon class="st3" points="118.5,151.1 124.2,170.4 144.8,157 	"/>
	<path class="st4" d="M100,200c21.1,0,41.2-5.9,58.2-16.3L144.8,157c-13.4,5.9-28.8,10.4-44.8,10.4c-16.5,0-31.4-4.4-44.8-10.4
		l-13.9,26.7C58.8,194.1,78.4,200,100,200"/>
	<path class="st1" d="M100,200c21.1,0,41.2-5.9,58.2-16.3L144.8,157c-13.4,5.9-28.8,10.4-44.8,10.4c-16.5,0-31.4-4.4-44.8-10.4
		l-13.9,26.7C58.8,194.1,78.4,200,100,200z"/>
	<path class="st0" d="M64.5,173.3c-2.6,0-4.1,0-6.7-1.5l1-3c1.5,0,4.6,0,7.2-1.5l4.6,1.5L64,189.6l-4.1-1.5L64.5,173.3"/>
	<path class="st0" d="M73.2,186.7c0,0,0,1.5,1,3c2.6,3,5.7,3,7.2,4.4c2.6,0,8.2,0,11.3-4.4c1-3,1.5-4.4,2.1-5.9
		c0.5-4.4-0.5-5.9-1.5-8.9c-2.6-3-6.2-3-7.2-3c-6.7-1.5-10.8,1.5-11.8,5.9c0,3,1,7.4,7.7,7.4c1.5,1.5,3.6,1.5,5.1,0
		c1,0,1.5,0,2.6-1.5c-0.5,1.5-1,3-2.6,4.4c-1.5,1.5-3.6,1.5-4.6,1.5c-3.1,0-3.6-3-4.1-3H73.2z M85.1,174.8c1.5,1.5,5.1,1.5,4.6,4.4
		c-0.5,3-3.1,3-5.7,3c-2.1,0-4.6-1.5-4.1-4.4C79.9,176.3,82.5,174.8,85.1,174.8"/>
	<path class="st0" d="M120.1,177.8c-0.5-1.5-0.5-1.5-1.5-3c-2.1-1.5-5.1-3-8.2-3c-4.6,1.5-11.3,4.4-10.3,13.3
		c0,4.4,3.1,10.4,11.3,8.9c4.1,0,6.7-1.5,7.7-3c1-1.5,2.1-3,2.1-4.4c-0.5-4.4-3.6-7.4-9.8-7.4c-4.1,1.5-5.7,3-6.2,4.4
		c-0.5-1.5-0.5-4.4,1-5.9c1,0,2.1-1.5,4.1-1.5c2.6,0,3.6,1.5,4.6,1.5H120.1z M109.8,183.7c2.6,0,5.7,0,5.7,3c0.5,3-2.1,3-4.6,4.4
		c-1.5,0-3.1,0-4.1-1.5c-0.5-1.5-1-1.5-1-3C105.7,185.2,107.2,183.7,109.8,183.7"/>
	<path class="st0" d="M124.2,185.2l1,3l11.8-3l1,3l5.1-1.5l-1-3l3.1-1.5l-1-3h-3.6l-3.6-11.9l-5.1,1.5L124.2,185.2z M136,180.7
		l-7.2,3l4.1-8.9l1-1.5c0,0,0,0,0,1.5c0,0,0,0,0.5,0L136,180.7"/>
	<path class="st4" d="M99.5,154.1c52,0,57.2-35.6,59.2-44.4c1.5-7.4,4.1-56.3,5.7-69.6c1-11.9,7.7-26.7,7.7-26.7S139.6,0,99.5,0l0,0
		C59.8,0,27.4,13.3,27.4,13.3s6.7,14.8,7.7,26.7c1.5,13.3,4.1,62.2,5.7,69.6C42.8,118.5,48,154.1,99.5,154.1L99.5,154.1"/>
	<path class="st1" d="M99.5,154.1c52,0,57.2-35.6,59.2-44.4c1.5-7.4,4.1-56.3,5.7-69.6c1-11.9,7.7-26.7,7.7-26.7S139.6,0,99.5,0l0,0
		C59.8,0,27.4,13.3,27.4,13.3s6.7,14.8,7.7,26.7c1.5,13.3,4.1,62.2,5.7,69.6C42.8,118.5,48,154.1,99.5,154.1z"/>
	<path class="st0" d="M74.8,57.8V35.6c0.5-7.4,3.1-13.3,8.2-17.8c4.1-3,8.2-5.9,13.4-7.4c0.5,1.5,1,1.5,1,1.5s-0.5,1.5-1,3l0,0
		c-4.6,0-7.7,4.4-7.7,10.4c0,0,0,1.5,0.5,1.5l0,0v1.5l0,0l0,0l-0.5-1.5h-1l0.5,1.5l0,0h-0.5l0,0v-1.5c0.5-1.5,0.5-1.5,0.5-1.5h-1
		c0,0,0,0-0.5,1.5c-0.5,0-0.5,0-0.5,1.5c0,0,0.5,0,1,1.5c0,0,0.5,0,1,0l0,0l3.1,22.2h0.5c2.1,1.5,4.6,1.5,7.7,1.5h0.5
		c3.1,0,5.7,0,7.7-1.5h0.5l3.1-22.2l0,0c0.5,0,1,0,1.5,0c0-1.5,0.5-1.5,0.5-1.5c0-1.5,0-1.5-0.5-1.5c-0.5-1.5-0.5-1.5-0.5-1.5h-1
		c0,0,0,0,0.5,1.5c0.5,0,0.5,1.5,0.5,1.5s0,0-0.5,0h-0.5l0,0l0.5-1.5h-1v1.5h-0.5l0,0v-1.5l0,0c0.5,0,0.5-1.5,0.5-1.5
		c0-5.9-3.1-8.9-7.7-10.4l0,0c0-1.5,0-1.5-0.5-1.5h-2.1h0.5c-0.5,0-1,0-1,0c-0.5,0-1,0-1.5,0l0,0c0.5,0,1,0,1,0l2.1-1.5
		c0,0,1,0,1.5-1.5c5.1,1.5,9.3,3,13.4,7.4c5.1,4.4,7.7,10.4,8.2,17.8v22.2c-7.2-1.5-15.4-3-24.7-3C90.2,54.8,82,56.3,74.8,57.8z
		 M100,16.3c-0.5,0-1-1.5-1.5-1.5c0.5,0,1,0,1.5,0c0,0,0.5,0,1,0C101,14.8,100.5,16.3,100,16.3z M103.1,14.8
		c4.1,1.5,6.7,5.9,6.7,10.4c0,0,0,1.5-0.5,1.5l0,0c-2.1,0-5.7,0-9.3,0h-0.5c-3.6,0-7.2,0-9.3,0l0,0l-0.5-1.5c0-4.4,3.1-8.9,7.2-10.4
		c0,1.5,1.5,3,3.1,3C101.5,17.8,102.6,16.3,103.1,14.8L103.1,14.8z M141.2,66.7c0-3-5.7-5.9-14.4-8.9V34.1
		c-0.5-5.9-3.1-13.3-8.8-17.8c-4.1-4.4-9.3-5.9-14.4-7.4l0,0c0-1.5-1.5-3-3.6-3c-2.6,0-4.1,1.5-4.1,3c-5.1,1.5-10.3,3-14.4,7.4
		c-5.1,4.4-8.2,11.9-8.8,17.8v23.7c-8.8,3-14.4,5.9-14.4,8.9l0,0v63.7c0,7.4,18.5,11.9,41.7,11.9c22.7,0,41.2-4.4,41.2-11.9V66.7
		L141.2,66.7"/>
	<path class="st5" d="M126.8,57.8c8.8,3,14.4,5.9,14.4,8.9c0,5.9-18.5,11.9-41.2,11.9c-23.2,0-41.7-5.9-41.7-11.9
		c0-3,5.7-5.9,14.4-8.9"/>
	<path class="st5" d="M74.8,57.8c7.2-1.5,15.4-3,25.2-3c9.3,0,17.5,1.5,24.7,3"/>
	<path class="st5" d="M141.2,83c0,5.9-18.5,11.9-41.2,11.9c-23.2,0-41.7-5.9-41.7-11.9"/>
	<path class="st5" d="M141.2,99.3c0,5.9-18.5,10.4-41.2,10.4c-23.2,0-41.7-4.4-41.7-10.4"/>
	<path class="st5" d="M141.2,114.1c0,7.4-18.5,11.9-41.2,11.9c-23.2,0-41.7-4.4-41.7-11.9"/>
	<path class="st5" d="M58.3,66.7v63.7c0,7.4,18.5,11.9,41.7,11.9c22.7,0,41.2-4.4,41.2-11.9V66.7"/>
	<path class="st5" d="M126.8,65.2L126.8,65.2c0,3-11.8,5.9-26.8,5.9c-14.9,0-27.3-3-27.3-5.9l0,0"/>
	<path class="st5" d="M74.8,63.7c4.1-1.5,13.9-3,25.2-3c10.8,0,20.6,1.5,24.7,3"/>
	<polyline class="st5" points="69.6,90.4 69.6,74.1 76.3,68.1 	"/>
	<polyline class="st5" points="132.4,90.4 132.4,74.1 125.2,68.1 	"/>
	<line class="st5" x1="87.1" y1="77" x2="87.1" y2="93.3"/>
	<line class="st5" x1="115.4" y1="77" x2="115.4" y2="93.3"/>
	<line class="st5" x1="69.6" y1="106.7" x2="69.6" y2="123"/>
	<line class="st5" x1="87.1" y1="109.6" x2="87.1" y2="125.9"/>
	<line class="st5" x1="115.4" y1="109.6" x2="115.4" y2="124.4"/>
	<line class="st5" x1="132.4" y1="105.2" x2="132.4" y2="121.5"/>
	<line class="st5" x1="76.8" y1="91.9" x2="76.8" y2="108.1"/>
	<line class="st5" x1="101.5" y1="93.3" x2="101.5" y2="109.6"/>
	<line class="st5" x1="126.3" y1="91.9" x2="126.3" y2="106.7"/>
	<line class="st5" x1="76.8" y1="124.4" x2="76.8" y2="140.7"/>
	<line class="st5" x1="101.5" y1="125.9" x2="101.5" y2="142.2"/>
	<line class="st5" x1="126.3" y1="123" x2="126.3" y2="139.3"/>
	<polyline class="st5" points="92.3,54.8 90.2,60.7 90.2,71.1 	"/>
	<polyline class="st5" points="107.7,54.8 109.8,60.7 109.8,71.1 	"/>
	<path class="st6" d="M110.3,37c-2.1,0-5.7,1.5-10.3,1.5c-5.1,0-8.8-1.5-10.8-1.5"/>
	<path class="st6" d="M109.8,38.5c-1.5,0-5.7,1.5-9.8,1.5c-4.6,0-8.8-1.5-10.3-1.5"/>
	<path class="st6" d="M108.8,45.9c-2.1,0-5.1,1.5-8.8,1.5c-4.1,0-7.2-1.5-9.3-1.5"/>
	<path class="st6" d="M108.8,47.4c-2.1,1.5-5.7,1.5-8.8,1.5c-3.6,0-6.7,0-9.3-1.5"/>
	<line class="st6" x1="93.8" y1="26.7" x2="94.3" y2="31.1"/>
	<line class="st6" x1="106.2" y1="26.7" x2="105.7" y2="31.1"/>
	<line class="st6" x1="95.4" y1="48.9" x2="95.9" y2="53.3"/>
	<line class="st6" x1="94.9" y1="40" x2="95.4" y2="47.4"/>
	<line class="st6" x1="93.8" y1="31.1" x2="94.3" y2="38.5"/>
	<line class="st6" x1="100" y1="48.9" x2="100" y2="53.3"/>
	<line class="st6" x1="100" y1="40" x2="100" y2="47.4"/>
	<line class="st6" x1="100" y1="25.2" x2="100" y2="38.5"/>
	<line class="st6" x1="104.6" y1="48.9" x2="104.1" y2="53.3"/>
	<line class="st6" x1="105.1" y1="40" x2="104.6" y2="47.4"/>
	<line class="st6" x1="106.2" y1="31.1" x2="105.7" y2="38.5"/>
	<path class="st6" d="M90.2,26.7c2.1,0,5.7-1.5,9.3-1.5h0.5c3.6,0,7.2,1.5,9.3,1.5"/>
	<line class="st6" x1="89.2" y1="28.1" x2="89.2" y2="28.1"/>
	<path class="st6" d="M99.5,32.6c-4.1,0-8.2-1.5-10.3-3l0,0l-0.5-3h-1l3.6,25.2h0.5c2.1,1.5,4.6,1.5,7.7,1.5h0.5
		c3.1,0,5.7,0,7.7-1.5h0.5l3.6-25.2h-1l-0.5,3l0,0c-2.1,1.5-6.2,3-10.3,3H99.5z"/>
	<path class="st6" d="M111.8,26.7c0.5,0,0.5,0,0.5,1.5h-0.5h-0.5v1.5c0.5,0,1,0,1.5,0c0-1.5,0.5-1.5,0.5-1.5c0-1.5,0-1.5-0.5-1.5
		c-0.5-1.5-0.5-1.5-0.5-1.5h-1C111.3,25.2,111.3,25.2,111.8,26.7z"/>
	<path class="st6" d="M101,13.3c-0.5,0-1,0-1.5,0"/>
	<path class="st6" d="M103.1,14.8c4.1,1.5,6.7,5.9,6.7,10.4l-0.5,1.5v1.5l0,0c0,1.5,0.5,1.5,1,1.5v-1.5c0,0,0,0,0-1.5l0,0l0,0
		c0.5,0,0.5-1.5,0.5-1.5C110.8,19.3,107.7,16.3,103.1,14.8"/>
	<path class="st6" d="M99.5,14.8c0.5,0,1,0,1.5,0"/>
	<path class="st6" d="M87.6,26.7c0,0-0.5,0,0,1.5l0,0h0.5v1.5c-0.5,0-1,0-1.5,0c0-1.5-0.5-1.5-0.5-1.5c0-1.5,0-1.5,0.5-1.5
		c0.5-1.5,0.5-1.5,0.5-1.5h1C88.2,25.2,88.2,25.2,87.6,26.7z"/>
	<path class="st6" d="M100,14.8c-5.7,0-10.3,4.4-10.3,10.4l0.5,1.5v1.5l0,0c0,1.5-0.5,1.5-1,1.5v-1.5c0,0,0,0,0-1.5l0,0l0,0
		c-0.5,0-0.5-1.5-0.5-1.5c0-7.4,5.1-11.9,11.3-11.9"/>
	<path class="st7" d="M99.5,10.4c-0.5,0-1.5,0-1.5-1.5c0,0,1-1.5,2.1-1.5c0.5,0,1,0,1.5,1.5 M100.5,10.4H100c0,0-1.5,0-2.1,1.5
		c-0.5,0-1,1.5-1.5,3 M96.9,14.8c0,1.5,1.5,3,3.1,3c2.1,0,3.1-1.5,3.1-3s0-1.5-0.5-1.5h-2.1c0.5,0,0.5,0,0.5,1.5c0,0-0.5,1.5-1,1.5
		c-1,0-1-1.5-1.5-1.5 M98.5,13.3c0.5,0,1,0,1,0l2.1-1.5c0,0,1,0,1.5-1.5 M103.6,8.9c0-1.5-1.5-3-3.6-3c-2.6,0-4.1,1.5-4.1,3
		c0,1.5,1,3,2.1,3"/>
	<path class="st8" d="M99,10.4c7.2,0,12.4,3,17.5,7.4c5.1,4.4,7.7,10.4,8.2,17.8v32.6l0,0c0,0,0.5,0,1-1.5c1,0,1-1.5,1-1.5v1.5V34.1
		c-0.5-5.9-3.6-13.3-8.8-17.8c-5.1-5.9-11.8-7.4-19.1-7.4h2.1c-1,0-1.5,0-2.6,0"/>
	<path class="st5" d="M95.9,8.9c-5.1,1.5-10.3,3-14.4,7.4c-5.1,4.4-8.2,11.9-8.8,17.8v32.6v-1.5c0,0,0,1.5,1,1.5
		c0.5,1.5,1,1.5,1,1.5l0,0V35.6c0.5-7.4,3.1-13.3,8.2-17.8c4.1-3,8.2-5.9,13.4-7.4"/>
	<polygon class="st9" points="98.5,10.4 99.5,10.4 99.5,10.4 	"/>
	<path class="st10" d="M141.2,69.6c0,3-5.1,5.9-13.4,7.4"/>
	<path class="st10" d="M141.2,71.1c0,3-5.1,5.9-13.4,7.4"/>
	<path class="st10" d="M141.2,72.6c0,3-5.1,5.9-13.4,7.4"/>
	<path class="st10" d="M141.2,74.1c0,3-5.1,5.9-13.4,8.9"/>
	<path class="st10" d="M141.2,75.6c0,3-5.1,5.9-13.4,8.9"/>
	<path class="st10" d="M141.2,77c0,3-5.1,7.4-13.4,8.9"/>
	<path class="st10" d="M141.2,78.5c0,4.4-5.1,7.4-13.4,8.9"/>
	<path class="st10" d="M141.2,80c0,4.4-5.1,7.4-13.4,8.9"/>
	<path class="st10" d="M59.8,72.6c1,1.5,3.6,1.5,6.7,3"/>
	<path class="st10" d="M59.8,74.1c1,1.5,3.6,3,6.7,3"/>
	<path class="st10" d="M59.8,75.6c1,1.5,3.6,3,6.7,3"/>
	<path class="st10" d="M59.8,77c1,1.5,3.6,3,6.7,4.4"/>
	<path class="st10" d="M59.8,78.5c1,1.5,3.6,3,6.7,4.4"/>
	<path class="st10" d="M59.8,80c1,1.5,3.6,3,6.7,4.4"/>
	<path class="st10" d="M59.8,81.5c1,1.5,3.6,3,6.7,4.4"/>
	<path class="st10" d="M59.8,84.4c1,1.5,3.6,1.5,6.7,3"/>
	<path class="st10" d="M59.8,87.4c1,1.5,3.6,3,6.7,4.4"/>
	<path class="st10" d="M59.8,90.4c1,1.5,3.6,1.5,6.7,3"/>
	<path class="st10" d="M59.8,91.9c1,1.5,3.6,3,6.7,3"/>
	<path class="st10" d="M59.8,93.3c1,1.5,3.6,3,6.7,3"/>
	<path class="st10" d="M59.8,94.8c1,1.5,3.6,3,6.7,4.4"/>
	<path class="st10" d="M59.8,96.3c1,1.5,3.6,3,6.7,4.4"/>
	<path class="st10" d="M59.8,97.8c1,1.5,3.6,3,6.7,4.4"/>
	<path class="st10" d="M59.8,99.3c1,1.5,3.6,3,6.7,4.4"/>
	<path class="st10" d="M59.8,103.7c1,1.5,3.6,3,6.7,4.4"/>
	<path class="st10" d="M59.8,105.2c1,1.5,3.6,3,6.7,4.4"/>
	<path class="st10" d="M59.8,108.1c1,0,3.6,1.5,6.7,3"/>
	<path class="st10" d="M59.8,109.6c1,1.5,3.6,1.5,6.7,3"/>
	<path class="st10" d="M59.8,111.1c1,1.5,3.6,3,6.7,3"/>
	<path class="st10" d="M59.8,112.6c1,1.5,3.6,3,6.7,4.4"/>
	<path class="st10" d="M59.8,114.1c1,1.5,3.6,3,6.7,4.4"/>
	<path class="st10" d="M59.8,115.6c1,1.5,3.6,3,6.7,4.4"/>
	<path class="st10" d="M59.8,120c1,1.5,3.6,3,6.7,4.4"/>
	<path class="st10" d="M59.8,121.5c1,1.5,3.6,3,6.7,4.4"/>
	<path class="st10" d="M59.8,123c1,1.5,3.6,3,6.7,4.4"/>
	<path class="st10" d="M59.8,124.4c1,1.5,3.6,3,6.7,4.4"/>
	<path class="st10" d="M59.8,127.4c1,1.5,3.6,1.5,6.7,3"/>
	<path class="st10" d="M59.8,128.9c1,1.5,3.6,3,6.7,3"/>
	<path class="st10" d="M59.8,130.4c1,1.5,3.6,3,6.7,4.4"/>
	<path class="st10" d="M59.8,131.8c1,1.5,3.6,3,6.7,4.4"/>
	<path class="st10" d="M141.2,84.4c0,4.4-5.1,7.4-13.4,8.9"/>
	<path class="st10" d="M141.2,85.9c0,4.4-5.1,7.4-13.4,8.9"/>
	<path class="st10" d="M141.2,88.9c0,3-5.1,5.9-13.4,7.4"/>
	<path class="st10" d="M141.2,90.4c0,3-5.1,5.9-13.4,7.4"/>
	<path class="st10" d="M141.2,91.9c0,3-5.1,5.9-13.4,8.9"/>
	<path class="st10" d="M141.2,93.3c0,3-5.1,5.9-13.4,8.9"/>
	<path class="st10" d="M141.2,94.8c0,3-5.1,7.4-13.4,8.9"/>
	<path class="st10" d="M141.2,96.3c0,4.4-5.1,7.4-13.4,8.9"/>
	<path class="st10" d="M141.2,100.7c0,3-5.1,7.4-13.4,8.9"/>
	<path class="st10" d="M141.2,102.2c0,4.4-5.1,7.4-13.4,8.9"/>
	<path class="st10" d="M141.2,103.7c0,4.4-5.1,7.4-13.4,8.9"/>
	<path class="st10" d="M141.2,106.7c0,3-5.1,5.9-13.4,7.4"/>
	<path class="st10" d="M141.2,108.1c0,3-5.1,5.9-13.4,7.4"/>
	<path class="st10" d="M141.2,109.6c0,3-5.1,5.9-13.4,8.9"/>
	<path class="st10" d="M141.2,111.1c0,3-5.1,5.9-13.4,8.9"/>
	<path class="st10" d="M141.2,112.6c0,3-5.1,5.9-13.4,8.9"/>
	<path class="st10" d="M141.2,117c0,3-5.1,5.9-13.4,8.9"/>
	<path class="st10" d="M141.2,118.5c0,3-5.1,5.9-13.4,8.9"/>
	<path class="st10" d="M141.2,120c0,4.4-5.1,7.4-13.4,8.9"/>
	<path class="st10" d="M141.2,121.5c0,4.4-5.1,7.4-13.4,8.9"/>
	<path class="st10" d="M141.2,124.4c0,3-5.1,5.9-13.4,7.4"/>
	<path class="st10" d="M141.2,125.9c0,3-5.1,5.9-13.4,7.4"/>
	<path class="st10" d="M141.2,127.4c0,3-5.1,5.9-13.4,8.9"/>
	<path class="st10" d="M141.2,128.9c0,3-5.1,5.9-13.4,8.9"/>
	<path class="st10" d="M74.8,65.2c3.6-1.5,10.8-3,19.6-3"/>
	<path class="st10" d="M74.8,66.7c3.6-1.5,10.8-3,19.6-3"/>
	<path class="st10" d="M75.3,68.1c3.6-1.5,10.8-3,19.1-3"/>
	<path class="st10" d="M77.9,69.6c3.6-1.5,9.8-1.5,16.5-3"/>
	<path class="st10" d="M81.5,69.6c3.6,0,7.7,0,12.9-1.5"/>
	<path class="st10" d="M91.8,32.6c-1.5,0-2.6-1.5-3.1-1.5"/>
	<path class="st10" d="M91.8,32.6c-1,0-2.1,0-3.1,0"/>
	<path class="st10" d="M91.8,34.1c-1,0-2.1-1.5-3.1-1.5"/>
	<path class="st10" d="M91.8,34.1c-1,0-2.1,0-2.6,0"/>
	<path class="st10" d="M91.8,35.6c-1,0-2.1,0-2.6-1.5"/>
	<path class="st10" d="M91.8,37c-1-1.5-2.1-1.5-2.6-1.5"/>
	<path class="st10" d="M92.8,40c-1.5,0-2.6,0-3.1,0"/>
	<path class="st10" d="M92.8,41.5c-1.5,0-2.1-1.5-3.1-1.5"/>
	<path class="st10" d="M92.8,41.5c-1,0-2.1,0-2.6,0"/>
	<path class="st10" d="M92.8,43c-1,0-2.1,0-2.6-1.5"/>
	<path class="st10" d="M92.8,43c-1,0-2.1,0-2.6,0"/>
	<path class="st10" d="M92.8,44.4c-1,0-2.1,0-2.6,0"/>
	<path class="st10" d="M92.8,45.9c-1-1.5-1.5-1.5-2.6-1.5"/>
	<path class="st10" d="M92.8,48.9c-1,0-1.5,0-1.5,0"/>
	<path class="st10" d="M92.8,50.4c-1,0-1.5,0-2.1,0"/>
	<path class="st10" d="M92.8,50.4c-0.5,0-1,0-1.5,0"/>
	<path class="st10" d="M92.8,51.9c-0.5,0-1,0-1.5,0"/>
	<path class="st10" d="M110.8,31.1c-1,0-2.1,1.5-3.6,1.5"/>
	<path class="st10" d="M110.8,32.6c-1,0-2.1,0-3.6,0"/>
	<path class="st10" d="M110.8,32.6c-1,0-2.1,1.5-3.6,1.5"/>
	<path class="st10" d="M110.8,34.1c-1,0-2.1,0-3.6,0"/>
	<path class="st10" d="M110.3,34.1c-0.5,1.5-2.1,1.5-3.1,1.5"/>
	<path class="st10" d="M110.3,35.6c-0.5,0-2.1,0-3.6,1.5"/>
	<path class="st10" d="M109.3,40c-0.5,0-1.5,0-2.6,0"/>
	<path class="st10" d="M109.3,40c-0.5,1.5-1.5,1.5-3.1,1.5"/>
	<path class="st10" d="M109.3,41.5c-0.5,0-1.5,0-3.1,0"/>
	<path class="st10" d="M108.8,48.9c-1,0-2.1,0-3.6,0"/>
	<path class="st10" d="M108.2,48.9c-0.5,1.5-1.5,1.5-3.1,1.5"/>
	<path class="st10" d="M108.2,50.4c-0.5,0-1.5,0-3.1,1.5"/>
	<path class="st10" d="M108.2,51.9c-0.5,0-2.1,0-3.1,0"/>
	<path class="st10" d="M109.3,41.5c-0.5,1.5-2.1,1.5-3.1,1.5"/>
	<path class="st10" d="M109.3,43c-0.5,0-2.1,1.5-3.1,1.5"/>
	<path class="st10" d="M109.3,44.4c-1,0-2.1,0-3.6,0"/>
	<path class="st10" d="M109.3,44.4c-1,0-2.1,1.5-3.6,1.5"/>
	<path class="st10" d="M93.8,26.7c-1,0-2.6,1.5-3.6,1.5"/>
	<path class="st10" d="M93.8,28.1c-1,0-3.6,1.5-4.6,1.5"/>
	<path class="st10" d="M93.8,28.1c-1,1.5-3.1,1.5-4.1,1.5"/>
	<path class="st10" d="M93.8,29.6c-1,0-2.6,0-3.1,1.5"/>
	<path class="st0" d="M141.7,28.1l-5.2-5.9l7.2-1.5l3.6-7.4l3.6,7.4l7.2,1.5l-4.6,5.9l0.5,8.9l-6.7-4.4l-6.7,4.4L141.7,28.1z
		 M147.4,13.3L147.4,13.3L147.4,13.3L147.4,13.3L147.4,13.3L147.4,13.3L147.4,13.3L147.4,13.3L147.4,13.3l-3.6,5.9l-7.2,3l0,0l0,0
		H136l0,0l0,0l0,0l0,0l0,0l0,0l0,0l5.1,5.9l-1,7.4V37l0,0l0,0l0,0h0.5l0,0l0,0l0,0l0,0l0,0l0,0h0.5l6.2-3l6.7,3l0,0l0,0l0,0h0.5l0,0
		l0,0l0,0l0,0l0,0l0,0l0,0l0,0l0,0l0,0l0,0l0,0v-1.5l-1-7.4l5.1-5.9l0,0l0,0l0,0l0,0l0,0l0,0l0,0l0,0l0,0l0,0l0,0h-0.5l-6.7-3
		l-3.6-5.9l0,0l0,0l0,0H147.4"/>
	<path class="st11" d="M141.7,28.1l-5.2-5.9l7.2-1.5l3.6-7.4l3.6,7.4l7.2,1.5l-4.6,5.9l0.5,8.9l-6.7-4.4l-6.7,4.4L141.7,28.1z
		 M147.4,13.3L147.4,13.3L147.4,13.3L147.4,13.3L147.4,13.3L147.4,13.3L147.4,13.3L147.4,13.3L147.4,13.3l-3.6,5.9l-7.2,3l0,0l0,0
		H136l0,0l0,0l0,0l0,0l0,0l0,0l0,0l5.1,5.9l-1,7.4V37l0,0l0,0l0,0h0.5l0,0l0,0l0,0l0,0l0,0l0,0h0.5l6.2-3l6.7,3l0,0l0,0l0,0h0.5l0,0
		l0,0l0,0l0,0l0,0l0,0l0,0l0,0l0,0l0,0l0,0l0,0v-1.5l-1-7.4l5.1-5.9l0,0l0,0l0,0l0,0l0,0l0,0l0,0l0,0l0,0l0,0l0,0h-0.5l-6.7-3
		l-3.6-5.9l0,0l0,0l0,0H147.4z"/>
	<polyline class="st0" points="142.2,28.1 142.2,28.1 142.2,28.1 142.2,28.1 142.2,28.1 142.2,28.1 142.2,28.1 142.2,28.1 
		141.7,34.1 146.9,32.6 147.4,32.6 147.4,32.6 147.4,32.6 147.9,32.6 147.9,32.6 147.9,32.6 147.9,32.6 153,34.1 152.5,28.1 
		152.5,28.1 152.5,28.1 152.5,28.1 152.5,28.1 152.5,28.1 152.5,28.1 152.5,28.1 152.5,28.1 156.6,22.2 151,20.7 151,20.7 151,20.7 
		150.5,20.7 150.5,20.7 150.5,20.7 150.5,20.7 150.5,20.7 150.5,20.7 150.5,20.7 147.4,14.8 144.8,20.7 144.8,20.7 144.3,20.7 
		144.3,20.7 144.3,20.7 144.3,20.7 144.3,20.7 144.3,20.7 144.3,20.7 144.3,20.7 144.3,20.7 144.3,20.7 144.3,20.7 143.8,20.7 
		138.6,22.2 142.2,28.1 	"/>
	<polygon class="st11" points="142.2,28.1 142.2,28.1 142.2,28.1 142.2,28.1 142.2,28.1 142.2,28.1 142.2,28.1 142.2,28.1 
		141.7,34.1 146.9,32.6 147.4,32.6 147.4,32.6 147.4,32.6 147.9,32.6 147.9,32.6 147.9,32.6 147.9,32.6 153,34.1 152.5,28.1 
		152.5,28.1 152.5,28.1 152.5,28.1 152.5,28.1 152.5,28.1 152.5,28.1 152.5,28.1 152.5,28.1 156.6,22.2 151,20.7 151,20.7 151,20.7 
		150.5,20.7 150.5,20.7 150.5,20.7 150.5,20.7 150.5,20.7 150.5,20.7 150.5,20.7 147.4,14.8 144.8,20.7 144.8,20.7 144.3,20.7 
		144.3,20.7 144.3,20.7 144.3,20.7 144.3,20.7 144.3,20.7 144.3,20.7 144.3,20.7 144.3,20.7 144.3,20.7 144.3,20.7 143.8,20.7 
		138.6,22.2 	"/>
	<path class="st0" d="M47,28.1l-4.6-5.9l7.2-1.5l3.6-7.4l3.6,7.4l7.2,1.5l-5.2,5.9l1,8.9l-6.7-3l-6.7,3L47,28.1z M53.1,13.3
		L53.1,13.3L53.1,13.3L53.1,13.3L53.1,13.3L53.1,13.3h-0.5l0,0l0,0L49,20.7l-6.7,1.5h-0.5l0,0l0,0l0,0l0,0l0,0l0,0l0,0l0,0l0,0
		l4.6,5.9L45.9,37l0,0l0,0l0,0l0,0l0,0l0,0l0,0h0.5l0,0l0,0l0,0l0,0l6.7-3l6.2,3h0.5l0,0l0,0l0,0l0,0l0,0l0,0l0,0l0,0l0,0l0,0l0,0
		l0,0l0,0l0,0l0,0l0,0l-0.5-8.9l4.6-5.9l0,0l0,0h0.5l0,0l0,0H64l0,0l0,0l0,0l0,0l0,0l0,0l-7.2-1.5L53.1,13.3L53.1,13.3L53.1,13.3
		L53.1,13.3L53.1,13.3"/>
	<path class="st11" d="M47,28.1l-4.6-5.9l7.2-1.5l3.6-7.4l3.6,7.4l7.2,1.5l-5.2,5.9l1,8.9l-6.7-3l-6.7,3L47,28.1z M53.1,13.3
		L53.1,13.3L53.1,13.3L53.1,13.3L53.1,13.3L53.1,13.3h-0.5l0,0l0,0L49,20.7l-6.7,1.5h-0.5l0,0l0,0l0,0l0,0l0,0l0,0l0,0l0,0l0,0
		l4.6,5.9L45.9,37l0,0l0,0l0,0l0,0l0,0l0,0l0,0h0.5l0,0l0,0l0,0l0,0l6.7-3l6.2,3h0.5l0,0l0,0l0,0l0,0l0,0l0,0l0,0l0,0l0,0l0,0l0,0
		l0,0l0,0l0,0l0,0l0,0l-0.5-8.9l4.6-5.9l0,0l0,0h0.5l0,0l0,0H64l0,0l0,0l0,0l0,0l0,0l0,0l-7.2-1.5L53.1,13.3L53.1,13.3L53.1,13.3
		L53.1,13.3z"/>
	<polyline class="st0" points="47.5,28.1 48,28.1 48,28.1 48,28.1 48,28.1 48,28.1 48,28.1 48,28.1 47.5,35.6 52.6,32.6 53.1,32.6 
		53.1,32.6 53.1,32.6 53.1,32.6 53.1,32.6 53.7,32.6 53.7,32.6 58.8,35.6 58.3,28.1 58.3,28.1 58.3,28.1 58.3,28.1 58.3,28.1 
		58.3,28.1 58.3,28.1 58.3,28.1 58.3,28.1 62.4,23.7 56.2,22.2 56.2,22.2 56.2,22.2 56.2,22.2 56.2,22.2 56.2,22.2 56.2,22.2 
		56.2,20.7 55.7,20.7 55.7,20.7 53.1,16.3 50.1,20.7 50.1,20.7 50.1,20.7 50.1,20.7 50.1,20.7 50.1,20.7 50.1,22.2 50.1,22.2 
		50.1,22.2 50.1,22.2 49.5,22.2 49.5,22.2 49.5,22.2 49.5,22.2 43.9,23.7 47.5,28.1 	"/>
	<polygon class="st11" points="47.5,28.1 48,28.1 48,28.1 48,28.1 48,28.1 48,28.1 48,28.1 48,28.1 47.5,35.6 52.6,32.6 53.1,32.6 
		53.1,32.6 53.1,32.6 53.1,32.6 53.1,32.6 53.7,32.6 53.7,32.6 58.8,35.6 58.3,28.1 58.3,28.1 58.3,28.1 58.3,28.1 58.3,28.1 
		58.3,28.1 58.3,28.1 58.3,28.1 58.3,28.1 62.4,23.7 56.2,22.2 56.2,22.2 56.2,22.2 56.2,22.2 56.2,22.2 56.2,22.2 56.2,22.2 
		56.2,20.7 55.7,20.7 55.7,20.7 53.1,16.3 50.1,20.7 50.1,20.7 50.1,20.7 50.1,20.7 50.1,20.7 50.1,20.7 50.1,22.2 50.1,22.2 
		50.1,22.2 50.1,22.2 49.5,22.2 49.5,22.2 49.5,22.2 49.5,22.2 43.9,23.7 	"/>
</g>
</svg>
