<?xml version="1.0" encoding="utf-8"?>
<!-- Generator: Adobe Illustrator 21.1.0, SVG Export Plug-In . SVG Version: 6.00 Build 0)  -->
<svg version="1.1" id="Layer_1" xmlns="http://www.w3.org/2000/svg" xmlns:xlink="http://www.w3.org/1999/xlink" x="0px" y="0px"
	 viewBox="0 0 200 200" style="enable-background:new 0 0 200 200;" xml:space="preserve">
<style type="text/css">
	.st0{fill:#F9CC11;}
	.st1{fill:#FFFFFF;}
</style>
<g>
	<path id="path16" class="st0" d="M100,1.2c54.6,0,98.8,44.2,98.8,98.8c0,54.6-44.2,98.8-98.8,98.8c-54.6,0-98.8-44.2-98.8-98.8
		C1.2,45.4,45.4,1.2,100,1.2"/>
	<path d="M100,0.3C45,0.3,0.3,45,0.3,100c0,55,44.6,99.7,99.7,99.7c55,0,99.7-44.6,99.7-99.7C199.7,45,155,0.3,100,0.3z M100,198.5
		c-54.4,0-98.5-44.1-98.5-98.5S45.6,1.5,100,1.5c54.4,0,98.5,44.1,98.5,98.5S154.4,198.5,100,198.5z"/>
	<path id="path20" d="M100,25.2c41.3,0,74.8,33.5,74.8,74.8s-33.5,74.8-74.8,74.8S25.2,141.3,25.2,100S58.7,25.2,100,25.2"/>
	<path id="path22" class="st1" d="M127.2,104.4v17h1.3c1,0,1.1-0.4,1.1-0.9v-15.1c0-0.7-0.2-1-1.1-1L127.2,104.4L127.2,104.4z
		 M89.6,133.2l-31.4-0.1L47,121.6v-7.9h8.8V95.9L33.6,75.8l-6.6,0l-9.7-10v-7.9h50l10.2,11l0,7.2l-3.2,0l5.2,4.7l16.8-12.2l-2.9-2.8
		v-8H124l10.5,7.1l0,11.4l-11.4,0l-13.6,9.8h24.3c15.2,0,33.1,10.3,33,27.7c0,8.9-3.3,14.9-10.2,19.5c6.7,4.5,10.7,11,10.7,19.9
		c0,8-3.6,14.7-9.3,19.1c-4.1,3.1-9.3,5.1-15,5.1H93l-11.2-11.6v-8.7h7.7V133.2z M127,140l0,17.2h1.4c0.6,0,1-0.3,1-1.1l0-14.5
		c0-1.3-0.3-1.5-1.1-1.6H127"/>
	<path id="path24" d="M125.7,103v19.8h2.8c1.6,0,2.5-0.6,2.5-2.2v-15.2c0-1.8-0.7-2.4-2.5-2.4H125.7z M91,131.8l-32.2-0.1L48.4,121
		V115h8.8V95.3l-23.1-21l-6.6,0l-8.9-9.2v-5.9h48L76,69.4l0,5.2l-5.5,0l8.8,8l19.1-13.8l-3.7-3.6v-5.9h28.8l9.5,6.4l0,9.3l-10.4,0
		l-17.5,12.7l28.6,0c13.3,0,31.7,9,31.6,26.3c0,10.8-5,15.4-11.1,19.4c1.8,2,11.6,6,11.6,19.9c0.1,14-11.7,22.8-22.9,22.8H93.6
		l-10.4-10.8v-6.7H91V131.8z M125.6,138.6v20h2.9c1.8,0,2.4-0.7,2.4-2.5l0-14.6c0-1.7-0.6-2.9-2.5-2.9H125.6"/>
	<path id="path26" class="st0" d="M115.9,93.5v29.9h12.7c2.5,0,3-1.4,3-2.8V96.4c0-2.2-1.1-2.9-3-2.9L115.9,93.5L115.9,93.5z
		 M115.9,128.9v30.3h12.7c2,0,3-1,3-3v-23.8c0-2.3-1-3.5-3-3.5H115.9z M91.6,159.2V93.5h-5.8v-5.3l48,0c12.8,0,22.4,7.2,22.8,20.6
		c0.2,6.9-3.8,14.2-10,18c5.9,4,10.3,7.8,10.3,18.1c-0.1,12.5-11.4,19.9-20.1,19.9H83.9v-5.5H91.6"/>
	<path id="path28" class="st0" d="M81.4,88.4v27.2H87v4.8H48.9v-4.8h8.8V94.1l-27-24.5l-5.5-5h-6v-4.8h46.9v4.8h-7.4l20.7,18.7
		l25.8-18.7h-9.8v-4.8H123v4.8h-8.7L81.4,88.4"/>
	<path id="path30" class="st0" d="M100,31.2l2.5,7.6h8l-6.5,4.7l2.5,7.6l-6.5-4.7l-6.5,4.7l2.5-7.6l-6.5-4.7h8L100,31.2"/>
	<path id="path32" d="M84.9,191.9l-2-0.3l1.3-7.5c-0.8,0.5-1.7,0.8-2.8,0.8l0.3-1.7c1.5,0,3-0.9,3.3-1.6l1.6,0.3L84.9,191.9"/>
	<path id="path34" d="M100.3,190.6l2-0.2c0.1,0.7,1.1,1.1,2,1c1.9-0.2,2-1.7,2.1-2.9c-0.6,0.6-1.7,0.9-2.6,1c-1,0-2-0.2-2.7-0.8
		c-0.8-0.6-1.2-1.4-1.2-2.4c0-1,0.3-1.9,1.1-2.5c0.8-0.7,1.6-1,2.8-1.1c3.3-0.1,4.5,2,4.6,5c0.1,3.1-0.8,5.3-4.2,5.4
		C102.4,193.1,100.7,192.1,100.3,190.6z M106.1,186c-0.1-1.3-1-1.9-2.3-1.8c-1.2,0-2,0.7-2,1.9c0.1,1.1,1,1.9,2.3,1.8
		C105.3,187.9,106.2,187.2,106.1,186"/>
	<path id="path36" d="M91.6,187.2c-0.6-0.2-1.1-0.5-1.4-0.9c-0.3-0.4-0.4-0.8-0.4-1.2c0-0.8,0.3-1.4,1-1.9c0.7-0.5,1.7-0.7,2.9-0.7
		c1.2,0,2.2,0.3,2.9,0.8c0.7,0.5,1,1.1,1,1.9c0,0.5-0.2,0.9-0.5,1.3c-0.3,0.4-0.8,0.6-1.3,0.8c0.7,0.2,1.3,0.6,1.6,1
		c0.4,0.4,0.6,0.9,0.6,1.5c0,0.9-0.4,1.7-1.2,2.3c-0.8,0.6-1.8,0.9-3.1,0.9c-1.2,0-2.2-0.3-3-0.8c-0.9-0.6-1.4-1.4-1.4-2.4
		c0-0.5,0.2-1.1,0.5-1.5C90.3,187.8,90.9,187.4,91.6,187.2z M91.7,185.1c0,1,1.1,1.4,2,1.4c0.8,0,1.9-0.3,1.9-1.3
		c0-1-1.1-1.3-1.9-1.3C93,183.9,91.7,184.1,91.7,185.1L91.7,185.1z M91.4,189.6c0,1.3,1.2,1.7,2.4,1.7c1.1,0,2.3-0.5,2.3-1.7
		c0-1.2-1.3-1.6-2.3-1.6C92.7,188,91.4,188.5,91.4,189.6"/>
	<path id="path38" d="M112.7,186.2c-0.7-0.1-1.2-0.3-1.5-0.6c-0.4-0.3-0.6-0.7-0.6-1.1c-0.1-0.7,0.1-1.4,0.7-2
		c0.6-0.6,1.5-1,2.7-1.2c1.2-0.2,2.2-0.1,3,0.3c0.8,0.4,1.2,0.9,1.3,1.7c0.1,0.5,0,0.9-0.3,1.3c-0.2,0.4-0.6,0.8-1.2,1
		c0.8,0.1,1.3,0.3,1.8,0.7c0.4,0.4,0.7,0.8,0.8,1.4c0.2,0.9-0.1,1.7-0.8,2.4c-0.7,0.7-1.6,1.2-2.9,1.4c-1.2,0.2-2.2,0.1-3-0.2
		c-1-0.4-1.6-1.1-1.8-2.1c-0.1-0.5,0-1.1,0.3-1.6C111.5,187.1,112,186.6,112.7,186.2z M112.4,184.2c0.2,1,1.4,1.1,2.2,1
		c0.8-0.1,1.9-0.6,1.7-1.6c-0.2-1-1.3-1.1-2.1-0.9C113.4,182.7,112.3,183.2,112.4,184.2z M112.8,188.7c0.2,1.3,1.5,1.5,2.7,1.3
		c1.1-0.2,2.1-0.9,1.9-2.1c-0.2-1.2-1.5-1.4-2.5-1.2C113.9,186.9,112.6,187.5,112.8,188.7"/>
	<path id="path40" d="M28.1,43.9l-2,2.4l1.7,1.4l2-2.4c0.5-0.5,0.7-1,0.7-1.3c0-0.3-0.1-0.6-0.4-0.8c-0.3-0.3-0.6-0.3-0.9-0.2
		C28.9,43.1,28.5,43.4,28.1,43.9L28.1,43.9z M31.1,50.5l2.3-2.7c0.5-0.6,0.7-1,0.7-1.3c0-0.3-0.1-0.6-0.5-0.9
		c-0.3-0.3-0.7-0.4-1-0.3c-0.3,0.1-0.7,0.4-1.1,0.9l-2.3,2.7L31.1,50.5z M31,53.9l-8.2-6.8l4.4-5.3c0.8-0.9,1.5-1.5,2.2-1.6
		c0.7-0.2,1.4,0,2.1,0.6c0.4,0.3,0.7,0.7,0.8,1.2c0.1,0.4,0.2,0.9,0,1.4c0.5-0.3,1.1-0.5,1.6-0.5c0.5,0,1.1,0.3,1.6,0.7
		c0.7,0.6,1.1,1.3,1.1,2.1c0,0.8-0.3,1.6-1,2.5L31,53.9"/>
	<path id="path42" d="M37,41.4l2-1.9l0.1,0.1c0.4,0.4,0.9,0.6,1.5,0.5c0.6-0.1,1.3-0.5,2-1.2c0.6-0.5,0.9-1,1.1-1.5
		c0.2-0.5,0.1-0.8-0.2-1.1C43.3,36,43,35.9,42.7,36c-0.3,0.1-0.8,0.4-1.5,0.9L39.7,38c-1.1,0.8-2.1,1.3-2.9,1.4
		c-0.8,0.1-1.5-0.2-2.1-0.8c-0.7-0.8-1-1.7-0.7-2.8c0.2-1.1,0.9-2.2,2.1-3.3c1.2-1.1,2.4-1.8,3.5-2c1.1-0.2,2,0.1,2.8,0.9l0.1,0.1
		l-1.9,1.8c-0.4-0.3-0.9-0.5-1.4-0.4c-0.5,0.1-1,0.4-1.6,1c-0.5,0.5-0.9,1-1.1,1.4c-0.2,0.4-0.1,0.8,0.2,1.1
		c0.2,0.2,0.5,0.3,0.7,0.3c0.3-0.1,0.8-0.4,1.6-1l1.6-1.2c1.1-0.8,2.1-1.3,2.9-1.3c0.8-0.1,1.5,0.2,2.2,0.9c0.8,0.9,1.1,1.9,0.8,3
		c-0.3,1.1-1.1,2.3-2.5,3.6c-1.3,1.2-2.5,1.9-3.7,2.1c-1.1,0.2-2.1-0.2-2.9-1.1L37,41.4"/>
	<path id="path44" d="M57.5,25.5c0.6,1.2,0.7,2.4,0.3,3.7c-0.5,1.3-1.4,2.4-2.8,3.4c-1.6,1.1-3.2,1.6-4.7,1.4
		c-1.5-0.2-2.8-1-3.8-2.3c-1-1.4-1.3-2.8-0.9-4.4c0.4-1.5,1.3-2.8,2.9-3.9c1.4-1,2.8-1.5,4.1-1.5c1.4,0,2.4,0.5,3.3,1.4L53.5,25
		c-0.5-0.4-1.1-0.6-1.7-0.6c-0.6,0-1.3,0.3-2,0.8c-0.9,0.6-1.4,1.3-1.5,2.2c-0.2,0.9,0.1,1.7,0.7,2.6c0.6,0.9,1.3,1.4,2.2,1.5
		c0.9,0.1,1.7-0.1,2.6-0.7c0.8-0.5,1.3-1.1,1.5-1.8c0.2-0.6,0.2-1.3-0.1-1.9L57.5,25.5"/>
	<path id="path46" d="M70,24.9l-1.3-4.4l-6.3-4.5l3.2-1l3.7,2.9l1.4-4.4l3.2-1l-2.7,7.2l1.3,4.4L70,24.9"/>
	<path id="path48" d="M82.3,19.4c1-0.2,1.8-0.7,2.3-1.5c0.5-0.7,0.6-1.6,0.3-2.6c-0.2-1-0.7-1.8-1.5-2.2c-0.7-0.5-1.6-0.6-2.7-0.3
		c-1,0.2-1.8,0.7-2.3,1.5c-0.5,0.7-0.6,1.6-0.3,2.7c0.2,1,0.7,1.8,1.5,2.2C80.3,19.5,81.2,19.6,82.3,19.4z M75.3,17.5
		c-0.4-1.7-0.1-3.1,0.8-4.4c0.9-1.3,2.3-2.1,4.2-2.5c1.9-0.4,3.5-0.3,4.9,0.4c1.4,0.7,2.2,1.9,2.6,3.6c0.4,1.7,0.1,3.1-0.8,4.4
		c-0.9,1.3-2.3,2.1-4.2,2.5c-1.9,0.4-3.5,0.3-4.9-0.4C76.5,20.4,75.6,19.2,75.3,17.5"/>
	<path id="path50" d="M91.5,9.3l0.4,5.7c0.1,1,0.3,1.8,0.8,2.2c0.5,0.4,1.2,0.6,2.2,0.6c0.5,0,1-0.1,1.3-0.3
		c0.4-0.2,0.7-0.4,0.9-0.7c0.2-0.2,0.3-0.5,0.3-0.8c0.1-0.3,0.1-0.8,0-1.4l-0.4-5.7l2.7-0.2l0.4,6c0.1,1.6-0.3,2.9-1.1,3.8
		c-0.9,0.9-2.2,1.4-4,1.5c-1.8,0.1-3.2-0.2-4.1-1c-1-0.8-1.5-2-1.6-3.6l-0.4-6L91.5,9.3"/>
	<path id="path52" d="M101.2,19.2L102,8.6l3.3,0.2l4.8,7.9l0.5-7.5l2.6,0.2L112.4,20l-3.2-0.2l-4.8-8l-0.5,7.6L101.2,19.2"/>
	<path id="path54" d="M118.7,22c-0.8-0.2-1.5-0.5-2.2-0.9c-0.7-0.4-1.2-0.9-1.6-1.4c-0.5-0.7-0.9-1.4-1-2.1
		c-0.2-0.8-0.1-1.6,0.1-2.5c0.4-1.7,1.3-2.9,2.6-3.6c1.4-0.7,3-0.9,4.9-0.4c1.6,0.4,2.9,1,3.8,2c0.9,1,1.3,2,1.2,3.2l-2.8-0.7
		c-0.1-0.6-0.4-1.2-0.8-1.6c-0.4-0.4-1-0.7-1.8-0.9c-1-0.2-1.9-0.1-2.7,0.3c-0.7,0.5-1.2,1.2-1.5,2.2c-0.2,1-0.1,1.9,0.3,2.6
		c0.5,0.7,1.2,1.2,2.3,1.5c0.7,0.2,2.1,0.3,3.6,0.2l0.3-1.1l-3.5-0.8l0.5-2.1l5.9,1.4l-1.1,4.5c-0.8,0.2-1.7,0.3-2.7,0.4
		C121,22.4,119.8,22.3,118.7,22"/>
	<path id="path56" d="M139.9,20.3l-2.8-1.4l-1,2l2.8,1.4c0.6,0.3,1.1,0.5,1.4,0.4c0.3,0,0.6-0.2,0.7-0.6c0.2-0.4,0.2-0.7,0-1
		C140.9,20.8,140.5,20.6,139.9,20.3z M134.2,24.7l3.2,1.6c0.6,0.3,1.1,0.5,1.4,0.4c0.3,0,0.6-0.3,0.7-0.6c0.2-0.4,0.2-0.7,0-1
		c-0.2-0.3-0.6-0.6-1.2-0.9l-3.2-1.6L134.2,24.7z M130.9,25.4l4.7-9.6l6.2,3c1.1,0.5,1.8,1.1,2.1,1.8c0.3,0.7,0.3,1.4-0.1,2.2
		c-0.2,0.5-0.5,0.8-0.9,1.1c-0.4,0.2-0.9,0.4-1.4,0.4c0.5,0.4,0.7,0.9,0.8,1.5c0.1,0.5,0,1.1-0.3,1.7c-0.4,0.9-1,1.4-1.8,1.6
		c-0.8,0.2-1.7,0.1-2.6-0.4L130.9,25.4"/>
	<path id="path58" d="M148.1,32.9c0.9,0.6,1.7,0.8,2.6,0.7c0.9-0.1,1.6-0.7,2.2-1.5c0.6-0.9,0.8-1.7,0.7-2.6
		c-0.2-0.9-0.7-1.6-1.5-2.2c-0.9-0.6-1.7-0.8-2.6-0.7c-0.9,0.1-1.6,0.7-2.2,1.5c-0.6,0.9-0.8,1.7-0.7,2.6
		C146.7,31.5,147.3,32.3,148.1,32.9z M144.9,26.4c1-1.4,2.2-2.2,3.8-2.4c1.5-0.2,3.1,0.3,4.7,1.4c1.6,1.1,2.6,2.4,2.9,3.9
		c0.4,1.5,0.1,2.9-0.9,4.3c-1,1.4-2.2,2.2-3.8,2.4c-1.5,0.2-3.1-0.3-4.7-1.4c-1.6-1.1-2.6-2.4-2.9-3.9
		C143.6,29.3,143.9,27.8,144.9,26.4"/>
	<path id="path60" d="M154.9,40.6l3.1-3.3l0.8-7.7l2.5,2.3l-0.7,4.6l4.5-1l2.5,2.3l-7.7,1.2l-3.1,3.3L154.9,40.6"/>
	<path id="path62" d="M164,43.4l1.7,2.1l-0.1,0.1c-0.5,0.4-0.7,0.9-0.6,1.5c0.1,0.6,0.5,1.3,1.1,2.1c0.5,0.6,1,1,1.4,1.2
		c0.4,0.2,0.8,0.1,1.2-0.1c0.3-0.2,0.4-0.5,0.3-0.8c0-0.3-0.3-0.8-0.8-1.5l-1-1.6c-0.8-1.2-1.2-2.2-1.2-3c0-0.8,0.3-1.5,1-2.1
		c0.8-0.7,1.8-0.8,2.9-0.5c1.1,0.3,2.1,1.1,3.1,2.3c1,1.3,1.6,2.5,1.7,3.6c0.1,1.1-0.3,2-1.1,2.7l-0.1,0.1l-1.7-2.1
		c0.4-0.4,0.5-0.8,0.5-1.3c-0.1-0.5-0.4-1.1-0.9-1.7c-0.5-0.6-0.9-1-1.3-1.2c-0.4-0.2-0.8-0.2-1.1,0.1c-0.2,0.2-0.3,0.4-0.3,0.7
		c0,0.3,0.3,0.8,0.8,1.6l1.1,1.7c0.7,1.2,1.1,2.1,1.1,3c0,0.8-0.3,1.5-1.1,2.1c-0.9,0.7-1.9,0.9-3,0.6c-1.1-0.4-2.2-1.3-3.4-2.7
		c-1.1-1.4-1.7-2.6-1.8-3.8c-0.1-1.2,0.3-2.1,1.3-2.9L164,43.4"/>
</g>
</svg>
