<?xml version="1.0" encoding="utf-8"?>
<!-- Generator: Adobe Illustrator 21.1.0, SVG Export Plug-In . SVG Version: 6.00 Build 0)  -->
<svg version="1.1" id="Layer_1" xmlns="http://www.w3.org/2000/svg" xmlns:xlink="http://www.w3.org/1999/xlink" x="0px" y="0px"
	 viewBox="0 0 200 200" style="enable-background:new 0 0 200 200;" xml:space="preserve">
<style type="text/css">
	.st0{fill:#008A57;}
	.st1{fill:#FFFFFF;}
</style>
<g>
	<path class="st0" d="M100,1.7c54.3,0,98.3,44,98.3,98.3c0,54.3-44,98.3-98.3,98.3c-54.3,0-98.3-44-98.3-98.3
		C1.7,45.7,45.7,1.7,100,1.7z"/>
	<path class="st1" d="M34.9,165.1c16.7,16.7,39.7,27,65.1,27c25.4,0,48.4-10.3,65.1-27c16.7-16.7,27-39.7,27-65.1
		c0-25.4-10.3-48.4-27-65.1c-16.7-16.7-39.7-27-65.1-27c-25.4,0-48.4,10.3-65.1,27c-16.7,16.7-27,39.7-27,65.1
		C7.9,125.4,18.2,148.4,34.9,165.1z"/>
	<path class="st0" d="M100,10.6c-49.4,0-89.4,40-89.4,89.4c0,49.4,40,89.4,89.4,89.4c49.4,0,89.4-40,89.4-89.4
		C189.4,50.6,149.4,10.6,100,10.6z"/>
	<path class="st1" d="M162.5,162.5c-16,16-38.1,25.9-62.5,25.9c-24.4,0-46.5-9.9-62.5-25.9c-16-16-25.9-38.1-25.9-62.5
		c0-24.4,9.9-46.5,25.9-62.5c16-16,38.1-25.9,62.5-25.9s46.5,9.9,62.5,25.9c16,16,25.9,38.1,25.9,62.5
		C188.3,124.4,178.5,146.5,162.5,162.5z"/>
	<path class="st0" d="M84.4,183.5l-1.9-0.4l2.4-12l-2.4,1l0.4-1.8c0.5-0.1,2.1-0.9,2.7-1.2l1.6,0.3L84.4,183.5z"/>
	<path class="st0" d="M94.7,177.1c2.1,0.4,2.5,2.1,2.3,3.9c-0.2,2.6-1.7,4.1-4.2,3.9c-2.5-0.2-3.7-1.9-3.5-4.5
		c0.2-1.9,0.8-3.5,2.9-3.5l0,0c-1.7-0.5-2.4-1.9-2.2-3.6c0.2-2.3,1.7-3.5,4-3.3c2.2,0.2,3.6,1.6,3.4,3.9
		C97.4,175.6,96.5,176.9,94.7,177.1L94.7,177.1z M95.2,180.9c0.1-1.3,0.1-2.9-1.7-3.1c-1.8-0.1-2.1,1.5-2.2,2.8
		c-0.1,1.2,0.3,2.6,1.7,2.7C94.5,183.4,95.1,182.1,95.2,180.9 M95.6,173.7c0.1-1.1-0.4-2.2-1.6-2.3c-1.2-0.1-1.9,0.9-2,2
		c-0.1,1.1,0.1,2.6,1.6,2.7C95,176.3,95.5,174.8,95.6,173.7"/>
	<path class="st0" d="M105.5,177.1c2.1,0.1,2.7,1.7,2.9,3.6c0.1,2.6-1.1,4.3-3.6,4.4c-2.5,0.1-3.9-1.4-4.1-4
		c-0.1-1.9,0.3-3.5,2.4-3.9v0c-1.7-0.2-2.6-1.6-2.7-3.2c-0.1-2.3,1.2-3.7,3.5-3.8c2.3-0.1,3.8,1.1,3.9,3.4
		C107.9,175.2,107.1,176.6,105.5,177.1L105.5,177.1L105.5,177.1z M106.4,180.8c-0.1-1.3-0.3-2.9-2.1-2.8c-1.8,0.1-1.8,1.8-1.8,3
		c0.1,1.2,0.6,2.5,2.1,2.5C106.1,183.4,106.5,182,106.4,180.8 M105.9,173.6c-0.1-1.1-0.7-2.1-1.9-2.1c-1.2,0.1-1.7,1.2-1.7,2.2
		c0.1,1.1,0.5,2.6,1.9,2.5C105.7,176.2,105.9,174.7,105.9,173.6"/>
	<path class="st0" d="M116.1,175.6c2.1-0.2,3,1.3,3.3,3.1c0.5,2.5-0.5,4.4-3,4.8c-2.5,0.5-4.1-0.8-4.6-3.4c-0.4-1.8-0.1-3.6,1.9-4.2
		l0,0c-1.7,0-2.8-1.2-3.1-2.8c-0.4-2.2,0.7-3.8,2.9-4.2c2.2-0.4,3.9,0.6,4.3,2.8C118.2,173.4,117.7,174.9,116.1,175.6L116.1,175.6z
		 M117.6,179.1c-0.2-1.3-0.7-2.9-2.5-2.5c-1.7,0.3-1.6,2-1.3,3.3c0.2,1.2,1,2.4,2.4,2.1C117.6,181.8,117.8,180.4,117.6,179.1
		 M116,172.1c-0.2-1.1-1-2-2.2-1.8c-1.2,0.2-1.5,1.4-1.3,2.5c0.2,1,0.9,2.5,2.3,2.2C116.2,174.7,116.2,173.1,116,172.1"/>
	<path class="st0" d="M100,32.2c-37.5,0-67.8,30.4-67.8,67.8c0,37.5,30.4,67.8,67.8,67.8c37.5,0,67.8-30.4,67.8-67.8
		C167.8,62.5,137.5,32.2,100,32.2z"/>
	<path class="st1" d="M147.2,147.2c-12.1,12.1-28.8,19.6-47.2,19.6c-18.4,0-35.1-7.5-47.2-19.6c-12.1-12.1-19.6-28.8-19.6-47.2
		c0-18.4,7.5-35.1,19.6-47.2C64.9,40.7,81.6,33.2,100,33.2c18.4,0,35.1,7.5,47.2,19.6c12.1,12.1,19.6,28.8,19.6,47.2
		C166.8,118.4,159.3,135.1,147.2,147.2z"/>
	<path class="st0" d="M100,36c-35.3,0-64,28.6-64,64c0,35.3,28.6,64,64,64c35.3,0,64-28.6,64-64C164,64.7,135.3,36,100,36z"/>
	<path class="st1" d="M143,143c-11,11-26.2,17.8-43,17.8c-16.8,0-32-6.8-43-17.8c-11-11-17.8-26.2-17.8-43c0-16.8,6.8-32,17.8-43
		c11-11,26.2-17.8,43-17.8c16.8,0,32,6.8,43,17.8c11,11,17.8,26.2,17.8,43C160.9,116.8,154.1,132,143,143z"/>
	<path class="st0" d="M150.6,107c-7.6-6.1-19.4-2.9-27.5,0.2c-3.1,0.8-7.5,2.9-9.8-0.5c-0.9-1.6-0.7-3.2-0.2-4.9
		c1.1-2.7,3.6-2.9,6.1-3.2c10.8,1.7,24.1,2.8,31.4-5.9c3.3-3.9,4.5-9.7,3.3-14.9c-1.5-5.4-6.9-9.2-11.2-11.8
		c-6.5-2.2-7.6-10.2-13.3-13.8c-5.6-3.5-13.3-3.8-19-0.4c-8.5,5.9-5,17.2-4.9,26.1c-0.1,3.5,0.4,7.8-2.1,10.5
		c-0.9,0.6-2.1-0.1-2.4-0.9c-3.9-9,0.9-21.6-4.9-29.8c-1.9-4.1-4.1-8.2-8.1-11c-7.6-2.3-14.6,2.6-18.7,7.9
		c-4.6,10.4-20.7,8.3-23.2,20.8c-1,5,0,10.2,3.4,13.7c9.5,10.2,24.8,2.4,37.1,4.5c1,0.5,2.6,1.8,2.3,3.3c-0.2,1.8-1.2,3-2.5,3.9
		c-11.9,6.5-28.4-5.6-37.3,6c-2.5,3.3-3.9,7.5-3,11.7c1,8.4,10.8,10.8,15.3,16.6c2.3,3.9,4.9,8.6,7.9,11.4c4.8,4.1,12,6.1,18.4,4.1
		c8.6-6,5.7-20.1,3.9-28.9c-0.5-1.6-0.1-3.4,1-4.3c1.3-0.8,3.3-0.9,4.1,0.7c1.8,7.5,0,15.7-0.7,23.2c-1.3,4.4-2.1,9.8-6.3,12.2
		c4.1,0.5,9,0.7,12.8,0.6c-3-10.9-0.8-23.4-0.4-34.7c0.6-1,1.4-2.6,3-1.7c1.8,0.8,2,2.6,2.1,4.2c-0.8,6.9-3.3,14.6-0.7,21.4
		c2.6,6,9,8.6,15.4,8.2c6.1,0.3,9.7-3.9,12.5-8.9c4.5-7.3,14.3-7.6,18.4-15.8C155,120.9,156.2,111.5,150.6,107z"/>
	<path class="st1" d="M151,115.6c-10.5,1.1-20.6,3.9-29.8,8.4c-0.7-0.6-2.2-1.5-2.8-2.6c10-4.2,20.3-7.9,31.9-8.4L151,115.6z"/>
	<path class="st1" d="M149.1,110.7c-11.2,1.3-22.1,4.4-32.1,9l-2.4-2.5c6.7-3,14.4-4.8,21.6-6.8l9.8-2.3
		C147.3,108.7,148.2,110,149.1,110.7z"/>
	<path class="st1" d="M120.2,110.9c7.5-1.9,14.7-6.3,22.8-4.2c-9.7,2-20,5.4-29.8,8.5c-1.5-1.6-2.4-3.3-3.2-5.2
		C113.5,109.5,116.5,112.6,120.2,110.9z"/>
	<path class="st1" d="M116.3,96c0.6-0.9,2.2-1.9,3.2-2.8c6.3,1.8,13.3,2,20.1,2.6C133.1,100.9,124.2,95.7,116.3,96z"/>
	<path class="st1" d="M142.6,94.6c-4.3-1.1-9.3-0.8-13.8-1.8l-7.1-1.2l1.8-1.6c7.1,1.3,14.9,1.2,22.5,1.8
		C145.2,93.1,143.9,93.5,142.6,94.6z"/>
	<path class="st1" d="M148,90c-7.7-0.2-15.2-0.8-22.6-1.9c2.2-3.4,6.6-0.3,9.9-1.2c5.6,0.4,10.6-0.7,15.8-1.1
		C150.7,87.4,149.4,88.9,148,90z"/>
	<path class="st1" d="M151.9,83.4c-7.3,1.3-15.3,2-22.9,1.2c0.4-4.1,5.4-1.3,8-2.4c5.1-0.5,9.3-1.2,14.2-2.3
		C151.7,81,151.7,82.3,151.9,83.4z"/>
	<path class="st1" d="M150.5,77.9c-5.8,1.7-12,2.3-18.3,2.5l1.7-3.2c5.1,0,10.5,0.1,14.9-1.7C149.7,75.8,150.1,77.1,150.5,77.9z"/>
	<path class="st1" d="M136.5,64.9l5.7,3.9c-1.7,0.9-3.6,1.3-5.7,1.1V64.9z"/>
	<path class="st1" d="M143.8,70.1c1.7,0.7,2.8,2.1,3.9,3.7c-3.9,1.2-8.4,1.5-12.7,1.1l0.9-2.7C138.6,71.9,141.7,72,143.8,70.1z"/>
	<path class="st1" d="M128.8,55.5c4.5,2.3,1.3,8,3.3,11.4c-0.6,1.6-1.2,3.4-2.4,4.3C127.7,66.5,128.8,60.9,128.8,55.5z"/>
	<path class="st1" d="M123.5,52.9l3.3,1.1c0,6.3-1.1,13.6,1.7,19.1c0,1.2-1.2,2.3-1.9,3.1C123.9,69.4,123.4,61.2,123.5,52.9z"/>
	<path class="st1" d="M118.9,52.2l2.5,0.2c0,9.1,0.5,18,3.5,25.9c-1,1.1-1.6,2.2-2.8,2.8C118,72.7,118.4,62.1,118.9,52.2z"/>
	<path class="st1" d="M116.7,52.2c-0.4,10.3-0.7,21.5,3.9,30.2c-0.4,0.9-1.9,2.4-3,2.9c-3.2-5.5-3.8-12.3-4.3-19.2L113,53.7
		C114.1,52.8,115.3,52.3,116.7,52.2z"/>
	<path class="st1" d="M110.7,55.9c0.6,10.7,0.6,22.1,5.1,31.2l-2.5,1.5c-2.6-4.1-5.4-8.5-5-14C107.2,68.5,106.1,60.6,110.7,55.9z"/>
	<path class="st1" d="M111.4,89.7l-3.8,2.2c-0.2-2.2,0.9-4.6,1-7L111.4,89.7z"/>
	<path class="st1" d="M97.2,75.7l0.2,9.5C93.1,83,97,79.1,97.2,75.7z"/>
	<path class="st1" d="M92.8,58.3c1.7,3.2,2.5,6.7,3.4,10.2c-1.2,3.7-1.2,8-2.3,11.9l-2.6-2.6L92.8,58.3z"/>
	<path class="st1" d="M90.9,55c-0.7,6.4-0.6,13.5-1.4,20.3l-3-2.8c0.2-8.1-0.2-15.5-0.3-23.3C88.6,50,90.1,52.9,90.9,55z"/>
	<path class="st1" d="M83.7,48.9c0.8,6.9,0.8,14.3,0.7,21.5c-0.8-0.5-2.4-1.4-2.8-2.6c0.1-6-0.5-12.2-1-18.2
		C81.5,49.1,82.7,49,83.7,48.9z"/>
	<path class="st1" d="M78.5,50.4c0.5,5.4,1.1,11.2,1.1,16.4l-2.8-1.5l-1.3-13.5C76.2,51.1,77.5,50.8,78.5,50.4z"/>
	<path class="st1" d="M73.4,53.4c0.7,3.2,0.9,7,1.3,10.6c-4.7,0.9-2.8-4-4.3-6.5L73.4,53.4z"/>
	<path class="st1" d="M69,60.2c0.2,0.8,0.3,1.7,0.4,2.5h-2.3L69,60.2z"/>
	<path class="st1" d="M63,65.7l-9.6,4C56,67.2,59.8,67,63,65.7z"/>
	<path class="st1" d="M52.2,72.7c4.6-2.3,9.1-4.6,14.2-5.8c1.1,0,2.1,0.6,2.8,1.1c-6.5,2.8-13.1,5.4-19.3,8.9
		C49.6,75.5,50.2,73.1,52.2,72.7z"/>
	<path class="st1" d="M49.6,79.8c6.8-4.6,14.4-7.4,22-10.3c1.2,0.5,2,1,3,1.9c-8.5,3.3-16.8,7.6-24.4,12.7
		C49.5,82.9,49.6,81.1,49.6,79.8z"/>
	<path class="st1" d="M51.1,86.3c7.2-5.9,16.4-10,25.4-13c1.1,0.3,2.5,1.7,3.2,2.7c-9.9,1.6-19.1,6.1-26.7,12.2L51.1,86.3z"/>
	<path class="st1" d="M54.5,89.7c8-6.4,16.7-10.7,27-11.9c1.1,0.3,1.7,1.3,2.6,2.4c-9,1.7-17.2,5.7-24,11.6
		C58.1,91.3,56,91,54.5,89.7z"/>
	<path class="st1" d="M62.9,92.1c6.3-4.9,14.2-9.2,23.1-9.6l2.2,2.8v0.3c-6.4,0.5-12.4,2.8-17.5,6.3L62.9,92.1z"/>
	<path class="st1" d="M76,91.2c3.9-2.5,9.1-3.7,14-3.1l1.9,3.5v0.3C87,90.3,81.4,90.7,76,91.2z"/>
	<path class="st1" d="M82.8,104.9c-1.2,0.6-2,2.8-3.3,1.6l-1.6-1.1C79.4,104.9,81.3,105.4,82.8,104.9z"/>
	<path class="st1" d="M72.2,104.8c0.8,2.4,4.5,1.3,6.1,3.3h0.2c-2.2,3.9-6.3-0.8-9.7-0.5c-4.6-0.8-9.1-1.6-14-1.6
		C59.6,102.9,66.6,103.5,72.2,104.8z"/>
	<path class="st1" d="M51.8,108.1c8-0.3,15.8,0.8,23,3.3c0.1,0.6-0.6,0.9-0.9,1.3c-7.6-1.3-16.3-2.2-24-0.7
		C49.8,110.5,51,109.1,51.8,108.1z"/>
	<path class="st1" d="M49.6,116.1c-0.7-2.8,2.9-2.3,4.7-2.6c5.9-0.5,11.9,0.1,17.5,0.9c0.2,0.7-0.8,1.7-1.5,2.3
		C63.7,115.7,56.3,115.5,49.6,116.1z"/>
	<path class="st1" d="M49.9,118.4c6-0.8,13.1-0.9,18.9,0.2c-0.3,3.3-2.9,1-5,1.2c-4.6-0.5-9.2-0.1-12.9,1.9
		C50.3,120.8,49.8,119.7,49.9,118.4z"/>
	<path class="st1" d="M63.8,133.1c-0.6,0.1-1.3-1.1-1.9-1.4c0.4-0.6,1-0.4,1.7-0.7C64.4,131.4,63.6,132.4,63.8,133.1z"/>
	<path class="st1" d="M60.2,130.3c-1.2-0.5-1.4-1.6-2.8-2.1c2-0.9,4.2-1.2,6.7-1C65.4,130.1,61,128.2,60.2,130.3z"/>
	<path class="st1" d="M55.4,126.8l-3.2-3c3.7-2.5,9.4-2.4,14-1.4c0.4,1-0.8,1.8-0.9,2.8C61.9,124.9,58.2,125.1,55.4,126.8z"/>
	<path class="st1" d="M71.6,143.8c-1.6-1.1-2.3-2.4-3-3.9c0.5-2.4,0.7-5.6-0.1-7.9l1.7-3.3C72,132.9,71.9,138.6,71.6,143.8z"/>
	<path class="st1" d="M75.7,147.1c-4.7-1-0.5-5.8-2.1-8.9c0-4.3-0.4-8-1.9-11.8l2.1-2.9C76.1,130.5,76.4,139.5,75.7,147.1z"/>
	<path class="st1" d="M81.8,148.4c-1.3,0.4-2.8,0-4-0.4c0.6-8,0.6-18.4-2.3-26.3l1.9-2.4l0.7,0.7C80.1,129.3,82.2,138.3,81.8,148.4z
		"/>
	<path class="st1" d="M83.9,147.8c-0.1-10.6-1.5-20.8-4.7-30.1l2.1-2.1c3.2,9.7,4.5,20.3,5.4,31C85.9,147.2,85,148,83.9,147.8z"/>
	<path class="st1" d="M88.8,144.3c-1.7-9.9-2.6-20.6-5.6-30.1l2.8-2.3c2,3.2,2,6.5,2.4,10.5C89.5,129.3,93,137.7,88.8,144.3z"/>
	<path class="st1" d="M89.3,114.7c0.2-1.8-2.9-3.7-0.2-4.9c0.8-0.6,1.9-0.9,2.8-1.2C92.2,111,90.9,113.3,89.3,114.7z"/>
	<path class="st1" d="M110.7,143.8c-5.7-5.8-0.2-13.6-0.3-20.3l1,1C110.4,131,111.2,137.5,110.7,143.8z"/>
	<path class="st1" d="M113,146.2c0.1-7-0.3-12.7,0.3-19.8l3,2.8c-0.3,6.4-0.2,12.9,0.6,19.1C115.3,148.3,114.3,147,113,146.2z"/>
	<path class="st1" d="M118.9,149.2c-0.7-5.9-0.7-12.1-0.7-18.2c1.1,0.8,3,1.1,3.5,2.6c0.1,5.3,0.5,10.4,1.8,15.1
		C121.9,148.8,120.4,149.7,118.9,149.2z"/>
	<path class="st1" d="M125.3,147.7c-1.3-4.1-1.4-9-1.3-13.5l4.1,1.9c-0.1,2.7-0.2,5.5,1.5,7.5C128.6,145,127.2,147.2,125.3,147.7z"
		/>
	<path class="st1" d="M131,141.7c-1.1-0.8-0.8-3.6-0.9-5.2l4.7,0.1L131,141.7z"/>
	<path class="st1" d="M108.9,119.3c-3.3-4.8-6.8-9.5-9.5-15.1c-15.3,3.7-27.7,16.5-33.7,30.4c-1.6-10.4,5.9-17.6,12.6-24.2
		c5.4-4.6,11.4-8.4,17.5-11.4c-3.4-14.9-16.5-28.7-30.6-34.5c7.2-1.4,13.5,3.3,18.6,7.5l8,8.6c3.6,4.6,6.6,9.4,9.2,14.7
		c13.3-2.5,23-12.3,30.1-23.1c1.1-2.5,2.9-4.7,3.4-7.4c1.1,4-0.4,8.6-2.3,12.1c-6.1,10.6-17.3,18.5-27.6,23.9
		c4.4,16,16.3,27.9,30.8,34.1C123.7,136.6,115.7,126.7,108.9,119.3z"/>
	<path class="st1" d="M139.3,134.2c-1.9-0.3-3.7-0.6-5.3-1.5c3.7-3.2,9-4,14-4.9C145.6,130.5,142.3,132.5,139.3,134.2z"/>
	<path class="st1" d="M149.7,125.6c-6.3,0.6-12.8,2.1-17.8,6c-1.3-0.5-2.7-1.2-3.7-2.3c6.9-3.6,14.6-5.6,22.7-6.7
		C150.8,123.9,150.3,124.7,149.7,125.6z"/>
	<path class="st1" d="M151.2,120.7c-8.9,1.1-17.4,3.1-25,7.5c-1-0.7-2.9-1.7-3.2-2.8c8.7-4.1,18.1-6.4,28.2-7.5L151.2,120.7
		L151.2,120.7z"/>
	<path class="st0" d="M47.9,161.3c3.3,2.8,1.7,3.5,3.1,4.7c0.8,0.7,2.1-1.1,2.7-1.8c0.7-0.7,3.1-1.3,5.2,0.4
		c3.4,2.8,2.3,10.1,2.6,10.3c0.3,0.2,0.9-0.2,2.6-1.1c3.1-1.8,7.3-1.3,11.3-0.9c-0.1-1.6-2.1-2.7-3.2-2.7c-1.1,0-4.3-0.1-6.5-0.6
		c-1.6-3-1.7-6.7-4-8.5c-2.6-2.1-5,0.3-6.8-1.3c-2.3-2,0.2-4.2-1.3-5.4c-1.5-1.2-3.2,1.6-5.6-0.3c-1.8-1.5,0-4.3-2.4-6.5
		c-2.2-1.9-5.9-1.4-9.1-2.4c-0.9-2.2-1.6-5.2-1.8-6.3c-0.2-1.1-1.7-2.8-3.2-2.7c1.2,3.9,2.4,8,1.1,11.3c-0.7,1.8-0.9,2.5-0.7,2.8
		c0.3,0.2,7.3-2.1,10.6,0.7c2.1,1.7,1.9,4.3,1.3,5.1c-0.6,0.8-2.1,2.4-1.3,3C44.2,160.3,44.6,158.6,47.9,161.3"/>
	<path class="st0" d="M152.1,161.3c-3.3,2.8-1.7,3.5-3.1,4.7c-0.8,0.7-2.1-1.1-2.7-1.8c-0.7-0.7-3.1-1.3-5.2,0.4
		c-3.4,2.8-2.3,10.1-2.6,10.3c-0.3,0.2-0.9-0.2-2.6-1.1c-3.1-1.8-7.3-1.3-11.3-0.9c0.1-1.6,2.1-2.7,3.2-2.7c1.1,0,4.3-0.1,6.5-0.6
		c1.6-3,1.7-6.7,4-8.5c2.6-2.1,5,0.3,6.8-1.3c2.3-2-0.2-4.2,1.3-5.4c1.5-1.2,3.2,1.6,5.6-0.3c1.8-1.5,0-4.3,2.4-6.5
		c2.2-1.9,5.9-1.4,9.1-2.4c0.9-2.2,1.6-5.2,1.8-6.3c0.2-1.1,1.7-2.8,3.2-2.7c-1.2,3.9-2.4,8-1.1,11.3c0.7,1.8,0.9,2.5,0.7,2.8
		c-0.3,0.2-7.3-2.1-10.6,0.7c-2.1,1.7-1.9,4.3-1.3,5.1c0.6,0.8,2.1,2.4,1.3,3C155.8,160.3,155.4,158.6,152.1,161.3"/>
	<polygon class="st0" points="14.5,92.3 16.2,92.3 16.1,96.2 29.4,96.7 29.3,98.6 16,98.1 15.9,102.1 14.2,102 	"/>
	<polygon class="st0" points="29.7,91.2 15,88.4 15.3,86.6 21.7,87.8 22.7,82.6 16.3,81.4 16.7,79.5 31.4,82.3 31,84.2 24.3,82.9 
		23.3,88.1 30,89.3 	"/>
	<polygon class="st0" points="32.2,79.5 18.1,74.5 20.7,67.3 22.3,67.8 20.3,73.3 24.8,74.9 26.6,69.8 28.2,70.4 26.4,75.5 
		31.3,77.2 33.3,71.6 34.8,72.2 	"/>
	<path class="st0" d="M31.8,55.1c-0.7-0.5-1.5-0.9-2.1-0.8c-0.6,0.1-1.2,0.8-1.4,1.1c-0.8,1.3-0.3,2.4-0.2,2.5
		c0.1,0.1,0.2,0.7,2.4,2l3.4,2.1c3.1,1.9,4.1,1.1,4.9-0.1c0.3-0.5,1.1-2.1-1.4-3.6l1-1.7c4.1,2.4,2.3,5.2,1.8,6.1
		c-1,1.6-2.6,4-7.5,0.9l-3.6-2.2c-3.6-2.2-3.6-4.4-2.1-6.9c1.6-2.5,3.5-2.7,5.8-1L31.8,55.1z"/>
	<polygon class="st0" points="43.6,57.2 32.1,47.6 37.1,41.7 38.3,42.8 34.6,47.2 38.3,50.3 41.7,46.2 43,47.3 39.6,51.4 43.5,54.7 
		47.3,50.2 48.6,51.2 	"/>
	<polygon class="st0" points="50.1,49.8 40,38.8 41.4,37.5 50.4,47.3 54.4,43.6 55.5,44.8 	"/>
	<polygon class="st0" points="52.9,28.2 53.9,29.6 50.8,31.9 58.7,42.6 57.1,43.7 49.2,33.1 46.1,35.4 45.1,34.1 	"/>
	<rect x="59.6" y="25" transform="matrix(0.8627 -0.5058 0.5058 0.8627 -8.1239 35.0675)" class="st0" width="1.9" height="15"/>
	<path class="st0" d="M69.5,24.3c-0.3-0.8-0.7-1.5-1.3-1.8c-0.6-0.3-1.4-0.1-1.8,0.1c-1.4,0.6-1.6,1.8-1.6,2c0,0.2-0.2,0.7,0.9,3
		l1.6,3.7c1.5,3.4,2.7,3.3,4.1,2.7c0.5-0.2,2.1-1.1,0.9-3.8l1.8-0.8c2,4.3-1.1,5.6-2,6c-1.7,0.7-4.4,1.8-6.7-3.5l-1.7-3.9
		C62.1,24,63.3,22.2,66,21c2.7-1.2,4.4-0.2,5.4,2.5L69.5,24.3z"/>
	<polygon class="st0" points="82.1,31.5 78.9,16.9 86.2,15.3 86.5,16.9 81.2,18.1 82.2,22.8 87.3,21.7 87.6,23.3 82.5,24.4 
		83.9,31.1 	"/>
	<path class="st0" d="M90.3,24.3L90,19.4c-0.2-3,1.2-5,4.4-5.2c3.2-0.2,4.8,1.6,5,4.6l0.3,4.9c0.3,4.1-1.2,5.9-4.3,6.1
		C92.2,29.9,90.6,28.4,90.3,24.3 M97.7,23.9l-0.3-5c-0.2-3.1-2.4-3.1-3-3c-0.6,0-2.7,0.3-2.5,3.4l0.3,5c0.2,3.3,1.2,4,3,3.9
		C97.1,28,98,27.1,97.7,23.9"/>
	<path class="st0" d="M103.2,23.7l0.5-4.9c0.3-3,2-4.7,5.2-4.4c3.2,0.3,4.5,2.4,4.2,5.3l-0.5,4.9c-0.4,4.1-2.1,5.6-5.3,5.3
		C104.2,29.6,102.8,27.9,103.2,23.7 M110.6,24.6l0.5-5c0.3-3.1-1.8-3.4-2.4-3.5c-0.6-0.1-2.8-0.2-3.1,2.9l-0.5,5
		c-0.3,3.3,0.5,4.2,2.3,4.4C109.3,28.6,110.3,27.8,110.6,24.6"/>
	<polygon class="st0" points="125.7,18.1 125.3,19.7 121.5,18.8 118.3,31.7 116.4,31.2 119.7,18.3 115.8,17.3 116.2,15.7 	"/>
	<path class="st0" d="M123.6,33.2l5.9-13.8l4.5,1.9c1.9,0.8,2.3,1.7,2.5,2.7c0.2,0.9-0.1,1.8-0.2,2.1c-0.7,1.7-1.8,2.6-3.7,2.3
		l0,0.1c1.9,1.1,2.2,2.6,1.4,4.5c-1.5,3.5-4.2,2.8-5.8,2.1L123.6,33.2z M126,32.4l2.5,1.1c1.9,0.8,3.1-0.3,3.5-1.3
		c0.9-2.2-0.3-3.1-2-3.9l-1.9-0.8L126,32.4z M128.7,25.9l2.6,1.1c1.4,0.6,2.4,0,3-1.3c0.5-1.1,0.2-2.4-1.2-3l-2.5-1.1L128.7,25.9z"
		/>
	<path class="st0" d="M145.3,27.3l2,1.3l-4,15.2l-1.8-1.2l1-3.6l-4.9-3.1l-2.9,2.4l-1.6-1L145.3,27.3z M145.3,29.4L145.3,29.4
		l-6.3,5.4l4,2.6L145.3,29.4z"/>
	<polygon class="st0" points="144.3,44.8 154.2,33.6 155.6,34.8 146.9,44.8 151,48.5 149.9,49.7 	"/>
	<polygon class="st0" points="151.1,51 162.3,41.1 163.5,42.5 153.6,51.3 157.2,55.4 156,56.5 	"/>
	<path class="st0" d="M171.9,61.5c0.7-0.4,1.4-0.9,1.7-1.5c0.2-0.6-0.1-1.4-0.3-1.8c-0.8-1.4-1.9-1.4-2.1-1.4
		c-0.2,0-0.7-0.1-2.9,1.2l-3.5,2c-3.2,1.8-3,3.1-2.2,4.4c0.3,0.5,1.3,1.9,3.9,0.5l1,1.7c-4,2.4-5.7-0.5-6.2-1.3
		c-0.9-1.6-2.3-4.1,2.8-7l3.7-2.1c3.7-2.1,5.6-1.1,7.1,1.5c1.5,2.6,0.7,4.3-1.9,5.6L171.9,61.5z"/>
	<polygon class="st0" points="164.5,70.8 178.4,65.2 179.1,67 166.8,72 168.8,77.1 167.3,77.7 	"/>
	<path class="st0" d="M182.2,75.3l0.4,1.9l-9.3,2.2c-3.2,0.8-3.8,1.9-3.3,3.7c0.4,1.8,1.5,2.5,4.6,1.8l9.3-2.2l0.4,1.9l-9.2,2.2
		c-4,1-6-0.1-6.7-3.2c-0.7-3.1,0.5-4.9,4.5-5.9L182.2,75.3z"/>
	<path class="st0" d="M170.3,90.8l14.9-1l0.3,4.9c0.1,2.1-0.5,2.8-1.3,3.4c-0.8,0.6-1.7,0.7-1.9,0.7c-1.9,0.1-3.1-0.4-3.7-2.3
		l-0.1,0c-0.1,2.1-1.3,3.2-3.4,3.3c-3.8,0.3-4.4-2.5-4.5-4.2L170.3,90.8z M172,92.6l0.2,2.7c0.1,2,1.6,2.7,2.7,2.6
		c2.4-0.2,2.7-1.7,2.6-3.6l-0.1-2L172,92.6z M179,92.1l0.2,2.8c0.1,1.5,1.1,2.2,2.5,2.1c1.2-0.1,2.2-0.9,2.1-2.4l-0.2-2.7L179,92.1z
		"/>
</g>
</svg>
