<?xml version="1.0" encoding="utf-8"?>
<!-- Generator: Adobe Illustrator 21.1.0, SVG Export Plug-In . SVG Version: 6.00 Build 0)  -->
<svg version="1.1"
	 id="svg2" xmlns:cc="http://creativecommons.org/ns#" xmlns:dc="http://purl.org/dc/elements/1.1/" xmlns:rdf="http://www.w3.org/1999/02/22-rdf-syntax-ns#" xmlns:svg="http://www.w3.org/2000/svg"
	 xmlns="http://www.w3.org/2000/svg" xmlns:xlink="http://www.w3.org/1999/xlink" x="0px" y="0px" viewBox="0 0 200 200"
	 style="enable-background:new 0 0 200 200;" xml:space="preserve">
<style type="text/css">
	.st0{fill:#00099E;}
	.st1{fill:#FFFFFF;}
	.st2{fill:#1B1918;}
	.st3{fill:#A49ECA;}
</style>
<g id="Layer1000">
	<path id="path5" class="st0" d="M27.5,121.3l1.6,4.6l2.3-0.1l1.3,4l-14.4-0.7l-1.5-4.3l11.4-9l1.4,4.1L27.5,121.3L27.5,121.3z
		 M25.1,123.1l-4.1,2.9l5.1-0.1L25.1,123.1z"/>
	<path id="path7" class="st0" d="M13.7,109.6c-0.2-2.3,0.2-4,1.3-5.4c1.1-1.3,2.7-2.1,4.9-2.3c2.3-0.2,4.1,0.2,5.4,1.3
		c1.3,1.1,2.1,2.7,2.3,4.9c0.2,2.4-0.2,4.3-1.4,5.6c-1.2,1.3-2.8,2-4.9,2.2c-2.2,0.2-3.9-0.2-5.3-1.3
		C14.7,113.5,13.9,111.9,13.7,109.6z M24.5,108.5c-0.1-0.9-0.5-1.6-1.1-2c-0.6-0.4-1.7-0.6-3.2-0.4c-2.5,0.2-3.6,1.3-3.4,3.2
		c0.2,1.9,1.6,2.7,4.2,2.4C23.5,111.5,24.7,110.4,24.5,108.5z M21.7,106.9l0.4,3.7l-2.5,0.2l-0.4-3.7L21.7,106.9z"/>
	<path id="path9" class="st0" d="M27.7,85.7L27.4,90l-10.2,2.2l9.6,3.8l-0.3,4.2l-13-6l0.3-4.6L27.7,85.7L27.7,85.7z"/>
	<path id="path11" class="st0" d="M15.2,79.7l1.5-4l4.3,1.6l1.6-4.4l-4.5-1.5l1.4-4l12.7,4.4l-1.4,4L25.8,74l-1.5,4.4l5.1,1.7
		l-1.3,4L15.2,79.7L15.2,79.7z"/>
	<path id="path13" class="st0" d="M21.1,63.2l6.6-10.9l2.9,1.8l-2.2,3.7l8.8,5.2L35,66.5l-8.7-5.2l-2.2,3.6L21.1,63.2z"/>
	<path id="path15" class="st0" d="M29.8,49l2.6-3.3L43,54.2l-2.6,3.3L29.8,49L29.8,49z"/>
	<path id="path17" class="st0" d="M35.4,41.8l3.1-2.9l3.4,3.8L41.7,36l4.1-3.9l0,7.1l9.5,2.6l-3.8,3.5l-5.8-2.1l-0.1,3.2l2.2,2.3
		l-3.2,2.9L35.4,41.8z"/>
	<path id="path19" class="st0" d="M52.1,35.6c-1.1-1.9-1.5-3.7-1.1-5.4c0.4-1.7,1.6-3.1,3.5-4.2c1.9-1.2,3.7-1.5,5.4-1.1
		c1.7,0.4,3.1,1.6,4.2,3.4c0.8,1.4,1.3,2.6,1.3,3.7c0.1,1.1-0.2,2.2-0.8,3.2c-0.6,1-1.5,1.9-2.8,2.7c-1.3,0.8-2.5,1.2-3.6,1.3
		c-1.1,0.1-2.2-0.1-3.3-0.7C53.9,38,53,37,52.1,35.6L52.1,35.6z M55.7,33.5c0.7,1.2,1.4,1.9,2.2,2.1c0.7,0.3,1.5,0.2,2.2-0.3
		c0.8-0.5,1.2-1.1,1.3-1.8c0.1-0.8-0.2-1.8-1-3.1c-0.7-1.1-1.4-1.8-2.1-2c-0.7-0.2-1.5-0.1-2.3,0.3c-0.7,0.4-1.2,1-1.3,1.8
		C54.7,31.3,55,32.3,55.7,33.5L55.7,33.5z"/>
	<path id="path21" class="st0" d="M80.7,29.4L69.8,33l-1-2.6l2.6-5.3l-5-2.3l-0.8-2.7l10.6-3.5l1,2.9l-6.5,2.1l5,2.2l-2.6,4.9
		l6.5-2.2L80.7,29.4L80.7,29.4z"/>
	<path id="path23" class="st0" d="M87.8,20.8c-0.2-2.2,0.3-4,1.5-5.3c1.1-1.3,2.8-2,5-2.2c2.2-0.2,4,0.3,5.3,1.4
		c1.3,1.1,2,2.8,2.2,4.9c0.1,1.6-0.1,2.9-0.5,3.9c-0.5,1-1.2,1.9-2.1,2.5c-1,0.6-2.2,1-3.7,1.1c-1.5,0.1-2.8,0-3.8-0.5
		c-1-0.4-1.9-1.1-2.6-2.1C88.3,23.7,87.9,22.4,87.8,20.8L87.8,20.8z M92,20.5c0.1,1.4,0.4,2.3,1,2.9c0.6,0.6,1.3,0.8,2.1,0.7
		c0.9-0.1,1.6-0.4,2-1c0.5-0.6,0.6-1.7,0.5-3.2c-0.1-1.3-0.4-2.2-1-2.7c-0.6-0.6-1.3-0.8-2.2-0.7c-0.8,0.1-1.5,0.4-2,1
		C92,18.1,91.9,19.1,92,20.5L92,20.5z"/>
	<path id="path25" class="st0" d="M106.8,13.3l5.5,0.8l0.5,8.5l3.6-7.7l5.3,1l-2.3,13.3l-3.5-0.6l1.9-10.1l-4.5,9.7l-3-0.6
		l-0.7-10.6l-1.8,10.3l-3.4-0.6L106.8,13.3z"/>
	<path id="path27" class="st0" d="M126.3,17.4l4,1.3l-4.2,12.8l-4-1.3L126.3,17.4z"/>
	<path id="path29" class="st0" d="M140.8,38.8l-3.9-1.9l1.7-10.3l-7.3,7.4l-3.7-1.9l10.6-9.9l4.1,2.1L140.8,38.8L140.8,38.8z"/>
	<path id="path31" class="st0" d="M145.8,34.1c1.4-1.7,3-2.7,4.7-2.8c1.7-0.2,3.5,0.4,5.2,1.8c1.7,1.4,2.7,3,2.9,4.7
		c0.2,1.7-0.4,3.4-1.8,5.1c-1,1.2-2,2.1-3.1,2.5c-1.1,0.4-2.1,0.6-3.3,0.4c-1.1-0.2-2.3-0.8-3.5-1.7c-1.2-1-2-1.9-2.5-3
		c-0.5-1-0.6-2.1-0.4-3.3C144.2,36.5,144.8,35.3,145.8,34.1L145.8,34.1z M149,36.7c-0.9,1.1-1.3,2-1.3,2.8c0,0.8,0.4,1.5,1,2
		c0.7,0.6,1.4,0.8,2.2,0.6c0.8-0.1,1.6-0.8,2.6-2c0.8-1,1.2-1.9,1.2-2.7c0-0.8-0.4-1.5-1.1-2c-0.7-0.5-1.4-0.7-2.1-0.6
		C150.7,35.1,149.9,35.7,149,36.7L149,36.7z"/>
	<path id="path33" class="st0" d="M160.8,58.8l-7.2-8.8l2.3-1.9l5.8,0.6l0.2-5.4l2.3-1.8l7.1,8.7l-2.4,1.9l-4.2-5.5l-0.3,5.6
		l-5.6-0.6l4.4,5.3L160.8,58.8L160.8,58.8z"/>
	<path id="path35" class="st0" d="M177.5,60.2l1.7,4.2l-3.1,3.9l4.8,0.4l1.8,4.4l-7.7-1.5l-4.8,6.9l-1.8-4.5l3.1-4l-5-0.8l-1.7-4.3
		l8.1,1.7L177.5,60.2z"/>
	<path id="path37" class="st0" d="M174.3,87.6l-0.9-4.8l-2.3-0.1l-0.9-4.2l14.4,2.6l0.8,4.5l-12.3,7.4l-0.8-4.4L174.3,87.6
		L174.3,87.6z M177.1,86.1l4.5-2.5l-5.1-0.5L177.1,86.1L177.1,86.1z"/>
	<path id="path39" class="st0" d="M186.8,94.5l0,4l-7.7,4.9l7.5,0.2l-0.1,3.9l-13.6-0.1l0-4.1l7.7-4.9l-7.5-0.1l0.1-4L186.8,94.5
		L186.8,94.5z"/>
	<path id="path41" class="st0" d="M185.8,112.4l-0.7,4.1l-13.3-2.3l0.7-4.1L185.8,112.4L185.8,112.4z"/>
	<path id="path43" class="st0" d="M170.9,125.8l1.3-4.5l-1.9-1.3l1.3-4.1l11.3,9l-1.4,4.4l-14.5,0.6l1.3-4.2L170.9,125.8z
		 M173.8,125.9l5.2,0l-4.2-2.8L173.8,125.9z"/>
	<path id="path45" class="st0" d="M85,172.8l-3.3,13.5l-3.7-1l2.2-8.7c-1.6,0.7-2.5,0.9-4.3,1l0.7-3.1c2.3-0.2,3.8-0.5,5.3-2.4
		L85,172.8L85,172.8z"/>
	<path id="path47" class="st0" d="M88.2,183.8l3.8-0.1c0.1,0.8,0.5,1.4,1.4,1.5c1.3,0.2,1.9-1.9,2-3.6c-1.1,0.9-1.8,1.2-3.2,1.1
		c-2.3-0.2-4-2.3-3.8-4.8c0.2-3.4,2.8-4.6,5.4-4.4c4.1,0.2,5.8,2.9,5.5,7.5c-0.3,4.3-2.2,6.8-6.3,6.6
		C90.5,187.3,89,186.5,88.2,183.8L88.2,183.8z M95.7,178.5c0.1-1.3-0.5-2.4-1.7-2.4c-1.2-0.1-1.8,0.9-1.9,2
		c-0.1,1.2,0.3,2.4,1.6,2.5C94.8,180.6,95.6,179.6,95.7,178.5L95.7,178.5z"/>
	<path id="path49" class="st0" d="M108.9,184.8l-6.9,0.5l-0.2-3.1l6.1-8.6l3.3-0.1l0.6,8.2l1.9-0.1l0.1,3l-1.7,0.1l0.1,2.5l-3.2,0.2
		L108.9,184.8L108.9,184.8z M108.7,181.8l-0.3-4.2l-3.2,4.4L108.7,181.8z"/>
	<path id="path51" class="st0" d="M115.8,173.2l8.7-2.1l0.7,3l-5.9,1.4l0.1,2.2c0.6-0.6,1.4-1.1,2.4-1.3c2.6-0.6,4.7,0.6,5.4,3.3
		c0.7,2.7-1.2,5.4-4.4,6.1c-2.9,0.7-4.7,0.4-6.3-2.3l3.8-1.3c0.4,1,1,1.6,2.1,1.3c1.4-0.3,1.5-1.3,1.2-2.6c-0.3-1.4-1-2.1-2.2-2
		c-0.9,0.1-1.4,0.8-1.8,1.5l-3.3,0.3L115.8,173.2L115.8,173.2z"/>
	<path id="path53" class="st1" d="M80.3,74.2h-1.9L78.1,76h-1.7l2.1-10.5h1.9L82.3,76h-1.8L80.3,74.2L80.3,74.2z M79.9,72l-0.6-3.8
		L78.7,72H79.9z M82.8,73h1.6V76h-1.6V73z M85.2,70.7c0-1.7,0.3-3.1,0.8-4c0.5-1,1.2-1.4,2.1-1.4c0.9,0,1.6,0.5,2.1,1.4
		c0.5,0.9,0.7,2.3,0.7,3.9c0,1.2-0.1,2.2-0.3,3c-0.2,0.8-0.5,1.4-0.9,1.8c-0.4,0.4-0.9,0.7-1.5,0.7c-0.6,0-1.1-0.2-1.6-0.6
		c-0.4-0.4-0.7-1-1-1.8C85.4,73,85.2,71.9,85.2,70.7L85.2,70.7z M87,70.7c0,1.1,0.1,1.8,0.3,2.3c0.2,0.5,0.5,0.7,0.9,0.7
		c0.4,0,0.7-0.2,0.9-0.7c0.2-0.5,0.3-1.3,0.3-2.4c0-1-0.1-1.7-0.3-2.2c-0.2-0.5-0.5-0.7-0.9-0.7c-0.3,0-0.6,0.2-0.8,0.7
		C87.1,68.9,87,69.7,87,70.7L87,70.7z M91.6,73h1.6V76h-1.6V73z M96.5,65.5h1.9l1,3.2l1-3.2h1.9l-1.7,5.1l1.9,5.4h-1.9l-1.1-3.4
		L98.2,76h-1.9l1.9-5.5L96.5,65.5L96.5,65.5z M106.3,74.2h-1.9l-0.3,1.7h-1.7l2.1-10.5h1.9l2.1,10.5h-1.8L106.3,74.2z M105.9,72
		l-0.6-3.8l-0.6,3.8H105.9z M108.9,65.5h1.6l2.1,5.8v-5.8h1.6V76h-1.6l-2.1-5.8V76h-1.6V65.5z M115.4,65.5h1.7V76h-1.7V65.5z
		 M121.7,74.2h-1.9l-0.3,1.7h-1.7l2.1-10.5h1.9l2.1,10.5H122L121.7,74.2z M121.4,72l-0.6-3.8l-0.6,3.8H121.4z"/>
	<path id="path55" class="st0" d="M61.7,46.4c2.8,1.1,5.5,2,8.2,2.6c2.7,0.6,5.4,0.9,8,1c4.9,0.1,9-1.1,12.6-3.2
		c3.5-2.1,6.5-5.1,9-8.8l0.4-0.5l0.4,0.5c2.9,3.6,6,6.5,9.6,8.6c3.5,2,7.5,3.2,12,3.1c2.5,0,5.2-0.3,8.1-0.9
		c2.7-0.6,5.6-1.4,8.6-2.6l0.4-0.2l0.2,0.4c0.9,1.9,1.9,3.9,2.9,5.8c1,1.9,2,3.9,2.9,5.9l0.2,0.5l-0.5,0.2c-3.1,1.3-5.7,2.6-7.8,4.1
		c-2.1,1.5-3.7,3.1-4.9,5.4c-1.1,2.1-1.8,3.7-2.2,5.5c-0.4,1.8-0.6,3.8-0.7,6.6c0.2,2.9,0.5,5.6,1,8.2c0.5,2.6,1.2,5.1,2,7.5
		c0.2,0.5,0.3,1,0.5,1.6c0.2,0.5,0.3,1.1,0.4,1.6c0.3,1.3,0.5,2.8,0.6,4.3c0.1,1.5,0.1,3.1,0.1,4.8c0,5.1-1,9.4-3.3,12.5
		c-2.1,3-5.4,4.9-9.8,5.6c-2.7,0.4-5.4,0.9-8.1,1.6c-2.7,0.7-5.3,1.7-7.7,3.1c-0.7,0.4-1.2,0.9-1.7,1.4c-0.5,0.6-0.8,1.3-1.1,2
		c-0.2,0.6-0.6,1.8-0.9,3c-0.2,0.6-0.4,1.2-0.8,2.6l-0.4,1.4l-0.5-1.4c-0.2-0.6-0.4-1-0.5-1.5c-0.5-1.3-0.9-2.6-1.3-3.9
		c-0.4-1.2-0.8-2.1-1.5-2.7c-0.6-0.7-1.4-1.2-2.4-1.7c-1.6-0.9-3.5-1.6-5.5-2.3c-2.4-0.8-5-1.4-7.4-1.9c-4.9-1-8.8-3-11.4-6
		c-2.6-3-3.9-7.2-3.8-12.4c0.1-5.8,1.2-10,2.2-14.2c1.1-4.6,2.3-9.3,2.3-16.1c0-4.9-1.5-8.7-4.1-11.7c-2.6-3-6.4-5.3-10.7-7
		l-0.5-0.2c2.2-4.1,4.4-8.3,6.6-12.4L61.7,46.4L61.7,46.4z M69.7,49.9c-2.6-0.6-5.3-1.4-7.9-2.5l-5.6,10.6c4.3,1.8,8,4.1,10.6,7.1
		c2.8,3.2,4.4,7.2,4.4,12.3c0,7-1.2,11.7-2.3,16.3c-1,4.2-2.1,8.3-2.2,14c-0.1,5,1.1,8.9,3.6,11.8c2.4,2.9,6.1,4.7,10.8,5.7
		c2.5,0.5,5.1,1.1,7.5,1.9c2.1,0.7,4.1,1.5,5.7,2.4c1.1,0.6,1.9,1.1,2.6,1.9c0.7,0.8,1.3,1.7,1.7,3.1c0.4,1.3,0.9,2.6,1.3,3.8l0,0.1
		l0.4-1.2c0.3-0.9,0.5-1.7,0.9-3c0.2-0.8,0.6-1.6,1.2-2.3c0.5-0.6,1.1-1.2,1.9-1.7c2.5-1.4,5.2-2.4,7.9-3.2c2.7-0.8,5.5-1.3,8.2-1.7
		c4.2-0.6,7.2-2.4,9.2-5.2c2.2-3,3.1-7.1,3.1-11.9c0-1.7,0-3.2-0.1-4.8c-0.1-1.5-0.3-2.9-0.5-4.2c-0.1-0.5-0.2-1-0.4-1.5
		c-0.1-0.5-0.3-1-0.5-1.5c-0.8-2.4-1.5-5-2-7.6c-0.5-2.7-0.9-5.4-1-8.4l0,0l0,0c0.1-2.9,0.3-4.9,0.7-6.8c0.4-1.9,1.1-3.6,2.3-5.8
		c1.3-2.4,3-4.2,5.2-5.7c2.1-1.4,4.6-2.7,7.5-3.9c-0.9-1.7-1.8-3.6-2.7-5.4c-0.9-1.8-1.8-3.6-2.7-5.4c-2.9,1.1-5.7,1.9-8.3,2.5
		c-3,0.6-5.7,0.9-8.3,0.9c-4.6,0-8.8-1.2-12.5-3.3c-3.5-2-6.6-4.9-9.5-8.3c-2.6,3.5-5.5,6.5-9,8.5c-3.7,2.2-7.9,3.4-13.1,3.3
		C75.1,50.8,72.4,50.5,69.7,49.9L69.7,49.9z"/>
	<path id="path57" class="st0" d="M85.2,70.7c0-1.7,0.3-3.1,0.8-4c0.5-1,1.2-1.4,2.1-1.4c0.9,0,1.6,0.5,2.1,1.4
		c0.5,0.9,0.7,2.3,0.7,3.9c0,1.2-0.1,2.2-0.3,3c-0.2,0.8-0.5,1.4-0.9,1.8c-0.4,0.4-0.9,0.7-1.5,0.7c-0.6,0-1.1-0.2-1.6-0.6
		c-0.4-0.4-0.7-1-1-1.8C85.4,73,85.2,71.9,85.2,70.7L85.2,70.7z M104.3,45.9v16.7h-8.4V46c-2.7,2.3-5.4,3.8-8.3,4.9v11.7h-7.4v-10
		c-0.9,0.1-1.7,0.1-2.6,0.1c-4.9,0.1-10.2-1.3-15-3.1l-4.2,7.5c5.1,2.1,7.9,5.1,11.1,8.7c3,3.3,3.4,9.5,3.2,15.4
		c-0.6,6.3-2.1,12.5-3.5,18.8c-1.4,6.3-1.6,12.4,1.8,17.8c1.9,3,5.3,4.5,9.2,5.6V78.5h7.4v46.7c0,0,0.1,0,0.1,0
		c3.1,0.8,5.9,2,8.1,3.4V78.5h8.4v49.9c2.4-1.3,5-2.3,7.9-3c0.2-0.1,0.5-0.1,0.7-0.2V78.5h7.8v45.3c1.9-0.4,3.6-1.1,5.2-2.1
		c5-3.4,5.8-10.9,4.5-20.8c-0.1-0.9-0.4-2.1-0.6-3c-2.1-6.4-3.6-12.7-3.5-18.1c0.1-4.3,1-8.4,2.9-12.2c2.4-4.8,6.8-8,12.3-10.3
		l-4-7.9c-4.8,1.9-9.9,2.9-15.5,3c-0.5,0-0.9,0-1.3,0v10.3H113V50.7C110,49.6,107.2,48,104.3,45.9L104.3,45.9z M80.3,65.5L82.3,76
		h-1.8l-0.3-1.7h-1.9L78.1,76h-1.7l2.1-10.5H80.3L80.3,65.5z M82.8,73h1.6V76h-1.6V73z M91.6,73h1.6V76h-1.6V73z M98.2,70.5l-1.7-5
		h1.9l1,3.2l1-3.2h1.9l-1.7,5.1l1.9,5.4l2.1-10.5h1.9l2.1,10.5h-1.8l-0.3-1.7h-1.9l-0.3,1.7h-1.7h0h-1.9l-1.1-3.4L98.2,76h-1.9
		L98.2,70.5L98.2,70.5z M108.9,76V65.5h1.6l2.1,5.8v-5.8h1.6V76h-1.6l-2.1-5.8V76H108.9z M115.4,76V65.5h1.7V76H115.4z M117.8,76
		l2.1-10.5h1.9l2.1,10.5H122l-0.3-1.7h-1.9l-0.3,1.7H117.8z"/>
	<path id="path59" class="st0" d="M79.9,72l-0.6-3.8L78.7,72H79.9z"/>
	<path id="path61" class="st0" d="M87,70.7c0,1.1,0.1,1.8,0.3,2.3c0.2,0.5,0.5,0.7,0.9,0.7c0.4,0,0.7-0.2,0.9-0.7
		c0.2-0.5,0.3-1.3,0.3-2.4c0-1-0.1-1.7-0.3-2.2c-0.2-0.5-0.5-0.7-0.9-0.7c-0.3,0-0.6,0.2-0.8,0.7C87.1,68.9,87,69.7,87,70.7L87,70.7
		z"/>
	<path id="path63" class="st0" d="M105.3,68.2l-0.6,3.8h1.2L105.3,68.2z"/>
	<path id="path65" class="st0" d="M120.8,68.2l-0.6,3.8h1.2L120.8,68.2z"/>
	<path id="path67" class="st1" d="M104.3,128.3V78.5h-8.4v50.1c-2.2-1.4-5-2.6-8.1-3.4l-0.1,0V78.5h-7.4v44.9
		c-3.9-1.1-7.3-2.6-9.2-5.6c-3.4-5.4-3.3-11.4-1.8-17.8c1.4-6.2,2.9-12.4,3.5-18.8c0.3-5.9-0.2-12.2-3.2-15.4
		c-3.3-3.6-6-6.6-11.1-8.7l4.2-7.5c4.8,1.8,10,3.1,15,3.1c0.9,0,1.7-0.1,2.6-0.1v10h7.4V50.9c2.8-1.1,5.6-2.7,8.3-4.9v16.6h8.4V45.9
		c2.8,2.1,5.7,3.8,8.6,4.9v11.9h7.8V52.3c0.4,0,0.9,0,1.3,0c5.6-0.1,10.7-1,15.5-3l4,7.9c-5.5,2.3-9.9,5.4-12.3,10.3
		c-1.9,3.8-2.8,7.9-2.9,12.2c-0.1,5.4,1.4,11.7,3.5,18.1c0.2,0.9,0.5,2,0.6,3c1.3,9.8,0.5,17.4-4.5,20.8c-1.6,1.1-3.4,1.7-5.2,2.1
		V78.5H113v46.7l-0.7,0.2C109.4,126,106.7,127,104.3,128.3L104.3,128.3z M69.7,49.9c-2.6-0.6-5.3-1.4-7.9-2.5l-5.6,10.6
		c4.3,1.8,8,4.1,10.6,7.1c2.8,3.2,4.4,7.2,4.4,12.3c0,7-1.2,11.7-2.3,16.3c-1,4.2-2.1,8.3-2.2,14c-0.1,5,1.1,8.9,3.6,11.8
		c2.4,2.9,6.1,4.7,10.8,5.7c2.5,0.5,5.1,1.1,7.5,1.9c2.1,0.7,4.1,1.5,5.7,2.4c1.1,0.6,1.9,1.1,2.6,1.9c0.7,0.8,1.3,1.7,1.7,3.1
		c0.4,1.3,0.9,2.6,1.3,3.8l0,0.1l0.4-1.2c0.3-0.9,0.5-1.7,0.9-3c0.2-0.8,0.6-1.6,1.2-2.3c0.5-0.6,1.1-1.2,1.9-1.7
		c2.5-1.4,5.2-2.4,7.9-3.2c2.7-0.8,5.5-1.3,8.2-1.7c4.2-0.6,7.2-2.4,9.2-5.2c2.2-3,3.1-7.1,3.1-11.9c0-1.7,0-3.2-0.1-4.8
		c-0.1-1.5-0.3-2.9-0.5-4.2c-0.1-0.5-0.2-1-0.4-1.5c-0.1-0.5-0.3-1-0.5-1.5c-0.8-2.4-1.5-5-2-7.6c-0.5-2.7-0.9-5.4-1-8.4l0,0l0,0
		c0.1-2.9,0.3-4.9,0.7-6.8c0.4-1.9,1.1-3.6,2.3-5.8c1.3-2.4,3-4.2,5.2-5.7c2.1-1.4,4.6-2.7,7.5-3.9c-0.9-1.7-1.8-3.6-2.7-5.4
		c-0.9-1.8-1.8-3.6-2.7-5.4c-2.9,1.1-5.7,1.9-8.3,2.5c-3,0.6-5.7,0.9-8.3,0.9c-4.6,0-8.8-1.2-12.5-3.3c-3.5-2-6.6-4.9-9.5-8.3
		c-2.6,3.5-5.5,6.5-9,8.5c-3.7,2.2-7.9,3.4-13.1,3.3C75.1,50.8,72.4,50.5,69.7,49.9L69.7,49.9z"/>
	<path id="path69" class="st0" d="M99.8,31.8c-18.8,0-35.9,7.7-48.2,20c-12.3,12.4-19.9,29.4-19.9,48.3c0,18.8,7.7,35.9,20,48.2
		c12.4,12.3,29.4,19.9,48.3,19.9c18.8,0,35.9-7.7,48.2-20c12.3-12.4,19.9-29.4,19.9-48.3c0-18.8-7.7-35.9-20-48.2
		C135.7,39.4,118.6,31.8,99.8,31.8z M49.6,49.9C62.4,37,80.2,29,99.8,29c19.6,0,37.4,7.9,50.2,20.7c12.9,12.8,20.8,30.6,20.8,50.2
		c0,19.6-7.9,37.4-20.7,50.2C137.3,163,119.5,171,99.9,171c-19.6,0-37.4-7.9-50.2-20.7c-12.9-12.8-20.8-30.6-20.8-50.2
		C28.9,80.5,36.8,62.7,49.6,49.9z"/>
	<path id="path71" class="st0" d="M99.7,9.9C74.9,9.9,52.3,20,36,36.3C19.8,52.7,9.7,75.2,9.7,100.1c0,24.9,10.1,47.4,26.5,63.7
		c16.3,16.3,38.9,26.4,63.8,26.3v0l0,0c24.9,0,47.4-10.1,63.7-26.5C180,147.3,190,124.8,190,99.9h0l0,0c0-24.9-10.1-47.4-26.5-63.7
		C147.2,19.9,124.6,9.8,99.7,9.9L99.7,9.9L99.7,9.9z M34.1,34.4c16.8-16.8,40-27.3,65.7-27.3v0l0,0c25.7,0,48.9,10.3,65.7,27.1
		c16.8,16.8,27.3,40,27.3,65.7h0l0,0c0,25.7-10.3,48.9-27.1,65.7c-16.8,16.8-40,27.3-65.7,27.3v0l0,0c-25.7,0-48.9-10.3-65.7-27.1
		C17.4,149,7,125.8,7,100.1C6.9,74.4,17.3,51.2,34.1,34.4z"/>
	<path id="path73" class="st2" d="M100,0.6c-27.5,0-52.4,11.1-70.4,29.1c-18,18-29.1,42.8-29.1,70.3c0,27.4,11.1,52.3,29.1,70.3
		c18,18,42.9,29.1,70.4,29.1s52.4-11.1,70.4-29.1c18-18,29.1-42.8,29.1-70.3c0-27.4-11.1-52.3-29.1-70.3
		C152.4,11.8,127.5,0.6,100,0.6L100,0.6z M29.3,29.4C47.4,11.3,72.4,0.1,100,0.1s52.6,11.2,70.7,29.2c18.1,18.1,29.3,43,29.3,70.6
		c0,27.6-11.2,52.5-29.3,70.6c-18.1,18.1-43.1,29.2-70.7,29.2s-52.6-11.2-70.7-29.2C11.2,152.5,0,127.6,0,100
		C0,72.4,11.2,47.5,29.3,29.4z"/>
	<path id="path75" class="st1" d="M35,66.5l-8.7-5.2l-2.2,3.6l-3-1.7l6.6-10.9l2.9,1.8l-2.2,3.7l8.8,5.2L35,66.5z M40.4,57.5
		L29.8,49l2.6-3.3L43,54.2L40.4,57.5L40.4,57.5z M44.6,51.7l-9.2-9.9l3.1-2.9l3.4,3.8L41.7,36l4.1-3.9l0,7.1l9.5,2.6l-3.8,3.5
		l-5.8-2.1l-0.1,3.2l2.2,2.3L44.6,51.7z M52.1,35.6c-1.1-1.9-1.5-3.7-1.1-5.4c0.4-1.7,1.6-3.1,3.5-4.2c1.9-1.2,3.7-1.5,5.4-1.1
		c1.7,0.4,3.1,1.6,4.2,3.4c0.8,1.4,1.3,2.6,1.3,3.7c0.1,1.1-0.2,2.2-0.8,3.2c-0.6,1-1.5,1.9-2.8,2.7c-1.3,0.8-2.5,1.2-3.6,1.3
		c-1.1,0.1-2.2-0.1-3.3-0.7C53.9,38,53,37,52.1,35.6L52.1,35.6z M19.5,67.4l12.7,4.4l-1.4,4L25.8,74l-1.5,4.4l5.1,1.7l-1.3,4
		l-12.8-4.4l1.5-4l4.3,1.6l1.6-4.4l-4.5-1.5L19.5,67.4L19.5,67.4z M13.8,89.6l13.9-3.9L27.4,90l-10.2,2.2l9.6,3.8l-0.3,4.2l-13-6
		L13.8,89.6L13.8,89.6z M28.9,100.1c0-19.6,7.9-37.4,20.7-50.2C62.4,37,80.2,29,99.8,29c19.6,0,37.4,7.9,50.2,20.7
		c12.9,12.8,20.8,30.6,20.8,50.2c0,19.6-7.9,37.4-20.7,50.2C137.3,163,119.5,171,99.9,171c-19.6,0-37.4-7.9-50.2-20.7
		C36.9,137.4,28.9,119.7,28.9,100.1L28.9,100.1z M88.5,177.9c0.2-3.4,2.8-4.6,5.4-4.4c4.1,0.2,5.8,2.9,5.5,7.5
		c-0.3,4.3-2.2,6.8-6.3,6.6c-2.6-0.2-4.2-1-4.9-3.7l3.8-0.1c0.1,0.8,0.5,1.4,1.4,1.5c1.3,0.2,1.9-1.9,2-3.6
		c-1.1,0.9-1.8,1.2-3.2,1.1C90,182.6,88.3,180.5,88.5,177.9L88.5,177.9z M173.1,98.3l0.1-4l13.6,0.2l0,4l-7.7,4.9l7.5,0.2l-0.1,3.9
		l-13.6-0.1l0-4.1l7.7-4.9L173.1,98.3L173.1,98.3z M80.7,29.4L69.8,33l-1-2.6l2.6-5.3l-5-2.3l-0.8-2.7l10.6-3.5l1,2.9l-6.5,2.1
		l5,2.2l-2.6,4.9l6.5-2.2L80.7,29.4L80.7,29.4z M87.8,20.8c-0.2-2.2,0.3-4,1.5-5.3c1.1-1.3,2.8-2,5-2.2c2.2-0.2,4,0.3,5.3,1.4
		c1.3,1.1,2,2.8,2.2,4.9c0.1,1.6-0.1,2.9-0.5,3.9c-0.5,1-1.2,1.9-2.1,2.5c-1,0.6-2.2,1-3.7,1.1c-1.5,0.1-2.8,0-3.8-0.5
		c-1-0.4-1.9-1.1-2.6-2.1C88.3,23.7,87.9,22.4,87.8,20.8z M99.7,9.9C74.9,9.9,52.3,20,36,36.3C19.8,52.7,9.7,75.2,9.7,100.1
		c0,24.9,10.1,47.4,26.5,63.7c16.3,16.3,38.9,26.4,63.8,26.3c24.9,0,47.4-10.1,63.7-26.5C180,147.3,190,124.8,190,99.9
		c0-24.9-10.1-47.4-26.5-63.7C147.2,19.9,124.6,9.8,99.7,9.9L99.7,9.9z M146.9,44c-1.2-1-2-1.9-2.5-3c-0.5-1-0.6-2.1-0.4-3.3
		c0.2-1.2,0.8-2.4,1.8-3.7c1.4-1.7,3-2.7,4.7-2.8c1.7-0.2,3.5,0.4,5.2,1.8c1.7,1.4,2.7,3,2.9,4.7c0.2,1.7-0.4,3.4-1.8,5.1
		c-1,1.2-2,2.1-3.1,2.5c-1.1,0.4-2.1,0.6-3.3,0.4C149.3,45.6,148.1,45,146.9,44z M153.6,49.9l2.3-1.9l5.8,0.6l0.2-5.4l2.3-1.8
		l7.1,8.7l-2.4,1.9l-4.2-5.5l-0.3,5.6l-5.6-0.6l4.4,5.3l-2.4,1.9L153.6,49.9L153.6,49.9z M28.1,115.8l1.4,4.1l-2,1.4l1.6,4.6
		l2.3-0.1l1.3,4l-14.4-0.7l-1.5-4.3L28.1,115.8L28.1,115.8z M140.8,38.8l-3.9-1.9l1.7-10.3l-7.3,7.4l-3.7-1.9l10.6-9.9l4.1,2.1
		L140.8,38.8L140.8,38.8z M119.4,29.1l-3.5-0.6l1.9-10.1l-4.5,9.7l-3-0.6l-0.7-10.6l-1.8,10.3l-3.4-0.6l2.4-13.2l5.5,0.8l0.5,8.5
		l3.6-7.7l5.3,1L119.4,29.1L119.4,29.1z M122.2,30.3l4.2-12.8l4,1.3l-4.2,12.8L122.2,30.3z M170.3,78.4l-0.1,0.1l-1.8-4.5l3.1-4
		l-5-0.8l-1.7-4.3l8.1,1.7l4.6-6.3l1.7,4.2l-3.1,3.9l4.8,0.4l1.8,4.4l-7.7-1.5L170.3,78.4L170.3,78.4z M171.1,82.6l-0.9-4.2
		l14.4,2.6l0.8,4.5l-12.3,7.4l-0.8-4.4l2-1l-0.9-4.8L171.1,82.6L171.1,82.6z M172.2,121.3l-1.9-1.3l1.3-4.1l11.3,9l-1.4,4.4
		l-14.5,0.6l1.3-4.2l2.5,0L172.2,121.3L172.2,121.3z M13.7,109.6c-0.2-2.3,0.2-4,1.3-5.4c1.1-1.3,2.7-2.1,4.9-2.3
		c2.3-0.2,4.1,0.2,5.4,1.3c1.3,1.1,2.1,2.7,2.3,4.9c0.2,2.4-0.2,4.3-1.4,5.6c-1.2,1.3-2.8,2-4.9,2.2c-2.2,0.2-3.9-0.2-5.3-1.3
		C14.7,113.5,13.9,111.9,13.7,109.6L13.7,109.6z M76.6,174.5c2.3-0.2,3.8-0.5,5.3-2.4l3.1,0.8l-3.3,13.5l-3.7-1l2.2-8.7
		c-1.6,0.7-2.5,0.9-4.3,1L76.6,174.5L76.6,174.5z M115.8,173.2l8.7-2.1l0.7,3l-5.9,1.4l0.1,2.2c0.6-0.6,1.4-1.1,2.4-1.3
		c2.6-0.6,4.7,0.6,5.4,3.3c0.7,2.7-1.2,5.4-4.4,6.1c-2.9,0.7-4.7,0.4-6.3-2.3l3.8-1.3c0.4,1,1,1.6,2.1,1.3c1.4-0.3,1.5-1.3,1.2-2.6
		c-0.3-1.4-1-2.1-2.2-2c-0.9,0.1-1.4,0.8-1.8,1.5l-3.3,0.3L115.8,173.2L115.8,173.2z M101.8,182.2l6.1-8.6l3.3-0.1l0.6,8.2l1.9-0.1
		l0.1,3l-1.7,0.1l0.1,2.5l-3.2,0.2l-0.2-2.5l-6.9,0.5L101.8,182.2L101.8,182.2z M171.8,114.2l0.7-4.1l13.3,2.3l-0.7,4.1L171.8,114.2
		L171.8,114.2z"/>
	<path id="path77" class="st1" d="M25.1,123.1l-4.1,2.9l5.1-0.1L25.1,123.1z"/>
	<path id="path79" class="st1" d="M21,111.7c2.5-0.3,3.7-1.3,3.5-3.2c-0.1-0.9-0.5-1.6-1.1-2c-0.6-0.4-1.7-0.6-3.2-0.4
		c-2.5,0.2-3.6,1.3-3.4,3.2C17,111.2,18.4,112,21,111.7z M21.7,106.9l0.4,3.7l-2.5,0.2l-0.4-3.7L21.7,106.9z"/>
	<path id="path81" class="st1" d="M55.7,33.5c0.7,1.2,1.4,1.9,2.2,2.1c0.7,0.3,1.5,0.2,2.2-0.3c0.8-0.5,1.2-1.1,1.3-1.8
		c0.1-0.8-0.2-1.8-1-3.1c-0.7-1.1-1.4-1.8-2.1-2c-0.7-0.2-1.5-0.1-2.3,0.3c-0.7,0.4-1.2,1-1.3,1.8C54.7,31.3,55,32.3,55.7,33.5
		L55.7,33.5z"/>
	<path id="path83" class="st1" d="M92,20.5c0.1,1.4,0.4,2.3,1,2.9c0.6,0.6,1.3,0.8,2.1,0.7c0.9-0.1,1.6-0.4,2-1
		c0.5-0.6,0.6-1.7,0.5-3.2c-0.1-1.3-0.4-2.2-1-2.7c-0.6-0.6-1.3-0.8-2.2-0.7c-0.8,0.1-1.5,0.4-2,1C92,18.1,91.9,19.1,92,20.5
		L92,20.5z"/>
	<path id="path85" class="st1" d="M149,36.7c-0.9,1.1-1.3,2-1.3,2.8c0,0.8,0.4,1.5,1,2c0.7,0.6,1.4,0.8,2.2,0.6
		c0.8-0.1,1.6-0.8,2.6-2c0.8-1,1.2-1.9,1.2-2.7c0-0.8-0.4-1.5-1.1-2c-0.7-0.5-1.4-0.7-2.1-0.6C150.7,35.1,149.9,35.7,149,36.7
		L149,36.7z"/>
	<path id="path87" class="st1" d="M181.6,83.7l-5.1-0.5l0.5,3L181.6,83.7L181.6,83.7z"/>
	<path id="path89" class="st1" d="M179,125.9l-4.2-2.8l-0.9,2.8L179,125.9z"/>
	<path id="path91" class="st1" d="M95.7,178.5c0.1-1.3-0.5-2.4-1.7-2.4c-1.2-0.1-1.8,0.9-1.9,2c-0.1,1.2,0.3,2.4,1.6,2.5
		C94.8,180.6,95.6,179.6,95.7,178.5L95.7,178.5z"/>
	<path id="path93" class="st1" d="M108.4,177.7l-3.2,4.4l3.5-0.2L108.4,177.7z"/>
	<path id="path95" class="st1" d="M100,192.9c-25.7,0-48.9-10.3-65.7-27.1C17.4,149,7,125.8,7,100.1c0-25.7,10.3-48.9,27.1-65.7
		c16.8-16.8,40-27.3,65.7-27.3c25.7,0,48.9,10.3,65.7,27.1c16.8,16.8,27.3,40,27.3,65.7c0,25.7-10.3,48.9-27.1,65.7
		C148.8,182.4,125.6,192.9,100,192.9L100,192.9z M100,0.6c-27.5,0-52.4,11.1-70.4,29.1c-18,18-29.1,42.8-29.1,70.3
		c0,27.4,11.1,52.3,29.1,70.3c18,18,42.9,29.1,70.4,29.1s52.4-11.1,70.4-29.1c18-18,29.1-42.8,29.1-70.3c0-27.4-11.1-52.3-29.1-70.3
		C152.4,11.8,127.5,0.6,100,0.6L100,0.6z"/>
	<path id="path97" class="st1" d="M31.6,100.1c0,18.8,7.7,35.9,20,48.2c12.4,12.3,29.4,19.9,48.3,19.9c18.8,0,35.9-7.7,48.2-20
		c12.3-12.4,19.9-29.4,19.9-48.3c0-18.8-7.7-35.9-20-48.2c-12.4-12.3-29.4-19.9-48.3-19.9c-18.8,0-35.9,7.7-48.2,20
		C39.2,64.2,31.6,81.2,31.6,100.1L31.6,100.1z M69.4,120.3c-2.6-3-3.9-7.2-3.8-12.4c0.1-5.8,1.2-10,2.2-14.2
		c1.1-4.6,2.3-9.3,2.3-16.1c0-4.9-1.5-8.7-4.1-11.7c-2.6-3-6.4-5.3-10.7-7l-0.5-0.2l6.6-12.4l0.4,0.2c2.8,1.1,5.5,2,8.2,2.6
		c2.7,0.6,5.4,0.9,8,1c4.9,0.1,9-1.1,12.6-3.2c3.5-2.1,6.5-5.1,9-8.8l0.4-0.5l0.4,0.5c2.9,3.6,6,6.5,9.6,8.6c3.5,2,7.5,3.2,12,3.1
		c2.5,0,5.2-0.3,8.1-0.9c2.7-0.6,5.6-1.4,8.6-2.6l0.4-0.2l0.2,0.4c0.9,1.9,1.9,3.9,2.9,5.8c1,1.9,2,3.9,2.9,5.9l0.2,0.5l-0.5,0.2
		c-3.1,1.3-5.7,2.6-7.8,4.1c-2.1,1.5-3.7,3.1-4.9,5.4c-1.1,2.1-1.8,3.7-2.2,5.5c-0.4,1.8-0.6,3.8-0.7,6.6c0.2,2.9,0.5,5.6,1,8.2
		c0.5,2.6,1.2,5.1,2,7.5c0.2,0.5,0.3,1,0.5,1.6c0.2,0.5,0.3,1.1,0.4,1.6c0.3,1.3,0.5,2.8,0.6,4.3c0.1,1.5,0.1,3.1,0.1,4.8
		c0,5.1-1,9.4-3.3,12.5c-2.1,3-5.4,4.9-9.8,5.6c-2.7,0.4-5.4,0.9-8.1,1.6c-2.7,0.7-5.3,1.7-7.7,3.1c-0.7,0.4-1.2,0.9-1.7,1.4
		c-0.5,0.6-0.8,1.3-1.1,2l-0.9,3c-0.2,0.6-0.4,1.2-0.8,2.6l-0.4,1.4l-0.5-1.4c-0.2-0.6-0.4-1-0.5-1.5c-0.5-1.3-0.9-2.6-1.3-3.9
		c-0.4-1.2-0.8-2.1-1.5-2.7c-0.6-0.7-1.4-1.2-2.4-1.7c-1.6-0.9-3.5-1.6-5.5-2.3c-2.4-0.8-5-1.4-7.4-1.9
		C75.8,125.3,72,123.3,69.4,120.3L69.4,120.3z"/>
	<path id="path99" class="st3" d="M103.7,148.5l-0.1-1.1l1.5-0.3c-0.2,0.4-0.3,0.5-0.6,0.8C104.2,148.2,104.2,148.3,103.7,148.5
		L103.7,148.5z"/>
	<path id="path101" class="st3" d="M143,77.7c-0.3-1.4-0.7-7.2,0-8.4c0.8,0.2,2.6,1.7,3.2,2.2c0.9,0.8,1.7,1.6,2.1,3.2
		c0.5,2.2,0.3,2.6-0.3,4.6c-0.4,1.2-0.8,2.8-1.3,3.9c-0.5-0.2-0.8-0.8-1.2-1.2C143.4,79.2,143.6,80.3,143,77.7L143,77.7z"/>
	<path id="path103" class="st3" d="M155.2,92.2c-0.5-1.1,0.2-6.1,0.3-8c0.1-1.5,0.2-2.6,1.3-3.1c0.5,0.2,1.4,1.6,1.5,2.3
		c0.3,1.1,0.3,2.4,0.3,3.7c0,2.6-0.2,4.9-0.9,6.9c-0.6,0-0.4,0-0.9-0.1l-0.4-0.1C155.9,93.5,155.3,92.4,155.2,92.2L155.2,92.2z"/>
	<path id="path105" class="st3" d="M148.4,89.4c-0.7-2.2-0.8-3.4-0.6-5.8c0.2-0.3,0.2-1.3,0.7-2.4c0.7-1.4,2.3-5,3.6-5.6
		c1.1,1.2,1.5,3.6,1.8,5.5c0.1,1.1,0.1,2.5,0.1,3.7c0,1-0.2,2.8-0.1,3.5c0,0,0,0.1,0,0.1l-0.1,0.9c-0.2,1.8-0.1,1.5-0.8,2.4
		c-0.3,0.3-1.6,2-2.1,2.2c-0.5-0.4-0.9-1.5-1.2-2.2C149.1,90.8,148.8,90.4,148.4,89.4L148.4,89.4z"/>
	<path id="path107" class="st3" d="M142,90.3c-1.1-1.3-1.3-8.8-0.2-10.4c0.8,0.1,4.2,3.3,4.3,4.4c0.1,0.7-0.1,1.2,0.4,2.2l0.1,0.2
		c0.3,1.8,1.2,3.6,1.6,5.4c0.7,3-0.2,3.5-1.1,5.5c-1-0.2-2.1-1.4-2.6-2.1c-0.3-0.4-0.3-0.6-0.7-0.9v-0.2
		C143.3,93.1,142.1,91.4,142,90.3L142,90.3z"/>
	<path id="path109" class="st3" d="M151.6,102.2c-0.6-1.5-1.1-2.6-2-4c-1.5-2.5-0.8-1.2-0.4-3.2c0.1-0.3,0.1-0.9,0.3-1.2
		c0.5,0.3,0.5,1,1.1,1.4c0.7-0.4,1.7-2,2.4-2.3c-0.1,0.8-0.4,1.4-0.5,2.1c-0.1,0.8-0.2,1.5-0.3,2.3c-0.1,0.8-0.2,1.7-0.2,2.5
		c0,0.4,0,0.8-0.1,1.2c0,0.1-0.1,0.5-0.1,0.6C151.7,102.2,151.8,101.9,151.6,102.2L151.6,102.2z"/>
	<path id="path111" class="st3" d="M152.7,106.8c0-2.2,0-4.9,0.1-7l0.6-4.5c0.1-0.6,0.3-1,0.4-1.6c0.1-0.1,0.1-0.2,0.2-0.5l0.1-0.3
		c0.2-0.3,0.1-0.2,0.3-0.3c0.8,0.3,3.5,3.1,3.6,4c0.3,2.4-1.1,5.6-1.1,6.4c-0.3,0.2-0.1,0-0.3,0.3l-1.1,1.7c-0.2,0.3-0.4,0.7-0.7,1
		c-0.4,0.4-0.6,0.2-0.9,0.7l-0.3,0.1L152.7,106.8L152.7,106.8z"/>
	<path id="path113" class="st3" d="M147.5,112.5c-0.3-0.9-0.5-2.5-0.7-3.5c-0.2-0.9-0.8-3.1-0.4-7.5c0.1-1,0.6-1.6,2-3.2
		c0.6,0.4,1.9,3.1,2.2,4c0.6,2.1,0.4,3.8,0.1,5.9C150.5,108.6,148,112.1,147.5,112.5L147.5,112.5z"/>
	<path id="path115" class="st3" d="M141.8,105.7c0-1.1,0.2-3,0.7-3.5l0-0.5c0.5-0.4,0.8-1.4,1.2-2c0.3-0.5,1-1.4,1.7-1.6
		c0.5,0.4,0.5,0.7,0.8,1.4c0.2,0.8-0.2,4.7-0.2,5.7c-0.1,0.8-0.2,1-0.5,2c-1.2,4.3-1.7,3.5-2.2,4.9c-0.5-0.1-0.5-0.5-0.6-1.1
		c-0.1-0.6-0.2-1-0.3-1.6C142.2,108.1,141.8,107.4,141.8,105.7L141.8,105.7z"/>
	<path id="path117" class="st3" d="M152.4,118.3c0.3-0.5,0.9-1.1,1.6-1.3c0,0.6-0.1,1.5-0.5,1.9c0,1.5-5,6.9-5.5,7.2
		c-0.9,0.6-4.1,3.1-4.6,3.2l0.9-3.9c0.2-1.2,1.8-1.7,2.4-2.5c0.3-0.1,0.2-0.1,0.5-0.3c0.3-0.2,0.1-0.1,0.4-0.3
		C148.3,121.7,151.9,118.4,152.4,118.3L152.4,118.3z"/>
	<path id="path119" class="st3" d="M145.6,121.4c0-0.7,1.8-5.6,2.3-6.5c1.3-2.2,3.2-4.9,4.9-6.8c0.3-0.4,1.1-1.1,1.3-1.4
		c0.8-0.4,0.5-0.4,1.2-0.9c0.2-0.2,1.3-1.1,1.5-1.2l-0.2,1c-0.1,1.9-1.5,6.8-2.6,8.7c-0.8,1.3-1.2,1.5-1.5,1.9
		c-0.2,0.2-0.1,0.2-0.2,0.3c-0.6,0.2-0.4,0.2-0.9,0.6c-0.4,0.3-0.5,0.4-0.9,0.6c-0.1,0.1,0.1,0-0.1,0.2c0,0-0.1,0-0.1,0
		c0,0-0.1,0-0.1,0c-0.4,0.7-1.8,1.4-2.4,1.8C147.4,120.2,146,121.4,145.6,121.4L145.6,121.4z"/>
	<path id="path121" class="st3" d="M142.2,117.3c0.3-0.9,0.5-1.6,0.8-2.4c0.2-0.6,0.9-2,1-2.2l0.4-0.5c0.1-0.2,0.2-0.3,0.3-0.5
		c0.4-0.6,0.3-0.7,0.8-1c0.7,2.4,0.9,5.6-0.1,8c-0.6,1.5-0.7,1.6-2,2.5c-0.8,0.5-2.3,1.6-2.9,1.8l0.1-0.8
		C140.9,121.8,141.9,118.1,142.2,117.3L142.2,117.3z"/>
	<path id="path123" class="st3" d="M137.9,115.5c0.3-1.4,1.6-5.2,2.5-5.6c0.5,0.3,0.9,2.6,1.1,3.4c0.4,1.8,0.3,2.2-0.1,3.9
		c-0.4,2-1.2,3-2.1,4.6l-0.8,1.3C137.7,122,137.6,117,137.9,115.5z"/>
	<path id="path125" class="st3" d="M142.8,134.8c0-1.1,0.3-1.5,0.5-2.5l0.9-1.3c0.3-0.5,0.6-0.9,0.9-1.3c0.6-0.7,1.7-1.8,2.7-2.1
		l-0.2,1.6c-0.2,1.2-1,2.5-1.7,3.3c-0.4,0.4-0.8,0.8-1.3,1.2c-0.4,0.3-1.1,0.8-1.2,1.2C142.3,135.1,143,135,142.8,134.8z"/>
	<path id="path127" class="st3" d="M138.3,132.5l-0.1-4.2c0.2-0.9,0.5-1.8,0.9-2.6c0.6-1.1,0.9-1,1.7-1.8c0.5-0.3,0.7-0.5,1.2-0.8
		c0.2-0.2,0.4-0.2,0.6-0.4c0.3-0.2,0.4-0.1,0.4-0.4l0.5,0l-0.1,2.9c-0.2,0.6-0.8,4.4-1.5,5.3l-1.2,1.1
		C139.9,131.9,139.5,132.4,138.3,132.5L138.3,132.5z"/>
	<path id="path129" class="st3" d="M134.3,137.2c0.2-0.2,1.5-1.3,1.5-1.6l1.2-0.7c0.1-0.1-0.1-0.1,0.2-0.2c0.1-0.1,0.1,0,0.3-0.1
		l0.5-0.5c0.2-0.1,0.4-0.2,0.5-0.3c0.8-0.5,2.5-1.5,3.5-1.6l-0.5,2.7c-0.3,0.5-0.6,1.5-1.2,2.1c-0.4,0.5-1.2,1.2-1.8,1.6
		c-1.5,1.1-2.7,1.4-4.9,1.8c-2.1,0.2-1.6-0.3-0.9-1.5C133.3,138.2,133.8,137.6,134.3,137.2L134.3,137.2z"/>
	<path id="path131" class="st3" d="M133,135.9c0.6-0.6,2.9-3.2,3.5-3.4c0,0.8-0.6,1.3-1.1,1.9c-0.7,0.8-3.7,4.6-4.4,4.7
		c-0.2-0.2,0.2-0.6,0.3-0.9c0.2-0.4,0.4-0.8,0.6-1.3C132.3,136.9,132.7,136.2,133,135.9z"/>
	<path id="path133" class="st3" d="M129.1,133.6c0.8-1.4,6.9-10.1,8.1-10.2c0.4,1.6,0.3,4.9-0.2,6.2c-0.2,0.4-0.3,0.5-0.6,0.8
		c-1.1,1-2.4,2.5-3.4,3.6c-1,1.1-2.5,3-3.4,3.6c-0.1,0.4-0.1,0.3-0.5,0.5l-0.5-0.6C127.6,135.5,127.3,136.6,129.1,133.6L129.1,133.6
		z"/>
	<path id="path135" class="st3" d="M125.1,145.1c1.1-0.5,5-0.8,6.3-0.3l-0.1,0.4c0,0-0.1,0-0.1,0l-0.1,0.1l-0.7,0.9
		c-0.8,1-2,1.8-3.3,2.2c-1.6,0.5-5.1,0.6-6.2-0.2C121.3,147.7,124.9,145.2,125.1,145.1z"/>
	<path id="path137" class="st3" d="M124.3,143.2c0.9-1.1,5.4-2.8,7.5-2.7c0.1,0.2,0.2-0.2,0.1,0.6c-0.2,0,0-0.1-0.4,0.3
		c-0.1,0.1-0.2,0.2-0.3,0.4c-0.2,0.3-0.5,0.4-0.7,0.8c-1.3,0.5,0.2,0.5-2.9,0.8c-4.8,0.4-3-0.3-4.3,1.2c-1.2,1.3-4,3.4-5.8,3.3
		c-0.7,0-2.9-0.1-3.4-0.2c0.4-1.2,2.6-2,3-2.6l0.1,0c2.5-1.1,2.8-1.4,5.5-2C124.4,142.5,124,142.8,124.3,143.2L124.3,143.2z"/>
	<path id="path139" class="st3" d="M116.8,143.7c0.3-1.4,2-2.3,2.5-3.3l0.4-0.2c1.2-0.8,0.8-0.8,3-1.9c0.9-0.5,3.1-1.5,4.3-1.5
		c0.3,0.4,0.9,1.1,0.8,1.5c0.4,0.3,0.4,0.3,0.6,0.7c-0.4,0.7-1.7,1.2-2.5,1.6c-1.1,0.6-1.6,0.9-2.8,1.2L116.8,143.7L116.8,143.7z"/>
	<path id="path141" class="st3" d="M121.4,135.5c0.9-0.8,3.6-2.7,4.9-2.9c0,1-0.4,2.7-1,3.2l-7.7,3.7c0.1-0.7,0.4-0.9,0.7-1.2
		L121.4,135.5L121.4,135.5z"/>
	<path id="path143" class="st3" d="M105.9,148.3c0.7-0.2,2.9-3.3,4.1-3.8l0.3-0.4c1.1-0.7,1.8-1.4,3.1-2.1c0.6-0.4,2.6-1.7,3.4-1.9
		l-0.2,0.7c-0.7,1.2-0.9,1.9-1.7,3c-0.3,0.4-1.9,2.2-2,2.4c-0.6,0.3-0.6,0.7-1.1,0.8c-0.1,0.9,0.2,1.2-0.7,1.2l-4.5,0.5
		C105.9,148.7,105.9,148.9,105.9,148.3L105.9,148.3z"/>
	<path id="path145" class="st3" d="M105.2,153.6c0.6-0.1,1.4-0.2,2-0.2c0.7,0,1.3,0.2,2.1,0.3c0.4,0.2,1.3,0.4,1.9,0.6
		c0.5,0.2,1.5,0.7,1.9,0.7c0.3,0.4,1.6,1,2.5,1.8c0.6,0.6,1.5,1.5,1.5,2.7c-2.9,0-4.4-1.4-5.9-1.8l-0.2-0.2
		c-0.4-0.2-1.6-0.7-2.8-1.5c-0.6-0.4-2.6-1.8-3-1.9L105.2,153.6L105.2,153.6z"/>
	<path id="path147" class="st3" d="M103.9,150.7c0.8-0.7,3-1.3,4.3-1.5c1.8-0.3,3.4-0.4,5.3-0.4c2.8-0.1,5.4,0.4,7.1,1.7l-0.1,0.5
		l-0.9,0.2c-0.3,0.2-0.4,0.3-0.7,0.4c-1.7,0.9-3.1,1.1-4.9,1.5c-1.5,0.1-7.7,0.2-9.1-0.4C104.1,152.3,103.8,151.9,103.9,150.7
		L103.9,150.7z"/>
	<path id="path149" class="st3" d="M104.7,158.6c-0.5-0.5-2.3-3.3-1.9-3.9c0.4-0.4,0.3,0,1.2,0.3c0.1,0.2-0.1,0,0.2,0.3
		c0.2,0.1,0.3,0.2,0.5,0.3c0.7,0.5,2.3,1.9,2.9,2l0.6,0.6c0.6,0.5,1,1.3,0.9,2.2C107.5,160.5,105.6,159.5,104.7,158.6z"/>
	<path id="path151" class="st3" d="M100.7,144.3c0-0.5-0.1-1,0.2-1.4c0.5-1,1.7-1.4,3-0.7c0.4,0.2,0.9,0.6,1.1,1
		c0.5,0.6,0.8,0.9,0.5,1.7c-0.3,0.7-1.5,1-2.7,0.8C102.5,145.6,100.9,144.5,100.7,144.3L100.7,144.3z"/>
	<path id="path153" class="st3" d="M98.7,153.9c0.1-0.6,0.3-1.2,0.4-1.9c0.3-1.3,0.1-1.4,0.6-1.7c1.9-1.1,2.4,4.5,1.1,6.9
		c-0.6,0.5,0.1,0.2-0.4,0.6l0,0.1c-0.2,0.4-0.5,0.7-1,0.6c-0.3-0.1-0.2-0.1-0.4-0.3C98.7,156.7,98.4,155.5,98.7,153.9L98.7,153.9z"
		/>
	<path id="path155" class="st3" d="M91.6,160.3c-0.1-2.7,4.3-4.2,5.5-5.5l0.9-0.2c0,1.2-0.5,1.4-0.7,2.4c0,0,0,0-0.2,0.2l-0.3,0.5
		c-0.2,0.3-0.3,0.5-0.5,0.7c-0.4,0.6-0.7,0.7-1.2,1.1C94.2,160,93.1,160.4,91.6,160.3z"/>
	<path id="path157" class="st3" d="M97.8,152l0.2-1.8l0.6,0.1l0,0.1L98,153l-0.7-0.1C97.4,152.4,97.6,152.3,97.8,152L97.8,152z"/>
	<path id="path159" class="st3" d="M89.8,154.1c1-0.2,1.9-0.5,2.9-0.7c0.9-0.2,2,0.1,3,0.2c-0.1,0.4,0,0.2-0.2,0.6l-0.7,0.4
		c-2.7,1.8-8.1,5.1-11.1,4.9C83.8,156.2,89.1,154.6,89.8,154.1z"/>
	<path id="path161" class="st3" d="M84.2,149c8.3-0.7,8.9,0.6,10.9,0.7c0.6,0.5,1.1,0.4,1.9,1.1c0,1.3-0.2,1.6-1.2,2
		c-1.5,0.6-7.5,0.5-9.1,0.4c-0.8-0.1-1.7-0.3-2.5-0.5c-0.8-0.3-1.4-0.6-2.2-0.8c-0.1-0.3-1.2-0.5-1.5-1.2c0.3-0.5,0-0.2,0.7-0.6
		l0.3-0.2l0.8-0.2c0.4-0.1,0.1-0.1,0.5-0.1C83.1,149.1,83.5,149,84.2,149L84.2,149z"/>
	<path id="path163" class="st3" d="M84,140.1c1.3,0.1,6.4,4,6.9,4.2c0.4,0.5,1.3,1.3,1.8,1.7c0.4,0.4,1.2,1.4,1.8,1.7l0.4,0.9
		l-4.1-0.4l-1.5-0.1c0-0.1,0-0.2-0.1-0.2l-0.1-0.4c0,0,0-0.1,0-0.1l0,0c-0.2-0.6-0.2-0.5-1.1-1.3c-0.6-0.6-1.1-1.1-1.6-1.8
		C85.8,143.5,84.2,141.2,84,140.1L84,140.1z"/>
	<path id="path165" class="st3" d="M80.2,143.4c0.9,0.3,2,0.9,2.9,1.1c0.1,0.1-0.1,0,0.3,0.2c0.5,0.2,0,0,0.4,0.1
		c0.5,0.7,3.1,1.7,3,2.7c-1.1,0-2.3,0-3.4,0.1c-2.5,0.2-5.8-3.6-6.3-3.9c-0.2-0.5-0.2-0.3-0.2-1C78,142.7,79.2,143.1,80.2,143.4
		L80.2,143.4z"/>
	<path id="path167" class="st3" d="M69.7,144.7c1.7-0.1,5.3-0.2,6.5,0.5c0.5,0.3,3.9,2.8,4,3c-1.5,0.7-4.8,0.8-6.6,0.1
		C72.2,147.8,69.9,146.1,69.7,144.7z"/>
	<path id="path169" class="st3" d="M69,140.4c2.4-0.1,7.1,1.7,7.7,2.8c-0.1,0.1-0.1,0.1-0.3,0.1c-0.1,0-0.2,0-0.3,0
		c-0.1,0-0.2,0-0.3,0l-2.6-0.2c-0.8-0.1-1.7-0.1-2.3-0.5c-0.5-0.4-1-1.1-1.7-1.4l0.1-0.1L69,140.4L69,140.4z"/>
	<path id="path171" class="st3" d="M73,139.6c-1-0.6-0.5-0.9,0.3-2.1c0.8-1.1,0.3-0.6,1.7-0.7c0.1,0.2,0,0.1,0.6,0.4
		c0.3,0.1,0.4,0.2,0.7,0.3c0.5,0.2,1,0.4,1.4,0.6c1.9,0.9,5.9,3.8,6.4,5.6c-1.4-0.1-7.7-2.1-9.2-3c-0.5-0.3-0.8-0.4-1.3-0.7
		C73.3,139.8,73.2,139.8,73,139.6L73,139.6z"/>
	<path id="path173" class="st3" d="M82.1,137.9c0.5,0.5,1.1,0.8,1.1,1.7c-1.4-0.3-6-3.2-7.6-3.6c-0.6-0.7-1.2-2.2-1.1-3.4
		c0.8,0.1,2.7,1.4,3.3,1.8l3.1,2.3C81.1,137,81.8,137.6,82.1,137.9L82.1,137.9z"/>
	<path id="path175" class="st3" d="M58.9,132.2c1.5,0.2,4.8,2.3,5.8,3.2c0.8,0.6,4.5,4.1,3.7,4.9c-0.5,0.5-6.7-0.4-8.7-4.5
		C59.3,135.1,58.8,133.4,58.9,132.2L58.9,132.2z"/>
	<path id="path177" class="st3" d="M64.3,132.6c0.2-0.3-0.1-0.1,0.4-0.1c0.1,0.7,4.9,4.3,5.1,6.5c-0.8-0.2-4.8-5.3-5.5-6L64.3,132.6
		L64.3,132.6z"/>
	<path id="path179" class="st3" d="M63.7,129.3c-0.1-1.1-0.3-1.7-0.3-3l0.1-2.4c0.3-0.7-0.1-0.3,0.6-0.4c0,0.3,0.1,0.3,0.5,0.7
		c0.1,0.1,0.2,0.3,0.3,0.4c0.2,0.3,0.1,0.2,0.4,0.3c0.1,0.4,1.6,2.1,2.1,2.6c1.2,1.4,5.8,7.7,5.7,8.6c-0.2,0.5-0.4,0.6-0.6,1.1
		c-0.2,0.4-0.4,0.7-0.8,0.9c-0.7-0.5-5.4-5.9-6.3-6.7c-0.3-0.4-0.5-0.6-0.9-1C64,129.9,64.1,130,63.7,129.3L63.7,129.3z"/>
	<path id="path181" class="st3" d="M57.3,122.3c0.7,0.1,2.6,1.3,3,2c0.3,0,0.7,0.4,0.9,0.6c0.1,0.1,0.3,0.3,0.3,0.5
		c0.2,0.3,0.2,0.3,0.2,0.6c1.3,1.1,0.9,4.9,0.7,6.4c-0.9,0.1-2.1-0.7-2.7-1.1c-1-0.7-1.2-1-1.5-2.3C57.6,127,57.3,125,57.3,122.3
		L57.3,122.3z"/>
	<path id="path183" class="st3" d="M55.4,129.4c0.5,0.4,0.1,0.1,0.4,0.2c0.3,0.7,1.1,1.7,1.5,2.4c0.5,0.9,0.8,1.7,0.8,3.1
		c-0.9-0.2-0.9-0.7-1.7-1c-0.4-0.7-3.8-3-3.4-6.5c0.4,0.1,1.1,0.7,1.5,0.9C55.1,129,55.1,129.2,55.4,129.4L55.4,129.4z"/>
	<path id="path185" class="st3" d="M56.6,125.5c0.2,1,0.9,3.2,0.9,3.9c-0.7,0-0.3-0.2-1.1-0.5c0,0,0-0.1,0-0.1c0,0-0.1,0-0.1-0.1
		l-1.1-0.8c-1.6-1.2-2.6-1.8-3.9-3.3c-0.9-1-3.9-4.2-3.9-5.6c-0.3-0.2-0.1,0.1-0.3-0.5c-0.2-0.6-0.3-1-0.2-1.5
		c0.3,0.1,0.2-0.1,0.3,0.2c0.4,0.2,0.5,0.4,0.9,0.7c0.1,0.1,0.2,0.2,0.4,0.3c0.3,0.3,0.2,0.1,0.4,0.5c0.8,0.4,1.8,1.5,2.6,2.1l4,3.3
		C56.1,124.5,56.5,124.6,56.6,125.5L56.6,125.5z"/>
	<path id="path187" class="st3" d="M55.4,110.6c0.8,0.4,2.6,4.1,2.9,5.6c0.4,1.6,2,5.4,2,6.8c-0.7-0.3-2.2-1.4-2.8-1.8
		c-1.5-1-1.4-0.8-2.1-2.6c-0.4-0.9-0.8-2.7-0.7-3.9C54.7,113.7,54.9,111.4,55.4,110.6L55.4,110.6z"/>
	<path id="path189" class="st3" d="M59.1,114.3l1.4-4.6c1.5,1.4,2.7,5.3,2.7,8.1c0,0.9-0.3,2.7-0.1,3.4l-0.1,0.2
		c-0.3,0.7-0.2,1.2-0.4,1.7c-0.4-0.2-0.3-0.2-0.6-0.8c-0.2-0.3-0.4-0.6-0.6-1c-0.4-0.7-0.7-1.2-1.2-1.9
		C59.7,118.5,59,115.4,59.1,114.3L59.1,114.3z"/>
	<path id="path191" class="st3" d="M46.2,106.4c0.3,0.5,2,2.1,2.4,2.6c0.6,0.7,1.8,2.1,2.1,2.9c0.3,0.2,0.2,0.1,0.5,0.4l2.2,3.8
		c0.4,1,1.7,4.4,1.7,5.3c-0.8-0.5-1.5-1-2.2-1.6c-0.6-0.5-1.5-1-2.4-1.6c-1-0.7-3.5-2.7-3.8-4.2c-0.1,0-0.2,0.2,0-0.1
		c-0.4-0.3-0.5-0.5-0.7-1l-0.8-2.3c-0.3-1.2-0.2-1-0.5-1.3c0.2-1-0.8-3.5-0.7-4.7c0.1,0,1.2,0.8,1.2,0.8
		C45.5,105.6,46.1,106.2,46.2,106.4L46.2,106.4z"/>
	<path id="path193" class="st3" d="M48.1,100.8c0.1,1.9,0.2,4.2,0.1,6.1c-0.9-0.1-1.2-0.1-1.9-0.6c-0.3-0.2-0.7-0.6-0.9-0.8
		c-0.5-0.9-1.1-0.8-2.3-4.9c-0.3-1-0.4-1.9-0.4-3.1c-0.1-1.9,0.4-1.4,0.9-2.4c0.3-0.1,0.1,0,0.3-0.2l0.4-0.3c0.1-0.3,0-0.1,0.2-0.4
		c0.1-0.1,0.2-0.2,0.4-0.4c0.3-0.3,0.5-0.4,0.7-0.8c0.3-0.2,0.5-0.4,0.8-0.6c0.3,0.5,1,2.3,0.8,3c0,0,0.1,0,0.1,0.1l0.2,0.4
		c0,0.1,0.1,0.5,0.1,0.7C47.7,97.9,48,98.7,48.1,100.8L48.1,100.8z"/>
	<path id="path195" class="st3" d="M51.4,93.8c0.2,3.2,1.1,2.1,0.4,3.3c-1,1.7-1.2,1.7-2.2,3.8l-0.6,1.6l-0.8-7.3
		c-0.2-0.7-0.4-1.3-0.5-2.1c1.1,0.4,1.4,1.8,2.4,2.2c0.4-0.5,0.5-0.8,0.9-1.3C51.4,93.8,51.3,93.9,51.4,93.8L51.4,93.8z"/>
	<path id="path197" class="st3" d="M52.3,98.3c0.6,0.3,1.2,1.7,1.5,2.3c0.2,0.3,0.4,0.6,0.5,1c0.2,0.6,0.3,4.3,0.2,4.9l-0.7,3.9
		c-0.1,0.5-0.2,1.5-0.5,1.9c-0.5-0.2-3-3.7-3.1-4.4c-0.6-2.3-0.5-4.2,0.3-6.4C50.7,100.8,51.6,98.8,52.3,98.3z"/>
	<path id="path199" class="st3" d="M56.7,99.3c0.7,0.4,0.5,1,1.2,1.5c0,0.5,0.6,1.7,0.8,2.4c1,3.7-0.7,6.7-0.6,8.5
		c-0.4,0.3-0.1,0.1-0.6,0.3c-0.5-0.9-1-1.1-1.6-2.7c-0.2-0.6-0.9-2.8-0.8-3.4c-0.3-0.4-0.4-0.9-0.5-1.4c-0.3-2.4-0.3-5.8,0.7-6.5
		c0.4,0.2,0.4,0.3,0.9,0.5C56.5,99.1,56.5,98.9,56.7,99.3L56.7,99.3z"/>
	<path id="path201" class="st3" d="M45.2,83.1l0.6,6.4c0.2,3.2-0.2,2.4-0.2,3.1c-0.3,0.2-0.1,0-0.4,0.3l-0.2,0.3
		c-0.1,0.2-0.2,0.4-0.4,0.5c-0.3,0.2-0.9,0.4-1.3,0.4c-0.1-0.4,0-0.5-0.3-0.9L42.8,93c0-0.2-0.7-3.8-0.7-6c0-4.8,0.8-3.8,1.3-5.4
		C44.6,80.8,45,82.1,45.2,83.1L45.2,83.1z"/>
	<path id="path203" class="st3" d="M53,84.2c0.1,1.1,0.2,2-0.1,2.9c-0.3,0.8-0.2,1.7-0.6,2.6c-0.3,0.7-0.8,1.4-1.1,2.1
		c-0.3,0.7-0.6,1.5-1.1,2c-0.5-0.1-2.8-2.8-2.8-2.9c-0.2-0.4-0.5-4.6-0.5-5.4c0-2.4-0.1-7.6,1.6-9.6l0.2-0.2
		c0.6,0.1,0.2-0.1,0.6,0.3c0.7,0.6,1.9,2.7,2.2,3.4C52.4,81.4,52.7,81.7,53,84.2L53,84.2z"/>
	<path id="path205" class="st3" d="M57.5,79.4C57.4,79.4,57.4,79.4,57.5,79.4c-0.4,0.3-1.4,1.6-1.7,2c-0.7,0.8-1.1,1.7-1.6,1.7
		c-0.6-1.3-1-3.1-1.5-4.5c-0.4-1.4-0.6-4.3,0.4-4.9l-0.1,0l0-0.4c0.1-0.1,0.8-0.9,1-1.1c0.5-0.5,0.6-0.6,1.1-1
		c0.7-0.6,1.8-1.5,2.7-1.8c0.1,0.2,0.1,0.1,0.2,0.3l0.2,0.8c0.3,2.3,0.2,4.4-0.2,6.6c-0.1,0.4-0.1,0.8-0.2,1.2L57.5,79.4
		C57.5,79.3,57.5,79.4,57.5,79.4L57.5,79.4z"/>
	<path id="path207" class="st3" d="M58.7,91.3l-1.5,2.6c-0.2,1-1.1,1.9-1.7,2.6c-0.3,0.3-0.8,0.8-1.2,1c-0.7,0.3-0.8-0.2-1-0.9
		c-0.4-0.3-0.7-1.3-0.9-2c-0.3-1.6,1.1-5.4,1.7-6.9c1.2-3.2,0.3-3.1,1.4-4.4c1.4-1.8,2.3-2.2,2.9-3c0.5-0.2,0.2-0.3,0.8-0.3
		c0.7,1.4,0.6,7,0.2,8.9C59.2,89.4,58.6,90.9,58.7,91.3z"/>
	<path id="path209" class="st3" d="M97.4,148.4c-0.1-0.1-0.1-0.3-0.1-0.4c0,0,0,0,0,0c-0.2-0.3-0.1-0.7,0.1-1
		c0.1-0.3,0.3-0.4,0.6-0.6c0.4-0.3,0.7-0.5,1.2-0.6c0.3-0.1,0.7-0.1,1,0.1c0,0,0.1,0,0.1,0c0,0,0.1,0,0.1,0c0,0,0,0,0,0
		c0.4,0.2,0.8,0.3,1.1,0.7c0.1,0.1,0.1,0.1,0.2,0.2c0.1,0.1,0.1,0.1,0.2,0.2c0.2,0.2,0.3,0.5,0.3,0.8c0,0.1,0,0.3,0,0.4
		c0,0.2,0,0.5-0.1,0.7c0,0.1-0.1,0.2-0.1,0.2c0,0.1-0.1,0.1-0.1,0.2c-0.2,0.2-0.6,0.4-1,0.5c-0.1,0-0.2,0-0.3,0.1
		c-0.1,0-0.2,0-0.2,0c-0.6,0-1.2-0.1-1.7-0.3C98.1,149.3,97.6,148.9,97.4,148.4L97.4,148.4z"/>
	<path id="path211" class="st3" d="M93.4,144.8c0-0.4,0.2-0.5,0.6-0.8c0.5-0.4,1-0.5,1.6-0.5c0.4,0,0.8,0.1,1.1,0.3
		c0.2,0.1,0.4,0.2,0.6,0.4c0.4,0.3,0.6,0.9,0.6,1.4c0,0.4-0.2,0.7-0.5,1c-0.5,0.4-1,0.8-1.6,1c0,0,0,0,0,0c-0.4,0.1-0.9,0.2-1.3-0.1
		c0,0,0,0,0,0c-0.1,0-0.2-0.1-0.2-0.1c-0.6-0.5-0.9-1-1-1.8c0,0,0-0.1,0-0.1C93.4,145,93.4,144.9,93.4,144.8L93.4,144.8z"/>
	<path id="path213" class="st1" d="M62.1,108.6c-1.5-2.4-0.9-1.9-1.4-5.8c-0.4-0.7-0.8-2.7-1.3-3c-0.5-1.5-1.4-1.9-1.8-2.7
		c0.1-0.3,1.3-1.9,2-3.5c0.3-0.6,0.6-1.2,0.9-1.8c0.2-0.5,0.7-1.8,0.8-2l0.3-2.1c0.3-0.4,0.6-6.1-0.4-8.3c-1.2-2.7-1.3-0.9-0.9-5
		c0.1-0.9,0.1-2,0-3c-0.1-1.6-0.4-4.1-0.9-5.3c-0.7,0.1-5.1,3-5.3,3.5c-0.9,0.5-1.4,1.2-2.1,1.9c-0.7,0.7-1,1.8-1.2,2.7
		c-0.9-0.1-1.2-1.1-2.2-1.6c-0.6,0.2-1.8,2.1-2.2,2.9c-0.7,1.5-1.1,3.5-1.2,3.7c-0.5-0.1-0.6-0.5-1-0.6c-0.5-0.1-0.8,0.3-1,0.7
		c-0.7,0.1-1.7,1.9-2.1,2.5c-1.5,2.7-0.8,9.1,0.1,11.9c0,0.5,0.2,0.5,0.2,0.9c0,0.6-0.2,0.4-0.4,0.9c-0.5,1.5,0.4,4.9,0.6,6.4
		c0.5,2.8,1.6,9.3,2.9,11.8c0.5,1.2,0.4,2.9,0.7,4.2c0.9,4.2,3.3,5.6,3.3,6.3c0.6,0.2,1.2,1.2,1.6,1.6c0.9,1,0.9,0.6,1,2.2
		c0.1,1.4,0.9,4.1,1.7,4.7c0.4,0.9,2.2,2.6,3,3.2c0.6,0.5,1.2,0.9,1.8,1.3c0.6,0.4,1.3,1.1,1.9,1.2c0.1,0.6,1,1.2,1.5,1.6
		c1.3,0.9,2.9,1.7,4.6,2c1.1,0.2,2.2,0.2,2.4,0.8l-1.1,0.2c0,0.7,1,2.8,1.5,3.5c0.5,0.5,0.1,0.2,0.5,0.3c0,0.5,0.2,0.7,0.6,1.1
		c1,1.1,2.4,1.8,2.7,2.1c0.6,0,1.6,0.5,2.6,0.6c1,0.1,2.1,0.1,3.1,0.2l0.2,0.5c0.6,0.3,2.1,2.4,5.5,3.1l0.5,0.2
		c0.3,0.2,0.1,0.1,0.3,0.2c-0.2,0.4-0.3,0.2-0.4,0.4l-0.1,0l0,0.1l0,0.1c-0.7,0.3-1.7,1.8-1.9,2.5c-0.2,0.5-0.1,0.7-0.5,0.9l0,1.9
		c2.9,1.7,6.8-0.6,7.9-0.8c0.3,0.5,0.2,1.2,0.7,2.3c2.1,0.2,4.7-0.3,6.4-1.4c0.4-0.3,0.9-0.9,1.4-1.1c0.6,0,0.5,1.3,2.2,0.6
		c0.7-0.3,1.8-0.7,2.1-1.4c0.2-0.2,0.3-0.3,0.3-0.1c1.2,2,5,4.1,8.3,3.3c0.3-0.7,0.5-1.4,0.5-2.3c1.5,0.2,5.4,2.6,8,0.8
		c0.4-2.1-1.3-5.1-2.7-5.7l-0.1-0.2c0-0.1,0,0,0-0.2c1-0.2,3-1,3.9-1.5c1.4-0.8,1.8-1.5,2.8-2.5c0.6-0.3,6,1.2,9.6-4.5
		c0.4-0.6,1.4-2.4,1.4-3.2l-1.2-0.1c0.3-0.8,2.1-0.4,4.2-1.2c1.4-0.6,2.4-1.2,3.5-2c0.7-0.5,1.2-1.2,3-2.5l3.2-2.4
		c0-0.2-0.3-0.2,0.2-0.2c0.2-0.4,0.2-0.4,0.6-0.8c0.2-0.2,0.3-0.4,0.5-0.6c0.3-0.3,0.5-0.8,0.7-1.2l0,0c0,0,0,0,0-0.1l0,0
		c0.2-0.4,0.4-0.7,0.5-1.1c0.2-0.6,0.1-0.8,0.5-1.1c-0.1-0.4,0.1-1.7,0.1-2.4c0.1-0.6,0.6-1.1,1-1.5c0.6-0.7,2.1-2.1,2.4-2.8
		c0.4-0.2,0.4-0.4,0.7-0.8c2.5-3.5,1.6-6.3,2.4-8.3c1.2-2.7,2.8-11.1,3.4-14.8c0.8-4.5-0.6-3.3-0.1-5.3c0.4-1.7,0.8-3.2,0.9-5.2
		c0-1,0-2.1,0-3.1c0-0.8-0.3-2.2-0.2-2.7c-0.6-0.5-0.7-1.4-1.5-2.4c-0.7-0.7-1.2-1.5-2-1.9c-0.4,0.1-0.3,0.1-0.6,0.4
		c-0.3,0.2-0.2,0.2-0.6,0.3c-0.2-0.3-0.4-1.5-0.5-2c-0.4-1.4-1.6-3.8-2.7-4.5c-0.9,0.3-1.2,1.2-2.1,1.6c-0.3-0.5-0.6-1.6-1-2.3
		c-0.4-0.8-1.1-1-1.4-1.7c-0.5-0.1-1-1-1.6-1.2c-0.5-0.6-4.3-3.1-4.9-3c-0.4,2.7-0.8,2.8-0.8,6.7c0,2.5,0.6,4-0.1,5.2
		c-3.3,5.3,0,14,0,14.3c0.4,0.1,0.2-0.1,0.5,0.5c0.1,0.2,0.2,0.5,0.3,0.8c0.2,0.5,0.4,1.1,0.8,1.3c0.2,1.1,0.9,1.3,1.3,2.1l-1.5,1.9
		c-1.9,2.8-1.8,4.9-2,8c-0.7,0.7-2.7,4.4-3.1,5.6c-0.8,2.3-1.1,4.9-0.8,7.9c0.2,1.1,0.2,1.1-0.4,1.7l-3.1,3.4c-0.9,1-3.3,4.6-3.8,5
		l-0.3-0.9c-0.8,0-1.9,0.7-2.7,0.9c-0.8,0.5-1.9,1.1-2.9,1.6c-1.3,0.9-2.6,1.8-3.9,2.8c-1.1,0.9-2.8,2.9-3.3,3.3
		c-0.3,0.2-4.1,2.4-6.1,3.9c-0.4,0.3-1.4,1.1-1.9,1.6c-0.3-0.9-0.9-2-1.7-2.5c-0.3-0.3-0.5-0.4-0.9-0.6c-0.3-0.2-0.3-0.3-0.8-0.4
		c-0.8-0.3-2.8-0.7-3.6,0.2c-0.6,0.4-0.7,0.5-1,1.1c-0.4,0.4-0.4,0.8-0.4,1.5l0,0c-0.6-0.3-1.8-1.8-3.8-1.7c-1.3,0-2.6,0.6-3.2,1.4
		c-0.7-0.2-2.5-1.5-3.1-2l-2.2-1.4c-0.1-0.1-0.2-0.1-0.4-0.2l-0.4-0.4c-0.8-0.1-1.9-1.5-2.5-2.1c-0.4-0.4-0.7-0.7-1.2-1.2
		c-0.4-0.4-1-0.8-1.2-1.2c-1.1-0.4-2.6-2.2-3.9-2.4c-0.1-0.4-1.1-0.7-1.5-0.9c-0.6-0.3-1.1-0.6-1.7-0.7c-0.4-0.4-1.1-0.6-1.7-0.6
		c-0.1,0.1-0.1,0.6-0.3,0.9c-0.8-1.2-4-5.8-5-6.3c-0.1-0.5-1-1.4-1.5-1.8c-1.1-1.1-0.8-0.9-0.7-2.8c0.1-2.4,0.1-4.5-0.6-6.5
		C63.8,111.4,63.1,110.1,62.1,108.6L62.1,108.6z"/>
	<path id="path215" class="st0" d="M44.4,113.9c0.5,1.2,0.4,2.9,0.7,4.2c0.9,4.2,3.3,5.6,3.3,6.3c0.6,0.2,1.2,1.2,1.6,1.6
		c0.9,1,0.9,0.6,1,2.2c0.1,1.4,0.9,4.1,1.7,4.7c0.4,0.9,2.2,2.6,3,3.2c0.6,0.5,1.2,0.9,1.8,1.3c0.6,0.4,1.3,1.1,1.9,1.2
		c0.1,0.6,1,1.2,1.5,1.6c1.3,0.9,2.9,1.7,4.6,2c1.1,0.2,2.2,0.2,2.4,0.8l-1.1,0.2c0,0.7,1,2.8,1.5,3.5c0.5,0.5,0.1,0.2,0.5,0.3
		c0,0.5,0.2,0.7,0.6,1.1c1,1.1,2.4,1.8,2.7,2.1c0.6,0,1.6,0.5,2.6,0.6c1,0.1,2.1,0.1,3.1,0.2l0.2,0.5c0.6,0.3,2.1,2.4,5.5,3.1
		l0.7,0.4c-0.2,0.4-0.3,0.2-0.4,0.4l-0.1,0l0,0.1l0,0.1c-0.7,0.3-1.7,1.8-1.9,2.5c-0.2,0.5-0.1,0.7-0.5,0.9l0,1.9
		c2.9,1.7,6.8-0.6,7.9-0.8c0.3,0.5,0.2,1.2,0.7,2.3c2.1,0.2,4.7-0.3,6.4-1.4c0.4-0.3,0.9-0.9,1.4-1.1c0.6,0,0.5,1.3,2.2,0.6
		c0.7-0.3,1.8-0.7,2.1-1.4c0.2-0.2,0.3-0.3,0.3-0.1c1.2,2,5,4.1,8.3,3.3c0.3-0.7,0.5-1.4,0.5-2.3c1.5,0.2,5.4,2.6,8,0.8
		c0.4-2.1-1.3-5.1-2.7-5.7l-0.1-0.4c1-0.2,3-1,3.9-1.5c1.4-0.8,1.8-1.5,2.8-2.5c0.6-0.3,6,1.2,9.6-4.5c0.4-0.6,1.4-2.4,1.4-3.2
		l-1.2-0.1c0.3-0.8,2.1-0.4,4.2-1.2c1.4-0.6,2.4-1.2,3.5-2c0.7-0.5,1.2-1.2,3-2.5l3.2-2.4c0-0.2-0.3-0.2,0.2-0.2
		c0.4-0.6,0.6-0.8,1.1-1.4c0.3-0.3,0.5-0.8,0.7-1.2l0.1-0.1c0.2-0.4,0.4-0.7,0.5-1.1c0.2-0.6,0.1-0.8,0.5-1.1
		c-0.1-0.4,0.1-1.7,0.1-2.4c0.1-0.6,0.6-1.1,1-1.5c0.6-0.7,2.1-2.1,2.4-2.8c0.4-0.2,0.4-0.4,0.7-0.8c2.5-3.5,1.6-6.3,2.4-8.3
		c1.2-2.7,2.8-11.1,3.4-14.8c0.8-4.5-0.6-3.3-0.1-5.3c0.4-1.7,0.8-3.2,0.9-5.2c0-1,0-2.1,0-3.1c0-0.8-0.3-2.2-0.2-2.7
		c-0.6-0.5-0.7-1.4-1.5-2.4c-0.7-0.7-1.2-1.5-2-1.9c-0.8,0.3-0.6,0.6-1.3,0.7c-0.2-0.3-0.4-1.5-0.5-2c-0.4-1.4-1.6-3.8-2.7-4.5
		c-0.9,0.3-1.2,1.2-2.1,1.6c-0.3-0.5-0.6-1.6-1-2.3c-0.4-0.8-1.1-1-1.4-1.7c-0.5-0.1-1-1-1.6-1.2c-0.5-0.6-4.3-3.1-4.9-3
		c-0.4,2.7-0.8,2.8-0.8,6.7c0,2.5,0.6,4-0.1,5.2c-3.3,5.3,0,14,0,14.3c0.4,0.1,0.2-0.1,0.5,0.5c0.1,0.2,0.2,0.5,0.3,0.8
		c0.2,0.5,0.4,1.1,0.8,1.3c0.2,1.1,0.9,1.3,1.3,2.1l-1.5,1.9c-1.9,2.8-1.8,4.9-2,8c-0.7,0.7-2.7,4.4-3.1,5.6
		c-0.8,2.3-1.1,4.9-0.8,7.9c0.2,1.1,0.2,1.1-0.4,1.7l-3.1,3.4c-0.9,1-3.3,4.6-3.8,5l-0.3-0.9c-0.8,0-1.9,0.7-2.7,0.9
		c-0.8,0.5-1.9,1.1-2.9,1.6c-1.3,0.9-2.6,1.8-3.9,2.8c-1.1,0.9-2.8,2.9-3.3,3.3c-0.3,0.2-4.1,2.4-6.1,3.9c-0.4,0.3-1.4,1.1-1.9,1.6
		c-0.3-0.9-0.9-2-1.7-2.5c-0.3-0.3-0.5-0.4-0.9-0.6c-0.3-0.2-0.3-0.3-0.8-0.4c-0.8-0.3-2.8-0.7-3.6,0.2c-0.6,0.4-0.7,0.5-1,1.1
		c-0.4,0.4-0.4,0.8-0.4,1.5c-0.3,0-1.7-1.8-3.8-1.7c-1.3,0-2.6,0.6-3.2,1.4c-0.7-0.2-2.5-1.5-3.1-2l-2.2-1.4
		c-0.1-0.1-0.2-0.1-0.4-0.2l-0.4-0.4c-0.8-0.1-1.9-1.5-2.5-2.1c-0.4-0.4-0.7-0.7-1.2-1.2c-0.4-0.4-1-0.8-1.2-1.2
		c-1.1-0.4-2.6-2.2-3.9-2.4c-0.1-0.4-1.1-0.7-1.5-0.9c-0.6-0.3-1.1-0.6-1.7-0.7c-0.4-0.4-1.1-0.6-1.7-0.6c-0.1,0.1-0.1,0.6-0.3,0.9
		c-0.8-1.2-4-5.8-5-6.3c-0.1-0.5-1-1.4-1.5-1.8c-1.1-1.1-0.8-0.9-0.7-2.8c0.1-2.4,0.1-4.5-0.6-6.5c-0.6-1.8-1.3-3.1-2.3-4.6
		c-1.5-2.4-0.9-1.9-1.4-5.8c-0.4-0.7-0.8-2.7-1.3-3c-0.5-1.5-1.4-1.9-1.8-2.7c0.1-0.3,1.3-1.9,2-3.5c0.3-0.6,0.6-1.2,0.9-1.8
		c0.2-0.5,0.7-1.8,0.8-2l0.3-2.1c0.3-0.4,0.6-6.1-0.4-8.3c-1.2-2.7-1.3-0.9-0.9-5c0.1-0.9,0.1-2,0-3c-0.1-1.6-0.4-4.1-0.9-5.3
		c-0.7,0.1-5.1,3-5.3,3.5c-0.9,0.5-1.4,1.2-2.1,1.9c-0.7,0.7-1,1.8-1.2,2.7c-0.9-0.1-1.2-1.1-2.2-1.6c-0.6,0.2-1.8,2.1-2.2,2.9
		c-0.7,1.5-1.1,3.5-1.2,3.7c-0.5-0.1-0.6-0.5-1-0.6c-0.5-0.1-0.8,0.3-1,0.7c-0.7,0.1-1.7,1.9-2.1,2.5c-1.5,2.7-0.8,9.1,0.1,11.9
		c0,0.5,0.2,0.5,0.2,0.9c0,0.6-0.2,0.4-0.4,0.9c-0.5,1.5,0.4,4.9,0.6,6.4C42,104.9,43.1,111.3,44.4,113.9L44.4,113.9z M55.2,121.5
		c-0.8-0.5-1.5-1-2.2-1.6c-0.6-0.5-1.5-1-2.4-1.6c-1-0.7-3.5-2.7-3.8-4.2c-0.1,0-0.2,0.2,0-0.1c-0.4-0.3-0.5-0.5-0.7-1l-0.8-2.3
		c-0.3-1.2-0.2-1-0.5-1.3c0.2-1-0.8-3.5-0.7-4.7c0.1,0,1.2,0.8,1.2,0.8c0.1,0.1,0.8,0.7,0.9,0.8c0.3,0.5,2,2.1,2.4,2.6
		c0.6,0.7,1.8,2.1,2.1,2.9c0.3,0.2,0.2,0.1,0.5,0.4l2.2,3.8C53.9,117.2,55.2,120.6,55.2,121.5L55.2,121.5z M58.3,129.2
		c-0.7-2.2-1.1-4.2-1-6.9c0.7,0.1,2.6,1.3,3,2c0.4,0,1,0.8,1.2,1.1c0.2,0.3,0.2,0.3,0.2,0.6c1.3,1.1,0.9,4.9,0.7,6.4
		c-0.9,0.1-2.1-0.7-2.7-1.1C58.9,130.7,58.7,130.4,58.3,129.2z M63.4,126.3l0.1-2.4c0.3-0.7-0.1-0.3,0.6-0.4c0,0.3,0.1,0.3,0.5,0.7
		c0.1,0.1,0.2,0.3,0.3,0.4c0.2,0.3,0.1,0.2,0.4,0.3c0.1,0.4,1.6,2.1,2.1,2.6c1.2,1.4,5.8,7.7,5.7,8.6c-0.2,0.5-0.4,0.6-0.6,1.1
		c-0.2,0.4-0.4,0.7-0.8,0.9c-0.7-0.5-5.4-5.9-6.3-6.7c-0.3-0.4-0.5-0.6-0.9-1c-0.5-0.5-0.3-0.4-0.7-1
		C63.6,128.2,63.4,127.6,63.4,126.3L63.4,126.3z M75.6,136c-0.6-0.7-1.2-2.2-1.1-3.4c0.8,0.1,2.7,1.4,3.3,1.8l3.1,2.3
		c0.2,0.4,0.9,0.9,1.3,1.3c0.5,0.5,1.1,0.8,1.1,1.7C81.9,139.3,77.2,136.4,75.6,136L75.6,136z M93.4,144.8c0-0.4,0.2-0.5,0.6-0.8
		c0.5-0.4,1-0.5,1.6-0.5c0.4,0,0.8,0.1,1.1,0.3c0.2,0.1,0.4,0.2,0.6,0.4c0.4,0.3,0.6,0.9,0.6,1.4c0,0.8-1.4,1.8-2.1,2
		c-0.4,0.1-0.9,0.2-1.3-0.1l-0.2-0.2c-0.7-0.6-0.9-1.1-1-2C93.4,145,93.4,144.9,93.4,144.8L93.4,144.8z M97.4,148.4
		c-0.1-0.2-0.1-0.4-0.1-0.4c-0.2-0.3-0.1-0.7,0.1-1c0.1-0.3,0.3-0.4,0.6-0.6c0.4-0.3,0.7-0.5,1.2-0.6c0.5-0.1,0.9,0,1.3,0.2
		c0.7,0.3,1,0.5,1.4,1.1c0.2,0.2,0.3,0.5,0.3,0.8c0.1,0.5,0.1,0.6-0.1,1.1c-0.2,0.6-0.6,0.8-1.3,0.9C99.5,150,98,149.6,97.4,148.4
		L97.4,148.4z M53.3,112.3c-0.5-0.2-3-3.7-3.1-4.4c-0.6-2.3-0.5-4.2,0.3-6.4c0.3-0.8,1.2-2.8,1.8-3.3c0.6,0.3,1.2,1.7,1.5,2.3
		c0.2,0.3,0.4,0.6,0.5,1c0.2,0.6,0.3,4.3,0.2,4.9l-0.7,3.9C53.7,111,53.6,111.9,53.3,112.3z M54.7,104.6c-0.3-2.4-0.3-5.8,0.7-6.5
		c0.4,0.2,0.4,0.3,0.9,0.5c0.2,0.5,0.2,0.3,0.4,0.8c0.7,0.4,0.5,1,1.2,1.5c0,0.5,0.6,1.7,0.8,2.4c1,3.7-0.7,6.7-0.6,8.5
		c-0.4,0.3-0.1,0.1-0.6,0.3c-0.5-0.9-1-1.1-1.6-2.7c-0.2-0.6-0.9-2.8-0.8-3.4C54.8,105.5,54.8,105.1,54.7,104.6L54.7,104.6z
		 M57.2,93.9c-0.2,1-1.1,1.9-1.7,2.6c-0.3,0.3-0.8,0.8-1.2,1c-0.7,0.3-0.8-0.2-1-0.9c-0.4-0.3-0.7-1.3-0.9-2
		c-0.3-1.6,1.1-5.4,1.7-6.9c1.2-3.2,0.3-3.1,1.4-4.4c1.4-1.8,2.3-2.2,2.9-3c0.5-0.2,0.2-0.3,0.8-0.3c0.7,1.4,0.6,7,0.2,8.9
		c-0.1,0.6-0.7,2-0.7,2.4L57.2,93.9z M57.5,79.4C57.4,79.4,57.4,79.4,57.5,79.4c-0.4,0.3-1.4,1.6-1.7,2c-0.7,0.8-1.1,1.7-1.6,1.7
		c-0.6-1.3-1-3.1-1.5-4.5c-0.4-1.4-0.6-4.3,0.4-4.9l-0.1,0l0-0.4c0.1-0.1,0.8-0.9,1-1.1c0.9-0.9,2.7-2.4,3.8-2.8
		c0.1,0.2,0.1,0.1,0.2,0.3l0.2,0.8c0.3,2.3,0.2,4.4-0.2,6.6L57.5,79.4C57.5,79.3,57.5,79.4,57.5,79.4L57.5,79.4z M51.9,97.1
		c-1,1.7-1.2,1.7-2.2,3.8l-0.6,1.6l-0.8-7.3c-0.2-0.7-0.4-1.3-0.5-2.1c1.1,0.4,1.4,1.8,2.4,2.2c0.5-0.6,0.4-0.9,1.1-1.5
		C51.7,97,52.6,95.9,51.9,97.1L51.9,97.1z M52.3,89.7c-0.3,0.7-0.8,1.4-1.1,2.1c-0.3,0.7-0.6,1.5-1.1,2c-0.5-0.1-2.8-2.8-2.8-2.9
		c-0.2-0.4-0.5-4.6-0.5-5.4c0-2.4-0.1-7.8,1.7-9.8c0.6,0.1,0.2-0.1,0.6,0.3c0.7,0.6,1.9,2.7,2.2,3.4c0.9,1.9,1.3,2.3,1.6,4.7
		c0.1,1.1,0.2,2-0.1,2.9C52.6,87.9,52.7,88.8,52.3,89.7z M48.2,106.9c-0.9-0.1-1.2-0.1-1.9-0.6c-0.3-0.2-0.7-0.6-0.9-0.8
		c-0.5-0.9-1.1-0.8-2.3-4.9c-0.3-1-0.4-1.9-0.4-3.1c-0.1-1.9,0.4-1.4,0.9-2.4c0.3-0.1,0.1,0,0.3-0.2l0.4-0.3
		c0.1-0.2-0.3,0.1,0.6-0.8c0.3-0.3,0.5-0.4,0.7-0.8c0.3-0.2,0.5-0.4,0.8-0.6c0.3,0.5,1,2.3,0.8,3c0,0,0.1,0,0.1,0.1l0.2,0.4
		c0,0.1,0.1,0.5,0.1,0.7c0.1,1.4,0.3,2.2,0.4,4.2C48.2,102.7,48.3,104.9,48.2,106.9L48.2,106.9z M45.7,89.5c0.2,3.2-0.2,2.4-0.2,3.1
		c-0.3,0.2-0.3,0.1-0.6,0.6c-0.1,0.2-0.2,0.4-0.4,0.5c-0.3,0.2-0.9,0.4-1.3,0.4c-0.1-0.4,0-0.5-0.3-0.9L42.8,93c0-0.2-0.7-3.8-0.7-6
		c0-4.8,0.8-3.8,1.3-5.4c1.2-0.8,1.6,0.5,1.7,1.6L45.7,89.5L45.7,89.5z M55.4,118.7c-0.4-0.9-0.8-2.7-0.7-3.9c0.1-1,0.3-3.4,0.7-4.1
		c0.8,0.4,2.6,4.1,2.9,5.6c0.4,1.6,2,5.4,2,6.8c-0.7-0.3-2.2-1.4-2.8-1.8C56,120.2,56.1,120.4,55.4,118.7L55.4,118.7z M60.2,119.4
		c-0.5-0.8-1.2-4-1.1-5l1.4-4.6c1.5,1.4,2.7,5.3,2.7,8.1c0,0.9-0.3,2.7-0.1,3.4l-0.1,0.2c-0.3,0.7-0.2,1.2-0.4,1.7
		c-0.4-0.2-0.3-0.2-0.6-0.8L60.2,119.4L60.2,119.4z M47.2,117.2c0.4,0.2,0.5,0.4,0.9,0.7c0.1,0.1,0.2,0.2,0.4,0.3
		c0.3,0.3,0.2,0.1,0.4,0.5c0.8,0.4,1.8,1.5,2.6,2.1l4,3.3c0.6,0.4,1,0.6,1.1,1.4c0.2,1,0.9,3.2,0.9,3.9c-0.7,0-0.3-0.2-1.1-0.5
		c0,0,0-0.1,0-0.1c0,0-0.1,0-0.1-0.1l-1.1-0.8c-1.6-1.2-2.6-1.8-3.9-3.3c-0.9-1-3.9-4.2-3.9-5.6c-0.3-0.2-0.1,0.1-0.3-0.5
		c-0.2-0.6-0.3-1-0.2-1.5C47.2,117.1,47.1,116.9,47.2,117.2L47.2,117.2z M55.4,129.4c0.5,0.4,0.1,0.1,0.4,0.2
		c0.3,0.7,1.1,1.7,1.5,2.4c0.5,0.9,0.8,1.7,0.8,3.1c-0.9-0.2-0.9-0.7-1.7-1c-0.4-0.7-3.8-3-3.4-6.5c0.4,0.1,1.1,0.7,1.5,0.9
		C55.1,129,55.1,129.2,55.4,129.4L55.4,129.4z M64.3,132.6c0.2-0.3-0.1-0.1,0.4-0.1c0.1,0.7,4.9,4.3,5.1,6.5c-0.8-0.2-4.8-5.3-5.5-6
		L64.3,132.6L64.3,132.6z M59.7,135.9c-0.4-0.8-0.9-2.5-0.8-3.6c1.5,0.2,4.8,2.3,5.8,3.2c0.8,0.6,4.5,4.1,3.7,4.9
		C67.9,140.9,61.7,139.9,59.7,135.9L59.7,135.9z M73.2,137.5c0.8-1.1,0.3-0.6,1.7-0.7c0.1,0.2,0,0.1,0.6,0.4l2.1,0.8
		c1.9,0.9,5.9,3.8,6.4,5.6c-1.4-0.1-7.7-2.1-9.2-3l-1.9-1C71.9,139,72.4,138.7,73.2,137.5L73.2,137.5z M69,140.4
		c2.4-0.1,7.1,1.7,7.7,2.8c-0.1,0.1-0.1,0.1-0.3,0.1l-0.6,0l-2.6-0.2c-0.8-0.1-1.7-0.1-2.3-0.5c-0.5-0.4-1-1.1-1.7-1.4l0.1-0.1
		L69,140.4L69,140.4z M69.7,144.7c1.7-0.1,5.3-0.2,6.5,0.5c0.5,0.3,3.9,2.8,4,3c-1.5,0.7-4.8,0.8-6.6,0.1
		C72.2,147.8,69.9,146.1,69.7,144.7z M80.2,143.4c0.9,0.3,2,0.9,2.9,1.1c0.1,0.1-0.1,0,0.3,0.2c0.5,0.2,0,0,0.4,0.1
		c0.5,0.7,3.1,1.7,3,2.7c-1.1,0-2.3,0-3.4,0.1c-2.5,0.2-5.8-3.6-6.3-3.9c-0.2-0.5-0.2-0.3-0.2-1C78,142.7,79.2,143.1,80.2,143.4
		L80.2,143.4z M86.5,144.3c-0.6-0.8-2.2-3.1-2.4-4.2c1.3,0.1,6.4,4,6.9,4.2c0.4,0.5,1.3,1.3,1.8,1.7c0.4,0.4,1.2,1.4,1.8,1.7
		l0.4,0.9l-5.6-0.5c0-0.1,0-0.2-0.1-0.2l-0.1-0.5l0,0c-0.2-0.6-0.2-0.5-1.1-1.3C87.4,145.5,87,145,86.5,144.3L86.5,144.3z M95,149.7
		c0.6,0.5,1.1,0.4,1.9,1.1c0,1.3-0.2,1.6-1.2,2c-1.5,0.6-7.5,0.5-9.1,0.4c-0.8-0.1-1.7-0.3-2.5-0.5c-0.8-0.3-1.4-0.6-2.2-0.8
		c-0.1-0.3-1.2-0.5-1.5-1.2c0.3-0.5,0-0.2,0.7-0.6l0.3-0.2l0.8-0.2c0.4-0.1,0.1-0.1,0.5-0.1c0.4-0.4,0.8-0.4,1.5-0.5
		C92.5,148.3,93.1,149.6,95,149.7L95,149.7z M89.8,154.1c1-0.2,1.9-0.5,2.9-0.7c0.9-0.2,2,0.1,3,0.2c-0.1,0.4,0,0.2-0.2,0.6
		l-0.7,0.4c-2.7,1.8-8.1,5.1-11.1,4.9C83.8,156.2,89.1,154.6,89.8,154.1z M97.8,152l0.2-1.8l0.6,0.1L98,153l-0.7-0.1
		C97.4,152.4,97.6,152.3,97.8,152z M97.1,154.8l0.9-0.2c0,1.2-0.5,1.4-0.7,2.4c-0.2,0.1-0.3,0.4-0.5,0.6c-0.5,0.8-0.9,1.2-1.7,1.7
		c-1,0.6-2.1,1.1-3.5,1C91.5,157.6,95.9,156.1,97.1,154.8z M98.7,153.9c0.1-0.6,0.3-1.2,0.4-1.9c0.3-1.3,0.1-1.4,0.6-1.7
		c1.9-1.1,2.4,4.5,1.1,6.9c-0.6,0.5,0.1,0.2-0.4,0.6l0,0.1c-0.2,0.4-0.5,0.7-1,0.6c-0.3-0.1-0.2-0.1-0.4-0.3
		C98.7,156.7,98.4,155.5,98.7,153.9L98.7,153.9z M100.7,144.3c0-0.5-0.1-1,0.2-1.4c0.5-1,1.7-1.4,3-0.7c0.4,0.2,0.9,0.6,1.1,1
		c0.5,0.6,0.8,0.9,0.5,1.7c-0.3,0.7-1.5,1-2.7,0.8C102.5,145.6,100.9,144.5,100.7,144.3L100.7,144.3z M104.7,158.6
		c-0.5-0.5-2.3-3.3-1.9-3.9c0.4-0.4,0.3,0,1.2,0.3c0.1,0.2-0.1,0,0.2,0.3c0.2,0.1,0.3,0.2,0.5,0.3c0.7,0.5,2.3,1.9,2.9,2l0.6,0.6
		c0.6,0.5,1,1.3,0.9,2.2C107.5,160.5,105.6,159.5,104.7,158.6z M103.9,150.7c0.8-0.7,3-1.3,4.3-1.5c1.8-0.3,3.4-0.4,5.3-0.4
		c2.8-0.1,5.4,0.4,7.1,1.7l-0.1,0.5c-1.2,0.3-0.6,0.1-1.6,0.6c-1.7,0.9-3.1,1.1-4.9,1.5c-1.5,0.1-7.7,0.2-9.1-0.4
		C104.1,152.3,103.8,151.9,103.9,150.7L103.9,150.7z M105.2,153.6c0.6-0.1,1.4-0.2,2-0.2c0.7,0,1.3,0.2,2.1,0.3
		c0.4,0.2,1.3,0.4,1.9,0.6c0.5,0.2,1.5,0.7,1.9,0.7c0.3,0.4,1.6,1,2.5,1.8c0.6,0.6,1.5,1.5,1.5,2.7c-2.9,0-4.4-1.4-5.9-1.8l-0.2-0.2
		c-0.4-0.2-1.6-0.7-2.8-1.5c-0.6-0.4-2.6-1.8-3-1.9L105.2,153.6L105.2,153.6z M105.9,148.3c0.7-0.2,2.9-3.3,4.1-3.8l0.3-0.4
		c1.1-0.7,1.8-1.4,3.1-2.1c0.6-0.4,2.6-1.7,3.4-1.9l-0.2,0.7c-0.7,1.2-0.9,1.9-1.7,3c-0.3,0.4-1.9,2.2-2,2.4
		c-0.6,0.3-0.6,0.7-1.1,0.8c-0.1,0.9,0.2,1.2-0.7,1.2l-4.5,0.5C105.9,148.7,105.9,148.9,105.9,148.3L105.9,148.3z M121.4,135.5
		c0.9-0.8,3.6-2.7,4.9-2.9c0,1-0.4,2.7-1,3.2l-7.7,3.7c0.1-0.7,0.4-0.9,0.7-1.2L121.4,135.5z M116.8,143.7c0.3-1.4,2-2.3,2.5-3.3
		l0.4-0.2c1.2-0.8,0.8-0.8,3-1.9c0.9-0.5,3.1-1.5,4.3-1.5c0.3,0.4,0.9,1.1,0.8,1.5c0.4,0.3,0.4,0.3,0.6,0.7
		c-0.4,0.7-1.7,1.2-2.5,1.6c-1.1,0.6-1.6,0.9-2.8,1.2L116.8,143.7L116.8,143.7z M124.3,143.2c0.9-1.1,5.4-2.8,7.5-2.7
		c0.1,0.2,0.2-0.2,0.1,0.6c-0.2,0,0-0.1-0.4,0.3c-0.1,0.1-0.2,0.2-0.3,0.4c-0.2,0.3-0.5,0.4-0.7,0.8c-1.3,0.5,0.2,0.5-2.9,0.8
		c-4.8,0.4-3-0.3-4.3,1.2c-1.2,1.3-4,3.4-5.8,3.3c-0.7,0-2.9-0.1-3.4-0.2c0.4-1.2,2.6-2,3-2.6l0.1,0c2.5-1.1,2.8-1.4,5.5-2
		C124.4,142.5,124,142.8,124.3,143.2L124.3,143.2z M125.1,145.1c1.1-0.5,5-0.8,6.3-0.3l-0.1,0.4c-0.4,0.3-1.2,2.3-4.2,3.2
		c-1.6,0.5-5.1,0.6-6.2-0.2C121.3,147.7,124.9,145.2,125.1,145.1L125.1,145.1z M129.1,133.6c0.8-1.4,6.9-10.1,8.1-10.2
		c0.4,1.6,0.3,4.9-0.2,6.2c-0.2,0.4-0.3,0.5-0.6,0.8c-1.1,1-2.4,2.5-3.4,3.6c-1,1.1-2.5,3-3.4,3.6c-0.1,0.4-0.1,0.3-0.5,0.5
		l-0.5-0.6C127.6,135.5,127.3,136.6,129.1,133.6L129.1,133.6z M131,139.1c-0.2-0.2,0.2-0.6,0.3-0.9c0.2-0.4,0.4-0.8,0.6-1.3
		c0.4,0,0.8-0.7,1.1-1c0.6-0.6,2.9-3.2,3.5-3.4c0,0.8-0.6,1.3-1.1,1.9C134.7,135.2,131.7,138.9,131,139.1z M137,134.9
		c0.1-0.1-0.1-0.1,0.2-0.2c0.1-0.1,0.1,0,0.3-0.1l0.5-0.5c0.2-0.1,0.4-0.2,0.5-0.3c0.8-0.5,2.5-1.5,3.5-1.6l-0.5,2.7
		c-0.3,0.5-0.6,1.5-1.2,2.1c-0.4,0.5-1.2,1.2-1.8,1.6c-1.5,1.1-2.7,1.4-4.9,1.8c-2.1,0.2-1.6-0.3-0.9-1.5c0.5-0.7,1-1.3,1.4-1.7
		c0.2-0.2,1.5-1.3,1.5-1.6L137,134.9L137,134.9z M138.3,132.5l-0.1-4.2c0.2-0.9,0.5-1.8,0.9-2.6c0.6-1.1,0.9-1,1.7-1.8
		c0.5-0.3,0.7-0.5,1.2-0.8c0.2-0.2,0.4-0.2,0.6-0.4c0.3-0.2,0.4-0.1,0.4-0.4l0.5,0l-0.1,2.9c-0.2,0.6-0.8,4.4-1.5,5.3l-1.2,1.1
		C139.9,131.9,139.5,132.4,138.3,132.5L138.3,132.5z M142.8,134.8c0-1.1,0.3-1.5,0.5-2.5l0.9-1.3c0.3-0.5,0.6-0.9,0.9-1.3
		c0.6-0.7,1.7-1.8,2.7-2.1l-0.2,1.6c-0.2,1.2-1,2.5-1.7,3.3c-0.4,0.4-0.8,0.8-1.3,1.2c-0.4,0.3-1.1,0.8-1.2,1.2
		C142.3,135.1,143,135,142.8,134.8z M137.9,115.5c0.3-1.4,1.6-5.2,2.5-5.6c0.5,0.3,0.9,2.6,1.1,3.4c0.4,1.8,0.3,2.2-0.1,3.9
		c-0.4,2-1.2,3-2.1,4.6l-0.8,1.3C137.7,122,137.6,117,137.9,115.5z M142.2,117.3c0.3-0.9,0.5-1.6,0.8-2.4c0.2-0.6,0.9-2,1-2.2
		l0.4-0.5c0.1-0.2,0.2-0.3,0.3-0.5c0.4-0.6,0.3-0.7,0.8-1c0.7,2.4,0.9,5.6-0.1,8c-0.6,1.5-0.7,1.6-2,2.5c-0.8,0.5-2.3,1.6-2.9,1.8
		l0.1-0.8C140.9,121.8,141.9,118.1,142.2,117.3L142.2,117.3z M147.5,112.5c-0.3-0.9-0.5-2.5-0.7-3.5c-0.2-0.9-0.8-3.1-0.4-7.5
		c0.1-1,0.6-1.6,2-3.2c0.6,0.4,1.9,3.1,2.2,4c0.6,2.1,0.4,3.8,0.1,5.9C150.5,108.6,148,112.1,147.5,112.5L147.5,112.5z M142.3,109.4
		c-0.1-1.3-0.5-2-0.5-3.7c0-1.1,0.2-3,0.7-3.5l0-0.5c0.5-0.4,0.8-1.4,1.2-2c0.3-0.5,1-1.4,1.7-1.6c0.5,0.4,0.5,0.7,0.8,1.4
		c0.2,0.8-0.2,4.7-0.2,5.7c-0.1,0.8-0.2,1-0.5,2c-1.2,4.3-1.7,3.5-2.2,4.9c-0.5-0.1-0.5-0.5-0.6-1.1
		C142.5,110.4,142.4,110,142.3,109.4L142.3,109.4z M152.8,108.2c0.3-0.4,1.1-1.1,1.3-1.4c0.8-0.4,0.5-0.4,1.2-0.9
		c0.2-0.2,1.3-1.1,1.5-1.2l-0.2,1c-0.1,1.9-1.5,6.8-2.6,8.7c-0.8,1.3-1.2,1.5-1.5,1.9c-0.2,0.2-0.1,0.2-0.2,0.3
		c-0.6,0.2-0.4,0.2-0.9,0.6c-0.4,0.3-0.5,0.4-0.9,0.6c-0.1,0.1,0.1,0-0.1,0.2c0,0-0.1,0-0.1,0c0,0-0.1,0-0.1,0
		c-0.4,0.7-1.8,1.4-2.4,1.8c-0.5,0.3-1.8,1.5-2.3,1.6c0-0.7,1.8-5.6,2.3-6.5C149.2,112.8,151.1,110.1,152.8,108.2L152.8,108.2z
		 M152.4,118.3c0.3-0.5,0.9-1.1,1.6-1.3c0,0.6-0.1,1.5-0.5,1.9c0,1.5-5,6.9-5.5,7.2c-0.9,0.6-4.1,3.1-4.6,3.2l0.9-3.9
		c0.2-1.2,1.8-1.7,2.4-2.5c0.3-0.1,0.2-0.1,0.5-0.3c0.3-0.2,0.1-0.1,0.4-0.3C148.3,121.7,151.9,118.4,152.4,118.3L152.4,118.3z
		 M152.7,106.8c0-2.2,0-4.9,0.1-7l0.6-4.5c0.1-0.6,0.3-1,0.4-1.6c0.1-0.1,0.1-0.2,0.2-0.5l0.1-0.3c0.2-0.3,0.1-0.2,0.3-0.3
		c0.8,0.3,3.5,3.1,3.6,4c0.3,2.4-1.1,5.6-1.1,6.4c-0.3,0.2-0.1,0-0.3,0.3c-0.4,0.6-1.4,2.3-1.8,2.7c-0.4,0.4-0.6,0.2-0.9,0.7
		l-0.3,0.1L152.7,106.8L152.7,106.8z M147.1,97.6c-1-0.2-2.1-1.4-2.6-2.1c-0.3-0.4-0.3-0.6-0.7-0.9v-0.2c-0.5-1.2-1.7-2.9-1.8-4.1
		c-1.1-1.3-1.3-8.8-0.2-10.4c0.8,0.1,4.2,3.3,4.3,4.4c0.1,0.7-0.1,1.2,0.4,2.2l0.1,0.2c0.3,1.8,1.2,3.6,1.6,5.4
		C148.9,95.1,148,95.5,147.1,97.6L147.1,97.6z M149.2,95c0.1-0.3,0.1-0.9,0.3-1.2c0.5,0.3,0.5,1,1.1,1.4c0.7-0.4,1.7-2,2.4-2.3
		c-0.1,0.8-0.4,1.4-0.5,2.1c-0.1,0.8-0.2,1.5-0.3,2.3c-0.1,0.8-0.2,1.7-0.2,2.5c0,0.5,0,1.4-0.1,1.8c-0.1,0.4,0,0.1-0.2,0.4
		c-0.6-1.5-1.1-2.6-2-4C148.1,95.7,148.8,97,149.2,95L149.2,95z M147.9,83.5c0.2-0.3,0.2-1.3,0.7-2.4c0.7-1.4,2.3-5,3.6-5.6
		c1.1,1.2,1.5,3.6,1.8,5.5c0.1,1.1,0.1,2.5,0.1,3.7c0,1-0.2,2.8-0.1,3.5c0,0,0,0.1,0,0.1l-0.1,0.9c-0.2,1.8-0.1,1.5-0.8,2.4
		c-0.3,0.3-1.6,2-2.1,2.2c-0.5-0.4-0.9-1.5-1.2-2.2c-0.4-0.9-0.8-1.2-1.1-2.3C147.7,87.2,147.7,86,147.9,83.5L147.9,83.5z
		 M155.2,92.2c-0.5-1.1,0.2-6.1,0.3-8c0.1-1.5,0.2-2.6,1.3-3.1c0.5,0.2,1.4,1.6,1.5,2.3c0.3,1.1,0.3,2.4,0.3,3.7
		c0,2.6-0.2,4.9-0.9,6.9c-0.6,0-0.4,0-0.9-0.1l-0.4-0.1C155.9,93.5,155.3,92.4,155.2,92.2L155.2,92.2z M143,77.7
		c-0.3-1.4-0.7-7.2,0-8.4c0.8,0.2,2.6,1.7,3.2,2.2c0.9,0.8,1.7,1.6,2.1,3.2c0.5,2.2,0.3,2.6-0.3,4.6c-0.4,1.2-0.8,2.8-1.3,3.9
		c-0.5-0.2-0.8-0.8-1.2-1.2C143.4,79.2,143.6,80.3,143,77.7L143,77.7z M103.7,148.5l-0.1-1.1l1.5-0.3c-0.2,0.4-0.3,0.5-0.6,0.8
		C104.2,148.2,104.2,148.3,103.7,148.5L103.7,148.5z"/>
</g>
</svg>
