<?xml version="1.0" encoding="utf-8"?>
<!-- Generator: Adobe Illustrator 21.1.0, SVG Export Plug-In . SVG Version: 6.00 Build 0)  -->
<svg version="1.0"
	 id="Ñëîé_1" inkscape:version="0.48.2 r9819" sodipodi:docname="atletik_bilbao.svg" xmlns:cc="http://creativecommons.org/ns#" xmlns:dc="http://purl.org/dc/elements/1.1/" xmlns:inkscape="http://www.inkscape.org/namespaces/inkscape" xmlns:rdf="http://www.w3.org/1999/02/22-rdf-syntax-ns#" xmlns:sodipodi="http://sodipodi.sourceforge.net/DTD/sodipodi-0.dtd" xmlns:svg="http://www.w3.org/2000/svg"
	 xmlns="http://www.w3.org/2000/svg" xmlns:xlink="http://www.w3.org/1999/xlink" x="0px" y="0px" viewBox="0 0 200 200"
	 style="enable-background:new 0 0 200 200;" xml:space="preserve">
<style type="text/css">
	.st0{fill:#FFFFFF;}
	.st1{fill:#EE2523;}
</style>
<sodipodi:namedview  bordercolor="#666666" borderopacity="1" fit-margin-bottom="0" fit-margin-left="0" fit-margin-right="0" fit-margin-top="0" gridtolerance="10" guidetolerance="10" id="namedview115" inkscape:current-layer="Ñëîé_1" inkscape:cx="67.744977" inkscape:cy="76.442673" inkscape:pageopacity="0" inkscape:pageshadow="2" inkscape:window-height="962" inkscape:window-maximized="1" inkscape:window-width="1280" inkscape:window-x="-8" inkscape:window-y="-8" inkscape:zoom="4.8598505" objecttolerance="10" pagecolor="#ffffff" showgrid="false">
	</sodipodi:namedview>
<g id="g3" transform="translate(-31.630382,-57.897)">
	<path id="path5" inkscape:connector-curvature="0" d="M75,197.9c-27.8-42.6-31.3-93.8-32-140h177.2c-0.7,46.3-4.2,97.4-32,140
		c-22.4,34.3-56.6,60-56.6,60S97.4,232.2,75,197.9z"/>
	<path id="path7" inkscape:connector-curvature="0" class="st0" d="M216.2,61.9c-0.8,43.6-4.5,92.9-31.3,133.9
		c-18.4,28.1-45.2,50.7-53.3,57.1c-8.1-6.4-35-29-53.3-57.1l0,0c-26.8-41-30.4-90.3-31.3-133.9C54.6,61.9,208.7,61.9,216.2,61.9z"/>
	<path id="path9" inkscape:connector-curvature="0" d="M193.2,84.1c-1.9,34.2-7.6,70-26.9,99.5c-10.5,16.1-24.2,30.2-34.7,39.9
		c-10.5-9.7-24.2-23.9-34.7-39.9l0,0c-19.3-29.5-25-65.4-26.9-99.5C101.9,84.1,161.4,84.1,193.2,84.1z"/>
	<path id="path11" inkscape:connector-curvature="0" class="st0" d="M83.9,145.9c-0.4-1.1-0.7-2.3-1-3.5l0,0
		c0.1-0.1,0.2-0.2,0.3-0.2c0.2,0,0.2,0.1,0.4,0.4c0.2,0.3,0.5,0.8,1.1,0.8s0.9-0.4,1.1-0.8c0.2-0.3,0.3-0.4,0.4-0.4
		c0.2,0,0.2,0.1,0.4,0.4c0.2,0.3,0.5,0.8,1.1,0.8v-0.6c-0.2,0-0.3-0.1-0.5-0.5c-0.2-0.3-0.4-0.7-0.9-0.7s-0.8,0.4-0.9,0.7
		c-0.2,0.3-0.3,0.5-0.5,0.5s-0.3-0.1-0.5-0.5c-0.2-0.3-0.4-0.7-0.9-0.7c-0.2,0-0.3,0.1-0.5,0.1l0,0c-0.4-1.3-0.7-2.7-1.1-4l0,0h25.7
		c0,0,0.1-4,1.1-6.8c0.8-2.2,2.5-4.9,4.4-4.9l0,0c1.9,0,3.5,2.7,4.4,4.9c0.8,2,1,4.6,1.1,5.9l0,0l-4.8,3.6l0,0v-0.5
		c-0.2,0-0.3-0.1-0.5-0.5c-0.2-0.3-0.4-0.7-0.9-0.7s-0.8,0.4-0.9,0.7c-0.2,0.3-0.3,0.5-0.5,0.5s-0.3-0.1-0.5-0.5
		c-0.2-0.3-0.4-0.7-0.9-0.7s-0.8,0.4-0.9,0.7c-0.2,0.3-0.3,0.5-0.5,0.5s-0.3-0.1-0.5-0.5c-0.2-0.3-0.4-0.7-0.9-0.7s-0.8,0.4-0.9,0.7
		c-0.2,0.3-0.3,0.5-0.5,0.5v0.6c0.6,0,0.9-0.4,1.1-0.8c0.2-0.3,0.3-0.4,0.4-0.4c0.2,0,0.2,0.1,0.4,0.4c0.2,0.3,0.5,0.8,1.1,0.8
		s0.9-0.4,1.1-0.8c0.2-0.3,0.3-0.4,0.4-0.4c0.2,0,0.2,0.1,0.4,0.4c0.2,0.3,0.5,0.8,1.1,0.8s0.9-0.4,1.1-0.8c0.2-0.3,0.3-0.4,0.4-0.4
		c0.2,0,0.2,0.1,0.4,0.4c0.2,0.3,0.4,0.7,1,0.8l0,0l-6.4,4.7l0,0l0,0c-0.2-0.3-0.4-0.7-0.9-0.7s-0.8,0.4-0.9,0.7
		c-0.2,0.3-0.3,0.5-0.5,0.5v0.6c0.6,0,0.9-0.4,1.1-0.8c0.2-0.3,0.3-0.4,0.4-0.4c0.2,0,0.2,0.1,0.4,0.4c0,0,0,0,0,0.1l0,0l-2.5,1.8
		l0,0c-0.1,0-0.1,0-0.2,0c-0.5,0-0.8,0.4-0.9,0.7c-0.2,0.3-0.3,0.5-0.5,0.5s-0.3-0.1-0.5-0.5c-0.2-0.3-0.4-0.7-0.9-0.7
		s-0.8,0.4-0.9,0.7c-0.2,0.3-0.3,0.5-0.5,0.5v0.6c0.6,0,0.9-0.4,1.1-0.8c0.2-0.3,0.3-0.4,0.4-0.4c0.2,0,0.2,0.1,0.4,0.4
		c0.1,0.2,0.3,0.5,0.6,0.6l0,0l-2.4,1.8l0,0c-0.2-0.3-0.4-0.5-0.8-0.5c-0.5,0-0.8,0.4-0.9,0.7c-0.2,0.3-0.3,0.5-0.5,0.5
		s-0.3-0.1-0.5-0.5c-0.2-0.3-0.4-0.7-0.9-0.7s-0.8,0.4-0.9,0.7c-0.2,0.3-0.3,0.5-0.5,0.5v0.6c0.6,0,0.9-0.4,1.1-0.8
		c0.2-0.3,0.3-0.4,0.4-0.4c0.2,0,0.2,0.1,0.4,0.4c0.2,0.3,0.5,0.8,1.1,0.8s0.9-0.4,1.1-0.8c0.2-0.3,0.3-0.4,0.4-0.4s0.2,0.1,0.3,0.3
		l0,0l-2.7,2l0,0c-0.4,0-0.6,0.3-0.7,0.5l0,0l-0.8,0.6l0,0c-0.1-0.1-0.2-0.2-0.4-0.4c-0.2-0.3-0.4-0.7-0.9-0.7s-0.8,0.4-0.9,0.7
		c-0.2,0.3-0.3,0.5-0.5,0.5s-0.3-0.1-0.5-0.5c-0.2-0.3-0.4-0.7-0.9-0.7s-0.8,0.4-0.9,0.7c-0.2,0.3-0.3,0.5-0.5,0.5v0.6
		c0.6,0,0.9-0.4,1.1-0.8c0.2-0.3,0.3-0.4,0.4-0.4c0.2,0,0.2,0.1,0.4,0.4c0.2,0.3,0.5,0.8,1.1,0.8s0.9-0.4,1.1-0.8
		c0.2-0.3,0.3-0.4,0.4-0.4s0.2,0.1,0.4,0.4c0.1,0.2,0.2,0.3,0.4,0.5l0,0l-2.3,1.7l0,0c-0.2-0.2-0.4-0.3-0.7-0.3
		c-0.5,0-0.8,0.4-0.9,0.7c-0.2,0.3-0.3,0.5-0.5,0.5s-0.3-0.1-0.5-0.5c-0.2-0.3-0.4-0.7-0.9-0.7c-0.4,0-0.6,0.2-0.8,0.4l0,0l0,0
		c-0.2-0.6-0.5-1.3-0.7-1.9l0,0c0.2,0.2,0.4,0.3,0.7,0.3v-0.6c-0.2,0-0.3-0.1-0.5-0.5c-0.2-0.2-0.4-0.6-0.7-0.7l0,0
		c-0.3-0.7-0.5-1.5-0.8-2.2l0,0c0.1,0.1,0.2,0.2,0.3,0.4c0.2,0.3,0.5,0.8,1.1,0.8s0.9-0.4,1.1-0.8c0.2-0.3,0.3-0.4,0.4-0.4
		c0.2,0,0.2,0.1,0.4,0.4c0.2,0.3,0.5,0.8,1.1,0.8s0.9-0.4,1.1-0.8c0.2-0.3,0.3-0.4,0.4-0.4c0.2,0,0.2,0.1,0.4,0.4
		c0.2,0.3,0.5,0.8,1.1,0.8v-0.6c-0.2,0-0.3-0.1-0.5-0.5c-0.2-0.3-0.4-0.7-0.9-0.7s-0.8,0.4-0.9,0.7c-0.2,0.3-0.3,0.5-0.5,0.5
		s-0.3-0.1-0.5-0.5c-0.2-0.3-0.4-0.7-0.9-0.7s-0.8,0.4-0.9,0.7c-0.2,0.3-0.3,0.5-0.5,0.5s-0.3-0.1-0.5-0.5c-0.2-0.3-0.4-0.7-0.9-0.7
		c0,0,0,0-0.1,0l0,0c-0.1-0.4-0.3-0.8-0.4-1.1l0,0c0.4-0.1,0.6-0.5,0.8-0.7c0.2-0.3,0.3-0.4,0.4-0.4c0.2,0,0.2,0.1,0.4,0.4
		c0.2,0.3,0.5,0.8,1.1,0.8v-0.6c-0.2,0-0.3-0.1-0.5-0.5c-0.2-0.3-0.4-0.7-0.9-0.7s-0.8,0.4-0.9,0.7c-0.2,0.3-0.3,0.4-0.4,0.4l0,0
		c-0.2-0.7-0.5-1.5-0.7-2.2l0,0c0.5,0,0.8-0.4,1-0.7s0.3-0.4,0.4-0.4c0.2,0,0.2,0.1,0.4,0.4c0.2,0.3,0.5,0.8,1.1,0.8
		s0.9-0.4,1.1-0.8c0.2-0.3,0.3-0.4,0.4-0.4c0.2,0,0.2,0.1,0.4,0.4c0.2,0.3,0.5,0.8,1.1,0.8s0.9-0.4,1.1-0.8c0.2-0.3,0.3-0.4,0.4-0.4
		c0.2,0,0.2,0.1,0.4,0.4c0.2,0.3,0.5,0.8,1.1,0.8v-0.6c-0.2,0-0.3-0.1-0.5-0.5c-0.2-0.3-0.4-0.7-0.9-0.7s-0.8,0.4-0.9,0.7
		c-0.2,0.3-0.3,0.5-0.5,0.5s-0.3-0.1-0.5-0.5c-0.2-0.3-0.4-0.7-0.9-0.7s-0.8,0.4-0.9,0.7c-0.2,0.3-0.3,0.5-0.5,0.5s-0.3-0.1-0.5-0.5
		c-0.2-0.3-0.4-0.7-0.9-0.7s-0.8,0.4-0.9,0.7c-0.2,0.3-0.3,0.5-0.5,0.5L83.9,145.9L83.9,145.9z"/>
	<path id="path13" inkscape:connector-curvature="0" class="st0" d="M139.3,121.4l-4.8-1.1l0,0v-5.9l0,0c0.4,0,0.7-0.1,1.1-0.1
		c0.3,0,0.1,0.5,0.4,0.8c0.2,0.2,0.4,0.5,0.3,0.7c-0.3,0.4-0.5,0.5-0.8,0.5s-0.5,0.2-0.5,0.3c0,0.1,0.2,0.1,0.6,0.1
		c0.5,0,0.9,0,1.1-0.5c0.2-0.4,0.4-0.6,0.4-0.8c0,0,0-0.1,0.1,0s0.3,0.2,0.6,0.2c0.4,0.1,0.5,0.3,0.5,0.6c0,0.3,0,0.5-0.3,0.5
		s-0.4,0.1-0.4,0.2s0.3,0.2,0.6,0.2s0.7-0.1,0.7-0.6c0-0.4,0.1-1-0.2-1.2s-0.6-0.3-0.5-0.9c0.1-0.5,0.1-0.9,0.1-0.9s0.3,0.4,0.8,0.9
		s0.8,1,1.6,1.2s1.3-0.1,1.5-0.4c0.2-0.2,0.1-0.5-0.4-0.5s-1.3,0.1-1.8-0.4s-0.9-1.3-2-1.6c-1-0.4-1.8-0.4-2.8-0.4c-0.4,0-0.7,0-1,0
		l0,0v-6.6l0,0c0.4,0,0.7-0.1,1.1-0.1c0.3,0,0.1,0.5,0.4,0.8c0.2,0.2,0.4,0.5,0.3,0.7c-0.3,0.4-0.5,0.5-0.8,0.5s-0.5,0.2-0.5,0.3
		s0.2,0.1,0.6,0.1c0.5,0,0.9,0,1.1-0.5c0.2-0.4,0.4-0.6,0.4-0.8c0,0,0-0.1,0.1,0s0.3,0.2,0.6,0.2c0.4,0.1,0.5,0.3,0.5,0.6
		s0,0.5-0.3,0.5s-0.4,0.1-0.4,0.2s0.3,0.2,0.6,0.2s0.7-0.1,0.7-0.6c0-0.4,0.1-1-0.2-1.2s-0.6-0.3-0.5-0.9s0.1-0.9,0.1-0.9
		s0.3,0.4,0.8,0.9s0.8,1,1.6,1.2s1.3-0.1,1.5-0.4c0.2-0.2,0.1-0.5-0.4-0.5s-1.3,0.1-1.8-0.4s-0.9-1.3-2-1.6c-1-0.4-1.8-0.4-2.8-0.4
		c-0.4,0-0.7,0-1,0l0,0v-2.5l0,0c2.1-0.5,3.8-2.2,4.3-4.3l0,0h2.2c0.1,0,0.2-0.1,0.2-0.2v-2.3c0-0.1-0.1-0.2-0.2-0.2h-2.2l0,0
		c-0.5-2.1-2.2-3.8-4.3-4.3l0,0v-1c0-0.1-0.1-0.2-0.2-0.2H132c-0.1,0-0.2,0.1-0.2,0.2v1l0,0c-2.1,0.5-3.8,2.2-4.3,4.3l0,0h-2.2
		c-0.1,0-0.2,0.1-0.2,0.2v2.3c0,0.1,0.1,0.2,0.2,0.2h2.2l0,0c0.5,2.1,2.2,3.8,4.3,4.3l0,0v2.7l0,0c-0.9,0-1.9,0.1-2.2-0.1
		c-0.5-0.2-0.7-0.6-0.8-1c-0.1-0.3-0.1-0.5-0.1-0.6s0-0.1-0.1,0s-0.2,0.2-0.3,0.2c0,0,0-0.1,0-0.2c0,0,0-0.1-0.1,0
		c-0.1,0-0.2,0.1-0.3,0.3c-0.2,0.2-0.1,0.3-0.4,0.4s-0.5,0.3-0.8,0.3s-0.5,0.1-0.5,0.2s0.2,0.6,0.6,0.6s0.7,0.1,0.9,0.2
		c0.2,0.1,0.4,0.3,0.6,0.7c0.2,0.4,0.4,0.6,0.3,0.7c-0.1,0.1-0.3,0.2-0.6,0.3c-0.2,0-0.8,0.2-1,0.4c-0.3,0.2-0.5,0.3-0.3,0.4
		c0.1,0.1,0.4,0.1,0.6,0s0.8-0.4,1.4-0.4c0.6,0,0.8,0,1.1,0.2c0.2,0.1,0.6,0.5,0.6,0.8c0,0.5,0,0.9-0.2,1c-0.2,0-0.5,0-0.5,0.3
		c0,0.2,0.1,0.1,0.5,0.1s0.6-0.3,0.7-0.6c0.1-0.3,0.1-0.6,0.1-1c0-0.2,0.1-0.3,0.1-0.4c0.1-0.3,0.2-0.5,0.5-0.7l0,0v6.6l0,0
		c-0.9,0-1.9,0.1-2.2-0.1c-0.5-0.2-0.7-0.6-0.8-1c-0.1-0.3-0.1-0.5-0.1-0.6c0,0,0-0.1-0.1,0s-0.2,0.2-0.3,0.2c0,0,0-0.1,0-0.2
		c0,0,0-0.1-0.1,0c-0.1,0-0.2,0.1-0.3,0.3c-0.2,0.2-0.1,0.3-0.4,0.4s-0.5,0.3-0.8,0.3s-0.5,0.1-0.5,0.2s0.2,0.6,0.6,0.6
		s0.7,0.1,0.9,0.2c0.2,0.1,0.4,0.3,0.6,0.7c0.2,0.4,0.4,0.6,0.3,0.7c-0.1,0.1-0.3,0.2-0.6,0.3c-0.2,0-0.8,0.2-1,0.4
		c-0.3,0.2-0.5,0.3-0.3,0.4c0.1,0.1,0.4,0.1,0.6,0s0.8-0.4,1.4-0.4c0.6,0,0.8,0,1.1,0.2c0.2,0.1,0.6,0.5,0.6,0.8c0,0.5,0,0.9-0.2,1
		c-0.2,0-0.5,0-0.5,0.3c0,0.2,0.1,0.1,0.5,0.1s0.6-0.3,0.7-0.6c0.1-0.3,0.1-0.6,0.1-1c0-0.2,0.1-0.3,0.1-0.4
		c0.1-0.3,0.2-0.5,0.5-0.7l0,0v5l0,0l-14.9-3.6c-0.1,0-0.3,0-0.4,0.1l-8.9,5.9c-0.1,0.1-0.2,0-0.2-0.1v-15.8c0-0.1-0.1-0.2-0.2-0.2
		h-9.9c-0.1,0-0.2,0.1-0.2,0.2v11.5c0,0.1-0.1,0.2-0.2,0.2h-19l0,0c-1.4-9-2.5-18.8-3.2-29.7c6.8,0,89,0,110.2,0l0,0L139.3,121.4
		L139.3,121.4L139.3,121.4z"/>
	<path id="path15" inkscape:connector-curvature="0" d="M57.7,127.4c-0.1,0.1-0.2,0.2-0.4,0.2H54c-0.1,0-0.2-0.1-0.1-0.2l6.4-8.2
		c0.1-0.1,0.1-0.3,0-0.4l-6.4-8.2c-0.1-0.1,0-0.2,0.1-0.2h3.3c0.1,0,0.3,0.1,0.4,0.2l4.5,5.8c0.1,0.1,0.2,0.1,0.3,0l4.5-5.8
		c0.1-0.1,0.2-0.2,0.4-0.2h3.3c0.1,0,0.2,0.1,0.1,0.2l-6.4,8.2c-0.1,0.1-0.1,0.3,0,0.4l6.4,8.2c0.1,0.1,0,0.2-0.1,0.2h-3.3
		c-0.1,0-0.3-0.1-0.4-0.2l-4.5-5.8c-0.1-0.1-0.2-0.1-0.3,0L57.7,127.4z"/>
	<path id="path17" inkscape:connector-curvature="0" d="M205.5,127.4c0.1,0.1,0.2,0.2,0.4,0.2h3.3c0.1,0,0.2-0.1,0.1-0.2l-6.4-8.2
		c-0.1-0.1-0.1-0.3,0-0.4l6.4-8.2c0.1-0.1,0-0.2-0.1-0.2h-3.3c-0.1,0-0.3,0.1-0.4,0.2l-4.5,5.8c-0.1,0.1-0.2,0.1-0.3,0l-4.5-5.8
		c-0.1-0.1-0.2-0.2-0.4-0.2h-3.3c-0.1,0-0.2,0.1-0.1,0.2l6.4,8.2c0.1,0.1,0.1,0.3,0,0.4l-6.4,8.2c-0.1,0.1,0,0.2,0.1,0.2h3.3
		c0.1,0,0.3-0.1,0.4-0.2l4.5-5.8c0.1-0.1,0.2-0.1,0.3,0L205.5,127.4z"/>
	<path id="path19" inkscape:connector-curvature="0" d="M87.7,113.8c-2.2,0-4.1,1.1-4.9,2.6h9.8C91.7,114.8,89.9,113.8,87.7,113.8
		L87.7,113.8z"/>
	<path id="path21" inkscape:connector-curvature="0" class="st0" d="M128.7,129.2l-9,6.6l0,0c0.1-1.4,0.4-3.3,1-4.8
		c0.8-2.2,2.5-4.9,4.4-4.9l0,0C126.5,126.1,127.8,127.6,128.7,129.2L128.7,129.2z"/>
	<path id="path23" inkscape:connector-curvature="0" class="st0" d="M90.1,162.7l98.7-72.9l0,0c-1.2,17.3-3.2,31.7-6.4,45
		c-4.4,18.1-10.7,33.5-19.4,46.8c-9.5,14.6-21.9,27.6-31.4,36.6c-9.5-9-21.9-22.1-31.4-36.6C96.4,175.6,93.1,169.4,90.1,162.7
		L90.1,162.7z"/>
	<path id="path25" inkscape:connector-curvature="0" class="st1" d="M124.4,211c2.5,2.6,5,5,7.3,7.2c2.1-1.9,4.2-4.1,6.5-6.4l0,0
		v-84.5l0,0l-13.7,10.2l0,0L124.4,211L124.4,211z"/>
	<path id="path27" inkscape:connector-curvature="0" class="st1" d="M150.7,198v-80l0,0l13.7-10.1l0,0v71.5l0,0
		c-0.5,0.7-0.9,1.5-1.4,2.2C159.2,187.3,155,192.8,150.7,198L150.7,198z"/>
	<path id="path29" inkscape:connector-curvature="0" class="st1" d="M98.1,178c0.7,1.2,1.4,2.3,2.2,3.4c3.6,5.5,7.5,10.7,11.6,15.6
		l0,0v-50.5l0,0l-13.7,10.1l0,0L98.1,178L98.1,178z"/>
	<path id="path31" inkscape:connector-curvature="0" class="st1" d="M176.9,153.2V98.5l0,0l11.9-8.8l0,0c-1.2,17.3-3.2,31.7-6.4,45
		C180.9,141.2,179,147.3,176.9,153.2C177,153.1,176.9,153.2,176.9,153.2z"/>
	<path id="path33" inkscape:connector-curvature="0" d="M102.2,93.8l5,10c0.1,0.1,0,0.2-0.1,0.2H96.9c-0.1,0-0.2-0.1-0.1-0.2l5-10
		l0,0v-2l0,0c-0.3-0.3-0.5-1.2-0.5-1.5c0-0.4,0.3-0.8,0.8-0.8c0.4,0,0.8,0.3,0.8,0.8c0,0.3-0.2,1.2-0.5,1.5l0,0L102.2,93.8
		L102.2,93.8z"/>
	<path id="path35" inkscape:connector-curvature="0" d="M100.7,139.5c-0.2,0.3-0.3,0.5-0.5,0.5s-0.3-0.1-0.5-0.5
		c-0.2-0.3-0.4-0.7-0.9-0.7s-0.8,0.4-0.9,0.7c-0.2,0.3-0.3,0.5-0.5,0.5s-0.3-0.1-0.5-0.5c-0.2-0.3-0.4-0.7-0.9-0.7s-0.8,0.4-0.9,0.7
		c-0.2,0.3-0.3,0.5-0.5,0.5v0.6c0.6,0,0.9-0.4,1.1-0.8c0.2-0.3,0.3-0.4,0.4-0.4c0.2,0,0.2,0.1,0.4,0.4c0.2,0.3,0.5,0.8,1.1,0.8
		s0.9-0.4,1.1-0.8c0.2-0.3,0.3-0.4,0.4-0.4c0.2,0,0.2,0.1,0.4,0.4c0.2,0.3,0.5,0.8,1.1,0.8s0.9-0.4,1.1-0.8c0.2-0.3,0.3-0.4,0.4-0.4
		c0.2,0,0.2,0.1,0.4,0.4c0.2,0.3,0.5,0.8,1.1,0.8V140c-0.2,0-0.3-0.1-0.5-0.5c-0.2-0.3-0.4-0.7-0.9-0.7
		C101.1,138.8,100.9,139.2,100.7,139.5L100.7,139.5z"/>
	<path id="path37" inkscape:connector-curvature="0" d="M90.3,139.5c-0.2,0.3-0.3,0.5-0.5,0.5s-0.3-0.1-0.5-0.5
		c-0.2-0.3-0.4-0.7-0.9-0.7s-0.8,0.4-0.9,0.7c-0.2,0.3-0.3,0.5-0.5,0.5s-0.3-0.1-0.5-0.5c-0.2-0.3-0.4-0.7-0.9-0.7s-0.8,0.4-0.9,0.7
		c-0.2,0.3-0.3,0.5-0.5,0.5v0.6c0.6,0,0.9-0.4,1.1-0.8c0.2-0.3,0.3-0.4,0.4-0.4c0.2,0,0.2,0.1,0.4,0.4c0.2,0.3,0.5,0.8,1.1,0.8
		s0.9-0.4,1.1-0.8c0.2-0.3,0.3-0.4,0.4-0.4c0.2,0,0.2,0.1,0.4,0.4c0.2,0.3,0.5,0.8,1.1,0.8s0.9-0.4,1.1-0.8c0.2-0.3,0.3-0.4,0.4-0.4
		c0.2,0,0.2,0.1,0.4,0.4c0.2,0.3,0.5,0.8,1.1,0.8V140c-0.2,0-0.3-0.1-0.5-0.5c-0.2-0.3-0.4-0.7-0.9-0.7
		C90.8,138.8,90.5,139.2,90.3,139.5z"/>
	<path id="path39" inkscape:connector-curvature="0" d="M114.5,136.6c-0.2,0.3-0.3,0.5-0.5,0.5s-0.3-0.1-0.5-0.5
		c-0.2-0.3-0.4-0.7-0.9-0.7s-0.8,0.4-0.9,0.7c-0.2,0.3-0.3,0.5-0.5,0.5s-0.3-0.1-0.5-0.5c-0.2-0.3-0.4-0.7-0.9-0.7s-0.8,0.4-0.9,0.7
		c-0.2,0.3-0.3,0.5-0.5,0.5v0.6c0.6,0,0.9-0.4,1.1-0.8c0.2-0.3,0.3-0.4,0.4-0.4c0.2,0,0.2,0.1,0.4,0.4c0.2,0.3,0.5,0.8,1.1,0.8
		s0.9-0.4,1.1-0.8c0.2-0.3,0.3-0.4,0.4-0.4c0.2,0,0.2,0.1,0.4,0.4c0.2,0.3,0.5,0.8,1.1,0.8s0.9-0.4,1.1-0.8c0.2-0.3,0.3-0.4,0.4-0.4
		c0.2,0,0.2,0.1,0.4,0.4c0.2,0.3,0.5,0.8,1.1,0.8v-0.6c-0.2,0-0.3-0.1-0.5-0.5c-0.2-0.3-0.4-0.7-0.9-0.7
		C114.9,135.9,114.7,136.3,114.5,136.6z"/>
	<path id="path41" inkscape:connector-curvature="0" d="M100.7,145.2c-0.2,0.3-0.3,0.5-0.5,0.5s-0.3-0.1-0.5-0.5
		c-0.2-0.3-0.4-0.7-0.9-0.7s-0.8,0.4-0.9,0.7c-0.2,0.3-0.3,0.5-0.5,0.5s-0.3-0.1-0.5-0.5c-0.2-0.3-0.4-0.7-0.9-0.7s-0.8,0.4-0.9,0.7
		c-0.2,0.3-0.3,0.5-0.5,0.5v0.6c0.6,0,0.9-0.4,1.1-0.8c0.2-0.3,0.3-0.4,0.4-0.4c0.2,0,0.2,0.1,0.4,0.4c0.2,0.3,0.5,0.8,1.1,0.8
		s0.9-0.4,1.1-0.8c0.2-0.3,0.3-0.4,0.4-0.4c0.2,0,0.2,0.1,0.4,0.4c0.2,0.3,0.5,0.8,1.1,0.8s0.9-0.4,1.1-0.8c0.2-0.3,0.3-0.4,0.4-0.4
		c0.2,0,0.2,0.1,0.4,0.4c0.2,0.3,0.5,0.8,1.1,0.8v-0.6c-0.2,0-0.3-0.1-0.5-0.5c-0.2-0.3-0.4-0.7-0.9-0.7
		C101.1,144.5,100.9,144.9,100.7,145.2L100.7,145.2z"/>
	<path id="path43" inkscape:connector-curvature="0" d="M95.5,142.3c-0.2,0.3-0.3,0.5-0.5,0.5s-0.3-0.1-0.5-0.5
		c-0.2-0.3-0.4-0.7-0.9-0.7s-0.8,0.4-0.9,0.7c-0.2,0.3-0.3,0.5-0.5,0.5s-0.3-0.1-0.5-0.5c-0.2-0.3-0.4-0.7-0.9-0.7s-0.8,0.4-0.9,0.7
		c-0.2,0.3-0.3,0.5-0.5,0.5v0.6c0.6,0,0.9-0.4,1.1-0.8c0.2-0.3,0.3-0.4,0.4-0.4c0.2,0,0.2,0.1,0.4,0.4c0.2,0.3,0.5,0.8,1.1,0.8
		s0.9-0.4,1.1-0.8c0.2-0.3,0.3-0.4,0.4-0.4c0.2,0,0.2,0.1,0.4,0.4c0.2,0.3,0.5,0.8,1.1,0.8s0.9-0.4,1.1-0.8c0.2-0.3,0.3-0.4,0.4-0.4
		c0.2,0,0.2,0.1,0.4,0.4c0.2,0.3,0.5,0.8,1.1,0.8v-0.6c-0.2,0-0.3-0.1-0.5-0.5c-0.2-0.3-0.4-0.7-0.9-0.7
		C95.9,141.6,95.7,142,95.5,142.3z"/>
	<path id="path45" inkscape:connector-curvature="0" d="M105.9,142.3c-0.2,0.3-0.3,0.5-0.5,0.5s-0.3-0.1-0.5-0.5
		c-0.2-0.3-0.4-0.7-0.9-0.7s-0.8,0.4-0.9,0.7c-0.2,0.3-0.3,0.5-0.5,0.5s-0.3-0.1-0.5-0.5c-0.2-0.3-0.4-0.7-0.9-0.7s-0.8,0.4-0.9,0.7
		c-0.2,0.3-0.3,0.5-0.5,0.5v0.6c0.6,0,0.9-0.4,1.1-0.8c0.2-0.3,0.3-0.4,0.4-0.4c0.2,0,0.2,0.1,0.4,0.4c0.2,0.3,0.5,0.8,1.1,0.8
		s0.9-0.4,1.1-0.8c0.2-0.3,0.3-0.4,0.4-0.4c0.2,0,0.2,0.1,0.4,0.4c0.2,0.3,0.5,0.8,1.1,0.8s0.9-0.4,1.1-0.8c0.2-0.3,0.3-0.4,0.4-0.4
		c0.2,0,0.2,0.1,0.4,0.4c0.2,0.3,0.5,0.8,1.1,0.8v-0.6c-0.2,0-0.3-0.1-0.5-0.5c-0.2-0.3-0.4-0.7-0.9-0.7
		C106.3,141.6,106.1,142,105.9,142.3z"/>
	<path id="path47" inkscape:connector-curvature="0" d="M95.5,148.1c-0.2,0.3-0.3,0.5-0.5,0.5s-0.3-0.1-0.5-0.5
		c-0.2-0.3-0.4-0.7-0.9-0.7s-0.8,0.4-0.9,0.7c-0.2,0.3-0.3,0.5-0.5,0.5s-0.3-0.1-0.5-0.5c-0.2-0.3-0.4-0.7-0.9-0.7s-0.8,0.4-0.9,0.7
		c-0.2,0.3-0.3,0.5-0.5,0.5v0.6c0.6,0,0.9-0.4,1.1-0.8c0.2-0.3,0.3-0.4,0.4-0.4c0.2,0,0.2,0.1,0.4,0.4c0.2,0.3,0.5,0.8,1.1,0.8
		s0.9-0.4,1.1-0.8c0.2-0.3,0.3-0.4,0.4-0.4c0.2,0,0.2,0.1,0.4,0.4c0.2,0.3,0.5,0.8,1.1,0.8s0.9-0.4,1.1-0.8c0.2-0.3,0.3-0.4,0.4-0.4
		c0.2,0,0.2,0.1,0.4,0.4c0.2,0.3,0.5,0.8,1.1,0.8v-0.6c-0.2,0-0.3-0.1-0.5-0.5c-0.2-0.3-0.4-0.7-0.9-0.7
		C95.9,147.4,95.7,147.8,95.5,148.1z"/>
	<path id="path49" inkscape:connector-curvature="0" class="st0" d="M87.8,157.2c0.2,0.6,0.5,1.2,0.7,1.7l0,0l1.6-1.2l0,0
		c-0.1,0-0.2,0-0.3,0c-0.6,0-0.9-0.4-1.1-0.8c-0.2-0.3-0.3-0.4-0.4-0.4c-0.2,0-0.2,0.1-0.4,0.4C87.9,157.1,87.9,157.1,87.8,157.2
		L87.8,157.2z"/>
	<path id="path51" inkscape:connector-curvature="0" class="st0" d="M90.6,157.4l0.9-0.7l0,0c-0.1-0.1-0.1-0.1-0.2-0.1
		c-0.2,0-0.2,0.1-0.4,0.4C90.8,157.1,90.7,157.2,90.6,157.4L90.6,157.4z"/>
	<path id="path53" inkscape:connector-curvature="0" d="M160.4,207.5c-0.3-5.1,1.5-7.5,2.8-8.3s3.2-0.7,3.5,4.4
		c0.3,5.1-1.5,7.5-2.8,8.3C162.6,212.7,160.7,212.5,160.4,207.5z M158,209c0.4,8.5,4.5,7,6.1,6.1c1.5-1,5.5-4.5,5.1-13
		s-4.5-7-6.1-6.1C161.6,196.9,157.6,200.5,158,209z"/>
	<path id="path55" inkscape:connector-curvature="0" d="M100.6,208.1l3.3,3.6c0.9,1,1.9,2.6,1.9,4.3c0,1.9-0.7,1.9-2,0.5l-3.2-3.5
		L100.6,208.1L100.6,208.1z M98.1,213.5l5.3,5.7c2.5,2.8,3.2,2.9,3.9,2.6c0.7-0.2,1.1-1.2,1.1-2.6c0-1.8-0.4-4.1-1.9-6.6
		c0.5,0.2,1.5,0.5,1.5-2.1c0-1.9-0.8-5.6-3.8-8.9l-6.1-6.6V213.5L98.1,213.5z M100.6,200.9l3,3.2c1.2,1.3,1.9,2.5,1.9,4
		s-0.8,1.2-1.8,0.1l-3.1-3.3V200.9L100.6,200.9z"/>
	<path id="path57" inkscape:connector-curvature="0" d="M114,231.1l-2.7-2.7V210l2.7,2.7V231.1z"/>
	<path id="path59" inkscape:connector-curvature="0" d="M122.8,236.1l6.2,5.7v3.3l-9-8.3v-18.4l2.8,2.6
		C122.8,221,122.8,236.1,122.8,236.1z"/>
	<path id="path61" inkscape:connector-curvature="0" d="M135.7,236.1l3.3-2.9c0.9-0.8,1.9-1.1,1.9,0.5c0,1.8-0.7,3.3-2,4.4l-3.2,2.8
		V236.1z M133.2,246.2l5.3-4.7c2.6-2.3,3.3-3.5,4-5.1c0.7-1.5,1.1-3.2,1.1-4.7c0-1.8-0.4-3.2-1.9-2.6c0.5-0.8,1.5-2.5,1.5-5
		c0-1.9-0.8-3.9-3.9-1.2l-6.1,5.4L133.2,246.2L133.2,246.2z M135.7,229.2l3-2.6c1.2-1,1.9-1.2,1.9,0.2s-0.8,2.7-1.9,3.6l-3.1,2.7
		v-3.9H135.7z"/>
	<path id="path63" inkscape:connector-curvature="0" d="M152,214.3L152,214.3l1.7,5.7l-3.5,3.1L152,214.3z M149.5,227.1l5-4.5l0.9,3
		l2.7-2.5l-4.7-14.2l-3,2.7l-4.9,22.8l3-2.7L149.5,227.1L149.5,227.1z"/>
	<g id="g65">
		<g id="g67">
			<path id="path69" inkscape:connector-curvature="0" d="M62,66.9C62,66.9,61.9,66.9,62,66.9l-5.4,11.7v0.1l0.1,0.1h1.8
				c0,0,0.1,0,0.1-0.1c0,0,1.6-3.7,1.7-3.8c0.1,0,4.9,0,5.1,0c0.1,0.1,1.6,3.8,1.6,3.8l0.1,0.1H69c0,0,0.1,0,0.1-0.1v-0.1L64,67
				l-0.1-0.1H62z M62.9,69.3c0.2,0.4,1.5,3.4,1.7,3.7c-0.3,0-3,0-3.3,0C61.4,72.7,62.7,69.7,62.9,69.3z"/>
		</g>
		<g id="g71">
			<path id="path73" inkscape:connector-curvature="0" d="M69.8,66.9C69.7,66.9,69.7,66.9,69.8,66.9l-0.1,1.8c0,0.1,0,0.1,0.1,0.1
				c0,0,3.8,0,4,0c0,0.2,0,9.9,0,9.9c0,0.1,0,0.1,0.1,0.1h1.7c0.1,0,0.1,0,0.1-0.1c0,0,0-9.6,0-9.9c0.2,0,4,0,4,0
				c0.1,0,0.1,0,0.1-0.1V67c0-0.1,0-0.1-0.1-0.1H69.8z"/>
		</g>
		<g id="g75">
			<path id="path77" inkscape:connector-curvature="0" d="M91.1,66.9C91,66.9,91,66.9,91.1,66.9C91,67,91,71.4,91,71.6
				c-0.2,0-6.4,0-6.6,0c0-0.2,0-4.6,0-4.6c0-0.1,0-0.1-0.1-0.1h-1.7c-0.1,0-0.1,0-0.1,0.1v11.6c0,0.1,0,0.1,0.1,0.1h1.7
				c0.1,0,0.1,0,0.1-0.1c0,0,0-4.9,0-5.2c0.2,0,6.4,0,6.6,0c0,0.2,0,5.2,0,5.2c0,0.1,0,0.1,0.1,0.1h1.7c0.1,0,0.1,0,0.1-0.1V67
				c0-0.1,0-0.1-0.1-0.1H91.1z"/>
		</g>
		<g id="g79">
			<path id="path81" inkscape:connector-curvature="0" d="M97.1,66.9C97,66.9,97,66.9,97.1,66.9L97,78.6c0,0.1,0,0.1,0.1,0.1h8.7
				c0.1,0,0.1,0,0.1-0.1V77c0-0.1,0-0.1-0.1-0.1c0,0-6.7,0-7,0c0-0.2,0-9.9,0-9.9c0-0.1,0-0.1-0.1-0.1H97.1z"/>
		</g>
		<g id="g83">
			<path id="path85" inkscape:connector-curvature="0" d="M107.7,66.9C107.6,66.9,107.6,66.9,107.7,66.9l-0.1,11.7
				c0,0.1,0,0.1,0.1,0.1h9.8c0.1,0,0.1,0,0.1-0.1V77c0-0.1,0-0.1-0.1-0.1c0,0-7.8,0-8,0c0-0.2,0-3.1,0-3.3c0.2,0,3.8,0,3.8,0
				c0.1,0,0.1,0,0.1-0.1v-1.7c0-0.1,0-0.1-0.1-0.1c0,0-3.6,0-3.8,0c0-0.2,0-2.6,0-2.8c0.2,0,7.7,0,7.7,0c0.1,0,0.1,0,0.1-0.1V67
				c0-0.1,0-0.1-0.1-0.1H107.7L107.7,66.9z"/>
		</g>
		<g id="g87">
			<path id="path89" inkscape:connector-curvature="0" d="M119.4,66.9C119.3,66.9,119.3,66.9,119.4,66.9l-0.1,1.8
				c0,0.1,0,0.1,0.1,0.1c0,0,3.8,0,4,0c0,0.2,0,9.9,0,9.9c0,0.1,0,0.1,0.1,0.1h1.7c0.1,0,0.1,0,0.1-0.1c0,0,0-9.6,0-9.9
				c0.2,0,4,0,4,0c0.1,0,0.1,0,0.1-0.1V67c0-0.1,0-0.1-0.1-0.1C129.2,66.9,119.4,66.9,119.4,66.9z"/>
		</g>
		<g id="g91">
			<path id="path93" inkscape:connector-curvature="0" d="M131.9,66.9c-0.1,0-0.1,0-0.1,0.1v11.6c0,0.1,0,0.1,0.1,0.1h1.7
				c0.1,0,0.1,0,0.1-0.1V67c0-0.1,0-0.1-0.1-0.1H131.9z"/>
		</g>
		<g id="g95">
			<path id="path97" inkscape:connector-curvature="0" d="M140.2,67.1c-0.8,0.3-1.4,0.8-2,1.3c-0.6,0.6-1,1.2-1.3,2
				s-0.5,1.6-0.5,2.5s0.2,1.7,0.5,2.5c0.3,0.7,0.8,1.4,1.4,1.9c0.6,0.5,1.2,0.9,2,1.2c0.7,0.3,1.5,0.4,2.3,0.4s1.6-0.1,2.2-0.2
				c0.6-0.1,1.2-0.3,1.6-0.5c0.5-0.2,0.9-0.5,1.2-0.8s0.6-0.6,0.9-0.9c0,0,0-0.1,0-0.2l-1.1-1.2h-0.1h-0.1l-0.5,0.5
				c-0.2,0.2-0.5,0.4-0.9,0.6c-0.3,0.2-0.8,0.4-1.2,0.5c-0.5,0.1-1,0.2-1.6,0.2c-0.8,0-1.5-0.1-2.1-0.4c-0.6-0.2-1.1-0.6-1.5-1
				s-0.7-0.8-0.9-1.3s-0.3-1-0.3-1.5c0-0.7,0.1-1.3,0.4-1.9c0.3-0.5,0.6-1,1-1.4s0.9-0.6,1.4-0.8c0.5-0.2,1-0.3,1.6-0.3
				s1.1,0.1,1.6,0.2s0.9,0.3,1.3,0.5c0.4,0.2,0.7,0.4,0.9,0.6l0.6,0.5h0.1l1.3-1.1v-0.1v-0.1l-0.7-0.6c-0.3-0.3-0.7-0.5-1.2-0.8
				s-1-0.5-1.7-0.7c-0.6-0.2-1.4-0.3-2.2-0.3C141.8,66.6,141,66.8,140.2,67.1L140.2,67.1z"/>
		</g>
		<g id="g99">
			<path id="path101" inkscape:connector-curvature="0" d="M159.4,67.1c-0.8,0.3-1.4,0.8-2,1.3c-0.6,0.6-1,1.2-1.3,2
				s-0.5,1.6-0.5,2.5s0.2,1.7,0.5,2.5c0.3,0.7,0.8,1.4,1.4,1.9s1.2,0.9,2,1.2c0.7,0.3,1.5,0.4,2.3,0.4s1.6-0.1,2.2-0.2
				c0.6-0.1,1.2-0.3,1.6-0.5c0.5-0.2,0.9-0.5,1.2-0.8s0.6-0.6,0.9-0.9c0,0,0-0.1,0-0.2l-1.1-1.2h-0.1h-0.1l-0.5,0.5
				c-0.2,0.2-0.5,0.4-0.9,0.6c-0.3,0.2-0.8,0.4-1.2,0.5c-0.5,0.1-1,0.2-1.6,0.2c-0.8,0-1.5-0.1-2.1-0.4c-0.6-0.2-1.1-0.6-1.5-1
				s-0.7-0.8-0.9-1.3s-0.3-1-0.3-1.5c0-0.7,0.1-1.3,0.4-1.9c0.3-0.5,0.6-1,1-1.4s0.9-0.6,1.4-0.8c0.5-0.2,1-0.3,1.6-0.3
				s1.1,0.1,1.6,0.2s0.9,0.3,1.3,0.5c0.4,0.2,0.7,0.4,0.9,0.6l0.6,0.5h0.1l1.3-1.1v-0.1v-0.1l-0.7-0.6c-0.3-0.3-0.7-0.5-1.2-0.8
				s-1-0.5-1.7-0.7c-0.6-0.2-1.4-0.3-2.2-0.3C161,66.6,160.2,66.8,159.4,67.1L159.4,67.1z"/>
		</g>
		<g id="g103">
			<path id="path105" inkscape:connector-curvature="0" d="M170.8,66.9c-0.1,0-0.1,0-0.1,0.1v11.6c0,0.1,0,0.1,0.1,0.1h8.7
				c0.1,0,0.1,0,0.1-0.1V77c0-0.1,0-0.1-0.1-0.1c0,0-6.7,0-7,0c0-0.2,0-9.9,0-9.9c0-0.1,0-0.1-0.1-0.1H170.8z"/>
		</g>
		<g id="g107">
			<path id="path109" inkscape:connector-curvature="0" d="M190.3,66.9c-0.1,0-0.1,0-0.1,0.1v7.3c0,0.4-0.1,0.8-0.2,1.1
				c-0.1,0.3-0.3,0.6-0.5,0.9s-0.6,0.4-1,0.6c-0.4,0.1-1,0.2-1.7,0.2s-1.2-0.1-1.7-0.2c-0.4-0.1-0.8-0.3-1-0.6
				c-0.2-0.2-0.4-0.5-0.5-0.9s-0.2-0.7-0.2-1.1V67c0-0.1,0-0.1-0.1-0.1h-1.7c-0.1,0-0.1,0-0.1,0.1v7.2c0,0.6,0.1,1.1,0.2,1.7
				c0.1,0.6,0.4,1.1,0.8,1.5c0.4,0.5,0.9,0.8,1.6,1.1c0.7,0.3,1.6,0.4,2.6,0.4c1.1,0,2-0.1,2.6-0.4c0.7-0.3,1.2-0.7,1.6-1.1
				c0.4-0.5,0.6-1,0.8-1.5c0.1-0.6,0.2-1.1,0.2-1.7V67c0-0.1,0-0.1-0.1-0.1H190.3L190.3,66.9z"/>
		</g>
		<g id="g111">
			<path id="path113" inkscape:connector-curvature="0" d="M195.9,66.9c-0.1,0-0.1,0-0.1,0.1v11.6c0,0.1,0,0.1,0.1,0.1h6.6
				c0.6,0,1.1-0.1,1.6-0.2s0.9-0.4,1.3-0.7c0.4-0.3,0.7-0.7,0.9-1.1s0.3-0.9,0.3-1.5c0-0.4-0.1-0.7-0.2-1c-0.1-0.3-0.2-0.6-0.4-0.8
				c-0.2-0.2-0.3-0.4-0.5-0.6c-0.1-0.1-0.3-0.2-0.4-0.3c0.1-0.1,0.3-0.3,0.3-0.3c0.1-0.1,0.2-0.3,0.4-0.5c0.1-0.2,0.2-0.4,0.3-0.7
				c0.1-0.3,0.1-0.5,0.1-0.9c0-0.6-0.1-1.1-0.3-1.5s-0.5-0.8-0.8-1c-0.3-0.3-0.7-0.5-1.1-0.6c-0.4-0.1-0.9-0.2-1.3-0.2L195.9,66.9
				L195.9,66.9z M202.6,68.8c0.6,0,1,0.1,1.2,0.4c0.3,0.2,0.4,0.6,0.4,1c0,0.5-0.1,0.9-0.4,1.2c-0.3,0.3-0.7,0.4-1.2,0.4
				c0,0-4.7,0-4.9,0c0-0.2,0-2.8,0-3C197.9,68.8,202.6,68.8,202.6,68.8z M202.5,73.7c0.4,0,0.8,0,1.1,0.1s0.5,0.2,0.7,0.3
				c0.2,0.1,0.3,0.3,0.3,0.5c0.1,0.2,0.1,0.4,0.1,0.7c0,0.5-0.2,0.9-0.5,1.2c-0.4,0.3-0.9,0.4-1.7,0.4c0,0-4.6,0-4.9,0
				c0-0.2,0-3,0-3.2C197.9,73.7,202.5,73.7,202.5,73.7z"/>
		</g>
	</g>
</g>
</svg>
