<?xml version="1.0" encoding="utf-8"?>
<!-- Generator: Adobe Illustrator 21.1.0, SVG Export Plug-In . SVG Version: 6.00 Build 0)  -->
<svg version="1.1" id="Layer_1" xmlns="http://www.w3.org/2000/svg" xmlns:xlink="http://www.w3.org/1999/xlink" x="0px" y="0px"
	 viewBox="0 0 200 200" style="enable-background:new 0 0 200 200;" xml:space="preserve">
<style type="text/css">
	.st0{clip-path:url(#SVGID_2_);fill:#FFFFFF;}
	.st1{clip-path:url(#SVGID_4_);}
	.st2{clip-path:url(#SVGID_6_);}
	.st3{clip-path:url(#SVGID_8_);}
	.st4{clip-path:url(#SVGID_10_);}
	.st5{clip-path:url(#SVGID_12_);}
	.st6{clip-path:url(#SVGID_14_);}
	.st7{clip-path:url(#SVGID_16_);}
	.st8{clip-path:url(#SVGID_18_);}
	.st9{clip-path:url(#SVGID_20_);}
	.st10{clip-path:url(#SVGID_22_);}
	.st11{clip-path:url(#SVGID_24_);}
	.st12{clip-path:url(#SVGID_26_);}
	.st13{clip-path:url(#SVGID_28_);}
	.st14{clip-path:url(#SVGID_30_);}
	.st15{clip-path:url(#SVGID_32_);}
	.st16{clip-path:url(#SVGID_34_);}
	.st17{clip-path:url(#SVGID_36_);}
	.st18{clip-path:url(#SVGID_38_);}
	.st19{clip-path:url(#SVGID_40_);}
	.st20{clip-path:url(#SVGID_42_);}
	.st21{clip-path:url(#SVGID_44_);}
	.st22{clip-path:url(#SVGID_46_);}
	.st23{clip-path:url(#SVGID_48_);}
	.st24{clip-path:url(#SVGID_50_);fill:#D9A500;}
	.st25{clip-path:url(#SVGID_52_);fill:#D9A500;}
	.st26{clip-path:url(#SVGID_54_);fill:#D9A500;}
	.st27{clip-path:url(#SVGID_56_);fill:#D9A500;}
	.st28{clip-path:url(#SVGID_58_);fill:#D9A500;}
	.st29{clip-path:url(#SVGID_60_);fill:#D9A500;}
	.st30{clip-path:url(#SVGID_62_);fill:#D9A500;}
	.st31{clip-path:url(#SVGID_64_);fill:#D9A500;}
	.st32{clip-path:url(#SVGID_66_);fill:#D9A500;}
	.st33{clip-path:url(#SVGID_68_);fill:#D9A500;}
	.st34{clip-path:url(#SVGID_70_);fill:#D9A500;}
	.st35{clip-path:url(#SVGID_72_);fill:#D9A500;}
	.st36{clip-path:url(#SVGID_74_);fill:#D9A500;}
	.st37{clip-path:url(#SVGID_76_);fill:#D9A500;}
	.st38{clip-path:url(#SVGID_78_);fill:#D9A500;}
	.st39{clip-path:url(#SVGID_80_);fill:#D9A500;}
	.st40{clip-path:url(#SVGID_82_);fill:#D9A500;}
	.st41{clip-path:url(#SVGID_84_);fill:#D9A500;}
	.st42{clip-path:url(#SVGID_86_);fill:#D9A500;}
	.st43{clip-path:url(#SVGID_88_);fill:#D9A500;}
	.st44{clip-path:url(#SVGID_90_);fill:#D9A500;}
	.st45{clip-path:url(#SVGID_92_);fill:#D9A500;}
	.st46{clip-path:url(#SVGID_94_);fill:#D9A500;}
	.st47{clip-path:url(#SVGID_96_);fill:#D9A500;}
	.st48{clip-path:url(#SVGID_98_);fill:#D9A500;}
	.st49{clip-path:url(#SVGID_100_);fill:#D9A500;}
	.st50{clip-path:url(#SVGID_102_);fill:#D9A500;}
	.st51{clip-path:url(#SVGID_104_);fill:#D9A500;}
	.st52{clip-path:url(#SVGID_106_);fill:#D9A500;}
	.st53{clip-path:url(#SVGID_108_);fill:#D9A500;}
	.st54{clip-path:url(#SVGID_110_);fill:#D9A500;}
	.st55{clip-path:url(#SVGID_112_);fill:#D9A500;}
	.st56{clip-path:url(#SVGID_114_);fill:#D9A500;}
	.st57{clip-path:url(#SVGID_116_);fill:#D9A500;}
	.st58{clip-path:url(#SVGID_118_);fill:#D9A500;}
	.st59{clip-path:url(#SVGID_120_);fill:#D9A500;}
	.st60{clip-path:url(#SVGID_122_);fill:#D9A500;}
	.st61{clip-path:url(#SVGID_124_);fill:#D9A500;}
	.st62{clip-path:url(#SVGID_126_);fill:#D9A500;}
	.st63{clip-path:url(#SVGID_128_);fill:#D9A500;}
	.st64{clip-path:url(#SVGID_130_);fill:#D9A500;}
	.st65{clip-path:url(#SVGID_132_);fill:#D9A500;}
	.st66{clip-path:url(#SVGID_134_);fill:#D9A500;}
	.st67{clip-path:url(#SVGID_136_);fill:#D9A500;}
	.st68{clip-path:url(#SVGID_138_);fill:#D9A500;}
	.st69{clip-path:url(#SVGID_140_);fill:#D9A500;}
	.st70{clip-path:url(#SVGID_142_);fill:#D9A500;}
	.st71{clip-path:url(#SVGID_144_);fill:#D9A500;}
	.st72{clip-path:url(#SVGID_146_);fill:#D9A500;}
	.st73{clip-path:url(#SVGID_148_);fill:#D9A500;}
	.st74{clip-path:url(#SVGID_150_);}
	.st75{clip-path:url(#SVGID_152_);}
	.st76{clip-path:url(#SVGID_154_);}
	.st77{clip-path:url(#SVGID_156_);}
	.st78{clip-path:url(#SVGID_158_);}
	.st79{clip-path:url(#SVGID_160_);}
	.st80{clip-path:url(#SVGID_162_);}
	.st81{clip-path:url(#SVGID_164_);}
	.st82{clip-path:url(#SVGID_166_);fill:#0078BB;}
	.st83{clip-path:url(#SVGID_168_);}
	.st84{clip-path:url(#SVGID_170_);}
	.st85{clip-path:url(#SVGID_172_);}
</style>
<g>
	<g>
		<defs>
			<rect id="SVGID_1_" x="16.5" y="0.9" width="167" height="198.3"/>
		</defs>
		<clipPath id="SVGID_2_">
			<use xlink:href="#SVGID_1_"  style="overflow:visible;"/>
		</clipPath>
		<path class="st0" d="M121.5,41c2.2-2.5,6.2-7.2,7.4-10.9c1.2-3.9,0.9-7.5-1.1-10.7c-2.5-4.1-7.3-5.6-10.9-5.6
			c-1,0-1.9,0.1-2.8,0.3c-0.3,0.1-0.6,0.1-1,0.2c-1.2-0.3-2.5-0.5-3.8-0.5c-1,0-1.9,0.1-2.8,0.3c0,0-0.1,0-0.2,0
			c0.2-0.7,0.3-1.3,0.3-2.1c0-3.7-3-6.7-6.7-6.7c-3.7,0-6.7,3-6.7,6.7c0,0.7,0.1,1.4,0.3,2.1c0,0-0.1,0-0.1,0
			c-2.2-0.5-4.5-0.4-6.7,0.2c-0.4-0.1-0.7-0.2-0.9-0.2c-0.9-0.2-1.9-0.3-2.8-0.3c-3.6,0-8.4,1.5-10.9,5.6c-1.9,3.2-2.3,6.8-1.1,10.7
			c1.4,4.5,4.7,8.4,7.3,11c-33.1,9.6-56.1,39.9-56.1,74.6c0,42.9,34.9,77.7,77.8,77.7c42.8,0,77.7-34.9,77.7-77.7
			C177.7,80.9,154.7,50.5,121.5,41"/>
	</g>
	<g>
		<defs>
			<rect id="SVGID_3_" x="16.5" y="0.9" width="167" height="198.3"/>
		</defs>
		<clipPath id="SVGID_4_">
			<use xlink:href="#SVGID_3_"  style="overflow:visible;"/>
		</clipPath>
		<path class="st1" d="M95.2,19.7c-1-0.4-2-0.7-2.7-0.8c-0.6-0.1-1.2-0.2-1.9-0.2c-2.9,0-5.5,1.3-6.7,3.2
			c-3.2,5.4,1.7,11.8,5.3,15.4c1.6-0.2,3.3-0.4,5-0.6c-3.3-3.7-6.8-9.2-3.9-14C91.2,21.2,93,20.1,95.2,19.7"/>
	</g>
	<g>
		<defs>
			<rect id="SVGID_5_" x="16.5" y="0.9" width="167" height="198.3"/>
		</defs>
		<clipPath id="SVGID_6_">
			<use xlink:href="#SVGID_5_"  style="overflow:visible;"/>
		</clipPath>
		<path class="st2" d="M103.8,25.2c0-2-1.7-3.7-3.7-3.7c-2.2,0-3.8,1.7-3.8,3.7c0,2.1,1.7,3.7,3.8,3.7
			C102.1,28.9,103.8,27.3,103.8,25.2"/>
	</g>
	<g>
		<defs>
			<rect id="SVGID_7_" x="16.5" y="0.9" width="167" height="198.3"/>
		</defs>
		<clipPath id="SVGID_8_">
			<use xlink:href="#SVGID_7_"  style="overflow:visible;"/>
		</clipPath>
		<path class="st3" d="M81,20.1c0.3-0.5,0.7-1,1-1.4c-2.3,0.2-4.6,1.3-5.7,3.2C72.7,28,79.5,35.3,83,38.5c0.8-0.2,1.5-0.4,2.3-0.5
			c-2-2.3-4.1-5.3-5.1-8.4C79,26.1,79.3,22.9,81,20.1"/>
	</g>
	<g>
		<defs>
			<rect id="SVGID_9_" x="16.5" y="0.9" width="167" height="198.3"/>
		</defs>
		<clipPath id="SVGID_10_">
			<use xlink:href="#SVGID_9_"  style="overflow:visible;"/>
		</clipPath>
		<path class="st4" d="M119.9,29.6c-1,3.2-3.1,6.1-5.1,8.4c0.8,0.2,1.5,0.3,2.3,0.5c3.5-3.2,10.2-10.5,6.6-16.6
			c-1.1-1.9-3.4-2.9-5.7-3.2c0.4,0.4,0.7,0.9,1,1.4C120.7,22.9,121,26.1,119.9,29.6"/>
	</g>
	<g>
		<defs>
			<rect id="SVGID_11_" x="16.5" y="0.9" width="167" height="198.3"/>
		</defs>
		<clipPath id="SVGID_12_">
			<use xlink:href="#SVGID_11_"  style="overflow:visible;"/>
		</clipPath>
		<path class="st5" d="M159.1,56.6c-8.4-8.4-18.3-14.8-29-18.9c1.7-2.4,3.2-5,4-7.7c1.6-5.1,1.1-10.1-1.5-14.4
			c-2.9-4.8-8.5-7.7-14.7-7.7c-1.2,0-2.5,0.1-3.6,0.4c-0.2,0-1.9,0.4-4.1,0.9c-0.8-4.7-4.9-8.3-9.9-8.3c-5.1,0-9.3,3.8-10,8.7
			c-2.8-0.7-5.3-1.3-5.6-1.3c-1.2-0.2-2.4-0.4-3.7-0.4c-6.2,0-11.9,3-14.7,7.7c-2.6,4.3-3.1,9.3-1.5,14.4c0.9,2.9,2.5,5.6,4.3,8
			C58.8,42.1,49.2,48.4,41,56.6c-15.8,15.8-24.5,36.7-24.5,59c0,22.3,8.7,43.3,24.5,59.1c15.8,15.8,36.8,24.5,59.1,24.5
			c22.3,0,43.3-8.7,59-24.5c15.8-15.8,24.4-36.8,24.4-59.1C183.5,93.3,174.8,72.4,159.1,56.6 M97.5,9.9l2.1,0.1l-0.3-2h2.1l-0.3,2
			l2.1-0.1v2l-2-0.1l0.4,1.8h-1.2h-1.2l0.4-1.8l-2,0.1V9.9z M100,191.8c-42,0-76.2-34.2-76.2-76.2c0-35.4,24.4-65.3,57.3-73.8l0-0.4
			c-2.6-2.3-6.9-6.8-8.5-11.8c-1.1-3.5-0.8-6.6,0.9-9.5c2.5-4.2,8-5.5,12.2-4.6c0.4,0.1,0.8,0.2,1.2,0.3c1.2-0.4,2.5-0.6,3.8-0.6
			c0.9,0,1.7,0.1,2.5,0.3c1.2,0.2,3.1,0.9,4.7,1.6c0.2-1,1-1.8,2.2-1.8c1,0,1.9,0.8,2.1,1.8c1.6-0.6,3.5-1.3,4.7-1.6
			c0.8-0.2,1.6-0.3,2.5-0.3c1.3,0,2.6,0.2,3.9,0.6c0.5-0.1,0.9-0.3,1.3-0.3c4.1-0.9,9.6,0.4,12.1,4.6c1.7,2.8,2,6,0.9,9.5
			c-1.5,4.8-8.6,11.9-8.6,11.9l0,0.3c32.9,8.4,57.3,38.3,57.3,73.8C176.2,157.6,142,191.8,100,191.8"/>
	</g>
	<g>
		<defs>
			<rect id="SVGID_13_" x="16.5" y="0.9" width="167" height="198.3"/>
		</defs>
		<clipPath id="SVGID_14_">
			<use xlink:href="#SVGID_13_"  style="overflow:visible;"/>
		</clipPath>
		<path class="st6" d="M102.2,32.4c0-1.1-1-2.1-2.1-2.1c-1.2,0-2.2,1-2.2,2.1c0,1.2,1,2.1,2.2,2.1C101.2,34.6,102.2,33.7,102.2,32.4
			"/>
	</g>
	<g>
		<defs>
			<rect id="SVGID_15_" x="16.5" y="0.9" width="167" height="198.3"/>
		</defs>
		<clipPath id="SVGID_16_">
			<use xlink:href="#SVGID_15_"  style="overflow:visible;"/>
		</clipPath>
		<path class="st7" d="M110,22.7c2.9,4.8-0.6,10.3-3.9,14c1.6,0.1,3.2,0.3,4.7,0.5c3.6-3.6,8.5-10,5.3-15.4c-1.2-2-3.8-3.2-6.7-3.2
			c-0.6,0-1.2,0.1-1.8,0.2c-0.6,0.1-1.6,0.4-2.6,0.8C107.1,20,109,21.2,110,22.7"/>
	</g>
	<g>
		<defs>
			<rect id="SVGID_17_" x="16.5" y="0.9" width="167" height="198.3"/>
		</defs>
		<clipPath id="SVGID_18_">
			<use xlink:href="#SVGID_17_"  style="overflow:visible;"/>
		</clipPath>
		<path class="st8" d="M113.5,54.7c-0.3,0.3-0.5,0.5-1.3,0.5l-0.2,0.6l0.9,0.2l-1,4.3l1,0.2l1.3-5.7L113.5,54.7z"/>
	</g>
	<g>
		<defs>
			<rect id="SVGID_19_" x="16.5" y="0.9" width="167" height="198.3"/>
		</defs>
		<clipPath id="SVGID_20_">
			<use xlink:href="#SVGID_19_"  style="overflow:visible;"/>
		</clipPath>
		<path class="st9" d="M96.9,56.1c0.5-0.3,0.6-0.8,0.6-1.3c-0.1-1.1-0.9-1.5-1.9-1.4c-1,0.1-1.7,0.6-1.7,1.7c0,0.5,0.3,1,0.8,1.2
			c-0.6,0.3-0.8,0.8-0.7,1.4c0.1,1.1,1,1.7,2.1,1.6c1.1-0.1,1.9-0.7,1.8-1.8C97.8,56.8,97.5,56.3,96.9,56.1 M95.7,54.2
			c0.5,0,0.8,0.3,0.8,0.7c0,0.4-0.3,0.8-0.7,0.8C95.4,55.7,95,55.4,95,55C95,54.6,95.2,54.3,95.7,54.2 M96,58.3
			c-0.6,0.1-0.9-0.3-0.9-0.8c-0.1-0.6,0.3-0.9,0.8-0.9c0.5-0.1,0.9,0.3,1,0.8C96.8,57.9,96.6,58.3,96,58.3"/>
	</g>
	<g>
		<defs>
			<rect id="SVGID_21_" x="16.5" y="0.9" width="167" height="198.3"/>
		</defs>
		<clipPath id="SVGID_22_">
			<use xlink:href="#SVGID_21_"  style="overflow:visible;"/>
		</clipPath>
		<path class="st10" d="M87,54.5c-0.2,0.4-0.3,0.7-1.1,1.1l0.2,0.6l0.9-0.2l0.9,4.3l1-0.2l-1.2-5.7L87,54.5z"/>
	</g>
	<g>
		<defs>
			<rect id="SVGID_23_" x="16.5" y="0.9" width="167" height="198.3"/>
		</defs>
		<clipPath id="SVGID_24_">
			<use xlink:href="#SVGID_23_"  style="overflow:visible;"/>
		</clipPath>
		<path class="st11" d="M104.9,53.4c-1.4-0.1-2,0.7-2,1.9c-0.1,0.9,0.4,1.7,1.4,1.8c0.4,0,0.9-0.1,1.3-0.4l-0.1,0.5
			c-0.1,0.9-0.4,1.2-1,1.2c-0.4-0.1-0.7-0.4-0.6-0.8l-1.1-0.1c0,1.1,0.7,1.7,1.7,1.7c1.2,0.1,2-0.6,2.1-1.8l0.2-1.9
			C106.8,54.3,106.1,53.5,104.9,53.4 M105.6,55.5l0,0.3c-0.3,0.2-0.6,0.4-0.9,0.4c-0.5,0-0.8-0.4-0.8-1c0.1-0.6,0.3-1,0.9-1
			C105.4,54.3,105.7,54.6,105.6,55.5"/>
	</g>
	<g>
		<defs>
			<rect id="SVGID_25_" x="16.5" y="0.9" width="167" height="198.3"/>
		</defs>
		<clipPath id="SVGID_26_">
			<use xlink:href="#SVGID_25_"  style="overflow:visible;"/>
		</clipPath>
		<path class="st12" d="M118,177.9l0.6,1.8l1.8-0.5l0.3,1c0.4,1.3-0.1,2.2-1.1,2.5c-0.3,0.1-0.6,0.1-0.8,0.1c-0.8,0-1.3-0.5-1.7-1.6
			l-1.6-5.5c-0.4-1.4,0-2.2,1.2-2.6c1.1-0.3,1.9,0.3,2.4,1.8l2.3-0.6c-0.7-2.2-2-3.3-3.7-3.3c-0.4,0-0.9,0-1.5,0.2
			c-2.7,0.8-3.7,2.7-2.8,5.6l1.4,4.8c0.8,2.9,2.6,4,5.4,3.2c0.8-0.3,1.4-0.9,1.9-1.9l0.1-0.2l0.8,1.1l1.1-0.3l-1.9-6.6L118,177.9z"
			/>
	</g>
	<g>
		<defs>
			<rect id="SVGID_27_" x="16.5" y="0.9" width="167" height="198.3"/>
		</defs>
		<clipPath id="SVGID_28_">
			<use xlink:href="#SVGID_27_"  style="overflow:visible;"/>
		</clipPath>
		<path class="st13" d="M39.6,144.6l-0.9-2.2l-0.7,0.3c-0.5,0.2-0.9,0.3-1.2,0.3c-1,0-1.3-0.7-1.5-1.2c-0.2-0.6-0.3-1-0.1-1.5
			c0.2-0.5,0.6-0.8,1.4-1.1l5.3-2.1c0.4-0.2,0.8-0.3,1.1-0.3c0.9,0,1.3,0.7,1.6,1.2c0.2,0.6,0.2,1,0.1,1.4c-0.2,0.4-0.6,0.8-1.4,1.1
			l-0.2,0.1l0.9,2.2c1.4-0.6,2.3-1.4,2.7-2.4c0.3-0.9,0.3-2-0.2-3.2c-0.8-1.9-1.9-2.8-3.5-2.8c-0.7,0-1.5,0.2-2.4,0.5l-4.7,1.9
			c-1.5,0.6-2.4,1.4-2.8,2.5c-0.4,0.9-0.3,2,0.2,3.2c1.1,2.7,3,3.4,5.8,2.2L39.6,144.6z"/>
	</g>
	<g>
		<defs>
			<rect id="SVGID_29_" x="16.5" y="0.9" width="167" height="198.3"/>
		</defs>
		<clipPath id="SVGID_30_">
			<use xlink:href="#SVGID_29_"  style="overflow:visible;"/>
		</clipPath>
		<polygon class="st14" points="50.8,146.2 49.6,144.2 38,151.7 41.6,157.2 43.3,156.1 41,152.5 		"/>
	</g>
	<g>
		<defs>
			<rect id="SVGID_31_" x="16.5" y="0.9" width="167" height="198.3"/>
		</defs>
		<clipPath id="SVGID_32_">
			<use xlink:href="#SVGID_31_"  style="overflow:visible;"/>
		</clipPath>
		<path class="st15" d="M80.6,170.2l-3.4-1.2l-4.6,13l3.5,1.2c0.8,0.3,1.5,0.4,2.2,0.4c1.7,0,2.8-0.9,3.4-2.6
			c0.6-1.7,0.2-2.5-0.7-3.8l-0.2-0.2l0.3-0.1c1.2-0.3,2.1-1,2.4-2.1C84.5,172.2,82.5,170.8,80.6,170.2 M79.6,180.1
			c-0.3,1-1,1.5-1.9,1.5c-0.3,0-0.6-0.1-0.9-0.2l-1.2-0.4l1.4-4.1l1,0.3c0.7,0.2,1.2,0.6,1.5,1.1C79.8,178.8,79.9,179.4,79.6,180.1
			 M81.3,174.4c-0.3,0.7-0.9,1.2-1.8,1.2c-0.3,0-0.5-0.1-0.8-0.2l-1-0.4l1.2-3.4L80,172c0.6,0.2,1,0.6,1.3,1
			C81.4,173.4,81.4,173.8,81.3,174.4"/>
	</g>
	<g>
		<defs>
			<rect id="SVGID_33_" x="16.5" y="0.9" width="167" height="198.3"/>
		</defs>
		<clipPath id="SVGID_34_">
			<use xlink:href="#SVGID_33_"  style="overflow:visible;"/>
		</clipPath>
		<path class="st16" d="M92,173l-3.7-0.5l-1.8,13.6l2.3,0.3l0.8-5.7l1.5,0.2l1.5,6l2.5,0.4l-1.8-6.5l0.2-0.1
			c1.4-0.3,2.2-1.3,2.4-3.1c0.2-1.3,0-2.4-0.7-3.2C94.6,173.7,93.5,173.2,92,173 M93.6,177.2c-0.2,1.5-1.1,1.9-1.9,1.9
			c-0.1,0-0.3,0-0.4-0.1l-1.5-0.2l0.6-4.1l1.6,0.1c0.6,0.1,1.1,0.3,1.4,0.7C93.6,176,93.7,176.5,93.6,177.2"/>
	</g>
	<g>
		<defs>
			<rect id="SVGID_35_" x="16.5" y="0.9" width="167" height="198.3"/>
		</defs>
		<clipPath id="SVGID_36_">
			<use xlink:href="#SVGID_35_"  style="overflow:visible;"/>
		</clipPath>
		<path class="st17" d="M108.8,173.1l-2.4,0.2l0.7,9.6c0,0.7-0.1,1.3-0.4,1.7c-0.3,0.4-0.8,0.6-1.5,0.7c-1.4,0.1-2.1-0.6-2.2-2.1
			l-0.7-9.6l-2.3,0.2l0.7,9.7c0.2,2.6,1.6,3.9,4.1,3.9h0.5c2-0.1,4.4-1.1,4.1-4.6L108.8,173.1z"/>
	</g>
	<g>
		<defs>
			<rect id="SVGID_37_" x="16.5" y="0.9" width="167" height="198.3"/>
		</defs>
		<clipPath id="SVGID_38_">
			<use xlink:href="#SVGID_37_"  style="overflow:visible;"/>
		</clipPath>
		<path class="st18" d="M130.1,173.1l0.9,1.7l1.6-0.9l0.5,0.9c0.3,0.6,0.4,1.1,0.3,1.6c-0.1,0.5-0.4,0.9-0.9,1.1
			c-1.2,0.6-2,0.3-2.7-1l-2.7-5.1c-0.7-1.3-0.5-2.2,0.7-2.8c1.1-0.6,1.9-0.1,2.7,1.3l2.1-1.1c-1-1.7-2.2-2.6-3.6-2.6
			c-0.6,0-1.3,0.2-2.1,0.6c-1.2,0.6-1.9,1.4-2.3,2.3c-0.3,1-0.1,2.3,0.6,3.7l2.4,4.4c1.4,2.7,3.3,3.4,5.8,2.1
			c0.8-0.4,1.2-1.1,1.5-2.3l0-0.2l1,0.9l1-0.5l-3.2-6.1L130.1,173.1z"/>
	</g>
	<g>
		<defs>
			<rect id="SVGID_39_" x="16.5" y="0.9" width="167" height="198.3"/>
		</defs>
		<clipPath id="SVGID_40_">
			<use xlink:href="#SVGID_39_"  style="overflow:visible;"/>
		</clipPath>
		<polygon class="st19" points="155.6,133.3 155.1,134.5 164.4,142.1 164.3,142.3 164.2,142.4 152.4,141.1 151.9,142.3 166.2,143.7 
			166.6,142.6 		"/>
	</g>
	<g>
		<defs>
			<rect id="SVGID_41_" x="16.5" y="0.9" width="167" height="198.3"/>
		</defs>
		<clipPath id="SVGID_42_">
			<use xlink:href="#SVGID_41_"  style="overflow:visible;"/>
		</clipPath>
		<polygon class="st20" points="142.7,170.7 140.2,167.6 142.9,165.4 141.7,163.8 138.9,166 136.7,163.2 140.3,160.3 139,158.7 
			133.5,163.1 142.1,173.8 147.7,169.3 146.4,167.7 		"/>
	</g>
	<g>
		<defs>
			<rect id="SVGID_43_" x="16.5" y="0.9" width="167" height="198.3"/>
		</defs>
		<clipPath id="SVGID_44_">
			<use xlink:href="#SVGID_43_"  style="overflow:visible;"/>
		</clipPath>
		<path class="st21" d="M59,156.5l-7.1,6.6c-0.6,0.5-1.1,0.7-1.6,0.7c-0.5,0-1-0.2-1.5-0.7c-0.4-0.5-0.6-1-0.6-1.5
			c0-0.5,0.4-1,0.9-1.4l7.1-6.6l-1.6-1.7l-7.1,6.6c-1.1,1-1.6,2-1.6,3.1c0,1,0.5,2,1.5,3.1c1.9,2.1,4,2.2,6.1,0.3l7.1-6.6L59,156.5z
			"/>
	</g>
	<g>
		<defs>
			<rect id="SVGID_45_" x="16.5" y="0.9" width="167" height="198.3"/>
		</defs>
		<clipPath id="SVGID_46_">
			<use xlink:href="#SVGID_45_"  style="overflow:visible;"/>
		</clipPath>
		<polygon class="st22" points="150.3,145 149.5,146.2 152.2,155.1 152,155.3 151.9,155.2 146,151.1 145.3,152.1 156.6,160 
			157.3,159 153.5,156.4 152.5,152.6 161.1,153.6 161.9,152.4 152.1,151.4 		"/>
	</g>
	<g>
		<defs>
			<rect id="SVGID_47_" x="16.5" y="0.9" width="167" height="198.3"/>
		</defs>
		<clipPath id="SVGID_48_">
			<use xlink:href="#SVGID_47_"  style="overflow:visible;"/>
		</clipPath>
		<path class="st23" d="M66.3,162.7l-2.9-2.1l-8,11.2l3.1,2.2c2.4,1.7,4.5,1.5,5.9-0.6c1-1.4,0.9-2.4,0.3-3.8l-0.1-0.2H65
			c1.2,0.1,2.3-0.4,3-1.3C69.5,165.7,68,163.9,66.3,162.7 M62.7,171.9c-0.5,0.7-1,1-1.7,1c-0.5,0-0.9-0.2-1.4-0.5l-1.1-0.8l2.5-3.6
			l0.9,0.6c0.6,0.4,1,0.9,1.2,1.4C63.2,170.8,63.1,171.4,62.7,171.9 M65.8,166.9c-0.3,0.5-0.8,0.7-1.4,0.7c-0.4,0-0.9-0.2-1.4-0.5
			l-0.9-0.7l2.1-3l1,0.7C66.3,165,66.5,166,65.8,166.9"/>
	</g>
	<g>
		<defs>
			<rect id="SVGID_49_" x="16.5" y="0.9" width="167" height="198.3"/>
		</defs>
		<clipPath id="SVGID_50_">
			<use xlink:href="#SVGID_49_"  style="overflow:visible;"/>
		</clipPath>
		<path class="st24" d="M164.9,123c2.5-0.5,5.6-3.9,5.7-7.2C167.3,116.7,164.9,120.6,164.9,123"/>
	</g>
	<g>
		<defs>
			<rect id="SVGID_51_" x="16.5" y="0.9" width="167" height="198.3"/>
		</defs>
		<clipPath id="SVGID_52_">
			<use xlink:href="#SVGID_51_"  style="overflow:visible;"/>
		</clipPath>
		<path class="st25" d="M163.6,86.3c-2.5,2.4-2.8,7-1.6,9.1C163.9,93.9,165.1,89.4,163.6,86.3"/>
	</g>
	<g>
		<defs>
			<rect id="SVGID_53_" x="16.5" y="0.9" width="167" height="198.3"/>
		</defs>
		<clipPath id="SVGID_54_">
			<use xlink:href="#SVGID_53_"  style="overflow:visible;"/>
		</clipPath>
		<path class="st26" d="M165.3,108.8c2.2-1.2,4.3-5.3,3.4-8.6C165.8,102.1,164.6,106.5,165.3,108.8"/>
	</g>
	<g>
		<defs>
			<rect id="SVGID_55_" x="16.5" y="0.9" width="167" height="198.3"/>
		</defs>
		<clipPath id="SVGID_56_">
			<use xlink:href="#SVGID_55_"  style="overflow:visible;"/>
		</clipPath>
		<path class="st27" d="M159.8,80.4c-2.1,2.7-1.6,7.3-0.1,9.2C161.4,87.7,161.8,83.2,159.8,80.4"/>
	</g>
	<g>
		<defs>
			<rect id="SVGID_57_" x="16.5" y="0.9" width="167" height="198.3"/>
		</defs>
		<clipPath id="SVGID_58_">
			<use xlink:href="#SVGID_57_"  style="overflow:visible;"/>
		</clipPath>
		<path class="st28" d="M166,115.8c2.3-1,4.7-4.9,4.1-8.3C167.1,109.1,165.5,113.5,166,115.8"/>
	</g>
	<g>
		<defs>
			<rect id="SVGID_59_" x="16.5" y="0.9" width="167" height="198.3"/>
		</defs>
		<clipPath id="SVGID_60_">
			<use xlink:href="#SVGID_59_"  style="overflow:visible;"/>
		</clipPath>
		<path class="st29" d="M160.9,95.5c-0.9-2.4-4.7-5-8.1-4.5C154.2,94.2,158.5,95.9,160.9,95.5"/>
	</g>
	<g>
		<defs>
			<rect id="SVGID_61_" x="16.5" y="0.9" width="167" height="198.3"/>
		</defs>
		<clipPath id="SVGID_62_">
			<use xlink:href="#SVGID_61_"  style="overflow:visible;"/>
		</clipPath>
		<path class="st30" d="M152.7,78.8c-1.4-2.1-5.7-3.9-8.9-2.7C145.9,78.8,150.4,79.6,152.7,78.8"/>
	</g>
	<g>
		<defs>
			<rect id="SVGID_63_" x="16.5" y="0.9" width="167" height="198.3"/>
		</defs>
		<clipPath id="SVGID_64_">
			<use xlink:href="#SVGID_63_"  style="overflow:visible;"/>
		</clipPath>
		<path class="st31" d="M158.8,90.2c-1.1-2.3-5.1-4.4-8.5-3.7C152,89.5,156.4,90.8,158.8,90.2"/>
	</g>
	<g>
		<defs>
			<rect id="SVGID_65_" x="16.5" y="0.9" width="167" height="198.3"/>
		</defs>
		<clipPath id="SVGID_66_">
			<use xlink:href="#SVGID_65_"  style="overflow:visible;"/>
		</clipPath>
		<path class="st32" d="M155.7,84.3c-1.3-2.2-5.5-4-8.8-2.9C148.9,84.1,153.5,85.1,155.7,84.3"/>
	</g>
	<g>
		<defs>
			<rect id="SVGID_67_" x="16.5" y="0.9" width="167" height="198.3"/>
		</defs>
		<clipPath id="SVGID_68_">
			<use xlink:href="#SVGID_67_"  style="overflow:visible;"/>
		</clipPath>
		<path class="st33" d="M152.4,68.7c-1.9,2.9-1.1,7.4,0.5,9.2C154.5,75.8,154.6,71.3,152.4,68.7"/>
	</g>
	<g>
		<defs>
			<rect id="SVGID_69_" x="16.5" y="0.9" width="167" height="198.3"/>
		</defs>
		<clipPath id="SVGID_70_">
			<use xlink:href="#SVGID_69_"  style="overflow:visible;"/>
		</clipPath>
		<path class="st34" d="M143.2,58.8c-1.6,3.1-0.3,7.5,1.5,9.2C146,65.8,145.6,61.3,143.2,58.8"/>
	</g>
	<g>
		<defs>
			<rect id="SVGID_71_" x="16.5" y="0.9" width="167" height="198.3"/>
		</defs>
		<clipPath id="SVGID_72_">
			<use xlink:href="#SVGID_71_"  style="overflow:visible;"/>
		</clipPath>
		<path class="st35" d="M147.9,63.5c-1.7,3-0.7,7.5,1.1,9.2C150.3,70.6,150.2,66,147.9,63.5"/>
	</g>
	<g>
		<defs>
			<rect id="SVGID_73_" x="16.5" y="0.9" width="167" height="198.3"/>
		</defs>
		<clipPath id="SVGID_74_">
			<use xlink:href="#SVGID_73_"  style="overflow:visible;"/>
		</clipPath>
		<path class="st36" d="M156.4,74.4c-2,2.8-1.5,7.4,0.1,9.2C158.1,81.7,158.4,77.2,156.4,74.4"/>
	</g>
	<g>
		<defs>
			<rect id="SVGID_75_" x="16.5" y="0.9" width="167" height="198.3"/>
		</defs>
		<clipPath id="SVGID_76_">
			<use xlink:href="#SVGID_75_"  style="overflow:visible;"/>
		</clipPath>
		<path class="st37" d="M163.9,102.1c2.1-1.4,3.7-5.7,2.5-8.9C163.7,95.4,162.9,99.9,163.9,102.1"/>
	</g>
	<g>
		<defs>
			<rect id="SVGID_77_" x="16.5" y="0.9" width="167" height="198.3"/>
		</defs>
		<clipPath id="SVGID_78_">
			<use xlink:href="#SVGID_77_"  style="overflow:visible;"/>
		</clipPath>
		<path class="st38" d="M155.6,96.3c0.9,3.3,4.8,5.8,7.3,5.8C162.4,99.6,159,96.5,155.6,96.3"/>
	</g>
	<g>
		<defs>
			<rect id="SVGID_79_" x="16.5" y="0.9" width="167" height="198.3"/>
		</defs>
		<clipPath id="SVGID_80_">
			<use xlink:href="#SVGID_79_"  style="overflow:visible;"/>
		</clipPath>
		<path class="st39" d="M140.7,63.8c0.8-2.4-0.4-6.8-3.3-8.7C136.4,58.5,138.6,62.5,140.7,63.8"/>
	</g>
	<g>
		<defs>
			<rect id="SVGID_81_" x="16.5" y="0.9" width="167" height="198.3"/>
		</defs>
		<clipPath id="SVGID_82_">
			<use xlink:href="#SVGID_81_"  style="overflow:visible;"/>
		</clipPath>
		<path class="st40" d="M143.8,68.8c-1.6-1.9-6.1-3.1-9.2-1.6C137,69.7,141.7,70,143.8,68.8"/>
	</g>
	<g>
		<defs>
			<rect id="SVGID_83_" x="16.5" y="0.9" width="167" height="198.3"/>
		</defs>
		<clipPath id="SVGID_84_">
			<use xlink:href="#SVGID_83_"  style="overflow:visible;"/>
		</clipPath>
		<path class="st41" d="M36.9,95.5c1.1-2.1,0.9-6.7-1.6-9.1C33.7,89.4,34.9,93.9,36.9,95.5"/>
	</g>
	<g>
		<defs>
			<rect id="SVGID_85_" x="16.5" y="0.9" width="167" height="198.3"/>
		</defs>
		<clipPath id="SVGID_86_">
			<use xlink:href="#SVGID_85_"  style="overflow:visible;"/>
		</clipPath>
		<path class="st42" d="M33.6,108.8c0.7-2.3-0.5-6.7-3.4-8.6C29.3,103.6,31.3,107.7,33.6,108.8"/>
	</g>
	<g>
		<defs>
			<rect id="SVGID_87_" x="16.5" y="0.9" width="167" height="198.3"/>
		</defs>
		<clipPath id="SVGID_88_">
			<use xlink:href="#SVGID_87_"  style="overflow:visible;"/>
		</clipPath>
		<path class="st43" d="M39,80.4c-2,2.8-1.6,7.3,0.1,9.2C40.6,87.8,41.1,83.2,39,80.4"/>
	</g>
	<g>
		<defs>
			<rect id="SVGID_89_" x="16.5" y="0.9" width="167" height="198.3"/>
		</defs>
		<clipPath id="SVGID_90_">
			<use xlink:href="#SVGID_89_"  style="overflow:visible;"/>
		</clipPath>
		<path class="st44" d="M32.8,115.8c0.5-2.4-1.1-6.7-4.1-8.3C28.1,110.9,30.5,114.8,32.8,115.8"/>
	</g>
	<g>
		<defs>
			<rect id="SVGID_91_" x="16.5" y="0.9" width="167" height="198.3"/>
		</defs>
		<clipPath id="SVGID_92_">
			<use xlink:href="#SVGID_91_"  style="overflow:visible;"/>
		</clipPath>
		<path class="st45" d="M38,95.5c2.4,0.4,6.6-1.4,8.1-4.5C42.7,90.6,38.9,93.2,38,95.5"/>
	</g>
	<g>
		<defs>
			<rect id="SVGID_93_" x="16.5" y="0.9" width="167" height="198.3"/>
		</defs>
		<clipPath id="SVGID_94_">
			<use xlink:href="#SVGID_93_"  style="overflow:visible;"/>
		</clipPath>
		<path class="st46" d="M46.2,78.8c2.3,0.9,6.8,0,8.9-2.7C51.8,74.9,47.6,76.6,46.2,78.8"/>
	</g>
	<g>
		<defs>
			<rect id="SVGID_95_" x="16.5" y="0.9" width="167" height="198.3"/>
		</defs>
		<clipPath id="SVGID_96_">
			<use xlink:href="#SVGID_95_"  style="overflow:visible;"/>
		</clipPath>
		<path class="st47" d="M40.1,90.2c2.4,0.6,6.8-0.7,8.5-3.7C45.2,85.8,41.2,87.9,40.1,90.2"/>
	</g>
	<g>
		<defs>
			<rect id="SVGID_97_" x="16.5" y="0.9" width="167" height="198.3"/>
		</defs>
		<clipPath id="SVGID_98_">
			<use xlink:href="#SVGID_97_"  style="overflow:visible;"/>
		</clipPath>
		<path class="st48" d="M43.1,84.3c2.3,0.8,6.8-0.1,8.8-2.9C48.6,80.3,44.4,82.1,43.1,84.3"/>
	</g>
	<g>
		<defs>
			<rect id="SVGID_99_" x="16.5" y="0.9" width="167" height="198.3"/>
		</defs>
		<clipPath id="SVGID_100_">
			<use xlink:href="#SVGID_99_"  style="overflow:visible;"/>
		</clipPath>
		<path class="st49" d="M46.4,68.7c-2.1,2.6-2.1,7.2-0.5,9.2C47.5,76.1,48.3,71.5,46.4,68.7"/>
	</g>
	<g>
		<defs>
			<rect id="SVGID_101_" x="16.5" y="0.9" width="167" height="198.3"/>
		</defs>
		<clipPath id="SVGID_102_">
			<use xlink:href="#SVGID_101_"  style="overflow:visible;"/>
		</clipPath>
		<path class="st50" d="M55.7,58.8c-2.4,2.4-2.8,7-1.5,9.2C56,66.4,57.3,62,55.7,58.8"/>
	</g>
	<g>
		<defs>
			<rect id="SVGID_103_" x="16.5" y="0.9" width="167" height="198.3"/>
		</defs>
		<clipPath id="SVGID_104_">
			<use xlink:href="#SVGID_103_"  style="overflow:visible;"/>
		</clipPath>
		<path class="st51" d="M51,63.5c-2.3,2.5-2.4,7.1-1.1,9.2C51.7,71,52.7,66.5,51,63.5"/>
	</g>
	<g>
		<defs>
			<rect id="SVGID_105_" x="16.5" y="0.9" width="167" height="198.3"/>
		</defs>
		<clipPath id="SVGID_106_">
			<use xlink:href="#SVGID_105_"  style="overflow:visible;"/>
		</clipPath>
		<path class="st52" d="M42.5,74.4c-2,2.8-1.7,7.3-0.1,9.2C43.9,81.8,44.5,77.2,42.5,74.4"/>
	</g>
	<g>
		<defs>
			<rect id="SVGID_107_" x="16.5" y="0.9" width="167" height="198.3"/>
		</defs>
		<clipPath id="SVGID_108_">
			<use xlink:href="#SVGID_107_"  style="overflow:visible;"/>
		</clipPath>
		<path class="st53" d="M35,102.1c0.9-2.2,0.2-6.8-2.5-8.9C31.3,96.4,32.9,100.7,35,102.1"/>
	</g>
	<g>
		<defs>
			<rect id="SVGID_109_" x="16.5" y="0.9" width="167" height="198.3"/>
		</defs>
		<clipPath id="SVGID_110_">
			<use xlink:href="#SVGID_109_"  style="overflow:visible;"/>
		</clipPath>
		<path class="st54" d="M36,102.1c2.4,0,6.3-2.5,7.3-5.8C39.8,96.5,36.5,99.6,36,102.1"/>
	</g>
	<g>
		<defs>
			<rect id="SVGID_111_" x="16.5" y="0.9" width="167" height="198.3"/>
		</defs>
		<clipPath id="SVGID_112_">
			<use xlink:href="#SVGID_111_"  style="overflow:visible;"/>
		</clipPath>
		<path class="st55" d="M61.5,55.1c-2.9,1.9-4.1,6.2-3.3,8.7C60.3,62.5,62.4,58.5,61.5,55.1"/>
	</g>
	<g>
		<defs>
			<rect id="SVGID_113_" x="16.5" y="0.9" width="167" height="198.3"/>
		</defs>
		<clipPath id="SVGID_114_">
			<use xlink:href="#SVGID_113_"  style="overflow:visible;"/>
		</clipPath>
		<path class="st56" d="M61.8,61.3c2.4,0.2,6.6-1.8,7.8-5C66.2,56.1,62.5,58.9,61.8,61.3"/>
	</g>
	<g>
		<defs>
			<rect id="SVGID_115_" x="16.5" y="0.9" width="167" height="198.3"/>
		</defs>
		<clipPath id="SVGID_116_">
			<use xlink:href="#SVGID_115_"  style="overflow:visible;"/>
		</clipPath>
		<path class="st57" d="M55,68.8c2.1,1.2,6.8,0.9,9.2-1.6C61.1,65.7,56.7,66.9,55,68.8"/>
	</g>
	<g>
		<defs>
			<rect id="SVGID_117_" x="16.5" y="0.9" width="167" height="198.3"/>
		</defs>
		<clipPath id="SVGID_118_">
			<use xlink:href="#SVGID_117_"  style="overflow:visible;"/>
		</clipPath>
		<path class="st58" d="M58.6,64.6c2.1,1.2,6.8,0.9,9.2-1.6C64.7,61.5,60.3,62.7,58.6,64.6"/>
	</g>
	<g>
		<defs>
			<rect id="SVGID_119_" x="16.5" y="0.9" width="167" height="198.3"/>
		</defs>
		<clipPath id="SVGID_120_">
			<use xlink:href="#SVGID_119_"  style="overflow:visible;"/>
		</clipPath>
		<path class="st59" d="M50.5,73.7c2.2,1.1,6.8,0.6,9.1-2C56.5,70.3,52.1,71.7,50.5,73.7"/>
	</g>
	<g>
		<defs>
			<rect id="SVGID_121_" x="16.5" y="0.9" width="167" height="198.3"/>
		</defs>
		<clipPath id="SVGID_122_">
			<use xlink:href="#SVGID_121_"  style="overflow:visible;"/>
		</clipPath>
		<path class="st60" d="M34,115.6c2.3-0.6,5.6-3.9,5.6-7.3C36.3,109.3,33.9,113.1,34,115.6"/>
	</g>
	<g>
		<defs>
			<rect id="SVGID_123_" x="16.5" y="0.9" width="167" height="198.3"/>
		</defs>
		<clipPath id="SVGID_124_">
			<use xlink:href="#SVGID_123_"  style="overflow:visible;"/>
		</clipPath>
		<path class="st61" d="M34.4,108.7c2.4-0.3,6-3.2,6.5-6.6C37.6,102.7,34.7,106.2,34.4,108.7"/>
	</g>
	<g>
		<defs>
			<rect id="SVGID_125_" x="16.5" y="0.9" width="167" height="198.3"/>
		</defs>
		<clipPath id="SVGID_126_">
			<use xlink:href="#SVGID_125_"  style="overflow:visible;"/>
		</clipPath>
		<path class="st62" d="M28.8,123.1c0.5,3.4,3.9,6.4,6.5,6.6C35,127.3,32.2,123.7,28.8,123.1"/>
	</g>
	<g>
		<defs>
			<rect id="SVGID_127_" x="16.5" y="0.9" width="167" height="198.3"/>
		</defs>
		<clipPath id="SVGID_128_">
			<use xlink:href="#SVGID_127_"  style="overflow:visible;"/>
		</clipPath>
		<path class="st63" d="M34,123c0-2.4-2.4-6.3-5.7-7.2C28.4,119.2,31.5,122.5,34,123"/>
	</g>
	<g>
		<defs>
			<rect id="SVGID_129_" x="16.5" y="0.9" width="167" height="198.3"/>
		</defs>
		<clipPath id="SVGID_130_">
			<use xlink:href="#SVGID_129_"  style="overflow:visible;"/>
		</clipPath>
		<path class="st64" d="M34.9,122.6c2.3-0.8,5.3-4.3,5.2-7.7C36.9,116.1,34.6,120.1,34.9,122.6"/>
	</g>
	<g>
		<defs>
			<rect id="SVGID_131_" x="16.5" y="0.9" width="167" height="198.3"/>
		</defs>
		<clipPath id="SVGID_132_">
			<use xlink:href="#SVGID_131_"  style="overflow:visible;"/>
		</clipPath>
		<path class="st65" d="M36,129.3c2.2-1,4.8-4.9,4.2-8.2C37.2,122.6,35.5,126.8,36,129.3"/>
	</g>
	<g>
		<defs>
			<rect id="SVGID_133_" x="16.5" y="0.9" width="167" height="198.3"/>
		</defs>
		<clipPath id="SVGID_134_">
			<use xlink:href="#SVGID_133_"  style="overflow:visible;"/>
		</clipPath>
		<path class="st66" d="M137.1,61.3c-0.7-2.4-4.4-5.2-7.8-5C130.5,59.5,134.7,61.6,137.1,61.3"/>
	</g>
	<g>
		<defs>
			<rect id="SVGID_135_" x="16.5" y="0.9" width="167" height="198.3"/>
		</defs>
		<clipPath id="SVGID_136_">
			<use xlink:href="#SVGID_135_"  style="overflow:visible;"/>
		</clipPath>
		<path class="st67" d="M140.2,64.6c-1.6-1.9-6.1-3.1-9.2-1.6C133.4,65.5,138.1,65.8,140.2,64.6"/>
	</g>
	<g>
		<defs>
			<rect id="SVGID_137_" x="16.5" y="0.9" width="167" height="198.3"/>
		</defs>
		<clipPath id="SVGID_138_">
			<use xlink:href="#SVGID_137_"  style="overflow:visible;"/>
		</clipPath>
		<path class="st68" d="M148.3,73.7c-1.5-2-5.9-3.3-9.1-2C141.5,74.3,146.1,74.7,148.3,73.7"/>
	</g>
	<g>
		<defs>
			<rect id="SVGID_139_" x="16.5" y="0.9" width="167" height="198.3"/>
		</defs>
		<clipPath id="SVGID_140_">
			<use xlink:href="#SVGID_139_"  style="overflow:visible;"/>
		</clipPath>
		<path class="st69" d="M159.3,108.3c0.1,3.4,3.3,6.7,5.6,7.3C165,113.1,162.5,109.3,159.3,108.3"/>
	</g>
	<g>
		<defs>
			<rect id="SVGID_141_" x="16.5" y="0.9" width="167" height="198.3"/>
		</defs>
		<clipPath id="SVGID_142_">
			<use xlink:href="#SVGID_141_"  style="overflow:visible;"/>
		</clipPath>
		<path class="st70" d="M164.4,108.7c-0.3-2.6-3.2-6-6.5-6.6C158.4,105.5,162,108.4,164.4,108.7"/>
	</g>
	<g>
		<defs>
			<rect id="SVGID_143_" x="16.5" y="0.9" width="167" height="198.3"/>
		</defs>
		<clipPath id="SVGID_144_">
			<use xlink:href="#SVGID_143_"  style="overflow:visible;"/>
		</clipPath>
		<path class="st71" d="M163.6,129.7c2.5-0.2,6-3.2,6.5-6.6C166.7,123.7,163.9,127.3,163.6,129.7"/>
	</g>
	<g>
		<defs>
			<rect id="SVGID_145_" x="16.5" y="0.9" width="167" height="198.3"/>
		</defs>
		<clipPath id="SVGID_146_">
			<use xlink:href="#SVGID_145_"  style="overflow:visible;"/>
		</clipPath>
		<path class="st72" d="M158.8,114.9c-0.1,3.4,2.8,6.9,5.2,7.7C164.2,120.1,162,116.1,158.8,114.9"/>
	</g>
	<g>
		<defs>
			<rect id="SVGID_147_" x="16.5" y="0.9" width="167" height="198.3"/>
		</defs>
		<clipPath id="SVGID_148_">
			<use xlink:href="#SVGID_147_"  style="overflow:visible;"/>
		</clipPath>
		<path class="st73" d="M158.6,121.1c-0.5,3.4,2,7.2,4.2,8.2C163.3,126.8,161.6,122.6,158.6,121.1"/>
	</g>
	<g>
		<defs>
			<rect id="SVGID_149_" x="16.5" y="0.9" width="167" height="198.3"/>
		</defs>
		<clipPath id="SVGID_150_">
			<use xlink:href="#SVGID_149_"  style="overflow:visible;"/>
		</clipPath>
		<path class="st74" d="M100,47.1c-8.2,0-17.5,1.2-16.3,1.8c1.2,0.7,6.4,1.4,16.3,1.4c9.8,0,14.9-0.8,16.2-1.4
			C117.5,48.3,108.2,47.1,100,47.1"/>
	</g>
	<g>
		<defs>
			<rect id="SVGID_151_" x="16.5" y="0.9" width="167" height="198.3"/>
		</defs>
		<clipPath id="SVGID_152_">
			<use xlink:href="#SVGID_151_"  style="overflow:visible;"/>
		</clipPath>
		<path class="st75" d="M100,42.7c-0.8,0-1.5,0.6-1.5,1.4c0,0.8,0.7,1.4,1.5,1.4c0.8,0,1.4-0.6,1.4-1.4
			C101.5,43.3,100.8,42.7,100,42.7"/>
	</g>
	<g>
		<defs>
			<rect id="SVGID_153_" x="16.5" y="0.9" width="167" height="198.3"/>
		</defs>
		<clipPath id="SVGID_154_">
			<use xlink:href="#SVGID_153_"  style="overflow:visible;"/>
		</clipPath>
		<path class="st76" d="M114.9,44.2c-0.8,0-1.5,0.6-1.5,1.4c0,0.8,0.7,1.4,1.5,1.4c0.8,0,1.4-0.6,1.4-1.4
			C116.4,44.8,115.7,44.2,114.9,44.2"/>
	</g>
	<g>
		<defs>
			<rect id="SVGID_155_" x="16.5" y="0.9" width="167" height="198.3"/>
		</defs>
		<clipPath id="SVGID_156_">
			<use xlink:href="#SVGID_155_"  style="overflow:visible;"/>
		</clipPath>
		<path class="st77" d="M85.1,44.2c-0.8,0-1.5,0.6-1.5,1.4c0,0.8,0.7,1.4,1.5,1.4c0.8,0,1.4-0.6,1.4-1.4
			C86.5,44.8,85.9,44.2,85.1,44.2"/>
	</g>
	<g>
		<defs>
			<rect id="SVGID_157_" x="16.5" y="0.9" width="167" height="198.3"/>
		</defs>
		<clipPath id="SVGID_158_">
			<use xlink:href="#SVGID_157_"  style="overflow:visible;"/>
		</clipPath>
		<path class="st78" d="M107.2,43.7c-0.5,0-1,0.4-1,1c0,0.6,0.5,1,1,1c0.5,0,1-0.4,1-1C108.2,44.1,107.8,43.7,107.2,43.7"/>
	</g>
	<g>
		<defs>
			<rect id="SVGID_159_" x="16.5" y="0.9" width="167" height="198.3"/>
		</defs>
		<clipPath id="SVGID_160_">
			<use xlink:href="#SVGID_159_"  style="overflow:visible;"/>
		</clipPath>
		<path class="st79" d="M92.8,43.7c-0.5,0-1,0.4-1,1c0,0.6,0.4,1,1,1c0.6,0,1-0.4,1-1C93.8,44.1,93.4,43.7,92.8,43.7"/>
	</g>
	<g>
		<defs>
			<rect id="SVGID_161_" x="16.5" y="0.9" width="167" height="198.3"/>
		</defs>
		<clipPath id="SVGID_162_">
			<use xlink:href="#SVGID_161_"  style="overflow:visible;"/>
		</clipPath>
		<path class="st80" d="M81.1,42l0.2,2.1c6-1.7,12.3-2.7,18.8-2.7c6.5,0,12.7,0.9,18.6,2.6l0.2-2.1c-6-1.7-12.3-2.6-18.8-2.6
			C93.5,39.4,87.2,40.3,81.1,42"/>
	</g>
	<g>
		<defs>
			<rect id="SVGID_163_" x="16.5" y="0.9" width="167" height="198.3"/>
		</defs>
		<clipPath id="SVGID_164_">
			<use xlink:href="#SVGID_163_"  style="overflow:visible;"/>
		</clipPath>
		<path class="st81" d="M152.8,115.6c0-29.4-23.9-53.3-53.3-53.3c-29.5,0-53.4,23.9-53.4,53.3c0,29.5,23.9,53.3,53.4,53.3
			C129,168.9,152.8,145.1,152.8,115.6 M99.5,162.3c-25.8,0-46.7-21-46.7-46.8c0-25.7,21-46.7,46.7-46.7c25.7,0,46.7,21,46.7,46.7
			C146.2,141.4,125.2,162.3,99.5,162.3"/>
	</g>
	<g>
		<defs>
			<rect id="SVGID_165_" x="16.5" y="0.9" width="167" height="198.3"/>
		</defs>
		<clipPath id="SVGID_166_">
			<use xlink:href="#SVGID_165_"  style="overflow:visible;"/>
		</clipPath>
		<path class="st82" d="M131.3,147.4c-17.6,17.6-46.1,17.6-63.6,0c-17.6-17.6-17.6-46.1,0-63.6c17.6-17.6,46.1-17.6,63.6,0
			C148.9,101.4,148.9,129.9,131.3,147.4"/>
	</g>
	<g>
		<defs>
			<rect id="SVGID_167_" x="16.5" y="0.9" width="167" height="198.3"/>
		</defs>
		<clipPath id="SVGID_168_">
			<use xlink:href="#SVGID_167_"  style="overflow:visible;"/>
		</clipPath>
		<path class="st83" d="M56,104.2c-1.9,7.3-1.9,14.9-0.2,22.1l54.5-54.5c-7.3-1.8-14.9-1.7-22.1,0.2L56,104.2z"/>
	</g>
	<g>
		<defs>
			<rect id="SVGID_169_" x="16.5" y="0.9" width="167" height="198.3"/>
		</defs>
		<clipPath id="SVGID_170_">
			<use xlink:href="#SVGID_169_"  style="overflow:visible;"/>
		</clipPath>
		<path class="st84" d="M62.7,141.5c1.5,2.1,3.1,4.1,5,5.9c1.9,1.9,3.9,3.6,6,5l62.6-62.7c-1.5-2.1-3.2-4.1-5-6
			c-1.9-1.9-3.9-3.5-5.9-5L62.7,141.5z"/>
	</g>
	<g>
		<defs>
			<rect id="SVGID_171_" x="16.5" y="0.9" width="167" height="198.3"/>
		</defs>
		<clipPath id="SVGID_172_">
			<use xlink:href="#SVGID_171_"  style="overflow:visible;"/>
		</clipPath>
		<path class="st85" d="M143.2,104.8l-54.5,54.5c7.3,1.8,14.9,1.7,22.1-0.2L143,127C144.9,119.7,145,112.1,143.2,104.8"/>
	</g>
</g>
</svg>
