<?xml version="1.0" encoding="utf-8"?>
<!-- Generator: Adobe Illustrator 21.1.0, SVG Export Plug-In . SVG Version: 6.00 Build 0)  -->
<svg version="1.1"
	 id="svg2" inkscape:version="0.48.2 r9819" sodipodi:docname="Coleraine_FC.svg" xmlns:cc="http://creativecommons.org/ns#" xmlns:dc="http://purl.org/dc/elements/1.1/" xmlns:inkscape="http://www.inkscape.org/namespaces/inkscape" xmlns:rdf="http://www.w3.org/1999/02/22-rdf-syntax-ns#" xmlns:sodipodi="http://sodipodi.sourceforge.net/DTD/sodipodi-0.dtd" xmlns:svg="http://www.w3.org/2000/svg"
	 xmlns="http://www.w3.org/2000/svg" xmlns:xlink="http://www.w3.org/1999/xlink" x="0px" y="0px" viewBox="0 0 200 200"
	 style="enable-background:new 0 0 200 200;" xml:space="preserve">
<style type="text/css">
	.st0{fill:#2F4399;}
	.st1{fill:#FFFFFF;}
	.st2{fill:#EB1C2B;}
</style>
<g>
	<path class="st0" d="M30.3,26.1c20.7-14.8,44-24.7,69.7-24.8c25.6,0.1,49.1,10,69.8,24.8c2.1,24.1,3.3,47-0.3,71
		c-4.6,31.3-16.5,62.2-69.2,101.3c-0.1,0.1-0.2,0.1-0.3,0.2c-0.1-0.1-0.2-0.1-0.3-0.2c-52.7-39.1-64.5-70-69.1-101.3
		C27,73.1,28.1,50.2,30.3,26.1L30.3,26.1z"/>
	<path class="st1" d="M99.9,4.1c24.7,0,47.2,9.5,67.2,23.6c0.6,7,1.1,13.9,1.5,20.9c0.2,3.7,0.3,7.3,0.3,11
		c0.1,5.1,0.1,10.2-0.1,15.2c-0.3,8.4-1.1,16.6-2.5,24.9c-1.7,10-4.1,19.5-8,29c-4.2,9.9-9.6,18.8-16.3,27.2
		c-12.1,15.2-26.5,27.8-42,39.5c-17.5-13.3-33.9-27.7-46.6-45.7c-5.3-7.6-9.5-15.3-12.8-23.9c-3.7-9.4-5.8-19-7.3-28.9
		c-1.2-8-1.9-16.1-2.1-24.2c-0.3-9.5-0.1-18.9,0.5-28.4c0.3-5.6,0.8-11.1,1.2-16.6C52.8,13.5,75.3,4.1,99.9,4.1"/>
	<path id="path20" inkscape:connector-curvature="0" class="st0" d="M99.9,6.8c23.8,0,45.1,9,64.5,22.3c0.8,9.4,1.5,18.8,1.7,28.2
		c0.2,7.2,0.1,14.4-0.3,21.6c-0.6,8.7-1.5,17.3-3.3,25.9c-2,10-5,19.3-9.5,28.4c-5.6,11.3-12.8,21-21.3,30.3
		c-9.7,10.5-20.4,19.7-31.8,28.3c-13.6-10.3-26.3-21.5-37.3-34.7c-6.9-8.3-12.6-17-17.1-26.8c-4.2-9.1-6.8-18.4-8.6-28.3
		c-1.2-6.9-2.1-13.9-2.6-20.9c-0.6-8.7-0.7-17.3-0.4-25.9c0.3-8.7,0.9-17.4,1.6-26.1C54.8,15.9,76.1,6.8,99.9,6.8L99.9,6.8z
		 M52.2,33l-3.2,2l-1.3-2.1c-0.4-0.6-0.7-1-0.8-1.1c-0.1-0.1-0.3-0.1-0.6,0.1c-0.3,0.1-0.3,0.3-0.3,0.6c0.1,0.2,0.3,0.7,0.6,1.3
		l3.6,5.7c0.3,0.6,0.6,1,0.8,1.1s0.4,0.1,0.6,0c0.2-0.1,0.3-0.3,0.3-0.6s-0.3-0.7-0.7-1.4l-1-1.5l3.2-2l0.3,0.5
		c0.8,1.2,1.2,2.2,1.4,2.8c0.1,0.6,0.1,1.4-0.3,2.1c-0.3,0.8-1,1.5-1.9,2c-1,0.6-1.8,0.9-2.6,1c-0.8,0.1-1.5-0.2-2.1-0.6
		c-0.6-0.5-1.2-1.3-2-2.5l-2.2-3.6c-0.6-0.9-1-1.6-1.2-2.1c-0.2-0.5-0.3-1-0.3-1.6c0.1-0.6,0.3-1.2,0.6-1.7c0.4-0.6,0.9-1,1.6-1.5
		c1-0.6,1.9-0.9,2.7-0.9s1.5,0.2,2.1,0.6c0.6,0.4,1.2,1.2,1.9,2.4L52.2,33L52.2,33z M63.5,29.7c0.6,1.3,1,2.3,1.2,2.8
		c0.2,0.6,0.3,1.2,0.1,1.8C64.7,35,64.5,35.5,64,36c-0.4,0.5-1,1-1.7,1.3c-0.7,0.3-1.4,0.6-2.1,0.6c-0.7,0.1-1.2-0.1-1.9-0.3
		c-0.6-0.3-1-0.7-1.3-1.2s-0.8-1.5-1.5-2.8l-1-2.3c-0.6-1.3-1-2.3-1.2-2.8s-0.3-1.2-0.1-1.8c0.1-0.6,0.3-1.2,0.8-1.7
		c0.4-0.5,1-1,1.7-1.3s1.4-0.6,2.1-0.6c0.7-0.1,1.2,0.1,1.9,0.3c0.6,0.3,1,0.7,1.3,1.2c0.3,0.5,0.8,1.5,1.5,2.8L63.5,29.7L63.5,29.7
		z M58,27.1c-0.3-0.6-0.5-1-0.7-1.1c-0.1-0.1-0.3-0.1-0.6-0.1c-0.2,0.1-0.3,0.2-0.3,0.4s0.1,0.6,0.4,1.3l3,6.1
		c0.3,0.8,0.6,1.2,0.8,1.4c0.1,0.1,0.3,0.1,0.6,0.1c0.2-0.1,0.3-0.3,0.3-0.6c-0.1-0.2-0.2-0.8-0.6-1.5L58,27.1L58,27.1z M67.1,19.4
		l3.8,11l2.1-0.8l1,2.8l-5.8,2l-4.7-13.7L67.1,19.4L67.1,19.4z M72.1,17.8l6.1-1.5l0.7,2.8l-2.4,0.6l0.7,2.7l2.3-0.6l0.7,2.7
		l-2.3,0.6l0.8,3.1l2.7-0.7l0.7,2.8L75.6,32L72.1,17.8L72.1,17.8z M82,15.4l2.6-0.3c1.7-0.2,3-0.3,3.6-0.2c0.6,0.1,1.2,0.3,1.7,0.8
		c0.5,0.5,0.8,1.4,0.9,2.6c0.1,1.1,0.1,1.9-0.1,2.3c-0.2,0.4-0.8,0.7-1.6,0.9c0.8,0.1,1.3,0.3,1.6,0.6s0.5,0.6,0.6,0.8
		c0.1,0.3,0.2,1,0.3,2.1l0.5,3.8l-3.5,0.4l-0.6-4.8c-0.1-0.8-0.2-1.2-0.3-1.4c-0.1-0.1-0.5-0.2-1-0.1l0.8,6.5l-3.8,0.3L82,15.4
		L82,15.4z M86.1,17.4l0.4,3.2c0.4-0.1,0.7-0.1,0.8-0.3c0.1-0.1,0.2-0.6,0.1-1.2l-0.1-0.8c-0.1-0.5-0.2-0.8-0.3-0.9
		C86.8,17.3,86.5,17.3,86.1,17.4z M100.9,14.1l2.1,14.5h-3.9L99,25.9h-1.4l-0.2,2.6h-3.9l1.9-14.5H100.9z M99,23.3
		c-0.2-1.7-0.4-3.7-0.6-6.1C98,20,97.8,22,97.7,23.3H99z M109.2,14.6l-1,14.4l-3.7-0.3l1-14.5L109.2,14.6z M121.7,16.8l-2.8,14.3
		l-3.3-0.6l-0.7-6.9l-1.2,6.4l-3.1-0.6l2.8-14.3l3.1,0.6l0.8,6.8l1.2-6.4L121.7,16.8L121.7,16.8z M124.9,17.7l6.1,1.7l-0.8,2.8
		l-2.4-0.6l-0.7,2.6l2.3,0.6l-0.7,2.7l-2.3-0.6l-0.8,3l2.7,0.7l-0.8,2.8l-6.3-1.7L124.9,17.7L124.9,17.7z M139,22.3l5.9,2.5
		l-1.1,2.7l-2.4-1l-1.1,2.6l2.1,0.9l-1.1,2.6l-2.1-0.9l-2.4,5.6l-3.5-1.5L139,22.3L139,22.3z M143.3,36.9l-1.2,2.7l-2.5-1.2l1.2-2.7
		L143.3,36.9L143.3,36.9z M155.5,37.6l-3.3-1.8l1.2-2.2c0.3-0.6,0.6-1,0.6-1.2s-0.1-0.3-0.3-0.5c-0.3-0.1-0.5-0.1-0.7,0
		c-0.2,0.1-0.4,0.6-0.8,1.2l-3.2,6c-0.3,0.6-0.5,1-0.6,1.2c0,0.2,0.1,0.4,0.3,0.6s0.5,0.1,0.6,0c0.2-0.1,0.5-0.6,0.8-1.2l0.8-1.6
		l3.3,1.8l-0.3,0.5c-0.7,1.3-1.3,2.2-1.8,2.6c-0.5,0.5-1.2,0.7-2,0.8c-0.8,0.1-1.7-0.1-2.7-0.6c-1-0.5-1.7-1.1-2.1-1.8
		c-0.4-0.7-0.6-1.4-0.5-2.1s0.6-1.7,1.2-3l2-3.7c0.5-0.9,0.9-1.6,1.2-2c0.3-0.4,0.8-0.8,1.2-1c0.6-0.3,1.2-0.3,1.9-0.3
		c0.7,0.1,1.4,0.3,2.1,0.6c1,0.6,1.7,1.2,2.1,1.9c0.4,0.7,0.6,1.4,0.5,2.1c-0.1,0.7-0.5,1.6-1.1,2.8L155.5,37.6z M157,44.7l-1.5,2.6
		l-2.4-1.4l1.5-2.6L157,44.7z M143.9,54.3c-0.1,0-0.1,0-0.1,0c-0.1,0-0.1,0-0.2,0c-0.1,0-0.1,0-0.1,0s-0.1,0-0.2,0
		c-0.1,0-0.1,0-0.1,0c-0.1,0-0.1,0-0.2,0c-0.1,0-0.1,0-0.1,0c-0.1,0-0.1,0-0.2,0c-0.1,0-0.1,0-0.2,0c-0.1,0-0.1,0-0.2,0
		c-0.1,0-0.1,0-0.1,0c-0.1,0-0.1,0-0.2,0c-0.1,0-0.1,0-0.1,0c-0.1,0-0.1,0-0.2,0c-0.1,0-0.1,0-0.1,0c-0.1,0-0.1,0-0.2,0
		c-0.1,0-0.1,0-0.2,0c-0.1,0-0.1,0-0.2,0c-0.1,0-0.1,0-0.1,0c-0.1,0-0.1,0-0.3,0c-0.1,0-0.1,0-0.1,0c-0.1,0-0.3,0-0.4,0
		c-7.6,0-14.8,5.7-22.9,5.4c1,1.2,1.9,2.7,2.7,4.2c6.7-0.1,13.5-5.3,20.2-5.3c0.1,0,0.2,0,0.3,0h0.1c0.1,0,0.1,0,0.2,0
		c0.1,0,0.1,0,0.1,0s0.1,0,0.2,0c0.1,0,0.1,0,0.1,0c0.1,0,0.1,0,0.2,0c0.1,0,0.1,0,0.1,0c0.1,0,0.1,0,0.2,0c0.1,0,0.1,0,0.1,0
		s0.1,0,0.2,0c0.1,0,0.1,0,0.1,0s0.1,0,0.1,0c0.1,0,0.1,0,0.1,0c0.1,0,0.1,0,0.1,0h0.1c0.1,0,0.1,0,0.2,0c0.1,0,0.1,0,0.1,0
		s0.1,0,0.1,0c0.1,0,0.1,0,0.1,0c0.1,0,0.1,0,0.1,0c0.1,0,0.1,0,0.1,0c0.1,0,0.1,0,0.1,0c0.1,0,0.1,0,0.1,0s0.1,0,0.2,0.1h0.1
		c0.1,0,0.1,0,0.2,0.1h0.1c0.1,0,0.1,0,0.2,0.1h0.1c5.1,1.1,10,3.5,15.2,4.4l0,0c0,1.6,0,3.1,0,4.7c-6.4-1.2-12.6-5.2-20.8-5.2
		c-6.1,0-11.9,3.7-18.1,5c0.4,1.4,0.7,2.8,0.8,4.3c5.8-1.2,11.6-5,17.3-5c6.9,0,13.4,4,20.6,5c-0.1,1.3-0.1,2.7-0.1,4
		c0,0.3,0,0.5-0.1,0.8c-6.6-1-13-5.3-21.3-5.3c-5.5,0-10.8,3-16.4,4.5c-0.1,1.6-0.3,3.2-0.8,4.7c5.7-1.2,11.5-4.9,17.2-5
		c7.1-0.1,13.7,4.2,21,5.1c-0.1,1.6-0.3,3.2-0.4,4.8c-6.5-1.1-12.8-5.3-21.1-5.2c-6.2,0-12.1,3.8-18.4,5.1c-0.8,1.7-1.9,3.2-3,4.6
		h1.1c6.8,0,13.7-5.3,20.4-5.3c6.9,0,13.4,4,20.7,5c-0.3,2.4-0.6,4.8-1,7.1c-0.9,5.6-2,11.1-3.5,16.6c-1.5,5.4-3.5,10.6-5.9,15.7
		c-3.3,6.9-7.3,13.2-11.8,19.3c-4,5.3-8.3,10.1-12.9,14.8c-7.4,7.6-15.4,14.5-23.8,21l-0.1-0.1c-8.9-7-17.5-14.5-25.4-22.7
		c-6-6.3-11.4-13-16.2-20.3c-3.3-5.3-6.2-10.7-8.7-16.4c-3.3-8-5.5-16.4-7-24.9c-0.6-3.4-1-6.7-1.5-10.1c7.2-1,13.7-5.1,20.7-5.1
		c6.8,0,13.7,5.3,20.4,5.3h1.1c-1.2-1.4-2.2-2.9-3-4.6c-6.4-1.2-12.3-5-18.4-5.1c-8.3,0-14.6,4.2-21.1,5.3l-0.1-0.3
		c-0.1-1.5-0.3-2.9-0.3-4.4c7.3-0.9,14-5.1,21.1-5.1c5.7,0,11.4,3.7,17.2,5c-0.4-1.5-0.6-3-0.8-4.7c-5.5-1.5-10.9-4.5-16.4-4.5
		c-8.4,0-14.8,4.2-21.3,5.3c-0.1-1.6-0.1-3.2-0.2-4.8c7.2-1,13.7-5.1,20.7-5c5.8,0,11.6,3.8,17.3,5c0.1-1.5,0.4-2.9,0.8-4.3
		c-6.2-1.3-12.1-4.9-18.1-5c-8.2,0-14.4,4-20.8,5.2c0-0.5,0-0.9,0-1.4c0-1.1,0-2.2,0-3.3c4-0.6,7.6-2.1,11.4-3.3l0,0
		c1.1-0.3,2.2-0.7,3.3-1l0,0c0.1,0,0.2-0.1,0.3-0.1h0.1c0.1,0,0.2-0.1,0.3-0.1h0.1c0.1,0,0.1,0,0.2-0.1h0.1c0.1,0,0.1,0,0.2-0.1h0.1
		c0.1,0,0.1,0,0.2-0.1h0.1c0.1,0,0.1,0,0.2,0s0.1,0,0.1,0s0.1,0,0.2,0h0.1c0.1,0,0.1,0,0.2,0c0.1,0,0.1,0,0.1,0c0.1,0,0.1,0,0.2,0
		h0.1c0.1,0,0.1,0,0.1,0c0.1,0,0.1,0,0.1,0c0.1,0,0.1,0,0.1,0c0.1,0,0.1,0,0.1,0s0.1,0,0.1,0c0.1,0,0.1,0,0.1,0c0.1,0,0.1,0,0.1,0
		c0.1,0,0.1,0,0.1,0c0.1,0,0.1,0,0.1,0c0.1,0,0.1,0,0.1,0c0.1,0,0.1,0,0.2,0c0.1,0,0.1,0,0.1,0c0.1,0,0.1,0,0.2,0c0.1,0,0.1,0,0.1,0
		c0.1,0,0.2,0,0.3,0c6.7,0,13.5,5.2,20.2,5.3c0.8-1.5,1.7-2.9,2.7-4.2c-8.1,0.3-15.2-5.4-22.9-5.4c-0.1,0-0.3,0-0.4,0
		c-0.1,0-0.1,0-0.1,0c-0.1,0-0.1,0-0.3,0c-0.1,0-0.1,0-0.1,0s-0.1,0-0.2,0s-0.1,0-0.1,0c-0.1,0-0.1,0-0.2,0c-0.1,0-0.1,0-0.1,0
		c-0.1,0-0.1,0-0.2,0c-0.1,0-0.1,0-0.1,0c-0.1,0-0.1,0-0.2,0h-0.1c-0.1,0-0.1,0-0.2,0c-0.1,0-0.1,0-0.1,0c-0.1,0-0.1,0-0.2,0
		s-0.1,0-0.1,0c-0.1,0-0.1,0-0.2,0s-0.1,0-0.1,0s-0.1,0-0.2,0s-0.1,0-0.1,0s-0.1,0-0.2,0s-0.1,0-0.1,0s-0.1,0-0.2,0.1
		c-0.1,0-0.1,0-0.1,0s-0.2,0-0.3,0.1h-0.1c-0.2,0.1-0.5,0.1-0.7,0.1h-0.1c-0.1,0-0.2,0.1-0.3,0.1h-0.1c-0.1,0-0.2,0.1-0.3,0.1l0.3,0
		c-0.1,0-0.1,0.1-0.3,0.1h-0.1c-0.1,0-0.1,0.1-0.3,0.1h-0.1c-0.1,0-0.1,0.1-0.3,0.1h-0.1c-0.1,0-0.2,0.1-0.3,0.1h-0.1
		c-0.1,0-0.2,0.1-0.3,0.1l0,0c-0.1,0-0.2,0.1-0.3,0.1l0,0c-4.2,1.2-7.9,2.9-11.7,3.7l0,0c21.6-17.5,43.8-21.5,59.7-21.5
		c15.6,0,38.4,4,59.8,21.5c-3.8-0.8-7.5-2.6-11.6-3.7H148c-0.1,0-0.2-0.1-0.3-0.1h-0.1c-0.1,0-0.2-0.1-0.3-0.1h-0.1
		c-0.1,0-0.1-0.1-0.2-0.1h-0.1c-0.1,0-0.1-0.1-0.2-0.1h-0.1c-0.1,0-0.1-0.1-0.2-0.1h-0.1c-0.1,0-0.1-0.1-0.2-0.1h-0.1
		c-0.1,0-0.2-0.1-0.3-0.1h-0.1c-0.1,0-0.2-0.1-0.3-0.1h-0.1c-0.2-0.1-0.5-0.1-0.7-0.1l0,0l0,0c-0.1,0-0.2-0.1-0.3-0.1h-0.1
		C144,54.3,143.9,54.3,143.9,54.3L143.9,54.3z M99.9,68l6.8,4.9l-2.6,8h-8.5l-2.6-8L99.9,68z M99.7,61.7l7.6-3.8l-2.2-3.4
		c-1.7-0.5-3.4-0.7-5.1-0.7c-1.7,0-3.3,0.2-4.9,0.7L92.3,58L99.7,61.7L99.7,61.7z M87.6,71.2l-1.2-7.7l-3.3,0.2c-1.9,3.2-3,7-3,11
		c0,0.2,0,0.5,0,0.7l2.9,2.1L87.6,71.2z M112.3,70.9l1-8.1l3,0.4c2.1,3.3,3.3,7.3,3.3,11.5c0,0.1,0,0.2,0,0.3l-2.7,1.6L112.3,70.9
		L112.3,70.9z M107.1,85.9l7.6-1.7l0.8,3.1c-2.4,3.4-5.8,6-9.8,7.3l-2.4-1.9L107.1,85.9z M93.6,86.6l-7.4-2.3l-1.7,3.3
		c2.6,3.5,6.3,6.1,10.5,7.3l2.3-1.2L93.6,86.6"/>
	<path id="path16" inkscape:connector-curvature="0" class="st2" d="M57.4,139.3L100,96.7l42.5,42.4c0,0-2.6,4.5-3.8,6.2
		c-1.1,1.5-5.4,6.6-5.4,6.6l-33.2-33.5L66.5,152c0,0-4.1-5.1-5.3-6.9"/>
	<path id="path24" inkscape:connector-curvature="0" class="st0" d="M55,106.5c0.1,3.7-4,6.5-4.2,12.3c0,0.6,0.3,1.6,1.4,1.6
		c2.7,0.1,5.4-0.3,8,0c3,0.4,5.8,0.8,8.5,0.3c0.8-0.1,0.6-1,0.2-1c-2.2-0.3-3.7-2.3-6.6-2.8c-2.6-0.5-4.9,0.8-7.1,0.8
		c-0.5,0-0.8-0.2-0.7-0.6c0.3-1.3,1.9-2.8,1.9-3.9c0.1-1.4-0.4-2.6-0.1-4c0.1-0.3,0.3-0.7,0.7-1c0.6-0.4,1.2-0.4,2.1-0.5
		c1-0.1,2.1-0.1,2.9-0.1c1.6,0,3.1,0,4.5,0s0.1-1.3-0.3-1.5c-0.9-0.2-2-0.1-2.9-0.1c-1.3,0-2.5,0.1-3.7,0c-0.6,0-0.9-0.5-0.9-0.8
		c0-0.5,0.3-0.9,0.3-1.4s-0.3-0.8-0.1-1.2c0.2-0.7,1.3-1,1.3-1.7c0-0.8-2.1-1.7-2.1-2.6c0-0.3,0.1-0.6,0.6-0.8
		c0.5-0.3,1.3-0.5,2.1-0.6c0.8-0.1,0.4,0,1.6-0.1c0.9,0,1.7,0,1.7,0.6c0,0.4-0.4,0.6-0.5,0.9c-0.1,0.5-0.3,1-0.6,1.2
		c-0.3,0.3-0.6,0.5-0.5,0.9c0.1,0.6,0.8,0.3,0.8,0.9c0,0.3-0.6,0.5-1.1,0.8c-0.5,0.3-1.1,0.6-1.5,0.8c-0.3,0.2-0.5,0.5-0.4,0.8
		c0.1,0.3,0.3,0.5,0.6,0.5c1,0.1,2.4,0.1,3.4,0.1c0.8,0,1.5,0.6,2.5,0.4c0.6-0.1,0.9-0.3,1.4-0.7c0.1-0.1,0.6,0.1,1.1,0.1
		c0.3,0,0.8,0,0.9-0.2c0.2-0.2,0.2-0.6-0.1-0.9c-0.3-0.3-0.2-0.6-0.5-1c-0.3-0.3-0.6-0.7-0.6-1c0-0.8,1.1-1,1.3-1.7
		c0.2-0.8-1.2-0.8-1.9-1.3c-0.1-0.1-0.3-0.3-0.3-0.6c-0.2-0.8,1.6-1.4,2-1.9c0.1-0.1,0.1-0.7-0.2-0.8c-1.4-0.3-2.5,0.2-2.7,0
		c-0.3-0.3,0.1-0.8,0.1-1.2c-0.1-0.8-0.5-1.5-0.5-2.4c0-0.3-0.4-0.5-0.7-0.3c-0.3,0.2-0.6,0.5-1,0.7c-0.5,0.2-0.9,0.2-1.1,0.3
		c-0.5,0.1-0.9,0.6-1.3,0.6c-0.6,0-1-0.8-1.2-1.8c-0.1-0.6-0.6-0.3-0.8-0.1c-1.4,1.2-1.9,2.3-2.4,2.4c-0.4,0-1-1.1-1.5-1.4
		c-0.1-0.1-0.3-0.1-0.4,0.1c-0.3,0.7-0.1,2.2-0.8,2.8c-0.6,0.4-1.9-0.3-2.2-0.1c-0.1,0.1-0.1,0.6,0,0.8c0.2,0.4,0.3,0.7,0.3,1.2
		c-0.1,0.3-0.3,0.4-1,0.7c-0.3,0.2-0.8,0.3-1.1,0.5c-0.6,0.3-0.7,0.6-0.5,0.8c0.2,0.2,0.7,0.2,0.8,0.6c0.1,0.3-0.6,0.6-0.2,1
		c0.5,0.6,1.4,0.6,1.5,1.7c0.1,0.8-1.2,1.6-1,2.2c0.1,0.3,0.5,0.2,1,0.5c0.2,0.1,0.4,0.5,0.6,0.6c0.4,0.3,1,0.3,1.4,0.6
		C54.8,105.5,54.9,106.1,55,106.5"/>
	<path id="path26" inkscape:connector-curvature="0" class="st0" d="M134.6,106.7c0.1,3.7-4,6.5-4.2,12.3c0,0.6,0.3,1.6,1.4,1.6
		c2.7,0.1,5.4-0.3,8,0c3,0.4,5.8,0.8,8.5,0.3c0.8-0.1,0.6-1,0.2-1c-2.2-0.3-3.7-2.3-6.6-2.8c-2.6-0.5-4.9,0.8-7.1,0.8
		c-0.5,0-0.8-0.2-0.7-0.6c0.3-1.3,1.9-2.8,1.9-3.9c0.1-1.4-0.4-2.6-0.1-4c0.1-0.3,0.3-0.7,0.7-1c0.6-0.4,1.2-0.4,2.1-0.5
		c1-0.1,2.1-0.1,2.9-0.1c1.6,0,3.1,0,4.5,0c1.4,0,0.1-1.3-0.3-1.5c-0.9-0.2-2-0.1-2.9-0.1c-1.3,0-2.5,0.1-3.7,0
		c-0.6,0-0.9-0.5-0.9-0.8c0-0.5,0.3-0.9,0.3-1.4c0-0.5-0.3-0.8-0.1-1.2c0.2-0.7,1.3-1,1.3-1.7c0-0.8-2.1-1.7-2.1-2.6
		c0-0.3,0.1-0.6,0.6-0.8c0.5-0.3,1.3-0.5,2.1-0.6c0.8-0.1,0.4,0,1.6-0.1c0.9,0,1.7,0,1.7,0.6c0,0.4-0.4,0.6-0.5,0.9
		c-0.1,0.5-0.3,1-0.6,1.2c-0.3,0.3-0.6,0.5-0.5,0.9c0.1,0.6,0.8,0.3,0.8,0.9c0,0.3-0.6,0.5-1.1,0.8c-0.5,0.3-1.1,0.6-1.5,0.8
		c-0.3,0.2-0.5,0.5-0.4,0.8c0.1,0.3,0.3,0.5,0.6,0.5c1,0.1,2.4,0.1,3.4,0.1c0.8,0,1.5,0.6,2.5,0.4c0.6-0.1,0.9-0.3,1.4-0.7
		c0.1-0.1,0.6,0.1,1.1,0.1c0.3,0,0.8,0,0.9-0.2c0.2-0.2,0.2-0.6-0.1-0.9c-0.3-0.3-0.2-0.6-0.5-1c-0.3-0.3-0.6-0.7-0.6-1
		c0-0.8,1.1-1,1.3-1.7c0.2-0.8-1.2-0.8-1.9-1.3c-0.1-0.1-0.3-0.3-0.3-0.6c-0.2-0.8,1.6-1.4,2-1.9c0.1-0.1,0.1-0.7-0.2-0.8
		c-1.4-0.3-2.5,0.2-2.7,0c-0.3-0.3,0.1-0.8,0.1-1.2c-0.1-0.8-0.5-1.5-0.6-2.4c0-0.3-0.4-0.5-0.7-0.3c-0.3,0.2-0.6,0.5-1,0.7
		c-0.5,0.2-0.9,0.2-1.1,0.3c-0.5,0.1-0.9,0.6-1.3,0.6c-0.6,0-1-0.8-1.2-1.8c-0.1-0.6-0.6-0.3-0.8-0.1c-1.4,1.2-1.9,2.3-2.4,2.4
		c-0.4,0-1-1.1-1.5-1.4c-0.1-0.1-0.3-0.1-0.4,0.1c-0.3,0.7-0.1,2.2-0.8,2.8c-0.6,0.4-1.9-0.3-2.2-0.1c-0.1,0.1-0.1,0.6,0,0.8
		c0.2,0.4,0.3,0.7,0.3,1.2c-0.1,0.3-0.3,0.4-1,0.7c-0.3,0.2-0.8,0.3-1.1,0.5c-0.6,0.3-0.7,0.6-0.5,0.8s0.7,0.2,0.8,0.6
		c0.1,0.3-0.6,0.6-0.2,1c0.5,0.6,1.4,0.6,1.5,1.7c0.1,0.8-1.2,1.6-1,2.2c0.1,0.3,0.5,0.3,1,0.5c0.2,0.1,0.4,0.5,0.6,0.6
		c0.4,0.3,1,0.3,1.4,0.6C134.4,105.7,134.6,106.2,134.6,106.7"/>
	<path id="path2989" inkscape:connector-curvature="0" class="st1" d="M56.5,137.8c-1.5-2.4-5.9-11.2-7.1-14.3
		c-3.3-8.5-6-19.1-7.3-28.6c-0.3-2-0.6-4-0.6-4.4c-0.1-0.8-0.1-0.8,1.6-1.2c1-0.2,3.8-1,6.3-1.8c8-2.6,7.8-2.6,12.1-2.6
		c3.9,0,4,0,7.6,1.3c7.6,2.7,10,3.5,12.1,3.6c1.2,0.1,2.2,0.1,2.2,0c0-0.1-0.6-1.1-1.4-2.2c-0.8-1.1-1.4-2.1-1.4-2.2
		c0-0.1-0.7-0.4-1.6-0.6c-0.8-0.2-3.9-1.2-6.7-2.1c-6.1-2.1-7.3-2.4-11-2.4s-6.4,0.6-12.3,2.6c-2.6,0.9-5.6,1.8-6.6,2.1l-1.7,0.4
		v-1.5c0-0.8-0.1-1.9-0.2-2.2c-0.1-0.6,0-0.7,2.2-1.2c1.3-0.3,4.6-1.2,7.4-2.1c6.1-1.9,9.8-2.6,12.5-2.4c1,0.1,4,1,6.7,1.9
		c5.3,1.9,9.2,3.1,9.4,3c0.1-0.1-0.1-0.6-0.2-1.2C78.1,79,78,78,78,77.5c0-0.5-0.1-1.1-0.3-1.3c-0.4-0.7-11.6-4.3-14.3-4.6
		c-3.9-0.5-7.9,0.2-15.2,2.6c-3.3,1.1-6.4,2.1-7.1,2.1l-1.2,0.2l0.1-2.2l0.1-2.2l1.8-0.3c1-0.2,4.2-1.1,7-2.1
		c2.8-0.9,6.5-1.9,8.1-2.1c3.8-0.6,6.4-0.3,11.9,1.7c4.2,1.5,6.8,2.4,8.2,2.8c0.8,0.2,0.8,0.1,1-1.1c0.1-0.7,0.3-1.8,0.3-2.4
		c0.2-1,0.1-1.1-0.3-1.1c-0.3,0-3.3-1-6.8-2.1c-7.9-2.7-10-3-14.8-2.3c-2.4,0.3-5.1,1-9.2,2.4c-3.2,1-6.2,2-6.8,2.1l-1,0.2l0.1-2.1
		l0.1-2.1l2.7-0.7c1.5-0.3,4.9-1.4,7.4-2.2c7.8-2.6,11.2-2.7,16.7-0.7c8.1,2.8,9.6,3.3,11.4,3.7c1.1,0.2,2.1,0.3,2.1,0.3
		c0.1-0.1,0.7-1,1.5-2.3l1.4-2.2h-1.3c-2.1,0-4.2-0.5-10.8-2.8c-10.3-3.5-12.9-3.5-23.7,0.1c-3,1-5.6,1.7-5.8,1.7
		c-0.1-0.1,0.9-1,2.2-1.9c9.1-6.5,20.4-12.1,30.1-15c26.4-7.6,54.4-3.5,77.3,11.3c3.6,2.3,7.5,5.2,7.3,5.4c-0.1,0.1-2.6-0.7-5.7-1.7
		c-10.7-3.5-13.4-3.5-23.7-0.1c-6,2-8.5,2.6-11,2.8l-1.1,0.1l1.4,2.2l1.4,2.2l1.2-0.1c2.4-0.3,4.4-0.9,8.6-2.4
		c6.2-2.4,7.6-2.6,11-2.6c3.2,0,3.7,0.1,12.5,2.9c2.4,0.8,5,1.5,5.7,1.6l1.3,0.2v2.2v2.2l-0.8-0.2c-0.5-0.1-3.5-1-6.7-2.1
		c-4.1-1.4-6.9-2.1-9.2-2.4c-4.7-0.7-6.9-0.3-14.7,2.4c-3.5,1.2-6.5,2.1-6.8,2.1s-0.5,0.1-0.5,0.3c0,0.3,0.7,4.3,0.8,4.4
		c0.1,0.1,4.9-1.4,8.9-2.9c5.5-2,8-2.4,11.9-1.7c1.6,0.3,5.3,1.2,8.1,2.1c2.8,0.9,6,1.9,7,2.1l1.8,0.3v2.1v2.1l-1-0.1
		c-0.6,0-3.7-1-7-2.1c-7.3-2.5-11.6-3.2-15.4-2.6c-2,0.3-12.3,3.5-13.9,4.4c-0.3,0.2-0.6,0.6-0.6,1.2c0,0.6-0.1,1.6-0.3,2.3
		c-0.1,0.8-0.3,1.4-0.2,1.4c0.1,0.1,4.2-1.2,9.4-3c2.6-0.9,5.6-1.7,6.7-1.9c2.6-0.3,6.6,0.5,12.1,2.3c4,1.3,6,1.9,9,2.6
		c0.8,0.2,0.8,0.3,0.8,1.8c0,2.1-0.2,2.6-1,2.6c-0.3,0-3.2-0.9-6.4-1.9c-6.9-2.3-9.6-2.9-13.3-2.9c-3.6,0-4.8,0.3-11,2.4
		c-2.8,1-5.8,1.9-6.7,2.1c-1.3,0.3-1.6,0.6-2.2,1.7c-0.4,0.7-1.1,1.8-1.6,2.4l-0.9,1.2l2.4-0.1c2.4-0.1,4.4-0.8,12.4-3.6
		c3.6-1.3,3.7-1.3,7.6-1.3c4.2,0,4-0.1,12.5,2.7c2.2,0.7,4.9,1.5,5.8,1.7c1.7,0.3,1.7,0.4,1.6,1.2c-0.1,0.4-0.3,1.9-0.5,3.3
		c-1.9,14-6,28.2-11.1,37.6c-1.8,3.3-4.4,7.8-4.4,7.8s-9.6-9.6-21.3-21.2L99.9,97l-21.3,21.3l-21.3,21.3L56.5,137.8L56.5,137.8z
		 M68.7,120.8c0.4-0.1,0.8-0.4,0.8-0.6c0-0.4-5.3-3-7.1-3.4c-1.1-0.3-1.9-0.3-4.4,0.2c-1.7,0.3-3.1,0.4-3.3,0.3
		c-0.1-0.1,0.2-1,0.8-2c0.9-1.6,1-2,1-4.2v-2.4l1-0.4c0.8-0.3,2.3-0.4,5.3-0.4c3.9,0,4.2-0.1,4.2-0.6c0-1-0.6-1.2-4-1.2
		c-1.8,0-3.5-0.1-3.7-0.2c-0.8-0.3-0.7-3.2,0.1-3.9c0.8-0.8,0.8-1.4-0.4-2.6c-1.2-1.2-1.1-1.7,0.4-2.1c1.2-0.3,3.7-0.4,4.1-0.1
		c0.1,0.1-0.1,0.8-0.6,1.7c-0.7,1.2-0.8,1.6-0.4,2.1s0.2,0.6-0.8,1.2c-1.5,0.8-2.1,1.5-1.6,1.9c0.5,0.5,6.6,1,7.3,0.6
		c0.3-0.1,1-0.3,1.7-0.3c1.3,0,1.4-0.4,0.4-2.1l-0.7-1.2l0.7-0.7c0.9-1,0.8-1.4-0.3-1.9c-1.5-0.6-1.5-0.9-0.3-1.9
		c1.5-1.2,1.2-1.9-0.6-1.9h-1.3l-0.2-1.8c-0.2-2.1-0.6-2.4-1.9-1.7c-0.5,0.3-1.3,0.6-1.9,0.8c-0.9,0.3-1,0.3-1.5-0.2
		c-0.2-0.3-0.4-0.8-0.4-1c0-0.8-1.1-0.4-2.1,0.7c-1.2,1.2-1.4,1.2-2.4,0.4c-0.6-0.6-0.8-0.6-1-0.2c-0.1,0.3-0.3,0.8-0.3,1.2
		c0,1.2-0.4,1.6-1.5,1.5c-1-0.1-1-0.1-1,1c0,0.9-0.1,1.1-1.3,1.7c-1.3,0.7-1.5,1-1,1.4c0.1,0.1,0.3,0.4,0.3,0.7
		c0,0.3,0.3,0.9,0.8,1.4c0.8,0.8,0.8,0.9,0.3,1.8c-0.3,0.5-0.6,1-0.6,1.2s0.7,0.8,1.5,1.2c0.8,0.4,1.7,1.1,1.8,1.5
		c0.4,0.8-0.1,2.6-1.9,6c-1.7,3.3-2.4,6.4-1.9,7.7c0.3,0.8,0.3,0.8,4.6,0.8c2.4,0,5.1,0.1,6,0.3C64.1,121.1,67.8,121.1,68.7,120.8
		L68.7,120.8L68.7,120.8z M148.7,120.4c0-0.3-1-1-3.2-2.1l-3.2-1.5l-2.4,0.1c-1.3,0.1-3.2,0.3-4.2,0.3c-2,0.2-2,0.3-0.4-2.4
		c0.8-1.3,0.8-1.6,0.7-3.5c-0.1-1.5-0.1-2.1,0.2-2.6c0.6-0.8,2.5-1,6.9-1c3.7,0,4.2-0.2,3-1.3c-0.4-0.4-1.3-0.5-4.2-0.6l-3.6-0.1
		l0.1-1.7c0.1-1.1,0.3-1.9,0.7-2.3c0.7-0.8,0.6-1.3-0.8-2.5c-1-0.9-1-1.5,0-1.9c1-0.3,4.2-0.5,4.6-0.1c0.1,0.1-0.1,0.9-0.6,1.8
		c-0.8,1.4-0.8,1.6-0.3,1.9c0.4,0.3,0.3,0.5-0.8,1.1c-1.5,0.8-2.1,1.6-1.6,2c0.3,0.3,5.4,0.5,8.5,0.3c1.5-0.1,1.7-0.6,0.9-2.1
		l-0.8-1.3l0.8-0.8c0.9-1,0.8-1.3-0.7-1.9c-1.2-0.5-1.3-1-0.2-1.7c0.4-0.2,0.9-0.6,1-1c0.3-0.7-0.5-1.2-1.9-1.1c-0.8,0.1-1,0-1-0.7
		c-0.1-1.9-0.2-2.4-0.6-2.8c-0.3-0.4-0.5-0.5-0.8-0.2c-0.2,0.2-1.1,0.6-1.9,0.9c-1.7,0.6-2.2,0.5-2.2-0.6c0-1.1-0.9-1-2.2,0.3
		c-1.2,1.2-1.3,1.2-1.9,0.6c-0.9-1-1.5-0.8-1.9,0.7c-0.3,1.2-0.3,1.3-1.6,1.4c-1.3,0.1-1.3,0.1-1.1,1.1c0.2,1,0.1,1-1,1.7
		c-1.1,0.6-1.7,1.5-1,1.5c0.1,0,0.3,0.3,0.3,0.8c0,0.4,0.2,0.8,0.5,1c0.8,0.3,1.1,1.2,0.6,2c-0.8,1.1-0.6,1.7,1,2.6
		c0.8,0.5,1.5,1,1.7,1.2c0.5,0.8,0.1,2.4-1.2,5c-1.9,3.9-2.6,5.8-2.6,7.7c0,2.1,0.4,2.4,4.4,2.1c1.7-0.1,4-0.1,5,0.1
		c1.1,0.1,3.5,0.2,5.4,0.2C148.4,120.9,148.7,120.9,148.7,120.4L148.7,120.4z M96,94.7c0.4-0.3,1-0.6,1.2-0.7
		c0.3-0.2-0.1-1.2-1.5-3.9l-1.9-3.6l-3.6-1.1c-1.9-0.6-3.7-1.1-3.8-1.1S85.7,85,85.2,86l-0.9,1.7l1.2,1.4c2.3,2.5,5.1,4.4,8.2,5.5
		c0.7,0.2,1.2,0.5,1.3,0.5S95.5,94.9,96,94.7L96,94.7z M108.4,93.7c1.2-0.5,4-2.6,5.5-4.3c1.5-1.6,1.7-2,1.6-2.6
		c-0.1-0.4-0.3-1.2-0.3-1.7c-0.2-0.9-0.2-0.9-1.4-0.8c-0.7,0.1-2.5,0.5-4,0.8l-2.8,0.6l-1.9,3.3c-1,1.8-1.9,3.4-1.9,3.5
		c0,0.1,0.6,0.7,1.2,1.2c1.2,1,1.2,1,2.4,0.5C107.5,94,108.2,93.8,108.4,93.7L108.4,93.7L108.4,93.7z M105.4,77.3
		c0.6-1.9,1.2-3.7,1.3-4c0.1-0.3-0.8-1.1-3-2.8c-1.7-1.2-3.4-2.4-3.6-2.5c-0.2-0.1-1.9,1-3.7,2.3c-2.9,2.1-3.4,2.6-3.2,3.1
		c0.1,0.3,0.7,2.1,1.3,4.1l1.1,3.4l4.4-0.1l4.4-0.1L105.4,77.3L105.4,77.3L105.4,77.3z M85.6,74.4c1.2-1.8,2.2-3.5,2.1-3.7
		c-0.1-0.3-0.3-2-0.6-3.9l-0.5-3.4h-1.7h-1.7l-1,2c-1.1,2.4-1.7,4.9-2,7.8L80,75.4l1.5,1.1c0.8,0.6,1.5,1.1,1.7,1.1
		C83.2,77.6,84.3,76.2,85.6,74.4L85.6,74.4z M118.4,75.9l1.5-0.8l-0.1-1.8c-0.2-2.8-0.9-5.4-2-7.9c-1-2.3-1-2.3-3.4-2.7
		c-1.2-0.2-1.1-0.3-1.7,4.7l-0.4,3.5l2.3,2.9c1.2,1.6,2.4,2.9,2.4,2.9C116.8,76.7,117.6,76.3,118.4,75.9L118.4,75.9L118.4,75.9z
		 M103.5,59.9l3.9-1.9l-1.1-1.8c-1-1.7-1.2-1.8-2.8-2.1c-1.7-0.3-7.3-0.2-8.2,0.2c-0.7,0.3-3.3,3.5-3,3.8c0.2,0.2,7.1,3.9,7.3,3.9
		C99.6,61.9,101.4,61,103.5,59.9L103.5,59.9z"/>
	<path class="st1" d="M116.6,135.1l-16.6-16.6l-16.8,16.8l-16.8,16.8l2.8,3.2c7.8,8.9,15.9,16.7,26.8,25.6c2.1,1.7,3.8,3.1,3.9,3.1
		c0.1,0,7.5-6,11.3-9.3c5.1-4.4,15.3-14.6,19.3-19.1c1.5-1.8,2.8-3.3,2.8-3.5C133.2,151.9,125.7,144.3,116.6,135.1z"/>
	<path id="path22" inkscape:connector-curvature="0" class="st0" d="M74.7,154.6c0.1-0.1-0.1-0.3-0.4-0.2c-0.7,0.2-1.5,0.4-2.2,0.4
		c-0.3,0-0.3-0.1-0.8-0.1c-1,0-1-1.6-0.6-2.1c0.7-0.9,1.4-1.9,2.4-2.9c1.4-1.5,3.2-2.9,5-4.4c2.8-2.3,5.7-4.5,8.9-5.9
		c6.5-2.8,15.7-5.3,19.9-4.6c6.6,1.3,7.5,5.6,7.9,8.5c-2.5,0.1-5.6,1.5-8.2,2.9c-4,2.3-7.1,5.1-11,6.9c-5.8,2.6-7.3,2.1-10.7,2.9
		c-1.2,0.3-1.6,0.8-3.1,0.9c0.6-1.7,1-3.4,0.7-4.7c-0.1-0.3-0.5-0.1-0.4,0.1c0.1,1.7-0.3,3.5-1.3,4.5c-0.8,0.8-1.8,1-2.9,1
		c-1.4,0.1-3-0.1-4.3-0.7c-0.5-0.2-0.8-1-0.3-1.6C73.7,155.3,74,155.2,74.7,154.6L74.7,154.6z M84.3,156.8c-0.6,0.6,0,2,1,2.6
		c1.2,0.6,3.1,1.1,3.7,0.5c0.7-0.8-0.4-2.1-1.3-2.7C86.8,156.5,85.1,156.1,84.3,156.8z M104.9,148.2c2-0.1,3.1,0.8,4.9,0.7
		c1-0.1,1.7-0.8,1.6-1.5c-0.1-1-0.8-1.5-1.7-1.5C108,145.9,106.3,147,104.9,148.2z M95.4,130.8c-2.1,2.3-4.3,4.7-6.3,7.1
		c3.1-1.2,6.3-2.1,9.6-3c-1.3-0.6-2.8-2.4-2.8-4C96,130.6,95.8,130.5,95.4,130.8z M108.2,134.5c3.3-0.9,7.8,1.1,10,4.2
		c2.1,2.9,2.1,6.9,3,10.7c0.7,2.9,2.2,6.3,3.6,8.8c0.3,0.7-0.2,0.9-0.8,0.6c-2.3-1.6-3.5-4.1-6-4.6c-3.7-0.8-6.3,1.1-11.5,0.8
		c-0.7-0.1-0.6-0.5-0.3-0.8c2.4-3.5,6.7-4,8.3-7.1c1.3-2.5,0.8-5.5-0.4-8C113,136.7,110.7,135.6,108.2,134.5L108.2,134.5z
		 M80.3,147.1c0.7,0.4,1.4,0.8,2,1.2c0.3,0.2,0.7,0.4,1.1-0.1c2.3-2.6,4.9-4.2,7.8-5.7c4-2.1,8.7-3.7,14.1-5.4
		c0.7-0.2,0.8-0.2,0.3-0.2c-4.7,0-17.7,3.4-25.1,9.1C79.9,146.3,79.7,146.8,80.3,147.1z M77,149.8c0.4,0,0.8,0.3,0.8,0.8
		s-0.3,0.8-0.8,0.8s-0.8-0.3-0.8-0.8C76.2,150.1,76.6,149.8,77,149.8"/>
	<path id="path2993" inkscape:connector-curvature="0" class="st1" d="M81.3,147.5c-0.7-0.4-1.2-0.9-1.1-1c0.4-0.6,4.1-2.9,7.2-4.4
		c3.8-1.8,8.7-3.5,12.7-4.4c4.6-1,4.4-0.6-0.8,1.2c-7.1,2.5-10.7,4.4-14.5,7.7c-1.1,1-2,1.7-2.1,1.7C82.7,148.2,82,147.9,81.3,147.5
		L81.3,147.5z"/>
	<path id="path2995" inkscape:connector-curvature="0" class="st1" d="M83.8,28.3c-0.4-3-1.6-12.8-1.5-12.9c0.1-0.1,1.5-0.1,3.1-0.3
		c4.2-0.3,4.9,0.1,5.3,3.3c0.2,1.3,0.1,1.5-0.8,2.3c-0.8,0.8-0.9,0.9-0.4,0.9c1,0,1.6,1,2,4c0.2,1.6,0.4,2.8,0.3,2.9
		c0,0-0.8,0.1-1.6,0.3L88.8,29l-0.2-1.6c-0.5-3.7-0.8-4.8-1.5-4.8c-0.6,0-0.6,0.1-0.4,1.5c0.6,5.2,0.6,5.2-0.2,5.2
		c-0.4,0-1.2,0.1-1.7,0.2C84,29.7,84,29.6,83.8,28.3L83.8,28.3L83.8,28.3z M87.6,19.3c0-1.5-0.3-2.1-1-2.1c-0.6,0-0.8,0.9-0.4,2.6
		c0.1,0.7,0.3,0.9,0.8,0.8C87.5,20.5,87.6,20.2,87.6,19.3L87.6,19.3z"/>
	<path id="path2997" inkscape:connector-curvature="0" class="st1" d="M49.1,43c-1.1-0.5-1.8-1.5-4.3-5.5c-2.1-3.4-2.3-4.4-1.2-6.1
		c1.2-1.9,4.3-2.8,5.9-1.8c0.7,0.5,2.8,3.2,2.6,3.3c-0.6,0.4-2.6,1.7-2.7,1.7c-0.1,0-0.6-0.7-1.2-1.5c-1-1.7-2.1-2.1-2.1-0.8
		c0,1.1,4.8,8.4,5.5,8.4c0.8,0,0.8-1.1,0-2.3c-0.3-0.5-0.6-1-0.6-1.2s0.6-0.7,1.3-1.1l1.3-0.8l0.7,1c1.6,2.6,0.8,5-1.9,6.3
		C50.3,43.6,50.2,43.6,49.1,43L49.1,43L49.1,43z"/>
	<path id="path2999" inkscape:connector-curvature="0" class="st1" d="M58.3,37.1c-0.8-0.5-1.4-1.5-3-4.7c-2.1-4.4-2.4-5.6-1.4-6.9
		c0.7-1,2.9-2.2,4-2.2c1.7,0,2.6,1,4.7,5.3c2.7,5.5,2.6,6.9-0.5,8.5C60.6,37.9,59.6,37.9,58.3,37.1L58.3,37.1z M61.5,34.5
		c0.1-0.8-3.9-8.7-4.4-8.7c-0.9,0-0.6,1.3,1.2,5c1,2.1,2,4,2.1,4.2C60.8,35.5,61.4,35.3,61.5,34.5z"/>
	<path id="path3001" inkscape:connector-curvature="0" class="st1" d="M66.2,27.8C65,24.4,64,21.4,64,21.1c-0.1-0.3,0.5-0.6,1.5-1
		l1.6-0.6l1.9,5.4c2,5.8,1.9,5.6,3.7,4.9c0.3-0.1,0.6,0.2,0.8,1c0.2,0.6,0.3,1.2,0.1,1.3c-0.1,0.1-1.2,0.5-2.4,0.9
		c-1.2,0.3-2.3,0.8-2.4,0.8C68.5,34.1,67.4,31.5,66.2,27.8L66.2,27.8z"/>
	<path id="path3003" inkscape:connector-curvature="0" class="st1" d="M75.6,31.3c-0.1-0.2-0.9-3.3-1.7-6.9l-1.6-6.5l2.8-0.7
		c1.6-0.3,2.9-0.6,2.9-0.6c0.1,0.1,0.2,0.6,0.4,1.2c0.3,1.1,0.3,1.1-0.8,1.3c-1.2,0.2-1.5,0.6-1,2.1c0.3,1.2,0.3,1.2,1.3,1
		c1.4-0.4,1.3-0.4,1.7,0.9l0.3,1.2l-1.1,0.2c-0.6,0.1-1.2,0.3-1.2,0.4c0,0.8,0.8,3.2,1.1,3.2c0.1,0,0.8-0.1,1.4-0.3
		c1-0.2,1.1-0.2,1.4,1l0.3,1.2l-1.1,0.3c-0.6,0.1-1.7,0.4-2.4,0.6c-0.8,0.2-1.6,0.4-1.9,0.5C76.2,31.7,75.7,31.5,75.6,31.3
		L75.6,31.3L75.6,31.3z"/>
	<path id="path3005" inkscape:connector-curvature="0" class="st1" d="M93.9,27.4c0-0.6,0.4-3.7,0.8-7l0.8-6l2.6-0.1
		c1.5-0.1,2.6,0,2.6,0.2c0,0.3,1.7,11.7,1.9,13.1c0.1,0.8,0.1,0.8-1.7,0.8h-1.8v-1.2c0-1.1-0.1-1.2-0.9-1.2c-0.8,0-0.9,0.1-0.9,0.8
		c0,1.5-0.3,1.7-2,1.7h-1.7L93.9,27.4z M98.9,20.9c-0.3-4-0.6-4.2-1-0.9c-0.5,3.7-0.5,3.5,0.4,3.5h0.8L98.9,20.9L98.9,20.9z"/>
	<path id="path3007" inkscape:connector-curvature="0" class="st1" d="M105.9,28.8l-1.1-0.1v-1.4c0-1,0.8-11.6,0.9-12.7
		c0-0.1,3,0.2,3.3,0.4c0.1,0.1-0.3,7.1-0.8,12.1c-0.1,1.7-0.3,2-0.7,2C107.3,28.9,106.5,28.8,105.9,28.8L105.9,28.8z"/>
	<path id="path3009" inkscape:connector-curvature="0" class="st1" d="M117,30.6c-0.5-0.1-1-0.3-1.1-0.5c-0.1-0.2-0.3-1.7-0.4-3.3
		c-0.1-1.7-0.3-3-0.4-3.1c-0.1-0.1-0.5,1.2-0.8,2.9c-0.3,1.7-0.6,3-0.8,3.1c-0.2,0.1-2.4-0.3-2.6-0.5c-0.1-0.1,1.2-6.9,2.3-12.3
		c0.3-1.6,0.3-1.6,1.3-1.4c1.9,0.4,1.9,0.3,2.1,2.6c0.5,5.3,0.7,5.4,1.5,1l0.6-2.8l1.2,0.3c0.7,0.1,1.3,0.3,1.4,0.4
		c0.1,0.1-0.5,3.2-1.2,6.9c-1,5.5-1.4,6.8-1.8,6.8C118.2,30.7,117.5,30.6,117,30.6L117,30.6L117,30.6z"/>
	<path id="path3011" inkscape:connector-curvature="0" class="st1" d="M124.3,32.4c-1.5-0.4-2.8-0.8-2.8-0.8
		c-0.1-0.1,0.6-2.6,1.4-5.6c0.8-3,1.7-6.1,1.8-6.8l0.3-1.2l2.8,0.8c1.5,0.4,2.8,0.8,2.9,0.8c0.1,0.1-0.1,0.6-0.3,1.3
		c-0.3,1.2-0.4,1.2-1.2,0.9c-1.2-0.4-1.7-0.1-2,1.2c-0.3,1.4-0.3,1.4,1,1.7c1,0.2,1,0.2,0.6,1.4c-0.3,1.2-0.5,1.3-2.1,0.7
		c-0.3-0.1-0.6,0.1-0.8,1c-0.6,2.3-0.6,2.3,0.6,2.6c0.6,0.2,1.1,0.4,1.2,0.5c0.1,0.3-0.3,2.4-0.6,2.4
		C127.1,33.2,125.8,32.8,124.3,32.4L124.3,32.4z"/>
	<path id="path3013" inkscape:connector-curvature="0" class="st1" d="M134.9,36.2l-1.4-0.7l2.7-6.3c1.5-3.5,2.8-6.4,2.8-6.4
		c0.1-0.1,1.4,0.3,2.8,1l2.8,1.1l-0.4,1c-0.6,1.4-0.5,1.4-1.8,0.8c-0.6-0.3-1.2-0.4-1.2-0.4c-0.1,0.1-1,2.4-1,2.6
		c0,0.1,0.5,0.4,1,0.6l1,0.3l-0.5,1.2c-0.5,1.2-0.5,1.2-1.5,0.8c-0.6-0.2-1-0.4-1.1-0.4c-0.1,0-0.6,1.2-1.2,2.7
		c-0.6,1.5-1.2,2.7-1.3,2.7C136.4,36.8,135.7,36.5,134.9,36.2L134.9,36.2L134.9,36.2z"/>
	<path id="path3015" inkscape:connector-curvature="0" class="st1" d="M147.7,42.8c-1.5-0.8-2.4-2.1-2.4-3.5c0-0.6,0.7-2.3,1.8-4.4
		c2.4-4.5,2.6-4.9,3.8-5.4c2.4-1.1,6.2,1.2,6.2,3.8c0,0.3-0.3,1.5-0.8,2.4l-0.8,1.7l-1.4-0.8c-0.8-0.4-1.5-0.8-1.5-0.9
		c-0.1-0.1,0.3-0.8,0.7-1.7c0.8-1.7,0.8-2.4-0.1-2.4c-0.4,0-1.1,1-2.8,4.1c-2.1,4-2.4,5.1-1.5,5.2c0.3,0.1,0.8-0.4,1.4-1.4l0.8-1.5
		l1.2,0.7c0.7,0.4,1.3,0.8,1.5,0.8c0.5,0.1-1.3,2.9-2.2,3.4C150.4,43.7,149.3,43.6,147.7,42.8L147.7,42.8L147.7,42.8z"/>
	<path id="path3017" inkscape:connector-curvature="0" class="st1" d="M140.7,38.8c-0.8-0.4-0.8-0.4-0.3-1.6l0.5-1.2l1.2,0.5
		l1.2,0.5l-0.6,1.2C141.9,39.4,141.8,39.4,140.7,38.8L140.7,38.8z"/>
	<path id="path3019" inkscape:connector-curvature="0" class="st1" d="M154.5,46.5c-1.2-0.8-1.2-0.8-0.6-1.9l0.6-1.1l1,0.6l1,0.6
		l-0.7,1.1c-0.3,0.6-0.7,1.1-0.7,1.1C155.4,47,155,46.8,154.5,46.5L154.5,46.5z"/>
	<path id="path3021" inkscape:connector-curvature="0" class="st1" d="M76.4,150.5c0-0.3,0.3-0.5,0.6-0.5c0.3,0,0.6,0.2,0.6,0.5
		S77.3,151,77,151C76.6,151,76.4,150.8,76.4,150.5z"/>
</g>
</svg>
