<?xml version="1.0" encoding="utf-8"?>
<!-- Generator: Adobe Illustrator 21.1.0, SVG Export Plug-In . SVG Version: 6.00 Build 0)  -->
<svg version="1.1" id="Layer_1" xmlns="http://www.w3.org/2000/svg" xmlns:xlink="http://www.w3.org/1999/xlink" x="0px" y="0px"
	 viewBox="0 0 200 200" style="enable-background:new 0 0 200 200;" xml:space="preserve">
<style type="text/css">
	.st0{fill:#FFFFFF;}
	.st1{fill:#195A22;}
	.st2{fill:#FE070A;}
	.st3{fill:#FC0008;}
</style>
<g>
	<path class="st0" d="M176.8,19.6l-0.6-2.3l-2.2-0.9C149.6,5.9,124.7,0.6,100,0.6h0h0c-24.7,0-49.6,5.3-73.9,15.7l-2.2,0.9l-0.6,2.3
		c-5.5,20.2-8.1,39.4-7.8,56.9c0.3,17.7,3.6,34.2,9.8,49.1c6.2,14.9,15.5,28.7,27.6,40.7c12,12,27.1,22.7,44.9,31.8l2.3,1.2l2.3-1.2
		c17.8-9.1,32.9-19.9,44.9-31.8c12.1-12.1,21.4-25.8,27.6-40.7c6.2-14.9,9.5-31.5,9.8-49.1C184.9,58.9,182.3,39.8,176.8,19.6z"/>
	<path d="M172,20.9c-23.9-10.2-48-15.3-72-15.3c-24,0-48.1,5.1-72,15.3C6.5,100.3,30.4,158,100,193.8
		C169.6,158,193.5,100.3,172,20.9z"/>
	<path class="st1" d="M139.6,158.8C129,169.4,115.7,179,100,187.3c-15.7-8.3-29-17.9-39.6-28.5c-7.7-7.7-14.1-16-19.2-24.9
		c7.7-4.5,28.3-14.5,58.8-14.5s51.1,10,58.8,14.5C153.7,142.8,147.3,151.1,139.6,158.8z"/>
	<path class="st0" d="M47.2,112.7H41c-3.1,0-4.5-0.4-5.9-1.6c-1.5-1.3-2.3-3.6-2.3-6.4c0-3.6,1.4-6.3,3.9-7.4c1-0.4,2.8-0.7,4.5-0.7
		h6v2.9h-5.6c-1.8,0-3,0.4-3.8,1.3c-0.6,0.7-0.9,1.9-0.9,3.6c0,2.4,0.6,4,1.6,4.7c0.7,0.5,1.8,0.7,3.2,0.7h5.4V112.7z"/>
	<path class="st0" d="M64.2,98.9c1.1,1.3,1.7,3.4,1.7,5.9c0,2.8-1,5.1-2.7,6.4c-1.3,1-3.4,1.5-5.8,1.5c-3.4,0-6.1-1-7.5-2.8
		c-1-1.3-1.5-3.1-1.5-5.2c0-3.1,0.9-5.4,2.7-6.7c1.4-1,3.6-1.6,6.1-1.6C60.3,96.5,62.8,97.3,64.2,98.9z M53.3,100.8
		c-0.6,0.8-0.8,2.1-0.8,3.8c0,3.8,1.4,5.5,4.6,5.5c3.1,0,4.6-1.7,4.6-5.4c0-3.8-1.4-5.5-4.6-5.5C55.4,99.2,54.1,99.8,53.3,100.8z"/>
	<path class="st0" d="M72.4,112.7h-3.8V96.6h8.7c2.7,0,4.3,0.3,5.3,0.9c1.3,0.8,2,2.1,2,3.6c0,2.5-1.1,4-3.4,4.7
		c2.1,0.5,3.1,2,3.2,4.5c0.1,1.5,0.2,1.8,0.4,2.4h-4.2c-0.1-0.4-0.2-0.5-0.2-0.9c-0.1-0.4-0.1-1.1-0.2-1.4c-0.3-2.9-1.5-3.8-4.8-3.8
		h-3V112.7z M77.7,103.7c1,0,1.5-0.1,1.9-0.4c0.5-0.3,0.8-1,0.8-1.8c0-1-0.5-1.6-1.3-1.9c-0.3-0.1-0.8-0.1-1.4-0.1h-5.3v4.3H77.7z"
		/>
	<path class="st0" d="M91.4,112.7h-3.8V96.6h3.8V112.7z M98.3,96.6h5l-7.4,7.9l7.1,8.2h-5l-6.4-8.2L98.3,96.6z"/>
	<path class="st0" d="M125.3,112.7h-6.2c-3.1,0-4.5-0.4-5.9-1.6c-1.5-1.3-2.3-3.6-2.3-6.4c0-3.6,1.4-6.3,3.9-7.4
		c1-0.4,2.8-0.7,4.5-0.7h6v2.9h-5.6c-1.8,0-3,0.4-3.8,1.3c-0.6,0.7-0.9,1.9-0.9,3.6c0,2.4,0.6,4,1.6,4.7c0.7,0.5,1.8,0.7,3.2,0.7
		h5.4V112.7z"/>
	<path class="st0" d="M128,96.6h3.8v16.1H128V96.6z"/>
	<path class="st0" d="M133.7,99.4v-2.9h15.3v2.9h-5.9v13.2h-3.8V99.4H133.7z"/>
	<path class="st0" d="M150,96.6h4.4l4.1,6.3l4.3-6.3h4.5l-6.9,9.2v6.9h-3.8v-7.1L150,96.6z"/>
	<rect x="74.4" y="149.3" class="st0" width="3.2" height="15"/>
	<path class="st0" d="M85.7,155.4c-0.3,0-0.6,0-0.8,0c-0.2,0-0.4-0.1-0.5-0.1c-0.1,0-0.3-0.1-0.4-0.2c-0.2-0.2-0.4-0.4-0.6-0.6
		c-0.1-0.3-0.2-0.6-0.2-0.9c0-0.3,0.1-0.6,0.2-0.9c0.1-0.3,0.3-0.5,0.5-0.6c0.1-0.1,0.3-0.2,0.5-0.2c0.2-0.1,0.4-0.1,0.7-0.1
		c0.3,0,0.6,0,1,0c0.6,0,1.1,0,1.6,0.1c0.4,0.1,0.8,0.2,1.1,0.4c0.3,0.2,0.5,0.4,0.7,0.7c0.2,0.2,0.3,0.5,0.4,0.7
		c0.1,0.3,0.2,0.5,0.2,0.8c0,0.3,0.1,0.7,0.1,1 M90.2,158.1c0,0.4,0,0.8-0.1,1.2c-0.1,0.4-0.2,0.7-0.4,1c-0.2,0.3-0.4,0.5-0.6,0.7
		c-0.2,0.2-0.5,0.3-0.8,0.4c-0.3,0.1-0.8,0.2-1.3,0.2c-0.5,0-1.1,0.1-1.9,0h-4.6v2.7h5.5c0.7,0,1.3,0,1.8-0.1c0.5,0,1-0.1,1.4-0.2
		c0.4-0.1,0.8-0.2,1.1-0.4c0.3-0.2,0.6-0.3,0.9-0.6c0.4-0.3,0.7-0.7,1-1.1c0.3-0.4,0.6-0.9,0.8-1.5c0.2-0.6,0.4-1.1,0.5-1.8
		c0.1-0.6,0.2-1.3,0.2-1.9c0-0.8-0.1-1.7-0.3-2.4c-0.2-0.8-0.4-1.5-0.7-2.1c-0.3-0.6-0.7-1.2-1.2-1.6c-0.4-0.4-0.8-0.7-1.3-0.9
		c-0.5-0.2-1.1-0.4-1.7-0.5c-0.7-0.1-1.4-0.2-2.3-0.2c-0.9,0-1.7,0.1-2.4,0.2c-0.7,0.1-1.2,0.3-1.7,0.6c-0.8,0.4-1.3,1-1.7,1.7
		c-0.4,0.7-0.6,1.4-0.6,2.3c0,0.7,0.1,1.3,0.3,1.9c0.2,0.6,0.6,1,1,1.4c0.2,0.2,0.4,0.3,0.6,0.4c0.2,0.1,0.5,0.2,0.8,0.3
		c0.3,0.1,0.7,0.1,1.1,0.1c0.4,0,0.9,0,1.5,0H90.2z"/>
	<path class="st0" d="M102.5,157.9c0.2,0,0.4,0,0.7,0c0.2,0,0.5,0,0.7,0c0.2,0,0.4,0,0.6,0c0.2,0,0.3,0,0.3,0c0.4,0.1,0.8,0.3,1,0.6
		c0.2,0.3,0.3,0.7,0.3,1.2c0,0.4-0.1,0.8-0.2,1c-0.1,0.3-0.4,0.5-0.6,0.6c-0.2,0.1-0.5,0.1-0.9,0.2c-0.5,0-1,0.1-1.8,0.1
		c-0.2,0-0.5,0-0.7,0c-0.3,0-0.5,0-0.7,0c-0.2,0-0.4,0-0.6,0c-0.2,0-0.3,0-0.3,0c-0.4-0.1-0.7-0.3-0.9-0.6c-0.2-0.3-0.3-0.7-0.3-1.2
		c0-0.4,0.1-0.8,0.2-1.1c0.2-0.3,0.4-0.5,0.7-0.6c0.2-0.1,0.5-0.1,0.9-0.2C101.3,158,101.8,157.9,102.5,157.9 M102.4,151.7
		c0.2,0,0.5,0,0.7,0c0.2,0,0.5,0,0.7,0c0.2,0,0.4,0,0.6,0c0.2,0,0.3,0,0.3,0c0.4,0.1,0.8,0.3,1,0.6c0.2,0.3,0.3,0.7,0.3,1.2
		c0,0.4-0.1,0.7-0.2,1c-0.1,0.3-0.4,0.5-0.7,0.6c-0.2,0.1-0.5,0.1-0.9,0.2c-0.5,0-1,0.1-1.8,0.1c-0.2,0-0.5,0-0.8,0
		c-0.3,0-0.5,0-0.7,0c-0.2,0-0.4,0-0.6,0c-0.2,0-0.3,0-0.3,0c-0.4-0.1-0.7-0.3-0.9-0.6c-0.2-0.3-0.3-0.7-0.3-1.2
		c0-0.5,0.1-0.8,0.2-1.1c0.2-0.3,0.4-0.5,0.8-0.6c0.2-0.1,0.5-0.1,0.9-0.2C101.2,151.7,101.8,151.7,102.4,151.7z M97.6,156.8
		c-0.3,0.2-0.5,0.3-0.7,0.4c-0.2,0.1-0.3,0.2-0.5,0.4c-0.1,0.1-0.2,0.2-0.4,0.4c-0.2,0.2-0.3,0.4-0.4,0.7c-0.1,0.3-0.2,0.5-0.3,0.8
		c-0.1,0.3-0.1,0.6-0.1,0.8c0,0.5,0.1,1,0.3,1.5c0.2,0.5,0.5,0.9,0.9,1.3c0.3,0.3,0.5,0.5,0.9,0.6c0.3,0.2,0.7,0.3,1.1,0.4
		c0.4,0.1,0.9,0.1,1.4,0.2c0.2,0,0.4,0,0.6,0c0.3,0,0.5,0,0.8,0c0.3,0,0.6,0,0.8,0c0.3,0,0.5,0,0.7,0c0.8,0,1.4,0,2-0.1
		c0.6,0,1.1-0.1,1.5-0.2c0.4-0.1,0.8-0.2,1-0.3c0.3-0.1,0.5-0.3,0.7-0.5c0.3-0.3,0.5-0.6,0.7-0.9c0.2-0.3,0.4-0.7,0.5-1.1
		c0.1-0.4,0.2-0.7,0.2-1.1c0-0.3,0-0.6-0.1-0.9c-0.1-0.3-0.2-0.6-0.3-0.8c-0.1-0.3-0.3-0.5-0.4-0.7c-0.1-0.1-0.2-0.3-0.3-0.4
		c-0.1-0.1-0.3-0.2-0.5-0.3c-0.2-0.1-0.4-0.2-0.7-0.4c0.8-0.3,1.4-0.8,1.7-1.4c0.4-0.6,0.6-1.3,0.6-2.1c0-0.6-0.1-1.1-0.3-1.6
		c-0.2-0.5-0.4-0.9-0.8-1.3c-0.3-0.4-0.7-0.7-1.2-0.9c-0.2-0.1-0.4-0.1-0.5-0.2c-0.2-0.1-0.4-0.1-0.7-0.1c-0.3,0-0.6-0.1-0.9-0.1
		c-0.4,0-0.8,0-1.3,0s-1.1,0-1.8,0c-0.6,0-1.1,0-1.6,0c-0.4,0-0.8,0-1.1,0.1c-0.3,0-0.6,0.1-0.8,0.1c-0.2,0-0.4,0.1-0.6,0.2
		c-0.8,0.3-1.5,0.7-1.9,1.3c-0.4,0.6-0.6,1.4-0.6,2.3c0,0.6,0.1,1,0.2,1.5c0.1,0.4,0.4,0.8,0.7,1.2
		C96.6,156.1,97.1,156.4,97.6,156.8z"/>
	<path class="st0" d="M114.6,159l5.9-6.4v6.4 M111,161.7h9.5v2.6h3.2v-2.6h2V159h-2v-9.8h-4.2l-8.5,9.2V161.7z"/>
	<path class="st0" d="M47.4,139.5c-0.8-1.5-1.1-2.7-1-3.6c0.1-0.9,1-1.8,2.7-2.6l2.5-1.4l0.7,1.3l-2.7,1.4c-0.7,0.4-1.1,0.8-1.3,1.3
		c-0.2,0.5-0.1,1,0.2,1.7l4.8-2.5l0.7,1.3l-4.8,2.5l1.7,3.2l-1.7,0.9"/>
	<path class="st0" d="M54.4,133.3c0-0.7,0.1-1.3,0.3-1.8c0.2-0.5,0.6-1,1.2-1.4c0.2-0.1,0.4-0.3,0.7-0.4c0.2-0.1,0.5-0.2,0.7-0.3
		c0.3-0.1,0.5-0.2,0.8-0.3c0.3-0.1,0.6-0.1,0.8-0.2c0.7-0.1,1.3,0,1.8,0.2c0.5,0.2,1,0.6,1.5,1.1c0.2,0.2,0.4,0.5,0.5,0.8
		c0.2,0.3,0.3,0.6,0.4,0.9c0.1,0.3,0.2,0.6,0.3,1c0.1,0.3,0.1,0.6,0.2,1c0.1,0.7,0,1.3-0.3,1.8c-0.3,0.5-0.7,1-1.2,1.4
		c-0.2,0.2-0.5,0.3-0.7,0.4c-0.3,0.1-0.5,0.3-0.8,0.4c-0.2,0.1-0.5,0.2-0.7,0.2c-0.3,0.1-0.5,0.1-0.8,0.2c-0.7,0.1-1.3,0.1-1.8-0.2
		c-0.6-0.2-1-0.6-1.5-1.1c-0.2-0.2-0.4-0.5-0.5-0.8c-0.2-0.3-0.3-0.6-0.4-0.9c-0.1-0.3-0.2-0.6-0.3-1
		C54.4,134,54.4,133.6,54.4,133.3 M56.4,133.2c0,0.2,0.1,0.4,0.1,0.7c0.1,0.2,0.1,0.4,0.2,0.6c0.1,0.2,0.2,0.4,0.3,0.6
		c0.1,0.2,0.2,0.4,0.4,0.6c0.2,0.3,0.5,0.6,0.8,0.7c0.3,0.2,0.7,0.3,1.1,0.2c0.1,0,0.3,0,0.5-0.1c0.2,0,0.3-0.1,0.5-0.1
		c0.1-0.1,0.3-0.1,0.4-0.2c0.1-0.1,0.3-0.2,0.4-0.3c0.3-0.3,0.5-0.6,0.6-0.9c0.1-0.3,0.1-0.7,0.1-1.1c0-0.2-0.1-0.4-0.1-0.6
		c-0.1-0.2-0.1-0.4-0.2-0.6c-0.1-0.2-0.2-0.4-0.3-0.6c-0.1-0.2-0.2-0.4-0.4-0.6c-0.2-0.3-0.5-0.6-0.8-0.7c-0.3-0.2-0.7-0.3-1.1-0.2
		c-0.1,0-0.3,0-0.5,0.1c-0.2,0-0.3,0.1-0.5,0.1c-0.1,0.1-0.3,0.1-0.4,0.2c-0.1,0.1-0.3,0.2-0.4,0.3c-0.3,0.3-0.5,0.6-0.6,0.9
		C56.4,132.5,56.3,132.8,56.4,133.2L56.4,133.2z"/>
	<path class="st0" d="M64.1,129.8c0.1-0.7,0.2-1.3,0.5-1.7c0.3-0.5,0.8-0.9,1.4-1.2c0.2-0.1,0.5-0.2,0.7-0.3
		c0.3-0.1,0.5-0.2,0.8-0.2c0.3-0.1,0.6-0.1,0.8-0.2c0.3,0,0.6-0.1,0.8,0c0.7,0,1.3,0.1,1.8,0.4c0.5,0.3,0.9,0.7,1.3,1.3
		c0.2,0.3,0.3,0.5,0.4,0.8c0.1,0.3,0.2,0.6,0.3,0.9c0.1,0.3,0.1,0.7,0.2,1c0,0.3,0.1,0.7,0,1c0,0.7-0.2,1.3-0.5,1.8
		c-0.3,0.5-0.8,0.9-1.4,1.2c-0.2,0.1-0.5,0.2-0.8,0.3c-0.3,0.1-0.5,0.2-0.8,0.2c-0.2,0.1-0.5,0.1-0.8,0.1c-0.3,0-0.5,0-0.8,0.1
		c-0.7,0-1.3-0.1-1.8-0.4c-0.5-0.3-1-0.7-1.3-1.3c-0.1-0.3-0.3-0.5-0.4-0.8c-0.1-0.3-0.2-0.6-0.3-1c-0.1-0.3-0.1-0.7-0.2-1
		C64.1,130.4,64.1,130.1,64.1,129.8 M66.1,129.9c0,0.2,0,0.5,0,0.7c0,0.2,0.1,0.4,0.1,0.7c0.1,0.2,0.1,0.4,0.2,0.6
		c0.1,0.2,0.2,0.4,0.3,0.6c0.2,0.3,0.4,0.6,0.7,0.8c0.3,0.2,0.6,0.3,1,0.4c0.1,0,0.3,0,0.5,0c0.2,0,0.3,0,0.5-0.1
		c0.2,0,0.3-0.1,0.5-0.2c0.1-0.1,0.3-0.1,0.4-0.2c0.3-0.2,0.6-0.5,0.7-0.8c0.1-0.3,0.2-0.7,0.2-1.1c0-0.2,0-0.4,0-0.7
		c0-0.2-0.1-0.4-0.1-0.7c-0.1-0.2-0.1-0.4-0.2-0.6c-0.1-0.2-0.2-0.4-0.3-0.6c-0.2-0.3-0.4-0.6-0.7-0.8c-0.3-0.2-0.6-0.3-1-0.4
		c-0.1,0-0.3,0-0.5,0c-0.2,0-0.3,0-0.5,0.1c-0.2,0-0.3,0.1-0.5,0.1c-0.1,0.1-0.3,0.1-0.4,0.2c-0.3,0.2-0.6,0.5-0.7,0.8
		C66.2,129.2,66.2,129.5,66.1,129.9L66.1,129.9z"/>
	<polyline class="st0" points="76.2,126 73.3,126.5 73.1,125 80.7,123.8 81,125.3 78.1,125.7 79.2,132.8 77.3,133.1 	"/>
	<path class="st0" d="M84.2,124.9l0.2,2l2.7-0.2c0.4,0,0.6-0.1,0.9-0.3c0.2-0.2,0.3-0.4,0.3-0.8c0-0.4-0.2-0.6-0.4-0.8
		c-0.3-0.1-0.6-0.2-0.9-0.1 M87.5,130.2c0.4,0,0.7-0.1,0.9-0.3c0.2-0.2,0.3-0.4,0.3-0.8c0-0.4-0.2-0.7-0.4-0.8
		c-0.2-0.1-0.5-0.2-0.9-0.1l-2.8,0.2l0.2,2L87.5,130.2z M87.9,131.7l-4.9,0.4l-0.8-8.7l4.6-0.4c0.1,0,0.2,0,0.2,0c0.1,0,0.1,0,0.2,0
		c0.6,0,1.2,0,1.8,0.2c0.6,0.2,0.9,0.6,1.2,1.2c0.2,0.6,0.2,1.1,0,1.6c-0.2,0.4-0.5,0.8-1,1.2c0.6,0.2,1,0.5,1.3,1
		c0.2,0.4,0.3,1,0.2,1.6c-0.1,0.7-0.4,1.1-0.9,1.4c-0.5,0.3-1.1,0.4-1.7,0.5c0,0-0.1,0-0.1,0C87.9,131.7,87.9,131.7,87.9,131.7z"/>
	<path class="st0" d="M95.6,124.3l-1.2,3.4l2.7-0.1 M94.6,122.5l2-0.1l4.1,8.6l-2.1,0.1l-0.9-2l-3.9,0.1l-0.7,2.1l-2,0.1L94.6,122.5
		z"/>
	<path class="st0" d="M104.9,131.2c-0.6,0-1.1-0.1-1.6-0.2c-0.5-0.1-0.9-0.4-1.4-0.8c-0.4-0.4-0.6-0.8-0.7-1.2
		c-0.1-0.5-0.1-0.9-0.1-1.4l0.1-5.2l1.9,0l-0.1,4.8c0,0.8,0.1,1.4,0.2,1.9c0.2,0.4,0.8,0.7,1.8,0.7l2.2,0l0,1.4"/>
	<path class="st0" d="M111.9,131.7c-0.6,0-1.1-0.1-1.6-0.2c-0.5-0.1-0.9-0.4-1.3-0.9c-0.3-0.4-0.5-0.8-0.6-1.3
		c-0.1-0.5-0.1-0.9,0-1.4l0.4-5.2l1.9,0.1l-0.3,4.8c-0.1,0.8,0,1.4,0.1,1.9c0.2,0.4,0.7,0.7,1.7,0.8l2.2,0.1l-0.1,1.4"/>
	<path class="st0" d="M124.9,126.3c-0.9-0.2-1.5,0-1.9,0.5c-0.4,0.5-0.6,1.1-0.8,1.9c0,0.1,0,0.3-0.1,0.4c0,0.1,0,0.3-0.1,0.4
		c0,0.3,0,0.6,0,0.8c0,0.3,0.1,0.5,0.3,0.8c0.2,0.3,0.4,0.4,0.6,0.5c0.2,0.1,0.5,0.2,0.8,0.2c0,0,0,0,0.1,0c0,0,0,0,0.1,0l3,0.6
		l-0.3,1.5l-3.1-0.6c-0.5-0.1-1-0.2-1.4-0.4c-0.4-0.2-0.8-0.5-1.2-0.9c-0.4-0.5-0.7-1-0.8-1.6c-0.1-0.6-0.1-1.2,0-1.8
		c0-0.1,0-0.3,0.1-0.4c0-0.1,0.1-0.2,0.1-0.4c0.4-1.3,0.9-2.3,1.7-2.8c0.8-0.5,1.8-0.6,3.2-0.4l3.1,0.6l-0.3,1.5"/>
	<path class="st0" d="M131.4,135.2c-0.5-0.1-1-0.3-1.5-0.5c-0.5-0.2-0.8-0.6-1.1-1.1c-0.3-0.4-0.4-0.9-0.3-1.4
		c0-0.5,0.1-0.9,0.2-1.4l1.3-5l1.8,0.5l-1.2,4.6c-0.2,0.8-0.3,1.4-0.2,1.9c0.1,0.5,0.6,0.8,1.5,1.1l2.1,0.6l-0.4,1.4"/>
	<path class="st0" d="M139.2,128.4l-1.7,4.9c-0.2,0.7-0.3,1.3-0.2,1.7c0.1,0.4,0.6,0.8,1.4,1c0.8,0.3,1.3,0.3,1.7,0
		c0.4-0.3,0.7-0.7,0.9-1.4l1.7-5l1.8,0.6l-1.7,5c0,0.1-0.1,0.2-0.1,0.3c0,0.1-0.1,0.2-0.1,0.3c-0.1,0.3-0.2,0.6-0.4,0.8
		c-0.2,0.3-0.4,0.5-0.6,0.7c-0.4,0.3-0.8,0.4-1.2,0.4c-0.5,0-0.9,0-1.3-0.1c-0.2,0-0.3-0.1-0.5-0.1c-0.2,0-0.3-0.1-0.5-0.2
		c-0.1-0.1-0.3-0.1-0.5-0.2c-0.2-0.1-0.3-0.1-0.5-0.2c-0.4-0.2-0.8-0.4-1.1-0.7c-0.3-0.3-0.6-0.7-0.7-1.1c-0.1-0.3-0.1-0.6-0.1-0.9
		c0-0.3,0.1-0.6,0.2-0.9c0-0.1,0.1-0.2,0.1-0.3c0-0.1,0.1-0.2,0.1-0.3l1.7-5"/>
	<path class="st0" d="M148.6,133.9l-0.9,1.8l2.5,1.3c0.3,0.2,0.6,0.2,0.9,0.2c0.3,0,0.5-0.2,0.7-0.6c0.2-0.3,0.2-0.6,0-0.9
		c-0.1-0.2-0.4-0.4-0.7-0.6 M148.5,140.2c0.3,0.2,0.6,0.3,0.9,0.2c0.3,0,0.5-0.2,0.7-0.6c0.2-0.4,0.2-0.6,0.1-0.9
		c-0.1-0.2-0.4-0.4-0.7-0.6l-2.5-1.3l-0.9,1.8L148.5,140.2z M148.1,141.7l-4.4-2.2l4-7.8l4.1,2.1c0.1,0,0.1,0.1,0.2,0.1
		c0.1,0,0.1,0.1,0.2,0.1c0.5,0.3,1,0.7,1.4,1.1c0.4,0.4,0.5,1,0.3,1.7c-0.2,0.6-0.4,1.1-0.8,1.3c-0.4,0.3-0.9,0.4-1.5,0.5
		c0.4,0.5,0.6,1,0.6,1.5c0,0.5-0.2,1-0.7,1.5c-0.4,0.5-0.9,0.8-1.5,0.7c-0.6,0-1.1-0.2-1.7-0.5C148.2,141.8,148.2,141.8,148.1,141.7
		C148.1,141.7,148.1,141.7,148.1,141.7z"/>
	<path class="st2" d="M98.4,59C98.4,59,98.4,59,98.4,59c-1,0.2-1.9,0.3-2.7,0.4c-6.1,0.9-11.7,2.5-16.3,4.8
		c5.9-1.7,12.5-2.6,19.3-3.3c0-0.3-0.1-1.1-0.1-1.5C98.6,59.2,98.6,59,98.4,59z"/>
	<path class="st2" d="M96.4,30.3c-2.3,0.2-4.4,0.6-6.5,1.2c-1.5,0.4-2.9,0.8-4.2,1.3c-0.4,0.2-0.9,0.3-1.2,0.6
		c3.8-0.9,7.8-1.5,12-1.9C96.5,31.2,96.5,30.6,96.4,30.3z"/>
	<path class="st2" d="M114.1,43.9c-4.3-1-9.8-1.4-15.1-1c0,0.5,0.2,1,0.2,1.5C103.9,44,109.1,43.8,114.1,43.9z"/>
	<path class="st2" d="M109.8,31c-3.6-0.8-8.2-1.1-12.5-0.7c0.1,0.4,0.1,0.8,0.2,1.2C101.4,31.1,105.6,30.9,109.8,31z"/>
	<path class="st2" d="M97.5,44.6c0-0.5-0.1-1-0.1-1.6c-5.7,0.6-10.8,1.9-15.1,3.9c0,0-0.1,0,0,0C87,45.8,92.1,45.1,97.5,44.6z"/>
	<path class="st2" d="M167.2,25.1C145,16,122.4,11.3,100,11.3c-22.4,0-45,4.7-67.2,13.8c-4.7,18.3-7,35.5-6.7,51.2
		c0.1,4,0.3,7.9,0.7,11.8h11.8c-0.3-0.2-0.6-0.4-0.8-0.7c0-0.1,0-0.3,0-0.4c0.4-4,0.7-8,1.1-12c0.4-0.2,0.8-0.5,1.3-0.9
		c0.3-0.2,1.1-0.7,1.3-1c0.1-0.2,0.1-0.6,0.1-0.9c1.4-9.6,3-19.6,4.4-29c-0.6-0.6-1.3-0.9-1.8-1.5c0.2-1.3,0.3-3,0.4-4.3
		c0.1-0.5,0-1.1,0.2-1.4c0.2-0.6,1.6-0.8,2.2-1c-0.1,0.9-0.1,1.7-0.2,2.6c0.7-0.2,1.4-0.3,2.1-0.4c0.1-0.9,0.1-1.8,0.3-2.6
		c0.9-0.1,1.9-0.2,2.8-0.2c-0.1,0.9-0.1,1.7-0.2,2.6c0.6,0,1.2-0.1,1.9-0.1c0.1-0.8,0.1-1.8,0.3-2.6c0.4,0,0.8,0,1.2,0l0.6-6.7
		l-10-1.3l10.5-2l-0.1,2l0,0l-0.7,8c0.4,0,0.9,0,1.3,0c-0.1,0.9-0.1,1.7-0.2,2.6c0.6,0.1,1.4,0.1,2,0.1c0.1-0.8,0.1-1.8,0.3-2.6
		c0.9,0,1.8,0.2,2.7,0.3c-0.1,0.9-0.1,1.8-0.2,2.6c0.6,0.1,1.2,0.2,1.8,0.4c0.2-0.8,0.2-1.7,0.3-2.6c0.5,0.2,1.8,0.3,2,1
		c0,0.1,0,0.2,0,0.3c0,0.3-0.1,0.8-0.1,1.2c-0.1,1-0.2,1.9-0.3,3c0,0.4,0,1.1-0.1,1.4c-0.1,0.3-0.8,0.6-1.1,0.8
		c-0.4,0.3-0.8,0.5-1.1,0.7C62.2,53.1,62,63.1,61.8,73c0.5,0.5,1.1,0.9,1.7,1.4c0.2,0.1,0.5,0.3,0.6,0.5c0.1,0.3-0.1,1.2-0.2,1.5
		c-0.3,3.3-0.5,6.1-0.8,9.3c0,0.5,0,1.1-0.2,1.5c-0.1,0.3-0.5,0.6-1,0.7h30.7c-0.1-0.1-0.3-0.1-0.4-0.2c-0.2-0.1-0.5-0.4-0.7-0.6
		c-0.5-0.4-0.9-0.7-1.4-1.2c-0.2-0.2-0.6-0.6-0.6-0.7c0-0.2,0.6-0.8,0.7-1c1.6-2.2,3.5-4.4,5.3-6.3c-4.2,0.8-8.4,1.9-11.8,3.7
		c-0.2,0.1-0.5,0.2-0.7,0.4c-0.4,0.2-0.7,0.4-0.8,0.9c-1.5-2.5-2.5-5.3-3.4-8.3c-0.9-3-1.7-6.2-2.1-9.6c0.7-0.4,1.6-0.6,2.4-0.9
		c-0.5-6.1,0.4-12.2,1.8-16.9c0.4-0.1,0.7-0.2,1-0.3c-0.3-4.9,0.3-9.6,1.4-13.3c0.3-0.1,0.6-0.2,0.8-0.2c-0.2-3.9,0.3-7.6,1.2-10.6
		c3.2-0.8,6.7-1.3,10.4-1.7c-0.1-0.8-0.1-1.6-0.2-2.4c-3.9-0.3-7.8-0.5-11.8-0.7c3.8-1,7.7-1.8,11.5-2.8c0,0,0,0,0,0
		c0.2,2,0.4,3.9,0.7,5.8c3.4-0.3,7.2-0.6,11-0.4c0.3,0,0.8,0,1.2,0c0.1,0,0.3,0.1,0.3,0.1c0,0-0.1,0.1-0.1,0.1c0,0.1,0,0.1,0,0.1
		c0.1,0.4,0.3,0.8,0.5,1.1c1.1,2.6,2,5.6,2.4,9c0.3,0,0.6-0.1,0.9,0c0.1,0.1,0.1,0.2,0.1,0.3c0.8,1.7,1.6,3.7,2.2,5.6
		c0.7,2.2,1.2,4.5,1.4,6.9c0.3,0.1,0.8-0.1,1.1,0c0.2,0.1,0.4,0.6,0.5,0.9c1,2.1,1.8,4.4,2.5,6.7c0.8,2.8,1.5,5.7,1.7,8.8
		c0.8,0.2,1.8,0.1,2.5,0.3c0.4,6.8-0.6,13.4-2.3,18.6c-3.7-1.6-8.5-2.2-13.7-2.4c2.8,2.1,5.6,4.5,8.1,7c-0.9,1.4-1.9,2.7-2.9,4H138
		c-0.5-0.2-0.8-0.4-1-0.7c-0.1-0.4-0.1-1-0.2-1.5c-0.3-3.2-0.5-6.1-0.8-9.3c0-0.3-0.2-1.3-0.2-1.5c0-0.2,0.4-0.3,0.6-0.5
		c0.6-0.5,1.2-1,1.7-1.4c-0.2-9.9-0.4-19.9-0.6-29.8c-0.3-0.2-0.6-0.4-1.1-0.7c-0.2-0.2-0.9-0.5-1.1-0.8c-0.2-0.4-0.1-1-0.1-1.4
		c-0.1-1-0.2-1.9-0.3-3c0-0.3-0.1-0.8-0.1-1.2c0-0.1,0-0.2,0-0.3c0.2-0.6,1.5-0.7,2-1c0.1,0.9,0.1,1.8,0.3,2.6
		c0.6-0.1,1.2-0.3,1.8-0.4c-0.1-0.9-0.2-1.7-0.2-2.6c0.9-0.1,1.8-0.2,2.7-0.3c0.1,0.8,0.1,1.8,0.3,2.6c0.6-0.1,1.4,0,2-0.1
		c-0.1-0.9-0.2-1.7-0.2-2.6c0.4,0,0.9,0,1.3,0l-0.3-6.5l-10.1-0.4l10.3-2.9l0.1,3.2l0.3,6.6c0.4,0,0.8,0,1.2,0
		c0.1,0.8,0.1,1.8,0.3,2.6c0.6,0,1.2,0.1,1.9,0.1c-0.1-0.8-0.2-1.7-0.2-2.6c0.9,0,1.9,0.2,2.8,0.2c0.1,0.8,0.2,1.8,0.3,2.6
		c0.7,0.1,1.4,0.2,2.1,0.4c-0.1-0.9-0.2-1.7-0.2-2.6c0.5,0.2,2,0.4,2.2,1c0.1,0.4,0.1,0.9,0.2,1.4c0.1,1.3,0.2,3.1,0.4,4.3
		c-0.5,0.6-1.3,1-1.8,1.5c1.4,9.5,3,19.4,4.4,29c0.1,0.3,0,0.7,0.1,0.9c0.1,0.3,1,0.8,1.3,1c0.5,0.3,0.9,0.7,1.3,0.9
		c0.3,4,0.7,8,1.1,12c0,0.1,0,0.3,0,0.4c-0.2,0.3-0.5,0.5-0.8,0.7h11.8c0.4-3.9,0.6-7.8,0.7-11.8C174.2,60.5,171.9,43.3,167.2,25.1z
		"/>
	<path class="st2" d="M120.6,60.3c-5.5-1.4-12.5-2-19.4-1.6c0.1,0.6,0.2,1.3,0.3,1.9C107.5,60.2,114.4,59.9,120.6,60.3z"/>
	<path class="st3" d="M146.6,49.6c-1.3,0.1-2.5,0.2-3.5,0.3c0,0,0,0,0,0l0.3,6.1c1.1-0.1,2.2-0.3,3.5-0.3L146.6,49.6z"/>
	<path class="st3" d="M147.3,65.1c-0.6,0-1.2,0-1.7,0c-0.6,0-1.2,0-1.7,0l0.5,6c0,0,0,0,0,0c0.6,0,1.1,0,1.7,0c0.6,0,1.2,0,1.7,0
		L147.3,65.1z"/>
	<path class="st3" d="M53.4,49.6c1.3,0.1,2.5,0.2,3.5,0.3c0,0,0,0,0,0l-0.3,6.1c-1.1-0.1-2.2-0.3-3.5-0.3L53.4,49.6z"/>
	<path class="st3" d="M52.7,65.1c0.6,0,1.2,0,1.7,0c0.6,0,1.2,0,1.7,0l-0.5,6c0,0,0,0,0,0c-0.6,0-1.1,0-1.7,0c-0.6,0-1.2,0-1.7,0
		L52.7,65.1z"/>
</g>
</svg>
