<?xml version="1.0" encoding="utf-8"?>
<!-- Generator: Adobe Illustrator 21.1.0, SVG Export Plug-In . SVG Version: 6.00 Build 0)  -->
<svg version="1.1" id="Layer_1" xmlns="http://www.w3.org/2000/svg" xmlns:xlink="http://www.w3.org/1999/xlink" x="0px" y="0px"
	 viewBox="0 0 200 200" style="enable-background:new 0 0 200 200;" xml:space="preserve">
<style type="text/css">
	.st0{fill:#E1001F;}
	.st1{fill:#FFFFFF;}
</style>
<g>
	<path d="M35.9,32.1l8.2,16.4C35.3,60.1,30,74.5,30,90.1c0,12.4,3.3,24.1,9.2,34.2l-2,1.1l-10.4-17.7L18.2,123L0,123l11.9,21.4
		l5.4-3c21.6,31.8,52.4,43.6,83.5,43.7c30.9,0.1,62.2-13.3,81.9-43.7l5.4,3L200,123l-18.2,0l-8.5-15.3l-10.3,17.6l-1.6-0.9
		c5.9-10.1,9.2-21.8,9.2-34.2c0-22.9-11.3-43.2-28.8-55.8l2.1-3.8l-21.7-15.7l-29.6,5.4l0,1.2c-15.4,1.7-29.3,8.2-40.1,18.1
		l-6.2-12.3l-9.4-6L35.9,32.1L35.9,32.1z"/>
	<path class="st0" d="M73.8,81.4l27.9-7.3c-2.1-4.5-5.9-10-9.8-10.1l-5-0.1c-2.3,0,0.2-2.5,0.5-3.6l0-8.2L85.4,49
		c-0.8-1.2-0.8-2.5,0.7-3.8l7.5-6.5c-0.6-2-0.5-3.2-0.6-4.9L92.6,24c-15,1.7-28.5,8.2-38.9,17.9L73.8,81.4L73.8,81.4z"/>
	<path class="st1" d="M134.2,145.4c0.5-0.3,1-0.6,1.6-0.9l-2-3.6l1.5-4.3l2.2-2.1l-14.3-40.1l-2.6,1.6l12.6,40l-1.1,4.3L134.2,145.4
		L134.2,145.4z"/>
	<path class="st1" d="M137.3,143.6c0.6-0.4,1.2-0.7,1.7-1.1l-2.8-4l-0.8,2.1L137.3,143.6L137.3,143.6L137.3,143.6z"/>
	<path class="st0" d="M149.8,133.8c3.1-3,6-6.3,8.8-9.9c5.9-9.9,9.3-21.4,9.3-33.7c0-22-10.8-41.4-27.5-53.6l-4.7,8.5
		c-0.1,2.8,0.4,5.2-0.6,7.9c-1.3,3.5-4.3,6.2-6.4,9.3c-3.3,4.8,0.1,11,2.9,12.6c6.5,3.9,12.5,14.5,18,23.2L149.8,133.8L149.8,133.8z
		"/>
	<path class="st0" d="M42.3,124.5c4.7,6,9.7,11,14.9,15L44.1,89.2l18.1-4.7L45.4,51.1c-8.1,11-12.9,24.5-12.9,39
		C32.6,102.7,36.1,114.5,42.3,124.5L42.3,124.5z"/>
	<path class="st1" d="M84.7,125.3l7.8,28.2c-2.2-0.2-4.4-0.5-6.6-1l-5.4-20.7l-21.3,5.5l-6.2-23.7l21.2-5.5l-5.9-22.6L90,79.9
		l5.9,22.6l21.2-5.5l6.2,23.7l-21.2,5.5l7.1,27.2c-1.6,0.2-3.2,0.3-4.8,0.4l-8.7-31.8l-6-0.2L84.7,125.3L84.7,125.3z"/>
	<path class="st1" d="M88.6,126.8l7.5,27c1.8,0.1,3.4,0.3,5,0.3l-7.9-28.5l-2.4-0.2L88.6,126.8L88.6,126.8z"/>
	<polygon points="71.7,117.3 73.9,125.1 74.1,126 89,119.2 89.6,119.2 105.4,117.4 102.9,108.6 87.8,115 71.7,117.3 	"/>
	<polygon points="90.6,111 85.5,92.1 84.9,89.8 77.6,91.7 77.8,92.5 83.5,113.1 87.2,112.7 90.6,111 	"/>
	<polygon class="st1" points="64.7,83.8 71.3,82.1 44.2,29 39,25.6 38.5,31.6 64.7,83.8 	"/>
	<path class="st1" d="M126.2,28.6c-0.6-0.2-0.8-1.6-1.4-2c-0.9-0.5-2.1-0.3-3-0.6l-0.3,1.3l4.1,2.2L126.2,28.6L126.2,28.6z"/>
	<path class="st1" d="M118.9,25.5c-0.6-0.2-1.1-1-1.8-1.2c-0.9-0.3-2,0-2.8-0.1l-0.3,1l4.6,1.3L118.9,25.5L118.9,25.5z"/>
	<path class="st1" d="M104.8,23.7c-1.5-0.1-3-0.2-4.6-0.2c-1.4,0-2.8,0-4.2,0.1l0,6.3c1.5,2.4,3.1,3.7,4.9,4c1-0.1,2.3,0,3.2-0.6
		l0.9-4l1.6-3.2L104.8,23.7L104.8,23.7z"/>
	<path class="st1" d="M149.7,137.3c3.5-3.2,6.8-6.8,10-10.6l0.2-0.2l21.6,12.3c-17.9,28.5-48.2,43.9-80.6,43.9
		c-33.4,0-63.6-15-82.3-43.9l22-12.2l0.3,0.3c7.6,9.4,16.1,17.1,27,22.4c10.5,5.1,21.3,7.2,32.9,7.2c9.7,0,18.9-1.8,27.5-5.3
		C136.2,147.9,143.4,143.1,149.7,137.3L149.7,137.3z"/>
	<polygon class="st1" points="139.8,120.7 139.8,120.7 139.8,120.7 139.8,120.7 135.8,125.6 138.9,134.1 142.6,134.6 141.3,129.3 
		140.5,127.9 140,124.2 143.6,118 141,108.1 137.4,106.1 132.9,89.5 128.9,90.3 139.1,118.6 139.8,120.7 	"/>
	<polygon class="st1" points="134.7,122.5 137.6,118.9 126.9,88.9 128.1,87.8 128.1,87.9 128.9,86.3 127.8,83.3 124.3,83.3 
		120.3,86.2 120.9,88.1 122.8,88.8 134.7,122.5 	"/>
	<path class="st1" d="M140.1,31.2l-6.2-4.3l-1,2.1c2.2,1.1,4.3,2.4,6.3,3.7L140.1,31.2L140.1,31.2z"/>
	<path class="st1" d="M132.2,25.9l-1,2.1c-0.3-0.2-0.7-0.3-1-0.5l-3-3.1l0.8-1.4L132.2,25.9L132.2,25.9z"/>
	<path class="st1" d="M113.4,19.5c-0.2,0.6-0.3,1.2-0.5,1.8c1.8,0.3,3.6,0.3,5.3,0.8c0.9,0.3,1.7,1.1,2.5,1.7h4.3l0.7-2.4l-3.5-2.4
		L113.4,19.5L113.4,19.5z"/>
	<path class="st1" d="M133.3,34.4l-4.1,10.9c1.2,0.6,2.2,0.9,3.5,0.7l4.5-7.7C136.5,36.3,134.8,35,133.3,34.4L133.3,34.4z"/>
	<polygon class="st1" points="131.1,33.4 126.5,44.5 121.2,41.1 127.7,31.4 131.1,33.4 	"/>
	<path class="st1" d="M110.9,25.5l-3,8.8c4.5,1.3,7.3,2.8,11.2,5l5.9-8.8C120.9,27.8,114.8,26.3,110.9,25.5L110.9,25.5z"/>
	<path class="st1" d="M95.3,35.5l0.3,1.5c0.3,0.7,0.4,1.3,0.6,2c0.3,1,0.3,1.6-0.2,2.1l-5.9,5.1c-1,0.9-1.6,1-0.1,3.5l1.3,2.1
		c0,1.6,0,3.2,0,4.8c0,3.1,0,4.1,4.7,4c3.1,0,6.1-0.1,9.2-0.1c1.8,0.1,2.8-0.5,3-0.8c0.7-0.9,0.9-1.9,1.6-2.8
		c0.8-1.1,3.6-1.5,4.4-2.6c1-1.4,0.4-3.2,1-4.7c0.7-2,5.1-0.5,4-5.6c-3.3-2.8-8.6-5.4-13.8-7.1c-2.6-0.2-4.5-0.8-5.9-1.6
		C98,34.4,95.7,34.2,95.3,35.5L95.3,35.5z"/>
	<polygon class="st0" points="52.4,111.2 71.2,106.3 66,86.2 47.2,91.1 52.4,111.2 	"/>
	<polygon class="st0" points="92.5,79.2 97.8,99.4 116.5,94.5 111.3,74.3 92.5,79.2 	"/>
	<path class="st0" d="M124,123.2l-18.7,4.9l6.6,25c6.4-1,12.6-2.9,18.4-5.7L124,123.2L124,123.2z"/>
	<path class="st0" d="M83.1,152l-4.4-17l-18.8,4.9l0.5,2.1C67.6,146.9,75.2,150.1,83.1,152L83.1,152z"/>
	<polygon class="st1" points="165.2,126.6 185,137.8 187.1,141 195.6,125.6 180.3,125.6 173.2,112.9 165.2,126.6 	"/>
	<polygon class="st1" points="14.9,137.8 34.9,126.7 26.8,112.9 19.7,125.6 4.4,125.6 12.9,141 14.9,137.8 	"/>
	<path d="M43.4,142.2l0.7,1l-2.4,3.3l-1.3-1.1c0.4-1,0.7-1.8,0.7-2.4c0-0.9-0.2-1.6-0.7-2.2c-0.3-0.5-0.8-0.8-1.3-1
		c-0.5-0.2-1.1-0.3-1.7-0.2c-0.6,0.1-1.2,0.4-1.8,0.8c-0.9,0.7-1.5,1.5-1.7,2.5c-0.3,1-0.1,2,0.6,2.8c0.4,0.6,0.9,1,1.6,1.3
		c0.8,0.4,1.7,0.6,2.6,0.6l0.1,1.6c-1.4-0.1-2.5-0.3-3.3-0.6c-1.2-0.5-2.2-1.4-3.1-2.5c-0.7-0.9-1.1-1.9-1.3-3
		c-0.2-1.1-0.1-2.1,0.3-3c0.4-1,1-1.8,1.8-2.4c0.8-0.6,1.8-1,2.8-1c1-0.1,2,0.1,2.9,0.6c0.9,0.5,1.8,1.2,2.5,2.1
		c0.7,0.9,1.1,1.9,1.3,2.9L43.4,142.2L43.4,142.2z"/>
	<path d="M45.7,143.3l6.1,4.6c0.4,0.3,0.8,0.7,1.2,1.1c0.4,0.4,0.7,0.9,0.9,1.4c0.2,0.5,0.3,1,0.3,1.5c0,0.5-0.2,0.9-0.5,1.3
		c-0.5,0.7-1.2,1-2,1c-0.8,0-1.7-0.2-2.5-0.6l0.5,3.6l0,0.2c0,0.2,0.1,0.4,0.1,0.6c0.1,0.1,0.1,0.3,0.2,0.4c0.1,0.1,0.2,0.2,0.4,0.4
		l0.4,0.3l-0.9,1.2l-3.2-2.4l-0.3-6.2l-0.8-0.6l-1.3,1.7c-0.2,0.3-0.4,0.5-0.4,0.6c0,0.1,0,0.2,0,0.3c0.1,0.1,0.2,0.2,0.5,0.4
		l0.5,0.3l-0.9,1.2l-4.8-3.6l0.9-1.2l0.4,0.3c0.2,0.2,0.4,0.3,0.5,0.3c0.1,0,0.3,0,0.4,0c0.1,0,0.2-0.2,0.4-0.4l3.7-4.9
		c0.1-0.2,0.2-0.3,0.3-0.5c0-0.1,0-0.2-0.1-0.3c-0.1-0.1-0.2-0.3-0.3-0.4l-0.2-0.1l-0.4-0.3L45.7,143.3L45.7,143.3z M48.3,147.5
		l-1.7,2.3l1.5,1.1c0.6,0.4,1,0.7,1.4,0.8c0.4,0.1,0.7,0.1,0.9,0.1c0.3-0.1,0.5-0.2,0.7-0.5c0.2-0.2,0.3-0.5,0.2-0.7
		c0-0.3-0.1-0.5-0.3-0.8c-0.2-0.3-0.6-0.6-1.1-1L48.3,147.5L48.3,147.5z"/>
	<path d="M55.8,151.3l5.3,2.9l-0.7,1.3l-0.5-0.3c-0.2-0.1-0.4-0.2-0.5-0.2c-0.1,0-0.2,0-0.3,0.1c-0.1,0.1-0.2,0.2-0.4,0.5l-1.9,3.5
		c-0.4,0.7-0.6,1.2-0.6,1.6c0,0.4,0.1,0.8,0.3,1.1c0.2,0.3,0.5,0.6,0.9,0.8c0.4,0.2,0.8,0.3,1.3,0.3c0.4,0,0.8-0.1,1.1-0.3
		c0.3-0.2,0.6-0.6,1-1.3l2.1-3.8c0.1-0.2,0.1-0.3,0.1-0.4c0-0.1-0.1-0.2-0.1-0.3c-0.1-0.1-0.2-0.2-0.5-0.3l-0.4-0.2l0.7-1.3l4.5,2.5
		l-0.7,1.3l-0.3-0.2c-0.3-0.2-0.6-0.3-0.7-0.3c-0.2,0-0.3,0-0.4,0.1c-0.1,0-0.2,0.2-0.4,0.5l-2.1,3.8c-0.4,0.7-0.8,1.2-1.3,1.6
		c-0.7,0.5-1.4,0.7-2.3,0.7c-0.9,0-1.8-0.3-2.7-0.8c-0.7-0.4-1.2-0.8-1.6-1.3c-0.4-0.5-0.7-1-1-1.5c-0.2-0.6-0.3-1.1-0.2-1.5
		c0-0.5,0.3-1.1,0.7-1.8l2-3.7c0.2-0.3,0.3-0.6,0.3-0.7c0-0.1,0-0.2-0.1-0.3c-0.1-0.1-0.2-0.2-0.5-0.4l-0.5-0.3L55.8,151.3
		L55.8,151.3z"/>
	<path d="M75.8,161.4l-0.8,3.7l-1.6-0.4c-0.1-1-0.3-1.9-0.7-2.6c-0.4-0.7-1-1.2-1.7-1.6c-0.4-0.2-0.8-0.4-1.2-0.3
		c-0.3,0-0.6,0.1-0.7,0.3c-0.1,0.2-0.1,0.5,0,0.8c0.1,0.3,0.4,0.7,1,1.2l1.8,1.7c1,0.9,1.6,1.8,1.8,2.5c0.2,0.8,0.2,1.5-0.2,2.1
		c-0.5,0.8-1.2,1.3-2.3,1.5c-1.2,0.2-2.4-0.1-3.6-0.7c-0.6-0.3-1.1-0.7-1.5-1.1c-0.4-0.4-0.8-0.9-1.1-1.5l-0.7,0.5l-1.2-0.6l1.3-4.2
		l1.6,0.5c-0.1,0.9,0.1,1.9,0.6,2.8c0.4,0.9,1.1,1.6,2,2.1c0.4,0.2,0.7,0.3,1,0.4c0.3,0.1,0.6,0,0.8,0c0.2-0.1,0.4-0.2,0.5-0.4
		c0.2-0.3,0.1-0.6-0.1-1c-0.2-0.4-0.6-0.8-1.3-1.5l-1.6-1.5c-0.2-0.2-0.5-0.5-0.9-1c-0.4-0.4-0.6-0.8-0.8-1.2
		c-0.1-0.3-0.2-0.7-0.2-1.1c0-0.4,0.1-0.8,0.3-1.2c0.3-0.5,0.7-0.9,1.2-1.1c0.6-0.3,1.2-0.3,2-0.3c0.8,0.1,1.6,0.3,2.3,0.8
		c0.9,0.5,1.7,1.2,2.2,2l0.6-0.3L75.8,161.4L75.8,161.4z"/>
	<path d="M80.8,161.8l2.7,0.6l1.7,9.1c0.1,0.5,0.2,0.8,0.3,0.9c0.1,0.1,0.4,0.3,0.8,0.3l-0.3,1.5l-5.7-1.3l0.3-1.5l0.3,0.1
		c0.3,0.1,0.5,0.1,0.7,0c0.1,0,0.2-0.1,0.3-0.2c0-0.1,0-0.3,0-0.6l-0.1-1.1l-3.7-0.9l-0.7,1c-0.1,0.2-0.2,0.3-0.2,0.4
		c0,0.1,0,0.2,0,0.2c0,0.1,0.1,0.2,0.3,0.2c0.1,0,0.4,0.1,0.8,0.2l-0.3,1.5l-4.7-1.1l0.3-1.5c0.3,0.1,0.5,0.1,0.7,0.1
		c0.1,0,0.3-0.1,0.4-0.1c0.1-0.1,0.2-0.2,0.4-0.4L80.8,161.8L80.8,161.8z M79.1,167.5l2.4,0.6l-0.5-3.2L79.1,167.5L79.1,167.5z"/>
	<path d="M88.3,163.6l6.4,0.8c1.5,0.2,2.6,0.5,3.4,1c0.8,0.5,1.4,1.2,1.8,2.1c0.4,0.9,0.6,1.9,0.4,3c-0.1,0.8-0.3,1.5-0.6,2.1
		c-0.3,0.6-0.8,1.1-1.4,1.5c-0.6,0.4-1.2,0.7-1.8,0.9c-0.5,0.1-1.1,0.2-2,0.2c-0.8,0-1.5,0-2-0.1l-5.7-0.7l0.2-1.5l0.4,0.1
		c0.4,0,0.6,0,0.7,0c0.1,0,0.2-0.1,0.3-0.2c0.1-0.1,0.1-0.3,0.1-0.6l0.7-5.9c0-0.3,0-0.5,0-0.7c0-0.1-0.1-0.2-0.2-0.2
		c-0.1-0.1-0.3-0.1-0.7-0.2l-0.4,0L88.3,163.6L88.3,163.6z M92.6,165.8l-0.8,6.8c0,0.2,0,0.4,0,0.4c0,0.1,0.1,0.1,0.2,0.2
		c0.1,0,0.3,0.1,0.7,0.1c1,0.1,1.7,0.1,2.3-0.1c0.6-0.2,1.1-0.6,1.5-1.1c0.4-0.5,0.7-1.2,0.7-2c0.1-0.8,0-1.5-0.2-2.1
		c-0.2-0.6-0.6-1.1-1-1.4c-0.4-0.3-1.1-0.5-1.9-0.6L92.6,165.8L92.6,165.8z"/>
	<path d="M100.4,164.4l10.3-0.6l1.6,3.4l-1.6,0.6c-0.3-0.5-0.6-1-1-1.3c-0.4-0.3-0.8-0.5-1.2-0.6c-0.4-0.1-1-0.1-1.5-0.1l-1.9,0.1
		l0.1,2.7l0.6,0c0.5,0,0.8-0.1,0.9-0.1c0.2-0.1,0.3-0.2,0.3-0.3c0.1-0.1,0.1-0.4,0.1-0.8l0-0.4l1.6-0.1l0.3,4.6l-1.6,0.1l0-0.5
		c0-0.3-0.1-0.5-0.2-0.7c-0.1-0.1-0.2-0.2-0.4-0.3c-0.2,0-0.5-0.1-1,0l-0.6,0l0.1,2.5c0,0.3,0,0.4,0.1,0.5c0,0.1,0.1,0.1,0.2,0.1
		c0.1,0,0.3,0,0.6,0l1-0.1c0.8,0,1.4-0.2,1.9-0.4c0.5-0.2,1-0.6,1.4-1c0.4-0.5,0.7-1,0.9-1.6l1.6,0.4l-1.4,4.2l-10.7,0.6l-0.1-1.5
		l0.3,0c0.4,0,0.7-0.1,0.8-0.1c0.1-0.1,0.2-0.2,0.3-0.3c0-0.1,0-0.3,0-0.7l-0.3-6c0-0.3-0.1-0.5-0.1-0.6c-0.1-0.1-0.1-0.2-0.2-0.2
		c-0.1,0-0.3-0.1-0.6,0l-0.5,0L100.4,164.4L100.4,164.4z"/>
	<path d="M111.8,163.7l7.4-1.7c0.5-0.1,1-0.2,1.6-0.2c0.6-0.1,1.1,0,1.7,0.2c0.5,0.2,0.9,0.4,1.3,0.7c0.3,0.3,0.6,0.8,0.7,1.3
		c0.2,0.8,0,1.5-0.5,2.2c-0.5,0.7-1.2,1.2-2.1,1.5l3.1,2l0.1,0.1c0.2,0.1,0.4,0.2,0.5,0.3c0.1,0.1,0.3,0.1,0.4,0.1
		c0.1,0,0.3,0,0.6-0.1l0.5-0.1l0.3,1.5l-3.9,0.9l-4.9-3.7l-1,0.2l0.5,2.1c0.1,0.4,0.2,0.6,0.2,0.7c0.1,0.1,0.2,0.1,0.3,0.2
		c0.1,0,0.3,0,0.6-0.1l0.6-0.1l0.3,1.5l-5.9,1.3l-0.3-1.5l0.5-0.1c0.3-0.1,0.5-0.1,0.6-0.2c0.1-0.1,0.2-0.2,0.2-0.3
		c0-0.1,0-0.3-0.1-0.6l-1.4-6c-0.1-0.2-0.1-0.4-0.2-0.5c-0.1-0.1-0.1-0.1-0.3-0.1c-0.2,0-0.3,0-0.5,0l-0.2,0.1l-0.4,0.1L111.8,163.7
		L111.8,163.7z M116.7,164.4l0.6,2.8l1.8-0.4c0.7-0.2,1.2-0.3,1.5-0.5c0.3-0.2,0.5-0.4,0.7-0.7c0.1-0.3,0.2-0.5,0.1-0.8
		c-0.1-0.3-0.2-0.5-0.4-0.7c-0.2-0.2-0.5-0.3-0.8-0.3c-0.3,0-0.8,0-1.5,0.2L116.7,164.4L116.7,164.4z"/>
	<path d="M134.6,157.5l2,3.2l-1.5,0.9c-0.8-0.7-1.5-1.1-2.3-1.3c-0.8-0.2-1.5-0.2-2.3,0c-0.5,0.1-0.9,0.3-1.1,0.6
		c-0.2,0.3-0.3,0.5-0.3,0.7c0.1,0.2,0.3,0.4,0.6,0.6c0.3,0.1,0.8,0.2,1.5,0.2l2.5-0.1c1.4,0,2.4,0.1,3.1,0.5
		c0.7,0.4,1.1,0.9,1.3,1.7c0.3,0.9,0.1,1.8-0.6,2.7c-0.7,1-1.8,1.6-3.1,2c-0.6,0.2-1.2,0.3-1.8,0.3c-0.6,0-1.2-0.1-1.9-0.3l-0.2,0.9
		l-1.3,0.4l-2-3.8l1.5-0.8c0.6,0.7,1.4,1.3,2.3,1.6c1,0.3,1.9,0.4,2.8,0.1c0.4-0.1,0.8-0.3,1-0.4c0.3-0.2,0.4-0.4,0.5-0.6
		c0.1-0.2,0.1-0.4,0.1-0.6c-0.1-0.3-0.3-0.5-0.7-0.6c-0.4-0.1-1-0.2-1.9-0.1l-2.1,0.1c-0.3,0-0.8,0-1.3-0.1c-0.6-0.1-1-0.2-1.4-0.3
		c-0.3-0.1-0.7-0.4-0.9-0.7c-0.3-0.3-0.5-0.7-0.6-1c-0.2-0.6-0.1-1.1,0.1-1.7c0.2-0.6,0.6-1.1,1.3-1.6c0.6-0.5,1.4-0.9,2.2-1.1
		c1-0.3,2-0.3,3-0.1l0.2-0.6L134.6,157.5L134.6,157.5z"/>
	<path d="M138.6,155.1l8.5-5.7l3.1,2.1l-1.1,1.3c-0.5-0.3-0.9-0.5-1.3-0.5c-0.3-0.1-0.7-0.1-1.1-0.1c-0.4,0-0.7,0.1-1.1,0.3
		c-0.2,0.1-0.6,0.3-1.1,0.7l-1.3,0.9l1.6,2.4l0.6-0.4c0.2-0.2,0.4-0.3,0.5-0.5c0.1-0.2,0.1-0.3,0.1-0.5c0-0.1-0.1-0.3-0.3-0.6
		l-0.3-0.5l1.3-0.9l2.7,4.1l-1.3,0.9l-0.4-0.6c-0.1-0.2-0.2-0.3-0.3-0.3c-0.1-0.1-0.2-0.1-0.4-0.1c-0.1,0-0.2,0-0.4,0
		c-0.1,0-0.3,0.2-0.6,0.3l-0.6,0.4l1.3,1.9c0.2,0.2,0.3,0.4,0.4,0.4c0.1,0,0.2,0.1,0.3,0c0.1,0,0.3-0.1,0.6-0.3l0.4-0.3l0.8,1.3
		l-5,3.4l-0.8-1.3l0.3-0.2c0.4-0.2,0.6-0.5,0.6-0.6c0.1-0.2,0-0.4-0.2-0.6l-3.5-5.2c-0.2-0.2-0.3-0.4-0.4-0.4c-0.1,0-0.2-0.1-0.3,0
		c-0.1,0-0.3,0.1-0.6,0.4l-0.3,0.2L138.6,155.1L138.6,155.1z"/>
	<path d="M152.5,155.7c0.4-0.3,0.8-0.3,1.2-0.3c0.4,0.1,0.7,0.3,1,0.6c0.2,0.3,0.3,0.7,0.2,1.1c-0.1,0.4-0.4,0.8-0.7,1
		c-0.4,0.3-0.8,0.4-1.2,0.3c-0.4-0.1-0.7-0.3-1-0.6c-0.2-0.3-0.3-0.7-0.2-1.1C151.9,156.3,152.1,156,152.5,155.7L152.5,155.7z"/>
	<path d="M156.9,141.8l1-0.7l3.2,2.6l-1.1,1.3c-1-0.5-1.8-0.7-2.4-0.8c-0.9-0.1-1.6,0.1-2.3,0.5c-0.5,0.3-0.8,0.7-1.1,1.2
		c-0.3,0.5-0.4,1.1-0.3,1.7c0.1,0.6,0.3,1.2,0.7,1.8c0.6,0.9,1.4,1.6,2.5,1.9c1,0.3,2,0.1,2.9-0.5c0.6-0.4,1-0.9,1.4-1.5
		c0.4-0.8,0.7-1.7,0.7-2.6l1.6,0c-0.1,1.4-0.4,2.5-0.8,3.2c-0.6,1.2-1.5,2.2-2.6,2.9c-1,0.6-2,1-3,1.1c-1.1,0.1-2.1,0-3-0.5
		c-1-0.4-1.7-1.1-2.3-2c-0.6-0.9-0.9-1.8-0.9-2.8c0-1,0.2-2,0.7-2.9c0.5-0.9,1.3-1.7,2.2-2.4c1-0.7,2-1,2.9-1.2L156.9,141.8
		L156.9,141.8z"/>
	<path d="M165,144.6c0.3-0.3,0.7-0.5,1.1-0.5c0.4,0,0.8,0.1,1.1,0.4c0.3,0.3,0.4,0.6,0.4,1.1c0,0.4-0.2,0.8-0.5,1.1
		c-0.3,0.3-0.7,0.5-1.1,0.5c-0.4,0-0.8-0.1-1.1-0.4c-0.3-0.3-0.4-0.6-0.4-1.1C164.5,145.3,164.7,144.9,165,144.6L165,144.6z"/>
</g>
</svg>
