<?xml version="1.0" encoding="utf-8"?>
<!-- Generator: Adobe Illustrator 21.1.0, SVG Export Plug-In . SVG Version: 6.00 Build 0)  -->
<svg version="1.1" id="Layer_1" xmlns="http://www.w3.org/2000/svg" xmlns:xlink="http://www.w3.org/1999/xlink" x="0px" y="0px"
	 viewBox="0 0 200 200" style="enable-background:new 0 0 200 200;" xml:space="preserve">
<style type="text/css">
	.st0{fill:none;}
	.st1{fill:#FF0000;}
	.st2{fill:#CA002A;}
	.st3{fill:#00A1DE;}
	.st4{fill:#FFFFFF;}
</style>
<g>
	<rect x="31" y="54.3" class="st0" width="137.9" height="131.2"/>
	<path class="st1" d="M105.6,54.3v24.2c-1.8-0.2-3.7-0.3-5.6-0.3c-12,0-23.2,4.7-31.7,13.1c-6.8,6.8-11.2,15.4-12.6,24.7H45.4
		c1.5-12.1,6.9-23.2,15.7-32c9.1-9.1,20.7-14.6,33.3-15.8v-14C58.9,57.2,31,86.8,31,123c0,27.6,16.3,51.5,39.7,62.5v-15.8
		c-3.5-2.2-6.7-4.8-9.7-7.7c-8.7-8.7-14.2-19.9-15.7-32h10.3c1.4,9.3,5.8,17.9,12.6,24.7c3.8,3.8,8.1,6.8,12.8,8.9v21.8h38.5v-13.9
		H94.9v-4c1.7,0.2,3.3,0.3,5,0.3c12,0,23.2-4.7,31.7-13.1c6.8-6.8,11.2-15.4,12.6-24.7h10.3c-1.5,12.1-6.9,23.2-15.7,32
		c-3,3-6.2,5.6-9.7,7.7v15.8c23.5-11,39.7-34.8,39.7-62.5C168.9,86.8,141,57.2,105.6,54.3z M105.6,54.3L105.6,54.3z M81,147.5
		L81,147.5c-1-0.8-2-1.6-2.9-2.6c-4.2-4.2-7-9.3-8.3-14.9h3.6v-13.9h-3.6c1.3-5.6,4.1-10.7,8.3-14.9c0.9-0.9,1.9-1.8,2.9-2.6V147.5z
		 M81,147.5L81,147.5z M100,154L100,154c-1.7,0-3.4-0.1-5-0.4V98.6H81c5.4-4.2,12-6.5,18.9-6.5c1.9,0,3.8,0.2,5.6,0.5V147h13.9
		C114,151.5,107.2,154,100,154z M100,154L100,154z M121.8,144.9L121.8,144.9c-0.7,0.7-1.5,1.5-2.3,2.1v-17h10.6
		C128.8,135.6,126,140.7,121.8,144.9z M121.8,144.9L121.8,144.9z M119.5,116.1L119.5,116.1v-17c0.8,0.7,1.6,1.4,2.3,2.1
		c4.2,4.2,7,9.3,8.3,14.9H119.5z M119.5,116.1L119.5,116.1z M144.3,116.1L144.3,116.1c-1.4-9.3-5.8-17.9-12.6-24.7
		c-3.6-3.6-7.7-6.5-12.2-8.7V71.6c7.2,2.7,13.8,7,19.4,12.6c8.7,8.7,14.2,19.9,15.7,32H144.3z"/>
	<rect x="18" class="st0" width="164.1" height="200"/>
	<path class="st2" d="M18.6,0H182v118.8l0,0c0,15.9-7.1,36.2-20.8,52.5C147.4,187.6,127,200,100.3,200v0h0v0l-0.3,0l0,0
		c-24.3,0-44.8-10.8-59.2-26.2C26.4,158.3,18,138.1,18,119.3v-0.2l0,0V0H18.6z M18.6,0L18.6,0z M180.8,1.2H19.2v117.9l0,0v0.2
		c0.1,18.5,8.3,38.3,22.5,53.6c14.2,15.2,34.3,25.8,58.3,25.8l0,0h0.3l0,0h0l0,0c26.3,0,46.5-12.2,60-28.3
		c13.6-16.1,20.5-36.1,20.5-51.7l0,0V1.2z"/>
	<rect x="19.2" y="1.2" class="st0" width="161.6" height="15.1"/>
	<path class="st1" d="M19.2,16.3h161.6V1.2H19.2V16.3z"/>
	<rect x="19.2" y="31.2" class="st0" width="161.6" height="15.4"/>
	<path class="st3" d="M180.8,31.2H19.2v15.4h161.6V31.2z"/>
	<rect x="19.2" y="16.3" class="st0" width="161.6" height="14.9"/>
	<path class="st4" d="M19.2,31.2h161.6V16.3H19.2V31.2z"/>
	<rect x="19.2" y="46.6" class="st0" width="161.6" height="152.2"/>
	<path class="st4" d="M180.8,46.6H19.2v72.6l0,0v0.2c0.1,18.5,8.3,38.3,22.5,53.6c14.2,15.2,34.3,25.8,58.3,25.8l0,0h0.3v0h0v0
		c26.3,0,46.5-12.2,60-28.3c13.6-16.1,20.5-36.1,20.5-51.7l0,0V46.6z M180.8,46.6L180.8,46.6z M31,123c0-36.2,27.9-65.9,63.4-68.7
		v14c-12.6,1.3-24.2,6.8-33.3,15.8c-8.7,8.7-14.2,19.9-15.7,31.9h10.3c1.4-9.3,5.8-17.9,12.6-24.7C76.7,82.9,88,78.2,100,78.2
		c1.9,0,3.8,0.1,5.6,0.3V54.3c35.5,2.9,63.4,32.5,63.4,68.7c0,27.6-16.3,51.5-39.7,62.5v-15.8c3.5-2.2,6.7-4.8,9.7-7.7
		c8.7-8.7,14.2-19.9,15.7-31.9h-10.3c-1.4,9.3-5.8,17.9-12.6,24.7c-8.5,8.5-19.7,13.1-31.7,13.1c-1.7,0-3.4-0.1-5-0.3v4h24.6v13.9
		H81v-21.8c-4.7-2.2-9-5.2-12.8-8.9c-6.8-6.8-11.2-15.4-12.6-24.7H45.4c1.5,12.1,6.9,23.2,15.7,31.9c3,3,6.2,5.6,9.7,7.7v15.8
		C47.3,174.5,31,150.7,31,123z"/>
	<rect x="81" y="92.1" class="st0" width="38.5" height="61.8"/>
	<path class="st4" d="M105.6,147V92.6c-1.8-0.3-3.7-0.5-5.6-0.5c-6.9,0-13.5,2.3-18.9,6.5h13.9v54.9c1.6,0.3,3.3,0.4,5,0.4
		c7.2,0,14-2.4,19.5-6.9H105.6z"/>
	<rect x="69.8" y="98.6" class="st0" width="11.2" height="48.8"/>
	<path class="st4" d="M81,147.5V98.6c-1,0.8-2,1.6-2.9,2.6c-4.2,4.2-7,9.3-8.3,14.9h3.6V130h-3.6c1.3,5.6,4.1,10.7,8.3,14.9
		C79,145.8,80,146.7,81,147.5z"/>
	<rect x="119.5" y="130" class="st0" width="10.6" height="17"/>
	<path class="st4" d="M119.5,130v17c0.8-0.7,1.6-1.4,2.3-2.1c4.2-4.2,7-9.3,8.3-14.9H119.5z"/>
	<rect x="119.5" y="99.1" class="st0" width="10.6" height="17"/>
	<path class="st4" d="M119.5,116.1h10.6c-1.3-5.6-4.1-10.7-8.3-14.9c-0.7-0.7-1.5-1.4-2.3-2.1V116.1z"/>
	<rect x="119.5" y="71.6" class="st0" width="35.1" height="44.5"/>
	<path class="st4" d="M131.7,91.3c6.8,6.8,11.1,15.4,12.6,24.7h10.3c-1.5-12.1-6.9-23.2-15.7-32c-5.6-5.6-12.2-9.8-19.4-12.6v11.1
		C124,84.8,128.1,87.7,131.7,91.3z"/>
</g>
</svg>
