<?xml version="1.0" encoding="utf-8"?>
<!-- Generator: Adobe Illustrator 21.1.0, SVG Export Plug-In . SVG Version: 6.00 Build 0)  -->
<svg version="1.1"
	 id="svg2" inkscape:version="0.48.2 r9819" sodipodi:docname="workshop.pdf" xmlns:cc="http://creativecommons.org/ns#" xmlns:dc="http://purl.org/dc/elements/1.1/" xmlns:inkscape="http://www.inkscape.org/namespaces/inkscape" xmlns:rdf="http://www.w3.org/1999/02/22-rdf-syntax-ns#" xmlns:sodipodi="http://sodipodi.sourceforge.net/DTD/sodipodi-0.dtd" xmlns:svg="http://www.w3.org/2000/svg"
	 xmlns="http://www.w3.org/2000/svg" xmlns:xlink="http://www.w3.org/1999/xlink" x="0px" y="0px" viewBox="0 0 200 200"
	 style="enable-background:new 0 0 200 200;" xml:space="preserve">
<style type="text/css">
	.st0{fill:#164C2F;}
	.st1{fill:#FFFFFF;}
	.st2{fill:#AA262A;}
</style>
<g>
	<path id="path28" inkscape:connector-curvature="0" class="st0" d="M47.6,176.9h102.5V200H47.6V176.9z"/>
	<path id="path42" inkscape:connector-curvature="0" class="st0" d="M100,21.1C61.9,21,41.9,45.6,41.9,45.6l-15-14.9
		C26.9,30.7,53.4,0,100,0s73.1,30.7,73.1,30.7l-15,14.9C158.1,45.5,138.1,21.1,100,21.1"/>
	<path id="path48" inkscape:connector-curvature="0" class="st0" d="M50.9,98c0-26.9,21.9-48.7,48.7-48.7c13.1,0,25.4,5.1,34.6,14.4
		c9.1,9.2,14.1,21.3,14.1,34.3c0,26.9-21.9,48.7-48.7,48.7c-13.1,0-25.4-5.1-34.6-14.4C55.9,123.1,50.9,110.9,50.9,98"/>
	<path id="path54" inkscape:connector-curvature="0" class="st1" d="M84.8,120.5c0-6.5-5.3-11.9-11.9-11.9s-11.9,5.3-11.9,11.9
		c0,6.5,5.3,11.9,11.9,11.9S84.8,127,84.8,120.5"/>
	<path id="path60" inkscape:connector-curvature="0" class="st0" d="M83.2,82.2L83.2,82.2c-0.3-0.3-0.8-0.9-0.8-1.9
		c0.1-2.1,1.9-4.9,4.7-4.9c0.5,0,1.3,0.2,2.1,0.5c0,0.1,0.1,0.3,0.1,0.3c0.1,0.5,0.1,1,0.1,1.3c0,0.1,0,0.1,0,0.2
		c0,0-0.2,1.3-0.3,1.6c-0.3-0.4-0.9-1.1-0.9-1.1l-0.3,2.1c-0.1,0.9-0.5,1.7-0.6,1.8c0,0-0.2,0.3-0.3,0.5c-0.1,0-0.7,0.1-0.7,0.1
		l-1.9,0.2C84.1,82.8,83.6,82.6,83.2,82.2 M72.9,57.6c0,0-1.6,1.3-1.7,1.3h-0.1l-1,0.3c-2,0.7-3.5,1.9-4.2,3.4c0,0-0.3,0.7-0.3,0.8
		c-1.1-0.1-1.7-0.4-1.7-0.4l-1.1-0.5l-0.2,1.2l-0.1,1.1c0,0.5,0.1,1.1,0.3,1.7h-0.1c-2.3,1.1-3.4,3-3.8,4.3
		c-0.3,0.7-0.4,1.5-0.4,2.3c0,0.9,0.2,1.7,0.5,2.3c0,0,0.3,0.7,0.4,0.7c-1.7,1.5-4.5,4.6-4.5,9l0.1,1.3l0.3,2.1l1.5-1.6
		c0.3-0.3,0.7-0.7,1.1-1c-2.2,2.7-3.7,5.7-3.9,8.3v0.7c0,2,0.7,3.8,2.1,5.1l1.1,1l0.5-1.4c0.6-1.8,1.5-3.2,2.5-4.5
		c-1.9,2.7-3.1,6.2-3.1,9.2c0,1.5,0.3,2.8,0.9,3.8c0,0,0.1,0.3,0.2,0.4c-0.7,1-1.2,2.6-1.2,3.8c0,0.3,0.1,0.7,0.1,0.9
		c0.3,0.9,0.6,1.4,0.8,1.8l0.3,0.5c0,0.1,0,0.2,0,0.3c0,0.4-0.1,0.8-0.2,1.3c-0.1,0.5-0.2,0.9-0.2,1.3c0,0.1,0,0.2,0,0.3
		c0.1,0.6,0.3,1.1,0.7,1.5c0,0.1-0.1,0.5-0.1,0.5c0,0.1,0,0.1,0,0.1c0,0.9,0.5,2.9,3.1,3.1l2.2,0.2c0,0-0.1-0.1-0.1-0.1
		c0.7,0.1,1.3,0.1,2-0.1l0.9-0.3l-0.3-0.9c-0.3-0.9-0.6-1.5-0.9-1.9c0.3-0.3,0.5-0.7,0.5-1c0,0,0,0,0-0.1c0.1,0,0.1,0,0.2,0
		c0.6,1,2.2,1.9,3.9,1.8l1.3-0.1l-0.6-1.4l-0.2-0.5c-0.3-0.6-0.6-1.5-1.3-2.3c0,0-0.1-0.1-0.2-0.2c0-0.1-0.1-0.6-0.1-0.6
		s0-0.1-0.1-0.1c0.7,0.7,1.6,1.1,2.3,1.3l1.6,0.6l0.1-1.4c0-0.1,0-0.1,0-0.2c0-2.5-1.3-3.5-1.9-3.9c0-0.1,0-0.4,0-0.4
		c0-0.6-0.3-1.1-0.9-1.8c0.5-0.2,0.9-0.4,1.1-0.9c0,0,0.1-0.1,0.1-0.2c0.7,0,1.3,0.1,1.7,0.5l2,2l-0.3-2.8c0,0-0.1-0.5-0.2-0.9
		c1.9,0.1,3.7,1,3.8,1.1c0,0,1.7,0.9,1.7,0.9c0.7,2.2,2.2,4,4.2,5.1c0,0,0.9,0.5,1,0.6c0,0.2,0.1,2.5,0.1,2.5l0.1,1.7
		c-0.3,2.1-0.9,5.9-1.5,8.9l-0.6,3.4c-0.1,0.9-0.5,1.6-1,1.8c-0.5,0.2-1.3-0.1-1.9-0.6l-0.3-0.2c-1.8-1.5-4-3.3-6.4-1.5l-0.1-0.1
		l-0.5,0.1c-0.9,0.2-2.6,1.1-2.3,3l0.1,0.9l0.9-0.1c0.5-0.1,1-0.2,1.3-0.3c-0.1,0.1-0.2,0.1-0.2,0.1c-0.5,0.5-0.7,1.3-0.7,1.9
		c0,0.6,0.2,1.2,0.5,1.5l0.7,1l0.9-1l0.2-0.2l1-0.4c0,0,0.3-0.3,0.5-0.5c0.1,0,0.1,0.1,0.1,0.1s0.1,0.1,0.2,0.1
		c-0.4,0.6-0.7,1.4-0.7,2.1v0.1c0,0.8,0.3,1.4,0.9,1.7l0.7,0.5l0.5-0.7c0,0,0.3-0.3,0.4-0.5c0.1,0.1,0.5,0.3,0.5,0.3
		c0.5,0.3,1.4,0.5,2.7,0.7c0.5,0.1,1.3,0.2,1.5,0.3c2.1,0.9,3.8,0.5,4.5-1c0.3-0.6,0.3-0.6,0.7-0.5c0.3,0.1,1.1,0.2,1.6-0.6
		c3.5-5.9,5.6-11.3,6.4-13.7c0.1,0.1,0.2,0.3,0.2,0.3l0.8,1.6l0.9-1.6c0.3-0.5,0.4-1.1,0.4-1.9c0-0.6-0.1-1.2-0.3-2
		c0.7,0.1,1.4,0.1,2.1-0.1l1.9-0.8c0,0-1.1-0.6-1.5-0.9c0.7-0.1,1.3-0.3,1.6-0.7l0.9-1.1l-1.4-0.4c-0.1,0-0.4-0.3-0.7-0.6
		c4.5,1.1,5.7-0.3,5.8-0.4l0.7-1c0,0-0.8-0.3-1-0.4c1-0.1,1.8-0.3,2.4-0.7c0,0,0.1,0,0.1-0.1c0.1,0.1,0.1,0.2,0.1,0.2
		s1.1,1.7,4.3,2.8c0,0.1,0.1,0.4,0.1,0.4c0.5,4.1,3.7,7.1,5.7,8.6l0,0c-0.7,2.5-3.6,6.1-7.7,7.9c-3.5,1.6-5.4,3.3-5.7,5.3l-0.1,0.6
		c0-0.1-0.1,0.1-0.1,0.1c-0.3,0.5-0.6,1.3-0.6,2.1s0.3,1.6,0.9,2.2l0.9,0.9l0.6-1.2c0.4-0.7,0.7-0.9,0.7-1c0.2-0.1,0.5-0.1,0.5-0.1
		s0.1-0.1,0.1-0.2c0.1,0.3,0.5,1.1,0.5,1.1s0.3-0.7,0.4-1c0.1,0.4,0.4,0.8,0.7,1.1l1.1,0.9l0.5-1.4c0.1-0.4,0.4-0.9,0.5-1.1
		c0,0,0.1-0.2,0.3-0.3c0.1,0.2,0.2,0.6,0.2,0.6l0.9-0.4c0.7-0.3,1.2-0.8,1.3-0.9c0,0,0,0,0.1-0.1c0.3,0.3,0.7,0.5,1.2,0.5l1.3,0.3
		l-0.2-1.3c0-0.2-0.1-0.3-0.1-0.5c0-0.2,0.1-0.3,0.1-0.4l0.6-0.2c1.3-0.4,3.2-1.9,4.2-3.2c0.3-0.3,0.5-0.7,0.5-1
		c0.5,0.5,1.3,0.9,2.3,0.7c0,0,0.7-0.1,0.8-0.1c0.1,0.1,0.3,0.2,0.3,0.2l1.1,0.4l0.2-1.2c0.2-1.1,0.7-1.9,0.7-1.9s0.1-0.1,0.2-0.3
		l0.3,0.1c0,0,0.1-0.5,0.1-0.7c0.1,0.3,0.1,0.7,0.3,0.9c0.5,0.7,1.1,1.1,1.7,1.1h1.6l-0.8-1.5c-0.2-0.4,0.1-1.2,0.3-1.5l-0.1,0.1
		l0.5-0.1c2.7-0.3,9.3-8.7,10.3-14c0.3-1.4,0.4-2.6,0.4-3.6c0-1.3-0.3-2.3-0.7-3c-0.7-1-1.6-1.1-2.3-1.3h-0.2
		c-0.5-0.1-0.7-0.3-0.8-0.5c-0.1-0.3-0.2-0.6-0.2-1.1c0-0.7,0.1-1.6,0.5-2.7l0.4-1.3c0.5-1.7,1.3-3.7,1.3-5.8c0-1-0.2-2-0.6-2.9
		c0,0.1,0.1-0.9,0.1-0.9c-0.1-1.1-0.7-2.3-1.8-3.3l0.4,0.1l-1.3-1.8c-0.4-0.5-0.9-1.1-1.6-1.7c0.4-0.1,0.7-0.1,1-0.3
		c1.1-0.6,1.7-1.8,2.3-4l0.1-1.3c0-4.1-4.3-7.4-6.7-8.1c-3.8-1.1-7.5-0.8-10.9-0.5c-1.8,0.1-3.5,0.3-4.9,0.2
		c-3.2-0.2-5.5-1.5-6.2-3.5c-0.5-1.3-0.2-2.6,0.7-3.5c1.3-1.3,3.5-1.5,6.1-0.5c0,0.1,0,0.1,0,0.1c0,0.8,0.2,1.6,0.6,2.3
		c0.7,1.3,2.1,2.3,3.5,2.6c1.3,0.3,2,0.1,2.5-0.1l1.1-0.1c0.6,0,0.9,0.2,1.3,0.5c0.7,0.5,1.6,1.3,3.5,0.5l1.3-0.5l-0.2-0.2
		c0.5,0,0.9-0.1,1.5-0.2l2.8-0.6l-0.3-1.1c-0.1-0.3-0.3-0.6-0.5-0.9c0.1,0,0.1,0,0.1,0l-0.3-1.2c-0.7-2.7-2.6-3.1-4-3.5
		c-0.5-0.1-1-0.2-1.3-0.4l-0.7-0.7c-0.8-0.8-1.9-1.9-3.4-2.1c-1.8-0.3-4.1,0-5.1,1.7c-5-1.7-9.3-1.2-11.9,1.3
		c-2.2,2.1-2.9,5.3-1.9,8.3c1.3,3.5,4.7,5.8,9,6.1l4.7,0.1c3.9,0,9.3-0.1,11.3,0.8c1.9,0.8,2.5,2.2,2.3,3.1c-0.1,1-1.2,1.7-2.8,1.9
		c-0.4,0.1-1.4-0.1-2.5-0.3c-3.5-0.7-9.3-1.8-15.8,0.1c-6.5,1.9-15.3,2.9-20.5,0.9c0.7-0.5,1.1-1.2,1.3-2.1l0.1-0.6l-0.5-0.4
		l-0.1-0.1c0.1-0.1,0.1-0.1,0.1-0.1c0.2-0.3,0.5-0.9,0.5-1.7c0-0.4-0.1-0.9-0.3-1.4l-0.7-1.6c0,0-1.9,2.7-2.1,3.1c0-0.1,0-0.1,0-0.2
		c0-1.3-0.9-2.3-1-2.5c0,0-0.1-0.1-0.2-0.2c0.1,0,1.5-0.9,1.5-0.9c1.3-0.8,1.7-1.9,1.7-2.1v-0.1c0.4,0,0.7-0.1,1.1-0.1
		c0,0.1,0,0.2,0,0.3c0,0.3,0,0.7,0.1,1l0.3,1.5l1.3-0.8c1.1-0.8,1.4-1.7,1.4-1.8l0,0c0.8-0.3,1.3-1.1,1.5-2.1c0.2-1.3-0.2-2.6-1-3.3
		L96.2,71l-0.7,0.5c0,0-0.1,0.1-0.3,0.2c-0.2-0.2-0.3-0.5-0.5-0.6l0.1-0.1l1.1-1.3l-0.1-0.1c-2.1-2.6-3.3-2.9-4.1-3.2
		c-0.4-0.1-0.5-0.1-0.7-0.4l-0.5-0.6c-1.1-1.3-1.8-2.1-5-3.5c0,0-0.2-0.1-0.3-0.1c-0.1-0.1-0.2-0.9-0.2-0.9
		c-0.3-1.4-1.7-3.9-4.5-3.5c0,0-0.4,0.1-0.5,0.1C77.3,55.1,74.5,56.3,72.9,57.6"/>
	<path id="path66" inkscape:connector-curvature="0" class="st1" d="M69.8,68.2c-1.3,1.5-2.2,3.1-3.9,4.3c-1.7,1.1-4.4,1.9-6,2.6
		c-0.8-1.5-0.6-5.7,3.3-7.6c0,0,1.3,2.5,2.6,2.6c0,0-2.7-2.9-2.1-6.2c0,0,1.5,0.6,3.5,0.5c1.1,0,4.6,0.1,5.5,1.4
		c-0.9,0.5-1.5,1-2.1,1.6c0,0-2.3-2-4.6-1.7C68.8,66.5,69.8,68.2,69.8,68.2"/>
	<path id="path72" inkscape:connector-curvature="0" class="st1" d="M109.8,115.8c2.5-1.5,8.9-8.7,14.5-5.1
		c-0.2,4.1,1.1,4.4,1.1,4.4c0.2-0.1,0.2-0.3,0.2-0.3s0.3,1.9,0.7,2.5c-3.3,5.4,0.7,8.4,1.3,9c-4.1,2.3-6.7,3.6-6,7.1
		c0.1,0.4-1.1,1.4,0,3.1c0.4,0.6-0.1,1.2-0.3,1.5c-0.9,1.2-2.7,2.5-3.7,2.9c-0.8-1.1-2.1-1.6-2.1-1.6s-0.9-1.5,1.7-3.1
		c-1.8-0.3-2.9,2-3.1,3.3c-0.5,1.3-0.3,2.5,0.1,3.3c0,0-0.5,0.5-1,0.7c-0.9-2.4-2.4-2.5-2.4-2.5s-0.5-1.9,1.8-2.7
		c-3-0.3-3.2,3.1-3.2,3.6c0,0.5-0.5,1.7-0.5,1.7s-0.7-1.5-2.3-1.9c0.3-1.5,1.7-2.9,5.1-4.5c4.5-2.1,7.5-6,8.2-8.5c0.5,0,1.1,0,1.1,0
		s-6.1-3.6-6.7-9c0,0,1.3-0.1,1.8-0.6C111.1,118.1,109.8,115.8,109.8,115.8"/>
	<path id="path78" inkscape:connector-curvature="0" class="st1" d="M90.3,76c0,0,0.2,1.3,0.1,1.8c1-0.6,1.2-1.4,1.2-1.4
		C90.8,76.2,90.3,76,90.3,76"/>
	<path id="path84" inkscape:connector-curvature="0" class="st1" d="M94.7,76.1c0,0,0.3,0,0.6,0.1c0.2,0.1,0.4,0.3,0.4,0.3
		s-0.1,0.7-1,1.2C94.5,76.9,94.7,76.1,94.7,76.1"/>
	<path id="path90" inkscape:connector-curvature="0" class="st1" d="M88.1,82.5c0,0,1.1,0,1.5,0.1c0.2-1-0.7-2.1-0.7-2.1
		C88.7,81.5,88.1,82.5,88.1,82.5"/>
	<path id="path96" inkscape:connector-curvature="0" class="st1" d="M91.4,83c0,0,0.9,0.3,1.1,0.4c0,0,0.6-0.9,0.1-2.1
		C92.1,82.1,91.4,83,91.4,83"/>
	<path id="path102" inkscape:connector-curvature="0" class="st1" d="M69.3,106.7c-1.3,0-1.8,1.2-3.3,1.1c-2.6-0.3-4.3-1-6.7,1
		c-0.9,0.7-1.7,3.2-1.3,4.3c0.3,1.3,0.9,1.7,1.1,2.3c0.3,1.2-0.4,2.5-0.3,3.3c0.1,1.3,1.3,1.2,1.3,1.2s0-2.1,0.7-2.4
		c-0.4,2.4,1.1,2.8,1.1,2.8s0.7-1.1,2.8-0.1c0.2-0.1,0.1-0.4,0.1-0.4s-2.8-2.1-1.5-4.1c0.3,3.1,2.5,3.1,2.5,3.1s0.3-2.1,2.1-2.1
		c-0.3-1.6-1.9-2.3-2.2-3.2c1.1,0,2.3,1,2.3,1s0.1-1.9,1.8-1.9c0-1-1.9-2.3-2.9-2.9c0.6-0.1,2.4,1,3.3-0.3
		C69.3,108.5,69.3,106.7,69.3,106.7"/>
	<path id="path108" inkscape:connector-curvature="0" class="st1" d="M59.3,120.8c0,0-0.1,1.9,2.3,2.2c-0.3-0.5-0.6-1.5-0.6-1.5
		s-0.1-0.5-0.8-0.5C59.9,120.9,59.3,120.8,59.3,120.8"/>
	<path id="path114" inkscape:connector-curvature="0" class="st1" d="M64.2,121.1c-0.2-0.2-1.1-0.3-1.5-0.3c-0.9,0.1-0.8,1-0.6,1.3
		c0.3,0.5,1.6,1.5,3.1,0.9C64.9,121.9,64.5,121.3,64.2,121.1"/>
	<path id="path120" inkscape:connector-curvature="0" class="st1" d="M66.7,119.1c0.2,0.7,1.7,1.6,3,1.5c-0.3-0.3-0.5-1.7-1.3-2.5
		C67.5,117.2,66.3,118.1,66.7,119.1"/>
	<path id="path126" inkscape:connector-curvature="0" class="st1" d="M70.1,113.7c-0.9-0.3-1.3,1.3-0.7,2c0.6,0.7,1.9,1.1,2.4,1.3
		C71.7,114.9,70.7,113.9,70.1,113.7"/>
	<path id="path132" inkscape:connector-curvature="0" class="st1" d="M70.9,106.9c-0.7,0.1-0.6,1.5-0.1,1.8c0.9,0.1,2,0.1,2.7,0.7
		C73.3,107.7,71.8,106.8,70.9,106.9"/>
	<path id="path138" inkscape:connector-curvature="0" class="st1" d="M122.7,134.1c-0.9,0.5,0.1,3.4,2.2,3.2
		c-0.6-0.5-0.9-1.4-0.9-2.3C123.9,134.4,123.6,134.3,122.7,134.1"/>
	<path id="path144" inkscape:connector-curvature="0" class="st1" d="M127.3,135.1c0,0-1-0.9-1.5-1.1c-0.4-0.1-0.5-0.1-0.5,0.3
		c-0.5,2.3,1.3,3,1.3,3C126.7,136,127.3,135.1,127.3,135.1"/>
	<path id="path150" inkscape:connector-curvature="0" class="st1" d="M131,133.5c0,0-0.5-0.7-1.5-0.5c-0.6,1.5,0.5,3.1,1.1,3.1
		C130.1,134.9,131,133.5,131,133.5"/>
	<path id="path156" inkscape:connector-curvature="0" class="st1" d="M107.7,144.1c0,0,0.1-1.3-0.7-1.9c-0.3-0.2-0.5-0.1-0.7,0.2
		c-0.3,0.4-1,2,0.1,3.1C107.2,144.2,107.7,144.1,107.7,144.1"/>
	<path id="path162" inkscape:connector-curvature="0" class="st1" d="M110.7,145.1c0.1-0.4,0.5-1.2,0.7-1.4c0.5-0.5,0.5-0.7,0.3-1.1
		c-0.3-0.7-1-1-1.3-0.3C110.2,142.8,109.9,144.4,110.7,145.1"/>
	<path id="path168" inkscape:connector-curvature="0" class="st1" d="M116.5,141.1c0,0-0.5-0.7-0.7-0.9c-0.4-0.3-0.7-0.1-1,0.5
		c-0.1,0.3-0.1,2,1.5,2.3C116.1,141.7,116.5,141.1,116.5,141.1"/>
	<path id="path174" inkscape:connector-curvature="0" class="st1" d="M73.1,133.1c0,0-1.7,0.4-1.5,1.9c0.6-0.1,1.1-0.2,1.3-0.3
		c0.4-0.1,0.4-0.4,0.4-0.7C73.4,133.3,73.1,133.1,73.1,133.1"/>
	<path id="path180" inkscape:connector-curvature="0" class="st1" d="M73.4,138.7c-0.4-0.5-0.4-1.6,0.2-2.3c1.1-1.1,2.7,0.5,1.4,1.3
		c-0.6,0.4-0.8,0.3-1.1,0.5C73.7,138.3,73.5,138.6,73.4,138.7"/>
	<path id="path186" inkscape:connector-curvature="0" class="st1" d="M76.9,141.4c-0.8-0.5-0.3-2.4,0.4-2.9c1.7-1.2,1.6,1.1,0.9,1.6
		C77.7,140.5,77.5,140.6,76.9,141.4"/>
	<path id="path192" inkscape:connector-curvature="0" class="st1" d="M87.3,72.3L87.3,72.3c0.1,0.1,0.3,0.3,0.3,0.3
		s-1.2-0.3-2.3-0.4c0,0,0.5-0.5,1.1-0.3c0.7-2.2,3.4-2.3,3.7-1.9C89.9,70.1,87.9,70,87.3,72.3 M85.2,67.6L85.2,67.6
		c-1.3-1.7-3.1-1.6-3.1-1.6c1-2.2,3.7-0.3,4.8-0.9c-0.3,0.9-1.7,0.7-1.7,0.7s-0.1,0.4-0.3,0.7C85.1,66.6,85.4,67.1,85.2,67.6
		 M96.5,72c0,0-0.5,0.5-1.1,0.8c-1.2-2.2-1.9-1.9-1.9-1.9c0.1,0.3-0.1,0.6-0.1,0.6s-1.2-0.3-1.5-2.3c1.3-0.3,3.6,0.7,3.6,0.7
		c-3.1-3.7-3.7-2.3-4.8-3.6c-1.4-1.7-1.7-2.4-5.1-3.9c-3.5-1.3-7.3-0.5-6.1,2.5c-2.9-2.3,1.3-5.3,5.1-4.1c0,0-0.7-3.1-3.3-2.7
		c0,0,0.9,1,0.9,1.7c-3.8-4.1-6.9-2.7-8.5-1.4c1.4-0.1,4.5,1.3,4.9,2.5c-5-2.7-10.3-0.7-11.5,2.1c3.5-0.1,5.6,1.8,6.1,2.6
		c1.1-0.5,4.5-1,5.9,0.7c-5.9-1.3-6.5,1.9-8.7,4.3c-2.1,2.3-6.2,3.8-8.5,5.1c-2.3,1.3-6.5,5.3-5.9,10.7c3.5-3.9,9.5-5.1,11.7-7.5
		c3.2-3.4,5.9-11.1,10.6-9.7c-3.6-0.2-6.3,6.7-7.3,7.8c-2.6,3-4.7,3.3-8.6,5.9c-5.9,4-10.1,12.3-5.8,16.3c3.1-8.9,10-8.5,14.1-13.1
		c3.8-4.1,3.7-15.6,11.9-13.3c-7.3,0.2-6.1,7.9-9.4,11.8c-3.9,4.7-6.3,5.1-10.1,8.4c-4.1,3.6-6.2,11.1-4.3,14.5c0,0,2.3-1.5,3.9-1.4
		c2.7,0.1,4.3-0.3,4.3-0.3c-2.2-7.7,5.2-10.8,8.8-14.3c5.1-5,0.5-10.8,4.5-15c-2.3,6.3,1,5.5-0.9,10.9c-1.2,3.3-2.7,4.1-7.3,8.2
		c-4.4,3.9-3.6,8-3.5,9.5c0,0,1.2-0.1,1.8,0.3c0,0,1.7-0.5,3.2,1.9c2.5-0.1,4.9,1.2,4.9,1.2s-0.7-3.3,1.5-7c0,0-2.6,2-4.4,1.9
		c4.7-2.8,11.1-7.9,9.9-15.9c-1.9-0.1-3.1,2-3.5,3.3c0-5.3,5.4-5.3,7.1-3.7c0,0,2.7-0.2,3.3-2.5c-2.8-2.5-5.1-1.3-7.9-1.1
		c-1.3,0.1-3.2-1.4-3.1-3.6c0.1-2.5,2.3-5.8,5.7-5.8c2.7,0,6.9,3.3,8.3-1.1c0.3,0.7-0.1,2-0.1,2s0.5,0.1,0.8,0.4
		C97.5,75.2,97.3,72.8,96.5,72"/>
	<path id="path198" inkscape:connector-curvature="0" class="st1" d="M139.5,119.9L139.5,119.9c-0.1,2.3-1.3,3.3-1.3,3.3
		s1-2.9-0.1-4.4c0.4,0.1,0.9,0.5,0.9,0.5s1-1,0.2-3.2C141.2,117.6,139.5,119.9,139.5,119.9 M121.5,98.1L121.5,98.1
		c0,0,4.5,0,4.5,5.1C124.5,99.5,121.5,98.1,121.5,98.1 M109.1,108L109.1,108c-2.1,2.1-4.2,2.1-4.2,2.1s3.9-1.7,5.5-6.3
		c0.2,1.1-0.2,2.7-0.2,2.7s2.5-0.1,3.7-3.3C113.9,103.1,114.3,106.7,109.1,108 M91.9,129.1L91.9,129.1c1.2-2.9,0.9-6.1,0.9-6.1
		S95.3,126.3,91.9,129.1 M139.6,113.1c-1.4-0.3-2.5-1.4-1.3-5.5c0.8-2.7,2.9-7.1,0.4-10.7c0,0,0.3,0,0.7,0.1
		c-0.3-2.4-3.7-4.4-3.7-4.4s0.3-0.3,1.2-0.2c-1.3-1.9-4.5-3.7-4.5-3.7c3.6,1.1,5.1,0.9,6-3.1c0.9-3.8-3.3-7.5-5.9-8.3
		c-5.6-1.7-11.3,0-15.6-0.3c-11.1-0.8-8.7-13.1,1.1-9.4c0.5-0.5,0.7-0.3,0.7-0.3c-0.9,2.3,0.8,4.8,3.1,5.3c1.9,0.4,1.9-0.3,3.4-0.2
		c2.1,0.1,2,2.1,4.5,1.1c-2.5-2.7-3-3.7-6-2.8c-1.5,0.5-3.3,0.3-3.7-1.1c1.1,0.8,1.7,0.8,3.7,0.1c3.1-1.2,4.1,1.1,4.5,1.5
		c3.2,2.5,2.8,1.4,5.8,1c-1.2-2.9-3-0.6-5.9-3.4c-0.8-0.8-1.8-2.1-3.5-1.7c1.5-0.5,2.8-0.6,4.3,1.1c0.8,0.9,1.6,1.9,4.4,1.9
		c-0.8-3.1-3.4-2.4-4.9-3.3c-0.8-0.5-2.1-2.3-3.8-2.6c-1.3-0.2-3.5-0.1-4.2,1.3c1,0.6,1.1,1.1,1.1,1.1c-17.7-7.7-20,12.1-6.6,12.9
		c3.9,0.3,13.2-0.4,16.3,1c4.1,1.8,4.1,6.5-0.7,6.9c-2,0.2-9.4-2.8-18.1-0.3c-5.7,1.6-15.5,3.1-21.3,0.9c-0.7,0.3-1.3,0.6-1.3,0.6
		c0.6,0.7,0.5,1.3,0.5,1.3c-2.5-2.4-4-2.1-4-2.1c1.8,4.8-1.3,9.5-3.5,11.3c-3.7,3-4.9,12.1,1.3,15.6c0,0,0.6-6.5,2.5-7.2
		c-1.7,7.1-0.6,11.4-0.8,12.9c-0.4,3.3-1.7,10.1-2.1,12.4c-0.5,3-2.7,3.3-4.5,1.7c-1.9-1.6-3.7-3.3-5.5-1.7c0.3,0.5,0.5,1.7,0.5,1.7
		s2.6-1.8,3.9,0.1c-2.5-0.5-2.9,0.8-2.9,0.8s1.1,0.7,1.2,1.9c0,0.1,0.5-0.4,1-0.6c0.6-1.1,3.9-1.6,4.8,0.1c-2.6-0.7-3.4,0.3-3.4,0.3
		s1.3,1.5-0.1,3.5c0.7,0.5,3.3,0.5,4.1,0.9c0.4,0.1,2.5,1.1,3.1-0.5c0.9-2.1,2.1-0.7,2.4-1.3c4.7-7.9,6.8-14.9,6.8-14.9
		s1,0.5,1.5,1.5c0.8-1.5-0.5-5.3-0.5-5.3s1.4,1.7,3.2,0.9c-0.9-0.5-1.9-2-1.9-2s2.7,0.9,3.5,0c-1-0.3-3.2-2.7-1.9-6
		c0.5-1.4,2-4.8,0.9-7.9c1.9,1.7,1.5,5.5,0.7,6.9c-1.3,2.3-1,4.3-0.1,4.5c3.9,1,4.9,0,4.9,0s-1.7-0.7-2.4-1.7c0.5,0,3.3,0.2,4.7-0.7
		c5.3-3.4,8.1-9,16-5.6c0.1-1-0.2-4.7-4.7-6.9c5.1,0.3,5.9,5.9,5.7,7.1c-0.1,1.7-0.1,3.1,0,3.7c0,0,0.9-1.2,1.6-0.8
		c-1.1,4.5,3.2,7.7,7.5,7.9c-0.3,0.3-1,0.4-1,0.4s-0.8,3.1-4.1,4.9c-1.9,1.1-7.3,3.5-6.3,7.3c0.5,0.1,0.9,0.1,0.9,0.1
		s-0.2-3.8,3.3-3.8c-2.9,1.8-2,3.5-2,3.5s1.5,0.2,2.4,0.8c0.1-0.5,0.5-1.1,0.7-1.5c0.2-0.5-0.1-1.4-0.1-1.5c0.2-0.8,1.6-3.6,4-3.1
		c-3.9,1.9-2.6,4-2.6,4s1.8,0.1,2.5,1.4c2.1-0.3,8.5-8,9.4-13.2C142.8,113.3,140.8,113.3,139.6,113.1"/>
	<path id="path204" inkscape:connector-curvature="0" class="st2" d="M99.6,150L99.6,150c-14,0-27.1-5.5-36.9-15.4
		c-9.7-9.8-15.1-22.8-15.1-36.6c0-28.7,23.3-52,52-52c14,0,27.1,5.5,36.9,15.4c9.7,9.8,15.1,22.8,15.1,36.6
		C151.6,126.7,128.3,150,99.6,150 M167.9,101v-5.9h-9.6c-0.7-13.6-5.9-26.3-15.1-36.4l6.8-6.8l-4.2-4.2l-6.9,6.7
		c-10.1-9.1-22.8-14.4-36.4-15.1v-9.7h-5.9v9.7C82.7,40,69.9,45.6,60.2,54.5l-6.8-6.9l-4.2,4.2l6.9,6.9
		c-8.8,9.7-14.4,22.5-15.1,36.4h-9.6v5.9h9.6c0.7,13.6,5.9,26.3,15.1,36.4l-6.8,6.8l4.2,4.2l6.8-6.8c10.1,9.1,22.8,14.4,36.4,15.1
		v9.7h5.9v-9.7c13.9-0.7,26.7-6.3,36.4-15.1l6.9,6.9l4.2-4.2l-6.9-6.9c8.8-9.7,14.4-22.5,15.1-36.4L167.9,101"/>
	<path id="path210" inkscape:connector-curvature="0" class="st1" d="M62.6,181.1h-5.7l-1,15.6h3.9l0.5-11.9l2.6,11.6h3.3l3.2-11.6
		h0.1l0.3,11.9h4.1L73,181.1h-5.5l-2.5,9.9h-0.1L62.6,181.1z"/>
	<path id="path216" inkscape:connector-curvature="0" class="st1" d="M81,194L81,194c-1.3,0-1.3-1-1.3-1c0-1.5,2-1.5,2-1.5h0.7v0.9
		C82.4,193.9,81,194,81,194 M82.7,195.7l0.2,1.1h3.7l-0.1-6.7c0-5.5-5.3-5.1-5.3-5.1l-3,0.4c-1,0.1-1.7,0.7-1.7,0.7l0.7,2.7
		c0,0,0.7-0.4,1.5-0.6l1.8-0.3c0,0,1.9-0.2,1.9,1.1h-0.8c0,0-6-0.1-5.9,4.4c0,0,0,3.6,3.7,3.6c0,0,2.1,0,3.1-1.1
		C82.5,195.7,82.7,195.7,82.7,195.7"/>
	<path id="path222" inkscape:connector-curvature="0" class="st1" d="M94.8,193.5L94.8,193.5c-2.1,0-2.1-2.7-2.1-2.7
		c0-2.6,1.9-2.7,1.9-2.7c1.8,0,1.9,1.5,1.9,1.5l-0.1,2.5C96.2,193.5,94.8,193.5,94.8,193.5 M96.9,195.1l0.2,1.6h3.7l-0.1-16.5h-4.2
		v5.9c0,0-0.7-1.1-2.9-1.1c-2.2,0-5.1,1.5-5.1,6c0,0-0.1,5.9,4.9,5.9C93.4,196.9,95.7,196.9,96.9,195.1"/>
	<path id="path228" inkscape:connector-curvature="0" class="st1" d="M110.1,189.6L110.1,189.6h-3.5c0,0,0.1-1.9,1.9-1.9
		C108.5,187.7,110.1,187.7,110.1,189.6 M108.7,185c-5.9,0-5.9,6.1-5.9,6.1c0,6.1,6.3,5.8,6.3,5.8c2.7,0,4.3-0.7,4.3-0.7l-0.5-2.8
		c-6.1,1.2-6.1-0.9-6.1-0.9h7.1C114.9,184.7,108.7,185,108.7,185"/>
	<path id="path232" inkscape:connector-curvature="0" class="st1" d="M120.1,185.3h-4.2v11.4h4.2V185.3z"/>
	<path id="path238" inkscape:connector-curvature="0" class="st1" d="M126.9,191v5.7h-4.2l-0.1-11.4h3.5l0.2,2.1
		c0,0,0.8-2.7,3.9-2.3v3.9C130.3,189,126.9,188.1,126.9,191"/>
	<path id="path244" inkscape:connector-curvature="0" class="st1" d="M120.3,181.9c0,1.2-1.1,2.1-2.3,2.1s-2.3-0.9-2.3-2.1
		c0-1.2,1.1-2.1,2.3-2.1C119.2,179.7,120.3,180.7,120.3,181.9"/>
	<path id="path250" inkscape:connector-curvature="0" class="st1" d="M136.5,194L136.5,194c-1.3,0-1.3-1-1.3-1c0-1.5,2-1.5,2-1.5
		h0.7v0.9C137.9,193.9,136.5,194,136.5,194 M138.1,195.7l0.2,1.1h3.7l-0.1-6.7c0-5.5-5.3-5.1-5.3-5.1l-3,0.4c-1,0.1-1.7,0.7-1.7,0.7
		l0.7,2.7c0,0,0.7-0.4,1.5-0.6l1.8-0.3c0,0,1.9-0.2,1.9,1.1h-0.8c0,0-6-0.1-5.9,4.4c0,0,0,3.6,3.7,3.6c0,0,2.1,0,3.1-1.1
		C137.9,195.7,138.1,195.7,138.1,195.7"/>
	<path id="path256" inkscape:connector-curvature="0" class="st1" d="M143.3,23.5c-0.4,0.9-0.5,1.6-0.3,2.2c0.2,0.6,0.5,1,1.1,1.3
		c0.5,0.3,1.1,0.2,1.6,0c0.5-0.3,1-0.9,1.4-1.7c0.4-0.9,0.5-1.6,0.3-2.1c-0.2-0.6-0.5-1-1-1.2c-0.5-0.3-1.1-0.3-1.7,0
		C144.1,22,143.7,22.6,143.3,23.5 M139.5,21.7c0.7-1.5,1.7-2.5,3.2-3.1s3.1-0.4,4.8,0.4c2,0.9,3.2,2.1,3.7,3.7
		c0.4,1.3,0.3,2.6-0.3,3.9c-0.7,1.5-1.7,2.5-3.2,3.1s-3.1,0.4-4.8-0.4c-1.6-0.7-2.7-1.7-3.3-2.9C138.7,24.9,138.7,23.4,139.5,21.7
		 M121,10.1l3.7,1.1l-0.5,1.5c0.7-0.5,1.4-0.8,2-0.9c0.6-0.1,1.3-0.1,2.1,0.1c0.8,0.3,1.5,0.6,1.9,1c0.4,0.5,0.7,1,0.8,1.7
		c0.8-0.5,1.5-0.8,2.1-0.9c0.6-0.1,1.3-0.1,2,0.2c1.1,0.3,1.9,0.9,2.3,1.7c0.5,0.9,0.5,2,0.1,3.4l-1.9,6.5l-4-1.1l1.7-5.9
		c0.1-0.5,0.1-0.9,0-1.1c-0.1-0.5-0.5-0.7-0.9-0.8c-0.5-0.1-0.9-0.1-1.3,0.2c-0.4,0.3-0.7,0.7-0.9,1.5l-1.5,5.3l-4-1.1l1.7-5.7
		c0.1-0.5,0.2-0.8,0.2-0.9c0-0.3-0.1-0.5-0.3-0.7c-0.1-0.2-0.4-0.4-0.7-0.5c-0.5-0.1-0.9-0.1-1.3,0.2c-0.4,0.3-0.7,0.8-0.9,1.6
		l-1.5,5.3l-4-1.1C118,20.5,121,10.1,121,10.1z M113.1,8.7l4.1,0.7l-1.9,10.7l-4.1-0.7L113.1,8.7z M113.8,4.6l4.1,0.7l-0.5,2.8
		l-4.1-0.7L113.8,4.6z M107.9,4l-0.3,4.1l2.3,0.1l-0.2,3l-2.3-0.1l-0.3,3.8c0,0.5,0,0.8,0.1,0.9c0.1,0.3,0.3,0.4,0.7,0.4
		c0.3,0,0.7-0.1,1.3-0.2l0.1,2.9c-1.1,0.1-2,0.2-2.9,0.1c-1-0.1-1.8-0.3-2.3-0.5c-0.5-0.3-0.8-0.7-1-1.3c-0.2-0.5-0.3-1.5-0.2-2.7
		l0.3-3.8l-1.5-0.1l0.2-3l1.5,0.1l0.1-2C103.6,5.8,107.9,4,107.9,4z M96.2,3.5l3.5-0.2l-3.1,3.2l-2,0.1C94.7,6.7,96.2,3.5,96.2,3.5z
		 M94.5,8l4.1-0.2l0.5,10.8L95,18.8L94.5,8z M84.2,9.2l3.9-0.5l0.3,1.7c0.3-0.8,0.6-1.4,0.9-1.7c0.3-0.3,0.8-0.5,1.4-0.7
		c0.6-0.1,1.3,0,2.1,0.3l-0.9,3.1c-0.5-0.1-0.9-0.2-1.2-0.1c-0.5,0.1-0.9,0.3-1.1,0.9c-0.3,0.7-0.4,1.9-0.1,3.6l0.5,3.6l-4.1,0.6
		C85.7,19.9,84.2,9.2,84.2,9.2z M78,16.5c-0.5,0.3-1,0.7-1.5,1c-0.7,0.5-1.2,0.8-1.3,1.1s-0.2,0.5-0.1,0.8c0.1,0.3,0.3,0.5,0.5,0.7
		c0.3,0.1,0.6,0.1,1.1,0c0.5-0.1,0.8-0.3,1.1-0.7c0.3-0.3,0.5-0.7,0.6-1c0.1-0.3,0-0.8-0.1-1.3C78.1,17.2,78,16.5,78,16.5z
		 M73.9,15.5L70,16.1c-0.1-0.7,0-1.3,0.2-1.7c0.1-0.5,0.5-0.9,0.9-1.3c0.3-0.3,0.7-0.6,1.4-0.9c0.6-0.3,1.3-0.5,2-0.7
		c1.2-0.3,2.2-0.5,2.9-0.6c0.7-0.1,1.5,0,2.1,0.3c0.4,0.2,0.8,0.5,1.1,1c0.3,0.5,0.6,1,0.7,1.5l1.3,4.6c0.1,0.5,0.3,0.9,0.4,1.1
		s0.4,0.6,0.7,0.9l-3.7,1.1c-0.2-0.2-0.4-0.4-0.5-0.5c-0.1-0.1-0.2-0.3-0.3-0.6c-0.4,0.7-0.8,1.1-1.3,1.5c-0.6,0.5-1.4,0.9-2.3,1.1
		c-1.3,0.3-2.3,0.3-3.1-0.1c-0.8-0.4-1.3-1-1.6-1.9c-0.2-0.8-0.2-1.5,0.1-2.1c0.3-0.7,1.1-1.3,2.3-1.9c1.4-0.7,2.3-1.2,2.7-1.5
		c0.4-0.3,0.8-0.5,1.3-0.9c-0.1-0.5-0.3-0.8-0.6-0.9c-0.3-0.1-0.7-0.1-1.1,0c-0.7,0.2-1.1,0.5-1.4,0.7
		C74.1,14.6,73.9,14.9,73.9,15.5 M48.2,17.3l5.5-2.5l5.8,7.3L58,12.9l5.5-2.5l6.1,13.7l-3.5,1.5l-4.6-10.4l1.9,11.6l-3.1,1.4
		l-7.3-9.2l4.6,10.4L54.3,31L48.2,17.3"/>
</g>
</svg>
