<?xml version="1.0" encoding="utf-8"?>
<!-- Generator: Adobe Illustrator 21.1.0, SVG Export Plug-In . SVG Version: 6.00 Build 0)  -->
<svg version="1.1" id="Layer_1" xmlns="http://www.w3.org/2000/svg" xmlns:xlink="http://www.w3.org/1999/xlink" x="0px" y="0px"
	 viewBox="0 0 200 200" style="enable-background:new 0 0 200 200;" xml:space="preserve">
<style type="text/css">
	.st0{fill:#FF0000;}
	.st1{fill:#FFFFFF;}
	.st2{fill:#576373;}
</style>
<g>
	<polygon class="st0" points="108,174.2 108,109.1 108,90.2 92,90.2 92,109.1 92,174.2 	"/>
	<path class="st0" d="M164.5,137.4V90.6v-0.4h-16v5.7v66.6c-3.8,4.6-7.9,8.9-12.2,12.8V99.9v-9.7h-16v15v82c-3.9,2.3-8,4.4-12.2,6.1
		v-6.8H92v6.8c-4.2-1.7-8.3-3.7-12.2-6.1v-82v-15h-16v9.7v75.4c-4.3-3.9-8.4-8.2-12.2-12.8V95.9v-5.7h-16v0.4v46.8
		c-7.6-15.5-12.6-33.1-14.3-51.5l-4.1-1.4c0.8,10.3,2.7,20.5,5.5,30.4c3.9,13.6,9.6,26.4,17,37.8c7.4,11.5,16.1,21.4,26,29.3
		c10.2,8.2,21.4,14.2,33.3,17.7c0.4,0.1,0.8,0.2,1.1,0.2c0.4,0,0.8-0.1,1.1-0.2c11.8-3.5,23-9.5,33.3-17.7c9.9-8,18.7-17.8,26-29.3
		c7.3-11.5,13-24.2,17-37.8c2.9-9.9,4.7-20.1,5.5-30.4l-4.1,1.4C177.1,104.4,172.1,121.9,164.5,137.4z"/>
	<path class="st1" d="M183.2,80.2l-4.1,1.3c0.2-3.3,0.3-6.6,0.3-9.9c0-34.5-10.8-56.2-10.8-56.2S143.9,4,100,4
		C56.1,4,31.4,15.5,31.4,15.5S20.5,37.2,20.5,71.7c0,3.3,0.1,6.6,0.3,9.9l-4.1-1.3c0.1,1.4,0.2,2.9,0.3,4.3l4.1,1.4
		c1.7,18.5,6.7,36,14.3,51.5V90.2h16v72.3c3.8,4.6,7.9,8.9,12.2,12.8V90.2h16v96.9c3.9,2.3,8,4.4,12.2,6.1v-6.8h16v6.8
		c4.2-1.7,8.3-3.7,12.2-6.1V90.2h16v85.2c4.3-3.9,8.4-8.2,12.2-12.8V90.2h16v47.3c7.6-15.5,12.6-33.1,14.3-51.5l4.1-1.4
		C183,83.1,183.1,81.7,183.2,80.2z M108,174.2H92v-84h16V174.2z"/>
	<path d="M183.5,71.7c0-18.3-3-33-5.6-42.1c-2.8-10-5.6-15.6-5.7-15.8c-0.4-0.8-1.1-1.5-1.9-1.8c-0.3-0.1-6.7-3.1-18.6-6
		C140.9,3.2,123.1,0,100,0C76.9,0,59.1,3.2,48.3,5.9c-11.9,2.9-18.3,5.9-18.6,6c-0.8,0.4-1.5,1-1.9,1.8c-0.1,0.2-2.9,5.9-5.7,15.8
		c-2.5,9.1-5.6,23.8-5.6,42.1c0,2.9,0.1,5.7,0.2,8.5l4.1,1.3c-0.2-3.3-0.3-6.6-0.3-9.9c0-34.5,10.8-56.2,10.8-56.2S56.1,4,100,4
		c43.9,0,68.6,11.5,68.6,11.5s10.8,21.6,10.8,56.2c0,3.3-0.1,6.6-0.3,9.9l4.1-1.3C183.4,77.4,183.5,74.6,183.5,71.7z"/>
	<path d="M40.6,65.3h-8v14.3h8c3.1,0,5.6-2.1,5.6-7.1C46.1,67.4,43.7,65.3,40.6,65.3z M41.7,76.2c-1.1,1.1-2.8,1.1-4.6,1.1v-9.8
		c1.8,0,3.6,0.1,4.6,1.1c0.7,0.7,1,1.5,1,3.8C42.6,74.8,42.4,75.5,41.7,76.2z"/>
	<polygon points="48.6,79.6 59.2,79.6 59.2,77.3 53.2,77.3 53.2,73.4 58,73.4 58,71.2 53.2,71.2 53.2,67.6 59.2,67.6 59.2,65.3 
		48.6,65.3 	"/>
	<polygon points="102,69.8 101.9,69.8 99.2,65.3 94.6,65.3 98.8,72.3 98.8,79.6 103.4,79.6 103.4,72.5 108,65.3 104.9,65.3 	"/>
	<polygon points="164.4,65.3 161.5,69.8 161.4,69.8 158.7,65.3 154.1,65.3 158.3,72.3 158.3,79.6 162.9,79.6 162.9,72.5 167.4,65.3 
			"/>
	<path d="M92.4,69.8c0-3.2-2.4-4.5-4.8-4.5h-8.9v14.3h5.1v-7.1v-4.6h2.3c0.8,0,1.6,0.5,1.6,2c0,1.9-1.4,2.6-2.2,2.6h-1.7l4.4,7.1
		h4.5L89,74.2C90.9,73.8,92.4,72.4,92.4,69.8z"/>
	<path d="M75.6,69.8c0-3.2-2.4-4.5-4.8-4.5h-8.9v14.3H67v-7.1v-4.6h2.3c0.8,0,1.6,0.5,1.6,2c0,1.9-1.4,2.6-2.2,2.6H67l4.4,7.1h4.5
		l-3.7-5.4C74,73.8,75.6,72.4,75.6,69.8z"/>
	<rect x="132.4" y="65.3" width="5" height="14.3"/>
	<polygon points="138.9,67.3 143.4,67.3 143.4,79.6 147.9,79.6 147.9,67.3 152.5,67.3 152.5,65.3 138.9,65.3 	"/>
	<path d="M117.5,72.5c0,2.5,0.6,4.2,2.2,5.5c1.6,1.3,3.1,1.9,6,1.9c1.7,0,2.8-0.2,4.3-0.7l0.2-2.4c-1.6,1.1-3.4,0.9-4.6,0.9
		c-2.2,0-3.6-1.9-3.6-5.1c0-3.2,1.2-5.1,4.3-5.1c2.4,0,2.6,0,4.1,1.1l-0.5-2.6c-1.5-0.5-2.6-0.7-4.3-0.7c-3,0-4.4,0.6-6,1.9
		C118.2,68.3,117.5,70,117.5,72.5z"/>
	<polygon points="80.4,82.7 82.4,82.7 82.4,88 84.3,88 84.3,82.7 86.3,82.7 86.3,81.9 80.4,81.9 	"/>
	<polygon points="107.8,81.9 109.7,81.9 109.7,87.2 112.4,87.2 112.4,88 107.8,88 	"/>
	<polygon points="123.5,81.9 125.5,81.9 125.5,87.2 128.1,87.2 128.1,88 123.5,88 	"/>
	<polygon points="102.2,81.9 104.1,81.9 104.1,87.2 106.8,87.2 106.8,88 102.2,88 	"/>
	<polygon points="58.8,88 61.1,88 61.1,85.4 63,85.4 63,84.4 61.1,84.4 61.1,82.8 63.8,82.8 63.8,81.9 58.8,81.9 	"/>
	<path d="M133.6,81.9v3.6c0,1-0.5,1.7-1.3,1.7c-0.6,0-0.9-0.7-0.9-1.7v-3.6h-2.6v3.2c0,1.2,0.4,2.7,2.3,2.7h1.2c1.2,0,2-0.8,2-2.3
		v-3.6H133.6z"/>
	<path d="M91.5,84.8c0.5-0.2,0.8-0.8,0.8-1.4c0-0.8-0.6-1.5-1.3-1.5h-3.7V88H91c0.7,0,1.3-0.8,1.3-1.7C92.3,85.6,91.9,85,91.5,84.8z
		 M89.6,82.7h0.8c0.2,0,0.4,0.3,0.4,0.7c0,0.4-0.2,0.7-0.4,0.7h-0.8V82.7z M90.2,87h-0.6v-1.9h0.6c0.5,0,0.9,0.4,0.9,1
		C91.1,86.5,90.9,87,90.2,87z"/>
	<path d="M140.4,84.8c0.5-0.2,0.8-0.8,0.8-1.4c0-0.8-0.6-1.5-1.3-1.5h-3.7V88h3.7c0.7,0,1.3-0.8,1.3-1.7
		C141.2,85.6,140.9,85,140.4,84.8z M138.6,82.7h0.8c0.2,0,0.4,0.3,0.4,0.7c0,0.4-0.2,0.7-0.4,0.7h-0.8V82.7z M139.2,87h-0.6v-1.9
		h0.6c0.5,0,0.9,0.4,0.9,1C140.1,86.5,139.9,87,139.2,87z"/>
	<path d="M98.4,88h2.1l-3-6.2h-1.2l-3,6.2h1.6l0.5-1.1h2.4L98.4,88z M95.9,85.9l0.7-1.5l0.7,1.5H95.9z"/>
	<path d="M75.9,81.9c-0.9,0-1.8,0.2-2.4,0.7c-0.6,0.5-0.9,1.3-0.9,2.3c0,1,0.3,1.8,0.8,2.4c0.5,0.6,1.5,0.8,2.5,0.8
		c1.8,0,2.8-1.1,2.8-3.1C78.7,83,77.6,81.9,75.9,81.9z M76.1,87.2c-0.8,0-1-0.7-1-2.3c0-1.5,0.2-2.2,1-2.2c0.6,0,1,0.7,1,2.3
		C77.1,86.5,76.7,87.2,76.1,87.2z"/>
	<path d="M68.1,81.9c-0.9,0-1.8,0.2-2.4,0.7c-0.6,0.5-0.9,1.3-0.9,2.3c0,1,0.3,1.8,0.8,2.4c0.5,0.6,1.5,0.8,2.5,0.8
		c1.8,0,2.8-1.1,2.8-3.1C70.9,83,69.8,81.9,68.1,81.9z M68.3,87.2c-0.8,0-1-0.7-1-2.3c0-1.5,0.2-2.2,1-2.2c0.6,0,1,0.7,1,2.3
		C69.3,86.5,68.9,87.2,68.3,87.2z"/>
	<path d="M116.6,85c0,1.1,0.3,1.8,0.9,2.3c0.7,0.6,1.3,0.8,2.5,0.8c0.7,0,1.2-0.1,1.8-0.3l0.1-1c-0.7,0.5-1.4,0.4-1.9,0.4
		c-0.9,0-1.5-0.8-1.5-2.2c0-1.3,0.5-2.2,1.8-2.2c1,0,1.1,0,1.7,0.5l-0.2-1.1c-0.6-0.2-1.1-0.3-1.8-0.3c-1.2,0-1.9,0.2-2.5,0.8
		C116.9,83.2,116.6,83.9,116.6,85z"/>
	<circle class="st1" cx="100" cy="136.3" r="33"/>
	<path d="M128.5,120.3L128.5,120.3C128.5,120.3,128.5,120.3,128.5,120.3c-1.5-2.7-3.4-5.2-5.6-7.3c-0.1-0.1-0.2-0.2-0.3-0.3
		c0,0,0,0,0,0c-3.1-1.7-7.1-2.9-11.2-1.7c0,0,2.9,3.7,5.6,11c6.5,0.7,10.4,3.8,10.4,3.8l0.8-3.7c1.3,3.5,2,7.3,2,11.2
		c0,3.6-0.6,7.1-1.7,10.4l-1.5-2.6c0,0-2.7,5.7-7.8,8.1c0,3.5-0.5,6.8-1.2,9.2c-3.6,2.8-7.7,4.9-12.3,5.9l0.2-1.5
		c-7.1-0.7-11.6-5.7-11.6-5.7s-6.2,2.7-11.3,3.3l-0.2,0.7c-4.1-2.3-7.7-5.5-10.4-9.3c1.1,0.8,2.4,1.5,3.9,2c0.6-6,2.9-12.2,2.9-12.2
		s-3.8-3.3-5.7-9.3c0,0-3.1,1.9-6.2,6.4c0.3,4,1.3,7.8,2.9,11.3c0.5,0.4,1,0.9,1.6,1.4c2.5,5.1,6.2,9.5,10.8,12.7c5,3.2,11,5,17.4,5
		c18,0,32.7-14.6,32.7-32.7C132.7,130.5,131.1,125,128.5,120.3z"/>
	<path d="M99,148.4c6.7-1.8,12.4-6.5,12.4-6.5c-0.5-8-2.2-13.5-2.2-13.5s-3.9-1.9-13.9-2.1c0,0-4.3,4.6-6.6,12.8
		C88.7,139.1,92.9,145.1,99,148.4z"/>
	<path d="M79.2,118.3c0,0,5.2-1.7,11.6-1.7c3.2-5.1,8.8-7.6,8.8-7.6c-2.3-1.5-5.2-2.6-7.1-3.2c-5,1.2-9.6,3.7-13.3,7
		C79,114.4,78.9,116.3,79.2,118.3z"/>
	<path d="M84.2,176c0,0-0.5,0.3-1.1,0.5l-0.1,1.8h0.9c0.3,0,0.6,0.1,0.6,1l-0.2,5.7h2.8l0.4-8.9H84.2z"/>
	<path d="M95,175.7c-3.2,0-4.5,1.2-4.5,3.3c0,1.8,1,3.4,4.1,2.6c-0.4,0.9-1.1,1.9-2.3,3.3h3.3c2.4-2.9,2.9-3.8,2.9-6.5
		C98.5,176.5,97.1,175.7,95,175.7z M94.3,180.2c-0.9,0-1.3-0.7-1.3-1.6s0.4-1.6,1.3-1.6c0.9,0,1.6,0.2,1.6,1.6
		C95.9,179.7,95.6,180.2,94.3,180.2z"/>
	<path d="M107.7,177.6c0-1.5-1.5-2-3.9-2c-3.2,0-3.5,0.4-3.8,2.1h1.6c0.1-0.5,0.4-0.6,1.5-0.6c0.9,0,1.6,0,1.6,1.2
		c0,1.5-4.9,3.6-4.9,6.6h7.4l0.1-1.4H103C105,182.2,107.7,179.6,107.7,177.6z"/>
	<path d="M115.4,179.9c0.7-0.4,1.4-1,1.4-1.9c0.1-1.5-1.4-2.3-3.5-2.3c-1.1,0-2.2,0.2-2.9,0.5c-0.7,0.4-1.2,1-1.2,1.8
		c0,0.8,0.3,1.4,0.9,1.8c0.1,0.1,0.3,0.1,0.4,0.2c-0.1,0.1-0.3,0.1-0.4,0.2c-0.8,0.4-1.3,1.1-1.4,2c0,0.9,0.3,1.5,1,2
		c0.7,0.5,1.9,0.7,3.4,0.7c2.4,0,3.8-0.9,3.9-2.6C117,181.1,116.5,180.3,115.4,179.9z M113,176.6c0.8,0,1.4,0.5,1.4,1.4
		c-0.1,1.2-0.9,1.5-1.6,1.5c-0.7,0-1.6-0.3-1.6-1.5C111.3,176.8,112.1,176.6,113,176.6z M114.5,182.2c-0.1,1.3-1,1.7-1.8,1.7
		c-0.7,0-1.3-0.4-1.3-1.7c0.1-1.3,0.5-1.5,1.5-1.5C113.9,180.6,114.6,180.9,114.5,182.2z"/>
	<path class="st0" d="M60.9,15.3l-9.5,2.8C51.2,18.2,51,18.6,51,19c0,0.4,0,0.6,0,0.9c0,0.3,0,0.5,0,0.9c0,0.4-0.2,0.8-0.5,0.9
		l-5.6,1.4c-0.2,0.1-0.4-0.2-0.4-0.6c0-0.7,0-1,0-1.6c0-0.4-0.2-0.7-0.5-0.6l-6,1.8c-0.2,0.1-0.5,0.4-0.5,0.8c0,0.6,0,0.9,0,1.5
		c0,0.3-0.2,0.7-0.5,0.7l-5.6,1.4C31.2,26.5,31,26.3,31,26c0-0.5,0-0.8,0-1.3c0-0.3-0.2-0.5-0.5-0.4c-0.1,0-1,0.3-1.4,0.4
		c-0.2,0.1-0.5,0.4-0.5,0.6c0,0.7,0,24,0,24.7c0.5,0.2,3.9,1.5,4.4,1.6c0.2,0.1,0.5-0.1,0.5-0.4c0-0.6,0-11.5,0-12.1
		c0-0.5,0.1-1,0.2-1.5c0.2-0.5,0.4-0.9,0.6-1.2c0.3-0.4,0.6-0.6,1-0.9c0.4-0.2,0.8-0.3,1.2-0.4c0.6,0,10.3-0.4,10.9-0.4
		c0.4,0,0.8,0.1,1.2,0.4c0.4,0.2,0.7,0.6,1,1.1c0.3,0.5,0.5,1,0.6,1.7c0.2,0.6,0.2,1.3,0.2,2c0,0.6,0,13.7,0,14.3c0,0.6,0,1.1,0,1.8
		c0,0.4,0.2,0.8,0.5,0.9c0.3,0.1,10.1,3.1,10.3,3.2c0-0.7,0-43.4,0-44.1C61.3,15.6,61.1,15.2,60.9,15.3z"/>
	<path d="M32.1,22.8c-0.7-0.2-0.7-0.1-1.5,0.7c0.6,0,1.1,0.5,1.1,1.2v0.8l5-1.2c0,0,0,0,0,0v-0.4L32.1,22.8z"/>
	<path d="M35.8,36.2c-0.3,0.2-0.5,0.4-0.7,0.7c-0.2,0.3-0.4,0.6-0.5,1c-0.1,0.4-0.2,0.8-0.2,1.2v11.6l7.7-5v-9.8
		c-2.5,0.1-5.1,0.2-5.4,0.2C36.3,36,36,36.1,35.8,36.2z"/>
	<rect x="62.1" y="16.8" width="0.8" height="42.5"/>
	<path d="M43.5,18.8c-0.7-0.2-0.7-0.1-1.5,0.7l0.8-0.9l-1.5,1.6l2.5-0.7c0.1,0,0.2,0,0.3,0c0.7,0,1.1,0.6,1.1,1.4v1.4l5-1.2
		c0,0,0-0.1,0-0.2v-0.5l-7.4-1.7L43.5,18.8z"/>
	<path class="st0" d="M139.1,15.3l9.5,2.8c0.2,0.1,0.5,0.5,0.5,0.9c0,0.4,0,0.6,0,0.9c0,0.3,0,0.5,0,0.9c0,0.4,0.2,0.8,0.4,0.9
		l5.6,1.4c0.2,0.1,0.5-0.2,0.5-0.6c0-0.7,0-1,0-1.6c0-0.4,0.2-0.7,0.5-0.6l6,1.8c0.2,0.1,0.5,0.4,0.5,0.8c0,0.6,0,0.9,0,1.5
		c0,0.3,0.2,0.7,0.5,0.7l5.6,1.4c0.2,0.1,0.5-0.1,0.5-0.4c0-0.5,0-0.8,0-1.3c0-0.3,0.2-0.5,0.5-0.4c0.1,0,1,0.3,1.4,0.4
		c0.2,0.1,0.5,0.4,0.5,0.6c0,0.7,0,24,0,24.7c-0.5,0.2-3.9,1.5-4.4,1.6c-0.2,0.1-0.5-0.1-0.5-0.4c0-0.6,0-11.5,0-12.1
		c0-0.5-0.1-1-0.2-1.5c-0.2-0.5-0.4-0.9-0.6-1.2c-0.3-0.4-0.6-0.6-1-0.9c-0.4-0.2-0.8-0.3-1.2-0.4c-0.6,0-10.3-0.4-10.9-0.4
		c-0.4,0-0.8,0.1-1.2,0.4c-0.4,0.2-0.7,0.6-1,1.1c-0.3,0.5-0.5,1-0.6,1.7c-0.2,0.6-0.2,1.3-0.2,2c0,0.6,0,13.7,0,14.3
		c0,0.6,0,1.1,0,1.8c0,0.4-0.2,0.8-0.5,0.9c-0.3,0.1-10.1,3.1-10.3,3.2c0-0.7,0-43.4,0-44.1C138.7,15.6,138.9,15.2,139.1,15.3z"/>
	<path d="M167.9,22.8c0.7-0.2,0.7-0.1,1.5,0.7c-0.6,0-1.1,0.5-1.1,1.2v0.8l-5-1.2c0,0,0,0,0,0v-0.4L167.9,22.8z"/>
	<path d="M164.2,36.2c0.3,0.2,0.5,0.4,0.7,0.7c0.2,0.3,0.4,0.6,0.5,1c0.1,0.4,0.2,0.8,0.2,1.2v11.6l-7.7-5v-9.8
		c2.5,0.1,5.1,0.2,5.4,0.2C163.7,36,164,36.1,164.2,36.2z"/>
	<rect x="137.1" y="16.8" width="0.8" height="42.5"/>
	<path d="M156.5,18.8c0.7-0.2,0.7-0.1,1.5,0.7l-0.8-0.9l1.5,1.6l-2.5-0.7c-0.1,0-0.2,0-0.3,0c-0.7,0-1.1,0.6-1.1,1.4v1.4l-5-1.2
		c0,0,0-0.1,0-0.2v-0.5l7.4-1.7L156.5,18.8z"/>
	<path class="st0" d="M133.6,12.4h-9.5c-0.5,0-0.8,0.4-0.8,0.8v3c0,0.6-0.5,1.1-1.1,1.1h-15.6c-0.6,0-1.1-0.5-1.1-1.1v-3
		c0-0.5-0.4-0.8-0.8-0.8h-9.5c-0.5,0-0.8,0.4-0.8,0.8v3c0,0.6-0.5,1.1-1.1,1.1H77.8c-0.6,0-1.1-0.5-1.1-1.1v-3
		c0-0.5-0.4-0.8-0.8-0.8h-9.5c-0.5,0-0.8,0.4-0.8,0.8v47.6h13.3c0.5,0,1-0.4,1-1V48.5c-0.2-0.2-0.4-0.5-0.4-1c0-0.6,0.2-1,0.4-1.2
		v-0.8c-0.8-0.1-1.2-0.7-1.2-1.7c0-0.9,0.5-1.6,1.2-1.9v-3.1c0-3.6,2.9-6.6,6.6-6.6h27.2c3.6,0,6.6,2.9,6.6,6.6v3.1
		c0.7,0.4,1.2,1.1,1.2,1.9c0,1-0.4,1.5-1.2,1.7v0.8c0.2,0.3,0.4,0.6,0.4,1.2c0,0.4-0.1,0.7-0.4,1v11.3c0,0.5,0.4,1,1,1h13.3V13.2
		C134.4,12.8,134.1,12.4,133.6,12.4z"/>
	<path class="st0" d="M134.4,11.1h-11.8c-0.5,0-1,0.4-1,1v2.2c0,0.5-0.4,1-1,1h-12.2c-0.5,0-1-0.4-1-1V12c0-0.5-0.4-1-1-1H93.5
		c-0.5,0-1,0.4-1,1v2.2c0,0.5-0.4,1-1,1H79.3c-0.5,0-1-0.4-1-1V12c0-0.5-0.4-1-1-1H65.6c-0.5,0-1,0.4-1,1v48.8h0.7V13.2
		c0-0.6,0.5-1.1,1.1-1.1h9.5c0.6,0,1.1,0.5,1.1,1.1v3c0,0.5,0.4,0.8,0.8,0.8h15.6c0.5,0,0.8-0.4,0.8-0.8v-3c0-0.6,0.5-1.1,1.1-1.1
		h9.5c0.6,0,1.1,0.5,1.1,1.1v3c0,0.5,0.4,0.8,0.8,0.8h15.6c0.5,0,0.8-0.4,0.8-0.8v-3c0-0.6,0.5-1.1,1.1-1.1h9.5
		c0.6,0,1.1,0.5,1.1,1.1l0,47.6h0.7V12C135.4,11.5,135,11.1,134.4,11.1z"/>
	<path class="st2" d="M92.2,33h-5c-3.4,0-6.2,2.8-6.2,6.2v2.5c0.9,0.1,1.2,0.5,1.5,0.9c0.2,0.3,0.3,0.5,1.1,0.5
		c0.3,0,0.4-0.1,0.4-0.1c0.1-0.1,0-0.4,0-0.6c0-0.4-0.1-0.9,0.3-1.2c0.2-0.2,0.5-0.3,0.9-0.3c0.7,0,1.1,0.4,1.5,0.9v-3.4
		C86.7,35.5,89.2,33,92.2,33z"/>
	<path class="st2" d="M81.2,45.7C81.2,45.6,81.2,45.6,81.2,45.7c0-0.1-0.1-0.1-0.1-0.1L81.2,45.7C81.1,45.7,81.1,45.7,81.2,45.7z"/>
	<path class="st2" d="M84.2,57.5c0-1.2,0.9-1.9,1.5-2.4c0.1-0.1,0.3-0.3,0.4-0.4c-0.1-0.2-0.7-0.3-1.5-0.5c-1.3-0.2-3.2-0.4-3.2-2.4
		c0-1.5,0.9-1.7,1.4-1.8c0.4-0.1,0.5-0.1,0.5-0.5c0-0.2-0.8-0.3-1.3-0.4c-0.3,0-0.6-0.1-1-0.2v11.3h5.7v-0.5
		C85.6,59.6,84.2,59.1,84.2,57.5z"/>
	<path class="st2" d="M118.8,45.6C118.8,45.6,118.8,45.6,118.8,45.6c0,0.1,0,0.1,0.1,0.1L118.8,45.6
		C118.9,45.6,118.9,45.6,118.8,45.6z"/>
	<path class="st2" d="M116.7,49.6c0,0.4,0,0.4,0.5,0.5c0.5,0.1,1.4,0.3,1.4,1.8c0,1.9-1.9,2.2-3.2,2.4c-0.8,0.1-1.4,0.2-1.5,0.5
		c0.1,0.1,0.3,0.2,0.4,0.4c0.6,0.5,1.5,1.2,1.5,2.4c0,1.6-1.3,2.1-2.5,2.4v0.5h5.7V49.1c-0.3,0.1-0.7,0.1-1,0.2
		C117.5,49.3,116.7,49.4,116.7,49.6z"/>
	<path class="st2" d="M112.8,33h-5c3,0,5.5,2.4,5.5,5.5v3.4c0.4-0.5,0.8-0.9,1.5-0.9c0.4,0,0.7,0.1,0.9,0.3c0.3,0.3,0.3,0.8,0.3,1.2
		c0,0.2,0,0.5,0,0.6c0,0,0.1,0.1,0.4,0.1c0.8,0,1-0.2,1.1-0.5c0.3-0.5,0.6-0.9,1.5-0.9v-2.5C118.9,35.8,116.2,33,112.8,33z"/>
	<path d="M120.9,43.9c0-0.9-0.7-1.7-1.7-1.7c-1.8,0-0.7,1.5-2.9,1.5c-1.9,0,0-2.2-1.6-2.2c-1.4,0-1.7,2.9-2.6,2.9
		c-0.6,0,1.1-3.2-1.6-3.2c-1.3,0-1.7,1.3-1.7,2.7c0,1.5-0.2,3.7-1.3,3.7c-1.4,0,0.1-2.9-1.6-2.9c-1.7,0-2.4,2.4-2.4,4.1
		c0,1.7,0.4,3.2-0.2,3.2c-0.3,0-0.3-0.5-1.5-0.5c-0.8,0-1.4,0.7-1.4,3.1c0,2.4,1,3.1,1.2,6.6c-0.4,0.4-0.9,0.8-1.6,1.2
		c-0.7-0.4-1.2-0.8-1.6-1.2c0.1-3.5,1.2-4.2,1.2-6.6c0-2.4-0.6-3.1-1.4-3.1C97,51.5,97,52,96.7,52c-0.5,0-0.2-1.5-0.2-3.2
		c0-1.7-0.7-4.1-2.4-4.1c-1.7,0-0.2,2.9-1.6,2.9c-1.1,0-1.3-2.3-1.3-3.7c0-1.5-0.5-2.7-1.7-2.7c-2.7,0-1,3.2-1.6,3.2
		c-0.9,0-1.2-2.9-2.6-2.9c-1.6,0,0.4,2.2-1.6,2.2c-2.2,0-1-1.5-2.9-1.5c-0.9,0-1.7,0.7-1.7,1.7c0,2.3,2.5,0.3,2.5,1.9
		c0,0.8-1.7,0.1-1.7,1.8c0,1.8,3.8,0.8,3.8,2.1c0,1.6-1.9,0.2-1.9,2.3c0,2.7,4.7,1.2,4.7,2.9c0,0.5-1.9,1.2-1.9,2.7
		c0,2.6,4.8,1.5,4.8,3.6c0,0.5-0.3,0.4-0.3,0.9c0,0.7,0.7,1.3,1.6,1.3c1.9,0,1.6-1.8,7.3-1.3c0.3,0.3,0.7,0.6,1.2,0.9
		c-0.9,0.5-1.9,0.9-3.1,1.3c1.7-0.3,2.3,0,2.3,0c0.6-0.3,1.1-0.6,1.6-0.9c0.5,0.3,1,0.6,1.6,0.9c0,0,0.5-0.3,2.3,0
		c-1.2-0.4-2.3-0.8-3.1-1.3c0.5-0.3,0.9-0.6,1.2-0.9c5.7-0.5,5.4,1.3,7.3,1.3c0.9,0,1.6-0.6,1.6-1.3c0-0.5-0.3-0.4-0.3-0.9
		c0-2,4.8-1,4.8-3.6c0-1.5-1.9-2.2-1.9-2.7c0-1.7,4.7-0.2,4.7-2.9c0-2-1.9-0.7-1.9-2.3c0-1.3,3.8-0.3,3.8-2.1c0-1.8-1.7-1-1.7-1.8
		C118.3,44.1,120.9,46.2,120.9,43.9z"/>
	<path class="st1" d="M83.2,44.8c8.7,4,6.4,9.5,13.3,15.4C90.8,55.1,91.2,47.7,83.2,44.8z"/>
	<path class="st1" d="M116.8,44.8c-8.7,4-6.4,9.5-13.3,15.4C109.2,55.1,108.8,47.7,116.8,44.8z"/>
</g>
</svg>
