<?xml version="1.0" encoding="utf-8"?>
<!-- Generator: Adobe Illustrator 21.1.0, SVG Export Plug-In . SVG Version: 6.00 Build 0)  -->
<svg version="1.1" id="Layer_1" xmlns="http://www.w3.org/2000/svg" xmlns:xlink="http://www.w3.org/1999/xlink" x="0px" y="0px"
	 viewBox="0 0 200 200" style="enable-background:new 0 0 200 200;" xml:space="preserve">
<style type="text/css">
	.st0{fill:#FFFFFF;}
	.st1{fill:#CD0F0B;}
	.st2{fill:#FCFCFB;}
	.st3{fill:#020102;}
</style>
<g>
	<path d="M185.6,18C127.9,34.7,100,6,100,6S72.1,34.7,14.4,18c0,0,21,32.2,9,97.4c0,0-3.7,30.2,22.7,41c0,0,49.6,22.5,53.8,30.7
		c4.2-8.2,53.8-30.7,53.8-30.7c26.5-10.7,22.7-41,22.7-41C164.6,50.2,185.6,18,185.6,18z"/>
	<path class="st0" d="M99,166.5c-0.4-0.8-2.1-2.4-4.7-4.1l0,0c-2.5-1.7-5.8-3.7-9.4-5.7l0,0c-7.1-3.9-15.3-7.9-20.7-10.5l0,0
		c-3.4-1.6-5.7-2.6-5.9-2.8l0,0c-8.2-3.3-12.8-9.1-15.3-14.8l0,0c-2.5-5.7-2.9-11.3-2.9-14.7l0,0c0-1.9,0.1-3.1,0.1-3.1l0,0l0,0l0,0
		c2-11,2.8-20.8,2.8-29.4l0,0c0-28-8.5-42.7-9.5-44.3l0,0C33.5,37,33.5,37,33.5,37l0,0l-1.6-2.5l2.9,0.8c9.9,2.9,18.6,4,26.2,4l0,0
		c24.3,0,36.8-11.4,38.2-12.7l0,0c0.1-0.1,0.1-0.1,0.1-0.1l0,0l0.8-0.8l0.8,0.8c0,0,0,0,0.1,0.1l0,0c0.1,0.1,0.2,0.2,0.4,0.4l0,0
		c0.4,0.3,1,0.8,1.7,1.4l0,0c1.6,1.2,3.9,2.8,7.1,4.4l0,0c6.4,3.2,16,6.5,28.9,6.5l0,0c7.6,0,16.3-1.1,26.2-4l0,0l2.9-0.8l-1.6,2.5
		c0,0,0,0-0.1,0.1l0,0c-0.1,0.1-0.2,0.3-0.3,0.5l0,0c-0.3,0.4-0.6,1.1-1.1,2l0,0c-0.9,1.8-2.1,4.6-3.3,8.3l0,0
		c-2.4,7.4-4.8,18.6-4.8,33.5l0,0c0,8.5,0.8,18.3,2.8,29.4l0,0l0,0l0,0c0,0,0.1,1.2,0.1,3.1l0,0c0,3.4-0.4,9-2.9,14.7l0,0
		c-2.5,5.7-7.1,11.4-15.3,14.8l0,0c-0.2,0.1-2,0.9-4.7,2.2l0,0c-2.9,1.4-6.8,3.2-11,5.3l0,0c-8.4,4.2-18.1,9.4-22.6,13.1l0,0
		c-1.3,1-2.2,2-2.4,2.5l0,0l-1,1.9L99,166.5L99,166.5z"/>
	<path class="st1" d="M42.4,111.3c0,0.1,0,0.3,0,0.6l0,0c0,0.5-0.1,1.2-0.1,2.1l0,0c0,3.2,0.4,8.5,2.8,13.8l0,0
		c2.3,5.3,6.5,10.5,14.1,13.6l0,0l0,0l0,0c0,0,7.3,3.3,15.8,7.6l0,0c8.5,4.3,18.1,9.4,23,13.3l0,0c0.8,0.6,1.5,1.2,2,1.8l0,0
		c0.5-0.6,1.2-1.2,2-1.8l0,0c1.4-1.1,3.2-2.3,5.2-3.6l0,0c4.1-2.5,9.1-5.3,14.1-7.8l0,0c9.9-5.1,19.5-9.4,19.5-9.4l0,0l0,0l0,0
		c7.6-3.1,11.8-8.3,14.1-13.6l0,0c2.3-5.3,2.8-10.6,2.8-13.8l0,0c0-1.3-0.1-2.3-0.1-2.7l0,0c0-0.1,0-0.1,0-0.1l0,0
		c-2.1-11.2-2.8-21.1-2.8-29.7l0,0c0-23.6,5.9-38,8.6-43.3l0,0c-9,2.4-17.1,3.3-24.2,3.3l0,0c-23,0-35.9-10-39.1-12.8l0,0
		c-3.2,2.8-16.1,12.8-39.1,12.8l0,0c-7.1,0-15.2-1-24.2-3.3l0,0c2.7,5.4,8.6,19.8,8.6,43.3l0,0c0,8.7-0.8,18.6-2.8,29.8l0,0
		C42.4,111.2,42.4,111.3,42.4,111.3L42.4,111.3z"/>
	<path d="M151.7,74.4l-0.1-0.6l-0.6,0.1c0,0-0.7,0.1-1.7,0.3c-1,0.1-2.3,0.3-3.5,0.3c-0.9,0-1.8-0.1-2.4-0.3
		c-0.4-0.1-0.7-0.3-0.9-0.5c0.4-0.3,0.9-0.9,1.5-1.6c0.9-1.1,1.9-2.6,1.9-4.2c0-0.3,0-0.7-0.1-1l-0.2-0.5l-0.5,0.1
		c0,0-0.1,0-0.2,0.1c-0.4,0.1-1.5,0.3-3,0.3c-3.3,0-8.6-1-13.3-6.4c-0.2-0.5-1.3-2.4-4.7-3.5c-0.4-0.5-1.7-2-3.1-2.6
		c-0.3-0.6-1.4-2.5-2.8-4.6c-1.7-2.5-3.7-5.1-5.6-5.8l0,0l0,0c0,0-0.9-0.2-2-0.2c-0.9,0-1.8,0.1-2.7,0.7l-0.1,0.1l-0.1,0.1
		c0,0-0.8,1.4-1.7,2.9c-0.5,0.7-1,1.4-1.4,2c-0.2,0.3-0.4,0.5-0.5,0.6c-0.1,0.1-0.1,0.1-0.2,0.1c0,0,0,0,0,0l0.1,0.2l-0.1,0.9
		c0,0,0.2,0,0.5,0.1c0.5,0.1,1.2,0.3,1.7,0.6c0.3,0.1,0.5,0.3,0.6,0.4c0.1,0.1,0.2,0.2,0.2,0.3c0,0,0,0.1,0,0.1l0,0.1l0,0.1
		c0,0.2-0.1,1.5-1,6.3c0,0.2-0.3,1.2-0.3,2.6c0,3.2,1.2,8.6,7.9,11.9l0,0l0,0c0,0,0.1,0,0.2,0.1c0.4,0.2,1.5,0.8,2.5,1.9
		c1,1.1,1.8,2.5,1.8,4.6c0,1.1-0.3,2.4-0.9,4l0,0.1l0,0.1c0,0,0,0.4,0.2,0.9c0.1,0.2,0.2,0.5,0.4,0.7c0.2,0.2,0.6,0.4,0.9,0.4
		c0.8,0,1.5-0.5,2.5-1.6l0,0l0,0c0,0,0,0,0,0c0.1-0.1,0.7-0.8,1.8-0.8c0.8,0,2.1,0.4,3.7,1.9l0.1,0.1l0.2,0c0,0,0.4,0.1,0.8,0.1
		c0.3,0,0.7,0,1.1-0.2c0.4-0.2,0.8-0.6,0.7-1.2c0-0.6-0.3-1.1-0.8-1.9c0,0-0.1-0.1-0.1-0.2c-0.2-0.5-0.7-1.7-0.7-3.1
		c0-0.7,0.1-1.4,0.4-2.1c1.9,0.5,10.2,3.2,15.9,13.4l0.1,0.1l0.2,0.1c0,0,0.5,0.3,1.1,0.3c0,0,0,0,0,0c0.4,0,0.8-0.1,1.1-0.4
		c0.3-0.3,0.6-0.8,0.6-1.5c0.1-0.3,0.5-2.2,0.5-4.4c0-1.2-0.1-2.4-0.5-3.6c0.5-0.3,1.3-0.8,2.1-1.5c1.3-1.1,2.6-2.7,2.6-4.8
		C151.7,74.8,151.7,74.6,151.7,74.4z"/>
	<path class="st0" d="M107.3,48.2c0,0-1.6,1.8-1.1,2c0,0,1.2,0.5,1.5,0C107.7,50.2,108.1,48.7,107.3,48.2"/>
	<path class="st2" d="M126.5,74.7c0,0-2.2,3.6-0.2,8.7c0,0-4.7-3.3-7.4,0.9c0,0,1.7-5.8-0.4-8.5c0,0-1.4-2.6-4.6-4.4
		c0,0-3.8-1.5-5.2-5.7c0,0-1.1-3.9-0.8-7.7c0,0,0.9-4.8,0.5-6.3c0,0,2-1.5,0.8-3.4c0,0-1.8-1.4-0.6-2.1c0,0,2.9-1.7,5.6,2.9
		c0,0,2.7,3.1,3.5,4.9c0,0,1.8,2.5,3.2,2.9c0,0,1.6,0.7-1.1,0.8c0,0-2.4-1.3-2.3,2.7c0,0,0,0.4-1.2,1.1c0,0,4.4,1.6,0.5,3.2
		c0,0,0,9.3,19.1,7.7l0.1,1.6c0,0-25,1.9-21.9-14h-1.3C112.6,59.7,109.4,72.7,126.5,74.7"/>
	<path class="st0" d="M124.9,60.5c0,0,0.6-1.4-1.7-1.4c0,0-3.1-0.4-3,0.5c0,0,2.5,2.3,1.1,2.4c0,0-1.4,0.2-0.4,1.4
		c0,0,0.9,0.8-1.1,1.7c0,0-3.1,1.2,0.6,2.9c0,0,0.4-1.5,2.3-1.2l-0.4-2.9l2,0.1c0,0,1.7-0.5,0.9-2.6
		C125.2,61.3,124.1,60.6,124.9,60.5"/>
	<path class="st0" d="M127.9,62.2c0,0-0.1,1.5-3.1,2.3c0,0-1.1,3.1,6.3,3c0,0,0.5,1.3,1.4,1.1c0,0-2.5,1.5-7.6-0.8h-2.6
		c0,0-0.9,3.5,8.5,3.4c0,0,5.1-0.1,6.2-1.7l0.6,0.1c0,0,0.1,5-1,5.6l-8.3-0.4c0,0,14.3,5.7,16.4,13.4c0,0,1.8-1.5-0.5-7.9
		c0,0,4.4-1.1,4.9-4.2c0,0-6.2,1.8-8.2-1.3c0,0-1-1.4-1.4-1.4c0,0,3.2-1.8,3.7-4.5C143.3,68.8,132.5,69.9,127.9,62.2"/>
	<path class="st3" d="M109.7,47.9c0,0.5,0.4,0.9,0.9,0.9c0.5,0,0.9-0.4,0.9-0.9c0-0.5-0.4-0.9-0.9-0.9
		C110.1,47,109.7,47.4,109.7,47.9"/>
	<path d="M120.7,126l-0.1-0.6l-0.6,0.1c0,0-0.7,0.1-1.7,0.3c-1,0.1-2.3,0.3-3.5,0.3c-0.9,0-1.8-0.1-2.4-0.3
		c-0.4-0.1-0.7-0.3-0.9-0.5c0.4-0.3,0.9-0.9,1.5-1.6c0.9-1.1,1.9-2.6,1.9-4.2c0-0.3,0-0.7-0.1-1l-0.2-0.5l-0.5,0.1
		c0,0-0.1,0-0.2,0.1c-0.4,0.1-1.5,0.3-3,0.3c-3.4,0-8.6-1-13.3-6.4c-0.2-0.5-1.3-2.4-4.7-3.5c-0.4-0.5-1.7-2-3.1-2.6
		c-0.3-0.6-1.4-2.5-2.8-4.6c-1.7-2.5-3.7-5.1-5.6-5.8l0,0l0,0c0,0-0.9-0.2-2-0.2c-0.9,0-1.8,0.1-2.7,0.7L76.5,96l-0.1,0.1
		c0,0-0.8,1.4-1.7,2.9c-0.5,0.7-1,1.4-1.4,2c-0.2,0.3-0.4,0.5-0.5,0.6c-0.1,0.1-0.1,0.1-0.2,0.1c0,0,0,0,0,0l0.1,0.2l-0.1,0.9
		c0,0,0.2,0,0.5,0.1c0.5,0.1,1.2,0.3,1.7,0.6c0.3,0.1,0.5,0.3,0.6,0.4c0.1,0.1,0.2,0.2,0.2,0.3c0,0,0,0.1,0,0.1l0,0.1l0,0.1
		c0,0.2-0.1,1.5-1,6.3c0,0.2-0.3,1.2-0.3,2.6c0,3.2,1.2,8.6,7.9,11.9l0,0l0,0c0,0,0.1,0,0.2,0.1c0.4,0.2,1.5,0.8,2.5,1.9
		c1,1.1,1.8,2.5,1.8,4.6c0,1.1-0.3,2.4-0.9,4l0,0.1l0,0.1c0,0,0,0.4,0.2,0.9c0.1,0.2,0.2,0.5,0.4,0.7c0.2,0.2,0.6,0.4,0.9,0.4
		c0.8,0,1.5-0.5,2.5-1.6l0,0l0,0c0,0,0,0,0,0c0.1-0.1,0.7-0.8,1.8-0.8c0.8,0,2.1,0.4,3.7,1.9l0.1,0.1l0.2,0c0,0,0.4,0.1,0.8,0.1
		c0.3,0,0.7,0,1.1-0.2c0.4-0.2,0.8-0.6,0.7-1.2c0-0.6-0.3-1.1-0.8-1.9c0,0-0.1-0.1-0.1-0.2c-0.2-0.5-0.7-1.7-0.7-3.1
		c0-0.7,0.1-1.4,0.4-2.1c1.9,0.5,10.2,3.2,15.9,13.4l0.1,0.1l0.2,0.1c0,0,0.5,0.3,1.1,0.3c0,0,0,0,0,0c0.4,0,0.8-0.1,1.1-0.4
		c0.3-0.3,0.6-0.8,0.6-1.5c0.1-0.3,0.5-2.2,0.5-4.4c0-1.2-0.1-2.4-0.5-3.6c0.5-0.3,1.3-0.8,2.1-1.5c1.3-1.1,2.6-2.7,2.6-4.8
		C120.7,126.4,120.7,126.2,120.7,126z"/>
	<path class="st0" d="M76.3,99.8c0,0-1.6,1.8-1.1,2c0,0,1.2,0.5,1.5,0C76.7,101.8,77.1,100.3,76.3,99.8"/>
	<path class="st2" d="M95.5,126.4c0,0-2.2,3.6-0.2,8.7c0,0-4.7-3.3-7.4,0.9c0,0,1.7-5.8-0.4-8.5c0,0-1.4-2.6-4.6-4.4
		c0,0-3.8-1.5-5.2-5.7c0,0-1.1-3.9-0.8-7.7c0,0,0.9-4.8,0.5-6.3c0,0,2-1.5,0.8-3.4c0,0-1.8-1.4-0.6-2.1c0,0,2.9-1.7,5.6,2.9
		c0,0,2.7,3.1,3.5,4.9c0,0,1.8,2.5,3.2,2.9c0,0,1.6,0.7-1.2,0.8c0,0-2.4-1.3-2.3,2.7c0,0,0,0.4-1.2,1.1c0,0,4.4,1.6,0.5,3.2
		c0,0,0,9.3,19.1,7.7l0.1,1.6c0,0-25,1.9-21.9-14h-1.3C81.6,111.3,78.4,124.3,95.5,126.4"/>
	<path class="st0" d="M93.9,112.1c0,0,0.6-1.4-1.7-1.4c0,0-3.1-0.4-3,0.5c0,0,2.5,2.3,1.2,2.4c0,0-1.4,0.2-0.4,1.4
		c0,0,0.9,0.8-1.1,1.7c0,0-3.1,1.2,0.6,2.9c0,0,0.4-1.5,2.3-1.2l-0.4-2.9l2,0.1c0,0,1.7-0.5,0.9-2.6
		C94.2,112.9,93.1,112.2,93.9,112.1"/>
	<path class="st0" d="M96.8,113.8c0,0-0.1,1.5-3.1,2.3c0,0-1.1,3.1,6.3,3c0,0,0.5,1.3,1.4,1.1c0,0-2.5,1.5-7.6-0.8h-2.6
		c0,0-0.9,3.5,8.5,3.4c0,0,5.1-0.1,6.2-1.7l0.6,0.1c0,0,0.1,5-1,5.6l-8.3-0.4c0,0,14.3,5.7,16.4,13.4c0,0,1.8-1.5-0.5-7.9
		c0,0,4.4-1.1,4.9-4.2c0,0-6.2,1.8-8.2-1.3c0,0-1-1.4-1.4-1.4c0,0,3.2-1.8,3.7-4.5C112.3,120.4,101.4,121.5,96.8,113.8"/>
	<path class="st3" d="M78.6,99.5c0,0.5,0.4,0.9,0.9,0.9c0.5,0,0.9-0.4,0.9-0.9c0-0.5-0.4-0.9-0.9-0.9C79,98.6,78.6,99,78.6,99.5"/>
	<path d="M98.1,76.7L98,76.1l-0.6,0.1c0,0-0.7,0.1-1.7,0.3c-1,0.1-2.3,0.3-3.5,0.3c-0.9,0-1.8-0.1-2.4-0.3c-0.4-0.1-0.7-0.3-0.9-0.5
		c0.4-0.3,0.9-0.9,1.5-1.6c0.9-1.1,1.9-2.6,1.9-4.2c0-0.3,0-0.7-0.1-1L92,68.7l-0.5,0.1c0,0-0.1,0-0.2,0.1c-0.4,0.1-1.5,0.3-3,0.3
		c-3.4,0-8.6-1-13.3-6.4c-0.2-0.5-1.3-2.4-4.7-3.5c-0.4-0.5-1.7-2-3.1-2.6c-0.3-0.6-1.4-2.5-2.8-4.6c-1.7-2.5-3.7-5.1-5.6-5.8l0,0
		l0,0c0,0-0.9-0.2-2-0.2c-0.9,0-1.8,0.1-2.7,0.7l-0.1,0.1l-0.1,0.1c0,0-0.8,1.4-1.7,2.9c-0.5,0.7-1,1.4-1.4,2
		c-0.2,0.3-0.4,0.5-0.5,0.6c-0.1,0.1-0.1,0.1-0.2,0.1c0,0,0,0,0,0l0.1,0.2L50,53.5c0,0,0.2,0,0.5,0.1c0.5,0.1,1.2,0.3,1.7,0.6
		c0.3,0.1,0.5,0.3,0.6,0.4c0.1,0.1,0.2,0.2,0.2,0.3c0,0,0,0.1,0,0.1l0,0.1l0,0.1c0,0.2-0.1,1.5-1,6.3c0,0.2-0.3,1.2-0.3,2.6
		c0,3.2,1.2,8.6,7.9,11.9l0,0l0,0c0,0,0.1,0,0.2,0.1c0.4,0.2,1.5,0.8,2.5,1.9c1,1.1,1.8,2.5,1.8,4.6c0,1.1-0.3,2.4-0.9,4l0,0.1
		l0,0.1c0,0,0,0.4,0.2,0.9c0.1,0.2,0.2,0.5,0.4,0.7c0.2,0.2,0.6,0.4,0.9,0.4c0.8,0,1.5-0.5,2.5-1.6l0,0l0,0c0,0,0,0,0,0
		c0.1-0.1,0.7-0.8,1.8-0.8c0.8,0,2.1,0.4,3.7,1.9l0.1,0.1l0.2,0c0,0,0.4,0.1,0.8,0.1c0.3,0,0.7,0,1.1-0.2c0.4-0.2,0.8-0.6,0.7-1.2
		c0-0.6-0.3-1.1-0.8-1.9c0,0-0.1-0.1-0.1-0.2c-0.2-0.5-0.7-1.7-0.7-3.1c0-0.7,0.1-1.4,0.4-2.1c1.9,0.5,10.2,3.2,15.9,13.4l0.1,0.1
		l0.2,0.1c0,0,0.5,0.3,1.1,0.3c0,0,0,0,0,0c0.4,0,0.8-0.1,1.1-0.4c0.3-0.3,0.6-0.8,0.6-1.5c0.1-0.3,0.5-2.2,0.5-4.4
		c0-1.2-0.1-2.4-0.5-3.6c0.5-0.3,1.3-0.8,2.1-1.5c1.3-1.1,2.6-2.7,2.6-4.8C98.1,77.1,98.1,76.9,98.1,76.7z"/>
	<path class="st0" d="M53.7,50.5c0,0-1.6,1.8-1.1,2c0,0,1.1,0.5,1.5,0C54.1,52.5,54.5,51,53.7,50.5"/>
	<path class="st2" d="M72.9,77c0,0-2.2,3.6-0.2,8.7c0,0-4.7-3.3-7.4,0.9c0,0,1.7-5.8-0.4-8.5c0,0-1.4-2.6-4.6-4.4
		c0,0-3.8-1.5-5.2-5.7c0,0-1.1-3.9-0.8-7.7c0,0,0.9-4.8,0.5-6.3c0,0,2-1.5,0.8-3.4c0,0-1.8-1.4-0.6-2.1c0,0,2.9-1.7,5.6,2.9
		c0,0,2.7,3.1,3.5,4.9c0,0,1.8,2.5,3.2,2.9c0,0,1.6,0.7-1.2,0.8c0,0-2.4-1.3-2.3,2.7c0,0,0,0.4-1.2,1.1c0,0,4.4,1.6,0.5,3.2
		c0,0,0,9.3,19.1,7.7l0.1,1.6c0,0-25,1.9-21.9-14H59C59,62,55.8,75,72.9,77"/>
	<path class="st0" d="M71.3,62.8c0,0,0.6-1.4-1.7-1.4c0,0-3.1-0.4-3,0.5c0,0,2.5,2.3,1.2,2.4c0,0-1.4,0.2-0.4,1.4
		c0,0,0.9,0.8-1.1,1.7c0,0-3.1,1.2,0.6,2.9c0,0,0.4-1.5,2.3-1.2l-0.4-2.9l2,0.1c0,0,1.7-0.5,0.9-2.6C71.6,63.6,70.5,62.9,71.3,62.8"
		/>
	<path class="st0" d="M74.2,64.5c0,0-0.1,1.5-3.1,2.3c0,0-1.1,3.1,6.3,3c0,0,0.5,1.3,1.4,1.1c0,0-2.5,1.5-7.6-0.8h-2.6
		c0,0-0.9,3.5,8.5,3.4c0,0,5.1-0.1,6.2-1.7l0.6,0.1c0,0,0.1,5-1,5.6l-8.3-0.4c0,0,14.3,5.7,16.4,13.4c0,0,1.8-1.5-0.5-7.9
		c0,0,4.4-1.1,4.9-4.2c0,0-6.2,1.8-8.2-1.3c0,0-1-1.4-1.4-1.4c0,0,3.2-1.8,3.7-4.5C89.7,71.1,78.8,72.2,74.2,64.5"/>
	<path class="st3" d="M56.1,50.2c0,0.5,0.4,0.9,0.9,0.9c0.5,0,0.9-0.4,0.9-0.9c0-0.5-0.4-0.9-0.9-0.9C56.4,49.3,56.1,49.7,56.1,50.2
		"/>
	<path class="st0" d="M159.1,181.2l-0.3-0.3l0.3-0.3c2-2.4,2.5-5.1,2.5-7l0,0c0-1-0.1-1.8-0.2-2.2l0,0
		c-22.4-7.6-43.3-10.2-61.4-10.2l0,0c-18,0-39,2.6-61.4,10.2l0,0c0,0.1,0,0.2-0.1,0.4l0,0c-0.1,0.4-0.1,1.1-0.1,1.8l0,0
		c0,1.9,0.4,4.5,2.5,7l0,0l0.3,0.3l-0.3,0.4c0,0.1-9.5,12.8-28.2,12.8l0,0c-1.7,0-3.4-0.1-5.2-0.3l0,0l-0.9-0.1l9-12.1l-14.8-7.8
		l2.6,0.2c0,0,0.5,0,1.5,0l0,0c3.9,0,14.8-0.7,22-8.1l0,0c0-0.1,0-0.2-0.1-0.4l0,0c-0.1-0.4-0.3-1.1-0.6-1.9l0,0
		c-0.7-1.6-2.1-3.8-4.9-6.3l0,0l0,0l0,0c0-0.1-0.6-0.7-0.6-1.7l0,0c0-0.8,0.4-1.8,1.5-2.8l0,0c1.1-1,2.9-2.1,5.9-3.2l0,0
		c0,0,29.6-11.3,72-11.3l0,0c42.4,0,72,11.3,72,11.3l0,0c3,1.1,4.8,2.2,5.9,3.2l0,0c1.1,1,1.5,2,1.5,2.8l0,0c0,1-0.6,1.7-0.6,1.7
		l0,0l0,0l0,0c-4.8,4.2-5.4,7.7-5.5,8.6l0,0c7.2,7.4,18.1,8.1,22,8.1l0,0c1,0,1.5,0,1.5,0l0,0l2.7-0.2l-14.8,7.8l9,12.1l-0.9,0.1
		c-1.8,0.2-3.6,0.3-5.2,0.3l0,0C168.6,194,159.1,181.3,159.1,181.2L159.1,181.2z"/>
	<path d="M160.4,181.1c0.3,0.3,0.7,0.8,1.3,1.4l0,0c1.1,1.2,2.9,2.7,5.1,4.3l0,0c4.6,3.1,11.4,6.2,20.5,6.2l0,0
		c1.3,0,2.7-0.1,4.2-0.2l0,0l-8.6-11.6l11.6-6.1c-4.6-0.1-15.1-1.2-22.2-8.6l0,0l-0.2-0.2v-0.2c0-0.1,0.1-4.5,5.9-9.6l0,0
		c0,0,0,0,0,0l0,0c0,0,0.1-0.1,0.1-0.2l0,0c0.1-0.2,0.2-0.4,0.2-0.7l0,0c0-0.5-0.2-1.2-1.1-2l0,0c-0.9-0.9-2.6-1.9-5.5-3l0,0
		c0,0-0.5-0.2-1.3-0.5l0,0c-0.9-0.3-2.2-0.7-3.9-1.3l0,0c-3.4-1.1-8.4-2.5-14.7-3.9l0,0c-12.6-2.8-30.5-5.6-51.6-5.6l0,0
		c-36.9,0-64.1,8.6-70.3,10.8l0,0c-0.9,0.3-1.3,0.5-1.3,0.5l0,0c-2.9,1.1-4.6,2.1-5.5,3l0,0c-0.9,0.9-1.1,1.6-1.1,2l0,0
		c0,0.5,0.2,0.9,0.3,0.9l0,0c5.8,5.1,5.9,9.5,5.9,9.6l0,0v0.2l-0.2,0.2c-7.2,7.5-17.6,8.5-22.2,8.6l0,0l11.6,6.1l-8.6,11.6
		c1.4,0.1,2.8,0.2,4.2,0.2l0,0c15.9,0,24.9-9.5,26.9-11.8l0,0c0.1-0.1,0.1-0.1,0.2-0.2l0,0c-2-2.6-2.4-5.4-2.4-7.3l0,0
		c0-1.7,0.3-2.8,0.3-2.8l0,0l0.1-0.3l0.3-0.1c22.6-7.7,43.8-10.3,62-10.3l0,0c18.2,0,39.4,2.6,62,10.3l0,0l0.3,0.1l0.1,0.3
		c0,0,0.3,1.1,0.3,2.8l0,0c0,2-0.5,4.7-2.4,7.3l0,0C160.3,180.9,160.4,181,160.4,181.1L160.4,181.1z"/>
	<path class="st0" d="M39.9,161l4-1c1.2-0.3,2-0.7,2.5-1.2c0.6-0.6,0.9-1.4,1-2.4c0.1-0.6,0-1.3-0.2-2c-0.3-1.3-0.9-2.3-1.8-3
		c-0.5-0.4-1-0.6-1.6-0.7c-0.6-0.1-1.3,0-2.2,0.2l-4,1L39.9,161z M38.7,161.5l-2.3-9.5c0-0.2-0.1-0.3-0.2-0.3
		c-0.1-0.1-0.3-0.1-0.5-0.1l-0.1-0.3l5.9-1.4c1.3-0.3,2.4-0.4,3.2-0.2c1,0.2,1.9,0.8,2.6,1.6c0.6,0.7,1.1,1.7,1.3,2.7
		c0.3,1.3,0.3,2.4,0,3.5c-0.3,0.9-0.8,1.7-1.5,2.2c-0.7,0.5-1.6,1-2.9,1.3l-5.9,1.4l-0.1-0.3c0.2-0.1,0.3-0.2,0.4-0.3
		C38.7,161.8,38.7,161.7,38.7,161.5"/>
	<path class="st0" d="M51.9,148.6l1.1,6.3c0.1,0.7,0.3,1.3,0.4,1.5c0.1,0.3,0.3,0.5,0.6,0.7c0.7,0.4,1.8,0.5,3.4,0.2
		c1.8-0.3,2.9-0.8,3.3-1.6c0.1-0.2,0.2-0.5,0.2-0.8c0-0.3,0-0.8-0.2-1.5l-1.1-6.3c0-0.2-0.1-0.4-0.2-0.5c-0.1-0.1-0.2-0.1-0.5-0.2
		l0-0.3l2.2-0.4l0,0.3c-0.2,0.1-0.3,0.2-0.4,0.3c-0.1,0.1-0.1,0.3,0,0.5l1.2,6.5c0.1,0.8,0.2,1.4,0.1,1.9c-0.2,0.8-0.6,1.5-1.3,1.9
		c-0.7,0.5-1.8,0.9-3.2,1.1c-2.1,0.4-3.6,0.2-4.5-0.4c-0.4-0.3-0.7-0.6-0.9-1c-0.2-0.4-0.4-0.9-0.5-1.7l-1.2-6.5
		c0-0.2-0.1-0.4-0.2-0.5c-0.1-0.1-0.2-0.1-0.5-0.1l-0.1-0.3l2.4-0.4l0,0.3c-0.2,0.1-0.3,0.2-0.4,0.3
		C51.9,148.2,51.9,148.4,51.9,148.6"/>
	<path class="st0" d="M66.1,146.7l1,9c0,0.2,0.1,0.4,0.2,0.5c0.1,0.1,0.2,0.1,0.5,0.2l0,0.3l-2.3,0.3l0-0.3c0.2-0.1,0.3-0.2,0.4-0.3
		c0.1-0.1,0.1-0.3,0-0.5l-1.1-9.4c0-0.2-0.1-0.4-0.2-0.5c-0.1-0.1-0.2-0.1-0.5-0.2l0-0.3l3.3-0.4l0,0.3c-0.3,0.1-0.4,0.3-0.3,0.4
		c0,0.1,0.2,0.3,0.5,0.6l7.8,7.2l-1-8.3c0-0.2-0.1-0.4-0.2-0.5c-0.1-0.1-0.2-0.1-0.5-0.2l0-0.3l2.3-0.3l0,0.3
		c-0.2,0.1-0.3,0.2-0.4,0.3c-0.1,0.1-0.1,0.3,0,0.5l1.1,9.4c0,0.2,0.1,0.4,0.2,0.5c0.1,0.1,0.2,0.1,0.5,0.2l0,0.3l-2.6,0.3l0-0.3
		c0.2-0.1,0.4-0.2,0.3-0.4c0-0.1-0.2-0.3-0.4-0.6L66.1,146.7z"/>
	<path class="st0" d="M81.8,154.1l4.1-0.2c1.2-0.1,2.1-0.3,2.7-0.7c0.7-0.5,1.1-1.2,1.4-2.1c0.2-0.6,0.2-1.3,0.2-2
		c-0.1-1.3-0.5-2.4-1.2-3.3c-0.4-0.5-0.9-0.8-1.4-1c-0.6-0.2-1.3-0.2-2.2-0.2l-4.2,0.2L81.8,154.1z M80.5,154.4l-0.5-9.7
		c0-0.2-0.1-0.3-0.1-0.4c-0.1-0.1-0.2-0.1-0.4-0.2l0-0.3l6.1-0.3c1.4-0.1,2.4,0.1,3.2,0.4c0.9,0.4,1.7,1.1,2.2,2.1
		c0.5,0.8,0.7,1.8,0.8,2.9c0.1,1.3-0.1,2.4-0.7,3.4c-0.5,0.9-1.1,1.5-1.8,1.9c-0.8,0.4-1.8,0.7-3.1,0.7l-6.1,0.3l0-0.3
		c0.2-0.1,0.3-0.1,0.4-0.2C80.4,154.7,80.5,154.5,80.5,154.4"/>
	<path class="st0" d="M101.2,150.3l-2.6-5.7l-2.6,5.7L101.2,150.3z M101.7,151.4l-6.1,0l-1,2.2c-0.1,0.2-0.1,0.4-0.1,0.4
		c0,0.2,0.2,0.3,0.5,0.3l0,0.3l-2.6,0l0-0.3c0.2,0,0.4-0.1,0.5-0.3c0.1-0.1,0.3-0.4,0.5-0.8l4.2-9.1c0.1-0.2,0.2-0.4,0.2-0.4
		c0-0.1-0.1-0.3-0.4-0.3l0-0.3l2.8,0l0,0.3c-0.3,0.1-0.4,0.2-0.4,0.4c0,0.1,0.1,0.2,0.2,0.4l4,8.7c0.3,0.6,0.5,1,0.6,1.1
		c0.1,0.1,0.3,0.2,0.6,0.3l0,0.3l-2.7,0l0-0.3c0.3,0,0.5-0.2,0.5-0.4c0-0.1-0.1-0.3-0.2-0.5L101.7,151.4z"/>
	<path class="st0" d="M108.1,153.7l7.3,0.3c0.2,0,0.4,0,0.5-0.1c0.1-0.1,0.2-0.2,0.2-0.4l0.3,0l-0.1,2.2l-0.3,0
		c0-0.2-0.1-0.4-0.2-0.4c-0.1-0.1-0.3-0.1-0.5-0.1l-9.2-0.4l0-0.3c0.2,0,0.4-0.1,0.4-0.2c0.1-0.1,0.1-0.3,0.1-0.5l0.5-9.5
		c0-0.2,0-0.4-0.1-0.5c-0.1-0.1-0.2-0.2-0.4-0.2l0-0.3l2.4,0.1l0,0.3c-0.2,0-0.4,0.1-0.4,0.2c-0.1,0.1-0.1,0.3-0.1,0.5L108.1,153.7z
		"/>
	<path class="st0" d="M120.2,151.1l-0.3,3.4c0,0.2,0,0.4,0.1,0.5c0.1,0.1,0.2,0.2,0.4,0.3l0,0.3l-2.4-0.2l0-0.3
		c0.2,0,0.4-0.1,0.5-0.2c0.1-0.1,0.1-0.3,0.2-0.5l0.9-9.5c0-0.2,0-0.4-0.1-0.5c-0.1-0.1-0.2-0.2-0.4-0.3l0-0.3l2.4,0.2l0,0.3
		c-0.2,0-0.4,0.1-0.5,0.2c-0.1,0.1-0.1,0.3-0.2,0.5l-0.5,4.8l6.6-4.2c0.2-0.1,0.4-0.3,0.4-0.4c0-0.1-0.1-0.2-0.3-0.3l0-0.3l3,0.3
		l0,0.3c-0.3,0-0.7,0.1-1,0.3l-5,3.2l4.5,7c0.1,0.2,0.2,0.3,0.3,0.4c0.1,0.1,0.3,0.1,0.5,0.1l0,0.3l-2.8-0.3l0-0.3
		c0.2,0,0.4-0.1,0.4-0.2c0-0.1-0.1-0.3-0.3-0.6l-3.6-5.7L120.2,151.1z"/>
	<path class="st0" d="M138.5,147.2l-0.6,3.9l4.9,0.8c0.2,0,0.4,0,0.5,0c0.1-0.1,0.2-0.2,0.3-0.4l0.3,0l-0.4,2.2l-0.3,0
		c0-0.2-0.1-0.4-0.1-0.5c-0.1-0.1-0.2-0.2-0.5-0.2l-4.9-0.8l-0.7,4.3c0,0.2,0,0.4,0,0.5c0.1,0.1,0.2,0.2,0.4,0.3l0,0.3l-2.4-0.4
		l0-0.3c0.2,0,0.4-0.1,0.5-0.2c0.1-0.1,0.2-0.2,0.2-0.5l1.6-9.4c0-0.2,0-0.4,0-0.5c-0.1-0.1-0.2-0.2-0.4-0.3l0-0.3l9.2,1.5
		c0.2,0,0.4,0,0.5,0c0.1-0.1,0.2-0.2,0.3-0.4l0.3,0l-0.4,2.2l-0.3,0c0-0.2-0.1-0.4-0.1-0.5c-0.1-0.1-0.2-0.1-0.5-0.2L138.5,147.2z"
		/>
	<path class="st0" d="M146.6,157.5c0.3,0,0.5,0.2,0.6,0.4c0.1,0.2,0.2,0.4,0.1,0.7c0,0.2-0.2,0.4-0.4,0.6c-0.2,0.1-0.4,0.2-0.7,0.1
		c-0.2,0-0.4-0.2-0.6-0.4c-0.1-0.2-0.2-0.4-0.1-0.7c0-0.2,0.2-0.4,0.4-0.6C146.1,157.5,146.3,157.5,146.6,157.5"/>
	<path class="st0" d="M164.1,152.4l-1.7,1.7l-0.2-0.2c0.1-0.2,0.1-0.3,0.2-0.4c0.1-0.2-0.2-0.6-0.8-1.1c-0.8-0.7-1.8-1.2-3-1.5
		c-1.5-0.4-2.9-0.2-4,0.4c-1.2,0.6-1.9,1.6-2.2,3c-0.3,1.4-0.1,2.6,0.7,3.7c0.8,1.1,1.9,1.8,3.3,2.2c1.4,0.3,2.7,0.2,4-0.3
		c0.6-0.3,0.9-0.5,0.9-0.6c0-0.1,0-0.2,0-0.4l0.2-0.1l1,2.1l-0.2,0.1c-0.1-0.2-0.2-0.3-0.3-0.3c-0.1,0-0.2,0-0.3,0.1
		c-0.6,0.3-1.1,0.4-1.5,0.6c-0.4,0.1-0.8,0.2-1.2,0.2c-0.9,0.1-1.8,0-2.8-0.2c-1.9-0.4-3.3-1.3-4.2-2.7c-1-1.4-1.3-2.9-0.9-4.6
		c0.3-1.3,1-2.4,2-3.2c1.6-1.2,3.6-1.6,6-1c1.6,0.4,3,1.2,4.3,2.4c0.1,0.1,0.1,0.1,0.2,0.1c0.1,0,0.2-0.1,0.5-0.2L164.1,152.4z"/>
	<path class="st0" d="M165.6,162.1c0.2,0.1,0.4,0.2,0.5,0.4c0.1,0.2,0.1,0.5,0.1,0.7c-0.1,0.2-0.2,0.4-0.4,0.5
		c-0.2,0.1-0.5,0.1-0.7,0.1c-0.2-0.1-0.4-0.2-0.5-0.4c-0.1-0.2-0.1-0.5-0.1-0.7c0.1-0.2,0.2-0.4,0.4-0.5
		C165.1,162,165.3,162,165.6,162.1"/>
</g>
</svg>
