<?xml version="1.0" encoding="utf-8"?>
<!-- Generator: Adobe Illustrator 21.1.0, SVG Export Plug-In . SVG Version: 6.00 Build 0)  -->
<svg version="1.1"
	 id="svg3341" inkscape:version="0.48.5 r10040" sodipodi:docname="premier-league-handbook-2014-15.pdf" xmlns:cc="http://creativecommons.org/ns#" xmlns:dc="http://purl.org/dc/elements/1.1/" xmlns:inkscape="http://www.inkscape.org/namespaces/inkscape" xmlns:rdf="http://www.w3.org/1999/02/22-rdf-syntax-ns#" xmlns:sodipodi="http://sodipodi.sourceforge.net/DTD/sodipodi-0.dtd" xmlns:svg="http://www.w3.org/2000/svg"
	 xmlns="http://www.w3.org/2000/svg" xmlns:xlink="http://www.w3.org/1999/xlink" x="0px" y="0px" viewBox="0 0 200 200"
	 style="enable-background:new 0 0 200 200;" xml:space="preserve">
<style type="text/css">
	.st0{fill:#FFFFFF;}
	.st1{fill:#274488;}
</style>
<g>
	<path id="path5809" inkscape:connector-curvature="0" class="st0" d="M197.7,126c-0.1-0.1-0.1-0.2-0.2-0.2l-12.2-4.7
		c0.2-0.8,0.7-2.1,1.5-3.3l6.3,2.8c0.2,0.1,0.4,0.2,0.7,0.2c0.5,0,1.1-0.3,1.4-0.8c0.2-0.2,0.7-1.1,1.1-2.1c0.6-1.6,0.8-3.1,0.4-4.3
		c-0.4-1.3-1.3-2.3-2.7-2.9l-16.8-7.7c0,0-0.1-0.1-0.1-0.1l0,0c-0.7-0.2-1.9-0.6-3.3-0.1c0-0.5,0-1.1,0-1.6c0-1.3-0.1-2.7-0.1-4
		c-0.1-1.4-0.2-2.8-0.4-4.3c-1-8.5-3-14.7-3.8-17l-0.3-0.8c-3.3-9.1-5.9-16.4-5.8-25.1c0.1-6.5,8.2-15.7,11.4-18.7l3-2.8l-31-28.3
		L144.2,2c-5.7,3.8-13,5.8-20.7,5.8c-8,0-15.7-2.2-21.4-6.3L100,0l-2.2,1.5C92,5.6,84.4,7.8,76.4,7.8c-7.7,0-15-2.1-20.7-5.8
		l-2.5-1.6L25.3,25.9l-3,2.7l2.9,2.8c3.1,3,11.3,12.2,11.4,18.7c0.1,8.7-2.5,15.9-5.8,25.1l-0.2,0.8c-0.8,2.3-2.8,8.5-3.8,17
		c-0.1,1.5-0.2,2.9-0.4,4.3c-0.1,1.4-0.2,2.7-0.2,4c0,0.5,0,1.1,0.1,1.6c-1.5-0.5-2.7-0.2-3.3,0.1H23C23,103,23,103,22.9,103
		l-16.8,7.7c-1.3,0.6-2.2,1.6-2.7,2.9c-0.4,1.2-0.2,2.7,0.4,4.3c0.4,1,0.9,1.8,1.1,2.1c0.2,0.5,0.8,0.8,1.3,0.8
		c0.2,0,0.4-0.1,0.7-0.2l6.3-2.8c0.8,1.2,1.3,2.4,1.5,3.3l-12.2,4.7c-0.1,0-0.2,0.1-0.2,0.2c-0.1,0.1-0.1,0.2,0,0.3l0.7,1.9
		c7.6,19,20.5,35.3,37.3,47c15.7,10.9,34,17.3,53,18.5l6.3,6.2c0.1,0.1,0.2,0.1,0.2,0.1c0.1,0,0.2-0.1,0.2-0.1l6.3-6.2
		c19-1.1,37.4-7.6,53-18.5c16.9-11.7,29.8-28,37.4-47l0.7-1.9C197.7,126.2,197.7,126.1,197.7,126"/>
	<path id="path5813" inkscape:connector-curvature="0" class="st1" d="M21.6,111.6c-0.6-1.6-0.8-3.2-0.5-4.7
		c0.1-0.1,0.1-0.2,0.1-0.3l0.2-0.8l-14.4,6.6c-0.8,0.4-1.4,0.9-1.6,1.6c-0.4,1.5,0.5,3.5,0.9,4.3l0.2,0.3l15.3-6.8L21.6,111.6z"/>
	<path id="path5817" inkscape:connector-curvature="0" class="st1" d="M178.4,111.6c0.6-1.6,0.8-3.2,0.5-4.7
		c-0.1-0.1-0.1-0.2-0.1-0.3l-0.2-0.8l14.4,6.6c0.8,0.4,1.4,0.9,1.6,1.6c0.5,1.5-0.5,3.5-0.9,4.3l-0.2,0.3l-15.4-6.8L178.4,111.6z"/>
	<path id="path5821" inkscape:connector-curvature="0" class="st1" d="M50.5,165.9l-2.2,1.8l1.9,1.3l0.8-2.7
		c0.1-0.4,0.2-0.6,0.2-0.8l0,0C51,165.5,50.7,165.7,50.5,165.9"/>
	<path id="path5825" inkscape:connector-curvature="0" class="st1" d="M128.3,174.3c-1.1,0.4-1.6,1.7-0.9,3.6c0.7,2.1,1.7,2.7,3,2.3
		c1.1-0.4,1.6-1.6,0.9-3.6C130.6,174.5,129.6,173.9,128.3,174.3"/>
	<path id="path5829" inkscape:connector-curvature="0" class="st1" d="M137.2,171l-0.6,0.3l1.3,2.7c0.2-0.1,0.6-0.2,0.7-0.3
		c0.9-0.4,1.2-1.1,0.8-2C138.9,170.7,138.1,170.5,137.2,171"/>
	<path id="path5833" inkscape:connector-curvature="0" class="st1" d="M116.5,92.3c0-0.1-1.8-0.5-3.1-0.8c-1.6-0.2-2.5-0.3-2.8-0.4
		c-0.4-0.1-1.2-0.1-1.1-0.5c0-0.4,0.4-0.4,0.8-0.5c0.5-0.1,2.1,0.1,2.9,0.2c2.1,0.3,3.4,0.7,3.4,0.7v-2.6c0-0.1-2.9-1.1-6.1-1.4
		c-2.1-0.2-3.1-0.2-4.4-0.2c-0.2,0-0.7,0.1-0.7-0.4c0-0.4,0.5-0.5,0.6-0.5c1.6-0.2,3.6-0.2,5.7-0.1c2.4,0.2,4.7,1,4.7,0.9v-2.8
		c-0.9-0.4-2.2-0.8-3.3-1c-1.4-0.2-3.3-0.4-3.5-0.4c-0.2,0-0.4-0.2-0.4-0.2c-0.1-0.2,0.1-0.4,0.4-0.4c0.4-0.1,1.5-0.1,2.7-0.1
		c0.9,0.1,3.1,0.2,4.2,0.4l-0.1-2.2c-2.1-1.1-5.3-1.6-7.4-1.9c-3.1-0.5-6-0.5-6.5-0.5c-0.2-0.1-0.5-0.1-0.5-0.3
		c0-0.2,0.2-0.4,0.5-0.4c0.4,0,2.8-0.1,6.7,0.2c1.9,0.2,5.5,0.8,7.2,1.2l-0.1-2.1c-1.9-0.9-4.8-1.6-9-2.2c-5.1-0.8-15-0.4-15.5-0.4
		c-0.7,0.1-0.8-0.1-0.8-0.4c0-0.2,0.2-0.4,0.8-0.5c0.5-0.1,7.3-0.7,12.7-0.5c4.1,0.2,10,1.4,11.9,1.7l-0.1-1.7
		c-3.1-2.1-8.2-2.4-8.5-2.4c-0.4-0.1-0.5-0.2-0.6-0.4c-0.1-0.2,0.2-0.4,0.5-0.4c0.3,0,1-0.1,2.6,0c1.3,0.1,4.7,0.8,6.1,1.1l-0.1-1.7
		c-2.3-1.4-7.6-2.2-11.7-2.5c0,0-0.5-0.1-1.4-0.1l-0.1,1.1c0,0.4-0.2,0.5-0.6,0.5c-2.4-0.1-3.3-0.1-5.7,0h-0.1
		c-0.3,0-0.5-0.2-0.5-0.5l-0.1-1.1c-2.2,0.1-4.8,0.2-7.6,0.5c-0.4,0.1-0.8,0.2-0.8-0.2c-0.1-0.2,0.1-0.4,0.5-0.5
		c0.4-0.1,6.1-0.8,7.6-1c0.1,0,0.2,0,0.3,0l-0.4-6.8c0-0.2,0.1-0.3,0.2-0.5c0.1-0.1,0.2-0.2,0.4-0.2c3-0.1,4-0.1,6.8,0
		c0.2,0,0.3,0.1,0.4,0.2c0.1,0.1,0.2,0.2,0.2,0.4c1.3,0.1,2.7,0.1,3.7,0.2c2.2,0.1,7.5,0.8,8.9,1.1v-1.6c-0.2-0.2-0.7-0.3-1-0.5
		c-1.5-0.5-7.2-1.6-15.3-1.6c-8.2,0-13.1,1.1-13.8,1.3c-0.8,0.2-1.8,0.5-1.7,1.1l0.1,18.4c-0.1,1.3,0.1,6.2,0.1,7.4
		c0.1,1.9,3.1,3.1,9.7,5.4c6.9,2.5,15.7,5.3,22.3,7.1v-3.9"/>
	<path id="path5837" inkscape:connector-curvature="0" class="st1" d="M110.7,96.1c-1.3-0.4-2-0.6-3.3-1c-0.2-0.1-0.2,0.1-0.2,0.2
		c0,2.4,0,3.5,0,5.7c0,0.2,0.1,0.2,0.2,0.4c1.3,0.5,2,0.7,3.4,1.1c0.1,0.1,0.2-0.1,0.2-0.2c0-2.2,0-3.5,0-5.9
		C110.9,96.3,110.8,96.2,110.7,96.1"/>
	<path id="path5841" inkscape:connector-curvature="0" class="st1" d="M105.1,94.4c-1.4-0.4-2-0.6-3.4-1.1c-0.1-0.1-0.2,0.1-0.2,0.2
		c0,2.2,0,3.4,0,5.6c0,0.1,0.1,0.2,0.2,0.3c1.3,0.5,2,0.7,3.4,1.1c0.1,0.1,0.2,0,0.2-0.2c0-2.2,0-3.4,0-5.7
		C105.3,94.6,105.2,94.4,105.1,94.4"/>
	<path id="path5845" inkscape:connector-curvature="0" class="st1" d="M93.9,90.7c-1.4-0.5-2-0.7-3.4-1.2c-0.1-0.1-0.2,0.1-0.2,0.2
		v5.5c0,0.1,0.1,0.2,0.2,0.3c1.3,0.4,2,0.7,3.4,1.2c0.1,0.1,0.2-0.1,0.2-0.2c0-2.2,0-3.3,0-5.5C94.1,90.9,94,90.8,93.9,90.7"/>
	<path id="path5849" inkscape:connector-curvature="0" class="st1" d="M113.1,50.2c-0.1-0.2-0.2-0.4-0.4-0.7c-1.3-0.5-4.7-1.3-7-1.6
		c-0.5-0.1-1.1-0.1-1.1-0.4c0-0.3,0.2-0.4,1-0.4c1.9,0.1,5,0.5,6.4,0.8c-0.4-0.8-0.8-1.8-1.3-2.9c-2.6-1-7.4-1.3-8.4-1.4
		c-1-0.1-1.3-0.2-1.1-0.5c0.1-0.3,0.7-0.2,2.1-0.3c1.7-0.1,5.4,0.2,6.5,0.4c-0.4-0.8-0.7-1.6-1.1-2.4c-1.5-1-4.2-1.1-4.9-1.2
		c-0.7-0.1-1-0.3-1-0.5c0.1-0.2,0.4-0.4,0.7-0.4c0.2,0,3.4-0.1,3.7-0.1c0.2,0,0.4-0.1,0.2-0.4c-0.3-0.7-0.5-1.1-0.8-1.8
		c-0.5-0.2-1.1-0.4-1.7-0.5c-0.5-0.1-1.9-0.2-2.7-0.2c-0.4-0.1-0.5-0.2-0.5-0.4c0-0.2,0.1-0.3,0.5-0.4c1-0.1,2.7,0,3.1-0.1
		c0.2,0,0.5-0.1,0.5-0.4c-0.2-0.5-0.4-0.8-0.5-1.3c-0.4-0.2-1.1-0.3-1.6-0.4c-0.7-0.2-2-0.2-3-0.3c-0.2,0-0.5-0.2-0.5-0.3
		c0-0.2,0.1-0.3,0.4-0.4c0.7-0.1,2.2-0.1,2.8-0.2c0.5-0.1,1.1-0.1,0.9-0.5c-0.4-0.7-0.5-1.1-0.8-1.8c-0.5,0-1.3-0.1-1.8-0.1
		c-0.2-0.1-0.5-0.1-0.5-0.2c-0.1-0.2,0.2-0.3,0.5-0.4c0.2-0.1,0.8-0.2,1.3-0.4c-0.2-0.4-0.4-0.8-0.5-1.2c-0.7-0.1-1.8-0.1-2.7-0.1
		c-0.4,0-0.5-0.2-0.5-0.4c0-0.2,0.1-0.2,0.5-0.4c0.7-0.2,1.8-0.2,2.3-0.3c-0.6-1.3-1.1-2.5-1.7-3.7c-4.4,9.2-12,25.6-13.3,28.2
		c4.3-1,10.2-1.4,12.9-1.4C102.6,48.8,108.7,49.3,113.1,50.2"/>
	<path id="path5853" inkscape:connector-curvature="0" class="st1" d="M88.3,88.7c-1.3-0.5-2-0.7-3.4-1.3c-0.1-0.1-0.2,0-0.2,0.2
		v5.6c0,0.2,0.1,0.3,0.2,0.3c1.4,0.5,2.1,0.7,3.4,1.2c0.2,0,0.2-0.1,0.2-0.2V89C88.5,88.8,88.4,88.8,88.3,88.7"/>
	<path id="path5857" inkscape:connector-curvature="0" class="st1" d="M99.5,92.6c-1.4-0.4-2-0.7-3.4-1.1c-0.1-0.1-0.2,0.1-0.2,0.2
		v5.5c0,0.1,0.1,0.2,0.2,0.3c1.3,0.5,2,0.7,3.4,1.1c0.1,0.1,0.2,0,0.2-0.1c0-2.2,0-3.4,0-5.6C99.7,92.8,99.6,92.6,99.5,92.6"/>
	<path id="path5861" inkscape:connector-curvature="0" class="st1" d="M88.6,120.5c0-1.5-1.1-2.5-2.5-2.5c-2,0-2.8,1.5-3,4l3.6-0.1
		C88.1,121.9,88.6,121.5,88.6,120.5"/>
	<path id="path5865" inkscape:connector-curvature="0" class="st1" d="M124.9,117.9c-2.6,0-3.6,2.4-3.6,6c0,4.4,1.3,6.7,3.7,6.7
		c2.4,0,3.7-2.1,3.7-6C128.6,120.3,127.3,117.9,124.9,117.9"/>
	<path id="path5869" inkscape:connector-curvature="0" class="st1" d="M108.6,61.7c0.3-0.1,1.7-0.1,3.4,0.2c1.3,0.2,3.3,0.6,4.1,0.8
		v-1.5c-1.8-0.8-6-1.5-8.2-1.8c-1.4-0.2-3-0.4-4.5-0.5l-0.3,5.9c0.8,0.1,1.3,0.1,1.3,0.1c1,0.1,2.1,0.1,3.1,0.2
		c3.9,0.4,7.2,1.1,8.7,1.5v-2.1c-2.2-1.9-7.4-2-7.7-2s-0.6-0.1-0.6-0.4C107.9,61.8,108.3,61.7,108.6,61.7"/>
	<path id="path5873" inkscape:connector-curvature="0" class="st1" d="M84.4,55.6c0.7-0.2,5.9-2.1,15.4-2.1s15.2,2.1,15.9,2.4
		c0.8,0.4,1.5,0.5,1.8,0c0.3-0.5-0.1-1.3-0.6-1.6c-2.1-1.3-9.4-3-17-2.9c-7.7,0.1-15.4,1.8-16.4,2.2c-1.1,0.4-1.6,1.1-1.2,1.7
		C82.8,56.3,83.8,55.7,84.4,55.6"/>
	<path id="path5877" inkscape:connector-curvature="0" class="st1" d="M116.2,97.7c-1.3-0.4-2-0.6-3.3-1c-0.2-0.1-0.2,0.1-0.2,0.2
		c-0.1,2.5-0.1,3.8-0.1,6c0,0.2,0.1,0.2,0.2,0.4c1.4,0.5,2.1,0.7,3.4,1.1c0.1,0.1,0.2-0.1,0.2-0.2V98
		C116.5,97.9,116.3,97.8,116.2,97.7"/>
	<path id="path5881" inkscape:connector-curvature="0" class="st1" d="M97.9,66.7c1.8-0.1,3.9,0,3.9,0l0.4-7.7
		c-1.8-0.1-4.8,0.1-4.8,0.1L97.9,66.7z"/>
	<path id="path5885" inkscape:connector-curvature="0" class="st1" d="M141.3,170.6c1,2-0.1,3.7-2.1,4.6c-0.2,0.1-0.5,0.2-0.7,0.3
		l1.2,2.6c0.1,0.2,0.1,0.4-0.2,0.5l-1.3,0.5c-0.2,0.1-0.4,0.1-0.5-0.2l-3.8-7.9c-0.2-0.3-0.1-0.4,0.2-0.5l2-0.9
		c1.5-0.7,2.6-0.8,3.6-0.5C140.4,169.3,141,169.9,141.3,170.6 M175.9,134.2c-0.1-0.2-0.2-0.4,0-0.7l0.5-0.8c0.1-0.2,0.2-0.2,0.5-0.1
		l7.8,4.3l0,0c0.2,0.2,0.3,0.4,0.2,0.5l-0.8,1.1c-0.2,0.3-0.4,0.3-0.7,0.1l-4.2-2.4h-0.1l3.2,4.4c0.2,0.2,0.1,0.4,0,0.5l-0.2,0.4
		c-0.1,0.2-0.2,0.4-0.5,0.3l-5.5-0.6l-0.1,0.1l4.1,2.7c0.4,0.2,0.3,0.4,0.1,0.6l-0.6,1c-0.2,0.2-0.4,0.4-0.6,0.2l0,0l-7.3-4.9
		c-0.2-0.2-0.2-0.4-0.2-0.6l0.5-0.8c0.2-0.3,0.4-0.4,0.7-0.3l7,0.7l0.1-0.1L175.9,134.2z M172.4,147.7l-3.8-3
		c-0.2-0.2-0.2-0.4,0-0.5l0.8-1.1c0.2-0.2,0.4-0.2,0.5-0.1l3.8,3.1c2.4,2,2.5,4.1,0.7,6.1c-1.8,2.2-3.9,2.2-6.1,0.4l-3.8-3.1
		c-0.2-0.2-0.2-0.4,0-0.6l0.8-1c0.2-0.2,0.3-0.2,0.5-0.1l3.7,3c1.7,1.4,2.7,1.2,3.5,0.2C174.1,150,174.1,149,172.4,147.7
		 M161.5,152.6c-0.1-0.2-0.1-0.5,0.2-0.7l0.7-0.7c0.2-0.2,0.4-0.2,0.5,0l6.4,6.2c0,0.1,0.1,0.1,0.1,0.1c0.2,0.2,0.2,0.4-0.1,0.5
		l-1,1c-0.2,0.2-0.5,0.2-0.7-0.1l-3.4-3.4l0,0l1.9,5.1c0.1,0.2,0,0.4-0.1,0.5l-0.4,0.4c-0.2,0.2-0.4,0.2-0.7,0.2l-5.2-2.1l-0.1,0.1
		l3.3,3.6c0.2,0.3,0.2,0.4-0.1,0.7l-0.8,0.8c-0.2,0.2-0.4,0.2-0.6,0.1l-0.1-0.1l-5.7-6.7c-0.2-0.2-0.2-0.4,0-0.6l0.8-0.7
		c0.2-0.2,0.4-0.2,0.7-0.1l6.5,2.5l0.1-0.1L161.5,152.6z M157.4,166.4l0.5-0.4c0.2-0.2,0.4-0.1,0.5,0.1l0.4,0.6
		c0.1,0.1,0.1,0.3-0.1,0.4l-2.9,2.1c-0.2,0.1-0.4,0.1-0.5-0.1l-0.4-0.6c-0.2-0.2-0.1-0.4,0.1-0.5l0.5-0.4l-4.1-5.4l-0.6,0.5
		c-0.2,0.1-0.4,0.1-0.5-0.1l-0.4-0.5c-0.1-0.2-0.1-0.4,0.1-0.5l3-2.2c0.2-0.1,0.4-0.1,0.5,0.1l0.5,0.6c0.1,0.2,0.1,0.4-0.1,0.5
		l-0.6,0.4L157.4,166.4z M150.3,172.5c0.2,0.3,0.2,0.4-0.1,0.5l-1.4,0.8c-0.2,0.2-0.2,0.1-0.5-0.1l-3.9-6.4l-2.2,1.3
		c-0.2,0.2-0.4,0.1-0.5-0.2l-0.5-0.8c-0.2-0.2-0.1-0.4,0.2-0.5l5.8-3.4l0.6-0.4c0.2-0.1,0.4-0.1,0.5,0.1v0.1l0.5,1
		c0.1,0.2,0,0.4-0.2,0.5l-2.1,1.3L150.3,172.5z M127.8,172.6c2.8-0.9,4.9,0.7,5.7,3.3c1,3-0.1,5.4-2.6,6.2c-2.7,0.8-4.8-0.5-5.7-3.3
		C124.2,176,125.2,173.4,127.8,172.6 M117.4,183.9l0.7-0.1c0.2,0,0.4,0.1,0.4,0.3l0.1,0.7c0.1,0.2-0.1,0.4-0.2,0.4l-3.5,0.6
		c-0.2,0.1-0.4-0.1-0.4-0.2l-0.2-0.8c-0.1-0.2,0.1-0.4,0.2-0.4l0.7-0.1l-1.1-6.7l-0.8,0.1c-0.2,0.1-0.4-0.1-0.4-0.3l-0.2-0.7
		c0-0.2,0.1-0.3,0.2-0.4l3.7-0.7c0.2-0.1,0.4,0.1,0.4,0.2l0.1,0.8c0.1,0.2-0.1,0.4-0.2,0.4l-0.8,0.1
		C116.2,177.2,117.4,183.9,117.4,183.9z M106.1,179.7c0.1,0.5,0.7,0.7,1,0.8l1.7,0.6c1.1,0.4,1.9,1.1,2,2.4c0.2,2-1.4,3.3-3.3,3.4
		c-0.9,0.1-2-0.1-3-0.2c-0.2-0.1-0.3-0.2-0.3-0.2s0-0.2,0.1-0.2l0.3-1.1c0-0.1,0.1-0.2,0.2-0.2c0.1,0,0.2,0,0.2,0.1
		c0.7,0.2,1.5,0.3,2.2,0.2c0.6-0.1,1.3-0.4,1.3-1.1c-0.1-0.5-0.5-0.7-1-0.9l-1.9-0.7c-1.1-0.4-1.8-1.1-1.9-2.4
		c-0.2-1.8,1.6-2.9,3.2-3c1-0.1,1.9,0.1,2.8,0.4c0.2,0.1,0.3,0.2,0.4,0.3c0,0.1-0.1,0.1-0.1,0.2l-0.4,1.1c-0.1,0.2-0.1,0.2-0.2,0.2
		c-0.1,0-0.2-0.1-0.2-0.1c-0.6-0.2-1.4-0.4-1.9-0.3C106.7,178.8,106.1,179,106.1,179.7 M21.2,136.1l-4.6,2.8
		c-0.2,0.2-0.4,0.1-0.5-0.2l-0.7-1.1c-0.2-0.2-0.2-0.4,0.1-0.6l7.5-4.6c0.4-0.2,0.5-0.1,0.7,0.2l0.6,1c0.1,0.2,0.1,0.4,0.1,0.7
		l-2.6,6.4l0,0l4.7-2.8c0.2-0.2,0.5-0.1,0.5,0.2l0.7,1.1c0.2,0.3,0.1,0.4-0.1,0.5l-7.5,4.6c-0.3,0.2-0.4,0.1-0.5-0.1l-0.6-1
		c-0.1-0.2-0.1-0.4-0.1-0.7L21.2,136.1L21.2,136.1z M25.3,149.7c0.1,0.2,0.1,0.4-0.1,0.5l-0.5,0.5c-0.1,0.1-0.4,0.1-0.4-0.1
		l-2.2-2.8c-0.1-0.2-0.1-0.4,0-0.5l0.6-0.5c0.2-0.2,0.4-0.1,0.5,0.1l0.4,0.5l5.4-4.2l-0.5-0.5c-0.1-0.2-0.1-0.4,0.1-0.5l0.6-0.4
		c0.1-0.1,0.3-0.1,0.4,0.1l2.2,3c0.1,0.2,0.1,0.4,0,0.5l-0.6,0.4c-0.2,0.2-0.4,0.1-0.5-0.1l-0.5-0.5l-5.4,4.1L25.3,149.7z
		 M32.2,156.8c0.2,0.2,0.1,0.4-0.1,0.5l-0.8,0.7c-0.2,0.2-0.4,0.2-0.6-0.1l-3.6-3.9c-0.2-0.2-0.2-0.4,0.1-0.6l6.5-6
		c0.2-0.2,0.4-0.2,0.5,0.1l1,1c0.2,0.2,0.2,0.4,0,0.5l-5.4,5L32.2,156.8z M41.8,162.8l-0.9-1.9c-0.5-1-0.5-2.1,0.2-3
		c1.1-1.4,3.1-1.1,4.4-0.1c0.8,0.7,1.3,1.3,1.8,2.2c0.1,0.2,0.1,0.4,0.1,0.4c-0.1,0.1-0.1,0.1-0.2,0.2l-1,0.5
		c-0.1,0.1-0.2,0.1-0.4,0c-0.1-0.1-0.1-0.1-0.1-0.2c-0.2-0.5-0.7-1.1-1.1-1.5c-0.4-0.4-1.1-0.6-1.5-0.1c-0.2,0.4,0,0.9,0.2,1.3
		l0.8,1.6c0.5,1.1,0.6,2.1-0.2,3.1c-1.3,1.6-3.2,1.5-4.7,0.2c-0.7-0.5-1.5-1.4-1.9-2.2c-0.1-0.2-0.1-0.4-0.1-0.4
		c0.1-0.1,0.1-0.1,0.2-0.2l1-0.7c0.1-0.1,0.2-0.2,0.4-0.1c0.1,0.1,0.1,0.1,0.1,0.2c0.4,0.7,0.9,1.3,1.5,1.7c0.5,0.4,1.2,0.6,1.7,0.1
		C42.1,163.8,42,163.3,41.8,162.8 M49.3,170.3l-2.1-1.3l-0.4-0.2l-1.4,1.1c-0.2,0.1-0.4,0.2-0.5,0.1l-1.3-0.8
		c-0.1-0.1-0.1-0.2-0.1-0.3c0.1-0.1,0.1-0.1,0.1-0.1l7.7-5.6c0.2-0.1,0.4-0.2,0.5-0.1l1.2,0.8c0.2,0.2,0.3,0.4,0.2,0.5l-2,9.2
		c-0.1,0.1-0.1,0.2-0.1,0.2c-0.1,0.2-0.2,0.2-0.4,0.1l-1.3-0.8c-0.3-0.2-0.3-0.4-0.2-0.6l0.4-1.6L49.3,170.3L49.3,170.3z
		 M55.7,167.4c-0.2-0.2-0.2-0.3-0.1-0.5l0.5-1c0.1-0.2,0.2-0.2,0.5-0.1l6,3.1l0.7,0.4c0.2,0.1,0.2,0.2,0.2,0.4v0.1l-0.6,1
		c-0.2,0.2-0.4,0.2-0.6,0.1l-2.2-1.1l-3.5,6.6c-0.1,0.2-0.2,0.3-0.5,0.2l-1.4-0.8c-0.2-0.1-0.2-0.2-0.1-0.4l3.5-6.6L55.7,167.4
		L55.7,167.4z M66.1,179.3c0.2,0.1,0.2,0.2,0.2,0.5l-0.3,0.7c-0.1,0.2-0.2,0.2-0.4,0.2l-3.3-1.3c-0.2-0.1-0.2-0.3-0.2-0.4l0.3-0.7
		c0.1-0.2,0.2-0.2,0.5-0.2l0.5,0.2l2.5-6.3l-0.7-0.2c-0.2-0.1-0.2-0.3-0.2-0.5l0.3-0.7c0.1-0.2,0.2-0.2,0.4-0.2l3.5,1.4
		c0.2,0.1,0.2,0.2,0.2,0.4l-0.3,0.7c-0.1,0.2-0.2,0.2-0.5,0.2l-0.7-0.2l-2.5,6.3C65.4,179.1,66.1,179.3,66.1,179.3z M73.9,176.9
		l1.4,1.1c0.9,0.8,1.4,1.8,1,3c-0.5,1.9-2.5,2.5-4.3,2c-0.8-0.2-1.9-0.8-2.7-1.3c-0.2-0.1-0.2-0.2-0.2-0.4c0-0.1,0.1-0.2,0.1-0.2
		l0.7-1c0.1-0.2,0.2-0.2,0.4-0.2c0.1,0.1,0.1,0.1,0.2,0.2c0.6,0.4,1.3,0.8,2,1c0.5,0.2,1.4,0.1,1.6-0.5c0.2-0.5-0.1-0.8-0.5-1.1
		l-1.6-1.4c-0.8-0.8-1.3-1.8-0.9-2.9c0.5-1.7,2.5-2.2,4.1-1.7c1,0.2,1.8,0.7,2.5,1.3c0.2,0.2,0.2,0.3,0.2,0.4c0,0.1-0.1,0.1-0.1,0.2
		l-0.7,0.9c-0.1,0.2-0.2,0.2-0.4,0.2c-0.1-0.1-0.1-0.1-0.2-0.2c-0.4-0.4-1.1-0.8-1.7-1c-0.5-0.2-1.2-0.2-1.4,0.5
		C73.1,176.3,73.6,176.6,73.9,176.9 M93.5,177.6l-1.1,8.7c-0.1,0.4-0.2,0.4-0.5,0.4l-1.1-0.2c-0.2-0.1-0.5-0.2-0.5-0.4l-3.4-5.9
		h-0.1l-0.7,5.3c-0.1,0.3-0.2,0.4-0.4,0.4l-1.3-0.2c-0.3-0.1-0.5-0.1-0.4-0.5l1.1-8.7c0.1-0.4,0.2-0.4,0.5-0.4l1.1,0.1
		c0.3,0.1,0.4,0.2,0.5,0.4l3.4,6h0.1l0.7-5.4c0.1-0.3,0.2-0.4,0.5-0.4l1.4,0.2C93.5,177.2,93.5,177.4,93.5,177.6 M196.2,127.9
		c-7.5,18.9-20.3,35-37.1,46.7c-15.6,10.8-33.8,17.2-52.8,18.3c-0.1,0-0.2,0.1-0.2,0.1L100,199l-6.1-6.1c-0.1-0.1-0.2-0.1-0.2-0.1
		c-18.9-1.1-37.2-7.5-52.8-18.3c-16.7-11.7-29.5-27.8-37.1-46.7l-0.6-1.5l23.1-8.8c0.6-0.2,1.3-0.1,1.6,0.5l0.1,0.1
		c0.1,0.2,0.5,0.7,0.9,1.1c0.2,0.6,0.4,1.2,0.6,1.8c-1.2-0.4-2.1-1.6-2.4-2.1l-0.1-0.2c-0.1-0.1-0.1-0.1-0.2-0.1h-0.1l-1.6,0.7
		l-0.7,0.3l0.1,0.3c0.1,0.2,0.1,0.3,0.1,0.4c0.7,1.7,1.5,3.3,2.2,5c0.1,0.2,0.2,0.5,0.4,0.7l0.7-0.2l3-1.1c0.2,0.4,0.4,0.7,0.5,1.1
		l-3,1.1l-0.7,0.2c0.1,0.2,0.2,0.5,0.4,0.7c6.1,11.5,14.8,21.4,25.6,28.9C65.9,165.2,80.1,170,95,171l1.3,1.3
		c-15.6-0.7-30.6-5.7-43.3-14.6c-13.4-9.3-23.6-22.1-29.6-37.2l-0.1-0.4l-18.4,7l0.1,0.4c7.4,18.7,20.2,34.6,36.7,46.2
		c15.6,10.8,33.8,17.1,52.7,18.1l5.4,5.4l0.2,0.2l5.7-5.6c18.9-1,37.2-7.3,52.7-18.1c16.5-11.6,29.2-27.5,36.7-46.2l0.1-0.4
		l-18.4-7.1l-0.1,0.4c-6.1,15.1-16.3,27.9-29.7,37.2c-12.8,9-27.7,14-43.3,14.6l1.3-1.3c14.9-1,29.1-5.8,41.3-14.3
		c10.8-7.6,19.5-17.4,25.6-28.9c0.2-0.2,0.2-0.5,0.4-0.7l-0.8-0.2l-3-1.1c0.2-0.4,0.4-0.7,0.5-1.1l3.1,1.1l0.7,0.2
		c0.1-0.2,0.2-0.5,0.4-0.7c0.8-1.6,1.5-3.3,2.2-5c0.1-0.1,0.1-0.2,0.2-0.4l0.2-0.3l-0.8-0.3l-1.6-0.7c-0.1,0-0.1,0-0.1,0
		c-0.1,0-0.1,0.1-0.2,0.1l-0.1,0.2c-0.4,0.5-1.2,1.6-2.4,2.1c0.2-0.6,0.4-1.2,0.6-1.8c0.4-0.4,0.8-0.8,0.9-1.1l0.1-0.1
		c0.4-0.5,1-0.8,1.6-0.5l23.1,8.8L196.2,127.9z M13.7,117.2l-0.2-0.3l-6.8,3.1c-0.4,0.2-0.8,0-1-0.4c-0.1-0.2-0.7-1-1-1.9
		c-0.4-1-0.7-2.5-0.4-3.8c0.3-1.1,1.1-1.9,2.2-2.4l16.8-7.7c0.1,0,0.1-0.1,0.1-0.1c0.3-0.2,0.8-0.4,1.5-0.4c0.5,0,1,0.1,1.5,0.3
		c0.1,0.5,0.1,0.9,0.1,1.4c-0.5-0.3-1.1-0.5-1.6-0.5c-0.4,0-0.7,0.1-1,0.2l-0.1,0.1c-0.7,0.4-1.3,1.3-1.5,2.4
		c-0.2,1.3,0,2.9,0.7,4.4L23,112c0.2,0.4-0.1,0.8-0.4,1l-8,3.5l0.2,0.4c1,1.3,1.5,2.6,1.8,3.6l-1.1,0.5
		C15.2,119.9,14.7,118.5,13.7,117.2 M94.1,170.1c-14.5-1.1-28.2-5.9-40.1-14.2c-10.7-7.4-19.2-17.2-25.3-28.5l3-1.1
		c0.1,0.2,0.2,0.4,0.2,0.5c0.7,1.2,1.4,2.4,2.2,3.6c0.1,0.1,0.2,0.2,0.4,0.5l0.1,0.1c13.5,20.2,33.3,32.8,55.9,35.5
		C90.6,166.5,94.1,170.1,94.1,170.1z M100.5,185.5c0.2,0,0.4,0.2,0.4,0.4v0.8c0,0.2-0.1,0.3-0.3,0.3l-3.6-0.1
		c-0.2,0-0.4-0.2-0.4-0.3v-0.8c0-0.2,0.1-0.4,0.4-0.4h0.7l0.1-6.8l-0.7-0.1c-0.2,0-0.4-0.2-0.4-0.4v-0.7c0-0.2,0.1-0.4,0.3-0.4
		l3.8,0.1c0.2,0,0.4,0.2,0.4,0.3v0.8c0,0.2-0.2,0.4-0.4,0.4h-0.8l-0.1,6.8C99.8,185.5,100.5,185.5,100.5,185.5z M168.2,126.4l3,1.1
		c-6,11.4-14.6,21.1-25.3,28.5c-11.9,8.3-25.6,13.1-40.1,14.2l3.6-3.6c22.6-2.7,42.4-15.2,55.9-35.5l0.1-0.1
		c0.1-0.2,0.2-0.4,0.4-0.5c0.8-1.1,1.5-2.3,2.2-3.5C168,126.7,168.1,126.5,168.2,126.4 M27.6,97.3c0.1-1.4,0.2-2.8,0.4-4.2
		c0.9-8.4,2.9-14.5,3.7-16.7l0.2-0.8c3.3-9.3,5.9-16.6,5.9-25.5c-0.1-6.9-8.5-16.5-11.7-19.5l-2-1.9l2.1-1.9L53.4,1.9L55,3
		c5.9,3.9,13.5,6,21.4,6c8.2,0,16.1-2.4,22.1-6.5l1.5-1l1.5,1c6,4.2,13.8,6.5,22.1,6.5c7.9,0,15.5-2.2,21.4-6l1.7-1.1l29.4,26.7
		l-2,1.9c-3.3,3.1-11.7,12.6-11.7,19.5c-0.1,8.9,2.5,16.2,5.9,25.5l0.2,0.8c0.8,2.2,2.8,8.4,3.7,16.7c0.2,1.5,0.3,2.8,0.4,4.2
		c0.1,1.3,0.1,2.7,0.1,4c0.1,9.7-1.9,18.1-5.6,25c-0.7,1.1-1.4,2.4-2.1,3.4c-0.1,0.2-0.2,0.3-0.4,0.5l-0.1,0.1
		c-13.3,20-32.9,32.4-55.2,35h-0.2l-9,9l-9-9h-0.2c-22.3-2.6-41.9-15.1-55.2-35l-0.1-0.1c-0.2-0.2-0.2-0.4-0.4-0.5
		c-0.8-1.1-1.5-2.3-2.1-3.4c-3.8-6.9-5.7-15.3-5.6-25C27.5,100,27.6,98.6,27.6,97.3 M173.6,103.7c0.5-0.2,1.1-0.4,1.5-0.4
		c0.7,0,1.1,0.2,1.5,0.4c0.1,0,0.1,0.1,0.1,0.1l16.8,7.7c1.1,0.5,1.9,1.3,2.2,2.4c0.4,1.3,0,2.8-0.4,3.8c-0.4,1-0.8,1.8-1,1.9
		c-0.2,0.4-0.7,0.5-1,0.4l-6.9-3.1l-0.2,0.3c-1,1.3-1.5,2.7-1.8,3.7l-1.1-0.5c0.2-1,0.8-2.3,1.7-3.6l0.2-0.4l-8-3.5
		c-0.4-0.2-0.5-0.6-0.4-1l0.1-0.3c0.7-1.5,0.9-3.1,0.7-4.4c-0.2-1.1-0.8-2.1-1.5-2.4l-0.1-0.1c-0.4-0.2-0.7-0.2-1-0.2
		c-0.5,0-1.1,0.2-1.6,0.5C173.6,104.6,173.6,104.1,173.6,103.7 M197.7,126c-0.1-0.1-0.1-0.2-0.2-0.2l-12.2-4.7
		c0.2-0.8,0.7-2.1,1.5-3.3l6.3,2.8c0.2,0.1,0.4,0.1,0.7,0.1c0.5,0,1.1-0.3,1.4-0.8c0.2-0.2,0.7-1,1.1-2.1c0.6-1.6,0.8-3.1,0.4-4.3
		c-0.4-1.3-1.3-2.3-2.7-2.9l-16.8-7.6c0-0.1-0.1-0.1-0.1-0.1l0,0c-0.7-0.3-1.9-0.7-3.3-0.2v-1.6c0-1.3-0.1-2.7-0.1-4.1
		c-0.1-1.4-0.2-2.8-0.4-4.3c-1-8.5-3-14.7-3.8-17l-0.2-0.8c-3.3-9.2-5.9-16.5-5.8-25.1c0.1-6.5,8.2-15.7,11.4-18.7l3-2.8l-31-28.1
		L144.2,2c-5.7,3.8-13,5.8-20.7,5.8c-8,0-15.7-2.2-21.4-6.3L100,0l-2.2,1.5C92,5.6,84.4,7.8,76.4,7.8c-7.7,0-15-2.1-20.7-5.8
		l-2.5-1.6L25.3,25.9l-3,2.7l2.9,2.8c3.1,3,11.3,12.2,11.4,18.7c0.1,8.7-2.5,15.9-5.8,25.1l-0.2,0.8c-0.8,2.3-2.8,8.5-3.8,17
		c-0.1,1.5-0.2,2.9-0.4,4.3c-0.1,1.4-0.1,2.7-0.1,4.1c0,0.5,0,1,0.1,1.6c-1.5-0.5-2.7-0.2-3.3,0.2H23c-0.1,0-0.1,0.1-0.1,0.1
		l-16.8,7.6c-1.4,0.6-2.2,1.6-2.7,2.9c-0.4,1.3-0.2,2.7,0.4,4.3c0.4,1.1,0.9,1.8,1.1,2.1c0.2,0.5,0.8,0.8,1.4,0.8
		c0.2,0,0.4-0.1,0.7-0.1l6.3-2.8c0.8,1.2,1.3,2.4,1.5,3.3l-12.2,4.7c-0.1,0.1-0.2,0.1-0.2,0.2c-0.1,0.1-0.1,0.2,0,0.3l0.7,1.9
		c7.6,19,20.5,35.3,37.3,47c15.7,11,34,17.3,53,18.5l6.3,6.2c0.1,0.1,0.2,0.1,0.2,0.1s0.2-0.1,0.2-0.1l6.3-6.2
		c19-1.1,37.4-7.5,53-18.5c16.8-11.7,29.8-28,37.4-47l0.7-1.9C197.7,126.2,197.7,126.1,197.7,126"/>
	<path id="path5889" inkscape:connector-curvature="0" class="st1" d="M94.8,145.7c0.8-0.5,1.7-1.1,1.7-2.3c0-1-0.8-1.8-1.8-1.8
		c-1,0-1.8,0.8-1.8,1.8C92.9,144.4,93.8,145.1,94.8,145.7"/>
	<path id="path5893" inkscape:connector-curvature="0" class="st1" d="M151.8,39.4c-1,0.6-2,0.8-2.7,0.7c0.2-0.8,0.9-1.7,1.9-2.3
		c1-0.6,2-0.8,2.7-0.7C153.5,37.9,152.8,38.8,151.8,39.4 M149.9,43c-1,0.7-2,0.8-2.7,0.7c0.2-0.8,0.9-1.7,1.9-2.3
		c1-0.7,2-0.8,2.8-0.7C151.6,41.5,150.9,42.4,149.9,43 M148,46.1c-1.1,0.2-2.2,0.1-2.8-0.4c0.5-0.7,1.4-1.2,2.5-1.5
		c1.1-0.2,2.1-0.1,2.8,0.4C150,45.3,149.1,45.9,148,46.1 M147.2,131.8c-1,0-2.1,0.1-2.6,0.1c0.3-1.7,0.4-3.7,0.4-6v-2.8
		c0-1.8-0.2-4-2.8-4c-0.9,0-1.8,0.4-2.5,1.1c-0.8,0.8-1,1.5-1,3.4v2.2c0,2.9,0.2,4.7,0.7,6c-0.5,0-1.5-0.1-2.5-0.1
		c-1.1,0-2.1,0.1-2.6,0.1c0.2-1.7,0.4-3.7,0.4-6V122c0-1.6-0.2-3.9-0.7-5.5c1.4,0,3.3,0,4.7-0.1l-0.1,2.7l1.3-1.1
		c1.6-1.3,2.8-1.9,4.4-1.9c3.6,0,4.9,2.1,4.9,5.6v4.1c0,2.9,0.2,4.7,0.7,6C149.2,131.8,148.2,131.8,147.2,131.8 M124.6,132.3
		c-4.9,0-7.7-2.8-7.7-7.7c0-4.8,3-8.4,8.5-8.4c4.9,0,7.7,2.8,7.7,7.6C133,129,129.8,132.3,124.6,132.3 M116.5,116.7
		c-0.1,0.5-0.5,1.8-0.7,2.3c-1.2-0.1-1.9-0.2-2.8-0.2h-1.4c-0.1,1.1-0.1,2.3-0.1,3.2v3.6c0,2.4,0.2,4.2,2.4,4.2c0.7,0,1.1-0.2,2-0.5
		c0.2-0.1,0.5-0.1,0.4,0.4c-0.2,0.7-0.4,1.3-0.5,2.1c-1.9,0.5-2.7,0.6-3.7,0.6c-2.7,0-4.5-1.1-4.5-5v-4.8c0-1.5,0-2.7-0.1-3.7
		c-0.8,0-1.8,0.1-2.2,0.2c-0.1,0-0.3,0-0.2-0.4c0-0.1,0.4-1.6,0.5-2.1c0.4,0.1,1.1,0.1,1.9,0.1c0-1.3-0.1-1.9-0.1-2.8
		c1.1-0.4,3.1-1.3,4-1.8c0.4-0.2,0.5,0.1,0.5,0.4c-0.1,0.4-0.2,1.4-0.3,4.2h2.2c0.8,0,1.6-0.1,2.4-0.2
		C116.5,116.4,116.6,116.5,116.5,116.7 M110.3,153.2c-2.1,0-3.5-1.3-3.5-3.1c0-1.6,1-2.4,2.5-3.3c-1-0.6-2-1.4-2-2.9
		c0-1.7,1.5-3.1,3.4-3.1c1.8,0,3.2,1.1,3.2,2.8c0,1.5-1,2.2-2.1,2.8c1.3,0.8,2.5,1.6,2.5,3.3C114.3,151.8,112.7,153.2,110.3,153.2
		 M101.8,152.8L101.8,152.8l-0.1,0.1c0,0-1.4,0-2.2,0.1h-0.1l-0.1-0.3l5.8-9.9h-3.7c-0.5,0-1.3,0.1-1.9,0.5l-0.1,0.1l-0.2-0.2
		l0.1-0.1c0.2-0.5,0.4-1.5,0.4-1.8v-0.1h0.1c0.4,0,0.8,0,1.4,0h4.2c0.5,0,0.8,0,1.3,0l0.1-0.1v0.1c0,0.2,0.1,0.9,0.1,1.1l0.1,0.1
		l-0.1,0.1c-0.9,1-2,2.9-2.9,4.6C102.5,149.7,101.9,151.2,101.8,152.8 M99.2,131.8c-0.5,0-1.5-0.1-2.5-0.1s-2,0.1-2.6,0.1
		c0.3-1.8,0.4-3.3,0.4-5.6v-3.8c0-1.5-0.1-4.2-0.7-5.9c1.1,0,3-0.1,4.3-0.1l-0.1,3.6l1.1-1.5c1.4-1.9,2.4-2.5,3.9-2.5
		c0.5,0,0.8,0.1,1.4,0.3c-0.5,1.6-0.9,3.3-1.1,4.2c-0.1,0.2-0.2,0.5-0.5,0.2c-0.6-0.7-0.7-0.9-1.5-0.9c-0.9,0-1.6,0.5-2.2,1.4
		c-0.4,0.7-0.6,1.3-0.6,2.8v2.5C98.5,129.4,98.7,130.5,99.2,131.8 M94.3,153c-2.1,0-3.5-1.3-3.5-3.1c0-1.6,1-2.4,2.5-3.4
		c-1-0.5-2-1.4-2-2.8c0-1.8,1.5-3.1,3.4-3.1c1.8,0,3.1,1.1,3.1,2.8c0,1.5-1,2.2-2.1,2.8c1.3,0.7,2.5,1.6,2.5,3.3
		C98.2,151.5,96.6,153,94.3,153 M89.2,152.7c-0.2-0.1-0.5-0.1-1-0.1c-0.3,0-0.6,0.1-1,0.1H87l0.1-0.1c0.2-1,0.2-1.9,0.2-3v-5.4
		c0-1.5-0.1-1.7-0.6-1.7c-0.1,0-0.4,0.1-0.6,0.1l-0.8,0.2c-0.2,0.1-0.4,0.1-0.6,0.2l0,0l-0.2-0.2l0.1-0.1c0.1-0.2,0.2-0.6,0.4-1
		l0.1-0.1h0.1c0.4-0.1,0.8-0.1,1.3-0.2l1.8-0.4c0.4-0.1,0.7-0.2,1-0.2H89l0.2,0.2l-0.1,0.1c-0.2,1-0.2,2.2-0.2,2.8v5.8
		c0,1.1,0.1,2.1,0.3,2.7l0.1,0.2L89.2,152.7L89.2,152.7z M78.9,124.4c0-4.8,3.1-8.2,7.5-8.2c3.9,0,6.2,2.3,6.2,6
		c0,0.3,0,1.7-0.5,1.7h-3.9c-1.6,0-3.9,0.1-4.9,0.1c0.1,3.7,2.1,5.8,5.4,5.8c1.3,0,2.1-0.3,3.2-1c0.2-0.2,0.5-0.1,0.4,0.5
		c-0.3,1.1-0.4,1.4-0.7,2.3c-1.4,0.5-3.2,1-4.8,1C81.9,132.4,78.9,129.1,78.9,124.4 M74.3,128.7c-0.5,1.1-0.7,1.9-1,3.2
		c-0.4-0.1-1.1-0.1-1.8-0.1c-0.6,0-1.4,0.1-2,0.1c-0.2-1.4-0.5-2.2-1-3.6l-2.1-6.2c-0.7-1.9-1.4-3.9-2.7-5.5c2.1,0.1,3.6,0,5.6-0.2
		c0.1,1.5,0.5,3,0.9,4.4l1.1,3.9c0.3,1,0.9,3,0.9,3c0.2-0.7,0.5-1.4,0.7-1.9l1.8-4.7c0.3-0.8,0.7-2.1,0.8-3.3c0-0.4,0.1-0.8,0-1.4
		c0.5,0.1,1.3,0.1,1.9,0.1c0.6,0,1.6-0.1,2.1-0.2c0.4-0.1,0.4,0.2,0.2,0.4c-1.1,1.4-1.9,3.2-2.7,5.1L74.3,128.7z M65,128.6
		c-0.2,0.8-0.8,3.1-1,3.4c-3.5-0.1-5.8-0.1-7.8-0.1c-2.6,0-4.2,0-5.6,0c0.2-1.6,0.4-3.5,0.4-5.9v-9.7c0-1.6-0.1-4.6-0.6-6
		c1,0.1,1.8,0.1,2.5,0.1h5.8c2.1,0,2.9-0.1,5.2-0.1c-0.4,1.5-0.8,3-1,3.6c-0.2,0.6-0.5,0.1-0.5,0.1c-1-1.4-2.8-1.6-4.6-1.6
		c-0.5,0-1.2,0.1-2,0.1c-0.1,0.5-0.1,2-0.1,3.4v3.1h2.6c1.9,0,3.8-0.2,4.5-0.2c0.3,0,0.2,0.2,0.2,0.2c-0.2,0.8-0.5,2-0.7,2.7
		c-2-0.2-3.1-0.2-4.5-0.2h-2.2v4.4c0,2.8,0.3,3.8,3.7,3.8c1.9,0,3,0,5-1.6C64.7,127.7,65.1,127.9,65,128.6 M49.5,44.7
		c0.7-0.5,1.7-0.7,2.8-0.4c1.1,0.2,2,0.8,2.5,1.5c-0.7,0.5-1.7,0.7-2.8,0.4S50,45.3,49.5,44.7 M48.3,40.7c0.8-0.2,1.8,0.1,2.7,0.7
		c1,0.6,1.6,1.5,1.9,2.3c-0.7,0.2-1.8-0.1-2.7-0.7C49.2,42.4,48.4,41.5,48.3,40.7 M46.3,37.1c0.8-0.2,1.8,0.1,2.8,0.7
		c1,0.7,1.7,1.5,1.9,2.3c-0.8,0.2-1.8-0.1-2.8-0.7C47.2,38.8,46.6,37.9,46.3,37.1 M46.7,28.6c0.7,0.3,1.5,1.1,2,2.2
		c0.5,1.1,0.7,2.2,0.5,3.1c-0.7-0.3-1.5-1.1-2-2.2C46.7,30.6,46.6,29.4,46.7,28.6 M48.9,25.7c0.5,0.5,1.1,1.6,1.3,2.8
		c0.2,1.3,0,2.4-0.4,3.1c-0.6-0.5-1.1-1.6-1.3-2.8C48.3,27.5,48.5,26.4,48.9,25.7 M50.1,25c0.1-1.3,0.5-2.4,1-3
		c0.5,0.7,0.8,1.8,0.7,3.1c-0.1,1.2-0.5,2.3-1,2.9C50.3,27.4,50,26.2,50.1,25 M51.3,34.9c0.5,0.5,1.1,1.6,1.3,2.8
		c0.2,1.3,0.1,2.4-0.4,3.1c-0.6-0.5-1.1-1.6-1.3-2.8C50.7,36.7,50.9,35.6,51.3,34.9 M50.1,37.8c-0.8-0.2-1.6-0.8-2.4-1.7
		c-0.7-1-1.1-2.1-1.1-2.9c0.8,0.1,1.6,0.7,2.4,1.7C49.8,35.9,50.1,36.9,50.1,37.8 M49.7,34.9c-0.1-0.8,0.1-1.8,0.6-2.7
		c0.5-1,1.3-1.6,1.9-1.9c0.1,0.8-0.1,1.8-0.6,2.7C51,34,50.3,34.7,49.7,34.9 M52.1,27.7c0.8-0.7,1.6-1.1,2.3-1
		c-0.1,0.8-0.6,1.6-1.4,2.4c-0.8,0.7-1.6,1.1-2.3,1C50.7,29.3,51.3,28.4,52.1,27.7 M53.1,23.7c0.7-1,1.5-1.7,2.2-1.9
		c0.1,0.8-0.2,2-0.8,3c-0.6,1.1-1.5,1.8-2.2,1.9C52.2,25.9,52.4,24.8,53.1,23.7 M55.3,45.1c-0.7-0.3-1.5-1.1-2-2.2
		c-0.5-1.1-0.7-2.3-0.5-3.1c0.7,0.3,1.5,1.1,2,2.2C55.3,43.2,55.5,44.4,55.3,45.1 M57.7,47.1c-0.5,0.7-1.5,1.1-2.6,1.3
		c-1.1,0.2-2.2-0.1-2.8-0.6c0.5-0.6,1.5-1.1,2.6-1.3C56,46.4,57,46.6,57.7,47.1 M58.7,45c0.9,0.7,1.6,1.6,1.8,2.4
		c-0.8,0.2-1.8-0.2-2.7-0.8c-1-0.7-1.6-1.6-1.8-2.4C56.7,44.1,57.7,44.4,58.7,45 M60.8,48C60.8,48,60.8,48,60.8,48
		c0.4,0.2,0.7,0.3,1,0.5c0,0,0.4-0.2,1-0.5c0.7-0.2,1.5-0.4,2.4-0.1c1.1,0.2,2,0.8,2.4,1.6c-0.7,0.4-1.7,0.5-2.8,0.2
		c-1-0.2-1.9-0.8-2.4-1.5c-0.1,0.1-0.2,0.2-0.4,0.4c1.1,0.7,2.1,1.6,3.1,2.8c-0.4,0.5-0.5,0.8-0.9,1.5c-0.7-1.6-1.5-2.9-2.4-4
		c-1,1.1-1.9,2.4-2.6,4c-0.4-0.5-0.5-0.8-0.9-1.4c0.9-1.2,2-2.2,3.2-2.9c-0.1-0.1-0.2-0.2-0.4-0.4c-0.5,0.7-1.3,1.3-2.4,1.5
		C57.7,50,56.6,50,56,49.6c0.4-0.7,1.3-1.3,2.4-1.6C59.3,47.7,60.1,47.7,60.8,48L60.8,48 M64.8,45c1-0.7,1.9-1,2.7-0.8
		c-0.2,0.8-0.8,1.8-1.8,2.4c-1,0.7-2,1-2.7,0.8C63.2,46.7,63.9,45.7,64.8,45 M68.5,46.5c1.1,0.2,2.1,0.7,2.6,1.3
		c-0.7,0.5-1.6,0.8-2.8,0.6c-1.1-0.2-2.1-0.7-2.5-1.3C66.4,46.6,67.4,46.4,68.5,46.5 M68.7,42.1c0.5-1.1,1.3-1.9,2-2.2
		c0.2,0.8,0.1,2-0.5,3.1c-0.5,1.1-1.3,1.9-2,2.2C68,44.4,68.1,43.2,68.7,42.1 M68.2,21.8c0.8,0.2,1.6,0.9,2.2,1.9
		c0.6,1,0.9,2.2,0.8,3c-0.7-0.2-1.6-0.8-2.2-1.9C68.4,23.8,68.1,22.7,68.2,21.8 M72.8,30.1c-0.7,0.1-1.6-0.4-2.4-1
		c-0.8-0.7-1.3-1.6-1.4-2.4c0.7-0.1,1.6,0.4,2.4,1C72.2,28.4,72.7,29.3,72.8,30.1 M72.4,22c0.5,0.6,1,1.7,1,3c0.1,1.2-0.2,2.4-0.7,3
		c-0.5-0.6-1-1.7-1-2.9C71.7,23.8,71.9,22.7,72.4,22 M74.6,25.7c0.4,0.7,0.5,1.9,0.4,3.1c-0.2,1.2-0.7,2.2-1.3,2.8
		c-0.4-0.7-0.5-1.9-0.4-3.1C73.4,27.2,74,26.2,74.6,25.7 M76.7,28.6c0.2,0.8,0.1,2-0.5,3.1c-0.5,1.1-1.3,1.9-2,2.2
		c-0.2-0.8-0.1-2,0.5-3.1C75.2,29.7,76,28.9,76.7,28.6 M72.5,40.1c0.2-0.8,0.9-1.7,1.9-2.3c1-0.6,2-0.8,2.7-0.7
		c-0.2,0.8-0.9,1.7-1.9,2.3C74.3,40,73.3,40.2,72.5,40.1 M72.2,34.9c0.4,0.7,0.5,1.9,0.4,3.1c-0.2,1.3-0.7,2.3-1.3,2.8
		c-0.4-0.7-0.5-1.9-0.4-3.1C71.1,36.4,71.6,35.4,72.2,34.9 M74.3,34.9c0.7-1,1.6-1.6,2.4-1.7c0.1,0.8-0.4,1.9-1.1,2.9
		c-0.7,1-1.6,1.6-2.4,1.7C73.3,36.9,73.7,35.9,74.3,34.9 M73.8,34.9c-0.7-0.2-1.4-0.8-1.9-1.8c-0.5-1-0.7-2-0.6-2.7
		c0.7,0.2,1.4,0.9,1.9,1.9C73.7,33.2,73.9,34.1,73.8,34.9 M73.9,44.7c-0.5,0.7-1.4,1.2-2.5,1.5c-1.1,0.2-2.1,0.1-2.8-0.4
		c0.5-0.7,1.4-1.2,2.5-1.5C72.2,44,73.3,44.2,73.9,44.7 M73.3,43c-1,0.7-2,0.8-2.7,0.7c0.2-0.8,0.9-1.7,1.9-2.3c1-0.7,2-0.8,2.7-0.7
		C74.9,41.5,74.3,42.4,73.3,43 M82.8,51.7l15.5-33c-0.5-1.3,0.4-2.8,1.6-2.8c1.2,0,2.4,1.6,1.8,2.8l15.6,32.7c2.7,1.3,3.8,2.9,3.7,4
		c-0.1,1.1-1,1.9-1.9,2.3c0.1,5.9-0.2,27-0.1,39c1.3,0.3,1.3,1.7,1.2,6.2c-0.1,4.4,0.3,5.8-2.6,5.8c-0.4,0-1.1-0.1-1.1-0.1v-1.5
		c-0.1-0.8-0.1-1-0.5-1.1c-1.2-0.5-2.5-0.9-3.9-1.5c-1-0.4-30.6-11-30.6-11S80,93.4,80,92.1c0-0.1-0.1-1.3-0.1-1.6v-4.2
		c0-1.1,0.7-1.5,1.4-1.4c0.1,0,0.1-0.1,0.1-0.2c-0.1-3.9-0.1-24.3-0.1-26.4c-1.4-0.4-1.8-1.4-1.8-1.4C79,55.5,79.7,53.4,82.8,51.7
		 M125.7,37.8c1,0.7,1.7,1.5,1.9,2.3c-0.8,0.2-1.8-0.1-2.7-0.7c-1-0.6-1.7-1.5-1.9-2.3C123.7,36.9,124.7,37.2,125.7,37.8
		 M123.4,28.6c0.7,0.3,1.5,1.1,2,2.2c0.5,1.1,0.7,2.2,0.5,3.1c-0.7-0.3-1.5-1.1-2-2.2S123.2,29.4,123.4,28.6 M125.5,25.7
		c0.6,0.5,1.1,1.6,1.3,2.8c0.2,1.3,0.1,2.4-0.4,3.1c-0.6-0.5-1.1-1.6-1.3-2.8C124.9,27.5,125.1,26.4,125.5,25.7 M126.6,25
		c0.1-1.3,0.5-2.4,1-3c0.5,0.7,0.7,1.8,0.7,3.1c-0.1,1.2-0.5,2.3-1,2.9C126.8,27.4,126.6,26.2,126.6,25 M128.6,27.7
		c0.8-0.7,1.7-1.1,2.4-1c-0.2,0.8-0.7,1.6-1.4,2.4c-0.8,0.7-1.7,1.1-2.4,1C127.3,29.3,127.8,28.4,128.6,27.7 M129.7,23.7
		c0.7-1,1.5-1.7,2.2-1.9c0.1,0.8-0.2,2-0.8,3c-0.7,1.1-1.5,1.8-2.2,1.9C128.7,25.9,129,24.8,129.7,23.7 M131.8,45.1
		c-0.7-0.3-1.5-1.1-2-2.2c-0.5-1.1-0.7-2.3-0.5-3.1c0.7,0.3,1.5,1.1,2,2.2C131.9,43.2,132.1,44.4,131.8,45.1 M128.9,44.2
		c1.1,0.2,2,0.8,2.5,1.5c-0.7,0.5-1.7,0.7-2.8,0.4c-1.1-0.2-2-0.8-2.5-1.5C126.8,44.2,127.8,44,128.9,44.2 M129.5,43.6
		c-0.8,0.2-1.8-0.1-2.8-0.7c-1-0.6-1.7-1.5-1.9-2.3c0.7-0.2,1.8,0.1,2.7,0.7C128.5,41.9,129.2,42.8,129.5,43.6 M127.9,34.9
		c0.6,0.5,1.1,1.6,1.3,2.8c0.2,1.3,0.1,2.4-0.4,3.1c-0.6-0.5-1.1-1.6-1.3-2.8C127.3,36.7,127.5,35.6,127.9,34.9 M126.7,37.8
		c-0.7-0.2-1.6-0.8-2.4-1.7c-0.7-1-1.1-2.1-1.1-2.9c0.8,0.1,1.6,0.7,2.4,1.7C126.4,35.9,126.7,36.9,126.7,37.8 M126.3,34.9
		c-0.1-0.8,0.1-1.8,0.6-2.7c0.5-0.9,1.3-1.6,1.9-1.9c0.1,0.8-0.1,1.8-0.7,2.7C127.6,34.1,126.9,34.7,126.3,34.9 M134.3,47.1
		c-0.5,0.7-1.5,1.1-2.5,1.3c-1.1,0.2-2.1-0.1-2.8-0.6c0.5-0.6,1.5-1.1,2.6-1.3C132.6,46.4,133.6,46.6,134.3,47.1 M135.3,45
		c0.9,0.7,1.6,1.6,1.8,2.4c-0.8,0.2-1.8-0.2-2.7-0.8c-1-0.7-1.6-1.6-1.8-2.4C133.3,44.1,134.3,44.4,135.3,45 M138.3,48.5
		c0.2-0.2,0.5-0.2,0.8-0.4c0.1,0,0.1-0.1,0.1-0.1l0,0c0.7-0.2,1.6-0.4,2.5-0.1c1.1,0.2,2,0.8,2.5,1.6c-0.7,0.4-1.8,0.5-2.8,0.2
		c-1-0.3-1.9-0.8-2.4-1.5c-0.2,0.2-0.2,0.2-0.4,0.4c1.3,0.7,2.3,1.7,3.2,2.9c-0.4,0.5-0.5,0.8-0.9,1.4c-0.7-1.6-1.6-2.9-2.6-4
		c-1,1.1-1.8,2.4-2.5,4c-0.4-0.5-0.5-0.8-0.8-1.5c0.9-1.2,1.9-2.1,3-2.8c-0.1-0.1-0.2-0.2-0.4-0.4c-0.5,0.7-1.3,1.2-2.4,1.5
		c-1.1,0.2-2.1,0.2-2.8-0.2c0.5-0.7,1.3-1.3,2.4-1.6c0.9-0.2,1.8-0.2,2.5,0.1C137.9,48.2,138.3,48.5,138.3,48.5 M141.4,45
		c1-0.7,1.9-1,2.7-0.8c-0.2,0.8-0.8,1.8-1.8,2.4c-1,0.7-2,1-2.7,0.8C139.8,46.7,140.4,45.7,141.4,45 M145.1,46.5
		c1.1,0.2,2.1,0.7,2.5,1.3c-0.6,0.5-1.6,0.8-2.7,0.6c-1.1-0.2-2.1-0.7-2.6-1.3C143,46.6,144,46.4,145.1,46.5 M145.3,42.1
		c0.5-1.1,1.3-1.9,2-2.2c0.2,0.8,0.1,2-0.5,3.1c-0.5,1.1-1.3,1.9-2,2.2C144.5,44.4,144.7,43.2,145.3,42.1 M144.8,21.8
		c0.8,0.2,1.6,0.9,2.2,1.9c0.7,1,0.9,2.2,0.8,3c-0.8-0.2-1.6-0.8-2.2-1.9C145,23.8,144.7,22.7,144.8,21.8 M149.4,30.1
		c-0.7,0.1-1.6-0.4-2.4-1c-0.8-0.7-1.3-1.6-1.4-2.4c0.7-0.1,1.6,0.4,2.4,1C148.8,28.4,149.3,29.3,149.4,30.1 M149,22
		c0.5,0.6,0.9,1.7,1,3c0.1,1.2-0.2,2.4-0.7,3c-0.5-0.6-1-1.7-1-2.9C148.3,23.8,148.5,22.7,149,22 M151.1,25.7
		c0.4,0.7,0.5,1.9,0.4,3.1c-0.2,1.2-0.7,2.2-1.3,2.8c-0.4-0.7-0.5-1.9-0.4-3.1C150,27.2,150.5,26.2,151.1,25.7 M151,34.9
		c0.7-1,1.6-1.6,2.4-1.7c0.1,0.8-0.4,1.9-1.1,2.9c-0.7,1-1.6,1.6-2.4,1.7C149.9,36.9,150.2,35.9,151,34.9 M149.1,37.9
		c-0.2,1.3-0.7,2.3-1.3,2.8c-0.4-0.7-0.5-1.9-0.4-3.1c0.2-1.2,0.7-2.2,1.3-2.8C149.1,35.6,149.3,36.7,149.1,37.9 M148.5,33.1
		c-0.5-1-0.7-2-0.6-2.7c0.7,0.2,1.4,0.9,1.9,1.9c0.5,1,0.8,1.9,0.6,2.7C149.7,34.7,149,34,148.5,33.1 M153.3,28.6
		c0.2,0.8,0.1,2-0.5,3.1c-0.5,1.1-1.3,1.9-2,2.2c-0.2-0.8-0.1-2,0.5-3.1S152.5,28.9,153.3,28.6 M172.2,28.7L146.4,5.1
		c-6.1,4-14,6.4-22.8,6.4c-9.1,0-17.4-2.7-23.5-7c-6.2,4.3-14.5,7-23.5,7c-8.7,0-16.7-2.4-22.8-6.4L27.9,28.7
		c0,0,12.5,11.9,12.6,21.4c0.1,9.6-2.8,17.4-6.3,27.2c-1.3,3.7-2.8,9.4-3.5,16.2c-0.2,1.3-0.3,2.7-0.4,4.1c-0.1,1.3-0.1,2.5-0.1,3.8
		c-0.1,7.9,1.3,16.4,5.3,23.8c0.6,1.1,1.3,2.2,2,3.2c2.1,3,19,31,54.9,34.7l0.1,0.1l7.6,7.6l7.6-7.6l0.1-0.1
		c35.9-3.7,52.8-31.6,54.9-34.7c0.7-1,1.4-2.1,2-3.2c4-7.3,5.4-15.8,5.3-23.8c0-1.3-0.1-2.6-0.1-3.8c-0.1-1.4-0.2-2.8-0.4-4.1
		c-0.8-6.7-2.2-12.5-3.6-16.2c-3.5-9.8-6.4-17.5-6.3-27.2C159.7,40.5,172.2,28.7,172.2,28.7"/>
	<path id="path5897" inkscape:connector-curvature="0" class="st1" d="M110.9,145.9c0.8-0.5,1.7-1.1,1.7-2.3c0-1-0.8-1.8-1.8-1.8
		c-1,0-1.8,0.8-1.8,1.8C109,144.7,109.8,145.3,110.9,145.9"/>
	<path id="path5901" inkscape:connector-curvature="0" class="st1" d="M110.3,147.4c-1.4,0.7-2.1,1.6-2.1,2.7c0,1.2,0.9,2.1,2.2,2.1
		s2.3-0.9,2.3-2.1C112.8,148.9,112,148.3,110.3,147.4"/>
	<path id="path5905" inkscape:connector-curvature="0" class="st1" d="M94.3,147.1c-1.4,0.7-2.1,1.6-2.1,2.7c0,1.2,0.9,2.1,2.2,2.1
		s2.3-1,2.3-2.1C96.7,148.6,95.9,148,94.3,147.1"/>
</g>
</svg>
