<?xml version="1.0" encoding="utf-8"?>
<!-- Generator: Adobe Illustrator 21.1.0, SVG Export Plug-In . SVG Version: 6.00 Build 0)  -->
<svg version="1.1" id="Layer_1" xmlns="http://www.w3.org/2000/svg" xmlns:xlink="http://www.w3.org/1999/xlink" x="0px" y="0px"
	 viewBox="0 0 200 200" style="enable-background:new 0 0 200 200;" xml:space="preserve">
<style type="text/css">
	.st0{fill-rule:evenodd;clip-rule:evenodd;fill:#FFFFFF;}
	.st1{fill:#FFFFFF;}
	.st2{fill:#1FB1D2;}
	.st3{fill:none;stroke:#231F20;stroke-width:0.7323;stroke-miterlimit:2.6131;}
	.st4{fill:#FFFFFF;stroke:#231F20;stroke-width:0.7323;stroke-miterlimit:2.6131;}
	.st5{fill:#E75E56;}
	.st6{fill:#231F20;}
	.st7{fill:#F8D037;stroke:#231F20;stroke-width:1.4645;stroke-miterlimit:2.6131;}
	.st8{fill:#231F20;stroke:#FFFFFF;stroke-width:0.1466;stroke-miterlimit:2.6131;}
</style>
<g>
	<polygon class="st0" points="0,0 200,0 200,200 0,200 0,0 	"/>
	<polygon class="st1" points="52.3,63.7 40.6,71.2 40.7,118.3 52.2,111.2 52.3,63.7 	"/>
	<polygon class="st1" points="80.9,45.5 62.5,57.5 86.9,57.5 86.9,45.5 80.9,45.5 	"/>
	<polygon class="st1" points="114.7,24.2 93.9,37.5 94,57.5 121.4,57.5 121.5,66.8 133.4,59.7 133.3,24.3 114.7,24.2 	"/>
	<polygon class="st1" points="120.3,20.9 138.7,8.8 159.2,8.8 159.2,20.7 120.3,20.9 	"/>
	<polygon class="st1" points="147.8,49.8 159.4,42.6 159.2,24.3 139.2,24.3 139.3,36 147.8,36 147.8,49.8 	"/>
	<polygon class="st2" points="158.9,42.5 148,49.5 147.9,129.2 159.1,129.2 158.9,42.5 	"/>
	<polygon class="st3" points="159.3,129.3 147.8,129.3 147.8,36 139.3,36 139.2,24.3 159.2,24.3 159.3,129.3 	"/>
	<polygon class="st4" points="121.5,46 106.4,45.9 106.4,35.9 121.6,36 121.5,46 	"/>
	<polygon class="st2" points="133,59 121.6,66.3 121.5,129.2 133.2,129.1 133,59 	"/>
	<polygon class="st2" points="52.3,110.3 40.8,117.6 40.8,129.3 52.3,129.3 52.3,110.3 	"/>
	<polygon class="st5" points="140,8.9 121.5,20.6 52.5,20.7 52.4,45.6 82.3,45.5 63.2,57.5 52.4,57.5 52.3,64.4 40.7,71.8 40.7,8.8 
		140,8.9 	"/>
	<polygon class="st5" points="115.6,24.3 94.1,38 94.1,24.2 115.6,24.3 	"/>
	<path class="st3" d="M133.3,129.3l-11.9,0l0-71.9l-27.4,0V24.3l39.3,0.1V129.3L133.3,129.3z M52.4,57.5h34.5V45.5H52.5l-0.1-24.8
		l106.9,0V8.8H40.7l0,120.6l11.7,0L52.4,57.5L52.4,57.5z"/>
	<path class="st6" d="M52,147.8c-1.6,0.5-3.2,0.8-4.6,0.6c-1.5-0.2-2.7-0.6-3.6-1.4c-0.7-0.6-1.2-1.3-1.6-2.2
		c-0.4-0.9-0.7-1.9-0.9-3.2c-0.3-1.9-0.5-3.8-0.6-5.8c6.1-0.4,12.2-0.8,18.3-1.1c0.1,1.4,0.2,2.8,0.4,4.1c0.1,0.9,0.1,1.7,0,2.4
		c-0.1,0.7-0.3,1.3-0.7,1.9c-0.6,0.9-1.4,1.8-2.5,2.7C55.1,146.5,53.7,147.2,52,147.8L52,147.8z M51.2,144.4
		c1.2-0.3,2.1-0.7,2.9-1.2c0.8-0.5,1.3-1.1,1.7-1.8c0.2-0.4,0.3-0.7,0.3-1c0-0.3,0-0.8-0.1-1.5c0-0.3-0.1-0.5-0.1-0.8
		c-3.8,0.5-7.5,1-11.3,1.5c0,0.3,0.1,0.7,0.1,1c0.1,0.9,0.3,1.6,0.5,2c0.2,0.4,0.4,0.8,0.8,1.1c0.6,0.6,1.3,0.9,2.2,1
		C49,144.8,50,144.7,51.2,144.4L51.2,144.4z"/>
	<path class="st6" d="M58.5,165.7c-1.8,1.4-3.4,2.2-5,2.2c-1.6,0-3-0.9-4-2.6c-1.1-1.7-1.3-3.4-0.7-4.9c0.6-1.5,1.9-2.7,4-3.8
		c3.5-1.8,7-3.6,10.5-5.4c0.4,0.8,0.8,1.5,1.2,2.3c-3.3,2-6.6,4-9.9,5.9c-1.1,0.7-1.8,1.3-2.2,2c-0.4,0.6-0.3,1.3,0.1,2
		c0.4,0.7,1,1,1.7,1c0.7,0,1.6-0.5,2.7-1.2c3.1-2.3,6.3-4.5,9.4-6.8c0.5,0.7,1,1.3,1.5,2C64.6,160.7,61.5,163.2,58.5,165.7
		L58.5,165.7z"/>
	<path class="st6" d="M74.7,175.8c-0.9,1.5-1.8,2.7-3,3.6c-1.1,0.9-2.3,1.5-3.4,1.7c-0.8,0.1-1.6,0.1-2.4-0.2
		c-0.8-0.2-1.6-0.7-2.4-1.3c-1.2-0.9-2.4-1.9-3.6-2.9c4.1-4.6,8.2-9.2,12.4-13.8c0.8,0.7,1.7,1.4,2.6,2c0.6,0.4,1,0.9,1.4,1.4
		c0.3,0.5,0.5,1,0.6,1.6c0.1,1,0,2.1-0.3,3.5C76.1,172.8,75.5,174.3,74.7,175.8L74.7,175.8z M72.1,174.3c0.7-1,1.1-1.9,1.4-2.8
		c0.3-0.8,0.3-1.6,0.2-2.3c-0.1-0.3-0.2-0.6-0.4-0.8c-0.2-0.2-0.5-0.5-0.9-0.8c-0.2-0.1-0.3-0.3-0.5-0.4c-2.4,3-4.8,6-7.2,9
		c0.2,0.2,0.4,0.3,0.6,0.5c0.6,0.4,1.1,0.7,1.4,0.8c0.3,0.1,0.7,0.2,1.2,0.1c0.8-0.1,1.5-0.4,2.1-1
		C70.8,176.1,71.4,175.3,72.1,174.3L72.1,174.3z"/>
	<path class="st6" d="M86.9,189.9c-3-0.6-6-1.5-8.9-2.5c2.3-5.7,4.5-11.4,6.8-17.1c2,0.7,4.1,1.3,6.2,1.7c-0.3,1.2-0.5,2.3-0.8,3.5
		c-1.4-0.3-2.9-0.7-4.3-1.1c-0.3,1-0.7,2-1,3c1.4,0.4,2.8,0.8,4.3,1.1c-0.3,1.2-0.5,2.3-0.8,3.5c-1.6-0.3-3.1-0.7-4.6-1.2
		c-0.5,1.4-0.9,2.8-1.4,4.3c1.8,0.5,3.6,1,5.4,1.4C87.5,187.6,87.2,188.7,86.9,189.9L86.9,189.9z"/>
	<path class="st6" d="M105.3,191c-3.1,0.3-6.2,0.3-9.3,0.1c0.4-6.1,0.8-12.2,1.2-18.2c0.8,0,1.6,0.1,2.4,0.1c0,4.9-0.1,9.8-0.1,14.7
		c1.9,0,3.7-0.1,5.6-0.2C105,188.6,105.2,189.8,105.3,191L105.3,191z"/>
	<path class="st6" d="M124.9,186.1c-1.1,0.5-2.2,0.9-3.3,1.3c-0.7-1.1-1.5-2.1-2.2-3.2c-1.4,0.5-2.8,0.9-4.3,1.3
		c0.1,1.3,0.1,2.5,0.1,3.8c-1.1,0.3-2.2,0.5-3.4,0.7c0.3-6.3,0.2-12.5-0.5-18.7c0.9-0.2,1.7-0.5,2.6-0.8
		C117.2,176,120.8,181.2,124.9,186.1L124.9,186.1z M117.6,181.3c-1.2-1.9-2.3-3.8-3.3-5.7c0.3,2.2,0.5,4.3,0.7,6.5
		C115.8,181.9,116.7,181.6,117.6,181.3L117.6,181.3z"/>
	<path class="st6" d="M141.5,175.3c-0.8,0.7-1.6,1.4-2.4,2.1c-4.2-2-8.2-4.3-11.9-6.9c2.5,3.5,4.9,6.9,7.4,10.4
		c-0.8,0.6-1.7,1.1-2.5,1.6c-3.3-5.2-6.6-10.4-9.9-15.6c0.8-0.5,1.5-1,2.3-1.5c3,2.2,6.2,4.2,9.6,6c-2.3-2.7-4.6-5.3-7-8
		c0.5-0.5,1.1-0.9,1.6-1.4C132.9,166.4,137.2,170.8,141.5,175.3L141.5,175.3z"/>
	<path class="st6" d="M153.1,156.8c0,0.7,0,1.6-0.2,2.7c-0.2,1.1-0.5,2.1-1,3c-1.2,2.1-2.9,3.2-5,3.2c-2.1,0-4.4-1-6.8-2.8
		c-2.3-1.8-3.8-3.6-4.7-5.4c-0.9-1.8-0.9-3.4-0.1-4.8c0.3-0.6,0.7-1,1.1-1.5c0.5-0.4,1.1-0.8,2-1.2c1.3,0.6,2.6,1.2,3.9,1.8
		c0,0.1-0.1,0.2-0.1,0.3c-0.2,0.1-0.5,0.1-0.9,0.2c-0.4,0.1-0.7,0.2-1,0.3c-0.4,0.1-0.7,0.3-1,0.6c-0.3,0.2-0.6,0.5-0.8,0.9
		c-0.2,0.4-0.3,0.9-0.3,1.3c0,0.5,0.2,1,0.4,1.5c0.3,0.5,0.7,1.1,1.2,1.7c0.5,0.6,1.2,1.2,2.1,1.7c1.7,1.2,3.2,1.7,4.5,1.7
		c1.3,0,2.4-0.8,3.1-2.1c0.1-0.1,0.1-0.2,0.2-0.4c0.1-0.1,0.1-0.3,0.2-0.4c-1.1-0.6-2.1-1.2-3.2-1.7c-0.4,0.7-0.8,1.5-1.2,2.2
		c-1-0.6-2-1.2-3-1.8c0.9-1.5,1.7-3.2,2.4-4.8C147.6,154.2,150.3,155.5,153.1,156.8L153.1,156.8z"/>
	<path class="st6" d="M159,135.8c-0.3,4-0.8,7.9-1.7,11.5c-5.9-1.6-11.9-3.1-17.8-4.7c0.6-2.5,1-5.1,1.2-7.9
		c1.2,0.1,2.4,0.1,3.6,0.2c-0.1,1.9-0.3,3.8-0.6,5.6c1,0.2,2.1,0.4,3.1,0.6c0.3-1.8,0.5-3.6,0.7-5.6c1.2,0.1,2.4,0.2,3.6,0.3
		c-0.1,2.1-0.4,4-0.7,6c1.5,0.3,2.9,0.6,4.4,0.8c0.4-2.2,0.6-4.6,0.8-7C156.6,135.6,157.8,135.7,159,135.8L159,135.8z"/>
	<path class="st7" d="M87.4,66.3c-21.9-0.3-26,2.4-26,2.4s1.4,10.4,1.3,17.5c-0.2,9-3,18.3-0.5,25.5c2.4,7.1,9.9,17.5,24.7,17.5
		l0.5,0c14.8,0,22.3-10.4,24.7-17.5c2.5-7.2-0.4-16.5-0.5-25.5c-0.1-7.1,1.3-17.5,1.3-17.5s-4.1-2.7-26-2.4L87.4,66.3L87.4,66.3z"/>
	<path class="st8" d="M89,103c-0.7,0.2-1.9,0.9-2.6,1.1c-0.7,0.3-2,0.2-3.2-0.4c-1.2-0.6-3.9,1.4-5,2.7c-1.2,1.5-2,3.7,0.8,5.6
		c2.1,1.5,2.1,2.4,1.6,3.2c-0.5,0.9-1.3,2.5-2.9,2.5c-1,0-1.4-1.1-2.3-1.1c-1.6-0.1-1.9,1.3-1.9,1.3s1-0.2,1.3-0.1
		c0.7,0.3,0.7,0.5,1,0.9c0.3,0.4,0.3,0.7-0.6,0.5c-0.6-0.1-0.9-0.1-1.9,0.2c-1.4,0.4-1.5,1.6-1.5,1.6s0.5-0.3,1.2-0.4
		c0.5-0.1,0.7,0.2,1.7,0.4c0.8,0.2,0.8,0.1,0.9,0.9c0.1,1.2-0.2,2.1-0.2,2.1s1.2-0.5,1.4-1.1c0.5-1.3,0.6-2.3,0.9-2.4
		c0.3-0.1,0.5,0.2,1.1,0.7c1,0.9,1.5,2.2,1.5,2.2s0.9-1.5,0.2-2.5c-0.5-0.7-1-1.2-0.3-1.4c0.7-0.2,3.1-1.4,4.1-2.1
		c1-0.7,2.5-3,1.5-3.7c-1.5-1-3-1.1-1.6-2.5c0.4-0.4,2.2-1.3,3.5-2.2c1.3-0.9,1.3-1.8,2.2-1.8c0.9,0,1.9-1.8,1.1-3.3
		C90.3,102.3,89.4,102.8,89,103L89,103z"/>
	<path class="st8" d="M102.1,97.5c0,0-1-1.2-1.7-2.1c-0.6-0.8-1.2-1.9-0.4-3.5c0.7-1.4,1-1.6,1-1.6s-0.3-0.2-1-1.1
		c-0.8-1.3-1.2-2.1-1.1-3.2c0.2-1.1,0.5-1.2,1.1-2.2c0.6-0.9,1.3-1.1,0.3-1.7c-1-0.6-1.8-0.9-1.8-1.8c0-0.8,0.1-0.8,0.1-0.8
		s0.3,0.9,0.8,0.8c0.3-0.1,0.4-0.8,0.1-1.3c-0.5-0.9-1-1.4-1-1.4c0.9,0.3,1.6,0.2,1.7,1.3c0.2,1.1,0,2,0.4,2.3
		c0.4,0.4,0.8,1.3,0.8-0.1s-0.5-1.5-0.6-2.3c-0.2-1.5,0.3-1.7-0.1-2.7c-0.3-0.6-0.6-1.1-0.6-1.1s1.3,0,1.7,1.1
		c0.4,1.1-0.3,1.4,0.7,1.4c0.5,0,0.9,0.1,1.1,0.6c0,0-0.5-0.1-0.9,0c-0.7,0.1-1,0.3-0.8,1.2c0.1,0.4,0,1.2,0.6,0.9
		c0.8-0.4,1.3-0.9,1.3-0.9c0.1,0.4-0.1,0.9-0.6,1.5c-0.4,0.4-0.3,0.5,0.6,0.5c0.5,0,1.1,0.3,1.2,0.6c0,0-1.2-0.4-2.4,0.6
		c-0.4,0.4-0.9,0.1-1.7,1.5c-0.5,0.8-1.5,1.8-1,3.1c0.6,1.3,1.7,2.4,1.7,2.4s0.6-0.3,1.2-0.5c2.5-0.8,1.8-3.2,1.8-3.2
		c0.8,0.2,1.4,2.1,0.7,2.7c-0.7,0.7-1.4,0.6-1.7,1c-0.3,0.4-0.4,0.7,0.3,0.7c0.8,0,1-0.4,1.7-0.5c1.2-0.2,1.6,0.1,1.6,0.1
		c-0.2,0.3-0.4,0.3-1.5,0.7c-0.9,0.3-1,0.9-0.5,0.9c0.8,0,2-0.4,2.6,0.1c1.1,1,1,0.8-0.3,0.7c-1.3-0.1-2.9-0.3-2.5,0.2
		c0.4,0.4,1,0.6,1,1.5c0,0.8-0.2,1.4-0.6,1.6c0,0,0-1.9-1-2.3c-1.5-0.7-0.5,0.6-0.6,0.6c-0.8-0.1-1.2-0.4-1.6-0.9
		c-0.4-0.4-0.5-0.8-1.2-0.3c-0.7,0.5-0.6,1.3,0.2,2.1c0.8,0.8,1.7,1.5,1.7,1.5s-0.1,0.1-0.4,0.4C102.3,97.1,102.1,97.5,102.1,97.5
		L102.1,97.5z"/>
	<path class="st8" d="M83,95.1c-0.2,0.4-0.4,1.5-0.2,2.5c0.2,1.2-0.7,0.6-0.7,0.6s-0.4,0.9,1.4,1.6c1.8,0.8,3,1.3,4.2,2.3
		c1.2,1,2.1,3.4,2,5.8c-0.1,2.3,1.1,4.7,4.1,4.7c4.1-0.1,3.4-2,4.3-2c0.9,0,0.8,0.3,0.9,1.2c0.1,1,0.6,3.1,0.2,3.8
		c-0.3,0.6-1,1.6-1.7,0.9c-0.7-0.7-1.4-0.4-2.1,0.1c-0.7,0.5-0.8,1.3-0.8,1.3s0.5-0.2,1.5-0.4c0.7-0.1,1-0.2,1.2,0.2
		c0.2,0.4-0.1,0.7-0.8,0.9c-0.8,0.3-0.8,0.7-1.2,1.6c-0.4,1.1-0.2,1.9-0.2,1.9s1.1-0.6,1.5-1.2c0.4-0.6,0.7-1.1,1.1-1.2
		c0.5-0.1,0.8,0.3,0.8,0.8c0,0.7-0.2,0.9-0.2,1.1c0,0,0.9,0.1,1.3-0.8c0.4-0.8,0.5-1.6,0.1-2.2c-0.4-0.5-0.6-1.1,0.1-1
		c0.7,0.1,0.9,0,1.5,0.8c0.4,0.6,0.4,1.2,0.4,1.2s0.6-0.9,0.5-1.7c-0.1-0.9-0.3-1.2-0.8-1.5c-0.5-0.3-0.8-0.9,0-1.6
		c1-0.9,1.7-1.9,1.4-8.2c-0.1-1.1-0.7-0.1-1.1-0.8c-0.4-0.7-0.1-1.2-0.9-1.2c-0.8,0-1.5,2.1-3.4,2.1c-1.2,0-0.3-1.2-1.9-3.5
		c-1.1-1.6-2-1.4-1.8-2c0.1-0.6,0.4-0.2,1.4-0.7c0.9-0.5,1.3-1.3,2.3-1.1c1,0.2,1.2,0.9,2.7,1c1.4,0.1,1.5-0.6,2.4-0.6
		c1,0,1.2,0,1.7-0.6c0.5-0.5,0.4-1.4,0.4-1.4s-0.4,0.3-1,0.9c-0.6,0.6-1.3,0.3-1.3,0.3s0.1-0.6,0.5-1.1c0.5-0.8,1.3-1.2,2-1
		c0.6,0.2,0.5,1.3,0.5,2.1c0,0.9-0.4,0.9-0.6,1.5c-0.2,0.9,0.3,1.3,0.3,1.3s0.2-1.1,0.3-0.6c0.2,1.1-0.1,2-0.1,2s1-0.2,1-1.1
		c0-1.4-0.1-1.9,0.3-1.8c0.1,0,0.4,0.2,0.4,0.2c0-0.5-0.1-0.8-0.2-1.6c-0.3-1.6,1-0.7,1-0.7s0-1.7-1.3-0.9c-0.3,0.2-0.2-1.1-1.6-1.1
		c-1.5-0.1-2.2,0.8-2.8,1.8c-0.6,1-0.6,1.6-1.8,1.5c-1.9-0.2-1.8-1.4-3.4-1.1c-1.4,0.3-2.2,1.7-3.1,1.7c-0.7,0-1.8-1.1-2.5-2.2
		c-0.6-1.1-1.5-3.4-1.5-4.9c0-1.5-0.4-2.5-0.4-2.5L83,95.1L83,95.1z"/>
	<path class="st8" d="M80.5,93c-0.9,0.1-3.3,0.4-6.5,1.9c-1.6,0.8-2.8,1.3-3.9,2.1c-0.9,0.6-1.8,0.9-1.8,0.4c0-0.8,0.2-1.5-0.3-2.1
		c-0.3-0.5-1.7-0.6-2.2-0.2c-0.4,0.4-0.2,0.7-0.2,0.7s0.3-0.3,0.6-0.1c0.3,0.1-0.1,0.4,0.2,0.8c0.3,0.4,0.6,0.4,0.7,0.8
		c0.1,0.4,0.4,1-0.2,0.8c-0.6-0.3-0.8-0.8-1.5-0.9c-0.5-0.1-1,0-1.5,0.7c-0.5,0.6-0.3,1.4-0.3,1.4s0.3-0.3,0.5-0.5
		c0.3-0.2,0.6-0.1,0.8,0.3c0.1,0.2,0.1,0.4,0.5,0.5c0.4,0.1,1-0.2,1.2,0.1c0.3,0.3,0.2,0.4-0.2,0.9c-0.3,0.4-0.5,0.7-0.4,1.4
		s0.9,1.3,0.9,1.3s-0.3-0.5,0-0.8c0.3-0.3,0.9-0.2,1.1-0.9c0.2-0.7-0.1-1.4,0.3-1.6c0.4-0.2,0.7-0.1,0.8,0.5c0.1,0.6,0.5,0.7,0.9,1
		c0.4,0.3-0.2,0.9-0.2,0.9s1.4,0.2,1.2-1.1c-0.1-0.6-0.4-1-0.6-1.3c-0.4-0.5,0.1-0.4,0.3-0.5c0.5-0.2,0.9-0.3,1.5-0.3
		c1,0.1,1.4,0.1,1.7-0.2c0.6-0.5,0.5-0.9,1.7-0.6C77.6,98.9,79,99,79,99s-0.2-0.4-0.3-0.6c-0.3-0.7,0.4-1.2,0.7-1.3
		c0.9-0.3,4.9-0.8,4.9-1.7C84.2,94.5,84.1,92.4,80.5,93L80.5,93z"/>
	<path class="st8" d="M80.9,88.6c-1-0.5-4.4-2.8-5.6-3.8c-1.2-1-2.2-1.8-2.3-2.7c-0.1-0.6,0.2-0.9,0.5-1.6c0.4-0.7,0.6-1.7-0.2-2.4
		c-0.8-0.8-1.7,0.2-1.7,0.2s1-0.2,1,0.6c0,0.3-0.4,0.1-0.6,0.6c-0.2,0.6,0.4,0.9-0.1,1.3c-0.4,0.3-0.7-0.1-0.9-0.6
		c-0.2-0.6,0-0.9-0.2-1.7c-0.1-0.5-0.5-0.8-1.5-0.6c-1,0.2-1.1,1-1.1,1s0.4-0.4,0.9-0.3c0.5,0.1,0.4,0.8,0.4,1
		c0,0.5,0.6,0.3,0.6,0.8c0,0.3,0.3,0.4-1,0c-0.8-0.3-1-0.1-1.3,0.3c-0.7,0.8-0.4,1.5-0.4,1.5s0.4-0.9,0.9-0.8
		c0.6,0.1,0.3,0.9,1.2,0.9c0.7,0,1.9,0.3,1.4,0.6c-0.6,0.4-0.4,1.1-0.8,1.7c-0.4,0.6-1.1,0.2-1.1,0.2s0.5,0.6,1.2,0.5
		c0.5,0,0.7-0.1,1.1-0.3c0.7-0.3,0.6-1.1,0.8-0.3c0.1,0.9,0.3,0.9,0.9,2.6c0.5,1.5,0.7,1.9,1.6,2.8c1.5,1.6,3.7,2.7,4,1.6
		C79.1,90.5,80.9,88.6,80.9,88.6L80.9,88.6z"/>
	<path class="st8" d="M90.1,77.8c-0.6-0.1-0.8-0.2-2.6-0.1c-1.8,0.1-3,0.1-3.4,0c-0.4-0.1-1-0.5-0.9-1.4c0.1-0.9,0.9-0.7,0.9-0.7
		c0.1-0.4-0.2-1.3-1-1.1c-1.1,0.2-2.2,1.2-1.6,2.2c0.4,0.8,0.5,1,1.4,1.5c0.8,0.4,1.1,0.4,3,0.3c1.7-0.1,1.6-0.3,3.5-0.3
		c1.4,0,2,0,2,0L90.1,77.8L90.1,77.8z"/>
	<path class="st8" d="M91.1,88c0,0,0.3-0.2,0.6,1.5c0.3,1.4,0,1.8,0.1,2.1c0,0,1.1-1.5,0.8-3.2c-0.3-1.9-0.3-2.6,0.3-1
		c0.3,0.9,0.3,2.8,0.3,2.8s0.7-0.6,0.7-2.4c0-1.8-0.4-2.1-0.4-2.1s-0.3-1.3,0.4-0.3c0.7,1,0.7,2.1,0.7,2.1s0.6-0.8,0.5-1.9
		c-0.1-1.1-1-1.5-1-1.5s-0.1-1,0.3-0.6c0.8,0.6,0.8,1.3,0.8,1.3s0.7-1.2,0-2.1c-0.5-0.6-0.6-0.6-0.6-0.6s-0.4-0.8,0.2-0.5
		c0.7,0.4,1,0.9,1,0.9s0.1-1.2-0.4-1.8c-0.5-0.6-0.9-0.6-0.9-0.6s-0.1-0.8,0.5-0.5c0.6,0.3,0.9,1,0.9,1s0.5-1-0.2-2
		c-0.7-0.9-0.8-1-0.8-1s0.3-0.7,0.7-0.2c0.4,0.5,0.5,0.9,0.5,0.9s0.5-0.8,0.3-1.6c-0.2-0.9-0.3-0.8-0.2-1.2c0.2-0.6,0.6,0.2,0.6,0.2
		c0.1-0.3,0.2-0.5,0.1-1c-0.2-1.1-0.4-1.1-0.7-1.6c-0.2-0.3,0.8,0.3,0.8,0.3c-0.1-0.4-0.2-0.5-0.5-1c-0.7-0.9-0.6-1-1.7-1.3
		c-1.4-0.4-0.5-0.9-1-1c-1-0.2-2.5-0.3-3.2,0.3c-0.7,0.6-0.4,0.9-1.8,1c-0.8,0-0.6,0.9-2.3,0.9c-1.6,0-2.2,1.9-1.6,2.6
		c0.3,0.3,0.2,0.7,0.3,1c0.2,0.6,0.5,0.9,0.5,0.9s-0.1-0.9,0.5-1c0.6-0.2,1.1,0.1,1.9,0.1c0.8,0,1.7,0.6,1.5,1.6
		c-0.2,1-0.3,1.3-1,1.8c-0.8,0.5-1,0.6-1.9,0.7c-0.9,0.1-1-0.9-1-0.9s-0.7,0.9-0.6,1.3c0.2,0.7,0.4,1.2,1.6,1.2
		c0.8,0,1.5,0.7,0.9,1.1c-0.6,0.4-0.3,1.3-1.5,0.9c-1-0.3-1.1-0.3-1.7-0.4c-0.6-0.1-0.5,0.9-1.1,0.6c-0.7-0.4-0.9-0.8-1.8-1.1
		c-2.6-0.7-3.7,0.5-3.7,0.5s1.9,0.1,2.7,0.3c0.7,0.2,1.5,1,1.5,1s-0.5-0.1-1.1-0.1c-0.5,0-0.8,0-1.9-0.3c-1.5-0.5-2.2-0.3-2.2-0.3
		s-0.3,0.7,1.2,1.6c0.5,0.3,2.1,0.7,1.7,1c-0.3,0.2-0.7,0.1-1.6-0.2c-1.3-0.3-2-1.5-2-1.5s-0.2,1.1,0.3,2c0.4,0.8,0.9,1,2.1,1.2
		c0.9,0.1,0.9,0.9,0.3,0.9c-0.6,0-1.2-0.1-2.1-0.8c-1-0.7-1.1-1.4-1.1-1.4s-1.4,2.3,2.4,3.3c0.7,0.2,0.2,0.9-0.7,0.7
		c-1.4-0.4-2.5-1.8-2.5-1.8s-0.4,1.5,0.7,2.3c0.8,0.7,1.1,0.7,2.1,0.9c0.6,0.1,0.9,0.5-0.3,0.5c-1.6,0.1-2.1-0.6-2.1-0.6
		s0,1.7,1.2,1.8c2.2,0.3,3.3-0.3,2.7,0.2c-0.8,0.8-2.2,1.1-2.2,1.1s0.6,0.5,1.8,0.2c0.6-0.2,1.8-1.5,1.7-0.9
		c-0.1,0.6-0.4,1.1-1.4,1.9c0,0,1.2,0.3,1.9-0.8c0.9-1.2,1.4-1.8,1.2-0.6c-0.2,1.1-1.1,1.8-1.1,1.8s1.3,0.3,1.9-1.4
		c0.4-1.1,0.8-1.1,0.8-0.3c0,0.9-1,1.8-1,1.8s0.9,0.3,1.6-0.6c0.7-0.9,0.5-2.2,0.7-1.6c0.2,0.6,0.2,1.1,0.2,2.4c0,0,0.7-0.6,0.8-1.7
		c0.1-0.7-0.1-1.4,0.1-1.7c0.1-0.2,0.4,0.3,0.5,0.7c0.4,1.2,0.3,2.2,0.3,2.2s0.5-0.3,0.5-1.8c0-1.4-0.6-2.8,0-2.1
		c0.6,0.8,0.7,1.2,0.8,2.8c0,0,0.4-0.4,0.4-1.6c0-2-0.7-2.4-0.1-2.2c0.5,0.2,0.7,1.5,0.8,2.9c0,0,0.8-1,0.6-2.2
		c-0.2-1.6-0.3-3.2,0.2-1.9s0.5,3,0.5,3s1-1,0.7-3C90.8,89,91.1,88,91.1,88L91.1,88z"/>
	<path class="st1" d="M89,72.9c-0.6,0.3-0.1,1.1,0.7,0.9c0.9-0.1,1.3-0.5,0.9-0.8C89.6,72.6,89.5,72.7,89,72.9L89,72.9z"/>
	<path class="st1" d="M85.9,73.2c-0.1,0.1-0.1,0.6,0.3,0.5c0.4-0.1,0.7-0.1,0.5-0.4C86.7,73.1,86,73.1,85.9,73.2L85.9,73.2z"/>
	<path class="st1" d="M93.2,75.2c-0.1,0.5,0.5,0.9,1.2,0.5c0.5-0.3,1.6-1.2,0.7-1.8c-0.9-0.7-0.3,0.6-0.9,1
		C93.6,75.4,93.3,74.5,93.2,75.2L93.2,75.2z"/>
</g>
</svg>
