<?xml version="1.0" encoding="utf-8"?>
<!-- Generator: Adobe Illustrator 21.1.0, SVG Export Plug-In . SVG Version: 6.00 Build 0)  -->
<svg version="1.1" id="Layer_1" xmlns="http://www.w3.org/2000/svg" xmlns:xlink="http://www.w3.org/1999/xlink" x="0px" y="0px"
	 viewBox="0 0 200 200" style="enable-background:new 0 0 200 200;" xml:space="preserve">
<style type="text/css">
	.st0{fill:#FF0000;}
	.st1{fill:#FFFFFF;}
</style>
<g>
	<path class="st0" d="M160.7,58.4c0-7.5,3.5-15.3,7.1-21.2c1.8-2.9,3.6-5.4,4.9-7.1c0.7-0.9,1.2-1.5,1.6-2c0.2-0.2,0.3-0.4,0.4-0.5
		c0.1-0.1,0.1-0.2,0.1-0.2c0.7-0.8,0.8-2,0.2-3L164,7.9c-0.7-1-2-1.4-3.1-0.8v0c-0.2,0.1-6.9,3.4-17.8,3.4c-6.9,0-12.7-2.4-19.3-5
		C117.2,2.8,109.8,0,100,0c-9.8,0-17.2,2.8-23.8,5.4c-6.6,2.6-12.4,5.1-19.3,5c-5.6,0-10.1-0.9-13.2-1.7c-1.5-0.4-2.7-0.8-3.5-1.2
		c-0.4-0.2-0.7-0.3-0.9-0.4c-0.1,0-0.2-0.1-0.2-0.1c0,0,0,0,0,0l0,0C38,6.5,36.7,6.9,36,7.9L24.9,24.5c-0.6,0.9-0.5,2.1,0.2,3
		c0,0,0,0,0.1,0.2c0.7,0.8,4.3,5,7.7,10.7c3.4,5.7,6.4,13.1,6.4,20.1c0,9.5-3.4,18.2-7,27.8c-3.6,9.6-7.3,20.2-7.3,33.4
		c0,11.7,3.1,21.9,8.1,30.7c7.5,13.2,19.3,23.2,31.4,31.2c12.2,7.9,24.9,13.8,34.3,18.3c0.3,0.2,0.7,0.2,1,0.2c0.4,0,0.7-0.1,1-0.2
		c12.6-6.1,31-14.4,46.2-27c7.6-6.3,14.5-13.7,19.5-22.5c5-8.8,8.1-19,8.1-30.7c0-13.2-3.7-23.8-7.3-33.4
		C164,76.5,160.6,67.9,160.7,58.4z"/>
	<path class="st1" d="M36.4,34.7c-2.5-4.1-5-7.3-6.5-9.1l9-13.4c3,1.1,9.3,3,18,3c8.1,0,14.5-2.8,21.1-5.4c6.6-2.6,13.2-5,22.1-5
		c8.9,0,15.5,2.5,22.1,5c6.5,2.6,13,5.4,21.1,5.4c8.7,0,15-1.9,18-3l9,13.4c-1.4,1.7-3.9,4.9-6.5,9.1c-3.8,6.3-7.7,14.8-7.8,23.7
		c0,0.6,0,1.1,0,1.7H44.1c0-0.6,0-1.1,0-1.7C44.1,49.4,40.2,41,36.4,34.7z"/>
	<path d="M55.8,169.1c-7.3-6-13.8-13-18.4-21.2c-4.6-8.2-7.4-17.4-7.5-28.3c0-12.3,3.4-22.2,7-31.8c2.8-7.6,5.7-14.9,6.8-23h23.7
		v112.7C63.4,174.9,59.5,172.1,55.8,169.1z"/>
	<path class="st1" d="M71.4,180V64.9h57.2V180c-10.1,6.1-20.3,10.9-28.6,14.9C91.8,191,81.5,186.2,71.4,180z"/>
	<path d="M162.7,147.9c-6.9,12.2-18.1,21.8-29.9,29.5c-0.1,0-0.1,0.1-0.2,0.1V64.9h23.7c1.1,8.1,4,15.4,6.8,23
		c3.6,9.6,7,19.5,7,31.8C170.1,130.4,167.3,139.7,162.7,147.9z"/>
	<path d="M57.1,30.6h5.1l6.9,17.6c0.4,0.9,0.7,1.5,1,1.7c0.3,0.2,0.8,0.3,1.6,0.3v3.2H60.9v-3.2l0.7,0c0.6,0,1-0.1,1.3-0.2
		c0.2-0.2,0.4-0.4,0.4-0.6c0-0.2-0.1-0.6-0.3-1.2l-0.7-2.1h-6.9l-0.9,2.3c-0.2,0.5-0.3,0.8-0.3,1c0,0.2,0.1,0.3,0.2,0.5
		c0.1,0.1,0.3,0.2,0.6,0.3c0.2,0,0.7,0.1,1.5,0.1v3.2h-8.8v-3.2c0.6,0,1,0,1.2-0.1c0.3-0.1,0.5-0.2,0.6-0.4c0.2-0.2,0.4-0.6,0.6-1.1
		L57.1,30.6z M56.4,42.9h4.5l-2.2-6.3L56.4,42.9z"/>
	<path d="M86,35.8l1.5,5.9l-2.4,0.7c-0.8-1.4-1.7-2.5-2.7-3.1c-1-0.7-2.1-1-3.2-1c-0.7,0-1.3,0.1-1.7,0.4c-0.4,0.3-0.6,0.6-0.6,1
		c0,0.4,0.2,0.8,0.6,1.2c0.4,0.4,1.1,0.7,2.1,1l3.4,1c1.9,0.5,3.2,1.3,4,2.2c0.8,0.9,1.2,2,1.2,3.2c0,1.5-0.6,2.8-1.8,3.9
		c-1.4,1.2-3.1,1.8-5.1,1.8c-0.9,0-1.8-0.1-2.6-0.4c-0.8-0.2-1.6-0.6-2.5-1.2l-0.6,1.3h-1.9l-1.3-6.9l2.4-0.6
		c0.6,1.4,1.4,2.6,2.6,3.5c1.2,0.9,2.5,1.4,3.9,1.4c0.6,0,1.2-0.1,1.6-0.2c0.4-0.2,0.7-0.4,0.9-0.7c0.2-0.3,0.3-0.6,0.3-0.9
		c0-0.5-0.2-0.9-0.7-1.3c-0.5-0.4-1.4-0.7-2.6-1.1l-3-0.9c-0.4-0.1-1.1-0.4-1.8-0.7c-0.8-0.4-1.4-0.7-1.8-1.1
		c-0.4-0.4-0.7-0.9-1-1.5C73.1,42,73,41.4,73,40.7c0-0.9,0.3-1.8,0.8-2.6c0.5-0.8,1.3-1.4,2.3-1.9c1-0.5,2.2-0.7,3.5-0.7
		c1.5,0,2.9,0.4,4.1,1.2l0.5-0.9H86z"/>
	<path d="M91.1,35.2h1.7l0.2,0.6h10l0.2-0.6h1.7l2.2,6.2l-2.4,0.8c-0.5-1-0.9-1.7-1.1-2c-0.4-0.6-1-1.1-1.5-1.5
		c-0.4-0.3-0.9-0.4-1.3-0.4c-0.2,0-0.3,0-0.4,0.1c-0.1,0.1-0.1,0.3-0.1,0.7v10.2c0,0.6,0,1,0.1,1.1c0,0.2,0.1,0.3,0.2,0.4
		c0.1,0.1,0.2,0.1,0.4,0.2c0.2,0,0.7,0,1.4,0v2.4h-8.6V51h0.5c0.6,0,0.9,0,1.1-0.1c0.2-0.1,0.3-0.2,0.4-0.4c0.1-0.2,0.1-0.6,0.1-1.1
		V39c0-0.3,0-0.5-0.1-0.6c-0.1-0.1-0.2-0.1-0.4-0.1c-0.4,0-0.9,0.2-1.5,0.5c-0.5,0.3-1,0.8-1.4,1.4c-0.2,0.2-0.5,0.9-1.1,2l-2.3-0.8
		L91.1,35.2z"/>
	<path d="M107.9,35.8h10.9c0.7,0,1.5,0.1,2.3,0.2c0.8,0.1,1.6,0.4,2.3,0.8c0.7,0.4,1.2,1,1.6,1.6s0.6,1.4,0.6,2.2
		c0,1.3-0.5,2.4-1.4,3.3c-1,0.8-2.1,1.4-3.4,1.6l3.6,4.2l0.2,0.2c0.2,0.3,0.5,0.5,0.6,0.6c0.2,0.1,0.4,0.2,0.6,0.3
		c0.2,0.1,0.5,0.1,0.8,0.1h0.8v2.4h-5.7l-5.7-7.6h-1.5v3.5c0,0.6,0,1,0.1,1.2c0.1,0.2,0.2,0.3,0.3,0.4c0.1,0.1,0.4,0.1,0.9,0.1h0.8
		v2.4h-8.7V51h0.8c0.4,0,0.7,0,0.9-0.1c0.2-0.1,0.3-0.2,0.4-0.4c0-0.1,0.1-0.4,0.1-1v-10c0-0.4,0-0.7-0.1-0.8
		c-0.1-0.2-0.2-0.3-0.3-0.3c-0.2-0.1-0.4-0.1-0.7-0.1l-0.4,0h-0.7V35.8z M114.5,38.7v4.6h2.6c1,0,1.8-0.1,2.3-0.3
		c0.5-0.2,0.9-0.5,1.2-0.8c0.3-0.4,0.4-0.8,0.4-1.3c0-0.5-0.1-0.9-0.4-1.2c-0.2-0.3-0.6-0.6-1-0.7c-0.4-0.2-1.2-0.2-2.2-0.2H114.5z"
		/>
	<path d="M137.9,30.6h5.1l6.9,17.6c0.4,0.9,0.7,1.5,1,1.7c0.3,0.2,0.8,0.3,1.6,0.3v3.2h-10.8v-3.2l0.7,0c0.6,0,1-0.1,1.3-0.2
		c0.2-0.2,0.4-0.4,0.4-0.6c0-0.2-0.1-0.6-0.3-1.2l-0.7-2.1H136l-0.9,2.3c-0.2,0.5-0.3,0.8-0.3,1c0,0.2,0.1,0.3,0.2,0.5
		c0.1,0.1,0.3,0.2,0.6,0.3c0.2,0,0.7,0.1,1.5,0.1v3.2h-8.8v-3.2c0.6,0,1,0,1.2-0.1c0.3-0.1,0.5-0.2,0.6-0.4c0.2-0.2,0.4-0.6,0.6-1.1
		L137.9,30.6z M137.2,42.9h4.5l-2.2-6.3L137.2,42.9z"/>
	<path d="M68.4,24.8h4.7l0.6,1.8l-0.7,0.3c-0.1-0.3-0.2-0.5-0.3-0.6c-0.1-0.1-0.2-0.2-0.4-0.3c-0.2-0.1-0.3-0.2-0.5-0.2
		c-0.1,0-0.3,0-0.6,0h-0.7v1.5h0.4c0.1,0,0.2,0,0.3-0.1c0.1,0,0.1-0.1,0.2-0.2c0-0.1,0.1-0.2,0.1-0.3v-0.3h0.7V29h-0.7v-0.4
		c0-0.1,0-0.2,0-0.2c0-0.1-0.1-0.1-0.1-0.2c0,0-0.1-0.1-0.1-0.1c-0.1,0-0.2,0-0.3,0h-0.3v1.2c0,0.1,0,0.2,0,0.3
		c0,0.1,0.1,0.1,0.1,0.1c0.1,0,0.2,0,0.3,0h0.2v0.8h-2.8v-0.8h0.2c0.2,0,0.3,0,0.4-0.1c0.1-0.1,0.1-0.2,0.1-0.3v-3.3
		c0-0.2,0-0.2,0-0.3c0,0-0.1-0.1-0.1-0.1c-0.1,0-0.2,0-0.3,0h-0.2V24.8z"/>
	<path d="M77.3,24.7c0.9,0,1.6,0.3,2.2,0.8c0.6,0.6,0.8,1.3,0.8,2.1c0,0.6-0.1,1.1-0.4,1.5c-0.3,0.5-0.6,0.8-1.1,1
		c-0.5,0.2-1,0.4-1.6,0.4c-0.8,0-1.5-0.2-2.1-0.7c-0.7-0.6-1-1.3-1-2.2c0-0.9,0.3-1.6,0.9-2.1C75.7,25,76.4,24.7,77.3,24.7z
		 M77.3,25.6c-0.4,0-0.8,0.2-1,0.5c-0.3,0.4-0.5,0.9-0.5,1.6c0,0.6,0.2,1.2,0.5,1.5c0.3,0.3,0.6,0.5,1,0.5c0.4,0,0.8-0.2,1-0.5
		c0.3-0.4,0.5-0.9,0.5-1.5c0-0.5-0.1-0.8-0.2-1.1c-0.1-0.3-0.3-0.5-0.5-0.7S77.6,25.6,77.3,25.6z"/>
	<path d="M81.5,24.6H82l0.1,0.2h3.2l0.1-0.2h0.5l0.7,2l-0.8,0.3c-0.2-0.3-0.3-0.5-0.4-0.7c-0.1-0.2-0.3-0.4-0.5-0.5
		c-0.1-0.1-0.3-0.1-0.4-0.1c-0.1,0-0.1,0-0.1,0c0,0,0,0.1,0,0.2v3.3c0,0.2,0,0.3,0,0.4c0,0,0,0.1,0.1,0.1c0,0,0.1,0,0.1,0.1
		c0.1,0,0.2,0,0.5,0v0.8h-2.8v-0.8h0.2c0.2,0,0.3,0,0.4,0c0.1,0,0.1-0.1,0.1-0.1c0-0.1,0-0.2,0-0.4v-3.4c0-0.1,0-0.2,0-0.2
		c0,0-0.1,0-0.1,0c-0.1,0-0.3,0.1-0.5,0.2c-0.2,0.1-0.3,0.3-0.5,0.5c-0.1,0.1-0.2,0.3-0.3,0.6l-0.7-0.3L81.5,24.6z"/>
	<path d="M87.1,25.6v-0.8h3.2c0.5,0,0.9,0.1,1.2,0.2c0.3,0.1,0.5,0.3,0.7,0.5c0.2,0.2,0.2,0.5,0.2,0.7c0,0.2,0,0.4-0.1,0.5
		c-0.1,0.2-0.2,0.3-0.3,0.4c-0.2,0.1-0.4,0.2-0.6,0.3c0.3,0.1,0.5,0.1,0.6,0.2c0.2,0.1,0.4,0.3,0.5,0.5c0.1,0.2,0.2,0.4,0.2,0.7
		c0,0.3-0.1,0.6-0.3,0.8c-0.2,0.3-0.4,0.5-0.8,0.6c-0.3,0.1-0.8,0.2-1.5,0.2h-3v-0.8h0.2c0.2,0,0.3,0,0.3,0c0.1,0,0.1-0.1,0.1-0.1
		c0,0,0-0.2,0-0.3v-3.2c0-0.2,0-0.3,0-0.3c0,0-0.1-0.1-0.1-0.1c-0.1,0-0.2,0-0.3,0H87.1z M89.2,27.1h0.6c0.3,0,0.6,0,0.7-0.1
		c0.2-0.1,0.3-0.1,0.4-0.2c0.1-0.1,0.1-0.2,0.1-0.4c0-0.1,0-0.3-0.1-0.4c-0.1-0.1-0.2-0.2-0.3-0.2c-0.1,0-0.4-0.1-0.8-0.1h-0.6V27.1
		z M89.2,28v1.2c0,0.2,0,0.3,0,0.3c0,0,0,0.1,0.1,0.1c0,0,0.1,0,0.3,0h0.4c0.2,0,0.4,0,0.6-0.1c0.2,0,0.3-0.1,0.4-0.3
		c0.1-0.1,0.2-0.3,0.2-0.5c0-0.2,0-0.3-0.1-0.4c-0.1-0.1-0.2-0.2-0.4-0.3C90.5,28,90.2,28,89.9,28H89.2z"/>
	<path d="M95.3,24.8h1.3l1.7,4.4c0.1,0.2,0.2,0.4,0.2,0.4c0.1,0.1,0.2,0.1,0.4,0.1v0.8h-2.7v-0.8l0.2,0c0.2,0,0.3,0,0.3-0.1
		c0.1,0,0.1-0.1,0.1-0.1c0,0,0-0.2-0.1-0.3l-0.2-0.5h-1.7l-0.2,0.6c0,0.1-0.1,0.2-0.1,0.2c0,0,0,0.1,0,0.1c0,0,0.1,0.1,0.2,0.1
		c0,0,0.2,0,0.4,0v0.8h-2.2v-0.8c0.1,0,0.2,0,0.3,0c0.1,0,0.1-0.1,0.2-0.1c0,0,0.1-0.1,0.1-0.3L95.3,24.8z M95.2,27.9h1.1l-0.6-1.6
		L95.2,27.9z"/>
	<path d="M99.4,24.8h2.8v0.8H102c-0.1,0-0.2,0-0.3,0c-0.1,0-0.1,0.1-0.1,0.1c0,0.1,0,0.1,0,0.3v3.3c0,0.1,0,0.2,0,0.2
		c0,0,0,0.1,0.1,0.1c0,0,0.1,0,0.2,0c0.4,0,0.7,0,0.9-0.1c0.2-0.1,0.4-0.2,0.6-0.5c0.2-0.2,0.3-0.5,0.5-0.9l0.8,0.3l-0.8,2.1h-4.4
		v-0.8h0.3c0.1,0,0.2,0,0.3,0c0.1,0,0.1-0.1,0.1-0.1c0-0.1,0-0.1,0-0.3v-3.2c0-0.1,0-0.2,0-0.3c0-0.1-0.1-0.1-0.1-0.1
		c0,0-0.1,0-0.2,0h-0.3V24.8z"/>
	<path d="M112.3,24.8h0.6l0.6,2.1l-0.8,0.2c-0.3-0.5-0.5-0.8-0.7-1c-0.3-0.3-0.6-0.4-1-0.4c-0.3,0-0.5,0.1-0.7,0.2
		c-0.2,0.1-0.4,0.4-0.5,0.7c-0.1,0.3-0.2,0.6-0.2,1c0,0.6,0.2,1.1,0.5,1.5c0.3,0.4,0.7,0.6,1.2,0.6c0.3,0,0.6-0.1,0.9-0.3
		c0.4-0.2,0.7-0.5,1-0.9l0.6,0.5c-0.4,0.6-0.8,1-1.1,1.2c-0.5,0.3-1.1,0.5-1.8,0.5c-0.5,0-1-0.1-1.5-0.4c-0.4-0.3-0.8-0.6-1-1.1
		c-0.3-0.5-0.4-1-0.4-1.5c0-0.5,0.1-1,0.4-1.5c0.3-0.4,0.6-0.8,1-1.1c0.4-0.3,0.9-0.4,1.5-0.4c0.5,0,1,0.1,1.4,0.3L112.3,24.8z"/>
	<path d="M114.3,24.8h2.8v0.8h-0.2c-0.1,0-0.2,0-0.3,0c-0.1,0-0.1,0.1-0.1,0.1c0,0.1,0,0.1,0,0.3v3.3c0,0.1,0,0.2,0,0.2
		c0,0,0,0.1,0.1,0.1c0,0,0.1,0,0.2,0c0.4,0,0.7,0,0.9-0.1c0.2-0.1,0.4-0.2,0.6-0.5c0.2-0.2,0.3-0.5,0.5-0.9l0.8,0.3l-0.8,2.1h-4.4
		v-0.8h0.3c0.1,0,0.2,0,0.3,0c0.1,0,0.1-0.1,0.1-0.1c0-0.1,0-0.1,0-0.3v-3.2c0-0.1,0-0.2,0-0.3c0-0.1-0.1-0.1-0.1-0.1
		c0,0-0.1,0-0.2,0h-0.3V24.8z"/>
	<path d="M119.6,24.8h2.8v0.8h-0.3c-0.1,0-0.2,0-0.3,0c-0.1,0-0.1,0.1-0.1,0.1c0,0.1,0,0.2,0,0.3v2.1c0,0.4,0,0.7,0.1,0.9
		c0.1,0.2,0.2,0.3,0.4,0.4c0.2,0.1,0.3,0.1,0.6,0.1c0.2,0,0.4-0.1,0.6-0.2c0.2-0.1,0.3-0.2,0.4-0.4c0.1-0.2,0.1-0.4,0.1-0.8V26
		c0-0.1,0-0.2,0-0.2c0-0.1-0.1-0.1-0.1-0.1c0,0-0.1,0-0.3,0h-0.2v-0.8h2.4v0.8h-0.2c-0.2,0-0.3,0-0.3,0c-0.1,0-0.1,0.1-0.1,0.1
		c0,0,0,0.2,0,0.3v2.3c0,0.4-0.1,0.8-0.2,1c-0.2,0.4-0.4,0.7-0.8,0.9c-0.4,0.2-0.8,0.3-1.3,0.3c-0.4,0-0.7-0.1-0.9-0.2
		c-0.3-0.1-0.5-0.3-0.7-0.5c-0.2-0.2-0.4-0.4-0.4-0.6c-0.1-0.2-0.1-0.6-0.1-1v-2.2c0-0.2,0-0.3,0-0.4c0-0.1-0.1-0.1-0.1-0.1
		c0,0-0.1,0-0.3,0h-0.3V24.8z"/>
	<path d="M126.1,25.6v-0.8h3.2c0.5,0,0.9,0.1,1.2,0.2c0.3,0.1,0.5,0.3,0.7,0.5c0.2,0.2,0.2,0.5,0.2,0.7c0,0.2,0,0.4-0.1,0.5
		c-0.1,0.2-0.2,0.3-0.3,0.4c-0.2,0.1-0.4,0.2-0.6,0.3c0.3,0.1,0.5,0.1,0.6,0.2c0.2,0.1,0.4,0.3,0.5,0.5c0.1,0.2,0.2,0.4,0.2,0.7
		c0,0.3-0.1,0.6-0.3,0.8c-0.2,0.3-0.4,0.5-0.8,0.6c-0.3,0.1-0.8,0.2-1.5,0.2h-3v-0.8h0.2c0.2,0,0.3,0,0.3,0c0.1,0,0.1-0.1,0.1-0.1
		c0,0,0-0.2,0-0.3v-3.2c0-0.2,0-0.3,0-0.3c0,0-0.1-0.1-0.1-0.1c-0.1,0-0.2,0-0.3,0H126.1z M128.2,27.1h0.6c0.3,0,0.6,0,0.7-0.1
		c0.2-0.1,0.3-0.1,0.4-0.2c0.1-0.1,0.1-0.2,0.1-0.4c0-0.1,0-0.3-0.1-0.4c-0.1-0.1-0.2-0.2-0.3-0.2c-0.1,0-0.4-0.1-0.8-0.1h-0.6V27.1
		z M128.2,28v1.2c0,0.2,0,0.3,0,0.3c0,0,0,0.1,0.1,0.1c0,0,0.1,0,0.3,0h0.4c0.2,0,0.4,0,0.6-0.1c0.2,0,0.3-0.1,0.4-0.3
		c0.1-0.1,0.2-0.3,0.2-0.5c0-0.2,0-0.3-0.1-0.4c-0.1-0.1-0.2-0.2-0.4-0.3c-0.2-0.1-0.4-0.1-0.7-0.1H128.2z"/>
	<polygon points="46.5,27.6 51.7,23.8 45.3,23.8 43.3,17.7 41.3,23.8 34.8,23.8 40,27.6 38,33.8 43.3,30 48.5,33.8 	"/>
	<polygon points="160,27.6 165.2,23.8 158.7,23.8 156.7,17.7 154.7,23.8 148.3,23.8 153.5,27.6 151.5,33.8 156.7,30 162,33.8 	"/>
	<circle cx="100" cy="128" r="27.6"/>
	<path class="st1" d="M73.4,131.3c-0.1-1.1-0.2-2.2-0.2-3.4c0-4.6,1.2-8.9,3.2-12.7c0.6-0.3,1.5-0.6,2.6-0.6h0
		c0.6,0,1.2,0.1,1.9,0.3c0.2,5.2,1.3,8.8,1.6,9.9c-0.7,0.8-2.9,3.9-3.8,8.6c-0.8,0.2-1.6,0.3-2.2,0.3c-0.7,0-1.2-0.1-1.6-0.1
		c-0.2,0-0.3-0.1-0.4-0.1c-0.3-0.4-0.7-1.1-1-1.8C73.5,131.5,73.5,131.4,73.4,131.3z"/>
	<path class="st1" d="M114,134.8c-1.3,1.5-4.3,4.8-7.6,6.8c-3.4-0.6-6-1.5-7.8-2.2c-0.9-0.4-1.6-0.7-2.1-0.9
		c-0.2-0.1-0.4-0.2-0.5-0.3c-0.1-0.4-0.4-1.4-0.8-2.9c-0.5-1.9-1.1-4.6-1.6-7.8c1.4-1.8,3.5-3.7,5.2-5.2c1.4-1.2,2.6-2.2,3.1-2.5
		c2.9,0.4,5.5,1.3,7.4,2c1,0.4,1.8,0.7,2.3,1c0.3,0.1,0.5,0.2,0.7,0.3c0.2,0.4,0.5,1.6,1,3.2c0.5,2,1.1,4.8,1.4,7.8
		C114.4,134.3,114.3,134.5,114,134.8z"/>
	<path class="st1" d="M116.3,118c0.7-1,1.2-1.8,1.5-2.2c1.6,0.2,3,0.8,4,1.4c0.5,0.3,1,0.6,1.2,0.8c0.2,0.1,0.3,0.2,0.4,0.3
		c0.1,0.1,0.2,0.4,0.4,0.7c0.7,1.6,2.2,5.5,2.4,10.3c-0.8,2.3-1.9,4.3-2.8,5.7c-0.5,0.7-0.9,1.3-1.2,1.7c-0.1,0.1-0.2,0.2-0.2,0.3
		c-0.9-0.4-3.1-1.6-6.2-2.9c-0.5-5.6-2-10.1-2.4-11.2C114.2,121.1,115.4,119.4,116.3,118z"/>
	<path class="st1" d="M91.4,107.4c2.7,0,4.9,0.6,6.3,1.3c0.7,0.3,1.3,0.6,1.7,0.9c0.2,0.1,0.3,0.2,0.4,0.3c0.1,0.4,0.2,1.2,0.4,2.5
		c0.3,1.7,0.6,4,0.9,6.8c-1.1,0.8-5.7,4.4-8.3,7.7c-3.8-1.2-8.1-2.1-9.3-2.3c0-0.1-0.1-0.2-0.1-0.4c-0.4-1.4-1.2-4.7-1.4-9.3
		c0.1-0.1,0.3-0.4,0.5-0.8c1.2-1.7,4.1-5.1,8.1-6.6C90.9,107.4,91.2,107.4,91.4,107.4z"/>
	<path class="st1" d="M91.9,151.5c-0.9-0.4-1.7-0.8-2.2-1.1c-0.3-0.2-0.6-0.3-0.7-0.4c-0.1-0.1-0.1-0.2-0.3-0.5
		c-0.6-1.1-1.7-3.6-1.7-6.5c3-1.3,7.4-3.4,8.5-3.9c1,0.5,4.7,2.3,10.6,3.4c0,0,0,0.1,0.1,0.1c0.3,0.8,1,2.8,1.8,6.5
		c-0.6,0.7-3,3.1-8.7,4.1C96.3,153.1,93.7,152.3,91.9,151.5z"/>
	<path class="st1" d="M123.8,116.8c-0.1,0.1-0.1,0.2-0.2,0.2c-0.9-0.6-3-2-5.9-2.4c-2.8-4.6-6.1-7-7-7.7c0-0.6,0-1.9,0.1-3.5
		c3,1.3,5.8,3.2,8.1,5.5c2.1,2.1,3.9,4.5,5.2,7.2C124,116.5,123.9,116.7,123.8,116.8z"/>
	<path class="st1" d="M109.7,106.7c-4.7,0.1-8.3,1.6-9.3,2.1c-0.9-0.6-4.1-2.5-8.9-2.5c-0.1,0-0.3,0-0.4,0c-0.1-0.7-0.2-2-0.2-3.5
		c2.9-1,5.9-1.6,9.2-1.6c3.5,0,6.8,0.7,9.8,1.8C109.8,104.7,109.7,106,109.7,106.7z"/>
	<path class="st1" d="M74.7,134.5c0.4,0.1,1.1,0.2,1.9,0.2c0.7,0,1.5-0.1,2.4-0.3c0.5,1.2,2.4,4.7,7,8.5c0.1,3.2,1.2,5.8,1.8,7
		c-0.4,0.1-0.8,0.1-1.2,0.1h0c0,0,0,0,0,0c0,0,0,0,0,0c-0.8,0-1.4-0.1-2-0.2c-1.2-0.9-2.4-1.9-3.5-2.9c-2.9-2.9-5.2-6.5-6.5-10.6
		C74.6,135.6,74.7,134.9,74.7,134.5z"/>
	<path class="st1" d="M108.9,149.9c5.1-0.1,8.6-2.2,9.7-3c0,0,0.1,0.1,0.1,0.1c-4.8,4.7-11.4,7.6-18.7,7.7c0-0.1-0.1-0.3-0.1-0.4
		C105.7,153.3,108.2,150.7,108.9,149.9z"/>
	<path class="st1" d="M122.5,137.8c0.5-0.6,2.6-3.2,4.1-6.8c-0.7,5.9-3.2,11.2-7.1,15.3c-0.1-0.1-0.1-0.1-0.1-0.2
		C120,145,121.8,141.6,122.5,137.8z"/>
	<path class="st1" d="M38.1,91.8l0.5-2.4l2.7-0.5l-2.7-0.5l-0.5-2.4l-0.5,2.4l-1.1,0.2c-0.1,0.2-0.1,0.3-0.2,0.5l1.2,0.2L38.1,91.8z
		"/>
	<polygon class="st1" points="38.1,102.9 37.6,105.2 34.9,105.7 37.6,106.2 38.1,108.5 38.6,106.2 41.3,105.7 38.6,105.2 	"/>
	<polygon class="st1" points="38.1,119.6 37.6,122 34.9,122.4 37.6,122.9 38.1,125.3 38.6,122.9 41.3,122.4 38.6,122 	"/>
	<polygon class="st1" points="38.1,136.3 37.6,138.7 34.9,139.2 37.6,139.6 38.1,142 38.6,139.6 41.3,139.2 38.6,138.7 	"/>
	<polygon class="st1" points="51.7,65.7 55.5,66.3 56.2,69.8 56.9,66.3 60.8,65.7 56.9,65 56.9,64.9 55.6,64.9 55.5,65 	"/>
	<polygon class="st1" points="56.2,81.5 55.6,84.8 51.9,85.4 55.6,86 56.2,89.3 56.9,86 60.6,85.4 56.9,84.8 	"/>
	<polygon class="st1" points="56.2,101.4 55.6,104.5 52.1,105.1 55.6,105.7 56.2,108.8 56.8,105.7 60.3,105.1 56.8,104.5 	"/>
	<polygon class="st1" points="56.2,121.3 55.6,124.2 52.3,124.8 55.6,125.4 56.2,128.3 56.8,125.4 60.1,124.8 56.8,124.2 	"/>
	<polygon class="st1" points="56.2,141.2 55.7,144 52.5,144.5 55.7,145 56.2,147.8 56.8,145 59.9,144.5 56.8,144 	"/>
	<polygon class="st1" points="56.2,161.1 55.7,163.7 52.7,164.2 55.7,164.7 56.2,167.3 56.7,164.7 59.7,164.2 56.7,163.7 	"/>
	<polygon class="st1" points="151.4,88.3 150.2,94.1 143.6,95.2 150.2,96.3 151.4,102.2 152.6,96.3 159.2,95.2 152.6,94.1 	"/>
	<path class="st1" d="M165,92.9l-0.4,1.9l-2.2,0.4l2.2,0.4l0.4,1.9l0.4-1.9l0.5-0.1c-0.1-0.2-0.1-0.4-0.2-0.6l-0.3,0L165,92.9z"/>
	<polygon class="st1" points="165,111.1 165.4,109.2 167.5,108.8 165.4,108.4 165,106.5 164.6,108.4 162.4,108.8 164.6,109.2 	"/>
	<polygon class="st1" points="165,124.7 165.4,122.8 167.5,122.4 165.4,122 165,120.1 164.6,122 162.4,122.4 164.6,122.8 	"/>
	<polygon class="st1" points="165,138.3 165.4,136.3 167.5,136 165.4,135.6 165,133.7 164.6,135.6 162.4,136 164.6,136.3 	"/>
	<polygon class="st1" points="151.4,120.1 150.2,125.9 143.6,127 150.2,128.2 151.4,134 152.6,128.2 159.2,127 152.6,125.9 	"/>
	<polygon class="st1" points="137.3,81.9 138.5,76.1 145.1,75 138.5,73.9 137.3,68 136.1,73.9 132.6,74.4 132.6,74.6 136.2,73.9 
		137.3,68.6 138.4,73.9 144.4,75 138.4,76 137.3,81.4 136.2,76 132.6,75.4 132.6,75.5 136.1,76.1 	"/>
	<polygon class="st1" points="136.2,76 137.3,81.4 138.4,76 144.4,75 138.4,73.9 137.3,68.6 136.2,73.9 132.6,74.6 132.6,75.4 	"/>
	<polygon class="st1" points="137.3,108 138.4,102.7 144.4,101.7 138.4,100.6 137.3,95.3 136.2,100.6 132.6,101.2 132.6,102.1 
		136.2,102.7 	"/>
	<polygon class="st1" points="137.3,134.7 138.4,129.4 144.4,128.3 138.4,127.3 137.3,122 136.2,127.3 132.6,127.9 132.6,128.7 
		136.2,129.4 	"/>
	<polygon class="st1" points="137.3,161.4 138.4,156 144.4,155 138.4,154 137.3,148.6 136.2,154 132.6,154.6 132.6,155.4 136.2,156 
			"/>
	<path class="st1" d="M151.4,151.9l-1.2,5.8l-6.6,1.1l6.6,1.1l0.6,3.1c0.5-0.5,0.9-1,1.4-1.4l0.3-1.7l1.4-0.2c0.5-0.5,0.9-1,1.3-1.5
		l-2.8-0.5L151.4,151.9z"/>
	<polygon class="st1" points="152.5,64.9 150.3,64.9 151.4,70.4 	"/>
	<path d="M95.9,93.4c0-2.2,0-4.4,0-6.7c0-2.3,0-4.6,0-7c0.7,0,1.4,0,2-0.1c0.7,0,1.4,0,2.1-0.1c0.8,0,1.3,0.1,1.8,0.3
		c0.4,0.2,0.7,0.7,1,1.3c0.2,0.6,0.3,1.4,0.3,2.3c0,0.8-0.1,1.5-0.3,2c-0.2,0.6-0.5,1-0.8,1.4c-0.2,0.2-0.5,0.4-0.9,0.6
		c0.3,0.2,0.5,0.3,0.6,0.5c0.1,0.1,0.2,0.3,0.4,0.7c0.2,0.4,0.3,0.6,0.3,0.8c0.2,0.6,0.4,1.3,0.5,1.9c0.2,0.6,0.4,1.3,0.5,1.9
		c-0.4,0-0.9,0-1.3,0c-0.4,0-0.9,0-1.3,0c-0.4-1.4-0.8-2.8-1.2-4.2c-0.2-0.7-0.3-1.4-1.3-1.4c0,0.9,0,2,0,2.9c0,0.9,0,1.8,0,2.7
		c-0.4,0-0.8,0-1.2,0C96.7,93.4,96.3,93.4,95.9,93.4L95.9,93.4z M98.3,85.1c0.3,0,0.7,0,1,0c0.4,0,0.9-0.3,1-0.6
		c0.1-0.2,0.2-0.5,0.2-0.8c0-0.8-0.2-1.4-1.1-1.4c-0.4,0-0.7,0-1.1,0C98.3,83.2,98.3,84.2,98.3,85.1z"/>
	<path d="M91.9,80.3c0.9-0.1,1.8-0.3,2.7-0.4c0,1.5,0,3,0,4.4c0,1.4,0,2.8,0,4.2c0,0.8-0.1,1.6-0.2,2.3c-0.2,0.7-0.4,1.3-0.7,1.8
		c-0.3,0.5-0.7,0.9-1,1.1c-0.5,0.3-1.1,0.5-1.8,0.5c-0.4,0-0.8,0-1.3-0.1c-0.5-0.1-0.9-0.2-1.2-0.4c-0.3-0.2-0.6-0.6-0.9-1
		c-0.3-0.4-0.5-0.9-0.6-1.4c-0.2-0.8-0.3-1.5-0.3-2.1c-0.1-1.3-0.1-2.6-0.2-3.9c-0.1-1.3-0.1-2.7-0.2-4.1c0.9-0.1,1.7-0.3,2.6-0.4
		c0.1,2.8,0.2,5.5,0.3,8.3c0,0.9,0.5,2.5,1.6,2.4c1.3-0.1,1.5-1.3,1.4-2.3C92.1,86.3,92,83.1,91.9,80.3z"/>
	<path d="M77.4,93.7l-0.2-2.6l3.9-1.6l0.4,5.4c-0.7,1.1-1.3,1.9-1.9,2.3c-1,0.8-2.2,1.4-3.5,1.2c-2.4-0.3-3-4.2-3.1-6.4
		c-0.1-2.8,0.3-5.2,2.7-6.9c0.8-0.6,2.3-1.1,3.3-0.9c1.1,0.3,1.6,1.5,1.9,2.5l-2.3,1.7c-0.4-0.7-0.6-1.4-1.4-1.2
		c-0.5,0.1-1,0.6-1.2,1.2c-0.3,0.7-0.4,1.7-0.4,3.1c0,0.8,0.4,4.5,2,4c0.7-0.2,1.2-0.7,1.6-1.2l0-1.2L77.4,93.7z"/>
	<path d="M124.4,85.6c0.8,0.4,1.7,0.8,2.5,1.2c-0.2,1.9-0.5,3.8-0.8,5.6c-0.2,1.4-0.2,2.6-0.7,3.9c-1,2.7-2.7,2.7-4.9,1.5
		c-1.5-0.8-2.5-2.3-2.6-3.9c-0.1-0.9-0.1-1.7,0-2.4c0.1-0.7,0.1-1.4,0.2-2.1c0.1-0.7,0.2-1.4,0.2-2.1c0.1-0.7,0.2-1.4,0.2-2.2
		c0.1-0.7,0.2-1.4,0.2-2.2c1,0.5,1.4,0.7,2.4,1.1c-0.3,2.8-0.6,5.8-1,8.6c-0.1,0.9,0.2,2.6,1.4,2.9c1.3,0.4,1.7-0.9,1.8-1.8
		C123.7,91.1,124.1,88.4,124.4,85.6z"/>
	<path d="M108.4,89.4l0.2-2.5l4,0.9l-0.4,5.2c-1.6,1.6-4.8,1.7-6.3-0.1c-1.1-1.4-1.4-3.5-1.4-5.8c0-2.8,0.8-5,2-6
		c1.5-1.2,4.3-0.5,5.2,1.1c0.6,0.9,1,2.3,1,3l-2.6,0.1c-0.1-1-0.7-2.2-1.5-2.2c-0.3,0-0.7,0-1.2,0.7c-0.7,1-0.7,2.4-0.8,3.6
		c0,1.2,0.1,2.7,0.7,3.5c0.6,0.8,1.5,0.8,2.5,0.2l0.1-1.3L108.4,89.4z"/>
	<polygon points="81.7,82.7 84,81.9 85.1,95.4 82.9,96.1 	"/>
	<polygon points="114.4,81.7 116.7,82.5 115.5,95.9 113.2,95.2 	"/>
</g>
</svg>
