<?xml version="1.0" encoding="utf-8"?>
<!-- Generator: Adobe Illustrator 21.1.0, SVG Export Plug-In . SVG Version: 6.00 Build 0)  -->
<svg version="1.1" id="Layer_1" xmlns="http://www.w3.org/2000/svg" xmlns:xlink="http://www.w3.org/1999/xlink" x="0px" y="0px"
	 viewBox="0 0 200 200" style="enable-background:new 0 0 200 200;" xml:space="preserve">
<style type="text/css">
	.st0{fill:#0096A6;}
	.st1{fill:#FFC200;}
</style>
<g>
	<path class="st0" d="M122.4,46.6c11.4,0,21.3,6,26.7,14.9c2.7,4.5,4.2,10.4,4.2,16c0,3.7-0.9,6.9-2.2,9.9c-1.4,3.5-3.5,6.9-6,9.6
		c-3.8,4.3-8.1,5.7-15,5.8c1.9-0.9,7.4-4.7,10-9.9c1.6-0.3,3.5-0.5,5.5-1.4c1.1-0.5,3.8-2.7,5.8-6.1c0.7-1.9,1.1-4,1.2-6
		c-1.3-3.5-3-7.8-5.5-9.9c-0.5-4.1-0.8-7.5-0.8-10.5c-2.4-3.1-5.4-5.6-8.8-7.6c-2.8,0.2-7.3,1.1-10.4,2.3c-4-1.3-7.9-2.7-13.3-2.7
		c-1.6,0.6-2.9,1.3-4.7,2.3c1-0.9,2.4-1.7,3.6-2.5l0.2-1.9c-5.7,1.7-10.6,4.9-14.2,9.1c1.4-0.2,3,0.2,3.3,0c1-0.9,1.6-1.6,3.2-2.3
		c-1.2,0.9-3,2.7-2.4,3.8c1.5,2.9,2.7,6.2,3.1,8.7c-2.6,2.7-5.7,5.8-7.9,8.6c-0.3,1.8,0.1,4.6,1.1,6.6c-1.4-2-2.1-3.9-2.9-6.2
		c-1.1-1.3-2.9-3.6-4-5.5c-0.3,1.8-0.5,3.7-0.5,5.6c0,6.7,2.4,13.3,6.4,18.8c-4.3-5.2-6.9-11.9-6.9-19.1
		C91.3,60.2,105.2,46.6,122.4,46.6L122.4,46.6z M108,68.9c2.5,0.7,4.9,1.5,7,2.5c1,0.5,2.1,1.3,2.8,3.4c1.1,3.1,2.1,5.8,2.9,8.8
		c0.7,2.6-2.3,5.4-4.9,8c2.8-1.5,5-3.4,7.1-5.9c4.4-0.9,8.7-0.9,12.5-0.5c1.6,1.9,2.8,4.1,3.8,6.3c-0.6-2.4-1.7-4.8-3.4-7.8
		c0.6-3.4,1.3-6.4,2-9.6c0.6-2.7,4.2-3.9,7.3-4.7c-3.3-0.1-5.3,1-7.7,1c-2.4-1.5-4.8-3.8-7.7-5.8c-0.6-2.6-1.4-5.3-2.5-7.9
		c0.4,2.5,0.5,5,0.3,7.5c-1.4,0.6-3.7,2.2-5.3,3.4c-2.2,1.6-3.6,2.9-4.3,2.7C115.2,69.7,112.5,69.3,108,68.9z"/>
	<path class="st1" d="M31.8,101c14,11.6,32.5,16.6,49.1,17.7c15.5,1.1,31.2-0.8,45.5-6.9c17.2-7.3,32.1-20.6,28.3-38.5
		c4.9,9.6,1.3,20.5-5.4,27.8c-15.1,16.5-41.7,22.4-63.4,21.1C65,121,43.1,113.6,31.8,101z"/>
	<path class="st1" d="M0.5,152.6c16.9-3.3,30.9-5,44.5-6.2c20.5-1.9,38.2-2.1,54.4-2.1c12.8,0,25.4,0.2,39,0.9
		c20.6,1,39.2,3,61.1,7.2c-26.6-7.7-66.7-10.2-99.9-10.2C66.5,142.1,29,144.4,0.5,152.6z"/>
	<path class="st0" d="M48,153.4h-1.9v-4.2h6.4v0.7H48v1.2h3.5v0.6H48V153.4z M57.4,153.4c-1.3,0-2.4-0.2-3.1-0.6
		c-0.7-0.4-1.1-0.9-1.1-1.6c0-0.6,0.4-1.1,1.2-1.5c0.8-0.4,1.8-0.6,3.1-0.6c1.3,0,2.3,0.2,3.1,0.6c0.8,0.4,1.1,0.9,1.1,1.6
		c0,0.7-0.4,1.2-1.2,1.6C59.8,153.2,58.7,153.4,57.4,153.4z M57.4,152.8c0.7,0,1.2-0.1,1.7-0.3c0.5-0.2,0.7-0.6,0.7-1.2
		c0-0.5-0.2-0.9-0.6-1.1c-0.4-0.3-1-0.4-1.7-0.4c-1.6,0-2.3,0.5-2.3,1.6c0,0.5,0.2,0.9,0.6,1.2C56.1,152.7,56.7,152.8,57.4,152.8z
		 M67.2,153.4c-1.3,0-2.4-0.2-3.1-0.6c-0.7-0.4-1.1-0.9-1.1-1.6c0-0.6,0.4-1.1,1.2-1.5c0.8-0.4,1.8-0.6,3.1-0.6
		c1.3,0,2.3,0.2,3.1,0.6c0.8,0.4,1.1,0.9,1.1,1.6c0,0.7-0.4,1.2-1.2,1.6C69.5,153.2,68.5,153.4,67.2,153.4z M67.2,152.8
		c0.7,0,1.2-0.1,1.7-0.3c0.5-0.2,0.7-0.6,0.7-1.2c0-0.5-0.2-0.9-0.6-1.1c-0.4-0.3-1-0.4-1.7-0.4c-1.6,0-2.3,0.5-2.3,1.6
		c0,0.5,0.2,0.9,0.6,1.2C65.9,152.7,66.4,152.8,67.2,152.8z M76.8,153.4h-2v-3.6h-2.7v-0.7h7.3v0.7h-2.7V153.4z M80.3,153.4v-4.2
		h3.9c0.7,0,1.2,0,1.7,0.1c0.4,0.1,0.8,0.2,1.1,0.4c0.3,0.2,0.5,0.4,0.5,0.6c0,0.2-0.2,0.4-0.5,0.6c-0.3,0.2-0.8,0.3-1.3,0.3
		c0.7,0.1,1.2,0.2,1.6,0.4c0.4,0.2,0.5,0.4,0.5,0.7c0,0.3-0.3,0.6-0.8,0.8c-0.5,0.2-1.3,0.3-2.4,0.3
		C84.7,153.4,80.3,153.4,80.3,153.4z M82,150.9h2.2c0.5,0,0.8-0.1,1.1-0.2c0.3-0.1,0.4-0.3,0.4-0.4c0-0.2-0.2-0.3-0.5-0.4
		c-0.3-0.1-0.7-0.1-1.1-0.1H82C82,149.7,82,150.9,82,150.9z M82,152.7h2.3c0.5,0,0.9-0.1,1.2-0.2c0.3-0.1,0.4-0.3,0.4-0.4
		c0-0.2-0.1-0.3-0.4-0.4c-0.3-0.1-0.7-0.2-1.2-0.2H82C82,151.5,82,152.7,82,152.7z M97.4,153.4h-1.9l-0.8-1h-3.9l-0.8,1h-1.6
		l3.3-4.2H94C94,149.1,97.4,153.4,97.4,153.4z M94.2,151.7l-1.5-1.9l-1.5,1.9C91.2,151.7,94.2,151.7,94.2,151.7z M104.5,153.4h-6.2
		v-4.2h1.9v3.5h4.3V153.4z M112.2,153.4H106v-4.2h1.9v3.5h4.3V153.4z M122.6,151.9l1.7,0.1c-0.1,0.4-0.5,0.8-1.2,1
		c-0.7,0.3-1.6,0.4-2.6,0.4c-0.9,0-1.7-0.1-2.2-0.3c-0.6-0.2-1-0.5-1.3-0.8c-0.3-0.3-0.5-0.7-0.5-1.1c0-0.6,0.4-1.2,1.1-1.6
		c0.7-0.4,1.7-0.6,3-0.6c1,0,1.8,0.1,2.5,0.4c0.7,0.3,1.1,0.6,1.3,1.1l-1.7,0.1c-0.3-0.6-1-1-2.1-1c-0.7,0-1.2,0.1-1.6,0.4
		c-0.4,0.3-0.6,0.7-0.6,1.2c0,0.5,0.2,0.9,0.6,1.2c0.4,0.3,0.9,0.4,1.6,0.4c0.5,0,1-0.1,1.4-0.3
		C122.4,152.3,122.6,152.1,122.6,151.9L122.6,151.9z M131.8,153.4h-6.2v-4.2h1.9v3.5h4.3V153.4z M140.4,149.1v2.7
		c0,0.4-0.1,0.7-0.3,0.9c-0.2,0.2-0.6,0.4-1.1,0.5c-0.6,0.1-1.3,0.2-2.1,0.2c-0.8,0-1.5-0.1-2-0.2c-0.5-0.1-0.9-0.3-1.1-0.5
		c-0.2-0.2-0.3-0.5-0.3-0.8v-2.8h1.9v2.7c0,0.4,0.2,0.6,0.6,0.7c0.4,0.1,0.8,0.2,1.3,0.2c0.6,0,1-0.1,1.4-0.2
		c0.3-0.1,0.5-0.4,0.5-0.7v-2.7L140.4,149.1L140.4,149.1z M142.3,153.4v-4.2h3.9c0.7,0,1.2,0,1.7,0.1c0.4,0.1,0.8,0.2,1.1,0.4
		c0.3,0.2,0.5,0.4,0.5,0.6c0,0.2-0.2,0.4-0.5,0.6c-0.3,0.2-0.8,0.3-1.3,0.3c0.7,0.1,1.2,0.2,1.6,0.4c0.4,0.2,0.5,0.4,0.5,0.7
		c0,0.3-0.3,0.6-0.8,0.8c-0.5,0.2-1.3,0.3-2.4,0.3C146.7,153.4,142.3,153.4,142.3,153.4z M144,150.9h2.2c0.5,0,0.8-0.1,1.1-0.2
		c0.3-0.1,0.4-0.3,0.4-0.4c0-0.2-0.2-0.3-0.5-0.4s-0.7-0.1-1.1-0.1H144C144,149.7,144,150.9,144,150.9z M144,152.7h2.3
		c0.5,0,0.9-0.1,1.2-0.2c0.3-0.1,0.4-0.3,0.4-0.4c0-0.2-0.1-0.3-0.4-0.4c-0.3-0.1-0.7-0.2-1.2-0.2H144
		C144,151.5,144,152.7,144,152.7z"/>
	<path class="st0" d="M114.2,127c-1.1-1.5-3-2.2-5.3-2.2c-2.6-0.1-4.4,0.7-5.6,2.3l-9.9,13.5c2.1,0,4.2,0,6.3,0l1.1,0l1.4-2h13.3
		l1.6,2.2c2.5,0.1,5,0.1,7.5,0.2L114.2,127z M104.8,134.8l3.6-5.1c0,0,0.1-0.1,0.1-0.2c0-0.1,0.1-0.1,0.1-0.2c0,0,0.1-0.1,0.1-0.1
		c0,0,0.1,0,0.1,0.1c0,0,0.1,0.1,0.1,0.2c0,0.1,0.1,0.1,0.1,0.2l3.6,5.1H104.8z M175.7,127c-1.1-1.4-3-2.2-5.3-2.2
		c-2.6-0.1-4.4,0.7-5.6,2.3l-10.5,14.3c0.1-0.4,0.1-0.8,0.1-1.2V125h-7.1v11.1c0,0,0,0.1,0,0.2c0,0.1,0,0.1-0.1,0.2
		c-0.1,0.1-0.2,0.1-0.3,0.1c-0.1,0-0.3-0.1-0.4-0.1c-0.1-0.1-0.2-0.2-0.3-0.3l-9.4-8.6c-2.1-1.9-4.6-3.1-7.6-2.8
		c-2.5,0.3-4.2,1.4-4.2,3.5V141c2.3,0.1,4.6,0.2,6.9,0.3v-9.8c0-0.2,0-0.3,0.1-0.4c0.1-0.1,0.1-0.1,0.2-0.1c0.1,0,0.1,0,0.2,0
		c0.1,0,0.3,0.1,0.4,0.1c0.1,0.1,0.2,0.2,0.3,0.3l10.7,9.7c0.3,0.3,0.7,0.6,1.2,0.9c2.8,0.2,5.6,0.4,8.4,0.7l0,0l0.1,0l0,0l0.1,0
		l0.1,0l0,0l0.1,0l0,0l0.1,0l0,0c2.2,0.2,4.3,0.4,6.5,0.7l3.5-5h13.2l6.1,8.3c3,0.6,6,1.2,9,1.9L175.7,127z M166.4,134.8l3.6-5.1
		c0,0,0.1-0.1,0.1-0.2c0-0.1,0.1-0.1,0.1-0.2c0,0,0.1-0.1,0.1-0.1c0,0,0.1,0,0.1,0.1c0,0,0.1,0.1,0.1,0.2c0,0.1,0.1,0.1,0.1,0.2
		l3.6,5.1H166.4z M70.6,125h-0.3h-17c-2.3,0-4.7,0-6.6,1.5c-0.9,0.7-1.4,1.8-1.4,3.3c0,1.4,0.5,2.5,1.4,3.3c0.8,0.7,1.8,1.1,3.1,1.3
		l13.4,2.5c0.5,0.1,1.2,0.3,1.2,1c0,0.6-0.5,1-1.2,1l-18.9-0.2l-8.5-11.6c-1.2-1.6-3.1-2.4-5.6-2.3c-2.3,0.1-4.2,0.8-5.3,2.2
		L8.7,148.8c3-0.7,6-1.3,9-1.9l5.9-8.3h13.2l3.5,5c2.3-0.3,4.7-0.5,7-0.7l0,0h0.3c5.6-0.5,11.1-0.9,16.7-1.3c2-0.1,4-0.2,6-0.3
		c0.9-0.9,1.2-2.1,1.2-3.4c-0.1-3.1-2.2-4.2-5.4-4.7L54.6,131c-0.3-0.1-0.8-0.1-1.1-0.2c-0.7-0.2-1.2-0.3-1.2-1.2
		c0-0.2,0.2-0.5,0.5-0.6c0.4-0.1,0.9-0.1,1.4-0.1h16.1h0.3h10.7v11.8c2.3-0.1,4.6-0.1,7-0.2V129h11.3v-4H70.6z M26.3,134.8l3.6-5.1
		c0,0,0.1-0.1,0.1-0.2c0-0.1,0.1-0.1,0.1-0.2c0,0,0.1-0.1,0.1-0.1c0,0,0.1,0,0.1,0.1c0,0,0.1,0.1,0.1,0.2c0,0.1,0.1,0.1,0.1,0.2h0
		l3.6,5.1H26.3z"/>
</g>
</svg>
