<?xml version="1.0" encoding="utf-8"?>
<!-- Generator: Adobe Illustrator 21.1.0, SVG Export Plug-In . SVG Version: 6.00 Build 0)  -->
<svg version="1.1" id="Layer_1" xmlns="http://www.w3.org/2000/svg" xmlns:xlink="http://www.w3.org/1999/xlink" x="0px" y="0px"
	 viewBox="0 0 200 200" style="enable-background:new 0 0 200 200;" xml:space="preserve">
<style type="text/css">
	.st0{fill:#FFFFFF;}
	.st1{fill-rule:evenodd;clip-rule:evenodd;fill:url(#SVGID_1_);}
	.st2{fill:#FFC807;}
	.st3{fill:url(#SVGID_2_);}
	.st4{fill:url(#SVGID_3_);}
	.st5{fill:url(#SVGID_4_);}
	.st6{fill:url(#SVGID_5_);}
	.st7{fill:#C29A2D;}
	.st8{fill:#C39B2D;}
	.st9{fill:#C39C2C;}
	.st10{fill:#C49D2C;}
	.st11{fill:#C49E2B;}
	.st12{fill:#C59F2B;}
	.st13{fill:#C5A02B;}
	.st14{fill:#C6A12A;}
	.st15{fill:#C6A22A;}
	.st16{fill:#C7A329;}
	.st17{fill:#C8A429;}
	.st18{fill:#C8A529;}
	.st19{fill:#C9A628;}
	.st20{fill:#C9A728;}
	.st21{fill:#CAA827;}
	.st22{fill:#CAA927;}
	.st23{fill:#CBAA27;}
	.st24{fill:#CBAB26;}
	.st25{fill:#CCAC26;}
	.st26{fill:#CDAD25;}
	.st27{fill:#CDAE25;}
	.st28{fill:#CEAF24;}
	.st29{fill:#CEB024;}
	.st30{fill:#CFB124;}
	.st31{fill:#CFB223;}
	.st32{fill:#D0B323;}
	.st33{fill:#D0B422;}
	.st34{fill:#D1B522;}
	.st35{fill:#D2B622;}
	.st36{fill:#D2B721;}
	.st37{fill:#D3B821;}
	.st38{fill:#D3B920;}
	.st39{fill:#D4BA20;}
	.st40{fill:#D4BB20;}
	.st41{fill:#D5BC1F;}
	.st42{fill:#D5BD1F;}
	.st43{fill:#D6BE1E;}
	.st44{fill:#D7BF1E;}
	.st45{fill:#D8C01D;}
	.st46{fill:#D8C11D;}
	.st47{fill:#D9C21C;}
	.st48{fill:#D9C31C;}
	.st49{fill:#DAC41C;}
	.st50{fill:#DAC51B;}
	.st51{fill:#DBC61B;}
	.st52{fill:#DBC71A;}
	.st53{fill:#DCC81A;}
	.st54{fill:#DDC91A;}
	.st55{fill:#DDCA19;}
	.st56{fill:#DECB19;}
	.st57{fill:#DECC18;}
	.st58{fill:#DFCD18;}
	.st59{fill:#DFCE18;}
	.st60{fill:#E0CF17;}
	.st61{fill:#E0D017;}
	.st62{fill:#E1D116;}
	.st63{fill:#E2D216;}
	.st64{fill:#E2D315;}
	.st65{fill:#E3D415;}
	.st66{fill:#E3D515;}
	.st67{fill:#E4D614;}
	.st68{fill:#E4D714;}
	.st69{fill:#E5D813;}
	.st70{fill:#E5D913;}
	.st71{fill:#E6DA13;}
	.st72{fill:#E7DB12;}
	.st73{fill:#E7DC12;}
	.st74{fill:#E8DD11;}
	.st75{fill:#E8DE11;}
	.st76{fill:#E9DF11;}
	.st77{fill:#E9E010;}
	.st78{fill:#EAE110;}
	.st79{fill:#EAE20F;}
	.st80{fill:#EBE30F;}
	.st81{fill:#ECE410;}
	.st82{fill:#EDE410;}
	.st83{fill:#EEE510;}
	.st84{fill:#EFE611;}
	.st85{fill:#EFE712;}
	.st86{fill:#F0E812;}
	.st87{fill:#F1E813;}
	.st88{fill:#F2E913;}
</style>
<g>
	<path class="st0" d="M173.8,88.7c-4-9.5-9.8-18.1-17.2-25.5c-7.4-7.4-15.9-13.1-25.5-17.2c-8-3.4-16.5-5.4-25.2-6.1l3.7-2.7
		l8.6-6.3l8.6,6.3l4.6,3.4l-1.8-5.5l-3.3-10.1l8.6-6.2l4.7-3.4l-5.7,0l-10.6,0l-3.3-10.1L118.3,0l-1.8,5.5l-3.3,10.1l-10.3,0l0,0
		l-3.1,0l-3.1,0l0,0l-10.3,0L83.4,5.5L81.7,0l-1.8,5.5l-3.3,10.1l-10.6,0l-5.7,0l4.7,3.4l8.6,6.2l-3.3,10.1l-1.8,5.5l4.6-3.4
		l8.6-6.3l8.6,6.3L94,40c-8.7,0.6-17.1,2.7-25.2,6.1c-9.5,4-18.1,9.8-25.5,17.2C36,70.6,30.2,79.2,26.2,88.7
		c-4.2,9.9-6.3,20.4-6.3,31.2c0,10.8,2.1,21.3,6.3,31.2c4,9.5,9.8,18.1,17.2,25.5c7.4,7.4,15.9,13.1,25.5,17.2
		c9.9,4.2,20.4,6.3,31.2,6.3c10.8,0,21.3-2.1,31.2-6.3c9.5-4,18.1-9.8,25.5-17.2c7.4-7.4,13.1-15.9,17.2-25.5
		c4.2-9.9,6.3-20.4,6.3-31.2C180.1,109.1,178,98.6,173.8,88.7z M93.1,35.2l-3.3-10.1l8.6-6.2l1.6-1.2l1.6,1.2l8.6,6.2l-3.3,10.1
		l-1.6,4.8c-1.8-0.1-3.5-0.2-5.3-0.2c-1.8,0-3.6,0.1-5.3,0.2L93.1,35.2z"/>
	
		<radialGradient id="SVGID_1_" cx="100.0193" cy="119.8912" r="88.5227" gradientTransform="matrix(-1 0 0 1 200.0195 0)" gradientUnits="userSpaceOnUse">
		<stop  offset="0" style="stop-color:#2C3895"/>
		<stop  offset="0.79" style="stop-color:#2E3290"/>
		<stop  offset="1" style="stop-color:#262261"/>
	</radialGradient>
	<circle class="st1" cx="100" cy="119.9" r="78.3"/>
	<path class="st0" d="M64,83.4c0,0.9-0.4,1.7-1,2.3c2.3-0.7,6.8-2,11.3-2c1.3,0,2.6,0.1,3.7,0.4V70.3c6.8-3,14.3-4.6,22-4.6
		s15.2,1.6,22,4.6v27.3c3.7,0.5,7.3,1.3,10.6,2.4c5.7,2,10.9,5,15.4,9l0,0l0,0c2.9,2.6,5.6,5.2,8.1,7.9
		c-0.7-13.9-6.5-26.8-16.4-36.8C129.1,69.5,115,63.7,100,63.7c-15,0-29.1,5.8-39.7,16.5c-0.1,0.1-0.2,0.2-0.3,0.3
		c0.3-0.1,0.6-0.2,1-0.2C62.6,80.3,64,81.7,64,83.4z"/>
	<path class="st0" d="M46.9,138.4c0.1,0.4,0.3,0.8,0.4,1.2c6-8.1,11.8-17.2,13.7-23.7c3.7-12.6,2.1-22.5,0.4-26.9L46.9,138.4z"/>
	<path class="st0" d="M45.5,133.7l1.6-5.2l12.8-42.1l0,0l0,0c0,0,0,0,0,0c-0.1,0-0.2-0.1-0.3-0.1c0,0-0.1,0-0.1,0
		c-0.1,0-0.2-0.1-0.3-0.2c0,0,0,0-0.1,0c-0.2-0.1-0.4-0.3-0.5-0.5c-0.5-0.6-0.8-1.3-0.8-2.1c0-0.3,0-0.5,0.1-0.8
		c-9.1,10.3-14.1,23.4-14.1,37.2c0,3.7,0.4,7.3,1,10.8l-9.1,30l1.1,1.7L45.5,133.7L45.5,133.7z"/>
	<path class="st0" d="M141.1,130.5c-6.5,0.7-13.1,1.9-19.1,3.4v35.7c-6.8,3-14.3,4.6-22,4.6c-7.7,0-15.2-1.6-22-4.6v-22.9
		c-2.3-0.1-4.2-0.7-5.4-1.8l0,0l0,0c-1.2-1.2-1-3.1-0.8-5.1l0,0l0,0c0.4-3.5,0.1-4.3-1.4-4.7c-0.1,0-0.3-0.1-0.5-0.1
		c-2.2,0-6,2.7-9.4,5c-0.8,0.6-1.8,1.3-3,2.1c-2.1,1.5-4.5,3.2-6.9,4.8c2.5,4.7,5.8,9,9.6,12.9c10.6,10.6,24.7,16.5,39.7,16.5
		c15,0,29.1-5.8,39.7-16.5c8.2-8.2,13.5-18.4,15.5-29.5c-1.5-0.1-3.1-0.2-4.8-0.2C147.6,129.9,144.5,130.1,141.1,130.5z"/>
	<path class="st0" d="M70.8,133c3.5,0.9,3.1,3.9,2.8,6.8c-0.2,1.5-0.3,3,0.3,3.6c4,3.8,17.9-1.7,23.5-4c0.3-0.2,0.6-0.3,0.9-0.4
		c7.3-2.9,25.8-8.7,42.6-10.4c9-1,17.6-0.8,23.8,1.6c-2.1-2.9-4.5-5.8-6.9-8.6c-3.6-4-7.4-7.8-11.1-11.1c-9.2-8.1-20-11.1-30.5-11.4
		c-10.7-0.4-21.3,1.7-30.3,3.5c-2.5,0.5-3.5-0.5-3.9-2.3c-0.3-1.3-0.1-2.9,0.2-4.8c0.4-3.2,0.8-6.9-1.4-8.3
		c-5.1-3.3-14.9-0.5-18,0.5c1.6,3.7,4.1,14.4-0.1,28.7C60.3,125,51,138.7,42,149.3c4.4-1.4,13.3-8.2,17.4-11
		C64,135.1,68,132.3,70.8,133z"/>
	<path class="st0" d="M60.6,84.3c0.8,0,1.6-0.7,1.6-1.6c0-0.9-0.7-1.6-1.6-1.6c-0.9,0-1.6,0.7-1.6,1.6C59,83.6,59.7,84.3,60.6,84.3z
		"/>
	<path class="st2" d="M61.5,89l-13.6,46.1c0.3,0.9,0.5,1.8,0.8,2.6c5.5-7.6,10.6-15.8,12.3-21.8C64.8,103.3,63.2,93.3,61.5,89z"/>
	<path class="st2" d="M72.6,144.8L72.6,144.8c-1.2-1.2-1-3.1-0.8-5.2l0,0l0,0c0.4-3.5,0.1-4.3-1.4-4.7c-0.1,0-0.3-0.1-0.5-0.1
		c-2.2,0-6,2.7-9.4,5c-0.8,0.6-1.8,1.3-3,2.1c-1.6,1.2-3.4,2.4-5.2,3.7c2.5,4.6,5.6,8.8,9.4,12.6c4.8,4.8,10.3,8.6,16.4,11.3v-22.9
		C75.6,146.5,73.8,145.9,72.6,144.8L72.6,144.8z"/>
	<path class="st2" d="M64,83.4c0,0.9-0.4,1.7-1,2.3c2.3-0.7,6.8-2,11.3-2c1.3,0,2.6,0.1,3.7,0.4V70.3c-5.7,2.5-11,6.1-15.6,10.5
		C63.4,81.3,64,82.3,64,83.4z"/>
	<path class="st2" d="M148,109L148,109L148,109c2.1,1.9,4.1,3.8,6,5.7c-1.2-12.5-6.6-24.2-15.6-33.2c-4.8-4.8-10.3-8.6-16.4-11.3
		v27.3c3.7,0.5,7.3,1.3,10.6,2.4C138.3,102,143.5,105,148,109z"/>
	<path class="st2" d="M141.1,130.5c-6.5,0.7-13.1,1.9-19.1,3.4v35.7c6-2.7,11.6-6.5,16.4-11.3c7.8-7.8,13-17.6,15-28.3
		c-0.9,0-1.9-0.1-2.8-0.1C147.6,129.9,144.5,130.1,141.1,130.5z"/>
	<path class="st2" d="M58.6,85.5c-0.1-0.1-0.2-0.2-0.3-0.4c-8.1,9.7-12.6,21.9-12.6,34.7c0,2.2,0.1,4.4,0.4,6.5L58.6,85.5
		C58.6,85.5,58.6,85.5,58.6,85.5z"/>
	<radialGradient id="SVGID_2_" cx="102.6807" cy="117.4751" r="27.8242" gradientUnits="userSpaceOnUse">
		<stop  offset="0" style="stop-color:#2C3895"/>
		<stop  offset="0.99" style="stop-color:#2E3290"/>
		<stop  offset="1" style="stop-color:#303187"/>
	</radialGradient>
	<path class="st3" d="M77.3,115.7H73v-4.5h2.9c1.5,0,2.6,0.3,3.5,0.8c0.8,0.5,1.6,1.6,2.2,3l2.5-0.8l-2.2-6H66v2.6h0.6
		c0.7,0,1.2,0.1,1.4,0.3c0.2,0.2,0.3,0.6,0.3,1.3v10.5c0,0.7-0.1,1.2-0.2,1.4c-0.2,0.2-0.5,0.3-1.2,0.3H66v2.6h11.1
		c2.5,0,4.4-0.6,5.5-1.7c1.1-1.2,1.7-2.5,1.7-4c0-1.6-0.6-3-1.8-4.1C81.2,116.2,79.5,115.7,77.3,115.7z M78.7,123.3
		c-0.5,0.5-1.3,0.8-2.5,0.8H73v-5.4h2.7c0.8,0,1.5,0.1,2,0.2c0.4,0.2,0.8,0.5,1.2,0.9c0.3,0.5,0.5,1,0.5,1.7
		C79.4,122.1,79.2,122.7,78.7,123.3z"/>
	<radialGradient id="SVGID_3_" cx="102.6807" cy="117.4751" r="27.8239" gradientUnits="userSpaceOnUse">
		<stop  offset="0" style="stop-color:#2C3895"/>
		<stop  offset="0.99" style="stop-color:#2E3290"/>
		<stop  offset="1" style="stop-color:#303187"/>
	</radialGradient>
	<path class="st4" d="M102.4,122.8l-5.7-14.6h-4.3l-5.8,14.9c-0.2,0.4-0.3,0.7-0.5,0.9c-0.2,0.2-0.3,0.3-0.5,0.4
		c-0.2,0.1-0.6,0.2-1.1,0.2v2.6h7.4v-2.6c-0.7,0-1.2-0.1-1.3-0.1c-0.2-0.1-0.4-0.1-0.5-0.2c-0.1-0.2-0.2-0.3-0.2-0.4
		c0-0.1,0.1-0.4,0.2-0.8l0.7-1.9h5.8l0.6,1.7c0.2,0.5,0.3,0.8,0.3,1c0,0.2-0.1,0.4-0.3,0.5c-0.2,0.2-0.6,0.2-1.1,0.2l-0.5,0.1v2.6
		h8.9v-2.6c-0.6,0-1.1-0.1-1.3-0.3C103,124,102.7,123.6,102.4,122.8z M91.8,118.4l1.9-5.2l1.8,5.2H91.8z"/>
	<radialGradient id="SVGID_4_" cx="102.6808" cy="117.4749" r="27.8241" gradientUnits="userSpaceOnUse">
		<stop  offset="0" style="stop-color:#2C3895"/>
		<stop  offset="0.99" style="stop-color:#2E3290"/>
		<stop  offset="1" style="stop-color:#303187"/>
	</radialGradient>
	<path class="st5" d="M136.6,110.6c-1.8-1.8-4-2.8-6.7-2.8c-2.3,0-3.9,0.5-5.1,1.6l-0.1-1.2h-1.9l-1.9,6.8l2.6,0.7
		c1.6-3.2,3.5-4.8,5.7-4.8c1.2,0,2.2,0.4,3.2,1.3c0.9,0.9,1.5,2.2,1.7,3.8h-6.6v2.7h6.6c-0.2,1.6-0.8,2.9-1.8,4
		c-0.9,1.1-2.2,1.6-3.5,1.6c-0.8,0-1.5-0.1-2.3-0.4c-0.7-0.3-1.3-0.6-1.7-0.9c-0.4-0.4-1-0.9-1.8-1.8l-0.6-0.7l-2.1,1.6
		c2.2,3.7,5.3,5.6,9.3,5.6c2.8,0,5.2-0.9,7-2.8c1.9-1.9,2.8-4.2,2.8-6.9C139.3,114.8,138.4,112.4,136.6,110.6z"/>
	<radialGradient id="SVGID_5_" cx="102.6807" cy="117.4751" r="27.8237" gradientUnits="userSpaceOnUse">
		<stop  offset="0" style="stop-color:#2C3895"/>
		<stop  offset="0.99" style="stop-color:#2E3290"/>
		<stop  offset="1" style="stop-color:#303187"/>
	</radialGradient>
	<path class="st6" d="M118.3,107.5h-1.7l-0.3,0.7h-10.7l-0.2-0.7h-1.8l-2.3,6.7l2.5,0.9c0.6-1.2,0.9-1.9,1.2-2.2
		c0.5-0.6,0.9-1.2,1.5-1.5c0.6-0.4,1.1-0.5,1.6-0.5c0.3,0,0.4,0,0.5,0.1c0.1,0.1,0.1,0.3,0.1,0.6v11.1c0,0.6-0.1,1.1-0.1,1.3
		c-0.1,0.2-0.3,0.3-0.4,0.4c-0.2,0.1-0.6,0.2-1.2,0.2h-0.6v2.6h9.2v-2.6c-0.8,0-1.3-0.1-1.5-0.1c-0.2-0.1-0.4-0.1-0.5-0.2
		c-0.1-0.1-0.2-0.2-0.2-0.4c-0.1-0.2-0.1-0.6-0.1-1.2v-10.9c0-0.4,0-0.6,0.1-0.7c0.1-0.1,0.2-0.2,0.5-0.2c0.4,0,0.9,0.1,1.4,0.4
		c0.6,0.4,1.2,0.9,1.6,1.6c0.2,0.3,0.6,1.1,1.2,2.2l2.5-0.9L118.3,107.5z"/>
	<path class="st0" d="M73.2,58c-0.6-1.2-1.5-2.1-2.6-2.7c-1.2-0.6-2.5-0.5-4.1,0.3l-0.1,0.1c-1.6,0.8-2.5,1.9-2.7,3.1
		c-0.2,1.3,0,2.5,0.6,3.7c0.6,1.2,1.5,2,2.6,2.7c1.2,0.6,2.5,0.5,4.1-0.3l0.1-0.1c1.6-0.8,2.5-1.8,2.7-3.1
		C74,60.4,73.8,59.2,73.2,58z M71.3,62.1c-0.2,0.5-0.5,0.8-1.1,1.2c-0.7,0.3-1.2,0.4-1.7,0.2c-0.5-0.2-0.9-0.5-1.2-0.9
		c-0.2-0.2-0.3-0.3-0.4-0.5c-0.1-0.2-0.2-0.4-0.3-0.5c-0.4-0.8-0.6-1.6-0.6-2.1c0.1-0.5,0.2-0.9,0.4-1.3c0.2-0.2,0.3-0.3,0.4-0.4
		c0.2-0.1,0.3-0.2,0.4-0.3c0.2-0.1,0.3-0.1,0.4-0.2c0.2-0.1,0.4-0.1,0.6-0.1c0.4-0.1,0.8,0.1,1.3,0.4c0.5,0.3,0.9,0.8,1.4,1.7
		c0.1,0.1,0.2,0.3,0.3,0.6c0.2,0.3,0.2,0.6,0.3,0.9C71.5,61.1,71.5,61.6,71.3,62.1z"/>
	<path class="st0" d="M111.5,58.6c1.2,0.2,2.1,0.1,2.7-0.3c0.7-0.4,1.1-1.1,1.3-2c0-0.2,0.1-0.4,0.1-0.5c0-0.2,0-0.4,0-0.6
		c-0.1-0.5-0.3-1.1-0.7-1.6c-0.4-0.5-1.2-0.9-2.3-1.1l-2.4-0.4l0.6-3.5l-2.3-0.4l-0.1-0.1l-1.7,9.7l4.7,0.8H111.5z M109.4,56.3
		l0.4-2.4l1.8,0.3c0.5,0.1,0.8,0.3,1.1,0.5c0.3,0.2,0.4,0.6,0.3,1.1c-0.1,0.4-0.3,0.7-0.6,0.8c-0.3,0.2-0.7,0.2-1.1,0.1L109.4,56.3z
		"/>
	<path class="st0" d="M94.8,54.1c-0.1-0.2-0.1-0.4-0.2-0.5c-0.2-0.5-0.6-0.9-1.1-1.4c-0.5-0.4-1.4-0.5-2.5-0.4l-2.4,0.3l-0.5-3.5
		l-2.3,0.3l-0.2,0.1l1.2,9.7l4.7-0.6l0.2-0.1c1.1-0.1,1.8-0.4,2.4-0.9c0.6-0.5,0.8-1.4,0.7-2.5C94.9,54.5,94.8,54.2,94.8,54.1z
		 M92,55.8c-0.3,0.2-0.6,0.4-1.1,0.4l-1.8,0.2L88.8,54l1.7-0.2c0.5-0.1,0.9,0,1.2,0.1c0.3,0.2,0.5,0.5,0.5,0.9
		C92.4,55.3,92.3,55.6,92,55.8z"/>
	<polygon class="st0" points="119.6,50.1 117.4,49.7 117.2,49.7 115.6,59.3 117.8,59.7 117.9,59.8 	"/>
	<polygon class="st0" points="102.7,47.8 102.5,51.5 99.1,51.4 99.2,47.7 96.9,47.7 96.8,47.7 96.6,57.4 98.9,57.5 99,57.5 
		99.1,53.3 102.5,53.3 102.4,57.5 104.8,57.6 104.9,57.6 105.1,47.8 102.8,47.8 	"/>
	<path class="st0" d="M164.1,90.8l1.7-0.9l-3.6-6.7l-0.1-0.1l-8.7,4.6l2.2,4.1l0.1,0.2c0.5,0.9,1.1,1.6,1.7,1.9
		c0.6,0.3,1.2,0.3,1.6,0.3c0.2-0.1,0.4-0.1,0.5-0.2c0.2-0.1,0.4-0.1,0.5-0.2c0.2-0.1,0.3-0.2,0.5-0.3c0.2-0.2,0.3-0.3,0.5-0.5
		c0.4-0.4,0.6-0.9,0.7-1.5c0.2-0.6-0.1-1.5-0.6-2.5L160,87l1.6-0.8L164.1,90.8z M159.5,90.8c-0.1,0.3-0.3,0.5-0.6,0.6
		c-0.4,0.3-0.8,0.3-1.1,0c-0.3-0.2-0.5-0.5-0.7-0.9l-0.8-1.5l2.2-1.2l0.8,1.6c0.1,0.1,0.1,0.2,0.2,0.3c0.1,0.2,0.1,0.3,0.2,0.4
		C159.6,90.4,159.5,90.6,159.5,90.8z"/>
	<path class="st0" d="M159.7,79.3l-0.1-0.1l-4.7,1.4l2.5-4.4l-1.6-2.2l-0.1-0.1l-3.6,7.1c-0.1,0-0.1,0.1-0.2,0.1
		c-0.1,0-0.1,0-0.2,0.1c-0.2,0-0.4,0-0.6-0.1c-0.2-0.1-0.4-0.2-0.6-0.5c-0.1-0.2-0.2-0.3-0.3-0.4c-0.1-0.2-0.1-0.3-0.2-0.4l-0.1-0.2
		l-1.6,1.2c0.1,0.1,0.1,0.1,0.1,0.2c0.1,0.1,0.1,0.1,0.1,0.2c0.1,0.2,0.2,0.3,0.2,0.5c0.1,0.2,0.2,0.3,0.3,0.5l0.1,0.1
		c0.1,0.2,0.2,0.3,0.3,0.5c0.2,0.2,0.3,0.3,0.5,0.4c0.3,0.2,0.6,0.4,1.1,0.4c0.4,0.1,1,0.1,1.7-0.1l8.2-2L159.7,79.3z"/>
	<path class="st0" d="M149.1,67.1l-0.1-0.1l-3.4,3.2c-0.7,0.6-1.3,1-1.9,1.3c-0.6,0.3-1.2,0.2-1.7-0.4c0-0.1-0.1-0.1-0.1-0.1
		c0-0.1-0.1-0.1-0.1-0.2l-0.1-0.1l-1.3,1.2l0,0.2l-0.1-0.1c0.1,0.1,0.2,0.3,0.3,0.4c0.1,0.1,0.2,0.2,0.3,0.3l0.1,0.1
		c0.8,0.8,1.5,1.2,2.3,1.2c0.8-0.1,1.4-0.2,2-0.6c0.3-0.2,0.6-0.4,0.8-0.6c0.3-0.2,0.5-0.4,0.6-0.6l2.5-2.3l1.8,1.8l-5.7,5.5L147,79
		l0.1,0.1l7-6.8L149.1,67.1z"/>
	<polygon class="st0" points="140.1,65.4 145.9,64.1 143.7,62.5 143.6,62.4 138.6,63.8 140.9,60.5 139,59.2 138.9,59.1 133.3,67.2 
		135.2,68.5 135.3,68.6 137.9,64.7 138.1,70.5 140.4,72.1 140.5,72 	"/>
	<polygon class="st0" points="121.8,61.4 121.9,61.5 127.6,57.1 125.4,62.8 127.5,63.6 127.7,63.7 131.2,54.6 129,53.7 128.9,53.7 
		123.2,58 125.4,52.3 123.2,51.5 123.1,51.5 119.6,60.6 	"/>
	<polygon class="st0" points="52.7,67.8 51.3,66.5 45.6,72.5 45.5,72.6 46.8,73.9 48.9,71.7 54.5,77.2 56.2,75.6 56.3,75.5 50.6,70 
			"/>
	<path class="st0" d="M49.1,80.5l-4.4-7.1l-1.5,2l-0.1,0.1l2.7,4l-4.9-1l-1.6,2.2l-0.1,0.1l7.9,1.3c0,0,0.1,0.1,0.1,0.1
		c0,0.1,0.1,0.1,0.1,0.2c0.1,0.2,0.1,0.3,0.1,0.5c0.1,0.2-0.1,0.5-0.2,0.7c-0.1,0.2-0.2,0.3-0.3,0.4c-0.1,0.1-0.2,0.2-0.3,0.3
		l-0.1,0.1l1.5,1.1c0.1-0.1,0.1-0.1,0.2-0.2c0.1-0.1,0.2-0.1,0.2-0.2c0.2-0.1,0.3-0.2,0.4-0.4c0.1-0.1,0.2-0.3,0.4-0.4l0.1-0.2
		c0.1-0.1,0.2-0.3,0.3-0.5c0.1-0.2,0.2-0.3,0.3-0.5c0.1-0.3,0.2-0.7,0.1-1.2C49.8,81.7,49.6,81.1,49.1,80.5z"/>
	<path class="st0" d="M62.9,69.8c0.9-0.7,1.4-1.4,1.6-2c0.2-0.6,0.2-1.2,0-1.7c-0.1-0.2-0.2-0.3-0.3-0.5c-0.1-0.2-0.2-0.3-0.3-0.4
		c-0.1-0.2-0.3-0.3-0.4-0.5c-0.1-0.2-0.3-0.3-0.5-0.4c-0.5-0.3-1-0.4-1.6-0.4c-0.6,0-1.4,0.4-2.3,1l-1.8,1.5l-1.1-1.4l4.1-3.3
		l-1.2-1.5l-6,4.7l-0.1,0.1l6,7.7l3.7-2.9L62.9,69.8z M62.2,67.8c-0.2,0.4-0.5,0.7-0.8,0.9L60,69.8l-1.5-1.9l1.4-1.1
		c0.1-0.1,0.2-0.2,0.3-0.2c0.1-0.1,0.3-0.2,0.4-0.2c0.2-0.1,0.4-0.1,0.7-0.1c0.3,0.1,0.5,0.2,0.7,0.5C62.3,67.2,62.3,67.5,62.2,67.8
		z"/>
	<path class="st0" d="M127.3,52.5l0.1,0.1c0.7,0.3,1.3,0.4,1.7,0.3c0.5-0.1,0.8-0.2,1.1-0.4c0.2-0.1,0.3-0.2,0.4-0.4
		c0.1-0.1,0.1-0.2,0.2-0.3l-1.4-0.6l-0.2-0.1c-0.1,0.3-0.2,0.4-0.4,0.5c-0.2,0.1-0.4,0.1-0.6,0.1c-0.1,0-0.2,0-0.2-0.1
		c-0.1,0-0.2,0-0.3-0.1c-0.1,0-0.1-0.1-0.2-0.1c-0.1,0-0.2-0.1-0.2-0.1c-0.2-0.1-0.3-0.3-0.4-0.4c-0.1-0.2-0.1-0.4,0-0.6l-1.4-0.6
		l-0.2-0.1c-0.2,0.5-0.1,1,0.2,1.5C125.8,51.8,126.4,52.2,127.3,52.5z"/>
	<path class="st0" d="M44,90.3c0.7-1.4,0.9-2.5,0.6-3.6c-0.3-1.1-0.9-1.8-1.9-2.4c-1.1-0.6-2.1-0.7-3.1-0.3
		c-1.1,0.3-1.9,1.2-2.6,2.5l-0.2,0.3l-1.2-0.7l-1.1,2l-0.1,0.1l1.2,0.7l-0.2,0.3c-0.7,1.3-0.9,2.5-0.6,3.6c0.3,1,0.9,1.8,2,2.4
		c1,0.6,2,0.7,3,0.3c1.1-0.4,1.9-1.2,2.6-2.5l0.2-0.3l1.2,0.6l1.1-2l0.1-0.1l-1.2-0.6L44,90.3z M41.2,91.7c-0.3,0.6-0.7,1.1-1.3,1.4
		c-0.5,0.3-1.1,0.3-1.8-0.2c-0.5-0.3-0.8-0.6-1.1-1.2c-0.2-0.5-0.1-1.2,0.4-2.1v-0.1L41.2,91.7L41.2,91.7z M42.1,89.9L42.1,89.9
		l-3.8-1.9l0.1-0.1c0.5-0.9,1-1.4,1.5-1.5c0.5-0.1,1.1-0.1,1.6,0.2c0.7,0.4,1.1,0.9,1.1,1.5C42.7,88.6,42.5,89.2,42.1,89.9z"/>
	<path class="st0" d="M76.9,58.8c0,0.7-0.4,1.2-1.1,1.4c-0.1,0-0.1,0-0.2,0c-0.1,0.1-0.1,0.1-0.2,0.1l-0.1,0.1l0.6,1.8
		c0.2,0,0.3-0.1,0.5-0.1c0.1,0,0.3-0.1,0.4-0.1l0.2-0.1c1-0.4,1.7-0.9,2-1.6c0.3-0.7,0.4-1.4,0.4-2c-0.1-0.3-0.1-0.7-0.2-1
		c-0.1-0.3-0.2-0.6-0.2-0.8l-1-3.3l2.5-0.8l2.4,7.5l2.2-0.7l0.1-0.1l-3-9.3L75.2,52l-0.1,0.1l1.4,4.5C76.8,57.4,76.9,58.2,76.9,58.8
		z"/>
	<path class="st0" d="M65.9,172.5l-5,8.4l4,2.4l0.1,0.1c0.9,0.6,1.8,0.8,2.4,0.8c0.6-0.1,1.2-0.3,1.5-0.6c0.2-0.1,0.3-0.3,0.4-0.4
		c0.1-0.2,0.2-0.3,0.3-0.4c0.1-0.2,0.2-0.3,0.3-0.5c0.1-0.2,0.2-0.4,0.2-0.6c0.1-0.5,0.1-1.1-0.2-1.6c-0.2-0.6-0.8-1.2-1.8-1.8
		l-2-1.2l0.9-1.6l4.5,2.7l1-1.6l-6.5-3.9L65.9,172.5z M66.7,179.4c0.1,0,0.2,0.1,0.3,0.2c0.1,0.1,0.3,0.2,0.4,0.3
		c0.2,0.2,0.3,0.4,0.3,0.6c0.1,0.2,0,0.5-0.2,0.8c-0.3,0.4-0.6,0.6-0.9,0.6c-0.4-0.1-0.7-0.2-1.2-0.4l-1.5-0.9l1.3-2.2L66.7,179.4z"
		/>
	<path class="st0" d="M137.4,177.3c-0.5-0.2-0.9-0.2-1.3-0.2c-0.1,0.1-0.2,0.1-0.3,0.1c-0.1,0-0.2,0.1-0.3,0.1h-0.1
		c0.1-0.1,0.1-0.2,0.2-0.2c0.1-0.1,0.1-0.2,0.2-0.3c0.2-0.3,0.3-0.6,0.3-0.9c0-0.4-0.1-0.7-0.3-1.2c-0.1-0.1-0.2-0.3-0.3-0.4
		c-0.1-0.1-0.2-0.3-0.4-0.4c-0.3-0.3-0.7-0.4-1.3-0.5c-0.5-0.1-1.2,0.2-2,0.6l-4.3,2.5l-0.1,0.1l5,8.4l4-2.4l0.1-0.1
		c0.2-0.1,0.3-0.2,0.5-0.3c0.2-0.1,0.3-0.2,0.5-0.3c0.5-0.4,0.9-0.9,1.2-1.5c0.3-0.6,0.2-1.3-0.3-2.1
		C138.3,177.8,137.9,177.5,137.4,177.3z M131.7,178.8l-1-1.8l1.6-1c0.4-0.2,0.7-0.3,0.9-0.2c0.3,0.1,0.5,0.2,0.6,0.5
		c0.2,0.3,0.2,0.5,0.2,0.7c-0.1,0.2-0.1,0.4-0.3,0.5c-0.1,0.1-0.1,0.1-0.2,0.2c-0.1,0.1-0.1,0.1-0.2,0.1L131.7,178.8z M136.5,180.2
		c-0.1,0.2-0.1,0.4-0.2,0.5c-0.1,0.1-0.2,0.2-0.2,0.3c-0.1,0.1-0.2,0.1-0.2,0.2l-1.9,1.2l-1.2-2l1.7-1c0.4-0.3,0.8-0.4,1.1-0.4
		c0.3,0,0.6,0.2,0.8,0.6C136.5,179.8,136.5,180,136.5,180.2z"/>
	<polygon class="st0" points="102.5,182.6 98.6,188.6 98.8,182.5 96.5,182.4 96.4,182.4 96,192.2 98.3,192.3 98.5,192.3 
		102.4,186.2 102.2,192.4 104.5,192.5 104.6,192.5 105,182.7 102.7,182.6 	"/>
	<path class="st0" d="M91.4,181.9c-0.1-0.1-0.2-0.1-0.2-0.1c-0.1,0-0.1-0.1-0.2-0.1l-4.5-0.8l-0.1-0.1l-1.9,9.6l2.3,0.5h0.1l0.6-3.3
		l2.2,0.4c0.2,0.1,0.5,0.1,0.7,0.1c0.3,0.1,0.6,0.1,1,0c0.5-0.1,1-0.3,1.5-0.6c0.5-0.4,0.8-1,1.1-1.9c0.2-1.2,0.1-2-0.5-2.6
		C92.9,182.4,92.2,182.1,91.4,181.9z M91.5,185.1c-0.1,0.5-0.3,0.8-0.6,0.9c-0.3,0.1-0.7,0.2-1.3,0.1l-1.6-0.3l0.5-2.6l1.6,0.3
		c0.5,0.1,0.9,0.3,1.2,0.5C91.5,184.3,91.6,184.7,91.5,185.1z"/>
	<path class="st0" d="M114.4,187.5l-0.1,0.1c0,0.1,0,0.2,0,0.3c0,0.2-0.1,0.3-0.1,0.4c-0.1,0.3-0.3,0.6-0.5,0.8
		c-0.2,0.3-0.6,0.5-1.1,0.6c-0.6,0.1-1.1,0-1.5-0.3c-0.4-0.3-0.7-0.6-0.9-0.9c-0.2-0.3-0.3-0.6-0.4-0.9c-0.1-0.3-0.2-0.5-0.2-0.6
		c-0.2-0.9-0.2-1.8,0.1-2.5c0.3-0.7,0.8-1.1,1.5-1.3c0.5-0.1,0.9-0.1,1.2,0.1c0.3,0.1,0.5,0.3,0.7,0.5c0.1,0.2,0.2,0.3,0.3,0.4
		c0.1,0.1,0.1,0.2,0.1,0.3l2.3-0.5h0.1c-0.1-0.2-0.1-0.4-0.2-0.7c-0.1-0.2-0.3-0.5-0.4-0.7c-0.4-0.5-0.9-0.9-1.6-1.2
		c-0.7-0.3-1.6-0.3-2.8-0.1h-0.1c-1.6,0.3-2.7,1.1-3.2,2.2c-0.6,1.2-0.7,2.5-0.4,4c0.4,1.8,1.1,3,2,3.5c1,0.5,2,0.7,3,0.6
		c0.1,0,0.3-0.1,0.4-0.1c0.1,0,0.2-0.1,0.3-0.1l0.1-0.1c1.2-0.2,2.1-0.6,2.6-1.2c0.5-0.5,0.8-1.2,1-1.7c0.1-0.3,0.1-0.6,0.1-0.8
		c0.1-0.3,0-0.5,0-0.7L114.4,187.5z"/>
	<path class="st0" d="M79.8,178.7l-0.1-0.1c-1.7-0.6-3.1-0.5-4.1,0.3c-1.1,0.7-1.8,1.8-2.2,3c-0.5,1.3-0.5,2.5-0.1,3.7
		c0.4,1.3,1.4,2.2,3.1,2.7l0.1,0.1c1.7,0.6,3.1,0.5,4.1-0.3c1.1-0.7,1.8-1.7,2.2-3c0.5-1.3,0.5-2.5,0.1-3.8
		C82.5,180.2,81.5,179.2,79.8,178.7z M80.3,184.3c-0.1,0.1-0.1,0.3-0.2,0.6c-0.2,0.3-0.3,0.5-0.5,0.8c-0.3,0.3-0.6,0.6-1,0.8
		c-0.4,0.2-0.9,0.2-1.6,0.1c-0.7-0.3-1.2-0.6-1.3-1.2c-0.2-0.5-0.3-1-0.2-1.5c0-0.3,0.1-0.5,0.1-0.7c0.1-0.2,0.1-0.4,0.2-0.6
		c0.3-0.9,0.7-1.6,1.1-1.9c0.4-0.3,0.8-0.5,1.2-0.6c0.2,0,0.4,0,0.6,0.1c0.2,0,0.3,0.1,0.4,0.1c0.2,0.1,0.3,0.1,0.4,0.2
		c0.2,0.1,0.3,0.2,0.5,0.3c0.3,0.3,0.5,0.7,0.6,1.2C80.7,182.7,80.6,183.4,80.3,184.3z"/>
	<path class="st0" d="M125.4,178.9c-1.1-0.7-2.5-0.8-4.1-0.2l-0.1,0.1c-1.7,0.6-2.7,1.5-3,2.8c-0.4,1.3-0.3,2.5,0.2,3.7
		c0.5,1.3,1.2,2.3,2.3,3c1.1,0.7,2.5,0.8,4.1,0.2l0.1-0.1c1.7-0.6,2.7-1.6,3.1-2.8c0.3-1.3,0.3-2.5-0.2-3.8
		C127.3,180.7,126.5,179.7,125.4,178.9z M125.3,185.7c-0.2,0.4-0.6,0.8-1.2,1c-0.7,0.3-1.3,0.2-1.7-0.1c-0.5-0.3-0.8-0.6-1.1-1.1
		c-0.2-0.2-0.3-0.4-0.4-0.6c-0.1-0.2-0.2-0.4-0.2-0.6c-0.3-0.9-0.5-1.6-0.3-2.2c0.1-0.5,0.3-0.9,0.6-1.2c0.2-0.1,0.3-0.3,0.4-0.3
		c0.2-0.1,0.3-0.2,0.4-0.2c0.2-0.1,0.3-0.1,0.5-0.1c0.2-0.1,0.3-0.1,0.5-0.1c0.4,0.1,0.8,0.2,1.2,0.6c0.5,0.3,0.8,0.9,1.2,1.8
		c0.1,0.2,0.1,0.3,0.2,0.6c0.1,0.3,0.2,0.6,0.2,0.9C125.6,184.8,125.6,185.2,125.3,185.7z"/>
	<g>
		<polygon class="st7" points="97.3,17.4 85.4,17.4 81.7,6 78,17.4 66,17.4 75.7,24.4 72,35.8 81.7,28.7 91.3,35.8 87.6,24.4 		"/>
		<polygon class="st8" points="97.2,17.4 85.3,17.5 81.7,6.2 78,17.5 66.2,17.4 75.8,24.4 72.1,35.7 81.7,28.7 91.3,35.7 87.6,24.4 
					"/>
		<polygon class="st9" points="97,17.5 85.3,17.5 81.7,6.4 78.1,17.5 66.4,17.5 75.9,24.4 72.2,35.5 81.7,28.6 91.2,35.5 87.5,24.4 
					"/>
		<polygon class="st10" points="96.9,17.5 85.2,17.6 81.7,6.5 78.1,17.6 66.5,17.5 75.9,24.4 72.3,35.4 81.7,28.5 91.1,35.4 
			87.5,24.4 		"/>
		<polygon class="st11" points="96.7,17.6 85.2,17.6 81.7,6.7 78.2,17.6 66.7,17.6 76,24.3 72.4,35.3 81.7,28.5 91,35.3 87.4,24.3 
					"/>
		<polygon class="st12" points="96.5,17.6 85.2,17.7 81.7,6.8 78.2,17.7 66.8,17.6 76,24.3 72.5,35.1 81.7,28.4 90.9,35.1 
			87.3,24.3 		"/>
		<polygon class="st13" points="96.4,17.7 85.1,17.7 81.7,7 78.2,17.7 67,17.7 76.1,24.3 72.6,35 81.7,28.4 90.8,35 87.3,24.3 		"/>
		<polygon class="st14" points="96.2,17.7 85.1,17.8 81.7,7.2 78.3,17.8 67.1,17.7 76.1,24.3 72.7,34.9 81.7,28.3 90.7,34.9 
			87.2,24.3 		"/>
		<polygon class="st15" points="96.1,17.8 85.1,17.8 81.7,7.3 78.3,17.8 67.3,17.8 76.2,24.3 72.8,34.7 81.7,28.2 90.6,34.7 
			87.2,24.3 		"/>
		<polygon class="st16" points="95.9,17.8 85,17.9 81.7,7.5 78.3,17.9 67.4,17.8 76.3,24.2 72.9,34.6 81.7,28.2 90.5,34.6 
			87.1,24.2 		"/>
		<polygon class="st17" points="95.8,17.9 85,17.9 81.7,7.7 78.4,17.9 67.6,17.9 76.3,24.2 73,34.5 81.7,28.1 90.4,34.5 87,24.2 		
			"/>
		<polygon class="st18" points="95.6,17.9 85,18 81.7,7.8 78.4,18 67.7,17.9 76.4,24.2 73.1,34.3 81.7,28.1 90.3,34.3 87,24.2 		"/>
		<polygon class="st19" points="95.5,18 84.9,18 81.7,8 78.4,18 67.9,18 76.4,24.2 73.2,34.2 81.7,28 90.2,34.2 86.9,24.2 		"/>
		<polygon class="st20" points="95.3,18 84.9,18.1 81.7,8.1 78.5,18.1 68.1,18 76.5,24.2 73.3,34.1 81.7,27.9 90.1,34.1 86.9,24.2 
					"/>
		<polygon class="st21" points="95.2,18.1 84.8,18.1 81.7,8.3 78.5,18.1 68.2,18.1 76.6,24.1 73.4,33.9 81.7,27.9 90,33.9 
			86.8,24.1 		"/>
		<polygon class="st22" points="95,18.1 84.8,18.2 81.7,8.5 78.6,18.2 68.4,18.1 76.6,24.1 73.4,33.8 81.7,27.8 89.9,33.8 
			86.7,24.1 		"/>
		<polygon class="st23" points="94.8,18.2 84.8,18.2 81.7,8.6 78.6,18.2 68.5,18.2 76.7,24.1 73.5,33.7 81.7,27.7 89.8,33.7 
			86.7,24.1 		"/>
		<polygon class="st24" points="94.7,18.3 84.7,18.3 81.7,8.8 78.6,18.3 68.7,18.3 76.7,24.1 73.6,33.5 81.7,27.7 89.7,33.5 
			86.6,24.1 		"/>
		<polygon class="st25" points="94.5,18.3 84.7,18.3 81.7,9 78.7,18.3 68.8,18.3 76.8,24.1 73.7,33.4 81.7,27.6 89.6,33.4 
			86.6,24.1 		"/>
		<polygon class="st26" points="94.4,18.4 84.7,18.4 81.7,9.1 78.7,18.4 69,18.4 76.9,24 73.8,33.3 81.7,27.6 89.5,33.3 86.5,24 		
			"/>
		<polygon class="st27" points="94.2,18.4 84.6,18.4 81.7,9.3 78.7,18.4 69.1,18.4 76.9,24 73.9,33.2 81.7,27.5 89.4,33.2 86.5,24 
					"/>
		<polygon class="st28" points="94.1,18.5 84.6,18.5 81.7,9.4 78.8,18.5 69.3,18.5 77,24 74,33 81.7,27.4 89.3,33 86.4,24 		"/>
		<polygon class="st29" points="93.9,18.5 84.6,18.5 81.7,9.6 78.8,18.5 69.4,18.5 77,24 74.1,32.9 81.7,27.4 89.2,32.9 86.3,24 		
			"/>
		<polygon class="st30" points="93.8,18.6 84.5,18.6 81.7,9.8 78.8,18.6 69.6,18.6 77.1,24 74.2,32.8 81.7,27.3 89.2,32.8 86.3,24 
					"/>
		<polygon class="st31" points="93.6,18.6 84.5,18.6 81.7,9.9 78.9,18.6 69.8,18.6 77.1,24 74.3,32.6 81.7,27.2 89.1,32.6 86.2,24 
					"/>
		<polygon class="st32" points="93.5,18.7 84.4,18.7 81.7,10.1 78.9,18.7 69.9,18.7 77.2,23.9 74.4,32.5 81.7,27.2 89,32.5 
			86.2,23.9 		"/>
		<polygon class="st33" points="93.3,18.7 84.4,18.7 81.7,10.3 79,18.7 70.1,18.7 77.3,23.9 74.5,32.4 81.7,27.1 88.9,32.4 
			86.1,23.9 		"/>
		<polygon class="st34" points="93.1,18.8 84.4,18.8 81.7,10.4 79,18.8 70.2,18.8 77.3,23.9 74.6,32.2 81.7,27.1 88.8,32.2 86,23.9 
					"/>
		<polygon class="st35" points="93,18.8 84.3,18.8 81.7,10.6 79,18.8 70.4,18.8 77.4,23.9 74.7,32.1 81.7,27 88.7,32.1 86,23.9 		
			"/>
		<polygon class="st36" points="92.8,18.9 84.3,18.9 81.7,10.7 79.1,18.9 70.5,18.9 77.4,23.9 74.8,32 81.7,26.9 88.6,32 85.9,23.9 
					"/>
		<polygon class="st37" points="92.7,18.9 84.3,18.9 81.7,10.9 79.1,18.9 70.7,18.9 77.5,23.8 74.9,31.8 81.7,26.9 88.5,31.8 
			85.9,23.8 		"/>
		<polygon class="st38" points="92.5,19 84.2,19 81.7,11.1 79.1,19 70.8,19 77.6,23.8 75,31.7 81.7,26.8 88.4,31.7 85.8,23.8 		"/>
		<polygon class="st39" points="92.4,19 84.2,19 81.7,11.2 79.2,19 71,19 77.6,23.8 75.1,31.6 81.7,26.8 88.3,31.6 85.7,23.8 		"/>
		<polygon class="st40" points="92.2,19.1 84.2,19.1 81.7,11.4 79.2,19.1 71.1,19.1 77.7,23.8 75.2,31.4 81.7,26.7 88.2,31.4 
			85.7,23.8 		"/>
		<polygon class="st41" points="92.1,19.1 84.1,19.1 81.7,11.6 79.2,19.1 71.3,19.1 77.7,23.8 75.3,31.3 81.7,26.6 88.1,31.3 
			85.6,23.8 		"/>
		<polygon class="st42" points="91.9,19.2 84.1,19.2 81.7,11.7 79.3,19.2 71.5,19.2 77.8,23.7 75.4,31.2 81.7,26.6 88,31.2 
			85.6,23.7 		"/>
		<polygon class="st43" points="91.8,19.2 84.1,19.2 81.7,11.9 79.3,19.2 71.6,19.2 77.8,23.7 75.5,31.1 81.7,26.5 87.9,31.1 
			85.5,23.7 		"/>
		<polygon class="st44" points="91.6,19.3 84,19.3 81.7,12 79.3,19.3 71.8,19.3 77.9,23.7 75.6,30.9 81.7,26.4 87.8,30.9 85.5,23.7 
					"/>
		<polygon class="st44" points="91.4,19.3 84,19.3 81.7,12.2 79.4,19.3 71.9,19.3 78,23.7 75.6,30.8 81.7,26.4 87.7,30.8 85.4,23.7 
					"/>
		<polygon class="st45" points="91.3,19.4 83.9,19.4 81.7,12.4 79.4,19.4 72.1,19.4 78,23.7 75.7,30.7 81.7,26.3 87.6,30.7 
			85.3,23.7 		"/>
		<polygon class="st46" points="91.1,19.4 83.9,19.4 81.7,12.5 79.5,19.4 72.2,19.4 78.1,23.6 75.8,30.5 81.7,26.3 87.5,30.5 
			85.3,23.6 		"/>
		<polygon class="st47" points="91,19.5 83.9,19.5 81.7,12.7 79.5,19.5 72.4,19.5 78.1,23.6 75.9,30.4 81.7,26.2 87.4,30.4 
			85.2,23.6 		"/>
		<polygon class="st48" points="90.8,19.5 83.8,19.5 81.7,12.9 79.5,19.5 72.5,19.5 78.2,23.6 76,30.3 81.7,26.1 87.3,30.3 
			85.2,23.6 		"/>
		<polygon class="st49" points="90.7,19.6 83.8,19.6 81.7,13 79.6,19.6 72.7,19.6 78.3,23.6 76.1,30.1 81.7,26.1 87.2,30.1 
			85.1,23.6 		"/>
		<polygon class="st50" points="90.5,19.6 83.8,19.6 81.7,13.2 79.6,19.6 72.8,19.6 78.3,23.6 76.2,30 81.7,26 87.1,30 85,23.6 		
			"/>
		<polygon class="st51" points="90.4,19.7 83.7,19.7 81.7,13.3 79.6,19.7 73,19.7 78.4,23.6 76.3,29.9 81.7,26 87,29.9 85,23.6 		
			"/>
		<polygon class="st52" points="90.2,19.7 83.7,19.7 81.7,13.5 79.7,19.7 73.2,19.7 78.4,23.5 76.4,29.7 81.7,25.9 87,29.7 
			84.9,23.5 		"/>
		<polygon class="st53" points="90.1,19.8 83.7,19.8 81.7,13.7 79.7,19.8 73.3,19.8 78.5,23.5 76.5,29.6 81.7,25.8 86.9,29.6 
			84.9,23.5 		"/>
		<polygon class="st54" points="89.9,19.8 83.6,19.8 81.7,13.8 79.7,19.8 73.5,19.8 78.6,23.5 76.6,29.5 81.7,25.8 86.8,29.5 
			84.8,23.5 		"/>
		<polygon class="st55" points="89.7,19.9 83.6,19.9 81.7,14 79.8,19.9 73.6,19.9 78.6,23.5 76.7,29.3 81.7,25.7 86.7,29.3 
			84.8,23.5 		"/>
		<polygon class="st56" points="89.6,19.9 83.5,19.9 81.7,14.2 79.8,19.9 73.8,19.9 78.7,23.5 76.8,29.2 81.7,25.6 86.6,29.2 
			84.7,23.5 		"/>
		<polygon class="st57" points="89.4,20 83.5,20 81.7,14.3 79.9,20 73.9,20 78.7,23.4 76.9,29.1 81.7,25.6 86.5,29.1 84.6,23.4 		
			"/>
		<polygon class="st58" points="89.3,20 83.5,20 81.7,14.5 79.9,20 74.1,20 78.8,23.4 77,28.9 81.7,25.5 86.4,28.9 84.6,23.4 		"/>
		<polygon class="st59" points="89.1,20.1 83.4,20.1 81.7,14.6 79.9,20.1 74.2,20.1 78.8,23.4 77.1,28.8 81.7,25.5 86.3,28.8 
			84.5,23.4 		"/>
		<polygon class="st60" points="89,20.1 83.4,20.1 81.7,14.8 80,20.1 74.4,20.1 78.9,23.4 77.2,28.7 81.7,25.4 86.2,28.7 84.5,23.4 
					"/>
		<polygon class="st61" points="88.8,20.2 83.4,20.2 81.7,15 80,20.2 74.5,20.2 79,23.4 77.3,28.6 81.7,25.3 86.1,28.6 84.4,23.4 		
			"/>
		<polygon class="st62" points="88.7,20.2 83.3,20.2 81.7,15.1 80,20.2 74.7,20.2 79,23.3 77.4,28.4 81.7,25.3 86,28.4 84.3,23.3 		
			"/>
		<polygon class="st63" points="88.5,20.3 83.3,20.3 81.7,15.3 80.1,20.3 74.9,20.3 79.1,23.3 77.5,28.3 81.7,25.2 85.9,28.3 
			84.3,23.3 		"/>
		<polygon class="st64" points="88.4,20.3 83.3,20.3 81.7,15.5 80.1,20.3 75,20.3 79.1,23.3 77.6,28.2 81.7,25.1 85.8,28.2 
			84.2,23.3 		"/>
		<polygon class="st65" points="88.2,20.4 83.2,20.4 81.7,15.6 80.1,20.4 75.2,20.4 79.2,23.3 77.7,28 81.7,25.1 85.7,28 84.2,23.3 
					"/>
		<polygon class="st66" points="88,20.4 83.2,20.4 81.7,15.8 80.2,20.4 75.3,20.4 79.3,23.3 77.7,27.9 81.7,25 85.6,27.9 84.1,23.3 
					"/>
		<polygon class="st67" points="87.9,20.5 83.1,20.5 81.7,15.9 80.2,20.5 75.5,20.5 79.3,23.2 77.8,27.8 81.7,25 85.5,27.8 84,23.2 
					"/>
		<polygon class="st68" points="87.7,20.5 83.1,20.5 81.7,16.1 80.3,20.5 75.6,20.5 79.4,23.2 77.9,27.6 81.7,24.9 85.4,27.6 
			84,23.2 		"/>
		<polygon class="st69" points="87.6,20.6 83.1,20.6 81.7,16.3 80.3,20.6 75.8,20.6 79.4,23.2 78,27.5 81.7,24.8 85.3,27.5 
			83.9,23.2 		"/>
		<polygon class="st70" points="87.4,20.6 83,20.6 81.7,16.4 80.3,20.6 75.9,20.6 79.5,23.2 78.1,27.4 81.7,24.8 85.2,27.4 
			83.9,23.2 		"/>
		<polygon class="st71" points="87.3,20.7 83,20.7 81.7,16.6 80.4,20.7 76.1,20.7 79.6,23.2 78.2,27.2 81.7,24.7 85.1,27.2 
			83.8,23.2 		"/>
		<polygon class="st72" points="87.1,20.7 83,20.7 81.7,16.8 80.4,20.7 76.2,20.7 79.6,23.2 78.3,27.1 81.7,24.7 85,27.1 83.8,23.2 
					"/>
		<polygon class="st73" points="87,20.8 82.9,20.8 81.7,16.9 80.4,20.8 76.4,20.8 79.7,23.1 78.4,27 81.7,24.6 84.9,27 83.7,23.1 		
			"/>
		<polygon class="st74" points="86.8,20.8 82.9,20.8 81.7,17.1 80.5,20.8 76.6,20.8 79.7,23.1 78.5,26.8 81.7,24.5 84.9,26.8 
			83.6,23.1 		"/>
		<polygon class="st75" points="86.7,20.9 82.9,20.9 81.7,17.2 80.5,20.9 76.7,20.9 79.8,23.1 78.6,26.7 81.7,24.5 84.8,26.7 
			83.6,23.1 		"/>
		<polygon class="st76" points="86.5,20.9 82.8,20.9 81.7,17.4 80.5,20.9 76.9,20.9 79.8,23.1 78.7,26.6 81.7,24.4 84.7,26.6 
			83.5,23.1 		"/>
		<polygon class="st77" points="86.3,21 82.8,21 81.7,17.6 80.6,21 77,21 79.9,23.1 78.8,26.4 81.7,24.3 84.6,26.4 83.5,23.1 		"/>
		<polygon class="st78" points="86.2,21 82.7,21 81.7,17.7 80.6,21 77.2,21 80,23 78.9,26.3 81.7,24.3 84.5,26.3 83.4,23 		"/>
		<polygon class="st79" points="86,21.1 82.7,21.1 81.7,17.9 80.7,21.1 77.3,21.1 80,23 79,26.2 81.7,24.2 84.4,26.2 83.3,23 		"/>
		<polygon class="st80" points="85.9,21.1 82.7,21.1 81.7,18.1 80.7,21.1 77.5,21.1 80.1,23 79.1,26.1 81.7,24.2 84.3,26.1 83.3,23 
					"/>
		<polygon class="st81" points="85.4,21.3 82.6,21.3 81.7,18.6 80.8,21.3 78,21.3 80.3,22.9 79.4,25.6 81.7,24 84,25.6 83.1,22.9 		
			"/>
		<polygon class="st82" points="84.9,21.4 82.4,21.4 81.7,19.1 80.9,21.4 78.5,21.4 80.5,22.9 79.7,25.2 81.7,23.8 83.7,25.2 
			82.9,22.9 		"/>
		<polygon class="st83" points="84.4,21.6 82.3,21.6 81.7,19.6 81,21.6 79,21.6 80.7,22.8 80,24.8 81.7,23.6 83.3,24.8 82.7,22.8 		
			"/>
		<polygon class="st84" points="83.9,21.8 82.2,21.8 81.7,20.2 81.2,21.8 79.5,21.8 80.8,22.8 80.3,24.3 81.7,23.4 83,24.3 
			82.5,22.8 		"/>
		<polygon class="st85" points="83.4,21.9 82.1,21.9 81.7,20.7 81.3,21.9 80,21.9 81,22.7 80.6,23.9 81.7,23.2 82.7,23.9 82.3,22.7 
					"/>
		<polygon class="st86" points="82.9,22.1 82,22.1 81.7,21.2 81.4,22.1 80.5,22.1 81.2,22.6 80.9,23.5 81.7,23 82.4,23.5 82.1,22.6 
					"/>
		<polygon class="st87" points="82.4,22.3 81.8,22.3 81.7,21.8 81.5,22.3 81,22.3 81.4,22.6 81.3,23.1 81.7,22.8 82.1,23.1 
			81.9,22.6 		"/>
		<polygon class="st88" points="81.9,22.4 81.7,22.4 81.7,22.3 81.6,22.4 81.5,22.4 81.6,22.5 81.6,22.6 81.7,22.6 81.8,22.6 
			81.8,22.5 		"/>
	</g>
	<g>
		<polygon class="st7" points="102.7,17.4 114.6,17.4 118.3,6 122,17.4 134,17.4 124.3,24.4 128,35.8 118.3,28.7 108.7,35.8 
			112.4,24.4 		"/>
		<polygon class="st8" points="102.8,17.4 114.7,17.5 118.3,6.2 122,17.5 133.8,17.4 124.2,24.4 127.9,35.7 118.3,28.7 108.7,35.7 
			112.4,24.4 		"/>
		<polygon class="st9" points="103,17.5 114.7,17.5 118.3,6.4 121.9,17.5 133.6,17.5 124.1,24.4 127.8,35.5 118.3,28.6 108.8,35.5 
			112.5,24.4 		"/>
		<polygon class="st10" points="103.1,17.5 114.8,17.6 118.3,6.5 121.9,17.6 133.5,17.5 124.1,24.4 127.7,35.4 118.3,28.5 
			108.9,35.4 112.6,24.4 		"/>
		<polygon class="st11" points="103.3,17.6 114.8,17.6 118.3,6.7 121.8,17.6 133.3,17.6 124,24.3 127.6,35.3 118.3,28.5 109,35.3 
			112.6,24.3 		"/>
		<polygon class="st12" points="103.5,17.6 114.8,17.7 118.3,6.8 121.8,17.7 133.2,17.6 124,24.3 127.5,35.1 118.3,28.4 109.1,35.1 
			112.7,24.3 		"/>
		<polygon class="st13" points="103.6,17.7 114.9,17.7 118.3,7 121.8,17.7 133,17.7 123.9,24.3 127.4,35 118.3,28.4 109.2,35 
			112.7,24.3 		"/>
		<polygon class="st14" points="103.8,17.7 114.9,17.8 118.3,7.2 121.7,17.8 132.9,17.7 123.9,24.3 127.3,34.9 118.3,28.3 
			109.3,34.9 112.8,24.3 		"/>
		<polygon class="st15" points="103.9,17.8 114.9,17.8 118.3,7.3 121.7,17.8 132.7,17.8 123.8,24.3 127.2,34.7 118.3,28.2 
			109.4,34.7 112.8,24.3 		"/>
		<polygon class="st16" points="104.1,17.8 115,17.9 118.3,7.5 121.7,17.9 132.6,17.8 123.7,24.2 127.1,34.6 118.3,28.2 109.5,34.6 
			112.9,24.2 		"/>
		<polygon class="st17" points="104.2,17.9 115,17.9 118.3,7.7 121.6,17.9 132.4,17.9 123.7,24.2 127,34.5 118.3,28.1 109.6,34.5 
			113,24.2 		"/>
		<polygon class="st18" points="104.4,17.9 115,18 118.3,7.8 121.6,18 132.3,17.9 123.6,24.2 126.9,34.3 118.3,28.1 109.7,34.3 
			113,24.2 		"/>
		<polygon class="st19" points="104.5,18 115.1,18 118.3,8 121.6,18 132.1,18 123.6,24.2 126.8,34.2 118.3,28 109.8,34.2 
			113.1,24.2 		"/>
		<polygon class="st20" points="104.7,18 115.1,18.1 118.3,8.1 121.5,18.1 131.9,18 123.5,24.2 126.7,34.1 118.3,27.9 109.9,34.1 
			113.1,24.2 		"/>
		<polygon class="st21" points="104.8,18.1 115.2,18.1 118.3,8.3 121.5,18.1 131.8,18.1 123.4,24.1 126.6,33.9 118.3,27.9 110,33.9 
			113.2,24.1 		"/>
		<polygon class="st22" points="105,18.1 115.2,18.2 118.3,8.5 121.4,18.2 131.6,18.1 123.4,24.1 126.6,33.8 118.3,27.8 110.1,33.8 
			113.3,24.1 		"/>
		<polygon class="st23" points="105.2,18.2 115.2,18.2 118.3,8.6 121.4,18.2 131.5,18.2 123.3,24.1 126.5,33.7 118.3,27.7 
			110.2,33.7 113.3,24.1 		"/>
		<polygon class="st24" points="105.3,18.3 115.3,18.3 118.3,8.8 121.4,18.3 131.3,18.3 123.3,24.1 126.4,33.5 118.3,27.7 
			110.3,33.5 113.4,24.1 		"/>
		<polygon class="st25" points="105.5,18.3 115.3,18.3 118.3,9 121.3,18.3 131.2,18.3 123.2,24.1 126.3,33.4 118.3,27.6 110.4,33.4 
			113.4,24.1 		"/>
		<polygon class="st26" points="105.6,18.4 115.3,18.4 118.3,9.1 121.3,18.4 131,18.4 123.1,24 126.2,33.3 118.3,27.6 110.5,33.3 
			113.5,24 		"/>
		<polygon class="st27" points="105.8,18.4 115.4,18.4 118.3,9.3 121.3,18.4 130.9,18.4 123.1,24 126.1,33.2 118.3,27.5 110.6,33.2 
			113.5,24 		"/>
		<polygon class="st28" points="105.9,18.5 115.4,18.5 118.3,9.4 121.2,18.5 130.7,18.5 123,24 126,33 118.3,27.4 110.7,33 
			113.6,24 		"/>
		<polygon class="st29" points="106.1,18.5 115.4,18.5 118.3,9.6 121.2,18.5 130.6,18.5 123,24 125.9,32.9 118.3,27.4 110.8,32.9 
			113.7,24 		"/>
		<polygon class="st30" points="106.2,18.6 115.5,18.6 118.3,9.8 121.2,18.6 130.4,18.6 122.9,24 125.8,32.8 118.3,27.3 110.9,32.8 
			113.7,24 		"/>
		<polygon class="st31" points="106.4,18.6 115.5,18.6 118.3,9.9 121.1,18.6 130.2,18.6 122.9,24 125.7,32.6 118.3,27.2 110.9,32.6 
			113.8,24 		"/>
		<polygon class="st32" points="106.5,18.7 115.6,18.7 118.3,10.1 121.1,18.7 130.1,18.7 122.8,23.9 125.6,32.5 118.3,27.2 
			111,32.5 113.8,23.9 		"/>
		<polygon class="st33" points="106.7,18.7 115.6,18.7 118.3,10.3 121.1,18.7 129.9,18.7 122.7,23.9 125.5,32.4 118.3,27.1 
			111.1,32.4 113.9,23.9 		"/>
		<polygon class="st34" points="106.9,18.8 115.6,18.8 118.3,10.4 121,18.8 129.8,18.8 122.7,23.9 125.4,32.2 118.3,27.1 
			111.2,32.2 114,23.9 		"/>
		<polygon class="st35" points="107,18.8 115.7,18.8 118.3,10.6 121,18.8 129.6,18.8 122.6,23.9 125.3,32.1 118.3,27 111.3,32.1 
			114,23.9 		"/>
		<polygon class="st36" points="107.2,18.9 115.7,18.9 118.3,10.7 120.9,18.9 129.5,18.9 122.6,23.9 125.2,32 118.3,26.9 111.4,32 
			114.1,23.9 		"/>
		<polygon class="st37" points="107.3,18.9 115.7,18.9 118.3,10.9 120.9,18.9 129.3,18.9 122.5,23.8 125.1,31.8 118.3,26.9 
			111.5,31.8 114.1,23.8 		"/>
		<polygon class="st38" points="107.5,19 115.8,19 118.3,11.1 120.9,19 129.2,19 122.4,23.8 125,31.7 118.3,26.8 111.6,31.7 
			114.2,23.8 		"/>
		<polygon class="st39" points="107.6,19 115.8,19 118.3,11.2 120.8,19 129,19 122.4,23.8 124.9,31.6 118.3,26.8 111.7,31.6 
			114.3,23.8 		"/>
		<polygon class="st40" points="107.8,19.1 115.8,19.1 118.3,11.4 120.8,19.1 128.9,19.1 122.3,23.8 124.8,31.4 118.3,26.7 
			111.8,31.4 114.3,23.8 		"/>
		<polygon class="st41" points="107.9,19.1 115.9,19.1 118.3,11.6 120.8,19.1 128.7,19.1 122.3,23.8 124.7,31.3 118.3,26.6 
			111.9,31.3 114.4,23.8 		"/>
		<polygon class="st42" points="108.1,19.2 115.9,19.2 118.3,11.7 120.7,19.2 128.5,19.2 122.2,23.7 124.6,31.2 118.3,26.6 
			112,31.2 114.4,23.7 		"/>
		<polygon class="st43" points="108.2,19.2 115.9,19.2 118.3,11.9 120.7,19.2 128.4,19.2 122.2,23.7 124.5,31.1 118.3,26.5 
			112.1,31.1 114.5,23.7 		"/>
		<polygon class="st44" points="108.4,19.3 116,19.3 118.3,12 120.7,19.3 128.2,19.3 122.1,23.7 124.4,30.9 118.3,26.4 112.2,30.9 
			114.5,23.7 		"/>
		<polygon class="st44" points="108.6,19.3 116,19.3 118.3,12.2 120.6,19.3 128.1,19.3 122,23.7 124.4,30.8 118.3,26.4 112.3,30.8 
			114.6,23.7 		"/>
		<polygon class="st45" points="108.7,19.4 116.1,19.4 118.3,12.4 120.6,19.4 127.9,19.4 122,23.7 124.3,30.7 118.3,26.3 
			112.4,30.7 114.7,23.7 		"/>
		<polygon class="st46" points="108.9,19.4 116.1,19.4 118.3,12.5 120.5,19.4 127.8,19.4 121.9,23.6 124.2,30.5 118.3,26.3 
			112.5,30.5 114.7,23.6 		"/>
		<polygon class="st47" points="109,19.5 116.1,19.5 118.3,12.7 120.5,19.5 127.6,19.5 121.9,23.6 124.1,30.4 118.3,26.2 
			112.6,30.4 114.8,23.6 		"/>
		<polygon class="st48" points="109.2,19.5 116.2,19.5 118.3,12.9 120.5,19.5 127.5,19.5 121.8,23.6 124,30.3 118.3,26.1 
			112.7,30.3 114.8,23.6 		"/>
		<polygon class="st49" points="109.3,19.6 116.2,19.6 118.3,13 120.4,19.6 127.3,19.6 121.7,23.6 123.9,30.1 118.3,26.1 
			112.8,30.1 114.9,23.6 		"/>
		<polygon class="st50" points="109.5,19.6 116.2,19.6 118.3,13.2 120.4,19.6 127.2,19.6 121.7,23.6 123.8,30 118.3,26 112.9,30 
			115,23.6 		"/>
		<polygon class="st51" points="109.6,19.7 116.3,19.7 118.3,13.3 120.4,19.7 127,19.7 121.6,23.6 123.7,29.9 118.3,26 113,29.9 
			115,23.6 		"/>
		<polygon class="st52" points="109.8,19.7 116.3,19.7 118.3,13.5 120.3,19.7 126.8,19.7 121.6,23.5 123.6,29.7 118.3,25.9 
			113,29.7 115.1,23.5 		"/>
		<polygon class="st53" points="109.9,19.8 116.3,19.8 118.3,13.7 120.3,19.8 126.7,19.8 121.5,23.5 123.5,29.6 118.3,25.8 
			113.1,29.6 115.1,23.5 		"/>
		<polygon class="st54" points="110.1,19.8 116.4,19.8 118.3,13.8 120.3,19.8 126.5,19.8 121.4,23.5 123.4,29.5 118.3,25.8 
			113.2,29.5 115.2,23.5 		"/>
		<polygon class="st55" points="110.3,19.9 116.4,19.9 118.3,14 120.2,19.9 126.4,19.9 121.4,23.5 123.3,29.3 118.3,25.7 
			113.3,29.3 115.2,23.5 		"/>
		<polygon class="st56" points="110.4,19.9 116.5,19.9 118.3,14.2 120.2,19.9 126.2,19.9 121.3,23.5 123.2,29.2 118.3,25.6 
			113.4,29.2 115.3,23.5 		"/>
		<polygon class="st57" points="110.6,20 116.5,20 118.3,14.3 120.1,20 126.1,20 121.3,23.4 123.1,29.1 118.3,25.6 113.5,29.1 
			115.4,23.4 		"/>
		<polygon class="st58" points="110.7,20 116.5,20 118.3,14.5 120.1,20 125.9,20 121.2,23.4 123,28.9 118.3,25.5 113.6,28.9 
			115.4,23.4 		"/>
		<polygon class="st59" points="110.9,20.1 116.6,20.1 118.3,14.6 120.1,20.1 125.8,20.1 121.2,23.4 122.9,28.8 118.3,25.5 
			113.7,28.8 115.5,23.4 		"/>
		<polygon class="st60" points="111,20.1 116.6,20.1 118.3,14.8 120,20.1 125.6,20.1 121.1,23.4 122.8,28.7 118.3,25.4 113.8,28.7 
			115.5,23.4 		"/>
		<polygon class="st61" points="111.2,20.2 116.6,20.2 118.3,15 120,20.2 125.5,20.2 121,23.4 122.7,28.6 118.3,25.3 113.9,28.6 
			115.6,23.4 		"/>
		<polygon class="st62" points="111.3,20.2 116.7,20.2 118.3,15.1 120,20.2 125.3,20.2 121,23.3 122.6,28.4 118.3,25.3 114,28.4 
			115.7,23.3 		"/>
		<polygon class="st63" points="111.5,20.3 116.7,20.3 118.3,15.3 119.9,20.3 125.1,20.3 120.9,23.3 122.5,28.3 118.3,25.2 
			114.1,28.3 115.7,23.3 		"/>
		<polygon class="st64" points="111.6,20.3 116.7,20.3 118.3,15.5 119.9,20.3 125,20.3 120.9,23.3 122.4,28.2 118.3,25.1 
			114.2,28.2 115.8,23.3 		"/>
		<polygon class="st65" points="111.8,20.4 116.8,20.4 118.3,15.6 119.9,20.4 124.8,20.4 120.8,23.3 122.3,28 118.3,25.1 114.3,28 
			115.8,23.3 		"/>
		<polygon class="st66" points="112,20.4 116.8,20.4 118.3,15.8 119.8,20.4 124.7,20.4 120.7,23.3 122.3,27.9 118.3,25 114.4,27.9 
			115.9,23.3 		"/>
		<polygon class="st67" points="112.1,20.5 116.9,20.5 118.3,15.9 119.8,20.5 124.5,20.5 120.7,23.2 122.2,27.8 118.3,25 
			114.5,27.8 116,23.2 		"/>
		<polygon class="st68" points="112.3,20.5 116.9,20.5 118.3,16.1 119.7,20.5 124.4,20.5 120.6,23.2 122.1,27.6 118.3,24.9 
			114.6,27.6 116,23.2 		"/>
		<polygon class="st69" points="112.4,20.6 116.9,20.6 118.3,16.3 119.7,20.6 124.2,20.6 120.6,23.2 122,27.5 118.3,24.8 
			114.7,27.5 116.1,23.2 		"/>
		<polygon class="st70" points="112.6,20.6 117,20.6 118.3,16.4 119.7,20.6 124.1,20.6 120.5,23.2 121.9,27.4 118.3,24.8 
			114.8,27.4 116.1,23.2 		"/>
		<polygon class="st71" points="112.7,20.7 117,20.7 118.3,16.6 119.6,20.7 123.9,20.7 120.4,23.2 121.8,27.2 118.3,24.7 
			114.9,27.2 116.2,23.2 		"/>
		<polygon class="st72" points="112.9,20.7 117,20.7 118.3,16.8 119.6,20.7 123.8,20.7 120.4,23.2 121.7,27.1 118.3,24.7 115,27.1 
			116.2,23.2 		"/>
		<polygon class="st73" points="113,20.8 117.1,20.8 118.3,16.9 119.6,20.8 123.6,20.8 120.3,23.1 121.6,27 118.3,24.6 115.1,27 
			116.3,23.1 		"/>
		<polygon class="st74" points="113.2,20.8 117.1,20.8 118.3,17.1 119.5,20.8 123.4,20.8 120.3,23.1 121.5,26.8 118.3,24.5 
			115.1,26.8 116.4,23.1 		"/>
		<polygon class="st75" points="113.3,20.9 117.1,20.9 118.3,17.2 119.5,20.9 123.3,20.9 120.2,23.1 121.4,26.7 118.3,24.5 
			115.2,26.7 116.4,23.1 		"/>
		<polygon class="st76" points="113.5,20.9 117.2,20.9 118.3,17.4 119.5,20.9 123.1,20.9 120.2,23.1 121.3,26.6 118.3,24.4 
			115.3,26.6 116.5,23.1 		"/>
		<polygon class="st77" points="113.7,21 117.2,21 118.3,17.6 119.4,21 123,21 120.1,23.1 121.2,26.4 118.3,24.3 115.4,26.4 
			116.5,23.1 		"/>
		<polygon class="st78" points="113.8,21 117.3,21 118.3,17.7 119.4,21 122.8,21 120,23 121.1,26.3 118.3,24.3 115.5,26.3 116.6,23 
					"/>
		<polygon class="st79" points="114,21.1 117.3,21.1 118.3,17.9 119.3,21.1 122.7,21.1 120,23 121,26.2 118.3,24.2 115.6,26.2 
			116.7,23 		"/>
		<polygon class="st80" points="114.1,21.1 117.3,21.1 118.3,18.1 119.3,21.1 122.5,21.1 119.9,23 120.9,26.1 118.3,24.2 
			115.7,26.1 116.7,23 		"/>
		<polygon class="st81" points="114.6,21.3 117.4,21.3 118.3,18.6 119.2,21.3 122,21.3 119.7,22.9 120.6,25.6 118.3,24 116,25.6 
			116.9,22.9 		"/>
		<polygon class="st82" points="115.1,21.4 117.6,21.4 118.3,19.1 119.1,21.4 121.5,21.4 119.5,22.9 120.3,25.2 118.3,23.8 
			116.3,25.2 117.1,22.9 		"/>
		<polygon class="st83" points="115.6,21.6 117.7,21.6 118.3,19.6 119,21.6 121,21.6 119.3,22.8 120,24.8 118.3,23.6 116.7,24.8 
			117.3,22.8 		"/>
		<polygon class="st84" points="116.1,21.8 117.8,21.8 118.3,20.2 118.8,21.8 120.5,21.8 119.2,22.8 119.7,24.3 118.3,23.4 
			117,24.3 117.5,22.8 		"/>
		<polygon class="st85" points="116.6,21.9 117.9,21.9 118.3,20.7 118.7,21.9 120,21.9 119,22.7 119.4,23.9 118.3,23.2 117.3,23.9 
			117.7,22.7 		"/>
		<polygon class="st86" points="117.1,22.1 118,22.1 118.3,21.2 118.6,22.1 119.5,22.1 118.8,22.6 119.1,23.5 118.3,23 117.6,23.5 
			117.9,22.6 		"/>
		<polygon class="st87" points="117.6,22.3 118.2,22.3 118.3,21.8 118.5,22.3 119,22.3 118.6,22.6 118.7,23.1 118.3,22.8 
			117.9,23.1 118.1,22.6 		"/>
		<polygon class="st88" points="118.1,22.4 118.3,22.4 118.3,22.3 118.4,22.4 118.5,22.4 118.4,22.5 118.4,22.6 118.3,22.6 
			118.2,22.6 118.2,22.5 		"/>
	</g>
</g>
</svg>
