<?xml version="1.0" encoding="utf-8"?>
<!-- Generator: Adobe Illustrator 21.1.0, SVG Export Plug-In . SVG Version: 6.00 Build 0)  -->
<svg version="1.1" id="Layer_1" xmlns="http://www.w3.org/2000/svg" xmlns:xlink="http://www.w3.org/1999/xlink" x="0px" y="0px"
	 viewBox="0 0 200 200" style="enable-background:new 0 0 200 200;" xml:space="preserve">
<style type="text/css">
	.st0{fill:#FFFFFF;}
	.st1{fill:#166AB3;}
	.st2{fill:#FFFFFF;stroke:#1B1918;stroke-width:0.216;}
	.st3{fill:#1B1918;}
	.st4{fill:none;}
	.st5{fill:none;stroke:#1B1918;stroke-width:0.216;}
	.st6{fill:#F6E209;}
	.st7{fill:#FEFCF5;}
	.st8{fill:#ECDF03;}
	.st9{fill:#1769B2;}
	.st10{fill:#EFE30A;}
	.st11{fill:#000200;}
	.st12{fill:#F8EE36;}
	.st13{fill:#166AB1;}
</style>
<g id="Layer1000">
	<g id="Layer1001">
		<path id="path2" d="M100,178.6l-0.5-0.3c-16-8.6-30.6-19.6-40.2-35.1c-7.9-12.8-12.1-27.4-12.2-42.4c-0.1-16,0-37.9,0.3-53.9
			c15-3.1,30-4.9,45.4-5.5c2.4-0.1,4.7-0.2,7.1-0.2c2.4,0,4.7,0.1,7.1,0.2c15.3,0.6,30.3,2.4,45.4,5.5c0.3,16,0.6,37.8,0.6,53.9
			c-0.1,15-4.3,29.6-12.2,42.4c-9.6,15.6-24.2,26.6-40.2,35.1L100,178.6z"/>
		<path id="path4" class="st0" d="M48.8,53.9c-0.3,15.6-0.5,31.2-0.4,46.8c0.1,14.8,4.2,29.1,12,41.7c9.5,15.4,23.9,26.2,39.7,34.6
			c15.7-8.4,30.2-19.3,39.7-34.6c7.8-12.6,11.9-26.9,12-41.7c0.1-15.6-0.1-31.2-0.4-46.8c-14.6-3-29.3-4.7-44.2-5.3
			c-2.4-0.1-4.7-0.2-7-0.2c-2.4,0-4.7,0.1-7.1,0.2C78.1,49.3,63.4,51,48.8,53.9L48.8,53.9z"/>
		<g id="Layer1002">
			<path id="path6" d="M150.6,54.5c-14.4-2.9-28.9-4.6-43.6-5.1c-2.3-0.1-4.7-0.2-7-0.2c-2.3,0-4.7,0.1-7,0.2
				c-14.6,0.6-29.2,2.3-43.6,5.1c-0.3,15.4-0.5,30.9-0.4,46.3c0.1,14.7,4.2,28.9,11.9,41.4c9.4,15.2,23.6,25.9,39.1,34.3
				c15.5-8.4,29.7-19.1,39.1-34.3c7.7-12.5,11.8-26.7,11.9-41.4C151.1,85.3,150.9,69.9,150.6,54.5L150.6,54.5z"/>
		</g>
		<path id="path9" class="st1" d="M117.3,117.8V109h2.7c0.5,0,0.9,0,1.4,0.1c0.4,0.1,0.7,0.2,1,0.4c0.3,0.2,0.5,0.5,0.7,0.8
			c0.2,0.4,0.2,0.7,0.2,1.1c0,0.5-0.1,0.9-0.3,1.3c-0.1,0.2-0.3,0.4-0.5,0.6c0.5,0.4,0.7,1.1,0.7,1.8v0c0,0.1,0,0.3,0,0.4
			c0,0.3,0,1.2,0.3,1.4l0.6,0.4V109l5.1,0v2.3l-2.4,0v0.8l2.4,0v2.4l-2.4,0v0.9l2.7,0v2.4l-5,0l0,0l-3.8,0l-0.1-0.3
			c-0.1-0.2-0.1-0.4-0.1-0.6c0-0.2,0-0.4,0-0.6c0-0.2,0-0.3,0-0.5c0-0.1,0-0.2,0-0.3c0-0.2,0-0.6-0.1-0.8c0,0-0.1-0.1-0.1-0.1
			c0,0-0.1,0-0.2,0h0v3.2L117.3,117.8z"/>
		<path id="path11" class="st1" d="M111.3,117.8V109l5.1,0v2.3l-2.4,0l0,0.7l2.5,0v2.4l-2.5,0l0,0.9l2.7,0v2.4L111.3,117.8z"/>
		<path id="path13" class="st1" d="M104.3,117.8V109h2.8v3h0.4v-3h2.8v8.7h-2.8v-3.3h-0.4v3.3H104.3z"/>
		<path id="path15" class="st1" d="M97.7,117.8V109h2.6v1.9l0.9-1.9h3.1l-2.4,4l2.2,4.8h-2.9l-0.8-2.2v2.2L97.7,117.8z"/>
		<path id="path17" class="st1" d="M90.8,117.8V109h2.8v3H94v-3h2.8v8.7H94v-3.3h-0.4v3.3H90.8z"/>
		<path id="path19" class="st1" d="M85.2,109.1c0.5-0.3,1.1-0.4,1.7-0.4c0.9,0,1.9,0.2,2.5,0.9c0.7,0.7,0.6,1.7,0.6,2.5v0.4l-2.8,0
			l0-0.4c0-0.2,0-0.9,0-1.1c-0.1-0.1-0.1-0.1-0.2-0.1c-0.1,0-0.2,0-0.3,0.1c-0.1,0.2,0,1.9,0,2.2v0.2c0,0.3,0,1.7,0.1,2
			c0.1,0.1,0.1,0.1,0.2,0.1c0,0,0.2,0,0.2,0l0,0c0.1-0.1,0-0.7,0-0.8c0-0.2,0-0.4,0-0.5l0-0.4l2.8,0l0,0.4l0,0.2l0,0.4
			c0,0.9,0.1,1.6-0.6,2.3c-0.7,0.7-1.6,0.8-2.5,0.8c-0.6,0-1.2-0.1-1.7-0.4c-0.4-0.2-0.7-0.5-1-0.9c-0.2-0.4-0.3-0.8-0.3-1.3
			c0-0.6,0-1.3,0-1.9l0-2.1c0-0.5,0.1-0.9,0.4-1.3C84.6,109.5,84.8,109.3,85.2,109.1L85.2,109.1z"/>
		<path id="path21" class="st1" d="M76.9,117.8l1.9-8.7h3l1.9,8.7H81l-0.2-1.5h-0.9l-0.2,1.5H76.9z"/>
		<path id="path23" class="st1" d="M70.9,111.4c0-0.7,0.2-1.4,0.8-1.9c0.5-0.5,1.3-0.8,2-0.8c0.8,0,1.5,0.3,2.1,0.8
			c0.5,0.5,0.8,1.3,0.8,2l0,0.2l0,0.1v0.4h-1.9l0.1,0.1c0.4,0.3,1.1,0.7,1.4,1.1c0.1,0.2,0.2,0.5,0.3,0.7c0.1,0.3,0.2,0.5,0.2,0.8
			c0,0.8-0.2,1.5-0.8,2.1c-0.6,0.5-1.3,0.8-2.1,0.8c-0.8,0-1.6-0.2-2.2-0.8c-0.6-0.5-0.7-1.4-0.7-2.1l0-0.2c0-0.1,0-0.2,0-0.2l0-0.4
			l2,0c-0.5-0.3-1.1-0.7-1.4-1.1c-0.2-0.2-0.3-0.5-0.4-0.7C71,112,70.9,111.8,70.9,111.4L70.9,111.4z"/>
		<path id="path25" class="st1" d="M57.7,119.8l42.2,0.1l42.2-0.1c-1.5,19.6-22.3,40.5-42.2,50.6h0
			C80.1,160.3,59.2,139.4,57.7,119.8L57.7,119.8z"/>
		<path id="path27" class="st1" d="M72.5,101.7c0-0.6,0-1.3,0-1.9l0-2.1c0-0.5,0.1-0.9,0.4-1.3c0.3-0.3,0.4-0.6,0.8-0.8
			c0.5-0.3,1.1-0.4,1.7-0.4c0.9,0,1.9,0.2,2.5,0.9c0.7,0.7,0.6,1.7,0.6,2.5V99l-2.8,0l0-0.4c0-0.2,0-0.9,0-1.1
			c-0.1-0.1-0.1-0.1-0.2-0.1c-0.1,0-0.2,0-0.3,0.1c-0.1,0.2,0,1.9,0,2.2v0.2c0,0.3,0,1.7,0.1,2c0.1,0.1,0.1,0.1,0.2,0.1
			c0,0,0.2,0,0.2,0l0,0c0.1-0.1,0-0.7,0-0.8c0-0.2,0-0.4,0-0.5l0-0.4l2.8,0l0,0.4l0,0.2l0,0.4c0,0.9,0.1,1.6-0.6,2.3
			c-0.7,0.7-1.6,0.8-2.5,0.8c-0.6,0-1.2-0.1-1.7-0.4c-0.4-0.2-0.7-0.5-1-0.9C72.5,102.5,72.4,102.1,72.5,101.7L72.5,101.7z"/>
		<path id="path29" class="st1" d="M68.6,104.3v-2.6h2.7v2.6H68.6z"/>
		<path id="path31" class="st1" d="M124.6,104.2v-8.7h2.7c0.5,0,0.9,0,1.4,0.1c0.4,0.1,0.7,0.2,1,0.4c0.3,0.2,0.5,0.5,0.7,0.8
			c0.2,0.4,0.2,0.7,0.2,1.1c0,0.5-0.1,0.9-0.3,1.3c-0.1,0.2-0.3,0.4-0.5,0.6c0.5,0.4,0.7,1.1,0.7,1.8v0c0,0.1,0,0.3,0,0.4
			c0,0.3,0,1.2,0.3,1.4l0.1,0.1l1.8-8.1h3l2,8.7h-2.8l-0.3-1.5h-1l-0.3,1.5h-2.7l0,0l-2.8,0L128,104c-0.1-0.2-0.1-0.4-0.1-0.6
			c0-0.2,0-0.4,0-0.6c0-0.2,0-0.3,0-0.5c0-0.1,0-0.2,0-0.3c0-0.2,0-0.6-0.1-0.8c0,0-0.1-0.1-0.1-0.1c0,0-0.1,0-0.2,0h0v3.2
			L124.6,104.2z"/>
		<path id="path33" class="st1" d="M117.8,102l0-1.9v-4.6l2.8,0v5.3c0,0.2,0,1,0,1.2c0,0.1,0.2,0.1,0.2,0.1c0.1,0,0.2,0,0.2-0.1
			c0.1-0.1,0-1,0-1.2v-5.3l2.7,0v5.4l0,1.3c0,0.3-0.1,0.6-0.2,0.9c-0.3,0.4-0.6,0.7-1.1,0.9c-0.5,0.2-1.1,0.3-1.7,0.3
			c-0.5,0-1.1-0.1-1.6-0.3c-0.4-0.2-0.8-0.5-1-0.9C117.9,102.8,117.8,102.4,117.8,102L117.8,102z"/>
		<path id="path35" class="st1" d="M111.1,104.3v-8.7h2.8v3h0.4v-3h2.8v8.7h-2.8v-3.3h-0.4v3.3H111.1z"/>
		<path id="path37" class="st1" d="M104.5,104.3v-8.7h2.6v1.9l0.9-1.9h3.1l-2.4,4l2.2,4.8h-2.9l-0.8-2.2v2.2H104.5z"/>
		<path id="path39" class="st1" d="M100.7,104.3v-8.7h2.7v8.7H100.7z"/>
		<path id="path41" class="st1" d="M93.8,104.3v-8.7h2.8v3H97v-3h2.8v8.7H97v-3.3h-0.4v3.3H93.8z"/>
		<path id="path43" class="st1" d="M88.3,103.8c-0.4-0.2-0.7-0.5-1-0.9c-0.2-0.4-0.3-0.8-0.3-1.3c0-0.6,0-1.3,0-1.9l0-2.1
			c0-0.5,0.1-0.9,0.4-1.3c0.3-0.3,0.4-0.6,0.8-0.8c0.5-0.3,1.1-0.4,1.7-0.4c0.9,0,1.9,0.2,2.5,0.9c0.7,0.7,0.6,1.7,0.6,2.5V99
			l-2.8,0l0-0.4c0-0.2,0-0.9,0-1.1c-0.1-0.1-0.1-0.1-0.2-0.1c-0.1,0-0.2,0-0.3,0.1c-0.1,0.2,0,1.9,0,2.2v0.2c0,0.3,0,1.7,0.1,2
			c0.1,0.1,0.1,0.1,0.2,0.1c0,0,0.2,0,0.2,0l0,0c0.1-0.1,0-0.7,0-0.8c0-0.2,0-0.4,0-0.5l0-0.4l2.8,0l0,0.4l0,0.2l0,0.4
			c0,0.9,0.1,1.6-0.6,2.3c-0.7,0.7-1.6,0.8-2.5,0.8C89.4,104.3,88.8,104.1,88.3,103.8L88.3,103.8z"/>
		<path id="path45" class="st1" d="M79.6,104.3v-2.6h2.7v2.6H79.6z"/>
		<path id="path47" class="st1" d="M150.5,48.6c-14.4-2.9-28.9-4.6-43.6-5.1c-2.3-0.1-4.7-0.2-7-0.2c-2.3,0-4.7,0.1-7,0.2
			c-14.6,0.6-29.2,2.3-43.6,5.1C49,64,48.9,85.3,49,100.8c0.1,14.7,4.2,28.9,11.9,41.4c9.4,15.2,23.6,25.9,39.1,34.3
			c15.5-8.4,29.7-19.1,39.1-34.3c7.7-12.5,11.8-26.7,11.9-41.4C151.1,85.3,150.7,64,150.5,48.6L150.5,48.6z"/>
		<path id="path49" class="st1" d="M145.1,93.5H53.9V54.8l1.1-0.2c15.1-2.8,30.5-3.9,45.9-3.7c14.4,0.2,28.9,1.5,43.2,3.7l1.1,0.2
			v34.7c0.4,0.8,0.7,1.7,0.9,2.8l0.1,1h-1V93.5z"/>
		<path id="path51" class="st1" d="M63.2,104.3v-8.7l5.3,0v2.3H66v0.7h2.3v2.4h-2.3v3.4L63.2,104.3z"/>
		<path id="path53" class="st2" d="M100,119.9c-14.1,0-28.2-0.1-42.2-0.1c1.5,19.6,22.3,40.5,42.2,50.6h0
			c19.9-10.1,40.7-31,42.2-50.6C128.1,119.8,114.1,119.9,100,119.9L100,119.9z"/>
		<path id="path55" class="st3" d="M56.1,70.6c0.3-0.1,0.6-0.2,0.9-0.3l0,7.1c0,0.2,0.1,0.4,0.4,0.4l0,0l2.3,0
			c0.2,0,0.4-0.2,0.4-0.4l0-11.2c0-0.2-0.2-0.4-0.4-0.4l-2,0l-0.1,0.2c-0.4,0.8-1.1,1.6-1.9,2.2l-0.1,0.1l0,2.5L56.1,70.6z"/>
		<path id="path57" class="st0" d="M54.9,54.6c15.1-2.8,30.5-3.9,45.9-3.7c14.4,0.2,28.9,1.5,43.2,3.7l1.1,0.2v38.7H53.9V54.8
			L54.9,54.6z"/>
		<path id="path59" class="st4" d="M65.9,74.9c0-0.7,0-1.4,0-2c-0.5,0-1,0-1.5,0c-1.5,0-2.8-1.2-2.8-2.7c0-0.6,0-1.1,0-1.7
			c0-1.5,1.3-2.7,2.8-2.7c0.7,0,1.4,0,2.1,0c1.5,0,2.8,1.2,2.8,2.7c0,0.6,0,1.1,0,1.7c0,1.7,0,3.5,0,5.2c0,1.1-1.3,2.3-2.3,2.4l0,0
			h0c-1,0-1.9,0-2.9,0c-1,0-2.4-1-2.4-2.1c0-0.6,0-1.2,0-1.8v-0.4H62c0.9,0,1.7,0,2.6,0h0.4v0.4c0,0.3,0,0.6,0,0.9
			c0,0.1,0.2,0.3,0.3,0.3c0.2,0,0.4,0,0.5,0C65.8,75.1,65.9,75,65.9,74.9L65.9,74.9z"/>
		<path id="path61" class="st5" d="M68.8,70.2c0-0.6,0-1.1,0-1.7c0-1.3-1.1-2.3-2.4-2.3c-0.7,0-1.4,0-2.1,0c-1.3,0-2.4,1-2.4,2.3
			c0,0.6,0,1.1,0,1.7c0,1.3,1.1,2.3,2.4,2.3c0.7,0,1.2,0,1.9,0c0,0.8,0,1.6,0,2.4c0,0.3-0.2,0.5-0.5,0.5c-0.3,0-0.3,0-0.5,0
			c-0.3,0-0.7-0.4-0.7-0.7c0-0.3,0-0.6,0-0.9c-0.8,0-1.8,0-2.6,0c0,0.6,0,1.2,0,1.8c0,0.7,1,1.7,2,1.7c1,0,1.9,0,2.9,0
			c0.8,0,2-1.1,2-2C68.8,73.7,68.8,71.9,68.8,70.2L68.8,70.2z"/>
		<path id="path63" class="st4" d="M96,52.2c-13.4,0.1-27.2,1.2-40.8,3.7v36.3l42.1,0v-40C96.8,52.2,96.4,52.2,96,52.2L96,52.2z"/>
		<path id="path65" class="st6" d="M103.3,52.3l0,39.9h-4.8v-40C99.7,52.2,102.1,52.2,103.3,52.3L103.3,52.3z"/>
		<path id="path67" class="st1" d="M111,52.5l0,39.7h-6.4l0-39.9C106.3,52.3,109.3,52.5,111,52.5L111,52.5z"/>
		<path id="path69" class="st6" d="M112.3,92.2l4.8,0V52.9c-1.6-0.1-3.2-0.2-4.8-0.3L112.3,92.2z"/>
		<path id="path71" class="st1" d="M132.1,92.2l0-37.9c2.2,0.3,4.3,0.5,6.4,0.8l0,37.1H132.1z"/>
		<path id="path73" class="st6" d="M126.1,92.2l0-38.6c1.6,0.2,3.2,0.3,4.8,0.5l0,38L126.1,92.2z"/>
		<path id="path75" class="st1" d="M118.3,92.2l0-39.2c2.2,0.2,4.3,0.3,6.4,0.5l0,38.7H118.3z"/>
		<path id="path77" class="st6" d="M139.8,92.2l0-36.9c1.3,0.2,2.7,0.4,4,0.6v36.3L139.8,92.2z"/>
		<g id="Layer1003">
			<path id="path79" class="st0" d="M109.9,80.7c0.1,0.2,0.5,0.4,0.7,0.3l0,0c0,0,0,0,0,0l0,0l0,0c0.2-0.3,0.3-0.8,0.4-1.2
				c0.2-0.8,0.8-0.9,1.5-0.9c1,0,1.9,0,2.9,0c0.6,0,1.1,0.3,1.4,0.7c0.2,0.2,0.9,1,1.2,0.9c0.1,0,0.1-0.2,0.2-0.2l0,0
				c0-0.1,0.1-0.2,0.1-0.3c0.1-0.2,0.2-0.4,0.3-0.5l0,0c0.5-0.6,1.3-1,2-0.6l0,0l0,0c0.1,0.1,0.2,0.2,0.3,0.2c0.5-0.5,0.9-1.3,1-2.1
				c0.2-1.9,0.5-3.8,0.7-5.7l0.1-0.8h0.8c1.8,0,3.7,0,5.5,0h0.8l0.1,0.8c0.4,3.2,1.7,11.7,4,13.8c0.9,0.8,2.1,1,3.2,1
				c4.5-0.2,8.1,1.3,8.7,6.1l0.1,1h-1c-1.1,0-2.1,0-3.2,0h-0.5l-0.3-0.4c-0.8-1-1.7-2.1-2.9-2.7c-1.7-0.7-3.4-0.1-4.9,0.8
				c-0.8,0.5-1.8,0.4-2.5-0.3l0,0l0,0c-4.5-4.6-4.1-10.7-4-16.6c-0.5,0-0.9,0-1.4,0c-0.1,2.6-0.3,6.2-1.6,8.1l0,0l0,0
				c-1,1.4-2.6,1.3-3.8,0.2l0,0l0,0c0,0,0,0,0,0c-1.4,1.3-2.7,1.3-4.2-0.2l0,0l0,0c-0.2-0.3-0.4-0.4-0.8-0.4c-0.6,0-1.2,0-1.8,0
				c-0.1,1.8-0.7,3.2-2.5,4l0,0l0,0c-1.5,0.6-3.3,0.3-4-1.4l0,0l0,0c-0.5-1.4-0.9-2.8-1.6-4.2c-0.3-0.6-0.4-0.6-1.1-0.8l0,0l0,0
				c-0.6-0.2-1.3-0.1-1.9-0.2c-0.6-0.1-1.2-0.2-1.7-0.6c-4.2-2.4-4.2-8.8-4.7-13.2c-0.2,0-0.4,0-0.7,0c0.1,2,0.1,4.1,0.1,6.1
				c0,3.3-0.1,6.6-0.5,9.8c-0.3,2.8-0.8,5.8-1.7,8.5l0,0c-0.5,1.4-2.2,1.8-3.6,1.4l0,0l0,0c-1.4-0.6-2.8-1.7-4-2.6
				c-0.7-0.5-1.3-1-2.1-1.4c-0.5-0.3-1.1-0.6-1.6-0.6c-1-0.1-1.8,0.9-2.4,1.6c-1,1.4-1.8,2.9-2.5,4.4l-0.2,0.5h-0.6c-1,0-2,0-3.1,0
				h-2.7l2.2-1.6c1.5-1.1,2.5-2.6,3.3-4.4c0.3-0.7,0.6-1.5,0.9-2.2c0.2-0.6,0.5-1.3,0.8-1.9c0.5-1.1,1.4-2.2,2.5-2.8
				c1.5-0.8,3.1-0.7,4.5,0.2c1.3,0.8,2.7,1.5,3.9,2.4l0,0l0,0c0.1,0,0.2,0.1,0.3,0.2c0.1-0.1,0.2-0.2,0.2-0.3
				c0.4-0.6,0.4-1.4,0.5-2.1c0.7-6.3,1.5-12.5,2.2-18.8l0.1-0.8h0.8c1.9,0,3.9,0,5.8,0h0.9l0,0.9c0,1.2,0.2,2.5,0.5,3.7
				c0.5,2.1,1.3,4.2,2.4,6.1c0.6,1.1,1.7,2.8,2.8,3.4c0.1,0.1,0.5,0.4,0.7,0.4c2,0.1,3.3,0.5,3.7,2.6
				C109.4,79,109.6,79.9,109.9,80.7L109.9,80.7z"/>
		</g>
		<path id="path82" class="st3" d="M73,92.2c3.7-2.7,4.2-6.9,5.2-8.9c0.8-1.7,2.9-3.9,5.7-2.2c1.3,0.8,2.6,1.5,3.9,2.4
			c0.8,0.6,1.3,0.4,1.8-0.3c0.5-0.7,0.6-1.7,0.7-2.5c0.7-6.3,1.5-12.5,2.2-18.8c1.9,0,3.9,0,5.8,0c0,5.9,3.7,12.5,6.1,14
			c0.3,0.2,0.7,0.5,1.1,0.5c1.8,0.1,2.6,0.4,2.9,1.9c0.3,0.9,0.5,1.7,0.7,2.6c0.2,0.6,0.9,1.1,1.7,1c0.4,0,0.6-0.2,0.8-0.5
			c0.2-0.4,0.3-0.9,0.5-1.3c0.1-0.4,0.4-0.3,0.6-0.3c1,0,1.9,0,2.9,0c0.3,0,0.5,0.1,0.7,0.4c1.3,1.5,2.2,1.5,2.8,0.6
			c0.1-0.2,0.2-0.5,0.3-0.7c0.2-0.3,0.6-0.5,0.9-0.3c0.4,0.2,0.8,0.8,1.4,0.1c0.7-0.7,1.1-1.7,1.2-2.6c0.2-1.9,0.5-3.8,0.7-5.7
			c1.8,0,3.7,0,5.5,0c0.5,4.9,2,12.3,4.3,14.4c1,0.8,2.2,1.2,3.8,1.2c4.4-0.2,7.2,1.3,7.8,5.3c-1.1,0-2.1,0-3.2,0
			c-1.6-2.2-4.1-5-9-2.1c-0.5,0.3-1.1,0.2-1.4-0.1c-4.5-4.6-3.8-10.9-3.7-16.9c-1.1,0-2.1,0-3.2,0c0,3-0.3,6.7-1.5,8.5
			c-0.7,1-1.7,0.8-2.5,0.1c-0.3-0.4-0.9-0.6-1.2-0.2c-0.9,0.9-1.8,1.3-3.1,0c-0.5-0.5-0.8-0.7-1.4-0.7c-0.7,0-1.4,0-2.1,0
			c-0.4,0-0.5,0.1-0.6,0.3c0,2-0.5,3.1-1.9,3.7c-0.9,0.3-2.3,0.4-2.8-0.9c-0.5-1.4-1-3-1.6-4.3c-0.4-0.9-0.8-1.1-1.7-1.3
			c-1.1-0.3-2.3-0.1-3.4-0.7c-4-2.3-3.7-8.8-4.3-13.4c-0.8,0-1.6,0-2.4,0c0.5,8.7,0.2,18.6-1.9,25c-0.3,0.8-1.3,1.2-2.4,0.8
			c-1.7-0.7-3.9-2.8-5.9-4c-1.7-1-3-1.4-5.1,1.2c-1,1.4-1.9,2.8-2.7,4.6C75,92.2,74,92.2,73,92.2L73,92.2z"/>
		<g id="Layer1004">
			<path id="path84" class="st3" d="M57.1,70.2c-0.3,0.2-0.6,0.3-0.9,0.3l-0.5,0.1l0-2.5l0.1-0.1c0.7-0.6,1.5-1.2,1.9-2l0.1-0.2l2,0
				c0.2,0,0.4,0.2,0.4,0.4l0,11.1c0,0.2-0.2,0.4-0.4,0.4l-2.3,0l0,0c-0.2,0-0.4-0.2-0.4-0.4L57.1,70.2z"/>
		</g>
		<path id="path87" class="st7" d="M58,66.2l1.7,0c0,0,0,0,0,0l0,11c0,0,0,0,0,0l-2.3,0c0,0,0,0,0,0l0-7.8c-0.4,0.3-0.9,0.6-1.4,0.7
			l0-1.8C56.8,67.7,57.6,67.1,58,66.2L58,66.2z"/>
		<path id="path89" class="st4" d="M65.2,68h0.3c0.4,0,0.8,0.4,0.8,0.8V70c0,0.4-0.4,0.8-0.8,0.8h-0.3c-0.4,0-0.8-0.4-0.8-0.8v-1.1
			C64.4,68.4,64.8,68,65.2,68z"/>
		<g id="Layer1005">
			<path id="path91" class="st4" d="M65.2,68.4c-0.2,0-0.4,0.2-0.4,0.4V70c0,0.2,0.2,0.4,0.4,0.4h0.3c0.2,0,0.4-0.2,0.4-0.4v-1.1
				c0-0.2-0.2-0.4-0.4-0.4H65.2z"/>
		</g>
		<path id="path94" class="st3" d="M64.8,68.8c0-0.2,0.2-0.4,0.4-0.4h0.3c0.2,0,0.4,0.2,0.4,0.4V70c0,0.2-0.2,0.4-0.4,0.4h-0.3
			c-0.2,0-0.4-0.2-0.4-0.4V68.8z M65.5,68h-0.3c-0.4,0-0.8,0.4-0.8,0.8V70c0,0.4,0.4,0.8,0.8,0.8h0.3c0.4,0,0.8-0.4,0.8-0.8v-1.1
			C66.3,68.4,66,68,65.5,68z"/>
		<path id="path96" class="st3" d="M62,68.5c0-1.3,1.1-2.3,2.4-2.3h2.1c1.3,0,2.4,1,2.4,2.3v1.7l0,5.2c0,0.9-1.2,1.9-2,2h-2.9
			c-0.9,0-2-0.9-2-1.7v-1.8h2.6v0.9c0,0.3,0.4,0.7,0.7,0.7h0.5c0.3,0,0.5-0.3,0.5-0.5v-2.4h-1.9c-1.3,0-2.4-1-2.4-2.3L62,68.5z
			 M64.4,65.8c-1.5,0-2.8,1.2-2.8,2.7v1.7c0,1.5,1.3,2.7,2.8,2.7h1.5v2c0,0.1-0.1,0.2-0.2,0.2h-0.5c-0.1,0-0.3-0.2-0.3-0.3v-0.9
			v-0.4h-0.4H62h-0.4v0.4v1.8c0,1.1,1.3,2.1,2.4,2.1h2.9h0l0,0c1,0,2.4-1.3,2.3-2.4l0-5.2v-1.7c0-1.5-1.3-2.7-2.8-2.7H64.4z"/>
		<path id="path98" class="st0" d="M64.4,66.2c-1.3,0-2.4,1-2.4,2.3v1.7c0,1.3,1.1,2.3,2.4,2.3h1.9V75c0,0.3-0.2,0.5-0.5,0.5h-0.5
			c-0.3,0-0.7-0.4-0.7-0.7v-0.9H62v1.8c0,0.7,1,1.7,2,1.7h2.9c0.8,0,2-1.1,2-2l0-5.2v-1.7c0-1.3-1.1-2.3-2.4-2.3L64.4,66.2z
			 M64.4,68.8c0-0.4,0.4-0.8,0.8-0.8h0.3c0.4,0,0.8,0.4,0.8,0.8V70c0,0.4-0.4,0.8-0.8,0.8h-0.3c-0.4,0-0.8-0.4-0.8-0.8V68.8z"/>
		<path id="path100" class="st8" d="M82,74.9c0,0.3,0.5,0.7,1,0.7c0.5,0,0.9-0.3,0.9-0.6c0-0.4,0-1.6,0-2.1c0-0.2-0.5-0.6-0.9-0.6
			c-0.4,0-1,0.2-1,0.5C82,73.2,82,74.9,82,74.9L82,74.9z"/>
		<path id="path102" class="st9" d="M82.2,69.9c0,0.4,0.4,0.7,0.8,0.7c0.5,0,0.7-0.4,0.8-0.6c0-0.4,0-0.9,0-1.3
			c0-0.2-0.3-0.6-0.7-0.6c-0.4,0-0.8,0.2-0.8,0.5C82.2,68.9,82.2,69.9,82.2,69.9L82.2,69.9z"/>
		<path id="path104" class="st9" d="M83.3,68.6c0-0.1-0.2-0.2-0.3-0.2c-0.1,0-0.4,0.1-0.4,0.1c0,0.4,0,0.9,0,1.3
			c0,0.2,0.2,0.3,0.4,0.3c0.1,0,0.3-0.1,0.4-0.2C83.3,69.5,83.3,69,83.3,68.6z"/>
		<g id="Layer1006">
			<path id="path106" d="M134.8,102.7h-1l-0.3,1.5h-2.7l2-8.7h3l2,8.7h-2.8L134.8,102.7z M134.1,100.5h0.3l-0.1-0.8L134.1,100.5z"/>
		</g>
		<path id="path109" class="st10" d="M131.4,103.9l1.8-8h2.3l1.9,8h-2l-0.3-1.5h-1.6l-0.3,1.5H131.4z M133.7,100.9h1.2l-0.6-3.5
			L133.7,100.9z"/>
		<g id="Layer1007">
			<path id="path111" d="M129.9,99.9c0.5,0.4,0.7,1.1,0.7,1.8v0c0,0.1,0,0.3,0,0.4c0,0.3,0,1.2,0.3,1.4l1,0.7l-3.8,0L128,104
				c-0.1-0.2-0.1-0.4-0.1-0.6c0-0.2,0-0.4,0-0.6c0-0.2,0-0.3,0-0.5c0-0.1,0-0.2,0-0.3c0-0.2,0-0.6-0.1-0.8c0,0-0.1-0.1-0.1-0.1
				c0,0-0.1,0-0.2,0h0v3.2h-2.8v-8.7h2.7c0.5,0,0.9,0,1.4,0.1c0.4,0.1,0.7,0.2,1,0.4c0.3,0.2,0.5,0.5,0.7,0.8
				c0.2,0.4,0.2,0.7,0.2,1.1c0,0.5-0.1,0.9-0.3,1.3C130.2,99.5,130,99.7,129.9,99.9L129.9,99.9z M127.4,99c0.1,0,0.2,0,0.4-0.1
				c0.1-0.1,0.1-0.4,0.1-0.5c0-0.1,0-0.3-0.1-0.4c-0.1-0.1-0.2-0.1-0.4-0.1V99z"/>
		</g>
		<path id="path114" class="st10" d="M125,103.9v-8h2.3c0.8,0,1,0,1.3,0.1c0.3,0.1,0.6,0.2,0.8,0.3c0.3,0.2,0.4,0.4,0.6,0.7
			c0.1,0.3,0.2,0.6,0.2,1c0,0.5-0.1,0.8-0.3,1.2c-0.2,0.3-0.5,0.6-0.8,0.8c0.6,0.3,1,0.9,1,1.8v0c0,0.1,0,0.2,0,0.4
			c0,0.9,0.2,1.5,0.5,1.7l-2.3,0c-0.1-0.2-0.1-0.3-0.1-0.5c0-0.2,0-0.4,0-0.6c0-0.1,0-0.3,0-0.5c0-0.2,0-0.3,0-0.4
			c0-0.5-0.1-0.8-0.2-1c-0.1-0.2-0.2-0.3-0.5-0.3H127v3.2H125z M127,99.3c0,0,0.1,0,0.1,0c0.1,0,0.1,0,0.1,0c0.4,0,0.6-0.1,0.8-0.2
			c0.2-0.2,0.3-0.4,0.3-0.8c0-0.3-0.1-0.6-0.3-0.7c-0.2-0.1-0.3-0.2-0.8-0.2c0,0-0.1,0-0.1,0c-0.1,0-0.1,0-0.1,0V99.3z"/>
		<g id="Layer1008">
			<path id="path116" d="M122.5,113.4c0.5,0.4,0.7,1.1,0.7,1.8v0c0,0.1,0,0.3,0,0.4c0,0.3,0,1.2,0.3,1.4l1,0.7l-3.8,0l-0.1-0.3
				c-0.1-0.2-0.1-0.4-0.1-0.6c0-0.2,0-0.4,0-0.6c0-0.2,0-0.3,0-0.5c0-0.1,0-0.2,0-0.3c0-0.2,0-0.6-0.1-0.8c0,0-0.1-0.1-0.1-0.1
				c0,0-0.1,0-0.2,0h0v3.2h-2.8V109h2.7c0.5,0,0.9,0,1.4,0.1c0.4,0.1,0.7,0.2,1,0.4c0.3,0.2,0.5,0.5,0.7,0.8
				c0.2,0.4,0.2,0.7,0.2,1.1c0,0.5-0.1,0.9-0.3,1.3C122.8,113.1,122.7,113.3,122.5,113.4L122.5,113.4z M120,112.5
				c0.1,0,0.2,0,0.4-0.1c0.1-0.1,0.1-0.4,0.1-0.5c0-0.1,0-0.3-0.1-0.4c-0.1-0.1-0.2-0.1-0.4-0.1V112.5z"/>
		</g>
		<path id="path119" class="st0" d="M117.6,117.4v-8h2.3c0.8,0,1,0,1.3,0.1c0.3,0.1,0.6,0.2,0.8,0.3c0.3,0.2,0.4,0.4,0.6,0.7
			c0.1,0.3,0.2,0.6,0.2,1c0,0.5-0.1,0.8-0.3,1.2c-0.2,0.3-0.5,0.6-0.8,0.8c0.6,0.3,1,0.9,1,1.8v0c0,0.1,0,0.2,0,0.4
			c0,0.9,0.2,1.5,0.5,1.7l-2.3,0c-0.1-0.2-0.1-0.3-0.1-0.5c0-0.2,0-0.4,0-0.6c0-0.1,0-0.3,0-0.5c0-0.2,0-0.3,0-0.4
			c0-0.5-0.1-0.8-0.2-1c-0.1-0.2-0.2-0.3-0.5-0.3h-0.4v3.2L117.6,117.4z M119.7,112.9c0,0,0.1,0,0.1,0c0.1,0,0.1,0,0.1,0
			c0.4,0,0.6-0.1,0.8-0.2c0.2-0.2,0.3-0.4,0.3-0.8c0-0.3-0.1-0.6-0.3-0.7c-0.2-0.1-0.3-0.2-0.8-0.2c0,0-0.1,0-0.1,0
			c-0.1,0-0.1,0-0.1,0V112.9z"/>
		<g id="Layer1009">
			<path id="path121" d="M117.8,95.5l2.8,0v5.3c0,0.2,0,1,0,1.2c0,0.1,0.2,0.1,0.2,0.1c0.1,0,0.2,0,0.2-0.1c0.1-0.1,0-1,0-1.2v-5.3
				l2.7,0v5.4l0,1.3c0,0.3-0.1,0.6-0.2,0.9c-0.3,0.4-0.6,0.7-1.1,0.9c-0.5,0.2-1.1,0.3-1.7,0.3c-0.5,0-1.1-0.1-1.6-0.3
				c-0.4-0.2-0.8-0.5-1-0.9c-0.2-0.3-0.3-0.7-0.3-1.1l0-1.9L117.8,95.5z"/>
		</g>
		<path id="path124" class="st10" d="M118.2,95.9l2,0v4.9c0,0.7,0,1.2,0.1,1.4c0.1,0.2,0.3,0.3,0.6,0.3c0.3,0,0.5-0.1,0.6-0.3
			c0.1-0.2,0.1-0.7,0.1-1.4v-4.9l1.9,0v5l0,1.3c0,0.3-0.1,0.5-0.2,0.7c-0.2,0.3-0.5,0.6-0.9,0.8c-0.4,0.2-0.9,0.2-1.5,0.2
			c-0.6,0-1.1-0.1-1.4-0.2c-0.4-0.2-0.7-0.4-0.9-0.7c-0.2-0.2-0.3-0.5-0.3-0.9l0-1.9L118.2,95.9z"/>
		<g id="Layer1010">
			<path id="path126" d="M107.1,97.4l0.9-1.9h3.1l-2.4,4l2.2,4.8h-2.9l-0.8-2.2v2.2h-2.6v-8.7h2.6V97.4z"/>
		</g>
		<path id="path129" class="st10" d="M104.9,103.9v-8h1.9v3.3l1.5-3.3h2.1l-2.2,3.6l2,4.4h-2l-1-2.7l-0.5,0.7v2L104.9,103.9z"/>
		<g id="Layer1011">
			<path id="path131" d="M100.3,110.9l0.9-1.9h3.1l-2.4,4l2.2,4.8h-2.9l-0.8-2.2v2.2h-2.6V109h2.6L100.3,110.9z"/>
		</g>
		<path id="path134" class="st0" d="M98.1,117.4v-8h1.9v3.3l1.5-3.3h2.1l-2.2,3.6l2,4.4h-2l-1-2.7l-0.5,0.7v2L98.1,117.4z"/>
		<g id="Layer1012">
			<path id="path136" d="M100.7,104.3v-8.7h2.7v8.7H100.7z"/>
		</g>
		<path id="path139" class="st10" d="M101.1,103.9v-8h2v8H101.1z"/>
		<path id="path141" class="st10" d="M94.2,103.9v-8h2v3h1.2v-3h2v8h-2v-3.3h-1.2v3.3H94.2z"/>
		<g id="Layer1013">
			<path id="path143" d="M96.6,98.5H97v-3h2.8v8.7H97v-3.3h-0.4v3.3h-2.8v-8.7h2.8V98.5z"/>
		</g>
		<path id="path146" class="st10" d="M94.2,103.9v-8h2v3h1.2v-3h2v8h-2v-3.3h-1.2v3.3H94.2z"/>
		<g id="Layer1014">
			<path id="path148" d="M93.6,112.1H94v-3h2.8v8.7H94v-3.3h-0.4v3.3h-2.8V109h2.8V112.1z"/>
		</g>
		<path id="path151" class="st0" d="M91.2,117.4v-8h2v3h1.2v-3h2v8h-2v-3.3h-1.2v3.3H91.2z"/>
		<g id="Layer1015">
			<path id="path153" d="M107.1,112.1h0.4v-3h2.8v8.7h-2.8v-3.3h-0.4v3.3h-2.8V109h2.8V112.1z"/>
		</g>
		<path id="path156" class="st0" d="M104.7,117.4v-8h2v3h1.2v-3h2v8h-2v-3.3h-1.2v3.3H104.7z"/>
		<g id="Layer1016">
			<path id="path158" d="M113.8,98.5h0.4v-3h2.8v8.7h-2.8v-3.3h-0.4v3.3h-2.8v-8.7h2.8V98.5z"/>
		</g>
		<path id="path161" class="st10" d="M111.4,103.9v-8h2v3h1.2v-3h2v8h-2v-3.3h-1.2v3.3H111.4z"/>
		<g id="Layer1017">
			<path id="path163" d="M75.7,100.2l2.8,0l0,0.4c0,0.1,0,0.1,0,0.2c0,0.1,0,0.3,0,0.4c0,0.9,0.1,1.6-0.6,2.3
				c-0.7,0.7-1.6,0.8-2.5,0.8c-0.6,0-1.2-0.1-1.7-0.4c-0.4-0.2-0.7-0.5-1-0.9c-0.2-0.4-0.3-0.8-0.3-1.3c0-0.6,0-1.3,0-1.9l0-2.1
				c0-0.5,0.1-0.9,0.4-1.3c0.3-0.3,0.4-0.6,0.8-0.8c0.5-0.3,1.1-0.4,1.7-0.4c0.9,0,1.9,0.2,2.5,0.9c0.7,0.7,0.6,1.7,0.6,2.5V99
				l-2.8,0l0-0.4c0-0.2,0-0.9,0-1.1c-0.1-0.1-0.1-0.1-0.2-0.1c-0.1,0-0.2,0-0.3,0.1c-0.1,0.2,0,1.9,0,2.2v0.2c0,0.3,0,1.7,0.1,2
				c0.1,0.1,0.1,0.1,0.2,0.1c0,0,0.2,0,0.2,0c0,0,0,0,0,0c0.1-0.1,0-0.7,0-0.8c0-0.2,0-0.4,0-0.5L75.7,100.2z"/>
		</g>
		<path id="path166" class="st10" d="M76.1,100.5l2.1,0c0,0,0,0.1,0,0.2c0,0.1,0,0.3,0,0.4c0,1,0,1.5-0.5,2
			c-0.5,0.5-1.2,0.7-2.3,0.7c-0.6,0-1.1-0.1-1.5-0.4c-0.4-0.2-0.6-0.4-0.8-0.8c-0.1-0.3-0.3-0.6-0.2-1.1c0-0.5,0-0.9,0-1.9l0-2.1
			c0-0.4,0.1-0.8,0.3-1.1c0.2-0.2,0.3-0.5,0.7-0.6c0.4-0.2,0.9-0.4,1.5-0.4c1,0,1.8,0.2,2.3,0.7c0.6,0.6,0.5,1.5,0.5,2.3l-2,0
			c0-0.6,0-1-0.1-1.3c-0.1-0.2-0.3-0.3-0.6-0.3c-0.3,0-0.5,0.1-0.6,0.3c-0.1,0.3-0.1,1.2-0.1,2.4v0.2c0,1.3,0,1.8,0.1,2.1
			c0.1,0.3,0.3,0.3,0.6,0.3c0.2,0,0.4,0,0.5-0.2c0.1-0.2,0.1-0.5,0.1-1C76.1,100.9,76.1,100.7,76.1,100.5L76.1,100.5z"/>
		<g id="Layer1018">
			<path id="path168" d="M87.2,113.7l2.8,0l0,0.4c0,0.1,0,0.1,0,0.2c0,0.1,0,0.3,0,0.4c0,0.9,0.1,1.6-0.6,2.3
				c-0.7,0.7-1.6,0.8-2.5,0.8c-0.6,0-1.2-0.1-1.7-0.4c-0.4-0.2-0.7-0.5-1-0.9c-0.2-0.4-0.3-0.8-0.3-1.3c0-0.6,0-1.3,0-1.9l0-2.1
				c0-0.5,0.1-0.9,0.4-1.3c0.3-0.3,0.4-0.6,0.8-0.8c0.5-0.3,1.1-0.4,1.7-0.4c0.9,0,1.9,0.2,2.5,0.9c0.7,0.7,0.6,1.7,0.6,2.5v0.4
				l-2.8,0l0-0.4c0-0.2,0-0.9,0-1.1c-0.1-0.1-0.1-0.1-0.2-0.1c-0.1,0-0.2,0-0.3,0.1c-0.1,0.2,0,1.9,0,2.2v0.2c0,0.3,0,1.7,0.1,2
				c0.1,0.1,0.1,0.1,0.2,0.1c0,0,0.2,0,0.2,0c0,0,0,0,0,0c0.1-0.1,0-0.7,0-0.8c0-0.2,0-0.4,0-0.5L87.2,113.7z"/>
		</g>
		<path id="path171" class="st0" d="M87.6,114.1l2.1,0c0,0,0,0.1,0,0.2c0,0.1,0,0.3,0,0.4c0,1,0,1.5-0.5,2c-0.5,0.5-1.2,0.7-2.3,0.7
			c-0.6,0-1.1-0.1-1.5-0.4c-0.4-0.2-0.6-0.4-0.8-0.8c-0.1-0.3-0.3-0.6-0.2-1.1c0-0.5,0-0.9,0-1.9l0-2.1c0-0.4,0.1-0.8,0.3-1.1
			c0.2-0.2,0.3-0.5,0.7-0.6c0.4-0.2,0.9-0.4,1.5-0.4c1,0,1.8,0.2,2.3,0.7c0.6,0.6,0.5,1.5,0.5,2.3l-2,0c0-0.6,0-1-0.1-1.3
			c-0.1-0.2-0.3-0.3-0.6-0.3c-0.3,0-0.5,0.1-0.6,0.3c-0.1,0.3-0.1,1.2-0.1,2.4v0.2c0,1.3,0,1.8,0.1,2.1c0.1,0.3,0.3,0.3,0.6,0.3
			c0.2,0,0.4,0,0.5-0.2c0.1-0.2,0.1-0.5,0.1-1C87.6,114.4,87.6,114.3,87.6,114.1L87.6,114.1z"/>
		<g id="Layer1019">
			<path id="path173" d="M90.3,100.2l2.8,0l0,0.4c0,0.1,0,0.1,0,0.2c0,0.1,0,0.3,0,0.4c0,0.9,0.1,1.6-0.6,2.3
				c-0.7,0.7-1.6,0.8-2.5,0.8c-0.6,0-1.2-0.1-1.7-0.4c-0.4-0.2-0.7-0.5-1-0.9c-0.2-0.4-0.3-0.8-0.3-1.3c0-0.6,0-1.3,0-1.9l0-2.1
				c0-0.5,0.1-0.9,0.4-1.3c0.3-0.3,0.4-0.6,0.8-0.8c0.5-0.3,1.1-0.4,1.7-0.4c0.9,0,1.9,0.2,2.5,0.9c0.7,0.7,0.6,1.7,0.6,2.5V99
				l-2.8,0l0-0.4c0-0.2,0-0.9,0-1.1c-0.1-0.1-0.1-0.1-0.2-0.1c-0.1,0-0.2,0-0.3,0.1c-0.1,0.2,0,1.9,0,2.2v0.2c0,0.3,0,1.7,0.1,2
				c0.1,0.1,0.1,0.1,0.2,0.1c0,0,0.2,0,0.2,0c0,0,0,0,0,0c0.1-0.1,0-0.7,0-0.8c0-0.2,0-0.4,0-0.5L90.3,100.2z"/>
		</g>
		<path id="path176" class="st10" d="M90.7,100.5l2.1,0c0,0,0,0.1,0,0.2c0,0.1,0,0.3,0,0.4c0,1,0,1.5-0.5,2
			c-0.5,0.5-1.2,0.7-2.3,0.7c-0.6,0-1.1-0.1-1.5-0.4c-0.4-0.2-0.6-0.4-0.8-0.8c-0.1-0.3-0.3-0.6-0.2-1.1c0-0.5,0-0.9,0-1.9l0-2.1
			c0-0.4,0.1-0.8,0.3-1.1c0.2-0.2,0.3-0.5,0.7-0.6c0.4-0.2,0.9-0.4,1.5-0.4c1,0,1.8,0.2,2.3,0.7c0.6,0.6,0.5,1.5,0.5,2.3l-2,0
			c0-0.6,0-1-0.1-1.3C90.5,97.1,90.3,97,90,97c-0.3,0-0.5,0.1-0.6,0.3c-0.1,0.3-0.1,1.2-0.1,2.4v0.2c0,1.3,0,1.8,0.1,2.1
			c0.1,0.3,0.3,0.3,0.6,0.3c0.2,0,0.4,0,0.5-0.2c0.1-0.2,0.1-0.5,0.1-1C90.7,100.9,90.7,100.7,90.7,100.5L90.7,100.5z"/>
		<g id="Layer1020">
			<path id="path178" d="M68.6,104.3v-2.6h2.7v2.6H68.6z"/>
		</g>
		<path id="path181" class="st10" d="M69,103.9V102h1.9v1.9H69z"/>
		<g id="Layer1021">
			<path id="path183" d="M79.6,104.3v-2.6h2.7v2.6H79.6z"/>
		</g>
		<path id="path186" class="st10" d="M80,103.9V102h1.9v1.9H80z"/>
		<g id="Layer1022">
			<path id="path188" d="M66,97.8v0.7h2.3v2.4h-2.3v3.4l-2.8,0v-8.7l5.3,0v2.3H66z"/>
		</g>
		<path id="path191" class="st10" d="M63.6,103.9v-8l4.6,0v1.5h-2.5v1.5H68v1.6h-2.3v3.4L63.6,103.9z"/>
		<g id="Layer1023">
			<path id="path193" d="M113.9,111.4l0,0.7l2.5,0v2.4l-2.5,0l0,0.9l2.7,0v2.4l-5.3,0V109l5.1,0v2.3L113.9,111.4z"/>
		</g>
		<path id="path196" class="st0" d="M111.7,117.4v-8l4.3,0v1.5l-2.4,0l0,1.5l2.5,0v1.6l-2.5,0l0,1.7l2.7,0v1.6L111.7,117.4z"/>
		<g id="Layer1024">
			<path id="path198" d="M126.8,111.3v0.8l2.4,0v2.4l-2.4,0v0.9l2.7,0v2.4l-5.3,0V109l5.1,0v2.3L126.8,111.3z"/>
		</g>
		<path id="path201" class="st0" d="M124.5,117.4v-8l4.3,0v1.5l-2.4,0v1.5l2.4,0v1.6l-2.4,0v1.7l2.7,0v1.6L124.5,117.4z"/>
		<g id="Layer1025">
			<path id="path203" d="M80.8,116.3h-0.9l-0.2,1.5h-2.7l1.9-8.7h3l1.9,8.7H81L80.8,116.3z M80.2,114h0.2l-0.1-0.7L80.2,114z"/>
		</g>
		<path id="path206" class="st0" d="M77.4,117.4l1.8-8h2.4l1.8,8h-1.9l-0.2-1.5h-1.6l-0.2,1.5H77.4z M79.7,114.4h1.1l-0.6-3.5
			L79.7,114.4z"/>
		<g id="Layer1026">
			<path id="path208" d="M74.7,112.2C74.7,112.2,74.7,112.2,74.7,112.2c0.5,0.3,1.2,0.7,1.5,1.2c0.1,0.2,0.2,0.5,0.3,0.7
				c0.1,0.3,0.2,0.5,0.2,0.8c0,0.8-0.2,1.5-0.8,2.1c-0.6,0.5-1.3,0.8-2.1,0.8c-0.8,0-1.6-0.2-2.2-0.8c-0.6-0.5-0.7-1.4-0.7-2.1
				c0-0.1,0-0.1,0-0.2c0-0.1,0-0.2,0-0.2l0-0.4l2,0c-0.5-0.3-1.1-0.7-1.4-1.1c-0.2-0.2-0.3-0.5-0.4-0.7c-0.1-0.3-0.2-0.5-0.2-0.8
				c0-0.7,0.2-1.4,0.8-1.9c0.5-0.5,1.3-0.8,2-0.8c0.8,0,1.5,0.3,2.1,0.8c0.5,0.5,0.8,1.3,0.8,2c0,0.1,0,0.1,0,0.2c0,0,0,0.1,0,0.1
				v0.4H74.7z M73.5,114.5v0.2c0,0.1,0,0.6,0,0.7c0,0.1,0.1,0.1,0.2,0.1c0.1,0,0.2,0,0.3,0c0.1-0.1,0.1-0.2,0.1-0.3
				C74.1,115,73.7,114.7,73.5,114.5z M74.1,111.8v-0.2c0-0.2,0-0.5-0.1-0.7c0-0.1-0.2-0.1-0.2-0.1c-0.1,0-0.1,0-0.2,0.1
				c0,0.1-0.1,0.2-0.1,0.3C73.5,111.4,73.9,111.7,74.1,111.8z"/>
		</g>
		<path id="path211" class="st0" d="M71.3,114.5l1.8,0v0.2c0,0.4,0,0.7,0.1,0.9c0.1,0.2,0.3,0.3,0.5,0.3c0.2,0,0.4,0,0.5-0.2
			c0.1-0.1,0.2-0.3,0.2-0.5c0-0.4-0.4-0.8-0.9-1.1c-0.1-0.1-0.2-0.1-0.2-0.1l-0.1-0.1c-0.8-0.5-1.2-0.8-1.4-1.1
			c-0.1-0.2-0.2-0.4-0.3-0.6c-0.1-0.2-0.2-0.5-0.2-0.7c0-0.7,0.2-1.3,0.7-1.6c0.4-0.4,1.1-0.7,1.8-0.7c0.8,0,1.4,0.3,1.8,0.7
			c0.4,0.4,0.6,1,0.6,1.7c0,0,0,0.1,0,0.2c0,0.1,0,0.1,0,0.1h-1.7v-0.1c0-0.3-0.1-0.7-0.2-0.9c-0.1-0.2-0.4-0.3-0.6-0.3
			c-0.2,0-0.4,0.1-0.5,0.2c-0.1,0.1-0.2,0.3-0.2,0.5c0,0.3,0.4,0.6,1,1c0.1,0.1,0.2,0.1,0.3,0.2c0.1,0,0.1,0.1,0.2,0.1
			c0.7,0.4,1.1,0.7,1.3,1c0.1,0.2,0.2,0.4,0.3,0.6c0.1,0.2,0.2,0.5,0.2,0.7c0,0.8-0.2,1.4-0.7,1.8c-0.4,0.4-1,0.7-1.8,0.7
			c-0.8,0-1.5-0.3-1.9-0.7c-0.4-0.4-0.6-1-0.6-1.8c0,0,0-0.1,0-0.2C71.3,114.7,71.3,114.7,71.3,114.5L71.3,114.5z"/>
		<path id="path213" class="st9" d="M94.8,81.4c-0.3,2.8-0.8,5.8-1.7,8.5l0,0c-0.5,1.4-2.2,1.8-3.6,1.4l0,0l0,0
			c-1.4-0.6-2.8-1.7-4-2.6c-0.7-0.5-1.3-1-2.1-1.4c-0.5-0.3-1.1-0.6-1.6-0.6c-1-0.1-1.8,0.9-2.4,1.6c-0.9,1.3-1.7,2.6-2.4,4.1h20.2
			V74.8c-1.1-2.9-1.2-6.5-1.5-9.3h-0.7c0.1,2,0.1,4.1,0.1,6.1C95.2,74.8,95.1,78.1,94.8,81.4L94.8,81.4z"/>
		<path id="path215" class="st9" d="M80.9,114.4l-0.6-3.5l-0.6,3.5H80.9z"/>
		<path id="path217" class="st9" d="M80.4,114l-0.1-0.7l-0.1,0.7H80.4z"/>
		<path id="path219" class="st9" d="M119.7,110.9v1.9l0.1,0l0.1,0c0.4,0,0.6-0.1,0.8-0.2c0.2-0.2,0.3-0.4,0.3-0.8
			c0-0.3-0.1-0.6-0.3-0.7c-0.2-0.1-0.3-0.2-0.8-0.2l-0.1,0L119.7,110.9z"/>
		<path id="path221" class="st9" d="M127,99.3l0.1,0l0.1,0c0.4,0,0.6-0.1,0.8-0.2c0.2-0.2,0.3-0.4,0.3-0.8c0-0.3-0.1-0.6-0.3-0.7
			c-0.2-0.1-0.3-0.2-0.8-0.2l-0.1,0l-0.1,0V99.3z"/>
		<path id="path223" class="st9" d="M134.3,97.4l-0.6,3.5h1.2L134.3,97.4z"/>
		<path id="path225" class="st9" d="M83.9,75l0-2.1c0-0.2-0.5-0.6-0.9-0.6c-0.4,0-1,0.2-1,0.5c0,0.3,0,2,0,2c0,0.3,0.5,0.7,1,0.7
			C83.5,75.6,83.9,75.3,83.9,75L83.9,75z"/>
		<path id="path227" class="st9" d="M83.6,75l0-2c-0.1-0.1-0.4-0.3-0.5-0.2c-0.1,0-0.5,0.1-0.6,0.2c0,0.7,0,1.3,0,2
			c0.1,0.2,0.4,0.3,0.6,0.3C83.2,75.2,83.5,75.1,83.6,75L83.6,75z"/>
		<path id="path229" class="st4" d="M64.4,65.8h2.1c1.5,0,2.8,1.2,2.8,2.7v1.7l0,5.2c0,1.1-1.3,2.3-2.3,2.4l0,0h0h-2.9
			c-1,0-2.4-1-2.4-2.1v-1.8v-0.4H62h2.6h0.4v0.4v0.9c0,0.1,0.2,0.3,0.3,0.3h0.5c0.1,0,0.2-0.1,0.2-0.2v-2h-1.5
			c-1.5,0-2.8-1.2-2.8-2.7v-1.7C61.6,67,62.9,65.8,64.4,65.8z M70.8,68.2c0-1.1,0.9-2.1,2.1-2.1h2.7c1.1,0,2.1,0.9,2.1,2.1v2.1
			c0,0.4-0.6,1.1-0.8,1.1c0.3,0,0.8,0.7,0.8,1.1v2.8c0,1.1-0.9,2.1-2.1,2.1h-2.7c-1.1,0-2.1-0.9-2.1-2.1v-1.6l2.6,0l0,1.1
			c0,0.7,0.5,0.7,0.8,0.7c0.5,0,0.7-0.2,0.7-0.5l0-1.6c0-0.6-0.2-0.5-0.9-0.5l0-2l0.3,0c0.6,0,0.7-0.2,0.7-0.6l0-1.7
			c0-0.1-0.2-0.7-0.8-0.7c-0.4,0-0.8,0.3-0.8,0.7l0,1.1l-2.6,0L70.8,68.2z M79.6,72.4c0-0.4,0.8-1.3,1.2-1.2c-0.4,0-0.9-0.6-0.9-1.1
			l0-1.7c0-1.1,0.7-2.1,1.8-2.1h2.7c1.1,0,1.7,0.8,1.7,1.9l0,1.9c0,0.3-0.7,1-1,0.9c0.3,0,1.3,0.9,1.3,1.4v2.7
			c0,1.1-0.9,2.1-2.1,2.1h-2.7c-1.1,0-2.1-0.9-2.1-2.1L79.6,72.4z M88.8,82.8c0.4-0.6,0.4-1.4,0.5-2.1l2.2-18.8l0.1-0.8h0.8h4.8
			v-8.9l-1.2,0c-13.4,0.1-27.2,1.2-40.8,3.7v36.3h16.3l1-0.7c1.5-1.1,2.5-2.6,3.3-4.4c0.3-0.7,0.6-1.5,0.9-2.2
			c0.2-0.6,0.5-1.3,0.8-1.9c0.5-1.1,1.4-2.2,2.5-2.8c1.5-0.8,3.1-0.7,4.5,0.2c1.3,0.8,2.7,1.5,3.9,2.4l0,0l0,0
			c0.1,0,0.2,0.1,0.3,0.2C88.7,83,88.8,82.8,88.8,82.8L88.8,82.8z M57.8,65.8l2,0c0.2,0,0.3,0.1,0.4,0.3c0,0,0,0.1,0,0.1l0,11.1
			c0,0.2-0.2,0.4-0.4,0.4l-2.3,0l0,0c-0.2,0-0.4-0.2-0.4-0.4l0-7.1c-0.3,0.2-0.6,0.3-0.9,0.3l-0.5,0.1l0-2.5l0.1-0.1
			c0.7-0.6,1.5-1.2,1.9-2L57.8,65.8z"/>
		<g id="Layer1027">
			<path id="path231" d="M85.9,71.1c0.1,0.1,0.2,0.2,0.3,0.3c0.3,0.3,0.6,0.7,0.6,1.1v2.7c0,1.3-1.1,2.4-2.4,2.4h-2.7
				c-1.3,0-2.4-1.1-2.4-2.4v-2.9c0-0.4,0.4-0.9,0.8-1.3c-0.3-0.3-0.5-0.7-0.5-1.1l0-1.7c0-1.3,0.8-2.5,2.2-2.5h2.7
				c1.4,0,2.1,1,2.1,2.3l0,1.9C86.5,70.4,86.2,70.8,85.9,71.1L85.9,71.1z"/>
		</g>
		<path id="path234" class="st8" d="M81.7,66.3h2.7c1.1,0,1.7,0.8,1.7,1.9l0,1.9c0,0.3-0.7,1-1,0.9c0.3,0,1.3,0.9,1.3,1.4v2.7
			c0,1.1-0.9,2.1-2.1,2.1h-2.7c-1.1,0-2.1-0.9-2.1-2.1v-2.9c0-0.4,0.8-1.3,1.2-1.2c-0.4,0-0.9-0.6-0.9-1.1l0-1.7
			C79.9,67.2,80.6,66.3,81.7,66.3L81.7,66.3z"/>
		<path id="path236" class="st9" d="M65.2,68.4c-0.2,0-0.4,0.2-0.4,0.4V70c0,0.2,0.2,0.4,0.4,0.4h0.3c0.2,0,0.4-0.2,0.4-0.4v-1.1
			c0-0.2-0.2-0.4-0.4-0.4H65.2z"/>
		<g id="Layer1028">
			<path id="path238" d="M77.5,71.4c0.3,0.3,0.5,0.8,0.5,1.1v2.8c0,1.4-1.1,2.5-2.5,2.5h-2.7c-1.4,0-2.5-1.1-2.5-2.5v-2l3.4,0.1
				l0,1.5c0,0.4,0.1,0.3,0.5,0.3c0.1,0,0.3,0,0.3,0c0,0,0-0.1,0-0.1l0-1.6c0,0,0-0.1,0-0.1c-0.2,0-0.4,0-0.5,0l-0.4,0l0-2.8l0.6,0
				c0.1,0,0.2,0,0.3,0c0,0,0-0.1,0-0.2l0-1.6c0-0.2-0.2-0.3-0.4-0.3c-0.1,0-0.5,0.1-0.5,0.3l0,1.5l-3.3,0v-1.8
				c0-1.4,1.1-2.5,2.5-2.5h2.7c1.4,0,2.5,1.1,2.5,2.5v2.1C78,70.6,77.8,71.1,77.5,71.4L77.5,71.4z"/>
		</g>
		<path id="path241" class="st8" d="M72.9,66.1h2.7c1.1,0,2.1,0.9,2.1,2.1v2.1c0,0.4-0.6,1.1-0.8,1.1c0.3,0,0.8,0.7,0.8,1.1v2.8
			c0,1.1-0.9,2.1-2.1,2.1h-2.7c-1.1,0-2.1-0.9-2.1-2.1v-1.6l2.6,0l0,1.1c0,0.7,0.5,0.7,0.8,0.7c0.5,0,0.7-0.2,0.7-0.5l0-1.6
			c0-0.6-0.2-0.5-0.9-0.5l0-2l0.3,0c0.6,0,0.7-0.2,0.7-0.6l0-1.7c0-0.1-0.2-0.7-0.8-0.7c-0.4,0-0.8,0.3-0.8,0.7l0,1.1l-2.6,0v-1.4
			C70.8,67,71.7,66.1,72.9,66.1L72.9,66.1z"/>
		<path id="path243" d="M83,72.4c-0.4,0-1,0.2-1,0.5c0,0.3,0,2,0,2c0,0.3,0.5,0.7,1,0.7c0.5,0,0.9-0.3,0.9-0.6l0-2.1
			C84,72.8,83.4,72.4,83,72.4L83,72.4z M82.4,74.9c0-0.6,0-1.3,0-2c0.1-0.1,0.5-0.2,0.6-0.2c0.1,0,0.4,0.1,0.5,0.2l0,2
			c-0.1,0.1-0.4,0.2-0.5,0.2C82.8,75.2,82.4,75.1,82.4,74.9L82.4,74.9z"/>
		<path id="path245" d="M83,68c-0.4,0-0.8,0.2-0.8,0.5c0,0.3,0,1.3,0,1.3c0,0.4,0.4,0.7,0.8,0.7c0.5,0,0.7-0.4,0.8-0.6v-1.3
			C83.7,68.4,83.4,68,83,68L83,68z M82.6,68.6c0-0.1,0.3-0.2,0.4-0.1c0.1,0,0.3,0.1,0.3,0.2v1.3c0,0.1-0.2,0.2-0.4,0.2
			c-0.2,0-0.4-0.1-0.4-0.3C82.6,69.4,82.6,69,82.6,68.6z"/>
		<path id="path247" d="M127,97.4v1.9l0.1,0l0.1,0c0.4,0,0.6-0.1,0.8-0.2c0.2-0.2,0.3-0.4,0.3-0.8c0-0.3-0.1-0.6-0.3-0.7
			c-0.2-0.1-0.3-0.2-0.8-0.2l-0.1,0L127,97.4z"/>
		<path id="path249" d="M134.3,97.4l-0.6,3.5h1.2L134.3,97.4z"/>
		<path id="path251" class="st1" d="M84.4,65.9c1.4,0,2.1,1,2.1,2.3l0,1.9c0,0.3-0.3,0.7-0.6,1c0.1,0.1,0.2,0.2,0.3,0.3
			c0.3,0.3,0.6,0.7,0.6,1.1v2.7c0,1.3-1.1,2.4-2.4,2.4h-2.7c-1.3,0-2.4-1.1-2.4-2.4v-2.9c0-0.4,0.4-0.9,0.8-1.3
			c-0.3-0.3-0.5-0.7-0.5-1.1l0-1.7c0-1.3,0.8-2.5,2.2-2.5L84.4,65.9z M79.9,80.2c1.5-0.8,3.1-0.7,4.5,0.2c1.3,0.8,2.7,1.5,3.9,2.4
			l0,0l0,0c0.1,0,0.2,0.1,0.3,0.2c0.1-0.1,0.2-0.2,0.2-0.3c0.4-0.6,0.4-1.4,0.5-2.1l2.2-18.8l0.1-0.8h0.8h4.8v-8.9l-1.2,0
			c-13.4,0.1-27.2,1.2-40.8,3.7v36.3h16.3l1-0.7c1.5-1.1,2.5-2.6,3.3-4.4c0.3-0.7,0.6-1.5,0.9-2.2c0.2-0.6,0.5-1.3,0.8-1.9
			C77.9,81.8,78.8,80.8,79.9,80.2L79.9,80.2z M64.4,65.8h2.1c1.5,0,2.8,1.2,2.8,2.7v1.7l0,5.2c0,1.1-1.3,2.3-2.3,2.4l0,0h0h-2.9
			c-1,0-2.4-1-2.4-2.1v-1.8v-0.4H62h2.6h0.4v0.4v0.9c0,0.1,0.2,0.3,0.3,0.3h0.5c0.1,0,0.2-0.1,0.2-0.2v-2h-1.5
			c-1.5,0-2.8-1.2-2.8-2.7v-1.7C61.6,67,62.9,65.8,64.4,65.8L64.4,65.8z M72.9,65.7h2.7c1.4,0,2.5,1.1,2.5,2.5v2.1
			c0,0.3-0.2,0.8-0.5,1.1c0.3,0.3,0.5,0.8,0.5,1.1v2.8c0,1.4-1.1,2.5-2.5,2.5h-2.7c-1.4,0-2.5-1.1-2.5-2.5v-2l3.4,0.1l0,1.5
			c0,0.4,0.1,0.3,0.5,0.3c0.1,0,0.3,0,0.3,0c0,0,0-0.1,0-0.1l0-1.6l0-0.1c-0.2,0-0.4,0-0.5,0l-0.4,0l0-2.8l0.6,0c0.1,0,0.2,0,0.3,0
			c0,0,0-0.1,0-0.2l0-1.6c0-0.2-0.2-0.3-0.4-0.3c-0.1,0-0.5,0.1-0.5,0.3l0,1.5l-3.3,0v-1.8C70.4,66.8,71.5,65.7,72.9,65.7L72.9,65.7
			z M57.8,65.8l2,0c0.2,0,0.3,0.1,0.4,0.3c0,0,0,0.1,0,0.1l0,11.1c0,0.2-0.2,0.4-0.4,0.4l-2.3,0l0,0c-0.2,0-0.4-0.2-0.4-0.4l0-7.1
			c-0.3,0.2-0.6,0.3-0.9,0.3l-0.5,0.1l0-2.5l0.1-0.1c0.7-0.6,1.5-1.2,1.9-2L57.8,65.8z"/>
		<path id="path253" class="st1" d="M83.3,69.9v-1.3c0-0.1-0.2-0.2-0.3-0.2c-0.1,0-0.4,0.1-0.4,0.1c0,0.4,0,0.9,0,1.3
			c0,0.2,0.2,0.3,0.4,0.3C83.1,70.1,83.3,70.1,83.3,69.9z"/>
		<path id="path255" class="st1" d="M83.6,73c-0.1-0.1-0.4-0.3-0.5-0.2c-0.1,0-0.5,0.1-0.6,0.2c0,0.7,0,1.3,0,2
			c0.1,0.2,0.4,0.3,0.6,0.3c0.1,0,0.5-0.1,0.5-0.2L83.6,73z"/>
		<path id="path257" class="st1" d="M133.7,100.9h1.2l-0.6-3.5L133.7,100.9z"/>
		<path id="path259" class="st1" d="M128,99.1c0.2-0.2,0.3-0.4,0.3-0.8c0-0.3-0.1-0.6-0.3-0.7c-0.2-0.1-0.3-0.2-0.8-0.2l-0.1,0
			l-0.1,0v1.9l0.1,0l0.1,0C127.7,99.3,127.9,99.3,128,99.1z"/>
		<path id="path261" d="M127,97.4v1.9l0.1,0l0.1,0c0.4,0,0.6-0.1,0.8-0.2c0.2-0.2,0.3-0.4,0.3-0.8c0-0.3-0.1-0.6-0.3-0.7
			c-0.2-0.1-0.3-0.2-0.8-0.2l-0.1,0L127,97.4z"/>
		<path id="path263" class="st1" d="M127.4,99c0.1,0,0.2,0,0.4-0.1c0.1-0.1,0.1-0.4,0.1-0.5c0-0.1,0-0.3-0.1-0.4
			c-0.1-0.1-0.2-0.1-0.4-0.1V99z"/>
		<path id="path265" d="M134.3,97.4l-0.6,3.5h1.2L134.3,97.4z"/>
		<path id="path267" class="st1" d="M134.3,99.7l-0.1,0.8h0.3L134.3,99.7z"/>
		<path id="path269" d="M120.7,111.1c-0.2-0.1-0.3-0.2-0.8-0.2l-0.1,0l-0.1,0v1.9l0.1,0l0.1,0c0.4,0,0.6-0.1,0.8-0.2
			c0.2-0.2,0.3-0.4,0.3-0.8C120.9,111.5,120.9,111.3,120.7,111.1L120.7,111.1z"/>
		<path id="path271" class="st9" d="M120,111.3v1.2c0.1,0,0.2,0,0.4-0.1c0.1-0.1,0.1-0.4,0.1-0.5c0-0.1,0-0.3-0.1-0.4
			C120.3,111.3,120.2,111.3,120,111.3z"/>
		<path id="path273" d="M80.9,114.4l-0.6-3.5l-0.6,3.5H80.9z M80.2,114l0.1-0.7l0,0l0.1,0.7h0L80.2,114z"/>
		<path id="path275" class="st1" d="M121.1,154.6c5.1-4.8,10.3-10.6,14.1-17.1l0-16.8c-4.7,0-9.4,0-14.1,0L121.1,154.6z"/>
		<path id="path277" class="st1" d="M106.4,165.8v-45c-2.1,0-4.3,0-6.4,0c-2.2,0-4.3,0-6.5,0l0,45c2.1,1.3,4.3,2.5,6.5,3.7
			C102.2,168.3,104.3,167.1,106.4,165.8L106.4,165.8z"/>
		<path id="path279" class="st1" d="M78.9,154.5l0-33.7c-4.7,0-9.4,0-14.1,0l0,16.7C68.6,143.9,73.8,149.7,78.9,154.5L78.9,154.5z"
			/>
		<path id="path281" class="st6" d="M92.6,165.2l0-44.4c-4.3,0-8.6,0-12.9,0v34.6c0.4,0.4,0.8,0.7,1.2,1
			C84.6,159.6,88.5,162.5,92.6,165.2z"/>
		<path id="path283" class="st6" d="M120.2,155.4l0-34.6c-4.3,0-8.6,0-12.9,0v44.4c4.1-2.7,8.1-5.6,11.7-8.8
			C119.4,156.1,119.8,155.7,120.2,155.4L120.2,155.4z"/>
		<path id="path285" class="st6" d="M99.3,149.5L99.3,149.5l0.6,0c0,0,0.1,0,0.1,0c0,0,0,0,0.1,0h0.6v0c3,0.1,5.8,0.8,8.5,2.1
			c0.2,0.1,0.5,0.2,0.7,0.3c0.6-0.8,1.2-1.7,1.6-2.7l0.2-0.4l0.5,0.1c5.5,0.7,9.1-0.5,13.3-4.1l0,0l0,0c0.3-0.2,0.9-0.4,1.3-0.4
			l0.5,0l0.1,0.5c0.1,0.4,0,1-0.2,1.4c-2.5,5-7.5,8.7-13.2,8.7c-2.4,0-4.2-0.4-6.4-1.3c-5.2-2-9.9-2-15.2,0c-2.2,0.9-4,1.3-6.4,1.3
			c-5.7,0-10.7-3.7-13.2-8.7c-0.2-0.3-0.2-1-0.2-1.4l0.1-0.5l0.5,0c0.4,0,1,0.2,1.3,0.4l0,0l0,0c4.2,3.6,7.8,4.8,13.3,4.1l0.5-0.1
			l0.2,0.4c0.4,1,1,1.8,1.6,2.7C93,150.5,96.1,149.6,99.3,149.5L99.3,149.5z"/>
		<path id="path287" class="st11" d="M109.9,152.7l-0.2-0.1h0l0,0l0,0l-0.9-2.2l0,0l-3.2,0.6c-1.8-0.5-3.7-0.8-5.7-0.8h0
			c-3.7,0-7,1-10.1,2.6c-0.9-1-1.5-2.1-2-3.2l0,0c-1.9-4.2-1.5-9.2,1.3-13.1c4.3-5.9,12.5-7.3,18.5-3c5.2,3.7,6.9,10.5,4.4,16.2l0,0
			c-0.5,1.1-1.2,2.1-2,3.2l0,0C110,152.7,110,152.7,109.9,152.7L109.9,152.7z"/>
		<path id="path289" class="st0" d="M103.5,134l4.9,3.5l-0.2,3.7l-3.1,1l-5-3.6l-0.1-3.3L103.5,134z M95.4,150.7l1.7-2.4l5.8-0.1
			l0.7,1l1.1,1.5 M105.1,150.8l-1.8-2.6l1.8-5.7l3.3-1l2.3,2.8l-0.5,1.4l0,0l0,0l-1.4,4.3L105.1,150.8z M91.7,141.1l-0.1-2.2
			l-0.1-1.3l0.2-0.1l3.4-2.5l1.3-1l3.4,1.3l0.1,3.5l-4.8,3.5l-3.4-1L91.7,141.1z M91.3,139l0.1,2.1l0,0.3l-2.3,2.8l-0.1,0.1l-2,0
			c0-1.8,0.3-3.6,1.1-5.3c0.5-1.1,0.9-1.7,1.5-2.5l1.6,1.1l0,0L91.3,139z M110.3,136.4c1.7,2.3,2.6,5,2.6,7.7l-2,0l-0.1,0l-2.4-2.9
			l0.2-3.7l0-0.1L110.3,136.4z M90.2,152.6c-0.3-0.3-0.5-0.6-0.7-0.9l1.6-1.2l0,0l2.6,0.7C92.5,151.5,91.3,152,90.2,152.6
			L90.2,152.6z M95.8,131.9c2.6-0.9,5.5-0.9,8.2,0l-0.6,1.9l0,0l-3.5,1.4l-3.4-1.3l-0.1,0L95.8,131.9z M95.1,142.5l-3.5-1l-2.3,2.9
			l1.9,5.8l3,0.8c0.3-0.1,0.6-0.2,0.9-0.2l1.9-2.7L95.1,142.5z"/>
		<path id="path291" class="st4" d="M108.8,150.4l-3.2,0.6"/>
		<path id="path293" class="st1" d="M100,151.4c-6.8-0.1-8,3-14,2.9c-5.6,0-10.3-3.6-12.7-8.3c-0.1-0.2-0.1-0.7-0.1-1
			c0.2,0,0.8,0.1,0.9,0.2c4.3,3.6,8,5,13.8,4.2c0.5,1.1,1.2,2.2,2,3.2c3.1-1.6,6.4-2.6,10.1-2.6h0c3.2,0,6.1,0.8,8.9,2
			c0.4,0.2,0.8,0.4,1.2,0.6c0.9-1,1.5-2.1,2-3.2c5.8,0.7,9.5-0.6,13.8-4.2c0.2-0.1,0.7-0.2,0.9-0.2c0,0.3,0,0.8-0.1,1
			c-2.4,4.7-7.1,8.3-12.7,8.3c-2.8,0-4.5-0.6-6.2-1.2C105.8,152.2,103.7,151.3,100,151.4L100,151.4z"/>
		<path id="path295" class="st6" d="M99.3,152.2L99.3,152.2l0.5,0c0,0,0.1,0,0.1,0c0,0,0.1,0,0.1,0h0.5v0c1.3,0,2.7,0.2,4,0.5
			c1.2,0.3,2.3,0.7,3.5,1c1.5,0.4,2.8,0.7,4.3,0.7c2.2,0,4.5-0.5,6.6-1.2c0.5-0.2,1.3,0,1.5,0.5l0,0c0.2,0.6-0.2,1-0.6,1.3
			c-0.8,0.6-1.9,1.1-2.8,1.6c-1.4,0.7-2.9,1.4-4.5,1.9c-1.8,0.7-4.1,1.2-6.2,1.4c-2.2,0.3-4.3,0.3-6.5,0.3c-2.2,0-4.4-0.1-6.5-0.3
			c-2-0.2-4.3-0.7-6.2-1.4c-1.5-0.6-3-1.2-4.5-1.9c-0.9-0.4-2-1-2.8-1.6c-0.4-0.3-0.8-0.7-0.6-1.3l0,0c0.2-0.6,0.9-0.7,1.5-0.5
			c2.1,0.6,4.4,1.2,6.6,1.2c1.5,0,2.9-0.3,4.3-0.7c1.2-0.3,2.3-0.7,3.5-1C96.7,152.4,98,152.2,99.3,152.2L99.3,152.2z"/>
		<path id="path297" class="st1" d="M100,152.8c-8.1,0-8.8,4.2-19.2,1c-0.2-0.1-0.6-0.1-0.7,0.1c0,0.1,0,0.3,0.4,0.6
			c5.6,4.1,12.7,5,19.5,5c6.7,0,13.8-0.9,19.5-5c0.4-0.3,0.4-0.4,0.4-0.6c-0.1-0.2-0.5-0.2-0.7-0.1C108.7,157,108,152.8,100,152.8
			L100,152.8z"/>
		<path id="path299" class="st0" d="M105.7,150.9c1.4,0.4,2.8,1,4.1,1.6L105.7,150.9z M106.6,151.2c0.7,0.3,1.5,0.5,2.2,0.9
			c0.3,0.1,0.6,0.3,0.9,0.4l-0.4-0.9c-0.1,0-0.2-0.1-0.3-0.1c-0.7-0.3-1.4-0.6-2.1-0.9l-0.4,0.1l-1,0.2c0.1,0,0.2,0,0.2,0.1
			C106.1,151.1,106.4,151.2,106.6,151.2z M107,150.7c0.7,0.2,1.4,0.5,2.1,0.9c0.1,0,0.2,0.1,0.3,0.1l-0.5-1.3L107,150.7z"/>
		<path id="path301" class="st0" d="M108.8,150.4l1.9,0.9c-0.3,0.5-0.6,0.9-1,1.3C109.4,151.8,109,151.1,108.8,150.4L108.8,150.4z"
			/>
		<path id="path303" class="st1" d="M108.8,152.1c-0.7-0.3-1.5-0.6-2.2-0.9c-0.3-0.1-0.5-0.2-0.8-0.2l-0.2-0.1
			c1.4,0.5,2.7,1.1,4.1,1.6C109.5,152.4,109.2,152.3,108.8,152.1C108.9,152.1,108.9,152.1,108.8,152.1z"/>
		<path id="path305" class="st6" d="M63.9,135.9c-2.7-4.8-4.6-9.9-5.1-15.1c1.7,0,3.4,0,5.1,0L63.9,135.9z"/>
		<path id="path307" class="st6" d="M136.1,120.7l0,15.2c2.7-4.8,4.6-10,5.2-15.2C139.5,120.7,137.8,120.7,136.1,120.7L136.1,120.7z
			"/>
		<path id="path309" class="st0" d="M100.5,154.7c-3.3,0-5.9,0.5-5.9,1.2c0,0.7,2.7,1.2,5.9,1.2s5.9-0.5,5.9-1.2
			C106.4,155.3,103.8,154.7,100.5,154.7z"/>
		<g id="Layer1029">
			<path id="path311" d="M42.8,55.6c1.7,3,3.3,6,4.8,9.1c0.7,1.3,0.2,2.7-1.4,2.8c-13.7,1.4-26.9,5.7-39.3,11.3l0,0l0,0
				c-0.9,0.3-1.9,0.3-2.4-0.5c-0.4-0.6-0.3-1.3,0-1.8c2-4.1,4-8.3,5.8-12.5c-3-0.8-6-1.7-9-2.5c-1.3-0.4-1.6-1.8-0.6-2.7
				c10.9-9.6,24.4-15.6,37.9-20.6c0.1-2.5,0.1-5,0.2-7.6c0-1.2,0.7-2,1.9-2.2c19.5-4.4,39.4-7,59.5-7c20,0,39.9,2.6,59.4,7
				c1.2,0.3,1.8,1.1,1.9,2.2c0.1,2.5,0.1,5,0.2,7.6c13.5,5,27,11,37.9,20.6c1,0.8,0.8,2.3-0.6,2.7c-3,0.8-6,1.7-9,2.5
				c1.8,4.2,3.8,8.4,5.8,12.5c0.3,0.6,0.4,1.3,0,1.8c-0.6,0.8-1.6,0.9-2.4,0.5l0,0l0,0c-12.4-5.7-25.7-10-39.3-11.3
				c-1.6-0.1-2.1-1.5-1.5-2.8c1.5-3.1,3.1-6.1,4.8-9.1c-18.8-4.3-37.9-6.8-57.2-6.8C80.7,48.8,61.6,51.3,42.8,55.6L42.8,55.6z"/>
		</g>
		<path id="path314" class="st0" d="M100,47.5c19.6,0,39,2.6,58.1,7c0.6,0.1,0.9,0.5,0.7,0.9c-1.8,3.3-3.6,6.6-5.3,9.9
			c-0.3,0.5-0.3,0.9,0.4,1c13.2,1.3,26.5,5.4,39.7,11.5c0.8,0.3,1.1-0.1,0.8-0.6c-2.2-4.4-4.2-8.7-6.1-13.3
			c-0.2-0.3-0.2-0.7,0.4-0.9c3.2-0.9,6.5-1.8,9.7-2.7c0.4-0.1,0.3-0.3,0.1-0.5c-10.6-9.3-23.9-15.4-38-20.5
			c-0.3-0.2-0.4-0.5-0.4-0.8c-0.1-2.6-0.1-5.2-0.2-7.8c0-0.6-0.2-0.9-0.9-1c-19.1-4.3-38.9-7-59.1-7c-20.2,0-40,2.7-59.2,7
			c-0.6,0.1-0.8,0.5-0.9,1c-0.1,2.6-0.1,5.2-0.2,7.8c0,0.3-0.1,0.6-0.4,0.8c-14.1,5.1-27.4,11.2-38,20.5c-0.2,0.2-0.3,0.4,0.1,0.5
			c3.2,0.9,6.5,1.8,9.7,2.7c0.6,0.2,0.6,0.5,0.4,0.9c-2,4.5-4,8.9-6.1,13.3c-0.3,0.5,0,0.9,0.8,0.6c13.2-6.1,26.5-10.1,39.7-11.5
			c0.7-0.1,0.7-0.5,0.4-1c-1.7-3.3-3.4-6.6-5.3-9.9c-0.2-0.3,0.2-0.7,0.7-0.9C61,50,80.4,47.5,100,47.5L100,47.5z"/>
		<path id="path316" class="st12" d="M155.1,65c12.9,1.4,25.4,5.4,37.3,10.6c-1.8-3.7-3.5-7.5-5.2-11.2c-0.7-1.1-0.1-2.3,1.1-2.7
			l0,0c2.6-0.7,5.3-1.5,7.9-2.2c-10.5-8.7-23.4-14.4-36.1-19l-0.1,0l-0.1-0.1c-0.7-0.4-1-1.1-1-1.9c-0.1-2.5-0.1-5.1-0.2-7.6
			C139.4,26.6,119.8,24,100,24c-19.8,0-39.4,2.6-58.7,6.9c-0.1,2.5-0.1,5.1-0.2,7.6c0,0.8-0.4,1.5-1,1.9L40,40.4l-0.1,0
			c-12.7,4.7-25.6,10.3-36.1,19c2.6,0.7,5.3,1.5,7.9,2.2l0,0c1.3,0.4,1.8,1.6,1.1,2.7c-1.6,3.8-3.4,7.5-5.2,11.2
			C19.5,70.4,32,66.5,44.9,65c-1.6-3.1-3.2-6.1-4.9-9.1c-0.7-1.2,0.3-2.5,1.5-2.7c19.2-4.4,38.7-7,58.4-7c19.7,0,39.2,2.6,58.3,7
			c1.3,0.3,2.3,1.5,1.6,2.7C158.2,58.9,156.6,62,155.1,65z"/>
		<path id="path318" class="st0" d="M41.1,38.5l0,16.6l-1.3-0.2l0-16.4L41.1,38.5z"/>
		<path id="path320" class="st0" d="M158.9,38.5l0,16.6l1.3,0l0-16.6L158.9,38.5z"/>
		<path id="path322" class="st11" d="M30.7,51.1c4.1,3,5.1,8.8,2.1,12.9c0,0,0,0,0,0c-3,4.1-8.8,5.1-12.9,2.1
			c-4.1-3-5.1-8.8-2.1-12.9C20.7,49.1,26.5,48.1,30.7,51.1z"/>
		<path id="path324" class="st0" d="M27.7,51.5l3.4,2.5L31,56.6l-2.2,0.7l0,0l-3.5-2.5l0,0l0-2.3L27.7,51.5z M31.5,63
			C31.5,63,31.5,63,31.5,63l1.1,0.9c-0.2,0.3-0.4,0.6-1.1,1.3c-0.7,0.7-2.2,1.7-3.5,2.1l-0.5-1.3l0,0l1.5-2.3 M28.9,63.4l-0.1,0.1
			l-1.4,2.2l-4.2,0l-1.4-2.1l1.5-2.1l4,0l0.5,0.7l1,1.4L28.9,63.4l-1.4-1.9l0.1,0l1.3-4l2.3-0.7l1.6,2l-0.3,1l0,0l0,0l-1,3
			L28.9,63.4z M19.5,56.5L19.4,55l-0.1-0.9l0.1-0.1l2.4-1.8l0.9-0.7l2.4,0.9l0,2.4l-3.3,2.5l0,0.1l-2.4-0.8L19.5,56.5z M19.2,55.1
			l0.1,1.5l0,0.2l-1.6,2l0,0.1l-1.4,0c0-1.2,0.2-2.5,0.7-3.7c0.3-0.7,0.6-1.2,1-1.7l1.1,0.8l0,0L19.2,55.1z M32.5,53.2
			c1.2,1.6,1.8,3.5,1.8,5.4l-1.4,0l0,0l-1.7-2l0.1-2.6l0,0L32.5,53.2z M22.6,67.3C21.7,67,20.8,66.5,20,66c-0.8-0.6-1.5-1.3-2.1-2.1
			l1.1-0.8l0,0l2.5,0.7l1.4,2.1l0,0L22.6,67.3z M22.4,50.1c1.8-0.6,3.8-0.6,5.7,0l-0.4,1.3l0,0l-2.5,1l-2.4-0.9l0,0L22.4,50.1z
			 M21.9,57.6l-2.5-0.8l-1.6,2l1.3,4.1l2.5,0.7l1.5-2.1L21.9,57.6z"/>
		<g id="Layer1030">
			<path id="path326" class="st11" d="M181.3,51.9c3.6,3.6,3.6,9.5-0.1,13.1c-3.6,3.6-9.5,3.6-13.1-0.1c-3.6-3.6-3.6-9.5,0.1-13.1
				S177.7,48.3,181.3,51.9C181.3,51.9,181.3,51.9,181.3,51.9z"/>
			<path id="path328" class="st0" d="M178.3,51.9l3,3l-0.6,2.5l-2.2,0.3l0,0l-3.1-3.1l0,0l0.4-2.3L178.3,51.9z M180.1,63.8
				C180.1,63.8,180.1,63.8,180.1,63.8l1,1.1c-0.2,0.2-0.5,0.5-1.3,1.1c-0.8,0.5-2.4,1.3-3.8,1.5l-0.2-1.4l0,0l1.8-2 M177.5,63.8
				l-0.1,0.1l-1.8,1.9l-4.2-0.7l-1-2.3l1.9-1.8l3.9,0.6l0.4,0.8l0.8,1.5L177.5,63.8l-1.1-2.2l0.1,0l1.9-3.7l2.4-0.4l1.3,2.2
				l-0.5,0.9l0,0l0,0l-1.4,2.8L177.5,63.8z M169.3,55.4l0.2-1.5l0.1-0.9l0.1-0.1l2.7-1.3l1-0.5l2.2,1.3l-0.4,2.4l-3.7,1.9l0,0.1
				l-2.2-1.2L169.3,55.4z M169.3,53.9l-0.2,1.5l0,0.2l-1.9,1.7l-0.1,0l-1.4-0.3c0.2-1.2,0.6-2.4,1.3-3.5c0.5-0.7,0.8-1.1,1.3-1.5
				l1,1l0,0L169.3,53.9z M182.7,54.3c0.9,1.8,1.2,3.7,0.9,5.6l-1.4-0.2l0,0l-1.3-2.3l0.6-2.5l0,0L182.7,54.3z M170.7,66.5
				c-0.9-0.4-1.7-1-2.4-1.7c-0.7-0.7-1.3-1.5-1.7-2.4l1.2-0.6l0,0l2.4,1.1l1,2.4l0,0L170.7,66.5z M173.3,49.5c1.9-0.3,3.9,0,5.6,0.9
				l-0.6,1.2l0,0l-2.6,0.5l-2.2-1.3l0,0L173.3,49.5z M171.6,56.9l-2.3-1.2l-1.9,1.7l0.6,4.2l2.3,1.1l1.9-1.8L171.6,56.9z"/>
		</g>
	</g>
	<g id="Layer1031">
		<path id="path332" class="st0" d="M45.3,40.8l0.3-0.1c0.5-0.1,1-0.4,1.5-0.5l0.7-0.1l0.2,6.2v0c0,1.5-1.1,3.3-2.7,3.6
			C44.6,50,44,49.5,43.5,49c-0.5-0.6-0.7-1.4-0.8-2.1l-0.4-11.8l0.5-0.1c0.5-0.1,1-0.4,1.6-0.5l0.6-0.1L45.3,40.8z"/>
	</g>
	<path id="path335" class="st13" d="M43,35.6c0.5-0.1,1-0.4,1.5-0.5l0.4,11.2c0,0.4,0.3,0.7,0.5,0.7c0.3-0.1,0.5-0.4,0.5-0.7l-0.2-5
		c0.5-0.1,1-0.4,1.5-0.5l0.2,5.5c0,1.5-1.2,2.9-2.2,3c-0.8,0.1-1.9-1.1-1.9-2.4L43,35.6z"/>
	<g id="Layer1032">
		<path id="path337" class="st0" d="M114.2,34.3l0.4-0.1c0.6-0.1,1.1,0,1.6,0l0.6,0l0,5.2l0,0c0,1.6-0.5,3.7-2.5,3.5
			c-0.7,0-1.3-0.5-1.8-1c-0.5-0.6-0.9-1.4-1-2.2l-0.2-12.1l0.5-0.1c0.6-0.1,1.1,0,1.6,0l0.6-0.1L114.2,34.3z"/>
	</g>
	<path id="path340" class="st13" d="M112,28.1c0.5-0.1,1,0.1,1.5,0l0.2,11.2c0,0.4,0.3,0.8,0.6,0.7c0.3,0,0.4-0.4,0.4-0.7l0-4.5
		c0.5-0.1,1,0,1.5,0l0,4.6c0,1.5-0.4,3.1-1.8,3c-0.8,0-2.2-1.2-2.2-2.6L112,28.1z"/>
	<g id="Layer1033">
		<path id="path342" class="st0" d="M51.6,46.4c0,0.9-0.4,2.1-1.4,2.1c-1,0-1.5-1.2-1.5-2.1c0-0.9,0.4-2.1,1.4-2.1
			C51.1,44.3,51.6,45.5,51.6,46.4L51.6,46.4z"/>
	</g>
	<path id="path345" class="st13" d="M49.2,46.4c0-0.8,0.4-1.5,0.9-1.5c0,0,0,0,0,0c0.5,0,0.9,0.7,0.9,1.5c0,0.8-0.4,1.5-0.9,1.5
		C49.6,47.9,49.2,47.2,49.2,46.4z"/>
	<g id="Layer1034">
		<path id="path347" class="st0" d="M61.1,44.1c0,0.9-0.4,2.1-1.4,2.1c-1,0-1.5-1.2-1.5-2.1c0-0.9,0.4-2.1,1.4-2.1
			C60.6,42,61,43.2,61.1,44.1L61.1,44.1z"/>
	</g>
	<path id="path350" class="st13" d="M58.7,44.1c0-0.8,0.4-1.5,0.9-1.5c0.5,0,0.9,0.7,0.9,1.5c0,0.8-0.4,1.5-0.9,1.5
		C59.1,45.6,58.7,44.9,58.7,44.1C58.7,44.1,58.7,44.1,58.7,44.1z"/>
	<g id="Layer1035">
		<path id="path352" class="st0" d="M56.6,37.6c0.4,0.4,0.6,0.9,0.6,1.4l0.2,4.8v0c0,0.7-0.3,1.3-0.6,1.9c-0.5,0.7-1.3,1.6-2.2,1.6
			c-1.5,0-2.5-1.8-2.5-3.1l-0.1-3.1l0.5-0.1c0.5-0.1,1-0.4,1.6-0.4l0.5-0.1l0-1.2l0,0c0,0,0,0,0-0.1c0,0-0.1,0-0.1,0l-0.6,0l0-0.6
			c0-0.6,0-1.1-0.1-1.7l0-0.6l0.6,0c0,0,0,0,0.1,0c0-0.1,0-0.1,0-0.2l-0.2-4.4l0.5-0.1c0.6-0.1,1-0.4,1.7-0.4l0.6,0l0.2,4.7
			C57.1,36.6,56.9,37.1,56.6,37.6L56.6,37.6z"/>
	</g>
	<path id="path355" class="st13" d="M54.8,32.4c0.5-0.1,1-0.3,1.6-0.4l0.1,4.1c0,0.8-0.4,1.4-0.8,1.6c0.5,0.2,0.9,0.9,0.9,1.4
		l0.2,4.8c0,1.3-1.4,2.9-2.3,2.9c-1.1,0-1.9-1.5-1.9-2.6l-0.1-2.6c0.5-0.1,1-0.4,1.6-0.4l0.1,2.6c0,0.3,0.3,0.5,0.5,0.5
		c0.2,0,0.5-0.3,0.5-0.5L55,39.4c0-0.4-0.2-0.7-0.7-0.7c0-0.6,0-1.1-0.1-1.7c0.4,0,0.6-0.2,0.6-0.8L54.8,32.4z"/>
	<g id="Layer1036">
		<path id="path357" class="st0" d="M71.9,37.3c0,2,0.1,4,0.1,6l0,0.6l-0.6,0c0,0-0.1,0-0.1,0c-0.5,0.1-0.9,0.3-1.5,0.1l-0.4-0.1
			l0,0.3l-0.6,0c-0.5,0-1.1,0.3-1.7,0.3l-0.6,0l0-0.6c-0.1-3.6-0.2-7.2-0.3-10.7l0,0c0-1.9,0.7-4,2.8-4.3l0,0
			c1.5-0.2,2.7,1.4,2.7,2.8c0,1.4-0.8,2.7-2,3.4C70.9,35,71.9,36.2,71.9,37.3L71.9,37.3z M69.3,41.5c0-1-0.1-2-0.1-2.9c0,0,0,0,0,0
			L69.3,41.5z"/>
	</g>
	<path id="path360" class="st13" d="M67.1,44c-0.1-3.6-0.2-7.2-0.3-10.7c0-2.4,1-3.5,2.3-3.7c1.2-0.2,2,1.1,2,2.2
		c0,1.5-1.1,3-2.7,3.2l0,1c0,0.3,0.1,0.5,0.4,0.2c0.3-0.2,0.5-0.4,0.8-0.5c0.9-0.1,1.6,1,1.5,1.6c0,2,0.1,4,0.1,6
		c-0.5,0-1,0.3-1.4,0.2c0-1.7-0.1-3.3-0.1-5.1c0-0.2-0.2-0.5-0.6-0.5c-0.2,0.1-0.7,0.3-0.6,0.7l0.2,5C68.2,43.7,67.7,43.9,67.1,44
		L67.1,44z"/>
	<g id="Layer1037">
		<path id="path362" class="st0" d="M126.5,38.8C126.5,38.8,126.5,38.9,126.5,38.8l0.1,5.4l0-0.2C126.6,42.2,126.5,40.5,126.5,38.8
			L126.5,38.8z M126.6,44.2l-0.5,0c-0.5,0-0.8-0.1-1.2-0.2c-0.1,0-0.3-0.1-0.4-0.1l-0.5,0l0-0.5c-0.1-3.4-0.2-6.7-0.3-10l0,0
			c0-1.7,0.3-4.2,2.4-4.4c1.7-0.2,3.1,1.6,3.1,3.2c0,1.7-0.6,2.9-2,3.1c1,0.1,2,1.1,2.1,2l0,0l0.2,7.1l-0.5,0.1
			c-0.6,0.1-1-0.1-1.6,0l-0.6,0L126.6,44.2z"/>
	</g>
	<path id="path365" class="st13" d="M124.4,43.5c-0.1-3.6-0.2-6.5-0.3-10c0-2.4,0.6-3.7,1.9-3.8c1.3-0.1,2.4,1.3,2.5,2.6
		c0,1.3-0.3,2.8-2.6,2.6l0,1.1c0,0.3,0.4,0,1.1,0c0.7,0,1.5,0.8,1.6,1.5l0.2,6.5c-0.5,0.1-0.9-0.1-1.5-0.1c0-1.7-0.1-3.6-0.1-5.3
		c0-0.2-0.1-0.5-0.6-0.5c-0.3,0.1-0.6,0.3-0.6,0.7l0.1,4.8C125.4,43.7,125,43.5,124.4,43.5z"/>
	<path id="path367" class="st0" d="M68.4,32.5l0.1,1.7c0,0.2,0.3,0.1,0.4,0c0.4-0.4,0.8-1,0.8-1.7c0.1-0.5-0.1-1-0.5-0.9
		C68.7,31.6,68.4,32,68.4,32.5z"/>
	<path id="path369" class="st0" d="M125.8,32.5l0.1,1.7c0,0.2,0.3,0.1,0.4,0c0.4-0.4,0.7-1,0.8-1.5c0-0.5-0.2-0.9-0.7-0.9
		C125.9,31.7,125.8,32,125.8,32.5L125.8,32.5z"/>
	<g id="Layer1038">
		<path id="path371" class="st0" d="M75.7,43.3l-0.4,0c-0.5,0-0.9,0.3-1.5,0.3l-0.6,0l-0.3-12.9c0-1.4,0.9-2.6,2.3-2.8
			c0.6-0.1,1.3,0.2,1.8,0.6c0.6,0.5,1,1.2,1,2c0.1,4,0.2,7.9,0.3,11.9l0,0.6l-0.6,0c-0.5,0-0.9,0.2-1.4,0.3L75.7,43.3L75.7,43.3z"/>
	</g>
	<path id="path374" class="st13" d="M73.7,43l-0.3-12.3c0-1.1,0.8-2,1.8-2.2c0.8-0.1,2.1,0.8,2.1,2.1c0.1,4,0.2,7.9,0.3,11.9
		c-0.5,0-0.9,0.2-1.4,0.3l-0.3-11.5c0-0.3-0.2-0.8-0.5-0.7c-0.5,0.1-0.5,0.6-0.5,0.9l0.3,11.3C74.6,42.8,74.2,43,73.7,43L73.7,43z"
		/>
	<g id="Layer1039">
		<path id="path376" class="st0" d="M81.9,32.6C81.9,32.6,81.9,32.6,81.9,32.6l0.2-0.3h0.3c0.5,0,1-0.1,1.5,0l1,0.1l-1.3,1.9
			c0.2,0.1,0.3,0.3,0.5,0.5c0.5,0.8,0.5,2.3,0.5,3.2c0,1.7-0.3,4.6-2.5,4.9l0,0l0,0c-1.7,0.1-2.7-1.9-2.7-3.3
			c-0.1-3.8-0.1-7.6-0.2-11.4l0-0.6l0.6,0c0.5,0,1-0.1,1.6-0.1l0.5,0L81.9,32.6z"/>
	</g>
	<path id="path379" class="st13" d="M79.9,39.5c-0.1-3.8-0.1-7.6-0.2-11.4c0.5,0,1-0.1,1.5-0.1l0.1,6.1c0,0.2,0.1,0.3,0.3,0.1
		c0.3-0.4,0.5-0.9,0.8-1.3c0.5,0,0.9-0.1,1.4,0l-1.1,1.6c0.4,0.3,1.3-0.1,1.2,3.5c-0.1,2.9-0.8,4.2-2,4.3
		C80.9,42.3,79.9,41,79.9,39.5L79.9,39.5z"/>
	<g id="Layer1040">
		<path id="path381" class="st0" d="M132.9,35.6l0.2-0.3l2.9,0.3l-1.4,1.6c0.2,0.2,0.3,0.3,0.4,0.5c0.4,0.8,0.5,2.3,0.5,3.2
			c0,1.6,0.1,4.5-2.1,4.7c-1.8,0.2-2.9-2.2-3-3.7c-0.1-3.8-0.2-7.7-0.3-11.5l0-0.8l0.8,0.3c0.2,0.1,0.4,0.1,0.6,0.1
			c0.3,0,0.6,0.1,0.9,0.2l0.3,0.2L132.9,35.6z"/>
	</g>
	<path id="path384" class="st13" d="M131,42c-0.1-3.8-0.2-7.8-0.3-11.5c0.5,0.2,1,0.1,1.5,0.3l0.1,6c0,0.2,0.1,0.4,0.3,0.2l0.8-1
		l1.4,0.1l-1.1,1.3c0.4,0.3,1.1,0,1.2,3.6c0.1,2.9-0.4,4-1.6,4.1C132.2,45.2,131.1,43.5,131,42L131,42z"/>
	<path id="path386" class="st0" d="M81.4,37.3c0-0.3,0.2-0.8,0.5-0.8c0.4-0.1,0.6,0.4,0.6,0.8l0,1.9c0,0.4-0.2,0.7-0.6,0.7
		c-0.3,0-0.6-0.3-0.6-0.6V37.3z"/>
	<path id="path388" class="st0" d="M132.4,39.9c0-0.3,0.2-0.6,0.5-0.6c0.4,0,0.6,0.3,0.6,0.8l0,1.9c0,0.4-0.2,0.7-0.6,0.7
		c-0.4,0-0.5-0.3-0.6-0.7L132.4,39.9z"/>
	<g id="Layer1041">
		<path id="path390" class="st0" d="M87.7,27.5c0,0,0.1-0.1,0.1-0.1c0.3-0.2,0.6-0.3,1-0.3c1,0,2.1,1,2.1,2l0.2,10.3
			c0,1.5-1,3-2.6,3.1c-1.5,0.1-2.6-1.9-2.6-3.2l0-3.4l2.5,0l0,3c0,0,0,0,0,0c0,0,0,0,0-0.1c0-2-0.1-4.1-0.1-6.1l-1.8,0l0-2.1
			c-0.1,0.1-0.3,0.1-0.5,0.1c-0.4,0-0.8-0.2-1.1-0.4l-0.3-0.2l0-0.3c0-0.7,0-1.4,0-2.1l0-0.6l0.6,0c0.4,0,0.5,0.1,0.7,0.3
			c0.1,0,0.1-0.1,0.1-0.1c0.2-0.2,0.5-0.3,0.8-0.3c0.2,0,0.4,0,0.5,0.1C87.6,27.3,87.6,27.4,87.7,27.5L87.7,27.5z"/>
	</g>
	<path id="path393" class="st13" d="M85.3,27.8c0.3,0,0.4,0.4,0.6,0.4c0.3,0,0.6-0.5,1-0.5c0.4,0,0.6,0.6,0.9,0.6
		c0.3,0,0.3-0.6,1.1-0.6c0.8,0,1.5,0.9,1.5,1.5l0.2,10.3c0,1-0.6,2.4-2.1,2.5c-1.2,0.1-2-1.7-2-2.6l0-2.8l1.4,0l0,2.5
		c0,0.3,0.3,0.6,0.6,0.6c0.3,0,0.6-0.4,0.6-0.7c-0.1-2.9-0.1-5.7-0.2-8.6c0-0.2-0.1-0.4-0.3-0.4c-0.2,0-0.4,0.2-0.4,0.4l0,1.9l-1,0
		l0-2c0-0.2-0.1-0.3-0.3-0.3c-0.2,0-0.2,0.3-0.8,0.3c-0.3,0-0.7-0.2-0.8-0.3C85.3,29.2,85.3,28.6,85.3,27.8L85.3,27.8z"/>
	<g id="Layer1042">
		<path id="path395" class="st0" d="M95.3,29l0-2.2l2.9-0.1l0.1,2.7c0,0.9-1.2,2.5-1.7,3.2c-0.2,0.2-0.3,0.5-0.5,0.7
			c0.1,0,0.2,0.1,0.2,0.1c0.3-0.3,0.8-0.5,1.4-0.5c1.5,0,2.4,1.7,2.5,3l0,0l0.1,6L97.6,42l-0.1-2.7l-2.4,0L95,36.9
			c0-0.1,0-0.2,0-0.4c0,0.1,0,0.1,0,0.2l0.1,5.2L92.3,42l-0.1-5.3c0-1.2,0.2-2.5,0.9-3.6l2.1-3.5C95.2,29.4,95.3,29.2,95.3,29
			L95.3,29z"/>
	</g>
	<path id="path398" class="st13" d="M92.9,41.4l-0.1-4.8c0-1.2,0.2-2.4,0.8-3.3l2.1-3.5c0.2-0.3,0.2-0.5,0.2-0.8l0-1.7l1.8-0.1
		l0.1,2.1c0,0.8-1.8,3-2.8,4.4c0.7-0.3,1.2,0,1.4,0.6c0.2-0.6,0.5-1,1.3-1c0.9,0,1.8,1.1,1.9,2.4l0.1,5.5l-1.4,0L98,36.7
		c0-0.4-0.2-0.9-0.6-0.8c-0.4,0-0.5,0.5-0.5,0.8l0.1,2.1l-1.3,0l-0.1-1.8c0-0.4-0.1-1.1-0.6-1.1c-0.5,0-0.6,0.5-0.6,0.9l0.1,4.6
		L92.9,41.4z"/>
	<g id="Layer1043">
		<path id="path400" class="st0" d="M146.3,39.8c0.1,0.1,0.2,0.2,0.2,0.3c0.4-0.2,0.8-0.2,1.3-0.1c0.6,0.2,1.1,0.6,1.5,1.1
			c0.4,0.5,0.9,1.5,0.9,2.1l0.1,6.6l-0.8-0.4c-0.4-0.2-1,0-1.5-0.3l-0.3-0.2l-0.1-2.9l-0.6,0c-0.6,0-0.9-0.3-1.4-0.3l-0.5-0.1l0-2.2
			c0,0,0-0.1,0-0.1c0,0.1,0,0.2,0,0.2l0.1,4.8l-0.8-0.2c-0.6-0.2-1.4-0.1-1.9-0.6l-0.2-0.2l-0.1-5.1c0-1.2,0-2,0.7-3l0,0l2.2-3
			c0.1-0.2,0.2-0.4,0.2-0.6l0-2l0.6,0c0.7,0,1.2,0.3,1.8,0.3l0.6,0l0,2.5C148.4,37.3,147.3,38.8,146.3,39.8L146.3,39.8z"/>
	</g>
	<path id="path403" class="st13" d="M143,47l-0.1-4.9c0-1.2,0-1.8,0.6-2.7l2.2-3c0.2-0.2,0.3-0.6,0.3-1l0-1.5c0.7,0,1.1,0.3,1.8,0.3
		l0,1.9c0.1,1.2-1.6,3.1-2.8,3.9c0.8-0.1,1.1,0.2,1.3,1c0.4-0.5,0.7-0.7,1.4-0.5c1.2,0.3,1.9,2.1,1.9,2.7l0.1,5.7
		c-0.4-0.2-1.1-0.1-1.5-0.3l-0.1-4.8c0-0.4-0.2-1-0.5-1c-0.4-0.1-0.6,0.3-0.6,0.5l0.1,2.1c-0.5,0-0.9-0.3-1.4-0.3l0-1.7
		c0-0.4-0.2-1.3-0.7-1.2c-0.5,0-0.5,1-0.5,1.4l0.1,4C144.1,47.3,143.3,47.4,143,47L143,47z"/>
	<g id="Layer1044">
		<path id="path405" class="st0" d="M103,35.4l0-1.9l-1.9-3.2l0-3.5l2.7,0v0.6c0,0.7,0,1.3,0,2c0.6,1.1,1.3,2.1,1.9,3.2l0.1,0.1v7
			c0,1.1-1.2,2.5-2.4,2.5c-1.2,0-2.3-1.4-2.6-2.5c-0.1-0.4-0.2-0.7-0.2-1.1l-0.1-3.2L103,35.4z"/>
	</g>
	<path id="path408" class="st13" d="M101,36l1.6,0l0,2.5c0,0.4,0.3,0.9,0.6,0.9c0.3,0,0.5-0.3,0.5-0.6l-0.1-5.4l-1.9-3.2l0-2.7
		l1.5,0c0,0.7,0,1.5,0,2.2c0.7,1.1,1.3,2.2,2,3.3v6.8c0,0.9-1.1,1.9-1.8,1.9c-1,0-2.2-1.5-2.2-3L101,36z"/>
	<g id="Layer1045">
		<path id="path410" class="st0" d="M119.9,36.8l0-1.9l-1.8-3.2l0-3.5l2.7,0v0.6c0,0.7,0,1.3,0,2c0.6,1.1,1.1,2.2,1.8,3.2l0.1,0.1
			l0.1,6.7c0,1.1-1,2.7-2.2,2.7c-1.1,0.1-2.1-1.2-2.6-2c-0.4-0.6-0.6-1.4-0.6-2.2l0-2.6L119.9,36.8z"/>
	</g>
	<path id="path413" class="st13" d="M117.9,37.3l1.6,0l0,2.5c0,0.4,0.3,0.9,0.6,0.9c0.3,0,0.5-0.3,0.5-0.6l-0.1-5.4l-1.8-3.2l0-2.7
		l1.5,0c0,0.7,0,1.5,0,2.2c0.7,1.1,1.2,2.2,1.8,3.3l0.1,6.5c0,0.9-0.9,2.1-1.6,2.2c-1.1,0.1-2.7-2.1-2.6-3.6L117.9,37.3z"/>
	<g id="Layer1046">
		<path id="path415" class="st0" d="M138.5,40l-0.1-4.5c0,0.2,0,0.4,0,0.5l0,0.9l-0.8-0.3c-0.5-0.2-1-0.1-1.6-0.4l-0.3-0.2l0-0.3
			c0-1.4,0.7-4.2,2.4-4.2c1.6-0.1,2.9,2.4,2.9,3.8l0.2,8.7c0.1,1.3-0.6,3-2.1,3c-1.6,0.1-3.1-2.7-3.1-4.2l-0.1-3.6l0.8,0.4
			c0.4,0.2,1,0.2,1.5,0.4L138.5,40z"/>
	</g>
	<path id="path418" class="st13" d="M136.3,35.6c0-1.5,0.7-3.6,1.8-3.6c1.1,0,2.3,1.9,2.3,3.2l0.2,8.7c0,1-0.5,2.4-1.6,2.4
		c-1.1,0-2.5-2.2-2.5-3.6l0-2.7c0.5,0.2,1,0.2,1.5,0.4l0,2.3c0,0.5,0.3,1.3,0.7,1.3s0.4-0.7,0.4-1.1l-0.1-7.9c0-0.4-0.2-0.9-0.6-0.8
		c-0.3,0-0.6,1-0.6,1.9C137.3,35.8,136.7,35.8,136.3,35.6L136.3,35.6z"/>
	<g id="Layer1047">
		<path id="path420" class="st0" d="M153.1,43.9l-0.1-3.2l-0.7-0.3c-0.5-0.2-1-0.1-1.6-0.4l-0.3-0.2l0-0.3c0-1.4,0.5-4.3,2.4-4.2
			c1.5,0.1,2.8,2.3,2.8,3.7l0.2,8.7c0.1,1.3-0.4,3.2-2,3.3c-1.7,0.1-3.2-3-3.3-4.4l0-3.4l0.8,0.4c0.4,0.2,1,0.2,1.5,0.4L153.1,43.9z
			"/>
	</g>
	<path id="path423" class="st13" d="M151,39.4c0-1.5,0.5-3.7,1.8-3.6c1.3,0.1,2.3,2.2,2.3,3.1l0.2,8.7c0,1-0.3,2.6-1.4,2.7
		c-1.1,0-2.6-2.4-2.7-3.8l0-2.5c0.5,0.2,1,0.2,1.5,0.4l0,2.1c0,0.5,0.3,1.5,0.7,1.5c0.4,0,0.4-0.5,0.4-1l-0.2-8.2
		c0-0.3-0.1-0.7-0.5-0.7c-0.4,0-0.5,0.9-0.5,1.7C152,39.6,151.4,39.6,151,39.4L151,39.4z"/>
</g>
</svg>
