<?xml version="1.0" encoding="utf-8"?>
<!-- Generator: Adobe Illustrator 21.1.0, SVG Export Plug-In . SVG Version: 6.00 Build 0)  -->
<svg version="1.1" id="Layer_1" xmlns="http://www.w3.org/2000/svg" xmlns:xlink="http://www.w3.org/1999/xlink" x="0px" y="0px"
	 viewBox="0 0 200 200" style="enable-background:new 0 0 200 200;" xml:space="preserve">
<style type="text/css">
	.st0{fill:#F7DB16;}
	.st1{fill:#E91918;}
	.st2{fill:#1D117D;}
	.st3{fill:#FFFFFF;}
	.st4{fill-rule:evenodd;clip-rule:evenodd;fill:#F7DB16;}
	.st5{fill-rule:evenodd;clip-rule:evenodd;fill:#1D117D;}
	.st6{fill:#364B7F;}
	.st7{fill:url(#SVGID_1_);}
	.st8{fill:url(#SVGID_2_);}
	.st9{fill:url(#SVGID_3_);}
	.st10{fill:url(#SVGID_4_);}
	.st11{fill:url(#SVGID_5_);}
	.st12{fill:url(#SVGID_6_);}
	.st13{fill:url(#SVGID_7_);}
	.st14{fill:url(#SVGID_8_);}
</style>
<g>
	<path class="st0" d="M181,124.8c-0.3-12.8-3.8-20.9-7.5-29.4c-0.8-1.7-1.6-3.5-2.3-5.4c-2.1-5.1-4.3-11.1-4.5-16.7
		c-0.3-7.5,2.1-12.4,5.7-19.9l0.4-0.9l1.8-3.7h-4.1H29.6h-4.1l1.8,3.7l0.4,0.9c3.6,7.5,6,12.4,5.7,19.9C33.2,78.9,31,84.9,28.9,90
		c-0.8,1.9-1.6,3.7-2.3,5.4c-3.7,8.5-7.3,16.6-7.5,29.4c-0.2,9.5,1.3,17.2,4.7,24.3c4.2,8.6,11.2,16.6,22.1,25.2
		c7.3,5.7,15.5,10.8,24.3,15c8.4,4,17.7,7.4,27.7,10.1c0.2,0,0.3,0.1,0.5,0.1c0.3,0.1,0.7,0.2,1.1,0.3l0.6,0.1l0.6-0.1
		c0.4-0.1,0.7-0.2,1.1-0.3c0.2,0,0.3-0.1,0.5-0.1c9.9-2.7,19.3-6.1,27.7-10.1c8.9-4.2,17-9.3,24.3-15c10.9-8.6,17.9-16.6,22.1-25.2
		C179.7,142,181.2,134.3,181,124.8z"/>
	<path class="st1" d="M170.4,51.4c-3.8,8-6.7,13.6-6.4,22c0.2,5.6,2.2,11.5,4.7,17.6c4.6,11.1,9.3,19,9.7,33.9
		c0.2,8.9-1.2,16.4-4.5,23.1c-4.5,9.3-12.3,17.2-21.4,24.3c-14.7,11.5-31.9,19.5-51.1,24.7c-0.5,0.1-1,0.3-1.5,0.4
		c-0.5-0.1-1-0.3-1.5-0.4c-19.2-5.2-36.4-13.1-51.1-24.7c-9.1-7.1-16.9-15-21.4-24.3c-3.3-6.8-4.7-14.2-4.5-23.1
		c0.3-14.9,5.1-22.8,9.7-33.9c2.5-6.1,4.5-12,4.7-17.6c0.3-8.4-2.5-14-6.4-22H170.4"/>
	<path class="st0" d="M166.3,53.9H33.7c3,6.3,5.1,11.9,4.9,19.5c-0.2,6.4-2.6,13-4.9,18.5c-0.8,1.9-1.6,3.8-2.4,5.5
		c-3.7,8.4-6.8,15.6-7.1,27.4c-0.2,8.7,1.2,15.6,4.2,21.9c3.8,7.9,10.4,15.3,20.7,23.4c7,5.5,14.8,10.4,23.4,14.4
		c8.1,3.9,17.2,7.2,26.8,9.8c0.2,0,0.3,0.1,0.5,0.1c0.1,0,0.2,0.1,0.3,0.1c0.1,0,0.2-0.1,0.3-0.1c0.2,0,0.3-0.1,0.5-0.1
		c9.6-2.6,18.7-5.9,26.8-9.8c8.5-4.1,16.4-8.9,23.4-14.4c10.2-8.1,16.8-15.5,20.7-23.4c3.1-6.3,4.4-13.3,4.2-21.9
		c-0.3-11.8-3.4-19.1-7.1-27.4c-0.8-1.8-1.6-3.6-2.4-5.5c-2.3-5.5-4.7-12.1-4.9-18.5C161.2,65.8,163.4,60.3,166.3,53.9L166.3,53.9z"
		/>
	<path class="st2" d="M36,92.9c-0.8,1.9-1.6,3.8-2.4,5.6c-3.7,8.5-6.6,15.2-6.9,26.5c-0.2,8.2,1.1,14.8,4,20.8
		c3.7,7.5,10,14.7,19.9,22.5c6.8,5.4,14.5,10.1,22.9,14.1c8,3.8,16.9,7.1,26.4,9.7c0,0,0.1,0,0.1,0c0,0,0.1,0,0.1,0
		c9.5-2.6,18.4-5.8,26.4-9.7c8.4-4,16.1-8.7,22.9-14.1c9.9-7.8,16.3-15,19.9-22.5c2.9-5.9,4.1-12.5,4-20.8
		c-0.2-11.3-3.2-18-6.9-26.5c-0.8-1.8-1.6-3.6-2.4-5.6c-1.7-4.1-3.5-8.8-4.4-13.6H40.4C39.4,84.1,37.7,88.8,36,92.9z"/>
	<path class="st3" d="M157.5,131.9h7.8V95.7c-0.4-0.9-0.8-1.8-1.2-2.8c-1.5-3.5-2.9-7.4-3.9-11.5h-2.6V131.9z"/>
	<rect x="142" y="81.5" class="st3" width="7.8" height="50.4"/>
	<rect x="126.5" y="81.5" class="st3" width="7.7" height="50.4"/>
	<rect x="111" y="81.5" class="st3" width="7.7" height="50.4"/>
	<path class="st3" d="M34.8,131.7V148c2,3.2,4.5,6.5,7.7,9.7v-26H34.8z"/>
	<path class="st3" d="M50.3,131.7v33.1c0.6,0.5,1.2,1,1.9,1.5c1.9,1.5,3.9,2.9,5.9,4.3v-38.9H50.3z"/>
	<path class="st3" d="M65.8,131.7v43.8c2.5,1.4,5.1,2.8,7.7,4.1v-47.9H65.8z"/>
	<path class="st3" d="M81.3,131.7v51.4c2.5,1,5.1,2,7.7,3v-54.3H81.3z"/>
	<path class="st4" d="M149.4,112c1.1-1,2.3-0.8,3.9-1c1.6-0.1,3.5,0,5,0.1c3.1,0.3,4.6,8,4.1,10.9c-0.6,3.1-2.8,3-3.7,3.9
		c-1.4,1.4-2.2,4.5-3.9,4.8c-2.1,3.9-5.2,7-9.2,9c-0.2,0.8-0.4,1.7-0.6,2.5c1.2,0,2.3,0.4,2.4,1.9c0.1,2.3-0.7,5.2-2,7.1
		c-1.7,2.5-5.1,4.5-8.1,5c-5.1,0.8-10.2-2.2-15.1-3.4c-2.7-0.7-5.9-0.7-8.7-0.4c1,0.6,2.5,1.6,1.9,2.9c-0.3,0.6-0.8,0.9-1.5,0.9
		c-3.7,0.2-7,1.4-9.7,3.9c-2.9,2.6-5.3,6.9-6.8,10.4c-1.2,2.9-2.3,5.8-2.5,9c-0.1,0.8-0.3,1.5-1.2,1.8c-0.6,0.2-0.9,0-1.4-0.2
		c-7-3.1-13.9-8.8-18.5-14.8c-2.1-2.7-4.2-6.1-5-9.5c-0.8,0.5-1.7,1.3-2.1,2c-1.3,1.7-3.2,1-3.2-0.6c0-3.5,0.3-6.3,1.5-9.5
		c-1-1.3-1.8-2.6-2.4-4.1c-0.9,1-2.4,0.6-2.6-0.9c-0.6-3.6,0.8-7.9,2.8-11c-2.1-0.1-4.7-0.1-6.8,0.1c-1,0.1-2,0.3-3,0.6
		c-1.9,0.5-3-1.2-2.1-2.4c2-2.8,8.9-6.9,12.3-8.5c-3-0.1-5.5,0.1-8.3,0c-2.1,0-2.7-2.3-0.9-3.3c2.7-1.5,5.5-2.9,8.5-3.9
		c-2-0.3-1.9-2.1-1-2.8c2-1.4,6-2.4,8.5-2.9c0.1,0,0.4-0.1,0.6-0.2c-2.3-5.6-3.1-13.8-5-17.6c-0.1-0.2,0-0.1-0.3-0.2
		C64,91.3,63,89.7,64,88.6c0.8-0.9,2.9-0.8,4.1-0.9c2-0.1,3.9-0.1,5.9-0.1c3.1,0,6.1,2,8.7,3.5c3.4,2.1,6.8,3.8,9.9,6.3
		c3.9,3.2,4,3.4,9.1,4.3c3.3,0.6,13,2,15.9,2.8c1.6,0.4,2.6,2,3.5,3.2c0.5,0.8,1.9,2.8,2.9,3c2.5,0.6,3.8-1,7.4-0.8
		c2.6,0.2,4.5,2.3,5,2.4c0.3,0,1.5-0.9,3.5-1.2C141.9,111,146.7,111.8,149.4,112z"/>
	<path class="st5" d="M150,113.4c-3.8-0.1-7.9-1-10.1-0.8c-2,0.2-2.5,1.1-3.7,1.2c-1.1,0-2.7-2.2-5.1-2.4c-3.3-0.2-4.7,1.4-7.6,0.8
		c-2.6-0.6-4.3-5.6-6.4-6.3c-1.1-0.3-4-0.8-5.8-1.1c-5.1-0.9-11.3-1.6-14.4-2.7c-2.4-0.9-4.3-2.9-6.5-4.5c-2.8-2.1-5.8-3.6-8.5-5.2
		C79.1,90.6,76.6,89,74,89c-0.4,0-8.5,0-9,0.5c-0.2,0.2,0.2,0.8,0.8,1c0.7,0.3,0.8,0.5,1.1,0.9c2.1,4.2,2.8,12.2,5.1,17.9
		c0.3,0.8-0.1,1.6-1.8,1.9c-2.9,0.5-6.3,1.5-7.9,2.6c-0.2,0.2,0.2,0.3,0.8,0.3c1.1,0,2.9,0,4.1,0.2c0.8,0.1,1.3,0.9,0.1,1.2
		c-3.4,0.9-6.9,1.8-12.7,5.1c-0.6,0.3-0.4,0.6,0.2,0.7c1.7,0,9.5-0.4,11.9,0.4c0.2,0.1,0.5,0.3,0.4,0.5c-0.1,0.2-0.4,0.3-0.7,0.5
		c-1.2,0.6-3.3,1.4-5.6,2.8c-3,1.7-7.5,4.8-8.8,6.5c-0.1,0.2,0,0.4,0.5,0.2c1-0.3,2-0.5,3.3-0.6c3.1-0.2,7.4-0.3,8.9,0.2
		c0.3,0.1,0.2,0.3-0.2,0.9c-0.6,1-1.3,1.9-2.3,4.5c-0.8,2.1-1.2,4.7-0.9,6.6c0.1,0.7,0.4-0.7,1.2-1.5c1.2-1.1-0.1,1.3,3.9,6.3
		c0.1,0.2,0.1,0.1,0,0.5c-1.1,3-1.6,5.6-1.5,9.3c0,0.4,0.3,0.2,0.6-0.2c0.7-1,2.2-2.5,3.7-2.9c0.5-0.1,0.7,0.3,0.8,0.8
		c1.4,7.8,11.8,19,22.8,23.9c0.4,0.2,0.5,0.3,0.6-0.4c0.3-3.4,1.4-6.4,2.6-9.4c1.3-3.3,3.9-8,7.1-10.9c2.9-2.6,6.4-4,10.6-4.3
		c0.2,0,0.4-0.1,0.2-0.2c-0.6-0.6-1.8-1.6-4.1-2c-0.6-0.1-0.5-0.7-0.1-0.9c2.2-0.7,8.1-1.4,12.7-0.3c5.1,1.3,9.9,4.1,14.5,3.4
		c2.7-0.4,5.6-2.2,7.1-4.4c1.3-2,1.8-4.8,1.7-6.3c0-0.5-0.3-0.5-0.7-0.5c-1.1-0.1-2,0.3-1.8-0.4c0.3-1.3,0.4-2.5,0.8-3.9
		c0.1-0.4,0.3-0.6,0.6-0.8c4.5-2.3,7.2-5.6,8.9-8.9c0.3-0.6,0.7-0.1,1.1-0.5c1.3-1.5,1.5-2.8,2.9-4.2c1.3-1.3,2.8-0.8,3.3-3.2
		c0.6-2.8-1.2-9.1-2.8-9.3c-1.4-0.1-3.4-0.2-4.8-0.1C151.5,112.6,150.8,112.3,150,113.4z"/>
	<path class="st4" d="M75.7,93.9c1.5,1.7,2.8,3.3,4,5.2c2.1,3.6,5,8.8,6.2,13.7c0,0.1,0.2,0.6-0.5,0.7c-3.9,0.3-16.5,2-20.1,5.6
		c-0.2,0.2-0.2,0.3,0.1,0.4c2.5,0.9,10,1.9,12.2,2.2c0.3,0,0.2,0.3,0,0.4c-2.8,1-4.6,2-6.9,3.7c-1,0.7-1.7,1.2-2.5,2.1
		c-0.1,0.1-0.2,0.4,0.2,0.4c1-0.1,3.8-0.8,4.5-0.7c0.3,0,0,0.2-0.1,0.3c-4.8,2.8-6.9,5.2-8.1,7.6c-1.1,2.2-1.1,3.9-0.4,2.9
		c0.7-1,1.9-1.8,1.5-1.1c-0.9,1.6-1.5,5.6,1.1,10.1c0.1,0.2,0.3,0.3,0.4-0.1c1.3-3.8,3.6-6.6,6.4-9.4c2.7-2.6,5.3-4.6,6.7-5.4
		c0.5-0.3,0.4,0,0.2,0.2c-5.9,5.9-9,11.7-9.2,15.4c0,0.7,0.4,0.7,0.8,0.3c1.4-1.2,2.3-2,3.6-2.8c0.4-0.3,0.5-0.1,0.3,0.2
		c-2.5,3.9-2.5,8.7-1.3,13.2c1.9,6.8,7,13.4,13.5,17.6c1.4,0.9,2.8,1.7,4.3,2.5c0.3,0.2,0.5,0.2,0.5-0.1c0.1-1.3,0.2-2.8,0.4-4.3
		c1-7.5,4.4-16.3,8.9-19.9c0.4-0.3,0.7-0.6,0.4-0.8c-2.7-2.6-5.4-1.8-4.2-2.8c1.3-1.1,4.9-2.4,8.1-3c2.8-0.5,5.7-0.5,8.6-0.2
		c5.3,0.7,10.1,3.2,14.4,4.6c6.5,2.1,11.9,1.2,14.3-5.5c0.5-1.4-0.2-1.4-0.7-1.5c-1.4-0.1-4.4,0.3-8.9,0.3c-2.8,0-6.4-0.1-9.5-0.8
		c-5-1.1-13.3-4.4-16.4-7.6c-1.3-1.3-0.5-2.5,0.7-4.1c2.8-3.5,8.7-6.8,12.3-8.4c0.9-0.4,1.4-0.1,2,0.5c2.8,2.5,4.4,2.9,7.5,3.4
		c4.8,0.7,16.9-0.8,20.3-1.7c1.3-0.3,1.6-1,2-1.4c0.3-0.1,1.6,0.2,2.3-0.8c0.6-0.8-0.1-0.8-0.3-1.4c-0.1-0.3,0-0.7,0-1
		c0-0.4-0.9-0.6-1-1.2c-0.1-1.7,1.2-2.6,1.3-1.3l0,0.8c0,0.7,1.5,0.5,1.4-1.5c-0.1-1.5-1.4-1.9-2.5-2c-1.6-0.1-3.9,0.1-5.3,0.1
		c-1.1,0-0.8-0.9-0.8-1.5c-0.1-0.5-0.4-0.8-0.8-0.9c-3.3-0.3-5.9-0.7-8.6-0.8c-1.2-0.1-1.2,1-1.8,1.5c-1.1,1-3.6-2.3-6-2.4
		c-2.9-0.1-1.8,1-7.7,0.9c-0.5,0-1.6-0.1-2-0.6c-1.8-2.3-3.3-4-4.5-5.1c-1-0.9-2.3-1.5-3.5-1.7c-5.6-1-11.8-1.7-17.1-2.7
		c-3.5-0.7-5.4-1.2-5.7-1.7c-3.1-4.2-9.2-9-14.2-10.4C75.2,92.1,74.9,93,75.7,93.9L75.7,93.9z"/>
	<path class="st5" d="M97.2,118.2c4.3,0.7,10.6,1,15.1,1c1,0,5.4-1.4,6.3-1.9c0.2-0.1,0.5,0.1,0.1,0.3c-1.8,1.3-6,3.1-6.7,3
		c-4.9-0.3-8.1-0.6-14.9-2.1C96.9,118.4,96.8,118.1,97.2,118.2L97.2,118.2z"/>
	<path class="st5" d="M113.5,125.1c-11.3,6.4-17.2,13.2-21,22.5c-0.2,0.5-0.6,0.6-1.1,0.8c-2,0.6-3.7,1.1-5.3,2
		c-0.2,0.1-0.2,0-0.2-0.2c4.5-14,14.8-22,27.6-25.3C113.7,124.8,114,124.9,113.5,125.1L113.5,125.1z"/>
	<path class="st5" d="M79.7,128c-0.4,0.1-0.4-0.1-0.2-0.2c8.8-4,22.4-5.8,31.4-4.1c0.2,0,0.2,0.2,0,0.2c-0.5,0.1-3.1,0.2-4.2,0.4
		c-2.4,0.4-3.1,1.2-5.2,1.1C96.9,125.2,86.6,125.9,79.7,128L79.7,128z"/>
	<path class="st5" d="M93.5,106.2c4.4,1.5,9.2,2,13.7,2.6c5.3,0.8,8.1,1,12,4.8c0.2,0.2,0.1,0.4-0.1,0.5c-2.3,0.9-7,0.8-10.4,0.6
		c-0.4,0-0.3-0.6,0-0.6c1-0.2,2.9,0.2,2.8-0.5c-0.1-0.3-0.5-0.4-0.6-0.9c-0.1-0.4,0-1.3-0.2-1.5c-0.4-0.4-5.9-1.7-7.6-1.5
		c-0.6,0.1,1,2,1.6,2.5c0.1,0.1,0.2,0.4-0.3,0.2c-0.9-0.4-1.9-1.2-2.6-1.8c-0.7-0.6-0.9-1.3-1.9-1.6c-1.9-0.7-5.7-1.4-6.7-2.4
		C93.1,106.4,93.1,106,93.5,106.2L93.5,106.2z"/>
	<path class="st5" d="M115.2,112.6c1,0.8-0.1,2-0.7,1.7C113.5,113.8,114.7,112.2,115.2,112.6L115.2,112.6z"/>
	<path class="st4" d="M70.1,113.7c-0.5,0-1.1-0.4-0.8-0.8c0.8-1.1,4.5-2.1,5.7,0.1c0.2,0.3,0.2,0.7-0.4,0.7
		C72.9,113.8,72.1,113.9,70.1,113.7L70.1,113.7z"/>
	<path class="st4" d="M78.1,113.2c-1.2-0.5-3.2-2.5-3.6-3.3c-0.7-1.3-1.2-3.3-1.8-5.4c-0.5-1.6-0.8-3.4-1.2-5
		c-0.8-3-1.6-5.8-1.9-7.5c-0.1-0.3,0-0.7,0.3-0.5c0.9,0.5,8.4,8.6,8.3,9.2c-0.2,1.6-0.7,6.5-0.8,9.2c0,0.9,2.1,1.9,2.5,2.2
		C80.4,112.4,79.5,113.7,78.1,113.2z"/>
	<path class="st3" d="M136.9,141.5c-1,0.1-0.8,1.6-0.8,2.4c0,0.2,0.4,0.8,0.9,0.9c0.2,0,0.5,0,0.6,0c1.1-0.2,0.9-1.5,0.8-2.5
		C138.4,141.5,137.7,141.4,136.9,141.5z"/>
	<path class="st3" d="M132.8,141.7c-0.5,0.5-1,1.2-1.3,2c-0.2,0.5,0.1,0.9,0.7,0.9c2.9,0.2,3.5,0.1,3.3-2.6
		C135.5,141.2,133.1,141.4,132.8,141.7z"/>
	<path class="st3" d="M142.7,131c0.2-0.9-0.4-1-0.9-1c-1.4,0.2-3.2,0.2-4.8,0.2c-0.5,0-0.8,0.2-0.9,0.8c-0.1,2.3-0.1,4.4-1.1,8
		c-0.2,0.8,0.6,1,1.4,0.4C138.7,137.8,142.2,133.5,142.7,131z"/>
	<path class="st3" d="M142.3,136.1c-1,1-1.9,2.5-2.8,3.7c-0.6,0.7-0.4,0.8-0.4,1.2c0,0.3,0.3,3,0.9,3.5c0.1,0.1,1,0.2,1.4-0.3
		C142.9,142.1,143.8,134.6,142.3,136.1z"/>
	<path class="st3" d="M149.9,130.8c0.1-0.2,0.4-0.7,0.3-0.9c-0.1-0.2-0.4-0.3-0.5-0.3c-0.7-0.1-1.9-0.2-2.2,0.6
		c-0.3,0.9-0.9,1.7-1.5,2.5C145.2,133.6,148.3,133.4,149.9,130.8z"/>
	<path class="st3" d="M151.1,129.9c-1,1.3-2.7,4.4-5.3,3.6c-0.5-0.2-0.6-0.4-0.7,0.2c-0.3,1.3-0.7,2.8-1,3.6
		c-0.4,0.8-0.3,1.1,0.6,0.6c3.2-1.7,6.2-4.7,7.2-6.8C152.2,130.2,151.6,129.2,151.1,129.9z"/>
	<path class="st3" d="M146.8,130.6c0.3-0.6,0-1-0.4-1c-0.9,0-2,0-2.2,0.9c-0.3,0.9-0.8,1.5-1.1,2.1
		C142.4,134.2,145.4,133.3,146.8,130.6z"/>
	<path class="st3" d="M125.8,132.8c0.4-0.1,4.9-1.7,3.4-2.6c-1-0.7-3.1-1-3.9-1.4c-0.5-0.2-1.2-0.1-1.2,0.7c0,0.8,0,1.7,0.3,2.6
		C124.5,133.1,125.2,132.9,125.8,132.8z"/>
	<path class="st3" d="M131.1,136.6c-1.1,1-2.4,2.3-4.2,3.7c-1.5,1.2-4.3,2.4-3.6,3.2c0.5,0.5,2.9,0.8,5,1c0.6,0,1-0.2,1.4-0.5
		c0.8-0.6,3.5-4.1,3.8-7.7C133.8,134.2,131.7,136.1,131.1,136.6z"/>
	<path class="st3" d="M131.3,133.4c0.7-0.3,2.7-1.5,3.3-2.1c1.1-1.2-2.7-0.9-3.2-0.9c-0.6,0-1,0.1-1.1,0.8c0,0.2-0.2,1.1-0.1,1.9
		C130.3,133.4,130.5,133.7,131.3,133.4z"/>
	<path class="st3" d="M113.7,112.6c0-0.5-0.4-1.1-0.9-1.1c-1-0.1-1.3,2,0,2C113.2,113.6,113.7,113.2,113.7,112.6z"/>
	<path class="st3" d="M118.2,137.8c0-0.5-0.2-1-1.3-1c-1.1-0.1-2.7-0.1-4,0.1c-0.5,0.1-0.9,0.4-0.4,1c0.6,0.6,2.3,2,4.3,3
		C118,141.4,118.2,138.4,118.2,137.8z"/>
	<path class="st3" d="M122,138.8c-1.3,0.1-2.7,1.1-3.6,1.9c-0.1,0.1-0.6,0.4,0,0.9c0.7,0.5,1.6,0.9,3.4,1.4c1.3,0.3,1.5-2.6,1.4-3.3
		C123,139.1,122.7,138.8,122,138.8z"/>
	<polygon class="st6" points="114.4,60.2 110.7,57 109,57 109,61.6 110.3,61.6 110.3,58.2 114.1,61.6 115.6,61.6 115.6,57 114.4,57 
			"/>
	<path class="st6" d="M122.6,57l-2.9,4.6h1.4l0.7-1.1h3.4l0.7,1.1h1.7l-3-4.6H122.6z M122.1,59.8l1.3-2l1.3,2H122.1z"/>
	<path class="st6" d="M136.5,57v2.9c0,0.4-0.1,0.6-0.4,0.8c-0.5,0.2-2.8,0.5-2.8-0.8V57h-1.6v3c0,2,3.8,1.7,4.9,1.4
		c0.9-0.3,1.3-0.6,1.3-1.5V57H136.5z"/>
	<rect x="102.3" y="57" class="st6" width="1.6" height="4.6"/>
	<path class="st6" d="M67.6,58.6l1.5-0.1c-0.7-2.4-6.9-2.2-6.9,0.7c0,3.1,6.4,2.9,6.9,0.8L67.6,60c-0.2,1.2-3.7,1.6-3.7-0.7
		C64,57.1,67,57.1,67.6,58.6z"/>
	<polygon class="st6" points="78.5,58.9 75.1,58.9 75.1,57 73.5,57 73.5,61.6 75.1,61.6 75.1,59.6 78.5,59.6 78.5,61.6 80.1,61.6 
		80.1,57 78.5,57 	"/>
	<path class="st6" d="M92.9,58.2c0-0.7,2.6-0.8,3.1-0.1l1.5-0.2c-0.7-1.4-6.3-1.4-6.3,0.4c0,1.6,4,1.2,4.8,1.7
		c1.3,1-3.2,1.4-3.7,0.3l-1.5,0.2c0.9,1.7,7.1,1.6,7.1-0.3C97.9,58.4,92.9,59.1,92.9,58.2z"/>
	<rect x="85" y="57" class="st6" width="1.6" height="4.6"/>
	<path class="st1" d="M151.1,73.9l-3.8-9.7l-2.7,0l-4.3,9.9c-0.7,1.6-1.3,1.7-2.3,1.7v1.4h5.2v-1.4l-0.7,0c-1.6,0-0.6-1.7-0.1-2.9
		h4.6c0.9,2.8,1.2,2.9-0.9,2.9v1.4h7.4v-1.4C152.4,75.8,151.8,75.7,151.1,73.9z M142.9,71.6l2-4.7l1.6,4.7H142.9z"/>
	<path class="st1" d="M123.2,76c-3.8,0-4.3-3-4.3-5.2c0-2.4,0.8-5.6,3.9-5.6c1.5,0,3.5,0.7,3.9,3.6l1.2,0l-0.1-4.5l-1.1,0l-0.4,0.9
		c-0.9-0.7-2.1-1.3-3.6-1.3c-9.5-0.1-10.6,13.7,0.1,13.7c2.6,0,4.8-1.2,6.1-3.3l-1.1-0.9C126.8,74.9,125.2,76,123.2,76z"/>
	<path class="st1" d="M111.8,73.9l-3.8-9.7l-2.7,0l-4.3,9.9c-0.7,1.6-1.3,1.7-2.3,1.7v1.4h5.2v-1.4l-0.7,0c-1.6,0-0.6-1.7-0.1-2.9
		h4.6c0.9,2.8,1.2,2.9-0.9,2.9v1.4h7.4v-1.4C113.2,75.8,112.6,75.7,111.8,73.9z M103.7,71.6l2-4.7l1.6,4.7H103.7z"/>
	<path class="st1" d="M46.4,64.2l0,1.4c0.9,0,1.9-0.1,1.9,1.4v7.6c0,1.3-1.2,1.2-1.9,1.2l0,1.4h7.3v-1.4c-0.7,0-1.9,0.1-1.9-1.2
		l0-3.5c2.1,0,2.9-0.3,2.9,1.9l1.1,0v-5l-1.1,0c0,2-1,1.7-2.9,1.7l0-4l3,0c1.5,0,1.9,0.9,2.2,2.2l1.3,0l-0.4-3.5H46.4z"/>
	<path class="st1" d="M135.6,74.5V67c0-1.4,1-1.4,1.9-1.4l0-1.4l-7.3,0l0,1.4c0.9,0,1.9-0.1,1.9,1.4v7.6c0,1.3-1.2,1.2-1.9,1.2
		l0,1.4l7.3,0l0-1.4C136.8,75.8,135.6,75.9,135.6,74.5z"/>
	<path class="st1" d="M89.9,64.2l-7,0l0,1.4c0.9,0,1.9-0.1,1.9,1.4v7.6c0,1.3-1.2,1.2-1.9,1.2l0,1.4l7.3,0c2.4,0,4.1-0.4,5.4-1.5
		c1.4-1.2,2.2-2.9,2.2-5C97.8,66,93.9,64.2,89.9,64.2z M93,74.5c-0.7,0.8-1.4,1.2-3.3,1.2c-0.9,0-1.4-0.2-1.4-1.2l0-8.9l1.7,0
		C95.2,65.6,94.8,72.5,93,74.5z"/>
	<path class="st1" d="M67.6,76c-3.8,0-4.3-3-4.3-5.2c0-2.4,0.8-5.6,3.9-5.6c1.5,0,3.5,0.7,3.9,3.6l1.2,0l-0.1-4.5l-1.1,0l-0.4,0.9
		c-0.9-0.7-2.1-1.3-3.6-1.3c-9.5-0.1-10.6,13.7,0.1,13.7c2.6,0,4.8-1.2,6.1-3.3l-1.1-0.9C71.3,74.9,69.6,76,67.6,76z"/>
	<linearGradient id="SVGID_1_" gradientUnits="userSpaceOnUse" x1="54.5679" y1="-30.8499" x2="154.6987" y2="39.2624">
		<stop  offset="0" style="stop-color:#4F5CA0"/>
		<stop  offset="0.3" style="stop-color:#17288A"/>
		<stop  offset="0.7" style="stop-color:#17288A"/>
		<stop  offset="1" style="stop-color:#0B0B0F"/>
	</linearGradient>
	<path class="st7" d="M148.8,16.1c-4.5-2.8-20.5-3-29-3.2c1.2,2.7,1.8,5.6,1.8,8.7c0,4.1-1.2,8-3.2,11.3c4.8,0.3,9.4,0.1,14.5,0.5
		c4.1,0.3,17.1,0.9,17.8,4.5h0l0.1-19.8C150.7,17.5,149.5,16.5,148.8,16.1z"/>
	<linearGradient id="SVGID_2_" gradientUnits="userSpaceOnUse" x1="45.6803" y1="12.0794" x2="138.3456" y2="76.9644">
		<stop  offset="0" style="stop-color:#4F5CA0"/>
		<stop  offset="0.3" style="stop-color:#17288A"/>
		<stop  offset="0.7" style="stop-color:#17288A"/>
		<stop  offset="1" style="stop-color:#0B0B0F"/>
	</linearGradient>
	<path class="st8" d="M80.2,12.9c-8.5,0.2-24.6,0.4-29,3.2c-0.7,0.4-1.9,1.5-1.9,2.1L49.3,38h0c0.6-3.6,13.7-4.2,17.8-4.5
		c5.1-0.4,9.6-0.1,14.5-0.5c-2-3.3-3.2-7.2-3.2-11.3C78.4,18.5,79,15.6,80.2,12.9z"/>
	<linearGradient id="SVGID_3_" gradientUnits="userSpaceOnUse" x1="125.4354" y1="36.6812" x2="150.706" y2="36.6812">
		<stop  offset="0" style="stop-color:#F7DB16"/>
		<stop  offset="0.47" style="stop-color:#F7DB16"/>
		<stop  offset="0.81" style="stop-color:#6B571B"/>
		<stop  offset="1" style="stop-color:#6B571B"/>
	</linearGradient>
	<path class="st9" d="M132.9,33.4c-2.6-0.2-5.1-0.2-7.5-0.2v7c0.1-2.7,8-1.8,9.9-1.6c2.8,0.3,12.9,1.7,14.8,0.3
		c0.1-0.1,0.5-0.4,0.5-0.6V38h0C150,34.3,137,33.7,132.9,33.4z"/>
	<linearGradient id="SVGID_4_" gradientUnits="userSpaceOnUse" x1="75.0321" y1="36.6812" x2="48.8046" y2="36.6812">
		<stop  offset="0" style="stop-color:#F7DB16"/>
		<stop  offset="0.47" style="stop-color:#F7DB16"/>
		<stop  offset="0.81" style="stop-color:#6B571B"/>
		<stop  offset="1" style="stop-color:#6B571B"/>
	</linearGradient>
	<path class="st10" d="M49.3,38L49.3,38l0-1.1l0,1.3c0,0.2,0.4,0.5,0.5,0.6c1.9,1.4,12,0,14.8-0.3c1.9-0.2,9.8-1.1,9.9,1.6v-7
		c-2.4,0-4.9,0.1-7.5,0.2C63,33.7,50,34.3,49.3,38z"/>
	<linearGradient id="SVGID_5_" gradientUnits="userSpaceOnUse" x1="178.2885" y1="32.3384" x2="124.6449" y2="40.8347">
		<stop  offset="0" style="stop-color:#FF6600"/>
		<stop  offset="3.000000e-02" style="stop-color:#FF0000"/>
		<stop  offset="0.35" style="stop-color:#BC000F"/>
		<stop  offset="0.58" style="stop-color:#AB0005"/>
		<stop  offset="0.73" style="stop-color:#510909"/>
		<stop  offset="0.84" style="stop-color:#3D0915"/>
		<stop  offset="0.93" style="stop-color:#250B0E"/>
		<stop  offset="1" style="stop-color:#2C0A0C"/>
	</linearGradient>
	<path class="st11" d="M161.4,34.8l15.1-9.7l-0.2,0l-25.6-1.7l0,14.5h0v0.2c0,0.2-0.4,0.5-0.5,0.6c-1.9,1.4-12,0-14.8-0.3
		c-1.9-0.2-9.8-1.1-9.9,1.6c0.3,3,22.9,4.4,26.2,4.7c8.8,0.7,16.2,0.8,24.9,1L161.4,34.8z"/>
	
		<linearGradient id="SVGID_6_" gradientUnits="userSpaceOnUse" x1="168.4359" y1="29.1993" x2="117.0599" y2="47.8986" gradientTransform="matrix(-1 0 0 1 189.7783 0)">
		<stop  offset="0" style="stop-color:#FF6600"/>
		<stop  offset="3.000000e-02" style="stop-color:#FF0000"/>
		<stop  offset="0.35" style="stop-color:#BC000F"/>
		<stop  offset="0.58" style="stop-color:#AB0005"/>
		<stop  offset="0.73" style="stop-color:#510909"/>
		<stop  offset="0.84" style="stop-color:#3D0915"/>
		<stop  offset="0.93" style="stop-color:#250B0E"/>
		<stop  offset="1" style="stop-color:#2C0A0C"/>
	</linearGradient>
	<path class="st12" d="M64.6,38.5c-2.8,0.3-12.9,1.7-14.8,0.3c-0.1-0.1-0.5-0.4-0.5-0.6l0-1.3l0-13.3l-25.6,1.7l-0.2,0l15.1,9.7
		l-15.2,11c8.8-0.2,16.1-0.4,24.9-1c3.3-0.2,25.9-1.6,26.2-4.7C74.4,37.4,66.6,38.4,64.6,38.5z"/>
	
		<radialGradient id="SVGID_7_" cx="88.7691" cy="6.6905" r="37.4379" gradientTransform="matrix(0.9869 0 0 1.021 1.5769 3.9976)" gradientUnits="userSpaceOnUse">
		<stop  offset="0" style="stop-color:#F7DB16"/>
		<stop  offset="0.6526" style="stop-color:#F7DB16"/>
		<stop  offset="0.9421" style="stop-color:#6B571B"/>
	</radialGradient>
	<circle class="st13" cx="100" cy="21.6" r="21.6"/>
	
		<linearGradient id="SVGID_8_" gradientUnits="userSpaceOnUse" x1="266.0462" y1="-113.9546" x2="309.8854" y2="-113.9546" gradientTransform="matrix(0.305 0.9386 -0.971 0.3155 -98.7847 -212.5999)">
		<stop  offset="0" style="stop-color:#7C8DBA"/>
		<stop  offset="0.4632" style="stop-color:#17288A"/>
		<stop  offset="0.9421" style="stop-color:#150943"/>
	</linearGradient>
	<path class="st14" d="M108.1,41.7l-7.7-1.9l0-8.5l8.8-6.3l8,2.6l-0.6,8c3.5-4.2,5.4-9.7,5-15.4l-4.2,6.8l-8-2.6L105.9,14l5-6.8
		l7.5,3c-3-4.8-7.7-8.1-13-9.5l5,6.1l-5,6.9l-10.9,0l-5-6.9l5.1-6.1c-0.5,0.1-0.9,0.2-1.4,0.4c-5,1.6-9,4.9-11.6,9l7.3-3l5.1,6.9
		l-3.4,10.3L82.6,27l-4.2-6.7c-0.2,2.7,0.1,5.4,1,8.1c0.9,2.7,2.2,5.1,3.9,7.1l-0.6-7.9l8.2-2.7l8.7,6.4l0,8.5L92,41.7
		c4.5,1.8,9.7,2.1,14.7,0.5C107.1,42.1,107.6,41.9,108.1,41.7z"/>
</g>
</svg>
