<?xml version="1.0" encoding="utf-8"?>
<!-- Generator: Adobe Illustrator 21.1.0, SVG Export Plug-In . SVG Version: 6.00 Build 0)  -->
<svg version="1.1" id="Layer_1" xmlns="http://www.w3.org/2000/svg" xmlns:xlink="http://www.w3.org/1999/xlink" x="0px" y="0px"
	 viewBox="0 0 200 200" style="enable-background:new 0 0 200 200;" xml:space="preserve">
<style type="text/css">
	.st0{fill:#003464;}
	.st1{fill:#FFFFFF;}
</style>
<g>
	<path class="st0" d="M5,68.7c6-18,17.1-34.2,31.9-46.3c8.7-7.1,18.5-12.6,29-16.5C76.8,2,88.3,0,100,0c11.6,0,23.1,2,33.9,5.9
		c10.5,3.8,20.2,9.3,28.9,16.3c14.9,12.1,26.1,28.3,32.1,46.4l0.1,0.2l-35.9,13.3l-0.1-0.2c-3.4-11.1-10-21.2-18.9-28.9
		C129,43.5,114.7,38.2,100,38.2c-27.4,0-51.3,18.1-59.1,43.8l0,0.1L5,68.8L5,68.7z"/>
	<path class="st1" d="M22.7,55.8c0.3,0.2,13.2,8.4,13.5,8.6c0.2-0.3,1.7-2.6,1.9-2.9c-0.3-0.2-5.8-3.7-5.8-3.7s2.6-4.1,2.8-4.5
		c-0.3-0.2-2-1.3-2.3-1.5c-0.2,0.3-2.8,4.5-2.8,4.5l-3.1-2c0,0,2.8-4.4,3-4.8c-0.3-0.2-2-1.3-2.3-1.5C27.3,48.5,22.9,55.5,22.7,55.8
		z"/>
	<path class="st1" d="M34.2,39.7c-1.2,1.3-1.8,2.5-1.7,3.8c0.1,1.9,1.7,3.8,4.1,6c4.1,3.7,6.7,5,9.9,1.5c1.2-1.3,1.8-2.6,1.7-3.8
		c-0.1-2.1-2-4-4.1-5.9C40.6,38,37.6,35.9,34.2,39.7z M39,46.8c-2.5-2.3-3.6-3.5-3.7-4.5c0-0.4,0.1-0.7,0.5-1.1
		c1.2-1.3,2.7-0.3,5.9,2.7c3.2,3,4.4,4.3,3.2,5.6C43.6,50.8,42.2,49.8,39,46.8z"/>
	<path class="st1" d="M46.7,28.4c-1.4,1.1-2.2,2.2-2.4,3.4c-0.3,1.9,1,4,2.9,6.6c3.3,4.4,5.7,6.2,9.4,3.4c4.1-3.1,2.3-6.2-0.5-10
		C53.3,28,50.8,25.3,46.7,28.4z M47.3,31.1c0.1-0.4,0.3-0.7,0.7-1c0.4-0.3,0.8-0.4,1.2-0.4c1,0.1,2.1,1.4,4.1,4.1
		c2.6,3.5,3.5,5.1,2.1,6.1c-1.4,1.1-2.6-0.3-5.2-3.8l0,0C48.1,33.6,47.2,32.1,47.3,31.1z"/>
	<path class="st1" d="M55.1,23c0.2,0.3,1.1,2.1,1.2,2.4c0.3-0.2,3.1-1.6,3.1-1.6s5.8,11.5,6,11.9c0.3-0.2,2.8-1.4,3.1-1.6
		c-0.2-0.4-6-11.9-6-11.9s2.7-1.4,3.1-1.6c-0.2-0.3-1.1-2.1-1.2-2.4C64,18.5,55.5,22.8,55.1,23z"/>
	<path class="st1" d="M78.7,21.4c0,0,0.9-0.5,1.5-1.7c0.3-0.7,0.3-1.7,0-2.6c-0.7-2.4-2.6-3.2-5.4-2.4c0,0-5.2,1.6-5.5,1.7
		c0.1,0.4,4.5,14.9,4.6,15.3c0.4-0.1,5.3-1.6,5.3-1.6c3.1-0.9,4-2.6,4-4.2c0-0.5-0.1-1-0.2-1.5c-0.5-1.7-1.3-2.4-2.1-2.7
		C79.7,21.2,78.7,21.4,78.7,21.4z M73.3,17.7l1.2-0.4c1.5-0.4,2.3,0.4,2.6,1.3c0.2,0.7,0.2,1.2-0.1,1.7c-0.2,0.4-0.7,0.8-1.3,1
		l-1.2,0.4L73.3,17.7z M75.1,23.7l1.4-0.4c0.6-0.2,1.2-0.2,1.7,0.1c0.5,0.3,0.9,0.8,1.2,1.7c0.2,0.7,0.2,1.4-0.1,1.9
		c-0.3,0.5-0.7,0.8-1.4,1.1l-1.3,0.4L75.1,23.7z"/>
	<path class="st1" d="M88.6,11.7c0,0.3-2.3,15.8-2.4,16.3c0.4,0,3.2-0.3,3.5-0.4c0-0.3,0.2-3.2,0.2-3.2l4.3-0.4c0,0,0.8,2.8,0.9,3
		c0.3,0,3.1-0.3,3.5-0.4c-0.2-0.5-5.5-15.2-5.6-15.5C92.8,11.3,88.9,11.7,88.6,11.7z M90.9,13.5l2.6,8.1l-3.3,0.3L90.9,13.5z"/>
	<path class="st1" d="M101.1,26.9c0.4,0,8.6,0.6,9,0.6c0-0.3,0.2-2.4,0.2-2.7c-0.4,0-5.6-0.4-5.6-0.4s0.9-12.9,0.9-13.3
		c-0.4,0-3.1-0.2-3.4-0.2C102.2,11.4,101.1,26.5,101.1,26.9z"/>
	<path class="st1" d="M112.5,28c0.4,0.1,8.4,1.9,8.8,2c0.1-0.3,0.5-2.3,0.6-2.6c-0.4-0.1-5.4-1.2-5.4-1.2s2.9-12.6,3-13
		c-0.3-0.1-3-0.7-3.4-0.8C116,12.8,112.6,27.6,112.5,28z"/>
	<path class="st1" d="M138.2,20.6c-2,0.6-3.4,2.9-4.7,5.3l0,0c-2.3,4.4-3.6,7.6,0.6,9.9c1.7,0.9,3.1,1.2,4.3,0.8
		c1.3-0.4,2.3-1.5,3.4-3.5c0,0,0.1-0.2,0.2-0.3c-0.3-0.2-2.6-1.4-2.9-1.6c-1.1,2.1-2.2,3.6-3.6,2.8c-1.7-0.9-1-2.4,1.2-6.5
		c1.5-2.9,2.4-4.3,3.3-4.6c0.4-0.1,0.7-0.1,1.2,0.2c0.6,0.3,0.8,0.8,0.8,1.3c0,0.7-0.4,1.6-0.9,2.5c0.3,0.2,2.6,1.4,2.9,1.6
		c0.1-0.2,0.2-0.4,0.2-0.4c0.6-1.1,0.9-2.1,0.9-3c0-1.6-1-2.9-3-3.9C140.7,20.5,139.3,20.3,138.2,20.6z"/>
	<path class="st1" d="M141.4,39.8c0.3,0.2,6.9,5.3,7.2,5.5c0.2-0.3,1.4-1.9,1.7-2.1c-0.3-0.2-4.4-3.4-4.4-3.4s7.9-10.2,8.1-10.5
		c-0.3-0.2-2.5-1.9-2.7-2.1C150.9,27.4,141.6,39.5,141.4,39.8z"/>
	<path class="st1" d="M154,43.2L154,43.2c-2.1,2-3.7,4.2-0.6,7.6c1.2,1.3,2.4,2,3.6,2c1.2,0.1,2.5-0.6,4-2c0,0,7.6-7,7.9-7.3
		c-0.2-0.3-2.1-2.3-2.3-2.5c-0.3,0.3-8.8,8.1-8.8,8.1c-0.6,0.6-1.2,0.8-1.7,0.8c-0.4,0-0.8-0.2-1.1-0.6c-0.3-0.3-0.5-0.7-0.5-1.1
		c0-0.6,0.3-1.1,0.9-1.7c0,0,8.5-7.8,8.8-8.1c-0.2-0.3-2.1-2.3-2.3-2.5C161.6,36.2,154,43.2,154,43.2z"/>
	<path class="st1" d="M170.2,58.8c0,0,0.8,0.8,1.8,1.1c0.9,0.2,1.9,0,2.9-0.6c1.2-0.8,1.8-1.8,1.8-3c0-0.9-0.3-1.8-0.9-2.8
		c0,0-2.9-4.6-3.1-4.9c-0.3,0.2-13.2,8.3-13.6,8.5c0.2,0.3,2.9,4.7,2.9,4.7c2.3,3.7,4.8,3.2,6.5,2.1c1.4-0.9,2-1.8,2.1-2.6
		C170.8,59.8,170.2,58.8,170.2,58.8z M165.2,60.9c-0.5-0.1-1-0.5-1.4-1.1l-0.7-1.2l4.1-2.6l0.8,1.2c0.4,0.6,0.5,1.1,0.3,1.6
		c-0.1,0.6-0.6,1.1-1.3,1.6C166.4,60.9,165.7,61,165.2,60.9z M169.7,56l-0.7-1.1l3.5-2.2l0.7,1.1c0.8,1.3,0.2,2.3-0.6,2.8
		C171.4,57.4,170.4,57.1,169.7,56z"/>
	<path class="st0" d="M11.3,107V96H8.2v-2.7c2.6,0,3.7-0.6,4.3-2.5h3.1V107H11.3z"/>
	<path class="st0" d="M21.5,103.2c0,0.6,0.1,0.9,0.3,1.2c0.2,0.2,0.5,0.3,0.9,0.3c0.6,0,1.2-0.5,1.2-1.5v-2.6h0
		c-0.4,0.8-1.5,1.3-2.7,1.3c-2.3,0-3.9-1.1-3.9-4.9c0-4.4,2-6.1,5.5-6.1c3.7,0,5.6,1.6,5.6,6.9v1.8c0,5-0.8,7.9-5.6,7.9
		c-4.2,0-5.1-2-5.2-4.2H21.5z M22.6,98.8c0.8,0,1.2-0.6,1.2-2.7c0-2.1-0.3-2.7-1.2-2.7c-0.8,0-1.2,0.6-1.2,2.7
		C21.4,98.2,21.7,98.8,22.6,98.8z"/>
	<path class="st0" d="M175,94.9c0-0.6-0.1-0.9-0.3-1.2c-0.2-0.2-0.5-0.3-0.9-0.3c-0.6,0-1.2,0.5-1.2,1.5v2.6h0
		c0.4-0.8,1.5-1.3,2.7-1.3c2.3,0,3.9,1.1,3.9,4.9c0,4.4-2,6.1-5.5,6.1c-3.7,0-5.6-1.6-5.6-6.9v-1.8c0-5,0.8-7.9,5.6-7.9
		c4.2,0,5.1,2,5.2,4.2H175z M173.9,104.7c0.8,0,1.2-0.6,1.2-2.7c0-2.1-0.3-2.7-1.2-2.7c-0.8,0-1.2,0.6-1.2,2.7
		C172.7,104.1,173,104.7,173.9,104.7z"/>
	<path class="st0" d="M186.3,90.8c3.8,0,5.5,1.7,5.5,8.3c0,6.6-1.7,8.3-5.5,8.3c-3.8,0-5.5-1.7-5.5-8.3
		C180.7,92.5,182.5,90.8,186.3,90.8z M185,101.8c0,2.3,0.4,2.9,1.3,2.9c0.9,0,1.3-0.6,1.3-2.9v-5.4c0-2.3-0.4-2.9-1.3-2.9
		c-0.9,0-1.3,0.6-1.3,2.9V101.8z"/>
	<path class="st0" d="M4.7,130.4c6,18.8,17.6,35.6,33.2,47.9C55.7,192.5,77.2,200,100,200c23.1,0,45.6-8,63.4-22.6
		c14.9-12.2,26-28.6,31.9-46.8l0.1-0.2l-35.9-13.3l0,0.1c-3.2,10.9-9.3,20.8-17.8,28.5c-11.4,10.4-26.1,16.1-41.5,16.1
		c-27.9,0-51.8-18.5-59.3-44.5l0-0.1L4.9,130.4L4.7,130.4z"/>
	<path class="st1" d="M6.3,131.2l33.5-12.4l0,0.1C47.9,144.7,72,163,100,163c15.7,0,30.8-5.8,42.4-16.4c8.4-7.6,14.4-17.2,17.8-27.8
		l0-0.1l33.5,12.4l0,0.1c-5.9,17.5-16.7,33.3-31.1,45.1c-17.6,14.4-39.8,22.3-62.6,22.3c-22.5,0-43.7-7.4-61.4-21.4
		c-15-11.9-26.3-28.1-32.3-46.1L6.3,131.2z M37.9,122.7L10.1,133l0,0.1c6,16.3,16.6,31,30.4,41.9c17.1,13.5,37.6,20.7,59.5,20.7
		c22.1,0,43.6-7.7,60.6-21.6c13.2-10.8,23.3-25.1,29.2-40.9l0-0.1l-27.8-10.3l0,0.1c-3.6,9.9-9.6,18.8-17.6,26.1
		c-12.2,11.1-28,17.2-44.4,17.2c-28.2,0-52.7-17.8-62-43.2L37.9,122.7z"/>
	<path class="st1" d="M37.8,155.2c0,0-4.4,4-4.6,4.3c0.2,0.3,2.1,2.3,2.3,2.5c0.3-0.3,4.6-4.3,4.6-4.3s9.3-3.4,9.9-3.6
		c-0.3-0.4-2.3-2.5-2.5-2.7c-0.3,0.1-6.3,3-6.3,3s3.4-5.8,3.5-6c-0.2-0.2-2.2-2.4-2.6-2.8C41.9,146.2,37.8,155.2,37.8,155.2z"/>
	<path class="st1" d="M42.8,169.1c0.3,0.2,2.2,1.6,2.4,1.8c0.2-0.3,7.4-9.9,7.4-9.9s-4.3,11.9-4.4,12.2c0.2,0.2,2.9,2.2,3.2,2.4
		c0.2-0.3,9.3-12.5,9.6-12.8c-0.3-0.2-2.3-1.7-2.5-1.9c-0.2,0.3-7,9.4-7,9.4s4.1-11.3,4.2-11.6c-0.2-0.2-3-2.2-3.3-2.4
		C52.2,156.6,43.1,168.7,42.8,169.1z"/>
	<path class="st1" d="M80.9,183.2l4.8-11c0.8,0.2,4.6,1.1,5,1.1c-0.1,0.4-3.5,15.2-3.6,15.6c-0.3-0.1-2.8-0.6-3.1-0.7
		c0.1-0.4,3.1-13.7,3.1-13.7s-5.8,12.8-6,13.1c-0.3-0.1-2.3-0.5-2.6-0.6c0-0.3,0.1-14.4,0.1-14.4s-3,13.3-3.1,13.7
		c-0.3-0.1-2.6-0.6-3-0.7c0.1-0.4,3.5-15.2,3.6-15.6c0.3,0.1,4.3,1,5,1.1L80.9,183.2z"/>
	<path class="st1" d="M22,144.2c0.2,0.3,2.8,4.3,2.8,4.3c1,1.6,2.1,2.5,3.2,2.7c1.8,0.4,4-0.7,7-2.6c3-2,4.5-3.7,4.5-5.5
		c0-0.9-0.4-1.9-1.1-3c0,0-2.8-4.3-3-4.6C35.1,135.7,22.4,144,22,144.2z M26,145.8l9.3-6.1l0.7,1.1c1.3,2,0.1,3-3,5
		c-2.7,1.7-4,2.3-5,2.1c-0.6-0.1-1-0.6-1.4-1.1l0,0L26,145.8z"/>
	<path class="st1" d="M55.6,178c0.4,0.2,2.9,1.4,3.2,1.5c0.2-0.3,1.9-2.6,1.9-2.6l3.9,1.9c0,0-0.7,2.8-0.8,3.1
		c0.3,0.1,2.8,1.4,3.2,1.5c0.1-0.5,3.3-15.8,3.4-16.2c-0.3-0.1-3.8-1.8-4.1-2C66,165.6,55.9,177.6,55.6,178z M62.2,174.9l5.1-6.7
		l-2.1,8.2L62.2,174.9z"/>
	<path class="st1" d="M93.9,181.5L93.9,181.5c0,5.5,0.8,8.3,5.5,8.4c5.2,0,5.6-3.6,5.6-8.3c0-4.7-0.4-8.3-5.5-8.4
		C94.8,173.1,93.9,175.9,93.9,181.5z M99.4,187.7L99.4,187.7c-0.5,0-0.8-0.1-1.1-0.4c-0.7-0.7-0.8-2.4-0.8-5.8c0-4.4,0.2-6.2,2-6.2
		c1.8,0,2,1.8,2,6.2c0,3.4-0.2,5-0.9,5.7C100.2,187.5,99.9,187.7,99.4,187.7z"/>
	<path class="st1" d="M10.4,66.2c5.9-15.7,16-29.8,29.2-40.5C56.6,11.9,78.1,4.3,100,4.3c11.1,0,22.1,1.9,32.5,5.6
		c10,3.6,19.4,8.9,27.7,15.6c13.2,10.7,23.4,24.8,29.4,40.5l0.1,0.2l-27.8,10.3l-0.1-0.1C157.8,66.2,151.4,57,143,49.8
		c-11.9-10.2-27.2-15.9-43-15.9c-27.8,0-52.2,17.4-61.8,42.6l-0.1,0L10.5,66.3L10.4,66.2z M6.7,68.1L40,80.4l0-0.1
		C48.4,54.8,72.5,37,100,37c15,0,29.6,5.4,41,15.1c8.8,7.5,15.3,17.3,18.9,28.2l0.1,0.2l33.5-12.4l-0.1-0.2
		c-6-17.4-16.9-33-31.3-44.7c-8.6-7-18.2-12.4-28.6-16.1c-10.7-3.9-22-5.8-33.5-5.8c-11.6,0-22.9,2-33.6,5.9
		c-10.4,3.8-20,9.2-28.7,16.2C23.3,35.1,12.5,50.7,6.5,68.1L6.7,68.1z"/>
	<path class="st0" d="M73.1,135.9c1.8,1,3.8,1.9,5.9,2.7l-0.5,0.1c-2.8,0.5-4.6-0.7-4.9-1.1c-0.3-0.5-0.5-1-0.5-1.5L73.1,135.9z
		 M62.1,106.6c-1,2.9-1.8,5.1-1.8,8.8c0.1,3.8,1,8.1,4,12.7c0.2,0.4,0.5,0.8,0.8,1.1l-0.3,0.3c-0.3,0.3-0.6,0.7-0.8,1
		c-1.2,1.9-1.5,4.2-0.8,6.6c0.8,3.1,3.5,6,7.2,7.6c2.8,1.2,8.6,2.7,15.7-1.2c0.6-0.3,1.1-0.6,1.6-0.9l0.3-0.2c6.9,3.4,12,7.8,12,7.8
		s2.5-2.2,6.4-4.7l0.4,0c4.9,0.3,10.5-0.5,16.5-3.6c7.3-3.8,13.3-9.7,17.1-17c3.4-6.5,5.1-14.2,4.9-21.6c-0.4-13-7.9-20.9-13-24.9
		l-0.2-0.1c0.8-2.3,1.2-4.7,1.2-7.2c0-12.5-10.2-22.6-22.6-22.6c-9.6,0-17.8,6-21.1,14.5l-0.1,0.2h-2.5v-8.9h-8.8v8.9h-8.8v-8.9
		L57.9,65.8c0,0,3.8,3.7,5.6,12.5l-0.1,0.2c-4.5,6.1-6.8,13.1-6.1,18.4c0.5,3.8,2.4,7.1,4.9,9.6L62.1,106.6z"/>
	<path class="st1" d="M86.6,135.9c-0.6,0.8-1.3,1.5-2.1,2.1c-6.2,4.7-11.5,2.3-12.7,0.7c-1.4-1.9-1.4-4.8,1.3-6.4
		c2.2-1.4,6.1-1.7,12.9,2.7c0.3,0.2,0.6,0.4,0.9,0.6L86.6,135.9z M90.7,82.7c-4.2,2.4-8.2,4.3-8.2,4.3c0.3,5.1,0.3,6.6,0.3,6.6
		s4.9-1.4,8.7-4.9c0,0,1,8.7,0.9,20.3c-0.1,8.5-0.9,17.5-3.8,23.6c0,0-1.4-0.6-1.9-0.8c-7.4-2.9-12.3-3.9-16.5-3
		c-2.6,0.6-6.1,3-4.9,7.9c1.3,5.1,10,10.4,19.8,5.1c1.9-1.1,3.7-2.3,5.2-3.6l0.2-0.1c8.7,5.4,18,9.3,31.7,2.2
		c14.9-7.7,21.3-23.1,20.8-36.6c-0.4-12.3-7.1-19.7-11.6-23.3l-0.1-0.1c-1.4,3.3-3.6,6.2-6.3,8.5l0.1,0.1c2.3,3.1,4,7.6,3.3,14.3
		c-1.6,14.1-7.2,24-17.4,30c-5.8,3.4-11.4,3-16.6,1.5l-0.4-0.1c4.7-5.4,8.1-12.6,12.3-22c3.2-7.2,4.9-14,5.7-18.4l0-0.2
		c-0.5,0-1,0-1.5,0c-8.4,0-15.7-4.6-19.6-11.4L90.7,82.7z"/>
	<path class="st1" d="M107.3,91.6c-2-1.4-4.7-4.3-5.5-5.1l0-0.1c2.7-2.9,3.9-5.2,4.4-6.5l0-0.1c1.3,0,6.6-0.1,10.6-1.6l0.1,0.1
		c0.9,1.4,2.8,3.9,5.4,6.5l0,0.1c-0.4,0.9-1.3,3-3.2,5.2l-0.1,0.1c-2.6,1.2-5.4,1.8-8.5,1.8C109.5,91.9,108.4,91.8,107.3,91.6
		L107.3,91.6z"/>
	<path class="st1" d="M93.9,68.7c1.5,0.5,4.4,1.3,8.1,1.5l0.1,0c0.3,1,1.4,4.8,3.7,9.3l0,0.1c-0.5,1.2-1.7,3.7-4.6,6.7l-0.1,0
		c-1.2-0.1-3.8-0.4-6.1-1.3l-0.1-0.1c-2.7-3-4.5-6.7-5.1-10.8l0,0C91,71.8,93.2,69.3,93.9,68.7L93.9,68.7z"/>
	<path class="st1" d="M131.2,71.3c-2.2-3.4-4.4-5.9-5.2-6.7l-0.1-0.2c-1.4,1-3.9,2.7-7.3,4.1l-0.1,0c0.2,5.1-0.8,8.1-1.2,9.1
		l0.1,0.1c0.9,1.3,2.8,3.9,5.5,6.5l0.1,0c1-0.4,3.7-1.5,6-3.4l0.1-0.1c1.5-2.8,2.3-6,2.3-9.4L131.2,71.3z"/>
	<path class="st1" d="M115.6,51.5c3.9,0.8,7.3,2.7,9.9,5.3l0.1,0.1c0.3,2.9,0.3,5.4,0.2,6.6l0,0.3c-1.3,1-3.9,2.7-7.4,4.2l-0.1,0
		c-0.9-0.8-4.3-4-8.2-5.5l0-0.1c-0.4-3.7-0.5-6.4-0.5-7.7l0.1-0.1c0.9-0.7,2.9-2.1,5.7-3.1L115.6,51.5z"/>
	<path class="st1" d="M101.5,53.2c-1.9,0.9-3.7,2.2-5.3,3.7c-1.4,1.3-2.6,2.7-3.6,4.2l-0.1,0.1c0.3,3.1,1,5.8,1.3,6.8l0.1,0
		c1.5,0.5,4.4,1.3,8.2,1.5l0.1,0c2.3-2.5,6-5.8,7.2-6.9l0-0.1c-0.4-3.7-0.5-6.3-0.5-7.8l-0.1-0.1c-0.9-0.4-3.4-1.3-7.2-1.7
		L101.5,53.2z"/>
	<path class="st1" d="M88.6,65.6c-4.6,0.9-9.4,2.4-13.5,4.7c-12.1,7-16.6,18.9-15.7,26.2c1,8.1,7.3,13.6,14.8,11.8
		c6.9-1.7,8.7-8.7,8.7-8.7s-7.8,0.2-8.9-6.3c-1-5.6,1.7-15.5,13.8-22.2l0.2-0.1c0-1.9,0.3-3.7,0.8-5.4L88.6,65.6z"/>
	<path class="st1" d="M107.4,93.2c1,0.1,2.1,0.2,3.1,0.2c3.1,0,6.1-0.6,8.7-1.8l0.1,0c-0.2-0.3-0.5-0.5-0.6-0.7l-0.1,0
		c-2.5,1-5.2,1.6-8.1,1.6c-0.9,0-1.8-0.1-2.7-0.2l-0.1,0c-0.1,0.2-0.3,0.5-0.5,0.9L107.4,93.2z"/>
	<path class="st1" d="M131.8,72c-0.1,3-0.8,5.9-2.1,8.5l0.5,0.7c1.4-2.9,2.3-6.1,2.3-9.5l0-0.1c-0.3,0.1-0.5,0.2-0.7,0.2L131.8,72z"
		/>
	<path class="st1" d="M100.9,52.7c0-0.2,0-0.6-0.1-1l0-0.1c-4.1,2-7.5,5.3-9.7,9.3L91.1,61c0.4-0.1,0.8-0.2,1-0.3l0.1-0.1
		c1-1.5,2.2-2.9,3.6-4.3c1.6-1.5,3.3-2.7,5.1-3.6L100.9,52.7z"/>
	<path class="st1" d="M115.9,50.8c0-0.2,0-0.5,0-0.8l0-0.1c4,1,7.5,3.1,10.3,5.9l0.1,0.1c-0.2,0.1-0.4,0.2-0.5,0.3l-0.1-0.1
		C123,53.6,119.6,51.8,115.9,50.8L115.9,50.8z"/>
	<path class="st1" d="M89.3,74.5c0.6,3.8,2.3,7.2,4.7,10.1l0.1,0.1c-0.1,0.1-0.3,0.4-0.4,0.7l-0.1-0.1c-2.5-3-4.1-6.7-4.7-10.7
		l0-0.1C89,74.5,89.1,74.5,89.3,74.5L89.3,74.5z"/>
	<path class="st1" d="M124.8,177.2c0,0,1-0.3,1.6-1.8c0.3-0.7,0.3-1.6,0-2.6c-0.3-1.1-0.9-1.9-1.7-2.3c-0.9-0.5-2.2-0.6-3.7-0.1
		c0,0-5.2,1.5-5.6,1.6c0.1,0.4,4.4,15,4.5,15.4c0.4-0.1,5.3-1.5,5.3-1.5c1.8-0.5,3-1.3,3.6-2.4c0.3-0.5,0.4-1.1,0.4-1.8
		c0-0.5-0.1-0.9-0.2-1.5c-0.5-1.7-1.2-2.5-2.1-2.8C125.8,177,124.8,177.2,124.8,177.2z M119.5,173.4l1.2-0.4
		c1.5-0.4,2.3,0.4,2.5,1.3c0.4,1.3-0.1,2.3-1.4,2.6l-1.2,0.4L119.5,173.4z M121.3,179.4l1.4-0.4c0.6-0.2,1.2-0.1,1.7,0.1
		c0.5,0.3,0.9,0.9,1.2,1.7c0.2,0.7,0.2,1.4-0.1,1.9c-0.3,0.5-0.8,0.8-1.5,1l-1.3,0.4L121.3,179.4z"/>
	<path class="st1" d="M139.4,171.5c0,0,0.9-0.7,1.3-2c0.2-0.8,0-1.7-0.6-2.8c-0.7-1.4-2.3-3.4-5.6-1.7c0,0-5.2,2.7-5.6,2.9
		c0.2,0.4,7.1,13.9,7.3,14.3c0.3-0.2,2.8-1.4,3.1-1.6c-0.2-0.3-3.1-6-3.1-6l1.5-0.8c0.5-0.2,0.9-0.3,1.2-0.2
		c0.6,0.2,1.2,0.9,2.1,2.6c0.8,1.5,1.3,2.3,1.7,2.6c0.2-0.1,2.7-1.4,3.2-1.6c-0.4-0.3-1.1-1.2-2.2-3.1c-0.7-1.2-1.2-2.2-2.1-2.5
		C140.3,171.1,139.4,171.5,139.4,171.5z M133,168.3l1.2-0.6c1.3-0.7,2.3-0.3,3,1c0.3,0.7,0.4,1.3,0.2,1.9c-0.2,0.5-0.5,0.9-1.1,1.2
		l-1.3,0.6L133,168.3z"/>
	<path class="st1" d="M141.2,161c0.2,0.3,9.5,12.4,9.7,12.7c0.3-0.2,7.1-5.4,7.4-5.7c-0.2-0.3-1.4-1.9-1.6-2.2
		c-0.3,0.2-4.7,3.6-4.7,3.6l-2.5-3.3c0,0,3.9-3,4.2-3.2c-0.2-0.3-1.4-1.9-1.6-2.2c-0.3,0.2-4.2,3.2-4.2,3.2l-2.3-2.9
		c0,0,4.2-3.2,4.5-3.4c-0.2-0.3-1.4-1.9-1.6-2.2C148.1,155.7,141.5,160.8,141.2,161z"/>
	<path class="st1" d="M157.4,147.5c-1.2,0.1-2.4,0.7-3.6,2.1l0,0c-3,3.3-1.4,5.8-0.1,6.9c2.5,2.3,4.6,1.2,6.4,0.3
		c1.4-0.7,2.8-1.4,4-0.3c1,0.9,1.1,2,0.3,2.9c-1.3,1.4-2.6,0.2-3-0.2c0,0-0.1-0.1-0.3-0.2c-0.2,0.3-2,2.2-2.2,2.4
		c0.2,0.2,0.6,0.6,0.6,0.6c2,1.9,4.1,1.5,6.5-1.1c2.5-2.7,2.5-5.1,0-7.4c-2.3-2.1-4.4-1.1-6.2-0.2c-1.5,0.7-2.9,1.4-4.1,0.3
		c-0.9-0.9-1-1.8-0.3-2.6c0.4-0.5,0.9-0.6,1.4-0.5c0.4,0.1,0.9,0.4,1.4,0.8c0.2-0.2,2-2.2,2.2-2.4c-0.1-0.1-0.1-0.1-0.1-0.1
		C159.4,147.9,158.4,147.5,157.4,147.5z"/>
	<path class="st1" d="M159,144.2c0.3,0.2,2,1.3,2.3,1.5c0.2-0.3,1.9-2.9,1.9-2.9s10.8,7,11.2,7.2c0.2-0.3,1.7-2.6,1.9-2.9
		c-0.3-0.2-11.2-7.2-11.2-7.2s1.7-2.6,1.9-2.9c-0.3-0.2-2-1.3-2.3-1.5C164.4,135.8,159.2,143.8,159,144.2z"/>
</g>
</svg>
