<?xml version="1.0" encoding="utf-8"?>
<!-- Generator: Adobe Illustrator 21.1.0, SVG Export Plug-In . SVG Version: 6.00 Build 0)  -->
<svg version="1.1" id="Layer_1" xmlns="http://www.w3.org/2000/svg" xmlns:xlink="http://www.w3.org/1999/xlink" x="0px" y="0px"
	 viewBox="0 0 200 200" style="enable-background:new 0 0 200 200;" xml:space="preserve">
<style type="text/css">
	.st0{fill:#008DD0;}
	.st1{fill:#FFFFFF;}
	.st2{fill:none;stroke:#231F20;stroke-width:0.216;stroke-miterlimit:22.9256;}
	.st3{fill:#FBDA16;}
</style>
<g>
	<path class="st0" d="M39.6,174.9l-2.6,0.3l1.6-5.5l-5.8,0.1l2.1-5.4l-5.7-0.4l2.5-5.2l-5.7-0.9l2.9-5l-5.6-1.4l3.4-4.7l-5.5-1.8
		l3.7-4.4l-5.3-2.3l4.1-4.1l-5.1-2.7l4.4-3.7l-4.8-3.1l4.7-3.3l-4.6-3.5l5-2.9l-4.3-3.9l5.2-2.5l-3.9-4.2l5.4-2.1l-3.5-4.5l5.5-1.6
		l-3.2-4.8l5.7-1.1l-2.7-5.1l5.7-0.6L31,79.2l5.8-0.2l-1.9-5.5l5.8,0.3l-1.4-5.6l5.7,0.8L44,63.4l5.6,1.3l-0.4-5.7l5.5,1.7l0-5.8
		l5.3,2.2l0.5-5.7l5.1,2.6l1-5.7l4.9,3l1.5-5.6l4.6,3.4l1.9-5.4l4.3,3.8l2.4-5.2l4,4.2l2.8-5l3.6,4.5l3.2-4.8l3.2,4.8l3.6-4.5l2.8,5
		l4-4.2l2.4,5.2l4.3-3.8l1.9,5.4l4.6-3.4l1.5,5.6l4.9-3l1,5.7l5.1-2.6l0.5,5.7l5.3-2.2l0,5.8l5.5-1.7l-0.4,5.7l5.6-1.3l-0.9,5.7
		l5.7-0.8l-1.4,5.6l5.8-0.3l-1.9,5.5l5.8,0.2l-2.3,5.3l5.7,0.6l-2.7,5.1l5.7,1.1l-3.2,4.8l5.5,1.6l-3.5,4.5l5.4,2.1l-3.9,4.2
		l5.2,2.5l-4.3,3.9l5,2.9l-4.6,3.5l4.7,3.3l-4.8,3.1l4.4,3.7l-5.1,2.7l4.1,4.1l-5.3,2.3l3.7,4.4l-5.5,1.8l3.3,4.7l-5.6,1.4l2.9,5
		l-5.7,0.9l2.5,5.2l-5.7,0.4l2.1,5.4l-5.8-0.1l1.6,5.5l-3.1-0.3c-1.2-0.7-2.5-1.4-3.8-2.1c11.7-13.2,18.9-30.7,18.9-49.7
		c0-41.4-33.6-75-75-75s-75,33.6-75,75c0,19,7.1,36.4,18.7,49.6C42.3,173.3,41,174.1,39.6,174.9L39.6,174.9z"/>
	<path class="st0" d="M154.3,171.8c-16.4-8.3-34.9-13-54.5-13c-19.5,0-37.9,4.6-54.3,12.9C34,158.7,27,141.7,27,123
		c0-40.3,32.7-73,73-73c40.3,0,73,32.7,73,73C173,141.8,166,158.9,154.3,171.8L154.3,171.8z"/>
	<path class="st1" d="M100,67.8c30.5,0,55.2,24.7,55.2,55.2c0,15-6,28.6-15.7,38.5c-12.5-4.2-25.9-6.5-39.8-6.5
		c-13.8,0-27.1,2.3-39.5,6.4c-9.6-9.9-15.6-23.5-15.6-38.4C44.8,92.5,69.5,67.8,100,67.8"/>
	<path id="path2999" class="st0" d="M113.4,88.3c1.6-3.3,1.8-6.6,1.5-9.4c-0.7-6.6-6.2-7.1-11.3-4.4c-3.9,2.1-6.8,6.1-8.1,10.3
		c-2.9,0.1-6.3,0.3-9.2,0.7C75,87.1,62,93.4,62,105.4c1.7,15.3,22.6,13.5,25.3,10.4c-14.4-5-14.5-12.5-9.3-18.4
		c2.3-2.6,8.5-6.2,16.2-6.4c-0.5,3.1-0.4,5.6-0.4,7.9c-2.5,0.8-4.4,1.5-8.3,2.6l-0.6,6.6c2.1-0.6,7.9-3.2,8.8-3.8
		c-0.6,13.4-1.9,31.1-5.1,37.6c-3.7-2.1-9.5-4.2-15.8-4.9c-3.3-0.4-13-1-13.3,4.4c-0.2,3.5,6.3,8,13.1,9.2c6.9,1.2,13.9,0,19.6-4.1
		c4.1,1.7,10.8,3.4,15.3,3.3c18.7-0.5,33-13.3,33.5-29.3c0-4.1-0.6-8-2.4-11.9C134.4,99.5,125.1,92.4,113.4,88.3L113.4,88.3z
		 M66.6,142.4c-0.2-2.1,6.5-1.9,11.4-0.7c4.3,1,7.2,2.7,8.4,3.3c-1.7,1.5-4.5,2.5-8.5,2.5C72.8,147.4,66.8,144.4,66.6,142.4
		L66.6,142.4z M109.9,82.2c-0.2,1.7-0.6,3.3-1.4,4.6c-2.8-0.9-6.4-1.5-9.3-1.5c0.5-1.5,1.2-3,2.8-4.9
		C105.8,75.6,110.9,75,109.9,82.2L109.9,82.2z M98,90.9c2,0.1,4.4,0.6,6.9,1.4c-2,2-3.8,3.1-6.5,4.7C98.1,95.3,98,93.3,98,90.9
		L98,90.9z M122.2,118.9c-0.1,9.2-4.7,19.8-13.4,23.4c-3.6,1.5-9,2.4-13.8,1.4c8.5-9.1,12.2-20.6,16-31.9
		c-8.2-0.4-10.5-7.3-11.1-10.6c3.1-1.6,6.5-4.1,9.3-6.9C116.3,99.3,122.4,108.6,122.2,118.9"/>
	<path id="path3003" class="st0" d="M99.1,183.1c17.4,0,33.7,4.6,47.7,12.8l-1.7,3.3c-13.5-7.9-29.3-12.4-46.1-12.4
		c-16.7,0-32.3,4.4-45.8,12.2l-1.8-3.3C65.5,187.8,81.7,183.1,99.1,183.1"/>
	<path id="path3005" class="st1" d="M46.7,146.9l-1.7,0.2c0.4,1.1,0.6,2.2,0.5,3.2c-0.1,1-0.8,1.7-1.9,2.2c-0.4,0.2-0.8,0.3-1.4,0.3
		c-0.9,0.1-1.8,0.1-2.5-0.2c-0.7-0.2-1.4-0.6-1.9-1c-0.5-0.5-1-1-1.4-1.5c-0.4-0.6-0.7-1.2-0.9-1.8l-1.3,0.2l-1.2-3l1.3-0.2
		c-0.2-0.5-0.3-0.9-0.4-1.4c-0.1-0.5-0.1-1-0.1-1.5c0.1-0.5,0.2-1,0.5-1.4c0.3-0.4,0.8-0.8,1.4-1c0.4-0.2,0.9-0.3,1.4-0.3
		c0.9-0.1,1.8-0.1,2.6,0.2c0.8,0.2,1.4,0.6,1.9,1.1c0.5,0.5,1,1,1.3,1.5c0.4,0.6,0.6,1.1,0.9,1.7l1.7-0.2L46.7,146.9L46.7,146.9z
		 M42.5,147.1l-4.8,0.6c0.4,0.9,0.8,1.5,1.5,1.7c0.6,0.2,1.2,0.3,1.8,0.3c0.3,0,0.5-0.1,0.7-0.2c0.4-0.2,0.7-0.4,0.9-0.8
		C42.8,148.4,42.8,147.8,42.5,147.1L42.5,147.1z M36.8,145.1l4.8-0.6c-0.2-0.5-0.6-1-1-1.5c-0.5-0.5-1.2-0.6-2.2-0.5
		c-0.3,0-0.5,0.1-0.8,0.2c-0.6,0.2-0.9,0.6-0.9,1C36.5,144.2,36.6,144.7,36.8,145.1"/>
	<path id="path3007" class="st1" d="M41,131.9c-0.5-0.1-0.9-0.3-1.3-0.7c-0.4-0.4-0.6-0.8-0.6-1.2c0-0.4,0-0.7,0.2-1
		c0.2-0.3,0.5-0.4,0.9-0.5c0.1,0,0.3,0,0.4,0c0.3,0,0.6,0.2,0.9,0.3c0.3,0.2,0.5,0.4,0.7,0.7c0.2,0.3,0.3,0.6,0.3,0.9
		c0,0.4,0,0.7-0.3,1c-0.2,0.3-0.5,0.4-0.9,0.5C41.2,131.9,41.1,131.9,41,131.9"/>
	<path id="path3009" class="st1" d="M41.4,121.2l-11.1-4.5l0.5-3.2l4.7,1.9l-4.2-5.4l0.5-3.8l4.8,6.6l6.4-2.2l-0.6,4l-5.3,1.4
		l4.8,1.9L41.4,121.2"/>
	<path id="path3011" class="st1" d="M43.7,102.9c-0.4-0.3-0.7-0.7-0.8-1.2c-0.1-0.5-0.1-1,0-1.4c0.1-0.4,0.4-0.6,0.7-0.7
		c0.3-0.1,0.7-0.1,1,0c0.1,0,0.2,0.1,0.3,0.2c0.3,0.2,0.5,0.4,0.6,0.7c0.2,0.3,0.3,0.6,0.3,0.9c0,0.3,0,0.6-0.1,0.9
		c-0.1,0.4-0.4,0.6-0.7,0.7c-0.3,0.1-0.7,0.1-1,0C44,103,43.8,102.9,43.7,102.9"/>
	<path id="path3013" class="st1" d="M41.6,84.4l5-6.9l5.9,7l0.8-1.1l3.4,4l-1.6,2.3l-1.5-1.8l-3.9,5.4l1.5,1.8l-1.6,2.3l-3.4-4
		c0.2-0.2,0.3-0.5,0.4-0.8c0.1-0.3,0.1-0.6,0.1-1c0-0.7-0.3-1.4-0.8-2.2L45,88.4L41.6,84.4z M45.2,84.2l1.8,2.2
		c0.4,0.4,0.7,0.8,0.9,1.2c0.2,0.4,0.4,0.7,0.5,1.1c0.1,0.4,0.1,0.8,0.1,1.3l2.1-2.9l-4-4.8L45.2,84.2"/>
	<path id="path3015" class="st1" d="M54.2,70l2.5-1.9l2.9,6.6l0.6-9.3l2.5-2l4.9,11l-2.5,1.9l-2.9-6.6L61.6,79l-2.6,2L54.2,70"/>
	<path id="path3017" class="st1" d="M73.6,70.2l-0.8-12l3.1-1l0.3,4.3l3.8-1.2l-0.3-4.3l3.1-1l0.8,12l-3.1,1l-0.3-4.8l-3.8,1.2
		l0.3,4.8L73.6,70.2"/>
	<path id="path3019" class="st1" d="M89.1,65.4l6.2-12.1l4-0.3l2,11.5l-3.5,0.2l-0.3-2l-4,0.3l-1,2.1L89.1,65.4L89.1,65.4z
		 M96.8,55.9l-2.1,4.5l2.7-0.2L96.8,55.9"/>
	<path id="path3021" class="st1" d="M106.7,64.5l7.5-10l3.1,0.8l-1.6,6.9l5.5-5.9l3.2,0.8l-4.2,10.9l-3-0.8l2.5-6.3l-5.3,5.6l-2-0.5
		l1.5-6.6l-4.2,5.9L106.7,64.5"/>
	<path id="path3023" class="st1" d="M130.6,73.9c-0.7-0.4-1.2-0.9-1.6-1.4c-0.2-0.3-0.4-0.5-0.5-0.8c-0.1-0.3-0.2-0.5-0.3-0.8
		c-0.1-0.6-0.1-1.1,0-1.7c0.1-0.3,0.1-0.5,0.3-0.8c0.1-0.3,0.3-0.6,0.4-0.8c0.3-0.5,0.7-0.9,1.1-1.3c0.6-0.6,1.3-1.1,2.1-1.5
		c0.8-0.4,1.6-0.6,2.5-0.8c0.9-0.1,1.8-0.1,2.7,0.1c0.9,0.2,1.8,0.5,2.6,1.1c0.7,0.4,1.2,0.9,1.7,1.4c0.4,0.5,0.7,1.1,0.8,1.6
		c0.1,0.6,0.1,1.1,0,1.7c-0.1,0.6-0.3,1.1-0.7,1.6c-0.3,0.5-0.7,0.9-1.1,1.3c-0.6,0.6-1.3,1.1-2.1,1.5c-0.8,0.4-1.6,0.7-2.5,0.8
		c-0.9,0.1-1.7,0.1-2.7-0.1C132.3,74.7,131.4,74.4,130.6,73.9L130.6,73.9z M132.6,71.9c0.6,0.4,1.4,0.5,2.3,0.5
		c0.9-0.1,1.8-0.5,2.6-1.3c0.2-0.2,0.3-0.3,0.4-0.4c0.1-0.1,0.2-0.3,0.3-0.4c0.3-0.4,0.4-0.9,0.4-1.2c0-0.4-0.1-0.8-0.3-1.1
		c-0.2-0.3-0.5-0.6-0.8-0.7c-0.4-0.2-0.8-0.4-1.4-0.5c-0.5-0.1-1.1,0-1.7,0.2c-0.6,0.2-1.2,0.6-1.8,1.1c-0.3,0.3-0.5,0.6-0.7,0.9
		c-0.3,0.4-0.4,0.9-0.4,1.3c0,0.4,0.1,0.8,0.3,1.1C132.1,71.4,132.3,71.7,132.6,71.9"/>
	<path id="path3025" class="st1" d="M152,96.6l9.1-1.8l-0.7-1.6l2.7-0.5l2,4.3l-11.8,2.3L152,96.6"/>
	<path id="path3027" class="st1" d="M157.5,113.3l-0.5-3.4l4.6,3.3c-0.1-0.3-0.2-0.6-0.3-1c-0.1-0.6,0-1.1,0.1-1.5
		c0.2-0.4,0.4-0.8,0.8-1c0.4-0.3,0.8-0.4,1.3-0.5c0.4,0,0.7-0.1,1.2,0c0.8,0.1,1.6,0.3,2.3,0.8c0.7,0.4,1.3,1,1.8,1.7
		c0.5,0.7,0.8,1.5,0.9,2.5c0.2,1.1,0,2-0.4,2.7c-0.4,0.7-1.1,1.1-2.1,1.2c-0.4,0.1-0.8,0.1-1.2,0c-0.8-0.1-1.5-0.3-2.1-0.5
		c-0.6-0.3-1.3-0.6-2-1.2L157.5,113.3L157.5,113.3z M167.2,113.9c0-0.3-0.2-0.6-0.4-0.9c-0.2-0.3-0.4-0.5-0.7-0.6
		c-0.3-0.2-0.6-0.3-0.9-0.3c-0.2,0-0.3,0-0.5,0c-0.4,0-0.6,0.2-0.8,0.5c-0.2,0.3-0.3,0.6-0.2,1c0.1,0.5,0.3,0.9,0.7,1.2
		c0.4,0.3,0.8,0.5,1.3,0.6c0.1,0,0.2,0,0.2,0c0.1,0,0.2,0,0.3,0c0.4-0.1,0.6-0.2,0.8-0.4C167.2,114.6,167.2,114.3,167.2,113.9"/>
	<path id="path3029" class="st1" d="M159.9,133.9l-2.5-0.9l1.1-8.9l4.8,6.9c0.2,0.2,0.3,0.5,0.5,0.7c0.1,0.2,0.3,0.4,0.4,0.5
		c0.2,0.3,0.4,0.5,0.6,0.7c0.2,0.1,0.4,0.3,0.6,0.4c0.2,0.1,0.3,0.1,0.4,0.1c0.3,0,0.6,0,0.8-0.2c0.2-0.2,0.4-0.4,0.4-0.8
		c0-0.1,0-0.3-0.1-0.6c-0.1-0.2-0.2-0.5-0.5-0.8c-0.3-0.3-0.7-0.6-1.2-0.8l0.4-2.9c1.1,0.5,2,1.2,2.8,2.2c0.8,1,1.1,2.3,0.9,3.8
		c-0.1,1.1-0.5,1.9-1.1,2.4c-0.6,0.5-1.3,0.7-2.1,0.6c-0.3,0-0.6-0.1-1-0.3c-0.6-0.2-1.1-0.5-1.5-0.9c-0.5-0.4-0.9-1-1.4-1.7
		c-0.5-0.7-1.2-1.7-2-3L159.9,133.9"/>
	<path id="path3031" class="st1" d="M155.6,140.6l6,9.4l1.7-4.4l2.3,1.6l-3.3,8.6l-7.9-11.9L155.6,140.6"/>
	<path id="path3033" class="st0" d="M63.7,181.9l-1.9,0.9l-2.3-5.2c-0.1-0.2-0.2-0.5-0.4-0.9c-0.2-0.4-0.3-0.7-0.4-0.9l0,0l0.8,8
		l-1.4,0.6l-5.3-6.1l0,0c0.1,0.2,0.2,0.5,0.4,0.9c0.2,0.4,0.4,0.7,0.4,0.9l2.3,5.2l-2,0.9l-4-9.2l2.8-1.2l4.8,5.5l-0.7-7.3l2.8-1.2
		L63.7,181.9"/>
	<path id="path3035" class="st0" d="M83.6,176.8l-2.2,0.4l-1.1-6.1l-3.1,6.9l-1.9,0.3l-1.8-9.9l2.3-0.4l1.1,6l3.1-6.8l1.9-0.3
		L83.6,176.8"/>
	<path id="path3037" class="st0" d="M105.2,175.6h-2.3v-4.1h-3.5v4.1h-2.3v-10h2.3v3.9h3.5v-3.9h2.3V175.6"/>
	<path id="path3039" class="st0" d="M105.2,175.6h-2.3v-4.1h-3.5v4.1h-2.3v-10h2.3v3.9h3.5v-3.9h2.3V175.6"/>
	<path id="path3041" class="st0" d="M128.3,175.7c-0.6,1-1.4,1.7-2.4,2.2c-1,0.5-2.1,0.6-3.2,0.3c-1.5-0.3-2.6-1.1-3.4-2.3
		c-0.8-1.2-1-2.5-0.7-4c0.3-1.4,1.1-2.5,2.3-3.2c1.2-0.7,2.5-1,4-0.6c1.2,0.3,2.1,0.8,2.9,1.7c0.7,0.8,1.1,1.8,1.2,3l-2.4-0.5
		c-0.3-1.2-1-1.9-2.1-2.2c-0.8-0.2-1.6-0.1-2.3,0.4c-0.7,0.5-1.1,1.1-1.3,2c-0.2,0.8-0.1,1.6,0.3,2.4c0.4,0.7,1,1.2,1.9,1.4
		c1.1,0.3,2-0.1,2.8-1L128.3,175.7"/>
	<path id="path3043" class="st0" d="M145.9,186.5l-2.5-1.1l-0.8-5.4l-1.9,4.1l-2.1-1l4.2-9.1l2.1,1l-1.9,4.2l4.8-2.9l2.2,1l-5.3,3
		L145.9,186.5"/>
	<path id="path3045" class="st2" d="M100.1,5.2l-3.6,11.4l-11.7,0l9.5,7.1l-3.6,11.5l9.4-7.1l9.4,7.1l-3.6-11.5l9.5-7.1l-11.7,0
		L100.1,5.2L100.1,5.2z"/>
	<path id="path3047" class="st0" d="M100.1,0.7l4.5,14.5l14.8,0l-12,9l4.6,14.5l-11.9-9l-11.9,9l4.6-14.5l-12-9l14.8,0L100.1,0.7"/>
	<path id="path3049" class="st3" d="M100.1,5.2l-3.6,11.4l-11.7,0l9.5,7.1l-3.6,11.5l9.4-7.1l9.4,7.1l-3.6-11.5l9.5-7.1l-11.7,0
		L100.1,5.2"/>
	<path id="path3051" class="st1" d="M152.1,81.2c0.6,1.4-0.1,2.9-1.5,3.3c-1.5,0.4-3.2-0.3-3.8-1.7c-0.6-1.4,0.1-2.9,1.5-3.3
		C149.8,79,151.5,79.8,152.1,81.2"/>
</g>
</svg>
