<?xml version="1.0" encoding="utf-8"?>
<!-- Generator: Adobe Illustrator 21.1.0, SVG Export Plug-In . SVG Version: 6.00 Build 0)  -->
<svg version="1.1" id="Layer_1" xmlns="http://www.w3.org/2000/svg" xmlns:xlink="http://www.w3.org/1999/xlink" x="0px" y="0px"
	 viewBox="0 0 200 200" style="enable-background:new 0 0 200 200;" xml:space="preserve">
<style type="text/css">
	.st0{fill:#FFFFFF;}
	.st1{fill:#CD5846;}
</style>
<g>
	<path id="path3105_2_" class="st0" d="M30.4,0v200h139.1V0L30.4,0L30.4,0z"/>
	<path id="path3105_1_" d="M33.9,3v194h132.2V3L33.9,3L33.9,3z"/>
	<path id="path3109_1_" class="st0" d="M136.8,15.4c-13.4,0-26.9,4.8-34.3,15V16.5H44v67.7h18.7v33.6c-4.7,4.7-7.1,11.5-7.1,19.3
		c0,15.3,8.8,25.9,24.9,25.9c10.7,0,18.1-4.6,21.9-12.2V161c4.5,1.3,11.5,2.1,17.3,2.1c10.4,0,22.1-3.9,22.1-14.7
		c0-6.5-4.3-10-10.3-11.5v-0.1c5.7-1.6,9.6-5.2,9.6-11.3c0-8.9-8.9-12.8-17.4-13.8c6.6-5.6,9.9-14.4,9.9-26.3c1,0.1,2.1,0.1,3.1,0.1
		c8.1,0,15.9-2,18.1-2.6l1.4-0.4v-21l-2.5,0.9c-4.7,1.6-8.7,2.4-12.7,2.4c-9.9,0-15.6-5.4-15.6-14.7c0-10.4,8.5-14.2,16.4-14.2
		c4,0,8,1.1,11.7,2.3l2.4,0.8v-21l-2.9-0.5C147.4,16.2,143.3,15.4,136.8,15.4z M72.3,35.6h27.2c-0.9,2-1.6,4.2-2.1,6.6H72.3V35.6z
		 M91,69.7h4.2c6.9,0,9.1,3.6,9.1,14.8c0,11.1-2.2,14.6-9,14.6H91V69.7z M102.9,118.7v5.7c2.9-0.9,7.5-1.9,12.1-1.9
		c3.4,0,7.3,1,7.3,5c0,4.2-6.5,4.2-9.6,4.2c-1.4,0-2.6-0.1-4-0.1v11c2.1-0.3,4.1-0.5,6.2-0.5c3.2,0,8.2,0.7,8.2,4.9
		c0,3.8-3.7,4.5-8,4.5c-4.4,0-9.1-0.9-12-1.9c1.5-3.6,2.3-7.7,2.3-12.4c0-7.6-2.2-13.9-6.3-18.4h0.6
		C100.7,118.8,101.8,118.7,102.9,118.7z M80.5,122.5c6,0,6,6.7,6,14.7c0,7.6,0,14.7-6,14.7c-6.2,0-6.2-7.1-6.2-14.7
		C74.3,129.1,74.3,122.5,80.5,122.5z"/>
	<path id="path3129_1_" class="st1" d="M94.5,115c3,0,5,0,5,0c1.2,0,2.3,0,3.4-0.1v-1.7c4.4-1.3,8.9-1.8,14.5-1.9
		c8.4-4.5,12.6-13.2,12.6-26.2c0-0.1,0-0.2,0-0.2c-9.4-1.1-17.1-4.5-22.8-9.8c0.7,2.8,0.9,6.1,0.9,9.4c0,9.5-1.5,18.4-12.8,18.4h-8
		V65.9h1.9h6c2.3,0,4.1,0.4,5.7,1c-0.9-1.7-1.7-3.6-2.4-5.6H72.3c0,3.2,0,22.8,0,22.8h-5.8c0,14.1,0,28.5,0,30.7
		c3.7-2.3,8.4-3.6,14.1-3.6C86,111.3,90.7,112.6,94.5,115L94.5,115z"/>
	<path id="path3133_1_" class="st1" d="M96.8,46c-5.8,0-28.3,0-28.3,0V31.9c0,0,26.9,0,30.2,0c0-2.5,0-9.2,0-11.6
		c-3.4,0-47.7,0-51,0c0,3.4,0,56.8,0,60.2c2.9,0,17.9,0,20.8,0c0-3.2,0-22.8,0-22.8s24.4,0,28.9,0c-0.5-2.6-0.8-5.3-0.8-8.2
		C96.6,48.3,96.7,47.1,96.8,46L96.8,46z"/>
	<path id="path3137_1_" class="st1" d="M100.4,49.4c0-22.3,19.6-30.3,36.4-30.3c6.1,0,9.9,0.7,15.5,1.7c0,2.1,0,9.5,0,12.8
		c-3.3-1-6.8-1.7-10.4-1.7c-12.3,0-20.2,7-20.2,17.9c0,11.4,7.4,18.4,19.4,18.4c3.7,0,7.4-0.6,11.4-1.8c0,3.3,0,11,0,13
		c-3.1,0.8-9.3,2.1-15.7,2.1C119.2,81.5,100.4,73.1,100.4,49.4L100.4,49.4z"/>
	<path id="path3141_1_" class="st0" d="M44.5,176.6V189h6.8c3.6,0,6.3-1.5,6.3-6.2c0-5-2.5-6.2-6.1-6.2H44.5z M49.2,179.4h1.2
		c1.7,0,2.1,1.1,2.1,3.2c0,2.1-0.4,3.2-2.1,3.2h-1.2V179.4z"/>
	<path id="path3149_1_" class="st0" d="M69.5,189h4.5v-9.3h-4.5V189z"/>
	<path id="path3153_1_" class="st0" d="M67.3,175.6H63l-1.8,2.8h2.5L67.3,175.6z"/>
	<path id="path3157_1_" class="st0" d="M63.8,179.5c-3.7,0-5.7,1.6-5.7,4.7c0,3.2,2,5,5.7,5c1.6,0,3-0.2,4.2-0.5v-2.4
		c-0.7,0.4-1.8,0.6-3,0.6c-1.3,0-2.4-0.3-2.5-1.4h6.2v-0.6C68.6,181.7,67.3,179.5,63.8,179.5z M63.6,181.6c1,0,1.1,1.1,1.1,1.8h-2.3
		C62.4,182.7,62.6,181.6,63.6,181.6z"/>
	<path id="path3165_1_" class="st0" d="M69.5,178.7h4.5v-3.1h-4.5V178.7z"/>
	<path id="path3169_1_" class="st0" d="M148.2,179.5c-2.9,0-4,2.3-4,4.9c0,2.5,1.2,4.6,3.9,4.6c1.3,0,2.3-0.6,3-1.6h0
		c0,2-1,2.8-2.9,2.8c-1.3,0-2.6-0.4-3.5-0.9v3c1.2,0.4,2.8,0.6,4.8,0.6c4.7,0,5.9-2.4,5.9-4.9v-8.3h-4.2v1.9h0
		C151,180.2,149.7,179.5,148.2,179.5L148.2,179.5z M150.1,182.4c1,0,1.2,1.1,1.2,1.9c0,0.8-0.1,1.8-1.2,1.8c-1,0-1.1-1-1.1-1.8
		C149,183.5,149.1,182.4,150.1,182.4z"/>
	<path id="path3177_1_" class="st0" d="M127.2,179.5c-3.7,0-5.7,1.6-5.7,4.7c0,3.2,2,5,5.7,5c1.6,0,3-0.2,4.2-0.5v-2.4
		c-0.7,0.4-1.8,0.6-3,0.6c-1.3,0-2.4-0.3-2.5-1.4h6.2v-0.6C132.1,181.7,130.8,179.5,127.2,179.5z M127.1,181.6c1,0,1.1,1.1,1.1,1.8
		h-2.3C125.8,182.7,126,181.6,127.1,181.6z"/>
	<path id="path3185_1_" class="st0" d="M140.1,179.5c-1.3,0-2.5,0.5-3,1.8h0v-1.6h-4.2v9.3h4.5v-5.3c0-0.5,0-1.3,0.8-1.3
		c0.8,0,0.8,0.7,0.8,1.3v5.3h4.5v-6.4C143.4,180.7,142.5,179.5,140.1,179.5L140.1,179.5z"/>
	<path id="path3189_1_" class="st0" d="M44.3,171.3v1.9h111.4v-1.9C155.7,171.3,44.3,171.3,44.3,171.3z"/>
	<path id="path3193_1_" class="st0" d="M116.1,175.6v5.3h0c-0.7-1-1.6-1.4-2.8-1.4c-2.4,0-3.6,1.6-3.9,3.7v-3.6
		c-0.2-0.1-0.5-0.1-0.7-0.1c-1.4,0-2.3,1-2.8,2.3h0v-2.1h-4.2v9.3h4.5v-3.4c0-1.4,1-2.4,2.3-2.4c0.4,0,0.8,0.1,1,0.1
		c0,0.3-0.1,0.6-0.1,0.9c0,2.7,1.1,5,4.1,5c1.5,0,2.4-0.5,3-1.9h0v1.7h4.2v-13.3H116.1z M115.1,182.3c1,0,1.1,1,1.1,2
		c0,0.9-0.1,1.9-1.1,1.9c-1,0-1.1-1-1.1-2C114,183.2,114.2,182.3,115.1,182.3z"/>
	<path id="path3201_1_" class="st0" d="M90.2,179.7h-1.9v-0.5c0-0.7,0.6-1.1,1.1-1.1c0.6,0,0.8,0.1,1,0.1v-2.5
		c-0.6-0.2-1.7-0.3-2.8-0.3c-2.3,0-3.9,1-4,3.5v0.8h-2.9v-0.5c0-0.7,0.6-1.1,1.1-1.1c0.6,0,0.8,0.1,1,0.1v-2.5
		c-0.6-0.2-1.7-0.3-2.8-0.3c-2.3,0-3.9,1-4,3.5v0.8h-1.6v2.7h1.6v6.6h4.7v-6.6h2.9v6.6h4.7v-6.6h1.9V179.7z"/>
	<path id="path3205_1_" class="st0" d="M96,179.5c-3.7,0-5.7,1.6-5.7,4.7c0,3.2,2,5,5.7,5c1.6,0,3-0.2,4.2-0.5v-2.4
		c-0.7,0.4-1.8,0.6-3,0.6c-1.3,0-2.4-0.3-2.5-1.4h6.2v-0.6C100.8,181.7,99.6,179.5,96,179.5z M95.8,181.6c1,0,1.1,1.1,1.1,1.8h-2.3
		C94.6,182.7,94.8,181.6,95.8,181.6z"/>
</g>
</svg>
