<?xml version="1.0" encoding="utf-8"?>
<!-- Generator: Adobe Illustrator 21.1.0, SVG Export Plug-In . SVG Version: 6.00 Build 0)  -->
<svg version="1.1"
	 id="svg2" inkscape:version="0.48.1 " sodipodi:docname="Dynamo_Kiev.svg" xmlns:cc="http://creativecommons.org/ns#" xmlns:dc="http://purl.org/dc/elements/1.1/" xmlns:inkscape="http://www.inkscape.org/namespaces/inkscape" xmlns:rdf="http://www.w3.org/1999/02/22-rdf-syntax-ns#" xmlns:sodipodi="http://sodipodi.sourceforge.net/DTD/sodipodi-0.dtd" xmlns:svg="http://www.w3.org/2000/svg"
	 xmlns="http://www.w3.org/2000/svg" xmlns:xlink="http://www.w3.org/1999/xlink" x="0px" y="0px" viewBox="0 0 432.1 717"
	 style="enable-background:new 0 0 432.1 717;" xml:space="preserve">
<style type="text/css">
	.st0{fill:#176FC1;}
	.st1{fill:#FFFFFF;}
	.st2{fill:#1D4692;}
	.st3{fill:#E4AC21;}
	.st4{fill:#BF851E;}
</style>
<g>
	<path id="path24" inkscape:connector-curvature="0" class="st0" d="M216.1,717c-6.4,0-12.4-3.1-16-8.4
		C167.5,661.9,21.2,452.2,4.7,428.5c-6.2-8.9-6.2-18.7,0-27.6L56.9,326c55.5-79.6,141-202.2,143.3-205.5c3.6-5.2,9.5-8.2,15.9-8.2
		s12.3,3.1,16,8.3c2.6,3.8,190.8,273.6,195.5,280.3c6.2,8.9,6.2,18.7,0,27.6l-7.4,10.6C284.4,633.6,243,693,232.1,708.6
		C228.4,713.9,222.5,717,216.1,717L216.1,717"/>
	<path id="path26" inkscape:connector-curvature="0" class="st1" d="M419,422.5c-3.5,5-168.7,241.9-195.4,280.1
		c-3.7,5.2-11.4,5.3-15.1,0C182.9,666,30.5,447.4,13.2,422.5c-3.7-5.3-3.7-10.5,0-15.8c11.3-16.2,192.1-275.5,195.5-280.3
		c3.6-5.1,11.3-5.1,14.9,0.1c3.6,5.2,191.7,274.8,195.4,280.3C422.6,412,422.6,417.3,419,422.5"/>
	<path id="path28" inkscape:connector-curvature="0" class="st2" d="M218,690.2c-1.1,1.5-2.8,1.5-3.9,0L23.9,417.4
		c-1.1-1.5-1.1-4.1,0-5.6l190.2-272.7c1.1-1.5,2.8-1.5,3.9,0l190.2,272.7c1.1,1.5,1.1,4.1,0,5.6L218,690.2"/>
	<path id="path30" inkscape:connector-curvature="0" class="st0" d="M216.8,681.6c-0.4,0.6-1.1,0.6-1.5,0L29.9,415.7
		c-0.4-0.6-0.4-1.5,0-2.1l185.5-265.9c0.4-0.6,1.1-0.6,1.5,0l185.5,265.9c0.4,0.6,0.4,1.5,0,2.1L216.8,681.6"/>
	<path id="path32" inkscape:connector-curvature="0" class="st2" d="M281.7,482.2c-16.9,20.3-43,30.1-69.7,25.3
		c25.2-22.6,43.1-70.7,43.7-111.3c-1.7-1.6-5.4-4-5.4-4s-0.3,2.1-1.5,1.6c-9.8-4-21-11.6-28.6-24.1c-2.3-3.8-4.5-8.4-6.3-13.5
		c14.9-9.4,27.1-22,35.5-35.7c23.2,10.6,40.2,30.8,48.3,54.4C311.6,415.5,302.5,457.1,281.7,482.2L281.7,482.2z M155.6,516.9
		c-7.1-0.5-13.6-4.1-14.3-8.9c-0.7-4.6,3-7.4,7.8-7.3c7,0.1,18,8,26.7,12.2C169.7,516.1,161.6,517.3,155.6,516.9L155.6,516.9z
		 M208.8,312.8c2.9-0.1,5.9-0.1,9,0.1c5,0.3,9.8,0.9,14.5,2c-5.6,9.2-12.8,18-22.7,25.3C208,331.3,207.5,321.9,208.8,312.8z
		 M238.3,275.1c6.2,1.5,6.9,10.7,2.3,22c-2.4-0.3-4.9-0.5-7.4-0.7c-6.9-0.5-13.6-0.6-20-0.4C220,279,231.2,273.4,238.3,275.1
		L238.3,275.1z M350.3,405c-1.6-53.9-40-91.9-90.8-104.5c2.3-5.7,4.3-11.6,5.4-16.7c3.6-17.6-2.7-29-15-31.1
		c-19.3-3.4-44,13.8-53.7,44.8c-48.9,6.9-82.8,34.9-94.7,67.4c-11.7,31.9,0,59,20.7,67.1c21.1,8.3,40.8-3,46.5-17.7
		c-1.1-0.8-5.4-4-5.4-4s-1.6,1.9-3,1.2c-12-6.1-20.8-20.3-19.3-40.3c1.9-25.4,21.2-48.9,51.5-56.2c-1.5,11.7-1.5,23.5-0.8,35.3
		c-4.3,1.9-9,3.5-14.1,4.9c-0.8,4.9-5.9,12.5-5.9,12.5l5.5,3.3c5.5-1.1,10.8-2.6,15.9-4.5c3.4,29.3,10,58.4,10.4,86.3
		c0.3,17.2-2.6,36.6-12.3,48.4c-15.7-6.5-26.9-14.9-38.3-16.9c-15.9-2.8-29,7.5-27.2,22.6c1.3,11.1,14,21.1,30.5,22.2
		c13,0.8,27.1-3.5,36.7-9c9.8,3.8,22.2,7.7,34.4,8.5C303.9,533.1,352.3,470.7,350.3,405"/>
	<path id="path34" inkscape:connector-curvature="0" class="st1" d="M276.3,478.2c-16.9,20.3-43,30.1-69.7,25.3
		c25.2-22.6,43.1-70.7,43.7-111.3c-10.9-2.9-26.1-10.8-35.6-26.5c-2.3-3.8-4.5-8.4-6.3-13.5c14.9-9.4,27.1-22,35.5-35.7
		c23.2,10.6,40.2,30.8,48.3,54.4C306.2,411.5,297.1,453.1,276.3,478.2L276.3,478.2z M150.2,513c-7.1-0.5-13.6-4.1-14.3-8.9
		c-0.7-4.6,3-7.4,7.8-7.3c7,0.1,18,8,26.7,12.2C164.3,512.1,156.1,513.4,150.2,513L150.2,513z M203.4,308.8c2.9-0.1,5.9-0.1,9,0.1
		c5,0.3,9.8,0.9,14.5,2c-5.6,9.2-12.8,17.8-22.7,25.1C202.5,327.1,202.1,317.8,203.4,308.8z M233,270.9c6.3,1.6,7.8,10.8,2.9,22.3
		c-2.7-0.3-5.4-0.6-8.1-0.8c-6.9-0.5-13.6-0.6-20-0.4C214.6,274.9,226,269.1,233,270.9L233,270.9z M344.9,401.1
		c-1.6-53.9-40-91.9-90.8-104.5c2.3-5.9,4.2-12,5.1-17.4c3.1-18.2-2.5-28.4-14.8-30.5c-19.3-3.4-44,13.8-53.7,44.8
		c-48.9,6.9-82.8,34.9-94.7,67.4c-11.7,31.9,0,58.9,20.7,67.1c21.1,8.3,40.8-3,46.5-17.7c-16-2.8-29.6-18.6-27.7-43.1
		c1.9-25.4,21.2-48.9,51.5-56.2c-1.4,11.6-1.5,23.2-0.8,34.9c-4.3,1.8-9,3.5-14.1,4.8c-1.4,8.2-0.4,16.2-0.4,16.2
		c5.5-1.1,10.8-2.6,15.9-4.5c3.4,29.3,10,58.4,10.4,86.3c0.3,17.2-2.6,36.6-12.3,48.4c-15.7-6.5-26.9-14.9-38.3-16.9
		c-15.9-2.8-29,7.5-27.2,22.6c1.3,11.1,14,21.1,30.5,22.2c13,0.8,27.1-3.5,36.7-9c9.8,3.8,22.2,7.7,34.4,8.5
		C298.5,529.1,346.9,466.7,344.9,401.1"/>
	<path id="path36" inkscape:connector-curvature="0" class="st2" d="M192.7,591.8l-4-3l-5.1-12.8l-5.4,6.5v9.3h-4.9l-3.9-3l3.9-1.9
		v-27.2l0.9-3l4,3v14.6l13.7-16.6l1.5-0.9l4,3L187,572.4l11.5,19.5L192.7,591.8"/>
	<path id="path38" inkscape:connector-curvature="0" class="st2" d="M221.9,591.8l-4-3l4-20.3l-14.4,23.3h-4.4l-4-3l4-29.1l0.9-3
		l4,3v21.6l14.8-24.6l4,3v32.1H221.9"/>
	<path id="path40" inkscape:connector-curvature="0" class="st2" d="M241.5,555.1l-3.9-3l4.4-4.9l3.9,3v4.9H241.5z M236.4,591.8
		l-4-2.9l4.9-32.1l4,3v32.1L236.4,591.8L236.4,591.8z M231.5,555.1l-3.9-3l4.4-4.9l4,3v4.9H231.5"/>
	<path id="path42" inkscape:connector-curvature="0" class="st2" d="M262.8,577.6h-7.6v9.8h7.6c3.2,0,5.3-1.9,5.3-4.9
		C268,579.5,266,577.6,262.8,577.6z M262.4,564h-7.2v8.3h7.2c3.2,0,4-0.8,4-3.7C266.4,565.8,265.6,564,262.4,564L262.4,564z
		 M263.3,591.8h-13l-4-3l4-29.1l15.1-1c0,0,2.7,1.8,4.4,3.3c1.7,1.5,2.6,3.7,2.6,6.3c0,3.2-1.5,5.6-4.3,7c3.2,1.5,4.8,3.8,4.8,7.4
		C273,588.3,269.3,591.8,263.3,591.8"/>
	<path id="path44" inkscape:connector-curvature="0" class="st1" d="M188.7,588.8l-9-15.8l-5.4,6.5v9.3h-4.9v-32.1h4.9v16.1
		l13.1-16.1h6L183,569.3l11.5,19.5H188.7"/>
	<path id="path46" inkscape:connector-curvature="0" class="st1" d="M218,588.8v-23.3l-14.4,23.3h-4.4v-32.1h4.9V580l14.3-23.3h4.5
		v32.1H218"/>
	<path id="path48" inkscape:connector-curvature="0" class="st1" d="M237.5,552.2v-4.9h4.4v4.9H237.5z M232.4,588.8v-32.1h4.9v32.1
		H232.4z M227.5,552.2v-4.9h4.4v4.9H227.5"/>
	<path id="path50" inkscape:connector-curvature="0" class="st1" d="M258.8,574.6h-7.6v9.8h7.6c3.2,0,5.3-1.9,5.3-4.9
		C264.1,576.5,262,574.6,258.8,574.6z M258.4,561.1h-7.2v9.2h7.2c3.2,0,5.2-1.7,5.2-4.6C263.6,562.8,261.6,561.1,258.4,561.1
		L258.4,561.1z M259.3,588.8h-13v-32.1h12.5c5.9,0,9.7,3.4,9.7,8.7c0,3.2-1.5,5.6-4.3,7c3.2,1.5,4.8,3.8,4.8,7.4
		C269,585.3,265.3,588.8,259.3,588.8"/>
	<path id="path52" inkscape:connector-curvature="0" class="st3" d="M200.6,35.9c-1.2,0-20.2,0-35.9,0c-5-15.5-10.6-32.9-11-34.2
		c-0.7-2.3-3.6-2.3-4.3,0c-0.4,1.1-6.2,19.2-11.1,34.2c-15.8,0-34.8,0-36,0c-2.4,0-3.2,2.7-1.3,4.1c0.9,0.7,16.3,11.8,29.1,21.1
		c-4.9,15-10.7,33-11.1,34.1c-0.7,2.3,1.6,3.9,3.5,2.5c0.9-0.7,16.2-11.8,29-21.1c12.8,9.3,28.1,20.4,29,21.1
		c1.9,1.4,4.3-0.2,3.5-2.5c-0.4-1.1-6.2-19.1-11.1-34.1C185.7,51.9,201,40.7,202,40C203.9,38.6,203.1,35.9,200.6,35.9"/>
	<path id="path54" inkscape:connector-curvature="0" class="st4" d="M136.8,58.9l-23.9-17.3L101,40l29.1,21.1L136.8,58.9"/>
	<path id="path56" inkscape:connector-curvature="0" class="st4" d="M160.5,41.6L160.5,41.6l4.2-5.7l-11-34.2l-2.2,11.9L160.5,41.6"
		/>
	<path id="path58" inkscape:connector-curvature="0" class="st4" d="M127.7,86.9l-5.2,10.8l29-21.1v-7.1L127.7,86.9"/>
	<path id="path60" inkscape:connector-curvature="0" class="st4" d="M202.9,37.3c-0.6,0.2-9.4,3.1-12.8,4.3l0,0l-23.9,17.3l9.1,28
		c2.9,4,7.9,10.9,7.9,11c0.7-0.5,1.1-1.5,0.8-2.7c-0.4-1.1-6.2-19.1-11.1-34.1C185.7,51.9,201,40.7,202,40S203.2,38.2,202.9,37.3"/>
	<path id="path62" inkscape:connector-curvature="0" class="st3" d="M329.8,35.9c-1.2,0-20.2,0-35.9,0c-5-15.5-10.6-32.9-11-34.2
		c-0.7-2.3-3.6-2.3-4.3,0c-0.4,1.1-6.2,19.2-11.1,34.2c-15.8,0-34.8,0-36,0c-2.4,0-3.2,2.7-1.3,4.1c0.9,0.7,16.3,11.8,29.1,21.1
		c-4.9,15-10.7,33-11.1,34.1c-0.7,2.3,1.6,3.9,3.5,2.5c0.9-0.7,16.2-11.8,29-21.1c12.8,9.3,28.1,20.4,29,21.1
		c1.9,1.4,4.3-0.2,3.5-2.5c-0.4-1.1-6.2-19.1-11.1-34.1c12.8-9.3,28.1-20.4,29.1-21.1C333.1,38.6,332.2,35.9,329.8,35.9"/>
	<path id="path64" inkscape:connector-curvature="0" class="st4" d="M265.9,58.9L242,41.6L230.1,40l29.1,21.1L265.9,58.9"/>
	<path id="path66" inkscape:connector-curvature="0" class="st4" d="M289.7,41.6L289.7,41.6l4.2-5.7l-11-34.2l-2.2,11.9L289.7,41.6"
		/>
	<path id="path68" inkscape:connector-curvature="0" class="st4" d="M256.8,86.9l-5.2,10.8l29-21.1v-7.1L256.8,86.9"/>
	<path id="path70" inkscape:connector-curvature="0" class="st4" d="M332.1,37.3c-0.6,0.2-9.4,3.1-12.8,4.3l0,0l-23.9,17.3l9.1,28
		c2.9,4,7.9,10.9,7.9,11c0.7-0.5,1.1-1.5,0.8-2.7c-0.4-1.1-6.2-19.1-11.1-34.1c12.8-9.3,28.1-20.4,29.1-21.1
		C332.1,39.3,332.4,38.2,332.1,37.3"/>
</g>
</svg>
