<?xml version="1.0" encoding="utf-8"?>
<!-- Generator: Adobe Illustrator 21.1.0, SVG Export Plug-In . SVG Version: 6.00 Build 0)  -->
<svg version="1.1" id="Layer_1" xmlns="http://www.w3.org/2000/svg" xmlns:xlink="http://www.w3.org/1999/xlink" x="0px" y="0px"
	 viewBox="0 0 200 200" style="enable-background:new 0 0 200 200;" xml:space="preserve">
<style type="text/css">
	.st0{fill:#008240;}
	.st1{fill:#FFFFFF;}
</style>
<g>
	<path class="st0" d="M21.1,130.8V0h157.8v130.8c0,19.6-9.3,20.4-24.3,29.6c-24.3,14.8-45.4,26.7-54.6,39.6
		c-9.2-12.9-30.3-24.8-54.6-39.6C30.4,151.2,21.1,150.5,21.1,130.8L21.1,130.8z"/>
	<path class="st1" d="M100,33.4H28v97.4c0,12,3.1,13.7,13.2,19.2c2.3,1.3,5,2.7,7.8,4.5l8.2,5c17.4,10.5,32.8,19.9,42.8,29.9V33.4
		L100,33.4z"/>
	<path class="st1" d="M112.4,33.4V179c4.8-3.5,10.2-7.1,16-10.7V33.4H112.4L112.4,33.4z"/>
	<path class="st1" d="M140.8,33.4v127.3c0.6-0.4,1.3-0.8,1.9-1.2l8.2-5c2.1-1.3,4-2.4,5.8-3.4V33.4H140.8L140.8,33.4z"/>
	<path class="st0" d="M86.8,86.4c-0.8-0.8-1.4-1.7-2-2.6c-4.5-7.6-1.8-18.2-4.8-21.5c-3-2.4-5.5-3.4-6.6-4.8
		c-0.2-0.3-0.6-1.5,0.1-1.9c0.9-0.4,0.7,0.1,2.2,0.1c7.9-1.4,7-12.6,0.7-12.6c-3.4,0-3.8-0.8-5.5-0.8c-3.8-2.2-5.5-0.8-6.7,0.7
		c-0.4,0.5-0.8,1-1.2,1.4c-2.4,2.6-4.2,4.7-2.6,9.2c-0.4,0.9,1.3,0.8,2.2,1.7c0.9,0.9,0.4,2.2-0.9,2.4c-3.6,0.4-6.9,2.2-11.1,5.2
		c-0.4,0.3-0.8,0.6-1.2,0.9c-0.6,0.1-1.3,0.2-2,0.3c-3.3-8.2-2-13.8-0.3-14.3c1-1.7,2.2-2.7,3.5-3.3c1.5-0.7,3.1-0.8,4.9-0.8
		c2.9-0.5,0.7-2.8,0.9-3c0.7-1.1,1.1-2.2-1.5-2.8c-1-0.3,1.6-3.4-2.8-3.3c0-1.1-0.8-1.5-1.6-1.5c-0.7,0-1.5,0.2-1.6,0.3
		C47,36.4,48,39,47,40.5C41.6,40,40.6,43,40.1,46c0,0.4-1.4,0.7-1.6,0.9c-0.9,0.5-2.2,1.7-2.9,1.7v4.5c0.5,0.8,1.4,0.8,1.9,0.4
		L40,52c-0.8,9.2,0.4,17.8,2,19.7c1.7,0.8,3,0.5,6.6-0.9c-1,5.5-4.8,15.2-5.5,25c0.3,1.5,0.9,2.6,2,3.5l-1.1,11.5
		c1.3,3.4,4.3,2.2,4.3,3.1c-0.1,1.8-0.9,6.4,2.4,6.3v32.2c1,0.4,1.5,1.3,2.1,1.4c5.5,0.6,4.7-2.2,7-1.3c1,0.1,2.3,1.4,3.2,1.4
		c0.4,0,0.8,0,1.2,0c7.5,0,15.2,0.5,20.7,1c0.5,0,1.1,0.1,1.5,0.1c-0.3-1.4-0.8-3.8-1.5-5.6c-0.3-0.7-0.6-1.3-1-1.8
		c-0.4-1.7-2.2-6.4-2.2-9.7c0-6.4-1.9-10.8-2.5-12.4c-0.6-1.5-0.2-4.1-0.4-5.6c-0.5-4.7-0.6-9.1-1.1-10.9c-0.3-4-1.2-7.6-0.7-10.6
		c0.1,0.1,1-0.5,1,0.2c-0.2,11.1,2.7,13,4.2,17.1c0.8,0.8,1.8,1.3,2.6,1.9c0.6,0.4,1.1,0.9,1.5,1.4c1.6,2.2,1.9,4.7,2.9,4.7
		c0.8,0,1.5-1.7,4.1-4.7c0-2,0.1-3,2-5.1c-1.9-4.2-5.2-7-4.3-12.5c2.3,1.1,5.7,1.4,5.9,1C97.6,98.9,94.4,95.7,86.8,86.4L86.8,86.4z"
		/>
	<path class="st1" d="M163.9,9.8h0.2c1.7,0,2.1-0.9,2.1-1.5h1.4V17h-1.7v-6h-2.1V9.8L163.9,9.8z"/>
	<path class="st1" d="M165.1,25.6c0-1.3,0.8-1.5,1.2-1.5c0.9,0,1.3,0.6,1.3,1.6c0,1-0.7,1.5-1.3,1.5
		C165.7,27.2,165.1,26.9,165.1,25.6L165.1,25.6L165.1,25.6z M163.6,29.4c0.1,1.4,1.2,2.3,2.7,2.3c1.6,0,3.2-1.1,3.2-4.5
		c0-1.2,0-4.5-3.1-4.5c-1.7,0-3,1-3,3.1c0,1.5,1,2.7,2.6,2.7c0.6,0,1.3-0.1,1.7-0.7l0,0c0,1.8-0.7,2.4-1.4,2.4c-0.5,0-0.9-0.3-1-0.9
		v0L163.6,29.4L163.6,29.4z"/>
	<path class="st1" d="M165.1,40c0-1.3,0.8-1.5,1.2-1.5c0.9,0,1.3,0.6,1.3,1.6c0,1-0.7,1.5-1.3,1.5C165.7,41.6,165.1,41.3,165.1,40
		L165.1,40L165.1,40z M163.6,43.8c0.1,1.4,1.2,2.3,2.7,2.3c1.6,0,3.2-1.1,3.2-4.5c0-1.2,0-4.5-3.1-4.5c-1.7,0-3,1-3,3.1
		c0,1.5,1,2.7,2.6,2.7c0.6,0,1.3-0.1,1.7-0.7l0,0c0,1.8-0.7,2.4-1.4,2.4c-0.5,0-0.9-0.3-1-0.9v0L163.6,43.8L163.6,43.8z"/>
	<path class="st1" d="M165.2,56c0-2.3,0.3-3.1,1.3-3.1c1,0,1.3,0.9,1.3,3.1c0,2.3-0.3,3.1-1.3,3.1S165.2,58.2,165.2,56L165.2,56
		L165.2,56z M163.4,56c0,3.1,1,4.5,3,4.5c2.1,0,3-1.4,3-4.5c0-3.1-1-4.5-3-4.5C164.4,51.5,163.4,52.9,163.4,56L163.4,56z"/>
	<path class="st1" d="M114,18.2c0,5.4-4.4,9.7-9.9,9.7c-5.5,0-9.9-4.3-9.9-9.7s4.4-9.7,9.9-9.7C109.6,8.5,114,12.8,114,18.2
		L114,18.2L114,18.2z M104.1,14.7c-1.7,0-3.1,1.5-3.1,3.5s1.4,3.5,3.1,3.5c1.7,0,3.1-1.6,3.1-3.5C107.2,16.2,105.8,14.7,104.1,14.7
		L104.1,14.7z"/>
	<polygon class="st1" points="84.8,8.9 84.8,21.4 91.3,21.4 91.3,27.4 78.2,27.4 78.2,8.9 	"/>
	<polygon class="st1" points="74.5,8.9 74.5,14 68.8,14 68.8,16.1 73.8,16.1 73.8,20.8 68.8,20.8 68.8,27.4 62.1,27.4 62.1,8.9 	"/>
	<polygon class="st1" points="40.3,8.9 40.3,14 34.7,14 34.7,16.1 39.7,16.1 39.7,20.8 34.7,20.8 34.7,27.4 27.9,27.4 27.9,8.9 	"/>
	<path class="st1" d="M53.8,21.7c-2.3,0-3.6-1.2-3.6-3.6c0-2.1,1.6-3.6,3.6-3.6c1.7,0,3,1,3.9,1.7V9.4c-1.3-0.6-2.8-1-4.3-1
		c-5.8,0-9.9,4.1-9.9,9.7c0,5.8,4.1,9.7,9.9,9.7c1.5,0,3-0.3,4.3-1v-6.8C57.1,20.6,55.4,21.7,53.8,21.7L53.8,21.7z"/>
	<path class="st1" d="M149.1,27.4h7.2l-6.6-18.5h-7.4l-6.6,18.5h7.2l0.6-2.3h5L149.1,27.4L149.1,27.4L149.1,27.4z M144.6,20.7
		l1.4-5.9l1.4,5.9H144.6L144.6,20.7z"/>
	<path class="st1" d="M125.8,13.7c0.7,0,1.2,0.3,1.4,0.5c0.4,0.3,0.6,0.9,0.6,1.4c0,0.5-0.3,0.9-0.6,1.3c-0.2,0.2-0.5,0.4-1.4,0.4
		h-1v-3.6H125.8L125.8,13.7L125.8,13.7z M118.3,8.9v18.5h6.5v-6.1l3.1,6.1h7.5l-4.8-7.5c1-0.1,1.9-0.7,2.6-1.5
		c0.6-0.8,0.9-2,0.9-3.2c0-2-0.7-3.5-1.9-4.7s-3.2-1.7-5.6-1.7L118.3,8.9L118.3,8.9z"/>
</g>
</svg>
