<?xml version="1.0" encoding="utf-8"?>
<!-- Generator: Adobe Illustrator 21.1.0, SVG Export Plug-In . SVG Version: 6.00 Build 0)  -->
<svg version="1.1" id="Layer_1" xmlns="http://www.w3.org/2000/svg" xmlns:xlink="http://www.w3.org/1999/xlink" x="0px" y="0px"
	 viewBox="0 0 200 200" style="enable-background:new 0 0 200 200;" xml:space="preserve">
<style type="text/css">
	.st0{fill-rule:evenodd;clip-rule:evenodd;fill:#D4252C;}
	.st1{fill-rule:evenodd;clip-rule:evenodd;fill:#FFFFFF;}
	.st2{fill-rule:evenodd;clip-rule:evenodd;fill:#214CA0;}
	.st3{fill-rule:evenodd;clip-rule:evenodd;fill:url(#SVGID_1_);}
	.st4{fill-rule:evenodd;clip-rule:evenodd;fill:#000103;}
	.st5{fill-rule:evenodd;clip-rule:evenodd;fill:url(#SVGID_2_);}
	.st6{fill-rule:evenodd;clip-rule:evenodd;fill:url(#SVGID_3_);}
	.st7{fill-rule:evenodd;clip-rule:evenodd;fill:url(#SVGID_4_);}
	.st8{fill-rule:evenodd;clip-rule:evenodd;fill:#294182;}
	.st9{fill-rule:evenodd;clip-rule:evenodd;fill:#6384A1;}
	.st10{fill-rule:evenodd;clip-rule:evenodd;fill:#715844;}
	.st11{fill-rule:evenodd;clip-rule:evenodd;fill:#CBC178;}
	.st12{fill-rule:evenodd;clip-rule:evenodd;fill:#A38F6A;}
	.st13{fill-rule:evenodd;clip-rule:evenodd;fill:url(#SVGID_5_);}
	.st14{fill-rule:evenodd;clip-rule:evenodd;fill:url(#SVGID_6_);}
	.st15{fill-rule:evenodd;clip-rule:evenodd;fill:url(#SVGID_7_);}
	.st16{fill-rule:evenodd;clip-rule:evenodd;fill:url(#SVGID_8_);}
	.st17{fill-rule:evenodd;clip-rule:evenodd;fill:url(#SVGID_9_);}
	.st18{fill-rule:evenodd;clip-rule:evenodd;fill:url(#SVGID_10_);}
	.st19{fill-rule:evenodd;clip-rule:evenodd;fill:#006DB7;}
	.st20{fill-rule:evenodd;clip-rule:evenodd;fill:#5E2723;}
	.st21{fill-rule:evenodd;clip-rule:evenodd;fill:#2C2C54;}
</style>
<g>
	<path class="st0" d="M100,200c55.2,0,100.3-44.9,100.3-100C200.3,44.9,155.2,0,100,0C44.8,0-0.3,44.9-0.3,100
		C-0.3,155.1,44.8,200,100,200z"/>
	<path class="st1" d="M100,198.2c54.2,0,98.5-44.1,98.5-98.2c0-54.1-44.2-98.2-98.5-98.2C45.8,1.8,1.5,45.9,1.5,100
		C1.5,154.1,45.8,198.2,100,198.2z"/>
	<path class="st2" d="M100,197.3c53.7,0,97.6-43.7,97.6-97.3c0-53.6-43.8-97.3-97.6-97.3C46.3,2.7,2.4,46.4,2.4,100
		C2.4,153.6,46.3,197.3,100,197.3z"/>
	<path class="st1" d="M100.2,175.1c41.4,0,75.1-33.8,75.1-75.1c0-41.4-33.8-75.1-75.1-75.1C58.8,24.9,25,58.6,25,100
		C25,141.4,58.8,175.1,100.2,175.1z"/>
	<path class="st0" d="M100.2,174c40.8,0,74-33.2,74-74c0-40.8-33.2-74-74-74c-40.8,0-74,33.2-74,74C26.1,140.8,59.4,174,100.2,174z"
		/>
	<radialGradient id="SVGID_1_" cx="100.1509" cy="100" r="103.819" gradientUnits="userSpaceOnUse">
		<stop  offset="0" style="stop-color:#FBEDA6"/>
		<stop  offset="0.32" style="stop-color:#FAEBA7"/>
		<stop  offset="0.58" style="stop-color:#EFE4B1"/>
		<stop  offset="0.63" style="stop-color:#E1DAC0"/>
		<stop  offset="0.69" style="stop-color:#D1CDCF"/>
		<stop  offset="0.75" style="stop-color:#CBCBD5"/>
		<stop  offset="1" style="stop-color:#CBCBD5"/>
	</radialGradient>
	<path class="st3" d="M100.2,173.4c40.4,0,73.4-33,73.4-73.4c0-40.4-33-73.4-73.4-73.4c-40.4,0-73.4,33-73.4,73.4
		C26.7,140.4,59.7,173.4,100.2,173.4z"/>
	<path class="st4" d="M100,112.4c24.7,0,46,14.1,56.5,34.7c-13.5,16.1-33.7,26.3-56.3,26.3c-22.7,0-43.1-10.3-56.5-26.6
		C54.1,126.4,75.4,112.4,100,112.4z"/>
	<radialGradient id="SVGID_2_" cx="100.052" cy="175.8358" r="53.1776" gradientUnits="userSpaceOnUse">
		<stop  offset="0" style="stop-color:#FFFFFF"/>
		<stop  offset="0.58" style="stop-color:#FFFFFF"/>
		<stop  offset="0.67" style="stop-color:#FFFFFF"/>
		<stop  offset="0.72" style="stop-color:#EDE0E3"/>
		<stop  offset="0.8" style="stop-color:#E8D2D7"/>
		<stop  offset="1" style="stop-color:#E8D2D7"/>
	</radialGradient>
	<path class="st5" d="M100,112.8c4.3,0,8.6,0.4,12.7,1.3c4.3,2.1,9,4.2,11.3,5.8c-1,2.9-1.3,6.2-1.2,9.3c-8.7-0.5-17.3-0.7-25.8,0.1
		c-4.9-4.2-10.9-7.3-16.9-9.5c1.4-2.2,2.9-3.7,4.5-5.1C89.5,113.5,94.7,112.8,100,112.8L100,112.8z M156.2,147.4
		c-5.9-11.7-15.4-21.4-27-27.5c-1.8-0.1-3.5-0.1-4.8,0.1c-1,3-1.2,6.4-1.2,9.6c4.5,6.9,8.2,14.3,11.1,20.5c4.3,1.7,8.4,4,11.9,7
		C149.8,154.2,153.2,151,156.2,147.4L156.2,147.4z M145.9,157.4c-8.8,7-19.2,12-30.6,14.4l-0.1-0.4c-0.5-2.7-1-5.3-1.6-8
		c7-4.4,13-7.7,20.7-12.8C138.4,152.3,142.4,154.5,145.9,157.4L145.9,157.4z M114.8,171.9l-0.1-0.4c-0.5-2.7-1-5.4-1.6-8
		c-7.1-4.2-14.3-8.1-21.4-12.4c-2.8,1.7-5.5,3.3-8.3,4.9c-2.1,1.2-4.3,2.5-6.5,3.7l-0.2,0.1l-0.2-0.4l0.2-0.1
		c2.2-1.2,4.3-2.4,6.5-3.7c2.8-1.6,5.6-3.3,8.3-4.9c1.3-6.8,3.1-14.1,5.1-21.2c-4.9-4.2-11-7.3-17-9.4c-9.9,2.9-17.2,7-25.7,15
		c-1.2,2.9-2.2,5.9-2.7,9c-0.6,3.5-0.6,7-0.1,10.4c13,11.8,30.3,18.9,49.2,18.9C105.2,173.4,110.1,172.9,114.8,171.9L114.8,171.9z
		 M50.4,154c-2.3-2.1-4.5-4.4-6.5-6.8c2.2-4.4,5-8.5,8.1-12.2l1.2,0.2c-1.2,2.9-2.1,5.7-2.6,8.8C50.1,147.3,50,150.7,50.4,154z"/>
	<linearGradient id="SVGID_3_" gradientUnits="userSpaceOnUse" x1="155.0543" y1="127.6866" x2="48.2035" y2="55.6148">
		<stop  offset="0" style="stop-color:#0864A1"/>
		<stop  offset="9.000000e-02" style="stop-color:#0864A1"/>
		<stop  offset="0.15" style="stop-color:#2868A3"/>
		<stop  offset="0.3" style="stop-color:#6B82A8"/>
		<stop  offset="0.49" style="stop-color:#A9ABAE"/>
		<stop  offset="0.64" style="stop-color:#D1C0A6"/>
		<stop  offset="0.72" style="stop-color:#DDC7A2"/>
		<stop  offset="0.83" style="stop-color:#E7D1A0"/>
		<stop  offset="0.91" style="stop-color:#F1DAA2"/>
		<stop  offset="1" style="stop-color:#F3D89D"/>
	</linearGradient>
	<path class="st6" d="M72.8,102.5c0.9-1.4,1.8-2.9,2.8-4.4c0.9-1.4,1.9-2.2,3-4.2l0-1.5l1.8-2.7l-1.2-1.1l-1,0.4l-3.2-2l0.1-1.1
		l-0.3-0.3l-0.6,0.1l-1.6-2.1l-1.8-1.3l-0.5-1.3c-0.4-0.2-1.3-0.6-1.6-0.9l-2.6-2.4l-2.7-1.4c-1.1-0.5-2.5-3.2-3.8-4.8l-2.8-2.2
		L54.1,68c-0.4-0.1-0.9-0.6-1.5-0.9c-0.7-0.3-1.5-0.3-1.7-0.6l-1.4-1.2c0.4-0.6,1.3-0.9,2.2-1c1.3,0.2,2,0.5,4,0.6l0.1-1.3L52,61.1
		l-0.9-0.2l-2.8-2.7l0.2-1.6l-0.9-1.1l-0.1-2.3l1-0.8c1.3-0.3,2-0.4,3.5-0.1c1.9-0.1,3.8-0.1,5.7-0.2c2.3-0.1,4.8-0.2,6.7,0.1l7.3,3
		c1,0.1,2.4-0.6,4.1-2.1c0.9,0,1.3,0.2,1.9,0.8c1,1,2.7,2.7,3.1,3.7l0.5,2.1l8.8,0.9l4.6,2.2l5.2-0.9l4.1,1.3l5.6,2.9
		c2.2,0.5,4.9,0.5,7.5,0.7l4,1.6c3.1,0.3,6,0.7,8.7,1.3c3.4,0.8,5.7,1.9,9.1,3.1c3,2.1,5.8,4.4,8.2,7c2.7,3.5,5.5,6.8,8.2,9.9
		l-1.3,1.9l0.1,2.1c-0.1,1-0.7,1.4-1.2,1.8l3,2.3c0.2,0.8,0.2,1.5,0.4,2.2c0.2,0.7,0.5,1.4,0.7,2.1c1,4,1.5,7.8,1.9,10.8
		c0.2,1.2,0.8,2.3,1,3.5l0.1,1.9l1.4,1.5l0.9,3.2c-1.9,2-3.9,2.6-5.7,3.9c-2.1,1.4-4,3.1-6.1,4.6l-1.4,0.4l-0.7,0.6l-0.7-0.3
		l-1.2-0.4l-0.3,0.4l-0.2-0.1l-1.3-0.3l-0.8,0.1l-0.8-0.8l-1,0.2l-0.7,0l-0.3-0.4l-1.1,0.1l-0.9-1.2l-0.9,0l-0.1-1.5
		c0.2-0.4,0.5-0.9,0.8-1.4c0.5-0.7,0.6-0.9,1.4-1c1.9-0.1,3.7,0.1,4.4-0.6c0.4-0.4,0.5-0.9,0.9-1.7l0-0.4l-0.2-0.6l0.2-1.1
		c-0.6-0.8-0.9-1.2-1.7-1.4l0,0.9c-0.8,1-1.7,2-2.5,2.8c-0.6,0.4-1.5,1.1-2.4,1.6c-3.8-2.9-7.9-5.4-12.3-7.4c0.6-0.8,1-1.3,1.2-1.6
		c0.5-1,1.1-1.9,0.9-2.2c-0.1-0.2-0.2-0.4-0.4-0.6c-0.3-0.4-0.9-0.6-1.6-0.7c-0.4-0.1-1.5-0.2-1.8-0.3c-2.3-0.9-4.3-1.8-7.6-1.4
		c-0.5,2.2-0.2,4.8,0,7.1c-1.9,1.3-3.2,3.7-4.4,6.1l-1.4-0.1l-1,0.5l-4.4-0.2l-0.9-0.5l-1.1,0l-0.8,0.4l-2.1-0.1l-0.7-0.5l-1.4,0
		l-2-1.3l0-1.7c0.4-0.8,0.9-1.4,1.4-1.9l1.6,0l0.7-0.9l0-2.2c-0.2-0.6-0.5-1.5-0.7-2.1c-0.5-1.4-0.9-2.7-1.4-3.9
		c-0.2-0.5-0.4-0.8-0.7-1.3c-0.3-0.6-0.6-1.5-0.7-1.8c-0.4-0.6-0.1-1.5-0.7-2c-0.3-0.2-0.8-0.4-1.2-0.4c-0.6,0-0.5,0.5-1.3,0.9
		c-0.3,0.2-0.6,0.4-1,0.5c-1.1,0.3-1.8,0.6-2.5,0.9c-0.4,0.2-0.9,0.1-1.2,0.3l0,0.3l-0.6,0.7c0.7,0.6,1.4,1.7,2.2,3.1l-0.1,2.1
		c-5.5,0.8-10.9,2.4-15.8,4.5c0.3-3.1,4-4.2,2.8-5.8c-0.6-0.8-1.1-1.1-1.9-2.1c-0.8-1-1.7-2.6-2.5-3.9l0.6-1.9L72.8,102.5z"/>
	<linearGradient id="SVGID_4_" gradientUnits="userSpaceOnUse" x1="39.8668" y1="59.5531" x2="151.8012" y2="129.4974">
		<stop  offset="0" style="stop-color:#294182"/>
		<stop  offset="0.25" style="stop-color:#294182"/>
		<stop  offset="0.52" style="stop-color:#2A3D77"/>
		<stop  offset="0.74" style="stop-color:#2B305D"/>
		<stop  offset="0.9" style="stop-color:#2C2C54"/>
		<stop  offset="1" style="stop-color:#2B2B51"/>
	</linearGradient>
	<path class="st7" d="M79.2,88.5L79.2,88.5l-1,0.4l-3.2-2l0.1-1.1l-0.3-0.3l-0.6,0.1l-1.6-2.1l-1.8-1.3l-0.5-1.3
		c-0.4-0.2-1.3-0.6-1.6-0.9l-2.6-2.4l-2.7-1.4c-1.1-0.5-2.5-3.2-3.7-4.8c1.6,0.4,2.8,0.8,3.4,1.1c0.8,0.3,1.8,1.1,2.7,2.3
		c0,0.9,0.1,1.2,0.3,1.6c0.2,0.4,0.5,0.7,0.8,1.1l0.3-1.5c0.1,1.4,0.7,1.6,1,2.3l0.5-1.7c0.4,0.4,0.7,0.8,0.9,1.3
		c0.1,0.6,0,1.2,0.1,1.9c0,0.4,0.4,0.2,0.7-0.1c0.2-0.2,0.4-0.3,0.5-0.2l1.1,0.7l2.4,3.9c1.5,0.8,3,1.5,4.3,1.9l2.9,2l2.4,0.3
		c1.2,0.3,2.1,0.8,3.3,1.1c2.4,0.7,4,0.6,5.7,1.4l0-3.5c0.3-0.7,0.8-1.1,0.7-2.3c-0.1-1.1-0.7-1.6-2.1-3c-0.2-0.2,0.5-0.3,0.8,0
		c0.9,0.7,1.3,1.3,1.9,2.3c0.4,0.6,0.8,1,1.3,1.5c-0.4,0.3-0.7,0.9-0.7,0.9c0.2,0.6,0.8,1.1,1.5,1.8l-0.6,1.5l1.1-0.5
		c-1,1.8-1.7,3.5-2,5.4c1.3,2.2,2.2,4.3,3.3,7.2l1.3,2.1c0.5,2.7,0.5,5.1,1,7.7c0.2,0.9,0.7,1.8,0.9,2.7c0.1,0.5,0.1,0.9,0.2,1.5
		c0.1,0.3,0.5,1,0.6,1.3l-2.2,2.1l-1.7,0.3c-0.5,0.2-0.7,0.7-0.7,1.5c0,0.6,0,1.1,0.2,1.7c0.8,0.6,1.1,0.7,1.9,0.8l0.6,0l0.7,0.5
		l2.7,0l-0.8,0.4l-2.1-0.1l-0.7-0.5l-1.4,0l-2-1.3l0-1.7c0.4-0.8,0.9-1.4,1.4-1.9l1.6,0l0.7-0.9l0-2.2c-0.2-0.6-0.5-1.5-0.7-2.1
		c-0.5-1.4-0.9-2.7-1.4-3.9c-0.2-0.5-0.4-0.8-0.7-1.3c-0.3-0.6-0.6-1.5-0.7-1.8c-0.4-0.6-0.1-1.5-0.7-2c-0.3-0.2-0.8-0.4-1.2-0.4
		c-0.6,0-0.5,0.5-1.3,0.9c-0.3,0.2-0.6,0.4-1,0.5c-1.1,0.3-1.8,0.6-2.5,0.9c-0.4,0.2-0.9,0.1-1.2,0.3l0,0.3l-0.6,0.7
		c0.7,0.6,1.4,1.7,2.2,3.1l0,0.8l0-0.1c-0.2-0.6-0.6-1.3-1.1-2c-0.6-0.7-1.4-1.5-2.3-2.1c0-0.2,1.2-0.1,1.3-0.4
		c-0.3-0.8-1.4-1.3-1.9-1.9c-0.1-0.3,0.1,0,0.4,0.1c0.7,0.3,1.1,0.4,1.4,0.4c0.1,0,0.1-0.1,0-0.2c-0.4-0.3-0.8-0.6-1.2-1
		c-0.4-0.4-0.8-0.8-1.1-1.2c0.5,0.4,0.9,0.8,1.4,1c0.1,0.1,0.3,0,0.4,0.1c0.3,0.2,0.6,0.2,0.9,0.4c0.1,0,0.1-0.2,0-0.3
		c-0.9-0.7-1.9-1.6-2.1-2.3c0.4,0.4,0.8,0.7,1.1,0.9c0.4,0.3,0.4,0.4,0.6-0.1c0.1-0.4,0.1-0.8-0.2-1.1c-0.3-0.3-0.2-0.8-0.4-1
		c-0.7-0.5-1.4-0.8-1.6-1.7c-0.1-0.3-0.1-0.9,0.5-1.2c0.1-0.8-0.1-1.5,0-2.2c0.2-0.8,0.8-1.6,0.9-2.5c-0.2-0.2-0.4-0.6-0.6-0.8
		c-0.2,0.3-0.4,0.6-0.6,0.9c-1.8-0.5-3.2-1.2-4.6-2.1c0.3-0.4,0.5-0.9,0.9-1.3c-0.6-0.8-1-1.1-1.9-1.3C80,88.4,79.7,88.3,79.2,88.5
		L79.2,88.5z M104.8,123.9l6.4,0.1l0,0l-0.1,0l-1,0.5l-4.4-0.2L104.8,123.9L104.8,123.9z M58.2,70.1l-1.3-1L54.1,68
		c-0.4-0.1-0.9-0.6-1.5-0.9c-0.7-0.3-1.5-0.3-1.7-0.6l-1.4-1.2c0.4-0.6,1.3-0.9,2.2-1c1.3,0.2,2,0.5,4,0.6l0.1-1.3L52,61.1l-0.9-0.2
		l-2.8-2.7l0.2-1.6l-0.9-1.1l-0.1-2.3l0.9-0.8c0.1,0,0.2,0,0.2,0.2V54c0,0.6,0.5,0.8,0.8,0.8c0.5,0,1.9-0.3,2.5-0.2
		c0.2,0,0.1,0.3,0,0.3c-0.4,0.1-1,0.2-1.3,0.2c-0.2,0-0.7,0.5-0.8,0.7c0,0.2,0.1,0.5,0.2,0.6l1.6,0.9l0.7,1.5l4.6,2.3
		c1.8,0.8,3.6,1,4.9,2.3c0.2,0.2,0.2,0.8-0.2,0.7c-1.7-0.4-2.5-0.2-3.1,0.2L58.2,70.1L58.2,70.1z M144.2,125.2
		c0.4-0.4,0.5-0.9,0.9-1.7l0-0.4l-0.2-0.6l0.2-1.1c-0.6-0.8-0.9-1.2-1.7-1.4l0,0.9c-0.8,1-1.7,2-2.5,2.8c-0.6,0.4-1.5,1.1-2.4,1.6
		c-3.8-2.9-7.9-5.4-12.3-7.4c0.6-0.8,1-1.3,1.2-1.6c0.5-1,1.1-1.9,0.9-2.2c-0.1-0.2-0.2-0.4-0.4-0.6c-0.3-0.4-0.9-0.6-1.6-0.7
		c-0.4-0.1-1.5-0.2-1.8-0.3c-2.3-0.9-4.3-1.8-7.6-1.5l0.9-1.7c0.2-2-0.7-4.4-1.8-6.7l0-3c-1.1-1.6-0.9-3.2,0.4-5.2l0.1-1.4
		c-0.9-2.7-1.9-3-3.1-4.7c-0.6-0.6,0-1.7,0.5-1.1c1.4,1.9,2.6,3.4,4,5l0.8,1.8l1.3,0.7l0.4,1.4c7.8,3,11.1,6.3,13.5,9.6
		c-0.4-2.9-0.8-3.4-1.5-5.2c0-1.4-0.5-4.1-0.4-5.7c0.1-1.8,0.8-2.7,1.2-4.4c0.1,1.9-0.5,3.2-0.3,4.8c0.2,1.8,0.2,3,0.5,4.8
		c0.2,1.4,1.4,2.8,1.4,4.4c0.1,1.7,0,2.3,0.1,3.7c0,1.8,1.3,2.6,1.9,3.6l1.4,3c1.9,1.1,5.8,2.7,6.6,3.9c0.3,0.4,0.7,1.1,0.9,1.6v3.1
		l0.4,0.2l-1.2,1.5L144.2,125.2z"/>
	<path class="st8" d="M71.7,55.1c1,0,2.3-0.7,4-2.1c1.2,1.3,1.9,2.3,3.4,3.6c0.2,0.2,0.3,0.7-0.1,0.8c-0.1,0-0.3,0.1-0.5,0.1
		c-0.2,1.1,0,1.9-0.1,3c-0.2,1.6-0.9,2.2-1.1,5c-0.2-1.1-0.6-1.5-0.6-2.3c0-1.1,0.4-2.1,0.1-3.2c-0.1-0.3-0.3-0.7-0.4-1
		c-0.3-0.6-0.6-1.1-1.4-1.9c-0.6,0-1.2,0-1.6,0c0.4-0.6,0.9-0.8,1.6-1.3c-0.4-0.2-1.8,0.5-2.7,0.4C71.7,56.2,71.7,55.6,71.7,55.1z"
		/>
	<path class="st8" d="M61.1,53.1l0.3,1c1.9,0,2.8,0.1,4.9,1.1C65.3,54,62.9,53.1,61.1,53.1z"/>
	<path class="st8" d="M64.2,57.6c-0.9-0.1-1.4-0.3-1.5-0.9c-0.1-0.5,0-1.1,0.9-1.4v-0.9c-1.4,0.4-1.7,1.3-1.6,2
		C62,57.5,63.2,58,64.2,57.6z"/>
	<path class="st9" d="M65.3,74.1c1.1,0.7,2.7,1.5,3.6,2.6c-0.1-0.1-0.2-0.2-0.3-0.3l-0.5,1.7c-0.3-0.8-0.9-0.9-1-2.3l-0.3,1.5
		c-0.3-0.5-0.6-0.7-0.8-1.1c-0.2-0.4-0.3-0.7-0.3-1.6C65.6,74.4,65.4,74.3,65.3,74.1L65.3,74.1z M69.2,77.2c0.5,0.8,1.1,1.6,1.8,2.3
		l-0.3-0.2c-0.2-0.1-0.3,0-0.5,0.2c-0.3,0.3-0.7,0.5-0.7,0.1c0-0.6,0-1.3-0.1-1.9C69.4,77.5,69.3,77.4,69.2,77.2z"/>
	<path class="st10" d="M54.4,77c-1.8-0.6-2.2-5-1.3-8.5c0.1-0.3,0.2-0.6,0.2-0.9l1.1,0.5c-0.2,0.9-0.3,1.9-0.4,2.8
		c-0.3,2.7-0.2,5.4,0.8,5.7c0.3,0.1,0.6,0,0.9-0.2c-0.2,0.2-0.5,0.4-0.7,0.5C54.8,76.9,54.6,77,54.4,77L54.4,77z M56,76.1
		C56,76,56,76,56,76.1L56,76.1L56,76.1z"/>
	<path class="st11" d="M53.2,78.2l-1.1,7.3l-2-0.3l-0.1,0.5l-0.4-0.1l-0.1,0.8l-1-0.1l-0.1,0.8l0.6,0.1L49,88l2.8,0.4l-0.2,1.1
		c0.4,0.3,0.8,0.4,1.2,0.2l1.6-11.3l1,0.1c1,0.1,2-0.6,2.2-1.7l0,0c0.2-1.1-0.6-2.1-1.6-2.3l-3.4-0.5c-1-0.1-2,0.6-2.2,1.7l0,0
		c-0.2,1.1,0.6,2.1,1.6,2.3L53.2,78.2L53.2,78.2z M52.5,74.9l3.4,0.5c0.6,0.1,1.1,0.7,1,1.4l0,0c-0.1,0.7-0.7,1.2-1.3,1.1l-3.4-0.5
		c-0.6-0.1-1.1-0.7-1-1.4l0,0C51.3,75.2,51.9,74.8,52.5,74.9z"/>
	<path class="st12" d="M57.4,75.7c-0.2-0.4-0.5-0.7-0.8-0.9c-0.1,0.2-0.2,0.5-0.3,0.7c0.3,0.2,0.5,0.5,0.6,0.9
		C57.1,76.1,57.3,75.9,57.4,75.7z"/>
	<linearGradient id="SVGID_5_" gradientUnits="userSpaceOnUse" x1="63.8007" y1="46.2479" x2="48.6634" y2="95.7596">
		<stop  offset="0" style="stop-color:#715844"/>
		<stop  offset="0.18" style="stop-color:#725B46"/>
		<stop  offset="0.43" style="stop-color:#CABC85"/>
		<stop  offset="1" style="stop-color:#D3C58B"/>
	</linearGradient>
	<path class="st13" d="M57.7,62.5c0.7,0.1,1.1,0.5,1.5,1.2c0.7,1.2,1,3.2,0.4,6.3c-0.9,4.8-3.1,7.5-5.1,7.1c0,0-0.1,0-0.1,0
		c0.6-0.1,0.9-0.3,1.4-0.7c0.7-0.6,1.6-2.3,2.3-6.3c0.8-4.8-0.1-6.2-0.8-6.5c-0.5-0.2-1.1-0.2-1.5,0.2l-0.4-0.3
		c0.1-0.1,0.3-0.3,0.4-0.4C56.3,62.5,56.9,62.3,57.7,62.5z"/>
	<linearGradient id="SVGID_6_" gradientUnits="userSpaceOnUse" x1="54.8053" y1="157.6039" x2="85.8871" y2="172.7635">
		<stop  offset="0" style="stop-color:#EC1C29"/>
		<stop  offset="0.34" style="stop-color:#EC1C29"/>
		<stop  offset="0.45" style="stop-color:#CD2729"/>
		<stop  offset="0.55" style="stop-color:#C22A29"/>
		<stop  offset="0.67" style="stop-color:#872C27"/>
		<stop  offset="1" style="stop-color:#000103"/>
	</linearGradient>
	<path class="st14" d="M61.9,154.2c3.2,3.1,6.4,5.1,11.2,7.1c-0.1,0.6-0.2,1.2-0.4,1.8c-0.4,1.5-1.4,3.6-1.4,5.3
		c0.2-2,1.7-1.9,2.7-1.6c2.1,0.7,4.6,1.7,7.6,2.5l0,0l0,1.9c0,1.4-0.4,2.6-2.2,2.8c-2.3,0.2-6.6-1.1-8.7-1.9
		c-7.1-2.8-13-7.9-15.3-9.9c3.6,0.1,6.4,0.2,10.1,0.3C64,159.9,62.8,157.2,61.9,154.2z"/>
	<linearGradient id="SVGID_7_" gradientUnits="userSpaceOnUse" x1="146.5356" y1="157.1052" x2="116.6664" y2="171.6734">
		<stop  offset="0" style="stop-color:#EC1C29"/>
		<stop  offset="0.34" style="stop-color:#EC1C29"/>
		<stop  offset="0.45" style="stop-color:#CD2729"/>
		<stop  offset="0.55" style="stop-color:#C22A29"/>
		<stop  offset="0.67" style="stop-color:#872C27"/>
		<stop  offset="1" style="stop-color:#000103"/>
	</linearGradient>
	<path class="st15" d="M138.4,154.2c-3.2,3-6.4,5.1-11.1,7.1c0.1,0.6,0.2,1.3,0.4,1.9c0.4,1.5,1.4,3.6,1.4,5.3
		c-0.2-2-1.7-1.9-2.7-1.6c-2.1,0.7-4.6,1.7-7.6,2.5l-0.2,0l0,1.9c0,1.4,0.4,2.6,2.2,2.8c2.3,0.2,6.6-1.1,8.7-1.9
		c7.1-2.8,13-7.9,15.3-9.9c-3.6,0.1-6.4,0.2-10.1,0.3C136.4,159.9,137.5,157.2,138.4,154.2z"/>
	<linearGradient id="SVGID_8_" gradientUnits="userSpaceOnUse" x1="116.1854" y1="171.3243" x2="129.3626" y2="168.2821">
		<stop  offset="0" style="stop-color:#EC1C29"/>
		<stop  offset="0.11" style="stop-color:#EC1C29"/>
		<stop  offset="0.22" style="stop-color:#CD2729"/>
		<stop  offset="0.29" style="stop-color:#C22A29"/>
		<stop  offset="0.56" style="stop-color:#872C27"/>
		<stop  offset="1" style="stop-color:#000103"/>
	</linearGradient>
	<path class="st16" d="M129.1,168.4c-0.2-1.9-1.7-1.8-2.7-1.5c-2.1,0.7-4.6,1.7-7.6,2.5l-0.2,0l0,1.9c0,0.5,0.1,1.1,0.3,1.5
		c0-0.8,0.5-1.2,1-1.3c1.6-0.3,3.2-0.2,4.9-0.6C127,170.4,129,169.7,129.1,168.4z"/>
	<linearGradient id="SVGID_9_" gradientUnits="userSpaceOnUse" x1="63.3312" y1="163.8379" x2="136.6075" y2="163.8379">
		<stop  offset="0" style="stop-color:#000103"/>
		<stop  offset="2.000000e-02" style="stop-color:#000103"/>
		<stop  offset="0.12" style="stop-color:#8B2D28"/>
		<stop  offset="0.15" style="stop-color:#BE292A"/>
		<stop  offset="0.2" style="stop-color:#EC1C29"/>
		<stop  offset="0.79" style="stop-color:#EC1C29"/>
		<stop  offset="0.84" style="stop-color:#D0242A"/>
		<stop  offset="0.88" style="stop-color:#902C29"/>
		<stop  offset="0.95" style="stop-color:#130E0E"/>
		<stop  offset="1" style="stop-color:#000103"/>
	</linearGradient>
	<path class="st17" d="M73.4,157.6c0,1.6-0.1,3.7-0.6,5.5c-0.4,1.5-1.4,3.6-1.4,5.3c0.2-2,1.7-1.9,2.7-1.6c2.1,0.7,4.6,1.7,7.6,2.5
		c5.6,1.4,12.7,2.6,18.6,2.6c6,0,13-1.2,18.6-2.6c3-0.8,5.5-1.7,7.6-2.5c0.9-0.3,2.5-0.4,2.7,1.6c0.1-1.8-1-3.8-1.4-5.3
		c-0.5-1.8-0.7-4-0.6-5.5c0.1-1.7-1.3-2.2-2.7-1.7c-4.3,1.6-14.3,5.3-23.5,5.6c-0.1,0-0.2,0-0.2,0l-0.1,0c-0.3,0-0.7,0-1,0
		c-8.8-0.1-18.4-3.2-23.8-5.4C74.4,155.6,73.3,155.9,73.4,157.6z"/>
	<linearGradient id="SVGID_10_" gradientUnits="userSpaceOnUse" x1="81.833" y1="171.3082" x2="68.34" y2="166.6622">
		<stop  offset="0" style="stop-color:#EC1C29"/>
		<stop  offset="0.11" style="stop-color:#EC1C29"/>
		<stop  offset="0.22" style="stop-color:#CD2729"/>
		<stop  offset="0.29" style="stop-color:#C22A29"/>
		<stop  offset="0.56" style="stop-color:#872C27"/>
		<stop  offset="1" style="stop-color:#000103"/>
	</linearGradient>
	<path class="st18" d="M71.4,168c-0.3,1.6,1.7,2.3,4,2.8c1.7,0.4,3.3,0.3,4.9,0.6c0.5,0.1,1.1,0.5,1,1.3c0.2-0.4,0.2-1,0.3-1.5
		l0-1.9l0,0c-3-0.8-5.5-1.7-7.6-2.5c-0.9-0.3-2.5-0.4-2.7,1.6C71.4,168.3,71.4,168.2,71.4,168z"/>
	<path class="st19" d="M21.6,44.5c2.9,2.3,4.5,6,3.8,10.3c0-0.1,0.1-0.1,0.1-0.2c0.7-1.1,1.8-2,2.5-3.2c0.2-0.3,0.4-0.6,0.6-1
		c-4.3-3.8-4.1-9.7-0.4-14.3c2.7,2.5,3.8,6.3,2.7,10.6c1.2-1.7,2.8-3.3,4.8-4c1.5-0.5,3.7-0.6,5.3-0.5c1.7,0.2,4.1,0.5,5.7-0.1
		c0.6-0.2,1.2-0.6,1.8-0.9c0.4-0.2,0.8-0.7,1.1-1c0.8-0.7,1.7-1.4,2.5-2.1c2.9-2.3,6-4.3,9.2-6.1C72,26.2,84,23,96.2,22.1
		c0.5,0,1-0.1,1.6-0.1c0,0-0.1,0-0.1-0.1c-1.2-0.7-1.9-1.7-2.5-2.9L95,18.6l0.8-0.4l0.2,0.4c0.5,1,1.1,2,2.1,2.5
		c0.5,0.3,1.2,0.5,1.9,0.6c0.7-0.1,1.4-0.3,1.9-0.6c1-0.6,1.6-1.5,2.1-2.5l0.2-0.4l0.8,0.4L105,19c-0.6,1.2-1.3,2.3-2.5,2.9
		c0,0-0.1,0-0.1,0.1c0.6,0,1.1,0.1,1.6,0.1c12.2,0.9,24.2,4.1,34.9,10.1c3.2,1.8,6.3,3.8,9.2,6.1c0.9,0.7,1.7,1.4,2.5,2.1
		c0.3,0.3,0.8,0.7,1.1,1c0.6,0.4,1.1,0.7,1.8,0.9c1.7,0.6,4,0.3,5.7,0.1c1.6-0.2,3.8-0.1,5.3,0.5c2,0.7,3.6,2.3,4.8,4
		c-1.1-4.3,0-8.1,2.7-10.6c3.7,4.6,3.9,10.5-0.4,14.3c0.2,0.3,0.4,0.6,0.6,1c0.7,1.1,1.8,2,2.5,3.2c0,0.1,0.1,0.1,0.1,0.2
		c-0.7-4.3,0.9-8.1,3.8-10.3c3.4,4.9,2.8,11.2-2,14.4c0.1,0.2,0.2,0.4,0.3,0.6c0.6,1.1,1.5,2.1,2.2,3.2c0.1-3.9,2.1-7.3,5.1-9.1
		c2.7,5.2,1.4,11.1-3.6,13.7c0.1,0.2,0.1,0.5,0.2,0.7c0.5,1.3,1.3,2.5,1.9,3.7c0.5-4,2.9-7.4,6.1-8.9c2.1,5.4,0.2,11.4-5,13.5
		c0.4,1.7,1,3.4,1.4,5.1c0,0.1,0,0.2,0.1,0.2c0.7-4.2,3.4-7.4,7.1-8.5c1.5,5.7-1.5,11.3-6.6,12.7c0,0.1,0,0.2,0.1,0.3
		c0.2,1.2,0.6,2.4,0.8,3.7c0,0.3,0.1,0.5,0.1,0.8l0,0.1c1.4-3.9,4.5-6.7,8-7.4c0.8,5.8-2.4,11-7.8,11.9c0.1,1.7,0.4,3.3,0.4,5
		c0,0.1,0,0.2,0,0.2c1.7-3.8,5-6.4,8.9-6.7c-0.2,5.9-3.3,10.5-9.3,11c0,0.2,0,0.4-0.1,0.6c-0.1,1.4,0,2.8-0.2,4.2l-0.1,0.6l0,0.1
		c2-3.7,5.6-5.9,9.6-5.8c-0.7,5.9-4.4,10-10.4,10c-0.3,1.7-0.4,3.4-0.9,5.1c0,0.2-0.1,0.3-0.1,0.5c2.6-3.7,6.5-5.8,10.5-5
		c-1.3,4.9-5.2,9.4-11.6,8.6c-0.5,1.7-0.7,3.5-1.4,5.2l0,0.1c2.8-3.2,6.8-4.6,10.6-3.6c-1.8,5.2-6.5,8.9-12.3,7.5l-0.1,0.2
		c-0.6,1.4-1,2.9-1.7,4.3c-0.1,0.3-0.3,0.5-0.4,0.8l0,0.1l0,0l-0.1,0.1c2.9-3.1,6.7-4.3,11.4-3.2c-2.3,5.2-7.4,8.6-13.2,6.4
		c-0.6,1.2-1.1,2.5-1.8,3.7c-0.2,0.3-0.3,0.6-0.5,0.9c3.5-2.4,7.5-3,10.9-1.1c-3,4.6-8.3,7.2-13.7,4.7c-0.9,1.4-1.8,2.8-2.7,4.1
		c3.7-1.8,7.6-1.8,10.8,0.3c-3.3,4.1-8.5,6-14.2,3c-0.6,0.5-1.4,1.1-1.6,1.6c-0.1,0.2-0.1,0.4-0.1,0.5c0,0.1,0,0.2,0.1,0.3
		c0.5,1.1,3.5,1.6,4.5,3.2c1.3,2.1-0.1,4.4-1.6,5.9c-6.9,6.8-15.2,12.5-23.9,16.8c-8.7,4.3-17.8,7.2-27.4,8.8
		c-1.5,0.3-2.9,0.1-4.4-0.4c-2.3-0.7-3.8-1.7-6.3-1.5c-1.3,0.1-2.6,0.6-3.8,1.2c1.2,0.9,2.3,1.9,3.3,2.9l-1.2,0.1
		c-0.9-0.9-1.9-1.8-2.9-2.5c-1.1,0.7-2.1,1.6-3,2.5l-1.1-0.1c1-1.1,2.1-2.1,3.3-2.9c-1.2-0.7-2.5-1.1-3.8-1.2
		c-2.5-0.2-4.1,0.7-6.3,1.5c-1.4,0.5-2.9,0.6-4.4,0.4c-9.6-1.6-18.7-4.5-27.4-8.8c-8.7-4.3-17-10-23.9-16.8
		c-1.5-1.5-2.9-3.8-1.6-5.9c0.5-0.8,1.4-1.3,2.2-1.7c0.7-0.3,2.3-0.9,2.4-1.8c0-0.2,0-0.4-0.1-0.5c-0.2-0.6-0.9-1.1-1.6-1.6
		c-5.6,3.1-10.9,1.2-14.2-3c3.2-2.1,7.2-2.1,10.8-0.3c-0.9-1.4-1.8-2.8-2.7-4.1c-5.4,2.6-10.7,0-13.7-4.7c3.4-1.9,7.5-1.3,10.9,1.1
		c-0.2-0.3-0.4-0.6-0.5-0.9c-0.7-1.2-1.1-2.5-1.8-3.7c-5.8,2.2-11-1.2-13.2-6.4c4.7-1,8.5,0.1,11.4,3.2l-0.1-0.1l0,0l0-0.1
		c-0.1-0.3-0.3-0.5-0.4-0.8c-0.7-1.4-1.1-2.9-1.7-4.3l-0.1-0.2c-5.8,1.5-10.5-2.3-12.3-7.5c3.8-1,7.8,0.4,10.6,3.6l0-0.1
		c-0.7-1.7-0.9-3.4-1.4-5.2c-6.5,0.8-10.4-3.7-11.6-8.6c4-0.8,7.9,1.3,10.5,5c0-0.2-0.1-0.3-0.1-0.5c-0.5-1.7-0.5-3.4-0.9-5.1
		c-6,0.1-9.6-4.1-10.4-10c4-0.1,7.6,2.1,9.6,5.8l0-0.1l-0.1-0.6c-0.2-1.4-0.1-2.8-0.2-4.2c0-0.2,0-0.4-0.1-0.6
		c-6-0.5-9.1-5.1-9.3-11c3.9,0.3,7.2,2.8,8.9,6.7c0-0.1,0-0.2,0-0.2c0-1.7,0.2-3.4,0.4-5c-5.5-0.9-8.6-6.2-7.8-11.9
		c3.5,0.7,6.6,3.5,8,7.4l0-0.1c0-0.3,0-0.5,0.1-0.8c0.2-1.2,0.6-2.4,0.8-3.7c0-0.1,0-0.2,0.1-0.3c-5-1.5-8.1-7-6.6-12.7
		c3.7,1.1,6.4,4.4,7.1,8.5c0-0.1,0-0.2,0.1-0.2c0.4-1.7,1-3.4,1.4-5.1c-5.1-2.1-7.1-8.1-5-13.5c3.2,1.5,5.6,4.9,6.1,8.9
		c0.6-1.3,1.3-2.4,1.9-3.7c0.1-0.2,0.2-0.5,0.2-0.7c-4.9-2.6-6.2-8.5-3.6-13.7c3,1.8,5,5.2,5.1,9.1c0.7-1.1,1.6-2.1,2.2-3.2
		c0.1-0.2,0.2-0.4,0.3-0.6C18.8,55.7,18.2,49.4,21.6,44.5L21.6,44.5z M165.8,155.6c0.2-0.2,0.5-0.4,0.7-0.5c0.3-0.3,0.6-0.6,0.8-0.9
		l0.1-0.2c-2.9-3-5-7.5-2.2-11.4c2.5,2.4,4.1,5.8,3.7,9c0.6-0.9,1.1-1.8,1.7-2.7c0.4-0.6,0.9-1.2,1.4-1.8c0.2-0.3,0.5-0.6,0.7-0.9
		c-3.3-2.6-5.7-7-3.3-11.3c2.9,2.2,4.9,5.9,4.5,9.4c0.6-1.2,1.1-2.5,1.7-3.7c0.5-0.9,1.1-1.8,1.7-2.8c-3.4-2.1-6.3-6.1-4.4-10.4
		c3.6,2.3,5.4,4.7,5.4,8.1c0.3-0.9,0.6-1.9,1.1-2.8c0.6-1.2,1.1-2.4,1.6-3.7c-4.1-1.7-6.9-5.4-5.4-10c3.2,1.6,5.7,4.2,6.2,7.6
		c0.3-1.3,0.6-2.7,1-4c0.3-0.9,0.6-1.8,0.9-2.7c-4.7-1.4-7.6-5.4-6.5-9.2c3.9,1.3,6.2,3.5,7,7.1c0.2-1.3,0.3-2.6,0.6-3.8
		c0.2-1.1,0.4-2.2,0.6-3.3c-4.7-0.9-7.9-4.5-7.3-8.4c3.8,0.8,6.3,2.6,7.6,5.8c0-0.8,0-1.6,0.1-2.4c0.1-1.5,0.3-2.9,0.4-4.3
		c-4.8-0.5-8.6-3.7-8.3-7.7c3.9,0.5,6.7,2,8.3,5.1c-0.1-1.3-0.3-2.5-0.4-3.8c-0.1-1.1,0-2.1-0.1-3.2c-4.7,0-8.4-2.2-9.2-6.5
		c3.8,0.1,6.8,1.1,8.8,3.6c-0.2-0.7-0.4-1.4-0.5-2.2c-0.2-1.4-0.3-2.8-0.5-4.2c-4.8,0.5-8.9-1.5-9.9-5.6c4.3-0.2,7.1,0.5,9.2,2.9
		c-0.3-1-0.6-2.1-0.8-3.1c0-0.1,0-0.2,0-0.3c-0.1-0.4-0.1-0.7-0.2-1.1c-0.1-0.7-0.2-1.4-0.4-2l0,0c-4.9,1.1-9.6-0.8-10.8-4.5
		c4.5-0.6,7.5-0.2,9.9,2.5c-0.5-0.9-0.9-1.7-1.3-2.6c-0.2-0.5-0.3-1.1-0.4-1.7c-0.2-0.6-0.3-1.2-0.4-1.7c-0.1-0.2-0.1-0.4-0.2-0.6
		c0-0.1-0.1-0.2-0.1-0.2c-4.9,1.6-9.3,0.7-11.4-3.2c3.4-1.3,7.4-1.1,10.1,1.2c-0.5-0.7-1-1.4-1.4-2.2c-0.7-1.3-1.2-2.8-1.9-4.2
		c-4.3,2-9,1.7-11.4-2c2.8-1.5,7.1-1.8,10.3,0.3c-0.6-0.7-1.3-1.4-1.7-2.1c-0.8-1.2-1.4-2.5-2.2-3.7c-0.1-0.2-0.2-0.3-0.3-0.5
		c-4.3,2.6-9.4,2.2-11.7-0.8c3.9-2.1,7.5-2.7,10.4-0.8c-1-1.1-2.1-2-3.4-2.5c-1.4-0.5-3.4-0.6-4.9-0.4c-1.9,0.2-4.3,0.5-6.1-0.1
		c-0.7-0.2-1.4-0.6-2-1c-0.4-0.3-0.9-0.7-1.2-1c-0.8-0.7-1.7-1.4-2.5-2.1c-2.9-2.2-5.9-4.2-9.1-6c-10.6-5.9-22.5-9.1-34.6-10
		c-1.1-0.1-2.5-0.1-3.8-0.3c-1.3,0.2-2.7,0.2-3.8,0.3c-12.1,0.9-23.9,4.1-34.6,10c-3.2,1.8-6.2,3.8-9.1,6c-0.9,0.7-1.7,1.4-2.5,2.1
		c-0.4,0.3-0.8,0.8-1.2,1c-0.6,0.4-1.3,0.8-2,1c-1.8,0.6-4.2,0.3-6.1,0.1c-1.5-0.2-3.5-0.1-4.9,0.4c-1.3,0.5-2.5,1.4-3.4,2.5
		c3-1.8,6.5-1.3,10.5,0.8c-2.3,3-7.4,3.5-11.7,0.8c-0.1,0.2-0.2,0.3-0.3,0.5c-0.8,1.2-1.4,2.5-2.2,3.7c-0.5,0.8-1.2,1.4-1.7,2.1
		c3.1-2.1,7.4-1.8,10.3-0.3c-2.4,3.6-7.1,4-11.4,2c-0.7,1.4-1.1,2.9-1.9,4.2c-0.4,0.8-0.9,1.5-1.4,2.2c2.7-2.3,6.7-2.5,10.1-1.2
		c-2.1,4-6.5,4.8-11.4,3.2c0,0.1-0.1,0.2-0.1,0.2c-0.1,0.2-0.2,0.4-0.2,0.6c-0.1,0.6-0.2,1.1-0.4,1.7c-0.1,0.6-0.2,1.2-0.4,1.7
		c-0.4,0.9-0.8,1.7-1.3,2.6c2.4-2.7,5.4-3.1,9.9-2.5c-1.2,3.7-5.9,5.6-10.8,4.5l0,0c-0.2,0.6-0.3,1.3-0.4,2c0,0.4-0.1,0.7-0.2,1.1
		c0,0.1,0,0.2,0,0.3c-0.2,1.1-0.5,2.1-0.8,3.1c2-2.5,4.9-3.1,9.2-2.9c-1,4.1-5.1,6.1-9.9,5.6c-0.3,1.4-0.3,2.8-0.5,4.2
		c-0.1,0.7-0.3,1.5-0.5,2.2c2-2.6,5-3.5,8.8-3.6c-0.9,4.3-4.5,6.5-9.2,6.5c0,1.1,0,2.2-0.1,3.2c-0.1,1.3-0.3,2.5-0.4,3.8
		c1.6-3.1,4.4-4.6,8.3-5.1c0.3,3.9-3.5,7.2-8.3,7.7c0.1,1.5,0.3,2.9,0.4,4.3c0.1,0.8,0.1,1.6,0.1,2.4c1.3-3.2,3.7-4.9,7.6-5.8
		c0.6,3.9-2.6,7.5-7.3,8.4c0.2,1.1,0.4,2.2,0.6,3.3c0.3,1.3,0.4,2.6,0.6,3.8c0.8-3.6,3.1-5.7,7-7.1c1.1,3.8-1.9,7.8-6.5,9.2
		c0.3,0.9,0.6,1.8,0.9,2.7c0.4,1.3,0.7,2.7,1,4c0.5-3.4,2.9-6,6.2-7.6c1.5,4.6-1.3,8.3-5.4,10c0.5,1.2,1,2.5,1.6,3.7
		c0.4,0.9,0.7,1.9,1.1,2.8c0.1-3.4,1.8-5.9,5.4-8.1c1.9,4.4-1,8.3-4.4,10.4c0.5,0.9,1.1,1.8,1.7,2.8c0.7,1.2,1.1,2.5,1.7,3.7
		c-0.4-3.5,1.6-7.2,4.5-9.4c2.3,4.3,0,8.7-3.3,11.3c0.2,0.3,0.5,0.6,0.7,0.9c0.5,0.6,1,1.1,1.4,1.8c0.6,0.9,1.2,1.8,1.7,2.7
		c-0.4-3.2,1.2-6.6,3.7-9c2.8,4,0.8,8.4-2.2,11.4l0.1,0.2c0.2,0.3,0.5,0.6,0.8,0.9c0.2,0.2,0.5,0.4,0.7,0.5l0,0l0.4,0.3
		c1.1,0.9,2.8,1.8,2.7,3.5c-0.2,2.1-3.7,2.3-4.7,3.9c-1,1.7,0.3,3.6,1.5,4.7c6.9,6.7,15.1,12.4,23.6,16.6c8.6,4.2,17.7,7.1,27.1,8.7
		c1.4,0.2,2.6,0.1,3.9-0.3c1-0.3,2-0.8,3-1.1c1.2-0.4,2.4-0.5,3.7-0.5c1.6,0.1,3.2,0.7,4.6,1.6c1.4-0.9,2.9-1.5,4.6-1.6
		c1.3-0.1,2.5,0.1,3.7,0.5c1,0.3,2,0.7,3,1.1c1.3,0.4,2.6,0.6,3.9,0.3c9.5-1.6,18.5-4.5,27.1-8.7c8.6-4.2,16.8-9.9,23.6-16.6
		c1.2-1.2,2.5-3.1,1.5-4.7c-1-1.6-4.5-1.8-4.7-3.9c-0.2-1.7,1.6-2.6,2.7-3.5L165.8,155.6L165.8,155.6z"/>
	<path class="st0" d="M157.6,33.8c0.1,0.3,0.2,0.6,0.2,1c0.1,0.7,0.1,1.5,0,2.2c-0.1,0.8-0.1,1.6-0.2,2.4l0,0.4l-0.3-0.3
		c-0.4-0.3-0.7-0.6-1.1-0.9c-0.4-0.3-0.7-0.6-1.1-0.9l-0.1-0.1l0-0.1c0-0.9,0-1.9,0-2.8c0-0.6,0-1.4-0.1-2c0-0.3-0.1-0.5-0.3-0.7
		c-0.2-0.3-0.6-0.6-0.9-0.8c-0.1-0.1-0.2-0.1-0.2-0.2c-0.4,0.5-0.8,1-1.1,1.5c-0.4,0.6-0.9,1.1-1.3,1.7l-0.1,0.2l-0.2-0.1
		c-0.6-0.5-1.3-1-2-1.4l-0.2-0.1l0.1-0.2c1-1.4,2-2.8,3-4.2c1-1.4,2-2.8,3-4.2l0.1-0.2l0.2,0.1c0.8,0.6,1.5,1.1,2.3,1.7
		c0.8,0.6,1.5,1.2,2.3,1.8c0.5,0.4,1,0.8,1.4,1.3c0.3,0.3,0.6,0.7,0.9,1c0.4,0.6,0.6,1.2,0.6,1.9c0,0.7-0.3,1.2-0.7,1.7
		c-0.5,0.6-1.2,0.9-2,0.9C159,34.4,158.3,34.1,157.6,33.8L157.6,33.8z M154.8,29.3c0.5,0.3,0.9,0.7,1.3,1.1c0.4,0.4,1.3,1.1,1.9,1.4
		c0.2,0.1,0.5,0.2,0.7,0.1c0.2,0,0.4-0.2,0.6-0.3c0.2-0.2,0.2-0.4,0.2-0.7c0-0.3-0.2-0.6-0.5-0.8c-0.4-0.4-1-0.9-1.5-1.2
		c-0.5-0.4-1-0.8-1.5-1.1c-0.2,0.3-0.4,0.6-0.6,0.9C155.2,28.7,155,29,154.8,29.3z"/>
	<path class="st0" d="M143.3,26.5c-0.7-0.4-1.4-0.7-2.1-1.1c-0.7-0.4-1.4-0.7-2.1-1.1c-0.6,0.5-1.2,1.1-1.9,1.6l-0.1,0.1L137,26
		c-0.8-0.4-1.6-0.7-2.3-1.1l-0.3-0.1l0.3-0.2c1.5-1.3,2.9-2.5,4.5-3.7c1.5-1.2,3.1-2.4,4.7-3.5l0.1-0.1l0.1,0.1
		c0.9,0.5,1.7,0.9,2.6,1.4l0.1,0.1l0,0.1c-0.1,1.9-0.2,3.9-0.3,5.8c-0.2,1.9-0.4,3.8-0.7,5.7l0,0.3l-0.3-0.2
		c-0.8-0.5-1.5-0.9-2.3-1.3l-0.1-0.1l0-0.1C143.1,28.1,143.2,27.3,143.3,26.5L143.3,26.5z M143.5,24.1c0.1-0.6,0.1-1.2,0.1-1.8
		c0-0.5,0.1-1.1,0.1-1.6c-0.4,0.3-0.9,0.7-1.3,1c-0.5,0.4-0.9,0.7-1.4,1.1c0.4,0.2,0.8,0.4,1.2,0.6
		C142.7,23.7,143.1,23.9,143.5,24.1z"/>
	<path class="st0" d="M115.9,16.6c-0.7-0.1-1.5-0.2-2.2-0.4c-0.7-0.1-1.5-0.2-2.2-0.3c-0.4,0.7-0.8,1.4-1.2,2.2l-0.1,0.1l-0.2,0
		c-0.8-0.1-1.7-0.2-2.5-0.3l-0.3,0l0.2-0.3c0.9-1.7,1.9-3.4,2.9-5.1c1-1.7,2.1-3.3,3.2-5l0.1-0.1l0.1,0c0.9,0.2,1.9,0.3,2.8,0.5
		l0.1,0l0,0.1c0.5,1.9,1.1,3.8,1.5,5.7c0.5,1.9,0.8,3.7,1.2,5.6l0.1,0.3l-0.3-0.1c-0.8-0.2-1.7-0.3-2.5-0.5l-0.1,0l0-0.1
		C116.3,18.2,116.1,17.4,115.9,16.6L115.9,16.6z M115.3,14.2c-0.1-0.6-0.3-1.2-0.4-1.7c-0.1-0.5-0.3-1.1-0.4-1.6
		c-0.3,0.5-0.6,0.9-0.9,1.4c-0.3,0.5-0.6,1-0.9,1.5c0.4,0.1,0.9,0.1,1.3,0.2C114.5,14.1,114.9,14.1,115.3,14.2z"/>
	<path class="st0" d="M59.5,25.5c-0.7,0.4-1.3,0.7-2,1.1c-0.7,0.4-1.3,0.8-2,1.2c0.1,0.8,0.3,1.6,0.4,2.4l0,0.1l-0.1,0.1
		c-0.7,0.4-1.4,0.9-2.1,1.3l-0.3,0.2l-0.1-0.3c-0.3-1.9-0.6-3.8-0.9-5.7c-0.2-1.9-0.4-3.9-0.5-5.8l0-0.1l0.1-0.1
		c0.8-0.5,1.7-1,2.5-1.4l0.1-0.1l0.1,0.1c1.6,1.1,3.2,2.2,4.7,3.4c1.5,1.2,3,2.4,4.4,3.6l0.3,0.2L64,25.9c-0.8,0.4-1.5,0.8-2.3,1.2
		l-0.1,0.1L61.4,27C60.8,26.5,60.2,26,59.5,25.5L59.5,25.5z M57.6,24c-0.5-0.4-0.9-0.7-1.4-1.1c-0.4-0.3-0.9-0.6-1.3-1
		c0,0.5,0.1,1.1,0.2,1.6c0.1,0.6,0.1,1.2,0.2,1.8c0.4-0.2,0.8-0.5,1.2-0.7C56.9,24.5,57.2,24.3,57.6,24z"/>
	<path class="st0" d="M133.7,16.6c-0.8-0.3-1.6-0.6-2.4-0.8l-0.2-0.1l0-0.2c0.1-0.4,0-0.8-0.3-1.1c-0.3-0.4-0.9-0.6-1.3-0.8
		c-0.5-0.2-1.1-0.3-1.7-0.2c-0.2,0-0.4,0.1-0.4,0.3c-0.1,0.2,0,0.3,0.2,0.5c0.3,0.4,1.5,1,2,1.3c0.5,0.3,1,0.6,1.4,0.9
		c0.3,0.2,0.7,0.5,1,0.8c0.5,0.4,0.8,0.9,1,1.5c0.2,0.6,0.1,1.2-0.1,1.8c-0.2,0.6-0.7,1.1-1.2,1.4c-0.6,0.4-1.3,0.5-2,0.5
		c-0.4,0-0.8,0-1.2-0.1c-0.5-0.1-0.9-0.2-1.4-0.3c-0.6-0.2-1.3-0.4-1.9-0.8c-0.5-0.3-0.9-0.6-1.3-1.1c-0.7-0.9-0.9-1.9-0.8-3l0-0.2
		l0.2,0c0.8,0.1,1.6,0.3,2.4,0.4l0.2,0l0,0.2c0,0.5,0,1.1,0.4,1.5c0.3,0.4,0.9,0.7,1.4,0.9c0.5,0.2,1.1,0.3,1.7,0.1
		c0.3-0.1,0.6-0.3,0.7-0.6c0.1-0.2,0.1-0.3,0-0.5c-0.1-0.2-0.4-0.5-0.6-0.6c-0.5-0.4-1.2-0.7-1.7-1c-0.5-0.3-1-0.6-1.5-0.9
		c-0.3-0.2-0.7-0.5-1-0.9c-0.6-0.7-0.9-1.5-0.6-2.5c0.2-0.6,0.5-1,1-1.4c0.6-0.4,1.3-0.6,2-0.6c0.9,0,1.8,0.2,2.7,0.4
		c0.7,0.2,1.4,0.5,2,0.9c0.5,0.3,1,0.7,1.3,1.2c0.6,0.8,0.8,1.8,0.4,2.7l-0.1,0.2L133.7,16.6z"/>
	<path class="st0" d="M98.4,15.4c1,0,1.9,0,2.9,0c1.1,0,2.3,0,3.4,0l0.2,0l0,0.2c0,0.6,0,1.2-0.1,1.7l0,0.2l-0.2,0
		c-1.6,0-3.2,0-4.7,0c-1.6,0-3.2,0.1-4.7,0.1l-0.2,0l0-0.2c0-0.6-0.1-1.2-0.1-1.9l0-0.1l0.1-0.1c1-1.1,2-2.3,3-3.4
		c0.9-1,1.9-2,2.9-3c-0.8,0-1.6,0-2.4,0c-1,0-2,0.1-2.9,0.1l-0.2,0l0-0.2c0-0.6-0.1-1.2-0.1-1.7L95,7l0.2,0c1.6-0.1,3.1-0.1,4.7-0.2
		c1.6,0,3.1,0,4.7,0l0.2,0l0,0.2c0,0.5,0,1.1-0.1,1.6l0,0.1l-0.1,0.1c-1.2,1.1-2.3,2.3-3.5,3.4C100.3,13.3,99.4,14.3,98.4,15.4z"/>
	<path class="st0" d="M79.3,9.3c0.8-0.2,1.5-0.4,2.3-0.5c0.8-0.2,1.6-0.3,2.4-0.4c0.8-0.1,1.7-0.2,2.5-0.1C87.3,8.3,88,8.6,88.7,9
		c0.6,0.4,1.1,0.9,1.5,1.6c0.4,0.7,0.6,1.6,0.7,2.4c0.1,0.7,0.1,1.5-0.1,2.2c-0.2,0.7-0.6,1.4-1.1,2c-0.4,0.5-1,0.8-1.6,1.1
		c-0.6,0.3-1.4,0.4-2.1,0.5c-0.7,0.1-1.4,0.2-2.2,0.3c-0.7,0.1-1.4,0.2-2.2,0.3l-0.2,0l0-0.2c-0.4-1.6-0.7-3.2-1.1-4.9
		c-0.4-1.6-0.7-3.2-1.1-4.9l0-0.2L79.3,9.3L79.3,9.3z M82.5,10.9c0.2,1,0.4,2,0.6,3.1c0.2,1,0.4,2,0.6,3.1c0.5-0.1,1-0.2,1.5-0.2
		c0.4-0.1,1-0.2,1.4-0.3c0.3-0.1,0.6-0.3,0.8-0.5c0.2-0.2,0.4-0.6,0.4-0.9c0.1-0.6,0.1-1.2,0-1.8c-0.1-0.5-0.2-1.2-0.5-1.7
		c-0.2-0.3-0.4-0.6-0.8-0.8c-0.3-0.2-0.8-0.3-1.1-0.3c-0.6,0-1.4,0.1-2,0.2C83.1,10.7,82.8,10.8,82.5,10.9z"/>
	<path class="st0" d="M72.7,17.6c-0.3-0.9-0.6-1.7-0.8-2.6c-0.3-1.1-0.7-2.2-1-3.2l-0.1-0.2l0.2-0.1c0.8-0.2,1.5-0.5,2.3-0.7
		l0.2-0.1l0.1,0.2c0.5,1.6,0.9,3.3,1.4,4.9c0.5,1.6,0.9,3.3,1.4,4.9l0.1,0.2L76.3,21c-0.4,0.1-0.7,0.2-1.1,0.3
		c-0.4,0.1-0.7,0.2-1.1,0.3l-0.1,0l-0.1-0.1c-1.1-0.8-2.1-1.6-3.2-2.4c-0.9-0.6-1.9-1.3-2.8-1.9c0.3,0.8,0.7,1.7,1,2.5
		c0.4,1,0.8,2.1,1.2,3.1l0.1,0.2L70,23.3c-0.6,0.3-1.3,0.6-1.9,0.8l-0.2,0.1L67.8,24c-0.7-1.6-1.4-3.2-2.1-4.8
		c-0.7-1.6-1.4-3.2-2.1-4.8l-0.1-0.2l0.2-0.1c0.8-0.3,1.5-0.6,2.3-1l0.1,0l0.1,0.1c1.2,0.8,2.4,1.5,3.6,2.3
		C70.9,16.2,71.8,16.9,72.7,17.6z"/>
	<path class="st0" d="M46.5,33.5c-0.2-0.2-0.4-0.5-0.6-0.7c-0.7,0.6-1.4,1.2-2.1,1.7l-0.2,0.1l-0.1-0.2c-0.4-0.4-0.7-0.9-1.1-1.3
		L42.3,33l0.2-0.1c0.7-0.6,1.5-1.2,2.2-1.8c0.7-0.6,1.5-1.2,2.3-1.7l0.2-0.1l0.1,0.2c0.4,0.5,0.8,1.1,1.2,1.6
		c0.4,0.5,0.8,1.1,1.2,1.6l0.1,0.1l0,0.1c-0.2,0.8-0.7,1.7-1.2,2.4c-0.3,0.4-0.6,0.9-0.9,1.3c-0.3,0.4-0.7,0.8-1.1,1.1
		c-0.5,0.4-1,0.8-1.5,1.1c-0.5,0.3-1,0.5-1.5,0.7c-1,0.3-2,0.4-3,0.1c-0.5-0.1-0.9-0.3-1.3-0.5c-0.4-0.2-0.8-0.5-1.1-0.9
		c-0.4-0.4-0.7-0.8-0.9-1.3c-0.2-0.5-0.4-1-0.5-1.5c-0.2-1.2,0.1-2.3,0.6-3.3c0.2-0.5,0.5-0.9,0.9-1.3c0.4-0.5,0.8-0.9,1.3-1.3
		c0.6-0.5,1.2-1,1.9-1.3c0.6-0.3,1.2-0.5,1.8-0.6c1.1-0.1,2.1,0.1,2.9,0.7l0.2,0.2L46,28.3c-0.7,0.6-1.3,1.2-1.9,1.9L44,30.3
		l-0.2-0.1c-0.4-0.3-0.9-0.3-1.4-0.2c-0.6,0.1-1.2,0.5-1.7,0.9c-0.7,0.6-1.3,1.4-1.5,2.4c-0.1,0.9,0.3,1.7,0.9,2.4
		c0.3,0.4,0.7,0.7,1.2,0.9c0.4,0.2,0.8,0.3,1.2,0.3c0.9,0,1.7-0.4,2.4-1c0.4-0.3,0.7-0.7,1-1.2C46.1,34.3,46.4,33.9,46.5,33.5z"/>
	<path class="st1" d="M155.5,24.6L155.5,24.6c-1,1.5-2,2.9-3,4.3c-1,1.4-2,2.8-3,4.2l0,0.1l0.1,0c0.7,0.5,1.3,1,2,1.4l0.1,0l0-0.1
		c0.4-0.6,0.9-1.1,1.3-1.7c0.4-0.5,0.8-1,1.1-1.5l0.1-0.1l0.1,0.1c0.1,0.1,0.2,0.1,0.2,0.2c0.3,0.2,0.7,0.5,0.9,0.9
		c0.2,0.2,0.3,0.5,0.3,0.8c0.1,0.6,0.1,1.4,0.1,2c0,0.9,0,1.9,0,2.8l0,0l0,0c0.4,0.3,0.7,0.6,1.1,0.9c0.4,0.3,0.7,0.6,1.1,0.9
		l0.1,0.1l0-0.1c0.1-0.8,0.1-1.6,0.2-2.4c0-0.7,0.1-1.5,0-2.2c0-0.3-0.1-0.6-0.2-0.9l-0.1-0.4l0.3,0.2c0.6,0.3,1.3,0.6,2,0.6
		c0.8,0,1.4-0.3,1.9-0.8c0.4-0.5,0.6-1,0.7-1.6c0-0.7-0.2-1.3-0.5-1.8c-0.2-0.4-0.5-0.7-0.8-1c-0.4-0.4-0.9-0.9-1.4-1.3
		c-0.7-0.6-1.5-1.2-2.3-1.8C157.1,25.7,156.3,25.2,155.5,24.6L155.5,24.6L155.5,24.6z M155.3,29.6c0.2-0.3,0.4-0.6,0.6-0.9
		c0.2-0.3,0.4-0.6,0.6-0.9l0.1-0.1l0.1,0.1c0.5,0.4,1,0.8,1.5,1.1c0.5,0.4,1.1,0.8,1.5,1.3c0.2,0.3,0.4,0.6,0.5,0.9
		c0,0.3,0,0.6-0.2,0.8c-0.2,0.2-0.4,0.3-0.6,0.4c-0.3,0-0.5,0-0.8-0.1c-0.6-0.3-1.4-1-1.9-1.4c-0.4-0.4-0.9-0.7-1.3-1l-0.1-0.1
		L155.3,29.6z"/>
	<path class="st1" d="M143.8,29.4L143.8,29.4c0.8,0.5,1.6,0.9,2.3,1.4l0.1,0.1l0-0.1c0.3-1.9,0.5-3.8,0.7-5.7
		c0.2-1.9,0.3-3.9,0.3-5.8l0,0l0,0c-0.9-0.5-1.7-0.9-2.6-1.4l0,0l0,0c-1.6,1.1-3.2,2.3-4.7,3.5c-1.5,1.2-3,2.5-4.5,3.7l-0.1,0.1
		l0.1,0c0.8,0.4,1.6,0.7,2.3,1.1l0,0l0,0c0.6-0.5,1.2-1.1,1.9-1.6l0.1-0.1l0.1,0c0.7,0.4,1.4,0.7,2.1,1.1c0.7,0.4,1.4,0.7,2.1,1.1
		l0.1,0l0,0.1C144,27.8,143.9,28.6,143.8,29.4L143.8,29.4L143.8,29.4z M144.1,24.7c-0.4-0.2-0.8-0.4-1.2-0.7
		c-0.4-0.2-0.8-0.4-1.2-0.6l-0.2-0.1l0.2-0.1c0.5-0.4,0.9-0.7,1.4-1.1c0.4-0.3,0.9-0.7,1.3-1l0.3-0.2l0,0.3c0,0.5-0.1,1.1-0.1,1.6
		c0,0.6-0.1,1.2-0.1,1.8l0,0.2L144.1,24.7z"/>
	<path class="st1" d="M117.2,19.4L117.2,19.4c0.9,0.2,1.7,0.3,2.6,0.5l0.1,0l0-0.1c-0.4-1.9-0.8-3.7-1.2-5.6c-0.5-1.9-1-3.8-1.5-5.7
		l0,0l0,0c-0.9-0.2-1.9-0.3-2.8-0.5l0,0l0,0c-1.1,1.6-2.2,3.3-3.2,5c-1,1.7-1.9,3.4-2.9,5.1l-0.1,0.1l0.1,0c0.8,0.1,1.7,0.2,2.5,0.3
		l0.1,0l0,0c0.4-0.7,0.8-1.4,1.2-2.2l0-0.1l0.1,0c0.7,0.1,1.5,0.2,2.2,0.3c0.7,0.1,1.5,0.2,2.2,0.4l0.1,0l0,0.1
		C116.8,17.8,117,18.6,117.2,19.4L117.2,19.4L117.2,19.4z M115.9,14.8c-0.4-0.1-0.9-0.1-1.3-0.2c-0.4-0.1-0.9-0.1-1.3-0.2l-0.2,0
		l0.1-0.2c0.3-0.5,0.6-1,0.9-1.5c0.3-0.5,0.6-0.9,0.9-1.4l0.2-0.3l0.1,0.3c0.1,0.5,0.3,1.1,0.4,1.6c0.1,0.6,0.3,1.2,0.4,1.7l0.1,0.2
		L115.9,14.8z"/>
	<path class="st1" d="M62.2,27.4L62.2,27.4c0.8-0.4,1.6-0.8,2.3-1.2l0.1-0.1l-0.1-0.1c-1.5-1.2-2.9-2.5-4.4-3.6
		c-1.5-1.2-3.1-2.3-4.7-3.4l0,0l0,0c-0.8,0.5-1.7,0.9-2.5,1.4l0,0l0,0c0.1,1.9,0.3,3.9,0.5,5.8c0.2,1.9,0.5,3.8,0.9,5.7l0,0.1
		l0.1-0.1c0.7-0.4,1.4-0.9,2.1-1.3l0,0l0,0c-0.1-0.8-0.3-1.6-0.4-2.4l0-0.1l0.1-0.1c0.6-0.4,1.3-0.8,2-1.2c0.7-0.4,1.3-0.8,2-1.1
		l0.1,0l0.1,0.1C60.9,26.3,61.5,26.9,62.2,27.4L62.2,27.4L62.2,27.4z M58.3,24.6c-0.4,0.2-0.8,0.4-1.2,0.7c-0.4,0.2-0.8,0.5-1.2,0.7
		l-0.2,0.1l0-0.2c-0.1-0.6-0.1-1.2-0.2-1.8c-0.1-0.5-0.1-1.1-0.2-1.6l0-0.3l0.3,0.2c0.4,0.3,0.9,0.6,1.3,1c0.5,0.4,0.9,0.7,1.4,1.1
		l0.2,0.1L58.3,24.6z"/>
	<path class="st1" d="M134.5,16.9L134.5,16.9c0.3-1,0.2-1.9-0.4-2.7c-0.3-0.5-0.8-0.9-1.3-1.2c-0.6-0.4-1.3-0.7-2-0.9
		c-0.8-0.3-1.7-0.5-2.6-0.4c-0.7,0-1.3,0.2-1.9,0.6c-0.5,0.3-0.8,0.8-0.9,1.3c-0.2,0.9,0.1,1.6,0.6,2.3c0.3,0.3,0.6,0.6,0.9,0.8
		c0.5,0.3,1,0.6,1.5,0.9c0.6,0.3,1.2,0.6,1.7,1c0.2,0.2,0.5,0.4,0.7,0.7c0.1,0.2,0.1,0.4,0,0.6c-0.1,0.4-0.5,0.6-0.8,0.7
		c-0.5,0.2-1.2,0-1.8-0.1c-0.6-0.2-1.1-0.4-1.5-0.9c-0.4-0.5-0.4-1-0.4-1.6l0-0.1l-0.1,0c-0.8-0.1-1.6-0.3-2.4-0.4l-0.1,0l0,0.1
		c-0.1,1.1,0.1,2.1,0.7,2.9c0.3,0.4,0.8,0.8,1.2,1c0.6,0.3,1.2,0.6,1.8,0.8c0.4,0.1,0.9,0.3,1.4,0.3c0.4,0.1,0.8,0.1,1.2,0.1
		c0.7,0,1.3-0.2,1.9-0.5c0.5-0.3,0.9-0.7,1.1-1.3c0.2-0.5,0.3-1.1,0.1-1.7c-0.2-0.6-0.5-1.1-0.9-1.5c-0.3-0.3-0.6-0.5-0.9-0.7
		c-0.5-0.3-0.9-0.6-1.4-0.9c-0.5-0.3-1.6-0.9-2-1.3c-0.1-0.2-0.2-0.4-0.2-0.6c0.1-0.3,0.3-0.4,0.5-0.4c0.6-0.1,1.2,0,1.8,0.2
		c0.5,0.2,1.1,0.4,1.4,0.8c0.3,0.4,0.3,0.8,0.3,1.2l0,0.1l0.1,0C132.8,16.3,133.6,16.6,134.5,16.9L134.5,16.9z"/>
	<path class="st1" d="M105.3,9.1L105.3,9.1c0-0.6,0-1.1,0.1-1.6l0-0.1l-0.1,0c-1.6,0-3.1-0.1-4.7,0c-1.6,0-3.1,0.1-4.7,0.2l-0.1,0
		l0,0.1c0,0.6,0.1,1.2,0.1,1.7l0,0.1l0.1,0c1,0,2-0.1,2.9-0.1c0.8,0,1.6,0,2.4,0l0.4,0l-0.3,0.3c-1,1-1.9,2-2.9,3
		c-1,1.1-2,2.3-3,3.4l0,0l0,0c0,0.6,0.1,1.2,0.1,1.9l0,0.1l0.1,0c1.6,0,3.2-0.1,4.7-0.1c1.6,0,3.2,0,4.7,0l0.1,0l0-0.1
		c0-0.6,0-1.2,0.1-1.7l0-0.1l-0.1,0c-1.1,0-2.3,0-3.4,0c-1,0-1.9,0-2.9,0.1l-0.3,0l0.2-0.3c1-1.1,1.9-2.1,2.9-3.1
		C102.9,11.4,104.1,10.3,105.3,9.1L105.3,9.1z"/>
	<path class="st1" d="M79.9,10L79.9,10c0.4,1.7,0.8,3.3,1.1,4.9c0.4,1.6,0.7,3.2,1.1,4.9l0,0.1l0.1,0c0.7-0.1,1.4-0.2,2.2-0.3
		c0.7-0.1,1.4-0.2,2.2-0.3c0.7-0.1,1.4-0.3,2-0.5c0.6-0.3,1.1-0.6,1.5-1c0.5-0.6,0.9-1.2,1.1-1.9c0.2-0.7,0.2-1.5,0.1-2.2
		c-0.1-0.8-0.3-1.6-0.7-2.3c-0.3-0.6-0.8-1.1-1.4-1.5c-0.6-0.4-1.3-0.6-2.1-0.7c-0.8-0.1-1.7,0-2.5,0.1c-0.8,0.1-1.6,0.3-2.4,0.4
		C81.5,9.6,80.7,9.7,79.9,10L79.9,10L79.9,10z M88.1,11.9c0.3,0.5,0.4,1.2,0.5,1.7c0.1,0.6,0.1,1.3,0,1.8c-0.1,0.4-0.2,0.7-0.5,1
		c-0.2,0.2-0.5,0.4-0.9,0.5c-0.4,0.2-0.9,0.2-1.4,0.3c-0.5,0.1-1,0.2-1.5,0.2l-0.1,0l0-0.1c-0.2-1-0.4-2-0.6-3.1
		c-0.2-1-0.4-2-0.6-3.1l0-0.2l0.2,0c0.3-0.1,0.6-0.1,0.9-0.2c0.7-0.1,1.4-0.2,2.1-0.2c0.4,0,0.8,0.1,1.2,0.3
		C87.6,11.3,87.9,11.6,88.1,11.9z"/>
	<path class="st1" d="M66.8,13.8L66.8,13.8c-0.8,0.3-1.6,0.6-2.4,1l-0.1,0l0,0.1c0.7,1.6,1.4,3.2,2.1,4.8c0.7,1.6,1.4,3.2,2.1,4.8
		l0,0.1l0.1,0c0.6-0.3,1.3-0.6,1.9-0.8l0.1,0l0-0.1c-0.4-1-0.8-2.1-1.2-3.1c-0.3-0.8-0.7-1.7-1-2.5l-0.2-0.4l0.4,0.3
		c1,0.6,1.9,1.2,2.8,1.9c1.1,0.8,2.2,1.6,3.2,2.4l0,0l0,0c0.4-0.1,0.7-0.2,1.1-0.3c0.4-0.1,0.7-0.2,1.1-0.3l0.1,0l0-0.1
		c-0.5-1.6-0.9-3.3-1.4-4.9c-0.5-1.6-0.9-3.3-1.4-4.9l0-0.1l-0.1,0c-0.8,0.2-1.5,0.5-2.3,0.7l-0.1,0l0,0.1c0.3,1.1,0.7,2.2,1,3.2
		c0.3,0.9,0.6,1.7,0.8,2.6l0.1,0.4l-0.4-0.3c-0.9-0.7-1.9-1.4-2.9-2C69.2,15.3,68,14.5,66.8,13.8L66.8,13.8z"/>
	<path class="st1" d="M44.6,30.5L44.6,30.5c0.7-0.7,1.3-1.3,2-1.9l0.1-0.1l-0.1-0.1c-0.8-0.6-1.8-0.8-2.8-0.7
		c-0.6,0.1-1.2,0.3-1.8,0.6c-0.7,0.4-1.3,0.8-1.9,1.3c-0.5,0.4-0.9,0.8-1.3,1.3c-0.3,0.4-0.6,0.8-0.9,1.3c-0.5,1-0.8,2.1-0.6,3.3
		c0.1,0.5,0.2,1,0.5,1.4c0.2,0.4,0.5,0.9,0.9,1.2c0.3,0.3,0.7,0.6,1.1,0.9c0.4,0.2,0.8,0.4,1.3,0.5c1,0.3,2,0.2,2.9-0.1
		c0.5-0.2,1-0.4,1.5-0.7c0.5-0.3,1-0.7,1.5-1.1c0.4-0.3,0.7-0.7,1.1-1.1c0.3-0.4,0.6-0.8,0.9-1.2c0.5-0.7,0.9-1.5,1.1-2.3l0,0l0,0
		c-0.4-0.5-0.8-1.1-1.2-1.6c-0.4-0.5-0.8-1.1-1.2-1.6l0-0.1l-0.1,0c-0.8,0.6-1.5,1.1-2.3,1.7c-0.7,0.6-1.5,1.2-2.2,1.8l-0.1,0l0,0.1
		c0.4,0.4,0.7,0.9,1.1,1.3l0,0.1l0.1,0c0.7-0.6,1.4-1.2,2.1-1.8l0.1-0.1l0.1,0.1c0.2,0.2,0.4,0.5,0.6,0.7l0.1,0.1l0,0.1
		c-0.2,0.4-0.4,0.8-0.6,1.2c-0.3,0.5-0.6,0.9-1,1.2c-0.7,0.6-1.5,1-2.5,1c-0.4,0-0.9-0.1-1.3-0.3c-0.5-0.2-0.9-0.6-1.2-1
		c-0.6-0.7-1.1-1.5-0.9-2.5c0.2-1,0.8-1.8,1.5-2.5c0.5-0.4,1.1-0.8,1.8-0.9C43.5,30.2,44,30.2,44.6,30.5L44.6,30.5z"/>
	<path class="st20" d="M91.8,169l0.2-1.1l-2.1-0.4l0,0l0.6-0.4c0.2-0.2,0.5-0.3,0.7-0.5c0.2-0.2,0.4-0.3,0.6-0.5
		c0.2-0.2,0.3-0.4,0.5-0.6c0.1-0.2,0.2-0.5,0.3-0.7c0-0.3,0.1-0.5,0-0.7c0-0.2-0.1-0.4-0.3-0.6c-0.1-0.2-0.3-0.4-0.5-0.5
		c-0.2-0.1-0.5-0.2-0.8-0.3c-0.2,0-0.5-0.1-0.7-0.1c-0.2,0-0.4,0-0.6,0.1c-0.2,0-0.4,0.1-0.5,0.2l0.2,1c0.1-0.1,0.2-0.1,0.4-0.1
		c0.1,0,0.3-0.1,0.4-0.1c0.1,0,0.3,0,0.5,0c0.2,0,0.4,0.1,0.5,0.2c0.1,0.1,0.2,0.2,0.2,0.4c0,0.1,0,0.3,0,0.5c0,0.2-0.1,0.4-0.2,0.5
		c-0.1,0.2-0.3,0.3-0.5,0.5c-0.2,0.2-0.4,0.4-0.7,0.6c-0.3,0.2-0.6,0.4-0.9,0.6l-0.8,0.6l-0.2,0.8L91.8,169z"/>
	<path class="st20" d="M97.5,163.3c-0.3,0-0.6,0-0.8,0.1c-0.2,0.1-0.5,0.2-0.7,0.4c-0.2,0.2-0.4,0.4-0.5,0.6
		c-0.1,0.2-0.3,0.5-0.4,0.8c-0.1,0.3-0.2,0.6-0.2,1c0,0.3-0.1,0.7,0,1c0,0.3,0.1,0.6,0.1,0.9c0.1,0.3,0.2,0.5,0.3,0.7
		c0.1,0.2,0.3,0.4,0.5,0.5c0.2,0.1,0.5,0.2,0.8,0.3c0.3,0,0.7,0,0.9-0.1c0.3-0.1,0.5-0.3,0.7-0.5c0.2-0.2,0.4-0.6,0.5-0.9
		c0.1-0.4,0.2-0.8,0.3-1.3c0-0.3,0.1-0.6,0-0.9c0-0.3-0.1-0.6-0.1-0.9c-0.1-0.3-0.2-0.5-0.3-0.7c-0.1-0.2-0.3-0.4-0.5-0.5
		C98.1,163.4,97.8,163.3,97.5,163.3L97.5,163.3z M97.3,164.3c0.3,0,0.4,0.2,0.5,0.6c0.1,0.4,0.1,0.9,0,1.5c-0.2,1.4-0.5,2-1,2
		c-0.3,0-0.4-0.2-0.5-0.6c-0.1-0.3-0.1-0.9,0-1.6c0.1-0.7,0.2-1.2,0.4-1.5C96.9,164.4,97.1,164.3,97.3,164.3z"/>
	<path class="st20" d="M103.4,163.3c-0.3,0-0.6,0.1-0.8,0.2c-0.2,0.1-0.4,0.3-0.6,0.5c-0.2,0.2-0.3,0.4-0.4,0.7
		c-0.1,0.3-0.2,0.6-0.2,0.9c0,0.3,0,0.7,0,1c0,0.3,0.1,0.7,0.1,1c0.1,0.3,0.2,0.6,0.3,0.8c0.1,0.3,0.3,0.5,0.4,0.7
		c0.2,0.2,0.4,0.3,0.6,0.4c0.2,0.1,0.5,0.1,0.8,0.1c0.3,0,0.6-0.1,0.9-0.3c0.3-0.2,0.5-0.4,0.6-0.7c0.2-0.3,0.3-0.6,0.4-1
		c0.1-0.4,0.1-0.8,0.1-1.3c0-0.3-0.1-0.6-0.1-0.9c-0.1-0.3-0.2-0.6-0.3-0.8c-0.1-0.3-0.3-0.5-0.4-0.7c-0.2-0.2-0.4-0.3-0.6-0.4
		C104,163.4,103.7,163.3,103.4,163.3L103.4,163.3z M103.4,164.4c0.3,0,0.5,0.2,0.6,0.5c0.1,0.3,0.2,0.8,0.3,1.5
		c0.1,1.4-0.1,2.1-0.6,2.1c-0.3,0-0.5-0.1-0.6-0.5c-0.2-0.3-0.3-0.8-0.3-1.5c0-0.7,0-1.2,0.1-1.6C103,164.6,103.2,164.4,103.4,164.4
		z"/>
	<path class="st20" d="M112.7,168.1l-0.2-1.1l-2.1,0.4l0,0l0.4-0.5c0.2-0.2,0.3-0.5,0.5-0.7c0.1-0.2,0.3-0.5,0.4-0.7
		c0.1-0.2,0.2-0.5,0.2-0.7c0-0.2,0-0.5,0-0.8c0-0.3-0.1-0.5-0.2-0.7c-0.1-0.2-0.3-0.4-0.5-0.5c-0.2-0.1-0.4-0.2-0.7-0.3
		c-0.3,0-0.6,0-0.9,0c-0.2,0-0.5,0.1-0.7,0.2c-0.2,0.1-0.4,0.2-0.6,0.3c-0.2,0.1-0.3,0.2-0.4,0.4l0.5,0.9c0.1-0.1,0.2-0.2,0.3-0.3
		c0.1-0.1,0.2-0.2,0.4-0.2c0.1-0.1,0.3-0.1,0.4-0.1c0.2,0,0.4,0,0.5,0c0.1,0,0.3,0.1,0.4,0.2c0.1,0.1,0.1,0.3,0.2,0.4
		c0,0.2,0,0.4,0,0.6c0,0.2-0.1,0.4-0.2,0.7c-0.1,0.2-0.3,0.5-0.4,0.8c-0.2,0.3-0.4,0.6-0.6,0.9l-0.6,0.8l0.2,0.8L112.7,168.1z"/>
	<path class="st1" d="M92,169.3l0.2-1.1l-2.1-0.4l0,0l0.6-0.4c0.2-0.2,0.5-0.3,0.7-0.5c0.2-0.2,0.4-0.3,0.6-0.5
		c0.2-0.2,0.3-0.4,0.5-0.6c0.1-0.2,0.2-0.5,0.3-0.7c0-0.3,0.1-0.5,0-0.7c0-0.2-0.1-0.4-0.3-0.6c-0.1-0.2-0.3-0.4-0.5-0.5
		c-0.2-0.1-0.5-0.2-0.8-0.3c-0.2,0-0.5-0.1-0.7-0.1c-0.2,0-0.4,0-0.6,0.1c-0.2,0-0.4,0.1-0.5,0.2l0.2,1c0.1-0.1,0.2-0.1,0.4-0.1
		c0.1,0,0.3-0.1,0.4-0.1c0.1,0,0.3,0,0.5,0c0.2,0,0.4,0.1,0.5,0.2c0.1,0.1,0.2,0.2,0.2,0.4c0,0.1,0,0.3,0,0.5c0,0.2-0.1,0.4-0.2,0.5
		c-0.1,0.2-0.3,0.3-0.5,0.5c-0.2,0.2-0.4,0.4-0.7,0.6c-0.3,0.2-0.6,0.4-0.9,0.6l-0.8,0.6l-0.2,0.8L92,169.3z"/>
	<path class="st1" d="M97.6,163.6c-0.3,0-0.6,0-0.8,0.1c-0.2,0.1-0.5,0.2-0.7,0.4c-0.2,0.2-0.4,0.4-0.5,0.6
		c-0.1,0.2-0.3,0.5-0.4,0.8c-0.1,0.3-0.2,0.6-0.2,1c0,0.3-0.1,0.7,0,1c0,0.3,0.1,0.6,0.1,0.9c0.1,0.3,0.2,0.5,0.3,0.7
		c0.1,0.2,0.3,0.4,0.5,0.5c0.2,0.1,0.5,0.2,0.8,0.3c0.3,0,0.7,0,0.9-0.1c0.3-0.1,0.5-0.3,0.7-0.5c0.2-0.2,0.4-0.6,0.5-0.9
		c0.1-0.4,0.2-0.8,0.3-1.3c0-0.3,0.1-0.6,0-0.9c0-0.3,0-0.6-0.1-0.9c-0.1-0.3-0.2-0.5-0.3-0.7c-0.1-0.2-0.3-0.4-0.5-0.5
		C98.2,163.7,97.9,163.6,97.6,163.6L97.6,163.6z M97.5,164.6c0.3,0,0.4,0.2,0.5,0.6c0.1,0.4,0.1,0.9,0,1.5c-0.2,1.4-0.5,2-1,2
		c-0.3,0-0.4-0.2-0.5-0.6c-0.1-0.3-0.1-0.9,0-1.6c0.1-0.7,0.2-1.2,0.4-1.5C97,164.7,97.3,164.6,97.5,164.6z"/>
	<path class="st1" d="M103.5,163.6c-0.3,0-0.6,0.1-0.8,0.2c-0.2,0.1-0.4,0.3-0.6,0.5c-0.2,0.2-0.3,0.4-0.4,0.7
		c-0.1,0.3-0.2,0.6-0.2,0.9c0,0.3,0,0.7,0,1c0,0.3,0.1,0.7,0.1,1c0.1,0.3,0.2,0.6,0.3,0.8c0.1,0.3,0.3,0.5,0.4,0.7
		c0.2,0.2,0.4,0.3,0.6,0.4c0.2,0.1,0.5,0.1,0.8,0.1c0.3,0,0.6-0.1,0.9-0.3c0.3-0.2,0.5-0.4,0.6-0.7c0.2-0.3,0.3-0.6,0.4-1
		c0.1-0.4,0.1-0.8,0.1-1.3c0-0.3-0.1-0.6-0.1-0.9c-0.1-0.3-0.2-0.6-0.3-0.8c-0.1-0.3-0.3-0.5-0.4-0.7c-0.2-0.2-0.4-0.3-0.6-0.4
		C104.1,163.7,103.8,163.6,103.5,163.6L103.5,163.6z M103.6,164.7c0.3,0,0.5,0.2,0.6,0.5c0.1,0.3,0.2,0.8,0.3,1.5
		c0.1,1.4-0.1,2.1-0.6,2.1c-0.3,0-0.5-0.1-0.6-0.5c-0.2-0.3-0.3-0.8-0.3-1.5c0-0.7,0-1.2,0.1-1.6
		C103.1,164.9,103.3,164.7,103.6,164.7z"/>
	<path class="st1" d="M112.9,168.4l-0.2-1.1l-2.1,0.4l0,0l0.4-0.5c0.2-0.2,0.3-0.5,0.5-0.7c0.1-0.2,0.3-0.5,0.4-0.7
		c0.1-0.2,0.2-0.5,0.2-0.7c0-0.2,0-0.5,0-0.8c0-0.3-0.1-0.5-0.2-0.7c-0.1-0.2-0.3-0.4-0.5-0.5c-0.2-0.1-0.4-0.2-0.7-0.3
		c-0.3,0-0.6,0-0.9,0c-0.2,0-0.5,0.1-0.7,0.2c-0.2,0.1-0.4,0.2-0.6,0.3c-0.2,0.1-0.3,0.2-0.4,0.4l0.5,0.9c0.1-0.1,0.2-0.2,0.3-0.3
		c0.1-0.1,0.2-0.2,0.4-0.2c0.1-0.1,0.3-0.1,0.4-0.1c0.2,0,0.4,0,0.5,0c0.1,0,0.3,0.1,0.4,0.2c0.1,0.1,0.1,0.3,0.2,0.4
		c0,0.2,0,0.4,0,0.6c0,0.2-0.1,0.4-0.2,0.7c-0.1,0.2-0.3,0.5-0.4,0.8c-0.2,0.3-0.4,0.6-0.6,0.9l-0.6,0.8l0.2,0.8L112.9,168.4z"/>
	<path class="st0" d="M46.3,164l1.1-1.2l-4.3-3.7l-6.3,7.2l1.9,1.7l2.6-3l2.2,1.9l1-1.2l-2.2-1.9l1.6-1.8L46.3,164L46.3,164z
		 M59.7,181.3c0.5,0.2,1.1,0.4,1.7,0.4c0.5,0,1.1-0.1,1.6-0.3c0.6-0.2,1-0.6,1.4-1.1c0.5-0.6,0.9-1.3,1.2-2c0.2-0.4,0.3-0.8,0.4-1.3
		c0.1-0.4,0.2-0.9,0.1-1.3c0-0.4-0.1-0.9-0.2-1.3c-0.2-0.4-0.4-0.8-0.8-1.1c-0.4-0.4-0.9-0.7-1.4-0.9c-0.5-0.2-1-0.4-1.5-0.4
		c-0.5,0-0.9,0-1.4,0.2c-0.4,0.1-0.8,0.4-1.2,0.6c-0.4,0.3-0.7,0.6-1,1c-0.3,0.4-0.6,0.8-0.8,1.3c-0.2,0.5-0.4,0.9-0.5,1.4
		c-0.1,0.5-0.1,0.9-0.1,1.4c0,0.5,0.1,0.9,0.3,1.3c0.2,0.4,0.4,0.8,0.8,1.1C58.7,180.8,59.2,181.1,59.7,181.3L59.7,181.3z M63,173.9
		c0.2,0.1,0.4,0.3,0.6,0.5c0.1,0.3,0.2,0.5,0.1,0.8c0,0.3-0.1,0.7-0.2,1c-0.1,0.4-0.3,0.8-0.4,1.1c-0.2,0.4-0.4,0.8-0.6,1.2
		c-0.2,0.3-0.4,0.6-0.7,0.9c-0.2,0.2-0.4,0.4-0.7,0.5c-0.3,0.1-0.5,0.1-0.7,0c-0.5-0.2-0.7-0.7-0.7-1.2c0-0.8,0.3-1.7,0.6-2.4
		c0.2-0.5,0.5-1.1,0.9-1.5c0.2-0.3,0.6-0.6,0.9-0.8C62.4,173.8,62.7,173.8,63,173.9L63,173.9z M52.5,166.4c0.5,0.1,1,0.4,1.4,0.7
		c0.4,0.3,0.9,0.7,1.2,1.2c0.3,0.4,0.4,0.8,0.5,1.3c0.1,0.4,0.1,0.9,0,1.3c-0.1,0.4-0.2,0.9-0.4,1.3c-0.2,0.4-0.4,0.8-0.7,1.2
		c-0.4,0.6-1,1.2-1.6,1.7c-0.5,0.4-1,0.7-1.6,0.8c-0.5,0.1-1.1,0.1-1.6,0c-0.6-0.1-1.1-0.4-1.6-0.7c-0.4-0.3-0.8-0.7-1.1-1.1
		c-0.3-0.4-0.5-0.8-0.6-1.2c-0.1-0.4-0.1-0.9,0-1.3c0.1-0.5,0.2-0.9,0.4-1.4c0.2-0.5,0.5-0.9,0.7-1.3c0.3-0.4,0.6-0.8,1-1.1
		c0.4-0.3,0.7-0.6,1.2-0.8c0.4-0.2,0.9-0.3,1.3-0.4C51.6,166.3,52.1,166.3,52.5,166.4L52.5,166.4z M52.9,168.4
		c-0.3-0.2-0.6-0.2-0.9-0.2c-0.4,0.1-0.8,0.3-1.1,0.6c-0.4,0.4-0.8,0.9-1.1,1.3c-0.4,0.6-0.9,1.5-1.1,2.2c-0.1,0.5,0,1,0.5,1.3
		c0.2,0.1,0.5,0.2,0.7,0.2c0.3,0,0.5-0.2,0.8-0.3c0.3-0.2,0.6-0.5,0.8-0.7c0.3-0.3,0.6-0.7,0.8-1.1c0.2-0.3,0.4-0.7,0.6-1
		c0.2-0.3,0.3-0.6,0.4-1c0.1-0.3,0.1-0.6,0-0.8C53.3,168.7,53.2,168.5,52.9,168.4L52.9,168.4z M68.9,184.9l2.4,0.8l2.4-7.4l2.2,0.7
		l0.5-1.6l-6.8-2.2l-0.5,1.6l2.2,0.7L68.9,184.9L68.9,184.9z M79.8,178.4l-2.1,9.1c0.3,0.1,0.7,0.2,1,0.3c0.4,0.1,0.9,0.2,1.3,0.3
		c0.6,0.1,1.3,0.3,1.9,0.3c0.5,0,1,0.1,1.4,0c0.4,0,0.7-0.1,1.1-0.3c0.3-0.1,0.6-0.4,0.9-0.6c0.2-0.3,0.4-0.6,0.5-1
		c0.1-0.3,0.1-0.7,0-1c-0.1-0.4-0.3-0.7-0.6-0.9c-0.2-0.2-0.4-0.4-0.6-0.5l-0.5-0.3l0.5-0.1c0.2,0,0.4-0.1,0.6-0.2
		c0.3-0.1,0.6-0.3,0.8-0.6c0.2-0.2,0.3-0.5,0.4-0.8c0.1-0.3,0.1-0.7,0-1c-0.1-0.4-0.3-0.7-0.6-0.9c-0.3-0.3-0.6-0.5-0.9-0.6
		c-0.3-0.2-0.7-0.3-1-0.4c-0.4-0.1-0.8-0.2-1.2-0.3c-0.5-0.1-1-0.2-1.5-0.3C80.7,178.4,80.2,178.4,79.8,178.4L79.8,178.4z
		 M82.6,180.2c0.3,0.1,0.6,0.2,0.8,0.3c0.2,0.1,0.3,0.3,0.4,0.5c0.1,0.2,0.1,0.4,0,0.6c-0.1,0.2-0.2,0.5-0.4,0.6
		c-0.2,0.2-0.4,0.3-0.7,0.3c-0.3,0.1-0.6,0-0.8,0l-0.5-0.1l0.6-2.5l0.2,0c0,0,0.1,0,0.1,0C82.4,180.2,82.5,180.2,82.6,180.2
		L82.6,180.2z M81.1,183.9l0.5,0.1c0.3,0.1,0.6,0.2,0.9,0.4c0.2,0.2,0.4,0.4,0.6,0.6c0.1,0.3,0.1,0.6,0.1,0.8
		c-0.1,0.3-0.2,0.5-0.4,0.7c-0.2,0.2-0.5,0.3-0.8,0.3c-0.3,0-0.6,0-1-0.1c-0.1,0-0.2,0-0.3-0.1c0,0,0,0,0,0l-0.2-0.1L81.1,183.9
		L81.1,183.9z M94.9,190l2.7,0.2l-2-9.7l-3.1-0.3l-3.9,9.3l2.7,0.2l0.8-2.1l2.5,0.2L94.9,190L94.9,190z M92.4,186.2l0.7-1.9
		c0.1-0.2,0.1-0.3,0.2-0.5c0.1-0.3,0.2-0.6,0.3-0.9l0.3-1.1L94,183c0,0.3,0.1,0.6,0.1,0.9c0,0.2,0,0.3,0.1,0.5l0.2,2.1L92.4,186.2
		L92.4,186.2z M104,180.7l-2.5,0l0.1,9.5l5.9-0.1l0-1.6l-3.3,0L104,180.7L104,180.7z M113.3,179.9l-2.5,0.2l0.9,9.5l5.8-0.5
		l-0.1-1.6l-3.3,0.3L113.3,179.9L113.3,179.9z M132.7,183.1L132.7,183.1c-0.2,0.1-0.3,0.2-0.5,0.3c-0.2,0.1-0.4,0.2-0.6,0.3
		c-0.5,0.2-0.9,0.2-1.4,0.1c-0.5-0.1-0.9-0.3-1.2-0.7c-0.4-0.4-0.7-1-0.9-1.6c-0.2-0.5-0.3-1-0.3-1.5c0-0.4,0.1-0.8,0.2-1.2
		c0.2-0.3,0.4-0.6,0.6-0.8c0.3-0.2,0.6-0.4,0.9-0.5c0.2-0.1,0.4-0.1,0.7-0.2c0.2,0,0.3,0,0.5,0l-0.1-1.6c-0.2,0-0.5,0-0.7,0
		c-0.4,0.1-0.7,0.2-1.1,0.3c-0.5,0.2-1,0.4-1.4,0.7c-0.4,0.3-0.8,0.6-1.2,1c-0.3,0.4-0.6,0.8-0.8,1.3c-0.2,0.5-0.3,1-0.3,1.6
		c0,0.6,0.1,1.3,0.3,1.9c0.2,0.6,0.5,1.2,0.9,1.7c0.4,0.5,0.8,0.8,1.3,1.1c0.6,0.3,1.2,0.4,1.8,0.4c0.7,0,1.5-0.1,2.2-0.4
		c0.4-0.1,0.7-0.3,1.1-0.4c0.2-0.1,0.5-0.2,0.7-0.4L132.7,183.1L132.7,183.1z M136.2,173.3l-2.3,1l3.6,8.8l5.4-2.2l-0.6-1.4
		l-3.1,1.3L136.2,173.3L136.2,173.3z M141.8,170.7l2.2-1.3l3.1,5.3c0.2,0.3,0.4,0.6,0.7,0.9c0.2,0.1,0.4,0.3,0.7,0.3
		c0.2,0,0.4-0.1,0.6-0.2c0.1-0.1,0.3-0.2,0.4-0.3c0.1-0.1,0.2-0.3,0.2-0.4c0-0.2,0-0.4-0.1-0.6c-0.1-0.3-0.2-0.6-0.4-0.8l-3.1-5.3
		l2.2-1.3l3,5c0.4,0.6,0.6,1.3,0.7,2c0,0.6-0.1,1.2-0.4,1.7c-0.4,0.6-1,1.1-1.6,1.4c-0.6,0.4-1.4,0.7-2.1,0.7
		c-0.6,0-1.2-0.1-1.7-0.5c-0.6-0.4-1-1-1.4-1.6L141.8,170.7L141.8,170.7z M152,164.3l5.6,7.5c0.3-0.2,0.6-0.4,0.9-0.6
		c0.4-0.2,0.7-0.5,1.1-0.8c0.5-0.4,1-0.8,1.5-1.2c0.3-0.3,0.7-0.7,0.9-1.1c0.2-0.3,0.4-0.6,0.5-1c0.1-0.4,0.1-0.7,0.1-1.1
		c-0.1-0.4-0.2-0.7-0.4-1c-0.2-0.3-0.5-0.5-0.8-0.6c-0.3-0.2-0.7-0.2-1.1-0.2c-0.3,0-0.5,0.1-0.8,0.2l-0.5,0.2l0.3-0.5
		c0.1-0.2,0.2-0.4,0.2-0.6c0.1-0.3,0.1-0.6,0.1-0.9c0-0.3-0.2-0.5-0.3-0.8c-0.2-0.3-0.4-0.5-0.8-0.6c-0.3-0.2-0.7-0.2-1.1-0.2
		c-0.4,0-0.7,0.1-1.1,0.2c-0.4,0.1-0.7,0.3-1,0.5c-0.3,0.2-0.7,0.4-1,0.7c-0.4,0.3-0.8,0.6-1.2,1C152.6,163.7,152.3,164,152,164.3
		L152,164.3L152,164.3z M154.9,163.6C154.9,163.6,155,163.6,154.9,163.6c0.2-0.1,0.3-0.2,0.4-0.3c0.2-0.2,0.5-0.3,0.8-0.4
		c0.2,0,0.4,0,0.6,0.1c0.2,0.1,0.4,0.2,0.5,0.4c0.1,0.2,0.2,0.4,0.2,0.7c0,0.3-0.1,0.5-0.2,0.7c-0.1,0.3-0.3,0.5-0.6,0.6l-0.4,0.3
		l-1.5-2L154.9,163.6L154.9,163.6z M157.1,166.9l0.4-0.3c0.3-0.2,0.5-0.3,0.9-0.4c0.3-0.1,0.6-0.1,0.8,0c0.3,0.1,0.5,0.3,0.7,0.5
		c0.2,0.2,0.3,0.5,0.3,0.8c0,0.3-0.1,0.5-0.3,0.8c-0.2,0.3-0.4,0.5-0.7,0.7c-0.1,0.1-0.2,0.1-0.2,0.2c0,0,0,0,0,0l-0.2,0.1
		L157.1,166.9z"/>
	<path class="st1" d="M46.3,164.2l0.9-1l-4-3.5l-6.1,6.9l1.7,1.5l2.6-3l2.2,1.9l0.8-0.9l-2.2-1.9l1.8-2.1L46.3,164.2L46.3,164.2z
		 M59.7,181.6c0.5,0.2,1.1,0.4,1.6,0.4c0.5,0,1-0.1,1.5-0.3c0.5-0.2,1-0.6,1.4-1c0.5-0.6,0.9-1.3,1.2-1.9c0.2-0.4,0.3-0.8,0.4-1.2
		c0.1-0.4,0.1-0.9,0.1-1.3c0-0.4-0.1-0.8-0.2-1.2c-0.2-0.4-0.4-0.8-0.7-1.1c-0.4-0.4-0.8-0.7-1.3-0.9c-0.5-0.2-1-0.4-1.5-0.4
		c-0.5,0-0.9,0-1.3,0.1c-0.4,0.1-0.8,0.3-1.2,0.6c-0.4,0.3-0.7,0.6-1,1c-0.3,0.4-0.5,0.8-0.7,1.3c-0.2,0.5-0.4,0.9-0.5,1.4
		c-0.1,0.4-0.1,0.9-0.1,1.4c0,0.4,0.1,0.9,0.3,1.3c0.2,0.4,0.4,0.8,0.7,1.1C58.8,181.2,59.3,181.4,59.7,181.6L59.7,181.6z
		 M63.1,174.2c0.3,0.1,0.5,0.3,0.6,0.6c0.1,0.3,0.2,0.6,0.2,0.9c0,0.4-0.1,0.7-0.2,1.1c-0.1,0.4-0.3,0.8-0.4,1.1
		c-0.2,0.4-0.4,0.8-0.6,1.2c-0.2,0.3-0.4,0.6-0.7,0.9c-0.2,0.2-0.5,0.4-0.8,0.5c-0.3,0.1-0.6,0.1-0.8-0.1c-0.6-0.3-0.8-0.8-0.8-1.4
		c0-0.8,0.3-1.7,0.6-2.5c0.2-0.5,0.5-1.1,0.9-1.6c0.3-0.3,0.6-0.7,1-0.9C62.4,174.1,62.7,174.1,63.1,174.2L63.1,174.2z M52.5,167
		c0.5,0.1,1,0.4,1.4,0.7c0.4,0.3,0.8,0.7,1.1,1.1c0.2,0.4,0.4,0.8,0.5,1.2c0.1,0.4,0.1,0.8,0,1.3c-0.1,0.4-0.2,0.8-0.4,1.2
		c-0.2,0.4-0.4,0.8-0.6,1.1c-0.4,0.6-0.9,1.2-1.5,1.7c-0.5,0.4-1,0.6-1.5,0.8c-0.5,0.1-1,0.1-1.5,0c-0.5-0.1-1.1-0.4-1.5-0.7
		c-0.4-0.3-0.8-0.6-1.1-1.1c-0.3-0.4-0.4-0.8-0.5-1.2c-0.1-0.4-0.1-0.9,0-1.3c0.1-0.5,0.2-0.9,0.4-1.3c0.2-0.5,0.4-0.9,0.7-1.3
		c0.3-0.4,0.6-0.8,1-1.1c0.3-0.3,0.7-0.6,1.1-0.8c0.4-0.2,0.8-0.3,1.3-0.4C51.6,166.9,52,166.9,52.5,167L52.5,167z M53,168.7
		c-0.3-0.2-0.7-0.3-1-0.2c-0.4,0.1-0.8,0.4-1.1,0.7c-0.5,0.4-0.8,0.9-1.2,1.4c-0.5,0.7-1,1.5-1.1,2.3c-0.1,0.6,0.1,1.1,0.6,1.5
		c0.2,0.2,0.5,0.2,0.8,0.2c0.3,0,0.6-0.2,0.8-0.3c0.3-0.2,0.6-0.5,0.8-0.7c0.3-0.3,0.6-0.7,0.8-1.1c0.2-0.3,0.4-0.7,0.6-1
		c0.2-0.3,0.3-0.7,0.4-1c0.1-0.3,0.1-0.6,0-0.9C53.5,169.1,53.3,168.9,53,168.7L53,168.7z M69.1,185.3l2.1,0.7l2.4-7.4l2.2,0.7
		l0.4-1.3l-6.5-2.1l-0.4,1.3l2.2,0.7L69.1,185.3L69.1,185.3z M79.9,179l-2,8.8c0.3,0.1,0.6,0.2,0.9,0.3c0.4,0.1,0.8,0.2,1.3,0.3
		c0.6,0.1,1.2,0.3,1.9,0.3c0.5,0,0.9,0.1,1.4,0c0.3,0,0.7-0.1,1-0.3c0.3-0.1,0.6-0.3,0.8-0.6c0.2-0.3,0.4-0.6,0.4-0.9
		c0.1-0.3,0.1-0.6,0-0.9c-0.1-0.3-0.3-0.6-0.5-0.9c-0.2-0.2-0.4-0.3-0.6-0.5l-0.8-0.5l0.9-0.2c0.2,0,0.4-0.1,0.6-0.2
		c0.3-0.1,0.5-0.3,0.7-0.5c0.2-0.2,0.3-0.4,0.4-0.7c0.1-0.3,0.1-0.6,0-0.9c-0.1-0.3-0.3-0.6-0.5-0.9c-0.2-0.2-0.5-0.4-0.8-0.6
		c-0.3-0.2-0.7-0.3-1-0.4c-0.4-0.1-0.8-0.2-1.1-0.3c-0.5-0.1-1-0.2-1.5-0.3C80.7,179.1,80.3,179,79.9,179L79.9,179z M82.7,180.6
		c0.3,0.1,0.6,0.2,0.8,0.4c0.2,0.2,0.3,0.4,0.4,0.6c0.1,0.2,0.1,0.5,0,0.7c-0.1,0.3-0.2,0.5-0.4,0.7c-0.2,0.2-0.5,0.3-0.7,0.4
		c-0.3,0.1-0.6,0.1-0.9,0l-0.7-0.2l0.6-2.7l0.3,0c0,0,0.1,0,0.1,0C82.4,180.5,82.5,180.5,82.7,180.6L82.7,180.6z M81,184.2l0.7,0.2
		c0.3,0.1,0.6,0.2,0.9,0.4c0.3,0.2,0.5,0.4,0.6,0.7c0.1,0.3,0.2,0.6,0.1,0.9c-0.1,0.3-0.2,0.6-0.5,0.8c-0.2,0.2-0.5,0.3-0.8,0.3
		c-0.3,0-0.7,0-1-0.1c-0.1,0-0.2,0-0.3-0.1c0,0,0,0,0,0l-0.3-0.1L81,184.2L81,184.2z M95,190.3l2.3,0.2l-1.9-9.3l-2.9-0.2l-3.8,9
		l2.4,0.2l0.8-2.1l2.7,0.2L95,190.3L95,190.3z M92.2,186.8l0.7-2.1c0.1-0.2,0.1-0.3,0.2-0.5c0.1-0.3,0.2-0.6,0.3-0.9l0.6-1.9
		l0.2,1.9c0,0.3,0.1,0.6,0.1,0.9c0,0.2,0,0.3,0.1,0.5l0.2,2.2L92.2,186.8L92.2,186.8z M103.9,181.4l-2.2,0l0.1,9.2l5.6-0.1l0-1.3
		l-3.3,0L103.9,181.4L103.9,181.4z M113.2,180.5l-2.2,0.2l0.8,9.2l5.5-0.5l-0.1-1.3l-3.3,0.3L113.2,180.5L113.2,180.5z M132.6,183.8
		c-0.1,0.1-0.3,0.1-0.4,0.2c-0.2,0.1-0.4,0.2-0.6,0.3c-0.5,0.2-1,0.2-1.5,0.2c-0.5-0.1-1-0.3-1.3-0.7c-0.5-0.5-0.8-1.1-1-1.7
		c-0.2-0.5-0.3-1-0.3-1.5c0-0.4,0.1-0.8,0.3-1.2c0.2-0.3,0.4-0.6,0.7-0.9c0.3-0.2,0.6-0.4,1-0.5c0.2-0.1,0.5-0.1,0.7-0.2
		c0.1,0,0.2,0,0.4,0l-0.1-1.3c-0.2,0-0.3,0-0.5,0c-0.4,0.1-0.7,0.2-1.1,0.3c-0.5,0.2-0.9,0.4-1.4,0.6c-0.4,0.3-0.8,0.6-1.1,0.9
		c-0.3,0.4-0.6,0.8-0.8,1.2c-0.2,0.5-0.3,1-0.3,1.5c0,0.6,0.1,1.3,0.3,1.8c0.2,0.6,0.5,1.1,0.9,1.6c0.4,0.5,0.8,0.8,1.3,1.1
		c0.5,0.3,1.1,0.4,1.7,0.4c0.7,0,1.4-0.1,2.1-0.4c0.4-0.1,0.7-0.3,1.1-0.4c0.2-0.1,0.4-0.2,0.6-0.3L132.6,183.8L132.6,183.8z
		 M136.1,173.9l-2.1,0.9l3.5,8.5l5.1-2.1l-0.5-1.2l-3.1,1.3L136.1,173.9L136.1,173.9z M142,171.2l1.9-1.1l3.1,5.2
		c0.2,0.3,0.4,0.7,0.7,0.9c0.2,0.2,0.5,0.3,0.8,0.3c0.3,0,0.5-0.1,0.7-0.2c0.2-0.1,0.3-0.2,0.4-0.4c0.1-0.1,0.2-0.3,0.2-0.5
		c0-0.2,0-0.5-0.1-0.7c-0.1-0.3-0.2-0.6-0.4-0.9l-3.1-5.2l1.9-1.1l2.9,4.9c0.3,0.6,0.6,1.2,0.7,1.9c0,0.6-0.1,1.1-0.4,1.6
		c-0.4,0.6-0.9,1-1.5,1.4c-0.6,0.4-1.3,0.7-2,0.7c-0.6,0-1.1-0.1-1.6-0.5c-0.6-0.4-1-0.9-1.3-1.5L142,171.2L142,171.2z M152.2,164.8
		l5.4,7.3c0.3-0.2,0.5-0.3,0.8-0.5c0.4-0.2,0.7-0.5,1.1-0.8c0.5-0.4,1-0.8,1.5-1.2c0.3-0.3,0.7-0.7,0.9-1.1c0.2-0.3,0.4-0.6,0.4-1
		c0.1-0.3,0.1-0.7,0.1-1c0-0.3-0.2-0.6-0.4-0.9c-0.2-0.3-0.4-0.5-0.7-0.6c-0.3-0.1-0.7-0.2-1-0.2c-0.3,0-0.5,0.1-0.7,0.1l-0.9,0.3
		l0.4-0.8c0.1-0.2,0.2-0.4,0.2-0.5c0.1-0.3,0.1-0.6,0.1-0.9c0-0.3-0.1-0.5-0.3-0.7c-0.2-0.3-0.4-0.4-0.7-0.6c-0.3-0.1-0.7-0.2-1-0.2
		c-0.3,0-0.7,0.1-1,0.2c-0.3,0.1-0.7,0.3-1,0.5c-0.3,0.2-0.7,0.4-1,0.7c-0.4,0.3-0.8,0.6-1.2,1C152.8,164.2,152.5,164.5,152.2,164.8
		L152.2,164.8z M154.8,164C154.8,164,154.9,163.9,154.8,164c0.2-0.2,0.3-0.2,0.4-0.3c0.2-0.2,0.5-0.3,0.8-0.4c0.2,0,0.5,0,0.7,0.1
		c0.2,0.1,0.4,0.3,0.6,0.5c0.2,0.2,0.3,0.5,0.3,0.8c0,0.3-0.1,0.6-0.2,0.8c-0.1,0.3-0.4,0.5-0.6,0.7l-0.6,0.4l-1.7-2.3L154.8,164
		L154.8,164z M156.9,167.3l0.6-0.4c0.3-0.2,0.6-0.4,0.9-0.5c0.3-0.1,0.6-0.1,0.9,0c0.3,0.1,0.6,0.3,0.8,0.5c0.2,0.3,0.3,0.6,0.3,0.9
		c0,0.3-0.1,0.6-0.3,0.9c-0.2,0.3-0.4,0.5-0.7,0.7c-0.1,0.1-0.2,0.1-0.3,0.2c0,0,0,0,0,0l-0.3,0.2L156.9,167.3z"/>
	<path class="st21" d="M159,113.3c0.2,1,0.7,2,0.9,2.9l0.1,1.9l1.4,1.5l0.9,3.2c-1.9,2-3.9,2.6-5.7,3.9c-2.1,1.4-4,3.1-6.1,4.6
		l-1.4,0.4l-0.7,0.6l-0.7-0.3l-1.2-0.3l0.3-0.3l1.3,0.4l1.5-1.1l1.5-0.1c1.2-1.1,2.3-2,3.5-2.9c1.8-1.3,3.9-2.5,5.7-3.7
		c0.6-0.4,0.9-0.6,1.6-1.4l-0.8-2.8l-1.3-1.5l0.1-1.9l-0.3-1.4L159,113.3L159,113.3z M146.2,131.8l-0.3,0.4l-0.2-0.1l-1.3-0.3
		l-0.8,0.1l-0.8-0.8l-1,0.2l-0.7,0l-0.3-0.4l-1.1,0.1l-0.6-0.8l1.1-0.2l0.7,0.5l1.2,0.1l0.4,0.4l0.7-0.2l1.3,1l0.6-0.2L146.2,131.8
		L146.2,131.8z M138.6,129.7l-0.9,0l-0.1-1.5c0.1-0.3,0.3-0.5,0.4-0.8l0.4,1.3L138.6,129.7z"/>
</g>
</svg>
