<?xml version="1.0" encoding="utf-8"?>
<!-- Generator: Adobe Illustrator 21.1.0, SVG Export Plug-In . SVG Version: 6.00 Build 0)  -->
<svg version="1.1" id="Layer_1" xmlns="http://www.w3.org/2000/svg" xmlns:xlink="http://www.w3.org/1999/xlink" x="0px" y="0px"
	 viewBox="0 0 200 200" style="enable-background:new 0 0 200 200;" xml:space="preserve">
<style type="text/css">
	.st0{fill:#001B50;stroke:#FFFFFF;stroke-width:0.146;}
	.st1{fill:#FFFFFF;}
	.st2{fill:none;stroke:#FFFFFF;stroke-width:2.633;}
</style>
<g id="g50585">
	<path id="path50591" class="st0" d="M180.2,15.9l1.5,90.7c0,0,3.5,70.1-81,93.5c0,0-76.1-14.8-82.5-93.5L20,16.2
		C20,16.2,98.2-20,180.2,15.9z"/>
	<path id="path50593" class="st1" d="M92.3,119.3c0,0.5,0.3,0.8,0.8,0.8c0.2,0,0.4,0,0.4,0.2c0,0.1-0.1,0.2-0.3,0.2
		c-0.6,0-1.2-0.1-1.8-0.1c-0.6,0-1.2,0.1-1.9,0.1c-0.1,0-0.3-0.1-0.3-0.2c0-0.1,0.1-0.2,0.4-0.2c0.6,0,0.9-0.1,0.9-0.6v-5.2
		c0-0.3-0.1-0.4-0.3-0.4c-0.3,0-0.7,0.3-0.9,0.3c-0.1,0-0.2,0-0.2-0.2c0-0.1,0.1-0.2,1.3-0.8c1.3-0.6,1.4-0.7,1.5-0.7
		c0.1,0,0.2,0.1,0.2,0.2V119.3"/>
	<path id="path50595" class="st1" d="M98.2,115.9c1,0.4,1.9,1.1,1.9,2.3c0,1.5-1.5,2.4-2.8,2.4c-1.2,0-2.7-0.7-2.7-2.1
		c0-1.1,0.8-1.4,1.6-1.8c-0.7-0.4-1.3-1.1-1.3-2c0-1.5,1.3-2.1,2.6-2.1c1.4,0,2.3,0.7,2.3,1.8C99.7,115.3,98.9,115.7,98.2,115.9z
		 M96.5,117c-0.3,0.5-0.4,0.9-0.4,1.5c0,1.2,0.5,1.8,1.3,1.8c0.8,0,1.2-0.5,1.2-1.1C98.5,117.9,97.4,117.4,96.5,117z M97.8,115.7
		c0.4-0.4,0.6-0.7,0.6-1.3c0-0.6-0.2-1.4-1.2-1.4c-0.6,0-0.9,0.5-0.9,0.9C96.4,114.9,97.2,115.3,97.8,115.7"/>
	<path id="path50597" class="st1" d="M104.7,115.9c1,0.4,1.9,1.1,1.9,2.3c0,1.5-1.5,2.4-2.8,2.4c-1.2,0-2.7-0.7-2.7-2.1
		c0-1.1,0.8-1.4,1.6-1.8c-0.7-0.4-1.3-1.1-1.3-2c0-1.5,1.3-2.1,2.6-2.1c1.4,0,2.3,0.7,2.3,1.8C106.3,115.3,105.5,115.7,104.7,115.9z
		 M103.1,117c-0.3,0.5-0.4,0.9-0.4,1.5c0,1.2,0.5,1.8,1.3,1.8c0.8,0,1.2-0.5,1.2-1.1C105.1,117.9,103.9,117.4,103.1,117z
		 M104.4,115.7c0.4-0.4,0.6-0.7,0.6-1.3c0-0.6-0.2-1.4-1.2-1.4c-0.6,0-0.9,0.5-0.9,0.9C102.9,114.9,103.7,115.3,104.4,115.7"/>
	<path id="path50599" class="st1" d="M111,119.3c0,0.5,0.3,0.8,0.8,0.8c0.2,0,0.4,0,0.4,0.2c0,0.1-0.1,0.2-0.3,0.2
		c-0.6,0-1.2-0.1-1.8-0.1c-0.6,0-1.2,0.1-1.9,0.1c-0.1,0-0.3-0.1-0.3-0.2c0-0.1,0.1-0.2,0.4-0.2c0.6,0,0.9-0.1,0.9-0.6v-5.2
		c0-0.3-0.1-0.4-0.3-0.4c-0.3,0-0.7,0.3-0.9,0.3c-0.1,0-0.2,0-0.2-0.2c0-0.1,0.1-0.2,1.3-0.8c1.3-0.6,1.4-0.7,1.5-0.7
		c0.1,0,0.2,0.1,0.2,0.2V119.3"/>
	<path id="path50601" class="st1" d="M78.5,91.4c0,0.4,0,0.6,0.4,0.6c0.3,0,0.8,0,1-0.1c0.3-0.1,0.5-0.3,0.6-0.6
		c0-0.2,0.1-0.4,0.4-0.4c0.2,0,0.2,0.1,0.2,0.3c0,0.3,0,0.7-0.1,1c0,0.3,0,0.7,0.1,1c0,0.2-0.1,0.3-0.3,0.3c-0.6,0-0.2-1.2-1.4-1.2
		l-0.5,0c-0.4,0-0.4,0.2-0.4,0.5v1.6c0,0.7-0.1,1,0.7,1.1c0.2,0,0.4,0.1,0.4,0.3c0,0.2-0.1,0.2-0.3,0.2c-0.6,0-1.2,0-1.9,0
		c-0.6,0-1.2,0-1.8,0c-0.2,0-0.3,0-0.3-0.2c0-0.2,0.2-0.3,0.3-0.3c0.8-0.1,0.8-0.3,0.8-1.1v-4.3c0-0.7,0.1-1.1-0.7-1.2
		c-0.2,0-0.4,0-0.4-0.2c0-0.2,0.1-0.2,0.3-0.2c1.1,0,2.3,0,3.4,0c0.8,0,1.6,0,2.4,0c0.3,0,0.4,0,0.4,0.4v1.2c0,0.2-0.1,0.3-0.2,0.3
		c-0.2,0-0.4-0.3-0.5-0.5c-0.2-0.3-0.3-0.5-0.6-0.6c-0.4-0.2-0.8-0.2-1.2-0.2c-0.1,0-0.5,0-0.7,0.1c-0.1,0.1-0.1,0.3-0.1,0.4V91.4"
		/>
	<path id="path50603" class="st1" d="M127.1,95.1c0,0.4,0,0.6-0.4,0.8c-0.7,0.4-1.5,0.6-2.3,0.6c-1.1,0-2.3-0.2-3.2-0.9
		c-0.9-0.7-1.5-1.8-1.5-3c0-1.2,0.6-2.3,1.6-3c0.9-0.7,2.2-1,3.4-1c0.6,0,1.3,0.1,1.8,0.3c0.3,0.1,0.3,0.1,0.4,0.5l0.1,0.6
		c0,0.1,0,0.2,0,0.4c0,0.1-0.1,0.2-0.2,0.2c-0.6,0-0.6-1.4-2.2-1.4c-0.8,0-1.5,0.4-2,1.1c-0.5,0.7-0.7,1.6-0.7,2.4
		c0,0.8,0.2,1.7,0.6,2.3c0.5,0.7,1.2,1.2,2.1,1.2c0.5,0,0.9-0.2,1.3-0.5c0.4-0.3,0.6-0.7,0.8-1.1c0.1-0.1,0.1-0.3,0.3-0.3
		c0.3,0,0.3,0.3,0.2,0.5L127.1,95.1"/>
	<path id="path50605" class="st1" d="M63.3,42.1c0,0.8,0.4,0.9,0.8,1c0.4,0.1,0.8,0.2,0.8,0.6c0,0.3-0.3,0.4-0.7,0.4
		c-0.5,0-1.3-0.1-2.9-0.1c-1.6,0-2.4,0.1-2.9,0.1c-0.4,0-0.7-0.1-0.7-0.4c0-0.5,0.4-0.5,0.9-0.6c0.6-0.1,0.7-0.5,0.7-1.6V30.1
		c0-0.6,0-1-0.5-1.2c-0.4-0.2-1-0.2-1-0.5c0-0.4,0.3-0.4,0.8-0.4c0.3,0,1.1,0.1,2.7,0.1c1.6,0,2.4-0.1,2.9-0.1
		c0.4,0,0.7,0.1,0.7,0.4c0,0.3-0.6,0.5-1,0.6c-0.6,0.2-0.7,0.6-0.7,1.3V42.1"/>
	<path id="path50607" class="st1" d="M88.1,44.4c-4.5,0-7-4.5-7-8.3c0-4.3,2.5-8.3,7-8.3c4.5,0,7,4.5,7,8.3
		C95.2,40.4,92.7,44.4,88.1,44.4z M87.9,28.5c-1.7,0-2.5,3.2-2.5,5.8c0,4.9,1.2,9.2,3.2,9.2c1.5,0,2.4-2.5,2.4-6.3
		C90.9,33.2,89.9,28.5,87.9,28.5"/>
	<path id="path50609" class="st1" d="M107.1,30.9c0-1-0.1-1.9-0.9-2c-0.4,0-0.9-0.2-0.9-0.5c0-0.2,0.2-0.4,0.4-0.4
		c0.5,0,0.9,0.1,1.8,0.1c0.6,0,1.2-0.1,1.8-0.1c0.3,0,0.5,0.1,0.5,0.4c0,0.3-0.4,0.4-0.8,0.5c-0.6,0.1-0.8,0.5-0.8,1.3V44
		c0,0.3-0.2,0.3-0.7,0.3c-0.3,0-0.5-0.1-0.7-0.4l-7.9-12.6h-0.1v9.9c0,1.6,0.5,1.8,1,1.9c0.5,0.1,1,0,1,0.5c0,0.2-0.2,0.4-0.5,0.4
		c-0.7,0-1.2-0.1-1.8-0.1c-0.6,0-1.3,0.1-1.7,0.1c-0.4,0-0.6-0.1-0.6-0.4c0-0.9,1.6,0,1.6-1.6V30c0-1.7-1.6-0.8-1.6-1.5
		c0-0.3,0.3-0.5,0.7-0.5c0.6,0,1.2,0.1,1.8,0.1c0.6,0,1.2-0.1,1.8-0.1c0.5,0,0.8,0.1,1,0.4l5.6,9.1h0.1V30.9"/>
	<path id="path50611" class="st1" d="M112.8,30.3c0-1.5-1.7-0.4-1.7-1.1c0-0.6,1.7-1.4,5.9-1.4c5.3,0,8.4,2.9,8.4,8.2
		c0,5-2.8,8.1-7,8.1c-1.8,0-2.9-0.1-4-0.1c-1.3,0-2.1,0.1-2.6,0.1c-0.4,0-0.7-0.1-0.7-0.4c0-0.5,0.4-0.5,0.8-0.6
		c0.4-0.1,0.8-0.2,0.8-1V30.3z M116.7,41.7c0,0.7,0.6,1.3,1.3,1.3c1.7,0,3.2-1.5,3.2-7.3c0-4.8-1.3-7.1-3.4-7.1
		c-0.8,0-1.1,0.4-1.1,1.1V41.7"/>
	<path id="path50613" class="st1" d="M132.4,42.1c0,0.8,0.4,0.9,0.8,1c0.4,0.1,0.8,0.2,0.8,0.6c0,0.3-0.3,0.4-0.7,0.4
		c-0.5,0-1.3-0.1-2.9-0.1c-1.6,0-2.4,0.1-2.9,0.1c-0.4,0-0.7-0.1-0.7-0.4c0-0.5,0.4-0.5,0.9-0.6c0.6-0.1,0.7-0.5,0.7-1.6V30.1
		c0-0.6,0-1-0.5-1.2c-0.4-0.2-1-0.2-1-0.5c0-0.4,0.3-0.4,0.8-0.4c0.3,0,1.1,0.1,2.7,0.1c1.6,0,2.4-0.1,2.9-0.1
		c0.4,0,0.7,0.1,0.7,0.4c0,0.3-0.6,0.5-1,0.6c-0.6,0.2-0.7,0.6-0.7,1.3V42.1"/>
	<path id="path50615" class="st1" d="M145.9,30.9c0-1-0.2-1.9-0.9-2c-0.4,0-0.9-0.2-0.9-0.5c0-0.2,0.2-0.4,0.4-0.4
		c0.5,0,0.9,0.1,1.8,0.1c0.6,0,1.2-0.1,1.8-0.1c0.3,0,0.5,0.1,0.5,0.4c0,0.3-0.4,0.4-0.8,0.5c-0.6,0.1-0.8,0.5-0.8,1.3V44
		c0,0.3-0.2,0.3-0.7,0.3c-0.3,0-0.5-0.1-0.7-0.4l-7.9-12.6h-0.1v9.9c0,1.6,0.5,1.8,1,1.9c0.5,0.1,1,0,1,0.5c0,0.2-0.2,0.4-0.5,0.4
		c-0.7,0-1.2-0.1-1.8-0.1c-0.6,0-1.3,0.1-1.7,0.1c-0.4,0-0.6-0.1-0.6-0.4c0-0.9,1.6,0,1.6-1.6V30c0-1.7-1.6-0.8-1.6-1.5
		c0-0.3,0.3-0.5,0.7-0.5c0.6,0,1.2,0.1,1.8,0.1c0.6,0,1.2-0.1,1.8-0.1c0.5,0,0.8,0.1,1,0.4l5.6,9.1h0.1V30.9"/>
	<path id="path50617" class="st1" d="M154.9,27.7c1,0,2.3,0.3,3.1,0.6c0.4,0.1,0.6,0.2,0.6,0.7c0,0.8,0,1.7,0,2.5
		c0,0.8,0,1.1-0.6,1.1c-1.1,0-1.2-4.1-3.5-4.1c-1.2,0-1.8,0.8-1.8,1.9c0,3.4,6.5,3.9,6.5,8.7c0,3.2-2.7,5.3-5.9,5.3
		c-0.7,0-4.2,0-4.2-1.4c0-1.4,0.1-2.2,0.1-2.7c0.1-1.3,0.2-1.7,0.8-1.7c1.3,0,0.6,5,3.5,5c1.5,0,2.5-1.1,2.5-2.5
		c0-3.5-6.5-4.5-6.5-8.8C149.5,29.3,152.4,27.7,154.9,27.7"/>
	<path id="path50619" class="st1" d="M44.1,53.8c0-0.6-0.2-0.7-0.7-0.7c-0.3,0-0.5,0-0.7,0c-0.3,0-0.3-0.1-0.3-0.3
		c0-0.5,3.2-0.9,4.9-0.9c4.1,0,6.6,2.7,6.6,7.1c0,3.1-1.7,7-5.9,7c-0.9,0-1.8-0.1-2.6-0.1c-1.8,0-2.4,0.1-2.8,0.1
		c-0.1,0-0.2-0.1-0.2-0.3c0-0.2,0.1-0.3,0.8-0.3c0.7,0,0.9-0.4,0.9-1.6V53.8z M46.3,63.8c0,1.3,0.6,1.8,1.7,1.8
		c2.3,0,3.6-2.7,3.6-6.1c0-4-1.6-6.8-4-6.8c-0.8,0-1.4,0.3-1.4,1.3V63.8"/>
	<path id="path50621" class="st1" d="M56.3,53.6c0-0.5-0.2-0.7-0.8-0.8c-0.4-0.1-0.6,0-0.6-0.3c0-0.2,0.2-0.3,0.6-0.3
		c0.2,0,0.7,0.1,3.5,0.1c2.3,0,3.3-0.1,4-0.1c0.4,0,0.5,0.1,0.5,0.4v2.8c0,0.3-0.1,0.4-0.2,0.4c-0.4,0-0.2-0.1-0.7-1.2
		c-0.6-1.3-1.2-1.8-2.9-1.8c-1.1,0-1.2,0.1-1.2,0.6v4.5c0,0.3,0,0.4,0.6,0.4c1.8,0,1.9,0,2.3-0.8c0.3-0.7,0.3-1,0.6-1
		c0.2,0,0.3,0.1,0.3,0.4c0,0.5-0.1,1.2-0.1,1.9c0,0.8,0.1,1.4,0.1,1.8c0,0.4,0,0.6-0.3,0.6c-0.3,0-0.3-0.4-0.6-1.2
		c-0.3-1-0.4-1.1-1.9-1.1c-0.9,0-1,0-1,0.4v4.2c0,1.6,0.3,2,1.8,2c1.4,0,2.1-0.6,2.7-2.1c0.4-1.2,0.4-1.2,0.6-1.2
		c0.2,0,0.2,0.1,0.2,0.5v3.1c0,0.3-0.1,0.4-0.5,0.4c-0.6,0-1.6-0.1-3.9-0.1c-2.5,0-3.1,0.1-4.2,0.1c-0.4,0-0.5-0.1-0.5-0.3
		c0-0.2,0.1-0.3,0.4-0.4c0.9-0.2,1.2-0.4,1.2-1V53.6"/>
	<path id="path50623" class="st1" d="M72.5,53.3c0-0.3-0.1-0.5-0.5-0.5h-0.7c-0.2,0-0.3-0.1-0.3-0.2c0-0.2,0.2-0.3,0.5-0.4
		c1.8-0.2,2.9-0.3,4.3-0.3c2.9,0,4.6,1,4.6,3.2c0,1.8-1.1,2.6-2.7,3.1v0c2,0.2,3.6,1.7,3.6,3.7c0,2.1-1.6,4.1-3.8,4.1
		c-1,0-1.8-0.1-3.3-0.1c-1.3,0-2.1,0.1-2.7,0.1c-0.4,0-0.5-0.1-0.5-0.2c0-0.2,0.1-0.2,0.6-0.4c0.7-0.2,0.9-0.3,0.9-0.9V53.3z
		 M74.7,57.2c0,0.7,0.2,0.8,0.9,0.8c1.5,0,2.8-0.7,2.8-2.9c0-1.6-0.9-2.5-2.5-2.5c-1,0-1.2,0.3-1.2,0.9V57.2z M74.7,63.9
		c0,1.1,0.5,1.6,1.8,1.6c1.2,0,2.5-0.9,2.5-3.6c0-1.8-0.9-3.3-3.1-3.3c-1,0-1.2,0.1-1.2,0.6V63.9"/>
	<path id="path50625" class="st1" d="M87.9,66.4c-3.4,0-5.5-3.7-5.5-7.2c0-3.5,2.1-7.2,5.5-7.2c3.4,0,5.5,3.7,5.5,7.2
		C93.3,62.7,91.2,66.4,87.9,66.4z M87.9,52.6c-2.2,0-3.1,3.9-3.1,6.6c0,2.7,0.9,6.6,3.1,6.6c2.2,0,3.1-3.9,3.1-6.6
		C91,56.5,90,52.6,87.9,52.6"/>
	<path id="path50627" class="st1" d="M98,64.3c0,0.6,0.2,1.1,0.9,1.2c0.8,0.2,0.9,0.3,0.9,0.4c0,0.2-0.1,0.2-0.3,0.2
		c-0.5,0-1.3-0.1-2.3-0.1c-1.2,0-1.8,0.1-2.4,0.1c-0.2,0-0.3-0.1-0.3-0.3c0-0.2,0.1-0.3,0.5-0.3c0.7-0.1,0.9-0.5,0.9-0.9V53.8
		c0-0.7-0.2-1-0.8-1c-0.5,0-0.6-0.1-0.6-0.3c0-0.2,0.2-0.3,0.4-0.3c0.6,0,1.2,0.1,2.2,0.1c1.2,0,1.9-0.1,3.2-0.1
		c2.4,0,3.8,1.5,3.8,3.6c0,2-1.6,3-3.4,3.3v0c0.7,0.1,0.9,0.4,1.2,1.1c1.8,3.6,2,4.9,2.6,5.3c0.4,0.3,0.8,0.1,0.8,0.4
		c0,0.1-0.1,0.2-0.3,0.2c-0.5,0-1-0.1-1.5-0.1c-0.5,0-0.7,0.1-1.2,0.1c-0.2,0-0.3-0.1-0.4-0.4l-2.7-5.9c-0.1-0.3-0.3-0.5-0.7-0.5
		c-0.5,0-0.7,0.1-0.7,0.5V64.3z M98,58.2c0,0.4,0.1,0.5,0.7,0.5c2,0,3-0.8,3-3c0-1.6-1.1-2.9-2.4-2.9c-1.1,0-1.4,0.3-1.4,1.2V58.2"
		/>
	<path id="path50629" class="st1" d="M107.5,53.8c0-0.6-0.2-0.7-0.7-0.7c-0.3,0-0.5,0-0.7,0c-0.3,0-0.3-0.1-0.3-0.3
		c0-0.5,3.2-0.9,4.9-0.9c4.1,0,6.6,2.7,6.6,7.1c0,3.1-1.7,7-5.9,7c-0.9,0-1.8-0.1-2.6-0.1c-1.8,0-2.4,0.1-2.8,0.1
		c-0.1,0-0.2-0.1-0.2-0.3c0-0.2,0.1-0.3,0.8-0.3c0.7,0,0.9-0.4,0.9-1.6V53.8z M109.6,63.8c0,1.3,0.6,1.8,1.7,1.8
		c2.3,0,3.6-2.7,3.6-6.1c0-4-1.6-6.8-4-6.8c-0.8,0-1.4,0.3-1.4,1.3V63.8"/>
	<path id="path50631" class="st1" d="M119.6,53.6c0-0.5-0.2-0.7-0.8-0.8c-0.4-0.1-0.6,0-0.6-0.3c0-0.2,0.2-0.3,0.6-0.3
		c0.2,0,0.7,0.1,3.5,0.1c2.3,0,3.3-0.1,4-0.1c0.4,0,0.5,0.1,0.5,0.4v2.8c0,0.3-0.1,0.4-0.2,0.4c-0.4,0-0.2-0.1-0.7-1.2
		c-0.6-1.3-1.2-1.8-2.9-1.8c-1.1,0-1.2,0.1-1.2,0.6v4.5c0,0.3,0,0.4,0.6,0.4c1.8,0,1.9,0,2.3-0.8c0.4-0.7,0.3-1,0.6-1
		c0.2,0,0.3,0.1,0.3,0.4c0,0.5-0.1,1.2-0.1,1.9c0,0.8,0.1,1.4,0.1,1.8c0,0.4,0,0.6-0.3,0.6c-0.3,0-0.3-0.4-0.6-1.2
		c-0.3-1-0.4-1.1-1.9-1.1c-0.9,0-1,0-1,0.4v4.2c0,1.6,0.3,2,1.8,2c1.4,0,2.1-0.6,2.7-2.1c0.4-1.2,0.4-1.2,0.6-1.2
		c0.2,0,0.2,0.1,0.2,0.5v3.1c0,0.3-0.1,0.4-0.5,0.4c-0.6,0-1.6-0.1-3.9-0.1c-2.5,0-3.1,0.1-4.2,0.1c-0.4,0-0.5-0.1-0.5-0.3
		c0-0.2,0.1-0.3,0.4-0.4c0.9-0.2,1.2-0.4,1.2-1V53.6"/>
	<path id="path50633" class="st1" d="M131.3,61.2c-0.3,0-0.3,0.1-0.6,1.4c-0.4,1.8-0.5,2.1-0.5,2.3c0,0.3,0.2,0.5,0.7,0.7
		c0.4,0.1,1,0,1,0.3c0,0.1-0.1,0.3-0.4,0.3c-0.2,0-1.1-0.1-1.6-0.1c-1.1,0-1.4,0.1-1.6,0.1c-0.2,0-0.2-0.1-0.2-0.2
		c0-0.3,0.3-0.2,0.7-0.4c0.5-0.2,0.7-1.2,2.5-7.1c1.9-6.4,1.8-6.4,2.2-6.4c0.5,0,0.3,0.3,3,9c1.1,3.6,1.2,4.4,1.7,4.5
		c0.5,0.2,0.8,0.1,0.8,0.4c0,0.2-0.1,0.2-0.5,0.2c-0.4,0-1.1-0.1-1.9-0.1c-1.2,0-2,0.1-2.2,0.1c-0.2,0-0.3-0.1-0.3-0.3
		c0-0.2,0.2-0.2,1-0.4c0.3-0.1,0.4-0.3,0.4-0.5c0-0.2-0.1-0.5-0.5-2.1c-0.4-1.6-0.4-1.8-0.7-1.8H131.3z M133.8,60.6
		c0.2,0,0.2,0,0.2-0.1c0-0.2-0.1-0.5-1-3.4c-0.3-1.1-0.3-1.2-0.4-1.2c-0.1,0-0.1,0.1-0.8,2.7c-0.5,1.7-0.5,1.9-0.5,2
		c0,0,0,0.1,0.2,0.1H133.8"/>
	<path id="path50635" class="st1" d="M147.1,62.3v-7.8c0-1.5-0.3-1.6-0.9-1.7c-0.6-0.1-0.7-0.1-0.7-0.3c0-0.2,0.1-0.3,0.5-0.3
		c0.2,0,0.6,0.1,1.4,0.1c0.9,0,1.1-0.1,1.4-0.1c0.2,0,0.4,0.1,0.4,0.3c0,0.2-0.1,0.3-0.7,0.3c-0.5,0-0.9,0.4-0.9,1.1v8.1
		c0,3-1.5,4.3-3.8,4.3c-2.3,0-4.3-0.6-4.3-3.2v-9.5c0-0.5-0.1-0.8-0.4-0.9c-0.8-0.1-0.8-0.2-0.8-0.4c0-0.1,0.1-0.2,0.3-0.2
		c0.4,0,0.9,0.1,2,0.1c1.4,0,2.1-0.1,2.3-0.1c0.3,0,0.4,0.1,0.4,0.2c0,0.2-0.1,0.2-0.8,0.4c-0.5,0.1-0.8,0.3-0.8,1v8.8
		c0,2,1,3,2.7,3C145.9,65.6,147.1,64.6,147.1,62.3"/>
	<path id="path50637" class="st1" d="M150.4,53.8c-0.4-0.7-0.4-0.9-0.9-1c-0.4-0.1-0.6-0.1-0.6-0.3c0-0.2,0.1-0.3,0.3-0.3
		c0.4,0,0.9,0.1,1.9,0.1c1.5,0,1.9-0.1,2.2-0.1c0.2,0,0.3,0.1,0.3,0.2c0,0.2-0.1,0.3-0.8,0.4c-0.2,0-0.5,0.2-0.5,0.4
		c0,0.3,0.2,0.6,1.9,4c1.5-3.1,1.9-3.5,1.9-3.9c0-0.3-0.3-0.5-0.9-0.5c-0.2,0-0.4-0.1-0.4-0.3c0-0.3,0.2-0.3,0.5-0.3
		s0.7,0.1,1.8,0.1c0.7,0,1.1-0.1,1.4-0.1c0.3,0,0.4,0.1,0.4,0.3c0,0.2,0,0.3-0.3,0.3c-0.9,0.1-1.4,0.4-1.7,1.2l-2.1,4.1l1.8,3.6
		c1.7,3.4,1.8,3.6,2.3,3.8c0.3,0.2,0.5,0.2,0.5,0.4c0,0.2,0,0.3-0.4,0.3c-0.4,0-1.1-0.1-1.7-0.1c-1.7,0-2,0.1-2.2,0.1
		c-0.3,0-0.4-0.1-0.4-0.2c0-0.3,0.3-0.3,0.7-0.4c0.4-0.1,0.6-0.3,0.6-0.5c0-0.2-0.3-0.7-1.6-3.5c-0.5-1.1-0.6-1.2-0.7-1.2
		c-0.1,0-0.2,0.3-1.1,1.9c-0.9,1.7-1.1,2.2-1.1,2.6c0,0.4,0.2,0.7,0.9,0.8c0.4,0.1,0.6,0.1,0.6,0.3c0,0.2-0.1,0.3-0.3,0.3
		c-0.3,0-0.7-0.1-1.8-0.1c-1.1,0-1.5,0.1-1.8,0.1c-0.4,0-0.4-0.1-0.4-0.3c0-0.3,0.2-0.3,0.6-0.4c0.7-0.2,0.8-0.2,1.5-1.6l2.5-4.5
		L150.4,53.8"/>
	<path id="path50639" class="st2" d="M172.2,22.6l0.7,83c0,0,4.5,63.6-72.2,84.8c0,0-67.7-13.4-73.5-84.8L28,23
		C28,23,97.8-9.9,172.2,22.6z"/>
	<path id="path50641" class="st1" d="M37.9,116.3h38.6l24.1,26.3l24.1-26.3h38.6L100.6,176L37.9,116.3"/>
	<path id="path50643" class="st1" d="M101.3,73.3c0,0,6.3,9.1,2.1,16.7c-4.1,7.6-15.2,7.2-15.2,7.2s13.3,4.5,18.6-5.3
		C111.9,82.7,101.3,73.3,101.3,73.3"/>
	<path id="path50645" class="st1" d="M100.7,73.5c0,0-6.3,9.1-2.1,16.7c4.1,7.6,15.2,7.3,15.2,7.3s-13.3,4.5-18.6-5.3
		C90.1,82.9,100.7,73.5,100.7,73.5"/>
	<path id="path50647" class="st1" d="M114.6,96.2c0,0-4.9-9.9-13.6-9.9c-8.6,0-13.7,9.8-13.7,9.8s2.5-13.9,13.7-13.8
		C111.5,82.4,114.6,96.2,114.6,96.2"/>
	<path id="path50649" class="st1" d="M68.7,30c0-0.8-0.4-1-0.8-1.1c-0.4-0.1-0.8-0.2-0.8-0.5c0-0.3,0.2-0.4,0.7-0.4
		c0.5,0,1.3,0.1,2.9,0.1c1,0,2.6-0.1,4.2-0.1c2.7,0,4.8,1.3,4.8,4c0,4-4.5,3.6-4.5,3.9c0,0.1,0.2,0.2,0.5,0.2c1.3,0,1.9,0.2,2.4,1.5
		l1.8,4.5c0.7,1.8,1.7,1,1.7,1.8c0,0.3-0.2,0.4-0.5,0.4h-3.4c-1.1,0-1.2-0.1-1.6-1.2l-1.8-4.9c-0.3-0.9-0.6-1.5-1.4-1.5
		c-0.2,0-0.2,0.1-0.2,0.2v4.8c0,0.8,0,1.4,0.6,1.7c0.5,0.2,0.9,0.1,0.9,0.6c0,0.3-0.3,0.4-0.7,0.4c-0.4,0-1.2-0.1-2.8-0.1
		c-1.6,0-2.4,0.1-2.9,0.1c-0.3,0-0.6-0.1-0.6-0.4c0-0.5,0.3-0.5,0.7-0.6c0.4-0.1,0.8-0.2,0.8-1V30z M72.6,35.5
		c0,0.1,0.1,0.1,0.2,0.1c1.8,0,2.9-1.4,2.9-3.4c0-1.8-0.9-3.3-2.3-3.3c-0.5,0-0.8,0.2-0.8,1.2V35.5"/>
	<path id="path50651" class="st1" d="M55.1,42.2c0,0.9-2.7,2.1-5,2.1c-4.2,0-7.2-3.8-7.2-8.1c0-5.4,3.3-8.9,7.7-8.9
		c1.1,0,2.1,0.2,3,0.5c0.5,0.2,0.9,0.3,1,0.9c0.1,0.8,0.1,1.8,0.1,3.1c0,0.5-0.2,0.7-0.5,0.7c-1.5,0-1.2-4.4-3.8-4.4
		c-1.4,0-3.1,2.1-3.1,7.5c0,5,1.3,7.8,3.1,7.8c0.6,0,0.9-0.7,0.9-1.8v-3.7c0-1.4-1.6-0.6-1.6-1.3c0-0.4,0.2-0.5,0.7-0.5
		c0.9,0,2,0.1,2.9,0.1c0.8,0,1.8-0.1,2.5-0.1c0.5,0,0.6,0.1,0.6,0.4c0,0.6-1.3,0.1-1.3,1.6V42.2"/>
</g>
</svg>
