<?xml version="1.0" encoding="utf-8"?>
<!-- Generator: Adobe Illustrator 21.1.0, SVG Export Plug-In . SVG Version: 6.00 Build 0)  -->
<svg version="1.1" id="Layer_1" xmlns="http://www.w3.org/2000/svg" xmlns:xlink="http://www.w3.org/1999/xlink" x="0px" y="0px"
	 viewBox="0 0 200 200" style="enable-background:new 0 0 200 200;" xml:space="preserve">
<style type="text/css">
	.st0{fill:#231F20;}
	.st1{fill:#FFFFFF;}
	.st2{clip-path:url(#SVGID_2_);fill:url(#SVGID_3_);}
	.st3{fill:#FFE81B;}
	.st4{fill:url(#SVGID_4_);}
	.st5{fill:url(#SVGID_5_);}
	.st6{fill:#17479D;}
	.st7{fill:#D61A28;}
	.st8{fill:#211D70;}
	.st9{fill:#C4C8CA;}
	.st10{fill:#979CA2;}
	.st11{fill:#4C4E50;}
</style>
<g>
	<path class="st0" d="M52.7,183.4c5,3.7,10.4,6.8,16.2,9.2c9.9,4.2,20.3,6.3,31.1,6.3c10.8,0,21.3-2.1,31.1-6.3
		c5.8-2.5,11.3-5.6,16.4-9.3l0.1-0.1c1.9-0.5,4.3-1.3,7-2.5c7-3.1,10.5-6,10.5-6c-2.6,0.2-5.4,0.2-8,0.3l0-0.1
		c7-7.2,12.6-15.5,16.5-24.8c4.2-9.9,6.3-20.3,6.3-31.1c0-10.8-2.1-21.3-6.3-31.1c-4-9.5-9.8-18.1-17.1-25.4
		c-7.3-7.3-15.9-13.1-25.4-17.1c-9.9-4.2-20.3-6.3-31.1-6.3c-10.8,0-21.3,2.1-31.1,6.3c-9.5,4-18.1,9.8-25.4,17.1
		c-7.3,7.3-13.1,15.9-17.1,25.4c-4.2,9.9-6.3,20.3-6.3,31.1c0,10.8,2.1,21.3,6.3,31.1c3.9,9.2,9.4,17.5,16.4,24.7l0.2,0.2
		c-2.6,0-5.4-0.1-8-0.3c0,0,3.5,3,10.5,6c2.7,1.2,5.1,2,7,2.5L52.7,183.4z"/>
	<path class="st1" d="M95.6,170.3c-3.2,1-5.8,3.1-7.6,5.9l-0.1,0.1c-2.1-0.3-7.8-1.1-13-2.4c-0.3-0.1-0.7-0.2-1-0.3
		c-0.3-0.1-0.5,0-0.8,0.3c-0.2,0.2-0.4,0.5-0.7,0.7c0,0-5.3-0.7-10.9-2.6c-6-2-9.8-4.3-11.1-5.1c-0.3-0.2-0.7-0.3-0.9-0.2
		c-0.3,0.1-0.7,0.5-0.8,1.4c-0.2,1.6,1,4.6,2.6,6.9c0,0-3.4,0.1-7.8,0l-0.1-0.1c-7.1-7.2-12.7-15.6-16.7-24.9
		c-4.1-9.8-6.3-20.2-6.3-31c0-10.7,2.1-21.2,6.3-31c4-9.5,9.7-18,17-25.3c7.3-7.3,15.8-13,25.3-17c9.8-4.1,20.2-6.3,31-6.3
		c10.7,0,21.2,2.1,31,6.3c9.5,4,18,9.7,25.3,17c7.3,7.3,13,15.8,17,25.3c4.1,9.8,6.3,20.2,6.3,31c0,10.7-2.1,21.2-6.3,31
		c-3.9,9.3-9.5,17.6-16.6,24.8l-0.2,0.2c-4.3,0.1-7.7,0-7.7,0c1.6-2.3,2.8-5.2,2.6-6.9c-0.1-0.9-0.5-1.2-0.8-1.4
		c-0.3-0.1-0.6,0-0.9,0.2c-1.3,0.8-5.1,3-11.1,5.1c-5.6,1.9-10.9,2.6-10.9,2.6c-0.2-0.2-0.5-0.5-0.7-0.7c-0.3-0.3-0.5-0.4-0.8-0.3
		c-0.3,0.1-0.7,0.2-1,0.3c-5.2,1.3-11,2.2-13,2.4l0-0.1c-2.2-3.3-5.7-5.7-9.8-6.4l0,0c-0.1-1.4-0.2-2.8-0.2-3.8l0,0
		c0.3-0.4,0.5-1,0.6-1.6c0.2-0.9,0.2-1.7,0.3-2.1l0-0.1c2.1-1.1,3.6-3.4,3.5-6.6c-0.1-3.9-0.5-6.3-1-10.8
		c-0.5-4.2-1.3-10.1-1.6-13.2c-0.3-3-0.5-4.9,0.4-5.6c1-0.8,4.6,0.7,5.8,1.4c0,0,0.5-0.6,0.3-1.5c-0.2-0.9-0.7-0.8-1.5-1.8
		c-0.6-0.7-0.8-1-0.8-1s0-0.5-0.5-1.7c-0.6-1.4-1-1.7-2.7-2.2c-1.5-0.4-2.3-0.6-2.7-0.2c-0.4,0.3-0.4,1-0.4,1s-1.1,1.5-1.9,3.8
		c-0.7,2.1-1.2,5.7-1.9,9.9c-0.7,4.3-1.6,10.2-1.6,10.2s-2.2,1.1-3.8,4c-1.6,2.8-1.7,7.2-0.4,10.6c0.5,1.4,1.5,2.5,2.5,3.3l0,0.1
		c-0.1,2.7,0.6,4,1,4.3l0,0.1C95.7,166.8,95.6,168.6,95.6,170.3L95.6,170.3z"/>
	<g>
		<defs>
			<path id="SVGID_1_" d="M58.9,171c-4.6-1.8-7.5-3.5-8.6-4.1c-0.3-0.2-0.7-0.3-0.9-0.2c-0.3,0.1-0.7,0.5-0.8,1.4
				c-0.2,1.6,1,4.6,2.6,6.9c0,0-3.4,0.1-7.8,0l-0.1-0.1c-7.1-7.2-12.7-15.6-16.7-24.9c-4.1-9.8-6.3-20.2-6.3-31
				c0-10.7,2.1-21.2,6.3-31c4-9.5,9.7-18,17-25.3c7.3-7.3,15.8-13,25.3-17c9.8-4.1,20.2-6.3,31-6.3c10.7,0,21.2,2.1,31,6.3
				c9.5,4,18,9.7,25.3,17c7.3,7.3,13,15.8,17,25.3c4.1,9.8,6.3,20.2,6.3,31c0,10.7-2.1,21.2-6.3,31c-3.9,9.3-9.5,17.6-16.6,24.8
				l-0.2,0.2c-4.3,0.1-7.7,0-7.7,0c1.6-2.3,2.8-5.2,2.6-6.9c-0.1-0.9-0.5-1.2-0.8-1.4c-0.3-0.1-0.6,0-0.9,0.2c-1,0.7-3.9,2.3-8.3,4
				L106,149.1c-0.2-1.3-0.3-2.7-0.5-4.3c-0.5-4.2-1.3-10.1-1.6-13.2c-0.3-3-0.5-4.9,0.4-5.6c1-0.8,4.6,0.7,5.8,1.4
				c0,0,0.5-0.6,0.3-1.5c-0.2-0.9-0.7-0.8-1.5-1.8c-0.6-0.7-0.8-1-0.8-1s0-0.5-0.5-1.7c-0.6-1.4-1-1.7-2.7-2.2
				c-1.5-0.4-2.3-0.6-2.7-0.2c-0.4,0.3-0.4,1-0.4,1s-1.1,1.5-1.9,3.8c-0.7,2.1-1.2,5.7-1.9,9.9c-0.7,4.3-1.6,10.2-1.6,10.2
				s-2.2,1.1-3.8,4c-0.5,0.9-0.9,2-1.1,3.1L58.9,171z"/>
		</defs>
		<clipPath id="SVGID_2_">
			<use xlink:href="#SVGID_1_"  style="overflow:visible;"/>
		</clipPath>
		<radialGradient id="SVGID_3_" cx="101.4318" cy="138.3089" r="35.8989" gradientUnits="userSpaceOnUse">
			<stop  offset="0" style="stop-color:#9AAFDA"/>
			<stop  offset="0.1707" style="stop-color:#A0B3DC"/>
			<stop  offset="0.3886" style="stop-color:#AFC0E2"/>
			<stop  offset="0.6322" style="stop-color:#CAD5EB"/>
			<stop  offset="0.8927" style="stop-color:#EEF1F9"/>
			<stop  offset="1" style="stop-color:#FFFFFF"/>
		</radialGradient>
		<path class="st2" d="M95.6,170.3c-3.2,1-5.8,3.1-7.6,5.9l-0.1,0.1c-2.1-0.3-7.8-1.1-13-2.4c-0.3-0.1-0.7-0.2-1-0.3
			c-0.3-0.1-0.5,0-0.8,0.3c-0.2,0.2-0.4,0.5-0.7,0.7c0,0-5.3-0.7-10.9-2.6c-6-2-9.8-4.3-11.1-5.1c-0.3-0.2-0.7-0.3-0.9-0.2
			c-0.3,0.1-0.7,0.5-0.8,1.4c-0.2,1.6,1,4.6,2.6,6.9c0,0-3.4,0.1-7.8,0l-0.1-0.1c-7.1-7.2-12.7-15.6-16.7-24.9
			c-4.1-9.8-6.3-20.2-6.3-31c0-10.7,2.1-21.2,6.3-31c4-9.5,9.7-18,17-25.3c7.3-7.3,15.8-13,25.3-17c9.8-4.1,20.2-6.3,31-6.3
			c10.7,0,21.2,2.1,31,6.3c9.5,4,18,9.7,25.3,17c7.3,7.3,13,15.8,17,25.3c4.1,9.8,6.3,20.2,6.3,31c0,10.7-2.1,21.2-6.3,31
			c-3.9,9.3-9.5,17.6-16.6,24.8l-0.2,0.2c-4.3,0.1-7.7,0-7.7,0c1.6-2.3,2.8-5.2,2.6-6.9c-0.1-0.9-0.5-1.2-0.8-1.4
			c-0.3-0.1-0.6,0-0.9,0.2c-1.3,0.8-5.1,3-11.1,5.1c-5.6,1.9-10.9,2.6-10.9,2.6c-0.2-0.2-0.5-0.5-0.7-0.7c-0.3-0.3-0.5-0.4-0.8-0.3
			c-0.3,0.1-0.7,0.2-1,0.3c-5.2,1.3-11,2.2-13,2.4l0-0.1c-2.2-3.3-5.7-5.7-9.8-6.4l0,0c-0.1-1.4-0.2-2.8-0.2-3.8l0,0
			c0.3-0.4,0.5-1,0.6-1.6c0.2-0.9,0.2-1.7,0.3-2.1l0-0.1c2.1-1.1,3.6-3.4,3.5-6.6c-0.1-3.9-0.5-6.3-1-10.8
			c-0.5-4.2-1.3-10.1-1.6-13.2c-0.3-3-0.5-4.9,0.4-5.6c1-0.8,4.6,0.7,5.8,1.4c0,0,0.5-0.6,0.3-1.5c-0.2-0.9-0.7-0.8-1.5-1.8
			c-0.6-0.7-0.8-1-0.8-1s0-0.5-0.5-1.7c-0.6-1.4-1-1.7-2.7-2.2c-1.5-0.4-2.3-0.6-2.7-0.2c-0.4,0.3-0.4,1-0.4,1s-1.1,1.5-1.9,3.8
			c-0.7,2.1-1.2,5.7-1.9,9.9c-0.7,4.3-1.6,10.2-1.6,10.2s-2.2,1.1-3.8,4c-1.6,2.8-1.7,7.2-0.4,10.6c0.5,1.4,1.5,2.5,2.5,3.3l0,0.1
			c-0.1,2.7,0.6,4,1,4.3l0,0.1C95.7,166.8,95.6,168.6,95.6,170.3L95.6,170.3z"/>
	</g>
	<path class="st0" d="M99.8,1.7c0,0-3,9.2-3.1,9.5c-0.3,0-10.5,0-10.5,0s8.3,6,8.5,6.2c-0.1,0.2-3.3,10-3.3,10s8.3-6,8.5-6.2
		c0.2,0.2,8.5,6.2,8.5,6.2s-3.2-9.8-3.3-10c0.2-0.2,8.5-6.2,8.5-6.2s-10.3,0-10.5,0c-0.1-0.2-3.3-10-3.3-10L99.8,1.7z"/>
	<path class="st3" d="M96.9,11.5H97c0,0,2.7-8.2,3-9.2c0.3,1,3,9.2,3,9.2s8.7,0,9.7,0c-0.8,0.6-7.8,5.7-7.8,5.7s2.7,8.2,3,9.2
		c-0.8-0.6-7.8-5.7-7.8-5.7s-7,5.1-7.8,5.7c0.3-1,3-9.2,3-9.2s-7-5.1-7.8-5.7C88.3,11.5,96.9,11.5,96.9,11.5z"/>
	<path class="st1" d="M86.5,188.8c2,5.5,7.3,9.5,13.5,9.5c6.2,0,11.5-4,13.5-9.5l0.1-0.1c3.2,0.1,9.5-2.7,15.2-3.7
		c6.1-1.2,9.7,0,11.2,0.4c1.5,0.4,2.7,0.3,2.9-0.3c0.2-0.6-0.5-1-0.5-1s1.6,0,4.3-0.7l-0.2,0.1c-4.8,3.5-10,6.4-15.5,8.7
		c-9.8,4.1-20.2,6.3-31,6.3c-10.7,0-21.2-2.1-31-6.3c-5.5-2.3-10.6-5.2-15.4-8.6l-0.4-0.3c2.7,0.6,4.3,0.7,4.3,0.7s-0.7,0.4-0.5,1
		c0.2,0.6,1.4,0.7,2.9,0.3c1.5-0.4,5-1.5,11.2-0.4c5.7,1.1,12,3.9,15.2,3.7L86.5,188.8z"/>
	<linearGradient id="SVGID_4_" gradientUnits="userSpaceOnUse" x1="71.3807" y1="175.4448" x2="38.8723" y2="175.4448">
		<stop  offset="0" style="stop-color:#FFFFFF"/>
		<stop  offset="5.760330e-02" style="stop-color:#FFFCE6"/>
		<stop  offset="0.1941" style="stop-color:#FFF7B1"/>
		<stop  offset="0.3324" style="stop-color:#FFF283"/>
		<stop  offset="0.4696" style="stop-color:#FFEF5D"/>
		<stop  offset="0.6056" style="stop-color:#FFEC40"/>
		<stop  offset="0.7401" style="stop-color:#FFEA2C"/>
		<stop  offset="0.8724" style="stop-color:#FFE81F"/>
		<stop  offset="1" style="stop-color:#FFE81B"/>
	</linearGradient>
	<path class="st4" d="M71.3,175.6c-1.6,1.1-7.8,5.2-11.4,7.4l-0.1,0.1c-0.6-0.2-1.7,0-3-0.2c-1.6-0.2-5.6-0.8-10.9-3.2
		c-3-1.3-5.3-2.6-7-3.7c6.2,0.2,12.3,0.1,12.4,0.1c1.8-0.1,1.6-0.8,0.9-1.8c-1.5-2.2-2.4-4.6-2.4-5.8c0-0.1,0-0.2,0-0.2
		c0-0.1,0-0.2,0.1-0.3c1.5,0.9,5.3,3.1,11.2,5.1C65.5,174.5,69.6,175.2,71.3,175.6L71.3,175.6z"/>
	<linearGradient id="SVGID_5_" gradientUnits="userSpaceOnUse" x1="128.6128" y1="175.4438" x2="161.1278" y2="175.4438">
		<stop  offset="0" style="stop-color:#FFFFFF"/>
		<stop  offset="5.760330e-02" style="stop-color:#FFFCE6"/>
		<stop  offset="0.1941" style="stop-color:#FFF7B1"/>
		<stop  offset="0.3324" style="stop-color:#FFF283"/>
		<stop  offset="0.4696" style="stop-color:#FFEF5D"/>
		<stop  offset="0.6056" style="stop-color:#FFEC40"/>
		<stop  offset="0.7401" style="stop-color:#FFEA2C"/>
		<stop  offset="0.8724" style="stop-color:#FFE81F"/>
		<stop  offset="1" style="stop-color:#FFE81B"/>
	</linearGradient>
	<path class="st5" d="M128.7,175.6c1.6,1.1,7.9,5.2,11.4,7.4l0.1,0.1c0.6-0.2,1.7,0,3-0.2c1.6-0.2,5.6-0.8,10.9-3.2
		c3-1.3,5.3-2.6,7-3.7c-6.2,0.2-12.3,0.1-12.4,0.1c-1.8-0.1-1.6-0.8-0.9-1.8c1.5-2.2,2.4-4.6,2.4-5.8c0-0.1,0-0.2,0-0.2
		c0-0.1,0-0.2-0.1-0.3c-1.5,0.9-5.3,3.1-11.2,5.1C134.5,174.5,130.3,175.2,128.7,175.6L128.7,175.6z"/>
	<path class="st3" d="M140.1,182.9c-3.5-2.1-9.7-6.3-11.4-7.4l-0.1,0c-0.1,0-0.2,0-0.3,0c-0.8,0.1-1.1,0.1-1.7-0.4
		c-0.2-0.2-0.4-0.4-0.5-0.5c-5.1,1.4-10.9,2.3-13.5,2.6l0.1,0.1c1,2,1.6,4.2,1.6,6.6c0,1.2-0.1,2.4-0.4,3.5l0,0.1
		c1.6,0,4.4-0.9,7-1.7c2.4-0.7,5.1-1.6,7.6-2c5.9-1.1,9.5-0.2,11.3,0.3c0,0,0.6,0.2,0.7,0.2c0,0-1.3-0.5-0.8-1
		c0.1-0.1,0.3-0.2,0.5-0.3L140.1,182.9z"/>
	<path class="st3" d="M71.3,175.6c-1.6,1.1-7.8,5.2-11.4,7.4l-0.1,0.1c0.2,0.1,0.3,0.1,0.4,0.3c0.5,0.5-0.8,1-0.8,1
		c0.1,0,0.7-0.2,0.7-0.2c1.7-0.4,5.4-1.4,11.3-0.3c2.5,0.5,5.2,1.3,7.6,2c2.6,0.8,5.3,1.6,6.9,1.7l0.1,0c-0.3-1.1-0.5-2.4-0.5-3.6
		c0-2.4,0.6-4.7,1.6-6.7l-0.1,0c-2.6-0.4-8.3-1.2-13.4-2.6c-0.1,0.1-0.3,0.3-0.5,0.5c-0.5,0.5-0.9,0.5-1.7,0.4
		C71.6,175.5,71.5,175.5,71.3,175.6L71.3,175.6z"/>
	<polygon class="st0" points="76.3,177.2 76,178.5 77.2,178.6 76.2,183.5 77.6,183.8 78.8,177.7 	"/>
	<path class="st0" d="M80.9,182.7c0,0,0.1,0.9,1.2,0.7c0.8-0.1,1.1-1.4,1.1-1.4c-1.5,0.9-3.5-0.1-3.5-1.6c0-1.5,1.1-2.4,2.8-2.1
		c1.4,0.2,2.3,1.3,1.9,3.5c-0.4,2.3-1.6,2.9-3,2.7c-1-0.2-1.8-0.6-2-1.7L80.9,182.7z M82.3,179.4c-0.6-0.1-1.1,0.2-1.2,0.8
		c-0.1,0.5,0.3,1,0.9,1.1c0.6,0.1,1.1-0.2,1.2-0.8C83.3,180,82.9,179.5,82.3,179.4z"/>
	<path class="st0" d="M117.3,183.3l2.8-0.5l0.2,1.3l-4.8,0.8c0,0-0.3-1.4,0.8-2.7c1-1.2,2-1.7,1.7-2.5c-0.2-0.5-1.1-0.4-1.4,0.1
		c-0.3,0.4-0.3,0.9-0.3,0.9l-1.4,0.1c0,0,0-1.9,1.8-2.4c1.5-0.4,2.4,0.3,2.7,1.1c0.3,0.9-0.2,1.6-0.8,2.2
		C117.6,182.7,117.3,183.3,117.3,183.3z"/>
	<path class="st0" d="M123,182.3l2.8-0.6l0.3,1.3l-4.7,1c0,0-0.3-1.4,0.7-2.7c0.9-1.2,2-1.7,1.5-2.5c-0.3-0.5-1.2-0.3-1.4,0.1
		c-0.3,0.4-0.2,0.9-0.2,0.9l-1.4,0.2c0,0-0.1-1.9,1.7-2.5c1.4-0.5,2.4,0.2,2.7,1c0.4,0.9-0.1,1.7-0.7,2.2
		C123.2,181.7,123,182.3,123,182.3z"/>
	<path class="st1" d="M96.2,170.1c1.2-0.3,2.5-0.5,3.8-0.5c0.5,0,1.1,0,1.6,0.1l0-0.1c-0.1-1.5-0.2-3-0.2-3.5l0,0
		c-0.5-0.4-0.8-1.7-0.8-3.1l0,0c-1.3,0.3-2.5,0.3-3.5,0l0,0.1c0,0.4,0,1.3-0.2,2c-0.1,0.4-0.2,0.7-0.4,0.9l0,0L96.2,170.1
		L96.2,170.1z"/>
	<path class="st3" d="M27,144.6h20.6l-0.1-0.1c-0.5-1-1-2.1-1.4-3.1c-3.1-7.2-4.6-14.9-4.6-22.8c0-7.9,1.5-15.6,4.6-22.8
		c2.9-7,7.2-13.2,12.5-18.6c5.4-5.4,11.6-9.6,18.6-12.5C84.4,61.5,92.1,60,100,60c7.9,0,15.6,1.5,22.8,4.6c7,2.9,13.2,7.2,18.6,12.5
		c5.4,5.4,9.6,11.6,12.5,18.6c3.1,7.2,4.6,14.9,4.6,22.8c0,7.9-1.5,15.6-4.6,22.8c-0.4,1-0.9,2.1-1.4,3.1l-0.1,0.2H173l0,0
		c2.8-8,4.3-16.6,4.3-25.6c0-42.7-34.6-77.3-77.3-77.3c-42.7,0-77.3,34.6-77.3,77.3C22.7,127.9,24.2,136.5,27,144.6L27,144.6z"/>
	<path class="st0" d="M36.3,122.9l-2.9,2.9l-2.9-2.9l5.8,12.8l-2.9-2.9l-2.9,2.9L36.3,122.9z M27,126.3l2.9,2.9l-2.9,2.9l12.8-5.8
		l-2.9,2.9l2.9,2.9L27,126.3z"/>
	<path class="st0" d="M169.5,135.6l-2.9-2.9l-2.9,2.9l5.8-12.8l-2.9,2.9l-2.9-2.9L169.5,135.6z M173,126.3l-2.9,2.9l2.9,2.9
		l-12.8-5.8l2.9,2.9l-2.9,2.9L173,126.3z"/>
	<path class="st0" d="M47.6,144.6c-0.2-1.8-0.4-3.7-0.4-5.5c0-7,1.1-13.5,3.3-19.1c2.2-5.7,5.6-10.7,9.9-14.8
		c4.5-4.1,10-7.3,16.5-9.5c6.7-2.2,14.5-3.4,23-3.4c8.6,0,16.3,1.1,23,3.4c6.5,2.2,12,5.4,16.5,9.5c4.4,4.1,7.7,9,9.9,14.8
		c2.2,5.7,3.3,12.1,3.3,19.1c0,1.8-0.1,3.7-0.4,5.5l0.1-0.2c0.5-1,1-2,1.4-3.1c3.1-7.2,4.6-14.9,4.6-22.8c0-7.9-1.5-15.6-4.6-22.8
		c-2.9-7-7.2-13.2-12.5-18.6c-5.4-5.4-11.6-9.6-18.6-12.5c-7.2-3.1-14.9-4.6-22.8-4.6c-7.9,0-15.6,1.5-22.8,4.6
		c-7,2.9-13.2,7.2-18.6,12.5c-5.4,5.4-9.6,11.6-12.5,18.6c-3.1,7.2-4.6,14.9-4.6,22.8c0,7.9,1.5,15.6,4.6,22.8
		c0.4,1.1,0.9,2.1,1.4,3.1L47.6,144.6z"/>
	<path class="st0" d="M114.8,46.3l3.4,0.8c1.2,0.3,2,0.8,2.5,1.5c0.5,0.8,0.6,1.9,0.3,3.1c-0.3,1.3-0.9,2.1-1.8,2.6
		c-0.5,0.3-1,0.4-1.5,0.3c-0.4,0-0.9-0.1-1.4-0.2c0,0-0.5-0.1-0.8-0.2c-0.2,0.6-1.1,4.5-1.1,4.5l-2.5-0.6L114.8,46.3z M116,52
		c0.2,0.1,0.4,0.1,0.4,0.1c0.7,0.2,1.1,0.1,1.3,0.1c0.3-0.1,0.5-0.5,0.6-1c0.1-0.2,0.1-0.4,0.1-0.6c0-0.3-0.1-0.5-0.2-0.6
		c-0.1-0.1-0.4-0.3-1.1-0.5c0,0-0.2-0.1-0.4-0.1C116.6,49.8,116.2,51.5,116,52z"/>
	<path class="st0" d="M124.7,49.2l2.9,1.1l-2,12.3l-2.5-1c0,0,0.3-2,0.4-2.5c-0.4-0.1-1.5-0.6-1.8-0.7c-0.3,0.4-1.4,2.1-1.4,2.1
		l-2.4-0.9L124.7,49.2z M123.1,56.4c0.3,0.1,0.6,0.2,1,0.4c0.1-0.4,0.3-1.5,0.5-2.8C123.9,55.1,123.3,56,123.1,56.4z"/>
	<path class="st0" d="M135.1,53.6c1.1,0.6,1.8,1.5,1.9,2.5c0,0.2,0,0.3,0,0.5c0,0.4-0.1,0.7-0.2,1.1c-0.1,0.4-0.3,0.9-0.6,1.4
		l-2,3.7c-0.4,0.8-0.8,1.3-1.3,1.7c-1.1,1-2.5,1-4,0.2c-1.1-0.6-1.8-1.5-1.9-2.5c-0.1-0.5,0-1.1,0.1-1.6c0.1-0.4,0.3-0.9,0.6-1.3
		l2-3.7c0.4-0.8,0.8-1.3,1.3-1.7C132.2,52.8,133.6,52.8,135.1,53.6z M131.2,62.5c0.2-0.1,0.3-0.3,0.4-0.4c0.1-0.2,0.3-0.4,0.4-0.7
		l2-3.6c0.3-0.6,0.4-0.8,0.5-1c0.1-0.5,0-0.9-0.5-1.2c-0.5-0.3-0.8-0.2-1,0c-0.2,0.1-0.3,0.3-0.4,0.4c-0.1,0.2-0.3,0.4-0.4,0.7
		l-2,3.6c-0.3,0.6-0.4,0.8-0.4,0.9c-0.1,0.5,0,0.9,0.5,1.2C130.7,62.8,131,62.6,131.2,62.5z"/>
	<path class="st0" d="M133,66.6l5.1,3.7l1.4-1.9c0,0-2.5-1.8-3-2.2c0.4-0.6,5.7-8,5.7-8l-2.1-1.5L133,66.6z"/>
	<path class="st0" d="M148.7,63.3l2.3,2.1l-6.4,10.7l-2-1.8c0,0,1.1-1.8,1.3-2.2c-0.3-0.3-1.1-1.1-1.4-1.3c-0.4,0.3-2,1.5-2,1.5
		l-1.9-1.7L148.7,63.3z M144.5,69.4c0.3,0.3,0.5,0.5,0.8,0.7c0.2-0.4,0.8-1.3,1.5-2.4C145.7,68.5,144.9,69.1,144.5,69.4z"/>
	<path class="st0" d="M147.1,78.9l1.5,2c0,0,2.7-1.9,4.7-3.4c-1.7,2-3.9,4.5-3.9,4.5l0.9,1.3c0,0,3.2-1.3,5.6-2.2
		c-2,1.5-4.7,3.4-4.7,3.4l1.5,2l9.9-7.1l-1.9-2.7c0,0-3.9,1.6-5.7,2.3c1.3-1.5,4-4.6,4-4.6l-2-2.7L147.1,78.9z"/>
	<path class="st0" d="M164.9,83.7l1.4,2.8l-9.7,7.9l-1.2-2.4c0,0,1.6-1.3,2-1.6c-0.2-0.4-0.7-1.4-0.9-1.8c-0.5,0.1-2.4,0.7-2.4,0.7
		l-1.2-2.3L164.9,83.7z M158.8,87.9c0.2,0.3,0.3,0.6,0.5,0.9c0.3-0.3,1.2-0.9,2.2-1.8C160.3,87.5,159.2,87.8,158.8,87.9z"/>
	<path class="st0" d="M156.9,95.1l2.2,5.9l2.2-0.8c0,0-1.1-2.9-1.3-3.5c0.6-0.2,9.2-3.4,9.2-3.4l-0.9-2.4L156.9,95.1z"/>
	<path class="st0" d="M168.2,97.5c0,0,0.4,1.8,0.6,2.3c-0.7,0.2-9.5,2.4-9.5,2.4l0.6,2.5c0,0,8.9-2.2,9.5-2.4
		c0.1,0.5,0.6,2.3,0.6,2.3l2.3-0.6l-1.8-7L168.2,97.5z"/>
	<path class="st0" d="M160.3,106.3l12.4,0.8l0.4,3.1l-11.8,4.2l-0.4-2.6c0,0,2-0.7,2.4-0.8c-0.1-0.4-0.2-1.5-0.3-1.9
		c-0.5,0-2.5-0.2-2.5-0.2L160.3,106.3z M165.8,110.1c0.4-0.1,1.4-0.5,2.7-0.9c-1.3-0.1-2.4-0.1-2.8-0.1
		C165.7,109.5,165.7,109.8,165.8,110.1z"/>
	<path class="st1" d="M115.2,53.8l-1.1,4.5l-1.8-0.5l2.8-11.1l3,0.8c1.1,0.3,1.9,0.7,2.3,1.3c0.5,0.7,0.6,1.7,0.3,2.8
		c-0.3,1.2-0.8,1.9-1.6,2.4c-0.4,0.2-0.9,0.3-1.3,0.3c-0.4,0-0.8-0.1-1.3-0.2L115.2,53.8z M115.6,52.2l0.8,0.2
		c0.7,0.2,1.2,0.2,1.5,0.1c0.4-0.2,0.7-0.6,0.9-1.3c0.2-0.7,0.1-1.2-0.2-1.5c-0.2-0.3-0.7-0.5-1.3-0.7l-0.8-0.2L115.6,52.2z"/>
	<path class="st1" d="M124,58.9l-2.4-0.9l-1.4,2.1l-1.7-0.7l6.3-9.9l2.4,0.9l-1.9,11.6l-1.8-0.7L124,58.9z M124.3,57.3l0.9-5.1
		l-2.8,4.4L124.3,57.3z"/>
	<path class="st1" d="M135.9,58.8l-2,3.7c-0.4,0.7-0.8,1.3-1.2,1.6c-1,0.9-2.2,0.9-3.5,0.2c-1-0.6-1.6-1.3-1.8-2.2
		c-0.1-0.5,0-1,0.1-1.4c0.1-0.4,0.3-0.8,0.6-1.3l2-3.7c0.4-0.7,0.8-1.3,1.2-1.6c1-0.9,2.2-0.9,3.6-0.2c1,0.6,1.6,1.3,1.8,2.2
		c0.1,0.5,0,1-0.1,1.4C136.4,58,136.2,58.4,135.9,58.8z M131.8,56.6l-2,3.6c-0.3,0.5-0.4,0.8-0.5,1c-0.2,0.7,0,1.2,0.7,1.6
		c0.5,0.3,0.9,0.3,1.3,0c0.2-0.1,0.4-0.3,0.5-0.5c0.1-0.2,0.3-0.4,0.4-0.7l2-3.6c0.3-0.5,0.4-0.8,0.5-1c0.2-0.7,0-1.2-0.7-1.6
		c-0.5-0.3-1-0.3-1.3,0c-0.2,0.1-0.4,0.3-0.5,0.5C132.1,56.1,131.9,56.3,131.8,56.6z"/>
	<path class="st1" d="M141.6,58.3l-5.7,8l3,2.2l-1,1.3l-4.6-3.2l6.7-9.3L141.6,58.3z"/>
	<path class="st1" d="M144.5,72.1l-1.9-1.7l-2,1.5l-1.3-1.2l9.5-6.9l1.9,1.7l-6,10.1l-1.4-1.3L144.5,72.1z M145.4,70.7l2.7-4.4
		l-4.2,3.1L145.4,70.7z"/>
	<path class="st1" d="M162.1,79.4l-9.3,6.7l-1-1.4l6.8-4.9l-8.1,3.2l-0.6-0.8l5.6-6.6l-6.8,4.9l-1-1.4l9.3-6.7l1.6,2.2l-4.9,5.6
		l6.8-2.8L162.1,79.4z"/>
	<path class="st1" d="M157.8,90.5l-1.2-2.3l-2.4,0.7l-0.8-1.6l11.3-3.2l1.2,2.3l-9.1,7.4l-0.9-1.7L157.8,90.5z M159.2,89.4l4.1-3.2
		l-5,1.5L159.2,89.4z"/>
	<path class="st1" d="M168.7,93.2l-9.2,3.4l1.3,3.5l-1.6,0.6l-1.9-5.2l10.8-3.9L168.7,93.2z"/>
	<path class="st1" d="M169.6,101.8l-9.5,2.4l-0.5-1.8l9.5-2.4l-0.6-2.3l1.6-0.4l1.6,6.3l-1.6,0.4L169.6,101.8z"/>
	<path class="st1" d="M163.9,111.2l-0.3-2.5l-2.5-0.2l-0.2-1.8l11.7,0.8l0.3,2.5l-11,3.9l-0.3-1.9L163.9,111.2z M165.5,110.6
		l4.9-1.7l-5.2-0.3L165.5,110.6z"/>
	<path class="st0" d="M27.1,108c0,0,4.1,0.5,4.7,0.6c-0.1,0.5-0.2,1.4-0.2,1.9c-0.6-0.1-4.7-0.6-4.7-0.6l-0.3,2.6l12.1,1.6l0.3-2.6
		c0,0-4.4-0.6-5-0.6c0.1-0.5,0.2-1.4,0.2-1.9c0.6,0.1,5,0.6,5,0.6l0.3-2.6l-12.1-1.6L27.1,108z"/>
	<rect x="33" y="97.1" transform="matrix(0.2264 -0.974 0.974 0.2264 -73.9941 113.1765)" class="st0" width="2.6" height="12.2"/>
	<path class="st0" d="M34.6,92.5c0.8,0.3,1.4,0.8,1.7,1.4c0.1,0.2,0.2,0.4,0.2,0.7c0.2-0.2,0.4-0.4,0.6-0.5c0.7-0.4,1.6-0.5,2.6-0.2
		c1.1,0.4,1.8,1,2.2,1.9c0.4,0.8,0.3,1.8,0,3l-1.1,3.2l-11.5-3.9l1-3c0.4-1.1,0.9-1.9,1.6-2.3C32.6,92.2,33.5,92.1,34.6,92.5z
		 M32.3,96.4c0.5,0.2,1.7,0.6,2.2,0.7c0-0.1,0.1-0.3,0.1-0.3c0.1-0.2,0.1-0.5,0.1-0.7c0-0.2,0-0.4-0.1-0.5c-0.1-0.3-0.4-0.5-0.7-0.6
		c-0.3-0.1-0.6-0.1-0.8,0.1c-0.2,0.1-0.4,0.5-0.6,1C32.4,96.1,32.3,96.2,32.3,96.4z M36.7,97.9c0.5,0.2,2.1,0.7,2.6,0.9
		c0.1-0.3,0.2-0.5,0.2-0.5c0.1-0.3,0.1-0.5,0.1-0.7c0-0.2,0-0.3-0.1-0.5c-0.1-0.3-0.4-0.5-0.7-0.6c-0.4-0.1-0.8-0.1-1.2,0.1
		c-0.4,0.2-0.7,0.6-0.9,1.1C36.8,97.6,36.7,97.8,36.7,97.9z"/>
	<path class="st0" d="M32.6,88.9l11,5.3l2.7-5.6l-2.1-1c0,0-1.3,2.7-1.6,3.2c-0.5-0.2-2-1-2.5-1.2c0.2-0.5,1.2-2.4,1.2-2.4l-2.1-1
		c0,0-0.9,1.9-1.2,2.4c-0.4-0.2-1.6-0.8-2-1c0.3-0.5,1.6-3.2,1.6-3.2l-2.1-1L32.6,88.9z"/>
	<path class="st0" d="M43.2,77.5c1.2,0.8,1.8,1.8,1.8,2.9c0,0,0,0.1,0,0.1c0.5,0.1,5.5,1.4,5.5,1.4l-1.5,2.3c0,0-4.4-1.1-4.8-1.2
		c-0.1,0.1-0.1,0.2-0.3,0.4c0.5,0.3,3.9,2.6,3.9,2.6l-1.4,2.2l-10.2-6.6l1.8-2.8c0.6-0.9,1.3-1.5,2.1-1.8
		C41.1,76.6,42.2,76.8,43.2,77.5z M39.7,80.6c0.4,0.3,1.9,1.2,2.3,1.5c0.1-0.1,0.2-0.3,0.2-0.3c0.3-0.5,0.4-0.8,0.4-0.9
		c0,0,0-0.1,0-0.2c0-0.2-0.1-0.6-0.8-1c-0.4-0.3-0.8-0.4-1.1-0.3c-0.2,0-0.3,0.1-0.4,0.3c-0.1,0.2-0.3,0.4-0.5,0.6
		C39.9,80.3,39.8,80.4,39.7,80.6z"/>
	<path class="st0" d="M44.9,69.7c0,0,2.8,2.4,4.3,3.7c-2-0.6-6-1.8-6-1.8l-1.6,1.9l9.3,7.9l1.6-1.9c0,0-3.1-2.7-4.7-4
		c2.1,0.7,6.4,2,6.4,2l1.5-1.7l-9.3-7.9L44.9,69.7z"/>
	
		<rect x="52.1" y="63.5" transform="matrix(0.7239 -0.6899 0.6899 0.7239 -33.2869 56.0934)" class="st0" width="2.6" height="12.2"/>
	<path class="st0" d="M56,59.5l9.6,8l-2.1,1.6c0,0-1.6-1.3-1.9-1.7c-0.3,0.2-1.2,1-1.6,1.2c0.2,0.4,1.2,2.3,1.2,2.3l-2,1.6
		l-5.6-11.1L56,59.5z M58.8,66.6c0.3-0.2,0.5-0.4,0.8-0.7c-0.3-0.3-1.1-1-2.1-1.9C58.1,65.2,58.6,66.2,58.8,66.6z"/>
	<path class="st0" d="M64.1,54.2c0,0,1.9,3.2,2.9,4.9c-1.7-1.3-5-3.7-5-3.7l-2.1,1.2L66,67.3l2.2-1.3c0,0-2.1-3.6-3.1-5.4
		c1.8,1.3,5.4,4,5.4,4l2-1.1L66.3,53L64.1,54.2z"/>
	<path class="st0" d="M71.8,50.3c-0.9,0.4-1.5,0.9-1.9,1.6c-0.5,0.8-0.5,1.7-0.1,2.7c0.4,0.9,1.2,1.6,2.3,2c0.2,0.1,0.9,0.3,2,0.6
		c0.7,0.2,1.3,0.4,1.6,0.5c0.3,0.2,0.6,0.4,0.7,0.7c0.1,0.3,0.1,0.5,0,0.7c-0.1,0.2-0.3,0.4-0.6,0.5c-0.5,0.2-1.2,0.3-2.1-1
		l-0.2-0.3l-2,1.6l0.2,0.3c1.3,2,3,2.6,5.1,1.7c1-0.4,1.7-1,2.1-1.9c0.4-0.8,0.4-1.7,0-2.6c-0.3-0.8-0.9-1.4-1.7-1.8
		c-0.5-0.2-1.2-0.5-2.3-0.8c-1.2-0.3-1.7-0.5-1.9-0.5c-0.4-0.2-0.6-0.4-0.7-0.7c-0.1-0.2-0.1-0.4,0-0.6c0.1-0.2,0.2-0.3,0.5-0.4
		c0.2-0.1,0.8-0.3,1.7,0.9l0.2,0.3l2-1.6l-0.2-0.3C75.1,50.1,73.5,49.6,71.8,50.3z"/>
	<path class="st0" d="M82.1,47L84.6,59l2.5-0.5c0,0-0.9-4.4-1-5c0.5-0.1,2.6-0.6,2.6-0.6l-0.5-2.3c0,0-2.1,0.4-2.6,0.6
		c-0.1-0.5-0.4-1.8-0.5-2.3c0.6-0.1,3.6-0.7,3.6-0.7l-0.5-2.3L82.1,47z"/>
	<rect x="91.5" y="55" transform="matrix(0.9934 -0.1151 0.1151 0.9934 -5.8567 11.0477)" class="st0" width="2.5" height="2.6"/>
	<path class="st0" d="M98.7,44.7c-0.7,0-1.3,0.1-1.8,0.4c-0.8,0.4-1.3,1-1.6,1.9c-0.2,0.5-0.2,1.3-0.2,2.4l0.1,3.2
		c0,0.6,0,1.2,0.1,1.6c0.1,0.6,0.3,1.1,0.6,1.6c0.6,0.9,1.7,1.4,3,1.4c1.3,0,2.3-0.5,2.9-1.3c0.5-0.7,0.7-1.7,0.7-2.9l0-0.8l-2.6,0
		l0,0.7l0,0c0,0.8-0.1,1.4-0.4,1.7c-0.2,0.2-0.4,0.2-0.6,0.2c-0.6,0-0.8-0.3-0.9-0.5c-0.1-0.2-0.2-0.6-0.2-1.6L97.8,49
		c0-0.3,0-0.6,0-0.9c0-0.2,0.1-0.4,0.2-0.6c0.1-0.2,0.3-0.4,0.8-0.4c0.3,0,0.5,0.1,0.7,0.2c0.3,0.2,0.4,0.7,0.4,1.4c0,0,0,0.6,0,0.6
		l2.6,0l0-0.7c0-1.2-0.4-2.2-1-2.9C100.7,45,99.8,44.7,98.7,44.7z"/>
	
		<rect x="104" y="54.8" transform="matrix(8.226183e-02 -0.9966 0.9966 8.226183e-02 40.7436 156.3174)" class="st0" width="2.6" height="2.5"/>
	<path class="st1" d="M33.9,108.5l-0.3,2.6l5,0.6l-0.2,1.8L27,112.2l0.2-1.8l4.7,0.6l0.3-2.6l-4.7-0.6l0.2-1.8l11.4,1.5l-0.2,1.8
		L33.9,108.5z"/>
	<path class="st1" d="M28.9,101l11.2,2.6l-0.4,1.8l-11.2-2.6L28.9,101z"/>
	<path class="st1" d="M40.5,101.6l-10.9-3.7l0.9-2.6c0.3-1,0.8-1.7,1.5-2.2c0.7-0.5,1.5-0.6,2.4-0.3c0.7,0.2,1.2,0.7,1.5,1.2
		c0.2,0.4,0.3,0.9,0.2,1.5c0.4-0.5,0.7-0.9,1.1-1.1c0.6-0.4,1.4-0.4,2.3-0.1c1,0.3,1.6,0.9,2,1.7c0.3,0.8,0.3,1.7-0.1,2.7
		L40.5,101.6z M34.7,97.6l0.2-0.6c0.2-0.5,0.2-1,0-1.4c-0.2-0.4-0.5-0.7-0.9-0.8c-0.4-0.1-0.8-0.1-1.1,0.1C32.5,95,32.2,95.4,32,96
		l-0.2,0.7L34.7,97.6z M39.5,99.3l0.3-0.9c0.2-0.6,0.2-1.1,0-1.5c-0.2-0.4-0.5-0.7-0.9-0.8c-0.5-0.2-1-0.1-1.4,0.1
		c-0.5,0.2-0.8,0.7-1,1.3l-0.2,0.6L39.5,99.3z"/>
	<path class="st1" d="M35.4,83.8l1.5,0.7l-1.6,3.2l2.7,1.3l1.2-2.4l1.5,0.7l-1.2,2.4l3.2,1.5l1.6-3.2l1.5,0.7l-2.4,4.9l-10.3-5
		L35.4,83.8z"/>
	<path class="st1" d="M43.5,83.5l3.9,2.6l-1,1.6l-9.6-6.2l1.6-2.5c0.6-0.9,1.2-1.4,1.9-1.6c0.9-0.3,1.8-0.1,2.8,0.5
		c1.2,0.8,1.8,1.8,1.6,3l5.3,1.3l-1.1,1.6l-4.8-1.2L43.5,83.5z M42.1,82.6l0.4-0.6c0.3-0.4,0.4-0.8,0.5-1c0.1-0.6-0.2-1.1-0.9-1.6
		c-0.5-0.3-1-0.5-1.4-0.4c-0.2,0.1-0.4,0.2-0.6,0.4c-0.1,0.2-0.3,0.4-0.5,0.7l-0.4,0.6L42.1,82.6z"/>
	<path class="st1" d="M46.5,68.3l8.7,7.5l-1.1,1.3l-7.9-2.5l5.8,5l-1.1,1.3l-8.7-7.5l1.2-1.4l7.4,2.3l-5.4-4.6L46.5,68.3z"/>
	<path class="st1" d="M50.2,64.8l7.9,8.3l-1.3,1.3l-7.9-8.3L50.2,64.8z"/>
	<path class="st1" d="M61.5,67l-2,1.6l1.2,2.3L59.2,72L54,61.5l2-1.6l9,7.5l-1.5,1.2L61.5,67z M60.2,65.9l-3.9-3.4l2.4,4.6
		L60.2,65.9z"/>
	<path class="st1" d="M66.1,53.5l5.8,9.9l-1.4,0.8l-6.7-4.9l3.8,6.6l-1.5,0.9l-5.8-9.9l1.6-0.9l6.2,4.6l-3.6-6.2L66.1,53.5z"/>
	<path class="st1" d="M76.1,52l-1.5,1.1c-0.7-0.9-1.4-1.3-2.1-1c-0.3,0.1-0.5,0.3-0.7,0.6c-0.1,0.3-0.1,0.6,0,0.9
		c0.2,0.4,0.5,0.7,0.9,0.9c0.3,0.1,0.9,0.3,2,0.6c1,0.3,1.8,0.5,2.3,0.7c0.7,0.4,1.2,0.9,1.5,1.7c0.3,0.8,0.3,1.5,0,2.3
		c-0.3,0.7-1,1.3-1.9,1.7c-1.9,0.8-3.4,0.3-4.6-1.6l1.5-1.1c0.8,1.2,1.6,1.6,2.5,1.2c0.4-0.2,0.7-0.4,0.8-0.7c0.1-0.3,0.1-0.7,0-1
		c-0.2-0.4-0.4-0.7-0.9-0.8c-0.3-0.2-0.9-0.3-1.7-0.5c-1.1-0.3-1.8-0.5-2-0.5c-1.1-0.4-1.8-1-2.1-1.8c-0.3-0.8-0.3-1.6,0.1-2.4
		c0.4-0.6,0.9-1.1,1.7-1.4C73.5,50,74.9,50.5,76.1,52z"/>
	<path class="st1" d="M85.7,53.2l1,5l-1.8,0.4l-2.3-11.2l5.4-1.1l0.3,1.6l-3.6,0.7l0.6,3L88,51l0.3,1.6L85.7,53.2z"/>
	<path class="st1" d="M93.5,55.2l0.2,1.8L92,57.2l-0.2-1.8L93.5,55.2z"/>
	<path class="st1" d="M102.1,48.9l-1.9,0c0-0.1,0-0.2,0-0.2c0-1.3-0.5-2-1.5-2c-0.5,0-0.9,0.2-1.1,0.6c-0.1,0.2-0.2,0.5-0.2,0.8
		c0,0.3,0,0.6,0,0.9l0.1,3.8c0,0.8,0.1,1.4,0.2,1.7c0.2,0.5,0.6,0.7,1.2,0.7c1,0,1.4-0.8,1.4-2.3c0-0.1,0-0.2,0-0.3l1.9,0
		c0,0.2,0,0.3,0,0.4c0,1.1-0.2,2-0.7,2.6c-0.5,0.8-1.4,1.2-2.6,1.2c-1.3,0-2.2-0.4-2.7-1.2c-0.3-0.4-0.5-0.9-0.5-1.5
		c-0.1-0.4-0.1-1-0.1-1.6l-0.1-3.2c0-1.1,0-1.9,0.2-2.3c0.2-0.8,0.7-1.3,1.4-1.7c0.5-0.2,1-0.4,1.6-0.4c1,0,1.8,0.3,2.4,0.9
		c0.6,0.6,0.9,1.5,0.9,2.6C102.1,48.7,102.1,48.8,102.1,48.9z"/>
	<path class="st1" d="M106.2,55.2L106,57l-1.8-0.1l0.2-1.8L106.2,55.2z"/>
	<path class="st1" d="M61,104V75.6l0-0.3c3-2.7,6.3-5.1,9.7-7.1l0,0.2v29.3l0,0.2c-3.6,1.8-6.9,3.9-9.7,6.4L61,104z"/>
	<path class="st1" d="M80.5,94.3V63.8l0-0.2c3.2-1.1,6.4-2,9.7-2.5l0,0.1v31.3l-0.1,0C86.8,92.9,83.6,93.5,80.5,94.3L80.5,94.3z"/>
	<path class="st1" d="M47.1,142.7c-0.2-0.5-0.5-1-0.7-1.6c-3-7.2-4.6-14.8-4.6-22.6c0-7.9,1.5-15.5,4.6-22.6c1.4-3.2,3-6.3,4.9-9.1
		l0,0.3v30.4l-0.1,0.2c-0.3,0.7-0.6,1.4-0.9,2.1c-2.2,5.7-3.3,12.2-3.3,19.2c0,1.1,0,2.2,0.1,3.2L47.1,142.7z"/>
	<path class="st1" d="M157.9,113.1c-0.7-1.6-1.7-3.6-3-6c-2.8-4.8-7.7-11.8-15.4-17.6c-4-3-7.7-5.3-11.6-7.2l0,0v8.8l0,0
		c-1.1-0.4-2.2-0.9-3.4-1.3c-1.6-0.5-3.3-1-5-1.4l0-0.1v-9.3l0,0c-1.3-0.4-2.7-0.8-4.1-1.1c-7.2-1.8-13.5-1.8-15.4-1.8l0-0.1v-7.5
		l0.1,0c2,0,8.8,0.1,16.3,2.3c1,0.3,2.1,0.6,3.1,0.9l0-0.1v-8.1l0,0c1.1,0.4,2.1,0.8,3.1,1.2c1.8,0.8,3.5,1.6,5.2,2.5l0,0.1v7.7
		l0.1,0c5.1,2.5,9.6,5.5,13.8,9.3c6.2,5.6,10.5,12.1,12.9,16.5c0.7,1.3,1.3,2.5,1.8,3.5l0.1,0.3c0.6,2.6,1.1,5.3,1.3,8L157.9,113.1z
		"/>
	<path class="st6" d="M153.6,141c0-0.7,0.1-1.4,0.1-2.1c0-7.1-1.1-13.7-3.4-19.5c-2.3-5.9-5.7-10.9-10.2-15.1
		c-4.6-4.2-10.2-7.5-16.8-9.7c-6.8-2.3-14.6-3.4-23.2-3.4l-0.1,0v-3.8l0.1,0c8.9,0,17,1.2,24.1,3.6c7,2.4,13.1,5.9,18,10.5
		c8.2,7.7,13.1,18.4,14.3,31.1l0,0.2C155.7,135.6,154.8,138.4,153.6,141L153.6,141z M107.1,89.7c0,0.9,0.8,1.7,1.7,1.7
		c0.9,0,1.7-0.8,1.7-1.7c0-0.9-0.8-1.7-1.7-1.7C107.8,88,107.1,88.8,107.1,89.7z M121.5,92.6c0,0.9,0.8,1.7,1.7,1.7
		c0.9,0,1.7-0.8,1.7-1.7c0-0.9-0.8-1.7-1.7-1.7C122.2,90.9,121.5,91.7,121.5,92.6z M135.4,99.6c0,0.9,0.8,1.7,1.7,1.7
		c0.9,0,1.7-0.8,1.7-1.7c0-0.9-0.8-1.7-1.7-1.7C136.1,97.8,135.4,98.6,135.4,99.6z"/>
	<path class="st7" d="M119.2,71.5c-0.9-0.3-1.8-0.5-2.6-0.8c-7.6-2.2-14.4-2.3-16.4-2.3l-0.1,0v-8c6.6,0,13.1,1.1,19.2,3.3l0,0
		L119.2,71.5L119.2,71.5z"/>
	<path class="st7" d="M119.2,88.4c-5.8-1.4-12.3-2.1-19.1-2.2l-0.1,0v-9.7l0-0.1c1.9,0,8.2,0.1,15.4,1.8c1.3,0.3,2.6,0.7,3.9,1l0,0
		L119.2,88.4L119.2,88.4z"/>
	<path class="st7" d="M156.2,103.4c-0.4-0.8-0.8-1.6-1.3-2.4c-2.5-4.5-6.7-11-13-16.6c-4.2-3.8-8.7-6.8-13.8-9.3l-0.1,0v-7.4l0-0.1
		c4.8,2.6,9.1,5.9,13,9.8c5.3,5.3,9.5,11.6,12.5,18.5c1,2.4,1.9,4.8,2.5,7.3L156.2,103.4z"/>
	<path class="st7" d="M157.1,129.8c-1.6-11.8-6.4-21.8-14.3-29.2c-4.1-3.9-9-7-14.6-9.3l-0.1,0v-8.5l0-0.1c3.8,1.8,7.4,4.1,11.2,7
		c7.7,5.8,12.6,12.7,15.3,17.5c1.6,2.7,2.6,5.1,3.3,6.7l0,0.2c0.1,1.4,0.2,2.9,0.2,4.4c0,3.8-0.4,7.5-1.1,11.2L157.1,129.8z"/>
	<path class="st1" d="M156.7,131.5c-1.4-12.3-6.2-22.7-14.3-30.3c-4.9-4.6-11-8.2-18.1-10.6c-7.1-2.4-15.3-3.6-24.2-3.6l-0.1,0v-0.4
		l0.1,0c9,0,17.2,1.2,24.3,3.7c7.1,2.4,13.2,6,18.2,10.6c8,7.5,12.8,17.7,14.3,29.8l0,0.1c0,0.2-0.1,0.4-0.1,0.5L156.7,131.5z"/>
	<path class="st1" d="M152.9,142.7c0.1-1.2,0.2-2.4,0.2-3.7c0-7.1-1.1-13.5-3.3-19.2c-2.2-5.8-5.6-10.8-10-14.9
		c-4.5-4.2-10.1-7.4-16.6-9.6c-6.7-2.2-14.5-3.4-23-3.4H100v-0.4l0.1,0c8.6,0,16.4,1.1,23.1,3.4c6.6,2.2,12.2,5.4,16.7,9.6
		c4.4,4.1,7.8,9.1,10.1,15c2.2,5.7,3.4,12.3,3.4,19.3c0,1.1,0,2.1-0.1,3.2l-0.1,0.1c-0.1,0.1-0.1,0.3-0.2,0.4L152.9,142.7z"/>
	<circle class="st1" cx="108.8" cy="89.7" r="1.4"/>
	<circle class="st1" cx="123.2" cy="92.6" r="1.4"/>
	<circle class="st1" cx="137.1" cy="99.6" r="1.4"/>
	<path class="st1" d="M105,173l-2.6-2.8l0,0c0,0-0.1,0-0.1,0l0,0.1c0.1,1.6,0.2,2.9,0.2,3.2l0,0c0.3,0.2,0.6,0.3,0.8,0.5
		c0.1,0.1,0.3,0.2,0.4,0.3L105,173z"/>
	<path class="st1" d="M103.3,174.6c-0.3-0.2-0.6-0.4-0.8-0.5l0,0c0,0.4,0.1,0.8,0.1,1.2L103.3,174.6z"/>
	<path class="st1" d="M100.5,175.3c0.2-0.2,0.8-0.8,1.4-1.2l0,0c0,0.2,0,0.7,0,1.1l0,0L100.5,175.3L100.5,175.3z"/>
	<path class="st1" d="M97.4,175.4l3,0l0,0l-0.1-0.1l0,0l0,0l-0.5-0.4l0,0c0.3-0.4,1.8-1.5,2-1.6c-0.1-0.7-0.1-1.9-0.2-3.2l0-0.1
		c-0.5-0.1-1.1-0.1-1.6-0.1c-1.3,0-2.6,0.2-3.8,0.5l0,0l-0.2,3l0,0c0.2,0.1,0.4,0.2,0.6,0.4c0.2,0.1,0.4,0.3,0.7,0.5
		c0.4,0.4,0.7,0.7,0.7,0.7l-0.3,0.3c0,0,0,0-0.1-0.1l0,0l0,0.1l0,0c-0.6-0.5-1.2-1-1.5-1.2l0,0c0,0.1,0,0.1,0,0.2L97.4,175.4z"/>
	<path class="st1" d="M94.5,173.2l1-1.9l0,0.1c0,0.8-0.1,1.4-0.1,1.8c0,0-0.2,0.1-0.5,0.3L94.5,173.2z"/>
	<path class="st1" d="M88.3,180.5l1.6-4.6l0,0l4.3-2.4l0.4,0.3c-0.5,0.3-1.1,0.8-1.3,1l0,0l0.5,0.4l0,0c0,0,0,0,0,0l0,0l0.1,0.1
		c0,0,0.7-0.6,1.3-1l0.1,0.1c-0.1,0.6-0.2,2-0.2,2l0.5,0.3l0,0l0,0l0.1,0.1c0,0,0.1-0.7,0.2-1.8l1.1,0.8l-1.5,4.7l0,0l-4.3,2.8l0,0
		L88.3,180.5L88.3,180.5z"/>
	<path class="st1" d="M86,184.5c0-0.2,0-0.3,0-0.5c0-3.3,1.1-6.3,3-8.6l0,0l0.5,0.5l0,0l-1.5,4.4l-0.1,0.2L86,184.5L86,184.5z"/>
	<path class="st6" d="M95.2,162c0,1.8,0.4,2.9,0.6,3.3c0.2,0.3,0.3,0.3,0.5,0.2c0.1-0.1,0.2-0.3,0.3-0.7c0.2-0.7,0.2-1.6,0.2-2
		l0-0.1c-0.1,0-0.1-0.1-0.2-0.1C96.1,162.5,95.6,162.3,95.2,162L95.2,162z"/>
	<path class="st6" d="M101,162.9c0,1.2,0.2,2.2,0.4,2.6c0.2,0.3,0.3,0.1,0.4-0.1c0.1-0.3,0.3-0.7,0.4-1.3c0.2-0.7,0.2-1.4,0.2-1.8
		l0-0.1C102.1,162.6,101.6,162.7,101,162.9L101,162.9z"/>
	<path class="st3" d="M101.9,166.1c0.1,2.2,0.4,7.3,0.4,7.3c1.2,0.6,2,1.4,2,1.4l-0.3,0.3c-0.7-0.6-1.7-1.2-1.7-1.2
		c0.1,1.4,0.2,2.3,0.2,2.3l-0.5,0.3c-0.2-0.6-0.2-2.5-0.2-2.5c-0.7,0.3-1.6,1.3-1.6,1.3l-0.4-0.4c0.3-0.4,2-1.6,2-1.6
		c-0.1-1.8-0.4-6.1-0.4-7.2l0,0C101.6,166.2,101.8,166.2,101.9,166.1L101.9,166.1z"/>
	<path class="st3" d="M95.8,166.1c-0.1,1.3-0.3,5.8-0.4,7.2c0,0-1.8,1.2-2.1,1.5l0.4,0.4c0,0,0.9-0.8,1.7-1.2l-0.2,2.4l0.4,0.3
		c0,0,0.2-1,0.3-2.6c0,0,0.9,0.7,1.7,1.3l0.3-0.3c0,0-0.8-0.9-1.9-1.5l0.5-7.4l0,0c-0.1,0.1-0.3,0.1-0.4,0.1
		C95.9,166.1,95.8,166.1,95.8,166.1L95.8,166.1z"/>
	<path class="st6" d="M103.1,127.7c0.1,0.2,0.2,0.4,0.2,0.4c0,0.9,0.1,2,0.2,3.4l0,0.1c0.2,1.8,0.5,4.5,0.9,7.4c0.3,2,0.5,4,0.7,5.8
		l0.3,2.8c0.4,2.9,0.6,5,0.7,8c0.1,2.9-1.2,5.2-3.4,6.3c-2.1,1-4.5,1.2-6,0.5c-1.4-0.7-3.2-2.1-4-4.2c-1.3-3.3-1.1-7.5,0.4-10.2
		c1.5-2.7,3.7-3.8,3.7-3.8l0.2-0.1l0-0.2l1.8-12c0.3-1.7,0.5-3.2,0.7-4.6c0-0.1,0.1-0.3,0.3-0.3c0.1,0,0.3,0,0.5,0
		c0.1,0,0.2,0.1,0.2,0.2c0,0.2,0,0.5,0,1.2c0,1-0.2,3.4-0.3,4.9c-0.1,1.5-0.1,2.1-0.1,2.1c0.1,0,0.2-0.8,0.4-2.5
		c0.2-1.4,0.5-4.6,0.7-5.5c0-0.2,0.1-0.3,0.2-0.3c0.1-0.1,0.3-0.1,0.4-0.2c0.2-0.1,0.7-0.1,1,0.4C102.9,127.4,103,127.6,103.1,127.7
		z"/>
	<path class="st8" d="M96.6,144.5c-0.3,0.3-0.5,1.2-1.1,2.9c-0.7,1.7-0.8,2.7-0.4,2c0.3-0.7,0.7-2.1,1.3-3.3
		C96.8,144.8,97.1,144,96.6,144.5z"/>
	<path class="st1" d="M95.5,191.3c-2.3-1.1-3.7-2.5-4.3-3.2l0,0l0.1-4.4l0,0l4.3-2.9l0,0l4.2,3.1l0,0l0,5.3l-0.1,0l-4,2.2
		C95.8,191.3,95.6,191.3,95.5,191.3z"/>
	<path class="st9" d="M108.8,182.5c0.3-0.7,0.5-1.3,0.6-1.9c0.5-2.3,0.4-4.5,0.4-5.1l0,0l1,4.8l0,0.2L108.8,182.5L108.8,182.5z"/>
	<path class="st9" d="M101.8,190l2.5,1.4l0.1,0l4.5-3.2l0-0.1l-0.4-4.5l0,0c-1,2.1-2.9,4.3-6.2,6.1
		C102.1,189.8,101.9,189.9,101.8,190L101.8,190z"/>
	<path class="st1" d="M86.7,188.2c0.3,0.2,0.6,0.5,0.9,0.7l0,0l-1.5-3.6l0,0.1C86.2,186.4,86.4,187.3,86.7,188.2L86.7,188.2z"/>
	<path class="st1" d="M88.7,189.7c1.8,1,3.9,1.5,6,1.7l0.1,0c-1.9-1-3.1-2.1-3.7-2.8l0,0L88.7,189.7L88.7,189.7z"/>
	<path class="st1" d="M108.8,182.6l-0.3,0.4l0,0l-4.1-2.3l0-0.1l-1.5-5l0.8-0.7c0.1,0.1,0.3,0.2,0.4,0.3l0,0l0,0l0,0
		c0,0,0.1,0.1,0.1,0.1l0.3-0.3c0,0-0.1-0.1-0.4-0.3c0,0-0.1,0-0.1-0.1l1.3-1.2l4.4,2.1l0.1,0.1l0,0l0,0c0,0.7,0.1,2.9-0.4,5.1
		C109.3,181.2,109.1,181.9,108.8,182.6L108.8,182.6z"/>
	<path class="st1" d="M101.8,190c0.1-0.1,0.3-0.1,0.4-0.2c3.3-1.8,5.1-4.1,6.2-6.1l0,0l0-0.3l-0.1,0l-4-2.3l-0.1,0l-4,2.8l0,0.1
		l0,5.3l0,0L101.8,190L101.8,190z"/>
	<path class="st9" d="M111.8,181.2c0-0.3,0-0.5,0-0.8c-0.1-2.4-1.1-4.7-1.4-5.4l0,0l-0.1,0.2l-0.1,0.1l1.1,5.1l0,0.1L111.8,181.2
		L111.8,181.2z"/>
	<path class="st9" d="M103.4,194.3l1.1-2.7l0.1-0.1l4.5-3.2l0.1,0l0.5,0.2l0,0c-1,1.7-2.3,3.3-4.2,4.5
		C104.8,193.6,104.1,194,103.4,194.3L103.4,194.3z"/>
	<path class="st9" d="M88.5,191.9c-0.8-1.1-1.4-2.4-1.8-3.7l0,0c0.3,0.2,0.6,0.5,0.9,0.7l0,0l0.4,1l0,0.1c0.2,0.5,0.5,1.4,0.7,2.1
		l0,0C88.6,192.1,88.6,192,88.5,191.9L88.5,191.9z"/>
	<path class="st9" d="M89.3,192.6c-0.3-0.8-0.7-1.9-0.9-2.6l0-0.1l0.4-0.2l0,0c1.8,1,3.9,1.5,6,1.7l0.1,0c0.2,0.1,0.5,0.2,0.7,0.3
		l0.1,0l1.6,3.7l-0.1,0l-0.1,0H97C94.4,195.3,91.8,194.4,89.3,192.6L89.3,192.6z"/>
	<path class="st10" d="M95.3,196.9l2.3-1.3l0,0l5.2,0l0,0l1.1,1l-0.1,0C101.3,197.6,98.4,197.8,95.3,196.9L95.3,196.9z"/>
	<path class="st10" d="M112,189.7c0.1-0.2,0.1-0.4,0.1-0.5l0-0.1l0.3-0.5l-0.1,0.1c-0.1,0.3-0.3,0.6-0.4,0.9L112,189.7z"/>
	<path class="st10" d="M113.3,179.6c0.1,0.7,0.3,1.7,0.3,2.8c0,0.5,0,0.9,0,1.4l0,0.1l-1.8-2.7l0,0c0-0.3,0-0.5,0-0.8
		c-0.1-2.4-1.1-4.7-1.4-5.4l0,0l0.1-0.2l0,0c1.2,1.3,2.1,2.9,2.7,4.6L113.3,179.6z"/>
	<path class="st10" d="M104.3,196.5l-1.3-1.2l0,0l0.4-1l0,0c0.7-0.3,1.4-0.7,2-1.1c1.9-1.2,3.2-2.8,4.2-4.5l0,0l2.1,0.7l0,0.1
		c-0.1,0.4-0.3,1-0.5,1.7l-0.1,0.1c-0.7,1-1.5,2-2.5,2.8C107.4,194.9,106,195.8,104.3,196.5L104.3,196.5z"/>
	<path class="st10" d="M92.6,195.9c-1.1-0.7-2.2-1.6-3-2.5l-0.1-0.2c-0.1-0.2-0.1-0.4-0.2-0.6l0,0c2.5,1.8,5.1,2.8,7.7,2.9H97
		l-2.2,1.3l-0.1,0c-0.6-0.2-1.2-0.4-1.8-0.7L92.6,195.9z"/>
	<path class="st10" d="M88.5,191.9c0.1,0.1,0.2,0.3,0.3,0.4l0.1,0.1c0-0.1-0.1-0.2-0.1-0.3l0,0C88.6,192.1,88.6,192,88.5,191.9
		L88.5,191.9z"/>
	<path class="st11" d="M95.3,196.9l-0.2,0.1l0.1,0c1.5,0.6,3.2,0.9,4.9,0.9c1.6,0,3.1-0.3,4.5-0.7l0.1,0l-0.6-0.6l-0.1,0
		C101.3,197.6,98.4,197.8,95.3,196.9L95.3,196.9z"/>
	<path class="st11" d="M112,189.7c-0.2,0.7-0.5,1.8-0.8,2.7l0.1-0.1c1.2-1.6,2.1-3.5,2.5-5.5l-0.1,0.1l-1.1,1.6l-0.1,0.1
		c-0.1,0.3-0.3,0.6-0.4,0.9L112,189.7z"/>
	<path class="st11" d="M104.3,196.5l0.6,0.6l0.1,0c2.1-0.8,4-2.1,5.4-3.7l0.1-0.1c0.3-0.6,0.5-1.5,0.8-2.2l-0.1,0.1
		c-0.7,1-1.5,2-2.5,2.8C107.4,194.9,106,195.8,104.3,196.5L104.3,196.5z"/>
	<path class="st11" d="M94.7,196.8c-0.6-0.2-1.2-0.4-1.8-0.7l-0.3-0.2c0.6,0.4,1.2,0.7,1.9,1l0.1,0l0.2-0.1L94.7,196.8z"/>
	<path class="st11" d="M113.6,183.8c0-0.5,0-1,0-1.4c0-1.1-0.2-2-0.3-2.8l0-0.2c0.5,1.4,0.8,3,0.8,4.6c0,0.2,0,0.4,0,0.5l-0.1-0.1
		L113.6,183.8L113.6,183.8z"/>
	<path class="st1" d="M102,120.4c-0.2,0.3-0.3,0.8-0.3,1.3c0,0.5,0.1,0.9,0.5,1.2c0.3,0.2,0.6,0.5,0.6,1c0,0.5,0,0.8,0.5,1.2
		c0.5,0.4,0.8,0.6,1.1,0.4c0.4-0.1,0.5-0.1,0.5-0.4c0-0.3-0.1-0.6-0.1-0.6s-0.3-0.2-0.8-0.7c-0.5-0.5-0.8-0.8-0.8-1.6
		c-0.1-0.8-0.1-1.1-0.3-1.5C102.6,120.4,102.2,120.1,102,120.4z"/>
	<path class="st1" d="M105,122.5c0,0.4-0.3,0.8-0.6,0.8c-0.4,0-0.6-0.3-0.6-0.8c0-0.4,0.3-0.8,0.6-0.8
		C104.7,121.8,105,122.1,105,122.5z M104.4,121.9c-0.2,0-0.3,0.2-0.3,0.4c0,0.2,0.1,0.4,0.3,0.4c0.2,0,0.3-0.2,0.3-0.4
		C104.7,122.1,104.6,121.9,104.4,121.9z"/>
	<path class="st1" d="M107.2,124.8c-0.3,0-0.5,0.1-0.4,0.2c0.1,0.1,0.3,0.1,0.5,0.1C107.5,125.1,107.7,124.9,107.2,124.8z"/>
	<path class="st1" d="M107.6,125.1c-0.3,0-0.4,0-0.2,0.1c0.1,0.1,0.5,0.1,0.5,0C107.8,125.2,107.8,125.1,107.6,125.1z"/>
	<path class="st1" d="M102.6,120c0-0.1,0.2-0.2,0.9,0.1c1,0.3,2,0.6,2.3,1.4c0.3,0.7,1.2,1.9,2,2l0,0c-0.2,0.1-0.4,0.3-0.6,0.5
		c-0.2,0.2-0.3,0.5-0.3,0.6l-0.1,0c-0.1,0-0.3-0.1-0.5-0.1c-0.5-0.2-0.7-0.7-1-1.5c-0.3-0.8-0.7-1.5-0.9-1.7
		c-0.2-0.3-0.5-0.2-0.7-0.3c-0.2-0.1-0.5-0.3-0.8-0.6C102.9,120.1,102.7,120.1,102.6,120L102.6,120z"/>
	<path class="st1" d="M109.5,126.5c0-0.4,0-0.8-0.5-1.4c-0.5-0.7-1.2-1-1.3-0.9c-0.1,0.1-0.2,0.2-0.3,0.3l0,0c0,0,0.6,0.7,1,1.1
		C108.7,126,109.1,126.3,109.5,126.5C109.5,126.6,109.5,126.6,109.5,126.5L109.5,126.5z"/>
	<path class="st6" d="M102.6,120c-0.2-0.1-0.3-0.1-0.3-0.1l0-0.2c0,0,0-0.4,0.2-0.6c0.3-0.3,1.4,0,2.3,0.3c1.5,0.5,1.9,0.7,2.4,2
		c0.5,1,0.5,1.5,0.5,1.5c0,0,0,0,0,0c0,0,0,0.1,0,0.1l0.1,0.1l0.1,0.1l0,0c-0.8-0.1-1.7-1.3-2-2c-0.3-0.7-1.3-1-2.3-1.4
		C102.8,119.8,102.6,119.9,102.6,120L102.6,120z"/>
	<path class="st6" d="M107.4,124.6c0,0-0.1,0-0.2,0l-0.1,0c0-0.1,0.1-0.3,0.2-0.5c0.2-0.2,0.5-0.4,0.6-0.5l0.1,0.1
		c0.1,0.2,0.3,0.4,0.6,0.7l0,0c0.3,0.4,0.6,0.7,0.9,0.8c0.3,0.2,0.4,0.4,0.5,0.8c0,0.1,0,0.2,0,0.3c0,0.2-0.1,0.4-0.1,0.5
		c-0.1-0.1-0.3-0.1-0.4-0.2l0,0c0-0.4,0-0.8-0.5-1.4c-0.5-0.7-1.2-1-1.3-0.9C107.6,124.3,107.4,124.5,107.4,124.6L107.4,124.6z"/>
	<path class="st6" d="M107.8,138.7c0,0,1.1,0.3,1.8,0.7l0.1-0.1c-0.7-0.4-1.8-0.7-1.8-0.7L107.8,138.7z"/>
	<path class="st6" d="M107.4,137.6c0,0,1,0,1.8,0.4l0.1-0.2c-0.8-0.4-1.8-0.4-1.9-0.4L107.4,137.6z"/>
	<path class="st6" d="M106.9,136.6l0,0.2c0,0,1.2,0,1.8,0.2l0.1-0.2C108.2,136.6,107,136.6,106.9,136.6z"/>
	<path class="st6" d="M108.1,139.5c0,0,1,0.5,1.5,0.9l0.1-0.1c-0.5-0.5-1.5-0.9-1.6-1L108.1,139.5z"/>
	<path class="st6" d="M105.6,135.7l0,0.2c0,0,0.9-0.2,1.8,0l0-0.2C106.6,135.4,105.7,135.7,105.6,135.7z"/>
	<path class="st6" d="M108.2,140.8c0,0,0.7,0.3,1.3,1.1l0.1-0.1c-0.7-0.8-1.4-1.2-1.4-1.2L108.2,140.8z"/>
	<path class="st6" d="M107.8,141.8c0,0,0.6,0.5,1,1.3l0.2-0.1c-0.4-0.8-1-1.3-1.1-1.3L107.8,141.8z"/>
	<path class="st6" d="M107.4,142.9c0,0,0.6,0.7,0.7,1.4l0.2,0c-0.1-0.7-0.7-1.4-0.8-1.5L107.4,142.9z"/>
	<path class="st6" d="M106.7,143.8c0,0,0.4,0.8,0.5,1.4l0.2,0c0-0.7-0.5-1.5-0.5-1.5L106.7,143.8z"/>
	<path class="st6" d="M104.3,135.4c0-0.1,0-0.1,0-0.2l0,0c0.9-0.3,1.8-0.3,1.9-0.3l0,0.2C106.2,135,105.2,135,104.3,135.4
		L104.3,135.4z"/>
	<path class="st6" d="M104.2,134.2c0,0.1,0,0.1,0,0.2l0,0c0.3-0.1,0.5-0.1,0.5-0.1v-0.2C104.8,134.1,104.5,134.1,104.2,134.2
		L104.2,134.2z"/>
	<path class="st6" d="M104.6,137.3c0,0,0-0.1,0-0.1l0,0c0.3,0,0.5,0.1,0.5,0.1l0,0.1C105,137.4,104.9,137.4,104.6,137.3L104.6,137.3
		z"/>
	<path class="st6" d="M104.6,137.9c0,0,0,0.1,0,0.1l0,0c0.6,0,1.2,0.1,1.2,0.1l0-0.1C105.9,138,105.3,137.9,104.6,137.9L104.6,137.9
		z"/>
	<path class="st6" d="M105,138.6c0.7,0.1,1.3,0.3,1.3,0.3l0-0.1c0,0-0.6-0.2-1.3-0.3L105,138.6z"/>
	<path class="st6" d="M105.2,139.3c0.5,0.1,1.2,0.5,1.2,0.5l0.1-0.1c0,0-0.7-0.4-1.2-0.5L105.2,139.3z"/>
	<path class="st6" d="M105.4,139.9c0.6,0.3,1,0.6,1,0.6l0.1-0.1c0,0-0.4-0.4-1.1-0.7L105.4,139.9z"/>
	<path class="st6" d="M105.4,140.7c0.5,0.3,1,0.8,1,0.8l0.1-0.1c0,0-0.4-0.5-1-0.8L105.4,140.7z"/>
	<path class="st6" d="M105.2,141.3c0.3,0.3,0.8,0.8,0.8,0.8l0.1-0.1C106.1,142.1,105.7,141.6,105.2,141.3L105.2,141.3z"/>
	<path class="st6" d="M105.3,142.6c0.1,0.2,0.2,0.4,0.2,0.4l0.1-0.1c0,0-0.2-0.3-0.4-0.6l0,0C105.2,142.3,105.2,142.5,105.3,142.6
		L105.3,142.6z"/>
	<path class="st6" d="M95.3,134.3c0,0,1,0.1,1.8,0.6l0.1-0.1c-0.8-0.5-1.8-0.6-1.8-0.6L95.3,134.3z"/>
	<path class="st6" d="M93.9,134.8l0,0.2c0,0,1-0.1,1.9,0.4l0.1-0.2C95,134.8,93.9,134.8,93.9,134.8z"/>
	<path class="st6" d="M92.5,135.6l0,0.2c0,0,1.2-0.1,1.9,0.1l0-0.2C93.8,135.5,92.6,135.6,92.5,135.6z"/>
	<path class="st6" d="M91.2,136.8l0.1,0.2c0,0,0.9-0.3,1.9-0.2l0-0.2C92.1,136.5,91.2,136.8,91.2,136.8z"/>
	<path class="st6" d="M90.8,137.9l0.1,0.2c0,0,0.9-0.4,1.8-0.4v-0.2C91.7,137.4,90.8,137.9,90.8,137.9z"/>
	<path class="st6" d="M90.5,139.3l0.1,0.2c0,0,0.9-0.5,1.7-0.7l0-0.2C91.4,138.7,90.5,139.3,90.5,139.3z"/>
	<path class="st6" d="M90.3,140.4l0.1,0.1c0,0,0.9-0.8,1.6-0.9l0-0.2C91.3,139.6,90.3,140.3,90.3,140.4z"/>
	<path class="st6" d="M90.5,141.8l0.1,0.1c0,0,0.5-0.6,1.3-1.1l-0.1-0.2C91,141.1,90.5,141.8,90.5,141.8z"/>
	<path class="st6" d="M91.1,142.9l0.2,0.1c0,0,0.5-0.9,1-1.2l-0.1-0.1C91.6,142,91.1,142.9,91.1,142.9z"/>
	<path class="st6" d="M91.8,144.2l0.2,0c0.2-0.7,0.8-1.3,0.8-1.4l-0.1-0.1C92.6,142.8,91.9,143.5,91.8,144.2z"/>
	<path class="st6" d="M92.8,145.2l0.2,0c0-0.6,0.4-1.4,0.4-1.4l-0.2-0.1C93.2,143.7,92.7,144.5,92.8,145.2z"/>
	<path class="st6" d="M95.2,143.6l0.1,0c0-0.4,0.3-1,0.3-1l-0.1-0.1C95.5,142.6,95.2,143.2,95.2,143.6z"/>
	<path class="st6" d="M94.5,143l0.1,0c0.1-0.5,0.5-0.9,0.5-0.9l-0.1-0.1C95,142,94.7,142.4,94.5,143z"/>
	<path class="st6" d="M94.1,142.1l0.1,0.1c0.2-0.4,0.6-0.8,0.7-0.8l-0.1-0.1C94.7,141.3,94.3,141.7,94.1,142.1z"/>
	<path class="st6" d="M93.7,141.4l0.1,0.1c0.3-0.3,0.9-0.7,0.9-0.7l-0.1-0.1C94.5,140.6,93.9,141,93.7,141.4z"/>
	<path class="st6" d="M93.6,140.4L93.6,140.4c0.4-0.2,1.1-0.5,1.1-0.5l0-0.1C94.6,139.8,93.9,140.1,93.6,140.4z"/>
	<path class="st6" d="M93.6,139.7L93.6,139.7c0.4-0.2,1.3-0.4,1.3-0.4l0-0.1C94.8,139.2,94,139.4,93.6,139.7z"/>
	<path class="st6" d="M93.9,138.8l0.1,0.1c0.4-0.2,1.2-0.3,1.2-0.3l0-0.1C95.1,138.4,94.3,138.5,93.9,138.8z"/>
	<path class="st6" d="M94.2,138l0,0.1c0.4-0.1,1.2-0.1,1.3-0.1l0-0.1C95.4,137.9,94.6,137.9,94.2,138z"/>
	<path class="st6" d="M95,137.2l0,0.1c0.5-0.1,1.3,0.1,1.3,0.1l0-0.1C96.3,137.3,95.5,137.2,95,137.2z"/>
	<path class="st6" d="M95.9,136.7l0,0.1c0.5,0,1.3,0.2,1.3,0.2l0-0.1C97.2,136.9,96.5,136.7,95.9,136.7z"/>
	<path class="st6" d="M97.6,136.5c-0.4-0.1-0.7-0.2-0.7-0.2l0-0.1c0,0,0.4,0.1,0.7,0.2l0,0C97.7,136.5,97.7,136.5,97.6,136.5
		L97.6,136.5z"/>
	<path class="st6" d="M98,134c-0.4-0.2-0.9-0.3-0.9-0.3l0-0.2c0,0,0.4,0.1,0.9,0.3l0,0C98.1,133.9,98,134,98,134L98,134z"/>
	<path class="st6" d="M108.2,123.2c0,0.1,0.1,0.1,0.2,0.3l0,0c0.6-0.4,1.6-0.5,1.6-0.5l0-0.3C110,122.7,109,122.7,108.2,123.2
		L108.2,123.2z"/>
	<path class="st6" d="M103.7,127.6c0-0.1,0-0.2,0-0.4l0,0c0.5-0.3,1.1-0.5,1.1-0.5v0.4C104.8,127.1,104.3,127.2,103.7,127.6
		L103.7,127.6z"/>
	<path class="st6" d="M103.8,130.3c0-0.1,0-0.2,0-0.4l0,0c0.4-0.1,0.7-0.2,0.7-0.2l0,0.3C104.4,130.1,104.1,130.2,103.8,130.3
		L103.8,130.3z"/>
	<path class="st6" d="M109.7,124.8c-0.1-0.6-0.4-0.9-0.4-0.9l0.2-0.3c0,0,0.4,0.6,0.5,1.4l0,0.1C109.9,125.1,109.8,125,109.7,124.8
		L109.7,124.8z"/>
	<path class="st6" d="M99.5,125.2c-0.8-1.2-1.6-1.5-1.6-1.5l0.1-0.3c0,0,0.7,0.3,1.5,1.4l0,0C99.6,124.9,99.6,125,99.5,125.2
		L99.5,125.2z"/>
	<path class="st6" d="M99.1,127.3c-0.8-0.8-1.2-0.9-1.2-0.9l0-0.3c0,0,0.5,0.1,1.3,0.9l0,0C99.2,127.1,99.1,127.2,99.1,127.3
		L99.1,127.3z"/>
	<circle class="st0" cx="102.8" cy="113.3" r="0.3"/>
	<circle class="st0" cx="103.6" cy="113.4" r="0.3"/>
	<circle class="st0" cx="101.9" cy="113.5" r="0.3"/>
	<circle class="st0" cx="104.4" cy="113.6" r="0.3"/>
	<circle class="st0" cx="105.2" cy="113.9" r="0.3"/>
	<circle class="st0" cx="106" cy="114.2" r="0.3"/>
	<circle class="st0" cx="106.8" cy="114.5" r="0.3"/>
	<circle class="st0" cx="101.1" cy="113.9" r="0.3"/>
	<circle class="st0" cx="107.5" cy="114.9" r="0.3"/>
	<circle class="st0" cx="100.5" cy="114.4" r="0.3"/>
	<circle class="st0" cx="99.9" cy="114.9" r="0.3"/>
	<path class="st6" d="M84.8,151.4l-2,1.1l-0.1,0.2c-0.5,1.2-0.4,2.1-0.4,2.1l-0.3,0c0,0,0-0.8,0.3-1.9l0.1-0.2l-2.3,1.3l-0.1,0.2
		c-0.5,1.3-0.4,2.5-0.4,2.5l-0.3,0c0-0.1-0.1-1,0.3-2.2l0.1-0.2l-2.4,1.3l-0.1,0.1c-0.7,1.6-0.5,2.8-0.5,2.8l-0.3,0
		c0-0.1-0.1-1.1,0.4-2.5l0-0.2l-2.5,1.4l0,0.2c-0.1,0.3-0.1,0.7-0.2,1.1c-0.1,0.9,0.1,1.6,0.1,1.6l-0.3,0.1c0,0-0.2-0.8-0.1-1.7
		c0-0.3,0.1-0.6,0.1-0.9l0-0.2l-2.2,1.2c0,0-0.2,0.8-0.3,1.3c-0.2,0.9,0,2,0,2l-0.3,0.1c0-0.1-0.3-1.3-0.1-2.3c0.1-0.3,0.2-1,0.2-1
		l-0.8,0.5l-0.1,0.1c0.5,1.3,0.1,3-1,4.2c-1.5,1.7-3.6,1.5-5.2,0.9c-1.7-0.5-2.4-0.6-3.1,0.3c-0.4,0.5-0.7,1.3-0.9,1.7
		c-0.1,0.2-0.1,0.2-0.2-0.1c-0.1-0.4-0.2-0.9-0.5-1.4c-0.3-0.6-0.8-1.1-1-1.3c-0.1-0.1-0.1-0.2,0.1-0.1c0.3,0,0.7,0,1.2,0.1
		c1.1,0,1.7,0,1.9-0.7c0.2-0.8,0.7-2.5,1.1-3.2c0,0-1.2,0.2-3.2-0.7c-1-0.5-1.7-0.7-2.2-0.6c-0.6,0.1-1.1,0.6-1.6,1.2
		c-0.3,0.4-0.5,0.7-0.6,0.9c-0.1,0.2-0.2,0.1-0.2-0.1c0-0.5,0-1.3-0.3-1.8c-0.2-0.4-0.5-0.9-0.7-1.1c-0.1-0.2-0.1-0.2,0.1-0.2
		c0.3,0.1,0.8,0.2,1.4,0.3c1,0.2,1.5,0.2,1.7,0c0.2-0.2,0.9-1.8,1.4-2.6c0.5-0.8,1.4-1.6,1.4-1.6s-0.9-0.1-2-0.8
		c-1.1-0.7-2-1.3-2.5-1.3c-0.4,0-1,0.2-1.6,0.7c-0.4,0.4-0.9,0.8-1.1,1c-0.1,0.1-0.2,0.1-0.1-0.1c0.1-0.4,0.2-1.3,0.1-1.7
		c-0.1-0.4-0.4-1-0.6-1.4c-0.1-0.2,0-0.2,0.1-0.2c0.3,0.1,0.9,0.4,1.3,0.6c0.6,0.3,1.6,0.5,2,0c0.4-0.4,0.7-1.2,1.6-2.2
		c1-1,2.2-1.7,2.2-1.7c-1.4,0-2.5-0.8-3.7-1.8c-1.2-1.1-1.4-1.3-1.9-1.4c-0.5-0.1-1.3,0.1-2,0.5c-0.4,0.2-0.9,0.5-1.1,0.7
		c-0.2,0.1-0.2,0.1-0.1-0.1c0.2-0.3,0.4-1,0.4-1.8c0-0.5-0.2-1.2-0.3-1.5c0-0.1,0-0.1,0.1,0c0.2,0.2,0.6,0.4,1,0.7
		c0.6,0.4,1.3,0.7,1.7,0.7c0.4,0,0.9-0.7,2-1.6c1.1-1,1.7-1.1,1.7-1.1c-0.7-0.3-2-1.7-2.8-2.8c-0.8-1-1.7-0.9-2.5-0.7
		c-0.6,0.2-1.3,0.5-1.7,0.7c-0.2,0.1-0.2,0-0.1-0.1c0.2-0.4,0.6-1.1,0.6-1.9c0-0.5,0-1-0.1-1.3c0-0.2,0.1-0.2,0.2-0.1
		c0.3,0.2,0.7,0.6,1.1,1c0.6,0.5,1.4,1,1.9,0.6c0.7-0.5,1.1-0.9,2.2-1.5c1.2-0.7,2.5-0.9,2.5-0.9c-1.3-0.9-2.1-3-2.7-3.8
		c-0.5-0.6-1.5-0.5-2.3-0.4c-0.5,0.1-1,0.2-1.3,0.3c-0.2,0.1-0.2,0-0.1-0.2c0.3-0.4,0.7-1,0.9-1.4c0.1-0.4,0.2-1.1,0.2-1.5
		c0-0.2,0.1-0.3,0.2-0.1c0.3,0.4,0.9,1.2,1.3,1.6c0.6,0.7,1.1,0.5,1.4,0.4c0.3-0.1,1.5-0.8,2.5-1.1c1-0.3,2.8-0.3,2.8-0.3
		c-2-1.3-2.4-3.1-2.9-4.8c-0.4-1.1-1.4-1.1-2.6-1.2c-0.5,0-0.9,0-1.1,0c-0.2,0-0.2-0.1-0.1-0.2c0.3-0.3,0.8-0.7,1.1-1.1
		c0.3-0.5,0.4-1.2,0.5-1.7c0-0.2,0.1-0.2,0.2,0c0.3,0.5,0.7,1.3,1.1,1.9c0.5,0.8,0.9,0.7,1.7,0.5c0.7-0.2,1.8-0.5,2.9-0.6
		c1.1,0,2,0.1,2,0.1c-0.4-0.7-0.7-1.5-0.8-2.8c-0.2-1.4-0.1-1.7-0.6-2.3c-0.5-0.6-1.7-0.8-2.3-0.8c-0.3,0-0.5,0-0.7,0
		c-0.2,0-0.2-0.1,0.1-0.2c0.4-0.2,0.9-0.6,1.3-1.1c0.4-0.5,0.6-1,0.7-1.3c0.1-0.2,0.1-0.2,0.2,0c0.1,0.4,0.3,1,0.6,1.7
		c0.4,1.1,0.8,1,1,1c0.3,0,1.6-0.3,3-0.2c1.4,0.1,2.6,0.7,2.6,0.7c-0.3-0.7-0.4-1.3-0.3-2.8c0-1.5,0-2-0.1-2.2
		c-0.1-0.2-0.7-0.8-1.7-1.1c-0.4-0.1-0.9-0.2-1.2-0.3c-0.2,0-0.1-0.1,0.1-0.2c0.4-0.1,0.9-0.4,1.4-0.8c0.5-0.4,0.8-0.9,1-1.3
		c0.1-0.2,0.2-0.2,0.2,0c0.1,0.4,0.1,1,0.3,1.7c0.2,1.1,0.6,1.2,1.3,1.3c1,0.1,2.4,0,3.7,0.6c0.9,0.4,1.5,0.8,1.5,0.8
		s-0.2-0.7-0.2-1.6c0-1,0.6-2.5,0.6-3.3c0-0.8-0.7-1.4-1.4-1.7c-0.4-0.2-0.8-0.4-1.1-0.5c-0.2-0.1-0.2-0.2-0.1-0.2
		c0.4-0.1,1.1-0.3,1.7-0.6c0.5-0.3,0.9-0.8,1.1-1.1c0.1-0.1,0.2-0.1,0.2,0.1c0,0.3,0,0.7,0,1.1c0,0.7-0.1,1.4,0.3,1.9
		c0.4,0.4,2.1,0.4,3.5,1c1.4,0.7,2.4,1.8,2.4,1.8c-0.6-1.8,0.3-3.5,0.8-4.5c0.5-1,0.6-1.8,0-2.5c-0.5-0.5-1.3-1.1-1.7-1.3
		c-0.1-0.1-0.1-0.1,0.1-0.1c0.6,0,1.8-0.2,2.8-1c0.1-0.1,0.2-0.1,0.2,0.1c-0.1,0.4-0.3,1.1-0.3,1.6c-0.1,0.7-0.1,1.5,0.7,1.8
		c0.8,0.3,2.9,0.9,4.2,2.9c0,0,0.1-0.9,0.8-2.2c0.8-1.2,1.4-1.9,1.3-2.7c-0.1-0.7-1-1.7-1.7-2.4c-0.1-0.1-0.2-0.2,0-0.2
		c0.6,0.1,2,0.2,3.1-0.6c0.1-0.1,0.2-0.1,0.2,0.2c-0.1,0.4-0.3,0.9-0.5,1.3c-0.3,0.7-0.3,1.5,0.1,1.8c0.4,0.3,2.8,1.4,4,3.7
		c0,0,0.1-1.1,1.3-2.3c1-1,1.8-1.9,2-2.4c0.1-0.5-0.1-1.3-0.5-1.9c-0.2-0.3-0.5-0.7-0.7-1c-0.2-0.2-0.1-0.3,0.1-0.2
		c0.3,0.1,0.6,0.3,1,0.4c0.6,0.2,1.5,0,2.2-0.2c0.1,0,0.2,0,0.1,0.2c-0.1,0.2-0.4,0.5-0.6,0.9c-0.5,0.7-1,1.6-0.6,2
		c0.4,0.4,2.5,1.9,3.3,5.1c0,0,0.6-1.4,1.8-2.5c1.2-1.1,2.2-1.4,2.5-1.7c0.2-0.2,0.3-0.5,0-1.4c-0.1-0.5-0.5-1.2-0.7-1.6
		c-0.1-0.2-0.1-0.3,0.1-0.2c0.4,0.2,1.1,0.6,1.5,0.6c0.4,0.1,1.3,0,1.7-0.1c0.2,0,0.2,0,0.1,0.2c-0.2,0.2-0.5,0.5-0.8,0.8
		c-0.5,0.5-1.1,1.3-1,2.1c0.2,0.7,0.6,1.1,1.4,2.4c0.7,1.3,0.8,2.4,0.8,2.4s0.7-1,1.5-1.8c0.9-0.8,2.1-1.3,2.8-1.6
		c0.7-0.3,1-0.4,1-1.4c-0.1-0.9-0.3-1.6-0.4-2.1c0-0.1,0-0.1,0.1-0.1c0.2,0.2,0.8,0.7,1.4,0.9c0.6,0.2,1.3,0.2,1.7,0.2
		c0.2,0,0.2,0,0,0.2c-0.1,0.1-0.3,0.2-0.6,0.4c-0.6,0.4-1.4,1.1-1.5,1.6c-0.1,0.5,0,1,0.5,2.1c0.5,1.1,0.8,2.3,0.8,3.3
		c0,0,1-0.9,1.8-1.4c1-0.5,2.1-0.7,2.7-0.8c0.6-0.1,1.1-0.1,1.1-1.4c0-0.9,0-1.5,0-1.9c0-0.2,0.1-0.2,0.2-0.1c0.2,0.2,0.6,0.7,1.1,1
		c0.5,0.4,1.3,0.5,1.7,0.6c0.2,0,0.2,0.1,0,0.1c-0.2,0.1-0.6,0.3-1.1,0.5c-0.8,0.5-1.5,1-1.5,1.8s0.5,1.8,0.6,3.1
		c0.1,1.3-0.1,1.9-0.4,2.4c0,0,1-0.8,2-1.2c1-0.4,1.9-0.6,3.4-0.6c1.2,0,1.4-0.2,1.7-1.5c0.2-0.8,0.2-1.3,0.2-1.5
		c0-0.2,0.1-0.1,0.1,0c0.3,0.5,1,1.5,2.5,2c0.1,0,0.2,0.1,0,0.2c-0.3,0.1-0.9,0.2-1.4,0.4c-1,0.4-1.6,0.9-1.6,1.3
		c0,0.4,0.1,2.9-0.2,4.2c0,0,1.5-0.4,2.8-0.3c1.4,0,1.9,0.3,2.2,0.2c0.3-0.1,0.6-0.5,1-1.5c0.2-0.6,0.3-1.1,0.4-1.3
		c0.1-0.2,0.1-0.2,0.1-0.1c0.1,0.4,0.4,1.1,0.9,1.6c0.4,0.4,0.9,0.7,1.2,0.9c0.2,0.1,0.2,0.2,0,0.2c-0.2,0-0.5,0-0.9,0
		c-0.8,0-1.9,0.4-2.2,0.8c-0.4,0.5-0.4,1-0.6,2.4c-0.1,1.4-0.5,2.6-1.8,3.8c0,0,1.7-0.5,3.3-0.3c1.6,0.3,2.6,0.9,3.2,0.6
		c0.5-0.3,1.2-1.7,1.6-2.4c0-0.1,0.1-0.1,0.2,0c0.1,0.3,0.3,1.1,0.6,1.7c0.3,0.5,0.7,0.9,1,1.2c0.2,0.1,0.2,0.2,0,0.2
		c-0.3,0-0.7-0.1-1.1-0.1c-0.7-0.1-2.2,0.1-2.5,0.8c-0.2,0.5-0.7,2.1-1.2,3.1c-0.5,1-1.1,1.5-1.3,1.7c0,0,1.2-0.2,2.8,0.3
		c1.5,0.5,2.4,1.1,2.8,1.3c0.4,0.1,1-0.3,1.6-1c0.4-0.5,0.7-0.9,0.9-1.2c0.1-0.1,0.2-0.1,0.2,0c0,0.3,0,1.1,0.2,1.7
		c0.2,0.5,0.6,1,0.8,1.4c0.2,0.2,0.1,0.3-0.1,0.2c-0.2,0-0.6-0.1-1-0.2c-0.7-0.2-2.1-0.4-2.6,0.2c-0.5,0.6-1.4,2.9-2.7,3.8
		c0,0,1.8,0.3,3.1,1.2c1.3,1,1.9,1.6,2.9,0.9c0.8-0.6,1.2-1,1.6-1.3c0.1-0.1,0.3-0.1,0.3,0.1c-0.1,0.3-0.1,0.9,0,1.5
		c0.1,0.6,0.3,1.1,0.6,1.5c0.1,0.2,0.2,0.3-0.1,0.2c-0.2-0.1-0.4-0.2-0.7-0.3c-1.3-0.5-2.2-0.7-3.1,0.1c-0.8,0.7-1.9,2.4-3.1,3.1
		c0,0,1.1,0.4,2.2,1.5c1,1.1,1.3,1.5,2.5,1c0.8-0.4,1.5-0.8,1.8-1.1c0.2-0.1,0.2,0,0.2,0.2c-0.1,0.2-0.1,0.5-0.2,0.7
		c-0.2,0.4-0.1,1,0.1,1.6c0.1,0.3,0.2,0.5,0.2,0.7c0,0.2,0,0.3-0.1,0.2c-0.2-0.1-0.5-0.3-0.9-0.6c-0.7-0.5-1.7-0.7-2.2-0.7
		c-0.5,0-0.8,0.4-1.9,1.4c-1,1-2,1.9-3.7,1.9c0,0,1.5,0.7,2.3,1.7c0.8,1,1.2,1.6,1.5,2.1c0.3,0.5,0.7,0.5,1.5,0.1
		c0.6-0.3,1.3-0.5,1.7-0.7c0.1,0,0.2,0,0.1,0.2c-0.1,0.2-0.2,0.4-0.3,0.7c-0.4,1-0.1,2.2-0.1,2.3c0,0.2-0.1,0.2-0.2,0.1
		c-0.2-0.2-0.5-0.5-0.9-0.8c-0.7-0.6-1.7-1.1-2.2-0.9c-1.1,0.6-2.8,1.9-4.1,2.2c0,0,1,0.6,1.6,1.8c0.6,1.3,1,2.2,1.4,2.4
		c0.5,0.2,1.3,0,1.8-0.1c0.3-0.1,0.7-0.2,1-0.2c0.2,0,0.3,0,0.1,0.2c-0.2,0.2-0.4,0.5-0.6,0.9c-0.3,0.6-0.4,1.3-0.3,2
		c0,0.1,0,0.3-0.1,0.1c-0.2-0.2-0.5-0.6-0.8-1c-0.5-0.7-1.3-1.1-1.7-1.2c-0.4-0.1-0.7,0.1-1.7,0.5c-1.1,0.5-2.1,1-3.6,0.8
		c0,0,0.5,0.5,0.8,1.8c0.4,1.6,0.5,2,1,2.2c0.5,0.1,1.8,0,2.6-0.1c0.1,0,0.2,0.1,0,0.2c-0.2,0.2-0.6,0.7-1,1.3
		c-0.3,0.6-0.4,1.2-0.5,1.5c0,0.2-0.1,0.2-0.2,0c-0.2-0.4-0.5-1-0.7-1.4c-0.4-0.6-1-1.1-1.6-1.1c-0.6,0-1.8,0.7-3,0.8
		c-1.4,0.1-2.9,0.1-4.2-1.5c-0.9-1.2-1.3-2.7-0.8-4l-0.1-0.1l-0.8-0.5l0,0.2c0.5,1.7,0.2,3.1,0.2,3.1l-0.3-0.1c0,0,0.3-1.6-0.3-3.3
		l-0.1-0.1l-2.1-1.2l0.1,0.2c0.3,1.3,0.1,2.6,0.1,2.6l-0.3,0c0,0,0.2-1.6-0.3-2.9l-0.1-0.1l-2.4-1.3l0.1,0.2
		c0.5,1.2,0.4,2.6,0.4,2.6l-0.3,0c0,0,0.1-1.6-0.5-2.8l-0.2-0.3l-2.3-1.3l0.1,0.2c0.4,1.1,0.3,2.4,0.3,2.4l-0.3,0
		c0,0,0.1-1.2-0.3-2.3c0-0.1-0.3-0.6-0.3-0.6l-2.2-1.2l0.1,0.2c0.3,1,0.4,1.9,0.4,1.9l-0.3,0c0,0,0-1.2-0.5-2.3l-0.1-0.1l-1.9-1.1
		l0.1,0.2c0.5,1,0.4,1.9,0.4,1.9l-0.3,0c0,0,0.1-1.2-0.7-2.3l-0.1-0.1l-1.5-0.9l0.1,0.1c0.2,0.5,0.4,1.2,0.4,2h-0.3
		c0-1.1-0.3-1.9-0.5-2.3l-0.1-0.2l-2.3-1.3l0.1,0.1c0.2,0.4,0.5,1.2,0.5,2.4l-0.3,0c0-1-0.2-1.7-0.4-2.1c-0.1-0.3-0.5-0.7-0.5-0.7
		l-4.1-2.3l0,0c0-0.2,0-0.4-0.1-0.6l0,0l6.4,3.6l0-0.1c-0.1-0.3-0.2-0.9-0.8-1.7c-0.1-0.1-0.4-0.5-0.4-0.5l-0.5-0.2l0.2-0.4l2.6,1
		l0-0.2c-0.2-0.8-1-1.7-1.3-2l-0.2-0.2l-0.6-0.1l0.1-0.4l2.9,0.6l-0.1-0.2c-0.3-0.4-0.8-0.9-1.6-1.4l-0.3-0.1l-0.6,0l0-0.5l4.2,0
		c0,0-0.6-0.5-0.6-1.3c0-0.6,0.6-1,0.6-1l-3,0.4l0.2,0.1c1.3,0.7,1.9,1.5,1.9,1.5l-0.3,0.1c-0.2-0.3-0.9-1-2.2-1.6l-0.1-0.1
		l-0.7,0.1l-0.1-0.4l2.3-0.3l-0.1-0.1c-0.4-0.2-0.9-0.4-1.8-0.6l-0.2,0l-0.5,0.2l-0.1-0.4l3.3-1.1c0,0-0.1-0.1-0.3-0.1l-0.1,0
		l-0.1,0.1c0,0-0.3-0.4-2.5-0.9l-0.1,0.1l-0.6,0.3l-0.2-0.4l2.4-1.3l-0.1,0c-0.4-0.1-1-0.1-1.9,0l-0.3,0l-0.5,0.4l-0.3-0.4l2-1.6
		c0,0-0.9,0.1-1.4-0.3c0,0-0.1-0.1-0.1-0.1l-1.5,0.2l-0.5,0.6l-0.3-0.3l1.5-1.7l-0.1,0c-0.5-0.1-1.4,0-2.5,0.6l-0.1,0.1l-0.3,0.5
		l-0.4-0.2l1.2-1.9c0,0-0.5,0.2-1.1,0l-1.3,0.7l-0.2,0.6l-0.3-0.1l0,0c0-0.1,0-0.1,0-0.2l0,0l2.5-6.5l0-0.1c0.3,0.1,0.5,0.1,0.8,0.2
		l0,0c-0.3,0.2-0.5,0.4-0.5,0.4l-0.8,2c0,0,0.7-0.4,1.1-0.5c0.4-0.1,0.5-0.2,0.5-0.7c0-0.4,0-0.8,0-0.8s0.2,0.3,0.5,0.5
		c0.3,0.2,0.7,0.3,0.7,0.3s-0.4,0.1-0.7,0.3c-0.3,0.2-0.3,0.5-0.2,1c0.1,0.5,0.2,0.9,0.2,0.9l1.6-2.5l0,0c0.1,0.1,0.3,0.1,0.4,0.2
		l-0.1,0.1l0.1,0c1.1-0.3,1.9-0.3,1.9-0.3l0,0.3c0,0-1,0-2.2,0.4l-0.2,0.1l-1.1,1.8l0.2-0.1c0.9-0.3,1.9-0.2,1.9-0.2l0,0.3
		c0,0-1.3-0.1-2.2,0.4l-0.2,0.1l-1.4,2.3l0.2-0.1c1.1-0.4,2-0.4,2.3-0.3l0.2,0l3.4-3.8l0-0.3c0.3-2.1,0-2.7,0-2.7l0,0l0.3-0.2
		c0,0,0.4,0.5,0.1,2.6l0,0.1l1.9-2.1l0-1.4c-0.4-0.1-0.8-0.2-1.2-0.5c-0.3-0.3-0.5-0.9-0.6-1.3l-0.5,0.1l-1.5,2.4l0.2-0.1
		c1-0.4,2-0.3,2-0.3l-0.1,0.3c0,0-1-0.2-1.9,0.3c-0.1,0-0.1,0.1-0.2,0.1l0,0l-0.3,0.2l-0.6,1l-0.1,0.1c0.1-0.2,0.1-0.5,0-0.9l0-0.1
		l1.2-1.9l0-0.4c-0.2-2.5-0.7-3.1-0.7-3.1l0.2-0.3c0,0,0.6,0.5,0.8,2.9l0,0.2l1.7-2.8l0-0.3c-0.3-2.1-0.8-2.9-0.8-2.9l0.3-0.2
		c0,0,0.5,0.7,0.8,2.7l0,0.2l1.1-1.8l0-0.3c-0.3-2.8-1.1-3.5-1.1-3.5l0.2-0.2c0,0,0.8,0.6,1.1,3.3l0.1,0.2l1.6-2.5l0-0.2
		c-0.5-2.6-1.3-3.3-1.3-3.3l0.2-0.3c0,0,0.8,0.6,1.3,3.1l0.1,0.2l1.8-2.9l0.1-0.2c-1.7-1.1-1.7-3.6-1.7-3.6s-1.3,1.5-3.1,1.5
		c-0.4,0-0.8-0.1-1.1-0.2l-0.1,0.2l-0.6,1.6l0.2-0.1c1.6-0.9,3-0.7,3-0.7l0,0.3c0,0-1.4-0.2-2.9,0.7c-0.1,0.1-0.5,0.3-0.5,0.3
		l-0.9,2.3l0.2-0.1c1.3-0.5,2.5-0.5,2.5-0.5l0,0.3c0,0-1.4-0.1-2.8,0.6l-0.1,0.1l-1.1,2.8l0.2-0.1c1.3-0.8,2.5-0.8,2.5-0.8l0,0.3
		c0,0-1.2,0-2.5,0.9c-0.1,0-0.4,0.3-0.4,0.3l-1,2.6l0.1-0.1c1.1-0.7,2.3-0.7,2.3-0.7l0,0.3c0,0-1.2,0-2.2,0.7
		c-0.2,0.2-0.4,0.4-0.4,0.4l-0.7,1.9l0,0.1c0-0.2-0.1-0.7-0.5-1.6l0-0.1c-0.2-0.6-0.4-1.1-0.4-1.1c-0.1,0-0.2,0-0.2,0l0,0
		c-0.3-0.3-0.7-0.6-1.3-0.8l0,0c-0.1-0.1-0.2-0.3-0.2-0.3s-0.1,0-0.2,0.1l0,0c-0.1,0-0.2-0.1-0.3-0.1l0,0c0.1-0.2,0.4-0.3,0.4-0.3
		c0-0.1-0.1-0.2-0.1-0.3l-0.3,0.2c0,0.2,0,0.3,0,0.4l0,0c-1.4-0.4-2.2-0.5-2.6-0.3c0,0,0,0,0,0l0,0l-0.1-0.2
		c-0.2,0.2-0.8,0.6-1.7,1.7c-0.2,0.2-0.3,0.6-0.3,0.6v2.1l0,0.2c-0.1,0.1-0.1,0.3-0.2,0.5c-0.1,0.3-0.2,0.6-0.3,1l0-0.2v-1.9
		l-0.1-0.2c-0.7-1-1.4-1.4-1.6-1.5l0-0.4c0,0,0.7,0.2,1.6,1.2l0.2,0.2v-2.7l-0.5-0.4c-0.4,0.4-0.9,0.8-1.4,0.8c-0.2,0-0.3,0-0.5-0.1
		l-0.1,0.1c-0.2,0.3-0.4,0.8-0.6,1.3l0,0.1l0.6,2.8l0.1-0.3c0.5-1.2,1.3-1.9,1.3-1.9l0.2,0.3c0,0-1.1,0.9-1.4,2.4l-0.1,0.3l1,4.7
		l0.4,0.3l0,0c0,0.1,0,0.3-0.1,0.4l0,0l-0.2-0.1l0.1,0.6l0,0.1c-0.1,0.4-0.1,0.8-0.2,1.3l0-0.1l0-0.2l-1.1-0.8
		c-0.2,0.1-0.3,0.2-0.5,0.2c-0.6,0-1.1-0.4-1.1-0.4l0.9,2.2l-0.4,0.2l-0.2-0.6l-0.1-0.1c-1-0.7-1.9-1-2.3-1l-0.1,0l1.4,2.2l-0.4,0.2
		l-0.3-0.6l-1.1-0.4c-0.4,0.5-1.1,0.4-1.1,0.4l1,1.1l-0.3,0.3L92,134c0,0-0.6-0.2-0.7-0.2c-1.3-0.3-2.2,0-2.2,0l-0.1-0.3
		c0,0,0.9-0.3,2.4,0l0.2,0l-1.8-2l-0.2-0.1c-1.6-0.3-2.3,0-2.3,0l-0.1-0.3c0,0,0.6-0.3,2.1-0.1l0.2,0l-1.3-1.5c0,0-0.5-0.2-0.6-0.2
		c-1-0.2-1.5-0.1-1.7,0l-0.2-0.3c0,0,0.6-0.3,1.9,0l0.2,0l-1.6-1.8l-0.2,0c-1.4-0.3-2.2,0-2.2,0l-0.1-0.3c0,0,0.7-0.3,2-0.1l0.2,0
		l-2-2.2c0,0,0.2,1.2-0.3,2c-0.3,0.6-0.9,1-1.5,1.1l0.1,0.7l2.3,1.9l-0.1-0.3c-0.5-1.4-0.3-2.4-0.3-2.4l0.3,0.2
		c0,0.3-0.1,1.1,0.3,2.2c0,0.1,0.3,0.7,0.3,0.7l3,2.4c0,0,1.2,0,1.5,1.2l1.5,1.2l-0.3,0.4l-0.4-0.3l-0.9,0c-0.2,0.4-0.7,0.5-0.7,0.5
		l1.6,0.9l-0.2,0.4l-0.6-0.3l-0.2,0c-0.7,0.1-2.1,0.4-2.5,0.8l-0.2-0.2c0.5-0.4,1.5-0.7,2.3-0.8l0.2,0l-1.1-0.6
		c-0.7-0.2-1.3-0.7-1.3-0.7s-0.5,0-0.6,0c-1.5,0.2-1.8,0.6-1.8,0.6l0,0l-0.3-0.1c0,0,0.3-0.5,2-0.8l0.2,0l-2-1.1l-0.2,0
		c-1.7,0.2-2.1,0.6-2.1,0.6l0,0l-0.3-0.2c0,0,0.3-0.4,1.7-0.6l0.3,0l-2.2-1.2c0,0-0.7,0.1-1.1,0.2c-0.4,0.1-0.8,0.3-0.8,0.3
		c0,0.1,0,0.2-0.1,0.3c-0.3,0.8-1.2,1.2-1.2,1.2l0.5,0.6l2.7,0.9l-0.1-0.1c-0.1-0.2-0.3-0.4-0.6-0.8c-0.5-0.8-0.6-1.5-0.6-1.5l0.3,0
		c0,0.2,0.2,0.7,0.6,1.3c0.5,0.7,0.8,1.1,0.8,1.1l0.2,0.2l3.3,1.1c0,0,0.7-0.2,1.3,0.4l3.1,1l-0.1,0.4l-0.7-0.2c0,0-1.2,0.4-1.8,0.7
		l-0.1,0.1l2.3,0.3l-0.1,0.4l-0.6-0.1c0,0-0.6,0.3-0.7,0.3c-1,0.5-1.5,1.1-1.6,1.3l-0.3-0.1c0,0,0.5-0.9,2-1.6l0.1-0.1l-1.8-0.2
		c-0.6,0.2-1.3,0-1.3,0c-0.1,0-0.1,0.1-0.1,0.1c-1,0.5-1.4,1.1-1.6,1.3l-0.3-0.1c0,0,0.2-0.6,1.6-1.4l0.1-0.1l-2.1-0.3
		c0,0-0.5,0.2-0.6,0.2c-0.8,0.4-1.3,0.9-1.4,1.1l-0.4-0.1c0,0,0.5-0.7,1.6-1.3l0.1-0.1l-2.5-0.3l-0.1,0c-1.3,0.6-1.8,1.5-1.8,1.5
		l-0.2-0.1c0,0,0,0,0,0.1c0,0.4-0.2,0.7-0.4,0.9c0,0,0.3,0.3,0.9,0.7h2.9l-0.2-0.1c-0.2-0.1-0.5-0.3-0.9-0.6
		c-0.7-0.6-0.9-1.1-0.9-1.1l0.4,0c0.1,0.2,0.3,0.5,0.7,0.9c0.6,0.6,1.5,1,1.5,1h8v0.5h-0.6c0,0-0.6,0.3-0.7,0.4
		c-0.6,0.4-1,0.9-1.2,1.2l0,0.1l2.9-0.6l0.1,0.4l-0.7,0.1l-0.2,0.2c-0.8,0.9-1.1,1.5-1.2,1.9l0,0.1l2.6-1l0.2,0.4l-0.6,0.2l-0.1,0.1
		c-0.3,0.5-0.9,1.4-1.1,2.1l0,0.1l5.7-3.2l0.2-0.1c-0.3,0.3-0.5,0.6-0.8,0.9l-0.1,0l-2.9,1.6l0,0.1c-0.2,0.5-0.7,1.6-0.6,2.7l-0.3,0
		c-0.1-0.9,0.2-1.7,0.4-2.3l0.1-0.2l-2.3,1.3l-0.1,0.2c-0.2,0.5-0.5,1.3-0.4,2.2l-0.3,0c-0.1-0.7,0.1-1.4,0.3-1.9l0.1-0.2l-1.8,1
		l-0.1,0.1c-0.2,0.5-0.6,1.3-0.5,2.1l-0.3,0c0-0.6,0.2-1.3,0.4-1.8 M93.6,132.5l-0.5-0.8c0,0-0.1,0.4-0.1,0.6L93.6,132.5z
		 M68.1,154.4L68.1,154.4l-1,0.4l-0.1,0c0.2,0.9,0,1.8-0.4,2.4c0,0,0.3,0,0.7,0l0-0.2c0-0.4,0.2-1,0.3-1.5c0.2-0.4,0.3-0.8,0.4-1
		L68.1,154.4z M72.9,138.5l-0.8-0.1l-0.2,0.1c-1,0.5-1.7,1.2-1.9,1.4l0.1,0.1c0.1,0.1,0.2,0.1,0.4,0.1c0.3,0,0.6-0.3,1.2-0.8
		c0.4-0.3,0.7-0.6,1.1-0.8L72.9,138.5z M77,140.5c0.2-0.3,0.7-0.7,1.4-1.1l0.1-0.1l-2.3-0.3l0.1,0.1C76.5,139.5,76.8,140,77,140.5
		L77,140.5z M76.3,142.1c-0.2,0.2-0.4,0.3-0.5,0.4l0.1,0h1C76.5,142.2,76.3,142.1,76.3,142.1z M66.9,142.5H70l-0.1-0.1
		c-0.2-0.2-0.6-0.5-1.1-1c-0.9-0.9-1.1-1.7-1.1-1.7l0.3,0c0.1,0.2,0.3,0.6,0.7,1.1l0.1,0.1c0.1-0.3,0.2-0.6,0.2-0.9
		c0-0.3-0.1-0.7-0.1-0.9c0-0.1,0-0.2,0.1-0.1c0.1,0.1,0.3,0.2,0.5,0.4c0.1,0.1,0.1,0.1,0.2,0.2l0.1,0.1c0,0,0.7-0.7,1.6-1.3l0.2-0.1
		l-3-0.4l-0.1,0c0,0-0.8,0.5-1.4,1.2c-0.6,0.6-0.6,0.9-0.6,0.9l0,0l-0.3,0c0,0,0-0.3,0.7-1.1c0.4-0.4,0.8-0.7,1.1-1l0.1-0.1
		l-2.7-0.4l-0.1,0.1c0,0-0.7,0.4-1.4,1.1c-0.7,0.6-0.9,1.2-0.9,1.2l-0.3-0.1c0,0,0.2-0.6,1-1.3c0.5-0.4,0.9-0.8,1.2-1l0.1-0.1
		l-1.2-0.2l-0.1,0.2c-0.3,0.8-1,1.5-1.9,2c0,0,1.3,0.6,1.8,2c0.1,0.3,0.2,0.7,0.2,1.1l0.2,0h2.4l-0.1-0.1c-0.3-0.2-0.6-0.6-1-1.1
		c-0.7-0.9-1-1.7-1-1.7l0.4,0c0.1,0.2,0.3,0.8,0.9,1.5c0.5,0.7,1.1,1.1,1.3,1.3L66.9,142.5z M70.5,142.5h1.8l0.2,0
		c-0.6-0.4-1-0.9-1.4-1.4c-0.4-0.6-1-0.5-1.5-0.3c-0.2,0.1-0.5,0.2-0.7,0.3l0.1,0.1c0.8,0.8,1.3,1.1,1.3,1.1L70.5,142.5z M88.2,139
		l-1.5-0.5c0.1,0.6,0.1,1,0.1,1C87.4,139.3,88.2,139,88.2,139 M83,142.9h-0.9l0,0c0,0-0.5,0.3-1,0.7c0,0,0.2,0.2,0.5,0.3
		c0.2,0.1,0.5,0,0.7-0.3C82.5,143.5,83,142.9,83,142.9z M85.8,144c0,0.6-0.3,0.9-0.3,0.9l0.4-0.1l0.1-0.1c0.2-0.3,0.7-1,1.6-1.7
		l0.1-0.1h-2.4C85.2,142.9,85.8,143.3,85.8,144z M71,147.5c-0.3-0.2-0.8-0.4-1.4-0.8c-1-0.7-1.3-1.4-1.3-1.4l0.4,0
		c0.1,0.2,0.5,0.7,1.1,1.1c0.6,0.4,1.1,0.7,1.4,0.8c0.2,0.1,0.5,0.3,0.5,0.3l2.2-0.4l-0.2-0.1c-0.3-0.1-0.6-0.3-1-0.6
		c-0.8-0.6-1.2-1.1-1.2-1.1l0.4-0.1c0.1,0.2,0.5,0.6,1,0.9c0.8,0.5,1.4,0.8,1.4,0.8l0.1,0.1l3.3-0.6l-0.1-0.1
		c-0.3-0.1-0.7-0.3-1.3-0.7c-1-0.6-1.2-1.2-1.2-1.2l0.4,0c0.1,0.2,0.4,0.5,1,0.9c0.5,0.3,0.9,0.5,1.1,0.6c0.3,0.1,0.7,0.3,0.7,0.3
		l2.7-0.5l-0.2-0.1c-0.3-0.1-0.6-0.2-0.9-0.4c-0.8-0.5-1.1-0.9-1.1-0.9l0.3-0.1c0.1,0.1,0.4,0.4,0.9,0.7c0.7,0.4,1.7,0.7,1.7,0.7
		l1.6-0.3c0,0-0.2-0.1-0.7-0.6c-0.3-0.4-0.6-0.4-0.9-0.3c-0.2,0.1-0.8,0.5-0.8,0.5c0.2-0.6,0.1-1.1,0.1-1.1
		c-0.3,0.3-0.5,0.6-0.6,0.7l-0.3-0.1c0,0,0.3-0.6,0.8-1.1c0.2-0.2,0.4-0.3,0.5-0.4l0.1-0.1h-2.3l-0.1,0c0,0-0.6,0.2-1.1,0.8
		c-0.4,0.4-0.6,0.7-0.6,0.9l-0.3,0c0,0,0.1-0.5,0.7-1.1c0.2-0.2,0.4-0.4,0.6-0.5l0.2-0.1h-2.8c0,0-0.4,0.3-0.5,0.4
		c-0.2,0.1-0.4,0.4-0.7,0.6c-0.4,0.4-0.6,0.9-0.7,1.1l-0.4,0c0,0,0.2-0.6,0.8-1.3c0.2-0.3,0.5-0.5,0.7-0.6l0.2-0.2H75
		c0,0-0.9,0.3-1.6,0h-1l-0.2,0.1c0,0-0.6,0.3-1.3,1c-0.6,0.7-0.7,1.1-0.7,1.1l-0.3-0.1c0,0,0.1-0.5,0.8-1.3c0.3-0.3,0.6-0.6,0.8-0.7
		l0.2-0.2h-3l-0.2,0.2c0,0-0.3,0.2-0.9,1c-0.6,0.7-0.7,1.3-0.7,1.3l-0.3-0.1c0,0,0.1-0.7,0.8-1.5c0.3-0.4,0.5-0.6,0.7-0.8l0.1-0.1
		h-2.4l-0.1,0.1c0,0-0.6,0.3-1.4,1.3c-0.7,0.9-0.8,1.5-0.8,1.5l-0.3,0c0,0,0-0.6,0.8-1.6c0.4-0.5,0.7-0.8,0.9-1l0.2-0.1h-1.2l-0.1,0
		c-0.2,1-0.8,2.1-2.3,2.9c0,0,1.7,0.1,2.9,1.6c0.3,0.4,0.6,0.8,0.7,1.3l0,0.1l2.5-0.5l-0.1-0.1c-0.3-0.2-0.8-0.6-1.3-1
		c-0.8-0.7-1.1-1.4-1.1-1.4l0.4,0c0.1,0.2,0.4,0.7,1,1.2c0.7,0.6,1.4,1,1.6,1.2l0.1,0l3-0.6L71,147.5z M85.8,148.7
		c0.1,0.1,0.1,0.1,0.2,0.2c0.4,0.6,0.1,1.4,0.1,1.4l1.9-1.1l0-0.1c0-0.7,0.5-1.6,0.9-2.2l0.1-0.1l-2.7,1
		C86,148.2,85.8,148.7,85.8,148.7z M85.7,148l-0.7,0.3c0,0,0.2,0,0.5,0.2C85.5,148.5,85.6,148.2,85.7,148z M83.1,151.2
		c0.5,0.1,1,0.1,1,0.1l0.1-0.1c0,0-0.5,0-0.8-0.2c-0.4-0.2-0.8-0.2-1,0C82.4,151,82.6,151.2,83.1,151.2z M79.3,149.8l2.5-0.9l-0.2,0
		c-0.3-0.1-0.6-0.2-0.9-0.3c-0.9-0.4-1.3-0.8-1.3-0.8l0.4-0.1c0.2,0.1,0.5,0.4,1,0.6c0.8,0.3,1.5,0.4,1.5,0.4l0.1,0l4.3-1.6l0-0.2
		c0.1-0.3,0.3-1.1,1.2-2l0.1-0.1l-2.6,0.5l-0.3,0.2c-0.7,0.8-1,1.5-1.1,1.8l-0.3,0c0,0,0.2-0.9,1-1.8l0.1-0.1l-1.8,0.4l-0.4,0.2
		c0,0-0.2,0.1-0.6,0.7c-0.3,0.4-0.5,0.8-0.5,1l-0.4,0.1c0,0,0.1-0.6,0.6-1.3c0.1-0.2,0.2-0.3,0.3-0.4l0.1-0.2l-2.2,0.4l-0.1,0
		c0,0-0.4,0.3-0.8,0.9c-0.3,0.4-0.4,0.9-0.5,1.1l-0.3,0c0,0,0.1-0.6,0.5-1.3c0.1-0.2,0.3-0.3,0.4-0.5l0.1-0.1l-3.1,0.6
		c0,0,1,0.4,1.3,1.5c0.1,0.2,0.1,0.5,0.1,0.7C77.6,149.3,78.2,149.6,79.3,149.8z M77.6,149.6c-0.1,0.6-0.5,1-0.5,1l1.7-0.6
		C78.4,149.9,77.6,149.6,77.6,149.6z M66.9,154.4l2.3-0.8l-0.1-0.1c-2.3-0.9-2.8-1.9-2.8-1.9l0.4-0.1c0.2,0.3,1,1.1,3,1.8l0.1,0.1
		l2.7-1c-1.2-0.4-2.1-1-2.1-1c-0.1,0.1-0.3,0.3-0.3,0.4c-0.1,0.1-0.1,0.1-0.1,0c0-0.2,0-0.4,0-0.6c0,0-0.1,0-0.2-0.2
		c-0.2-0.2-0.3-0.4-0.3-0.4l0.3-0.1c0.1,0.1,0.2,0.2,0.2,0.2c-0.1-0.3-0.3-0.7-0.4-0.9c-0.1-0.1,0-0.1,0.1-0.1
		c0.6,0.2,1.3,0.6,1.7,0.5c0.4-0.1,0.5-0.6,0.9-1.3c0.5-0.9,0.8-1,0.8-1l-3,0.6c0,0-0.2,0.3-0.3,0.4c-0.9,1.4-0.9,2.3-0.9,2.3
		l-0.3,0c0,0,0-1,1-2.4l0.1-0.2l-2.5,0.5l0,0c0,0-0.5,0.6-1,1.5c-0.3,0.6-0.4,1.2-0.5,1.5l-0.3,0.1c0,0,0-0.9,0.5-1.8
		c0.3-0.5,0.5-0.9,0.7-1.2l0.1-0.1l-1.2,0.2l0,0.1c0,0.9-0.4,1.9-1.3,2.8c0,0,1.6,0.2,2.5,1.5C66.6,153.9,66.7,154.2,66.9,154.4
		L66.9,154.4z M73,152.1l1.4-0.5c-0.9-0.1-1.5-0.6-2.2-0.9c-0.6-0.3-1-0.1-1.5,0.3c0,0-0.1,0.1-0.1,0.1
		C70.6,151.1,71.2,151.6,73,152.1z M70.3,158.9l1.9-1.1l-0.2-0.1c-0.4-0.1-0.9-0.3-1.4-0.5c-1.1-0.5-1.5-1-1.5-1l0.3-0.1
		c0.1,0.1,0.5,0.5,1.3,0.8c0.8,0.3,1.5,0.5,1.8,0.6l0.2,0l2.4-1.3l-0.1,0c-0.4-0.1-0.8-0.2-1.4-0.4c-1.3-0.4-1.7-0.9-1.7-0.9
		l0.3-0.2c0,0,0.4,0.4,1.5,0.8c0.8,0.3,1.5,0.4,1.8,0.5l0.1,0l2-1.1l-0.2,0c-0.3,0-0.6-0.1-1-0.2c-1-0.3-1.5-0.8-1.5-0.8l0.3-0.1
		c0.2,0.1,0.6,0.4,1.2,0.6c0.7,0.2,1.2,0.3,1.5,0.3l0.1,0l2.7-1.5l-0.2,0c-0.4,0-0.8-0.1-1.3-0.3c-0.9-0.3-1.5-0.8-1.5-0.8l0.3-0.1
		c0.2,0.1,0.6,0.5,1.2,0.6c0.9,0.2,1.9,0.3,1.9,0.3l0,0l2.2-1.2c0,0-0.8-0.1-1.4-0.3c0,0-0.2,0.3-0.3,0.5c0,0-0.1-0.6-0.2-0.7
		c0,0-0.3-0.1-0.5-0.3l0.2-0.2l0.1,0.1c0,0,0.4,0.1,0.7,0c0.3-0.1,0.2-0.4,0.5-0.9c0.2-0.5,0.6-0.9,0.6-0.9l-2.3,0.8
		c0,0-0.2,0.2-0.6,0.9c-0.4,0.7-0.4,1.3-0.4,1.3l-0.3,0c0,0,0-0.6,0.4-1.5c0.1-0.2,0.2-0.3,0.2-0.4l0.1-0.1l-2.4,0.9l-0.1,0.1
		c-0.2,0.2-0.4,0.7-0.6,1.1c-0.3,0.7-0.4,1.2-0.4,1.4l-0.3,0.1c0,0,0-0.7,0.4-1.6c0.1-0.2,0.3-0.5,0.4-0.7l0.1-0.1l-2.7,1l-0.2,0.2
		c-0.2,0.3-0.5,0.7-0.7,1.1c-0.3,0.7-0.4,1.2-0.4,1.4l-0.3,0.1c0,0,0-0.7,0.4-1.7c0.1-0.3,0.3-0.6,0.4-0.8l0.1-0.2l-2.7,1l-0.1,0.1
		c-0.1,0.2-0.4,0.6-0.5,1.1c-0.3,0.8-0.3,1.7-0.3,1.7h-0.3c0,0,0-1,0.3-1.8c0.1-0.3,0.2-0.5,0.3-0.7l0.1-0.2l-2.3,0.9l-0.2,0.3
		c0,0-0.3,0.5-0.5,1.2c-0.2,0.6-0.3,1.2-0.3,1.7l0.1,0c0.6,0.1,1.3,0.4,1.9,1c0.2,0.2,0.4,0.4,0.5,0.7L70.3,158.9z M75.3,135.9
		c0,0,0.2,1,1.6,2.3c0.1,0.1,0.7,0.6,0.7,0.6l2.8,0.4l-0.2-0.2c-1.3-1.1-1.6-2-1.6-2l0.4,0.1c0.1,0.3,0.5,0.9,1.4,1.7
		c0.1,0.1,0.6,0.5,0.6,0.5l2.7,0.4c-0.3-0.3-0.3-0.6-0.3-0.6c-0.1,0.1-0.2,0.2-0.2,0.2l-0.3-0.1c0.1-0.1,0.3-0.3,0.3-0.3
		c-0.1-0.2-0.2-0.2-0.5-0.3c-0.2-0.1-1,0.2-1,0.2c0.5-0.4,0.4-1.2,0.4-1.2s0.2,0.3,0.5,0.5c0.3,0.3,0.6,0.2,0.9,0
		c0.3-0.2,0.7-0.4,0.7-0.4l-1.4-0.5l-0.3,0c-1.5,0.4-1.9,0.9-1.9,0.9l-0.3-0.2c0,0,0.3-0.5,1.7-0.9l0.2-0.1l-2.3-0.8
		c0,0-0.5,0.2-0.7,0.2c-1.2,0.4-1.5,0.9-1.5,0.9l-0.3-0.2c0,0,0.3-0.5,1.7-1l0.2-0.1l-2.6-0.8c0,0-0.4,0.1-0.5,0.1
		C75.9,135.6,75.6,135.7,75.3,135.9L75.3,135.9z M66.3,137c-1.4-1.5-1.6-3-1.6-3l0.3,0c0.1,0.3,0.3,1.5,1.4,2.6
		c0.1,0.1,0.6,0.6,0.6,0.6l3.1,0.4l-0.1-0.1c-1.6-1.5-1.9-3-1.9-3l0.3,0c0.1,0.3,0.5,1.5,1.8,2.7c0.1,0.1,0.5,0.5,0.5,0.5l2.3,0.3
		l-0.1-0.1c-1.4-1.3-1.6-2.4-1.6-2.4l0.3,0c0.1,0.3,0.5,1.2,1.5,2.1c0.1,0.1,0.5,0.4,0.5,0.4l0.3,0c0,0,0.9-0.1,1.5,0.2l1.5,0.2
		l-0.2-0.1c-1.2-1-1.6-2-1.7-2.4l0-0.1c-0.6,0.4-0.8,0.7-0.8,0.7l-0.3-0.2c0,0,0.5-0.7,2.1-1.3l0.1-0.1l-2.8-0.9l-0.1,0
		c-1.7,0.5-2.4,1.1-2.5,1.4l-0.3-0.1c0,0,0.4-0.8,2.3-1.4l0.2-0.1l-2.9-0.9l-0.1,0c-1.6,0.7-2.2,1.4-2.3,1.6l-0.3-0.1
		c0,0,0.4-0.8,2.1-1.7l0.1-0.1l-2.6-0.8c0,0-0.3,0.1-0.4,0.2c-1.5,0.7-2.2,1.5-2.4,1.7l-0.4-0.1c0,0,0.7-1,2.5-1.9l0.2-0.1l-1-0.3
		l-0.1,0c-0.4,0.8-1.3,1.5-2.9,2c0,0,1.2,0.9,1.5,2.3c0.1,0.3,0.1,0.6,0.1,0.9l0,0.1l2.6,0.4L66.3,137z M77.6,134.9
		c-0.2,0.1-0.5,0.1-0.5,0.1l0.7,0.2L77.6,134.9z M71.6,130.9c0.1-0.4,0.2-0.8,0.2-1c0-0.1,0-0.1,0.1,0c0.1,0.2,0.3,0.4,0.3,0.4
		c0.3-0.2,1.1-0.7,2.4-0.9l0.2,0l-2.7-1.4l-0.1,0c-2.1,0.5-2.5,1.2-2.5,1.2L69,129c0,0,0.4-0.7,2.4-1.3l0.1-0.1l-2.3-1.2l-0.1,0
		c-2.2,0.6-2.8,1.2-3,1.3l-0.3-0.1c0,0,0.3-0.7,2.8-1.5l0.2,0l-1.7-0.9l-0.1-0.1c-0.6,0.9-1.8,1.4-3.6,1.4c0,0,1.6,1,2,2.7
		c0.1,0.6,0.2,1.2,0,1.8l0.1,0l2.4,0.8l-0.1-0.1c-0.2-0.3-0.5-0.7-0.7-1.4c-0.4-1-0.4-1.9-0.4-1.9l0.3,0.1c0,0.2,0.1,0.9,0.4,1.7
		c0.2,0.6,0.4,1,0.6,1.3c0.1,0.2,0.4,0.6,0.4,0.6l2.9,0.9l-0.1-0.2c-0.2-0.3-0.6-0.9-0.9-1.5c-0.5-1.1-0.4-1.6-0.4-1.6l0.3,0
		c0,0-0.1,0.5,0.4,1.5c0.1,0.2,0.2,0.5,0.4,0.7C70.9,131.9,71.3,131.5,71.6,130.9z M70.9,132c0.4,0.7,0.8,1.2,0.8,1.2L74,134
		c0,0-0.4-0.5-0.7-1.1c-0.3-0.6-0.4-1.1-0.6-1.2c-0.2-0.1-0.8,0-1.2,0.1C71.3,131.8,71.1,131.9,70.9,132L70.9,132z M76.4,130.3
		l-1.3-0.7c0,0-0.5,0-0.6,0.1c-1.2,0.2-2,0.6-2.2,0.8c0,0,0.2,0.2,0.5,0.5c0.3,0.3,0.5,0.3,1.2,0C74.6,130.6,75.2,130.3,76.4,130.3z
		 M79.8,132.7c0.3-0.1,0.9-0.2,0.9-0.2l-1.8-0.9c0,0,0.3,0.7,0.3,1.3C79.2,132.9,79.5,132.8,79.8,132.7z M87,133.2l-1.7-1.4l-0.2,0
		c-1.7,0-2.2,0.2-2.2,0.2l-0.2-0.3c0,0,0.4-0.3,1.9-0.3l0.2,0L83,130l-0.1,0c-1.7,0-2.3,0.3-2.3,0.3l-0.2-0.3c0,0,0.5-0.3,1.9-0.3
		l0.2,0l-2-1.6l-0.2,0c-2-0.1-2.7,0.4-2.7,0.4l-0.2-0.2c0,0,0.6-0.6,2.4-0.5l0.2,0l-2.3-1.8l-0.1,0c-2.5,0-2.9,0.4-2.9,0.4l-0.3-0.2
		c0,0,0.2-0.5,2.7-0.5l0.2,0l-2.4-1.9l-0.1,0c-2,0.1-2.7,0.7-2.7,0.8l-0.2-0.2c0,0,0.6-0.6,2.6-0.8l0.1,0l-2-1.6c0,0-0.4,0-0.4,0
		c-2.2,0.1-2.9,0.8-2.9,0.8l-0.2-0.2c0,0,0.7-0.7,2.9-0.9l0.2,0l-1.5-1.2l-0.1-0.1c-0.9,0.9-2.3,1.1-4,0.8c0,0,1,1.1,0.8,2.8
		c0,0.4-0.2,0.8-0.3,1.2l0.1,0l3.1,1.6l-0.1-0.1c-0.9-1.8-0.6-3.5-0.6-3.5L70,123c0,0.4-0.1,1.7,0.5,3.1c0.1,0.1,0.4,0.7,0.4,0.7
		l2.6,1.4l-0.1-0.2c-1-1.7-0.8-3.5-0.8-3.5l0.3,0.1c0,0.4-0.1,1.7,0.6,3c0.1,0.2,0.5,0.8,0.5,0.8l2.1,1.1l-0.1-0.2
		c-1-1.6-0.8-2.7-0.8-2.7l0.3,0.1c0,0-0.2,1.1,0.7,2.5c0.1,0.1,0.5,0.7,0.5,0.7l2.8,1.5l-0.1-0.2c-0.9-1.3-0.8-3-0.8-3l0.3,0.1
		c0,0.4,0.1,1.5,0.7,2.6c0.1,0.2,0.6,0.8,0.6,0.8l2.3,1.2l-0.1-0.2c-0.8-1.3-0.8-2.4-0.8-2.4l0.3,0.1c0,0.3,0.1,1.1,0.6,2
		c0.1,0.1,0.6,0.8,0.6,0.8l3,1.6c0,0-0.1-0.4-0.1-0.8c-0.1-0.4-0.2-0.5-0.4-0.6c-0.2-0.1-0.2,0-0.2,0s-0.4,0.2-0.6,0.3l-0.2-0.2
		c0,0,0.2-0.2,0.4-0.2c0,0-0.3-0.1-0.5,0c0,0,0.7-0.4,0.8-1.1c0,0,0.1,0.5,0.3,0.8c0.1,0.3,0.5,0.2,0.8,0.2
		C86.8,133.2,87,133.2,87,133.2z M89.6,135.3l-0.3-0.2c0,0.1,0,0.2,0,0.3L89.6,135.3z M78.3,122.1c0.3-0.1,1.2-0.3,2.7-0.1l0.2,0
		l-1.9-2.2l-0.1,0c-2.2-0.2-2.8,0.3-2.8,0.3l0,0l-0.2-0.2c0,0,0.5-0.5,2.6-0.4l0.2,0l-1.8-1.9c0,0-0.4,0-0.5,0
		c-2.1-0.1-2.9,0.4-2.9,0.4l-0.2-0.3c0,0,0.9-0.5,3.1-0.4l0.2,0l-1.2-1.3l-0.1-0.1c-1.1,0.8-2.8,0.8-4.3,0.1c0,0,0.7,1.8,0,3.4
		c-0.1,0.2-0.1,0.3-0.2,0.4l0.1,0.1l2.6,2.1l0-0.2c0-0.4-0.1-1-0.1-1.7c0-1.2,0.3-1.6,0.3-1.6l0.3,0.2c0,0-0.2,0.4-0.3,1.4
		c0,1.2,0.1,2,0.1,2.1l0,0.2l2.4,1.9l0-0.2c-0.1-0.4-0.2-1-0.2-1.7c-0.1-1.3,0.3-1.8,0.3-1.8l0.3,0.2c0,0-0.3,0.5-0.2,1.6
		c0,0,0.5,0,0.9-0.5c0.3-0.3,0.5-0.6,0.6-0.9c0.1-0.1,0.1-0.1,0.2,0c0,0.2,0.1,0.4,0.1,0.6C78.2,121.8,78.3,122.1,78.3,122.1z
		 M78.3,124.2c0-0.8,0.1-1.2,0.1-1.2s-0.2-0.3-0.9-0.5c-0.6-0.2-1.1-0.2-1.1-0.2c0.1,1.2,0.3,1.9,0.3,1.9l0.1,0.2l1.8,1.5
		C78.6,125.9,78.4,125.3,78.3,124.2z M82.1,123.1l-0.6-0.7l-0.1,0c-1.6-0.3-2.5-0.1-2.9,0c0,0,0.2,0.2,0.3,0.3
		c0.2,0.1,0.8-0.1,1.7,0C81.5,122.8,82.1,123.1,82.1,123.1z M81.4,127.9c-0.1,0-0.3,0-0.4,0l0.5,0.4L81.4,127.9z M90.5,127.9
		c-1.2-0.6-2.1-0.5-2.1-0.5l0-0.3c0,0,0.8-0.1,1.8,0.3l0.2,0.1l-1.3-2l-0.2-0.1c-1.2-0.5-2.2-0.4-2.2-0.4l0-0.3c0,0,0.8-0.1,2,0.3
		l0.2,0.1l-1.4-2.2l-0.1-0.1c-1.7-0.6-2.8-0.4-2.8-0.4l-0.1-0.3c0,0,1-0.2,2.5,0.3l0.1,0.1l-1.5-2.5l-0.1-0.1
		c-1.5-0.7-2.6-0.6-2.9-0.5l-0.2-0.3c0,0,1.1-0.2,2.7,0.3l0.1,0l-1.5-2.4l-0.2-0.1c-1.7-0.5-2.9-0.1-2.9-0.1l-0.1-0.3
		c0,0,1-0.3,2.7,0.1l0.2,0l-1.4-2.2l-0.1-0.1c0,0-2.1-0.6-3.3-0.2l-0.1-0.3c0.9-0.3,2.4,0,3.1,0.1l0.2,0l-1-1.6l-0.2,0.1
		c-1,0.4-2.4,0.3-4.1-0.9c0,0,0.5,2.1-0.5,3.5c-0.1,0.1-0.2,0.2-0.3,0.3l0.1,0.1l2.1,2.4l0-0.2c0.1-2.7,0.9-3.3,0.9-3.3l0.2,0.2
		c0,0-0.7,0.7-0.8,3.4l0,0.2l2.1,2.3l0-0.2c-0.2-2.6,0.5-3.5,0.5-3.5l0.3,0.2c0,0-0.6,0.8-0.4,3.3c0,0.1,0.1,0.7,0.1,0.7l1.4,1.6
		l0-0.2c-0.1-1.7,0.2-2.5,0.4-2.7l0.3,0.1c0,0-0.5,0.7-0.3,2.8c0,0.1,0,0.4,0,0.4l2.2,2.5c0,0,0-0.5,0-0.7c-0.2-2,0.3-2.4,0.3-2.4
		l0.2,0.2c0,0-0.3,0.4-0.2,2.2c0,0.2,0.1,1.1,0.1,1.1l1.8,2l0-0.3c-0.3-2.1,0.1-2.4,0.1-2.4l0.2,0.2c0,0-0.2,0.4,0,2
		c0,0.2,0.2,0.9,0.2,0.9l2.6,2.8c0,0,0-0.4,0.1-0.9c0-0.4-0.1-0.6-0.1-0.6c-0.2,0-0.3,0-0.3,0l0-0.3c-0.2-0.1-0.7-0.3-0.7-0.3
		s0.4-0.1,0.6-0.2c0.3-0.2,0.5-0.6,0.5-0.6s-0.1,0.3,0,0.7c0.1,0.4,0.3,0.3,0.8,0.4c0.6,0.1,0.9,0.3,0.9,0.3l-1.1-1.7L90.5,127.9z
		 M85.9,115.1c0.5-0.2,0.8-0.5,1-0.7c0.1-0.1,0.1,0,0.1,0.1c-0.1,1.1,0,2,0,2s0.5-0.2,1.3,0c0.8,0.2,1.7,0.7,1.7,0.7l-1.1-2.8
		l-0.2-0.1c-1.2-0.5-2.3-0.6-2.6-0.6l-0.1-0.3c0,0,1.2,0,2.6,0.5l0.2,0.1l-0.9-2.2l-0.2-0.1c-1.5-1-3.2-0.9-3.2-0.9l0-0.3
		c0,0,1.6-0.1,3.1,0.8l0.1,0.1l-0.6-1.6l0-0.1c-1.7,0.4-3.7-0.9-4.3-1.9c0,0,0.4,1.9-0.4,3.4c-0.3,0.4-0.6,0.8-1,1.1l0.1,0.2
		l1.6,2.6l0-0.2c0.2-1.7,1.3-3.1,1.3-3.1l0.2,0.3c-0.3,0.4-1.1,1.7-1.2,3.2l0,0.3l1.5,2.3l0-0.1c0.1-0.8,0.2-1.4,0.4-1.9l0.1-0.2
		c-0.1-0.1-0.2-0.1-0.2-0.1c-0.1-0.1-0.1-0.1,0-0.1c0.1,0,0.2,0,0.3,0l0.1-0.1c0.2-0.4,0.3-0.6,0.4-0.7l0.3,0.2c0,0-0.1,0.1-0.3,0.4
		L85.9,115.1z M86.6,117.3c0.2-0.4,0-1-0.5-1.3c-0.1-0.1-0.3-0.2-0.4-0.3l-0.1,0.1c-0.2,0.6-0.4,1.4-0.4,2.4l0,0.1l0.9,1.5
		C86.1,119.7,86.2,118.4,86.6,117.3z M89.6,117.3c0.3,0.2,0.7,0.6,0.7,0.6l-0.1-0.4L89.6,117.3z M91.3,120.5l-0.2-0.5
		c0,0,0,0.2-0.1,0.4L91.3,120.5z M88.5,122.8c0-0.3,0.1-0.7,0.1-0.7c-0.7-0.1-1.2-0.4-1.2-0.4l1.1,1.7
		C88.4,123.4,88.4,123.1,88.5,122.8z M93.2,130.8c0,0,1,0.1,2.3,0.8l0.2,0.1l-1-2.5l-0.1-0.1c-1.3-0.9-2.1-0.8-2.1-0.8l0-0.3
		c0,0,0.7-0.1,2,0.6l0.1,0.1l-0.7-1.9l-0.1-0.1c-1.3-0.9-2.1-0.9-2.1-0.9l0-0.3c0,0,0.6-0.1,1.7,0.6l0.2,0.1l-0.9-2.2l-0.2-0.1
		c-1.1-0.7-2-0.7-2-0.7l0-0.3c0,0,0.9,0,1.9,0.6l0.1,0.1l-0.9-2.5l-0.5-0.3c-0.1,0.4-0.4,1-0.9,1.3c-0.4,0.2-0.7,0.3-1.1,0.3
		c0,0-0.1,0.5-0.1,0.9c-0.1,0.4-0.1,0.8-0.1,0.8l1.5,2.4l0-0.3c0-1.6,0.5-2.4,0.5-2.4l0.2,0.3c-0.1,0.2-0.5,1-0.4,2.4
		c0,0.1,0,0.6,0,0.6l2.5,4.1L93.2,130.8z M98.2,131l-0.3-1.3c0,0-0.1,0.4-0.4,0.8L98.2,131z M95.5,127.7c0.3-0.3,0.1-0.7-0.1-0.9
		c-0.2-0.3-0.6-0.6-0.6-0.6s0.3,0.1,0.7,0c0.4-0.1,0.6-0.3,0.6-0.3s-0.2,0.5-0.2,0.8c0,0.3,0.2,0.3,0.8,0.6c0.6,0.4,0.8,0.5,0.8,0.5
		l-0.4-2l-0.2-0.2c-0.6-0.7-1.5-1-1.8-1.2l-0.1-0.4c0,0,0.9,0.2,1.7,0.9l0.2,0.1l-0.5-2.3l-0.1-0.1c-1-1-2.1-1.2-2.1-1.2l0.1-0.3
		c0,0,0.8,0.2,1.8,0.9l0.1,0.1l-0.5-2.5l0-0.1c-1.2-1.2-2.5-1.4-2.5-1.4l0-0.3c0,0,1.1,0.1,2.2,1.1l0.2,0.1l-0.6-2.7l-0.1-0.1
		c-1.2-1.4-2.7-1.6-2.7-1.6l0-0.3c0,0,1.2,0.2,2.4,1.2l0.2,0.2l-0.6-2.9l-0.1-0.1c-1.5-1-2.7-1.1-2.7-1.1l0-0.3c0,0,1.2,0,2.6,1
		l0.1,0.1l-0.5-2.3l-0.1-0.1c-1.1-1.2-3.2-1.6-3.2-1.6l0.1-0.3c0,0,1.8,0.3,3,1.3l0.1,0.1l-0.3-1.3l0-0.1c-1.7,0.1-3-1.1-3.6-2.1
		c0,0-0.3,2.2-2,3.1l-0.2,0.1l1.1,2.9l0.1-0.2c0.6-1.8,1.9-2.7,1.9-2.7l0.2,0.3c0,0-1.3,1.1-1.9,3l-0.1,0.3l1,2.7l0.1-0.2
		c0.8-2.4,1.6-2.9,1.6-2.9l0.2,0.3c0,0-0.9,0.7-1.7,3.3l0,0.1l0.8,2.1l0.1-0.2c0.4-1.7,1.3-2.4,1.3-2.4l0.2,0.2c0,0-0.9,0.8-1.3,2.7
		l0,0.4l1.1,2.9l0.1-0.2c0.4-1.6,1.3-2.7,1.3-2.7l0.3,0.2c0,0-1.2,1.5-1.3,3.3l0,0.2l0.9,2.4l0.1-0.2c0.2-1.3,1-2.2,1-2.2l0.3,0.2
		c0,0-0.9,1.2-0.9,2.6l0,0.4l1.2,3.3C95,128.9,95.2,128.1,95.5,127.7z M99.7,115.2c0.1,0,0.1,0.1,0.2,0.1c0.1,0,0.2-0.1,0.3-0.2l0,0
		l0.4,0.7c0.1-0.1,0.2-0.2,0.3-0.3l-0.4-0.8l0,0c0.1,0,0.1,0,0.2-0.1l0,0l0.4,0.7c0.1-0.1,0.2-0.2,0.4-0.3l-0.3-0.8l0,0
		c0.1,0,0.1,0,0.2-0.1l0,0l0.3,0.7c0.2-0.1,0.3-0.2,0.4-0.2l-0.2-0.8l0,0c0,0,0,0,0.1,0c0,0,0.1,0,0.1,0l0,0l0.2,0.8
		c0.1,0,0.2-0.1,0.2-0.1l0,0.3c0,0-0.1,0-0.1,0l0.9,3.3l-0.4-4.5l0,0c0,0,0,0,0.1,0c0.1,0,0.1,0,0.1,0l0,0l0.1,1
		c0.1,0.1,0.2,0.2,0.4,0.4l0-1.3l0,0c0,0,0.1,0,0.1,0c0,0,0.1,0,0.1,0l0,0l0,1.5c0.1,0.1,0.2,0.3,0.4,0.5l0.2-1.8l0,0
		c0,0,0.1,0,0.1,0c0,0,0,0,0.1,0l0,0l-0.3,2.1c0.1,0.1,0.2,0.3,0.2,0.4l0.6-2.1c-0.1-0.2-0.2-0.4-0.3-0.5l0,0c0,0,0-0.1,0-0.1
		c0-0.2-0.1-0.3-0.3-0.3l0,0c-0.7-1.1-1.2-1.4-1.4-1.5c0,0-0.1,0-0.2,0c-0.3,0.1-1.2,0.5-2.4,2.1c0,0.1-0.3,0.4-0.3,0.4v0.1l0,0
		c0,0,0,0,0,0.1c0,0,0,0,0,0.1l0,0v0.2l0,0c-0.1-0.1-0.2-0.1-0.3-0.1c-0.1,0-0.1,0-0.2,0.1l0,0v-2.2l0-0.1c-0.8-1.1-2-1.6-2.4-1.8
		l0-0.4c0,0,1.3,0.4,2.3,1.5l0.1,0.1v-2.6l-0.1-0.1c-1.1-1.3-2.3-1.8-2.6-1.9l0-0.3c0,0,1.3,0.3,2.7,1.8l0.1,0.1v-1.1l0-0.2
		c-2.2-0.2-3-2.5-3-2.5s-0.6,2.4-2.6,3.1c-0.1,0-0.2,0.1-0.3,0.1l0,0.2l0.5,2.5l0.1-0.2c1.2-2,2.3-2.4,2.3-2.4l0.1,0.3
		c0,0-1.1,0.4-2.2,2.3c0,0.1-0.3,0.5-0.3,0.5l0.6,2.9l0.1-0.2c0.4-0.9,0.8-1.5,1.2-1.9l0.1-0.1c-0.1-0.1-0.2-0.3-0.3-0.4
		c-0.1-0.1-0.1-0.2,0-0.1c0.1,0,0.3,0.1,0.5,0.1l0.2,0c0.2-0.2,0.4-0.3,0.4-0.3l0.1,0.3l0.1,0c0.3,0,0.5-0.1,0.7-0.2
		c0.1,0,0.1,0.1,0.1,0.1c-0.3,0.6-0.7,1.3-0.7,1.6c0,0.4,0.3,0.4,0.9,0.9c0.6,0.5,1.2,1.3,1.2,1.3L99.7,115.2L99.7,115.2z
		 M96.6,112.4c-0.4,0.5-0.9,1.2-1.3,2.3l0,0.1l0.2,1c0,0,0.5-0.8,1-1.4c0.5-0.5,0.6-0.9,0.6-1.2c0-0.3-0.2-0.6-0.4-0.9L96.6,112.4z
		 M99.7,118.8v-0.6c0,0-0.1,0.2-0.3,0.4L99.7,118.8z M96.5,120.4c0.1-0.3,0.3-0.6,0.4-0.8l0-0.1c-0.5-0.2-0.9-0.6-0.9-0.6l0.4,1.7
		L96.5,120.4z M116.3,151.2c1.8,0,2.7-0.7,2.7-0.7l0.2,0.2c0,0-0.7,0.6-2.3,0.7l-0.2,0l2.3,1.3l0.2,0c2-0.2,2.9-1,2.9-1l0.2,0.2
		c0.1-0.1,0.3-0.3,0.5-0.4c0,0-0.1-0.3-0.5-0.8l-2.5-0.9l0.1,0.1c0.7,1,0.7,1.9,0.7,1.9l-0.3,0c0,0,0-1.1-1-2.2l0,0l-2.2-0.8
		l0.1,0.1c0.6,0.9,0.7,1.8,0.7,1.8l-0.3,0c0,0-0.1-0.9-0.6-1.7c-0.1-0.1-0.4-0.5-0.4-0.5l-1.9-0.7l0.1,0.2c0.5,0.9,0.6,1.9,0.6,1.9
		l-0.3,0c0,0-0.2-1.4-0.9-2.2l-0.1-0.1l-2.6-1l0.1,0.2c0.6,0.9,0.8,1.6,0.8,1.9l0,0.2L116.3,151.2L116.3,151.2z M132.4,154.6
		c0.3,0.6,0.6,1.5,0.8,2.5l0,0.2c0.4,0,0.6,0,0.6,0s-0.7-1.2-0.5-2.4l-0.1,0l-1-0.3L132.4,154.6z M119.6,153.2l2.6,1.5
		c0,0-0.7-1.4,0-2.4l-0.2,0.2c-0.4,0.2-1.1,0.5-2.1,0.7L119.6,153.2z M123.2,151.5c0.3-0.1,0.5-0.2,0.5-0.2l-0.9-0.3
		C123.1,151.2,123.2,151.5,123.2,151.5z M128.9,155.3c0.5,0,0.8-0.1,0.8-0.1c-0.1-0.5-0.3-1.2-0.7-1.9l-0.1-0.1l-2.1-0.8
		c0,0,0.4,0.7,0.6,1.4c0.2,0.7,0.3,1,0.5,1.1c0,0,0.2-0.2,0.2-0.3l0.2,0.2c0,0,0,0.1-0.2,0.3C128.2,155.2,128.4,155.2,128.9,155.3z
		 M125.2,156.2l2.4,1.3c0,0,0.4-0.1,0.6-0.1c0.6-0.2,1.9-0.6,2.7-1.4l0.2,0.2c-0.9,0.9-2.3,1.4-2.9,1.5l-0.1,0l2,1.1l0.1,0.1
		c0.2-0.3,0.4-0.6,0.7-0.8c0.7-0.6,1.4-0.8,1.9-0.9l0-0.2c-0.2-1.1-0.7-2.2-0.9-2.7l-0.1-0.1l-2.4-0.9l0.1,0.2
		c0.7,1.4,0.6,2.6,0.6,2.6l-0.3,0c0,0,0-0.3,0-0.6c0,0-0.5,0.4-0.8,1.4c0,0.1-0.1,0.2-0.2,0c-0.1-0.2-0.2-0.4-0.4-0.7
		c-0.3-0.5-0.5-0.6-0.6-0.7c-0.2-0.1-0.3,0.1-1,0.4C126.1,156,125.2,156.2,125.2,156.2z M120.2,147.6c-0.1,0.2-0.1,0.4-0.1,0.4
		c0.4-0.2,0.5-0.4,0.5-0.4l0.3,0.2c0,0-0.4,0.6-2.2,1.1l-0.2,0.1l2.5,0.9l0.2-0.1c2.3-0.5,2.9-1.4,3-1.4l0.3,0.2
		c0,0-0.5,0.9-2.6,1.4l-0.2,0.1l3.1,1.1l0.2-0.1c2.3-0.6,2.7-1.3,2.7-1.3l0.3,0.1c0,0-0.3,0.8-2.4,1.4l-0.2,0.1l2,0.7l0.1,0
		c2.7-0.7,3.5-1.8,3.5-1.8l0.3,0.2c0,0-0.6,1-3.1,1.8l-0.1,0.1l2.8,1l0.2-0.1c2-0.7,2.8-1.7,2.9-1.9l0.3,0.1c0,0-0.7,1.1-2.8,1.9
		l-0.2,0.1l2.2,0.8l0.1,0c0.1-0.2,0.2-0.5,0.5-0.7c1.2-1.4,2.5-1.5,2.5-1.5s-1.5-1.4-1.4-2.9l-0.2,0L134,149l0.1,0.2
		c0.4,0.6,1.1,1.8,1.2,2.8l-0.3,0c-0.1-1.3-1.4-3-1.4-3l-0.1-0.1l-2.5-0.5l0.1,0.2c0.9,1.4,0.9,2.4,0.9,2.4l-0.3,0
		c0,0,0-1.1-1.2-2.7l-0.1,0l-2.9-0.6l0.1,0.2c1.1,1.3,1.2,2.3,1.2,2.3l-0.3,0c0,0-0.2-1.2-1.5-2.6l-0.1-0.1l-2.8-0.5l0.1,0.1
		c1.1,1.2,1.1,2.2,1.1,2.2l-0.3,0c0,0,0-1.1-1.3-2.3l-0.2-0.1l-2.5-0.5l0.1,0.1c0.7,0.8,1,1.7,1,1.7l-0.3,0.1c0,0-0.3-1.1-1.2-1.9
		l-0.2-0.2l-2.1-0.4c0,0,0.3,0.3,0.6,0.8c0.3,0.5,0.4,0.6,0.7,0.7c0.3,0,0.7-0.2,1-0.2C120.4,147.2,120.2,147.4,120.2,147.6z
		 M117.1,148.4l0.8,0.3l0.2,0c0.7-0.2,1.3-0.3,1.6-0.5c0,0-0.1-0.2-0.3-0.3c-0.2-0.1-0.6-0.2-0.9,0.1
		C118,148.4,117.1,148.4,117.1,148.4z M114.9,145.3l-2.8-0.5l0.2,0.1c0.3,0.4,0.9,1,1.1,1.7c0,0.1,0.1,0.5,0.1,0.5l2.3,0.8
		c0,0-0.7-0.8-0.4-1.5c0-0.1,0.1-0.2,0.2-0.3L114.9,145.3z M115.8,145.9c0.2-0.2,0.5-0.3,0.5-0.3l-0.9-0.2L115.8,145.9z
		 M129.3,144.3c0.4,0.6,0.7,0.8,0.7,0.8c-0.1-0.3-0.3-0.8-1.2-1.6C128.8,143.5,128.9,143.7,129.3,144.3z M132.2,148.2
		c2.2-1.2,2.7-2.5,2.7-2.5l0.3,0.1c0,0-0.5,1.2-2.5,2.4l-0.1,0.1l2.4,0.5l0.1,0c0.4-1.5,1.7-2.6,3.7-3c0,0-2.1-1.1-2.4-2.8l0-0.1
		l-1.1,0l0.1,0.1c1.6,1.4,1.8,2.6,1.8,2.6l-0.3,0.1c0,0-0.3-1.3-2.1-2.7l-0.1-0.1l-2.6,0l0.2,0.1c1.3,1,1.5,2.2,1.5,2.2l-0.3,0.1
		c0-0.1-0.3-1.4-1.8-2.3l-0.2-0.1l-2.8,0l0.2,0.1c1.4,1.1,1.6,1.9,1.6,2.1c0,0,0.4,0.1,1-0.1c0.5-0.2,1-0.5,1-0.5s-0.4,0.5-0.5,1.1
		c-0.1,0.6,0,1.3,0,1.3s-0.3-0.3-0.6-0.7l-0.1,0.1c-0.3,0.3-0.8,0.7-1.7,1.1l-0.2,0.1L132.2,148.2L132.2,148.2z M122.2,146.2
		c0.6-0.3,1.4-0.7,1.7-0.9l0.1-0.1c0-0.2-0.1-0.4-0.1-0.7c0-1.1,1.1-1.6,1.1-1.6l-3.3,0l0.1,0.1c1.2,1,1.3,1.6,1.3,1.6l-0.3,0.1
		c0,0-0.1-0.7-1.5-1.7l-0.1-0.1l-2.4,0l0.2,0.2c1,0.7,1.2,1.4,1.2,1.4l-0.3,0.1c0,0-0.2-0.6-1.2-1.3c-0.1-0.1-0.6-0.3-0.6-0.3l-2,0
		l0.1,0.1c1.2,1,1.3,1.7,1.3,1.7l-0.3,0.1c0,0-0.1-0.6-1.5-1.7l-0.2-0.1l-2.9,0l0.2,0.1c0.8,0.6,1.3,1.2,1.5,1.5l0.1,0.1l4.2,0.8
		l0.3-0.1c1.7-0.5,2.4-1.4,2.4-1.4l0.3,0.2c0,0-0.6,0.8-2,1.3l-0.2,0.1l2.7,0.5L122.2,146.2z M122.6,146.4l2.5,0.5
		c0,0-0.7-0.5-1-1.3l-0.2,0.1c-0.3,0.2-0.7,0.4-1.2,0.6L122.6,146.4z M128.9,147.4c1-0.5,1.7-1,2-1.2l0.2-0.1
		c-0.4-0.4-0.8-0.5-1.1-0.2c-0.7,0.6-1.3,1-2.7,1.4l1.3,0.3L128.9,147.4z M119.8,141.2c0,0.2,0.1,0.6,0.1,0.6
		c-0.3-0.1-0.7-0.5-0.9-0.4c-0.3,0-0.3,0.1-0.6,0.5c-0.3,0.4-0.7,0.7-0.7,0.7l1.6,0c0,0,0.3-0.1,0.7-0.3c0.2-0.1,0.5-0.3,0.9-0.6
		c0.5-0.4,0.7-0.8,0.8-1l0.4,0c0,0-0.3,0.6-1,1.2c-0.3,0.2-0.6,0.4-0.8,0.5l-0.2,0.1l2.7,0l0.2-0.1c0,0,0.6-0.3,1.6-1.1
		c0.9-0.8,0.9-1.2,0.9-1.2l0.3,0c0,0-0.1,0.5-1,1.4c-0.4,0.4-0.8,0.7-1.1,0.8l-0.2,0.1l3.4,0l0.1,0c0,0,0.9-0.5,1.5-1.2
		c0.4-0.5,0.6-0.9,0.7-1l0.3,0c0,0-0.2,0.5-0.8,1.2c-0.3,0.4-0.7,0.7-1,0.9l-0.1,0.1l2.3,0l0.1,0c2.4-1.7,2.6-2.8,2.6-2.8l0.3,0
		c0,0-0.1,1.1-2.3,2.8l-0.1,0.1l2.9,0c0,0,0.4-0.3,0.5-0.3c1.5-1.2,1.9-2.3,2-2.6l0.3,0c0,0-0.2,1.4-2.1,2.9l-0.1,0.1l2.5,0l0.1,0
		c0-1.6,1.4-2.8,2.1-3.2c0,0-1.5-0.6-1.9-2l-0.1,0l-1,0.1l0.2,0.2c1.4,1,2,2.2,2,2.2l-0.3,0.1c0,0-0.7-1.4-2.4-2.3l-0.2-0.1
		l-2.6,0.4l0.1,0.1c1.3,1,1.9,2,1.9,2l-0.3,0.1c-0.2-0.3-0.8-1.2-2-2l-0.1-0.1l-3.1,0.4l0.1,0.1c1.9,1.1,2.1,1.9,2.1,1.9l-0.3,0.1
		c0,0-0.2-0.8-2.3-1.9l-0.2-0.1l-0.8,0.1c0,0-0.6,0.3-1.1,0.4c-0.5,0.1-1-0.1-1-0.1l0.2,0.1c1.5,0.9,1.8,1.6,1.8,1.6l-0.3,0.1
		c0,0-0.4-0.8-2-1.8l-0.2,0l-2.8,0.4l0.2,0.1c1.3,0.7,1.5,1.3,1.5,1.3l-0.3,0.1c0,0-0.3-0.7-2-1.4l0,0l-2.5,0.3l0.2,0.1
		c1.1,0.6,1.5,1.3,1.5,1.3l-0.4,0c-0.1-0.1-0.2-0.2-0.3-0.3C119.8,140.8,119.8,140.9,119.8,141.2z M118.1,140.6
		c0.4,0.4,0.7,0.5,1,0.4c0.2-0.1,0.5-0.3,0.5-0.3c-0.3-0.2-0.7-0.5-1.3-0.7l-0.2-0.1l-0.8,0.1C117.3,140,117.7,140.2,118.1,140.6z
		 M120,139.1l3-0.4l0.8-0.9c-0.1-0.2-0.2-0.4-0.3-0.7c-0.3-1.2,0.4-1.9,0.4-1.9l-2.8,0.9l0.2,0.1c1.4,0.5,1.7,1,1.7,1l-0.3,0.2
		c0,0-0.4-0.6-2-1l-0.2,0l-2.2,0.7l0.2,0.1c1.3,0.4,1.6,0.9,1.6,0.9l-0.3,0.2c0,0-0.4-0.6-2-0.9l-0.1,0l-2.1,0.7l0.2,0.1
		c1.3,0.4,1.7,1,1.7,1l-0.3,0.2c0,0-0.4-0.5-1.5-0.9c-0.1,0-0.7-0.2-0.7-0.2l-2.9,0.9l0.2,0c1,0.3,1.6,0.6,1.8,0.7l0.1,0.1l5-0.7
		l0.3-0.1c0,0,0.5-0.3,1.1-1c0.6-0.6,0.8-1.2,0.8-1.2l0.3,0.1c0,0-0.2,0.7-0.8,1.3c-0.3,0.3-0.5,0.5-0.7,0.6L120,139.1z
		 M128.9,135.3c0.5,0.3,0.6,0.1,0.6,0.1c-0.3-0.2-0.9-0.7-2.1-1C127.4,134.3,128.4,135,128.9,135.3z M128.9,137
		c-0.5,0.8-0.8,1-0.8,1l1.5-0.2l0.2-0.1c0.6-0.5,1-1,1.3-1.4c0,0-0.1-0.2-0.6-0.3C129.4,135.6,129.4,136.2,128.9,137z M127.8,134.1
		c1.6,0.6,2.2,1.3,2.2,1.3s0.6-0.5,1.1-1c0,0,0.1-0.1,0.1,0.1c0,0.2,0,0.4,0,0.7c0.1,0.5,0.2,0.7,0.2,0.7c0.5-0.8,0.6-1.3,0.6-1.3
		l0.3,0c0,0-0.1,1.2-1.9,3l-0.1,0.1l3-0.4c0,0,0.3-0.2,0.5-0.4c1.4-1.6,1.6-2.9,1.6-2.9l0.3,0c0,0-0.1,1.4-1.6,3.1l-0.1,0.1l2.4-0.3
		l0.1,0c-0.2-1.8,1.6-3.3,1.6-3.3s-2-0.2-2.8-1.9l-0.2,0l-1,0.3l0.1,0.1c2,0.9,2.5,1.9,2.5,1.9l-0.3,0.2c0,0-0.6-1-2.6-1.9l-0.3-0.1
		l-2.5,0.8l0.2,0.1c1.7,0.9,2.2,1.6,2.2,1.6l-0.3,0.2c0,0-0.5-0.8-2.4-1.7l-0.1-0.1l-2.9,1L127.8,134.1z M123.5,138.6l1-0.1
		c0,0-0.2-0.1-0.5-0.4L123.5,138.6z M111.8,136.9c0.5,0.1,0.9,0.2,1.2,0.4l0.2,0.1c-0.1-0.1-0.2-0.3-0.2-0.4
		c-0.1-0.6,0.2-0.9,0.2-0.9l-1.6,0.9L111.8,136.9z M125.8,134.1c0.1-0.1,0.2-0.1,0.2-0.2c0.2-0.2,0.5-0.6,0.8-1.2
		c0.4-0.8,0.5-1.4,0.5-1.4l0.3,0c0,0,0,0.7-0.5,1.6c-0.2,0.4-0.5,0.8-0.6,1l-0.1,0.1l2.2-0.7l0.1-0.1c0,0,0.4-0.5,1.1-1.6
		c0.6-1,0.6-1.9,0.6-1.9l0.3,0c0,0,0.1,0.9-0.6,2c-0.3,0.5-0.5,0.9-0.7,1.2l-0.1,0.2l2.9-0.9c0,0,0.3-0.3,0.3-0.4
		c1.2-1.8,1.1-3.2,1.1-3.2l0.3,0c0,0,0.1,1.4-1.1,3.3l-0.1,0.1l2.3-0.8l0.2,0c-0.5-1.6,0.7-3.5,1.4-4.1c0,0-2.6,0.2-3.8-1.4
		l-0.2,0.1l-0.9,0.5l0.2,0.1c1.8,0.4,2.8,1.4,2.8,1.4l-0.3,0.1c-0.3-0.3-1.2-1-2.6-1.3c-0.1,0-0.6-0.1-0.6-0.1l-2.3,1.2l0.2,0.1
		c1.6,0.5,2.3,1.2,2.3,1.2l-0.3,0.2c0,0-0.7-0.8-2.5-1.2l-0.2,0l-2.7,1.4l0.3,0c1.8,0.3,2.4,1,2.4,1l-0.2,0.2c0,0-0.7-0.7-2.7-0.9
		l-0.2,0l-1.4,0.7c0,0-0.3,0.3-0.6,0.4c-0.4,0.2-0.7,0.2-0.7,0.2l0.1,0c1.7,0.3,2.3,0.9,2.3,0.9l-0.2,0.2c0,0-0.7-0.7-2.6-0.9
		l-0.1,0l-2.4,1.3l0.3,0.1c1.3,0.2,1.8,0.7,1.8,0.7l-0.3,0.2c-0.3-0.2-0.9-0.5-2.1-0.6l-0.1,0L117,134l0.2,0.1
		c1.2,0.1,1.8,0.6,1.8,0.6l-0.3,0.2c-0.2-0.1-0.9-0.5-2.3-0.5l-0.1,0l-1.3,0.7c0,0,0.5,0.1,1,0.4c0.5,0.2,0.8,0.1,1-0.3
		c0.3-0.3,0.4-0.6,0.4-0.6s0,0.3,0.1,0.7c0.1,0.4,0.3,0.5,0.3,0.5s-0.3-0.1-0.8-0.1c-0.5,0-0.4,0.1-0.7,0.7
		c-0.3,0.6-0.6,0.9-0.6,0.9l2.4-0.8l0.2-0.1c1.5-1.3,1.6-2.6,1.6-2.6l0.3,0c0,0-0.1,1.1-1.2,2.3l-0.1,0.1l2.6-0.8
		c0,0,0.5-0.5,0.5-0.6c1.3-1.6,1.3-2.6,1.3-2.6l0.3,0c0,0,0,1.1-1.4,2.8l-0.1,0.2l1.9-0.6C124.8,134.3,125.8,134.1,125.8,134.1z
		 M126.8,125.8c0.4,0.5,0.5,0.5,0.5,0.5c0.3-1.1,0.1-1.6,0.1-1.6l0.3-0.1c0,0,0.3,1.2-0.8,3.5l-0.1,0.2l2.7-1.4l0.1-0.2
		c0.9-1.9,0.7-3.7,0.7-3.7l0.3,0c0,0,0.2,1.6-0.5,3.5l-0.1,0.2l2.2-1.2l0.1-0.1c-1-2,0.6-4.4,1.2-4.9c0,0-2.4,0.6-3.8-0.4l-0.1,0.1
		l-1.6,1.3l0.2,0c2.3,0.1,3,0.9,3,0.9l-0.2,0.2c0,0-0.8-0.8-3.1-0.8l-0.3,0l-1.9,1.6l0.2,0c1.8,0.2,2.5,0.8,2.5,0.8l-0.2,0.2
		c0,0-0.7-0.7-2.7-0.8l-0.2,0l-2.3,1.9l0.2,0c1.4,0,2.1,0.3,2.4,0.4c0,0,0.3-0.3,0.6-1.2c0-0.1,0.1-0.1,0.1,0
		C126.4,124.9,126.5,125.4,126.8,125.8z M124.5,129.5l1.8-1l0.2-0.3c0.3-0.6,0.6-1.2,0.7-1.7c0,0-0.5,0-1,0c-0.5,0-0.9,0.1-0.9,0.6
		C125.1,128.5,124.5,129.5,124.5,129.5z M124.6,126.3c0.6,0.2,0.8-0.2,0.8-0.2c-0.4-0.1-1.2-0.3-2.5-0.3l-0.2,0l-0.3,0.2
		C122.4,126,123.9,126.1,124.6,126.3z M120.8,131.4l0.9-0.5c0,0-0.2,0-0.6-0.2L120.8,131.4z M113.1,135.6l4-2.1l0.3-0.4
		c1-1.6,0.9-2.5,0.9-2.6l0.3,0c0,0,0.1,0.9-0.7,2.4l-0.1,0.2l2.6-1.4l0.5-1.1c-0.2-0.1-0.5-0.3-0.7-0.5c-0.8-0.7-0.4-2.1-0.4-2.1
		l-2,1.6l0.1,0c1.5-0.1,2,0.3,2,0.3l-0.2,0.3c0,0-0.6-0.4-2.1-0.2l-0.4,0.1l-1.8,1.4h0.2c1.2,0,1.8,0.3,1.8,0.3l-0.1,0.3
		c0,0-0.7-0.3-2.1-0.2l-0.2,0l-1.7,1.4l0.2,0c1.8,0.1,1.9,0.4,1.9,0.4l-0.3,0.2c0,0-0.3-0.3-2.1-0.3l-0.2,0l-2.3,1.8l0.2,0
		c1-0.1,1.7,0.1,2,0.2L113.1,135.6z M112.6,133.3l3-2.4c0,0,0.2-0.3,0.3-0.8c0.4-1.1,0.3-2.3,0.3-2.3l0.3,0c0,0,0.2,1.5-0.5,2.8
		l0.2-0.2l2-1.6l0.1-0.3c0.6-1.9,0.3-3.3,0.3-3.3l0.3-0.1c0,0,0.3,1.3-0.2,3.1l0,0.1l1.3-1c0,0,0.1-0.3,0.5-0.6
		c0.4-0.3,0.7-0.5,0.7-0.5l0.1-0.2c0.6-1.7,0.2-3.1,0.2-3.1l0.3-0.1c0,0,0.4,1.3-0.1,2.9l-0.1,0.2l1.7-1.4l0.1-0.3
		c0.7-2.4,0.2-3.8,0.2-3.8l0.3-0.1c0,0,0.5,1.3,0,3.5l0,0.3l2.3-1.9l0-0.1c0.5-2.7-0.1-3.7-0.1-3.7l0.3-0.2c0,0,0.6,0.9,0.3,3.4
		l0,0.2l2.7-2.2l0.1-0.1c-1.2-1.3-0.9-3.1-0.7-3.8c0,0-2.1,0.8-3.5-0.4l-0.1-0.1l-1.7,1.9l0.2,0c2.2-0.2,3.1,0.4,3.1,0.4l-0.3,0.2
		c-0.3-0.1-1.3-0.5-3.2-0.3l-0.2,0l-1.7,1.9l0.2,0c2.2,0,2.7,0.5,2.7,0.5l-0.2,0.2c0,0-0.5-0.4-2.7-0.4l-0.2,0l-2,2.3l0.2,0
		c1.9-0.3,2.6,0.1,2.6,0.1l-0.2,0.3c0,0-0.8-0.4-2.8,0l-0.2,0l-1.9,2.1l0.1,0c0.3,0,0.8-0.1,1.4,0c1,0.1,1,0.2,1,0.2l-0.2,0.2
		c0,0-0.2-0.1-0.9-0.2c-0.9-0.1-1.8,0.1-1.8,0.1l-0.1,0.1l-1.8,2l0.2,0c1.3-0.2,1.9,0.1,1.9,0.1l-0.1,0.3c0,0-0.7-0.3-2.2,0
		l-0.1,0.1l-1.6,1.7l0.2-0.1c1.1-0.2,1.8,0,1.8,0l-0.1,0.3c0,0-0.8-0.2-2,0.1l-0.3,0.1l-1.4,1.6c0,0,0.2-0.1,0.9-0.1
		c0.7,0,0.9,0.2,1.1-0.1c0.2-0.3,0.3-0.9,0.3-0.9s0,0.6,0.8,1.1c0,0-0.4,0.1-0.7,0.1c-0.3,0-0.5,0.3-0.6,0.5
		C112.9,132,112.9,132.7,112.6,133.3z M109.8,133.4c-0.2-0.4-0.1-0.8-0.1-0.8l-0.8,0.9L109.8,133.4z M119.9,118.4
		c0.1,0.5,0.1,1,0.1,1.8l0,0.3l1.9-2.2l0-0.2c0-2.7-0.8-3.4-0.8-3.4l0.2-0.2c0,0,0.8,0.7,0.9,3.3l0,0.2l2.5-2.8l0.1-0.1
		c-1-1.2-1.1-2.8-0.6-4.4c0,0-2,2.3-4.5,1.5c-0.1,0-0.1,0-0.2-0.1l-0.1,0.1l-1.1,1.8l0.2,0c1.4-0.5,3.1-0.2,3.1-0.2l-0.1,0.3
		c0,0-1.6-0.3-3,0.2c-0.1,0-0.6,0.2-0.6,0.2l-1.3,2l0.1,0c1.3-0.3,2.7,0,2.7,0l-0.1,0.3c0,0-1.5-0.3-2.9,0.1l-0.1,0l-1.6,2.5
		c0,0,0.4-0.2,1.2-0.4c0.9-0.1,1.1,0,1.4-0.1c0.2-0.1,0.6-0.5,0.6-1.2c0-0.4,0-0.6,0.1-0.8c0-0.1,0.1-0.2,0.1-0.1
		c0.1,0.2,0.4,0.5,0.6,0.8c0.1,0.1,0.2,0.1,0.2,0.2l0.1,0.1c-0.1-0.6-0.3-0.8-0.3-0.8l0,0l0.2-0.3c0,0,0.2,0.2,0.4,1.1l0,0.1
		c0.1,0,0.1,0,0.2,0.1c0.1,0,0.2,0.1,0,0.1C120,118.3,119.9,118.3,119.9,118.4L119.9,118.4z M119.4,118.5c-0.3,0.1-0.6,0.2-0.8,0.3
		c-0.5,0.3-0.4,0.6-0.3,1.8c0.2,1.2-0.1,1.8-0.1,1.8l1.3-1.4l0.1-0.3c0-1,0-1.7-0.1-2.2L119.4,118.5z M113.4,122.3
		c0-0.2,0-0.3,0-0.3l-0.2,0.3L113.4,122.3z M115.5,125.5l1-1.2c0,0-0.5,0.1-1,0.1L115.5,125.5z M105.6,131.3
		c-0.3-0.3-0.4-0.6-0.4-0.6l-0.4,1.1L105.6,131.3z M109.8,117.3l0.4-1.2l-0.1-0.3c0,0-0.4-1.2-1.1-2.5c0,0-0.2,0.2-0.4,0.5
		c-0.2,0.3-0.1,0.6,0.3,1.1C109.7,116,109.8,117.3,109.8,117.3z M108.8,112.5c0.5,0.1,1.3,0.1,1.3,0.1c-0.4,0.2-0.7,0.5-0.7,0.5
		c0.6,1,0.9,1.9,1.1,2.3l0.1,0.1l1-2.7l-0.1-0.3c-1-2.3-1.9-2.9-1.9-2.9l0.2-0.3c0,0,1,0.6,2,2.9l0.1,0.1l1.1-2.9l0-0.2
		c-1-0.6-1.8-1.9-2-3.5c0,0-0.9,1.8-2.5,2.4c-0.4,0.2-0.9,0.3-1.4,0.2l0,0.2l-0.2,1.1l0.2-0.1c1.4-1,2.9-1.2,2.9-1.2l0,0.3
		c0,0-1.7,0.2-3.1,1.4l-0.1,0.1l-0.5,2.4l0.1-0.1c1.3-0.8,2.5-0.9,2.5-0.9l0,0.3c0,0-0.4,0-0.9,0.2
		C107.9,112,108.3,112.3,108.8,112.5z M108.1,121.8l0.8-2.2c-0.5,0.4-1,0.5-1.4,0.6C107.5,120.1,107.8,121,108.1,121.8z
		 M100.1,115.5v0.9l0.1-0.1c0.1-0.1,0.2-0.2,0.3-0.3L100.1,115.5z M101,115.8c-0.1,0.1-0.2,0.2-0.3,0.3l1.6,2.4L101,115.8z
		 M101.5,115.4c-0.1,0.1-0.2,0.2-0.3,0.3l1.4,2.7L101.5,115.4z M102.1,115c-0.1,0.1-0.2,0.1-0.4,0.2l1.1,3L102.1,115z M100.6,116.3
		c-0.1,0.1-0.2,0.2-0.3,0.4c-0.1,0.2-0.2,0.4-0.2,0.4v3.3l0-0.1c0.9-1.2,1.5-1.7,1.8-1.9L100.6,116.3z M104.6,116.7
		c0,0.1,0.1,0.1,0.1,0.2l0,0.1l0.1-0.2l0.4-2c0,0,0-0.1-0.1-0.2L104.6,116.7z M104,116.3c-0.1-0.2-0.2-0.3-0.3-0.4l0,2.4L104,116.3z
		 M104,118.2l0.4-1.3c-0.1-0.1-0.1-0.2-0.2-0.4L104,118.2z M104.5,117.2l-0.2,1l0.4-0.8C104.6,117.4,104.5,117.2,104.5,117.2z
		 M103.5,115.5c-0.1-0.1-0.1-0.2-0.2-0.2c0,0-0.2-0.2-0.2-0.2l0.3,3.1L103.5,115.5z M104.8,118.5l0.4-0.4l0-0.2L104.8,118.5z
		 M105.9,114.5l-0.4,1l-0.1,0.5c0,0,0.2-0.3,0.7-0.7l0.3-0.6l0,0c0,0,0.1,0.1,0.2,0.1l0,0l-0.1,0.3c0.1-0.1,0.2-0.1,0.3-0.2
		c0.1,0,0.2-0.1,0.2-0.1l0,0c0,0,0,0.1,0,0.1c0,0.2,0.1,0.3,0.3,0.3c0.2,0,0.3-0.1,0.3-0.3c0-0.2-0.1-0.3-0.2-0.3l0,0
		c0.4-0.3,0.6-0.5,0.6-0.8c0.1-0.8-0.4-1.7-0.4-1.7c-0.5,0.2-1,0.4-1.6,0.8l-0.1,0.1l-0.2,0.9l0,0c-0.1,0.1-0.2,0.2-0.2,0.3
		C105.7,114.3,105.8,114.5,105.9,114.5L105.9,114.5z M105,113.6c-0.1,0.1-0.1,0.2-0.1,0.3c0,0.2,0.1,0.3,0.3,0.3
		c0.2,0,0.3-0.1,0.3-0.3c0-0.1,0-0.2-0.1-0.2l0,0l0.5-2.3c0,0-0.2-0.5-0.3-0.6c-0.9-1.5-1.9-2.1-2.2-2.3l0-0.3c0,0,1.2,0.6,2.4,2.6
		l0.1,0.1l0.5-2.4l0-0.1c-1.2-0.3-2.3-1.2-2.9-3.4c0,0-1.1,2.4-3.2,2.6l-0.3,0v2.7l0.1-0.1c1.3-1.7,2.8-2,2.8-2l0,0.3
		c-0.3,0.1-1.6,0.5-2.7,2.1c-0.1,0.1-0.2,0.2-0.2,0.2v2.8l0,0c1.5-1.9,2.5-2.1,2.7-2.2c0,0,0.1,0,0.1,0
		C103.2,111.5,103.9,111.8,105,113.6L105,113.6z"/>
	<path class="st3" d="M99.6,106.1c-0.4-0.3-0.6-0.9-0.6-1.6c0-1,0.5-1.8,1.2-1.8c0.6,0,1.2,0.8,1.2,1.8c0,0.7-0.3,1.4-0.7,1.6
		l-0.1,0.1c1-0.3,1.8-1.6,1.8-3.2c0-1.8-1-3.2-2.2-3.2c-1.2,0-2.2,1.4-2.2,3.2c0,1.6,0.8,2.9,1.8,3.2L99.6,106.1z"/>
	<path class="st3" d="M92.9,106.8c-0.4-0.2-0.8-0.8-0.9-1.5c-0.2-1,0.2-1.9,0.8-2c0.6-0.1,1.3,0.6,1.5,1.6c0.1,0.7,0,1.4-0.3,1.7
		l-0.1,0.1c0.9-0.5,1.4-1.9,1.1-3.4c-0.3-1.7-1.6-3-2.8-2.7c-1.2,0.2-1.9,1.8-1.5,3.6c0.3,1.6,1.3,2.7,2.4,2.8L92.9,106.8z"/>
	<path class="st3" d="M86.5,108.2c-0.5-0.1-0.9-0.6-1.2-1.3c-0.4-0.9-0.2-1.9,0.5-2.1c0.6-0.2,1.4,0.4,1.7,1.3
		c0.3,0.7,0.2,1.4,0,1.8l-0.1,0.1c0.9-0.6,1.1-2.1,0.6-3.6c-0.6-1.7-2.1-2.7-3.2-2.2c-1.1,0.4-1.6,2.1-0.9,3.8
		c0.6,1.5,1.7,2.4,2.8,2.3L86.5,108.2z"/>
	<path class="st3" d="M106.4,106.8c-0.3-0.4-0.4-1-0.3-1.7c0.2-1,0.9-1.7,1.5-1.5c0.6,0.1,1,1,0.8,2c-0.2,0.7-0.6,1.3-1,1.5l-0.1,0
		c1.1-0.1,2.1-1.2,2.4-2.7c0.4-1.7-0.3-3.4-1.5-3.6c-1.2-0.3-2.5,0.9-2.8,2.7c-0.3,1.5,0.1,3,1.1,3.5L106.4,106.8z"/>
	<path class="st3" d="M113.4,107.9c-0.3-0.4-0.3-1.1,0-1.8c0.3-0.9,1.1-1.5,1.7-1.3c0.6,0.2,0.8,1.2,0.5,2.1
		c-0.2,0.7-0.7,1.2-1.2,1.3l-0.1,0c1.1,0.1,2.2-0.9,2.8-2.4c0.6-1.7,0.2-3.4-1-3.8c-1.1-0.4-2.6,0.6-3.2,2.3c-0.5,1.5-0.3,3,0.6,3.6
		L113.4,107.9z"/>
	<path class="st3" d="M80.1,111.3c-0.5,0-1-0.4-1.4-1c-0.6-0.8-0.6-1.8,0-2.2c0.5-0.4,1.4,0,2,0.9c0.4,0.6,0.5,1.3,0.3,1.7l0,0.1
		c0.7-0.8,0.6-2.3-0.2-3.6c-1-1.5-2.6-2.2-3.6-1.5c-1,0.7-1.1,2.4-0.1,3.9c0.9,1.3,2.2,2,3.2,1.7L80.1,111.3z"/>
	<path class="st3" d="M74.3,114.9c-0.5,0-1.1-0.2-1.6-0.8c-0.7-0.7-0.8-1.7-0.4-2.1c0.5-0.4,1.4-0.2,2.1,0.6
		c0.5,0.5,0.7,1.2,0.6,1.7l0,0.1c0.6-0.9,0.2-2.4-0.8-3.5c-1.2-1.3-2.9-1.7-3.8-0.9c-0.9,0.8-0.7,2.6,0.5,3.9
		c1.1,1.2,2.5,1.6,3.5,1.1L74.3,114.9z"/>
	<path class="st3" d="M69.3,119.3c-0.5,0.1-1.1-0.1-1.7-0.5c-0.8-0.6-1.1-1.6-0.7-2.1c0.4-0.5,1.4-0.4,2.2,0.3
		c0.6,0.5,0.9,1.1,0.9,1.6l0,0.1c0.4-1-0.1-2.4-1.3-3.4c-1.4-1.1-3.1-1.3-3.9-0.3c-0.8,0.9-0.3,2.6,1.1,3.7c1.2,1,2.7,1.2,3.6,0.6
		L69.3,119.3z"/>
	<path class="st3" d="M65.6,124.6c-0.5,0.2-1.1,0.1-1.8-0.2c-0.9-0.5-1.4-1.4-1.1-1.9c0.3-0.6,1.3-0.6,2.2-0.1
		c0.7,0.4,1.1,0.9,1.2,1.4l0,0.1c0.2-1-0.6-2.3-2-3.1c-1.6-0.9-3.4-0.7-4,0.4c-0.6,1.1,0.3,2.6,1.9,3.5c1.4,0.8,3,0.7,3.7,0
		L65.6,124.6z"/>
	<path class="st3" d="M63.7,131.1c-0.4,0.3-1.1,0.3-1.8,0.1c-1-0.3-1.6-1.1-1.4-1.7c0.2-0.6,1.2-0.9,2.1-0.6
		c0.7,0.2,1.2,0.7,1.4,1.1l0,0.1c0-1.1-1-2.2-2.6-2.7c-1.7-0.5-3.5,0-3.8,1.1c-0.4,1.2,0.8,2.6,2.5,3.1c1.6,0.5,3.1,0.1,3.7-0.8
		L63.7,131.1z"/>
	<path class="st3" d="M62.2,137.1c-0.4,0.3-1,0.5-1.8,0.4c-1-0.1-1.8-0.8-1.7-1.4c0.1-0.6,1-1.1,2-0.9c0.7,0.1,1.4,0.5,1.6,0.9
		l0.1,0.1c-0.2-1.1-1.4-2-3-2.2c-1.8-0.2-3.4,0.5-3.6,1.8c-0.2,1.2,1.2,2.4,3,2.6c1.6,0.2,3.1-0.4,3.5-1.4L62.2,137.1z"/>
	<path class="st3" d="M62.4,143.1c-0.3,0.4-1,0.6-1.7,0.6c-1,0-1.9-0.5-1.9-1.2c0-0.6,0.9-1.2,1.9-1.2c0.7,0,1.4,0.3,1.7,0.7
		l0.1,0.1c-0.3-1-1.6-1.8-3.2-1.8c-1.8,0-3.3,1-3.3,2.2c0,1.2,1.5,2.2,3.3,2.2c1.6,0,3-0.8,3.3-1.8L62.4,143.1z"/>
	<path class="st3" d="M63.9,149.6c-0.2,0.4-0.8,0.8-1.5,1c-1,0.2-1.9-0.1-2-0.8c-0.1-0.6,0.6-1.3,1.6-1.5c0.7-0.1,1.4,0,1.8,0.3
		l0.1,0.1c-0.5-0.9-1.9-1.4-3.5-1.1c-1.7,0.4-3,1.6-2.7,2.8c0.2,1.2,1.9,1.9,3.6,1.5c1.6-0.3,2.7-1.4,2.7-2.4L63.9,149.6z"/>
	<path class="st3" d="M119.4,110.2c-0.2-0.5,0-1.1,0.4-1.7c0.6-0.8,1.4-1.2,2-0.9c0.5,0.4,0.5,1.3,0,2.2c-0.4,0.6-1,1-1.5,1l-0.1,0
		c1,0.3,2.4-0.4,3.2-1.7c1-1.5,0.9-3.2-0.1-3.9c-1-0.7-2.6,0-3.6,1.5c-0.9,1.3-0.9,2.9-0.2,3.6L119.4,110.2z"/>
	<path class="st3" d="M125.7,113.9c-0.1-0.5,0.1-1.1,0.6-1.6c0.7-0.8,1.6-1,2.1-0.6c0.5,0.4,0.3,1.4-0.3,2.1
		c-0.5,0.5-1.1,0.8-1.6,0.8l-0.1,0c0.9,0.5,2.4,0,3.4-1.2c1.2-1.3,1.4-3.1,0.5-3.9c-0.9-0.8-2.6-0.4-3.8,0.9
		c-1.1,1.2-1.4,2.7-0.8,3.6L125.7,113.9z"/>
	<path class="st3" d="M114.5,123.1c-0.1-0.3,0-0.7,0.3-1.1c0.4-0.5,1-0.7,1.3-0.5c0.3,0.3,0.3,0.9-0.1,1.4c-0.3,0.4-0.6,0.6-1,0.6
		l-0.1,0c0.6,0.2,1.5-0.1,2.1-0.9c0.7-0.9,0.7-2,0-2.5c-0.6-0.5-1.7-0.1-2.4,0.8C114.2,121.7,114.1,122.7,114.5,123.1L114.5,123.1z"
		/>
	<path class="st3" d="M130.1,118c0-0.5,0.3-1.1,0.8-1.5c0.8-0.6,1.7-0.8,2.2-0.3c0.4,0.5,0.1,1.4-0.7,2.1c-0.6,0.5-1.2,0.7-1.7,0.5
		l-0.1,0c0.9,0.6,2.4,0.4,3.6-0.6c1.4-1.1,1.8-2.8,1.1-3.8c-0.8-0.9-2.5-0.8-3.9,0.4c-1.2,1-1.7,2.4-1.3,3.4L130.1,118z"/>
	<path class="st3" d="M133.5,124.1c0.1-0.5,0.5-1,1.2-1.4c0.9-0.5,1.9-0.4,2.2,0.1c0.3,0.6-0.2,1.4-1.1,1.9
		c-0.7,0.4-1.4,0.4-1.8,0.2l-0.1,0c0.8,0.8,2.3,0.8,3.7,0c1.6-0.9,2.4-2.5,1.8-3.5c-0.6-1.1-2.4-1.2-4-0.3c-1.4,0.8-2.2,2.1-2,3.2
		L133.5,124.1z"/>
	<path class="st3" d="M136.3,130.3c0.2-0.5,0.7-0.9,1.4-1.2c1-0.3,2-0.1,2.2,0.5c0.2,0.6-0.4,1.4-1.4,1.7c-0.7,0.2-1.4,0.2-1.8-0.1
		l-0.1-0.1c0.6,0.9,2.2,1.1,3.7,0.6c1.8-0.6,2.8-2,2.4-3.2c-0.4-1.2-2.1-1.6-3.9-1c-1.6,0.5-2.6,1.7-2.5,2.8L136.3,130.3z"/>
	<path class="st3" d="M137.9,136.1c0.3-0.4,0.9-0.8,1.6-0.9c1-0.1,2,0.2,2,0.9c0.1,0.6-0.7,1.3-1.7,1.4c-0.7,0.1-1.4-0.1-1.8-0.4
		l-0.1-0.1c0.4,1,1.9,1.5,3.5,1.3c1.8-0.3,3.2-1.4,3-2.6c-0.2-1.2-1.8-2-3.6-1.7c-1.6,0.2-2.9,1.2-3,2.2L137.9,136.1z"/>
	<path class="st3" d="M137.9,142c0.3-0.4,0.9-0.6,1.7-0.6c1,0,1.9,0.5,1.9,1.2c0,0.6-0.8,1.2-1.9,1.2c-0.7,0-1.4-0.3-1.7-0.7
		l-0.1-0.1c0.3,1,1.6,1.8,3.2,1.8c1.8,0,3.3-1,3.3-2.2c0-1.2-1.5-2.2-3.3-2.2c-1.6,0-2.9,0.8-3.2,1.8L137.9,142z"/>
	<path class="st3" d="M136.4,149.6c0.2,0.4,0.8,0.8,1.5,1c1,0.2,1.9-0.1,2.1-0.8c0.1-0.6-0.6-1.3-1.6-1.5c-0.7-0.1-1.4,0-1.8,0.3
		l-0.1,0.1c0.5-0.9,2-1.4,3.5-1.1c1.8,0.4,3,1.6,2.8,2.8c-0.3,1.2-1.9,1.9-3.7,1.5c-1.6-0.3-2.7-1.4-2.8-2.4L136.4,149.6z"/>
	<path class="st3" d="M134.7,155.5c0.2,0.5,0.7,0.9,1.4,1.2c1,0.3,1.9,0.1,2.1-0.5c0.2-0.6-0.4-1.4-1.4-1.7
		c-0.7-0.2-1.4-0.2-1.8,0.1l-0.1,0.1c0.6-0.9,2.1-1.2,3.5-0.6c1.7,0.6,2.8,2,2.4,3.2c-0.4,1.2-2,1.6-3.7,1c-1.5-0.5-2.5-1.7-2.5-2.8
		L134.7,155.5z"/>
	<path class="st3" d="M131,160.2c0.1,0.5,0.5,1,1.2,1.3c0.9,0.5,1.8,0.4,2.1-0.2c0.3-0.6-0.2-1.4-1.1-1.9c-0.6-0.3-1.3-0.4-1.7-0.2
		l-0.1,0c0.7-0.8,2.1-0.9,3.5-0.2c1.5,0.8,2.4,2.3,1.9,3.4c-0.5,1.1-2.2,1.4-3.8,0.6c-1.4-0.7-2.1-2.1-1.9-3.1L131,160.2z"/>
	<path class="st3" d="M65.6,155.5c-0.2,0.5-0.7,0.9-1.3,1.1c-1,0.3-1.9,0.1-2.1-0.5c-0.2-0.6,0.4-1.4,1.4-1.7
		c0.7-0.2,1.4-0.2,1.8,0.1l0.1,0.1c-0.6-0.9-2.1-1.2-3.6-0.7c-1.7,0.6-2.7,2-2.3,3.1c0.4,1.2,2.1,1.6,3.8,1c1.5-0.5,2.5-1.7,2.4-2.7
		L65.6,155.5z"/>
	<path class="st3" d="M69.2,160.1c-0.1,0.5-0.5,1-1.1,1.4c-0.9,0.5-1.8,0.4-2.1-0.1c-0.3-0.6,0.1-1.4,1-1.9c0.6-0.4,1.3-0.4,1.7-0.2
		l0.1,0c-0.7-0.7-2.2-0.8-3.6,0c-1.5,0.9-2.2,2.4-1.6,3.5c0.6,1.1,2.5,1.1,4,0.2c1.3-0.8,1.8-2,1.5-3L69.2,160.1z"/>
	<path class="st3" d="M106.5,118.5c0,0.3,0.1,0.6,0.2,0.8l0.1,0.1c-0.3-0.1-0.5-0.4-0.6-0.7c0,0,0.1-0.1,0.1-0.1
		C106.4,118.5,106.5,118.5,106.5,118.5z"/>
	<path class="st3" d="M108.9,117.4c0,0.1,0,0.3-0.1,0.4c-0.2,1-0.9,1.6-1.6,1.7l0.1,0c0.3-0.1,0.6-0.5,0.7-0.9
		c0.2-0.6-0.1-1.2-0.5-1.3c-0.4-0.1-0.9,0.3-1,0.9c0,0-0.2,0.1-0.3,0.1c-0.1,0-0.2,0.1-0.2,0.1c-0.1-0.4-0.1-0.8,0-1.3
		c0.3-1.1,1.1-1.8,1.9-1.6c0.5,0.1,0.8,0.6,0.9,1.1c0,0-0.3-0.6-0.8-1l-0.2,0.2c0,0,0.4,0.5,0.7,1
		C108.9,117.2,108.9,117.4,108.9,117.4z"/>
	<path class="st3" d="M120.5,129.2c0-0.3,0.3-0.7,0.6-0.9c0.5-0.3,1.2-0.3,1.4,0c0.2,0.4,0,0.9-0.5,1.3c-0.4,0.3-0.8,0.3-1.1,0.2
		l-0.1,0c0.5,0.5,1.5,0.4,2.3-0.1c0.9-0.6,1.3-1.7,0.9-2.3c-0.4-0.7-1.6-0.7-2.5-0.1c-0.8,0.5-1.2,1.4-1,2.1L120.5,129.2z"/>
	<path class="st3" d="M124.2,136.6c0.1-0.3,0.5-0.5,0.9-0.6c0.6-0.1,1.2,0.1,1.3,0.5c0.1,0.4-0.3,0.9-1,1c-0.4,0.1-0.9,0-1.1-0.2
		l-0.1,0c0.3,0.6,1.2,0.9,2.2,0.7c1.1-0.2,1.8-1.1,1.7-1.9c-0.2-0.8-1.2-1.2-2.3-1C124.9,135.3,124.2,136,124.2,136.6L124.2,136.6z"
		/>
	<path class="st3" d="M124.8,144.9c0.1,0.3,0.5,0.5,0.9,0.6c0.6,0.1,1.2-0.1,1.3-0.5c0.1-0.4-0.4-0.8-1-1c-0.5-0.1-0.9,0-1.1,0.2
		l-0.1,0c0.3-0.6,1.2-1,2.2-0.8c1.1,0.2,1.9,1,1.7,1.8c-0.1,0.8-1.2,1.3-2.3,1C125.5,146.2,124.8,145.5,124.8,144.9L124.8,144.9z"/>
	<path class="st3" d="M122.8,153.1c0.1,0.3,0.3,0.6,0.7,0.8c0.6,0.3,1.2,0.2,1.4-0.2c0.2-0.4-0.1-0.9-0.7-1.2
		c-0.4-0.2-0.8-0.2-1.1-0.1l-0.1,0c0.5-0.5,1.4-0.6,2.3-0.1c1,0.5,1.5,1.5,1.2,2.2c-0.4,0.7-1.5,0.9-2.5,0.4c-0.9-0.4-1.4-1.3-1.3-2
		L122.8,153.1z"/>
	<path class="st3" d="M97.4,118.8c-0.3-0.2-0.5-0.5-0.5-1c0-0.6,0.3-1.2,0.7-1.2c0.4,0,0.8,0.5,0.9,1.1c0,0.5-0.1,0.9-0.4,1.1
		l-0.1,0c0.6-0.2,1.1-1.1,1-2.1c-0.1-1.1-0.8-2-1.6-1.9c-0.8,0.1-1.4,1-1.3,2.1C96.2,117.9,96.8,118.7,97.4,118.8L97.4,118.8z"/>
	<path class="st3" d="M89.1,121.4c-0.3-0.1-0.6-0.3-0.8-0.7c-0.3-0.6-0.2-1.2,0.2-1.4c0.4-0.2,0.9,0.1,1.2,0.7
		c0.2,0.4,0.2,0.8,0.1,1.1l0,0.1c0.5-0.5,0.6-1.4,0.2-2.3c-0.5-1-1.5-1.6-2.2-1.2c-0.7,0.3-0.9,1.4-0.4,2.5c0.4,0.9,1.3,1.4,1.9,1.3
		L89.1,121.4z"/>
	<path class="st3" d="M82.2,126.9c-0.3,0-0.7-0.1-1-0.4c-0.5-0.4-0.6-1.1-0.3-1.4c0.3-0.3,0.9-0.2,1.4,0.3c0.3,0.3,0.5,0.7,0.4,1
		l0,0.1c0.3-0.6,0.1-1.5-0.6-2.2c-0.8-0.8-1.9-1-2.5-0.4c-0.6,0.6-0.4,1.7,0.4,2.5C80.8,127,81.7,127.2,82.2,126.9L82.2,126.9z"/>
	<path class="st3" d="M78.2,133.6c-0.3,0.2-0.7,0.2-1.1,0.1c-0.6-0.2-1-0.7-0.8-1.1c0.1-0.4,0.7-0.6,1.3-0.3
		c0.4,0.1,0.7,0.4,0.8,0.7l0,0.1c0-0.7-0.6-1.4-1.5-1.8c-1.1-0.4-2.1-0.1-2.4,0.7c-0.3,0.8,0.4,1.7,1.4,2
		C76.9,134.3,77.9,134.1,78.2,133.6L78.2,133.6z"/>
	<path class="st3" d="M76,141.1c-0.2,0.2-0.6,0.4-1,0.4c-0.6,0-1.1-0.4-1.1-0.8c0-0.4,0.5-0.7,1.2-0.7c0.5,0,0.8,0.2,1,0.5l0,0.1
		c-0.2-0.7-1-1.2-1.9-1.3c-1.1,0-2.1,0.6-2.1,1.4c0,0.8,0.8,1.5,2,1.5C75,142.1,75.9,141.7,76,141.1L76,141.1z"/>
	<path class="st3" d="M76.8,149.2c-0.1,0.3-0.5,0.5-0.9,0.6c-0.6,0.1-1.2-0.1-1.3-0.5c-0.1-0.4,0.3-0.9,1-1c0.4-0.1,0.9,0,1.1,0.2
		l0.1,0c-0.3-0.6-1.2-0.9-2.2-0.7c-1.1,0.2-1.8,1.1-1.7,1.9c0.2,0.8,1.2,1.2,2.3,1C76.1,150.5,76.8,149.8,76.8,149.2L76.8,149.2z"/>
	<path class="st3" d="M85.3,144.1c-0.1,0.2-0.3,0.3-0.6,0.3c-0.4,0-0.7-0.1-0.8-0.4c0-0.3,0.3-0.5,0.7-0.6c0.3,0,0.5,0.1,0.7,0.2
		l0,0c-0.2-0.4-0.7-0.7-1.3-0.6c-0.7,0.1-1.2,0.5-1.2,1c0,0.5,0.6,0.9,1.3,0.8C84.8,144.9,85.3,144.5,85.3,144.1L85.3,144.1z"/>
	<path class="st3" d="M86.2,139.5c-0.2,0.1-0.4,0.2-0.7,0.1c-0.4-0.1-0.6-0.4-0.6-0.7c0.1-0.3,0.4-0.4,0.8-0.3
		c0.3,0.1,0.5,0.2,0.6,0.4l0,0c0-0.4-0.4-0.9-1-1c-0.7-0.2-1.3,0.1-1.4,0.6c-0.1,0.5,0.3,1,1,1.2C85.5,140.1,86.1,139.9,86.2,139.5
		L86.2,139.5z"/>
	<path class="st3" d="M85.7,149.5c0,0.2-0.2,0.4-0.4,0.5c-0.4,0.2-0.7,0.1-0.9-0.1c-0.1-0.2,0.1-0.6,0.4-0.8c0.3-0.1,0.5-0.1,0.7,0
		l0,0c-0.3-0.3-0.9-0.4-1.4-0.1c-0.6,0.3-0.9,0.9-0.7,1.4c0.2,0.5,0.9,0.6,1.5,0.3C85.5,150.3,85.8,149.8,85.7,149.5L85.7,149.5z"/>
	<path class="st3" d="M88.6,135.6c-0.2,0.1-0.4,0-0.7-0.1c-0.3-0.2-0.5-0.6-0.3-0.8c0.2-0.2,0.5-0.2,0.9,0c0.2,0.2,0.4,0.4,0.4,0.6
		l0,0c0.1-0.4-0.1-1-0.6-1.3c-0.6-0.4-1.3-0.4-1.6,0.1c-0.3,0.4,0,1.1,0.5,1.5C87.7,135.8,88.3,135.9,88.6,135.6L88.6,135.6z"/>
	<path class="st3" d="M92.2,132.5c-0.2,0-0.4-0.1-0.6-0.3c-0.2-0.3-0.3-0.7-0.1-0.9c0.2-0.2,0.6,0,0.8,0.3c0.2,0.2,0.2,0.5,0.2,0.7
		l0,0c0.3-0.3,0.2-0.9-0.2-1.4c-0.4-0.5-1.1-0.7-1.5-0.4c-0.4,0.3-0.4,1,0.1,1.6C91.2,132.5,91.8,132.7,92.2,132.5L92.2,132.5z"/>
	<path class="st3" d="M96.5,130.4c-0.2-0.1-0.3-0.3-0.4-0.6c-0.1-0.4,0-0.7,0.3-0.8c0.3-0.1,0.5,0.2,0.6,0.6c0.1,0.3,0,0.5-0.1,0.7
		l0,0c0.4-0.2,0.6-0.8,0.4-1.4c-0.2-0.7-0.7-1.1-1.2-1c-0.5,0.1-0.8,0.8-0.6,1.4C95.7,130,96.1,130.5,96.5,130.4L96.5,130.4z"/>
	<path class="st3" d="M105.9,130.9c-0.1-0.2-0.1-0.4,0-0.7c0.2-0.4,0.5-0.5,0.7-0.4c0.2,0.1,0.3,0.5,0.1,0.9
		c-0.1,0.3-0.3,0.4-0.5,0.5l0,0c0.4,0.1,0.9-0.2,1.2-0.8c0.3-0.6,0.2-1.3-0.3-1.5c-0.5-0.2-1.1,0.1-1.4,0.7
		C105.5,130.1,105.6,130.7,105.9,130.9L105.9,130.9z"/>
	<path class="st3" d="M110.2,133.2c0-0.2,0.1-0.4,0.3-0.6c0.3-0.2,0.7-0.3,0.9-0.1c0.2,0.2,0.1,0.6-0.3,0.8
		c-0.2,0.2-0.5,0.2-0.7,0.2l0,0c0.4,0.3,0.9,0.2,1.4-0.2c0.5-0.4,0.7-1.1,0.4-1.5c-0.3-0.4-1-0.4-1.6,0.1
		C110.2,132.3,110,132.9,110.2,133.2L110.2,133.2z"/>
	<path class="st3" d="M113.5,136.8c0-0.2,0.2-0.4,0.5-0.5c0.4-0.2,0.7-0.1,0.8,0.2c0.1,0.2-0.1,0.6-0.5,0.7c-0.3,0.1-0.5,0.1-0.7,0
		l0,0c0.3,0.3,0.9,0.4,1.4,0.2c0.6-0.3,1-0.9,0.8-1.3c-0.2-0.5-0.9-0.6-1.5-0.3C113.8,135.9,113.4,136.4,113.5,136.8L113.5,136.8z"
		/>
	<path class="st3" d="M115.5,141.2c0.1-0.2,0.4-0.3,0.6-0.3c0.4,0,0.7,0.2,0.7,0.5c0,0.3-0.3,0.5-0.7,0.5c-0.3,0-0.5-0.1-0.7-0.3
		l0,0c0.1,0.4,0.6,0.7,1.3,0.7c0.7,0,1.2-0.4,1.2-1c0-0.5-0.6-0.9-1.3-0.9C116,140.4,115.5,140.8,115.5,141.2L115.5,141.2z"/>
	<path class="st3" d="M116,146.4c0.2-0.1,0.4-0.2,0.7-0.1c0.4,0.1,0.6,0.4,0.6,0.7c-0.1,0.3-0.4,0.4-0.8,0.3
		c-0.3-0.1-0.5-0.2-0.5-0.4l0,0c0,0.4,0.4,0.9,1,1c0.7,0.2,1.3-0.1,1.5-0.6c0.1-0.5-0.3-1-1-1.2C116.7,145.9,116.1,146.1,116,146.4
		L116,146.4z"/>
</g>
</svg>
