<?xml version="1.0" encoding="utf-8"?>
<!-- Generator: Adobe Illustrator 21.1.0, SVG Export Plug-In . SVG Version: 6.00 Build 0)  -->
<svg version="1.1" id="Layer_1" xmlns="http://www.w3.org/2000/svg" xmlns:xlink="http://www.w3.org/1999/xlink" x="0px" y="0px"
	 viewBox="0 0 200 200" style="enable-background:new 0 0 200 200;" xml:space="preserve">
<style type="text/css">
	.st0{stroke:#FED800;stroke-width:4.2714;stroke-miterlimit:2.6131;}
	.st1{fill:#FFFFFF;}
	.st2{fill:#E23C28;}
	.st3{fill:none;stroke:#FED800;stroke-width:4.2714;stroke-miterlimit:2.6131;}
	.st4{fill:#FED800;}
	.st5{fill:#FED800;stroke:#6F6161;stroke-width:1.281;stroke-miterlimit:2.6131;}
	.st6{fill:none;stroke:#6F6161;stroke-width:1.281;stroke-miterlimit:2.6131;}
</style>
<g>
	<path class="st0" d="M4.5,8.9c0,0-0.3,14.3,3.2,40.6c3.5,26.3,12,68,34.3,99.7c21.9,31.1,58,42,58,42s36.1-10.9,58-42
		c22.3-31.7,30.9-73.4,34.3-99.7c3.5-26.3,3.2-40.6,3.2-40.6L4.5,8.9L4.5,8.9z"/>
	<path class="st1" d="M99.9,162.6c0,0,23.6-8.2,37.2-24.9c13.5-16.7,21.3-45.7,24.3-57.7C166.2,60.6,166,35,166,35L63.2,137.9
		c0,0,5,5.8,15.6,13.7C87.4,158.1,99.9,162.6,99.9,162.6L99.9,162.6z"/>
	<polygon class="st2" points="155.7,100.5 153.2,107.9 148,119.9 142.6,129.5 142.6,34.7 155.7,34.7 	"/>
	<polygon class="st2" points="131.1,143.7 125.4,148.8 117.9,153.9 117.9,34.8 131.1,34.8 	"/>
	<polygon class="st2" points="106.5,159.9 99.9,162.6 93.4,160 93.4,34.8 106.5,34.8 	"/>
	<polygon class="st2" points="81.8,153.8 75.2,149.1 68.7,143.7 68.7,34.9 81.8,34.9 	"/>
	<polygon class="st2" points="57.1,129.3 51.8,119.7 46.8,108.6 44,100.3 44,34.9 57.1,34.9 	"/>
	<path class="st3" d="M63,138.1L166.2,35 M33.5,34.9c0,0-0.2,10,2.2,28.4c2.4,18.4,8.4,47.7,23.9,69.9
		c15.2,21.8,40.3,29.4,40.3,29.4s25.1-7.6,40.3-29.4c15.5-22.2,21.5-51.4,23.9-69.9c2.4-18.4,2.2-28.4,2.2-28.4L33.5,34.9L33.5,34.9
		z"/>
	<path class="st4" d="M31.3,24.2c0.3,0.2,0.5,0.5,0.7,0.8c0.2,0.3,0.3,0.7,0.3,1.1c0,0.5-0.1,1-0.3,1.3c-0.2,0.4-0.5,0.6-0.9,0.9
		c-0.4,0.2-0.9,0.4-1.4,0.5c-0.5,0.1-1.2,0.1-1.9,0.1h-5v-0.6c0.1,0,0.3,0,0.5-0.1c0.2,0,0.4-0.1,0.4-0.1c0.2-0.1,0.3-0.2,0.3-0.3
		c0.1-0.1,0.1-0.3,0.1-0.5v-7.3c0-0.2,0-0.3-0.1-0.4c-0.1-0.1-0.2-0.2-0.4-0.3c-0.1-0.1-0.3-0.1-0.5-0.2c-0.2,0-0.3-0.1-0.5-0.1
		v-0.6h5.2c1.3,0,2.3,0.2,2.8,0.6c0.6,0.4,0.9,1,0.9,1.7c0,0.3-0.1,0.7-0.2,0.9c-0.1,0.3-0.3,0.5-0.6,0.7c-0.2,0.2-0.5,0.3-0.8,0.5
		c-0.3,0.1-0.6,0.2-1,0.3v0.1c0.4,0,0.7,0.1,1.1,0.2C30.7,23.9,31,24,31.3,24.2L31.3,24.2z M29.2,21.1c0-0.6-0.2-1-0.5-1.3
		c-0.3-0.3-0.8-0.5-1.4-0.5c-0.1,0-0.2,0-0.3,0c-0.1,0-0.3,0-0.4,0v3.8H27c0.7,0,1.3-0.2,1.6-0.5C29,22.3,29.2,21.8,29.2,21.1
		L29.2,21.1z M29.6,26.1c0-0.7-0.2-1.3-0.6-1.6c-0.4-0.4-1-0.6-1.7-0.6c-0.1,0-0.2,0-0.3,0c-0.1,0-0.2,0-0.3,0v3.8
		c0,0.2,0.2,0.3,0.4,0.5c0.2,0.1,0.5,0.2,0.8,0.2c0.5,0,1-0.2,1.3-0.6C29.4,27.3,29.6,26.8,29.6,26.1L29.6,26.1z"/>
	<path class="st4" d="M44.4,19.2c-0.1,0-0.3,0-0.6,0.1c-0.2,0.1-0.5,0.1-0.6,0.3c-0.2,0.1-0.3,0.3-0.4,0.7c-0.1,0.3-0.1,0.8-0.1,1.4
		v3.8c0,1.1-0.4,2-1.1,2.7c-0.7,0.7-1.7,1-2.8,1c-1.4,0-2.4-0.3-3.2-1c-0.7-0.7-1.1-1.6-1.1-2.8v-5.3c0-0.2,0-0.3-0.1-0.4
		c-0.1-0.1-0.2-0.2-0.4-0.3c-0.1-0.1-0.3-0.1-0.4-0.2c-0.2,0-0.3-0.1-0.4-0.1v-0.6h5v0.6c-0.1,0-0.3,0-0.4,0.1
		c-0.1,0-0.3,0.1-0.5,0.1c-0.2,0.1-0.3,0.2-0.3,0.3c-0.1,0.1-0.1,0.3-0.1,0.5v5.2c0,1,0.2,1.8,0.6,2.2c0.4,0.5,1,0.7,1.8,0.7
		c0.8,0,1.4-0.3,1.9-0.8c0.4-0.5,0.7-1.3,0.7-2.3v-3.5c0-0.6,0-1.1-0.1-1.4c-0.1-0.3-0.2-0.5-0.4-0.7c-0.1-0.1-0.3-0.2-0.6-0.3
		c-0.3-0.1-0.5-0.1-0.6-0.2v-0.6h4.2L44.4,19.2L44.4,19.2z"/>
	<path class="st4" d="M53.5,19.7c0.6,0.4,1.1,1,1.4,1.6c0.4,0.7,0.5,1.5,0.5,2.5c0,0.9-0.2,1.6-0.5,2.3c-0.3,0.6-0.7,1.2-1.3,1.6
		c-0.5,0.4-1.2,0.7-1.8,0.9c-0.7,0.2-1.4,0.3-2.2,0.3h-4.8v-0.6c0.1,0,0.3,0,0.5,0c0.2,0,0.4-0.1,0.4-0.1c0.2-0.1,0.3-0.2,0.3-0.3
		c0.1-0.1,0.1-0.3,0.1-0.4v-7.3c0-0.2,0-0.3-0.1-0.4c-0.1-0.1-0.2-0.2-0.3-0.3c-0.2-0.1-0.4-0.1-0.5-0.2c-0.2,0-0.3,0-0.4-0.1v-0.6
		H50c0.5,0,1.1,0.1,1.7,0.2C52.3,19,52.9,19.3,53.5,19.7L53.5,19.7z M52.1,27.1c0.2-0.4,0.4-0.8,0.5-1.4c0.1-0.5,0.2-1.2,0.2-1.8
		c0-0.7-0.1-1.3-0.2-1.9c-0.1-0.6-0.3-1-0.6-1.4s-0.6-0.7-1-0.9c-0.4-0.2-0.8-0.3-1.3-0.3c-0.2,0-0.3,0-0.5,0c-0.2,0-0.4,0-0.4,0
		v7.8c0,0.2,0,0.3,0.1,0.5c0,0.1,0.1,0.3,0.2,0.4c0.1,0.1,0.2,0.2,0.4,0.2c0.2,0.1,0.3,0.1,0.6,0.1c0.5,0,0.9-0.1,1.3-0.3
		C51.6,27.8,51.9,27.5,52.1,27.1L52.1,27.1z"/>
	<path class="st4" d="M66.8,28.9h-5.2v-0.6c0.2,0,0.5-0.1,0.9-0.1c0.3-0.1,0.5-0.2,0.5-0.3c0,0,0-0.1,0-0.1c0,0,0-0.1-0.1-0.2
		l-0.8-2.2h-3.3c-0.1,0.2-0.2,0.4-0.3,0.7c-0.1,0.3-0.2,0.5-0.2,0.7c-0.1,0.3-0.1,0.5-0.2,0.6c0,0.1,0,0.2,0,0.3
		c0,0.2,0.1,0.3,0.3,0.4c0.2,0.1,0.6,0.2,1.1,0.2v0.6h-3.9v-0.6c0.1,0,0.3,0,0.5-0.1c0.2,0,0.3-0.1,0.4-0.2c0.2-0.1,0.3-0.3,0.5-0.4
		c0.1-0.2,0.2-0.4,0.3-0.6c0.5-1.4,1-2.7,1.6-4.1c0.5-1.4,1.1-2.9,1.7-4.5H62c0.9,2.3,1.6,4.2,2.1,5.5c0.5,1.4,0.9,2.5,1.3,3.4
		c0.1,0.1,0.1,0.3,0.2,0.4c0.1,0.1,0.2,0.2,0.4,0.3c0.1,0.1,0.3,0.1,0.4,0.2c0.2,0,0.3,0.1,0.5,0.1L66.8,28.9L66.8,28.9z M61.8,24.8
		L60.4,21L59,24.8H61.8L61.8,24.8z"/>
	<path class="st4" d="M75.9,21.2c0,0.6-0.1,1.1-0.3,1.5c-0.2,0.4-0.5,0.8-0.9,1c-0.4,0.3-0.9,0.5-1.4,0.6c-0.5,0.1-1.1,0.2-1.8,0.2
		h-0.8v2.9c0,0.2,0,0.3,0.1,0.5c0.1,0.1,0.2,0.2,0.4,0.3c0.1,0,0.2,0.1,0.4,0.1c0.2,0,0.4,0.1,0.5,0.1v0.6h-5.2v-0.6
		c0.1,0,0.3,0,0.5-0.1c0.2,0,0.4-0.1,0.5-0.1c0.2-0.1,0.3-0.2,0.3-0.3c0.1-0.1,0.1-0.3,0.1-0.5v-7.3c0-0.2,0-0.3-0.1-0.4
		c-0.1-0.1-0.2-0.2-0.4-0.3c-0.1-0.1-0.3-0.1-0.5-0.2c-0.2,0-0.4-0.1-0.5-0.1v-0.6h5.3c1.2,0,2.2,0.2,2.8,0.6
		C75.6,19.7,75.9,20.4,75.9,21.2L75.9,21.2z M73.3,21.6c0-0.8-0.1-1.3-0.4-1.7c-0.3-0.4-0.8-0.6-1.6-0.6h-0.6v4.5H71
		c0.7,0,1.3-0.2,1.7-0.5C73.1,22.9,73.3,22.3,73.3,21.6L73.3,21.6z"/>
	<path class="st4" d="M85.2,21.3h-0.5c-0.1-0.4-0.4-0.8-0.7-1.2c-0.3-0.4-0.6-0.6-1-0.7c-0.1,0-0.3-0.1-0.6-0.1c-0.2,0-0.4,0-0.6,0
		h-1.4v4h1c0.2,0,0.5,0,0.7-0.1c0.2-0.1,0.4-0.2,0.6-0.4c0.1-0.1,0.2-0.3,0.3-0.6c0.1-0.3,0.2-0.5,0.2-0.7h0.5v4.3h-0.5
		c0-0.2-0.1-0.5-0.2-0.8c-0.1-0.3-0.2-0.5-0.3-0.6c-0.1-0.2-0.3-0.3-0.5-0.4c-0.2-0.1-0.4-0.1-0.7-0.1h-1v3c0,0.3,0,0.6,0.1,0.7
		c0,0.2,0.1,0.3,0.2,0.4c0.1,0.1,0.3,0.2,0.5,0.2c0.2,0,0.5,0,0.8,0c0.2,0,0.3,0,0.6,0c0.2,0,0.4,0,0.6,0c0.2,0,0.4-0.1,0.5-0.1
		c0.2,0,0.3-0.1,0.4-0.2c0.2-0.2,0.5-0.6,0.7-1.1c0.3-0.5,0.4-0.9,0.5-1.1h0.5l-0.2,3.2h-9v-0.6c0.1,0,0.3,0,0.5-0.1
		c0.2,0,0.4-0.1,0.5-0.1c0.2-0.1,0.3-0.2,0.3-0.3c0.1-0.1,0.1-0.3,0.1-0.5v-7.3c0-0.2,0-0.3-0.1-0.4c0-0.1-0.2-0.2-0.4-0.3
		c-0.1-0.1-0.3-0.1-0.5-0.2c-0.2,0-0.4-0.1-0.5-0.1v-0.6h8.5L85.2,21.3L85.2,21.3z"/>
	<path class="st4" d="M90.7,29.2c-0.6,0-1.1-0.1-1.6-0.2c-0.5-0.2-0.9-0.3-1.3-0.6l-0.5,0.5h-0.6l-0.1-3.7h0.6
		c0.1,0.4,0.3,0.7,0.5,1.1c0.2,0.4,0.4,0.7,0.7,1c0.3,0.3,0.6,0.6,0.9,0.8c0.3,0.2,0.7,0.3,1.2,0.3c0.6,0,1.1-0.2,1.4-0.5
		c0.3-0.3,0.5-0.7,0.5-1.2c0-0.4-0.1-0.7-0.4-1c-0.3-0.3-0.7-0.5-1.3-0.7c-0.4-0.1-0.7-0.3-1-0.4c-0.3-0.1-0.6-0.2-0.9-0.3
		c-0.6-0.3-1.1-0.7-1.4-1.2c-0.3-0.5-0.5-1.1-0.5-1.7c0-0.4,0.1-0.8,0.2-1.2c0.2-0.4,0.4-0.7,0.7-1c0.3-0.3,0.7-0.5,1.1-0.7
		c0.5-0.2,1-0.3,1.5-0.3c0.5,0,1,0.1,1.5,0.2c0.5,0.2,0.8,0.3,1.1,0.5l0.4-0.4h0.6l0,3.5h-0.6c-0.1-0.4-0.3-0.8-0.5-1.1
		c-0.2-0.4-0.4-0.7-0.6-1c-0.2-0.3-0.5-0.5-0.8-0.7c-0.3-0.2-0.6-0.2-1-0.2c-0.5,0-0.9,0.1-1.2,0.4c-0.3,0.3-0.5,0.7-0.5,1.1
		c0,0.4,0.1,0.7,0.4,1s0.7,0.5,1.2,0.7c0.3,0.1,0.7,0.2,1,0.4c0.3,0.1,0.7,0.2,0.9,0.3c0.6,0.3,1.1,0.6,1.5,1.1
		c0.3,0.5,0.5,1.1,0.5,1.8c0,0.4-0.1,0.9-0.3,1.3c-0.2,0.4-0.5,0.8-0.8,1c-0.4,0.3-0.8,0.5-1.2,0.7C91.8,29.1,91.3,29.2,90.7,29.2
		L90.7,29.2z"/>
	<path class="st4" d="M104.5,21.6H104c-0.1-0.4-0.4-0.9-0.7-1.4c-0.3-0.5-0.6-0.8-0.9-0.8c-0.1,0-0.3,0-0.5-0.1c-0.2,0-0.4,0-0.5,0
		h-0.3v8.1c0,0.2,0,0.3,0.1,0.5c0.1,0.1,0.2,0.2,0.3,0.3c0.1,0,0.3,0.1,0.5,0.1c0.2,0,0.4,0.1,0.6,0.1v0.6h-5.4v-0.6
		c0.1,0,0.3,0,0.6-0.1c0.2,0,0.4-0.1,0.5-0.1c0.2-0.1,0.3-0.2,0.4-0.3c0.1-0.1,0.1-0.3,0.1-0.5v-8.1h-0.3c-0.2,0-0.3,0-0.5,0
		c-0.2,0-0.4,0-0.5,0.1c-0.3,0-0.5,0.3-0.9,0.8c-0.3,0.5-0.5,1-0.7,1.4h-0.5v-2.9h9.3L104.5,21.6L104.5,21.6z"/>
	<polygon class="st4" points="109.3,25.8 105.2,25.8 105.2,24.2 109.3,24.2 	"/>
	<path class="st4" d="M122.1,28.9h-5.2v-0.6c0.1,0,0.3,0,0.5,0c0.2,0,0.4,0,0.4-0.1c0.2-0.1,0.3-0.2,0.3-0.3
		c0.1-0.1,0.1-0.3,0.1-0.5V24h-4.1v3.5c0,0.2,0,0.3,0.1,0.4c0.1,0.1,0.2,0.2,0.3,0.3c0.1,0,0.2,0.1,0.4,0.1c0.2,0,0.4,0.1,0.5,0.1
		v0.6h-5.2v-0.6c0.1,0,0.3,0,0.5,0c0.2,0,0.4-0.1,0.5-0.1c0.2-0.1,0.3-0.2,0.3-0.3c0.1-0.1,0.1-0.3,0.1-0.5v-7.3
		c0-0.2,0-0.3-0.1-0.4c-0.1-0.1-0.2-0.2-0.3-0.3c-0.1-0.1-0.3-0.1-0.5-0.2c-0.2-0.1-0.4-0.1-0.5-0.1v-0.6h5.2v0.6
		c-0.1,0-0.3,0-0.5,0.1c-0.2,0-0.3,0.1-0.4,0.1c-0.2,0.1-0.3,0.2-0.3,0.3c-0.1,0.1-0.1,0.3-0.1,0.4v3.1h4.1v-3c0-0.2,0-0.3-0.1-0.4
		c-0.1-0.1-0.2-0.2-0.3-0.3c-0.1-0.1-0.3-0.1-0.5-0.2c-0.2-0.1-0.3-0.1-0.5-0.1v-0.6h5.2v0.6c-0.1,0-0.3,0-0.5,0.1
		c-0.2,0-0.3,0.1-0.5,0.1c-0.2,0.1-0.3,0.2-0.3,0.3c-0.1,0.1-0.1,0.3-0.1,0.4v7.3c0,0.2,0,0.3,0.1,0.4c0.1,0.1,0.2,0.2,0.3,0.3
		c0.1,0,0.3,0.1,0.5,0.1c0.2,0,0.4,0.1,0.5,0.1L122.1,28.9L122.1,28.9z"/>
	<path class="st4" d="M131.8,19.8c0.5,0.5,0.8,1,1.1,1.7c0.3,0.7,0.4,1.4,0.4,2.2c0,0.7-0.1,1.5-0.4,2.1c-0.2,0.7-0.6,1.3-1,1.7
		c-0.5,0.5-1,0.9-1.6,1.2c-0.6,0.3-1.4,0.4-2.2,0.4c-0.7,0-1.4-0.1-2-0.4c-0.6-0.2-1.2-0.6-1.6-1.1c-0.5-0.5-0.8-1-1.1-1.7
		c-0.3-0.7-0.4-1.4-0.4-2.2c0-0.8,0.1-1.6,0.4-2.3c0.3-0.7,0.6-1.3,1.1-1.8c0.5-0.5,1-0.8,1.6-1.1c0.6-0.3,1.3-0.4,2-0.4
		c0.7,0,1.4,0.1,2,0.4C130.8,19,131.4,19.4,131.8,19.8L131.8,19.8z M130.1,27.2c0.2-0.4,0.3-0.9,0.4-1.5c0.1-0.6,0.1-1.2,0.1-1.9
		c0-0.6,0-1.2-0.1-1.7c-0.1-0.6-0.2-1.1-0.4-1.5c-0.2-0.4-0.4-0.8-0.8-1.1c-0.3-0.3-0.7-0.4-1.2-0.4c-0.8,0-1.4,0.4-1.8,1.2
		c-0.4,0.8-0.6,2-0.6,3.5c0,0.6,0,1.3,0.1,1.8c0.1,0.6,0.2,1.1,0.4,1.5c0.2,0.4,0.5,0.8,0.8,1c0.3,0.2,0.7,0.4,1.1,0.4
		c0.4,0,0.8-0.1,1.1-0.4C129.7,27.9,129.9,27.6,130.1,27.2L130.1,27.2z"/>
	<path class="st4" d="M145.4,19.2c-0.1,0-0.3,0-0.6,0.1c-0.2,0-0.5,0.1-0.6,0.3c-0.2,0.1-0.3,0.4-0.4,0.7c-0.1,0.3-0.1,0.8-0.1,1.4
		V29h-1.2l-6-8v4.8c0,0.6,0,1.1,0.1,1.4c0.1,0.3,0.2,0.5,0.4,0.7c0.1,0.1,0.3,0.2,0.6,0.3c0.3,0.1,0.5,0.1,0.6,0.2v0.6h-4.2v-0.6
		c0.2,0,0.4,0,0.6-0.1c0.2-0.1,0.4-0.1,0.6-0.3c0.2-0.1,0.3-0.4,0.4-0.6c0.1-0.3,0.1-0.8,0.1-1.4v-4.9c0-0.2,0-0.5-0.1-0.7
		c-0.1-0.2-0.2-0.4-0.3-0.6c-0.2-0.2-0.3-0.3-0.5-0.4c-0.2-0.1-0.4-0.2-0.7-0.2v-0.6h3.6l5.2,7v-3.9c0-0.6,0-1.1-0.1-1.4
		c-0.1-0.3-0.2-0.5-0.4-0.7c-0.1-0.1-0.3-0.2-0.6-0.3c-0.3-0.1-0.5-0.1-0.6-0.2v-0.5h4.2L145.4,19.2L145.4,19.2z"/>
	<path class="st4" d="M156.3,19.2c-0.1,0-0.3,0-0.4,0.1c-0.1,0-0.3,0.1-0.4,0.2c-0.2,0.1-0.3,0.3-0.4,0.4c-0.1,0.1-0.2,0.3-0.3,0.6
		c-0.1,0.3-0.3,0.8-0.6,1.5c-0.3,0.6-0.5,1.4-0.9,2.2c-0.3,0.7-0.6,1.5-0.9,2.4c-0.3,0.9-0.7,1.7-1,2.5H150
		c-0.6-1.7-1.3-3.3-1.9-5.1c-0.7-1.7-1.1-2.9-1.4-3.6c-0.1-0.2-0.2-0.4-0.3-0.6c-0.1-0.1-0.3-0.3-0.5-0.4c-0.2-0.1-0.3-0.2-0.4-0.2
		c-0.1,0-0.3-0.1-0.5-0.1v-0.6h5.2v0.5c-0.5,0.1-0.8,0.1-1,0.2c-0.2,0.1-0.3,0.2-0.3,0.3c0,0.1,0,0.1,0,0.2c0,0.1,0,0.1,0.1,0.2
		c0.1,0.4,0.4,1.1,0.8,2.1c0.4,1,0.9,2.4,1.7,4.4c0.5-1.2,0.8-2.2,1.1-3.1c0.3-0.8,0.6-1.6,0.8-2.2c0.1-0.3,0.2-0.6,0.3-0.9
		c0.1-0.3,0.1-0.5,0.1-0.6c0-0.2-0.1-0.3-0.3-0.4c-0.2-0.1-0.6-0.2-1.2-0.2v-0.6h3.9L156.3,19.2L156.3,19.2z"/>
	<path class="st4" d="M165,21.3h-0.5c-0.1-0.4-0.4-0.8-0.7-1.2c-0.3-0.4-0.6-0.6-1-0.7c-0.1,0-0.3-0.1-0.6-0.1c-0.2,0-0.4,0-0.6,0
		h-1.4v4h1c0.2,0,0.5,0,0.7-0.1c0.2-0.1,0.4-0.2,0.6-0.4c0.1-0.1,0.2-0.3,0.3-0.6c0.1-0.3,0.2-0.5,0.2-0.7h0.5v4.3h-0.5
		c0-0.2-0.1-0.5-0.2-0.8c-0.1-0.3-0.2-0.5-0.3-0.6c-0.1-0.2-0.3-0.3-0.5-0.4c-0.2-0.1-0.4-0.1-0.7-0.1h-1v3c0,0.3,0,0.6,0.1,0.7
		c0,0.2,0.1,0.3,0.2,0.4c0.1,0.1,0.3,0.2,0.5,0.2c0.2,0,0.5,0,0.8,0c0.2,0,0.3,0,0.6,0c0.2,0,0.4,0,0.6,0c0.2,0,0.4-0.1,0.5-0.1
		c0.2,0,0.3-0.1,0.4-0.2c0.2-0.2,0.5-0.6,0.7-1.1c0.3-0.5,0.4-0.9,0.5-1.1h0.5l-0.2,3.2h-9v-0.6c0.1,0,0.3,0,0.5-0.1
		c0.2,0,0.4-0.1,0.5-0.1c0.2-0.1,0.3-0.2,0.3-0.3c0.1-0.1,0.1-0.3,0.1-0.5v-7.3c0-0.2,0-0.3-0.1-0.4c0-0.1-0.2-0.2-0.4-0.3
		c-0.1-0.1-0.3-0.1-0.5-0.2c-0.2,0-0.4-0.1-0.5-0.1v-0.6h8.5L165,21.3L165,21.3z M163.3,16.1c0,0.2-0.1,0.4-0.2,0.5
		c-0.1,0.1-0.3,0.2-0.5,0.3c-0.3,0.1-0.6,0.3-1.1,0.5c-0.5,0.2-1.1,0.4-1.8,0.7l-0.2-0.3c0.5-0.5,0.8-0.8,1-1.1
		c0.2-0.3,0.5-0.5,0.7-0.8c0.2-0.2,0.3-0.3,0.5-0.4c0.2-0.1,0.3-0.1,0.5-0.1c0.3,0,0.5,0.1,0.7,0.2
		C163.2,15.7,163.3,15.9,163.3,16.1L163.3,16.1z"/>
	<path class="st4" d="M175.2,19.7c0.6,0.4,1.1,1,1.4,1.6c0.4,0.7,0.5,1.5,0.5,2.5c0,0.9-0.2,1.6-0.5,2.3c-0.3,0.6-0.7,1.2-1.3,1.6
		c-0.5,0.4-1.2,0.7-1.8,0.9c-0.7,0.2-1.4,0.3-2.2,0.3h-4.8v-0.6c0.1,0,0.3,0,0.5,0c0.2,0,0.4-0.1,0.4-0.1c0.2-0.1,0.3-0.2,0.3-0.3
		c0.1-0.1,0.1-0.3,0.1-0.4v-7.3c0-0.2,0-0.3-0.1-0.4c-0.1-0.1-0.2-0.2-0.3-0.3c-0.2-0.1-0.4-0.1-0.5-0.2c-0.2,0-0.3,0-0.4-0.1v-0.6
		h5.1c0.5,0,1.1,0.1,1.7,0.2C174,19,174.6,19.3,175.2,19.7L175.2,19.7z M173.8,27.1c0.2-0.4,0.4-0.8,0.5-1.4
		c0.1-0.5,0.2-1.2,0.2-1.8c0-0.7-0.1-1.3-0.2-1.9c-0.1-0.6-0.3-1-0.6-1.4c-0.3-0.4-0.6-0.7-1-0.9c-0.4-0.2-0.8-0.3-1.3-0.3
		c-0.2,0-0.3,0-0.5,0c-0.2,0-0.3,0-0.4,0v7.8c0,0.2,0,0.3,0.1,0.5c0,0.1,0.1,0.3,0.2,0.4c0.1,0.1,0.2,0.2,0.4,0.2
		c0.2,0.1,0.3,0.1,0.6,0.1c0.5,0,0.9-0.1,1.3-0.3C173.3,27.8,173.5,27.5,173.8,27.1L173.8,27.1z"/>
	<path class="st4" d="M99,172.9h-0.6c-0.1-0.4-0.4-0.8-0.8-1.2c-0.4-0.4-0.7-0.7-1.1-0.7c-0.2,0-0.4,0-0.6,0c-0.3,0-0.5,0-0.7,0
		h-1.7v3.9h1.1c0.3,0,0.6,0,0.8-0.1c0.2-0.1,0.4-0.2,0.6-0.3c0.1-0.1,0.2-0.3,0.4-0.6c0.1-0.3,0.2-0.5,0.2-0.7h0.6v4.2h-0.6
		c0-0.2-0.1-0.5-0.2-0.8c-0.1-0.3-0.3-0.5-0.4-0.6c-0.1-0.1-0.3-0.3-0.6-0.3c-0.2-0.1-0.5-0.1-0.8-0.1h-1.1v3.3c0,0.2,0,0.3,0.1,0.4
		c0.1,0.1,0.2,0.2,0.4,0.3c0.1,0,0.3,0.1,0.5,0.1c0.2,0,0.4,0.1,0.6,0.1v0.6h-5.8v-0.6c0.1,0,0.3,0,0.6-0.1c0.2,0,0.4-0.1,0.5-0.1
		c0.2-0.1,0.3-0.2,0.4-0.3c0.1-0.1,0.1-0.3,0.1-0.4v-7c0-0.2,0-0.3-0.1-0.4c-0.1-0.1-0.2-0.2-0.4-0.3c-0.1-0.1-0.3-0.1-0.6-0.2
		c-0.2,0-0.4-0.1-0.5-0.1v-0.6H99L99,172.9L99,172.9z"/>
	<path class="st4" d="M105.4,180.5c-0.8,0-1.5-0.1-2.2-0.4c-0.7-0.2-1.3-0.6-1.8-1c-0.5-0.4-0.9-1-1.2-1.6c-0.3-0.7-0.4-1.4-0.4-2.1
		c0-0.8,0.1-1.5,0.4-2.2c0.3-0.7,0.7-1.2,1.2-1.7c0.5-0.5,1.1-0.8,1.9-1.1c0.7-0.3,1.5-0.4,2.3-0.4c0.6,0,1.1,0.1,1.6,0.2
		c0.5,0.1,0.9,0.3,1.2,0.5l0.5-0.4h0.7l0.1,3.6H109c-0.4-1.1-0.8-1.9-1.4-2.5c-0.5-0.5-1.2-0.8-1.9-0.8c-1,0-1.7,0.4-2.2,1.2
		c-0.5,0.8-0.7,1.9-0.7,3.3c0,0.8,0.1,1.5,0.3,2c0.2,0.6,0.4,1,0.7,1.4c0.3,0.4,0.6,0.6,1,0.8c0.4,0.2,0.8,0.3,1.3,0.3
		c0.7,0,1.3-0.2,1.9-0.5c0.6-0.4,1.1-0.9,1.5-1.6l0.7,0.4c-0.2,0.4-0.5,0.8-0.7,1.1c-0.3,0.3-0.6,0.6-1,0.8
		c-0.4,0.3-0.8,0.5-1.3,0.6C106.6,180.5,106.1,180.5,105.4,180.5L105.4,180.5z"/>
	<path class="st4" d="M145.2,141.2l4.9,2.9c0.2,0.1,0.3,0.2,0.4,0.2c0.1,0,0.2,0,0.2-0.1c0.1-0.1,0.2-0.2,0.3-0.4l0.4-0.6l0.9,0.5
		l-2.4,4l-0.9-0.5l0.4-0.7c0.1-0.2,0.2-0.4,0.2-0.5c0-0.1,0-0.2-0.1-0.2c0-0.1-0.2-0.2-0.4-0.3l-3.5-2.1l-0.8,1.3l-0.9-0.5
		c0.2-0.4,0.3-0.7,0.4-0.9c0.1-0.3,0.2-0.7,0.3-1.1c0.1-0.2,0.1-0.4,0.1-0.6L145.2,141.2L145.2,141.2z"/>
	<path class="st4" d="M153.5,141.9l-0.9-0.5c0.3-0.6,0.6-1.1,0.7-1.5c0.1-0.4,0.2-0.8,0.2-1.1c0-0.3-0.1-0.6-0.2-0.9
		c-0.1-0.3-0.3-0.5-0.5-0.7c0,0.4,0,0.7-0.1,1c-0.1,0.3-0.2,0.6-0.4,0.9c-0.3,0.4-0.6,0.8-1,1c-0.4,0.2-0.8,0.4-1.2,0.4
		c-0.4,0-0.8-0.1-1.2-0.4c-0.7-0.4-1.1-1-1.2-1.7c-0.1-0.7,0-1.5,0.5-2.4c0.5-0.9,1.1-1.4,1.9-1.6c0.9-0.3,1.7-0.1,2.6,0.4
		c0.6,0.4,1.1,0.8,1.4,1.2c0.3,0.4,0.5,1,0.6,1.6c0.1,0.6,0,1.2-0.1,1.9C154.4,140.2,154,140.9,153.5,141.9L153.5,141.9z M151.5,138
		c0.1-0.2,0.2-0.5,0.2-0.7c0-0.2,0-0.4-0.2-0.7c-0.1-0.2-0.3-0.4-0.5-0.5c-0.3-0.2-0.7-0.3-1-0.2c-0.3,0.1-0.6,0.3-0.8,0.6
		c-0.2,0.3-0.3,0.7-0.2,1c0.1,0.3,0.3,0.6,0.7,0.8c0.4,0.2,0.7,0.3,1,0.2C151.1,138.5,151.3,138.3,151.5,138L151.5,138z"/>
	<path class="st4" d="M157.2,135.7l-0.9-0.5c0.3-0.6,0.6-1.1,0.7-1.5c0.1-0.4,0.2-0.8,0.2-1.1c0-0.3-0.1-0.6-0.2-0.9
		c-0.1-0.3-0.3-0.5-0.5-0.7c0,0.4,0,0.7-0.1,1c-0.1,0.3-0.2,0.6-0.4,0.9c-0.3,0.4-0.6,0.8-1,1c-0.4,0.2-0.8,0.4-1.2,0.4
		c-0.4,0-0.8-0.1-1.2-0.4c-0.7-0.4-1.1-1-1.2-1.7c-0.1-0.7,0-1.5,0.5-2.4c0.5-0.9,1.1-1.4,1.9-1.6c0.9-0.3,1.7-0.1,2.6,0.4
		c0.6,0.4,1.1,0.8,1.4,1.2c0.3,0.4,0.5,1,0.6,1.6c0.1,0.6,0,1.2-0.1,1.9C158.1,133.9,157.8,134.7,157.2,135.7L157.2,135.7z
		 M155.3,131.8c0.1-0.2,0.2-0.5,0.2-0.7c0-0.2,0-0.4-0.2-0.7c-0.1-0.2-0.3-0.4-0.5-0.5c-0.3-0.2-0.7-0.3-1-0.2
		c-0.3,0.1-0.6,0.3-0.8,0.6c-0.2,0.3-0.2,0.7-0.2,1c0.1,0.3,0.3,0.6,0.7,0.8c0.4,0.2,0.7,0.3,1,0.2
		C154.8,132.3,155.1,132.1,155.3,131.8L155.3,131.8z"/>
	<path class="st4" d="M156.3,122.4l4.9,2.9c0.2,0.1,0.3,0.2,0.4,0.2c0.1,0,0.2,0,0.2-0.1c0.1-0.1,0.2-0.2,0.3-0.4l0.4-0.6l0.9,0.5
		l-2.4,4l-0.9-0.5l0.4-0.7c0.1-0.2,0.2-0.4,0.2-0.5c0-0.1,0-0.2-0.1-0.2c0-0.1-0.2-0.2-0.4-0.3l-3.5-2.1l-0.8,1.3l-0.9-0.5
		c0.2-0.4,0.3-0.7,0.4-0.9c0.1-0.3,0.2-0.7,0.3-1.1c0.1-0.2,0.1-0.4,0.1-0.6L156.3,122.4L156.3,122.4z"/>
	<path class="st4" d="M169.8,92.5l-0.1,1.1c-0.2,0-0.4,0-0.5-0.1c-0.5-0.1-0.9-0.3-1.2-0.6s-0.5-0.8-0.6-1.3c-0.1-0.5-0.1-1.1,0-1.7
		c0.1-0.6,0.3-1,0.6-1.4c0.3-0.4,0.6-0.7,1-0.8c0.4-0.2,0.7-0.2,1.1-0.1c0.4,0.1,0.7,0.2,1,0.5c0.3,0.3,0.6,0.6,0.8,1.1
		c0.2,0.5,0.6,1.4,1,2.8l0.4-1.8c0.1-0.3,0.1-0.5,0.1-0.6c0-0.1-0.1-0.2-0.1-0.2c-0.1-0.1-0.2-0.2-0.4-0.2l-0.2-0.1l0.2-1l2.5,1.1
		l-0.2,0.7l-0.3,0l-1.1,4.8l-1-0.2c-0.3-0.8-0.7-1.9-1.4-3.1c-0.3-0.7-0.6-1.1-0.9-1.4c-0.2-0.2-0.4-0.3-0.7-0.4
		c-0.3-0.1-0.6,0-0.9,0.2c-0.3,0.2-0.4,0.5-0.5,1c-0.1,0.3-0.1,0.6,0,0.9c0.1,0.3,0.2,0.5,0.4,0.7c0.2,0.2,0.4,0.3,0.6,0.3
		C169.6,92.4,169.7,92.5,169.8,92.5L169.8,92.5z"/>
	<path class="st4" d="M169,82.7c0.1-0.7,0.4-1.2,0.8-1.6s0.9-0.7,1.4-0.8c0.6-0.2,1.3-0.1,2.1,0c0.9,0.2,1.6,0.5,2,0.8
		c0.5,0.4,0.8,0.9,1,1.4c0.2,0.5,0.2,1.1,0,1.8c-0.2,0.7-0.4,1.2-0.8,1.6c-0.4,0.4-0.9,0.7-1.5,0.8c-0.6,0.2-1.3,0.1-2.1-0.1
		c-0.8-0.2-1.5-0.5-1.9-0.9c-0.5-0.4-0.8-0.8-1-1.4C168.8,84,168.8,83.4,169,82.7L169,82.7z M172.9,82.2c-0.9-0.2-1.6-0.2-2.1,0
		c-0.4,0.2-0.7,0.5-0.8,0.9c-0.1,0.4,0,0.7,0.4,1.1c0.3,0.3,1,0.6,1.9,0.8c0.9,0.2,1.6,0.2,2.1,0.1c0.4-0.2,0.7-0.5,0.8-0.9
		c0.1-0.4,0-0.8-0.4-1.1C174.5,82.6,173.8,82.4,172.9,82.2L172.9,82.2z"/>
	<path class="st4" d="M170.5,75.6c0.1-0.7,0.4-1.2,0.8-1.6c0.4-0.4,0.9-0.7,1.4-0.8c0.6-0.2,1.3-0.1,2.1,0c0.9,0.2,1.6,0.5,2,0.8
		c0.5,0.4,0.8,0.9,1,1.4c0.2,0.5,0.2,1.1,0,1.8c-0.1,0.7-0.4,1.2-0.8,1.6c-0.4,0.4-0.9,0.7-1.5,0.8c-0.6,0.2-1.3,0.1-2.1-0.1
		c-0.8-0.2-1.5-0.5-1.9-0.9c-0.5-0.4-0.8-0.8-1-1.4C170.4,76.9,170.4,76.3,170.5,75.6L170.5,75.6z M174.5,75.1
		c-0.9-0.2-1.6-0.2-2.1,0c-0.4,0.2-0.7,0.5-0.8,0.9c-0.1,0.4,0,0.7,0.4,1.1c0.3,0.3,1,0.6,1.9,0.8c0.9,0.2,1.6,0.2,2.1,0.1
		c0.4-0.2,0.7-0.5,0.8-0.9c0.1-0.4,0-0.8-0.4-1.1C176,75.5,175.4,75.3,174.5,75.1L174.5,75.1z"/>
	<path class="st4" d="M174.1,70.7l-0.2,1.1c-0.1,0-0.1,0-0.2,0c-0.4-0.1-0.8-0.3-1.1-0.6c-0.3-0.3-0.5-0.7-0.6-1.1
		c-0.1-0.5-0.1-1,0-1.6c0.1-0.5,0.3-1,0.6-1.4c0.3-0.4,0.6-0.6,0.9-0.8c0.3-0.1,0.6-0.2,0.9-0.1c0.2,0.1,0.5,0.2,0.7,0.4
		c0.2,0.2,0.4,0.4,0.5,0.7c0.1,0.2,0.1,0.4,0.2,0.7c0.1-0.3,0.2-0.5,0.3-0.7c0.1-0.2,0.3-0.3,0.5-0.5c0.2-0.1,0.4-0.2,0.6-0.2
		c0.2,0,0.4,0,0.6,0c0.4,0.1,0.7,0.3,1,0.6c0.3,0.3,0.5,0.7,0.6,1.2c0.1,0.5,0.1,1.1-0.1,1.7c-0.1,0.6-0.4,1.1-0.7,1.6
		c-0.3,0.4-0.6,0.7-1,0.9c-0.4,0.2-0.7,0.2-1,0.2c-0.2-0.1-0.4-0.2-0.5-0.4c-0.1-0.2-0.2-0.4-0.1-0.7c0.1-0.2,0.2-0.4,0.4-0.6
		c0.1-0.1,0.3-0.1,0.6-0.2c0.3,0,0.6-0.1,0.7-0.1c0.1-0.1,0.2-0.2,0.4-0.3c0.1-0.2,0.2-0.3,0.2-0.5c0-0.2,0-0.5,0-0.7
		c-0.1-0.2-0.2-0.4-0.3-0.5c-0.1-0.1-0.3-0.2-0.5-0.3c-0.4-0.1-0.8,0-1,0.3c-0.2,0.2-0.4,0.6-0.5,1.1l-0.1,0.3l-1-0.2l0.1-0.3
		c0.1-0.4,0.1-0.7,0.1-0.9c0-0.2-0.1-0.4-0.2-0.5c-0.1-0.1-0.3-0.2-0.4-0.3c-0.2-0.1-0.4,0-0.6,0.1c-0.3,0.2-0.4,0.5-0.5,0.9
		c-0.1,0.3-0.1,0.6,0,0.8c0,0.2,0.1,0.4,0.3,0.5C173.7,70.5,173.9,70.7,174.1,70.7L174.1,70.7z"/>
	<path class="st4" d="M43.9,124.9l-4.8,3.1c-0.2,0.1-0.3,0.2-0.4,0.3c-0.1,0.1-0.1,0.2-0.1,0.2c0,0.1,0.1,0.2,0.2,0.4l0.4,0.6
		l-0.8,0.5l-2.5-3.9l0.8-0.5l0.4,0.6c0.1,0.2,0.3,0.4,0.3,0.4c0.1,0,0.1,0.1,0.2,0.1c0.1,0,0.2-0.1,0.4-0.2l3.4-2.2l-0.8-1.3
		l0.8-0.5c0.3,0.3,0.5,0.6,0.6,0.8c0.2,0.3,0.5,0.5,0.8,0.8c0.2,0.1,0.3,0.3,0.5,0.4L43.9,124.9L43.9,124.9z"/>
	<path class="st4" d="M39.6,132.1l0.9-0.6c0.4,0.6,0.7,1,1,1.3c0.3,0.3,0.6,0.5,0.9,0.6c0.3,0.1,0.6,0.2,0.9,0.2
		c0.3,0,0.6,0,0.9-0.1c-0.4-0.1-0.6-0.3-0.9-0.5c-0.2-0.2-0.4-0.4-0.6-0.7c-0.3-0.4-0.4-0.9-0.5-1.4c0-0.5,0-0.9,0.2-1.2
		c0.2-0.4,0.5-0.7,0.9-0.9c0.6-0.4,1.3-0.5,2.1-0.3c0.7,0.2,1.3,0.7,1.9,1.5c0.5,0.8,0.7,1.6,0.6,2.4c-0.1,0.9-0.7,1.6-1.5,2.2
		c-0.6,0.4-1.2,0.6-1.7,0.7c-0.5,0.1-1.1,0-1.7-0.2c-0.6-0.2-1.1-0.5-1.6-0.9C40.8,133.7,40.2,133,39.6,132.1L39.6,132.1z M44,132.1
		c0.1,0.2,0.3,0.4,0.5,0.5c0.2,0.1,0.4,0.2,0.7,0.1c0.2,0,0.5-0.1,0.7-0.3c0.3-0.2,0.5-0.5,0.6-0.8c0.1-0.3,0-0.7-0.2-1
		c-0.2-0.3-0.5-0.5-0.8-0.6c-0.3-0.1-0.7,0-1,0.2c-0.3,0.2-0.6,0.5-0.6,0.8C43.7,131.4,43.7,131.8,44,132.1L44,132.1z"/>
	<path class="st4" d="M51.2,136.5l0.9,1.4l-3.3,2.1l0.8,1.2l-1.1,0.7l-0.8-1.2l-1.7,1.1l-0.9-1.4l1.7-1.1l-1.9-3l1.4-0.9L51.2,136.5
		L51.2,136.5z M49.8,137.4l-3.1-0.7l1.2,1.9L49.8,137.4L49.8,137.4z"/>
	<path class="st4" d="M47.5,144.3l0.9-0.6c0.4,0.6,0.7,1,1,1.3c0.3,0.3,0.6,0.5,0.9,0.6c0.3,0.1,0.6,0.2,0.9,0.2
		c0.3,0,0.6,0,0.9-0.1c-0.4-0.1-0.6-0.3-0.9-0.5c-0.2-0.2-0.4-0.4-0.6-0.7c-0.3-0.4-0.4-0.9-0.5-1.4c0-0.5,0-0.9,0.2-1.2
		c0.2-0.4,0.5-0.7,0.9-0.9c0.6-0.4,1.3-0.5,2.1-0.3c0.7,0.2,1.3,0.7,1.9,1.5c0.5,0.8,0.7,1.6,0.6,2.4c-0.1,0.9-0.7,1.6-1.5,2.2
		c-0.6,0.4-1.2,0.6-1.7,0.7c-0.5,0.1-1.1,0-1.7-0.2c-0.6-0.2-1.1-0.5-1.6-0.9C48.6,145.9,48.1,145.2,47.5,144.3L47.5,144.3z
		 M51.8,144.3c0.1,0.2,0.3,0.4,0.5,0.5c0.2,0.1,0.4,0.2,0.7,0.1c0.2,0,0.5-0.1,0.7-0.3c0.3-0.2,0.5-0.5,0.6-0.8c0.1-0.3,0-0.7-0.2-1
		c-0.2-0.3-0.5-0.5-0.8-0.6c-0.3-0.1-0.7,0-1,0.2c-0.3,0.2-0.6,0.5-0.6,0.8C51.6,143.7,51.6,144,51.8,144.3L51.8,144.3z"/>
	<path class="st4" d="M28.2,70.4l-5.6,1.1c-0.2,0-0.4,0.1-0.4,0.1c-0.1,0-0.1,0.1-0.1,0.2c0,0.1,0,0.2,0,0.5l0.1,0.7l-1,0.2
		l-0.9-4.5l1-0.2l0.2,0.7c0.1,0.3,0.1,0.4,0.2,0.5c0,0.1,0.1,0.1,0.2,0.1c0.1,0,0.2,0,0.5,0l4-0.8L26,67.5l1-0.2
		c0.1,0.4,0.2,0.7,0.3,0.9c0.1,0.3,0.3,0.7,0.5,1c0.1,0.2,0.2,0.4,0.3,0.5L28.2,70.4L28.2,70.4z"/>
	<path class="st4" d="M21.6,75.4l1-0.2c0.2,0.7,0.3,1.2,0.5,1.6c0.2,0.4,0.4,0.7,0.6,0.9c0.2,0.2,0.5,0.4,0.7,0.5
		c0.3,0.1,0.6,0.2,0.9,0.2c-0.3-0.3-0.5-0.5-0.6-0.8c-0.1-0.3-0.2-0.6-0.3-0.9c-0.1-0.5-0.1-1,0-1.4c0.1-0.4,0.3-0.8,0.6-1.1
		c0.3-0.3,0.7-0.5,1.1-0.6c0.8-0.2,1.4,0,2,0.5c0.6,0.5,1,1.2,1.2,2.1c0.2,1,0.1,1.8-0.3,2.4c-0.5,0.8-1.2,1.2-2.2,1.5
		c-0.7,0.1-1.3,0.1-1.8,0c-0.5-0.1-1-0.4-1.5-0.8c-0.5-0.4-0.9-0.9-1.2-1.5C22.1,77.3,21.8,76.5,21.6,75.4L21.6,75.4z M25.7,77
		c0.1,0.3,0.2,0.5,0.3,0.6c0.1,0.2,0.3,0.3,0.6,0.4c0.2,0.1,0.5,0.1,0.7,0c0.4-0.1,0.7-0.3,0.9-0.6c0.2-0.3,0.3-0.6,0.2-1
		c-0.1-0.4-0.3-0.7-0.6-0.9c-0.3-0.2-0.6-0.3-1-0.2c-0.4,0.1-0.7,0.3-0.9,0.6C25.6,76.3,25.6,76.6,25.7,77L25.7,77z"/>
	<path class="st4" d="M30.9,83.5c0.1,0.7,0.1,1.2-0.1,1.8c-0.2,0.5-0.5,1-1,1.4c-0.5,0.4-1.1,0.6-1.9,0.8c-0.9,0.2-1.6,0.2-2.2,0.1
		c-0.6-0.2-1.1-0.5-1.5-0.9c-0.4-0.4-0.6-1-0.8-1.7c-0.1-0.7-0.1-1.3,0.1-1.8c0.2-0.5,0.5-1,1-1.3c0.5-0.4,1.1-0.7,2-0.8
		c0.8-0.2,1.5-0.2,2.1,0c0.6,0.2,1.1,0.5,1.4,0.9C30.5,82.3,30.8,82.9,30.9,83.5L30.9,83.5z M27.5,85.7c0.9-0.2,1.6-0.5,1.9-0.8
		c0.3-0.3,0.4-0.7,0.3-1.1c-0.1-0.4-0.3-0.7-0.8-0.8s-1.1-0.2-2.1,0c-0.9,0.2-1.6,0.5-1.9,0.8c-0.3,0.3-0.5,0.7-0.4,1.1
		c0.1,0.4,0.3,0.7,0.8,0.9C25.9,85.8,26.6,85.8,27.5,85.7L27.5,85.7z"/>
	<path class="st4" d="M24.5,89.7l1-0.2c0.2,0.7,0.3,1.2,0.5,1.6c0.2,0.4,0.4,0.7,0.6,0.9c0.2,0.2,0.5,0.4,0.7,0.5
		c0.3,0.1,0.6,0.2,0.9,0.2c-0.3-0.3-0.5-0.5-0.6-0.8c-0.1-0.3-0.2-0.6-0.3-0.9c-0.1-0.5-0.1-1,0-1.4c0.1-0.4,0.3-0.8,0.6-1.1
		c0.3-0.3,0.7-0.5,1.1-0.6c0.8-0.2,1.4,0,2,0.5c0.6,0.5,1,1.2,1.2,2.1c0.2,1,0.1,1.8-0.3,2.4c-0.5,0.8-1.2,1.2-2.2,1.5
		c-0.7,0.1-1.3,0.1-1.8,0c-0.5-0.1-1-0.4-1.5-0.8c-0.5-0.4-0.9-0.9-1.2-1.5C25,91.6,24.7,90.8,24.5,89.7L24.5,89.7z M28.5,91.3
		c0.1,0.3,0.2,0.5,0.3,0.6c0.1,0.2,0.3,0.3,0.6,0.4c0.2,0.1,0.5,0.1,0.7,0c0.4-0.1,0.7-0.3,0.9-0.6c0.2-0.3,0.3-0.6,0.2-1
		c-0.1-0.4-0.3-0.7-0.6-0.9c-0.3-0.2-0.6-0.3-1-0.2c-0.4,0.1-0.7,0.3-0.9,0.6C28.5,90.6,28.5,90.9,28.5,91.3L28.5,91.3z"/>
	<path class="st5" d="M98.7,71.2c0,0-0.2,0.2-0.3,0.5c-0.1,0.3,0,0.7,0,0.7s0.3,0,0.5-0.1c0.3-0.1,0.3,0,0.1-0.3
		C98.8,71.7,98.7,71.2,98.7,71.2L98.7,71.2z"/>
	<path class="st5" d="M96.2,99.6c0,0-1-0.6-1.4-1.1c-0.4-0.5-1.5-0.4-1.6,0.4c-0.1,0.8,0.2,1.2,0.9,1.9c0.6,0.7,1.1,1.2,1.9,0.3
		C96.7,100.2,96.2,99.6,96.2,99.6L96.2,99.6z"/>
	<path class="st5" d="M103,71.8c0,0-0.4,0.5-1.6-0.5c-1.3-1-1.8-2.1-2.4-2.1c-0.6,0-1.1-0.4-1.7-1c-0.6-0.7-1.3-1.1-1.4-0.4
		c-0.1,0.7,0.9,0.8,0.8,1.7c-0.2,0.8-0.2,1.7,0.2,2c0.5,0.3,0.9,0.4,0.9,0.4s0.4-0.5,0.2-1.1c-0.2-0.6-0.1-0.8,0.4-0.7
		s0.9,0.7,1.4,1.2c0.4,0.5,1.2,0.6,1.8,1C102.1,72.7,102.3,73.1,103,71.8L103,71.8z"/>
	<path class="st5" d="M121.8,78.8c0,0-0.7,1.7-2,2.7c-1.3,1-2.7,2.7-2.9,3.5c-0.2,0.9-0.2,1.9,0.9,1.3c1-0.6,1.9-0.4,2.3-1
		C120.5,84.8,124.6,78.8,121.8,78.8L121.8,78.8z"/>
	<path class="st5" d="M102.7,96.8c0,0,0.1,1.1-0.5,1.7c-0.6,0.6-1.4,1-1.4,1.5c0,0.6,1,0.9,1,1.1c-0.1,0.3-0.8,0.2-1.5-0.3
		c-0.7-0.6-2.6-2.4-3.7-1.7c-1.1,0.6-0.9,1.7-0.9,1.7s-1.4-0.5-1.9,0.2c-0.5,0.6,0.4,1.8,0.2,2c-0.2,0.2-1.6-0.2-2.3,0.4
		c-0.4,0.3-0.3,1-0.3,1s-1-0.1-0.9,1.9c0.1,1.4,0.8,1.4,0.8,1.4s0.8,0.9,0.6,1.1c-0.9,1.1-1.4,0.6-1.7,1c-0.8,0.7-1,1.8,0.5,2.1
		c0.4,0.1,0.6-0.2,0.6-0.2l0.8,0.1c0,0-0.7,0.2-1.1,0.7c-0.5,0.4-0.8,0.8-0.8,0.8s-0.5-0.6-1.6-0.4c-2.4,0.4-1.7-0.7-3.2-1.4
		c-1.8-0.8-1.9,0.6-1.9,0.6s-0.8-1.2-1.9,0.1c-0.7,0.8-0.4,1.1-0.6,1.6c-0.2,0.5,0.1,1.3,0.1,1.3s-0.1,0.4,0.2,0.6
		c0.3,0.2,0.8,0.5,0.8,0.5s-0.3-0.8,0-1.2c0.4-0.4,0.6-0.6,0.6-0.6s-0.4,0.8-0.4,1.6c0,0.8,0.6,1.2,0.6,1.2s0,0.6,0.6,0.7
		c0.6,0.1,0.8-0.3,0.8-0.3s-0.7-0.1-0.8-0.6c0-0.5,0.7-1.1,0.7-1.1s-0.2,0.4,0.2,1.1c0.4,0.7,0.8,1,1.2,1c0.4,0,0.9,0,0.9,0
		s-0.9-0.5-0.5-1c0.4-0.6,0.3,0,0.5-0.4c0.2-0.5,0.2-0.7,0.4-1c0.2-0.3,0.4-0.4,0.4-0.4s-0.1,0.7-0.4,1.2c-0.3,0.5-0.5,1-0.3,1.4
		c0.2,0.4,0.9,1,2,1.1s1.3,0.6,1.3,0.6s0.5-0.3,0.2-1.1c-0.1-0.3,0-0.4,0-0.9c0-0.4-0.1-1.1-0.1-1.1s0.7,0.8,1,1.6
		c0.2,0.8,0.6,1.7,0.3,2c-0.3,0.3,0.2,0.9,0.2,0.9s0.1-0.5,1-0.6c0.4-0.1,1.2-0.5,1-2c-0.2-1.5-0.1-1.7-0.1-1.7s0.7,0,1.1,0.6
		c0.5,0.6,0.8,1.3,1.5,1.5c0.8,0.3,0.8,0.5,0.8,0.5s0.1-0.8-0.2-1.6c-0.2-0.8-0.2-1.3-0.2-1.3s0.4,0.1,0.6,0.8c0.2,0.7,0.7,2,0.7,2
		s0.8-0.5,0.8-1.5c0-1-0.1-1.7-0.1-1.7s0.4,1.3,0.7,1.8c0.3,0.5,0.6,0.6,1.1,0.4c0.5-0.2,1.3-1.2,1.3-1.2s4.2-8.3,4.7-12.4
		C106.9,100.2,105.3,96.7,102.7,96.8L102.7,96.8z"/>
	<path class="st6" d="M91.7,111.6c0,0,0.5-0.4,0.9,0c0.5,0.4,1.1,0.4,1.1,0.4s-0.3-0.7-0.3-1.3c0-0.6-0.3-1-0.3-1s0.8-0.2,1.2,0.4
		c0.5,0.6,0.8,1.2,0.8,1.2s0.2-0.6,0-1c-0.3-0.4-0.8-0.7-0.8-0.7s1.5-0.1,2.6,1c1.1,1,1.5,2,1.5,2"/>
	<path class="st5" d="M100.8,115.7c0,0.9,0.6,2.2,0.4,2.9c-0.2,0.8-1,1.9-0.2,2.4c0.8,0.4,1.1,0.2,1.2-0.6c0-0.9,0.5-1.2,0.6-2
		c0.1-0.8,0.4-1.3,0.5-1.1c0.1,0.2,0.5,0,0.6-1c0.1-0.9,0.1-2,0.1-2s0,1.3,0.4,1.7c0.4,0.4,0.9,0.8,0.9,0.8s-2.1,1.1-0.9,2.2
		c1.2,1.1,1.7,1.5,3.2,1.3c1.5-0.2,2.7-0.4,2.7-0.4s-2.8,0.2-3.4,1.2c-0.6,0.9,0.1,1.5-0.8,2.4c-1.6,1.7-0.9,2.2-2.2,3.1
		c-0.6,0.4-1.9,1.2-3.2,1c-1.2-0.2-2.1,0.2-2.1,1c0,0.7,0.6,1.1,0.6,1.1s-0.2,0.5,0.3,1c0.5,0.4,1.1,0.6,1.1,0.6s-0.3-0.5-0.3-0.9
		c0-0.4,0.1-1.1,0.3-0.6c0.2,0.5,0.1,0.6,0.2,1.1c0.3,1.4,1.2,1.5,1.2,1.5s-0.3-0.6-0.1-1.3c0.1-0.5,0.3-0.7,0.3-0.7
		s0.2,0.7,0.3,1.2c0.2,1,0.9,1.2,0.9,1.2s0-0.5,0-0.8c0-0.3,0.2-0.5,0.2-0.5s0,0.6,0.7,0.8c0.5,0.1,0.9-0.4,0.9-0.4s-1-0.3-0.8-0.7
		c0.2-0.4,0.6-0.1,0.9-0.5c0.4-0.4,0.7-0.9,0.7-0.9s0.5,0.3,0.5,0.9c0,0.6-0.2,1.3-0.2,1.3s0.6-0.3,1-0.8c0.3-0.6,0.5-1.1,0.5-1.1
		s-0.1,1,0.3,1c0.4,0,1.2-0.1,1.2-0.1s0.4-0.6,0.1-1.8c-0.3-1.1-1-2.7-1-2.7s1.2,1.9,1.8,2c0.6,0.1,1.5-0.1,1.5-0.1s0-1-0.4-1.9
		c-0.4-1-0.5-1.6-0.5-1.6s0.8,2.2,1.1,2.3c0.3,0.1,0.4,0.6,0.4,0.6s1-0.2,1.2-1.3c0.2-1.2-0.2-3.3-0.2-3.3s0.3,0.7,0.6,1.6
		c0.3,1,1.1,1.7,1.1,1.7s0.5-1.3,0.2-2.4c-0.3-1.1-0.6-2.3-0.6-2.3s0.3,0.5,0.6,1.7c0.3,1.2,0.1,1.9,0.1,1.9s0.3,0.4,0.5-0.4
		c0.2-0.8,0.3-1.1,0.3-1.1s0,1.1,0.1,1.5c0.1,0.4,0.2,0.7,0.2,0.7s1.5-1.5,0.8-3.6c-0.7-2.1-1.5-0.6-2-1.9c-0.6-1.3-0.1-1.6,0.4-2.2
		c0.5-0.6,0-2.9-1.2-3.5c-2-1.1-1.6,1.4-2.9,1c-0.7-0.2-1.7-1.3-1.5-2.1c0.2-0.8,1-1.4,0.9-2.9c-0.1-1.5-0.1-1.8-0.1-1.8
		s0.6,1.2,2.2,1.6c1.7,0.4,2.9,0.2,2.9,0.2l-0.4-0.8c0,0,1.1,0.4,2.2-1c1.1-1.4,1.3-2.1,1.3-2.1l-0.6,0.3c0,0,1.6-1.3,0.9-4.3
		c-0.7-2.9-2.1-4.6-2.7-7.8c-0.5-3.2-0.4-5.9-0.4-5.9l0.9,0.1c0,0-0.6-1.3-0.6-2.1c0-0.8-0.7-3.4,0.2-7.2c1.2-5.2,4.1-7.3,6.5-6.7
		c1.5,0.4,1.7,1.8,1.2,2.7c-0.2,0.4-0.9,1-1.3,0.7c-0.5-0.3-1.2-1.4-1.7-0.7c-0.4,0.7,0.7,1.9,0.7,1.9s-1.7-0.9-1.9-0.4
		c-0.2,0.5,0,1.3,0.9,1.5c0.8,0.3,1.5,0.1,0.9,1.3c-1.2,2.9-1.4,2-2.2,2.9c-0.6,0.8-2.4,5.7-1.9,8.7c0.5,3,1.9,5,2.5,7.1
		c0.6,2,0.8,3.6,0.8,3.6s1.3-1.1,1-2.5c-0.3-1.3-0.9-2.3-0.3-3.2c0.6-0.9,0.4-1.2,0.4-1.2s1.1-0.6,0.6-1.5c-0.4-0.9-1.1,1.1-1.7-0.4
		c-0.6-1.5-1-2.4-0.8-4.4c0.2-2,0.3-2.7,0.3-2.7s0,2.3,0.4,3.3c0.4,1,1.5,1.4,1.5,1.4s0.6-1.1-0.1-3.6c-0.5-2-0.5-2.8-0.5-2.8
		s0.6,5.2,1.5,4.9c0.9-0.3,0.3-1.5,0.3-1.5s0.6,2.5,1.5,1.7c1.2-1,0-1.3-0.4-1.9c-0.4-0.6-1.9-2.6-0.9-4c1-1.4,2.9-6.1,2.2-9.9
		c-0.8-4-5.6-4.3-9.1-0.5c-0.7,0.8-1.2,1.4-2.1,3.2c-0.1,0.2-0.4,0-0.4,0c0,0.1,0.5,0.4,0.9,2c0.4,1.6-0.7,2-0.6,2.3
		c0.2,1.5-1.1,2.1-1.1,2.1s0-0.2-0.2-0.1c-0.2,0.2-0.6,0.9-0.7,1.8c-0.1,0.5,1.4,2-0.5,3.2c0,0,0.6,2.6,0.6,2.6s-0.1,0-0.1,0
		c-0.3,2.3-1.5,0.6-0.6,4.2c0.9,3.9,4.4,9.8,3.4,11.8c-0.7,1.3-1.7,1.1-2.9,0.5c-0.9-0.4-1.3-0.9-1.3-0.9s0.7-1.3,0.3-2.8
		c-0.4-1.5-0.7-3.8-0.8-5.5c0-1.7-0.6-3.4-0.9-4.5c-0.3-1-0.1-2.2,0.4-3.1c0.5-1,0.6-1.1,0.6-1.1s0.2,0.6,0.3,1.2
		c0.2,0.6,0.5,2,0.5,2s1.3-0.8,1-2.5c-0.4-1.7-0.5-1.9-0.5-1.9s1.6-0.6,1-2.1c-0.6-1.5-0.4-1-0.4-1s0.2-1.1,0.5-1.6
		c0.3-0.5,0.3-0.2,0.3-0.2s0.5-0.1,0.9-0.8c0.4-0.7,0.2-1.3,0.2-1.3s0.7-0.6,0.8-1.3c0.1-0.8-0.4-2.1-0.8-2.6c-0.4-0.5,0-0.2,0-0.2
		s0.4,0.2,0.4-1c0-1.2-0.2-1.5-0.2-1.5s0.5-0.1,0.4-0.8c-0.2-1-0.8-1.9-0.8-1.9s0.7-0.2,0.6-1.1c-0.2-0.9-0.5-1-0.2-1.8
		c0.3-0.8,0-1.5-0.4-2.1c-0.4-0.6-0.2-1.7-1.3-2.1c-1.1-0.4-1.4,0.2-2.5,0.3c-1.1,0-1-0.5-2.3-0.4c-1.3,0.1-1.9-0.4-2.4-0.3
		c-0.6,0-0.8,0.2-0.8,0.2s-0.2-0.5-1-0.3c-0.8,0.2-0.5,0.4-0.5,0.4s-0.6-0.1-1,0c-0.4,0.2-0.4,0.6-0.7,0.7c-0.3,0.2-0.6,0.2-1.3,0
		c-0.7-0.2-1.1-0.3-1.4,0.2c-0.3,0.5-0.8,1.3-0.8,1.3l0.2,0.2c0,0,0,0.6,0.2,0.9c0.2,0.4,0.3,0.6,0.3,0.6s0-0.8,0.3-0.9
		c0.3-0.1,0.5-0.2,0.9-0.1c0.4,0.1,0.8,0.4,1.3,0.9c0.4,0.6,1.3,1.7,1.3,2.1c-0.1,0.4-0.3,1.4-0.3,1.4s-0.6,0.3-1.1,0.6
		c-0.6,0.3-1,0.2-1.7,0.2c-0.8-0.1-0.9-0.5-1.3-0.5c-0.4,0-0.5,0.2-0.4,0.8c0,0.6,0.2,0.8,0.9,1.3c0.8,0.6,1,0.7,1,1.3
		s0.5,1,0.2,1.5s-0.4,0.6-1,0.7c-0.6,0.1-0.4,1-0.6,1c-0.2,0.1-0.9-0.6-1.7-0.5c-0.8,0-0.6,0.5-0.6,0.5s-0.2-0.6-1.4-0.3
		c-1.1,0.3-1.7,1-1.7,1s0.2-0.4-0.4-0.8c-0.7-0.4-0.7,0-0.7,0s-1.4-1.5-2.3-2.2c-0.9-0.7-1.9-2.9-2.9-4.6c-1-1.6-2.8-4.3-4.3-5.1
		c-2.3-1.3-2.4,0.2-2.4,0.2s-0.3-0.2-0.9-0.2S78.9,67,78.9,67s-0.8,0.1-0.9,0.5c-0.2,0.4,0.2,1.5,0.2,1.5s0-0.9,0.5-1.1
		c0.4-0.2,0.5-0.2,1-0.1C80,68,80,68.1,80,68.1s-0.3,0-0.8,0.1c-0.6,0.1-0.4,0.8-0.4,0.8s-0.3,0.5-0.2,0.8c0.1,0.4,0.3,0.4,0.3,0.4
		s0.1-0.6,0.4-0.8c0.4-0.2,0.8-0.4,0.9,0c0.1,0.4,0.4,0.6,0,0.8c-0.4,0.3-0.8,0.5-1.1,0.4c-0.3-0.1-0.9-0.6-0.9-0.6
		s-0.1,1.1,0.6,1.3c0.6,0.2,0.9,0.2,0.9,0.2s-0.2,0.9,0.5,0.9c0.6,0,1-0.9,1-0.9s0.6,0.4,0.3,1c-0.3,0.5-0.2,0.8,0,1.2
		c0.2,0.4,0,1.4,0.6,2.1c0.6,0.7,1.5,0.4,1.7-0.3c0.2-0.6,0.6-0.7,0.6-0.7s0.2,0.4,0.3,1c0.1,0.6,0,1-0.4,1.1c-0.4,0.1,0,0.7-0.4,1
		s-1.3,1-0.5,2.2c0.6,0.9,0.5,2.6,1.5,2.7c0,0,0.1-0.6,0.2-1.1c0.1-0.5,1.1-1.6,1.3-1.3c0.2,0.2-0.1,0.7,0.2,1
		c0.3,0.4,0.2,0.7-0.4,1c-0.6,0.3-0.4,1.4,0,2c0.4,0.6,0.8,0.8,0.8,0.8s0.1-1,0.4-1.1c0.3-0.2,0.6-0.4,0.6-0.4s-0.3,0.5-0.1,1
		c0.2,0.5,0.7,0.8,0.7,0.8s-0.1-0.6,0.5-1.1c0.6-0.5,0.9-0.5,0.9-0.5s-0.3,0.8-0.4,1.1c-0.1,0.3-0.4,0.7-0.4,0.7s1.1,0.1,2.2-0.3
		c1.1-0.4,1.9-1,2.3-0.8c0.4,0.2,0.5,0.5,0.5,0.5s0.3,0.6,0,1.3c-0.3,0.7-0.8,0.9-0.8,1c0,0.2-0.3-0.4-1-0.4c-0.7,0-1.1,0.9-1.1,0.9
		s0-0.5-0.5-0.3c-0.5,0.2-1,1-1.1,1.9S89.6,91,89.6,91s-0.1-0.8-0.4-1.4c-0.3-0.6-0.2-1.4-0.2-1.4s-0.9,0.5-1.3,1.5
		s-0.5,1.9-1.6,2.1c-1.1,0.2-2.8,1.3-3.8,1.5c-1,0.2-1.8,0.2-2.3-0.4c-0.5-0.6-1.2-0.6-1.8-0.3c-0.6,0.4-0.5,1.4-0.5,1.4
		s-0.3,0.6-0.6,1c-0.3,0.4,0.2,1.4,0.2,1.4s0-0.5,0.2-0.7c0.2-0.2,0.3-0.4,0.5-0.5c0.2-0.2,0.4-0.3,0.4-0.3s-0.2,0.4-0.4,0.7
		c-0.3,0.4-0.1,1.1-0.1,1.1s-0.4,0.4-0.2,0.8c0.2,0.4,0.8,0.7,0.8,0.7s-0.1-0.7,0-1c0.2-0.3,0.3-0.2,0.6-0.7
		c0.3-0.4,0.6-0.7,0.6-0.7s-0.5,0.8-0.7,1.3c-0.2,0.5,0,0.8,0.2,1.2c0.2,0.4,0.4,0.6,0.8,0.6c0.4,0,0.6,0,0.6,0s-1-0.6-0.7-0.9
		c0.3-0.2,0.8,0.2,1.4-0.1c0.6-0.3,0.6-0.6,1.1-0.2c0.6,0.3,1.1,0.1,1.3-0.2c0.2-0.3,0.5-0.7,1.5-0.2c1,0.5,1.3,1,1.3,1
		s0.4-0.2,0.4-0.8c0.1-0.6,0-1,0.4-0.8c0.4,0.2,0.7,1,1.3,1.1c0.6,0.1,1.1,0.2,1.1,0.2s-0.5-0.9-0.1-1.5c0.4-0.6,0.4-1.3,0.4-1.3
		s0.6,0.3,0.9,0.8c0.4,0.6,1.2,1,1.2,1s0.1-0.8,0-1.5c-0.1-0.8-0.2-1.1-0.2-1.1s0.2,0.2,1.1,0.3c1,0.2,1.5,0.4,1.5,0.4
		s0.2-0.4,0.1-1.1c0-0.8,0.1-1.3,0.1-1.3s0.6,0.6,0.8,1.1c0.2,0.8,1.2,1.2,1.2,1.2s-0.4-0.4-0.1-0.6c0.3-0.2,1.2,0.1,1-0.5
		c-0.5-1.3,0.3-2.1,0.3-2.1s0,1,0.4,1.1c0.4,0.1,0.6,0.3,0.6,0.3s0.4,0.6,0.6,1.1c0.3,0.4,0.4,0.9,0.4,0.9s-0.1-1.2,0.1-1.6
		c0.1-0.4,0.5-1,0.5-1s-0.5,0.6-0.4,1.1c0.1,0.3,0.2,1,1.1,1.9c0.9,0.9,2.4,2.9,2.4,3.7c0.1,1.6-1.3,2-1.2,2.9
		c0.1,1,0.8,2.2-0.3,3.9c-0.7,1.1-1.9,5-1.9,6.1C100.5,113.2,100.8,114.5,100.8,115.7L100.8,115.7z"/>
	<path class="st6" d="M113.4,90.9c0,0,0.9,0.4,1.6,2.1c0.5,1.2,0.8,3.2,0.8,3.2 M111.4,89.8c0,0,0.3-1.4-0.2-1.9
		c-1.1-1-0.2-1.2-0.8-2.1c-0.6-0.9-1-1.3-1.1-2.5 M112.8,88.4c0,0,0.1-1.1-0.4-1.7c-0.5-0.6-0.5-1.1-0.5-1.7c0-0.6-0.1-0.9-0.5-1.4
		c-0.4-0.5,0-1.2-0.8-1.7 M113.3,85.1c0,0-0.4-0.3-0.4-1c0-0.6-0.1-1.3-0.8-1.6c-0.6-0.3-0.5-0.8-0.8-1.1c-1-1,0-0.8,0.1-1.2
		c0.1-0.8-0.2-1.3-0.2-1.3 M114.1,83.2c0,0,0.2-1.1-0.4-1.8c-0.5-0.6-0.6-1.6-0.4-2c0.2-0.4,0-1.3-0.7-1.7c-0.8-0.4-1-0.8-0.7-1.5
		c0.3-0.7-0.3-1.2-0.3-1.2 M113.4,75.4c0,0,0.4,0.5,0.3,1.1c-0.2,0.6,0,1.4,0.4,1.9c0.4,0.5,0.5,0.9,0.6,1.4
		c0.2,1.1,0.6,1.4,0.6,1.4 M108.3,88.2c0,0,0.7,0.8,1.3,0.6c0.7-0.2,1.3-0.4,1.5,0c0.3,0.4,0.2,0.9,0.2,0.9 M108.7,85.1
		c0,0,0.4,1.3-0.2,2c-0.6,0.7-1.5,0.9-1.5,1.3c0,0.5,0,1.6,0,1.6s-0.4-0.1-0.6-0.4 M107.8,84.1c0,0-1.9,1.3-2.6,2.6
		c-0.7,1.3-1.1,3.5-1.1,3.5s-0.4-0.4-0.4-0.8 M115.3,74.4c0,0-0.2-0.1-0.6-0.5c-0.3-0.4-0.4-0.8-0.4-0.8 M114.9,71.7
		c0,0-0.3-0.1-0.7-0.8 M113.4,69.9c0,0,0.9-0.5,1.3-0.9c0.4-0.4,0.5-1.7-0.2-1.9s-1.3-0.2-2,0c-0.7,0.2-0.9,0.3-0.8,0.6
		c0,0.3,0.4,1.4-0.3,1.9c-1.6,1.1-2.1-0.1-2.1-0.1 M112.2,68.1c0,0,0.7-0.4,1.1-0.4c0.4,0,1,0.2,0.5,0.8c-0.4,0.6-0.9,0.9-1.1,0.6
		 M112.7,68.5c0,0,0.4,0.1,0.6,0s0.2-0.4,0.2-0.4 M109.5,71.3c0,0,1-0.6,1.4,0c0.4,0.6,0.3,1.4,0.8,1.5c0.5,0.1,1.1,0.3,1,1
		c-0.1,0.6-0.5,0.6-0.5,0.6 M109.8,74.6c0,0,0.7-1.4,0.2-1.8c-0.5-0.4-1.3-0.5-1.3-0.5 M105.7,70.7c0,0-0.1,0.6,0.4,1
		c0.5,0.4,1.2,0.4,1.2,0.4 M108,72.6c0,0,0.2,0.6,0.4,0.8c0.2,0.2,0.4,0.6,0.3,1.1c-0.2,1.3,0.6,1.3,0.4,2c-0.3,1.7-1.1,0.9-1.1,0.9
		s0.4,1.1,0.1,1.7c-0.4,0.6-1.4-0.4-1.4-0.4s1.1,1.1,0.6,1.8c-0.5,0.7-1.4,0.6-1.7,1.4c-0.3,0.9-0.5,1.3-1.7,1.1
		c-1.2-0.2-0.1,0.5-0.7,1c-0.6,0.5-1.3,0.3-1.5,1c-0.2,0.7,0.1,0.8,0.1,0.8 M106.9,73.6c0,0,0.5,0.8,0.4,1.3c-0.2,0.6,0,1.1,0.2,1.5
		c0.2,0.3,0.4,0.7,0.4,0.7 M105.3,73.6c0,0,0.3,0.6,0.3,1.1c0,0.5,0.2,0.8,0.6,1c0.9,0.4,0.5,1,0.5,1 M104,73.9c0,0-0.4,1,0,1.2
		c0.3,0.2,0.9,0.6,0.9,1.5c0,0.9,0,1.3,0.2,1.6c0.2,0.3,0.3,0.7,0.3,0.7 M102.6,73.7c0,0,0,0.8,0.1,1.5c0.2,0.7,0.6,0.8,0.6,0.8
		s-0.3,0.6-0.1,0.9c0.2,0.2,0.2,0.8,0.2,0.8 M102.4,76.7c0,0-0.6,0.6,0,1c0.6,0.4,0.6,0.6,0.3,1c-0.2,0.4,0,0.6,0,0.6 M104.1,71.5
		c0,0-0.2,1.3-0.8,1.5c-0.6,0.3-1.1,0.2-1.1,0.2s-0.7-0.1-1.1,0.4c-0.4,0.5-0.5,1-0.4,1.3 M101.4,74.5c0,0,0.2,0.3,0.2,0.7
		c0,0.4-0.4,1.1-0.4,1.1 M99,66.9c0,0,0.3-0.1,1,0.1c0.4,0.1,1.1,0.7,1.1,0.7 M99.7,65.5c0,0,0.7-0.1,0.7,0.4c0,0.4-0.5,0.8-0.6,0.6
		c-0.1-0.2-0.3-0.5-0.3-0.5 M102.5,65.2c0,0,0.9,0,0.8,0.5c-0.1,0.6,0.2,0.9,0.7,1c0.7,0.2,0.8,0.5,1.8,0.8c0.7,0.2,1.2,1.3,1.2,1.3
		 M104.9,67.4c0,0-0.3,0.8,0.4,1c0.7,0.2,1.1,0.9,1.1,0.9 M104.1,64.4c0,0,0.3,0.1,0.3,0.5c0,0.5,0.4,0.6,0.4,0.6 M105.7,64.3
		c0,0,0.3,0,0.2,0.5c0,0.4,0.5,0.7,0.5,0.7 M107.1,64.2c0,0,0.4,0,0.3,0.6c-0.1,0.4,0.4,0.9,0.4,0.9 M105.4,66.1
		c0,0,1.2-0.5,2.1-0.1c0.5,0.2,0.7,0.6,0.7,1.1c0,0.6,0.4,1.2,0.7,1.5c0.4,0.3,0.6,0.2,0.6,0.2 M105.4,66.1c0,0,0,0.5,0.4,0.8
		c0.3,0.2,0.8,0.2,1.2,0.2c0.5,0-0.2-0.2-0.8-0.6C105.6,66.1,105.4,66.1,105.4,66.1L105.4,66.1z M105.2,66.4c0,0-0.1,0.7,1,0.8
		c0.9,0.1,0.7,0.8,1,0.8c0.4,0,0.6-0.2,0.6-0.2 M106,66.4c0,0-0.1,0.1-0.1,0.2c0,0.2,0.1,0.3,0.2,0.1
		C106.4,66.5,106.1,66.4,106,66.4L106,66.4z M104,79.7c0,0-0.8,0.6-1.7,0.2c-0.9-0.4-1.5-0.6-2.1-0.2s-1.3,0.2-1.6,0.1
		c-0.4-0.1-0.7,0.6-0.7,0.6s-0.1-0.4-0.7-0.1c-0.6,0.3-1,0.6-1.5,0.6c-0.5,0-0.8,0.3-1.6,0.6c-0.8,0.3-1.2,1.1-2.1,0.9
		c-1.4-0.3-1.9,0.5-1.9,0.5 M99.4,77.8c0,0,0.5,0.4,0.3,0.7C99.6,78.9,100,79,100,79 M96.2,78.4c0,0,0.6,0.3,0.7,0.7
		c0.1,0.5,0,0.8,0,0.8 M92.4,78.5c0,0,0.1,0.6,0.1,1c0,0.4-0.1,1-0.5,0.5s-0.8-0.2-1,0.3c-0.2,0.5-0.6,1-0.7,1 M93.5,84.5
		c0,0,0.7,0.4,1.5,0.1c0.7-0.3,0.7-1,1.1-0.9c0.4,0.2,0.7,0.8,1.2,0.5c0.6-0.3,1.3-1.4,1.3-1.4 M101.9,81.7c0,0-0.8,0.1-1,0.6
		c-0.2,0.6-0.5,1.6-0.5,1.6s-0.6-0.7-1.2-0.4c-0.6,0.3-0.5,0.9-1,1c-0.6,0.2-0.9,0.3-1.2,1c-0.3,0.6-0.4,1-1.2,1.3
		c-0.8,0.3-2.3,0.4-2.3,0.4 M93,88.6c0,0,0,0.6,0.4,0.9c0.4,0.3,1,0.3,0.6,0.5c-0.9,0.5-0.3,1.1-0.3,1.1 M94.2,91.3
		c0,0,0.6,0.4,0.8,0.4c0.2,0,0.4-0.8,0.4-1.2c0-0.4,0.4-0.9,0.6-1 M96.7,88.4c0,0,0.6,0.2,0.8-0.2c0.2-0.4,0-1.3,0.2-1.3
		c0.2-0.1,0.6,0.5,1.1,0.5c0.5,0,0.6-0.4,0.6-1c0-0.6,0.6-0.2,1.1-0.2c0.4,0,0.8,0.2,0.8,0.2s-0.6,0.9-0.2,1.3
		c0.4,0.4,0.8,0.8,0.8,1.3c0,0.5,0,0.8,0,0.8 M98.8,90.2c0,0-0.3,0.4-0.1,1.4c0.2,1,0.4,1.5,0.4,1.5 M100.7,92.4c0,0-0.5,0.6-0.5,1
		 M101,91.2c0,0,0.5,1,0.6,1.5c0.2,0.6,0.4,1.6,1,2.2c0.6,0.6,1,0.9,1,0.9s0.2-0.9-0.1-1.9c-0.3-1,0-1.5,0-2.2
		c0-0.6-0.5-1.4-0.5-1.4 M102.6,102.3c0,0,0.1,0.8,0.6,1.2c0.6,0.5,0.3,1,0.3,1s0.9-0.2,0.7-1.1c-0.2-0.9,0-1.4,0.7-2
		c0.7-0.6,0.7-1.6,0.7-1.6 M113.8,74.4c0,0,0.2,0.9,0.4,1.5c0.4,0.9,0.8,1.1,0.8,1.1 M93.6,79.3c0,0-0.4,0.6-0.2,0.9
		c0.2,0.3,0.4,0.7,0.2,0.7 M109.3,64.4c0,0,0.4,0,0.5,0.4c0.1,0.4-0.4,0.6,0,1.1 M114.7,66.2c0,0-0.4-0.6-1-0.3
		c-0.6,0.3-1,0.5-1.4,0.4 M111.9,64.7c0,0-0.1,0.4-0.3,0.7c-0.2,0.3-0.7,0.6-0.5,0.8"/>
</g>
</svg>
