<?xml version="1.0" encoding="utf-8"?>
<!-- Generator: Adobe Illustrator 21.1.0, SVG Export Plug-In . SVG Version: 6.00 Build 0)  -->
<svg version="1.1" id="Layer_1" xmlns="http://www.w3.org/2000/svg" xmlns:xlink="http://www.w3.org/1999/xlink" x="0px" y="0px"
	 viewBox="0 0 200 200" style="enable-background:new 0 0 200 200;" xml:space="preserve">
<style type="text/css">
	.st0{fill:#FFFFFF;}
	.st1{fill:#3C70A9;}
	.st2{fill:#BE4748;}
</style>
<g>
	<path class="st0" d="M200,100c0,55.2-44.8,100-100,100C44.8,200,0,155.2,0,100C0,44.8,44.8,0,100,0C155.2,0,200,44.8,200,100"/>
	<path class="st1" d="M97.8,26.8l-0.5-8.7c-1.2,0-2.4,0.1-3.6,0.2c0.2,2.9,0.4,5.8,0.5,8.7c-1.6,0.1-3.2,0.2-4.9,0.2L88.3,6.1
		c1.5-0.2,3.2-0.2,4.8-0.3c0.2,2.7,0.4,5.4,0.5,8.1c1.2-0.1,2.3-0.2,3.5-0.2c-0.1-2.6-0.2-5.4-0.3-8c1.6-0.2,3.3-0.1,4.9-0.2
		l1.1,21.2L97.8,26.8z"/>
	<path class="st1" d="M78.3,8.2c1.4-0.4,2.6-0.8,4.1-1.1c1.8,6.7,3.7,13.4,5.3,20.2l0.1,0.3l-5,1.3c-2.7-4.3-5.5-9-8.1-13.3l0.2,0.9
		L78.6,30c-1.5,0.4-2.8,0.8-4.1,1.2c-1.8-6.8-3.7-13.6-5.4-20.5l5.1-1.4c2.7,3.9,5.3,8,7.6,12.1L78.3,8.2z"/>
	<path class="st1" d="M127.8,9.9c-0.5,4.9-1.5,9.9-2.2,14.7c2.3-4.3,4.6-8.8,6.8-13.2c1.6,0.5,3.2,1.1,4.7,1.6l-0.2,0.4l-10.5,18.2
		l-0.2,0.2l-5.4-1.8v-0.2l2.2-21.3C124.7,8.9,126.3,9.4,127.8,9.9"/>
	<path class="st1" d="M113.2,10.8c-1.1,2.9-1.9,6-2.7,8.9l2.7,0.5C113.1,17,113.3,13.8,113.2,10.8 M116.8,7
		c0.5,7.2,0.9,14.4,1.5,21.6c-1.8-0.2-3.3-0.4-5-0.7c0-1.5,0-2.4,0-4c-1.3-0.2-2.5-0.4-3.8-0.6c-0.3,0.7-0.4,1.3-0.7,2l-0.7,1.9
		c-1.6-0.1-3.2-0.5-4.9-0.8l0.5-1.4l7.3-18.9L116.8,7z"/>
	<path class="st1" d="M53,18.2L63.2,13c0.6,1.1,1.2,2.2,1.8,3.4l-5.8,3.1c0.6,1.3,1.2,2.6,2,3.8l5.6-2.7c0.6,1,1.3,2.3,1.8,3.4
		c-1.8,0.9-3.8,1.9-5.7,2.9l2.3,4.5c2.1-0.8,4-2,6.1-2.9c0.7,1.1,1.2,2.2,1.8,3.4l-10.6,5.4l-0.2-0.4L53,18.2z"/>
	<path class="st1" d="M145,17.7c-1,4.6-2.1,9.2-3.4,13.7c2.2-3.9,4.6-7.9,7-11.8c1.3,0.8,2.5,1.4,3.7,2.2l-10.8,18.3l-0.2-0.1
		c-1.4-0.9-2.9-1.7-4.3-2.6c1.1-5,2.4-10,3.7-14.8c-2.6,4.1-4.9,8.5-7.5,12.6l-3.7-2.3l10.7-18.1l4.7,2.6L145,17.7z"/>
	<path class="st1" d="M52.4,34.4c-1.3-0.8-2.5,0.4-3.4,1.1l3.5,4.4l1.5-1.4c0.5-0.5,0.5-1.4,0.2-2.1C53.8,35.7,53,35.1,52.4,34.4
		 M46.5,27.8c-1.1-0.5-2.1,0.5-2.9,1.2l3,3.7l1.4-1.2c0.3-0.4,0.5-0.9,0.4-1.5C47.9,29.1,47.3,28.3,46.5,27.8 M52,26.7
		c0.5,1.1,0.7,2.5,0,3.6c0.3,0.1,0.7-0.2,1.1-0.2c1.9-0.2,3.2,1.1,4.4,2.4c1.1,1.6,2.1,3.6,1.4,5.7c-1.6,3.4-5.1,5.3-8,7.7l-1.1-1.3
		L37.4,29.4c2.2-2,4.6-3.7,6.9-5.6c1.1-0.7,2.5-1,3.8-0.6C49.8,23.7,51.1,25.3,52,26.7"/>
	<path class="st1" d="M38.1,43.6c0.8,2.3,1.7,4.5,2.6,6.6c1.5,0.9,2.2-0.4,2.1-1.3C42.5,46.6,39.9,45.2,38.1,43.6 M31.8,40.5
		c-0.2,0.5-0.5,0.9-0.2,1.5c1.2,2.1,3.5,3.6,5.3,5.3c-0.8-2.4-1.8-4.7-2.7-7C33.6,39.7,32.3,39.7,31.8,40.5 M34.6,34.9
		c4,1.3,6.9,5,10.2,7.8c2,1.8,3.7,4.3,2.5,7.1c-0.9,2.1-2.7,4.1-4.7,5.2l0.5,1.5L41,57.4l-0.1-0.3c-0.8,1.3-1.6,2.8-2.5,4.1
		l-7.9-1.3L30.4,60l1.5,2.3c1.4,0.8,2.7,1.7,4.2,2.5c-0.9,1.5-1.7,2.9-2.5,4.3l-0.2-0.1L15.7,58.5l-0.3-0.2c0.8-1.5,1.6-2.8,2.4-4.2
		c2.7,1.5,5.4,3.1,8,4.6v-0.2c-2.1-2.5-4-5.3-6-7.9c0.7-1.5,1.7-2.9,2.5-4.4l5.8,8.6l0.3,0.2l12.1,1.8c-0.2-0.5-0.3-1.4-0.9-1.5
		c-4.1-1.2-7.2-5.3-10.6-8.2c-2-1.7-2.9-4.2-2.1-6.6c0.8-2.1,3-4.4,5.1-5.3c-0.2-0.5-0.4-1-0.6-1.5l2.1-0.8L34.6,34.9z"/>
	<path class="st1" d="M28.1,71.1l4.4,1.5c-0.5,1.5-1.1,3.1-1.6,4.5c-1.5-0.4-3.1-0.9-4.5-1.5L28.1,71.1z"/>
	<path class="st1" d="M16.8,74.6c-0.2,1.5-0.5,3.1-0.9,4.5c-1.2-0.1-2.7-0.9-3.7,0c-0.5,0.5-0.7,1.2-0.6,1.9c0.2,0.5,0.5,0.8,1,1
		l11.2,2.3c0.5,0,1.1,0.2,1.5-0.3c0.5-0.6,0.7-1.5,0.3-2.3c-0.9-1.1-2.5-1.1-4-1.5c0.3-1.6,0.5-3,0.8-4.5c2.7,0.3,5.7,0.9,7,3.7
		c0.8,2.6,0.2,5.5-1.2,7.6c-1.5,2.1-4.1,2.4-6.4,1.9l-10.5-2.3c-1.5-0.4-2.9-1.7-3.4-3.1c-0.7-3.1-0.1-6.5,2.3-8.6
		C11.9,73.6,14.8,73.9,16.8,74.6"/>
	<path class="st1" d="M27.8,92.4l-0.5,5c-1.6-0.2-3.2-0.4-4.8-0.5c0.2-1.6,0.3-3.4,0.4-5L27.8,92.4z"/>
	<path class="st1" d="M10,99.2c1.2,0.2,2.6,0.2,4,0.2c0.1-2,0.1-4.2,0.2-6.3l3.9,0.1v6.1l0,0.1l9.1,0.3l-0.1,5h-0.5L6,104.2
		c0-4,0-8.1,0-12l4,0.2V99.2z"/>
	<path class="st2" d="M27.7,110.8c1.3,7.6,3.5,14.7,7,21.4l-0.3,0.3l-6.4,3.3c-3.8-7.2-6.3-15-7.6-23.2c-0.1-0.3-0.2-0.8,0.3-0.8
		C23,111.6,25.3,111.1,27.7,110.8"/>
	<path class="st2" d="M14.5,113.3c1.3,8.9,4.3,17.2,7.9,25.1c-2.1,1.2-4.4,2.3-6.6,3.4c-4.4-8.6-7.3-17.9-8.9-27.7
		c2.4-0.5,4.9-0.9,7.4-1.1L14.5,113.3z"/>
	<path class="st2" d="M59.5,160.7c4.8,3.2,9.9,5.8,15.2,7.8c-0.1,0.1,0,0.2,0.1,0.2h0.1l-1.3,7.6c-1.8-0.4-3.6-1.1-5.3-1.9
		c-14.7-5.8-29-18.7-37.2-32.7c1.9-1.5,4.3-2.6,6.4-4C42.8,146.1,50.8,155,59.5,160.7"/>
	<path class="st2" d="M25.9,144.5c10.3,17.7,28.3,31.7,46.8,37.6c0.2,2.6-0.2,5.3-0.1,7.9c-20.9-6.3-41.6-21.5-53.1-41.7
		C21.6,147.1,23.7,145.6,25.9,144.5"/>
	<path class="st1" d="M99.7,78.8c-3.5,0.4-0.9,4.5-3.3,6c-0.9,0.6-2.9,0.5-2.7,2.1c1-0.2,1.9-0.8,2.8-1.2c3.8-1,7.7-1.4,11.8-1.8
		l0.5-0.2c-0.1-0.2-0.2-0.3-0.3-0.5C106.1,80.7,103.1,79.2,99.7,78.8 M178.1,47.5c7.7,11.5,12.7,24.2,14.8,38.1
		c-10.3-3.1-21-5.5-32-7l-0.1,0.1c11.5,3.7,22.4,8.6,32.9,14.5c0.8,12.1-0.5,24-4,34.7c-9.4-4.7-18.8-9.4-28.7-12.9
		c2,1.6,4.3,3,6.5,4.5c6.8,4.6,13.4,9.7,19.9,15c-4.4,11.1-10.8,21.3-19.5,30.5c-9.5-7.8-18.9-17.5-26.8-27
		c2.5,5.8,6.3,11.2,9.9,16.7c3.7,5.3,7.4,10.5,11.7,15.4c-9.6,8.7-20.6,14.8-32.1,18.9c-6-8.8-10.1-18.5-14-28.2
		c0.2,4,1.1,7.9,1.8,11.8c1.5,6.3,3.1,12.5,5,18.6c-12.1,3.3-27,4-39.6,1.5c-1.1-7.2-1.7-14.7-1.1-22.2c0.2-3.7,0.7-7.5,0.9-11.1
		c0.7-2.7,0.7-5.6,0.7-8.3c-0.1-0.5-0.2-1.1-0.8-1.4c-1.5-0.2-2.4,0.8-3.6,1.3c-3.6,1.7-6.7,4.7-10.6,5.7c-1.5,0.4-3.1,0.1-4.1-0.9
		c-2.1-2.3-2.8-5.2-3.8-7.9c-1.2-4.7-3.1-9.5-2.5-14.7c0.3-0.6,0.7-1.3,1.4-1.7c2.3-0.6,4.3,0.9,6.2,2c3.8,2.3,7.2,5.7,11.6,6.6
		c0.8,0.2,1.5-0.2,2.1-0.5c1.4-2.1,1.6-5.3,0.8-7.7c-0.8-1.6-2.4-3.2-4.4-3c-3.4,0.2-6.2,1.6-9.6,1.8c-2.3,0.1-4.6,0.2-6.7-0.5
		c-1.9-0.7-4.1-1.1-5.5-2.8c-2.2-3.4-2.7-7.6-3-11.8c0.1-1.1,0.2-2.4,0.6-3.4c2.5-1.8,5.7-3,7.4-5.7c0.5-1.4,0.5-3.4,0.2-4.9
		c-0.9,1-1.5,2.2-2.7,2.8c-1.6,1-3.6,1.6-5.5,1.1c-2.1-1.8-1.3-4.9-1.1-7.4c0.3-1.2,0.7-2.6,1.8-3.4c8.6-6.4,18.3-10.3,28-14.4
		c4.2-1.7,8.4-3.4,12.8-4.6c0.8-0.7,0.8-1.8,1.2-2.7c1-2.1,3.2-3.1,5-4.3c4.1-2.4,8.5-4.4,12.9-6l0.5-0.4c0.9-3.3,2.5-6.4,5.3-8.9
		c4.4-3.4,9.2-5.8,14.5-7.1c10.2-2.2,22-2.1,32.6-1C169.6,45.7,174,46.4,178.1,47.5"/>
</g>
</svg>
