<?xml version="1.0" encoding="utf-8"?>
<!-- Generator: Adobe Illustrator 21.1.0, SVG Export Plug-In . SVG Version: 6.00 Build 0)  -->
<svg version="1.1" id="Layer_1" xmlns="http://www.w3.org/2000/svg" xmlns:xlink="http://www.w3.org/1999/xlink" x="0px" y="0px"
	 viewBox="0 0 200 200" style="enable-background:new 0 0 200 200;" xml:space="preserve">
<style type="text/css">
	.st0{fill:#1A7342;}
	.st1{fill:#FFFFFF;}
</style>
<g>
	<path d="M165.1,124.5c1.3,0.6,2.8,1.5,3.8,2.6c4.9,5.1,3.9,13.7,1.3,19.7c6.1,1.5,11.7,4,16.5,8l9.5,7.9l-12.3-0.5
		c-2.3-0.1-4.6,0-6.9,0.3c1.8,2.3,3.3,4.8,4.2,7.6c0.4,1.2,0.6,2.4,0.8,3.6l0.7,7.5l-6.3-4c-0.7-0.4-1.4-0.9-2.1-1.3
		c-8.7-5.2-19-7.5-28.9-8.9c-0.2,0-0.4-0.1-0.5-0.1c-3,3.7-6.2,7.1-9.8,10.2c-10.4,8.8-22.7,14-35.6,17.8c0,0-0.1,0-0.1,0l0,0l0,0
		c0,0-0.1,0-0.1,0c-8.1-2.4-16.1-5.3-23.5-9.4c-6.2-3.4-11.9-7.5-16.9-12.6c-1.9-1.9-3.6-3.9-5.3-6c-0.2,0-0.4,0.1-0.6,0.1
		c-9.7,1.4-19.8,3.7-28.4,8.6c-0.9,0.5-1.8,1.1-2.7,1.6l-7,4.4l1.3-8.1c0.2-1,0.4-1.9,0.6-2.9c0.9-3,2.5-5.7,4.4-8.1
		c-2.7-0.4-5.4-0.4-8.1-0.3l-9.8,0.4l7.1-6.8c2.7-2.6,6.1-4.8,9.5-6.3c2.6-1.2,5.3-2.1,8.1-2.7c-2.6-6-3.6-14.6,1.3-19.7
		c1.1-1.1,2.7-2,4.1-2.7c-1.9-8.2-2.8-16.5-2.9-24.9c-0.1-7.8,0.4-15.6,0.9-23.4c0.1-0.9,0.1-1.8,0.2-2.6
		c0.7-11.7,0.3-23.6-1.1-35.2c-0.5-4.8-1.3-9.5-2.2-14.3l0-0.1l0.1,0c2.5-0.6,4.8-1.6,7.2-2.7c1.3-0.6,2.6-1.2,3.8-1.8
		C52.2,13.6,65.2,9,78.9,6.6c6.7-1.1,13.5-1.7,20.4-1.7c20.8,0,41.1,5.4,59.8,14.4c1.3,0.6,2.5,1.3,3.8,1.9c2.3,1.1,4.7,2,7.2,2.7
		l0.1,0l0,0.1c-0.9,4.7-1.6,9.5-2.2,14.3c-1.3,11.6-1.7,23.5-1.1,35.2c0.1,0.9,0.1,1.8,0.2,2.6c0.5,7.8,1,15.6,0.9,23.5
		C167.9,108,167,116.3,165.1,124.5"/>
	<path class="st0" d="M99.3,196.3l-0.5-0.2c-9.4-2.7-17.2-5.8-23.8-9.5c-6.6-3.6-12.2-7.8-17.2-12.9c-1.7-1.7-3.3-3.6-4.9-5.5
		c-8.2,1.2-18.8,3.3-27.8,8.5c-0.8,0.4-1.6,0.9-2.3,1.4l-9.7,6.1l1.8-10.9c0.2-1.2,0.4-2.1,0.7-3c0.7-2.3,1.8-4.5,3.3-6.7
		c-1.8-0.1-3.7-0.2-5.7-0.1L0,164.1l9.5-9.1c2.7-2.6,6.1-4.9,9.9-6.6c2.1-1,4.5-1.8,6.9-2.5c-2.2-6.1-2.9-14.5,2.1-19.7
		c0.8-0.9,2-1.7,3.5-2.5c-1.7-7.6-2.6-15.5-2.7-24.2c-0.1-7.3,0.4-14.6,0.8-21.7l0.1-1.8c0.1-0.9,0.1-1.8,0.2-2.6
		c0.7-11.4,0.3-23.2-1.1-35c-0.6-4.8-1.3-9.6-2.1-14.2l-0.2-1.3l1.3-0.3c2.6-0.6,5-1.7,6.9-2.6c0.5-0.2,0.9-0.4,1.4-0.7
		c0.8-0.4,1.7-0.8,2.5-1.2C53.2,11.7,66.2,7.5,78.7,5.4c6.8-1.1,13.7-1.7,20.6-1.7c20,0,40.3,4.9,60.3,14.5c0.6,0.3,1.1,0.5,1.7,0.8
		c0.7,0.4,1.4,0.7,2.2,1.1c2.7,1.3,4.8,2.1,6.9,2.6l1.3,0.3l-0.2,1.3c-0.9,4.6-1.6,9.4-2.2,14.2c-1.4,11.8-1.7,23.6-1.1,35l0.3,4.6
		c0.4,7.1,0.9,14.4,0.8,21.6c-0.1,8.7-1,16.7-2.7,24.3c1.5,0.8,2.5,1.5,3.3,2.4c5,5.3,4.4,13.6,2.1,19.7c6.1,1.6,11.2,4.2,15.6,7.9
		l12.4,10.3l-16.1-0.7c-1.5-0.1-3,0-4.5,0.1c1.4,2,2.4,4,3.1,6.1c0.4,1.2,0.7,2.6,0.8,3.9l0.9,10l-9.2-5.8c-0.5-0.3-0.9-0.6-1.4-0.9
		c-8.8-5.3-19.2-7.4-28.2-8.7c-2.9,3.6-6.1,6.9-9.5,9.8c-9.2,7.8-20.7,13.6-36.1,18.1c0,0-0.1,0-0.1,0L99.3,196.3z M53.9,165.5
		l0.5,0.6c1.6,2.1,3.4,4.1,5.2,5.9c4.7,4.8,10.2,8.9,16.6,12.4c6.5,3.5,14,6.5,23.1,9.2c15-4.4,26.1-10,35-17.5
		c3.5-2.9,6.7-6.3,9.7-10l0.5-0.6l0.8,0.1c0.2,0,0.3,0.1,0.5,0.1c9.3,1.4,20.1,3.5,29.3,9.1c0.5,0.3,1,0.6,1.5,0.9l4.8,3l-0.4-4.9
		c-0.1-1.2-0.3-2.3-0.7-3.3c-0.8-2.5-2.2-4.9-4-7.2l-1.4-1.8l2.2-0.3c2.3-0.3,4.7-0.4,7.1-0.3l8.5,0.3l-6.6-5.5
		c-4.4-3.7-9.7-6.2-16-7.7l-1.5-0.4l0.6-1.4c2.3-5.5,3.5-13.6-1.1-18.4c-0.7-0.7-1.8-1.5-3.5-2.3l-0.9-0.5l0.2-1
		c1.8-7.7,2.7-15.8,2.9-24.7c0.1-7.1-0.4-14.4-0.8-21.4l-0.3-4.6c-0.7-11.6-0.3-23.5,1.1-35.5c0.5-4.5,1.2-8.9,2-13.3
		c-2-0.5-4-1.3-6.3-2.5c-0.7-0.3-1.5-0.7-2.2-1.1c-0.5-0.3-1.1-0.5-1.6-0.8C138.8,11,118.9,6.2,99.3,6.2c-6.7,0-13.5,0.6-20.1,1.7
		C66.8,10,54,14.1,40.1,20.5c-0.8,0.4-1.6,0.8-2.5,1.2c-0.5,0.2-0.9,0.4-1.4,0.7c-1.8,0.9-3.9,1.8-6.3,2.5c0.8,4.3,1.5,8.8,2,13.3
		c1.4,12,1.7,23.9,1.1,35.5c0,0.9-0.1,1.7-0.2,2.6L32.7,78c-0.4,7-0.9,14.3-0.8,21.5c0.1,8.9,1,16.9,2.8,24.6l0.2,1l-0.9,0.4
		c-1.8,0.8-3,1.6-3.7,2.4c-4.5,4.8-3.4,12.9-1.1,18.4l0.6,1.4l-1.5,0.4c-2.8,0.7-5.5,1.6-7.9,2.7c-3.5,1.6-6.7,3.7-9.2,6.1l-4.6,4.4
		l6.4-0.3c3-0.1,5.7,0,8.3,0.3l2.3,0.3l-1.4,1.8c-2,2.5-3.4,5-4.2,7.7c-0.2,0.8-0.4,1.6-0.6,2.7l-0.9,5.3l4.8-3
		c0.8-0.5,1.6-1,2.4-1.5c9.4-5.4,20.3-7.5,28.8-8.8c0.2,0,0.3-0.1,0.5-0.1L53.9,165.5z"/>
	<path class="st1" d="M28.5,23.9c4.3-1,7.4-2.9,11-4.5C59.7,10.2,78.6,5,99.3,5c20.7,0,41,5.4,59.7,14.4c3.6,1.7,6.8,3.5,11,4.5
		c-3.1,16.4-4.1,33.8-3.2,49.5c1,16.4,2.6,32.6-1.8,51.1c1.7,0.8,3,1.7,3.9,2.6c4.9,5.1,3.8,13.8,1.3,19.7c6.1,1.4,11.7,3.9,16.6,8
		l9.3,7.7l-12.1-0.5c-2.5-0.1-4.8,0-7.1,0.4c1.9,2.3,3.4,4.9,4.3,7.7c0.4,1.2,0.6,2.4,0.8,3.6l0.7,7.3l-6.2-3.9
		c-0.7-0.4-1.4-0.9-2.1-1.3c-8.7-5.2-19-7.5-28.9-8.9c-0.2,0-0.4-0.1-0.6-0.1c-11,13.8-25.1,22.1-45.5,28c0,0-0.1,0-0.1,0
		c-0.1,0-0.1,0-0.1,0c-22-6.4-35.5-15-45.7-28c-0.2,0-0.4,0.1-0.6,0.1c-9.7,1.4-19.8,3.7-28.4,8.6c-0.9,0.5-1.8,1.1-2.7,1.6
		l-6.8,4.3l1.3-7.9c0.2-1,0.4-1.9,0.6-2.8c0.9-3,2.5-5.7,4.5-8.2c-2.7-0.4-5.4-0.5-8.3-0.4l-9.5,0.4l6.9-6.6
		c2.7-2.6,6.1-4.7,9.5-6.3c2.6-1.2,5.4-2.1,8.2-2.8c-2.6-6-3.6-14.6,1.3-19.7c0.9-0.9,2.4-1.8,4.1-2.7c-4.3-18.5-2.8-34.7-1.8-51
		C32.7,57.8,31.6,40.3,28.5,23.9"/>
	<path class="st0" d="M90.9,188.9c2.8,1,5.5,1.9,8.3,2.6c2.9-0.9,5.5-1.8,8.1-2.7l-8.1-8L90.9,188.9z"/>
	<polygon class="st0" points="41.2,154.1 51.8,157.7 48.2,151.6 	"/>
	<polygon class="st0" points="149.6,151.4 146.3,157.7 157.5,154.5 	"/>
	<path d="M165.8,26.6c-3-1-5.6-2.4-8.6-3.8c-1.1-0.5-2.2-1-3.3-1.5c-3.8,33.3,7.8,75.4-1.2,111.5c-6.1,24.5-24.3,43.5-48.5,57.1
		c24.3-8.2,38.5-20.8,50-45.5c5.5-11.9,8.7-23.9,9.6-37c0.8-11.2-0.1-22.3-0.8-33.5C162.2,58.3,163.1,42.1,165.8,26.6 M44.2,21.3
		c-1.2,0.5-2.3,1-3.4,1.5c-3,1.4-5.6,2.7-8.5,3.8c2.7,15.5,3.6,31.7,2.7,47.3c-0.7,11.2-1.6,22.3-0.8,33.5c0.9,13.1,4.1,25.1,9.6,37
		c4.4,9.5,9.7,18.7,17.1,26.3c9.6,9.8,21.5,15.5,34.3,19.6c-31.1-16.6-44.6-39-48.7-53.7C35.3,96.3,48.8,54.9,44.2,21.3"/>
	<polygon class="st0" points="85.7,167.2 99.3,154 112.7,167.3 99.2,180.4 	"/>
	<polygon class="st0" points="85.7,140.4 99.3,127 112.7,140.4 99.3,153.7 	"/>
	<path class="st0" d="M135.1,162.2c-3.7,5-8,9.7-12.9,13.9l-8.9-8.9l13.5-13.2L135.1,162.2z"/>
	<polygon class="st0" points="113,140.4 125.8,128.1 140.2,140.5 126.7,153.5 	"/>
	<path class="st0" d="M76.1,176.2c-5.1-4.5-9.3-9.3-12.8-13.9l8.4-8.3l13.6,13.2L76.1,176.2z"/>
	<polygon class="st0" points="85.3,140.4 72.5,128.1 58.1,140.5 71.7,153.5 	"/>
	<polygon class="st0" points="85.7,113.3 99.3,99.9 112.7,113.3 99.3,126.6 	"/>
	<polygon class="st0" points="113,113.3 125.8,101 140.2,113.4 126.7,126.4 	"/>
	<polygon class="st0" points="85.3,113.3 72.5,101 58.1,113.4 71.7,126.4 	"/>
	<path class="st0" d="M153.1,108.5c-0.2,5.2-0.6,10.3-1.5,15.4l-11.1-10.5l8.6-8.5L153.1,108.5z"/>
	<path class="st0" d="M46.6,124c-0.8-4.9-1.3-9.9-1.4-15l4.1-4.1l8.7,8.5L46.6,124z"/>
	<path class="st0" d="M150.5,19.7c-16.3-6.9-33.7-11-51.4-11c-18.2,0-34.8,4.2-51.2,11c4.2,27.8-3,57.7-2.6,86
		c9-2.9,18.4-4.5,27.9-5.4l0.4,0l0.1-0.4c0.5-1.4,1.1-2.2,2.1-3.3c0.2-0.3,0.5-0.5,0.7-0.8c0.4-0.6,0.8-1.1,1.1-1.7l0.8-1.2
		l-1.3,0.7c-0.2,0.1-0.3,0.2-0.5,0.3l-0.1,0l0,0.1c-0.7,0.9-2.1,1-2.7-0.1c-0.3-0.5-0.4-1.4-0.7-1.8c-0.7-0.9-1.6-1.7-2.4-2.6
		l-0.2-0.2l-0.2,0.1c-2.4,1.3-5.1,1.6-7.7,1.5c1.8-1.2,3.6-2.6,5.2-4.1c0.1-0.1,0.1-0.1,0.2-0.2l0.2-0.2l-0.1-0.2
		c0-0.1-0.1-0.2-0.1-0.3c-0.6-1.4-0.3-2.9,0.2-4.3c2.6-7.1,7.8-16,16-17.2l0.1,0l0.1,0c1.5-1,2.9-1.6,4.8-1.8c0.3,0,0.7,0,1,0
		c1.5,0.1,2.9,0.8,4.3,1.5c1.2,0.6,2.6,1.4,4,1.5c5.8,0.7,11.6-0.2,17.4,0.2c1.7,0.1,3.3,0.5,4.9,1c1.7,0.5,3.3,1.1,5,1.3
		c2,0.3,5.6-1,5.4-3.5c-0.2-3.4-8-2.4-10.2-2.1l-0.1,0l-0.1,0c-1.1,0.8-3,1.1-4.3,1.1c-2.8-0.1-4.6-1.5-4.9-4.4
		c-0.2-1.7,0.4-3.6,1.3-5c0,1.5,0.4,3.1,1.8,3.7c1.4,0.5,2.9,0.4,4.3,0.9c0.6,0.2,1.2,0.5,1.7,1l0.1,0.1l0.2,0
		c1.5-0.3,3.1-0.4,4.7-0.4c3.4,0,8.5,0.9,8.5,5.3c0,4-3.1,5.6-6.5,6.2l-0.5,0.1l0.3,0.4c0.1,0.2,0.3,0.5,0.4,0.7
		c0.6,1.3,0.8,2.7,0.7,4.1c-0.1,1.2-0.5,2-0.8,3.1c-0.2,0.8-0.1,1.4,0.3,2.1c0.5,1,1.2,2.3,2.4,2.5c0.8,0.2,1.7-0.2,2.4,0.3
		c0.4,0.3,0.6,0.8,0.7,1.3c0.3,2.4,0.7,4.6,1.6,6.9c0.6,1.5,1.8,3.4,1.9,5c0,0.4-0.1,0.8-0.4,1.1c-0.3,0.2-0.6,0.3-0.9,0.2l-0.4,0
		l0,0.4c0,1-0.1,1.8-0.6,2.6l0.4,0.1c6.3,0.9,12.4,2.2,18.2,3.7c0.2-11.8-1-23.7-2.1-35.6C149.5,52.5,147.8,34.9,150.5,19.7
		 M79.1,99.9c4.3-0.3,8.6-0.4,12.9-0.4c-0.6-0.3-1.2-0.6-1.9-1l0,0l-0.1,0c-0.3-0.1-0.1,0-0.4,0c-0.5,0-0.9-0.1-1.4-0.4
		c-1.6-1.2-2.4-3.1-3.8-4.5c-0.2-0.2-0.5-0.4-0.7-0.5c-0.2-0.1-0.4-0.2-0.6-0.3l-0.3-0.1l-0.2,0.3c-0.5,0.9-1.2,1.7-1.7,2.7
		c-0.2,0.5-0.3,1.1-0.5,1.6c-0.2,0.5-0.5,0.6-0.9,0.8l-0.2,0.1l0,0.3c0,0.2,0.1,0.4,0,0.6C79.4,99.3,79.3,99.6,79.1,99.9 M96.6,99.5
		c0.9,0,1.9,0,2.8,0c2.6,0,5.2,0.1,7.8,0.1l0.2-0.4c0.5-1.1,1.5-1.9,2.4-2.6l0.1-0.1l0-0.1c0.1-0.5,0.1-0.7,0.5-1.1
		c1-0.9,4-3.1,4.5-4.1l0.1-0.2l-0.1-0.2c-0.3-0.5-1.1-1.2-1.5-1.5c-1-0.9-0.9-1.6-1-2.9l0-0.3l-0.3,0c-0.8,0-1.6-0.1-2.4,0.1
		c-0.9,0.2-1.8,0.5-2.7,0.9c-0.7,0.3-1.6,1-2.4,1.1c-0.3,0-0.7,0-1-0.2c-0.5-0.2-0.6-0.5-0.9-0.8l-0.1-0.1l-0.2,0
		c-2.3,0.1-4.6,0-6.9-0.1l-0.1,0l-0.1,0c-0.8,0.3-1.6,0.7-2.5,0.7c-1.2,0-2.9-0.3-4,0.1c-0.8,0.3-1.6,0.8-2.3,1.5l-0.2,0.2l0.2,0.2
		c0.4,0.6,1.3,1.4,1.9,1.9c0.8,0.7,1.8,1.2,2.7,1.8c0.5,0.2,0.6,0.7,0.6,1.2l0,0.5l0.5-0.2c0,0,0.1,0,0.1-0.1
		c0.4-0.2,0.9-0.4,1.4-0.2c0.5,0.2,0.6,0.6,0.9,1c0.8,1.1,1.3,2.2,1.7,3.5L96.6,99.5z M113.7,99.9c5.2,0.2,10.4,0.6,15.4,1.3
		c-0.1-0.9,0.6-1.8,1.1-2.4c0.3-0.4,0.7-0.7,0.9-1.1l0.1-0.2l-0.1-0.2c-0.1-0.1-0.1-0.3-0.1-0.5c-0.1-0.6,0-1.3-0.1-1.9
		c-0.4-1.6-1.3-3.9-2.2-5.1l-0.1-0.1l-0.1,0c-1-0.3-2.3-0.2-3.4-0.4c-0.9-0.2-1.8-0.5-2.6-1l-1.1-0.7l0.6,1.2
		c0.4,0.8,0.7,1.6,0.1,2.4c-0.5,0.8-2.7,2.2-3.6,2.8c-0.7,0.5-1.3,0.9-1.9,1.4c-0.6,0.5-1,1.7-1.4,2.4c-0.2,0.5-0.6,0.8-1.1,0.8
		c0,0,0,0-0.1,0l-0.4,0l0,0.4C113.8,99.3,113.8,99.6,113.7,99.9 M79.5,88.4c0-0.1-0.1-0.3,0-0.4c0.1-0.5,0.4-0.7,0.6-1.2
		c0.4-0.7,0.4-1.4,0.2-2.2l-0.1-0.3l0.3-0.1c0.2-0.1,0.5-0.2,0.7-0.2c0.6,0,0.7,0.5,0.7,1c0,0.6-1.3,2.8-1.7,3.5l-0.5,0.8L79.5,88.4
		z"/>
	<path class="st0" d="M30.1,160.1l-0.4-0.1c-4.7-1.5-9.1-2.3-14-2.2l-0.7,0l0.6-0.4c5.6-4.2,12.1-6.2,18.9-7.2l0.2,0l0.1,0.1
		c1.2,1.5,2.5,2.8,4.2,3.7c3,1.7,6.6,1.7,9.8,2.9c1.4,0.6,2.8,1.4,3.9,2.5c0.5,0.5,1.4,1.7,1.1,2.5c-0.2,0.5-0.9,0.7-1.4,0.8
		c-10.6,1.6-21.5,4.1-30.8,9.7l-0.5,0.3l0.2-0.6c1.4-4.7,4.9-8.7,8.7-11.7L30.1,160.1z"/>
	<path class="st0" d="M168.2,160.1l0.4,0.3c3.8,3,7.3,7,8.7,11.7l0.2,0.6l-0.5-0.3c-9.3-5.6-20.2-8.1-30.8-9.7
		c-0.5-0.1-1.6-0.2-1.8-0.8c-0.3-0.8,1-2,1.5-2.5c1.1-1.1,2.5-2,3.9-2.5c3.2-1.2,6.8-1.2,9.8-2.9c1.6-0.9,3-2.2,4.2-3.7l0.1-0.1
		l0.2,0c6.8,0.9,13.3,3,18.9,7.2l0.6,0.4l-0.7,0c-4.5,0-8.6,0.6-12.9,1.9c-0.4,0.1-0.8,0.2-1.1,0.3L168.2,160.1z"/>
	<path class="st0" d="M87.9,118.7c7.6-0.3,15.2-0.3,22.9,0c10.8,0.5,21.6,1.8,32.2,4c5.1,1,10.3,2.3,15.2,3.9
		c1.9,0.7,6.1,2.1,7.5,3.6c3.5,3.7,2.3,10.8,0.4,15.1c-1.4,3.2-3.7,6.5-6.8,8.3c-0.5,0.3-0.9,0.5-1.4,0.7l-0.1,0l-0.3-0.1
		c-7.5-2.7-15.2-4.8-23-6.3c-0.7-0.1-1.3-0.2-2-0.4c-3.9-0.7-7.8-1.2-11.7-1.6c-7.1-0.8-14.5-1.3-21.6-1.3c-7.2,0-14.5,0.5-21.6,1.3
		c-3.9,0.4-7.8,1-11.7,1.6c-8.5,1.5-16.9,3.7-25,6.6l-0.3,0.1l-0.1,0c-0.5-0.2-1-0.4-1.4-0.7c-3.1-1.8-5.4-5.1-6.8-8.3
		c-1.9-4.3-3.1-11.4,0.4-15.1c1.4-1.4,5.5-2.9,7.5-3.6c5-1.7,10.1-2.9,15.2-3.9C66,120.5,76.9,119.1,87.9,118.7"/>
	<path d="M169.9,160.4c3.4,2.9,6.5,6.5,7.9,10.8c0.3,0.9,0.5,1.8,0.6,2.8l0,0.2l-0.2-0.1c-0.7-0.4-1.4-0.9-2.1-1.3
		c-9.1-5.5-19.8-7.9-30.2-9.4c-0.8-0.1-2.5-0.5-2.8-1.3c-0.5-1.2,1-2.5,1.8-3.3c1.1-1.2,2.9-2.1,4.5-2.7c2.1-0.8,4.3-1.1,6.4-1.6
		c-7.6-2.6-15.4-4.6-23.3-6c-11-1.9-22.2-2.8-33.3-2.8c-11.2,0-22.3,0.9-33.3,2.8c-7.9,1.4-15.7,3.4-23.3,6c2.2,0.5,4.3,0.8,6.4,1.6
		c1.5,0.6,3.1,1.5,4.2,2.7c0.8,0.8,2,2.4,1.6,3.6c-0.3,0.9-1.5,1-2.3,1.1c-10.2,1.5-20.6,3.9-29.6,9.1c-0.9,0.5-1.9,1.1-2.8,1.7
		l-0.2,0.1l0-0.3c0.1-0.8,0.3-1.6,0.5-2.4c1.4-4.5,4.5-8.3,8.1-11.3c-5.1-1.5-10-2-15.4-1.7l-0.3,0l0.2-0.2c2.4-2.3,5.5-4.3,8.5-5.6
		c3.8-1.7,8-2.8,12.1-3.4c-0.8-1.2-1.6-2.5-2.1-3.9c-2-4.6-3.2-12,0.6-16c3.2-3.3,18.3-6.7,23.2-7.7c11.9-2.4,24.1-3.9,36.3-4.4
		c5.3-0.2,10.6-0.2,15.9,0c12,0.5,24.1,2,35.8,4.4c4.9,1,20,4.4,23.2,7.7c3.8,4,2.6,11.4,0.6,16c-0.6,1.3-1.3,2.7-2.1,3.9
		c7.2,1.1,14,3.4,19.7,8.1l1.4,1.1l-1.8-0.1C179.1,158.4,174.7,159.1,169.9,160.4 M40.5,153.8l0.2-0.1c8.2-2.9,16.5-5.2,25.1-6.6
		c3.9-0.7,7.8-1.2,11.7-1.6c7.1-0.8,14.5-1.3,21.7-1.3c7.2,0,14.5,0.5,21.7,1.3c3.9,0.4,7.8,1,11.7,1.6c0.7,0.1,1.3,0.2,2,0.4
		c7.8,1.5,15.6,3.6,23.1,6.3l0.2,0.1c0.5-0.2,0.9-0.4,1.4-0.6c3-1.7,5.3-5,6.7-8.1c1.8-4.1,3.1-11.1-0.3-14.7
		c-1.3-1.4-5.5-2.8-7.3-3.5c-5-1.7-10.1-2.9-15.2-3.9c-10.6-2.2-21.3-3.5-32.2-4c-7.6-0.4-15.2-0.4-22.8,0
		c-10.9,0.5-21.8,1.8-32.5,4c-5.1,1-10.2,2.3-15.2,3.9c-1.9,0.6-6,2.1-7.3,3.5c-3.4,3.6-2.1,10.6-0.3,14.7c1.4,3.2,3.6,6.4,6.7,8.1
		C39.6,153.5,40,153.7,40.5,153.8 M163.9,150.5c-1.2,1.5-2.6,2.8-4.2,3.7c-3,1.7-6.7,1.7-9.9,2.9c-1.3,0.5-3,1.4-4,2.4
		c-0.4,0.5-1,1.4-1.5,2.1c0.1,0.4,1.4,0.6,1.8,0.6c10.6,1.6,21.4,4.1,30.7,9.6c-1.4-4.5-4.8-8.3-8.5-11.2l-0.9-0.7l1.1-0.3
		c0.4-0.1,0.8-0.2,1.1-0.3c4.2-1.2,8.3-1.9,12.7-1.9C176.9,153.4,170.5,151.4,163.9,150.5 M21.4,171.9c9.3-5.5,20.1-8,30.7-9.6
		c0.4-0.1,1.3-0.2,1.4-0.6c-0.3-0.4-1.1-1.7-1.5-2.2c-1-1-2.3-1.8-3.6-2.3c-3.2-1.3-6.8-1.2-9.9-2.9c-1.6-0.9-3-2.2-4.2-3.7
		c-6.6,0.9-13,2.9-18.4,6.9c4.8,0,9.2,0.8,13.8,2.2l1.1,0.3l-0.9,0.7C26.3,163.5,22.9,167.4,21.4,171.9"/>
	<path d="M134.2,93.1c-1.1-2.5-1.4-4.9-1.7-7.1c-0.2-2.1-3.1,1.3-5.4-3.8c-1.1-2.5,0.3-3.4,0.5-5.7c0.2-3.4-1.3-4.5-1.8-5.9
		c5-0.5,7.5-2.2,7.5-5.6c0-5.1-8.5-4.8-12.8-3.9c-1.6-1.9-3.8-1.3-6.2-2.1c-0.9-0.3-1.5-0.8-1.9-2.1c-1.6,8,6.5,6.3,7.9,5
		c5.2-0.8,11.3-0.8,11.5,2.9c0.2,3.4-4.3,4.7-6.4,4.4c-3.9-0.6-5.9-2.1-9.8-2.3c-5.6-0.3-12,0.5-17.5-0.2c-3-0.4-5.9-3.3-9.1-3
		c-1.8,0.1-3.1,0.8-4.6,1.8c-7.8,1-12.9,9.5-15.6,16.7c-0.5,1.3-0.7,2.5-0.3,3.7c0.1,0.3,0.3,0.6,0.5,0.9c-0.3,0.3-0.6,0.6-0.9,0.9
		c-1.1,1-2.3,1.9-3.4,2.7c0.8,0,3.6-0.6,5.3-1.7c0.1-0.1,0.3-0.2,0.4-0.3c1,1.1,2.1,2.1,3.1,3.3c0.4,0.5,0.6,1.5,0.8,2
		c0.3,0.6,1.1,0.3,1.4-0.2c0.9-0.6,1.7-0.9,1.8-1.5c-0.1-1.1-1-2.3-0.2-3c0.3-0.2,0.5,0,0.7,0.5c0.1,0.4,0.3,1.2,0.6,1.4
		c0.3,0.2,0.6-0.2,0.6-0.4c0-0.7-0.7-1.7-0.5-2.5c0.4-1.5,1.4-1.2,0.5-3.8c0.5-0.3,1.3-0.8,2.1-0.8c0.7,0,1.5,0.5,1.5,1.9
		c0,1-1.3,2.9-2.2,4.5c-0.7,1.3-1,2.7-1.8,4c-0.6,0.9-1.2,1.9-1.8,2.7c-0.9,1.2-2,1.9-2.7,3.9c1.2,0,2.5-0.2,3.6-0.2
		c1.1-1,0.3-1.7,0.7-2.4c0.2-0.4,0.9-0.3,1.1-0.7c0.2-0.6,0.3-1.1,0.6-1.6c0.6-1.3,1.9-2.6,2.1-3.8c1,0.6,2,0.7,2.8,1.5
		c1.2,1.3,2.3,3.4,3.7,4.4c0.4,0.3,1.2,0.1,1.7,0.4c1.3,0.8,2.9,1.8,5.1,1.7c-0.4-1.2-0.9-2.2-1.6-3.2c-0.4-0.6-0.4-0.9-1.1-0.5
		c-0.6,0.3-1.4,0.4-1.8,0.2c-0.4-0.1,0.1-1.5-0.3-1.7C90,93.8,89,93.2,88,92.4c-1.5-1.3-2.7-2.7-2.4-3.1c0.7-0.9,1.8-1.7,3-2.2
		c1.3-0.5,2.8-0.1,4.3-0.2c0.7,0,1.6-0.4,2.4-0.7c2.9,0.1,4.5,0.3,7.3,0.1c0.7,0,1,1.2,1.8,1.1c0.4-0.1,1.2-0.5,2.1-1
		c1-0.5,1.9-0.7,2.9-1c1.2-0.3,2.3-0.1,3.4-0.1c0.8,1-0.1,2.3,1.1,3.4c1,0.9,2.1,1.8,1.8,2.6c-0.4,1.2-3,2.9-4.9,4.6
		c-0.3,0.3-0.1,0.9-0.4,1.1c-1,0.8-2,1.6-2.4,2.5c1.8,0,2.9,0.2,4.6,0.2c0.4-1.3-0.5-1.8,0-2.4c0.9-1.2,1.2,1.1,1.7,0
		c0.3-0.7,0.9-2.1,1.6-2.7c1.8-1.4,4.9-3.3,5.3-4c1-1.5-3.1-3.8-0.6-5.3c0.7,1.3,2.3,2.6,4.4,3c1.5,0.3,3.5,0.1,4,0.7
		c0.8,1,2,3.4,2.5,5.6c0.2,0.6,0,1.5,0.1,2c0.2,0.9,0.4,0.2,0.2,1c-0.2,0.7-2.6,2.7-2,3.8c1.3,0.2,2.3,0.2,3.6,0.3
		c0.7-1,0.7-2,0.6-3.1c-0.1-1.3,1.8,0.2,1.8-0.8C135.9,96.5,134.8,94.6,134.2,93.1z M66.9,89.3c1.7-1.2,3-2.4,3.4-3.5
		c0.1-0.4,0-0.5-0.4-0.3c-0.2,0.1-0.4,0-0.5-0.2c-0.2-0.3-0.1-0.7,0.1-1c0.2-0.2,0.6-0.4,1-0.4c0.6,0,1.2,0.5,1.3,1
		C72.1,87.2,69.3,88.5,66.9,89.3z M73.3,88.9c-0.5-0.2-0.9-0.4-1.1-0.8c-0.2-0.4-0.3-1-0.1-1.4c0.4,0,0.9,0,1.2,0.5
		C73.7,87.8,73.5,88.3,73.3,88.9z M79.1,83.7c0-0.8-0.1-1.9-0.8-2.6c-0.6-0.6-1.4-1.1-2.5-1.6c2.1-0.5,4.1-0.4,4.1,3.7
		C79.6,83.4,79.3,83.5,79.1,83.7z M82.7,72.8c-1.1-1.6-1.3-3.1-1.1-4.7c-2.8,0.7-6,3.5-7.9,5.5c2.1-2.5,3.8-6.3,10.7-7.6
		C82.9,68,82.6,70.3,82.7,72.8z"/>
	<path class="st1" d="M131,40.6l1.6,6.5l-2-1.3c-3.6-2.3-7.4-4.2-11.7-4.8c-3.2-0.4-6.2-0.1-9.3,0.5c-3.4,0.6-6.7,1.4-10.2,1.4
		c-3.9,0-7.4-0.8-11.1-1.5c-3.1-0.6-5.9-0.9-9-0.4c-4.1,0.7-8,2.6-11.4,4.9l-2.1,1.4l1.7-6.9l-4.7-2.9l1.5-0.8
		c3.5-1.8,7.3-3.4,11.2-4.3c4.6-1.1,8.2-1.2,12.7-0.4c1.6,0.3,3.2,0.7,4.9,0.9c2,0.3,3.9,0.5,5.9,0.5c3.4,0,6.3-0.6,9.6-1.3
		c3.5-0.7,6.5-1.1,10.1-0.7c5.3,0.5,11,2.9,15.6,5.4l1.5,0.8L131,40.6z"/>
	<rect x="117.5" y="36" transform="matrix(0.7071 -0.7071 0.7071 0.7071 8.4499 94.8778)" class="st0" width="2.5" height="2.5"/>
	<rect x="121.2" y="36" transform="matrix(0.707 -0.7072 0.7072 0.707 9.5492 97.5199)" class="st0" width="2.5" height="2.5"/>
	<rect x="124.9" y="36" transform="matrix(0.7072 -0.707 0.707 0.7072 10.6221 100.1159)" class="st0" width="2.5" height="2.5"/>
	<path class="st0" d="M131,36.6c-0.5-0.3-1-0.5-1.5-0.7l-1.4,1.4l1.8,1.8l1.8-1.8L131,36.6z"/>
	<path class="st0" d="M132.8,38.3l0.7-0.4c-0.5-0.3-1-0.5-1.5-0.8l-0.2,0.2L132.8,38.3z"/>
	<path class="st0" d="M119.9,32.9c-0.4-0.1-0.8-0.1-1.3-0.2c-0.3,0-0.6-0.1-0.9-0.1l-0.9,0.9l1.8,1.8l1.8-1.8L119.9,32.9z"/>
	<path class="st0" d="M124,33.8c-1-0.3-2-0.5-2.9-0.7l-0.4,0.4l1.8,1.8L124,33.8z"/>
	<path class="st0" d="M126.8,34.7c-0.6-0.2-1.2-0.4-1.8-0.6l1.2,1.2L126.8,34.7z"/>
	<path class="st0" d="M118.3,39.6c0.3,0,0.7,0.1,1,0.1l-0.6-0.6L118.3,39.6z"/>
	<path class="st0" d="M121.5,40.2c0.9,0.2,1.8,0.5,2.7,0.9l0.1-0.1l-1.8-1.8L121.5,40.2z"/>
	<path class="st0" d="M124.7,41.2c0.7,0.3,1.4,0.6,2.1,0.9L128,41l-1.8-1.8l-1.8,1.8L124.7,41.2z"/>
	<polygon class="st0" points="130.4,42.3 129.9,40.1 130.5,39.7 129.9,39.2 128.1,41 129.9,42.8 	"/>
	<path class="st0" d="M129.3,43.5c0.5,0.3,1.1,0.7,1.7,1l-0.2-0.9l-0.8-0.8L129.3,43.5z"/>
	<polygon class="st0" points="116.4,34.4 114.6,36.2 116.4,38 	"/>
	<rect x="111.4" y="34.9" transform="matrix(0.7072 -0.707 0.707 0.7072 7.4064 90.2631)" class="st0" width="2.5" height="2.5"/>
	<polygon class="st0" points="110.8,36.2 109,34.4 107.2,36.2 109,38 	"/>
	<rect x="104" y="34.9" transform="matrix(0.7072 -0.707 0.707 0.7072 5.2291 85.0055)" class="st0" width="2.5" height="2.5"/>
	<rect x="100.2" y="34.9" transform="matrix(0.7072 -0.707 0.707 0.7072 4.1349 82.3714)" class="st0" width="2.5" height="2.5"/>
	<path class="st0" d="M116.4,32.6c-0.6,0-1.1,0-1.7,0l1.7,1.7V32.6z"/>
	<path class="st0" d="M114.3,32.6c-1.1,0-2.1,0.1-3,0.3l1.4,1.4L114.3,32.6z"/>
	<path class="st0" d="M110.2,33.1c-0.7,0.1-1.4,0.2-2.1,0.3l0.9,0.9L110.2,33.1z"/>
	<path class="st0" d="M105.7,33.8c-0.2,0-0.5,0.1-0.7,0.1l0.3,0.3L105.7,33.8z"/>
	<path class="st0" d="M115,39.5c0.5,0,0.9,0,1.4,0v-1.4L115,39.5z"/>
	<path class="st0" d="M110.9,39.9c1.1-0.2,2.1-0.3,3.2-0.4l-1.4-1.4L110.9,39.9L110.9,39.9z"/>
	<path class="st0" d="M107.8,40.5c1-0.2,1.9-0.4,2.9-0.6l0.1-0.1l-1.8-1.8l-1.8,1.8L107.8,40.5z"/>
	<path class="st0" d="M104.7,41.1c0.5-0.1,0.9-0.2,1.4-0.3l1-1l-1.8-1.8l-1.8,1.8L104.7,41.1z"/>
	<rect x="78.3" y="36" transform="matrix(0.707 -0.7072 0.7072 0.707 -3.0092 67.2114)" class="st0" width="2.5" height="2.5"/>
	<rect x="74.6" y="36" transform="matrix(0.7072 -0.707 0.707 0.7072 -4.1076 64.5581)" class="st0" width="2.5" height="2.5"/>
	<rect x="70.9" y="36" transform="matrix(0.707 -0.7072 0.7072 0.707 -5.1883 61.9521)" class="st0" width="2.5" height="2.5"/>
	<path class="st0" d="M67.3,36.6c0.5-0.3,1-0.5,1.5-0.7l1.4,1.4L68.5,39l-1.8-1.8L67.3,36.6z"/>
	<path class="st0" d="M65.5,38.3l-0.7-0.4c0.5-0.3,1-0.5,1.5-0.8l0.2,0.2L65.5,38.3z"/>
	<path class="st0" d="M78.4,32.9c0.4-0.1,0.8-0.1,1.3-0.2c0.3,0,0.6-0.1,0.9-0.1l0.9,0.9l-1.8,1.8l-1.8-1.8L78.4,32.9z"/>
	<path class="st0" d="M74.4,33.8c1-0.3,2-0.5,2.9-0.7l0.4,0.4l-1.8,1.8L74.4,33.8z"/>
	<path class="st0" d="M71.6,34.7c0.6-0.2,1.2-0.4,1.8-0.6l-1.2,1.2L71.6,34.7z"/>
	<path class="st0" d="M80.1,39.6c-0.3,0-0.7,0.1-1,0.1l0.6-0.6L80.1,39.6z"/>
	<path class="st0" d="M76.9,40.2c-0.9,0.2-1.8,0.5-2.7,0.9L74.1,41l1.8-1.8L76.9,40.2z"/>
	<path class="st0" d="M73.7,41.2c-0.7,0.3-1.4,0.6-2.1,0.9L70.4,41l1.8-1.8L74,41L73.7,41.2z"/>
	<polygon class="st0" points="68,42.3 68.5,40.1 67.9,39.7 68.5,39.2 70.3,41 68.5,42.8 	"/>
	<path class="st0" d="M69.1,43.5c-0.5,0.3-1.1,0.7-1.7,1l0.2-0.9l0.8-0.8L69.1,43.5z"/>
	<polygon class="st0" points="82,34.4 83.8,36.2 82,38 	"/>
	<rect x="84.4" y="34.9" transform="matrix(0.707 -0.7072 0.7072 0.707 -0.4905 71.1945)" class="st0" width="2.5" height="2.5"/>
	<rect x="88.1" y="34.9" transform="matrix(0.7071 -0.7071 0.7071 0.7071 0.5926 73.8135)" class="st0" width="2.5" height="2.5"/>
	<rect x="91.8" y="34.9" transform="matrix(0.707 -0.7072 0.7072 0.707 1.6888 76.4542)" class="st0" width="2.5" height="2.5"/>
	<rect x="95.6" y="34.9" transform="matrix(0.707 -0.7072 0.7072 0.707 2.7743 79.0888)" class="st0" width="2.5" height="2.5"/>
	<path class="st0" d="M82,32.6c0.6,0,1.1,0,1.7,0L82,34.3V32.6z"/>
	<path class="st0" d="M84,32.6c1.1,0,2.1,0.1,3,0.3l-1.4,1.4L84,32.6z"/>
	<path class="st0" d="M88.2,33.1c0.7,0.1,1.4,0.2,2.1,0.3l-0.9,0.9L88.2,33.1z"/>
	<path class="st0" d="M92.7,33.8c0.2,0,0.5,0.1,0.7,0.1l-0.3,0.3L92.7,33.8z"/>
	<path class="st0" d="M83.3,39.5c-0.5,0-0.9,0-1.4,0v-1.4L83.3,39.5z"/>
	<path class="st0" d="M87.4,39.9c-1.1-0.2-2.1-0.3-3.2-0.4l1.4-1.4L87.4,39.9L87.4,39.9z"/>
	<path class="st0" d="M90.6,40.5c-1-0.2-1.9-0.4-2.9-0.6l-0.1-0.1l1.8-1.8l1.8,1.8L90.6,40.5z"/>
	<path class="st0" d="M93.7,41.1c-0.5-0.1-0.9-0.2-1.4-0.3l-1-1l1.8-1.8l1.8,1.8L93.7,41.1z"/>
	<path d="M133.7,37.7c-6.2-3.3-11.4-4.9-15.3-5.3c-7.8-0.8-11.9,2-19.6,2c-9.7,0-12.6-3.7-23.3-1.1c-3,0.7-6.6,2.1-11,4.3l3.8,2.4
		l-1.2,5.1c14.5-9.8,21.3-3.1,32.1-3.2c10.5-0.1,17.5-6.4,31.8,3l-1.2-4.8L133.7,37.7z M130.4,44c-3.5-2.2-7.3-3.9-11.4-4.4
		c-3.4-0.5-6.5-0.1-9.8,0.5c-3.4,0.6-6.6,1.4-10,1.4c-3.8,0-7.2-0.8-10.9-1.5c-3.2-0.6-6.2-0.9-9.5-0.4c-4,0.6-7.7,2.4-11.1,4.6
		l1.1-4.4l-3.5-2.2c3.2-1.6,6.7-3.1,10.2-3.9c4.4-1.1,7.8-1.2,12.2-0.3c1.6,0.3,3.3,0.7,4.9,1c2,0.3,4,0.5,6.1,0.5
		c3.5,0,6.5-0.6,9.9-1.3c3.3-0.7,6.2-1,9.7-0.7c4.9,0.5,10.1,2.6,14.5,4.9l-3.5,2.2L130.4,44z"/>
	<path class="st1" d="M99.5,20.1c6.1,0,11,4.9,11,11c0,6.1-4.9,11-11,11c-6.1,0-11-4.9-11-11C88.5,25,93.4,20.1,99.5,20.1"/>
	<path class="st1" d="M99.5,21.2c5.5,0,9.9,4.4,9.9,9.9c0,5.5-4.4,9.9-9.9,9.9c-5.5,0-9.9-4.4-9.9-9.9C89.6,25.7,94,21.2,99.5,21.2"
		/>
	<path d="M99.5,21c5.6,0,10.1,4.5,10.1,10.1c0,5.6-4.5,10.1-10.1,10.1c-5.6,0-10.1-4.5-10.1-10.1C89.4,25.5,93.9,21,99.5,21
		 M92.3,24.6l0.4,0.9l2.8,0.2l3.4-2.6l-0.3-1.6C96.1,21.7,93.9,22.8,92.3,24.6 M92.4,25.7L92,24.9c-1.1,1.4-1.9,3-2.1,4.9l1.3-0.8
		L92.4,25.7z M99.1,23.4l-3.3,2.5l0.2,3l3.3,1.5l2.8-1.7l0.1-3.8L99.1,23.4z M91.2,29.5l-1.4,0.8c0,0.3,0,0.5,0,0.8
		c0,1.8,0.5,3.5,1.3,4.9l1.5,0.3l0.9-1l-0.6-4.1L91.2,29.5z M92.4,36.7l-1-0.2c0.4,0.6,0.8,1.1,1.3,1.6L92.4,36.7z M93.3,31.3
		l0.6,3.9l2.6,0.8l3.1-2.3l-0.4-3l-3.3-1.5L93.3,31.3z M107.2,25.2c-0.7-0.4-1.5-0.8-2.2-1.2l-2.4,0.9l-0.1,3.8L105,31l3.2-1
		l0.3-2.4C108.2,26.7,107.7,25.9,107.2,25.2 M105.1,23.6c0.4,0.2,0.9,0.4,1.3,0.7c-0.5-0.5-1-0.9-1.6-1.3L105.1,23.6z M108.3,30.4
		l-3.3,1l-1.4,3l0.9,2.8l2.7-0.2c1.1-1.5,1.8-3.3,2-5.2L108.3,30.4z M97.6,39l4.7,0.4l1.9-2.1l-0.9-2.7L99.8,34l-3,2.2L97.6,39z
		 M102.1,39.9l-4.6-0.4l-0.9,1c0.9,0.3,1.9,0.4,2.9,0.4c0.9,0,1.8-0.1,2.7-0.4L102.1,39.9z"/>
	<path d="M120.5,21.8c0.1-0.6,0.1-1.1,0-1.5c-0.1-0.6-0.1-1,0.3-1.6c0.7-1,3.4-0.4,4.9,0.4c0.5,0.3,1.1,0.7,1.7,1.2
		c1,0.9,1.5,2,1.2,2.9c-0.2,0.5-0.6,0.7-1,0.8c-0.3,0.1-0.6,0.2-1.1,0.5c-1.8,1.3-4.7,5.8-9,13c-0.7,1.2-0.4,3.4,1.3,3.6
		c1.1,0.2,2.1,0.3,3.1,0.6c-1.4,1-3.3,1.2-4.5,0.6c-2.2-0.9-3-3.4-2.1-6.2c0.5-1.5,1.1-2.9,1.6-4.2
		C118.4,28.3,119.7,25.5,120.5,21.8"/>
	<path class="st1" d="M121.1,41.3c-1,0.5-2.2,0.7-3.3,0.2c-1.9-0.5-2.7-3.3-2-5.5c0.5-1.4,1-2.8,1.6-4.2c0.5-1.2,1-2.4,1.5-3.5
		c0.5-1.2,3.1-6.6,2.9-7.7c-0.1-0.5-1-0.9-0.6-1.7c0.3-0.7,2.2-0.3,2.7-0.1c0.6,2-0.5,1.1-1.3,2.9c-1.4,3.6-4,9.2-5.4,12.6
		c-0.6,1.5-0.9,2.9-0.8,2.9c0.2,0.1,0.6-0.8,1.3-2.1c0.9-1.5,2.2-3.6,3.5-5.8c1.3-2.2,2.9-4.7,4.2-6.1c0.4-0.5,1-0.2,1.4-0.5
		c0.3-0.3,0.4-1.5-0.3-2.7c0.2,0.1,0.4,0.3,0.6,0.5c0.6,0.5,1.4,1.6,1.1,2.4c-0.1,0.3-0.4,0.5-0.7,0.6c-0.5,0.1-0.8,0.3-1.2,0.5
		c-1.3,0.9-2.7,3-3.6,4.4c-1.9,2.8-3.7,5.8-5.5,8.7c-0.9,1.5-0.4,4,1.6,4.2c0.3,0,0.9,0,1.1-0.3C120.4,41.1,120.8,41.2,121.1,41.3"
		/>
	<path d="M121.4,30.8c1-0.3,2.9-0.2,4.1,2.3c-1.3-0.4-2.9-0.8-4.8-1.2L121.4,30.8z"/>
	<path class="st1" d="M121.4,31.1c0.5-0.1,1.2-0.1,1.7,0.1c0.6,0.3,1.2,0.8,1.7,1.5c-0.5-0.1-1-0.3-1.4-0.4
		c-0.3-0.8-1.4-0.9-2.2-0.8L121.4,31.1z"/>
	<path d="M115.5,39.6c-1.2,1.4-2.3,3-3,4.4c-0.3,0.6-0.4,1.2-0.7,1.6c-0.4,0.5-1.3,0.6-1.8,0l-1.4-1.4c-0.7-0.7-0.5-1.4-0.1-1.8
		c0.6-0.6,1.6-0.8,2.4-1.5c1.6-1.2,3-2.9,4.6-4.8C115.1,37.5,115,38.6,115.5,39.6"/>
	<path class="st1" d="M115,38.8l-4.2,4.8c0,0-0.2,0.1-0.3,0.1c-0.2,0.1-0.2,0.7,0.4,0.8c0.1,0,0.3,0,0.5,0.2
		c0.1,0.2,0.1,0.4-0.1,0.6c-0.3,0.4-0.7,0.3-1,0l-1.2-1.1c-0.3-0.3-0.6-0.9-0.2-1.3c0.3-0.3,0.5-0.2,0.7-0.1
		c0.4,0.2,0.4,0.7,0.7,0.4c0.1-0.1,0.1-0.6,0.4-0.9c1.5-1.5,3-3.4,4.3-5C115,38,114.9,38.4,115,38.8"/>
	<path d="M78.1,21.8c-0.1-0.6-0.1-1.1,0-1.5c0.1-0.6,0.1-1-0.3-1.6c-0.7-1-3.4-0.4-4.9,0.4c-0.5,0.3-1.1,0.7-1.7,1.2
		c-1,0.9-1.5,2-1.2,2.9c0.2,0.5,0.6,0.7,1,0.8c0.3,0.1,0.6,0.2,1.1,0.5c1.8,1.3,4.7,5.8,9,13c0.7,1.2,0.4,3.4-1.3,3.6
		c-1.1,0.2-2.1,0.3-3.1,0.6c1.4,1,3.3,1.2,4.5,0.6c2.2-0.9,3-3.4,2.1-6.2c-0.5-1.5-1.1-2.9-1.6-4.2C80.2,28.3,78.9,25.5,78.1,21.8"
		/>
	<path class="st1" d="M77.5,41.3c1,0.5,2.2,0.7,3.3,0.2c1.9-0.5,2.7-3.3,2-5.5c-0.4-1.4-1-2.8-1.6-4.2c-0.5-1.2-1-2.4-1.5-3.5
		c-0.5-1.2-3.1-6.6-2.9-7.7c0.1-0.5,1-0.9,0.6-1.7c-0.3-0.7-2.2-0.3-2.7-0.1c-0.6,2,0.5,1.1,1.3,2.9c1.4,3.6,4,9.2,5.4,12.6
		c0.6,1.5,0.9,2.9,0.8,2.9c-0.2,0.1-0.6-0.8-1.3-2.1c-0.9-1.5-2.2-3.6-3.5-5.8c-1.3-2.2-2.9-4.7-4.2-6.1c-0.4-0.5-1-0.2-1.4-0.5
		c-0.3-0.3-0.4-1.5,0.3-2.7c-0.2,0.1-0.4,0.3-0.6,0.5C70.8,21,70,22,70.4,22.9c0.1,0.3,0.4,0.5,0.7,0.6c0.5,0.1,0.8,0.3,1.2,0.5
		c1.3,0.9,2.7,3,3.6,4.4c1.9,2.8,3.7,5.8,5.5,8.7c0.9,1.5,0.4,4-1.6,4.2c-0.3,0-0.9,0-1.1-0.3C78.2,41.1,77.8,41.2,77.5,41.3"/>
	<path d="M77.2,30.8c-1-0.3-2.9-0.2-4.1,2.3c1.3-0.4,2.9-0.8,4.8-1.2L77.2,30.8z"/>
	<path class="st1" d="M77.2,31.1c-0.5-0.1-1.2-0.1-1.7,0.1c-0.6,0.3-1.2,0.8-1.7,1.5c0.5-0.1,1-0.3,1.4-0.4c0.3-0.8,1.4-0.9,2.2-0.8
		L77.2,31.1z"/>
	<path d="M83.1,39.6c1.2,1.4,2.3,3,3,4.4c0.3,0.6,0.4,1.2,0.7,1.6c0.4,0.5,1.3,0.6,1.8,0l1.4-1.4c0.7-0.7,0.5-1.4,0.1-1.8
		c-0.6-0.6-1.6-0.8-2.4-1.5c-1.6-1.2-3-2.9-4.6-4.8C83.5,37.5,83.6,38.6,83.1,39.6"/>
	<path class="st1" d="M83.6,38.8l4.2,4.8c0,0,0.2,0.1,0.3,0.1c0.2,0.1,0.2,0.7-0.4,0.8c-0.1,0-0.3,0-0.5,0.2
		c-0.1,0.2-0.1,0.4,0.1,0.6c0.3,0.4,0.7,0.3,1,0l1.2-1.1c0.3-0.3,0.6-0.9,0.2-1.3c-0.3-0.3-0.5-0.2-0.7-0.1
		c-0.4,0.2-0.4,0.7-0.7,0.4c-0.1-0.1-0.1-0.6-0.4-0.9c-1.5-1.5-3-3.4-4.3-5C83.6,38,83.7,38.4,83.6,38.8"/>
	<path d="M94.9,160.6c0.8,0,1.5,0.7,1.5,1.5c0,0.2-0.1,0.5-0.2,0.7l-0.3,0.8c-0.4,1.1-0.9,2.2-1.1,3.4c-0.1,0.6-0.2,1.3,0,1.9
		c0.5,1.8,2.3,2.6,4,2.6c1.7,0.1,3.9-0.5,4.5-2.3c0.6-1.7-0.3-4.1-1-5.7l-0.3-0.6l0,0c-0.1-0.2-0.1-0.4-0.1-0.7
		c0-0.8,0.7-1.5,1.5-1.5c0.7,0,1.2,0.4,1.4,1l0,0l0.3,1.1c0.8,2.3,1.7,4.4,1.4,6.9c-0.2,1.7-0.9,3.1-2.3,4.2
		c-1.5,1.2-3.5,1.8-5.4,1.8c-1.9,0-3.5-0.5-5-1.8c-1.1-1-1.9-2.2-2.2-3.7c-0.5-2.9,0.6-4.9,1.4-7.5l0.3-1l0,0l0,0h0
		C93.7,161,94.2,160.6,94.9,160.6"/>
	<path class="st1" d="M94.9,161c0.6,0,1.1,0.5,1.1,1.1c0,0.6-0.5,1.1-1.1,1.1c-0.6,0-1.1-0.5-1.1-1.1C93.8,161.5,94.3,161,94.9,161"
		/>
	<path class="st1" d="M103.4,161c0.6,0,1.1,0.5,1.1,1.1s-0.5,1.1-1.1,1.1c-0.6,0-1.1-0.5-1.1-1.1S102.8,161,103.4,161"/>
	<path class="st1" d="M98.8,171.9c-1.9-0.1-3.8-1-4.4-2.9c-0.2-0.6-0.1-1.4,0-2.1c0.2-1.2,0.7-2.2,1.1-3.4c-0.2,0.2-0.2,0.2-0.7,0.2
		c-0.1,0-0.3,0-0.4-0.1l-0.6,1.7l-0.7-0.3l0.7-1.8c-0.1-0.1-0.3-0.3-0.3-0.4c-0.8,2.5-1.9,4.5-1.4,7.3c0.2,1.4,1,2.5,2.1,3.4
		c0.4,0.3,0.7,0.6,1.1,0.8c0.3-0.5,1-1,1.5-1h0.9c0.3-0.5,0.7-0.8,1.3-0.7c0.6,0,1,0.2,1.2,0.7h0.9c0.6,0,1.2,0.5,1.6,1
		c0.5-0.2,0.9-0.5,1.3-0.8c1.1-0.9,1.9-2.1,2.1-3.9c0.2-2.6-0.8-4.9-1.4-6.7c-0.1,0.2-0.2,0.3-0.4,0.4l0.6,1.7l-0.7,0.3l-0.6-1.6
		c-0.1,0-0.2,0-0.3,0c-0.5,0-0.3,0-0.7-0.2c0.7,1.8,1.6,4,1,5.8C103.1,171.3,100.8,172,98.8,171.9 M95.7,174.5
		c1,0.5,2.1,0.7,3.3,0.7c1.2,0,2.4-0.2,3.4-0.7c-0.3-0.4-0.7-0.8-1.2-0.8h-1.1l-0.1-0.1c-0.2-0.4-0.5-0.6-0.9-0.6
		c-0.5,0-0.8,0.2-1,0.6l-0.1,0.1h-1.2C96.5,173.7,95.9,174.1,95.7,174.5 M94.3,171.5c0.4,0.4,0.8,0.8,1.2,1.1l0.3,0.2l-0.4,0.6
		l-0.3-0.2c-0.5-0.3-0.9-0.7-1.3-1.2l-0.2-0.3l0.5-0.5L94.3,171.5z M104.5,172c-0.4,0.4-0.8,0.8-1.3,1.2l-0.3,0.2l-0.4-0.6l0.3-0.2
		c0.4-0.3,0.8-0.7,1.2-1.1l0.2-0.3l0.5,0.5L104.5,172z M93.4,167.9c-0.1,0.5-0.1,0.9,0,1.4l0.1,0.4l-0.7,0.1l-0.1-0.4
		c-0.1-0.5-0.1-1.1,0-1.6l0-0.4l0.7,0.1L93.4,167.9z M105.5,167.8c0.1,0.5,0.1,1.1,0,1.6l-0.1,0.4l-0.7-0.1l0.1-0.4
		c0.1-0.5,0.1-0.9,0-1.4l0-0.4l0.7-0.1L105.5,167.8z"/>
	<path d="M58.1,132c0.6,0.7,1,1.4,0.9,2.5c0.3-0.4,0.5-0.9,0.8-1.4l2-3.6l0.4-0.1c1.1-0.4,2.2-0.7,3.3-0.9c3.7-0.7,7.3,0.1,7,4.7
		c0,0.1,0,0.1,0,0.2l0.3-0.2c1.3-2.4,3-4.6,5.5-5.8c1.2-0.6,2.9-0.9,4.2-0.9c0.5,0,0.9,0.1,1.3,0.2c0.2,0.1,0.4,0.1,0.6,0.2l5.3-0.5
		l-1.9,3.1c1.7-2,4.2-3.8,6.4-3.7c2.1,0,3.2,1,4,2.8l-2.8,2.9c-0.4-0.7-0.9-1.1-1.6-1.1c-0.8,0-1.7,1-2.1,1.6
		c-0.3,0.4-0.5,1-0.6,1.5c-0.1,0.3-0.1,0.9,0.4,0.9c0.7,0,1.7-0.4,2.2-0.7c1.7-0.9,3.3-2.6,4.3-4.2l2-3.3h6.4l-2.2,3.6h1l2.1-3.5
		h6.5l-3.9,6.3c0.2-0.1,0.3-0.2,0.4-0.3c2.3-3.2,5.6-6.9,10-5.6c1.3,0.4,2.4,1.5,2.9,2.7c0.3,0.7,0.4,1.5,0.4,2.2
		c3.1-4.3,9-5.5,13.8-3.4c0.5,0.2,0.9,0.5,1.4,0.8l0.9,0.5l-3.3,4.9c0.1,0,0.2-0.1,0.3-0.1c1.9-2.6,4.3-5.5,7.8-5.4
		c1.6,0.1,3.4,0.8,4.7,1.8l4.6,0.6l-3.4,4.9c0.3-0.3,0.6-0.6,0.8-0.8l2.8-4.1l0.6,0.1c2.1,0.3,5.1,0.8,6.9,2
		c2.8,1.8,3.7,5.1,1.5,7.8c-1.6,1.9-3.3,2.7-5.8,2.7c-1.4,0-2.7-0.4-3.7-1.3l-3.7,5.2l-6.4-1.8l3.4-4.6c-0.5,0.1-0.9,0.1-1.4,0.1
		c-1.1,0-2-0.5-2.4-1.4c-1.6,0.4-3.4,0.7-4.9,0.1c-0.2-0.1-0.3-0.1-0.4-0.2c0.7,1.2,1.4,2.4,2.1,3.7l0.8,1.5l-1.7,0
		c-2.7-0.1-6.3-0.5-8.8-1.5c-2,2-4.9,3.6-7.6,4c-2.4,0.3-5.9-0.5-6.9-3c-0.5-1.3,0-2.8,0.8-3.8c1.1-1.4,2.8-2,4.5-2.2
		c1-0.1,2-0.1,3,0c-0.4-0.3-0.8-0.6-1-1c-0.3-0.4-0.4-0.8-0.5-1.2l-0.9,0.3c-2.7,1.6-7.3,3.2-9.9,0.7c-0.4-0.4-0.7-0.8-0.9-1.3
		c-1.8,1.3-4.2,2.5-6.1,2.3c-2.3-0.2-3.5-1.9-2.2-3.9l0.3-0.5l-1.2,0l-2.7,4.4l-6.4,0l0.2-0.3c-0.5,0.2-1,0.4-1.6,0.4
		c-1.4,0.3-3,0.1-4-1c-0.3-0.3-0.5-0.7-0.7-1c-1.7,1.5-4.1,3.2-6,2.6c-0.5-0.2-0.8-0.4-1.2-0.8c-1.7,1.2-4.1,2-5.8,0.8
		c-0.7-0.5-1-1.2-1.2-2l-1.7,0.9c-2,1.8-5.9,3.6-8.7,2.8l-3.4,6.1l-7.6,0.8l3.4-5.3c-0.8,0.2-1.5,0.4-2.1,0.3
		c-0.6-0.1-1.1-0.4-1.5-0.8c-1.5-1.8,0.3-5.1,1.3-6.9c-0.4,0-1,0.1-1.4,0.2l-4.7,9.3l-9.3,3l0.6-1.8c0.9-2.8,3.3-5.9,5.1-8.2
		c0.5-0.6,1.1-1.5,1.8-2.4c-1.4,0.9-3,1.5-4.6,1.6c-1.6,0.1-3.1-0.4-4.1-1.7c-1.2-1.6-1.3-3.9-0.6-5.7c1.3-3.3,4.1-5.8,7.4-7
		c2.8-1,6.3-1.3,8.9,0.3c2.9,1.8,3.3,4.4,2.6,7c2.6-1.9,4.2-4.5,4.9-7.8l0.2-1l6.3,1.6l-0.4,1C63.1,127,61.1,130,58.1,132
		 M136.4,138.5c-0.1-0.2-0.1-0.4-0.2-0.6c-1.1,0.3-2.1,0.8-2.9,1.6c-0.4,0.4-0.7,0.8-1,1.2c1.3,0,2.2-0.6,3.5-1.7L136.4,138.5z
		 M47.3,128.7c0,0,0-0.1,0-0.1c0-0.8,0-2.1-0.9-2.5c-1.1-0.5-3.1,0.3-4.1,0.8c-0.5,0.2-0.9,0.5-1.4,0.8c-0.9,0.7-3.8,3.3-2.3,4.5
		c0.1,0.1,0.2,0.2,0.3,0.1c0.6,0,2.3-1.8,2.8-2.3c1.4-1.2,3-2.1,4.9-1.5L47.3,128.7z M124.3,142.4c-0.8-0.1-1.6-0.1-2.3,0
		c-0.7,0-1.4,0.2-2,0.6c-0.2,0.1-0.6,0.5-0.6,0.7c0.1,0.5,1.3,0.5,1.7,0.5c0.7,0,1.8-0.5,2.3-0.9C123.7,143,124,142.7,124.3,142.4
		 M158.4,136.6c-0.4,0.2-1.1,0.9-1.2,1.1c-0.3,0.3-1,1.3-1.3,2c0.5-0.2,1.1-0.7,1.4-1C157.5,138.4,158.3,137.2,158.4,136.6
		 M145.5,133.5c-0.6,0.1-1.6,0.9-1.9,1.1c-0.3,0.3-1.2,1.2-1.6,1.9c0.6-0.1,1.3-0.6,1.6-0.8C144.1,135.4,145.2,134.2,145.5,133.5
		 M131.8,131.3c-0.6,0.2-1.7,1.2-2,1.5c-0.3,0.3-1.1,1.3-1.4,2c0.7-0.3,1.6-1.1,1.9-1.3C130.7,133,131.6,131.9,131.8,131.3
		 M118.7,130.2c-0.6,0.1-1.8,1.5-2.1,1.9c-0.3,0.4-1.2,1.7-1.5,2.5c0.8-0.4,1.8-1.5,2.1-1.9C117.6,132.2,118.7,130.8,118.7,130.2
		 M81.5,130.6c-0.7,0.3-2.1,1.7-2.5,2.1c-0.3,0.3-1,1.3-1.3,2c0.8-0.5,1.9-1.5,2.2-1.8C80.2,132.5,81.2,131.3,81.5,130.6
		 M63.6,137.3c0.8-0.4,1.8-1.6,2.1-2.1c0.3-0.4,1.3-1.9,1.3-2.5c-0.6,0-1.9,1.7-2.2,2.2C64.5,135.3,63.8,136.5,63.6,137.3"/>
	<path class="st1" d="M38.1,146.2c1.8-5.4,10-12.6,10.1-17.7c0.2-5.1-4.2-3.6-6.3-2.6c-3.2,1.5-6.1,5.1-3.8,6.9
		c2.4,1.9,4.4-4.6,8.4-3.5c-0.1,3.8-3.9,6.3-7.2,6.5c-3.9,0.3-4.6-3.7-3.7-6.1c2.4-6.3,10.8-8.8,14.9-6.3c3.3,2.1,2.9,5.2,0.9,8.5
		c4.6-2.2,7.1-5.6,7.9-10.1l4.2,1.1c-1.4,3.3-3.5,6.7-7.1,8.7c1,0.7,1.8,1.3,1.6,2.7c-0.1,1-0.7,1.8-0.9,2.3
		c-0.2,0.5,0.1,0.8,0.8,0.3c1.6-1.3,2.1-2.6,2.7-3.6l1.8-3.3c3.3-1.1,9.5-2.6,9.1,2.9c-0.1,0.7-0.7,2.1-1.2,2.9l3.2-2.2
		c1.3-2.5,3-4.5,5.2-5.6c1-0.5,2.5-0.8,3.8-0.8c1,0,1.4,0.3,1.9,0.4l3.6-0.3l-3.8,6.3c-0.6,1.7,1.2,0.7,2.8-1.1c1.2-3.1,5-6.1,7.3-6
		c1,0,2.2,0.2,2.9,1.6l-1.7,1.7c-0.3-0.3-0.6-0.7-1.6-0.7c-1.5,0-3.4,2-3.7,3.9c-0.2,0.9,0.2,2.1,1.4,2c0.6,0,1.7-0.3,2.7-0.9
		c1.4-0.8,3.3-2.4,4.6-4.5l1.8-2.9h4.1l-2.2,3.6h3.3l2.1-3.5h4.2l-3.4,5.4c-0.4,0.6-0.6,1.1-0.4,1.3c0.4,0.3,1.6-0.1,2.7-1.2
		c3.6-4.9,6.3-6.1,9-5.3c1.6,0.5,4,3.1,1.5,6.8l2.1-1c2.5-4.8,8.4-6.3,13.4-4.2c0.4,0.2,0.9,0.5,1.3,0.7l-4.2,6.4
		c1.2-0.3,2-0.7,3.2-1c3-4,4.8-5.4,7.2-5.2c1.4,0.1,3.2,0.8,4.3,1.8l3.3,0.5l-3.7,5.3c-0.3,0.4,0,0.9,0.5,0.9c0.9-0.1,2.4-1.5,3-2.3
		l2.5-3.6c2.9,0.4,5.1,0.9,6.5,1.8c2.7,1.8,2.8,4.5,1.3,6.4c-1.6,1.9-3.2,2.4-5,2.4c-1.5,0-2.9-0.6-3.8-1.9l-4,5.6l-4.4-1.2l4.4-6
		c-1.3,0.8-2.8,1-4,1c-1.2,0-1.8-0.7-1.7-1.6c-1.8,0.6-3.9,1-5.2,0.4c-0.9-0.4-1.5-1.2-1.4-2.7c-4.4,0.8-5.4,3.2-6.5,4.7
		c2.4,0.5,3.6,0.1,5.8-1.7c0.7,1.1,1.9,3.3,2.6,4.5c-3-0.1-6.8-0.7-9.1-1.7c-1.5,1.7-4.4,3.8-7.4,4.1c-1.9,0.2-5.1-0.3-5.9-2.4
		c-0.4-1,0.1-2.1,0.6-2.9c1-1.2,2.5-1.7,3.9-1.9c2.4-0.3,4.8,0.5,6,0.7c0.6-0.6,1.2-1.5,1.7-2c-3.3,0.7-5.9-0.4-5.5-3.1l-2.2,0.7
		c-4.9,3-9.5,2.5-9.9-1.2c-2,1.7-4.8,3.2-6.5,3c-1.9-0.2-2.2-1.3-1.5-2.4l1.2-1.9l-3.4,0l-2.7,4.4l-4.1,0l1.3-2.2
		c-4.5,3.7-8.7,2.9-8.4-0.6c-3.5,3.2-6.3,5.2-7.6,2.3c-2.5,2.5-6.9,3-6.2-1.3l-3.2,1.8c-1.9,1.8-6.1,3.7-8.5,2.3l-3.6,6.4l-5.1,0.6
		l4.2-6.4c-2.1,1.2-3.7,1.8-4.6,1.7c-2-0.4-1.5-2.9,0.6-6.6c0.5-0.8,0-1.7-3-0.8l-4.7,9.4L38.1,146.2z M126.2,141.6
		c-1-0.1-2.8-0.3-4.3-0.2c-2,0.1-3.8,1.4-3.5,2.5c0.2,0.7,0.9,1.2,2.6,1.2c0.8,0,2-0.5,2.9-1.1C124.8,143.4,125.5,142.5,126.2,141.6
		 M159,135.8c-0.7-0.5-1.4-0.1-2.6,1.3c-0.8,0.9-2.3,3.1-1.6,3.5c0.6,0.4,1.9-0.1,3-1.3C158.7,138.4,159.9,136.4,159,135.8
		 M146.4,132.7c-0.6-0.6-1.9,0-3.3,1.1c-0.9,0.7-2.7,2.8-2,3.4c0.5,0.5,1.8,0.1,3.1-0.8C145.2,135.8,147.2,133.5,146.4,132.7
		 M132.5,130.4c-0.7-0.5-1.9,0.3-3.3,1.7c-0.8,0.8-2.4,3.1-1.7,3.6c0.6,0.4,1.9,0,3.5-1.6C131.9,133.2,133.5,131.1,132.5,130.4
		 M119.2,129.3c-0.8-0.4-2.2,0.6-3.4,2.1c-0.8,1-2.4,3.7-1.5,4.1c0.7,0.4,2.1-0.4,3.7-2.3C118.9,132.2,120.4,129.9,119.2,129.3
		 M82.1,129.6c-0.8-0.5-2.6,1-3.8,2.5c-0.8,1-2.4,3.3-1.6,3.8c0.7,0.4,2.4-0.8,3.8-2.3C81.5,132.6,83.3,130.3,82.1,129.6
		 M67.5,131.9c-1.2-0.7-2.8,1.4-3.6,2.5c-0.7,1.1-2,3.6-1.1,4c0.7,0.3,2.4-0.9,3.7-2.6C67.2,134.7,68.6,132.5,67.5,131.9"/>
</g>
</svg>
