<?xml version="1.0" encoding="utf-8"?>
<!-- Generator: Adobe Illustrator 21.1.0, SVG Export Plug-In . SVG Version: 6.00 Build 0)  -->
<svg version="1.1" id="Layer_1" xmlns="http://www.w3.org/2000/svg" xmlns:xlink="http://www.w3.org/1999/xlink" x="0px" y="0px"
	 viewBox="0 0 200 200" style="enable-background:new 0 0 200 200;" xml:space="preserve">
<style type="text/css">
	.st0{fill:#9EA39E;}
	.st1{fill:#FFFFFF;}
	.st2{fill:#2552A2;}
	.st3{fill:#008837;}
</style>
<g id="_x3C_Group_x3E_">
	<path id="path5" d="M59.5,5.7c-7.3,3.6-12.5,6.3-18.6,0.1l-1-1L16.3,35.1l1.6,0.6c8,3,13.6,10.4,13.6,18c0,7.4-5.3,14.4-13.5,18
		L17.2,72v0.8c0,43.3,14.3,100.5,82.4,127l0.4,0.2l0.4-0.2c68.1-26.6,82.4-83.7,82.4-127V72l-0.7-0.3c-8.2-3.6-13.5-10.6-13.5-18
		c0-7.6,5.6-15,13.6-18l1.6-0.6L160.1,4.8l-1,1c-6,6.1-11.3,3.5-18.6-0.1C135.2,3,129.2,0,121.6,0l0,0c-8.7,0-18.7,4.4-21.6,5.8
		C97.1,4.4,87.2,0,78.4,0C70.8,0,64.8,3,59.5,5.7L59.5,5.7z"/>
	<path id="path7" class="st0" d="M159.7,9.2c-7,5.8-13.6,2.6-20.5-0.9c-5-2.5-10.8-5.4-17.6-5.4c-8.8,0-19.6,5.1-20.8,5.7L100,9.1
		v38.3H33.3c0.2,0.5,0.3,0.9,0.4,1.4h132.6c0.1-0.5,0.3-0.9,0.4-1.4c2-5.7,6.4-10.6,12.3-13.5C176.7,31,161.6,11.6,159.7,9.2
		L159.7,9.2z"/>
	<path id="path9" class="st1" d="M21,33.9c5.9,2.8,10.3,7.8,12.3,13.5H100V32.5H22.1C21.6,33.1,21.2,33.6,21,33.9L21,33.9z"/>
	<path id="path11" class="st2" d="M100,9.1l-0.8-0.4C98,8.1,87.2,3,78.4,3c-6.9,0-12.6,2.8-17.6,5.4c-6.9,3.5-13.5,6.7-20.5,0.9
		c-0.7,0.9-3.4,4.3-6.5,8.3H100V9.1L100,9.1z"/>
	<path id="path13" class="st1" d="M33.7,48.8c0.4,1.6,0.7,3.3,0.7,4.9c0,8.2-5.6,16-14.2,20.2c0,0.1,0,0.2,0,0.3h159.6
		c0-0.1,0-0.2,0-0.3c-8.6-4.2-14.2-12-14.2-20.2c0-1.7,0.2-3.3,0.7-4.9H33.7L33.7,48.8z"/>
	<path id="path15" class="st0" d="M20.2,75.6h159.6c0-0.5,0-0.9,0-1.4H20.2C20.2,74.7,20.2,75.1,20.2,75.6L20.2,75.6z"/>
	<path id="path17" class="st1" d="M100,75.6v121.2c5-2,9.6-4.1,14-6.4V75.6H100L100,75.6z"/>
	<path id="path19" class="st1" d="M141.8,75.6V171c5.4-5,10-10.3,14-15.9V75.6H141.8L141.8,75.6z"/>
	<path id="path21" class="st1" d="M20.2,75.6c0.3,17.2,2.9,36.3,10.3,54.7V75.6H20.2L20.2,75.6z"/>
	<path id="path23" class="st1" d="M58.3,75.6V171c4.2,4,8.9,7.7,14,11.2V75.6H58.3L58.3,75.6z"/>
	<path id="path25" class="st3" d="M114,75.6v114.8c10.9-5.6,20-12.2,27.7-19.4V75.6H114L114,75.6z"/>
	<path id="path27" class="st3" d="M155.8,75.6v79.5c18.2-25,23.6-54.4,24-79.5H155.8L155.8,75.6z"/>
	<path id="path29" class="st3" d="M30.5,75.6v54.7c5.8,14.5,14.7,28.5,27.7,40.6V75.6H30.5L30.5,75.6z"/>
	<path id="path31" class="st3" d="M100,75.6H72.3v106.6c8,5.5,17.2,10.4,27.7,14.6V75.6L100,75.6z"/>
	<path id="path33" d="M145.6,53.5c0.4,0.4,1,1.1,1.6,2c0.7,1,0.9,1.6,0.9,2c0,0.2-0.4,1.1-1,2.8c-0.6,1.7-1.7,4.5-3.2,8.6
		c0,0,0,0.1-0.2,0.5c-0.1,0.3-0.3,0.5-0.5,0.5c-1.1-0.4-1.7-1.6-2-3.6c0-0.6,0.1-1.3,0.2-2c0.1-0.7,0.3-1.4,0.5-2.1
		c0.2-0.7,0.3-1.2,0.4-1.6l-1.1-2.6l2.3-4.7L145.6,53.5L145.6,53.5z"/>
	<path id="path35" d="M139.3,59.7c-0.1-0.7-0.3-1.1-0.3-1.3c-0.3-0.5-0.7-1.1-1.3-1.6c-0.5-0.5-1.2-1.1-1.9-1.6
		c-0.8-0.5-1.6-1-2.5-1.4c-0.2-0.1-0.4-0.2-0.6-0.3c-0.8-0.3-1.5-0.7-2.3-0.9l-0.3,0.5l-2.4-0.8l-0.8,1.6l1.8,2.3
		c-0.5,1.6-0.8,3.2-1.1,4.9c-0.3,1.8-0.5,3.7-0.7,5.8l-1.1,0.5l3.1,2.8c1.7-0.5,3-0.9,3.9-1.3c0.8-0.4,1.6-0.7,2.1-1.1
		c0.5-0.4,1.2-1.1,2.2-1.9c1.8-1.7,2.6-3.2,2.6-4.5C139.5,60.9,139.5,60.4,139.3,59.7L139.3,59.7L139.3,59.7z M135.5,59.8
		c-0.4,0.9-0.9,1.8-1.6,2.6c-0.4,0.5-0.8,0.9-1.3,1.3c-0.4,0.3-0.7,0.6-1.1,0.8c-0.8,0.6-1.5,0.9-2,1.1c1.4-2.6,2.3-5.5,2.6-8.8
		l0.4,0.1l3,0.8c0.1,0.2,0.1,0.5,0.1,0.9C135.7,58.9,135.6,59.3,135.5,59.8L135.5,59.8z"/>
	<path id="path37" d="M123.8,60.4h-1v-3c0-1.5-0.1-2.8-0.3-3.6l-0.5-0.8l-0.8,0.1l-0.5-0.4h-0.4c-0.9,0-1.9,0.2-3,0.7c0,0,0,0,0,0
		l0,0.1l0.2,0.7c-0.1,0-0.1,0.1-0.2,0.1c-0.3,0.1-0.6,0.4-1.1,0.8c-0.7,0.5-1.1,0.8-1.1,0.9c0,0-0.1,0.6-0.5,1.7
		c-0.3,1.1-0.5,1.7-0.5,1.7c0,0.1-0.1,0.5-0.4,1.3c-0.2,0.7-0.3,1.2-0.4,1.4c0,0-0.3,0.1-0.7,0.2c-0.4,0.1-0.8,0.1-1.1,0.2
		c0,0,0,0.1-0.1,0.3c0,0.1,0.1,0.3,0.1,0.4c0,0.2,0.1,0.3,0.2,0.5c0.1,0.2,0.2,0.3,0.2,0.3c0,0.1,0.1,0.2,0.3,0.4
		c0.1,0.2,0.3,0.4,0.3,0.5c0.1,0.1,0.1,0.3,0.1,0.3c0,0.4,0,0.7-0.1,1c-0.1,0.3-0.2,0.8-0.3,1.3c-0.2,0.5-0.3,0.9-0.3,1.3
		c-0.1,0.3-0.1,0.6-0.1,0.9c0,0,0.1,0,0.2,0c0.1,0,0.2,0,0.3,0c0.1,0,0.2,0,0.3-0.1c0-0.1,0.1-0.1,0.1-0.3c0-0.1,0-0.2,0.1-0.3
		c0-0.1,0.1-0.1,0.2-0.1c0,0,0,0,0,0c0.2,0,0.5-0.7,0.8-1.8c0-0.1,0.1-0.4,0.3-0.9c0.2-0.5,0.3-0.8,0.3-0.9l2.8-0.4l1.5-0.2
		c0.1,0.6,0.2,1.3,0.2,2c0,0.4,0,1.1-0.1,2c0.2,0,0.4-0.1,0.6-0.2c0.3-0.1,0.4-0.1,0.4-0.1l-0.1-0.9l2.2-1.3l0.3-2.1
		c0.1-0.3,0.4-0.5,0.6-0.8c0.3-0.3,0.5-0.4,0.6-0.5c0.3-1.1,0.4-1.9,0.4-2.2C124,60.5,123.9,60.4,123.8,60.4L123.8,60.4L123.8,60.4z
		 M117.3,61.4l-1.4,0.2c0.1-0.5,0.4-1.3,0.9-2.6c0.2-0.5,0.3-0.9,0.5-1.2c0.2-0.5,0.4-0.8,0.6-0.9c0.1,0.1,0.1,0.5,0.3,1
		c0.1,0.5,0.2,1.1,0.3,1.7c0.1,0.6,0.2,1.1,0.3,1.5L117.3,61.4L117.3,61.4z"/>
	<path id="path39" d="M45.2,52.6l0.4,0.6c0,0,0.4-0.1,1.2-0.2c0.8-0.1,1.3-0.2,1.5-0.2c1.1,0,2,0.1,2.7,0.4c0.7,0.2,1.1,0.8,1.1,1.6
		c0,0.5,0,0.9-0.1,1.1c-0.1,0.3-0.3,0.9-0.8,1.8c-0.4,0.9-0.8,1.4-0.9,1.4L49.9,59c0-0.1,0-0.3,0-0.5c0-0.2,0-0.4,0-0.5
		c0-0.5-0.1-1-0.2-1.4c0,0-0.1,0-0.1,0c0,0-0.1,0-0.3,0c-1.5,0-2.6,0.3-3.4,0.7c-0.1,0.1-0.2,0.4-0.4,1c-0.1,0.5-0.2,0.9-0.2,1
		c-0.1,0.3-0.2,0.6-0.3,1c-0.1,0.4-0.2,0.6-0.2,0.7c0,0,0.1,0.1,0.1,0.1c0,0,0.1,0.1,0.2,0.1c0.1,0,0.1,0,0.2,0
		c0.3,0,0.7-0.1,1.3-0.1c0.6-0.1,1-0.1,1.1-0.1c1,0,1.8,0.1,2.2,0.2c0.4,0.1,0.7,0.3,0.8,0.4c0.1,0.1,0.1,0.2,0.1,0.3
		c0,0.1,0,0.1,0,0.2l-0.3,1.2c-0.5,0-1.2,0.1-2.3,0.3c-1.1,0.2-2,0.5-3,0.8c-0.9,0.3-1.6,0.7-2,1l-1.4,5.3l-0.6-0.1l-0.1-1.8
		l-0.5,0.4l-0.7-0.2c0.1-0.9,0.2-1.9,0.3-2.9c0.1-1,0.2-2,0.3-2.8c0.1-0.8,0.1-1.6,0.1-2.4c0-0.7,0.1-2,0.2-3.8l-0.4-0.5v-1.4
		l1.6-0.6c0.5-0.6,1.3-1.2,2.6-1.9L45.2,52.6L45.2,52.6z"/>
	<path id="path41" d="M65.6,56l-0.8,2.3c-0.4,0.1-1,0.2-1.8,0.4c-0.8,0.2-1.6,0.5-2.3,0.9c-1.1,0.5-2.2,1.2-3.2,1.9
		c-1.1,0.7-1.6,1.4-1.8,2.1c0.8,0.5,2.2,0.8,4.4,0.9c0.3,0,0.8-0.1,1.6-0.2c0.9-0.1,1.5-0.2,2.1-0.3c0.5-0.1,1.1-0.2,1.6-0.3
		l-0.3,1.7c-0.2,0.2-0.6,0.5-1.1,0.7c-0.5,0.3-0.9,0.4-1.4,0.6l0.4,1.7c-0.3,0.3-0.8,0.5-1.6,0.7c-0.8,0.2-1.7,0.4-2.6,0.5h-0.8
		c-0.7,0-1.4,0-2.1-0.1c-0.7-0.1-1.1-0.2-1.2-0.3c-0.4-0.7-0.7-1.4-0.9-2.1c-0.2-0.7-0.3-1.3-0.3-1.9c0-0.6,0-1-0.1-1.2
		c0-0.8,0.1-1.4,0.1-1.8c0.1-0.4,0.2-0.7,0.3-0.8c0.1-0.2,0.3-0.4,0.5-0.7c0.7-0.7,1.3-1.3,1.8-1.8c0.5-0.4,0.8-0.8,1.1-1
		c0.3-0.2,0.4-0.3,0.4-0.3l-1.7,0.3c0.1-0.3,0.8-0.7,1.9-1.4c1.2-0.6,2.4-1.2,3.8-1.6c1.4-0.5,2.5-0.7,3.4-0.7c0.2,0,0.4,0,0.7,0.1
		L65.6,56L65.6,56z"/>
	<path id="path43" d="M81.1,55.1l-0.3,0.2c-1.4,3.4-2.2,6.3-2.5,8.7c0.1,1.2,0.1,1.9,0.3,2.1c0.3,0.1,0.7,0.2,1.2,0.3
		c0.4,0,0.8-0.1,1.1-0.1c0.4-0.1,0.9-0.3,1.5-0.6c0.6-0.3,0.9-0.4,1-0.4l-0.2,2c-2.4,1.6-4.6,2.4-6.5,2.6c-0.7,0-1.3-0.2-1.6-0.7
		c-0.4-0.4-0.6-0.9-0.7-1.5c-0.1-0.5-0.2-1.3-0.3-2.2c0-0.2,0.1-0.4,0.1-0.5l-0.4-0.5c0.3-0.6,0.6-1.3,1-2.2c0.3-0.8,0.7-1.8,1-2.7
		c0.3-0.9,0.6-1.8,0.9-2.5c0.3-0.7,0.5-1.4,0.8-2.1l1.3-0.4l0-0.3c1.1-0.3,2-0.4,2.6-0.5L81.1,55.1L81.1,55.1z"/>
	<path id="path45" d="M96.5,54.5l-0.9,2h-0.8c-1.7,0-3.2,0.2-4.5,0.7l-0.9,2.7c0.6-0.1,1.1-0.1,1.5-0.1c0.5,0,1.2,0.1,2.2,0.2l2,1.1
		l-0.4,1.6c-1,0-2.1,0.3-3.2,0.6c-1.1,0.4-2,0.8-2.8,1.2c-0.7,0.5-1.1,0.9-1.1,1.2c0.1,0.3,0.1,0.5,0.2,0.7c0.1,0.1,0.2,0.3,0.3,0.3
		c0.1,0.1,0.4,0.1,0.7,0.2c0.1,0,0.3,0,0.4,0c0.8,0,1.8-0.3,3-0.8c0.5-0.2,0.8-0.3,1.1-0.5c0.3-0.1,0.4-0.2,0.4-0.2l0.2,0.3
		c-0.9,0.8-1.5,1.7-1.9,2.5c0,0.1-0.4,0.3-0.9,0.5c-0.6,0.2-1.2,0.4-1.8,0.6c-0.7,0.1-1.2,0.2-1.5,0.2c-1,0-2-0.5-3-1.5l-0.1,0.4
		h-0.5c-0.1-0.3-0.2-0.9-0.2-1.9c0-1.5,0.1-2.9,0.4-4.3c0.2-1.4,0.5-2.8,1-4.2c0.4-1.4,0.9-2.7,1.5-4.1c0,0,0.4-0.1,0.9-0.4
		c0.6-0.2,1.2-0.4,1.9-0.5c0.7-0.2,1.3-0.3,1.7-0.3H93c0.9,0,2.1,0.1,3.4,0.3L96.5,54.5L96.5,54.5z"/>
	<path id="path47" d="M100.5,53.5c0.3,2.3,0.7,3.9,0.9,4.8c0.2,0.9,0.6,2.2,1.1,3.8c1.2-1.3,2.4-2.6,3.6-4c1.2-1.4,2.3-2.8,3.2-4.2
		l1.3,1.9c-0.3,0.4-0.4,0.9-0.6,1.6c-0.2,0.6-0.3,1.2-0.3,1.9c0,0.5,0.1,1,0.2,1.4c0,0-0.4,0.5-1,1.4c-0.6,0.9-1.1,1.6-1.5,2
		c-0.4,0.5-0.8,1-1.2,1.4c-0.4,0.4-0.9,0.9-1.5,1.5c-0.6,0.5-1.1,1.1-1.6,1.5c-0.5,0.5-1,0.9-1.4,1.3c-0.5,0.4-0.8,0.7-0.9,0.8
		c-0.7-0.5-1.2-1-1.5-1.4c-0.3-0.4-0.7-0.9-1.1-1.6l1-1.2c-0.5-2.8-0.8-5.1-0.9-6.9c0.1-0.9,0.1-1.7,0.2-2.5L98,57l0.7-3L100.5,53.5
		L100.5,53.5z"/>
	<path id="path49" d="M161.1,60.4h-1v-3c0-1.5-0.1-2.8-0.3-3.6l-0.5-0.8l-0.8,0.1l-0.5-0.4h-0.4c-0.9,0-1.9,0.2-3,0.7c0,0,0,0,0,0
		l0,0.1l0.2,0.7c-0.1,0-0.1,0.1-0.2,0.1c-0.3,0.1-0.6,0.4-1.1,0.8c-0.7,0.5-1.1,0.8-1.1,0.9c0,0-0.1,0.6-0.5,1.7
		c-0.3,1.1-0.5,1.7-0.5,1.7c0,0.1-0.1,0.5-0.4,1.3c-0.2,0.7-0.3,1.2-0.4,1.4c0,0-0.3,0.1-0.7,0.2c-0.4,0.1-0.8,0.1-1.1,0.2
		c0,0,0,0.1-0.1,0.3c0,0.1,0.1,0.3,0.1,0.4c0,0.2,0.1,0.3,0.2,0.5c0.1,0.2,0.2,0.3,0.2,0.3c0,0.1,0.1,0.2,0.3,0.4
		c0.1,0.2,0.3,0.4,0.3,0.5c0.1,0.1,0.1,0.3,0.1,0.3c0,0.4,0,0.7-0.1,1c-0.1,0.3-0.2,0.8-0.3,1.3c-0.2,0.5-0.3,0.9-0.3,1.3
		c-0.1,0.3-0.1,0.6-0.1,0.9c0,0,0.1,0,0.2,0c0.1,0,0.2,0,0.3,0c0.1,0,0.2,0,0.3-0.1c0-0.1,0.1-0.1,0.1-0.3c0-0.1,0-0.2,0.1-0.3
		c0-0.1,0.1-0.1,0.2-0.1c0,0,0,0,0,0c0.2,0,0.5-0.7,0.8-1.8c0-0.1,0.1-0.4,0.3-0.9c0.2-0.5,0.3-0.8,0.3-0.9l2.8-0.4l1.5-0.2
		c0.1,0.6,0.2,1.3,0.2,2c0,0.4,0,1.1-0.1,2c0.2,0,0.4-0.1,0.6-0.2c0.3-0.1,0.4-0.1,0.4-0.1l-0.1-0.9l2.2-1.3l0.3-2.1
		c0.1-0.3,0.4-0.5,0.6-0.8c0.3-0.3,0.5-0.4,0.6-0.5c0.3-1.1,0.4-1.9,0.4-2.2C161.3,60.5,161.2,60.4,161.1,60.4L161.1,60.4
		L161.1,60.4z M154.6,61.4l-1.4,0.2c0.1-0.5,0.4-1.3,0.9-2.6c0.2-0.5,0.3-0.9,0.5-1.2c0.2-0.5,0.4-0.8,0.6-0.9
		c0.1,0.1,0.1,0.5,0.3,1c0.1,0.5,0.2,1.1,0.3,1.7c0.1,0.6,0.2,1.1,0.3,1.5L154.6,61.4L154.6,61.4z"/>
	<path id="path51" d="M135,45.3h-2v-7.6c-0.7,0.7-1.6,1.2-2.6,1.5v-1.8c0.5-0.2,1.1-0.5,1.7-1c0.6-0.5,1-1,1.3-1.7h1.6L135,45.3
		L135,45.3z"/>
	<path id="path53" d="M141.7,39.8c-0.3,0.3-0.6,0.5-1,0.5c-0.4,0-0.7-0.2-1-0.5c-0.3-0.3-0.4-0.8-0.4-1.5c0-0.7,0.1-1.2,0.4-1.5
		c0.2-0.3,0.6-0.4,0.9-0.4c0.4,0,0.7,0.2,1,0.5c0.3,0.4,0.5,0.9,0.5,1.5C142.1,39,142,39.5,141.7,39.8L141.7,39.8L141.7,39.8z
		 M138.5,44.8c0.5,0.4,1.2,0.7,2,0.7c1.1,0,2.1-0.4,2.8-1.3c0.7-0.9,1.1-2.3,1.1-4.2c0-1.9-0.3-3.3-1-4.1c-0.7-0.8-1.6-1.2-2.6-1.2
		c-1,0-1.8,0.3-2.4,1c-0.6,0.7-1,1.5-1,2.6c0,1,0.3,1.9,0.9,2.5c0.6,0.6,1.3,1,2.2,1c0.8,0,1.4-0.3,1.9-0.9c-0.1,1.2-0.3,2-0.6,2.4
		c-0.3,0.4-0.7,0.6-1.1,0.6c-0.3,0-0.6-0.1-0.8-0.3c-0.2-0.2-0.3-0.5-0.4-0.9l-2,0.2C137.7,43.7,138,44.4,138.5,44.8L138.5,44.8z"/>
	<path id="path55" d="M149.4,39.8c-0.3,0.3-0.6,0.5-1,0.5c-0.4,0-0.7-0.2-1-0.5c-0.3-0.3-0.4-0.8-0.4-1.5c0-0.7,0.1-1.2,0.4-1.5
		c0.2-0.3,0.6-0.4,0.9-0.4c0.4,0,0.7,0.2,1,0.5c0.3,0.4,0.5,0.9,0.5,1.5C149.8,39,149.7,39.5,149.4,39.8L149.4,39.8L149.4,39.8z
		 M146.2,44.8c0.5,0.4,1.2,0.7,2,0.7c1.1,0,2.1-0.4,2.8-1.3c0.7-0.9,1.1-2.3,1.1-4.2c0-1.9-0.3-3.3-1-4.1c-0.7-0.8-1.6-1.2-2.6-1.2
		c-1,0-1.8,0.3-2.4,1c-0.6,0.7-1,1.5-1,2.6c0,1,0.3,1.9,0.9,2.5c0.6,0.6,1.3,1,2.2,1c0.8,0,1.4-0.3,1.9-0.9c-0.1,1.2-0.3,2-0.6,2.4
		c-0.3,0.4-0.7,0.6-1.1,0.6c-0.3,0-0.6-0.1-0.8-0.3c-0.2-0.2-0.3-0.5-0.4-0.9l-2,0.2C145.4,43.7,145.7,44.4,146.2,44.8L146.2,44.8z"
		/>
	<path id="path57" d="M157.1,39.8c-0.3,0.3-0.6,0.5-1,0.5c-0.4,0-0.7-0.2-1-0.5c-0.3-0.3-0.4-0.8-0.4-1.5c0-0.7,0.1-1.2,0.4-1.5
		c0.2-0.3,0.6-0.4,0.9-0.4c0.4,0,0.7,0.2,1,0.5c0.3,0.4,0.5,0.9,0.5,1.5C157.5,39,157.4,39.5,157.1,39.8L157.1,39.8L157.1,39.8z
		 M153.9,44.8c0.5,0.4,1.2,0.7,2,0.7c1.1,0,2.1-0.4,2.8-1.3c0.7-0.9,1.1-2.3,1.1-4.2c0-1.9-0.3-3.3-1-4.1c-0.7-0.8-1.6-1.2-2.6-1.2
		c-1,0-1.8,0.3-2.4,1c-0.6,0.7-1,1.5-1,2.6c0,1,0.3,1.9,0.9,2.5c0.6,0.6,1.3,1,2.2,1c0.8,0,1.4-0.3,1.9-0.9c-0.1,1.2-0.3,2-0.6,2.4
		c-0.3,0.4-0.7,0.6-1.1,0.6c-0.3,0-0.6-0.1-0.8-0.3c-0.2-0.2-0.3-0.5-0.4-0.9l-2,0.2C153.1,43.7,153.4,44.4,153.9,44.8L153.9,44.8z"
		/>
	<path id="path59" d="M103.4,24.6c0,7,5.7,12.8,12.8,12.8c7,0,12.8-5.7,12.8-12.8c0-7-5.7-12.8-12.8-12.8
		C109.1,11.8,103.4,17.5,103.4,24.6L103.4,24.6z"/>
	<path id="path61" class="st1" d="M119.6,14.9l-3,1.1v4.3l3.5,2.6l4.1-1.3l0.1-3.2C123.1,16.7,121.5,15.5,119.6,14.9L119.6,14.9z"/>
	<path id="path63" class="st1" d="M108,18.3l0.1,3.2l4.1,1.3l3.5-2.6V16l-3-1.1C110.8,15.5,109.2,16.7,108,18.3L108,18.3z"/>
	<path id="path65" class="st1" d="M105.9,24.8c0.1,2.1,0.7,4,1.8,5.6l3.1,0.9l2.5-3.5l-1.4-4.2l-4.1-1.3L105.9,24.8L105.9,24.8z"/>
	<path id="path67" class="st1" d="M106.9,30.6c-1-1.6-1.7-3.5-1.8-5.5l-0.9-0.4c0,2.5,0.8,4.8,2.2,6.8L106.9,30.6L106.9,30.6z"/>
	<path id="path69" class="st1" d="M119,27.8l2.5,3.5l3.1-0.9c1.1-1.6,1.8-3.5,1.8-5.6l-2-2.5l-4.1,1.3L119,27.8L119,27.8z"/>
	<path id="path71" class="st1" d="M107.5,17.6c1.2-1.5,2.8-2.7,4.7-3.4l0.1-1c-2.3,0.8-4.3,2.3-5.7,4.2L107.5,17.6L107.5,17.6z"/>
	<path id="path73" class="st1" d="M120.1,14.2c1.9,0.7,3.5,1.9,4.7,3.4l0.9-0.2c-1.4-1.9-3.4-3.4-5.7-4.2L120.1,14.2L120.1,14.2z"/>
	<path id="path75" class="st1" d="M116.1,34.9c1,0,2-0.2,2.9-0.4l1.8-2.7l-2.5-3.5H114l-2.5,3.5l1.8,2.7
		C114.1,34.7,115.1,34.9,116.1,34.9L116.1,34.9z"/>
	<path id="path77" class="st1" d="M119,35.3c-0.9,0.3-1.9,0.4-2.9,0.4c-1,0-2-0.1-2.9-0.4l-0.7,0.7c1.1,0.4,2.3,0.5,3.6,0.5
		c1.2,0,2.4-0.2,3.6-0.5L119,35.3L119,35.3z"/>
	<path id="path79" class="st1" d="M127.2,25.1c-0.1,2-0.7,3.9-1.8,5.5l0.5,0.8c1.4-1.9,2.2-4.2,2.2-6.8L127.2,25.1L127.2,25.1z"/>
</g>
</svg>
