<?xml version="1.0" encoding="utf-8"?>
<!-- Generator: Adobe Illustrator 21.1.0, SVG Export Plug-In . SVG Version: 6.00 Build 0)  -->
<svg version="1.1"
	 id="Ñëîé_1" inkscape:version="0.48.2 r9819" sodipodi:docname="atletik_bilbao.svg" xmlns:cc="http://creativecommons.org/ns#" xmlns:dc="http://purl.org/dc/elements/1.1/" xmlns:inkscape="http://www.inkscape.org/namespaces/inkscape" xmlns:rdf="http://www.w3.org/1999/02/22-rdf-syntax-ns#" xmlns:sodipodi="http://sodipodi.sourceforge.net/DTD/sodipodi-0.dtd" xmlns:svg="http://www.w3.org/2000/svg"
	 xmlns="http://www.w3.org/2000/svg" xmlns:xlink="http://www.w3.org/1999/xlink" x="0px" y="0px" viewBox="0 0 200 200"
	 style="enable-background:new 0 0 200 200;" xml:space="preserve">
<style type="text/css">
	.st0{fill:#FDDD04;}
	.st1{fill:#154281;}
	.st2{fill:#FFFFFF;}
</style>
<g>
	<path id="path3132_1_" class="st0" d="M144.8,4.6l50.6,50.6v89.6l-50.6,50.6H55.2L4.6,144.8V55.2L55.2,4.6H144.8 M146.7,0H53.3
		L0,53.3v93.4L53.3,200h93.4l53.3-53.3V53.3L146.7,0L146.7,0z"/>
	<path id="path3136" inkscape:connector-curvature="0" class="st1" d="M55.5,4.8L4.8,55.6v88.9l50.7,50.7h43.8V4.8L55.5,4.8
		L55.5,4.8z"/>
	<polygon class="st2" points="195.2,144.4 195.2,55.6 144.4,4.8 97.3,4.8 97.3,195.2 144.4,195.2 	"/>
	<path id="path3140_3_" inkscape:connector-curvature="0" class="st2" d="M4.8,86.8v57.7l17.5,17.5h155.4l17.5-17.5V86.8H4.8z"/>
	<path id="path3140_1_" class="st1" d="M195.2,86.8v57.7l-17.5,17.5H22.3L4.8,144.4V86.8H195.2 M196.4,85.5h-1.3H4.8H3.6v1.3v57.7
		v0.5l0.4,0.4l17.5,17.5l0.4,0.4h0.5h155.4h0.5l0.4-0.4l17.5-17.5l0.4-0.4v-0.5V86.8V85.5L196.4,85.5z"/>
	<path id="path3164_1_" class="st1" d="M144.4,4.8l50.8,50.7v88.9l-50.8,50.7H55.5L4.8,144.4V55.6L55.5,4.8H144.4 M144.4,3.6H55.5
		l-0.9,0.4L3.9,54.7l-0.4,0.9v88.9l0.4,0.9l50.7,50.7l0.9,0.4h88.9l0.9-0.4l50.8-50.7l0.4-0.9V55.6l-0.4-0.9L145.3,3.9L144.4,3.6
		L144.4,3.6z"/>
	<rect x="4.5" y="86.7" class="st1" width="190.3" height="0.2"/>
	<path id="path3176" inkscape:connector-curvature="0" class="st1" d="M28.3,148h5.5l-0.5,1.5H30l-0.6,1.8h3.2l-0.5,1.5H29l-1,3.3
		h-2.2L28.3,148z"/>
	<path id="path3188" inkscape:connector-curvature="0" class="st1" d="M41.2,151.8c-0.8,2.6-1.6,4.6-4.6,4.6c-1.8,0-3.2-0.7-3.1-2.6
		c0-0.7,0.2-1.2,0.3-1.5l1.3-4.2h2.2l-1.4,4.6c-0.1,0.4-0.2,0.7-0.2,0.9c0,0.7,0.3,1.2,1,1.2c1.4,0,1.8-1.7,2.2-3l1.1-3.7h2.2
		L41.2,151.8z"/>
	<path id="path3192" inkscape:connector-curvature="0" class="st1" d="M48.8,149.8c-0.4-0.2-1-0.4-1.8-0.4c-0.9,0-1.6,0.1-1.6,0.8
		c-0.1,1.2,3.1,0.7,2.9,3.2c-0.2,2.3-2.3,2.8-4.3,2.8c-0.8,0-1.8-0.2-2.5-0.4l0.7-1.7c0.4,0.3,1.3,0.5,2,0.5c0.7,0,1.8-0.1,1.8-1
		c0.1-1.3-3.1-0.8-2.9-3.1c0.2-2.1,2.1-2.8,3.9-2.8c1,0,2,0.1,2.5,0.4L48.8,149.8z"/>
	<path id="path3196" inkscape:connector-curvature="0" class="st1" d="M56.2,149.8c-0.4-0.2-1-0.4-1.8-0.4c-0.9,0-1.6,0.1-1.6,0.8
		c-0.1,1.2,3.1,0.7,2.9,3.2c-0.2,2.3-2.3,2.8-4.3,2.8c-0.8,0-1.8-0.2-2.5-0.4l0.7-1.7c0.4,0.3,1.3,0.5,2,0.5c0.7,0,1.8-0.1,1.8-1
		c0.1-1.3-3.1-0.8-2.9-3.1c0.2-2.1,2.1-2.8,3.9-2.8c1,0,2,0.1,2.5,0.4L56.2,149.8z"/>
	<path id="path3200" inkscape:connector-curvature="0" class="st1" d="M60.1,151.2h0.8c0.9,0,1.5-0.4,1.5-0.9c0-0.7-0.5-0.8-1.3-0.8
		h-0.5L60.1,151.2z M59.1,154.6h0.6c1.1,0,1.9-0.3,2-1.1c0-0.7-0.5-0.8-1.4-0.8h-0.5L59.1,154.6z M58.9,148h3.6
		c0.8,0,2.3,0.3,2.2,1.9c-0.1,1.1-1,1.9-2.3,2.1v0c0.9,0.1,1.5,0.7,1.5,1.6c-0.2,1.8-1.7,2.5-3.6,2.6l-3.8,0L58.9,148z"/>
	<path id="path3204" inkscape:connector-curvature="0" class="st1" d="M70.5,149.7L70.5,149.7l-2,3.2h2.1L70.5,149.7z M69.5,148h2.8
		l0.6,8.2h-2.2l-0.1-1.8h-3.2l-1.1,1.8h-2.4C63.9,156.2,69.5,148,69.5,148z"/>
	<path id="path3208" inkscape:connector-curvature="0" class="st1" d="M76.4,148h2.2l-1.9,6.6h3.4l-0.5,1.6H74L76.4,148z"/>
	<path id="path3212" inkscape:connector-curvature="0" class="st1" d="M83.2,148h2.2l-2,6.6h3.4l-0.5,1.6h-5.6L83.2,148z"/>
	<path id="path3216" inkscape:connector-curvature="0" class="st1" d="M100,150c-0.7-0.4-1.3-0.5-2-0.5c-2.2,0-3.2,1.5-3.3,3.1
		c-0.1,1.5,0.8,2.1,2,2.1c0.8,0,1.5-0.2,2.1-0.5l-0.4,1.8c-0.5,0.2-1.5,0.3-2.2,0.3c-2.6,0-4-1.5-3.8-3.8c0.3-2.7,2.3-4.7,5.4-4.7
		c1.6,0,2.4,0.3,2.9,0.4L100,150z"/>
	<path id="path3220" inkscape:connector-curvature="0" class="st1" d="M102,148h2.2l-2,6.6h3.4l-0.5,1.6h-5.6L102,148z"/>
	<path id="path3224" inkscape:connector-curvature="0" class="st1" d="M114.8,151.8c-0.8,2.6-1.6,4.6-4.6,4.6
		c-1.8,0-3.2-0.7-3.1-2.6c0-0.7,0.2-1.2,0.3-1.5l1.3-4.2h2.2l-1.4,4.6c-0.1,0.4-0.2,0.7-0.2,0.9c0,0.7,0.3,1.2,1,1.2
		c1.4,0,1.8-1.7,2.2-3l1.1-3.7h2.2L114.8,151.8z"/>
	<path id="path3228" inkscape:connector-curvature="0" class="st1" d="M118.8,151.2h0.8c0.9,0,1.5-0.4,1.5-0.9
		c0-0.7-0.5-0.8-1.3-0.8h-0.6L118.8,151.2z M117.8,154.6h0.6c1.1,0,1.9-0.3,2-1.1c0.1-0.7-0.5-0.8-1.4-0.8h-0.5L117.8,154.6z
		 M117.6,148h3.6c0.8,0,2.3,0.3,2.2,1.9c-0.1,1.1-1,1.9-2.3,2.1v0c0.9,0.1,1.5,0.7,1.5,1.6c-0.2,1.8-1.7,2.5-3.6,2.6l-3.8,0
		C115.1,156.2,117.6,148,117.6,148z"/>
	<path id="path3232" inkscape:connector-curvature="0" class="st1" d="M129.5,148h2.2l-1.9,6.6h3.4l-0.5,1.6h-5.7L129.5,148z"/>
	<path id="path3236" inkscape:connector-curvature="0" class="st1" d="M142.3,151.8c-0.8,2.6-1.6,4.6-4.6,4.6
		c-1.8,0-3.2-0.7-3.1-2.6c0-0.7,0.2-1.2,0.3-1.5l1.3-4.2h2.2l-1.4,4.6c-0.1,0.4-0.2,0.7-0.2,0.9c0,0.7,0.3,1.2,1,1.2
		c1.4,0,1.8-1.7,2.2-3l1.1-3.7h2.2L142.3,151.8z"/>
	<path id="path3240" inkscape:connector-curvature="0" class="st1" d="M144.8,148h6.4l-0.5,1.8l-5.2,4.8h3.8l-0.5,1.6h-6.5l0.5-1.8
		l5.1-4.8h-3.6L144.8,148z"/>
	<path id="path3244" inkscape:connector-curvature="0" class="st1" d="M152.6,148h5.8l-0.5,1.5h-3.6l-0.5,1.7h3.4l-0.5,1.5h-3.4
		l-0.5,1.9h3.8l-0.5,1.5h-5.9L152.6,148z"/>
	<path id="path3248" inkscape:connector-curvature="0" class="st1" d="M161.2,151.4h0.8c1,0,1.7-0.3,1.8-1c0-0.6-0.3-0.8-0.9-0.8h-1
		L161.2,151.4z M160.1,148h2.6c1.6,0,3.4,0,3.3,2.1c-0.1,1.5-1.3,2-2.6,2.1v0c0.6,0,0.8,0.9,0.8,1.5l0.4,2.5h-2.2l-0.3-2.1
		c-0.1-1.1-0.2-1.2-1.2-1.2h-0.3l-1,3.3h-2.2C157.6,156.2,160.1,148,160.1,148z"/>
	<path id="path3252" inkscape:connector-curvature="0" class="st1" d="M168.2,148h2.8l1.2,5.7h0l1.7-5.7h2.1l-2.5,8.2h-2.7l-1.2-5.7
		h0l-1.6,5.7h-2.1L168.2,148z"/>
	<path id="path3256" inkscape:connector-curvature="0" class="st0" d="M31.8,144.4h16.6l5.2-18.9h23.9l2.4-8.8H55.7l3.1-10.2h25.1
		l2.3-8.8H44.9L31.8,144.4z"/>
	<path id="path3260" inkscape:connector-curvature="0" class="st0" d="M135.1,97.6c0,0-3.3-0.1-15.2-0.1
		c-23.2,0-31.2,10.4-34.8,22.8c-2.8,9.8,0.9,24,26.7,24h10.2l2.8-9.2h-7.5c-13.9,0-18.6-3.6-15.5-14.5c3.6-12.5,10.7-14.2,22.3-14.2
		h8.7L135.1,97.6z"/>
	<path id="path3264" inkscape:connector-curvature="0" class="st2" d="M29.6,140.9h16.6l5.2-18.9h23.9l2.4-8.9H53.4l3.1-10.2h25.1
		l2.3-8.8H42.7L29.6,140.9z"/>
	<path id="path3268" inkscape:connector-curvature="0" class="st2" d="M132.2,94.1c0,0-3.3-0.1-15.2-0.1
		c-23.2,0-31.2,10.4-34.8,22.8c-2.8,9.8,0.9,24,26.7,24h10.2l2.8-9.2h-7.5c-13.9,0-18.6-3.7-15.5-14.5c3.6-12.5,10.7-14.2,22.3-14.2
		h8.6L132.2,94.1z"/>
	<path id="path3272" inkscape:connector-curvature="0" class="st2" d="M124.8,140.9h47.5l2.5-9.2h-30.8l10.2-37.5h-16.7L124.8,140.9
		z"/>
	<path id="path3276" inkscape:connector-curvature="0" class="st1" d="M28.7,139.1h16.4l5.1-18.6h23.6l2.3-8.7H52.3l3.1-10h24.8
		l2.3-8.7H41.6L28.7,139.1z"/>
	<path id="path3280" inkscape:connector-curvature="0" class="st1" d="M130.8,93c0,0-3.3-0.1-15-0.1c-22.9,0-30.8,10.3-34.4,22.5
		c-2.8,9.7,0.9,23.7,26.3,23.7h10.1l2.8-9.1h-7.4c-13.7,0-18.3-3.6-15.3-14.2c3.5-12.3,10.5-14,22-14h8.5L130.8,93z"/>
	<path id="path3284" inkscape:connector-curvature="0" class="st0" d="M128.7,144.4h47.5l2.5-10.2H148l10.2-37.5h-16.7l-12.8,46.7
		L128.7,144.4L128.7,144.4L128.7,144.4z"/>
	<path id="path3288" inkscape:connector-curvature="0" class="st2" d="M125.8,140.9h47.5l2.5-9.2h-30.8l10.3-37.5h-16.7L125.8,140.9
		z"/>
	<path id="path3292" inkscape:connector-curvature="0" class="st1" d="M125.1,139.1H172l2.5-9.1h-30.4l10.1-37h-16.5L125.1,139.1z"
		/>
	<path id="path3296" inkscape:connector-curvature="0" class="st1" d="M104.3,79.8c0,0-5.3,0.6-6.4,0.5C96.5,80,93,79.5,92.2,78
		c-1.6,1.3-5.6-2-6.8-3.1c0.4,0.5,0.9,1,1.4,1.4c2.5,2.9,5.9,4.5,10.3,5C98.5,81.6,103.6,80.5,104.3,79.8"/>
	<path class="st1" d="M97.6,81.3c-0.2,0-0.4,0-0.5,0c-2.2-0.3-4.1-0.8-5.9-1.6c-1.7-0.8-3.2-2-4.5-3.4c-0.5-0.4-1-0.9-1.4-1.4l0,0
		c1.9,1.6,5.3,4.2,6.8,3.1l0,0l0,0c0.7,1.4,3.7,1.9,5.2,2.2c0.2,0,0.3,0,0.4,0.1c0.4,0.1,1.8,0,6.1-0.4c0.2,0,0.2,0,0.2,0h0l0,0
		C103.6,80.4,99.5,81.3,97.6,81.3z M85.5,75c0.4,0.5,0.9,1,1.3,1.3c2.5,2.9,5.9,4.5,10.3,5c1.3,0.3,6.3-0.8,7.1-1.5c0,0-0.1,0-0.2,0
		c-4.3,0.5-5.7,0.5-6.1,0.4c-0.1,0-0.3,0-0.4-0.1c-1.6-0.3-4.5-0.8-5.3-2.2C90.8,79.1,87.4,76.6,85.5,75z"/>
	<path id="path3304" inkscape:connector-curvature="0" class="st2" d="M81.4,66.3c-1.7-9.6,4.7-18.8,14.3-20.4s18.8,4.7,20.4,14.3
		c1.7,9.6-4.7,18.8-14.3,20.4C92.2,82.3,83.1,75.9,81.4,66.3"/>
	<path class="st1" d="M98.7,80.9c-3.6,0-7.1-1.1-10.2-3.2c-3.9-2.7-6.4-6.8-7.3-11.5c-0.8-4.7,0.3-9.4,2.9-13.2
		c2.7-3.9,6.8-6.4,11.5-7.3c9.7-1.7,18.8,4.8,20.5,14.4c0.8,4.6-0.2,9.4-2.9,13.2c-2.7,3.9-6.8,6.5-11.5,7.3
		C100.8,80.8,99.8,80.9,98.7,80.9z M98.8,45.6c-1,0-2,0.1-3.1,0.3c-4.6,0.8-8.7,3.4-11.4,7.2c-2.7,3.8-3.7,8.5-2.9,13.2
		c0.8,4.6,3.4,8.7,7.2,11.4c3.8,2.7,8.5,3.7,13.2,2.9c4.6-0.8,8.7-3.4,11.4-7.2c2.7-3.8,3.7-8.5,2.9-13.1
		C114.6,51.6,107.2,45.6,98.8,45.6z"/>
	<path id="path3312" inkscape:connector-curvature="0" class="st1" d="M82.7,67c-0.7-2.3-0.8-6.1-0.3-8.4c-0.2-0.3-0.6,0.8-0.8,0.5
		c-1.7,4.6-0.1,10,2.3,13.6C83.3,71.1,82.2,68.7,82.7,67"/>
	<path class="st1" d="M84,72.7c-1.3-1.9-2.2-4.2-2.7-6.5c-0.5-2.6-0.4-5.1,0.4-7.1v0v0c0,0,0,0,0,0l0,0c0.1,0,0.2-0.1,0.3-0.3
		c0.1-0.2,0.3-0.3,0.3-0.3l0,0c0,0,0.1,0,0.1,0l0,0l0,0c-0.6,2.3-0.5,6.1,0.3,8.4l0,0l0,0c-0.5,1.7,0.5,3.9,1.2,5.5L84,72.7L84,72.7
		z M81.7,59.1c-1.7,4.8,0.1,10.2,2.2,13.4v0c-0.7-1.6-1.7-3.8-1.2-5.5c-0.7-2.3-0.8-6.1-0.3-8.4l0,0l0,0c-0.1,0-0.2,0.2-0.3,0.3
		c-0.1,0.1-0.2,0.3-0.3,0.3l0,0C81.7,59.1,81.7,59.1,81.7,59.1z"/>
	<path id="path3320" inkscape:connector-curvature="0" class="st1" d="M101.2,75.1c-1.1-3.1-0.7-6.7,0.6-9.7
		c-4.1,0.3-8.2-1.5-11-4.4c-0.5,2.8-2.4,5.5-4,7.7c1.7,2.8,3.8,5.1,5.6,7.7C94.1,77.4,99.1,75.4,101.2,75.1"/>
	<path class="st1" d="M93.6,76.7c-0.5,0-0.9-0.1-1.2-0.3l0,0c-0.6-0.8-1.3-1.6-1.9-2.4c-1.3-1.7-2.6-3.4-3.8-5.3l0,0l0,0
		c1.5-2,3.5-4.8,4-7.7v0l0,0c2.7,2.8,6.5,4.4,10.2,4.4c0.3,0,0.5,0,0.8,0h0v0c-1.4,3.3-1.7,6.9-0.6,9.7l0,0h0
		c-0.7,0.1-1.6,0.3-2.7,0.6C96.9,76.2,95,76.7,93.6,76.7z M92.4,76.5c1.1,0.6,3.8-0.1,6.1-0.7c1-0.3,2-0.5,2.6-0.6
		c-1-2.8-0.8-6.4,0.6-9.7c-0.3,0-0.5,0-0.8,0c-1.7,0-3.5-0.4-5.2-1c-1.9-0.8-3.6-1.9-5-3.3c-0.5,2.9-2.5,5.6-4,7.7
		c1.1,1.9,2.5,3.6,3.8,5.2C91.2,74.8,91.9,75.6,92.4,76.5z"/>
	<path id="path3328" inkscape:connector-curvature="0" class="st1" d="M114.4,66.2c0.3-1.5,2.1-3,1.9-5.4c-1.1-3-2.3-6.6-4.4-8.5
		c-1.5,0.8-3.6,0.3-5.1,0c1.7,2.3,2,5.3,2.3,8.1C110.2,62.5,113.2,64,114.4,66.2"/>
	<path class="st1" d="M114.4,66.3L114.4,66.3c-0.6-1.2-1.7-2.1-2.8-3.1c-1-0.9-2-1.8-2.5-2.7l0,0c-0.2-2.4-0.5-5.7-2.3-8.1l0,0h0
		c0.3,0,0.5,0.1,0.8,0.1c1.5,0.2,3.1,0.5,4.3-0.2l0,0l0,0c2,1.8,3.2,5,4.2,7.8c0.1,0.2,0.2,0.5,0.3,0.7l0,0c0.1,1.5-0.5,2.8-1.2,3.8
		C114.8,65.1,114.5,65.7,114.4,66.3L114.4,66.3z M109.1,60.4c0.5,1,1.5,1.8,2.5,2.7c1,0.9,2.2,1.9,2.8,3c0.1-0.5,0.4-1,0.8-1.6
		c0.6-1,1.3-2.2,1.2-3.8c-0.1-0.2-0.2-0.4-0.3-0.7c-1-2.8-2.2-6.1-4.2-7.8c-1.3,0.6-2.9,0.4-4.3,0.2c-0.3,0-0.5-0.1-0.7-0.1
		C108.6,54.8,108.9,58,109.1,60.4z"/>
	<path id="path3336" inkscape:connector-curvature="0" class="st1" d="M99.6,49.7c-0.5-0.5-2.3-2-1.7-2.8c-1.3,0,4.9-1.1,3.6-1.1
		c-4.8-1-11.9,1.1-13.9,4.2c-1.3,1-1.8,2.2-2.5,3.3c1.3-0.2,5-0.2,5.6,1.4C92.7,51.6,96,50.1,99.6,49.7"/>
	<path class="st1" d="M90.7,54.8L90.7,54.8c-0.3-0.9-1.5-1.3-2.5-1.4c-1.3-0.2-2.5-0.1-3.1,0h0v0c0.1-0.1,0.2-0.3,0.3-0.4
		c0.6-1,1.2-2,2.3-2.9c1-1.5,3.1-2.8,5.9-3.7c2.8-0.8,5.7-1,8-0.5l0,0c0.1,0,0.2,0,0.2,0c0,0.1-0.5,0.2-2,0.5
		c-0.9,0.2-1.9,0.5-2,0.5c0,0,0,0,0.2,0h0l0,0c-0.5,0.6,0.7,1.7,1.4,2.4c0.1,0.1,0.3,0.3,0.3,0.3l0,0h0C96.8,50,93,51.1,90.7,54.8
		L90.7,54.8z M86.5,53.3c0.5,0,1.1,0,1.8,0.1c1,0.2,2.2,0.5,2.5,1.3c2.3-3.7,6.1-4.8,8.9-5c-0.1-0.1-0.2-0.2-0.3-0.3
		c-0.7-0.7-1.8-1.8-1.4-2.4c-0.1,0-0.2,0-0.2,0c0-0.1,0.5-0.2,2-0.5c0.8-0.2,1.9-0.4,2-0.5c0,0,0,0-0.2,0c-2.3-0.5-5.2-0.3-8,0.5
		c-2.8,0.8-4.9,2.2-5.9,3.7l0,0C86.5,51,86,52,85.4,53.1c-0.1,0.1-0.2,0.3-0.2,0.4C85.5,53.3,85.9,53.3,86.5,53.3z"/>
	<path id="path3344" inkscape:connector-curvature="0" class="st1" d="M106.8,79c2.3-1.5,4.9-3.3,6.9-6.5c0-0.1,0.7-1.8,0.8-1.8
		c-0.7,0.7-1.7,2.2-2.5,1.8c-1.2,2.2-4.3,3.2-6.5,3.8c0.4,1.4-1.8,3.3-2.4,3.8c0.2,0.2,2.3-0.9,2.5-1C106.1,79,105.1,79.9,106.8,79"
		/>
	<path class="st1" d="M103.1,80C103.1,80,103,80,103.1,80L103.1,80L103.1,80c0.3-0.2,1-0.8,1.5-1.5c0.5-0.6,1-1.5,0.8-2.2l0,0l0,0
		c2.4-0.6,5.3-1.6,6.5-3.8l0,0l0,0c0.7,0.3,1.5-0.6,2.1-1.4c0.1-0.2,0.3-0.3,0.4-0.4h0c0,0-0.2,0.5-0.4,0.9
		c-0.2,0.5-0.4,0.9-0.4,0.9c-1.9,3.1-4.4,4.9-6.9,6.5l0,0c-0.8,0.4-1,0.5-1.1,0.4c0,0,0-0.1,0-0.2c0-0.1,0-0.1,0-0.2
		c0,0-0.1,0-0.1,0c-0.1,0-0.4,0.2-0.8,0.3C104,79.7,103.3,80,103.1,80z M103.1,80c0.2,0,1.1-0.4,1.8-0.7c0.4-0.2,0.7-0.3,0.8-0.3
		c0.1,0,0.1,0,0.2,0.1c0,0,0,0.1,0,0.2c0,0,0,0.1,0,0.1c0.1,0,0.4-0.1,1-0.4c2.4-1.5,5-3.3,6.9-6.5c0,0,0.2-0.5,0.4-0.9
		c0.1-0.3,0.3-0.7,0.3-0.8c-0.1,0.1-0.2,0.2-0.3,0.3c-0.7,0.8-1.5,1.7-2.1,1.4c-1.1,2.1-4.1,3.1-6.5,3.8
		C105.8,77.5,103.8,79.4,103.1,80z"/>
	<path class="st1" d="M106.2,76.8c-1.4-0.6-4.5-1.6-5.9-2l0-0.1c1.3,0.4,4.5,1.4,5.9,2L106.2,76.8z M87.5,69c-1.5,0-4.6-1.9-5.6-2.6
		l0.1-0.1c1.2,0.9,4.6,2.8,5.8,2.6V69C87.6,69,87.5,69,87.5,69z M100.6,66.5L100.6,66.5c2.3-1.8,6.8-5,9.4-6.2l0,0.1
		C107.4,61.6,103,64.7,100.6,66.5z M90.8,63.6c-0.1-2.3-0.3-8.6-0.2-10.7h0.1c-0.1,2.1,0,8.5,0.2,10.7H90.8z"/>
	<path class="st1" d="M111.5,74.7l-0.1-0.1c0.8-1.5,4.7-10.2,4.3-13.9h0.1C116.2,64.4,112.3,73.1,111.5,74.7z"/>
	<path class="st1" d="M92.4,78.9c0-0.3,0-1.5,0.1-2.4c0-0.5,0.1-1,0.1-1.1h0.1c0,0.2,0,0.6-0.1,1.1c-0.1,0.9-0.2,2.1-0.1,2.4H92.4z
		 M111.4,54.2c-2.3-1-13.2-4.8-15.7-5.5l0-0.1c2.5,0.7,13.3,4.5,15.7,5.5L111.4,54.2z"/>
	<path id="path3364" inkscape:connector-curvature="0" class="st1" d="M145,23.5c0.3,0.7,0.5,1.4,0.7,1.7c1.5,1.1,2.1,2.9,2.9,4.9
		c2.5,4.3,5.1,7,4.6,8.8c-1.1,2.8-5.9,6-7.8,7.3c-0.2,0.3-0.2,10.1,2.7,13c1.1,0.9,2.4,2,4.1,1.6c0.8-0.2,1.2-0.8,1.3-1.5
		c-0.2-2-2.4-3.3-4-4.6c-2-1.3-3.2-3.1-2.8-5.4c0.2-1.2,0.8-2.1,1.4-3.2l9.8-6.9c1.7-1.5,2.5-4.5,1.3-7.4c0.3-0.1,0.5,0.1,0.7,0.3
		c3.1,3,4.2,7.9,2.5,11.7c-0.8,2.3-3.8,6.9-3.2,9.6c0.6,2.4-3.1,3.8-2,6.1c0.5,1.5,0.3,3.8-3.3,5.1c-0.1,0.1-0.2,0.1-0.2,0.2
		c2.3,1.7,5.5,4.1,6.9,6.4c0.6,1.3,1.9,6.8,1.9,6.8c-2.3,2.1-6.7,6.5-6.8,7.8c-0.1,0.1-10.3,0.3-10.3,0.3c-0.4-0.4-0.9-1.1-0.8-1.6
		c0.2-2.3,3.6-3.3,5.7-4c1.1-0.4,2.6-1.1,2.6-2.3c0-0.9-0.7-1.7-1.6-2c-1.3-0.4-9.1-4.9-10.8-7c-0.2-0.3-0.3-0.4-0.3-0.4L130,74.9
		l-6.4,6.6c-1.3,0.4-5.6,1.3-5.6,1.3c-1.7,0.5-1.9,1.6-1.9,2.6c-0.2,0.2-9.4,0.4-9.5,0.3c-2.5-1.6-0.8-3.6-0.4-3.9
		c1.5-1.4,2.9-2,7.6-2.7c1-0.2,3.5-0.9,4.5-2c1.5-1.4,1.1-3.3,1.2-5.1c0.1-1,0-2,0.4-2.8l0,0c0.4-1,1.5-2,2.5-2.6l5.4-2.6l4.3-2
		c1.4-0.7,2.7-1.8,2.8-3.2c-0.1-1-1-1.8-2-2.3c-3.3-1.7-6.5-3-10.2-3.9c-1.4-0.4-10-2-10-2c-2.7-0.3-6.3-1.2-7.9,0.6
		c-0.3,0.1-1.5-0.7-1.5-0.8c-0.1-0.4,0-1.5,0.3-1.9c1.8-2.6,3.3-3,6.6-3.3c1.1-0.1,0.8,0,1.9,0.1c0.2-0.3-0.4-1.6,1.2-2.9
		c-2.1-1.8-3.6-3.8-5.3-5.8c-0.9-1-2.2-1.3-3.6-1.1l-1,0.3c-0.2-0.1-1.2-4.1,1.4-5c1.9-0.7,4.6-1,6.4,0.1c1.9,1.2,2.7,2.8,4.4,4.2
		c1.3,1.3,3.1,2.5,4.8,3.4c0.7,0.6,1.3-0.2,1.9-0.3c1.8-0.7,4.1-0.5,6-0.4c0.5,0.1,6.4,2,11.5-1.5l-0.1,0c-1.3,0.4-2.9,1.1-4.2,0.4
		c-0.8-0.6-0.5-1.6-0.2-2.3c-0.1-0.3,0.2-0.9-0.4-1c-1,0-2.1-0.5-2.5-1.4c-0.4-0.7-0.3-1.5-0.3-2.4c-0.3-0.5-0.6-1-0.4-1.5
		c0.9-1,2.4-1,3.5-1.7c1.7-1.1,4.7-2.8,6.9-3.1c0.5-0.2,1.4,0.1,2,0C144.2,23.2,144.9,23.3,145,23.5"/>
	<path class="st1" d="M146.1,85.8c-0.3,0-0.5,0-0.5,0l0,0c-0.4-0.4-0.9-1.1-0.8-1.6c0-0.5,0.3-1,0.7-1.5c0.3-0.4,0.8-0.8,1.5-1.1
		c1.1-0.6,2.5-1.1,3.6-1.4c1.8-0.6,2.6-1.4,2.6-2.3c0-0.9-0.6-1.7-1.6-2c-1.3-0.4-9.1-4.9-10.8-7c-0.2-0.2-0.3-0.3-0.3-0.4L130,74.9
		l-6.4,6.6c-1.3,0.4-5.5,1.3-5.6,1.3c-1.7,0.5-1.9,1.6-1.9,2.6l0,0c-0.1,0.1-3.2,0.2-4.1,0.3c-2.2,0-4.4,0.1-5.1,0
		c-0.3,0-0.3,0-0.3,0c-0.8-0.5-1.3-1.1-1.3-1.8c-0.1-1,0.6-1.8,0.9-2c1.5-1.4,3-2,7.6-2.7c1-0.2,3.5-0.9,4.5-2
		c1.2-1.1,1.2-2.6,1.2-4c0-0.4,0-0.7,0-1.1c0-0.3,0-0.5,0-0.8c0-0.7,0-1.5,0.4-2.1l0,0l0,0c0.4-1,1.5-2,2.5-2.6l5.4-2.6l4.3-2
		c1-0.5,2.6-1.5,2.8-3.2c-0.1-0.9-0.8-1.6-2-2.3c-3.6-1.8-6.8-3.1-10.2-3.9c-1.4-0.4-9.9-2-10-2c-0.5,0-0.9-0.1-1.4-0.2
		c-2.4-0.3-5.1-0.7-6.5,0.8c-0.2,0.1-0.6-0.2-0.8-0.3c-0.3-0.2-0.7-0.4-0.7-0.5c-0.1-0.4,0-1.5,0.3-1.9c1.8-2.6,3.3-3,6.6-3.3
		c0.7,0,0.8,0,1.2,0c0.2,0,0.4,0,0.7,0.1c0-0.1,0-0.2,0-0.4c0-0.5,0-1.5,1.1-2.5c-1.7-1.5-3-3-4.3-4.6c-0.3-0.4-0.6-0.8-1-1.2
		c-0.8-0.9-2-1.3-3.6-1.1l-1,0.3l0,0c-0.1,0-0.4-1.1-0.3-2.3c0-1,0.4-2.3,1.7-2.7c0.8-0.3,2-0.6,3.2-0.6c0.1,0,0.2,0,0.2,0
		c1.2,0,2.1,0.3,2.9,0.8c1.1,0.7,1.8,1.5,2.6,2.4c0.5,0.6,1.1,1.3,1.8,1.8c1.3,1.3,3,2.5,4.8,3.4c0.5,0.4,0.9,0.2,1.3,0
		c0.2-0.1,0.4-0.2,0.6-0.3c1.8-0.7,4.1-0.5,6-0.4h0c0,0,0,0,0.1,0c0.9,0.3,2.4,0.6,4.2,0.6c0.2,0,0.4,0,0.7,0c-0.2,0-0.5,0-0.7,0h0
		c-1,0-2.5-0.1-4.1-0.6c0,0,0,0-0.1,0h0c-1.9-0.1-4.2-0.3-6,0.4c-0.2,0-0.4,0.2-0.6,0.3c-0.4,0.2-0.8,0.5-1.3,0
		c-1.8-0.9-3.6-2.1-4.8-3.4c-0.7-0.6-1.3-1.2-1.8-1.8c-0.8-0.9-1.5-1.7-2.5-2.4c-2.1-1.4-5.1-0.5-6.4-0.1c-1.3,0.5-1.6,1.8-1.7,2.7
		c0,0.7,0,1.3,0.1,1.5c0.1,0.4,0.2,0.7,0.2,0.7l1-0.3c0.8-0.1,1.4,0,2,0.2c0.6,0.2,1.2,0.5,1.6,1c0.3,0.4,0.7,0.8,1,1.2
		c1.3,1.6,2.6,3.1,4.3,4.6l0,0l0,0c-1.2,1-1.1,2-1.1,2.5c0,0.2,0,0.3,0,0.4l0,0l0,0c-0.3,0-0.5,0-0.7-0.1c-0.3,0-0.5,0-1.2,0
		c-3.3,0.3-4.9,0.7-6.6,3.3c-0.2,0.4-0.4,1.5-0.3,1.9c0,0.1,1.1,0.8,1.5,0.8c0,0,0,0,0.1,0c1.4-1.5,4.1-1.1,6.5-0.8
		c0.5,0.1,1,0.1,1.4,0.2c0.1,0,8.6,1.6,10,2c3.4,0.8,6.6,2,10.2,3.9c1.3,0.7,1.9,1.5,2,2.3c-0.2,1.7-1.8,2.8-2.8,3.2l-4.3,2
		l-5.4,2.6c-1,0.6-2.1,1.6-2.5,2.6l0,0l0,0c-0.3,0.6-0.3,1.4-0.4,2.1c0,0.3,0,0.5,0,0.8c0,0.4,0,0.7,0,1.1c0,0.7,0,1.5-0.1,2.1
		c-0.2,0.8-0.5,1.4-1,1.9c-1,1.1-3.5,1.9-4.5,2c-4.6,0.8-6.1,1.3-7.6,2.7c-0.3,0.2-1,1.1-0.9,2c0,0.7,0.5,1.3,1.3,1.8c0,0,0,0,0.3,0
		c1.6,0.1,9.1-0.1,9.2-0.3c0-0.5,0.1-1,0.3-1.5c0.3-0.5,0.8-0.9,1.6-1.1c0,0,4.3-0.9,5.6-1.3l6.4-6.6l10.3-6.6l0,0
		c0,0,0.1,0.1,0.3,0.4c1.7,2.1,9.5,6.6,10.8,7c1,0.3,1.7,1.2,1.6,2c0,0.9-0.9,1.7-2.6,2.3c-1,0.3-2.4,0.8-3.6,1.4
		c-1.3,0.8-2,1.6-2.1,2.6c0,0.5,0.4,1.3,0.8,1.6c0.1,0.1,10.2-0.2,10.3-0.3c0-0.7,1.4-2.3,2.5-3.6c1.3-1.4,2.9-3,4.2-4.2
		c0-0.1-1.3-5.6-1.9-6.8c-1.4-2.3-4.4-4.6-6.9-6.4c0,0,0-0.1,0.1-0.2c0,0,0,0,0.1-0.1c1.7-0.6,2.8-1.5,3.3-2.5c0.5-1,0.3-2,0.1-2.5
		c-0.5-1.1,0.2-2,0.9-3.1c0.7-0.9,1.4-1.8,1.1-3c-0.5-1.8,1-4.7,2-7c0.5-1,0.9-1.9,1.2-2.6c1.7-3.7,0.6-8.7-2.5-11.7l0,0
		c-0.2-0.1-0.4-0.3-0.6-0.2c0.5,1.4,0.7,2.9,0.4,4.3c-0.3,1.3-0.9,2.4-1.8,3.2l-9.9,7c-0.1,0.2-0.2,0.4-0.3,0.5
		c-0.5,0.9-1,1.7-1.1,2.6c-0.3,2.1,0.6,4,2.8,5.4c0.3,0.3,0.7,0.5,1,0.8c1.4,1,2.8,2.1,3,3.8c-0.1,0.6-0.5,1.3-1.3,1.5
		c-1.7,0.4-3-0.6-4.1-1.5l0,0c-1.5-1.5-2.2-4.9-2.5-7.4c-0.3-2.8-0.3-5.4-0.2-5.5c0.2-0.2,0.5-0.3,0.8-0.5c1.1-0.8,2.6-1.8,3.9-3
		c1.6-1.4,2.6-2.7,3.1-3.8c0.3-1.2-0.8-2.9-2.3-5.3c-0.7-1-1.5-2.2-2.3-3.5c-0.1-0.2-0.1-0.3-0.2-0.5c-0.7-1.8-1.3-3.4-2.7-4.4
		c-0.2-0.2-0.4-0.8-0.6-1.3c0-0.1-0.1-0.3-0.1-0.4c-0.1-0.2-0.7-0.3-1.1-0.4c-0.3,0-0.6,0-0.9,0c-0.4,0-0.8-0.1-1.1,0
		c-1.6,0.2-4,1.2-6.9,3.1c-0.4,0.3-1,0.4-1.5,0.6c-0.8,0.3-1.5,0.5-2,1.1c-0.2,0.5,0,1,0.4,1.5l0,0c0,0.1,0,0.2,0,0.2
		c0,0.8,0,1.5,0.3,2.1c0.4,0.8,1.4,1.4,2.5,1.4c0.4,0,0.4,0.4,0.4,0.7c0,0.1,0,0.2,0,0.3l0,0l0,0c-0.5,1-0.4,1.8,0.2,2.3
		c1.2,0.6,2.7,0.1,3.9-0.3c0.1,0,0.2-0.1,0.3-0.1l0,0l0.1,0l0,0c-1.1,0.8-2.4,1.4-3.7,1.7c-0.2,0-0.4,0.1-0.5,0.1
		c1.4-0.3,2.9-0.9,4.3-1.8l-0.1,0c-0.1,0-0.2,0.1-0.3,0.1c-1.2,0.4-2.7,0.9-3.9,0.3c-0.6-0.5-0.6-1.2-0.2-2.3c0-0.1,0-0.2,0-0.3
		c0-0.3,0-0.6-0.4-0.7c-0.5,0-1-0.1-1.5-0.4c-0.5-0.3-0.8-0.6-1-1c-0.3-0.6-0.3-1.4-0.3-2.2c0-0.1,0-0.2,0-0.2
		c-0.4-0.6-0.5-1.1-0.4-1.5c0.5-0.6,1.3-0.9,2.1-1.1c0.5-0.2,1-0.3,1.4-0.6c1.2-0.8,2.3-1.4,3.3-1.8c1.5-0.7,2.7-1.1,3.6-1.2
		c0.3-0.1,0.7,0,1.1,0c0.3,0,0.6,0.1,0.9,0c0.3,0,1,0.2,1.1,0.4l0,0c0,0.1,0.1,0.3,0.1,0.4c0.2,0.6,0.4,1.1,0.6,1.3
		c0.6,0.5,1.1,1.1,1.6,1.9c0.4,0.8,0.8,1.6,1.1,2.5c0,0.2,0.1,0.3,0.2,0.5c0.8,1.3,1.5,2.5,2.3,3.5c1.5,2.3,2.7,4.1,2.3,5.3
		c-0.4,1.1-1.5,2.3-3.1,3.8c-1.4,1.2-2.8,2.3-3.9,3c-0.3,0.2-0.5,0.4-0.8,0.5c-0.1,0.1-0.1,2.7,0.2,5.5c0.3,2.6,1,6,2.5,7.4l0,0
		c1,0.8,2,1.6,3.3,1.6c0.3,0,0.5,0,0.8-0.1c0.8-0.2,1.2-0.9,1.3-1.5c-0.1-1.6-1.6-2.7-3-3.8c-0.4-0.3-0.7-0.5-1-0.8
		c-1-0.7-1.8-1.4-2.3-2.3c-0.5-1-0.7-2-0.5-3.1c0.1-1,0.6-1.8,1.1-2.6c0.1-0.2,0.2-0.4,0.3-0.5l9.8-6.9c1.9-1.6,2.4-4.7,1.3-7.4l0,0
		l0,0c0,0,0.1,0,0.1,0c0.2,0,0.4,0.1,0.5,0.3l0,0c1.5,1.4,2.6,3.4,3.1,5.6c0.5,2.1,0.3,4.3-0.5,6.1c-0.3,0.7-0.7,1.6-1.2,2.6
		c-1.1,2.3-2.5,5.1-2,7c0.3,1.2-0.4,2.1-1.1,3c-0.8,1-1.5,1.9-0.9,3.1c0.2,0.5,0.4,1.5-0.1,2.5c-0.3,0.5-0.6,1-1.1,1.4
		c-0.5,0.5-1.3,0.8-2.2,1.2c0,0,0,0-0.1,0.1s-0.1,0.1-0.1,0.1c2.5,1.8,5.5,4.1,6.9,6.4c0.6,1.3,1.9,6.8,1.9,6.8l0,0l0,0
		c-1,0.9-2.7,2.5-4.2,4.2c-1.1,1.3-2.5,2.9-2.5,3.6l0,0c0,0-2.5,0.1-5,0.2C149,85.8,147.1,85.8,146.1,85.8z"/>
	<path id="path3372" inkscape:connector-curvature="0" class="st0" d="M144,23.9c0.9,1-0.9,1.5-0.6,2.3c0.8,2.1,0.5,4.6-1.1,6.4
		c-0.3,0.3-0.7,0.5-1.1,0.5c-0.7-0.1-0.6-0.8-1-1.3c-0.3-0.7-1.1-1.3-1.9-1.4c-1.2-0.1-2,0.6-2.7,1.4c-0.3,0.3-0.8,0.3-1.3,0.3
		c-0.4-0.1-0.7-0.5-0.9-0.8c-0.4-0.6-0.2-1.3-0.2-2c-0.2-0.3-0.3-0.6-0.6-0.9c0-0.1,0-0.3,0.1-0.4c0.4-0.3,0.9-0.3,1.3-0.5
		c2.3-1.2,4.5-2.4,7.4-2.4C142.3,24.9,142.7,23.7,144,23.9"/>
	<path class="st0" d="M141.2,33c-0.5-0.1-0.6-0.4-0.7-0.8c-0.1-0.2-0.1-0.3-0.3-0.5c-0.3-0.7-1.1-1.3-1.9-1.4c-0.1,0-0.2,0-0.3,0
		c-1.1,0-1.8,0.8-2.4,1.4c-0.4,0.3-0.9,0.3-1.3,0.3c-0.4-0.1-0.6-0.4-0.8-0.7c0,0,0-0.1-0.1-0.1c-0.3-0.4-0.3-1-0.2-1.4
		c0-0.2,0-0.4,0-0.5c-0.1-0.1-0.2-0.3-0.2-0.3c-0.1-0.2-0.2-0.4-0.4-0.5c0-0.1,0-0.2,0-0.3c0,0,0,0,0-0.1l0,0
		c0.3-0.2,0.5-0.3,0.8-0.3c0.2,0,0.3-0.1,0.5-0.2c0.1-0.1,0.3-0.1,0.4-0.2c1-0.5,2.1-1.1,3.3-1.5c1.2-0.5,2.4-0.7,3.6-0.7
		c0,0,0.1,0,0.1,0c0.3-0.1,0.5-0.3,0.8-0.5c0.4-0.4,0.8-0.8,1.5-0.8c0.1,0,0.2,0,0.3,0l0,0c0.5,0.5,0.2,1-0.2,1.4
		c-0.3,0.3-0.5,0.6-0.4,0.9c0.4,1,0.5,2.2,0.3,3.3c-0.2,1.2-0.7,2.2-1.5,3.1C142,32.7,141.6,33,141.2,33z M138.1,30.4
		c0.1,0,0.2,0,0.3,0c0.8,0.1,1.6,0.7,1.9,1.4c0.1,0.1,0.2,0.3,0.3,0.5c0.1,0.3,0.3,0.7,0.7,0.8c0.5,0,0.8-0.3,1.1-0.5
		c1.5-1.7,2-4.2,1.1-6.4c-0.1-0.3,0.2-0.6,0.4-0.9c0.4-0.4,0.8-0.8,0.2-1.4c-0.1,0-0.2,0-0.3,0c-0.7,0-1,0.4-1.5,0.8
		c-0.3,0.3-0.5,0.5-0.8,0.6c0,0-0.1,0-0.1,0c-2.7,0-4.8,1.1-6.9,2.2c-0.1,0.1-0.3,0.1-0.4,0.2c-0.2,0.1-0.3,0.1-0.5,0.2
		c-0.3,0.1-0.5,0.2-0.8,0.3c0,0,0,0,0,0.1c0,0.1-0.1,0.2,0,0.3c0.2,0.2,0.3,0.3,0.4,0.5c0.1,0.1,0.1,0.3,0.2,0.3l0,0
		c0,0.2,0,0.4,0,0.5c0,0.5-0.1,1,0.2,1.4c0,0,0,0,0.1,0.1c0.2,0.3,0.4,0.6,0.8,0.7c0.1,0,0.1,0,0.2,0c0.3,0,0.8-0.1,1-0.3
		C136.2,31.1,137,30.4,138.1,30.4z"/>
	<path class="st1" d="M140.3,27.1L140.3,27.1C140.3,27.1,140.3,27.1,140.3,27.1l-0.1-0.1c0,0-0.1,0-0.1-0.1c0,0,0,0,0,0
		c-0.5-0.3-1.3-0.4-1.8-0.4c-0.2,0-0.3,0-0.4,0c0,0-0.1,0-0.1,0l0,0l0,0c0,0.1,0,0.1,0.1,0.2c0.1,0.4,0.3,0.8,0.7,1c0,0,0.1,0,0.1,0
		s0,0,0.1,0l0,0c0.3,0,0.6-0.1,0.8-0.2c0.1,0,0.3-0.1,0.5-0.1c0.1,0,0.2,0,0.3-0.1C140.3,27.3,140.4,27.2,140.3,27.1z M139.9,27.6
		C139.8,27.6,139.8,27.6,139.9,27.6C139.8,27.6,139.9,27.6,139.9,27.6z"/>
	<path class="st0" d="M151,38.7C151.1,38.7,151.1,38.7,151,38.7c0.1-0.3,0.2-0.5,0.3-0.7l0,0l0,0c0,0-2.2-3-4.6-7.1
		c-0.2-0.3-0.4-0.8-0.6-1.3c-0.4-0.8-0.8-1.6-1-1.9l0,0c0,0,0,0-0.1-0.1c0,0,0,0,0,0l0,0l0,0h0c0,0,0,0,0,0l0,0c0,0,0,0-0.1,0l0,0
		l0,0c0.1,0.5,0.1,0.9,0.1,1.4l0,0c0,0.2,0,0.4,0,0.6c0,0,0,0.1,0,0.1c0,0.2,0,0.4-0.1,0.5c0,0,0,0.1,0,0.2c0,0.2-0.1,0.4-0.2,0.6
		c0,0,0,0.1,0,0.1c-0.1,0.2-0.2,0.5-0.3,0.7l0,0c-0.2,0.5-0.4,0.9-0.7,1.4c-1.4,2-3.1,3.8-4.8,5.3c-1,0.9-2.2,1.7-3.3,2.4
		c-1.2,0.8-2.5,1.6-3.6,2.6c-0.2-1,0.3-1.8,0.6-2.4c0.1-0.2,0.2-0.4,0.3-0.5c0-0.1,0.1-0.3,0.2-0.3c0,0,0,0,0-0.1l0,0l0,0
		c-1.8,0.6-3.2,0.2-4.7-0.3c-1.4-0.4-2.8-0.8-4.6-0.3c-0.3,0-0.6,0.1-1,0.2c-1,0.2-2.4,0.4-3.1,0.7h0c0,0-0.1,0-0.2,0.1l0,0
		c0.1,0,0.1,0,0.2,0c0.1,0,0.2,0,0.3,0c0.2,0,0.4,0,0.6,0c0,0,0.1,0,0.2,0c0.2,0,0.4,0,0.6,0c0,0,0.1,0,0.1,0c1.4,0.2,2.8,0.6,4.1,1
		v0.1c-0.8,0.3-2.3,0.4-3.3,0.4c-0.2,0-0.4,0-0.5,0c-0.1,0-0.2,0-0.3,0c-0.1,0-0.2,0-0.3,0c-0.1,0-0.3,0-0.4,0c-0.7,0-1.4,0-2.2,0.2
		c0,0-0.1,0-0.2,0c-0.2,0-0.3,0-0.5,0.1c-0.1,0-0.2,0-0.3,0.1c-0.1,0-0.2,0-0.3,0.1c-0.1,0-0.3,0.1-0.4,0.1c-0.1,0-0.2,0-0.3,0.1
		c-0.2,0-0.3,0.1-0.5,0.2c-0.1,0-0.2,0.1-0.3,0.1c-0.1,0-0.3,0.1-0.3,0.2c0,0-0.1,0-0.2,0.1l0,0l0,0c1.4,0.5,2.3,0.8,2.9,1.1
		c1.3,0.5,1.9,0.8,4.3,1.2c-0.1,0-1.2,0.3-2.7,0.5c-1.5,0.2-3.8,0.4-6.1,0.1l0,0l0,0c0.4,0.5,1,0.8,1.5,1.1l0.1,0
		c0.1,0,0.2,0.1,0.3,0.1c0,0,0.1,0,0.2,0.1c0.1,0,0.2,0.1,0.3,0.1c0.1,0,0.2,0,0.2,0.1c0.1,0,0.2,0.1,0.3,0.1c0.1,0,0.2,0,0.3,0.1
		c0.2,0,0.3,0.1,0.5,0.1c0.1,0,0.2,0,0.3,0c0.1,0,0.2,0,0.3,0c0.1,0,0.3,0,0.4,0c0.2,0,0.4,0,0.5,0c0.1,0,0.2,0,0.3,0
		c0.2,0,0.4,0,0.6,0c0.1,0,0.2,0,0.3,0c0.2,0,0.3,0,0.5,0c0,0,0.1,0,0.2,0c0.2,0,0.3,0,0.5,0c2.1-0.1,4.2-0.5,5.4-0.8
		c0.6-0.1,1-0.2,1.1-0.2c0,0,0,0,0,0c-2,1.3-4,2.2-4.8,2.2l0,0c0.4,0.1,1,0.1,1.6,0.1c0.1,0,0.3,0,0.5,0l0,0c0.2,0,0.4,0,0.6,0
		c0,0,0.1,0,0.2,0c0.2,0,0.4,0,0.6,0c0.1,0,0.3,0,0.5,0s0.3,0,0.5-0.1c0.1,0,0.3,0,0.4-0.1c0.1,0,0.2,0,0.3,0
		c1.8-0.3,4.2-1.1,5.5-2.7c-0.1,0.2-0.5,1-1.2,2c-0.8,1-2,2.3-3.7,3l0,0c0,0,0,0,0.1,0s0.1,0,0.2,0c0.1,0,0.3,0,0.4,0
		c0.1,0,0.3,0,0.3,0c0.1,0,0.2,0,0.3,0c0.2,0,0.3,0,0.5-0.1c0.1,0,0.2,0,0.3,0c0.2,0,0.4-0.1,0.6-0.1c0,0,0.1,0,0.2,0
		c0.2,0,0.5-0.1,0.7-0.2c0,0,0.1,0,0.2,0c0.2-0.1,0.5-0.2,0.7-0.3c0.1,0,0.2,0,0.3-0.1c0.2-0.1,0.4-0.2,0.6-0.3
		c0.1,0,0.2-0.1,0.3-0.1c0.2-0.1,0.3-0.2,0.5-0.3c0.1,0,0.2-0.1,0.3-0.2c0.1,0,0.2-0.1,0.3-0.1c0.1,0,0.1-0.1,0.2-0.1
		c0.2-0.1,0.3-0.2,0.5-0.3c0.1-0.1,0.2-0.1,0.3-0.2c0.2-0.1,0.3-0.3,0.5-0.4c0.1,0,0.2-0.1,0.2-0.2c0,0,0,0,0,0l0,0l0,0c0,0,0,0,0,0
		c0.1-0.1,0.2-0.2,0.3-0.3c0,0,0.1,0,0.1-0.1l0,0c0.1,0,0.1-0.1,0.2-0.2c0,0,0,0,0,0l0,0c0,0,0,0,0,0c0,0,0.1,0,0.1-0.1
		c0.1-0.1,0.1-0.1,0.2-0.2c0,0,0.1-0.1,0.1-0.1l0,0l0,0l0,0c0,0,0.1-0.1,0.1-0.1c0.8-0.9,1.4-1.8,1.6-2.8c0,0.2,0.4,2,0,4l0,0l0,0
		c0.5-0.3,1-0.6,1.3-0.9l0,0c0.2-0.1,0.3-0.3,0.5-0.4c0,0,0,0,0.1,0c0.1,0,0.1-0.1,0.2-0.2c0,0,0.1-0.1,0.1-0.1
		c0.1-0.1,0.2-0.2,0.3-0.3c0,0,0.1-0.1,0.2-0.2c0.1-0.1,0.2-0.2,0.3-0.3c0,0,0-0.1,0.1-0.1l0,0l0,0c0.1-0.1,0.1-0.2,0.2-0.3
		c0,0,0-0.1,0.1-0.2c0-0.1,0.1-0.2,0.1-0.3c0,0,0,0,0-0.1c0.2-0.4,1-0.8,2-1.4c1-0.6,2.3-1.4,3.5-2.3c0.1-0.1,0.2-0.1,0.2-0.2l0,0
		c0.8-0.7,1.4-1.4,1.8-2.1l0,0C150.9,38.9,151,38.8,151,38.7z M114.2,46c0.1,0,0.2,0,0.3,0C114.3,46,114.2,46,114.2,46z M115,46.1
		c0.1,0,0.2,0,0.2,0C115.2,46.1,115.1,46.1,115,46.1z M115.9,46.1c0.1,0,0.1,0,0.2,0C116,46.1,115.9,46.1,115.9,46.1z M116.7,46.1
		c0,0,0.1,0,0.1,0C116.8,46.1,116.8,46.1,116.7,46.1z M131.8,42.6c0,0,0,0.1,0,0.1C131.8,42.7,131.8,42.7,131.8,42.6z M131.8,43
		C131.8,43,131.8,43,131.8,43C131.8,43,131.8,43,131.8,43z M139.2,46.1C139.2,46.1,139.1,46.1,139.2,46.1
		C139.1,46.1,139.2,46.1,139.2,46.1z M138.9,46.4L138.9,46.4C138.9,46.4,138.9,46.4,138.9,46.4z M132,41.8L132,41.8L132,41.8z
		 M131.8,42.5C131.8,42.4,131.8,42.4,131.8,42.5C131.9,42.4,131.8,42.5,131.8,42.5z M131.9,42.1C131.9,42,131.9,42,131.9,42.1
		C132,42,131.9,42.1,131.9,42.1z M120.2,40.2c0,0,0.1,0,0.1,0C120.3,40.2,120.2,40.2,120.2,40.2z M121,40.3c0,0,0.1,0,0.1,0
		C121.1,40.3,121.1,40.3,121,40.3z M121.9,40.4C121.9,40.4,121.9,40.4,121.9,40.4C121.9,40.4,121.9,40.4,121.9,40.4z M122.6,40.5
		C122.6,40.5,122.6,40.5,122.6,40.5C122.6,40.5,122.6,40.5,122.6,40.5z M127.9,47.1L127.9,47.1L127.9,47.1z M138.4,47
		c0,0-0.1,0.1-0.1,0.1C138.4,47.1,138.4,47.1,138.4,47z M138.7,46.7C138.7,46.7,138.7,46.7,138.7,46.7
		C138.7,46.8,138.7,46.7,138.7,46.7z M143.5,44.8L143.5,44.8L143.5,44.8z"/>
	<path class="st0" d="M139.5,33c-0.1-0.1-0.2-0.3-0.3-0.4c-0.1-0.3-0.3-0.5-0.6-0.7l0,0c-0.1,0-0.2-0.1-0.3-0.2
		c-0.1-0.1-0.3-0.3-0.4-0.3l0,0c-0.5,0.1-0.9,0.3-1.3,0.6c-0.5,0.4-0.8,0.9-1,1.3l0,0l0,0c0.1,0.2,0.2,0.2,0.4,0.3
		c0.1,0,0.2,0.1,0.3,0.2c0.3,0.2,0.6,0.2,0.9,0.2c0,0,0.1,0,0.1,0h0c0,0,0.1,0,0.2,0l0,0c0.6-0.1,1.2-0.4,1.6-0.7
		c0.1,0,0.2-0.1,0.2-0.1l0,0L139.5,33L139.5,33L139.5,33z M138.6,31.7C138.6,31.8,138.6,31.8,138.6,31.7
		C138.6,31.8,138.6,31.8,138.6,31.7z M135.8,33.4C135.8,33.4,135.8,33.4,135.8,33.4C135.8,33.4,135.8,33.4,135.8,33.4z"/>
	<path class="st0" d="M118.9,39.1c-2-0.9-3.7-1.7-6-1.8c0.7-0.5,1.5-0.8,2.4-1l0,0v-0.1l0,0c-1-0.8-1.8-1.6-2.5-2.5
		c-0.3-0.3-0.5-0.6-0.8-0.8l0,0c0.2,0.6,0,1.1-0.2,1.7c-0.3,0.9-1.2,1.7-2,2l0,0l0,0c1.7,1.8,3.2,3.3,4.9,4.7l0,0l0,0
		C115.4,41.1,118.8,39.3,118.9,39.1L118.9,39.1L118.9,39.1z M110.7,37.5c-0.2-0.2-0.3-0.3-0.5-0.5C110.3,37.1,110.5,37.3,110.7,37.5
		z M114.2,35.2c0.1,0.1,0.2,0.2,0.3,0.3C114.3,35.4,114.2,35.3,114.2,35.2z M114.7,35.8c0.1,0.1,0.3,0.2,0.4,0.3
		C115,36,114.8,35.8,114.7,35.8z M113.5,34.6L113.5,34.6C113.5,34.6,113.5,34.6,113.5,34.6z M113.2,39.9c-0.3-0.3-0.5-0.5-0.8-0.8
		C112.6,39.4,112.9,39.6,113.2,39.9z M114.5,41.1c-0.3-0.3-0.6-0.5-0.8-0.7C113.9,40.6,114.2,40.8,114.5,41.1z M111.2,38
		c0.2,0.2,0.5,0.5,0.7,0.7C111.7,38.5,111.5,38.3,111.2,38z"/>
	<path class="st0" d="M161.1,35.9L161.1,35.9L161.1,35.9c-0.2,0.8-0.3,1.4-0.6,2.5c-0.2,0.7-0.8,1.5-2,2.5c-1,0.9-2.4,1.9-3.7,2.8
		c-1.7,1.2-3.4,2.5-4.6,3.7l0,0c-0.1,0.1-0.2,0.2-0.3,0.3c0,0,0,0,0,0c-0.1,0.1-0.2,0.2-0.3,0.3c0,0,0,0,0,0
		c-0.1,0.1-0.2,0.2-0.3,0.3c0,0,0,0,0,0c-0.3,0.5-0.5,0.9-0.5,1.3c-0.6,2.8,1.8,4.6,3.8,6.3l0,0l0,0c0,0,0-0.1,0-0.2
		c0.1-0.3,1.1-0.7,2.2-1c1.2-0.4,2.5-0.8,2.4-1.3c-0.4-1.3,0-2.5,0.5-3.8L161,44l0,0c0.5-1.2,0.9-2.6,0.9-4.1
		C162,38.4,161.7,37,161.1,35.9z M152.8,55.9L152.8,55.9C152.8,55.9,152.8,55.9,152.8,55.9z M153,55.8
		C152.9,55.8,152.9,55.8,153,55.8C152.9,55.8,152.9,55.8,153,55.8z M159.5,40C159.5,40,159.5,40,159.5,40
		C159.5,40,159.5,40,159.5,40z M159.8,39.7L159.8,39.7C159.8,39.6,159.8,39.6,159.8,39.7z M160.1,39.3L160.1,39.3
		C160.1,39.3,160.1,39.3,160.1,39.3z M160.3,39C160.3,39,160.3,39,160.3,39C160.3,39,160.3,39,160.3,39z M162,39.8
		C162,39.8,162,39.8,162,39.8C162,39.8,162,39.8,162,39.8z M161.9,40.2c0,0.1,0,0.1,0,0.2C161.9,40.3,161.9,40.3,161.9,40.2z
		 M161.9,40.7c0,0.1,0,0.2,0,0.3C161.9,40.8,161.9,40.8,161.9,40.7z M161.8,41.2c0,0.1,0,0.2,0,0.3
		C161.8,41.4,161.8,41.3,161.8,41.2z M161.8,41.7c0,0.1,0,0.2,0,0.3C161.7,41.9,161.8,41.8,161.8,41.7z M161.6,42.3
		c0,0.1,0,0.1,0,0.2C161.6,42.4,161.6,42.4,161.6,42.3z"/>
	<path class="st0" d="M158.9,73.2c-0.1-0.7-0.4-2.4-1-3c-0.3-0.2-0.7-0.6-1.3-1.1c-1.3-1.1-3.3-2.8-5.3-4.3c-1-0.7-1.8-1.3-2.5-1.7
		c-0.1,0-0.1-0.1-0.2-0.1c-0.2-0.1-0.3-0.2-0.4-0.3c-0.1,0-0.2-0.1-0.3-0.1c-0.1,0-0.2-0.1-0.3-0.1c-0.1,0-0.2-0.1-0.3-0.1
		c-0.1,0-0.2-0.1-0.3-0.1c-0.1,0-0.1,0-0.2,0c-0.1,0-0.1,0-0.2,0c0,0-0.1,0-0.2,0c0,0-0.1,0-0.1,0c0-0.1,0.8-1.1,1.7-1.3l0,0l0,0
		c-0.9-0.8-1.8-1.4-2.6-1.9c0,0,0,0-0.1,0c-0.1-0.1-0.3-0.2-0.4-0.3c-1.3-0.8-2.5-1.3-3.5-1.4c0.1-0.1,1-1,2-1.1l0,0l0,0
		c-1.4-2.5-5-5.2-5.6-5.3c0,0,0,0-0.1,0c-0.1,0.1-0.3,0.2-0.5,0.3l0,0c-0.1,0.1-0.3,0.1-0.4,0.2c0,0-0.1,0-0.1,0
		c-0.1,0.1-0.3,0.1-0.5,0.2c0,0,0,0-0.1,0c-2.3,0.9-5.2,1.1-9.1,0.7l0,0c2.6,0.9,4.8,1.8,6.5,2.8c0.2,0.1,0.4,0.2,0.5,0.3
		c0,0,0.1,0.1,0.2,0.1c0.3,0.2,0.5,0.3,0.7,0.5l0,0c0.2,0.1,0.4,0.3,0.5,0.4c0,0,0.1,0,0.1,0.1c0,0,0,0,0,0l0,0l0,0c0,0,0,0,0.1,0
		c0.1,0.1,0.3,0.2,0.4,0.3c0,0,0.1,0.1,0.1,0.1c0,0,0,0,0,0c0,0,0,0,0.1,0.1l0,0c0,0,0.1,0.1,0.1,0.1c0.1,0.1,0.2,0.2,0.3,0.3l0,0
		l0,0c0,0,0.1,0.1,0.1,0.1c0,0-0.1-0.1-0.1-0.1c0.1,0.1,0.1,0.1,0.2,0.2c0.1,0.1,0.2,0.2,0.3,0.3s0.2,0.2,0.2,0.3
		c0.1,0.1,0.1,0.2,0.2,0.3c0.1,0.1,0.2,0.2,0.2,0.3s0.1,0.1,0.1,0.2c0.1,0.1,0.1,0.2,0.2,0.3c1,1.7,1.4,3.3,1.8,4.7
		c0.4,1.3,0.8,2.6,1.5,3.7c0,0,0,0,0,0c0,0.1,0.1,0.2,0.2,0.3c0,0,0,0,0,0c0.3,0.4,0.6,0.7,0.9,1c0,0,0,0,0,0
		c0.1,0.1,0.2,0.2,0.3,0.3l0,0c0.2,0.2,0.4,0.3,0.7,0.5c1.3,0.6,2.8,0.9,4.2,1.2c0.5,0.1,1,0.2,1.5,0.3c2.1,0.3,4.7,4.1,5.4,5.9
		c0.3,0.7-0.1,1.3-0.5,1.8l0,0l0.6,0c0,0,0.1,0,0.1,0c0.1,0,0.3,0,0.4,0c0.1,0,0.2,0,0.3,0c0.1,0,0.3,0,0.4-0.1c0.1,0,0.2,0,0.3-0.1
		c0.1,0,0.3-0.1,0.4-0.1c0.1,0,0.1,0,0.2-0.1c0.1,0,0.3-0.1,0.3-0.2c0,0,0.1,0,0.1,0c0.8-0.5,1.3-1.1,1.5-1.8
		C159,75.7,159,74.4,158.9,73.2z"/>
	<path class="st0" d="M138.2,61.7c-0.3-0.9-0.8-1.6-1.3-2.3c0,0,0.1,0.1,0.1,0.1c-0.1-0.1-0.2-0.3-0.3-0.4c0,0,0.1,0.1,0.1,0.1
		c-0.1-0.1-0.1-0.2-0.2-0.3l0,0l0,0c0,0,0,0.1,0,0.2c0,0.3-0.1,0.8-0.7,1.5c-0.8,0.8-2.1,1.8-4.1,2.7l-6.4,3
		c-0.9,0.4-1.8,0.9-2.8,1.6c-0.4,0.3-0.8,0.7-1,1.2c0,0,0,0,0,0c0,0.1-0.1,0.2-0.1,0.2v0c0,0.1-0.1,0.2-0.1,0.3l0,0
		c-0.1,0.2-0.1,0.3-0.2,0.5c0,0,0,0.1,0,0.1c0,0.1,0,0.3-0.1,0.4c0,0.1,0,0.2,0,0.3c0,0.1,0,0.3,0,0.4c0,0.5,0,1,0,1.5
		c0,1.4,0,2.8-0.8,4.1c-0.5,0.8-1.3,1.7-2.2,2l0,0l1,0.2l0.2,0c0.6,0.1,1.3,0.2,2,0.2c0,0,0,0,0.1,0c0,0,0.1,0,0.1,0
		c0,0,0.1,0,0.2,0c0.1,0,0.2,0,0.2,0c0.1,0,0.2,0,0.3,0c0.1,0,0.2,0,0.3,0s0.1,0,0.2,0c0.9-0.7,1.7-1.4,2.5-2.2l0,0
		c0.2-0.2,0.4-0.5,0.6-0.7c0,0,0,0,0-0.1c0.2-0.2,0.4-0.4,0.5-0.6c0,0,0,0,0-0.1c0.2-0.2,0.3-0.4,0.5-0.6c0,0,0,0,0,0
		c0.3-0.4,0.6-0.9,0.8-1.3c1-1.7,1.4-3.2,1.5-4.1l0.1-0.1c0.8,0.5,1.5,1.3,1.9,2.1l0,0l0,0c0.7-1,2.8-2.7,4.7-4.2
		c1.7-1.3,3.2-2.5,3.1-2.8l0,0C138.7,63.5,138.5,62.5,138.2,61.7z M135.7,61L135.7,61C135.8,60.9,135.8,60.9,135.7,61z M120.3,77
		c0-0.1,0.1-0.2,0.1-0.3C120.4,76.8,120.3,76.9,120.3,77z M120.5,76.6c0-0.1,0.1-0.2,0.1-0.3C120.6,76.3,120.5,76.5,120.5,76.6z
		 M120.7,76.1c0-0.1,0.1-0.2,0.1-0.3C120.8,75.8,120.7,76,120.7,76.1z M120.8,75.5c0-0.1,0-0.2,0-0.3
		C120.9,75.4,120.9,75.4,120.8,75.5z M120.9,74.9c0,0,0-0.1,0-0.2C120.9,74.9,120.9,74.9,120.9,74.9z M134.5,62L134.5,62
		C134.5,62,134.5,62,134.5,62z M135,61.7C135,61.7,135,61.6,135,61.7C135,61.6,135,61.6,135,61.7z M135.4,61.3
		C135.4,61.3,135.4,61.2,135.4,61.3C135.4,61.3,135.4,61.3,135.4,61.3z M138.5,62.8c0,0,0,0.1,0,0.2
		C138.6,62.9,138.5,62.8,138.5,62.8z M138.7,63.5C138.7,63.6,138.7,63.6,138.7,63.5C138.7,63.6,138.7,63.6,138.7,63.5z M137.5,60.2
		c-0.1-0.1-0.1-0.2-0.2-0.3C137.3,60,137.4,60.1,137.5,60.2z M138.1,61.5c0,0,0-0.1-0.1-0.2C138.1,61.4,138.1,61.5,138.1,61.5z
		 M137.8,60.8c0-0.1-0.1-0.2-0.1-0.3C137.7,60.7,137.8,60.7,137.8,60.8z M138.3,62c0,0,0,0.1,0,0.2C138.4,62.2,138.3,62.1,138.3,62z
		"/>
	<path class="st1" d="M134,33.2c-2.4,0.2-3.6-0.2-4.9-1.5c-0.2-0.2-0.4-0.5-0.6-0.8c-0.1-0.2-0.3-0.4-0.4-0.6l0,0
		c-0.1-0.1-0.2-0.3-0.3-0.4c0,0-0.1-0.1-0.1-0.1c0,0-0.1-0.1-0.2-0.2c0,0-0.1-0.1-0.2-0.2c0,0-0.1-0.1-0.1-0.1
		c-0.7-0.6-1.6-0.9-2.7-1l-3.8-0.1l0,0c0.3,0.2,0.7,0.3,1.1,0.5c1.2,0.5,2.8,1.1,3.7,2.3l0,0c0,0.1,0.1,0.2,0.2,0.3c0,0,0,0.1,0,0.1
		c0,0.1,0.1,0.2,0.1,0.3c0,0,0,0.1,0,0.1c0,0.1,0,0.1,0.1,0.2c0.1,0.3,0.3,0.5,0.4,0.7l0,0c0.1,0.1,0.2,0.2,0.3,0.3l0,0
		c1,1,2.8,1.5,4.1,1.5c0.1,0,0.1,0,0.2,0s0,0,0.1,0c0.1,0,0.2,0,0.3,0c0,0,0,0,0.1,0c0.1,0,0.2,0,0.2,0C132.6,34,134,33.3,134,33.2
		L134,33.2z M124,29.6c-0.1,0-0.2-0.1-0.3-0.1C123.8,29.5,123.9,29.6,124,29.6z M123.4,29.3c0,0-0.1,0-0.1,0
		C123.4,29.3,123.4,29.3,123.4,29.3z M124.9,28.3C124.9,28.3,124.9,28.3,124.9,28.3C124.9,28.3,124.9,28.3,124.9,28.3z M134,33.2
		L134,33.2L134,33.2L134,33.2z M125.3,28.4C125.3,28.4,125.4,28.4,125.3,28.4C125.4,28.4,125.3,28.4,125.3,28.4z"/>
	<path id="path3444" inkscape:connector-curvature="0" class="st0" d="M52.8,23.5c-0.3,0.7-0.5,1.4-0.7,1.7
		c-1.5,1.1-2.1,2.9-2.9,4.9c-2.5,4.3-5.1,7-4.6,8.8c1.1,2.8,5.9,6,7.8,7.3c0.2,0.3,0.2,10.1-2.7,13c-1.1,0.9-2.4,2-4.1,1.6
		c-0.8-0.2-1.2-0.8-1.3-1.5c0.2-2,2.4-3.3,4-4.6c2-1.3,3.2-3.1,2.8-5.4c-0.2-1.1-0.8-2.1-1.4-3.2l-9.8-6.9c-1.7-1.5-2.5-4.5-1.3-7.4
		c-0.3-0.1-0.5,0.1-0.7,0.3c-3.1,3-4.2,7.9-2.5,11.7c0.8,2.3,3.8,6.9,3.2,9.6c-0.7,2.4,3.1,3.8,2,6.1c-0.5,1.5-0.3,3.8,3.3,5.1
		c0,0.1,0.2,0.1,0.2,0.2c-2.3,1.7-5.5,4.1-6.9,6.4c-0.6,1.3-1.9,6.8-1.9,6.8c2.3,2.1,6.7,6.5,6.8,7.8c0,0.1,10.3,0.3,10.3,0.3
		c0.4-0.4,0.9-1.1,0.8-1.6c-0.2-2.3-3.6-3.3-5.7-4c-1.1-0.4-2.6-1.1-2.6-2.3c0-0.9,0.7-1.7,1.6-2c1.2-0.4,9.1-4.9,10.8-7
		c0.2-0.3,0.3-0.4,0.3-0.4l10.3,6.6l6.4,6.6c1.3,0.4,5.6,1.3,5.6,1.3c1.7,0.5,1.9,1.6,1.9,2.6c0.2,0.2,9.4,0.4,9.5,0.3
		c2.5-1.6,0.8-3.6,0.4-3.9c-1.5-1.4-2.9-2-7.6-2.7c-1-0.2-3.5-0.9-4.5-2c-1.5-1.4-1.1-3.3-1.2-5.1c-0.1-1,0-2-0.4-2.8l0,0
		c-0.4-1-1.5-2-2.5-2.6l-5.4-2.6l-4.3-2c-1.4-0.7-2.7-1.8-2.8-3.2c0.1-1,1-1.8,2-2.3c3.3-1.7,6.5-3,10.2-3.9c1.4-0.4,10-2,10-2
		c2.7-0.3,6.1-1.5,7.8,0.3c0.3,0.1,1.5-0.7,1.5-0.8c0.1-0.4,0.1-1.3-0.1-1.7c-1.8-2.6-3.3-3-6.6-3.3c-1.1-0.1-0.8,0-1.9,0.1
		c-0.2-0.3,0.4-1.6-1.2-2.9c2.1-1.8,3.6-3.8,5.3-5.8c0.9-1,2.2-1.3,3.6-1.1l1,0.3c0.2-0.1,1.2-4.1-1.4-5c-1.9-0.7-4.6-1-6.4,0.1
		c-1.9,1.2-2.7,2.8-4.4,4.2c-1.3,1.3-3.1,2.5-4.8,3.4c-0.7,0.6-1.3-0.2-1.9-0.3c-1.8-0.7-4.1-0.5-6-0.4c-0.5,0.1-6.4,2-11.5-1.5
		l0.1,0c1.3,0.4,2.9,1.1,4.2,0.4c0.8-0.6,0.5-1.6,0.2-2.3c0.1-0.3-0.2-0.9,0.4-1c1,0,2.1-0.5,2.5-1.4c0.4-0.7,0.3-1.5,0.3-2.4
		c0.3-0.5,0.6-1,0.4-1.5c-0.9-1-2.4-1-3.6-1.7c-1.7-1-4.7-2.8-6.9-3.1c-0.5-0.2-1.4,0.1-2,0C53.5,23.2,52.9,23.3,52.8,23.5"/>
	<path class="st0" d="M51.6,85.8c-2.2,0-9.7-0.2-9.8-0.3c0-0.7-1.4-2.3-2.5-3.6c-1.5-1.7-3.2-3.3-4.2-4.2l0,0l0,0
		c0,0,1.3-5.5,1.9-6.8c1.4-2.3,4.4-4.6,6.9-6.4c0,0,0-0.1-0.1-0.1c0,0-0.1,0-0.1-0.1c-0.9-0.3-1.6-0.7-2.2-1.2
		c-0.5-0.4-0.9-0.9-1.1-1.4c-0.5-1-0.3-2-0.1-2.5c0.5-1.1-0.1-2-0.9-3.1c-0.7-0.9-1.4-1.8-1.1-3c0.5-1.8-1-4.7-2-7
		c-0.5-1-0.9-1.9-1.2-2.6c-0.8-1.8-1-4-0.5-6.1c0.5-2.1,1.5-4.1,3.1-5.6c0,0,0,0,0,0c0.2-0.1,0.4-0.3,0.6-0.2l0,0l0,0
		c-1.1,2.8-0.5,5.8,1.3,7.4l9.8,6.9c0.1,0.2,0.2,0.3,0.3,0.5c0.5,0.9,1,1.8,1.1,2.7c0.2,1.1,0,2.1-0.5,3.1c-0.5,0.9-1.3,1.7-2.3,2.3
		c-0.3,0.3-0.7,0.5-1,0.8c-1.4,1-2.8,2.1-3,3.8c0.1,0.5,0.5,1.3,1.3,1.5c1.7,0.4,3-0.6,4.1-1.5l0,0c1.5-1.5,2.2-4.9,2.5-7.4
		c0.3-2.8,0.3-5.4,0.2-5.5c-0.2-0.2-0.5-0.3-0.8-0.5c-1.1-0.8-2.6-1.8-3.9-3C46,41.3,45,40,44.5,38.9c-0.3-1.2,0.8-2.9,2.3-5.3
		c0.7-1,1.5-2.2,2.3-3.5c0.1-0.2,0.1-0.3,0.2-0.5c0.4-0.9,0.7-1.8,1.1-2.5c0.5-0.8,1-1.5,1.6-1.9c0.2-0.2,0.4-0.8,0.6-1.3
		c0-0.1,0.1-0.3,0.1-0.4l0,0c0.1-0.2,0.8-0.3,1-0.4c0.3,0,0.6,0,0.9,0c0.4,0,0.8-0.1,1.1,0c2.3,0.2,5.4,2.1,6.9,3.1
		c0.5,0.3,1,0.4,1.5,0.6c0.8,0.3,1.5,0.5,2.1,1.1c0.2,0.5,0,1-0.4,1.5c0,0.1,0,0.2,0,0.2c0,0.8,0,1.5-0.3,2.2c-0.2,0.4-0.5,0.8-1,1
		c-0.5,0.3-1,0.4-1.5,0.4c-0.4,0-0.4,0.4-0.4,0.7c0,0.1,0,0.2,0,0.3c0.5,1,0.4,1.8-0.2,2.3c-1.2,0.6-2.7,0.1-3.9-0.3
		c-0.1,0-0.2-0.1-0.3-0.1l-0.1,0c1.4,1,2.9,1.5,4.3,1.9c-0.2,0-0.4-0.1-0.5-0.1c-1.3-0.4-2.6-0.9-3.7-1.7l0,0l0,0l0.1,0l0,0
		c0.1,0,0.2,0.1,0.3,0.1c1.2,0.4,2.7,0.9,3.9,0.3c0.6-0.5,0.6-1.2,0.2-2.3l0,0l0,0c0-0.1,0-0.2,0-0.3c0-0.3,0-0.6,0.4-0.7
		c1.1,0,2.1-0.5,2.5-1.4c0.3-0.6,0.3-1.4,0.3-2.1c0-0.1,0-0.2,0-0.2l0,0c0.4-0.6,0.5-1.1,0.4-1.5c-0.5-0.6-1.3-0.9-2.1-1.1
		c-0.5-0.2-1-0.3-1.5-0.6c-1.5-0.9-4.6-2.8-6.9-3.1c-0.3-0.1-0.7,0-1.1,0c-0.3,0-0.6,0.1-0.9,0c-0.2,0-0.8,0.2-1,0.4
		c0,0.1-0.1,0.3-0.1,0.4c-0.2,0.6-0.4,1.1-0.6,1.3c-1.4,1-2,2.6-2.7,4.4c0,0.2-0.1,0.3-0.2,0.5c-0.8,1.3-1.5,2.5-2.3,3.5
		c-1.5,2.3-2.7,4.1-2.3,5.3c0.4,1.1,1.5,2.3,3.1,3.8c1.4,1.2,2.8,2.3,3.9,3c0.3,0.2,0.5,0.4,0.8,0.5c0.1,0.1,0.1,2.7-0.2,5.5
		c-0.3,2.6-1,6-2.5,7.4l0,0c-1.1,0.9-2.4,2-4.1,1.5c-0.8-0.2-1.2-0.9-1.3-1.5c0.1-1.6,1.6-2.7,3-3.8c0.4-0.3,0.7-0.5,1-0.8
		c2.2-1.4,3.1-3.3,2.8-5.4c-0.1-1-0.6-1.8-1.1-2.7c-0.1-0.2-0.2-0.3-0.3-0.5l-9.8-6.9c-0.9-0.8-1.5-1.9-1.8-3.2
		c-0.3-1.4-0.1-2.8,0.4-4.3c-0.3-0.1-0.5,0.1-0.6,0.2c0,0,0,0,0,0c-3.1,3-4.2,8-2.5,11.7c0.3,0.7,0.7,1.6,1.2,2.6
		c1.1,2.3,2.5,5.1,2,7c-0.3,1.2,0.4,2.1,1.1,3c0.8,1,1.5,1.9,0.9,3.1C40.2,60,40,60.9,40.5,62c0.5,1.1,1.6,1.9,3.3,2.5l0,0l0,0
		c0,0,0,0.1,0.1,0.1c0,0,0.1,0.1,0.1,0.1l0,0l0,0c-2.5,1.8-5.5,4.1-6.9,6.4c-0.6,1.3-1.8,6.7-1.9,6.8c1,0.9,2.7,2.5,4.2,4.2
		c1.1,1.3,2.5,2.9,2.5,3.6c0.1,0.1,10.2,0.3,10.3,0.3c0.4-0.4,0.9-1.1,0.8-1.6c-0.1-1-0.8-1.8-2.1-2.6c-1.1-0.6-2.5-1.1-3.6-1.4
		c-1.8-0.6-2.6-1.4-2.6-2.3c0-0.9,0.6-1.7,1.6-2c0.6-0.2,2.8-1.4,5.2-2.9c1.7-1,4.6-2.9,5.6-4.1c0.2-0.3,0.3-0.4,0.3-0.4l0,0l0,0
		l10.3,6.6l6.4,6.6c1.3,0.4,5.5,1.3,5.6,1.3c0.8,0.2,1.3,0.6,1.6,1.1c0.3,0.5,0.3,1,0.3,1.5c0.1,0.2,5.4,0.3,8.1,0.3
		c0.5,0,0.9,0,1.2,0c0.2,0,0.3,0,0.3,0c0.8-0.5,1.3-1.1,1.3-1.8c0.1-1-0.6-1.8-0.9-2c-1.5-1.4-3-2-7.6-2.7c-1-0.2-3.5-0.9-4.5-2
		c-0.5-0.5-0.9-1.1-1-1.9c-0.1-0.7-0.1-1.4-0.1-2.1c0-0.4,0-0.7,0-1.1c0-0.3,0-0.5,0-0.8c0-0.7-0.1-1.5-0.4-2.1l0,0l0,0
		c-0.5-1-1.6-2-2.5-2.6L70,64l-4.3-2c-1-0.5-2.7-1.5-2.8-3.2c0.1-0.9,0.8-1.6,2-2.3c3.6-1.8,6.8-3.1,10.2-3.9c1.4-0.4,9.9-2,10-2
		c0.6-0.1,1.2-0.2,1.8-0.3c2.3-0.4,4.6-0.8,5.9,0.6c0.3,0.1,1.5-0.7,1.5-0.8c0.1-0.4,0.1-1.3-0.1-1.7c-1.8-2.6-3.3-3-6.6-3.3
		c-0.7,0-0.8,0-1.2,0c-0.2,0-0.4,0-0.8,0.1l0,0l0,0c0-0.1,0-0.2,0-0.4c0-0.5,0-1.5-1.1-2.5l0,0l0,0c1.7-1.4,2.9-2.9,4.2-4.5
		c0.3-0.4,0.7-0.8,1-1.3c0.5-0.5,1-0.8,1.6-1c0.6-0.2,1.3-0.2,2-0.2l1,0.3c0,0,0.1-0.3,0.2-0.7c0-0.3,0.1-0.9,0.1-1.5
		c0-1-0.4-2.3-1.7-2.7c-1.2-0.4-4.2-1.3-6.4,0.1c-1.1,0.7-1.8,1.5-2.5,2.4c-0.5,0.6-1.1,1.3-1.8,1.8c-1.3,1.3-3,2.5-4.8,3.4
		c-0.5,0.4-0.9,0.2-1.3,0c-0.2-0.1-0.4-0.2-0.6-0.3c-1.8-0.7-4.1-0.5-6-0.4h0c0,0,0,0-0.1,0c-1.7,0.5-3.2,0.6-4.1,0.6h0
		c-0.2,0-0.4,0-0.6,0c0.2,0,0.4,0,0.6,0c1.8,0,3.3-0.3,4.2-0.6c0,0,0,0,0.1,0h0c1.9-0.1,4.2-0.3,6,0.4c0.2,0,0.4,0.2,0.6,0.3
		c0.4,0.2,0.8,0.5,1.3,0c1.8-0.9,3.6-2.1,4.8-3.4c0.7-0.6,1.3-1.2,1.8-1.8c0.8-0.9,1.5-1.7,2.5-2.4c0.8-0.5,1.8-0.8,2.9-0.8
		c0.1,0,0.2,0,0.2,0c1.3,0,2.5,0.4,3.2,0.6c1.3,0.5,1.6,1.8,1.7,2.7c0.1,1.2-0.3,2.3-0.3,2.3l0,0l0,0l-1-0.3
		c-1.5-0.1-2.8,0.3-3.6,1.1c-0.4,0.4-0.7,0.9-1,1.3c-1.3,1.6-2.5,3.1-4.2,4.5c1.2,1,1.1,2,1.1,2.5c0,0.2,0,0.3,0,0.4
		c0.4,0,0.6,0,0.8-0.1c0.3,0,0.5,0,1.2,0c3.3,0.3,4.9,0.7,6.6,3.3c0.2,0.4,0.3,1.3,0.1,1.7c0,0-0.3,0.3-0.7,0.5
		c-0.3,0.1-0.7,0.4-0.8,0.3c-1.3-1.4-3.6-1-5.9-0.6c-0.6,0.1-1.3,0.2-1.8,0.3c-0.1,0-8.6,1.6-10,2c-3.4,0.8-6.6,2-10.2,3.9
		c-1.3,0.7-1.9,1.5-2,2.3c0.2,1.7,1.8,2.8,2.8,3.2l4.3,2l5.4,2.6c0.9,0.5,2,1.5,2.5,2.6l0,0l0,0c0.3,0.6,0.3,1.4,0.4,2.1
		c0,0.3,0,0.5,0,0.8c0,0.4,0,0.7,0,1.1c0,1.4,0,2.9,1.2,4c1,1.1,3.5,1.9,4.5,2c4.6,0.8,6.1,1.3,7.6,2.7c0.3,0.2,1,1.1,0.9,2
		c0,0.7-0.5,1.3-1.3,1.8c0,0,0,0-0.3,0c-0.7,0-2.9,0-5.1,0c-0.9,0-4-0.1-4.1-0.3l0,0c0-1-0.2-2.1-1.9-2.6c0,0-4.3-0.9-5.6-1.3
		l-6.4-6.6l-10.3-6.6c0,0-0.1,0.2-0.3,0.4c-1,1.2-3.9,3.1-5.6,4.1c-2.4,1.5-4.6,2.7-5.2,2.9c-1,0.3-1.7,1.2-1.6,2
		c0,0.9,0.9,1.7,2.6,2.3c1,0.3,2.4,0.8,3.6,1.4c0.6,0.3,1.1,0.7,1.5,1.1c0.4,0.5,0.6,1,0.7,1.5c0,0.5-0.4,1.3-0.8,1.6
		C52.2,85.8,52.2,85.8,51.6,85.8z"/>
	<path class="st1" d="M65,28.1C65,28,64.9,28,65,28.1L65,28.1c-0.3-0.2-0.5-0.3-0.8-0.3c-0.2,0-0.4-0.1-0.6-0.2
		c-0.1-0.1-0.3-0.1-0.4-0.2c-0.7-0.3-1.3-0.7-2-1c0,0-0.1,0-0.2-0.1c-0.1,0-0.3-0.1-0.4-0.2c-0.2-0.1-0.3-0.1-0.5-0.2
		c0,0-0.1,0-0.2-0.1c0,0-0.1,0-0.2,0c-0.2-0.1-0.4-0.1-0.6-0.2c-0.1,0-0.2,0-0.3-0.1c-0.2,0-0.4-0.1-0.7-0.2c-0.1,0-0.2,0-0.3,0
		c-0.2,0-0.4,0-0.6-0.1c-0.1,0-0.2,0-0.3,0c-0.2,0-0.3,0-0.5,0c-0.1,0-0.1,0-0.2,0c0,0-0.1,0-0.1,0c-0.3-0.1-0.5-0.3-0.8-0.6
		s-0.6-0.5-1-0.7l0,0c0,0-0.1,0-0.2,0l0,0c-0.1,0-0.3,0-0.4,0l0,0c-0.1,0.1-0.2,0.2-0.2,0.3v0c0,0,0,0.1,0,0.1v0c0,0,0,0.1,0,0.1
		c0,0,0,0,0,0c0,0.3,0.3,0.5,0.5,0.7c0.2,0.2,0.3,0.3,0.4,0.5l0,0c0,0,0,0.1,0,0.1l0,0c0,0.1,0,0.1,0,0.2c-0.4,1-0.5,2.2-0.3,3.3
		c0.2,1.2,0.7,2.2,1.5,3.1c0.3,0.2,0.6,0.5,1.1,0.5c0.1,0,0.2,0,0.2-0.1l0,0c0.3-0.1,0.4-0.4,0.5-0.7c0.1-0.2,0.1-0.3,0.3-0.5
		c0.3-0.7,1.1-1.3,1.9-1.4c0,0,0.1,0,0.1,0c0.1,0,0.1,0,0.2,0s0.2,0,0.3,0c0,0,0.1,0,0.1,0c0.1,0,0.2,0,0.3,0.1c0,0,0.1,0,0.1,0
		c0.1,0,0.2,0.1,0.3,0.1c0,0,0,0,0.1,0c0.1,0,0.2,0.1,0.2,0.1c0,0,0,0,0.1,0c0.1,0,0.2,0.1,0.2,0.2c0,0,0,0,0,0
		c0.3,0.2,0.5,0.5,0.7,0.7c0.3,0.3,0.8,0.3,1.3,0.3c0.4,0,0.6-0.4,0.8-0.7c0,0,0-0.1,0.1-0.1c0.3-0.4,0.3-1,0.2-1.4
		c0-0.2,0-0.4,0-0.5c0-0.1,0.1-0.1,0.1-0.2c0,0,0,0,0,0c0,0,0-0.1,0.1-0.1c0.1-0.2,0.2-0.4,0.4-0.5C65.1,28.3,65,28.1,65,28.1z
		 M57.1,32.7L57.1,32.7C57.1,32.7,57.1,32.7,57.1,32.7z M57.5,31.8C57.5,31.9,57.5,31.9,57.5,31.8C57.5,31.9,57.5,31.9,57.5,31.8z
		 M64.4,29.4c0,0,0,0.1,0,0.2C64.4,29.5,64.4,29.4,64.4,29.4z M64.4,30.9L64.4,30.9L64.4,30.9z M64.4,31L64.4,31L64.4,31z
		 M64.9,27.9c0,0-0.1-0.1-0.2-0.1C64.8,27.9,64.8,27.9,64.9,27.9z M56,25L56,25L56,25z M56.2,25.1C56.1,25.1,56.1,25.1,56.2,25.1
		C56.1,25.1,56.1,25.1,56.2,25.1z M53.5,24.3C53.5,24.3,53.5,24.3,53.5,24.3C53.5,24.3,53.5,24.3,53.5,24.3z M53.5,24.5L53.5,24.5
		L53.5,24.5z M53.6,24.6L53.6,24.6L53.6,24.6z M56.7,33c0,0,0.1,0,0.1,0C56.7,33,56.7,33,56.7,33z M57,32.8
		C56.9,32.9,56.9,32.9,57,32.8C56.9,32.9,57,32.9,57,32.8z M59.8,30.4C59.9,30.4,59.9,30.4,59.8,30.4C59.9,30.4,59.9,30.4,59.8,30.4
		z M60.3,30.4C60.3,30.4,60.3,30.4,60.3,30.4C60.3,30.4,60.3,30.4,60.3,30.4z M60.6,30.5C60.6,30.5,60.7,30.5,60.6,30.5
		C60.7,30.5,60.6,30.5,60.6,30.5z M61,30.7C61,30.7,61,30.7,61,30.7C61,30.7,61,30.7,61,30.7z M64.9,28.5L64.9,28.5L64.9,28.5z"/>
	<path class="st0" d="M60,26.6C60,26.6,60,26.6,60,26.6c-0.4-0.1-2,0-2.6,0.5l0,0c0,0.1,0,0.2,0,0.3c0,0.1,0.1,0.1,0.3,0.1l0,0
		c0.2,0,0.3,0.1,0.5,0.1c0.3,0.1,0.5,0.2,0.8,0.2l0,0c0,0,0,0,0.1,0c0,0,0.1,0,0.1,0c0,0,0,0,0,0c0,0,0.1,0,0.1-0.1c0,0,0,0,0.1-0.1
		c0,0,0-0.1,0.1-0.1c0-0.1,0.1-0.1,0.1-0.2c0,0,0,0,0,0c0-0.1,0.1-0.2,0.2-0.3C59.9,26.8,60,26.8,60,26.6L60,26.6L60,26.6z
		 M57.8,27.6c0,0,0.1,0,0.1,0C57.9,27.6,57.9,27.6,57.8,27.6z M59.5,27.7L59.5,27.7L59.5,27.7z"/>
	<path class="st1" d="M84,46c-2.3,0.3-4.6,0.1-6.1-0.1s-2.5-0.5-2.7-0.5c2.5-0.5,3.1-0.7,4.3-1.2c0.7-0.3,1.5-0.6,2.9-1.1l0,0l0,0
		c-2.1-1.2-4.5-1.3-6.4-1.2c-1,0.1-2.8-0.1-3.8-0.4v-0.1c1.3-0.5,2.7-0.8,4.1-1c0,0,0.1,0,0.1,0c0.2,0,0.4,0,0.6,0c0,0,0.1,0,0.2,0
		c0.2,0,0.4,0,0.5,0c0.1,0,0.2,0,0.3,0c0.1,0,0.1,0,0.2,0l0,0c0,0-0.1,0-0.2-0.1h0c-0.7-0.3-2.1-0.5-3.1-0.7c-0.4-0.1-0.7-0.1-1-0.2
		c-1.9-0.5-3.3,0-4.6,0.3c-1.5,0.4-2.8,0.8-4.7,0.3l0,0l0,0c0,0,0,0,0,0.1c0,0.1,0.1,0.3,0.2,0.3c0.1,0.2,0.2,0.4,0.3,0.5
		c0.4,0.7,0.8,1.4,0.6,2.4c-1.1-1-2.3-1.8-3.6-2.6c-1.1-0.7-2.3-1.5-3.3-2.4c-1.8-1.5-3.4-3.3-4.8-5.3c-0.3-0.5-0.5-0.9-0.7-1.4l0,0
		c-0.1-0.2-0.2-0.5-0.3-0.7c0,0,0-0.1,0-0.1c0-0.2-0.1-0.4-0.2-0.5c0,0,0-0.1,0-0.2c0-0.2-0.1-0.4-0.1-0.5c0,0,0-0.1,0-0.1
		c0-0.2,0-0.4,0-0.6l0,0c0-0.5,0-0.9,0.1-1.4l0,0l0,0c0,0,0,0,0,0l0,0c0,0,0,0-0.1,0l0,0c-0.2,0.2-0.6,1-1,1.8
		c-0.3,0.6-0.5,1.2-0.8,1.5l0,0c-2.5,4.2-4.6,7.1-4.6,7.1l0,0l0,0c0.1,0.3,0.2,0.5,0.3,0.7c0,0,0,0,0,0c0,0.1,0.1,0.2,0.2,0.3l0,0
		c0.3,0.4,0.5,0.8,0.9,1.3l0,0c0.3,0.3,0.5,0.5,0.9,0.8l0,0c0.1,0.1,0.1,0.1,0.2,0.2c1.1,0.9,2.4,1.7,3.5,2.3c1,0.6,1.8,1,2,1.4
		c0,0,0,0.1,0,0.1c0,0.1,0.1,0.2,0.1,0.3c0,0,0,0.1,0.1,0.2c0,0.1,0.1,0.2,0.2,0.3l0,0l0,0c0,0,0,0.1,0.1,0.1
		c0.1,0.1,0.2,0.3,0.3,0.3c0,0,0.1,0.1,0.2,0.2c0.1,0.1,0.2,0.2,0.3,0.3c0,0,0.1,0.1,0.1,0.1c0,0,0.1,0.1,0.2,0.2c0,0,0,0,0.1,0.1
		c0.2,0.1,0.3,0.3,0.5,0.4l0,0c0.4,0.3,0.8,0.6,1.3,0.9l0,0l0,0c-0.3-2,0-3.8,0-4c0.2,0.9,0.8,1.9,1.6,2.8c0,0,0.1,0.1,0.1,0.1l0,0
		l0,0l0,0c0,0,0.1,0.1,0.1,0.1c0.1,0.1,0.1,0.1,0.2,0.2c0,0,0,0,0.1,0.1c0,0,0,0,0,0l0,0c0,0,0,0,0,0c0.1,0,0.1,0.1,0.2,0.2l0,0
		c0,0,0.1,0,0.1,0.1c0.1,0.1,0.2,0.2,0.3,0.3l0,0l0,0l0,0l0,0c0.1,0,0.2,0.1,0.2,0.2c0.2,0.1,0.3,0.3,0.5,0.4
		c0.1,0.1,0.2,0.1,0.3,0.2c0.2,0.1,0.3,0.2,0.5,0.3c0,0,0.1,0.1,0.2,0.1c0.1,0,0.2,0.1,0.3,0.1c0.1,0.1,0.3,0.1,0.3,0.2
		c0.2,0.1,0.3,0.2,0.5,0.3c0.1,0,0.2,0.1,0.3,0.1c0.2,0.1,0.4,0.2,0.6,0.3c0.1,0,0.2,0,0.3,0.1c0.2,0.1,0.5,0.2,0.7,0.3
		c0,0,0.1,0,0.2,0c0.3,0.1,0.5,0.1,0.7,0.2c0,0,0.1,0,0.2,0c0.2,0,0.4,0.1,0.6,0.2c0.1,0,0.2,0,0.2,0c0.2,0,0.3,0,0.5,0.1
		c0.1,0,0.2,0,0.3,0c0.1,0,0.3,0,0.4,0c0.1,0,0.3,0,0.4,0c0,0,0.1,0,0.2,0c0,0,0,0,0.1,0l0,0c-1.7-0.6-2.9-2-3.7-3s-1.2-1.9-1.2-2
		c1.3,1.6,3.7,2.4,5.5,2.7c2,0.4,4.1,0.4,5.1,0.2l0,0c-0.8,0-2.8-0.9-4.8-2.2c0,0,0,0,0,0c0,0,0.4,0,1.1,0.2
		c1.2,0.2,3.3,0.6,5.4,0.8c0.2,0,0.3,0,0.5,0c0,0,0.1,0,0.2,0c0.5,0,1,0,1.5,0c0.1,0,0.2,0,0.3,0c0.2,0,0.4,0,0.6,0
		c0.1,0,0.2,0,0.3,0c0.1,0,0.3,0,0.3,0c0.1,0,0.2,0,0.3,0c0.2,0,0.3-0.1,0.5-0.1c0.1,0,0.2,0,0.3-0.1c0.1,0,0.2,0,0.3-0.1
		c0.1,0,0.1,0,0.2-0.1c0.1,0,0.2-0.1,0.3-0.1c0,0,0.1,0,0.2-0.1c0.1,0,0.2-0.1,0.3-0.1l0.1,0C83,46.8,83.5,46.4,84,46L84,46L84,46z
		 M54.3,44.9L54.3,44.9L54.3,44.9z M58.8,46.4L58.8,46.4C58.8,46.4,58.8,46.4,58.8,46.4z M58.6,46.1C58.6,46.1,58.6,46.1,58.6,46.1
		C58.6,46.1,58.6,46.1,58.6,46.1z M65.9,42.8c0,0,0-0.1,0-0.1C65.9,42.7,65.9,42.7,65.9,42.8z M65.9,43.1C65.9,43,65.9,43,65.9,43.1
		C65.9,43,65.9,43,65.9,43.1z M80.2,46.1C80.3,46.1,80.3,46.1,80.2,46.1C80.3,46.1,80.3,46.1,80.2,46.1z M80.9,46.1c0,0,0.1,0,0.2,0
		C81,46.1,81,46.1,80.9,46.1z M81.7,46.1c0.1,0,0.1,0,0.2,0C81.9,46.1,81.8,46.1,81.7,46.1z M83.4,46c0.1,0,0.2,0,0.3,0
		C83.5,46,83.5,46,83.4,46z M82.5,46.1c0.1,0,0.2,0,0.2,0C82.7,46.1,82.6,46.1,82.5,46.1z M75.9,40.4L75.9,40.4
		C75.9,40.4,75.9,40.4,75.9,40.4z M76.6,40.3C76.7,40.3,76.7,40.3,76.6,40.3C76.7,40.3,76.7,40.3,76.6,40.3z M77.4,40.2
		c0,0,0.1,0,0.1,0C77.5,40.2,77.5,40.2,77.4,40.2z M65.7,41.8L65.7,41.8L65.7,41.8z M65.9,42.5C65.9,42.4,65.9,42.4,65.9,42.5
		C65.9,42.4,65.9,42.4,65.9,42.5z M65.8,42.1C65.8,42,65.8,42,65.8,42.1C65.8,42,65.8,42.1,65.8,42.1z M54.2,44.8L54.2,44.8
		L54.2,44.8z M59.3,47c0,0,0.1,0.1,0.1,0.1C59.4,47.1,59.3,47.1,59.3,47z M59,46.7C59.1,46.7,59.1,46.7,59,46.7
		C59.1,46.8,59,46.7,59,46.7z"/>
	<path class="st1" d="M88,36.6c-0.8-0.4-1.7-1.2-2-2c-0.2-0.5-0.3-1.1-0.2-1.7l0,0c-0.1,0.1-0.1,0.1-0.2,0.2
		c-0.2,0.2-0.4,0.4-0.5,0.6c-0.1,0.1-0.1,0.2-0.2,0.2c-0.7,0.8-1.4,1.6-2.3,2.3l0,0v0.1l0,0c0.9,0.1,1.8,0.5,2.4,1
		c-2.3,0.2-4,1-6,1.8l-0.1,0l0,0c0.2,0.2,3.6,2,4.2,2.1l0,0l0,0C84.7,39.9,86.3,38.4,88,36.6L88,36.6L88,36.6z M82.7,36
		c0.1-0.1,0.2-0.2,0.3-0.3C83,35.8,82.8,35.9,82.7,36z M83.3,35.5c0.1-0.1,0.1-0.1,0.2-0.2C83.5,35.4,83.4,35.4,83.3,35.5z
		 M85.5,39.1c-0.3,0.3-0.5,0.5-0.8,0.8C84.9,39.6,85.2,39.4,85.5,39.1z M84.2,40.3c-0.3,0.3-0.6,0.5-0.9,0.8
		C83.6,40.8,83.9,40.6,84.2,40.3z M87.6,37c-0.1,0.2-0.3,0.3-0.4,0.5C87.3,37.3,87.4,37.1,87.6,37z M85.9,38.7
		c0.2-0.2,0.5-0.4,0.7-0.7C86.3,38.3,86.1,38.5,85.9,38.7z"/>
	<path class="st1" d="M48.9,49.8c0-0.3-0.1-0.7-0.3-1l0,0c0-0.1-0.1-0.2-0.2-0.3c0,0,0,0,0,0c-0.1-0.1-0.1-0.2-0.2-0.3l0,0
		c-0.1-0.1-0.2-0.2-0.3-0.3l0,0c-0.1-0.1-0.2-0.2-0.3-0.3c0,0,0,0,0,0c-1.2-1.2-2.9-2.4-4.6-3.7c-1.3-1-2.6-1.9-3.7-2.8
		c-1.2-1-1.8-1.8-2-2.5c-0.3-1.1-0.4-1.7-0.6-2.5l0,0l0,0c-0.6,1.1-0.9,2.5-0.8,4.1c0,1.4,0.3,2.8,0.9,4.1l3.2,5.9
		c0.5,1.3,0.8,2.6,0.5,3.8c-0.1,0.5,1.2,0.9,2.4,1.3c1,0.3,2.1,0.7,2.2,1c0,0,0,0.1,0,0.2l0,0l0,0C47.1,54.4,49.5,52.6,48.9,49.8z
		 M37.5,39L37.5,39L37.5,39z M37.7,39.3L37.7,39.3L37.7,39.3z M37.9,39.6L37.9,39.6L37.9,39.6z M38.2,40L38.2,40L38.2,40z
		 M44.8,55.8L44.8,55.8L44.8,55.8z M45,55.9L45,55.9C45,55.9,45,55.9,45,55.9z"/>
	<path class="st1" d="M59.6,58.6c0.1-0.1,0.1-0.2,0.2-0.3s0.1-0.2,0.2-0.3c0.1-0.1,0.1-0.2,0.2-0.3c0.1-0.1,0.2-0.2,0.3-0.3
		c0.1-0.1,0.1-0.1,0.2-0.2c0,0-0.1,0.1-0.1,0.1c0,0,0.1-0.1,0.1-0.1l0,0l0,0c0.1-0.1,0.2-0.2,0.3-0.3c0,0,0.1-0.1,0.1-0.1l0,0
		c0,0,0,0,0.1-0.1c0,0,0,0,0,0c0,0,0.1-0.1,0.1-0.1c0.1-0.1,0.3-0.2,0.4-0.3c0,0,0,0,0.1,0l0,0c0,0,0,0,0,0c0,0,0,0,0,0
		c0,0,0.1,0,0.1-0.1c0.2-0.1,0.4-0.3,0.5-0.4l0,0c0.2-0.2,0.5-0.3,0.7-0.5c0,0,0,0,0,0c0.2-0.1,0.5-0.3,0.7-0.4
		c1.8-1,3.9-1.9,6.5-2.8l0,0c-3.9,0.5-6.9,0.3-9.1-0.7c0,0,0,0-0.1,0c-0.2,0-0.3-0.1-0.4-0.2c0,0-0.1,0-0.1,0
		c-0.1-0.1-0.3-0.1-0.4-0.2l0,0c-0.2-0.1-0.3-0.2-0.5-0.3h0c-0.3,0.1-1.3,0.8-2.4,1.8c-0.8,0.7-2.3,2.1-3.1,3.6l0,0l0,0
		c1,0.1,2,1,2,1.1c-1,0.1-2.1,0.6-3.5,1.4c-0.1,0.1-0.3,0.2-0.4,0.3c0,0,0,0-0.1,0c-0.8,0.5-1.7,1.2-2.6,1.9l0,0l0,0
		c0.9,0.2,1.6,1.2,1.7,1.3c0,0-0.1,0-0.1,0c0,0-0.1,0-0.2,0c0,0-0.1,0-0.2,0c-0.1,0-0.1,0-0.2,0c-0.1,0-0.2,0.1-0.3,0.1
		c-0.1,0-0.2,0.1-0.3,0.1s-0.2,0.1-0.3,0.1c-0.1,0-0.2,0.1-0.3,0.1c-0.1,0.1-0.3,0.1-0.4,0.2c-0.1,0-0.2,0.1-0.3,0.1
		c-0.8,0.4-1.6,1-2.5,1.7c-2,1.4-4,3.1-5.3,4.3c-0.6,0.5-1,0.9-1.3,1.1c-0.4,0.4-0.8,1.5-1,3c-0.2,1.3-0.2,2.6,0,3.1
		c0.2,0.7,0.7,1.3,1.5,1.8c0,0,0.1,0,0.1,0c0.1,0.1,0.2,0.1,0.3,0.2c0.1,0,0.1,0.1,0.2,0.1c0.1,0,0.3,0.1,0.4,0.1
		c0.1,0,0.2,0,0.3,0.1c0.1,0,0.3,0.1,0.4,0.1c0.1,0,0.2,0,0.3,0c0.1,0,0.3,0,0.4,0c0,0,0.1,0,0.1,0l0.6,0l0,0
		c-0.4-0.5-0.8-1.1-0.5-1.8c0.5-1.4,2.1-3.8,3.7-5.1l0,0c0.1-0.1,0.3-0.2,0.4-0.3l0,0c0.4-0.3,0.8-0.5,1.2-0.5
		c0.3-0.1,0.7-0.1,1-0.2c1.1-0.2,2.2-0.4,3.3-0.8l0,0c0.5-0.2,0.9-0.3,1.3-0.5c0.3-0.2,0.5-0.3,0.7-0.5l0,0c0.1-0.1,0.2-0.2,0.3-0.3
		c0,0,0,0,0,0c0.4-0.3,0.7-0.7,0.9-1l0,0c0-0.1,0.1-0.2,0.2-0.3c0,0,0,0,0,0c0.7-1.1,1.1-2.3,1.5-3.7c0.4-1.4,0.9-3,1.8-4.7
		C59.3,58.8,59.4,58.7,59.6,58.6C59.5,58.8,59.5,58.7,59.6,58.6z M53.8,58.1c0.1,0,0.1-0.1,0.2-0.1C53.9,58.1,53.8,58.1,53.8,58.1z
		 M54.2,57.9c0,0,0.1,0,0.2-0.1C54.3,57.9,54.2,57.9,54.2,57.9z M54.9,57.6L54.9,57.6L54.9,57.6z M55.2,57.5
		C55.3,57.5,55.3,57.5,55.2,57.5C55.3,57.5,55.3,57.5,55.2,57.5z M55.6,57.4C55.7,57.4,55.7,57.4,55.6,57.4
		C55.7,57.4,55.6,57.4,55.6,57.4z M60.1,58C60.1,57.9,60.1,57.9,60.1,58C60.1,57.9,60.1,57.9,60.1,58z M61.7,51.7c0,0-0.1,0-0.1,0
		C61.6,51.7,61.6,51.7,61.7,51.7z M62.9,52C62.9,52,62.9,52,62.9,52C62.8,52,62.9,52,62.9,52z M62.3,51.9c0,0-0.1,0-0.1,0
		C62.2,51.9,62.3,51.9,62.3,51.9z M61,51.4C61,51.4,61,51.4,61,51.4C61,51.4,61,51.4,61,51.4z M59.8,50.8
		C59.8,50.8,59.8,50.8,59.8,50.8C59.8,50.8,59.8,50.8,59.8,50.8L59.8,50.8z M53.5,58.2c-0.1,0-0.1,0.1-0.2,0.1
		C53.4,58.3,53.5,58.3,53.5,58.2z M53.1,58.5c0,0-0.1,0-0.2,0.1C53,58.6,53,58.5,53.1,58.5z M52.7,58.8
		C52.6,58.8,52.6,58.8,52.7,58.8C52.6,58.8,52.6,58.8,52.7,58.8z M47,71.6C47,71.6,47,71.6,47,71.6C47,71.6,47,71.6,47,71.6z
		 M47.4,71.4L47.4,71.4L47.4,71.4z M52.2,70.2L52.2,70.2L52.2,70.2z M52.8,70C52.8,70,52.8,70,52.8,70C52.7,70.1,52.8,70,52.8,70z
		 M58.5,60.7L58.5,60.7L58.5,60.7z M59,59.5C59,59.5,59,59.6,59,59.5C59,59.6,59,59.5,59,59.5z"/>
	<path class="st1" d="M60.8,59.4c0,0,0-0.1,0.1-0.1C60.8,59.4,60.8,59.4,60.8,59.4z"/>
	<path class="st1" d="M79.7,79.1c-0.8-0.4-1.7-1.3-2.2-2c-0.8-1.2-0.8-2.6-0.8-4.1c0-0.5,0-1,0-1.5c0-0.1,0-0.3,0-0.4
		c0-0.1,0-0.2,0-0.3c0-0.1,0-0.3-0.1-0.4c0,0,0-0.1,0-0.1c0-0.2-0.1-0.4-0.2-0.5l0,0c0-0.1-0.1-0.2-0.1-0.3c0,0,0,0,0,0
		c0-0.1-0.1-0.2-0.1-0.2c0,0,0,0,0,0c-0.3-0.5-0.6-0.8-1-1.2c-1-0.7-1.9-1.2-2.8-1.6l-6.4-3c-2-1-3.3-1.9-4.1-2.7
		c-0.6-0.7-0.7-1.2-0.7-1.5c0-0.1,0-0.2,0-0.2l0,0l0,0c-0.1,0.1-0.1,0.2-0.2,0.3c0,0,0.1-0.1,0.1-0.1c-0.1,0.1-0.2,0.3-0.3,0.4
		c0,0,0.1-0.1,0.1-0.1c-0.5,0.6-1,1.4-1.3,2.3c-0.3,0.8-0.5,1.7-0.7,3l0,0c0,0.3,1.4,1.5,3.1,2.8c1.9,1.5,4,3.2,4.7,4.2l0,0l0,0
		c0.4-0.8,1-1.5,1.9-2.1l0.1,0.1c0.2,1,0.6,2.4,1.5,4.1c0.3,0.5,0.5,0.9,0.8,1.3c0,0,0,0,0,0c0.2,0.2,0.3,0.4,0.5,0.6c0,0,0,0,0,0.1
		c0.2,0.2,0.3,0.4,0.5,0.6c0,0,0,0,0.1,0.1c0.2,0.2,0.4,0.5,0.6,0.7l0,0c0.2,0.3,0.5,0.5,0.7,0.7l0,0c0.5,0.5,1.1,1,1.7,1.5
		c0.1,0,0.2,0,0.2,0c0.1,0,0.2,0,0.3,0s0.2,0,0.3,0c0.1,0,0.1,0,0.2,0c0,0,0.1,0,0.2,0s0.1,0,0.1,0c0,0,0,0,0.1,0
		c0.7,0,1.3-0.1,2-0.2l0.2,0L79.7,79.1L79.7,79.1L79.7,79.1z M59,63.6C59,63.6,59,63.6,59,63.6C59,63.6,59,63.6,59,63.6z M59.2,62.9
		c0,0,0-0.1,0-0.2C59.2,62.8,59.2,62.9,59.2,62.9z M62,60.9L62,60.9C62,60.9,62,60.9,62,60.9z M62.3,61.2L62.3,61.2
		C62.3,61.3,62.3,61.3,62.3,61.2z M62.7,61.6L62.7,61.6C62.7,61.6,62.7,61.6,62.7,61.6z M63.2,62L63.2,62L63.2,62z M76.8,74.8
		c0,0,0,0.1,0,0.2C76.8,74.9,76.8,74.9,76.8,74.8z M76.9,75.3c0,0.1,0,0.2,0,0.3C76.9,75.4,76.9,75.4,76.9,75.3z M77,75.7
		c0,0.1,0,0.3,0.1,0.3C77,76,77,75.8,77,75.7z M77.1,76.2c0,0.1,0.1,0.2,0.1,0.3C77.2,76.5,77.2,76.3,77.1,76.2z M77.4,76.7
		c0,0.1,0.1,0.2,0.2,0.3C77.4,76.9,77.4,76.8,77.4,76.7z M60.3,60.2c0.1-0.1,0.1-0.2,0.2-0.3C60.4,60,60.3,60.1,60.3,60.2z
		 M59.4,62.2c0,0,0-0.1,0-0.2C59.4,62.1,59.4,62.2,59.4,62.2z M59.6,61.5c0,0,0-0.1,0.1-0.2C59.7,61.4,59.6,61.5,59.6,61.5z
		 M59.9,60.8c0-0.1,0.1-0.2,0.1-0.3C60,60.7,60,60.7,59.9,60.8z"/>
	<path class="st0" d="M77.1,28.1l-3.8,0.1l0,0c-1.1,0.1-2,0.4-2.7,1c0,0-0.1,0.1-0.1,0.1c-0.1,0-0.1,0.1-0.2,0.2
		c0,0-0.1,0.1-0.2,0.2c0,0-0.1,0.1-0.1,0.1c-0.1,0.1-0.2,0.3-0.3,0.4l0,0c-0.1,0.2-0.3,0.4-0.4,0.6c-0.2,0.3-0.4,0.6-0.6,0.8
		c-1.4,1.3-2.5,1.7-4.9,1.5l0,0c0,0.1,1.3,0.8,2.3,1c0.1,0,0.1,0,0.2,0c0,0,0,0,0.1,0c0.1,0,0.2,0,0.3,0c0,0,0,0,0.1,0
		c0.1,0,0.1,0,0.2,0c1.3,0,3.1-0.5,4.1-1.5l0,0c0.1-0.1,0.2-0.2,0.3-0.3c0,0,0,0,0,0c0.2-0.2,0.3-0.5,0.4-0.7c0-0.1,0-0.1,0.1-0.2
		c0,0,0-0.1,0-0.2c0-0.1,0.1-0.2,0.1-0.2c0,0,0-0.1,0.1-0.1c0-0.1,0.1-0.2,0.2-0.3l0,0c0.9-1.2,2.5-1.8,3.7-2.3
		C76.4,28.4,76.8,28.3,77.1,28.1L77.1,28.1z M72.8,28.3C72.8,28.3,72.9,28.3,72.8,28.3C72.9,28.3,72.8,28.3,72.8,28.3z M74.4,29.3
		c0,0-0.1,0-0.1,0C74.3,29.3,74.4,29.3,74.4,29.3z M74,29.5c-0.1,0-0.2,0.1-0.3,0.1C73.8,29.6,73.9,29.5,74,29.5z M72.5,28.4
		C72.4,28.4,72.4,28.4,72.5,28.4C72.4,28.4,72.4,28.4,72.5,28.4z M63.8,33.2L63.8,33.2L63.8,33.2L63.8,33.2z"/>
	<path class="st1" d="M62.1,33.7l-1-1.5l0,0l0,0c-0.5-0.3-0.9-0.6-1.5-0.7h0c0,0,0,0-0.1,0c0,0,0,0,0,0s-0.1,0-0.1,0l0,0
		c-0.1,0-0.2,0.1-0.3,0.2s-0.2,0.2-0.3,0.3c-0.3,0.3-0.5,0.6-0.7,0.9C58,33,58,33.2,57.9,33.3l0,0l0.1,0.3l0,0l0,0
		c0.5,0.3,1,0.5,1.6,0.8h0c0.1,0,0.2,0,0.3,0.1c0,0,0,0,0.1,0c0,0,0.1,0,0.2,0c0,0,0.1,0,0.1,0c0,0,0.1,0,0.1,0c0.3,0,0.7-0.1,1-0.3
		c0.1-0.1,0.2-0.1,0.3-0.2C61.9,34,62,33.9,62.1,33.7L62.1,33.7z M61.5,34.2L61.5,34.2L61.5,34.2z M58,33.2C58,33.2,58,33.1,58,33.2
		C58,33.1,58,33.1,58,33.2z M59.6,31.5L59.6,31.5L59.6,31.5L59.6,31.5z M58.9,32C58.9,32,58.9,32,58.9,32C58.9,32,58.9,32,58.9,32z"
		/>
</g>
</svg>
