<?xml version="1.0" encoding="utf-8"?>
<!-- Generator: Adobe Illustrator 21.1.0, SVG Export Plug-In . SVG Version: 6.00 Build 0)  -->
<svg version="1.1" id="Layer_1" xmlns="http://www.w3.org/2000/svg" xmlns:xlink="http://www.w3.org/1999/xlink" x="0px" y="0px"
	 viewBox="0 0 200 200" style="enable-background:new 0 0 200 200;" xml:space="preserve">
<style type="text/css">
	.st0{fill:#FFFFFF;}
	.st1{fill:#C80C3E;}
</style>
<g>
	<path class="st0" d="M0,100c0,55.1,44.9,100,100,100c55.1,0,100-44.9,100-100C200,44.9,155.1,0,100,0C44.9,0,0,44.9,0,100"/>
	<path d="M2.7,100C2.7,46.3,46.3,2.7,100,2.7c53.7,0,97.3,43.7,97.3,97.3s-43.7,97.3-97.3,97.3C46.3,197.3,2.7,153.7,2.7,100"/>
	<path class="st0" d="M32,100c0,37.5,30.5,68,68,68c37.5,0,68-30.5,68-68c0-37.5-30.5-68-68-68C62.5,32,32,62.5,32,100"/>
	<path class="st1" d="M34.7,100c0-36,29.3-65.3,65.3-65.3c36,0,65.3,29.3,65.3,65.3c0,36-29.3,65.3-65.3,65.3
		C64,165.3,34.7,136,34.7,100"/>
	<path class="st0" d="M26.3,78.6c-0.3-0.1-0.6,0-0.8,0.1c-0.2,0.2-0.4,0.5-0.6,1l-0.6,2.4l-3.5-0.9l0.6-2.2l0.1,0
		c0.6,0.2,0.9,0.1,1,0.1c0.4-0.2,0.6-0.4,0.6-0.7c0.1-0.3,0-0.6-0.1-0.8c-0.2-0.2-0.5-0.4-1-0.6l-2.2-0.6c-0.5-0.1-0.9-0.1-1.2,0
		c-0.3,0.1-0.4,0.3-0.5,0.6c-0.1,0.3,0,0.6,0.2,0.9c0.1,0.1,0.3,0.2,0.9,0.4l0.1,0l-0.6,2.2l-3.5-0.9l1.5-5.9l1.3,0.3
		c0.5,0.1,0.9,0.1,1.2,0c0.3-0.1,0.4-0.3,0.5-0.6c0-0.1,0-0.2,0-0.3c0-0.2-0.1-0.4-0.2-0.5c-0.2-0.2-0.5-0.4-1-0.6
		c0,0-3.1-0.8-3.3-0.8c-0.1,0.2-2.7,10.3-2.7,10.3c-0.1,0.3-0.1,0.5-0.1,0.7c0,0.2,0,0.3,0.1,0.5c0.1,0.2,0.3,0.4,0.6,0.5
		c0.3,0.1,0.6,0,0.8-0.1c0.2-0.2,0.4-0.5,0.6-1l0.1-0.5l8.9,2.3l-0.1,0.5c-0.1,0.5-0.1,0.9,0,1.2c0.1,0.3,0.3,0.4,0.6,0.5
		c0.3,0.1,0.6,0,0.8-0.1c0.2-0.2,0.4-0.5,0.6-1l1.3-4.8c0.1-0.5,0.1-0.9,0-1.2C26.8,78.8,26.6,78.7,26.3,78.6"/>
	<path class="st0" d="M32.6,60.2c-0.3-0.1-0.5-0.1-0.8,0c-0.3,0.1-0.5,0.3-0.6,0.5c-0.1,0.1-0.1,0.3-0.1,0.4c0,0.1,0.1,0.4,0.2,0.7
		c0.2,0.5,0.3,1,0.2,1.4c-0.1,0.6-0.3,1.4-0.7,2.1c-0.6,1.3-1.5,2.2-2.5,2.5c-1,0.4-2.1,0.3-3.1-0.2l-1.3-0.7
		c-0.8-0.4-1.5-1-1.9-1.7c-0.4-0.7-0.6-1.4-0.7-2.1c0-0.7,0.1-1.3,0.4-1.9c0.2-0.5,0.6-1,1-1.4c0.4-0.4,0.9-0.7,1.3-0.8
		c0.2-0.1,0.5-0.1,0.9,0c0.4,0.1,0.8,0.1,1,0.1c0.2-0.1,0.4-0.2,0.5-0.5c0.1-0.3,0.1-0.5,0-0.8c-0.1-0.3-0.4-0.5-0.9-0.7l-1.7-0.9
		C23.4,56,23.1,56,22.8,56c-0.3,0.1-0.5,0.3-0.6,0.5c-0.1,0.2-0.1,0.3-0.1,0.5c0,0.2,0.1,0.4,0.2,0.6l0.1,0.1l-0.1,0.1
		c-0.5,0.3-1,0.7-1.3,1.1c-0.4,0.4-0.7,1-1,1.5c-0.5,1-0.7,2-0.6,3.1c0.1,1.1,0.4,2.1,1.1,3.1c0.7,0.9,1.5,1.7,2.6,2.2l1.4,0.7
		c1,0.5,2.1,0.7,3.2,0.6c1.1-0.1,2.1-0.5,2.8-1.1c1-0.7,1.7-1.7,2.3-2.9c0.5-1,0.8-2.1,0.9-3.1c0-0.8-0.1-1.4-0.3-2.1
		C33.1,60.6,32.9,60.3,32.6,60.2"/>
	<path class="st0" d="M55.2,36.4c-0.3,0-0.6,0.2-1,0.5L54,37l-6-7l0.1-0.1c0.4-0.3,0.6-0.7,0.7-0.9c0-0.3,0-0.5-0.2-0.8
		c-0.2-0.2-0.4-0.4-0.7-0.4c-0.3,0-0.6,0.2-1,0.5c0,0-2,1.7-2.1,1.8c0,0.1,2.2,7.4,2.2,7.4s-6.8-3.3-7-3.3c-0.1,0.1-2.1,1.8-2.1,1.8
		c-0.4,0.3-0.6,0.7-0.7,0.9c0,0,0,0.1,0,0.1c0,0.2,0.1,0.4,0.3,0.6c0.2,0.2,0.4,0.4,0.7,0.4c0.3,0,0.6-0.2,1-0.5l0.1-0.1l6,7
		l-0.1,0.1c-0.4,0.3-0.6,0.7-0.7,0.9c0,0.3,0,0.5,0.2,0.8c0.2,0.2,0.4,0.4,0.7,0.4c0.3,0,0.6-0.2,1-0.5l2.4-2
		c0.4-0.3,0.6-0.7,0.7-0.9c0-0.3,0-0.5-0.2-0.8c-0.2-0.2-0.4-0.4-0.7-0.4c-0.3,0-0.6,0.2-1,0.5l-0.7,0.6l-4.5-5.3l0.1-0.2
		c0,0,5.6,2.7,5.8,2.7c0.1-0.1,1.3-1.1,1.4-1.2c0-0.1-1.8-6.1-1.8-6.1l0.2-0.1l4.5,5.3L51.8,39c-0.4,0.3-0.6,0.7-0.7,0.9
		c0,0.3,0,0.5,0.2,0.8S51.8,41,52,41c0.3,0,0.6-0.2,1-0.5l2.4-2c0.4-0.3,0.6-0.7,0.7-0.9c0-0.3,0-0.5-0.2-0.8
		C55.7,36.6,55.4,36.4,55.2,36.4"/>
	<path class="st0" d="M66.7,29.9c-0.3-0.1-0.7,0-1.1,0.3l-2.1,1.2l-4.4-8.1l2.1-1.2c0.5-0.3,0.8-0.5,0.9-0.8
		c0.1-0.3,0.1-0.5-0.1-0.8c-0.2-0.3-0.4-0.4-0.6-0.5c-0.3-0.1-0.7,0-1.1,0.3l-6,3.3c-0.5,0.3-0.8,0.5-0.9,0.8
		c-0.1,0.3-0.1,0.5,0.1,0.8c0.2,0.3,0.4,0.4,0.6,0.5c0.3,0.1,0.7,0,1.1-0.3l2.1-1.2l4.4,8.1l-2.1,1.2c-0.5,0.3-0.8,0.5-0.9,0.8
		c-0.1,0.3-0.1,0.5,0.1,0.8c0.2,0.3,0.4,0.4,0.6,0.5c0.3,0.1,0.7,0,1.1-0.3l6-3.3c0.5-0.3,0.8-0.5,0.9-0.8c0.1-0.3,0.1-0.5-0.1-0.8
		C67.2,30.1,67,29.9,66.7,29.9"/>
	<path class="st0" d="M79.6,23.1c-0.1,0.6-0.5,1.2-0.9,1.7c-0.4,0.4-1,0.7-1.9,1l-2.4,0.7l-2.7-8.8L74,17c0.8-0.2,1.5-0.3,2.1-0.1
		c0.6,0.2,1.3,0.6,2,1.3c0.4,0.4,0.8,1,1,1.7l0.3,1C79.7,21.7,79.7,22.5,79.6,23.1 M81.1,19.3c-0.2-0.7-0.5-1.4-0.8-1.8
		c-0.3-0.5-0.7-0.9-1.2-1.3c-0.5-0.4-0.9-0.7-1.3-0.9c-0.5-0.3-1.2-0.4-1.9-0.5c-0.7-0.1-1.5,0-2.2,0.2l-4.6,1.4
		c-0.5,0.2-0.8,0.4-1,0.6c-0.1,0.2-0.2,0.5-0.1,0.8c0.1,0.3,0.3,0.5,0.5,0.6c0.3,0.1,0.6,0.1,1.2-0.1l0.1,0l2.7,8.8l-0.1,0
		c-0.5,0.2-0.8,0.4-1,0.6c-0.1,0.1-0.1,0.3-0.1,0.5c0,0.1,0,0.2,0.1,0.3c0.1,0.3,0.3,0.5,0.5,0.6c0.3,0.1,0.6,0.1,1.2-0.1l4.4-1.4
		c1.1-0.3,2-0.8,2.6-1.3c0.4-0.3,0.8-0.8,1.1-1.4c0.4-0.6,0.6-1.3,0.7-2.1c0.1-0.8,0-1.6-0.3-2.6L81.1,19.3z"/>
	<path class="st0" d="M97.3,10.9c-0.2,0-11.3,1-11.5,1.1c0,0.2,0.4,4.3,0.4,4.3c0,0.5,0.2,0.9,0.4,1.1c0.2,0.2,0.5,0.3,0.8,0.2
		c0.3,0,0.5-0.2,0.7-0.4c0.2-0.2,0.2-0.6,0.2-1.2l-0.2-2.3l2.7-0.2l0.9,9.2L90,22.8c-0.5,0-0.9,0.2-1.1,0.4
		c-0.2,0.2-0.3,0.5-0.2,0.8c0,0.3,0.2,0.5,0.4,0.7c0.2,0.2,0.6,0.2,1.2,0.2l5.3-0.5c0.5-0.1,0.9-0.2,1.1-0.4
		c0.2-0.2,0.3-0.5,0.2-0.8c0-0.3-0.2-0.5-0.4-0.7c-0.2-0.2-0.6-0.2-1.2-0.2l-1.7,0.2l-0.9-9.2l2.7-0.2l0.2,2.3
		c0.1,0.5,0.2,0.9,0.4,1.1c0.2,0.2,0.5,0.3,0.8,0.2c0.3,0,0.5-0.2,0.7-0.4c0.1-0.2,0.2-0.4,0.2-0.8c0-0.1,0-0.2,0-0.3
		C97.7,15.2,97.3,11.1,97.3,10.9"/>
	<path class="st0" d="M115.3,12.2l-6.3-0.7c-0.5-0.1-0.9,0-1.2,0.2c-0.2,0.2-0.4,0.4-0.4,0.7c0,0.3,0,0.6,0.2,0.8
		c0.2,0.2,0.6,0.3,1.1,0.4l2.9,0.3l-0.7,6.8c-0.1,0.5-0.1,0.8-0.2,1c-0.1,0.3-0.3,0.5-0.5,0.7c-0.3,0.2-0.6,0.4-1.1,0.6
		c-0.5,0.1-0.9,0.2-1.3,0.1c-0.8-0.1-1.6-0.4-2.6-1l-0.1,0l0.3-2.3c0.1-0.5,0-0.9-0.2-1.1c-0.2-0.2-0.4-0.4-0.7-0.4
		c-0.3,0-0.6,0-0.8,0.2c-0.2,0.2-0.3,0.5-0.4,1.1c0,0-0.4,3.5-0.4,3.7c1.9,1.2,3.4,1.8,4.6,2c0.9,0.1,1.8,0,2.7-0.4
		c0.9-0.4,1.6-0.9,2.1-1.6c0.3-0.5,0.5-1.1,0.6-2l0.8-7l1.4,0.2c0.5,0.1,0.9,0,1.2-0.2c0.2-0.2,0.4-0.4,0.4-0.7c0-0.3,0-0.6-0.2-0.8
		C116.2,12.3,115.9,12.2,115.3,12.2"/>
	<path class="st0" d="M133.1,17.5c-0.1-0.2-0.5-0.5-1-0.6l-2.6-0.8c-0.5-0.2-0.9-0.2-1.2-0.1c-0.3,0.1-0.4,0.3-0.5,0.6
		c-0.1,0.3-0.1,0.6,0.1,0.8c0.1,0.2,0.5,0.5,1,0.6l0.2,0.1l-3.4,2.6l-1.2-4l0.1,0c0.6,0,1-0.3,1.1-0.7c0.1-0.3,0.1-0.6-0.1-0.8
		c-0.1-0.2-0.5-0.5-1-0.6l-2-0.6c-0.5-0.2-0.9-0.2-1.2-0.1c-0.3,0.1-0.4,0.3-0.5,0.6c-0.1,0.3-0.1,0.6,0.1,0.8
		c0.1,0.2,0.5,0.5,1,0.6l0.1,0l1.9,6.6l-1.1,3.3l0,0.1l-1.6-0.5c-0.5-0.2-0.9-0.2-1.2-0.1c-0.3,0.1-0.4,0.3-0.5,0.6
		c-0.1,0.3-0.1,0.6,0.1,0.8c0.1,0.2,0.5,0.5,1,0.6l5.1,1.7c0.5,0.2,0.9,0.2,1.2,0.1c0.3-0.1,0.4-0.3,0.5-0.6
		c0.1-0.3,0.1-0.6-0.1-0.8c-0.1-0.2-0.5-0.5-1-0.6l-1.6-0.5L126,23l5.4-4.2l0.1,0c0.5,0.2,0.9,0.2,1.2,0.1s0.4-0.3,0.5-0.6
		C133.3,18,133.3,17.7,133.1,17.5"/>
	<path class="st0" d="M144.8,31.7c-0.3-0.2-0.5-0.2-0.8-0.1c-0.3,0.1-0.5,0.4-0.8,0.8l-1.1,2l-4.5-2.6l4.6-8l1.3,0.7
		c0.5,0.3,0.8,0.4,1.1,0.3c0.3-0.1,0.5-0.2,0.6-0.5c0.2-0.3,0.2-0.5,0.1-0.8c-0.1-0.3-0.4-0.5-0.8-0.8l-4.3-2.5
		c-0.5-0.3-0.8-0.4-1.1-0.3c-0.3,0.1-0.5,0.2-0.6,0.5c-0.2,0.3-0.2,0.5-0.1,0.8c0.1,0.3,0.4,0.5,0.8,0.8l1.3,0.7l-4.5,7.9l-0.1,0.1
		l-1.3-0.7c-0.5-0.3-0.8-0.4-1.1-0.3c-0.3,0.1-0.5,0.2-0.6,0.5c-0.1,0.2-0.1,0.3-0.1,0.5c0,0.1,0,0.2,0,0.3c0.1,0.3,0.4,0.5,0.8,0.8
		c0,0,9.1,5.2,9.3,5.3c0.1-0.2,2.1-3.8,2.1-3.8c0.2-0.4,0.3-0.7,0.3-1c0-0.1,0-0.1,0-0.2C145.2,32.1,145.1,31.9,144.8,31.7"/>
	<path class="st0" d="M157.7,42.2c-0.2-0.2-0.5-0.3-0.8-0.3c-0.3,0-0.6,0.3-1,0.7l-1.5,1.7l-3.9-3.4l6.1-6.9l1.1,1
		c0.4,0.4,0.8,0.5,1,0.5c0.3,0,0.5-0.1,0.7-0.3c0.2-0.2,0.3-0.5,0.3-0.8c0-0.3-0.3-0.6-0.7-1l-3.7-3.3c-0.4-0.4-0.7-0.5-1-0.5
		c-0.3,0-0.5,0.1-0.7,0.3c-0.2,0.2-0.3,0.5-0.3,0.8c0,0.3,0.3,0.6,0.7,1l1.1,1l-6,6.8l-0.1,0.1l-1.1-1c-0.4-0.4-0.8-0.5-1-0.5
		c-0.3,0-0.5,0.1-0.7,0.3c-0.2,0.2-0.3,0.4-0.3,0.6c0,0,0,0.1,0,0.1c0,0.3,0.3,0.6,0.7,1c0,0,7.9,6.9,8,7.1c0.1-0.2,2.9-3.3,2.9-3.3
		c0.4-0.4,0.5-0.8,0.5-1C158,42.7,157.9,42.4,157.7,42.2"/>
	<path class="st0" d="M163.9,49.4l5.2-1.4l-2.7,4.6L163.9,49.4 M166.1,58.8c0-0.1-0.1-0.4-0.5-0.9l0-0.1c0,0,6.2-10.3,6.2-10.4
		c-0.1-0.1-2.9-3.8-2.9-3.8c-0.3-0.4-0.6-0.7-0.9-0.7c-0.3-0.1-0.5,0-0.8,0.2c-0.2,0.2-0.4,0.4-0.4,0.7c0,0.3,0.1,0.6,0.4,1.1l1,1.3
		l-9.5,2.5l-0.1,0l0-0.1c-0.3-0.4-0.6-0.7-0.9-0.7c-0.3-0.1-0.5,0-0.8,0.2c-0.2,0.2-0.4,0.4-0.4,0.7c0,0.3,0.1,0.6,0.4,1.1l1.8,2.4
		c0.3,0.4,0.6,0.7,0.9,0.7c0.3,0.1,0.5,0,0.8-0.2c0.2-0.2,0.4-0.4,0.4-0.7c0-0.3-0.1-0.6-0.5-1.1l-0.4-0.6l1.7-0.5l3.4,4.5l-0.9,1.5
		l-0.4-0.6c-0.3-0.4-0.6-0.7-0.9-0.7c-0.3-0.1-0.5,0-0.8,0.2c-0.2,0.2-0.4,0.4-0.4,0.7c0,0.3,0.1,0.6,0.5,1.1l1.8,2.4
		c0.3,0.4,0.6,0.7,0.9,0.7c0.3,0.1,0.5,0,0.8-0.2C165.9,59.4,166,59.2,166.1,58.8C166.1,58.8,166.1,58.8,166.1,58.8z"/>
	<path class="st0" d="M180.8,67.5c0.2,0.5,0.5,0.8,0.7,0.9c0.3,0.1,0.5,0.1,0.8,0c0.3-0.1,0.5-0.3,0.5-0.6c0.1-0.3,0-0.7-0.2-1.1
		l-1.3-2.8c-0.2-0.5-0.5-0.8-0.7-0.9c-0.3-0.1-0.5-0.1-0.8,0c-0.3,0.1-0.5,0.3-0.5,0.6c-0.1,0.3,0,0.7,0.2,1.1l0.4,0.9l-6.7,3.2
		c0,0,5.9-9.4,5.9-9.5c0-0.1-1.1-2.3-1.1-2.3c-0.2-0.5-0.5-0.8-0.7-0.9c-0.3-0.1-0.5-0.1-0.8,0c-0.3,0.1-0.5,0.3-0.5,0.6
		c-0.1,0.3,0,0.7,0.2,1.1l0.2,0.4l-8.2,3.9l-0.1,0l0-0.1c-0.2-0.5-0.5-0.8-0.7-0.9c-0.3-0.1-0.5-0.1-0.8,0c-0.3,0.1-0.5,0.3-0.5,0.6
		c-0.1,0.3,0,0.7,0.2,1.1l1.3,2.8c0.2,0.5,0.5,0.8,0.7,0.9c0.3,0.1,0.5,0.1,0.8,0c0.3-0.1,0.5-0.3,0.5-0.6c0.1-0.3,0-0.7-0.2-1.1
		l-0.4-0.9l6.7-3.2c0,0-5.9,9.4-6,9.5c0,0.1,0.8,1.7,0.9,1.9C170.8,72.2,180.8,67.4,180.8,67.5L180.8,67.5"/>
	<path class="st0" d="M184.4,81.2c-0.2,0.6-0.7,1.3-1.4,1.9c-0.5,0.4-1.1,0.7-1.8,0.9l-1.1,0.3c-0.8,0.2-1.6,0.2-2.2,0
		c-0.6-0.2-1.2-0.5-1.6-1.1c-0.4-0.4-0.7-1.1-0.9-2l-0.6-2.5l8.9-2.2l0.6,2.5C184.6,79.9,184.6,80.6,184.4,81.2 M185.3,74
		c-0.1-0.5-0.3-0.9-0.5-1c-0.2-0.2-0.5-0.2-0.8-0.1c-0.3,0.1-0.5,0.2-0.6,0.5c-0.1,0.2-0.1,0.6,0,1.2l0,0.1l-8.8,2.1l-0.1,0l0-0.1
		c-0.1-0.5-0.3-0.9-0.5-1c-0.2-0.2-0.5-0.2-0.8-0.1c-0.3,0.1-0.5,0.2-0.6,0.5c-0.1,0.2-0.1,0.6,0,1.2l1.1,4.5c0.3,1.1,0.7,2,1.2,2.7
		c0.3,0.4,0.8,0.8,1.3,1.2c0.6,0.4,1.3,0.7,2,0.8c0.8,0.1,1.6,0.1,2.6-0.1l1.1-0.3c0.8-0.2,1.4-0.4,1.9-0.7c0.5-0.3,1-0.7,1.4-1.2
		c0.4-0.5,0.8-0.9,1-1.3c0.3-0.5,0.5-1.1,0.6-1.9c0.1-0.7,0.1-1.5-0.1-2.2L185.3,74z"/>
	<path class="st0" d="M73.4,171.8c-0.5,0-0.8,0-1,0.1c-0.2,0.1-0.3,0.3-0.4,0.6c-0.1,0.3-0.1,0.6,0,0.8c0.1,0.3,0.3,0.4,0.5,0.5
		c0.1,0,0.4,0.1,0.7,0.1l2.3,0.1l-2.9,9.2l0,0.1l-2.3-0.7c-0.5-0.2-0.9-0.2-1.2-0.1c-0.3,0.1-0.4,0.3-0.5,0.6
		c-0.1,0.3-0.1,0.6,0.1,0.8c0.1,0.2,0.5,0.4,1,0.6l6.6,2.1c0.5,0.2,0.9,0.2,1.2,0.1c0.3-0.1,0.4-0.3,0.5-0.6c0-0.1,0.1-0.2,0.1-0.3
		c0-0.2,0-0.3-0.1-0.5c-0.1-0.2-0.5-0.4-1-0.6l-2.3-0.7c0,0,3.7-11.6,3.8-11.9C78,172,73.4,171.8,73.4,171.8"/>
	<path class="st0" d="M94.6,180.1c-1,1.7-2.1,2.5-3.2,2.4c-0.6-0.1-1.1-0.4-1.6-1c-0.3-0.5-0.5-1.1-0.5-1.8c0-0.1,0-0.3,0-0.5
		c0.1-0.8,0.4-1.5,0.9-2c0.5-0.5,1.1-0.7,1.8-0.6c0.6,0.1,1.2,0.4,1.6,0.9C94.2,178.2,94.5,179,94.6,180.1L94.6,180.1L94.6,180.1
		 M95,176c-0.7-0.7-1.7-1.2-2.7-1.3c-1.5-0.2-2.8,0.3-3.7,1.5c-0.7,0.8-1.1,1.8-1.2,2.9c-0.1,1.4,0.2,2.7,1,3.7c0.8,1,1.8,1.6,3,1.7
		c0.5,0.1,1,0,1.5-0.1c0.5-0.2,1-0.4,1.6-0.9l0.3-0.2l-0.1,0.3c-0.4,1.1-1.1,2-2.1,2.7c-1.1,0.7-2.2,1-3.4,0.9
		c-0.3,0-0.6-0.1-0.9-0.3c-0.2-0.1-0.4-0.2-0.5-0.2c-0.3,0-0.5,0-0.8,0.2c-0.2,0.2-0.3,0.4-0.4,0.7c0,0.4,0.1,0.7,0.4,0.9
		c0.4,0.4,1.1,0.6,2,0.7c1.6,0.2,3.2-0.2,4.6-1.1c1.9-1.2,3-2.9,3.2-5.2c0.1-1.3,0.1-2.7-0.2-4C96.3,177.8,95.8,176.8,95,176z"/>
	<path class="st0" d="M110.8,179.6c-0.7,1.9-1.6,2.9-2.6,3h0c-0.6,0.1-1.2-0.2-1.7-0.7c-0.5-0.5-0.8-1.2-0.9-2.1
		c-0.1-0.8,0.1-1.5,0.5-2.1c0.4-0.6,1-0.9,1.7-0.9c0.6-0.1,1.2,0.1,1.8,0.5C110,177.8,110.5,178.5,110.8,179.6L110.8,179.6
		L110.8,179.6 M112.5,178.2c-0.5-1.2-1.2-2.1-2.1-2.7c-0.9-0.6-1.9-0.8-2.9-0.7c-1.5,0.1-2.6,0.9-3.3,2.2c-0.5,1-0.7,2-0.6,3.1
		c0.1,1.4,0.7,2.6,1.7,3.4c1,0.9,2.1,1.2,3.3,1.1c0.5-0.1,1-0.2,1.4-0.4c0.4-0.2,0.9-0.6,1.4-1.2l0.2-0.2l0,0.3
		c-0.1,1.2-0.6,2.2-1.5,3.1l0,0c-0.9,0.9-2,1.4-3.1,1.5c-0.3,0-0.7,0-1-0.1c-0.2-0.1-0.4-0.1-0.6-0.1c-0.3,0-0.5,0.1-0.7,0.4
		c-0.2,0.2-0.3,0.5-0.2,0.8c0,0.4,0.2,0.6,0.5,0.8c0.5,0.3,1.2,0.4,2.1,0.3c1.6-0.2,3.1-0.8,4.3-2c1.6-1.5,2.3-3.5,2.1-5.8
		C113.3,180.7,113,179.4,112.5,178.2z"/>
	<path class="st0" d="M126.6,175.8c-0.3,2-0.9,3.1-2,3.5c-0.6,0.2-1.2,0.1-1.8-0.3c-0.6-0.4-1.1-1-1.3-1.8c-0.2-0.8-0.2-1.5,0.1-2.2
		c0.3-0.6,0.8-1.1,1.4-1.3c0.6-0.2,1.2-0.1,1.9,0.2C125.4,174.2,126,174.8,126.6,175.8L126.6,175.8L126.6,175.8 M127.9,174.1
		c-0.7-1.1-1.6-1.8-2.6-2.2c-1-0.4-2-0.4-3-0.1c-1.4,0.4-2.4,1.4-2.8,2.8c-0.3,1-0.3,2.1,0,3.2c0.4,1.4,1.2,2.4,2.3,3
		c1.1,0.6,2.3,0.8,3.4,0.4c0.5-0.2,0.9-0.4,1.3-0.7c0.4-0.3,0.8-0.8,1.2-1.4l0.2-0.3l0,0.3c0.1,1.2-0.2,2.3-0.9,3.4
		c-0.7,1.1-1.6,1.8-2.7,2.1c-0.3,0.1-0.7,0.1-1,0.1c-0.2,0-0.4,0-0.6,0c-0.3,0.1-0.5,0.2-0.6,0.5c-0.1,0.2-0.2,0.5-0.1,0.8
		c0.1,0.3,0.3,0.6,0.7,0.7c0.6,0.2,1.3,0.2,2.1-0.1c1.6-0.5,2.8-1.4,3.8-2.9c1.3-1.8,1.6-3.9,0.9-6.1
		C129.3,176.3,128.7,175.1,127.9,174.1z"/>
	<polyline class="st0" points="80.6,87.8 68.7,99.9 48.2,72.9 80.6,87.8 	"/>
	<polyline class="st0" points="119.4,87.8 131.3,99.9 151.8,72.9 119.4,87.8 	"/>
	<path class="st0" d="M109,137.2c3.4,0,3.3,2.6,3.3,2.6c0,1.6-1.8,5.5-1.8,5.5l-3.1,7.3l17.1-15.6l-14.9-51.1H90.3L75.4,137
		l17.1,15.6l-3.1-7.3c0,0-1.8-3.9-1.8-5.5c0,0,0-2.6,3.3-2.6C94.4,137.2,105.6,137.2,109,137.2"/>
</g>
</svg>
