<?xml version="1.0" encoding="utf-8"?>
<!-- Generator: Adobe Illustrator 21.1.0, SVG Export Plug-In . SVG Version: 6.00 Build 0)  -->
<svg version="1.1"
	 id="svg3630" inkscape:version="0.91 r13725" sodipodi:docname="ordabasy.svg" xmlns:cc="http://creativecommons.org/ns#" xmlns:dc="http://purl.org/dc/elements/1.1/" xmlns:inkscape="http://www.inkscape.org/namespaces/inkscape" xmlns:rdf="http://www.w3.org/1999/02/22-rdf-syntax-ns#" xmlns:sodipodi="http://sodipodi.sourceforge.net/DTD/sodipodi-0.dtd" xmlns:svg="http://www.w3.org/2000/svg"
	 xmlns="http://www.w3.org/2000/svg" xmlns:xlink="http://www.w3.org/1999/xlink" x="0px" y="0px" viewBox="0 0 200 200"
	 style="enable-background:new 0 0 200 200;" xml:space="preserve">
<style type="text/css">
	.st0{fill:#FEDD00;}
	.st1{fill:#005AA6;}
	.st2{fill:#FFFFFF;}
	.st3{fill:#000200;}
	.st4{fill:#58C1C0;}
	.st5{fill:url(#path3710_1_);}
	.st6{fill:#6B9C96;}
	.st7{fill:#3B3B3B;}
	.st8{fill:#00A12E;}
	.st9{fill:#1B1918;}
	.st10{fill:url(#path3904_1_);}
	.st11{fill:url(#path3936_1_);}
</style>
<g>
	<path id="path3644" inkscape:connector-curvature="0" class="st0" d="M100,0c55.2,0,100,44.8,100,100s-44.8,100-100,100
		S0,155.2,0,100S44.8,0,100,0L100,0z"/>
	<path id="path3646" inkscape:connector-curvature="0" class="st1" d="M100,1.8c54.3,0,98.2,44,98.2,98.2c0,54.3-44,98.2-98.2,98.2
		c-54.3,0-98.2-44-98.2-98.2C1.8,45.7,45.7,1.8,100,1.8z"/>
	<path class="st2" d="M100,4c53,0,96,43,96,96s-43,96-96,96S4,153,4,100S47,4,100,4z"/>
	<path class="st1" d="M100,5c52.5,0,95,42.5,95,95s-42.5,95-95,95S5,152.5,5,100S47.5,5,100,5z"/>
	<path id="path3648" inkscape:connector-curvature="0" class="st0" d="M100,26.8c40.4,0,73.2,32.8,73.2,73.2s-32.8,73.2-73.2,73.2
		S26.8,140.4,26.8,100S59.6,26.8,100,26.8z"/>
	<path id="path3650" inkscape:connector-curvature="0" class="st2" d="M100,29c39.2,0,71,31.8,71,71s-31.8,71-71,71s-71-31.8-71-71
		S60.8,29,100,29L100,29z"/>
	<path id="path3656" inkscape:connector-curvature="0" class="st1" d="M100.3,32.9c25.5,0,46.1,20.7,46.1,46.1s-20.7,46.1-46.1,46.1
		s-46.1-20.7-46.1-46.1S74.9,32.9,100.3,32.9z"/>
	<path id="path3658" inkscape:connector-curvature="0" class="st3" d="M100.3,33.7c25,0,45.3,20.3,45.3,45.3s-20.3,45.3-45.3,45.3
		S55,104.1,55,79.1S75.3,33.7,100.3,33.7L100.3,33.7z"/>
	<path id="path3660" inkscape:connector-curvature="0" class="st0" d="M68.5,92.4c5.2,12.5,17.5,21.2,31.9,21.2s26.7-8.8,31.9-21.3
		l10.1,3.8c-0.5,1.1-0.9,2.2-1.5,3.3l-2.9-1.4l-1.3,2.5l2.6,1.8c-7.9,13.2-22.4,22-38.9,22s-30.9-8.8-38.8-21.9l2.7-1.9l-1.3-2.5
		l-3.1,1.5c-0.5-1.1-1.1-2.2-1.5-3.3L68.5,92.4L68.5,92.4z"/>
	<path id="path3664" inkscape:connector-curvature="0" class="st2" d="M140.8,99.5c-0.5,0.9-1,1.8-1.5,2.7l-2.5-1.7l1.2-2.3
		L140.8,99.5L140.8,99.5z"/>
	<path id="path3666" inkscape:connector-curvature="0" class="st2" d="M143.1,94.2c-0.2,0.6-0.5,1.2-0.7,1.8l-2.9-1.1l0.6-1.7
		L143.1,94.2L143.1,94.2z"/>
	<path id="path3668" inkscape:connector-curvature="0" class="st2" d="M144.8,88.1c-0.2,1-0.5,2-0.7,2.9l-3.1-1.1l0.6-2.2
		L144.8,88.1z"/>
	<path id="path3670" inkscape:connector-curvature="0" class="st2" d="M145.3,84.9c-0.1,1-0.3,2.1-0.5,3.1l-3.4-0.3l-0.7,2.5
		l3.3,1.1c-0.3,0.9-0.5,1.9-0.9,2.8l-3.1-1l-0.7,1.8l-7.1-2.7c1.2-3,2.1-6.1,2.4-9.5h7.2l0.1,2L145.3,84.9L145.3,84.9z"/>
	<path id="path3672" inkscape:connector-curvature="0" class="st2" d="M145.5,82.7c-0.1,0.7-0.1,1.4-0.2,2.1l-3.2-0.2l-0.1-1.9
		H145.5L145.5,82.7z"/>
	<path id="path3674" inkscape:connector-curvature="0" class="st2" d="M55.4,84.8c-0.1-0.7-0.1-1.4-0.2-2.1h3.7l-0.1,1.9L55.4,84.8
		L55.4,84.8z"/>
	<path id="path3676" inkscape:connector-curvature="0" class="st2" d="M56.7,91.2c-0.3-1-0.5-2-0.7-3l3.4-0.3l0.6,2.2L56.7,91.2z"/>
	<path id="path3678" inkscape:connector-curvature="0" class="st2" d="M58.3,96.1c-0.3-0.6-0.5-1.2-0.7-1.8l3.2-1l0.6,1.7
		C61.4,94.9,58.3,96.1,58.3,96.1z"/>
	<path id="path3680" inkscape:connector-curvature="0" class="st2" d="M61.5,102.4c-0.5-0.9-1.1-1.8-1.5-2.7l2.9-1.4l1.2,2.3
		L61.5,102.4z"/>
	<path id="path3682" inkscape:connector-curvature="0" class="st2" d="M66.1,82.7c0.3,3.3,1.2,6.5,2.4,9.5l-6.9,2.6l-0.7-1.8l-3.3,1
		c-0.3-0.9-0.6-1.9-0.9-2.8l3.5-1.2l-0.7-2.5L55.9,88c-0.2-1-0.4-2-0.5-3.1l3.5-0.3l0.1-2C59,82.7,66.1,82.7,66.1,82.7z"/>
	<path id="path3684" inkscape:connector-curvature="0" class="st2" d="M100.3,33.7c25,0,45.3,20.3,45.3,45.3c0,1.2-0.1,2.3-0.1,3.5
		h-10.8c0.1-1.1,0.2-2.3,0.2-3.5c0-19.1-15.5-34.5-34.5-34.5S65.9,60,65.9,79.1c0,1.2,0.1,2.4,0.2,3.5H55.1
		c-0.1-1.1-0.1-2.3-0.1-3.5C55,54.1,75.3,33.7,100.3,33.7z"/>
	<path id="path3686" inkscape:connector-curvature="0" class="st3" d="M100.4,44.5c19.1,0,34.5,15.5,34.5,34.5s-15.5,34.5-34.5,34.5
		S65.9,98.1,65.9,79.1S81.3,44.5,100.4,44.5z M100.4,44.7c19,0,34.4,15.4,34.4,34.4s-15.4,34.4-34.4,34.4S66,98.1,66,79.1
		C66,60.1,81.4,44.7,100.4,44.7z"/>
	<path id="path3688" inkscape:connector-curvature="0" class="st4" d="M100.4,44.7c19,0,34.4,15.4,34.4,34.4s-15.4,34.4-34.4,34.4
		S66,98.1,66,79.1C66,60.1,81.4,44.7,100.4,44.7z"/>
	<path id="path3690" inkscape:connector-curvature="0" class="st3" d="M67.9,90.5l-0.3-0.9l15.1-7.2l10.6,5.6l13.7,0.1l10.3-5.5
		l15.6,7.5l-0.7,1.7L67.9,90.5L67.9,90.5z"/>
	<path id="path3692" inkscape:connector-curvature="0" class="st2" d="M132.7,90.7l-13.1-4l-4.5,2.1l-1.3-1.3l-6.7,2.5l-13.6-0.2
		l-7.3-2.6l-1.3,1.2l-4.5-2.1l-12.6,3.9c2.5,7.3,7.5,13.5,13.8,17.7c5.1-4.2,11.5-6.7,18.5-6.7c7.1,0,13.6,2.5,18.7,6.8
		C125.2,104,130.1,97.9,132.7,90.7L132.7,90.7z M132.9,90.4l-0.1,0.3l-13.1-4l-4.5,2.1l-1.3-1.3l-6.8,2.5l-13.5-0.2l-7.3-2.7
		l-1.3,1.2l-4.5-2.1l-12.7,3.9c-0.1-0.1-0.1-0.2-0.1-0.3l15-7.1l10.6,5.6l13.8,0.1l10.3-5.5L132.9,90.4L132.9,90.4z"/>
	<path id="path3696" inkscape:connector-curvature="0" class="st3" d="M94.2,46.7l5.6-13c0.1,0,0.3,0,0.5,0l6.1,13l5-3.3v17l-2,1.6
		v40.9H91.4V62.3l-1.9-1.7V43.5L94.2,46.7L94.2,46.7z"/>
	<path id="path3698" inkscape:connector-curvature="0" class="st2" d="M89.7,43.7v16.9l1.9,1.7v40.5h2.3V56.9h2.4v-2.1h7.9v2.1h2.3
		v45.9h2.6V62l2-1.6V43.7l-11,7.4L89.7,43.7L89.7,43.7z M94.1,102.8h2.2V60.5c0-3.3,7.9-3.2,7.9,0v42.3h2.2V57h-2.3v-2.1h-7.7V57H94
		L94.1,102.8L94.1,102.8z M96.4,102.8h7.6V60.5c0-3-7.6-3.1-7.6,0V102.8z"/>
	
		<linearGradient id="path3710_1_" gradientUnits="userSpaceOnUse" x1="828.3714" y1="1559.5463" x2="828.3714" y2="1586.5229" gradientTransform="matrix(0.4402 0 0 0.6361 -264.3491 -958.2817)">
		<stop  offset="1" style="stop-color:#FFFFFF"/>
		<stop  offset="1" style="stop-color:#F8F9F9"/>
		<stop  offset="1" style="stop-color:#C5C7C8"/>
	</linearGradient>
	<path id="path3710" inkscape:connector-curvature="0" class="st5" d="M94.3,46.9l5.7-13.1h0.1l6.1,13.1l-6.1,4.1L94.3,46.9
		L94.3,46.9z"/>
	<path id="path3712" inkscape:connector-curvature="0" class="st6" d="M97.5,64.6l2.6-2.5l2.8,2.5v39.2h-5.5L97.5,64.6L97.5,64.6z"
		/>
	<path id="path3714" inkscape:connector-curvature="0" class="st4" d="M100.2,101.2c7.1,0,13.6,2.5,18.7,6.8
		c-5.3,3.4-11.7,5.4-18.5,5.4c-6.9,0-13.3-2-18.7-5.5C86.7,103.7,93.2,101.2,100.2,101.2z"/>
	<path id="path3716" inkscape:connector-curvature="0" class="st2" d="M100.2,108.3c-1.9-0.4-3.9-1.5-5.3-3c-1.1-1.1-2-2.5-2.6-4.1
		c-0.5,0.9-0.5,2.3,0.1,3.3c-0.7-0.1-1.5,0-1.9-0.1c0.4,1.4,1.5,1.8,3.3,1.9c0.1,0,0.4,0.1,0.5,0.2c-0.9,0.1-0.9,0.2-1.8,0.2
		c0.2,0.5,1,0.8,1.9,0.9c0.9,0.1,2,0,1.9,0.3c-0.5,0.2-1.1,0.2-1.6,0.3c0.8,0.5,3.4,0.3,3.5,0.6c-1.1,0.4-1.9,0.5-2.5,0.9
		c-0.6,0.3-1,0.7-1.1,1.1c1.9,0.5,2.8-0.8,4.4-1.2c0.9-0.2,1.1,0.1,1.1,0.6v2.1h1.1l-0.1-2.3c0.1-0.3,0.3-0.4,1-0.3
		c1.6,0.4,2.3,1.7,4.1,1.1c-0.1-0.4-0.5-0.8-1.1-1.1c-0.7-0.3-1.3-0.5-2.3-0.9c0.1-0.3,2.6-0.1,3.4-0.6c-0.5-0.1-1.3-0.2-1.8-0.4
		c-0.1-0.3,1.3-0.1,2.2-0.2c0.9-0.1,1.6-0.5,1.8-1c-0.9-0.1-1.5-0.1-1.8-0.2c0.1-0.1,0.3-0.1,0.4-0.2c0.9-0.1,1.7-0.3,2.3-0.6
		c0.5-0.3,0.7-0.7,1.1-1.4c-0.4,0.1-1.2,0.1-1.9,0.1c0.7-1.1,0.7-2.6,0.1-3.5c-0.6,1.6-1.5,3.2-2.5,4.3c-1.5,1.5-3.3,2.5-5.1,2.9
		l-0.1-1l1.3-1.5c0.3,0.3,0.7,0.5,1.1,0.5c0.7,0,1.4-0.5,1.4-1.1s-0.6-1.1-1.4-1.1c-0.8,0-1.4,0.5-1.4,1.1c0,0.1,0,0.2,0.1,0.3
		l-1.2,1.1l-0.1-2l1.2-1.1c0.3,0.2,0.6,0.3,1,0.3c0.7,0,1.4-0.5,1.4-1.1c0-0.6-0.6-1.1-1.4-1.1c-0.7,0-1.4,0.5-1.4,1.1
		c0,0.2,0.1,0.4,0.2,0.6l-1.1,0.9l-0.1-2.1l0.9-0.9c0.2,0.1,0.5,0.1,0.7,0.1c0.7,0,1.4-0.5,1.4-1.1c0-0.6-0.6-1.1-1.4-1.1
		c-0.7,0-1.4,0.5-1.4,1.1c0,0.3,0.2,0.6,0.5,0.8l-0.7,0.7l-0.1-2.4c0.7,0,1.3-0.5,1.3-1.1c0-0.6-0.6-1.1-1.4-1.1s-1.4,0.5-1.4,1.1
		c0,0.5,0.5,1,1.1,1.1v2.5l-0.8-0.7c0.1-0.2,0.3-0.4,0.3-0.6c0-0.6-0.6-1.1-1.3-1.1s-1.3,0.5-1.3,1.1c0,0.6,0.6,1.1,1.3,1.1
		c0.3,0,0.7-0.1,0.9-0.3l0.9,0.9l0.1,1.9l-1.1-0.9c0.1-0.1,0.1-0.3,0.1-0.5c0-0.6-0.6-1.1-1.3-1.1s-1.3,0.5-1.3,1.1
		c0,0.6,0.6,1.1,1.3,1.1c0.4,0,0.8-0.2,1.1-0.4l1.2,1.1v2.2l-1.2-1.1c0.1-0.1,0.1-0.3,0.1-0.5c0-0.6-0.6-1.1-1.3-1.1
		s-1.3,0.5-1.3,1.1c0,0.6,0.6,1.1,1.3,1.1c0.4,0,0.8-0.1,1.1-0.4l1.3,1.3L100.2,108.3L100.2,108.3z"/>
	<path id="path3718" inkscape:connector-curvature="0" class="st7" d="M72.9,104.2c0,0.1,0,0.1-0.1,0.1v0.1l-0.1-0.1
		c-0.2-0.3-0.4-0.5-0.5-0.9c-0.4,0.4-0.8,0.2-1.2-0.1c-0.5-0.5-0.7-1.3-0.5-1.9c0-0.1-0.1-0.1-0.1-0.3l-0.1-0.1h0.1
		c0.2,0,0.3,0.1,0.4,0.3c0.1,0,0.1-0.1,0.1-0.1L71,101l0.1,0.1c0.1,0.1,0.1,0.3,0.1,0.5c0.2,0.1,0.4,0.5,0.2,0.7l-0.1,0.1v-0.1
		c0,0,0-0.1-0.1-0.1s-0.1,0.1-0.1,0.2c0,0.1,0.1,0.3,0.3,0.3c0.3,0,0.3-0.4,0.3-0.6c0-0.5-0.5-1.7-1.2-1.6c-0.3,0-0.4,0.3-0.5,0.5
		c-0.1,0.5,0.1,1,0.2,1.5c0.6,1.5,2.1,2.1,3.4,2.8c1.8,0.9,3.6,1.5,5.3,2.7c1,0.7,1.7,1.7,2.1,2.9c1.5-0.3,3,0.5,4.2,1.2
		c1.5,0.9,2.9,2,4.3,3c1.7,1.2,4.3,3.1,6.4,3.3c0.8,0.1,1.9,0.1,2.6-0.3c0.5-0.3,0.7-0.7,0.3-1.2c-0.4-0.4-1.3-0.6-1.9-0.6
		c-0.4,0-1.5,0.1-1.6,0.6c0,0.1,0,0.1,0,0.1c0.1,0.3,0.9,0.4,1.1,0.2c-0.1-0.1-0.4-0.1-0.5-0.2l-0.3-0.1L96,117
		c0.3-0.1,0.6-0.1,0.9,0.1c0.1-0.1,0.3-0.2,0.5-0.3h0.1h0.1c0.2,0.1,0.3,0.3,0.4,0.5c0.2,0,0.5,0,0.7,0.2l0.1,0.1l-0.2-0.1
		c-0.1-0.1-0.3,0-0.5,0.1c-0.2,0.2-0.4,0.4-0.7,0.5c-0.5,0.2-1.2,0.2-1.7,0.1c-0.7-0.1-1.6-0.5-1.6-1.3c-0.5,0.1-1,0.1-1.5,0h-0.1
		v-0.1c0-0.1,0.1-0.2,0.1-0.3c-0.7-0.1-1.3-0.3-1.8-0.7l-0.1-0.1l0.1-0.1c0.1-0.1,0.1-0.1,0.3-0.1c-0.5-0.3-1-0.7-1.1-1.3l-0.1-0.2
		l0.2,0.1c1.1,0.9,2.7,1.1,4,1.2c1.7,0.1,4.1,0.1,5.5,0.7l0.9-0.7l0.9,0.8c1.4-0.7,3.7-0.9,5.2-0.9c1.3-0.1,3.2-0.3,4.2-1.3l0.2-0.1
		l-0.1,0.2c-0.1,0.5-0.5,0.9-1,1.2c0.1,0.1,0.1,0.1,0.2,0.1l0.1,0.1l-0.1,0.1c-0.5,0.3-1.2,0.5-1.8,0.6c0,0.1,0.1,0.1,0.1,0.1
		l0.1,0.1h-0.1c-0.4,0.2-1,0.3-1.5,0.2c0.1,0.8-1,1.2-1.7,1.3c-0.6,0.1-1.2,0.1-1.7,0c-0.3-0.1-0.5-0.3-0.7-0.4
		c-0.1-0.1-0.3-0.1-0.5-0.1l-0.2,0.1l0.1-0.1c0.1-0.2,0.5-0.3,0.8-0.3c0.1-0.2,0.3-0.3,0.4-0.4l0,0h0.1c0.2,0.1,0.3,0.2,0.5,0.3
		c0.3-0.1,0.5-0.2,0.8-0.1l0.2,0.1l-0.3,0.1c-0.1,0-0.3,0.1-0.4,0.2c0.3,0.2,1,0.1,1.1-0.3c0-0.1,0-0.1,0-0.1
		c-0.1-0.5-1.4-0.5-1.8-0.5c-0.5,0.1-1.3,0.2-1.7,0.6c-0.5,0.5-0.1,0.9,0.3,1.1c0.7,0.4,1.7,0.3,2.5,0.2c2.1-0.3,4.6-2.2,6.3-3.4
		c1.3-1,2.7-2.1,4.1-2.9c1.2-0.7,2.8-1.6,4.3-1.4c0.5-1.1,1.1-1.9,2.1-2.7c1.6-1.3,3.4-1.9,5.2-2.7c1.3-0.7,2.9-1.4,3.5-2.9
		c0.1-0.4,0.3-0.9,0.2-1.3c-0.1-0.2-0.2-0.4-0.5-0.5c-0.7-0.1-1.2,1.1-1.2,1.6c0,0.1,0.1,0.5,0.3,0.5c0.1,0,0.3-0.2,0.3-0.3
		c0-0.1,0-0.2-0.1-0.2c-0.1,0-0.1,0.1-0.1,0.1l-0.1,0.3l-0.1-0.3c-0.1-0.3,0-0.5,0.3-0.7c0-0.1,0-0.3,0-0.5v-0.1h0.1
		c0.1,0,0.2,0,0.3,0.1c0.1-0.1,0.3-0.3,0.4-0.2h0.1l-0.1,0.1c-0.1,0.1-0.1,0.1-0.1,0.2c0.1,0.7-0.2,1.5-0.7,2
		c-0.3,0.4-0.7,0.5-1.1,0.1c-0.1,0.3-0.3,0.7-0.5,0.9l-0.1,0.1l-0.1-0.1c0-0.1-0.1-0.1-0.1-0.1c-0.3,0.3-0.6,0.6-0.9,0.9l-0.1,0.1
		v-0.1c0-0.1,0-0.2-0.1-0.3c-0.3,0.1-0.8,0.1-1.1,0l-0.2-0.1l0.2-0.1c0.8-0.3,1.3-0.7,1.8-1.4c0.8-1.1,1.3-2.8,2.6-3.5v-0.9l0.7-0.1
		c0.1-0.8,0.5-1.7,1-2.3c0.6-0.9,1-1.1,1.2-2.3v-0.2l0.1,0.1c0.2,0.3,0.2,0.6,0.1,0.9c0.1,0,0.1,0,0.1,0h0.1v0.1
		c-0.1,0.3-0.2,0.7-0.3,1c0.1,0,0.1,0,0.1,0.1h0.1v0.1c-0.1,0.2-0.3,0.5-0.5,0.7c0.3,0.4,0.3,1.1,0.1,1.6c-0.1,0.3-0.5,0.7-0.9,0.7
		c-0.1,0-0.1-0.1-0.2,0.1l-0.1,0.2v-0.3c0-0.2,0-0.3,0.1-0.5c-0.1-0.1-0.1-0.3-0.1-0.4v-0.1h0.1c0.1,0,0.1,0,0.2,0
		c0-0.2,0.1-0.3,0.3-0.5l0.1-0.1v0.2c0,0.1-0.1,0.5,0.1,0.3c0.2-0.1,0.1-0.5,0-0.7c-0.2-0.2-0.4-0.1-0.5,0.1
		c-0.1,0.1-0.3,0.4-0.3,0.6c-0.1,0.4-0.2,1.4,0.4,1.5c0.5,0.1,0.9-0.6,1.1-1c0.2-0.5,0.3-1.1,0.4-1.6c0.1-0.5,0.1-0.9,0.3-1.3
		c0.1-0.4,0.3-1,0.8-1c0.2,0,0.4,0.1,0.5,0.3c0.1,0.1,0.1,0.4,0.1,0.7c0.1-0.1,0.3-0.1,0.5,0.1c0.3,0.2,0.5,0.7,0.4,1.1
		c-0.1,0.3-0.2,0.5-0.4,0.8c-0.3,0.3-0.5,0.5-0.8,0.7c-0.5,0.4-0.9,0.9-1.1,1.5c-0.2,0.5-0.5,1.6-0.1,2.1c0.2,0.3,0.4,0.3,0.7,0
		c0.2-0.2,0.3-0.5,0.4-0.8c0.1-0.3,0.1-0.7,0.1-0.9c-0.1-0.2-0.3-0.3-0.4-0.1c-0.1,0.1-0.1,0.3,0,0.3c0.1,0,0.1-0.1,0.1-0.1l0.1-0.2
		l0.1,0.2c0.1,0.2-0.1,0.5-0.2,0.7c0.1,0.1,0.1,0.3,0.1,0.5v0.1h-0.1c-0.1,0-0.1-0.1-0.2-0.1c-0.1,0.1-0.2,0.3-0.3,0.3l-0.1,0.1
		l0.1-0.1c0-0.1,0.1-0.1,0.1-0.2c0-0.1,0-0.1-0.1-0.2c0-0.1-0.1-0.3-0.1-0.4c0-0.5,0.2-1.2,0.6-1.5c0.2-0.2,0.5-0.2,0.7-0.1
		c0.1-0.3,0.1-0.6,0.3-0.9l0.1-0.1v0.1v0.1c0.1-0.3,0.3-0.5,0.5-0.7l0.1-0.1l0.1,0.1c0.1,0.1,0.1,0.2,0.1,0.3
		c0.2-0.1,0.5-0.3,0.7-0.2h0.1l-0.1,0.1c-0.3,0.3-0.6,0.6-0.7,1c-0.3,0.6-0.4,1.3-0.7,1.9c-0.3,0.9-0.7,1.6-1.4,2.3v0.9l-0.7,0.1
		c-0.2,0.9-0.7,1.9-1.3,2.6c-0.7,0.9-1.7,1.7-2.3,2.6c-0.2,0.3-0.4,0.6-0.5,1l-0.1,0.3l-0.1-0.3c-0.1-0.5,0.1-0.9,0.3-1.3
		c-0.1,0-0.1-0.1-0.2-0.1h-0.1v-0.1c0.1-0.4,0.5-0.9,0.9-1.3c-0.1,0-0.1-0.1-0.1-0.1l-0.1-0.1l0.1-0.1c0.3-0.3,0.5-0.6,0.9-0.8
		c-0.2-0.5-0.1-1.1,0.1-1.5c0.2-0.5,0.6-1.1,1.1-1.1c0.2-0.1,0.3,0.1,0.5-0.1l0.1-0.1v0.2c0,0.3-0.1,0.4-0.2,0.6
		c0.1,0.1,0.1,0.3,0,0.4v0.1h-0.1c-0.1,0-0.2,0-0.3,0.1c0,0.2-0.2,0.4-0.4,0.5l-0.1,0.1l0.1-0.2c0-0.1,0.1-0.4,0-0.4
		c-0.3,0-0.4,0.8-0.1,0.9c0.3,0.2,1-0.5,1.1-0.8c0.2-0.3,0.3-0.7,0.3-1.1c0-0.5-0.3-0.7-0.7-0.5c-0.3,0.1-0.7,0.5-0.9,0.8
		c-0.3,0.4-0.5,0.9-0.7,1.3c-0.3,0.6-0.6,1.1-0.9,1.7c-0.5,0.9-0.9,1.7-1.4,2.5c-1.1,2-3,5.5-5.4,6c-0.3,0.1-0.5,0.1-0.8,0.1
		c-0.6,1.1-1.8,1.9-2.9,2.4c-2.2,0.9-5,1.2-7.4,1.3c-2.3,0.1-4.7,0.2-7,0.5c-0.6,0.1-2.3,0.5-2.3,1.3c0,0.1,0,0.1,0,0.1
		c0.1,0.6,1.5,0.7,1.9,0.6c0.5-0.1,1.9-0.3,2-0.9c0.1-0.3-0.3-0.4-0.6-0.4c-0.2,0-0.5,0.1-0.6,0.2c0.1,0.1,0.3,0.2,0.5,0.1h0.2
		l-0.2,0.1c-0.3,0.2-0.6,0.3-0.9,0.2c-0.1,0.2-0.3,0.3-0.5,0.4h-0.1h-0.1c-0.2-0.1-0.4-0.2-0.5-0.4c-0.3,0.1-0.6,0-0.8-0.1l-0.2-0.1
		h0.2c0.1,0,0.3,0,0.4-0.1c0.1-0.1,0.2-0.3,0.3-0.4c0.4-0.4,1-0.5,1.5-0.7c0.7-0.1,2.4-0.2,2.5,0.7c0.5-0.3,1-0.5,1.5-0.5h0.1v0.1
		c0,0.1,0,0.1-0.1,0.2c0.6-0.2,1.3-0.3,1.9-0.3h0.1l-0.1,0.1c-0.1,0.1-0.1,0.1-0.1,0.3c0.5,0,1.1,0,1.5,0.4l0.2,0.1h-0.2
		c-1.6-0.2-3.8,0.7-5.3,1.1c-0.9,0.3-1.7,0.5-2.6,0.5c-0.9,0.1-2,0.1-2.9-0.2l-0.9,0.8l-1.1-0.7c-0.8,0.3-1.7,0.4-2.6,0.3
		c-1.2,0-2.4-0.4-3.5-0.7c-1.3-0.4-3.3-1-4.7-0.7l-0.2,0.1l0.1-0.1c0.4-0.4,1-0.5,1.5-0.5c-0.1-0.1-0.1-0.1-0.1-0.2l-0.1-0.1h0.1
		c0.7-0.1,1.3,0.1,1.9,0.3c0-0.1-0.1-0.1-0.1-0.2v-0.1h0.1c0.5,0.1,1.1,0.2,1.7,0.5c0-0.1,0.1-0.1,0.1-0.2c0.4-0.8,2.1-0.7,2.9-0.5
		c0.5,0.1,1.3,0.4,1.5,0.9c0.1,0.1,0.3,0.1,0.4,0.1h0.3l-0.3,0.1c-0.3,0.2-0.5,0.1-0.9,0.1c-0.1,0.2-0.3,0.3-0.5,0.4h-0.1l-0.1-0.1
		c-0.2-0.1-0.3-0.3-0.4-0.5c-0.3,0.1-0.7,0.1-1-0.1l-0.2-0.1h0.2c0.2,0,0.4,0,0.5-0.1c-0.1-0.2-0.4-0.3-0.6-0.3
		c-0.3,0-0.7,0.1-0.7,0.5c0.1,0.5,1.6,0.8,2.1,0.8c0.5,0.1,1.9,0,1.9-0.7v-0.1c-0.1-0.9-2-1.3-2.7-1.3c-2.3-0.3-4.6-0.2-6.9-0.3
		c-2.4-0.1-5.3-0.2-7.6-1.1c-1.1-0.5-2.3-1.1-2.9-2.3c-3-0.1-5.1-3.9-6.3-6.3c-0.5-0.9-0.9-1.7-1.3-2.5c-0.3-0.6-0.6-1.2-0.9-1.7
		c-0.2-0.4-0.5-0.9-0.7-1.3c-0.2-0.3-0.5-0.7-0.9-0.9c-0.5-0.3-0.9,0.1-0.9,0.5c-0.1,0.4,0.1,0.8,0.3,1.1c0.1,0.3,0.7,1.1,1.1,0.9
		c0.3-0.2,0.1-0.9-0.1-0.9c-0.1,0-0.1,0.3-0.1,0.4v0.1l-0.1-0.1c-0.2-0.1-0.3-0.3-0.3-0.5c-0.1,0-0.1,0-0.3,0l-0.1,0.1v-0.1
		c0-0.1,0.1-0.3,0.1-0.4c-0.1-0.2-0.3-0.3-0.3-0.5l-0.1-0.1l0.1,0.1c0.3,0.1,0.3,0,0.5,0.1c0.1,0,0.3,0.1,0.5,0.2
		c0.3,0.3,0.5,0.5,0.7,0.9c0.2,0.5,0.2,1.1,0,1.7c0.3,0.1,0.6,0.5,0.9,0.8l0.1,0.1H71c-0.1,0.1-0.1,0.1-0.2,0.1
		c0.3,0.3,0.7,0.9,0.9,1.3v0.1l-0.1,0.1c-0.1,0.1-0.1,0.1-0.2,0.1c0.2,0.4,0.4,0.9,0.3,1.4l-0.1,0.3l-0.1-0.3
		c-0.1-0.3-0.3-0.7-0.5-1c-0.7-0.9-1.6-1.7-2.3-2.6c-0.6-0.8-1.1-1.7-1.3-2.7l-0.7-0.1v-1.1c-0.7-0.7-1.1-1.3-1.3-2.3
		c-0.1-0.7-0.3-1.4-0.6-2.1c-0.2-0.4-0.4-0.7-0.7-1l-0.1-0.1l0.1-0.1c0.3-0.1,0.5,0.1,0.7,0.2c0.1-0.1,0.1-0.1,0.1-0.3l0.1-0.1
		l0.1,0.1c0.2,0.2,0.3,0.5,0.4,0.7l0,0v-0.1l0.1,0.1c0.2,0.3,0.3,0.6,0.3,0.9c0.1-0.1,0.2-0.1,0.3-0.1c0.3,0,0.5,0.2,0.7,0.5
		c0.2,0.3,0.3,0.7,0.3,1.1c0,0.2,0,0.3-0.1,0.5c0,0.1-0.1,0.2-0.1,0.3c0,0.1,0,0.1,0.1,0.2l0.1,0.1l-0.1-0.1c-0.1,0-0.2-0.1-0.3-0.2
		c-0.1,0-0.2,0-0.3,0h-0.1v-0.1c0.1-0.1,0.1-0.3,0.1-0.5c-0.2-0.1-0.3-0.3-0.3-0.6l0.1-0.2l0.1,0.2c0,0.1,0.1,0.1,0.2,0.1
		c0.1-0.1,0.1-0.3,0-0.5c-0.2-0.2-0.4,0.1-0.4,0.3c-0.1,0.3,0,0.7,0.1,1c0.1,0.3,0.2,0.6,0.4,0.8c0.2,0.3,0.5,0.3,0.7,0
		c0.4-0.5,0.1-1.8-0.1-2.4c-0.2-0.6-0.7-1.1-1.1-1.5c-0.5-0.5-0.9-0.8-1.1-1.5c0-0.1-0.1-0.3,0-0.5c0-0.3,0.1-0.6,0.4-0.7
		c0.1-0.1,0.3,0,0.4,0.1c0-0.3,0-0.5,0.2-0.7c0.1-0.1,0.1-0.1,0.2-0.2c0.4-0.2,0.8,0,0.9,0.4c0.2,0.5,0.3,1.3,0.3,1.9
		c0.1,0.5,0.2,1.1,0.4,1.6c0.2,0.4,0.6,1.1,1.1,1c0.6-0.1,0.5-1.1,0.3-1.5c-0.1-0.2-0.2-0.5-0.4-0.6c-0.1-0.2-0.3-0.2-0.5-0.1
		c-0.1,0.1-0.2,0.6,0,0.7c0.1,0.1,0.2-0.2,0.3-0.3v-0.1l0.1,0.1c0.1,0.1,0.1,0.2,0.1,0.3c0.1,0,0.1,0,0.2,0h0.1v0.1
		c0,0.2,0,0.3-0.1,0.4c0.1,0.1,0.1,0.1,0.1,0.2l0.1,0.1h-0.1c-0.1,0-0.1,0.1-0.3,0.1c-0.4,0.1-0.7-0.3-0.9-0.6
		c-0.2-0.5-0.3-1.2,0-1.6c-0.2-0.2-0.3-0.5-0.5-0.7l-0.1-0.1h0.1c0,0,0.1,0,0.1,0c-0.1-0.3-0.3-0.6-0.3-0.9l0,0l0,0
		c0.1-0.1,0.1-0.1,0.2-0.2c-0.1-0.3,0-0.7,0.1-0.9l0.1-0.2l0.1,0.2c0.2,1.1,0.7,1.6,1.3,2.5c0.5,0.7,0.8,1.5,0.9,2.3l0.6,0.1
		l-0.1,0.9c1.1,0.7,1.5,1.3,2.1,2.5c0.2,0.3,0.3,0.7,0.6,1.1c0.5,0.7,0.9,1.2,1.7,1.5l0.2,0.1l-0.2,0.1c-0.4,0.1-0.7,0.1-1.1-0.1
		c0,0.1-0.1,0.2-0.1,0.3v0.1l-0.1-0.1C73.5,104.9,73.2,104.5,72.9,104.2L72.9,104.2z M98.7,119.3c0.7,0.2,1.4,0.5,1.9,1.1
		c0.5-0.6,1.2-1,1.9-1.2c-0.7-0.1-1.5-0.5-1.9-1.1C100.2,118.8,99.4,119.1,98.7,119.3L98.7,119.3z M112.5,117.7
		c-0.8,0.3-1.9,0.5-2.7,0.4h-0.1l0.1-0.1c0.7-0.6,1.7-1,2.5-1.3c-0.1-0.7,0.6-1.3,1.3-1.5h0.1v0.1c0.1,0.2,0.3,0.3,0.7,0.3
		c0.6,0,2-0.5,2.3-1c0.2-0.3-0.1-0.5-0.4-0.5c-0.3,0-0.5,0.1-0.7,0.3l-0.3,0.1l0.1-0.3c0.3-0.5,0.6-0.7,1.1-0.9
		c0.1-0.3,0.2-0.5,0.4-0.8l0.1-0.1h0.1c0.2,0.1,0.4,0.1,0.5,0.3c0.3-0.1,0.7-0.2,0.9-0.1l0.1,0.1l-0.1,0.1c-0.1,0.1-0.9,0.5-0.7,0.7
		c0.3,0.3,0.9-0.1,1.1-0.3c0.3-0.2,0.7-0.7,0.7-1.1c0-0.3-0.1-0.4-0.3-0.5c-0.8-0.1-2.2,0.6-2.9,1c-1.1,0.7-2.3,1.5-3.4,2.3
		c-0.9,0.6-1.8,1.2-2.7,1.9c-0.7,0.5-1.5,1.1-2.3,1.5c2.3,0.1,4.7,0.1,7.1-0.1c1.1-0.1,2.3-0.3,3.3-0.9c0.7-0.3,2.7-1.7,2.3-2.5
		c-0.1-0.4-0.9-0.2-1.2-0.1c-0.3,0.1-0.9,0.5-0.9,0.9c0.1,0.3,0.7-0.2,0.7-0.3l0.2-0.1l-0.1,0.2c-0.1,0.4-0.4,0.7-0.7,0.9
		c0.1,0.3,0,0.5-0.2,0.7l0,0l0,0c-0.2,0-0.5,0-0.7-0.1c-0.4,0.3-0.9,0.4-1.4,0.3l-0.2-0.1l0.2-0.1c0.3-0.1,0.7-0.3,0.9-0.7
		c0.1-0.1,0.2-0.3,0.1-0.5c-0.2-0.4-1.3,0.1-1.5,0.3c-0.5,0.3-1.5,0.9-1.5,1.5v0.1h-0.1C113.6,118.2,112.7,118.3,112.5,117.7
		L112.5,117.7z M123.2,108.8c0.3-0.3,0.6-0.4,1-0.4h0.2l-0.1,0.1c-0.2,0.2-0.4,0.4-0.5,0.7c-0.1,0.2-0.1,0.5,0.1,0.5
		c0.4,0,0.8-0.5,1.1-0.7c0.3-0.3,0.7-0.9,0.6-1.4l0,0l0,0c0.3-0.5,0.9-0.7,1.2-0.3c0.4-0.5,1-0.9,1.5-1.1l0.1-0.1l-0.1,0.1
		c-0.2,0.7-0.7,1.3-1.1,1.9c0.3,0.6-0.1,1.1-0.5,1.6l-0.1,0.1l-0.1-0.1c-0.4-0.5-1.3,0.3-1.5,0.6c-0.2,0.2-0.7,0.8-0.6,1.1
		c0.2,0.3,0.8,0,1-0.2l0.2-0.2l-0.1,0.3c-0.1,0.4-0.4,0.9-0.7,1.1c0,0.2-0.1,0.6-0.2,0.7v0.1h-0.1c-0.2,0-0.5-0.1-0.6-0.3
		c-0.3,0.1-0.7,0.2-0.9,0.1l-0.2-0.1l0.2-0.1c0.2-0.1,0.4-0.2,0.5-0.4c0.1-0.1,0.1-0.2,0.1-0.3c-0.2-0.3-0.9,0.3-1,0.5
		c-0.1,0.1-0.1,0.1-0.1,0.2c-0.2,0.3-0.7,1.1-0.1,1.3c0.7,0.1,2-0.7,2.5-1.1c0.7-0.7,1.2-1.3,1.7-2.1c0.5-0.7,0.9-1.5,1.3-2.3
		c0.5-1.1,1.1-2.3,1.6-3.5c-1.3,0.5-2.6,1.1-3.9,1.7c-1,0.5-2.1,1.1-3,1.7c-0.3,0.3-0.7,0.7-1,1c-0.3,0.3-0.9,1.2-0.5,1.6
		c0.2,0.2,0.8,0,1-0.1c0.3-0.1,0.5-0.3,0.6-0.6c0.1-0.1,0.1-0.4-0.1-0.4c-0.2,0-0.3,0.2-0.5,0.3l-0.1,0.1v-0.2
		c0-0.4,0.2-0.7,0.5-0.9c-0.1-0.3,0-0.5,0.1-0.7v-0.1h0.1C122.8,108.6,123,108.7,123.2,108.8L123.2,108.8z M121.6,112.4
		c-0.3,0.1-0.8,0.2-1.1,0c-0.1,0.5-0.4,0.9-0.7,1.3c0.4-0.1,0.8-0.1,1.2,0C121.1,113.2,121.3,112.8,121.6,112.4L121.6,112.4z
		 M132.5,100.4c-0.3,0.3-0.7,0.3-1.1,0.2c0.1,0.5,0.1,1.1,0,1.5c0.4-0.3,0.7-0.3,1.1-0.1C132.4,101.5,132.4,100.9,132.5,100.4z
		 M133.8,97.8c0.3-0.2,0.8-0.5,1-0.7c0.1-0.2,0.3-0.5,0.1-0.7c-0.1-0.1-0.2-0.1-0.3-0.1h-0.1v-0.1c0-0.2,0-0.4-0.3-0.5
		c-0.2,0-0.3,0.2-0.3,0.3c-0.1,0.3-0.1,0.6-0.1,0.9C133.9,97.2,133.9,97.5,133.8,97.8L133.8,97.8z M93.7,118.8L93.7,118.8
		c-1.4-0.7-2.7-1.6-3.9-2.5c-0.3-0.3-0.7-0.5-1.1-0.7c-1.2-0.8-2.4-1.7-3.7-2.5c-0.7-0.4-2.1-1.1-3-0.9c-0.3,0.1-0.4,0.2-0.4,0.5
		c0,0.5,0.7,1.1,1.1,1.3c0.2,0.1,0.5,0.1,0.7-0.1c0.2-0.3-0.4-0.5-0.5-0.6l-0.3-0.1l0.3-0.1c0.3-0.1,0.6-0.1,0.8,0.1l0,0
		c0.1-0.2,0.3-0.3,0.5-0.4h0.1l0.1,0.1c0.2,0.3,0.5,0.5,0.5,0.8l0,0c0.4,0.2,0.7,0.4,1,0.8l0.1,0.3l-0.3-0.1
		c-0.2-0.1-0.5-0.3-0.7-0.2c-0.4,0-0.5,0.3-0.4,0.6c0.3,0.5,1.7,0.9,2.3,1c0.3,0,0.5-0.1,0.7-0.3v-0.1h0.1c0.6,0.2,1.3,0.7,1.2,1.4
		l0,0c0.9,0.3,1.8,0.6,2.5,1.2l0.1,0.1h-0.1c-0.9,0.1-1.8-0.1-2.6-0.3l0,0c-0.4,0.6-1.1,0.5-1.7,0.3h-0.1v-0.1
		c0-0.6-0.9-1.1-1.3-1.3c-0.3-0.1-1.5-0.8-1.7-0.3c-0.1,0.3,0.6,0.9,0.9,1l0.2,0.1h-0.2c-0.4,0.1-0.9-0.1-1.3-0.3l0,0
		c-0.1,0.1-0.4,0.2-0.6,0.2l0,0l0,0c-0.2-0.2-0.3-0.5-0.3-0.8l0,0c-0.3-0.2-0.6-0.5-0.7-0.8l-0.1-0.2l0.2,0.1
		c0.2,0.1,0.6,0.3,0.8,0.2c0.3-0.1-0.5-0.7-0.6-0.8c-0.3-0.2-1.2-0.5-1.5-0.2c-0.5,0.5,0.7,1.6,1.1,1.9c0.3,0.3,0.7,0.5,1.1,0.7
		c1.1,0.5,2.3,0.7,3.5,0.8C88.7,119.1,91.2,119,93.7,118.8L93.7,118.8z M77.7,109.2L77.7,109.2c0.2-0.1,0.3-0.2,0.6-0.1h0.1v0.1
		c0.1,0.3,0.1,0.5,0,0.7c0.3,0.1,0.5,0.5,0.6,0.9l0.1,0.2l-0.2-0.1c-0.1-0.1-0.3-0.3-0.5-0.3c-0.3-0.1-0.2,0.3-0.1,0.4
		c0.1,0.1,0.2,0.3,0.3,0.5c0.3,0.3,0.9,0.5,1.3,0.3c0.2-0.1,0.1-0.4,0.1-0.6c-0.1-0.7-1.1-1.7-1.7-2.1c-0.9-0.7-2-1.3-3.1-1.8
		c-1.3-0.6-2.5-1.1-3.9-1.7l0,0c0.5,1.3,1,2.5,1.6,3.7c0.4,0.8,0.8,1.5,1.2,2.3c0.5,0.9,1.1,1.7,1.8,2.3c0.5,0.5,1.7,1.3,2.4,1.1
		c0.5-0.1,0.3-0.6,0.2-0.9c-0.1-0.4-0.4-0.7-0.7-0.9c-0.1-0.1-0.7-0.3-0.8-0.1v0.1c0,0.3,0.4,0.5,0.6,0.7l0.1,0.1v-0.1
		c-0.3,0.1-0.7,0-0.9-0.2l0,0c-0.1,0.1-0.3,0.3-0.5,0.3h-0.1v-0.1c-0.1-0.3-0.1-0.5-0.2-0.8c-0.3-0.2-0.5-0.6-0.6-0.9l-0.1-0.2
		l0.2,0.1c0.2,0.1,0.7,0.3,0.8,0.1c0.2-0.5-0.5-1.2-0.9-1.5c-0.4-0.3-0.9-0.7-1.3-0.2l-0.1,0.1l-0.1-0.1c-0.4-0.5-0.7-1.2-0.5-1.8
		c-0.5-0.5-1-1.1-1.1-1.9v-0.1h0.1c0.7,0.2,1.1,0.6,1.5,1.1l0,0c0.3-0.5,0.9-0.3,1.3,0.1l0,0v0.1c-0.1,0.7,0.5,1.5,0.9,1.9
		c0.2,0.2,0.5,0.5,0.8,0.5c0.3,0,0.3-0.4,0.2-0.6c-0.1-0.3-0.3-0.5-0.5-0.7l-0.1-0.1h0.2C77.1,108.7,77.5,108.9,77.7,109.2
		L77.7,109.2z M79.2,112.9c0.3,0.4,0.6,0.8,0.7,1.3c0.4-0.1,0.8-0.1,1.3,0c-0.3-0.3-0.6-0.9-0.7-1.3C80.1,113,79.5,112.9,79.2,112.9
		z M68.3,100.5c0.1,0.5,0.1,1.2,0,1.7c0.5-0.1,0.8-0.1,1.2,0.2c-0.2-0.6-0.2-1.2-0.1-1.7c-0.1,0-0.3,0.1-0.5,0.1
		C68.7,100.7,68.5,100.7,68.3,100.5z M67,97.9c-0.1-0.6-0.1-1.2-0.1-1.7c-0.1-0.2-0.3-0.4-0.5-0.2c-0.1,0.1-0.1,0.3-0.1,0.3v0.1
		h-0.1c-0.1,0-0.2,0-0.3,0.1c-0.1,0.1-0.1,0.4,0,0.5C66.1,97.3,66.6,97.6,67,97.9L67,97.9z"/>
	<path class="st2" d="M67.9,94c0.2,1.2,0.7,1.7,1.3,2.5c0.4,0.6,0.8,1.4,0.9,2.3l0.6,0.1l-0.1,0.9c1.9,1.3,1.9,2.3,2.7,3.5
		c0.5,0.7,0.9,1.2,1.7,1.5c-0.4,0.1-0.8,0.1-1.1-0.1c-0.1,0.1-0.1,0.2-0.1,0.4c-0.4-0.3-0.7-0.7-0.9-1.1c-0.1,0.1-0.1,0.1-0.1,0.3
		c-0.2-0.3-0.4-0.5-0.5-0.9c-0.5,0.7-0.9,0.1-1.1-0.1c-0.5-0.5-0.7-1.3-0.5-1.9c0-0.1-0.1-0.2-0.1-0.3c0.2,0,0.3,0.1,0.4,0.3
		c0.1,0,0.2-0.1,0.3-0.2c0.1,0.1,0.1,0.3,0.1,0.5c0.2,0.1,0.4,0.5,0.2,0.7c0-0.1-0.1-0.1-0.1-0.1c-0.1,0-0.1,0.2-0.1,0.3
		c0.1,0.2,0.2,0.4,0.3,0.4c0.3,0,0.4-0.3,0.4-0.7c0-0.6-0.6-1.7-1.3-1.7c-0.5,0.1-0.9,0.8-0.3,2.1c0.6,1.5,2.1,2.1,3.5,2.8
		c1.8,0.9,3.5,1.4,5.2,2.7c0.9,0.7,1.6,1.5,2.1,2.9c1.3-0.3,2.7,0.3,4.2,1.2c3.2,2,7.7,5.9,10.7,6.3c1.1,0.1,2.1,0.1,2.7-0.3
		c0.5-0.3,0.7-0.9,0.3-1.3c-0.4-0.4-1.3-0.6-1.9-0.6c-0.9-0.1-1.9,0.3-1.7,0.9c0.1,0.4,0.9,0.5,1.3,0.2c-0.1-0.1-0.3-0.2-0.5-0.3
		c0.3-0.1,0.6-0.1,0.9,0.1c0.1-0.1,0.3-0.2,0.5-0.3c0.2,0.1,0.3,0.3,0.4,0.5c0.2,0,0.5,0,0.7,0.1c-0.2-0.1-0.4,0-0.5,0.1
		s-0.4,0.3-0.7,0.5c-0.5,0.2-1.1,0.2-1.7,0.1c-0.8-0.1-1.6-0.5-1.5-1.3c-0.6,0.1-1.1,0.1-1.7,0c0-0.1,0.1-0.2,0.1-0.3
		c-0.8-0.1-1.3-0.3-1.9-0.7c0.1-0.1,0.3-0.1,0.4-0.2c-0.8-0.3-1.1-0.9-1.3-1.3c0.9,0.9,2.3,1.2,4.1,1.2c1.7,0.1,4.1,0.1,5.5,0.8
		l0.9-0.7l0.9,0.7c1.3-0.7,3.7-0.9,5.3-0.9c1.7-0.1,3.3-0.5,4.3-1.3c-0.1,0.4-0.4,0.8-1.1,1.2c0.1,0.1,0.2,0.2,0.3,0.3
		c-0.5,0.3-1,0.5-1.9,0.6c0,0.1,0.1,0.1,0.1,0.3c-0.3,0.1-0.9,0.3-1.5,0.2c0.1,0.7-0.7,1.2-1.6,1.3c-0.5,0.1-1.1,0.1-1.7,0
		c-0.3-0.1-0.5-0.3-0.7-0.4c-0.1-0.1-0.3-0.1-0.5-0.1c0.1-0.2,0.6-0.2,0.7-0.2c0.1-0.1,0.2-0.3,0.4-0.5c0.2,0.1,0.3,0.2,0.5,0.3
		c0.3-0.1,0.5-0.2,0.8-0.1c-0.3,0.1-0.5,0.1-0.5,0.3c0.3,0.3,1.2,0.1,1.3-0.3c0.1-0.5-0.9-0.7-1.9-0.7c-0.6,0.1-1.3,0.2-1.8,0.7
		c-0.5,0.5-0.2,0.9,0.3,1.3c0.6,0.3,1.5,0.4,2.5,0.2c3.1-0.5,7.3-4.3,10.5-6.3c1.5-0.9,3-1.5,4.3-1.3c0.5-1.3,1.2-2.1,2.1-2.7
		c1.7-1.3,3.4-1.9,5.2-2.7c1.4-0.7,2.9-1.5,3.5-2.9c0.5-1.2,0.1-1.9-0.3-1.9c-0.7-0.1-1.3,1.1-1.3,1.7c0,0.3,0.1,0.6,0.3,0.6
		c0.1,0,0.3-0.2,0.4-0.4c0-0.1,0-0.3-0.2-0.3c-0.1,0-0.1,0.1-0.1,0.2c-0.1-0.3,0.1-0.5,0.3-0.6c0-0.1,0-0.3,0-0.5
		c0.1,0,0.2,0.1,0.3,0.1c0.1-0.1,0.2-0.3,0.4-0.3c-0.1,0.1-0.1,0.2-0.1,0.3c0.1,0.6-0.2,1.5-0.7,1.9c-0.2,0.2-0.7,0.7-1,0
		c-0.1,0.4-0.3,0.8-0.6,1.1c-0.1-0.1-0.1-0.2-0.1-0.3c-0.2,0.3-0.6,0.6-1,0.9c0-0.1-0.1-0.3-0.1-0.4c-0.3,0.1-0.8,0.2-1.2,0.1
		c0.9-0.4,1.4-0.7,1.9-1.5c0.9-1.3,1.3-2.9,2.7-3.5v-0.9l0.7-0.1c0.1-0.9,0.5-1.8,1-2.4c0.6-0.9,1-1.1,1.2-2.3
		c0.1,0.2,0.2,0.5,0.1,0.9c0.1,0,0.1,0,0.2,0c-0.1,0.5-0.3,0.9-0.4,1.1c0.1,0,0.2,0.1,0.2,0.1c-0.1,0.2-0.3,0.5-0.5,0.7
		c0.4,0.3,0.3,1.1,0.1,1.5c-0.2,0.4-0.5,0.7-0.8,0.6c-0.1,0-0.2-0.1-0.3,0.1c0-0.3,0.1-0.4,0.2-0.5c-0.1-0.1-0.1-0.2-0.1-0.4
		c0.1,0,0.2,0,0.3,0c0-0.1,0.1-0.4,0.2-0.5c-0.1,0.4,0.1,0.5,0.2,0.4c0.2-0.1,0.3-0.5,0-0.8c-0.2-0.2-0.5-0.1-0.7,0.1
		c-0.1,0.2-0.3,0.5-0.4,0.7c-0.2,0.7-0.1,1.5,0.5,1.6c0.5,0.1,0.9-0.3,1.1-1.1c0.3-0.7,0.5-2.1,0.6-2.9c0.1-0.4,0.3-0.9,0.7-0.9
		c0.2,0,0.3,0.1,0.5,0.3c0.1,0.2,0.1,0.5,0.1,0.7c0.2-0.1,0.4-0.1,0.5,0c0.3,0.2,0.5,0.7,0.3,1.1c-0.1,0.3-0.2,0.5-0.4,0.7
		c-0.2,0.3-0.5,0.5-0.8,0.7c-0.4,0.4-0.9,0.9-1.1,1.5c-0.3,0.8-0.4,1.7-0.1,2.2c0.2,0.3,0.5,0.3,0.7,0c0.2-0.2,0.3-0.5,0.4-0.9
		c0.1-0.3,0.1-0.7,0.1-1c-0.1-0.3-0.4-0.3-0.5-0.1c-0.1,0.1-0.1,0.4,0.1,0.5c0.1,0.1,0.1-0.1,0.2-0.2c0.1,0.1,0,0.5-0.2,0.6
		c0.1,0.3,0.1,0.4,0.1,0.5c-0.1,0-0.1-0.1-0.3-0.1c-0.1,0.1-0.2,0.3-0.3,0.3c0.1-0.3,0-0.3,0-0.9c0-0.6,0.3-1.2,0.5-1.5
		c0.3-0.2,0.5-0.1,0.7,0.1c0-0.4,0.1-0.7,0.3-1c0,0.1,0.1,0.2,0.1,0.3c0.1-0.4,0.3-0.7,0.5-0.9c0.1,0.1,0.1,0.3,0.1,0.3
		c0.3-0.3,0.6-0.3,0.8-0.3c-0.3,0.3-0.6,0.7-0.8,1c-0.3,0.7-0.5,1.3-0.7,1.9c-0.3,0.8-0.7,1.6-1.4,2.2v0.9l-0.7,0.1
		c-0.2,0.9-0.7,1.8-1.3,2.6c-0.7,0.9-1.7,1.7-2.3,2.6c-0.2,0.3-0.4,0.6-0.5,1c-0.1-0.4,0.1-0.8,0.3-1.3c-0.1,0-0.2-0.1-0.3-0.1
		c0.2-0.5,0.7-1.1,0.9-1.3c-0.1,0-0.1-0.1-0.3-0.1c0.3-0.3,0.5-0.7,0.9-0.8c-0.2-0.5-0.2-1.1,0-1.5c0.2-0.5,0.5-1,1.1-1.1
		c0.2-0.1,0.3,0.1,0.5-0.1c0,0.3-0.1,0.5-0.3,0.6c0.1,0.1,0.1,0.3,0.1,0.4c-0.1,0-0.3,0.1-0.3,0.1c0.1,0.2-0.2,0.3-0.3,0.5
		c0.1-0.4,0.1-0.5-0.1-0.5c-0.4,0-0.5,0.9-0.2,1.1c0.4,0.2,1.1-0.5,1.2-0.9c0.3-0.5,0.3-0.8,0.3-1.1c0-0.5-0.3-0.8-0.9-0.7
		c-0.4,0.1-0.7,0.5-1,0.8c-0.7,1-2.2,4.1-3.1,5.5c-1.7,3.1-3.6,6.1-6.1,6.1c-0.5,0.9-1.5,1.9-2.9,2.5c-1.9,0.8-4.1,1.1-7.4,1.3
		c-2,0.1-4.5,0.1-7,0.5c-1.5,0.2-2.5,0.9-2.4,1.5c0.1,0.6,1.1,0.7,2,0.7c0.7-0.1,2-0.4,2.1-0.9c0.1-0.3-0.3-0.5-0.7-0.5
		c-0.5,0-0.6,0.2-0.7,0.3c0.1,0.1,0.2,0.3,0.6,0.2c-0.2,0.1-0.5,0.3-0.9,0.1c-0.1,0.3-0.3,0.3-0.5,0.5c-0.2-0.1-0.4-0.2-0.5-0.4
		c-0.3,0.1-0.6,0-0.8-0.1c0.2,0,0.4-0.1,0.5-0.1c0.1-0.1,0.2-0.3,0.3-0.4c0.4-0.3,1-0.5,1.5-0.6c1.1-0.2,2.5-0.1,2.5,0.7
		c0.5-0.3,1.1-0.5,1.6-0.6c0,0.1-0.1,0.2-0.1,0.3c0.5-0.2,1.3-0.4,2.1-0.3c-0.1,0.1-0.1,0.3-0.2,0.4c0.5,0,1.2-0.1,1.7,0.4
		c-2.3-0.3-5.2,1.5-8,1.7c-0.9,0.1-2.1,0.1-2.9-0.2l-0.9,0.8l-1.1-0.7c-0.8,0.3-1.7,0.4-2.6,0.3c-2.6-0.1-5.9-1.8-8.3-1.4
		c0.5-0.5,1.1-0.5,1.7-0.5c-0.1-0.1-0.2-0.2-0.3-0.3c0.8-0.1,1.6,0.1,2.1,0.3c-0.1-0.1-0.1-0.2-0.1-0.3c0.5,0.1,1.1,0.2,1.7,0.6
		c0-0.9,1.7-1.1,2.9-0.8c0.5,0.1,1.3,0.4,1.5,0.9c0.1,0.1,0.2,0.1,0.5,0.1c-0.3,0.1-0.5,0.1-0.9,0.1c-0.1,0.2-0.3,0.3-0.5,0.5
		c-0.2-0.1-0.3-0.3-0.4-0.5c-0.5,0.2-0.8,0.1-1-0.1c0.4,0,0.5-0.1,0.7-0.1c-0.1-0.1-0.3-0.3-0.7-0.4c-0.4,0-0.8,0.2-0.7,0.6
		c0.1,0.5,1.4,0.8,2.1,0.9c0.9,0.1,1.9-0.1,2-0.7c0.1-0.7-1.2-1.3-2.7-1.5c-2.5-0.3-4.9-0.2-6.9-0.3c-3.3-0.1-5.7-0.3-7.5-1.1
		c-1.4-0.6-2.3-1.3-2.8-2.3c-2.7-0.1-4.6-3-6.3-6.2c-0.8-1.5-2.3-4.5-2.9-5.5c-0.3-0.4-0.6-0.8-0.9-0.9c-0.5-0.3-0.9,0.1-1,0.6
		c0,0.3,0,0.7,0.3,1.2c0.2,0.3,0.7,1.1,1.1,0.9c0.3-0.2,0.2-1.1-0.2-1.1c-0.1,0-0.2,0.2-0.2,0.5c-0.1-0.1-0.3-0.3-0.2-0.5
		c-0.1,0-0.2-0.1-0.3,0c0-0.2,0.1-0.3,0.1-0.4c-0.1-0.2-0.3-0.3-0.3-0.5c0.3,0.1,0.4,0,0.6,0.1c0.1,0,0.3,0.1,0.4,0.2
		c0.4,0.3,0.5,0.6,0.7,0.9c0.2,0.5,0.2,1.1,0,1.7c0.4,0.1,0.6,0.5,0.9,0.8c-0.1,0.1-0.2,0.1-0.3,0.1c0.3,0.2,0.8,0.9,1,1.3
		c-0.1,0.1-0.1,0.1-0.3,0.1c0.3,0.6,0.4,1,0.3,1.4c-0.1-0.3-0.3-0.7-0.5-1c-0.7-1-1.6-1.7-2.3-2.6c-0.7-0.9-1.1-1.8-1.3-2.7
		l-0.7-0.1v-1c-0.8-0.7-1.1-1.5-1.3-2.3c-0.1-0.6-0.3-1.3-0.6-2.1c-0.2-0.3-0.4-0.7-0.7-1c0.2-0.1,0.5,0,0.7,0.3
		c0.1-0.1,0.1-0.2,0.1-0.3c0.2,0.3,0.4,0.5,0.5,1c0.1-0.1,0.1-0.2,0.1-0.3c0.2,0.3,0.3,0.7,0.3,1c0.5-0.6,1.3,0.2,1.3,1.3
		c0,0.6-0.2,0.7-0.1,1.1c-0.1-0.1-0.3-0.1-0.3-0.2c-0.1,0-0.2,0-0.3,0c0.1-0.1,0.1-0.3,0.1-0.5c-0.3-0.2-0.3-0.4-0.3-0.5
		c0.1,0.1,0.2,0.2,0.3,0.1c0.2-0.2,0.1-0.5,0-0.6c-0.3-0.2-0.5,0.1-0.5,0.3c-0.1,0.3,0,0.7,0.1,1c0.1,0.3,0.3,0.6,0.4,0.8
		c0.3,0.3,0.6,0.3,0.8-0.1c0.3-0.5,0.2-1.6-0.1-2.5c-0.2-0.6-0.7-1.1-1.1-1.5c-0.5-0.5-0.9-0.8-1-1.5c0-0.1-0.1-0.3,0-0.4
		c0-0.3,0.2-0.6,0.4-0.7c0.1-0.1,0.3,0,0.5,0.1c0-0.3,0-0.5,0.1-0.8c0.1-0.1,0.1-0.1,0.2-0.1c0.4-0.2,0.7,0.1,0.8,0.4
		c0.2,0.7,0.4,2.7,0.7,3.5c0.3,0.7,0.7,1.1,1.2,1.1c0.5-0.1,0.6-0.9,0.4-1.7c-0.1-0.2-0.2-0.5-0.4-0.7c-0.2-0.2-0.5-0.3-0.6-0.1
		c-0.2,0.3-0.2,0.7,0,0.8c0.2,0.1,0.3-0.1,0.3-0.3c0.1,0.1,0.1,0.3,0.1,0.4c0.1,0,0.1,0,0.3,0c0,0.2-0.1,0.3-0.1,0.5
		c0.1,0.1,0.1,0.1,0.1,0.3c-0.1,0-0.2,0.1-0.3,0.1c-0.3,0.1-0.6-0.2-0.8-0.6c-0.3-0.5-0.3-1.2,0.1-1.6c-0.2-0.2-0.4-0.5-0.5-0.7
		c0,0,0.1,0,0.2-0.1c-0.1-0.2-0.3-0.7-0.4-0.9c0.1-0.1,0.1-0.1,0.2-0.2C67.7,94.5,67.8,94.3,67.9,94L67.9,94z"/>
	<path class="st0" d="M98.3,119.3c1-0.1,1.9-0.6,2.2-1.3c0.3,0.7,1.1,1.1,2.3,1.3c-1,0.3-1.8,0.7-2.3,1.3
		C100,119.8,99.1,119.5,98.3,119.3L98.3,119.3z"/>
	<path class="st7" d="M100.5,120.6L100.5,120.6c-0.6-0.8-1.5-1.1-2.2-1.3l-0.2-0.1h0.2c1.1-0.1,1.9-0.6,2.2-1.3v-0.1v0.1
		c0.3,0.7,1.1,1.1,2.3,1.3h0.2l-0.2,0.1C101.8,119.5,101.1,119.9,100.5,120.6L100.5,120.6z M98.5,119.3c0.7,0.2,1.5,0.5,2.1,1.2
		c0.5-0.6,1.1-1,2.1-1.3c-1.1-0.1-1.8-0.6-2.1-1.2C100.2,118.7,99.5,119.1,98.5,119.3z"/>
	<path class="st0" d="M119.1,115.7c-0.1,0.5-0.5,0.7-0.7,0.9c0.1,0.3,0,0.5-0.2,0.7c-0.1,0-0.5,0-0.6-0.1c-0.4,0.3-0.9,0.4-1.4,0.3
		c0.9-0.4,1.1-0.9,1.1-1.2c-0.2-0.5-1.3,0.1-1.6,0.3c-0.5,0.3-1.5,0.9-1.5,1.5c-0.9,0.3-1.5,0.1-1.6-0.3c-0.7,0.3-1.8,0.5-2.7,0.5
		c0.7-0.6,1.7-1,2.5-1.3c-0.1-0.7,0.6-1.3,1.2-1.5c0.1,0.3,0.4,0.4,0.7,0.4c0.6,0,2.1-0.5,2.3-1.1c0.2-0.3-0.1-0.6-0.5-0.6
		c-0.3,0-0.5,0.1-0.8,0.3c0.3-0.5,0.7-0.7,1.1-0.9c0.1-0.3,0.2-0.5,0.4-0.8c0.2,0.1,0.4,0.1,0.5,0.3c0.3-0.2,0.7-0.2,0.9-0.1
		c-0.6,0.3-0.9,0.6-0.7,0.8c0.3,0.3,0.9,0,1.1-0.3c0.4-0.3,0.7-0.7,0.7-1.1c0-0.3-0.1-0.5-0.4-0.5c-0.9-0.1-2.2,0.6-2.9,1
		c-1.2,0.7-2.3,1.5-3.4,2.3c-0.9,0.6-1.9,1.3-2.7,1.9c-0.8,0.6-1.6,1.2-2.5,1.7c2.5,0.1,4.9,0.2,7.3-0.1c1.2-0.1,2.3-0.3,3.3-0.9
		c0.7-0.3,2.7-1.7,2.4-2.6c-0.1-0.3-0.8-0.3-1.3-0.1c-0.3,0.1-1,0.6-0.9,1C118.3,116.1,118.7,115.9,119.1,115.7L119.1,115.7z"/>
	<path class="st7" d="M110.8,118.9c-1.2,0-2.3-0.1-3.4-0.1h-0.1l0.1-0.1c0.9-0.5,1.7-1.1,2.5-1.7c0.4-0.3,0.9-0.6,1.3-0.9
		c0.5-0.3,0.9-0.7,1.4-0.9c1.2-0.9,2.2-1.5,3.4-2.3l0,0c0.7-0.3,1.9-1,2.7-1c0.1,0,0.1,0,0.2,0c0.3,0.1,0.4,0.3,0.4,0.5
		c-0.1,0.3-0.3,0.7-0.7,1.1c-0.3,0.3-0.9,0.5-1.2,0.3c-0.1-0.1-0.1-0.1,0-0.2c0.1-0.2,0.3-0.4,0.7-0.6c-0.3-0.1-0.6,0-0.8,0.1h-0.1
		V113c-0.1-0.1-0.1-0.1-0.3-0.2c-0.1,0-0.1-0.1-0.2-0.1c-0.2,0.3-0.3,0.5-0.4,0.7l0,0l0,0c-0.5,0.1-0.8,0.4-1.1,0.7
		c0.3-0.1,0.5-0.2,0.7-0.2c0.3,0,0.5,0.1,0.5,0.3c0.1,0.1,0.1,0.3,0,0.4c-0.3,0.6-1.7,1.1-2.3,1.1c-0.3,0-0.5-0.1-0.7-0.4
		c-0.6,0.2-1.2,0.7-1.1,1.4l0,0l0,0c-1.1,0.3-1.9,0.7-2.5,1.2c0.1,0,0.1,0,0.2,0c1,0,2-0.3,2.4-0.5h0.1v0.1c0.1,0.1,0.1,0.3,0.3,0.3
		c0.3,0.1,0.7,0.1,1.3,0c-0.1-0.6,0.9-1.3,1.5-1.5c0.3-0.2,1.1-0.5,1.5-0.4c0.1,0,0.1,0.1,0.2,0.2c0.1,0.3-0.1,0.8-1,1.2
		c0.4,0,0.9-0.1,1.3-0.3l0,0l0,0c0.1,0.1,0.5,0.1,0.5,0.1c0.2-0.1,0.3-0.3,0.2-0.6l0,0l0,0c0.3-0.2,0.5-0.5,0.7-0.8
		c-0.3,0.1-0.6,0.3-0.7,0.3c0,0-0.1,0-0.1-0.1c-0.1-0.4,0.6-0.9,0.9-1.1c0.5-0.2,1.3-0.2,1.4,0.1c0.3,1-1.9,2.3-2.4,2.7
		c-1.1,0.5-2.1,0.7-3.3,0.9C113.4,118.8,112.1,118.9,110.8,118.9z M107.5,118.7c2.1,0.1,4.7,0.2,7.2-0.1c1.2-0.1,2.3-0.3,3.3-0.9
		c0.7-0.4,2.7-1.7,2.4-2.5c-0.1-0.3-0.8-0.3-1.3-0.1c-0.3,0.1-1,0.6-0.9,0.9l0,0l0,0c0.1,0,0.4-0.1,0.7-0.4l0.1-0.1v0.1
		c-0.1,0.5-0.4,0.7-0.7,0.9c0.1,0.3,0,0.5-0.2,0.7l0,0l0,0c-0.1,0-0.5,0-0.6-0.1c-0.4,0.3-0.9,0.4-1.4,0.3h-0.1l0.1-0.1
		c0.9-0.4,1.1-0.9,1.1-1.1c0-0.1-0.1-0.1-0.1-0.1c-0.3-0.1-1.1,0.3-1.4,0.4c-0.5,0.3-1.5,0.9-1.5,1.5l0,0l0,0
		c-0.6,0.2-1.1,0.2-1.3,0c-0.1-0.1-0.3-0.2-0.3-0.3c-0.5,0.2-1.7,0.5-2.7,0.5h-0.1l0.1-0.1c0.5-0.5,1.4-0.9,2.5-1.3
		c-0.1-0.7,0.6-1.3,1.2-1.5l0,0l0,0c0.1,0.3,0.3,0.4,0.7,0.4c0.6,0,2.1-0.5,2.3-1.1c0.1-0.1,0.1-0.3,0-0.3c-0.1-0.1-0.3-0.2-0.5-0.2
		c-0.3,0-0.5,0.1-0.8,0.3l-0.1,0.1l0.1-0.1c0.3-0.5,0.6-0.7,1.1-0.9c0.1-0.3,0.2-0.5,0.4-0.8l0,0l0,0c0.1,0.1,0.1,0.1,0.2,0.1
		c0.1,0.1,0.2,0.1,0.3,0.2c0.3-0.2,0.7-0.2,0.9-0.1h0.1l-0.1,0.1c-0.4,0.2-0.7,0.4-0.7,0.6c0,0.1,0,0.1,0,0.1c0.2,0.2,0.8,0,1.1-0.3
		c0.4-0.3,0.7-0.7,0.7-1.1c0-0.3-0.1-0.5-0.4-0.5c-0.9-0.1-2.2,0.6-2.9,1l0,0c-1.1,0.7-2.2,1.4-3.4,2.3c-0.5,0.3-0.9,0.6-1.4,0.9
		c-0.5,0.3-0.9,0.6-1.3,0.9C109.2,117.7,108.4,118.3,107.5,118.7z"/>
	<path class="st0" d="M122,110.3c0-0.4,0.1-0.7,0.5-0.9c-0.1-0.3,0-0.5,0.1-0.7c0.3-0.1,0.4,0,0.6,0.1c0.2-0.3,0.5-0.5,0.9-0.4
		c-0.3,0.2-0.5,0.4-0.5,0.7c-0.1,0.3-0.1,0.6,0.2,0.7c0.5,0,0.9-0.5,1.1-0.8c0.4-0.4,0.7-1,0.6-1.5c0.3-0.4,0.8-0.7,1.1-0.1
		c0.4-0.5,1-0.9,1.5-1.1c-0.2,0.7-0.7,1.3-1.1,1.9c0.3,0.6-0.1,1.1-0.5,1.6c-0.4-0.4-1.1,0.1-1.7,0.6c-0.5,0.4-0.7,0.9-0.6,1.2
		c0.2,0.3,0.7,0.2,1.1-0.2c-0.1,0.5-0.5,0.9-0.7,1.1c0,0.2-0.1,0.6-0.2,0.7c-0.2,0-0.5-0.1-0.6-0.3c-0.3,0.2-0.7,0.2-0.9,0.1
		c0.5-0.2,0.8-0.6,0.7-0.8c-0.2-0.3-0.8,0.1-1.1,0.5c-0.5,0.5-0.8,1.5-0.2,1.6c0.7,0.1,2-0.7,2.5-1.2c0.7-0.7,1.2-1.3,1.7-2.1
		c0.4-0.7,0.9-1.6,1.3-2.3c0.5-1.1,1.1-2.3,1.7-3.6c-1.3,0.5-2.7,1.2-4,1.8c-1,0.5-2.1,1.1-3,1.7c-0.2,0.1-0.7,0.5-1,1
		c-0.5,0.6-0.9,1.3-0.4,1.7c0.2,0.2,0.7,0.1,1.1-0.1c0.3-0.1,0.5-0.4,0.6-0.6c0.1-0.2,0.1-0.5-0.2-0.5
		C122.4,110,122.2,110.1,122,110.3L122,110.3z"/>
	<path class="st7" d="M122.5,114.3c-0.1,0-0.1,0-0.2,0c-0.2-0.1-0.3-0.1-0.3-0.3c-0.1-0.3,0.1-0.9,0.5-1.3c0.2-0.3,0.7-0.6,0.9-0.6
		l0,0c0.1,0,0.2,0.1,0.2,0.1c0.1,0.1,0.1,0.1,0,0.3c-0.1,0.2-0.3,0.4-0.6,0.5c0.3,0.1,0.6,0,0.8-0.1l0,0l0,0
		c0.1,0.2,0.3,0.3,0.5,0.3c0.1-0.1,0.2-0.5,0.2-0.7l0,0l0,0c0.3-0.1,0.5-0.5,0.7-0.9c-0.2,0.2-0.4,0.3-0.7,0.3c0,0,0,0-0.1,0
		c-0.1,0-0.3-0.1-0.3-0.2c-0.1-0.3,0.1-0.8,0.6-1.3c0.5-0.5,1.3-1,1.7-0.6c0.4-0.5,0.7-0.9,0.5-1.5l0,0l0,0c0.5-0.5,0.9-1.1,1.1-1.8
		c-0.5,0.2-1.1,0.6-1.5,1.1v0.1v-0.1c-0.1-0.2-0.3-0.3-0.4-0.3l0,0c-0.2,0-0.5,0.1-0.6,0.4c0.1,0.5-0.3,1.1-0.6,1.5
		c-0.3,0.4-0.7,0.8-1.1,0.8c-0.1,0-0.2-0.1-0.3-0.2s-0.1-0.3,0.1-0.5c0.1-0.3,0.3-0.5,0.5-0.6H124c-0.3,0-0.5,0.1-0.7,0.4l0,0l0,0
		c-0.2-0.1-0.3-0.2-0.5-0.1v0.1c-0.1,0.2-0.1,0.4-0.1,0.7l0,0l0,0c-0.3,0.2-0.5,0.4-0.5,0.7c0.2-0.2,0.4-0.3,0.5-0.3
		c0.1,0,0.3,0,0.3,0.1c0.1,0.1,0.1,0.3-0.1,0.5c-0.1,0.2-0.3,0.5-0.6,0.6c-0.4,0.2-0.9,0.3-1.2,0.1c-0.1-0.1-0.2-0.2-0.2-0.4
		c-0.1-0.3,0.2-0.8,0.6-1.3c0.3-0.5,0.8-0.9,1-1c0.7-0.5,1.5-1,2.4-1.4c0.2-0.1,0.4-0.2,0.6-0.3l0.1-0.1c1.2-0.6,2.6-1.2,3.9-1.7
		h0.1l-0.1,0.1c-0.6,1.3-1.2,2.5-1.7,3.6c-0.2,0.4-0.4,0.8-0.7,1.2c-0.2,0.4-0.4,0.8-0.6,1.1c-0.5,0.8-1,1.5-1.7,2.1
		C124.3,113.5,123.2,114.3,122.5,114.3z M123.4,112.1c-0.3,0-0.7,0.3-0.9,0.5c-0.4,0.4-0.6,0.9-0.5,1.3c0.1,0.1,0.1,0.3,0.3,0.3
		c0.7,0.1,2-0.7,2.5-1.2c0.7-0.7,1.2-1.3,1.7-2.1c0.2-0.3,0.4-0.7,0.6-1.1c0.2-0.4,0.5-0.8,0.7-1.2c0.5-1,1-2.2,1.6-3.5
		c-1.3,0.5-2.6,1.1-3.8,1.7l-0.1,0.1c-0.2,0.1-0.4,0.2-0.6,0.3c-0.8,0.4-1.7,0.9-2.4,1.4c-0.2,0.1-0.7,0.5-1,1
		c-0.4,0.5-0.7,0.9-0.6,1.3c0,0.1,0.1,0.3,0.2,0.3c0.2,0.2,0.7,0.1,1.1-0.1c0.3-0.1,0.5-0.4,0.6-0.6c0.1-0.1,0.1-0.3,0.1-0.3
		c-0.1-0.1-0.1-0.1-0.2-0.1c-0.1,0-0.3,0.1-0.5,0.3l-0.1,0.1v-0.1c0-0.4,0.1-0.7,0.5-0.9c-0.1-0.3,0-0.4,0.1-0.7v-0.1l0,0
		c0.3-0.1,0.4,0,0.6,0.1c0.3-0.3,0.6-0.5,0.9-0.4h0.1l-0.1,0.1c-0.2,0.2-0.5,0.4-0.5,0.7c-0.1,0.2-0.1,0.3-0.1,0.5
		c0.1,0.1,0.1,0.1,0.2,0.1c0.4,0,0.8-0.4,1.1-0.8c0.4-0.4,0.7-1,0.6-1.5l0,0l0,0c0.2-0.3,0.5-0.5,0.7-0.5l0,0c0.2,0,0.3,0.1,0.5,0.3
		c0.4-0.5,1-0.9,1.5-1.1h0.1v0.1c-0.2,0.7-0.7,1.3-1.1,1.9c0.3,0.6-0.1,1.1-0.5,1.6l0,0l0,0c-0.4-0.4-1.1,0.1-1.6,0.6
		c-0.5,0.4-0.7,0.9-0.6,1.1c0.1,0.1,0.1,0.1,0.3,0.2c0,0,0,0,0.1,0c0.2,0,0.5-0.1,0.7-0.4l0.1-0.1l-0.1,0.1
		c-0.1,0.5-0.5,0.9-0.7,1.1c0,0.2-0.1,0.6-0.2,0.7l0,0l0,0c-0.2,0-0.5-0.1-0.6-0.3c-0.3,0.2-0.7,0.2-0.9,0.1h-0.1l0.1-0.1
		c0.4-0.1,0.6-0.4,0.7-0.5c0-0.1,0-0.1,0-0.2C123.5,112.2,123.5,112.1,123.4,112.1L123.4,112.1z"/>
	<path class="st0" d="M121.8,112.3c-0.4,0.5-0.7,0.9-0.8,1.5c-0.4-0.1-0.8-0.1-1.5,0c0.5-0.5,0.8-1,0.9-1.5
		C120.7,112.5,121.3,112.4,121.8,112.3L121.8,112.3z"/>
	<path class="st7" d="M119.4,113.9L119.4,113.9c0.5-0.5,0.9-1,1-1.5v-0.1h0.1c0.3,0.2,0.9,0.1,1.3-0.1h0.1l-0.1,0.1
		c-0.4,0.5-0.7,0.9-0.8,1.5l0,0l0,0c-0.4-0.1-0.8-0.1-1.5,0L119.4,113.9z M120.3,113.7c0.3,0,0.5,0.1,0.7,0.1c0.1-0.5,0.3-1,0.7-1.5
		c-0.4,0.1-0.9,0.2-1.2,0.1c-0.1,0.5-0.4,0.9-0.9,1.3C119.9,113.7,120.1,113.7,120.3,113.7z"/>
	<path class="st0" d="M132.7,100.2c-0.2,0.5-0.2,1.4,0,1.9c-0.5-0.2-0.8-0.3-1.4,0.2c0.2-0.5,0.3-1.1,0-1.9
		C131.6,100.6,132.1,100.7,132.7,100.2L132.7,100.2z"/>
	<path class="st7" d="M131.2,102.5l0.1-0.1c0.2-0.5,0.2-1.1,0-1.9v-0.1h0.1c0.3,0.1,0.8,0.2,1.3-0.3l0.1-0.1l-0.1,0.1
		c-0.2,0.5-0.2,1.4,0,1.9v0.1h-0.1C132.1,102,131.9,101.9,131.2,102.5L131.2,102.5z M131.3,100.5c0.2,0.7,0.2,1.2,0,1.7
		c0.5-0.4,0.9-0.3,1.3-0.1c-0.1-0.5-0.2-1.3,0-1.8C132.1,100.7,131.6,100.6,131.3,100.5z"/>
	<path class="st0" d="M133.7,98c0.1-0.8,0.1-1.5,0.2-1.9c0.1-0.2,0.2-0.4,0.4-0.4c0.3,0,0.3,0.3,0.3,0.5c0.2,0,0.3,0,0.4,0.1
		c0.2,0.2,0.1,0.6-0.1,0.9C134.6,97.5,134.1,97.7,133.7,98z"/>
	<path class="st7" d="M133.7,98.1L133.7,98.1c0.1-0.5,0.1-0.8,0.1-1.1c0-0.3,0-0.7,0.1-0.9c0.1-0.1,0.2-0.4,0.4-0.4
		c0.1,0,0.3,0.1,0.3,0.5c0.2,0,0.3,0,0.4,0.1c0.1,0.1,0.1,0.2,0.1,0.3c0,0.2-0.1,0.4-0.3,0.6c-0.1,0.1-0.3,0.3-0.5,0.3
		C134.1,97.7,133.9,97.9,133.7,98.1L133.7,98.1z M134.3,95.7c-0.2,0-0.3,0.3-0.4,0.4c-0.1,0.3-0.1,0.5-0.1,0.9c0,0.3,0,0.6-0.1,1
		c0.2-0.1,0.4-0.3,0.6-0.4c0.2-0.1,0.4-0.2,0.5-0.3s0.3-0.3,0.3-0.5c0-0.1-0.1-0.2-0.1-0.3c-0.1-0.1-0.2-0.1-0.4-0.1l0,0l0,0
		C134.7,95.9,134.5,95.7,134.3,95.7z"/>
	<path class="st0" d="M81.8,116.3c0.1,0.3,0.5,0.6,0.7,0.7h0.1v0.1c-0.1,0.3,0.1,0.5,0.3,0.7c0.2,0,0.4-0.1,0.5-0.2l0.1-0.1h0.1
		c0.3,0.2,0.9,0.3,1.3,0.3c-0.4-0.3-1.1-0.7-0.9-1.1c0.3-0.6,1.5,0.1,1.9,0.3c0.5,0.3,1.3,0.8,1.3,1.4c0.5,0.1,1.2,0.3,1.5-0.3v-0.1
		h0.1c0.8,0.2,1.7,0.4,2.6,0.3c-0.7-0.6-1.7-0.9-2.5-1.1h-0.1v-0.1c0.1-0.7-0.6-1.1-1.2-1.3c-0.2,0.3-0.5,0.3-0.8,0.3
		c-0.6-0.1-2.1-0.5-2.3-1c-0.2-0.4,0-0.7,0.4-0.7c0.3,0,0.5,0.1,0.8,0.3c-0.2-0.4-0.5-0.5-1-0.7h-0.1v-0.1c-0.1-0.3-0.3-0.5-0.5-0.8
		c-0.1,0.1-0.3,0.2-0.4,0.4l-0.1,0.1l-0.1-0.1c-0.2-0.1-0.5-0.1-0.7-0.1c0.3,0.1,0.8,0.4,0.6,0.7c-0.2,0.3-0.5,0.2-0.7,0.1
		c-0.5-0.2-1.1-0.9-1.1-1.4c0-0.3,0.2-0.5,0.5-0.5c0.9-0.2,2.3,0.5,3.1,0.9c1.3,0.8,2.5,1.7,3.7,2.5c0.4,0.3,0.7,0.5,1.1,0.7
		c1.3,0.9,2.5,1.7,3.9,2.5l0.2,0.1h-0.3c-2.4,0.2-5,0.3-7.5,0.1c-1.2-0.1-2.5-0.3-3.5-0.8c-0.4-0.2-0.8-0.5-1.1-0.7
		c-0.4-0.3-1.5-1.5-1.1-2.1c0.3-0.4,1.3-0.1,1.6,0.1c0.1,0.1,0.9,0.7,0.6,0.9C82.4,116.7,82.1,116.5,81.8,116.3L81.8,116.3z"/>
	<path class="st7" d="M89.3,119.1c-1.1,0-2.1-0.1-3.1-0.1c-1.5-0.1-2.6-0.3-3.5-0.8c-0.4-0.2-0.8-0.5-1.1-0.7
		c-0.5-0.4-1.5-1.5-1.1-2.1c0.3-0.5,1.3-0.1,1.7,0.1c0,0,0.1,0.1,0.1,0.1c0.2,0.2,0.6,0.5,0.6,0.7c0,0.1,0,0.1-0.1,0.2
		c-0.3,0.2-0.5,0.1-0.8-0.1c0.1,0.3,0.5,0.5,0.7,0.6h0.1v0.1c-0.1,0.2,0.1,0.5,0.3,0.7c0.2,0,0.4-0.1,0.5-0.2l0.1-0.1h0.1l0,0
		c0.3,0.2,0.9,0.3,1.1,0.3c-0.3-0.3-1-0.7-0.9-1.1c0.1-0.1,0.1-0.2,0.3-0.3c0.5-0.1,1.5,0.4,1.7,0.5c0.6,0.3,1.3,0.8,1.3,1.4
		c0.5,0.1,1.1,0.3,1.5-0.3v-0.1h0.1c0.9,0.2,1.7,0.4,2.5,0.3c-0.5-0.5-1.3-0.8-2.4-1.1h-0.1v-0.1c0.1-0.7-0.6-1.1-1.1-1.3
		c-0.2,0.3-0.5,0.3-0.8,0.3c-0.5-0.1-2.1-0.5-2.3-1c-0.1-0.2-0.1-0.4,0-0.5c0.1-0.1,0.3-0.2,0.5-0.2c0.3,0,0.5,0.1,0.7,0.2
		c-0.2-0.3-0.5-0.4-0.9-0.6l0,0h-0.1v-0.1c-0.1-0.3-0.2-0.5-0.3-0.7c0-0.1-0.1-0.1-0.1-0.1c-0.1,0.1-0.3,0.2-0.3,0.4l0,0l-0.1,0.1
		l-0.1-0.1c-0.1-0.1-0.3-0.1-0.5-0.1c0.2,0.1,0.5,0.3,0.5,0.5c0,0.1,0,0.2-0.1,0.3c-0.2,0.3-0.5,0.2-0.8,0.1
		c-0.5-0.2-1.1-0.9-1.1-1.4c0-0.4,0.3-0.5,0.5-0.5c0.9-0.2,2.3,0.5,3.1,0.9c0.8,0.5,1.6,1.1,2.3,1.5c0.5,0.3,0.9,0.6,1.3,0.9
		c0.2,0.1,0.3,0.2,0.5,0.3c0.2,0.1,0.4,0.3,0.6,0.4c1.3,0.9,2.5,1.7,3.9,2.5l0.3,0.2h-0.6C92.1,119.1,90.7,119.1,89.3,119.1z
		 M81,115.3c-0.2,0-0.4,0.1-0.5,0.2c-0.5,0.5,0.6,1.7,1.1,2c0.3,0.3,0.7,0.5,1.1,0.7c0.9,0.5,2.1,0.7,3.5,0.8
		c2.3,0.2,4.7,0.1,7.5-0.1h0.1l-0.1-0.1c-1.4-0.7-2.7-1.5-3.9-2.5c-0.2-0.1-0.4-0.3-0.6-0.4c-0.1-0.1-0.3-0.2-0.5-0.3
		c-0.5-0.3-0.9-0.6-1.3-0.9c-0.7-0.5-1.5-1.1-2.3-1.5c-0.7-0.5-2.2-1.1-3.1-0.9c-0.3,0.1-0.5,0.2-0.5,0.5c0,0.5,0.7,1.2,1.1,1.4
		c0.3,0.2,0.5,0.1,0.7-0.1c0.1-0.1,0.1-0.1,0-0.2c-0.1-0.1-0.3-0.3-0.6-0.5l-0.1-0.1h0.2c0.3,0,0.5,0,0.7,0.1l0.1,0.1l0.1-0.1
		c0.1-0.2,0.3-0.3,0.4-0.4l0,0l0,0c0.1,0.1,0.1,0.1,0.1,0.1c0.1,0.2,0.3,0.4,0.3,0.7v0.1h0.1h0.1c0.5,0.2,0.8,0.3,1,0.7l0.1,0.1
		l-0.1-0.1c-0.3-0.2-0.5-0.3-0.8-0.3c-0.2,0-0.3,0.1-0.4,0.2c-0.1,0.1-0.1,0.3,0,0.5c0.3,0.5,1.7,0.9,2.3,1c0.4,0,0.6-0.1,0.8-0.3
		l0,0l0,0c0.6,0.2,1.3,0.7,1.2,1.4l0,0h0.1c1.1,0.3,1.9,0.7,2.5,1.1l0.1,0.1h-0.1c-0.9,0.1-1.7-0.1-2.6-0.3l0,0v0.1l0,0
		c-0.3,0.5-1,0.4-1.6,0.3l0,0l0,0c0-0.6-1-1.2-1.3-1.4c-0.4-0.3-1.2-0.6-1.6-0.5c-0.1,0.1-0.2,0.1-0.2,0.2c-0.1,0.4,0.6,0.9,0.9,1.1
		l0.1,0.1h-0.1c-0.2,0-0.9,0-1.3-0.3h-0.1l-0.1,0.1c-0.1,0.1-0.3,0.2-0.5,0.2l0,0l0,0c-0.3-0.3-0.3-0.5-0.3-0.7l0,0h-0.1
		c-0.3-0.1-0.6-0.4-0.7-0.7v-0.1l0.1,0.1c0.3,0.1,0.5,0.3,0.7,0.1c0.1-0.1,0.1-0.1,0.1-0.1c0-0.2-0.3-0.5-0.5-0.7
		c-0.1-0.1-0.1-0.1-0.1-0.1C81.8,115.4,81.3,115.3,81,115.3z"/>
	<path class="st0" d="M78.9,110.7c-0.1-0.3-0.3-0.7-0.5-0.8h-0.1v-0.1c0.1-0.2,0.1-0.5,0-0.7c-0.2,0-0.3,0-0.5,0.1l-0.1,0.1
		l-0.1-0.1c-0.2-0.3-0.6-0.5-0.9-0.5c0.3,0.2,0.4,0.5,0.5,0.8c0.1,0.3,0.1,0.7-0.3,0.7c-0.3,0-0.6-0.3-0.8-0.5
		c-0.5-0.4-1.1-1.3-1-1.9c-0.3-0.3-0.9-0.6-1.2-0.1l-0.1,0.1l-0.1-0.1c-0.4-0.5-0.8-0.9-1.5-1.1c0.1,0.7,0.6,1.3,1.1,1.8l0.1,0.1
		v0.1c-0.3,0.6,0.1,1.3,0.5,1.7c0.4-0.5,1-0.2,1.4,0.2c0.3,0.3,1.1,1.1,0.9,1.5c-0.2,0.3-0.6,0.1-0.9,0c0.1,0.3,0.3,0.7,0.6,0.9l0,0
		l0,0c0.1,0.3,0.1,0.5,0.2,0.8c0.2,0,0.4-0.1,0.5-0.3l0.1-0.1l0.1,0.1c0.2,0.1,0.5,0.3,0.8,0.2c-0.3-0.1-0.7-0.4-0.7-0.7V113
		c0.1-0.3,0.7-0.1,0.9,0.1c0.3,0.3,0.6,0.6,0.8,1c0.1,0.4,0.3,0.9-0.3,1c-0.7,0.2-2-0.6-2.5-1.1c-0.7-0.7-1.3-1.5-1.8-2.3
		c-0.5-0.7-0.9-1.5-1.2-2.3c-0.6-1.2-1.1-2.5-1.6-3.7l-0.1-0.1l0.1,0.1c1.3,0.5,2.6,1.1,3.9,1.7c1.1,0.5,2.1,1.1,3.1,1.8
		c0.6,0.5,1.5,1.4,1.7,2.1c0.1,0.3,0.1,0.5-0.1,0.7c-0.4,0.3-1.1,0-1.4-0.3c-0.1-0.1-0.3-0.3-0.3-0.5c-0.1-0.2-0.1-0.5,0.2-0.5
		C78.5,110.4,78.7,110.5,78.9,110.7L78.9,110.7z"/>
	<path class="st7" d="M77.9,115.1c-0.8,0-1.9-0.7-2.2-1.2c-0.7-0.7-1.3-1.5-1.8-2.3c-0.5-0.8-0.9-1.5-1.2-2.3
		c-0.5-1.1-1.1-2.4-1.6-3.7l-0.1-0.2l0.2,0.1c1.5,0.6,2.7,1.1,3.9,1.7c1.1,0.5,2.1,1.1,3.1,1.8c0.5,0.4,1.5,1.4,1.7,2.1
		c0.1,0.3,0.1,0.6-0.1,0.7c-0.4,0.3-1.1,0-1.5-0.3c-0.1-0.1-0.3-0.3-0.3-0.5c-0.1-0.1-0.1-0.3-0.1-0.5c0.1-0.1,0.1-0.1,0.3-0.1
		c0.3-0.1,0.5,0,0.7,0.1c-0.1-0.3-0.3-0.6-0.5-0.7h-0.1v-0.1c0.1-0.2,0.1-0.4,0-0.6c-0.2,0-0.3,0-0.5,0.1l-0.1,0.1l-0.1-0.1
		c-0.2-0.3-0.5-0.4-0.8-0.5c0.2,0.2,0.3,0.4,0.4,0.6c0,0.1,0.1,0.1,0.1,0.1c0.1,0.1,0.1,0.4,0.1,0.5s-0.2,0.2-0.3,0.2l0,0
		c-0.3,0-0.6-0.3-0.8-0.5c-0.5-0.4-1.1-1.3-1-1.9c-0.1-0.1-0.4-0.3-0.7-0.3h-0.1c-0.1,0-0.3,0.1-0.4,0.3l-0.1,0.1l-0.1-0.1
		c-0.4-0.4-0.7-0.8-1.4-1.1c0.1,0.6,0.5,1.1,1.1,1.7l0.1,0.1v0.1c-0.3,0.7,0.2,1.3,0.5,1.7c0.1-0.1,0.3-0.3,0.5-0.3
		c0.4,0,0.8,0.3,0.9,0.5c0.3,0.3,1.1,1.1,0.9,1.6c-0.2,0.3-0.6,0.2-0.9,0.1l0,0c0.1,0.3,0.3,0.6,0.5,0.8l0,0l0,0
		c0,0.1,0.1,0.2,0.1,0.3c0,0.2,0.1,0.3,0.1,0.5c0.2,0,0.3-0.1,0.4-0.3l0,0l0.1-0.1l0.1,0.1c0.2,0.1,0.5,0.2,0.7,0.2
		c-0.2-0.1-0.6-0.4-0.6-0.7v-0.1c0.1-0.1,0.1-0.1,0.2-0.1c0.2-0.1,0.6,0.1,0.7,0.2c0.3,0.3,0.6,0.6,0.8,1c0.1,0.3,0.2,0.6,0.1,0.8
		c-0.1,0.1-0.2,0.2-0.3,0.3C78.1,115.1,78.1,115.1,77.9,115.1z M71.1,105.5L71.1,105.5c0.5,1.4,1.1,2.7,1.6,3.8
		c0.3,0.7,0.7,1.5,1.2,2.3c0.5,0.8,1.1,1.7,1.8,2.3c0.5,0.5,1.7,1.3,2.5,1.1c0.1-0.1,0.3-0.1,0.3-0.2c0.1-0.2,0-0.5-0.1-0.7
		c-0.2-0.4-0.5-0.7-0.8-1c-0.1-0.1-0.5-0.3-0.7-0.2c-0.1,0-0.1,0.1-0.1,0.1v0.1c0,0.3,0.5,0.6,0.7,0.7l0.1,0.1h-0.1
		c-0.3,0.1-0.6-0.1-0.8-0.2l-0.1-0.1l-0.1,0.1c-0.1,0.1-0.3,0.3-0.5,0.3l0,0l0,0c-0.1-0.2-0.1-0.3-0.1-0.5c0-0.1,0-0.2-0.1-0.3
		c-0.3-0.2-0.5-0.6-0.6-0.9v-0.1l0.1,0.1c0.3,0.1,0.7,0.3,0.8,0c0.3-0.5-0.5-1.3-0.9-1.5c-0.3-0.3-0.6-0.5-0.9-0.5c0,0,0,0-0.1,0
		c-0.2,0-0.3,0.1-0.5,0.3l0,0l0,0c-0.3-0.3-0.8-1.1-0.5-1.7v-0.1l-0.1-0.1c-0.6-0.6-0.9-1.2-1.1-1.8v-0.1h0.1
		c0.7,0.2,1.1,0.6,1.5,1.1l0.1,0.1l0.1-0.1c0.1-0.2,0.3-0.3,0.5-0.3h0.1c0.3,0,0.6,0.3,0.7,0.4l0,0l0,0c-0.1,0.7,0.5,1.5,1,1.9
		c0.2,0.2,0.5,0.5,0.8,0.5c0.1,0,0.2-0.1,0.3-0.2s0.1-0.3-0.1-0.5c0-0.1-0.1-0.1-0.1-0.1c-0.1-0.3-0.3-0.5-0.5-0.7l-0.1-0.1h0.1
		c0.3,0,0.7,0.2,0.9,0.5l0.1,0.1l0.1-0.1c0.2-0.1,0.3-0.1,0.5-0.1l-0.1-0.1c-0.9-0.7-2-1.3-3.1-1.8
		C73.9,106.7,72.7,106.2,71.1,105.5L71.1,105.5z M78.1,110.5c-0.1,0-0.2,0.1-0.2,0.1c-0.1,0.1,0,0.3,0.1,0.4l0,0
		c0.1,0.2,0.2,0.3,0.3,0.5c0.3,0.3,0.9,0.6,1.3,0.3c0.1-0.1,0.2-0.3,0.1-0.7c-0.1-0.7-0.9-1.5-1.5-1.9c0.1,0.2,0.1,0.4,0,0.6l0,0
		h0.1c0.3,0.1,0.5,0.5,0.5,0.8v0.1l-0.1-0.1C78.7,110.5,78.5,110.5,78.1,110.5L78.1,110.5z"/>
	<path class="st0" d="M79,112.8c0.4,0.5,0.7,0.9,0.8,1.5c0.4-0.1,0.8-0.1,1.5,0c-0.4-0.4-0.7-1-0.9-1.5
		C80.2,112.9,79.7,112.9,79,112.8z"/>
	<path class="st7" d="M81.4,114.3h-0.1c-0.7-0.1-1.1-0.1-1.5,0h-0.1v-0.1c-0.1-0.6-0.4-1-0.8-1.5l-0.1-0.1h0.1
		c0.7,0.1,1.2,0.1,1.5-0.1h0.1v0.1c0.1,0.5,0.5,1.1,0.9,1.5L81.4,114.3z M79.1,112.9c0.3,0.4,0.7,0.8,0.7,1.4c0.4-0.1,0.7-0.1,1.4,0
		c-0.3-0.4-0.7-0.9-0.8-1.5C80.2,112.9,79.7,112.9,79.1,112.9z"/>
	<path class="st0" d="M68.1,100.3c0.2,0.6,0.2,1.5,0,2.1c0.5-0.2,0.9-0.1,1.5,0.3c-0.2-0.5-0.3-1.2-0.1-2
		C69.2,100.7,68.7,100.8,68.1,100.3L68.1,100.3z"/>
	<path class="st7" d="M69.7,102.7L69.7,102.7c-0.6-0.5-1-0.5-1.5-0.3h-0.1v-0.1c0.2-0.6,0.2-1.5,0-2.1l-0.1-0.1l0.1,0.1
		c0.5,0.4,0.9,0.3,1.1,0.3c0.1,0,0.1,0,0.1,0h0.1v0.1c-0.1,0.7-0.1,1.3,0.1,2L69.7,102.7z M68.7,102.3c0.3,0,0.6,0.1,0.9,0.3
		c-0.2-0.7-0.3-1.3-0.1-1.9c0,0-0.1,0-0.1,0c-0.3,0-0.7,0.1-1.1-0.3c0.1,0.6,0.1,1.3,0,1.9C68.3,102.3,68.5,102.3,68.7,102.3z"/>
	<path class="st0" d="M67.1,98c-0.1-0.7-0.1-1.5-0.2-1.9c-0.1-0.3-0.4-0.5-0.6-0.2c-0.1,0.1-0.1,0.2-0.1,0.4c-0.1,0-0.3,0-0.4,0.1
		c-0.1,0.2-0.1,0.5,0,0.6C66.1,97.4,66.7,97.7,67.1,98L67.1,98z"/>
	<path class="st7" d="M67.1,98.1L67.1,98.1c-0.2-0.2-0.4-0.3-0.6-0.4c-0.3-0.2-0.6-0.4-0.8-0.7c-0.1-0.1-0.1-0.4,0-0.7
		c0.1-0.1,0.3-0.1,0.4-0.1c0-0.1,0.1-0.1,0.1-0.2s0.1-0.2,0.1-0.2c0.1-0.1,0.2-0.2,0.3-0.1c0.1,0.1,0.3,0.2,0.3,0.3
		c0.1,0.3,0.1,0.8,0.1,1.3c0,0.2,0,0.5,0.1,0.7L67.1,98.1z M66.1,96.3c-0.1,0-0.3,0-0.4,0.1c-0.1,0.2-0.1,0.4,0,0.5
		c0.2,0.3,0.5,0.5,0.8,0.6c0.2,0.1,0.3,0.2,0.5,0.3c0-0.2,0-0.4-0.1-0.6c0-0.5-0.1-0.9-0.1-1.3c0-0.1-0.1-0.3-0.3-0.3
		c-0.1,0-0.2,0-0.3,0.1c-0.1,0.1-0.1,0.1-0.1,0.2C66.2,96.1,66.2,96.2,66.1,96.3L66.1,96.3L66.1,96.3z"/>
	<path id="path3724" inkscape:connector-curvature="0" class="st7" d="M67.7,52.7c0.1,2.7-0.3,4.9-2.2,7.1L65.3,60l-0.1-0.3
		c-0.1-1.1-0.2-2.2-0.1-3.3c0.1-1.5,0.5-2.8,1.3-4.1c0.5-0.7,1-1.2,1.5-1.8c2.5-2.7,5.4-5.1,8.5-7.1l0.1-0.1l0.7,0.9l-0.1,0.1
		C73.5,46.6,70.3,49.4,67.7,52.7L67.7,52.7z"/>
	<path id="path3726" inkscape:connector-curvature="0" class="st0" d="M76.5,43.5c-4,2.5-6.7,5.2-8.5,7.1c-0.5,0.6-1.1,1.2-1.5,1.8
		c-0.9,1.2-1.3,2.5-1.3,4c-0.1,1.1,0,2.2,0.1,3.3c1.4-1.5,2.3-3.4,2.1-7c2.9-3.6,6.1-6.3,9.5-8.5L76.5,43.5z"/>
	<path id="path3728" inkscape:connector-curvature="0" class="st7" d="M72.2,55.9c1-1.1,2.1-2.2,3.2-3.2c1.5-1.4,3.2-2.6,4.9-3.7
		l0.1-0.1l0.6,0.9l-0.1,0.1c-2.4,1.6-4.7,3.3-6.7,5.4c-0.9,0.9-1.7,1.9-2.7,2.6c-1.7,1.3-3.5,2-5.6,2.7l-0.3,0.1l0.1-0.3
		c0.5-1.1,1.4-2.7,2.5-3.3c0.6-0.3,1.1-0.5,1.7-0.5C70.7,56.3,71.4,56.3,72.2,55.9z"/>
	<path id="path3730" inkscape:connector-curvature="0" class="st0" d="M65.8,60.3c1.6-0.5,3.6-1.1,5.5-2.6c0.9-0.7,1.7-1.5,2.7-2.6
		c2.1-2.2,4.3-3.8,6.7-5.4l-0.4-0.6c-3.5,2.3-5.5,4.1-8,6.9c-1.5,0.7-2.6,0.2-4,1.1C67.4,57.6,66.5,58.9,65.8,60.3L65.8,60.3z"/>
	<path id="path3732" inkscape:connector-curvature="0" class="st7" d="M72.7,52.3c-0.3,1.1-1,2-1.8,2.7c-0.9,0.8-2,1.1-3.2,1.4
		l-0.2,0.1l0.1-0.2c0.2-1.3,0.7-2.6,1.6-3.5c0.4-0.3,0.9-0.6,1.3-0.8c0.4-0.2,0.8-0.3,1.2-0.5c0.3-0.1,0.7-0.3,0.9-0.5
		c1.1-1.1,2.3-2,3.5-3c0.7-0.6,1.5-1.1,2.3-1.7l0.1-0.1l0.7,0.9l-0.1,0.1C76.8,48.9,74.7,50.4,72.7,52.3z"/>
	<path id="path3734" inkscape:connector-curvature="0" class="st0" d="M72.6,52.3c-0.3,1.1-1,2.1-1.8,2.7c-0.9,0.7-1.8,1.1-3.1,1.3
		c0.3-1.3,0.7-2.6,1.5-3.4c0.9-0.9,2.7-1.2,3.4-1.8c2.2-2,3.7-3.1,5.9-4.7l0.5,0.7C77.2,48.3,75,49.9,72.6,52.3z"/>
	<path id="path3736" inkscape:connector-curvature="0" class="st7" d="M64.5,56.4c0,0.5,0,1.1,0.1,1.6c0,0.7,0.1,1.3,0,2.1
		c-0.1,1.6-0.7,2.9-1.5,4.3l-0.2,0.3l-0.1-0.3c-0.4-1.4-0.8-3-0.7-4.5c0.1-2,1.2-3.6,2.5-5l0.3-0.3v1.1l0,0
		C64.8,55.9,64.7,56.1,64.5,56.4L64.5,56.4z"/>
	<path id="path3738" inkscape:connector-curvature="0" class="st0" d="M64.7,54.9c-1.5,1.5-2.4,3.1-2.5,4.9
		c-0.1,1.3,0.2,2.7,0.7,4.5c0.9-1.4,1.4-2.7,1.5-4.3c0.1-1.5-0.1-2.7,0-3.7c0.1-0.3,0.2-0.5,0.3-0.7V54.9L64.7,54.9z"/>
	<path id="path3740" inkscape:connector-curvature="0" class="st7" d="M71.2,59.1c-1.1,1.5-2.1,2.9-3.7,4.1
		c-1.2,0.8-2.4,1.4-3.7,1.8l-0.3,0.1l0.1-0.3c0.6-1.4,1.2-3.1,2.5-3.9c0.6-0.4,1.2-0.7,1.9-0.9c0.6-0.2,1.3-0.3,1.8-0.6
		c0.2-0.1,0.5-0.3,0.7-0.4h0.1l0.9-0.1L71.2,59.1L71.2,59.1z"/>
	<path id="path3742" inkscape:connector-curvature="0" class="st0" d="M71.1,59.1c-1.2,1.7-2.2,3-3.7,4c-1.1,0.7-2.1,1.3-3.7,1.8
		c0.5-1.3,1.2-3,2.5-3.9c1.5-1,3.1-0.9,4.4-1.9C70.5,59.1,71.1,59.1,71.1,59.1z"/>
	<path id="path3744" inkscape:connector-curvature="0" class="st7" d="M68.4,63.8c-0.7,1.5-1.9,3.1-3.1,4.1c-1,0.9-2.3,1.5-3.3,2.3
		l-0.3,0.2l0.1-0.4c0.3-1.1,0.9-3.1,1.8-3.9c0.4-0.3,0.8-0.6,1.3-0.8c0.4-0.1,0.8-0.3,1.2-0.5c0.5-0.3,0.9-0.5,1.3-0.9l0,0l1.2-0.3
		L68.4,63.8L68.4,63.8z"/>
	<path id="path3746" inkscape:connector-curvature="0" class="st0" d="M68.3,63.7c-0.7,1.3-1.8,3-3.1,4c-0.9,0.7-2.3,1.5-3.3,2.2
		c0.5-1.7,1.1-3.3,1.7-3.9c1.1-1.1,2.2-0.8,3.8-2.2L68.3,63.7z"/>
	<path id="path3748" inkscape:connector-curvature="0" class="st7" d="M61.1,74.9c-0.1-0.9,0-1.9,0.3-2.8c0.2-0.7,0.6-1.4,1.3-1.9
		c0.4-0.3,0.9-0.5,1.3-0.8c0.6-0.4,1.1-0.8,1.5-1.3l0,0l1.1-0.5l-0.1,0.3c-0.5,1.5-1.1,3-2.1,4.3c-0.4,0.5-0.9,0.9-1.4,1.4
		c-0.5,0.5-1.1,1-1.5,1.5l-0.2,0.3C61.2,75.3,61.1,74.9,61.1,74.9z"/>
	<path id="path3750" inkscape:connector-curvature="0" class="st0" d="M66.4,67.8c-0.4,1.4-1.1,2.9-2.1,4.2
		c-0.3,0.4-0.9,0.9-1.4,1.4c-0.6,0.5-1.1,1.1-1.6,1.5c-0.1-1,0-1.9,0.3-2.7c0.2-0.7,0.5-1.3,1.2-1.8c0.8-0.6,1.8-0.9,2.9-2.2
		C65.6,68.2,66.4,67.8,66.4,67.8z"/>
	<path id="path3752" inkscape:connector-curvature="0" class="st7" d="M61.8,59.6v1.5v0.1c-0.1,0.3-0.3,0.6-0.3,0.9
		c0,0.1,0,0.2,0,0.3c0.1,0.5,0.2,0.9,0.3,1.3c0.1,0.6,0.3,1.1,0.3,1.7c0.1,1.6-0.1,2.6-0.8,4l-0.1,0.3L61,69.5
		c-0.7-1.4-1.3-2.6-1.4-4.2c-0.1-1.8,0.8-3.9,1.9-5.3C61.5,59.9,61.8,59.6,61.8,59.6z"/>
	<path id="path3754" inkscape:connector-curvature="0" class="st0" d="M61.7,60c-1.1,1.3-2,3.4-1.9,5.2c0.1,1.4,0.5,2.4,1.4,4.1
		c0.7-1.4,0.9-2.4,0.8-3.9c-0.1-1.5-0.6-2.4-0.6-3.4c0-0.3,0.1-0.7,0.3-1L61.7,60L61.7,60z"/>
	<path id="path3756" inkscape:connector-curvature="0" class="st7" d="M59.3,64.9l0.3,2v0.1c-0.1,0.3-0.1,0.6-0.1,0.9
		c0.1,0.2,0.1,0.3,0.1,0.5c0.1,0.3,0.3,0.6,0.4,0.9c0.2,0.5,0.3,0.9,0.5,1.3c0.3,1.3,0.2,2.6-0.1,3.9l-0.1,0.3l-0.2-0.2
		c-0.9-1.1-1.8-2.3-2.1-3.8c-0.5-1.9,0.1-3.8,1-5.5L59.3,64.9z"/>
	<path id="path3758" inkscape:connector-curvature="0" class="st0" d="M59.2,65.3c-0.8,1.4-1.5,3.3-1,5.3c0.3,1.1,0.9,2.3,2.1,3.7
		c0.4-1.3,0.5-2.6,0.1-3.8c-0.4-1.5-0.9-1.9-1.1-2.8c-0.1-0.3-0.1-0.6,0.1-0.9L59.2,65.3L59.2,65.3z"/>
	<path id="path3760" inkscape:connector-curvature="0" class="st7" d="M57.5,70.8l0.9,0.9v0.1c0,1.1,0.1,1.6,0.7,2.5
		c0.6,0.9,1,1.6,1.1,2.7c0.1,0.7,0.1,1.5,0,2.3v0.1h-0.1c-1.4-0.1-2.2-1.1-2.7-2.3c-0.6-1.7-0.4-4.2,0.1-5.9V70.8L57.5,70.8z"/>
	<path id="path3762" inkscape:connector-curvature="0" class="st0" d="M57.6,71.1c-0.4,1.5-0.7,4-0.1,5.9c0.4,1.2,1.2,2.1,2.5,2.2
		c0.1-0.7,0.1-1.5,0-2.3c-0.1-1-0.5-1.7-1.1-2.5c-0.4-0.6-0.7-1.1-0.8-2.5L57.6,71.1z"/>
	<path id="path3764" inkscape:connector-curvature="0" class="st7" d="M65.3,72.1c-0.1,1.3-0.3,2.9-0.7,4.1
		c-0.4,1.3-1.1,2.6-2.5,3.1c-0.4,0.1-0.9,0.2-1.3,0.1h-0.1v-0.1c0.1-0.8,0.1-1.6,0.4-2.4c0.3-1,1.1-1.5,1.8-2.2
		c0.7-0.6,1.1-1.1,1.3-2v-0.1l1.1-0.9L65.3,72.1L65.3,72.1z"/>
	<path id="path3766" inkscape:connector-curvature="0" class="st0" d="M65.2,72.1c-0.1,1-0.3,2.7-0.7,4.1c-0.4,1.2-1.1,2.5-2.5,3
		c-0.3,0.1-0.7,0.2-1.2,0.1c0.1-0.9,0.2-1.7,0.4-2.3c0.3-0.9,1-1.5,1.8-2.1c0.5-0.5,1.1-0.9,1.4-2.1L65.2,72.1L65.2,72.1z"/>
	<path id="path3768" inkscape:connector-curvature="0" class="st7" d="M123.8,42.5c12.4,8,19.9,21.6,19.9,36.4v0.1h-1.5v-0.1
		c-0.1-14.3-7.3-27.5-19.3-35.1l-0.1-0.1l0.8-1.3L123.8,42.5L123.8,42.5z M121.8,45.5c11.4,7.3,18.3,19.8,18.3,33.3V79h-1.4v-0.1
		c-0.1-13.1-6.7-25.2-17.7-32.2l-0.1-0.1l0.8-1.1L121.8,45.5z M120.1,48.1c10.5,6.7,16.9,18.3,16.9,30.8v0.1h-1.3v-0.1
		c-0.1-12.1-6.2-23.2-16.3-29.7l-0.1-0.1l0.7-1.1L120.1,48.1L120.1,48.1z"/>
	<path id="path3772" inkscape:connector-curvature="0" class="st0" d="M123.7,42.7c11.9,7.7,19.8,21.1,19.9,36.3h-1.2
		c-0.1-14.8-7.7-27.8-19.3-35.3L123.7,42.7L123.7,42.7z"/>
	<path id="path3774" inkscape:connector-curvature="0" class="st0" d="M121.7,45.7c10.9,7,18.2,19.3,18.3,33.3h-1.1
		c-0.1-13.6-7.1-25.5-17.8-32.3L121.7,45.7L121.7,45.7z"/>
	<path id="path3776" inkscape:connector-curvature="0" class="st0" d="M120,48.3c10.1,6.5,16.8,17.8,16.9,30.7h-1.1
		c-0.1-12.5-6.6-23.5-16.4-29.8L120,48.3L120,48.3z"/>
	<path id="path3782" inkscape:connector-curvature="0" class="st3" d="M131.4,51.2c0.3-0.5,0.7-0.9,1.3-0.9c0.7,0,1.3,0.3,1.7,0.7
		c0.4,0.4,0.6,0.8,0.7,1.3c0.3,1.6-1.1,3.2-2.3,4.1c-0.9,0.7-2.1,1.3-3.3,1.3c-0.7,0-1.4-0.3-1.8-0.8c-0.5-0.7-0.8-1.9-0.3-2.7
		c0.3-0.3,0.7-0.5,1.1-0.5c-0.3-0.9-0.3-2,0.5-2.7C129.8,50.6,130.7,50.9,131.4,51.2L131.4,51.2z"/>
	<path id="path3784" inkscape:connector-curvature="0" class="st2" d="M131.5,51.4c-1.1-0.5-1.9-0.5-2.3-0.1
		c-0.6,0.5-0.9,1.3-0.3,2.7c-0.6-0.1-1,0.1-1.3,0.4c-0.5,0.7-0.3,1.8,0.3,2.5c0.4,0.5,1,0.7,1.7,0.8c1,0,2.1-0.4,3.2-1.3
		s2.5-2.5,2.2-3.9c-0.1-0.4-0.3-0.8-0.7-1.3c-0.4-0.3-0.9-0.7-1.6-0.7C132.2,50.5,131.7,50.8,131.5,51.4L131.5,51.4z"/>
	<path id="path3786" inkscape:connector-curvature="0" class="st3" d="M132.5,54.7l1.3-2.3l-0.5,4.7l-4.7-0.3l2.5-0.9l-0.5-2
		L132.5,54.7L132.5,54.7z"/>
	<path id="path3788" inkscape:connector-curvature="0" class="st8" d="M130.9,54l0.5,1.8l-2.1,0.7l3.8,0.3l0.5-3.8l-1.1,1.8
		L130.9,54L130.9,54z"/>
	<path id="path3790" inkscape:connector-curvature="0" class="st3" d="M136.2,58.1c0.3-0.5,0.9-0.7,1.5-0.6c0.6,0.1,1.1,0.6,1.5,1.1
		c0.3,0.5,0.5,0.9,0.4,1.5c0,1.6-1.8,2.9-3.1,3.5c-1.1,0.5-2.4,0.8-3.5,0.5c-0.7-0.1-1.3-0.5-1.6-1.2c-0.4-0.8-0.4-2.1,0.3-2.7
		c0.3-0.3,0.8-0.3,1.2-0.3c-0.1-0.9,0.1-2.1,1.1-2.5C134.7,57.1,135.6,57.5,136.2,58.1L136.2,58.1z"/>
	<path id="path3792" inkscape:connector-curvature="0" class="st2" d="M136.3,58.3c-1-0.8-1.7-0.9-2.2-0.6c-0.7,0.3-1.1,1.1-0.9,2.5
		c-0.6-0.2-1-0.1-1.3,0.1c-0.7,0.5-0.7,1.7-0.3,2.5c0.3,0.5,0.8,0.9,1.5,1.1c0.9,0.2,2.2,0.1,3.4-0.5c1.3-0.6,3-1.9,3-3.4
		c0-0.5-0.1-0.9-0.4-1.3c-0.3-0.5-0.8-0.9-1.4-1C137.1,57.5,136.6,57.7,136.3,58.3L136.3,58.3z"/>
	<path id="path3794" inkscape:connector-curvature="0" class="st3" d="M136.5,61.7l1.8-2l-1.5,4.4l-4.5-1.3l2.7-0.4l-0.1-2.1
		L136.5,61.7z"/>
	<path id="path3796" inkscape:connector-curvature="0" class="st8" d="M135.1,60.7l0.1,1.9l-2.1,0.3l3.7,1.1l1.3-3.6l-1.5,1.5
		L135.1,60.7L135.1,60.7z"/>
	<path id="path3798" inkscape:connector-curvature="0" class="st3" d="M139.5,65.5c0.4-0.4,1-0.5,1.5-0.3c0.6,0.2,1.1,0.8,1.3,1.3
		c0.2,0.5,0.3,0.9,0.2,1.5c-0.3,1.6-2.3,2.5-3.7,2.9c-1.1,0.3-2.5,0.4-3.5-0.1c-0.7-0.3-1.2-0.8-1.4-1.5c-0.3-0.9,0-2.1,0.8-2.5
		c0.4-0.2,0.9-0.2,1.3,0c0.1-0.9,0.5-2,1.5-2.3C138.2,64.3,138.9,64.9,139.5,65.5L139.5,65.5z"/>
	<path id="path3800" inkscape:connector-curvature="0" class="st2" d="M139.5,65.7c-0.9-0.9-1.5-1.1-2.1-1c-0.7,0.2-1.3,0.9-1.3,2.3
		c-0.5-0.3-1-0.3-1.3-0.1c-0.7,0.4-0.9,1.5-0.7,2.4c0.2,0.6,0.6,1.1,1.3,1.4c0.9,0.4,2.1,0.5,3.5,0.1c1.3-0.3,3.3-1.3,3.6-2.8
		c0.1-0.4,0.1-0.9-0.1-1.4c-0.2-0.5-0.6-1.1-1.2-1.3C140.5,65.1,139.9,65.2,139.5,65.7L139.5,65.7z"/>
	<path id="path3802" inkscape:connector-curvature="0" class="st3" d="M139.2,69.1l2.1-1.6l-2.3,4.1l-4.2-2.1l2.7,0.1l0.3-2.1
		L139.2,69.1L139.2,69.1z"/>
	<path id="path3804" inkscape:connector-curvature="0" class="st8" d="M138,67.9l-0.3,1.9l-2.2-0.1l3.4,1.7l1.9-3.3l-1.7,1.3
		L138,67.9L138,67.9z"/>
	<path id="path3806" inkscape:connector-curvature="0" class="st3" d="M141.9,73.7c0.5-0.3,1.1-0.3,1.5,0.1c0.5,0.4,0.8,1.1,0.9,1.7
		c0.1,0.5,0,1-0.3,1.5c-0.7,1.4-2.9,1.8-4.3,1.8c-1.1,0-2.5-0.3-3.4-1.1c-0.5-0.5-0.9-1.1-0.9-1.8c0-0.9,0.5-2,1.5-2.2
		c0.5-0.1,0.9,0.1,1.2,0.3c0.3-0.9,1-1.8,2-1.7C141,72.2,141.5,72.9,141.9,73.7L141.9,73.7z"/>
	<path id="path3808" inkscape:connector-curvature="0" class="st2" d="M141.8,73.9c-0.5-1.1-1.1-1.5-1.7-1.5c-0.7,0-1.5,0.5-1.9,1.9
		c-0.5-0.4-0.9-0.5-1.3-0.5c-0.8,0.2-1.3,1.2-1.3,2.1c0,0.6,0.3,1.2,0.9,1.7c0.7,0.6,1.9,1,3.3,1.1c1.4,0.1,3.5-0.3,4.2-1.7
		c0.2-0.4,0.3-0.8,0.3-1.4c-0.1-0.5-0.3-1.2-0.8-1.5C143,73.6,142.4,73.5,141.8,73.9L141.8,73.9z"/>
	<path id="path3810" inkscape:connector-curvature="0" class="st3" d="M140.6,77.1l2.5-0.9l-3.3,3.3l-3.5-3.1l2.6,0.9l0.9-1.9
		L140.6,77.1L140.6,77.1z"/>
	<path id="path3812" inkscape:connector-curvature="0" class="st8" d="M139.7,75.5l-0.8,1.7l-2.1-0.7l2.8,2.6l2.7-2.7l-2,0.7
		L139.7,75.5L139.7,75.5z"/>
	<path id="path3816" inkscape:connector-curvature="0" class="st1" d="M60.3,144.5l2.7-0.1c0.1,0.4,0.2,0.7,0.3,0.9
		c0.3,0.3,0.7,0.5,1.3,0.5c0.4,0,0.7-0.1,0.9-0.3c0.2-0.2,0.3-0.3,0.3-0.6c0-0.2-0.1-0.4-0.3-0.6c-0.2-0.2-0.7-0.3-1.4-0.5
		c-1.2-0.3-2.1-0.6-2.6-1c-0.5-0.4-0.8-0.9-0.8-1.6c0-0.4,0.1-0.8,0.4-1.2c0.3-0.4,0.7-0.7,1.2-0.9c0.5-0.2,1.3-0.3,2.2-0.3
		c1.1,0,2.1,0.2,2.7,0.6c0.6,0.4,0.9,1,1.1,1.9l-2.7,0.1c-0.1-0.4-0.2-0.7-0.5-0.8c-0.2-0.1-0.5-0.3-0.9-0.3c-0.3,0-0.6,0.1-0.7,0.2
		s-0.3,0.3-0.3,0.5c0,0.1,0.1,0.3,0.2,0.3c0.1,0.1,0.5,0.2,0.9,0.3c1.2,0.3,2.1,0.5,2.6,0.7c0.5,0.3,0.9,0.5,1.1,0.9
		c0.3,0.3,0.3,0.7,0.3,1.2c0,0.5-0.1,1-0.5,1.5c-0.3,0.5-0.8,0.8-1.3,1c-0.6,0.2-1.3,0.3-2.2,0.3c-1.5,0-2.6-0.3-3.2-0.8
		C60.7,145.9,60.4,145.3,60.3,144.5L60.3,144.5z"/>
	<path id="path3818" inkscape:connector-curvature="0" class="st1" d="M69.9,139h2.8v2.9h3.1V139h2.8v8.2h-2.8v-3.3h-3.1v3.3h-2.8
		V139z"/>
	<path id="path3820" inkscape:connector-curvature="0" class="st1" d="M79.5,139h3.1l1.8,2.7l1.8-2.7h3.1l-3.5,4.7v3.4H83v-3.4
		L79.5,139z"/>
	<path id="path3822" inkscape:connector-curvature="0" class="st1" d="M90.3,139h3.7l1.4,5l1.4-5h3.7v8.2h-2.3V141l-1.8,6.2h-2
		l-1.7-6.2v6.2h-2.3L90.3,139L90.3,139z"/>
	<path id="path3824" inkscape:connector-curvature="0" class="st1" d="M102.2,139h2.8v3.1l2.9-3.1h3.7l-3.3,3.1l3.5,5.1h-3.5
		l-1.9-3.3l-1.5,1.3v2h-2.8L102.2,139L102.2,139z"/>
	<path id="path3826" inkscape:connector-curvature="0" class="st1" d="M112.7,139h7.5v1.7h-4.7v1.3h4.3v1.7h-4.3v1.6h4.8v1.9h-7.6
		V139L112.7,139z"/>
	<path id="path3828" inkscape:connector-curvature="0" class="st1" d="M121.9,139h2.6l3.4,4.5V139h2.7v8.2h-2.7l-3.4-4.5v4.5h-2.6
		V139z"/>
	<path id="path3830" inkscape:connector-curvature="0" class="st1" d="M131.7,139h8.5v2h-2.9v6.1h-2.8V141h-2.9L131.7,139L131.7,139
		z"/>
	<path id="path3832" inkscape:connector-curvature="0" class="st1" d="M90.9,155.2v7.1h-2.2v-4.7c-0.3,0.3-0.7,0.5-1.1,0.6
		s-0.7,0.3-1.3,0.4v-1.6c0.7-0.2,1.3-0.5,1.7-0.8c0.4-0.3,0.7-0.7,1-1.1L90.9,155.2L90.9,155.2z"/>
	<path id="path3834" inkscape:connector-curvature="0" class="st1" d="M93.4,160.7l2.2-0.3c0.1,0.3,0.1,0.5,0.3,0.6s0.3,0.2,0.5,0.2
		c0.3,0,0.6-0.1,0.8-0.5c0.1-0.2,0.3-0.7,0.3-1.5c-0.3,0.3-0.5,0.4-0.8,0.5s-0.6,0.1-0.9,0.1c-0.7,0-1.3-0.2-1.8-0.7
		c-0.5-0.5-0.7-1-0.7-1.7c0-0.5,0.1-0.9,0.4-1.3c0.3-0.4,0.6-0.7,1-0.9c0.4-0.2,1-0.3,1.7-0.3c0.8,0,1.4,0.1,1.9,0.3
		c0.5,0.3,0.9,0.6,1.1,1.1c0.3,0.5,0.4,1.2,0.4,2.1c0,1.3-0.3,2.2-0.9,2.8c-0.6,0.6-1.4,0.9-2.5,0.9c-0.6,0-1.1-0.1-1.5-0.2
		c-0.3-0.1-0.7-0.3-0.9-0.6C93.7,161.4,93.5,161.1,93.4,160.7L93.4,160.7z M97.4,157.6c0-0.4-0.1-0.7-0.3-0.9
		c-0.2-0.2-0.5-0.3-0.8-0.3c-0.3,0-0.5,0.1-0.7,0.3c-0.2,0.2-0.3,0.5-0.3,0.9s0.1,0.7,0.3,0.9c0.2,0.2,0.5,0.3,0.7,0.3
		c0.3,0,0.5-0.1,0.8-0.3C97.3,158.3,97.4,158,97.4,157.6L97.4,157.6z"/>
	<path id="path3836" inkscape:connector-curvature="0" class="st1" d="M104.4,161h-4v-1.6l4-4.2h1.9v4.3h1v1.5h-1v1.3h-1.9V161z
		 M104.4,159.5v-2.2l-2.1,2.2H104.4z"/>
	<path id="path3838" inkscape:connector-curvature="0" class="st1" d="M108.1,160.7l2.2-0.3c0.1,0.3,0.1,0.5,0.3,0.6
		s0.3,0.2,0.5,0.2c0.3,0,0.6-0.1,0.8-0.5c0.1-0.2,0.3-0.7,0.3-1.5c-0.3,0.3-0.5,0.4-0.8,0.5s-0.6,0.1-0.9,0.1
		c-0.7,0-1.3-0.2-1.8-0.7s-0.7-1-0.7-1.7c0-0.5,0.1-0.9,0.4-1.3c0.3-0.4,0.6-0.7,1-0.9c0.5-0.2,1-0.3,1.7-0.3c0.8,0,1.4,0.1,1.9,0.3
		c0.5,0.3,0.9,0.6,1.1,1.1c0.3,0.5,0.4,1.2,0.4,2.1c0,1.3-0.3,2.2-0.9,2.8c-0.6,0.6-1.4,0.9-2.5,0.9c-0.6,0-1.1-0.1-1.5-0.2
		s-0.7-0.3-0.9-0.6C108.4,161.4,108.2,161.1,108.1,160.7z M112.1,157.6c0-0.4-0.1-0.7-0.3-0.9c-0.2-0.2-0.5-0.3-0.8-0.3
		c-0.3,0-0.5,0.1-0.7,0.3s-0.3,0.5-0.3,0.9s0.1,0.7,0.3,0.9c0.2,0.2,0.5,0.3,0.7,0.3c0.3,0,0.5-0.1,0.8-0.3
		C112,158.3,112.1,158,112.1,157.6L112.1,157.6z"/>
	<path id="path3842" inkscape:connector-curvature="0" class="st2" d="M187.7,99.7c-0.6-0.5-1.1-0.1-1.5,0.3c-0.4,0.1-1,0.1-1.4,0.7
		c-0.3,0.5,0.3,1.1,0.5,1.5c-0.1,0.4-0.3,0.9-0.3,1.3c0,0.3,0.5,1,0.7,1.3c0.1,0.3-0.1,0.4-0.2,0.4c-0.3-0.1-0.7-0.3-0.9-0.4
		c-0.5-0.2-1.3-0.1-3.7,0.3c-0.3-0.3-1.1-0.9-1.1-1.6c0.1-2.7,0-3.7,0.1-5.5c0.1-0.6,1.3-1.3,1.7-2c0.5-0.9-0.1-1.7-0.9-1.6
		c-0.7,0.1-1.8,1.1-2.4,2.7c-0.6,1.5-0.5,3.5-1,4.1c-0.3,0.5-1,0.5-1.1-0.1c-0.2-0.6-0.6-1.7-0.4-2.3c0.1-0.2,0.5-0.5,1-1.2
		c0.2-0.3,0.3-0.7,0.3-0.9c-0.1-0.5-0.8-0.5-1.5-0.3c-0.7,0.3-1.4,0.9-1.4,1.7c-0.1,2.7,1.3,9.3,1.7,10.8c0.1,0.3,0.1,0.6,0.5,0.7
		c0.3,0.1,0.5,0,0.7,0.1c0.1,0.1,0.1,0.2,0.2,0.4c0.7,5.1,0.8,7.1,5,10.1c0.7,0.5,0.3,1.4-0.5,1.5c-0.6,0.1-1.1-0.1-1.7-0.1
		c-0.6,0.1-1.1,0.3-1.5,1c-0.2,0.3-0.4,0.9-0.6,1.3c0,0.1-0.5,1.1-1,0.7c-0.5-0.3-1.2-1-1.7-1.6c-0.4-0.5-0.3-1-0.5-1.4
		c-0.3-0.5-0.8-0.5-1-0.4c-1.3,0.1-1.3,1.3-0.7,2c0.6,0.6,1.5,1.2,2.2,1.9c0.7,0.7,1.5,1.5,1.9,1.9c0.3,0.2,0.5,0.3,0.8,0.4
		c0.5,0,0.7-0.4,0.9-0.7c0.2-0.3,0.8-0.1,0.7,0.3c-0.2,1.5,0.4,2.6,1.1,3.1c0.3,0.3,0.2,0.5-0.3,0.9c-0.7,0.5-2.3,1.3-4.1-0.3
		c-0.2-0.2-0.7,0.1-1,0.6c-0.6,0.8-0.7,2.4,0.9,2.7c1.5,0.2,5.2-0.4,6.9-1.9c0.1-0.1,0.3-0.3,0.2-0.8c-0.1-0.3-0.3-0.5-0.4-0.8
		c-0.2-0.3-0.4-0.7-0.3-1c0.1-0.2,0.3-0.3,0.5-0.4c0.6-0.2,1.2,0.1,1.9-0.4c0.5,0.3,0.3,1.5,0.3,2.3c0,0.4,0.1,0.7-0.1,1.2
		c-0.5,1.3-1.9,3.3-2.7,5.1c-0.5,1.1-0.6,1.8-0.7,3c-0.1,1.5,0.9,3.8,2.1,3.9c0.5,0,0.5-1.1-0.2-1.7c-0.7-0.5-0.7-1-0.8-1.7
		c-0.1-0.7,0.1-1.6,0.5-2.4c0.8-2.1,2.5-4.3,3.1-6.2c0.2-0.6,0.5-1.5,0.2-2.5c0.9-1.6,1.1-3.4,1-5.1c-0.1-3.4-1.9-7.3-3.1-10.8
		c0.5-0.9,0.7-1.5,0.4-1.9c0.1-0.3,0.3-0.6,0.7-0.9c0.2-0.2,0.5-0.3,0.8-0.5c1.5-1.1,2.5-2.2,3.2-3.5c1.1,0.4,1.8-0.1,1.3-0.9
		c-0.3-0.4-0.5-0.7-0.7-0.9c-0.3-0.3-0.5-0.4-0.5-0.7c-0.4-1-0.3-1.3-0.4-1.6c-0.1-0.1-0.4-0.5-0.6-0.7
		C188.4,100.6,188.1,100,187.7,99.7L187.7,99.7z"/>
	<path id="path3844" inkscape:connector-curvature="0" class="st2" d="M12.5,99.9c0.6-0.5,1.1-0.1,1.5,0.3c0.4,0.1,1,0.1,1.4,0.7
		c0.3,0.5-0.3,1.1-0.5,1.5c0.1,0.4,0.3,0.9,0.3,1.3c0,0.3-0.5,1-0.7,1.3c-0.1,0.3,0.1,0.4,0.2,0.4c0.3-0.1,0.7-0.3,0.9-0.4
		c0.5-0.2,1.3-0.1,3.7,0.3c0.3-0.3,1.1-0.9,1.1-1.6c-0.1-2.7,0-3.7-0.1-5.5c-0.1-0.6-1.3-1.3-1.7-2c-0.5-0.9,0.1-1.7,0.9-1.6
		c0.7,0.1,1.8,1.1,2.4,2.7c0.6,1.5,0.5,3.5,1,4.1c0.3,0.5,1,0.5,1.1-0.1c0.2-0.6,0.6-1.7,0.4-2.3c-0.1-0.2-0.5-0.5-1-1.2
		c-0.2-0.3-0.3-0.7-0.3-0.9c0.1-0.5,0.8-0.5,1.5-0.3c0.7,0.3,1.4,0.9,1.4,1.7c0.1,2.7-1.3,9.3-1.7,10.8c-0.1,0.3-0.1,0.6-0.5,0.7
		c-0.3,0.1-0.5,0-0.7,0.1c-0.1,0.1-0.1,0.2-0.2,0.4c-0.7,5.1-0.8,7.1-5,10.1c-0.7,0.5-0.3,1.4,0.5,1.5c0.6,0.1,1.1-0.1,1.7-0.1
		c0.6,0.1,1.1,0.3,1.5,1c0.2,0.3,0.4,0.9,0.6,1.3c0,0.1,0.5,1.1,1,0.7s1.2-1,1.7-1.6c0.4-0.5,0.3-1,0.5-1.4c0.3-0.5,0.8-0.5,1-0.4
		c1.3,0.1,1.3,1.3,0.7,2c-0.6,0.6-1.5,1.2-2.2,1.9c-0.7,0.7-1.5,1.5-1.9,1.9c-0.3,0.2-0.5,0.3-0.8,0.4c-0.5,0-0.7-0.4-0.9-0.7
		s-0.8-0.1-0.7,0.3c0.2,1.5-0.4,2.6-1.1,3.1c-0.3,0.3-0.2,0.5,0.3,0.9c0.7,0.5,2.3,1.3,4.1-0.3c0.2-0.2,0.7,0.1,1,0.6
		c0.6,0.8,0.7,2.4-0.9,2.7c-1.5,0.2-5.2-0.4-6.9-1.9c-0.1-0.1-0.3-0.3-0.2-0.8c0.1-0.3,0.3-0.5,0.4-0.8c0.2-0.3,0.4-0.7,0.3-1
		c-0.1-0.2-0.3-0.3-0.5-0.4c-0.6-0.2-1.2,0.1-1.9-0.4c-0.5,0.3-0.3,1.5-0.3,2.3c0,0.4-0.1,0.7,0.1,1.2c0.5,1.3,1.9,3.3,2.7,5.1
		c0.5,1.1,0.6,1.8,0.7,3c0.1,1.5-0.9,3.8-2.1,3.9c-0.5,0-0.5-1.1,0.2-1.7c0.7-0.5,0.7-1,0.8-1.7c0.1-0.7-0.1-1.6-0.5-2.4
		c-0.8-2.1-2.5-4.3-3.1-6.2c-0.2-0.6-0.5-1.5-0.2-2.5c-0.9-1.6-1.1-3.4-1-5.1c0.1-3.4,1.9-7.3,3.1-10.8c-0.5-0.9-0.7-1.5-0.4-1.9
		c-0.1-0.3-0.3-0.6-0.7-0.9c-0.2-0.2-0.5-0.3-0.8-0.5c-1.5-1.1-2.5-2.2-3.2-3.5c-1.1,0.4-1.8-0.1-1.3-0.9c0.3-0.4,0.5-0.7,0.7-0.9
		c0.3-0.3,0.5-0.4,0.5-0.7c0.4-1,0.3-1.3,0.4-1.6c0.1-0.1,0.4-0.5,0.6-0.7C11.8,100.8,12.1,100.2,12.5,99.9L12.5,99.9z"/>
	<path id="path3848" inkscape:connector-curvature="0" class="st2" d="M31.4,161.6c-1.9-2.1-2.6-4.2-2.3-6.3c0.3-2.2,1.3-4,2.9-5.5
		c1.7-1.5,3.5-2.2,5.7-2.3c2.2-0.1,4.2,1,6.1,3.1c1.9,2.1,2.7,4.2,2.3,6.4c-0.3,2.1-1.3,4-2.9,5.4c-1.7,1.5-3.5,2.2-5.7,2.3
		C35.3,164.7,33.3,163.7,31.4,161.6L31.4,161.6z M35.7,160.1c1.5,0.5,3.1-0.1,4.4-1.2s1.9-2.7,1.6-4.1c-0.3-1.5-1.4-2.5-2.9-2.7
		c-1.5-0.3-2.7,0.3-3.9,1.3c-1.1,1-1.7,2.5-1.5,3.9C33.6,158.6,34.5,159.7,35.7,160.1z"/>
	<path id="path3850" inkscape:connector-curvature="0" class="st2" d="M44.3,173.3l8.4-13l5.5,3.5c0.1,0.1,0.4,0.3,0.8,0.6
		c0.4,0.3,1,0.7,1.3,1.2c0.4,0.6,0.7,1.3,0.8,2.2s-0.1,1.8-0.8,2.9c-0.7,1.1-1.6,1.9-2.5,2.1c-0.9,0.3-1.8,0.3-2.6,0.1h-0.1H55
		l0.3,7.7l-4.5-2.9l0.1-5.9l-2.7,4.2L44.3,173.3L44.3,173.3z M52.7,168.5l0.9,0.6c1,0.6,1.9,0.6,2.6-0.4c0.6-0.9,0.5-1.9-0.6-2.5
		l-0.9-0.6L52.7,168.5z"/>
	<path id="path3852" inkscape:connector-curvature="0" class="st2" d="M62.8,184.3l5.1-14.7l5.4,1.9c2.1,0.7,3.6,1.7,4.3,2.8
		c0.8,1.1,1.2,2.3,1.3,3.4c0.1,0.9,0.1,1.7-0.1,2.3s-0.3,1.2-0.4,1.5c-0.7,1.9-1.8,3.4-3.5,4.5c-1.7,1.1-3.9,1.2-6.7,0.3L62.8,184.3
		L62.8,184.3z M68.3,182.3l0.4,0.1c0.2,0.1,0.5,0.1,0.8,0.3c2.1,0.5,3.9-0.7,4.6-2.7c0.9-2.6-0.3-4.4-2.7-5.2l-0.4-0.1L68.3,182.3z"
		/>
	<path id="path3854" inkscape:connector-curvature="0" class="st2" d="M105.5,176.5l7.5-1.3c1.4-0.3,2.5-0.2,3.2,0.2
		c0.7,0.4,1.3,0.9,1.6,1.4c0.1,0.3,0.3,0.5,0.3,0.7c0.1,0.3,0.1,0.5,0.2,0.7c0.1,0.8,0,1.5-0.3,2.1c-0.4,0.7-0.9,1.1-1.5,1.5v0.1
		c0.2,0,0.4,0.1,0.7,0.1c0.3,0.1,0.5,0.1,0.9,0.3c0.5,0.2,1,0.5,1.5,1c0.5,0.5,0.8,1.1,1,2.1c0,0.1,0,0.2,0.1,0.3
		c0,0.1,0,0.2,0.1,0.3c0.1,0.9-0.2,1.9-0.9,2.8c-0.7,0.9-1.8,1.5-3.5,1.9l-8,1.4L105.5,176.5L105.5,176.5z M112.1,188l1.8-0.3
		c1.1-0.2,2.3-0.7,2-2.1c-0.2-1.3-1.5-1.3-2.5-1.1l-1.9,0.3L112.1,188L112.1,188z M111,181.8l1.8-0.3c1-0.2,1.8-0.7,1.6-1.8
		c-0.2-1.1-1.1-1.3-2.1-1.2l-1.8,0.3L111,181.8L111,181.8z"/>
	<path id="path3856" inkscape:connector-curvature="0" class="st2" d="M128.5,188.2l-1.6-16.5l4.9-2.3l11.7,11.9l-4.3,2l-1.9-2.1
		l-4.7,2.2l0.4,2.7L128.5,188.2L128.5,188.2z M130.9,173.9l0.9,6l3.2-1.5L130.9,173.9L130.9,173.9z"/>
	<path id="path3858" inkscape:connector-curvature="0" class="st2" d="M83.1,190.9l6.9-15.1l5.4,0.5l4.1,16.1l-4.7-0.4l-0.7-2.8
		l-5.2-0.5l-1.1,2.6L83.1,190.9L83.1,190.9z M92.5,179.7l-2.3,5.6l3.5,0.3L92.5,179.7L92.5,179.7z"/>
	<path id="path3860" inkscape:connector-curvature="0" class="st2" d="M150.1,159.3l0.7,3.6c-0.6-0.1-1.3-0.1-1.9,0
		c-0.5,0.1-1,0.3-1.4,0.5c-0.4,0.3-0.5,0.5-0.6,0.7c-0.1,0.4-0.1,0.8,0.2,1.2c0.4,0.5,1,0.6,1.5,0.4c0.1-0.1,0.3-0.1,0.4-0.1
		c0.1-0.1,0.3-0.1,0.3-0.1c0.3-0.1,0.5-0.2,0.8-0.3c0.3-0.1,0.8-0.3,1.2-0.4c1.1-0.2,2.2-0.1,3.1,0.3c0.7,0.3,1.3,1,1.9,1.7
		c1.1,1.5,1.3,2.9,0.7,4.3c-0.5,1.3-1.3,2.5-2.6,3.4c-0.3,0.3-0.7,0.5-1,0.6c-0.3,0.2-0.7,0.3-1.1,0.5c-0.5,0.2-1.1,0.3-1.8,0.3
		c-0.7,0.1-1.4,0.1-2.3,0l-0.3-4.1c1.1,0.1,2.9,0.3,4.1-0.3c0.3-0.2,0.8-0.5,0.9-0.9c0.1-0.3,0.1-0.7-0.1-1
		c-0.3-0.5-0.7-0.9-1.3-0.8c-0.5,0.1-1,0.2-1.5,0.4c0,0-0.1,0-0.1,0.1c-0.1,0-0.1,0.1-0.1,0.1c-0.2,0.1-0.5,0.2-0.7,0.3
		c-0.3,0.1-0.5,0.2-0.9,0.3c-0.7,0.1-1.5,0.1-2.4-0.1s-1.7-0.8-2.4-1.8c-0.8-1.1-1.1-2.3-0.8-3.5c0.2-1.3,1.1-2.5,2.5-3.5
		C146.7,159.8,148.4,159.2,150.1,159.3L150.1,159.3z"/>
	<path id="path3862" inkscape:connector-curvature="0" class="st2" d="M168.2,161.7l-4.6-4l-10.7-2.3l3.5-4l5.8,1.7l-2.5-5.5
		l3.3-3.7l3.7,10.3l4.6,4L168.2,161.7z"/>
	<path id="path3866" inkscape:connector-curvature="0" class="st2" d="M32.4,59.6l-9.7-6.3l3.8-5.8l2.3,1.5l-2,3.1l1.5,0.9l1.8-2.8
		l2.2,1.4l-1.8,2.8l3.7,2.4L32.4,59.6L32.4,59.6z"/>
	<path id="path3868" inkscape:connector-curvature="0" class="st2" d="M42.7,46.4c-0.9,0.9-1.8,1.5-2.9,1.8c-1,0.3-2.1,0.3-3.1,0.1
		s-1.9-0.8-2.8-1.6c-0.9-0.8-1.4-1.7-1.7-2.7c-0.3-1-0.3-2-0.1-3.1c0.3-1.1,0.9-2,1.7-2.9c0.9-0.9,1.8-1.5,2.9-1.8
		c1.1-0.3,2.1-0.3,3.1-0.1c1,0.3,1.9,0.8,2.8,1.7c0.7,0.6,1.1,1.3,1.5,2s0.5,1.5,0.5,2.3c0,0.8-0.1,1.5-0.5,2.3
		C43.9,45,43.4,45.7,42.7,46.4L42.7,46.4z M40.7,44.5c0.3-0.3,0.5-0.7,0.7-1.2c0.1-0.5,0.1-1-0.1-1.5c-0.1-0.5-0.5-1.1-1.1-1.6
		s-1.1-0.9-1.7-1c-0.5-0.1-1.1-0.1-1.5,0c-0.5,0.1-0.9,0.4-1.2,0.7c-0.3,0.3-0.5,0.7-0.7,1.2c-0.1,0.5-0.1,1,0.1,1.5
		c0.1,0.5,0.5,1.1,1.1,1.6c0.5,0.5,1.1,0.9,1.7,1c0.5,0.1,1.1,0.1,1.5,0C40,45.1,40.4,44.8,40.7,44.5L40.7,44.5z"/>
	<path id="path3870" inkscape:connector-curvature="0" class="st2" d="M54.7,35.9c-1.1,0.7-2.1,1.1-3.2,1.2c-1.1,0.1-2.1-0.1-3-0.6
		s-1.7-1.2-2.3-2.2c-0.7-0.9-1-2-1.1-3c-0.1-1.1,0.1-2.1,0.6-3c0.5-0.9,1.3-1.8,2.3-2.5c1.1-0.7,2.1-1.1,3.2-1.2
		c1.1-0.1,2.1,0.1,3,0.6s1.7,1.2,2.3,2.2c0.5,0.7,0.8,1.5,1,2.3c0.2,0.8,0.2,1.5,0.1,2.3c-0.1,0.7-0.5,1.5-0.9,2.1
		C56.1,34.8,55.4,35.4,54.7,35.9L54.7,35.9z M53.1,33.7c0.4-0.3,0.7-0.6,0.9-1.1c0.3-0.5,0.3-0.9,0.3-1.5c-0.1-0.6-0.3-1.2-0.7-1.8
		c-0.4-0.6-0.9-1.1-1.4-1.3s-1-0.3-1.5-0.3c-0.5,0.1-0.9,0.2-1.3,0.5c-0.4,0.3-0.7,0.6-0.9,1.1c-0.3,0.5-0.3,0.9-0.3,1.5
		c0.1,0.6,0.3,1.1,0.7,1.8c0.4,0.6,0.9,1.1,1.4,1.3c0.5,0.3,1,0.4,1.5,0.3C52.3,34.1,52.7,33.9,53.1,33.7z"/>
	<path id="path3872" inkscape:connector-curvature="0" class="st2" d="M64.8,29.5l-3.6-8l-2.3,1l-1.1-2.5l7.6-3.4l1.1,2.5l-2.3,1.1
		l3.6,8L64.8,29.5z"/>
	<path id="path3874" inkscape:connector-curvature="0" class="st2" d="M70.4,14.5l5.4-1.5c0.9-0.3,1.7-0.3,2.3-0.1
		c0.6,0.2,1,0.5,1.3,0.9c0.3,0.4,0.5,0.7,0.5,1.1c0.1,0.5,0.1,1.1-0.1,1.5c-0.2,0.5-0.5,0.9-1,1.3l0,0c0.7,0,1.3,0.1,1.9,0.4
		c0.6,0.3,1,0.9,1.3,1.7c0.2,0.6,0.2,1.1,0.1,1.7c-0.1,0.5-0.5,1.1-0.9,1.5c-0.5,0.4-1.1,0.7-1.9,0.9l-5.7,1.6L70.4,14.5L70.4,14.5z
		 M74.7,18.1l1.3-0.4c0.9-0.3,1.3-0.7,1.1-1.5c-0.1-0.3-0.3-0.5-0.5-0.7c-0.3-0.1-0.7-0.1-1.2,0l-1.3,0.4
		C74.1,15.9,74.7,18.1,74.7,18.1z M76.1,22.5l1.4-0.4c1.1-0.3,1.5-0.9,1.3-1.7c-0.1-0.5-0.4-0.7-0.7-0.7c-0.3-0.1-0.8,0-1.3,0.1
		l-1.4,0.4C75.4,20.3,76.1,22.5,76.1,22.5z"/>
	<path id="path3876" inkscape:connector-curvature="0" class="st2" d="M85.7,22.4l2.7-11.9l3.9-0.5l5.5,10.9l-3.5,0.4l-0.9-1.9
		l-3.9,0.5l-0.4,2.1L85.7,22.4L85.7,22.4z M90.7,12.9l-0.8,4.4l2.6-0.3L90.7,12.9z"/>
	<path id="path3878" inkscape:connector-curvature="0" class="st2" d="M101.3,21.1l0.8-11.5l3.2,0.2l-0.6,8.7l3.5,0.3l-0.2,2.7
		C108,21.5,101.3,21.1,101.3,21.1z"/>
	<path id="path3880" inkscape:connector-curvature="0" class="st2" d="M111.9,22.1l1.8-11.4l3.2,0.5l-1.4,8.7l3.4,0.5l-0.5,2.7
		L111.9,22.1L111.9,22.1z"/>
	<path id="path3882" inkscape:connector-curvature="0" class="st2" d="M141.3,31.9c-1,0.1-2.1-0.1-3.2-0.6c-1.1-0.5-1.9-1.3-2.5-2.1
		c-0.5-0.9-0.9-1.9-0.9-2.9c0-1.1,0.3-2.1,0.7-3.1c0.6-1.2,1.3-2.1,2.3-2.6c0.9-0.6,1.9-0.9,2.9-0.9s1.9,0.2,2.8,0.7
		c1.1,0.5,1.9,1.3,2.4,2.3l-1.5,3c-0.3-1.2-0.9-2-1.9-2.5c-0.5-0.3-1.1-0.4-1.7-0.3c-0.5,0.1-1,0.3-1.5,0.7c-0.4,0.3-0.8,0.8-1,1.3
		c-0.3,0.5-0.4,1.1-0.4,1.7s0.2,1,0.5,1.5c0.3,0.4,0.7,0.8,1.2,1c0.9,0.5,1.9,0.5,3,0.1L141.3,31.9L141.3,31.9z"/>
	<path id="path3884" inkscape:connector-curvature="0" class="st2" d="M144.4,34.8l6.6-9.5l2.7,1.9l-5,7.2l2.9,2l-1.6,2.3
		C149.9,38.7,144.4,34.8,144.4,34.8z"/>
	<path id="path3886" inkscape:connector-curvature="0" class="st2" d="M160.9,33l2.3,2.3l-4.8,4.8c-0.9,0.9-1.3,2-0.3,3
		c0.8,0.9,1.9,0.7,3-0.4l4.8-4.8l2.3,2.3l-4.9,4.9c-2.3,2.3-4.8,2.3-7.1-0.1c-0.8-0.8-1.3-1.6-1.6-2.4c-0.2-0.8-0.3-1.5-0.1-2.1
		c0.2-0.6,0.4-1.1,0.7-1.5c0.3-0.4,0.6-0.7,0.9-1.1L160.9,33L160.9,33z"/>
	<path id="path3888" inkscape:connector-curvature="0" class="st2" d="M172.1,45.4l3.2,4.6c0.5,0.8,0.9,1.5,0.9,2.1
		c0,0.6-0.1,1.1-0.4,1.5c-0.3,0.3-0.5,0.7-0.9,0.9c-0.5,0.3-0.9,0.5-1.5,0.5c-0.5,0-1.1-0.2-1.5-0.5l0,0c0.3,0.6,0.3,1.3,0.2,1.9
		s-0.5,1.3-1.2,1.8c-0.5,0.3-1.1,0.5-1.6,0.6c-0.6,0.1-1.1-0.1-1.7-0.4c-0.5-0.3-1.1-0.8-1.5-1.5l-3.4-4.9L172.1,45.4L172.1,45.4z
		 M170.2,50.7l0.8,1.1c0.5,0.8,1.1,1,1.7,0.6c0.3-0.2,0.4-0.4,0.5-0.7c0.1-0.3-0.1-0.7-0.4-1.1l-0.8-1.1L170.2,50.7z M166.3,53.3
		l0.9,1.2c0.7,0.9,1.3,1.2,2,0.7c0.4-0.3,0.5-0.6,0.5-0.9c-0.1-0.3-0.3-0.7-0.5-1.1l-0.9-1.2L166.3,53.3L166.3,53.3z"/>
	<path id="path3892" inkscape:connector-curvature="0" class="st9" d="M18.1,77.9c2.7,0,4.8,2.1,4.8,4.8c0,2.7-2.1,4.8-4.8,4.8
		s-4.8-2.1-4.8-4.8C13.3,80.1,15.4,77.9,18.1,77.9z"/>
	
		<linearGradient id="path3904_1_" gradientUnits="userSpaceOnUse" x1="456.1085" y1="1908.8861" x2="456.1085" y2="1926.8096" gradientTransform="matrix(0.5292 0 0 0.5292 -223.2726 -932.1477)">
		<stop  offset="1" style="stop-color:#F1F4F3"/>
		<stop  offset="1" style="stop-color:#FCFCFC"/>
		<stop  offset="1" style="stop-color:#FFFFFF"/>
	</linearGradient>
	<path id="path3904" inkscape:connector-curvature="0" class="st10" d="M18.1,78.1c0.7,0,1.4,0.1,2,0.5c-0.6-0.1-1.3-0.2-1.9-0.1
		c-0.5-0.1-0.9-0.1-1.5,0c0-0.1,0-0.1-0.1-0.1C17.1,78.1,17.6,78.1,18.1,78.1L18.1,78.1z M20.3,78.6c0.2,0.1,0.4,0.3,0.6,0.4
		c0.1,0.3,0.3,0.5,0.5,0.8c0.1,0.3,0.1,0.7,0,1c-0.5-0.1-1.1-0.2-1.7-0.2c-0.4-0.5-1-1-1.5-1.3l0.2-0.9C19,78.3,19.7,78.5,20.3,78.6
		z M19.7,80.6c-0.1,0.6-0.2,1.3-0.4,1.9l-2.1,0.7c-0.4-0.4-0.9-0.9-1.4-1.3c0-0.7,0.2-1.3,0.5-1.9c0.7-0.5,1.1-0.7,1.8-0.7
		C18.7,79.6,19.3,80.1,19.7,80.6L19.7,80.6z M15.7,81.8c-0.5,0.3-0.9,0.7-1.3,1.1c-0.3-0.2-0.6-0.4-0.9-0.7c0-0.2-0.1-0.4-0.1-0.6
		c0.1-0.4,0.3-0.8,0.5-1.1c0.4-0.4,0.9-0.8,1.5-1.1l0.8,0.5C15.9,80.5,15.7,81.1,15.7,81.8L15.7,81.8z M19.3,82.5
		c0.5,0.4,0.9,0.9,1.3,1.3c0,0.6-0.2,1.3-0.5,1.9c-0.6,0.5-1.1,0.7-1.9,0.7c-0.6-0.3-1.2-0.8-1.6-1.4c0.1-0.6,0.3-1.1,0.5-1.8
		C17.2,83.1,19.3,82.5,19.3,82.5z M14.4,82.9c0.1,0.7,0.3,1.1,0.5,1.8c-0.1,0.4-0.2,0.8-0.3,1.2h-0.1c-0.7-0.9-1.2-1.9-1.2-3.1
		c0-0.1,0-0.2,0-0.3c0.1-0.1,0.1-0.1,0.2-0.1C13.8,82.5,14.1,82.8,14.4,82.9L14.4,82.9z M20.7,83.8c0.5-0.3,0.8-0.6,1.2-1.1
		c0.3,0.2,0.5,0.5,0.6,0.7c0.1,0.1,0.1,0.3,0.1,0.5c-0.2,0.7-0.6,1.5-1.1,2c-0.3,0.1-0.5,0.2-0.8,0.3l-0.5-0.5
		C20.5,85.1,20.7,84.5,20.7,83.8z M18.3,86.4L18,87.1c-0.4,0.1-0.9,0.1-1.3,0.1c-0.7-0.2-1.3-0.6-1.9-1.1c0-0.1,0-0.2-0.1-0.3
		c0.1-0.4,0.1-0.8,0.3-1.1c0.5,0.2,1.1,0.3,1.7,0.2C17.1,85.6,17.7,86,18.3,86.4z M18,87.2c0.3,0.1,0.6,0.2,1.1,0.3
		c-0.3,0.1-0.6,0.1-0.9,0.1c-0.5,0-0.9-0.1-1.3-0.2C17.2,87.3,17.6,87.3,18,87.2z M21.5,86.1c-0.3,0.4-0.8,0.7-1.3,0.9
		c0.2-0.2,0.4-0.4,0.6-0.7C21.1,86.3,21.3,86.1,21.5,86.1z M22,82.7c-0.1-0.7-0.2-1.2-0.5-1.9c0-0.3,0-0.7,0-1c0.1,0,0.3,0,0.4,0.1
		c0.6,0.8,1,1.8,1,2.9c0,0.1,0,0.3,0,0.4c-0.1,0.1-0.1,0.1-0.2,0.2C22.5,83.1,22.2,82.9,22,82.7L22,82.7z M14.1,80.3
		c0.6-0.9,1.5-1.7,2.6-2c0,0.1,0,0.1,0.1,0.1h-0.1c-0.6,0.3-1,0.6-1.3,1C14.9,79.6,14.5,79.9,14.1,80.3z"/>
	<path id="path3906" inkscape:connector-curvature="0" class="st1" d="M15.1,84.7c0.5,0.2,1.1,0.3,1.6,0.2c0.1-0.6,0.3-1.2,0.5-1.8
		c-0.5-0.5-0.9-0.9-1.4-1.3c-0.5,0.3-0.9,0.7-1.2,1.1C14.6,83.6,14.8,84.1,15.1,84.7L15.1,84.7z"/>
	<path id="path3908" inkscape:connector-curvature="0" class="st1" d="M19.4,82.5c0.5,0.4,0.9,0.9,1.3,1.3c0.5-0.3,0.8-0.5,1.2-1
		c-0.1-0.7-0.2-1.3-0.5-1.9c-0.5-0.1-1.1-0.2-1.6-0.1C19.7,81.3,19.6,81.9,19.4,82.5L19.4,82.5z"/>
	<path id="path3910" inkscape:connector-curvature="0" class="st1" d="M18.3,86.4l-0.3,0.7c0.5,0.2,1,0.3,1.5,0.2
		c0.6-0.3,0.9-0.5,1.2-1.1l-0.5-0.5C19.6,86.2,19.2,86.4,18.3,86.4L18.3,86.4z"/>
	<path id="path3912" inkscape:connector-curvature="0" class="st1" d="M16.3,79.8c0.6-0.5,1.1-0.7,1.9-0.7l0.2-0.8
		c-0.6-0.1-1-0.1-1.6,0c-0.5,0.2-0.9,0.5-1.2,0.9L16.3,79.8L16.3,79.8z"/>
	<path id="path3914" inkscape:connector-curvature="0" class="st1" d="M22.8,83.3c-0.1,0.1-0.1,0.1-0.1,0.1c0,0.1,0.1,0.2,0.1,0.3
		C22.8,83.5,22.8,83.5,22.8,83.3z"/>
	<path id="path3916" inkscape:connector-curvature="0" class="st1" d="M21.1,79.1c0.1,0.2,0.3,0.4,0.3,0.6c0.1,0,0.2,0,0.3,0.1
		C21.5,79.5,21.4,79.3,21.1,79.1L21.1,79.1z"/>
	<path id="path3918" inkscape:connector-curvature="0" class="st1" d="M13.4,82.3c0.1-0.1,0.1-0.1,0.1-0.1c0-0.1,0-0.3,0-0.5
		C13.4,82,13.4,82.2,13.4,82.3L13.4,82.3z"/>
	<path id="path3920" inkscape:connector-curvature="0" class="st1" d="M14.7,86.1V86h-0.1C14.7,86,14.7,86.1,14.7,86.1z"/>
	<path id="path3924" inkscape:connector-curvature="0" class="st9" d="M182.1,77.7c-2.7,0-4.8,2.1-4.8,4.8c0,2.7,2.1,4.8,4.8,4.8
		c2.7,0,4.8-2.1,4.8-4.8C186.9,79.9,184.8,77.7,182.1,77.7z"/>
	
		<linearGradient id="path3936_1_" gradientUnits="userSpaceOnUse" x1="766.0102" y1="1908.512" x2="766.0102" y2="1926.4355" gradientTransform="matrix(0.5292 0 0 0.5292 -223.2726 -932.1477)">
		<stop  offset="1" style="stop-color:#F1F4F3"/>
		<stop  offset="1" style="stop-color:#FCFCFC"/>
		<stop  offset="1" style="stop-color:#FFFFFF"/>
	</linearGradient>
	<path id="path3936" inkscape:connector-curvature="0" class="st11" d="M182.1,77.9c-0.7,0-1.4,0.1-2,0.5c0.6-0.1,1.3-0.2,1.9-0.1
		c0.5-0.1,0.9-0.1,1.5,0c0-0.1,0-0.1,0.1-0.1C183.1,77.9,182.6,77.9,182.1,77.9L182.1,77.9z M179.9,78.4c-0.2,0.1-0.4,0.3-0.6,0.4
		c-0.1,0.3-0.3,0.5-0.5,0.8c-0.1,0.3-0.1,0.7,0,1c0.5-0.1,1.1-0.2,1.7-0.2c0.4-0.5,1-1,1.5-1.3l-0.2-0.9
		C181.2,78.1,180.5,78.3,179.9,78.4L179.9,78.4z M180.5,80.4c0.1,0.6,0.2,1.3,0.4,1.9l2.1,0.7c0.4-0.4,0.9-0.9,1.4-1.3
		c0-0.7-0.2-1.3-0.5-1.9c-0.7-0.5-1.1-0.7-1.8-0.7C181.5,79.4,180.9,79.9,180.5,80.4L180.5,80.4z M184.5,81.7
		c0.5,0.3,0.9,0.7,1.3,1.1c0.3-0.2,0.6-0.4,0.9-0.7c0-0.2,0.1-0.4,0.1-0.6c-0.1-0.4-0.3-0.8-0.5-1.1c-0.4-0.4-0.9-0.8-1.5-1.1
		l-0.8,0.5C184.3,80.3,184.5,80.9,184.5,81.7z M180.9,82.3c-0.5,0.4-0.9,0.9-1.3,1.3c0,0.6,0.2,1.3,0.5,1.9c0.6,0.5,1.1,0.7,1.9,0.7
		c0.6-0.3,1.2-0.8,1.6-1.4c-0.1-0.6-0.3-1.1-0.5-1.8L180.9,82.3L180.9,82.3z M185.8,82.7c-0.1,0.7-0.3,1.1-0.5,1.8
		c0.1,0.4,0.2,0.8,0.3,1.2h0.1c0.7-0.9,1.2-1.9,1.2-3.1c0-0.1,0-0.2,0-0.3c-0.1-0.1-0.1-0.1-0.2-0.1
		C186.4,82.3,186.1,82.6,185.8,82.7L185.8,82.7z M179.5,83.6c-0.5-0.3-0.8-0.6-1.2-1.1c-0.3,0.2-0.5,0.5-0.6,0.7
		c-0.1,0.1-0.1,0.3-0.1,0.5c0.2,0.7,0.6,1.5,1.1,2c0.3,0.1,0.5,0.2,0.8,0.3l0.5-0.5C179.7,84.9,179.5,84.3,179.5,83.6L179.5,83.6z
		 M181.9,86.2l0.3,0.7c0.4,0.1,0.9,0.1,1.3,0.1c0.7-0.2,1.3-0.6,1.9-1.1c0-0.1,0-0.2,0.1-0.3c-0.1-0.4-0.1-0.8-0.3-1.1
		c-0.5,0.2-1.1,0.3-1.7,0.2C183.1,85.4,182.6,85.8,181.9,86.2L181.9,86.2z M182.2,87c-0.3,0.1-0.6,0.2-1.1,0.3
		c0.3,0.1,0.6,0.1,0.9,0.1c0.5,0,0.9-0.1,1.3-0.2C183,87.1,182.6,87.1,182.2,87L182.2,87z M178.7,85.9c0.3,0.4,0.8,0.7,1.3,0.9
		c-0.2-0.2-0.4-0.4-0.6-0.7C179.1,86.1,178.9,86,178.7,85.9z M178.2,82.5c0.1-0.7,0.2-1.2,0.5-1.9c0-0.3,0-0.7,0-1
		c-0.1,0-0.3,0-0.4,0.1c-0.6,0.8-1,1.8-1,2.9c0,0.1,0,0.3,0,0.4c0.1,0.1,0.1,0.1,0.2,0.2C177.8,82.9,178,82.7,178.2,82.5L178.2,82.5
		z M186.1,80.1c-0.6-0.9-1.5-1.7-2.6-2c0,0.1,0,0.1-0.1,0.1h0.1c0.6,0.3,1,0.6,1.3,1C185.3,79.4,185.7,79.7,186.1,80.1z"/>
	<path id="path3938" inkscape:connector-curvature="0" class="st1" d="M185.1,84.5c-0.5,0.2-1.1,0.3-1.6,0.2
		c-0.1-0.6-0.3-1.2-0.5-1.8c0.5-0.5,0.9-0.9,1.4-1.3c0.5,0.3,0.9,0.7,1.2,1.1C185.6,83.4,185.4,83.9,185.1,84.5L185.1,84.5z"/>
	<path id="path3940" inkscape:connector-curvature="0" class="st1" d="M180.8,82.3c-0.5,0.4-0.9,0.9-1.3,1.3c-0.5-0.3-0.8-0.5-1.2-1
		c0.1-0.7,0.2-1.3,0.5-1.9c0.5-0.1,1.1-0.2,1.6-0.1C180.5,81.1,180.7,81.7,180.8,82.3L180.8,82.3z"/>
	<path id="path3942" inkscape:connector-curvature="0" class="st1" d="M181.9,86.2l0.3,0.7c-0.5,0.2-1,0.3-1.5,0.2
		c-0.6-0.3-0.9-0.5-1.2-1.1l0.5-0.5C180.6,86,181.1,86.2,181.9,86.2z"/>
	<path id="path3944" inkscape:connector-curvature="0" class="st1" d="M183.9,79.6c-0.6-0.5-1.1-0.7-1.9-0.7l-0.2-0.8
		c0.6-0.1,1-0.1,1.6,0c0.5,0.2,0.9,0.5,1.2,0.9L183.9,79.6L183.9,79.6z"/>
	<path id="path3946" inkscape:connector-curvature="0" class="st1" d="M177.4,83.1c0.1,0.1,0.1,0.1,0.1,0.1c0,0.1-0.1,0.2-0.1,0.3
		C177.4,83.3,177.4,83.3,177.4,83.1z"/>
	<path id="path3948" inkscape:connector-curvature="0" class="st1" d="M179.1,78.9c-0.1,0.2-0.3,0.4-0.3,0.6c-0.1,0-0.2,0-0.3,0.1
		C178.7,79.3,178.9,79.1,179.1,78.9L179.1,78.9z"/>
	<path id="path3950" inkscape:connector-curvature="0" class="st1" d="M186.9,82.1c-0.1-0.1-0.1-0.1-0.1-0.1c0-0.1,0-0.3,0-0.5
		C186.8,81.8,186.8,82,186.9,82.1L186.9,82.1z"/>
	<path id="path3952" inkscape:connector-curvature="0" class="st1" d="M185.5,85.9v-0.1h0.1C185.5,85.9,185.5,85.9,185.5,85.9
		L185.5,85.9z"/>
</g>
</svg>
