<?xml version="1.0" encoding="utf-8"?>
<!-- Generator: Adobe Illustrator 21.1.0, SVG Export Plug-In . SVG Version: 6.00 Build 0)  -->
<svg version="1.1" id="Layer_1" xmlns="http://www.w3.org/2000/svg" xmlns:xlink="http://www.w3.org/1999/xlink" x="0px" y="0px"
	 viewBox="0 0 200 200" style="enable-background:new 0 0 200 200;" xml:space="preserve">
<style type="text/css">
	.st0{fill:#231F20;}
	.st1{fill:#FFFFFF;}
</style>
<g>
	<path id="path2661" class="st0" d="M174.9,47.5L174.9,47.5l24.9-2.7L175,71.6l-0.1,0.3v74.8c0,1.2-0.5,2.3-0.5,3.4
		c-0.2,0.2-0.1,0.5-0.2,0.8c-0.4,1.3-1,2.6-1.7,3.8c-0.3,0.4-0.4,0.9-0.7,1.1c-0.4,0.5-0.8,1.1-1.3,1.6c-3.6,4-8.7,5.9-13.9,6.7
		c-1.2,0-2.7,0.3-4.1,0.3l-34.4,0.1c-1.9,0.2-3.7,0.6-5.3,1.4c-0.6,0.2-1.3,0.7-1.8,1c-0.9,0.6-1.7,1.4-2.4,2.3
		c-0.7,0.8-1,1.7-1.4,2.6c-0.2,0.8-0.4,1.5-0.5,2.3l0,0.5h-2.9c0.1-0.8-0.2-1.7-0.4-2.4c-0.6-2.2-2-3.8-3.8-5.1
		c-2.3-1.5-4.9-2.4-7.8-2.6H77.6c-0.4,0.2-0.8,0-1.2,0.1c-1.8-0.1-3.6,0-5.4-0.1H59.5c-5.5,0.1-10.9-0.9-15.5-3.5l-0.2-0.1
		c-1.4-1-2.9-1.8-4-3.2c-0.6-0.5-1-1.2-1.5-1.9c-0.3-0.3-0.6-0.8-0.8-1.2c-0.6-1-1.2-2-1.4-3.1c-0.4-0.8-0.6-1.7-0.7-2.7
		c-0.1-0.7-0.3-1.2-0.2-1.9l-1.8,0.9l-19.3,10.9c0,0.1-0.1,0.1-0.2,0.1l11.5-25.4c0.1-0.2-0.2-0.3-0.3-0.3l-25-6.5l21.8-9
		c1.2-0.5,2.6-1,3.8-1.5l9.2-3.8L35,112V25.5h139.9V47.5"/>
	<path id="path2663" class="st1" d="M171.8,47.8l-1.9,0.3V30.6l-129.8,0l0,79.6l-1.9,0.8V28.6h133.6V47.8"/>
	<path id="path2665" class="st1" d="M85.7,43.7c-0.1,4.1,0.1,8.3,0,12.1c0.1,0.7,0,1.3,0.4,1.9c0.4,0.6,1.4,0.7,2.1,0.6
		c0.2,0.3,0.2,0.7,0.1,1l-0.2,0.2c-2.7,0-5.3-0.1-7.9,0.1c-0.4-0.2-0.2-0.7-0.2-1.1c0.6-0.3,1.3,0.1,1.9-0.3
		c0.6-0.3,0.4-0.9,0.6-1.3c0.1-2.8-0.1-5.6-0.1-8.4c0-0.4-0.2-0.8-0.4-1.1c-0.5-0.5-1.4-0.2-2-0.4c0-0.5-0.2-1,0.2-1.3
		c1.5-0.3,2.8-1.1,3.9-2.1c0.5-0.1,1,0,1.5,0L85.7,43.7"/>
	<path id="path2667" class="st1" d="M100.5,45.4c0.5,0.7,0.6,1.7,0.4,2.5c-0.4,1.2-1.6,2-2.6,2.7v0.1c1.8,1.1,3.7,3,3.4,5.3
		c-0.2,1.5-1.4,2.8-2.8,3.3c-2.2,0.8-5,0.6-6.8-0.8c-0.7-0.7-1.2-1.8-1.1-2.8c0.1-1.8,1.7-2.5,3-3.5V52c-1.3-0.9-2.6-2-2.8-3.6
		c-0.3-1.3,0.3-2.5,1.1-3.4c1.7-1.3,4-1.9,6.1-1.1C99.3,44.3,100,44.7,100.5,45.4"/>
	<path id="path2669" class="st1" d="M113.4,46.6c0.6,1.5,1,3.2,0.7,4.8c0,0.7-0.4,1.5-0.6,2.2c-1.5,3.4-4.8,5.4-8.2,6.2
		c-0.3-0.1-0.6-0.6-0.7-0.8c-0.2,0-0.2-0.2-0.1-0.4c0.1-0.1,0.5-0.1,0.7-0.2c2.5-1,4.7-3,5.3-5.6c0.1-0.1,0.1-0.2,0.1-0.4l-0.1,0
		c-1.2,1-3.1,1.6-4.6,0.8c-1.7-0.9-2.6-2.8-2.5-4.6c0-1.7,1-3.3,2.3-4.1c1.6-1,3.8-1.1,5.6-0.2C112.2,44.6,112.8,45.7,113.4,46.6"/>
	<path id="path2671" class="st1" d="M124.9,43.6c0,0.7,0,1.4,0,2.1c-0.1,2.6,0.2,5.1,0,7.7c0.3,0.3,0.8,0.1,1.2,0.1
		c0.2,0,0.4-0.1,0.6,0c0.2,0.6-0.1,1.4,0.1,2.1l-0.1,0.2c-0.6,0-1.3-0.2-1.8,0c-0.1,1.2,0.1,2.6,0,3.8c-0.9,0.1-2.1,0.1-2.9,0.1
		c0.1-1.3-0.1-2.7,0.1-3.8l-0.1-0.1c-2,0-4.1,0-6.1,0.1l-0.1-0.1l0.1-2.3c1.6-2.1,3.1-4.2,4.5-6.5c0.8-1.1,1.7-2.1,2.4-3.4l0.2-0.2
		C123.5,43.7,124.2,43.6,124.9,43.6"/>
	<path id="path2673" class="st0" d="M98.5,46.2c0.4,0.9,0.3,2.1-0.4,2.9c-0.3,0.3-0.7,0.7-1.2,0.7c-1-1.1-3-1.8-2.5-3.7
		c0.1-0.6,0.7-0.9,1.1-1.2c0.7-0.3,1.5-0.1,2.1,0.3C98.2,45.4,98.3,45.8,98.5,46.2"/>
	<path id="path2675" class="st0" d="M109.1,44.9c0.1-0.1,0.3,0.1,0.5,0.3c0.9,1.2,0.9,2.8,0.9,4.3c0.1,0.4,0,1.1,0.1,1.5
		c-0.6,0.5-1.2,0.8-1.9,0.8c-1.2-0.3-1.5-1.6-1.7-2.7c0-1.1-0.1-2.2,0.3-3.2c0.2-0.5,0.7-1,1.3-1.1C108.6,44.7,109,44.6,109.1,44.9"
		/>
	<path id="path2677" class="st1" d="M197.2,46.1v0.1L168.7,77c-0.1,0.1-0.2,0-0.2,0.1l3.4-15c0-0.2-0.2-0.1-0.3,0l-36.4,19.4
		c-2.7,0-5.3-0.1-8.1,0.1c0,0.5,0,1,0,1.4c-0.2,0.3,0.2,0.6-0.1,0.8c0.2,0.2-0.2,0.8,0.3,0.8c0.3-0.3,0.6,0.2,0.8-0.1
		c0.3,0.2,0.9,0,1.1,0.3c-0.8,0.6-1.9,1-2.8,1.7c-1.9,1-3.8,2-5.6,3.1h-0.3c-1.4-2-3.5-3-4.8-4.6c-0.6-0.5-1.4-0.6-1.7-1.3
		l53.7-25.4c0.8-0.4,1.5-0.7,2.3-1.1l0.3-0.2l-0.2-0.1l-16.9-5.7c-0.1-0.1,0-0.2,0.1-0.2l43.6-4.9C197,46.1,197.1,46,197.2,46.1"/>
	<path id="path2679" class="st0" d="M122.1,46.5c-0.3,2.2-0.2,4.3-0.1,6.5c0,0.1,0.1,0.3,0,0.4c-1.6,0-3.2-0.1-4.8,0.1
		c-0.2-0.3,0.3-0.4,0.3-0.6c1.5-2,2.9-4.3,4.4-6.4L122.1,46.5"/>
	<path id="path2681" class="st0" d="M95.7,53.2c1.1,0.9,2.7,1.9,2.4,3.5c0,0.7-0.5,1.3-1.1,1.6c-0.8,0.4-1.9,0.3-2.7-0.1
		c-0.8-0.6-1-1.6-1-2.5c0.2-1.1,0.8-2.2,1.7-2.8C95.3,52.9,95.5,53.1,95.7,53.2"/>
	<path id="path2683" class="st1" d="M171.8,146.3c-0.3,5-3,10.2-7.8,12.5c-3.6,2.1-8,2.7-12.1,2.8l-34.2,0.1
		c-3.5,0.4-6.6,1.5-9.4,3.6c-1.1,1-2.2,2.1-2.8,3.4H105c-2.8-4.7-7.7-6.6-12.8-7l-36.3-0.1c-5.7-0.7-11.4-2.3-14.9-7.3
		c-1.8-2.7-2.8-5.8-2.7-9.3l1.9-1c-0.3,5.4,1.9,10.5,6.8,13c3,1.7,6.4,2.5,10.1,2.7l35.9,0.1c4,0.4,7.6,1.7,10.7,4.2l1.6,1.6
		c2.6-3,5.9-4.4,9.4-5.3c3.5-0.9,7.7-0.4,11.6-0.6l26.4,0c2.9-0.2,6-0.6,8.7-1.7c3.2-1.4,6.3-3.8,7.5-7.2c0.5-1.3,0.9-2.5,1-3.9
		l0.1-69.7l1.8-2L171.8,146.3"/>
	<path id="path2685" class="st1" d="M64.8,82.1c5.2,1.1,10.3,4.7,12,10c1.4,4.5,1.2,9.9-1.2,13.9c-3.5,6.4-11.3,9.1-18.6,8.1
		c-4-0.3-7.3-2.3-10.2-4.7c-1-1.1-2.1-2.4-2.8-3.8c-0.8-1.8-1.4-3.5-1.7-5.5c-0.5-4.9,1.1-9.5,4.2-12.9c0.7-0.4,1.1-1.3,1.8-1.6
		c0.9-0.7,1.8-1.3,2.8-1.8c3.1-1.8,6.9-2.5,10.7-2.1C62.9,81.7,63.8,81.8,64.8,82.1"/>
	<path id="path2687" class="st1" d="M97.1,82.2c1.4,0,3,0,4.4,0c4.7-0.2,9.9,0.2,13.6,3.1c0.8,0.5,1.5,1.3,2,2c4,4.5,4.6,12,2,17.4
		c-2.3,4.7-7.1,7.8-12.3,8.6c-1,0.1-1.9,0.3-2.9,0.3l-16.2,0c-0.9,0-2-0.1-3,0.1l-0.2-0.2c0.1-0.5-0.1-1,0.2-1.5
		c1.5-0.1,3-0.5,3.5-2c0.4-1,0.3-2.1,0.3-3.2l-0.1-19.1c-0.1-0.1,0.1-0.2,0-0.3C88.4,86.3,88,85,87,84.4c-0.6-0.3-1.4-0.6-2.2-0.4
		c-0.2,0-0.4-0.1-0.5-0.3c0.3-0.6-0.3-1.2,0.2-1.6l0.8,0.1H97.1"/>
	<path id="path2689" class="st1" d="M150.6,82.3c5.4,0.4,10.5,3.4,12.7,8.3c0.9,2.1,1.4,4.6,1.5,7c0,1-0.2,2.1-0.3,3.1
		c-0.9,4.8-4.1,9-8.5,10.9c-4.9,2.5-10.5,1.8-16.3,1.9c-3.9,0.1-8-0.1-11.8,0.1c-0.1-0.5-0.1-1.1,0-1.6c0.9-0.1,1.9,0,2.6-0.6
		c0.9-0.8,1.5-2,1.4-3.3l0-11.5c-0.1-3.4,0-6.2-0.1-9.6c-0.3-1-0.5-2.2-1.6-2.7c-0.7-0.2-1.3-0.6-2.1-0.4c-0.7-0.2-0.1-0.9-0.4-1.4
		l0.2-0.3C135.6,82.3,143.1,82.1,150.6,82.3"/>
	<path id="path2691" class="st0" d="M67.4,89.4c1.4,3.3,1.4,7,1.7,10.6c0,4.8-1.2,10.1-5.9,12c-2.9,1-6.6,0.3-8.6-2.1
		c-0.2-0.4-0.5-0.5-0.7-0.9c-2.3-3.3-2.8-7.4-3-11.6c-0.1-1,0.1-1.7,0.1-2.7c0-1.3,0.2-2.6,0.6-3.8c0.3-1.9,1.1-3.5,2.2-4.9
		c1.9-2.4,5.2-3.2,8.2-2.4C64.7,84.5,66.5,87,67.4,89.4"/>
	<path id="path2693" class="st0" d="M148,84.3c2.5,0.5,4.5,2.6,5.8,4.6c0.5,0.8,1.1,1.6,1.3,2.6c0.5,0.9,0.5,1.8,0.8,2.8
		c0.2,0.9,0.1,1.7,0.3,2.6c0,1-0.1,2,0,2.9c-0.2,0.6,0,1.3-0.2,1.9c-0.2,0.6-0.1,1.4-0.4,2c0,0.2-0.2,0.4-0.2,0.7
		c-0.1,0.6-0.4,1.1-0.6,1.7c-0.3,0.6-0.6,1.3-1.1,1.8c-0.4,0.7-1,1.3-1.6,1.8c-0.8,0.7-1.9,1.4-3.1,1.7c-0.8,0.3-1.7,0.5-2.5,0.5
		c-1.8,0.2-3.6,0.1-5.1-0.9c-2.1-1.5-1.8-4.3-1.8-6.7l-0.1-14.1c0-2.2,0-4.5,0-6.5l0.1-0.1C142.6,83.8,145.2,83.7,148,84.3"/>
	<path id="path2695" class="st0" d="M100.8,83.9c3.1-0.2,6,1,8,3.1c0.3,0.5,0.8,0.8,1,1.4c0.7,0.7,1,1.7,1.4,2.7l0.1,0.1
		c0.5,1.4,0.9,2.7,0.9,4.1c0.2,0.2,0,0.4,0.1,0.6c0.1,0.6,0.1,1.3,0.1,1.8c0.2,2.9-0.2,5.8-1.3,8.4c-1.1,3.2-4.4,5.4-7.8,5.7l-2,0.1
		c-0.4-0.1-0.9-0.1-1.3-0.2c-1.3-0.3-2.6-1-3-2.2c-0.7-1.5-0.5-3.1-0.6-4.8c0.1-3,0.1-6.5,0-9.2c-0.1-0.5,0.1-1.2,0-1.7
		c0.1-0.2,0-0.6,0-0.8c-0.1-0.4,0-0.7,0-1.1c-0.1-2.7-0.1-5.3-0.1-8l0.1-0.2C97.9,83.9,99.3,83.7,100.8,83.9"/>
	<path id="path2697" class="st1" d="M108.6,88h0.2c0.2,0.7,1,1.2,1.2,1.9c0.2,0.4,0.5,0.6,0.5,1c0.3,0.4,0.3,0.9,0.6,1.4
		c0.2,0.7,0.5,1.5,0.6,2.2c-0.5,0.6-1.3,0.6-1.8,1.1c-3.4,1.7-6.6,3.7-10,5.6c-0.1,0-0.2,0-0.2-0.2V90.6c2.4-1.3,4.9-2.2,7.3-3.4
		C107.5,87.3,108.1,87.5,108.6,88"/>
	<path id="path2699" class="st1" d="M88,107.3c-0.8,0.5-1.6,1.1-2.6,1.5c-0.6,0.3-0.5,1.1-0.9,1.6c-0.2,0.9-0.4,1.6-0.7,2.4
		c-0.5,2-1.2,3.7-1.7,5.7l-5.8,3.3l-9,5.2l-1.6,1L26,150.6l-9.4,5.4c-0.1,0-0.2,0-0.2-0.1l1.1-2.6l6.9-15.1c0.9-1.9,1.7-3.8,2.5-5.7
		l-18.1-4.7c-1.8-0.4-3.6-1-5.4-1.5v-0.1l42.2-17.3h0.1c2.8,2.9,6,5.7,9.6,7c7.4,2.4,16.2,1.3,21.5-4.6c2.7-3.2,4.3-7.3,4.1-11.8
		c2.4-1.1,4.7-2.3,7.1-3.3V107.3"/>
	<path id="path2701" class="st1" d="M68.5,99.3c0,2.8-0.3,5.7-1.3,8.1c-1,1.9-3,3.8-5.1,4.3c-1.6,0.5-3.4,0.1-4.8-0.5
		c-1.7-1.7-2.1-3.9-2.8-6c0.8-0.5,1.7-0.7,2.5-1.1l11.2-4.9H68.5"/>
	<path id="path2703" class="st1" d="M71,133.1c1.4,0.2,2.7,0.5,4,1.1c0.1,0.9,0.2,2,0.4,2.9c-0.1,0.6-0.9,0.2-1.3,0.4
		c-0.5-1-1-1.9-2-2.6c-1.2-0.9-3.1-1.1-4.4-0.4c-2.4,1.7-2.2,5-1.8,7.8l0.4,1.3c0.8,1.2,1.9,2.6,3.6,2.5c0.8,0.1,1.4-0.1,2.1-0.4
		l0.1-0.2c-0.2-1.4,0.1-2.6-0.2-3.8c-0.2-0.3-0.4-0.5-0.6-0.6c-0.4-0.2-1,0.3-1.1-0.3c0.1-0.3-0.2-0.8,0.3-0.9
		c2.2,0.3,4.3,0.1,6.6,0.2c0.2,0.2,0.1,0.6,0.1,0.8c-0.3,0.2-0.7,0.1-1,0.4c-0.9,1.2-0.3,3-0.5,4.4c0.1,0.3-0.1,0.5-0.4,0.6
		c-3.4,0.9-7.8,1.5-10.7-0.7c-0.6-0.3-1-0.9-1.4-1.4c-0.2-0.1-0.1-0.3-0.2-0.4c-1.1-1.9-1.1-4.2-0.5-6.3c0.5-0.9,1-1.7,1.7-2.5
		c0.2-0.1,0.4-0.3,0.6-0.5c0.9-0.6,1.9-1.1,2.9-1.2c0.4-0.2,1.1-0.1,1.6-0.3C69.7,133,70.4,133.1,71,133.1"/>
	<path id="path2705" class="st1" d="M148.2,133.2c-0.2,3.9-0.1,7.7,0,11.5c0,0.3,0.2,0.5,0.5,0.6c0.3,0.4,0.9-0.2,1.1,0.3
		c-0.2,0.3,0.2,1-0.5,0.9c-1.3,0-2.4,0.3-3.8,0.5c-0.4-0.3,0-0.8,0-1.2c-0.1-0.1,0.1-0.2,0-0.3c-0.4-0.2-0.5,0.4-0.9,0.5
		c-0.6,0.6-1.6,0.8-2.4,0.9c-1.2-0.2-2.4-0.6-3-1.6c-1-1.4-1.1-3.5-0.4-5c0.7-1.6,2.4-2.7,4.2-2.7c0.8,0,1.6,0,2.2,0.5
		c0.1,0,0.2-0.1,0.2-0.1c-0.2-0.9-0.2-1.6-0.1-2.5c-0.5-0.7-2-0.2-1.7-1.5c0.5-0.3,1.2-0.3,1.8-0.4c0.9-0.2,1.7-0.5,2.6-0.6
		L148.2,133.2"/>
	<path id="path2707" class="st1" d="M113.2,133.1c-0.2,0.8,0.1,1.5-0.1,2.4c0.1,0.2,0,0.4,0.1,0.6c0,0.3,0,0.6-0.1,0.9
		c0,0.2,0.1,0.4,0.1,0.6c0,0.7,0.1,1.5,0,2.1l0,2.2c0.3,1.1-0.6,3.4,1.3,3.7c0.2,0.2,0.2,0.6,0.1,0.9c-2,0.2-3.7,0-5.7,0.2
		c-0.2-0.3-0.1-0.6-0.1-1c0.3-0.2,0.8-0.1,1.1-0.4c0.4-0.4,0.5-0.9,0.5-1.5c0-2.9-0.2-5.5,0-8.3c-0.5-0.4-1.1-0.7-1.7-0.9
		c0-0.2-0.4-0.6,0.1-0.7c1.4-0.2,2.6-0.7,3.9-1L113.2,133.1"/>
	<path id="path2709" class="st1" d="M95.5,139.6c0.3,0.6,0.6,1.3,0.5,2l-0.1,0.1c-1.9-0.1-4,0.1-6-0.1c-0.2,0.1-0.2,0.4-0.2,0.5
		c0.1,0.2,0.4,0.4,0.3,0.8c0.6,1,1.5,1.9,2.8,1.9c1,0.1,1.6-0.6,2.4-0.9c0.3,0.1,0.5,0.3,0.7,0.5c-0.1,0.5-0.6,0.7-1,1.1
		c-1.2,1.3-3.3,1.7-5,1.3c-0.6-0.1-1.2-0.4-1.6-0.9c-0.9-0.5-1.1-1.6-1.4-2.4c0.1-0.6-0.2-1.2,0.1-1.6c-0.1-0.3,0.1-0.7,0.1-1
		c0.5-1.8,2-3,3.8-3.2C92.9,137.4,94.8,138,95.5,139.6"/>
	<path id="path2711" class="st1" d="M123.7,138.9c0.4,1.9,0.1,4,0.3,5.8c0.1,0.3,0.5,0.4,0.7,0.2c0.1-0.1,0.2-0.2,0.4-0.1
		c0.1,0.3,0.1,0.6,0.1,0.9c-0.5,0.7-1.4,1.4-2.4,1.2c-0.6,0-1.2-0.3-1.5-0.9c0-0.2,0-0.4-0.3-0.4c-0.9,0.9-2,1.3-3.3,1.3
		c-0.9-0.2-1.8-0.3-2.4-1.1c-0.5-0.6-0.1-1.5,0.1-2.1c1.4-1.5,3.5-1.9,5.6-2.4c0-0.5-0.2-1-0.1-1.4c-0.1-0.4,0-0.8-0.4-1.2
		c-0.5-0.3-1.3-0.5-1.8-0.1c-0.5,0.4-0.6,1-0.5,1.6c0.1,0.1,0,0.2,0,0.3c-0.9,0.2-1.7,0.6-2.6,0.9c-0.5-0.7-0.5-1.8,0.1-2.6
		c0.7-0.9,2-1.1,3.2-1.3c1.4-0.1,2.7-0.1,3.9,0.5L123.7,138.9"/>
	<path id="path2713" class="st1" d="M86.2,138.4c0.5,1-0.2,2-0.6,2.9c-0.2,0.3-0.6,0.2-0.8,0.1c-0.5-0.3-1-0.9-1.5-1.2
		c-0.7,0-1.2,0.7-1.4,1.4c-0.4,1.1-0.1,2.3-0.1,3.4c0.2,0.3,0.3,0.7,0.6,0.8l1.2,0.2c-0.1,0.4,0.1,0.6-0.1,0.9c-2,0.1-4,0-6.1,0.1
		c-0.2-0.3-0.1-0.8,0-1.1c0.4-0.1,0.7,0.1,1-0.3c0.7-0.5,0.2-1.4,0.4-2.1l0-3.1c-0.5-0.6-2.2-0.5-1.6-1.7c1.5-0.1,2.8-0.9,4.3-0.9
		c0.3,0.4-0.1,0.7,0.1,1c0,0.5-0.2,1.1,0,1.5c0.2,0,0.3-0.2,0.3-0.3c0.4-1,1.2-2.1,2.4-2.2C85.2,137.6,85.9,137.8,86.2,138.4"/>
	<path id="path2715" class="st1" d="M106.5,138.4c0.6,0.8,0.7,1.9,0.6,2.8c0.2,0.3-0.1,0.7,0.1,1c-0.1,0.6,0.1,1.2-0.1,1.9
		c0.2,0.6,0.1,1.5,1,1.6c0.1,0,0.3,0.1,0.3,0.3c0,0.3,0.1,0.6-0.1,0.7c-1.7,0.1-3.4-0.2-5.1,0.1c-0.1-0.4-0.1-0.8,0-1.1
		c0.4-0.1,0.8-0.2,1-0.6c0.3-1.3,0-2.5,0.1-3.8c0-0.7-0.1-1.6-0.8-1.9c-0.8-0.1-1.8,0.1-2.3,0.7l0.1,4.6c0.1,0.5,0.4,1,0.9,1.1
		c0.3-0.1,0.2,0.3,0.3,0.5c0,0.2,0,0.5-0.3,0.5c-1.7-0.1-3.2-0.1-4.9,0.1c-0.1,0.1-0.3-0.1-0.4-0.1c0-0.3-0.1-0.7,0-1.1
		c0.4-0.1,1,0,1.2-0.5l0.2-0.4c0-1.5,0-3,0-4.6c-0.5-0.6-1.7-0.6-1.5-1.6c1.5-0.2,2.7-1.1,4.3-0.9c0.1,0.4-0.2,1.1,0.1,1.5
		c0.3-0.2,0.5-0.5,0.7-0.7C103.1,137.4,105.4,137.3,106.5,138.4"/>
	<path id="path2717" class="st1" d="M135.6,138.8c0.8,2,0.2,4.2,0.5,6.2c0.1,0.4,0.5,0.6,0.8,0.7c0.4-0.1,0.4,0.3,0.5,0.5
		c0.1,0.2,0,0.7-0.4,0.5l-2.7-0.1l-0.1,0.1c-0.6-0.1-1.4,0-2.1,0.1c-0.1,0-0.3-0.1-0.3-0.3c0.1-0.3-0.1-0.6,0.2-0.9
		c0.4,0.1,0.6-0.3,0.9-0.5l0.2-0.7l0-3.8c-0.1-0.1,0-0.3-0.1-0.4c-0.1-0.4-0.4-0.7-0.8-0.9c-0.9-0.1-1.7,0.1-2.3,0.8
		c0,1.6-0.1,3.2,0.1,4.8c0.2,0.5,0.5,0.9,1.1,0.9c0.2,0.2,0.1,0.6,0.1,0.9c-1.7,0-3.6-0.1-5.3,0.1c-0.2-0.2-0.1-0.6-0.1-0.9
		c0.3-0.3,0.7-0.1,1.1-0.5c0.4-0.5,0.2-1.2,0.3-1.7c0-1.1-0.2-2.2,0.1-3.4c-0.4-0.4-0.9-0.7-1.4-1c-0.2-0.2-0.1-0.5-0.1-0.7
		c0.7-0.1,1.3-0.3,2-0.5c0.7-0.1,1.4-0.7,2.2-0.5c0.3,0.5-0.3,1,0.1,1.5c0.4-0.2,0.5-0.6,0.8-0.8
		C132.2,137.2,134.7,137.4,135.6,138.8"/>
	<path id="path2719" class="st0" d="M144.5,138.8c0.4,0.4,0.7,1,0.7,1.5l0.1,0.1l0,3.9c-0.6,0.5-1.2,0.8-2.1,0.7
		c-1.2-0.5-1.7-1.8-1.9-3c0-1.3,0.3-2.9,1.6-3.5C143.5,138.4,144.1,138.6,144.5,138.8"/>
	<path id="path2721" class="st0" d="M92.5,139.2c0.3,0.5,0.4,0.9,0.4,1.5c-1,0-2,0-3,0c-0.2-0.2,0-0.6,0-0.9
		c0.2-0.7,0.7-1.3,1.4-1.4C91.8,138.5,92.3,138.8,92.5,139.2"/>
	<path id="path2723" class="st0" d="M121.2,142.3c-0.2,0.7-0.1,1.5-0.1,2.3c-0.6,0.4-1.2,1-2,0.9c-0.3-0.2-0.5-0.4-0.7-0.7
		c-0.1-0.5-0.1-1.1,0.3-1.5C119.5,142.7,120.3,142.4,121.2,142.3L121.2,142.3"/>
</g>
</svg>
