<?xml version="1.0" encoding="utf-8"?>
<!-- Generator: Adobe Illustrator 21.1.0, SVG Export Plug-In . SVG Version: 6.00 Build 0)  -->
<svg version="1.1" id="Layer_1" xmlns="http://www.w3.org/2000/svg" xmlns:xlink="http://www.w3.org/1999/xlink" x="0px" y="0px"
	 viewBox="0 0 200 200" style="enable-background:new 0 0 200 200;" xml:space="preserve">
<style type="text/css">
	.st0{fill:#111B14;}
	.st1{fill:#96842E;}
	.st2{fill:#FEE600;}
	.st3{fill:#F2C800;}
	.st4{fill:#594726;}
	.st5{fill:#1F2C27;}
	.st6{fill:#FFFFFF;}
	.st7{fill:#65706C;}
	.st8{fill:#D5CCA3;}
</style>
<g id="_x3C_Group_x3E__1_">
	<path id="path5" class="st0" d="M9.2,78.9L110,79l7.8,22.5L95.7,145l-26,49.4c-4,7.6-11.5,6-14.4,0.4L1.1,91.3
		C-1.4,86.7-0.1,78.9,9.2,78.9z"/>
	<path id="path7" class="st1" d="M47.3,83.5l-38.1,0c-1.6,0-3.7,0.4-4.4,2c-0.6,1.2-0.4,2.5,0.2,3.6l34.1,65.1
		c6,11.4,13,15.3,17.5,23.1c2.7,4.7,4,9.3,4.9,16.6c0.2,1.6,1.7,1.5,1.9-0.1c0.2-2.5,1-9.4,4.8-16.2c4.9-8.8,9.7-9.6,17.3-23.1
		c0.9-0.1,1.8-0.1,2.7-0.3c2.3-0.3,4.7-1.1,6.9-1.9c0.8-0.3,1.6-0.6,2.4-1c3.1-1.5,5.4-4,8.3-5.7c1.8-1.1,4-1.8,5.9-2.7
		c2-1,4.1-2.4,5.9-3.8c2.5-2,5-4,7.5-6c1.8-1.5,3.6-3.1,5.4-4.6c3.1-2.7,6.2-5.5,9.1-8.5c2.1-2.2,4.2-4.3,6.3-6.6
		c1.6-1.8,3.3-3.7,4.5-5.7c1.7-3,0.8-6.2-2-8.1c-2.7-1.9-6.2-2.9-9.5-3.5c-0.6-2.6-1.1-5.3-1.5-7.9c-0.2-1.1-0.1-2.2-0.2-3.3
		c-0.1-1-0.3-2-0.7-2.9c0.1-1.1-0.2-2.2-0.9-3c-1.2-1.2-3.4-1.7-5-2.1c0,0,0,0,0,0c4.5-0.6,9-1.3,13.5-2.1c4.2-0.7,8.4-1.5,12.6-2.7
		c3.4-1,7-2.2,10-4.3c8.6-5.9,16.4-16.9,21.6-26.5c1.9-3.4,3.6-6.9,5.3-10.4l-6,1.9c2.1-3.9,4-7.9,5.8-11.9c1-2.1,1.9-4.3,2.8-6.4
		c1.5-3.5,2.9-7.3,4.1-10.7c-3.2,1.4-6.2,2.8-9.4,4.3c-12.5,5.6-24.5,12.2-35.7,19.9l0.4-4.9l-4.4,3.2c0.3-3.1,0.5-6.2,0.6-9.4
		c0.1-1.3,0.1-2.6,0.1-3.9c0.1-4.1-0.1-8.3-0.2-12.4c-3.1,3-6.3,6-9.4,9.1c-6.8,6.8-13.3,14-19,21.7c-0.9,1.2-1.7,2.4-2.6,3.6
		c-1.6,2.3-3.1,4.5-4.6,6.9c-2.9,4.6-5.7,9.3-8.1,14.1c-0.3,0.7-0.7,1.4-1,2.1c-0.5-1.7-1.2-3.7-2.1-5l-0.2-4
		c-4.2-4.1-8.5-5.4-14.4-5.6c-1-2.7-2-5.4-3-8.1c-1-2.8-2.1-5.5-3.3-8.2c-0.8-1.8-1.5-3.6-2.4-5.3c-0.9-1.6-2.2-2.7-4-2.8
		c-0.3,0-0.7,0-1,0.1c-0.2-0.1-0.5-0.2-0.7-0.2L75,18.8l-0.4,0c-6.4,0.1-12.8,0.2-19.2,0.3c-3.6,0.1-7.3,0.4-10.9,0.2
		c-2.1-0.1-4.3-0.1-6.4-0.2c-2.4-0.1-5.4,0.2-7.3,1.7c-0.6,0.4-1.1,1-1.4,1.7c-0.9,1.8-0.7,3.7,0.2,5.5c-4,0.4-8,0.7-12,0.9
		c-2.1,0.1-4.3,0.2-6.4,0.2c-2.3,0-5.2,0.6-7.1,2c-3,2.4-2.2,6.4,0,9c3,3.5,8,4,12.2,3.2c2.6-0.4,5-1.2,7.5-2
		c2.6-0.8,5.2-1.7,7.9-2.4c3.5-0.9,7.1-1.8,10.6-2.6c1,1.2,2.4,1.7,3.9,2.2c1.5,0.5,3,1,4.4,1.8c2.8,1.5,5.4,3.3,7.9,5.3
		c0.4,0.3,0.8,0.7,1.2,1c0.6,0.6,1.3,1.2,1.9,1.7c0.1,0.1,0.2,0.1,0.2,0.2c-0.5,0.3-0.9,0.6-1.3,0.9c-4.6,4-8.9,12.7-11.3,18.3
		c-0.9,2.1-1.8,4.2-2.6,6.3c-0.8,2.2-1.8,4.7-0.8,7C46.3,81.9,46.8,82.7,47.3,83.5L47.3,83.5z M81.9,44c-0.8-1.5-1.6-3.1-2.6-4.5
		c-2.3-3.5-5.3-7.1-8.6-9.6c-0.6-0.4-1.1-0.9-1.4-1.4c-3.7,0.5-7.3,1.1-10.9,1.8c-0.8,0.2-1.6,0.3-2.3,0.5c1.4,1.4,2.7,2.8,4,4.3
		c3.5,3.9,6.9,7.9,10.2,11.9c1.4,0,2.7,0.2,4,0.2C76.5,45.6,79.2,44.6,81.9,44z"/>
	<path id="path9" class="st2" d="M48.3,85.2l-39.1,0c-0.8,0-2.5,0.2-2.9,1c-0.3,0.7-0.2,1.4,0.2,2.1l34.1,65.1
		c2,3.8,4.3,7.1,7.1,10.4c2.3,2.7,4.8,5.2,7,8c1.2,1.5,2.3,3,3.3,4.7c2.3,4,3.5,7.9,4.3,12.1c0.8-4.1,2.2-8.1,4.2-11.8
		c1.6-2.8,3.3-5.1,5.4-7.5c2-2.2,4-4.2,5.8-6.5c2.1-2.6,3.9-5.3,5.5-8.1c-3.7,0-7.2-0.5-10.4-1.5c-4.1-1.2-7.8-3-12-5.2
		c4,0.4,8.1,0.8,12.1,1c3.2,0.2,6.4,0.2,9.6-0.4c1.9-0.3,4-1,5.5-2.2l0.5-0.7l1.3-3.1c-0.2-0.6-0.7-1.3-0.8-1.6
		c-0.7-1.4-1.4-2.7-1.8-4.2c-0.4-1.7-0.6-3.5-1.1-5.1c-0.7-2.4-1.4-4.1-1.4-6.7c0-2.1,0-4.3,0-6.4c0-2.8-0.2-5.5,0-8.3
		c0.1-2.5,0.4-5.4,2.4-7.3c1.6-1.8,6.7-3.7,9-4.4c1.3-0.4,2.6-0.8,3.9-1.1c-0.1-0.4-0.1-0.8-0.2-1.2c-2.8-1.8-5-4.4-6.2-7.5
		c-3.3,1.8-6.8,2.8-10.6,3.6c-3.8,0.8-7.6,0.9-11.4,1.4c-1.5,0.2-3,0.5-4.5,1c-1.5,0.5-2.9,1.4-4.4,2.1c-1.8,0.8-3.5,1.3-5.4,1.4
		c-2.6,0.1-4.9-0.4-7.3-1.4l-3-1.2l0.2-3.2C47.5,89.9,47.8,87.5,48.3,85.2z"/>
	<g id="Layer1001">
		<path id="path12" class="st0" d="M48.3,85.2l-5,0v72.7c1.3,2,2.8,3.9,4.4,5.8c2.3,2.7,4.8,5.2,7,8c0.4,0.5,0.9,1.1,1.3,1.6V98
			c-2.1-0.1-4-0.6-5.9-1.4l-3-1.2l0.2-3.2C47.5,89.9,47.8,87.5,48.3,85.2L48.3,85.2z"/>
		<path id="path14" class="st0" d="M30.8,85.2l-12.7,0v25l12.7,24.3L30.8,85.2L30.8,85.2z"/>
		<path id="path16" class="st0" d="M68.6,173.5c1-1.5,2.2-2.9,3.4-4.3c2-2.2,4-4.2,5.8-6.5c1.2-1.6,2.4-3.2,3.5-4.8v-3.3
			c-3-0.1-5.7-0.6-8.4-1.5c-1.5-0.4-2.9-1-4.4-1.6L68.6,173.5L68.6,173.5z M68.6,148.5c1.5,0.1,2.9,0.2,4.4,0.3
			c2.8,0.2,5.5,0.2,8.3-0.2V92.5c-3.2,0.5-6.4,0.7-9.7,1.1c-1,0.1-2.1,0.3-3.1,0.6L68.6,148.5L68.6,148.5z"/>
		<path id="path18" class="st0" d="M94,99.1c0.9-0.3,1.7-0.6,2.3-0.8c1.3-0.4,2.6-0.8,3.9-1.1c-0.1-0.4-0.1-0.8-0.2-1.2
			c-2.6-1.7-4.7-4.1-6-6.9V99.1z"/>
	</g>
	<g id="Layer1002">
		<path id="path21" class="st0" d="M105.7,64.6c1.2-2.7,2.4-5.3,3.7-7.9c2.4-4.8,5.1-9.4,8-14c1.5-2.3,3-4.6,4.6-6.8
			c0.8-1.2,1.7-2.4,2.5-3.5c6.6-8.9,14.4-17.3,22.4-25l2.6-2.5l0.1,3.6c0.1,2.7,0,5.5-0.1,8.2c-0.1,3.5-0.4,7-0.7,10.5
			c-0.1,1-0.2,2-0.3,3c0.5-0.4,1.1-0.8,1.6-1.2L153,27l-0.4,4.8c12.7-9,26.2-16.6,40.5-22.8l3.7-1.6l-1.5,3.7c-1.2,3-2.5,6-3.8,8.9
			c-2.3,5.2-5,10.6-8,15.9l6.2-1.9l-1.7,3.4c-5,9.8-13.4,22.4-22.5,28.7c-2.7,1.9-6.2,3.1-9.4,4c-4,1.1-8.2,1.9-12.4,2.6
			c-6.9,1.2-13.9,2.2-20.9,3l-0.2,0c0.5,0.2,1,0.4,1.5,0.6c1.9,0.8,4,1.6,6,2.1c2.2,0.6,3.4,0.9,4.1,1.6c0.4,0.5,0.6,1.2,0.3,2
			c0.5,0.8,0.7,1.8,0.8,2.8c0.1,1.1,0.1,2.3,0.2,3.4c0.4,2.9,1,5.7,1.7,8.5l0.2,0.8c3.8,0.5,7.4,1.5,10,3.4c2,1.4,2.7,3.4,1.4,5.6
			c-1.1,1.9-2.8,3.8-4.2,5.4c-2,2.2-4.1,4.4-6.2,6.5c-2.9,2.9-5.9,5.7-9,8.4c-1.8,1.5-3.5,3.1-5.3,4.6c-2.4,2.1-4.9,4-7.4,6
			c-1.6,1.3-3.7,2.7-5.6,3.6c-2,0.9-4.2,1.6-6,2.8c-2.8,1.7-5.2,4.2-8.1,5.6c-1.5,0.7-3,1.2-4.5,1.6c-1.1,0.3-2.2,0.6-3.3,0.8
			c-6.2,0.8-12,0.2-18.2-1.5c6,0.5,9.2,0.3,12.3-0.3c2.6-0.4,5.4-1.5,7.3-3.4c1.1-1.1,1.9-2.7,1.8-4.1c0-0.9-0.8-2.2-1.3-3
			c-0.6-1.2-1.3-2.4-1.6-3.7c-0.4-1.7-0.7-3.6-1.2-5.3c-0.7-2.2-1.3-3.7-1.3-6.1c0-2.1,0-4.3,0-6.4c0-1.9-0.2-5.2,0-8.2
			c0.1-2.6,0.5-4.8,1.9-6c1-1.3,6-3.2,8.1-3.9c2-0.6,3.7-1.1,5.8-1.5c-0.5-0.9-0.8-2.4-0.8-3.8c-3.5-1.9-6-5.3-7-9.2
			c-3.8,2.4-7.7,3.7-12.1,4.6c-3.8,0.8-7.5,0.9-11.2,1.4c-1.6,0.2-3.3,0.6-4.8,1.1c-1.6,0.6-3,1.4-4.5,2.1c-1.5,0.7-3,1.1-4.7,1.2
			c-2.3,0.1-4.3-0.3-6.5-1.2l-1.7-0.7l0.1-1.9c0.2-2.7,0.6-5.5,1.3-8.2c-1.2-1.1-2.3-2.5-2.9-3.8c-0.7-1.6,0.2-3.9,0.8-5.5
			c0.8-2.1,1.7-4.1,2.6-6.2c2.3-5.2,6.6-13.9,10.8-17.6c1-0.8,2.2-1.4,3.6-1.7c-1.6-1.4-4.9-4.5-5.7-5.1c-2.6-2-5.3-3.9-8.1-5.5
			c-1.5-0.8-3.1-1.4-4.7-1.9c-1.4-0.5-3-0.9-3.5-2.5c0,0,0,0,0-0.1c-4.1,0.8-8.1,1.8-12.1,2.9c-2.7,0.7-5.4,1.6-8,2.4
			c-2.4,0.8-4.8,1.5-7.2,2c-3.5,0.6-7.9,0.3-10.4-2.6c-1.5-1.7-2.4-4.5-0.3-6.2c1.5-1.2,4.1-1.6,5.9-1.6c2.2,0,4.3-0.1,6.5-0.2
			c5.1-0.2,10.3-0.7,15.4-1.2c-0.3-0.3-0.5-0.5-0.8-0.8c-1.1-1.4-2.2-3.5-1.2-5.3c0.2-0.4,0.5-0.8,0.9-1c1.5-1.2,4.2-1.4,6-1.3
			c2.2,0.1,4.3,0.1,6.5,0.2c3.7,0.1,7.3-0.2,11-0.2c6.4-0.2,12.8-0.3,19.2-0.3l0.2,0l0.2,0c0.3,0.1,0.6,0.2,0.9,0.4
			c0.3-0.2,0.7-0.3,1.2-0.3c0.8,0,1.6,0.4,2.4,1.8c0.8,1.5,1.7,3.7,2.4,5.2c1.2,2.7,2.2,5.4,3.3,8.1c1.1,3.1,2.3,6.2,3.4,9.3
			c4.5,0.1,10,0.9,13.2,4.2l0.7,0.7l0.1,3.5C104.7,57,105.6,60.7,105.7,64.6L105.7,64.6z M122.4,86.7c2,0.1,3.9,0.5,5.6,1.3
			c-0.2-0.3-0.4-0.6-0.6-1l-1.7-1.5c-0.7-0.7-1.7-1.3-2.7-2C122.9,84.6,122.7,85.6,122.4,86.7z M69.3,48.8c0.1,0,0.2,0,0.3,0
			c1.8,0,3.5,0.2,5.2,0.3c2.6-2.1,6.4-3.3,9.9-3.7c-1.2-2.4-2.4-4.8-3.9-7c-2.5-3.7-5.6-7.5-9-10c-1-0.8-1.3-1.4-1.3-2
			c-4.2,0.5-8.4,1.2-12.6,2c-1.9,0.4-3.9,0.8-5.8,1.3c2.2,2.1,4.3,4.4,6.4,6.6C62.2,40.4,65.8,44.6,69.3,48.8L69.3,48.8z"/>
		<path id="path23" class="st2" d="M74.7,22.6c-6.4,0.1-12.8,0.2-19.1,0.3c-3.7,0.1-7.4,0.4-11.1,0.2c-2.4-0.1-4.2-0.1-6.6-0.2
			c-1.8-0.1-3.8,0.2-4.7,0.9c-0.9,0.7-0.4,2.2,0.7,3.6c1.6,2,4.2,2.7,7.4,2.4c4.4-0.4,10.1-2.2,16.4-3.4c4.2-0.8,8.9-1.6,12.8-2
			c0.9-0.1,1.7-0.3,2.5-0.3C74.3,24,75.2,22.7,74.7,22.6L74.7,22.6z"/>
		<path id="path25" class="st2" d="M35.8,31.2c-6.1,0.6-12.2,1.2-18,1.5c-2.4,0.1-4.2,0.2-6.6,0.2c-1.8,0-3.8,0.5-4.7,1.2
			c-0.9,0.7-0.5,2.2,0.6,3.5c1.7,2,5,2.6,8.7,1.9c4.2-0.7,9.3-2.9,15.1-4.3c4.2-1.1,9.1-2.3,12.9-3c0.9-0.2,1.7-0.4,2.5-0.5
			c0.9-0.1,1.5-0.7,1.7-1.1c-2.2,0.5-4.4,1-6.6,1.2C39.5,32,37.5,31.9,35.8,31.2L35.8,31.2z"/>
		<path id="path27" class="st2" d="M72.1,26.1c4.9,3.2,9.9,9.8,13,15.5c-2.5-6.9-5.4-15.3-8.4-19.4c0.3,1-0.2,2-1,2.7
			C75,25.6,74,26,73,26.1C72.7,26.1,72.4,26.1,72.1,26.1z"/>
		<path id="path29" class="st2" d="M45.3,33.9c0.5,0.9,3.5,1.1,7.2,3.2c2.9,1.6,6.4,4,10,6.9C58.9,39.5,54,33.9,50,30.3
			c0,0.7-0.3,1.5-0.9,2.1c-0.7,0.7-1.6,1.2-2.6,1.3C46.1,33.7,45.7,33.8,45.3,33.9L45.3,33.9z"/>
		<path id="path31" class="st2" d="M108.7,70.8c0.6,0,1.1,0,1.6,0.1c-0.4,0.2-0.8,0.6-1.1,0.9c-0.7,0.9-0.9,2-0.8,3
			c0.3,1.6,1.5,2.6,2.9,3.3c1.5,0.7,3.2,1.1,4.7,1.8c1.3,0.5,2.8,1.2,4.2,2c0,0.2,0,0.3,0,0.5c0,1.5-0.3,3-0.8,4.3
			c-4.9,0.6-9.1,3.4-11.7,7.3c-5.5-0.4-10-4.6-10.7-10c2.9-2.4,4.8-5.3,6.4-8.8c0.5-1.2,1-2.5,1.3-3.8
			C106.1,71,107.4,70.8,108.7,70.8L108.7,70.8z"/>
		<path id="path33" class="st3" d="M108.7,70.8c0.6,0,1.1,0,1.6,0.1c-0.4,0.2-0.8,0.6-1.1,0.9c-0.7,0.9-0.9,2-0.8,3
			c0.3,1.6,1.5,2.6,2.9,3.3c1.4,0.7,3.1,1.1,4.6,1.7c-1.8,1.6-4.4,1.4-5.9,0.9c-2.2-0.8-4.2-3.7-2.7-7.5l-3.2,0.3
			c0.2-0.7,0.4-1.4,0.6-2.1C106.1,71,107.4,70.8,108.7,70.8L108.7,70.8z M116.6,80.1c1.2,0.5,2.5,1.1,3.8,1.8c0,0.2,0,0.3,0,0.5
			c0,1.5-0.3,3-0.8,4.3c-0.9,0.1-1.9,0.3-2.8,0.6C117.1,85.2,117.3,83,116.6,80.1L116.6,80.1z"/>
		<path id="path35" class="st3" d="M140.1,113.6c3-3.2,5.6-6,6.7-7.9c0.7-1.3,0.3-2.2-0.8-2.9c-0.4-0.3-0.8-0.5-1.2-0.8
			c-1.4,0.2-2.5,0.5-3.6,1.2c0.5,2.1,0.4,4.4,0.1,6.5C141,111,140.7,112.4,140.1,113.6L140.1,113.6z"/>
		<path id="path37" class="st3" d="M123.1,129.5c1.3-1.1,2.7-2.3,4.7-4.1c1.9-1.7,4.3-3.8,6.5-5.9c-4.2,2-5.4,2.9-8.7,4.5
			c-0.2,0.1-0.3,0.2-0.5,0.3L123.1,129.5L123.1,129.5z"/>
		<path id="path39" class="st2" d="M106.6,140.8c1.1-0.5,2.1-0.9,3.3-1.4c1.7-0.8,4.1-2.5,5.2-3.3l3.3-9.7c-0.2,0-0.5,0.1-0.7,0.1
			c-2,0.2-4.2-0.3-5.7-1.6L106.6,140.8z"/>
		<path id="path41" class="st2" d="M93.9,144.8c-0.7,2.4-2.6,4.1-3.8,4.8c1.6-0.4,3.5-0.9,5.7-1.9c1.3-0.6,2.6-1.6,4-2.7
			c0.7-1.5,1.1-3.1,1.6-4.7l6.8-28c-1.8-2.6-2.9-5.8-2.9-9.3c0-0.2,0-0.3,0-0.5c-2.4,1.7-5,4.1-5.2,5c-2.1,8.4-3.9,23.1-5.6,33.8
			C94.2,142.9,94.1,144.1,93.9,144.8L93.9,144.8z"/>
		<path id="path43" class="st2" d="M98.2,101.9c-3,0.8-5,1.8-6.5,3.4c-0.8,0.9-1.6,2-2.1,3.4c-1.1,3.5-0.7,11-0.8,16
			c0,2.2,0.6,3.4,1.2,5.5c0.4,1.3,0.8,3.4,1.2,5.4c0.1,0.4,0.2,0.7,0.3,1.1c0.1-9.2,0.2-20.9,1.9-29.1
			C93.7,106.3,96,103.7,98.2,101.9L98.2,101.9z"/>
		<path id="path45" class="st3" d="M104.4,96.1c0.3,1.2,0.7,2.3,1.2,3.5c0.2-1,0.5-2,1-3C105.8,96.5,105.1,96.3,104.4,96.1z"/>
		<g id="Layer1003">
			<path id="path48" class="st3" d="M108.7,139.9c0.4-0.2,0.8-0.4,1.3-0.6c1.7-0.8,4.1-2.5,5.2-3.3l1.1-3.3L108.7,139.9L108.7,139.9
				z"/>
			<path id="path50" class="st3" d="M105.7,107.1c-0.3-1.3-0.5-2.7-0.5-4.1c0-0.2,0-0.3,0-0.5c-1.8,1.3-3.7,2.9-4.6,4.1L105.7,107.1
				z"/>
			<path id="path52" class="st3" d="M98.2,101.9c-3,0.8-5,1.8-6.5,3.4c-0.5,0.5-0.9,1.1-1.3,1.7c0.7,0.1,2.9-0.1,3.5-0.3
				C94.6,105.3,96.4,103.4,98.2,101.9L98.2,101.9z"/>
		</g>
		<path id="path54" class="st2" d="M51.9,92.5c0.2-3.7,0.9-7,1.7-9.3c-1.5-1.1-3-2.8-3.5-3.9c-0.4-0.9,1.5-5.3,3.4-9.6
			C56.2,63.5,60.3,56,63.7,53c1-0.9,2.8-1.4,4.7-1.5c2.7-0.2,5.6,0.2,7.4,0.2c2.8-2.7,8.2-4,12.3-3.9c4,0,9,0.7,11.7,3.4l0.1,3.3
			c2.7,3.9,3.3,8.4,2.9,12.6c-0.2,2.5-0.8,4.9-1.8,7c-1.7,3.9-3.8,6.8-7.4,9.1c-2.8,1.8-6.1,3.3-11.5,4.4c-6,1.2-11.1,0.7-16.4,2.6
			c-3.4,1.2-5,3-8.5,3.2C55,93.6,53.4,93.1,51.9,92.5L51.9,92.5z M96.3,52.4c-8.4,1.4-15.3,6.7-20.9,13.5c-2.6,3.2-5.4,7.8-6.8,10.3
			c-0.7,1.2-1.7,2.4-2.9,3.2c-2.1,1.5-4.5,1.8-7.2,2.4c2.2,0.7,5.1,1,9,0.1c17.3,0.3,25.6-2.6,29.5-7.4c4.2-5,6-15.1-3.5-20.9
			C94.5,53.1,95.5,52.8,96.3,52.4z"/>
		<g id="Layer1004">
			<path id="path57" class="st2" d="M127,83.9c0.1-1.3,0.8-2.5,2.3-3.3c-3.4-0.9-9.3-3.3-12.2-5.3c-0.9-0.6-1.3-1.1-1.9-1.9
				c-1.7-2.2-5.2-1.3-4.8,1.1c0.1,0.8,0.8,1.3,1.7,1.8c1.1,0.5,3,1.1,4.6,1.7C119.6,79.1,124.4,81.6,127,83.9L127,83.9z"/>
			<path id="path59" class="st2" d="M132.3,97.6c-0.2-2.6-0.7-6.3-1.4-8.4c-0.9-2.5-1.9-2.9-2-4.2c0-0.7,0.2-1.3,0.5-1.8
				c0.5-0.7,1.3-0.9,2.2-0.7c1.1,0.3,1.3,1.5,1.4,2.6c0.1,1.1,0.1,2.6,0.2,3.5c0.5,3.5,0.9,5.4,1.7,8.7
				C134.3,97.2,133.1,97.5,132.3,97.6L132.3,97.6z"/>
			<path id="path61" class="st2" d="M125.5,109.4c1.3-1.5,2.4,0.2,1.9,0.9c-0.5,0.7-0.8,1.3-1.4,1.9c-1.2,1.3-3.2,2.6-4.9,3.8
				c-3.3,2.4-6.4,4.3-8.2,5c-0.6,0.2-0.9,1.1,0,2c1,1,2.5,1.7,4.3,1.4c4.4-0.5,10.8-4.4,13.8-7.3c1.2-1.2,2.6-2.8,3.3-5.4
				c0.3-1.4,2.3-0.7,2.2,0.4c-0.1,1.4-1.3,3.4-2.7,5.3c3.2-1.5,4.8-4.6,5.4-8.2c0.4-2.7,0.3-5.7-0.9-7.7c-1.6-2.7-4-2.4-6.1-1.9
				c-2.8,0.7-7.9,6.2-11.1,8.4c-1.5,1.1-2.4,1.9-3.7,2.3c-1.4,0.5-2.1,1.9-1.6,3.1c0.4,0.9,1.4,1.6,2.8,1.5c0.4-0.2,1.6-1.2,2.7-1.9
				C122.9,112.1,124,111.3,125.5,109.4L125.5,109.4z"/>
		</g>
		<g id="Layer1005">
			<path id="path64" class="st3" d="M125.5,109.4c0.8-0.9,1.5-0.6,1.8-0.1c-0.2-0.4-0.9-0.8-1.4-0.9c-0.6-0.1-1.2,0.1-1.5,0.4
				c-1,1.1-1.8,1.8-2.8,2.6c-1.5,1.1-3.2,2.3-4.8,3.3c0.5,0.3,1.1,0.4,1.8,0.4c0.4-0.2,1.6-1.2,2.7-1.9
				C122.9,112.1,124,111.3,125.5,109.4L125.5,109.4z"/>
			<path id="path66" class="st3" d="M115.6,124.4c0.5,0.1,1.1,0.1,1.7,0.1c4.4-0.5,10.8-4.4,13.8-7.3c1.2-1.2,2.6-2.8,3.3-5.4
				c0.3-1.4,2.3-0.7,2.2,0.4c-0.1,1.4-1.3,3.4-2.7,5.3c3.2-1.5,4.8-4.6,5.4-8.2c0.4-2.7,0.3-5.7-0.9-7.7c-0.7-1.1-1.5-1.7-2.4-2
				c1.6,2,2,3.4,2.3,5c0.3,2-0.2,3.9-1.1,5.3c-0.4-1.7-2-2-3-1.2c-0.9,0.7-1.3,1.9-2.3,3.4c-0.9,1.4-2.2,2.9-4,4.5
				C124.2,119.7,121.5,121.4,115.6,124.4L115.6,124.4z"/>
		</g>
		<g id="Layer1006">
			<path id="path69" class="st3" d="M127.8,81.9c0.4-0.5,0.9-0.9,1.6-1.3c-3.4-0.9-9.3-3.3-12.2-5.3c-0.9-0.6-1.3-1.1-1.9-1.9
				c-1.7-2.2-5.2-1.3-4.8,1.1c0,0.2,0.1,0.5,0.3,0.7c1-0.6,2.3-0.8,3.5-0.4c0.8,0.2,1.6,0.7,2.4,1.1c1.1,0.6,2.3,1.3,3.4,1.8
				C122.8,79.1,125.5,80.5,127.8,81.9L127.8,81.9z"/>
			<path id="path71" class="st3" d="M129,84.5c0.1-0.5,0.3-0.9,0.5-1.3c0.5-0.7,1.3-0.9,2.2-0.7c1.1,0.3,1.3,1.5,1.4,2.6
				c0.1,1.1,0.1,2.6,0.2,3.5c0.5,3.5,0.9,5.4,1.7,8.7c-0.1,0-0.2,0-0.3,0c-0.3-1.2-1-3.8-1.6-6.4c-0.3-1.3-0.7-2.9-1.1-4.1
				c-0.3-0.9-1-2.6-2.2-2.6C129.4,84.2,129.1,84.4,129,84.5L129,84.5z"/>
		</g>
		<path id="path73" class="st1" d="M121.6,88.4c2.8,0,5.4,0.8,7.6,2.1c0.6,2.2,1,5.2,1.1,7.3l0,0.5c-3.4,1.7-7.4,6.2-10.3,8.1
			c-0.9,0.6-2.1,1.7-3.2,2c-2.4,0.8-3.8,3.4-2.9,5.8c0.4,0.9,0.9,1.5,2.5,2.5c-5.6-2.1-9.5-7.5-9.5-13.8
			C106.9,94.9,113.5,88.4,121.6,88.4L121.6,88.4z"/>
		<g id="Layer1007">
			<path id="path76" class="st3" d="M74.7,22.6c-6.4,0.1-12.8,0.2-19.1,0.3c-3.7,0.1-7.4,0.4-11.1,0.2c-2.4-0.1-4.2-0.1-6.6-0.2
				c-1.8-0.1-3.8,0.2-4.7,0.9c-0.9,0.7-0.5,2.1,0.6,3.5c2.7-2,5.3-2.5,8.2-2.9c4.7-0.6,10.3-0.3,15.3-0.1c3.6,0.2,8.3,0.5,11,0.2
				c0.7-0.1,1.4-0.2,2.1-0.3c0.9-0.1,1.7-0.3,2.5-0.3C74.3,24,75.2,22.7,74.7,22.6L74.7,22.6z"/>
			<path id="path78" class="st3" d="M72.1,26.1c0.4,0.3,0.8,0.6,1.3,0.9c1.5,0.2,2.6-0.1,3.5-0.3c0.3-0.1,0.6-0.1,0.8,0.2
				c2.5,3.8,5.4,9,7.4,14.7c-2.5-6.9-5.4-15.3-8.4-19.4c0.3,1-0.2,2-1,2.7C75,25.6,74,26,73,26.1C72.7,26.1,72.4,26.1,72.1,26.1z"/>
		</g>
		<g id="Layer1008">
			<path id="path81" class="st4" d="M148,8.6c-6.9,6.6-16.9,17-24.7,28.3c-6.6,9.4-11.8,18-17.6,31.6c1-0.2,2-0.3,3-0.3
				c0.5,0,1.1,0,1.6,0.1c2.4-3,4.8-6,7.3-8.9c4.6-5.4,9.5-10.6,14.7-15.5c4.6-4.4,9.5-8.4,14.5-12.3C147.8,23.1,148.2,13.5,148,8.6
				L148,8.6z"/>
			<path id="path83" class="st4" d="M151,30.4l-0.2,2.7c-0.8,0.6-1.6,1.2-2.5,1.8c-3.2,2.4-6.3,4.9-9.4,7.5
				c-9.5,8-17.9,16.8-25.6,26.5c-0.4-0.1-0.8-0.3-1.2-0.4C123,54.8,134.4,42.5,151,30.4L151,30.4z"/>
			<path id="path85" class="st1" d="M193.7,10.5c-15.5,6.8-30.3,15.1-44.3,25.7c-12.7,9.5-23.9,20.1-34.4,33.4
				c1.2,0.6,2.2,1.3,3.2,2.1c4.1-0.6,9.7-1.8,15.6-3.1c11.5-2.5,24.2-6.3,31-11.9C177.5,46.3,186.3,28.1,193.7,10.5z"/>
			<path id="path87" class="st1" d="M186.3,36.7l-4.2,1.3c-4.5,7.6-9.9,14.6-16.3,19.9c-6.2,5-16.2,8.3-23.8,10.3
				c-2.6,0.7-5.2,1.3-7.9,1.9c-4.3,1-8.7,1.9-13,2.6c-0.5,0.1-1,0.2-1.5,0.3c0.4,0.4,0.7,0.9,1.1,1.4c7.8-0.9,15.6-2,22.6-3.2
				c8.9-1.5,16.6-3.3,21.1-6.4C173,58.9,181.3,46.6,186.3,36.7L186.3,36.7z"/>
		</g>
		<g id="Layer1009">
			<path id="path90" class="st3" d="M35.8,31.2c-6.1,0.6-12.2,1.2-18,1.5c-2.4,0.1-4.2,0.2-6.6,0.2c-1.8,0-3.8,0.5-4.7,1.2
				c-0.9,0.7-0.5,2.2,0.6,3.5c0.2,0.2,0.3,0.4,0.5,0.5c2.7-3.3,8.5-4.2,14.8-4.8c8.3-0.8,17.4-0.5,19.5-0.7c0.6-0.1,1.3-0.3,1.9-0.4
				c0.9-0.2,1.7-0.4,2.5-0.5c0.9-0.1,1.5-0.7,1.7-1.1c-2.2,0.5-4.4,1-6.6,1.2C39.5,32,37.5,31.9,35.8,31.2z"/>
			<path id="path92" class="st3" d="M45.3,33.9c0.2,0.3,0.8,0.6,1.6,0.9c2-0.2,2.9-0.9,3.4-1.3c0.4-0.3,0.6-0.4,1,0
				c0.8,0.6,4.5,3.5,9,7.9c-3.3-3.9-7.1-8.1-10.4-11c0,0.7-0.3,1.5-0.9,2.1c-0.7,0.7-1.6,1.2-2.6,1.3C46.1,33.7,45.7,33.8,45.3,33.9
				z"/>
		</g>
		<g id="Layer1010">
			<path id="path95" class="st5" d="M68.6,80.8c1,0,2.6,0,3.7-0.1c9.1-0.5,17.7-0.9,23.3-7.1c4.3-4.8,5.2-13.6-2.3-19.8
				c-1.1,0.5-2.3,1.1-3.4,1.8c12,7,5.1,18,2.6,19.9c-3,2.2-12.3,5-17.7-4.2c-1.3,1.8-2.4,3.7-3.6,5.6C70.6,78.2,69.6,79.8,68.6,80.8
				L68.6,80.8z"/>
			<path id="path97" class="st6" d="M74.5,72c2.8,5.2,8.5,7.3,13,6.5c2.1-0.4,4.1-1.4,5.8-2.6c1.5-1.1,2.8-2.9,3.6-4.9
				c1.6-4.4,0.9-9.9-2.7-13.4c-0.7-0.7-1.9-1.6-3.3-2.4c-0.5,0.3-1,0.6-1.4,0.9c1.4,0.6,2.6,1.6,3.7,2.6c3.2,3,3.8,7.9,2.4,11.9
				c-0.6,1.6-1.6,3.2-3,4.2c-1.5,1.1-3.3,2-5.2,2.3c-2.3,0.4-4.8-0.1-6.9-1.2c-2.2-1.2-3.9-3-4.9-5.3C75.1,71.1,74.8,71.5,74.5,72
				L74.5,72z"/>
			<path id="path99" class="st1" d="M76.6,68.9c1.5,4.5,4.8,7.2,8.6,7.5c5.8,0.4,9.5-4.3,9.4-10c-0.1-3.7-1.9-7.5-6.1-9.7
				c-0.4,0.3-0.8,0.6-1.2,0.9c3.1,2,4.5,5,4.6,7.9c0.1,3.4-1,5.3-2.7,6.2c-1.8,1-4.1,0.7-6.2-0.8c-1.5-1.1-3-2.8-3.9-5.2
				C78.3,66.7,77.5,67.8,76.6,68.9L76.6,68.9z"/>
			<path id="path101" class="st7" d="M84.7,64c-1.2,4.2-1.8,8.8,0.4,11.7c-1.6-0.5-3.1-1.2-4.6-2.7C81.5,69.1,83,66.3,84.7,64z"/>
			<path id="path103" class="st7" d="M83,65.4c-1.7,1.4-3.1,3-4.6,4.7c0.4,0.9,0.8,1.4,1.3,1.9C80.3,69.6,81.6,67.4,83,65.4L83,65.4
				z"/>
			<path id="path105" class="st8" d="M83.7,71.3c-0.2-0.1-0.4-0.3-0.6-0.4c-0.5-0.4-1-0.8-1.4-1.2c-0.4,1-0.7,2.2-1,3.4
				c1.5,1.6,3,2.3,4.6,2.7C84.2,74.5,83.8,72.9,83.7,71.3z"/>
			<path id="path107" class="st8" d="M80.9,68.8c-0.2-0.3-0.4-0.6-0.6-0.9c-0.7,0.7-1.3,1.4-1.9,2.2c0.4,0.9,0.8,1.4,1.3,1.9
				C80,70.9,80.4,69.8,80.9,68.8L80.9,68.8z"/>
			<path id="path109" class="st4" d="M89.5,59.3c1.6,1.8,2.4,4,2.4,6.1c0,0.7,0,1.4-0.1,2l1.9,0.8c0.4-3.3-0.5-6.9-2.9-9.2
				L89.5,59.3L89.5,59.3z"/>
			<path id="path111" class="st4" d="M91.6,68.5c-0.3,1-0.7,1.8-1.3,2.3c0.5,0.8,1,1.6,1.5,2.4c0.8-1,1.3-2,1.6-3.3
				C92.7,69.4,92.2,69,91.6,68.5z"/>
			<path id="path113" class="st6" d="M88.4,58.3c1.2-0.1,2.1,0.8,2.1,1.9c0,0,0,0,0,0c0,1.1-1,2.1-2.1,2.2c-1.2,0.1-2.1-0.8-2.1-1.9
				S87.2,58.4,88.4,58.3z"/>
			<path id="path115" class="st6" d="M90.8,62.7c0.7,0,1.2,0.5,1.2,1.2s-0.5,1.2-1.2,1.3c-0.7,0-1.2-0.5-1.2-1.2
				C89.6,63.3,90.1,62.7,90.8,62.7C90.8,62.7,90.8,62.7,90.8,62.7z"/>
		</g>
		<g id="Layer1011">
			<path id="path118" class="st3" d="M63.4,53.3c1.6,1.8,2.1,4.2,1.1,7.4c-0.1,0.4,0.8,0.2,1.3-0.1c3.2-2.3,6.2-4.7,9-6.2
				c1.4-0.7,3.3-1.2,4.5-1.6c1.5-0.6,2.9-1.1,4.2-1.5c5.1-1.5,11.6-1.9,16.5,0.7l0-0.7c-2.7-2.8-7.7-3.4-11.7-3.4
				c-4.1,0-9.5,1.2-12.3,3.9c-1.9,0-4.8-0.4-7.4-0.2c-1.8,0.1-3.7,0.6-4.7,1.5C63.6,53.1,63.5,53.2,63.4,53.3L63.4,53.3z"/>
			<path id="path120" class="st3" d="M61.9,65.5c-1,0.9-4.2,5.5-5.5,9.8c-0.4,1.4-0.6,2.9-0.5,4c0.1,0.9,0.7,1.3,1.6,0.5
				C60.6,76.9,61.3,70.7,61.9,65.5L61.9,65.5z"/>
			<path id="path122" class="st3" d="M62.3,82.4c-1.4,3-2.3,5.5-2.3,7.1c1.1,0,5.8-3.5,9.1-4.7c1.8-0.6,4.2-0.9,6.7-1.4
				c4.4-0.9,9.1-2.3,13.1-3.9c-4.8,1.6-11.7,2.4-21.3,2.3C65.6,82.3,63.9,82.5,62.3,82.4L62.3,82.4z"/>
		</g>
		<g id="Layer1012">
			<path id="path125" class="st6" d="M108.7,103.9c0.1,2.3,1.2,5.1,2.5,6.7l2.9,0c0.5-1,1.5-1.8,2.7-2.2c0.3-0.1,0.5-0.2,0.8-0.4
				l-1.8-5.8l-3.4-1.1L108.7,103.9z"/>
			<path id="path127" class="st6" d="M111.2,95.2l1.5,4.7l3.4,1.2l4.5-3.3l0-3.6l-4.1-3C114.7,91.9,112.9,93.3,111.2,95.2
				L111.2,95.2z"/>
			<path id="path129" class="st6" d="M122.1,94.1l0,3.6l4.4,3.2c1.3-1.1,2.6-2,3.8-2.6l0-0.5c-0.1-1.3-0.3-2.9-0.5-4.5
				c-1-0.8-2.2-1.5-3.4-2.1L122.1,94.1L122.1,94.1z"/>
		</g>
		<g id="Layer1013">
			<path id="path132" class="st4" d="M177.3,45.4c1.6-0.5,3.3-0.9,4.9-1.4c0.2-0.4,0.5-0.8,0.7-1.2c-1.6,0.4-3.2,0.8-4.8,1.3
				C177.9,44.5,177.6,45,177.3,45.4L177.3,45.4z"/>
			<path id="path134" class="st4" d="M120.3,74c0.9-0.5,1.8-1.1,2.7-1.6c-0.5,0.1-1,0.2-1.5,0.3c-0.5,0.3-1,0.6-1.5,0.9
				C120.1,73.8,120.2,73.9,120.3,74z M170.2,53.9c2.1-0.5,4.2-1,6.4-1.5c0.3-0.4,0.6-0.8,0.9-1.2c-2,0.4-4,0.9-6.1,1.4
				C171,53.1,170.6,53.5,170.2,53.9L170.2,53.9z"/>
			<path id="path136" class="st4" d="M122.3,74.3c2.2-1.1,4.5-2,6.7-3c-1,0.2-1.9,0.4-2.9,0.6c-1.8,0.8-3.6,1.7-5.4,2.6
				C121.2,74.4,121.7,74.3,122.3,74.3z M160.4,61.5c3.2-0.6,6.4-1.2,9.8-1.7c0.3-0.3,0.7-0.7,1-1c-2.9,0.4-5.8,0.9-8.7,1.5
				C161.8,60.7,161.1,61.1,160.4,61.5L160.4,61.5z"/>
			<path id="path138" class="st4" d="M126.3,73.7c5.9-2,11.2-3.5,17.2-4.7c6.5-1.3,12.6-2.3,18.6-2.9c0.6-0.3,1.2-0.6,1.7-1
				c-7.1,0.7-14.1,1.7-20.7,3.2c-6.5,1.5-12.8,3.4-19.1,5.7C124.9,73.9,125.6,73.8,126.3,73.7z"/>
		</g>
		<g id="Layer1014">
			<path id="path141" class="st4" d="M115.9,70.1c8.9-9.2,16-15.1,24.4-21.1c15.2-10.8,28.9-18,47.6-25.4c0.2-0.4,0.4-0.8,0.6-1.2
				c-15.1,5.6-33.9,15.2-48.8,26.1c-8.6,6.3-16.7,13.4-24.1,21.4C115.7,69.9,115.8,70,115.9,70.1L115.9,70.1z"/>
			<path id="path143" class="st4" d="M116.7,70.6c8.5-7.3,15.4-12.4,23.5-17.2c13.9-8.3,26.4-13.9,42.1-19c0.2-0.4,0.5-0.9,0.7-1.3
				c-14,4.6-30.1,11.5-43.4,19.7c-8.2,5.1-16,11-23.3,17.6C116.5,70.4,116.6,70.5,116.7,70.6L116.7,70.6z"/>
			<path id="path145" class="st4" d="M117.5,71.1c8-5.8,14.7-9.8,22.5-13.7c12.3-6.1,23.5-10.1,36.4-13.5c0.3-0.4,0.6-0.8,0.9-1.3
				c-12.6,3.4-26.2,8.1-37.9,14.2c-7.7,4-15.1,8.8-22.2,14.1C117.3,71,117.4,71,117.5,71.1L117.5,71.1z"/>
			<path id="path147" class="st4" d="M118.1,71.7c8.5-5,15.5-8.3,23.5-11.4c9.7-3.7,18.7-6.4,28.2-8.4c0.4-0.4,0.7-0.8,1.1-1.2
				c-10.1,2.1-20.5,5.1-29.8,8.8c-8.1,3.3-15.8,7.2-23.4,11.9C117.9,71.5,118,71.6,118.1,71.7L118.1,71.7L118.1,71.7z"/>
			<path id="path149" class="st4" d="M120.8,71.2c7.7-3.5,14.2-5.9,21.6-8c6.7-1.9,13.1-3.4,19.5-4.5c0.6-0.4,1.2-0.8,1.7-1.2
				c-7.4,1.2-14.8,2.8-21.6,4.9c-7.8,2.4-15.3,5.4-22.8,9C119.8,71.4,120.3,71.3,120.8,71.2L120.8,71.2z"/>
		</g>
		<g id="Layer1015">
			<path id="path152" class="st1" d="M108.3,68.1c4-7.2,8.7-14.3,13.3-20.2c8.3-10.6,16.9-19,26.1-27c0-0.6,0.1-1.1,0.1-1.7
				C137.7,28,128.5,37.4,120.4,48c-4.8,6.3-9.1,12.9-13,20.2C107.7,68.2,108,68.1,108.3,68.1z"/>
			<path id="path154" class="st1" d="M109.7,68.2c4.4-6.4,9.5-12.5,14.3-17.7c7.5-8,15.1-14.5,22.9-20.5c0.1-0.5,0.1-1.1,0.2-1.6
				c-8.7,6.6-16.9,13.9-24.3,22c-5,5.5-9.6,11.3-13.9,17.7C109.1,68.1,109.4,68.1,109.7,68.2L109.7,68.2z"/>
		</g>
	</g>
	<path id="path156" class="st1" d="M45.8,121.2v5.5c0,0,0.1,0,0.1,0c0.5,0.1,1,0.1,1.5,0.1l2,0l0,5.6H34.2V127l1.9-0.1
		c0.5,0,1.1-0.1,1.6-0.1v-18.4c0,0,0,0,0,0c-0.5-0.1-1.2-0.1-1.7-0.2l-1.8-0.2v-5.3h13.4c3.1,0,6.9,0.3,9.3,2.5
		c1.9,1.7,2.5,4.1,2.4,6.5c-0.1,3.3-1.9,6.1-4.6,7.7c-2.3,1.3-5,1.8-7.6,1.8L45.8,121.2L45.8,121.2z M45.8,108.3v7.1h0.7
		c2.5,0,4.2-0.9,4.2-3.6c0-2.4-1-3.5-3.5-3.5L45.8,108.3L45.8,108.3z"/>
	<path id="path158" class="st6" d="M57.3,111.6c-0.1,2.7-1.6,4.9-3.7,6.1c-1.9,1.1-4.2,1.5-6.6,1.5h-3.2v7.8c0,1.1,0.8,1.5,1.8,1.6
		c0.6,0.1,1.1,0.1,1.8,0.1l0,1.6H36.2v-1.6c0.4,0,1.2-0.1,1.8-0.1c1-0.1,1.7-0.4,1.7-1.7v-18.7c0-1.4-0.5-1.7-1.4-1.9
		c-0.6-0.2-1.4-0.2-2.1-0.2v-1.5h11.4C52.7,104.6,57.5,105.5,57.3,111.6L57.3,111.6z M52.6,111.8c0-3.4-1.8-5.5-5.5-5.5l-3.3,0v11
		h2.6C49.9,117.4,52.6,115.8,52.6,111.8L52.6,111.8z"/>
	<path id="path160" class="st1" d="M86.7,108.5c-0.2,0.3-0.3,1.1-0.3,1.4v22.7h-4.5l-12.5-16.8l0,8.7c0,0.5,0.2,1.6,0.7,1.8
		c0.5,0.3,1.4,0.5,2,0.5L74,127v5.3H59.3v-5.1l1.6-0.3c0.5-0.1,1.6-0.2,2-0.4c0.4-0.2,0.6-1.6,0.6-2v-13.9c0-0.5,0-1.2-0.3-1.7
		c-0.5-0.7-1.9-1-2.6-1.1l-1.7-0.2v-5.1h10.4l11.3,15.4v-8.1c0-0.3-0.2-1-0.4-1.2c-0.7-0.6-1.5-0.6-2.4-0.6l-1.8-0.1v-5.3h14.4v5.3
		l-1.8,0.1C88.1,108.1,87.2,108.2,86.7,108.5L86.7,108.5z"/>
	<path id="path162" class="st6" d="M88.4,106.1c-1.2,0.1-2.2,0.4-2.9,0.9c-0.7,0.5-1,1.8-1,2.9v20.7h-1.6L67.5,110l0,14.6
		c0,1.6,0.7,3,1.8,3.6c0.8,0.4,2,0.7,2.8,0.7v1.5H61.3v-1.5c0.9-0.2,1.8-0.2,2.5-0.5c1.1-0.5,1.8-2.1,1.8-3.8v-13.9
		c0-2.7-1-4.2-4.7-4.7v-1.4h7.5l14.2,19.5v-14.2c0-1-0.4-2.2-1.1-2.7c-0.9-0.8-1.7-1-3.5-1.1v-1.5h10.4V106.1L88.4,106.1z"/>
</g>
</svg>
