<?xml version="1.0" encoding="utf-8"?>
<!-- Generator: Adobe Illustrator 21.1.0, SVG Export Plug-In . SVG Version: 6.00 Build 0)  -->
<svg version="1.1" id="Layer_1" xmlns="http://www.w3.org/2000/svg" xmlns:xlink="http://www.w3.org/1999/xlink" x="0px" y="0px"
	 viewBox="0 0 200 200" style="enable-background:new 0 0 200 200;" xml:space="preserve">
<style type="text/css">
	.st0{fill:#D9BB89;}
	.st1{fill:#FFFFFF;}
	.st2{fill:#027CC5;}
	.st3{fill:#ED1B24;}
</style>
<g id="_x3C_Group_x3E_">
	<path class="st0" d="M97.7,198.8c-29.8-16.3-61-46.6-61-83c0-21.5,0-43,0-64.4v-2.8l2.5-1.3c19-10,39.3-15.1,60.7-15.4h0h0.1
		c21.4,0.3,41.7,5.5,60.6,15.4l2.5,1.3v2.8c0,21.5,0,43,0,64.4c0,36.5-31.1,66.7-61,83L100,200L97.7,198.8z"/>
	<path class="st1" d="M41.5,77.3V51.3c18.5-9.7,38-14.5,58.5-14.9c20.5,0.3,40.1,5.2,58.6,14.9v25.9C139,66.4,119.5,61,100,61
		C80.5,61,60.9,66.4,41.5,77.3z"/>
	<path class="st2" d="M138.8,72.3c6.5,2.5,13.1,5.6,19.7,9.4v34.1c0,16.9-7.5,33.4-19.7,47.9V72.3z"/>
	<path class="st1" d="M114.2,65.9c6.9,0.9,13.8,2.6,20.7,5V168c-6.1,6.5-13,12.5-20.7,17.8V65.9z"/>
	<path class="st2" d="M61.2,163.7c-12.2-14.5-19.7-31-19.7-47.9V81.7c6.6-3.8,13.1-6.9,19.7-9.4V163.7z"/>
	<path class="st1" d="M85.8,185.9c-7.6-5.4-14.6-11.4-20.7-17.8V70.9c6.9-2.4,13.8-4,20.7-5V185.9z"/>
	<path class="st2" d="M100,194.7c-3.5-1.9-7-4-10.3-6.2V65.4c3.5-0.3,6.9-0.5,10.3-0.5c3.5,0,6.9,0.2,10.4,0.5v123.1
		C107,190.7,103.6,192.8,100,194.7z"/>
	<path class="st0" d="M144,76.7l-15,10.4c-2.1-3.7-5.2-6.6-9.4-8c-7.7-2.4-14.7,2-19.6,7.6c-4.9-5.6-11.9-10-19.5-7.6
		c-4.3,1.3-7.4,4.3-9.4,8L56,76.7c0,12.6,0,25.1,0,37.7c0,7.7,2.2,14.4,7.5,20c5.6,5.9,20.1,12.6,30,17.6c2,1.3,4.2,2.4,6.5,3.3
		c2.3-0.9,4.5-2,6.5-3.3c9.9-5,24.4-11.7,30-17.6c5.3-5.6,7.5-12.3,7.5-20C144,101.8,144,89.3,144,76.7z"/>
	<path class="st2" d="M51,66.3l2.9-1.2l-1.7-4l3.9-1.8l-1-2.4l-4,1.5l-0.3-0.7c-0.2-0.4-0.4-0.8,0.4-1.1l4-1.7l-1-2.4
		c-1.8,0.5-5,1.8-5,1.8C48,54.8,46.8,56,47.6,58L51,66.3z M57.3,57.4c1.3,3.7,3,5.3,5.8,4.3c2.3-0.7,3-1.2,3.9-1.9l-0.8-2.3
		c0,0-1.4,0.7-3,1.2c-1.5,0.5-2,0.1-2.8-2.4c-1.1-3.1-0.5-3.2,0.7-3.7c1.5-0.6,3.2-0.9,3.2-0.9l-0.8-2.3c-1.5,0-2,0-4.2,0.8
		C56.1,51.5,56,53.9,57.3,57.4z M71.9,58.9l3-0.7L74,54.1c0.1,0,1.5,0,2.2-0.1c1.5-0.2,3.5-1,2.7-4.6c-0.7-3.3-2.8-3.3-4.3-3
		l-5.1,1.1L71.9,58.9z M73.6,51.8L73,49.4l1.7-0.4c0.6-0.1,0.9,0.2,1.1,1c0.2,0.8,0.1,1.3-0.5,1.4L73.6,51.8z M81.7,56.8l3.1-0.4
		l-0.5-4.3l1,0.1l2,3.9l3.5-0.4l-2.5-4.1c0.8-0.4,1.6-0.9,1.3-3.7c-0.3-2.9-1.9-3.5-4-3.3l-5.2,0.6L81.7,56.8z M84,49.7l-0.2-2.4
		l1.7-0.2c0.7-0.1,0.9,0.3,1,1c0.1,0.9,0.1,1.3-0.7,1.3L84,49.7z M91.6,55.7l3.1-0.2L94,43.8L91,44L91.6,55.7z M95.6,47.8
		c0,0.8,0.2,3.4,3.3,3.4l1.5,0c0.7,0,0.9,0.2,0.9,0.7v0.3c0,0.4-0.2,0.7-0.9,0.7c-1.5,0-3.5,0-4.1-0.1l0,2.4c1.6,0.5,2,0.5,5,0.5
		c1.6,0,3.3-0.7,3.2-3.7v-0.5c0-1.3-0.6-3.4-3-3.4l-1.5,0c-0.9,0-1-0.2-1-0.8v-0.2c0-0.7,0.3-0.7,1.2-0.7c1.1,0,2.8,0,3.8,0.1l0-2.4
		c-1.2-0.4-2.6-0.7-5-0.4c-1.8,0.1-3.2,1.1-3.1,3.2V47.8z M105.5,55.5l3.1,0.2l0.3-4.3l2.7,0.2l-0.3,4.2l3.1,0.3l1-11.7l-3.1-0.2
		l-0.4,4.6l-2.7-0.2l0.4-4.7l-3.1-0.2L105.5,55.5z M116.8,47.6l2.9,0.5l-1.6,8.8l3.1,0.6l1.6-8.8l3,0.6l0.5-2.8l-9-1.6L116.8,47.6z
		 M125.2,58.2l3,0.8l2.8-11.4l-3-0.8L125.2,58.2z M129.5,59.2l3,0.9l1.7-5.6l1.5,6.6l3,0.9l3.5-11.2l-3-0.9l-1.8,5.7L136,49l-3-1
		L129.5,59.2z M139.6,62.3l3,1.2l1.4-1.6l2.9,1.2l-0.1,2.2l2.9,1.2l1.3-12.2l-3.4-1.4L139.6,62.3z M145.6,59.8l2.1-2.6l-0.4,3.3
		L145.6,59.8z"/>
	<path class="st0" d="M83.2,0l3.2,10h10.5l-8.5,6.1l3.3,10l-8.5-6.2l-8.5,6.2l3.3-10L69.5,10H80L83.2,0z M116.8,0l3.2,10h10.5
		l-8.5,6.1l3.3,10l-8.5-6.2l-8.5,6.2l3.3-10l-8.5-6.1h10.5L116.8,0z"/>
	<path class="st3" d="M59.7,83.9l9.6,6.7c-1.4,3.7-2,7.6-2,11.3c0,14.7,5,29.3,14.2,40c-11-5.7-21.8-11.1-21.8-27.4V83.9z
		 M98.3,90.6c0,20.1,0,40.2,0,60.2c-17.2-7.6-27.1-31.1-27.1-49C71.2,84,85.4,74.3,98.3,90.6z M101.7,90.6c0,20.1,0,40.2,0,60.2
		c17.2-7.6,27.1-31.1,27.1-49C128.8,84,114.5,74.3,101.7,90.6z M140.3,83.9l-9.6,6.7c1.4,3.7,2,7.6,2,11.3c0,14.7-4.9,29.3-14.1,40
		c11-5.7,21.8-11.1,21.8-27.4V83.9z"/>
	<g>
		<path class="st1" d="M111.3,173.5c0.7-0.5,1.4-1.1,2-1.7c0.6-0.5,1.1-1,1.6-1.5c0.4-0.4,0.9-1,1.2-1.5c0.2-0.3,0.2-0.7,0.2-1
			c0-0.2,0-0.4-0.1-0.5c-0.2-0.2-0.5-0.2-0.7-0.2c-0.2,0-0.4,0-0.6,0.1c-0.2,0.1-0.5,0.2-0.7,0.2c-0.2,0.1-0.4,0.2-0.6,0.3
			c-0.1,0.1-0.3,0.2-0.4,0.3l-0.3,0.2h-1.7v-4.7l0.7-0.3c0.6-0.3,1.3-0.4,1.9-0.6c0.8-0.2,1.7-0.3,2.5-0.3c1.5,0,3.1,0.3,4.2,1.3
			c1.1,1,1.6,2.3,1.6,3.8c0,0.9-0.2,1.9-0.7,2.8c-0.5,1-1.2,1.9-2,2.7c-0.1,0.1-0.2,0.2-0.3,0.2h3.5v4.8h-23v-3.8l0.4-0.3
			c0.7-0.6,1.4-1.2,2.1-1.8c0.5-0.5,1.1-1,1.6-1.5c0.4-0.4,0.9-1,1.2-1.5c0.2-0.3,0.3-0.7,0.3-1c0-0.2,0-0.4-0.2-0.5
			c-0.2-0.2-0.5-0.2-0.7-0.2c-0.2,0-0.4,0-0.6,0.1c-0.2,0.1-0.5,0.2-0.7,0.2c-0.2,0.1-0.4,0.2-0.6,0.3c-0.2,0.1-0.3,0.2-0.4,0.3
			l-0.3,0.2h-1.7v-4.7l0.7-0.3c0.6-0.3,1.3-0.4,2-0.6c0.8-0.2,1.6-0.3,2.5-0.3c1.5,0,3,0.3,4.2,1.3c1.1,1,1.5,2.3,1.5,3.8
			c0,0.9-0.2,1.9-0.7,2.8c-0.4,1-1.2,1.9-2,2.6c-0.1,0.1-0.2,0.2-0.2,0.3h3.5V173.5z M90.2,172.9c-0.2-0.1-0.5-0.2-0.7-0.4h0
			c-0.6-0.5-1.1-1.1-1.4-1.7c-0.4-0.8-0.5-1.7-0.5-2.6c0-0.8,0.1-1.5,0.4-2.3c0.2-0.7,0.7-1.3,1.2-1.9s1.2-1,1.9-1.3
			c0.8-0.3,1.6-0.4,2.4-0.4c0.8,0,1.6,0.1,2.4,0.4c0.7,0.3,1.4,0.7,1.9,1.3c0.7,0.7,1.1,1.5,1.4,2.4c0.3,1,0.4,2.1,0.4,3.2
			c0,1.1-0.1,2.3-0.4,3.3c-0.3,1-0.7,2-1.4,2.8c-0.7,0.8-1.5,1.4-2.5,1.9c-1.1,0.5-2.3,0.6-3.5,0.6c-0.4,0-0.9,0-1.4-0.1
			c-0.3,0-0.7-0.1-1.1-0.2l-0.9-0.2v-4.6H90.2z M80.2,173.2v-4.6h-2.7v-4.4h1.2c0.3,0,0.7,0,1-0.1c0.2,0,0.4,0,0.6-0.1
			c0.1,0,0.1-0.1,0.2-0.2c0-0.1,0-0.2,0-0.3l0.1-1.1h5v10.8h2.7v4.6H77.5v-4.6H80.2z"/>
		<path class="st0" d="M87.1,176.6h-8.5v-2.3h2.7v-6.9h-2.7v-2.1c0.4,0,0.8,0,1.2-0.1c0.4,0,0.7-0.1,0.9-0.2
			c0.2-0.1,0.5-0.3,0.6-0.6c0.2-0.2,0.2-0.5,0.3-0.9h2.8v10.7h2.6V176.6z M98.6,169.4c0,1.1-0.1,2.1-0.4,3c-0.2,0.9-0.7,1.7-1.2,2.4
			c-0.6,0.7-1.3,1.2-2.1,1.5c-0.8,0.4-1.8,0.5-3,0.5c-0.4,0-0.8,0-1.3-0.1c-0.4,0-0.7-0.1-0.9-0.1v-2.6h0.2c0.2,0.1,0.4,0.2,0.7,0.2
			c0.3,0.1,0.7,0.2,1.2,0.2c0.4,0,0.8-0.1,1.2-0.2c0.4-0.1,0.7-0.3,1-0.5c0.3-0.2,0.6-0.6,0.7-0.9c0.2-0.4,0.4-0.9,0.4-1.5
			c-0.4,0.3-0.9,0.5-1.3,0.7c-0.4,0.2-0.9,0.2-1.5,0.2c-0.4,0-0.9-0.1-1.3-0.2c-0.4-0.1-0.8-0.3-1.1-0.5c-0.4-0.4-0.8-0.8-1.1-1.4
			c-0.2-0.5-0.4-1.3-0.4-2.1c0-0.7,0.1-1.3,0.3-1.9c0.2-0.6,0.6-1.1,1-1.5c0.4-0.4,0.9-0.7,1.5-1c0.6-0.2,1.3-0.4,2-0.4
			s1.4,0.1,2,0.3c0.6,0.2,1.1,0.5,1.5,1c0.5,0.5,0.9,1.1,1.1,1.9C98.4,167.4,98.6,168.3,98.6,169.4z M95.3,168.9
			c0-0.7,0-1.3-0.2-1.7c-0.1-0.5-0.3-0.8-0.5-1.1c-0.2-0.2-0.3-0.3-0.5-0.4c-0.2-0.1-0.4-0.1-0.6-0.1s-0.4,0-0.6,0.1
			c-0.2,0.1-0.4,0.2-0.5,0.4c-0.1,0.2-0.2,0.4-0.4,0.8s-0.2,0.7-0.2,1.1s0,0.8,0.2,1c0.1,0.3,0.2,0.5,0.4,0.7
			c0.2,0.2,0.4,0.3,0.6,0.3c0.2,0.1,0.5,0.1,0.8,0.1c0.2,0,0.5,0,0.8-0.1c0.2,0,0.4-0.1,0.6-0.2c0,0,0-0.2,0-0.2
			C95.3,169.4,95.3,169.2,95.3,168.9z M110.1,176.6h-9.4v-2.1c0.8-0.7,1.5-1.3,2.2-1.8c0.6-0.6,1.2-1.1,1.7-1.6
			c0.6-0.7,1.1-1.3,1.3-1.7c0.3-0.5,0.4-1,0.4-1.5c0-0.6-0.2-1.1-0.6-1.4c-0.3-0.3-0.8-0.4-1.5-0.4c-0.3,0-0.7,0-0.9,0.1
			c-0.3,0.1-0.6,0.2-0.9,0.3c-0.3,0.1-0.6,0.3-0.8,0.4c-0.2,0.1-0.4,0.2-0.4,0.3H101v-2.8c0.4-0.2,0.9-0.4,1.7-0.5
			c0.8-0.2,1.5-0.3,2.2-0.3c1.5,0,2.7,0.4,3.5,1c0.8,0.7,1.2,1.7,1.2,2.9c0,0.8-0.2,1.5-0.5,2.2c-0.4,0.7-1,1.5-1.8,2.4
			c-0.5,0.5-1,1-1.5,1.4c-0.5,0.4-0.9,0.7-1.1,0.9h5.4V176.6z M121.4,176.6h-9.4v-2.1c0.8-0.7,1.5-1.3,2.2-1.8s1.2-1.1,1.7-1.6
			c0.7-0.7,1.1-1.3,1.4-1.7c0.2-0.5,0.4-1,0.4-1.5c0-0.6-0.2-1.1-0.5-1.4c-0.4-0.3-0.9-0.4-1.5-0.4c-0.3,0-0.6,0-0.9,0.1
			c-0.3,0.1-0.6,0.2-0.9,0.3c-0.3,0.1-0.5,0.3-0.7,0.4c-0.2,0.1-0.4,0.2-0.5,0.3h-0.2v-2.8c0.4-0.2,0.9-0.4,1.7-0.5
			c0.8-0.2,1.5-0.3,2.2-0.3c1.5,0,2.7,0.4,3.5,1c0.8,0.7,1.2,1.7,1.2,2.9c0,0.8-0.2,1.5-0.5,2.2c-0.4,0.7-0.9,1.5-1.7,2.4
			c-0.5,0.5-1.1,1-1.5,1.4c-0.5,0.4-0.8,0.7-1.1,0.9h5.4V176.6z"/>
	</g>
</g>
</svg>
