<?xml version="1.0" encoding="utf-8"?>
<!-- Generator: Adobe Illustrator 21.1.0, SVG Export Plug-In . SVG Version: 6.00 Build 0)  -->
<svg version="1.1" id="Layer_1" xmlns="http://www.w3.org/2000/svg" xmlns:xlink="http://www.w3.org/1999/xlink" x="0px" y="0px"
	 viewBox="0 0 200 200" style="enable-background:new 0 0 200 200;" xml:space="preserve">
<style type="text/css">
	.st0{fill:#FFFFFF;}
	.st1{fill:#D1A76A;}
	.st2{fill:#CE000C;}
</style>
<g>
	<path class="st0" d="M166,41.8H34l0.1,50.2c0.7,20.8,6.7,39.8,17.8,57.3c11,17.2,27,32.8,48.1,46.8c21.1-14,37.2-29.6,48.1-46.8
		c11.1-17.4,17-36.5,17.8-57.3L166,41.8z"/>
	<path class="st0" d="M37.9,47.3l0-1.6h1.6l120.9,0h1.6l0,1.6c-0.1,31.3-0.5,46.1-0.5,46.1c-0.7,19.3-6.2,37.1-16.3,53.5
		c-10.2,16.4-25.1,31.2-44.3,44.3l-0.9,0.6l-0.9-0.6c-19.3-13.1-34.2-27.9-44.3-44.3c-10.1-16.3-15.7-34.2-16.3-53.5
		C38.4,93.4,38,78.6,37.9,47.3z"/>
	<path class="st1" d="M99.1,199.4c-22-14.4-38.6-30.5-50-48.4C37.6,133.1,31.5,113.4,30.8,92V92l-0.1-51.9l0-1.7l1.7,0h135.3l1.7,0
		l0,1.7L169.2,92V92c-0.8,21.4-6.9,41-18.3,58.9c-11.4,17.9-28.1,34-50,48.4L100,200L99.1,199.4L99.1,199.4z M51.9,149.2
		c11,17.2,27,32.8,48.1,46.8c21.1-14,37.2-29.6,48.1-46.8c11.1-17.4,17-36.5,17.8-57.3h0l0.1-50.2H34l0.1,50.2l0,0
		C34.9,112.7,40.8,131.8,51.9,149.2z"/>
	<polygon class="st1" points="81.3,0 85.4,12.6 98.6,12.6 87.9,20.3 92,32.9 81.3,25.1 70.7,32.9 74.8,20.3 64.1,12.6 77.3,12.6 	
		"/>
	<polygon class="st1" points="118.8,0 122.8,12.6 136,12.6 125.3,20.3 129.4,32.9 118.8,25.1 108.1,32.9 112.2,20.3 101.5,12.6 
		114.7,12.6 	"/>
	<path class="st2" d="M60.8,76.3v2h-3.3v-2c-2.7-0.1-4.6-0.8-5.7-2c-1.1-1.3-1.7-2.8-1.7-4.7c0-2,0.6-3.6,1.7-4.8
		c1.2-1.2,3-1.9,5.6-2v-1.7h3.3v1.7c2.7,0.1,4.6,0.8,5.7,2c1.1,1.2,1.7,2.8,1.7,4.7c0,1.9-0.6,3.5-1.7,4.7
		C65.4,75.5,63.5,76.2,60.8,76.3L60.8,76.3L60.8,76.3z M60.8,73.3c0.9,0,1.7-0.2,2.3-0.5c0.6-0.3,1.1-0.7,1.4-1.2
		c0.3-0.5,0.4-1.3,0.4-2.3c0-2.5-1.4-3.7-4.1-3.7V73.3L60.8,73.3L60.8,73.3z M57.5,73.3v-7.7c-1.4,0-2.5,0.3-3.1,1
		c-0.6,0.7-1,1.6-1,3C53.4,72.1,54.8,73.3,57.5,73.3L57.5,73.3L57.5,73.3z M71.4,78.3V61h3.4v7.6l6.9-7.6h4.6l-7.4,7.8l7.8,9.4h-4.4
		l-5.7-7l-1.7,1.8v5.2L71.4,78.3L71.4,78.3L71.4,78.3L71.4,78.3z"/>
	<polygon class="st2" points="100,54.9 110.4,88.1 144.2,88 116.8,108.4 127.3,141.5 100,121 72.7,141.5 83.2,108.4 55.8,88 
		89.6,88.1 	"/>
	<path class="st2" d="M100.9,191.2c19.3-13.1,34.2-27.9,44.3-44.3c10.1-16.3,15.7-34.2,16.3-53.5c0,0,0.4-14.8,0.5-46.1l0-1.6h-1.6
		l-120.9,0h-1.6l0,1.6c0.1,31.3,0.5,46.1,0.5,46.1c0.7,19.3,6.2,37.1,16.3,53.5c10.2,16.4,25.1,31.2,44.3,44.3l0.9,0.6L100.9,191.2
		L100.9,191.2z M133.3,149.5l-33.5-24.5l-32.6,24.5l13-41l-30,22.7c-5.2-11.9-8.1-24.6-8.5-37.9c0-0.5-0.4-14.8-0.5-44.4l117.7,0v0
		l-47.5,36h42.2l-32.3,24.1L133.3,149.5z"/>
</g>
</svg>
