<?xml version="1.0" encoding="utf-8"?>
<!-- Generator: Adobe Illustrator 21.1.0, SVG Export Plug-In . SVG Version: 6.00 Build 0)  -->
<svg version="1.1" id="Layer_1" xmlns="http://www.w3.org/2000/svg" xmlns:xlink="http://www.w3.org/1999/xlink" x="0px" y="0px"
	 viewBox="0 0 200 200" style="enable-background:new 0 0 200 200;" xml:space="preserve">
<style type="text/css">
	.st0{fill-rule:evenodd;clip-rule:evenodd;fill:#231F20;}
	.st1{fill-rule:evenodd;clip-rule:evenodd;fill:#FFCA05;}
	.st2{fill:#FFFFFF;}
	.st3{fill-rule:evenodd;clip-rule:evenodd;fill:#E6E7E8;}
	.st4{fill:#231F20;}
	.st5{fill-rule:evenodd;clip-rule:evenodd;fill:#FFFFFF;}
	.st6{clip-path:url(#SVGID_3_);}
	.st7{clip-path:url(#SVGID_7_);}
	.st8{clip-path:url(#SVGID_11_);}
	.st9{clip-path:url(#SVGID_15_);}
	.st10{clip-path:url(#SVGID_19_);}
	.st11{clip-path:url(#SVGID_23_);}
	.st12{clip-path:url(#SVGID_27_);}
	.st13{clip-path:url(#SVGID_31_);}
	.st14{clip-path:url(#SVGID_35_);}
	.st15{clip-path:url(#SVGID_39_);}
	.st16{clip-path:url(#SVGID_43_);}
	.st17{clip-path:url(#SVGID_47_);}
	.st18{clip-path:url(#SVGID_51_);}
	.st19{clip-path:url(#SVGID_55_);}
	.st20{clip-path:url(#SVGID_59_);}
	.st21{clip-path:url(#SVGID_63_);}
	.st22{clip-path:url(#SVGID_67_);}
	.st23{clip-path:url(#SVGID_71_);}
	.st24{clip-path:url(#SVGID_75_);}
	.st25{clip-path:url(#SVGID_79_);}
	.st26{clip-path:url(#SVGID_83_);}
	.st27{clip-path:url(#SVGID_87_);}
	.st28{clip-path:url(#SVGID_91_);}
	.st29{clip-path:url(#SVGID_95_);}
	.st30{clip-path:url(#SVGID_99_);}
	.st31{clip-path:url(#SVGID_103_);}
	.st32{clip-path:url(#SVGID_107_);}
	.st33{clip-path:url(#SVGID_111_);}
	.st34{clip-path:url(#SVGID_115_);}
	.st35{clip-path:url(#SVGID_119_);}
	.st36{clip-path:url(#SVGID_123_);}
	.st37{clip-path:url(#SVGID_127_);}
	.st38{clip-path:url(#SVGID_131_);}
	.st39{clip-path:url(#SVGID_135_);}
	.st40{clip-path:url(#SVGID_139_);}
	.st41{clip-path:url(#SVGID_143_);}
	.st42{clip-path:url(#SVGID_147_);}
	.st43{clip-path:url(#SVGID_151_);}
	.st44{clip-path:url(#SVGID_155_);}
	.st45{clip-path:url(#SVGID_159_);}
	.st46{clip-path:url(#SVGID_163_);}
	.st47{clip-path:url(#SVGID_167_);}
	.st48{clip-path:url(#SVGID_171_);}
	.st49{clip-path:url(#SVGID_175_);}
	.st50{clip-path:url(#SVGID_179_);}
	.st51{clip-path:url(#SVGID_183_);}
	.st52{clip-path:url(#SVGID_187_);}
	.st53{clip-path:url(#SVGID_191_);}
	.st54{clip-path:url(#SVGID_195_);}
	.st55{clip-path:url(#SVGID_199_);}
	.st56{clip-path:url(#SVGID_203_);}
	.st57{clip-path:url(#SVGID_207_);}
	.st58{clip-path:url(#SVGID_211_);}
	.st59{clip-path:url(#SVGID_215_);}
	.st60{clip-path:url(#SVGID_219_);}
	.st61{clip-path:url(#SVGID_223_);}
	.st62{clip-path:url(#SVGID_227_);}
	.st63{clip-path:url(#SVGID_231_);}
	.st64{clip-path:url(#SVGID_235_);}
	.st65{clip-path:url(#SVGID_239_);}
	.st66{clip-path:url(#SVGID_243_);}
	.st67{clip-path:url(#SVGID_247_);}
	.st68{clip-path:url(#SVGID_251_);}
	.st69{clip-path:url(#SVGID_255_);}
	.st70{clip-path:url(#SVGID_259_);}
	.st71{clip-path:url(#SVGID_263_);}
	.st72{clip-path:url(#SVGID_267_);}
	.st73{clip-path:url(#SVGID_271_);}
	.st74{clip-path:url(#SVGID_275_);}
	.st75{clip-path:url(#SVGID_279_);}
	.st76{clip-path:url(#SVGID_283_);}
	.st77{clip-path:url(#SVGID_287_);}
	.st78{clip-path:url(#SVGID_291_);}
</style>
<g>
	<path class="st0" d="M61.1,199.5c3.6-0.8,6.3-2.7,8.5-5.7c2-3.2,2.8-6.6,2-10.3l28.4-20.2l28.2,20.1c-0.2,1.5-0.1,2.9,0.2,4.4
		c1.5,6.4,6.6,10.6,13.2,10.8l1.4-0.1c6.3-0.8,10.8-5.1,11.9-11.4c0.4-3.3-0.1-6.2-1.8-9c-2.5-3.8-6.1-6.1-10.7-6.5l-9.5-33.1
		l26.7-21.2c1.4,0.8,3,1.3,4.6,1.5c6.7,0.8,12.6-3,14.7-9.3c1-3.4,0.7-6.6-0.7-9.8c-1.7-3.3-4.1-5.5-7.5-6.8
		c-3.7-1.2-7.2-1.1-10.7,0.6c-2.6,1.4-4.7,3.4-6,6.1l-33.6-0.9l-11.1-32.4c1.3-1.3,2.3-2.7,3-4.4c2.2-5.5,0.9-11.2-3.3-15.3l-1-0.8
		c-5-3.6-11.1-3.6-16.1,0l-1,0.8c-5.5,5.2-5.9,13.2-1,18.9c0.2,0.3,0.5,0.5,0.8,0.8L79.6,98.8L46,99.7c-1-1.9-2.3-3.5-4-4.8
		c-5-3.6-11.1-3.6-16.2,0l-1,0.8c-4.6,4.4-5.7,10.7-2.8,16.4c1.8,3.2,4.4,5.3,7.8,6.4c3.6,1,7.2,0.8,10.4-1l26.7,21.2l-9.8,34.3
		c-4.3,0.3-8,2.8-10.3,6.4c-1.7,2.9-2.2,5.7-1.8,9l0.3,1.3c1.7,6.1,6.7,9.9,13,10.1C59.4,199.8,60.2,199.7,61.1,199.5L61.1,199.5z"
		/>
	<path class="st0" d="M96.5,64.5l-13.4,39.1l-40.7,1.1c-0.5-4.3-4.1-7.6-8.5-7.6c-4.7,0-8.6,3.8-8.6,8.6c0,4.7,3.8,8.6,8.6,8.6
		c2.6,0,4.9-1.2,6.5-3l32.3,25.6l-11.9,41.3c-0.8-0.2-1.6-0.4-2.4-0.4c-4.7,0-8.6,3.8-8.6,8.6c0,4.7,3.8,8.6,8.6,8.6
		c4.7,0,8.6-3.8,8.6-8.6c0-1.7-0.5-3.2-1.3-4.6l34.3-24.5l33.9,24.1c-0.5,1.1-0.8,2.4-0.8,3.7c0,4.7,3.8,8.6,8.6,8.6
		c4.7,0,8.6-3.8,8.6-8.6c0-4.7-3.8-8.6-8.6-8.6c-1,0-1.9,0.2-2.8,0.5l-11.5-40.2l32.3-25.6c1.6,1.8,3.9,3,6.5,3
		c4.7,0,8.6-3.8,8.6-8.6c0-4.7-3.8-8.6-8.6-8.6c-4.4,0-8,3.4-8.5,7.6l-40.7-1.1l-13.4-39.1c3-1.3,5.1-4.3,5.1-7.8
		c0-4.7-3.8-8.6-8.6-8.6c-4.7,0-8.6,3.8-8.6,8.6C91.4,60.2,93.5,63.2,96.5,64.5L96.5,64.5z"/>
	<path class="st1" d="M96.5,64.5l-13.4,39.1l-40.7,1.1c-0.5-4.3-4.1-7.6-8.5-7.6c-4.7,0-8.6,3.8-8.6,8.6c0,4.7,3.8,8.6,8.6,8.6
		c2.6,0,4.9-1.2,6.5-3l32.3,25.6l-11.9,41.3c-0.8-0.2-1.6-0.4-2.4-0.4c-4.7,0-8.6,3.8-8.6,8.6c0,4.7,3.8,8.6,8.6,8.6
		c4.7,0,8.6-3.8,8.6-8.6c0-1.7-0.5-3.2-1.3-4.6l34.3-24.5l33.9,24.1c-0.5,1.1-0.8,2.4-0.8,3.7c0,4.7,3.8,8.6,8.6,8.6
		c4.7,0,8.6-3.8,8.6-8.6c0-4.7-3.8-8.6-8.6-8.6c-1,0-1.9,0.2-2.8,0.5l-11.5-40.2l32.3-25.6c1.6,1.8,3.9,3,6.5,3
		c4.7,0,8.6-3.8,8.6-8.6c0-4.7-3.8-8.6-8.6-8.6c-4.4,0-8,3.4-8.5,7.6l-40.7-1.1l-13.4-39.1c3-1.3,5.1-4.3,5.1-7.8
		c0-4.7-3.8-8.6-8.6-8.6c-4.7,0-8.6,3.8-8.6,8.6C91.4,60.2,93.5,63.2,96.5,64.5L96.5,64.5z"/>
	<path class="st2" d="M98.5,63.6L98,65l-13.4,39.1l-0.4,1.1l-1.1,0l-40.7,1.1l-1.5,0l-0.2-1.5c-0.2-1.7-1-3.3-2.3-4.4
		c-1.2-1.1-2.8-1.8-4.6-1.8c-3.8,0-6.9,3.1-6.9,6.9c0,1.9,0.8,3.6,2,4.9c1.3,1.3,3,2,4.9,2c1,0,2-0.2,2.9-0.6c0.9-0.4,1.7-1,2.4-1.8
		l1-1.2l1.2,1l32.3,25.6l0.9,0.7l-0.3,1l-11.9,41.3l-0.5,1.6l-1.6-0.5c-0.3-0.1-0.6-0.2-1-0.2c-0.3,0-0.7-0.1-1-0.1
		c-1.9,0-3.6,0.8-4.9,2c-1.3,1.3-2,3-2,4.9s0.8,3.6,2,4.9c1.3,1.3,3,2,4.9,2c1.9,0,3.6-0.8,4.9-2c1.3-1.3,2-3,2-4.9
		c0-0.7-0.1-1.3-0.3-1.9c-0.2-0.6-0.5-1.2-0.8-1.8l-0.8-1.3l1.3-0.9L99.1,156l0.9-0.7l0.9,0.7l33.9,24.1l1.1,0.8l-0.6,1.2
		c-0.2,0.5-0.4,1-0.5,1.5c-0.1,0.5-0.2,1-0.2,1.5c0,1.9,0.8,3.6,2,4.9c1.3,1.3,3,2,4.9,2s3.6-0.8,4.9-2c1.3-1.3,2-3,2-4.9
		c0-1.9-0.8-3.6-2-4.9c-1.3-1.3-3-2-4.9-2c-0.4,0-0.8,0-1.1,0.1c-0.4,0.1-0.7,0.2-1.1,0.3l-1.6,0.6l-0.5-1.7l-11.5-40.2l-0.3-1
		l0.9-0.7l32.3-25.6l1.2-1l1,1.2c0.7,0.8,1.5,1.4,2.4,1.8c0.9,0.4,1.8,0.6,2.9,0.6c1.9,0,3.6-0.8,4.9-2c1.3-1.3,2-3,2-4.9
		c0-1.9-0.8-3.6-2-4.9c-1.3-1.3-3-2-4.9-2c-1.8,0-3.4,0.7-4.6,1.8c-1.2,1.1-2.1,2.7-2.3,4.4l-0.2,1.5l-1.5,0l-40.7-1.1l-1.1,0
		l-0.4-1.1L102,65l-0.5-1.4l1.4-0.6c1.2-0.6,2.3-1.5,3-2.6c0.7-1.1,1.1-2.4,1.1-3.7c0-1.9-0.8-3.6-2-4.9c-1.3-1.3-3-2-4.9-2
		c-3.8,0-6.9,3.1-6.9,6.9c0,1.4,0.4,2.7,1.1,3.7c0.7,1.1,1.8,2,3,2.6L98.5,63.6L98.5,63.6z M94.5,65.3c-1.2-0.8-2.3-1.8-3.1-3.1
		c-1-1.6-1.6-3.5-1.6-5.5c0-5.6,4.6-10.2,10.2-10.2c2.8,0,5.4,1.1,7.2,3c1.8,1.8,3,4.4,3,7.2c0,2-0.6,3.9-1.6,5.5
		c-0.8,1.2-1.8,2.3-3.1,3.1L118,102l38.1,1c0.5-2,1.6-3.7,3.1-5c1.8-1.6,4.2-2.6,6.8-2.6c2.8,0,5.4,1.1,7.2,3c1.8,1.8,3,4.4,3,7.2
		s-1.1,5.4-3,7.2c-1.8,1.8-4.4,3-7.2,3c-1.5,0-2.9-0.3-4.2-0.9c-0.9-0.4-1.6-0.9-2.4-1.5l-30.3,24l10.8,37.6
		c0.5-0.1,1.1-0.1,1.6-0.1c2.8,0,5.4,1.1,7.2,3c1.8,1.8,3,4.4,3,7.2c0,2.8-1.1,5.4-3,7.2c-1.8,1.8-4.4,3-7.2,3c-2.8,0-5.4-1.1-7.2-3
		c-1.8-1.8-3-4.4-3-7.2c0-0.8,0.1-1.5,0.3-2.3c0.1-0.3,0.1-0.6,0.2-0.9L100,159.3l-32.2,23c0.2,0.4,0.3,0.8,0.4,1.2
		c0.3,0.9,0.4,1.9,0.4,2.8c0,2.8-1.1,5.4-3,7.2c-1.8,1.8-4.4,3-7.2,3c-2.8,0-5.4-1.1-7.2-3c-1.8-1.8-3-4.4-3-7.2
		c0-2.8,1.1-5.4,3-7.2c1.8-1.8,4.4-3,7.2-3c0.4,0,0.9,0,1.3,0.1l11.1-38.8l-30.3-24c-0.7,0.6-1.5,1.1-2.4,1.5
		c-1.3,0.6-2.7,0.9-4.2,0.9c-2.8,0-5.4-1.1-7.2-3c-1.8-1.8-3-4.4-3-7.2c0-5.6,4.6-10.2,10.2-10.2c2.6,0,5,1,6.8,2.6
		c1.5,1.3,2.5,3,3.1,5l38.1-1L94.5,65.3L94.5,65.3z"/>
	<path class="st3" d="M101.2,110.6c16.6,0,30,13.6,30,30.4c0,16.8-13.4,30.4-30,30.4c-16.6,0-30-13.6-30-30.4
		C71.3,124.2,84.7,110.6,101.2,110.6L101.2,110.6z"/>
	<path class="st4" d="M101.2,110.4c8.3,0,15.9,3.4,21.3,9c5.5,5.5,8.9,13.2,8.9,21.6c0,8.4-3.4,16.1-8.9,21.6c-5.5,5.5-13,9-21.3,9
		c-8.3,0-15.9-3.4-21.3-9C74.4,157,71,149.4,71,141c0-8.4,3.4-16.1,8.9-21.6C85.4,113.8,92.9,110.4,101.2,110.4L101.2,110.4z
		 M101.2,110.8c-8.2,0-15.6,3.4-21,8.8c-5.4,5.5-8.7,13-8.7,21.3c0,8.3,3.3,15.8,8.7,21.3c5.4,5.5,12.8,8.8,21,8.8
		c8.2,0,15.6-3.4,21-8.8c5.4-5.5,8.7-13,8.7-21.3c0-8.3-3.3-15.8-8.7-21.3C116.9,114.2,109.4,110.8,101.2,110.8L101.2,110.8z"/>
	<polygon class="st0" points="100.7,142.6 102.6,148.7 108.9,148.9 103.9,152.7 105.6,159 100.6,155.2 95.3,158.8 97.2,152.7 
		92.2,148.7 98.5,148.7 100.7,142.6 	"/>
	<path class="st0" d="M79,150.5l4.2,4.6l3.8-1.2l-0.9,4.6l5.3,4.3c-1.9-0.6-4-0.6-5.8-1.7l0.3,3.2l-4-4.7l-4.2-2.4l2.1-0.7L79,150.5
		L79,150.5z"/>
	<path class="st0" d="M91.2,166.2c6.3,4.7,13.1,4.8,20.5,0.2c-2.1-1.2-3.4-3-3.9-5.6c-4.5,1-9.1,0.9-13.6-0.2
		C94,162.5,93,164.3,91.2,166.2L91.2,166.2z"/>
	<polygon class="st0" points="88.3,151.3 92.4,144.2 77.3,147.2 88.3,151.3 	"/>
	<polygon class="st0" points="113.4,151.7 109.3,144.6 124.4,147.6 113.4,151.7 	"/>
	<path class="st0" d="M91.5,115.8c6.3-4.7,11.7-4.5,19.1,0.1c-1.8,1.7-2.3,3.5-3,5.5c-4.5-1-9.1-0.9-13.6,0.2
		C93.8,119.7,93.3,117.6,91.5,115.8L91.5,115.8z"/>
	<path class="st0" d="M83.5,118.4l1,2.1l5.5-2.2l-4.5,4.6l4.9,11.6c-1.6-1.3-3.5-2.1-4.8-3.8l-1,3.1l-3.9-5.9l-2-4.5l2.1-0.2
		L83.5,118.4L83.5,118.4z"/>
	<path class="st0" d="M118.3,118.3l-1,2.1l-5.5-2.2l4.5,4.6l-4.9,11.6c1.6-1.3,3.5-2.1,4.8-3.8l1,3.1l3.9-5.9l2-4.5l-2.1-0.2
		L118.3,118.3L118.3,118.3z"/>
	<path class="st0" d="M56.8,127.4c0.4-0.5,0.8-1,1.3-1.3c0.5-0.3,1.1-0.4,1.7-0.6c1.1-0.3,2.3-0.3,3.5,0l1.2,0.4l0.8,0.7l0.8-1.1
		l0.4,0h1v0.5l77.5-0.1l0,28.4c-30.3-10.9-60.1-9.9-89.4,0l-0.1-23.1C55.6,130.3,56,128.5,56.8,127.4L56.8,127.4z"/>
	<path class="st5" d="M66.9,134.2c-0.3,0-0.5,0-0.7,0.1c-0.2-1.5-0.6-3-1.1-4.2c-0.6-1.3-1.5-1.9-2.8-1.9c-0.6,0-1.1,0.2-1.5,0.7
		c-0.4,0.5-0.6,1.1-0.6,2c0,0.7,0.1,1.3,0.4,1.8c0.3,0.5,0.6,0.9,1.1,1.2c0.4,0.3,1,0.6,1.6,0.9c0.6,0.3,1.1,0.6,1.4,0.8
		c1.1,0.7,1.9,1.7,2.4,2.9c0.5,1.2,0.8,2.7,0.8,4.4c0,1.9-0.3,3.5-0.9,4.8c-0.6,1.3-1.3,2.3-2.1,3c-0.8,0.7-1.7,1.2-2.5,1.4
		c-0.9,0.2-1.9,0.2-2.9-0.1c-0.4-0.1-0.7-0.2-0.9-0.3c-0.2-0.1-0.4-0.1-0.6,0c-0.3,0.1-0.5,0.3-0.6,0.6c-0.1,0.3-0.2,0.7-0.2,1.2
		c-0.3,0.1-0.5,0.2-0.8,0.2c0-1.7,0-3.3,0-5c0-1.7,0-3.3,0-5c0.3,0,0.5-0.1,0.8-0.2c0.2,1.4,0.5,2.7,1.1,3.8
		c0.5,1.1,1.2,1.8,1.9,2.3c0.7,0.5,1.4,0.6,2.1,0.5c0.5-0.1,1-0.5,1.4-1.2c0.4-0.7,0.6-1.5,0.6-2.7c0-0.7-0.1-1.3-0.3-1.7
		c-0.2-0.4-0.5-0.7-0.9-0.9c-0.3-0.2-1-0.5-2.2-1.1c-0.9-0.4-1.7-0.8-2.3-1.4c-0.7-0.6-1.2-1.4-1.7-2.5c-0.4-1.1-0.7-2.5-0.7-4.3
		c0-1.7,0.2-3.2,0.7-4.5c0.5-1.3,1.1-2.3,2-3c0.9-0.7,1.9-1,3-1c0.8,0,1.5,0.3,2.3,0.8c0.3,0.2,0.4,0.3,0.6,0.4
		c0.1,0.1,0.3,0.2,0.4,0.2c0.1,0.1,0.2,0.1,0.3,0.1c0.2,0,0.3-0.1,0.5-0.3c0.1-0.2,0.2-0.4,0.2-0.8c0-0.1,0-0.2,0-0.3
		c0.2,0,0.5,0,0.7,0c0,1.4,0,2.7,0,4.1C66.9,131.5,66.9,132.8,66.9,134.2L66.9,134.2z M75.3,136.1c1.2-0.1,2.4-0.2,3.6-0.3
		c0-1,0-1.9,0-2.9c0-1,0-1.9,0-2.9c0-0.9-0.1-1.5-0.2-2c-0.1-0.5-0.3-0.7-0.7-0.7c-0.1,0-0.2,0-0.3,0c0-0.3,0-0.7,0-1
		c2.3,0,4.6,0,6.9,0c0,0.3,0,0.6,0,0.9c-0.1,0-0.2,0-0.3,0c-0.3,0-0.6,0.2-0.7,0.7c-0.1,0.4-0.2,1.1-0.2,1.9c0,2.3,0,4.5,0,6.8
		c0,2.3,0,4.5,0,6.8c0,0.8,0.1,1.4,0.2,1.8c0.1,0.5,0.3,0.7,0.6,0.6c0.1,0,0.3,0,0.4,0c0,0.3,0,0.6,0,0.9c-2.3,0.3-4.6,0.7-6.9,1
		c0-0.3,0-0.7,0-1c0.1,0,0.2,0,0.3-0.1c0.3-0.1,0.6-0.3,0.7-0.8c0.1-0.5,0.2-1.1,0.2-2c0-1.1,0-2.1,0-3.2c0-1.1,0-2.1,0-3.2
		c-1.2,0.1-2.4,0.2-3.6,0.4c0,1.1,0,2.2,0,3.3c0,1.1,0,2.2,0,3.3c0,0.6,0,1.1,0.1,1.4c0,0.4,0.1,0.7,0.3,0.9
		c0.1,0.2,0.3,0.3,0.5,0.2c0.1,0,0.2,0,0.3-0.1c0,0.3,0,0.7,0,1c-2.3,0.4-4.6,0.9-6.9,1.4c0-0.4,0-0.7,0-1.1c0.1,0,0.2,0,0.3-0.1
		c0.3-0.1,0.6-0.4,0.7-0.9c0.1-0.5,0.2-1.2,0.2-2.1c0-2.5,0-5,0-7.5c0-2.5,0-5,0-7.5c0-0.9-0.1-1.6-0.2-2.1
		c-0.1-0.5-0.3-0.7-0.7-0.7c-0.1,0-0.2,0-0.3,0c0-0.4,0-0.7,0-1.1c2.3,0,4.6,0,6.9,0c0,0.3,0,0.7,0,1c-0.1,0-0.2,0-0.3,0
		c-0.3,0-0.6,0.2-0.7,0.7c-0.1,0.4-0.2,1.1-0.2,2.1c0,1,0,2,0,3C75.3,134.1,75.3,135.1,75.3,136.1L75.3,136.1z M85.9,126.4
		c3.5,0,7.1,0,10.6,0c0,0.9,0.1,1.8,0.1,2.7c0,0.9,0.1,1.8,0.1,2.7c-0.2,0-0.5,0-0.7,0c-0.1-1.3-0.6-2.3-1.3-2.8
		c-0.7-0.5-1.4-0.8-2.2-0.8c-0.3,0-0.6,0-0.9,0c0,1.2,0,2.3,0,3.5c0,1.2,0,2.3,0,3.5c0.5,0,0.8-0.2,1.1-0.4c0.3-0.3,0.5-0.7,0.6-1.1
		c0.1-0.5,0.2-1.1,0.2-1.8c0.2,0,0.5,0,0.7,0c0,1.4,0,2.8,0,4.2c0,1.4,0,2.8,0,4.2c-0.2,0-0.5,0-0.7,0c0-1.1-0.2-1.9-0.5-2.5
		c-0.3-0.6-0.8-0.8-1.5-0.8c0,1,0,1.9,0,2.9c0,1,0,1.9,0,2.9c0,0.8,0.1,1.3,0.3,1.5c0.2,0.2,0.4,0.3,0.8,0.3c0.6,0,1.2-0.2,1.7-0.6
		c0.6-0.3,1.1-0.8,1.5-1.4c0.4-0.6,0.7-1.3,0.9-2.2c0.3,0.1,0.5,0.2,0.8,0.3c-0.2,0.9-0.3,1.7-0.5,2.6c-0.1,0.9-0.3,1.7-0.4,2.6
		c-3.6,0.2-7.2,0.4-10.8,0.8c0-0.3,0-0.6,0-0.9c0.1,0,0.3,0,0.4,0c0.3,0,0.6-0.3,0.7-0.7c0.1-0.5,0.2-1.1,0.2-1.9c0-2.2,0-4.5,0-6.7
		c0-2.2,0-4.5,0-6.7c0-0.8,0-1.4-0.2-1.8c-0.1-0.4-0.3-0.7-0.7-0.7c-0.1,0-0.3,0-0.4,0C85.9,127,85.9,126.7,85.9,126.4L85.9,126.4z
		 M98.6,126.4c2.7,0,5.4,0,8.2,0c1.1,0,2,0.2,2.7,0.6c0.7,0.4,1.2,0.8,1.5,1.4c0.3,0.6,0.6,1.1,0.7,1.7c0.1,0.5,0.2,1.1,0.2,1.5
		c0,1.1-0.3,2.1-0.8,3c-0.5,0.9-1.3,1.5-2.3,1.7c0.5,1.3,1,2.6,1.5,3.9c0.5,1.3,1,2.6,1.6,3.9c0.3,0.8,0.7,1.2,1,1.3
		c0,0.3,0,0.6,0,0.9c-1.6-0.1-3.3-0.2-4.9-0.3c-0.6-1.5-1.2-3.1-1.8-4.6c-0.6-1.5-1.2-3-1.7-4.5c0,0-0.1,0-0.1,0c0,0.9,0,1.9,0,2.8
		c0,0.9,0,1.9,0,2.8c0,0.5,0,1,0.1,1.3c0,0.3,0.1,0.6,0.3,0.8c0.1,0.2,0.3,0.3,0.6,0.3c0.1,0,0.2,0,0.3,0c0,0.3,0,0.6,0,0.9
		c-2.3,0-4.6-0.1-6.9,0c0-0.3,0-0.6,0-0.9c0.1,0,0.2,0,0.3,0c0.3,0,0.6-0.2,0.7-0.6c0.1-0.4,0.2-1,0.2-1.8c0-2.1,0-4.3,0-6.4
		c0-2.1,0-4.3,0-6.4c0-0.8-0.1-1.4-0.2-1.8c-0.1-0.4-0.4-0.6-0.7-0.6c-0.1,0-0.2,0-0.3,0C98.6,127,98.6,126.7,98.6,126.4L98.6,126.4
		z M104.3,128.1c0,1.2,0,2.3,0,3.5c0,1.2,0,2.3,0,3.5c0.8,0,1.5-0.2,2.1-0.7c0.6-0.5,0.9-1.5,0.9-2.9
		C107.3,129.3,106.3,128.1,104.3,128.1L104.3,128.1z M113.3,146.4c0-0.3,0-0.6,0-0.9c0.1,0,0.2,0,0.3,0c0.4,0,0.6-0.1,0.7-0.5
		c0.1-0.4,0.1-1,0.1-1.9c0-2.2,0-4.4,0-6.7c0-2.2,0-4.4,0-6.7c0-0.8,0-1.4-0.1-1.9c-0.1-0.4-0.3-0.6-0.7-0.6c-0.1,0-0.2,0-0.3,0
		c0-0.3,0-0.6,0-0.9c2.3,0,4.6,0,6.9,0c0,0.3,0,0.6,0,1c-0.1,0-0.2,0-0.3,0c-0.3,0-0.5,0.1-0.6,0.3c-0.1,0.2-0.2,0.5-0.3,0.9
		c0,0.4,0,0.8,0,1.4c0,2.3,0,4.6,0,6.8c0,2.3,0,4.6,0,6.8c0,0.5,0,1,0,1.4c0,0.4,0.1,0.7,0.3,0.9c0.1,0.2,0.3,0.4,0.6,0.4
		c0.1,0,0.2,0,0.3,0c0,0.3,0,0.6,0,1C117.9,146.9,115.6,146.7,113.3,146.4L113.3,146.4z M121.5,126.4c3.6,0,7.2,0,10.8,0.1
		c0,1.1,0.1,2.1,0.1,3.2c0,1.1,0.1,2.1,0.1,3.2c-0.2,0-0.5,0-0.7-0.1c-0.2-2.8-1.5-4.2-3.8-4.3c-0.2,0-0.5,0-0.7,0
		c0,1.3,0,2.6,0,3.9c0,1.3,0,2.6,0,3.9c0.8,0.1,1.4-0.2,1.7-0.8c0.3-0.6,0.5-1.6,0.5-2.8c0.2,0,0.4,0,0.7,0c0,1.7,0,3.4,0,5
		c0,1.7,0,3.4,0,5c-0.2,0-0.4-0.1-0.7-0.1c0-1.4-0.2-2.4-0.5-3.2c-0.3-0.7-0.9-1.2-1.7-1.3c0,1.1,0,2.2,0,3.3c0,1.1,0,2.2,0,3.3
		c0,0.8,0,1.4,0.1,1.9c0.1,0.4,0.2,0.7,0.3,0.8c0.1,0.1,0.3,0.2,0.6,0.3c0.1,0,0.3,0.1,0.4,0.1c0,0.3,0,0.7,0,1
		c-2.4-0.5-4.8-1-7.1-1.4c0-0.3,0-0.6,0-1c0.1,0,0.2,0,0.3,0c0.3,0,0.6-0.1,0.7-0.5c0.1-0.4,0.2-1,0.2-2c0-2.3,0-4.7,0-7
		c0-2.3,0-4.7,0-7c0-0.8-0.1-1.5-0.2-2c-0.1-0.4-0.3-0.7-0.7-0.7c-0.1,0-0.2,0-0.3,0C121.5,127,121.5,126.7,121.5,126.4L121.5,126.4
		z M133.6,126.5c3.6,0,7.2,0.1,10.8,0.1c0,1.2,0.1,2.5,0.1,3.7c0,1.2,0.1,2.5,0.1,3.7c-0.2,0-0.5,0-0.7-0.1c-0.2-3.2-1.5-4.9-3.8-5
		c-0.2,0-0.5,0-0.7,0c0,1.5,0,3,0,4.4c0,1.5,0,3,0,4.4c0.8,0.1,1.4-0.2,1.7-0.8c0.3-0.7,0.5-1.8,0.5-3.2c0.2,0,0.4,0,0.7,0.1
		c0,1.9,0,3.9,0,5.8c0,1.9,0,3.9,0,5.8c-0.2-0.1-0.4-0.1-0.7-0.2c0-1.6-0.2-2.8-0.5-3.7c-0.3-0.9-0.9-1.4-1.7-1.5c0,1.3,0,2.5,0,3.8
		c0,1.2,0,2.5,0,3.7c0,0.9,0,1.7,0.1,2.1c0.1,0.5,0.2,0.8,0.3,1c0.1,0.2,0.3,0.3,0.6,0.4c0.1,0,0.3,0.1,0.4,0.1c0,0.4,0,0.8,0,1.2
		c-2.4-0.8-4.8-1.5-7.1-2.2c0-0.4,0-0.7,0-1.1c0.1,0,0.2,0,0.3,0.1c0.3,0.1,0.5-0.1,0.7-0.5c0.1-0.4,0.2-1.1,0.2-2.2
		c0-2.6,0-5.3,0-7.9s0-5.3,0-7.9c0-1-0.1-1.7-0.2-2.2c-0.1-0.5-0.3-0.8-0.7-0.8c-0.1,0-0.2,0-0.3,0
		C133.6,127.2,133.6,126.8,133.6,126.5L133.6,126.5z"/>
	<path class="st4" d="M67.1,134.4l-0.2,0c-0.2,0-0.3,0-0.4,0l0,0c-0.4,0-0.3,0-0.4,0l-0.2,0l0-0.2c-0.1-0.8-0.2-1.5-0.4-2.2
		c-0.2-0.7-0.4-1.4-0.7-2c-0.3-0.6-0.6-1.1-1.1-1.4c-0.4-0.3-0.9-0.4-1.5-0.4c-0.2,0-0.5,0.1-0.7,0.2c-0.2,0.1-0.4,0.3-0.6,0.5
		c-0.2,0.2-0.3,0.5-0.4,0.8c-0.1,0.3-0.2,0.7-0.2,1.1c0,0.3,0,0.7,0.1,1c0.1,0.3,0.2,0.5,0.3,0.8v0c0.1,0.2,0.3,0.4,0.4,0.6
		c0.2,0.2,0.4,0.4,0.6,0.5c0.2,0.1,0.4,0.3,0.7,0.4c0.3,0.1,0.5,0.3,0.9,0.5c0.3,0.2,0.6,0.3,0.8,0.4c0.2,0.1,0.4,0.2,0.6,0.3
		c0.6,0.4,1,0.8,1.5,1.3c0.4,0.5,0.8,1.1,1,1.7c0.3,0.6,0.5,1.3,0.6,2.1c0.1,0.8,0.2,1.6,0.2,2.5c0,1-0.1,1.8-0.2,2.7
		c-0.1,0.8-0.4,1.5-0.7,2.2c-0.3,0.7-0.6,1.3-1,1.8c-0.4,0.5-0.8,1-1.2,1.3c-0.4,0.4-0.9,0.7-1.3,0.9c-0.4,0.2-0.9,0.4-1.3,0.5
		c-0.5,0.1-1,0.2-1.5,0.2c-0.5,0-1-0.1-1.5-0.3c-0.2-0.1-0.4-0.1-0.5-0.2c-0.1,0-0.2-0.1-0.4-0.1c-0.1,0-0.2,0-0.3-0.1h0
		c-0.1,0-0.2,0-0.2,0c-0.1,0-0.2,0.1-0.3,0.2c-0.1,0.1-0.1,0.2-0.2,0.3c-0.1,0.2-0.1,0.3-0.1,0.5c0,0.2,0,0.4,0,0.6v0.1l-0.1,0
		c-0.1,0-0.1,0-0.2,0.1l0,0c-0.2,0.1-0.4,0.1-0.6,0.2l-0.3,0.1v-10.5l0.2,0c0.1,0,0.2,0,0.4-0.1c0.3-0.1,0.3-0.1,0.4-0.1l0.2,0
		l0,0.2c0.1,0.7,0.2,1.4,0.4,2v0c0.2,0.6,0.4,1.2,0.7,1.7c0.3,0.5,0.6,1,0.9,1.3c0.3,0.4,0.6,0.7,1,0.9c0.3,0.2,0.7,0.4,1,0.4
		c0.3,0.1,0.6,0.1,0.9,0c0.2-0.1,0.5-0.2,0.7-0.4c0.2-0.2,0.4-0.4,0.6-0.8c0.2-0.3,0.3-0.7,0.4-1.1c0.1-0.4,0.1-0.9,0.1-1.4
		c0-0.4,0-0.7-0.1-0.9c-0.1-0.3-0.1-0.5-0.2-0.7c-0.1-0.2-0.2-0.3-0.4-0.5c-0.1-0.1-0.3-0.2-0.4-0.3c-0.2-0.1-0.5-0.3-1-0.5
		c-0.3-0.2-0.7-0.4-1.2-0.6c-0.4-0.2-0.9-0.4-1.3-0.6c-0.4-0.2-0.8-0.5-1.1-0.8c-0.3-0.3-0.7-0.6-1-1.1c-0.3-0.4-0.5-0.9-0.8-1.5
		c-0.2-0.6-0.4-1.2-0.5-1.9c-0.1-0.7-0.2-1.5-0.2-2.4c0-0.9,0.1-1.7,0.2-2.4c0.1-0.8,0.3-1.5,0.5-2.1c0.2-0.7,0.5-1.2,0.9-1.8
		c0.3-0.5,0.7-0.9,1.2-1.3c0.5-0.4,0.9-0.6,1.5-0.8c0.5-0.2,1.1-0.3,1.7-0.3c0.4,0,0.8,0.1,1.2,0.2c0.4,0.1,0.8,0.4,1.2,0.7
		c0.3,0.2,0.3,0.3,0.4,0.3c0.1,0.1,0.1,0.1,0.2,0.1c0.1,0,0.1,0.1,0.2,0.1h0c0.1,0,0.1,0.1,0.2,0.1c0,0,0.1,0,0.1,0c0,0,0.1,0,0.1,0
		h0c0,0,0,0,0,0c0.1,0,0.1,0,0.1,0c0.1,0,0.1-0.1,0.1-0.2c0-0.1,0.1-0.2,0.1-0.3v0c0-0.1,0-0.2,0-0.4v-0.5h0.2c0.2,0,0.5,0,0.7,0
		l0.2,0V134.4L67.1,134.4z M66.7,134v-7.8c-0.1,0-0.2,0-0.3,0v0.1c0,0.2,0,0.3-0.1,0.5v0c0,0.2-0.1,0.3-0.2,0.4
		c-0.1,0.1-0.2,0.2-0.3,0.3c-0.1,0.1-0.2,0.1-0.4,0.1h0c-0.1,0-0.1,0-0.2,0c-0.1,0-0.1,0-0.2-0.1c0,0-0.1-0.1-0.2-0.1h0
		c-0.1,0-0.1-0.1-0.2-0.1c-0.2-0.1-0.2-0.1-0.2-0.1c-0.2-0.1-0.4-0.3-0.4-0.3c-0.4-0.3-0.7-0.5-1.1-0.6c-0.4-0.1-0.7-0.2-1.1-0.2
		c-0.6,0-1.1,0.1-1.6,0.2c-0.5,0.2-0.9,0.4-1.3,0.7c-0.4,0.3-0.8,0.7-1.1,1.2c-0.3,0.5-0.6,1-0.8,1.7c-0.2,0.6-0.4,1.3-0.5,2.1
		c-0.1,0.7-0.2,1.5-0.2,2.4c0,0.9,0.1,1.7,0.2,2.4c0.1,0.7,0.3,1.3,0.5,1.9c0.2,0.5,0.5,1,0.7,1.4c0.3,0.4,0.6,0.7,0.9,1
		c0.3,0.3,0.7,0.5,1.1,0.7c0.4,0.2,0.8,0.4,1.2,0.6c0.5,0.2,0.9,0.4,1.2,0.6c0.5,0.2,0.8,0.4,1,0.5c0.2,0.1,0.4,0.2,0.5,0.4
		c0.2,0.2,0.3,0.3,0.4,0.6c0.1,0.2,0.2,0.5,0.3,0.8c0.1,0.3,0.1,0.6,0.1,1c0,0.6-0.1,1.1-0.2,1.5c-0.1,0.5-0.3,0.9-0.5,1.2
		c-0.2,0.4-0.5,0.6-0.7,0.9c-0.3,0.2-0.5,0.4-0.8,0.4c-0.4,0.1-0.7,0.1-1.1,0c-0.4-0.1-0.7-0.2-1.1-0.5c-0.4-0.2-0.7-0.6-1.1-1
		c-0.3-0.4-0.6-0.9-0.9-1.4c-0.3-0.5-0.5-1.1-0.7-1.8v0c-0.2-0.6-0.3-1.2-0.4-1.8c-0.1,0-0.1,0-0.2,0c-0.1,0-0.1,0-0.2,0v9.6
		c0.1,0,0.2-0.1,0.3-0.1l0,0c0,0,0,0,0.1,0c0-0.2,0-0.4,0-0.5c0-0.2,0.1-0.4,0.2-0.6c0.1-0.2,0.2-0.4,0.3-0.5
		c0.1-0.1,0.3-0.2,0.4-0.3c0.1,0,0.2,0,0.4,0h0h0h0c0.1,0,0.2,0,0.4,0.1c0.1,0,0.2,0.1,0.4,0.1c0.1,0.1,0.3,0.1,0.5,0.2
		c0.5,0.2,1,0.2,1.4,0.3c0.5,0,0.9,0,1.4-0.2c0.4-0.1,0.8-0.3,1.2-0.5c0.4-0.2,0.8-0.5,1.2-0.9c0.4-0.3,0.8-0.7,1.1-1.2
		c0.3-0.5,0.7-1.1,0.9-1.7c0.3-0.6,0.5-1.3,0.6-2.1c0.1-0.8,0.2-1.6,0.2-2.6c0-0.9-0.1-1.7-0.2-2.4c-0.1-0.7-0.3-1.4-0.6-2
		c-0.3-0.6-0.6-1.1-1-1.6c-0.4-0.5-0.8-0.9-1.4-1.2c-0.1-0.1-0.3-0.2-0.6-0.3c-0.2-0.1-0.5-0.3-0.8-0.4c-0.3-0.2-0.6-0.3-0.9-0.5
		c-0.3-0.2-0.5-0.3-0.7-0.5c-0.2-0.2-0.4-0.3-0.6-0.6c-0.2-0.2-0.4-0.4-0.5-0.7v0c-0.1-0.3-0.3-0.6-0.3-0.9c-0.1-0.3-0.1-0.7-0.1-1
		c0-0.4,0.1-0.8,0.2-1.2c0.1-0.4,0.3-0.7,0.5-0.9c0.2-0.2,0.5-0.4,0.8-0.6c0.3-0.1,0.6-0.2,0.9-0.2c0.7,0,1.2,0.1,1.7,0.5
		c0.5,0.3,0.9,0.8,1.2,1.5c0.3,0.7,0.5,1.3,0.7,2c0.2,0.7,0.3,1.3,0.4,2.1c0.1,0,0.1,0,0.2,0l0,0C66.6,134,66.7,134,66.7,134
		L66.7,134z M75.5,135.9c0.5,0,1-0.1,1.6-0.1c0.5,0,1.1-0.1,1.6-0.1V130c0-0.4,0-0.8,0-1.1c0-0.3-0.1-0.6-0.1-0.8
		c0-0.2-0.1-0.3-0.2-0.4c-0.1-0.1-0.2-0.1-0.3-0.1h0c-0.1,0-0.1,0-0.2,0c-0.1,0-0.1,0-0.2,0l-0.2,0v-1.4l0.2,0c1.2,0,2.3,0,3.5,0
		c1.1,0,2.2,0,3.4,0l0.2,0v1.4h-0.2c0,0-0.1,0-0.1,0c-0.1,0-0.1,0-0.2,0c-0.1,0-0.2,0-0.3,0.1c-0.1,0.1-0.2,0.2-0.2,0.4
		c-0.1,0.2-0.1,0.5-0.1,0.8v0c0,0.3,0,0.7,0,1.1v13.6c0,0.4,0,0.7,0,1c0,0.3,0.1,0.6,0.1,0.8c0,0.2,0.1,0.3,0.2,0.4
		c0.1,0.1,0.1,0.1,0.2,0.1c0.1,0,0.2,0,0.3,0c0,0,0.1,0,0.1,0l0.2,0v1.3l-0.2,0c-1.1,0.2-2.3,0.3-3.5,0.5c-1.2,0.2-2.3,0.4-3.4,0.5
		l-0.2,0v-1.4l0.2,0c0,0,0,0,0.1,0c0.1,0,0.2,0,0.2,0c0.1,0,0.2-0.1,0.3-0.2c0.1-0.1,0.2-0.3,0.2-0.5c0.1-0.2,0.1-0.5,0.1-0.8
		c0-0.3,0-0.7,0-1.1V138c-0.5,0-1,0.1-1.6,0.2c-0.5,0-1,0.1-1.6,0.2v6.4c0,0.3,0,0.5,0,0.8c0,0.2,0,0.5,0,0.6c0,0.2,0,0.3,0.1,0.5
		c0,0.1,0.1,0.2,0.1,0.3h0c0,0.1,0.1,0.1,0.1,0.1c0.1,0,0.1,0,0.2,0c0.1,0,0.1,0,0.1,0h0c0.1,0,0.1,0,0.2,0l0.2,0v1.4l-0.2,0
		c-1.2,0.2-2.3,0.4-3.4,0.7c-1.1,0.2-2.3,0.5-3.4,0.7l-0.2,0.1v-1.3l0.3-0.2c0,0,0.1,0,0.2,0c0.1,0,0.2-0.1,0.3-0.2
		c0.1-0.1,0.2-0.3,0.2-0.5c0.1-0.2,0.1-0.5,0.1-0.9c0-0.4,0-0.8,0-1.2v-15.1c0-0.5,0-0.9,0-1.2c0-0.4-0.1-0.6-0.1-0.9
		c0-0.2-0.1-0.3-0.2-0.4c-0.1-0.1-0.2-0.1-0.3-0.1h0c-0.1,0-0.1,0-0.2,0c-0.1,0-0.1,0-0.2,0l-0.2,0v-1.5l0.2,0c2.2,0,4.3,0,7.1,0.2
		v1.2l-0.2,0c0,0-0.1,0-0.2,0c0,0-0.1,0-0.1,0c-0.1,0-0.2,0-0.3,0.1c-0.1,0.1-0.2,0.2-0.2,0.4c-0.1,0.2-0.1,0.5-0.1,0.8
		c0,0.3,0,0.7,0,1.2V135.9L75.5,135.9z M75.3,136.3l-0.2,0v-6.2c0-0.5,0-0.9,0-1.2c0-0.4,0.1-0.7,0.1-0.9c0.1-0.3,0.2-0.4,0.3-0.6
		c0.2-0.1,0.3-0.2,0.6-0.2c0,0,0.1,0,0.1,0v-0.8l-0.2,0.2c-2.1,0-4.2,0-6.3,0v0.7c0,0,0.1,0,0.1,0h0c0,0,0,0,0,0
		c0.2,0,0.4,0.1,0.6,0.2c0.1,0.1,0.2,0.4,0.3,0.6c0.1,0.2,0.1,0.6,0.1,0.9c0,0.3,0,0.8,0,1.2v15.1c0,0.5,0,0.9,0,1.3
		c0,0.4-0.1,0.7-0.1,0.9c-0.1,0.3-0.2,0.5-0.3,0.7c-0.1,0.2-0.3,0.3-0.5,0.3c0,0-0.1,0-0.2,0v0.6c1.1-0.2,2.1-0.5,3.2-0.7
		c1.1-0.2,2.2-0.4,3.3-0.6v-0.6c-0.1,0-0.1,0-0.1,0c-0.2,0-0.3,0-0.4,0c-0.1-0.1-0.2-0.2-0.3-0.3h0c-0.1-0.1-0.1-0.3-0.2-0.4
		c0-0.2-0.1-0.3-0.1-0.5c0-0.2,0-0.4-0.1-0.7c0-0.2,0-0.5,0-0.8v-6.7l0.2,0c0.6-0.1,1.1-0.1,1.8-0.2c0.6-0.1,1.2-0.1,1.8-0.2l0.2,0
		v6.6c0,0.4,0,0.8,0,1.1c0,0.3-0.1,0.6-0.1,0.9c-0.1,0.3-0.2,0.5-0.3,0.6c-0.1,0.2-0.3,0.3-0.6,0.3c-0.1,0-0.1,0-0.1,0v0.6
		c1.1-0.2,2.2-0.3,3.2-0.5c1.1-0.2,2.2-0.3,3.3-0.5v-0.5c-0.1,0-0.1,0-0.1,0c-0.2,0-0.4,0-0.6-0.2c-0.1-0.1-0.2-0.3-0.3-0.6
		c-0.1-0.2-0.1-0.5-0.1-0.8c0-0.3,0-0.7,0-1v-13.6c0-0.4,0-0.8,0-1.1c0,0,0,0,0,0v0c0,0,0,0,0,0c0-0.3,0.1-0.6,0.1-0.9
		c0.1-0.3,0.2-0.5,0.3-0.6c0.2-0.1,0.3-0.2,0.6-0.2c0,0,0.1,0,0.1,0v-0.5c-1.1,0-2.1,0-3.2,0c-1.1,0-2.2,0-3.3,0v0.6
		c0,0,0.1,0,0.1,0h0c0,0,0,0,0,0c0.2,0,0.4,0.1,0.6,0.2c0.1,0.1,0.2,0.3,0.3,0.6c0.1,0.2,0.1,0.5,0.1,0.9c0,0.3,0,0.7,0,1.1v6
		l-0.2,0c-0.6,0-1.2,0.1-1.8,0.1C76.5,136.2,75.9,136.3,75.3,136.3L75.3,136.3z M85.7,126.2l0.2,0c1.8,0,3.5,0,5.3,0
		c1.8,0,3.5,0,5.3,0h0.2l0,0.2c0,0.4,0,0.9,0,1.4v0c0,0.4,0,0.9,0,1.3c0,0.6,0,1.2,0.1,1.8c0,0.3,0,0.6,0,0.9l0,0.2l-0.2,0
		c-0.1,0-0.2,0-0.3,0c-0.1,0-0.2,0-0.4,0l-0.2,0l0-0.2c-0.1-0.6-0.2-1.2-0.4-1.6c-0.2-0.4-0.5-0.8-0.8-1c-0.3-0.2-0.7-0.4-1-0.5
		c-0.3-0.1-0.7-0.2-1.1-0.2c-0.1,0-0.3,0-0.4,0c-0.1,0-0.2,0-0.3,0v6.6c0.1,0,0.2,0,0.4-0.1c0.2-0.1,0.3-0.2,0.4-0.3v0
		c0.1-0.1,0.2-0.3,0.3-0.4c0.1-0.2,0.2-0.4,0.2-0.6c0.1-0.2,0.1-0.5,0.1-0.8c0-0.3,0.1-0.6,0.1-1l0-0.2l0.2,0c0.1,0,0.3,0,0.4,0
		c0.1,0,0.2,0,0.3,0l0.2,0v8.8l-0.2,0c-0.1,0-0.2,0-0.4,0c-0.1,0-0.2,0-0.4,0l-0.2,0l0-0.2c0-0.5-0.1-1-0.2-1.4
		c-0.1-0.4-0.2-0.7-0.3-1l0,0c-0.1-0.2-0.3-0.4-0.5-0.5c-0.2-0.1-0.4-0.1-0.6-0.2v5.5c0,0.4,0,0.7,0.1,0.9c0,0.2,0.1,0.4,0.2,0.4
		c0.1,0.1,0.2,0.1,0.2,0.2c0.1,0,0.2,0.1,0.4,0c0.3,0,0.6-0.1,0.8-0.2c0.3-0.1,0.5-0.2,0.8-0.4c0.3-0.2,0.5-0.4,0.8-0.6
		c0.2-0.2,0.5-0.5,0.7-0.8c0.2-0.3,0.4-0.6,0.5-0.9c0.2-0.3,0.3-0.7,0.4-1.1l0.1-0.2l0.2,0.1c0.1,0.1,0.3,0.1,0.4,0.2
		c0.2,0.1,0.3,0.1,0.4,0.2l0.1,0.1l0,0.2c-0.1,0.3-0.1,0.6-0.2,0.9c-0.1,0.6-0.2,1.2-0.3,1.7c-0.1,0.5-0.1,0.9-0.2,1.3
		c-0.1,0.5-0.2,0.9-0.2,1.3l0,0.2l-0.2,0c-1.8,0.1-3.6,0.2-5.4,0.3c-1.8,0.1-3.6,0.3-5.4,0.5l-0.2,0v-1.3l0.2,0c0.1,0,0.1,0,0.2,0
		c0,0,0,0,0.2,0c0.1,0,0.2-0.1,0.3-0.1c0.1-0.1,0.2-0.2,0.2-0.4c0-0.2,0.1-0.5,0.1-0.8c0-0.3,0-0.7,0-1v-13.4c0-0.4,0-0.7,0-1
		c0-0.3-0.1-0.6-0.1-0.8c0-0.2-0.1-0.3-0.2-0.4c-0.1-0.1-0.2-0.1-0.3-0.1c-0.2,0-0.1,0-0.1,0h0c-0.1,0-0.2,0-0.3,0l-0.2,0V126.2
		L85.7,126.2z M86.1,145.6C86.1,145.6,86.1,145.6,86.1,145.6L86.1,145.6C86.1,145.6,86.1,145.6,86.1,145.6
		C86.1,145.6,86.1,145.6,86.1,145.6L86.1,145.6z M86.1,126.6v0.5c0,0,0,0,0.1,0c0,0,0,0,0.1,0h0c0.2,0,0.4,0.1,0.6,0.2
		c0.1,0.1,0.2,0.3,0.3,0.6c0.1,0.2,0.1,0.5,0.1,0.8c0,0.3,0,0.7,0,1.1v13.4c0,0.4,0,0.8,0,1.1c0,0.3-0.1,0.6-0.1,0.8
		c-0.1,0.3-0.2,0.5-0.3,0.6c-0.1,0.2-0.3,0.3-0.5,0.3c-0.2,0-0.1,0-0.1,0h0c0,0,0,0-0.1,0v0.5c1.7-0.2,3.5-0.3,5.2-0.5
		c1.7-0.1,3.5-0.2,5.2-0.3c0.1-0.4,0.1-0.8,0.2-1.2c0.1-0.4,0.2-0.9,0.2-1.3c0.1-0.6,0.2-1.2,0.3-1.7c0-0.3,0.1-0.5,0.1-0.7
		c-0.1,0-0.2-0.1-0.2-0.1c-0.1,0-0.1,0-0.2-0.1c-0.1,0.3-0.2,0.7-0.3,1c-0.2,0.4-0.4,0.7-0.6,1c-0.2,0.3-0.5,0.6-0.7,0.8
		c-0.3,0.2-0.5,0.5-0.8,0.6c-0.3,0.2-0.6,0.3-0.9,0.4c-0.3,0.1-0.6,0.2-0.9,0.2c-0.2,0-0.4,0-0.5-0.1c-0.2-0.1-0.3-0.2-0.4-0.3
		c-0.1-0.1-0.2-0.3-0.3-0.6c0-0.3-0.1-0.6-0.1-1v-5.9l0.2,0c0.4,0,0.7,0.1,1,0.2c0.3,0.2,0.5,0.4,0.7,0.7l0,0
		c0.2,0.3,0.3,0.7,0.4,1.1c0.1,0.4,0.1,0.8,0.2,1.2c0.1,0,0.1,0,0.2,0c0.1,0,0.1,0,0.2,0v-8c0,0-0.1,0-0.1,0c-0.1,0-0.1,0-0.2,0
		c0,0.3,0,0.6-0.1,0.8c0,0.3-0.1,0.6-0.2,0.8c-0.1,0.3-0.2,0.5-0.3,0.7c-0.1,0.2-0.2,0.4-0.4,0.5v0c-0.2,0.2-0.3,0.3-0.6,0.4
		c-0.2,0.1-0.4,0.1-0.7,0.1l-0.2,0V128l0.2,0c0.2,0,0.3,0,0.5,0c0.1,0,0.3,0,0.4,0c0.4,0,0.8,0.1,1.2,0.2c0.4,0.1,0.8,0.3,1.1,0.6
		c0.4,0.3,0.7,0.7,0.9,1.2c0.2,0.4,0.3,1,0.4,1.6c0.1,0,0.1,0,0.2,0c0,0,0.1,0,0.1,0c0-0.2,0-0.4,0-0.7c0-0.6-0.1-1.2-0.1-1.8
		c0-0.4,0-0.9,0-1.3v0v0v0c0-0.4,0-0.8,0-1.2c-1.7,0-3.4,0-5.1,0C89.5,126.6,87.8,126.6,86.1,126.6L86.1,126.6z M86.1,127.1
		L86.1,127.1L86.1,127.1C86.1,127.1,86.1,127.1,86.1,127.1L86.1,127.1z M98.4,126.2h0.2c1.4,0,2.7,0,4.1,0c1.4,0,2.7,0,4.1,0
		c0.5,0,1.1,0,1.5,0.1c0.5,0.1,0.9,0.2,1.2,0.4c0.4,0.2,0.7,0.4,0.9,0.7c0.3,0.2,0.5,0.5,0.7,0.8c0.2,0.3,0.3,0.6,0.4,0.9
		c0.1,0.3,0.2,0.6,0.3,0.9c0.1,0.3,0.1,0.5,0.1,0.8v0c0,0.3,0,0.5,0,0.8c0,0.6-0.1,1.1-0.2,1.7c-0.1,0.5-0.3,1-0.6,1.5
		c-0.3,0.5-0.6,0.9-1,1.2c-0.4,0.3-0.8,0.5-1.2,0.6c0.2,0.5,0.4,1,0.6,1.4c0.3,0.7,0.6,1.4,0.9,2.2c0.3,0.8,0.7,1.7,1.1,2.7
		c0.2,0.4,0.3,0.8,0.5,1.2c0.2,0.4,0.3,0.7,0.5,0.9c0.1,0.2,0.3,0.3,0.4,0.3l0.2,0v1.3l-0.2,0c-0.8-0.1-1.6-0.1-2.5-0.2
		c-0.8-0.1-1.6-0.1-2.5-0.2l-0.1,0l0-0.1c-0.4-1.1-0.5-1.4-0.7-1.9c-0.4-1-0.7-1.9-1-2.7c-0.3-0.8-0.6-1.5-0.9-2.3
		c-0.2-0.5-0.4-0.9-0.6-1.4v4.7c0,0.2,0,0.5,0,0.7c0,0.2,0,0.4,0,0.6c0,0.2,0,0.3,0.1,0.4c0,0.1,0.1,0.2,0.1,0.3
		c0,0.1,0.1,0.1,0.2,0.2c0.1,0,0.1,0.1,0.2,0.1c0.1,0,0.1,0,0.2,0c0,0,0.1,0,0.1,0l0.2,0v1.3l-0.2,0c-1.2,0-2.3,0-3.4-0.1
		c-1.1,0-2.3,0-3.4,0l-0.2,0v-1.3h0.2c0.1,0,0.1,0,0.2,0h0c0,0,0,0,0,0c0,0,0.1,0,0.1,0h0c0,0,0,0,0,0c0.1,0,0.2,0,0.3-0.1
		c0.1-0.1,0.2-0.2,0.2-0.3c0.1-0.2,0.1-0.4,0.1-0.7c0-0.3,0-0.6,0-1.1v-12.9c0-0.4,0-0.8,0-1c0-0.3-0.1-0.5-0.1-0.7
		c-0.1-0.2-0.1-0.3-0.2-0.3c-0.1-0.1-0.2-0.1-0.3-0.1h-0.5V126.2L98.4,126.2z M105.2,144.8C105.2,144.8,105.2,144.8,105.2,144.8
		L105.2,144.8L105.2,144.8z M105.4,144.8L105.4,144.8L105.4,144.8L105.4,144.8z M98.8,126.6v0.5h0.1c0.2,0,0.4,0.1,0.5,0.2
		c0.1,0.1,0.3,0.3,0.3,0.5c0.1,0.2,0.1,0.5,0.2,0.8c0,0.3,0.1,0.7,0.1,1.1v12.9c0,0.4,0,0.8-0.1,1.1c0,0.3-0.1,0.6-0.2,0.8
		c-0.1,0.2-0.2,0.4-0.3,0.5c-0.2,0.1-0.3,0.2-0.5,0.2h0c0,0-0.1,0-0.1,0v0.5c1.1,0,2.2,0,3.2,0c1.1,0,2.2,0,3.2,0v-0.5
		c0,0-0.1,0-0.1,0h0c-0.2,0-0.3,0-0.4-0.1c-0.1-0.1-0.2-0.2-0.3-0.3c-0.1-0.1-0.1-0.3-0.2-0.4c0-0.1-0.1-0.3-0.1-0.5
		c0-0.2,0-0.4,0-0.6c0-0.2,0-0.5,0-0.7v-5.9l0.2,0c0,0,0,0,0,0h0.1l0.1,0.1c0.3,0.7,0.6,1.5,0.9,2.2c0.3,0.7,0.6,1.5,0.9,2.2
		c0.4,1,0.7,1.8,1,2.7c0.3,0.7,0.6,1.4,0.7,1.8c0.8,0.1,1.6,0.1,2.3,0.2c0.8,0.1,1.5,0.1,2.2,0.2v-0.6c-0.2-0.1-0.3-0.2-0.5-0.4
		c-0.2-0.2-0.4-0.6-0.5-1c-0.2-0.4-0.3-0.8-0.5-1.2c-0.3-0.9-0.7-1.7-1.1-2.7c-0.3-0.7-0.6-1.5-0.9-2.2c-0.2-0.6-0.4-1.1-0.7-1.7
		l-0.1-0.2l0.2-0.1c0.5-0.1,0.9-0.3,1.3-0.6c0.4-0.3,0.7-0.6,0.9-1c0.2-0.4,0.4-0.9,0.5-1.4c0.1-0.5,0.2-1,0.2-1.6
		c0-0.2,0-0.5,0-0.7c0,0,0,0,0,0v0v0c0-0.2-0.1-0.5-0.1-0.8c-0.1-0.3-0.1-0.5-0.2-0.8c-0.1-0.3-0.2-0.5-0.4-0.8
		c-0.2-0.3-0.4-0.5-0.6-0.7c-0.2-0.2-0.5-0.4-0.9-0.6c-0.3-0.2-0.7-0.3-1.1-0.4c-0.4-0.1-0.9-0.1-1.4-0.1c-1.4,0-2.7,0-4.1,0
		C101.4,126.6,100.1,126.6,98.8,126.6L98.8,126.6z M104.5,128.4v6.6c0.3,0,0.6-0.1,0.8-0.2c0.3-0.1,0.6-0.3,0.9-0.5
		c0.3-0.2,0.5-0.5,0.6-1c0.1-0.5,0.2-1.1,0.2-1.8c0-1.1-0.2-1.9-0.7-2.4C106,128.6,105.3,128.4,104.5,128.4L104.5,128.4z
		 M104.1,127.9h0.2c1.1,0,1.9,0.3,2.4,0.9c0.5,0.6,0.8,1.5,0.8,2.7c0,0.8-0.1,1.4-0.2,1.9c-0.2,0.5-0.4,0.9-0.8,1.2
		c-0.3,0.3-0.7,0.4-1,0.6c-0.4,0.1-0.8,0.2-1.2,0.2l-0.2,0V127.9L104.1,127.9z M113.1,146.6v-1.1l0.5-0.2c0.1,0,0.2,0,0.3-0.1l0,0
		c0.1-0.1,0.1-0.2,0.2-0.3c0-0.2,0.1-0.4,0.1-0.7c0-0.3,0-0.7,0-1.1v-13.3c0-0.4,0-0.8,0-1.1c0-0.3-0.1-0.6-0.1-0.8
		c0-0.2-0.1-0.3-0.2-0.4c-0.1-0.1-0.2-0.1-0.3-0.1h0h0c0,0,0,0,0,0c0,0-0.1,0-0.1,0c-0.1,0-0.1,0-0.2,0h-0.2v-1.3l0.2,0
		c2.1,0,4.1,0,7.1,0.2v1.2h-0.2c-0.1,0-0.2,0-0.2,0c0,0,0,0-0.1,0h0c-0.1,0-0.2,0-0.3,0.1c-0.1,0-0.1,0.1-0.2,0.2
		c-0.1,0.1-0.1,0.2-0.1,0.3c0,0.1-0.1,0.3-0.1,0.5c0,0.2,0,0.4,0,0.6c0,0.2,0,0.5,0,0.7v13.7c0,0.3,0,0.5,0,0.7c0,0.2,0,0.4,0,0.6
		c0,0.2,0,0.3,0.1,0.5l0,0c0,0.1,0.1,0.3,0.1,0.4c0,0.1,0.1,0.2,0.2,0.2c0.1,0.1,0.2,0.1,0.3,0.1h0c0,0,0,0,0.1,0h0
		c0.1,0,0.1,0,0.2,0l0.2,0v1.4l-0.2,0c-1.1-0.2-2.3-0.3-3.4-0.5c-1.2-0.1-2.3-0.3-3.4-0.4L113.1,146.6L113.1,146.6z M113.5,146.2
		c1.1,0.1,2.2,0.2,3.3,0.4c1.1,0.1,2.1,0.3,3.2,0.4v-0.5c0,0,0,0,0,0c0,0,0,0-0.1,0h0c-0.2,0-0.3-0.1-0.4-0.2
		c-0.1-0.1-0.2-0.2-0.3-0.4c-0.1-0.1-0.1-0.3-0.2-0.5l0,0c0-0.2-0.1-0.3-0.1-0.5c0-0.2,0-0.4,0-0.6c0-0.2,0-0.5,0-0.8v-13.7
		c0-0.3,0-0.5,0-0.8c0-0.2,0-0.4,0-0.6c0-0.2,0.1-0.4,0.1-0.5c0-0.2,0.1-0.3,0.2-0.4c0.1-0.1,0.2-0.2,0.3-0.3
		c0.1-0.1,0.3-0.1,0.4-0.1c0,0,0,0,0.1,0h0c0,0,0,0,0,0v-0.8l-0.5,0.2c-2,0-4,0-6,0v0.5c0,0,0,0,0,0h0c0,0,0.1,0,0.1,0h0
		c0.2,0,0.4,0.1,0.6,0.2c0.2,0.1,0.3,0.3,0.3,0.6c0.1,0.2,0.1,0.5,0.1,0.8c0,0.3,0,0.7,0,1.1v13.3c0,0.4,0,0.8,0,1.1
		c0,0.3-0.1,0.6-0.1,0.8c-0.1,0.3-0.2,0.4-0.3,0.6l0,0c-0.2,0.1-0.4,0.2-0.6,0.1l-0.1-0.2V146.2L113.5,146.2z M119.9,127.1
		L119.9,127.1L119.9,127.1L119.9,127.1z M121.3,126.2l0.2,0c1.8,0,3.6,0,5.4,0c1.8,0,3.6,0,5.4,0l0.2,0l0,0.2c0,0.5,0,1.1,0,1.6
		c0,0.5,0,1.1,0,1.6c0,0.5,0,1.1,0,1.6c0,0.5,0,1.1,0.1,1.6l0,0.2l-0.2,0c-0.1,0-0.2,0-0.4,0c-0.1,0-0.2,0-0.4,0l-0.2,0l0-0.2
		c-0.1-1.4-0.4-2.4-1-3.1c-0.6-0.7-1.5-1-2.6-1.1c-0.1,0-0.3,0-0.4,0c0,0-0.1,0-0.1,0v7.4c0.3,0,0.5,0,0.7-0.1
		c0.2-0.1,0.4-0.3,0.6-0.6c0.2-0.3,0.3-0.7,0.4-1.1c0.1-0.5,0.1-1,0.2-1.6l0-0.2l0.2,0c0.2,0,0.4,0,0.9,0.3V143l-0.2,0
		c-0.2,0-0.3-0.1-0.5-0.1c0,0,0,0,0,0h0h0c-0.1,0-0.1,0-0.2,0l-0.2,0v-0.2c0-0.7,0-1.3-0.1-1.8c-0.1-0.5-0.2-0.9-0.4-1.3
		c-0.2-0.3-0.4-0.6-0.6-0.8c-0.2-0.1-0.5-0.2-0.7-0.3v6.3c0,0.4,0,0.8,0,1.1c0,0.3,0.1,0.6,0.1,0.7c0,0.2,0.1,0.4,0.1,0.5
		c0,0.1,0.1,0.2,0.1,0.2c0.1,0,0.1,0.1,0.2,0.1c0.1,0,0.2,0.1,0.3,0.1h0c0.1,0,0.1,0,0.1,0c0.1,0,0.2,0,0.3,0.1l0.2,0v1.5l-0.2,0
		c-1.2-0.2-2.3-0.5-3.6-0.7c-1.2-0.2-2.4-0.5-3.6-0.7l-0.2,0v-1.4l0.2,0c0,0,0.1,0,0.2,0h0c0,0,0.1,0,0.1,0c0.1,0,0.2,0,0.3-0.1h0
		c0.1-0.1,0.1-0.2,0.2-0.3c0.1-0.2,0.1-0.4,0.1-0.7c0-0.3,0-0.7,0-1.2v-14c0-0.4,0-0.8,0-1.1c0-0.3-0.1-0.6-0.1-0.8
		c0-0.2-0.1-0.3-0.2-0.4c-0.1-0.1-0.2-0.1-0.3-0.1c0,0-0.1,0-0.1,0h0c-0.1,0-0.1,0-0.2,0l-0.2,0V126.2L121.3,126.2z M121.7,126.6
		v0.6c0,0,0.1,0,0.1,0h0c0.2,0,0.4,0.1,0.6,0.2c0.1,0.1,0.2,0.3,0.3,0.6c0.1,0.2,0.1,0.5,0.1,0.9c0,0.3,0,0.7,0,1.1v14
		c0,0.5,0,0.9-0.1,1.3c0,0.4-0.1,0.6-0.2,0.8c-0.1,0.2-0.2,0.4-0.4,0.5h0c-0.2,0.1-0.3,0.2-0.6,0.1c0,0,0,0-0.1,0v0.6
		c1.1,0.2,2.3,0.4,3.4,0.6c1.1,0.2,2.2,0.4,3.3,0.7V148c-0.1,0-0.1,0-0.1,0c-0.1,0-0.1,0-0.1,0h0c-0.1,0-0.3-0.1-0.4-0.1
		c-0.1-0.1-0.2-0.1-0.3-0.2c-0.1-0.1-0.2-0.2-0.2-0.4c-0.1-0.1-0.1-0.3-0.2-0.5c0-0.2-0.1-0.5-0.1-0.8c0-0.3,0-0.7,0-1.1V138l0.2,0
		c0.5,0,0.8,0.2,1.2,0.4c0.3,0.2,0.6,0.5,0.7,1c0.2,0.4,0.3,0.9,0.4,1.4c0.1,0.5,0.1,1.1,0.1,1.7c0,0,0,0,0,0h0c0.1,0,0.2,0,0.2,0
		v-9.7c-0.1,0-0.2,0-0.3,0c0,0.6-0.1,1-0.2,1.5c-0.1,0.5-0.2,0.9-0.4,1.2c-0.2,0.3-0.4,0.6-0.8,0.7c-0.3,0.1-0.7,0.2-1.1,0.2l-0.2,0
		v-8.2l0.2,0c0.1,0,0.2,0,0.3,0c0.1,0,0.3,0,0.4,0c1.2,0,2.2,0.4,2.9,1.2c0.6,0.7,1,1.8,1.1,3.1c0.1,0,0.1,0,0.2,0h0
		c0,0,0.1,0,0.1,0c0-0.5,0-0.9,0-1.4c0-0.5,0-1.1,0-1.6c0-0.5,0-1.1,0-1.6c0-0.5,0-0.9,0-1.4c-1.7,0-3.5,0-5.2,0
		C125.2,126.6,123.5,126.6,121.7,126.6L121.7,126.6z M133.3,126.3l0.2,0c1.8,0,3.6,0,5.4,0c1.8,0,3.6,0,5.4,0l0.2,0l0,0.2
		c0,0.6,0,1.2,0,1.8c0,0.6,0,1.2,0,1.9c0,0.6,0,1.2,0,1.8v0c0,0.6,0,1.2,0.1,1.8l0,0.2l-0.2,0c-0.2,0-0.3,0-0.5,0
		c-0.1,0-0.2,0-0.3,0l-0.2,0l0-0.2c-0.1-1.6-0.4-2.8-1.1-3.6c-0.6-0.8-1.5-1.2-2.6-1.2c-0.1,0-0.2,0-0.2,0c-0.1,0-0.2,0-0.3,0v8.5
		c0.3,0,0.5,0,0.7-0.1c0.2-0.1,0.4-0.3,0.6-0.6c0.2-0.3,0.3-0.8,0.4-1.3c0.1-0.5,0.1-1.2,0.2-1.9l0-0.2l0.2,0c0.2,0,0.3,0,0.5,0
		c0.1,0,0.2,0,0.2,0l0.2,0v12.1l-0.3-0.1c-0.1,0-0.3-0.1-0.3-0.1h0c-0.2,0-0.2-0.1-0.3-0.1l-0.2,0v-0.2c0-0.8,0-1.5-0.1-2.1
		c-0.1-0.6-0.2-1.1-0.4-1.5c-0.2-0.4-0.4-0.7-0.6-1c-0.2-0.2-0.4-0.3-0.7-0.4v7.2c0,0.5,0,0.9,0,1.2c0,0.4,0.1,0.6,0.1,0.9
		c0,0.2,0.1,0.4,0.1,0.6c0,0.1,0.1,0.2,0.1,0.3v0c0.1,0.1,0.1,0.1,0.2,0.2c0.1,0.1,0.2,0.1,0.3,0.1c0.1,0,0,0,0.1,0
		c0.1,0,0.2,0.1,0.3,0.1l0.1,0v1.6l-0.3-0.1c-1.2-0.4-2.4-0.8-3.6-1.1c-1.2-0.4-2.4-0.7-3.6-1.1l-0.1,0v-1.5l0.3,0.1
		c0,0,0.1,0,0.1,0l0,0c0,0,0.1,0,0.1,0l0,0c0.1,0,0.2,0,0.2,0c0.1-0.1,0.1-0.2,0.2-0.3c0.1-0.2,0.1-0.5,0.2-0.8
		c0-0.4,0.1-0.8,0.1-1.4v-15.8c0-0.5,0-0.9,0-1.2c0-0.4-0.1-0.7-0.1-0.9c0-0.2-0.1-0.4-0.2-0.5c-0.1-0.1-0.2-0.1-0.3-0.1
		c0,0-0.1,0-0.1,0h0c-0.1,0-0.2,0-0.2,0l-0.2,0V126.3L133.3,126.3z M133.8,126.7v0.7c0,0,0,0,0,0c0,0,0.1,0,0.1,0
		c0.2,0,0.4,0.1,0.6,0.3c0.1,0.2,0.2,0.4,0.3,0.7c0.1,0.3,0.1,0.6,0.1,1c0,0.4,0,0.8,0,1.3v15.8c0,0.6,0,1-0.1,1.4
		c0,0.4-0.1,0.7-0.2,0.9c-0.1,0.2-0.2,0.4-0.4,0.5c-0.2,0.1-0.4,0.1-0.6,0.1l0,0c0,0,0,0,0,0v0.7c1.2,0.3,2.3,0.7,3.4,1
		c1.1,0.3,2.2,0.7,3.3,1v-0.8c0,0-0.1,0-0.1,0c0,0,0.1,0-0.1,0c-0.1,0-0.3-0.1-0.4-0.2c-0.1-0.1-0.2-0.2-0.3-0.3v0
		c-0.1-0.1-0.2-0.2-0.2-0.4c-0.1-0.2-0.1-0.4-0.2-0.6c0-0.3-0.1-0.6-0.1-0.9c0-0.4,0-0.8,0-1.3v-7.7l0.2,0c0.4,0.1,0.8,0.3,1.2,0.6
		c0.3,0.3,0.6,0.6,0.7,1.1c0.2,0.5,0.3,1,0.4,1.6c0.1,0.6,0.1,1.2,0.1,2c0.1,0,0.1,0,0.2,0h0c0,0,0.1,0,0.1,0v-11.2
		c-0.1,0-0.2,0-0.3,0c0,0.6-0.1,1.2-0.2,1.7c-0.1,0.6-0.2,1-0.4,1.4c-0.2,0.4-0.4,0.7-0.8,0.8c-0.3,0.2-0.7,0.2-1.1,0.1l-0.2,0v-9.3
		l0.2,0c0.2,0,0.3,0,0.5,0c0.1,0,0.2,0,0.2,0c1.3,0.1,2.2,0.5,2.9,1.4c0.6,0.8,1,2,1.1,3.6c0,0,0.1,0,0.1,0c0.1,0,0.2,0,0.2,0
		c0-0.5,0-1.1,0-1.6c0,0,0,0,0,0v0c0,0,0,0,0,0c0-0.6,0-1.2,0-1.8c0-0.6,0-1.2,0-1.9c0-0.5,0-1.1,0-1.6c-1.7,0-3.5,0-5.2,0
		C137.2,126.7,135.5,126.7,133.8,126.7L133.8,126.7z M133.8,127.4L133.8,127.4L133.8,127.4L133.8,127.4z"/>
	<path class="st0" d="M73.4,120.4c0.3,0.2,0.5,0.3,0.6,0.3c0.1,0,0.2,0,0.3-0.1c0.2-0.1,0.3-0.1,0.5,0c0.1,0.1,0.2,0.2,0.2,0.3
		c0,0.1-0.1,0.3-0.2,0.4l-1.1,1.6c-0.1,0.2-0.2,0.3-0.3,0.4c-0.1,0.1-0.2,0.1-0.4,0c-0.1-0.1-0.2-0.2-0.1-0.4c0-0.2,0-0.3,0-0.3
		c-0.1-0.1-0.2-0.2-0.5-0.4l-2.7-1.8l-0.1,0.1c-0.1,0.2-0.3,0.3-0.4,0.4c-0.1,0.1-0.2,0-0.4-0.1c-0.1-0.1-0.2-0.2-0.2-0.3
		c0-0.1,0-0.3,0.2-0.5l0.1-0.2c-0.4-0.3-0.7-0.5-1-0.7c-0.3-0.2-0.5-0.5-0.6-0.7c-0.2-0.4-0.3-0.7-0.3-1.1c0-0.4,0.2-0.8,0.4-1.2
		c0.2-0.3,0.4-0.5,0.7-0.6c0.3-0.1,0.5-0.1,0.7,0c0.2,0.1,0.3,0.3,0.3,0.4c0,0.2,0,0.3-0.1,0.5c-0.1,0.1-0.1,0.2-0.2,0.2
		c-0.1,0-0.2,0.1-0.3,0.1c-0.1,0-0.2,0.1-0.2,0.1c-0.1,0.1,0.1,0.3,0.5,0.5l1.2,0.8l0.2-0.3l0.1-0.2c0.1-0.2,0.2-0.3,0.3-0.3
		c0.1-0.1,0.2,0,0.4,0.1c0.2,0.1,0.2,0.2,0.2,0.4c0,0.1-0.1,0.3-0.3,0.6l-0.2,0.3L73.4,120.4L73.4,120.4z M75.8,118.7
		c-0.4,0-0.9,0-1.3-0.2c-0.4-0.1-0.8-0.4-1.1-0.7c-0.3-0.3-0.5-0.6-0.6-1c-0.1-0.4-0.2-0.8-0.2-1.2c0.1-0.9,0.4-1.7,1.1-2.4
		c0.3-0.3,0.6-0.5,1-0.7c0.4-0.2,0.8-0.3,1.2-0.3c0.4,0,0.8,0,1.2,0.1c0.4,0.1,0.7,0.4,1,0.7c0.4,0.4,0.7,0.9,0.8,1.5
		c0.1,0.6,0.1,1.1-0.1,1.7c-0.2,0.6-0.5,1-0.9,1.5C77.3,118.2,76.6,118.6,75.8,118.7L75.8,118.7z M76.7,114.4
		c-0.4-0.4-0.8-0.6-1.2-0.8c-0.4-0.1-0.8-0.1-1.2,0.3c-0.3,0.3-0.4,0.7-0.3,1.2c0.2,0.5,0.4,0.9,0.8,1.3c0.4,0.4,0.9,0.7,1.3,0.9
		c0.5,0.2,0.9,0.1,1.2-0.3C78,116.3,77.8,115.5,76.7,114.4L76.7,114.4z M82,111.7c0.2,0.3,0.3,0.4,0.5,0.5c0.1,0.1,0.3,0,0.6-0.2
		c0.2-0.2,0.4-0.3,0.6-0.3c0.1,0,0.3,0,0.4,0.2c0.2,0.3,0,0.5-0.4,0.8l-1.4,0.9c-0.2,0.2-0.4,0.3-0.5,0.3c-0.1,0-0.3,0-0.4,0
		c-0.1-0.1-0.3-0.2-0.4-0.4l-2.2-3.2l-0.2,0.1c-0.2,0.1-0.4,0.2-0.5,0.2c-0.1,0-0.3,0-0.4-0.2c-0.1-0.1-0.1-0.2-0.1-0.3
		c0-0.1,0.1-0.2,0.2-0.3c0.2-0.1,0.3-0.3,0.4-0.4c0.1-0.1,0.1-0.2,0.1-0.4c0-0.3-0.1-0.6-0.3-1.1c-0.1-0.2-0.1-0.4-0.1-0.5
		c0-0.1,0.1-0.2,0.3-0.4c0.2-0.2,0.4-0.2,0.5-0.2c0.1,0,0.2,0.1,0.3,0.3l0.8,1.2l0.6-0.4c0.2-0.1,0.4-0.2,0.5-0.2
		c0.1,0,0.3,0,0.4,0.2c0.2,0.3,0.1,0.5-0.3,0.8l-0.6,0.4L82,111.7L82,111.7z M84.5,106.1c0.3-0.6,0.7-1,1.3-1.3
		c0.4-0.2,0.8-0.3,1.1-0.3c0.4,0,0.7,0.1,1,0.2c0.3,0.1,0.6,0.3,0.9,0.6c0.3,0.3,0.5,0.6,0.6,1c0.3,0.6,0.4,1.2,0.3,1.8
		c-0.1,0.6-0.3,1.1-0.7,1.5c-0.4,0.4-0.9,0.8-1.5,1.1c-0.3,0.1-0.7,0.3-1,0.3c-0.4,0.1-0.7,0.1-1,0c-0.3-0.1-0.5-0.2-0.7-0.3
		c-0.2-0.1-0.3-0.3-0.5-0.5c-0.1-0.2-0.3-0.4-0.4-0.7l-1.7-3.9c-0.2-0.4-0.3-0.7-0.4-0.8c-0.1-0.1-0.1-0.2-0.2-0.2
		c-0.1,0-0.2,0-0.3-0.1c-0.1,0-0.2,0-0.3,0c-0.1,0-0.1-0.1-0.1-0.1c-0.1-0.1,0-0.2,0.1-0.3c0.1-0.1,0.2-0.2,0.4-0.4
		c0.5-0.5,0.9-0.8,1.2-0.9c0.3-0.1,0.6,0.1,0.8,0.6l0.1,0.2L84.5,106.1L84.5,106.1z M85.6,108.6c0.2,0.5,0.5,0.9,0.7,1.1
		c0.3,0.3,0.6,0.3,1,0.1c0.4-0.2,0.6-0.5,0.6-1c0-0.5-0.1-1-0.3-1.4c-0.2-0.5-0.5-0.9-0.9-1.3c-0.4-0.4-0.7-0.5-1.1-0.3
		c-0.4,0.2-0.6,0.4-0.6,0.8c0,0.3,0,0.6,0.2,1L85.6,108.6L85.6,108.6z M96.9,106.2c0.1,0.3,0.1,0.5,0.2,0.6c0.1,0.1,0.2,0.1,0.3,0.2
		c0.2,0.1,0.3,0.2,0.4,0.3c0,0.2,0,0.3-0.1,0.3c-0.1,0.1-0.3,0.1-0.5,0.1L96,108c-0.2,0-0.3,0-0.4,0c-0.1,0-0.2-0.1-0.2-0.2
		c0-0.1-0.1-0.2-0.1-0.5c-0.3,0.7-0.8,1.1-1.7,1.2c-0.4,0.1-0.7,0.1-1.1,0c-0.3-0.1-0.6-0.2-0.9-0.5c-0.2-0.2-0.4-0.6-0.5-0.9
		c-0.1-0.4,0-0.8,0.2-1.1c0.2-0.3,0.4-0.6,0.7-0.8c0.3-0.2,0.7-0.4,1.1-0.5c0.4-0.1,0.7-0.2,1.1-0.3l0.4-0.1
		c-0.1-0.4-0.2-0.7-0.4-0.9c-0.2-0.2-0.5-0.3-0.9-0.2c-0.2,0-0.3,0.1-0.4,0.2c-0.1,0.1-0.2,0.2-0.3,0.4c-0.1,0.2-0.2,0.3-0.3,0.4
		c-0.1,0.1-0.2,0.1-0.4,0.2c-0.2,0-0.4,0-0.5-0.1c-0.2-0.1-0.3-0.2-0.3-0.4c0-0.3,0.1-0.5,0.3-0.7c0.3-0.2,0.6-0.4,1-0.5
		c0.4-0.1,0.7-0.2,1-0.3c0.8-0.1,1.5-0.1,2.1,0.1c0.4,0.1,0.7,0.3,0.9,0.6c0.2,0.3,0.3,0.6,0.4,1.1L96.9,106.2L96.9,106.2z
		 M94.5,105.2c-0.5,0.1-0.8,0.3-1.1,0.6c-0.3,0.3-0.4,0.7-0.3,1.1c0,0.2,0.1,0.4,0.3,0.6c0.2,0.1,0.4,0.2,0.6,0.2
		c0.4-0.1,0.6-0.3,0.8-0.7c0.1-0.2,0.1-0.4,0.1-0.6c0-0.2,0-0.4-0.1-0.7l-0.1-0.4L94.5,105.2L94.5,105.2z M98.7,101.1
		c0-0.4,0-0.7-0.1-0.9c0-0.1-0.1-0.2-0.1-0.3c0-0.1-0.1-0.1-0.2-0.2c-0.1-0.1-0.2-0.1-0.2-0.2c0,0-0.1-0.1-0.1-0.2
		c0-0.1,0-0.1,0.1-0.2c0-0.1,0.1-0.1,0.2-0.1c0.1,0,0.2-0.1,0.2-0.1c0.1,0,0.2,0,0.2-0.1c0.7-0.2,1.2-0.4,1.4-0.4
		c0.3,0,0.5,0.3,0.5,0.9l0,0.3l0.1,6.3c0,0.3,0,0.6,0.1,0.7c0,0.1,0.1,0.1,0.3,0.2c0.2,0.1,0.3,0.2,0.3,0.4c0,0.2-0.1,0.3-0.2,0.3
		c-0.1,0-0.3,0.1-0.5,0.1l-1.9,0c-0.2,0-0.4,0-0.5-0.1c-0.1,0-0.2-0.1-0.2-0.3c0-0.1,0.1-0.3,0.3-0.4c0.1-0.1,0.2-0.1,0.3-0.2
		c0-0.1,0.1-0.3,0-0.7L98.7,101.1L98.7,101.1z M113.6,109.4L113.6,109.4c0.3,0.1,0.5,0.1,0.8,0.1c0.3,0,0.5-0.1,0.8-0.2
		c0.3-0.1,0.4-0.2,0.6-0.1c0.1,0,0.2,0.1,0.2,0.2c0,0.1,0,0.2,0,0.3c-0.1,0.3-0.4,0.5-1,0.6c-0.7,0.2-1.4,0.1-2.1-0.1
		c-0.4-0.2-0.8-0.4-1.1-0.6c-0.3-0.3-0.6-0.6-0.8-0.9c-0.2-0.3-0.3-0.7-0.3-1.1c0-0.4,0-0.8,0.2-1.2c0.2-0.6,0.5-1,1-1.4
		c0.4-0.3,0.9-0.5,1.5-0.6c0.6-0.1,1.1,0,1.7,0.2c0.3,0.1,0.6,0.3,0.9,0.5c0.3,0.2,0.6,0.5,0.8,0.8c0.2,0.3,0.2,0.6,0.1,0.9
		c-0.1,0.2-0.2,0.3-0.4,0.4c-0.2,0.1-0.3,0.1-0.5,0c-0.2-0.1-0.3-0.2-0.4-0.3c-0.1-0.1-0.1-0.3-0.2-0.5c-0.1-0.2-0.1-0.4-0.2-0.5
		c-0.1-0.1-0.2-0.2-0.4-0.3c-0.3-0.1-0.6-0.1-0.8,0.1c-0.3,0.2-0.5,0.4-0.7,0.7c-0.2,0.3-0.3,0.6-0.5,0.9l0,0
		c-0.2,0.5-0.2,1-0.1,1.4C112.9,108.9,113.2,109.2,113.6,109.4L113.6,109.4z M119.4,105.8c0.2-0.4,0.3-0.6,0.4-0.8
		c0-0.1,0-0.2,0-0.3c0-0.1-0.1-0.2-0.1-0.3c-0.1-0.1-0.1-0.2-0.1-0.3c0,0,0-0.1,0-0.2c0-0.1,0.1-0.1,0.2-0.1c0.1,0,0.1,0,0.2,0
		c0.1,0,0.2,0,0.3,0c0.1,0,0.2,0,0.2,0.1c0.7,0.1,1.2,0.3,1.4,0.4c0.3,0.2,0.3,0.5,0,1l-0.1,0.2l-3.1,5.5c-0.2,0.3-0.3,0.5-0.3,0.6
		c0,0.1,0,0.2,0.1,0.3c0.1,0.2,0.1,0.3,0.1,0.5c-0.1,0.1-0.2,0.2-0.3,0.2c-0.1,0-0.3-0.1-0.5-0.2l-1.7-0.9c-0.2-0.1-0.3-0.2-0.4-0.3
		c-0.1-0.1-0.1-0.2,0-0.4c0.1-0.1,0.2-0.2,0.4-0.2c0.2,0,0.3,0,0.3-0.1c0.1-0.1,0.2-0.3,0.4-0.6L119.4,105.8L119.4,105.8z
		 M121.7,110.2l0.2-0.2c0.1-0.1,0.1-0.2,0.2-0.3c0-0.1,0-0.2,0-0.3c0-0.2,0-0.3,0-0.4c0.1-0.1,0.2-0.1,0.3-0.1
		c0.2,0,0.6,0.2,1.1,0.5c0,0,0.1,0,0.1,0c0.1,0,0.2,0.1,0.2,0.1c0.2,0.2,0.3,0.4,0.3,0.5c0,0.2-0.2,0.4-0.4,0.6L122,113
		c-0.2,0.2-0.3,0.4-0.4,0.5c-0.1,0.2-0.1,0.3-0.1,0.5c0,0.2,0.1,0.3,0.3,0.5c0.1,0.1,0.3,0.2,0.4,0.2c0.2,0,0.3,0.1,0.5,0
		c0.2,0,0.5-0.2,0.8-0.6l1.2-1.4l0.2-0.2c0.1-0.1,0.1-0.2,0.2-0.3c0-0.1,0-0.2,0-0.3c0-0.2,0-0.3,0-0.4c0.1-0.1,0.2-0.1,0.3-0.1
		c0.2,0,0.6,0.2,1.1,0.5c0.2,0.1,0.4,0.2,0.5,0.3c0.2,0.2,0.3,0.4,0.2,0.5l-2.5,3c-0.2,0.3-0.3,0.4-0.4,0.5c0,0.1,0,0.2,0.1,0.3
		c0.1,0.2,0.1,0.4,0,0.5c-0.1,0.1-0.2,0.2-0.3,0.1c-0.1,0-0.3-0.1-0.4-0.3l-0.8-0.7c-0.1-0.1-0.2-0.2-0.3-0.3c0-0.1-0.1-0.2,0-0.3
		c0-0.1,0.1-0.2,0.2-0.4c-0.8,0.1-1.5-0.1-2.1-0.6c-0.6-0.5-0.8-1.1-0.8-1.8c0-0.1,0.1-0.3,0.2-0.5c0.1-0.2,0.3-0.4,0.5-0.7
		L121.7,110.2L121.7,110.2z M130.2,116.7c0.6,0.2,1.1,0.5,1.5,1c0.2,0.3,0.4,0.7,0.5,1c0.1,0.4,0.1,0.7,0,1c-0.1,0.3-0.2,0.7-0.4,1
		c-0.2,0.3-0.5,0.6-0.8,0.8c-0.5,0.4-1.1,0.6-1.7,0.6c-0.6,0-1.1-0.1-1.7-0.4c-0.5-0.3-1-0.7-1.4-1.2c-0.2-0.3-0.4-0.6-0.5-1
		c-0.1-0.3-0.2-0.7-0.2-1c0-0.3,0.1-0.5,0.2-0.7c0.1-0.2,0.2-0.4,0.4-0.6c0.2-0.2,0.4-0.3,0.6-0.5l3.4-2.5c0.3-0.2,0.6-0.4,0.7-0.6
		c0.1-0.1,0.1-0.2,0.1-0.2c0-0.1,0-0.2,0-0.3c0-0.1,0-0.2,0-0.3c0-0.1,0-0.1,0.1-0.2c0.1-0.1,0.2-0.1,0.3,0c0.1,0.1,0.3,0.2,0.5,0.3
		c0.6,0.4,1,0.7,1.1,0.9c0.2,0.3,0,0.6-0.5,0.9l-0.2,0.2L130.2,116.7L130.2,116.7z M128,118.4c-0.4,0.3-0.8,0.6-1,0.9
		c-0.2,0.3-0.2,0.7,0.1,1c0.3,0.4,0.6,0.5,1.1,0.4c0.5-0.1,0.9-0.3,1.3-0.6c0.4-0.3,0.8-0.7,1.1-1.1c0.3-0.4,0.3-0.8,0-1.2
		c-0.2-0.3-0.5-0.5-0.9-0.5c-0.3,0-0.6,0.1-0.9,0.4L128,118.4L128,118.4z"/>
	<path class="st0" d="M122.7,150.5l-4.2,4.6l-3.8-1.2l0.9,4.6l-5.3,4.3c1.9-0.6,4-0.6,5.8-1.7l-0.3,3.2l4-4.7l4.2-2.4l-2.1-0.7
		L122.7,150.5L122.7,150.5z"/>
	<g>
		<defs>
			<polyline id="SVGID_1_" points="88.9,33.2 88.9,32.6 91,32.6 91,33.2 88.9,33.2 			"/>
		</defs>
		<defs>
			<polygon id="SVGID_2_" points="82.8,0.6 117.2,0.2 117.2,33.9 82.8,34.3 82.8,0.6 			"/>
		</defs>
		<clipPath id="SVGID_3_">
			<use xlink:href="#SVGID_1_"  style="overflow:visible;"/>
		</clipPath>
		<clipPath id="SVGID_4_" class="st6">
			<use xlink:href="#SVGID_2_"  style="overflow:visible;"/>
		</clipPath>
		<g style="clip-path:url(#SVGID_4_);">
			
				<image style="overflow:visible;" width="5" height="1" xlink:href="F8C99093.jpg"  transform="matrix(0.4359 0 0 -0.5412 88.8635 33.1746)">
			</image>
		</g>
	</g>
	<g>
		<defs>
			<polyline id="SVGID_5_" points="109,33.2 109,32.2 111.5,32.2 111.5,33.2 109,33.2 			"/>
		</defs>
		<defs>
			<polygon id="SVGID_6_" points="82.8,0.6 117.2,0.2 117.2,33.9 82.8,34.3 82.8,0.6 			"/>
		</defs>
		<clipPath id="SVGID_7_">
			<use xlink:href="#SVGID_5_"  style="overflow:visible;"/>
		</clipPath>
		<clipPath id="SVGID_8_" class="st7">
			<use xlink:href="#SVGID_6_"  style="overflow:visible;"/>
		</clipPath>
		<g style="clip-path:url(#SVGID_8_);">
			
				<image style="overflow:visible;" width="6" height="2" xlink:href="F8C99091.jpg"  transform="matrix(0.4317 0 0 -0.4764 108.9554 33.1746)">
			</image>
		</g>
	</g>
	<g>
		<defs>
			<polyline id="SVGID_9_" points="88.9,32.8 88.9,32.2 91.9,32.2 91.9,32.8 88.9,32.8 			"/>
		</defs>
		<defs>
			<polygon id="SVGID_10_" points="82.8,0.6 117.2,0.2 117.2,33.9 82.8,34.3 82.8,0.6 			"/>
		</defs>
		<clipPath id="SVGID_11_">
			<use xlink:href="#SVGID_9_"  style="overflow:visible;"/>
		</clipPath>
		<clipPath id="SVGID_12_" class="st8">
			<use xlink:href="#SVGID_10_"  style="overflow:visible;"/>
		</clipPath>
		<g transform="matrix(1 0 0 1 0 0)" style="clip-path:url(#SVGID_12_);">
			
				<image style="overflow:visible;" width="7" height="1" xlink:href="F8C99097.jpg"  transform="matrix(0.4286 0 0 -0.5412 88.8635 32.763)">
			</image>
		</g>
	</g>
	<g>
		<defs>
			<polyline id="SVGID_13_" points="107.7,32.4 107.7,31.8 111.5,31.8 111.5,32.4 107.7,32.4 			"/>
		</defs>
		<defs>
			<polygon id="SVGID_14_" points="82.8,0.6 117.2,0.2 117.2,33.9 82.8,34.3 82.8,0.6 			"/>
		</defs>
		<clipPath id="SVGID_15_">
			<use xlink:href="#SVGID_13_"  style="overflow:visible;"/>
		</clipPath>
		<clipPath id="SVGID_16_" class="st9">
			<use xlink:href="#SVGID_14_"  style="overflow:visible;"/>
		</clipPath>
		<g style="clip-path:url(#SVGID_16_);">
			
				<image style="overflow:visible;" width="9" height="1" xlink:href="F8C99090.jpg"  transform="matrix(0.4244 0 0 -0.5412 107.7253 32.3514)">
			</image>
		</g>
	</g>
	<g>
		<defs>
			<polyline id="SVGID_17_" points="88.9,32.4 88.9,31.4 92.7,31.4 92.7,32.4 88.9,32.4 			"/>
		</defs>
		<defs>
			<polygon id="SVGID_18_" points="82.8,0.6 117.2,0.2 117.2,33.9 82.8,34.3 82.8,0.6 			"/>
		</defs>
		<clipPath id="SVGID_19_">
			<use xlink:href="#SVGID_17_"  style="overflow:visible;"/>
		</clipPath>
		<clipPath id="SVGID_20_" class="st10">
			<use xlink:href="#SVGID_18_"  style="overflow:visible;"/>
		</clipPath>
		<g style="clip-path:url(#SVGID_20_);">
			
				<image style="overflow:visible;" width="9" height="2" xlink:href="F8C9909E.jpg"  transform="matrix(0.4244 0 0 -0.4764 88.8635 32.3514)">
			</image>
		</g>
	</g>
	<g>
		<defs>
			<polyline id="SVGID_21_" points="107.3,31.9 107.3,31.4 111.5,31.4 111.5,31.9 107.3,31.9 			"/>
		</defs>
		<defs>
			<polygon id="SVGID_22_" points="82.8,0.6 117.2,0.2 117.2,33.9 82.8,34.3 82.8,0.6 			"/>
		</defs>
		<clipPath id="SVGID_23_">
			<use xlink:href="#SVGID_21_"  style="overflow:visible;"/>
		</clipPath>
		<clipPath id="SVGID_24_" class="st11">
			<use xlink:href="#SVGID_22_"  style="overflow:visible;"/>
		</clipPath>
		<g style="clip-path:url(#SVGID_24_);">
			
				<image style="overflow:visible;" width="10" height="1" xlink:href="F8C9909F.jpg"  transform="matrix(0.423 0 0 -0.5412 107.3157 31.9399)">
			</image>
		</g>
	</g>
	<g>
		<defs>
			<polyline id="SVGID_25_" points="88.9,31.5 88.9,31 93.5,31 93.5,31.5 88.9,31.5 			"/>
		</defs>
		<defs>
			<polygon id="SVGID_26_" points="82.8,0.6 117.2,0.2 117.2,33.9 82.8,34.3 82.8,0.6 			"/>
		</defs>
		<clipPath id="SVGID_27_">
			<use xlink:href="#SVGID_25_"  style="overflow:visible;"/>
		</clipPath>
		<clipPath id="SVGID_28_" class="st12">
			<use xlink:href="#SVGID_26_"  style="overflow:visible;"/>
		</clipPath>
		<g style="clip-path:url(#SVGID_28_);">
			
				<image style="overflow:visible;" width="11" height="1" xlink:href="F8C99092.jpg"  transform="matrix(0.4218 0 0 -0.5412 88.8635 31.5283)">
			</image>
		</g>
	</g>
	<g>
		<defs>
			<polyline id="SVGID_29_" points="106.9,31.5 106.9,31 111.5,31 111.5,31.5 106.9,31.5 			"/>
		</defs>
		<defs>
			<polygon id="SVGID_30_" points="82.8,0.6 117.2,0.2 117.2,33.9 82.8,34.3 82.8,0.6 			"/>
		</defs>
		<clipPath id="SVGID_31_">
			<use xlink:href="#SVGID_29_"  style="overflow:visible;"/>
		</clipPath>
		<clipPath id="SVGID_32_" class="st13">
			<use xlink:href="#SVGID_30_"  style="overflow:visible;"/>
		</clipPath>
		<g style="clip-path:url(#SVGID_32_);">
			
				<image style="overflow:visible;" width="11" height="1" xlink:href="F8C99095.jpg"  transform="matrix(0.4218 0 0 -0.5412 106.9054 31.5283)">
			</image>
		</g>
	</g>
	<g>
		<defs>
			<polyline id="SVGID_33_" points="88.9,31.1 88.9,30.6 94.3,30.6 94.3,31.1 88.9,31.1 			"/>
		</defs>
		<defs>
			<polygon id="SVGID_34_" points="82.8,0.6 117.2,0.2 117.2,33.9 82.8,34.3 82.8,0.6 			"/>
		</defs>
		<clipPath id="SVGID_35_">
			<use xlink:href="#SVGID_33_"  style="overflow:visible;"/>
		</clipPath>
		<clipPath id="SVGID_36_" class="st14">
			<use xlink:href="#SVGID_34_"  style="overflow:visible;"/>
		</clipPath>
		<g style="clip-path:url(#SVGID_36_);">
			
				<image style="overflow:visible;" width="13" height="1" xlink:href="F8C99096.jpg"  transform="matrix(0.42 0 0 -0.5412 88.8635 31.1168)">
			</image>
		</g>
	</g>
	<g>
		<defs>
			<polyline id="SVGID_37_" points="106.1,31.1 106.1,30.6 111.1,30.6 111.1,31.1 106.1,31.1 			"/>
		</defs>
		<defs>
			<polygon id="SVGID_38_" points="82.8,0.6 117.2,0.2 117.2,33.9 82.8,34.3 82.8,0.6 			"/>
		</defs>
		<clipPath id="SVGID_39_">
			<use xlink:href="#SVGID_37_"  style="overflow:visible;"/>
		</clipPath>
		<clipPath id="SVGID_40_" class="st15">
			<use xlink:href="#SVGID_38_"  style="overflow:visible;"/>
		</clipPath>
		<g style="clip-path:url(#SVGID_40_);">
			
				<image style="overflow:visible;" width="12" height="1" xlink:href="F521E540.jpg"  transform="matrix(0.4208 0 0 -0.5412 106.0855 31.1168)">
			</image>
		</g>
	</g>
	<g>
		<defs>
			<polyline id="SVGID_41_" points="89.3,30.7 89.3,30.2 94.7,30.2 94.7,30.7 89.3,30.7 			"/>
		</defs>
		<defs>
			<polygon id="SVGID_42_" points="82.8,0.6 117.2,0.2 117.2,33.9 82.8,34.3 82.8,0.6 			"/>
		</defs>
		<clipPath id="SVGID_43_">
			<use xlink:href="#SVGID_41_"  style="overflow:visible;"/>
		</clipPath>
		<clipPath id="SVGID_44_" class="st16">
			<use xlink:href="#SVGID_42_"  style="overflow:visible;"/>
		</clipPath>
		<g style="clip-path:url(#SVGID_44_);">
			
				<image style="overflow:visible;" width="13" height="1" xlink:href="F521E547.jpg"  transform="matrix(0.42 0 0 -0.5412 89.2737 30.7052)">
			</image>
		</g>
	</g>
	<g>
		<defs>
			<polyline id="SVGID_45_" points="105.7,30.7 105.7,30.2 111.1,30.2 111.1,30.7 105.7,30.7 			"/>
		</defs>
		<defs>
			<polygon id="SVGID_46_" points="82.8,0.6 117.2,0.2 117.2,33.9 82.8,34.3 82.8,0.6 			"/>
		</defs>
		<clipPath id="SVGID_47_">
			<use xlink:href="#SVGID_45_"  style="overflow:visible;"/>
		</clipPath>
		<clipPath id="SVGID_48_" class="st17">
			<use xlink:href="#SVGID_46_"  style="overflow:visible;"/>
		</clipPath>
		<g style="clip-path:url(#SVGID_48_);">
			
				<image style="overflow:visible;" width="13" height="1" xlink:href="F521E541.jpg"  transform="matrix(0.42 0 0 -0.5412 105.6753 30.7052)">
			</image>
		</g>
	</g>
	<g>
		<defs>
			<polyline id="SVGID_49_" points="89.3,30.3 89.3,29.8 95.1,29.8 95.1,30.3 89.3,30.3 			"/>
		</defs>
		<defs>
			<polygon id="SVGID_50_" points="82.8,0.6 117.2,0.2 117.2,33.9 82.8,34.3 82.8,0.6 			"/>
		</defs>
		<clipPath id="SVGID_51_">
			<use xlink:href="#SVGID_49_"  style="overflow:visible;"/>
		</clipPath>
		<clipPath id="SVGID_52_" class="st18">
			<use xlink:href="#SVGID_50_"  style="overflow:visible;"/>
		</clipPath>
		<g style="clip-path:url(#SVGID_52_);">
			
				<image style="overflow:visible;" width="14" height="1" xlink:href="F521E543.jpg"  transform="matrix(0.4193 0 0 -0.5412 89.2737 30.2937)">
			</image>
		</g>
	</g>
	<g>
		<defs>
			<polyline id="SVGID_53_" points="105.3,30.3 105.3,29.8 110.7,29.8 110.7,30.3 105.3,30.3 			"/>
		</defs>
		<defs>
			<polygon id="SVGID_54_" points="82.8,0.6 117.2,0.2 117.2,33.9 82.8,34.3 82.8,0.6 			"/>
		</defs>
		<clipPath id="SVGID_55_">
			<use xlink:href="#SVGID_53_"  style="overflow:visible;"/>
		</clipPath>
		<clipPath id="SVGID_56_" class="st19">
			<use xlink:href="#SVGID_54_"  style="overflow:visible;"/>
		</clipPath>
		<g style="clip-path:url(#SVGID_56_);">
			
				<image style="overflow:visible;" width="13" height="1" xlink:href="F521E55E.jpg"  transform="matrix(0.42 0 0 -0.5412 105.2656 30.2937)">
			</image>
		</g>
	</g>
	<g>
		<defs>
			<polyline id="SVGID_57_" points="89.7,29.9 89.7,29.3 96,29.3 96,29.9 89.7,29.9 			"/>
		</defs>
		<defs>
			<polygon id="SVGID_58_" points="82.8,0.6 117.2,0.2 117.2,33.9 82.8,34.3 82.8,0.6 			"/>
		</defs>
		<clipPath id="SVGID_59_">
			<use xlink:href="#SVGID_57_"  style="overflow:visible;"/>
		</clipPath>
		<clipPath id="SVGID_60_" class="st20">
			<use xlink:href="#SVGID_58_"  style="overflow:visible;"/>
		</clipPath>
		<g style="clip-path:url(#SVGID_60_);">
			
				<image style="overflow:visible;" width="15" height="1" xlink:href="F521E55F.jpg"  transform="matrix(0.4187 0 0 -0.5412 89.684 29.8821)">
			</image>
		</g>
	</g>
	<g>
		<defs>
			<polyline id="SVGID_61_" points="104.4,29.9 104.4,29.3 110.7,29.3 110.7,29.9 104.4,29.9 			"/>
		</defs>
		<defs>
			<polygon id="SVGID_62_" points="82.8,0.6 117.2,0.2 117.2,33.9 82.8,34.3 82.8,0.6 			"/>
		</defs>
		<clipPath id="SVGID_63_">
			<use xlink:href="#SVGID_61_"  style="overflow:visible;"/>
		</clipPath>
		<clipPath id="SVGID_64_" class="st21">
			<use xlink:href="#SVGID_62_"  style="overflow:visible;"/>
		</clipPath>
		<g style="clip-path:url(#SVGID_64_);">
			
				<image style="overflow:visible;" width="15" height="1" xlink:href="F521E542.jpg"  transform="matrix(0.4187 0 0 -0.5412 104.4451 29.8821)">
			</image>
		</g>
	</g>
	<g>
		<defs>
			<polyline id="SVGID_65_" points="89.7,29.5 89.7,28.9 96.4,28.9 96.4,29.5 89.7,29.5 			"/>
		</defs>
		<defs>
			<polygon id="SVGID_66_" points="82.8,0.6 117.2,0.2 117.2,33.9 82.8,34.3 82.8,0.6 			"/>
		</defs>
		<clipPath id="SVGID_67_">
			<use xlink:href="#SVGID_65_"  style="overflow:visible;"/>
		</clipPath>
		<clipPath id="SVGID_68_" class="st22">
			<use xlink:href="#SVGID_66_"  style="overflow:visible;"/>
		</clipPath>
		<g style="clip-path:url(#SVGID_68_);">
			
				<image style="overflow:visible;" width="16" height="1" xlink:href="F521E545.jpg"  transform="matrix(0.4181 0 0 -0.5412 89.684 29.4705)">
			</image>
		</g>
	</g>
	<g>
		<defs>
			<polyline id="SVGID_69_" points="104,29.5 104,28.9 110.7,28.9 110.7,29.5 104,29.5 			"/>
		</defs>
		<defs>
			<polygon id="SVGID_70_" points="82.8,0.6 117.2,0.2 117.2,33.9 82.8,34.3 82.8,0.6 			"/>
		</defs>
		<clipPath id="SVGID_71_">
			<use xlink:href="#SVGID_69_"  style="overflow:visible;"/>
		</clipPath>
		<clipPath id="SVGID_72_" class="st23">
			<use xlink:href="#SVGID_70_"  style="overflow:visible;"/>
		</clipPath>
		<g style="clip-path:url(#SVGID_72_);">
			
				<image style="overflow:visible;" width="16" height="1" xlink:href="F521E546.jpg"  transform="matrix(0.4181 0 0 -0.5412 104.0355 29.4705)">
			</image>
		</g>
	</g>
	<g>
		<defs>
			<polyline id="SVGID_73_" points="89.7,29.1 89.7,28.5 96.8,28.5 96.8,29.1 89.7,29.1 			"/>
		</defs>
		<defs>
			<polygon id="SVGID_74_" points="82.8,0.6 117.2,0.2 117.2,33.9 82.8,34.3 82.8,0.6 			"/>
		</defs>
		<clipPath id="SVGID_75_">
			<use xlink:href="#SVGID_73_"  style="overflow:visible;"/>
		</clipPath>
		<clipPath id="SVGID_76_" class="st24">
			<use xlink:href="#SVGID_74_"  style="overflow:visible;"/>
		</clipPath>
		<g style="clip-path:url(#SVGID_76_);">
			
				<image style="overflow:visible;" width="17" height="1" xlink:href="F521E544.jpg"  transform="matrix(0.4177 0 0 -0.5412 89.684 29.0591)">
			</image>
		</g>
	</g>
	<g>
		<defs>
			<polyline id="SVGID_77_" points="103.2,29.1 103.2,28.5 110.7,28.5 110.7,29.1 103.2,29.1 			"/>
		</defs>
		<defs>
			<polygon id="SVGID_78_" points="82.8,0.6 117.2,0.2 117.2,33.9 82.8,34.3 82.8,0.6 			"/>
		</defs>
		<clipPath id="SVGID_79_">
			<use xlink:href="#SVGID_77_"  style="overflow:visible;"/>
		</clipPath>
		<clipPath id="SVGID_80_" class="st25">
			<use xlink:href="#SVGID_78_"  style="overflow:visible;"/>
		</clipPath>
		<g style="clip-path:url(#SVGID_80_);">
			
				<image style="overflow:visible;" width="18" height="1" xlink:href="F521E57B.jpg"  transform="matrix(0.4172 0 0 -0.5412 103.215 29.0591)">
			</image>
		</g>
	</g>
	<g>
		<defs>
			<polyline id="SVGID_81_" points="89.7,28.6 89.7,28.1 97.6,28.1 97.6,28.6 89.7,28.6 			"/>
		</defs>
		<defs>
			<polygon id="SVGID_82_" points="82.8,0.6 117.2,0.2 117.2,33.9 82.8,34.3 82.8,0.6 			"/>
		</defs>
		<clipPath id="SVGID_83_">
			<use xlink:href="#SVGID_81_"  style="overflow:visible;"/>
		</clipPath>
		<clipPath id="SVGID_84_" class="st26">
			<use xlink:href="#SVGID_82_"  style="overflow:visible;"/>
		</clipPath>
		<g style="clip-path:url(#SVGID_84_);">
			
				<image style="overflow:visible;" width="19" height="1" xlink:href="F521E565.jpg"  transform="matrix(0.4168 0 0 -0.5412 89.684 28.6475)">
			</image>
		</g>
	</g>
	<g>
		<defs>
			<polyline id="SVGID_85_" points="102.8,28.6 102.8,28.1 110.3,28.1 110.3,28.6 102.8,28.6 			"/>
		</defs>
		<defs>
			<polygon id="SVGID_86_" points="82.8,0.6 117.2,0.2 117.2,33.9 82.8,34.3 82.8,0.6 			"/>
		</defs>
		<clipPath id="SVGID_87_">
			<use xlink:href="#SVGID_85_"  style="overflow:visible;"/>
		</clipPath>
		<clipPath id="SVGID_88_" class="st27">
			<use xlink:href="#SVGID_86_"  style="overflow:visible;"/>
		</clipPath>
		<g style="clip-path:url(#SVGID_88_);">
			
				<image style="overflow:visible;" width="18" height="1" xlink:href="F521E567.jpg"  transform="matrix(0.4172 0 0 -0.5412 102.8054 28.6475)">
			</image>
		</g>
	</g>
	<g>
		<defs>
			<polyline id="SVGID_89_" points="90.1,28.2 90.1,27.7 98,27.7 98,28.2 90.1,28.2 			"/>
		</defs>
		<defs>
			<polygon id="SVGID_90_" points="82.8,0.6 117.2,0.2 117.2,33.9 82.8,34.3 82.8,0.6 			"/>
		</defs>
		<clipPath id="SVGID_91_">
			<use xlink:href="#SVGID_89_"  style="overflow:visible;"/>
		</clipPath>
		<clipPath id="SVGID_92_" class="st28">
			<use xlink:href="#SVGID_90_"  style="overflow:visible;"/>
		</clipPath>
		<g style="clip-path:url(#SVGID_92_);">
			
				<image style="overflow:visible;" width="19" height="1" xlink:href="F521E56A.jpg"  transform="matrix(0.4168 0 0 -0.5412 90.0936 28.236)">
			</image>
		</g>
	</g>
	<g>
		<defs>
			<polyline id="SVGID_93_" points="102.4,28.2 102.4,27.7 110.3,27.7 110.3,28.2 102.4,28.2 			"/>
		</defs>
		<defs>
			<polygon id="SVGID_94_" points="82.8,0.6 117.2,0.2 117.2,33.9 82.8,34.3 82.8,0.6 			"/>
		</defs>
		<clipPath id="SVGID_95_">
			<use xlink:href="#SVGID_93_"  style="overflow:visible;"/>
		</clipPath>
		<clipPath id="SVGID_96_" class="st29">
			<use xlink:href="#SVGID_94_"  style="overflow:visible;"/>
		</clipPath>
		<g style="clip-path:url(#SVGID_96_);">
			
				<image style="overflow:visible;" width="19" height="1" xlink:href="F521E56B.jpg"  transform="matrix(0.4168 0 0 -0.5412 102.3951 28.236)">
			</image>
		</g>
	</g>
	<g>
		<defs>
			<polyline id="SVGID_97_" points="90.1,27.8 90.1,27.3 98.8,27.3 98.8,27.8 90.1,27.8 			"/>
		</defs>
		<defs>
			<polygon id="SVGID_98_" points="82.8,0.6 117.2,0.2 117.2,33.9 82.8,34.3 82.8,0.6 			"/>
		</defs>
		<clipPath id="SVGID_99_">
			<use xlink:href="#SVGID_97_"  style="overflow:visible;"/>
		</clipPath>
		<clipPath id="SVGID_100_" class="st30">
			<use xlink:href="#SVGID_98_"  style="overflow:visible;"/>
		</clipPath>
		<g style="clip-path:url(#SVGID_100_);">
			
				<image style="overflow:visible;" width="21" height="1" xlink:href="F521E56D.jpg"  transform="matrix(0.4162 0 0 -0.5412 90.0936 27.8244)">
			</image>
		</g>
	</g>
	<g>
		<defs>
			<polyline id="SVGID_101_" points="101.6,27.8 101.6,27.3 109.9,27.3 109.9,27.8 101.6,27.8 			"/>
		</defs>
		<defs>
			<polygon id="SVGID_102_" points="82.8,0.6 117.2,0.2 117.2,33.9 82.8,34.3 82.8,0.6 			"/>
		</defs>
		<clipPath id="SVGID_103_">
			<use xlink:href="#SVGID_101_"  style="overflow:visible;"/>
		</clipPath>
		<clipPath id="SVGID_104_" class="st31">
			<use xlink:href="#SVGID_102_"  style="overflow:visible;"/>
		</clipPath>
		<g style="clip-path:url(#SVGID_104_);">
			
				<image style="overflow:visible;" width="20" height="1" xlink:href="F521E56F.jpg"  transform="matrix(0.4165 0 0 -0.5412 101.5752 27.8244)">
			</image>
		</g>
	</g>
	<g>
		<defs>
			<polyline id="SVGID_105_" points="90.5,27.4 90.5,26.9 99.2,26.9 99.2,27.4 90.5,27.4 			"/>
		</defs>
		<defs>
			<polygon id="SVGID_106_" points="82.8,0.6 117.2,0.2 117.2,33.9 82.8,34.3 82.8,0.6 			"/>
		</defs>
		<clipPath id="SVGID_107_">
			<use xlink:href="#SVGID_105_"  style="overflow:visible;"/>
		</clipPath>
		<clipPath id="SVGID_108_" class="st32">
			<use xlink:href="#SVGID_106_"  style="overflow:visible;"/>
		</clipPath>
		<g style="clip-path:url(#SVGID_108_);">
			
				<image style="overflow:visible;" width="21" height="1" xlink:href="F521E568.jpg"  transform="matrix(0.4162 0 0 -0.5412 90.5039 27.4129)">
			</image>
		</g>
	</g>
	<g>
		<defs>
			<polyline id="SVGID_109_" points="101.2,27.4 101.2,26.9 109.9,26.9 109.9,27.4 101.2,27.4 			"/>
		</defs>
		<defs>
			<polygon id="SVGID_110_" points="82.8,0.6 117.2,0.2 117.2,33.9 82.8,34.3 82.8,0.6 			"/>
		</defs>
		<clipPath id="SVGID_111_">
			<use xlink:href="#SVGID_109_"  style="overflow:visible;"/>
		</clipPath>
		<clipPath id="SVGID_112_" class="st33">
			<use xlink:href="#SVGID_110_"  style="overflow:visible;"/>
		</clipPath>
		<g style="clip-path:url(#SVGID_112_);">
			
				<image style="overflow:visible;" width="21" height="1" xlink:href="F521E569.jpg"  transform="matrix(0.4162 0 0 -0.5412 101.1649 27.4129)">
			</image>
		</g>
	</g>
	<g>
		<defs>
			<polyline id="SVGID_113_" points="90.5,27 90.5,26.5 100.1,26.5 100.1,27 90.5,27 			"/>
		</defs>
		<defs>
			<polygon id="SVGID_114_" points="82.8,0.6 117.2,0.2 117.2,33.9 82.8,34.3 82.8,0.6 			"/>
		</defs>
		<clipPath id="SVGID_115_">
			<use xlink:href="#SVGID_113_"  style="overflow:visible;"/>
		</clipPath>
		<clipPath id="SVGID_116_" class="st34">
			<use xlink:href="#SVGID_114_"  style="overflow:visible;"/>
		</clipPath>
		<g transform="matrix(1 0 0 1 0 0)" style="clip-path:url(#SVGID_116_);">
			
				<image style="overflow:visible;" width="23" height="1" xlink:href="F521E566.jpg"  transform="matrix(0.4157 0 0 -0.5412 90.5039 27.0013)">
			</image>
		</g>
	</g>
	<g>
		<defs>
			<polyline id="SVGID_117_" points="100.3,27 100.3,26.5 109.9,26.5 109.9,27 100.3,27 			"/>
		</defs>
		<defs>
			<polygon id="SVGID_118_" points="82.8,0.6 117.2,0.2 117.2,33.9 82.8,34.3 82.8,0.6 			"/>
		</defs>
		<clipPath id="SVGID_119_">
			<use xlink:href="#SVGID_117_"  style="overflow:visible;"/>
		</clipPath>
		<clipPath id="SVGID_120_" class="st35">
			<use xlink:href="#SVGID_118_"  style="overflow:visible;"/>
		</clipPath>
		<g transform="matrix(1 0 0 1 0 0)" style="clip-path:url(#SVGID_120_);">
			
				<image style="overflow:visible;" width="23" height="1" xlink:href="F521E58A.jpg"  transform="matrix(0.4157 0 0 -0.5412 100.3451 27.0013)">
			</image>
		</g>
	</g>
	<g>
		<defs>
			<polyline id="SVGID_121_" points="90.5,26.6 90.5,26 109.9,26 109.9,26.6 90.5,26.6 			"/>
		</defs>
		<defs>
			<polygon id="SVGID_122_" points="82.8,0.6 117.2,0.2 117.2,33.9 82.8,34.3 82.8,0.6 			"/>
		</defs>
		<clipPath id="SVGID_123_">
			<use xlink:href="#SVGID_121_"  style="overflow:visible;"/>
		</clipPath>
		<clipPath id="SVGID_124_" class="st36">
			<use xlink:href="#SVGID_122_"  style="overflow:visible;"/>
		</clipPath>
		<g transform="matrix(1 0 0 1 0 0)" style="clip-path:url(#SVGID_124_);">
			
				<image style="overflow:visible;" width="47" height="1" xlink:href="F521E5B5.jpg"  transform="matrix(0.4128 0 0 -0.5412 90.5039 26.5898)">
			</image>
		</g>
	</g>
	<g>
		<defs>
			<polyline id="SVGID_125_" points="90.5,26.2 90.5,25.2 109.5,25.2 109.5,26.2 90.5,26.2 			"/>
		</defs>
		<defs>
			<polygon id="SVGID_126_" points="82.8,0.6 117.2,0.2 117.2,33.9 82.8,34.3 82.8,0.6 			"/>
		</defs>
		<clipPath id="SVGID_127_">
			<use xlink:href="#SVGID_125_"  style="overflow:visible;"/>
		</clipPath>
		<clipPath id="SVGID_128_" class="st37">
			<use xlink:href="#SVGID_126_"  style="overflow:visible;"/>
		</clipPath>
		<g style="clip-path:url(#SVGID_128_);">
			
				<image style="overflow:visible;" width="46" height="2" xlink:href="F521E5B6.jpg"  transform="matrix(0.4129 0 0 -0.4764 90.5039 26.1782)">
			</image>
		</g>
	</g>
	<g>
		<defs>
			<polyline id="SVGID_129_" points="90.9,25.4 90.9,24.8 109.5,24.8 109.5,25.4 90.9,25.4 			"/>
		</defs>
		<defs>
			<polygon id="SVGID_130_" points="82.8,0.6 117.2,0.2 117.2,33.9 82.8,34.3 82.8,0.6 			"/>
		</defs>
		<clipPath id="SVGID_131_">
			<use xlink:href="#SVGID_129_"  style="overflow:visible;"/>
		</clipPath>
		<clipPath id="SVGID_132_" class="st38">
			<use xlink:href="#SVGID_130_"  style="overflow:visible;"/>
		</clipPath>
		<g style="clip-path:url(#SVGID_132_);">
			
				<image style="overflow:visible;" width="45" height="1" xlink:href="F521E5B4.jpg"  transform="matrix(0.4129 0 0 -0.5412 90.9141 25.355)">
			</image>
		</g>
	</g>
	<g>
		<defs>
			<polyline id="SVGID_133_" points="90.9,24.9 90.9,24 109.1,24 109.1,24.9 90.9,24.9 			"/>
		</defs>
		<defs>
			<polygon id="SVGID_134_" points="82.8,0.6 117.2,0.2 117.2,33.9 82.8,34.3 82.8,0.6 			"/>
		</defs>
		<clipPath id="SVGID_135_">
			<use xlink:href="#SVGID_133_"  style="overflow:visible;"/>
		</clipPath>
		<clipPath id="SVGID_136_" class="st39">
			<use xlink:href="#SVGID_134_"  style="overflow:visible;"/>
		</clipPath>
		<g transform="matrix(1 0 0 1 0 0)" style="clip-path:url(#SVGID_136_);">
			
				<image style="overflow:visible;" width="44" height="2" xlink:href="F521E5BA.jpg"  transform="matrix(0.413 0 0 -0.4764 90.9141 24.9435)">
			</image>
		</g>
	</g>
	<g>
		<defs>
			<polyline id="SVGID_137_" points="91.3,24.1 91.3,23.2 109.1,23.2 109.1,24.1 91.3,24.1 			"/>
		</defs>
		<defs>
			<polygon id="SVGID_138_" points="82.8,0.6 117.2,0.2 117.2,33.9 82.8,34.3 82.8,0.6 			"/>
		</defs>
		<clipPath id="SVGID_139_">
			<use xlink:href="#SVGID_137_"  style="overflow:visible;"/>
		</clipPath>
		<clipPath id="SVGID_140_" class="st40">
			<use xlink:href="#SVGID_138_"  style="overflow:visible;"/>
		</clipPath>
		<g style="clip-path:url(#SVGID_140_);">
			
				<image style="overflow:visible;" width="43" height="2" xlink:href="F521E5BD.jpg"  transform="matrix(0.413 0 0 -0.4764 91.3238 24.1204)">
			</image>
		</g>
	</g>
	<g>
		<defs>
			<polyline id="SVGID_141_" points="91.7,23.3 91.7,22.3 108.7,22.3 108.7,23.3 91.7,23.3 			"/>
		</defs>
		<defs>
			<polygon id="SVGID_142_" points="82.8,0.6 117.2,0.2 117.2,33.9 82.8,34.3 82.8,0.6 			"/>
		</defs>
		<clipPath id="SVGID_143_">
			<use xlink:href="#SVGID_141_"  style="overflow:visible;"/>
		</clipPath>
		<clipPath id="SVGID_144_" class="st41">
			<use xlink:href="#SVGID_142_"  style="overflow:visible;"/>
		</clipPath>
		<g style="clip-path:url(#SVGID_144_);">
			
				<image style="overflow:visible;" width="41" height="2" xlink:href="F521E5BE.jpg"  transform="matrix(0.4132 0 0 -0.4764 91.734 23.2973)">
			</image>
		</g>
	</g>
	<g>
		<defs>
			<polyline id="SVGID_145_" points="91.7,22.5 91.7,21.5 108.3,21.5 108.3,22.5 91.7,22.5 			"/>
		</defs>
		<defs>
			<polygon id="SVGID_146_" points="82.8,0.6 117.2,0.2 117.2,33.9 82.8,34.3 82.8,0.6 			"/>
		</defs>
		<clipPath id="SVGID_147_">
			<use xlink:href="#SVGID_145_"  style="overflow:visible;"/>
		</clipPath>
		<clipPath id="SVGID_148_" class="st42">
			<use xlink:href="#SVGID_146_"  style="overflow:visible;"/>
		</clipPath>
		<g style="clip-path:url(#SVGID_148_);">
			
				<image style="overflow:visible;" width="40" height="2" xlink:href="F521E5BC.jpg"  transform="matrix(0.4133 0 0 -0.4764 91.734 22.4743)">
			</image>
		</g>
	</g>
	<g>
		<defs>
			<polyline id="SVGID_149_" points="92.1,21.7 92.1,20.7 107.9,20.7 107.9,21.7 92.1,21.7 			"/>
		</defs>
		<defs>
			<polygon id="SVGID_150_" points="82.8,0.6 117.2,0.2 117.2,33.9 82.8,34.3 82.8,0.6 			"/>
		</defs>
		<clipPath id="SVGID_151_">
			<use xlink:href="#SVGID_149_"  style="overflow:visible;"/>
		</clipPath>
		<clipPath id="SVGID_152_" class="st43">
			<use xlink:href="#SVGID_150_"  style="overflow:visible;"/>
		</clipPath>
		<g style="clip-path:url(#SVGID_152_);">
			
				<image style="overflow:visible;" width="38" height="2" xlink:href="F521E5BB.jpg"  transform="matrix(0.4134 0 0 -0.4764 92.1443 21.6511)">
			</image>
		</g>
	</g>
	<g>
		<defs>
			<polyline id="SVGID_153_" points="91.7,20.8 91.7,20.3 108.7,20.3 108.7,20.8 91.7,20.8 			"/>
		</defs>
		<defs>
			<polygon id="SVGID_154_" points="82.8,0.6 117.2,0.2 117.2,33.9 82.8,34.3 82.8,0.6 			"/>
		</defs>
		<clipPath id="SVGID_155_">
			<use xlink:href="#SVGID_153_"  style="overflow:visible;"/>
		</clipPath>
		<clipPath id="SVGID_156_" class="st44">
			<use xlink:href="#SVGID_154_"  style="overflow:visible;"/>
		</clipPath>
		<g style="clip-path:url(#SVGID_156_);">
			
				<image style="overflow:visible;" width="41" height="1" xlink:href="F521E5B7.jpg"  transform="matrix(0.4132 0 0 -0.5412 91.734 20.8279)">
			</image>
		</g>
	</g>
	<g>
		<defs>
			<polyline id="SVGID_157_" points="91.3,20.4 91.3,19.9 109.1,19.9 109.1,20.4 91.3,20.4 			"/>
		</defs>
		<defs>
			<polygon id="SVGID_158_" points="82.8,0.6 117.2,0.2 117.2,33.9 82.8,34.3 82.8,0.6 			"/>
		</defs>
		<clipPath id="SVGID_159_">
			<use xlink:href="#SVGID_157_"  style="overflow:visible;"/>
		</clipPath>
		<clipPath id="SVGID_160_" class="st45">
			<use xlink:href="#SVGID_158_"  style="overflow:visible;"/>
		</clipPath>
		<g style="clip-path:url(#SVGID_160_);">
			
				<image style="overflow:visible;" width="43" height="1" xlink:href="F521E591.jpg"  transform="matrix(0.413 0 0 -0.5412 91.3238 20.4164)">
			</image>
		</g>
	</g>
	<g>
		<defs>
			<polyline id="SVGID_161_" points="90.5,20 90.5,19.5 109.9,19.5 109.9,20 90.5,20 			"/>
		</defs>
		<defs>
			<polygon id="SVGID_162_" points="82.8,0.6 117.2,0.2 117.2,33.9 82.8,34.3 82.8,0.6 			"/>
		</defs>
		<clipPath id="SVGID_163_">
			<use xlink:href="#SVGID_161_"  style="overflow:visible;"/>
		</clipPath>
		<clipPath id="SVGID_164_" class="st46">
			<use xlink:href="#SVGID_162_"  style="overflow:visible;"/>
		</clipPath>
		<g transform="matrix(1 0 0 1 0 0)" style="clip-path:url(#SVGID_164_);">
			
				<image style="overflow:visible;" width="47" height="1" xlink:href="F521E593.jpg"  transform="matrix(0.4128 0 0 -0.5412 90.5039 20.0048)">
			</image>
		</g>
	</g>
	<g>
		<defs>
			<polyline id="SVGID_165_" points="90.1,19.6 90.1,19.1 109.9,19.1 109.9,19.6 90.1,19.6 			"/>
		</defs>
		<defs>
			<polygon id="SVGID_166_" points="82.8,0.6 117.2,0.2 117.2,33.9 82.8,34.3 82.8,0.6 			"/>
		</defs>
		<clipPath id="SVGID_167_">
			<use xlink:href="#SVGID_165_"  style="overflow:visible;"/>
		</clipPath>
		<clipPath id="SVGID_168_" class="st47">
			<use xlink:href="#SVGID_166_"  style="overflow:visible;"/>
		</clipPath>
		<g style="clip-path:url(#SVGID_168_);">
			
				<image style="overflow:visible;" width="48" height="1" xlink:href="F521E590.jpg"  transform="matrix(0.4127 0 0 -0.5412 90.0936 19.5933)">
			</image>
		</g>
	</g>
	<g>
		<defs>
			<polyline id="SVGID_169_" points="89.7,19.2 89.7,18.6 110.7,18.6 110.7,19.2 89.7,19.2 			"/>
		</defs>
		<defs>
			<polygon id="SVGID_170_" points="82.8,0.6 117.2,0.2 117.2,33.9 82.8,34.3 82.8,0.6 			"/>
		</defs>
		<clipPath id="SVGID_171_">
			<use xlink:href="#SVGID_169_"  style="overflow:visible;"/>
		</clipPath>
		<clipPath id="SVGID_172_" class="st48">
			<use xlink:href="#SVGID_170_"  style="overflow:visible;"/>
		</clipPath>
		<g style="clip-path:url(#SVGID_172_);">
			
				<image style="overflow:visible;" width="51" height="1" xlink:href="F521E597.jpg"  transform="matrix(0.4126 0 0 -0.5412 89.684 19.1818)">
			</image>
		</g>
	</g>
	<g>
		<defs>
			<polyline id="SVGID_173_" points="88.9,18.8 88.9,18.2 111.1,18.2 111.1,18.8 88.9,18.8 			"/>
		</defs>
		<defs>
			<polygon id="SVGID_174_" points="82.8,0.6 117.2,0.2 117.2,33.9 82.8,34.3 82.8,0.6 			"/>
		</defs>
		<clipPath id="SVGID_175_">
			<use xlink:href="#SVGID_173_"  style="overflow:visible;"/>
		</clipPath>
		<clipPath id="SVGID_176_" class="st49">
			<use xlink:href="#SVGID_174_"  style="overflow:visible;"/>
		</clipPath>
		<g style="clip-path:url(#SVGID_176_);">
			
				<image style="overflow:visible;" width="54" height="1" xlink:href="F521E592.jpg"  transform="matrix(0.4124 0 0 -0.5412 88.8635 18.7703)">
			</image>
		</g>
	</g>
	<g>
		<defs>
			<polyline id="SVGID_177_" points="88.9,18.4 88.9,17.8 111.5,17.8 111.5,18.4 88.9,18.4 			"/>
		</defs>
		<defs>
			<polygon id="SVGID_178_" points="82.8,0.6 117.2,0.2 117.2,33.9 82.8,34.3 82.8,0.6 			"/>
		</defs>
		<clipPath id="SVGID_179_">
			<use xlink:href="#SVGID_177_"  style="overflow:visible;"/>
		</clipPath>
		<clipPath id="SVGID_180_" class="st50">
			<use xlink:href="#SVGID_178_"  style="overflow:visible;"/>
		</clipPath>
		<g style="clip-path:url(#SVGID_180_);">
			
				<image style="overflow:visible;" width="55" height="1" xlink:href="F521E58E.jpg"  transform="matrix(0.4124 0 0 -0.5412 88.8635 18.3587)">
			</image>
		</g>
	</g>
	<g>
		<defs>
			<polyline id="SVGID_181_" points="88,17.9 88,17.4 112.4,17.4 112.4,17.9 88,17.9 			"/>
		</defs>
		<defs>
			<polygon id="SVGID_182_" points="82.8,0.6 117.2,0.2 117.2,33.9 82.8,34.3 82.8,0.6 			"/>
		</defs>
		<clipPath id="SVGID_183_">
			<use xlink:href="#SVGID_181_"  style="overflow:visible;"/>
		</clipPath>
		<clipPath id="SVGID_184_" class="st51">
			<use xlink:href="#SVGID_182_"  style="overflow:visible;"/>
		</clipPath>
		<g style="clip-path:url(#SVGID_184_);">
			
				<image style="overflow:visible;" width="59" height="1" xlink:href="F521E58F.jpg"  transform="matrix(0.4122 0 0 -0.5412 88.0436 17.9472)">
			</image>
		</g>
	</g>
	<g>
		<defs>
			<polyline id="SVGID_185_" points="87.6,17.5 87.6,17 112.4,17 112.4,17.5 87.6,17.5 			"/>
		</defs>
		<defs>
			<polygon id="SVGID_186_" points="82.8,0.6 117.2,0.2 117.2,33.9 82.8,34.3 82.8,0.6 			"/>
		</defs>
		<clipPath id="SVGID_187_">
			<use xlink:href="#SVGID_185_"  style="overflow:visible;"/>
		</clipPath>
		<clipPath id="SVGID_188_" class="st52">
			<use xlink:href="#SVGID_186_"  style="overflow:visible;"/>
		</clipPath>
		<g style="clip-path:url(#SVGID_188_);">
			
				<image style="overflow:visible;" width="60" height="1" xlink:href="F521E5EF.jpg"  transform="matrix(0.4122 0 0 -0.5412 87.6334 17.5356)">
			</image>
		</g>
	</g>
	<g>
		<defs>
			<polyline id="SVGID_189_" points="86.8,17.1 86.8,16.6 113.6,16.6 113.6,17.1 86.8,17.1 			"/>
		</defs>
		<defs>
			<polygon id="SVGID_190_" points="82.8,0.6 117.2,0.2 117.2,33.9 82.8,34.3 82.8,0.6 			"/>
		</defs>
		<clipPath id="SVGID_191_">
			<use xlink:href="#SVGID_189_"  style="overflow:visible;"/>
		</clipPath>
		<clipPath id="SVGID_192_" class="st53">
			<use xlink:href="#SVGID_190_"  style="overflow:visible;"/>
		</clipPath>
		<g style="clip-path:url(#SVGID_192_);">
			
				<image style="overflow:visible;" width="65" height="1" xlink:href="F521E5F1.jpg"  transform="matrix(0.412 0 0 -0.5412 86.8134 17.124)">
			</image>
		</g>
	</g>
	<g>
		<defs>
			<polyline id="SVGID_193_" points="86,16.7 86,16.2 113.6,16.2 113.6,16.7 86,16.7 			"/>
		</defs>
		<defs>
			<polygon id="SVGID_194_" points="82.8,0.6 117.2,0.2 117.2,33.9 82.8,34.3 82.8,0.6 			"/>
		</defs>
		<clipPath id="SVGID_195_">
			<use xlink:href="#SVGID_193_"  style="overflow:visible;"/>
		</clipPath>
		<clipPath id="SVGID_196_" class="st54">
			<use xlink:href="#SVGID_194_"  style="overflow:visible;"/>
		</clipPath>
		<g transform="matrix(1 0 0 1 0 0)" style="clip-path:url(#SVGID_196_);">
			
				<image style="overflow:visible;" width="67" height="1" xlink:href="F521E5F3.jpg"  transform="matrix(0.412 0 0 -0.5412 85.9935 16.7125)">
			</image>
		</g>
	</g>
	<g>
		<defs>
			<polyline id="SVGID_197_" points="85.6,16.3 85.6,15.8 114.4,15.8 114.4,16.3 85.6,16.3 			"/>
		</defs>
		<defs>
			<polygon id="SVGID_198_" points="82.8,0.6 117.2,0.2 117.2,33.9 82.8,34.3 82.8,0.6 			"/>
		</defs>
		<clipPath id="SVGID_199_">
			<use xlink:href="#SVGID_197_"  style="overflow:visible;"/>
		</clipPath>
		<clipPath id="SVGID_200_" class="st55">
			<use xlink:href="#SVGID_198_"  style="overflow:visible;"/>
		</clipPath>
		<g transform="matrix(1 0 0 1 0 0)" style="clip-path:url(#SVGID_200_);">
			
				<image style="overflow:visible;" width="70" height="1" xlink:href="F521E5EC.jpg"  transform="matrix(0.4119 0 0 -0.5412 85.5834 16.3009)">
			</image>
		</g>
	</g>
	<g>
		<defs>
			<polyline id="SVGID_201_" points="85.2,15.9 85.2,15.3 114.8,15.3 114.8,15.9 85.2,15.9 			"/>
		</defs>
		<defs>
			<polygon id="SVGID_202_" points="82.8,0.6 117.2,0.2 117.2,33.9 82.8,34.3 82.8,0.6 			"/>
		</defs>
		<clipPath id="SVGID_203_">
			<use xlink:href="#SVGID_201_"  style="overflow:visible;"/>
		</clipPath>
		<clipPath id="SVGID_204_" class="st56">
			<use xlink:href="#SVGID_202_"  style="overflow:visible;"/>
		</clipPath>
		<g transform="matrix(1 0 0 1 0 0)" style="clip-path:url(#SVGID_204_);">
			
				<image style="overflow:visible;" width="72" height="1" xlink:href="F521E5EB.jpg"  transform="matrix(0.4118 0 0 -0.5412 85.1731 15.8893)">
			</image>
		</g>
	</g>
	<g>
		<defs>
			<polyline id="SVGID_205_" points="84.4,15.5 84.4,14.9 115.6,14.9 115.6,15.5 84.4,15.5 			"/>
		</defs>
		<defs>
			<polygon id="SVGID_206_" points="82.8,0.6 117.2,0.2 117.2,33.9 82.8,34.3 82.8,0.6 			"/>
		</defs>
		<clipPath id="SVGID_207_">
			<use xlink:href="#SVGID_205_"  style="overflow:visible;"/>
		</clipPath>
		<clipPath id="SVGID_208_" class="st57">
			<use xlink:href="#SVGID_206_"  style="overflow:visible;"/>
		</clipPath>
		<g transform="matrix(1 0 0 1 0 0)" style="clip-path:url(#SVGID_208_);">
			
				<image style="overflow:visible;" width="76" height="1" xlink:href="F521E5D4.jpg"  transform="matrix(0.4117 0 0 -0.5412 84.3532 15.4778)">
			</image>
		</g>
	</g>
	<g>
		<defs>
			<polyline id="SVGID_209_" points="83.9,15.1 83.9,14.5 116.1,14.5 116.1,15.1 83.9,15.1 			"/>
		</defs>
		<defs>
			<polygon id="SVGID_210_" points="82.8,0.6 117.2,0.2 117.2,33.9 82.8,34.3 82.8,0.6 			"/>
		</defs>
		<clipPath id="SVGID_211_">
			<use xlink:href="#SVGID_209_"  style="overflow:visible;"/>
		</clipPath>
		<clipPath id="SVGID_212_" class="st58">
			<use xlink:href="#SVGID_210_"  style="overflow:visible;"/>
		</clipPath>
		<g transform="matrix(1 0 0 1 0 0)" style="clip-path:url(#SVGID_212_);">
			
				<image style="overflow:visible;" width="78" height="1" xlink:href="F521E5D7.jpg"  transform="matrix(0.4117 0 0 -0.5412 83.943 15.0662)">
			</image>
		</g>
	</g>
	<g>
		<defs>
			<polyline id="SVGID_213_" points="83.5,14.7 83.5,14.1 116.1,14.1 116.1,14.7 83.5,14.7 			"/>
		</defs>
		<defs>
			<polygon id="SVGID_214_" points="82.8,0.6 117.2,0.2 117.2,33.9 82.8,34.3 82.8,0.6 			"/>
		</defs>
		<clipPath id="SVGID_215_">
			<use xlink:href="#SVGID_213_"  style="overflow:visible;"/>
		</clipPath>
		<clipPath id="SVGID_216_" class="st59">
			<use xlink:href="#SVGID_214_"  style="overflow:visible;"/>
		</clipPath>
		<g style="clip-path:url(#SVGID_216_);">
			
				<image style="overflow:visible;" width="79" height="1" xlink:href="F521E5D5.jpg"  transform="matrix(0.4117 0 0 -0.5412 83.5333 14.6547)">
			</image>
		</g>
	</g>
	<g>
		<defs>
			<polyline id="SVGID_217_" points="83.1,14.2 83.1,13.7 116.9,13.7 116.9,14.2 83.1,14.2 			"/>
		</defs>
		<defs>
			<polygon id="SVGID_218_" points="82.8,0.6 117.2,0.2 117.2,33.9 82.8,34.3 82.8,0.6 			"/>
		</defs>
		<clipPath id="SVGID_219_">
			<use xlink:href="#SVGID_217_"  style="overflow:visible;"/>
		</clipPath>
		<clipPath id="SVGID_220_" class="st60">
			<use xlink:href="#SVGID_218_"  style="overflow:visible;"/>
		</clipPath>
		<g style="clip-path:url(#SVGID_220_);">
			
				<image style="overflow:visible;" width="82" height="1" xlink:href="F521E5DB.jpg"  transform="matrix(0.4116 0 0 -0.5412 83.1231 14.2431)">
			</image>
		</g>
	</g>
	<g>
		<defs>
			<polyline id="SVGID_221_" points="82.8,13.8 82.8,11.6 117.2,11.6 117.2,13.8 82.8,13.8 			"/>
		</defs>
		<defs>
			<polygon id="SVGID_222_" points="82.8,0.6 117.2,0.2 117.2,33.9 82.8,34.3 82.8,0.6 			"/>
		</defs>
		<clipPath id="SVGID_223_">
			<use xlink:href="#SVGID_221_"  style="overflow:visible;"/>
		</clipPath>
		<clipPath id="SVGID_224_" class="st61">
			<use xlink:href="#SVGID_222_"  style="overflow:visible;"/>
		</clipPath>
		<g style="clip-path:url(#SVGID_224_);">
			
				<image style="overflow:visible;" width="83" height="5" xlink:href="F521E5DC.jpg"  transform="matrix(0.415 0 0 -0.4375 82.778 13.8316)">
			</image>
		</g>
	</g>
	<g>
		<defs>
			<polyline id="SVGID_225_" points="95,11.8 95,10.8 105,10.8 105,11.8 95,11.8 			"/>
		</defs>
		<defs>
			<polygon id="SVGID_226_" points="82.8,0.6 117.2,0.2 117.2,33.9 82.8,34.3 82.8,0.6 			"/>
		</defs>
		<clipPath id="SVGID_227_">
			<use xlink:href="#SVGID_225_"  style="overflow:visible;"/>
		</clipPath>
		<clipPath id="SVGID_228_" class="st62">
			<use xlink:href="#SVGID_226_"  style="overflow:visible;"/>
		</clipPath>
		<g style="clip-path:url(#SVGID_228_);">
			
				<image style="overflow:visible;" width="24" height="2" xlink:href="F521E5DF.jpg"  transform="matrix(0.4154 0 0 -0.4764 95.0142 11.7739)">
			</image>
		</g>
	</g>
	<g>
		<defs>
			<polyline id="SVGID_229_" points="95.4,11 95.4,10 104.6,10 104.6,11 95.4,11 			"/>
		</defs>
		<defs>
			<polygon id="SVGID_230_" points="82.8,0.6 117.2,0.2 117.2,33.9 82.8,34.3 82.8,0.6 			"/>
		</defs>
		<clipPath id="SVGID_231_">
			<use xlink:href="#SVGID_229_"  style="overflow:visible;"/>
		</clipPath>
		<clipPath id="SVGID_232_" class="st63">
			<use xlink:href="#SVGID_230_"  style="overflow:visible;"/>
		</clipPath>
		<g style="clip-path:url(#SVGID_232_);">
			
				<image style="overflow:visible;" width="22" height="2" xlink:href="F521E5DD.jpg"  transform="matrix(0.4159 0 0 -0.4764 95.4244 10.9507)">
			</image>
		</g>
	</g>
	<g>
		<defs>
			<polyline id="SVGID_233_" points="95.8,10.1 95.8,9.2 104.6,9.2 104.6,10.1 95.8,10.1 			"/>
		</defs>
		<defs>
			<polygon id="SVGID_234_" points="82.8,0.6 117.2,0.2 117.2,33.9 82.8,34.3 82.8,0.6 			"/>
		</defs>
		<clipPath id="SVGID_235_">
			<use xlink:href="#SVGID_233_"  style="overflow:visible;"/>
		</clipPath>
		<clipPath id="SVGID_236_" class="st64">
			<use xlink:href="#SVGID_234_"  style="overflow:visible;"/>
		</clipPath>
		<g style="clip-path:url(#SVGID_236_);">
			
				<image style="overflow:visible;" width="21" height="2" xlink:href="F521E5DA.jpg"  transform="matrix(0.4162 0 0 -0.4764 95.834 10.1275)">
			</image>
		</g>
	</g>
	<g>
		<defs>
			<polyline id="SVGID_237_" points="96.2,9.3 96.2,8.4 104.2,8.4 104.2,9.3 96.2,9.3 			"/>
		</defs>
		<defs>
			<polygon id="SVGID_238_" points="82.8,0.6 117.2,0.2 117.2,33.9 82.8,34.3 82.8,0.6 			"/>
		</defs>
		<clipPath id="SVGID_239_">
			<use xlink:href="#SVGID_237_"  style="overflow:visible;"/>
		</clipPath>
		<clipPath id="SVGID_240_" class="st65">
			<use xlink:href="#SVGID_238_"  style="overflow:visible;"/>
		</clipPath>
		<g style="clip-path:url(#SVGID_240_);">
			
				<image style="overflow:visible;" width="19" height="2" xlink:href="F521E63F.jpg"  transform="matrix(0.4168 0 0 -0.4764 96.2443 9.3045)">
			</image>
		</g>
	</g>
	<g>
		<defs>
			<polyline id="SVGID_241_" points="96.2,8.5 96.2,7.9 103.8,7.9 103.8,8.5 96.2,8.5 			"/>
		</defs>
		<defs>
			<polygon id="SVGID_242_" points="82.8,0.6 117.2,0.2 117.2,33.9 82.8,34.3 82.8,0.6 			"/>
		</defs>
		<clipPath id="SVGID_243_">
			<use xlink:href="#SVGID_241_"  style="overflow:visible;"/>
		</clipPath>
		<clipPath id="SVGID_244_" class="st66">
			<use xlink:href="#SVGID_242_"  style="overflow:visible;"/>
		</clipPath>
		<g style="clip-path:url(#SVGID_244_);">
			
				<image style="overflow:visible;" width="18" height="1" xlink:href="F521E639.jpg"  transform="matrix(0.4172 0 0 -0.5412 96.2443 8.4814)">
			</image>
		</g>
	</g>
	<g>
		<defs>
			<polyline id="SVGID_245_" points="96.2,8.1 96.2,7.1 103.3,7.1 103.3,8.1 96.2,8.1 			"/>
		</defs>
		<defs>
			<polygon id="SVGID_246_" points="82.8,0.6 117.2,0.2 117.2,33.9 82.8,34.3 82.8,0.6 			"/>
		</defs>
		<clipPath id="SVGID_247_">
			<use xlink:href="#SVGID_245_"  style="overflow:visible;"/>
		</clipPath>
		<clipPath id="SVGID_248_" class="st67">
			<use xlink:href="#SVGID_246_"  style="overflow:visible;"/>
		</clipPath>
		<g style="clip-path:url(#SVGID_248_);">
			
				<image style="overflow:visible;" width="17" height="2" xlink:href="F521E63B.jpg"  transform="matrix(0.4177 0 0 -0.4764 96.2443 8.0699)">
			</image>
		</g>
	</g>
	<g>
		<defs>
			<polyline id="SVGID_249_" points="96.7,7.2 96.7,6.3 103.3,6.3 103.3,7.2 96.7,7.2 			"/>
		</defs>
		<defs>
			<polygon id="SVGID_250_" points="82.8,0.6 117.2,0.2 117.2,33.9 82.8,34.3 82.8,0.6 			"/>
		</defs>
		<clipPath id="SVGID_251_">
			<use xlink:href="#SVGID_249_"  style="overflow:visible;"/>
		</clipPath>
		<clipPath id="SVGID_252_" class="st68">
			<use xlink:href="#SVGID_250_"  style="overflow:visible;"/>
		</clipPath>
		<g style="clip-path:url(#SVGID_252_);">
			
				<image style="overflow:visible;" width="16" height="2" xlink:href="F521E646.jpg"  transform="matrix(0.4181 0 0 -0.4764 96.6545 7.2468)">
			</image>
		</g>
	</g>
	<g>
		<defs>
			<polyline id="SVGID_253_" points="97.1,6.4 97.1,5.9 103.3,5.9 103.3,6.4 97.1,6.4 			"/>
		</defs>
		<defs>
			<polygon id="SVGID_254_" points="82.8,0.6 117.2,0.2 117.2,33.9 82.8,34.3 82.8,0.6 			"/>
		</defs>
		<clipPath id="SVGID_255_">
			<use xlink:href="#SVGID_253_"  style="overflow:visible;"/>
		</clipPath>
		<clipPath id="SVGID_256_" class="st69">
			<use xlink:href="#SVGID_254_"  style="overflow:visible;"/>
		</clipPath>
		<g style="clip-path:url(#SVGID_256_);">
			
				<image style="overflow:visible;" width="15" height="1" xlink:href="F521E647.jpg"  transform="matrix(0.4187 0 0 -0.5412 97.0642 6.4237)">
			</image>
		</g>
	</g>
	<g>
		<defs>
			<polyline id="SVGID_257_" points="97.1,6 97.1,5.5 102.9,5.5 102.9,6 97.1,6 			"/>
		</defs>
		<defs>
			<polygon id="SVGID_258_" points="82.8,0.6 117.2,0.2 117.2,33.9 82.8,34.3 82.8,0.6 			"/>
		</defs>
		<clipPath id="SVGID_259_">
			<use xlink:href="#SVGID_257_"  style="overflow:visible;"/>
		</clipPath>
		<clipPath id="SVGID_260_" class="st70">
			<use xlink:href="#SVGID_258_"  style="overflow:visible;"/>
		</clipPath>
		<g style="clip-path:url(#SVGID_260_);">
			
				<image style="overflow:visible;" width="14" height="1" xlink:href="F521E649.jpg"  transform="matrix(0.4193 0 0 -0.5412 97.0642 6.0121)">
			</image>
		</g>
	</g>
	<g>
		<defs>
			<polyline id="SVGID_261_" points="97.1,5.6 97.1,5.1 102.5,5.1 102.5,5.6 97.1,5.6 			"/>
		</defs>
		<defs>
			<polygon id="SVGID_262_" points="82.8,0.6 117.2,0.2 117.2,33.9 82.8,34.3 82.8,0.6 			"/>
		</defs>
		<clipPath id="SVGID_263_">
			<use xlink:href="#SVGID_261_"  style="overflow:visible;"/>
		</clipPath>
		<clipPath id="SVGID_264_" class="st71">
			<use xlink:href="#SVGID_262_"  style="overflow:visible;"/>
		</clipPath>
		<g style="clip-path:url(#SVGID_264_);">
			
				<image style="overflow:visible;" width="13" height="1" xlink:href="F521E64B.jpg"  transform="matrix(0.42 0 0 -0.5412 97.0642 5.6005)">
			</image>
		</g>
	</g>
	<g>
		<defs>
			<polyline id="SVGID_265_" points="97.5,5.2 97.5,4.2 102.5,4.2 102.5,5.2 97.5,5.2 			"/>
		</defs>
		<defs>
			<polygon id="SVGID_266_" points="82.8,0.6 117.2,0.2 117.2,33.9 82.8,34.3 82.8,0.6 			"/>
		</defs>
		<clipPath id="SVGID_267_">
			<use xlink:href="#SVGID_265_"  style="overflow:visible;"/>
		</clipPath>
		<clipPath id="SVGID_268_" class="st72">
			<use xlink:href="#SVGID_266_"  style="overflow:visible;"/>
		</clipPath>
		<g style="clip-path:url(#SVGID_268_);">
			
				<image style="overflow:visible;" width="12" height="2" xlink:href="F521E64E.jpg"  transform="matrix(0.4208 0 0 -0.4764 97.4744 5.1889)">
			</image>
		</g>
	</g>
	<g>
		<defs>
			<polyline id="SVGID_269_" points="97.9,4.4 97.9,3.4 102.5,3.4 102.5,4.4 97.9,4.4 			"/>
		</defs>
		<defs>
			<polygon id="SVGID_270_" points="82.8,0.6 117.2,0.2 117.2,33.9 82.8,34.3 82.8,0.6 			"/>
		</defs>
		<clipPath id="SVGID_271_">
			<use xlink:href="#SVGID_269_"  style="overflow:visible;"/>
		</clipPath>
		<clipPath id="SVGID_272_" class="st73">
			<use xlink:href="#SVGID_270_"  style="overflow:visible;"/>
		</clipPath>
		<g style="clip-path:url(#SVGID_272_);">
			
				<image style="overflow:visible;" width="11" height="2" xlink:href="F521E64F.jpg"  transform="matrix(0.4218 0 0 -0.4764 97.8848 4.3658)">
			</image>
		</g>
	</g>
	<g>
		<defs>
			<polyline id="SVGID_273_" points="97.9,3.5 97.9,2.6 102.1,2.6 102.1,3.5 97.9,3.5 			"/>
		</defs>
		<defs>
			<polygon id="SVGID_274_" points="82.8,0.6 117.2,0.2 117.2,33.9 82.8,34.3 82.8,0.6 			"/>
		</defs>
		<clipPath id="SVGID_275_">
			<use xlink:href="#SVGID_273_"  style="overflow:visible;"/>
		</clipPath>
		<clipPath id="SVGID_276_" class="st74">
			<use xlink:href="#SVGID_274_"  style="overflow:visible;"/>
		</clipPath>
		<g style="clip-path:url(#SVGID_276_);">
			
				<image style="overflow:visible;" width="10" height="2" xlink:href="F521E64A.jpg"  transform="matrix(0.423 0 0 -0.4764 97.8848 3.5428)">
			</image>
		</g>
	</g>
	<g>
		<defs>
			<polyline id="SVGID_277_" points="98.3,2.7 98.3,1.8 101.7,1.8 101.7,2.7 98.3,2.7 			"/>
		</defs>
		<defs>
			<polygon id="SVGID_278_" points="82.8,0.6 117.2,0.2 117.2,33.9 82.8,34.3 82.8,0.6 			"/>
		</defs>
		<clipPath id="SVGID_279_">
			<use xlink:href="#SVGID_277_"  style="overflow:visible;"/>
		</clipPath>
		<clipPath id="SVGID_280_" class="st75">
			<use xlink:href="#SVGID_278_"  style="overflow:visible;"/>
		</clipPath>
		<g style="clip-path:url(#SVGID_280_);">
			
				<image style="overflow:visible;" width="8" height="2" xlink:href="F521E66E.jpg"  transform="matrix(0.4262 0 0 -0.4764 98.2943 2.7197)">
			</image>
		</g>
	</g>
	<g>
		<defs>
			<polyline id="SVGID_281_" points="98.7,1.9 98.7,0.9 101.7,0.9 101.7,1.9 98.7,1.9 			"/>
		</defs>
		<defs>
			<polygon id="SVGID_282_" points="82.8,0.6 117.2,0.2 117.2,33.9 82.8,34.3 82.8,0.6 			"/>
		</defs>
		<clipPath id="SVGID_283_">
			<use xlink:href="#SVGID_281_"  style="overflow:visible;"/>
		</clipPath>
		<clipPath id="SVGID_284_" class="st76">
			<use xlink:href="#SVGID_282_"  style="overflow:visible;"/>
		</clipPath>
		<g transform="matrix(1 0 0 1 0 0)" style="clip-path:url(#SVGID_284_);">
			
				<image style="overflow:visible;" width="7" height="2" xlink:href="F521E661.jpg"  transform="matrix(0.4286 0 0 -0.4764 98.7046 1.8966)">
			</image>
		</g>
	</g>
	<g>
		<defs>
			<polyline id="SVGID_285_" points="98.7,1.1 98.7,0.5 101.3,0.5 101.3,1.1 98.7,1.1 			"/>
		</defs>
		<defs>
			<polygon id="SVGID_286_" points="82.8,0.6 117.2,0.2 117.2,33.9 82.8,34.3 82.8,0.6 			"/>
		</defs>
		<clipPath id="SVGID_287_">
			<use xlink:href="#SVGID_285_"  style="overflow:visible;"/>
		</clipPath>
		<clipPath id="SVGID_288_" class="st77">
			<use xlink:href="#SVGID_286_"  style="overflow:visible;"/>
		</clipPath>
		<g style="clip-path:url(#SVGID_288_);">
			
				<image style="overflow:visible;" width="6" height="1" xlink:href="F521E662.jpg"  transform="matrix(0.4317 0 0 -0.5412 98.7046 1.0735)">
			</image>
		</g>
	</g>
	<g>
		<defs>
			<polyline id="SVGID_289_" points="98.7,0.7 98.7,0.2 100.9,0.2 100.9,0.7 98.7,0.7 			"/>
		</defs>
		<defs>
			<polygon id="SVGID_290_" points="82.8,0.6 117.2,0.2 117.2,33.9 82.8,34.3 82.8,0.6 			"/>
		</defs>
		<clipPath id="SVGID_291_">
			<use xlink:href="#SVGID_289_"  style="overflow:visible;"/>
		</clipPath>
		<clipPath id="SVGID_292_" class="st78">
			<use xlink:href="#SVGID_290_"  style="overflow:visible;"/>
		</clipPath>
		<g transform="matrix(1 0 0 1 0 0)" style="clip-path:url(#SVGID_292_);">
			
				<image style="overflow:visible;" width="5" height="1" xlink:href="F521E660.jpg"  transform="matrix(0.4359 0 0 -0.4767 98.7046 0.6619)">
			</image>
		</g>
	</g>
</g>
</svg>
