<?xml version="1.0" encoding="utf-8"?>
<!-- Generator: Adobe Illustrator 21.1.0, SVG Export Plug-In . SVG Version: 6.00 Build 0)  -->
<svg version="1.1" id="Layer_1" xmlns="http://www.w3.org/2000/svg" xmlns:xlink="http://www.w3.org/1999/xlink" x="0px" y="0px"
	 viewBox="0 0 200 200" style="enable-background:new 0 0 200 200;" xml:space="preserve">
<style type="text/css">
	.st0{fill:#FFFFFF;}
	.st1{fill:#730C08;}
	.st2{fill:#660300;}
	.st3{fill:#730C09;}
	.st4{fill:#FFFFFF;stroke:#FFFFFF;stroke-width:0.4125;}
</style>
<g>
	<path id="path3" class="st0" d="M29.5,7.5l-0.1,105.9c1.7,24.6,12.3,41.1,33.3,54.5c8.1,5.2,16.8,9.3,25.1,14.1
		c4.6,2.6,9.3,5.5,13.2,9.2c3.9-3.6,8.6-6.6,13.1-9.2c8.2-4.8,16.8-8.9,24.8-14.1c20.8-13.5,31.1-29.9,32.7-54.3l0-106
		c-4.9,1.5-10.1,2.6-14.4,3.3c-19,3-38.2,0.7-56.1-6c-18.1,6.8-37.4,9-56.6,6C39.5,10.2,34.4,9.1,29.5,7.5L29.5,7.5L29.5,7.5z"/>
	<path id="path6" class="st1" d="M167.3,58.1c0-15.8,0-33.6,0-49.4c-4.6,1.5-10.2,2.5-14.3,3.2c-17.8,2.9-35.8,0.7-52.6-5.8
		c-10.8,4.2-22.2,6.6-33.7,7l0,80.2c-0.8,33.7,23.3,48.3,48.3,49c32.4,1,51.7-18.3,52.2-45.8L167.3,58.1L167.3,58.1z"/>
	<path id="path5" class="st1" d="M54.6,53c1.6-9.4-2.4-11.2-2.7-11.3c-0.2,0.1-4.3,1.9-2.7,11.3c-5.5-3.4-10.2,2.7-5.1,6.9
		c-1.6-4.4,4.3-4,5.3-0.8c-0.3,0.1-0.5,0.4-0.5,0.8c0,0.4,0.2,0.7,0.6,0.8c0,0.1,0,0.1,0,0.2c-0.3,1.4-2.5,2-3.4,0.5
		c-0.1,2.2,0.7,3,2.3,3.1c1.1,0.1,2.5-1.2,2.9-2.2c-0.9,2-1.2,5.4,0.8,6.2c2-1.8,1.3-4.3,0.5-6.1c2,3.4,5.8,2.3,5.3-0.9
		c-0.7,0.7-2.4,1.8-3.4-0.6l0-0.1c0.4-0.1,0.7-0.4,0.7-0.8c0-0.4-0.3-0.7-0.6-0.8c1-3.2,6.9-3.6,5.3,0.8
		C64.8,55.7,60.1,49.7,54.6,53z"/>
	<path id="path7" class="st1" d="M105.2,147.7L99,158.6l-3.2-12l-14.5-5.7l-11.4-11.4l-4.8-7.9l-2.2-0.3c1.7-1.8,2.3-4.4,0.7-7.8
		c-0.5-1.5-2.2-8.1-3.2-12.3v-9.9l-2.2-1.7l2.2-1.3V77.3c-0.2-4.6-8.3-4.2-9.7,0.7c-2.8,10.6-3.5,2.8-3.2,0.5s0.5-3.9,0.5-3.9
		l-3.9,0.9v10.6c1.4,4.9,8.8,5.3,10.4-0.2c1.6-6.9,3.5-6.7,2.8-1.6v10.9l-13.2-5.5v3.7l2.8,0.9v5.8l-2.8,1.6v7.2l13.6-6.2l0.4,3.9
		l-18.3,4.3l1.1,6.8c0,0,5.4-3.6,7.2-1.2c-7.9,5.5-4.6,16.4-4.6,16.4s3.5,0.2,6.2,0.2c-3-12.7,1.9-14.4,1.9-14.4
		c0.6,5.6,6.7,6.3,10.4,3.7l2.5,4.1l-14.2,2.1l1.9,3.2l2.9-0.6l3,4.9l-1.5,2.8l2.3,3.7l-4.7-3.3c0,0-0.6,3-1.9,5.7
		c14.4,9.1,19.8,5.6,19.8,5.6l9-7.9l-5,13.7l13.5,4.6l1.2-3.1l-7.2-2.6l1.1-2.8l7.1,2.8c0,0,0.6-2.1,0.9-2.7
		c0.1-0.2,0.1-0.3,0.1-0.3l-6.9-2.6l1.1-3l6.1,2.3l4.1,14.2l6.2,1.2l9.2-15.2L105.2,147.7L105.2,147.7z M60.7,132.6l2.3-2.8
		l-3.7,0.6L60.7,132.6L60.7,132.6L60.7,132.6z M53.5,114l5.8-1.7c0,0,0,0.2,0.4,1.4c2,2.8-3.4,6.8-5.6,2.2
		C53.5,114,53.5,114,53.5,114L53.5,114z M65.9,147.7l-5.3-3.7l1.4-2l1.8,2.5l2.6-3l-2.1-2.9l4-5.9l6.6,6.4L65.9,147.7L65.9,147.7z"
		/>
	<path id="path9" class="st2" d="M116.9,153.1c0.6-0.7,1.5-1.1,2.6-1.1c1.1,0,2,0.3,2.7,1c0.7,0.7,1,1.8,1,3.3c0,1.8-0.3,3-0.9,3.7
		c-0.6,0.7-1.5,1-2.7,1c-1.1,0-2-0.4-2.6-1.1c-0.6-0.7-1-1.9-1-3.5C116,155,116.3,153.8,116.9,153.1L116.9,153.1z M111.8,161.2
		c0.8,1.2,1.8,2.1,3.1,2.7c1.3,0.6,2.9,0.9,4.8,0.9c1.9,0,3.5-0.3,4.8-1c1.3-0.7,2.3-1.6,2.9-2.8c0.7-1.2,1-2.7,1-4.6
		c0-2.6-0.8-4.6-2.3-6c-1.6-1.4-3.8-2.1-6.6-2.1c-2.8,0-5,0.7-6.5,2.2c-1.6,1.5-2.3,3.5-2.3,6.1C110.6,158.4,111,160,111.8,161.2
		L111.8,161.2L111.8,161.2z"/>
	<path id="path11" class="st2" d="M116.9,153.1c0.6-0.7,1.5-1.1,2.6-1.1c1.1,0,2,0.3,2.7,1c0.7,0.7,1,1.8,1,3.3c0,1.8-0.3,3-0.9,3.7
		c-0.6,0.7-1.5,1-2.7,1c-1.1,0-2-0.4-2.6-1.1c-0.6-0.7-1-1.9-1-3.5C116,155,116.3,153.8,116.9,153.1L116.9,153.1z M111.8,161.2
		c0.8,1.2,1.8,2.1,3.1,2.7c1.3,0.6,2.9,0.9,4.8,0.9c1.9,0,3.5-0.3,4.8-1c1.3-0.7,2.3-1.6,2.9-2.8c0.7-1.2,1-2.7,1-4.6
		c0-2.6-0.8-4.6-2.3-6c-1.6-1.4-3.8-2.1-6.6-2.1c-2.8,0-5,0.7-6.5,2.2c-1.6,1.5-2.3,3.5-2.3,6.1C110.6,158.4,111,160,111.8,161.2
		L111.8,161.2L111.8,161.2z"/>
	<polygon id="polygon13" class="st1" points="43,26.1 43,28.1 48.7,28.1 48.7,31.8 43,31.8 43,38.4 39.2,38.4 39.2,22.4 48.7,22.4 
		48.7,26.1 	"/>
	<polygon id="polygon15" class="st1" points="54.6,32.6 54.6,38.2 50.8,38.2 50.8,22.2 54.6,22.2 54.6,27 58.6,22.2 63.5,22.2 
		57,29.7 65,38.2 59.8,38.2 	"/>
	<g id="g20">
		<path id="path22" class="st3" d="M172.9,1.2v112.2c-3.9,61.9-61.3,63.6-72.5,85.3c-11.2-21.7-69.5-23.4-73.4-85.3V1.2
			c0,0,32.6,17,73.4,0C141.2,18.2,172.9,1.2,172.9,1.2z M166.5,113.3l0-102.6c-4.6,1.5-9.4,2.5-13.5,3.2
			c-17.8,2.9-35.8,0.7-52.6-5.8c-16.9,6.6-35,8.7-53,5.8c-4.7-0.8-9.4-1.8-14-3.3l-0.1,102.5c1.6,23.8,11.5,39.8,31.1,52.7
			c7.6,5,15.7,9,23.5,13.6c4.3,2.5,8.7,5.4,12.4,8.9c3.6-3.5,8-6.4,12.2-8.9c7.7-4.6,15.7-8.6,23.2-13.6
			C155.3,152.8,165,136.9,166.5,113.3L166.5,113.3L166.5,113.3z"/>
		<path id="path24" class="st0" d="M152.4,55.6c0.3,7.1-1,13.5-3.7,16.8c-3.2,4.5-11.2,4-6.3-2.6c4.9-6.6,5.1-15.4,4.7-21.1
			C145.5,34.2,152.2,47.8,152.4,55.6L152.4,55.6z"/>
		<path id="path26" class="st0" d="M143.8,44.3c1.5,9.9,1.1,17.3-2.8,22.4c-4.5,6.1-14.3,4.8-8.3-4.3c4.5-7,5.6-17.3,3-26.2
			C131.8,24.7,140.6,30.3,143.8,44.3z"/>
		<path id="path28" class="st0" d="M139.6,76.2c10.7,3.9-1.3,7.5-11.9,3.9c-8.4-2.6-15-9.1-17-14c-2.7-6.2,3.1-12.7,7.9-5.2
			C122.5,66.8,130.2,72.7,139.6,76.2L139.6,76.2z"/>
		<path id="path30" class="st0" d="M133.6,38.2c2,8.6-0.3,17.7-3.5,21.8c-3.9,5.5-12.4,3.7-8.4-4.3c3.1-6.3,4.2-16,2.6-26
			C122.2,18.5,131.3,27.1,133.6,38.2z"/>
		<path id="path32" class="st0" d="M128.4,83c11.6,2.4,2.4,7.3-11.1,3c-9.2-3.7-15.4-7.7-17.8-13.7c-3-7,3.1-14.9,7.8-5.1
			C111.2,74.7,119.4,80.8,128.4,83z"/>
		<path id="path34" class="st0" d="M116.1,23.4c5.5,0.6,9,7.8,0.9,6.8c-8.1-1.1-15.8,3.2-20.5,6.4c-11.7,8.5-3.3-4.1,3.3-8
			C105.7,24.8,111.8,22.7,116.1,23.4L116.1,23.4z"/>
		<path id="path36" class="st0" d="M114.9,33.1c7.5,0.9,11.2,10.2,0.4,9.4c-8.3-0.4-17.7,3.7-24,10.4c-7.9,8.9-7.5-1.6,3-11.2
			C102.1,35.5,108.6,32.2,114.9,33.1z"/>
		<path id="path38" class="st0" d="M114.6,45.9c6.7,0.7,9.3,9.1,0.5,9.5c-7,0.4-15.9,4.2-23.7,10.6c-8.7,7.3-5.8-4.9,2.7-12.4
			C100.6,47.6,109.5,45.1,114.6,45.9z"/>
		<path id="path40" class="st0" d="M111.8,86.7c13.2,5.9-1.8,4.9-8.5,1.2c-6.2-3.3-11.1-7.6-12.6-11.7c-2.2-5.1,2.2-11.8,5.4-4.2
			C99.2,79.7,106.7,84.2,111.8,86.7L111.8,86.7z"/>
	</g>
	<polygon id="polygon29" class="st0" points="50.5,99.4 54,98.2 50.5,96.9 	"/>
	<polygon id="polygon31" class="st0" points="61.4,133.3 63.7,130.5 60.1,131.2 	"/>
	<g id="g3012">
		<g id="text3008" transform="scale(1.0778623,0.92776228)">
			<path id="path3017" class="st4" d="M95.6,113.2v11h-1.2v-10.1l-2.8,3.1l-0.8-0.7l3-3.3L95.6,113.2z"/>
			<path id="path3019" class="st4" d="M100,121.4h1.2l0,0.3c0,0.7,0.2,1.1,0.5,1.3c0.3,0.2,1.1,0.3,2.3,0.3c1.4,0,2.2-0.1,2.5-0.4
				c0.3-0.3,0.5-1,0.5-2.3v-1.7h0c-0.4,0.7-1.5,1-3.3,1c-1.4,0-2.3-0.2-2.8-0.7c-0.5-0.4-0.7-1.3-0.7-2.6c0-1.5,0.3-2.4,0.8-2.9
				c0.5-0.5,1.6-0.7,3.2-0.7c1.7,0,2.8,0.2,3.3,0.7c0.5,0.5,0.8,1.5,0.8,2.9l0,3l0,1.1c0,1.4-0.3,2.3-0.8,2.8
				c-0.5,0.5-1.6,0.7-3.3,0.7c-1.6,0-2.7-0.2-3.3-0.5c-0.6-0.3-0.9-1-0.9-2C100,121.7,100,121.6,100,121.4L100,121.4z M104,114.1
				c-1.2,0-1.9,0.1-2.2,0.4c-0.3,0.3-0.4,0.9-0.4,2c0,1,0.1,1.7,0.4,2c0.3,0.3,1,0.4,2.1,0.4c1.4,0,2.3-0.1,2.7-0.3
				c0.3-0.2,0.5-0.8,0.5-1.7c0-1.2-0.2-2-0.5-2.3C106.2,114.2,105.3,114.1,104,114.1L104,114.1z"/>
			<path id="path3021" class="st4" d="M117.2,113.2v7.4h1.6v1h-1.6v2.5h-1.2v-2.5h-6.2v-1.5l5.5-7L117.2,113.2z M115.9,120.6V114h0
				l-5.1,6.6L115.9,120.6z"/>
			<path id="path3023" class="st4" d="M128.2,115.9H127c0-0.2,0-0.3,0-0.4c0-0.6-0.1-1-0.4-1.2c-0.3-0.2-0.9-0.3-1.8-0.3
				c-1.4,0-2.3,0.1-2.6,0.4c-0.4,0.2-0.6,0.8-0.6,1.7v2.2h0c0.5-0.7,1.5-1,3.2-1c1.5,0,2.5,0.2,3,0.7c0.5,0.5,0.7,1.3,0.7,2.7
				c0,1.4-0.3,2.4-0.8,2.8c-0.5,0.5-1.6,0.7-3.3,0.7c-1.7,0-2.8-0.2-3.3-0.7c-0.5-0.5-0.8-1.5-0.8-3.1l0-2l0-1.8
				c0-1.5,0.3-2.4,0.8-2.9c0.5-0.5,1.5-0.7,3.1-0.7c1.6,0,2.6,0.2,3.2,0.5c0.6,0.3,0.8,1,0.8,2L128.2,115.9z M124.3,118.4
				c-1.2,0-2,0.1-2.4,0.4c-0.4,0.2-0.6,0.8-0.6,1.6c0,1.3,0.2,2.1,0.5,2.4c0.3,0.3,1.1,0.5,2.5,0.5c1.3,0,2.1-0.1,2.4-0.4
				c0.3-0.3,0.5-0.9,0.5-1.9c0-1.1-0.2-1.8-0.5-2.1C126.5,118.6,125.7,118.4,124.3,118.4L124.3,118.4z"/>
		</g>
	</g>
</g>
</svg>
