<?xml version="1.0" encoding="utf-8"?>
<!-- Generator: Adobe Illustrator 21.1.0, SVG Export Plug-In . SVG Version: 6.00 Build 0)  -->
<svg version="1.1" id="Layer_1" xmlns="http://www.w3.org/2000/svg" xmlns:xlink="http://www.w3.org/1999/xlink" x="0px" y="0px"
	 viewBox="0 0 200 200" style="enable-background:new 0 0 200 200;" xml:space="preserve">
<style type="text/css">
	.st0{fill:#FFFFFF;}
	.st1{fill:#B3B3B3;}
	.st2{fill:#FFEC00;}
	.st3{fill:#3A5BA6;}
	.st4{fill:#E20613;}
</style>
<g>
	<path d="M194.9,119.2c-0.4-0.6-1.1-1-1.8-1.2c-0.7-0.2-1.6-0.3-2.6-0.3h-14.4c-1,0-1.9,0.1-2.6,0.3c-1.1,0.3-1.9,1.1-2.3,2.1
		c-0.4,1-0.5,2.3-0.5,4c0,3.5,0.3,5.7,0.5,7.9c0.2,2.1,0.5,4.2,0.5,7.8c0,9.3-3.4,15.2-8.8,19.5c-8.1,6.4-20.8,8.6-33,11
		c-11.9,2.3-23.4,4.6-29.9,11.4c-4.2-4.4-10.7-7-18-8.8c-11.4-2.9-24.9-4.3-35.5-8.4c-5.3-2-9.8-4.8-13.1-8.7c-3.2-3.9-5.1-9-5.1-16
		c0-3.5,0.2-5.6,0.5-7.8c0.2-2.1,0.5-4.3,0.5-7.9c0-2.2-0.1-3.8-1-4.9c-0.4-0.6-1.1-1-1.8-1.2c-0.7-0.2-1.6-0.3-2.6-0.3H9.5
		c-1,0-1.9,0.1-2.6,0.3c-1.1,0.3-1.9,1.1-2.3,2.1c-0.4,1-0.5,2.3-0.5,4v4.9c0,2,1,3.5,2.5,4.6c1.4,1,3.3,1.6,5.1,1.8l0.8,0.1V123h0
		v10.4h1.1c0,0.8,0.1,1.5,0.3,2c0.3,0.8,0.8,1.3,1.4,1.6c0.4,0.2,0.8,0.4,1.3,0.5c-0.7,2.3-1.1,5.1-1.1,8c0,10.7,6.6,19.5,14.1,24.4
		c10.1,6.8,23.9,9,37.1,12.1c13.2,3.1,25.6,7,32.9,16.5l0.6,0.7l0.6-0.7c7.3-9.6,19.8-13.5,32.9-16.5c13.2-3.1,27-5.4,37.1-12.1
		c7.4-5,14-13.7,14.1-24.4c0-2.9-0.4-5.7-1.1-8c0.6-0.3,1.3-0.5,1.9-0.9c0.4-0.3,0.7-0.7,0.9-1.3c0.2-0.5,0.3-1.2,0.3-2V131l0,2.5
		h1.1v2l0.8-0.1c1.8-0.2,3.6-0.8,5.1-1.8c1.4-1,2.5-2.6,2.5-4.6v-4.9C195.9,121.9,195.8,120.4,194.9,119.2z"/>
	<path class="st0" d="M192.7,119.4c-0.5-0.2-1.2-0.2-2.2-0.2h-14.4c-0.9,0-1.7,0.1-2.2,0.2c-0.8,0.3-1.1,0.6-1.4,1.3
		c-0.3,0.7-0.4,1.9-0.4,3.5c0,3.5,0.2,5.6,0.5,7.7c0.2,2.1,0.5,4.3,0.5,7.9c0,9.6-3.6,16.2-9.3,20.6c-8.5,6.7-21.4,8.9-33.7,11.2
		c-12.3,2.3-23.8,4.8-29.6,11.5l-0.5,0.6l-0.5-0.6c-3.9-4.4-10.3-7.1-17.8-9c-11.3-2.9-24.8-4.2-35.7-8.4
		c-5.4-2.1-10.2-4.9-13.6-9.1c-3.4-4.2-5.5-9.6-5.5-16.9c0-3.6,0.3-5.8,0.5-7.9c0.2-2.1,0.5-4.2,0.5-7.7c0-2.2-0.2-3.5-0.7-4.1
		c-0.2-0.3-0.6-0.5-1.1-0.7c-0.5-0.2-1.2-0.2-2.2-0.2H9.5c-1,0-1.7,0.1-2.2,0.2c-0.8,0.3-1.1,0.6-1.4,1.3c-0.3,0.7-0.4,1.9-0.4,3.5
		v4.9c0,1.5,0.7,2.6,1.9,3.4c1,0.7,2.3,1.2,3.6,1.4v-9.4c-1,0-1.8-0.1-2.6-0.3c-0.5-0.1-0.9-0.3-1.2-0.6c-0.4-0.3-0.6-0.8-0.6-1.3
		c0-0.4,0.2-0.7,0.4-1c0.7-0.7,1.7-0.9,2.8-0.9h3.8v1.4H9.8c-0.6,0-1.2,0.1-1.5,0.2c-0.2,0.1-0.3,0.1-0.3,0.2c0,0,0,0,0,0
		c0,0.2,0,0.2,0.1,0.3c0.1,0.1,0.6,0.3,1.2,0.4c0.6,0.1,1.5,0.1,2.4,0.1h0.7v10.4h1.1v-4.9c0-0.8,0.1-1.6,0.5-2.3
		c0.6-1.1,1.7-1.8,3.5-2.7c1.9-0.9,4.6-1.9,8.5-3.4l0.5,1.3c-5.3,2-8.3,3.1-9.9,4.1c-0.8,0.5-1.2,0.9-1.4,1.3
		c-0.2,0.4-0.3,0.9-0.3,1.7v4.9c0,0.7,0.1,1.2,0.2,1.6c0.2,0.5,0.3,0.6,0.7,0.8c0.4,0.2,1,0.4,1.8,0.8l0.6,0.3l-0.2,0.6
		c-0.8,2.3-1.2,5.1-1.2,8.2c0,10.1,6.3,18.5,13.4,23.3c9.7,6.5,23.4,8.8,36.6,11.9c12.9,3,25.4,6.8,33.2,16.4
		c7.8-9.5,20.3-13.3,33.2-16.4c13.2-3.1,26.9-5.4,36.6-11.9c7.1-4.8,13.4-13.2,13.4-23.3c0-3.1-0.5-5.9-1.2-8.2l-0.2-0.6l0.6-0.3
		c1-0.5,1.8-0.7,2.2-1c0.2-0.1,0.3-0.3,0.4-0.6c0.1-0.3,0.2-0.8,0.2-1.6v-4.9c0-0.8-0.1-1.3-0.3-1.7c-0.3-0.6-1.1-1.3-2.9-2.1
		c-1.8-0.8-4.4-1.9-8.4-3.3l0.5-1.3c5.3,2,8.3,3.1,10.1,4.2c0.9,0.6,1.5,1.2,1.9,1.9c0.4,0.7,0.5,1.5,0.5,2.3l0,4.9h1.1V123h0.7
		c1.2,0,2.3-0.1,2.9-0.2c0.3-0.1,0.6-0.2,0.6-0.3c0.1-0.1,0.1-0.1,0.1-0.3c0,0,0,0-0.1-0.1c-0.2-0.2-0.9-0.4-1.7-0.4h-3.8v-1.4h3.8
		c0.8,0,1.5,0.1,2,0.4c0.3,0.1,0.6,0.3,0.8,0.5c0.2,0.2,0.4,0.6,0.4,1c0,0.5-0.2,1-0.6,1.3c-0.5,0.5-1.2,0.7-2,0.8
		c-0.6,0.1-1.2,0.1-1.9,0.1v9.4c1.3-0.2,2.6-0.7,3.6-1.4c1.2-0.8,1.9-1.9,1.9-3.4v-4.9c0-2.2-0.2-3.5-0.7-4.1
		C193.5,119.8,193.2,119.6,192.7,119.4z"/>
	<path d="M182.8,127.3c0,0-0.4,0.1-0.9,0.2c-0.5,0-1.3,0-2.3,0h-7.2v1.4h7.2c1.5,0,2.5,0,3.2-0.1c0.4-0.1,0.7-0.2,1-0.5
		c0.3-0.3,0.4-0.7,0.4-1.1c0-0.5-0.3-0.8-0.5-1c-0.8-0.7-2.3-1.3-4-1.4v1.4c0.9,0,1.8,0.2,2.4,0.5c0.3,0.1,0.5,0.3,0.7,0.4
		C182.8,127.3,182.8,127.3,182.8,127.3C182.8,127.3,182.8,127.3,182.8,127.3L182.8,127.3z"/>
	<path d="M18.2,126.7c0.6-0.2,1.4-0.4,2.2-0.4v-1.4c-1.2,0-2.2,0.3-3,0.7c-0.4,0.2-0.7,0.4-1,0.7c-0.3,0.3-0.5,0.5-0.5,1
		c0,0.3,0.1,0.8,0.4,1.1c0.4,0.5,1,0.5,1.6,0.6c0.6,0.1,1.5,0.1,2.6,0.1h7.2v-1.4v0h-7.2c-1.5,0-2.5,0-2.9-0.1c-0.1,0-0.2,0-0.2-0.1
		c0,0,0,0,0,0c0,0,0,0,0,0C17.3,127.2,17.6,126.9,18.2,126.7z"/>
	<path d="M178.3,32.9c-22.1-7.7-32.1-16.4-36.9-25.6L141,6.5L140.3,7c0,0-0.1,0.1-0.2,0.2c-1.1,0.8-6.3,4.2-13.8,4.2
		c-8.1,0-14.5-2.6-19-5.2c-2.2-1.3-3.9-2.6-5.1-3.5c-0.6-0.5-1-0.9-1.3-1.2c-0.1-0.1-0.3-0.2-0.3-0.3c-0.1-0.1-0.1-0.1-0.1-0.1
		L100,0.5l-0.5,0.6c0,0,0,0-0.1,0.1c-1.1,1.1-10.5,10.2-25.7,10.2c-4.3,0-7.8-1.1-10.2-2.2c-1.2-0.5-2.2-1.1-2.8-1.5
		c-0.3-0.2-0.6-0.4-0.7-0.5C59.8,7.1,59.7,7,59.7,7L59,6.5l-0.4,0.8c-4.9,9.2-14.8,17.9-36.9,25.6l-1.9,0.7l1.9,0.7c0,0,0,0,0.1,0.1
		c0.7,0.3,4.2,1.8,7.4,5c3.2,3.2,6.3,8.1,6.3,15.2v82.2c0,8.5,1.4,13.8,4,17.4c2.5,3.6,6.1,5.5,10.1,7.4c7.8,3.6,14.9,5.1,21.6,6.3
		c4.9,0.9,10.2,0.2,15.1,0.8c4.9,0.6,9.3,2.2,13,7.6l0.6,0.9l0.6-0.9c3.7-5.4,8.1-7.1,13-7.6c4.9-0.6,10.1,0.1,15.1-0.8
		c6.8-1.2,13.8-2.7,21.6-6.3c4-1.9,7.6-3.7,10.1-7.4c2.5-3.6,4-8.9,4-17.4V54.5c0-7.6,3.5-12.7,6.9-15.8c1.7-1.6,3.5-2.7,4.8-3.4
		c0.7-0.4,1.2-0.6,1.6-0.8c0.2-0.1,0.3-0.1,0.4-0.2c0.1,0,0.1-0.1,0.1-0.1l1.9-0.7L178.3,32.9z"/>
	<path class="st0" d="M100,2.5c2.1,2,10.3,9,23,10.1v62.6H77V12.6C89.7,11.6,97.9,4.5,100,2.5z"/>
	<rect x="37" y="76.6" class="st0" width="126" height="19.3"/>
	<path class="st0" d="M170.4,37.6c2.2-2,4.3-3.2,5.8-4c-20.6-7.5-30.6-15.9-35.7-25c-1.8,1.2-7,4.2-14.2,4.2c-0.6,0-1.3,0-1.9-0.1
		v62.5H163V54.5C163,46.4,166.7,41,170.4,37.6z"/>
	<path class="st0" d="M29.6,37.6C33.3,41,37,46.4,37,54.5v20.7h38.6V12.7c-0.6,0-1.2,0.1-1.9,0.1c-7.2,0-12.4-3-14.2-4.2
		c-5.1,9.1-15.1,17.6-35.7,25C25.3,34.4,27.4,35.6,29.6,37.6z"/>
	<path class="st1" d="M100,97.4v77.3c3.8-5.2,8.6-6.9,13.5-7.4c5.1-0.6,10.3,0,15-0.8c6.7-1.2,13.6-2.7,21.3-6.2
		c4-1.9,7.3-3.6,9.6-6.9c2.3-3.3,3.7-8.2,3.7-16.6V97.4H100z"/>
	<path class="st2" d="M58,97.4v65.9c4.7,1.5,9.2,2.4,13.6,3.2c2.4,0.4,4.9,0.5,7.4,0.5V97.4H58z"/>
	<path class="st3" d="M37,97.4v39.4c0,8.4,1.4,13.3,3.7,16.6c2.3,3.3,5.6,5,9.6,6.9c2.7,1.2,5.2,2.2,7.7,3V97.4H37z"/>
	<path class="st4" d="M79,97.4v69.6c2.5,0,5,0,7.5,0.3c4.8,0.5,9.6,2.3,13.5,7.4V97.4H79z"/>
	<path d="M45.3,91.7l1.5-2.1l0.2,0.1c0.2,1.5,1.4,2.6,2.9,2.6c0.9,0,1.7-0.4,1.7-1.4c0-1-0.8-1.3-1.6-1.6l-1.3-0.5
		c-1.3-0.4-2.1-1.3-2.1-2.6c0-2.4,2.4-3.6,4.1-3.6c1.4,0,2.3,0.5,2.6,1.7l-1.6,1.5l-0.2-0.1c-0.1-1.1-0.5-2.3-1.8-2.3
		c-0.7,0-1.4,0.5-1.4,1.4c0,1,0.7,1.5,1.6,1.8l2.3,0.7c0.9,0.3,1.5,0.9,1.5,1.9c0,2.1-2.6,4.1-5.2,4.1c-1.2,0-2.4-0.4-3.2-1.5
		L45.3,91.7z"/>
	<path d="M58.5,83.2l-0.3,3.2h2.2c-0.2,0.3-0.5,0.7-0.9,0.7h-1.3c-0.1,0.9-0.2,2.1-0.2,2.6c0,0.7,0.4,1.9,1.1,1.9
		c0.3,0,1.2-0.4,1.6-0.5l-0.1,0.5L60,91.9c-1.8,1-2.8,1.4-2.9,1.4c-0.2,0-0.5-0.2-0.6-0.3c-0.1-0.1-0.8-1.2-0.8-2.5
		c0-1,0.2-2.5,0.3-3.5h-2.3l1-0.7H56l0.3-2.4L58.5,83.2z"/>
	<path d="M64.5,85.9c0.6-0.4,0.9-0.5,1.2-0.5c0.8,0,2.2,0.4,2.9,0.5v0.2l-0.7,0.5c-0.2,0.6-0.3,2.5-0.3,3.1c0,0.8,0,1.8,0.5,1.8
		c0.3,0,0.8-0.2,1.6-0.7v0.6l-1.3,0.8c-1.4,0.9-1.8,1.1-2.1,1.1c-0.2,0-0.6-0.2-0.8-0.4c-0.1-0.5-0.2-0.9-0.2-1.4l-1.5,1.1
		c-0.5,0.3-1.3,0.7-1.4,0.7c-0.1,0-0.4-0.1-0.5-0.2c-0.2-0.1-0.6-0.9-0.6-1c0-0.1-0.2-0.8-0.2-1.4c0-1.2,0.3-3.1,0.8-3.4L64.5,85.9z
		 M65.7,86.9c-0.4-0.1-0.8-0.2-1.4-0.2c-0.4,0-1,0.7-1,2.6c0,1.8,0.2,2.2,0.8,2.2c0.4,0,0.9-0.4,1.2-0.6L65.7,86.9z"/>
	<path d="M73.8,91.9L72,93.3l-1.4-1.7l1.9-1.4L73.8,91.9z"/>
	<path d="M90.4,92c-1.4,0.7-3.4,1.3-5,1.3c-2.5,0-4.4-1.5-4.4-4.8c0-3.4,2.1-5.9,5.9-5.9c1.4,0,2.5,0.3,3,0.7
		c0.6,0.4,0.9,1.1,0.9,1.3c0,0.1,0,0.1-0.6,0.8l-0.9,0.9l-0.3-0.2c0-1.4-0.6-3-2.3-3c-1.5,0-3.1,1.6-3.1,4.6c0,2,0.9,4.4,3.5,4.4
		c1.3,0,2.4-0.4,3.5-0.9L90.4,92z"/>
	<path d="M98,82.7c3.3,0,5.2,1.4,5.2,4.6c0,4.1-2.2,6-6,6c-4.2,0-5.2-2.5-5.2-5.1C91.9,86.3,92.6,82.7,98,82.7z M97.5,92.7
		c2.2,0,3-2,3-5c0-2.6-0.9-4.5-2.8-4.5c-2,0-3.2,1.8-3.2,5C94.5,90.7,95.4,92.7,97.5,92.7z"/>
	<path d="M106.3,83.7l-1.9-0.2l0.6-0.6h5.9l-0.8,0.6l-1.4,0.2l-0.6,8.7c0.3,0,0.6,0.1,0.9,0.1c1.8,0,2.5-0.8,4.1-4l0.5,0.6
		c-0.4,1.2-0.8,3-1.1,4.3c-0.7-0.1-1.5-0.2-2.3-0.2c-0.8,0-1.6,0-2.4,0h-4l0.6-0.6l1.2-0.2L106.3,83.7z"/>
	<path d="M120.8,82.7c3.3,0,5.2,1.4,5.2,4.6c0,4.1-2.2,6-6,6c-4.2,0-5.2-2.5-5.2-5.1C114.8,86.3,115.4,82.7,120.8,82.7z M120.4,92.7
		c2.2,0,3-2,3-5c0-2.6-0.9-4.5-2.8-4.5c-2,0-3.2,1.8-3.2,5C117.4,90.7,118.3,92.7,120.4,92.7z"/>
	<path d="M126.6,93.1l0.5-0.5l1.4-0.2l0.7-5.7c0-0.4,0.2-1.8,0.2-2.1c0-0.6-0.5-0.8-1.5-0.9l-0.8-0.1l0.5-0.4
		c1.3-0.1,3.6-0.4,3.9-0.4c0.2,0,0.4,0.2,0.4,0.4c0.6,2.4,1.7,4.7,2.5,7.1c1.4-2.4,2.9-4.7,4.1-7.3h4.2l-0.7,0.6l-1.3,0.2
		c-0.4,2.2-0.6,4.5-0.6,6.7c0,1.7,0.2,1.8,1.3,1.8h1.2l-0.3,0.5c-1.2,0.3-4,0.5-4.2,0.5c-0.1,0-0.4-0.2-0.4-0.3
		c0-2.7,0.1-5.4,0.5-8.1h0c-1.3,2.5-2.9,5-3.8,7.8l-1.5,0.5c-0.8-2.8-1.9-5.4-2.8-8.2h0c-0.1,1.9-0.4,5.2-0.4,5.8
		c0,0.7,0,1.3,0.1,1.6l1.8,0.2l-0.4,0.5H126.6z"/>
	<path d="M150,82.7c0.5,2.2,1,4.4,1.8,7.4c0.6,2.1,0.9,2.2,1.9,2.2c0.2,0,0.5,0,0.9-0.1l-0.3,0.5l-2.4,0.4c-0.8,0.2-1.1,0.2-1.2,0.2
		c-0.1,0-0.5-0.1-0.6-0.4l-0.9-3.3h-3.8l-1.2,2.6l2.2,0.2l-0.6,0.6h-4.8l0.7-0.6l1.2-0.2c1.9-2.8,3.8-5.8,5.2-8.9L150,82.7z
		 M145.9,88.9h3.2l-1-4.2L145.9,88.9z"/>
	<circle cx="131.5" cy="131.8" r="23"/>
	<path class="st3" d="M120.3,121.1h0.3c1.4-4.3,5.5-7.4,10.5-7.5v-0.7c-3.7,0-7-0.3-9.5-0.8c-0.4,0.2-0.9,0.5-1.3,0.7
		c0.6,1,1,2.3,1,3.7C121.3,117.6,121,119.2,120.3,121.1z"/>
	<path class="st3" d="M131.1,114.8v-0.7c-4.6,0.2-8.5,3-9.9,7h1C123.5,117.5,127,115,131.1,114.8z"/>
	<path class="st3" d="M120.4,116.5c0,1.3-0.4,2.9-1,4.6h0.3c0.7-1.9,1.1-3.5,1.1-4.6c0-1.3-0.4-2.5-0.9-3.4
		c-0.4,0.2-0.7,0.5-1.1,0.7C119.7,113.9,120.4,114.9,120.4,116.5z"/>
	<path class="st3" d="M140.8,121.1h1c-1.4-3.9-5.2-6.8-9.9-7v0.7C136.1,115,139.5,117.5,140.8,121.1z"/>
	<path class="st3" d="M143.3,121.1h0.3c-0.6-1.7-1-3.2-1-4.6c0-1.6,0.7-2.6,1.7-2.7c-0.4-0.3-0.7-0.5-1.1-0.7
		c-0.6,0.9-0.9,2.1-0.9,3.4C142.2,117.5,142.6,119.2,143.3,121.1z"/>
	<path class="st3" d="M131.9,113.5c4.9,0.2,9.1,3.3,10.5,7.5h0.3c-0.6-1.8-1-3.4-1-4.6c0-1.4,0.4-2.7,1-3.7
		c-0.4-0.3-0.9-0.5-1.3-0.7c-2.5,0.5-5.8,0.8-9.5,0.8V113.5z"/>
	<path class="st3" d="M125.2,132.6l0.5-1.1c-2.5-1.7-4.1-4.4-4.1-7.5c0-0.7,0.1-1.4,0.3-2.1h-1c-0.2,0.8-0.3,1.5-0.3,2.4
		C120.7,127.7,122.5,130.7,125.2,132.6z"/>
	<path class="st3" d="M124.7,133.6l0.3-0.5c-2.9-1.9-4.9-5.2-4.9-8.8c0-0.8,0.1-1.6,0.3-2.4H120c-0.7,1.8-1.7,3.8-2.8,5.6
		c-1.2,1.9-2.5,3.7-3.9,5c0.1,0.1,0.1,0.3,0.2,0.4c1.3-0.9,2.9-1.3,4.4-1.3C120.3,131.6,122.7,132.4,124.7,133.6z"/>
	<path class="st3" d="M116.7,127.2c1.1-1.7,2-3.6,2.6-5.3h-0.3c-1.5,3.6-4,7.4-6.2,9.4c0.1,0.2,0.2,0.5,0.2,0.7
		C114.4,130.7,115.7,129,116.7,127.2z"/>
	<path class="st3" d="M124,134.9l0.4-0.8c-1.9-1.2-4.2-1.9-6.6-1.9c-1.4,0-2.9,0.4-4.1,1.3c0.2,0.3,0.3,0.6,0.5,0.9
		c1.2-1,2.6-1.4,3.9-1.4C120.3,133,122.3,133.7,124,134.9z"/>
	<path class="st3" d="M131.5,133.3c-1.8,0-3.5-0.5-5-1.3L126,133c1.6,0.9,3.5,1.4,5.6,1.4c2,0,3.9-0.5,5.6-1.4l-0.6-1.1
		C135,132.8,133.3,133.3,131.5,133.3z"/>
	<path class="st3" d="M136.4,135.8c-2.1,2-3.5,4.7-3.7,7.5h1.2c0.2-2.7,1.9-5.8,4.5-7.9l-0.5-0.9
		C137.3,134.9,136.9,135.4,136.4,135.8z"/>
	<path class="st3" d="M137.6,134.1l-0.3-0.5c-1.7,1-3.7,1.5-5.8,1.5c-2.1,0-4.1-0.6-5.8-1.5l-0.3,0.5c3.1,2.2,5.3,5.6,5.5,9.3h1.2
		C132.3,139.7,134.5,136.3,137.6,134.1z"/>
	<path class="st3" d="M126.6,135.8c-0.5-0.4-0.9-0.8-1.5-1.2l-0.5,0.9c2.6,2.1,4.3,5.2,4.5,7.9h1.2
		C130.2,140.5,128.7,137.8,126.6,135.8z"/>
	<path class="st3" d="M141.3,124c0,3.1-1.6,5.8-4.1,7.5l0.5,1.1c2.8-1.9,4.6-4.9,4.6-8.3c0-0.8-0.1-1.6-0.3-2.4h-1
		C141.2,122.6,141.3,123.3,141.3,124z"/>
	<path class="st3" d="M138.6,134.1l0.4,0.8c1.7-1.2,3.7-2,5.9-2c1.3,0,2.7,0.3,3.9,1.4c0.2-0.3,0.3-0.6,0.5-0.9
		c-1.2-0.9-2.7-1.3-4.1-1.3C142.8,132.2,140.5,132.9,138.6,134.1z"/>
	<path class="st3" d="M146.3,127.2c1.1,1.8,2.4,3.5,3.7,4.8c0.1-0.2,0.2-0.4,0.2-0.7c-2.2-2-4.7-5.8-6.2-9.4h-0.3
		C144.3,123.6,145.2,125.5,146.3,127.2z"/>
	<path class="st3" d="M145.8,127.5c-1.1-1.8-2.1-3.8-2.8-5.6h-0.4c0.2,0.8,0.3,1.5,0.3,2.4c0,3.7-1.9,6.9-4.9,8.8l0.3,0.5
		c2-1.2,4.4-2,6.8-2c1.4,0,3,0.4,4.4,1.3c0.1-0.1,0.1-0.3,0.2-0.4C148.3,131.2,146.9,129.4,145.8,127.5z"/>
	<path class="st3" d="M112.1,131.9c-0.7,0.6-1.4,0.9-2,0.9c-0.2,0-0.5,0-0.7-0.1c0,0.5,0.1,1.1,0.1,1.6c0.9-0.2,1.9-0.8,2.9-1.7
		C112.3,132.4,112.2,132.1,112.1,131.9z"/>
	<path class="st3" d="M113.7,135c-0.2-0.3-0.4-0.6-0.6-0.9c-1,0.9-1.6,2.3-1.6,4.1c0,1.1,0.3,2.2,0.7,3.3c0-0.3-0.1-0.7-0.1-1
		C112.1,137.9,112.7,136.1,113.7,135z"/>
	<path class="st3" d="M112.8,133.5c-0.1-0.1-0.1-0.2-0.2-0.3c-1,0.8-2,1.4-3.1,1.7c0.3,2.2,0.9,4.3,1.8,6.2c-0.3-1-0.5-2-0.5-2.9
		C110.9,136.1,111.7,134.5,112.8,133.5z"/>
	<path class="st3" d="M125.3,151.4c-0.5,0.1-1,0.1-1.5,0.1c0,0,0,0,0,0c-1.7,0-3.5-0.7-5.2-1.7c2,1.4,4.1,2.5,6.5,3.2
		c0.4-0.2,0.8-0.3,1.2-0.5L125.3,151.4z"/>
	<path class="st3" d="M124.3,150.2c-0.3,0-0.5,0.1-0.8,0.1c-1.6,0-3.1-0.3-4.4-0.9c1.6,1,3.3,1.6,4.8,1.6c0.4,0,0.7,0,1.1-0.1
		L124.3,150.2z"/>
	<path class="st3" d="M128.9,148.9c1-1.2,1.4-2.9,1.5-4.8h-1.2c-0.1,2.7-1.8,5-4,5.8l0.7,0.8C127.2,150.4,128.2,149.8,128.9,148.9z"
		/>
	<path class="st3" d="M133.9,144.2h-1.2c0,1.9,0.5,3.6,1.5,4.8c0.7,0.8,1.7,1.5,3,1.8l0.7-0.8C135.6,149.2,134,146.9,133.9,144.2z"
		/>
	<path class="st3" d="M133.7,149.3c-1.1-1.3-1.6-3.1-1.6-5.1h-1.1c0,2-0.5,3.8-1.6,5.1c-0.7,0.9-1.7,1.5-3,1.9l1,1.1
		c1.3-0.3,2.7-0.5,4.2-0.5c1.5,0,3,0.2,4.2,0.5l1-1.1C135.4,150.8,134.4,150.2,133.7,149.3z"/>
	<path class="st3" d="M139.2,151.5c-0.5,0-1,0-1.5-0.1l-1,1.1c0.4,0.1,0.8,0.3,1.2,0.5c2.4-0.7,4.5-1.8,6.5-3.2
		C142.7,150.9,140.9,151.5,139.2,151.5C139.2,151.5,139.2,151.5,139.2,151.5z"/>
	<path class="st3" d="M138.8,150.2l-0.6,0.7c0.3,0,0.7,0.1,1.1,0.1c1.5,0,3.2-0.6,4.8-1.6c-1.4,0.5-2.9,0.9-4.4,0.9
		C139.3,150.2,139,150.2,138.8,150.2z"/>
	<path class="st3" d="M150.9,131.9c-0.1,0.3-0.2,0.5-0.3,0.7c1,0.8,2,1.4,2.9,1.7c0.1-0.5,0.1-1.1,0.1-1.6c-0.2,0.1-0.5,0.1-0.7,0.1
		C152.3,132.8,151.6,132.4,150.9,131.9z"/>
	<path class="st3" d="M150.2,133.5c1.1,1.1,1.9,2.6,1.9,4.7c0,1-0.2,1.9-0.5,2.9c0.9-1.9,1.5-4,1.8-6.2c-1-0.2-2.1-0.8-3.1-1.7
		C150.3,133.3,150.3,133.4,150.2,133.5z"/>
	<path class="st3" d="M150.9,140.5c0,0.3,0,0.7-0.1,1c0.5-1.1,0.7-2.3,0.7-3.3c0-1.9-0.7-3.2-1.6-4.1c-0.2,0.3-0.4,0.7-0.6,0.9
		C150.3,136.1,150.9,137.9,150.9,140.5z"/>
	<path class="st0" d="M131.1,116.2v-1.5c-4.1,0.2-7.6,2.7-8.9,6.3h2.3L131.1,116.2z"/>
	<path class="st0" d="M131.9,116.2l6.5,4.8h2.3c-1.3-3.5-4.7-6.1-8.9-6.3V116.2z"/>
	<polygon class="st0" points="125.2,121.6 127.9,128.4 135.1,128.4 137.8,121.6 131.5,117 	"/>
	<path class="st0" d="M121.7,124c0,3.1,1.6,5.8,4.1,7.5l1.4-2.7l-2.8-6.9H122C121.8,122.6,121.7,123.3,121.7,124z"/>
	<path class="st0" d="M136.5,132l-1.4-2.7h-7.3l-1.4,2.7c1.5,0.8,3.2,1.3,5,1.3C133.3,133.3,135,132.8,136.5,132z"/>
	<path class="st0" d="M141.3,124c0-0.7-0.1-1.4-0.3-2.1h-2.4l-2.8,6.9l1.4,2.7C139.7,129.8,141.3,127.1,141.3,124z"/>
	<path class="st0" d="M125.2,153c0.7,0.2,1.4,0.4,2,0.5l-0.8-1C125.9,152.7,125.5,152.8,125.2,153z"/>
	<path class="st0" d="M127.3,152.3l1.3,1.4c1,0.1,2,0.2,3,0.2c1,0,2-0.1,3-0.2l1.3-1.4c-1.3-0.3-2.7-0.5-4.2-0.5
		C130,151.8,128.5,152,127.3,152.3z"/>
	<path class="st0" d="M135.8,153.5c0.7-0.1,1.4-0.3,2-0.5c-0.4-0.2-0.8-0.3-1.2-0.5L135.8,153.5z"/>
	<path class="st0" d="M131.1,112.1c-0.1,0-0.1,0-0.2-0.1c-0.3-0.1-0.9-0.2-1.5-0.3c-1.3-0.2-3.1-0.4-5.1-0.4c-0.4,0-0.8,0-1.2,0
		c-0.5,0.2-1,0.4-1.4,0.7c2.5,0.5,5.8,0.8,9.5,0.8V112.1z"/>
	<path class="st0" d="M131.9,112.1v0.7c3.7,0,7-0.3,9.5-0.8c-0.5-0.2-0.9-0.5-1.4-0.7c-0.4,0-0.8,0-1.2,0c-3.1,0-5.6,0.5-6.6,0.8
		C132.1,112.1,132,112.1,131.9,112.1z"/>
	<path class="st0" d="M137.5,110.5c-1.9-0.5-3.9-0.8-6-0.8c-2.1,0-4.1,0.3-6,0.8c3.1,0.1,5.4,0.7,6,0.9
		C132,111.2,134.4,110.6,137.5,110.5z"/>
	<path class="st0" d="M120.6,121.1h0.6c1.4-3.9,5.2-6.8,9.9-7v-0.6C126.2,113.7,122,116.8,120.6,121.1z"/>
	<path class="st0" d="M131.9,113.5v0.6c4.6,0.2,8.5,3,9.9,7h0.6C141,116.8,136.9,113.7,131.9,113.5z"/>
	<path class="st0" d="M120.1,124.3c0,3.7,1.9,6.9,4.9,8.8l0.3-0.5c-2.8-1.9-4.6-4.9-4.6-8.3c0-0.8,0.1-1.6,0.3-2.4h-0.6
		C120.2,122.7,120.1,123.5,120.1,124.3z"/>
	<path class="st0" d="M137.3,133.5l-0.3-0.5c-1.6,0.9-3.5,1.4-5.6,1.4c-2,0-3.9-0.5-5.6-1.4l-0.3,0.5c1.7,1,3.7,1.5,5.8,1.5
		C133.6,135,135.6,134.5,137.3,133.5z"/>
	<path class="st0" d="M142.9,124.3c0-0.8-0.1-1.6-0.3-2.4h-0.6c0.2,0.8,0.3,1.5,0.3,2.4c0,3.4-1.8,6.5-4.6,8.3l0.3,0.5
		C141,131.1,142.9,127.9,142.9,124.3z"/>
	<path class="st0" d="M146.6,143.9c0-0.1,0.1-0.1,0.1-0.1c0.4-1.1,0.6-2.2,0.6-3.1c0-1.6-0.4-2.8-0.7-3.3c0,0,0,0,0,0h-6.7
		c-1.1,2.8-3.7,5.6-4.6,6.4c0.2,0.3,0.6,0.9,1.2,1.6c0.8,1,1.8,2.3,2.8,3.3C143.2,147.8,146,144.6,146.6,143.9z"/>
	<path class="st0" d="M135,142.9c0.4-0.4,0.8-0.9,1.4-1.5c1-1.2,2.1-2.8,2.7-4.4l-0.8-1.5c-2.6,2.1-4.3,5.2-4.5,7.9h0.7
		C134.7,143.2,134.8,143.1,135,142.9z"/>
	<path class="st0" d="M148.3,134.9c0.1-0.2,0.3-0.4,0.4-0.6c-1.2-1-2.6-1.4-3.9-1.4c-2.2,0-4.2,0.8-5.9,2l0.8,1.6h6.9c0,0,0,0,0,0
		c0.1-0.1,0.2-0.2,0.4-0.3C147.4,135.9,147.9,135.5,148.3,134.9z"/>
	<path class="st0" d="M138.5,149.2c-1.8-1.8-3.5-4.3-4-5h-0.6c0.1,2.7,1.8,5,4,5.8L138.5,149.2z"/>
	<path class="st0" d="M147.3,144.4c-0.7,0.8-3.6,4.2-7.9,5.2l-0.6,0.6c0.3,0,0.5,0.1,0.8,0.1c1.6,0,3.1-0.3,4.4-0.9
		c-1.6,1-3.3,1.6-4.8,1.6c-0.4,0-0.7,0-1.1-0.1l-0.5,0.5c0.5,0.1,1,0.1,1.5,0.1c0,0,0,0,0,0c1.7,0,3.5-0.7,5.2-1.7
		c0.9-0.6,1.7-1.3,2.4-2c0.1-0.1,0.2-0.2,0.4-0.3c0.9-0.9,1.8-1.9,2.5-3l-0.5,0L147.3,144.4z"/>
	<path class="st0" d="M137.9,134.6l-0.3-0.5c-3.1,2.2-5.3,5.6-5.5,9.3h0.6c0.2-2.8,1.6-5.5,3.7-7.5
		C136.9,135.4,137.3,134.9,137.9,134.6z"/>
	<path class="st0" d="M149.5,133c-1.3-0.9-2.9-1.3-4.4-1.3c-2.5,0-4.8,0.7-6.8,2l0.3,0.5c1.9-1.2,4.2-1.9,6.6-1.9
		c1.4,0,2.9,0.4,4.1,1.3C149.3,133.3,149.4,133.1,149.5,133z"/>
	<path class="st0" d="M136.7,151.2l0.4-0.5c-1.3-0.3-2.3-0.9-3-1.8c-1-1.2-1.4-2.9-1.5-4.8h-0.6c0,2,0.5,3.8,1.6,5.1
		C134.4,150.2,135.4,150.8,136.7,151.2z"/>
	<path class="st0" d="M150.2,133.5c-0.1,0.2-0.2,0.4-0.3,0.5c1,0.9,1.6,2.3,1.6,4.1c0,1.1-0.3,2.2-0.7,3.3c0-0.3,0.1-0.7,0.1-1
		c0-2.6-0.6-4.4-1.6-5.5c-0.8,1.1-1.5,1.8-1.9,2.1c0.3,0.6,0.7,1.9,0.7,3.6c0,0.9-0.1,1.8-0.5,2.9l2.1,0l0.4,0h0
		c0.5-0.8,1-1.6,1.4-2.5c0.3-1,0.5-2,0.5-2.9C152.1,136.1,151.3,134.5,150.2,133.5z"/>
	<path class="st0" d="M143.3,121.1c-0.7-1.9-1.1-3.5-1.1-4.6c0-1.3,0.4-2.5,0.9-3.4c-0.2-0.1-0.3-0.2-0.5-0.3c-0.6,1-1,2.3-1,3.7
		c0,1.2,0.4,2.8,1,4.6H143.3z"/>
	<path class="st0" d="M149.9,132c-1.3-1.3-2.6-2.9-3.7-4.8c-1-1.7-2-3.6-2.6-5.3H143c0.7,1.8,1.7,3.8,2.8,5.6c1.2,1.9,2.5,3.7,3.9,5
		C149.8,132.4,149.8,132.2,149.9,132z"/>
	<path class="st0" d="M150.4,133.2c1,0.8,2,1.4,3.1,1.7c0-0.2,0-0.4,0.1-0.6c-0.9-0.2-1.9-0.8-2.9-1.7
		C150.5,132.8,150.4,133,150.4,133.2z"/>
	<path class="st0" d="M143.6,121.1h2.3l1-5.1c-0.8-0.8-1.7-1.5-2.6-2.2c-1,0.2-1.7,1.1-1.7,2.7C142.6,117.8,143,119.4,143.6,121.1z"
		/>
	<path class="st0" d="M150.7,129.1c-0.6-2.9-2.9-5.5-4.1-6.7c-0.2-0.2-0.4-0.4-0.5-0.5h-2.2c1.5,3.6,4,7.4,6.2,9.4
		C150.4,130.6,150.6,129.9,150.7,129.1z"/>
	<path class="st0" d="M151.5,128.6h1.9c-0.7-4.6-2.7-8.7-5.8-12l-0.9,4.7C147.5,122.1,150.5,125,151.5,128.6z"/>
	<path class="st0" d="M153.5,129.5h-2c-0.2,0.9-0.4,1.7-0.6,2.4c0.7,0.6,1.4,0.9,2,0.9c0.2,0,0.5,0,0.7-0.1c0-0.3,0-0.6,0-0.8
		C153.6,131,153.6,130.3,153.5,129.5z"/>
	<path class="st0" d="M116.4,143.9c0.1,0.1,0.2,0.3,0.4,0.5c0.4,0.4,0.9,1,1.6,1.5c1.3,1.1,3.2,2.3,5.4,2.8c1-1,2-2.3,2.8-3.3
		c0.5-0.7,0.9-1.3,1.2-1.6c-0.8-0.8-3.5-3.6-4.6-6.4h-6.7c0,0,0,0,0,0c-0.1,0.2-0.2,0.4-0.3,0.7c-0.2,0.6-0.4,1.5-0.4,2.6
		c0,0.9,0.2,2,0.6,3.1C116.4,143.8,116.4,143.8,116.4,143.9z"/>
	<path class="st0" d="M116.3,136.5C116.3,136.5,116.3,136.5,116.3,136.5l6.9,0l0.8-1.6c-1.7-1.2-3.7-2-5.9-2c-1.3,0-2.7,0.3-3.9,1.4
		C115.1,135.6,116,136.3,116.3,136.5z"/>
	<path class="st0" d="M124.7,135.5l-0.8,1.5c0.9,2.3,3,4.8,4.1,5.9c0.2,0.2,0.4,0.4,0.5,0.5h0.7C129,140.6,127.3,137.6,124.7,135.5z
		"/>
	<path class="st0" d="M114.9,140.6c0-1.7,0.5-3,0.7-3.6c-0.4-0.3-1.2-1-1.9-2.1c-0.9,1.2-1.6,2.9-1.6,5.5c0,0.3,0,0.7,0.1,1
		c-0.5-1.1-0.7-2.3-0.7-3.3c0-1.9,0.7-3.2,1.6-4.1c-0.1-0.2-0.2-0.3-0.3-0.5c-1.1,1.1-1.9,2.6-1.9,4.7c0,0.9,0.2,1.9,0.5,2.9
		c0.4,0.9,0.9,1.7,1.4,2.5l0,0l0.4,0l2.1,0C115,142.5,114.9,141.5,114.9,140.6z"/>
	<path class="st0" d="M129.1,144.2h-0.6c-0.5,0.7-2.2,3.2-4,5l0.7,0.8C127.4,149.2,129,146.9,129.1,144.2z"/>
	<path class="st0" d="M117.8,132.2c2.4,0,4.6,0.7,6.6,1.9l0.3-0.5c-2-1.2-4.4-2-6.8-2c-1.4,0-3,0.4-4.4,1.3c0.1,0.2,0.2,0.3,0.3,0.5
		C115,132.6,116.5,132.2,117.8,132.2z"/>
	<path class="st0" d="M130.9,143.3c-0.2-3.7-2.4-7.1-5.5-9.3l-0.3,0.5c0.5,0.4,1,0.8,1.5,1.2c2.1,2,3.5,4.7,3.7,7.5H130.9z"/>
	<path class="st0" d="M124.9,150.9c-0.3,0-0.7,0.1-1.1,0.1c-1.5,0-3.2-0.6-4.8-1.6c1.4,0.5,2.9,0.9,4.4,0.9c0.3,0,0.5,0,0.8-0.1
		l-0.6-0.6c-4.4-0.9-7.3-4.3-7.9-5.2l-2,0l-0.5,0c0.8,1.1,1.6,2.1,2.5,3c0.1,0.1,0.2,0.2,0.4,0.3c0.8,0.7,1.6,1.4,2.4,2
		c1.7,1.1,3.5,1.7,5.2,1.7c0,0,0,0,0,0c0.5,0,1,0,1.5-0.1L124.9,150.9z"/>
	<path class="st0" d="M129.3,149.3c1.1-1.3,1.6-3.1,1.6-5.1h-0.6c0,1.9-0.5,3.6-1.5,4.8c-0.7,0.8-1.7,1.5-3,1.8l0.4,0.5
		C127.6,150.8,128.6,150.2,129.3,149.3z"/>
	<path class="st0" d="M119.7,121.1h0.6c0.6-1.8,1-3.4,1-4.6c0-1.4-0.4-2.7-1-3.7c-0.2,0.1-0.3,0.2-0.5,0.3c0.6,0.9,0.9,2.1,0.9,3.4
		C120.8,117.5,120.4,119.2,119.7,121.1z"/>
	<path class="st0" d="M117.2,127.5c1.1-1.8,2.1-3.8,2.8-5.6h-0.6c-0.7,1.7-1.6,3.6-2.6,5.3c-1.1,1.8-2.4,3.5-3.7,4.8
		c0.1,0.2,0.2,0.4,0.2,0.6C114.7,131.2,116.1,129.4,117.2,127.5z"/>
	<path class="st0" d="M112.4,132.6c-1,0.8-2,1.4-2.9,1.7c0,0.2,0,0.4,0.1,0.6c1-0.2,2.1-0.8,3.1-1.7
		C112.6,133,112.5,132.8,112.4,132.6z"/>
	<path class="st0" d="M119.4,121.1c0.6-1.7,1-3.2,1-4.6c0-1.6-0.7-2.6-1.7-2.7c-0.9,0.7-1.8,1.4-2.6,2.2l1,5.1H119.4z"/>
	<path class="st0" d="M116.3,121.3l-0.9-4.7c-3,3.2-5.1,7.4-5.8,12h1.9C112.5,125,115.5,122.1,116.3,121.3z"/>
	<path class="st0" d="M116.9,121.9c-0.1,0.1-0.3,0.3-0.5,0.5c-0.4,0.4-0.9,0.9-1.4,1.6c-1.1,1.3-2.2,3.2-2.6,5.1
		c0.1,0.8,0.3,1.6,0.5,2.2c2.2-2,4.7-5.8,6.2-9.4H116.9z"/>
	<path class="st0" d="M112.1,131.9c-0.2-0.7-0.5-1.5-0.6-2.4h-2c-0.1,0.8-0.1,1.5-0.1,2.3c0,0.3,0,0.6,0,0.8
		c0.2,0.1,0.5,0.1,0.7,0.1C110.7,132.8,111.4,132.4,112.1,131.9z"/>
	<ellipse class="st2" cx="100" cy="40.9" rx="20.5" ry="31"/>
	<path d="M111.9,30.9c0-0.5-0.3-0.8-0.7-1.1c-0.4-0.2-0.9-0.4-1.5-0.4c-0.1,0-0.2,0-0.3,0c0.3-0.2,0.7-0.6,1-0.9
		c0.9-0.9,1.8-1.9,1.8-3c0-0.6-0.3-1.2-1-1.2c-0.8,0-1.4,0.6-2,1.2c-0.6,0.6-1.1,1.3-1.5,1.5c-0.2,0.1-0.4,0.2-0.6,0.3
		c0.5-1.5,1.1-2.3,1.1-3.6c0-1-0.6-1.9-1.5-1.9c-0.4,0-0.7,0.2-0.9,0.5c-0.4,0.5-0.6,1.3-0.8,2.2c-0.1-0.5-0.3-1-0.5-1.4
		c-0.4-0.8-1.1-1.4-1.8-1.4c-0.6,0-1.2,0.5-1.2,1.1c0,2,0.9,2.9,0.9,5.5h0l0,0c0,4.6-2.8,7.3-4.4,8.3c-1.3,0.8-2.8,1.1-4.1,2.6
		c-1.4-0.1-2.4-1.3-2.6-2.7c0.1-0.3,0.2-0.7,0.2-1c0-0.9-0.5-1.7-1.3-2.2c-0.7-0.5-1.6-0.8-2.4-0.8c-3.2,0-4.8,3.6-4.8,3.6l-0.1,0.2
		l0.2,0.1c4.8,2.8,5.3,5.8,5.5,8.4c0.1,1.5,0.8,3.5,1.5,4.5c2.3,3,4.5,3.9,6.2,4.3c1.8,0.4,3.1,0.3,3.7,1c0.7,0.7,1,1.4,1,2.6
		c0,0.1,0,0.3,0,0.4c0,0.7,0,1.2,0.2,1.7c0.3,0.5,0.9,1.2,2,1.2c0,0,0,0,0,0c0.3,0,0.6,0,0.9-0.2c0.2-0.1,0.4-0.4,0.5-0.7
		c0.3,0.2,0.6,0.4,1,0.4c0.6,0,0.9-0.4,1.2-0.8c0.1-0.2,0.2-0.3,0.3-0.4c0.4,0.2,0.8,0.3,1.1,0.4c0.6,0,1.4-0.5,1.4-1.5
		c0-0.1,0-0.3,0-0.4c0.7-0.1,1.2-0.9,1.2-1.7c0-0.3-0.1-0.6-0.1-0.8c0.1-0.1,0.3-0.2,0.4-0.3c0.3-0.3,0.7-0.8,0.7-1.4
		c0-0.7-0.3-1.2-0.8-1.5c-0.5-0.2-1.1-0.3-1.8-0.3c-0.5,0-1.1,0-1.7,0c-1.2,0-2.4-0.1-3.4-0.8c-1-0.7-1.7-1.9-2-4.2
		c0.1-0.2,0.2-0.4,0.3-0.7c0.1,0,0.1,0,0.2,0c0.5,0,1.1-0.5,1.5-1c0.5-0.5,0.8-1.2,0.8-1.8c0-0.3-0.1-0.6-0.1-0.9
		c0.4,0.3,0.9,0.4,1.3,0.4c0,0,0,0,0,0c0.4,0,0.7-0.2,0.9-0.4c0.2-0.3,0.3-0.6,0.3-1h0c0-0.6-0.5-1.3-1.2-2c0.6,0.1,1.1,0.2,1.8,0.2
		c1,0,1.9-0.5,2-1.4c0-0.7-0.5-1.2-1.1-1.4c-0.6-0.3-1.3-0.4-2.1-0.6c0.2,0,0.4,0,0.7,0c0.9,0,1.8-0.2,2.4-0.6
		c0.6-0.4,1.1-0.9,1.1-1.6c0-0.3-0.1-0.5-0.3-0.7c-0.2-0.2-0.5-0.3-0.8-0.4c0.2-0.1,0.4-0.1,0.6-0.2
		C111.2,31.9,111.8,31.5,111.9,30.9z"/>
	<path class="st0" d="M108,27.5c0.5-0.3,1-1,1.6-1.6c0.6-0.6,1.1-1.1,1.6-1.1c0.1,0,0.2,0,0.2,0.2c0.1,0.1,0.1,0.3,0.1,0.5
		c0,0.7-0.8,1.8-1.6,2.6c-0.7,0.7-1.4,1.2-1.6,1.4c-0.8,0.1-1.6,0.3-2.2,0.5c-0.2,0.1-0.4,0.2-0.6,0.3c-0.3,0-0.5-0.3-0.5-0.5
		c0-0.2,0.3-0.6,0.9-1C106.5,28.4,107.3,28,108,27.5z"/>
	<path class="st0" d="M103.8,44.3c-0.4,0.5-0.9,0.8-1.1,0.8c-0.1,0,0,0-0.1-0.1l-0.4-1.4L102,45c-0.1,1.1-0.6,1.5-1.1,1.5
		c-0.4,0-0.9-0.3-1.3-1.3l-0.2-0.6l-0.3,0.5c-0.3,0.6-0.9,1.1-1.4,1.1c-0.5,0-1.2-0.4-1.8-2l-0.5,0.2c0.6,1.7,1.4,2.4,2.3,2.4
		c0.7,0,1.3-0.4,1.7-1c0.4,0.7,1,1.1,1.6,1.2c0.3,0,0.5-0.1,0.7-0.2c0.3,2.1,1.1,3.4,2.2,4.1c1.1,0.8,2.5,0.9,3.7,0.9
		c0.6,0,1.2,0,1.7,0c0.6,0,1.2,0.1,1.5,0.2c0.3,0.2,0.5,0.4,0.5,1c0,0.4-0.2,0.7-0.5,1c-0.1,0.1-0.3,0.2-0.3,0.2
		c-0.4-0.4-1-0.4-1.6-0.5c-0.6-0.1-1.3-0.2-1.9-0.5c-0.1-0.1-0.3,0-0.4,0.1c-0.1,0.1,0,0.3,0.1,0.4c0.9,0.5,1.9,0.5,2.6,0.7
		c0.4,0.1,0.6,0.2,0.8,0.3c0,0,0.1,0.1,0.1,0.1c0,0,0,0,0,0c0.1,0.1,0.2,0.4,0.2,0.7c0,0.4-0.1,0.7-0.3,0.9
		c-0.2,0.2-0.3,0.3-0.5,0.3c-0.3,0-1.2-0.5-1.9-1c-0.7-0.5-1.3-1.1-1.3-1.1c-0.1-0.1-0.3-0.1-0.4,0c-0.1,0.1-0.1,0.3,0,0.4
		c0,0,0.6,0.6,1.3,1.1c0.6,0.4,1.2,0.9,1.8,1.1c0.1,0.2,0.1,0.3,0.1,0.5c0,0.3-0.1,0.6-0.3,0.7c-0.2,0.2-0.4,0.2-0.5,0.2
		c-0.3,0-1-0.3-1.7-0.9c-0.7-0.6-1.3-1.3-1.6-2.1c-0.1-0.1-0.2-0.2-0.4-0.2c-0.1,0.1-0.2,0.2-0.2,0.4c0.3,1,1,1.8,1.8,2.4
		c0.2,0.1,0.3,0.2,0.5,0.4c-0.2,0.4-0.7,1-1,0.9c-0.5,0-1.1-0.7-1.6-1.5c-0.5-0.8-0.7-1.6-0.7-1.6c-0.1-0.1-0.2-0.2-0.4-0.2
		c-0.1,0.1-0.2,0.2-0.2,0.4c0,0,0.3,0.8,0.8,1.7c0.1,0.2,0.3,0.5,0.5,0.7c0.1,0.2,0.1,0.3,0.1,0.5c0,0.3-0.1,0.3-0.2,0.4
		c-0.2,0.1-0.4,0.1-0.6,0.1c-1,0-1.3-0.5-1.6-0.9c-0.2-0.3-0.2-0.8-0.2-1.4c0-0.1,0-0.3,0-0.4c0-1.3-0.4-2.2-1.1-3
		c-1-1-2.3-0.8-4-1.2c-1.7-0.4-3.7-1.2-5.9-4.1c-0.7-0.8-1.3-2.8-1.4-4.2c-0.2-2.6-0.7-5.9-5.5-8.7c0-0.1,0.1-0.2,0.2-0.3
		c0.6-0.9,2-2.8,4-2.7c0.7,0,1.5,0.2,2.1,0.7c0.6,0.4,1,1,1,1.7c0,0.3-0.1,0.5-0.2,0.8l0,0.1l0,0.1c0.1,1.5,1.2,2.9,2.7,3.2
		c-0.5,0.6-0.9,1.5-1.2,2.5c-0.1,0.1,0,0.3,0.2,0.4c0,0,0.1,0,0.1,0c0.1,0,0.2-0.1,0.3-0.2c1.4-4.1,3.3-4,5.5-5.3
		c1.8-1.1,4.7-3.9,4.7-8.8l0,0h0c0-2.7-0.9-3.7-0.9-5.5c0-0.3,0.3-0.6,0.6-0.6c0.5,0,0.9,0.4,1.3,1.1c0.4,0.7,0.6,1.7,0.6,2.9v2
		l0.6-2c0.3-1,0.4-2,0.7-2.8c0.1-0.4,0.2-0.7,0.4-0.8c0.1-0.2,0.3-0.2,0.5-0.2c0.2,0,0.4,0.1,0.6,0.4c0.2,0.2,0.3,0.6,0.3,1
		c0,1.2-0.7,2.1-1.3,4c-0.3,0.2-0.6,0.3-0.8,0.5c-0.6,0.4-1.1,0.9-1.1,1.5c0,0.4,0.2,0.7,0.5,0.9c-0.3,0.3-0.5,0.6-0.5,1
		c0,0.3,0.1,0.6,0.3,0.8c0,0,0,0-0.1,0c-0.7,0.3-1.2,0.6-1.3,1.2l0,0c0,0.4,0.2,0.9,0.5,1.2c-0.3,0-0.5,0.1-0.7,0.2
		c-0.3,0.2-0.5,0.4-0.5,0.8c0,0.5,0.2,1,0.6,1.5l0,0c-0.6,0-1.2,0.3-1.5,0.8c-0.9,1-1.8,1.6-2.5,1.9c0,0,0,0,0,0c0,0,0,0,0,0
		c-0.7,0.3-1.4,0.4-2,0.4c-0.6,0.1-1.2,0.1-1.7,0.5c-0.5,0.4-1,1-1.4,2c-0.1,0.1,0,0.3,0.2,0.4c0,0,0.1,0,0.1,0
		c0.1,0,0.2-0.1,0.3-0.2c0.4-1,0.7-1.5,1.1-1.7c0.2-0.1,0.4-0.2,0.6-0.3c0.3,0.6,1,1.7,2.1,1.7c0.5,0,0.9-0.2,1.4-0.6
		c0.2,0.2,0.4,0.3,0.7,0.3c0.3,0,0.7-0.1,1.2-0.4c0.4-0.3,0.8-0.8,0.8-1.6c0-0.1,0-0.2,0-0.3c0.3,0.3,0.7,0.6,1.1,0.9c0,0,0,0,0,0.1
		c0.1,0.2,0.4,0.8,0.4,1.4C104.5,43.2,104.2,43.8,103.8,44.3z"/>
	<path class="st0" d="M99.4,40.8c0.1,0.2,0.2,0.5,0.3,0.8c0.1,0.1,0.1,0.3,0.2,0.4c-0.4,0.4-0.8,0.5-1.1,0.5c-0.7,0-1.2-0.7-1.5-1.3
		c0.4,0,0.8-0.1,1.3-0.2C98.8,41,99.1,40.9,99.4,40.8z"/>
	<path class="st0" d="M100.2,41.3c-0.1-0.3-0.3-0.6-0.3-0.7c0.6-0.3,1.3-0.7,2-1.4c0,0.1,0.1,0.3,0.2,0.4c0.2,0.5,0.2,0.9,0.2,1.2
		c0,0.6-0.2,1-0.5,1.2c-0.3,0.2-0.7,0.3-0.8,0.3C100.9,42.2,100.5,41.8,100.2,41.3z"/>
	<path class="st0" d="M106.2,41.9c-0.4,0-1.5-0.6-2.3-1.3c-0.4-0.4-0.8-0.7-1.1-1.1c-0.1-0.1-0.1-0.1-0.2-0.2
		c-0.1-0.2-0.1-0.4-0.2-0.5c0-0.2,0.1-0.3,0.3-0.4c0.2-0.1,0.5-0.2,0.8-0.2c0,0,0,0,0,0c0.7,0,1.6,0.5,2.3,1.2
		c0.7,0.7,1.2,1.5,1.1,1.7C106.8,41.5,106.6,41.8,106.2,41.9z"/>
	<path class="st0" d="M109.4,37.8c0,0.2-0.1,0.4-0.4,0.5c-0.2,0.2-0.6,0.3-1,0.3c-1.3,0-2.5-0.3-3.3-0.8c-0.8-0.5-1.3-1.1-1.3-1.8
		c0-0.1,0.1-0.2,0.2-0.3c0.2-0.1,0.4-0.2,0.7-0.2c0.6,0,1.4,0.5,2.2,0.8c0.8,0.2,1.6,0.4,2.1,0.6C109.2,37.1,109.4,37.4,109.4,37.8z
		"/>
	<path class="st0" d="M110.4,33.6c0,0.4-0.3,0.8-0.8,1.1c-0.5,0.3-1.3,0.5-2.1,0.5c-1.4,0-2.3-0.2-2.8-0.5c-0.5-0.3-0.6-0.6-0.6-1h0
		c0-0.2,0.3-0.5,0.9-0.7c0.6-0.2,1.5-0.4,2.5-0.4c0.9,0,1.6,0.1,2.2,0.3c0.3,0.1,0.5,0.2,0.6,0.3C110.3,33.4,110.4,33.4,110.4,33.6z
		"/>
	<path class="st0" d="M107.5,32.1L107.5,32.1L107.5,32.1c-0.7,0-1.3,0.1-1.8,0.2c-0.3,0-0.6-0.3-0.6-0.6c0-0.3,0.4-0.8,1.2-1.1
		c0.8-0.3,2-0.6,3.3-0.6c0.5,0,0.9,0.1,1.2,0.3c0.3,0.2,0.4,0.4,0.4,0.6c0,0.2-0.3,0.6-1,0.8C109.6,32,108.6,32.1,107.5,32.1z"/>
	<circle cx="86.7" cy="35.6" r="0.7"/>
	<path class="st3" d="M44.8,33.6h14.1c3.5,0,6.9-0.5,10.4-0.8h0.8c0.7,0,1.4,2.2,1.9,3.2c-1.5,1.6-3.3,3.1-5,4.7
		c-1.5-5.1-2.7-5.3-7.4-5.3H56l-0.8,12.1l10.7,0.3c-0.7,0.9-1.3,1.6-2.7,1.6h-8.1l-0.7,12.6l8.5,0.8l-2.4,1.6h-20l1.6-1.3
		c0.7-0.9,3.4-0.9,4.7-1c0.9-8.7,1.6-17.5,1.9-26.3l-6.3-0.3L44.8,33.6z"/>
	<path class="st4" d="M157.7,61c-4.2,2.2-10.4,4.1-15.3,4.1c-7.6,0-13.3-4.6-13.3-14.4c0-10.4,6.5-18,18-18c4.3,0,7.5,0.9,9,2
		c1.8,1.3,2.6,3.4,2.6,4.1c0,0.2,0,0.4-1.9,2.4l-2.6,2.8l-0.9-0.5c-0.1-4.3-1.7-9.1-6.8-9.1c-4.7,0-9.3,4.9-9.3,14
		c0,6.2,2.6,13.3,10.6,13.3c3.9,0,7.4-1.1,10.7-2.6L157.7,61z"/>
	<path d="M24.9,145.3l0.6,2.8c0.1,0.7,0.4,1.4,0.6,2l0,0.2c0,0.1-0.4,0.4-0.6,0.5c-0.4-0.2-0.7-0.5-1.1-0.8c1-0.5,0.9-0.8,0.8-1.7
		l-0.1-0.7l-2.4,0.3l0.4,2.1c-0.2-0.1-0.4-0.2-0.4-0.5l-0.3-1.6l-2.5,0.3l0.2,1.7l-0.4-0.4l-0.8-4l0.3,0.3c0.2,0.1,0.3,0.6,0.4,0.9
		c1.8-0.2,3.6-0.4,5.3-0.7l-0.2-1.3L24.9,145.3z"/>
	<path d="M25.9,150.8l1.5,2.7l-0.4-0.1l-0.3-0.3c-1.1,0.4-2.3,0.8-3.3,1.4c-0.7,0.4-1.2,0.8-0.8,1.6c0.3,0.6,0.8,1,1.3,1.4l2-0.9
		c0.7-0.3,1.4-0.6,2.2-0.9l-0.3-0.8l0.6,0.3l1.2,2.3l-0.5-0.2l-0.3-0.3c-1.3,0.5-2.6,1-3.9,1.7c-1,0.5-0.9,0.7-0.2,1.9l0.1,0.1
		c-0.1,0-0.3,0-0.4-0.1c-0.3-0.3-1.4-2-1.5-2.1c0,0,0-0.3,0-0.3c0.2-0.1,0.5-0.3,0.7-0.4c-0.6-0.5-2.1-1.8-2.4-2.4
		c-0.5-0.9,0.3-1.4,0.6-1.6c0.3-0.2,2.4-1,3-1.3l1.2-0.5l-0.5-1.2L25.9,150.8z"/>
	<path d="M31.4,159.8l-0.7-0.7c-0.1-0.1-0.3-0.2-0.5-0.1l-1.2,0.6l-0.8-0.4l1.9-1.5c0.2,0.2,0.3,0.4,0.5,0.6
		c0.2,0.2,0.4,0.5,0.7,0.8l1.9,1.8c0.6,0.6,1,0.8,1.5,1.1l-1.3,1.5l-0.8-0.2l0.5-0.9c0.4-0.7,0.3-0.9-0.4-1.5l-0.2-0.1l-3.9,3.6
		l1,1.1l-0.5,0l-3.1-3l0.7,0.1l0.9,0.7L31.4,159.8z"/>
	<path d="M32.1,167.6l0.7,0.2c0.7-0.9,2.4-3.4,2.9-4.4l-1-0.7l0.6-0.1l1.3,0.7c0.7,0.4,1.5,0.8,2.2,1.2c0.8,0.4,1.2,1,0.8,1.7
		c-0.6,1-1.8,0.8-2.8,0.5l0,0c1.7,0.9,2,1.6,1.5,2.5c-0.2,0.4-0.6,0.8-1.3,1c-0.5,0.1-1,0-1.9-0.5c-0.8-0.4-1.3-0.8-1.8-1.1l-1.7-1
		L32.1,167.6z M34,168.6c0.1,0.1,0.4,0.3,0.8,0.5c0.9,0.5,1.6,0.3,2.1-0.5c0.5-0.9-0.2-1.5-0.8-1.9c-0.3-0.2-0.5-0.2-0.6-0.3
		L34,168.6z M35.7,166.1l0.1,0.1c0.8,0.5,1.9,0.6,2.3-0.2c0.4-0.6,0.2-1.2-0.4-1.5c-0.2-0.1-0.4-0.2-0.6-0.3L35.7,166.1z"/>
	<path d="M45.1,167.1c1.9,0.7,2.7,1.9,2,3.8c-0.9,2.4-2.6,3-4.8,2.2c-2.4-0.9-2.5-2.6-1.9-4.1C40.8,168,41.9,166,45.1,167.1z
		 M42.6,172.9c1.3,0.5,2.2-0.5,2.8-2.3c0.6-1.5,0.4-2.8-0.7-3.2c-1.2-0.4-2.2,0.4-2.9,2.2C41.3,171.1,41.4,172.4,42.6,172.9z"/>
	<path d="M50,169.4l-1.1-0.4l0.5-0.2l3.5,1l-0.6,0.2l-0.8-0.1l-1.7,5.1c0.1,0.1,0.4,0.2,0.5,0.2c1.1,0.3,1.6-0.1,3.1-1.7l0.2,0.4
		c-0.4,0.7-0.9,1.6-1.3,2.4c-0.4-0.2-0.9-0.4-1.3-0.5c-0.5-0.1-0.9-0.3-1.4-0.4l-2.4-0.6l0.4-0.2l0.7,0.1L50,169.4z"/>
	<path d="M65.9,178.3c-0.9,0.3-2.2,0.4-3.2,0.2c-1.5-0.3-2.5-1.5-2.1-3.4c0.4-2.1,2-3.3,4.3-2.8c0.9,0.2,1.4,0.5,1.7,0.8
		c0.3,0.3,0.4,0.8,0.3,0.9c0,0,0,0.1-0.5,0.4l-0.6,0.5l-0.2-0.1c0.2-0.9,0-1.9-1-2.1c-0.9-0.2-2.1,0.6-2.4,2.4
		c-0.3,1.2,0,2.8,1.5,3.1c0.8,0.2,1.5,0.1,2.2-0.1L65.9,178.3z"/>
	<path d="M70.1,174l-1.1-0.4l0.4-0.3l3.6,0.8l-0.5,0.2l-0.8-0.1l-1.5,5.1c0.1,0.1,0.4,0.1,0.5,0.2c1.1,0.2,1.6-0.2,3-1.9l0.2,0.4
		c-0.4,0.7-0.9,1.7-1.2,2.4c-0.4-0.2-0.9-0.3-1.3-0.4c-0.5-0.1-1-0.2-1.4-0.3l-2.4-0.5l0.4-0.3l0.7,0L70.1,174z"/>
	<path d="M76.8,175l2.9,0.8l-0.4,0.3l-0.4,0c-0.5,1.1-1,2.2-1.3,3.4c-0.2,0.7-0.3,1.5,0.6,1.7c0.6,0.2,1.2,0.1,1.9,0.1l0.8-2.1
		c0.2-0.7,0.5-1.5,0.8-2.2l-0.8-0.3l0.6-0.2L84,177l-0.5,0.2h-0.5c-0.6,1.3-1.1,2.6-1.5,4c-0.3,1.1-0.2,1.1,1.2,1.5l0.1,0
		c-0.1,0.1-0.2,0.2-0.4,0.2c-0.4,0-2.4-0.4-2.5-0.4c-0.1,0-0.2-0.2-0.2-0.2c0-0.2,0.1-0.6,0.2-0.8c-0.8,0.1-2.7,0.2-3.4,0
		c-1-0.3-0.8-1.2-0.7-1.6c0.1-0.3,0.9-2.4,1.2-3.1l0.5-1.2l-1.2-0.5L76.8,175z"/>
	<path d="M84,183.2l0.7,0.2c0.6-1,2-3.6,2.5-4.7l-1-0.6l0.5-0.2l1.4,0.6c0.8,0.3,1.6,0.7,2.4,1c0.8,0.4,1.3,0.9,0.9,1.7
		c-0.5,1.1-1.7,1-2.7,0.8l0,0c1.7,0.7,2.1,1.4,1.7,2.3c-0.2,0.4-0.5,0.8-1.2,1.1c-0.5,0.2-1,0.1-1.9-0.4c-0.8-0.4-1.4-0.6-2-0.9
		l-1.8-0.8L84,183.2z M85.9,184.1c0.1,0.1,0.4,0.2,0.8,0.4c0.9,0.4,1.7,0.1,2-0.8c0.4-0.9-0.4-1.5-1-1.8c-0.3-0.1-0.5-0.2-0.6-0.2
		L85.9,184.1z M87.3,181.4l0.1,0c0.8,0.4,1.9,0.4,2.3-0.5c0.3-0.7,0.1-1.2-0.6-1.5c-0.2-0.1-0.4-0.2-0.6-0.2L87.3,181.4z"/>
	<path d="M112,184.4l0.4-1.5l0.1,0c0.5,0.8,1.4,1.2,2.2,0.8c0.5-0.2,0.9-0.6,0.7-1.2c-0.2-0.5-0.8-0.6-1.3-0.6l-0.8,0
		c-0.8,0-1.5-0.3-1.8-1c-0.6-1.4,0.6-2.6,1.5-3c0.8-0.3,1.5-0.2,1.9,0.4l-0.6,1.2l-0.1,0c-0.3-0.6-0.8-1.2-1.6-0.9
		c-0.4,0.2-0.7,0.6-0.5,1.1c0.2,0.6,0.7,0.7,1.3,0.6l1.5-0.1c0.6,0,1.1,0.2,1.3,0.8c0.5,1.2-0.6,2.9-2.1,3.5
		C113.5,184.9,112.7,184.9,112,184.4L112,184.4z"/>
	<path d="M119.2,176.3l0.4,1.9l1.3-0.4c-0.1,0.2-0.2,0.5-0.4,0.6l-0.8,0.2c0.1,0.5,0.3,1.3,0.4,1.6c0.1,0.4,0.6,1,1,0.9
		c0.2-0.1,0.6-0.4,0.8-0.6l0.1,0.3l-0.3,0.3c-0.9,0.9-1.4,1.3-1.5,1.4c-0.1,0-0.4,0-0.4-0.1c-0.1-0.1-0.7-0.5-0.9-1.3
		c-0.2-0.6-0.3-1.5-0.5-2.1l-1.3,0.4l0.4-0.6l0.8-0.2l-0.2-1.4L119.2,176.3z"/>
	<path d="M124.5,176.6c0.3-0.3,0.5-0.4,0.6-0.5c0.5-0.1,1.4-0.1,1.8-0.1l0,0.1l-0.3,0.4c0,0.4,0.2,1.5,0.3,1.9
		c0.1,0.4,0.3,1.1,0.6,1c0.2,0,0.4-0.3,0.9-0.7l0.1,0.3l-0.7,0.7c-0.7,0.7-0.9,0.9-1.1,1c-0.1,0-0.4,0-0.5-0.1
		c-0.1-0.3-0.2-0.5-0.3-0.8l-0.8,0.9c-0.2,0.3-0.7,0.6-0.8,0.7c0,0-0.2,0-0.3,0c-0.1-0.1-0.5-0.5-0.5-0.5c0-0.1-0.2-0.5-0.3-0.8
		c-0.2-0.7-0.3-1.9,0-2.2L124.5,176.6z M125.3,177c-0.3,0-0.5,0-0.9,0.1c-0.3,0.1-0.5,0.5-0.2,1.7c0.3,1.1,0.5,1.3,0.8,1.2
		c0.2-0.1,0.5-0.4,0.7-0.5L125.3,177z"/>
	<path d="M132.1,178.7l-0.9,1.1l-1-0.9l1-1.1L132.1,178.7z"/>
	<path d="M145.1,175.9c-0.7,0.6-1.9,1.3-2.9,1.5c-1.5,0.3-2.8-0.3-3.3-2.3c-0.5-2.1,0.5-3.8,2.8-4.4c0.9-0.2,1.5-0.2,1.9,0
		c0.4,0.2,0.7,0.6,0.7,0.7c0,0,0,0.1-0.3,0.6l-0.4,0.7l-0.2-0.1c-0.2-0.9-0.7-1.7-1.8-1.5c-0.9,0.2-1.6,1.4-1.2,3.2
		c0.3,1.2,1.1,2.5,2.7,2.2c0.8-0.2,1.4-0.5,2-1L145.1,175.9z"/>
	<path d="M149,169c2-0.5,3.3,0,3.8,1.9c0.7,2.4-0.3,4-2.6,4.6c-2.5,0.7-3.5-0.6-4-2.2C146,172.2,145.8,169.9,149,169z M150.4,175.1
		c1.3-0.4,1.5-1.7,1-3.5c-0.4-1.6-1.3-2.5-2.4-2.2c-1.2,0.3-1.6,1.6-1.1,3.5C148.3,174.4,149.2,175.4,150.4,175.1z"/>
	<path d="M154.7,167.9l-1.2,0.3l0.2-0.5l3.4-1.3l-0.3,0.5l-0.7,0.4l1.6,5.1c0.2,0,0.4-0.1,0.5-0.2c1-0.4,1.2-1,1.5-3.2l0.4,0.2
		c0.1,0.8,0.2,1.9,0.3,2.7c-0.4,0.1-0.9,0.2-1.4,0.4c-0.5,0.2-0.9,0.3-1.4,0.5l-2.3,0.9l0.2-0.5l0.6-0.4L154.7,167.9z"/>
	<path d="M162.8,163.5c1.8-1,3.2-0.9,4.2,0.8c1.3,2.2,0.7,3.9-1.3,5.1c-2.2,1.3-3.6,0.3-4.4-1.1C160.8,167.3,160,165.2,162.8,163.5z
		 M165.7,169c1.2-0.7,1-2,0-3.6c-0.8-1.4-1.9-2.1-2.9-1.5c-1.1,0.6-1.1,1.9-0.1,3.7C163.5,168.8,164.6,169.6,165.7,169z"/>
	<path d="M170.8,166.1l0-0.4l0.5-0.8l-2.4-2.7c-0.2-0.2-0.8-0.8-0.9-1c-0.3-0.2-0.6-0.1-1,0.4l-0.4,0.3l0-0.4c0.5-0.6,1.3-1.8,1.4-2
		c0.1-0.1,0.2-0.1,0.3,0c1.4,0.7,2.9,1.2,4.3,1.7c-0.5-1.6-1-3.3-1.7-4.9l1.7-2l0,0.6l-0.4,0.7c0.8,1.1,1.8,2.1,2.9,3
		c0.8,0.7,0.9,0.7,1.4,0.1l0.5-0.5l0.1,0.3c-0.4,0.7-1.4,2.1-1.5,2.2c-0.1,0.1-0.3,0.1-0.3,0.1c-1.3-1.1-2.5-2.2-3.5-3.5l0,0
		c0.6,1.6,1.2,3.4,2,4.9l-0.4,0.9c-1.6-0.7-3.3-1.3-4.9-2l0,0c0.8,0.8,2.3,2.3,2.5,2.5c0.3,0.3,0.6,0.5,0.8,0.6l0.8-0.7l0.1,0.4
		L170.8,166.1z"/>
	<path d="M173.8,150.3c1.4,0.2,2.8,0.4,4.7,0.6c1.3,0.1,1.5,0,1.7-0.6c0.1-0.1,0.1-0.3,0.2-0.5l0.2,0.3l-0.3,1.5
		c-0.1,0.5-0.1,0.7-0.2,0.7c0,0.1-0.2,0.3-0.4,0.2l-2.1-0.2l-0.8,2.2l1.3,1.2l0.6-1.2l0.2,0.5l-1.1,2.8l-0.2-0.5l0.1-0.7
		c-1.2-1.7-2.5-3.4-4-5L173.8,150.3z M176.5,154.1l0.7-1.9l-2.6-0.3L176.5,154.1z"/>
</g>
</svg>
