<?xml version="1.0" encoding="utf-8"?>
<!-- Generator: Adobe Illustrator 21.1.0, SVG Export Plug-In . SVG Version: 6.00 Build 0)  -->
<svg version="1.1" id="Layer_1" xmlns="http://www.w3.org/2000/svg" xmlns:xlink="http://www.w3.org/1999/xlink" x="0px" y="0px"
	 viewBox="0 0 200 200" style="enable-background:new 0 0 200 200;" xml:space="preserve">
<style type="text/css">
	.st0{fill:#FFFFFF;}
	.st1{fill:#E42E2A;}
	.st2{fill:#B1B4B6;}
</style>
<g>
	<path id="path14" class="st0" d="M111.9,3.9c-2.3-0.1-4.7-0.2-7.1-0.2C60,2.8,25,10.9,18.8,15.5c-6.4,4.7-12.3,18.7-3.9,58.3
		c8.7,41.5,31,73.4,43.4,88.7c19.4,23.8,36.3,34.7,42.3,35C146,133,9.3,49.6,111.9,3.9L111.9,3.9z"/>
	<path id="path16" class="st1" d="M183,16.3c-5.5-4.3-34.1-11.8-72.4-13.3c-97.4,51.9,44.3,121.7-9.1,194.4
		c7.9-3.1,22.6-13.8,39.1-33.5c12.7-15.2,35.5-47,45.1-88.6C194.9,35.4,189.3,21.2,183,16.3L183,16.3z"/>
	<path id="path18" class="st1" d="M84.2,137.6l1.8-1.5l12.5-10l-20.9,1.2l-1.2,0.1l-0.8-1l-12.4-16l-0.9,15.7l-0.1,2.1l-2.1,0.1
		l-18.4,1l18.5,8l1.5,0.7l-0.1,1.6l-1,16.7l14.1-11.3l1.1-0.9l1.3,0.6l19.1,8.3l-10.6-13.7L84.2,137.6L84.2,137.6z"/>
	<path id="path20" class="st2" d="M77.2,144.9l-1.3-0.6l-1.1,0.9l-14.1,11.3l1-16.7l0.1-1.6l-1.5-0.7l-18.5-8l18.4-1l2.1-0.1
		l0.1-2.1l0.9-15.7l12.4,16l0.8,1l1.2-0.1l20.9-1.2l-12.5,10l-1.8,1.5l1.4,1.8l10.6,13.7L77.2,144.9L77.2,144.9z M49.5,98.9
		l-0.9-0.4l-0.7,0.6l-6.8,5.4l0.5-8l0.1-1.1l-1-0.4l-8.4-3.6l8.2-0.5l1.4-0.1l0.1-1.4l0.4-7.3l5.9,7.6l0.5,0.6l0.8,0l9.9-0.6
		l-5.7,4.6l-1.2,0.9l0.9,1.2l4.8,6.2L49.5,98.9L49.5,98.9z M105.8,123.4l-28.4,1.6l-14.3-18.6l0,0l-8.5-10.9l9.5-7.6l-14.7,0.8
		l-8.4-10.9l-0.6,11.4l-14.7,0.8L40,96.4l-0.7,11.4l9.5-7.6l12.3,5.3L60,126.1l-28.1,1.6l27.3,12l-1.3,22.1l18.3-14.7l27.6,12
		l-16.3-21L105.8,123.4L105.8,123.4z"/>
	<path id="path22" class="st1" d="M52.6,95.3l1.2-1l5.7-4.6l-9.9,0.6l-0.8,0l-0.5-0.6l-5.9-7.6L42,89.5l-0.1,1.4l-1.4,0.1l-8.2,0.5
		l8.4,3.6l1,0.4l-0.1,1.1l-0.5,8l6.8-5.4l0.7-0.6l0.9,0.4l8.8,3.8l-4.8-6.1L52.6,95.3L52.6,95.3z"/>
	<path id="path24" class="st1" d="M38.6,35.1l-12.8,0l0,4.7l10.1,0L38.6,35.1z"/>
	<path id="path26" class="st2" d="M25.8,43.5l11.3,0l-2.6,4.7l-8.7,0L25.8,43.5L25.8,43.5z M24,55l-6,0l0-19.9h6L24,55z M25.8,35.1
		l12.8,0l-2.7,4.7l-10.1,0L25.8,35.1z M36.4,40.7l3.8-6.5l-23.1,0l0,21.7l7.8,0l0-6.8l10.1,0l3.6-6.4l-13.7,0l0-1.9L36.4,40.7
		L36.4,40.7z"/>
	<path id="path28" class="st1" d="M18,55l6,0l0-19.9l-6,0L18,55z"/>
	<path id="path30" class="st1" d="M37.1,43.5l-11.3,0v4.7l8.7,0L37.1,43.5z"/>
	<path id="path32" class="st1" d="M56.6,50.6l0,4.7c5.2-0.2,8.6-2,11.5-4.6l-4.5-3.1C61.4,49.3,59.2,50.4,56.6,50.6L56.6,50.6z"/>
	<path id="path34" class="st2" d="M56.6,55.3l0-4.7c2.6-0.2,4.8-1.3,7-3l4.5,3.1C65.2,53.3,61.8,55.1,56.6,55.3z M54.9,55.3
		c-8-0.3-13.2-4.8-13.2-10.3l0-0.1c0.1-5.5,5.7-9.8,13.2-10.1l0,4.7c-3.4,0.3-6.3,2.5-6.3,5.4c0,3.2,2.9,5.3,6.3,5.6L54.9,55.3z
		 M56.6,34.8c5.1,0.2,8.4,1.8,11.4,4l-4.6,3.6c-2.2-1.7-4.3-2.8-6.8-2.9L56.6,34.8L56.6,34.8z M68.6,50l-4.5-3.1l-0.6-0.4L63,46.9
		c-2.2,1.8-4.2,2.7-6.5,2.8c0,0-0.5,0-0.8,0c-0.3,0-0.8-0.1-0.8-0.1c-2.6-0.3-5.5-1.8-5.5-4.7c0-2.6,2.8-4.3,5.5-4.5
		c0,0,0.5,0,0.8,0c0.3,0,0.8,0,0.8,0c2.2,0.2,4.1,1,6.3,2.8l0.6,0.4l0.6-0.4l4.6-3.6l0.9-0.7l-0.9-0.7c-2.7-2-6.2-4-11.9-4.2
		c0,0-0.6,0-0.9,0c-0.3,0-0.9,0-0.9,0c-7.7,0.3-13.4,4.5-14,10.1c0,0,0,0.3,0,0.9c0,0.6,0,0.9,0,0.9c0.5,5.8,6.3,10,14.1,10.3
		c0,0,0.5,0,0.9,0c0.4,0,0.9,0,0.9,0c4.8-0.2,8.5-1.7,12.1-4.8l0.9-0.8L68.6,50L68.6,50z"/>
	<path id="path36" class="st1" d="M68,38.9c-3-2.2-6.2-3.9-11.4-4l0,4.7c2.6,0.2,4.6,1.2,6.8,2.9L68,38.9L68,38.9z"/>
	<path id="path38" class="st1" d="M48.6,45c0-2.9,2.9-5.1,6.3-5.4l0-4.7c-7.5,0.3-13.2,4.6-13.2,10.1l0,0.1c0,5.4,5.2,10,13.2,10.3
		l0-4.7C51.5,50.3,48.6,48.2,48.6,45L48.6,45z"/>
	<path id="path40" class="st0" d="M102.8,44c-4.1-1.6-11.1-1.4-10.2-3.5c0.2-0.5,0.7-0.7,1-0.8c1.8-0.6,6.1-0.6,9.6,1.9l3.8-3.5
		c-2.9-1.9-6.1-3.3-11.1-3.3c-2.9,0-10.2,1-10.2,6.3c0,0-0.1,2.9,3.7,4.6c3.7,1.8,11,1.6,10.7,3.5c-0.2,1.4-5.6,2.9-11.4-1.1
		l-4.1,3.4c0,0,4.5,3.7,12,3.6c5.7,0,10.3-2.2,10.3-6.4C106.8,46.9,105.5,45.1,102.8,44L102.8,44z"/>
	<path id="path42" class="st2" d="M95.8,33.9c-4.1,0-11.1,1.5-11.1,7.2c0,0.1,0,3.5,4.2,5.4c1.7,0.8,4,1.2,6.1,1.6
		c1,0.2,2.4,0.4,3.3,0.7c0.3,0.1,0.6,0.2,0.6,0.3c0,0.1-0.2,0.2-0.5,0.4c-0.5,0.2-1.2,0.3-2.2,0.3c-1.3,0-4-0.3-7-2.4L88.5,47
		L88,47.5l-4.1,3.4l-0.8,0.7l0.8,0.7c0.2,0.2,4.9,3.8,12.5,3.8c6.8,0,11.2-2.9,11.2-7.3c0-2.5-1.7-4.6-4.6-5.7
		c-1.6-0.6-3.7-1-5.5-1.3c-1.2-0.2-2.8-0.5-3.5-0.8c-0.3-0.1-0.5-0.2-0.4-0.4c0.1-0.1,0.3-0.3,0.9-0.4c0.5-0.1,0.7-0.1,1.5-0.1
		c1.4,0,4.1,0.3,6.6,2.1l0.6,0.4l0.5-0.5l3.8-3.5l0.8-0.8l-0.9-0.6C103.9,35,100.3,33.9,95.8,33.9L95.8,33.9z M95.8,34.8
		c5,0,8.3,1.4,11.1,3.3l-3.8,3.5c-2.3-1.7-5-2.3-7.1-2.3c-1,0-1.9,0.1-2.5,0.3c-0.3,0.1-0.8,0.3-1,0.8c-0.9,2.1,6.1,1.9,10.2,3.5
		c2.8,1.1,4,2.9,4,4.8c0,4.2-4.6,6.4-10.3,6.4c-7.4,0-12-3.6-12-3.6l4-3.4c2.8,1.9,5.4,2.6,7.5,2.6c2.2,0,3.7-0.8,3.9-1.5
		c0.3-1.9-7-1.7-10.7-3.5c-3.7-1.8-3.7-4.6-3.7-4.6C85.6,35.8,92.9,34.8,95.8,34.8L95.8,34.8z"/>
	<path id="path44" class="st0" d="M112.8,35.1l0,19.9l6.1,0l0-19.9l-2.1,0L112.8,35.1L112.8,35.1z"/>
	<path id="path46" class="st2" d="M119.8,34.2l-7.8,0l0,21.7l7.8,0L119.8,34.2L119.8,34.2z M118.9,35.1l0,19.9l-6.1,0l0-19.9
		L118.9,35.1z"/>
	<path id="path48" class="st0" d="M131.2,45c0-2.9,2.9-5.3,6.6-5.5l0-4.7c-7.6,0.3-13.4,4.6-13.5,10.1l0,0.1
		c0,5.5,5.4,10.1,13.5,10.3l0-4.7C134.1,50.3,131.2,47.9,131.2,45L131.2,45z"/>
	<path id="path50" class="st0" d="M152.8,44.9c-0.1-5.5-5.9-9.8-13.5-10.1l0,4.7c3.7,0.3,6.5,2.7,6.5,5.5c0,2.9-2.8,5.2-6.5,5.5
		l0,4.7C147.4,55.1,152.8,50.4,152.8,44.9L152.8,44.9L152.8,44.9z"/>
	<path id="path52" class="st2" d="M152.8,45c0,5.5-5.4,10.1-13.5,10.3l0-4.7c3.7-0.3,6.5-2.7,6.5-5.5c0-2.9-2.8-5.2-6.5-5.5l0-4.7
		C146.9,35.1,152.7,39.4,152.8,45L152.8,45L152.8,45z M138.5,49.7c-0.4,0-0.7,0-0.7,0c-3.2-0.2-5.7-2.3-5.7-4.6
		c0-2.4,2.5-4.4,5.7-4.7c0,0,0.4,0,0.7,0c0.3,0,0.7,0,0.7,0c3.2,0.3,5.7,2.3,5.7,4.6c0,2.4-2.4,4.4-5.7,4.6
		C139.3,49.7,138.9,49.7,138.5,49.7z M137.8,55.3c-8.1-0.2-13.5-4.8-13.5-10.3l0-0.1c0.1-5.5,5.9-9.8,13.5-10.1l0,4.7
		c-3.7,0.3-6.6,2.7-6.6,5.5c0,2.9,2.9,5.2,6.6,5.5L137.8,55.3L137.8,55.3z M153.6,44c-0.6-5.5-6.6-9.8-14.3-10.1c0,0-0.5,0-0.8,0
		c-0.3,0-0.8,0-0.8,0c-7.7,0.3-13.7,4.6-14.3,10.1c0,0,0,0.3,0,1c0,0.6,0,0.9,0,0.9c0.5,5.8,6.4,10.1,14.3,10.3c0,0,0.4,0,0.8,0
		c0.4,0,0.8,0,0.8,0c7.9-0.2,13.8-4.5,14.3-10.3c0,0,0.1-0.3,0.1-0.9C153.7,44.5,153.6,44,153.6,44L153.6,44z"/>
	<path id="path54" class="st0" d="M158.3,54.9l6,0l0-9.1l-6-5.4L158.3,54.9z"/>
	<path id="path56" class="st0" d="M175.2,45.9l-12.1-10.8l-4.8,0l0,3.4l18.5,16.5l0,0l0,0l4.4,0l0-19.9l-6,0L175.2,45.9L175.2,45.9z
		"/>
	<path id="path58" class="st2" d="M181.2,54.9l-4.4,0l0,0l0,0l-18.5-16.5l0-3.4l4.8,0l12.1,10.8l0-10.8l6,0L181.2,54.9L181.2,54.9z
		 M164.3,54.9h-6l0-14.4l6,5.4L164.3,54.9L164.3,54.9z M174.3,34.2l0,9.7l-10.9-9.7l-6.1,0l0,21.7l7.8,0l0-10l11.3,10l5.7,0l0-21.7
		L174.3,34.2L174.3,34.2z"/>
	<path id="path60" class="st2" d="M183.6,75.3c-9.1,40.6-30.6,71.4-42.7,86.3c-15.6,19.2-29.5,29.6-37,32.6
		c50.6-70.8-83.5-138.6,8.7-189.1c36.2,1.4,63.3,8.8,68.5,12.9C186.9,22.8,192.2,36.6,183.6,75.3L183.6,75.3z M59.3,161.6
		C47.2,146.8,25.6,116,16.5,75.4C7.8,36.7,13.1,22.9,19,18.1c5.8-4.6,38.7-13.2,81-13.3c2.3,0,4.5,0,6.7,0.1
		c-96,46.8,34.8,126.1-6.8,190.2C94.3,195,78,184.6,59.3,161.6L59.3,161.6z M184,14.2C176.7,8.4,142.6,0,100,0
		C57.4,0,23.3,8.5,16,14.3C5.8,22.5,4.3,43.4,11.8,76.5c9.3,41.5,31.4,73.1,43.8,88.2c17,20.8,35.3,35.3,44.6,35.3l0,0
		c9.3,0,27.6-14.5,44.5-35.4c12.3-15.1,34.4-46.7,43.7-88.3C195.7,43.3,194.2,22.4,184,14.2L184,14.2z"/>
</g>
</svg>
