<?xml version="1.0" encoding="utf-8"?>
<!-- Generator: Adobe Illustrator 21.1.0, SVG Export Plug-In . SVG Version: 6.00 Build 0)  -->
<svg version="1.1" id="Layer_1" xmlns="http://www.w3.org/2000/svg" xmlns:xlink="http://www.w3.org/1999/xlink" x="0px" y="0px"
	 viewBox="0 0 200 200" style="enable-background:new 0 0 200 200;" xml:space="preserve">
<style type="text/css">
	.st0{fill:#FFFFFF;}
	.st1{fill:#0F2D5B;}
	.st2{fill:#E41349;}
	.st3{fill:#FDD205;}
	.st4{fill:#D3D3D3;}
	.st5{fill:#091D3C;}
</style>
<g>
	<path id="path4004" class="st0" d="M28.9,19.3v108.2c0,8.5,1.1,11.8,3.7,16.4l0.1,0.3l0.2,0.2c15.2,22.8,40.6,36.3,67.7,36.3
		c27.2,0,52.5-13.6,67.7-36.3l0.2-0.2l0.1-0.3c2.6-4.6,3.7-7.9,3.7-16.4V19.3H28.9z"/>
	<path id="path4008" class="st1" d="M30.5,21v65.1V117v10.4c0,8.5,1.2,11.4,3.5,15.6l0.1,0.2l0.1,0.2C49.2,165.7,74,179,100.6,179
		c26.6,0,51.4-13.3,66.3-35.6l0.2-0.2l0.1-0.2c2.4-4.1,3.5-7,3.5-15.6v-10.5V85.1V21H30.5z M32.7,23.1h135.9v61.6v30.9v11.8
		c0,8.1-1,10.6-3.2,14.5l-0.1,0.2l-0.1,0.1c-14.5,21.7-38.7,34.6-64.6,34.6c-25.9,0-50-13-64.5-34.6l-0.1-0.1l-0.1-0.2
		c-2.2-3.9-3.2-6.4-3.2-14.5v-11.7V85.9V23.1z M33.6,24v61.6v29.7v12.1c0,7.8,0.9,10.3,3.1,14l0.1,0.2l0.1,0.1
		C51.2,163.2,75,176,100.6,176c25.6,0,49.4-12.8,63.8-34.2l0.1-0.1l0.1-0.2c2.2-3.7,3.1-6.2,3.1-14V115V84.4V24H33.6z M37.5,27.9
		h126.3v54.2v26.8v18.5c0,7.4-0.9,9.1-2.6,12.1c-13.1,19.6-35.4,32.5-60.6,32.5c-25.2,0-47.4-12.9-60.6-32.5
		c-1.7-3-2.6-4.7-2.6-12.1v-16.9V83.1V27.9z"/>
	<path id="path4024" class="st2" d="M92.6,32v13c-1.4-1.4-3.2-2.2-5.2-2.2c-4.3,0-7.8,3.8-7.8,8.6s3.5,8.5,7.8,8.5
		c2,0,3.9-0.8,5.3-2.2v2.1h5.2V32H92.6z M145.6,32.2v27.6h5.2V32.2H145.6z M154.4,32.2v27.6h5.2V32.2H154.4z M41.2,33.5v26.2h5.6V38
		h3.3c2.1,0,3.6,1.5,3.6,3.4c0,1.9-1.6,3.4-3.7,3.4h-1.3v6.3l5.6,8.6h6.5l-7.7-10.9c3.4-0.8,6.1-3.9,6.1-7.5c0-4.3-3.6-7.7-7.9-7.7
		c-0.1,0-0.7,0-0.9,0H41.2z M105,33.7v26h11.6c4.4-0.1,8-3.4,8-7.5c0-3-1-5.1-4.6-6.7c1.4-1.3,2.3-3.1,2.3-5.1
		c0-1.8-0.7-3.4-1.9-4.7c-1.2-1.4-3.4-2-6.4-2H105z M110.6,38.2h3.5c1.5,0,2.7,1.3,2.7,2.8c0,1.5-1.2,2.8-2.7,2.8h-1.8v4.7h3.3
		c1.9,0,3.3,1.5,3.3,3.4c-0.1,1.9-1.2,3.2-3.3,3.4h-5V38.2z M68.7,42.8c-4.8,0-8.6,3.9-8.6,8.7c0,4.8,3.8,8.8,8.6,8.8
		c3.6,0,6.5-1.6,8-4.2l-4.3-2c-0.5,1.2-1.8,2-3.3,2c-2,0-3.5-1.5-3.5-3.3c0-0.1-0.1-0.1-0.1-0.2h11.6c0-0.4,0.1-0.7,0.1-1.1
		C77.2,45.9,73.4,42.8,68.7,42.8z M126.4,43.7v10.4c0,3.5,3.7,6.4,8.2,6.4c4.5,0,8.1-2.8,8.1-6.4V43.7h-5.1v9.4c0,1.6-1.3,2.8-3,2.8
		c-1.7,0-3-1.3-3-2.8v-9.4H126.4z M68.7,46.4c1.8,0,3.2,1.4,3.2,3.2h-6.4C65.5,47.9,67,46.4,68.7,46.4z M88.9,47.3
		c2.1,0,3.8,1.9,3.8,4.2c0,2.3-1.7,4.2-3.8,4.2c-2.1,0-3.9-1.9-3.9-4.2C85,49.2,86.8,47.3,88.9,47.3z"/>
	<path id="path4048" class="st3" d="M137.9,95.8c0,20.7-16.8,37.5-37.5,37.5c-20.7,0-37.5-16.8-37.5-37.5s16.8-37.5,37.5-37.5
		C121.1,58.3,137.9,75.1,137.9,95.8"/>
	<path id="path4052" class="st0" d="M133,108c-0.4-0.7-1.7-2.3-1.5-3.3c1,0.1,2.4,0.1,3,0.2C134.3,105.1,133.2,107.6,133,108
		 M199.9,119.1c-0.1-0.3-0.2-0.6-0.3-0.8l-0.1-0.2c-0.1-0.2-0.1-0.4-0.2-0.6c0-0.1-0.1-0.2-0.1-0.3c0-0.1,0-0.1,0-0.2
		c0.1-1.1-0.2-1.6-0.6-2.3c-0.3-0.6-0.8-0.8-1.1-0.8c-0.1,0.2-0.3,0.4-0.5,0.4c0,0-0.1,0-0.1,0c-0.3,0-0.5-0.3-0.5-0.6
		c0-0.1,0-0.1,0-0.2c0-0.3-0.1-0.5-0.2-0.8c-0.4-0.7-2.9-2.8-3.9-2.8c-0.8,0-1.6,0.4-2.2,1.2c-0.1,0.1-0.3,0.2-0.4,0.2
		c0,0,0,0-0.1,0c-0.2,0-0.4-0.1-0.4-0.3c-0.1-0.2-0.2-0.3-0.2-0.5c-0.2-0.5-0.3-0.9-0.4-1.4l-0.1-0.4c-0.3-1.2-0.7-2.4-2.3-2.9
		c-0.1,0-0.3-0.1-0.5-0.1c-0.2,0-0.4,0-0.6,0l-0.1,0c-0.3,0-0.7,0-1-0.1c-0.7-0.1-1.1-0.3-1.1-1c0-0.1,0-0.1,0-0.2l0.2-0.5
		c0.1-0.4,0.3-0.9,0.5-1.6c0.3-1.3,0.3-2.4,0.1-3.4c0-0.2,0-0.4,0.1-0.5c0.1-0.1,0.3-0.2,0.4-0.2c0,0,0.1,0,0.1,0
		c0.7,0.1,1.2,0.1,1.3,0.1c3.4,0,8.8-2.2,8.8-8.2c0-3.4-2.8-6.7-5.1-8.8c-0.2-0.1-0.2-0.4-0.2-0.6c0-0.2,0.2-0.4,0.4-0.4
		c3.3-0.9,5.1-3.1,5.1-6.2v-0.2c0-0.5,0-1-0.1-1.6c-0.1-0.8-0.4-1.6-0.9-2.4c-0.1-0.1-0.1-0.2-0.3-0.2c-0.1,0-0.1,0-0.1,0
		c-0.1,0-0.3,0.1-0.4,0.2c-0.3,0.2-0.8,0.6-1.1,0.9c-0.4,0.3-0.9,0.6-1.6,0.8c-0.4,0.1-0.8,0.3-1.3,0.4c-0.2,0.1-0.5,0.1-0.7,0.2
		c-1.6,0.4-3.3,1.1-5.2,2.8c-0.9,0.8-1.5,2.1-1.5,3.3c-0.1,1,0.3,2.1,1.2,3.2c0.7,1,1.7,1.9,2.7,2.9l0.4,0.3c0.4,0.3,0.7,0.7,1.1,1
		c0.5,0.5,0.9,0.9,1.2,1.3c0.8,1,1.2,1.8,1.2,2.5c0,1.6-1.1,2.7-2.9,2.7c-1.9,0-3.4-0.8-5.4-2.1c-0.3-0.2-0.6-0.4-1-0.6
		c-0.7-0.5-1.4-0.9-2.2-1.4c-1.4-0.9-2.7-1.6-4.1-2.2c-0.7-0.3-1.5-0.6-2.3-0.8c-0.6-0.2-1.2-0.3-1.7-0.4l-0.3-0.1
		c-1.3-0.3-2.3-0.5-3.4-1.3c-0.3-0.2-0.6-0.4-1-0.7c-0.6-0.4-1.2-0.8-1.8-1.2c-1.2-0.7-2.1-1.2-3-1.5c-0.3-0.1-0.5-0.1-0.9-0.2
		c-0.2,0-0.3,0-0.5-0.1l-0.4,0c-0.6-0.1-1-0.2-1.5-0.5c-0.3-0.2-0.6-0.4-1-0.6c-0.2-0.2-0.5-0.4-0.7-0.5L155,78
		c-0.6-0.5-1.3-1-2.3-1.5c-1.5-0.8-3.1-1.2-4.4-1.6l-0.3-0.1c-0.5-0.1-1-0.2-1.3-0.4c-0.2-0.1-0.4-0.1-0.5-0.2
		c-0.1,0-0.2-0.1-0.2-0.1c0,0-0.1-0.1-0.1-0.1c-3.3-4.1-7.2-4.5-8.4-4.5c-0.3,0-0.5,0-0.7,0c-1.3,0.1-2.9,1.3-4.3,2.4
		c-0.5,0.4-1,0.8-1.5,1.3c-1,0.9-2.1,1.8-3.2,2.5c-5.4,3.9-7.4,5.4-10,8.2c-3.5,3.8-4.6,8.6-5.5,12.9l-0.1,0.3
		c-0.5,2.1-1,4.2-1.7,6.2c-0.8,2.3-1.9,4-3.2,5.5c-0.7,0.7-1.2,1.2-1.7,1.6c-0.3,0.3-0.6,0.4-0.8,0.6l-0.1,0.1
		c-0.6,0.4-0.8,0.9-0.6,1.5c0.2,0.7,1.1,1.4,2.6,1.4c0.2,0,0.3,0.1,0.4,0.2c0.1,0.1,0.1,0.3,0.1,0.5c-0.1,0.3,0,0.5,0.1,0.7
		c0.4,0.5,1.4,0.8,1.9,0.8l0.2,0c2.6,0,4.8-1,6.6-2.8c0.1-0.1,0.3-0.2,0.4-0.2c0.1,0,0.3,0,0.4,0.1c0.7,0.7,1.7,1,2.8,1l0.1,0
		c0.6,0,1.1-0.1,1.6-0.1c0.3,0,0.5-0.1,0.7-0.1c0.1,0,0.3,0,0.4,0c0.1,0,0.2,0,0.2,0c0.3,0,0.7,0.1,1.2,0.3c0.4,0.1,0.8,0.3,1.2,0.4
		l0.4,0.1c0.8,0.3,2,0.8,2.9,0.8c0.1,0,0.1,0,0.1,0c2-0.1,2.8-1.7,3.1-2.5c0.1-0.2,0.3-0.4,0.5-0.4h0c0.3,0,0.5,0.2,0.5,0.4
		c0.1,0.2,0.1,0.4,0.2,0.6c0.3,1.1,0.7,1.8,1.4,2.4c0.2,0.2,0.4,0.3,0.8,0.3c0.3,0,0.7,0.1,1.4,0.1c0.1,0,0.2,0,0.3,0.1
		c0.1,0.1,0.2,0.1,0.3,0.3c0.1,0.1,0.3,0.3,0.4,0.4c0.1,0.1,0.3,0.2,0.5,0.3c2.9,1,6.6,2,8.5,2.1h0.1c2.6,0,3.4-2.5,3.7-3.5
		c0.1-0.2,0.2-0.4,0.4-0.4c2.4-0.5,3.7-4.1,3.7-4.7c0-1.2-0.5-1.6-1.6-1.7l-4.2,0c-0.1,0-0.2,0-0.3,0c-0.1,0-0.1,0-0.2,0
		c-0.2,0-0.4-0.1-0.5-0.3c-0.1-0.2-0.3-0.4-0.6-0.4c-0.2,0-0.4-0.2-0.4-0.4c0-0.2,0-0.4,0.2-0.6c0.1-0.1,0.2-0.1,0.2-0.2
		c0.1-0.1,0.2-0.2,0.4-0.2h0c0.6,0,1.7,0.1,2.7,0.1c0.5,0,0.9,0,1.3,0c0.8,0,1.5-0.1,2.3-0.2c1.2-0.1,2.4-0.3,4.1-0.3l3.9,0.2
		c0.8,0,1.6-0.1,2.3-0.3c0.1,0,0.1,0,0.2,0c0.1,0,0.2,0,0.3,0.1c0.1,0.1,0.2,0.2,0.3,0.4c0.3,2,0.9,3.7,1.9,5c0.3,0.3,0.6,0.6,1,0.9
		c0.2,0.2,0.5,0.3,0.7,0.4c0.1,0.1,0.3,0.2,0.4,0.3c1,0.6,2.3,1.4,3.9,1.4c0.4,0,0.9-0.1,1.3-0.2c0.5-0.1,1-0.2,1.5-0.2
		c0.3,0,0.5,0,0.7,0c0.6,0.1,1.2,0.2,1.7,0.3l0.1,0c0.7,0.2,1.4,0.5,2.1,0.9c0.6,0.3,1.1,0.7,1.5,1.1l0.1,0.1
		c0.9,0.7,1.9,1.4,3.2,1.4c0.1,0,0.1,0,0.2,0c0.1,0,0.2,0,0.2,0c0.1,0,0.2,0,0.3-0.1c0.2-0.1,0.4-0.2,0.6-0.2
		c0.2-0.1,0.4-0.2,0.7-0.2c0,0,0.1,0,0.1,0c0.2,0,0.4,0.1,0.5,0.2c0.1,0.1,0.1,0.2,0.2,0.3c0.1,0.2,0.3,0.4,0.5,0.7
		c0.5,0.7,1.5,1.6,3.7,1.6c0.2,0,0.4,0,0.6,0c1.2,0,1.9-0.1,2.2-0.1c0,0,0.1,0,0.1,0c0.1,0,0.2,0,0.3,0.1c0.2,0.2,0.5,0.2,0.8,0.2
		c0.6,0,1.5-0.2,2.2-0.4c0.4-0.2,0.8-0.3,1-0.5c0.3-0.3,0.5-0.5,0.6-0.8C200,119.7,200,119.5,199.9,119.1 M69.8,105.7
		c-0.4,0.5-1,0.6-1.5,1.5c-1.1-0.4-1.2-1.8-1.4-2.4c0.8-0.2,2.8-0.5,3.9-0.7C70.4,104.7,70,105.1,69.8,105.7 M94.9,110.1
		c-1.1-0.6-1.7-1.5-2.1-2.3c-0.2-0.3-0.4-0.6-0.5-1l-0.2-0.4c-0.2-0.4-0.5-0.8-0.8-1.2c-0.1-0.1-0.3-0.3-0.4-0.5l-0.4-0.4
		c-0.1-0.1-0.3-0.3-0.4-0.4c-0.1-0.1-0.2-0.2-0.2-0.3c-1.9-4.8-2.3-7.5-3-12.3c-0.3-2.5-1.9-4.4-4.3-7.4c-0.3-0.4-0.6-0.8-1-1.3
		c-0.2-0.3-0.5-0.7-0.8-1c-0.8-1-1.5-1.8-2-2.3c-0.9-0.7-1.6-1.4-2.3-2c-1-0.8-1.8-1.6-2.6-2.2c-1.5-1.2-2.6-2.1-3.9-2.9
		c-1.8-1.2-3.7-1.8-5.8-1.8c-2.1,0-3.6,0.7-4.1,1c-1.7,1.2-3,1.9-4.5,2.5c-1.1,0.4-2.2,0.8-3.6,1.3c-0.4,0.1-0.9,0.3-1.4,0.5
		c-1.6,0.5-2.7,1.5-3.5,2.2c-0.2,0.2-0.4,0.4-0.6,0.5c-0.2,0.2-0.4,0.4-0.6,0.5c-0.4,0.3-0.6,0.5-0.8,0.6c-0.2,0.1-0.6,0.1-1.2,0.2
		c-0.3,0-0.6,0-0.9,0c-0.2,0-0.4,0-0.6,0c-1.8,0.1-3.3,1.1-4.2,1.9c-0.5,0.4-0.9,0.8-1.4,1.2l-0.2,0.2c-0.6,0.5-0.9,0.8-1.3,1.1
		c-1.3,0.8-2.5,1-3.9,1.1c-0.7,0.1-1.4,0.1-2.2,0.3c-0.9,0.2-1.8,0.5-2.6,0.9c-1,0.5-1.9,1-3.2,1.9c-0.5,0.4-1,0.7-1.6,1.1
		c-0.5,0.3-0.9,0.7-1.4,1c-2,1.4-3.7,2.3-5.6,2.3c-1.9,0-3.2-1.1-3.3-2.8c-0.2-1.5,0.6-3,2.1-4.2l0.8-0.7c0.6-0.5,1.2-1,1.7-1.4
		c0.9-0.8,1.5-1.4,2-2c1.1-1.5,1.4-3.1,0.9-5c-0.4-1.8-1.8-3-4.2-3.7c-0.8-0.3-1.7-0.4-2.5-0.5l-0.3,0c-0.2,0-0.5-0.1-0.7-0.1
		c-0.3,0-0.4-0.1-0.5-0.1c-1.3-0.6-4.1-2.4-4.6-2.8l-0.2-0.2l-0.2,0.2c-0.5,0.7-0.9,1.3-1.2,3.9c-0.3,2.8,2,6.2,6,6.9
		c0.2,0,0.4,0.2,0.5,0.4c0.1,0.2,0,0.4-0.2,0.6c-4.2,3.3-5.1,4.7-5.3,8.5c-0.1,2.3,0.7,4.6,2.2,6.2c1.7,1.8,4.1,2.7,7.1,2.7
		c0.8,0,1.6-0.1,2.5-0.2c0,0,0.1,0,0.1,0c0.1,0,0.3,0,0.3,0.1c0.1,0.1,0.2,0.2,0.2,0.4c0.2,2.6,0.7,4.7,1.3,5.6
		c0.1,0.2,0.1,0.5-0.1,0.7c-0.2,0.2-0.5,0.3-0.8,0.5c-0.9,0.4-2.3,0.6-3.6,0.6c-0.8,0-1.5,0.6-2,1.8c-0.2,0.4-0.3,0.8-0.4,1.3l0,0.1
		c-0.1,0.2-0.1,0.4-0.2,0.6c-0.1,0.2-0.1,0.3-0.2,0.4c-0.2,0.3-0.4,0.6-0.8,0.9c-0.1,0.1-0.2,0.1-0.4,0.1c0,0-0.1,0-0.1,0
		c-0.2,0-0.3-0.1-0.4-0.3c-0.4-0.7-1.1-1.2-1.9-1.4l0,0H8.4c-1.3,0-3.5,1.1-4.4,3.1c-0.1,0.2-0.3,0.3-0.5,0.4l-0.1,0
		c-1,0.1-1.7,0.6-2,1.5c-0.2,0.4-0.2,0.8-0.3,1.2l-0.1,0.3c-0.1,0.3-0.1,0.6-0.2,0.9c-0.1,0.2-0.2,0.5-0.3,0.7
		c-0.1,0.1-0.1,0.2-0.2,0.3c0,0.1-0.1,0.2-0.1,0.2c-0.2,0.4-0.3,0.9-0.2,1.6c0.1,0.3,0.3,0.6,0.8,0.9c0.3,0.2,0.7,0.3,1.3,0.5
		c0.9,0.2,1.8,0.3,2,0.3c0.1,0,0.2,0,0.4-0.1c0.1-0.1,0.2-0.1,0.3-0.2c0.1-0.1,0.2-0.1,0.4-0.1c0,0,0.1,0,0.1,0l0.4,0.1
		c0.3,0.1,0.8,0.2,1.2,0.2l0.1,0c0.4,0.1,0.8,0.2,1.1,0.2c0.2,0,0.3,0.1,0.4,0.1c0.1,0,0.2,0,0.3,0h0c1.8-0.1,2.5-0.8,3-1.4
		c0.1-0.2,0.3-0.4,0.4-0.6l0.2-0.3l0.2-0.3c0.1-0.2,0.3-0.5,0.4-0.7c0.1-0.1,0.3-0.2,0.5-0.2c0,0,0.1,0,0.1,0
		c0.2,0.1,0.4,0.1,0.6,0.1c0.4,0.1,0.8,0.1,1,0.1c0.1,0,0.2,0,0.3,0c1.7,0,2.9-0.9,4-1.8l0.3-0.3c0.2-0.1,0.3-0.3,0.5-0.4
		c0.2-0.2,0.5-0.4,0.8-0.6c0.5-0.3,0.9-0.5,1.3-0.5l0.1,0c0.4,0,1.9,0.1,4.5,0.5c0.1,0,0.2,0,0.3,0c0.6,0,1.3-0.2,2.2-0.6
		c0.6-0.3,1.4-0.7,2.1-1.1c0.2-0.1,0.3-0.2,0.6-0.3l0.1,0c0.2-0.1,0.4-0.2,0.7-0.3c0.4-0.2,1-0.6,1.5-1.2c0.3-0.4,0.7-1.1,1.1-1.9
		l0.4-0.9c0.2-0.5,0.5-1,0.7-1.5c0.1-0.2,0.3-0.3,0.5-0.3h0h0.1c0.8,0,1.8-0.1,2.6-0.2c0.4-0.1,0.7-0.1,1.1-0.2
		c0.8-0.1,1.4-0.2,1.9-0.2c0.1,0,0.4,0,0.9,0.1l1,0.1c1.3,0.1,2.3,0.1,3.2,0.1c0.5,0,1,0,1.4,0c0.7,0,1.3-0.2,1.8-0.3
		c0.1,0,0.3-0.1,0.5-0.2c0.1,0,0.2,0,0.2,0c0.1,0,0.3,0.1,0.4,0.2c0.3,0.3,0.6,0.6,0.9,0.8c0.2,0.1,0.2,0.4,0.2,0.6
		c-0.1,0.2-0.3,0.4-0.5,0.4c-0.1,0-0.2,0-0.3,0c-0.4,0-1,0.2-1.3,0.6c-0.1,0.1-0.3,0.2-0.4,0.2c-0.1,0-0.2,0-0.2,0
		c-0.1,0-0.2-0.1-0.2-0.1c-0.2,0-0.3-0.1-0.5-0.1h-0.1l-0.2,0l-0.3,0h-0.2c-0.5,0-1.7,0-2.8,0.2c-0.6,0.1-1.1,0.3-1.5,0.5
		c-0.3,0.2-0.7,0.5-0.7,1.1c0.1,1.1,1.6,3.9,2.6,5c0.2,0.2,0.9,0.4,1.6,0.4c0.1,0,0.2,0,0.2,0c0,0,0,0,0,0c0.2,0,0.4,0.1,0.5,0.3
		c1,2.1,2.9,3.4,4.5,3.4h0.1c1.6-0.1,5.8-1.6,8.8-3c0,0,0.1,0,0.1,0c0.1,0,0.2,0,0.3-0.1c0.2,0,0.4,0,0.6-0.1l0.3,0
		c0.7-0.1,1.4-0.2,1.9-0.5c0.5-0.2,1.2-1.2,1.9-2.4c0.1-0.2,0.3-0.3,0.5-0.3c0,0,0,0,0.1,0c0.2,0,0.4,0.2,0.5,0.4
		c0.1,0.2,0.2,0.5,0.3,0.7c0.5,1,1.4,1.4,2.7,1.4c0.1,0,0.1,0,0.2,0c0.9,0,1.8-0.3,2.7-0.6l0.5-0.2c0.7-0.2,1.4-0.5,2-0.6
		c0.2,0,0.5-0.1,0.8-0.1c0.1,0,0.3,0,0.4,0c0.3,0,0.5,0,0.8,0.1c0.2,0,0.4,0,0.6,0c0.3,0,0.5,0,0.8,0c0.8,0,1.4-0.1,1.9-0.4
		c0.8-0.3,1.4-0.8,1.8-1.1l0.1-0.1c0.1-0.1,0.2-0.1,0.3-0.1c0.1,0,0.3,0,0.4,0.1c1.1,1,3.5,2.7,7,2.7c0.1,0,0.2,0,0.4,0
		c0.8,0,1.5-0.3,1.9-0.8c0.2-0.3,0.3-0.7,0.2-1.1c0-0.2,0-0.3,0.1-0.4c0.1-0.1,0.2-0.2,0.4-0.3c0.6-0.1,1-0.3,1.4-0.6
		c0.3-0.3,0.5-0.7,0.5-1c0-0.2-0.1-0.4-0.3-0.6C96.2,110.8,96,110.7,94.9,110.1"/>
	<path id="path4056" class="st0" d="M81.5,73.4c0-10.4,8.4-18.8,18.8-18.8c10.4,0,18.8,8.4,18.8,18.8c0,10.4-8.4,18.8-18.8,18.8
		C90,92.1,81.5,83.7,81.5,73.4"/>
	<path id="path4060" class="st4" d="M86.2,83.5c5.5,4,13.2,4.6,19.2,1.3c6.6-3.4,10.5-10.4,9.9-17.9c-0.1-1.1-0.3-2.2-0.6-3.2
		c1.9,2.8,2.9,6.1,2.9,9.6c0,9.6-7.8,17.4-17.4,17.4C94.5,90.7,89.4,87.9,86.2,83.5"/>
	<path id="path4064" class="st5" d="M100.3,56c-1.9,0-3.8,0.3-5.5,0.9l3.3,2.7c0,0,4-0.4,7.7,0.1c0.7-1.2,0.9-2.1,1-2.4
		C104.8,56.4,102.6,56,100.3,56z M88.5,60.6c-2.3,2.2-4.1,5-4.9,8.2c0.4-0.6,1.2-1.8,2.2-3.1C86.9,63.3,88.1,61.3,88.5,60.6z
		 M94.8,64.8c0,0-4.8,2.1-6.5,3.1c0,0-0.3,3.6,0.1,7.8c0,0,2.7,1,6.8,2c0,0,3-4.8,4.1-6.9C99.3,70.8,97.1,67.4,94.8,64.8z M110.1,65
		c-1.8,2.6-3.3,5.7-3.3,5.7c1.5,3.2,3.6,6.6,3.6,6.6c3-0.7,5.1-1.9,5.1-1.9c0.4-5.5-0.2-7.4-0.2-7.4C113.6,66.6,110.1,65,110.1,65z
		 M83.4,77.2c0.9,3.8,3,7.1,5.8,9.5c0.2-0.1,0.5-0.4,0.7-0.6c0,0-2.7-3.9-3.8-6.1C86.1,80,84.3,78.2,83.4,77.2z M106.4,83.5
		l-7.5,0.2l-2.9,4.1c0,0,2,1.6,5.6,2.4c0,0,3.4-0.9,6.3-2.6L106.4,83.5z M137.4,122.1c-1,0.1-2,0.6-2.6,1.5
		c-1.3,1.7-1.1,4.2,0.6,5.6l14.1,11.1c1.7,1.3,4.2,1.1,5.6-0.6c1.3-1.7,1-4.2-0.7-5.6l-8.1-6.4l-2.3,2.9l2,1.7l0.7-0.9l6.9,5.4
		l-1.6,2.1l-15.8-12.5l1.6-2.1l3.2,2.5l1.6-2.1l-2.2-1.8C139.5,122.2,138.4,122,137.4,122.1z M63.6,122.2c-0.7,0-1.3,0.1-1.9,0.5
		l-6.8,5.1l-0.6,0.7c-1.3,2,0.8,3.6,1.8,5.2c-2.4,1.8-4.7,3.7-7,5.4l-1.6-2.1c1-0.8,2.1-1.6,3.1-2.5c-0.5-0.7-1-1.5-1.6-2.1
		c-0.8,0.6-1.6,1.2-2.4,1.8c-1.2,1-1.7,2.5-1.4,4c0.2,1.3,1.2,2.5,2.4,3c1.1,0.4,2.4,0.4,3.4-0.2l7.5-5.7l0.1-0.6
		c0.7-1.9-1.1-3.2-1.9-4.7l7-5.4l1.6,2.1c-1,0.9-2.2,1.6-3.2,2.5l1.6,2.1l2.8-2.2c1.1-1.1,1.5-3.1,0.7-4.6c-0.3-0.7-1-1.4-1.7-1.8
		C65,122.4,64.3,122.2,63.6,122.2z M129.8,131c-0.5,0-1,0.2-1.4,0.5l-4.3,3.1l14.9,20.6l2.1-1.6l-6.7-9.3l2.1-1.5l5.6,7.7
		c0.4,0.5,1.1,0.9,1.6,1.2l2.2-1.6c-0.7-0.3-1.2-0.6-1.7-1.2l-4.9-6.9c-0.9-1.3-1.7-1.4-2.4-1.2c0.3-0.7,0.5-1.4-0.2-2.4l-4.7-6.5
		C131.6,131.3,130.7,131,129.8,131z M71.6,131.6c-1,0.1-2,0.6-2.6,1.5l-13.4,17l2.1,1.7l7-9l2.1,1.7l-7.1,8.9l2.1,1.7l13.4-17.1
		c1.3-1.7,1-4.2-0.7-5.5C73.6,131.7,72.6,131.4,71.6,131.6z M129.9,133.6l5.1,7.1l-2.1,1.6l-5.1-7.1L129.9,133.6z M71.7,133.8
		l2.1,1.7l-5.5,6.9l-2-1.6L71.7,133.8z M81.1,136.6L70,159.6l7.1,3.4l3.5-7.1l-2.4-1.2l-2.3,4.8l-2.4-1.1l9.9-20.6L81.1,136.6z
		 M120.8,136.7l-2.4,1l8.5,21.2l-2.5,1l-8.5-21.1l-2.5,1l8.1,20.1c0.8,2,3.1,3,5.1,2.2c2-0.8,3-3.1,2.2-5.1L120.8,136.7z
		 M89.4,140.3l-1.4,7.8l2.6,0.4l0.9-5.1l2.5,0.4l-8.7,18.9l-0.5,2.6l7.8,1.4l1.4-7.8l-2.6-0.5l-0.9,5.2l-2.5-0.5l8.7-18.9l0.5-2.6
		L89.4,140.3z M107.4,141.2l-5.2,0.6l3.1,25.3l5.2-0.6c1.4-0.2,2.5-1.5,2.3-2.9l-0.9-7.7c-0.2-1.6-0.8-2-1.4-2.2
		c0.6-0.4,1.1-0.9,1-2.1l-1-8C110.1,142,108.8,141,107.4,141.2z M107.7,143.8l1,8.7l-2.6,0.3l-1-8.7L107.7,143.8z M109,155.1
		l1.1,8.7l-2.6,0.3l-1.1-8.7L109,155.1z"/>
	<path id="path4072" class="st2" d="M6.9,71.2c-0.5,0.8-0.7,1.5-0.6,2.5c0.3,2.1,1.8,3.9,3.8,4.7c1.1,0.5,2.5,0.1,3.6,0.4
		c0.3,0.1,0.7,0.5,0.7,0.9c-0.1,0.3-0.1,0.6-0.4,0.9c-1.8,1.5-3.8,3-5.3,4.9c-1.6,1.8-1.9,4.9-1,7.1c0.9,2.6,3.6,4.2,6.2,4.6
		c1.9,0.3,3.5-0.2,5.2-0.6c0.2,0,0.3,0.2,0.4,0.4c0.2,1.5-0.1,2.9,0.3,4.2c0.3,1.3,0.7,2.2,1.2,3.4c0.1,0.4,0,0.9-0.3,1.2
		c-0.9,0.7-1.9,1.3-2.9,1.7l-2.6,0.2l-0.5,0.2c-1,1.1-1,2.2-1.6,3.5c-0.8,1.3-2.3,2-3.5,2.7c-0.4,0.6-0.8,1.3-1.3,1.8
		c-0.4,0.4-1,0.5-1.6,0.5c-0.9,1-1.1,2.4-1.3,3.8c1.4,0.1,2.9,0.9,4.3,0.1c1.2-0.6,1.5-2,2.4-2.9c0.7-0.8,1.8-0.2,2.7-0.1
		c1.3,0.1,2.2-0.9,3.3-1.3c0.7-0.5,1.4-1.3,2.1-1.8c1.5-0.7,3.6-0.3,5.2,0c1.2,0.3,2.6,0.1,3.6-0.4c1-0.6,2-1.4,3.1-1.7
		c1-0.5,1.5-1.7,1.9-2.6c0.3-0.9,1.2-1.6,1.1-2.6c-0.3-0.2-0.6-0.7-1-0.7c-0.5,0.7-0.8,1.4-1.4,2.1c-2.4,3.2-4.2,3.5-9,3.5
		c-3.6-0.1-6.8,1-9.3,3.7c-0.2,0.1-0.4,0-0.5-0.1c-0.1-0.4,0.3-1,0.4-1.3c2.2-3.1,5.6-3.8,9.2-3.9c2-0.1,3.8-0.4,5.5-1.3
		c1.9-0.9,3.1-2.4,3.9-4.3c0.4-2.1,0.6-4.3,1.1-6.3c0.1-0.2,0.5-0.3,0.7-0.3c0.2,0,0.6,0.2,0.6,0.4c-0.4,2-1,4.5-0.2,6.4
		c1.6,2.1,4.5,1,6.6,0.9c2.2-0.2,4,0,6.1,0.1c1,0,1.9,0.2,2.7-0.5c0.2-0.4,0.3-0.8,0.2-1.2c-0.1-0.6-0.6-1,0-1.4
		c0.2-0.1,0.7,0,0.8,0.2c0.3,0.8,0.4,1.7,1,2.4c1,1.3,2.6,2.4,4,3.2c1.4,1,2.5,2.3,2.6,4c0,0.9-0.8,1.4-1.4,1.8
		c-1.1,0.6-2.3,1-3.6,0.9c-1.7-0.9-2.2-2.7-3.3-4.1c-0.6-0.7-1.5-0.8-2.4-0.7c-1,0.1-1.9,0.1-2.8,0.4c-0.2,0.2-0.3,0.5-0.3,0.7
		c0.6,1.1,1.3,2.1,1.9,3.2c0.8,0.5,1.8-0.2,2.5,0.6c0.6,0.9,0.9,1.9,1.8,2.5c0.8,0.7,2.1,1,3.2,0.6c2.4-0.8,4.8-1.5,7.1-2.7h0.7
		c0.9-0.1,2-0.1,2.6-0.7c0.7-1,1.3-2,1.9-3.2c0.6-0.8,0.3-1.9,0.1-2.7c-1.1-1.4-1.8-2.9-2.4-4.5c-0.6-0.2-1-0.5-1.7-0.5
		c-0.3,0.1-0.7,0-0.9,0.4l2.6,5.1c0.2,0.4,0.4,0.9,0.3,1.4c-0.4,1.1-0.9,2.2-1.8,2.9c-0.2,0.1-0.4,0.2-0.5-0.1
		c0.3-1.1,0.8-2.3,0.7-3.6l-2.5-4.6c-0.3-0.6-0.8-1.2-0.8-1.9c0-0.3,0.3-0.5,0.6-0.6c1.1-0.4,2.5-0.3,3.3-1.2
		c1.1-1.7,1.3-3.5,1.6-5.5c0.1-0.1,0.3-0.4,0.5-0.4c0.2-0.1,0.4,0.2,0.5,0.3c0.3,2.3-0.1,4.6-1.4,6.3c-0.1,0.2-0.2,0.5,0.1,0.7
		c1.2,0.4,2.5,0,3.6-0.6c1.3,0,2.6-0.3,3.8-0.5c0.1,0.1,0.3,0.2,0.3,0.3c-0.8,0.9-1.3,1.9-1.5,3.1c-1,1-2.4,1.9-2.5,3.4
		c0.2,0.7,0.8,0,1.2,0.1c0.2,0,0.3,0.2,0.3,0.4l-1,1.4c-0.5,0.9,0.1,1.9,0.1,2.7c0.2,0.7,1,1,1.7,1c1.5-0.1,2.8-0.6,4.1-1.1
		c1.4-0.6,3.2-0.6,4.8-0.3c1.5-0.1,2.7-1.1,3.8-2.1c0.6,0,1.2,0.4,1.6,0.9c1.8,1.9,4.1,2.7,6.6,2.6l0.3-0.1c0.2-0.2,0.1-0.5-0.1-0.6
		l-1.6-0.8c-1.1-0.7-2.4-1.6-2.8-2.8c-0.3-1.1-0.9-2.2-1.6-3.3c-0.2-0.5-0.8-1-1-1.5c0.1-0.1,0.2-0.1,0.3-0.1
		c1.7,0.6,2.7,2.2,3.5,3.7c1.2,1.7,3,3.2,5.4,2.8l0.2-0.2c0.1-0.1,0.1-0.3,0-0.4l-1.2-0.6c-2-1.1-2.7-3.3-4-5
		c-0.4-0.6-1.2-1-1.6-1.7c-1.4-3.8-2.6-7.7-2.9-12c-0.3-1.1-0.5-2.2-1.1-3.2c-1.8-2.9-4.1-5.5-6.3-8.1c-0.2-0.2-0.2-0.2-0.6-0.6
		l-7.8-6.5c-1-0.7-2-1.2-3.1-1.7c-1.6-0.6-3.9-0.5-5.5,0.2c-1.7,0.9-3.2,2.1-4.9,2.7c-2.6,1.1-5.5,1.4-7.7,3.4
		c-1.3,1.1-2.3,2.8-4.2,2.5c-2.1-0.1-4,0.7-5.6,2c-1.4,1.3-2.8,2.9-4.7,3.2c-1.6,0.7-3.6,0.3-5.3,1c-2.7,0.7-4.8,2.7-7,4.3
		c-2.3,1.3-4.4,2.7-7.2,2.7c-1.8-0.1-3.6-1.4-4.2-3.2c-0.6-2,0.1-4.1,1.7-5.5c1.7-2,4.3-3.2,5.6-5.5c0.7-1.2,0.6-3.2-0.3-4.3
		c-1.7-1.8-4.2-1.9-6.5-2.4C9.3,73,8.2,71.9,6.9,71.2z M137.1,71.3c-1,0.1-1.7,0.7-2.5,1.4c-5,4.4-10.7,7.4-15.3,12.4
		c-3.1,3.2-3.9,7.2-5.1,11.1c-1.6,5.9-2.3,12.4-8.2,16c-0.1,0.2-0.1,0.5,0.1,0.6c1.6,0.4,3.1-0.2,4.2-1.3c1-1.6,2.1-3.1,3.5-4.6
		l0.3-0.2c0.2,0,0.3,0.1,0.3,0.3c-0.4,1.3-1.5,2.3-1.9,3.6c-0.5,1.6-2,2.8-3.3,3.9l-0.1,0.2c0,0.2,0.2,0.3,0.3,0.4
		c2.9,0.1,5-1.9,6.9-3.9c0.2-0.2,0.4-0.2,0.7-0.1c0.9,0.7,1.7,1.6,2.8,1.9c1.2-0.2,2.4-0.3,3.6-0.2c1.7,0.5,3.4,1.2,5.1,1.8
		c0.9,0,1.5-0.9,2-1.6c0.4-0.9-0.1-1.7-0.1-2.5c0.4-0.3,0.9,0.1,1.3-0.1c0.2-0.1,0.4-0.4,0.4-0.6c-0.3-1.5-1.7-2.7-2.1-4.1
		c-0.7-1.8-2.8-2.9-3.2-4.8c0.1-0.1,0.3-0.3,0.4-0.2c1.4,1,2.6,2.4,4.3,2.6c1.3,0.1,2.7,0.3,4,0.2c0.2-0.1,0.3-0.3,0.3-0.5
		c-0.6-1.2-1.1-2.4-1.4-3.6c-0.5-1.6-0.8-3.9-0.3-5.6c0.1-0.1,0.5-0.4,0.7-0.3c0.3,0.1,0.6,0.4,0.6,0.6c0.2,2.8-0.1,5.4,1.6,7.5
		c0.7,1.1,2,1.4,2.8,2.2c0.3,0.5,0.4,1.2,0.2,1.7l-2,2.9c-0.5,0.7-0.9,1.4-1.1,2.1c-0.2,0.8-0.1,1.6,0,2.4c-0.1,0.1-0.2-0.1-0.3-0.2
		c-0.5-1.1-1.1-2.5-0.5-3.7l2.5-3.9l0.1-0.3c-0.6-0.3-1.2-0.6-1.8-0.7c-0.3,0.1-0.4,0.4-0.6,0.7l-2.5,4.4c-0.2,0.5-0.3,0.9-0.2,1.5
		c0.1,0.7,0.3,1.3,0.6,1.8c0.2,0.9,0.4,1.6,0.8,2.4c0.6,0.7,1.5,0,2.2,0.2c0.8,0.2,1.1,1.2,1.9,1.4c1.8,0.6,3.6,0.9,5.4,1.6
		c0.9,0.3,2.2,0.6,3.1-0.1c1.1-0.6,1.5-1.8,1.7-2.9c0.4-0.5,1.1-0.3,1.6-0.5c1-0.7,1.3-1.8,2-2.7l0.1-0.4c-0.1-0.3-0.3-0.5-0.6-0.6
		h-3.4c-1.5,0.2-1.6,1.9-2.3,2.9c-0.4,0.7-1.1,0.9-1.9,0.9c-1.6-0.4-3.5-0.7-4.2-2.4c-0.1-0.4-0.1-0.9,0.2-1.2
		c0.8-0.9,1.8-2.1,2.8-2.8c1.4-0.3,2.9-1.3,3.6-2.6c0.4-0.6,0.3-1.4,1-1.8c0.2,0,0.6,0,0.7,0.2c0.3,0.9-0.2,1.6-0.5,2.5
		c3.6,0.4,6.4-0.7,9.9-0.5c1.5,0,2.8,0.2,4.2,0.1c1.4-0.1,3-0.7,3.5-2.2c0.7-1.9-0.3-4.1-0.6-5.9l0.4-0.3c0.2-0.1,0.6,0.1,0.8,0.2
		c0.6,1.7,1,3.8,1.3,5.7c0.3,1.7,1,2.8,1.9,4.2c1.7,2.5,4.6,3.5,7.5,2.8c3.5-0.3,6.6,1.6,8.8,4.3v0.2c-0.1,0.1-0.2,0.3-0.4,0.3
		c-1.9-1.4-3.7-3-6.1-3.3c-2.4-0.4-4.6,0.8-7.1-0.2c-3-1-4.3-2.8-5.6-5.8h-0.3c-0.2,0-0.3,0.2-0.3,0.4l0.3,2
		c0.4,1.6,0.9,3.5,2.7,4.3c1.4,0.8,2.7,2,4.4,1.6c3-0.7,6,0.2,8.3,1.9c0.8,0.4,1.4,1.2,2.2,1.5c0.9,0.4,2,0.2,2.7-0.4
		c1.7-0.6,2.1,1.6,3.2,2.3c1,1,3,0.6,4.4,0.6l-0.1-0.2c-0.2-1.3-0.5-2.4-1-3.6c-1.7,0.1-2.5-1.7-3.5-2.7c-0.8-0.9-2.4-1.5-2.4-2.9
		c-0.3-0.6-0.4-1.4-0.6-2.1c-0.2-0.6-0.4-1.4-1.2-1.6c-1.4-0.2-3.1,0.1-4-1.2c-0.9-1,0-2.1,0.2-3.1c0.4-1.2,0.5-2.8,0.3-4.1
		c0-0.7-0.6-1.3-0.4-2c0.3-0.6,1.1-0.2,1.6-0.1c1.8,0.5,4,0.2,5.7-0.5c2.3-1.1,4.1-3.4,4-6.1c-0.3-3.4-2.8-6.3-5.4-8.5
		c-0.5-0.4-1.1-0.9-1.3-1.5c-0.1-1.3,1.4-0.7,2.2-1c0.9-0.2,1.8-0.4,2.6-1c2-1.3,2.4-3.7,2-6c-0.1-0.2,0-0.5-0.3-0.5
		c-0.4,0.3-0.8,0.7-1.2,1c-1.3,0.8-2.9,0.6-4.3,1.3c-1.7,0.7-3.7,1.7-4.4,3.6c-0.2,1,0,1.9,0.4,2.7c2,3.2,6.3,5.3,7,9.2
		c0.3,1.6-0.5,2.7-1.7,3.6c-1.8,1.1-4.6,0.7-6.4-0.3c-3.5-1.8-6.6-4.7-10.4-5.9c-2.4-1.1-5.3-0.8-7.4-2.5c-1.6-1-3.1-2.4-4.9-2.9
		c-1.2-0.4-2.6-0.3-3.7-1c-1.2-1-2.4-2-3.8-2.7c-1.9-1-4-1.4-6.1-1.9c-1.2-0.3-1.7-1.7-2.7-2.4C141.4,72.1,139.4,71.1,137.1,71.3z
		 M136.9,79.1c0.2,0,0.4-0.1,0.5,0c0.2,0.1,0.3,0.2,0.4,0.4c0.1,0.1,0.1,0.2,0.1,0.4c0,0.1,0,0.2-0.1,0.3l-0.2,0.3l-0.2,0.2
		c0,0-1,1-1,1l-1.1,1.1c-0.8,0.8-1.4,1.5-1.8,2.1c-0.4,0.5-0.6,1-0.9,1.6c-0.1,0.2-0.3,0.2-0.4,0.2c0,0-0.1,0-0.1-0.1
		c0,0,0-0.1,0-0.1c-0.1-0.2-0.1-0.4-0.1-0.6c0-0.2,0-0.4,0.1-0.6l0.2-0.9l0.1-0.3c0.6-1.7,2-3.5,3.9-4.8
		C136.5,79.2,136.7,79.1,136.9,79.1z M66.4,81.4c0.2,0,0.3,0,0.5,0.1l0.1,0.1c0.6,0.4,0.9,1,1.2,1.5c0.3,0.8,0.5,1.7,0.5,2.7
		c0,0.8-0.1,1.5-0.3,2.2c0,0,0,0,0,0.1c0,0-0.1,0-0.1,0c-0.1,0.1-0.3,0.2-0.4,0.1c0,0,0,0,0-0.1c0,0-0.1-0.1-0.1-0.1
		c-0.3-1.3-0.5-2.7-1.1-4c0,0-0.3-0.5-0.3-0.5l-0.2-0.2L66,82.9c-0.2-0.3-0.4-0.8-0.2-1.3l0.1-0.1C66.1,81.4,66.2,81.4,66.4,81.4z
		 M81.3,94.1c0.1,0,0.3,0,0.4,0.1c0.5,0.2,0.7,0.7,1,1c0,0,0.1,0.2,0.1,0.2l0.2,0.3l0.4,0.5c1.1,1.2,1.6,2.3,1.6,3.5
		c0,0.3,0,0.6-0.1,0.9c0,0-0.1,0.3-0.1,0.3c0,0-0.1,0.3-0.1,0.3c-0.1,0.3-0.3,0.4-0.5,0.4c-0.1,0-0.2,0-0.3-0.1
		c-0.1-0.1-0.2-0.2-0.2-0.3c0,0-0.1-0.3-0.1-0.3l-0.1-1c-0.1-0.5-0.2-0.9-0.4-1.2c0,0-0.4-0.5-0.4-0.5c0,0-0.5-0.6-0.5-0.6
		c-0.4-0.4-0.8-0.6-1.1-0.6c-0.3,0.1-0.5,0.3-0.8,0.6L80,98.2l-0.3,0.4c-0.1,0.2-0.4,0.1-0.4,0.1c0,0,0,0-0.1,0c0,0,0-0.1,0-0.1
		c-0.1-0.2-0.1-0.4-0.1-0.6c0-0.3,0.1-0.6,0.2-0.8l0.3-0.5l0.3-0.6l0.1-0.1c0.1-0.1,0.2-0.3,0.3-0.5l0.1-0.2l0.2-0.5
		C80.6,94.3,80.9,94.1,81.3,94.1z M121.9,95.3c0.6-0.1,1,0.5,1.2,0.7c0.5,0.7,1,1.5,1.4,2.5c0,0.1,0,0.1,0,0.2c0,0,0,0.1,0,0.1
		l-0.1,0.3c-0.1,0.1-0.1,0.2-0.3,0.3c-0.1,0.1-0.3,0.1-0.4,0c-0.2-0.1-0.3-0.2-0.4-0.3c0,0-0.2-0.2-0.2-0.2l-0.1-0.2
		c-0.1-0.3-0.3-0.5-0.6-0.4c-0.3,0-0.5,0.1-0.7,0.3l-0.2,0.2l-0.1,0.1L121,99c0,0-0.5,0.4-0.5,0.4l-0.2,0.2c0,0-0.7,0.6-0.7,0.6
		c-0.5,0.5-0.7,0.9-0.8,1.4c0,0-0.1,0.4-0.1,0.4c0,0,0,0.2,0,0.2l-0.1,0.2c0,0.2-0.1,0.4-0.4,0.6c-0.2,0-0.3,0.1-0.5-0.1
		c-0.1-0.1-0.2-0.2-0.2-0.4c-0.1-1.6,0.5-3.1,1.6-4.1c0.6-0.5,1-1,1.4-1.5c0,0,0.4-0.5,0.4-0.5l0.9-1.1L121.9,95.3z M80.5,107.2
		c0,0,0.1,0,0.1,0h0.2l0.2,0.1c0.1,0,0.3,0.1,0.4,0.4c0,0.2,0.1,0.3,0.1,0.5c0,0.5-0.1,1.1-0.5,1.4c0,0-0.1,0-0.1,0
		c-0.6,0.2-1.3,0.3-2,0.3l-0.1-0.1c0,0-0.2-0.1-0.2-0.1c0,0-0.1-0.1-0.1-0.1c-0.1-0.1-0.2-0.2-0.2-0.4
		C78.6,108.4,79.4,107.4,80.5,107.2z M121.5,107.9L121.5,107.9c0.9,0,1.6,0.3,2,0.8c0,0,0.1,0.3,0.1,0.3l0.2,0.4
		c0.1,0.2,0.1,0.2,0.1,0.4c0,0.1,0,0.3-0.1,0.4v0.1c-0.2,0.2-0.5,0.2-0.9,0.2l-0.6-0.1H122l-0.1-0.1c-0.6-0.3-0.7-1-0.8-1.8
		C121.2,108.3,121.2,108.1,121.5,107.9C121.4,108,121.4,107.9,121.5,107.9z M8.2,111.1c-0.1,0-0.3,0.1-0.4,0.1
		c-0.7,0.6-1.5,1.1-2.2,1.6c-0.3,0.2-0.2,0.7-0.3,1.1c0,0.3,0.4,0.6,0.6,0.7c0.4,0.2,0.8,0.2,1.2,0.1c1-0.6,1.7-1.7,2.2-2.6
		c-0.1-0.4-0.5-0.6-0.7-0.9C8.4,111,8.3,111,8.2,111.1z M192.2,111.1c-0.5,0-0.9,0.6-1.2,1c0.2,0.8,0.9,1.4,1.4,2.1
		c0.3,0.4,0.7,0.7,1.2,0.7c0.5,0,0.8-0.2,1.1-0.5c0.2-0.3,0.5-0.6,0.4-1.1c-0.6-0.9-1.6-1.4-2.4-2
		C192.6,111.2,192.3,111.1,192.2,111.1z M3.7,114.8c-0.5,0.3-1.1,0.7-1.2,1.3c-0.2,1,0.1,2-0.7,2.8c0,0.2-0.2,0.4,0,0.6
		c0.7,0.2,1.4,0.5,2.3,0.6c0.4-1.3,0.7-2.7,1.1-3.8V116C4.7,115.5,4.3,114.9,3.7,114.8z M196.1,115c-0.5,0.4-1.1,0.8-1,1.5
		c0.4,1.2,0.6,2.1,0.9,3.3c0.1,0.2,0,0.7,0.4,0.7l2.1-0.7c0.4-0.6-0.3-1-0.4-1.6c-0.2-0.8,0-1.8-0.5-2.5
		C197.1,115.3,196.7,114.8,196.1,115z"/>
	<path id="path4084" class="st2" d="M53.4,111.3c0.7,0.7,0.6,1.8,1.4,2.4c1,0.2,1.9-0.2,2.6-0.8c0.4-0.4-0.2-0.8-0.3-1.2
		c-0.4-0.6-0.1-1.9-1.2-1.9c-1,0.2-2.1,0.2-3.1,0.2l-0.3,0.2C52.3,110.7,53.2,110.7,53.4,111.3"/>
	<path id="path4096" class="st2" d="M146.1,110.3c-0.9,0.2-1.9,0-2.8,0.1c-0.4,0.6-0.8,1.3-0.7,2.1c0.1,0.8,1,0.9,1.6,1.1
		c0.6,0.1,1.4,0.3,1.7-0.3c0.3-0.9,0.6-1.8,0.8-2.7C146.7,110.3,146.4,110.2,146.1,110.3"/>
</g>
</svg>
