<?xml version="1.0" encoding="utf-8"?>
<!-- Generator: Adobe Illustrator 21.1.0, SVG Export Plug-In . SVG Version: 6.00 Build 0)  -->
<svg version="1.1" id="Layer_1" xmlns="http://www.w3.org/2000/svg" xmlns:xlink="http://www.w3.org/1999/xlink" x="0px" y="0px"
	 viewBox="0 0 200 200" style="enable-background:new 0 0 200 200;" xml:space="preserve">
<style type="text/css">
	.st0{fill:#1A4990;}
	.st1{fill:#FFFFFF;}
	.st2{fill:#EC2027;}
</style>
<g>
	<path class="st0" d="M190.1,38L157.5,0H42.5L9.9,38C9.9,38,23,49.7,23,64.1c0,16.4-12.3,15.8-12.3,40.8c0,25.1,17.8,36.3,38.3,51.9
		c15.6,11.9,34,24.8,51,43.2l0,0c17-18.4,35.4-31.3,51-43.2c20.5-15.6,38.3-26.8,38.3-51.9c0-25-12.3-24.4-12.3-40.8
		C177,49.7,190.1,38,190.1,38z"/>
	<path class="st1" d="M55.9,113.3c-0.4,0.6-0.8,1.1-1.3,1.6c-0.5,0.5-1,0.9-1.6,1.3c2.9,2.7,5.7,5.4,8.5,8.3
		c5.6,5.7,10.5,11.4,5.9,16.1c-3.7,3.8-6.9,4.6-14.3-2.9c-3.5-3.6-6.6-6.8-10.1-11.2c-0.7,0.9-1.4,1.8-2.2,2.5
		c-0.8,0.8-1.6,1.5-2.5,2.2c1.1,1,3.1,3,6.3,6.2c2.2,2.2,3.7,3.9,7,7.3c5.7,5.8,11.7,4.2,16.6-0.7c5.6-5.7,5.6-11.6-1.4-18.7
		C61.6,119.9,57.5,115.3,55.9,113.3z"/>
	<path class="st1" d="M79.3,115l-7.5-7.7c-1.1-1.2-2.2-2.3-2.6-2.8c1.2-1.2,3.7-3.4,5.5-4.8c-0.5-0.4-1-0.8-1.5-1.2
		c-0.5-0.5-0.8-1-1.2-1.5c-2.4,2.6-3.6,3.9-7.1,7.6c-3.6,3.6-4.9,4.9-7.6,7.4c0.5,0.4,1,0.7,1.5,1.2c0.5,0.5,0.8,1,1.2,1.5
		c1.5-2,3.7-4.6,4.9-5.7c0.5,0.3,1.6,1.5,2.7,2.6l7.5,7.7c3.4,3.5,5.6,5.9,8.1,8.8c0.6-0.7,1.3-1.6,2.2-2.5c0.9-1,1.8-1.7,2.5-2.2
		C85.1,120.7,82.7,118.4,79.3,115z"/>
	<path class="st1" d="M92,86.9c-1.8-1.8-3.8-2.5-5.8-2.2c-1.8,0.2-3.1,1-6,4c-2,2-3,3.4-4.1,4.4c-0.9,1-1.8,1.7-2.5,2.2
		c2.8,2.5,5.2,4.9,8.6,8.3l4.1,4.2c3.4,3.5,5.6,5.9,8.1,8.8c0.6-0.7,1.3-1.6,2.2-2.5c0.9-1,1.8-1.7,2.5-2.2
		c-2.8-2.5-5.2-4.9-8.6-8.3l-1.2-1.3l0.3-0.3l14.7,4.6c0.8-0.9,1.6-1.9,2.5-2.8c0.9-0.9,1.8-1.7,2.7-2.5c-5.5-1.4-11.1-2.7-16.4-4.3
		C95.1,93.5,94.9,89.9,92,86.9z M88.6,100.5c-0.2,0.2-0.4,0.4-0.7,0.6c-2.7-2.8-5.4-5.6-8.1-8.5c3.1-3.2,4.8-4.1,8.4-0.5
		C91.1,95,91.2,97.9,88.6,100.5z"/>
	<path class="st1" d="M119.9,88.1c-0.6-0.6-0.9-1-1.2-1.5c-1.9,2.5-4,4.9-6.2,7.1c-1.3-1.2-2.6-2.5-3.8-3.8c-1.3-1.3-2.6-2.7-3.8-4
		c2.2-2.2,4.4-4.3,6.8-6.3c-0.7-0.6-1-0.8-1.4-1.1c-0.4-0.4-0.6-0.7-1.2-1.5c-2.1,2.3-3.8,4.3-6.3,6.9c-2.2-2.3-4.4-4.5-6.4-6.9
		c0.9-0.9,4.5-4.2,6.9-6.2c-0.5-0.4-0.8-0.6-1.5-1.3c-0.5-0.6-0.8-1-1.1-1.4c-0.7,0.9-3,3.4-5.9,6.2c-1.7,1.7-3.5,3.3-5.3,5
		c2.8,2.5,5.2,4.9,8.6,8.3l4.1,4.2c3.4,3.5,5.6,5.9,8.1,8.8c0.6-0.7,1.3-1.6,5.9-6.3c2.6-2.7,4.1-3.9,5.2-4.9
		C120.9,89,120.5,88.8,119.9,88.1z"/>
	<path class="st1" d="M135,67.8c0.1,2.6-1.1,5.7-2.9,7.6c-3.3,3.4-9.2,4.4-15.4-1.9c-6.4-6.5-5.7-12.9-2.6-16.1
		c2-2.1,4.3-2.7,7.6-2.3l0.4-0.4c-0.9-1.1-1.8-2.4-2.4-3.8c-2.2,0.5-5.3,2.4-7.3,4.4c-6,6.1-8.2,14.8,0.1,23.4
		c5.7,5.8,14,6.3,20.7-0.4c2.4-2.4,3.9-4.9,4.5-7.3c-0.8-1-1.4-2.1-1.9-3.3L135,67.8z"/>
	<path class="st1" d="M150.2,43l-4.1-4.2c-3.4-3.5-5.6-5.9-8.1-8.8c-0.6,0.7-1.3,1.6-2.2,2.6c-1,1-1.8,1.7-2.5,2.2
		c2.8,2.5,5.2,4.8,8.5,8.3c-1.1,1.1-2.2,2.4-4.3,4.5c-2,2.1-3.4,3.4-4.5,4.4c-3.3-3.4-5.6-5.9-8.1-8.7c-0.6,0.7-1.3,1.6-2.2,2.5
		c-1,1-1.8,1.7-2.5,2.2c2.8,2.5,5.2,4.9,8.6,8.3l4.1,4.2c3.4,3.5,5.6,5.9,8.1,8.8c0.6-0.7,1.3-1.6,2.2-2.5c1-1,1.8-1.7,2.5-2.2
		c-2.8-2.5-5.2-4.9-8.6-8.3l-1.7-1.8c1.4-1.6,2.8-3.1,4.2-4.6c1.5-1.5,3-2.9,4.5-4.3l1.7,1.8c3.4,3.5,5.6,5.9,8.1,8.8
		c0.6-0.7,1.3-1.6,2.2-2.5c0.9-1,1.8-1.7,2.5-2.2C156,48.7,153.6,46.4,150.2,43z"/>
	<path class="st1" d="M161.5,31.5l-7.5-7.7c-1.1-1.2-2.2-2.3-2.6-2.8c1.2-1.2,3.7-3.4,5.5-4.8c-0.5-0.4-1-0.7-1.5-1.2
		c-0.4-0.5-0.8-1-1.2-1.5c-2.3,2.6-3.6,3.9-7.1,7.6c-3.6,3.6-4.9,4.9-7.6,7.4c0.5,0.4,1,0.8,1.5,1.2c0.5,0.5,0.8,1,1.2,1.5
		c1.5-2,3.7-4.6,4.9-5.7c0.5,0.3,1.6,1.5,2.7,2.6l7.5,7.7c3.4,3.5,5.6,5.9,8.1,8.8c0.6-0.7,1.3-1.6,2.2-2.5c0.9-1,1.8-1.7,2.5-2.2
		C167.3,37.2,164.9,34.9,161.5,31.5z"/>
	<path class="st1" d="M152.7,10.4H47.3L23.7,37.9c2.4,3.2,5,7.3,7,12.2c1.6,4.1,2.8,8.8,2.8,14c0,4.5-0.8,8.7-2.1,12.1
		c-1.3,3.5-2.9,6.1-4.3,8.3c-0.9,1.4-1.7,2.7-2.4,3.9c-0.9,1.6-1.6,3.1-2.2,5c-0.8,2.6-1.5,6.1-1.5,11.5c0,3.8,0.5,6.9,1.3,9.8
		c0.9,2.8,2.1,5.4,3.7,7.9c1.9,3,4.5,5.9,7.7,8.9L152.7,10.4L152.7,10.4z"/>
	<path class="st2" d="M173.2,85c-1.2-1.9-2.6-4.1-3.8-6.9c-1.7-3.8-2.8-8.6-2.8-14c0-5.2,1.2-9.9,2.8-14c1.6-4.1,3.7-7.6,5.7-10.4
		c0.4-0.6,0.9-1.2,1.3-1.8L62.4,153.8C74,162.5,87.1,172.4,100,185c15.6-15.3,31.5-26.5,44.7-36.6c5.9-4.5,11.4-8.5,16-12.3
		c4.7-3.8,8.5-7.5,11.4-11.2c1.9-2.5,3.4-4.9,4.5-7.6c1.5-3.5,2.3-7.5,2.3-12.5c0-6.1-0.8-9.7-1.8-12.5
		C176.1,89.7,174.9,87.8,173.2,85z"/>
	<path class="st2" d="M55.1,41.3c0-7.3-0.1-12.3-0.5-18c3.8,0.1,7.7,0.3,11.6,0.3c6.4,0,11.9-0.1,13.6-0.3c-0.1,0.8-0.3,1.6-0.3,2.7
		c0,1.4,0.1,2,0.3,2.9c-4.9-0.3-12.8-0.8-14.7-0.8c-0.3,4.8-0.3,9.4-0.3,14.2c5.7-0.1,9.8-0.3,14.8-0.5c-0.3,1.5-0.3,2.1-0.3,2.9
		c0,0.7,0.1,1.3,0.3,2.7c-4.9-0.4-9.8-0.6-14.8-0.6v3.3c0,7.3,0.1,12.3,0.5,18c-1.4-0.1-3.2-0.3-5.3-0.3c-2.1,0-3.9,0.2-5.3,0.3
		c0.4-5.7,0.5-10.7,0.5-18V41.3"/>
	<path class="st1" d="M150.5,133.6c-0.7,1.7-1.2,3.5-1.4,5.3c-3.3,1.7-7.6,2.7-12.6,2.7c-14.4,0-22.9-9-22.9-20.7
		c0-17.1,11.6-23.7,24.6-23.7c4.3,0,9.8,1.3,12.6,3c-0.8,2-1.2,4.2-1.4,6.3h-0.9c-3.1-3.8-6.3-5.5-10.7-5.5
		c-6.6,0-14.1,5.8-14.1,18.9c0,12.8,7.6,17.8,14.7,17.8c4,0,8.6-1.9,11.2-4.6L150.5,133.6"/>
</g>
</svg>
