<?xml version="1.0" encoding="utf-8"?>
<!-- Generator: Adobe Illustrator 21.1.0, SVG Export Plug-In . SVG Version: 6.00 Build 0)  -->
<svg version="1.1"
	 id="svg2" inkscape:version="0.48.2 r9819" sodipodi:docname="viktorian_7_10.pdf" xmlns:cc="http://creativecommons.org/ns#" xmlns:dc="http://purl.org/dc/elements/1.1/" xmlns:inkscape="http://www.inkscape.org/namespaces/inkscape" xmlns:rdf="http://www.w3.org/1999/02/22-rdf-syntax-ns#" xmlns:sodipodi="http://sodipodi.sourceforge.net/DTD/sodipodi-0.dtd" xmlns:svg="http://www.w3.org/2000/svg"
	 xmlns="http://www.w3.org/2000/svg" xmlns:xlink="http://www.w3.org/1999/xlink" x="0px" y="0px" viewBox="0 0 215.5 300"
	 style="enable-background:new 0 0 215.5 300;" xml:space="preserve">
<style type="text/css">
	.st0{fill:#F1CA0B;}
	.st1{fill:#C20016;}
	.st2{fill:#FFFFFF;}
	.st3{fill:#80B13D;}
	.st4{fill:#62BB46;}
	.st5{fill:#0000B2;}
</style>
<path id="path30" inkscape:connector-curvature="0" d="M107.7,6.7c27.5,0,52.9,4,73.6,10.8v6c-0.2,18.5,11.4,34.3,27.5,40.9v104
	C208.8,264,107.4,293,107.4,293S6.7,264,6.7,168.4v-104c15.8-6.7,27-22.5,26.8-40.7v-6C54.4,10.8,80,6.7,107.7,6.7"/>
<path id="path34" inkscape:connector-curvature="0" class="st0" d="M205.4,112.7v-1.2v-0.3c-28.5,0-56.5,7.2-81.2,21.4
	c-0.3,0.2-0.6,0.4-1,0.6c2.2,2.5,4.2,5.2,6.2,7.9c10.8,15,18.3,32.3,21.2,50.5c22.8-9.9,40.9-27.2,49.5-50.4
	C203.6,131.9,205.3,122.3,205.4,112.7"/>
<path id="path38" inkscape:connector-curvature="0" class="st1" d="M107.9,289.3c1-0.3,1.9-0.6,2.9-1c3.8-1.4,7.6-2.9,11.3-4.5
	c12-5.4,23.7-12.1,34.2-20.1c31.1-23.7,49.2-55.6,49.2-95.3V136c-0.6,2.1-1.3,4.3-2.1,6.3c-3.6,9.7-9,18.7-15.8,26.6
	c-10,11.5-22.6,20.2-36.4,26.1c0.5,3.9,0.8,7.8,0.8,11.7c0.1,11.4-1.7,22.8-5.4,33.6c-5.3,15.2-14.2,28.7-26.2,39.5
	C116.4,283.3,112.2,286.5,107.9,289.3"/>
<path id="path42" inkscape:connector-curvature="0" class="st2" d="M91.5,200.3L91.5,200.3L91.5,200.3c1.5,0,2.9,0.2,4.2,0.3
	c18.3,1.2,36-1.6,51.7-7.7c-3.1-20.8-12.6-41-27.1-57.9c-21.4,13.2-39.5,31.5-51.8,53.5c-5.5,9.9-9.8,20.3-12.7,31.1
	c7.1-11.6,19.9-19.3,34.4-19.3C90.7,200.3,91.1,200.3,91.5,200.3"/>
<path id="path46" inkscape:connector-curvature="0" class="st3" d="M86.8,281c2.1,1,4.1,2,6.2,2.9c3.4,1.5,6.9,3,10.4,4.2
	c18.2-11,32.5-27.7,39.9-48.9c4.9-14,6.2-28.6,4.6-42.9c-5.8,2.2-11.8,4-17.9,5.3c-7.3,1.5-14.8,2.4-22.2,2.6
	c13.6,6.5,23,20.4,23,36.5c0,22.3-18.1,40.4-40.4,40.4C89.2,281.1,88,281.1,86.8,281"/>
<path id="path50" inkscape:connector-curvature="0" class="st4" d="M51.4,257.6c1.3,1.1,2.6,2.2,3.9,3.3c-1.7-2.9-3-6-3.9-9.4
	c0,0.8,0,1.6,0,2.5c0,0.2,0,0.3,0,0.5"/>
<path id="path54" inkscape:connector-curvature="0" class="st5" d="M120.6,80.6c7.9-3.4,16-6.4,24.2-8.8V49.1
	c-8.1-1.1-16.2-1.9-24.2-2.3C120.6,46.8,120.6,80.6,120.6,80.6z M65.3,116.1c7.6-6.8,15.7-13.1,24.2-18.7V47.1
	c-8.1,0.5-16.2,1.4-24.2,2.7V116.1z M10.1,66.5v101.9c0,9.5,1,18.6,3,27.2c3.6-11,8.2-21.5,13.9-31.6c2.3-4.1,4.7-8.1,7.3-12V57
	C26,59.6,17.8,62.8,10.1,66.5 M175.8,65.2c7.4-1,14.8-1.6,22.3-1.9c-7.3-3-14.7-5.6-22.3-7.7"/>
<path id="path58" inkscape:connector-curvature="0" class="st1" d="M92.9,95.2c2.2-1.4,4.5-2.8,6.8-4.1c5.7-3.3,11.5-6.3,17.5-9
	V46.6c-3.2-0.1-6.3-0.2-9.5-0.2c-4.9,0-9.8,0.1-14.8,0.4V95.2z M37.7,147.1C44.9,137,53,127.7,62,119.2V50.4
	c-8.2,1.4-16.3,3.3-24.2,5.6C37.7,56,37.7,147.1,37.7,147.1z M148.2,70.9c8-2.2,16.1-3.9,24.2-5.2v-11c-8-2.1-16.1-3.8-24.2-5.1"/>
<path id="path62" inkscape:connector-curvature="0" class="st2" d="M36.9,20.2v3.5c0.2,13.2-5.3,25.4-14.4,34.2
	c24.9-9.4,54.1-14.8,85.2-14.8c31,0,59.9,5.3,84.8,14.6c-9.2-8.8-14.7-21-14.5-34.2V20c-22.4-7-46.9-9.9-70.3-9.9
	C84.2,10.1,59.4,13,36.9,20.2"/>
<path id="path66" inkscape:connector-curvature="0" class="st2" d="M205.4,66.6c-91.1,0-167.9,57.3-190.7,135.2
	C20.6,222,32,239.6,48,254.5c0-0.2,0-0.4,0-0.5c0-80.7,70.5-146.1,157.4-146.1"/>
<path id="path70" inkscape:connector-curvature="0" class="st2" d="M96.5,204.2l-6.2,6.3l6.4,9.5l13.4,1.9l7.2-6.5l0,0
	C111.9,209.7,104.5,205.5,96.5,204.2 M112.7,224l0.6,14.3l7.9,7.7l5.9-1.1c1.1-9.2-1.3-19.4-7.6-27L112.7,224z M93.6,257.3l5.6-12.1
	l12.2-4.2l6.9,6.8l-5.3,12.5l-12.8,4.5C100.1,264.7,93.6,257.3,93.6,257.3z M100.8,268.2l12.2-4.4l3.1,3.4
	c-4.9,5.5-13.3,9.4-21.3,10.2l-1.5-2.6C93.2,274.9,100.8,268.2,100.8,268.2z M90.7,277.7l-0.9-1.5L75,271.5l-4.4,0.7
	C76,275.6,84.1,277.9,90.7,277.7 M76.7,240l-4.2,10l6.3,8.7l11.7-2.8l5.3-11.3l-7.8-8C87.9,236.6,76.7,240,76.7,240z M66.9,269.3
	L66.9,269.3c-4-3.2-7.5-7.1-10.5-13.9l2.6-5.1l11.2,1.9l6,8.7l-2.6,7.4L66.9,269.3z M54.9,251.4l1.8-3.2l-0.9-12.3l-2-0.9
	c-0.2,1.5-0.5,3.3-0.5,5.7C53.3,243.4,53.9,248,54.9,251.4 M72.3,216.5l-6-4.1c-5.8,4.9-10,11.6-11.9,19.2l0,0l3.1,1.3l8.9-4.8
	L72.3,216.5z M70,228.9l5.5-12.4l12.1-4.1l6.2,9.1l-6.9,12.2l-10.7,3.2"/>
<path id="path74" inkscape:connector-curvature="0" d="M150.1,35.8l-9.4-20.3l-4.5-0.7l-3.9,25.7l4.4,0.7l2.8-18.3L149,43l4.4,0.7
	l3.9-25.7l-4.4-0.7L150.1,35.8z M130.6,14.6l-0.3,4.4l-9-0.6l-0.4,5.6l7.7,0.5l-0.3,4.4l-7.7-0.5l-0.5,7.1l9,0.6l-0.3,4.4l-13.4-1
	l1.8-25.9L130.6,14.6z M112.3,18.1L101,35.2h11.3v4.4H95.9v-4.4l11.3-17.1H95.9v-4.4h16.4V18.1z M84.3,36.1l7.8-0.7l0.4,4.4
	l-12.2,1.1L78,15l4.4-0.4L84.3,36.1z M70.2,23.1c-0.5-2.6-3-2.3-3.9-2.1l-3.5,0.7l1.1,5.6l3.5-0.7C68.5,26.3,70.7,25.7,70.2,23.1
	 M64.7,31.6c0.7,3.4,1.6,8,2.2,11.4c-1.4,0.3-3,0.6-4.4,0.9l-5-25.5l4.4-0.9c4-0.8,11.2-2.2,12.6,4.9C76.1,29.9,70,30.5,64.7,31.6
	 M143.9,17.9l-1.8-3.9l3,0.5l1.5,3.3L149,15l3.1,0.5l-2.9,3.2"/>
<polygon points="69.6,125.8 89,146.1 85.5,149.4 66,129.1 "/>
<polygon points="90.8,108.4 86.2,112.1 85.3,126.7 78.5,118.2 74.7,121.2 92.2,143.2 96,140.2 88.2,130.4 103.6,134.2 108.3,130.5 
	89.8,126.1 "/>
<polygon points="60.2,135 71.1,155.6 49,148.4 45.9,152.1 74.6,161.7 77.7,158 63.3,131.4 "/>
<polygon points="38.9,199.7 34.4,198.2 31.3,207.3 25.5,205.3 28.6,196.2 24.1,194.7 19.4,208.3 46,217.5 47.6,213 35.7,208.9 "/>
<path d="M52.9,180.1c0.8,2.3,0.7,4.8-0.4,7.1c-2.3,4.6-7.8,6.6-12.5,4.3c-4.6-2.3-6.6-7.8-4.3-12.5c1.1-2.3,3.1-4,5.3-4.7l-1.5-4.5
	c-3.4,1.2-6.4,3.6-8.1,7.1c-3.4,7-0.5,15.4,6.5,18.8c7,3.4,15.4,0.5,18.8-6.5c1.7-3.5,1.8-7.3,0.7-10.7L52.9,180.1z"/>
<polygon points="108.2,103.1 105.6,99.1 93.4,106.7 95.9,110.7 100,108.2 112.4,128 116.5,125.5 104,105.7 "/>
<path d="M186.8,74.2l-4.8,0.5l-8.7,29.2l5.2-0.5l2.4-8.1l11.1-1.2l4,7.4l5.2-0.5L186.8,74.2z M182.4,90.3l2.7-9.1l4.5,8.4
	L182.4,90.3z"/>
<polygon points="160.8,77.9 166.3,105.5 171,104.6 165.6,77 "/>
<path d="M164.2,105.8l-11.9-9.4c0.7-0.3,6.6-2,4.4-9.5c-2.3-7.4-9.8-5.1-14.1-3.8l-4.6,1.4l8.2,26.9c1.5-0.5,3.1-0.9,4.6-1.4
	c-1.1-3.6-2.6-8.4-3.7-12l11.7,9.5L164.2,105.8z M149.4,92.5l-3.7,1.1l-1.8-5.9l3.7-1.1c1.1-0.4,3.7-0.9,4.5,1.8
	C152.9,91.1,150.6,92,149.4,92.5z"/>
<path d="M138.5,98.9c-3.2-7.1-11.5-10.2-18.6-7c-7.1,3.2-10.2,11.5-7,18.6c3.2,7.1,11.5,10.2,18.6,7
	C138.6,114.3,141.7,106,138.5,98.9z M129.6,113.2c-4.6,2.2-10.2,0.1-12.3-4.6c-2.2-4.7-0.1-10.3,4.6-12.4c4.6-2.2,10.2-0.1,12.3,4.6
	C136.3,105.5,134.2,111.1,129.6,113.2z"/>
</svg>
