<?xml version="1.0" encoding="utf-8"?>
<!-- Generator: Adobe Illustrator 21.1.0, SVG Export Plug-In . SVG Version: 6.00 Build 0)  -->
<svg version="1.1"
	 id="svg2" xmlns:cc="http://creativecommons.org/ns#" xmlns:dc="http://purl.org/dc/elements/1.1/" xmlns:rdf="http://www.w3.org/1999/02/22-rdf-syntax-ns#" xmlns:svg="http://www.w3.org/2000/svg"
	 xmlns="http://www.w3.org/2000/svg" xmlns:xlink="http://www.w3.org/1999/xlink" x="0px" y="0px" viewBox="0 0 200 200"
	 style="enable-background:new 0 0 200 200;" xml:space="preserve">
<style type="text/css">
	.st0{fill:#272C29;}
	.st1{fill:#485DAF;}
	.st2{fill:#FFFFFF;}
</style>
<g>
	<path id="path8" class="st0" d="M100,0.1c55.2,0,100,44.8,100,99.9s-44.8,99.9-100,99.9S0,155.1,0,100S44.8,0.1,100,0.1z"/>
	<path id="path10" class="st1" d="M100,2.9c53.6,0,97.2,43.5,97.2,97.1s-43.5,97.1-97.2,97.1S2.8,153.6,2.8,100S46.3,2.9,100,2.9z"
		/>
	<path id="path12" class="st0" d="M100,19c44.8,0,81.1,36.3,81.1,81S144.8,181,100,181S18.9,144.7,18.9,100S55.2,19,100,19z"/>
	<path id="path14" class="st2" d="M44.5,43.1c36.7-3.7,73.5-3,110.1,1l0.4,0l0.7,56.6c0,2-0.2,4.2-0.5,6.2c-0.4,2.6-0.9,5.2-1.6,7.8
		c-1.5,6-3.5,12.1-5.9,17.8c-1.6,3.8-3.3,7.6-5.4,11.1c-0.6,1.1-1.3,2.2-1.9,3.3c-3.8,6.2-8.2,12.2-13.2,17.5
		c-4.3,4.5-9.4,8.7-14.8,11.8c-3.2,1.9-8.2,4.3-12.1,4.3c-3.9,0-8.6-2.2-11.9-4.1c-5.4-3.2-10.4-7.4-14.8-11.8
		C68,159,63,152.3,58.9,145.4c-4.6-7.7-8.4-16-11-24.6c-2.2-7.3-3.7-14.8-3.9-22.4l0,0L44,43.2L44.5,43.1z"/>
	<path id="path18" class="st0" d="M46.9,45.7l-0.1,52.7c0.3,7.3,1.3,13.1,3.5,20.2c4.7,15.3,13.9,32.1,25.3,43.4
		c4.2,4.2,9.1,8.3,14.2,11.3c2.8,1.7,7.2,3.5,10.6,3.5c3.2,0,7.7-2.3,10.4-3.9c12.2-7.1,22-19.2,28.8-31.4c2-3.5,3.7-7.2,5.3-10.9
		c2.4-5.6,4.4-11.5,5.8-17.4c1-4,2-10.3,1.8-12.4l-0.7-54.3C116.7,42.8,82,42.3,46.9,45.7z"/>
	<path id="path20" class="st2" d="M55.2,71.1h25.3l17.4,55.2c0.7,2.4,1.8,2,2.5-0.1l17.1-55.1h25.2l-25.4,69.5
		c-3.2,8.8-8.9,12.7-18.5,12.7c-8,0-14.6-3.5-17.5-11.3L55.2,71.1z"/>
	<path id="path24" class="st2" d="M86,169.3v-0.2c0-0.4,0-0.8,0.1-1.2c0.1-0.4,0.2-0.8,0.4-1.1c0.4-0.8,0.9-1.6,1.6-2.4
		c0.1-0.1,0.2-0.2,0.2-0.3l0.1-0.1c0.8-0.9,1.2-1.7,1.2-2.4c0-0.3-0.1-0.5-0.2-0.7c-0.1-0.2-0.3-0.3-0.5-0.3c-0.3,0-0.5,0.1-0.7,0.4
		c-0.1,0.3-0.2,0.7-0.2,1.3v0.2h-2v-0.3c0-1.1,0.3-1.9,0.8-2.5c0.5-0.6,1.2-0.9,2.2-0.9c0.8,0,1.5,0.3,2,0.8
		c0.5,0.5,0.7,1.2,0.7,2.1c0,0.5-0.1,1-0.3,1.5c-0.2,0.5-0.5,0.9-1,1.5c-0.1,0.1-0.3,0.3-0.4,0.5c-0.8,0.8-1.3,1.5-1.5,2h3.2v2
		L86,169.3L86,169.3z"/>
	<path id="path26" class="st2" d="M95,164.2v0.8c0,1.2,0,1.9,0.1,2.2c0.1,0.3,0.3,0.5,0.6,0.5c0.3,0,0.5-0.1,0.6-0.5
		c0.1-0.3,0.1-1.1,0.1-2.2v-0.8v-0.9c0-1.1,0-1.8-0.1-2.1c-0.1-0.3-0.3-0.4-0.6-0.4c-0.3,0-0.5,0.1-0.6,0.5
		c-0.1,0.3-0.1,1.1-0.1,2.2V164.2z M92.9,164.2c0-1.3,0-2.2,0.1-2.7c0.1-0.5,0.2-1,0.4-1.3c0.3-0.4,0.6-0.7,1-0.9
		c0.4-0.2,0.9-0.3,1.5-0.3s1,0.1,1.5,0.3c0.4,0.2,0.8,0.5,1,0.9c0.2,0.3,0.3,0.7,0.4,1.2c0.1,0.5,0.1,1.3,0.1,2.3c0,1.1,0,2,0,2.5
		c0,0.5-0.1,1-0.2,1.3c-0.1,0.5-0.4,1-0.9,1.3c-0.5,0.3-1.1,0.5-1.7,0.5c-0.5,0-1.1-0.1-1.5-0.3c-0.4-0.2-0.8-0.5-1-0.9
		c-0.1-0.3-0.3-0.7-0.3-1.3C93,166.3,92.9,165.5,92.9,164.2z"/>
	<path id="path28" class="st2" d="M101.8,164.2v0.8c0,1.2,0,1.9,0.1,2.2c0.1,0.3,0.3,0.5,0.6,0.5c0.3,0,0.5-0.1,0.6-0.5
		c0.1-0.3,0.1-1.1,0.1-2.2v-0.8v-0.9c0-1.1,0-1.8-0.1-2.1c-0.1-0.3-0.3-0.4-0.6-0.4c-0.3,0-0.5,0.1-0.6,0.5
		c-0.1,0.3-0.1,1.1-0.1,2.2V164.2z M99.7,164.2c0-1.3,0-2.2,0.1-2.7c0.1-0.5,0.2-1,0.4-1.3c0.3-0.4,0.6-0.7,1-0.9
		c0.4-0.2,0.9-0.3,1.5-0.3c0.5,0,1,0.1,1.5,0.3c0.4,0.2,0.7,0.5,1,0.9c0.2,0.3,0.3,0.7,0.4,1.2c0.1,0.5,0.1,1.3,0.1,2.3
		c0,1.1,0,2,0,2.5c0,0.5-0.1,1-0.2,1.3c-0.1,0.5-0.4,1-0.9,1.3c-0.5,0.3-1.1,0.5-1.7,0.5c-0.5,0-1.1-0.1-1.5-0.3
		c-0.4-0.2-0.8-0.5-1-0.9c-0.1-0.3-0.3-0.7-0.3-1.3C99.8,166.3,99.7,165.5,99.7,164.2z"/>
	<path id="path30" class="st2" d="M110,165.4c-0.3,0.1-0.5,0.3-0.7,0.4c-0.2,0.1-0.5,0.1-0.7,0.1c-0.7,0-1.2-0.3-1.6-0.8
		c-0.3-0.5-0.5-1.3-0.5-2.4c0-1.2,0.2-2.2,0.7-2.8s1.2-0.9,2.1-0.9c0.5,0,0.9,0.1,1.2,0.2c0.4,0.1,0.7,0.4,0.9,0.7
		c0.3,0.3,0.5,0.8,0.6,1.3c0.1,0.5,0.2,1.6,0.2,2.9c0,1.2,0,2.1-0.1,2.7c-0.1,0.5-0.1,0.9-0.3,1.3c-0.2,0.5-0.5,0.8-0.9,1.1
		s-1,0.4-1.6,0.4c-0.8,0-1.5-0.2-2-0.7c-0.5-0.5-0.7-1.1-0.7-2h2c0,0.3,0.1,0.5,0.2,0.7c0.1,0.1,0.3,0.3,0.5,0.3
		c0.3,0,0.4-0.1,0.5-0.4s0.1-0.7,0.1-1.3c0-0.2,0-0.3,0-0.4C110,165.6,110,165.5,110,165.4z M110.1,162.4c0-0.6-0.1-1.1-0.2-1.3
		s-0.3-0.4-0.6-0.4c-0.3,0-0.4,0.1-0.5,0.4c-0.1,0.3-0.1,0.7-0.1,1.3c0,0.6,0,1.1,0.1,1.3c0.1,0.3,0.3,0.4,0.5,0.4s0.4-0.1,0.5-0.4
		C110,163.6,110.1,163.1,110.1,162.4z"/>
	<path id="path34" class="st2" d="M92,81.3V71.1h5.2v2h-2.9V75h2.7v2h-2.7v4.3H92z"/>
	<path id="path36" class="st2" d="M96.4,81.3V79h2.2v2.3H96.4z"/>
	<path id="path38" class="st2" d="M103.9,77.4h2.2c0,0.1,0,0.1,0,0.2c0,0.1,0,0.2,0,0.3c0,1.2-0.3,2.1-0.8,2.8
		c-0.5,0.6-1.3,0.9-2.3,0.9c-0.6,0-1.1-0.1-1.6-0.3c-0.4-0.2-0.8-0.5-1.1-1c-0.2-0.3-0.3-0.8-0.4-1.3s-0.1-1.5-0.1-2.7
		c0-1.2,0-2.1,0.1-2.7c0.1-0.5,0.2-1,0.4-1.3c0.3-0.4,0.6-0.8,1.1-1c0.4-0.2,0.9-0.3,1.6-0.3c1,0,1.8,0.3,2.3,0.9
		c0.5,0.6,0.8,1.5,0.8,2.8v0.1h-2.1c0-0.7-0.1-1.2-0.2-1.5c-0.1-0.3-0.4-0.4-0.7-0.4c-0.4,0-0.6,0.2-0.7,0.5
		c-0.1,0.3-0.2,1.2-0.2,2.7v0.2c0,1.6,0.1,2.5,0.2,2.9c0.1,0.4,0.4,0.5,0.7,0.5c0.3,0,0.6-0.1,0.7-0.4c0.1-0.3,0.2-0.7,0.2-1.4V77.4
		z"/>
	<path id="path40" class="st2" d="M107.3,81.3V79h2.2v2.3H107.3z"/>
	<path id="path42" class="st2" d="M58.8,62.4l-3.5-13.7l2.9-0.3l1.5,7.2c0.1,0.3,0.1,0.8,0.2,1.3c0.1,0.5,0.2,1.1,0.3,1.7v-0.2
		c0-1.5,0.1-2.4,0.1-2.9l0.6-7.4l2.9-0.3L62,62.1L58.8,62.4z"/>
	<path id="path44" class="st2" d="M69.7,61.7L69,47.7l2.8-0.1l0.7,13.9L69.7,61.7z"/>
	<path id="path46" class="st2" d="M78.5,61.1l-0.4-13.9l2.8-0.1L81.2,61L78.5,61.1z"/>
	<path id="path48" class="st2" d="M88.6,61l-0.1-11.2h-2.2l0-2.7l7.3,0l0,2.7h-2.3L91.3,61L88.6,61z"/>
	<path id="path50" class="st2" d="M103.7,55.1v-2.5c0-1.6-0.1-2.5-0.3-2.9s-0.5-0.5-0.9-0.5c-0.4,0-0.7,0.2-0.9,0.5
		c-0.2,0.4-0.3,1.3-0.3,2.8v2.5c0,1.5,0.1,2.5,0.3,2.8c0.1,0.4,0.5,0.6,0.9,0.6s0.7-0.2,0.9-0.5C103.6,57.6,103.7,56.7,103.7,55.1z
		 M98.6,53.9c0-1.7,0-2.9,0.1-3.7s0.3-1.4,0.5-1.8c0.3-0.6,0.8-1.1,1.3-1.4c0.5-0.3,1.2-0.4,2-0.4s1.4,0.1,2,0.4
		c0.5,0.3,1,0.8,1.3,1.4c0.3,0.4,0.4,1.1,0.5,1.8c0.1,0.8,0.1,2,0.1,3.7s0,2.9-0.1,3.7c-0.1,0.8-0.3,1.4-0.5,1.8
		c-0.3,0.6-0.8,1.1-1.3,1.4c-0.5,0.3-1.2,0.4-2,0.4s-1.4-0.1-2-0.4c-0.5-0.3-1-0.8-1.3-1.4c-0.2-0.4-0.4-1.1-0.5-1.8
		S98.6,55.6,98.6,53.9z"/>
	<path id="path52" class="st2" d="M115,53.2c0,0,0.1,0,0.2,0c0.1,0,0.1,0,0.2,0c0.6,0,1-0.1,1.2-0.3c0.3-0.3,0.4-0.7,0.4-1.3
		c0-0.6-0.1-1-0.3-1.3c-0.3-0.3-0.6-0.4-1.2-0.4c0,0-0.1,0-0.2,0s-0.1,0-0.2,0L115,53.2z M112.1,61.2l0.4-13.9l3.1,0.2
		c1,0.1,1.7,0.1,2.2,0.3c0.5,0.1,0.8,0.4,1.1,0.6c0.3,0.4,0.6,0.8,0.7,1.2c0.1,0.5,0.2,1.1,0.2,1.7c0,0.8-0.1,1.5-0.4,2
		s-0.7,0.9-1.2,1.3c0.8,0.5,1.3,1.6,1.3,3.2v0c0,0.2,0,0.4,0,0.8c0,1.6,0.2,2.6,0.6,3l-3.2-0.2c-0.1-0.3-0.1-0.6-0.1-0.9
		c0-0.3,0-0.7,0-1c0-0.2,0-0.5,0-0.8c0-0.3,0-0.5,0-0.6c0-0.8,0-1.5-0.2-1.8c-0.2-0.3-0.5-0.5-1-0.5l-0.6,0l-0.1,5.6L112.1,61.2z"/>
	<path id="path54" class="st2" d="M125.8,48l2.8,0.3l-0.4,8.7c-0.1,1.3,0,2.1,0.1,2.5c0.1,0.3,0.4,0.5,0.7,0.5s0.6-0.1,0.8-0.4
		c0.1-0.3,0.3-1.1,0.3-2.4l0.4-8.7l2.7,0.3l-0.4,8.8c0,1-0.1,1.7-0.2,2.3c-0.1,0.5-0.3,0.9-0.4,1.3c-0.3,0.6-0.7,1-1.3,1.3
		c-0.5,0.3-1.2,0.3-2.1,0.3c-0.8-0.1-1.4-0.3-1.9-0.6c-0.5-0.3-0.9-0.8-1.1-1.4c-0.2-0.4-0.3-1-0.4-1.7c0-0.7,0-1.8,0-3.4L125.8,48z
		"/>
	<path id="path56" class="st2" d="M144.5,63.9l-6.1-0.7l1.2-13.9l2.8,0.3l-1,11.1l3.3,0.4L144.5,63.9z"/>
</g>
</svg>
