<?xml version="1.0" encoding="utf-8"?>
<!-- Generator: Adobe Illustrator 21.1.0, SVG Export Plug-In . SVG Version: 6.00 Build 0)  -->
<svg version="1.1" id="Layer_1" xmlns="http://www.w3.org/2000/svg" xmlns:xlink="http://www.w3.org/1999/xlink" x="0px" y="0px"
	 viewBox="0 0 200 200" style="enable-background:new 0 0 200 200;" xml:space="preserve">
<style type="text/css">
	.st0{fill:#00AEEF;}
</style>
<g>
	<path class="st0" d="M43.3,130.4C95.6,108.1,147.8,85.8,200,63.6c-21.7,0-43.3,0-65-0.1c-3.2,4.2-6.5,9-9.5,12.6
		c1.2-4.2,2.5-8.4,3.7-12.6c-2.5,0-4.9,0-7.4-0.1c-2,5.7-5.9,12.9-9.3,18.1c-1.4,2.1-1.6-0.1-1.1-1.8c1.6-5.4,3.3-10.9,4.9-16.3
		c-2.4,0-4.8,0.1-7.2,0.1c-0.7,2.6-1.5,5.2-2.3,7.8L96.6,84.7c2.1-7.1,4.2-14.1,6.3-21.2h-7.5c-1.2,4.2-2.4,8.4-3.7,12.7
		c-2.1,0.5-4.3,1-6.4,1.5c1.4-4.7,2.8-9.5,4.2-14.2c-2.7,0-5.4,0-8.2-0.1c-1.6,5.4-3.2,10.7-4.8,16.1c-5,5.9-9.9,11.7-14.9,17.6
		c-0.5,0.6-1.5,1.2-2.2,1.1c-2.3-0.4-2.1-5.8-1.8-9.6c4.2-1.7,8.7-4.6,12.4-8.3c6.8-6.4,8.2-16.9-0.8-16.9
		c-8.5,0.1-17.4,9.3-20.5,23.9c-2.2,0.9-4.3,1.6-7.1,2.9c-0.5-2.7-1.7-5.6-4.4-8.1c9.4-5.2,20.1-17.6,14.1-25.8
		c-4.6-5.7-18.9-3.6-27.9,7.5c-0.8,2.8-1.5,5.5-2.3,8.3c0.5,0,1,0,1.5,0c9.2-12.8,17.2-10.7,17.3-5.6C40,71,34,79.3,26.1,84.9
		c2.7,2.7,4.5,6.2,5.1,10.6C14.5,103.8,0.4,122.1,0,135.2c0.1,5.6,1.9,11.8,8,11.6c14.2-0.7,35.8-29.8,34.3-51.7
		c2-0.9,3.6-1.7,5.6-2.6c-0.6,4.8,0.3,16.4,9,13.6c6.6-2.2,12.9-12.3,18-19.4c-1.5,4.9-3,9.8-4.5,14.6c3-0.9,6-1.9,8.9-2.8
		c1.5-5.1,3-10.3,4.4-15.4c2.2-0.6,4.5-1.2,6.7-1.8c-1.5,5-3,10-4.5,15c2.7-0.9,5.4-1.8,8.2-2.7c3.4-4.5,6.8-9,10.2-13.5
		c-1.4,7.3,0.7,9.8,4.4,9.5c4.2-0.4,7.6-9,10.4-13.7c-0.7,3.3-1.9,7.2-1.8,9.8c2.1-0.7,4.2-1.4,6.3-2.1c3.7-4.7,7.4-9.4,11-14.1h3.7
		c-1.1,3.4-2.1,6.8-3.2,10.2c2.6-0.8,5.2-1.6,7.7-2.5c0.8-2.6,1.5-5.2,2.3-7.7l24.3,0.1c-41.1,16.8-82.1,33.5-123.2,50.3
		C45.3,123.4,44.3,126.9,43.3,130.4 M65.9,68.8c1.3,0.6,1.1,2.8,0.7,4.3c-0.7,3.2-3.9,7.8-8.3,10.3C59.5,78.3,63.3,67.8,65.9,68.8
		 M19.4,134.2c-6.8,6.5-8.8,2.8-8.7-1.4c0.2-12.7,11.1-25,20.8-31.9C31,112.8,25.4,128.1,19.4,134.2"/>
	<polyline class="st0" points="132.3,109.2 130.1,113.5 133.8,113.5 133.8,127 138.4,127.1 138.4,109.2 	"/>
	<path class="st0" d="M146.9,109.1c-4.3,0-6.7,2.6-6.8,6.1c0,4.1,3.1,6.4,7.2,5.7c-1.4,2.1-2.9,4.1-4.3,6.2h4.9
		c3.4-5,5.8-7.8,5.8-11.7C153.7,111.8,151.3,109.2,146.9,109.1 M146.8,118c-1.5,0-2.7-1.3-2.7-2.9c0-1.5,1.3-2.7,2.9-2.7
		c1.5,0,2.7,1.3,2.7,2.9C149.6,116.8,148.3,118,146.8,118"/>
	<path class="st0" d="M154.7,115.6c0.1-3.4,2-6.4,6.4-6.4c4.5,0,6.9,2,6.9,5.4c0,3.5-2.7,5.6-5.9,8.8c1.9,0,3.8,0,5.6,0
		c0,1.2,0,2.4,0,3.6h-13.6c6.6-8,9.6-11.1,9.6-12.4c0-1.1-1.2-2.2-2.3-2.2c-1.1,0-2.5,0.9-2.5,3.1"/>
	<path class="st0" d="M171.4,109.2c-0.3,3.3-0.7,6.3-1,9.6l0.5,0c2.4-1.4,6.8-0.2,6.8,2.2c0,2-4,3.7-7.7,0.6
		c-0.2,1.3-0.3,2.5-0.5,3.8c1.1,1.4,3.4,1.7,5.4,1.7c4.2-0.1,7.1-3.1,7.1-6.4c0.1-3.1-2.9-6.6-7.6-5.2c0-1,0-1.7,0.1-2.7
		c2.2,0,4.4,0,6.6,0c0-1.2-0.1-2.4-0.1-3.6C177.7,109.2,174.6,109.2,171.4,109.2"/>
</g>
</svg>
