<?xml version="1.0" encoding="utf-8"?>
<!-- Generator: Adobe Illustrator 21.1.0, SVG Export Plug-In . SVG Version: 6.00 Build 0)  -->
<svg version="1.1" id="Layer_1" xmlns="http://www.w3.org/2000/svg" xmlns:xlink="http://www.w3.org/1999/xlink" x="0px" y="0px"
	 viewBox="0 0 200 200" style="enable-background:new 0 0 200 200;" xml:space="preserve">
<style type="text/css">
	.st0{fill:#F5C81E;}
	.st1{fill:#D68D30;}
	.st2{fill:#2C9F4F;}
</style>
<g>
	<path d="M192,122.8c0.8,9.6-4,20.2-9.8,27.4c-4.9,6-10.8,10.7-17.4,14.6c-5.8,3.5-12.1,6.1-18.3,8.6c-2.9,1.2-5.9,2.3-8.9,3.4
		c-4.4,1.6-8.7,3.3-12.9,5.3c-4.8,2.3-9.3,4.9-13.7,7.8c-4.2,2.8-8.4,6.7-11.2,10.1c-2.3-3-6.7-7.2-10.9-10.1c-4.4-3-9-5.6-13.7-7.8
		c-4.2-2-8.6-3.7-12.9-5.3c-3-1.1-5.9-2.2-8.9-3.4c-6.3-2.5-12.5-5.1-18.3-8.6c-6.6-4-12.5-8.6-17.4-14.6
		c-5.8-7.2-10.6-17.9-9.8-27.4c-1-0.4-1.9-1-2.8-1.7c-3-2.3-4.7-5.8-3.1-9.4l7.2-18.7c0.5-1.2,1.9-3.6,2.9-4.4
		c2.1-1.9,5-2.8,7.8-2.5c2.3,0.2,4.4,1,6.3,2.2c1.4,1,2.6,2,3.6,3.2c0.7-2.9,1.4-5.8,2.2-8.7c1.4-5.6,2.3-11.3,2.6-17.1
		c0.9-14-1.8-27-7.7-39.8L25,22.2L45.8,0h108.3l20.8,22.2l-1.8,3.9c-5.9,12.7-8.6,25.7-7.7,39.8c0.4,5.7,1.3,11.5,2.6,17.1
		c0.7,2.9,1.4,5.7,2.2,8.5c1.3-1.5,2.9-2.7,4.5-3.6c1.7-1,3.5-1.5,5.5-1.7c4.7-0.5,8.4,2.3,10.2,6.6L198,112
		c1.5,3.6-0.2,7.1-3.1,9.3C194,121.9,193,122.5,192,122.8L192,122.8z"/>
	<path class="st0" d="M30.7,96.7c0.9-4.7,2-8.6,3.1-13.3c1.4-5.7,2.3-11.5,2.7-17.4c0.9-14.4-1.8-27.7-7.9-40.8l-1.2-2.6L46.6,2
		h106.5l19.3,20.6l-1.2,2.6c-6.1,13-8.8,26.3-7.9,40.8c0.4,5.9,1.3,11.7,2.7,17.4c1.2,4.7,2.3,8.4,3.2,13.2c1.1-2.6,3.5-5.4,6.5-7
		c1.3-0.7,2.9-1.2,4.7-1.4c2.8-0.3,6.3,0.8,8.1,5.3l7.7,19.2c1.2,2.8-0.2,5.3-2.5,6.9c-1.1,0.8-2.4,1.5-3.8,1.6
		c1.6,9.5-3.4,20.6-9.2,27.7c-4.8,5.9-10.4,10.3-16.9,14.1c-5.7,3.5-11.8,6-18.1,8.4c-2.9,1.2-5.9,2.2-8.9,3.4
		c-4.4,1.7-8.8,3.4-13,5.4c-4.9,2.3-9.5,5-14,8c-3.8,2.5-6.8,5.5-10,8.8c-3-3.4-6.1-6.2-9.8-8.8c-4.4-3-9.1-5.7-14-8
		c-4.3-2-8.6-3.7-13-5.4c-3-1.1-5.9-2.2-8.9-3.4c-6.2-2.4-12.3-5-18.1-8.4c-6.5-3.9-12.1-8.3-16.9-14.1c-5.8-7.2-10.8-18.2-9.2-27.7
		c-1.4,0-2.8-0.9-3.8-1.7c-2.3-1.7-3.7-4.3-2.5-7.1L11,93.7c0.5-1.3,1.9-3.3,2.3-3.7c1.7-1.5,4-2.2,6.2-1.9c2.1,0.2,3.9,0.9,5.4,1.9
		C27.6,91.7,29.1,93.9,30.7,96.7L30.7,96.7z"/>
	<path d="M15.8,99.9l4.4-6.4l0.3,0.1c6.1,1.7,6.9,9.4,3.3,13.8l-10.7,13.1c-2.2,8.8,2.8,19.8,8.3,26.6c4.5,5.6,9.9,9.8,16.1,13.5
		c5.6,3.4,11.5,5.8,17.6,8.2c2.9,1.1,5.9,2.2,8.8,3.3c4.5,1.7,8.9,3.4,13.3,5.5c5,2.4,9.8,5.1,14.4,8.2c2.8,1.9,5.7,4.2,8,6.7
		l0.2,0.2l0.2-0.2c0.3-0.3,0.6-0.6,0.8-0.8c2.2-2.2,4.7-4.1,7.2-5.8c4.6-3.1,9.3-5.8,14.4-8.2c4.3-2,8.8-3.8,13.3-5.5
		c2.9-1.1,5.9-2.2,8.8-3.3c6.1-2.4,12-4.8,17.6-8.2c6.2-3.7,11.6-7.9,16.1-13.5c5.5-6.8,10.4-17.8,8.3-26.6l-10.7-13.1
		c-3.6-4.4-2.8-12.1,3.3-13.8l0.3-0.1l4.4,6.4c1.9-1.7,2.6-4.7,1.1-6.9c-1-1.5-2.9-2.1-4.6-1.9c-5.4,0.5-8.1,5-9,10
		c-0.6,3.5-0.3,7-0.9,10.5c-1.2,7.2-4.1,15.1-9.6,20.1c-4.4,4.1-9.1,7.8-14.4,10.7c-4.1,2.2-8.1,3.8-12.5,5.2
		c-5.6,1.9-10.9,3.6-16.3,6.3c-6.6,3.3-11.7,7-16.8,12.2c-0.4,0.5-0.8,0.9-1.3,1.3c-0.4-0.5-0.9-1-1.3-1.5
		c-5-5.2-10.1-8.9-16.6-12.1c-5.3-2.8-10.6-4.4-16.3-6.3c-4.3-1.5-8.5-3-12.5-5.2c-5.3-2.9-10-6.6-14.4-10.7c-5.4-5-8.4-13-9.6-20.1
		c-0.6-3.5-0.3-7-0.9-10.5c-0.8-5-3.6-9.5-9-10c-1.7-0.2-3.6,0.5-4.6,1.9C13.2,95.2,13.9,98.2,15.8,99.9L15.8,99.9z M179.1,96.6
		c-2.7,1-2.9,4.2-2.3,5.1c0.4,0.5,1,1.3,2.3,1.4c1.3,0.1,3-0.5,3.8-1.2L179.1,96.6L179.1,96.6z M178.8,97.8l2.9,4
		c-0.8,0.4-1.8,0.6-2.5,0.6c-0.7-0.1-1.2-0.5-1.6-1.1c-0.2-0.4-0.1-1.4,0-1.8C177.8,98.7,178.2,98.1,178.8,97.8L178.8,97.8z
		 M187.7,98.2l6.5,15.3c0.8,1.8-0.2,3.5-1.8,4.7c-1.4,1.1-3.6,1.4-4.5,0.3l-10.7-13.9c2.3,0.2,4.5-0.2,6.5-1.3
		C185.5,102.3,187,100.5,187.7,98.2L187.7,98.2z M187.7,100.4l5.7,13.5c0.6,1.5-0.3,2.8-1.5,3.7c-0.7,0.5-2.6,1.3-3.3,0.4l-9.6-12.5
		c1.8-0.1,3.6-0.6,5.1-1.5C185.7,103.2,186.9,101.9,187.7,100.4L187.7,100.4z M99.9,194c-0.3-0.3-0.5-0.6-0.8-0.8
		c-0.4-0.4-0.7-0.7-1.1-1.1c-2.1-2-4.5-3.9-6.8-5.5c-4.5-3.1-9.3-5.8-14.2-8.1c-4.3-2-8.7-3.8-13.2-5.4c-2.9-1.1-5.9-2.2-8.8-3.3
		c-6.1-2.4-12.1-4.9-17.7-8.3c-6.3-3.8-11.7-8-16.4-13.7c-5.7-7-10.7-18.3-8.5-27.4l0-0.1l10.8-13.3c3.1-3.8,2.6-10.7-2.6-12.3
		l-4.6,6.7l-0.4-0.3c-2.5-1.9-3.5-5.7-1.7-8.4c1.1-1.8,3.4-2.5,5.4-2.3c5.8,0.6,8.9,5.4,9.8,10.7c0.6,3.5,0.3,7,0.9,10.5
		c1.2,6.9,4,14.7,9.3,19.6c4.3,4.1,9,7.7,14.2,10.5c4,2.2,8.1,3.7,12.4,5.2c5.7,1.9,11,3.6,16.4,6.4c6.6,3.3,11.7,6.9,16.7,12.1
		c0.3,0.3,0.6,0.6,0.9,1c0.3-0.3,0.6-0.6,0.9-1c5-5.2,10.2-8.9,16.7-12.1c5.4-2.8,10.7-4.5,16.4-6.4c4.3-1.4,8.4-3,12.4-5.2
		c5.2-2.9,9.9-6.5,14.2-10.5c5.3-4.9,8.1-12.7,9.3-19.6c0.6-3.5,0.3-7,0.9-10.5c0.9-5.4,3.9-10.2,9.8-10.7c2-0.2,4.3,0.6,5.4,2.3
		c1.8,2.8,0.9,6.5-1.7,8.4l-0.4,0.3l-4.6-6.7c-5.2,1.7-5.7,8.5-2.6,12.3l10.8,13.3l0,0.1c2.3,9.1-2.8,20.4-8.5,27.4
		c-4.7,5.7-10.2,9.9-16.5,13.7c-5.7,3.4-11.6,5.9-17.7,8.3c-2.9,1.1-5.9,2.2-8.8,3.3c-4.5,1.7-8.9,3.4-13.2,5.4
		c-5,2.4-9.7,5-14.2,8.1c-2.4,1.6-4.8,3.5-6.8,5.5c-0.4,0.4-0.7,0.7-1.1,1.1C100.5,193.4,100.2,193.7,99.9,194L99.9,194z M20.8,96.6
		c2.7,1,2.9,4.2,2.3,5.1c-0.4,0.5-1,1.3-2.3,1.4c-1.3,0.1-3-0.5-3.8-1.2L20.8,96.6L20.8,96.6z M21,97.8l-2.9,4
		c0.8,0.4,1.8,0.6,2.5,0.6c0.7-0.1,1.2-0.5,1.6-1.1c0.2-0.4,0.1-1.4,0-1.8C22.1,98.7,21.7,98.1,21,97.8L21,97.8z M12.1,98.2
		l-6.5,15.3c-0.8,1.8,0.2,3.5,1.8,4.7c1.4,1.1,3.6,1.4,4.5,0.3l10.7-13.9c-2.3,0.2-4.5-0.2-6.5-1.3C14.4,102.3,12.9,100.5,12.1,98.2
		L12.1,98.2z M12.2,100.4l-5.7,13.5c-0.6,1.5,0.3,2.8,1.5,3.7c0.7,0.5,2.6,1.3,3.3,0.4l9.6-12.5c-1.8-0.1-3.6-0.6-5.1-1.5
		C14.2,103.2,13,101.9,12.2,100.4L12.2,100.4z"/>
	<path d="M30.8,23.2L47.9,5h104L169,23.2c-7.8,16.4-9.3,30.5-8.6,43c1.3,20,7.5,28.1,7.1,41.7c-0.3,9.8-5,17.5-12.1,23.6
		c-5.6,4.8-11.9,8.4-18.6,11.1c-4.5,1.9-9.4,3.1-14,4.9c-9,3.7-17.1,8-23,15.5c-5.7-7.1-14-11.8-23-15.5c-4.6-1.9-9.4-3-14-4.9
		c-6.7-2.8-12.9-6.4-18.6-11.1c-7.2-6.1-11.8-13.8-12.1-23.6c-0.4-13.6,5.8-21.7,7.1-41.7C40.2,53.7,38.7,39.6,30.8,23.2L30.8,23.2z
		 M115.8,24.3v34.2l-15.5-15.5L84,59.4V24.3H58.1v114.4c1.8,0.9,3.6,1.7,5.5,2.5c4.5,1.9,9.4,3.1,14,4.9c2.2,0.9,4.4,1.9,6.5,2.9
		v-41.9l16.3,16.3l15.5-15.5v41c2.1-1,4.3-2,6.5-2.9c4.6-1.9,9.4-3,14-4.9c1.8-0.8,3.7-1.6,5.5-2.5V24.3H115.8L115.8,24.3z
		 M33.1,22.9h133.7L151.3,6.4H48.5L33.1,22.9L33.1,22.9z"/>
	<path d="M84.1,79.3l-3.2-1.1v-8.8c-1.2,0.9-2.6,1.6-4.2,2v-2.4c2.2-0.6,3.9-1.9,4.7-3.8h2.6V79.3L84.1,79.3z"/>
	<path d="M88.1,76.2l2.9-0.4c0.1,0.6,0.2,1.1,0.6,1.4c0.3,0.3,0.7,0.5,1.2,0.5c0.6,0,1.2-0.3,1.6-0.9c0.5-0.6,0.7-1.9,0.8-3.9
		c-0.8,1-1.7,1.4-2.9,1.4c-1.2,0-2.3-0.5-3.2-1.6s-1.3-2.4-1.3-4.1c0-1.7,0.5-3.1,1.4-4.2c1-1.1,2.2-1.6,3.6-1.6
		c1.6,0,2.9,0.7,3.9,2c1,1.3,1.6,3.5,1.6,6.6c0,3.1-0.5,5.4-1.6,6.8c-1.1,1.4-2.5,2.1-4.2,2.1c-1.2,0-2.2-0.4-3-1.1
		C88.8,78.6,88.3,77.6,88.1,76.2L88.1,76.2z M95,69c0-1.1-0.2-1.9-0.7-2.5c-0.5-0.6-1-0.9-1.6-0.9s-1,0.2-1.4,0.7
		c-0.4,0.5-0.6,1.3-0.6,2.4s0.2,1.9,0.6,2.4s0.9,0.8,1.5,0.8s1.1-0.2,1.5-0.7C94.8,70.7,95,70,95,69L95,69z"/>
	<path d="M104.9,63c1.6,0,2.8,0.6,3.6,1.8c1,1.4,1.6,3.7,1.6,6.9s-0.5,5.5-1.6,6.9c-0.8,1.2-2,1.7-3.6,1.7c-1.6,0-2.8-0.6-3.7-1.9
		c-1-1.3-1.4-3.6-1.4-6.8c0-3.2,0.5-5.5,1.6-6.9C102.2,63.6,103.4,63,104.9,63L104.9,63z M104.9,65.7c-0.4,0-0.7,0.1-1,0.4
		c-0.3,0.2-0.5,0.7-0.7,1.4c-0.2,0.8-0.3,2.3-0.3,4.3s0.1,3.4,0.3,4.1c0.2,0.7,0.4,1.2,0.7,1.5c0.3,0.2,0.6,0.4,1,0.4
		c0.4,0,0.7-0.1,1-0.4c0.3-0.2,0.5-0.7,0.7-1.3c0.2-0.8,0.3-2.3,0.3-4.3s-0.1-3.4-0.3-4.1c-0.2-0.7-0.4-1.2-0.7-1.5
		C105.6,65.8,105.3,65.7,104.9,65.7L104.9,65.7z"/>
	<path d="M118.1,78.3v-2.7h-6.8v-2.3l7.2-8.5h2.7v8.5h2v2.3h-2v2.7L118.1,78.3L118.1,78.3z M118.1,73.3v-4.6l-3.8,4.6H118.1
		L118.1,73.3z"/>
	<path class="st1" d="M74.4,48.8c-2.8,2.7-5.9,7.1-6.8,10.9C66.4,65,66.8,70,68.2,75c2.1,7.4,5.2,12.3,10.7,17.6
		c3.2,3.1,9.5,5.7,13.9,6.1c1.2,0.1,2.4,0.1,3.6,0.2c1.4,0,1.8,0.2,2.8,0.2l0.2,0.9c-1.6-0.2-3.6-0.4-5.4-0.5c-0.5,0-0.9,0-1.4-0.1
		c-4.5-0.4-11.1-3.2-14.4-6.4c-5.5-5.4-8.5-10.2-10.5-17.7c-1.4-5.2-1.9-10.4-0.6-15.7c1-3.9,4-8.3,6.9-11l0.2-0.2l0.4,0.1
		L74.4,48.8L74.4,48.8z"/>
	<path class="st1" d="M125.1,48.8c2.8,2.7,5.9,7.1,6.8,10.9c1.3,5.2,0.8,10.2-0.6,15.3c-2.1,7.4-5.2,12.3-10.7,17.6
		c-3.2,3.1-9.5,5.7-13.9,6.1c-1.2,0.1-2.4,0.1-3.6,0.2c-1.4,0-1.8,0.2-2.8,0.2l-0.2,0.9c1.6-0.2,3.6-0.4,5.4-0.5
		c0.5,0,0.9,0,1.4-0.1c4.5-0.4,11.1-3.2,14.4-6.4c5.5-5.4,8.5-10.2,10.5-17.7c1.4-5.2,1.9-10.4,0.6-15.7c-1-3.9-4-8.3-6.9-11
		l-0.2-0.2l-0.4,0.1L125.1,48.8L125.1,48.8z"/>
	<path class="st2" d="M96.6,99c-3-8.4-8.2-13.4-11.1-13c3.4,3.8,1.4,7.2,3.6,10C90.7,98.2,93.2,98.9,96.6,99L96.6,99z"/>
	<path class="st2" d="M83.9,96c0.5-3.2-0.3-7.5-1.8-9.9c-1.3-2.1-3.8-3.7-5.7-5.3c-0.7,3.8-0.4,7.3,1.2,10.1
		C78.8,93,81.1,94.8,83.9,96L83.9,96z"/>
	<path class="st2" d="M73.9,49.1c1.4,0,2.6-0.3,3.9-1.1c1.1-0.7,1.9-1.7,2.4-3c-1.2,0.1-3,0.6-3.8,1.2
		C75.5,46.9,74.5,47.7,73.9,49.1L73.9,49.1z"/>
	<path class="st2" d="M69.7,54c0.8-1.2,0.4-2,0.6-3.6c0.1-0.9,0-2,0.8-4.3c-0.7,0.7-2.6,2.1-3.1,3.8C67.6,50.9,67.7,52.8,69.7,54
		L69.7,54z"/>
	<path class="st2" d="M66.5,62.8c-1.1-1-1.7-1.9-1.5-3.7c0.2-2.1-1.1-3.6-1.5-5.5c-1.3,1.7-1.1,4.1-1,5.4
		C62.8,60.9,64.9,63.3,66.5,62.8L66.5,62.8z"/>
	<path class="st2" d="M68.5,57.1c1.2,0.6,1.9,0.8,3.3-0.1c1.1-0.7,2.5-3.1,2.2-5.9c-0.9,1.3-1.5,2.3-3,3.2
		C70.1,54.9,69.3,55.4,68.5,57.1L68.5,57.1z"/>
	<path class="st2" d="M73.4,87.3c-1.9-2.3-3.8-4.6-6-6.2c-2.2-1.6-4.4-3.1-6.6-3.6c1.6,2.4,3,6.8,5.9,8.7
		C68.7,87.5,71.6,87.9,73.4,87.3L73.4,87.3z"/>
	<path class="st2" d="M97.6,99.8c-1.4-0.8-3.2,0-4.7,1.2c-1.1,0.9-2,2-3,3c2.2,0.6,6.4,0.5,7.9-1C98.5,102.3,99.2,100.7,97.6,99.8
		L97.6,99.8z"/>
	<path class="st2" d="M68.7,77c0.8-1.6,0.7-3.7,0.6-5.8c-0.2-3.1-0.6-6.2,1.6-8c0.9,2.8,2.6,5.2,2.4,8C73,73.7,70.3,76.6,68.7,77
		L68.7,77z"/>
	<path class="st2" d="M68.2,76.9c-1.4-1.8-1.7-3.8-2-6.2c-0.3-2.5-1.9-5.2-4.1-6.1c-0.3,3-0.3,5.5,0.8,8.2
		C63.9,75.1,65.8,76.8,68.2,76.9L68.2,76.9z"/>
	<path class="st2" d="M85.4,97.4c-3.1,0.1-5.9-1.3-7.6-3c-1.7-1.8-5.3-2.9-7.5-2.3c1.3,3.1,2.6,7.1,6.9,8.3
		C80.8,101.4,84,99.2,85.4,97.4L85.4,97.4z"/>
	<path class="st2" d="M102.9,99c3-8.4,8.2-13.4,11.1-13c-3.4,3.8-1.4,7.2-3.6,10C108.8,98.2,106.4,98.9,102.9,99L102.9,99z"/>
	<path class="st2" d="M115.6,96c-0.5-3.2,0.3-7.5,1.8-9.9c1.3-2.1,3.8-3.7,5.7-5.3c0.7,3.8,0.4,7.3-1.2,10.1
		C120.7,93,118.4,94.8,115.6,96L115.6,96z"/>
	<path class="st2" d="M125.6,49.1c-1.4,0-2.6-0.3-3.9-1.1c-1.1-0.7-1.9-1.7-2.4-3c1.2,0.1,3,0.6,3.8,1.2
		C124.1,46.9,125,47.7,125.6,49.1L125.6,49.1z"/>
	<path class="st2" d="M129.9,54c-0.8-1.2-0.4-2-0.6-3.6c-0.1-0.9,0-2-0.8-4.3c0.7,0.7,2.6,2.1,3.1,3.8C132,50.9,131.8,52.8,129.9,54
		L129.9,54z"/>
	<path class="st2" d="M133,62.8c1.1-1,1.7-1.9,1.5-3.7c-0.2-2.1,1.1-3.6,1.5-5.5c1.3,1.7,1.1,4.1,1,5.4
		C136.8,60.9,134.7,63.3,133,62.8L133,62.8z"/>
	<path class="st2" d="M131,57.1c-1.2,0.6-1.9,0.8-3.3-0.1c-1.1-0.7-2.5-3.1-2.2-5.9c0.9,1.3,1.5,2.3,3,3.2
		C129.4,54.9,130.2,55.4,131,57.1L131,57.1z"/>
	<path class="st2" d="M126.1,87.3c1.9-2.3,3.8-4.6,6-6.2c2.2-1.6,4.4-3.1,6.6-3.6c-1.6,2.4-3,6.8-5.9,8.7
		C130.8,87.5,127.9,87.9,126.1,87.3L126.1,87.3z"/>
	<path class="st2" d="M101.9,99.8c1.4-0.8,3.2,0,4.7,1.2c1.1,0.9,2,2,3,3c-2.2,0.6-6.4,0.5-7.9-1C101,102.3,100.3,100.7,101.9,99.8
		L101.9,99.8z"/>
	<path class="st2" d="M130.8,77c-0.8-1.6-0.7-3.7-0.6-5.8c0.2-3.1,0.6-6.2-1.6-8c-0.9,2.8-2.6,5.2-2.4,8
		C126.5,73.7,129.2,76.6,130.8,77L130.8,77z"/>
	<path class="st2" d="M131.3,76.9c1.4-1.8,1.7-3.8,2-6.2c0.3-2.5,1.9-5.2,4.1-6.1c0.3,3,0.3,5.5-0.8,8.2
		C135.7,75.1,133.7,76.8,131.3,76.9L131.3,76.9z"/>
	<path class="st2" d="M114.2,97.4c3.1,0.1,5.9-1.3,7.6-3c1.7-1.8,5.3-2.9,7.5-2.3c-1.3,3.1-2.6,7.1-6.9,8.3
		C118.7,101.4,115.6,99.2,114.2,97.4L114.2,97.4z"/>
	<path d="M82.8,18.4h-4.9l-1.1,2.8h-3.4l5.4-12.8h3.2l5.5,12.8H84L82.8,18.4L82.8,18.4z M81.7,15.8l-1.4-3.5l-1.4,3.5H81.7
		L81.7,15.8z M89.1,21.2v-2.9h3.1v2.9H89.1L89.1,21.2z M99.7,11l4,3.5l-4.4,4.1h6.2v2.6H95.3v-2.7l4.3-4L95.5,11V8.4h9.7V11H99.7
		L99.7,11z M108.6,21.2v-2.9h3.1v2.9H108.6L108.6,21.2z M122.8,18.4h-4.9l-1.1,2.8h-3.4l5.4-12.8h3.2l5.5,12.8H124L122.8,18.4
		L122.8,18.4z M121.7,15.8l-1.4-3.5l-1.4,3.5H121.7L121.7,15.8z M128.9,21.2v-2.9h3.1v2.9H128.9L128.9,21.2z"/>
	<polygon points="110.1,181 107.4,170.6 109.1,169.4 110.3,174 111.6,167.7 114.2,166.1 112.6,171.7 117.5,175.7 115.7,177 
		112,173.8 111.1,177.1 111.7,179.8 	"/>
	<path d="M127.2,170.2l-1.9,1.1l-1.6-1.8l-3.5,1.9l0.1,2.6l-1.8,1l-0.1-11.3l1.8-1L127.2,170.2L127.2,170.2z M122.6,168.2l-2.5-2.9
		l0.1,4.3L122.6,168.2L122.6,168.2z"/>
	<path d="M128.1,169.7l-3.4-9.5l2.9-1.4c1.1-0.5,1.9-0.8,2.2-0.9c0.6-0.1,1.1,0,1.6,0.3c0.5,0.3,0.9,0.8,1.2,1.6
		c0.2,0.6,0.3,1.1,0.2,1.6c-0.1,0.5-0.2,0.9-0.5,1.3c-0.2,0.4-0.5,0.7-0.8,0.9c-0.4,0.3-1,0.6-1.9,1l-1.2,0.6l1.3,3.6L128.1,169.7
		L128.1,169.7z M127.2,161l1,2.7l1-0.5c0.7-0.4,1.2-0.6,1.4-0.8s0.4-0.5,0.4-0.7s0-0.6,0-0.8c-0.1-0.4-0.3-0.6-0.6-0.7
		c-0.3-0.1-0.6-0.2-0.9-0.1c-0.2,0.1-0.7,0.2-1.3,0.6L127.2,161L127.2,161z"/>
	<path d="M145,162.2l-9.6,4.1l0-10.5l2-0.9L145,162.2L145,162.2z M141.7,161.9l-4.3-4.4l0.1,6.2L141.7,161.9L141.7,161.9z"/>
	<polygon points="146.9,161.3 142.1,152.6 143.9,151.8 148.8,160.5 	"/>
	<polygon points="153.7,158 149.3,150.8 146.8,152.3 145.9,150.8 152.8,146.9 153.7,148.4 151.1,149.9 155.4,156.9 	"/>
	<polygon points="154.5,145.7 159.7,141.2 160.7,142.7 157.3,145.5 160.9,146.5 160.7,151.4 164.4,148.3 165.4,149.7 159.8,154.3 
		158.8,152.7 159,148.2 155.4,147.2 	"/>
	<path d="M174.3,141.1l-1.7,1.6l-2-1.1l-3,2.9l0.7,2.4l-1.6,1.6l-2.9-10.6l1.6-1.6L174.3,141.1L174.3,141.1z M169.2,140.7l-3.2-1.9
		l1.1,3.9L169.2,140.7L169.2,140.7z"/>
	<polygon points="168.7,131.8 172.8,126.2 173.9,127.6 171.3,131.2 174.8,131.5 175.5,136.7 178.4,132.7 179.5,134.1 175.2,140 
		174,138.5 173.4,133.6 169.9,133.3 	"/>
	<path d="M19.5,131.4l-1-1.9l1.2-2.4l-1.8-3.5l-1.9,0.9l-1-1.9l8.7-3.9l1,1.9L19.5,131.4L19.5,131.4z M20.6,125.3l1.9-3.9l-3.2,1.5
		L20.6,125.3L20.6,125.3z"/>
	<polygon points="21,133.4 27.2,125.4 28.3,127 26.3,135.7 30.5,130.4 31.4,131.9 25.2,139.9 24.1,138.2 26.1,129.7 22,134.9 	"/>
	<path d="M33.5,148.3l-1.5-1.5l0.7-2.4l-2.8-2.8l-1.9,1.2l-1.5-1.5l8.5-5l1.5,1.5L33.5,148.3L33.5,148.3z M33.1,142.7l1.2-3.8
		l-3.1,1.9L33.1,142.7L33.1,142.7z"/>
	<polygon points="40.5,141.7 45.6,145.5 44.6,146.8 41.1,144.1 36.2,151 34.8,149.8 	"/>
	<polygon points="41,154.3 47.2,146.4 53.3,149.6 52.3,151 47.9,148.7 46.5,150.4 50.6,152.5 49.5,153.9 45.5,151.7 43.8,153.9 
		48.3,156.3 47.3,157.6 	"/>
	<polygon points="49.7,158.8 54.9,150.3 56.7,151.1 56.9,158.5 60.4,152.8 62.1,153.6 56.8,162 55,161.2 54.8,154 51.4,159.5 	"/>
	<polygon points="59.1,163 64.6,154.7 66.4,155.5 66.4,162.7 70.1,157.1 71.8,157.9 66.3,166.1 64.5,165.3 64.4,158.3 60.8,163.7 	
		"/>
	<polygon points="68.9,167.6 74.4,159.3 76.2,160.1 74,163.4 77.5,165.1 79.7,161.8 81.5,162.7 76,171 74.2,170.2 76.6,166.5 
		73.1,164.8 70.7,168.4 	"/>
	<polygon points="83.6,164 89.6,167.3 88.6,168.6 84.8,166.5 85.4,170.2 81.1,171.8 85.3,174.1 84.4,175.5 78.1,172 79.1,170.5 
		83.2,169 82.6,165.4 	"/>
	<polygon points="87.3,177.3 91.5,168.5 93.1,169.7 91.4,173.2 94.6,175.6 96.2,172.1 97.8,173.3 93.6,182.1 92,180.9 93.8,177 
		90.7,174.7 88.9,178.5 	"/>
	<path class="st1" d="M113.4,102.8c-0.6-1.3-2.8-3.6-3.9-4.1c-0.4,0.1-0.4,0.2-0.7,0.4c1.6,0.7,3.4,2.3,4.3,3.9
		C113.3,102.8,113.2,102.8,113.4,102.8L113.4,102.8z"/>
	<path class="st1" d="M127.2,77.8c0.6,1.4,1,5.7,0.6,6.8c-0.3,0.2-0.4,0.5-0.7,0.6c0.5-1.6,0.3-5.2-0.1-7
		C127.1,78.2,126.9,77.9,127.2,77.8L127.2,77.8z"/>
	<path class="st1" d="M131.4,62.7c0.5,0.5,1.1,1.7,1.6,2.9l0,1.4c-0.5-1.4-1.1-2.8-1.7-3.7C131.4,63,131.2,62.8,131.4,62.7
		L131.4,62.7z"/>
	<path d="M125.6,76.1c-0.9,0-1.7,0.7-1.7,1.7c0,0.9,0.7,1.7,1.7,1.7c0.9,0,1.7-0.7,1.7-1.7C127.3,76.9,126.5,76.1,125.6,76.1
		L125.6,76.1z"/>
	<path d="M131,61.7c-0.8,0-1.4,0.6-1.4,1.4c0,0.8,0.6,1.4,1.4,1.4s1.4-0.6,1.4-1.4C132.3,62.3,131.7,61.7,131,61.7L131,61.7z"/>
	<path d="M113.4,101.8c-0.9,0-1.7,0.7-1.7,1.7s0.7,1.7,1.7,1.7s1.7-0.7,1.7-1.7C115,102.5,114.3,101.8,113.4,101.8L113.4,101.8z"/>
	<path class="st1" d="M86.2,102.8c0.6-1.3,2.8-3.6,3.9-4.1c0.4,0.1,0.4,0.2,0.7,0.4c-1.6,0.7-3.4,2.3-4.3,3.9
		C86.3,102.8,86.4,102.8,86.2,102.8L86.2,102.8z"/>
	<path class="st1" d="M72.4,77.8c-0.6,1.4-1,5.7-0.6,6.8c0.3,0.2,0.4,0.5,0.7,0.6c-0.5-1.6-0.3-5.2,0.1-7
		C72.4,78.2,72.6,77.9,72.4,77.8L72.4,77.8z"/>
	<path class="st1" d="M68.2,62.7c-0.5,0.5-1.1,1.7-1.6,2.9l0,1.4c0.5-1.4,1.1-2.8,1.7-3.7C68.1,63,68.4,62.8,68.2,62.7L68.2,62.7z"
		/>
	<path d="M74,76.1c0.9,0,1.7,0.7,1.7,1.7c0,0.9-0.7,1.7-1.7,1.7c-0.9,0-1.7-0.7-1.7-1.7S73.1,76.1,74,76.1L74,76.1z"/>
	<path d="M68.6,61.7c0.8,0,1.4,0.6,1.4,1.4c0,0.8-0.6,1.4-1.4,1.4c-0.8,0-1.4-0.6-1.4-1.4C67.2,62.3,67.8,61.7,68.6,61.7L68.6,61.7z
		"/>
	<path d="M86.2,101.8c0.9,0,1.7,0.7,1.7,1.7s-0.7,1.7-1.7,1.7c-0.9,0-1.7-0.7-1.7-1.7C84.6,102.5,85.3,101.8,86.2,101.8L86.2,101.8z
		"/>
</g>
</svg>
