<?xml version="1.0" encoding="utf-8"?>
<!-- Generator: Adobe Illustrator 21.1.0, SVG Export Plug-In . SVG Version: 6.00 Build 0)  -->
<svg version="1.1" id="Layer_1" xmlns="http://www.w3.org/2000/svg" xmlns:xlink="http://www.w3.org/1999/xlink" x="0px" y="0px"
	 viewBox="0 0 200 200" style="enable-background:new 0 0 200 200;" xml:space="preserve">
<style type="text/css">
	.st0{fill:#3E4549;}
	.st1{fill:#FFFFFF;}
	.st2{fill:#454545;}
	.st3{fill:#E20025;}
	.st4{fill:#163962;}
	.st5{fill:#FFED00;}
	.st6{fill:#39A642;}
</style>
<g>
	<path class="st0" d="M100,200c55.1,0,100-44.9,100-100C200,44.9,155.1,0,100,0C44.9,0,0,44.9,0,100C0,155.1,44.9,200,100,200
		L100,200z"/>
	<path class="st1" d="M100,197c53.4,0,97-43.6,97-97c0-53.4-43.5-96.9-97-96.9C46.6,3.1,3.1,46.6,3.1,100S46.6,197,100,197L100,197z
		"/>
	<path class="st2" d="M100,165.9c36.3,0,65.9-29.6,65.9-65.9c0-36.3-29.6-65.9-65.9-65.9c-36.3,0-65.8,29.6-65.8,65.9
		C34.1,136.3,63.7,165.9,100,165.9L100,165.9z"/>
	<path class="st3" d="M44.5,70.8c10.3-19.5,30.7-33,54.1-33.6C91.6,46.6,83,54.9,73.1,61c-6,3.6-12.3,6.5-19.1,8.2
		C50.9,70,47.7,70.5,44.5,70.8L44.5,70.8z"/>
	<path class="st3" d="M90.9,162.2c-30.3-4.4-53.7-30.6-53.7-62.2c0-8.6,1.8-16.9,4.9-24.4c0.1,1.5,0.2,3,0.3,4.4
		c1.6,15.4,7.2,31.3,15.8,45.7C66.7,139.8,77.9,152.4,90.9,162.2L90.9,162.2z"/>
	<path class="st3" d="M157.9,75.6c3.2,7.5,4.9,15.8,4.9,24.4c0,31.5-23.4,57.7-53.7,62.2c13-9.7,24.3-22.4,32.7-36.4
		c8.7-14.6,14.4-30.7,15.8-46.3C157.7,78.2,157.8,76.9,157.9,75.6L157.9,75.6z"/>
	<path class="st3" d="M101.4,37.2c23.5,0.5,43.8,14,54.2,33.6c-2.7-0.2-5.3-0.7-8-1.2c-7.3-1.6-14.3-4.6-20.7-8.5
		C117,54.9,108.4,46.6,101.4,37.2L101.4,37.2z"/>
	<path class="st4" d="M52.8,71h94.4c-7.5-1.7-14.5-4.7-21.1-8.7C116,56,107.1,47.4,100,37.8C92.9,47.4,84.1,56,73.9,62.3
		C67.4,66.3,60.3,69.3,52.8,71L52.8,71z"/>
	<path class="st4" d="M67.8,106.2H50.4c2.5,6.4,5.6,12.7,9.2,18.8c8.7,14.6,20.6,27.8,34.4,37.5c0.9,0.1,1.8,0.2,2.7,0.2
		c0.5-3,0.2-16.9,0.2-17.6c-0.6-0.7-1.2-1.1-2-1.4c-0.8-0.3-1.7-0.4-2.9-0.4c-1.1,0-2,0.1-2.9,0.3c-0.9,0.2-1.8,0.4-2.9,0.8
		c-1,0.3-1.8,0.6-2.7,0.6c-0.9,0-1.8-0.3-2.8-1.3c-0.2-0.2-0.3-0.3-0.5-0.5c-0.7-0.7-1.5-1.5-2.3-1.5c-1,0-2-0.1-2.8-0.3
		c-0.8-0.2-1.6-0.7-2.3-1.3c-1.5-1.4-1.5-3.3-1.4-4.9c0-0.7,0-1.2-0.1-1.5c-0.2-0.4-0.8-0.9-1.6-1.4c-0.9-0.5-1.9-1-2.6-1.4
		c-1.4-0.6-2.3-1.7-2.8-2.9c-0.5-1.2-0.6-2.6-0.6-3.9c0-0.6,0-1.1-0.1-1.6c-0.1-0.4-0.2-0.7-0.3-0.9l0,0c-0.4-0.5-0.9-1-1.2-1.7
		c-0.4-0.7-0.6-1.5-0.6-2.4c0-0.8,0.2-1.6,0.7-2.1c0.5-0.7,1.2-1,1.9-1c1.6-0.1,3.1,1.4,4,2.4c0.1,0.1,0.2,0.2,0.2,0.2
		c0.4,0.5,1,1,1.5,1.4c0.5,0.4,1.1,0.7,1.6,0.8c1.1,0.2,1.9,0.2,2.6,0.2c0,0,0.1,0,0.1,0c1.3,0,2.2,0.1,3,0.6
		c0.8,0.5,1.3,1.2,1.9,2.4c0.6,1.2,1.1,1.2,2,1.2c0.3,0,0.6,0,1,0c2,0.1,2.5,1,3.3,2.5c0.1,0.2,0.2,0.5,0.4,0.7
		c0.3,0.6,0.6,1,0.9,1.4c0.3,0.3,0.5,0.5,0.7,0.7c0.3,0.2,0.7,0.2,1,0.3c0.6,0.1,1.3,0.3,2.5,1c0.7,0.4,1.1,1.1,1.5,1.8
		c0.3,0.7,0.5,1.4,0.7,2.2c0.3,1.5,0.6,2.8,1.1,3.8c0.5,1,1.3,1.7,2.7,2.2c0-0.2,0-0.3,0-0.5c0.2-4.7,0.3-7.6,0.1-9.6
		c-0.2-1.8-0.7-2.7-1.6-3.3c-2.9-2-5.8-4-8.6-5.8c-2.7-1.7-5.2-3.2-7.1-4.2c-0.3-0.1-0.7-0.1-1.1-0.2c-0.4,0-0.8,0-1.2-0.1
		c-0.2,0-0.2,0-0.4,0c-1.8,0-3.5-0.1-5.4-1.4c-1.1-0.8-1.9-1.7-2.4-2.7c-0.4-1-0.4-2,0.1-3c0.1-0.2,0.2-0.3,0.2-0.4
		c0.2-0.4,0.3-0.5,0-0.8c-0.5-0.5-1-1.1-1.4-1.8C67.9,106.4,67.8,106.3,67.8,106.2L67.8,106.2z"/>
	<path class="st4" d="M92.9,106.2H76.5c0.4,0.5,1,0.7,1.6,0.8c0.6,0.1,1.3,0.3,2,0.7c0.5,0.3,1,0.7,1.4,1.3c0.4,0.6,0.7,1.3,0.9,2.1
		c0.1,0.3,0.1,0.5,0.1,0.7c0.1,0.7,0.2,1.1,1.1,1.8c3.1,2.3,6.1,4.2,8.8,6c2,1.2,3.8,2.4,5.3,3.6l0,0c0,0,0.1,0,0.1,0
		c0-0.3,0-0.8-0.1-1.2c-0.1-0.6-0.2-1.2-0.3-1.7c-2.3-2.8-3.8-4.7-4.7-6.4c-0.9-1.8-1.2-3.3-1-5.1c0.1-0.7,0.3-1.5,0.7-2.1
		C92.6,106.5,92.8,106.3,92.9,106.2L92.9,106.2z"/>
	<path class="st4" d="M125.7,106.2h-19c-0.3,0.3-0.6,0.7-0.8,1c0.6,0.7,1.1,1.4,1.4,2.1c0.4,0.9,0.6,1.7,0.6,2.6
		c0,1.7-0.8,3.3-1.9,4.6c-1,1.3-2.2,2.4-3.3,3.3c-0.1,0.5-0.2,1.1-0.2,1.6c0,0.6,0.1,1.2,0.2,1.6c0,0,0.1,0,0.1,0.1c0,0,0.1,0,0.1,0
		c0,0,0,0,0.1,0h0c0.4-0.2,1.1-0.7,1.9-1.1c3.8-2.1,8.4-4.7,12.8-7.9c0.4-0.3,0.7-0.6,0.8-1c0.2-0.4,0.2-0.9,0.2-1.4
		c0-0.9,0.3-1.6,0.7-2.3c0.5-0.8,1.1-1.4,1.7-1.7c0.8-0.5,1.7-0.5,2.6-0.4c0.7,0,1.5,0,1.8-0.4C125.5,106.6,125.6,106.4,125.7,106.2
		L125.7,106.2z"/>
	<path class="st4" d="M103,162.7c1-0.1,2-0.1,3.1-0.2c13.8-9.7,25.7-22.9,34.4-37.5c3.6-6,6.7-12.4,9.2-18.8h-15.5
		c-0.2,0.3-0.3,0.7-0.5,0.9c-0.3,0.5-0.7,1-1.1,1.4c-0.6,0.7-0.7,1.8-0.7,2.8c0,1.9,0,3.8-3.1,5c-1.1,0.4-1.9,0.6-2.7,0.7
		c-0.8,0.2-1.5,0.2-2.5,0.2c-0.7,0-1.3,0.1-1.9,0.2c-0.6,0.1-1.1,0.2-1.6,0.6c-1.1,0.7-2.5,1.5-3.9,2.3c-4,2.3-8.8,5.1-11,7
		c-0.9,0.7-1.4,1.6-1.8,3.3c-0.3,1.8-0.4,4.6-0.3,9.2c0,0.6,0,0.7,0,0.7c0.1,0,0.4-0.2,0.8-0.3c0.7-0.4,1.6-1,2.3-1.6
		c0.6-0.6,1.1-1.1,1.1-1.3c0-0.2,0.1-0.5,0.2-0.9c0.4-2,1-4.9,2.6-5.9c0.8-0.5,1.6-0.7,2.5-0.8c0.6-0.1,1.1-0.2,1.6-0.3
		c0.2-0.1,0.4-0.6,0.7-1.3c0.6-1.6,1.3-3.4,3.8-3.5c0.3,0,0.6,0,0.9,0c1.2,0,2.1,0,2.8-1.3c0.6-1.2,1.1-1.9,1.8-2.4
		c0.7-0.5,1.6-0.6,2.9-0.6c0.1,0,0.2,0,0.3,0c0.9,0,2.8,0.1,3.7-0.1c0.7-0.2,0.9-0.4,1.3-0.8c0.2-0.2,0.4-0.4,0.7-0.7
		c0.1-0.1,0.2-0.2,0.4-0.4c0.8-0.8,1.5-1.6,2.9-1.5c0.5,0,1.1,0.1,1.6,0.4c0.6,0.3,1.1,0.9,1.1,2c0,0.6-0.2,1.3-0.6,2
		c-0.3,0.7-0.9,1.5-1.3,2l0,0c-0.2,0.2-0.4,0.7-0.5,1.3c-0.2,0.8-0.3,1.6-0.3,2.2c0,1.3,0,2.5-0.4,3.6c-0.4,1.1-1.2,2-2.6,2.7
		c-0.5,0.2-1.1,0.4-1.6,0.6c-1.1,0.4-2.2,0.7-2.6,1.3c-0.2,0.2-0.2,1-0.3,1.8c-0.2,1.6-0.3,3.5-1.6,4.4c-0.7,0.5-1.4,0.7-2.3,0.8
		c-0.8,0.1-1.7,0.1-2.7,0.1c-0.4,0-0.9,0.2-1.3,0.5c-0.7,0.4-1.3,1.1-1.7,1.7c-1.9,2.3-3.4,1.6-5.3,0.7c-0.4-0.2-0.9-0.4-1.3-0.6
		c-0.7-0.2-1.5-0.5-2.3-0.6c-0.7-0.2-1.5-0.3-2.2-0.2c-1.2,0-2.2,0.1-3.1,0.4c-0.8,0.2-1.4,0.7-2,1.3c-0.2,1.2-0.2,11-0.1,13.1
		C102.7,159.8,102.8,161.3,103,162.7L103,162.7z"/>
	<path class="st5" d="M156.5,72.5h-113c0.1,10.6,2.4,21.6,6.3,32.3h17.6c0-0.1,0-0.1,0-0.1c0-0.3,0-0.6,0.1-0.9
		c0.2-0.9,0.6-1.5,1.1-2c0.6-0.4,1.2-0.6,2-0.6c0.3,0,0.6,0,0.9,0.1c0.7,0.1,1.4,0.3,2,0.7c0.7,0.4,1.2,0.9,1.7,1.6
		c0.3,0.5,0.5,0.8,0.6,1.2h17.2c-0.6-0.8-1.1-1.6-1.4-2.6c-0.6-1.4-0.9-2.8-0.7-4.3c0.1-0.8,0.3-1.6,0.8-2.3
		c0.4-0.6,0.9-1.1,1.6-1.6c0-0.2-0.1-0.3-0.1-0.5c-0.7-2.7-1.5-6.3,3.6-9.6c0.1-1.9,0.3-3.3,0.9-4.4c0.7-1.3,1.6-2.1,3.1-2.7h0.5
		c1.5,0.6,2.6,1.5,3.3,2.9c0.6,1.2,0.8,2.8,0.7,4.7c4.3,4.2,2.8,7.5,1.9,9.2c0.6,0.6,1.1,1.3,1.4,2c0.6,1.1,0.9,2.2,0.9,3.1
		c0.1,1.5-0.4,3.1-1.1,4.6c-0.2,0.5-0.5,1-0.8,1.5h18.9c0.1-0.2,0.2-0.4,0.4-0.6c0.5-0.7,0.9-1.3,1.5-1.6c0.6-0.4,1.2-0.6,2-0.6
		c0.5,0,1.1,0,1.6,0.2c0.6,0.2,1.2,0.4,1.7,0.8c0.5,0.5,0.8,1,0.8,1.7c0,0.1,0,0.1,0,0.2h15.7C154.1,94,156.4,83.1,156.5,72.5
		L156.5,72.5z"/>
	<path class="st6" d="M101.4,162.8c-0.5,0-1,0-1.5,0c-0.6,0-1.2,0-1.7,0c0.1-0.7,0.1-2.1,0.1-2.9c0.1-1.7,0.1-3.7,0.1-5.5
		c0-0.3,0-0.6,0-0.9c0-1.6,0-3.5,0-5.1c0-1.6-0.1-3.1-0.3-3.8l-0.2-0.3c-0.8-1-1.7-1.6-2.7-2c-1-0.4-2-0.5-3.4-0.5
		c-1.1,0-2.1,0.1-3.1,0.3c-1,0.2-1.9,0.5-3,0.9c-0.9,0.3-1.6,0.6-2.2,0.5c-0.6,0-1.1-0.2-1.8-0.9c-0.2-0.2-0.3-0.3-0.5-0.5
		c-1-1-2-1.9-3.4-1.9c-0.9,0-1.6-0.1-2.3-0.3c-0.7-0.2-1.2-0.5-1.7-1c-1-0.9-1-2.5-1-3.8c0-0.9,0-1.6-0.2-2.2
		c-0.3-0.7-1.2-1.4-2.2-2c-0.9-0.6-2-1.1-2.8-1.4c-1-0.4-1.6-1.2-2-2.1c-0.4-1-0.5-2.1-0.5-3.3c0-0.6,0-1.3-0.1-1.9
		c-0.1-0.7-0.3-1.3-0.8-1.8l0,0c-0.4-0.4-0.8-0.9-1.1-1.4c-0.2-0.5-0.4-1.1-0.4-1.7c0-0.5,0.2-0.9,0.4-1.2c0.2-0.3,0.5-0.5,0.7-0.5
		c0.9,0,2.1,1.2,2.9,2c0.1,0.1,0.2,0.2,0.2,0.2c0.5,0.5,1.1,1,1.7,1.5c0.7,0.5,1.4,0.9,2.1,1.1c1.2,0.3,2.2,0.2,2.9,0.2
		c0,0,0.1,0,0.1,0c1,0,1.7,0.1,2.2,0.4c0.5,0.3,0.9,0.9,1.4,1.8c1,2.1,1.8,2.1,3.3,2c0.2,0,0.6,0,0.9,0c1.2,0.1,1.5,0.7,2.1,1.8
		c0.1,0.2,0.2,0.4,0.4,0.7c0.3,0.6,0.7,1.1,1.1,1.6c0.4,0.5,0.7,0.8,1.1,1c0.6,0.3,1,0.4,1.5,0.5c0.5,0.1,1.1,0.2,2,0.8
		c0.4,0.3,0.7,0.7,0.9,1.1c0.2,0.6,0.4,1.2,0.6,1.8c0.3,1.6,0.6,3,1.2,4.2c0.7,1.3,1.7,2.3,3.5,2.9c0.9,0.3,1.4,0.2,1.7-0.4
		c0.2-0.4,0.2-0.8,0.3-1.5c0.2-4.7,0.4-7.7,0.1-9.8c-0.3-2.3-1-3.4-2.3-4.3c-2.9-2-5.9-4-8.6-5.8c-2.8-1.8-5.3-3.4-7.4-4.3l-0.2-0.1
		c-0.5-0.1-0.9-0.2-1.3-0.2c-0.4,0-0.8-0.1-1.2-0.1c-0.1,0-0.2,0-0.4,0c-1.6-0.1-3.1-0.1-4.6-1.1c-0.9-0.6-1.5-1.3-1.8-2
		c-0.2-0.6-0.3-1.2,0-1.8c0.1-0.1,0.1-0.3,0.2-0.4c0.6-1.1,0.9-1.5-0.3-2.6c-0.4-0.3-0.8-0.8-1.1-1.4c-0.2-0.4-0.4-0.8-0.4-1.3
		c0-0.2,0-0.4,0.1-0.6c0.1-0.5,0.3-0.8,0.6-1c0.3-0.2,0.7-0.3,1.1-0.3c0.2,0,0.4,0,0.7,0.1c0.5,0.1,1.1,0.2,1.6,0.5
		c0.4,0.2,0.9,0.6,1.2,1.1c0.3,0.6,0.5,1,0.7,1.4c0.2,0.4,0.3,0.8,0.6,1.2c0.7,1.1,1.6,1.3,2.6,1.6c0.5,0.1,1,0.2,1.5,0.5
		c0.4,0.2,0.7,0.5,1,0.9c0.3,0.4,0.5,0.9,0.7,1.6c0,0.2,0.1,0.4,0.1,0.6c0.2,1,0.3,1.7,1.6,2.7c3.1,2.3,6.1,4.3,8.9,6.1
		c1.9,1.3,3.7,2.4,5.3,3.5c0.2,0.2,0.5,0.3,0.7,0.3c0.2,0.1,0.5,0.1,0.7,0c0.2-0.1,0.5-0.2,0.6-0.5c0.1-0.1,0.1-0.2,0.2-0.4
		c0.2-0.6,0.1-1.3,0-2.1c-0.1-0.7-0.2-1.6-0.5-2.3c-2.3-2.8-3.8-4.6-4.6-6.2c-0.8-1.5-1-2.7-0.9-4.3c0.1-0.5,0.2-1,0.5-1.4
		c0.6-0.8,1.4-1.2,2.3-1.7c-1.2-1.3-2.3-2.5-3-4.2c-0.5-1.1-0.7-2.4-0.7-3.7c0.1-0.6,0.2-1.1,0.6-1.6c0.5-0.8,1.2-1.3,2-1.9
		c-0.3-1.4-0.8-2.8-0.7-4.3c0.1-2.6,1.9-4.2,4-5.6c0-1.5,0.1-3.2,0.7-4.6c0.4-0.9,1.1-1.5,2.1-1.9c1,0.5,1.7,1.1,2.2,2.1
		c0.7,1.5,0.6,3.1,0.5,4.7c1.5,1.3,2.9,2.9,2.9,5.1c0,1.5-0.7,2.7-1.3,4c0.8,0.7,1.4,1.3,1.9,2.2c0.4,0.9,0.7,1.9,0.8,2.6
		c0.1,1.2-0.3,2.6-1,3.9c-0.8,1.8-1.9,3.1-3.4,4.4c0.8,0.8,1.6,1.7,2.1,2.8c0.3,0.7,0.4,1.3,0.4,1.9c0,1.4-0.7,2.6-1.6,3.8
		c-0.9,1.2-2.2,2.3-3.3,3.3c-0.5,0.7-0.5,1.7-0.5,2.6c0,0.7,0.1,1.5,0.2,2c0,0.1,0.1,0.3,0.2,0.4c0.2,0.3,0.4,0.5,0.7,0.6
		c0.3,0.1,0.7,0.2,1.1,0.1c0.1,0,0.3-0.1,0.4-0.2c0.9-0.5,1.4-0.8,1.9-1.1c3.8-2.1,8.5-4.7,13-8c0.7-0.5,1.1-1,1.3-1.6
		c0.2-0.6,0.3-1.2,0.4-2c0-0.6,0.2-1.1,0.4-1.6c0.3-0.6,0.8-1,1.2-1.2c0.5-0.3,1.2-0.2,1.8-0.2c1.2,0,2.3,0.1,3-1.1
		c0.3-0.4,0.5-0.8,0.7-1.3c0.2-0.4,0.5-0.9,0.8-1.4c0.3-0.6,0.7-0.9,1.1-1.2c0.4-0.2,0.8-0.3,1.3-0.4c0.4,0,0.8,0,1.1,0.1
		c0.4,0.1,0.7,0.3,1,0.5c0.2,0.2,0.3,0.4,0.3,0.7c0,0.1,0,0.3,0,0.4c-0.1,0.4-0.3,0.8-0.6,1.2c-0.2,0.4-0.6,0.8-1,1.2
		c-1,1.2-1,2.5-1,3.7c0,1.4,0,2.8-2.1,3.6c-1,0.4-1.7,0.6-2.4,0.7c-0.7,0.1-1.3,0.1-2.2,0.2c-0.7,0-1.4,0-2.1,0.2
		c-0.7,0.1-1.5,0.3-2.2,0.8c-1,0.6-2.4,1.4-3.8,2.3c-4.1,2.3-9,5.1-11.3,7.2c-1.1,1-1.8,2-2.2,4.2c-0.4,2-0.5,4.8-0.3,9.5
		c0,1.3,0.4,1.9,1.1,2.1c0.6,0.2,1.1-0.1,1.8-0.5c0.9-0.4,1.9-1.1,2.6-1.8c0.8-0.7,1.4-1.5,1.6-2c0.1-0.4,0.1-0.6,0.2-0.9
		c0.3-1.7,0.8-4.3,1.9-5c0.5-0.3,1.2-0.4,1.9-0.5c0.6-0.1,1.2-0.2,1.9-0.4c0.8-0.3,1.1-1.1,1.5-2.1c0.4-1.1,1-2.5,2.5-2.6
		c0.3,0,0.6,0,0.9,0c1.7,0,3.1,0,4.1-2.1c0.5-0.9,0.8-1.5,1.2-1.8h0c0.4-0.3,1-0.3,2-0.3c0.1,0,0.2,0,0.3,0c1,0,2.9,0.1,4.1-0.2
		c1.2-0.2,1.5-0.7,2.1-1.3c0.1-0.2,0.3-0.4,0.5-0.6c0.2-0.2,0.3-0.3,0.4-0.4c0.6-0.6,1-1.1,1.9-1.1c0.3,0,0.7,0,0.9,0.2
		c0.2,0.1,0.3,0.3,0.3,0.7c0,0.4-0.2,0.9-0.4,1.4c-0.3,0.6-0.7,1.2-1.1,1.7l0,0c-0.4,0.4-0.7,1.1-0.9,2c-0.2,0.9-0.3,1.9-0.3,2.6
		c0,1.2,0,2.2-0.3,3.1c-0.3,0.8-0.8,1.4-1.8,1.8c-0.4,0.2-1,0.4-1.5,0.6c-1.3,0.5-2.6,0.9-3.3,1.9c-0.4,0.6-0.5,1.5-0.6,2.5
		c-0.1,1.3-0.2,2.8-1,3.3c-0.4,0.3-1,0.5-1.7,0.6c-0.7,0.1-1.6,0.1-2.5,0.1c-0.7,0-1.5,0.3-2.1,0.7c-0.8,0.5-1.6,1.3-2.1,2
		c-1.1,1.4-2.2,0.9-3.5,0.3c-0.5-0.2-0.9-0.4-1.5-0.6c-0.7-0.3-1.6-0.5-2.4-0.7c-0.9-0.2-1.7-0.3-2.6-0.3c-1.3,0-2.5,0.1-3.5,0.5
		c-1.1,0.4-2,1-2.9,1.9l-0.2,0.3c-0.3,1.2-0.2,4.5-0.2,7.4c0,0.5,0,1.1,0,1.5c0,1.5,0,3.1,0,4.6c0,0.5,0,1,0,1.5
		C101.3,160.6,101.4,162,101.4,162.8L101.4,162.8z"/>
	<path class="st2" d="M101.6,87.9c-0.6,0.8-1,1.7-1.4,2.6c-0.1,0.3-0.2,0.7-0.3,1c0,0.1,0,0.1-0.1,0.2c-0.1,0.5-0.2,0.9-0.2,1.4
		c-0.1,2.2,0.4,4.1,1,6c0.4,1.4,0.8,2.8,1,4.3c0,0.1,0,0.2,0,0.3c0.5-0.2,1-0.7,1.5-1.3c0.2-0.3,0.5-0.6,0.8-0.3
		c0.3,0.2,0.2,0.6-0.1,0.9c-0.7,0.9-1.4,1.5-2.1,1.7c0,1.1,0,2.3-0.2,3.4c-0.2,1.1-0.5,2.1-1,2.9c-0.2,0.3-0.6,0.6-0.9,0.4
		c-0.4-0.3-0.1-0.6,0.1-1c0.4-0.6,0.7-1.5,0.9-2.5c0.2-1,0.2-2,0.2-3c-0.5,0-0.9-0.1-1.3-0.2c-0.5-0.2-1-0.6-1.3-1
		c-0.5-0.6-0.7-1.3-0.7-2c0-0.3,0.2-0.7,0.6-0.6c0.4,0.1,0.4,0.3,0.4,0.7c0,0.5,0.2,0.9,0.4,1.3c0.2,0.3,0.6,0.5,0.9,0.7
		c0.3,0.1,0.6,0.2,0.9,0.1c0-0.1,0-0.3-0.1-0.4c-0.2-1.5-0.6-2.8-1-4.2c-0.6-2-1.2-3.9-1.1-6.3c0-0.5,0.1-0.9,0.2-1.3
		c-0.2-0.2-0.4-0.4-0.6-0.6c-0.2-0.3-0.4-0.6-0.5-1.1c-0.1-0.2-0.1-0.6,0.3-0.7c0.4-0.1,0.5,0.2,0.6,0.5c0.1,0.4,0.2,0.6,0.3,0.8
		c0,0.1,0.1,0.1,0.1,0.1c0.1-0.2,0.1-0.3,0.2-0.5c0.3-1,0.8-1.9,1.5-2.8c0.1-0.2,0.4-0.4,0.7-0.2C101.8,87.4,101.8,87.7,101.6,87.9
		L101.6,87.9z"/>
	<path class="st2" d="M129.9,126.4c-3.5,4.2-6.6,5.8-9.4,7.2c-2.2,1.1-4.2,2.2-6,4.4c-0.2,0.2-0.6,0.3-0.9,0.1
		c-0.2-0.2-0.3-0.6-0.1-0.8c2-2.5,4.1-3.6,6.4-4.8c2.7-1.4,5.6-2.9,9-6.9c0.2-0.2,0.6-0.3,0.9-0.1
		C130,125.7,130.1,126.1,129.9,126.4L129.9,126.4z"/>
	<path class="st2" d="M71.4,124.4c3.4,4.2,6.4,5.7,9,7.1c2.3,1.2,4.4,2.3,6.3,4.8c0.2,0.2,0.2,0.6-0.1,0.9c-0.3,0.2-0.7,0.1-0.9-0.1
		c-1.7-2.3-3.7-3.3-5.9-4.5c-2.8-1.5-5.9-3.1-9.4-7.4c-0.2-0.2-0.2-0.7,0.1-0.9C70.8,124.1,71.2,124.2,71.4,124.4L71.4,124.4z"/>
	<polygon class="st0" points="174.7,153.5 176.7,154.9 175.4,156.8 173.4,155.3 	"/>
	<polygon class="st0" points="177.3,149.8 179.3,151.2 178,153 176,151.6 	"/>
	<path class="st0" d="M171.7,155.8l-1.4,1.9l-8.5-5.9c-1.5-1-2.5-2-3.1-2.9c-0.7-0.9-0.9-2-0.9-3.3c0.1-1.2,0.6-2.6,1.6-4
		c1-1.4,2-2.3,3.1-2.9c1.1-0.6,2.2-0.7,3.3-0.4c1.2,0.2,2.5,0.9,4.1,2l8.5,5.9l-1.3,1.9l-8.5-5.9c-1.3-0.9-2.3-1.4-3.1-1.6
		c-0.7-0.2-1.5-0.1-2.2,0.2c-0.7,0.3-1.4,0.9-2,1.8c-1,1.4-1.4,2.7-1.1,3.8c0.2,1.1,1.2,2.2,3.1,3.5L171.7,155.8L171.7,155.8z"/>
	<polygon class="st0" points="190.7,115.8 193.2,116.2 192.8,118.4 190.3,118 	"/>
	<polygon class="st0" points="191.4,111.3 193.9,111.7 193.5,113.9 191.1,113.5 	"/>
	<path class="st0" d="M189,119.1l-0.4,2.4l-10.2-1.6c-1.8-0.3-3.1-0.7-4.1-1.3c-1-0.6-1.7-1.4-2.2-2.6c-0.5-1.2-0.6-2.6-0.3-4.3
		c0.3-1.7,0.8-3,1.5-3.9c0.7-1,1.7-1.6,2.8-1.9c1.1-0.3,2.7-0.3,4.5,0l10.2,1.6l-0.4,2.3l-10.2-1.6c-1.6-0.2-2.7-0.3-3.5-0.1
		c-0.8,0.2-1.4,0.6-1.9,1.2c-0.5,0.7-0.8,1.5-1,2.5c-0.3,1.7-0.1,3,0.6,3.8c0.7,0.9,2.1,1.5,4.3,1.8L189,119.1L189,119.1z"/>
	<polygon class="st0" points="172.7,91.9 190.6,91.3 190.7,93.6 174.9,94.2 175.2,103 173.1,103.1 	"/>
	<path class="st0" d="M189.3,82.6l0.6,2.3l-10,2.5c-1.7,0.4-3.2,0.6-4.3,0.5c-1.1-0.2-2.1-0.7-3-1.5c-0.9-0.9-1.6-2.1-2-3.8
		c-0.4-1.6-0.5-3-0.2-4.2c0.3-1.2,0.9-2.1,1.9-2.8c1-0.7,2.4-1.3,4.2-1.8l10-2.5l0.6,2.3L177,76c-1.5,0.4-2.6,0.8-3.2,1.2
		c-0.7,0.5-1.1,1.1-1.3,1.9c-0.2,0.8-0.2,1.7,0.1,2.7c0.4,1.7,1.1,2.8,2,3.3c0.9,0.5,2.5,0.5,4.7,0L189.3,82.6L189.3,82.6z"/>
	<polygon class="st0" points="162.1,61.3 177.9,52.9 179,54.9 171.2,59.1 183.2,62.8 184.7,65.6 174.8,62.4 169.1,74.3 167.6,71.6 
		172.6,61.7 168.7,60.4 163.2,63.3 	"/>
	<path class="st0" d="M100.4,21l2.3,0c0,0.9,0.2,1.6,0.6,2.2c0.4,0.6,0.9,1.1,1.7,1.5c0.8,0.4,1.7,0.7,2.7,0.7
		c0.9,0.1,1.7,0,2.4-0.2c0.7-0.2,1.2-0.6,1.6-1c0.4-0.5,0.6-1,0.6-1.5c0-0.6-0.1-1.1-0.4-1.5c-0.3-0.4-0.8-0.8-1.5-1.1
		c-0.5-0.2-1.5-0.6-3.1-1.1c-1.6-0.5-2.8-1-3.4-1.3c-0.8-0.5-1.4-1.1-1.8-1.8c-0.4-0.7-0.5-1.5-0.5-2.3c0.1-0.9,0.4-1.7,1-2.5
		c0.6-0.7,1.3-1.3,2.4-1.6c1-0.3,2.1-0.5,3.3-0.4c1.3,0.1,2.5,0.4,3.4,0.9c1,0.5,1.7,1.2,2.2,2c0.5,0.9,0.7,1.8,0.7,2.9l-2.3,0
		c-0.1-1.1-0.4-2-1.1-2.6c-0.7-0.7-1.7-1-3-1.1c-1.4-0.1-2.5,0.1-3.2,0.6c-0.7,0.5-1.1,1.1-1.1,1.8c-0.1,0.7,0.2,1.2,0.6,1.6
		c0.4,0.5,1.6,1,3.5,1.5c1.9,0.6,3.2,1.1,3.8,1.4c1,0.6,1.7,1.2,2.2,2c0.5,0.8,0.7,1.6,0.6,2.6c-0.1,1-0.4,1.8-1,2.6
		c-0.6,0.8-1.4,1.4-2.5,1.8c-1.1,0.4-2.2,0.6-3.5,0.5c-1.6-0.1-2.9-0.4-4-1c-1.1-0.6-1.9-1.3-2.4-2.3
		C100.6,23.3,100.4,22.2,100.4,21L100.4,21z"/>
	<polygon class="st0" points="78.7,30 74.7,12.5 87.3,9.6 87.8,11.7 77.5,14.1 78.7,19.4 88.4,17.2 88.8,19.2 79.2,21.4 80.6,27.4 
		91.3,24.9 91.7,27 	"/>
	<path class="st0" d="M73.9,30.4c0.8-1.5,1-3.2,0.7-5.1l-2.4,0.4c0.3,1.5,0.2,2.8-0.3,3.9c-0.5,1.1-1.4,1.9-2.6,2.4
		c-1,0.4-2,0.6-3.1,0.5c-1.1-0.1-2-0.6-2.9-1.5c-0.9-0.8-1.6-2-2.2-3.4c-0.5-1.1-0.8-2.2-0.9-3.4C60,23.1,60.2,22,60.8,21
		c0.6-1,1.5-1.7,2.8-2.3c1.1-0.5,2.1-0.6,3.1-0.4c1,0.2,1.9,0.8,2.8,1.9l1.9-1.4c-1.1-1.3-2.4-2.1-3.9-2.5c-1.5-0.3-3-0.2-4.7,0.6
		c-1.4,0.7-2.6,1.6-3.5,2.7c-0.9,1.2-1.4,2.6-1.5,4.1c-0.1,1.6,0.2,3.2,1,4.9c0.7,1.6,1.6,2.9,2.8,4c1.2,1.1,2.5,1.8,3.9,2
		c1,0.2,2.2,0,3.4-0.3l0.2,2.2c0.5-0.2,0.9-0.4,1.2-0.4c0.2,0,0.5,0,0.6,0.1c0.1,0.1,0.2,0.2,0.3,0.3c0.4,0.9-0.9,1.7-1.4,2
		c-0.2,0.1-0.6,0.2-1.1,0.4l0,1.2c0.5-0.1,1.6-0.5,2.1-0.7c1.1-0.5,1.8-1.1,2.1-1.7c0.3-0.7,0.4-1.3,0.2-1.8c-0.2-0.4-0.5-0.7-1-0.8
		c-0.5-0.2-1-0.2-1.9,0.1l-0.1-1.1c0.1,0,0.1,0,0.2-0.1C71.9,33,73.2,31.9,73.9,30.4L73.9,30.4z"/>
	<polygon class="st0" points="49.4,46.9 38.4,32.8 40.2,31.4 44.7,37.2 52.1,31.4 47.5,25.6 49.4,24.2 60.4,38.3 58.5,39.7 
		53.4,33.1 46,38.8 51.2,45.4 	"/>
	<polygon class="st0" points="53.2,162.2 58.9,157.9 56.7,164.7 62.1,168.9 55.3,168.9 53.2,175.1 51.2,168.9 44.4,168.9 
		49.8,164.7 47.6,157.9 	"/>
	<path class="st0" d="M113.8,174.1l-0.5-1.9l10.5-2.6l0.4,1.6c-0.7,1.3-1.4,3-2,5.1c-0.6,2-0.9,4.1-0.9,6.2c-0.1,1.5,0.1,3,0.3,4.6
		l-2,0.5c-0.3-1.3-0.4-2.9-0.4-4.8c0-1.9,0.3-3.8,0.8-5.7c0.5-1.9,1.1-3.5,1.8-4.9L113.8,174.1L113.8,174.1z"/>
	<path class="st0" d="M76.7,186.7l-2-0.6l3.5-12.2l-3.5-1.1l0.5-1.6c2.1,0.6,3.3,0.6,4.7-1l1.5,0.4L76.7,186.7L76.7,186.7z"/>
	<polygon class="st0" points="146.8,162.2 141.1,157.9 143.3,164.7 137.9,168.9 144.7,168.9 146.8,175.1 148.8,168.9 155.7,168.9 
		150.2,164.7 152.4,157.9 	"/>
	<polygon class="st0" points="44.1,147.6 29.4,157.9 22.5,148 24.2,146.8 29.8,154.7 34.4,151.6 29.5,144.7 31.2,143.5 36.1,150.3 
		42.7,145.7 	"/>
	<polygon class="st0" points="26.7,104.8 8.8,104.2 9.3,91.3 11.4,91.4 11,101.9 16.5,102.1 16.9,92.3 18.9,92.3 18.6,102.2 
		24.7,102.4 25.1,91.5 27.2,91.5 	"/>
	<polygon class="st0" points="29.6,121.7 11.9,124.5 11.5,122.1 23.9,110.6 10.1,112.8 9.7,110.6 27.4,107.8 27.7,110.2 15.3,121.6 
		29.2,119.4 	"/>
	<polygon class="st0" points="35.9,136 19.6,143.3 14.3,131.5 16.3,130.6 20.5,140.3 25.6,138 21.5,129 23.5,128.1 27.5,137.2 
		33,134.7 28.6,124.7 30.5,123.8 	"/>
	<path class="st0" d="M100.6,181.8c-0.2-2-0.1-3.6,0.2-4.8c0.3-1.2,0.8-2.2,1.6-2.9c0.7-0.7,1.7-1.1,2.9-1.2c0.9-0.1,1.7,0,2.4,0.3
		c0.7,0.3,1.3,0.8,1.8,1.4c0.5,0.7,0.9,1.4,1.2,2.4c0.3,0.9,0.6,2.2,0.7,3.9c0.2,2,0.1,3.5-0.2,4.8c-0.3,1.2-0.8,2.2-1.6,2.9
		c-0.7,0.7-1.7,1.1-2.9,1.2c-1.6,0.2-2.9-0.3-3.9-1.4C101.6,187.1,100.9,184.9,100.6,181.8L100.6,181.8z M102.7,181.6
		c0.2,2.7,0.7,4.5,1.4,5.3c0.7,0.9,1.6,1.2,2.5,1.1c0.9-0.1,1.7-0.6,2.2-1.6c0.6-1,0.7-2.8,0.5-5.5c-0.2-2.7-0.7-4.5-1.4-5.4
		c-0.7-0.8-1.6-1.2-2.5-1.1c-0.9,0.1-1.6,0.5-2.1,1.4C102.6,177,102.4,178.9,102.7,181.6L102.7,181.6z"/>
	<path class="st0" d="M85.5,184.7l2,0.1c0.1,0.9,0.3,1.6,0.7,2.1c0.4,0.5,1,0.7,1.7,0.8c0.6,0.1,1.2,0,1.7-0.2
		c0.5-0.2,0.9-0.6,1.3-1c0.4-0.4,0.7-1.1,1-1.8c0.3-0.8,0.5-1.6,0.6-2.5c0-0.1,0-0.2,0-0.4c-0.5,0.6-1.1,1.1-1.8,1.4
		c-0.8,0.3-1.6,0.4-2.4,0.3c-1.4-0.2-2.5-0.8-3.3-1.9c-0.8-1.1-1.1-2.5-0.9-4.1c0.2-1.7,0.9-3,2-3.9c1.1-0.9,2.4-1.3,3.9-1.1
		c1.1,0.1,2,0.6,2.9,1.2c0.8,0.7,1.4,1.6,1.7,2.7c0.3,1.1,0.4,2.7,0.1,4.7c-0.2,2.1-0.7,3.8-1.3,5c-0.6,1.2-1.4,2.1-2.4,2.6
		c-1,0.6-2.1,0.7-3.3,0.6c-1.3-0.2-2.3-0.7-3-1.5C85.9,187.1,85.5,186,85.5,184.7L85.5,184.7z M94.7,178.4c0.2-1.1,0-2.1-0.6-2.9
		c-0.5-0.7-1.2-1.2-2.1-1.3c-0.9-0.1-1.7,0.2-2.5,0.8c-0.8,0.7-1.2,1.6-1.4,2.7c-0.1,1.1,0.1,2,0.7,2.7c0.6,0.7,1.3,1.2,2.2,1.3
		c0.9,0.1,1.7-0.1,2.4-0.7C94.2,180.5,94.6,179.6,94.7,178.4L94.7,178.4z"/>
	<path class="st0" d="M38.1,60.4l-9.6-16.6l1.6-2l18.5,5.6L47,49.5l-5.5-1.8l-4.7,5.8l3,4.9L38.1,60.4L38.1,60.4z M35.7,51.8
		l3.8-4.7c0,0-7.8-2.6-8.7-3C31.5,44.9,35.7,51.8,35.7,51.8L35.7,51.8z"/>
	<path class="st0" d="M31.9,72.8l-15.8-8.4l3.1-5.9c0.7-1.2,1.3-2.1,2-2.6c0.7-0.6,1.5-0.9,2.4-0.9c0.9-0.1,1.7,0.1,2.4,0.5
		c0.7,0.4,1.2,0.9,1.6,1.6c0.4,0.7,0.6,1.5,0.6,2.4c0.8-0.8,1.7-1.3,2.6-1.4c1-0.2,1.9,0,2.8,0.5c0.7,0.4,1.3,0.9,1.8,1.6
		c0.5,0.7,0.7,1.3,0.9,2c0.1,0.7,0,1.4-0.2,2.1c-0.2,0.8-0.6,1.7-1.1,2.7L31.9,72.8L31.9,72.8z M31.1,69.7l2.1-3.9
		c0.3-0.7,0.6-1.2,0.7-1.5c0.2-0.5,0.2-1,0.2-1.5c0-0.4-0.2-0.8-0.5-1.3c-0.3-0.4-0.7-0.7-1.2-1c-0.6-0.3-1.2-0.4-1.8-0.4
		c-0.6,0.1-1.1,0.3-1.6,0.8c-0.5,0.4-1,1.1-1.5,2.2l-1.9,3.6L31.1,69.7L31.1,69.7z M23.8,65.8l1.8-3.4c0.5-0.9,0.8-1.6,0.9-2.1
		c0.1-0.6,0.1-1.1-0.2-1.6c-0.2-0.5-0.6-0.8-1.1-1.1c-0.5-0.3-1.1-0.4-1.6-0.4c-0.5,0.1-1,0.3-1.4,0.7c-0.4,0.4-0.9,1.1-1.5,2.3
		l-1.7,3.2L23.8,65.8L23.8,65.8z"/>
	<path class="st0" d="M27.5,89.2l-17.4-4l1.8-7.7c0.3-1.6,0.8-2.7,1.3-3.4c0.5-0.7,1.2-1.2,2.1-1.6c0.9-0.3,1.8-0.3,2.8-0.1
		c1.2,0.3,2.2,0.9,2.9,1.9c0.7,1,0.9,2.4,0.8,4.1c0.4-0.6,0.8-0.9,1.2-1.2c0.8-0.6,1.7-1,2.8-1.4l5.4-1.9l-0.7,2.9l-4.2,1.5
		c-1.2,0.4-2.1,0.8-2.8,1.1c-0.7,0.3-1.1,0.6-1.4,0.9c-0.3,0.3-0.6,0.6-0.7,1c-0.1,0.2-0.2,0.7-0.4,1.3l-0.6,2.7l7.7,1.8L27.5,89.2
		L27.5,89.2z M18.3,84.6l1.1-5c0.2-1.1,0.3-1.9,0.2-2.5c-0.1-0.7-0.3-1.2-0.7-1.6c-0.4-0.4-0.9-0.7-1.5-0.8
		c-0.8-0.2-1.6-0.1-2.2,0.4c-0.7,0.5-1.1,1.4-1.5,2.6l-1.3,5.5L18.3,84.6L18.3,84.6z"/>
	<path class="st0" d="M146.6,43.3l12.9-12.4l5.5,5.7c1.1,1.1,1.9,2.1,2.2,2.9c0.3,0.8,0.4,1.7,0.2,2.6c-0.2,0.9-0.7,1.7-1.4,2.4
		c-0.9,0.9-2,1.3-3.2,1.3c-1.2,0-2.5-0.5-3.8-1.6c0.2,0.7,0.3,1.2,0.3,1.6c0,0.9-0.1,2-0.3,3.1l-1.3,5.6l-2.1-2.1l1.1-4.3
		c0.3-1.2,0.5-2.2,0.6-2.9c0.1-0.7,0.1-1.3,0-1.7c-0.1-0.4-0.2-0.8-0.4-1.1c-0.1-0.2-0.4-0.6-0.8-1l-1.9-2l-5.7,5.5L146.6,43.3
		L146.6,43.3z M155.5,38.1l3.5,3.7c0.7,0.8,1.4,1.3,2,1.6c0.6,0.3,1.2,0.3,1.7,0.2c0.6-0.1,1.1-0.4,1.5-0.8c0.6-0.6,0.9-1.3,0.9-2.1
		c0-0.8-0.5-1.7-1.4-2.7l-3.9-4.1L155.5,38.1L155.5,38.1z"/>
	<path class="st0" d="M134.7,25.9c1.4-2.6,3.3-4.2,5.5-4.9c2.2-0.7,4.4-0.4,6.6,0.8c1.4,0.8,2.5,1.9,3.3,3.2
		c0.8,1.3,1.1,2.8,1.1,4.4c-0.1,1.6-0.6,3.1-1.4,4.7c-0.9,1.6-2,2.9-3.3,3.7c-1.3,0.9-2.8,1.4-4.3,1.4c-1.6,0-3-0.4-4.3-1.1
		c-1.5-0.8-2.6-1.9-3.4-3.3c-0.8-1.4-1.1-2.8-1-4.4C133.5,28.7,133.9,27.2,134.7,25.9L134.7,25.9z M136.8,27.1
		c-1.1,1.9-1.4,3.7-1,5.3c0.4,1.6,1.4,2.9,2.9,3.8c1.6,0.8,3.2,1,4.8,0.5c1.6-0.5,3-1.8,4.1-3.8c0.7-1.3,1.1-2.5,1.2-3.7
		c0.1-1.2-0.2-2.3-0.7-3.3c-0.5-1-1.3-1.8-2.4-2.3c-1.5-0.8-3-1-4.6-0.6C139.5,23.3,138.1,24.7,136.8,27.1L136.8,27.1z"/>
	<path class="st0" d="M116.3,28.5l5.5-17l6.4,2.1c1.1,0.3,2,0.7,2.5,1c0.8,0.4,1.4,0.9,1.8,1.5c0.4,0.6,0.7,1.2,0.8,2.1
		c0.1,0.8,0,1.6-0.2,2.5c-0.5,1.4-1.3,2.5-2.6,3.2c-1.2,0.7-3.1,0.7-5.5-0.1l-4.4-1.4l-2.2,6.9L116.3,28.5L116.3,28.5z M121.5,20.3
		l4.4,1.4c1.5,0.5,2.6,0.5,3.3,0.2c0.8-0.3,1.4-1,1.7-2c0.2-0.7,0.2-1.4,0.1-2c-0.2-0.6-0.6-1.1-1.1-1.5c-0.3-0.2-1-0.5-2-0.8
		l-4.3-1.4L121.5,20.3L121.5,20.3z"/>
	<path class="st0" d="M169.9,121.5l16.7,6.4l-2.4,6.3c-0.5,1.3-1.1,2.2-1.7,2.9c-0.7,0.7-1.4,1.1-2.3,1.2c-0.9,0.2-1.7,0.1-2.5-0.2
		c-0.7-0.3-1.3-0.7-1.8-1.3c-0.5-0.7-0.8-1.4-0.9-2.4c-0.7,0.9-1.5,1.5-2.4,1.7c-0.9,0.3-1.9,0.2-2.9-0.2c-0.8-0.3-1.4-0.7-2-1.3
		c-0.6-0.6-0.9-1.2-1.1-1.8c-0.2-0.6-0.2-1.4-0.1-2.1c0.1-0.8,0.3-1.7,0.7-2.8L169.9,121.5L169.9,121.5z M171,124.5l-1.6,4.2
		c-0.3,0.7-0.4,1.2-0.5,1.5c-0.1,0.6-0.1,1,0,1.5c0.1,0.4,0.3,0.8,0.6,1.2c0.3,0.4,0.7,0.7,1.3,0.9c0.6,0.2,1.2,0.3,1.8,0.1
		c0.6-0.1,1.1-0.5,1.5-1c0.4-0.5,0.8-1.3,1.2-2.3l1.5-3.8L171,124.5L171,124.5z M178.7,127.5l-1.4,3.6c-0.4,1-0.6,1.7-0.6,2.2
		c0,0.6,0.1,1.1,0.4,1.6c0.3,0.4,0.7,0.8,1.3,1c0.6,0.2,1.1,0.3,1.6,0.2c0.5-0.1,1-0.4,1.3-0.8c0.3-0.4,0.7-1.2,1.2-2.5l1.3-3.3
		L178.7,127.5L178.7,127.5z"/>
</g>
</svg>
