<?xml version="1.0" encoding="utf-8"?>
<!-- Generator: Adobe Illustrator 21.1.0, SVG Export Plug-In . SVG Version: 6.00 Build 0)  -->
<svg version="1.1" id="Layer_1" xmlns="http://www.w3.org/2000/svg" xmlns:xlink="http://www.w3.org/1999/xlink" x="0px" y="0px"
	 viewBox="0 0 200 200" style="enable-background:new 0 0 200 200;" xml:space="preserve">
<style type="text/css">
	.st0{fill:#FFFFFF;}
	.st1{fill:#009036;}
	.st2{fill:#B19533;}
	.st3{fill:none;}
</style>
<g>
	<circle class="st0" cx="100" cy="116.7" r="76.9"/>
	<path class="st1" d="M60.8,151.6V81.8c-5.4,6-9.4,13.3-11.5,21.3v27.1C51.4,138.3,55.4,145.5,60.8,151.6z"/>
	<path class="st1" d="M150.7,130.3v-27.2c-2.1-8-6.2-15.3-11.5-21.3v69.8C144.6,145.5,148.6,138.3,150.7,130.3z"/>
	<path class="st1" d="M128.2,160.9V72.5c-3.6-2.3-7.4-4.2-11.5-5.5v99.5C120.8,165.1,124.7,163.2,128.2,160.9z"/>
	<path class="st1" d="M100,169.2c1.9,0,3.9-0.1,5.8-0.3V64.5c-1.9-0.2-3.8-0.3-5.8-0.3c-1.9,0-3.9,0.1-5.8,0.3v104.3
		C96.1,169.1,98.1,169.2,100,169.2z"/>
	<path class="st1" d="M83.3,166.4V66.9c-4.1,1.4-8,3.2-11.5,5.5v88.5C75.3,163.2,79.2,165.1,83.3,166.4z"/>
	<polyline class="st2" points="68.6,166.4 61.8,177.8 64.4,179.4 72.7,165.7 68.2,163 66.8,165.3 68.6,166.4 68.6,166.4 	"/>
	<path class="st2" d="M78.5,177.9c1.2,0.4,1.5,1.9,1.1,3c-0.4,1.1-1.5,2.1-2.7,1.6c-1.2-0.4-1.5-1.9-1.1-3
		C76.1,178.5,77.2,177.5,78.5,177.9L78.5,177.9 M76.4,175.9c-1.9,0.1-3.2,1.3-3.8,3c-0.9,2.7,0.8,5.2,3.4,6.1c2.5,0.9,5.5,0,6.4-2.7
		c0.6-1.7,0.3-3.5-1.1-4.7c1.5-0.2,2.7-1.3,3.1-2.6c0.9-2.6-0.5-5-2.9-5.8c-2.5-0.9-5,0.2-5.9,2.8C75.1,173.3,75.4,174.8,76.4,175.9
		L76.4,175.9 M80.7,171.3c1.1,0.4,1.4,1.7,1,2.7c-0.3,1-1.4,1.9-2.5,1.5c-1.1-0.4-1.4-1.7-1-2.7C78.6,171.8,79.6,170.9,80.7,171.3
		L80.7,171.3"/>
	<path class="st2" d="M122,185.9l2.1-7.3c0.5-1.8,0.8-3.9,0.2-5.7c-1-3.1-4-4.4-7-3.5c-3.1,1-4.6,4-3.6,7.1c0.9,2.6,3.4,4.5,6.2,3.6
		c0.4-0.1,0.8-0.4,1.1-0.6l0.1,0l-1.7,5.4L122,185.9L122,185.9 M118,171.8c1.5-0.5,2.9,0.7,3.3,2.1c0.4,1.4,0,3.1-1.5,3.6
		c-1.5,0.5-2.9-0.7-3.3-2.1C116.1,174.1,116.6,172.3,118,171.8L118,171.8"/>
	<path class="st2" d="M135.8,179.8l0.5-7.6c0.1-1.9,0-3.9-1-5.6c-1.6-2.8-4.8-3.5-7.6-1.9c-2.8,1.6-3.7,4.9-2.1,7.7
		c1.4,2.4,4.2,3.7,6.8,2.2c0.4-0.2,0.7-0.5,1-0.8l0.1,0l-0.5,5.7L135.8,179.8L135.8,179.8 M129.1,166.9c1.4-0.8,3,0.1,3.7,1.3
		c0.7,1.2,0.7,3.1-0.7,3.9c-1.4,0.8-3-0.1-3.7-1.3C127.7,169.5,127.7,167.7,129.1,166.9L129.1,166.9"/>
	<path class="st3" d="M49,116.7c0-28.1,22.8-51,51-51c28.1,0,51,22.8,51,51c0,28.1-22.8,51-51,51C71.9,167.7,49,144.8,49,116.7
		L49,116.7z"/>
	<path class="st0" d="M47.5,115.4c0,0.4,0,0.9,0,1.3c0,7.6,1.6,14.7,4.5,21.2c14.2-7.4,30.2-11.6,47.3-11.6c17.5,0,34,4.4,48.4,12.2
		c3.1-6.7,4.8-14.1,4.8-21.9c0-0.2,0-0.4,0-0.6c-16.1-7.6-34.2-11.9-53.2-11.9C80.8,104.1,63.3,108.2,47.5,115.4z"/>
	<polyline class="st2" points="41.6,152.6 39.3,154.2 43.9,160.7 57,151.5 55.2,149 49.4,153 46.8,149.3 44.6,150.9 47.2,154.6 
		44.3,156.6 41.6,152.6 41.6,152.6 	"/>
	<polyline class="st2" points="36.1,141.6 33.6,142.8 37.1,150.3 51.6,143.5 48.1,136 45.6,137.2 47.8,141.8 43.9,143.7 41.8,139.2 
		39.3,140.3 41.4,144.8 38.3,146.3 36.1,141.6 36.1,141.6 	"/>
	<path class="st2" d="M39.5,130c-0.9-2-3.1-2.6-5.1-2.1c-3.3,0.8-4.1,3.3-3.4,6.3l1,4.1l15.5-3.9l-0.8-3l-6.3,1.6l0,0l5.3-5.3
		l-0.9-3.7L39.5,130L39.5,130 M33.7,134.7l-0.1-0.4c-0.4-1.6-0.3-2.9,1.6-3.4c1.9-0.5,2.7,0.6,3.1,2.2l0.1,0.4L33.7,134.7
		L33.7,134.7"/>
	<polyline class="st2" points="31.4,115.8 28.7,116 29.1,124.2 45,123.4 44.6,115.1 41.9,115.3 42.2,120.4 37.9,120.6 37.6,115.7 
		34.9,115.8 35.1,120.8 31.6,121 31.4,115.8 31.4,115.8 	"/>
	<polyline class="st2" points="44.4,114 44.9,111 34.3,109.1 34.3,109 46.7,102.7 47.1,100.5 31.1,97.6 30.5,100.7 41.1,102.6 
		41.1,102.6 28.6,109 28.2,111.2 44.4,114 44.4,114 	"/>
	<path class="st2" d="M37.3,83.4c-1,0.8-1.8,1.8-2.2,2.9c-1.8,4.3,0.6,8.8,4.8,10.6c4.1,1.7,8.9,0.2,10.7-4c0.5-1.2,0.6-2.4,0.5-3.7
		l-3.4-1.4c0.6,1.2,0.7,2.7,0.2,3.9C46.7,94.4,43.5,95,41,94c-2.5-1.1-4.4-3.7-3.2-6.5c0.5-1.2,1.6-2.2,2.9-2.6L37.3,83.4L37.3,83.4
		"/>
	<polyline class="st2" points="40.4,77.7 38.4,80.4 55.2,85.1 56.3,83.6 46.7,69 44.7,71.7 51.3,80.9 51.3,80.9 40.4,77.7 
		40.4,77.7 	"/>
	<path class="st2" d="M70.2,62.4c1.7-1.4,1.7-3.7,0.7-5.5c-1.7-3-4.2-3.1-7-1.6l-3.7,2l7.7,14l2.7-1.5l-3.1-5.6l0,0l6.5,3.8l3.3-1.8
		L70.2,62.4L70.2,62.4 M64.2,58.1l0.4-0.2c1.4-0.8,2.7-1.1,3.7,0.6c0.9,1.7,0.1,2.7-1.4,3.6l-0.4,0.2L64.2,58.1L64.2,58.1"/>
	<path class="st2" d="M84.6,64.1c4.5-1.4,6.4-6,5.1-10.4c-1.3-4.3-5.6-7.1-10-5.7c-4.5,1.4-6.4,6.1-5.1,10.3
		C75.9,62.7,80.1,65.5,84.6,64.1L84.6,64.1 M80.6,50.9c2.6-0.8,5.2,1.1,6,3.6c0.7,2.3-0.3,5.8-2.9,6.6c-2.5,0.8-5.4-1.6-6.1-3.9
		C76.9,54.8,78,51.7,80.6,50.9L80.6,50.9"/>
	<path class="st2" d="M100.6,46.8c-1-1-3-1.6-4.5-1.5c-2.7,0.1-4.5,2.4-4.4,5c0.1,2.5,1.7,3.4,3.8,4.2c1.3,0.4,2.8,0.8,2.9,2.5
		c0.1,1.2-0.7,2.3-1.9,2.4c-1.3,0.1-2.5-1-3-2.2l-1.9,2.1c1.2,1.8,2.9,3,5.1,2.9c3.3-0.2,5.1-2.5,5-5.7c-0.3-5.4-6.6-3.9-6.7-6.6
		c-0.1-1,0.9-1.8,1.9-1.9c1-0.1,1.8,0.4,2.5,1.2L100.6,46.8L100.6,46.8"/>
	<polyline class="st2" points="108.4,46 105.3,45.7 103.9,61.7 107,61.9 108.4,46 108.4,46 	"/>
	<polyline class="st2" points="125.8,53.3 128.9,54.4 129.8,51.8 120.8,48.5 119.9,51.1 122.9,52.2 118.4,64.7 121.3,65.7 
		125.8,53.3 125.8,53.3 	"/>
	<path class="st2" d="M130.2,71.1c3.9,2.5,8.7,1.1,11.2-2.8c2.4-3.8,1.9-8.8-2.1-11.3c-3.9-2.5-8.8-1-11.2,2.7
		C125.7,63.6,126.3,68.6,130.2,71.1L130.2,71.1 M137.7,59.6c2.3,1.5,2.5,4.7,1.1,6.9c-1.3,2-4.7,3.5-6.9,2.1
		c-2.2-1.4-2.3-5.1-0.9-7.2C132.4,59.2,135.4,58.1,137.7,59.6L137.7,59.6"/>
	<path class="st2" d="M146.2,75.5c1.7,1.3,4,0.8,5.5-0.6c2.5-2.3,2-4.9-0.1-7.2l-2.9-3.1L137,75.5l2.1,2.3l4.7-4.4l0,0l-2.1,7.2
		l2.6,2.8L146.2,75.5L146.2,75.5 M149,68.6l0.3,0.3c1.1,1.2,1.7,2.4,0.3,3.7c-1.4,1.3-2.6,0.8-3.8-0.5l-0.3-0.3L149,68.6L149,68.6"
		/>
	<polyline class="st2" points="144.4,83.1 145.9,85.8 155.4,80.5 155.4,80.6 149.7,93.3 150.8,95.3 165.1,87.4 163.6,84.7 
		154.2,89.9 154.1,89.8 159.8,77.1 158.7,75.1 144.4,83.1 144.4,83.1 	"/>
	<path class="st2" d="M157,103.7l-2.9,2.1l0.9,3.2l14.3-10.1l-0.6-2.3l-17.5-1.8l0.8,3.2l3.6,0.4L157,103.7L157,103.7 M159.3,102.2
		l-1-3.7l6.1,0.2l0,0L159.3,102.2L159.3,102.2"/>
	<path class="st2" d="M170,127.8c0.7-1,1.1-2.2,1.2-3.5c0.3-4.7-3.4-8.1-8-8.5c-4.4-0.3-8.5,2.7-8.8,7.2c-0.1,1.3,0.2,2.5,0.7,3.7
		l3.7,0.3c-0.9-0.9-1.5-2.3-1.4-3.6c0.2-2.9,3-4.5,5.7-4.3c2.7,0.2,5.4,2.1,5.2,5.1c-0.1,1.3-0.8,2.6-1.9,3.4L170,127.8L170,127.8"
		/>
	<polyline class="st2" points="168.6,135.4 169.4,132.4 154.1,128 152,135.2 154.6,135.9 155.8,131.7 168.6,135.4 168.6,135.4 	"/>
	<path class="st2" d="M157.7,138.8c-3.5-1.7-6.9-1.5-8.8,2.3c-1.9,3.8,0,6.6,3.5,8.3l8.6,4.2l1.4-2.8l-8-3.9c-1.8-0.9-4.2-2.2-3-4.6
		c1.2-2.4,3.7-1.3,5.5-0.5l8,3.9l1.4-2.8L157.7,138.8L157.7,138.8"/>
	<path class="st2" d="M149.4,154.4l-0.3,0.4c-1,1.2-2.1,2.5-3.7,1.2c-1.6-1.3-0.9-2.6,0.2-3.9l0.4-0.5L149.4,154.4L149.4,154.4
		 M145.9,147.6l-3.1,3.8c-1.8,2.3-2.1,4.9,0.3,6.8c1.4,1.1,3.4,1.7,4.8,0.4c-0.1,1.2,0.6,2.3,1.5,3c2.5,2,4.5,1.3,6.4-1l2.4-3
		L145.9,147.6L145.9,147.6 M154.5,158.5l-0.3,0.3c-0.8,1-1.7,1.5-3,0.5c-1.3-1-1.2-1.9-0.2-3.1l0.2-0.3L154.5,158.5L154.5,158.5"/>
	<path class="st2" d="M100,38.5c-43.1,0-78.1,35.1-78.1,78.1c0,41,31.7,74.6,71.8,77.9l3.5,4.1c1.5,1.8,4.1,1.9,5.7,0l3.5-4.1
		c40.2-3.2,71.9-36.9,71.9-77.9C178.1,73.6,143.1,38.5,100,38.5z M100.2,163.2l-10,1.9c-15.4-3.1-28.3-13.5-34.9-27.3
		c13.3-6.4,28.2-10.1,44-10.1c16.2,0,31.5,3.8,45.1,10.6c-6.7,13.7-19.5,23.8-34.9,26.8L100.2,163.2z M50.6,115
		c15-6.4,31.4-10,48.7-10c17.8,0,34.8,3.8,50.1,10.6c0,0.3,0,0.7,0,1c0,7.1-1.5,13.8-4.2,19.9c-13.9-6.9-29.5-10.8-46-10.8
		c-16,0-31.2,3.7-44.8,10.2c-2.5-5.9-3.9-12.5-3.9-19.3C50.5,116.1,50.6,115.6,50.6,115z M50.7,112.8c2-25.4,23.3-45.5,49.3-45.5
		c26.2,0,47.6,20.4,49.3,46.2C134,106.8,117.1,103,99.3,103C82.1,103,65.7,106.5,50.7,112.8z M109.3,191.1l3.9-4.5
		c1.6-1.9,1.5-4.9,0-6.7l-2.8-3.3v-8.5c16.2-3.2,29.7-13.9,36.8-28.3c0,0,0,0,0,0c0-0.1,0.1-0.1,0.1-0.2c0.2-0.5,0.5-1,0.7-1.5
		c0-0.1,0.1-0.1,0.1-0.2c0,0,0,0,0,0c2.9-6.5,4.5-13.7,4.5-21.3c0-28.9-23.5-52.5-52.5-52.5c-28.1,0-51.1,22.2-52.4,49.9
		c0,0,0,0,0,0c0,0.1,0,0.2,0,0.3c0,0.5,0,1.1,0,1.6c0,0.1,0,0.2,0,0.3c0,0,0,0,0,0c0,0.1,0,0.2,0,0.3c0,7.3,1.5,14.3,4.2,20.7
		c0,0,0,0,0,0c0.2,0.5,0.4,0.9,0.6,1.4c0.1,0.1,0.1,0.2,0.2,0.3c0,0.1,0,0.1,0.1,0.2c0,0,0,0,0,0c7.1,14.8,20.9,25.8,37.4,29v8.3
		l-3,3.6c-1.6,1.8-1.5,4.9,0,6.7l3.7,4.4c-37-4.6-65.7-36.2-65.7-74.4c0-41.3,33.6-75,75-75c41.3,0,75,33.6,75,75
		C175,154.9,146.3,186.5,109.3,191.1z"/>
	<path class="st1" d="M112.5,183.2c0-1.7-1.6-4.3-3.4-5.9V167l-9-1.7l-8.9,1.7v9.9c-2,1.6-3.9,4.5-3.9,6.3c0,1.4,0.6,2.6,1.5,3.5
		c1.2,1.7,3.1,3.7,3.8,4.6c1.1,1.4,4.6,6.2,6.5,6.5c0.2,0.1,0.5,0.1,0.8,0.1c0.3,0,0.6,0,0.9-0.1c2-0.5,5.3-5.1,6.3-6.5
		c0.8-1,2.8-3,4-4.8C112,185.7,112.5,184.5,112.5,183.2z"/>
	<g>
		<polygon class="st0" points="94.6,188.3 98,186.6 97.1,185.5 93.8,187.2 92.7,185.8 96,184.1 95.1,183 91.8,184.7 90.7,183.2 
			95.7,180.7 100.8,187.2 95.7,189.7 		"/>
		<path class="st0" d="M95.6,181.2l4.6,5.8l-4.4,2.2l-0.6-0.8c0.9-0.4,2.7-1.4,3.3-1.7c-0.2-0.3-0.7-0.9-1.3-1.7l-3.3,1.7l-0.6-0.8
			l3.3-1.7c-0.6-0.8-1.2-1.5-1.4-1.7c-0.6,0.3-2.4,1.2-3.4,1.7l-0.6-0.8l3.9-1.9L95.6,181.2 M95.8,180.3l-0.5,0.3l-0.5,0.2l-3.9,1.9
			l-0.8,0.4l0.6,0.7l0.6,0.8l0.4,0.5l0.5-0.3c0.8-0.4,2-1,2.8-1.4l0.4,0.4l0.1,0.1l-2.5,1.3l-0.8,0.4l0.6,0.7l0.6,0.8l0.4,0.5
			l0.6-0.3L97,186l0.4,0.5l-1.7,0.8l-0.9,0.4l-0.8,0.4l0.6,0.7l0.6,0.8l0.4,0.5l0.6-0.3l4.4-2.2l0.8-0.4l-0.6-0.7l-4.6-5.8
			L95.8,180.3L95.8,180.3z"/>
	</g>
	<g>
		<polygon class="st0" points="99.4,187.2 104.5,180.7 109.7,183.2 108.6,184.6 105.1,183 104.2,184.1 107.7,185.8 106.5,187.2 
			103.1,185.5 102.3,186.6 105.7,188.3 104.5,189.7 		"/>
		<path class="st0" d="M104.7,181.2l4.5,2.2l-0.6,0.8c-1-0.5-2.8-1.4-3.4-1.7c-0.2,0.3-0.8,1-1.4,1.7l3.4,1.7l-0.6,0.8l-3.4-1.7
			c-0.6,0.7-1.1,1.4-1.3,1.7c0.6,0.3,2.5,1.2,3.4,1.7l-0.6,0.8l-4.4-2.2l4.3-5.4L104.7,181.2 M104.4,180.3l-0.4,0.5l-0.3,0.4
			l-4.3,5.4l-0.6,0.7l0.8,0.4l4.4,2.2l0.5,0.3l0.4-0.5l0.6-0.8l0.6-0.7l-0.8-0.4l-1.9-1l-0.6-0.3l0,0l0.4-0.4l2.9,1.4l0.5,0.3
			l0.4-0.5l0.6-0.8l0.6-0.7l-0.8-0.4l-2.6-1.3l0.3-0.3l0.2-0.2l2,1l0.9,0.4l0.5,0.3l0.4-0.5l0.6-0.8l0.6-0.7l-0.8-0.4l-4.5-2.2
			L104.4,180.3L104.4,180.3z"/>
	</g>
	<path class="st0" d="M103.7,175.9c0,1.1,0,3.1,0,3.9c-0.5,0-1.5,0-2.7,0l0-3.9h-1.6l0,3.9c-1.1,0-2.1,0-2.6,0c0-0.9,0-2.9,0-3.9
		h-1.6l0,5.4h10.1l0-5.4H103.7z"/>
	<path class="st2" d="M52.5,63l-1.4,1.3L51,64.2L49.2,66l0.7,0.7l1.2-1.2l6.3,15.4l2.4-2.2l-1.3-3.4l4.1-3.8l3.2,1.6l2.4-2.3
		L52.5,63z M57.3,72.9l-2.7-5.4l0,0l5.4,2.9L57.3,72.9z"/>
	<path class="st2" d="M60.4,123l0.4-0.1c1.3-0.4,2.8-0.9,3.5,0.7c0.7,1.6-0.5,2.1-1.9,2.6l-0.6,0.2L60.4,123L60.4,123 M60.1,129.1
		l4.1-1.4c2.5-0.8,3.9-2.5,2.8-4.9c-0.6-1.3-1.9-2.5-3.6-2.2c0.6-0.8,0.5-1.9,0.2-2.7c-1.1-2.4-3-2.8-5.5-1.9l-3.3,1.1L60.1,129.1
		L60.1,129.1 M58.3,118l0.3-0.1c1.1-0.4,2-0.3,2.6,0.9c0.5,1.2,0.1,1.8-1.2,2.2l-0.3,0.1L58.3,118L58.3,118"/>
	<path class="st2" d="M70.9,120.6l1.4-0.3c2.9-0.7,4.1-2.3,3.3-5c-0.9-2.8-3.1-3.4-6-2.7l-3.7,0.9l3.8,12.5l2.7-0.6L70.9,120.6
		L70.9,120.6 M69.1,114.8l0.5-0.1c1.5-0.4,2.6-0.4,3.1,1.2c0.5,1.6-0.3,2.1-1.9,2.5l-0.6,0.1L69.1,114.8L69.1,114.8"/>
	<polyline class="st2" points="84,112 83.6,109.9 76.2,111.1 79,123.8 86.4,122.5 85.9,120.4 81.3,121.2 80.6,117.7 85,117 
		84.5,114.8 80.1,115.6 79.5,112.8 84,112 84,112 	"/>
	<path class="st2" d="M94.8,110.1c-1-0.8-2.8-1.2-4.1-1.1c-2.4,0.2-4,2-3.8,4.2c0.2,2,1.6,2.7,3.6,3.3c1.2,0.3,2.6,0.6,2.7,1.9
		c0.1,1-0.5,1.9-1.7,2c-1.2,0.1-2.3-0.7-2.8-1.7l-1.7,1.7c1.1,1.4,2.7,2.3,4.7,2.2c2.9-0.2,4.6-2.2,4.3-4.8c-0.4-4.3-6.1-3-6.3-5.1
		c-0.1-0.8,0.7-1.5,1.6-1.6c0.9-0.1,1.7,0.3,2.3,0.9L94.8,110.1L94.8,110.1"/>
	<polyline class="st2" points="102.4,111.2 105.4,111.3 105.4,109.1 96.8,108.9 96.7,111.1 99.6,111.2 99.4,121.9 102.2,121.9 
		102.4,111.2 102.4,111.2 	"/>
	<path class="st2" d="M105.8,119.4c-0.9-0.1-1.8,0.6-1.8,1.4c-0.1,0.8,0.6,1.6,1.6,1.6c0.9,0.1,1.8-0.6,1.8-1.4
		C107.5,120.1,106.8,119.4,105.8,119.4L105.8,119.4"/>
	<polyline class="st2" points="113.4,109.7 110.6,109.4 109,122.2 111.8,122.5 113.4,109.7 113.4,109.7 	"/>
	<polyline class="st2" points="118.3,116.4 112.4,122.4 115.6,122.9 119.3,118.7 121.2,123.8 124.4,124.3 121.4,116.9 126.6,111.5 
		123.3,111 120.4,114.6 118.9,110.4 115.6,109.8 118.3,116.4 118.3,116.4 	"/>
	<path class="st2" d="M127.4,122.5c-0.9-0.2-1.9,0.2-2.1,1c-0.3,0.8,0.3,1.7,1.2,1.9c0.9,0.2,1.9-0.3,2.1-1.1
		C128.8,123.5,128.3,122.7,127.4,122.5L127.4,122.5"/>
	<polyline class="st2" points="135.4,119.7 135.4,119.7 137.5,114.6 134.9,113.7 129.8,125.9 132.5,126.7 134.7,121.3 134.8,121.3 
		136.8,128.1 140.3,129.2 137.5,120.9 145,117 141.8,115.9 135.4,119.7 135.4,119.7 	"/>
	<path class="st2" d="M143.5,127.7c-0.9-0.4-1.9,0-2.3,0.7c-0.4,0.8,0,1.7,0.8,2c0.9,0.4,1.9,0,2.3-0.8
		C144.7,129,144.3,128.1,143.5,127.7L143.5,127.7"/>
	<polygon class="st2" points="78.7,0 82.1,10.7 93.4,10.7 84.3,17.3 87.8,28 78.7,21.4 69.6,28 73.1,17.3 64,10.7 75.3,10.7 	"/>
	<polygon class="st2" points="121.2,0 124.6,10.7 135.9,10.7 126.8,17.3 130.3,28 121.2,21.4 112.1,28 115.6,17.3 106.5,10.7 
		117.7,10.7 	"/>
</g>
</svg>
