<?xml version="1.0" encoding="utf-8"?>
<!-- Generator: Adobe Illustrator 21.1.0, SVG Export Plug-In . SVG Version: 6.00 Build 0)  -->
<svg version="1.1" id="Layer_1" xmlns="http://www.w3.org/2000/svg" xmlns:xlink="http://www.w3.org/1999/xlink" x="0px" y="0px"
	 viewBox="0 0 200 200" style="enable-background:new 0 0 200 200;" xml:space="preserve">
<style type="text/css">
	.st0{fill:#231F20;}
	.st1{fill:#FFFFFF;}
</style>
<g>
	<g id="g670" transform="translate(653.4861,741.1221)">
		<path id="path672" class="st0" d="M-458.8-706.7c-2.6-1.5-6.7-4.6-8.3-5.5c-3.7-2.1-5.4-3.8-8.9-5.3l-0.8,11.9v81.1
			c-3.1,31.4-16.2,66.5-47.6,77.8c-24.9,10.2-57,5.4-77.3-14.3c-43.2-42.4-23.9-103.1-30.1-157c-5,2.9-8.5,5.4-16.6,11.2
			c0-9,0-23.6,0-34.1h189.4V-706.7z"/>
	</g>
	<g id="g674" transform="translate(598.9146,743.8652)">
		<path id="path676" class="st1" d="M-553.2-716.9l-1.3,1.9v-25.2h1.3V-716.9z"/>
	</g>
	<g id="g678" transform="translate(638.38811,742.8947)">
		<path id="path680" class="st1" d="M-484.9-713.3c7.5,12.1,14.4,24.7,16.6,39.3c1.5,7.7,3,14.9,2.9,24.1h-46.7
			c1.1,3.3,2.4,6.6,3.4,9.4l16,40.8c3.4,8.9,5.6,14.4,8.3,22.2h-22.2c-3.2-7.9-6.8-16.6-10.6-24.9l-2.5,0h-21.4l-1.4,0.1
			c3.2,8.2,7,17,10,24.7h-23.1c-9.2-23.6-19.1-48.6-28.1-72.2l-3.9-0.1l-22.5-0.2c-1.3-11.2,1.5-22.9,4.8-33.3
			c3.3-7.5,6.4-15.2,10-22.5c11.8-20,33.3-33.3,57-33.7C-516.9-742-497.4-729.9-484.9-713.3"/>
	</g>
	<g id="g682" transform="translate(635.8307,752.42841)">
		<path id="path684" class="st1" d="M-489.3-748.9l0,11.8l-1.5-1.3c0-4.2,0-6.3,0-10.4C-489.3-748.9-490.2-748.9-489.3-748.9"/>
	</g>
	<g id="g686" transform="translate(637.3297,746.65179)">
		<path id="path688" class="st1" d="M-486.7-727.3l-1.2-1.1l0-14.6h1.1L-486.7-727.3z"/>
	</g>
	<g id="g690" transform="translate(640.61,742.52451)">
		<path id="path692" class="st1" d="M-481-711.9l-1.6-3l-0.1-24.1l1.7,0.1C-481-730-481-720.9-481-711.9"/>
	</g>
	<g id="g694" transform="translate(650.099,745.1702)">
		<path id="path696" class="st1" d="M-464.6-721.8l-1-0.8v-18.9h1V-721.8z"/>
	</g>
	<g id="g698" transform="translate(589.3289,746.1666)">
		<path id="path700" class="st1" d="M-569.8-725.5l-1.3,1v-18.2h1.3V-725.5z"/>
	</g>
	<g id="g702" transform="translate(592.5824,730.8219)">
		<path id="path704" class="st1" d="M-564.2-668.3l-1.6,5.7c0-20.6,0-44.3,0-64.7c1.4,0,0.7-0.1,1.7-0.1V-668.3z"/>
	</g>
	<g id="g706" transform="translate(642.1268,739.72031)">
		<path id="path708" class="st1" d="M-478.4-701.5l-1.4-3l0-31.7h1.4V-701.5z"/>
	</g>
	<g id="g710" transform="translate(643.6974,736.4037)">
		<path id="path712" class="st1" d="M-475.7-689.1l-1.4-3.3c0-14,0-26.2,0-40.5h1.4L-475.7-689.1z"/>
	</g>
	<g id="g714" transform="translate(645.5136,731.6067)">
		<path id="path716" class="st1" d="M-472.6-671.2l-1.5-4.4V-728c-0.2,0,0.6,0,1.5,0V-671.2z"/>
	</g>
	<g id="g718" transform="translate(647.0657,746.9951)">
		<path id="path720" class="st1" d="M-469.9-728.6l-1.3-0.7l0.1-14.1h1.2V-728.6z"/>
	</g>
	<g id="g722" transform="translate(631.297,732.8499)">
		<path id="path724" class="st0" d="M-497.2-675.8c-15,0-30.1,0-45.2,0.1c1.3,4,0.9,3.1,1.4,4.5l0.9,2.5h25.2l9.2,21.9
			c-8.7,0-15,0-25.7,0.2c4.1,11.9,8.7,22.9,13,34.6h-25c-11.7-28.5-22.7-57.6-34.1-86.3l56.4,0l5,0h10.6L-497.2-675.8z"/>
	</g>
	<g id="g726" transform="translate(585.6866,752.4193)">
		<path id="path728" class="st1" d="M-576.1-748.8v23.1l1.4-0.8v-22.3H-576.1z"/>
	</g>
	<g id="g730" transform="translate(587.2296,752.4193)">
		<path id="path732" class="st1" d="M-573.4-748.8v21l1.6-1.1v-19.9H-573.4z"/>
	</g>
	<g id="g734" transform="translate(590.31599,752.4193)">
		<path id="path736" class="st1" d="M-568.1-748.8v15.8l1.6-1.1v-14.7H-568.1z"/>
	</g>
	<g id="g738" transform="translate(593.79939,752.4193)">
		<path id="path740" class="st1" d="M-562.1-748.8v50.5l1.4-3.5v-47H-562.1z"/>
	</g>
	<g id="g742" transform="translate(595.2549,752.4193)">
		<path id="path744" class="st1" d="M-559.5-748.8v41.2l1.6-3.7v-37.4H-559.5z"/>
	</g>
	<g id="g746" transform="translate(596.9304,752.4193)">
		<path id="path748" class="st1" d="M-556.6-748.8v31.9l1.4-2.3v-29.6H-556.6z"/>
	</g>
	<g id="g750" transform="translate(599.8848,752.4193)">
		<path id="path752" class="st1" d="M-551.5-748.8v20.1l1.6-1.7v-18.4H-551.5z"/>
	</g>
	<g id="g754" transform="translate(601.33949,752.4193)">
		<path id="path756" class="st1" d="M-549-748.8v16.6l1.3-1.7v-14.9H-549z"/>
	</g>
	<g id="g758" transform="translate(602.9713,752.4193)">
		<path id="path760" class="st1" d="M-546.2-748.8v12.2l1.6-1.1v-11.1H-546.2z"/>
	</g>
	<g id="g762" transform="translate(604.515,752.4193)">
		<path id="path764" class="st1" d="M-543.5-748.8v9.4l1.2-1.1v-8.3H-543.5z"/>
	</g>
	<g id="g766" transform="translate(606.14571,752.4193)">
		<path id="path768" class="st1" d="M-540.7-748.8v6.3l1.1-0.7v-5.5H-540.7z"/>
	</g>
	<g id="g770" transform="translate(607.6449,752.4193)">
		<path id="path772" class="st1" d="M-538.1-748.8v4.1l1-0.7v-3.4H-538.1z"/>
	</g>
	<g id="g774" transform="translate(609.05659,752.4193)">
		<path id="path776" class="st1" d="M-535.6-748.8v2.3l1-0.6v-1.7H-535.6z"/>
	</g>
	<g id="g778" transform="translate(630.3981,752.4193)">
		<path id="path780" class="st1" d="M-498.7-748.8h1.4v3.6l-1.4-1V-748.8z"/>
	</g>
	<g id="g782" transform="translate(632.0291,752.4193)">
		<path id="path784" class="st1" d="M-495.9-748.8h1.1v5.7l-1.1-1V-748.8z"/>
	</g>
	<g id="g786" transform="translate(633.5726,752.4193)">
		<path id="path788" class="st1" d="M-493.2-748.8h1.4v8.2l-1.4-1.2V-748.8z"/>
	</g>
	<g id="g790" transform="translate(638.4234,752.4193)">
		<path id="path792" class="st1" d="M-484.8-748.8h1.4v20.1l-1.4-1.9V-748.8z"/>
	</g>
	<g id="g794" transform="translate(648.1687,752.4193)">
		<path id="path796" class="st1" d="M-468-748.8h1.2v17l-1.2-0.8V-748.8z"/>
	</g>
	<g id="g798" transform="translate(651.3867,752.4193)">
		<path id="path800" class="st1" d="M-462.4-748.8h1.4v22.5l-1.4-1.1V-748.8z"/>
	</g>
</g>
</svg>
