<?xml version="1.0" encoding="utf-8"?>
<!-- Generator: Adobe Illustrator 21.1.0, SVG Export Plug-In . SVG Version: 6.00 Build 0)  -->
<svg version="1.1" id="Layer_1" xmlns="http://www.w3.org/2000/svg" xmlns:xlink="http://www.w3.org/1999/xlink" x="0px" y="0px"
	 viewBox="0 0 200 200" style="enable-background:new 0 0 200 200;" xml:space="preserve">
<style type="text/css">
	.st0{fill:#001489;}
	.st1{fill:#FFD100;}
	.st2{fill:#FFFFFF;}
</style>
<g>
	<path class="st0" d="M172.5,119.8c2.5-11.7,3.6-23.8,3.4-35.8c0-16.6,3.9-43.5-9.1-52.4c-4.9-3.3-24.6-10.5-41.7-15.8
		c-0.1-2.4-0.5-4.9-1-7.3c-7.1,1.5-15.3-4.4-23.9-4.5c-8.9,0-17.2,5.7-24.5,4.1c-0.6,2.5-0.9,5.1-1,7.7c-17,5.3-36.7,12.4-41.6,15.8
		c-13,8.9-9.1,35.8-9.1,52.4c-0.3,12,0.9,24,3.4,35.8l-12.1,0.4c1.1,12.6,4.9,24.8,11,35.9l8.4-0.7c2.6,11.7,7,20.5,9.8,22.4
		c8.8,6,18.4,11.8,29.8,15.2c6.7,2,25.7,6.1,25.7,6.1s19-4.2,25.7-6.1c11.4-3.4,20.9-9.2,29.8-15.2c2.8-1.9,7.1-10.7,9.8-22.4
		l8.4,0.7c6.1-11.1,9.8-23.3,11-35.9L172.5,119.8z"/>
	<path class="st1" d="M92,60.2L92,60.2L92,60.2L92,60.2z"/>
	<path class="st1" d="M117.3,106c-0.4-0.6-1-1-1.7-1.2c-3.3-0.8-6.9-0.3-9.9,1.4c-0.2,0.1-0.3,0.2-0.5,0.3c-2.1,1.5-2.2,1.9-0.7,4
		c0.7,1,1.5,2,2.4,3.1c2.8-4.4,7.2-5.2,12.2-4.5C118.6,108,118,107,117.3,106z"/>
	<path class="st1" d="M98.3,99.7c-0.4,0.4-0.5,1.1-0.1,1.5c0,0,0,0,0.1,0.1c0.7,1,1.4,2,2.1,3c2.9-3.2,7-5.1,11.4-5.2
		c-1.4-1.1-2.9-2.1-4.4-3.1c-0.4-0.2-0.9-0.3-1.3-0.2C103.1,96.1,100.3,97.5,98.3,99.7z"/>
	<path class="st1" d="M116.3,104.1c-1-1.3-2.1-2.5-3.4-3.5c-1-0.5-2.2-0.7-3.3-0.5c-3.1,0.4-5.9,1.8-8.1,4c-0.6,0.6-0.8,1.1-0.1,1.9
		c0.5,0.7,1.1,1.4,1.5,2.2C105.9,104.4,109.3,103.4,116.3,104.1z"/>
	<path class="st1" d="M106.1,95c-1.1-0.8-2-1.5-3-2.2c-0.2-0.1-0.4-0.1-0.6,0c-2,0.5-4,0.9-6,1.4c-0.9,0.3-1.9,0.7-2.8,1.1
		c1.3,1.6,2.4,3.1,3.6,4.6C99.4,97,102.6,95.9,106.1,95z"/>
	<path class="st1" d="M86.9,99.8c0.3-0.1,0.5-0.1,0.8-0.3c1.5-1.3,3-2.6,4.5-3.9c0.4-0.4,0.4-0.8,0-1.2c-0.8-1-1.6-2-2.3-3
		c-1.9,1.1-3.8,2.1-5.7,3.2C86.2,95.7,86.6,97.7,86.9,99.8z"/>
	<path class="st1" d="M88,62.9c0.8,0.4,1.6,0.7,2.4,1.1c0.1,0,0.2-0.1,0.3-0.1c-0.4-1.5-0.8-3-1.3-4.7c1.6-0.5,3.2-0.8,4.9-0.7
		c-0.8-0.9-1.6-1.8-2.4-2.8c-1.1-1.4-1.9-1.4-3,0c-0.3,0.4-0.6,0.8-0.8,1.3c-0.3,1.1-1.1,2.1-2.1,2.7c-0.8,0.5-0.4,1.3,0.1,1.8
		C86.7,62,87.4,62.5,88,62.9z"/>
	<path class="st1" d="M94.2,57c0.6,0.6,1.4,1.1,2.2,1.3c-1,0.8-2.6,0.6-3.6,1c-0.5,0.1-1,0.2-1.4,0.2c0.4,1.8,0.7,3.5,1,5.2
		c-0.8,0.9-2,1.4-3.2,1.2c-0.4,0-0.9-0.1-1.5-0.1c0.3-0.1,0.6-0.2,0.8-0.2c0-0.1-0.1-0.2-0.1-0.3c-1.1,0.3-2.2,0.6-3.3,0.9
		c0,0.1,0,0.1,0.1,0.2c-0.2,0.2-0.4,0.5-0.5,0.7c0,0-0.1,0-0.1,0l0,0.1c0,0,0,0,0,0c-0.3,1.3,1,2.7,0.9,2.9c0.1-0.1,0.4,0.5,0,0.7
		c3.3-0.1,5.8,1.6,8.2,3.4c2,1.5,4.4,2.2,6.8,2c0.7,0,1.4,0,2.1-0.1c0.4-0.1,0.7-0.2,1-0.4c-1.2-0.8-2.3-1.7-3.3-2.7
		c-2.4-2.1-4.2-4.9-5.1-8c-0.3-1.3-0.8-2.7-1.2-4.1c1.1-0.3,2.2-1.4,3.9-1c-1.2,0.5-2.2,1-3.1,1.4c0.5,1,0.9,2,1.2,3.1
		c0.7,2.9,2.1,5.5,4.1,7.7c1.2,1.2,2.5,2.4,3.8,3.5c0.3-0.1,0.5-0.3,0.8-0.4c-0.1,0.2-0.3,0.5-0.5,0.7c1,0.2,2,0.5,2.6-0.7
		c0.1-0.2,0.5-0.2,0.8-0.2c0.4-0.1,0.9,0,1.1-0.2c1.4-1.2,3.2-1.8,5.1-1.7c3.9,0.1,7.7,0.4,11.6,0.8c0.9,0.2,1.7,0.5,2.6,0.9
		c1.3-1,2-2.6,1.9-4.3c-0.5,0.2-1,0.4-1.5,0.6c-1.4,0.8-3.1,1-4.6,0.6c-1.4-0.3-4.8-1.5-5.4-1.7c-0.1-0.1,0.3,0,0.6,0.1
		c-0.5-0.3-0.9-0.6-1.3-0.9c-0.3-0.4-0.6-0.8-1-1.2c-0.7-0.6-1.1-1.4-1.2-2.2c-0.1-1.3-0.5-2.5-1.1-3.6c-0.1-0.7-0.2-1.5-0.3-2.2
		c-0.6,0.3-1,0.7-0.9,1.2c-0.3-0.1-0.5-0.2-0.8-0.2c-0.2-0.6-0.3-1.3-0.4-1.9c-1.1,1-2.1,1.9-3.1,2.8c-0.3,0-0.6,0-0.9,0
		c0.1-0.1,0.3-0.3,0.4-0.4c-3-1.2-4.3-3.8-6.1-5.8c0.3,0.7,0.4,1.6,0.1,2.4c-0.2-0.2-0.3-0.4-0.5-0.6c0-0.1,0.1-0.2,0.1-0.4
		c0.1-0.7-1-1.8-2-2c-0.6-0.1-1.3-0.1-2,0c-1.7,0.2-3.4-0.8-4.2-2.3l0,0l0,0l0,0l0,0l0,0c-0.4-0.5-0.8-1-1.5-0.4
		c-0.7,0.4-0.8,1.3-0.4,2c0,0,0,0.1,0.1,0.1C92.9,55.4,93.5,56.2,94.2,57z M92,60.2L92,60.2L92,60.2L92,60.2z M93.7,60.8
		c0.5,1.2,1,2.4,1.3,3.6c0.4,2.2,1.4,4.3,2.8,6c1.2,1.5,2.4,2.9,3.8,4.4c-0.8-0.5-1.4-0.9-2-1.3c-2.6-1.6-4.4-4.1-5.1-7
		c-0.5-2.1-0.9-4.2-1.3-6.4c0.7-0.1,1.5-0.3,2.3-0.4c0,0.1,0,0.2,0.1,0.2C94.9,60.4,94.3,60.6,93.7,60.8z M108.8,63.6
		c1.2,0,2.2,1,2.2,2.2c-0.1,1.1-1.1,1.9-2.2,1.9c-0.1,0-0.1,0-0.2,0c-1.1,0-2-0.9-2-2c0-1.1,0.9-2,2-2
		C108.7,63.6,108.7,63.6,108.8,63.6z M105.4,62.7l-0.3,0.4c-3-1.9-5.4-2.7-7-2.5l-0.1-0.4C99.8,59.9,102.3,60.8,105.4,62.7
		L105.4,62.7z"/>
	<path class="st1" d="M83.5,94.2c2.1-1.1,4-2.2,6-3.3c-0.9-1.5-1.7-2.8-2.6-4.1c-2,0.4-3.9,0.8-5.8,1.2
		C83.4,89.5,83.3,91.8,83.5,94.2z"/>
	<path class="st1" d="M84.7,70.8L84.7,70.8L84.7,70.8L84.7,70.8z"/>
	<path class="st1" d="M84.7,70.8c-1.5-0.9-2-2.8-1.2-4.3c0.2-0.3,0.4-0.6,0.7-0.9c0.9-0.5,2-0.8,3-0.8c0.9,0,1.6,0,2-0.6
		c-1.3-0.9-2.7-1.8-4-2.7c-0.2-0.1-0.5-0.1-0.7,0c-1.1,0.8-2.4,1.4-2.1,3.1c0.1,1-0.5,2-1.4,2.4c-0.8,0.6-1.6,1.3-2.4,2
		c1.3,0.5,2.4,1.1,3.5,1.4C83,70.6,83.8,70.8,84.7,70.8z"/>
	<path class="st1" d="M95,90.2c1.2,0.1,2.4-0.3,3.3-1.1c-1.1-1-2.2-1.9-3.4-3c-1.4,0.8-3,1-4.6,0.7c-0.7,0-1.4,0.1-2.1,0.3
		c0,0.1,0,0.3-0.1,0.4c0.8,1.3,1.7,2.5,2.6,3.9C91.9,90.5,93.5,90,95,90.2z"/>
	<path class="st1" d="M84.6,81.1c-0.1-1.6-0.2-3-0.4-4.4c-0.1-0.3-0.2-0.5-0.5-0.6c-1.8-0.6-3.8-0.8-5.7-0.5
		c0.9,1.6,1.2,3.4,0.7,5.2C80.7,80.9,82.6,81,84.6,81.1z"/>
	<path class="st1" d="M113.6,112.5c0.9-0.6,1.8-1.3,2.7-2c0.3-0.3,0.5-0.5,0.8-0.8c-3.7-0.7-7.4,0.9-9.4,4c-0.1,0.2,0,0.5,0.1,0.7
		c1.1,1.1,2.2,2.1,3.5,3.1C110.5,115.2,111.7,113.7,113.6,112.5z"/>
	<path class="st1" d="M86.5,86.3c-0.5-1.4-1-2.7-1.5-4c-0.1-0.2-0.3-0.4-0.6-0.5c-1.7-0.1-3.3-0.2-5-0.2c-0.2,0-0.4,0.1-0.5,0.2
		c1.5,1.6,2.1,3.7,1.7,5.8C82.7,87,84.6,86.6,86.5,86.3z"/>
	<path class="st1" d="M102.4,92.1c-1.3-0.9-2.4-1.8-3.5-2.6c-1.5,1-3.2,1.5-5,1.3c-1.1-0.1-2.1,0.4-2.7,1.2c0.7,0.9,1.5,1.9,2.3,2.9
		C96,92.9,99.4,93.3,102.4,92.1z"/>
	<path class="st1" d="M85.6,82.4c1.9-1.2,3.9-0.2,5.8-0.5c-0.4-1.2-0.8-2.2-1.2-3.3c-0.1-0.2-0.2-0.3-0.4-0.4
		c-1.6-0.6-3.2-1.2-5.1-1.9C85.1,78.5,85.3,80.4,85.6,82.4z"/>
	<path class="st1" d="M91.9,86.3c0.9,0.1,1.7-0.1,2.4-0.6c-0.7-0.9-1.5-1.9-2.2-2.8c-0.2-0.2-0.4-0.2-0.6-0.2
		c-1-0.1-1.9-0.1-2.9-0.1c-0.5,0-1,0-1.5,0c-0.9,0.1-1.1,0.6-0.8,1.4c0.4,0.8,0.7,1.7,1.1,2.5c0.1,0.1,0.2,0.2,0.3,0.3
		C89,86.1,90.5,86,91.9,86.3z"/>
	<path class="st1" d="M84.2,75.3c0.2-1.1,0.3-2.3,0.5-3.5c-1-0.3-2.1-0.5-3.1-0.9c-1-0.3-1.9-0.8-2.9-1.1c1,1.6,0.5,3.7-1.1,4.7
		c0,0.1,0.1,0.2,0.1,0.3C79.9,75,82,75.2,84.2,75.3z"/>
	<path class="st1" d="M108.9,116.4c-0.9,0.4-1.8,0.9-2.7,1.3l4.4,0.1C110,117.3,109.4,116.8,108.9,116.4z"/>
	<path class="st1" d="M90.5,73.8c0-0.3-0.1-0.5-0.3-0.6c-1.3-0.5-2.6-1-4-1.5c-0.2-0.1-0.7,0.3-0.7,0.5c-0.2,1.2-0.4,2.4-0.5,3.6
		c1.7,0.6,3.4,1.1,5,1.6C90.1,76.2,90.3,75,90.5,73.8z"/>
	<path class="st1" d="M103.6,112.3c0.9-0.8,1-0.9,0.3-1.9c-1.1-1.6-1.1-1.5-2.7-0.4c-1,0.7-2.2,1.3-3.3,1.9c0.8,1,1.7,2,2.5,3
		C101.4,114.1,102.5,113.2,103.6,112.3z"/>
	<path class="st1" d="M87.5,151.6c2.3,0,4.6,0.1,7,0.1c0.3-0.1,0.5-0.2,0.6-0.4c0.2-0.4,0.5-0.7,0.7-1.2l-7.8,0.7
		C87.8,151.1,87.6,151.4,87.5,151.6z"/>
	<path class="st1" d="M117.9,101.4c-0.6-0.7-1.2-0.2-1.8,0.2c-0.6,0.4-0.5,0.8-0.1,1.3c1.3,1.9,2.5,3.9,3.8,6
		C120.5,106.2,119.8,103.4,117.9,101.4z"/>
	<path class="st1" d="M98,116.5c0.7-0.2,1.3-0.3,2.1-0.5c-0.7-1.5-1.7-2.8-3-3.8c-0.1-0.1-0.2-0.1-0.3-0.1c-1.7,0.1-3.1,1.2-3.7,2.9
		C94.9,114.2,96.9,114.9,98,116.5z"/>
	<path class="st1" d="M111.7,95.1c-0.5-0.6-1-0.8-1.7-0.5c-0.6,0.3-1.2,0.6-2,1c1.8,1.4,3.4,2.6,4.9,3.8c0.8-0.4,1.6-0.8,2.5-1.2
		c-0.4-0.2-0.7-0.3-1-0.6C113.4,96.7,112.5,95.9,111.7,95.1z"/>
	<path class="st1" d="M106.6,114c-0.6-0.8-1.1-1.4-1.5-1.9c-1.2,0.9-2.4,1.9-3.5,2.8c-0.7,0.5-0.9,1.5-0.5,2.2
		c0,0.1,0.1,0.1,0.2,0.2C103,116.2,104.7,115.1,106.6,114z"/>
	<path class="st1" d="M103.6,92.4c1.4,1,2.6,1.9,3.6,2.6c1.4-0.6,2.5-1.1,3.8-1.6c-2-0.6-4.1-1.3-6.3-2
		C104.6,91.7,104.1,92,103.6,92.4z"/>
	<path class="st1" d="M108.2,115.8c-0.4-0.4-0.9-0.9-1.2-1.2c-1.5,0.8-2.9,1.6-4.4,2.5c-0.2,0.1-0.5,0.3-0.7,0.5l3.2,0.1
		C106.2,117.2,107.3,116.6,108.2,115.8z"/>
	<path class="st1" d="M83.9,163c1-0.3,2-0.5,3.1-0.6c1,0,2.1,0.1,3.1,0.3c0-0.1,0.1-0.4,0.2-0.6c0.4-1.3-0.3-2.2-1.8-2
		c-0.8,0.1-1.6,0.4-2.3,0.5c-0.6,0.1-1.2,0.1-1.8,0.2C84.2,161.5,84.1,162.1,83.9,163z"/>
	<path class="st1" d="M98.7,88.6c1.6,1.2,2.9,2.2,4.5,3.3c0.7-0.7,1.3-1.2,1.9-1.8c-1.4-0.8-2.8-1.5-4.2-2
		C100.3,87.9,99.6,88.4,98.7,88.6z"/>
	<path class="st1" d="M84.7,160c2.1,0.3,4.3-1.8,6.3,0.4c0.3-0.8,0.5-1.4,0.8-2.1c-2-1.5-4.3-0.5-6.3-0.6
		C85.1,158.5,84.9,159.2,84.7,160z"/>
	<path class="st1" d="M93.5,154.2c0.2-0.5,0.4-1,0.6-1.7c-2-0.1-3.9-0.2-5.9-0.2c-0.8,0-1.5,0.2-1.3,1.3c0,0.2,0,0.5-0.1,0.7
		C89.1,154.3,91.3,154.2,93.5,154.2z"/>
	<path class="st1" d="M86.1,156c-0.2,0.2-0.3,0.5-0.6,0.9c2.3,0.2,4.6-1,6.6,0.7c0.3-0.9,0.6-1.6,0.9-2.5c-2.1-0.4-4.2-0.3-6.3,0.3
		C86.4,155.4,86.2,155.8,86.1,156z"/>
	<path class="st1" d="M89.5,165.7c0.6-2.5-0.6-2.7-2.6-2.5c-1,0.1-2,0.3-2.9,0.5c-0.1,0.8-0.1,1.5-0.2,2.4
		C85.6,166.1,87.4,163.9,89.5,165.7z"/>
	<path class="st1" d="M96.1,84.8c-0.4,0.1-0.9,0.2-1.3,0.4c1,1,2.1,1.9,3.2,2.7c0.4,0.3,1.3-0.1,2.2-0.2C99,86.5,98,85.6,97,84.7
		C96.8,84.6,96.4,84.7,96.1,84.8z"/>
	<path class="st1" d="M117.9,99.8c0.5-0.6,0.3-0.9-0.5-0.9c-1.1,0-2.1,0.2-3.1,0.4c-0.6,0.2-0.8,0.7-0.2,1.2c0.4,0.3,0.7,0.7,1,1
		c0.8-0.4,1.4-0.7,2.1-1.1C117.3,100.2,117.6,100,117.9,99.8z"/>
	<path class="st1" d="M86.6,166c-0.5,0.2-1,0.5-1.4,0.7c-0.5,0.2-1,0.3-1.5,0.5c0.2,0.7,0.5,1.5,0.7,2.3c1.5-0.8,3-1.7,4.6-2.5
		C88.7,165.8,88,165.4,86.6,166z"/>
	<path class="st1" d="M93.8,175.1c0.8,0.3,1.5,0.5,2.3,0.9c-0.1-1.2-0.1-2.6-0.2-4C94.5,171.8,94,172.7,93.8,175.1z"/>
	<path class="st1" d="M94.5,81.7c-0.5-0.4-1.5-0.3-2.2-0.4l-0.2,0.3c0.7,1,1.5,2,2.2,3c0.7-0.3,1.3-0.5,1.9-0.8
		C95.8,83.1,95.2,82.4,94.5,81.7z"/>
	<path class="st1" d="M91.3,73.9c-0.1,0-0.2,0.1-0.3,0.1c-0.1,0.9-0.3,1.7-0.3,2.6c0,1.2,0.2,1.5,1.5,1.4c0.3,0,0.6-0.1,0.9-0.2
		c-0.2-0.9-0.4-1.9-0.7-2.8C92.3,74.5,91.7,74.2,91.3,73.9z"/>
	<path class="st1" d="M87.6,168.2c-0.9,0.5-1.7,1.2-2.5,1.8c0.3,0.6,0.6,1.2,1,2c1.3-1,2.6-2,4-3.1
		C89.4,167.6,88.9,167.4,87.6,168.2z"/>
	<path class="st1" d="M91,175.1c0.6,0.2,1.2,0.3,1.9,0.5c0.4-1.3,0.7-2.6,1.1-3.9C92.8,171.1,91.5,172.5,91,175.1z"/>
	<path class="st1" d="M96.5,173c0.1,0.9,0.2,1.9,0.3,2.8c0.6-0.1,1.2-0.2,2-0.3c-0.3-1.2-0.6-2.5-0.9-3.7
		C96.8,171.7,96.4,172.2,96.5,173z"/>
	<path class="st1" d="M99.1,171c-0.4,0.1-0.7,0.4-0.6,0.8c0,0.1,0,0.2,0.1,0.2c0.3,0.8,0.5,1.7,0.8,2.6c0.6-0.3,1.2-0.7,1.9-1
		c-0.3-0.8-0.7-1.5-1.1-2.3C99.9,171.1,99.5,170.9,99.1,171z"/>
	<path class="st1" d="M90.6,171.2c-0.6,0.8-1.1,1.7-1.7,2.7c0.6,0.2,1,0.4,1.4,0.5c0.7-1.2,1.4-2.3,2.1-3.5
		C91.7,170.4,91.2,170.4,90.6,171.2z"/>
	<path class="st1" d="M99.9,167.4c1.1,0,2.2,0.1,3.3,0.1c-0.3-0.8-0.5-1.9-1.5-2.2c-0.4-0.2-1.2,0.4-1.7,0.7
		c-0.4,0.3-0.5,0.8-0.2,1.1C99.8,167.3,99.9,167.3,99.9,167.4z"/>
	<path class="st1" d="M91.3,170.1c-1.3-0.9-1.4-0.8-3.9,1.7c0.3,0.5,0.7,1.1,1.1,1.7C89.4,172.4,89.5,170.6,91.3,170.1z"/>
	<path class="st1" d="M103.2,168.6c-0.8-0.7-1.9-0.9-2.9-0.4c-0.2,0.6-0.1,0.9,0.5,1.2c0.9,0.4,1.7,0.9,2.5,1.4
		C103.3,170,103.6,169,103.2,168.6z"/>
	<path class="st1" d="M100.3,169.8c-0.1,0-0.3,0-0.4,0.1c-0.1,0.1-0.1,0.2,0,0.3c0.7,1,1.3,2,2,3c0.2,0.2,0.3,0.3,0.5,0.5
		c0.2-0.9,0.6-1.8,0.3-2.2C102,170.9,101.2,170.3,100.3,169.8z"/>
	<path class="st1" d="M90.9,78.7c0.3,0.8,0.5,1.5,0.8,2.2c0.8,0,1.4,0,2.1-0.1C93,78.5,93,78.5,90.9,78.7z"/>
	<path class="st1" d="M97.7,166c0.2-0.7,0.3-1.2,0.5-1.8c-0.5,0.1-1.1,0.3-1.6,0.6c-0.1,0.1,0,0.7,0.2,0.9
		C97,165.9,97.5,165.9,97.7,166z"/>
	<path class="st1" d="M99.2,164.5c-0.6,0.4-0.7,1.2-0.4,1.8c0.7-0.6,1.2-1.2,2-1.9C100.1,164.4,99.5,164.2,99.2,164.5z"/>
	<path class="st1" d="M96.1,165c-0.1,0-0.2,0-0.3-0.1c-0.3,0.2-0.6,0.5-1.2,1c0.7,0.2,1.1,0.3,1.5,0.4C96,165.9,96,165.5,96.1,165z"
		/>
	<path class="st1" d="M95.5,168.4c0.1-1-0.5-0.9-1.1-1.7C94.5,167.4,94.3,168.5,95.5,168.4z"/>
	<path class="st1" d="M91.9,113.6c0,0-0.2-3.1-1.9-3.8c-0.1-0.1-0.4,0.2-0.5,0.1c-0.6-1.3,0.1-1.9-2.2-3.3c-0.1-0.1-0.2-0.4-0.2-0.6
		c0.2-2.1-1.1-4.1-3.1-4.8c0.1-0.3,0.1-0.6,0.1-0.9c0-0.8-0.1-1.6-0.3-2.3l-0.5-0.7c-1.1,0.9-5.8,0-5,1.1c1,1.2,1.4,2.8,1.1,4.3
		c-0.2,0.7,0.1,1.4,0.7,1.7c1.5,1.1,2.2,2.9,2,4.7c0,0.3,0,0.6-0.1,0.9c2,0.7,3.3,2.6,3.1,4.8c0,0.2,0.1,0.4,0.2,0.6
		c0.9,0.6,1.7,1.4,2.3,2.4l3.1-0.1C91.4,116.5,90.6,115.4,91.9,113.6z"/>
	<path class="st1" d="M109.4,66.4c0.2-0.2,0.6-0.5,0.7-0.9c0.2-0.6-0.5-1.3-1.1-1.3c-0.6-0.1-1.1,0.4-1.2,1c0,0,0,0,0,0
		C107.7,65.8,108.3,66.3,109.4,66.4z"/>
	<path class="st1" d="M91.8,107.8c0-0.1,0-0.3-0.1-0.4c-0.1-1.2-0.7-2.3-1.6-3.1c-0.1-0.1-0.2-0.2-0.3-0.3c0,0-0.1,0.1-0.1,0.1
		c-0.9,0.9-1.6,1-0.7,1.9c0.8,0.4,1.3,1.4,1.2,2.3C90.7,108.2,91.3,108,91.8,107.8z"/>
	<path class="st1" d="M90.2,103.7l0.2,0.2c0.5,0.4,0.9,0.9,1.3,1.5c0.3,0.6,0.5,1.2,0.5,1.9c0,0.1,0,0.2,0,0.3
		c2.2-0.8,4.3-1.7,6.5-2.5c1-0.4,1-0.6,0.3-1.5c-0.6-0.9-1.3-1.8-1.9-2.6c-0.3-0.4-0.5-0.9-0.7-1.2c-2.3,1.4-4.2,2.6-6.1,3.7
		C90.5,103.6,90.3,103.6,90.2,103.7z"/>
	<path class="st1" d="M92.9,113.4c0.5-0.4,1-0.8,1.6-1c-0.2-0.7-0.5-1.3-1.1-1.7c-0.3-0.3-0.7-0.7-0.9-1.1c-0.3-0.4-0.4-0.9-0.5-1.3
		c-0.6,0.2-0.8,0.2-1.6,0.6C91.9,108.8,92.4,110.3,92.9,113.4z"/>
	<path class="st1" d="M93.8,110.3c0.6,0.5,1,1.1,1.2,1.8c1.1-0.5,2.2-0.8,3.3-1.2c1.4-0.7,2.8-1.5,4.1-2.4c-0.8-1.1-1.4-2.1-2.1-3
		c-0.2-0.2-0.4-0.2-0.6-0.2c-2.4,0.9-4.9,1.8-7.3,2.8c0.1,0.4,0.2,0.9,0.5,1.2C93.2,109.7,93.4,110,93.8,110.3z"/>
	<path class="st1" d="M79.2,88.2c-0.2,0.7,0.2,1.4,0.8,1.7c1.5,1.1,2.3,2.8,2.2,4.7c0,0.3,0,0.6-0.1,1c2,0.6,3.4,2.5,3.3,4.6
		c0,0.2,0.1,0.4,0.2,0.6c1.2,0.9,2,2.1,2.6,3.5c0.1,0.1,0.2,0.2,0.3,0.3c0.2-0.3,0.5-0.6,0.8-0.9c-0.2-0.2-0.4-0.5-0.5-0.8
		c-0.1-0.3-0.2-0.5-0.2-0.8c0-0.3-0.1-0.5-0.2-0.7c-0.2-0.2-0.4-0.3-0.7-0.3c-0.4-0.1-0.8-0.3-1.1-0.6c-0.3-0.3-0.5-0.8-0.5-1.2
		c0-1.9-1.1-3.5-2.9-4.3c-0.3-0.2-0.5-0.5-0.5-0.9c-0.1-0.7,0-1.4-0.1-2.2c0-1.2-0.7-2.3-1.7-2.9c-0.7-0.3-1.1-1.1-0.9-1.9
		c0.3-1.9-0.4-3.8-1.8-5.1c-1,0.9-1.1,1-0.3,2C79,85.1,79.5,86.7,79.2,88.2z"/>
	<path class="st1" d="M88.9,101c0.2,0.3,0.3,0.7,0.3,1c0,0.2,0.1,0.4,0.1,0.6c0.1,0.2,0.3,0.5,0.5,0.6c1.1-0.9,2.3-1.6,3.5-2.2
		c2.9-1.4,2.9-1.6,1-4c-0.4-0.5-0.8-1-1.1-1.3c-1.7,1.4-3.4,2.8-5.1,4.1c-0.2,0.2-0.4,0.3-0.7,0.4c0.1,0,0.3,0.1,0.4,0.1
		C88.3,100.6,88.6,100.7,88.9,101z"/>
	<path class="st1" d="M94.4,11.1h11.2c0.1,0,0.4-0.5,0.4-0.7V8.7h-1.8v1.8h-1.6c0.1,0,0-1.3,0-1.8h-1.6v1.5
		c-0.1,0.1-0.2,0.2-0.3,0.3h-1.1c-0.2,0-0.3-0.1-0.4-0.2V8.6h-1.8v1.8c-0.5,0-1,0-1.5-0.1V8.7H94C94.1,9.5,93.8,10.4,94.4,11.1z"/>
	<path class="st1" d="M114.7,29.5c-0.6,0-1.2,0-1.8,0c-0.6,0-1.1,0.2-1.7,0.2c-1.6,0-3.2,0-4.8,0h-2.3c0.1,0.5-0.2,1,0.4,1.4h11.1
		v-1.4C115.2,29.6,114.9,29.6,114.7,29.5z"/>
	<path class="st1" d="M89.6,29.9c-1.6,0.1-3.3,0.1-5,0c0,0.4,0,0.8,0,1.2H96c0.5-0.6,0.5-0.7,0-1.4C93.8,29.9,91.7,29.6,89.6,29.9z"
		/>
	<path class="st1" d="M102.8,23.8c0,0-0.1-0.1-0.2-0.1c-0.3,0.2-0.7,0.3-1.1,0.5v5.7h1.3C102.9,27.9,102.9,25.9,102.8,23.8
		C102.9,23.9,102.9,23.9,102.8,23.8z"/>
	<path class="st1" d="M97.4,23.8C97.4,23.9,97.3,23.9,97.4,23.8c-0.1,2.1-0.1,4.1-0.1,6.1h1.3v-5.7c-0.4-0.2-0.7-0.4-1.1-0.5
		C97.5,23.8,97.4,23.8,97.4,23.8z"/>
	<path class="st1" d="M112.8,15.5c0-0.2,0-0.3,0-0.4h-7v0.7c0.8-0.2,1.6,0.6,2.4-0.1c1.4,0.4,2.9,0.4,4.4,0h-1c-0.4,0-0.8,0-1.2,0
		c-0.3,0-0.6,0-0.9-0.1c0-0.1,0-0.1,0-0.2L112.8,15.5z"/>
	<path class="st1" d="M89.6,26.9h2.3v-2h-2.3V26.9z"/>
	<path class="st1" d="M96.7,31.1h7v-0.6h-7V31.1z"/>
	<path class="st1" d="M91.7,16.4c0.3,1,2.5,7.9,2.7,8.4c0.4-0.3,0-1.3-0.2-1.9c-0.4-1.3-0.8-2.6-1.2-3.9c-0.2-0.6-0.4-1.2-0.6-1.9
		C92.4,16.9,92.4,16.4,91.7,16.4z"/>
	<path class="st1" d="M103.9,11.9c-1.7-0.2-3.2,0.3-4.8,0.2c-1.1-0.1-2.1,0-3.2,0v0.4h8c0.1-0.1,0.2-0.2,0.3-0.3
		C104,12,103.9,11.9,103.9,11.9z"/>
	<path class="st1" d="M95.7,25h-1.8v2H96C95.9,26.3,95.8,25.6,95.7,25z"/>
	<path class="st1" d="M114.9,25h-2.2v2h2.6C115.2,26.3,115.1,25.6,114.9,25z"/>
	<path class="st1" d="M87.2,25H85c-0.2,0.7-0.3,1.3-0.4,2h2.6V25z"/>
	<polygon class="st1" points="104,22.4 96.2,22.4 96,22.8 104,22.8 	"/>
	<path class="st1" d="M104,17.2h-7.7c-0.1,0.1-0.1,0.2-0.3,0.4h8V17.2z"/>
	<path class="st1" d="M89.8,16.5c-0.1,0-0.2,0-0.4-0.1c-0.8,2.8-1.6,5.5-2.4,8.2c0.1,0,0.2,0,0.4,0.1C88.2,22,89,19.2,89.8,16.5z"/>
	<path class="st1" d="M94.3,15.3h-6.8v0.4h6.8V15.3z"/>
	<path class="st1" d="M88.1,23.9c0.8-0.9,4.1-5.3,4.1-5.3l-0.1-0.4c0,0-2.9,3.7-3.6,4.5C88.3,23.1,87.9,23.3,88.1,23.9z"/>
	<path class="st1" d="M103.3,23.2c-0.9,0.1-1.8,0.2-2.9,0.4c0.4,0.2,0.7,0.3,1,0.4c1.3-0.6,1.4-0.6,2.1-0.1v6h0.2c0-2.1,0-4.1,0-6.2
		C103.7,23.6,103.5,23.5,103.3,23.2z"/>
	<path class="st1" d="M96.7,23.6v6.6c0.1,0,0.1,0,0.2,0c0-1.1,0-2.2,0-3.3c-0.1-1.1,0-2.2,0.2-3.3L96.7,23.6z"/>
	<polygon class="st1" points="109.9,14.8 110.1,13.7 108.4,13.7 108.6,14.8 	"/>
	<polygon class="st1" points="91.6,14.8 91.7,13.7 90.1,13.7 90.2,14.8 	"/>
	<path class="st1" d="M105.8,14.8h1.2v-0.8h-1.3C105.8,14.3,105.8,14.5,105.8,14.8z"/>
	<path class="st1" d="M91.6,16h-4.1c0,0.1,0,0.1,0,0.2c0.7,0,1.4,0,2,0C90.3,16.3,91,16.2,91.6,16z"/>
	<path class="st1" d="M100.9,30.2c0.1,0,0.1-0.1,0.2-0.1c0-0.1,0-0.2-0.1-0.3h-2.1C99.5,30.5,100.2,30.1,100.9,30.2z"/>
	<path class="st1" d="M85.5,19.9c0.1-0.2,0.2-0.4,0.3-0.5c-0.2-0.2-0.4-0.3-0.6-0.5c-0.2,0.2-0.6,0.5-0.6,0.5s0.3,0.5,0.3,0.5
		L85.5,19.9z"/>
	<path class="st1" d="M115.1,19.9c0.1-0.2,0.2-0.4,0.3-0.5c-0.2-0.2-0.4-0.3-0.6-0.5c-0.2,0.2-0.6,0.5-0.6,0.5s0.3,0.5,0.3,0.5
		L115.1,19.9z"/>
	<path class="st1" d="M109.6,11.1c0.1-0.2,0.2-0.4,0.3-0.5c-0.2-0.2-0.4-0.3-0.6-0.5c-0.2,0.2-0.6,0.5-0.6,0.5s0.3,0.5,0.3,0.5
		H109.6z"/>
	<path class="st1" d="M91,11.1c0.1-0.2,0.2-0.4,0.3-0.5c-0.2-0.2-0.4-0.3-0.6-0.5c-0.2,0.2-0.6,0.5-0.6,0.5s0.3,0.5,0.3,0.5H91z"/>
	<path class="st1" d="M100,23.6h-2c0.4,0.3,0.8,0.5,1,0.6C99.3,24,99.6,23.8,100,23.6z"/>
	<path class="st1" d="M92.9,17.9c0.3-0.4,0.8-1,1.2-1.6C93.1,16.8,92.5,17.5,92.9,17.9z"/>
	<path class="st1" d="M100.9,11.7c0.4,0,0.8-0.1,1.2-0.2h-3c-0.2,0,0.3,0.3,0.7,0.3C99.9,11.8,100.8,11.7,100.9,11.7z"/>
	<path class="st1" d="M100.1,21.3h0.1v-1.6h-0.1L100.1,21.3z"/>
	<path class="st1" d="M87.5,27h1.8c0-0.1,0-0.1,0-0.2c-0.6,0-1.1,0-1.7,0C87.6,26.8,87.6,26.9,87.5,27z"/>
	<path class="st1" d="M106.3,27h1.8c0-0.1,0-0.1,0-0.2c-0.6,0-1.1,0-1.7,0C106.4,26.8,106.4,26.9,106.3,27z"/>
	<path class="st1" d="M99.8,18.3c0.1,0.2,0.2,0.4,0.4,0.7c0.1-0.2,0.2-0.4,0.4-0.7H99.8z"/>
	<path class="st1" d="M99.8,13.2c0.1,0.2,0.2,0.4,0.4,0.7c0.1-0.2,0.2-0.4,0.4-0.7H99.8z"/>
	<path class="st1" d="M100.5,21.9c-0.1-0.1-0.2-0.2-0.4-0.3c-0.1,0.1-0.2,0.2-0.4,0.3H100.5z"/>
	<path class="st1" d="M100,16h0.2v-1.6H100V16z"/>
	<path class="st1" d="M100.5,16.6c-0.1-0.1-0.2-0.2-0.4-0.3c-0.1,0.1-0.2,0.2-0.4,0.3H100.5z"/>
	<path class="st1" d="M104,11.5h1.4v-0.1H104V11.5z"/>
	<path class="st1" d="M96.1,11.4h-1.4v0.1h1.4V11.4z"/>
	<path class="st1" d="M97.2,9.9h-0.8v0.2h0.8V9.9z"/>
	<path class="st1" d="M103.6,9.9h-0.8v0.2h0.8V9.9z"/>
	<path class="st1" d="M100.8,9.9h-1.3v0.2h1.3V9.9z"/>
	<path class="st1" d="M100.1,29.3c0,0.1,0,0.1,0,0.2c0.2,0,0.5-0.1,0.7-0.1c0,0,0-0.1,0-0.1L100.1,29.3z"/>
	<path class="st1" d="M94.3,13.9H93v0.8h1.2C94.2,14.5,94.3,14.3,94.3,13.9z"/>
	<path class="st1" d="M112.9,13.9h-1.3v0.8h1.2C112.9,14.5,112.9,14.3,112.9,13.9z"/>
	<path class="st1" d="M88.8,14.8v-0.8h-1.3c0,0.3,0,0.6,0.1,0.8H88.8z"/>
	<path class="st1" d="M87.8,16.7l1,1.2c0-0.1,0.1-0.4,0.1-0.4L88,16.5L87.8,16.7z"/>
	<polygon class="st1" points="89.4,18.7 90.5,20 90.5,20 90.7,19.7 89.5,18.3 	"/>
	<polygon class="st1" points="93.6,23.4 91.1,20.3 90.9,20.6 93.8,24.1 	"/>
	<path class="st1" d="M108.1,14.8c0-0.1,0-0.1,0-0.2c-0.1,0-0.3,0.1-0.4,0.1c0,0,0,0.1,0,0.1H108.1z"/>
	<path class="st1" d="M111,14.7c-0.1,0-0.3-0.1-0.4-0.1l0,0.2h0.4C111,14.7,111,14.7,111,14.7z"/>
	<path class="st1" d="M89.7,14.8c0-0.1,0-0.1,0-0.2c-0.1,0-0.3,0.1-0.4,0.1c0,0,0,0.1,0,0.1H89.7z"/>
	<path class="st1" d="M92.6,14.7c-0.1,0-0.3-0.1-0.4-0.1c0,0.1,0,0.1,0,0.2h0.4C92.6,14.7,92.6,14.7,92.6,14.7z"/>
	<path class="st1" d="M111.4,19c-0.2-0.6-0.4-1.2-0.6-1.9c0-0.2,0-0.7-0.7-0.7c0.3,1,2.5,7.9,2.7,8.4c0.4-0.3,0-1.3-0.2-1.9
		C112.2,21.6,111.8,20.3,111.4,19z"/>
	<path class="st1" d="M105.9,24.7c0.8-2.8,1.6-5.5,2.4-8.2c-0.1,0-0.2,0-0.4-0.1c-0.8,2.8-1.6,5.5-2.4,8.2
		C105.6,24.7,105.7,24.7,105.9,24.7z"/>
	<path class="st1" d="M107,22.8c-0.3,0.3-0.6,0.6-0.4,1.1c0.8-0.9,4.1-5.3,4.1-5.3l-0.1-0.4C110.5,18.3,107.7,21.9,107,22.8z"/>
	<path class="st1" d="M111.4,17.9c0.3-0.4,0.8-1,1.2-1.6C111.6,16.8,111,17.5,111.4,17.9z"/>
	<path class="st1" d="M107.2,17.9c0-0.1,0.1-0.4,0.1-0.4l-0.9-1.1H106L107.2,17.9z"/>
	<polygon class="st1" points="109.1,19.7 108,18.3 107.8,18.7 108.9,20 108.9,20 	"/>
	<polygon class="st1" points="109.6,20.3 109.4,20.6 112.3,24.1 112.1,23.4 	"/>
	<path class="st1" d="M104,27h2.1v-2h-1.8C104.3,25.6,104.1,26.3,104,27z"/>
	<path class="st1" d="M108.4,26.9h2.3v-2h-2.3V26.9z"/>
	<path class="st1" d="M93.6,26.8c0,0-0.8-0.3-1.3-0.4c-0.1,0.2-0.2,0.5-0.2,0.5L93.6,26.8z"/>
	<path class="st1" d="M112.3,26.9c0,0-0.1-0.3-0.2-0.5c-0.4,0.1-1.3,0.4-1.3,0.4L112.3,26.9z"/>
	<path class="st1" d="M114.2,28.6c0.1-0.1,0.2-0.3,0.2-0.3c-0.2-0.1-0.3-0.2-0.5-0.3c-0.1,0.1-0.5,0.3-0.5,0.3s0.2,0.3,0.2,0.3
		H114.2z"/>
	<path class="st1" d="M111.9,28.6c0.1-0.1,0.2-0.3,0.2-0.3c-0.2-0.1-0.3-0.2-0.5-0.3c-0.1,0.1-0.5,0.3-0.5,0.3s0.2,0.3,0.2,0.3
		H111.9z"/>
	<path class="st1" d="M109.8,28.6c0.1-0.1,0.2-0.3,0.2-0.3c-0.2-0.1-0.3-0.2-0.5-0.3c-0.1,0.1-0.5,0.3-0.5,0.3s0.2,0.3,0.2,0.3
		H109.8z"/>
	<path class="st1" d="M107.5,28.6c0.1-0.1,0.2-0.3,0.2-0.3c-0.2-0.1-0.3-0.2-0.5-0.3l-0.5,0.3c0,0,0.2,0.3,0.2,0.3H107.5z"/>
	<path class="st1" d="M105.2,28.6c0.1-0.1,0.2-0.3,0.2-0.3c-0.2-0.1-0.3-0.2-0.5-0.3c-0.1,0.1-0.5,0.3-0.5,0.3s0.2,0.3,0.2,0.3
		H105.2z"/>
	<path class="st1" d="M109.7,27.7c0.3,0.1,0.5,0.2,0.7,0.3c-0.1,0.2-0.2,0.5-0.4,0.7h1.1c-0.1-0.3-0.2-0.5-0.3-0.8
		c0.2-0.1,0.4-0.1,0.7-0.3H109.7z"/>
	<path class="st1" d="M111.9,27.7c0.3,0.1,0.5,0.2,0.7,0.3c-0.1,0.2-0.2,0.5-0.4,0.7h1.1c-0.1-0.3-0.2-0.5-0.3-0.8
		c0.2-0.1,0.4-0.1,0.7-0.3H111.9z"/>
	<path class="st1" d="M107.5,27.7c0.3,0.1,0.5,0.2,0.7,0.3c-0.1,0.2-0.2,0.5-0.4,0.7h1.1c-0.1-0.3-0.2-0.5-0.3-0.8
		c0.2-0.1,0.4-0.1,0.7-0.3H107.5z"/>
	<path class="st1" d="M105.2,27.7c0.3,0.1,0.5,0.2,0.7,0.3c-0.1,0.2-0.2,0.5-0.4,0.7h1.1c-0.1-0.3-0.2-0.5-0.3-0.8
		c0.2-0.1,0.4-0.1,0.7-0.3H105.2z"/>
	<path class="st1" d="M115.3,28.8v-1h-1.1c0.3,0.1,0.5,0.2,0.7,0.3c-0.1,0.2-0.2,0.5-0.4,0.7H115.3z"/>
	<path class="st1" d="M104,27.7v1h0.4c-0.1-0.3-0.2-0.5-0.3-0.8c0.2-0.1,0.4-0.1,0.7-0.3H104z"/>
	<path class="st1" d="M85.4,28.3c0.1,0.1,0.2,0.2,0.2,0.3h0.4c0,0,0.2-0.3,0.2-0.3s-0.3-0.2-0.5-0.3C85.8,28,85.6,28.1,85.4,28.3z"
		/>
	<path class="st1" d="M88.4,28.6c0,0,0.2-0.3,0.2-0.3s-0.3-0.2-0.5-0.3c-0.2,0.1-0.3,0.2-0.5,0.3c0.1,0.1,0.2,0.2,0.2,0.3H88.4z"/>
	<path class="st1" d="M90.6,28.6c0,0,0.2-0.3,0.2-0.3s-0.3-0.2-0.5-0.3c-0.2,0.1-0.3,0.2-0.5,0.3c0.1,0.1,0.2,0.2,0.2,0.3H90.6z"/>
	<path class="st1" d="M92.9,28.6c0,0,0.2-0.3,0.2-0.3s-0.3-0.2-0.5-0.3c-0.2,0.1-0.3,0.2-0.5,0.3c0.1,0.1,0.2,0.2,0.2,0.3H92.9z"/>
	<path class="st1" d="M95.2,28.6c0,0,0.2-0.3,0.2-0.3S95.1,28,95,27.9c-0.2,0.1-0.3,0.2-0.5,0.3c0.1,0.1,0.2,0.2,0.2,0.3H95.2z"/>
	<path class="st1" d="M88.3,27.7c0.3,0.1,0.5,0.2,0.7,0.3c-0.1,0.2-0.2,0.5-0.3,0.8h1.1c-0.1-0.3-0.2-0.5-0.4-0.7
		c0.2-0.1,0.4-0.2,0.7-0.3H88.3z"/>
	<path class="st1" d="M86.2,27.7c0.3,0.1,0.5,0.2,0.7,0.3c-0.1,0.2-0.2,0.5-0.3,0.8h1.1c-0.1-0.3-0.2-0.5-0.4-0.7
		c0.2-0.1,0.4-0.2,0.7-0.3H86.2z"/>
	<path class="st1" d="M90.6,27.7l0.7,0.3c-0.1,0.2-0.2,0.5-0.3,0.8h1.1c-0.1-0.3-0.2-0.5-0.4-0.7c0.2-0.1,0.4-0.2,0.7-0.3H90.6z"/>
	<path class="st1" d="M92.9,27.7c0.3,0.1,0.5,0.2,0.7,0.3c-0.1,0.2-0.2,0.5-0.3,0.8h1.1c-0.1-0.3-0.2-0.5-0.4-0.7
		c0.2-0.1,0.4-0.2,0.7-0.3H92.9z"/>
	<path class="st1" d="M85,28c0.2-0.1,0.4-0.2,0.7-0.3h-1.1v1h0.8C85.2,28.5,85.1,28.3,85,28z"/>
	<path class="st1" d="M95.9,28.8v-1h-0.7l0.7,0.3c-0.1,0.2-0.2,0.5-0.3,0.8H95.9z"/>
	<path class="st1" d="M99.3,18.3c-1,0-1.9,0-2.7,0v3.6h2.5c-0.5-0.3-0.4-1.8-0.4-2.7C98.7,18.9,98.8,18.6,99.3,18.3z M98.5,18.5
		c-0.1,0.1-0.2,0.3-0.3,0.4c0.1,0.2,0.4,0.7,0.4,0.7h-1.7c0,0,0.2-0.4,0.3-0.7c-0.1-0.1-0.2-0.3-0.3-0.4H98.5z M96.8,21.7
		c0.1-0.3,0.2-0.4,0.3-0.6c-0.1-0.1-0.2-0.3-0.3-0.5h1.5c-0.1,0.2-0.1,0.2-0.2,0.5c0.1,0.1,0.2,0.4,0.3,0.6H96.8z"/>
	<path class="st1" d="M97.4,20.9l-0.1,0.4H98c0-0.2-0.1-0.4-0.1-0.4H97.4z"/>
	<path class="st1" d="M97.9,18.8h-0.5l-0.1,0.4H98C98,19.1,97.9,18.8,97.9,18.8z"/>
	<path class="st1" d="M103.7,21.9v-3.6c-0.7,0-1.7,0-2.7,0c0.6,0.3,0.6,0.6,0.6,0.9c0,0.9,0.1,2.4-0.4,2.7H103.7z M101.9,18.6h1.6
		c-0.1,0.1-0.2,0.3-0.3,0.4c0.1,0.3,0.3,0.7,0.3,0.7h-1.7c0,0,0.3-0.5,0.4-0.7C102.1,18.9,102,18.7,101.9,18.6L101.9,18.6z
		 M102.1,21.1c-0.1-0.2-0.1-0.3-0.2-0.5h1.5c-0.1,0.2-0.2,0.3-0.3,0.5c0.1,0.2,0.2,0.4,0.3,0.6h-1.8C101.9,21.4,102,21.2,102.1,21.1
		L102.1,21.1z"/>
	<path class="st1" d="M102.5,20.9c0,0-0.1,0.3-0.1,0.4h0.6l-0.1-0.4H102.5z"/>
	<path class="st1" d="M102.9,18.8h-0.5c0,0-0.1,0.3-0.1,0.4h0.6L102.9,18.8z"/>
	<path class="st1" d="M97.4,15.7l-0.1,0.4H98c0-0.2-0.1-0.4-0.1-0.4H97.4z"/>
	<path class="st1" d="M97.9,13.6h-0.5L97.4,14H98C98,13.9,97.9,13.6,97.9,13.6z"/>
	<path class="st1" d="M102.5,15.7c0,0-0.1,0.3-0.1,0.4h0.6l-0.1-0.4H102.5z"/>
	<path class="st1" d="M102.9,13.6h-0.5c0,0-0.1,0.3-0.1,0.4h0.6L102.9,13.6z"/>
	<path class="st1" d="M103.7,16.7v-3.5h-2.5c0.3,0.2,0.4,0.5,0.4,0.8c0,0.9,0.1,2.4-0.4,2.7L103.7,16.7z M101.9,13.4h1.6
		c-0.1,0.1-0.2,0.3-0.3,0.4c0.1,0.3,0.3,0.7,0.3,0.7h-1.7c0,0,0.3-0.5,0.4-0.7C102.1,13.7,102,13.5,101.9,13.4L101.9,13.4z
		 M102.1,15.9c-0.1-0.2-0.1-0.3-0.2-0.5h1.5c-0.1,0.2-0.2,0.3-0.3,0.5c0.1,0.2,0.2,0.4,0.3,0.6h-1.8C101.9,16.3,102,16,102.1,15.9z"
		/>
	<path class="st1" d="M99.1,13.2h-2.4v3.5h2.5c-0.5-0.3-0.4-1.8-0.4-2.7C98.7,13.7,98.8,13.4,99.1,13.2z M98.5,13.3
		c-0.1,0.1-0.2,0.3-0.3,0.4c0.1,0.2,0.4,0.7,0.4,0.7h-1.7c0,0,0.2-0.4,0.3-0.7c-0.1-0.1-0.2-0.3-0.3-0.4L98.5,13.3z M96.8,16.5
		c0.1-0.3,0.2-0.4,0.3-0.6c-0.1-0.1-0.2-0.3-0.3-0.5h1.5c-0.1,0.2-0.1,0.2-0.2,0.5c0.1,0.1,0.2,0.4,0.3,0.6H96.8z"/>
	<path class="st1" d="M47.2,179.4c0-0.7,0.1-1.4,0.1-2.1c0-9.8,2-16.8,8.7-23.7L39,155C38.1,164.9,43.1,174.7,47.2,179.4z"/>
	<path class="st1" d="M162.2,30.3c-4-2.1-18.5-5.5-32.8-8.4c0.1,0.5,0.2,1.1,0.3,1.6c9.3,3.4,17.6,6.8,20.2,8.2
		c9.7,5.1,6.8,20.4,6.8,29.8c0,18.1-3.6,29.5-17.3,42.8c0.1,0.2,0.2,0.3,0.3,0.5c1.5,3,2.5,6.2,3,9.5c0,0.1,0,0.1,0,0.2
		c0.4,0.9,0.6,1.8,0.6,2.7c0,0.2,0,0.4,0.1,0.5c0.1,0.4,0.1,0.8,0.2,1.3l7.2,0.2c15.7-15.9,19.9-29.8,19.9-51.7
		C170.7,55.7,174.3,36.7,162.2,30.3z"/>
	<path class="st1" d="M127.7,22.4C127.7,22.3,127.7,22.3,127.7,22.4C127.7,22.3,127.7,22.3,127.7,22.4z"/>
	<path class="st1" d="M152.8,177.3c0,0.7,0,1.3,0.1,2.1c4.1-4.7,9.1-14.4,8.4-24.3l-17.2-1.5C150.8,160.5,152.8,167.5,152.8,177.3z"
		/>
	<path class="st1" d="M72.4,21.9c0,0.1,0,0.1,0,0.2C72.4,22,72.4,21.9,72.4,21.9z"/>
	<path class="st1" d="M72.4,22.8L72.4,22.8L72.4,22.8z"/>
	<path class="st1" d="M43.3,61.6c0-9.5-2.9-24.7,6.8-29.8c2.6-1.4,11-4.8,20.3-8.2c0.1-0.5,0.1-1,0.2-1.6
		c-14.2,2.9-28.8,6.3-32.7,8.4c-12.1,6.3-8.5,25.4-8.5,37.1c0,21.8,4.2,35.8,19.9,51.7l11.5-0.4c0.1-0.7,0.3-1.4,0.4-2.2
		c0.1-0.2,0.1-0.5,0.2-0.8c0.3-1.7,0.8-3.4,1.6-4.9l0,0c0.4-1,0.8-2.1,1.3-3c-1.2-1.1-2.4-2.2-3.6-3.3
		C46.9,91.1,43.3,79.7,43.3,61.6z"/>
	<path class="st1" d="M99.9,47.2L99.9,47.2c-0.1,0-0.1,0-0.2,0C99.7,47.1,99.8,47.1,99.9,47.2z"/>
	<path class="st1" d="M127.7,25.5c0-4.7-0.5-16.1-1.6-19.6c-7.7,1.7-16.5-4.9-25.8-5c-9.6,0-18.6,6.4-26.5,4.6
		c-1.2,3.6-1.4,15.1-1.4,19.8c0,5.2-1.5,13.6,3.3,16.4c1.5,0.7,3,1.2,4.5,1.6c-0.9-0.2-1.8-0.6-2.7-1c-4.4-2.5-3-10.1-3-14.7
		c0-4.3,0.2-16.1,1.3-19.3c7.3,1.7,15.6-4.1,24.5-4.1c8.6,0,16.8,6,23.9,4.5c1,3.2,1.5,14.9,1.5,19.1c0,4.7,1.3,12.2-3.1,14.7
		c-0.8,0.4-1.7,0.7-2.6,0.9c1.5-0.3,3.1-0.8,4.5-1.5C129.1,39.1,127.7,30.7,127.7,25.5z"/>
	<path class="st1" d="M15.4,120.2l84.6-2.7l84.6,2.7l-0.2,0v-0.1c-3.2-1.6-6.2-3.6-9-5.9c-0.4-0.3-1-1.2-1.5-1.6
		c-0.4,2.4-0.8,4.7-1.4,6.9l-72.5-4.1l-72.6,4c-0.5-2.3-1-4.6-1.4-7c-0.4,0.3-1.2,1.4-1.7,1.8c-2.8,2.3-5.8,4.2-9,5.9L15.4,120.2
		c0,0.4,0.1,0.8,0.1,1.2C15.5,121,15.4,120.6,15.4,120.2z"/>
	<polygon class="st1" points="26.4,156.1 100,151.5 173.6,156.1 100,149.8 	"/>
	<path class="st2" d="M125.8,68c4.4-4,9.9-6.7,15.7-7.7c0,0,7.3-1.1,12.7-1.4c0-0.3,0-0.6,0-0.9c0-0.9,0.1-1.7,0.1-2.6
		c-1-0.1-1.9-0.1-2.9-0.1C139.4,55,125.8,68,125.8,68z"/>
	<path class="st2" d="M176.4,60.4c-0.8-0.3-1.7-0.6-2.5-0.9c0,1.2-0.1,2.3-0.2,3.5c0,0.4,0,0.7,0,1c1,0.3,1.9,0.7,2.7,1
		C176.4,63.4,176.4,61.9,176.4,60.4z"/>
	<path class="st2" d="M174,52c0.7,0.1,1.4,0.3,2,0.5c-0.1-1.5-0.3-3-0.6-4.4c-0.6-0.1-1.1-0.2-1.7-0.4C173.8,49.1,173.9,50.5,174,52
		z"/>
	<path class="st2" d="M145,46.6c-11.9,1.9-22.9,17.1-22.9,17.1c5.2-7,13.2-11.3,23.9-13c2.8-0.4,5.6-0.7,8.4-0.7
		c0-1.4-0.1-2.8-0.3-4.2C151.1,45.9,148,46.1,145,46.6z"/>
	<path class="st2" d="M76.6,54.4c-4,7.7-11.3,13.3-21.6,16.6c-2.8,0.9-5.7,1.6-8.6,2.1c0.1,1.4,0.3,2.8,0.5,4.2
		c3.3-0.5,6.5-1.3,9.7-2.4C68.1,71.3,76.6,54.4,76.6,54.4z"/>
	<path class="st2" d="M26.6,74.2c-0.6,0-1.2-0.1-1.8-0.1c-0.3,0-0.6-0.1-1-0.1c0.1,1.4,0.1,2.8,0.1,4.2c0.2,0,0.3,0,0.5,0
		c0.7,0.1,1.5,0.1,2.3,0.1C26.7,77.1,26.6,75.7,26.6,74.2z"/>
	<path class="st2" d="M119.2,60.9c4-7.7,11.3-13.3,21.6-16.6c4.1-1.3,8.2-2.2,12.5-2.7c-0.4-1.4-1.2-2.8-2.1-3.9
		c-4.1,0.6-8.1,1.5-11.9,2.7C127.7,44.1,119.2,60.9,119.2,60.9z"/>
	<path class="st2" d="M172.5,41.4c0.4,0,0.8,0.1,1.2,0.2c-0.5-1.5-1.2-3-2-4.4c-0.2,0-0.3,0-0.5,0c-0.1,0-0.3,0-0.4,0
		C171.6,38.5,172.1,39.9,172.5,41.4z"/>
	<path class="st2" d="M73.7,51.7c-5.2,7-13.2,11.3-23.9,13c-1.3,0.2-2.5,0.3-3.8,0.5c0,1.5,0.1,2.9,0.1,4.2c1.5-0.1,3.1-0.3,4.6-0.5
		C62.7,66.9,73.7,51.7,73.7,51.7z"/>
	<path class="st2" d="M26.4,64.3c-1-0.2-1.9-0.3-2.8-0.5c0,1.4,0,2.8,0.1,4.2c0.9,0.2,1.9,0.3,2.9,0.5
		C26.5,67.2,26.4,65.7,26.4,64.3z"/>
	<path class="st2" d="M26,52.7c-0.7-0.2-1.3-0.5-2-0.7c-0.1,1.4-0.3,2.9-0.3,4.4c0.8,0.2,1.5,0.5,2.3,0.7C26,55.7,26,54.2,26,52.7z"
		/>
	<path class="st2" d="M54.3,55.1c0,0-4.2,0.6-8.6,1.1c0,0.6,0.1,1.3,0.1,1.9c0,0.7,0.1,1.4,0.1,2c11.6-0.7,24.1-12.7,24.1-12.7
		C65.7,51.4,60.2,54,54.3,55.1z"/>
	<path class="st2" d="M130.1,27.7c0-3.9-1.8-12.2-3.2-17.6c0.5,5.1,0.8,10.2,0.9,15.3c0,5.2,1.4,13.6-3.4,16.4
		c-1.4,0.7-2.9,1.2-4.5,1.5c-6.6,1.6-13.2,2.9-20,3.8l0,0l0,0c-0.1,0-0.1,0-0.2,0c-6.6-0.9-13.1-2.3-19.5-3.9
		c-1.6-0.4-3.1-0.9-4.5-1.6c-4.7-2.8-3.3-11.2-3.3-16.4c0-3.6,0.2-10.9,0.7-15.9c-1.6,5.9-2.6,12-3.1,18.1c0,5.6-1.6,12.5,3.5,15.6
		c3.2,1.9,22.4,5.6,26.3,6c4-0.4,23.4-3.9,26.6-5.8C131.6,40.2,130.1,33.4,130.1,27.7z"/>
	<path class="st2" d="M87.8,35.2c0.2,0,0.5,0,0.8,0c0.2,0,0.5-0.1,0.7-0.1c0.2-0.1,0.4-0.2,0.5-0.3c0.2-0.1,0.3-0.3,0.3-0.5
		c0.4,0,0.6,0.1,1,0.1c-0.3,3-0.5,4.5-0.8,7.4c-0.6-0.1-0.9-0.1-1.4-0.2c0.2-2.1,0.4-3.1,0.6-5.2c-0.7-0.1-1.1-0.1-1.8-0.2
		C87.7,35.8,87.7,35.6,87.8,35.2z"/>
	<path class="st2" d="M94.5,40.2c0,0.6,0.5,1.1,1.1,1.1c0,0,0,0,0,0c0.3,0,0.6-0.1,0.8-0.2c0.2-0.2,0.4-0.4,0.5-0.6
		c0.1-0.3,0.2-0.5,0.3-0.8c0-0.3,0.1-0.6,0.1-0.8l0,0c-0.2,0.3-0.4,0.5-0.7,0.6c-0.3,0.1-0.6,0.2-1,0.2c-0.3,0-0.7-0.1-1-0.2
		c-0.6-0.3-1-0.8-1.2-1.4c-0.2-0.7-0.1-1.4,0.1-2c0.1-0.3,0.3-0.6,0.6-0.8c0.2-0.2,0.5-0.4,0.8-0.5c0.3-0.1,0.7-0.2,1.1-0.1
		c0.4,0,0.9,0.1,1.3,0.3c0.3,0.2,0.6,0.5,0.8,0.9c0.2,0.4,0.3,0.8,0.4,1.3c0.1,0.5,0.1,1,0.1,1.5c0,0.5-0.1,0.9-0.2,1.4
		c-0.1,0.4-0.3,0.9-0.5,1.2c-0.2,0.4-0.6,0.7-0.9,0.9c-0.7,0.4-1.6,0.4-2.3,0.1c-0.3-0.1-0.5-0.3-0.7-0.5c-0.2-0.2-0.4-0.4-0.5-0.7
		c-0.1-0.3-0.2-0.6-0.2-0.8C93.7,40.2,94,40.2,94.5,40.2z M95.9,35.6c-0.2,0-0.4,0-0.6,0.1c-0.2,0.1-0.3,0.2-0.4,0.3
		c-0.1,0.1-0.2,0.3-0.3,0.5c-0.1,0.2-0.1,0.4-0.1,0.6c0,0.2,0,0.4,0,0.6c0,0.2,0.1,0.4,0.2,0.5c0.2,0.3,0.6,0.5,1,0.5
		c0.2,0,0.4,0,0.6-0.1c0.2-0.1,0.3-0.2,0.4-0.3c0.1-0.1,0.2-0.3,0.3-0.5c0.1-0.2,0.1-0.4,0.1-0.6c0-0.2,0-0.4-0.1-0.6
		c0-0.2-0.1-0.3-0.2-0.5c-0.1-0.1-0.2-0.3-0.4-0.3C96.3,35.6,96.1,35.6,95.9,35.6z"/>
	<path class="st2" d="M103.9,36.6c0-0.3-0.2-0.5-0.4-0.7c-0.2-0.2-0.5-0.3-0.8-0.2c-0.4,0-0.7,0.2-1,0.5c-0.1,0.1-0.2,0.3-0.3,0.5
		c-0.1,0.2-0.1,0.4-0.2,0.6c0,0.2-0.1,0.4-0.1,0.6c0,0.2,0,0.4,0,0.5l0,0c0.2-0.3,0.4-0.5,0.7-0.7c0.3-0.2,0.6-0.2,0.9-0.2
		c0.3,0,0.7,0,1,0.1c0.3,0.1,0.6,0.3,0.8,0.5c0.2,0.2,0.4,0.5,0.5,0.8c0.1,0.3,0.2,0.6,0.2,1c0,0.3,0,0.7-0.1,1
		c-0.1,0.3-0.3,0.6-0.5,0.8c-0.2,0.2-0.5,0.4-0.8,0.6c-0.3,0.1-0.7,0.2-1.1,0.2c-0.5,0-1-0.1-1.5-0.3c-0.4-0.2-0.7-0.5-0.9-0.8
		c-0.2-0.4-0.4-0.8-0.5-1.2c-0.1-0.5-0.1-1-0.1-1.5c0-0.5,0-0.9,0.1-1.4c0.1-0.4,0.2-0.9,0.5-1.2c0.2-0.4,0.5-0.7,0.8-0.9
		c0.4-0.3,0.8-0.4,1.3-0.4c0.3,0,0.6,0,0.8,0.1c0.3,0.1,0.5,0.2,0.7,0.4c0.2,0.2,0.4,0.4,0.5,0.6c0.1,0.3,0.2,0.5,0.3,0.8
		C104.6,36.5,104.4,36.6,103.9,36.6z M102.9,41.3c0.2,0,0.4-0.1,0.6-0.2c0.2-0.1,0.3-0.2,0.4-0.4c0.1-0.2,0.2-0.3,0.2-0.5
		c0.1-0.4,0.1-0.8-0.1-1.2c-0.1-0.2-0.2-0.3-0.3-0.5c-0.3-0.3-0.6-0.4-1-0.4c-0.2,0-0.4,0.1-0.6,0.1c-0.2,0.1-0.3,0.2-0.4,0.3
		c-0.1,0.1-0.2,0.3-0.3,0.5c-0.1,0.2-0.1,0.4-0.1,0.6c0,0.2,0,0.4,0.1,0.6c0.1,0.2,0.2,0.3,0.3,0.5c0.1,0.1,0.3,0.3,0.5,0.3
		C102.4,41.3,102.6,41.4,102.9,41.3z"/>
	<path class="st2" d="M112.4,41.4c-2.2,0.3-3.3,0.4-5.5,0.6c-0.1-0.6,0.1-1.1,0.3-1.7c0.3-0.5,0.7-1,1.1-1.3
		c0.2-0.2,0.5-0.4,0.7-0.6c0.2-0.2,0.5-0.4,0.7-0.6c0.2-0.2,0.4-0.4,0.5-0.7c0.1-0.2,0.2-0.5,0.1-0.8c0-0.1-0.1-0.3-0.1-0.4
		c-0.1-0.1-0.1-0.3-0.2-0.4c-0.1-0.1-0.3-0.2-0.4-0.3c-0.2-0.1-0.4-0.1-0.6-0.1c-0.2,0-0.4,0.1-0.6,0.2c-0.1,0.1-0.3,0.3-0.3,0.4
		c-0.1,0.2-0.1,0.4-0.2,0.6c0,0.2,0,0.5,0,0.7c-0.5,0-0.7,0.1-1.2,0.1c0-0.4,0-0.8,0.1-1.2c0.1-0.3,0.2-0.7,0.4-1
		c0.2-0.3,0.4-0.5,0.7-0.7c0.7-0.4,1.5-0.5,2.2-0.2c0.3,0.1,0.6,0.3,0.8,0.5c0.2,0.2,0.4,0.4,0.5,0.7c0.1,0.2,0.2,0.5,0.2,0.7
		c0,0.3,0,0.6,0,0.8c-0.1,0.3-0.2,0.5-0.3,0.7c-0.1,0.2-0.3,0.4-0.5,0.6c-0.2,0.2-0.4,0.4-0.6,0.6c-0.2,0.2-0.4,0.3-0.6,0.5
		c-0.2,0.2-0.4,0.3-0.6,0.5c-0.2,0.1-0.3,0.3-0.5,0.5c-0.1,0.1-0.2,0.3-0.2,0.5c1.5-0.2,2.3-0.2,3.8-0.5
		C112.3,40.7,112.3,40.9,112.4,41.4z"/>
	<path class="st2" d="M68,174.9c0.6,0.2,0.9,0.3,1.4,0.4c-0.4,1.4-0.7,2.1-1.1,3.5c1.9-1,2.9-1.4,4.7-2.5c0.7,0.2,1.1,0.3,1.8,0.5
		c-1.6,0.9-2.5,1.4-4.2,2.2c0.9,2.3,1.4,3.4,2.4,5.7c-0.8-0.2-1.2-0.3-1.9-0.5c-0.8-1.8-1.1-2.7-1.8-4.5c-0.6,0.3-0.9,0.4-1.6,0.7
		c-0.3,1-0.5,1.6-0.8,2.6c-0.6-0.2-0.9-0.3-1.5-0.5C66.5,179.6,67,178,68,174.9z"/>
	<path class="st2" d="M77,177.4c0.6,0.1,0.9,0.2,1.4,0.3c-0.6,2.7-0.9,4.1-1.4,6.8c1.8,0.4,2.7,0.6,4.5,0.9
		c-0.1,0.5-0.1,0.7-0.2,1.2c-2.5-0.4-3.7-0.7-6.1-1.2C75.9,182.2,76.3,180.6,77,177.4z"/>
	<path class="st2" d="M87.5,179.2c0.6,0.1,0.9,0.1,1.6,0.2c0.9,3.4,1.5,5.1,2.6,8.4c-0.7-0.1-1-0.1-1.7-0.1
		c-0.3-0.9-0.4-1.3-0.6-2.2c-1.4-0.1-2.1-0.2-3.5-0.4c-0.4,0.8-0.7,1.2-1.1,2c-0.7-0.1-1-0.1-1.6-0.2
		C84.9,183.8,85.8,182.3,87.5,179.2z M86.3,184c1.1,0.1,1.6,0.2,2.7,0.3c-0.4-1.4-0.6-2.2-0.9-3.6l0,0C87.4,182.1,87,182.7,86.3,184
		L86.3,184z"/>
	<path class="st2" d="M94.2,179.8c0.6,0,0.9,0,1.5,0.1c-0.1,3.3-0.2,4.9-0.3,8.1c-0.6,0-1,0-1.6-0.1C94,184.7,94.1,183.1,94.2,179.8
		z"/>
	<path class="st2" d="M98.6,180c1.5,0,2.2,0,3.7,0c0.5,0,1,0,1.5,0.2c0.3,0.1,0.7,0.3,0.9,0.6c0.2,0.2,0.4,0.5,0.5,0.8
		c0.1,0.3,0.1,0.5,0.2,0.8c0,0.3,0,0.6-0.1,0.8c-0.1,0.3-0.2,0.6-0.4,0.8c-0.2,0.3-0.5,0.5-0.9,0.7c-0.5,0.2-1,0.3-1.5,0.3
		c-0.9,0-1.4,0-2.3,0c0,1.2,0,1.9,0,3.1c-0.6,0-1,0-1.6,0C98.6,184.9,98.6,183.2,98.6,180z M100.1,183.9c0.9,0,1.3,0,2.2,0
		c0.2,0,0.4,0,0.5-0.1c0.2,0,0.3-0.1,0.5-0.2c0.1-0.1,0.3-0.3,0.3-0.4c0.1-0.2,0.1-0.4,0.1-0.6c0-0.2-0.1-0.5-0.1-0.7
		c-0.1-0.2-0.2-0.3-0.3-0.4c-0.1-0.1-0.3-0.2-0.5-0.2c-0.2,0-0.4,0-0.6,0c-0.9,0-1.3,0-2.2,0C100.1,182.2,100.1,182.8,100.1,183.9z"
		/>
	<path class="st2" d="M107.4,179.7c2.4-0.2,3.6-0.3,6-0.6c0.1,0.5,0.1,0.7,0.2,1.2c-1.8,0.2-2.8,0.3-4.6,0.5l0.2,2.1
		c1.7-0.2,2.6-0.2,4.4-0.5c0.1,0.5,0.1,0.7,0.1,1.2c-1.8,0.2-2.6,0.3-4.4,0.5c0.1,0.9,0.1,1.4,0.2,2.4c2-0.2,3-0.3,5-0.5
		c0.1,0.5,0.1,0.7,0.2,1.2c-2.6,0.3-4,0.5-6.6,0.7C107.8,184.6,107.7,183,107.4,179.7z M109.7,178.6c0-0.5-0.1-0.7-0.1-1.2
		c0.5,0,0.8-0.1,1.3-0.1c0.1,0.5,0.1,0.7,0.1,1.2C110.5,178.5,110.2,178.6,109.7,178.6z"/>
	<path class="st2" d="M115.9,178.8c1.4-0.2,2.1-0.3,3.4-0.6c0.6-0.1,1.1-0.1,1.7,0c0.5,0.1,0.9,0.3,1.3,0.6c0.4,0.3,0.7,0.7,0.9,1.1
		c0.3,0.5,0.5,1,0.6,1.5c0.1,0.5,0.2,1.1,0.1,1.6c0,0.5-0.2,1-0.4,1.4c-0.3,0.4-0.6,0.8-1,1.1c-0.5,0.3-1.1,0.6-1.7,0.7
		c-1.5,0.3-2.2,0.4-3.7,0.6C116.7,183.6,116.4,182,115.9,178.8z M118.6,185.4c0.6-0.1,0.9-0.2,1.5-0.3c0.5-0.1,1-0.2,1.4-0.5
		c0.3-0.2,0.6-0.5,0.8-0.8c0.2-0.3,0.3-0.6,0.3-1c0-0.4,0-0.8-0.1-1.1c-0.1-0.4-0.2-0.7-0.4-1.1c-0.1-0.3-0.3-0.6-0.6-0.8
		c-0.3-0.2-0.6-0.4-1-0.4c-0.5-0.1-1-0.1-1.4,0.1c-0.6,0.1-0.9,0.2-1.4,0.3C118,182,118.2,183.1,118.6,185.4z"/>
	<path class="st2" d="M127.4,176.3c0.6-0.2,0.9-0.3,1.5-0.4c2.2,2.8,3.3,4.1,5.6,6.8c-0.7,0.2-1,0.3-1.6,0.5
		c-0.6-0.7-0.9-1.1-1.4-1.8c-1.4,0.4-2.1,0.6-3.5,1c-0.1,0.9-0.2,1.4-0.3,2.3c-0.6,0.2-1,0.2-1.6,0.4
		C126.7,181.6,127,179.8,127.4,176.3z M128.1,181.2c1-0.3,1.6-0.4,2.6-0.7c-0.9-1.2-1.4-1.8-2.2-3l0,0
		C128.4,179,128.3,179.7,128.1,181.2L128.1,181.2z"/>
	<path class="st2" d="M31.7,147.5c3-7.6,6-15.1,9.2-22.6h2.3c3,7,6.1,14.1,9.2,21.1c-2.1,0.1-3.1,0.2-5.1,0.3
		c-0.5-1.1-0.7-1.6-1.2-2.7c-3.2,0.2-4.8,0.3-8,0.5c-0.5,1.2-0.7,1.8-1.2,3C34.8,147.2,33.8,147.3,31.7,147.5z M40.1,139.1
		c1.6-0.1,2.4-0.1,4-0.2c-0.8-1.9-1.2-2.8-2-4.7C41.3,136.1,40.9,137.1,40.1,139.1L40.1,139.1z"/>
	<path class="st2" d="M50.8,124.8h15.5c0,2.1,0,3.2,0,5.3c-2.1,0-3.1,0-5.2,0.1c0,6.1,0,9.1,0,15.2c-2.1,0.1-3.1,0.2-5.2,0.3
		c0-6.2,0-9.3,0-15.4c-2,0-3.1,0-5.1,0.1C50.8,128.2,50.8,127,50.8,124.8z"/>
	<path class="st2" d="M68,124.9h5.2c0,5.9,0,8.9,0,14.8c2.8-0.1,4.2-0.1,7.1-0.2c0,2.1,0,3.1,0,5.2c-4.9,0.1-7.3,0.2-12.2,0.4
		C67.9,138.4,68,131.6,68,124.9z"/>
	<path class="st2" d="M81.3,144.7c3-6.6,6.1-13.2,9.2-19.8h2.3c3.1,6.5,6.1,13.1,9.2,19.6c-2.1,0-3.1,0-5.2,0
		c-0.5-1-0.7-1.5-1.2-2.6c-3.2,0-4.8,0-8,0.1c-0.5,1-0.7,1.6-1.2,2.6C84.4,144.6,83.4,144.6,81.3,144.7z M89.6,137.6
		c1.6,0,2.4,0,4,0c-0.8-1.7-1.2-2.6-2-4.3C90.9,135,90.5,135.9,89.6,137.6z"/>
	<path class="st2" d="M117.7,144.6c-3.7-3.8-5.6-5.7-9.3-9.4c0,3.7,0,5.6,0,9.3c-2.1,0-3.1,0-5.2,0c0-6.5,0-13.1,0-19.6h2.1
		c3.7,3.7,5.6,5.5,9.3,9.3c0-3.7,0-5.6,0-9.3h5.2c0,6.6,0,13.2,0,19.8C119,144.7,118.6,144.7,117.7,144.6z"/>
	<path class="st2" d="M121.5,124.8H137c0,2.1,0,3.2,0,5.3c-2.1,0-3.1,0-5.2-0.1c0,6,0,9,0,15c-2.1-0.1-3.1-0.1-5.2-0.2
		c0-5.9,0-8.9,0-14.8c-2,0-3.1,0-5.1,0C121.5,128,121.5,126.9,121.5,124.8z"/>
	<path class="st2" d="M135.4,145.3c3.1-6.8,6.1-13.6,9.1-20.4c0.9,0,1.4,0,2.3,0c3.2,7.2,6.2,14.4,9.2,21.6
		c-2.1-0.2-3.1-0.2-5.1-0.4c-0.5-1.1-0.7-1.7-1.2-2.8c-3.2-0.2-4.8-0.3-8-0.4c-0.5,1.1-0.7,1.6-1.2,2.6
		C138.5,145.4,137.4,145.4,135.4,145.3z M143.7,138.4c1.6,0.1,2.4,0.1,4,0.2c-0.8-1.9-1.2-2.8-2-4.7
		C144.9,135.7,144.5,136.6,143.7,138.4L143.7,138.4z"/>
	<path class="st2" d="M166.6,132.3c-0.1-1-0.9-1.7-1.9-1.7c-1-0.1-1.8,0.7-1.9,1.6c0,0,0,0,0,0c0.1,1,0.9,1.7,1.9,1.7
		c2.3,0,4.5,1.1,6.1,2.8c2.4,2.7,2.2,6.9-0.5,9.3c-1.5,1.4-3.6,1.9-5.6,1.6c-4.1,0-7.4-3.1-7.8-7.2c2.4,0.1,3.5,0.1,5.9,0.2
		c0.1,1,0.9,1.8,1.9,1.8c0.9,0.1,1.8-0.5,1.9-1.5c0,0,0-0.1,0-0.1c-0.1-1-0.9-1.8-1.9-1.8c-4,0.1-7.4-2.9-7.7-6.9
		c0.3-4,3.7-7,7.7-6.7c4.1-0.2,7.5,2.9,7.8,6.9c0,0,0,0,0,0C170.1,132.4,168.9,132.3,166.6,132.3z"/>
	<path class="st2" d="M75.4,154.8c0.4,0.4,0.8,0.8,1.2,1.1c-0.2-0.8-0.4-1.7-0.5-2.5l0,0c0-0.1,0-0.3-0.1-0.4l-2.3,0.1
		C74.2,153.7,74.8,154.3,75.4,154.8z"/>
	<path class="st2" d="M81.4,114.3c0-1.3-0.4-1.5-1-1.7c-1.4-0.5-2.3-2-2.1-3.5c0-0.1,0-0.3,0.1-0.4c0,0,0-0.1,0-0.1
		c-0.1-1.7-0.3-1.9-0.5-2c-1.6-1-2.5-2.9-2.2-4.8c-0.2,0.2-0.4,0.4-0.6,0.7c-0.9,1.1-1.8,2.3-2.6,3.4c-0.6,1.2-1.3,2.3-2.1,3.3l0,0
		l0,0c0.2,0.4,0.2,0.8,0.3,1.3c0.1,0.6,0.2,1.2,0.4,1.7c0.1,0.2,0.1,0.5,0.2,0.7c0.1,0.3,0.2,0.7,0.3,1c0.2,0.6,0.4,1.1,0.6,1.7
		c0.1,0.4,0.3,0.8,0.5,1.2l9.4-0.5C81.6,115.7,81.4,115,81.4,114.3z"/>
	<path class="st2" d="M74.5,97.9c-0.3,0.3-0.7,0.6-1,1c-2,2-3.8,4.1-5.4,6.5c-0.7,1.1-1.4,2.2-2,3.4c-0.3,0.5-0.5,1.1-0.8,1.7
		c0,0.1-0.1,0.2-0.1,0.3c1.4-0.8,2.9-1.5,4.4-1.8c0.1,0,0.1,0,0.2-0.1l0,0c0.5-1.1,1.2-2.2,1.9-3.1c0.8-1.3,1.8-2.5,2.7-3.7
		c0.4-0.5,0.8-0.9,1.2-1.3c-0.1-0.4-0.3-0.7-0.5-1C74.8,99.2,74.5,98.6,74.5,97.9z"/>
	<path class="st2" d="M132,116.7c-0.3-0.3-0.6-0.6-1-0.9l0,0c-0.3-0.2-0.5-0.4-0.8-0.6c-0.5-0.4-1.1-0.8-1.6-1.1
		c-0.3-0.2-1-0.5-1.2-0.8c-0.8,0.4-1.7,0.8-2.6,1.1c-0.5,0.2-0.9,0.5-1.4,0.7c-0.1,0-0.2,0.1-0.2,0.1c-0.2,0.1-0.4,0.2-0.5,0.3
		c-0.3,0.2-0.7,0.4-1,0.6c-0.3,0.2-0.6,0.4-0.9,0.6l11.9,0.7C132.4,117,132.2,116.8,132,116.7z"/>
	<path class="st2" d="M76.2,158.4C76.2,158.4,76.2,158.4,76.2,158.4c1.1,1.4,2.4,2.6,3.9,3.6c0-0.1,0-0.2,0-0.3l0.3-1.3
		c-1.2-0.9-2.3-1.9-3.2-3.1l0,0c-1.5-1.3-2.9-2.7-4.3-4.1l-1.8,0.1C72.7,155.1,74.4,156.9,76.2,158.4z"/>
	<path class="st2" d="M62.6,116.9c0.3-1.9,0.9-3.8,1.8-5.5l0,0c2-5,5.1-9.5,9-13.2c0.4-0.4,0.8-0.8,1.2-1.1c0.1-0.3,0.2-0.7,0.3-1
		c0.6-1.2,1.9-2,3.2-2.1c0.1-0.1,0.2-0.2,0.3-0.3c-0.1-1-0.3-1.3-0.4-1.5c-2,1.5-3.9,3.2-5.6,4.9c-4.1,3.8-7.3,8.5-9.3,13.7l0,0
		c-0.8,1.5-1.4,3.2-1.6,4.9c-0.1,0.3-0.1,0.5-0.2,0.8c-0.1,0.3-0.1,0.7-0.2,1l1.5-0.1C62.5,117.3,62.5,117.1,62.6,116.9z"/>
	<path class="st2" d="M127.8,157.2L127.8,157.2L127.8,157.2L127.8,157.2L127.8,157.2z"/>
	<path class="st2" d="M143.5,117.6c0-0.1,0-0.3-0.1-0.5c-0.1-0.9-0.3-1.9-0.6-2.7c0-0.1,0-0.1,0-0.2c-0.5-3.3-1.5-6.5-3-9.5
		c-0.8-1.5-1.7-2.9-2.8-4.2c-0.1-0.2-0.3-0.3-0.4-0.5c-0.7-1.1-1.7-2-2.7-2.8c0,0-0.1-0.1-0.1-0.1c-4.5-4.5-9.9-8-15.8-10.2
		c-2.9-1.1-6-1.8-9-2.3c-1.5-0.2-3.1-0.4-4.6-0.5c-0.9-0.1-1.7-0.1-2.4-0.1c-0.1,0-0.2,0-0.4,0c-0.1,0-0.3,0-0.4,0
		c0.2,0.1,0.3,0.3,0.5,0.5c0.9,0.3,1.8,0.7,2.6,1.2c1.5,0.1,3,0.3,4.5,0.5c3,0.5,5.9,1.2,8.8,2.2c5.8,2.2,11,5.6,15.3,9.9l0,0l0,0
		l0,0c1.2,0.9,2.2,2,3,3.2c1,1.3,1.9,2.6,2.6,4c1.5,2.8,2.4,5.9,2.9,9.1c0,0,0,0.1,0,0.1c0,0,0,0,0,0.1v0h0c0,0,0,0.1,0,0.1
		c0.4,1,0.7,2,0.7,3l1.5,0.1C143.5,117.8,143.5,117.7,143.5,117.6z"/>
	<polygon class="st2" points="133.3,152.6 133.3,152.6 133.7,152.7 	"/>
	<path class="st2" d="M128.1,157.1L128.1,157.1C128,157.1,128,157.1,128.1,157.1L128.1,157.1c-0.1,0-0.2,0.1-0.2,0.1
		c0,0,0,0.1,0,0.1c0,0-0.1,0-0.1,0c-0.4,0.9-2.4,2.2-2.9,2.6c-1.3,0.9-2.7,1.7-4.1,2.4c-4.7,2.1-9.7,3.4-14.8,3.9
		c0.1,0.4,0.1,0.8,0.1,1.1c0,0.1,0,0.2,0.1,0.3c5.3-0.4,10.5-1.8,15.3-4c1.5-0.7,2.9-1.5,4.3-2.5l0.3-0.2c1.1-0.7,2-1.5,2.8-2.5l0,0
		c0,0,0,0,0.1-0.1c0.1,0,0.1-0.1,0.2-0.2c1.9-1.3,3.7-2.8,5.3-4.6l-1.9-0.1C131.1,154.9,129.6,156.1,128.1,157.1z"/>
	<path class="st2" d="M120,116.3l0.2-0.1c0.2-0.1,0.5-0.3,0.7-0.4c0.2-0.1,0.4-0.2,0.5-0.3l0.1,0c0,0,0.1,0,0.1-0.1
		c0.4-0.2,0.8-0.4,1.1-0.6c0.3-0.2,0.6-0.3,0.9-0.5c0.1-0.1,0.3-0.2,0.4-0.2c0.2-0.1,0.3-0.2,0.5-0.3c0.8-0.4,1.6-0.8,2.4-1.1
		c-0.1-1-0.1-2-0.1-3c0-0.1,0-0.3,0-0.4c0-0.2,0-0.5-0.1-0.7c0-0.4-0.1-0.8-0.1-1.1c-0.1-0.4-0.1-0.8-0.2-1.1c0-0.1,0-0.2-0.1-0.3
		c-0.1-0.4-0.2-0.8-0.3-1.2c0-0.2-0.1-0.3-0.1-0.5c-0.3-1.3-0.6-2.5-1-3.8c-0.3-0.5-0.5-1.1-0.6-1.6c0,0-0.1,0-0.1,0
		c-0.1,0-0.2-0.1-0.2-0.1c-1.1-0.4-2.1-1.2-3.1-1.7c-0.2-0.1-0.4-0.2-0.7-0.3c0.1,0.1,0.2,0.3,0.2,0.4c0.4,0.8,0.5,1.8,0.2,2.6
		c2,2.7,2.6,6.1,1.8,9.3c-0.7,1.6-2.2,2.7-3.9,2.8l0,0c-0.2,0.3-0.5,0.6-0.8,0.8c-1,0.8-1.9,1.4-2.9,2.1c-0.4,0.2-0.8,0.5-1,0.9
		c0,0,0,0.1,0.1,0.3c0,0.1,0,0.2,0.1,0.3c0,0,0.1,0.1,0.1,0.1l5.5,0.3C119.7,116.4,119.8,116.3,120,116.3z"/>
	<path class="st2" d="M126.7,157.6c-2.6,0.6-5.4,0.6-8,0.1c-4.1,2.2-8.6,3.4-13.3,3.7c-0.9,0.1-1.8,0.2-2.7,0.3
		c0.1,0.1,0.1,0.2,0.2,0.2c1.4,0.8,2.4,2.1,2.8,3.6c1.8-0.1,3.5-0.4,5.3-0.7C116.5,163.7,122.6,161.5,126.7,157.6z"/>
	<path class="st2" d="M107.7,88.4l3.9,1.2c1.3,0.4,2.2,1.6,2.3,2.9c0.3,0.4,0.7,0.7,1.1,1l0.1,0l0.1,0c0.7,0.3,1.3,0.5,2,0.8
		c2.4,1.1,4.8,2.2,7.1,3.6c0.2,0.1,0.4,0.2,0.6,0.3c0.1,0,0.2,0,0.3,0c1.1-0.2,2.2-0.3,3.4-0.2c0.8,0,1.7,0,2.5,0c0.2,0,0.4,0,0.7,0
		c-0.1-0.1-0.2-0.3-0.3-0.4c-0.6-0.5-1.1-1.1-1.8-1.6c-1.2-1-2.4-1.9-3.6-2.7c-2.5-1.7-5.2-3.1-8-4.2c-3.9-1.5-8-2.4-12.1-2.8
		c0.1,0.1,0.2,0.1,0.3,0.2C106.8,86.9,107.4,87.5,107.7,88.4z"/>
	<path class="st2" d="M97.8,151.6c-0.2,0.3-0.3,0.6-0.6,0.9c-0.2,0.3-0.4,0.5-0.6,0.7l-0.5,1.3c-0.1,0.4-0.4,0.8-0.6,1.1l-0.3,0.8
		c1.4,1.2,2.9,2.3,4.4,3.2c0.5,0.2,1.1,0.5,1.6,0.8c0.2,0.1,0.5,0.2,0.7,0.3c1.4-0.2,2.9-0.3,4.3-0.3c1.6-0.2,3.1-0.4,4.6-0.7
		c1.4-0.3,2.7-0.7,4-1.1c0.1,0,0.2-0.1,0.2-0.1c0.1,0,0.2-0.1,0.4-0.1c0.5-0.2,1.1-0.4,1.6-0.7c0.4-0.3,0.8-0.5,1.3-0.6
		c0.9-1.4,1.7-2.8,2.2-4.4l-20.5-1.3L97.8,151.6z"/>
	<path class="st2" d="M141,116c-0.2,0.6-0.4,1.1-0.6,1.7l0.9,0.1C141.3,117.2,141.2,116.6,141,116z"/>
	<path class="st2" d="M100.2,0.8L100.2,0.8c8.4,0,16.3,5.2,23.3,5.2c0.9,0,1.8-0.1,2.6-0.3c0.4,1.4,0.6,2.9,0.8,4.3l0,0
		c0.5,2,1.1,4.4,1.6,6.8c16.2,5.2,33.8,11.6,38.3,14.7c2.6,1.9,4.7,4.4,5.9,7.3c0.1,0.1,0.1,0.3,0.2,0.4c0.1,0.3,0.2,0.6,0.4,0.8
		c0.1,0.1,0.1,0.3,0.2,0.4c0.1,0.3,0.2,0.6,0.3,0.9l0,0c0.9,2.8,1.6,5.6,1.9,8.6c0,0.1,0,0.1,0,0.2c1.4,11,0.1,24.1,0.1,33.7
		c0.1,9.7-0.5,19.3-2,28.9l0,0l0,0c0-0.1,0-0.2,0.1-0.3c0.4,0.4,1.1,1.3,1.5,1.6c2.8,2.3,5.8,4.2,9,5.9v0.1l0.2,0
		c-1.1,12.6-4.9,24.8-11,35.9l-8.4-0.5c-2.6,11.6-7,20.4-9.7,22.2c-8.8,6-18.4,11.8-29.8,15.2c-6.7,2-25.7,6.1-25.7,6.1
		S81,195,74.3,193c-11.4-3.4-20.9-9.2-29.8-15.2c-2.8-1.9-7.1-10.7-9.7-22.2l-8.4,0.5c-5.9-10.8-9.6-22.6-10.9-34.9l0,0.2
		c0-0.4-0.1-0.8-0.1-1.2c0,0.3,0.1,0.7,0.1,1c0-0.3-0.1-0.6-0.1-0.9v-0.2c3.2-1.6,6.2-3.6,9-5.9c0.5-0.4,1.3-1.5,1.7-1.8
		c0,0.2,0.1,0.4,0.1,0.6l0,0l0,0c-1.5-9.6-2.2-19.3-2-28.9c0-1.8,0-3.8-0.1-5.8l0,0c0-1.3-0.1-2.7-0.1-4.1c-0.4-6.6-0.4-13.2,0-19.8
		c0,0,0-0.1,0-0.1c0.7-9.6,3-18.2,9.4-22.6c4.5-3.1,22-9.5,38.2-14.7c0.5-2.7,1.1-5.4,1.7-7.6l0,0.1c0.1-1.4,0.4-2.7,0.7-4
		c1,0.2,2,0.3,3,0.3C83.9,5.7,91.8,0.8,100.2,0.8 M100.2,0L100.2,0c-4.4,0.2-8.8,1.1-12.9,2.6c-3.4,1.3-6.9,2-10.4,2.3
		c-1,0-1.9-0.1-2.8-0.3l-0.7-0.2L73,5.1c-0.4,1.3-0.6,2.7-0.7,4.1c-0.5,2.2-1.1,4.7-1.6,7.1c-15.6,5-33.3,11.5-37.9,14.6
		c-5.7,4-8.8,11.3-9.7,23.2l0,0.1c-0.4,6.6-0.4,13.2,0,19.9l0,0.6c0,1.2,0.1,2.4,0.1,3.5c0.1,2.4,0.1,4.2,0.1,5.8
		c-0.1,9.4,0.5,18.8,1.9,28.1c-0.2,0.2-0.4,0.4-0.6,0.7c-0.2,0.3-0.5,0.5-0.7,0.8l-0.1,0.1c-2.7,2.2-5.6,4.1-8.7,5.7l-0.5,0.2v0.8
		l0,0.1c0,0.3,0.1,0.6,0.1,0.9c1.3,12.3,5,24.3,11,35.2l0.3,0.5l0.5,0l7.7-0.5c2.4,10.4,6.6,19.8,9.9,22.1
		c8.7,5.9,18.3,11.8,30,15.3c6.6,2,25.5,6.1,25.7,6.2l0.2,0l0.2,0c0.2,0,19.1-4.2,25.7-6.2c11.7-3.5,21.4-9.4,30-15.3
		c3.2-2.2,7.5-11.6,9.9-22.1l7.7,0.5l0.5,0l0.3-0.5c6.1-11.2,9.9-23.5,11.1-36.2l0.1-0.9l-0.6,0l-0.2-0.1c-3.1-1.6-6-3.5-8.7-5.7
		l-0.1-0.1c-0.3-0.2-0.5-0.5-0.7-0.8c-0.1-0.1-0.3-0.3-0.4-0.4c1.4-9.4,2-18.8,1.9-28.3c0-2.9,0.1-6.2,0.2-9.6
		c0.5-8.1,0.4-16.2-0.4-24.3l0-0.1c-0.4-3-1-5.9-2-8.7l0-0.1l0,0c-0.1-0.3-0.2-0.6-0.3-0.9c-0.1-0.1-0.1-0.3-0.2-0.4
		c-0.1-0.3-0.2-0.6-0.4-0.9c-0.1-0.1-0.1-0.3-0.2-0.4l0-0.1c-1.4-3.1-3.5-5.7-6.2-7.7c-4.7-3.2-22.4-9.7-38.1-14.7
		c-0.6-2.6-1.1-4.8-1.5-6.3c-0.1-1.5-0.4-3-0.8-4.4l-0.2-0.7L125.9,5c-0.8,0.2-1.6,0.3-2.4,0.2c-3.6-0.3-7.1-1.1-10.4-2.4
		c-4.1-1.6-8.4-2.6-12.7-2.8H100.2z"/>
</g>
</svg>
