<?xml version="1.0" encoding="utf-8"?>
<!-- Generator: Adobe Illustrator 21.1.0, SVG Export Plug-In . SVG Version: 6.00 Build 0)  -->
<svg version="1.1" id="Layer_1" xmlns="http://www.w3.org/2000/svg" xmlns:xlink="http://www.w3.org/1999/xlink" x="0px" y="0px"
	 viewBox="0 0 200 200" style="enable-background:new 0 0 200 200;" xml:space="preserve">
<style type="text/css">
	.st0{fill:#EA1F2A;}
	.st1{fill:#255AAE;}
	.st2{fill:#FFFFFF;}
</style>
<g id="_x3C_Group_x3E_" transform="translate(-96.22195,-259.58495)">
	<path id="path14" class="st0" d="M196.2,359.6l82,57.4c-18.4,26.5-49.6,42.6-82,42.6c-32.4,0-63.7-16-82-42.6L196.2,359.6"/>
	<path id="path16" class="st1" d="M196.2,359.6l-82,57.4c-11.3-16.4-18-37.1-18-57.4c0-55.1,44.9-100,100-100
		c55.1,0,100,44.9,100,100c0,20.3-6.7,41-18,57.4L196.2,359.6"/>
	<path id="path18" class="st0" d="M196.2,291.2c37.7,0,68.4,30.7,68.4,68.4c0,37.7-30.7,68.4-68.4,68.4c-37.7,0-68.4-30.7-68.4-68.4
		C127.8,321.9,158.6,291.2,196.2,291.2"/>
	<path id="path20" class="st1" d="M196.2,359.6v-65.9c36.3,0,65.9,29.6,65.9,65.9c0,36.3-29.6,65.9-65.9,65.9L196.2,359.6"/>
	<path id="path22" class="st2" d="M255.7,337.9c2.5,6.8,3.8,14.1,3.8,21.7c0,34.8-28.4,63.3-63.2,63.3c-32.1,0-58.8-24.2-62.8-55.2
		l6.6-2.6l0-11.3l-2.4,0l8.7-7l18.1,0v-12l-1.8,0l5.1-5.6l5.3,5.7h-2v12l5.2,0v-25l8.2,0v-6.7h-2.8l0-2.8h2.9v-3.2l-2.3,0l9.9-11
		l10.9,11h-2.7v3.2h3v2.7h-3l0,4.9l22.5,0v11.1h2.6v7.1h4.8v-6.4h10.5v6.3L255.7,337.9"/>
	<path id="path24" class="st1" d="M208.6,348.2l4.5,19.3l-1,0.2c-1.1-2.5-2.7-4.8-4.6-6.7c-1.9-1.9-4-3.5-6.4-4.7
		c-2.3-1.1-4.8-2-7.3-2.6c-2.6-0.6-5.1-0.9-7.6-0.9c-3.6,0-6.8,0.7-9.5,2c-2.7,1.3-4.3,3.4-4.7,6.2c0.1,1.2,0.6,2.2,1.6,3
		c1,0.8,2.4,1.5,4.1,2.2c1.8,0.7,3.9,1.3,6.3,1.9c2.4,0.6,4.6,1.1,6.6,1.6c2,0.5,4.5,1.1,7.5,1.9c2.9,0.8,5.4,1.4,7.3,2
		c1.9,0.6,3.4,1.1,4.6,1.6c3.6,1.6,6.3,3.8,8.3,6.7c2,2.9,2.9,5.9,2.9,9.3c0,4.6-1.6,8.7-4.9,12.2c-3.2,3.5-7.4,6.2-12.6,8.1
		c-5.1,1.9-10.3,2.8-15.5,2.8c-5.2,0-10.4-0.8-15.3-2.3c-1.8-0.5-3.2-0.8-4.2-0.8c-2.4,0-4.1,0.6-5,1.8l-6.8-24.3l1.1-0.2
		c0.9,3,2.7,6.1,5.3,9.3c2.6,3.1,6,5.7,10.1,7.8c4.1,2.1,8.6,3.2,13.5,3.2c3.6-0.2,7.1-0.7,10.5-1.6c3.3-0.9,6.2-2.3,8.5-4.3
		c2.3-2,3.5-4.4,3.7-7.5c0-2.1-0.4-3.9-1.2-5.2c-0.8-1.3-2-2.5-3.7-3.4c-1.7-0.9-4.1-1.9-7.4-3c-2.1-0.8-4.9-1.5-8.2-2.3
		c-3.3-0.8-6.3-1.5-8.7-2.1c-2.5-0.6-4.8-1.2-7-2c-2.2-0.7-4.1-1.6-5.7-2.6c-4.6-2.8-6.9-6.4-7.2-10.8c0.3-1.9,0.5-3.3,0.6-4
		c1.1-3.9,4.1-6.9,8.9-9.1c4.9-2.1,10.5-3.2,16.8-3.2c1.8,0,3.5,0.1,5.2,0.4c1.7,0.2,4,0.6,6.7,1.1c2.7,0.5,4.4,0.8,5.2,0.9
		C206.1,349.9,207.7,349.3,208.6,348.2"/>
	<path id="path26" class="st0" d="M186.3,358.6c10.3,0,19.1,2.9,26.4,8.8l-14.5-35.1L186.3,358.6L186.3,358.6z M184.3,363.9
		l-8.1,19.3c-0.7,1.5-1.1,3.4-1.4,5.8c0.3,3.9,2.7,5.9,7.2,6.2v1.1h-26.5v-1.1c2.5-0.2,4.7-1.2,6.4-2.8c1.7-1.6,3.4-4.5,5.3-8.5
		l23-51.6c0.5-1.1,0.8-2.2,0.8-3.2c0-2.3-1.4-3.6-4.2-4.1v-0.9h28.9v0.9c-2.4,0.6-3.8,1.9-4,4.1c0.1,0.2,0.2,0.8,0.5,1.6
		c0.3,0.9,0.5,1.4,0.5,1.8l22.9,55.9c0.6,1.5,1.6,3,2.9,4.5c1.3,1.5,2.9,2.3,4.7,2.3v1.1h-29.6v-1.1c4.3-1,6.4-3.4,6.4-7.4
		c0-3.4-1.5-6.9-4.7-10.7c-3.1-3.7-7.3-6.8-12.7-9.3C197.1,365.3,191,364,184.3,363.9"/>
	<path id="path28" class="st2" d="M190.2,270.8c-1.1,0.1-2.2,0.3-3.1,0.8c-0.9,0.5-1.7,1.1-2.3,1.9c-0.6,0.8-1.1,1.6-1.4,2.6
		c-0.3,1-0.4,2-0.4,3c0.1,1,0.4,1.8,0.8,2.7c0.4,0.9,0.9,1.6,1.6,2.3c0.7,0.6,1.5,1.1,2.4,1.5c1,0.4,2,0.6,3.2,0.6
		c1.2-0.1,2.2-0.3,3.2-0.8c1-0.4,1.8-1,2.5-1.8c0.7-0.7,1.2-1.6,1.6-2.5c0.4-1,0.5-2,0.5-3c-0.1-1.3-0.4-2.6-1.1-3.7
		c-0.6-1.1-1.6-2-2.8-2.7c-1.2-0.7-2.7-1-4.5-0.9H190.2z M202.1,271l0,0.2c0.4,0.1,0.6,0.3,0.8,0.6c0.2,0.4,0.3,0.8,0.5,1.4
		l2.4,11.2c0.1,0.5,0.1,0.8,0.1,0.9c-0.1,0.5-0.3,0.7-0.7,0.6l0,0.2l4.2,0.5l0-0.2c-0.4-0.1-0.6-0.3-0.6-0.8
		c0.1-0.3,0.2-0.5,0.3-0.7l5.4-10.5c0.3-0.6,0.6-1,0.9-1.2c0.2-0.2,0.6-0.3,0.9-0.4v-0.2l-3.9-0.5l0,0.2c0.7,0.1,0.9,0.6,0.8,1.3
		c0,0.1-0.1,0.4-0.3,0.9l-4.8,9.6l-2.1-10.7v-0.8c0.1-0.7,0.5-1,1-1l0-0.2L202.1,271L202.1,271z M227.3,271.3
		c-0.3,0-0.7,0.1-1.1,0.4l-2.3,1.6l0.2,0.6l2.7-0.3c0.9-0.1,1.4-0.4,1.5-0.8c0.1-0.3,0.1-0.6-0.1-0.9c-0.1-0.3-0.4-0.5-0.6-0.6
		C227.6,271.4,227.4,271.3,227.3,271.3z M190.3,272c1,0,1.9,0.4,2.7,1c1,0.7,1.7,1.6,2.2,2.8c0.5,1.1,0.8,2.3,0.9,3.4
		c0.1,1-0.1,2-0.5,2.8c-0.4,0.9-1,1.5-1.7,2c-0.8,0.5-1.5,0.8-2.4,0.9c-0.8,0-1.4-0.1-2.2-0.5c-0.7-0.3-1.3-0.9-1.9-1.6
		c-0.6-0.7-1-1.6-1.4-2.7c-0.2-0.6-0.4-1.4-0.5-2.3c0-0.9,0.1-1.8,0.5-2.7c0.3-0.9,0.8-1.6,1.5-2.2c0.7-0.6,1.5-0.9,2.4-0.9
		C190,272,190.2,272,190.3,272L190.3,272z M218.5,273.7l0,0.2c0.3,0.1,0.6,0.4,0.8,0.7c0.2,0.3,0.4,0.8,0.5,1.3l1.8,7.1l-1.3,4.2
		c-0.3,0.8-0.5,1.2-0.8,1.5c-0.3,0.2-0.7,0.3-1.2,0.2l-0.1,0.2l5.1,1.6l0.1-0.2c-0.4-0.1-0.7-0.4-0.9-0.8c-0.1-0.4-0.1-1,0.2-1.9
		l1.3-4l5.3-4.5c1-0.9,1.9-1.2,2.6-1l0.1-0.2l-4.2-1.3l0,0.2c0.3,0.1,0.5,0.3,0.7,0.4c0.1,0.2,0.1,0.4,0.1,0.6
		c-0.1,0.3-0.5,0.8-1.1,1.4l-3.6,3l-1-4.3c-0.2-0.7-0.2-1.3-0.1-1.8c0.2-0.5,0.7-0.7,1.3-0.5l0-0.2L218.5,273.7L218.5,273.7z
		 M172.5,274l-5.1,1.4l0,0.2c1-0.1,1.6,0.5,2,1.7l2.5,9.3c0.2,0.9,0.3,1.5,0.2,1.8c-0.1,0.4-0.4,0.7-1,0.9l0,0.2l9-2.4l0.1,0
		c0.4-0.1,0.7-0.1,0.9,0.1l0.4-5.9l-0.2-0.1c-0.6,2.9-2.1,4.8-4.6,5.7c-0.2,0-0.3,0.1-0.4,0.2c-1.1,0.2-1.7-0.1-2-0.9l-2.5-9.6
		c-0.2-0.6-0.2-1.1-0.1-1.5c0-0.4,0.4-0.7,1-0.9L172.5,274L172.5,274z M160.6,278.3l-4.6,2l0.1,0.2c0.5-0.1,0.8,0,1,0.5
		c0.1,0.2,0.1,0.4,0.2,0.6l0.6,11.2c0.1,0.9,0,1.5-0.1,2c-0.1,0.4-0.4,0.8-0.8,1l0.1,0.2l4.2-1.8l-0.1-0.2c-0.7,0.3-1.3,0.1-1.6-0.6
		c-0.1-0.5-0.2-0.9-0.3-1.2l-0.3-4.2c1-0.4,2.1-0.6,3.2-0.6c1,0.1,2,0.4,2.8,0.9c0.8,0.5,1.3,1,1.6,1.6c0.3,0.8,0.2,1.4-0.4,1.8
		l0.1,0.2l4.7-2.1l-0.1-0.2c-0.3,0.1-0.6,0.1-0.9-0.1c-0.3-0.2-0.6-0.4-0.8-0.6l-8.3-8.8c0,0-0.1-0.1-0.2-0.3
		c-0.1-0.1-0.2-0.2-0.2-0.3c-0.1-0.4,0-0.8,0.3-1L160.6,278.3z M158.5,281l5.2,5.5c-1.6-0.6-3.2-0.5-4.9,0.2L158.5,281z
		 M242.4,283.6l-0.1,0.1c0.7,0.7,0.7,1.6-0.1,2.7l-5.6,8c-0.4,0.6-0.8,0.9-1.1,1.1c-0.4,0.1-0.8,0.1-1.3-0.1l-0.1,0.2l4.4,3.1
		l0.1-0.2c-0.4-0.3-0.6-0.6-0.6-1.1c0-0.5,0.2-1,0.6-1.4l3.2-4.5l2.7-0.1c0.4,3.4,0.3,6.2-0.5,8.4c-0.3,0.6-0.5,1-0.6,1.1
		c-0.3,0.4-0.7,0.5-1.1,0.3l-0.1,0.2l4.1,2.8l0.1-0.2c-0.4-0.3-0.5-0.6-0.5-1.1c0.1-0.5,0.3-1.5,0.6-3c0.3-1.5,0.5-2.9,0.6-4.3
		c0.1-1.4,0-2.9-0.4-4.5l3.6-0.3c0.5,0,1.1,0,1.7,0.1c0.6,0.1,1.2,0.3,1.5,0.6l0.1-0.2l-4.4-3l-0.1,0.1c0.3,0.3,0.3,0.5,0.2,0.8
		c-0.2,0.2-0.5,0.4-1,0.6c-0.5,0.1-1.1,0.2-1.7,0.3l-4,0.3l1.8-2.6c0.4-0.6,0.8-1,1.2-1.1c0.4-0.2,0.8-0.1,1.3,0.2l0.1-0.2
		L242.4,283.6L242.4,283.6z M146.7,286.4c-0.6,0.1-1.4,0.4-2.3,1.1l-6.8,4.9l0.1,0.2c0.3-0.2,0.6-0.2,0.9-0.2s0.5,0.1,0.8,0.4
		c0.3,0.2,0.6,0.6,1,1.1l5.5,7.6c0.4,0.6,0.6,1.1,0.6,1.4c0,0.4-0.2,0.8-0.5,1.1l0.1,0.2l5.9-4.3c0.7-0.5,1.3-1,1.8-1.6
		c0.5-0.6,0.9-1.2,1.1-1.9c0.3-0.7,0.3-1.4,0.1-2.1c-0.1-0.5-0.4-1-0.8-1.6c-0.6-0.9-1.5-1.4-2.7-1.7c-1.2-0.3-2.6-0.1-4.2,0.4
		c0.5-0.8,0.8-1.5,1-2c0.2-0.6,0.3-1,0.2-1.4c0-0.4-0.1-0.8-0.4-1.1C147.8,286.5,147.3,286.3,146.7,286.4z M145.3,288.5
		c0.4,0,0.7,0.1,1,0.4c0.2,0.3,0.3,0.7,0.3,1.3c-0.1,0.6-0.3,1.2-0.6,2c-0.4,0.8-1,1.7-1.8,2.6l-1.9-2.6c-0.2-0.3-0.4-0.5-0.4-0.7
		c-0.1-0.2-0.1-0.4,0-0.6c0.1-0.2,0.2-0.4,0.4-0.6c0.2-0.2,0.6-0.5,1-0.8C144.1,288.9,144.8,288.5,145.3,288.5L145.3,288.5z
		 M148.5,292.5c0.5,0,1,0.1,1.5,0.2c0.9,0.3,1.6,0.7,2.1,1.4c0.6,0.7,0.7,1.6,0.7,2.7c-0.1,0.5-0.4,1-0.8,1.6
		c-0.5,0.6-1,1.1-1.6,1.6c-0.5,0.3-0.9,0.5-1.3,0.6c-0.2,0.1-0.3,0-0.5-0.1c-0.1-0.1-0.3-0.2-0.5-0.4c0-0.1-0.1-0.2-0.1-0.2
		l-3.2-4.4l2-3C147.3,292.5,147.9,292.5,148.5,292.5z M256.4,294.4l-0.1,0.1c0.6,0.8,0.4,1.6-0.6,2.5l-6.9,6.7
		c-0.6,0.6-1.2,0.9-1.5,1c-0.4,0.1-0.8,0-1.3-0.4l-0.2,0.2l6.5,6.7l0.1,0.1c0.3,0.3,0.4,0.6,0.3,0.8l5.3-2.5l-0.1-0.2
		c-2.8,0.9-5.1,0.5-7.2-1.3c-0.1-0.1-0.3-0.2-0.4-0.3c-0.7-0.8-0.8-1.5-0.1-2.2l7.1-6.9c0.4-0.4,0.8-0.7,1.3-0.9
		c0.4-0.2,0.8,0,1.3,0.4l0.1-0.1L256.4,294.4z M134.2,295.3c0,0.3-0.1,0.6-0.4,0.9c-0.1,0-0.2,0.1-0.3,0.2l-5.9,6.3
		c-0.1,0.1-0.2,0.3-0.3,0.4c-0.4,0.3-0.6,0.4-0.8,0.4l2.5,3.8l0.2-0.1c-0.4-0.8-0.5-1.5-0.5-2.2c0-0.7,0.2-1.3,0.5-1.9
		c0.3-0.6,0.7-1.2,1.4-1.9l8.2,7.6c0.6,0.6,0.9,1.1,1,1.4c0,0.4-0.1,0.7-0.4,1.1l0.2,0.2l3.6-3.9l-0.2-0.2c-0.2,0.2-0.4,0.4-0.6,0.4
		c-0.2,0.1-0.5,0.1-0.8-0.1c-0.3-0.1-0.7-0.4-1.2-0.9l-8.1-7.5c1.9-2,3.8-2.6,5.8-1.7l0.1-0.2L134.2,295.3z M266.7,305.5l-0.2,0.1
		c0.2,0.4,0.3,0.8,0.2,1c-0.1,0.3-0.3,0.6-0.5,0.8c-0.2,0.2-0.5,0.4-0.8,0.6l-6.5,4.2c-1.6,1-2.4,2.2-2.2,3.6
		c0.2,1.3,0.7,2.6,1.5,3.9c1.1,1.7,2.4,2.6,3.8,2.8c1.4,0.2,2.9-0.2,4.4-1.2l5.4-3.5c0.8-0.5,1.3-0.7,1.7-0.7c0.4,0,0.7,0.2,1.1,0.6
		l0.2-0.1l-2.4-3.6l-0.1,0.1c0.1,0.3,0.2,0.6,0.3,0.8c0,0.2,0,0.4-0.3,0.7c-0.2,0.3-0.7,0.7-1.3,1.1l-6.1,4c-1.2,0.8-2.3,1-3.2,0.5
		c-0.9-0.4-1.6-1.1-2.2-1.9c-0.6-1-0.8-1.9-0.7-2.7c0.2-0.9,0.8-1.7,1.8-2.4l6.6-4.3c0.5-0.3,1-0.5,1.4-0.5c0.4,0,0.7,0.2,1,0.7
		l0.1-0.1L266.7,305.5z M124.3,306.7l-2.2,3.7l0.1,0.1c0.2-0.3,0.4-0.5,0.6-0.6c0.2-0.1,0.4-0.1,0.8-0.1c0.4,0.1,0.9,0.3,1.5,0.7
		l6.2,3.7c1.2,0.8,1.9,1.6,1.9,2.6c0,1-0.3,1.9-0.8,2.8c-0.6,1-1.3,1.6-2.2,1.8c-0.9,0.2-1.8,0-2.9-0.6l-6.7-4c-0.6-0.3-0.9-0.7-1-1
		c-0.2-0.3-0.1-0.8,0.1-1.2l-0.2-0.1l-2.8,4.6l0.1,0.1c0.3-0.3,0.6-0.6,0.9-0.6c0.3-0.1,0.6,0,0.9,0.1c0.3,0.1,0.6,0.3,1,0.5l6.6,4
		c1.7,1,3.1,1.1,4.2,0.5c1.1-0.7,2.1-1.7,2.9-3c1-1.8,1.3-3.3,0.9-4.6c-0.4-1.3-1.4-2.5-3-3.4l-5.5-3.3c-0.8-0.5-1.2-0.9-1.3-1.2
		c-0.1-0.3-0.1-0.7,0.1-1.2L124.3,306.7z M276.1,320.7l-0.2,0.1c0.1,0.4,0.1,0.7,0,0.9c-0.1,0.3-0.3,0.5-0.6,0.7
		c-0.3,0.2-0.8,0.5-1.4,0.7l-8.7,3.5c-0.7,0.3-1.2,0.4-1.6,0.3c-0.4-0.1-0.7-0.4-0.9-0.8l-0.2,0.1l2.8,6.8c0.3,0.8,0.7,1.4,1.1,2.1
		c0.5,0.7,1,1.2,1.6,1.6c0.6,0.4,1.3,0.6,2,0.6c0.6,0,1.1-0.1,1.7-0.3c1-0.4,1.8-1.1,2.3-2.2c0.5-1,0.7-2.4,0.6-4.2
		c0.7,0.6,1.2,1.1,1.7,1.4c0.5,0.3,0.9,0.5,1.3,0.6c0.4,0,0.8,0,1.2-0.1c1.2-0.5,1.4-1.8,0.6-3.8L276.1,320.7z M115.2,322.4
		c0.1,0.3,0.1,0.6,0,1c-0.1,0-0.1,0.1-0.1,0.2l-3.6,8.9l0.2,0.1c0.3-0.4,0.6-0.7,1-0.8c0.4-0.1,1,0.1,1.9,0.4l8.9,3.6
		c1.1,0.5,1.6,1.2,1.3,2.1l0.2,0.1l2-5l-0.2-0.1c-0.3,0.5-0.6,0.7-1,0.8c-0.4,0.1-1,0-1.7-0.3l-6.4-2.6l0.5-1.1
		c0.3-0.7,0.5-1.1,0.8-1.5c0.3-0.4,0.7-0.7,1.2-0.9c0.5-0.2,1.1-0.3,1.9-0.2l0-0.2l-4.9-1.1l0,0.2c0.5,0.2,0.8,0.4,0.8,0.7
		c0.1,0.3,0,0.7-0.2,1.2l-1,2.5l-1.3-0.5c-0.5-0.2-0.8-0.3-1-0.5c-0.2-0.2-0.3-0.4-0.3-0.7c0-0.3,0.1-0.7,0.4-1.3
		c0.3-0.7,0.7-1.3,1.1-2c0.5-0.6,1.1-1.1,1.8-1.5c0.7-0.4,1.4-0.6,2.2-0.5l0-0.2L115.2,322.4L115.2,322.4z M276.1,325.1
		c0.2,0,0.3,0,0.4,0.1c0.2,0.1,0.3,0.3,0.5,0.6c0.2,0.3,0.4,0.6,0.6,1.2c0.7,1.7,0.6,2.8-0.2,3.1c-0.4,0.1-0.8,0.1-1.3-0.1
		c-0.5-0.2-1.1-0.6-1.8-1.1c-0.7-0.6-1.4-1.3-2.1-2.3l3-1.2c0.3-0.1,0.6-0.2,0.8-0.3C276,325.1,276.1,325.1,276.1,325.1L276.1,325.1
		z M271.2,326.9l2.4,2.7c0,1.2-0.3,2.3-0.8,3.1c-0.5,0.8-1.1,1.4-1.9,1.7c-0.9,0.3-1.8,0.3-2.8,0c-0.5-0.2-0.9-0.6-1.3-1.2
		s-0.9-1.3-1.2-2c-0.2-0.6-0.3-1.1-0.4-1.4c0-0.2,0.1-0.4,0.2-0.5c0.1-0.1,0.3-0.3,0.6-0.4c0.1,0,0.2,0,0.2,0L271.2,326.9
		L271.2,326.9z M277.2,342l-1.4,4.8l-4.6,0l3.7,3l-1.4,4.8l3.7-3l3.6,3l-1.4-4.8l3.7-2.9h-4.6L277.2,342L277.2,342z M113.9,342.2
		l-1.4,4.8H108l3.7,2.9l-1.4,4.8l3.7-3l3.7,3l-1.4-4.8l3.7-3l-4.6,0L113.9,342.2L113.9,342.2z M277.8,363.1l-1.4,4.8l-4.6,0l3.7,3
		l-1.4,4.8l3.7-3l3.7,3l-1.4-4.9l3.7-2.9h-4.6L277.8,363.1L277.8,363.1z M113.3,363.4l-1.4,4.8h-4.6l3.7,2.9l-1.4,4.8l3.7-3l3.7,3
		l-1.4-4.8l3.7-3l-4.6,0L113.3,363.4L113.3,363.4z M272.5,382.7l-1.4,4.8l-4.6,0l3.7,3l-1.4,4.8l3.7-3l3.7,3l-1.4-4.8l3.7-2.9h-4.6
		L272.5,382.7L272.5,382.7z M118.6,383l-1.4,4.8h-4.6l3.7,2.9l-1.4,4.8l3.7-3l3.7,3l-1.4-4.8l3.7-3l-4.6,0L118.6,383L118.6,383z
		 M138.3,409.1l-5.3,4l0.5,0.6c1.2-0.8,2.4-1.1,3.5-1c1.1,0.1,2.1,0.5,3,1.4l0.3,0.2l-8.4,9.3c-0.9,1-1.5,1.5-2,1.6
		c-0.5,0.2-1,0-1.5-0.4l-0.5,0.6l6.9,6.2l0.5-0.6c-0.5-0.5-0.7-1-0.6-1.4c0.1-0.5,0.6-1.2,1.5-2.2l8.4-9.3l0.3,0.3
		c1,0.8,1.5,1.8,1.7,2.8c0.2,1.1,0,2.3-0.6,3.6l0.7,0.4l3.4-5.7c-0.2,0-0.4-0.1-0.6-0.2c-0.2-0.1-0.4-0.2-0.6-0.4l-9.8-8.8
		c-0.2-0.2-0.4-0.4-0.5-0.5C138.5,409.5,138.4,409.3,138.3,409.1z M253.3,410.2l-3.9,3.4l0.5,0.6c0.5-0.3,0.8-0.4,1.2-0.2
		c0.4,0.1,0.9,0.7,1.7,1.5l1.9,2.2l-5.4-0.7c-0.2,0-0.4-0.1-0.6-0.2c-0.2-0.1-0.3-0.2-0.4-0.2c-0.1-0.1-0.2-0.3-0.2-0.5
		c0-0.2,0-0.4,0.1-0.6l-0.5-0.6l-8,7l0.5,0.6c0.4-0.3,0.8-0.4,1.2-0.2c0.4,0.1,1,0.6,1.7,1.5l7.5,8.6c0.8,0.9,1.2,1.5,1.3,1.9
		c0.1,0.4-0.1,0.8-0.4,1.2l0.5,0.6l4.2-3.6l-0.5-0.6c-0.5,0.4-1,0.5-1.5,0.4c-0.5-0.1-1.1-0.7-2-1.7l-7.4-8.5l15.4,2l0.4,0.5
		c0.6,0.7,0.9,1.3,0.9,1.6c0,0.4-0.2,0.8-0.7,1.3l0.5,0.6l4.2-3.6l-0.5-0.6c-0.5,0.3-0.9,0.4-1.2,0.2s-0.9-0.6-1.7-1.5l-7.5-8.7
		c-0.8-0.9-1.2-1.5-1.3-1.9c-0.1-0.4,0.1-0.7,0.4-1.2L253.3,410.2z M232.5,417.3c-0.3,0-0.6,0-0.9,0.2c-0.3,0.1-0.5,0.4-0.7,0.7
		c-0.2,0.3-0.4,0.8-0.6,1.5l-1.4,5.4l1.4-0.8l2.9-4.1c0.3-0.5,0.5-0.9,0.6-1.2c0.1-0.3,0-0.7-0.1-0.9c-0.2-0.4-0.5-0.6-0.9-0.7
		C232.7,417.4,232.6,417.4,232.5,417.3z M151.8,421.8l-0.4,0.7c0.4,0.3,0.6,0.7,0.7,1.1c0,0.4-0.3,1.1-0.8,2.1l-5.4,10.1
		c-0.6,1-1,1.7-1.3,1.9c-0.3,0.2-0.7,0.2-1.2,0.1l-0.4,0.7l7.5,4l0.4-0.7c-0.4-0.3-0.6-0.7-0.6-1c0-0.4,0.3-1.1,0.8-2.2l2.4-4.4
		l1.1,0.2c0.5,1.5,0.7,3.1,0.7,4.7c0,1.6-0.2,2.7-0.6,3.4c-0.1,0.2-0.3,0.4-0.5,0.5c-0.2,0.1-0.5,0.1-0.9,0.1l-0.4,0.7l7.7,4.1
		l0.4-0.7c-0.6-0.5-0.8-1.6-0.6-3.3v-0.2c0.2-1.9,0.3-3.5,0.2-4.9c0-1.3-0.2-2.6-0.5-3.7c1.6-0.1,2.9-0.3,3.7-0.7
		c0.9-0.4,1.5-1,1.9-1.7c0.5-0.9,0.5-1.7,0.2-2.5c-0.4-0.8-1.2-1.4-2.4-2.1L151.8,421.8z M219.8,423.8l-1.3,0.5l-2,3.3l-3.7-1.1
		l-1.3,0.5l4.8,3.6l2.4-0.9L219.8,423.8z M236.6,424l-7.5,4.1l0.4,0.7c0.5-0.2,0.9-0.2,1.3,0c0.3,0.2,0.8,0.8,1.4,1.9l5.5,10
		c0.6,1,0.9,1.7,0.8,2.1c0,0.4-0.2,0.7-0.6,1.1l0.4,0.7l7.4-4.1l-0.4-0.7c-0.5,0.2-0.9,0.2-1.2,0c-0.4-0.2-0.8-0.8-1.4-1.8l-5.5-10
		c-0.6-1-0.9-1.7-0.9-2.1c0-0.4,0.2-0.8,0.7-1.1L236.6,424z M157.5,427.3c0.3,0,0.8,0.1,1.5,0.5c0.8,0.4,1.2,0.8,1.4,1.3
		c0.2,0.5,0.1,1-0.2,1.7c-0.5,0.9-1.2,1.4-2.2,1.7c-1,0.3-2.2,0.2-3.6-0.2l2.1-4C156.8,427.6,157.1,427.3,157.5,427.3z M224.1,430.1
		c-0.4,0.3-0.7,0.5-1,0.7c-0.3,0.2-0.5,0.3-0.8,0.4c-0.2,0.1-0.8,0.2-1.8,0.4c-1,0.2-1.8,0.4-2.5,0.6c-3.1,1-5.2,2.4-6.4,4.3
		c-1.2,1.9-1.3,4.3-0.5,7c1,3.1,2.7,5.3,5.2,6.6c2.5,1.3,5.3,1.5,8.4,0.6c0.6-0.2,1.3-0.5,2.3-0.9c0.9-0.4,1.5-0.7,1.9-0.8
		c0.2-0.1,0.5-0.1,0.8-0.2c0.3,0,0.5-0.1,0.8-0.1l0.3-6.5l-0.8,0c-0.2,1.4-0.6,2.6-1.3,3.5c-0.7,0.9-1.6,1.5-2.8,1.9
		c-1.8,0.6-3.6,0.3-5.3-0.9c-1.7-1.1-2.9-2.9-3.6-5.1c-0.5-1.8-0.5-3.3,0-4.7c0.6-1.3,1.6-2.2,3-2.7c1.1-0.3,2.1-0.3,3.2,0.2
		c1,0.4,2.3,1.4,3.7,2.9l0.9-0.5L224.1,430.1L224.1,430.1z M169.9,431.7l-0.2,0.8c0.5,0.2,0.8,0.5,0.9,0.9c0.1,0.4,0,1.1-0.2,2.3
		l-2.6,11.2c-0.3,1.1-0.6,1.9-0.8,2.1c-0.3,0.3-0.6,0.4-1.2,0.4l-0.2,0.8l13.4,3.1c0.4,0.1,0.7,0.2,0.9,0.3c0.2,0.1,0.4,0.2,0.5,0.4
		l4.1-7l-0.6-0.3c-1.3,1.6-2.7,2.8-4.1,3.4c-1.4,0.6-2.8,0.8-4.3,0.4c-1-0.2-1.5-0.5-1.8-1c-0.3-0.4-0.3-1.2,0-2.2l1.4-6l1.4,0.3
		c1,0.3,1.8,0.6,2.3,1.2c0.5,0.6,0.8,1.5,0.9,2.8h0.6l0.5-7.3l-0.6-0.1c-0.3,0.8-0.6,1.3-1,1.5c-0.4,0.2-1.1,0.2-2.1,0l-1.5-0.4
		l0.4-1.9c0.2-0.9,0.5-1.4,0.8-1.7c0.3-0.2,0.9-0.2,1.6-0.1c1.5,0.4,2.7,1,3.5,1.9c0.9,0.9,1.4,2.1,1.7,3.6l0.8,0.1l-0.1-6.7
		c-0.2,0.2-0.4,0.3-0.7,0.3c-0.3,0-0.6,0-1-0.1L169.9,431.7L169.9,431.7z M206.5,435.6l-5.1,0.2v0.8c0.6,0.1,0.9,0.3,1.1,0.6
		c0.2,0.3,0.3,1.1,0.4,2.2l0.1,2.9l-3.8-3.9c-0.2-0.2-0.3-0.3-0.4-0.5c-0.1-0.2-0.2-0.4-0.2-0.5c0-0.2,0-0.3,0.2-0.5
		c0.1-0.1,0.3-0.2,0.5-0.4l0-0.8l-10.6,0.4l0,0.8c0.5,0.1,0.9,0.3,1.1,0.6c0.2,0.3,0.3,1.1,0.4,2.3l0.4,11.4c0,1.1,0,1.9-0.2,2.3
		c-0.2,0.3-0.5,0.6-1,0.7l0,0.8l5.5-0.2V454c-0.7,0-1.2-0.3-1.4-0.7c-0.3-0.4-0.4-1.2-0.5-2.5l-0.4-11.2l10.7,11.2l0,0.6
		c0,0.9-0.1,1.5-0.3,1.8c-0.2,0.3-0.7,0.5-1.4,0.5l0,0.8l5.5-0.2v-0.8c-0.6-0.1-0.9-0.3-1.1-0.6c-0.2-0.3-0.3-1.1-0.4-2.3l-0.4-11.4
		c-0.1-1.2,0-1.9,0.2-2.3c0.2-0.3,0.5-0.6,1-0.7L206.5,435.6L206.5,435.6z"/>
</g>
</svg>
