<?xml version="1.0" encoding="utf-8"?>
<!-- Generator: Adobe Illustrator 21.1.0, SVG Export Plug-In . SVG Version: 6.00 Build 0)  -->
<svg version="1.1" id="Layer_1" xmlns="http://www.w3.org/2000/svg" xmlns:xlink="http://www.w3.org/1999/xlink" x="0px" y="0px"
	 viewBox="0 0 200 200" style="enable-background:new 0 0 200 200;" xml:space="preserve">
<style type="text/css">
	.st0{fill:#FFFFFF;}
	.st1{fill:#441678;}
	.st2{fill:#AE9A64;}
</style>
<g>
	<g id="white_circle__x28_mid_x29_">
		<path id="FAK_Background__x28_white_x29_" class="st0" d="M140.1,120.2c0,23-19.5,41.7-40.2,41.7c-20.7,0-39.4-18.7-39.4-41.7
			c0-23,18.7-41.6,39.4-41.6S140.1,97.2,140.1,120.2z"/>
	</g>
	<g id="FK_font">
		<polygon class="st1" points="70.3,103.3 70.3,129.6 75,129.7 75,118.7 81.8,118.7 81.8,114.4 75,114.4 75,107.5 80.6,107.5 
			82.3,110.5 85.1,108.2 82.1,103.3 		"/>
		<polygon class="st1" points="125.3,114.1 132.3,103.3 127.3,103.3 120.9,113.3 120.9,103.1 116.3,103 116.3,129.2 121,129.2 
			121,120.5 122.7,118.5 128.5,128.8 133.6,128.8 		"/>
	</g>
	<g id="purple_circles">
		<path class="st1" d="M100,76.2c-24.6,0-44.6,20-44.6,44.6s20,44.6,44.6,44.6c24.6,0,44.6-20,44.6-44.6S124.6,76.2,100,76.2z
			 M99.5,104l6.9,28H93.2L99.5,104z M80.2,143.6c0,0-0.3,1.7-0.6,2.1c-0.3,0.3-0.6,1.5-2.9,1.6c-2.3,0.1-4.4-2.4-4.9-3
			c-0.5-0.7-3.6-4.2-6.2-10.7c-2.6-6.5-2.2-13-2.3-13.2s0.3-6.7,2.6-11.9c2.3-5.2,4.8-9.3,8.5-13s9.9-8.2,15.4-9.9
			c0,0,3.2-1.1,3.2,0.9c0,0.1-0.2,1.8-0.2,1.8c0,0-2.1,10.2-2.6,11.8c-0.5,1.6-8.6,37.2-8.6,37.2L80.2,143.6z M107.4,156.7
			c-0.5,0.2-4.5,0.7-6.7,0.7c-2.2,0-6.3-0.4-8.8-0.9c-2.5-0.5-3.2-2.2-2.9-4.6c0.4-2.4,2.4-11.6,2.4-11.6h17.4c0,0,1.9,6.2,2.2,7.3
			c0.3,1.1,0.8,3.6,0.9,4.2C111.8,152.5,112.6,154.8,107.4,156.7z M128.9,143.4c-3.2,4.4-5.3,3-5.6,2.9c-2.3-1-3.4-4.1-3.4-4.4
			c-0.1-0.4-15.2-53.6-15.2-53.6c-1.7-4.2,3.5-3.4,4.3-3.2c9.3,2.4,13.9,6.7,18.3,10.9c4.3,4.2,8.8,13.9,9.4,21.3
			s-1.2,14.3-2.7,17.6S132.1,139.1,128.9,143.4z"/>
		<path class="st1" d="M100,41.5c-43.8,0-79.3,35.5-79.3,79.3S56.2,200,100,200s79.3-35.5,79.3-79.3C179.3,77,143.8,41.5,100,41.5z
			 M58.3,122c0-23.6,17.6-42.7,41.3-42.7c23.6,0,42,19.5,42,43.1s-18,40.5-41.6,40.5S58.3,145.5,58.3,122z"/>
	</g>
	<g id="white_circles">
		<path class="st0" d="M100,74C74.2,74,53.3,95,53.3,120.7c0,25.8,20.9,46.7,46.7,46.7c25.8,0,46.7-20.9,46.7-46.7
			C146.7,95,125.8,74,100,74z M100.1,165.2c-24.6,0-44.6-19.9-44.6-44.5s20-44.5,44.6-44.5s44.6,19.9,44.6,44.5
			S124.7,165.2,100.1,165.2z"/>
		<path class="st0" d="M100,47.1c-40.6,0-73.6,33-73.6,73.6s33,73.6,73.6,73.6c40.6,0,73.6-33,73.6-73.6S140.6,47.1,100,47.1z
			 M100,190.9c-38.8,0-70.2-31.4-70.2-70.2S61.2,50.5,100,50.5s70.2,31.4,70.2,70.2S138.8,190.9,100,190.9z"/>
	</g>
	<g id="FONT">
		<path id="_x31__2_" class="st0" d="M35.4,115.5v1.1h1.7v9.7H39v-12.4h-1.1C37.2,114.5,36.3,115,35.4,115.5z"/>
		<path id="_x39_" class="st0" d="M45.3,113.9c-2.1,0-3,1.2-3,3.7v1.5c0,1.8,1,2.5,2.2,2.5c0.8,0,1.2-0.3,1.7-0.8v2.9
			c0,0.8-0.4,1.2-1,1.2c-0.6,0-0.9-0.4-0.9-1.2V123h-1.8v0.7c0,1.6,1.1,2.7,2.7,2.7c2.1,0,3-1,3-3.3v-5.8
			C48.3,115,47.4,113.9,45.3,113.9z M46.3,119.4c-0.3,0.2-0.7,0.6-1.1,0.6c-0.5,0-0.9-0.4-0.9-1.2v-2c0-0.8,0.4-1.2,1-1.2
			c0.6,0,1,0.4,1,1.2V119.4z"/>
		<path id="_x31_" class="st0" d="M152.5,115.7v1.1h1.7v9.7h1.9v-12.4H155C154.3,114.7,153.4,115.2,152.5,115.7z"/>
		<path id="_x31__1_" class="st0" d="M162.5,114.1c-0.7,0.6-1.6,1.1-2.5,1.6v1.1h1.7v9.7h1.9v-12.4L162.5,114.1L162.5,114.1z"/>
	</g>
	<g id="Fussballklub_Austria_Wien_Font">
		<polygon class="st0" points="57.3,93.8 52.2,90.7 53.9,88 52.1,86.9 50.5,89.6 47.5,87.8 49.7,84.2 48,83.1 44.5,88.8 56.1,95.8 
					"/>
		<path class="st0" d="M64,85.2c1.5-1.7,1.5-3.5-0.1-5.1l-7.4-7l-1.6,1.7l7.5,7c0.7,0.7,0.8,1.3,0.2,1.9c-0.6,0.6-1.2,0.6-1.9-0.1
			l-7.5-7l-1.6,1.7l7.4,7C60.6,87,62.5,86.8,64,85.2z"/>
		<path class="st0" d="M70.8,75c0.5,0.7,0.3,1.3-0.4,1.8c-0.6,0.4-1.5,0.2-2.3-0.9l-1.7,1.6c1.2,1.6,3.3,2.3,5.1,1
			c1.8-1.3,2.3-3.2,1.1-5c-2.1-3-6.7-1.1-8-3c-0.5-0.7-0.4-1.3,0.2-1.8c0.4-0.3,1.1-0.4,1.9,0.5l1.7-1.5c-1.3-1.4-3-1.9-4.6-0.8
			c-1.9,1.4-2.3,3.1-1,4.9C65,75.1,69.3,72.8,70.8,75z"/>
		<path class="st0" d="M79.9,70.1c0.3,0.7,0,1.4-0.7,1.7c-0.7,0.3-1.5-0.1-2.1-1.3l-1.9,1.2c0.9,1.8,2.8,2.9,4.8,2
			c2-0.9,2.9-2.7,2-4.7c-1.5-3.4-6.3-2.4-7.3-4.5c-0.3-0.8-0.2-1.4,0.5-1.7c0.5-0.2,1.2-0.2,1.8,0.9l2-1.2c-1-1.7-2.6-2.5-4.3-1.7
			c-2.1,1-2.8,2.6-2,4.6C74.1,69,78.8,67.7,79.9,70.1z"/>
		<path class="st0" d="M89.9,62.8c1-0.7,1.2-2,1-3.2c-0.5-2.3-1.9-3.3-4.4-2.7l-3.4,0.8L86,71l3.6-0.8c2.6-0.6,3.2-2.5,2.7-4.7
			C92.1,63.8,91.2,63,89.9,62.8z M85.8,59.1l0.9-0.2c1-0.2,1.6,0.3,1.9,1.5c0.2,1.1-0.3,1.9-1.2,2.1l-0.8,0.2L85.8,59.1z M88.9,68.4
			l-1,0.2L87,64.5l0.7-0.2c1.4-0.3,2,0.2,2.4,1.6C90.4,67.3,90.1,68.1,88.9,68.4z"/>
		<path class="st0" d="M100.9,55.3l-2.9,0.1L95.6,69l2.3-0.1l0.4-3l2.6-0.1l0.5,3l2.3-0.1L100.9,55.3z M98.6,63.9l0.8-5.9l0,0l1,5.8
			L98.6,63.9z"/>
		<polygon class="st0" points="110.7,56 108.4,55.6 106.1,69.1 112.1,70.1 112.5,68.1 108.8,67.5 		"/>
		<polygon class="st0" points="121.1,70.9 117.6,69.6 121.4,58.7 119.2,57.9 114.7,70.8 120.4,72.8 		"/>
		<polygon class="st0" points="127.2,70.8 128.7,69.9 128.7,70 127.2,76.4 129.3,77.6 131.1,68.7 135.8,65.6 133.7,64.4 129.1,67.6 
			129.1,67.6 131.6,63.2 129.5,62 122.7,73.9 124.8,75.1 		"/>
		<polygon class="st0" points="135.6,82.9 136.9,81.4 134.1,79 141.6,70.1 139.8,68.5 130.9,79 		"/>
		<path class="st0" d="M139.5,87.8c1.4,1.8,3.2,2,5.1,0.6l8-6.4l-1.5-1.9l-8.1,6.4c-0.8,0.6-1.4,0.6-1.9-0.1
			c-0.5-0.7-0.4-1.3,0.4-1.9l8.1-6.4l-1.5-1.9l-8,6.4C138.3,84.1,138.1,86,139.5,87.8z"/>
		<path class="st0" d="M157.4,90.5l-1.5-3.2l-12.3,6l1.6,3.4c1.2,2.4,3.1,2.6,5.1,1.6c1.6-0.8,2.1-1.8,2.1-3.1
			c0.9,0.8,2.2,0.7,3.3,0.2C157.9,94.4,158.5,92.8,157.4,90.5z M149.5,96.2c-1.2,0.6-2.1,0.5-2.6-0.6l-0.4-0.9l3.8-1.8l0.3,0.7
			C151.1,94.8,150.7,95.6,149.5,96.2z M154.5,93.4c-1,0.5-1.9,0.1-2.2-0.7l-0.4-0.8l3.3-1.6l0.4,0.8
			C156.1,92.1,155.7,92.8,154.5,93.4z"/>
		<path class="st0" d="M56.3,147.6l-12.8,5.1l1.2,1.9l2.8-1.3l1.4,2.2l-2.3,2l1.2,1.9l10.1-9.4L56.3,147.6z M50.4,154.2l-1-1.6
			l5.4-2.3l0,0L50.4,154.2z"/>
		<path class="st0" d="M64.2,157.7l-7.4,7c-0.7,0.7-1.4,0.7-1.9,0.1c-0.6-0.6-0.5-1.3,0.2-1.9l7.4-7l-1.6-1.7l-7.4,7
			c-1.7,1.6-1.7,3.5-0.1,5.1c1.6,1.6,3.4,1.8,5.1,0.2l7.4-7L64.2,157.7z"/>
		<path class="st0" d="M71.9,167.9c0.9-1.7,0.8-3.5-0.8-4.6c-1.9-1.4-3.7-1.1-5,0.6c-2.2,3.2,1.3,6.6-0.3,8.7
			c-0.5,0.7-1.2,0.7-1.8,0.2c-0.6-0.4-0.7-1.3,0-2.5l-2-1.1c-1.1,1.7-1.1,3.9,0.7,5.1c1.8,1.3,3.8,1.2,5.1-0.7
			c2.1-3-1.2-6.7,0.2-8.6c0.5-0.7,1.1-0.8,1.7-0.4c0.4,0.3,0.8,1,0.2,2L71.9,167.9z"/>
		<polygon class="st0" points="81.9,169.4 75.5,166.5 74.7,168.3 76.8,169.3 71.9,179.7 74.1,180.7 78.9,170.3 81,171.3 		"/>
		<path class="st0" d="M87.4,171.1l-3.2-0.8l-3.3,13.2l2.3,0.6l1.3-5.4c0.4,0.1,0.9,0.2,1.2,0.2l0.3,5.9l2.3,0.6l-0.5-6.5
			c0.9-0.1,1.9-0.8,2.4-2.9C91,173.1,90,171.7,87.4,171.1z M88,175.3c-0.4,1.6-1,1.9-2.2,1.6l-0.8-0.2l1-4l0.8,0.2
			C88.1,173.2,88.4,173.8,88,175.3z"/>
		<polygon class="st0" points="94,186 96.3,186.1 97.4,172.6 95,172.4 		"/>
		<path class="st0" d="M102.8,172.6l-1.4,13.7l2.3-0.2l0.2-3l2.6-0.2l0.7,3l2.3-0.2l-3.7-13.3L102.8,172.6z M104,181.1l0.4-5.9l0,0
			l1.4,5.7L104,181.1z"/>
		<polygon class="st0" points="124.2,166.6 126.6,175 126.6,175.1 121.5,167.8 119.8,168.6 121.9,177.2 121.9,177.2 117,169.9 
			115,170.8 123,182.1 124.8,181.3 122.5,172.4 122.6,172.4 127.9,179.9 129.7,179.1 126.3,165.7 		"/>
		
			<rect x="132.2" y="161.9" transform="matrix(0.8144 -0.5804 0.5804 0.8144 -73.1449 108.7382)" class="st0" width="2.4" height="13.6"/>
		<polygon class="st0" points="143.2,166.8 140.4,163.9 142.6,161.8 141.2,160.3 139,162.4 136.6,159.9 139.4,157.2 138,155.7 
			133.5,160.1 142.9,169.9 147.7,165.2 146.3,163.8 		"/>
		<polygon class="st0" points="143,149.1 149.4,153.5 149.4,153.5 141.4,151.5 140.1,153.3 151.2,161 152.5,159.3 145.5,154.4 
			145.5,154.4 154.2,156.8 155.4,155.1 144.3,147.3 		"/>
	</g>
	<g id="Sterne">
		<polygon class="st2" points="71.7,0 76,13 89.6,13 78.6,21.1 82.8,34.1 71.7,26 60.6,34.1 64.9,21.1 53.8,13 67.5,13 		"/>
		<polygon class="st2" points="127.2,0 131.4,13 145.1,13 134,21.1 138.2,34.1 127.2,26 116.1,34.1 120.3,21.1 109.2,13 122.9,13 		
			"/>
	</g>
</g>
</svg>
