<?xml version="1.0" encoding="utf-8"?>
<!-- Generator: Adobe Illustrator 21.1.0, SVG Export Plug-In . SVG Version: 6.00 Build 0)  -->
<svg version="1.1" id="Layer_1" xmlns="http://www.w3.org/2000/svg" xmlns:xlink="http://www.w3.org/1999/xlink" x="0px" y="0px"
	 viewBox="0 0 200 200" style="enable-background:new 0 0 200 200;" xml:space="preserve">
<style type="text/css">
	.st0{fill:#344487;}
	.st1{fill:#FFFFFF;}
	.st2{fill:#D32222;}
</style>
<g>
	<polygon class="st0" points="147,62.9 108.5,18 115.3,12.5 103.4,12.5 100,1 96.6,12.5 84.7,12.5 91.5,18 53,62.9 46.4,62.9 
		46.4,93.5 53,93.5 100,199 147,93.5 153.6,93.5 153.6,62.9 	"/>
	<path class="st1" d="M49.2,65.7c0,4.1,0,20.9,0,25c5.1,0,96.5,0,101.6,0c0-4.1,0-20.9,0-25C145.7,65.7,54.3,65.7,49.2,65.7z"/>
	<polygon class="st2" points="100,23.1 106.9,28.1 104.9,18.9 111.7,13.5 102.5,13.5 100,5.4 97.5,13.5 88.3,13.5 95.1,18.9 
		93.1,28.1 	"/>
	<path class="st1" d="M71.4,62.9V45.7c6.3-7.3,13.2-15.3,17.9-20.8v38H71.4z M128.6,62.9V45.7c-6.3-7.3-13.2-15.3-17.9-20.8v38
		H128.6z M71.4,93.5V128c5.9,13.2,12.5,28,17.9,40.1V93.5H71.4z M110.7,93.5v74.7c5.4-12.1,12-26.9,17.9-40.1V93.5H110.7z"/>
	<g>
		<path class="st0" d="M61.2,79.8c-0.3-0.4-0.6-0.7-1-0.9c0.2-0.2,0.4-0.5,0.6-0.8c0.3-0.6,0.5-1.2,0.5-1.9c0-0.8-0.2-1.4-0.5-2
			c-0.4-0.6-0.8-1-1.4-1.3c-0.5-0.2-1.4-0.4-2.6-0.4H52v13.7h4c1.6,0,2.6-0.1,3.1-0.2c0.7-0.2,1.4-0.6,1.9-1.4
			c0.5-0.7,0.8-1.6,0.8-2.6C61.8,81.1,61.6,80.4,61.2,79.8z M55.1,75.5c0.4,0,0.7,0,0.7,0c1.5,0,1.8,0.1,1.9,0.1
			c0.1,0,0.2,0.1,0.3,0.3c0.1,0.2,0.2,0.4,0.2,0.6c0,0.3-0.1,0.5-0.2,0.7c-0.1,0.2-0.3,0.3-0.6,0.3c-0.1,0-0.4,0-1.5,0
			c0,0-0.5,0-0.9,0C55.1,77,55.1,76.1,55.1,75.5z M58.5,82.6c-0.1,0.2-0.2,0.3-0.4,0.3c-0.1,0-0.4,0.1-1.5,0.1c0,0-0.9,0-1.5,0
			c0-0.6,0-1.9,0-2.5c0.5,0,1.2,0,1.2,0c1.1,0,1.5,0.1,1.6,0.1c0.2,0.1,0.3,0.2,0.5,0.4c0.1,0.2,0.2,0.4,0.2,0.8
			C58.6,82.2,58.6,82.4,58.5,82.6z"/>
		<path class="st0" d="M69.3,72.4V80c0,1.5-0.1,2.1-0.2,2.4c-0.1,0.3-0.2,0.5-0.5,0.7c-0.2,0.2-0.5,0.2-0.9,0.2
			c-0.5,0-0.8-0.1-1.1-0.3c-0.3-0.2-0.4-0.6-0.5-1c0-0.2-0.1-0.7-0.1-2v-7.4H63v7.3c0,2,0.1,3.3,0.4,4.1c0.3,0.8,0.8,1.4,1.5,1.9
			c0.7,0.4,1.6,0.7,2.8,0.7c1.2,0,2.1-0.3,2.8-0.8c0.7-0.5,1.2-1.3,1.4-2.1c0.2-0.8,0.3-2.1,0.3-3.8v-7.2H69.3z"/>
		<path class="st0" d="M83.4,76.2c-0.3-0.9-0.6-1.6-1.1-2.2c-0.5-0.6-1-1-1.6-1.2c-0.6-0.2-1.3-0.4-2.4-0.4h-4.3v13.7h4.4
			c0.9,0,1.7-0.1,2.3-0.4c0.6-0.3,1.1-0.7,1.6-1.2c0.4-0.5,0.8-1.2,1-2.1c0.3-0.9,0.4-1.9,0.4-3C83.8,78.2,83.7,77.1,83.4,76.2z
			 M80.5,81.4c-0.1,0.6-0.3,0.9-0.4,1c-0.1,0.2-0.3,0.3-0.6,0.4c-0.2,0.1-0.5,0.2-1.3,0.2c0,0-0.6,0-1.1,0c0-0.8,0-6.7,0-7.5
			c0.2,0,0.5,0,0.5,0c1,0,1.4,0.1,1.6,0.1c0.3,0.1,0.6,0.2,0.8,0.5c0.2,0.3,0.4,0.6,0.5,1.1c0.1,0.5,0.2,1.2,0.2,2.1
			C80.7,80.2,80.6,80.9,80.5,81.4z"/>
		<path class="st0" d="M91.3,72.4V80c0,1.5-0.1,2.1-0.2,2.4c-0.1,0.3-0.2,0.5-0.5,0.7c-0.2,0.2-0.5,0.2-0.9,0.2
			c-0.5,0-0.8-0.1-1.1-0.3c-0.3-0.2-0.4-0.6-0.5-1c0-0.2-0.1-0.7-0.1-2v-7.4h-3.1v7.3c0,2,0.1,3.3,0.4,4.1c0.3,0.8,0.8,1.4,1.5,1.9
			c0.7,0.4,1.6,0.7,2.8,0.7c1.2,0,2.1-0.3,2.8-0.8c0.7-0.5,1.2-1.3,1.4-2.1c0.2-0.8,0.3-2.1,0.3-3.8v-7.2H91.3z"/>
		<path class="st0" d="M97.3,74c-1,1.3-1.6,3.1-1.6,5.4c0,2.2,0.5,3.9,1.6,5.2c0.9,1.2,2.2,1.8,3.7,1.8c1.2,0,2.2-0.4,3.1-1.1
			c0.8-0.7,1.4-1.9,1.7-3.4l0.1-0.4l-3-1.1l-0.1,0.6c-0.2,0.8-0.4,1.5-0.8,1.8c-0.3,0.3-0.7,0.5-1.1,0.5c-0.6,0-1.1-0.3-1.5-0.8
			c-0.4-0.6-0.6-1.7-0.6-3.2c0-1.4,0.2-2.5,0.6-3.1c0.4-0.5,0.9-0.8,1.5-0.8c0.4,0,0.8,0.1,1.1,0.4c0.3,0.3,0.5,0.7,0.7,1.3l0.1,0.5
			l3-0.9l-0.1-0.4c-0.3-1.2-0.7-2.1-1.4-2.8c-0.9-0.9-2-1.3-3.3-1.3C99.5,72.2,98.3,72.8,97.3,74z M100.8,68.5l-1.1,3h1.7l2.3-3
			H100.8z"/>
		<path class="st0" d="M113.5,72.4c0,0,0,4.7,0,7c-1.1-2.2-3.5-7-3.5-7h-2.8v13.7h2.9c0,0,0-4.5,0-6.8c1.1,2.2,3.5,6.8,3.5,6.8h2.9
			V72.4H113.5z"/>
		<path class="st0" d="M127.3,74.1c-1-1.3-2.4-1.9-4-1.9c-1.1,0-2.1,0.3-2.9,0.8c-0.8,0.5-1.5,1.3-1.9,2.4c-0.5,1-0.7,2.4-0.7,4
			c0,2.2,0.5,4,1.6,5.3c1,1.2,2.3,1.7,4,1.7c1.6,0,3-0.6,3.9-1.8c1.1-1.3,1.6-3.1,1.6-5.3C128.8,77.1,128.3,75.3,127.3,74.1z
			 M125,82.3c-0.5,0.6-1,0.9-1.7,0.9c-0.7,0-1.2-0.3-1.7-0.9c-0.5-0.6-0.7-1.7-0.7-3c0-1.4,0.2-2.4,0.7-3c0.5-0.6,1-0.9,1.7-0.9
			c0.7,0,1.3,0.3,1.7,0.9c0.5,0.6,0.7,1.6,0.7,3C125.7,80.7,125.4,81.7,125,82.3z"/>
		<path class="st0" d="M131.9,72.7c-0.6,0.3-1.2,0.8-1.5,1.5c-0.4,0.6-0.5,1.3-0.5,2.1c0,0.7,0.1,1.3,0.4,1.9
			c0.3,0.6,0.7,1.1,1.1,1.4c0.5,0.4,1.2,0.7,2.1,1c1.2,0.4,1.7,0.5,1.8,0.6c0.2,0.1,0.3,0.2,0.4,0.3c0.1,0.1,0.1,0.3,0.1,0.5
			c0,0.4-0.1,0.6-0.4,0.9c-0.3,0.3-0.7,0.4-1.2,0.4c-0.7,0-1.6-0.2-1.8-2l-0.1-0.5l-3,0.4l0,0.5c0.4,4,2.8,4.8,4.8,4.8
			c1.6,0,2.8-0.4,3.6-1.3c0.8-0.8,1.1-1.9,1.1-3.1c0-0.8-0.1-1.6-0.4-2.2c-0.3-0.6-0.7-1.1-1.2-1.5c-0.5-0.4-1.3-0.7-2.4-1
			c-1.2-0.3-1.6-0.6-1.8-0.7c-0.2-0.1-0.3-0.3-0.3-0.5c0-0.1,0-0.3,0.3-0.5c0.2-0.2,0.6-0.3,1-0.3c0.4,0,0.8,0.1,1,0.3
			c0.2,0.2,0.4,0.6,0.4,1.1l0.1,0.4l3-0.2l0-0.5c0-1.4-0.5-2.4-1.2-3.2c-0.8-0.8-1.9-1.1-3.2-1.1C133.3,72.2,132.5,72.4,131.9,72.7z
			"/>
		<path class="st0" d="M139.4,72.4v3.1c0,0,2.4,0,3.1,0c0,0.9,0,10.6,0,10.6h3.1c0,0,0-9.8,0-10.6c0.7,0,3.1,0,3.1,0v-3.1H139.4z"/>
	</g>
	<g>
		<path class="st0" d="M71.9,54.3h6.3v1.8h-3.7v1.4h3.2v1.7h-3.2v3.4h-2.6V54.3z"/>
		<path class="st0" d="M79.5,54.3h2.5v3.1l2.7-3.1h3.4l-3,3.1l3.1,5.1h-3.1l-1.7-3.4l-1.3,1.4v2h-2.5V54.3z"/>
	</g>
	<g>
		<path class="st0" d="M114.6,100.6h-1v-4.5c-0.4,0.4-0.8,0.7-1.3,0.9v-1.1c0.3-0.1,0.6-0.3,0.8-0.6c0.3-0.3,0.5-0.6,0.6-1h0.8
			V100.6z"/>
		<path class="st0" d="M116,99.1L117,99c0,0.5,0.2,0.7,0.6,0.7c0.2,0,0.4-0.1,0.5-0.3c0.1-0.2,0.2-0.7,0.3-1.4
			c-0.1,0.2-0.3,0.3-0.4,0.4c-0.2,0.1-0.3,0.1-0.5,0.1c-0.4,0-0.7-0.2-1-0.6c-0.3-0.4-0.5-0.9-0.5-1.5c0-0.7,0.2-1.2,0.5-1.6
			c0.3-0.4,0.7-0.6,1.2-0.6c0.5,0,0.9,0.2,1.3,0.7c0.3,0.5,0.5,1.3,0.5,2.4c0,1.1-0.2,2-0.5,2.5c-0.3,0.5-0.8,0.8-1.4,0.8
			c-0.4,0-0.7-0.1-1-0.4C116.3,100,116.1,99.7,116,99.1z M118.3,96.5c0-0.4-0.1-0.7-0.2-0.9c-0.1-0.2-0.3-0.3-0.5-0.3
			c-0.2,0-0.3,0.1-0.5,0.3c-0.1,0.2-0.2,0.5-0.2,0.9c0,0.4,0.1,0.7,0.2,0.9c0.1,0.2,0.3,0.3,0.5,0.3c0.2,0,0.3-0.1,0.5-0.3
			C118.2,97.1,118.3,96.9,118.3,96.5z"/>
		<path class="st0" d="M123.3,99.5v1.1h-3.4c0-0.4,0.1-0.8,0.3-1.2c0.2-0.4,0.6-0.9,1.1-1.5c0.4-0.5,0.7-0.8,0.8-1
			c0.1-0.3,0.2-0.5,0.2-0.8c0-0.3-0.1-0.5-0.2-0.6c-0.1-0.1-0.3-0.2-0.5-0.2c-0.4,0-0.7,0.3-0.7,1l-1-0.1c0.1-0.6,0.2-1.1,0.5-1.4
			c0.3-0.3,0.7-0.4,1.2-0.4c0.5,0,0.9,0.2,1.2,0.5c0.3,0.3,0.4,0.8,0.4,1.2c0,0.3,0,0.5-0.1,0.7c-0.1,0.2-0.2,0.5-0.3,0.7
			c-0.1,0.2-0.4,0.6-0.7,0.9c-0.3,0.4-0.5,0.6-0.6,0.7c-0.1,0.1-0.2,0.2-0.2,0.3H123.3z"/>
		<path class="st0" d="M123.9,99l1-0.1c0,0.3,0.1,0.5,0.3,0.6c0.1,0.2,0.3,0.2,0.5,0.2c0.2,0,0.4-0.1,0.5-0.3
			c0.1-0.2,0.2-0.5,0.2-0.9c0-0.4-0.1-0.7-0.2-0.9c-0.1-0.2-0.3-0.3-0.5-0.3c-0.3,0-0.5,0.2-0.8,0.5l-0.8-0.1l0.5-3.3h2.6v1.1h-1.8
			l-0.2,1.1c0.2-0.1,0.4-0.2,0.7-0.2c0.4,0,0.7,0.2,1,0.5c0.4,0.4,0.5,0.9,0.5,1.6c0,0.5-0.2,1.1-0.5,1.5c-0.3,0.5-0.7,0.7-1.3,0.7
			c-0.5,0-0.8-0.1-1.1-0.4C124.2,99.9,124,99.5,123.9,99z"/>
	</g>
</g>
</svg>
