<?xml version="1.0" encoding="utf-8"?>
<!-- Generator: Adobe Illustrator 21.1.0, SVG Export Plug-In . SVG Version: 6.00 Build 0)  -->
<svg version="1.1" id="Ñëîé_1" xmlns="http://www.w3.org/2000/svg" xmlns:xlink="http://www.w3.org/1999/xlink" x="0px" y="0px"
	 viewBox="0 0 200 200" style="enable-background:new 0 0 200 200;" xml:space="preserve">
<style type="text/css">
	.st0{fill:#0070A8;}
	.st1{fill:#FFFFFF;}
</style>
<g>
	<path class="st0" d="M100,0c55.2,0,100,44.8,100,100c0,55.2-44.8,100-100,100C44.8,200,0,155.2,0,100S44.8,0,100,0L100,0z"/>
	<path class="st1" d="M100,25.3c41.3,0,74.7,33.5,74.7,74.7s-33.5,74.7-74.7,74.7S25.3,141.2,25.3,100C25.3,58.7,58.7,25.3,100,25.3
		L100,25.3z M100,197.8c53.9,0,97.8-43.9,97.8-97.8S153.9,2.1,100,2.1S2.2,46,2.2,100C2.2,153.9,46.1,197.8,100,197.8z"/>
	<path class="st0" d="M162.2,31.4l3,3.1l-1.6,1.5c-0.6,0.5-1.2,0.8-1.9,0.8c-0.7,0-1.6-0.4-2.7-1.1l0.2-1.5c0.7,0.4,1.2,0.6,1.6,0.7
		c0.4,0,0.7,0,0.9-0.2l-1.5-1.5L162.2,31.4L162.2,31.4z"/>
	<path class="st0" d="M167.3,36.9l2.9,3.2l-1.6,1.5c-0.6,0.5-1.2,0.8-1.9,0.7c-0.7-0.1-1.6-0.5-2.7-1.2l0.2-1.5
		c0.7,0.4,1.2,0.7,1.6,0.7c0.4,0.1,0.7,0,0.9-0.2l-1.4-1.6L167.3,36.9L167.3,36.9z"/>
	<path class="st0" d="M65.9,186.7l5.3-12l3.9,1.7c1.5,0.7,3.6,1.6,4,1.9c0.6,0.5,1,1.1,1.2,1.9s0.1,1.7-0.3,2.7
		c-0.3,0.7-0.7,1.3-1.2,1.7c-0.5,0.4-1,0.6-1.5,0.7c-0.5,0.1-1.1,0.1-1.5,0c-0.6-0.1-1.5-0.5-2.6-0.9l-2.7-1.2l-2,4.5L65.9,186.7
		L65.9,186.7z M72.7,177.7l-1.5,3.4l2.5,1.1c0.9,0.4,1.6,0.7,2,0.7c0.4,0,0.7-0.1,1-0.3c0.3-0.2,0.5-0.5,0.7-0.8
		c0.2-0.4,0.2-0.9,0.1-1.2c-0.1-0.4-0.4-0.7-0.7-0.9c-0.3-0.2-0.8-0.5-1.7-0.8L72.7,177.7L72.7,177.7z"/>
	<path class="st0" d="M25.2,137.8c-0.7,0-1.4,0.3-2,0.7c-0.7,0.4-1.1,1-1.4,1.6c-0.3,0.6-0.4,1.2-0.4,2c0,0.1,0,0.1,0,0.2
		c0,0.8,0.2,1.7,0.5,2.7c0.3,0.9,0.9,2,1.5,3.1l0.1,0.1c0,0-0.9,0.6-1.1,0.7c0.2,0.3,2.1,3.2,2.3,3.5c0.2-0.1,1.1-0.7,1.1-0.7
		l0.1,0.1c0.7,1,1.5,1.9,2.3,2.6c0.8,0.7,1.5,1.2,2.2,1.6c0.7,0.3,1.5,0.5,2.1,0.4c0.7,0,1.3-0.3,2-0.7c0.7-0.4,1.1-0.9,1.4-1.6
		c0.3-0.6,0.4-1.3,0.4-2c0-0.1,0-0.1,0-0.2c0-0.8-0.2-1.7-0.5-2.7c-0.3-0.9-0.8-2-1.5-3l-0.1-0.1c0,0,0.9-0.6,1.2-0.8
		c-0.2-0.3-2.1-3.2-2.3-3.5c-0.2,0.1-1.2,0.8-1.2,0.8l-0.1-0.2c-0.8-1-1.5-1.9-2.2-2.5s-1.5-1.2-2.3-1.5
		C26.6,137.9,25.9,137.8,25.2,137.8z M24.9,146.9c-0.5-1-0.8-2-0.7-2.8l0,0c0.1-0.8,0.5-1.5,1.3-2c0.8-0.5,1.6-0.7,2.4-0.6
		s1.6,0.7,2.4,1.7l0.1,0.1l-5.5,3.6L24.9,146.9z M27.4,150.7l-0.1-0.1l5.5-3.6l0.1,0.2c0.6,1.2,0.8,2.1,0.6,2.9
		c-0.1,0.8-0.7,1.4-1.5,2c-0.8,0.5-1.6,0.7-2.4,0.4C28.9,152.2,28.2,151.6,27.4,150.7z"/>
	<path class="st0" d="M12.1,126.2c0.2,0,7.2,1.4,7.2,1.4s-4.4,6.1-4.4,6.3c0.1,0.1,1.3,3.6,1.5,4.2c0.4-0.6,6.6-9.7,6.6-9.7l0.1,0
		c0.3,0,0.5,0.3,0.9,0.8c0.3,0.4,0.5,1,0.8,1.8l0.4,1.2c0,0,0.1,0.8,0.2,0.9c0,0,0,0,0,0.1c0.3-0.1,2-0.7,2.3-0.8
		c-0.1-0.3-0.4-1.3-0.4-1.3l-0.6-1.9c-0.1-0.5-0.4-0.9-0.5-1.4c-0.2-0.4-0.5-0.9-0.8-1.3c-0.3-0.4-0.7-0.8-1.2-1.1
		c-0.5-0.3-1.1-0.5-1.7-0.7c0,0-10.9-2.4-11.6-2.5C10.9,122.7,12.1,126,12.1,126.2z"/>
	<path class="st0" d="M8.2,104c0,0.4,1.9,14.7,1.9,15.1c0.3,0,1.8-0.2,2.1-0.3c0-0.3-0.7-5.5-0.7-5.5s10-1.3,10.4-1.3
		c0-0.3-0.5-3.8-0.5-4.1c-0.4,0-10.4,1.3-10.4,1.3s-0.7-5.1-0.7-5.5C10,103.7,8.5,103.9,8.2,104z"/>
	<path class="st0" d="M16.3,85.2c-0.5,0.2-1,0.6-1.3,1.1c-0.4,0.5-0.7,1.2-0.9,1.9c-0.2,0.8-0.3,1.7-0.4,2.9l-0.3,3.9l-2.7-0.2
		c0,0,0.8-8.8,0.8-9.2c-0.3,0-1.8-0.1-2.1-0.2c0,0.4-1.1,12.9-1.1,13.3c0.4,0,12.2,1.1,12.5,1.1c0-0.4,0.7-7.9,0.7-7.9
		c0-0.5,0.1-1.1,0.1-1.5c0-0.5,0-0.9-0.1-1.3c-0.1-0.8-0.3-1.5-0.7-2.3c-0.3-0.6-0.7-1-1.1-1.4c-0.5-0.4-1-0.5-1.6-0.6
		C17.4,84.9,16.9,85,16.3,85.2z M18.8,95.6l-3.4-0.3l0.3-3.1c0.1-0.7,0.1-1.2,0.3-1.6c0.1-0.4,0.3-0.7,0.5-0.9
		c0.2-0.2,0.4-0.4,0.7-0.4c0.2,0,0.4-0.1,0.7,0c0.3,0,0.5,0.1,0.7,0.3c0.2,0.1,0.4,0.3,0.5,0.6c0.1,0.3,0.2,0.6,0.3,1
		c0.1,0.4,0.1,0.9,0,1.4l-0.3,3.1L18.8,95.6z"/>
	<path class="st0" d="M16.7,65.2c-1.6,1.1-2.9,3-3.8,5.6c-0.5,1.6-0.8,3-0.8,4.3c0,0.9,0.1,1.7,0.4,2.5c0.6,1.9,1.9,3.1,3.8,3.7
		c1.9,0.6,3.7,0.4,5.3-0.7c1.6-1.1,2.9-3,3.8-5.6c0.9-2.7,1-4.9,0.4-6.8c-0.6-1.9-1.9-3.1-3.8-3.7C20.1,63.9,18.3,64.1,16.7,65.2z
		 M17.7,77.2L17.7,77.2c-0.7-0.3-1.3-0.6-1.8-1c-0.5-0.4-0.8-0.9-1-1.4c-0.2-0.5-0.3-1.1-0.3-1.6c0-0.5,0.1-1.1,0.3-1.7
		c0.2-0.5,0.4-1.1,0.8-1.5c0.3-0.5,0.7-0.8,1.2-1.1c0.5-0.3,1-0.4,1.6-0.5c0.6-0.1,1.3,0,2.1,0.3c0.7,0.3,1.3,0.5,1.7,0.9
		c0.5,0.4,0.8,0.9,1.1,1.5c0.2,0.5,0.3,1.1,0.3,1.6c0,0.6-0.1,1.1-0.3,1.7s-0.4,1.1-0.8,1.6c-0.3,0.5-0.7,0.8-1.2,1.1
		s-1,0.4-1.6,0.5C19.2,77.5,18.5,77.5,17.7,77.2z"/>
	<path class="st0" d="M20,55.1c0.3,0.2,1.9,1.3,1.9,1.3l1.6,1.2c1.2,0.9,2.1,1.7,2.7,2.4c0.6,0.7,0.9,1.4,0.9,2.1
		c0,0.2,0,0.4-0.1,0.7c-0.1,0.2-0.3,0.5-0.5,0.9l-0.2,0.3c0,0-0.1,0.1-0.1,0.1c0.3,0.2,1.9,1.2,2.1,1.4c0.1-0.2,0.4-0.5,0.4-0.5
		l0.7-1c0.3-0.5,0.6-1.1,0.8-1.6c0.1-0.5,0.2-0.9,0.2-1.4c0,0,0-0.1,0-0.1c0-0.4-0.1-0.7-0.2-1.2c-0.1-0.4-0.3-0.9-0.6-1.4
		c-0.3-0.5-0.7-1-1.2-1.6c-0.5-0.6-1.3-1.3-2.2-2l-1-0.8l-1.2-0.9l2.9-4.6c0,0,8.5,5.5,8.8,5.7c0.2-0.3,2.1-3.2,2.3-3.5
		c-0.3-0.2-10.3-6.7-10.6-6.8C27.2,44.1,20.2,54.8,20,55.1z"/>
	<path class="st0" d="M31.9,38.5c0.3,0.3,8.5,8.8,8.8,9c0.3-0.3,8.6-8.4,8.9-8.7c-0.2-0.2-1.3-1.3-1.5-1.5c-0.3,0.3-5.9,5.7-5.9,5.7
		l-2.5-2.6c0,0,5.2-5.1,5.5-5.3c-0.2-0.2-1.3-1.3-1.5-1.5c-0.3,0.3-5.5,5.3-5.5,5.3l-1.8-1.9c0,0,5.6-5.5,5.9-5.7
		c-0.2-0.2-1.3-1.3-1.5-1.5C40.5,30.1,32.2,38.3,31.9,38.5z"/>
	<path class="st0" d="M55.3,20c0.2,0.3,2.5,4,2.5,4l-6,3.7c0,0-2.3-3.7-2.5-4c-0.3,0.2-3.3,2-3.6,2.2c0.2,0.3,6.4,10.4,6.6,10.7
		c0.3-0.2,3.3-2,3.6-2.2c-0.2-0.3-3-4.9-3-4.9l6-3.7c0,0,2.8,4.6,3,4.9c0.3-0.2,3.3-2,3.6-2.2c-0.2-0.3-6.4-10.4-6.6-10.7
		C58.6,18,55.6,19.9,55.3,20z"/>
	<path class="st0" d="M88.4,8.9l-1.1,0.2c-1.3,0.3-2.3,0.7-2.8,1.1c-0.5,0.4-1.1,1.1-1.5,2l-0.4,0.8l-0.4,0.8
		c-0.2,0.4-0.4,0.7-0.6,1c-0.2,0.3-0.4,0.5-0.6,0.7c-0.2,0.1-0.4,0.3-0.7,0.4l-1.1,0.3l0-0.2c0,0-1-4.7-1.1-5
		c-0.3,0.1-3.7,0.8-4.1,0.9c0.1,0.4,2.5,12,2.6,12.3c0.3-0.1,3.7-0.8,4.1-0.9c-0.1-0.3-1.1-5.1-1.1-5.1l1.4-0.3c0,0,6,4,6.2,4
		c0.1,0,4.1-0.9,4.9-1.1c-0.7-0.4-8-5-8-5l0.3-0.1c0.2-0.1,0.4-0.4,0.6-0.7c0.2-0.3,0.5-0.8,0.8-1.5c0.3-0.7,0.6-1.2,0.9-1.6
		c0.3-0.3,0.8-0.6,1.5-0.7c0,0,0.8-0.2,1.1-0.2C89.4,10.8,89,9,88.9,8.7C88.7,8.8,88.4,8.9,88.4,8.9z"/>
	<path class="st0" d="M99.1,10.5L99.1,10.5L99.1,10.5l-0.2,2c-0.2,1.5-0.4,2.7-0.7,3.6c-0.3,0.9-0.8,1.5-1.4,1.9
		c-0.2,0.1-0.4,0.2-0.7,0.2c-0.2,0-0.5,0-1,0l-0.3,0c0,0-0.1,0-0.2,0c0,0.3-0.1,2.3-0.1,2.5c0.2,0,0.6,0.1,0.6,0.1l1.2,0.1
		c0.6,0,1.2,0,1.8-0.1c0.5-0.1,1-0.3,1.4-0.5c0.3-0.2,0.6-0.4,0.9-0.7s0.6-0.7,0.9-1.2c0.3-0.5,0.5-1.1,0.8-1.9
		c0.3-0.8,0.4-1.7,0.6-2.9l0.2-1.3l0.2-1.5l5.5,0.3c0,0-0.5,10.1-0.5,10.4c0.3,0,3.9,0.2,4.2,0.2c0-0.4,0.7-12.2,0.7-12.6
		c-0.4,0-13.1-0.7-13.5-0.7C99.2,8.6,99.1,10.5,99.1,10.5z"/>
	<path class="st0" d="M121.8,20.7l0,0.1l-0.1,0.1c-0.2,0.2-0.6,0.3-1.1,0.3c-0.5,0-1.2-0.1-1.9-0.4l-1.2-0.4c0,0-0.7-0.3-0.8-0.4
		c0,0,0,0-0.1,0c-0.1,0.3-0.6,2.1-0.7,2.4c0.3,0.1,1.3,0.4,1.3,0.4l1.9,0.6c0.5,0.1,0.9,0.3,1.5,0.4c0.5,0.1,1,0.1,1.5,0.1
		c0.5,0,1.1-0.1,1.6-0.3c0.5-0.2,1.1-0.5,1.6-1c0,0,8.4-7.5,8.8-7.9c-0.5-0.1-4-1.2-4.1-1.2c-0.1,0.1-5.3,5-5.3,5s-2.4-7.1-2.5-7.3
		c-0.1,0-3.7-1.1-4.3-1.3C118.1,10.4,121.8,20.7,121.8,20.7z"/>
	<path class="st0" d="M132.4,27.7c0.3,0.2,6.9,3.9,6.9,3.9c0.9,0.5,1.8,0.9,2.5,1.2c0.7,0.2,1.5,0.3,2.3,0.3c0.6,0,1.2-0.2,1.7-0.5
		c0.5-0.3,0.9-0.7,1.2-1.2c0.3-0.5,0.4-1.1,0.5-1.6c0-0.5-0.1-1.1-0.5-1.7c-0.3-0.6-0.8-1.1-1.4-1.6c-0.6-0.5-1.5-1-2.5-1.6
		l-3.4-1.9l1.3-2.4c0,0,7.7,4.3,8,4.5c0.1-0.3,0.9-1.6,1.1-1.9c-0.3-0.2-11.3-6.3-11.7-6.5C138.4,17,132.6,27.3,132.4,27.7z
		 M141,29.9L141,29.9c-0.4-0.1-0.8-0.3-1.3-0.5l-2.7-1.5l1.7-3.1l2.7,1.5c0.6,0.3,1,0.6,1.3,0.9c0.3,0.3,0.5,0.5,0.6,0.8
		c0.1,0.3,0.1,0.5,0.1,0.8s-0.1,0.4-0.2,0.6c-0.1,0.2-0.3,0.4-0.5,0.5c-0.2,0.1-0.5,0.2-0.7,0.2C141.8,30.1,141.5,30,141,29.9z"/>
	<path class="st0" d="M168.2,47.3L168.2,47.3c-1.7,0.6-3.5,0.9-5.2,0.9h-0.1c0,0-0.5-0.8-0.7-1c-0.3,0.2-4,2.6-4.2,2.8
		c0.2,0.3,1.9,2.9,2.1,3.2c0.3-0.2,2.5-1.7,2.5-1.7l6.1,9.2c0,0-2.2,1.5-2.5,1.7c0.2,0.3,1.9,2.9,2.1,3.2c0.3-0.2,4-2.6,4.2-2.8
		c-0.1-0.3-0.9-1.5-0.9-1.5s8.4-5.6,8.7-5.8c-0.2-0.3-6.9-10.4-7.1-10.7C171.6,45.9,169.9,46.8,168.2,47.3z M169.2,57.7l-4.1-6.2
		h0.3c1.2,0,2.5-0.2,3.9-0.5c1.3-0.4,2.7-0.9,4.1-1.6l0.1-0.1l2.7,4l-6.9,4.6L169.2,57.7z"/>
	<path class="st0" d="M176.9,71.1l-0.1,0.1l-0.1,0c-0.3,0-0.5-0.3-0.9-0.8c-0.3-0.4-0.5-1-0.8-1.8l-0.4-1.2c0,0-0.1-0.8-0.2-0.8
		c0,0,0,0,0-0.1c-0.3,0.1-2,0.7-2.3,0.8c0.1,0.3,0.4,1.3,0.4,1.3l0.6,1.9c0.1,0.5,0.4,0.9,0.6,1.4c0.2,0.4,0.5,0.9,0.8,1.3
		s0.7,0.8,1.2,1.1c0.5,0.3,1.1,0.5,1.7,0.7c0,0,11,2.4,11.6,2.5c-0.2-0.5-1.4-3.9-1.5-4.1c-0.2,0-7.2-1.4-7.2-1.4s4.3-6.2,4.4-6.3
		c-0.1-0.1-1.3-3.6-1.5-4.2C183.1,62,176.9,71.1,176.9,71.1z"/>
	<path class="st0" d="M177.9,84.7c0,0.3,0.4,3.8,0.4,4.1c0.4,0,5.7-0.5,5.7-0.5l0.7,7.1c0,0-5.3,0.5-5.7,0.5c0,0.3,0.4,3.8,0.4,4.1
		c0.4,0,12.2-1.2,12.5-1.2c0-0.3-0.4-3.8-0.4-4.1c-0.3,0-4.7,0.4-4.7,0.4l-0.7-7.1c0,0,4.4-0.4,4.7-0.4c0-0.3-0.4-3.8-0.4-4.1
		C190,83.6,178.2,84.7,177.9,84.7z"/>
	<path class="st0" d="M178.7,107.5c0.2,0.1,2.4,1.6,2.4,1.6l-1,6.7c0,0-2.6,0.8-2.8,0.8c0,0.2-0.6,3.7-0.7,4.3
		c0.5-0.2,13.2-4.3,13.4-4.3c0-0.2,0.7-4.7,0.8-4.9c-0.2-0.1-11-7.9-11.5-8.2C179.3,103.9,178.8,107.3,178.7,107.5z M182.3,114.9
		l0.7-4.5l4.8,3.2l-5.6,1.6L182.3,114.9z"/>
	<path class="st0" d="M172.7,130.9L172.7,130.9c-0.5,1.2-0.8,2.2-1,3c-0.2,0.8-0.2,1.6-0.1,2.4c0.1,0.7,0.3,1.2,0.5,1.7
		c0.3,0.5,0.7,0.8,1.3,1.1c0.8,0.3,1.5,0.3,2.1-0.1c0.7-0.4,1.4-1.1,2-2.1l0.1-0.1l0.3,0.1v0.1c-0.1,0.8,0,1.5,0.3,2.1
		c0.3,0.5,0.7,0.9,1.2,1.2c0.5,0.2,0.9,0.2,1.4,0.1c0.5-0.1,0.9-0.4,1.4-0.9c0.5-0.5,0.8-1,1.2-1.6c0.3-0.6,0.8-1.5,1.3-2.8
		c0,0,2.4-5.8,2.5-6.1c-0.3-0.1-11.3-4.7-11.6-4.8C175.4,124.3,172.7,130.9,172.7,130.9z M175.1,135L175.1,135
		c-0.3-0.1-0.6-0.4-0.8-0.7c-0.2-0.3-0.3-0.7-0.2-1.2c0-0.5,0.2-1,0.4-1.5l1.1-2.5l0.2-0.5l3.3,1.4l-0.4,1.1l-0.8,1.8
		c-0.3,0.6-0.5,1-0.7,1.3c-0.3,0.5-0.7,0.8-1,0.9C175.9,135.2,175.5,135.2,175.1,135z M179.7,135.5c-0.1-0.2-0.2-0.5-0.2-0.8
		c0-0.1,0-0.1,0-0.3c0-0.3,0.1-0.7,0.3-1.2l0.7-1.7l0.3-0.8l2.9,1.2l-0.2,0.6l-0.8,1.9c-0.2,0.5-0.4,0.8-0.7,1.1
		c-0.3,0.3-0.5,0.5-0.8,0.6c-0.3,0.1-0.5,0-0.8-0.1C180.1,135.9,179.9,135.7,179.7,135.5z"/>
	<path class="st1" d="M27.5,100c0-40,32.5-72.5,72.5-72.5S172.5,60,172.5,100S140,172.5,100,172.5S27.5,140,27.5,100z"/>
	<path class="st0" d="M82.9,131.3H48.9c3.5,5.1,10.8,8.9,16.8,8.9C72.3,140.2,78.9,136.8,82.9,131.3L82.9,131.3z"/>
	<path class="st0" d="M117,131.3H82.9c3.5,5.1,10.8,8.9,16.8,8.9C106.3,140.2,113,136.8,117,131.3L117,131.3z"/>
	<path class="st0" d="M151.1,131.3H117c3.5,5.1,10.8,8.9,16.8,8.9C140.4,140.2,147.1,136.8,151.1,131.3L151.1,131.3z"/>
	<path class="st0" d="M100,144H66c3.5,5.1,10.8,8.9,16.8,8.9C89.3,152.9,96,149.5,100,144L100,144z"/>
	<path class="st0" d="M134.1,144H100c3.5,5.1,10.8,8.9,16.8,8.9C123.4,152.9,130,149.5,134.1,144L134.1,144z"/>
	<path class="st0" d="M73.3,114l-3.2-6.2l27,8.9c4.8,1.6,9.9,2.5,15,2.1c5.2-0.4,10.3-2,14.6-4.9c4-2.8,7.5-6.7,10.1-10.8
		c4.6-7.2,5.7-16.5,3.6-24.7c-1.5-5.6-4.5-10.5-8.7-14.6c-3.1-3.1-7.2-5.9-11.3-7.4L84.7,43.1l3-4.7l0,0l31.3,11.2
		c9.7,3.5,17.2,7.7,22.4,14.8c7.7,10.3,8.3,25.6,3.7,37.2c-3.7,9.3-12.2,17.8-21.2,20.9c-10.9,3.7-21.2,0.9-30-1.9
		c0,0-12.6-3.9-14.1-4.5c-2.4-0.8-4.7-1.6-6.3-2.1L73.3,114z"/>
	<path class="st0" d="M83.9,44.4l-2.6,4.1L115.7,61c8.4,3.1,15.1,8.7,17.6,17.6c1.6,5.7,1.3,12.7-1.2,18.1
		c-2.5,5.5-6.7,10.3-12.2,12.9c-7.2,3.4-15.1,2.8-22.4,0.2l-32-11.1l3.6,7.1l28.5,9.5c4.6,1.5,9.5,2.4,14.4,2.1
		c4.9-0.3,9.7-1.9,13.8-4.7c3.9-2.6,7.2-6.4,9.7-10.3c4.4-6.8,5.4-15.6,3.4-23.4c-1.4-5.3-4.3-10-8.2-13.9c-3-2.9-6.9-5.6-10.8-7.1
		L83.9,44.4L83.9,44.4z"/>
	<path class="st0" d="M80.4,49.9l-2.6,4.1l34.1,12.5c7.6,3,18.8,8.8,13.1,25.6c-4.3,11.8-13.3,16-27,11.5L61.9,91.5l2.7,5.3
		l33.5,11.6c6.9,2.4,14.5,3.1,21.3-0.2c5.2-2.5,9.1-6.9,11.5-12.1c2.3-5.1,2.6-11.7,1.1-17.1c-2.4-8.4-8.7-13.6-16.7-16.5L80.4,49.9
		L80.4,49.9z"/>
	<polygon class="st0" points="60.8,92.9 56.8,97.9 70.1,125.7 77.6,125.7 	"/>
	<polygon class="st0" points="92,99.3 109.3,67.1 104.4,65.3 87.5,97.9 	"/>
	<polygon class="st0" points="103,64.8 97.7,62.9 80.6,95.8 86,97.5 	"/>
	<polygon class="st0" points="96.3,62.3 92.2,60.8 74.4,93.9 79.1,95.3 	"/>
	<polygon class="st0" points="55.7,99.3 52.1,103.7 62.1,125.7 68.4,125.7 	"/>
	<polygon class="st0" points="51.1,105.1 48.2,108.7 55.6,125.7 60.4,125.7 	"/>
	<path class="st0" d="M175.7,148.2l-2.8,3.3l-1.7-1.4c-0.6-0.5-0.9-1.1-0.9-1.8c0-0.7,0.2-1.6,0.8-2.8h1.5c-0.3,0.7-0.5,1.3-0.5,1.7
		s0.1,0.7,0.3,0.9l1.3-1.6L175.7,148.2L175.7,148.2z"/>
	<path class="st0" d="M170.3,154.9l-2.9,3.2l-1.6-1.5c-0.6-0.5-0.9-1.1-0.9-1.9c0-0.7,0.3-1.6,0.8-2.8l1.5,0.1
		c-0.3,0.7-0.5,1.3-0.5,1.6c0,0.4,0.1,0.7,0.3,0.9l1.4-1.6L170.3,154.9L170.3,154.9z"/>
	<path class="st0" d="M59.8,173.6c1.6,0,2.9,1.3,2.9,2.9c0,1.6-1.3,2.9-2.9,2.9s-2.9-1.3-2.9-2.9C56.8,174.9,58.1,173.6,59.8,173.6
		L59.8,173.6z"/>
	<path class="st0" d="M142.2,173.6c1.6,0,2.9,1.3,2.9,2.9c0,1.6-1.3,2.9-2.9,2.9c-1.6,0-2.9-1.3-2.9-2.9
		C139.2,174.9,140.5,173.6,142.2,173.6L142.2,173.6z"/>
	<path class="st0" d="M86.4,179.4l2.9,0.4l2.6,6.9l3.7-6.2l3.1,0.3l-6.4,9.5c-0.7,1-1.2,1.7-1.8,2.2c-0.6,0.5-1.7,0.7-2.5,0.5
		c-0.8-0.1-1.4-0.3-1.8-0.4l0.3-2c0.4,0.1,0.7,0.1,1,0.2c0.6,0.1,1.4,0.1,1.7,0c0.3-0.2,0.8-1,1.2-1.7L86.4,179.4L86.4,179.4z"/>
	<path class="st0" d="M113.5,187.6l2.7-0.1c-0.4,3-2.4,5.5-5.6,5.9c-4.3,0.5-7.1-2.5-7.6-5.9c-0.5-3.6,1.5-7,5.7-7.6
		c2.7-0.4,5.3,0.7,6.4,3.1l-2.6,0.8c-0.7-1.2-2.1-1.8-3.6-1.6c-2.5,0.3-3.5,2.6-3.2,5.1c0.3,2.4,2.1,4.3,4.5,3.9
		C112,190.8,113.3,189.3,113.5,187.6L113.5,187.6z"/>
	<polygon class="st0" points="125,190.3 120.7,177.9 130.2,174.5 130.9,176.6 123.9,179.1 124.9,181.9 131.7,179.5 132.5,181.6 
		125.6,183.9 126.8,187.3 134.8,184.3 135.5,186.4 	"/>
	<polygon class="st0" points="82,118.5 78.9,124.9 74.3,116 	"/>
</g>
</svg>
