<?xml version="1.0" encoding="utf-8"?>
<!-- Generator: Adobe Illustrator 21.1.0, SVG Export Plug-In . SVG Version: 6.00 Build 0)  -->
<svg version="1.1" id="Layer_1" xmlns="http://www.w3.org/2000/svg" xmlns:xlink="http://www.w3.org/1999/xlink" x="0px" y="0px"
	 viewBox="0 0 200 200" style="enable-background:new 0 0 200 200;" xml:space="preserve">
<style type="text/css">
	.st0{fill:#006BB6;}
	.st1{fill:#A7B1B7;}
</style>
<g>
	<path class="st0" d="M11.8,148.1c-0.4-0.5-0.8-0.9-1.3-1c-0.4-0.1-0.9-0.2-1.7-0.2H7.2v4.9h2.4c0.3,0,0.6,0,0.8-0.2v3.6
		c-0.4-0.7-1.1-1-2.1-1H7.2v4.4c0,1.6,0.4,2.9,1.2,3.7H0.9c0.6-0.4,1-1,1.1-1.6c0.1-0.3,0.1-1,0.1-2v-10.9c0-1.3-0.1-2.2-0.3-2.6
		c-0.2-0.4-0.5-0.7-0.9-1h9.9c0.4,0,0.7-0.1,1-0.2V148.1z"/>
	<path class="st0" d="M30.9,162.4c-0.4,0-1.3,0.1-2.7,0.1c-1.8,0-3-0.2-3.6-0.5c-0.6-0.3-1.3-1.1-2.1-2.5l-3.1-5.2v4.5
		c0,1,0,1.7,0.1,2c0.1,0.6,0.5,1.2,1.1,1.6h-7.4c0.6-0.4,0.9-1,1.1-1.6c0.1-0.3,0.1-1,0.1-2v-11c0-1.3-0.1-2.2-0.3-2.6
		c-0.2-0.4-0.5-0.7-0.9-1h7.4c-0.4,0.3-0.8,0.7-1,1.3c-0.1,0.3-0.2,1.1-0.2,2.4v4.6l3.2-4c0.8-1,1.2-1.6,1.3-1.8
		c0.2-0.2,0.2-0.5,0.2-0.8c0-0.5-0.4-1-1.1-1.6h6.8l-6.1,7.4l4.7,7.4C29.5,160.8,30.4,161.9,30.9,162.4z"/>
	<path class="st0" d="M54.6,162.4h-7.4c0.6-0.4,0.9-1,1.1-1.6c0.1-0.3,0.1-1,0.1-2v-4.7h-4.7v4.7c0,1,0,1.7,0.1,2
		c0.1,0.7,0.5,1.2,1,1.7h-7.4c0.6-0.4,0.9-1,1.1-1.6c0.1-0.3,0.1-1,0.1-2v-11c0-1.3-0.1-2.2-0.3-2.6c-0.2-0.4-0.5-0.7-0.9-1h7.4
		c-0.4,0.3-0.7,0.7-0.9,1.2c-0.1,0.3-0.2,1.1-0.2,2.4v3.5h4.7v-3.5c0-1.3-0.1-2.1-0.3-2.6c-0.2-0.4-0.5-0.7-0.9-1h7.4
		c-0.4,0.3-0.8,0.7-1,1.3c-0.1,0.3-0.2,1.1-0.2,2.4v11c0,1.3,0.1,2.2,0.3,2.6C53.9,161.7,54.2,162.1,54.6,162.4z"/>
	<path class="st0" d="M74.6,162.4h-8c0.8-0.6,1.1-1.2,1.1-1.7c0-0.3-0.1-0.8-0.4-1.5l0-0.1l-0.7-2.2h-5.5l-0.7,2.2
		c-0.3,0.8-0.4,1.4-0.4,1.7c0,0.4,0.3,1,1,1.6h-5.7c0.6-0.6,1-1.1,1.2-1.6c0.3-0.4,0.6-1.2,0.9-2.3l3.7-10.8c0.4-1,0.5-1.6,0.5-1.9
		c0-0.5-0.3-1.1-1-1.6H67l5.3,14.5c0.3,1,0.6,1.7,0.9,2.1C73.5,161.2,74,161.8,74.6,162.4 M65.7,154.3l-1.9-5.5l-1.9,5.5H65.7z"/>
	<path class="st0" d="M92.1,162.4h-6v-1.7c-0.9,0.8-1.7,1.3-2.3,1.6c-0.7,0.3-1.5,0.4-2.5,0.4c-1.5,0-2.8-0.5-3.8-1.5
		c-0.9-0.9-1.4-2.3-1.4-4.1v-9.4c0-1.3-0.1-2.1-0.3-2.6c-0.2-0.4-0.5-0.7-0.9-1h7.4c-0.4,0.3-0.7,0.7-0.9,1.2
		c-0.1,0.3-0.2,1.1-0.2,2.3v8.2c0,1.4,0.2,2.4,0.6,2.8c0.4,0.5,1,0.7,1.7,0.7c1,0,1.7-0.4,2-1.2c0.2-0.5,0.3-1.4,0.3-2.7v-7.8
		c0-1.3-0.1-2.1-0.3-2.6c-0.2-0.4-0.4-0.7-0.8-1h7.4c-0.5,0.3-0.8,0.7-1,1.3c-0.1,0.4-0.2,1.2-0.2,2.4v11c0,1.3,0.1,2.1,0.3,2.6
		C91.5,161.7,91.8,162.1,92.1,162.4z"/>
	<path class="st0" d="M110.9,161.9c-2,0.6-4,0.9-6,0.9c-3.3,0-5.9-0.8-7.9-2.5c-2-1.7-2.9-4-2.9-6.8c0-2.8,1-5.1,3-6.9
		c2-1.8,4.6-2.7,7.7-2.7c1.6,0,3.1,0.2,4.5,0.5v3.8c-1.3-1-2.8-1.5-4.5-1.5c-1.7,0-3,0.5-3.9,1.5c-0.9,1-1.4,2.4-1.4,4.3
		c0,2.3,0.5,4.1,1.4,5.4c0.9,1.3,2.3,2,4,2c0.4,0,0.7-0.1,1.1-0.2v-4.4c0-0.6-0.1-1-0.2-1.4c-0.1-0.3-0.4-0.7-0.8-1h6V161.9z"/>
	<path class="st0" d="M126.6,158.2l-1,4.2h-12.2c0.6-0.4,0.9-1,1.1-1.6c0.1-0.3,0.1-1,0.1-2v-10.9c0-1.3-0.1-2.2-0.3-2.6
		c-0.2-0.4-0.5-0.7-0.9-1h9.9c0.4,0,0.7-0.1,0.9-0.2v4c-0.4-0.5-0.8-0.9-1.3-1c-0.4-0.1-0.9-0.2-1.6-0.2h-1.8v4.5h2.9
		c0.3,0,0.6-0.1,0.8-0.2v3.8c-0.2-0.4-0.5-0.7-0.8-0.8c-0.3-0.1-0.7-0.2-1.2-0.2h-1.6v5.2c0.7,0.3,1.7,0.4,3,0.4
		C124.4,159.7,125.7,159.2,126.6,158.2z"/>
	<path class="st0" d="M141.1,156.9c0,1.9-0.7,3.4-2.2,4.4c-1.3,1-3.2,1.4-5.5,1.4c-1.7,0-3.4-0.3-5.2-1l-0.9-3.9
		c1.8,1.4,3.7,2.1,5.8,2.1c1.9,0,2.9-0.7,2.9-2c0-0.5-0.2-1-0.5-1.3c-0.4-0.3-1.2-0.8-2.4-1.4c-2-1-3.3-1.7-3.9-2.3
		c-1.1-1-1.6-2.2-1.6-3.7c0-1.6,0.6-2.9,1.9-3.9c1.2-1,2.9-1.5,5-1.5c1.7,0,3.2,0.3,4.7,0.8v3.2c-1.4-0.8-2.7-1.3-3.9-1.3
		c-0.8,0-1.4,0.2-1.8,0.5c-0.4,0.3-0.7,0.7-0.7,1.3c0,0.4,0.2,0.8,0.5,1.1c0.4,0.3,1,0.7,2,1.1c1.9,0.8,3.3,1.6,4.1,2.4
		C140.5,154,141.1,155.3,141.1,156.9z"/>
	<path class="st0" d="M159.8,162.4h-6v-1.7c-0.9,0.8-1.6,1.3-2.3,1.6c-0.7,0.3-1.5,0.4-2.5,0.4c-1.5,0-2.8-0.5-3.8-1.5
		c-0.9-0.9-1.4-2.3-1.4-4.1v-9.4c0-1.3-0.1-2.1-0.3-2.6c-0.2-0.4-0.5-0.7-0.9-1h7.4c-0.4,0.3-0.7,0.7-0.9,1.2
		c-0.2,0.3-0.2,1.1-0.2,2.3v8.2c0,1.4,0.2,2.4,0.6,2.8c0.4,0.5,1,0.7,1.7,0.7c1,0,1.6-0.4,2-1.2c0.2-0.5,0.3-1.4,0.3-2.7v-7.8
		c0-1.3-0.1-2.1-0.3-2.6c-0.2-0.4-0.4-0.7-0.8-1h7.4c-0.4,0.3-0.8,0.7-1,1.3c-0.1,0.4-0.2,1.2-0.2,2.4v11c0,1.3,0.1,2.1,0.3,2.6
		C159.1,161.7,159.4,162.1,159.8,162.4z"/>
	<path class="st0" d="M179.7,144.2c-0.5,0.5-0.8,1-1,1.5c-0.2,0.5-0.2,1.3-0.2,2.2v15c-2.7-0.5-5.1-2.1-7-4.7l-5.6-7.4v7.8
		c0,0.9,0.1,1.6,0.3,2.1c0.2,0.5,0.5,1,1,1.5h-5.3c0.8-0.9,1.2-2.1,1.2-3.7v-10.2c0-1-0.1-1.8-0.3-2.4c-0.2-0.6-0.6-1.2-1.3-1.9h5.7
		l8.6,11.4v-7.7c0-0.9-0.1-1.6-0.2-2c-0.1-0.6-0.5-1.1-1-1.7H179.7z"/>
	<path class="st0" d="M199.1,153.3c0,1.8-0.4,3.4-1.3,4.9c-0.8,1.5-2,2.6-3.4,3.2c-0.9,0.4-1.9,0.7-3.1,0.8
		c-0.6,0.1-1.7,0.1-3.2,0.1h-6.6c0.6-0.4,0.9-1,1.1-1.6c0.1-0.3,0.1-1,0.1-2v-10.9c0-1.3-0.1-2.2-0.3-2.7c-0.2-0.4-0.4-0.7-0.9-1
		h6.2c2.2,0,3.8,0.1,4.8,0.3c1,0.2,1.9,0.6,2.8,1.3C197.9,147.6,199.1,150.1,199.1,153.3 M193.8,153.4c0-1.9-0.4-3.5-1.2-4.7
		c-0.8-1.2-1.8-1.7-3.1-1.7c-0.5,0-1,0.1-1.7,0.2v12.2c0.5,0.2,1,0.2,1.5,0.2c1.5,0,2.6-0.6,3.3-1.7
		C193.4,156.7,193.8,155.2,193.8,153.4z"/>
	<path class="st0" d="M114.3,56.2l-0.5,1c7.7,9.9,10.5,23.1,7.4,35.8c-2.7-1.3-5-1.9-7.1-3.9c-0.6-5.2-1.9-9.6-3.6-14
		c-0.6-1.5-1.2-3.1-1.9-4.8l-5.1,13l-0.9,2.6c-0.4,1.1-0.5,2.5-0.1,3.7c0.6,1.3,3.4,4.6,7.1,5.7c0.3-0.3,0.6-0.5,0.8-0.8
		c1.1-1,2-2.1,3.2-3.1c2.7,0.4,5,1.8,7.1,3.2c0,1-0.9,2.5-1.3,3.7l1,0.1c1.5-4,2.7-9.4,2.9-13.8v-3.1
		C123.2,72.3,120,63.1,114.3,56.2z"/>
	<path class="st0" d="M110.6,113.6c-2.9,3.1-6.2,5.9-9.7,8c-2.9-0.4-4.9-0.5-7.4-3.1c2.9-4.5,3.5-6.9,7.8-14.1
		c-1.7-0.1-3.3,0.2-4.9,0.4c0.1,4.6-2.3,10.4-3.4,12.2c-2.3,3.7-10.1,4.1-15.5,5.4c-2.5,0-5.6,1.5-7.3-1.7c-2-2.5-5.2-5.1-5.6-7.5
		c1-4.1,3.7-8.4,5.2-12c-5.1-1.8-9.9-5.6-15.6-5.8c-1.4,0-2.9,0.2-4.4,0.7c-1.1,0.4-1.5,1.1-2.9,1.1c-0.6-0.2-0.8-1.3-0.3-1.9
		c0.3-0.8,3.9-3.5,5.1-4.3c1.2-3.6,0.3-3.6,1.9-4.5c-4.1,0-8.3,0.6-11,3.8c-0.8,4.5,0.4,8.5,0.7,12.8c-1.8,1.2-3.9,1.9-5.6,3
		l-2.7-4.3l-0.8,1c4.3,8.6,11.4,15.7,20,20.4c6.9,3.8,14.7,5.9,22.7,5.8c12.6,0.1,24.9-5.1,33.6-14c3.5-3.5,6.5-8,8.6-12.5l-1.3-0.1
		C116.3,106.1,113.6,110.4,110.6,113.6z M66.1,126.8c-4-0.9-8-2.4-11.7-4.5c-6.3-3.5-11.9-8.6-15.5-14.8c1.7-0.9,3.7-2.1,5.4-3
		l6.7,4c1.2,0.6,2.3,1.1,3.4,1.7c2.9,1.4,5.7,2.7,8.7,3.7l7.3,9.2C68.7,125.7,68.2,126,66.1,126.8z"/>
	<path class="st0" d="M36,73.6c1.2,1.6,1.4,3.4,2.8,3.7c-0.4-2-2.1-3.3-2.1-5.7c2.1-5,4.2-10.8,8-15.2c3.3-0.9,6.1-1.6,9.7-1.9
		c0.5-0.1,1.2-0.1,1.7-0.1c3.1,4.1,5.8,8.2,8,12.9c-1.7,4.3-4,8.8-4.7,13.6l1.2,0.3c1-5.1,2.7-9.7,5.2-14.3
		c5.9-2.7,11.6-3.4,17.8-4.1c2.7-4.7,2.4-14.7,3.9-16.8c-4.1-3.4-8.2-5.2-12.4-7.9c6.9-0.4,13.4,1.3,19,3.7c1.1,0,1.7,1,3.4,0.4
		c-11.4-6.1-28-6.8-39.5-1.4c-1.3,0.5-2.5,1.1-3.7,1.7c-13.5,7-22.6,21.3-23.9,35.6h0.3c0.4-0.8,0.7-2.6,2.1-3.2
		C34.2,74.1,35.6,73.1,36,73.6z M50.2,46.5c1.4-0.8,2.8-1.7,4.1-2.4c3.7-2.1,7.4-3.9,11.4-4.7c-3.8,4.4-7.7,8.5-10.3,13.2l-1.1,0.2
		l-9.7,2.1c-1.1-0.3-1.1-1.3-1.8-1.7C44.9,50.6,47.8,48.1,50.2,46.5z"/>
	<path class="st1" d="M50.5,82.4c0.4,0.1,0.8,0.3,1.1,0.3C56,85,61.3,84.1,66,82.8c1.2-0.3,2.4-0.7,3.4-1c7.5-3,12.5-11,14.6-17.6
		c-2.5,5.5-5.9,10.6-11.4,14.5c-2.1,1.7-4.4,2.5-6.7,2.7c-5,0.4-10.4-2.1-15.5-2.9c-0.6-0.1-1.1-0.1-1.7-0.2
		c-8.8-1.1-19.1-0.5-26,3.9C30.9,78.2,41.9,79.6,50.5,82.4z"/>
	<path class="st1" d="M53,86.1c-0.8-0.4-1.7-0.8-2.5-1.2c-7.3-3.2-16-4.8-24.2-2.6c-3.9,1.3-8.2,4.8-9.3,9c-0.4,1.2-0.6,2.3-0.7,3.4
		v2c0.5,5.4,4.2,10.1,8.6,14h0.6c5.7-6.2,15.1-10.9,16-19.4c1.9-3.4,5.4-4.4,9-4.8C51.3,86.3,52.1,86.3,53,86.1z"/>
	<path class="st1" d="M114,56.6c2.1-3.7,6.2-4.2,9.7-5.5c19.5-4.2,40.8-4.2,60-8.7c0.1-0.3-0.2-0.5-0.3-0.6
		c-9.6-2.5-19.9-3.5-30.2-4.3c-22.2-0.9-43.8,1-62.8,8.3c-1,0.4-2,1-2.3,2.1c-0.8,10.9-2.9,21.4-9.9,29.8c-3.1,4.7-7.6,6.4-12.2,7.8
		c-3.5,1.1-7.2,2-10.3,4.1c-0.7,0.9-1.3,2.2,0,3c-1.5,1-3.6,1.2-5.2,2c-1.2,0.5-2.1,1.2-2.5,2.7c0.3-0.2,0.8,0,1.1-0.5
		c0.4-0.2,1-0.4,1.4-0.5c5.6-1.8,10.6,1.1,15.5,3.5c1.1,0.6,2.2,1.1,3.2,1.5c11.7,4.5,27.3,5.5,39.4,1.5c6.7-1.8,14.3,2.7,19.3-2.7
		c-8.5-3.7-20.8-0.3-26-10.2c-0.7-1.6-0.2-3.6,0.2-5.2C105.7,75.2,109.4,65.8,114,56.6z"/>
	<path class="st1" d="M22.5,82.4l-0.2,0.2c0.2-0.1,0.4-0.2,0.5-0.4C22.7,82.3,22.6,82.3,22.5,82.4z"/>
</g>
</svg>
