<?xml version="1.0" encoding="utf-8"?>
<!-- Generator: Adobe Illustrator 21.1.0, SVG Export Plug-In . SVG Version: 6.00 Build 0)  -->
<svg version="1.1" id="Layer_1" xmlns="http://www.w3.org/2000/svg" xmlns:xlink="http://www.w3.org/1999/xlink" x="0px" y="0px"
	 viewBox="0 0 200 200" style="enable-background:new 0 0 200 200;" xml:space="preserve">
<style type="text/css">
	.st0{fill-rule:evenodd;clip-rule:evenodd;fill:#FFFFFF;}
	.st1{fill-rule:evenodd;clip-rule:evenodd;fill:#2C3895;}
	.st2{fill:#2C3895;}
</style>
<g>
	<path class="st0" d="M100,0.2C44.9,0.2,0.2,44.9,0.2,100s44.7,99.8,99.8,99.8s99.8-44.7,99.8-99.8S155.1,0.2,100,0.2L100,0.2z"/>
	<path class="st1" d="M100,17.9c-45.4,0-82.1,36.8-82.1,82.1s36.8,82.1,82.1,82.1s82.1-36.8,82.1-82.1S145.4,17.9,100,17.9L100,17.9
		z M100,19.9c44.2,0,80.1,35.8,80.1,80.1s-35.8,80.1-80.1,80.1S19.9,144.2,19.9,100S55.8,19.9,100,19.9L100,19.9z"/>
	<path class="st1" d="M100,0.2C44.9,0.2,0.2,44.9,0.2,100s44.7,99.8,99.8,99.8s99.8-44.7,99.8-99.8S155.1,0.2,100,0.2L100,0.2z
		 M100,2.2c54,0,97.8,43.8,97.8,97.8S154,197.8,100,197.8S2.2,154,2.2,100S46,2.2,100,2.2L100,2.2z"/>
	<path class="st1" d="M53.7,91.7c14.9,11,33.6,25.5,42.8,40.4c8.7-12.6,26.9-26.7,50.9-39.2c-17.7,5.9-36.2,13.8-52.3,24.3
		C82.7,105.7,67.9,97.7,53.7,91.7L53.7,91.7z"/>
	<path class="st1" d="M97.5,75c1.5,0,3.1,0.1,4.6,0.2v1.2c-1.5-0.1-3-0.2-4.6-0.2c-1,0-2,0-3,0.1v-1.2C95.5,75.1,96.5,75,97.5,75
		L97.5,75z M110.8,76.9c0.6,0.2,1.2,0.3,1.7,0.5c-0.3,0-0.6,0-0.8,0h-0.9V76.9L110.8,76.9z M121.6,81.5c0.5,0.3,0.9,0.5,1.4,0.8v1.4
		c-0.7-0.5-1.5-0.9-2.2-1.4C121.1,82.1,121.4,81.8,121.6,81.5L121.6,81.5z M125.9,84.4c3.8,2.8,7.2,6.2,10,9.9l-1.1,0.4
		c-1-1.3-2.1-2.6-3.2-3.8l-1.3,5.5l-9.3,3.9l-5.2-0.6l-7.5-14.5c-1.3-0.4-2.5-0.7-3.8-0.9h8.9c1.6,0,3.4-0.1,5-0.6
		c0.8-0.3,1.6-0.7,2.2-1.2l2.4,1.8v0h0.1l7.3,5.3c-2-1.9-4.1-3.7-6.4-5.3H125.9L125.9,84.4z M102,84c-1.5-0.2-3-0.3-4.6-0.3
		c-1,0-2,0-3,0.1v-1.2c1-0.1,2-0.1,3-0.1c1.5,0,3.1,0.1,4.6,0.3V84L102,84z M90.5,84.4c-2.7,0.5-5.2,1.2-7.6,2.2L79.5,94l-8.6,0.4
		l-1.8,1.7l-2.3-1.4l-0.6,0.1l-1.3-0.6L62.6,93l11.1-10.3c-4.5,2.6-8.4,6-11.8,9.9c-0.4-0.2-0.7-0.3-1.1-0.5
		c6.4-7.6,15.1-13.2,25-15.7v1.2c-3.7,1-7.3,2.4-10.6,4.2l7.3,3.6c1.1-0.4,2.2-0.8,3.3-1.2v0H90.5L90.5,84.4z M139.5,99.8
		c3.8,6.9,6,14.8,6,23.2c0,26.5-21.5,48-48,48c-26.5,0-48-21.5-48-48c0-9.5,2.8-18.4,7.6-25.9l0.9,0.7c-4.6,7.3-7.3,15.9-7.3,25.2
		c0,2.1,0.1,4.1,0.4,6.2l6-6.1l0-0.1c0-7.8,2.2-15,6-21.2l0-0.1c0.3,0.3,0.7,0.5,1,0.8l-0.1,0c-3.5,5.7-5.6,12.5-5.8,19.7l9.1,10.6
		l16.5-5.3l1.8-5.6c3.3,3.6,6.4,7.4,8.8,11.4l1.9,3.1l2.1-3c3-4.3,6.8-8.4,10.8-12.1l1.9,5.8l16,6.4l9.7-11
		c-0.1-6.6-1.8-12.8-4.7-18.2c0.3-0.2,0.7-0.4,1-0.6c3.1,5.8,4.9,12.3,4.9,19.4c0,0.2,0,0.5,0,0.7l5.8,7c0.4-2.5,0.6-5.1,0.6-7.7
		c0-8.2-2.1-15.9-5.8-22.6C138.9,100.2,139.2,100,139.5,99.8L139.5,99.8z M84.3,128.6L67.5,134l-1.4,12.8c4.6,6,10.9,10.7,18.1,13.3
		l12.7-5.1v-17.3L84.3,128.6L84.3,128.6z M64.9,147.1l-8.4-1.3c6.6,12,18.3,20.7,32.2,23.3l-4.6-7.8
		C76.4,158.6,69.7,153.6,64.9,147.1L64.9,147.1z M55.8,144.4L51.3,131C52.1,135.8,53.6,140.3,55.8,144.4L55.8,144.4z M92.5,111.7
		h6.6c-1.3,0.8-2.6,1.6-3.9,2.4C94.4,113.3,93.4,112.5,92.5,111.7L92.5,111.7z M126.9,134.7l-15.9-6.3l-12.9,9.4V155l12.7,5.1
		c6.8-2.4,12.7-6.7,17.2-12.1L126.9,134.7L126.9,134.7z M143.5,132.2l-4.5,12.6C141.1,140.9,142.6,136.7,143.5,132.2L143.5,132.2z
		 M138,146.7l-8.9,1.7c-4.7,5.8-11,10.3-18.2,12.9l-4.6,7.8C119.8,166.5,131.2,158.2,138,146.7L138,146.7z M104.5,169.4h-14
		c2.3,0.3,4.6,0.5,7,0.5C99.9,169.9,102.2,169.8,104.5,169.4L104.5,169.4z"/>
	<path class="st1" d="M27.6,107.1c11.1-2.7,22.5-4.3,33.9-4.8c0.7,0,1.4-0.1,2.1-0.1c0.9,0.7,1.9,1.5,2.8,2.2
		c-1.6,0-3.2,0.1-4.8,0.2c-11.3,0.5-22.6,2.1-33.6,4.7l-0.4,0.1V107.1L27.6,107.1z M79.8,102.5c3,0.2,6,0.5,8.9,1
		c4.7,0.7,9.1,1.9,13.7,3c1.4,0.3,2.7,0.7,4,1c-1,0.5-2,1.1-3,1.7c-5-1.2-10-2.6-15.1-3.4c-1.5-0.2-3-0.4-4.5-0.6
		C82.6,104.3,81.2,103.4,79.8,102.5L79.8,102.5z M124.1,109.6c1.6,0,3.2,0.1,4.8,0.1c3.8,0,7.7-0.1,11.5-0.3c10.9-0.5,21.5-2,32.2-4
		l0.4-0.1v2.4c-10.8,2-21.5,3.5-32.5,4c-3.9,0.2-7.8,0.3-11.7,0.3c-2.6,0-5.2-0.1-7.9-0.2C122,111.1,123,110.3,124.1,109.6
		L124.1,109.6z"/>
	<path class="st1" d="M27.6,102.2c9.8-2.3,20-3.8,30.1-4.5c1,0.7,1.9,1.4,2.8,2.2c-11,0.5-22,2.1-32.7,4.7l-0.2,0V102.2L27.6,102.2z
		 M71.1,97.3c5.8,0.1,11.7,0.5,17.4,1.4c4.8,0.7,9.3,1.9,14,3.1c3.6,0.9,7.1,1.7,10.7,2.3c-1.2,0.6-2.3,1.2-3.5,1.8
		c-7.2-1.4-14.2-3.7-21.5-4.8c-4.2-0.6-8.4-1-12.7-1.2C74,99,72.5,98.1,71.1,97.3L71.1,97.3z M131.2,104.9c3,0,6-0.2,9-0.3
		c10.8-0.5,21.5-1.8,32.1-3.7l0.7-0.1v2.4l-0.3,0.1c-10.7,2-21.5,3.3-32.4,3.8c-3.8,0.2-7.5,0.3-11.3,0.3c-0.5,0-0.9,0-1.4,0
		C128.8,106.4,130,105.6,131.2,104.9L131.2,104.9z"/>
	<path class="st1" d="M27.6,97.4c7.9-1.9,16.1-3.3,24.2-4.1l0.4,0.3c0.8,0.6,1.6,1.2,2.4,1.8c-9,0.8-18,2.2-26.8,4.4l-0.2,0V97.4
		L27.6,97.4z M61.6,92.6c8.8-0.4,18.1-0.2,26.9,1.1c4.7,0.7,9.1,1.9,13.7,3c3.8,1,7.4,1.8,11.3,2.3c2.9,0.4,5.8,0.6,8.8,0.8
		c-1.5,0.7-3,1.3-4.5,2c-1.5-0.1-3.1-0.3-4.6-0.5c-8.5-1.1-16.5-4-25.1-5.4c-7.2-1.1-14.7-1.4-22-1.3C64.6,94,63.1,93.3,61.6,92.6
		L61.6,92.6z M139.4,99.9l0.8,0c10.8-0.5,21.6-2,32.2-4l0.6-0.1v2.4l-0.2,0c-10.7,2-21.6,3.5-32.5,4c-1.7,0.1-3.3,0.1-5,0.2
		C136.6,101.5,138,100.7,139.4,99.9L139.4,99.9z"/>
	<polygon class="st2" points="36.6,62.1 41.3,62.1 41.3,75.5 50.3,62.1 55.3,62.1 55.3,82.6 50.5,82.6 50.5,69.4 41.6,82.6 
		36.6,82.6 36.6,62.1 	"/>
	<path class="st2" d="M61.1,82.6V62.1h6.4c2.8,0,4.7,0.1,5.6,0.3c1.3,0.3,2.4,1,3.3,2c0.9,1,1.3,2.4,1.3,4c0,1.3-0.3,2.3-0.8,3.2
		c-0.5,0.9-1.2,1.5-2,2c-0.8,0.5-1.6,0.8-2.4,1c-1.1,0.2-2.7,0.3-4.9,0.3h-1.4v7.7H61.1L61.1,82.6z M66.3,65.6v5.8h0.9
		c1.8,0,3.1-0.1,3.7-0.3c0.6-0.2,1.1-0.5,1.5-1c0.4-0.5,0.5-1,0.5-1.6c0-0.7-0.2-1.4-0.7-1.8c-0.5-0.5-1.1-0.8-1.9-0.9
		c-0.6-0.1-1.7-0.1-3.4-0.1H66.3L66.3,65.6z"/>
	<polygon class="st2" points="87.5,82.6 87.5,66.3 80.9,66.3 80.9,62.1 99.3,62.1 99.3,66.3 92.7,66.3 92.7,82.6 87.5,82.6 	"/>
	<path class="st2" d="M103.8,62.1h5.2v8.2h4.3c1.6,0,3.1,0.2,4.2,0.6c1.2,0.4,2.2,1.1,3,2.1c0.8,1,1.2,2.2,1.2,3.5
		c0,1.4-0.4,2.6-1.2,3.6c-0.8,1-1.7,1.7-2.7,2c-1,0.3-2.5,0.5-4.4,0.5h-9.6V62.1L103.8,62.1z M109,79.2h2.7c1.5,0,2.5-0.1,3-0.2
		c0.6-0.1,1.1-0.4,1.5-0.9c0.4-0.4,0.7-1,0.7-1.6c0-0.9-0.4-1.6-1.1-2.1c-0.7-0.5-2.1-0.7-4-0.7H109V79.2L109,79.2z M124.7,62.1h5.2
		v20.5h-5.2V62.1L124.7,62.1z"/>
	<path class="st2" d="M135.7,62.1h5.2v16.4h5.6V62.1h5.2v16.4h5.8V62.1h5.2l0,20.5c-9,0-17.6,0-27.1,0V62.1L135.7,62.1z"/>
	<path class="st2" d="M29.8,148.4l0.8-0.7l1.1,1.4l-0.8,0.7c0.9,1.2,1.2,2.2,1.1,3.1c-0.1,0.9-0.6,1.6-1.4,2.3
		c-0.8,0.7-1.7,1-2.6,0.9c-0.9-0.1-1.8-0.6-2.7-1.7l-0.7,0.6l-1.1-1.4l0.7-0.6c-0.9-1.2-1.2-2.2-1.1-3.1c0.1-0.9,0.6-1.6,1.4-2.3
		c0.8-0.6,1.6-0.9,2.5-0.9C27.9,146.8,28.8,147.3,29.8,148.4L29.8,148.4z M28.6,149.4c-0.3-0.4-0.6-0.6-1-0.8
		c-0.3-0.2-0.7-0.2-1-0.2c-0.3,0.1-0.7,0.3-1.1,0.6c-1,0.8-1.1,1.8-0.1,3L28.6,149.4L28.6,149.4z M29.7,150.8l-3.2,2.6
		c0.5,0.6,1,0.9,1.5,1c0.5,0,1-0.2,1.5-0.6C30.6,152.9,30.6,151.9,29.7,150.8L29.7,150.8z"/>
	<path class="st2" d="M20.6,149.3l-1-1.8l3-4.2l-5,0.8l-1-1.7l7.5-0.8c0.8-0.1,1.5-0.1,2,0c0.5,0.1,0.9,0.4,1.2,0.9
		c0.3,0.5,0.5,0.9,0.5,1.2l-1.2,0.7c-0.1-0.2-0.2-0.4-0.3-0.6c-0.2-0.4-0.4-0.6-0.7-0.7c-0.2-0.1-0.6-0.1-1.1,0L20.6,149.3
		L20.6,149.3z"/>
	<polygon class="st2" points="23.4,135.4 16.5,138.5 17.6,140.9 16.2,141.6 13.3,134.9 14.7,134.3 15.8,136.8 22.7,133.7 
		23.4,135.4 	"/>
	<path class="st2" d="M12.3,133l-2.2-6.4l1.4-0.5l1.6,4.7l2-0.7l-0.8-2.3c-0.2-0.6-0.3-1.2-0.3-1.7c0-0.5,0.2-0.9,0.5-1.4
		c0.3-0.4,0.8-0.8,1.3-1c0.6-0.2,1.1-0.2,1.7-0.1c0.5,0.2,0.9,0.4,1.2,0.7c0.3,0.3,0.5,0.9,0.8,1.6l1.4,4.1L12.3,133L12.3,133z
		 M18.9,128.8l-0.6-1.7c-0.2-0.5-0.3-0.9-0.5-1.1c-0.1-0.2-0.3-0.4-0.6-0.5c-0.2-0.1-0.5-0.1-0.8,0c-0.4,0.1-0.6,0.4-0.7,0.7
		c-0.1,0.3,0,0.9,0.2,1.5l0.6,1.8L18.9,128.8L18.9,128.8z"/>
	<path class="st2" d="M13.7,123.3c-0.9,0.2-1.7,0.2-2.4,0.1c-0.5-0.1-1-0.3-1.4-0.6c-0.4-0.3-0.8-0.6-1.1-1
		c-0.4-0.5-0.6-1.1-0.8-1.8c-0.3-1.3-0.1-2.4,0.5-3.4c0.6-1,1.7-1.6,3.1-1.9c1.4-0.3,2.6-0.2,3.6,0.4c1,0.6,1.6,1.6,1.9,2.9
		c0.3,1.3,0.1,2.5-0.5,3.4C16.2,122.3,15.2,123,13.7,123.3L13.7,123.3z M13.3,121.4c1-0.2,1.7-0.6,2.1-1.2c0.4-0.6,0.5-1.2,0.4-1.9
		c-0.2-0.7-0.5-1.2-1.2-1.6c-0.6-0.3-1.4-0.4-2.5-0.2c-1,0.2-1.7,0.6-2.1,1.2c-0.4,0.6-0.5,1.2-0.4,1.9c0.2,0.7,0.5,1.3,1.2,1.6
		C11.4,121.6,12.2,121.7,13.3,121.4L13.3,121.4z"/>
	<path class="st2" d="M6.9,112.8l-0.6-6.4l9.1-0.8l0.2,1.8L8,108.1l0.3,2.7l3.9-0.4c1.1-0.1,1.9-0.1,2.3-0.1c0.4,0,0.8,0.2,1.1,0.4
		c0.3,0.3,0.4,0.7,0.5,1.3c0,0.2,0,0.6,0,1.2l-1.4,0.1l0-0.4c0-0.4-0.1-0.6-0.2-0.8c-0.1-0.1-0.4-0.2-0.8-0.1l-1.6,0.1L6.9,112.8
		L6.9,112.8z"/>
	<path class="st2" d="M6,99.9l0.1-1.8l3.9,0.2c0-0.4-0.1-0.7-0.3-0.8C9.5,97.3,9,97,8.3,96.7c-1-0.4-1.6-0.8-1.8-1.2
		c-0.2-0.4-0.3-1-0.3-1.9c0,0,0-0.1,0-0.3l1.4,0.1l0,0.3c0,0.4,0,0.7,0.1,0.8c0.1,0.2,0.2,0.3,0.4,0.4c0.2,0.1,0.6,0.3,1.2,0.5
		c0.3,0.1,0.6,0.3,0.8,0.4c0.2,0.1,0.4,0.4,0.6,0.7c0.1-0.4,0.4-0.7,0.8-1c0.4-0.2,0.9-0.5,1.5-0.8l2.6-1.1l-0.1,2.2l-2.4,1
		c0,0-0.1,0-0.2,0.1c0,0-0.2,0.1-0.4,0.2c-0.5,0.2-0.7,0.4-0.9,0.5c-0.1,0.1-0.2,0.4-0.2,0.7l4,0.2l-0.1,1.8L6,99.9L6,99.9z"/>
	<path class="st2" d="M6.4,90.8l0.8-6.3l9,1.2l-0.2,1.8l-7.5-1l-0.4,2.7l3.9,0.5c1.1,0.1,1.9,0.3,2.3,0.4c0.4,0.1,0.7,0.4,1,0.7
		c0.2,0.3,0.3,0.8,0.2,1.4c0,0.2-0.1,0.6-0.2,1.2l-1.4-0.2l0.1-0.4c0.1-0.4,0-0.6-0.1-0.8c-0.1-0.1-0.3-0.2-0.7-0.3l-1.6-0.2
		L6.4,90.8L6.4,90.8z"/>
	<path class="st2" d="M7.8,82.9l0.4-2l5.1-1.1L9,77.1l0.4-1.9l6.1,4.5c0.7,0.5,1.1,0.9,1.5,1.4c0.3,0.4,0.4,0.9,0.3,1.4
		c-0.1,0.5-0.2,0.9-0.4,1.2l-1.3-0.3c0.1-0.3,0.1-0.5,0.2-0.7c0.1-0.4,0.1-0.7,0-0.9c-0.1-0.2-0.4-0.5-0.9-0.7L7.8,82.9L7.8,82.9z"
		/>
	<path class="st2" d="M10,73.2l2.1-6.5l1.5,0.5l-1.6,4.7l2,0.7l0.8-2.3c0.2-0.6,0.5-1.2,0.8-1.5c0.3-0.4,0.7-0.6,1.2-0.8
		c0.5-0.2,1.1-0.1,1.6,0c0.6,0.2,1,0.5,1.4,1c0.3,0.4,0.5,0.9,0.5,1.3c0,0.4-0.1,1-0.3,1.7L18.7,76L10,73.2L10,73.2z M17.8,73.8
		l0.6-1.7c0.2-0.5,0.3-0.9,0.3-1.2c0-0.2,0-0.5-0.2-0.7c-0.1-0.2-0.3-0.4-0.6-0.5c-0.4-0.1-0.7-0.1-1,0.1c-0.3,0.2-0.5,0.7-0.8,1.4
		L15.5,73L17.8,73.8L17.8,73.8z"/>
	<path class="st2" d="M13.3,63l0.9-1.6l3.2,1.8l1.2-2.1c0.3-0.6,0.7-1,1.1-1.3c0.4-0.3,0.9-0.5,1.4-0.5c0.5,0,1.1,0.1,1.6,0.4
		c0.5,0.3,0.9,0.7,1.1,1.2c0.2,0.5,0.3,1,0.2,1.4c-0.1,0.4-0.3,1-0.7,1.6l-2.1,3.7L13.3,63L13.3,63z M20.8,65.1l0.9-1.6
		c0.3-0.5,0.5-0.9,0.5-1.1c0.1-0.2,0.1-0.5,0-0.7c-0.1-0.3-0.3-0.4-0.5-0.6c-0.4-0.2-0.7-0.2-1-0.1c-0.3,0.1-0.7,0.5-1,1.2L18.8,64
		L20.8,65.1L20.8,65.1z M17.6,55.5l0.9-1.6l7.9,4.5L25.6,60L17.6,55.5L17.6,55.5z"/>
	<path class="st2" d="M47.6,32.5l0.7,0.8l-1.4,1.2l-0.7-0.8c-1.2,0.9-2.2,1.3-3.1,1.2c-0.9-0.1-1.7-0.6-2.3-1.3
		c-0.7-0.8-1-1.7-0.9-2.5c0.1-0.9,0.6-1.8,1.7-2.8l-0.6-0.7l1.4-1.2L43,27c1.1-0.9,2.2-1.3,3.1-1.2c0.9,0.1,1.7,0.6,2.3,1.3
		c0.6,0.8,1,1.6,0.9,2.5C49.3,30.5,48.7,31.5,47.6,32.5L47.6,32.5z M46.7,31.3c0.4-0.3,0.6-0.6,0.8-1c0.2-0.3,0.2-0.7,0.1-1
		c-0.1-0.3-0.3-0.7-0.6-1.1c-0.8-1-1.8-1-3-0.1L46.7,31.3L46.7,31.3z M45.3,32.4l-2.6-3.1c-0.6,0.5-0.9,1-1,1.5c0,0.5,0.2,1,0.6,1.5
		C43.2,33.3,44.1,33.4,45.3,32.4L45.3,32.4z"/>
	<path class="st2" d="M46.3,23.4l1.7-1.1l4.3,2.9l-1-5l1.6-1l1.1,7.5c0.1,0.8,0.1,1.5,0,2c-0.1,0.5-0.4,0.9-0.8,1.2
		c-0.5,0.3-0.8,0.5-1.1,0.6l-0.7-1.2c0.2-0.1,0.4-0.2,0.6-0.4c0.4-0.2,0.6-0.5,0.7-0.7c0.1-0.2,0-0.6-0.1-1.1L46.3,23.4L46.3,23.4z"
		/>
	<polygon class="st2" points="60.4,25.4 56.9,18.6 54.5,19.9 53.8,18.5 60.2,15.2 61,16.5 58.6,17.8 62.1,24.5 60.4,25.4 	"/>
	<path class="st2" d="M61.9,14.4l6.2-2.8l0.6,1.4l-4.6,2l0.9,1.9l2.3-1c0.6-0.3,1.2-0.4,1.7-0.5c0.5,0,1,0.1,1.4,0.4
		c0.5,0.3,0.8,0.7,1.1,1.2c0.3,0.6,0.3,1.1,0.2,1.6c-0.1,0.5-0.3,1-0.6,1.3c-0.3,0.3-0.8,0.6-1.5,0.9l-3.9,1.8L61.9,14.4L61.9,14.4z
		 M66.7,20.6l1.6-0.7c0.5-0.2,0.9-0.4,1.1-0.6c0.2-0.1,0.3-0.3,0.4-0.6c0.1-0.3,0.1-0.5-0.1-0.8c-0.2-0.4-0.4-0.6-0.8-0.7
		c-0.4-0.1-0.9,0.1-1.5,0.4l-1.7,0.8L66.7,20.6L66.7,20.6z"/>
	<path class="st2" d="M72.1,15c-0.3-0.9-0.3-1.7-0.2-2.4c0.1-0.5,0.2-1,0.5-1.4c0.2-0.5,0.5-0.8,0.9-1.1c0.5-0.4,1.1-0.7,1.8-0.9
		c1.3-0.4,2.4-0.3,3.5,0.3c1,0.6,1.7,1.6,2.1,3c0.4,1.4,0.3,2.6-0.2,3.7c-0.5,1-1.5,1.7-2.7,2.1c-1.3,0.4-2.5,0.3-3.5-0.3
		C73.2,17.4,72.5,16.4,72.1,15L72.1,15z M73.9,14.4c0.3,1,0.7,1.7,1.3,2.1c0.6,0.4,1.3,0.5,2,0.3c0.7-0.2,1.2-0.6,1.5-1.3
		c0.3-0.6,0.3-1.5,0-2.5c-0.3-1-0.7-1.7-1.3-2.1c-0.6-0.4-1.2-0.4-2-0.2c-0.7,0.2-1.2,0.6-1.6,1.3C73.7,12.6,73.6,13.4,73.9,14.4
		L73.9,14.4z"/>
	<path class="st2" d="M82.2,7.6l6.3-1l1.4,9l-1.8,0.3L87,8.4l-2.7,0.4l0.6,3.9c0.2,1.1,0.3,1.9,0.2,2.3c0,0.4-0.1,0.8-0.4,1.1
		c-0.2,0.3-0.7,0.5-1.3,0.6c-0.2,0-0.6,0.1-1.2,0.1L82,15.4l0.4-0.1c0.4-0.1,0.6-0.1,0.7-0.3c0.1-0.1,0.1-0.4,0.1-0.8L83,12.8
		L82.2,7.6L82.2,7.6z"/>
	<path class="st2" d="M90.8,6.3l1.8-0.1l0.3,3.6l2.5-0.2c1.2-0.1,2,0.1,2.6,0.6c0.6,0.5,0.9,1.1,0.9,1.9c0,0.6-0.1,1.2-0.4,1.6
		c-0.3,0.5-0.6,0.8-1,1c-0.4,0.2-1,0.3-1.7,0.4l-4.3,0.3L90.8,6.3L90.8,6.3z M93.2,13.7l1.8-0.1c0.6,0,1-0.1,1.2-0.2
		c0.2-0.1,0.4-0.2,0.6-0.4c0.2-0.2,0.2-0.5,0.2-0.8c0-0.4-0.2-0.7-0.5-0.9c-0.3-0.2-0.8-0.2-1.6-0.2L93,11.3L93.2,13.7L93.2,13.7z"
		/>
	<polygon class="st2" points="100.7,14.8 101,5.6 102.8,5.7 102.7,9.3 106.3,9.4 106.4,5.8 108.3,5.9 108,15 106.1,14.9 106.3,10.9 
		102.7,10.8 102.5,14.8 100.7,14.8 	"/>
	<path class="st2" d="M111.1,6.4l1.8,0.3l-0.6,3.6l2.4,0.4c0.6,0.1,1.2,0.3,1.6,0.5c0.4,0.2,0.8,0.6,1,1.1c0.2,0.5,0.3,1,0.2,1.6
		c-0.1,0.6-0.3,1.1-0.7,1.5c-0.4,0.4-0.8,0.6-1.2,0.7c-0.4,0.1-1,0.1-1.8-0.1l-4.3-0.7L111.1,6.4L111.1,6.4z M111.7,14.2l1.8,0.3
		c0.6,0.1,1,0.1,1.2,0.1c0.2,0,0.5-0.1,0.7-0.3c0.2-0.2,0.3-0.4,0.4-0.7c0.1-0.4,0-0.7-0.3-1c-0.3-0.2-0.8-0.4-1.5-0.5l-1.9-0.3
		L111.7,14.2L111.7,14.2z M119.7,7.8l1.8,0.3l-1.4,9l-1.8-0.3L119.7,7.8L119.7,7.8z"/>
	<path class="st2" d="M124.2,9.1l1.7,0.5l-1.6,5.9l5.2-4.9l1.8,0.5l-2.4,8.8l-1.7-0.5l1.6-5.8l-5.1,4.8l-1.8-0.5L124.2,9.1
		L124.2,9.1z M129.4,8.2l0.8,0.2c-0.2,0.5-0.5,0.9-0.9,1.1c-0.4,0.2-0.9,0.3-1.4,0.1c-0.5-0.1-0.9-0.4-1.2-0.8
		c-0.2-0.4-0.3-0.9-0.2-1.4l0.8,0.2c-0.1,0.3,0,0.5,0.1,0.7c0.1,0.2,0.4,0.3,0.7,0.4c0.3,0.1,0.6,0.1,0.8,0
		C129.2,8.6,129.3,8.4,129.4,8.2L129.4,8.2z"/>
	<path class="st2" d="M138,13.5l1.6,0.8l-1.8,3.5c0.4,0.2,0.7,0.2,0.9,0.1c0.2-0.1,0.6-0.4,1.2-1c0.8-0.7,1.4-1.1,1.9-1.1
		c0.5,0,1.1,0.1,1.8,0.5c0,0,0.1,0.1,0.2,0.1l-0.6,1.2l-0.2-0.1c-0.3-0.2-0.6-0.3-0.8-0.3c-0.2,0-0.4,0.1-0.6,0.2
		c-0.2,0.1-0.5,0.4-1,0.8c-0.2,0.2-0.5,0.4-0.7,0.5c-0.2,0.1-0.5,0.2-0.9,0.2c0.3,0.3,0.5,0.7,0.6,1.1c0.1,0.4,0.1,1,0.1,1.7l0,2.8
		l-1.9-1l0.1-2.6c0,0,0-0.1,0-0.2c0,0,0-0.2,0-0.5c0-0.5,0-0.8-0.1-1c-0.1-0.2-0.3-0.3-0.5-0.5l-1.8,3.6l-1.6-0.8L138,13.5L138,13.5
		z"/>
	<path class="st2" d="M145.8,17.8l5.5,3.3l-4.6,7.9L145,28l3.9-6.5l-2.4-1.4l-2,3.4c-0.6,1-1,1.6-1.3,2s-0.6,0.5-1,0.6
		c-0.4,0.1-0.8-0.1-1.4-0.4c-0.2-0.1-0.5-0.3-1-0.7l0.7-1.2l0.4,0.2c0.3,0.2,0.6,0.3,0.7,0.3c0.2,0,0.4-0.2,0.6-0.6l0.8-1.4
		L145.8,17.8L145.8,17.8z"/>
	<path class="st2" d="M152.8,22.2l1.6,1.2l-1.2,5.1l4.3-2.7l1.5,1.2l-6.6,3.7c-0.7,0.4-1.3,0.6-1.9,0.8c-0.5,0.1-1,0-1.4-0.3
		c-0.4-0.3-0.8-0.6-1-0.9l0.8-1.1c0.2,0.2,0.4,0.3,0.6,0.4c0.3,0.3,0.6,0.4,0.9,0.4c0.2,0,0.6-0.2,1-0.5L152.8,22.2L152.8,22.2z"/>
	<path class="st2" d="M160.3,27.9l5.2,4.4l-1,1.2l-3.8-3.2l-1.4,1.6l1.9,1.6c0.5,0.4,0.9,0.9,1.1,1.3c0.2,0.4,0.3,0.9,0.3,1.4
		c0,0.5-0.3,1.1-0.6,1.5c-0.4,0.5-0.9,0.8-1.4,0.9c-0.5,0.1-1,0.1-1.4,0c-0.4-0.1-0.9-0.5-1.5-0.9l-3.3-2.8L160.3,27.9L160.3,27.9z
		 M156.8,34.9l1.4,1.2c0.4,0.4,0.8,0.6,1,0.7c0.2,0.1,0.5,0.1,0.7,0.1c0.3,0,0.5-0.2,0.7-0.4c0.3-0.3,0.4-0.7,0.2-1
		c-0.1-0.3-0.4-0.7-1-1.2l-1.4-1.2L156.8,34.9L156.8,34.9z"/>
	<polygon class="st2" points="172.3,56 180,51.2 183.3,56.6 182,57.4 179.7,53.6 177.9,54.7 179.8,58 178.5,58.8 176.5,55.6 
		173.2,57.6 172.3,56 	"/>
	<path class="st2" d="M179.8,60.3c0.8-0.4,1.6-0.6,2.3-0.7c0.5,0,1,0,1.5,0.2c0.5,0.2,0.9,0.4,1.3,0.7c0.5,0.4,0.9,0.9,1.2,1.6
		c0.6,1.2,0.7,2.3,0.3,3.4c-0.4,1.1-1.2,2-2.6,2.6c-1.3,0.7-2.5,0.8-3.6,0.5c-1.1-0.3-1.9-1.1-2.5-2.3c-0.6-1.2-0.7-2.4-0.3-3.4
		C177.6,61.8,178.5,61,179.8,60.3L179.8,60.3z M180.7,62c-0.9,0.5-1.5,1-1.8,1.7c-0.3,0.7-0.2,1.3,0.1,2c0.3,0.7,0.8,1.1,1.5,1.3
		c0.7,0.2,1.5,0,2.4-0.4c0.9-0.5,1.5-1,1.8-1.7c0.3-0.6,0.2-1.3-0.1-2c-0.3-0.7-0.8-1.1-1.5-1.3C182.4,61.4,181.6,61.5,180.7,62
		L180.7,62z"/>
	<path class="st2" d="M183.7,69.9c0.9-0.3,1.6-0.5,2.3-0.5c0.5,0,1,0.1,1.5,0.3c0.5,0.2,0.9,0.5,1.2,0.8c0.4,0.4,0.8,1,1.1,1.7
		c0.5,1.2,0.5,2.4,0,3.5c-0.5,1.1-1.4,1.9-2.8,2.4c-1.4,0.5-2.6,0.6-3.7,0.1c-1.1-0.4-1.8-1.3-2.3-2.5c-0.5-1.3-0.5-2.4,0-3.5
		C181.4,71.2,182.3,70.5,183.7,69.9L183.7,69.9z M184.4,71.7c-1,0.4-1.6,0.9-1.9,1.5c-0.3,0.6-0.3,1.3-0.1,2
		c0.3,0.7,0.7,1.1,1.4,1.4c0.7,0.2,1.5,0.2,2.5-0.2c1-0.4,1.6-0.9,1.9-1.5c0.3-0.6,0.3-1.3,0-2c-0.3-0.7-0.7-1.2-1.4-1.4
		C186.2,71.2,185.4,71.3,184.4,71.7L184.4,71.7z"/>
	<polygon class="st2" points="183,83.1 190.4,81.4 189.8,78.8 191.3,78.5 192.9,85.5 191.4,85.9 190.8,83.2 183.4,84.9 183,83.1 	
		"/>
	<path class="st2" d="M193.1,87.5l0.4,3.6c0.1,0.7,0.1,1.3,0.1,1.6c0,0.4-0.1,0.7-0.3,1c-0.2,0.3-0.4,0.6-0.7,0.8
		c-0.3,0.2-0.6,0.4-1,0.4c-0.4,0-0.8,0-1.2-0.2c-0.4-0.2-0.7-0.5-0.9-0.8c-0.1,0.6-0.3,1-0.7,1.4c-0.4,0.3-0.8,0.5-1.3,0.6
		c-0.4,0-0.8,0-1.2-0.1c-0.4-0.1-0.8-0.4-1-0.7c-0.3-0.3-0.5-0.7-0.6-1.2c-0.1-0.3-0.2-1-0.3-2.2l-0.4-3.1L193.1,87.5L193.1,87.5z
		 M191.8,89.5l-2.1,0.2l0.1,1.2c0.1,0.7,0.1,1.2,0.2,1.3c0.1,0.3,0.2,0.5,0.4,0.7c0.2,0.2,0.4,0.2,0.7,0.2c0.3,0,0.5-0.1,0.7-0.3
		c0.2-0.2,0.2-0.4,0.2-0.7c0-0.2,0-0.7-0.1-1.6L191.8,89.5L191.8,89.5z M188.2,89.9l-2.4,0.3l0.2,1.7c0.1,0.7,0.1,1.1,0.2,1.2
		c0.1,0.3,0.2,0.5,0.4,0.6c0.2,0.1,0.5,0.2,0.8,0.2c0.3,0,0.5-0.1,0.7-0.3c0.2-0.2,0.3-0.4,0.3-0.6c0.1-0.3,0-0.8-0.1-1.6
		L188.2,89.9L188.2,89.9z"/>
	<path class="st2" d="M184.8,105.7l0.1-2l2.1-0.7l0.1-3.6l-2-0.8l0.1-2l9,3.8l-0.1,1.9L184.8,105.7L184.8,105.7z M188.5,102.4
		l3.4-1.2l-3.3-1.3L188.5,102.4L188.5,102.4z"/>
	<polygon class="st2" points="184.6,106.8 193.6,107.8 193.4,109.6 185.9,108.8 185.4,113.3 183.9,113.1 184.6,106.8 	"/>
	<polygon class="st2" points="183.7,114.3 192.5,115.9 192.2,117.7 184.8,116.4 184,120.9 182.5,120.6 183.7,114.3 	"/>
	<path class="st2" d="M182.5,131.3l-1,1.5c-0.9-0.5-1.5-1.2-1.7-1.9c-0.3-0.7-0.3-1.6,0-2.5c0.3-1.2,1-2,2-2.5
		c1-0.5,2.2-0.6,3.6-0.2c1.5,0.4,2.5,1.1,3.1,2.1c0.6,1,0.7,2.1,0.3,3.3c-0.3,1.1-0.9,1.8-1.7,2.3c-0.5,0.3-1.1,0.4-1.9,0.4l0.1-1.9
		c0.5,0,0.9-0.1,1.3-0.3c0.4-0.3,0.6-0.6,0.7-1.1c0.2-0.6,0.1-1.2-0.2-1.8c-0.3-0.5-1-1-2.1-1.3c-1.1-0.3-2-0.4-2.5-0.1
		c-0.6,0.3-1,0.7-1.2,1.3c-0.1,0.5-0.1,0.9,0.1,1.3C181.5,130.6,181.9,131,182.5,131.3L182.5,131.3z"/>
	<polygon class="st2" points="178,133.4 186.1,137.3 185.3,139 178.6,135.8 176.6,139.9 175.2,139.2 178,133.4 	"/>
	<path class="st2" d="M182.3,144.7l-0.9,1.6l-4.3-2.4c-0.7-0.4-1.1-0.6-1.4-0.7c-0.4-0.1-0.7-0.1-1.1,0c-0.3,0.1-0.6,0.4-0.9,0.9
		c-0.3,0.5-0.4,0.8-0.3,1.2c0.1,0.3,0.2,0.6,0.4,0.8c0.2,0.2,0.7,0.5,1.3,0.8l4.4,2.5l-0.9,1.6l-4.2-2.4c-1-0.5-1.6-1-1.9-1.3
		c-0.3-0.3-0.6-0.7-0.7-1c-0.1-0.4-0.2-0.8-0.1-1.3c0.1-0.5,0.3-1,0.6-1.7c0.4-0.8,0.8-1.3,1.2-1.6c0.4-0.3,0.8-0.5,1.2-0.5
		c0.4-0.1,0.8-0.1,1.1,0.1c0.5,0.2,1.2,0.5,2.1,1L182.3,144.7L182.3,144.7z"/>
	<path class="st2" d="M177,153.7l-2.3,2.8c-0.5,0.6-0.8,1-1.1,1.2c-0.3,0.2-0.6,0.4-0.9,0.5c-0.3,0.1-0.7,0.1-1,0.1
		c-0.4-0.1-0.7-0.2-1-0.5c-0.3-0.3-0.6-0.6-0.7-1c-0.1-0.4-0.1-0.8,0-1.2c-0.5,0.3-1,0.5-1.5,0.5c-0.5,0-0.9-0.2-1.3-0.5
		c-0.3-0.3-0.6-0.6-0.7-1c-0.2-0.4-0.3-0.8-0.2-1.2c0-0.4,0.2-0.8,0.5-1.2c0.2-0.3,0.6-0.8,1.4-1.8l2-2.4L177,153.7L177,153.7z
		 M174.7,154.2l-1.6-1.3l-0.8,0.9c-0.5,0.6-0.7,0.9-0.8,1.1c-0.2,0.3-0.2,0.5-0.2,0.8c0,0.3,0.2,0.5,0.4,0.7
		c0.2,0.2,0.4,0.3,0.7,0.3c0.2,0,0.5-0.1,0.7-0.3c0.1-0.1,0.5-0.5,1-1.2L174.7,154.2L174.7,154.2z M171.9,151.9l-1.9-1.5l-1.1,1.3
		c-0.4,0.5-0.7,0.8-0.8,1c-0.1,0.2-0.2,0.5-0.1,0.7c0,0.3,0.2,0.5,0.4,0.7c0.2,0.2,0.4,0.3,0.7,0.3c0.2,0,0.5,0,0.7-0.2
		c0.2-0.1,0.6-0.5,1.1-1.2L171.9,151.9L171.9,151.9z"/>
	<polygon class="st2" points="65.5,177.5 72.6,180.2 69.2,189.2 67.4,188.5 70.2,181 66.7,179.7 63.9,187.1 62.1,186.5 65.5,177.5 	
		"/>
	<path class="st2" d="M79.6,191.9l-2-0.5l-0.3-2.3l-3.7-0.9l-1.3,1.9l-2-0.5l5.8-8.5l2,0.5L79.6,191.9L79.6,191.9z M76.9,187.4
		l-0.5-3.8l-2.1,3.2L76.9,187.4L76.9,187.4z"/>
	<path class="st2" d="M82.2,182.8l3.8,0.5c0.7,0.1,1.3,0.2,1.7,0.3c0.4,0.1,0.7,0.3,0.9,0.5c0.3,0.2,0.5,0.5,0.6,0.9
		c0.1,0.4,0.2,0.7,0.1,1.1c-0.1,0.4-0.2,0.8-0.5,1.2c-0.3,0.3-0.7,0.6-1.1,0.7c0.6,0.2,1,0.6,1.2,1c0.3,0.4,0.3,0.9,0.3,1.5
		c-0.1,0.4-0.2,0.8-0.5,1.2c-0.3,0.4-0.6,0.7-1,0.9c-0.4,0.2-0.8,0.3-1.3,0.3c-0.3,0-1.1-0.1-2.3-0.3l-3.2-0.5L82.2,182.8
		L82.2,182.8z M83.9,184.7l-0.3,2.2l1.3,0.2c0.7,0.1,1.2,0.2,1.4,0.2c0.3,0,0.6-0.1,0.8-0.2c0.2-0.2,0.3-0.4,0.4-0.7
		c0-0.3,0-0.5-0.1-0.7c-0.1-0.2-0.4-0.3-0.7-0.4c-0.2,0-0.7-0.1-1.6-0.3L83.9,184.7L83.9,184.7z M83.4,188.4L83,191l1.8,0.2
		c0.7,0.1,1.1,0.1,1.3,0.1c0.3,0,0.5-0.1,0.7-0.3c0.2-0.2,0.3-0.4,0.4-0.8c0-0.3,0-0.5-0.1-0.8c-0.1-0.2-0.3-0.4-0.5-0.5
		c-0.2-0.1-0.8-0.3-1.7-0.4L83.4,188.4L83.4,188.4z"/>
	<path class="st2" d="M91.5,184l6.7,0.2l-0.3,9.6l-1.9-0.1l0.3-7.9l-2.9-0.1l-0.1,4.1c0,1.2-0.1,2-0.2,2.4c-0.1,0.5-0.3,0.8-0.6,1.1
		c-0.3,0.2-0.8,0.4-1.4,0.3c-0.2,0-0.6,0-1.2-0.1l0.1-1.5l0.4,0c0.4,0,0.7,0,0.8-0.1c0.1-0.1,0.2-0.4,0.2-0.8l0.1-1.6L91.5,184
		L91.5,184z"/>
	<path class="st2" d="M99.3,189.5c-0.1-1,0-1.8,0.2-2.5c0.2-0.5,0.4-1,0.8-1.4c0.3-0.4,0.7-0.7,1.2-1c0.6-0.3,1.2-0.5,2-0.6
		c1.4-0.1,2.6,0.2,3.5,1c0.9,0.8,1.4,2,1.6,3.5c0.1,1.5-0.2,2.8-0.9,3.7c-0.8,0.9-1.8,1.5-3.2,1.6c-1.4,0.1-2.6-0.2-3.5-1
		C100,192.2,99.5,191,99.3,189.5L99.3,189.5z M101.3,189.3c0.1,1.1,0.4,1.9,1,2.4c0.5,0.5,1.2,0.7,2,0.7c0.8-0.1,1.4-0.4,1.8-1
		c0.4-0.6,0.6-1.4,0.5-2.6c-0.1-1.1-0.4-1.9-0.9-2.4c-0.5-0.5-1.2-0.7-2-0.6c-0.8,0.1-1.4,0.4-1.8,1
		C101.4,187.3,101.2,188.2,101.3,189.3L101.3,189.3z"/>
	<path class="st2" d="M109.9,183.7l6.5-0.9l1.1,7.9l0.8-0.1l0.5,3.7l-1.6,0.2l-0.3-2.1l-6,0.8l0.3,2.1l-1.6,0.2l-0.5-3.7l0.8-0.1
		c0.3-0.9,0.4-1.8,0.4-2.9c0-1.1-0.2-2.5-0.4-4.1L109.9,183.7L109.9,183.7z M112,185c0.4,2.9,0.4,5,0.1,6.4l3.6-0.5l-0.9-6.3
		L112,185L112,185z"/>
	<path class="st2" d="M128.7,189.6l-2,0.5l-1.3-1.9l-3.7,0.9l-0.2,2.3l-2,0.5l1.3-10.2l2-0.5L128.7,189.6L128.7,189.6z M124.3,186.8
		l-2.1-3.1l-0.4,3.8L124.3,186.8L124.3,186.8z"/>
	<path class="st2" d="M129.8,189.1l-3.1-9l2.9-1c1.1-0.4,1.9-0.6,2.2-0.6c0.6,0,1.1,0.1,1.6,0.4c0.5,0.3,0.9,0.9,1.1,1.6
		c0.2,0.6,0.3,1.1,0.2,1.5c-0.1,0.4-0.2,0.8-0.5,1.2c-0.2,0.3-0.5,0.6-0.8,0.8c-0.4,0.2-1,0.5-1.9,0.8l-1.2,0.4l1.2,3.4L129.8,189.1
		L129.8,189.1z M129,180.9l0.9,2.6l1-0.3c0.7-0.2,1.2-0.5,1.4-0.6c0.2-0.2,0.3-0.4,0.4-0.6c0.1-0.2,0.1-0.5,0-0.8
		c-0.1-0.3-0.3-0.6-0.6-0.7c-0.3-0.1-0.6-0.2-0.9-0.1c-0.2,0-0.7,0.2-1.3,0.4L129,180.9L129,180.9z"/>
	<polygon class="st1" points="58.9,42.3 60.3,46.7 64.9,46.6 61.2,49.3 62.6,53.7 58.9,51 55.2,53.7 56.6,49.3 52.9,46.6 57.5,46.7 
		58.9,42.3 	"/>
	<polygon class="st1" points="137.2,42.3 138.7,46.7 143.3,46.6 139.5,49.3 141,53.7 137.2,51 133.5,53.7 135,49.3 131.2,46.6 
		135.8,46.7 137.2,42.3 	"/>
	<polygon class="st1" points="77.4,30.6 78.9,35 83.5,35 79.7,37.7 81.2,42 77.4,39.3 73.7,42 75.1,37.7 71.4,35 76,35 77.4,30.6 	
		"/>
	<polygon class="st1" points="119.8,30.6 121.2,35 125.8,35 122.1,37.7 123.5,42 119.8,39.3 116.1,42 117.5,37.7 113.8,35 118.4,35 
		119.8,30.6 	"/>
	<polygon class="st1" points="99.2,25.3 100.7,29.7 105.3,29.7 101.5,32.4 103,36.8 99.2,34.1 95.5,36.8 97,32.4 93.2,29.7 
		97.8,29.7 99.2,25.3 	"/>
	<polygon class="st1" points="47.3,166.5 42.7,169.3 42.7,174.6 47.2,171.8 47.3,166.5 	"/>
	<polygon class="st1" points="152.4,166.7 156.8,169.7 156.5,175 152.1,172 152.4,166.7 	"/>
</g>
</svg>
