<?xml version="1.0" encoding="utf-8"?>
<!-- Generator: Adobe Illustrator 21.1.0, SVG Export Plug-In . SVG Version: 6.00 Build 0)  -->
<svg version="1.1"
	 id="svg2985" inkscape:version="0.48.2 r9819" sodipodi:docname="FK_Jelgava_Logo.svg" xmlns:cc="http://creativecommons.org/ns#" xmlns:dc="http://purl.org/dc/elements/1.1/" xmlns:inkscape="http://www.inkscape.org/namespaces/inkscape" xmlns:rdf="http://www.w3.org/1999/02/22-rdf-syntax-ns#" xmlns:sodipodi="http://sodipodi.sourceforge.net/DTD/sodipodi-0.dtd" xmlns:svg="http://www.w3.org/2000/svg"
	 xmlns="http://www.w3.org/2000/svg" xmlns:xlink="http://www.w3.org/1999/xlink" x="0px" y="0px" viewBox="0 0 200 200"
	 style="enable-background:new 0 0 200 200;" xml:space="preserve">
<style type="text/css">
	.st0{fill:#A32D3A;}
	.st1{fill:#FFFFFF;}
	.st2{fill:#2955A6;}
</style>
<g>
	<path id="rect3009" inkscape:connector-curvature="0" class="st0" d="M18,0H182v126.2c0,0-3.4,73.5-82,73.8
		C21.2,200.2,18,126.2,18,126.2V0z"/>
	<path id="path3112" inkscape:connector-curvature="0" class="st1" d="M23.4,5.3v3.1v6.1v111.8c0,0,0.2,2.8,1.1,7.3
		c12-5.9,23.9-8,35.9-8c39.6,0,79.1,22.4,116,1.5c0.1-0.5,0.1-0.7,0.1-0.7V8.4h-0.1V5.3H23.4z"/>
	<path id="path3110" inkscape:connector-curvature="0" class="st1" d="M55.8,133l-6.1,7.5l-0.2-6.6l-3.3,0.2l0.7,15.8l3.3-0.3
		l-0.2-4.8l2.6-2.9l4.8,7.3h4.3l-7.1-9.6l5.2-6.4L55.8,133L55.8,133z"/>
	<path id="path3108" inkscape:connector-curvature="0" class="st1" d="M76.4,134.3l-0.8,11.9c-0.2,2-3.6,2.1-3.7,0.1l-0.1-1.8
		l-3.4-0.1l0.1,1.8c0.2,5.4,10,5.6,10.4,0l0.7-11.7L76.4,134.3L76.4,134.3z"/>
	<path id="path3106" inkscape:connector-curvature="0" class="st1" d="M40.4,135.1l-10.2,2.8l3.9,15.1l2.8-0.7l-1.6-6.6l6.3-1.6
		l-0.6-2.5l-6.5,1.6l-0.7-3.4l7.3-1.9L40.4,135.1z"/>
	<path id="path3104" inkscape:connector-curvature="0" class="st1" d="M84.3,135.2c0,0-2.8,15.7-3,15.7s11.8,2.3,11.8,2.3l0.6-3
		l-8.5-1.7l0.7-3.8l8,1.5l0.5-2.9l-7.8-1.3l0.7-3.2l8.1,1.5l0.6-3.1L84.3,135.2z"/>
	<path id="path3102" inkscape:connector-curvature="0" class="st1" d="M99.2,137.9l-2.9,15.7l10.3,2.2l0.8-3.1l-7-1.6l2.3-12.6
		L99.2,137.9z"/>
	<path id="path3100" inkscape:connector-curvature="0" class="st1" d="M117.7,141.1c-10.6,0-10.7,16.2,0.1,16.1
		c5.7,0,7.4-3.3,7.4-7.7l-7.2-0.1l-0.1,2l3.5,0.1c-0.1,2.2-1.6,3-3.5,3c-6.9-0.3-5.3-10.5,0-10.6c2,0.1,3.9,1,3.9,3.1l3.4,0.1
		C125.2,143.2,121.5,141.1,117.7,141.1L117.7,141.1z"/>
	<path id="path3098" inkscape:connector-curvature="0" class="st1" d="M158.4,141.5l-3.3,0.6l-3.7,16.7l3.9-0.7l0.6-3.7l5.8-1.1
		l1.8,3.2l3.9-0.7L158.4,141.5z"/>
	<path id="path3096" inkscape:connector-curvature="0" class="st1" d="M152.5,142.6l-3.7,0.2l-2.7,11.7l-4.9-11l-3.5,0.2l6.7,15.2
		l4.1-0.3L152.5,142.6z"/>
	<path id="path3094" inkscape:connector-curvature="0" class="st1" d="M132.1,143.4l-7.6,15.3l4,0.2l1.5-3.4l5.9,0.3l1,3.5l3.9,0.2
		l-5.3-16.1L132.1,143.4z"/>
	<path id="path3092" inkscape:connector-curvature="0" class="st0" d="M157.5,145.5l3.3,5.1l-4.4,0.8L157.5,145.5z"/>
	<path id="path3090" inkscape:connector-curvature="0" class="st0" d="M133.4,147.2l2,5.7l-4.5-0.2L133.4,147.2z"/>
	<path id="path3088" inkscape:connector-curvature="0" class="st1" d="M61,156.6c-8.6,0-17.2,1.1-26.1,3.9
		c10.2,17.4,29.3,34.8,65,34.8c32.6,0,51.5-14.6,62.3-30.3C123,171.3,92.4,156.6,61,156.6z"/>
	<path id="path3084" inkscape:connector-curvature="0" class="st0" d="M89.5,169.8c0.2,0,0.3,0,0.6,0c0,0,0.1,0,0.2,0
		c0.8,0.1,1.4,0.4,1.9,0.9c0.5,0.6,0.7,1.1,0.7,1.9c0,0.4-0.1,0.8-0.2,1.2c-0.2,0.4-0.4,0.7-0.8,1.1c-0.2,0.2-0.7,0.7-1.3,1.1
		c-0.3,0.2-0.6,0.5-0.8,0.7c-0.2,0.2-0.3,0.2-0.4,0.3c-0.2,0.2-0.3,0.3-0.4,0.5c0.2,0,0.5,0,0.7,0.1c1,0.1,2,0.2,3,0.2l-0.1,1.6
		c-1-0.1-2-0.2-3-0.2c-0.9-0.1-1.8-0.2-2.8-0.3c-0.2,0-0.5-0.1-0.7-0.2h-0.2c0.1-0.3,0.2-0.7,0.4-0.9c0.2-0.2,0.4-0.5,0.6-0.7
		c0.1-0.1,0.2-0.2,0.3-0.3c0.5-0.4,1.1-1,2-1.6c0.3-0.2,0.7-0.5,0.9-0.7c0.4-0.3,0.7-0.6,0.7-0.7c0.2-0.3,0.4-0.7,0.5-1.1
		c0-0.4-0.1-0.7-0.2-1c-0.2-0.2-0.4-0.3-0.7-0.4c-0.1,0-0.1,0-0.2,0c-0.3,0-0.7,0.1-0.9,0.2c-0.2,0.2-0.4,0.6-0.5,1.1
		c-0.3-0.1-0.7-0.2-1.1-0.2c-0.2-0.1-0.4-0.2-0.6-0.2v-0.1c0.2-0.7,0.5-1.2,0.8-1.6c0.1-0.1,0.2-0.2,0.3-0.2
		C88.5,170,88.9,169.8,89.5,169.8L89.5,169.8z"/>
	<path id="path3078" class="st0" d="M104,171.6c-0.2,0-0.4,0.1-0.6,0.2c-0.2,0.2-0.2,0.4-0.3,0.7c-0.1,0.5-0.2,1.2-0.1,2.4
		c0.1,1.1,0.2,1.9,0.2,2.3c0.2,0.4,0.2,0.7,0.5,0.8c0.2,0.2,0.3,0.2,0.6,0.2c0.2,0,0.4-0.1,0.6-0.2c0.2-0.2,0.2-0.4,0.3-0.7
		c0.1-0.5,0.2-1.2,0.1-2.4c-0.1-1.1-0.2-1.9-0.3-2.3s-0.3-0.7-0.5-0.8C104.4,171.6,104.3,171.5,104,171.6L104,171.6z M103.9,170
		c0.9-0.1,1.6,0.2,2.1,0.8c0.7,0.7,1.1,2,1.1,3.8c0.1,1.8-0.1,3-0.7,3.9c-0.5,0.7-1.2,1-2.1,1.1s-1.7-0.2-2.3-0.9
		c-0.6-0.7-0.9-1.9-1-3.7c-0.1-1.8,0.2-3,0.7-3.9C102.4,170.4,103,170.1,103.9,170z"/>
	<path id="path3076" class="st0" d="M96.9,171.7c-0.2,0-0.4,0.1-0.6,0.2s-0.3,0.3-0.4,0.7c-0.2,0.5-0.2,1.2-0.2,2.4
		c0,1.1,0,1.8,0.2,2.3s0.2,0.7,0.4,0.8c0.2,0.2,0.3,0.2,0.6,0.2s0.4-0.1,0.7-0.2c0.2-0.2,0.3-0.4,0.4-0.7c0.2-0.5,0.2-1.2,0.2-2.3
		c0-1.1-0.1-1.9-0.2-2.3c-0.1-0.4-0.2-0.7-0.4-0.8C97.3,171.8,97,171.7,96.9,171.7z M96.9,170.2c0.9,0,1.6,0.3,2,1
		c0.6,0.7,1,2,1,3.9c0.1,1.8-0.2,3-0.8,3.9c-0.5,0.7-1.2,1-2.2,1c-1,0-1.7-0.4-2.3-1.1c-0.6-0.7-0.8-2-0.7-3.8
		c0.1-1.8,0.4-3,1.1-3.8C95.3,170.5,96,170.2,96.9,170.2z"/>
	<path id="path3785" class="st0" d="M111.8,172.4c-0.7,1.1-1.2,2.2-1.9,3.3l2.2-0.2L111.8,172.4z M113.3,169.5l0.6,5.9l1.1-0.1
		c0.1,0.5,0.1,1.1,0.2,1.6L114,177l0.2,1.9c-0.6,0-1.1,0.1-1.8,0.1l-0.2-1.9l-3.9,0.2l-0.1-1.6c1.2-2,2.5-4.1,3.6-6.1L113.3,169.5z"
		/>
	<path id="path3834" inkscape:connector-curvature="0" class="st2" d="M46.5,157.7c35.9,45.3,86.1,24.5,99.3,8.9
		c3-0.1,6-0.2,10.7-0.7c-33.7,37.6-86.7,35.1-117.5-6.5C41.4,158.7,43.8,158.1,46.5,157.7L46.5,157.7z"/>
	<path id="path3836" inkscape:connector-curvature="0" class="st2" d="M28,132c-0.6-2.4-0.9-5.5-0.9-8.4V9H173v115.2
		c0,2.1,0,3.4-0.4,4.9c-3,1.4-5.2,2.3-7.3,3c0.5-2,0.7-3.7,0.8-7.9V15.9H33.7v108.6c0.1,1.5-0.1,3,0.5,5.2C32,130.5,30,131.3,28,132
		z"/>
	<path class="st2" d="M122.1,33l-0.6-0.8c11.2-8.2,29.6-5.2,46.1-1.3l-0.2,1C151.1,28,133,25.1,122.1,33z"/>
	<path class="st2" d="M73.4,40.3c-13.5-8.5-28.4-6.6-41.2-3.4l-0.2-1c13-3.1,28.2-5.2,42,3.6L73.4,40.3z"/>
	<path class="st2" d="M70.7,45.9c-16.1-7.5-30.7-4.2-38.1-1.6l-1.1-3.1c7.8-2.8,23.4-6.3,40.6,1.7L70.7,45.9z"/>
	<path class="st2" d="M32.8,69.1l-0.6-0.8c1.1-0.7,2.1-1.5,3.2-2.2c7.8-5.6,15.9-11.4,33.7-8l-0.2,1c-17.4-3.4-24.9,2-32.9,7.7
		C34.9,67.6,33.9,68.4,32.8,69.1z"/>
	<path class="st2" d="M166.9,39.1c-11.1-3.9-28.6-6.6-41.8-1l-1.3-3c14.1-6,32-3.4,44.3,1L166.9,39.1z"/>
	<path class="st2" d="M167,60.8c-0.7-0.5-1.3-0.9-2-1.4c-9-6.2-21.3-14.8-35.2-11.9l-0.2-1c14.3-3,26.9,5.7,36.1,12
		c0.7,0.5,1.4,1,2,1.4L167,60.8z"/>
	<path id="path3856_1_" inkscape:connector-curvature="0" class="st1" d="M132.5,55.9c0,18-14.6,32.6-32.6,32.6S67.3,73.9,67.3,55.9
		s14.6-32.6,32.6-32.6C118,23.3,132.5,37.9,132.5,55.9L132.5,55.9z"/>
	<path class="st2" d="M99.9,89c-18.3,0-33.1-14.8-33.1-33.1s14.8-33.1,33.1-33.1S133,37.6,133,55.9S118.2,89,99.9,89z M99.9,23.8
		c-17.7,0-32.1,14.4-32.1,32.1S82.2,88,99.9,88S132,73.6,132,55.9S117.6,23.8,99.9,23.8z"/>
	<path id="path3871" inkscape:connector-curvature="0" class="st2" d="M96.3,45.1l13.4,2.4l1.8,13.2l-12.5,6.2L89,57.2L96.3,45.1z"
		/>
	<path id="path3873" inkscape:connector-curvature="0" class="st2" d="M78.4,31.2l0.7,5.4l12.3-1.8l7.6-7.1l-4.3-4.1
		C88.4,24.9,83,27.5,78.4,31.2z"/>
	<path id="path3875" inkscape:connector-curvature="0" class="st2" d="M67.3,56.3l5.2-4.8l5.7,8.1L76,70.9l-5.2-0.4
		C68.8,65.7,67,61,67.3,56.3z"/>
	<path id="path3877" inkscape:connector-curvature="0" class="st2" d="M110.9,29.8l6.1-1.6c4.1,2.8,8,5.8,10.3,10.2l-1.2,5.8
		l-10.9-2.9L110.9,29.8z"/>
	<path id="path3879" inkscape:connector-curvature="0" class="st2" d="M131.6,63.1l-3.2-2.5l-7.3,6.1l-1.9,9.2l5.1,1.6
		C128.2,73.3,130.2,68.3,131.6,63.1L131.6,63.1z"/>
	<path id="path3881" inkscape:connector-curvature="0" class="st2" d="M85.2,85l0.6-5.1L97.6,79l10.3,3.5l-1.4,5.4
		C98.9,89.3,91.9,88.2,85.2,85z"/>
	<path class="st2" d="M72.5,52.7l-0.8-0.1c1.1-8.9,4.4-13.5,7.5-17l0.6,0.6C76.9,39.5,73.6,44.1,72.5,52.7z"/>
	
		<rect x="93.5" y="33.3" transform="matrix(0.9076 -0.4199 0.4199 0.9076 -8.0562 43.1875)" class="st2" width="1.1" height="13.3"/>
	<path class="st2" d="M111.6,30.6c-4.8-1.9-8.8-2.5-13.5-2.3l-0.1-1c4.9-0.3,9.1,0.4,14,2.3L111.6,30.6z"/>
	
		<rect x="107.3" y="43.9" transform="matrix(0.6953 -0.7187 0.7187 0.6953 2.3094 94.3625)" class="st2" width="10.2" height="1.1"/>
	<path class="st2" d="M129.1,61.5H128c0.1-7.1-0.9-13-3-18l0.9-0.4C128.2,48.2,129.2,54.2,129.1,61.5z"/>
	
		<rect x="115.8" y="56.7" transform="matrix(0.5477 -0.8367 0.8367 0.5477 -0.5481 126.0598)" class="st2" width="1.1" height="13.6"/>
	<rect x="91.3" y="72.3" transform="matrix(0.1227 -0.9924 0.9924 0.1227 14.0125 161.4336)" class="st2" width="14" height="1"/>
	<path class="st2" d="M86.2,81.2c-5.8-4.2-8.5-7.4-11.1-10.4l-0.2-0.3l0.8-0.7l0.2,0.3c2.5,3,5.2,6.1,11,10.2L86.2,81.2z"/>
	
		<rect x="77.2" y="57.9" transform="matrix(0.9811 -0.1937 0.1937 0.9811 -9.7281 17.2937)" class="st2" width="12.7" height="1.1"/>
	<path class="st2" d="M107.5,83l-0.3-1c5.8-2.1,9.7-4.8,12.3-7l0.7,0.8C117.4,78,113.4,80.9,107.5,83z"/>
	<path id="path4413" inkscape:connector-curvature="0" class="st2" d="M121.3,60.9c-0.2,0.2-0.4,0.7-0.2,1.6
		c0.5,2.6,0.2,5.2-0.7,7.7c-0.9,1.5-2,1.6-2.3-0.2c-0.5-2.3-1.3-4.3-2.7-5.7c-0.9-1.1-2.5-1.6-1.8,0.5c1.1,4.3,2.3,10-1.1,12.4
		c-2.1,1.5-5.8,2.2-6.1-1.5c-0.2-3.4,1.1-5.7,2.1-8c1-2.5-0.6-2-1.8-0.6c-4.8,5.9-2.7,10.2-5.7,14.5c-1.9,2.8-5.5,2.5-7.6,0.4
		c-2.3-3-0.9-5.9-0.1-7.9c0.8-1.6-0.3-1.5-1.5-0.7c-1.8,1.6-2.5,3.9-1.9,7c0.3,2.4-0.8,1.8-1.8-0.1c-1.6-4.4,0.5-7.1,1.6-10.2
		c0.6-2.6-1.1-1.1-2.2-0.2c-2.8,2.4-3.5,6.2-3.8,10.1c0,1.6-1.7,1.4-2.4,0c-0.9-2.3,0.3-4.6,0.5-6.8c0.2-0.9-0.4-1.2-1.2,0
		c-1.6,2.6-1.6,4.4-1.2,7.1c-0.1,1.4-1.1,1.1-2,0.4c-2.2-2-0.8-4.7-0.6-6.1c0.4-1.6-0.5-2.3-1.6-0.2c-1.3,3-3.2,15.6,11.3,14.8
		c2.5-0.2,2.9-0.2,5.3,0.2c-4.8,2.6-8.8,2.4-10.3,3c-1.3,0.7-1.3,2.5-5.7,3c-3,0.4-5,1.2-6.6,2.3l-3.5,2.5c-2.1,1.6-2.9,2-2.7,5.7
		c0,0.5,0,1-0.7,1.4c-0.6,0.6-0.7,1.2-0.4,1.9l0.5,0.9c0.6,1,1.4,1.2,2.3,1.5c1.4,0.4,2.9,0.4,3.7,1.7c1.1,1.4,2.2,1.1,3.4-0.2
		c0.8-1,1.6-1.1,2.5-1.1H78c1.2,0,1.9,1.1,0.7,2.3c-1.6,2.5-2.4,5.3-2.8,8.4c-0.2,1.9-1.9,2.8-3.8,1.1c0.6,3.4,4,2.5,5.3,0.5
		c-0.2,1.1-0.8,2-1.4,2.8c15.7,1.9,31.6,5.8,47.2,8c0-4.2-1-8.1-2.6-11.9c2.5,0.3,1.6-1,0.7-1.5c-4.8-2.6-0.3-13.9-10.7-21
		c-0.9-0.7-0.5-1.3,0.5-1.3c3.9-0.2,5.9-6,7.2-8.9c-5.2,0.1-11-1.3-14.6,1.6c-4.3,3.6-6.2-1.3-1.4-2.5c7.5-1.6,16.2,0.2,22.1-2.3
		c6.5-2.8,5-5.6,9.2-8c1.6-0.6,1.2-1.6-0.1-1.5c-1,0.1-1.8,0.7-2.7,0.8c-2,0.2-1.3-1.4-0.2-2.5c1.7-1.9,3-4.1,2-8.8
		c-0.4-1.3-1.2-1.1-1.1,0.2c-0.2,2.1-1.1,3.9-2.5,5.3c-1.1,1.1-2.5-0.2-1.6-2.1c1.1-2.4,1.6-4.4,0.9-7.2c-1.2-2.2-2.1-1.5-1.8,0.6
		c0.1,2.5-0.6,3.9-1.5,5.1c-0.6,0.6-2.1,1.4-1.5-0.9c0.7-2.2,0.3-4.3-1.1-6.3C122,61,121.6,60.7,121.3,60.9L121.3,60.9z"/>
	<path id="path3903" inkscape:connector-curvature="0" class="st0" d="M79.6,123.9c-1.4,2-4.8,3-5.3-0.5c1.9,1.7,3.5,0.8,3.8-1.1
		c0.4-3,1.2-5.9,2.8-8.4c1.1-1.2,0.5-2.4-0.7-2.4h-3.9c-0.8,0.1-1.6,0.2-2.5,1.1c-1.1,1.3-2.3,1.6-3.4,0.2c-0.8-1.2-2.3-1.3-3.7-1.7
		c-0.9-0.2-1.8-0.5-2.3-1.5l-0.4-1.1c-0.2-0.7-0.2-1.4,0.4-1.9c0.7-0.5,0.7-0.9,0.7-1.4c-0.2-3.6,0.5-4.1,2.7-5.7l3.5-2.5
		c1.6-1.1,3.7-1.9,6.6-2.3c4.3-0.6,4.3-2.4,5.7-3c1.6-0.6,5.6-0.4,10.3-3c-2.5-0.3-2.8-0.2-5.3-0.2C74,89.3,75.9,76.8,77.3,73.8
		c1.1-2,2-1.4,1.6,0.2c-0.2,1.5-1.6,4.2,0.6,6.1c0.9,0.7,1.9,1,2-0.4c-0.4-2.7-0.3-4.5,1.2-7.1c0.8-1.2,1.4-1,1.2-0.1
		c-0.2,2.3-1.4,4.5-0.5,6.9c0.7,1.3,2.4,1.6,2.4,0c0.2-3.9,1-7.7,3.8-10.1c1.1-0.8,2.8-2.4,2.2,0.2c-1.1,3.1-3.3,5.8-1.6,10.2
		c0.9,1.8,2.1,2.4,1.8,0.1c-0.6-3,0.2-5.3,1.9-7c1.1-0.8,2.2-1.1,1.5,0.7c-0.8,2-2.2,4.8,0.1,7.9c2.2,2.1,5.7,2.4,7.7-0.4
		c3-4.3,0.8-8.5,5.7-14.5c1.2-1.5,2.8-2,1.8,0.6c-1,2.5-2.3,4.6-2.1,8c0.4,3.7,4,3,6.1,1.5c3.4-2.4,2.2-8.1,1.1-12.4
		c-0.7-2,1-1.6,1.8-0.5c1.3,1.5,2.2,3.4,2.7,5.7c0.3,1.7,1.4,1.6,2.3,0.2c1-2.5,1.2-5,0.7-7.7c-0.2-1.8,0.4-2.1,1.4-0.7
		c1.4,2,1.8,4.1,1.1,6.3c-0.7,2.3,0.9,1.5,1.5,0.8c0.9-1.2,1.6-2.6,1.5-5.1c-0.3-2.1,0.7-2.8,1.8-0.6c0.7,2.8,0.3,4.8-0.9,7.2
		c-0.8,1.9,0.5,3.2,1.6,2.1c1.6-1.4,2.4-3.2,2.5-5.3c-0.1-1.3,0.8-1.5,1.2-0.2c0.9,4.7-0.3,6.9-2.1,8.8c-1.1,1.1-1.9,2.5,0.2,2.5
		c1,0,1.7-0.7,2.8-0.8c1.3-0.1,1.7,0.9,0.1,1.5c-4.2,2.4-2.7,5.2-9.2,8c-5.9,2.5-14.8,0.7-22.1,2.3c-4.9,1.1-2.9,6.1,1.4,2.5
		c3.7-2.9,9.3-1.5,14.7-1.6c-1.2,3-3.3,8.8-7.2,9c-1,0-1.4,0.6-0.5,1.3c10.3,7,5.8,18.4,10.7,21c0.9,0.5,1.7,1.7-0.7,1.4
		c1.9,4.6,3,9.5,2.5,14.7c-16.1,1.4-32.7-1.7-48.8-8.9C77.8,127.2,79.1,125.9,79.6,123.9L79.6,123.9z"/>
	<path id="path4439" inkscape:connector-curvature="0" class="st1" d="M75.7,103.6c3-2.4,2.9-6,9.3-4.8
		C78.5,98.2,78.9,102.8,75.7,103.6z"/>
	<path id="path4441" inkscape:connector-curvature="0" class="st1" d="M74.4,106.6c-1.7,0.7-4.8-0.6-4.6,2
		C70.4,110.7,73.7,109.3,74.4,106.6z M72,107.4c0.3,0,0.8,0.2,1.2,0.1c-0.4,0.8-1.6,1.1-1.6,0.3C71.6,107.5,71.7,107.4,72,107.4z"/>
	<path id="path4446" inkscape:connector-curvature="0" class="st1" d="M69.1,112c3.5-1.2,3.9-3.7,9.3-3c-4.8-0.1-5.9,2.4-8.8,3.2
		C69.4,112.1,69.3,112,69.1,112z"/>
	<path id="path4448" inkscape:connector-curvature="0" class="st1" d="M89.3,97c-3.4-6.1,4.9-8,9.5-4C94.6,90.7,87.7,90.7,89.3,97z"
		/>
	<path id="path4450" inkscape:connector-curvature="0" class="st1" d="M91,94.2c3.6-3,5,1.6,7.1,3C95.8,96.2,94.3,93.1,91,94.2z"/>
	<path id="path4452" inkscape:connector-curvature="0" class="st1" d="M92.8,94.8c-0.5,0-1,0.2-1.5,0.7c0.3,0,0.5,0,0.7,0.1
		c-0.2,0.4-0.2,0.9,0,1.4l-0.3,0.2c2,0.5,3.4,0.2,4.1-1.1C94.7,95.7,93.8,94.8,92.8,94.8z M93,95.5c0.7-0.1,1.3,0.5,2,0.7
		c-0.3,0.5-1.1,0.7-2,0.6C93,96.3,93,95.8,93,95.5C93,95.5,93,95.5,93,95.5L93,95.5z"/>
	<path id="path4457" inkscape:connector-curvature="0" class="st1" d="M105.2,98.6c4.3-3,6.1-10.3,13.1-6.4
		c-0.5,0.7-1.1,1.2-1.8,1.7h0.7c-0.1,0.5-0.1,3-5.3,3.1c-1.2,1.8-2.7,2-4.4,1.8c2.1-0.2,3.2-1,4-2.4c2,0.2,3.6-0.2,4.6-1.6
		c-0.7-0.4-1.4-0.1-2-0.2c0.9-0.5,1.5-1.2,2-2C111.1,90.2,109.3,97.4,105.2,98.6L105.2,98.6z"/>
	<path id="path4459" inkscape:connector-curvature="0" class="st1" d="M84.1,117.2c-4.1,1.8-2.5,7.7-5.8,9.4
		C81.1,123.1,79,118.2,84.1,117.2z"/>
	<path id="path4461" inkscape:connector-curvature="0" class="st1" d="M99.8,112.7c-9.3,3.9-4.7,9-3.4,10.1c-2-8.8,3.9-2,6.7-7.4
		c0.2,2,1.6,2.6,3,2.9c-2-3.9,1.6-4,2-9.1c3.8-2.9,1-5,0-7c0.4,1.8,2,4.2,0.2,5.4c0-2.5-2.1-3.5-2.6-6.1c-0.6,2.7,2.8,4.3,1.1,6.4
		c-1,1-0.2,1.5,0.7,1.6c-0.2,3.3-3.8,4.9-2.5,7.6c-1.9-0.4-0.5-3.2-2.3-4.3c-0.9,5.1-8.1,2-7.6,7.4C93.7,116.8,97,114.6,99.8,112.7
		L99.8,112.7z"/>
	<path id="path4463" inkscape:connector-curvature="0" class="st1" d="M115.7,111.1c3.3,4.2,1.1,10,7.2,11.7
		C117.4,119.8,120,114,115.7,111.1z"/>
	<path id="path4465" inkscape:connector-curvature="0" class="st1" d="M118.5,119.8c-0.6,1.7-2.5,3-0.4,5.8c0.2-2.6,1.2-3.3,2.2-4.3
		c-4.9,7.6,3.2,9.9,1.1,13.4c1.6-0.8,0.4-3.1,2.2-4.3c-0.1,1.8,0.7,3,1.8,3.9c-0.8-0.1-1.6-0.5-2-1.2c0,1.7-0.9,1.5-3,3.1
		c2.7-4-1.9-5-2.3-10.1C115.2,123.7,117.1,121.5,118.5,119.8L118.5,119.8z"/>
</g>
</svg>
