<?xml version="1.0" encoding="utf-8"?>
<!-- Generator: Adobe Illustrator 21.1.0, SVG Export Plug-In . SVG Version: 6.00 Build 0)  -->
<svg version="1.1" id="Layer_1" xmlns="http://www.w3.org/2000/svg" xmlns:xlink="http://www.w3.org/1999/xlink" x="0px" y="0px"
	 viewBox="0 0 200 200" style="enable-background:new 0 0 200 200;" xml:space="preserve">
<style type="text/css">
	.st0{fill:#E2001A;}
	.st1{fill:#FFE500;}
	.st2{fill:#3E3E40;}
	.st3{fill:#008BD0;}
	.st4{fill:#FFFFFF;}
	.st5{fill:#DE2225;}
</style>
<g>
	<polygon class="st0" points="34.9,100 100,0 165.1,100 100,200 	"/>
	<polygon class="st1" points="35.8,100 100,198.6 164.1,100 100,1.4 	"/>
	<path class="st2" d="M100.3,182.8l-0.3,0.5l-0.3-0.5c-1.9-3.2-3.2-6.9-3.7-11.1c-0.5-3.8-0.5-7.9,0.2-12.2
		c-1.4,0.8-2.7,1.4-3.9,1.9c-1.4,0.5-2.7,0.8-3.9,0.8c-3.5-0.1-5.6-1.9-7-4.3c-1.4-2.4-2-5.4-2.6-8l-0.1-0.5h0.5
		c3,0.1,5.5-0.7,7.6-1.8c2.4-1.4,4.1-3.3,5.2-5.4c0.9-1.7,1.3-3.7,1.3-5.3c0-1.7-0.5-3.1-1.3-3.5c-0.6-0.4-2-0.3-3.6,0.1
		c-1.4,0.4-3,1.1-4.1,2c-1.6,1.3-2.6,3-3.3,4.6c-0.7,1.7-1.1,3.3-1.3,4.4l-0.1,0.4l-0.4-0.1c-1-0.2-1.8-0.5-2.6-0.8
		c-3.4-1.3-5.4-3.3-6.4-5.6c-1-2.3-1-5-0.2-7.8c0.2-0.8,0.5-1.6,0.8-2.4c-2.2-0.6-4.1-1.7-5.5-3.6c-1.5-2.1-2.3-5.1-2.3-9.4l0-0.4
		h0.4h73.3h0.4l0,0.4c0.1,4.3-0.8,7.4-2.3,9.4c-1.4,2-3.3,3.1-5.5,3.6c0.3,0.8,0.6,1.6,0.8,2.4c0.7,2.8,0.8,5.5-0.2,7.8
		c-1,2.3-3,4.3-6.4,5.6c-0.8,0.3-1.7,0.6-2.6,0.8l-0.4,0.1l-0.1-0.4c-0.2-1.1-0.6-2.7-1.3-4.4c-0.7-1.6-1.7-3.3-3.3-4.6
		c-1.1-0.9-2.7-1.6-4.1-2c-1.6-0.4-3-0.5-3.6-0.1c-0.8,0.5-1.2,1.8-1.2,3.5c0,1.7,0.4,3.6,1.3,5.3c1.1,2.1,2.8,4,5.2,5.4
		c2,1.1,4.6,1.9,7.6,1.8h0.5l-0.1,0.5c-0.5,2.7-1.2,5.7-2.5,8c-1.4,2.5-3.6,4.2-7.1,4.3c-1.3,0-2.5-0.3-3.9-0.8
		c-1.2-0.5-2.5-1.1-3.9-1.9c0.7,4.3,0.7,8.4,0.2,12.2C103.5,175.8,102.2,179.6,100.3,182.8L100.3,182.8z"/>
	<path class="st3" d="M100,181.8c1.7-3,2.8-6.5,3.3-10.2c0.6-4,0.5-8.3-0.3-12.8l-0.1-0.8l0.7,0.4c1.7,1,3.2,1.7,4.5,2.3
		c1.3,0.5,2.5,0.8,3.6,0.8c3.2-0.1,5.1-1.7,6.4-3.9c1.2-2.2,1.9-4.9,2.4-7.4c-3,0-5.5-0.8-7.5-1.9c-2.5-1.4-4.4-3.5-5.5-5.7
		c-1-1.8-1.4-3.9-1.4-5.7c0-2,0.6-3.6,1.6-4.2c0.8-0.5,2.5-0.4,4.2,0c1.6,0.4,3.2,1.1,4.4,2.2c1.6,1.4,2.8,3.2,3.5,4.9
		c0.7,1.6,1,3,1.2,4.2c0.8-0.2,1.5-0.4,2.2-0.7c3.2-1.3,5.1-3.1,6-5.2c0.9-2.2,0.9-4.7,0.2-7.4c-0.2-0.9-0.5-1.8-0.9-2.7l-0.2-0.4
		l0.4-0.1c2.2-0.5,4.1-1.6,5.5-3.5c1.3-1.9,2.2-4.6,2.1-8.6H63.7c-0.1,4,0.8,6.7,2.1,8.6c1.4,1.9,3.3,2.9,5.5,3.5l0.4,0.1l-0.2,0.4
		c-0.4,0.9-0.7,1.8-0.9,2.7c-0.7,2.7-0.7,5.2,0.2,7.4c0.9,2.2,2.8,4,6,5.2c0.7,0.2,1.4,0.5,2.1,0.7c0.2-1.1,0.6-2.6,1.2-4.2
		c0.8-1.7,1.9-3.5,3.5-4.9c1.2-1,2.8-1.7,4.4-2.2c1.7-0.5,3.4-0.5,4.2,0c1,0.6,1.6,2.2,1.6,4.2c0,1.7-0.4,3.8-1.4,5.7
		c-1.1,2.2-3,4.3-5.5,5.7c-2,1.1-4.5,1.9-7.5,1.9c0.5,2.5,1.1,5.2,2.4,7.4c1.3,2.2,3.3,3.9,6.4,3.9c1.1,0.1,2.3-0.2,3.6-0.8
		c1.3-0.5,2.8-1.3,4.5-2.3l0.7-0.4l-0.1,0.8c-0.8,4.5-0.9,8.8-0.3,12.8C97.2,175.4,98.3,178.9,100,181.8L100,181.8z"/>
	<polygon class="st2" points="100,100.4 47.5,100.4 47.9,99.8 99.7,20.1 100,19.6 100.3,20.1 152.1,99.8 152.5,100.4 	"/>
	<polygon class="st3" points="100,99.6 151.1,99.6 100,21 48.9,99.6 	"/>
	<path d="M100,73.3c6.2,0,11.8,2.5,15.8,6.6c4.1,4.1,6.6,9.7,6.6,15.8c0,6.2-2.5,11.8-6.6,15.8c-4.1,4-9.7,6.6-15.8,6.6
		c-6.2,0-11.8-2.5-15.8-6.6c-4-4.1-6.6-9.6-6.6-15.8c0-6.2,2.5-11.8,6.6-15.8C88.2,75.9,93.8,73.3,100,73.3L100,73.3z"/>
	<path class="st4" d="M118.9,107.1v-9.3l3.1-0.7C121.8,100.7,120.7,104.1,118.9,107.1L118.9,107.1z M118.9,94v-9.5
		c2,3.3,3.1,7.2,3.1,11.3c0,0.4,0,0.8,0,1.2L118.9,94L118.9,94z M118.9,84.5V94l-1.2-1.2c-0.1-1.1-0.2-2-0.5-3
		c-0.2-0.7-0.5-1.4-0.8-2.1v-5.2l0.2-1.4C117.4,82.3,118.2,83.3,118.9,84.5L118.9,84.5z M118.9,97.8v9.3c-0.7,1.2-1.6,2.4-2.5,3.4
		V98.3L118.9,97.8L118.9,97.8z M116.4,94.5c0.2-0.3,0.4-0.7,0.6-1c0-1.3-0.2-2.5-0.4-3.5c-0.1-0.1-0.1-0.3-0.1-0.4V94.5L116.4,94.5z
		 M107,76.5l2.2-0.8c-0.7-0.3-1.4-0.6-2.2-0.8V76.5L107,76.5z M116.4,82.6v5.2c-0.2-0.4-0.4-0.7-0.5-1L116.4,82.6L116.4,82.6z
		 M116.4,89.7c-0.3-0.9-0.7-1.7-1.1-2.4c-2.6-1.8-4-2.4-6.8-2.3l-1.4,2.2v3.9l1.8,5.6l3.6,2.5c1.7-1.3,3-2.9,4-4.6L116.4,89.7
		L116.4,89.7z M116.4,98.3v12.2c-0.2,0.3-0.5,0.6-0.8,0.8c-2.4,2.4-5.3,4.2-8.6,5.3V98.8l1.7-1.4l4,2.8l0.4-0.6l-0.7-0.5L116.4,98.3
		L116.4,98.3z M107,85.7v-3.2c0.4,0.6,0.6,1.3,0.8,1.9L107,85.7L107,85.7z M100,73.7c-1.7,0-3.3,0.2-4.9,0.6V76l2.9,1.5l6,0.2l3-1.1
		v-1.7C104.8,74.1,102.4,73.7,100,73.7L100,73.7z M107,82.5v3.2l-1.5,2.3h-8.8c-0.5-0.8-1.1-1.6-1.7-2.5V82c0.8-1.4,2-2.6,3.3-3.7
		l5,0.1C104.7,79.6,106.1,80.9,107,82.5L107,82.5z M107,87.2l-0.8,1.3l0.8,2.6V87.2L107,87.2z M107,98.8v17.8
		c-2.2,0.7-4.6,1.1-7,1.1c-1.7,0-3.3-0.2-4.9-0.6V98.7l5.7,5.4L107,98.8L107,98.8z M95,91.2l1-2.9c-0.3-0.5-0.6-1-1-1.4V91.2
		L95,91.2z M95,74.3c-0.7,0.2-1.4,0.4-2.1,0.6L95,76V74.3L95,74.3z M95,82v3.6c-0.2-0.3-0.4-0.6-0.6-0.9c-0.1-0.2-0.2-0.3-0.3-0.5
		C94.3,83.4,94.7,82.6,95,82L95,82z M95,86.9c-0.4-0.6-0.8-1.2-1.2-1.8c-0.1-0.2-0.2-0.3-0.3-0.5c-2.8,0.1-5.7,0.3-8.4,1
		c-0.3,0.8-0.5,1.7-0.8,2.5c-0.4,1.5-0.7,2.9-0.8,4.4c1.8,2.4,3.4,4.2,4.9,5.5l4.9-1.6l1.7-5.2L95,86.9L95,86.9z M95,98.7l-1.6-1.5
		l-4.9,1.6l-0.9,1.9l-9.5-2.8l4.6-5.4c0.1-1.5,0.5-3,0.9-4.6c0.2-0.9,0.5-1.7,0.8-2.6l-1.5-3.4c-3.1,3.8-5,8.6-5,13.9
		c0,6.1,2.5,11.6,6.5,15.6c2.9,2.9,6.6,5,10.6,5.9L95,98.7L95,98.7z"/>
	<path class="st5" d="M100,99.4c-16.9-0.1-30.6-2.3-51.5-18.8c0.3,4.6,0.7,9.2,1.5,14.1l-13.3,4c16.5,17.8,40.2,24,63.3,24
		c23.1-0.1,46.8-6.3,63.3-24l-13.3-4c0.8-4.9,1.2-9.5,1.5-14.1C130.6,97.1,116.9,99.3,100,99.4L100,99.4z"/>
	<path class="st1" d="M100,60.3c2,1.9,3.8,9,0,9C96.1,69.4,98,62.3,100,60.3L100,60.3z"/>
	<path class="st1" d="M93.2,61c2.4,1.5,5.5,8.2,1.7,8.9C91.1,70.6,91.7,63.3,93.2,61L93.2,61z"/>
	<path class="st1" d="M86.7,62.9c2.6,1.1,6.9,7,3.4,8.4C86.5,72.8,85.6,65.5,86.7,62.9L86.7,62.9z"/>
	<path class="st1" d="M80.7,66c2.8,0.5,8.1,5.5,4.9,7.6C82.3,75.8,80.1,68.8,80.7,66L80.7,66z"/>
	<path class="st1" d="M75.4,70.3c2.8,0,9,3.9,6.3,6.5C78.8,79.5,75.3,73.1,75.4,70.3L75.4,70.3z"/>
	<path class="st1" d="M70.9,75.4c2.8-0.5,9.6,2,7.4,5.2C76.1,83.9,71.4,78.2,70.9,75.4L70.9,75.4z"/>
	<path class="st1" d="M67.6,81.4c2.6-1.1,9.8,0.2,8.3,3.7C74.3,88.6,68.6,84,67.6,81.4L67.6,81.4z"/>
	<path class="st1" d="M65.4,87.8c2.4-1.5,9.7-1.7,8.8,2C73.4,93.7,66.9,90.2,65.4,87.8L65.4,87.8z"/>
	<path class="st1" d="M106.7,61c1.6,2.3,2,9.6-1.7,8.9C101.2,69.1,104.4,62.5,106.7,61L106.7,61z"/>
	<path class="st1" d="M113.3,62.9c1.1,2.6,0.2,9.8-3.4,8.4C106.2,69.8,110.7,64,113.3,62.9L113.3,62.9z"/>
	<path class="st1" d="M119.3,66c0.7,2.8-1.7,9.7-4.9,7.6C111.1,71.5,116.5,66.6,119.3,66L119.3,66z"/>
	<path class="st1" d="M124.6,70.3c0.1,2.8-3.5,9.2-6.3,6.5C115.5,74.1,121.8,70.3,124.6,70.3L124.6,70.3z"/>
	<path class="st1" d="M129,75.4c-0.4,2.8-5.2,8.3-7.4,5.2C119.4,77.4,126.3,74.9,129,75.4L129,75.4z"/>
	<path class="st1" d="M132.4,81.4c-1,2.7-6.7,7.2-8.3,3.7C122.5,81.5,129.8,80.3,132.4,81.4L132.4,81.4z"/>
	<path class="st1" d="M134.5,87.8c-1.4,2.4-8,5.8-8.8,2C124.8,86,132.2,86.3,134.5,87.8L134.5,87.8z"/>
	<path class="st1" d="M94.8,104.1c-2-0.1-3.1-0.5-3.1-1.7c-0.1-0.9,0.5-1.3,1.1-1.3c0.4,0,0.8,0.3,0.8,0.9c0,0.3-0.1,0.7,0.1,1
		c0.2,0.3,0.6,0.4,1.1,0.4c0.5,0.1,0.9,0.1,1.1-0.2c0.2-0.3,0.1-0.7,0.3-1c0.1-0.3,0.4-0.6,0.9-0.5c0.6,0,1,0.4,0.9,1.2
		C97.9,103.9,97,104.1,94.8,104.1L94.8,104.1z"/>
	<path class="st1" d="M143.1,93.3l1.8,3.2l-0.3,0.2c-0.6-0.6-1.1-1-1.5-1.2c-0.4-0.2-0.9-0.3-1.4-0.3c-0.3,0-0.7,0.2-1.2,0.5
		l-0.9,0.5l5.1,9.1c0.3,0.6,0.6,1,0.7,1.1c0.1,0.1,0.4,0.2,0.6,0.2c0.3,0,0.6-0.1,0.9-0.3l0.4-0.2l0.2,0.3l-6.2,3.4l-0.2-0.3
		l0.4-0.2c0.4-0.2,0.6-0.4,0.7-0.6c0.1-0.2,0.1-0.4,0.1-0.6c0-0.2-0.2-0.5-0.5-1.1l-5.1-9.1l-0.9,0.5c-0.8,0.4-1.3,0.9-1.4,1.4
		c-0.2,0.8-0.2,1.6,0.2,2.6l-0.3,0.2l-1.8-3.2L143.1,93.3L143.1,93.3z"/>
	<path class="st1" d="M128.9,110.6l-4.6,1.2l-0.2,1.4c-0.1,0.5-0.1,0.8,0,1.1c0.1,0.4,0.3,0.6,0.7,0.7c0.2,0.1,0.7,0,1.3-0.1
		l0.1,0.3l-4.3,1.2l-0.1-0.4c0.5-0.2,0.8-0.5,1-0.9c0.2-0.4,0.4-1.1,0.6-2.3l1.9-11.6l0.2,0l7.6,9.4c0.7,0.9,1.3,1.4,1.6,1.6
		c0.3,0.2,0.6,0.2,1,0.1l0.1,0.4l-6.3,1.7l-0.1-0.4l0.3-0.1c0.5-0.1,0.8-0.3,1-0.5c0.1-0.1,0.1-0.3,0.1-0.5c0-0.1-0.1-0.2-0.1-0.4
		c0-0.1-0.2-0.2-0.5-0.6L128.9,110.6L128.9,110.6z"/>
	<polygon class="st5" points="128.4,109.9 125.2,106 124.4,111 	"/>
	<path class="st1" d="M111.4,111.7l0.3,3.7c0.1,0.7,0.1,1.2,0.2,1.4c0.1,0.2,0.3,0.3,0.5,0.4c0.2,0.1,0.7,0.1,1.3,0.1l0,0.4
		l-6.8,0.6l0-0.4c0.6-0.1,1-0.2,1.3-0.3c0.2-0.1,0.4-0.3,0.4-0.5c0.1-0.2,0.1-0.7,0-1.4l-0.8-8.7c-0.1-0.7-0.2-1.2-0.2-1.4
		c-0.1-0.2-0.3-0.3-0.5-0.4c-0.2-0.1-0.7-0.1-1.3-0.1l0-0.4l5.9-0.5c1.9-0.2,3.3,0.1,4.2,0.7c0.9,0.6,1.4,1.4,1.5,2.5
		c0.1,0.9-0.1,1.6-0.6,2.3c-0.5,0.7-1.2,1.2-2.1,1.5C114,111.4,112.9,111.6,111.4,111.7L111.4,111.7z"/>
	<path class="st5" d="M110.8,105.2l0.5,5.8c0.2,0,0.4,0,0.5,0c0.8-0.1,1.4-0.4,1.8-0.9c0.4-0.5,0.5-1.3,0.5-2.3
		c-0.1-1-0.4-1.7-0.8-2.1c-0.5-0.4-1.1-0.6-2-0.5L110.8,105.2L110.8,105.2z"/>
	<path class="st1" d="M76.9,112.1l-4.6-1.1l-0.9,1.1c-0.3,0.4-0.5,0.7-0.5,1c-0.1,0.4,0,0.7,0.2,0.9c0.1,0.2,0.5,0.3,1.2,0.6
		l-0.1,0.4l-4.3-1.1l0.1-0.4c0.5,0,0.9-0.1,1.3-0.3c0.4-0.2,0.9-0.8,1.6-1.7l7.3-9.3l0.2,0l2.1,11.9c0.2,1.1,0.4,1.9,0.6,2.2
		c0.2,0.2,0.4,0.4,0.8,0.6l-0.1,0.4l-6.3-1.6l0.1-0.4l0.3,0.1c0.5,0.1,0.9,0.2,1.1,0.1c0.2-0.1,0.3-0.2,0.3-0.4c0-0.1,0.1-0.2,0-0.4
		c0-0.1,0-0.3-0.1-0.8L76.9,112.1L76.9,112.1z"/>
	<polygon class="st5" points="76.7,111.4 75.9,106.4 72.7,110.4 	"/>
	<path class="st1" d="M92,114.2l5-7.2c0-0.7,0-1.1-0.1-1.3c-0.1-0.2-0.2-0.3-0.4-0.5c-0.2-0.1-0.5-0.2-0.9-0.2h-0.4l0-0.4l7,0.2
		l0,0.4l-0.4,0c-0.4,0-0.7,0.1-1,0.2c-0.2,0.1-0.3,0.2-0.4,0.5c-0.1,0.2-0.1,0.6-0.2,1.3l-0.3,8.9c0,0.7,0,1.1,0.1,1.3
		c0.1,0.2,0.2,0.3,0.4,0.5c0.2,0.1,0.5,0.2,0.9,0.2h0.4v0.4l-7.1-0.2l0-0.4l0.4,0c0.4,0,0.7-0.1,1-0.2c0.2-0.1,0.3-0.2,0.4-0.5
		c0.1-0.1,0.1-0.6,0.2-1.3l0.2-7.4l-5,7.2l0,0.1c0,0.7,0,1.1,0.1,1.3c0.1,0.2,0.2,0.3,0.4,0.5c0.2,0.1,0.5,0.2,0.9,0.2l0.4,0l0,0.4
		l-7.1-0.2l0-0.4l0.4,0c0.4,0,0.7-0.1,1-0.2c0.2-0.1,0.3-0.2,0.4-0.5c0.1-0.2,0.1-0.6,0.2-1.3l0.3-8.9c0-0.7,0-1.1-0.1-1.3
		c-0.1-0.2-0.2-0.4-0.4-0.5c-0.2-0.1-0.5-0.2-0.9-0.2h-0.4v-0.4l7.1,0.2l0,0.4l-0.4,0c-0.4,0-0.7,0.1-1,0.2
		c-0.2,0.1-0.3,0.2-0.4,0.5c-0.1,0.1-0.1,0.6-0.1,1.2L92,114.2L92,114.2z"/>
	<path class="st1" d="M60.9,101.5l1.5,7.4c0.2,1.1,0.5,1.8,0.8,2.3c0.2,0.4,0.5,0.6,0.8,0.8l-0.2,0.3l-6.3-3.2l0.2-0.3
		c0.4,0.2,0.7,0.2,0.8,0.2c0.2,0,0.3-0.1,0.4-0.2c0.1-0.2,0.1-0.9-0.1-1.8l-1-4.9l-0.7,0.2l-1.7,3.3c-0.3,0.6-0.5,1-0.5,1.2
		c0,0.2,0.1,0.4,0.2,0.6c0.1,0.2,0.4,0.4,0.9,0.7l-0.2,0.3l-6.1-3.1l0.2-0.3l0.4,0.2c0.3,0.2,0.7,0.3,0.9,0.2c0.2,0,0.4-0.1,0.6-0.2
		c0.1-0.1,0.4-0.5,0.7-1l4-7.9c0.3-0.6,0.5-1,0.5-1.2c0-0.2-0.1-0.4-0.2-0.6c-0.1-0.2-0.4-0.4-0.7-0.6l-0.4-0.2l0.2-0.3l6,3.1
		l-0.2,0.3c-0.4-0.2-0.7-0.3-1-0.3c-0.2,0-0.4,0.1-0.6,0.2c-0.1,0.1-0.4,0.5-0.7,1.1l-1.9,3.7l6.3-1.3c0.9-0.2,1.4-0.4,1.6-0.7
		c0.1-0.2,0.1-0.5-0.1-0.7c-0.1-0.1-0.4-0.3-0.9-0.6l0.2-0.3l4.7,2.4l-0.2,0.3c-0.4-0.2-0.8-0.3-1.1-0.3c-0.3,0-1.1,0.1-2.3,0.4
		L60.9,101.5L60.9,101.5z"/>
</g>
</svg>
