<?xml version="1.0" encoding="utf-8"?>
<!-- Generator: Adobe Illustrator 21.1.0, SVG Export Plug-In . SVG Version: 6.00 Build 0)  -->
<svg version="1.1" id="Layer_1" xmlns="http://www.w3.org/2000/svg" xmlns:xlink="http://www.w3.org/1999/xlink" x="0px" y="0px"
	 viewBox="0 0 200 200" style="enable-background:new 0 0 200 200;" xml:space="preserve">
<style type="text/css">
	.st0{fill-rule:evenodd;clip-rule:evenodd;fill:#51514E;}
	.st1{fill-rule:evenodd;clip-rule:evenodd;fill:#008B53;}
	.st2{fill-rule:evenodd;clip-rule:evenodd;fill:#4D4D4B;}
	.st3{fill-rule:evenodd;clip-rule:evenodd;fill:#FFFFFF;}
	.st4{fill-rule:evenodd;clip-rule:evenodd;fill:#FBFFFF;}
	.st5{fill-rule:evenodd;clip-rule:evenodd;fill:#008A55;}
	.st6{fill-rule:evenodd;clip-rule:evenodd;fill:#525250;}
	.st7{fill-rule:evenodd;clip-rule:evenodd;fill:#7E8284;}
	.st8{fill-rule:evenodd;clip-rule:evenodd;fill:#6D7374;}
	.st9{fill-rule:evenodd;clip-rule:evenodd;fill:#5D6465;}
	.st10{fill-rule:evenodd;clip-rule:evenodd;fill:#4C5555;}
	.st11{fill-rule:evenodd;clip-rule:evenodd;fill:#A9ACAD;}
	.st12{fill-rule:evenodd;clip-rule:evenodd;fill:#D4D5D6;}
	.st13{fill-rule:evenodd;clip-rule:evenodd;fill:#E4002C;}
	.st14{fill-rule:evenodd;clip-rule:evenodd;fill:#F9665C;}
	.st15{fill-rule:evenodd;clip-rule:evenodd;fill:#90CFA8;}
</style>
<g>
	<path class="st0" d="M128.5,38.3c-0.7,0.5-1.4,0.9-2.3,0.8l-1.4,0.7l-0.9-1.9c-0.4-0.9-0.4-1.9,0.1-2.7c0,0,0-0.1-0.1-0.1
		c-0.2-0.5-0.8-0.9-1.2-1.2c-2.2-1.5-3.4-3.8-3.9-6.3c-0.6-3.1,0.4-6,2.3-8.5c2.2-2.8,4.9-3.9,8.4-3.7c1.9,0.1,3.4,0.7,5.2,1.1
		c1.2,0.3,2.5-0.3,3.5-0.9c0.9-0.6,2.9-2.5,3.8-1.8c1,0.7-0.1,3.2-0.3,4.2c-0.4,2.1,0.1,3.4,1.4,5.2c1.7,2.2,2.9,4.8,2.7,7.7
		c-0.1,2-1,3.7-2.2,5.2c-2.9,3.5-6.8,5.3-11.3,4C131,39.7,129.7,39.3,128.5,38.3L128.5,38.3z"/>
	<path class="st1" d="M139.4,17.4c0.2-0.2,0.4-0.1,0.3,0.3c-0.4,2.2-0.2,4.1,1.8,6.8c2.7,3.7,3.3,7.1,0.6,10.3
		c-2.7,3.3-5.9,4.3-9.1,3.3c-1.1-0.3-2.3-0.7-3.2-1.4c-0.7-0.6-1.6-0.8-2.2-0.4c-0.4,0.3-0.7,0.7-1.2,0.7c-0.3-0.1-0.5-0.1-0.7,0
		c-0.1-0.3-0.1-0.5,0-0.7c0.5-0.6,0.3-1.3,0-2.1c-0.4-0.8-1.1-1.4-1.9-1.9c-1.8-1.2-2.6-3.1-3-5c-0.5-2.4,0.3-4.7,1.9-6.8
		c2-2.6,4.3-3.1,6.6-2.9c1.8,0.1,3.4,0.7,4.9,1C135.7,18.9,137.5,18.6,139.4,17.4L139.4,17.4z"/>
	<path class="st2" d="M135.6,22.6c-0.3-0.2-0.5-0.1-0.7,0.2c-1.3,1.9-2.8,3.8-4.2,5.7c-0.3,0.4-0.4,0.2-0.5-0.1
		c-0.2-2-0.8-3.7-1.7-5.2c-0.2-0.3-0.4-0.4-0.7-0.4c-0.4,0.1-0.7,0.2-1,0.5c-0.2,0.2-0.1,0.5,0,0.9c1.1,2.8,1.7,5.8,1.3,9
		c-0.1,0.4,0,0.4,0.3,0.2c2.6-1.3,5.6-2,9.2-1.9c0.4,0,0.7-0.1,0.8-0.3c0.3-0.3,0.3-0.5,0.3-0.8c0.1-0.4-0.2-0.7-0.6-0.8
		c-1.8-0.2-3.7-0.1-5.6,0.4c-0.6,0.2-0.7,0-0.4-0.4c1.4-2,2.8-3.9,4.2-5.9c0.2-0.2,0.1-0.5-0.1-0.7L135.6,22.6z"/>
	<path class="st0" d="M119.2,31.6c-0.5,0.7-1,1.3-1.9,1.4l-1.1,1.1l-1.5-1.5c-0.7-0.7-1-1.6-0.8-2.6c0,0-0.1-0.1-0.1-0.1
		c-0.4-0.4-1.1-0.6-1.6-0.7c-2.6-0.7-4.4-2.5-5.7-4.8c-1.6-2.7-1.5-5.8-0.5-8.8c1.2-3.4,3.4-5.3,6.8-6.2c1.8-0.5,3.5-0.4,5.3-0.6
		c1.2-0.1,2.3-1.1,3.1-2c0.7-0.9,2-3.3,3-2.9c1.2,0.3,0.9,3.1,1,4.1c0.3,2.2,1.2,3.2,3,4.5c2.3,1.6,4.3,3.7,5,6.4
		c0.5,1.9,0.3,3.8-0.4,5.6c-1.6,4.3-4.8,7.2-9.5,7.3C122,32.1,120.6,32.1,119.2,31.6L119.2,31.6z"/>
	<path class="st1" d="M122.8,8.3c0.2-0.2,0.4-0.2,0.4,0.1c0.3,2.3,1.1,4,3.9,5.9c3.8,2.6,5.3,5.7,3.9,9.6c-1.5,4-4.2,5.9-7.6,6
		c-1.2,0-2.4,0.1-3.5-0.3c-0.9-0.3-1.8-0.3-2.2,0.4c-0.3,0.4-0.4,0.9-0.9,1c-0.3,0-0.5,0.1-0.6,0.2c-0.2-0.2-0.3-0.5-0.2-0.7
		c0.3-0.8-0.1-1.4-0.7-1.9c-0.7-0.7-1.5-1-2.4-1.2c-2.1-0.6-3.5-2.1-4.5-3.8c-1.2-2.1-1.2-4.5-0.3-7c1.1-3.1,3.1-4.3,5.4-4.9
		c1.7-0.5,3.4-0.4,4.9-0.6C119.8,10.9,121.4,10,122.8,8.3L122.8,8.3z"/>
	<path class="st2" d="M120.9,14.4c-0.3-0.1-0.5,0.1-0.6,0.4c-0.7,2.2-1.5,4.5-2.1,6.8c-0.2,0.5-0.3,0.3-0.5,0.1
		c-0.9-1.8-2-3.3-3.2-4.4c-0.3-0.3-0.5-0.3-0.8-0.1c-0.3,0.2-0.6,0.4-0.8,0.8c-0.1,0.3,0,0.5,0.3,0.8c1.9,2.3,3.4,5,4.1,8.2
		c0.1,0.4,0.1,0.4,0.4,0.1c2.1-2,4.7-3.7,8.1-4.7c0.4-0.1,0.6-0.3,0.7-0.5c0.1-0.4,0.1-0.6,0.1-0.9c-0.1-0.4-0.5-0.6-0.8-0.5
		c-1.7,0.4-3.5,1-5.2,2.1c-0.5,0.3-0.6,0.2-0.5-0.2c0.7-2.3,1.5-4.6,2.2-6.9c0.1-0.3-0.1-0.5-0.3-0.6L120.9,14.4z"/>
	<path class="st0" d="M77.2,34.4c0.3,0.8,0.4,1.6,0.1,2.4l0.3,1.6l-2.1,0.3c-1,0.2-1.9-0.2-2.5-0.9c-0.1,0-0.1,0-0.1,0
		c-0.5,0.1-1.1,0.5-1.5,0.8c-2.1,1.6-4.6,2.1-7.2,1.8c-3.1-0.3-5.6-2.2-7.4-4.7c-2-2.9-2.3-5.9-1-9.1c0.7-1.7,1.7-3.1,2.6-4.6
		c0.6-1.1,0.5-2.5,0.2-3.6c-0.3-1.1-1.5-3.5-0.6-4.2c1-0.7,3,1.1,3.9,1.6c1.9,1,3.3,0.9,5.4,0.2c2.6-0.9,5.5-1.3,8.2-0.3
		c1.8,0.7,3.2,2,4.3,3.7c2.5,3.8,3,8.1,0.4,12C79.2,32.4,78.4,33.6,77.2,34.4L77.2,34.4z"/>
	<path class="st1" d="M60.4,17.8c-0.1-0.3,0-0.4,0.4-0.3c2,1.1,3.9,1.4,7.1,0.3c4.3-1.5,7.7-1,10.1,2.5c2.4,3.6,2.3,6.9,0.4,9.7
		c-0.7,1-1.3,2-2.3,2.6c-0.8,0.5-1.3,1.3-1,2c0.2,0.4,0.5,0.9,0.3,1.3c-0.2,0.3-0.2,0.5-0.2,0.7c-0.3,0.1-0.5,0-0.7-0.3
		c-0.4-0.7-1.2-0.7-2-0.6c-0.9,0.2-1.7,0.7-2.4,1.2c-1.7,1.3-3.7,1.6-5.7,1.4c-2.4-0.3-4.4-1.6-5.9-3.9c-1.9-2.7-1.6-5-0.8-7.2
		c0.6-1.7,1.7-3,2.5-4.3C60.8,21.7,61,19.9,60.4,17.8L60.4,17.8z"/>
	<path class="st2" d="M64.3,22.9c-0.3,0.2-0.2,0.4,0,0.7c1.4,1.8,2.8,3.9,4.2,5.7c0.3,0.4,0.1,0.5-0.2,0.4c-2-0.4-3.8-0.3-5.4,0
		c-0.4,0.1-0.5,0.2-0.5,0.5c-0.1,0.4,0,0.7,0.2,1.1c0.2,0.3,0.4,0.3,0.9,0.3c3-0.2,6,0.2,9,1.5c0.4,0.2,0.4,0.1,0.3-0.3
		c-0.4-2.9-0.2-5.9,0.9-9.3c0.1-0.4,0.1-0.7,0-0.9c-0.2-0.3-0.4-0.4-0.7-0.6c-0.4-0.2-0.8,0-0.9,0.3c-0.7,1.6-1.2,3.5-1.3,5.4
		c0,0.6-0.2,0.7-0.5,0.3c-1.5-1.9-2.9-3.9-4.3-5.8c-0.2-0.2-0.5-0.3-0.7-0.1L64.3,22.9z"/>
	<path class="st0" d="M86.5,30c0,0.9-0.2,1.6-0.8,2.2l-0.3,1.6l-2-0.4c-0.9-0.2-1.7-0.8-2-1.7c-0.1,0-0.1,0-0.1,0
		c-0.5-0.1-1.2,0.1-1.7,0.2c-2.5,0.8-5,0.2-7.4-1c-2.8-1.5-4.4-4.1-5.1-7.1c-0.8-3.5,0-6.3,2.4-8.9c1.3-1.4,2.7-2.2,4.1-3.4
		c1-0.8,1.4-2.2,1.5-3.3c0.1-1.1-0.1-3.8,1-4.1C77,3.7,78.3,6.1,79,6.9c1.4,1.7,2.8,2.1,4.9,2.1c2.8,0.1,5.6,0.8,7.7,2.7
		c1.4,1.3,2.3,3.1,2.7,5c0.9,4.5-0.1,8.6-4,11.3C89.1,28.9,87.9,29.6,86.5,30L86.5,30z"/>
	<path class="st1" d="M77,8.4c0-0.3,0.2-0.4,0.4-0.1c1.5,1.7,3.1,2.7,6.5,2.9c4.6,0.2,7.6,1.9,8.4,6c0.9,4.2-0.4,7.2-3.1,9.1
		c-1,0.7-2,1.4-3.1,1.6c-0.9,0.2-1.7,0.7-1.7,1.5c0,0.5,0.1,1-0.2,1.3c-0.3,0.2-0.4,0.4-0.4,0.5c-0.3-0.1-0.5-0.2-0.6-0.5
		c-0.2-0.8-0.8-1.1-1.6-1.3c-0.9-0.2-1.8,0-2.7,0.3c-2.1,0.6-4,0.1-5.8-0.8c-2.1-1.1-3.5-3.1-4.1-5.7c-0.8-3.2,0.3-5.3,1.9-7
		c1.2-1.3,2.6-2.2,3.9-3.1C75.9,12.2,76.7,10.6,77,8.4L77,8.4z"/>
	<path class="st2" d="M78.7,14.5c-0.3,0.1-0.4,0.3-0.3,0.6c0.6,2.2,1.2,4.6,1.8,6.8c0.1,0.5-0.1,0.5-0.4,0.3c-1.7-1.1-3.4-1.7-5.1-2
		c-0.4-0.1-0.6,0-0.7,0.3c-0.2,0.3-0.3,0.6-0.2,1.1c0.1,0.3,0.3,0.4,0.7,0.6c2.8,0.9,5.5,2.3,7.8,4.7c0.3,0.3,0.3,0.3,0.4-0.1
		c0.7-2.8,2-5.6,4.3-8.3c0.2-0.3,0.3-0.6,0.3-0.8c-0.1-0.4-0.2-0.6-0.4-0.8c-0.3-0.3-0.7-0.3-1,0c-1.2,1.3-2.4,2.8-3.2,4.6
		c-0.2,0.6-0.4,0.5-0.6,0.1c-0.7-2.3-1.2-4.7-1.9-7c-0.1-0.3-0.3-0.4-0.6-0.4L78.7,14.5z"/>
	<path class="st0" d="M103,27.8c-0.2,0.8-0.6,1.5-1.4,1.9l-0.7,1.4l-1.8-1c-0.9-0.4-1.4-1.3-1.5-2.2c0,0-0.1-0.1-0.1-0.1
		c-0.5-0.2-1.2-0.2-1.7-0.2c-2.7,0.1-4.9-1.1-6.8-2.8c-2.3-2.1-3.2-5.1-3.1-8.2c0.1-3.6,1.7-6.1,4.6-7.9c1.6-1,3.2-1.5,4.9-2.2
		c1.1-0.5,1.9-1.7,2.3-2.8c0.4-1,0.9-3.7,2-3.7c1.2,0,1.8,2.6,2.2,3.6c0.9,2,2.1,2.7,4.2,3.4c2.6,0.8,5.2,2.2,6.7,4.6
		c1,1.7,1.4,3.6,1.3,5.5c-0.3,4.6-2.4,8.3-6.8,9.8C105.9,27.4,104.5,27.9,103,27.8L103,27.8z"/>
	<path class="st1" d="M99.5,4.5c0.1-0.3,0.3-0.3,0.4,0c1,2.1,2.3,3.5,5.5,4.5c4.4,1.4,6.8,3.8,6.6,8c-0.3,4.3-2.2,6.9-5.4,8
		c-1.1,0.4-2.2,0.8-3.4,0.7c-0.9-0.1-1.8,0.3-2,1c-0.1,0.4-0.1,1-0.6,1.2c-0.3,0.1-0.5,0.2-0.6,0.4c-0.3-0.1-0.4-0.4-0.4-0.6
		c0-0.8-0.5-1.3-1.2-1.6c-0.8-0.4-1.7-0.5-2.7-0.4c-2.1,0-3.9-0.9-5.4-2.3c-1.8-1.6-2.5-3.9-2.4-6.6c0.1-3.3,1.7-5,3.7-6.2
		c1.5-0.9,3.1-1.4,4.5-2C97.5,7.9,98.7,6.5,99.5,4.5L99.5,4.5z"/>
	<path class="st2" d="M99.6,10.8c-0.4,0-0.4,0.2-0.4,0.5c0,2.3-0.1,4.8,0,7.1c0,0.5-0.2,0.4-0.5,0.2c-1.4-1.5-2.9-2.5-4.4-3.2
		c-0.3-0.2-0.6-0.1-0.8,0.1c-0.3,0.3-0.4,0.5-0.5,1c0,0.3,0.2,0.5,0.5,0.7c2.5,1.6,4.7,3.7,6.3,6.6c0.2,0.4,0.2,0.3,0.4,0
		c1.4-2.6,3.4-4.9,6.3-6.9c0.3-0.2,0.5-0.5,0.5-0.7c0-0.4-0.1-0.6-0.2-0.9c-0.2-0.4-0.6-0.5-0.9-0.3c-1.5,0.9-3.1,2.1-4.3,3.6
		c-0.4,0.5-0.6,0.4-0.6-0.1c-0.1-2.4,0-4.8,0-7.2c0-0.3-0.2-0.5-0.5-0.5L99.6,10.8z"/>
	<path class="st3" d="M76.4,179.9c0.7-0.7,1-1.1,1.8-1.9c0.6-0.7,2.5-0.9,3.4,0.1c0.5,0.5,0.9,1.1,1.3,1.6c1,1.2,2.3,1.6,3.6,1.6
		c1.5,0,2.8-0.4,3.8-1.6c1-1.2,1.6-2.4,2.9-2.3c1.7,0.1,2.4,1.2,3.3,2.3c1,1.2,2.3,1.6,3.7,1.6c1.8,0,3.3-0.8,4.2-2.3
		c0.7-1,1.5-1.6,2.2-1.6c0.9,0,1.7,0.3,2.5,1.3c1.1,1.3,2.1,2.6,4.5,2.6c2.1,0,3.5-1.1,4.7-2.9c0.4-0.6,1.1-1,1.8-1
		c1.6,0,2.6,1.1,3.6,2.5l-2.1,1.6c-0.3-0.4-0.6-0.8-0.9-1.2c-0.2-0.3-0.5-0.4-0.8,0c-1.5,2.1-3.7,3.4-6.4,3.5
		c-2.7,0-4.6-1.1-6.4-3.5c-0.2-0.3-0.5-0.2-0.7,0c-1.7,2.4-3.9,3.5-6.4,3.5c-3,0-5.2-1.4-6.3-3.3c-0.3-0.5-0.6-0.6-0.9-0.1
		c-1.6,2.3-3.7,3.4-6.3,3.4c-2.9,0-5-1.3-6.5-3.5c-0.2-0.3-0.5-0.4-0.8,0c-0.3,0.4-0.6,0.7-0.9,1.1C77.8,181,77.1,180.4,76.4,179.9
		L76.4,179.9z"/>
	<path class="st3" d="M85.4,186.1l7,4.6c0.9,0.6,2.2,0.7,3.5,0.1c1.7-0.7,3-1.8,4.1-3.1c0.3-0.4,0.7-0.4,1,0
		c1.2,1.7,3.1,3.4,5.5,3.4c0.5,0,1-0.1,1.4-0.3l7.6-5c0.3-0.2,0-0.5-0.3-0.7c-0.3-0.3-0.8-0.5-1.4-0.4c-0.8,0-1.8,0.7-2.3,1.4
		c-1.1,1.6-2.8,2.5-4.2,2.5c-1.3,0-2.6-0.2-3.5-1.3c-0.9-1.1-2.2-2.7-3.2-2.6c-1.3,0.1-2.1,0.8-2.7,1.6c-1.2,1.5-2.5,2.2-4,2.2
		c-1.7,0-3-0.4-4.1-1.8c-0.9-1.1-1.7-2-2.7-2C85.4,184.7,84.8,185.7,85.4,186.1L85.4,186.1z"/>
	<path class="st0" d="M92.9,60.4V53h4.5v-3.5h-4.5v-4.2h4.8v-3.5h-8.2v18.6H92.9z M106.8,49.8l4.2-8h-4l-2.6,6
		c-0.3,0.7-0.6,1.5-0.9,2.2h-0.1v-8.2H100v18.6h3.4v-5.9l1-1.7l2.8,7.7h3.9L106.8,49.8z"/>
	<path class="st0" d="M56.6,57.3h-3.3v0l0.8-0.7c1.2-1.1,2.3-2.3,2.3-3.8c0-1.5-1-2.7-3.1-2.7c-1.1,0-2.2,0.4-2.8,0.8l0.6,1.5
		c0.4-0.3,1.1-0.6,1.7-0.6c0.9,0,1.4,0.6,1.4,1.2c0,1.1-1,2.1-2.7,3.7l-1.1,1.1V59h6.1V57.3z M61,59.2c2.1,0,3.3-1.7,3.3-4.6
		c0-2.2-0.7-4.5-3.2-4.5c-2.3,0-3.3,2.1-3.3,4.6C57.7,56.9,58.5,59.2,61,59.2L61,59.2z M61,57.5c-0.7,0-1.1-0.9-1.1-2.9
		c0-2,0.4-2.9,1.1-2.9c0.7,0,1,1,1,2.9C62,57,61.6,57.5,61,57.5L61,57.5z"/>
	<path class="st0" d="M140.6,59v-8.6h-1.9l-2.4,1.1l0.5,1.4l1.6-0.8h0V59H140.6z M148.7,57h1v-1.5h-1v-5.1h-2.5l-3.2,5.3V57h3.7v2h2
		V57z M144.9,55.4l1-1.8c0.3-0.5,0.5-1,0.8-1.5h0c0,0.5-0.1,1.1-0.1,1.6v1.8L144.9,55.4L144.9,55.4z"/>
	<path class="st3" d="M89.4,60.4V41.8h8.2v3.5h-4.8v4.2h4.5V53h-4.5v7.4H89.4z M100,60.4V41.8h3.4V50h0.1c0.3-0.7,0.6-1.5,0.9-2.2
		l2.6-6h4l-4.2,8l4.3,10.6h-3.9l-2.8-7.7l-1,1.7v5.9H100z M138.5,59v-6.9h0l-1.6,0.8l-0.5-1.4l2.4-1.1h1.9V59H138.5z M146.7,59v-2
		H143v-1.3l3.2-5.3h2.5v5.1h1V57h-1v2H146.7z M37.5,38.3l0,90.6c0.3,14.9,14.1,31.3,35.6,48.5c0.4,0.3,0.9,0.2,1.4,0
		c1.5-0.6,2.9-2.2,2.9-3.8c-0.1-1.5-1.2-3.5-3.4-3.7c-1.1-0.1-2,0.4-2.7,1.4c-0.1,0.2-0.3,0.1-0.3-0.2c0.3-1.9,1.5-2.8,3.4-2.8
		c3-0.1,4.8,2.4,6.9,5.2c1.8,2.5,3.8,4.3,6.9,4.4c2.9,0,5.3-1.2,5.3-4.5c0-2-1.7-3.4-3.5-3.4c-1,0-1.8,0.3-2.5,1.3
		c-0.1,0.2-0.4,0.1-0.4-0.2c0.4-2.2,2-2.8,3.5-2.8c2.7,0,4.3,2.1,6.1,4.4c1.6,2.1,2.8,3.5,3.7,3.5c1,0,2.2-1.4,3.7-3.5
		c1.7-2.3,3.4-4.4,6.1-4.4c1.5,0,3.1,0.5,3.5,2.8c0,0.2-0.2,0.4-0.4,0.2c-0.7-1-1.5-1.3-2.5-1.3c-1.8,0-3.5,1.5-3.5,3.4
		c0,3.3,2.4,4.5,5.3,4.5c3,0,5.1-1.9,6.9-4.4c2-2.8,3.8-5.3,6.9-5.2c1.9,0,3.1,0.9,3.4,2.8c0.1,0.3-0.1,0.4-0.3,0.2
		c-0.7-1-1.6-1.4-2.7-1.4c-2.2,0.1-3.3,2.1-3.4,3.7c-0.1,1.6,1.3,3.2,2.9,3.8c0.5,0.2,1,0.3,1.4,0c21.5-17.1,35.3-33.5,35.6-48.5
		l0-90.6l-38.1,2.6c-6.2-5.4-14.3-9.2-24.5-9.3c-10.2,0.1-18.3,3.9-24.5,9.3L37.5,38.3z M64.3,54.6c0,2.9-1.2,4.6-3.3,4.6
		c-2.5,0-3.3-2.3-3.3-4.5c0-2.5,1-4.6,3.3-4.6C63.5,50,64.3,52.4,64.3,54.6L64.3,54.6z M56.6,57.3V59h-6.1v-1.3l1.1-1.1
		c1.7-1.6,2.7-2.6,2.7-3.7c0-0.7-0.4-1.2-1.4-1.2c-0.6,0-1.3,0.3-1.7,0.6l-0.6-1.5c0.6-0.4,1.6-0.8,2.8-0.8c2.2,0,3.1,1.2,3.1,2.7
		c0,1.6-1.1,2.8-2.3,3.8l-0.8,0.7v0H56.6z"/>
	<path class="st3" d="M62,54.6c0-1.9-0.3-2.9-1-2.9c-0.7,0-1.1,0.9-1.1,2.9c0,2,0.4,2.9,1.1,2.9C61.6,57.5,62,57,62,54.6L62,54.6z"
		/>
	<path class="st0" d="M37.4,129l0-90.6l38.1,2.6c6.2-5.4,14.3-9.2,24.5-9.3c10.2,0.1,18.4,3.9,24.5,9.3l38.1-2.6l0,90.6
		c-0.3,14.9-14.1,31.3-35.6,48.5c-0.4,0.3-0.9,0.2-1.4,0c-1.5-0.6-2.9-2.2-2.9-3.8c0.1-1.5,1.2-3.5,3.4-3.7c1.1-0.1,2,0.4,2.7,1.4
		c0.1,0.2,0.3,0.1,0.3-0.2c-0.3-1.9-1.5-2.8-3.4-2.8c-3-0.1-4.8,2.4-6.9,5.2c-1.8,2.5-3.8,4.3-6.9,4.4c-2.9,0-5.3-1.2-5.3-4.5
		c0-2,1.7-3.4,3.5-3.4c1,0,1.8,0.3,2.5,1.3c0.1,0.2,0.4,0.1,0.4-0.2c-0.4-2.2-2-2.8-3.5-2.8c-2.7,0-4.3,2.1-6.1,4.4
		c-1.6,2.1-2.8,3.5-3.7,3.5c-1,0-2.2-1.4-3.7-3.5c-1.7-2.3-3.4-4.4-6.1-4.4c-1.5,0-3.1,0.5-3.5,2.8c0,0.2,0.2,0.4,0.4,0.2
		c0.7-1,1.5-1.3,2.5-1.3c1.8,0,3.5,1.5,3.5,3.4c0,3.3-2.4,4.5-5.3,4.5c-3,0-5.1-1.9-6.9-4.4c-2-2.8-3.8-5.3-6.9-5.2
		c-1.9,0-3.1,0.9-3.4,2.8c-0.1,0.3,0.1,0.4,0.3,0.2c0.7-1,1.6-1.4,2.7-1.4c2.2,0.1,3.3,2.1,3.4,3.7c0.1,1.6-1.3,3.2-2.9,3.8
		c-0.5,0.2-1,0.3-1.4,0C51.5,160.3,37.7,143.9,37.4,129L37.4,129z M82.9,179.7c1,1.2,2.3,1.6,3.6,1.6c1.5,0,2.8-0.4,3.8-1.6
		c1-1.2,1.6-2.4,2.9-2.3c1.7,0.1,2.4,1.2,3.3,2.3c1,1.2,2.3,1.6,3.7,1.6c1.8,0,3.3-0.8,4.2-2.3c0.7-1,1.5-1.6,2.2-1.6
		c0.9,0,1.7,0.3,2.5,1.3c1.1,1.3,2.1,2.6,4.5,2.6c2.1,0,3.5-1.1,4.7-2.9c0.4-0.6,1.1-1,1.8-1c1.6,0,2.6,1.1,3.6,2.5l-2.1,1.6
		c-0.3-0.4-0.6-0.8-0.9-1.2c-0.2-0.3-0.5-0.4-0.8,0c-1.5,2.1-3.7,3.4-6.4,3.5c-2.7,0-4.6-1.1-6.4-3.5c-0.2-0.3-0.5-0.2-0.7,0
		c-1.7,2.4-3.9,3.5-6.4,3.5c-3,0-5.2-1.4-6.3-3.3c-0.3-0.5-0.6-0.6-0.9-0.1c-1.6,2.3-3.7,3.4-6.3,3.4c-2.9,0-5-1.3-6.5-3.5
		c-0.2-0.3-0.5-0.4-0.8,0c-0.3,0.4-0.6,0.7-0.9,1.1l-2.1-1.6c0.7-0.7,1-1.1,1.8-1.9c0.6-0.7,2.5-0.9,3.4,0.1
		C82,178.6,82.4,179.2,82.9,179.7L82.9,179.7z M86.9,184.7c1,0,1.8,0.9,2.7,2c1.1,1.3,2.4,1.8,4.1,1.8c1.5,0,2.9-0.6,4-2.2
		c0.6-0.8,1.4-1.6,2.7-1.6c1,0,2.3,1.5,3.2,2.6c0.9,1.1,2.2,1.3,3.5,1.3c1.5,0,3.1-0.9,4.2-2.5c0.5-0.8,1.5-1.4,2.3-1.4
		c0.6,0,1.1,0.1,1.4,0.4c0.2,0.2,0.5,0.4,0.3,0.7l-7.6,5c-0.4,0.2-0.9,0.3-1.4,0.3c-2.4,0-4.3-1.7-5.5-3.4c-0.3-0.4-0.7-0.4-1,0
		c-1,1.4-2.4,2.5-4.1,3.1c-1.3,0.5-2.6,0.4-3.5-0.1l-7-4.6C84.8,185.7,85.4,184.7,86.9,184.7L86.9,184.7z M100.3,200
		c0.1,0,0.4-0.1,0.5-0.2c48.1-27.1,66.3-54,66.4-71c0.1-32,0.1-63.2,0.1-95.2c-13.6,1.1-27.5,2.1-41.1,3.3c-7.8-6.2-16-9.1-26-9.1
		c-9.9,0-18.2,2.9-26,9.1c-13.6-1.1-27.5-2.1-41.1-3.3c0,32,0,63.2,0.1,95.2c0.1,17,18.3,43.9,66.4,71
		C99.9,199.9,100.1,200,100.3,200L100.3,200z M33.4,126.1c0-3.4,0-6.8,0-10.1H23.2L33.4,126.1z M167.3,116c0,3.3,0,6.6,0,10l9.6-10
		H167.3z M37.4,120l125.4,0.1l0-4.1H37.4L37.4,120z"/>
	<path class="st3" d="M145.9,53.7l-1,1.8v0h1.8v-1.8c0-0.5,0-1.1,0.1-1.6h0C146.5,52.6,146.2,53.1,145.9,53.7L145.9,53.7z"/>
	<polygon class="st4" points="37.4,75.5 45,75.5 45,104.2 51.3,104.2 51.3,108 45,108 37.4,108 	"/>
	<rect x="54.7" y="75.5" class="st4" width="8" height="32.5"/>
	<path class="st3" d="M93.2,88.6v-9h2v9H93.2z M85.4,75.5l0,32.5h7.8l0-15.3l5,0c2.9-1.9,3.5-5.7,3.4-8.7c-0.1-3-0.6-7.2-3.5-8.5
		L85.4,75.5L85.4,75.5z"/>
	<polygon class="st3" points="105.4,79.7 114.9,79.7 113.9,75.5 106.1,75.5 	"/>
	<polygon class="st3" points="115.6,82.7 105,82.7 101.1,108 104.1,108 106.4,93.1 110.8,93.1 114.4,108 121.5,108 	"/>
	<path class="st3" d="M124.6,75.5v3.7l6.1,0l0,24.8h-6.1l0,4.1h10.7c1.5,0,3.3-2.4,3.3-4.6v-28L124.6,75.5z"/>
	<polygon class="st3" points="147.7,75.5 142.5,108 145.6,108 148,93 152.4,93 155.9,108 163.1,108 155.4,75.5 	"/>
	<rect x="93.2" y="79.6" class="st5" width="2" height="9"/>
	<path class="st5" d="M85.4,75.5l12.6,0c2.8,1.4,3.4,5.6,3.5,8.5c0.1,3-0.4,6.8-3.4,8.7l-5,0l0,15.3h-7.8L85.4,75.5z M54.7,75.5h8
		V108h-8V75.5z M74.2,88.8l6.4,0v3.6l-6.4,0l0,11.5l6.4,0l0,4H66.7l0-32.5l13.9,0l0,3.5l-6.4,0L74.2,88.8z M105,82.7l0.5-3l0.6-4.2
		l7.8,0l1,4.2l0.7,3l5.9,25.3l-7.1,0l-3.6-14.9h-4.4l-2.3,14.9h-0.9l-2,0l0,0h0L105,82.7z M130.8,103.9l0-24.8l-6.1,0v-3.7l14,0v28
		c0,2.1-1.8,4.6-3.3,4.6h-10.7l0-4.1H130.8z M142.5,108l5.2-32.5l7.7,0l7.7,32.5l-7.1,0l-3.5-15H148l-2.4,15H142.5z M37.4,75.5H45
		l0,28.7l6.3,0l0,3.8l-6.3,0h-7.6V75.5z M176.8,67.7H23.2V116h153.6V67.7z M105.4,79.7l-0.5,3l10.6,0l-0.7-3L105.4,79.7z"/>
	<path class="st3" d="M52.9,150.9c1-0.3,2.1,0,2.7,0.9c0.6,1,0.3,2.3-0.5,3c-1.8,1.5-5,4.4-4.5,7.1c0,0.2,0.1,0.4,0.2,0.6
		c1.1,1.9,6,3.4,8,4.1c6.2,2.3,10.7,7.2,10.9,14c0.1,4.4-2.2,7.8-5.3,10.7c-0.8,0.7-1.8,1-2.8,0.4c-1.1-0.6-1.3-1.8-1-2.9l0,0l0,0
		c1.1-3.6,1.7-8.3-0.7-11.5c-1.5-1.9-4.6-3-6.7-3.9c-3.1-1.4-6.5-3.4-8.9-5.9c-2.2-2.3-2.7-5-1.3-7.9c1.9-4,5.7-7.1,9.8-8.7
		L52.9,150.9L52.9,150.9z"/>
	<path class="st6" d="M53.5,152.9c-3.5,1.3-6.9,4-8.6,7.7c-1,2-0.7,3.8,1,5.5c1.8,1.9,4.7,3.8,8.2,5.4c2.9,1.3,5.8,2.3,7.5,4.5
		c2.7,3.6,2.6,8.6,1.1,13.4c-0.1,0.5,0.1,0.7,0.4,0.4c2.9-2.7,4.8-5.5,4.7-9.1c-0.2-5.7-3.9-10-9.6-12.1c-4.2-1.5-8.9-2.8-9.6-6.2
		c-0.6-2.8,1.3-5.9,5.2-9.1C53.8,153.1,53.9,152.7,53.5,152.9L53.5,152.9z"/>
	<path class="st7" d="M67.7,143.1c-0.1,0.2-0.3,0.4-0.5,0.4c-0.9,0-1.8-0.1-2.7-0.3c-0.2,0-0.4-0.3-0.4-0.6c0.1-1.6,0.3-3.2,0.6-4.7
		c0.1-0.4,0.3-0.7,0.6-1c0.7-0.7,1.5-1.4,2.3-2c0.2-0.2,0.5-0.2,0.8-0.2c2-0.1,4-0.3,6-0.3c0.3,0,0.6,0.2,0.7,0.4
		c0.1,0.3,0,0.6-0.2,0.8c-1.2,1.2-2.6,2.2-3.8,3.3c-0.6,0.5-1.3,1-1.8,1.7C68.6,141.3,68.2,142.2,67.7,143.1L67.7,143.1z"/>
	<path class="st8" d="M67.7,143c-0.1,0.2-0.3,0.3-0.5,0.3c-0.9,0-1.8-0.1-2.7-0.3c-0.2,0-0.4-0.3-0.3-0.5c0.1-1.6,0.3-3.2,0.6-4.7
		c0.1-0.4,0.3-0.7,0.5-1c0.7-0.7,1.5-1.4,2.3-2c0.2-0.2,0.5-0.1,0.7-0.2c2-0.1,4-0.3,6-0.3c0.2,0,0.5,0.1,0.6,0.4
		c0.1,0.2,0,0.6-0.1,0.8c-1.2,1.2-2.6,2.2-3.8,3.3c-0.6,0.5-1.3,1-1.8,1.7C68.5,141.2,68.2,142.2,67.7,143L67.7,143z"/>
	<path class="st9" d="M67.6,143c-0.1,0.1-0.2,0.3-0.4,0.3c-0.9,0-1.8-0.1-2.7-0.3c-0.2,0-0.3-0.2-0.3-0.4c0.1-1.6,0.3-3.2,0.6-4.7
		c0.1-0.3,0.3-0.7,0.5-0.9c0.7-0.7,1.5-1.4,2.3-2c0.2-0.1,0.4-0.1,0.7-0.1c2-0.1,4-0.3,6-0.3c0.2,0,0.4,0.1,0.5,0.3
		c0.1,0.2,0,0.5-0.1,0.7c-1.2,1.2-2.6,2.2-3.8,3.3c-0.6,0.5-1.3,1-1.8,1.7C68.4,141.2,68.1,142.2,67.6,143L67.6,143z"/>
	<path class="st10" d="M67.5,143c-0.1,0.1-0.2,0.2-0.3,0.2c-0.9,0-1.8-0.1-2.7-0.3c-0.1,0-0.2-0.2-0.2-0.3c0.1-1.6,0.3-3.2,0.6-4.7
		c0.1-0.3,0.3-0.6,0.5-0.9c0.7-0.7,1.5-1.4,2.3-2c0.2-0.1,0.4-0.1,0.6-0.1c2-0.1,4-0.3,6-0.3c0.2,0,0.4,0.1,0.4,0.3
		c0.1,0.2,0,0.4-0.1,0.6c-1.2,1.2-2.6,2.2-3.8,3.3c-0.6,0.6-1.3,1-1.9,1.7C68.4,141.1,68.1,142.1,67.5,143L67.5,143z"/>
	<path class="st7" d="M65.9,138.5c0-0.3,0.2-0.5,0.3-0.7c0.6-0.7,1.3-1.3,2-1.8c0.2-0.1,0.4-0.2,0.5-0.2c0.9,0,1.8-0.2,2.6,0.1
		c0.1,0,0.1,0.1,0.1,0.1c0.1,0.2-0.4,0.6-0.5,0.7c-0.4,0.3-0.8,0.3-1.2,0.5c-0.4,0.3-0.9,0.5-1.3,0.9c-0.6,0.5-1,1.1-1.7,1.5
		c-0.2,0.1-0.6,0.3-0.7,0C65.9,139.4,65.9,138.9,65.9,138.5L65.9,138.5z"/>
	<path class="st11" d="M65.9,138.5c0-0.2,0.2-0.5,0.3-0.7c0.6-0.7,1.3-1.2,2-1.8c0.2-0.1,0.3-0.2,0.5-0.2c0.8,0,1.7-0.2,2.6,0.1
		c0.4,0.1-0.3,0.7-0.4,0.8c-0.4,0.3-0.8,0.3-1.2,0.5c-0.4,0.3-0.9,0.5-1.3,0.9c-0.6,0.5-1,1.1-1.7,1.5c-0.2,0.1-0.5,0.2-0.7,0
		C65.9,139.3,65.9,138.9,65.9,138.5L65.9,138.5z"/>
	<path class="st12" d="M66,138.5c0-0.2,0.1-0.5,0.3-0.6c0.6-0.7,1.3-1.2,2-1.8c0.1-0.1,0.3-0.2,0.5-0.2c0.8,0,1.7-0.2,2.6,0.1
		c0.3,0.1-0.3,0.6-0.4,0.7c-0.4,0.3-0.8,0.3-1.2,0.5c-0.4,0.3-0.9,0.5-1.3,0.9c-0.6,0.5-1,1.1-1.7,1.5c-0.1,0.1-0.5,0.2-0.6,0
		C65.9,139.3,65.9,138.9,66,138.5L66,138.5z"/>
	<path class="st3" d="M66,138.5c0,0.4,0,0.8,0.2,1.2c0.1,0.2,0.4,0.1,0.6-0.1c0.6-0.4,1.1-1,1.7-1.5c0.4-0.3,0.8-0.6,1.3-0.9
		c0.4-0.2,0.8-0.3,1.2-0.5c0.2-0.1,0.7-0.6,0.4-0.6c-0.8-0.3-1.7-0.1-2.5-0.1c-0.2,0-0.3,0.1-0.5,0.2c-0.7,0.5-1.5,1.1-2,1.8
		C66.1,138,66,138.3,66,138.5L66,138.5z"/>
	<path class="st13" d="M74.8,135.6c-1.2,1.2-2.6,2.2-3.8,3.3c-0.6,0.5-1.3,1-1.8,1.7c-0.6,0.8-0.9,1.8-1.4,2.6
		c-0.1,0.2-0.3,0.4-0.5,0.4c-0.9,0-1.8-0.1-2.7-0.3c-0.2,0-0.4-0.3-0.4-0.6c0.1-1.6,0.3-3.2,0.6-4.7c0.1-0.4,0.3-0.7,0.6-1
		c0.7-0.7,1.5-1.4,2.3-2c0.2-0.2,0.5-0.2,0.8-0.2c2-0.1,4-0.3,6-0.3c0.3,0,0.6,0.2,0.7,0.4C75.1,135,75,135.4,74.8,135.6L74.8,135.6
		z M54.7,143.4c-0.4,0.2-0.2,0.5,0.1,0.7c1.9-0.3,3.8-0.6,5.7-0.9c0.2,0,0.3,0.2,0.1,0.3c-1.6,0.6-3.8,0.9-5.4,1.5
		c-0.2,0.1-0.3,0.3-0.4,0.5c0,0.3-0.1,0.5,0,0.8c0.1,0.3,0.2,0.7,0.6,0.5c2.4-0.6,4.9-1.1,7.3-1.7c1.3-0.3,2.2-0.4,2.5-0.3
		c3.1,1.1,6.1,2.2,9.2,3.3c0.6,0.2,1.1,0.5,1.1,1.2c0,1.1,0,2.3,0,3.4c0,0.9-0.2,1.4-1.9,1.4c-3.8-0.2-8-0.4-11.7-0.6
		c-1,0.7-1.4,1.2-2.2,1.9c-0.4,0.4,0.1,1.1,0.5,0.9c0.8-0.2,1.7-0.5,2.5-0.6c0.2,0,0.3,0,0.4,0.2l1.1,2.1c0.2,0.4,0.4,0.4,0.7,0.3
		l3.9-0.9c0.2,0,0.4,0,0.6,0.3l2.4,2.4c0.2,0.2,0.4,0.2,0.7,0.1l3.5-2c0.3-0.2,0.5-0.1,0.6,0l4,1.8c0.3,0.2,0.6,0.2,0.8-0.1l3-4.9
		c0.1-0.3,0.4-0.3,0.7-0.2l3.8,0.5c0.6,0.1,0.9,0,1-0.5l0.8-3.5c0.1-0.3,0.2-0.4,0.3-0.5l1.9-1c0.3-0.1,0.5-0.4,0.4-0.7
		c-0.3-0.8-0.6-1.6-0.9-2.4c-0.1-0.2,0-0.4,0.3-0.7c0.7-0.9,1.4-1.6,2.2-2.4c0.3-0.4,0.2-0.9-0.3-1.2l-1.8-1.4
		c-0.1-0.1-0.2-0.5-0.2-0.9l-0.1-5.3c0-0.5-0.4-0.5-0.8-0.4c-2,0.6-4,1.2-6,1.9c-0.1,0-0.2-0.1-0.1-0.1c1.4-0.8,8.9-4.2,9.1-4.3
		c0.3-0.1,0.3-0.1,0.3-0.4c0-0.4,0-0.7,0-1.1c0-0.1,0-0.4-0.2-0.3l-8.4,3c-0.4,0.2-0.7,0.2-1.1-0.2c-0.2-0.2-0.5-0.5-0.5-0.8
		c0-0.3,0.3-0.8,0.5-1.2l2-4.4c0.4-0.7-0.1-0.7-0.6-0.5c-4.7,2-9.6,3.7-14.3,5.7c-1.3,0.5-2.6,1-3.9,1.9
		C64.1,136.8,59.4,140.1,54.7,143.4L54.7,143.4z"/>
	<path class="st14" d="M72.8,160.1c-0.3,0.1-0.5,0.1-0.7-0.1l-2.4-2.4c-0.2-0.2-0.4-0.3-0.6-0.3l-3.9,0.9c-0.3,0.1-0.6,0-0.7-0.3
		l-1.1-2.1c-0.1-0.1-0.2-0.2-0.4-0.2c-0.8,0.2-1.7,0.5-2.5,0.6c-0.5,0.2-1-0.5-0.5-0.9c0.2-0.1,0.3-0.3,0.4-0.4
		c-0.7,0.4-1.6,1.1-2.2,1.6c-0.5,0.3-0.3,0.4,0.1,0.4c1.2,0,2.4,0.1,3.6,0.1c0.6,0,0.9,0.2,1,0.9c0.1,0.9,0.3,1.8,0.4,2.7
		c0.1,0.7,0.5,0.8,1,0.4c0.7-0.6,1.8-1.5,3.2-2.6c0.3-0.2,1,0,1.1,0.2c0.9,1.4,1.8,2.7,2.7,4.1c0.2,0.4,0.5,0.7,1,0.3l3.5-3.4
		c0.3-0.3,0.7-0.5,1.1-0.3l4.8,2.5c0.5,0.3,1,0.3,1.3-0.4l2.4-4.3c0.2-0.5,0.5-0.7,1-0.7c1.4,0.1,2.8,0.3,4.2,0.5
		c0.7,0.1,1.2-0.1,1.3-0.6c0.2-1.2,0.4-2.4,0.6-3.6c0.1-0.7,0.4-1.3,1-1.5c1.1-0.3,2.2-0.5,3.2-0.8c0.6-0.2,0.6-0.6,0.1-1.2
		c-0.8-0.9-1.5-1.7-2.4-2.5c-0.3-0.3-0.3-0.5-0.1-0.8c1-1,2-2,3-3c0.6-0.5,0.3-0.9-0.3-1.3c-0.9-0.6-1.9-1.2-2.8-1.9
		c-0.3-0.3-0.6-0.7-0.6-1.1c-0.2-1.3-0.3-2.7-0.4-4c0-0.4,0-0.5-0.3-0.4l-0.6,0.2c0.3-0.1,0.6,0,0.6,0.4l0.1,5.3
		c0,0.4,0.1,0.8,0.2,0.9l1.8,1.4c0.5,0.3,0.6,0.8,0.3,1.2c-0.7,0.9-1.4,1.6-2.2,2.4c-0.3,0.3-0.4,0.6-0.3,0.7
		c0.3,0.8,0.6,1.6,0.9,2.4c0.1,0.4-0.1,0.6-0.4,0.7l-1.9,1c-0.1,0.1-0.2,0.3-0.3,0.5l-0.8,3.5c-0.1,0.4-0.4,0.6-1,0.5l-3.8-0.5
		c-0.3-0.1-0.6-0.1-0.7,0.2l-3,4.9c-0.2,0.3-0.5,0.2-0.8,0.1l-4-1.8c-0.1-0.1-0.3-0.2-0.6,0L72.8,160.1z"/>
	<path class="st14" d="M54.8,144.1c-0.3-0.2-0.5-0.4-0.1-0.7c4.7-3.3,9.4-6.6,14.1-9.9c1.2-0.8,2.5-1.4,3.9-1.9
		c4.7-2,9.6-3.7,14.3-5.7c0.5-0.2,0.9-0.2,0.7,0.3c0.4-0.8,0-0.9-0.8-0.6c-5.3,1.9-10.7,3.6-16.1,5.6c-0.8,0.3-1.5,0.6-2.2,1.1
		c-5.1,3.3-10.2,6.7-15.3,10c-0.3,0.2-0.5,0.4-0.6,0.6c-0.2,0.3-0.4,0.6-0.1,0.9c0.2,0.2,0.3,0.4,0.6,0.5
		C53.5,144.3,54.3,144.2,54.8,144.1L54.8,144.1z"/>
	<path class="st0" d="M53.3,142.2c5.1-3.3,10.2-6.7,15.3-10c0.7-0.4,1.4-0.8,2.2-1.1c5.3-1.9,10.7-3.7,16.1-5.6
		c0.8-0.3,1.2-0.2,0.8,0.6c0,0.1-0.1,0.1-0.1,0.2l-2,4.4c-0.1,0.4-0.5,0.8-0.5,1.2c0,0.3,0.3,0.5,0.5,0.8c0.4,0.4,0.7,0.4,1.1,0.2
		l8.4-3c0.3-0.1,0.2,0.2,0.2,0.3c0,0.4,0,0.7,0,1.1c0,0.3-0.1,0.3-0.3,0.4c-0.3,0.1-7.8,3.5-9.1,4.3c-0.1,0.1,0,0.2,0.1,0.1
		c2-0.7,4-1.3,6-1.9c0.1,0,0.2-0.1,0.2-0.1l0.6-0.2c0.3-0.1,0.3,0.1,0.3,0.4c0,1.4,0.2,2.7,0.4,4c0.1,0.4,0.3,0.8,0.6,1.1
		c0.8,0.7,1.8,1.3,2.8,1.9c0.6,0.4,0.9,0.7,0.3,1.3c-1,1-2,2-3,3c-0.3,0.3-0.3,0.5,0.1,0.8c0.8,0.8,1.6,1.7,2.4,2.5
		c0.4,0.5,0.5,1-0.1,1.2c-1.1,0.3-2.1,0.5-3.2,0.8c-0.6,0.2-0.9,0.7-1,1.5c-0.2,1.2-0.3,2.4-0.6,3.6c-0.1,0.5-0.6,0.7-1.3,0.6
		c-1.4-0.2-2.8-0.4-4.2-0.5c-0.4,0-0.8,0.2-1,0.7l-2.4,4.3c-0.3,0.7-0.8,0.7-1.3,0.4l-4.8-2.5c-0.4-0.2-0.7,0-1.1,0.3l-3.5,3.4
		c-0.5,0.5-0.7,0.1-1-0.3c-0.9-1.4-1.8-2.7-2.7-4.1c-0.2-0.2-0.8-0.4-1.1-0.2c-1.4,1.2-2.4,2-3.2,2.6c-0.5,0.4-0.9,0.2-1-0.4
		c-0.1-0.9-0.3-1.8-0.4-2.7c-0.1-0.7-0.5-0.9-1-0.9c-1.2-0.1-2.4-0.1-3.6-0.1c-0.4,0-0.5-0.1-0.1-0.4c0.7-0.5,1.5-1.1,2.2-1.6
		c0.5-0.5,0.9-0.9,1.7-1.5c3.8,0.2,8,0.4,11.7,0.6c1.7,0,1.9-0.4,1.9-1.4c0-1.1,0-2.3,0-3.4c0-0.7-0.6-1-1.1-1.2
		c-3.1-1.1-6.1-2.2-9.2-3.3c-0.3-0.2-1.2,0-2.5,0.3c-2.4,0.6-4.9,1.1-7.3,1.7c-0.4,0.2-0.6-0.2-0.6-0.5c-0.1-0.3,0-0.5,0-0.8
		c0.1-0.2,0.1-0.4,0.4-0.5c1.6-0.6,3.8-0.9,5.4-1.5c0.2-0.1,0.1-0.3-0.1-0.3c-1.9,0.3-3.8,0.6-5.7,0.9c-0.6,0.1-1.3,0.3-1.6,0.2
		c-0.3-0.1-0.5-0.3-0.6-0.5c-0.2-0.4,0-0.6,0.1-0.9C52.8,142.6,53.1,142.4,53.3,142.2L53.3,142.2z M65.2,147c2.7,1,5.1,1.8,7.8,2.9
		c0.2,0.1,0.5,0.3,0.5,0.5c0,0.5,0,0.5,0,0.9c0,0.3-0.1,0.4-0.7,0.3c-3.8-0.2-6-0.2-9.8-0.4l-1,0c-0.5,0-0.8,0.1-1.3,0.5
		c-0.6,0.5-1.1,0.9-1.7,1.4c-0.7,0.5-1.5,1-2.3,1.6c-0.9,0.6-3,2-2.9,2.8c0.1,1,1.1,1.1,2,1.1c0.7,0,3.7,0.3,4.4,0.3
		c0.5,0,0.6,0.1,0.7,0.6c0.1,0.6,0.1,1.7,0.2,2.4c0,0.8,0.4,1.9,1.2,2.2c0.5,0.2,2.2-0.8,3.1-1.5c0.7-0.5,1.1-0.7,1.8-1.2
		c0.4-0.3,0.6-0.1,0.8,0.2c0.5,0.8,1.1,1.7,1.6,2.5c0.4,0.7,1.2,2,1.9,2c0.6,0.1,1.5-0.9,2.1-1.5l2.6-2.3c0.5-0.4,0.8-0.4,1.3-0.1
		l3.1,1.7c2.5,1.3,2.9,1.3,3.7-0.3l2.3-4.7c0.1-0.1,0.4-0.2,0.6-0.2c1.2,0.1,3,0.4,4.1,0.5c1.6,0.2,1.9,0.4,2.3-1.3
		c0.2-1.2,0.5-3.1,0.7-4.3c0.1-0.4,0.3-0.5,0.6-0.6c0.8-0.2,1.5-0.4,2.2-0.6c1.1-0.3,2.6-0.7,2.8-1.5c0.2-0.8-1-2-1.7-2.8
		c-0.4-0.4-0.9-1-1.4-1.4c-0.1-0.1-0.2-0.4,0-0.6c0.6-0.7,1.9-2.1,2.6-2.7c1.4-1.4,0.6-2.1-1.1-3.2c-0.7-0.4-1.7-1.1-2.3-1.6
		c-0.3-0.2-0.4-0.3-0.4-0.5c-0.1-1.2-0.3-2-0.4-3.1c0-0.4,0.1-0.6,0.4-0.8c1.5-0.6,2.3-0.6,2.3-2.6c0-0.4,0-3.3,0-3.7
		c0-1-0.5-1.3-2-0.7l-1.5,0.6l-5,2c-0.5,0.2-1.1-0.1-0.9-0.5l0.8-1.9c0-0.1,0.1-0.2,0.1-0.3c0.4-0.9,1.9-3.3,1.1-4.1
		c-0.8-0.9-3.4,0.4-4.5,0.8c-5.4,1.9-10.7,3.6-16.1,5.6c-0.9,0.3-1.8,0.7-2.6,1.3c-5.2,3.4-11.1,7.1-16.1,10.5c-1,0.7-1.3,1.4-1,2.5
		l0.5,1.5l0.2,0.7c0,0.5,0.4,0.9,1,0.8c0.4,0,0.6,0.1,0.8,0.4l0.3,1.5c0.1,0.7,0.5,1.2,2,0.8c2.4-0.7,6.2-1.6,8.6-2.2
		C64.3,146.9,64.8,146.9,65.2,147L65.2,147z"/>
	<path class="st7" d="M132.9,143.1c0.1,0.2,0.3,0.4,0.5,0.4c0.9,0,1.8-0.1,2.7-0.3c0.3,0,0.4-0.3,0.4-0.6c-0.1-1.6-0.3-3.2-0.6-4.7
		c-0.1-0.4-0.3-0.7-0.6-1c-0.7-0.7-1.5-1.4-2.3-2c-0.2-0.2-0.5-0.2-0.8-0.2c-2-0.1-4-0.3-6-0.3c-0.3,0-0.6,0.2-0.7,0.4
		c-0.1,0.3,0,0.6,0.2,0.8c1.2,1.2,2.6,2.2,3.8,3.3c0.6,0.5,1.3,1,1.8,1.7C132.1,141.3,132.4,142.2,132.9,143.1L132.9,143.1z"/>
	<path class="st8" d="M133,143c0.1,0.2,0.3,0.3,0.5,0.3c0.9,0,1.8-0.1,2.7-0.3c0.2,0,0.4-0.3,0.3-0.5c-0.1-1.6-0.3-3.2-0.6-4.7
		c-0.1-0.4-0.3-0.7-0.5-1c-0.7-0.7-1.5-1.4-2.3-2c-0.2-0.2-0.5-0.1-0.7-0.2c-2-0.1-4-0.3-6-0.3c-0.2,0-0.5,0.1-0.6,0.4
		c-0.1,0.2,0,0.6,0.1,0.8c1.2,1.2,2.6,2.2,3.8,3.3c0.6,0.5,1.3,1,1.8,1.7C132.2,141.2,132.5,142.2,133,143L133,143z"/>
	<path class="st9" d="M133.1,143c0.1,0.1,0.2,0.3,0.4,0.3c0.9,0,1.8-0.1,2.7-0.3c0.2,0,0.3-0.2,0.3-0.4c-0.1-1.6-0.3-3.2-0.6-4.7
		c-0.1-0.3-0.3-0.7-0.5-0.9c-0.7-0.7-1.5-1.4-2.3-2c-0.2-0.1-0.4-0.1-0.7-0.1c-2-0.1-4-0.3-6-0.3c-0.2,0-0.4,0.1-0.5,0.3
		c-0.1,0.2,0,0.5,0.1,0.7c1.2,1.2,2.6,2.2,3.8,3.3c0.6,0.5,1.3,1,1.8,1.7C132.2,141.2,132.5,142.2,133.1,143L133.1,143z"/>
	<path class="st10" d="M133.1,143c0.1,0.1,0.2,0.2,0.3,0.2c0.9,0,1.8-0.1,2.7-0.3c0.1,0,0.2-0.2,0.2-0.3c-0.1-1.6-0.3-3.2-0.6-4.7
		c-0.1-0.3-0.3-0.6-0.5-0.9c-0.7-0.7-1.5-1.4-2.3-2c-0.2-0.1-0.4-0.1-0.6-0.1c-2-0.1-4-0.3-6-0.3c-0.2,0-0.4,0.1-0.4,0.3
		c-0.1,0.2,0,0.4,0.1,0.6c1.2,1.2,2.6,2.2,3.8,3.3c0.6,0.6,1.3,1,1.8,1.7C132.3,141.1,132.6,142.1,133.1,143L133.1,143z"/>
	<path class="st7" d="M134.8,138.5c0-0.3-0.2-0.5-0.3-0.7c-0.6-0.7-1.3-1.3-2-1.8c-0.2-0.1-0.3-0.2-0.5-0.2c-0.9,0-1.8-0.2-2.6,0.1
		c-0.1,0-0.1,0.1-0.1,0.1c-0.1,0.2,0.4,0.6,0.5,0.7c0.4,0.3,0.8,0.3,1.2,0.5c0.4,0.3,0.9,0.5,1.3,0.9c0.6,0.5,1,1.1,1.7,1.5
		c0.2,0.1,0.6,0.3,0.7,0C134.8,139.4,134.8,138.9,134.8,138.5L134.8,138.5z"/>
	<path class="st11" d="M134.7,138.5c0-0.2-0.2-0.5-0.3-0.7c-0.6-0.7-1.3-1.2-2-1.8c-0.1-0.1-0.3-0.2-0.5-0.2c-0.8,0-1.7-0.2-2.6,0.1
		c-0.4,0.1,0.3,0.7,0.4,0.8c0.4,0.3,0.8,0.3,1.2,0.5c0.4,0.3,0.9,0.5,1.3,0.9c0.6,0.5,1,1.1,1.7,1.5c0.2,0.1,0.5,0.2,0.7,0
		C134.8,139.3,134.8,138.9,134.7,138.5L134.7,138.5z"/>
	<path class="st12" d="M134.7,138.5c0-0.2-0.1-0.5-0.3-0.6c-0.6-0.7-1.3-1.2-2-1.8c-0.1-0.1-0.3-0.2-0.5-0.2c-0.8,0-1.7-0.2-2.6,0.1
		c-0.3,0.1,0.3,0.6,0.4,0.7c0.4,0.3,0.8,0.3,1.2,0.5c0.4,0.3,0.9,0.5,1.3,0.9c0.6,0.5,1,1.1,1.7,1.5c0.1,0.1,0.5,0.2,0.6,0
		C134.7,139.3,134.7,138.9,134.7,138.5L134.7,138.5z"/>
	<path class="st3" d="M134.7,138.5c0,0.4,0,0.8-0.2,1.2c-0.1,0.2-0.4,0.1-0.6-0.1c-0.6-0.4-1.1-1-1.7-1.5c-0.4-0.3-0.8-0.6-1.3-0.9
		c-0.4-0.2-0.8-0.3-1.2-0.5c-0.2-0.1-0.7-0.6-0.4-0.6c0.8-0.3,1.7-0.1,2.5-0.1c0.2,0,0.3,0.1,0.5,0.2c0.7,0.5,1.5,1.1,2,1.8
		C134.5,138,134.6,138.3,134.7,138.5L134.7,138.5z"/>
	<path class="st13" d="M125.9,135.6c1.2,1.2,2.6,2.2,3.8,3.3c0.6,0.5,1.3,1,1.8,1.7c0.6,0.8,0.9,1.8,1.4,2.6
		c0.1,0.2,0.3,0.4,0.5,0.4c0.9,0,1.8-0.1,2.7-0.3c0.3,0,0.4-0.3,0.4-0.6c-0.1-1.6-0.3-3.2-0.6-4.7c-0.1-0.4-0.3-0.7-0.6-1
		c-0.7-0.7-1.5-1.4-2.3-2c-0.2-0.2-0.5-0.2-0.8-0.2c-2-0.1-4-0.3-6-0.3c-0.3,0-0.6,0.2-0.7,0.4C125.6,135,125.6,135.4,125.9,135.6
		L125.9,135.6z M145.9,143.4c0.4,0.2,0.2,0.5-0.1,0.7c-1.9-0.3-3.8-0.6-5.7-0.9c-0.2,0-0.3,0.2-0.1,0.3c1.6,0.6,3.8,0.9,5.4,1.5
		c0.2,0.1,0.3,0.3,0.4,0.5c0,0.3,0.1,0.5,0,0.8c-0.1,0.3-0.2,0.7-0.6,0.5c-2.4-0.6-4.9-1.1-7.3-1.7c-1.3-0.3-2.2-0.4-2.5-0.3
		c-3.1,1.1-6.1,2.2-9.2,3.3c-0.6,0.2-1.1,0.5-1.1,1.2c0,1.1,0,2.3,0,3.4c0,0.9,0.2,1.4,1.9,1.4c3.8-0.2,8-0.4,11.7-0.6
		c1,0.7,1.4,1.2,2.2,1.9c0.4,0.4-0.1,1.1-0.5,0.9c-0.8-0.2-1.7-0.5-2.5-0.6c-0.2,0-0.3,0-0.4,0.2l-1.1,2.1c-0.2,0.4-0.4,0.4-0.7,0.3
		l-3.9-0.9c-0.2,0-0.4,0-0.6,0.3l-2.4,2.4c-0.2,0.2-0.4,0.2-0.7,0.1l-3.5-2c-0.3-0.2-0.5-0.1-0.6,0l-4,1.8c-0.3,0.2-0.6,0.2-0.8-0.1
		l-3-4.9c-0.1-0.3-0.4-0.3-0.7-0.2l-3.8,0.5c-0.6,0.1-0.9,0-1-0.5l-0.8-3.5c-0.1-0.3-0.2-0.4-0.3-0.5l-1.9-1
		c-0.3-0.1-0.5-0.4-0.4-0.7c0.3-0.8,0.6-1.6,0.9-2.4c0.1-0.2,0-0.4-0.3-0.7c-0.7-0.9-1.4-1.6-2.2-2.4c-0.3-0.4-0.2-0.9,0.3-1.2
		l1.8-1.4c0.1-0.1,0.2-0.5,0.2-0.9l0.1-5.3c0-0.5,0.4-0.5,0.8-0.4c2,0.6,4,1.2,6,1.9c0.1,0,0.2-0.1,0.1-0.1
		c-1.4-0.8-8.9-4.2-9.1-4.3c-0.2-0.1-0.3-0.1-0.3-0.4c0-0.4,0-0.7,0-1.1c0-0.1,0-0.4,0.2-0.3l8.4,3c0.4,0.2,0.7,0.2,1.1-0.2
		c0.2-0.2,0.5-0.5,0.5-0.8c0-0.3-0.3-0.8-0.5-1.2l-2-4.4c-0.4-0.7,0.1-0.7,0.6-0.5c4.7,2,9.6,3.7,14.3,5.7c1.3,0.5,2.6,1,3.9,1.9
		C136.6,136.8,141.2,140.1,145.9,143.4L145.9,143.4z"/>
	<path class="st14" d="M127.9,160.1c0.3,0.1,0.5,0.1,0.7-0.1l2.4-2.4c0.2-0.2,0.4-0.3,0.6-0.3l3.9,0.9c0.3,0.1,0.6,0,0.7-0.3
		l1.1-2.1c0.1-0.1,0.2-0.2,0.4-0.2c0.8,0.2,1.7,0.5,2.5,0.6c0.5,0.2,1-0.5,0.5-0.9c-0.2-0.1-0.3-0.3-0.4-0.4
		c0.7,0.4,1.6,1.1,2.2,1.6c0.5,0.3,0.3,0.4-0.1,0.4c-1.2,0-2.4,0.1-3.6,0.1c-0.6,0-0.9,0.2-1,0.9c-0.1,0.9-0.3,1.8-0.4,2.7
		c-0.1,0.7-0.5,0.8-1,0.4c-0.7-0.6-1.8-1.5-3.2-2.6c-0.3-0.2-1,0-1.1,0.2c-0.9,1.4-1.8,2.7-2.7,4.1c-0.2,0.4-0.5,0.7-1,0.3l-3.5-3.4
		c-0.3-0.3-0.7-0.5-1.1-0.3l-4.8,2.5c-0.5,0.3-1,0.3-1.3-0.4l-2.4-4.3c-0.2-0.5-0.5-0.7-1-0.7c-1.4,0.1-2.8,0.3-4.2,0.5
		c-0.7,0.1-1.2-0.1-1.3-0.6c-0.2-1.2-0.4-2.4-0.6-3.6c-0.1-0.7-0.4-1.3-1-1.5c-1.1-0.3-2.2-0.5-3.2-0.8c-0.6-0.2-0.6-0.6-0.1-1.2
		c0.8-0.9,1.5-1.7,2.4-2.5c0.3-0.3,0.3-0.5,0.1-0.8c-1-1-2-2-3-3c-0.6-0.5-0.3-0.9,0.3-1.3c0.9-0.6,1.9-1.2,2.8-1.9
		c0.3-0.3,0.6-0.7,0.6-1.1c0.2-1.3,0.3-2.7,0.4-4c0-0.4,0-0.5,0.3-0.4l0.6,0.2c-0.3-0.1-0.6,0-0.6,0.4l-0.1,5.3
		c0,0.4-0.1,0.8-0.2,0.9l-1.8,1.4c-0.5,0.3-0.6,0.8-0.3,1.2c0.7,0.9,1.4,1.6,2.2,2.4c0.3,0.3,0.4,0.6,0.3,0.7
		c-0.3,0.8-0.6,1.6-0.9,2.4c-0.1,0.4,0.1,0.6,0.4,0.7l1.9,1c0.1,0.1,0.2,0.3,0.3,0.5l0.8,3.5c0.1,0.4,0.4,0.6,1,0.5l3.8-0.5
		c0.3-0.1,0.6-0.1,0.7,0.2l3,4.9c0.2,0.3,0.5,0.2,0.8,0.1l4-1.8c0.1-0.1,0.3-0.2,0.6,0L127.9,160.1z"/>
	<path class="st14" d="M145.8,144.1c0.3-0.2,0.5-0.4,0.1-0.7c-4.7-3.3-9.4-6.6-14.1-9.9c-1.2-0.8-2.5-1.4-3.9-1.9
		c-4.7-2-9.6-3.7-14.3-5.7c-0.5-0.2-0.9-0.2-0.7,0.3c-0.4-0.8,0-0.9,0.8-0.6c5.4,1.9,10.7,3.6,16.1,5.6c0.8,0.3,1.5,0.6,2.2,1.1
		c5.1,3.3,10.2,6.7,15.3,10c0.3,0.2,0.5,0.4,0.6,0.6c0.2,0.3,0.4,0.6,0.1,0.9c-0.2,0.2-0.3,0.4-0.6,0.5
		C147.1,144.3,146.4,144.2,145.8,144.1L145.8,144.1z"/>
	<path class="st0" d="M147.3,142.2c-5.1-3.3-10.2-6.7-15.3-10c-0.7-0.4-1.4-0.8-2.2-1.1c-5.3-1.9-10.7-3.7-16.1-5.6
		c-0.8-0.3-1.2-0.2-0.8,0.6c0,0.1,0,0.1,0.1,0.2l2,4.4c0.1,0.4,0.5,0.8,0.5,1.2c0,0.3-0.3,0.5-0.5,0.8c-0.4,0.4-0.7,0.4-1.1,0.2
		l-8.4-3c-0.3-0.1-0.2,0.2-0.2,0.3c0,0.4,0,0.7,0,1.1c0,0.3,0.1,0.3,0.3,0.4c0.3,0.1,7.8,3.5,9.1,4.3c0.1,0.1,0,0.2-0.1,0.1
		c-2-0.7-4-1.3-6-1.9c-0.1,0-0.2-0.1-0.2-0.1l-0.6-0.2c-0.3-0.1-0.3,0.1-0.3,0.4c0,1.4-0.2,2.7-0.4,4c-0.1,0.4-0.3,0.8-0.6,1.1
		c-0.8,0.7-1.8,1.3-2.8,1.9c-0.6,0.4-0.9,0.7-0.3,1.3c1,1,2,2,3,3c0.3,0.3,0.3,0.5-0.1,0.8c-0.8,0.8-1.6,1.7-2.4,2.5
		c-0.4,0.5-0.5,1,0.1,1.2c1.1,0.3,2.2,0.5,3.2,0.8c0.6,0.2,0.9,0.7,1,1.5c0.2,1.2,0.3,2.4,0.6,3.6c0.1,0.5,0.5,0.7,1.3,0.6
		c1.4-0.2,2.8-0.4,4.2-0.5c0.4,0,0.8,0.2,1,0.7l2.4,4.3c0.3,0.7,0.8,0.7,1.3,0.4l4.8-2.5c0.4-0.2,0.7,0,1.1,0.3l3.5,3.4
		c0.5,0.5,0.7,0.1,1-0.3c0.9-1.4,1.8-2.7,2.7-4.1c0.2-0.2,0.8-0.4,1.1-0.2c1.4,1.2,2.5,2,3.2,2.6c0.5,0.4,0.9,0.2,1-0.4
		c0.1-0.9,0.3-1.8,0.4-2.7c0.1-0.7,0.5-0.9,1-0.9c1.2-0.1,2.4-0.1,3.6-0.1c0.4,0,0.5-0.1,0.1-0.4c-0.7-0.5-1.5-1.1-2.2-1.6
		c-0.5-0.5-0.9-0.9-1.7-1.5c-3.8,0.2-8,0.4-11.7,0.6c-1.7,0-1.9-0.4-1.9-1.4c0-1.1,0-2.3,0-3.4c0-0.7,0.5-1,1.1-1.2
		c3.1-1.1,6.1-2.2,9.2-3.3c0.3-0.2,1.2,0,2.5,0.3c2.4,0.6,4.9,1.1,7.3,1.7c0.4,0.2,0.6-0.2,0.6-0.5c0.1-0.3,0-0.5,0-0.8
		c-0.1-0.2-0.1-0.4-0.4-0.5c-1.6-0.6-3.8-0.9-5.4-1.5c-0.2-0.1-0.1-0.3,0.1-0.3c1.9,0.3,3.8,0.6,5.7,0.9c0.6,0.1,1.3,0.3,1.6,0.2
		c0.3-0.1,0.5-0.3,0.6-0.5c0.2-0.4,0-0.6-0.1-0.9C147.8,142.6,147.6,142.4,147.3,142.2L147.3,142.2z M135.5,147
		c-2.7,1-5.1,1.8-7.8,2.9c-0.2,0.1-0.5,0.3-0.5,0.5c0,0.5,0,0.5,0,0.9c0,0.3,0.1,0.4,0.7,0.3c3.8-0.2,6-0.2,9.8-0.4l1,0
		c0.5,0,0.8,0.1,1.3,0.5c0.6,0.5,1.1,0.9,1.7,1.4c0.7,0.5,1.5,1,2.3,1.6c0.9,0.6,3,2,2.9,2.8c-0.1,1-1.1,1.1-2,1.1
		c-0.7,0-3.7,0.3-4.4,0.3c-0.4,0-0.6,0.1-0.7,0.6c-0.1,0.6-0.1,1.7-0.2,2.4c0,0.8-0.4,1.9-1.2,2.2c-0.5,0.2-2.2-0.8-3.1-1.5
		c-0.7-0.5-1.1-0.7-1.8-1.2c-0.4-0.3-0.6-0.1-0.8,0.2c-0.5,0.8-1.1,1.7-1.6,2.5c-0.4,0.7-1.2,2-1.9,2c-0.6,0.1-1.5-0.9-2.1-1.5
		l-2.6-2.3c-0.5-0.4-0.8-0.4-1.3-0.1l-3.1,1.7c-2.5,1.3-2.9,1.3-3.7-0.3l-2.3-4.7c-0.1-0.1-0.4-0.2-0.6-0.2c-1.2,0.1-3,0.4-4.1,0.5
		c-1.6,0.2-1.9,0.4-2.3-1.3c-0.2-1.2-0.5-3.1-0.7-4.3c-0.1-0.4-0.3-0.5-0.6-0.6c-0.8-0.2-1.5-0.4-2.2-0.6c-1.1-0.3-2.6-0.7-2.8-1.5
		c-0.2-0.8,1-2,1.7-2.8c0.4-0.4,0.9-1,1.4-1.4c0.1-0.1,0.2-0.4,0-0.6c-0.6-0.7-1.9-2.1-2.6-2.7c-1.4-1.4-0.6-2.1,1.1-3.2
		c0.7-0.4,1.7-1.1,2.3-1.6c0.3-0.2,0.4-0.3,0.4-0.5c0.1-1.2,0.3-2,0.4-3.1c0-0.4-0.1-0.6-0.4-0.8c-1.5-0.6-2.3-0.6-2.3-2.6
		c0-0.4,0-3.3,0-3.7c0-1,0.5-1.3,2-0.7l1.5,0.6l5,2c0.5,0.2,1.1-0.1,0.9-0.5l-0.8-1.9c0-0.1-0.1-0.2-0.1-0.3
		c-0.4-0.9-1.9-3.3-1.1-4.1c0.8-0.9,3.4,0.4,4.5,0.8c5.4,1.9,10.7,3.6,16.1,5.6c0.9,0.3,1.8,0.7,2.6,1.3c5.2,3.4,11.1,7.1,16.1,10.5
		c1,0.7,1.3,1.4,1,2.5l-0.5,1.5l-0.2,0.7c0,0.5-0.4,0.9-1,0.8c-0.4,0-0.6,0.1-0.8,0.4l-0.3,1.5c-0.1,0.7-0.5,1.2-2,0.8
		c-2.4-0.7-6.2-1.6-8.6-2.2C136.4,146.9,135.9,146.9,135.5,147L135.5,147z"/>
	<path class="st3" d="M147.9,150.9c4.1,1.6,7.8,4.7,9.8,8.7c1.4,2.8,0.9,5.6-1.3,7.9c-2.4,2.5-5.7,4.5-8.9,5.9
		c-2.2,0.9-5.2,2-6.7,3.9c-2.5,3.2-1.9,7.9-0.7,11.5l0,0l0,0c0.3,1.1,0,2.3-1,2.9c-0.9,0.5-2,0.3-2.8-0.4c-3.1-2.9-5.5-6.3-5.3-10.7
		c0.2-6.8,4.8-11.7,10.9-14c0.4-0.2,0.8-0.3,1.2-0.4c1.8-0.6,6.6-2.1,7-4.3c0.5-2.6-2.7-5.6-4.5-7.1c-0.3-0.3-0.6-0.7-0.7-1.1
		c-0.6-1.8,1-3.4,2.9-2.9L147.9,150.9L147.9,150.9z"/>
	<path class="st6" d="M147.2,152.9c3.5,1.3,6.9,4,8.6,7.7c1,2,0.7,3.8-1,5.5c-1.8,1.9-4.7,3.8-8.2,5.4c-2.9,1.3-5.8,2.3-7.5,4.5
		c-2.7,3.6-2.6,8.6-1.1,13.4c0.1,0.5-0.1,0.7-0.4,0.4c-2.9-2.7-4.8-5.5-4.7-9.1c0.2-5.7,3.9-10,9.6-12.1c4.2-1.5,8.9-2.8,9.6-6.2
		c0.6-2.8-1.3-5.9-5.2-9.1C146.9,153.1,146.7,152.7,147.2,152.9L147.2,152.9z"/>
	<polygon class="st15" points="162.8,66.9 37.4,67 37.4,67.7 162.8,67.7 	"/>
</g>
</svg>
