<?xml version="1.0" encoding="utf-8"?>
<!-- Generator: Adobe Illustrator 21.1.0, SVG Export Plug-In . SVG Version: 6.00 Build 0)  -->
<svg version="1.1" id="Layer_1" xmlns="http://www.w3.org/2000/svg" xmlns:xlink="http://www.w3.org/1999/xlink" x="0px" y="0px"
	 viewBox="0 0 200 200" style="enable-background:new 0 0 200 200;" xml:space="preserve">
<style type="text/css">
	.st0{fill:url(#SVGID_1_);}
	.st1{fill:#003B5E;}
	.st2{fill:url(#SVGID_2_);}
	.st3{fill:#53B5E0;}
	.st4{fill:#A8D9ED;}
	.st5{fill:#B9DBEB;}
	.st6{fill:#088AC5;}
	.st7{fill:#A5CEDF;}
	.st8{fill:#2E8BBA;}
	.st9{fill:#0987B4;}
	.st10{fill:#00639D;}
	.st11{fill:#A9C8D9;}
	.st12{fill:#267CA7;}
	.st13{fill:#6BA2BF;}
	.st14{fill:#004B80;}
	.st15{fill:#3A91BC;}
	.st16{fill:#3FADDD;}
	.st17{fill:#52B2DF;}
	.st18{fill:#209AD2;}
	.st19{fill:#0185C2;}
	.st20{fill:#006B99;}
	.st21{fill:#95C0CE;}
	.st22{fill:#00497D;}
	.st23{fill:#111211;}
	.st24{fill:#477D95;}
	.st25{fill:#004E88;}
	.st26{fill:none;}
	.st27{fill:url(#SVGID_3_);}
	.st28{fill:url(#SVGID_4_);}
	.st29{fill:url(#SVGID_5_);}
	.st30{fill:url(#SVGID_6_);}
	.st31{fill:url(#SVGID_7_);}
	.st32{fill:url(#SVGID_8_);}
	.st33{fill:url(#SVGID_9_);}
	.st34{fill:url(#SVGID_10_);}
	.st35{fill:url(#SVGID_11_);}
	.st36{fill:url(#SVGID_12_);}
	.st37{fill:url(#SVGID_13_);}
	.st38{fill:url(#SVGID_14_);}
	.st39{fill:#80A7C6;stroke:#80A7C6;stroke-width:2.1802;stroke-linejoin:round;}
	.st40{fill:#004F8A;}
	.st41{fill:#003760;stroke:#003760;stroke-width:2.1802;stroke-linejoin:round;}
	.st42{fill:#003760;}
	.st43{fill:#141515;}
	.st44{fill:url(#SVGID_15_);}
	.st45{fill:url(#SVGID_16_);}
	.st46{fill:url(#SVGID_17_);}
	.st47{fill:url(#SVGID_18_);}
	.st48{fill:url(#SVGID_19_);}
	.st49{fill:url(#SVGID_20_);}
	.st50{fill:url(#SVGID_21_);}
	.st51{fill:url(#SVGID_22_);}
	.st52{fill:url(#SVGID_23_);}
	.st53{fill:url(#SVGID_24_);}
	.st54{fill:url(#SVGID_25_);}
	.st55{fill:#121312;}
	.st56{fill:#00437A;}
	.st57{fill:url(#SVGID_26_);}
	.st58{fill:url(#SVGID_27_);}
	.st59{fill:url(#SVGID_28_);}
	.st60{fill:url(#SVGID_29_);}
	.st61{fill:url(#SVGID_30_);}
	.st62{fill:#004B72;}
	.st63{fill:#00335B;}
	.st64{fill:#2D6085;}
	.st65{fill:url(#SVGID_31_);}
	.st66{fill:url(#SVGID_32_);}
	.st67{fill:url(#SVGID_33_);}
	.st68{fill:#5289B3;}
	.st69{fill:url(#SVGID_34_);}
	.st70{fill:url(#SVGID_35_);}
	.st71{fill:url(#SVGID_36_);}
	.st72{fill:url(#SVGID_37_);}
	.st73{fill:url(#SVGID_38_);}
	.st74{fill:url(#SVGID_39_);}
	.st75{fill:url(#SVGID_40_);}
	.st76{fill:#749FC0;}
	.st77{fill:url(#SVGID_41_);}
	.st78{fill:url(#SVGID_42_);}
	.st79{fill:url(#SVGID_43_);}
	.st80{fill:url(#SVGID_44_);}
	.st81{fill:url(#SVGID_45_);}
</style>
<g>
	<g>
		
			<linearGradient id="SVGID_1_" gradientUnits="userSpaceOnUse" x1="37.8965" y1="102" x2="162.1035" y2="102" gradientTransform="matrix(1 0 0 -1 0 202)">
			<stop  offset="0" style="stop-color:#477D95"/>
			<stop  offset="9.029999e-02" style="stop-color:#407790"/>
			<stop  offset="0.2233" style="stop-color:#2D6682"/>
			<stop  offset="0.3817" style="stop-color:#034D6D"/>
			<stop  offset="0.4831" style="stop-color:#003E60"/>
			<stop  offset="0.5614" style="stop-color:#014E6E"/>
			<stop  offset="0.663" style="stop-color:#27617E"/>
			<stop  offset="0.7681" style="stop-color:#39708B"/>
			<stop  offset="0.878" style="stop-color:#437A92"/>
			<stop  offset="1" style="stop-color:#477D95"/>
		</linearGradient>
		<ellipse class="st0" cx="100" cy="100" rx="62.1" ry="100"/>
		<g>
			<ellipse class="st1" cx="99.8" cy="99.7" rx="60" ry="97.8"/>
			
				<radialGradient id="SVGID_2_" cx="99.7423" cy="101.8888" r="76.8994" gradientTransform="matrix(1 0 0 -1 0 202)" gradientUnits="userSpaceOnUse">
				<stop  offset="0" style="stop-color:#E9F5FB"/>
				<stop  offset="0.2782" style="stop-color:#E4F3F9"/>
				<stop  offset="0.6704" style="stop-color:#D3EBF5"/>
				<stop  offset="1" style="stop-color:#C0E3EF"/>
			</radialGradient>
			<ellipse class="st2" cx="99.7" cy="100.1" rx="58.1" ry="91.9"/>
		</g>
	</g>
	<g>
		<path class="st3" d="M71.8,25.2l2.3-5.4l-3.8,3.8c-0.7,0.7-17.4,17.5-21.7,41l-0.8,4.6l3.1-4.2C54.9,41.9,71.8,25.2,71.8,25.2z"/>
		<polygon class="st4" points="71.8,25.2 71.8,57.5 74.1,59.4 74.1,57.5 74.1,19.8 		"/>
		<path class="st5" d="M50.7,65l-3.1,4.2l4.1-2.2c10.5-5.5,20.3-7.3,20.4-7.3l1.9-0.3l-2.3-1.9C71.8,57.5,61.6,59.2,50.7,65z"/>
		<path class="st6" d="M50.7,65c10.9-5.8,21.1-7.5,21.1-7.5V25.2C71.8,25.2,54.9,41.9,50.7,65z"/>
	</g>
	<g>
		<path class="st7" d="M110.7,56.1l2.3,2.3l-0.1-43.2l-2.3,1.8C110.6,25,110.7,56.1,110.7,56.1z"/>
		<path class="st8" d="M110.6,17l2.3-1.8l-1.8-0.4c-9.5-2.1-19.5-0.6-22.4-0.1l-1.9,0.3l2.3,1.9C93,16.2,102.2,15.1,110.6,17z"/>
		<path class="st5" d="M110.7,56.1c0,0-3.8-3.8-11.3-3.8c-3.2,0-10.3,3.8-10.3,3.8l-2.3,2.3c0,0,4.3-1,12.7-1s13.4,1,13.4,1
			L110.7,56.1z"/>
		<polygon class="st9" points="89.1,16.8 86.9,14.9 86.9,58.3 89.1,56.1 		"/>
		<path class="st10" d="M89.1,16.8v39.2c0,0,2.6-1,10.5-1c7.9,0,11,1,11,1S110.6,25,110.6,17C102.2,15.1,93,16.2,89.1,16.8z"/>
	</g>
	<g>
		<path class="st11" d="M127.8,25.1l-2.3-5.4l3.8,3.8c0.7,0.7,17.4,17.5,21.7,41l0.8,4.6l-3.1-4.2C144.7,41.8,127.8,25.1,127.8,25.1
			z"/>
		<polygon class="st12" points="127.8,25.1 127.8,57.4 125.6,59.3 125.6,57.4 125.6,19.7 		"/>
		<path class="st13" d="M149,64.9l3.1,4.2l-4.1-2.2c-10.5-5.5-20.3-7.3-20.4-7.3l-1.9-0.3l2.3-1.9C127.8,57.4,138,59.1,149,64.9z"/>
		<path class="st14" d="M149,64.9c-10.9-5.8-21.1-7.5-21.1-7.5V25.1C127.8,25.1,144.7,41.8,149,64.9z"/>
	</g>
	<g>
		<path class="st7" d="M111,103.5l2.3-2.3l-0.1,73.5l-2.3-1.8C110.9,164.8,111,103.5,111,103.5z"/>
		<path class="st5" d="M110.9,172.9l2.3,1.8l-1.8,0.4c-9.5,2.1-19.5,0.6-22.4,0.1l-1.9-0.3l2.3-1.9
			C93.4,173.7,102.6,174.8,110.9,172.9z"/>
		<path class="st15" d="M111,103.5H89.4l-2.3-2.3c0,0,5.7-1.2,12.8-1.2c7,0,13.3,1.2,13.3,1.2L111,103.5z"/>
		<polygon class="st9" points="89.4,173 87.2,174.9 87.2,101.2 89.4,103.5 		"/>
		<path class="st10" d="M89.4,173v-69.6c0,0,4.4-1,10.9-1c6.5,0,10.6,1,10.6,1s-0.1,61.4-0.1,69.4C102.6,174.8,93.4,173.7,89.4,173z
			"/>
	</g>
	<g>
		<path class="st16" d="M50.6,115.9l-2.7-1.4l0.3,1.8c0.6,3.3,1.2,6.6,1.8,10.8c0.5,3.3,1.1,7,1.9,11.9l0,0.2l2.3-0.6
			C52.5,127.5,51.8,121.9,50.6,115.9z"/>
		<path class="st17" d="M72.1,107.1l2.4-3.2l-2.4,0.5c-0.4,0-9.5,1.6-22.8,9.2l-1.4,0.9l2.7,1.4C64.1,107.2,72.1,107.1,72.1,107.1z"
			/>
		<path class="st18" d="M54.3,138.7l-2.3,0.6l0.1,0.2c7.3,18.8,18,28.1,18.4,28.5l4,3.2l-2.4-5C72.1,166.2,61.5,157.1,54.3,138.7z"
			/>
		<polygon class="st4" points="72.1,107.1 72.1,166.2 74.5,171.2 74.5,104 		"/>
		<path class="st19" d="M54.3,138.7c7.2,18.4,17.7,27.6,17.7,27.6v-59.1c0,0-8,0.1-21.5,8.8C51.8,121.9,52.5,127.5,54.3,138.7z"/>
	</g>
	<g>
		<path class="st11" d="M149.3,115.8l2.7-1.4l-0.3,1.8c-0.6,3.3-1.2,6.6-1.8,10.8c-0.5,3.3-1.1,7-1.9,11.9l0,0.2l-2.3-0.6
			C147.5,127.4,148.2,121.7,149.3,115.8z"/>
		<path class="st20" d="M127.9,107l-2.4-3.2l2.4,0.5c0.4,0,9.5,1.6,22.8,9.2l1.4,0.9l-2.7,1.4C135.9,107.1,127.9,107,127.9,107z"/>
		<path class="st21" d="M145.6,138.5l2.3,0.6l-0.1,0.2c-7.3,18.8-18,28.1-18.4,28.5l-4,3.2l2.4-5C127.9,166.1,138.4,157,145.6,138.5
			z"/>
		<polygon class="st12" points="127.9,107 127.9,166.1 125.5,171.1 125.5,103.8 		"/>
		<path class="st22" d="M145.6,138.5c-7.2,18.4-17.7,27.6-17.7,27.6V107c0,0,8,0.1,21.5,8.8C148.2,121.7,147.5,127.4,145.6,138.5z"
			/>
	</g>
	<path class="st7" d="M86,180.5c0.2-0.1,0.4-0.3,0.6-0.5l-0.2-0.5c-0.2,0.2-0.4,0.4-0.6,0.5c-0.3,0.1-0.6,0.2-0.9,0.3l0.5,0.4
		C85.6,180.7,85.8,180.6,86,180.5z"/>
	<path class="st23" d="M87.6,180c0,0.8,0,4.2,0,5l0.5,0.5v-5.9L87.6,180z"/>
	<path class="st24" d="M87.6,180l0.5-0.5h-1.7l0.2,0.5C86.9,180,87.2,180,87.6,180z"/>
	<path class="st7" d="M85.4,180.7l-0.5-0.4v1.5l0.5-0.6C85.4,181,85.4,180.9,85.4,180.7z"/>
	<path class="st23" d="M85.4,181.3l-0.5,0.6v0c0.2,0,0.4,0,0.6-0.1c0.2,0,0.4-0.1,0.6-0.2l0.5-0.6C86.5,181,85.4,181.3,85.4,181.3z"
		/>
	<path class="st23" d="M86.5,185l-0.5,0.5h2.1l-0.5-0.5C87.2,185,86.9,185,86.5,185z"/>
	<path class="st7" d="M86.5,181.6l0-0.6l-0.5,0.6v3.8l0.5-0.5C86.5,184.2,86.5,181.6,86.5,181.6z"/>
	<path class="st25" d="M86,180.5c-0.2,0.1-0.4,0.2-0.7,0.3c0,0.2,0,0.3,0,0.5c0.1,0,1.1-0.3,1.1-0.3l0,0.6c0,0,0,2.6,0,3.4
		c0.4,0,0.7,0,1.1,0c0-0.8,0-4.2,0-5c-0.4,0-0.8,0-1,0C86.5,180.2,86.3,180.3,86,180.5z"/>
	<path class="st26" d="M94.7,181c-0.2-0.1-0.5-0.1-0.9-0.1c-0.4,0-0.7,0-0.9,0.1c-0.2,0.1-0.3,0.2-0.3,0.5c0,0.2,0.1,0.4,0.3,0.5
		c0.2,0.1,0.5,0.1,0.9,0.1c0.4,0,0.7,0,0.9-0.1c0.2-0.1,0.3-0.2,0.3-0.4C95,181.2,94.9,181.1,94.7,181z"/>
	<path class="st24" d="M92.4,184.2l0.3-0.5h-2.4l0.7,0.5C91.5,184.2,92.1,184.2,92.4,184.2z"/>
	
		<linearGradient id="SVGID_3_" gradientUnits="userSpaceOnUse" x1="90.1721" y1="19.5154" x2="97.5549" y2="19.5154" gradientTransform="matrix(1 0 0 -1 0 202)">
		<stop  offset="4.100000e-03" style="stop-color:#79ADCF"/>
		<stop  offset="5.640000e-02" style="stop-color:#73A7CA"/>
		<stop  offset="0.1312" style="stop-color:#6595BA"/>
		<stop  offset="0.2194" style="stop-color:#4F7BA1"/>
		<stop  offset="0.3179" style="stop-color:#315A82"/>
		<stop  offset="0.4237" style="stop-color:#003A63"/>
		<stop  offset="0.4339" style="stop-color:#003760"/>
		<stop  offset="0.9835" style="stop-color:#141515"/>
	</linearGradient>
	<path class="st27" d="M96.6,180.1c-0.6-0.5-1.6-0.7-3-0.7c-1.1,0-2,0.2-2.6,0.5c-0.6,0.4-0.9,0.9-0.9,1.6c0,0.6,0.3,1.1,0.8,1.5
		c0.5,0.3,1.3,0.5,2.4,0.5c0.3,0,0.7,0,1-0.1c0.3-0.1,0.6-0.1,0.8-0.3l0.6-0.8l-0.8,0.4c-0.2,0.1-0.5,0.2-0.7,0.2
		c-0.3,0.1-0.6,0.1-0.9,0.1c-1,0-1.7-0.1-2.1-0.4c-0.4-0.2-0.6-0.6-0.6-1.1c0-0.5,0.2-0.9,0.6-1.2c0.5-0.3,1.3-0.5,2.3-0.5
		c1.3,0,2.2,0.2,2.7,0.6c0.5,0.4,0.8,1.1,0.8,2c0,0.9-0.2,1.6-0.8,2c-0.5,0.4-1.4,0.7-2.5,0.7c-1,0-1.8-0.1-2.3-0.4
		c-0.2-0.1-0.4-0.3-0.5-0.5l-0.7-0.5c0.1,0.6,0.4,1.1,1,1.4c0.6,0.3,1.4,0.5,2.5,0.5c1.3,0,2.2-0.3,2.8-0.8c0.6-0.5,0.9-1.3,0.9-2.4
		C97.6,181.4,97.2,180.6,96.6,180.1z"/>
	
		<linearGradient id="SVGID_4_" gradientUnits="userSpaceOnUse" x1="92.1328" y1="20.5596" x2="95.4856" y2="20.5596" gradientTransform="matrix(1 0 0 -1 0 202)">
		<stop  offset="4.100000e-03" style="stop-color:#79ADCF"/>
		<stop  offset="5.640000e-02" style="stop-color:#73A7CA"/>
		<stop  offset="0.1312" style="stop-color:#6595BA"/>
		<stop  offset="0.2194" style="stop-color:#4F7BA1"/>
		<stop  offset="0.3179" style="stop-color:#315A82"/>
		<stop  offset="0.4237" style="stop-color:#003A63"/>
		<stop  offset="0.4339" style="stop-color:#003760"/>
		<stop  offset="0.9835" style="stop-color:#141515"/>
	</linearGradient>
	<path class="st28" d="M94.9,180.6c-0.3-0.1-0.6-0.2-1.1-0.2c-0.5,0-0.9,0.1-1.1,0.2c-0.4,0.2-0.6,0.5-0.6,0.9
		c0,0.4,0.2,0.7,0.6,0.9c0.3,0.1,0.6,0.2,1.1,0.2c0.5,0,0.8-0.1,1.1-0.2c0.4-0.2,0.6-0.5,0.6-0.9C95.5,181.1,95.3,180.7,94.9,180.6z
		 M94.7,181.9c-0.2,0.1-0.5,0.1-0.9,0.1c-0.4,0-0.7,0-0.9-0.1c-0.2-0.1-0.3-0.2-0.3-0.5c0-0.2,0.1-0.4,0.3-0.5
		c0.2-0.1,0.5-0.1,0.9-0.1c0.4,0,0.7,0.1,0.9,0.1c0.2,0.1,0.3,0.2,0.3,0.5C95,181.6,94.9,181.8,94.7,181.9z"/>
	
		<linearGradient id="SVGID_5_" gradientUnits="userSpaceOnUse" x1="92.3704" y1="18.5553" x2="95.8427" y2="18.5553" gradientTransform="matrix(1 0 0 -1 0 202)">
		<stop  offset="4.100000e-03" style="stop-color:#79ADCF"/>
		<stop  offset="0.2001" style="stop-color:#78ABCD"/>
		<stop  offset="0.2861" style="stop-color:#73A4C4"/>
		<stop  offset="0.3506" style="stop-color:#6C98B5"/>
		<stop  offset="0.4043" style="stop-color:#6287A0"/>
		<stop  offset="0.4514" style="stop-color:#557387"/>
		<stop  offset="0.4938" style="stop-color:#465C6C"/>
		<stop  offset="0.5327" style="stop-color:#36444F"/>
		<stop  offset="0.5678" style="stop-color:#252C33"/>
		<stop  offset="0.5785" style="stop-color:#1E242A"/>
		<stop  offset="0.843" style="stop-color:#004F8A"/>
		<stop  offset="1" style="stop-color:#79ADCF"/>
	</linearGradient>
	<path class="st29" d="M92.8,184.5c0.2,0.1,0.5,0.1,0.9,0.1c0.6,0,1-0.1,1.3-0.3c0.4-0.2,0.6-0.6,0.7-1.1l0.1-0.9l-0.6,0.8
		c-0.1,0.4-0.2,0.6-0.5,0.8c-0.2,0.2-0.6,0.3-1,0.3c-0.3,0-0.6,0-0.8-0.1c-0.2-0.1-0.3-0.2-0.3-0.3l-0.3,0.5
		C92.5,184.3,92.6,184.4,92.8,184.5z"/>
	<path class="st25" d="M95,184.3c-0.3,0.2-0.8,0.3-1.3,0.3c-0.4,0-0.7,0-0.9-0.1c-0.2-0.1-0.3-0.2-0.4-0.3c-0.3,0-0.9,0-1.4,0
		c0.1,0.2,0.3,0.4,0.5,0.5c0.5,0.3,1.3,0.4,2.3,0.4c1.2,0,2-0.2,2.5-0.7c0.5-0.4,0.8-1.1,0.8-2c0-0.9-0.2-1.6-0.8-2
		c-0.5-0.4-1.4-0.6-2.7-0.6c-1,0-1.8,0.2-2.3,0.5c-0.4,0.3-0.6,0.6-0.6,1.2c0,0.5,0.2,0.8,0.6,1.1c0.5,0.3,1.2,0.4,2.1,0.4
		c0.3,0,0.6,0,0.9-0.1c0.3,0,0.5-0.1,0.7-0.2l0.8-0.4l-0.1,0.9C95.6,183.7,95.4,184,95,184.3z M94.9,182.3c-0.3,0.1-0.6,0.2-1.1,0.2
		c-0.5,0-0.9-0.1-1.1-0.2c-0.4-0.2-0.6-0.5-0.6-0.9c0-0.4,0.2-0.7,0.6-0.9c0.3-0.1,0.6-0.2,1.1-0.2c0.5,0,0.8,0.1,1.1,0.2
		c0.4,0.2,0.6,0.5,0.6,0.9C95.5,181.8,95.3,182.1,94.9,182.3z"/>
	
		<linearGradient id="SVGID_6_" gradientUnits="userSpaceOnUse" x1="110.4427" y1="21.6354" x2="110.4427" y2="16.5468" gradientTransform="matrix(1 0 0 -1 0 202)">
		<stop  offset="4.100000e-03" style="stop-color:#79ADCF"/>
		<stop  offset="5.640000e-02" style="stop-color:#73A7CA"/>
		<stop  offset="0.1312" style="stop-color:#6595BA"/>
		<stop  offset="0.2194" style="stop-color:#4F7BA1"/>
		<stop  offset="0.3179" style="stop-color:#315A82"/>
		<stop  offset="0.4237" style="stop-color:#003A63"/>
		<stop  offset="0.4339" style="stop-color:#003760"/>
		<stop  offset="0.9835" style="stop-color:#141515"/>
	</linearGradient>
	<path class="st30" d="M108.8,183.6c0.4-0.4,1.1-0.8,2-1c0,0,0.9-0.2,0.9-0.2c0.8-0.2,1.6-0.4,1.6-1.1c0-0.4-0.2-0.6-0.5-0.8
		c-0.2-0.1-0.6-0.2-1-0.2c-0.5,0-1,0.1-1.2,0.3c-0.2,0.1-0.4,0.3-0.5,0.6l0.4,0.5c0-0.3,0.1-0.5,0.3-0.6c0.2-0.1,0.5-0.2,1-0.2
		c0.3,0,0.6,0,0.8,0.1c0.2,0.1,0.3,0.2,0.3,0.4c0,0.2-0.4,0.4-1.2,0.6c-0.4,0.1-0.7,0.1-0.9,0.2c-1,0.2-1.8,0.6-2.2,1.1
		c-0.5,0.5-0.7,1.2-0.8,2.2l0.5-0.5C108.3,184.4,108.5,183.9,108.8,183.6z"/>
	
		<linearGradient id="SVGID_7_" gradientUnits="userSpaceOnUse" x1="110.1201" y1="22.8078" x2="112.7177" y2="18.3085" gradientTransform="matrix(1 0 0 -1 0 202)">
		<stop  offset="4.100000e-03" style="stop-color:#79ADCF"/>
		<stop  offset="5.640000e-02" style="stop-color:#73A7CA"/>
		<stop  offset="0.1312" style="stop-color:#6595BA"/>
		<stop  offset="0.2194" style="stop-color:#4F7BA1"/>
		<stop  offset="0.3179" style="stop-color:#315A82"/>
		<stop  offset="0.4237" style="stop-color:#003A63"/>
		<stop  offset="0.4339" style="stop-color:#003760"/>
		<stop  offset="0.9835" style="stop-color:#141515"/>
	</linearGradient>
	<path class="st31" d="M109.1,180.4c0.5-0.3,1.3-0.5,2.4-0.5c1.1,0,2,0.1,2.5,0.4c0.5,0.2,0.7,0.6,0.7,1c0,0.4-0.1,0.6-0.3,0.8
		c-0.2,0.2-0.5,0.4-1.3,0.5l-1.1,0.2c-1.5,0.3-1.9,0.5-2.1,0.7l-0.9,0.8l1.2-0.5c0.2-0.2,0.8-0.4,1.9-0.6c0.5-0.1,0.8-0.2,1.1-0.2
		c0.7-0.2,1.2-0.4,1.6-0.7c0.3-0.3,0.5-0.7,0.5-1.2c0-0.6-0.3-1.1-0.9-1.5c-0.6-0.3-1.5-0.5-2.8-0.5c-1.2,0-2.1,0.2-2.7,0.6
		c-0.6,0.4-0.9,1-1,1.8l0.6-0.5C108.6,180.8,108.8,180.6,109.1,180.4z"/>
	<path class="st23" d="M108.5,181.2l-0.6,0.5h2.6v0l-0.4-0.5C109.6,181.2,109,181.2,108.5,181.2z"/>
	<path class="st24" d="M109,184.4c0,0,4.8,0,5.6,0l0.5-0.5h-4.9L109,184.4z"/>
	<path class="st23" d="M114.6,185C114.6,185,114.6,185,114.6,185l0.5,0.5v-1.5l-0.5,0.5C114.6,184.7,114.6,184.7,114.6,185z"/>
	<path class="st23" d="M108.2,185l-0.5,0.5h7.4l-0.5-0.5C113.7,185,109.1,185,108.2,185z"/>
	<path class="st25" d="M112,182.9l1.1-0.2c0.8-0.2,1.2-0.4,1.3-0.5c0.2-0.2,0.3-0.4,0.3-0.8c0-0.5-0.2-0.8-0.7-1
		c-0.5-0.3-1.4-0.4-2.5-0.4c-1.1,0-1.9,0.2-2.4,0.5c-0.3,0.2-0.5,0.5-0.6,0.8c0.6,0,1.2,0,1.6,0c0.1-0.2,0.2-0.4,0.5-0.6
		c0.3-0.2,0.7-0.3,1.2-0.3c0.4,0,0.7,0.1,1,0.2c0.3,0.2,0.5,0.5,0.5,0.8c0,0.7-0.8,0.9-1.6,1.1c0,0-0.9,0.2-0.9,0.2
		c-0.9,0.2-1.6,0.6-2,1c-0.3,0.3-0.5,0.8-0.6,1.4c0.9,0,5.5,0,6.4,0c0,0,0,0,0,0c0-0.2,0-0.3,0-0.5c-0.8,0-5.6,0-5.6,0l0.9-0.8
		C110.1,183.4,110.5,183.1,112,182.9z"/>
	<g>
		<g>
			
				<radialGradient id="SVGID_8_" cx="99.8314" cy="101.8689" r="34.8492" gradientTransform="matrix(1 0 0 -1 0 202)" gradientUnits="userSpaceOnUse">
				<stop  offset="0" style="stop-color:#49422C"/>
				<stop  offset="0.2876" style="stop-color:#4C432B"/>
				<stop  offset="0.673" style="stop-color:#534727"/>
				<stop  offset="1" style="stop-color:#5B4D21"/>
			</radialGradient>
			<path class="st32" d="M148.8,105.6c-31.6-12.3-66.3-12.3-97.9-0.2c0-0.5,0-1.1,0-1.6c32-12.3,66.1-12.2,98,0.2
				C148.8,104.5,148.8,105.1,148.8,105.6z"/>
		</g>
		<g>
			
				<radialGradient id="SVGID_9_" cx="99.833" cy="102.9785" r="34.881" gradientTransform="matrix(1 0 0 -1 0 202)" gradientUnits="userSpaceOnUse">
				<stop  offset="0" style="stop-color:#CEB135"/>
				<stop  offset="0.1253" style="stop-color:#CFB23C"/>
				<stop  offset="0.2939" style="stop-color:#D0B54D"/>
				<stop  offset="0.4869" style="stop-color:#D4BC67"/>
				<stop  offset="0.6983" style="stop-color:#D8C589"/>
				<stop  offset="0.9221" style="stop-color:#DED1B3"/>
				<stop  offset="1" style="stop-color:#E0D6C2"/>
			</radialGradient>
			<path class="st33" d="M148.8,104.8c-31.6-12.3-66.3-12.3-98-0.2c0-0.5,0-1.8,0-2.2c32-12.3,66.1-12.4,98,0
				C148.8,102.9,148.8,104.4,148.8,104.8z"/>
		</g>
	</g>
	<path class="st26" d="M102.7,180.9c-0.4,0-0.8,0.1-1,0.4c-0.3,0.3-0.4,0.7-0.4,1.2c0,0.5,0.1,0.9,0.4,1.2c0.3,0.3,0.6,0.4,1,0.4
		c0.4,0,0.8-0.1,1-0.4c0.3-0.3,0.4-0.7,0.4-1.2c0-0.5-0.1-0.9-0.4-1.2S103.2,180.9,102.7,180.9z"/>
	
		<linearGradient id="SVGID_10_" gradientUnits="userSpaceOnUse" x1="100.1713" y1="22.0643" x2="105.2664" y2="16.9692" gradientTransform="matrix(1 0 0 -1 0 202)">
		<stop  offset="4.100000e-03" style="stop-color:#79ADCF"/>
		<stop  offset="5.640000e-02" style="stop-color:#73A7CA"/>
		<stop  offset="0.1312" style="stop-color:#6595BA"/>
		<stop  offset="0.2194" style="stop-color:#4F7BA1"/>
		<stop  offset="0.3179" style="stop-color:#315A82"/>
		<stop  offset="0.4237" style="stop-color:#003A63"/>
		<stop  offset="0.4339" style="stop-color:#003760"/>
		<stop  offset="0.9835" style="stop-color:#141515"/>
	</linearGradient>
	<path class="st34" d="M105.5,180.2c-0.7-0.5-1.6-0.8-2.8-0.8c-1.2,0-2.1,0.3-2.8,0.8c-0.7,0.5-1,1.3-1,2.3c0,1,0.3,1.8,1,2.3
		c0.7,0.5,1.6,0.8,2.8,0.8c1.2,0,2.1-0.3,2.8-0.8c0.7-0.5,1-1.3,1-2.3C106.5,181.5,106.1,180.7,105.5,180.2z M105.2,184.4
		c-0.6,0.5-1.4,0.7-2.4,0.7c-1.1,0-1.9-0.2-2.4-0.7c-0.5-0.5-0.8-1.1-0.8-1.9c0-0.9,0.3-1.5,0.8-1.9c0.6-0.5,1.4-0.7,2.4-0.7
		c1.1,0,1.9,0.2,2.4,0.7c0.5,0.5,0.8,1.1,0.8,1.9C106,183.3,105.7,184,105.2,184.4z"/>
	
		<linearGradient id="SVGID_11_" gradientUnits="userSpaceOnUse" x1="99.1111" y1="20.8285" x2="106.3257" y2="18.2026" gradientTransform="matrix(1 0 0 -1 0 202)">
		<stop  offset="4.100000e-03" style="stop-color:#79ADCF"/>
		<stop  offset="5.640000e-02" style="stop-color:#73A7CA"/>
		<stop  offset="0.1312" style="stop-color:#6595BA"/>
		<stop  offset="0.2194" style="stop-color:#4F7BA1"/>
		<stop  offset="0.3179" style="stop-color:#315A82"/>
		<stop  offset="0.4237" style="stop-color:#003A63"/>
		<stop  offset="0.4339" style="stop-color:#003760"/>
		<stop  offset="0.9835" style="stop-color:#141515"/>
	</linearGradient>
	<path class="st35" d="M103.5,180.6l-0.2,0.4L103.5,180.6c-0.2-0.1-0.5-0.2-0.8-0.2c-0.6,0-1.1,0.2-1.4,0.6
		c-0.3,0.4-0.5,0.9-0.5,1.5c0,0.6,0.2,1.1,0.5,1.5h0c0.4,0.4,0.8,0.6,1.4,0.6c0.6,0,1.1-0.2,1.4-0.6c0.3-0.4,0.5-0.9,0.5-1.5
		c0-0.6-0.2-1.1-0.5-1.5C104,180.8,103.8,180.7,103.5,180.6z M103.8,183.7c-0.3,0.3-0.6,0.4-1,0.4c-0.4,0-0.8-0.1-1-0.4
		c-0.3-0.3-0.4-0.7-0.4-1.2c0-0.5,0.1-0.9,0.4-1.2c0.3-0.3,0.6-0.4,1-0.4c0.4,0,0.8,0.1,1,0.4s0.4,0.7,0.4,1.2
		C104.1,183,104,183.4,103.8,183.7z"/>
	<path class="st25" d="M105.2,180.5c-0.6-0.5-1.4-0.7-2.4-0.7c-1.1,0-1.9,0.2-2.4,0.7c-0.5,0.5-0.8,1.1-0.8,1.9
		c0,0.9,0.3,1.5,0.8,1.9c0.6,0.5,1.4,0.7,2.4,0.7c1.1,0,1.9-0.2,2.4-0.7c0.5-0.5,0.8-1.1,0.8-1.9C106,181.6,105.7,181,105.2,180.5z
		 M104.1,184c-0.4,0.4-0.8,0.6-1.4,0.6c-0.6,0-1.1-0.2-1.4-0.6h0c-0.3-0.4-0.5-0.9-0.5-1.5c0-0.6,0.2-1.1,0.5-1.5
		c0.4-0.4,0.8-0.6,1.4-0.6c0.3,0,0.6,0.1,0.8,0.2v0v0c0.2,0.1,0.4,0.2,0.6,0.4c0.3,0.4,0.5,0.9,0.5,1.5
		C104.6,183.1,104.5,183.6,104.1,184z"/>
	<path class="st15" d="M121.8,103.4"/>
	<g>
		<g>
			
				<radialGradient id="SVGID_12_" cx="99.8314" cy="132.6042" r="34.8492" gradientTransform="matrix(1 0 0 -1 0 202)" gradientUnits="userSpaceOnUse">
				<stop  offset="0" style="stop-color:#49422C"/>
				<stop  offset="0.2876" style="stop-color:#4C432B"/>
				<stop  offset="0.673" style="stop-color:#534727"/>
				<stop  offset="1" style="stop-color:#5B4D21"/>
			</radialGradient>
			<path class="st36" d="M148.8,74.9c-31.6-12.3-66.3-12.3-97.9-0.2c0-0.5,0-1.1,0-1.6c32-12.3,66.1-12.2,98,0.2
				C148.8,73.7,148.8,74.4,148.8,74.9z"/>
		</g>
		<g>
			
				<radialGradient id="SVGID_13_" cx="99.833" cy="133.6719" r="34.8775" gradientTransform="matrix(1 0 0 -1 0 202)" gradientUnits="userSpaceOnUse">
				<stop  offset="0" style="stop-color:#CEB135"/>
				<stop  offset="0.1253" style="stop-color:#CFB23C"/>
				<stop  offset="0.2939" style="stop-color:#D0B54D"/>
				<stop  offset="0.4869" style="stop-color:#D4BC67"/>
				<stop  offset="0.6983" style="stop-color:#D8C589"/>
				<stop  offset="0.9221" style="stop-color:#DED1B3"/>
				<stop  offset="1" style="stop-color:#E0D6C2"/>
			</radialGradient>
			<path class="st37" d="M148.8,74.1c-31.6-12.3-66.3-12.3-98-0.2c0-0.5,0-1.7,0-2.1c32-12.3,66.1-12.4,98,0
				C148.8,72.3,148.8,73.6,148.8,74.1z"/>
		</g>
	</g>
	
		<linearGradient id="SVGID_14_" gradientUnits="userSpaceOnUse" x1="140.4211" y1="125.8921" x2="139.4042" y2="123.0982" gradientTransform="matrix(1 0 0 -1 0 202)">
		<stop  offset="0.2562" style="stop-color:#79ADCF"/>
		<stop  offset="0.573" style="stop-color:#78ACCF"/>
		<stop  offset="0.6872" style="stop-color:#72A6CB"/>
		<stop  offset="0.7685" style="stop-color:#689CC4"/>
		<stop  offset="0.8343" style="stop-color:#5A8FBA"/>
		<stop  offset="0.8906" style="stop-color:#467EAE"/>
		<stop  offset="0.9405" style="stop-color:#2C6A9F"/>
		<stop  offset="0.9845" style="stop-color:#00558E"/>
		<stop  offset="0.9959" style="stop-color:#004F8A"/>
	</linearGradient>
	<path class="st38" d="M148,83.4c-0.6-0.8-2.1-1.7-4.2-2.6c-4.3-1.7-8.7-3.2-13.2-4.5c-0.1,0-0.2-0.1-0.3-0.2l-0.1-0.2l0.1-0.2
		c0-0.1,0.1-0.2,0.2-0.3c0.1-0.1,0.2-0.1,0.4,0c4.5,1.3,9.1,2.6,13.3,4.5C148.3,81.8,148.2,83.8,148,83.4z"/>
	<g>
		<g>
			<path class="st39" d="M60.3,84.7c2.5-0.8,5.1-1.5,7.7-2.2l0.6-1c-2.9,0.7-5.7,1.5-8.6,2.4l-0.5,1.1L60.3,84.7z"/>
			<path class="st40" d="M69.5,78.2L69,76c0-0.1-0.1-0.2-0.2-0.3c-0.1-0.1-0.2-0.1-0.4-0.1c-5.5,1.3-10.9,2.9-16.2,4.9
				c-0.1,0-0.2,0.1-0.3,0.2c-0.1,0.1-0.1,0.2,0,0.4L57,94.4c0.1,0.2,0.4,0.4,0.6,0.3c1.5-0.5,3-1.1,4.5-1.6c0.1,0,0.2-0.1,0.3-0.2
				c0-0.1,0.1-0.1,0.1-0.2c0,0,0-0.1,0-0.1c0,0-1.4-4.4-1.7-5.2c0.2-0.1,0.4-0.1,0.4-0.1c2.4-0.7,4.9-1.5,7.5-2.1
				c0.2-0.1,0.4-0.2,0.4-0.5c0,0,0-0.1,0-0.1l-0.5-2.1c0-0.1-0.1-0.2-0.2-0.3C68.1,82,67.9,82,67.8,82c-2.7,0.7-5.3,1.4-7.7,2.2
				c0,0-0.2,0.1-0.4,0.1c-0.2-0.6-0.7-2.1-0.9-2.7c0.2-0.1,0.4-0.1,0.4-0.1c3.1-1,6.4-1.9,9.9-2.7c0.2-0.1,0.4-0.2,0.4-0.5
				C69.5,78.3,69.5,78.2,69.5,78.2z"/>
			<path class="st41" d="M58.3,81.3l1.2,3.6l0.5-1.1c-0.2-0.7-0.4-1.4-0.7-2L58.3,81.3z"/>
			<g>
				<path class="st42" d="M63,93.2c-0.6-1.9-1.2-3.7-1.8-5.6L60.1,87c0,0,1.4,4.4,1.8,5.6L63,93.2z"/>
				<path class="st42" d="M59.8,86.7c-0.1,0.1-0.2,0.3-0.1,0.5l1.8,5.6c0,0.1,0.1,0.2,0.2,0.3l1.1,0.5c0.2,0.1,0.4,0.1,0.5-0.1
					c0.1-0.1,0.2-0.3,0.1-0.5l-1.8-5.6c0-0.1-0.1-0.2-0.2-0.3l-1.1-0.5C60.2,86.5,60,86.5,59.8,86.7z"/>
			</g>
			<g>
				<path class="st43" d="M61.2,87.6c2.7-0.9,5.5-1.7,8.3-2.3l-1-0.6c-2.5,0.6-5.1,1.3-7.5,2.1L60.1,87L61.2,87.6z"/>
				
					<linearGradient id="SVGID_15_" gradientUnits="userSpaceOnUse" x1="59.6553" y1="115.9078" x2="69.9715" y2="115.9078" gradientTransform="matrix(1 0 0 -1 0 202)">
					<stop  offset="0.1322" style="stop-color:#003760"/>
					<stop  offset="1" style="stop-color:#292725"/>
				</linearGradient>
				<path class="st44" d="M68.4,84.2c-2.6,0.7-5.2,1.4-7.6,2.1L60,86.6c-0.2,0.1-0.3,0.2-0.3,0.4c0,0.2,0.1,0.4,0.3,0.5L61,88
					c0.1,0.1,0.2,0.1,0.4,0c2.7-0.9,5.5-1.6,8.3-2.3c0.2,0,0.3-0.2,0.4-0.4c0-0.2-0.1-0.4-0.2-0.5l-1-0.6
					C68.6,84.1,68.5,84.1,68.4,84.2z"/>
			</g>
			
				<linearGradient id="SVGID_16_" gradientUnits="userSpaceOnUse" x1="68.298" y1="120.9642" x2="68.9644" y2="116.492" gradientTransform="matrix(1 0 0 -1 0 202)">
				<stop  offset="4.100000e-03" style="stop-color:#003760"/>
				<stop  offset="0.9421" style="stop-color:#292725"/>
			</linearGradient>
			<path class="st45" d="M70,85.1L69,81.3c0-0.2-0.2-0.3-0.4-0.4c-0.2,0-0.4,0.1-0.5,0.2l-0.6,1c-0.1,0.1-0.1,0.2-0.1,0.4l0.5,2.1
				c0,0.1,0.1,0.2,0.2,0.3l1,0.6c0.2,0.1,0.4,0.1,0.5,0C69.9,85.5,70,85.3,70,85.1z"/>
			
				<linearGradient id="SVGID_17_" gradientUnits="userSpaceOnUse" x1="57.8001" y1="121.9405" x2="70.478" y2="121.9405" gradientTransform="matrix(1 0 0 -1 0 202)">
				<stop  offset="0.1322" style="stop-color:#003760"/>
				<stop  offset="1" style="stop-color:#292725"/>
			</linearGradient>
			<path class="st46" d="M70.2,78.5l-1-0.6c-0.1-0.1-0.2-0.1-0.4-0.1c-3.5,0.8-6.8,1.7-9.9,2.7l-0.8,0.3c-0.2,0.1-0.3,0.2-0.3,0.4
				c0,0.2,0.1,0.4,0.3,0.5l1.1,0.5c0.1,0.1,0.2,0.1,0.4,0c3.5-1.1,7.1-2.1,10.6-2.9c0.2,0,0.3-0.2,0.4-0.4
				C70.5,78.8,70.4,78.6,70.2,78.5z"/>
			
				<linearGradient id="SVGID_18_" gradientUnits="userSpaceOnUse" x1="59.5814" y1="126.2144" x2="60.3207" y2="123.7854" gradientTransform="matrix(1 0 0 -1 0 202)">
				<stop  offset="0" style="stop-color:#B8D6E3"/>
				<stop  offset="0.4053" style="stop-color:#B7D5E2"/>
				<stop  offset="0.5513" style="stop-color:#B0CFDF"/>
				<stop  offset="0.6554" style="stop-color:#A4C3D7"/>
				<stop  offset="0.7395" style="stop-color:#94B3CE"/>
				<stop  offset="0.8116" style="stop-color:#7E9FC1"/>
				<stop  offset="0.8755" style="stop-color:#6388B1"/>
				<stop  offset="0.9332" style="stop-color:#3F6EA0"/>
				<stop  offset="0.9845" style="stop-color:#00558E"/>
				<stop  offset="0.9959" style="stop-color:#004F8A"/>
			</linearGradient>
			<path class="st47" d="M69.5,74.9c-0.1-0.2-0.3-0.2-0.5-0.2c-6,1.4-12.1,3.2-17.9,5.4c-0.2,0.1-0.3,0.2-0.3,0.4
				c0,0.2,0.1,0.4,0.3,0.4l1.1,0.5c0.1,0.1,0.2,0.1,0.4,0c5.2-1.9,10.6-3.6,16.1-4.8c0.1,0,0.2-0.1,0.3-0.2l0.6-1
				C69.6,75.2,69.6,75,69.5,74.9z"/>
			
				<linearGradient id="SVGID_19_" gradientUnits="userSpaceOnUse" x1="69.0513" y1="127.1441" x2="69.4102" y2="122.2673" gradientTransform="matrix(1 0 0 -1 0 202)">
				<stop  offset="4.100000e-03" style="stop-color:#003760"/>
				<stop  offset="0.6198" style="stop-color:#292725"/>
			</linearGradient>
			<path class="st48" d="M70.5,78.8L69.6,75c0-0.2-0.2-0.3-0.4-0.4c-0.2,0-0.4,0.1-0.5,0.2l-0.6,1C68,76,68,76.1,68,76.3l0.5,2.1
				c0,0.1,0.1,0.2,0.2,0.3l1,0.6c0.2,0.1,0.4,0.1,0.5,0C70.4,79.2,70.5,79,70.5,78.8z"/>
			
				<linearGradient id="SVGID_20_" gradientUnits="userSpaceOnUse" x1="50.8016" y1="114.1107" x2="57.9218" y2="114.1107" gradientTransform="matrix(1 0 0 -1 0 202)">
				<stop  offset="0" style="stop-color:#79ADCF"/>
				<stop  offset="0.4266" style="stop-color:#78ACCF"/>
				<stop  offset="0.5803" style="stop-color:#72A6CB"/>
				<stop  offset="0.6898" style="stop-color:#689CC4"/>
				<stop  offset="0.7784" style="stop-color:#5A8FBA"/>
				<stop  offset="0.8542" style="stop-color:#467EAE"/>
				<stop  offset="0.9213" style="stop-color:#2C6A9F"/>
				<stop  offset="0.9805" style="stop-color:#00558E"/>
				<stop  offset="0.9959" style="stop-color:#004F8A"/>
			</linearGradient>
			<path class="st49" d="M57.9,94l-5.1-13.2c0-0.1-0.1-0.2-0.2-0.3l-1.1-0.5c-0.2-0.1-0.4,0-0.5,0.1c-0.1,0.1-0.2,0.3-0.1,0.5
				l5.7,14.8c0.1,0.2,0.2,0.3,0.4,0.3c0.2,0,0.4-0.1,0.4-0.3l0.5-1.1C57.9,94.3,57.9,94.1,57.9,94z"/>
			<g>
				<path class="st43" d="M62,92.6c-1.5,0.5-3,1-4.5,1.6L57,95.3c2-0.8,4-1.5,6.1-2.1L62,92.6z"/>
				
					<linearGradient id="SVGID_21_" gradientUnits="userSpaceOnUse" x1="56.4812" y1="108.0513" x2="63.5033" y2="108.0513" gradientTransform="matrix(1 0 0 -1 0 202)">
					<stop  offset="4.100000e-03" style="stop-color:#003760"/>
					<stop  offset="0.9421" style="stop-color:#292725"/>
				</linearGradient>
				<path class="st50" d="M61.8,92.2c-1.5,0.5-3.1,1-4.5,1.6c-0.1,0-0.2,0.1-0.3,0.2l-0.5,1.1c-0.1,0.2,0,0.4,0.1,0.5
					c0.1,0.1,0.3,0.2,0.5,0.1c2-0.7,4-1.4,6-2.1c0.2-0.1,0.3-0.2,0.3-0.4c0-0.2-0.1-0.4-0.3-0.5l-1.1-0.5
					C62.1,92.1,61.9,92.1,61.8,92.2z"/>
			</g>
		</g>
		<g>
			<path class="st25" d="M95.1,86.4c-2.4-2.9-4.8-5.6-7.4-8.2c0,0-0.1-0.1-0.3-0.3c0.1-0.1,0.3-0.3,0.3-0.3c1.5-1.4,3.2-2.9,5.2-4.6
				c0.1-0.1,0.2-0.2,0.2-0.4c0-0.1,0-0.1,0-0.2c-0.1-0.2-0.3-0.3-0.5-0.3c-2.5,0.2-4.7,0.3-6.7,0.6c-0.1,0-0.2,0.1-0.3,0.1
				c-1.9,2-3.7,4-5.4,6c0,0-0.3,0.3-0.5,0.6c-0.2-1.4-0.9-5.4-0.9-5.4c0-0.1-0.1-0.2-0.2-0.3c-0.1-0.1-0.2-0.1-0.4-0.1
				c-1.8,0.3-3.6,0.6-5.4,1c-0.1,0-0.2,0.1-0.3,0.2c-0.1,0.1-0.1,0.2-0.1,0.4l3,13.8c0.1,0.3,0.3,0.4,0.6,0.4
				c1.5-0.3,3.1-0.6,4.6-0.9c0.2,0,0.4-0.2,0.4-0.5c0,0,0-0.1,0-0.1c0,0-0.5-3.1-0.6-3.5c0.1-0.1,0.1-0.1,0.1-0.1
				c0,0,2.5-2.6,2.5-2.6s0.1-0.1,0.3-0.3c0.1,0.1,0.3,0.3,0.3,0.3c1.7,1.7,3.3,3.6,5,5.5c0.1,0.1,0.3,0.2,0.4,0.2
				c1.8-0.2,3.7-0.3,5.7-0.4c0.2,0,0.3-0.1,0.4-0.3c0-0.1,0-0.1,0-0.2C95.3,86.6,95.2,86.5,95.1,86.4z"/>
			
				<linearGradient id="SVGID_22_" gradientUnits="userSpaceOnUse" x1="74.8785" y1="131.6346" x2="75.685" y2="127.0613" gradientTransform="matrix(1 0 0 -1 0 202)">
				<stop  offset="0" style="stop-color:#B8D6E3"/>
				<stop  offset="0.4053" style="stop-color:#B7D5E2"/>
				<stop  offset="0.5513" style="stop-color:#B0CFDF"/>
				<stop  offset="0.6554" style="stop-color:#A4C3D7"/>
				<stop  offset="0.7395" style="stop-color:#94B3CE"/>
				<stop  offset="0.8116" style="stop-color:#7E9FC1"/>
				<stop  offset="0.8755" style="stop-color:#6388B1"/>
				<stop  offset="0.9332" style="stop-color:#3F6EA0"/>
				<stop  offset="0.9845" style="stop-color:#00558E"/>
				<stop  offset="0.9959" style="stop-color:#004F8A"/>
			</linearGradient>
			<path class="st51" d="M79.4,73.1c-0.1-0.2-0.3-0.2-0.5-0.2c-2.4,0.4-4.7,0.8-7.1,1.3c-0.2,0-0.3,0.2-0.4,0.4c0,0.2,0,0.4,0.2,0.5
				l1,0.7c0.1,0.1,0.2,0.1,0.4,0.1c1.8-0.4,3.5-0.7,5.3-1c0.1,0,0.2-0.1,0.3-0.2l0.7-1C79.5,73.4,79.5,73.2,79.4,73.1z"/>
			
				<linearGradient id="SVGID_23_" gradientUnits="userSpaceOnUse" x1="71.5164" y1="119.6499" x2="76.464" y2="119.6499" gradientTransform="matrix(1 0 0 -1 0 202)">
				<stop  offset="0" style="stop-color:#79ADCF"/>
				<stop  offset="0.4266" style="stop-color:#78ACCF"/>
				<stop  offset="0.5803" style="stop-color:#72A6CB"/>
				<stop  offset="0.6898" style="stop-color:#689CC4"/>
				<stop  offset="0.7784" style="stop-color:#5A8FBA"/>
				<stop  offset="0.8542" style="stop-color:#467EAE"/>
				<stop  offset="0.9213" style="stop-color:#2C6A9F"/>
				<stop  offset="0.9805" style="stop-color:#00558E"/>
				<stop  offset="0.9959" style="stop-color:#004F8A"/>
			</linearGradient>
			<path class="st52" d="M76.5,89l-3-13.8c0-0.1-0.1-0.2-0.2-0.3l-1-0.7c-0.2-0.1-0.4-0.1-0.5,0c-0.2,0.1-0.2,0.3-0.2,0.5l3.3,15.4
				c0,0.2,0.2,0.3,0.4,0.4c0.2,0,0.4,0,0.5-0.2l0.6-1C76.5,89.2,76.5,89.1,76.5,89z"/>
			
				<linearGradient id="SVGID_24_" gradientUnits="userSpaceOnUse" x1="74.8639" y1="112.8579" x2="82.0469" y2="112.8579" gradientTransform="matrix(1 0 0 -1 0 202)">
				<stop  offset="4.100000e-03" style="stop-color:#003760"/>
				<stop  offset="0.9421" style="stop-color:#292725"/>
			</linearGradient>
			<path class="st53" d="M81.8,88.5l-1-0.7c-0.1-0.1-0.2-0.1-0.4-0.1c-1.5,0.3-3.1,0.6-4.6,0.9c-0.1,0-0.2,0.1-0.3,0.2l-0.6,1
				c-0.1,0.2-0.1,0.4,0,0.5c0.1,0.2,0.3,0.2,0.5,0.2c2-0.4,4.1-0.8,6.2-1.2c0.2,0,0.3-0.2,0.4-0.4C82.1,88.8,82,88.6,81.8,88.5z"/>
			
				<linearGradient id="SVGID_25_" gradientUnits="userSpaceOnUse" x1="79.509" y1="115.327" x2="82.0468" y2="115.327" gradientTransform="matrix(1 0 0 -1 0 202)">
				<stop  offset="4.100000e-03" style="stop-color:#003760"/>
				<stop  offset="0.6198" style="stop-color:#292725"/>
			</linearGradient>
			<path class="st54" d="M82,88.8l-0.7-4.2c0-0.2-0.2-0.3-0.3-0.4L80.1,84c-0.2,0-0.3,0-0.5,0.1c-0.1,0.1-0.2,0.3-0.2,0.4l0.6,3.8
				c0,0.1,0.1,0.2,0.2,0.3l1,0.7c0.2,0.1,0.4,0.1,0.5,0C82,89.2,82.1,89,82,88.8z"/>
			<path class="st55" d="M83.6,80.5c-0.2-0.1-0.4,0-0.5,0.1l-0.6,0.6l-2.6,2.6l-0.3,0.3c-0.1,0.1-0.1,0.2-0.1,0.3c0,0,0,0.1,0,0.1
				c0,0.2,0.2,0.3,0.3,0.3l0.9,0.3c0.2,0.1,0.4,0,0.5-0.1l2.5-2.6c0.1-0.1,0.1-0.2,0.1-0.3l0-1.2C83.9,80.8,83.8,80.6,83.6,80.5z"/>
			<path class="st42" d="M89.4,86.8c-1.7-1.9-3.3-3.8-5-5.6l0,0l-0.6-0.6c-0.1-0.1-0.3-0.2-0.5-0.1c-0.2,0.1-0.3,0.2-0.3,0.4l0,1.2
				c0,0.1,0,0.2,0.1,0.3c1.8,1.9,3.6,3.8,5.2,5.8c0.1,0.1,0.3,0.2,0.4,0.2c0.2,0,0.3-0.1,0.4-0.3l0.4-0.9
				C89.5,87.1,89.5,86.9,89.4,86.8z"/>
			<path class="st56" d="M96.9,87.1c-2.6-3.3-5.5-6.5-8.5-9.6c-0.1-0.1-0.2-0.1-0.3-0.1l-1.2,0c-0.2,0-0.4,0.1-0.4,0.3
				c-0.1,0.2,0,0.4,0.1,0.5l0.6,0.6c2.5,2.6,5,5.3,7.3,8.1c0,0.1,0.1,0.1,0.2,0.1l1.7,0.8c0.2,0.1,0.4,0,0.6-0.1
				C97,87.6,97,87.3,96.9,87.1z"/>
			
				<linearGradient id="SVGID_26_" gradientUnits="userSpaceOnUse" x1="88.1914" y1="114.6709" x2="96.968" y2="114.6709" gradientTransform="matrix(1 0 0 -1 0 202)">
				<stop  offset="4.100000e-03" style="stop-color:#003760"/>
				<stop  offset="0.9421" style="stop-color:#292725"/>
			</linearGradient>
			<path class="st57" d="M96.7,87L95,86.2c-0.1,0-0.1,0-0.2,0c-2.1,0.1-4,0.2-5.8,0.4c-0.2,0-0.3,0.1-0.4,0.3l-0.4,0.9
				c-0.1,0.2,0,0.3,0.1,0.5c0.1,0.1,0.3,0.2,0.4,0.2c2.6-0.3,5.2-0.4,7.8-0.5c0.2,0,0.4-0.2,0.4-0.4C97,87.3,96.9,87.1,96.7,87z"/>
			
				<linearGradient id="SVGID_27_" gradientUnits="userSpaceOnUse" x1="90.2024" y1="131.9335" x2="90.3986" y2="129.1277" gradientTransform="matrix(1 0 0 -1 0 202)">
				<stop  offset="0" style="stop-color:#B8D6E3"/>
				<stop  offset="0.4053" style="stop-color:#B7D5E2"/>
				<stop  offset="0.5513" style="stop-color:#B0CFDF"/>
				<stop  offset="0.6554" style="stop-color:#A4C3D7"/>
				<stop  offset="0.7395" style="stop-color:#94B3CE"/>
				<stop  offset="0.8116" style="stop-color:#7E9FC1"/>
				<stop  offset="0.8755" style="stop-color:#6388B1"/>
				<stop  offset="0.9332" style="stop-color:#3F6EA0"/>
				<stop  offset="0.9845" style="stop-color:#00558E"/>
				<stop  offset="0.9959" style="stop-color:#004F8A"/>
			</linearGradient>
			<path class="st58" d="M95.6,71.6c0-0.2-0.3-0.4-0.5-0.4c-3.2,0.1-6.4,0.4-9.6,0.7c-0.2,0-0.3,0.1-0.4,0.2c-0.1,0.1-0.1,0.3,0,0.4
				l0.4,0.8c0.1,0.2,0.3,0.3,0.5,0.3c2-0.2,4.2-0.4,6.7-0.6c0.1,0,0.1,0,0.1,0l2.5-1C95.5,72,95.7,71.8,95.6,71.6z"/>
			
				<linearGradient id="SVGID_28_" gradientUnits="userSpaceOnUse" x1="81.1095" y1="126.5787" x2="84.2173" y2="123.9709" gradientTransform="matrix(1 0 0 -1 0 202)">
				<stop  offset="0" style="stop-color:#B8D6E3"/>
				<stop  offset="0.1216" style="stop-color:#B2D0E0"/>
				<stop  offset="0.2869" style="stop-color:#A1C0D6"/>
				<stop  offset="0.4773" style="stop-color:#85A5C5"/>
				<stop  offset="0.6863" style="stop-color:#5C83AF"/>
				<stop  offset="0.9082" style="stop-color:#215D94"/>
				<stop  offset="0.9959" style="stop-color:#004F8A"/>
			</linearGradient>
			<path class="st59" d="M86.4,73L86,72.2c-0.1-0.1-0.2-0.2-0.4-0.3c-0.2,0-0.3,0-0.4,0.1c-2,2-3.9,4.2-5.7,6.3
				c0,0.1-0.1,0.1-0.1,0.2l-0.5,2c-0.1,0.2,0,0.4,0.2,0.5c0.2,0.1,0.4,0.1,0.6-0.1l1.2-1.4c1.7-2,3.5-4,5.4-6
				C86.4,73.4,86.5,73.2,86.4,73z"/>
			
				<linearGradient id="SVGID_29_" gradientUnits="userSpaceOnUse" x1="78.0314" y1="125.3565" x2="79.4799" y2="124.9219" gradientTransform="matrix(1 0 0 -1 0 202)">
				<stop  offset="4.100000e-03" style="stop-color:#003760"/>
				<stop  offset="0.6198" style="stop-color:#292725"/>
			</linearGradient>
			<path class="st60" d="M80.4,78.6l-0.9-5.4c0-0.2-0.2-0.3-0.4-0.4c-0.2,0-0.4,0-0.5,0.2L78,74c-0.1,0.1-0.1,0.2-0.1,0.4l1,6.4
				c0,0.2,0.2,0.4,0.4,0.4c0.2,0,0.4-0.1,0.5-0.3l0.5-2C80.4,78.8,80.4,78.7,80.4,78.6z"/>
			
				<linearGradient id="SVGID_30_" gradientUnits="userSpaceOnUse" x1="86.3685" y1="127.2008" x2="95.6139" y2="127.2008" gradientTransform="matrix(1 0 0 -1 0 202)">
				<stop  offset="4.100000e-03" style="stop-color:#003760"/>
				<stop  offset="0.6198" style="stop-color:#292725"/>
			</linearGradient>
			<path class="st61" d="M95.5,71.4c-0.1-0.2-0.4-0.3-0.6-0.2l-2.5,1c0,0-0.1,0-0.1,0.1c-2,1.7-3.7,3.2-5.2,4.6l-0.6,0.6
				c-0.1,0.1-0.2,0.3-0.1,0.5c0.1,0.2,0.2,0.3,0.4,0.3l1.2,0c0.1,0,0.2,0,0.3-0.1c2.3-2.1,4.6-4.2,7.1-6.2
				C95.6,71.9,95.7,71.6,95.5,71.4z"/>
		</g>
		<g>
			<polygon class="st62" points="104,75 104.8,75 105.6,74.8 			"/>
			<polygon class="st63" points="118,75.6 118.7,76 119.5,76.1 			"/>
			<path class="st25" d="M125.1,73.9c-0.1-0.1-0.2-0.2-0.3-0.2c-3-0.5-6-0.9-8.9-1.1c-0.2,0-0.4,0.1-0.5,0.3c-1.3,3-2.6,5.9-3.7,8.8
				l0,0c0,0-0.2,0.6-0.4,1.1c-0.1-0.6-0.3-1.2-0.3-1.2c-0.7-2.9-1.4-6-2.3-9.2c-0.1-0.2-0.2-0.3-0.4-0.4c-3-0.1-6-0.1-9.1-0.1
				c-0.1,0-0.2,0.1-0.3,0.1c-0.1,0.1-0.1,0.2-0.1,0.3l0.4,14.1c0,0.3,0.2,0.5,0.5,0.5c1.5,0,2.9-0.1,4.2,0c0.3,0,0.5-0.2,0.5-0.5
				c0,0,0.2-10.3,0.2-11.1c0.3,0,0.5-0.1,0.8-0.1c1.2,3.8,2.4,7.6,3.4,11.5c0.1,0.2,0.2,0.3,0.4,0.4l3.7,0.2c0.2,0,0.4-0.1,0.5-0.3
				c1.6-3.7,3.2-7.4,4.9-10.9c0.3,0.1,0.5,0.2,0.8,0.2c-0.1,0.7-1.3,11-1.3,11c0,0,0,0,0,0.1c0,0.2,0.2,0.4,0.4,0.5
				c1.4,0.2,2.8,0.4,4.2,0.6c0.3,0,0.5-0.1,0.5-0.4l2.4-13.9C125.2,74.1,125.2,74,125.1,73.9z"/>
			<g>
				<path class="st64" d="M119.5,76.1l-0.8-0.1c-0.5,4.1-1,8.2-1.5,12.2l0.9-0.7C118.3,86,119.5,76.1,119.5,76.1z"/>
			</g>
			
				<linearGradient id="SVGID_31_" gradientUnits="userSpaceOnUse" x1="121.8641" y1="120.7418" x2="126.152" y2="120.7418" gradientTransform="matrix(1 0 0 -1 0 202)">
				<stop  offset="4.100000e-03" style="stop-color:#003760"/>
				<stop  offset="0.9421" style="stop-color:#292725"/>
			</linearGradient>
			<path class="st65" d="M125.9,73.1c-0.2-0.1-0.4-0.1-0.5,0l-1,0.7c-0.1,0.1-0.2,0.2-0.2,0.3L121.9,88c0,0.1,0,0.3,0.1,0.4l0.7,1
				c0.1,0.2,0.3,0.2,0.5,0.2c0.2,0,0.3-0.2,0.4-0.4l2.6-15.6C126.2,73.4,126.1,73.2,125.9,73.1z"/>
			
				<linearGradient id="SVGID_32_" gradientUnits="userSpaceOnUse" x1="120.8646" y1="132.1343" x2="120.3893" y2="128.3319" gradientTransform="matrix(1 0 0 -1 0 202)">
				<stop  offset="0" style="stop-color:#B8D6E3"/>
				<stop  offset="0.4053" style="stop-color:#B7D5E2"/>
				<stop  offset="0.5513" style="stop-color:#B0CFDF"/>
				<stop  offset="0.6554" style="stop-color:#A4C3D7"/>
				<stop  offset="0.7395" style="stop-color:#94B3CE"/>
				<stop  offset="0.8116" style="stop-color:#7E9FC1"/>
				<stop  offset="0.8755" style="stop-color:#6388B1"/>
				<stop  offset="0.9332" style="stop-color:#3F6EA0"/>
				<stop  offset="0.9845" style="stop-color:#00558E"/>
				<stop  offset="0.9959" style="stop-color:#004F8A"/>
			</linearGradient>
			<path class="st66" d="M126.1,73.4c0-0.2-0.2-0.3-0.4-0.4c-3.4-0.6-6.9-1-10.4-1.3c-0.2,0-0.3,0.1-0.4,0.2c-0.1,0.1-0.1,0.3,0,0.5
				l0.5,0.9c0.1,0.1,0.2,0.2,0.4,0.2c2.9,0.3,5.9,0.7,8.8,1.1c0.1,0,0.3,0,0.4-0.1l1-0.7C126.1,73.7,126.2,73.6,126.1,73.4z"/>
			
				<linearGradient id="SVGID_33_" gradientUnits="userSpaceOnUse" x1="103.5845" y1="133.3861" x2="103.5845" y2="129.7424" gradientTransform="matrix(1 0 0 -1 0 202)">
				<stop  offset="0" style="stop-color:#B8D6E3"/>
				<stop  offset="0.4053" style="stop-color:#B7D5E2"/>
				<stop  offset="0.5513" style="stop-color:#B0CFDF"/>
				<stop  offset="0.6554" style="stop-color:#A4C3D7"/>
				<stop  offset="0.7395" style="stop-color:#94B3CE"/>
				<stop  offset="0.8116" style="stop-color:#7E9FC1"/>
				<stop  offset="0.8755" style="stop-color:#6388B1"/>
				<stop  offset="0.9332" style="stop-color:#3F6EA0"/>
				<stop  offset="0.9845" style="stop-color:#00558E"/>
				<stop  offset="0.9959" style="stop-color:#004F8A"/>
			</linearGradient>
			<path class="st67" d="M109.3,71.5c-0.1-0.2-0.2-0.3-0.4-0.3c-3.5-0.2-7.1-0.2-10.6-0.1c-0.2,0-0.4,0.1-0.4,0.3
				c-0.1,0.2,0,0.4,0.1,0.5l0.9,0.8c0.1,0.1,0.2,0.1,0.3,0.1c3-0.1,6.1-0.1,9,0.1c0.2,0,0.3-0.1,0.4-0.2l0.7-0.8
				C109.3,71.9,109.4,71.7,109.3,71.5z"/>
			<path class="st68" d="M99.7,72.4c0-0.1-0.1-0.2-0.1-0.3l-0.9-0.8c-0.1-0.1-0.3-0.2-0.5-0.1c-0.2,0.1-0.3,0.3-0.3,0.4l0.5,15.8
				c0,0.2,0.1,0.4,0.3,0.4c0.2,0.1,0.4,0,0.5-0.1l0.8-0.9c0.1-0.1,0.1-0.2,0.1-0.3L99.7,72.4z"/>
			
				<linearGradient id="SVGID_34_" gradientUnits="userSpaceOnUse" x1="112.0223" y1="124.3799" x2="113.7126" y2="123.5347" gradientTransform="matrix(1 0 0 -1 0 202)">
				<stop  offset="0" style="stop-color:#B8D6E3"/>
				<stop  offset="0.1216" style="stop-color:#B2D0E0"/>
				<stop  offset="0.2869" style="stop-color:#A1C0D6"/>
				<stop  offset="0.4773" style="stop-color:#85A5C5"/>
				<stop  offset="0.6863" style="stop-color:#5C83AF"/>
				<stop  offset="0.9082" style="stop-color:#215D94"/>
				<stop  offset="0.9959" style="stop-color:#004F8A"/>
			</linearGradient>
			<path class="st69" d="M116.3,72.8l-0.5-0.9c-0.1-0.2-0.3-0.2-0.4-0.2c-0.2,0-0.3,0.1-0.4,0.3c-1.4,3-2.7,6.1-3.9,9.2
				c0,0,0,0.1,0,0.1l-0.3,3c0,0.2,0.1,0.5,0.4,0.5c0.2,0.1,0.5-0.1,0.6-0.3l1-2.5c1.1-2.8,2.4-5.8,3.7-8.7
				C116.3,73.1,116.3,72.9,116.3,72.8z"/>
			
				<linearGradient id="SVGID_35_" gradientUnits="userSpaceOnUse" x1="115.9638" y1="128.7201" x2="108.9928" y2="123.228" gradientTransform="matrix(1 0 0 -1 0 202)">
				<stop  offset="0" style="stop-color:#B8D6E3"/>
				<stop  offset="0.1734" style="stop-color:#B5D3E2"/>
				<stop  offset="0.3289" style="stop-color:#ABC9DB"/>
				<stop  offset="0.4775" style="stop-color:#99B8D1"/>
				<stop  offset="0.6219" style="stop-color:#7FA0C1"/>
				<stop  offset="0.7632" style="stop-color:#5E84AF"/>
				<stop  offset="0.9003" style="stop-color:#326599"/>
				<stop  offset="0.9959" style="stop-color:#004F8A"/>
			</linearGradient>
			<path class="st70" d="M111.7,80.9c-0.7-3.1-1.5-6.3-2.4-9.4c0-0.2-0.2-0.3-0.4-0.3c-0.2,0-0.4,0-0.5,0.2l-0.7,0.8
				c-0.1,0.1-0.1,0.3-0.1,0.4c0.8,3.1,1.6,6.2,2.3,9.1l0.6,2.6c0.1,0.2,0.3,0.4,0.5,0.4c0.2,0,0.4-0.2,0.4-0.4l0.3-3c0,0,0,0,0,0
				C111.9,81.1,111.8,81,111.7,80.9z"/>
			
				<linearGradient id="SVGID_36_" gradientUnits="userSpaceOnUse" x1="103.3236" y1="120.8789" x2="109.5932" y2="120.8789" gradientTransform="matrix(1 0 0 -1 0 202)">
				<stop  offset="4.100000e-03" style="stop-color:#141515"/>
				<stop  offset="0.2231" style="stop-color:#003760"/>
				<stop  offset="0.2901" style="stop-color:#17466F"/>
				<stop  offset="0.4275" style="stop-color:#3D6A90"/>
				<stop  offset="0.5614" style="stop-color:#5B8DB0"/>
				<stop  offset="0.6886" style="stop-color:#74ACCC"/>
				<stop  offset="0.8074" style="stop-color:#87C2E1"/>
				<stop  offset="0.9145" style="stop-color:#93D1EE"/>
				<stop  offset="1" style="stop-color:#97D6F2"/>
			</linearGradient>
			<path class="st71" d="M109.6,86.6c-1-4-2.2-8-3.5-11.9c0-0.1-0.1-0.2-0.2-0.3c-0.1-0.1-0.6-0.1-1.2,0c-0.5,0.1-1.2,0.4-1.2,0.7
				l-0.2,11.5c0,0.1,0,0.2,0.1,0.3l0.8,0.9c0.1,0.1,0.3,0.2,0.5,0.1c0.2-0.1,0.3-0.2,0.3-0.4l0.2-9.4c1,3.2,1.9,6.4,2.7,9.6
				c0,0.2,0.2,0.3,0.4,0.3c0.2,0,0.4,0,0.5-0.2l0.7-0.8C109.6,86.9,109.6,86.7,109.6,86.6z"/>
			
				<linearGradient id="SVGID_37_" gradientUnits="userSpaceOnUse" x1="98.3322" y1="115.0399" x2="105.1063" y2="115.0399" gradientTransform="matrix(1 0 0 -1 0 202)">
				<stop  offset="4.100000e-03" style="stop-color:#003760"/>
				<stop  offset="0.9421" style="stop-color:#292725"/>
			</linearGradient>
			<path class="st72" d="M105,87l-0.8-0.9c-0.1-0.1-0.2-0.1-0.3-0.1c-1.3,0-2.6,0-4.2,0c-0.1,0-0.2,0.1-0.3,0.1l-0.8,0.9
				c-0.1,0.1-0.2,0.3-0.1,0.5s0.3,0.3,0.4,0.3c1.9-0.1,3.9-0.1,5.8,0c0.2,0,0.4-0.1,0.4-0.3C105.1,87.4,105.1,87.2,105,87z"/>
			
				<linearGradient id="SVGID_38_" gradientUnits="userSpaceOnUse" x1="120.09" y1="120.1096" x2="111.5349" y2="120.1096" gradientTransform="matrix(1 0 0 -1 0 202)">
				<stop  offset="4.100000e-03" style="stop-color:#79ADCF"/>
				<stop  offset="5.640000e-02" style="stop-color:#73A7CA"/>
				<stop  offset="0.1312" style="stop-color:#6595BA"/>
				<stop  offset="0.2194" style="stop-color:#4F7BA1"/>
				<stop  offset="0.3179" style="stop-color:#315A82"/>
				<stop  offset="0.4237" style="stop-color:#003A63"/>
				<stop  offset="0.4339" style="stop-color:#003760"/>
				<stop  offset="0.9835" style="stop-color:#141515"/>
			</linearGradient>
			<path class="st73" d="M119.6,75.8c-0.1-0.1-0.4-0.5-0.7-0.6c-0.3-0.1-1-0.1-1.1,0c-0.1,0-0.2,0.1-0.3,0.2
				c-1.8,3.7-3.5,7.5-5.1,11.4c-0.1,0.1,0,0.3,0,0.4l0.5,0.9c0.1,0.2,0.3,0.2,0.4,0.2c0.2,0,0.3-0.1,0.4-0.3
				c1.2-2.8,2.4-5.6,3.7-8.3l-1,8.5c0,0.2,0.1,0.4,0.2,0.5c0.2,0.1,0.4,0.1,0.5,0l0.9-0.7c0.1-0.1,0.2-0.2,0.2-0.3l1.4-11.4
				C119.7,76,119.7,75.9,119.6,75.8z"/>
			
				<linearGradient id="SVGID_39_" gradientUnits="userSpaceOnUse" x1="107.9837" y1="114.7533" x2="113.8468" y2="114.7533" gradientTransform="matrix(1 0 0 -1 0 202)">
				<stop  offset="4.100000e-03" style="stop-color:#003760"/>
				<stop  offset="0.9421" style="stop-color:#292725"/>
			</linearGradient>
			<path class="st74" d="M113.8,87.6l-0.5-0.9c-0.1-0.1-0.2-0.2-0.4-0.2l-3.7-0.3c-0.2,0-0.3,0.1-0.4,0.2l-0.7,0.8
				c-0.1,0.1-0.1,0.3-0.1,0.5c0.1,0.2,0.2,0.3,0.4,0.3c1.6,0.1,3.3,0.2,4.9,0.3c0.2,0,0.4-0.1,0.4-0.2
				C113.9,87.9,113.9,87.7,113.8,87.6z"/>
			
				<linearGradient id="SVGID_40_" gradientUnits="userSpaceOnUse" x1="116.7564" y1="113.7358" x2="123.508" y2="113.7358" gradientTransform="matrix(1 0 0 -1 0 202)">
				<stop  offset="4.100000e-03" style="stop-color:#003760"/>
				<stop  offset="0.9421" style="stop-color:#292725"/>
			</linearGradient>
			<path class="st75" d="M123.4,88.8l-0.7-1c-0.1-0.1-0.2-0.2-0.3-0.2c-1.4-0.2-2.8-0.4-4.2-0.6c-0.1,0-0.3,0-0.4,0.1l-0.9,0.7
				c-0.2,0.1-0.2,0.3-0.2,0.5c0.1,0.2,0.2,0.3,0.4,0.3c1.9,0.2,3.9,0.5,5.8,0.8c0.2,0,0.4-0.1,0.5-0.2
				C123.5,89.1,123.5,88.9,123.4,88.8z"/>
		</g>
		<path class="st26" d="M137.6,89.1c1,0.4,1.7,0.6,2.1,0.5c0.4-0.1,0.6-0.3,0.8-0.8c0.2-0.5,0.2-0.8-0.1-1.1c-0.2-0.3-0.9-0.6-1.9-1
			c-1.5-0.6-3-1.1-4.5-1.6c-0.3,0.8-0.6,1.6-0.8,2.5C134.7,88,136.1,88.5,137.6,89.1z"/>
		<path class="st26" d="M139.5,83.5c0.9,0.4,1.6,0.5,1.9,0.5c0.3,0,0.6-0.3,0.7-0.6c0.2-0.4,0.1-0.7-0.1-1c-0.2-0.2-0.8-0.6-1.8-0.9
			c-1.5-0.6-3-1.1-4.4-1.6c-0.2,0.7-0.5,1.4-0.7,2.1C136.6,82.4,138,82.9,139.5,83.5z"/>
		<path class="st76" d="M131.1,75l-0.6-1.1c-0.1-0.2-0.3-0.3-0.5-0.2c-0.2,0-0.4,0.2-0.4,0.3l-4.3,15.2c-0.1,0.2,0,0.4,0.2,0.5
			c0.2,0.1,0.4,0.1,0.5,0l1-0.6c0.1-0.1,0.2-0.2,0.2-0.3l3.8-13.6C131.2,75.3,131.2,75.1,131.1,75z"/>
		<path class="st40" d="M148.7,82.2c-0.9-1.2-3-2.2-4.6-2.9c-4.3-1.7-8.8-3.2-13.3-4.5c-0.1,0-0.3,0-0.4,0c-0.1,0.1-0.2,0.2-0.2,0.3
			l-3.8,13.6c-0.1,0.3,0.1,0.5,0.3,0.6c4.3,1.2,8.5,2.7,12.5,4.3l0,0c1.9,0.8,3.4,1,4.5,0.8c1.2-0.2,2-1,2.6-2.2
			c0.2-0.5,0.4-0.9,0.4-1.4c0-0.3,0-0.6-0.1-0.9c-0.2-0.7-0.6-1.4-1.4-2c0,0-0.4-0.3-0.8-0.6c0.5,0,1,0,1,0c0.8,0,1.5-0.2,2-0.5
			c0.6-0.3,1-0.8,1.3-1.4c0.2-0.5,0.3-0.9,0.4-1.3C149.3,83.3,149.1,82.7,148.7,82.2z M139.3,83.8c-1.4-0.5-2.9-1.1-4.4-1.5
			c0,0-0.2-0.1-0.4-0.1c0.2-0.6,0.7-2.2,1-2.8c0.2,0.1,0.3,0.1,0.3,0.1c1.5,0.5,3,1,4.5,1.6c1.6,0.6,1.9,0.9,2,1.1
			c0.1,0.2,0.3,0.4,0.2,0.8c0,0.2-0.1,0.3-0.1,0.5c-0.3,0.6-0.7,0.8-1,0.9C141,84.4,140.4,84.2,139.3,83.8z M133.8,84.6
			c0.2,0.1,0.3,0.1,0.3,0.1c1.5,0.5,3,1,4.5,1.6c1.6,0.6,1.9,1,2,1.1c0.2,0.2,0.3,0.5,0.3,0.9c0,0.2-0.1,0.4-0.1,0.6
			c-0.3,0.7-0.8,0.9-1.1,1c-0.4,0.1-1.1-0.1-2.2-0.5c-1.4-0.5-2.9-1.1-4.4-1.6c0,0-0.2-0.1-0.4-0.1
			C132.9,87.1,133.6,85.2,133.8,84.6z"/>
		
			<linearGradient id="SVGID_41_" gradientUnits="userSpaceOnUse" x1="150.0693" y1="124.8439" x2="148.6435" y2="131.3391" gradientTransform="matrix(0.997 7.790000e-02 7.790000e-02 -0.997 -20.5532 197.1536)">
			<stop  offset="4.100000e-03" style="stop-color:#79ADCF"/>
			<stop  offset="7.390000e-02" style="stop-color:#75A8CB"/>
			<stop  offset="0.1552" style="stop-color:#6A9BBF"/>
			<stop  offset="0.2423" style="stop-color:#5886AC"/>
			<stop  offset="0.3334" style="stop-color:#416C93"/>
			<stop  offset="0.4266" style="stop-color:#244F77"/>
			<stop  offset="0.5083" style="stop-color:#003760"/>
			<stop  offset="0.7934" style="stop-color:#141515"/>
		</linearGradient>
		<path class="st77" d="M143.1,81.5c-0.3-0.3-0.8-0.8-2.4-1.4c-1.5-0.6-3-1.1-4.5-1.6l-0.8-0.3c-0.2-0.1-0.4,0-0.5,0.1
			c-0.1,0.1-0.2,0.4-0.1,0.5l0.5,1.1c0.1,0.1,0.2,0.2,0.3,0.2c1.5,0.5,3,1,4.4,1.6c1.3,0.5,1.6,0.8,1.6,0.8c0,0,0.1,0.2,0,0.5
			c-0.1,0.3-0.3,0.3-0.4,0.3c-0.1,0-0.5,0-1.7-0.5c-1.5-0.5-2.9-1.1-4.4-1.6c-0.1,0-0.2,0-0.4,0l-1.1,0.5c-0.2,0.1-0.3,0.3-0.3,0.5
			c0,0.2,0.1,0.4,0.3,0.4l0.8,0.3c1.4,0.5,2.9,1,4.3,1.5c0,0,0,0,0,0c1.2,0.5,2,0.6,2.5,0.6c0.4,0,1.3-0.3,1.8-1.5
			C143.8,82.6,143.3,81.8,143.1,81.5z"/>
		
			<linearGradient id="SVGID_42_" gradientUnits="userSpaceOnUse" x1="147.5433" y1="118.4185" x2="150.2892" y2="127.2899" gradientTransform="matrix(0.997 7.790000e-02 7.790000e-02 -0.997 -20.5532 197.1536)">
			<stop  offset="4.100000e-03" style="stop-color:#79ADCF"/>
			<stop  offset="7.390000e-02" style="stop-color:#75A8CB"/>
			<stop  offset="0.1552" style="stop-color:#6A9BBF"/>
			<stop  offset="0.2423" style="stop-color:#5886AC"/>
			<stop  offset="0.3334" style="stop-color:#416C93"/>
			<stop  offset="0.4266" style="stop-color:#244F77"/>
			<stop  offset="0.5083" style="stop-color:#003760"/>
			<stop  offset="0.7934" style="stop-color:#141515"/>
		</linearGradient>
		<path class="st78" d="M141.4,86.9c-0.3-0.3-0.8-0.8-2.4-1.4c-1.5-0.6-3-1.1-4.5-1.6l-0.8-0.3c-0.2-0.1-0.4,0-0.5,0.1
			c-0.1,0.1-0.2,0.4-0.1,0.5l0.5,1.1c0.1,0.1,0.2,0.2,0.3,0.2c1.5,0.5,3,1,4.5,1.6c1.2,0.5,1.6,0.8,1.7,0.9c0.1,0.1,0.2,0.2,0,0.7
			c-0.2,0.4-0.4,0.5-0.5,0.5c-0.2,0-0.6,0-1.8-0.5c-1.4-0.5-2.9-1.1-4.4-1.6c-0.1,0-0.2,0-0.4,0l-1.1,0.5c-0.2,0.1-0.3,0.3-0.3,0.5
			c0,0.2,0.1,0.4,0.3,0.4l0.8,0.3c1.5,0.5,2.9,1,4.3,1.5c1.3,0.5,2.1,0.7,2.7,0.6c0.5-0.1,1.4-0.4,1.9-1.6
			C142.2,88.1,141.7,87.2,141.4,86.9z"/>
		
			<linearGradient id="SVGID_43_" gradientUnits="userSpaceOnUse" x1="145.1862" y1="142.6396" x2="152.3152" y2="106.9946" gradientTransform="matrix(0.997 7.790000e-02 7.790000e-02 -0.997 -20.5532 197.1536)">
			<stop  offset="4.100000e-03" style="stop-color:#79ADCF"/>
			<stop  offset="1.910000e-02" style="stop-color:#6397C0"/>
			<stop  offset="5.240000e-02" style="stop-color:#336EA2"/>
			<stop  offset="7.740000e-02" style="stop-color:#005790"/>
			<stop  offset="9.089999e-02" style="stop-color:#004F8A"/>
			<stop  offset="0.1175" style="stop-color:#195E96"/>
			<stop  offset="0.1719" style="stop-color:#477EAE"/>
			<stop  offset="0.2206" style="stop-color:#6397C0"/>
			<stop  offset="0.2614" style="stop-color:#73A7CB"/>
			<stop  offset="0.2893" style="stop-color:#79ADCF"/>
			<stop  offset="0.3879" style="stop-color:#78ABCD"/>
			<stop  offset="0.4312" style="stop-color:#73A4C4"/>
			<stop  offset="0.4637" style="stop-color:#6C98B5"/>
			<stop  offset="0.4908" style="stop-color:#6287A0"/>
			<stop  offset="0.5145" style="stop-color:#557387"/>
			<stop  offset="0.5359" style="stop-color:#465C6C"/>
			<stop  offset="0.5554" style="stop-color:#36444F"/>
			<stop  offset="0.5731" style="stop-color:#252C33"/>
			<stop  offset="0.5785" style="stop-color:#1E242A"/>
			<stop  offset="0.843" style="stop-color:#004F8A"/>
			<stop  offset="1" style="stop-color:#79ADCF"/>
		</linearGradient>
		<path class="st79" d="M149.4,81.7c-0.8-1.1-2.5-2.2-5-3.2c-4.6-1.8-9.4-3.5-14.2-4.8c-0.2-0.1-0.4,0-0.5,0.2
			c-0.1,0.2-0.1,0.4,0,0.5l0.6,1.1c0.1,0.1,0.2,0.2,0.3,0.2c4.5,1.3,9,2.8,13.2,4.5c2.1,0.8,3.6,1.8,4.2,2.6
			c0.3,0.4,0.4,0.7,0.3,1.1c0,0.3-0.1,0.6-0.3,0.9c-0.2,0.5-0.5,0.8-0.9,1c-0.4,0.2-0.9,0.4-1.6,0.4l-2.3,0.1
			c-0.2,0-0.4,0.1-0.4,0.3c-0.1,0.2,0,0.4,0.1,0.5l1.7,1.4c0.6,0.5,0.9,1,1.1,1.5c0,0.2,0.1,0.4,0,0.6c0,0.3-0.1,0.7-0.3,1.1
			c-0.5,1-1.1,1.5-2,1.7c-1,0.2-2.3,0-4-0.7c-4.1-1.7-8.3-3.1-12.6-4.4c-0.1,0-0.3,0-0.4,0l-1,0.6c-0.2,0.1-0.3,0.3-0.2,0.5
			c0,0.2,0.2,0.4,0.3,0.4c4.5,1.3,8.9,2.8,13.3,4.5c2,0.8,3.7,1.1,5,0.8c1.4-0.3,2.5-1.2,3.2-2.7c0.3-0.6,0.4-1.1,0.5-1.7
			c0-0.4,0-0.8-0.1-1.2c-0.1-0.6-0.5-1.2-0.9-1.8c0.5-0.1,1-0.3,1.4-0.5c0.7-0.4,1.2-1,1.6-1.8c0.3-0.5,0.4-1.1,0.4-1.6
			C150.2,83.2,149.9,82.4,149.4,81.7z"/>
		
			<linearGradient id="SVGID_44_" gradientUnits="userSpaceOnUse" x1="143.2152" y1="122.7251" x2="145.8403" y2="122.7251" gradientTransform="matrix(0.997 7.790000e-02 7.790000e-02 -0.997 -20.5532 197.1536)">
			<stop  offset="4.100000e-03" style="stop-color:#003760"/>
			<stop  offset="0.6198" style="stop-color:#292725"/>
		</linearGradient>
		<path class="st80" d="M134.4,84.9l-0.5-1.1c-0.1-0.2-0.3-0.3-0.5-0.3c-0.2,0-0.4,0.1-0.4,0.3l-1.4,4.1c-0.1,0.2,0,0.4,0.1,0.5
			c0.1,0.1,0.4,0.2,0.5,0.1l1.1-0.5c0.1-0.1,0.2-0.2,0.2-0.3l0.8-2.5C134.5,85.1,134.5,85,134.4,84.9z"/>
	</g>
	
		<linearGradient id="SVGID_45_" gradientUnits="userSpaceOnUse" x1="144.6218" y1="128.3033" x2="147.1483" y2="128.3033" gradientTransform="matrix(0.997 7.790000e-02 7.790000e-02 -0.997 -20.5532 197.1536)">
		<stop  offset="0.1405" style="stop-color:#003760"/>
		<stop  offset="0.6198" style="stop-color:#292725"/>
	</linearGradient>
	<path class="st81" d="M136.2,79.6l-0.5-1.1c-0.1-0.2-0.3-0.3-0.5-0.3c-0.2,0-0.4,0.1-0.4,0.3l-1.3,3.7c-0.1,0.2,0,0.4,0.1,0.5
		c0.1,0.1,0.4,0.2,0.5,0.1l1.1-0.5c0.1-0.1,0.2-0.2,0.2-0.3l0.7-2.1C136.2,79.8,136.2,79.7,136.2,79.6z"/>
</g>
</svg>
