<?xml version="1.0" encoding="utf-8"?>
<!-- Generator: Adobe Illustrator 21.1.0, SVG Export Plug-In . SVG Version: 6.00 Build 0)  -->
<svg version="1.1" id="Layer_1" xmlns="http://www.w3.org/2000/svg" xmlns:xlink="http://www.w3.org/1999/xlink" x="0px" y="0px"
	 viewBox="0 0 200 200" style="enable-background:new 0 0 200 200;" xml:space="preserve">
<style type="text/css">
	.st0{fill:#1F211D;}
	.st1{fill:#FFFFFF;}
	.st2{fill:#CA222C;}
	.st3{fill:#929A77;}
</style>
<g>
	<path id="svg_2" class="st0" d="M79.8,55c0.4-2.5,1-5.1,2-7.7c0.3-0.7,1.2-0.9,1.8-0.4l3.3,3.1l4.1-5.6c0.4-0.5,1.2-0.6,1.7-0.2
		l2,1.9l2.1-5.5c0.3-0.7,1.1-0.9,1.7-0.5c0.3,0.2,0,0,0.3,0.2c0.4,0.3,0.8,0.6,1.2,0.8c0.5-0.3,0.9-0.6,1.2-0.8
		c0.3-0.2-0.1,0,0.3-0.2c0.6-0.4,1.4-0.2,1.7,0.5l2.1,5.5l2-1.9c0.5-0.4,1.3-0.4,1.7,0.2l4.1,5.6l3.3-3.1c0.6-0.5,1.5-0.3,1.8,0.4
		c1,2.7,1.7,5.3,2,7.7c27.9,8.6,48.2,34.7,48.2,65.3c0,31.9-22.1,58.9-51.8,66.3l-15.8,13.1c-0.4,0.4-1.3,0.4-1.7,0l-15.8-13.1
		c-29.7-7.5-51.8-34.4-51.8-66.3C31.6,89.7,52,63.7,79.8,55z"/>
	<path id="svg_3" class="st1" d="M110.2,78.2c3.8-4.3,6.3-8.7,7.4-13.5c1-4.6,0.8-9.5-1-15l-3,2.8c-0.4,0.4-1.3,0.4-1.7-0.1
		l-4.1-5.6l-2.3,2.2c-0.6,0.5-1.5,0.3-1.8-0.4l-2.1-5.7c-0.4,0.2-0.7,0.5-1.2,0.7c-0.2,0.1-0.7,0.1-0.9,0c-0.5-0.2-0.8-0.4-1.2-0.7
		l-2.1,5.7c-0.3,0.7-1.2,0.9-1.8,0.4l-2.3-2.2L88,52.3c-0.4,0.5-1.2,0.6-1.7,0.1l-3-2.8c-1.8,5.5-2.1,10.4-1,15
		c1.1,4.8,3.7,9.3,7.4,13.5c3.3-0.8,6.7-1.2,10.2-1.2C103.5,77,106.9,77.4,110.2,78.2z"/>
	<path id="svg_4" class="st1" d="M79.6,60.9c-0.1-0.9-0.1-1.9,0-2.9c-26.2,8.6-45.2,33.4-45.2,62.3c0,30.6,21.2,56.5,49.7,63.7
		c0.4,0.1,0.7,0.2,1,0.5l15,12.4l15-12.4c0.3-0.3,0.6-0.4,1-0.5c28.5-7.2,49.7-33,49.7-63.7c0-29-19-53.7-45.2-62.3c0,1,0,2,0,2.9
		c24.6,8.5,42.4,32,42.4,59.4c0,30.6-22.1,56.3-51.2,61.8v1.5l-2.9,2.4v-23.2c-0.4,0.1-0.7,0.2-1.1,0.2V187l-3,2.4v-26
		c-0.4,0.1-0.7,0.1-1.1,0.1v26.8l-3,2.5v-29.1c-0.2,0-0.4,0-0.5,0s-0.4,0-0.5,0v29.1l-3-2.5v-26.8c-0.4,0-0.7-0.1-1.1-0.1v26l-3-2.4
		v-23.9c-0.4-0.1-0.7-0.2-1.1-0.2v23.2l-2.9-2.4v-1.5c-29.1-5.5-51.2-31.1-51.2-61.8C37.1,92.9,54.9,69.4,79.6,60.9z"/>
	<path id="svg_5" class="st1" d="M79.9,63.7c-23.3,8.3-40,30.6-40,56.6c0,29.1,20.9,53.5,48.5,59v-17.1
		c-18.3-5.1-31.8-21.9-31.8-41.8c0-19.5,13-36.1,30.8-41.5c-3.6-4.3-6.1-8.8-7.2-13.7C80.1,64.7,80,64.2,79.9,63.7z"/>
	<path id="svg_6" class="st1" d="M112.6,78.8c17.8,5.4,30.8,22,30.8,41.5c0,19.9-13.5,36.7-31.8,41.8v17.1
		c27.6-5.4,48.5-29.8,48.5-59c0-26-16.7-48.3-40-56.6c-0.1,0.5-0.2,0.9-0.3,1.4C118.7,70,116.2,74.5,112.6,78.8z"/>
	<path id="svg_7" class="st1" d="M100,161c22.4,0,40.6-18.3,40.6-40.6S122.4,79.7,100,79.7S59.4,98,59.4,120.3S77.6,161,100,161z"/>
	<path id="svg_8" class="st0" d="M100,158.2c20.9,0,37.9-17,37.9-37.9c0-20.9-17-37.9-37.9-37.9s-37.9,17-37.9,37.9
		C62.1,141.2,79.1,158.2,100,158.2z"/>
	<path id="svg_9" class="st1" d="M100,143.2c12.5,0,22.8-10.2,22.8-22.8S112.5,97.5,100,97.5s-22.8,10.2-22.8,22.8
		S87.5,143.2,100,143.2z"/>
	<path id="svg_10" class="st2" d="M100,97.6l-5.1,15.5H78.4l13.1,9.6l-5.3,15.8l13.8-9.6l13.8,9.6l-5.3-15.8l13.1-9.6h-16.4
		L100,97.6z"/>
	<path id="svg_11" class="st1" d="M72.8,120.6l-6.6-0.6l0.4-4.5l1.1,0.1l-0.3,3.2l1.6,0.2l0.3-2.8l1.1,0.1l-0.3,2.8l2.8,0.2
		L72.8,120.6z"/>
	<path id="svg_12" class="st1" d="M68.6,107.8l0.6-1.2l3.2,1.7c0.5,0.3,0.8,0.4,1,0.5c0.3,0.1,0.5,0.1,0.8-0.1
		c0.3-0.1,0.5-0.3,0.6-0.7c0.2-0.4,0.3-0.6,0.2-0.9c-0.1-0.2-0.2-0.4-0.4-0.6c-0.2-0.2-0.5-0.4-1-0.6l-3.3-1.7l0.6-1.2l3.1,1.7
		c0.7,0.4,1.2,0.7,1.4,0.9c0.3,0.2,0.5,0.5,0.6,0.7c0.1,0.3,0.2,0.6,0.1,0.9c0,0.4-0.2,0.8-0.4,1.2c-0.3,0.6-0.6,1-0.9,1.2
		c-0.3,0.2-0.6,0.4-0.9,0.4c-0.3,0.1-0.6,0.1-0.8,0c-0.4-0.1-0.9-0.3-1.5-0.7L68.6,107.8z"/>
	<path id="svg_13" class="st1" d="M75.9,96.6l1.9-1.6c0.4-0.4,0.8-0.6,1-0.7c0.4-0.2,0.8-0.2,1.2-0.2c0.4,0.1,0.8,0.2,1.2,0.4
		c0.4,0.2,0.8,0.6,1.2,1.1c0.3,0.4,0.6,0.8,0.7,1.2c0.2,0.5,0.3,0.9,0.2,1.3c0,0.3-0.2,0.7-0.4,1c-0.2,0.3-0.5,0.6-0.8,0.8l-1.9,1.6
		L75.9,96.6L75.9,96.6z M77.7,96.6l2.8,3.4l0.8-0.7c0.3-0.2,0.5-0.4,0.6-0.6c0.1-0.2,0.2-0.4,0.3-0.6c0-0.2,0-0.4-0.2-0.7
		c-0.1-0.3-0.4-0.6-0.7-1c-0.3-0.4-0.6-0.7-0.9-0.8c-0.2-0.2-0.5-0.2-0.7-0.3c-0.2,0-0.5,0.1-0.7,0.2c-0.2,0.1-0.5,0.3-0.9,0.7
		L77.7,96.6z"/>
	<path id="svg_14" class="st1" d="M87,89.2l2.5-0.8c0.5-0.2,0.9-0.3,1.1-0.3c0.3,0,0.5,0,0.7,0.1c0.2,0.1,0.5,0.2,0.7,0.4
		c0.2,0.2,0.3,0.4,0.4,0.7c0.1,0.3,0.1,0.6,0,0.9c-0.1,0.3-0.2,0.6-0.5,0.8c0.4,0,0.8,0.1,1.1,0.3c0.3,0.2,0.5,0.5,0.6,0.8
		c0.1,0.3,0.1,0.6,0.1,0.9c-0.1,0.3-0.2,0.6-0.3,0.8c-0.2,0.3-0.4,0.4-0.8,0.6c-0.2,0.1-0.7,0.3-1.5,0.5l-2.2,0.7L87,89.2L87,89.2z
		 M88.7,89.8l0.5,1.5L90,91c0.5-0.2,0.8-0.3,0.9-0.3c0.2-0.1,0.4-0.2,0.4-0.4c0.1-0.2,0.1-0.4,0-0.6c-0.1-0.2-0.2-0.3-0.3-0.4
		c-0.2-0.1-0.3-0.1-0.6-0.1c-0.1,0-0.5,0.1-1.1,0.3L88.7,89.8L88.7,89.8z M89.5,92.4l0.6,1.7l1.2-0.4c0.5-0.2,0.8-0.3,0.9-0.3
		c0.2-0.1,0.3-0.2,0.4-0.4c0.1-0.2,0.1-0.4,0-0.6c-0.1-0.2-0.2-0.3-0.3-0.5c-0.2-0.1-0.3-0.2-0.5-0.2c-0.2,0-0.6,0.1-1.1,0.3
		L89.5,92.4z"/>
	<path id="svg_15" class="st1" d="M105.5,93.7l-1.4-0.1l-0.5-1.5l-2.6-0.2l-0.7,1.5l-1.4-0.1l3-6.5l1.4,0.1L105.5,93.7L105.5,93.7z
		 M103.3,90.9l-0.7-2.5l-1.1,2.4L103.3,90.9z"/>
	<path id="svg_16" class="st1" d="M110.3,95.3l3-5.9l1.2,0.6l-2.5,4.9l3,1.5l-0.5,1L110.3,95.3z"/>
	<path id="svg_17" class="st1" d="M119.9,98.8l1,0.9c-0.3,0.3-0.4,0.7-0.4,1c0,0.3,0.1,0.6,0.4,0.9c0.3,0.3,0.6,0.5,0.8,0.6
		c0.3,0.1,0.5,0,0.7-0.2c0.1-0.1,0.2-0.2,0.2-0.4c0-0.2,0-0.3-0.1-0.6c-0.1-0.2-0.2-0.5-0.5-1c-0.3-0.6-0.5-1.1-0.5-1.5
		c0-0.5,0.2-1,0.6-1.3c0.3-0.2,0.6-0.4,0.9-0.4c0.3-0.1,0.7,0,1,0.2c0.4,0.2,0.7,0.5,1,0.8c0.5,0.6,0.8,1.2,0.8,1.8
		c0,0.5-0.2,1-0.7,1.4l-0.9-1c0.2-0.2,0.3-0.5,0.3-0.7c0-0.2-0.2-0.5-0.4-0.8c-0.3-0.3-0.5-0.5-0.8-0.5c-0.2,0-0.3,0-0.5,0.1
		c-0.1,0.1-0.2,0.3-0.2,0.4c0,0.2,0.2,0.6,0.5,1.2c0.3,0.6,0.5,1,0.6,1.4c0.1,0.4,0.1,0.7,0,1c-0.1,0.3-0.3,0.6-0.6,0.9
		c-0.3,0.3-0.6,0.4-1,0.5c-0.4,0.1-0.8,0-1.1-0.2c-0.4-0.2-0.8-0.5-1.1-0.9c-0.6-0.6-0.8-1.2-0.8-1.9
		C119.1,100,119.4,99.4,119.9,98.8z"/>
	<path id="svg_18" class="st1" d="M124.6,108.8l6.3-2.2l0.4,1.3l-2.8,1l3.7,1.6l0.6,1.7l-3.3-1.5l-3,3.8l-0.6-1.6l2.4-2.7l-1.4-0.7
		l-1.9,0.6L124.6,108.8z"/>
	<path id="svg_19" class="st1" d="M127,119.3l6.6-0.2l0.1,1.3l-6.7,0.2L127,119.3z"/>
	<path id="svg_20" class="st1" d="M82.2,149l3.1-5.9l1.2,0.6l-1.4,2.6l3.8-1.3l1.6,0.9l-3.4,1.1l0.4,4.8L86,151l-0.2-3.6l-1.5,0.5
		l-0.9,1.8L82.2,149z"/>
	<path id="svg_21" class="st1" d="M92.5,153.2l1.2-6.5l1.3,0.3l-1,5.4l3.3,0.6l-0.2,1.1L92.5,153.2z"/>
	<path id="svg_22" class="st1" d="M101.4,147.5l1.3-0.2l0.5,3.6c0.1,0.6,0.2,0.9,0.2,1.1c0.1,0.3,0.3,0.5,0.5,0.6
		c0.3,0.1,0.6,0.2,0.9,0.1c0.4-0.1,0.7-0.2,0.8-0.3c0.2-0.2,0.3-0.4,0.3-0.6c0-0.2,0-0.6-0.1-1.1l-0.5-3.6l1.3-0.2l0.5,3.5
		c0.1,0.8,0.2,1.4,0.1,1.7c0,0.3-0.1,0.6-0.3,0.9c-0.2,0.3-0.4,0.5-0.7,0.6c-0.3,0.2-0.7,0.3-1.2,0.4c-0.6,0.1-1.1,0.1-1.4,0
		c-0.4-0.1-0.6-0.3-0.9-0.5c-0.2-0.2-0.4-0.4-0.5-0.7c-0.2-0.4-0.3-0.9-0.4-1.7L101.4,147.5z"/>
	<path id="svg_23" class="st1" d="M110,145.6l2.4-1.2c0.5-0.2,0.8-0.4,1.1-0.5c0.3-0.1,0.5-0.1,0.7-0.1c0.3,0,0.5,0.1,0.7,0.2
		c0.2,0.2,0.4,0.4,0.5,0.6c0.2,0.3,0.2,0.6,0.2,0.9c0,0.3-0.1,0.6-0.3,0.8c0.4-0.1,0.8-0.1,1.1,0.1c0.3,0.1,0.6,0.4,0.8,0.7
		c0.2,0.3,0.2,0.6,0.2,0.9c0,0.3-0.1,0.6-0.2,0.9c-0.2,0.3-0.4,0.5-0.7,0.7c-0.2,0.1-0.7,0.4-1.4,0.8l-2,1.1L110,145.6L110,145.6z
		 M111.7,146l0.7,1.3l0.8-0.4c0.5-0.3,0.8-0.4,0.9-0.5c0.2-0.1,0.3-0.3,0.4-0.5c0.1-0.2,0-0.4-0.1-0.6c-0.1-0.2-0.2-0.3-0.4-0.4
		c-0.2-0.1-0.3-0.1-0.5,0c-0.1,0.1-0.5,0.2-1,0.5L111.7,146L111.7,146z M112.9,148.3l0.8,1.5l1.1-0.6c0.4-0.2,0.7-0.4,0.8-0.5
		c0.2-0.1,0.3-0.3,0.3-0.5c0-0.2,0-0.4-0.1-0.6c-0.1-0.2-0.2-0.3-0.4-0.4c-0.2-0.1-0.3-0.1-0.5-0.1c-0.2,0-0.6,0.2-1.1,0.5
		L112.9,148.3z"/>
	<path id="svg_24" class="st0" d="M128.4,170.9l-3.9-6.7l3.2-2l4.5,6.4l4.1-2.8l-8.4-10.5l-3,2.2l1.5,2.3l-3.1,2l-1.3-2.5l-3.5,2.1
		l5.5,12.1L128.4,170.9z"/>
	<path id="svg_25" class="st0" d="M138.2,143.7l-1.9,2.3l1.2,1.8l-2.9,3.5l-2.2-0.5l-3.1,3.6l13.5,5l2.6-2.9L138.2,143.7
		L138.2,143.7z M137.2,152.1L137.2,152.1l1.5-2l1.4,2.9L137.2,152.1z"/>
	<path id="svg_26" class="st0" d="M155.2,139.3l-2.5-1.4l-2.6,5.3l-2.1-3.6l-2.4,1l0.7,1.6c0,0-3.6,0.8-3.6-2.4c0-2.6,4.4-3,4.4-3
		l-0.2-1c0,0-7.1-0.9-7.4,5.4c-0.2,6.2,7.1,5.5,7.1,5.5l2.5,4.6L155.2,139.3z"/>
	<path id="svg_27" class="st0" d="M157.8,128.3l-8.3-0.6l2.9,3.9l4.5,1.2l-0.9,4.1l-13.1-4.3l0.5-2.8l3.1,0.2l-2.2-3l0.2-3.7
		l13.5,0.2L157.8,128.3z"/>
	<path id="svg_28" class="st0" d="M144.8,114.3l9.7-1.1l-0.2-3.5l3.4-0.2l0.8,11.8h-3.3l-0.2-3.7l-10.1,0.1L144.8,114.3z"/>
	<path id="svg_29" class="st0" d="M121.5,80.5l6.4-11.7l11.9,8.3l-8.9,10.2l-3.1-2.5l6.4-8.6l-3.6-2.6l-6,8.8L121.5,80.5z"/>
	<path id="svg_30" class="st0" d="M145.6,83.7l-13.9,4.6l1.8,2l1.9-0.6l3.1,3.7l-1,1.9l2.7,3.8l8.1-12.5L145.6,83.7L145.6,83.7z
		 M139.6,91L139.6,91l-1.6-2l2.9-0.9L139.6,91z"/>
	<path id="svg_31" class="st0" d="M155.8,100.9l-3.5-7.5l-11.8,6.6l1.5,3.3l2.1-0.9c0,0,2.2,3.8,2.8,4.9c0.7,1.2,2.8,3.2,6.7,1.3
		C158.6,106.2,155.8,100.9,155.8,100.9L155.8,100.9z M151,104.2L151,104.2c-3.2,1.3-4.1-2.1-4.1-2.1l4.8-2.1
		C151.7,100,153.7,103.1,151,104.2z"/>
	<path id="svg_32" class="st0" d="M51.9,87.2l-2.2,3.3l8.9,11.6l1.6-2.5l-1.4-1.7l2.4-3.8l2.2,0.3l2.7-3.9L51.9,87.2L51.9,87.2z
		 M57.2,95.9L57.2,95.9l-1.8-2.7l3.1,0.6L57.2,95.9z"/>
	<path id="svg_33" class="st0" d="M55.4,128.2l-9.6,1.8l0.5,3.5l-3.4,0.6l-1.7-11.7l3.2-0.3l0.6,3.8l10.1-0.9L55.4,128.2z"/>
	<path id="svg_34" class="st0" d="M69.4,153.1l-1.9,0.7l-3.4-3.5l1-1.9l-3-3.6L55.1,158l2.8,2.7l13.5-5.7L69.4,153.1L69.4,153.1z
		 M62.1,155.9L62.1,155.9l1.2-2.9l1.7,1.9L62.1,155.9z"/>
	<path id="svg_35" class="st0" d="M77.6,159.2l-1.2,2c0,0-4-1.8-5.2-2.2c-1.3-0.6-4.1-0.9-6.1,2.9c-2.6,4.9,2.8,7.5,2.8,7.5l7.2,3.9
		l5.6-12.3L77.6,159.2L77.6,159.2z M71.8,167.6L71.8,167.6c0,0-3.4-1.3-1.9-3.7c1.8-2.9,4.6-0.8,4.6-0.8L71.8,167.6z"/>
	<path id="svg_36" class="st0" d="M59.6,139.8l-2.1,0.9c0,0-0.3-0.6-0.8-1.4l1.7-2.4l-1.7-4.9l-2.7,2.9c-1-1-2.9-1.9-5.9-0.5
		c-5,2.4-2.2,7.7-2.2,7.7l3.5,7.5l11.8-6.6L59.6,139.8L59.6,139.8z M49.9,143.1L49.9,143.1c0,0-2-3.1,0.7-4.2
		c3.2-1.3,4.1,2.2,4.1,2.2L49.9,143.1z"/>
	<path id="svg_37" class="st0" d="M54.8,115.1l-13.3-0.9l-0.3,4.8h13.5L54.8,115.1z"/>
	<path id="svg_38" class="st0" d="M44.8,111.8l1.7-6.3l9,7.8l2.8-10.1l-2.8-1.3l-1.1,3.8l-8.9-7.8l-3.7,13.3L44.8,111.8z"/>
	<path id="svg_39" class="st0" d="M65.8,72.6l4.3-2.6L77,81.4l-2.1,1.8L67,82.9l2.8,4l-2.6,2.5l-10-8.9l3.3-3.3l9.5,1.7L65.8,72.6z"
		/>
	<path id="svg_40" class="st3" d="M73.4,0.4c-0.2-0.6-0.5-0.6-0.7,0l-4.1,12.5c-0.2,0.6-0.8,1-1.4,1H54.1c-0.6,0-0.7,0.3-0.2,0.6
		l10.6,7.7c0.5,0.3,0.7,1.1,0.5,1.6l-4.1,12.5c-0.2,0.6,0.1,0.7,0.5,0.4l10.6-7.7c0.5-0.4,1.2-0.4,1.7,0l10.6,7.7
		c0.5,0.4,0.7,0.2,0.5-0.4L81,23.9c-0.2-0.6,0.1-1.3,0.5-1.6l10.6-7.7c0.5-0.3,0.4-0.6-0.2-0.6H78.9c-0.6,0-1.2-0.5-1.4-1L73.4,0.4z
		"/>
	<path id="svg_41" class="st3" d="M126.6,0.4c0.2-0.6,0.5-0.6,0.7,0l4.1,12.5c0.2,0.6,0.8,1,1.4,1h13.2c0.6,0,0.7,0.3,0.2,0.6
		l-10.6,7.7c-0.5,0.3-0.7,1.1-0.5,1.6l4.1,12.5c0.2,0.6-0.1,0.7-0.5,0.4l-10.6-7.7c-0.5-0.4-1.2-0.4-1.7,0l-10.6,7.7
		c-0.5,0.4-0.7,0.2-0.5-0.4l4.1-12.5c0.2-0.6-0.1-1.3-0.5-1.6l-10.6-7.7c-0.5-0.3-0.4-0.6,0.2-0.6h13.1c0.6,0,1.2-0.5,1.4-1
		L126.6,0.4z"/>
	<path id="svg_42" class="st2" d="M90.6,75.4c-2.9-3.6-5-7.3-5.9-11.3C84,61,84,57.8,84.7,54.2l0,0l3.6,3.7
		C88.1,64,89,69.7,91.5,75.2C91.2,75.3,90.9,75.3,90.6,75.4z"/>
	<path id="svg_43" class="st2" d="M92.9,75c-3.9-8-4-16.1-1.2-24.8l3.6,3.4c-1.5,7.2-1.1,14,0.6,21C94.9,74.7,93.9,74.8,92.9,75z"/>
	<path id="svg_44" class="st2" d="M97.3,74.5c-2.5-9.7-2.1-17.4,1.7-26.7c0,8.9,0.2,17.8,0.4,26.6C98.7,74.4,98,74.4,97.3,74.5z"/>
	<path id="svg_45" class="st2" d="M109.4,75.4c2.9-3.6,5-7.3,5.9-11.3c0.7-3.1,0.7-6.4,0.1-9.9l0,0l-3.6,3.7
		c0.2,6.1-0.7,11.8-3.3,17.3C108.8,75.3,109.1,75.3,109.4,75.4z"/>
	<path id="svg_46" class="st2" d="M107.1,75c3.9-8,4-16.1,1.2-24.8l-3.6,3.4c1.5,7.2,1.1,14-0.6,21C105.1,74.7,106.1,74.8,107.1,75z
		"/>
	<path id="svg_47" class="st2" d="M102.7,74.5c2.5-9.7,2.1-17.4-1.7-26.7c0,8.9-0.2,17.8-0.4,26.6C101.3,74.4,102,74.4,102.7,74.5z"
		/>
</g>
</svg>
