<?xml version="1.0" encoding="utf-8"?>
<!-- Generator: Adobe Illustrator 21.1.0, SVG Export Plug-In . SVG Version: 6.00 Build 0)  -->
<svg version="1.1" id="Layer_1" xmlns="http://www.w3.org/2000/svg" xmlns:xlink="http://www.w3.org/1999/xlink" x="0px" y="0px"
	 viewBox="0 0 200 200" style="enable-background:new 0 0 200 200;" xml:space="preserve">
<style type="text/css">
	.st0{fill:#FFFFFF;}
	.st1{fill:#2BA44F;}
</style>
<g>
	<path class="st0" d="M95.4,194.7c-3.8-2.9-8-5.2-12.4-6.9c-4.9-1.8-9.9-3.4-14.8-5.1c-5.8-2.1-11.5-4.4-16.9-7.3
		c-20.5-11.2-36.1-31.2-37-55.1c-0.3-7.6,0.3-15.3,2.2-22.7c1.3-4.9,3.2-9.4,5.1-14.1c1.1-2.6,2.4-5.2,3.6-7.8
		c1.2-2.5,2.3-5,3.1-7.7c0.9-3.3,1.3-6.6,1.3-10c0.1-9.5-3.6-16.6-9-24.1L17,29L41.2,1.6l5.3,2.9c9.6,5.2,20.5,5.1,30.1,0l3.9-2.1
		l3.7,2.3c8.5,5.2,23.1,5.2,31.6,0l3.7-2.3l3.9,2.1c9.6,5.1,20.5,5.2,30.1,0l5.3-2.9L183,29l-3.5,4.9c-5.4,7.5-9.1,14.7-9,24.1
		c0,3.4,0.4,6.7,1.3,10c0.8,2.7,1.9,5.2,3.1,7.7c1.2,2.6,2.5,5.1,3.6,7.8c1.9,4.6,3.8,9.2,5.1,14.1c1.9,7.4,2.5,15.1,2.2,22.7
		c-0.9,23.9-16.6,43.9-37,55.1c-5.4,3-11.1,5.3-16.9,7.3c-4.9,1.7-9.9,3.3-14.8,5.1c-4.2,1.6-8.7,3.8-12.2,6.7l-4.7,3.8L95.4,194.7
		L95.4,194.7z"/>
	<path class="st1" d="M183.6,97.6c-1.3-4.9-3.2-9.5-5.1-14.1c-1.1-2.7-2.4-5.2-3.6-7.8c-1.2-2.5-2.3-5-3.1-7.7
		c-0.9-3.3-1.3-6.6-1.3-10c-0.1-9.4,3.6-16.6,9-24.1L183,29L158.8,1.6l-5.3,2.9c-9.6,5.2-20.5,5.1-30.1,0l-3.9-2.1l-3.7,2.3
		c-8.5,5.2-23.1,5.2-31.6,0l-3.7-2.3l-3.9,2.1c-9.6,5.1-20.5,5.2-30.1,0l-5.3-2.9L17,29l3.6,4.9c5.4,7.5,9.1,14.6,9,24.1
		c0,3.4-0.4,6.7-1.3,10c-0.8,2.7-1.9,5.2-3.1,7.7c-1.2,2.6-2.5,5.2-3.6,7.8c-1.9,4.7-3.8,9.2-5.1,14.1c-1.9,7.4-2.5,15.1-2.2,22.7
		c0.9,23.9,16.5,43.9,37,55.1c5.4,2.9,11.1,5.2,16.9,7.3c4.9,1.7,9.9,3.3,14.8,5.1c4.4,1.7,8.6,4,12.4,6.9l4.8,3.6l4.7-3.8
		c3.5-2.9,8-5.1,12.2-6.7c4.9-1.8,9.9-3.4,14.8-5.1c5.8-2,11.5-4.3,16.9-7.3c20.4-11.2,36.1-31.2,37-55.1
		C186.1,112.7,185.5,105,183.6,97.6z M181.3,120.2c-0.8,22.3-15.6,40.9-34.7,51.3c-5.2,2.8-10.7,5.1-16.3,7.1
		c-5,1.8-10,3.3-14.9,5.2c-4.7,1.8-9.6,4.2-13.5,7.4l-1.9,1.6l-1.9-1.6c-4.2-3.2-8.7-5.6-13.6-7.5c-4.9-1.9-9.9-3.4-14.9-5.2
		c-5.6-2-11.1-4.2-16.3-7.1c-19.1-10.4-33.9-29-34.7-51.3c-0.3-7.2,0.3-14.4,2.1-21.4c1.2-4.7,3.1-9.1,4.9-13.5
		c1.1-2.6,2.3-5.1,3.5-7.6c1.3-2.7,2.5-5.5,3.4-8.4c1-3.6,1.5-7.4,1.5-11.2c0.1-10.5-3.9-18.4-9.8-26.8l-1.5-2l19.5-22l2.2,1.2
		c10.9,5.9,23.4,5.8,34.3,0l1.6-0.9l1.5,1c9.9,6.1,26.4,6.1,36.3,0l1.5-1l1.6,0.9c10.9,5.8,23.4,5.9,34.3,0l2.2-1.2l19.5,22.1
		l-1.5,2c-6,8.3-9.9,16.3-9.8,26.8c0,3.8,0.4,7.5,1.5,11.2c0.8,2.9,2,5.7,3.4,8.4c1.2,2.5,2.4,5,3.5,7.6c1.8,4.5,3.7,8.8,4.9,13.5
		C181,105.8,181.6,113,181.3,120.2z"/>
	<path class="st1" d="M99.4,189.5c-4.4-3.3-9-5.9-14.1-7.8c-4.9-1.9-10-3.4-14.9-5.2c-5.5-1.9-10.8-4.1-15.9-6.9
		c-18.4-10-32.8-28-33.6-49.6c-0.3-7,0.2-14,2-20.8c1.2-4.7,3-8.8,4.8-13.3c1-2.5,2.3-5,3.5-7.4c1.4-2.9,2.6-5.7,3.5-8.8
		c1.1-3.8,1.5-7.7,1.6-11.7c0.1-11-4-19.3-10.2-28l-0.5-0.7L42.7,9.9l0.7,0.4c11.5,6.3,24.8,6.1,36.3,0l0.5-0.3l0.5,0.3
		c10.6,6.6,27.9,6.6,38.5,0l0.5-0.3l0.5,0.3c11.5,6.2,24.8,6.3,36.3,0l0.7-0.4l17.3,19.6l-0.5,0.7c-6.2,8.7-10.3,17-10.2,28
		c0,4,0.5,7.9,1.6,11.7c0.9,3.1,2.1,5.9,3.5,8.8c1.2,2.5,2.4,4.9,3.5,7.4c1.8,4.4,3.6,8.6,4.8,13.3c1.8,6.8,2.3,13.8,2,20.8
		c-0.8,21.6-15.2,39.5-33.6,49.6c-5.1,2.8-10.5,5-15.9,6.9c-5,1.8-10,3.3-14.9,5.2c-4.9,1.8-10.1,4.4-14.1,7.8L100,190L99.4,189.5
		L99.4,189.5z M32.4,78.2L32.4,78.2l40-37.6l8.1,6.2l19.9-18.6l14.8,14l6.3-5.9l46.1,41.9h0.1c-2.5-5.3-4.7-10.9-4.7-20
		c-0.1-11.6,4.5-20.3,10.4-28.6l-16.2-18.3c-10.1,5.5-23.8,7.2-37.3,0c-10.9,6.8-28.7,6.8-39.6,0c-13.5,7.2-27.2,5.5-37.3,0
		L26.7,29.5c6,8.3,10.5,17,10.4,28.6C37.1,67.3,34.9,72.9,32.4,78.2L32.4,78.2z M168.4,79.8H31.6c-1,2.1-2.1,4.3-3.1,6.6
		c-2.1,5.2-4.9,11-6.1,19.9h155.2c-1.3-8.9-4-14.7-6.1-19.9C170.5,84.1,169.4,81.9,168.4,79.8L168.4,79.8z M159.4,108v50.5
		c10.6-9.7,18.2-23,18.8-38.5c0.2-4.6,0-8.5-0.4-12H159.4L159.4,108z M136.4,172.9V108h-25v13c-3.5-1.7-7.4-2.6-11.5-2.6
		s-8,0.9-11.5,2.6v-13h-25v64.8c7.7,3.2,15.2,5.3,22.2,7.9c0.5,0.2,1.5,0.6,2.8,1.1v-12.5c3.5,1.7,7.4,2.6,11.5,2.6s8-0.9,11.5-2.6
		v12.6c1.4-0.6,2.4-1,3-1.2C121.3,178.1,128.8,176,136.4,172.9L136.4,172.9z M40.5,158.4V108H22.2c-0.4,3.5-0.6,7.5-0.4,12
		C22.4,135.5,30,148.6,40.5,158.4L40.5,158.4z"/>
	<polygon class="st1" points="41.7,103.1 35.8,103.1 35.8,83.5 50.9,83.5 50.9,103.1 45,103.1 45,86.9 41.7,86.9 	"/>
	<polygon class="st1" points="65.4,103.1 54.1,103.1 54.1,83.5 65.4,83.5 65.4,86.9 60,86.9 60,91.4 64.6,91.4 64.6,94.5 60,94.5 
		60,99.6 65.4,99.6 	"/>
	<polygon class="st1" points="147,103.1 135.7,103.1 135.7,83.5 147,83.5 147,86.9 141.6,86.9 141.6,91.4 146.2,91.4 146.2,94.5 
		141.6,94.5 141.6,99.6 147,99.6 	"/>
	<polygon class="st1" points="82.7,83.5 82.7,103.1 77.3,103.1 77.3,86.9 74.8,86.9 74.1,87.5 74.1,100.2 69.6,103.1 67.2,103.1 
		67.2,99.8 68.4,99.8 68.4,86.7 73.3,83.5 	"/>
	<polygon class="st1" points="86.3,83.5 91.4,83.5 91.4,95.1 96.6,83.5 101,83.5 101,103.1 95.8,103.1 95.8,92.9 90.9,103.1 
		86.3,103.1 	"/>
	<polygon class="st1" points="109,83.5 114.4,83.5 119,86.9 119,90.6 113.6,90.6 113.6,86.9 110,86.9 110,99.6 113.6,99.6 
		113.6,95.4 119,95.4 119,99.6 114.4,103.1 109,103.1 104.6,99.6 104.6,86.9 	"/>
	<polygon class="st1" points="130,103.1 124.1,103.1 124.1,86.9 120.5,86.9 120.5,83.5 133.6,83.5 133.6,86.9 130,86.9 	"/>
	<path class="st1" d="M155.6,93.1h2.8V87h-2.8V93.1L155.6,93.1z M155.6,103.1H150V83.5h9.5l4.3,2.7v7.6l-4.3,2.7h-3.8L155.6,103.1
		L155.6,103.1z"/>
	<polygon class="st1" points="44,32.8 41.8,32.8 41.8,23.5 40.5,23.5 40.5,22.3 41.8,21.3 44,21.3 	"/>
	<path class="st1" d="M50.9,26.1v-2.7h-1.8v2.7H50.9L50.9,26.1z M51.4,21.3l1.6,1.5v8.3l-1.6,1.6h-2.9l-1.6-1.6v-2h2.2v1.6h1.8V28
		h-2.4l-1.6-1.5v-3.7l1.6-1.5L51.4,21.3L51.4,21.3z"/>
	<path class="st1" d="M55.7,28.6h2V25L55.7,28.6L55.7,28.6z M59.8,32.8h-2.1v-2.3h-3l-1.1-1.8l4.1-7.3h2.1v7.3h1v1.8h-1V32.8
		L59.8,32.8z"/>
	<polygon class="st1" points="62.8,32.8 61.2,31.2 61.2,29 63.3,29 63.3,30.8 65.2,30.8 65.2,27.7 63,27.7 61.4,26.2 61.4,21.3 
		66.6,21.3 66.6,23.3 63.4,23.3 63.4,25.7 65.7,25.7 67.4,27.3 67.4,31.2 65.7,32.8 	"/>
	<path class="st1" d="M144.8,25v3.7h1.7V25H144.8L144.8,25z M148.7,24.6V29l-1.8,1.6h-2.1v2h-2.1v-2h-2.1l-1.8-1.6v-4.4l1.8-1.6h2.1
		v-2h2.1v2h2.1L148.7,24.6L148.7,24.6z M142.7,28.7V25H141v3.7H142.7L142.7,28.7z"/>
	<polygon class="st1" points="152.4,32.6 150.2,32.6 150.2,21.1 152.4,21.1 152.4,25.8 155.1,21.1 157.6,21.1 154.4,26.1 
		157.7,32.6 155.2,32.6 152.4,26.9 	"/>
	<path class="st1" d="M99.9,121.1c13.3,0,24.1,10.8,24.1,24.1s-10.8,24.1-24.1,24.1s-24.1-10.8-24.1-24.1S86.6,121.1,99.9,121.1
		L99.9,121.1z M107.7,123.7c6.4,4.6,10.7,11.1,12.2,19c0.9-0.4,1.7-0.8,2.6-1.3C121.1,133.2,115.4,126.5,107.7,123.7L107.7,123.7z
		 M118.6,143.3c-1.6-8.9-6.8-15.8-14.6-20.4l-0.4-0.2c-1.2-0.2-2.4-0.3-3.7-0.3c-1.2,0-2.4,0.1-3.6,0.3c7.5,6.1,11.5,12.9,13.3,22.5
		C112.7,145,115.7,144.4,118.6,143.3L118.6,143.3z M111.9,164.6c-6.1,1.5-12,1.3-18.2-0.6c-0.1,1-0.2,2-0.2,2.9v0.1
		c2.1,0.6,4.2,0.9,6.5,0.9C104.3,168,108.4,166.8,111.9,164.6L111.9,164.6z M93.8,162.7c7.1,2.2,13.7,2.2,20.8-0.2l0.3-0.1
		c2.6-2.3,4.7-5.1,6-8.4c-8.1,3.9-16.9,3.9-25.3,0.8C94.8,157.3,94.2,160,93.8,162.7L93.8,162.7z M96.1,153.5
		c8.5,3.1,17.4,3,25.6-1.3c0.7-2.2,1.1-5.4,1.1-7s0-1.6,0-2.3c-7.2,3.8-14.2,4.4-23.2,3C98.1,148.2,97,151.1,96.1,153.5L96.1,153.5z
		 M77.7,150.3c0.6-8,4-15.4,10-21c-0.7-0.7-1.5-1.3-2.2-1.8c-5.1,4.2-8.4,10.5-8.4,17.7C77.1,146.9,77.3,148.6,77.7,150.3
		L77.7,150.3z M88.6,130.2c-6.7,6.2-10.2,14.8-9.7,24c1,2.2,2.3,4.3,3.8,6.1c0.5-9.9,4.1-17.3,11.1-24.2
		C92.3,133.9,90.5,131.9,88.6,130.2L88.6,130.2z M94.7,137.2c-6.9,6.9-10.3,14.2-10.6,24.2v0.2c2.2,2.2,5.1,3.9,8.1,5
		c0.3-7.7,2.9-16.4,6.4-21.5C97.9,142.5,96.4,139.7,94.7,137.2L94.7,137.2z M108.3,145.2c-1.8-9.5-5.9-16.2-13.7-22.3
		c-2.8,0.7-5.7,2-7.9,3.6c5.5,4.3,11.7,11.6,13.2,18C102.7,145,105.6,145.3,108.3,145.2L108.3,145.2z"/>
</g>
</svg>
