<?xml version="1.0" encoding="utf-8"?>
<!-- Generator: Adobe Illustrator 21.1.0, SVG Export Plug-In . SVG Version: 6.00 Build 0)  -->
<svg version="1.1" id="Layer_1" xmlns="http://www.w3.org/2000/svg" xmlns:xlink="http://www.w3.org/1999/xlink" x="0px" y="0px"
	 viewBox="0 0 200 200" style="enable-background:new 0 0 200 200;" xml:space="preserve">
<style type="text/css">
	.st0{fill:#E2202E;}
	.st1{fill:#FFFFFF;}
	.st2{fill:#353C39;}
</style>
<g id="_x3C_Group_x3E_">
	<path id="path8" class="st0" d="M99.7,0c11.8,0,22.7,3.5,32.1,8.6c12.7,7,22.8,19.7,26.8,31h-23.3c-7.5-11.4-20.5-19-35.2-19
		c-14.7,0-27.7,7.6-35.2,19H40.9c3.7-12,14.4-24.3,28.5-32C78.4,2.8,88.6,0,99.7,0z M159.2,78.8v63.6c0,36.1-26.8,57.6-59.5,57.6
		s-59.1-24.9-59.1-57.6V78.8H46v69.5l3.3,2.7l3.4-2.7V78.8h8.5c6.3,15.3,21.4,26,38.9,26c17.5,0,32.6-10.7,38.9-26h7.8v69.5l3.3,2.7
		l3.4-2.7V78.8H159.2z"/>
	<g id="g10">
		<g id="g12">
			<path id="path14_1_" class="st0" d="M15.8,43.2h47c-1.4,2.7-2.5,5.6-3.3,8.6H20.1L15.8,43.2z"/>
			<path id="path16_1_" class="st0" d="M21.9,55.4h36.7c-0.4,2.4-0.6,4.8-0.6,7.3c0,0.4,0,0.8,0,1.2H26.2L21.9,55.4z"/>
			<path id="path18_1_" class="st0" d="M28.1,67.7h30.2c0.3,2.7,0.9,5.3,1.7,7.8H32L28.1,67.7z"/>
		</g>
		<g id="g20">
			<path id="path22" class="st0" d="M184.2,43.7h-46.6c1.4,2.7,2.5,5.6,3.2,8.6h39.1L184.2,43.7z"/>
			<path id="path24" class="st0" d="M178.1,55.8h-36.5c0.4,2.2,0.6,4.5,0.6,6.9c0,0.6,0,1.1,0,1.7h31.7L178.1,55.8z"/>
			<path id="path26" class="st0" d="M171.9,68.1h-30.1c-0.3,2.7-1,5.3-1.8,7.8h28L171.9,68.1z"/>
		</g>
	</g>
	<g id="g28">
		<path id="path30" class="st1" d="M84.9,123.9h2.7v-14.6h-2c-0.1,0.5-0.3,0.9-0.6,1.2c-0.3,0.3-0.6,0.6-0.9,0.8
			c-0.4,0.2-0.7,0.3-1.2,0.4c-0.4,0.1-0.9,0.1-1.3,0.1v2h3.3V123.9z"/>
		<path id="path32" class="st1" d="M95.4,114.6c0,0.3,0,0.6,0,0.9c0,0.3-0.1,0.6-0.1,0.8c-0.1,0.3-0.2,0.5-0.4,0.6
			c-0.2,0.2-0.4,0.2-0.8,0.2c-0.3,0-0.5-0.1-0.7-0.2c-0.2-0.1-0.3-0.3-0.4-0.5c-0.1-0.2-0.1-0.4-0.2-0.6c0-0.2,0-0.5,0-0.7
			c0-0.2,0-0.5,0-0.7c0-0.5,0-0.9,0-1.3c0-0.4,0-0.7,0.1-1c0.1-0.3,0.2-0.5,0.4-0.7c0.2-0.2,0.4-0.2,0.8-0.2c0.4,0,0.6,0,0.8,0.2
			c0.2,0.2,0.3,0.4,0.4,0.7c0.1,0.3,0.1,0.7,0.1,1.1C95.4,113.7,95.4,114.1,95.4,114.6z M98.1,114.8c0-0.9,0-1.6-0.2-2.3
			c-0.1-0.7-0.3-1.3-0.6-1.7c-0.3-0.5-0.7-0.9-1.3-1.1c-0.5-0.3-1.2-0.4-2-0.4c-0.8,0-1.4,0.1-2,0.4c-0.5,0.2-0.9,0.6-1.2,1.1
			c-0.3,0.5-0.5,1-0.7,1.7c-0.1,0.7-0.2,1.5-0.2,2.4c0,1,0.1,1.8,0.3,2.5c0.2,0.7,0.6,1.2,1.1,1.5c0.5,0.3,1.1,0.5,1.9,0.5
			c0.4,0,0.8-0.1,1-0.1c0.3-0.1,0.5-0.2,0.7-0.4c0.2-0.1,0.3-0.3,0.5-0.5v0.9c0,0.2,0,0.4,0,0.6c0,0.2,0,0.5-0.1,0.7
			c0,0.2-0.1,0.5-0.2,0.7c-0.1,0.2-0.2,0.4-0.4,0.5c-0.2,0.1-0.4,0.2-0.7,0.2c-0.3,0-0.5,0-0.7-0.1c-0.2-0.1-0.3-0.2-0.4-0.3
			c-0.1-0.1-0.1-0.2-0.1-0.4c0-0.1,0-0.3,0-0.4h-2.5c0,0.6,0.1,1.1,0.2,1.5c0.2,0.4,0.4,0.8,0.7,1c0.3,0.3,0.7,0.5,1.2,0.6
			c0.4,0.1,0.9,0.2,1.5,0.2c0.6,0,1.1-0.1,1.5-0.2c0.5-0.1,0.8-0.3,1.2-0.6c0.3-0.3,0.6-0.6,0.8-1.1c0.2-0.5,0.4-1,0.5-1.7
			c0.1-0.7,0.2-1.5,0.2-2.4V114.8z"/>
		<path id="path34" class="st1" d="M102.8,117.1c0.2,0,0.4,0,0.6,0c0.2,0,0.5,0,0.7,0.1c0.2,0,0.4,0.1,0.6,0.2
			c0.2,0.1,0.4,0.2,0.5,0.3c0.1,0.1,0.2,0.3,0.2,0.5c0,0.2,0.1,0.4,0.1,0.6c0,0.2,0,0.4,0,0.5c0,0.3,0,0.7,0,1
			c0,0.3-0.1,0.6-0.2,0.9c-0.1,0.3-0.2,0.5-0.4,0.6c-0.2,0.2-0.5,0.2-0.9,0.2c-0.3,0-0.6-0.1-0.8-0.2c-0.2-0.1-0.4-0.3-0.5-0.5
			c-0.1-0.2-0.2-0.5-0.2-0.7c0-0.3,0-0.5-0.1-0.8c0-0.3,0-0.5,0-0.8H100v0.9c0,0.3,0,0.7,0,1c0,0.4,0.1,0.8,0.3,1.1
			c0.1,0.4,0.4,0.7,0.7,1.1c0.3,0.3,0.7,0.6,1.2,0.8c0.5,0.2,1.1,0.3,1.9,0.3c1,0,1.8-0.2,2.4-0.6c0.6-0.4,1.1-0.9,1.4-1.6
			c0.3-0.7,0.4-1.5,0.4-2.5c0-0.7-0.1-1.4-0.3-1.9c-0.2-0.5-0.4-0.9-0.8-1.2c-0.3-0.3-0.7-0.4-1.2-0.5v0c0.4-0.1,0.7-0.2,0.9-0.4
			c0.2-0.2,0.4-0.4,0.6-0.7c0.1-0.3,0.3-0.6,0.3-0.9c0.1-0.3,0.1-0.7,0.1-1c0-0.8-0.1-1.4-0.4-2c-0.3-0.6-0.7-1-1.3-1.3
			c-0.6-0.3-1.3-0.5-2.3-0.5c-0.9,0-1.7,0.2-2.3,0.5c-0.6,0.3-1,0.8-1.3,1.5c-0.3,0.6-0.4,1.4-0.3,2.3h2.6v-1c0-0.3,0.1-0.5,0.2-0.7
			c0.1-0.2,0.3-0.3,0.5-0.3c0.2-0.1,0.4-0.1,0.6-0.1c0.4,0,0.8,0.1,1,0.4c0.2,0.3,0.3,0.7,0.3,1.2c0,0.2,0,0.5-0.1,0.7
			c0,0.2-0.1,0.4-0.2,0.6c-0.1,0.2-0.3,0.3-0.5,0.5c-0.2,0.1-0.4,0.1-0.6,0.1c-0.2,0-0.4,0-0.6,0c-0.2,0-0.4,0-0.6,0V117.1z"/>
		<path id="path36" class="st1" d="M110.2,111.6h5.8c-0.2,0.3-0.3,0.5-0.5,0.8c-0.2,0.3-0.3,0.6-0.5,0.9c-0.2,0.3-0.3,0.6-0.4,0.9
			c-0.1,0.3-0.2,0.5-0.3,0.7c-0.4,1-0.7,1.9-1.1,2.9c-0.3,1-0.6,2-0.8,3c-0.2,1-0.4,2-0.4,3h2.8c0-0.9,0.1-1.8,0.3-2.7
			c0.2-0.9,0.3-1.8,0.6-2.7c0.3-1.2,0.7-2.4,1.1-3.6c0.4-1.2,1-2.3,1.6-3.5v-2h-8.2V111.6z"/>
	</g>
	<g id="g38">
		<path id="path40" class="st1" d="M73.8,179.9c-0.1,0.1-0.2,0.3-0.4,0.4c-0.1,0.2-0.3,0.4-0.5,0.5c-0.2,0.2-0.3,0.3-0.5,0.5
			c-0.2,0.1-0.4,0.2-0.6,0.2c-0.2,0-0.4,0-0.6-0.2c-0.2-0.2-0.4-0.4-0.5-0.6c-0.1-0.2-0.1-0.4-0.1-0.6c0-0.2,0.1-0.4,0.2-0.6
			c0.1-0.2,0.2-0.4,0.3-0.6c0.1-0.2,0.2-0.4,0.4-0.5l2-2.6c0.1-0.2,0.2-0.3,0.4-0.5c0.2-0.2,0.3-0.4,0.5-0.6
			c0.2-0.2,0.4-0.3,0.6-0.5c0.2-0.1,0.5-0.2,0.7-0.2c0.3,0,0.5,0.1,0.8,0.3c0.2,0.1,0.3,0.3,0.3,0.4c0,0.2,0,0.3,0,0.5
			c0,0.2-0.1,0.3-0.2,0.5c-0.1,0.2-0.2,0.3-0.3,0.5c-0.1,0.2-0.2,0.3-0.3,0.4l1.7,1.3c0.1-0.1,0.2-0.2,0.3-0.4
			c0.1-0.1,0.2-0.3,0.2-0.4c0.5-0.9,0.8-1.6,0.6-2.4c-0.1-0.7-0.6-1.4-1.4-2c-0.6-0.4-1.1-0.7-1.5-0.8c-0.5-0.1-0.9-0.2-1.3-0.1
			c-0.4,0.1-0.8,0.3-1.2,0.5c-0.4,0.3-0.7,0.6-1.1,1c-0.4,0.4-0.7,0.8-1.1,1.3l-1,1.3c-0.4,0.5-0.7,1-1,1.4
			c-0.3,0.5-0.5,0.9-0.7,1.4c-0.2,0.4-0.2,0.9-0.2,1.3c0,0.4,0.2,0.9,0.5,1.3c0.3,0.4,0.7,0.9,1.3,1.3c0.5,0.4,1,0.6,1.4,0.7
			c0.4,0.1,0.9,0.1,1.3,0c0.4-0.1,0.8-0.3,1.2-0.6c0.4-0.3,0.7-0.7,1.1-1.1c0.1-0.1,0.1-0.2,0.2-0.3c0.1-0.1,0.2-0.2,0.2-0.3
			L73.8,179.9z"/>
		<path id="path42" class="st1" d="M80.3,188.1l1.3-3.1l1.2-0.9l0.2,5.1l2.3,0.9l-0.3-7.4l4.6-3.6l-2.3-0.9l-2.1,1.8
			c-0.3,0.2-0.5,0.4-0.8,0.7c-0.3,0.2-0.5,0.5-0.8,0.7c-0.3,0.2-0.5,0.5-0.7,0.7l0,0l1.9-4.9l-2.1-0.8l-4.4,11L80.3,188.1z"/>
		<path id="path44" class="st1" d="M90.7,185.9c-0.1,0.6-0.2,1.2-0.2,1.8c0,0.6,0,1.1,0.1,1.5c0.1,0.5,0.2,0.9,0.5,1.2
			c0.2,0.4,0.6,0.7,1,0.9c0.4,0.2,1,0.4,1.7,0.5c0.7,0.1,1.3,0.1,1.8,0c0.5-0.1,0.9-0.3,1.2-0.6c0.3-0.3,0.6-0.6,0.8-1.1
			c0.2-0.4,0.4-0.9,0.5-1.5c0.1-0.5,0.2-1.1,0.3-1.8l0.2-1.7c0.1-0.6,0.1-1.2,0.1-1.7c0-0.5,0-1-0.1-1.5c-0.1-0.5-0.2-0.8-0.5-1.2
			c-0.2-0.3-0.6-0.6-1-0.9c-0.4-0.2-1-0.4-1.7-0.5c-0.7-0.1-1.3-0.1-1.8,0c-0.5,0.1-0.9,0.3-1.2,0.6c-0.3,0.3-0.6,0.6-0.8,1
			c-0.2,0.4-0.4,0.9-0.5,1.4c-0.1,0.5-0.2,1.1-0.3,1.7L90.7,185.9z M93.3,184c0-0.2,0.1-0.4,0.1-0.7c0-0.2,0.1-0.5,0.2-0.8
			c0.1-0.3,0.2-0.5,0.3-0.7c0.1-0.2,0.3-0.4,0.6-0.5c0.2-0.1,0.5-0.1,0.9-0.1c0.3,0,0.6,0.2,0.8,0.3c0.2,0.2,0.3,0.4,0.4,0.6
			c0.1,0.2,0.1,0.5,0.1,0.8c0,0.3,0,0.5,0,0.8c0,0.3-0.1,0.5-0.1,0.7l-0.4,3c0,0.2-0.1,0.5-0.1,0.7c0,0.2-0.1,0.5-0.2,0.7
			c-0.1,0.2-0.2,0.4-0.3,0.6c-0.1,0.2-0.3,0.3-0.5,0.4c-0.2,0.1-0.5,0.1-0.8,0.1c-0.3,0-0.5-0.1-0.7-0.3c-0.2-0.1-0.3-0.3-0.4-0.5
			c-0.1-0.2-0.1-0.4-0.2-0.6c0-0.2,0-0.5,0-0.7c0-0.2,0-0.4,0.1-0.6L93.3,184z"/>
		<path id="path46" class="st1" d="M114.2,185.9c0.1,0.3,0.2,0.5,0.4,0.8c0.1,0.3,0.3,0.5,0.4,0.7c0.1,0.2,0.3,0.4,0.4,0.6
			c0.1,0.2,0.3,0.3,0.4,0.3c0.3,0.2,0.6,0.3,0.9,0.3c0.3,0.1,0.6,0,0.9,0c0.3-0.1,0.5-0.1,0.8-0.3c0.3-0.2,0.6-0.3,0.9-0.5
			c0.3-0.2,0.5-0.4,0.7-0.6c0.2-0.2,0.4-0.5,0.4-0.8c0.1-0.2,0.1-0.5,0.1-0.7c0-0.2-0.1-0.5-0.1-0.7c-0.1-0.2-0.2-0.5-0.3-0.7
			c-0.1-0.2-0.2-0.4-0.3-0.6L116,176l-2,1l4,8.2c0.1,0.1,0.1,0.3,0.2,0.4c0.1,0.1,0.1,0.3,0.1,0.4c0,0.1,0,0.2-0.1,0.4
			c-0.1,0.1-0.2,0.2-0.4,0.3c-0.2,0.1-0.3,0.1-0.4,0.1c-0.1,0-0.2-0.1-0.3-0.2c-0.1-0.1-0.2-0.2-0.2-0.3l-0.6-1.3L114.2,185.9z"/>
		<path id="path48_1_" class="st1" d="M131.3,180.2l-1-1.4l-3.2,2.4l-2.2-2.9l3-2.2l-1-1.4l-3,2.2l-1.8-2.4l3.2-2.4l-1-1.4l-5,3.7
			l7,9.5L131.3,180.2z"/>
		<path id="path50_1_" class="st1" d="M101.4,180.2l7.4-1.5l2.3,11.6l-2.2,0.4l-2-9.8l-3.1,0.6l2,9.8l-2.2,0.4L101.4,180.2z"/>
	</g>
	<g id="g52">
		<path id="path54_1_" class="st1" d="M100.3,6.9c0-1.8-1.5-2.8-3.1-2.8V3.3h-1.7V4c-1.6,0.1-3,1-3,2.7c0,1.7,1.3,2.8,3,2.9v0.8h1.7
			V9.7C98.9,9.6,100.3,8.8,100.3,6.9z M98.5,6.9c0,0.9-0.4,1.5-1.3,1.5V5.3C98.1,5.3,98.5,5.9,98.5,6.9z M95.5,8.4
			c-0.9,0-1.3-0.6-1.3-1.5c0-0.9,0.4-1.5,1.3-1.6V8.4z"/>
		<path id="path56" class="st1" d="M106,12l-2-0.1l-0.2,2.9l-2.7-0.2l0.2-2.9l-2-0.1l-0.5,7.9l2,0.1l0.2-3.5l2.7,0.2l-0.2,3.5l2,0.1
			L106,12z"/>
		<path id="path58" class="st1" d="M115.5,14.1l-2-0.4l-3.8,3.9l0,0l1-4.5l-1.8-0.4l-1.7,7.7l1.8,0.4l4-4.3l0,0l-1.1,5l1.9,0.4
			L115.5,14.1z"/>
		<path id="path60" class="st1" d="M138.9,29l-1.5-1.4l-5.2,1.4l0,0l3.2-3.4l-1.4-1.3l-5.4,5.8l1.3,1.2l5.6-1.7l0,0l-3.5,3.7
			l1.4,1.3L138.9,29z"/>
		<path id="path62" class="st1" d="M132.2,22.6l-2-1.2l-4,1.7l1.9-3l-1.6-1l-4.2,6.7l1.6,1l1.4-2.2l0.7-0.2l0.1,3.8l2,1.3l-0.3-5.2
			L132.2,22.6z"/>
		<path id="path64_1_" class="st1" d="M107.2,3.4h-2.1L103,6.6V3.4h-1.7v7h1.7V8.1l0.4-0.5l1.9,2.8h2.1l-2.6-3.7L107.2,3.4z"/>
		<path id="path66_1_" class="st1" d="M118.7,20.9c0.5,0.2,1.1,0.4,1.6,0.5l-1.2,2.6l1.8,0.8l3.2-7.2l-1.8-0.8l-1.4,3.2
			c-0.4,0-1.1-0.1-1.5-0.5c-0.4-0.4-0.6-1-0.3-1.6l0.9-2.2l-1.9-0.8l-1,2.3c-0.2,0.5-0.3,0.9-0.3,1.3c0,0.4,0,0.7,0.2,1
			c0.1,0.3,0.3,0.6,0.6,0.8C117.9,20.6,118.3,20.8,118.7,20.9z"/>
		<path id="path68" class="st1" d="M97,11.7l-6.5,0.8l0.2,1.5l2.3-0.3l0.8,6.4l2-0.2l-0.8-6.4l2.3-0.3L97,11.7z"/>
		<path id="path70" class="st1" d="M60.7,28.9l5.4,5.8l1.4-1.3l-1.8-1.9l0.8-0.7c1.1-1.1,1.6-2.7,0.4-3.9c-1.3-1.4-2.7-1.1-4,0
			L60.7,28.9z M63.1,28.6l0.6-0.6c0.5-0.5,1.2-0.6,1.8,0.1c0.6,0.6,0.3,1.3-0.1,1.8l-0.6,0.6L63.1,28.6z"/>
		<path id="path72" class="st1" d="M77.4,25.5l-3.6-7l5-2.6l0.7,1.3l-3.3,1.7l0.7,1.3l1-0.5c1.8-0.9,3.2-0.7,3.9,0.7
			c0.8,1.7-0.2,2.9-1.7,3.7L77.4,25.5z M78.5,23.3l0.8-0.4c0.7-0.3,1.1-0.8,0.8-1.6c-0.4-0.8-1.1-0.6-1.7-0.3l-0.8,0.4L78.5,23.3z"
			/>
		<path id="path74" class="st1" d="M69.9,21l-1.7,1.2l2.2,8.1l1.6-1.1l-0.5-1.7l2-1.4l1.5,1l1.6-1.1L69.9,21z M72.5,25l-1.5,1
			l-0.8-2.7L72.5,25z"/>
		<path id="path76_1_" class="st1" d="M85.5,13.5c-0.6,0.1-1.1,0.4-1.5,0.7c-0.4,0.3-0.8,0.7-1,1.1c-0.3,0.4-0.4,0.9-0.5,1.5
			c-0.1,0.5,0,1.1,0.1,1.7c0.1,0.6,0.4,1.1,0.7,1.6c0.3,0.4,0.6,0.8,1.1,1.1c0.4,0.3,0.9,0.5,1.4,0.5c0.5,0.1,1,0.1,1.6-0.1
			c0.6-0.1,1.1-0.3,1.5-0.6c0.4-0.3,0.8-0.7,1-1.1c0.3-0.4,0.4-0.9,0.5-1.4c0.1-0.5,0-1.1-0.1-1.7c-0.1-0.6-0.4-1.1-0.7-1.6
			c-0.3-0.5-0.6-0.8-1.1-1.1c-0.4-0.3-0.9-0.5-1.4-0.5C86.6,13.4,86,13.4,85.5,13.5z M85.8,15c1.2-0.3,2,0.8,2.3,2.2
			c0.3,1.3,0.2,2.7-1.1,3c-1.3,0.3-2-0.8-2.3-2.2C84.3,16.5,84.6,15.2,85.8,15z"/>
	</g>
	<path id="path78_1_" class="st1" d="M90.1,136.6v6.7H111c2.8,0,3.7-1.6,3.7-3.1c0.1-1.8-1-3.6-3.7-3.6H90.1z M69.2,159.1h5.6v-22.5
		h-5.7v-9.2h53.8c4.7,0,5.2,2.9,5.2,6.1v13.8c0,3.1-1.1,5.2-5.3,5.2H90.2v6.6h6.1v8.1h-27V159.1z"/>
	<g id="g80">
		<path id="path82" class="st2" d="M100.1,27c15,0,27.9,9.3,33.3,22.4c1.7,4.2,2.8,8.8,2.8,13.6c0,9.5-3.5,18.3-9.6,24.7
			c-6.6,7-16.2,11.2-26.6,11.2c-9.7,0-18.4-3.9-24.9-10.2C68.5,82.2,64.1,73.1,64.1,63c0-10.9,4.8-20.8,12.4-27.4
			C82.8,30.1,91.1,27,100.1,27z"/>
		<g id="g84">
			<path id="path86" class="st1" d="M77.2,38.3l2.1,3.4c-2.6,3.8-4.4,8.9-5.7,15c-2.2,2.6-4.4,5.2-6.6,7.7c-0.5-0.1-0.9-0.2-1.4-0.3
				c-0.2-1.5-0.4-3.2-0.3-4.7c1-6.1,2.4-9.6,4.5-13.3C71.8,42.5,76.1,37.3,77.2,38.3z"/>
			<path id="path88" class="st1" d="M91.2,36.6c-0.6-0.4-1.2-0.3-1.9-0.1c-2.4,0.6-5.3,2.5-7.6,4.3c-1.1,0.8-1.8,1.7-2.4,2.9
				c-1.6,3.2-2.9,6.6-4,10.5c-0.2,0.8,0.1,1.6,0.6,2.3c1.8,2.9,4.2,5.1,6.6,6.7c0.7,0.5,1.5,0.3,2.1-0.1c3.2-1.8,7.2-4.1,10.8-5.8
				c0.5-3,1.8-6.4,3.1-9.5c0.5-1.2,0.5-2.6-0.1-3.6C96.5,41.4,93.6,38.2,91.2,36.6z"/>
			<path id="path90_1_" class="st1" d="M97.2,60c-0.9-0.5-2.1-0.7-3.2-0.3c-3.6,1.3-7.2,3.3-10.5,5.3c-0.7,0.4-1,1-1.2,1.8
				c-0.7,2.7-0.9,5.7-1.2,8.4c-0.1,0.9,0.2,2,0.8,2.7c2.2,2.3,5.3,5,8.7,6.7c2.3,1.2,4.3,0.6,6.6-0.2c1.3-0.4,3.2-1.5,4.9-2.5
				c0.8-0.5,1.5-1.5,1.8-2.5c1-4.2,1.5-9.2,2-12.8C102.4,63.3,100.3,61.8,97.2,60z"/>
			<path id="path92_1_" class="st1" d="M104.7,80.4c0.7-4.6,1.5-9.2,2.2-13.8c1.6-2.2,6.4-5.4,9.6-7.1c0.6-0.3,1-0.2,1.4,0
				c4,1.8,8.7,4.5,10.9,6.4c0.1,3.3-0.5,6.9-1.1,10c-0.1,0.7-0.3,1-0.8,1.5c-2.8,2.7-6.9,5.6-10.7,7.9c-0.4,0.3-1.1,0.4-1.6,0.3
				C110.8,84.8,107.5,82.7,104.7,80.4z"/>
			<path id="path94" class="st1" d="M118.9,36.4c-1.7,2.2-4,5.6-5,7.3c-0.2,0.4-0.4,1.2-0.3,1.6c1.3,4,2.7,8.1,3.9,12.1
				c0.1,0.5,0.5,0.9,1,1.1c3.6,2.2,7.1,4,10.8,6c2-1.8,3.3-4.5,4.9-7.4c0.1-3.4-2.6-10.2-5-13.8c-2.2-3.2-5.2-6.7-8.9-7.3
				C119.7,36,119.4,35.8,118.9,36.4z"/>
			<path id="path96" class="st1" d="M112.5,43.6c1.8-2.1,3.7-4.7,5.1-7.5c0.7-1.5-1.3-3.4-2.7-4.3c-4.1-3-13-3.7-14.9-3.6
				c-1.4,0-2.5,0.4-3.5,1.2c-1.6,1.3-3.6,3.5-4.1,5.1c-0.2,0.6-0.2,1.2,0.2,1.7c0.6,0.7,2.1,2.5,3.5,4.1c1.6,1.9,3.3,3.7,4.4,4.2
				C104.6,44.1,108.5,43.9,112.5,43.6z"/>
			<path id="path98" class="st1" d="M73,80.1c0,1.3,0,2.8,0,4.1c0.9,1.9,2.4,3.3,3.5,4.5c3.2,3.1,6.8,4.8,9.9,6.3
				c2.6,1.2,4.7,0.7,7.8-0.4c-0.1-2.1-0.9-4.9-1.8-7.7c-4.2-2.4-7.5-5.2-11.1-8.2c-0.6-0.5-1.4-0.5-2.1-0.3
				C77.2,78.7,75,79.5,73,80.1z"/>
			<path id="path100" class="st1" d="M65.8,65.1l1.2,0.2c0.5,6.1,2.8,10.6,5.2,15.2c0,0.9-0.1,2-0.1,3c-2-3.2-3.5-5.3-4.6-8.1
				C66.3,72.2,65.2,68.6,65.8,65.1z"/>
			<path id="path102" class="st1" d="M128.7,77.9c-2,1.4-4.1,2.8-6,4.2c-1.9,1.3-3.7,2.7-5.7,3.8c-0.5,0.3-1.1,0.6-1.5,1
				c-0.9,0.9-1.8,1.8-2.8,3.1c-1.1,1.4-2.1,2.7-3,4.2c-0.2,0.3,0.7,1.1,1.5,1.3c0.7,0.1,1.8,0,2.9-0.4c4.4-2.1,8.2-4.5,11.2-7.4
				c2.8-2.7,5.1-5.4,6.2-9.5C130.6,78.1,129.6,77.9,128.7,77.9z"/>
			<path id="path104" class="st1" d="M93.1,97c1.7,0.5,5,0.8,6.7,0.9c2.9,0.1,5.7-0.3,8.7-1c0.7-0.2,0.9-0.5,0.3-0.7
				c-2.3-0.6-5.4-1-8-1.1c-2.7-0.1-5.4,0.4-7.8,0.9C91.8,96.3,92.2,96.8,93.1,97z"/>
		</g>
	</g>
</g>
</svg>
