<?xml version="1.0" encoding="utf-8"?>
<!-- Generator: Adobe Illustrator 21.1.0, SVG Export Plug-In . SVG Version: 6.00 Build 0)  -->
<svg version="1.1" id="Layer_1" xmlns="http://www.w3.org/2000/svg" xmlns:xlink="http://www.w3.org/1999/xlink" x="0px" y="0px"
	 viewBox="0 0 200 200" style="enable-background:new 0 0 200 200;" xml:space="preserve">
<style type="text/css">
	.st0{fill:#FFFFFF;}
	.st1{fill:#5C5CA7;}
	.st2{fill:#BBAC82;}
</style>
<g>
	<circle class="st0" cx="100" cy="100" r="98.2"/>
	<path class="st1" d="M100,198.2v-49.6v-0.2H20.8v-97H100v-0.2V1.8c0,0-31.7-0.7-56.2,17.5c-24.5,18.2-41.4,44.6-42,81.3
		c-0.5,36.7,19.5,61,29,69.7C62.5,199.3,100,198.2,100,198.2z"/>
	<g>
		<path class="st2" d="M175.6,55.1c0,6.4,0,83.5,0,89.9c-6.7,0-144.6,0-151.2,0c0-6.4,0-83.5,0-89.9C31,55.1,169,55.1,175.6,55.1z"
			/>
		<path class="st0" d="M172.1,128.5H27.9v0.2c0,5.8,0,10.3,0,12.7c12.4,0,131.7,0,144.1,0c0-2.4,0-6.9,0-12.8L172.1,128.5z"/>
		<path class="st1" d="M31.7,124.9h-3.8l0-0.1c0-22.2,0-57.8,0-66.2c2.3,0,8.3,0,16.6,0L31.7,124.9z"/>
		<path class="st0" d="M35.4,124.9h3.4l29.6-66.3c-7.4,0-14.3,0-20.2,0L35.4,124.9z"/>
		<path class="st1" d="M42.6,124.9h4.5l50.1-66.3c-8.5,0-17,0-24.9,0L42.6,124.9z"/>
		<polygon class="st1" points="124.4,124.9 172.1,124.9 172.1,124.8 172.1,113 		"/>
		<polygon class="st0" points="103.7,124.9 109.7,124.9 172.1,109.3 172.1,95.3 		"/>
		<polygon class="st1" points="87.1,124.9 94.8,124.9 172.1,91.4 172.1,73.8 		"/>
		<path class="st0" d="M74.4,124.9h5.7l91.9-55.3v-11c-1.7,0-5.5,0-10.7,0L74.4,124.9z"/>
		<path class="st1" d="M61.8,124.9h6.7l86.9-66.3c-7,0-15.7,0-25.3,0L61.8,124.9z"/>
		<path class="st0" d="M51.6,124.9h5.1l68.4-66.3c-7.5,0-15.5,0-23.5,0L51.6,124.9z"/>
	</g>
	<path class="st2" d="M29.3,29.3C10.4,48.2,0,73.3,0,100c0,26.7,10.4,51.8,29.3,70.7c18.9,18.9,44,29.3,70.7,29.3
		c26.7,0,51.8-10.4,70.7-29.3c18.9-18.9,29.3-44,29.3-70.7c0-26.7-10.4-51.8-29.3-70.7C151.8,10.4,126.7,0,100,0
		C73.3,0,48.2,10.4,29.3,29.3z M31.8,168.2C13.6,150,3.6,125.8,3.6,100s10-50,28.2-68.2C50,13.6,74.2,3.6,100,3.6
		c25.8,0,50,10,68.2,28.2c18.2,18.2,28.2,42.4,28.2,68.2c0,53.2-43.3,96.4-96.4,96.4C74.2,196.4,50,186.4,31.8,168.2z"/>
	<path class="st0" d="M82.4,167.1h-3.6V165c0.9,0,1.7-0.2,2.5-0.6c0.7-0.5,1.3-1.1,1.7-1.9h2.4v14.9h-1.5h-1.5V167.1z"/>
	<path class="st0" d="M92.5,177.8c-1.3,0-2.3-0.4-3.1-1.1c-0.8-0.7-1.2-1.7-1.3-2.8H91c0,0.5,0.1,0.8,0.4,1.1
		c0.3,0.3,0.7,0.4,1.1,0.4h0.1c0.9,0,1.5-0.4,2-1.3c0.3-0.7,0.5-1.6,0.6-2.9c-0.8,0.8-1.8,1.3-2.9,1.3c-1.3,0-2.4-0.5-3.3-1.4
		c-0.9-0.9-1.3-2.1-1.3-3.5c0-1.5,0.5-2.8,1.4-3.7c1-1,2.2-1.4,3.7-1.4c1.7,0,3,0.6,3.8,1.9c0.9,1.3,1.3,3.1,1.3,5.5
		c0,2.7-0.5,4.7-1.5,6c-0.9,1.3-2.2,1.9-3.9,1.9L92.5,177.8z M95.2,167.5c0-0.8-0.2-1.4-0.6-2c-0.4-0.5-1-0.8-1.6-0.8
		c-0.7,0-1.3,0.2-1.7,0.7c-0.4,0.5-0.6,1.1-0.6,2c0,0.8,0.2,1.4,0.6,1.9c0.4,0.5,1,0.7,1.6,0.7c0.7,0,1.2-0.2,1.6-0.7
		C95,168.9,95.2,168.3,95.2,167.5z"/>
	<path class="st1" d="M111.7,167.1c0,1.1-0.3,2.1-0.8,2.8c-0.5,0.7-1.5,1.6-3,2.5c-1.3,0.9-2.3,1.6-2.8,2.3l0,0h6.5v2.6h-10.2v0
		c0-1.4,0.3-2.5,1-3.5c0.7-1,2-2.1,3.9-3.5c0.9-0.6,1.5-1.1,1.8-1.6c0.3-0.5,0.5-1,0.5-1.7c0-0.7-0.2-1.2-0.6-1.6
		c-0.4-0.4-0.9-0.6-1.5-0.6c-0.7,0-1.2,0.3-1.6,0.8c-0.4,0.5-0.6,1.2-0.5,2.1h-2.9c0-1.6,0.4-2.9,1.3-3.8c0.9-0.9,2.1-1.4,3.7-1.4
		c1.5,0,2.7,0.4,3.6,1.3C111.2,164.6,111.7,165.8,111.7,167.1z"/>
	<path class="st1" d="M115.3,177.4c0.2-2.2,0.8-4.5,1.8-6.7c0.9-2,2.1-3.9,3.5-5.4h-7.4v-2.6h10.6v1.1v1.1c-1.5,1.7-2.7,3.6-3.7,5.8
		c-1,2.2-1.5,4.4-1.7,6.6H115.3z"/>
	<g>
		<path class="st2" d="M45.6,130.1h-9.9v9.7H38c0,0,0-3.8,0-4.2c0.4,0,6.8,0,6.8,0V134c0,0-6.4,0-6.8,0c0-0.3,0-2,0-2.3
			c0.4,0,7.8,0,7.8,0v-1.6H45.6z"/>
	</g>
	<g>
		<path class="st2" d="M58.9,130.1h-2.7c0,0-5.9,3.9-6.5,4.3c0-0.7,0-4.3,0-4.3h-2.3v9.7h2.3c0,0,0-3.1,0-3.3c0.2-0.1,1.6-1,1.9-1.2
			c0.2,0.2,4.9,4.5,4.9,4.5h3.1c0,0-5.8-5.3-6.2-5.6c0.5-0.3,6.3-4,6.3-4H58.9z"/>
	</g>
	<g>
		<path class="st2" d="M68.2,130.7L68.2,130.7c-1,0.6-1.5,1.3-1.5,2.3c0,0.7,0.3,1.2,0.9,1.6c0.6,0.4,1.4,0.6,2.7,0.8l2.4,0.4
			c1.2,0.2,1.9,0.4,2.3,0.6c0.3,0.2,0.5,0.4,0.5,0.8c0,0.4-0.3,0.7-0.8,0.9c-0.6,0.2-1.4,0.4-2.6,0.4c-1.2,0-2.2-0.2-2.8-0.5
			c-0.6-0.3-1-0.8-1-1.3l0-0.2h-2.2v0.3c0,1,0.5,1.9,1.6,2.5c1.1,0.6,2.5,0.9,4.4,0.9c1.7,0,3-0.3,4-0.8c1-0.5,1.6-1.3,1.6-2.2
			c0-0.8-0.3-1.4-0.9-1.9c-0.6-0.4-1.5-0.7-2.9-0.9l-2.4-0.4c-1.1-0.2-1.8-0.3-2.1-0.5c-0.3-0.1-0.4-0.3-0.4-0.6
			c0-0.4,0.2-0.8,0.7-1c0.5-0.3,1.3-0.4,2.3-0.4c1,0,1.8,0.1,2.4,0.4c0.5,0.3,0.8,0.7,0.9,1.2l0,0.2h2.2l0-0.2
			c-0.1-1-0.6-1.8-1.6-2.3c-1-0.5-2.3-0.8-3.9-0.8C70.4,129.9,69.1,130.1,68.2,130.7z"/>
	</g>
	<g>
		<path class="st2" d="M89.9,130.1h-2.1v6c0,0.8-0.3,1.4-0.8,1.8c-0.6,0.4-1.4,0.6-2.5,0.6c-1.1,0-2-0.2-2.6-0.6
			c-0.6-0.4-0.8-1-0.8-1.8v-6h-2.3v6.1c0,1.3,0.5,2.2,1.5,2.9c1,0.6,2.4,1,4.2,1c1.8,0,3.2-0.3,4.2-1c1-0.7,1.5-1.6,1.5-2.9v-6.1
			H89.9z"/>
	</g>
	<g>
		<path class="st2" d="M102.9,130.1H91.4v1.6c0,0,4.3,0,4.7,0c0,0.4,0,8.1,0,8.1h2.3c0,0,0-7.7,0-8.1c0.4,0,4.7,0,4.7,0v-1.6H102.9z
			"/>
	</g>
	<g>
		<path class="st2" d="M111.5,130.1h-2.1v6.8c0,0.5-0.2,0.8-0.5,1.1c-0.4,0.3-0.9,0.4-1.5,0.4c-0.6,0-1.1-0.1-1.4-0.4
			c-0.3-0.2-0.5-0.5-0.5-0.9v-0.9h-2.2v0.9c-0.1,0.9,0.3,1.6,1.1,2.1c0.7,0.5,1.8,0.7,3.1,0.7c1.3,0,2.4-0.3,3.1-0.8
			c0.8-0.5,1.1-1.3,1.1-2.3v-6.8H111.5z"/>
	</g>
	<g>
		<path class="st2" d="M124.8,130.1h-10.4v9.7h10.7v-1.6c0,0-8,0-8.4,0c0-0.4,0-2.3,0-2.6c0.4,0,7.6,0,7.6,0V134c0,0-7.2,0-7.6,0
			c0-0.3,0-2,0-2.3c0.4,0,8.3,0,8.3,0v-1.6H124.8z"/>
	</g>
	<g>
		<path class="st2" d="M127.9,130.7L127.9,130.7c-1,0.6-1.5,1.3-1.5,2.3c0,0.7,0.3,1.2,0.9,1.6c0.6,0.4,1.4,0.6,2.7,0.8l2.4,0.4
			c1.2,0.2,1.9,0.4,2.3,0.6c0.3,0.2,0.5,0.4,0.5,0.8c0,0.4-0.3,0.7-0.8,0.9c-0.6,0.2-1.4,0.4-2.6,0.4c-1.2,0-2.2-0.2-2.8-0.5
			c-0.6-0.3-1-0.8-1-1.3l0-0.2h-2.2v0.3c0,1,0.5,1.9,1.6,2.5c1.1,0.6,2.5,0.9,4.4,0.9c1.7,0,3-0.3,4-0.8c1-0.5,1.6-1.3,1.6-2.2
			c0-0.8-0.3-1.4-0.9-1.9c-0.6-0.4-1.5-0.7-2.9-0.9l-2.4-0.4c-1.1-0.2-1.8-0.3-2.1-0.5c-0.3-0.1-0.4-0.3-0.4-0.6
			c0-0.4,0.2-0.8,0.7-1c0.5-0.3,1.3-0.4,2.3-0.4c1,0,1.8,0.1,2.4,0.4c0.5,0.3,0.8,0.7,0.9,1.2l0,0.2h2.2l0-0.2
			c-0.1-1-0.6-1.8-1.6-2.3c-1-0.5-2.3-0.8-3.9-0.8C130.1,129.9,128.9,130.1,127.9,130.7z"/>
	</g>
	<g>
		<path class="st2" d="M150.5,130.1h-2.7c0,0-5.9,3.9-6.5,4.3c0-0.7,0-4.3,0-4.3H139v9.7h2.3c0,0,0-3.1,0-3.3c0.2-0.1,1.6-1,1.9-1.2
			c0.2,0.2,4.9,4.5,4.9,4.5h3.1c0,0-5.8-5.3-6.2-5.6c0.5-0.3,6.3-4,6.3-4H150.5z"/>
	</g>
	<g>
		<path class="st2" d="M159.2,130.1h-2.3l-5.5,9.7h2.5c0,0,1.3-2.4,1.4-2.6c0.2,0,5.1,0,5.3,0c0.1,0.2,1.4,2.6,1.4,2.6h2.5l-5.2-9.7
			H159.2z M158,132.2c0.3,0.6,1.5,2.9,1.8,3.4c-0.6,0-3.1,0-3.6,0C156.5,135.1,157.7,132.7,158,132.2z"/>
	</g>
</g>
</svg>
