<?xml version="1.0" encoding="utf-8"?>
<!-- Generator: Adobe Illustrator 21.1.0, SVG Export Plug-In . SVG Version: 6.00 Build 0)  -->
<svg version="1.1" id="Layer_1" xmlns="http://www.w3.org/2000/svg" xmlns:xlink="http://www.w3.org/1999/xlink" x="0px" y="0px"
	 viewBox="0 0 200 200" style="enable-background:new 0 0 200 200;" xml:space="preserve">
<style type="text/css">
	.st0{fill:#E00E23;}
	.st1{fill:#FFFFFF;}
	.st2{fill-rule:evenodd;clip-rule:evenodd;fill:#FFFFFF;}
</style>
<g>
	<g>
		<polygon class="st0" points="101,48.4 0,99 100.9,151.6 200,99 		"/>
	</g>
	<path class="st1" d="M101,51.7L6.5,99l94.4,49.3L193.6,99L101,51.7z M100.9,145.2L12.6,99.1L101,54.8l86.7,44.3L100.9,145.2z"/>
	<path class="st2" d="M99.7,63.3c20.3,0,36.8,16.5,36.8,36.8c0,20.3-16.5,36.8-36.8,36.8c-20.3,0-36.8-16.5-36.8-36.8
		C62.9,79.8,79.3,63.3,99.7,63.3L99.7,63.3z M99.7,75.3c13.7,0,24.8,11.1,24.8,24.8c0,13.7-11.1,24.8-24.8,24.8
		c-13.7,0-24.8-11.1-24.8-24.8C74.9,86.4,86,75.3,99.7,75.3L99.7,75.3z"/>
	<g id="FK_SPARTAKS">
		<path class="st0" d="M70.7,93.1c0.3,0,0.6,0.1,0.9,0.1c0.3,0,0.6,0.1,0.9,0.1c0.1,0,0.1,0,0.2,0c0.1,0,0.1-0.1,0.1-0.2
			c0,0,0.1,0,0.1,0c-0.1,0.4-0.1,0.7-0.2,1.1c-0.1,0.3-0.1,0.7-0.1,1c0,0-0.1,0-0.1,0c0-0.1,0-0.2-0.1-0.3c0-0.1-0.1-0.1-0.2-0.1
			c-0.7-0.1-1.5-0.1-2.2-0.2c-0.7-0.1-1.5-0.1-2.2-0.2c-0.1,0-0.1,0-0.2,0.1c0,0.1-0.1,0.2-0.1,0.3c0,0-0.1,0-0.1,0
			c0.2-1.2,0.4-2.5,0.7-3.7c0.3-1.2,0.6-2.4,1-3.6c0-0.1,0.1-0.2,0-0.3c0-0.1-0.1-0.1-0.1-0.2c0-0.1,0-0.1,0.1-0.2
			c0.4,0.2,0.8,0.3,1.3,0.5c0,0.1,0,0.1-0.1,0.2c-0.1,0-0.2,0-0.2,0.1c-0.1,0-0.1,0.1-0.1,0.2c-0.3,0.8-0.5,1.6-0.7,2.4
			c-0.2,0.8-0.4,1.7-0.5,2.5c0.4,0.1,0.8,0.1,1.2,0.2c0.1-0.5,0.2-1,0.3-1.5c0.1-0.5,0.2-1,0.4-1.5c0-0.1,0-0.2,0-0.3
			c0-0.1-0.1-0.1-0.1-0.2c0-0.1,0-0.1,0.1-0.2c0.4,0.1,0.8,0.3,1.3,0.4c0,0.1,0,0.1,0,0.2c-0.1,0-0.2,0-0.2,0.1c0,0-0.1,0.1-0.1,0.2
			c-0.1,0.5-0.3,1-0.4,1.5C70.9,92.1,70.8,92.6,70.7,93.1L70.7,93.1z"/>
		<path class="st0" d="M73.6,84.6c0,0.4,0,0.9,0,1.3c0.2,0.1,0.4,0.2,0.6,0.3c0.2,0.1,0.4,0.2,0.6,0.3c0.1,0,0.1,0,0.2,0
			c0.1,0,0.1-0.1,0.2-0.2c0,0,0.1,0,0.1,0.1c-0.2,0.3-0.4,0.7-0.5,1c-0.2,0.3-0.3,0.7-0.5,1c0,0-0.1,0-0.1-0.1c0-0.1,0-0.2,0-0.3
			c0-0.1-0.1-0.1-0.1-0.1c-0.7-0.3-1.4-0.6-2.1-0.9c-0.7-0.3-1.4-0.6-2.1-0.9c-0.1,0-0.1,0-0.2,0c-0.1,0-0.1,0.1-0.2,0.2
			c0,0-0.1,0-0.1-0.1c0.2-0.4,0.4-0.8,0.6-1.2c0.2-0.4,0.4-0.8,0.7-1.2c0,0,0.1,0,0.1,0.1c-0.1,0.1-0.1,0.2-0.1,0.3
			c0,0.1,0.1,0.1,0.1,0.2c0.3,0.1,0.6,0.3,0.8,0.4c0.3,0.1,0.6,0.3,0.8,0.4c0-0.6,0-1.3,0.1-1.9c0-0.6,0.1-1.3,0.2-1.9
			c0-0.2,0-0.3,0-0.3c-0.1,0-0.2,0-0.3,0.2c0,0-0.1,0-0.1-0.1c0.3-0.5,0.6-1,1-1.5c0.3-0.5,0.7-1,1-1.4c0,0,0.1,0.1,0.1,0.1
			c-0.1,0.1-0.1,0.2-0.1,0.3c0,0.1-0.1,0.3-0.1,0.6c0,0.2-0.1,0.4-0.1,0.5c-0.1,0.5-0.1,1.1-0.2,1.6c-0.1,0.5-0.1,1-0.1,1.6
			c0.6-0.2,1.2-0.4,1.9-0.6c0.6-0.2,1.2-0.3,1.8-0.5c0.3-0.1,0.6-0.1,0.7-0.2c0.1-0.1,0.2-0.1,0.4-0.3c0,0,0.1,0.1,0.1,0.1
			c-0.3,0.4-0.6,0.8-0.8,1.1c-0.3,0.4-0.5,0.8-0.8,1.2c0,0-0.1,0-0.1-0.1c0.1-0.2,0.1-0.3,0-0.3c0,0-0.2,0-0.4,0.1
			c-0.5,0.1-0.9,0.3-1.4,0.4C74.5,84.2,74.1,84.4,73.6,84.6L73.6,84.6z"/>
		<path class="st0" d="M84.1,71.4c-0.1,0.5-0.2,1-0.3,1.6c-0.1,0-0.1,0-0.2,0c0,0,0,0,0-0.1c0-0.1-0.2-0.1-0.5-0.1
			c-0.4,0.1-0.8,0.2-1.2,0.4c-0.4,0.2-0.8,0.5-1.2,0.8c-0.3,0.3-0.6,0.6-0.8,0.9c-0.2,0.2-0.2,0.4-0.3,0.6c0,0.2,0,0.3,0.1,0.4
			c0.1,0.1,0.4,0.1,0.7-0.1c0.2-0.1,0.5-0.4,1-0.7c0.3-0.2,0.5-0.4,0.8-0.5c0.5-0.3,0.9-0.5,1.2-0.7c0.3-0.1,0.6-0.2,0.9-0.2
			c0.3,0,0.6,0,0.8,0.1c0.2,0.1,0.4,0.3,0.5,0.5c0.2,0.3,0.2,0.7,0.1,1.1c-0.1,0.4-0.4,0.8-0.8,1.3c-0.3,0.3-0.7,0.7-1.1,1
			c-0.4,0.3-0.8,0.5-1.2,0.8c-0.4,0.2-0.8,0.4-1.3,0.6c-0.2,0.1-0.3,0.1-0.3,0.2c0,0-0.1,0.1-0.1,0.2c0,0-0.1,0-0.1,0.1
			c-0.1-0.5-0.2-0.9-0.4-1.4c0.1,0,0.1-0.1,0.2-0.1c0,0,0,0,0,0c0.1,0.1,0.2,0.1,0.4,0.1c0.3-0.1,0.6-0.2,1.1-0.5
			c0.4-0.2,0.8-0.5,1.2-0.8c0.4-0.3,0.7-0.6,0.9-0.9c0.1-0.2,0.2-0.3,0.2-0.5c0-0.2,0-0.3,0-0.4c-0.1-0.2-0.3-0.2-0.6-0.1
			c-0.2,0.1-0.5,0.3-1,0.6c-0.2,0.2-0.5,0.3-0.7,0.5c-0.5,0.3-0.8,0.6-1,0.7c-0.2,0.1-0.4,0.3-0.7,0.4c-0.3,0.2-0.7,0.2-1,0.2
			c-0.3,0-0.5-0.1-0.7-0.3c-0.3-0.3-0.4-0.7-0.3-1.3c0.1-0.4,0.3-0.8,0.6-1.2c0.3-0.4,0.7-0.9,1.2-1.3c0.4-0.4,0.9-0.7,1.3-0.9
			c0.4-0.2,1-0.5,1.7-0.7c0.2-0.1,0.4-0.1,0.4-0.1c0.1,0,0.2-0.1,0.2-0.2C84,71.4,84,71.4,84.1,71.4L84.1,71.4z"/>
		<path class="st0" d="M88,72.3c0.1,0.3,0.2,0.5,0.4,0.8c0.1,0.3,0.2,0.5,0.4,0.8c0,0.1,0.1,0.1,0.1,0.1c0.1,0,0.2,0,0.3,0
			c0,0,0,0.1,0.1,0.1c-0.3,0.1-0.7,0.3-1,0.4c-0.3,0.1-0.6,0.3-1,0.5c0,0,0-0.1-0.1-0.1c0.1-0.1,0.2-0.1,0.2-0.2c0-0.1,0-0.1,0-0.2
			c-0.3-0.7-0.7-1.3-1-2c-0.3-0.7-0.7-1.3-1-2c0-0.1-0.1-0.1-0.2-0.1c-0.1,0-0.2,0-0.3,0c0,0,0-0.1-0.1-0.1c0.7-0.4,1.4-0.7,2.2-1.1
			c0.7-0.3,1.5-0.6,2.3-0.9c0.5-0.2,1-0.3,1.3-0.4c0.3-0.1,0.6-0.1,0.9,0c0.3,0.1,0.5,0.2,0.7,0.3c0.2,0.2,0.3,0.4,0.4,0.6
			c0.1,0.3,0.1,0.7-0.1,1c-0.2,0.3-0.4,0.5-0.7,0.7c-0.3,0.2-0.8,0.4-1.4,0.6c-0.4,0.1-0.8,0.3-1.2,0.5C88.8,71.9,88.4,72.1,88,72.3
			L88,72.3z M87.6,71.5c0.4-0.2,0.8-0.3,1.1-0.5c0.4-0.2,0.8-0.3,1.2-0.5c0.5-0.2,0.8-0.3,0.9-0.5c0.1-0.1,0.2-0.2,0.2-0.3
			c0-0.1,0-0.2,0-0.4c0-0.1-0.1-0.2-0.2-0.3c-0.1-0.1-0.2-0.1-0.4-0.1c-0.2,0-0.6,0.1-1.1,0.3c-0.4,0.1-0.8,0.3-1.2,0.5
			c-0.4,0.2-0.8,0.3-1.2,0.5c0.1,0.2,0.2,0.4,0.3,0.6C87.4,71.1,87.5,71.3,87.6,71.5L87.6,71.5z"/>
		<path class="st0" d="M98.4,70.7c-0.8,0.1-2,0.1-2.9,0.3c-0.1,0.3-0.2,0.6-0.4,0.9C95,71.9,95,72,95,72.1c0,0.1,0.1,0.2,0.4,0.2
			c0,0,0,0.1,0,0.1c-0.4,0-0.9,0.1-1.3,0.1c-0.4,0-0.8,0.1-1.2,0.1c0,0,0-0.1,0-0.1c0.1,0,0.2-0.1,0.3-0.2c0.1-0.1,0.1-0.2,0.2-0.3
			l2-4.4c0.1-0.1,0.1-0.3,0.1-0.3c0-0.1-0.1-0.2-0.4-0.2c0,0,0-0.1,0-0.1c0.5-0.1,0.9-0.1,1.4-0.2c0.5,0,1,0,1.4-0.1
			c0,0,0,0.1,0,0.1c-0.2,0.1-0.3,0.2-0.3,0.3c0,0.1,0.1,0.2,0.1,0.3l2.9,3.9c0.1,0.2,0.2,0.3,0.3,0.4c0.1,0.1,0.2,0.1,0.4,0.1
			c0,0,0,0.1,0,0.1c-0.4,0-0.9,0-1.3,0c-0.4,0-0.9,0-1.3,0.1c0,0,0-0.1,0-0.1c0.2,0,0.3-0.1,0.3-0.3c0-0.1,0-0.1-0.1-0.2
			C98.7,71.2,98.6,70.9,98.4,70.7L98.4,70.7z M98,70l-1.3-1.9l-0.9,2C96.6,70.1,97.1,70,98,70L98,70z"/>
		<path class="st0" d="M103.9,70.2c0,0.3-0.1,0.6-0.1,0.8c0,0.3-0.1,0.6-0.1,0.8c0,0.1,0,0.1,0,0.2c0,0,0.1,0.1,0.2,0.1
			c0,0,0,0.1,0,0.1c-0.3-0.1-0.7-0.1-1-0.2c-0.3-0.1-0.7-0.1-1-0.1c0,0,0-0.1,0-0.1c0.1,0,0.2,0,0.3-0.1c0.1,0,0.1-0.1,0.1-0.2
			c0.1-0.7,0.1-1.4,0.2-2.1c0.1-0.7,0.1-1.4,0.2-2.1c0-0.1,0-0.1-0.1-0.2c-0.1,0-0.2-0.1-0.3-0.1c0,0,0-0.1,0-0.1
			c0.9,0.1,1.7,0.1,2.6,0.3c0.9,0.1,1.7,0.3,2.6,0.5c0.6,0.2,1.1,0.3,1.4,0.5c0.3,0.2,0.6,0.3,0.8,0.5c0.2,0.2,0.4,0.5,0.4,0.7
			c0,0.2,0,0.5-0.1,0.7c-0.2,0.4-0.5,0.6-0.9,0.7c-0.4,0.1-0.9,0.1-1.6,0c0.1,0.3,0.3,0.6,0.4,0.9c0.1,0.3,0.3,0.6,0.4,0.9
			c0.1,0.3,0.2,0.5,0.3,0.6c0.1,0.1,0.2,0.2,0.3,0.2c0,0,0,0.1-0.1,0.1c-0.4-0.1-0.8-0.3-1.1-0.4c-0.4-0.1-0.8-0.2-1.2-0.3
			c0,0,0-0.1,0-0.1c0.2,0,0.3,0,0.3-0.1c0,0,0-0.2-0.1-0.4c-0.1-0.3-0.3-0.6-0.5-0.9c-0.2-0.3-0.3-0.6-0.5-0.9
			C105.2,70.4,104.6,70.3,103.9,70.2L103.9,70.2z M104.1,69.3c0.4,0.1,0.9,0.1,1.3,0.2c0.4,0.1,0.8,0.2,1.3,0.3
			c0.4,0.1,0.6,0.2,0.8,0.2c0.2,0,0.3,0,0.4,0c0.3,0,0.5-0.1,0.6-0.4c0.1-0.3,0-0.5-0.2-0.7c-0.1-0.1-0.3-0.2-0.4-0.2
			c-0.2-0.1-0.4-0.1-0.8-0.2c-0.4-0.1-0.9-0.2-1.3-0.3c-0.5-0.1-0.9-0.2-1.4-0.2c0,0.2-0.1,0.4-0.1,0.7
			C104.1,68.9,104.1,69.1,104.1,69.3L104.1,69.3z"/>
		<path class="st0" d="M116.4,72.3c-0.3,0.6-0.7,1.1-1,1.7c-0.3,0.6-0.7,1.1-1,1.7c0,0.1,0,0.1,0,0.2c0,0.1,0.1,0.1,0.2,0.2
			c0,0,0,0.1-0.1,0.1c-0.3-0.2-0.6-0.4-0.9-0.5c-0.3-0.2-0.6-0.3-0.9-0.5c0,0,0-0.1,0-0.1c0.1,0,0.2,0,0.3,0c0.1,0,0.1-0.1,0.1-0.1
			c0.3-0.6,0.6-1.2,0.8-1.7c0.3-0.6,0.6-1.2,0.8-1.7c-0.4-0.2-0.8-0.4-1.2-0.6c-0.4-0.2-0.8-0.4-1.2-0.5c-0.1,0-0.2-0.1-0.3-0.1
			c-0.1,0-0.1,0-0.2,0.1c-0.1,0-0.1,0-0.2-0.1c0.1-0.4,0.3-0.8,0.4-1.2c0.1,0,0.1,0.1,0.2,0.1c0,0.1,0,0.2,0.1,0.2
			c0,0.1,0.1,0.1,0.2,0.2c1.1,0.5,2.2,1,3.3,1.6c1.1,0.6,2.1,1.2,3.1,1.8c0.1,0.1,0.2,0.1,0.3,0.1c0.1,0,0.2,0,0.3-0.1
			c0.1,0,0.1,0.1,0.2,0.1c-0.3,0.3-0.6,0.7-0.8,1c-0.1,0-0.1-0.1-0.2-0.1c0-0.1,0-0.2,0-0.2c0-0.1-0.1-0.1-0.2-0.2
			c-0.4-0.2-0.7-0.5-1.1-0.7C117.2,72.7,116.8,72.5,116.4,72.3L116.4,72.3z"/>
		<path class="st0" d="M121.4,79.7c-0.4-0.4-0.8-0.8-1.2-1.1c-0.4-0.4-0.7-0.6-1.1-1c-0.3,0.1-0.6,0.2-0.9,0.3
			c-0.1,0-0.2,0.1-0.2,0.2c-0.1,0.1,0,0.2,0.1,0.4c0,0-0.1,0.1-0.1,0.1c-0.6-0.6-1.2-1-1.8-1.5c0,0,0-0.1,0.1-0.1
			c0.1,0.1,0.2,0.1,0.3,0.1c0.1,0,0.2,0,0.4-0.1l4.5-1.4c0.2,0,0.3-0.1,0.3-0.2c0.1-0.1,0.1-0.2-0.1-0.4c0,0,0.1-0.1,0.1-0.1
			c0.4,0.3,0.7,0.6,1.1,0.9c0.4,0.3,0.7,0.7,1,1c0,0-0.1,0.1-0.1,0.1c-0.2-0.1-0.3-0.1-0.4-0.1c-0.1,0.1-0.1,0.1-0.1,0.3l-0.8,4.8
			c0,0.2-0.1,0.4-0.1,0.5c0,0.1,0.1,0.2,0.1,0.3c0,0-0.1,0.1-0.1,0.1c-0.5-0.6-1.1-1.2-1.8-1.9c0,0,0.1-0.1,0.1-0.1
			c0.2,0.1,0.3,0.2,0.4,0.1c0,0,0.1-0.1,0.1-0.3C121.3,80.3,121.3,80,121.4,79.7L121.4,79.7z M121.6,78.8l0.3-2.1l-2,0.5
			c0.3,0.3,0.5,0.5,0.8,0.7C121,78.3,121.3,78.5,121.6,78.8L121.6,78.8z"/>
		<path class="st0" d="M126.2,84.6c-0.4-0.2-0.7-0.5-1.1-0.7c-0.2,0.1-0.4,0.2-0.6,0.4c-0.2,0.1-0.4,0.2-0.6,0.4
			c-0.1,0-0.1,0.1-0.1,0.2c0,0.1,0,0.2,0,0.3c0,0-0.1,0-0.1,0.1c-0.2-0.3-0.4-0.7-0.6-1c-0.2-0.3-0.4-0.6-0.6-1c0,0,0.1,0,0.1-0.1
			c0.1,0.1,0.2,0.2,0.2,0.2c0.1,0,0.1,0,0.2,0c0.6-0.4,1.2-0.8,1.8-1.2c0.6-0.4,1.2-0.8,1.8-1.2c0.1,0,0.1-0.1,0.1-0.2
			c0-0.1,0-0.2-0.1-0.3c0,0,0.1,0,0.1-0.1c0.2,0.4,0.5,0.7,0.7,1.1c0.2,0.4,0.4,0.8,0.6,1.2c0,0-0.1,0-0.1,0.1
			c-0.1-0.1-0.2-0.2-0.2-0.2c-0.1,0-0.1,0-0.2,0c-0.3,0.2-0.5,0.3-0.8,0.5c-0.3,0.2-0.5,0.3-0.8,0.5c0.5,0.3,1,0.7,1.5,1
			c0.5,0.4,1,0.7,1.5,1.1c0.1,0.1,0.2,0.2,0.3,0.1c0.1,0,0.1-0.2,0-0.4c0,0,0.1,0,0.1-0.1c0.2,0.5,0.5,1,0.7,1.6
			c0.2,0.5,0.4,1.1,0.7,1.6c0,0-0.1,0-0.1,0c-0.1-0.1-0.1-0.2-0.2-0.3c0,0-0.2-0.2-0.4-0.4c-0.1-0.1-0.3-0.2-0.4-0.3
			c-0.4-0.3-0.8-0.7-1.2-1c-0.4-0.3-0.8-0.6-1.2-0.9c-0.1,0.6-0.3,1.3-0.4,1.9c-0.2,0.6-0.3,1.2-0.5,1.8c-0.1,0.3-0.2,0.6-0.2,0.7
			c0,0.1,0,0.3,0,0.5c0,0-0.1,0-0.1,0c-0.2-0.4-0.3-0.9-0.5-1.3c-0.2-0.4-0.4-0.9-0.6-1.3c0,0,0.1,0,0.1-0.1
			c0.1,0.2,0.2,0.2,0.2,0.2c0,0,0.1-0.1,0.1-0.4c0.1-0.5,0.2-0.9,0.3-1.4C126,85.6,126.1,85.1,126.2,84.6L126.2,84.6z"/>
		<path class="st0" d="M131.9,96.8c-0.4-0.3-0.8-0.7-1.3-1c0-0.1,0-0.1,0.1-0.2c0,0,0,0,0.1,0c0.1,0,0.2-0.1,0.3-0.4
			c0.1-0.4,0.2-0.8,0.2-1.2c0-0.4,0-0.9-0.1-1.4c-0.1-0.4-0.2-0.8-0.4-1.1c-0.1-0.2-0.2-0.4-0.4-0.5c-0.1-0.1-0.3-0.2-0.4-0.1
			c-0.2,0.1-0.3,0.3-0.2,0.7c0,0.2,0.1,0.6,0.1,1.3c0,0.3,0.1,0.6,0.1,0.9c0,0.6,0,1,0,1.4c0,0.3-0.1,0.7-0.2,0.9
			c-0.1,0.3-0.3,0.5-0.5,0.6c-0.2,0.2-0.4,0.2-0.7,0.2c-0.4,0-0.7-0.2-1-0.5c-0.3-0.3-0.5-0.7-0.7-1.3c-0.1-0.4-0.2-0.9-0.3-1.4
			c-0.1-0.5-0.1-0.9-0.1-1.4c0-0.5,0-1,0.1-1.5c0-0.2,0-0.3,0-0.4c0,0-0.1-0.1-0.1-0.2c0-0.1,0-0.1,0-0.2c0.5,0.1,0.9,0.2,1.4,0.4
			c0,0.1,0,0.1,0,0.2c0,0,0,0,0,0c-0.1,0-0.2,0.1-0.2,0.3c-0.1,0.3-0.1,0.7-0.1,1.2c0,0.5,0,1,0.1,1.4c0.1,0.5,0.2,0.9,0.3,1.2
			c0.1,0.2,0.2,0.3,0.3,0.4c0.1,0.1,0.2,0.2,0.4,0.1c0.2,0,0.3-0.2,0.3-0.4c0-0.2,0-0.6,0-1.2c0-0.3-0.1-0.6-0.1-0.9
			c-0.1-0.6-0.1-1-0.1-1.3c0-0.3,0-0.5,0-0.8c0-0.4,0.1-0.7,0.2-1c0.1-0.2,0.3-0.4,0.6-0.5c0.4-0.1,0.8,0,1.3,0.4
			c0.3,0.3,0.5,0.6,0.8,1.1c0.2,0.5,0.4,1.1,0.6,1.7c0.1,0.6,0.2,1.1,0.2,1.6c0,0.5-0.1,1.1-0.2,1.9c-0.1,0.2-0.1,0.4-0.1,0.5
			c0,0.1,0,0.2,0.1,0.3C131.9,96.7,131.9,96.8,131.9,96.8L131.9,96.8z"/>
	</g>
	<g id="JURMALA">
		<path class="st0" d="M72,116.3c0.5,0.1,0.9,0.1,1.4,0.1c0,0.1,0,0.1,0,0.2c0,0,0,0-0.1,0c-0.1,0-0.1,0.2-0.1,0.4
			c0,0.2,0.1,0.5,0.2,0.8c0.1,0.3,0.3,0.6,0.4,0.9c0.3,0.4,0.5,0.7,0.8,0.8c0.1,0.1,0.2,0.1,0.4,0c0.1,0,0.2-0.1,0.4-0.2
			c0.4-0.3,0.8-0.6,1.2-0.9c0.4-0.3,0.8-0.6,1.2-0.9c0.1,0,0.1-0.1,0.1-0.2c0-0.1,0-0.1-0.1-0.3c0,0,0.1,0,0.1-0.1
			c0.2,0.3,0.4,0.5,0.6,0.8c0.2,0.3,0.4,0.5,0.6,0.8c0,0-0.1,0.1-0.1,0.1c-0.1-0.1-0.2-0.1-0.2-0.1c-0.1,0-0.1,0-0.2,0.1
			c-0.4,0.3-0.7,0.6-1.1,1c-0.4,0.3-0.7,0.6-1.1,1c-0.4,0.3-0.7,0.5-1,0.5c-0.3,0-0.7-0.2-1-0.4c-0.4-0.3-0.7-0.7-1.1-1.2
			c-0.2-0.3-0.3-0.6-0.4-0.8c-0.1-0.2-0.2-0.6-0.4-1.2c-0.1-0.3-0.2-0.6-0.2-0.7c-0.1-0.1-0.1-0.2-0.2-0.3
			C72,116.4,72,116.4,72,116.3L72,116.3z"/>
		<g>
			<path class="st0" d="M84.7,124.3c-0.3,0.4-0.5,0.8-0.8,1.2c-0.3,0.4-0.5,0.8-0.8,1.2c-0.3,0.5-0.6,0.7-1,0.8
				c-0.3,0.1-0.8,0-1.3-0.2c-0.5-0.2-1.1-0.6-1.7-1.1c-0.5-0.4-0.8-0.7-1.1-1.1c-0.3-0.3-0.5-0.7-0.6-1c-0.2-0.3-0.2-0.7-0.1-0.9
				c0.1-0.3,0.3-0.5,0.5-0.8c0.4-0.3,0.7-0.7,1.1-1c0.4-0.3,0.7-0.7,1.1-1c0.1-0.1,0.1-0.1,0.1-0.2c0-0.1,0-0.1-0.1-0.2
				c0,0,0.1-0.1,0.1-0.1c0.2,0.2,0.5,0.4,0.7,0.6c0.2,0.2,0.5,0.4,0.7,0.6c0,0-0.1,0.1-0.1,0.1c-0.1-0.1-0.2-0.1-0.2-0.1
				c-0.1,0-0.1,0-0.2,0.1c-0.3,0.3-0.6,0.6-0.9,0.9c-0.3,0.3-0.6,0.6-0.9,0.9c-0.2,0.2-0.3,0.4-0.4,0.5c-0.1,0.1-0.1,0.3-0.1,0.4
				c0.1,0.4,0.4,0.9,1.1,1.4c0.6,0.5,1.2,0.8,1.6,0.8c0.2,0,0.3-0.1,0.4-0.1c0.1-0.1,0.3-0.3,0.4-0.5c0.2-0.4,0.5-0.7,0.7-1.1
				c0.2-0.4,0.5-0.7,0.7-1.1c0-0.1,0.1-0.1,0.1-0.2c0-0.1-0.1-0.1-0.1-0.2c0,0,0-0.1,0.1-0.1c0.2,0.2,0.5,0.4,0.7,0.5
				c0.2,0.2,0.5,0.3,0.7,0.5c0,0,0,0.1-0.1,0.1c-0.1,0-0.2-0.1-0.2,0C84.8,124.1,84.8,124.2,84.7,124.3L84.7,124.3z"/>
			<polygon class="st0" points="84.3,120.5 84.5,122.9 84,122.5 83.8,121 82.2,121.2 81.7,120.7 			"/>
		</g>
		<path class="st0" d="M86.7,128.3c-0.1,0.3-0.2,0.5-0.4,0.8c-0.1,0.3-0.2,0.5-0.4,0.8c0,0.1,0,0.1,0,0.2c0,0.1,0.1,0.1,0.2,0.2
			c0,0,0,0.1-0.1,0.1c-0.4-0.2-0.7-0.3-1.1-0.5c-0.4-0.2-0.7-0.4-1-0.6c0,0,0-0.1,0.1-0.1c0.1,0,0.2,0.1,0.3,0
			c0.1,0,0.1-0.1,0.1-0.1l2-3.9c0-0.1,0-0.1,0-0.2c0-0.1-0.1-0.1-0.2-0.2c0,0,0-0.1,0.1-0.1c0.6,0.3,1.2,0.6,1.9,0.9
			s1.3,0.6,1.9,0.9c0.5,0.2,0.8,0.4,1.1,0.5c0.3,0.2,0.5,0.3,0.6,0.5c0.2,0.2,0.3,0.5,0.4,0.7c0.1,0.2,0,0.5,0,0.7
			c-0.1,0.4-0.4,0.7-0.7,0.8c-0.4,0.1-0.9,0.1-1.5-0.1c0.1,0.3,0.3,0.6,0.4,0.9c0.1,0.3,0.3,0.6,0.5,0.9c0.2,0.3,0.3,0.5,0.4,0.6
			c0.1,0.1,0.2,0.2,0.4,0.3c0,0,0,0.1,0,0.1c-0.4-0.1-0.9-0.3-1.3-0.5c-0.4-0.2-0.9-0.3-1.3-0.5c0,0,0-0.1,0-0.1
			c0.2,0.1,0.3,0,0.3,0c0,0,0-0.2-0.1-0.4c-0.1-0.3-0.3-0.7-0.4-1c-0.1-0.3-0.3-0.7-0.4-1C87.9,128.8,87.3,128.5,86.7,128.3
			L86.7,128.3z M87.1,127.5c0.4,0.2,0.7,0.3,1.1,0.5c0.4,0.2,0.7,0.3,1.1,0.5c0.3,0.1,0.6,0.2,0.7,0.3c0.1,0,0.3,0.1,0.4,0.1
			c0.3,0,0.5-0.1,0.5-0.4c0.1-0.3,0-0.5-0.2-0.7c-0.1-0.1-0.2-0.2-0.3-0.2c-0.1-0.1-0.3-0.2-0.7-0.3c-0.3-0.2-0.7-0.3-1-0.5
			c-0.3-0.2-0.7-0.3-1-0.5c-0.1,0.2-0.2,0.4-0.3,0.6C87.3,127.1,87.2,127.3,87.1,127.5L87.1,127.5z"/>
		<path class="st0" d="M97.1,133.4l-2.2-3.9l-0.5,3.2c0,0.1,0,0.1,0,0.2c0,0,0.1,0.1,0.3,0.1c0,0,0,0.1,0,0.1
			c-0.7-0.1-1.4-0.2-2.1-0.3c0,0,0-0.1,0-0.1c0.1,0,0.2,0,0.3-0.1c0.1,0,0.1-0.1,0.1-0.2l0.8-4.4c0-0.1,0-0.1,0-0.2
			c0,0-0.1-0.1-0.2-0.1c0,0,0-0.1,0-0.1c0.4,0,0.8,0.1,1.2,0.1c0.4,0,0.8,0.1,1.2,0.1c0,0,0,0.1,0,0.1c-0.1,0-0.2,0.1-0.2,0.2
			c0,0.1,0,0.1,0,0.2l1.6,2.9l1.9-2.6c0.1-0.1,0.1-0.2,0.1-0.3c0-0.1-0.1-0.2-0.2-0.2c0,0,0-0.1,0-0.1c0.4,0,0.8,0,1.2,0.1
			c0.4,0,0.8,0,1.2,0c0,0,0,0.1,0,0.1c-0.1,0-0.2,0.1-0.2,0.1c0,0-0.1,0.1-0.1,0.2l0.3,4.5c0,0.1,0,0.1,0.1,0.2
			c0.1,0,0.1,0.1,0.3,0.1c0,0,0,0.1,0,0.1c-0.8,0-1.5,0-2.3,0c0,0,0-0.1,0-0.1c0.1,0,0.2-0.1,0.3-0.1c0.1,0,0.1-0.1,0.1-0.2l0-3.3
			L97.1,133.4L97.1,133.4z"/>
		<path class="st0" d="M108.5,131.1l-3.4,0.8l-0.3,0.8c0,0.1-0.1,0.2-0.1,0.3c0,0.1,0.2,0.2,0.4,0.2c0,0,0,0.1,0,0.1
			c-0.4,0.1-0.9,0.1-1.3,0.2c-0.4,0-0.8,0.1-1.3,0.1c0,0,0-0.1,0-0.1c0.1,0,0.3-0.1,0.3-0.1c0.1-0.1,0.2-0.2,0.2-0.3l2.1-4.6
			c0.1-0.1,0.1-0.3,0.1-0.3c0-0.1-0.1-0.2-0.3-0.2c0,0,0-0.1,0-0.1c0.4-0.1,0.8-0.2,1.2-0.2c0.4-0.1,0.8-0.2,1.2-0.3
			c0,0,0,0.1,0,0.1c-0.2,0.1-0.3,0.2-0.2,0.3c0,0.1,0.1,0.2,0.2,0.2l3.7,3.2c0.2,0.1,0.3,0.2,0.4,0.2c0.1,0,0.2,0,0.4,0
			c0,0,0,0.1,0,0.1c-0.4,0.2-0.9,0.3-1.3,0.5c-0.4,0.2-0.9,0.3-1.3,0.4c0,0,0-0.1,0-0.1c0.2-0.1,0.3-0.2,0.3-0.3
			c0-0.1-0.1-0.1-0.2-0.2L108.5,131.1L108.5,131.1z M107.9,130.4l-1.6-1.6l-0.9,2.2L107.9,130.4L107.9,130.4z"/>
		<path class="st0" d="M113.7,129.4c0.7-0.4,1.4-0.8,2.1-1.2c0.7-0.4,1.3-0.9,2-1.3c0.1-0.1,0.2-0.1,0.2-0.2c0-0.1,0-0.1,0-0.2
			c0,0,0.1-0.1,0.1-0.1c0.3,0.4,0.5,0.7,0.8,1.1c-0.1,0-0.1,0.1-0.1,0.1c-0.1-0.1-0.2-0.1-0.2-0.1c-0.1,0-0.2,0-0.2,0.1
			c-0.9,0.7-1.9,1.3-2.9,1.9c-1,0.6-2,1.1-3.1,1.6c0,0,0-0.1,0-0.1c0.1-0.1,0.2-0.1,0.2-0.2c0-0.1,0-0.1,0-0.2l-1.8-4.1
			c0-0.1-0.1-0.1-0.1-0.1c-0.1,0-0.1,0-0.3,0c0,0,0-0.1,0-0.1c0.3-0.1,0.6-0.3,0.9-0.4c0.3-0.2,0.6-0.3,0.9-0.5c0,0,0,0.1,0.1,0.1
			c-0.1,0.1-0.2,0.1-0.2,0.2c0,0.1,0,0.1,0,0.2L113.7,129.4L113.7,129.4z"/>
		<path class="st0" d="M123,121.6l-2.6,2.7l0.1,0.8c0,0.1,0,0.2,0.1,0.3c0.1,0.1,0.2,0.1,0.5-0.1c0,0,0.1,0.1,0.1,0.1
			c-0.3,0.3-0.7,0.6-1,0.9c-0.4,0.3-0.7,0.5-1.1,0.8c0,0,0-0.1-0.1-0.1c0.1-0.1,0.2-0.2,0.2-0.3c0-0.1,0.1-0.2,0.1-0.4l-0.4-4.9
			c0-0.2-0.1-0.3-0.1-0.3c-0.1-0.1-0.2-0.1-0.4,0c0,0-0.1-0.1-0.1-0.1c0.3-0.2,0.5-0.5,0.8-0.8c0.3-0.3,0.5-0.5,0.8-0.8
			c0,0,0.1,0.1,0.1,0.1c-0.1,0.2-0.1,0.3,0,0.3c0.1,0,0.1,0.1,0.3,0.1l4.7,0.4c0.2,0,0.4,0,0.5-0.1c0.1,0,0.2-0.1,0.3-0.2
			c0,0,0.1,0,0.1,0.1c-0.6,0.8-1.1,1.5-1.7,2.2c0,0-0.1-0.1-0.1-0.1c0.2-0.2,0.2-0.4,0.1-0.4c0,0-0.1-0.1-0.3-0.1L123,121.6
			L123,121.6z M122.1,121.4l-2.2-0.3l0.3,2.3L122.1,121.4L122.1,121.4z"/>
	</g>
	<g id="конёк">
		<path class="st2" d="M100.2,84.8c0,0.8,0.3,1.6,0.9,2.2c1.4,1.3,3.8,1.5,5.9,3.1c1,0.8,1.7,2.1,2.1,3.3l0.6-0.8
			c-1.5-1.8-2.5-4-3.5-6c0.1-0.1,0.3-0.2,0.4-0.4c0.3-0.3,0.5-0.6,0.6-0.9c0.1,0.1,0.3,0.2,0.4,0.2c-0.4,0.7-0.6,2,0,3.1
			c0.7,1.4,1.4,2.6,2.3,3.7l0.4-0.6c-2.6-2.7-2.7-4.4-1.2-6.6c-2.3-0.7-3.6-2.6-3.3-6.3c-0.7,0.4-1.5,1-2.2,1.4
			c0.6,0.8,1.6,2.4,2.1,3.8c0,0,0,0,0.1,0c-0.3,0.1-0.6,0.3-0.9,0.6c-0.1,0.1-0.2,0.2-0.3,0.3c-0.5-1.1-1.4-1.8-2.5-1.8
			C100.9,83,100.3,84,100.2,84.8L100.2,84.8z M106.8,84.2c-0.5-0.5-1.4,0-1.8,0.4c-0.4,0.4-0.9,1.4-0.4,1.9c0.5,0.5,1.4-0.1,1.8-0.5
			C106.8,85.6,107.3,84.7,106.8,84.2L106.8,84.2z"/>
		<path class="st2" d="M99.8,106.8c0.3,0.3,0.7,1.1,0.8,1.6c-0.3-0.5-0.6-0.9-1-1.2L99.8,106.8L99.8,106.8z M100.7,109.1
			c-0.5-0.5-1.1-1-1.5-1.3l0.2-0.4C99.8,107.8,100.4,108.5,100.7,109.1L100.7,109.1z"/>
		<path class="st2" d="M98.3,105.6c0.4,0.2,0.8,0.5,1.2,0.8l-0.2,0.4c-0.3-0.3-0.6-0.6-1-0.7L98.3,105.6L98.3,105.6z M99,107.2
			l-0.2,0.4c-0.2-0.1-0.5-0.2-0.7-0.3l0.1-0.7C98.5,106.7,98.8,106.9,99,107.2L99,107.2z"/>
		<path class="st2" d="M96.2,105.2c0.5,0,1.1,0.1,1.6,0.3l0,0.5c-0.5-0.2-1-0.2-1.5-0.3L96.2,105.2L96.2,105.2z M97.8,106.4
			l-0.1,0.7c-0.4-0.1-0.8-0.1-1.2-0.1l-0.1-0.8C96.8,106.2,97.3,106.3,97.8,106.4L97.8,106.4z"/>
		<path class="st2" d="M93.9,105.4c0.4-0.1,0.8-0.2,1.3-0.2c0.2,0,0.4,0,0.6,0l0.1,0.6c-0.7,0-1.2,0.1-1.6,0.3L93.9,105.4
			L93.9,105.4z M95.9,106.2l0.1,0.8c-0.4,0-0.8,0.1-1.1,0.1l-0.4-0.7C95,106.2,95.5,106.2,95.9,106.2L95.9,106.2z"/>
		<path class="st2" d="M91.6,106.5c0.6-0.4,1.2-0.7,1.8-0.9l0.4,0.7c-0.6,0.2-1.1,0.5-1.6,0.9L91.6,106.5L91.6,106.5z M94.1,106.6
			l0.4,0.6c-0.5,0.2-0.9,0.4-1.3,0.7l-0.6-0.5C93.1,107.1,93.6,106.8,94.1,106.6L94.1,106.6z"/>
		<path class="st2" d="M89.8,108.3c0.4-0.6,0.9-1.1,1.5-1.5l0.6,0.6c-0.6,0.4-1,0.9-1.2,1.5L89.8,108.3L89.8,108.3z M92.2,107.6
			l0.7,0.6c-0.4,0.3-0.7,0.7-0.9,1.2l-0.8-0.4C91.3,108.4,91.7,108,92.2,107.6L92.2,107.6z"/>
		<path class="st2" d="M88.5,110.9c0.2-0.8,0.6-1.6,1-2.2l0.8,0.4c-0.4,0.6-0.7,1.2-0.7,2L88.5,110.9L88.5,110.9z M90.7,109.3l1,0.5
			c-0.2,0.5-0.3,1-0.4,1.5l-1.2-0.2C90.1,110.4,90.3,109.8,90.7,109.3L90.7,109.3z"/>
		<path class="st2" d="M88.3,114c0-0.4-0.1-0.8,0-1.2c0-0.5,0.1-1,0.2-1.4l1.1,0.1c-0.1,0.7-0.2,1.5,0.1,2.3L88.3,114L88.3,114z
			 M89.9,111.6l1.3,0.2c-0.1,0.6,0,1.2,0.1,1.7c0,0,0,0.1,0,0.1l-1.3,0.2C89.8,113.1,89.8,112.3,89.9,111.6L89.9,111.6z"/>
		<path class="st2" d="M89,117c-0.3-0.8-0.6-1.7-0.7-2.5l1.4-0.2c0,0.8,0.2,1.4,0.7,2L89,117L89,117z M90.1,114.2l1.3-0.2
			c0.1,0.5,0.4,1,0.6,1.4l-1.2,0.7C90.5,115.5,90.2,114.9,90.1,114.2L90.1,114.2z"/>
		<path class="st2" d="M90.8,119.8c-0.6-0.7-1.2-1.6-1.6-2.4l1.4-0.7c0.3,0.7,0.8,1.4,1.5,1.8L90.8,119.8L90.8,119.8z M91,116.4
			l1.3-0.7c0.2,0.2,0.3,0.5,0.5,0.7c0.2,0.2,0.4,0.5,0.7,0.7l-1.1,1.1C91.8,117.7,91.3,117.1,91,116.4L91,116.4z"/>
		<path class="st2" d="M93.4,122c-0.9-0.5-1.6-1.1-2.3-1.8l1.3-1.3c0.5,0.7,1.2,1.2,2,1.4L93.4,122L93.4,122z M92.7,118.5l1.1-1.1
			c0.5,0.4,1,0.7,1.6,0.9l-0.8,1.5C93.8,119.6,93.1,119.1,92.7,118.5L92.7,118.5z"/>
		<path class="st2" d="M96.8,123.3c-1.1-0.2-2.1-0.6-3.1-1.1l1-1.8c0.6,0.6,1.4,0.8,2.4,0.7L96.8,123.3L96.8,123.3z M95,120l0.9-1.6
			c0.5,0.2,1.1,0.3,1.6,0.4l-0.3,1.8C96.4,120.7,95.6,120.5,95,120L95,120z"/>
		<path class="st2" d="M100.1,123.6c-0.3,0-0.6,0-0.8,0c-0.7,0-1.3-0.1-2-0.2l0.3-2.1c0.6,0.4,1.5,0.5,2.2,0.1L100.1,123.6
			L100.1,123.6z M97.7,120.8l0.3-1.8c0.2,0,0.4,0,0.6,0c0.4,0,0.7,0,1-0.1l0.3,2C99.1,121.3,98.4,121.2,97.7,120.8L97.7,120.8z"/>
		<path class="st2" d="M103.9,122.8c-1,0.4-2.1,0.7-3.3,0.8l-0.3-2.2c0.9,0.3,1.8,0.1,2.4-0.8L103.9,122.8L103.9,122.8z
			 M100.2,120.9l-0.2-2.1c0.5-0.1,0.9-0.3,1.3-0.5l1.1,1.9C101.9,120.8,101.3,121.3,100.2,120.9L100.2,120.9z"/>
		<path class="st2" d="M106.9,120.9c-0.8,0.7-1.6,1.2-2.6,1.7l-1.3-2.3c1.1,0,1.6-0.7,1.6-1.5L106.9,120.9L106.9,120.9z
			 M102.8,119.9l-1.1-1.9c0.4-0.3,0.7-0.5,1-0.9l1.5,1.4C104.2,119.5,103.7,120,102.8,119.9L102.8,119.9z"/>
		<path class="st2" d="M109,118.5c-0.5,0.8-1.1,1.5-1.8,2.2l-2.3-2.1c0.8-0.1,1.2-0.7,1.1-1.7L109,118.5L109,118.5z M104.6,118.2
			l-1.6-1.5c0.3-0.3,0.7-0.8,0.7-1.2l1.9,1C105.8,117.5,105.4,118.1,104.6,118.2L104.6,118.2z"/>
		<path class="st2" d="M110.5,115.3c-0.3,1-0.7,1.9-1.2,2.8l-2.9-1.6c0.9-0.3,1-1.5,0.5-2.1L110.5,115.3L110.5,115.3z M105.8,116.2
			l-1.9-1c0.3-0.3,0.5-0.8,0.4-1.4l2.2,0.6C107,114.8,106.9,116.1,105.8,116.2L105.8,116.2z"/>
		<path class="st2" d="M111.1,112.2c-0.1,0.9-0.2,1.8-0.5,2.7l-3.6-0.9c1-0.2,1-1.5,0.4-2.1L111.1,112.2L111.1,112.2z M106.2,113.8
			l-1.9-0.5c0.3-0.5,0.3-1.1-0.1-1.6l1.9,0.1c0.9,0.1,1.6,0.8,1,1.6C106.9,113.8,106.4,113.8,106.2,113.8L106.2,113.8z"/>
		<path class="st2" d="M111.1,109.5c0.1,0.8,0.1,1.5,0,2.3l-3.9-0.3c0.6-0.4,0.2-1.5-0.6-2.1L111.1,109.5L111.1,109.5z M106.4,111.4
			l-2.3-0.2c0.4-0.8,0-1.4-0.8-2l2.3,0.1c0.7,0,1.3,0.9,1.4,1.5C107,111.1,106.8,111.4,106.4,111.4L106.4,111.4z"/>
		<path class="st2" d="M110.6,106.6c0.1,0.6,0.2,1.2,0.3,1.8c0,0.2,0.1,0.4,0.1,0.7l-4.6-0.2c0.5-0.7,0.2-1.9-0.9-2.5L110.6,106.6
			L110.6,106.6z M105.5,108.8l-2.5-0.1c-0.2-1.2-0.9-2-2.2-2.5l3.4,0.1c0.9,0,2,0.9,2.1,1.6C106.2,108.3,106,108.8,105.5,108.8
			L105.5,108.8z"/>
		<path class="st2" d="M109.8,103.6c0.3,0.9,0.6,1.7,0.8,2.6l-5.6-0.2c0.7-0.9-0.4-1.9-1.3-2.6L109.8,103.6L109.8,103.6z
			 M103.6,105.9l-3.2-0.1c-0.1-1.3-1.3-2.3-1.9-2.6l3.7,0.1c1,0,2.6,1.3,2.6,2.1C104.7,105.7,104.3,105.9,103.6,105.9L103.6,105.9z"
			/>
		<path class="st2" d="M108.2,100.3c0.1,0.2,0.3,0.5,0.4,0.7c0.4,0.7,0.7,1.3,0.9,2l-6.6-0.2c0.3-0.4,0.1-1-0.3-1.5
			c-0.4-0.5-0.8-0.9-1.4-1.3L108.2,100.3L108.2,100.3z M101.4,102.8l-3.7-0.1c0-0.4-0.9-2-2.7-2.8l4.2,0.1c1.2,0,3.4,1.6,3.2,2.4
			C102.5,102.7,102.2,102.8,101.4,102.8L101.4,102.8z"/>
		<path class="st2" d="M106.4,97.4c0.6,0.8,1.1,1.7,1.6,2.5l-7.2-0.2c0.5-1.1-0.6-1.8-1.6-2.5L106.4,97.4L106.4,97.4z M99.7,99.6
			l-5.2-0.2c0.2-0.9,0.4-1.8-1.2-2.5l4.3,0.1c0.8,0,2.7,1.3,2.8,2C100.4,99.3,100.3,99.6,99.7,99.6L99.7,99.6z"/>
		<path class="st2" d="M104.2,94.3c0.6,0.8,1.2,1.7,1.9,2.6l-7.4-0.3c0.6-0.9,0.2-1.9-0.8-2.7L104.2,94.3L104.2,94.3z M97.4,96.6
			l-4.3-0.2c1.1-1.2,0.3-2.4-1.2-2.9l4.6,0.3c0.8,0,1.8,0.9,1.9,1.7C98.4,96.2,98.1,96.6,97.4,96.6L97.4,96.6z"/>
		<path class="st2" d="M101.9,91.1c0.6,0.9,1.3,1.8,1.9,2.7l-7-0.4c0.7-0.6,0.3-2.1-0.7-2.7L101.9,91.1L101.9,91.1z M96,93.4
			l-4.3-0.2c1-0.8,0.4-2.2-0.6-2.8l4,0.3c0.6,0,1.4,0.8,1.5,1.7C96.8,92.9,96.5,93.4,96,93.4L96,93.4z"/>
		<path class="st2" d="M100.2,88.4c0.4,0.7,0.8,1.5,1.3,2.2L96,90.2c0.4-0.4,0.2-1.7-0.5-2.3L100.2,88.4L100.2,88.4z M95.3,90.2
			l-4.1-0.3c1-0.6,1-1.7,0.1-2.3l3.6,0.4c0.4,0,0.9,0.9,1,1.5C95.9,89.9,95.7,90.2,95.3,90.2L95.3,90.2z"/>
		<path class="st2" d="M99.4,85.9c0.1,0.7,0.3,1.2,0.6,2l-4.7-0.4c0.7-0.6,0.7-1.5,0.4-2.2L99.4,85.9L99.4,85.9z M94.4,87.4
			l-3.1-0.3c1.1-0.2,1.5-1.7,0.9-2.4l2.9,0.5c0.4,0.1,0.5,0.8,0.4,1.3C95.3,87,95,87.4,94.4,87.4L94.4,87.4z"/>
		<path class="st2" d="M99.5,84.1c-0.1,0.4-0.2,1-0.2,1.3l-3.7-0.7c0.6-0.3,1.2-1.1,1.2-1.9L99.5,84.1L99.5,84.1z M94.8,84.7
			l-2.3-0.4c1.4-0.4,2.3-1,1.9-2.5l1.9,0.9c0.3,0.1,0.2,0.7-0.1,1.1C95.9,84.3,95.2,84.7,94.8,84.7L94.8,84.7z"/>
		<path class="st2" d="M94.6,81.3l2.2,1c1.6-0.7,3.3-0.7,5.1-0.6l0.6-0.5c-0.8-0.3-2.9-0.5-4.4-0.4C96.9,80.9,95.6,81.4,94.6,81.3
			L94.6,81.3z M97.3,82.6l2.3,1.1c0.1-0.2,0.5-0.8,1.4-1.1c0.3-0.3,0.3-0.3,0.6-0.6C99.9,81.9,98.5,82,97.3,82.6L97.3,82.6z"/>
		<path class="st2" d="M101.9,82.5l1.3-1.1c0.6,0.5,1.3,1.2,1.6,2.4C103.8,82.9,103.1,82.4,101.9,82.5L101.9,82.5z"/>
		<path class="st2" d="M102.8,81c0.2-0.2,0.5-0.4,0.7-0.6c-0.1-0.2-0.3-0.4-0.5-0.6l-1,1C102.2,80.8,102.5,80.9,102.8,81L102.8,81z
			 M102.7,79.4c-0.1-0.1-0.3-0.3-0.4-0.5l-1.5,1.6c0.2,0,0.5,0,0.7,0.1L102.7,79.4L102.7,79.4z M101.9,78.7
			c-0.1-0.1-0.3-0.3-0.4-0.4l-1.8,1.8l-2.4,0c0,0.2,0,0.3,0,0.5c0.7-0.1,2.1-0.2,2.9-0.2L101.9,78.7L101.9,78.7z M101.2,78
			c-0.1-0.1-0.3-0.2-0.4-0.3l-1.5,1.5l-1.8,0c0,0.2,0,0.3-0.1,0.5l2.2,0L101.2,78L101.2,78z M100.4,77.4c-0.1-0.1-0.2-0.2-0.3-0.2
			l-1,1.1l-1.4,0c0,0.2-0.1,0.3-0.1,0.5l1.6,0L100.4,77.4L100.4,77.4z M99.7,77c-0.1-0.1-0.2-0.1-0.4-0.2l-0.6,0.6l-0.9,0
			c-0.1,0.2-0.1,0.3-0.1,0.5l1.1,0L99.7,77L99.7,77z M98.9,76.5c-0.2-0.1-0.4-0.2-0.7-0.3c-0.1,0.2-0.2,0.4-0.2,0.6l0.6,0L98.9,76.5
			L98.9,76.5z"/>
		<path class="st2" d="M106.3,84.7c-0.3-0.2-0.7,0.1-0.9,0.3c-0.2,0.2-0.5,0.7-0.2,0.9c0.3,0.3,0.7-0.2,0.9-0.3
			C106.2,85.4,106.5,84.9,106.3,84.7L106.3,84.7z"/>
		<path class="st2" d="M94.5,100.4c1.1,0.3,1.8,1,2.4,2c-1-0.5-2.1-1-3.2-1.3C94,100.8,94.2,100.6,94.5,100.4L94.5,100.4z
			 M96.5,102.6c-1.2,0-2.5-0.3-3.6-0.6c0.1-0.2,0.3-0.4,0.5-0.7C94.4,101.7,95.5,102.1,96.5,102.6L96.5,102.6z M95.4,103
			c-0.4,0.1-0.8,0.2-1.2,0.3c-0.6,0.1-1.3,0.2-1.9,0c0.1-0.3,0.2-0.6,0.3-0.8C93.5,102.7,94.5,102.9,95.4,103L95.4,103z M99.6,105.9
			c-0.2-0.2-0.5-0.4-0.7-0.5c-0.1-0.4-0.2-0.7-0.4-1c0.2,0,0.3,0,0.5,0C99.4,104.9,99.7,105.6,99.6,105.9L99.6,105.9z M97.9,103.9
			c-0.3-0.1-0.5-0.2-0.6-0.4c0,0,0-0.1,0-0.1c0-0.1,0-0.3,0.1-0.4c0.4,0.1,0.8,0.5,1.3,0.9C98.4,103.9,98.1,103.9,97.9,103.9
			L97.9,103.9z M97.9,104.3c0.2,0.2,0.3,0.5,0.4,0.8c-0.2-0.1-0.7-0.2-0.9-0.2c0-0.1-0.2-0.3-0.2-0.8
			C97.4,104.2,97.7,104.3,97.9,104.3L97.9,104.3z M97,104.8c-0.6-0.1-0.8-0.1-1.3-0.1c0.2-0.2,0.4-0.3,0.6-0.5
			c0.2-0.2,0.4-0.4,0.6-0.6C96.9,104,96.9,104.4,97,104.8L97,104.8z M94.7,104.7c-0.9,0.1-1.8,0.4-2.6,0.8c0-0.2,0-0.3,0-0.5
			c0.7-0.1,1.4-0.3,2-0.6c0.6-0.3,1-0.6,1.5-0.9c0.2-0.1,0.4-0.2,0.6-0.3l0.1,0c0.1,0,0.3-0.1,0.4-0.1
			C96,103.6,95.5,104.4,94.7,104.7L94.7,104.7z M92.1,104.6c0-0.3,0.1-0.6,0.1-0.9c0.7,0.2,1.4,0.1,2.1,0c0.2,0,0.3-0.1,0.5-0.1
			c-0.3,0.2-0.6,0.4-0.9,0.5C93.4,104.4,92.7,104.5,92.1,104.6L92.1,104.6z"/>
	</g>
</g>
</svg>
