<?xml version="1.0" encoding="utf-8"?>
<!-- Generator: Adobe Illustrator 21.1.0, SVG Export Plug-In . SVG Version: 6.00 Build 0)  -->
<svg version="1.1" id="Layer_1" xmlns="http://www.w3.org/2000/svg" xmlns:xlink="http://www.w3.org/1999/xlink" x="0px" y="0px"
	 viewBox="0 0 200 200" style="enable-background:new 0 0 200 200;" xml:space="preserve">
<style type="text/css">
	.st0{fill:#2C2C2B;}
	.st1{fill:#FFFFFF;}
	.st2{fill:#DC242F;}
	.st3{fill:#D5DFE0;}
	.st4{fill:#FFD700;}
</style>
<g>
	<path class="st0" d="M12.3,12.8C40.9,4.5,70.1,0.6,99.8,0.6c10.3,0,20.6,0.3,30.8,1.2c9.3,0.8,18.6,2.1,27.7,3.8
		c9.9,1.9,19.6,4.3,29.2,7.1l0.7,0.2l0,0.8c0,5,0.1,10,0.1,15c0,4.3,0,8.7-0.2,13c-0.2,4.1-0.4,8.2-0.9,12.2
		c-0.3,2.5-0.7,5.1-1.1,7.6c-2.5,15.9-6.6,31.9-13,46.6c-8.1,18.9-19,36.8-31.9,52.7c-11.6,14.3-25.3,27.6-40.6,37.8l-0.8,0.6
		l-0.8-0.6c-15.3-10.3-29-23.6-40.6-37.8c-13-15.9-23.9-33.8-31.9-52.7c-6.3-14.8-10.5-30.8-13-46.6c-0.4-2.5-0.7-5.1-1.1-7.6
		c-0.5-4.1-0.8-8.1-0.9-12.2c-0.2-4.3-0.2-8.7-0.2-13c0-5,0.1-10,0.1-15l0-0.8L12.3,12.8z"/>
	<path class="st1" d="M12.6,13.8C37,6.7,65.9,1.6,99.8,1.6s59,3.8,87.5,12.1c0,13.2,0.5,28.1-1,40.2c-2.3,18.8-7,37.6-14,54
		c-16.5,38.6-44.2,71.3-72.2,90.1l-0.3,0.2l-0.3-0.2c-28-18.8-55.6-51.5-72.2-90.1c-7-16.3-11.7-35.1-14-54
		C12.1,41.8,12.6,27,12.6,13.8z"/>
	<path id="path10" class="st2" d="M26.4,79.2c1.1,4.8,2.4,9.5,3.9,14.1H170c1.5-4.6,2.7-9.2,3.7-13.9c-14.6-5-43.3-11.4-73-11.4
		C74.3,68,48.5,71.4,26.4,79.2z M39.7,115.8c4,8,8.7,16,13.8,23.7h93.3c5.2-7.7,9.8-15.6,13.8-23.7H39.7z M70.8,161.9
		c8.9,10.1,18.8,19.2,29.3,26.8c10.5-7.6,20.4-16.7,29.3-26.8H70.8z"/>
	<g id="g12">
		<path id="path14" class="st3" d="M30.2,93.3c1.3,3.9,2.7,7.8,4.3,11.5c1.6,3.7,3.3,7.3,5.1,11h120.9c1.8-3.6,3.5-7.3,5.1-11
			c1.6-3.8,3-7.6,4.3-11.5H30.2z"/>
		<path id="path16" class="st3" d="M53.5,139.4c5.3,7.8,11.1,15.4,17.3,22.5h58.6c6.3-7.1,12.1-14.6,17.3-22.5H53.5z"/>
	</g>
	<path id="path18" class="st0" d="M20.1,19c-0.1,10.7,0.4,22.4,1.6,32.9c9.1-3.3,19.3-6,30.3-8V12.1C41.4,13.9,30.7,16.2,20.1,19z
		 M83.4,40.3c5.5-0.3,11-0.4,16.5-0.4c5.2,0,10.7,0.2,16,0.5V8.6c-5.3-0.3-10.6-0.4-16-0.4c-5.5,0-11,0.2-16.5,0.5V40.3z
		 M147.3,43.9c13.6,2.3,24.1,5.2,30.9,7.8c1.2-10.5,1.5-22.1,1.4-32.7c-10.9-3-21.6-5.3-32.3-7V43.9z"/>
	<g id="g20">
		<path id="path22" class="st4" d="M52.1,43.9c10-1.8,20.5-3,31.3-3.6V8.7c-10.5,0.6-21,1.7-31.3,3.4V43.9z"/>
		<path id="path24" class="st4" d="M116,40.5c6.9,0.4,13.7,1,19.6,1.7c4.1,0.5,8,1.1,11.7,1.7V11.9C137,10.3,126.6,9.2,116,8.6V40.5
			z"/>
	</g>
	<path id="path26" class="st1" d="M97,20.5l3.5,3.5l3.5-3.5l-2.3-2.3l3.4-3.3l4.9,4.9l-1.1,5.6l-3.2-3.2l-3.5,3.5l6.7,6.8l-1.7,1.7
		l-6.7-6.8l-6.8,6.7L92,32.4l6.8-6.7l-3.5-3.5L93,24.4L89.7,21l6.3-6.2l3.3,3.4L97,20.5z"/>
	<g id="g28">
		<path id="path30" class="st0" d="M87.6,97.1c1,4.4,2.2,8.7,3.2,13.1c2.5,0.7,4.9,1.5,7.3,2.3c3,1,6,2.1,8.9,3.2
			c2.5-3.6,6.7-7,10.4-9.3c0.1-5.5-1.2-10.1-3.9-14.8c-3.8-2.9-8.9-4.6-13.6-4.9C95.1,89.2,90.8,92.6,87.6,97.1z"/>
		<path id="path32" class="st0" d="M106.9,116.3c-3-1.1-6-2.2-9-3.2c-2.4-0.8-4.9-1.6-7.4-2.3c-3.3,3.3-6.4,6.6-9.9,9.7
			c-0.2,4.8,0.7,10.7,3.8,14.6c3.9,3.2,8.7,4.6,13.6,4.8c4.8-1.9,9.1-6.4,12-10.6C109.1,124.9,107.9,120.6,106.9,116.3z"/>
		<path id="path34" class="st0" d="M100.9,145.8c4.7,0.6,9.4,0.2,13.9-1.4c2.8-1,5.4-2.4,7.7-4.2c0.9-1.1,1.6-2.2,2.2-3.4
			c-0.1-2.9-0.8-5.7-2.4-8.2c-4.1,1.4-7.6,1.6-11.9,1.2c-2.9,4.1-7.1,8.4-11.7,10.5C99.5,142.1,100.2,143.9,100.9,145.8z"/>
		<path id="path36" class="st0" d="M118.1,106.5c3.6,1.7,6.5,4.2,9.1,7.2c2.8-0.6,4.9-2.7,6.3-5.1c0.1-1.5,0.1-3,0-4.4
			c-1.3-4.3-3.5-8.2-6.6-11.4c-2-2.1-4.4-3.8-6.9-5.1c-1.9,1.3-3.9,2.6-5.6,4.1C117,96.4,118.2,101.1,118.1,106.5z"/>
		<path id="path38" class="st1" d="M100,78.1c19.5,0,35.4,15.9,35.4,35.4c0,19.5-15.9,35.4-35.4,35.4S64.6,133,64.6,113.5
			C64.6,93.9,80.5,78.1,100,78.1z"/>
		<path id="path40" class="st0" d="M70.7,112.7c-2.1,1.2-3.7,3.2-4.8,5.3c-0.2,0.9-0.3,1.9-0.4,2.8l0,0.2c-0.3-1.6-0.6-3.2-0.7-4.9
			l0.1,0.1c0.3,0.3,0.6,0.7,0.9,0.9c1.2-2.1,2.9-3.9,4.9-5.1c0.8-4.7,1.9-8.8,3.8-13.2c-0.6-2.7-0.4-5.6,0.1-8.2
			c-0.6,0-1.1,0.2-1.7,0.4l-0.1,0c1.4-1.7,3-3.3,4.7-4.7l0,0l0,0c-0.8,1.1-1.5,2.2-2.1,3.4c-0.6,2.7-1,5.8-0.4,8.6
			c4-1.9,7.9-2.2,12.2-1.7c3.2-4.4,7.4-7.9,12.2-10.4c-0.4-1.9-1-3.8-1.5-5.7c-2.7-0.7-5.3-0.9-8.1-0.7c-0.1,0-0.3,0-0.4,0l-0.1,0
			l0,0c0.8-0.3,1.7-0.5,2.6-0.7c2.1,0,4.2,0.3,6.3,0.9c2.9-0.7,5.7-1.3,8.7-1.2c2.1,0.4,4.2,1,6.2,1.8c2.6,1.7,4.8,3.6,6.6,6.2
			c2.8,1.3,5.4,3.2,7.6,5.5c2.6,2.7,4.5,5.8,5.9,9.2c0-0.1,0-0.2,0-0.3l0-0.1l0,0c1.4,3.7,2.1,7.6,2.2,11.7l-0.1-0.2
			c-0.4-1.1-0.9-2.3-1.7-3.2c-1.5,2.4-3.7,4.3-6.5,4.9c-0.5,4.3-2,10.1-4.3,13.8c1.5,2.4,2.3,5.2,2.5,8c0.8,0,1.5-0.3,2.2-0.5l0.1,0
			c-2,2.5-4.4,4.8-7.1,6.7c-1.8,1.1-3.6,2-5.6,2.7c-4.7,1.7-9.7,2.1-14.7,1.4c-2.4,0.9-4.9,1.5-7.4,1.8c-3.4-0.7-6.7-1.9-9.7-3.5
			c-1.4-1.5-2.7-3.2-4-4.8c-1.8-0.6-3.5-1.3-5.2-2.2c-0.5-0.6-1-1.1-1.5-1.7l0,0l0,0c2,1.5,4.1,2.5,6.4,3.2c1.6-1.3,3-2.7,4.4-4.1
			c-2.9-4-3.8-9.6-3.6-14.4C76.2,118.5,73.5,116,70.7,112.7z M118.1,106.5c3.6,1.7,6.5,4.2,9.1,7.2c2.8-0.6,4.9-2.7,6.3-5.1
			c0.1-1.5,0.1-3,0-4.4c-1.3-4.3-3.5-8.2-6.6-11.4c-2-2.1-4.4-3.8-6.9-5.1c-1.9,1.3-3.9,2.6-5.6,4.1
			C117,96.4,118.2,101.1,118.1,106.5z M100.9,145.8c4.7,0.6,9.4,0.2,13.9-1.4c2.8-1,5.4-2.4,7.7-4.2c0.9-1.1,1.6-2.2,2.2-3.4
			c-0.1-2.9-0.8-5.7-2.4-8.2c-4.1,1.4-7.6,1.6-11.9,1.2c-2.9,4.1-7.1,8.4-11.7,10.5C99.5,142.1,100.2,143.9,100.9,145.8z
			 M106.9,116.3c-3-1.1-6-2.2-9-3.2c-2.4-0.8-4.9-1.6-7.4-2.3c-3.3,3.3-6.4,6.6-9.9,9.7c-0.2,4.8,0.7,10.7,3.8,14.6
			c3.9,3.2,8.7,4.6,13.6,4.8c4.8-1.9,9.1-6.4,12-10.6C109.1,124.9,107.9,120.6,106.9,116.3z M87.6,97.1c1,4.4,2.2,8.7,3.2,13.1
			c2.5,0.7,4.9,1.5,7.3,2.3c3,1,6,2.1,8.9,3.2c2.5-3.6,6.7-7,10.4-9.3c0.1-5.5-1.2-10.1-3.9-14.8c-3.8-2.9-8.9-4.6-13.6-4.9
			C95.1,89.2,90.8,92.6,87.6,97.1z"/>
	</g>
	<g id="g42">
		<path id="path44" class="st1" d="M89,173.9v-6.7c-0.3,0-0.6,0-0.7,0.1c-0.1,0-0.2,0-0.3,0h-1.3v-1.4c1.7,0,2.4-0.5,2.8-1.5H91v9.5
			H89z"/>
		<path id="path46" class="st1" d="M109.9,173.9v-6.7c-0.3,0-0.6,0-0.7,0.1c-0.1,0-0.2,0-0.3,0h-1.3v-1.4c1.7,0,2.4-0.5,2.8-1.5h1.5
			v9.5H109.9z"/>
		<path id="path48" class="st1" d="M94.9,171.6c0,0.4,0.3,0.9,1,0.9c0.6,0,1-0.4,1-0.7v-1.5c-0.4,0.4-0.9,0.6-1.6,0.6
			c-1.4,0-2.5-0.7-2.5-2.2v-2.1c0-1.5,1.1-2.7,2.9-2.7c1.9,0,3.2,1,3.2,2.7v4.9c0,1.5-1.2,2.5-2.9,2.5c-1.8,0-3.2-0.6-3.2-2.5H94.9z
			 M94.8,166.5v2c0,0.6,0.5,0.9,1.1,0.9c0.4,0,1-0.3,1-0.9v-2c0-0.8-0.6-1-1.1-1C95.4,165.4,94.8,165.8,94.8,166.5z"/>
		<path id="path50" class="st1" d="M104.7,166.5c0-0.4-0.2-0.9-1-0.9c-0.6,0-1,0.4-1,0.7v1.5c0.4-0.4,0.9-0.6,1.6-0.6
			c1.4,0,2.5,0.7,2.5,2.2v2.1c0,1.5-1.1,2.7-2.9,2.7c-1.9,0-3.2-1-3.2-2.7v-4.9c0-1.5,1.2-2.5,2.9-2.5c1.8,0,3.2,0.6,3.2,2.5H104.7z
			 M104.8,171.7v-2c0-0.6-0.5-0.9-1.1-0.9c-0.4,0-1,0.3-1,0.9v2c0,0.8,0.6,1,1.1,1C104.2,172.7,104.8,172.4,104.8,171.7z"/>
		<path id="path52" class="st1" d="M84.8,168.4c0.7,0,1.3,0.6,1.3,1.3c0,0.7-0.6,1.3-1.3,1.3c-0.7,0-1.3-0.6-1.3-1.3
			C83.6,169,84.1,168.4,84.8,168.4z"/>
		<path id="path54" class="st1" d="M115,168.4c0.7,0,1.3,0.6,1.3,1.3c0,0.7-0.6,1.3-1.3,1.3c-0.7,0-1.3-0.6-1.3-1.3
			C113.8,169,114.3,168.4,115,168.4z"/>
	</g>
	<g id="g56">
		<path id="path58" class="st0" d="M89.1,45.2l5.9-0.1l3.4,6.9l3.3-7l5.9-0.1l-5.3,9.1l5.9,9.6l-5.8,0.1l-3.8-7.4l-3.8,7.5l-5.8,0.1
			l5.7-9.7L89.1,45.2z"/>
		<path id="path60" class="st0" d="M120.1,50l-0.8,14.3l-5.1-0.3l0.8-14.3l-4.8-0.3l0.2-4.4l15,0.8l-0.2,4.4L120.1,50z"/>
		<path id="path62" class="st0" d="M133.2,46.9l10.2,1.3l-0.5,4l-8.6-1.1l-0.4,3.5l8.1,1l-0.4,3.4l-8.1-1l-0.5,3.6l8.6,1.1l-0.5,4
			l-9.6-1.2c-2.2-0.3-3.7-1.5-3.3-3.9l1.5-11.9C129.8,48.2,130.8,46.6,133.2,46.9z"/>
		<path id="path64" class="st0" d="M150,49.3l9.4,2.2c0.5,0.1,3.5,0.4,4.4,3.3c0.4,1.1,0.4,2.6-0.1,4.7c-0.7,2.8-1.5,4.3-2.7,5.1
			c-1.9,1.2-4.2,0.4-4.8,0.2l-4.4-1l-1.2,4.9l-5-1.2L150,49.3z M158.9,58.6c0.7-2.8-0.6-3.2-1.7-3.4l-3.1-0.7l-1.3,5.4l3,0.7
			C156.6,60.8,158.3,61.3,158.9,58.6z"/>
		<path id="path66" class="st0" d="M73.3,46.1l3.8-0.3c3-0.2,3.9,1,4.8,3.2l5.9,14.9l-5,0.4L81.5,61l-6.7,0.5l-0.6,3.4L69,65.2
			L73.3,46.1z M80.2,57.6l-3.1-8.5l-1.7,8.8L80.2,57.6z"/>
		<path id="path68" class="st0" d="M36.1,52.2l4.8-0.9l2.8,14.3l6-1.2l-2.8-14.3l4.8-0.9l2.8,14.3l6-1.2L57.6,48l4.8-0.9l3.6,18.2
			l-22.8,4.5c-1.8,0.4-3.7-0.2-4.2-3.1L36.1,52.2z"/>
		<path id="path70" class="st0" d="M25.6,59.9c2,0,3.7,1.6,3.7,3.7c0,2-1.6,3.7-3.7,3.7c-2,0-3.7-1.6-3.7-3.7
			C22,61.6,23.6,59.9,25.6,59.9z"/>
		<path id="path72" class="st0" d="M174.2,59.9c2,0,3.7,1.6,3.7,3.7c0,2-1.6,3.7-3.7,3.7c-2,0-3.7-1.6-3.7-3.7
			C170.5,61.6,172.2,59.9,174.2,59.9z"/>
	</g>
</g>
</svg>
