<?xml version="1.0" encoding="utf-8"?>
<!-- Generator: Adobe Illustrator 21.1.0, SVG Export Plug-In . SVG Version: 6.00 Build 0)  -->
<svg version="1.1" id="Layer_1" xmlns="http://www.w3.org/2000/svg" xmlns:xlink="http://www.w3.org/1999/xlink" x="0px" y="0px"
	 viewBox="0 0 200 200" style="enable-background:new 0 0 200 200;" xml:space="preserve">
<style type="text/css">
	.st0{fill:#FFFFFF;}
	.st1{fill:#FF0000;}
</style>
<g>
	<path d="M9.1,45C14.6,32.4,28,23.4,41.8,24c8.5-0.4,16.9,3,23.2,8.5c0.6,0.7,1.6,0.2,2.3,0.3c15.4-1,31.1,3.2,44,11.8
		c13.5,8.9,23.8,22.5,28.6,38c4.7,14.7,4.4,30.9-0.7,45.5c-0.5,1.4-1.3,2.7-1.6,4.1c-0.1,0.1-0.2,0.3-0.2,0.4
		c-1.2,2.9-2.7,5.7-4.3,8.5c-0.7-0.7-1.2-1.6-0.5-2.6c2.7-5.6,5.6-11.1,8.2-16.8c-4.1-0.4-8.2,0.4-12.2,1.1c3.1,0.5,6.2,1.2,9.3,1.2
		c-3.7,0-7.2,0.8-10.8,1.2c3.2,0.4,6.3,1.3,9.5,1.3c-3.6-0.2-7,0.8-10.5,1.2c3,0.4,5.9,1.1,9,1.3c-3.5-0.2-6.8,0.7-10.2,1.1
		c0.1-2.2-0.7-4.4-2-6.2c-7.5,0.4-15-0.2-22.4,1.2c2,0.3,3.9,0.8,5.9,1.1c4.7,0.3,9.4,0.2,14.1,0.3c-4.7,0-9.4,0.2-14.1,0.2
		c-2.2,0.1-4.3,0.7-6.5,0.8c-0.1,0.1-0.4,0.2-0.5,0.3c2.7,0,5.3,1.1,8,0.8c1.5-0.1,3-0.2,4.4,0.1c4.1,0.2,8.1,0.1,12.2,0.3
		c-4.1-0.2-8.1,0.5-12.2,0.9c3.5,0.7,7.1,1.4,10.7,1.3c-3.7,0-7.3,0.9-11,1.3c3.8,0.4,7.6,1.3,11.5,1.1c-2.4,0.3-4.8,0.1-7.1,0.6
		c-1.6,0.4-3.2,0.5-4.8,0.8c4,0.5,8,1.4,12,1.1c0.2-0.3,0.6-0.8,0.8-1c2.6,0.7,5.3,1.1,8.1,1.3c-3-0.2-5.9,0.2-8.8,0.9
		c0-0.2,0-0.7,0-1c-3,0.2-6,0-9,0.6c-1.6,0.3-3.1,0.5-4.7,0.6c3,0.4,6,1.3,9.1,1.1c0.1,0.2,0.1,0.4,0.2,0.6c-4-1-8,0.6-12.1,0.7
		c2.8,0.4,5.6,0.9,8.4,1.1c-7.7,0.5-15.5-0.3-23.1,1.5c6.7,1.1,13.4,0.8,20.1,0.9c-4.2,0.2-8.5,0.1-12.7,0.2c-2.9,0.1-5.8,1-8.7,1.1
		c2.9,0.3,5.7,1.1,8.7,1.1c2.9,0,5.8-0.1,8.7,0.1c-3.4,0.2-6.8,0-10.1,0.2c-2.8,0-5.5,0.9-8.3,1c2.9,0.4,5.8,1.2,8.7,1.1
		c3.8-0.1,7.6,0.2,11.4-0.3c3.8-0.6,6.9-3.1,9.7-5.6c3.9,0.7,7.8,1.2,11.8,1.1l0.8,0.1l-0.8,0.2c-2.1,0.2-4.2-0.1-6.3,0.4
		c-1.6,0.4-3.2,0.6-4.8,0.8c3.4,0.4,6.7,1.2,10.1,0.9c-2.8,0.5-5.5,1.2-8.4,1.3c2.2,0.3,4.3,0.8,6.4,1.2
		c-13.1,16.9-34,27.6-55.4,27.5c-15.1,0.5-30.3-4.3-42.6-13c-12.7-9-22.4-22.2-27-37.1c-2.1-6.8-3.4-14-3.1-21.1
		C-0.2,93,2.8,81.4,8.1,71.1C5.2,62.8,5.5,53.2,9.1,45L9.1,45z"/>
	<path class="st0" d="M10.4,46.2C15.1,34.4,27,26.1,39.7,25.5c-0.3,1.6-0.8,3.1-1.4,4.6c0.6,0.1,1.2,0.3,1.9,0.4
		c3.4-2.6,7.9-4.2,12.2-3.4c9,2.9,16.5,9.9,20.4,18.6c-0.3,0-0.8-0.1-1.1-0.2c-0.4,2.3-0.9,4.7-2.4,6.6c-1.4,1.9-3.6,3-5.8,3.8
		c0,0.4,0,1,0,1.4c2-0.1,4.3,0,5.9,1.4c2.4,2,2.8,5.4,2.9,8.3c0.8,0.4,1.5,0.8,2.3,1.2c-0.2,0.7-0.4,1.4-0.6,2.1
		c-0.3-0.1-1-0.4-1.3-0.5c-1.4,4.6-3.5,9.2-6.9,12.7c0.2,0.1,0.5,0.4,0.6,0.5c-0.8,0.8-1.6,1.5-2.4,2.2c-0.3-0.1-0.9-0.5-1.2-0.6
		c-3.6,3.2-8.7,5-13.5,3.8C48,88,47,88.6,45.9,88.9c1.3,1.1,2.5,2.3,3.6,3.6c-12.7,3.1-26.9-1.8-34.8-12.3c3.1-0.6,6.3-0.9,9.3-0.2
		c-0.2-0.8-0.5-1.6-1.4-1.7c-5.7-2.1-9.4-7.5-11-13.2c-0.3-0.1-1-0.4-1.3-0.5c0.4,2.9,0.8,5.9,0.3,8.9c-2.7-6.2-3.6-13.3-2.4-20
		c1,2.5,1.4,5.3,1.8,7.9c0.4,0,1.1,0.1,1.4,0.1c-0.1-3.4,0.5-6.9,2.4-9.8c1.3-1.9,3.1-3.5,5-4.7c0-0.6,0-1.1,0-1.7
		C16.1,46.1,13.2,46.6,10.4,46.2L10.4,46.2z"/>
	<path d="M21.8,44.1c5.8-2,10.8-6,14.2-11.1c0.9,0.1,1.8,0.3,2.7,0.4c-0.8,2.7-1.3,5.6-0.7,8.4c0.4,2,1.4,3.9,2.4,5.7
		c-0.5,0.4-1,0.9-1.5,1.3c-4.4-4.4-11.3-4.6-16.9-2.7C21.9,45.4,21.9,44.8,21.8,44.1L21.8,44.1z"/>
	<path class="st0" d="M73.8,48.5c2,5.6,2.2,11.7,1.2,17.6C73.6,60.4,73.1,54.4,73.8,48.5L73.8,48.5z"/>
	<path d="M41.4,51.3c0.5-0.4,0.9-0.7,1.4-1.1c2,1.6,4.1,3.1,6.5,4c3.6,1.4,7.4,1.6,11.2,1.9c0,0.4,0.1,1.2,0.1,1.6
		c-6.3,2-11,7-14.4,12.5c-0.8-0.4-1.6-0.7-2.4-1.1C46,63.3,44.7,56.6,41.4,51.3L41.4,51.3z"/>
	<path d="M37.6,77.5c2-1.3,3.5-3.3,4.8-5.2c0.6,0.3,1.2,0.5,1.8,0.8c-2.6,4.1-2.4,10,1.1,13.5c-0.6,0.3-1.3,0.6-1.9,0.9
		c-4.5-3.5-10-5.2-15.4-6.6c-0.1-0.3-0.2-1-0.2-1.3C31.1,79.8,34.7,79.5,37.6,77.5L37.6,77.5z"/>
	<path class="st0" d="M93.4,85.9c2.2,0.1,4.3-0.7,6.5-0.6c3.7,0,7.4,0,11.2,0c-0.6,1.2-1.2,2.4-1.8,3.6c-5.7-0.2-11.5,0.4-17.1-1.1
		c2.5,0.1,4.9-0.9,7.3-0.8c2.6-0.1,5.2,0,7.8-0.1c-3.6-0.2-7.3,0.2-10.9-0.5c-1-0.2-1.9-0.2-2.9-0.2L93.4,85.9L93.4,85.9z"/>
	<path class="st0" d="M115.1,85.6c2.3-0.5,4.6-0.2,6.9-0.3c-0.4,0.8-0.9,1.7-1.3,2.5c3.1-0.3,6.3-0.9,9.4-0.9
		c-2.8,0.2-5.4-0.7-8.1-1c3.9-0.4,7.9-0.8,11.8-0.6c-3.9,3.1-7.6,6.3-11.5,9.5c0.4,3.8,0.6,7.5,1,11.3c-2.6-0.1-5.2,0.3-7.7-0.4
		c-1-0.2-2-0.2-3-0.3c2.6-0.3,5.1-0.9,7.6-0.9c-2.5-0.1-5-0.7-7.4-1.1c-0.2,0.1-0.6,0.3-0.9,0.4c-0.4,0.8-0.7,1.5-1.1,2.3
		c-3.3,0.3-6.6-0.3-9.9-0.8c2.5-0.1,4.9-1,7.5-0.7c-2.1-0.5-4.3-0.9-6.5-1.1c3.1-0.5,6.2-1,9.4-1c-2.8-0.1-5.6-0.7-8.4-1.1
		c2.7-0.1,5.2-1,7.9-1c-2.3-0.2-4.6-0.6-6.9-0.9c3.5-0.3,6.9-0.9,10.4-1.1c-3.1,0-6.2-0.3-9.2-0.8c3.6-0.1,7.3-1.9,10.9-0.6
		c1.8-0.2,3.6-0.2,5.3-0.6c-5,0.3-9.9,0-14.8-0.7c1.6-0.2,3.2-0.4,4.8-0.8c2.2-0.2,4.4-0.1,6.6,0.1c-2.6-0.8-5.3-0.1-7.8-0.9
		c-1-0.2-2-0.2-3-0.3c3.2-0.5,6.4-1.1,9.6-0.8c-2.2-0.3-4.4-0.3-6.5-1.1c2.2-1.2,4.7-0.9,7.1-0.9c-2.8,0-5.6-0.8-8.4-1.1
		c3.1-0.2,6.1-1.2,9.3-1c-2.8,0.1-5.5-0.8-8.3-1.1c2.9,0,5.7-1.1,8.7-1c-2.5,0.1-4.9-0.7-7.4-0.7c0.1-0.1,0.2-0.3,0.3-0.4
		C112.9,85.9,114.1,85.9,115.1,85.6L115.1,85.6z"/>
	<path d="M120.6,88.1c2.6,0.3,5.2,0.9,7.8,0.9c-2.9,0.2-5.8-0.1-8.6,0.8C120.1,89.3,120.3,88.7,120.6,88.1L120.6,88.1z"/>
	<path class="st0" d="M91.4,89.9c1.7,0.1,3.4-0.3,5-0.7c4.2-0.1,8.5-0.1,12.7,0c-0.3,0.6-0.6,1.2-0.9,1.8c-5-0.2-10,0.6-14.9-0.6
		c-0.7,0-1.3-0.1-1.9-0.1L91.4,89.9L91.4,89.9z"/>
	<path d="M119.5,90.2c1.9,0.5,3.9,0.7,5.9,0.9c-2.1,0.1-4.3,0-6.4,0.2C119.1,91,119.4,90.4,119.5,90.2L119.5,90.2z"/>
	<path class="st0" d="M93.4,91.5c2.4-0.6,4.9-0.4,7.4-0.6c-0.2,0.5-0.7,1.4-1,1.9c2.5,0,4.9,0,7.4,0c-1,1.9-2.1,3.8-3.1,5.8
		c-4.1-0.2-8.2-0.3-12.3-0.2c-1.6-0.4-3.2-0.6-4.8-0.8c4.6-0.7,9.3-1.1,14-1.2c-3.6-0.3-7.3,0.6-10.8-0.5c-0.7-0.1-1.4-0.1-2.1-0.2
		c1.6-0.2,3.2-0.4,4.7-0.8c2.7-0.4,5.4,0.3,8.1,0c-4,0.1-7.9-0.7-11.9-1.1c2.8-0.4,5.6-1.3,8.4-0.9c-2.4-0.1-4.8-1-7.2-0.9v-0.5
		C91.4,91.7,92.4,91.8,93.4,91.5L93.4,91.5z"/>
	<path class="st1" d="M52.8,95.2c9.9-1.9,20.4-3.5,30.1-0.1c-1.3,2.9-2.8,5.6-4.2,8.4c-5.5,0-10.9-0.2-16.4-0.2
		c-4.9-0.3-9.7,0.1-14.6-0.3c-1.7-0.1-3.2-1.1-4.9-1.2c-2-0.1-3.9,0.1-5.9-0.1c0.2-0.2,0.7-0.5,0.9-0.7c2.3-0.4,4.7,0.1,7-0.7
		c1.5-0.5,2.9-1,4.5-1c8.7-0.2,17.4-0.5,26.2-0.8c-6.9-0.2-13.8-0.1-20.7-0.3c-2.4,0-4.5-1.8-7-1.6c-1.3-0.2-2.9,0.3-3.9-0.8
		C46.9,95.7,49.9,95.8,52.8,95.2L52.8,95.2z"/>
	<path d="M115.3,98c2.2,0.8,4.5,0.4,6.7,0.4c-2.3,0.7-4.9-0.1-6.9,1.3c1.8,0.9,3.9,0.6,5.9,0.8c-2.6,0.1-5.2,0.4-7.7,1.2
		c1,0.1,2.1,0.1,3.1,0.4c2,0.5,4,0.2,6,0.4c-1.5,0.1-3,0.1-4.4,0.2c-1.6,0.3-3.4,0.9-5,0.4c-0.4-0.8,0.6-1.7,0.8-2.5l0.2-0.3
		C114.7,99.8,115,98.9,115.3,98L115.3,98z"/>
	<path class="st0" d="M85.8,99.5c3.7-0.3,7.3-1,11-0.9c-1.4,2.5-2.7,5-4.1,7.6c-3.3,0.2-6.6-0.2-9.8-0.8c2.5-0.1,5-1,7.5-0.8
		c-2.2-0.3-4.3-0.8-6.5-1c3.3-0.6,6.6-1.1,10-1c-3.1,0.1-6-0.6-9-1.1c3.1-0.1,6-1.1,9.1-0.9C91.3,100.5,88.6,99.9,85.8,99.5
		L85.8,99.5z"/>
	<path class="st1" d="M45.8,104.3c11-0.2,22-0.5,33-0.7c-0.9,1.8-1.8,3.6-2.7,5.4c-3.7-1.6-7.8-2.5-11.9-1.9c-2,0.3-3.8,1.8-5.9,1.4
		c-5.3-0.4-10.8,0.2-16-0.9c-2.8-1.4-5.9-0.9-8.8-1.1c1.3-1.1,3.2-0.6,4.8-0.8C41,105.9,43.2,104.2,45.8,104.3L45.8,104.3z"/>
	<path class="st1" d="M44.3,109.4c5.3-0.3,10.6-0.4,15.9-0.7c-0.9,1.9,0.7,3.6,2.4,4.2c3,1.1,6.1,2.6,7.9,5.4
		c-7,0.3-14.1-0.1-21.1-0.1c-2.9-0.1-6,0.3-8.8-0.8c-2.6-1.1-5.4-0.7-8.1-0.9c0.1-0.2,0.3-0.5,0.5-0.7c3.3,0.2,6.6-0.2,9.7-1.3
		c5.8-0.8,11.6-0.2,17.4-0.9c-5.2,0-10.4-0.1-15.6-0.3c-2.1,0-4.1-0.9-6.1-1.3c-2-0.3-4.1-0.1-6.2-0.4c1.2-0.9,2.8-0.5,4.2-0.6
		C39.1,111.2,41.5,109.5,44.3,109.4L44.3,109.4z"/>
	<path class="st1" d="M89,111.5c3.7-0.2,7.3,0,11-0.1c-1.1,2.3-2.3,4.6-3.6,6.8c-3.5-0.1-7,0.1-10.5-0.1c-1.9-0.4-3.8-0.7-5.7-1.1
		c1.5-0.1,3.1-0.1,4.6-0.5c2.7-0.7,5.5-0.2,8.2-0.5c-2.5-0.2-5,0-7.5-0.7c-1.3-0.4-2.7-0.4-4.1-0.5c4.9-0.8,9.8-1.3,14.7-1.3
		c-2.5-0.2-5.1,0.1-7.6-0.1c-1.9-0.4-3.8-0.8-5.7-1.1C84.8,112.2,86.9,111.9,89,111.5L89,111.5z"/>
	<path class="st1" d="M48.8,119.3c7.3-0.1,14.6-0.4,22-0.7c0.6,1.2,1.2,2.4,1.6,3.7c0.6,1.7,0.2,3.6,0.4,5.4
		c3.2-0.5,6.4-1.2,9.7-1.1c-3.1,0.2-6-1.1-9.1-1.1c0-0.1,0-0.3,0-0.4c3.4-0.2,6.6-1.2,10-1.1c-3.1,0.1-6.2-0.8-9.3-1.1
		c1.5-0.2,3.1-0.4,4.6-0.7c2.5-0.6,5.2-0.3,7.8-0.4c-2.3,4.6-4.4,9.3-6.8,13.9c-0.7,1.5-1.7,2.9-1.6,4.6c-0.3,0.3-0.6,0.5-1,0.8
		c-3,0.2-5.9-0.1-8.8-0.9c-2.5-0.6-3.6,2.2-5.4,3.4c-5-0.4-10,0.2-15.1-0.1c-6.2-0.2-12.4,0.1-18.6-0.2c-1.7-0.1-3.2-1.2-4.9-1.3
		c-1.9-0.2-3.9-0.1-5.8-0.5c1.2-0.5,2.5-0.4,3.7-0.4c3.3,0.1,6.2-1.7,9.5-1.6c8.5-0.2,16.9-0.3,25.4-0.5c2.2-0.3,4.5-0.3,6.7-0.3
		c-3.2-0.3-6.4,0.2-9.7,0.1c-5.5-0.3-11,0-16.5-0.2c-2.9-0.1-5.8,0.4-8.5-0.7c-2.6-1.2-5.5-0.7-8.2-1.1c1.5-0.7,3.2-0.5,4.7-0.6
		c2.6,0.1,4.9-1.5,7.5-1.6c7.8-0.1,15.6-0.3,23.5-0.5c3.2-0.2,6.4,0.2,9.6-0.5c-3.7,0.3-7.3-0.1-11,0c-1.9,0-3.5-0.8-5.3-1.4
		c-2.1-0.4-4.2-0.1-6.3-0.5c1.4-0.8,3.1-0.4,4.6-0.5c2.8,0,5.2-1.6,8-1.7c4.2-0.2,8.4-0.2,12.6-0.4c-4.7-0.2-9.4-0.2-14.1-0.4
		c-2.4,0-4.5-1.7-7-1.6c-1.5-0.2-3.1,0.3-4.4-0.7c3.4-0.2,6.9-0.1,10.2-1.4c6-0.7,12.1-0.6,18.1-0.8c0-0.1,0-0.2,0-0.3
		c-0.7-0.4-1.6-0.3-2.4-0.4c-7.4-0.2-14.7-0.1-22.1-0.3c-1.7-0.2-3.2-1-4.9-1.3c-2-0.4-4.1-0.1-6.2-0.4c1.3-1,3.1-0.6,4.7-0.7
		C43.6,120.8,46.1,119.3,48.8,119.3L48.8,119.3z"/>
	<path class="st1" d="M92.8,122.2c2.6-0.7,5.4-0.4,8.1-0.4c-1.5,3.3-3.2,6.5-4.8,9.7c-3.8,0.1-7.6-0.9-11.3-1.3
		c3.6-0.5,7.1-1.3,10.7-1.2c-3.1,0-6.1-1.1-9.2-1c0-0.1,0-0.3,0-0.4c1.3,0,2.6,0,3.9-0.4c2.3-0.7,4.8-0.3,7.2-0.6
		c-3.5,0.1-6.9-1-10.4-1.2c3.3-0.5,6.5-1.3,9.9-1.3c-2.8,0-5.5-1.1-8.4-1.2C90,122.7,91.4,122.5,92.8,122.2L92.8,122.2z"/>
	<path class="st1" d="M102,122.6c2.7,0.1,5.2-1,7.9-0.8c2.9,0.1,5.7-0.1,8.6,0.1c1.7,0.1,3.1,0.9,4.4,2c-4.3,0.3-8.6-0.1-12.9,0
		c-2.7,0.2-5.3-0.9-7.9-0.9C102,122.8,102,122.6,102,122.6L102,122.6z"/>
	<path class="st1" d="M128.6,122.9c4-0.7,8.1-1.4,12.2-1.1c-2.6,5.7-5.5,11.2-8.2,16.8c-0.6,0.9-0.2,1.8,0.5,2.6
		c0.9,0.3,1.9,0.5,2.9,0.3c2.8-0.5,5.6-0.1,8.4-0.4c-2.1-0.1-4.2,0.2-6.2-0.5c-1.4-0.5-2.8-0.3-4.2-0.5c3.9-0.7,7.9-1.1,11.8-1.5
		c-3.6,0.4-7-0.6-10.5-1c2-0.1,4-0.4,6-1c2.2-0.1,4.5-0.1,6.7-0.4c-1.3,2.5-2.4,5.1-3.8,7.4c-4.4-0.2-8.7-0.2-13.1-0.1
		c-4,0.2-7.9-0.4-11.8-1.1c-2.8,2.5-5.9,5.1-9.7,5.6c-3.8,0.5-7.6,0.2-11.4,0.3c-3,0.2-5.8-0.7-8.7-1.1c2.8-0.2,5.5-1,8.3-1
		c3.4-0.1,6.8,0,10.1-0.2c-2.9-0.2-5.8-0.1-8.7-0.1c-2.9,0-5.8-0.7-8.7-1.1c2.9-0.1,5.8-1.1,8.7-1.1c4.2-0.1,8.5,0,12.7-0.2
		c-6.7-0.1-13.5,0.2-20.1-0.9c7.6-1.8,15.4-1,23.1-1.5c-2.8-0.2-5.6-0.7-8.4-1.1c4-0.2,8-1.7,12.1-0.7c0-0.2-0.1-0.4-0.2-0.6
		c-3.1,0.2-6-0.6-9.1-1.1c1.6-0.2,3.1-0.3,4.7-0.6c3-0.6,6-0.4,9-0.6c0,0.2,0,0.7,0,1c2.9-0.7,5.9-1.1,8.8-0.9
		c-2.7-0.2-5.4-0.6-8.1-1.3c-0.2,0.3-0.6,0.8-0.8,1c-4.1,0.3-8-0.7-12-1.1c1.6-0.2,3.2-0.4,4.8-0.8c2.4-0.5,4.8-0.3,7.1-0.6
		c-3.9,0.2-7.7-0.7-11.5-1.1c3.7-0.4,7.3-1.3,11-1.3c-3.6,0.1-7.1-0.6-10.7-1.3c4.1-0.4,8.1-1.1,12.2-0.9c-4.1-0.3-8.1-0.2-12.2-0.3
		c-1.5-0.3-3-0.1-4.4-0.1c-2.7,0.2-5.3-0.9-8-0.8c0.1-0.1,0.4-0.2,0.5-0.3c2.2-0.1,4.3-0.7,6.5-0.8c4.7,0,9.4-0.1,14.1-0.2
		c-4.7-0.2-9.4,0-14.1-0.3c-2-0.3-3.9-0.8-5.9-1.1c7.4-1.4,15-0.7,22.4-1.2c1.3,1.8,2.1,3.9,2,6.2c3.4-0.4,6.7-1.3,10.2-1.1
		c-3-0.2-6-0.9-9-1.3c3.5-0.4,6.9-1.4,10.5-1.2c-3.2,0-6.3-0.9-9.5-1.3c3.6-0.5,7.2-1.3,10.8-1.2C134.8,124,131.7,123.3,128.6,122.9
		L128.6,122.9z"/>
	<path class="st1" d="M146.9,122.2c2.6-0.7,5.4-0.4,8-0.5l0.1,0.9c3.5-0.8,7.2-1,10.8-0.9c-0.2,0.7-0.3,1.5-0.5,2.2
		c-1.6,0-3.3-0.1-4.9-0.1c-2,0-3.8-0.8-5.8-0.9c-0.4,0.7-0.7,1.4-1,2.2c2,0,3.9-0.7,5.8-0.9c2,0,4-0.1,5.9-0.2
		c-0.5,1.9-0.9,3.8-1.4,5.7c1.1,0.1,2.3,0.2,3.4-0.2c2.8-0.8,5.8-0.6,8.7-0.5c-2.4-0.3-4.9-0.3-7.2-0.9c-1.2-0.3-2.4-0.3-3.6-0.4
		c3.9-0.8,7.8-1.4,11.8-1.2c-3.4-0.2-6.8-1-10.2-1.2c2-0.5,4.1-0.5,6.1-1.1c2.6-0.1,5.2-0.1,7.8-0.1c-1.8,2.6-3.9,4.9-5.6,7.5
		c-2-0.7-4.1-0.4-6.1-0.6c-1.7-0.4-3.3-0.9-5.1-1c-0.2,0.8-0.4,1.5-0.6,2.3c1.9,0,3.7-0.9,5.6-0.8c2,0,4.1-0.3,6.1,0.2
		c-0.6,0.8-1.2,1.5-1.8,2.3c-1.8-0.2-3.5-0.4-5.3-0.5c-1.6-0.1-3-0.9-4.6-0.7c-0.1,0.3-0.4,0.9-0.6,1.2c-2.5-0.8-5.2-0.2-7.7-1
		c-1.2-0.3-2.5-0.4-3.7-0.6c3.2-0.2,6.4-1.3,9.7-1c-2.9,0-5.6-1.3-8.5-1.1c-0.1-0.1-0.4-0.3-0.6-0.5c1.5,0,3,0,4.5-0.5
		c1.6-0.6,3.3-0.3,5-0.4c-3.1-0.1-6-1-9-1.5c1.5-0.2,3-0.2,4.4-0.6c2.1-0.6,4.3-0.3,6.5-0.4c-3.4-0.1-6.7-1-10.1-1.1
		c-1,2-1.9,4.1-3,6c-3.8,0-7.5-0.9-11.2-1.4c1.4-0.2,2.9-0.3,4.3-0.7c2.5-0.6,5.1-0.3,7.6-0.4c-2.4-0.3-4.9-0.2-7.3-0.9
		c-1.1-0.3-2.2-0.2-3.3-0.2c0-0.1,0-0.3,0-0.5c1.3,0,2.6,0.1,3.8-0.4c2.3-0.8,4.8-0.4,7.2-0.6c-3.5,0.1-6.8-1-10.2-1.2
		c3.5-0.5,6.9-1.2,10.5-1.4c-3.1,0.2-6-1.1-9.2-1.1C144,122.6,145.5,122.6,146.9,122.2L146.9,122.2z"/>
	<path class="st1" d="M173.4,122.2c3-0.8,6.1-0.3,9.1-0.5c-0.6,0.8-1.1,1.5-1.7,2.3c-3-0.1-6,0-8.9-0.9c-1.1-0.1-2.1-0.1-3.2-0.3
		C170.2,122.3,171.8,122.7,173.4,122.2L173.4,122.2z"/>
	<path class="st1" d="M187.9,122.4c3.9-1.1,8-0.4,12-0.6v0.2c-0.1,0.7-0.2,1.4-0.3,2.1c-3.2-0.2-6.4,0-9.6-0.4
		c-1.7-0.4-3.5-0.7-5.3-0.9C185.7,122.6,186.8,122.5,187.9,122.4L187.9,122.4z"/>
	<path d="M72.3,130c0.1-0.7,0.2-1.4,0.3-2.1c2.7,0.2,5.2,1.1,7.9,1.2C77.7,129,75,129.4,72.3,130L72.3,130z"/>
	<path class="st1" d="M102.4,129.5c2.4-0.7,5-0.3,7.4-0.9c0.3,0.2,0.6,0.5,0.9,0.7c-2.2,3.9-3.9,8.1-6.1,12
		c-2.4-0.2-4.8-0.1-7.1-0.7c-1.4-0.4-2.9-0.5-4.4-0.7c3.1-0.3,6.2-1.1,9.3-1.2c-2.7-0.1-5.3-0.9-8-1.2c3.7-0.3,7.3-1.2,11-1
		c-3.4,0.2-6.5-1-9.8-1.5c3.3-0.2,6.5-1.3,9.9-1.3c-2.8,0-5.5-1.1-8.3-1.1v-0.4c1.4,0,2.9,0,4.3-0.4c2-0.6,4.1-0.4,6.1-0.3
		c-3.1-0.2-6.1-1.1-9.2-1.4v-0.3C99.7,129.9,101.1,129.8,102.4,129.5L102.4,129.5z"/>
	<path d="M72.1,131c0.4-0.9,1.5-0.2,2.2-0.1c2,0.6,4,0.6,6.1,0.7c-2.5,0.1-5.1,0.1-7.6,0.5c0,0.5,0,1,0,1.4c1.9,0.1,3.7,0.3,5.6,0.6
		c-2.5-0.1-5.2-0.4-7.5,0.8c1.6,1.6,4.3,1.1,6.5,1.6c-2.9-0.3-5.7,0.2-8.5,0.8c0.9-1.6,1.7-3.2,2.6-4.8c-0.7,0-1.5,0.1-2.2,0.1
		C70.5,132.5,71.6,132.1,72.1,131L72.1,131z"/>
	<path d="M124.8,130.4c3.3-0.1,6.4,1.3,9.7,1.1c-3.1,0.1-6.2,0-9.1,1.2c2.4,0.9,5,1.1,7.6,1.3c-3.1-0.4-6.1,0.2-9,1
		C124.3,133.5,124.7,132,124.8,130.4L124.8,130.4z"/>
	<path class="st1" d="M88.1,132c2.7-0.7,5.4-0.3,8.1-0.4c-0.7,1.5-1.5,2.9-2.3,4.4c-2.4,0.2-4.8,0.4-7.1-0.2c-1.5-0.4-3-0.5-4.5-0.7
		c3.5-0.3,6.9-1.4,10.5-1c-3.1-0.1-6.1-1.2-9.3-1.4C85.1,132.6,86.6,132.4,88.1,132L88.1,132z"/>
	<path class="st1" d="M141.3,132.3c2.9-1,6-0.6,9-0.7c-0.7,1.5-1.4,2.9-2.2,4.4c-2.6,0.2-5.3,0.4-7.8-0.4c-1.2-0.4-2.5-0.3-3.7-0.5
		c3.5-0.3,6.8-1.5,10.3-0.9c-2.1-0.2-4.2-0.4-6.2-1.1c-1.1-0.3-2.4,0.6-3.3-0.3c0.1-0.1,0.2-0.3,0.2-0.4
		C138.9,132.4,140.2,132.7,141.3,132.3L141.3,132.3z"/>
	<path class="st1" d="M150.8,135c3.2-0.2,6.4-1.1,9.6-1c1-0.1,1.9,0.2,2.8,0.6c3.3-0.6,6.6-0.8,9.9-0.4c-1.1,1.5-2.3,3-3.4,4.4
		c-2.7-0.2-5.4,0-8.1-0.3c0.2,0.1,0.5,0.4,0.6,0.6c2.5-0.1,5-0.4,7.5-0.2c-1.2,1.7-2.5,3.3-3.8,4.9c-2.5,0-5-0.2-7.5-0.2
		c-3.1,0.1-6-0.9-9.1-1c1.5-0.3,3.1-0.2,4.6-0.7c2.6-0.7,5.3-0.5,8-0.7c-2.8-0.4-5.6,0.5-8.3-0.5c-1.3-0.3-2.6-0.2-3.9-0.5
		c3.9-0.3,7.8-1.6,11.8-0.9c-2.4-0.6-5-0.3-7.4-1.1c-1.1-0.3-2.3-0.2-3.5-0.3v-0.4c1.8,0,3.6-0.3,5.3-0.7c2-0.3,4.1-0.3,6.1-0.6
		c-2.5,0-5.1,0.4-7.5-0.4C153.3,135.2,152,135.3,150.8,135L150.8,135z"/>
	<path class="st0" d="M162.6,135.3c1.9,0.8,3.8,1,5.8,1c-2.1,0.2-4.1,0.2-6.2,0.5C162.4,136.3,162.5,135.6,162.6,135.3L162.6,135.3z
		"/>
	<path class="st1" d="M86.9,136.6c2.3-0.3,4.7-0.1,7-0.5c-1.2,2.6-2.4,5.1-3.9,7.5c-5.6-0.3-11.1-0.1-16.7-0.2c-2.7,0.2-5.3-0.9-8-1
		c1.5-0.3,3-0.3,4.5-0.6c2.9-0.7,5.9-0.1,8.8-0.8c0.9,0.3,1.7,0.7,2.6,0.5c3-0.5,6.1-0.2,9.1-0.4c-3.6,0.3-7-0.8-10.5-1
		c3.8-0.7,7.7-1,11.6-1.5c-3.5,0.4-6.9-0.5-10.4-1C83.1,137.3,85,137.1,86.9,136.6L86.9,136.6z"/>
	<path d="M67.5,137.4C67.7,137.7,67.7,137.7,67.5,137.4L67.5,137.4z"/>
	<path d="M121.3,137.3c3.2,0.6,6.3,1.7,9.6,1.1c-3.2,0.3-6.3,0.8-9.5,1.4c0.4-0.7,0.8-1.3,1.2-1.9
		C122.4,137.8,121.7,137.5,121.3,137.3L121.3,137.3z"/>
	<path d="M68.7,137.6c2.5,0.7,5.2,1.2,7.8,0.9c-3.2,0.3-6.4,0.9-9.7,1.3C67.4,139.1,68.1,138.4,68.7,137.6L68.7,137.6z"/>
	<path d="M119.6,142.2c0.6-0.7,1.2-1.4,1.7-2.2c3.5,0.6,7.1,1.2,10.7,0.9c-2.7,0.5-5.6,0.1-8.3,0.9
		C122.4,142.2,121,142.2,119.6,142.2L119.6,142.2z"/>
	<path class="st1" d="M191.9,124.6c-3.1,0-6.1,0.9-9.1,1c3.4,0.5,6.8,1.3,10.3,1.4c-2.4,0.3-4.8-0.4-7.2,0.3
		c-1.7,0.5-3.5,0.4-5.2,0.8c2.1,0.3,4.3,0.5,6.4,1c-1.3,0-2.6,0.1-3.9,0.5c-1.4,0.5-3,0.4-4.4,0.7c2.7,0.3,5.3,1.1,7.9,1.2
		c-3.4,0.1-6.7,0.8-10,1.3c2.6-0.1,5.1,1,7.6,1.2c-3.3,0-6.4,0.7-9.7,0.9c3.9,0.6,7.7,1.5,11.7,1.4c0.2-0.3,0.6-0.9,0.8-1.2
		c2.1,0.1,4,1.2,6.2,1c0,0.1,0,0.2,0,0.2c-4.3-0.1-8.5,0.2-12.8,0.1c-2.5,0-4.9,1-7.5,0.8v0.4c2.5,0,4.9,1,7.5,0.8
		c3.5,0.3,7.1-0.3,10.6,0c-4.7,0-9.4,0.5-14.2,0.4c-2.1,0.5-4.2,0.6-6.3,1c1.8,0.1,3.6,0.4,5.3,0.8c6.2,0.2,12.4,0.3,18.6,0.1
		c-3.5,0.2-6.9,1.1-10.4,1.4c1.3,0.2,2.7,0.3,4,0.6c2.1,0.6,4.3,0.3,6.5,0.6c-2.2,0.2-4.5,0-6.7,0.7c-1.4,0.5-2.9,0.2-4.3,0.7
		c1.1,0.2,2.2,0.1,3.2,0.3c2.8,0.9,5.8,0.6,8.7,0.8c-1.5,0.1-3.1,0.2-4.6,0.2c-2.7,0-5.2,0.9-7.8,1c1.3,0.2,2.6,0.1,3.8,0.6
		c2.8,0.9,5.8,0.4,8.7,0.5c1.2-7.9,2.7-15.8,4-23.8C197,124.5,194.4,124.6,191.9,124.6z M187.5,134.9c0.5-0.7,1.1-1.4,1.6-2.1
		c2.2,1.1,4.6,1.1,7,1.3C193.2,134,190.4,134.4,187.5,134.9z M189.4,132.3c0.5-0.5,0.9-1,1.4-1.5c1.8,0.8,3.8,0.6,5.7,0.7
		C194.2,131.6,191.8,131.7,189.4,132.3z"/>
	<path class="st1" d="M168.6,142.5c3.4,0.2,6.6,1.2,10,1c-2.6,0.3-5.2,0-7.7,0.7c-1.4,0.5-2.9,0.2-4.3,0.7c3,0.1,5.9,1.3,8.9,1.2
		c-3.7,0-7.3,0.7-10.9,1.2c1.2,0.3,2.5,0.3,3.7,0.6c2.7,0.8,5.6,0.4,8.4,0.4c1.9-2.5,3.9-4.8,5.8-7.2c-3.6,0.2-7.2,0-10.7,1
		C170.7,142.2,169.6,142.1,168.6,142.5z"/>
	<path class="st1" d="M52.6,144c3.3-0.3,6.6-0.5,9.9-0.2c-4.7,3.3-10.4,5-16.1,5.3c-7.2,0.5-14.6,0.4-21.6-1.7
		c-2.8-0.9-5.8-0.5-8.7-0.8c1.3-1,3.1-0.5,4.7-0.7c2.8,0.1,5.3-1.6,8-1.6C36.7,144.2,44.7,144.1,52.6,144L52.6,144z"/>
	<path class="st1" d="M76.9,143.9c4.4-0.3,8.7-0.4,13.1-0.2c-2.4,3.7-6.9,5-11,5c-3.9,0.3-7.5-1-11.3-1.5c2.8-0.1,5.5-1.1,8.3-1.1
		c2.2-0.1,4.4,0,6.5-0.1c-3.7-0.1-7.4-0.1-11.1-0.2c-1.9-0.4-3.8-0.7-5.7-0.8c1.6-0.2,3.2-0.3,4.8-0.8
		C72.5,143.6,74.7,144,76.9,143.9L76.9,143.9z"/>
	<path class="st1" d="M131.2,143.8c4.3-0.3,8.7-0.2,13-0.1c-3.5,5.2-10.4,5.5-16,4.8c-2.1-0.5-4.3-1-6.4-1.2
		c2.8-0.1,5.6-0.8,8.4-1.3c-3.4,0.3-6.7-0.5-10.1-0.9c1.6-0.2,3.2-0.4,4.8-0.8C127,143.7,129.1,144,131.2,143.8L131.2,143.8z"/>
	<path class="st1" d="M148.8,144.9c3.1-0.1,6-1.2,9.1-1.2c2.7,0,5.3-0.2,8,0c-1.2,1.6-2.5,3-3.6,4.6c-3.5-0.2-7,0.4-10.4-0.5
		c-1.2-0.2-2.4-0.2-3.5-0.5c1.5-0.2,3-0.1,4.5-0.6c2.5-0.7,5.2-0.5,7.8-0.6c-2.7-0.3-5.5,0.2-8.1-0.7
		C151.2,145.1,150,145,148.8,144.9L148.8,144.9z"/>
	<path class="st0" d="M110,150.8c0.6,0,1.2,0,1.7,0c-0.2,0.5-0.4,1-0.6,1.5c-0.5,0-1.1,0-1.6,0C109.7,151.8,109.8,151.3,110,150.8
		L110,150.8z"/>
	<path class="st0" d="M37.5,152.8c0.8,0,1.6,0,2.5,0c-0.2,1.7-0.4,3.5-0.6,5.2c1.2-1.7,2.4-3.5,3.6-5.2c0.8,0,1.7,0,2.5,0
		c-1.1,2.6-2.1,5.2-3.2,7.8c-0.4,0-1.2,0-1.7,0c0.7-1.8,1.5-3.5,2.1-5.3c-1.2,1.7-2.4,3.5-3.5,5.3c-0.4,0-1.2,0-1.6,0
		c0.2-1.9,0.4-3.8,0.6-5.7c-0.6,2-1.4,3.8-2.1,5.7c-0.4,0-1.3,0-1.7,0C35.5,157.9,36.5,155.4,37.5,152.8L37.5,152.8z"/>
	<path class="st0" d="M48.3,153.2c0.5-0.8,1.6-0.3,2.3-0.5c-0.1,2.6-0.3,5.2-0.4,7.8c-0.6,0-1.2,0-1.8,0c0.1-0.3,0.2-1,0.2-1.4
		c-0.9,0-1.8,0-2.8,0c-0.4,0.5-0.7,0.9-1.1,1.4c-0.5,0-1.4,0-1.9,0C44.7,158.1,46.5,155.7,48.3,153.2L48.3,153.2z"/>
	<path class="st0" d="M53.8,152.8c1.7,0.1,3.6-0.4,5.1,0.5c0.8,1.3-0.1,2.9-1.2,3.7c-0.1,1.2-0.3,2.3-0.4,3.5c-0.7,0-1.3,0-2,0
		c0.2-0.9,0.4-1.9,0.6-2.8c-0.7,0-1.5-0.1-2.2-0.1c-0.4,1-0.8,1.9-1.1,2.9c-0.4,0-1.3,0-1.8,0C51.8,157.9,52.8,155.4,53.8,152.8
		L53.8,152.8z"/>
	<path class="st0" d="M61.3,152.8c0.4,0,1.3,0,1.8,0c-1,2.6-2.1,5.2-3.1,7.8c-0.4,0-1.4,0-1.8,0C59.2,157.9,60.3,155.4,61.3,152.8
		L61.3,152.8z"/>
	<path class="st0" d="M66.6,152.8c0.6,0,1.2,0,1.8-0.1c-1,2.2-1.6,4.6-2.8,6.8c-0.9,1.5-2.8,1.4-4.2,0.8c-0.1-1.3,0-3.3,2-2.8
		c-0.1,0.5-0.3,1.4-0.4,1.8c0.3-0.1,0.8-0.3,1.1-0.4C65.1,157,65.7,154.9,66.6,152.8L66.6,152.8z"/>
	<path class="st0" d="M71.5,152.8c0.7,0,1.4,0,2.1-0.1c-0.2,2.6-0.3,5.2-0.5,7.8c-0.6,0-1.1,0-1.7,0c0-0.3,0.1-1.1,0.1-1.4
		c-0.9,0-1.8,0-2.8,0c-0.3,0.5-0.7,0.9-1,1.4c-0.5,0-1.5,0-1.9,0C67.7,157.9,69.7,155.4,71.5,152.8L71.5,152.8z"/>
	<path class="st0" d="M76.7,152.8c0.8,0,1.6,0,2.5,0c-0.2,1.8-0.4,3.5-0.6,5.3c1.1-1.8,2.4-3.5,3.6-5.3c0.8,0,1.7,0,2.5,0
		c-1.1,2.6-2,5.2-3.1,7.7c-0.4,0-1.3,0.1-1.7,0.2c0.7-1.8,1.5-3.5,2.1-5.3c-1.3,1.7-2.3,3.5-3.5,5.2c-0.4,0-1.2,0-1.6,0
		c0.2-1.8,0.4-3.6,0.7-5.4c-0.8,1.8-1.5,3.6-2.2,5.4c-0.4,0-1.3,0-1.7,0C74.7,157.9,75.7,155.4,76.7,152.8L76.7,152.8z"/>
	<path class="st0" d="M86.1,152.8c1.6,0.1,3.8-0.7,4.9,1c0.4,1.3-0.2,2.7-1.2,3.5c-1.1,0.9-2.6,0.6-3.9,0.7c-0.4,0.9-0.7,1.8-1,2.6
		c-0.4,0-1.3,0-1.8,0C84,157.9,85.1,155.4,86.1,152.8L86.1,152.8z"/>
	<path class="st0" d="M94.9,152.8c1.4-0.5,3.5-0.4,4.2,1.2c0.9,3.6-2.7,7.8-6.5,6.6c-1.7-0.4-1.8-2.5-1.3-3.8
		C91.8,155.1,93.1,153.4,94.9,152.8L94.9,152.8z"/>
	<path class="st0" d="M101.6,152.8c0.6,0,1.3,0,1.9,0c-0.8,2.1-1.7,4.3-2.6,6.4c1.2,0,2.4,0,3.6,0c-0.2,0.3-0.5,1-0.6,1.4
		c-1.8,0-3.5,0-5.3,0C99.6,157.9,100.6,155.4,101.6,152.8L101.6,152.8z"/>
	<path class="st0" d="M107.5,152.8c1.8,0,3.5,0,5.3,0c-0.1,0.4-0.4,1.1-0.6,1.5c-1.2,0-2.4,0-3.6,0c-0.1,0.4-0.4,1.1-0.6,1.5
		c1.1,0,2.1,0,3.2,0c-0.1,0.4-0.4,1.1-0.5,1.5c-1.1,0-2.2,0-3.2,0c-0.2,0.6-0.5,1.3-0.7,1.9c1.2,0,2.4,0,3.7,0
		c-0.1,0.3-0.4,1-0.6,1.4c-1.8,0-3.6,0-5.4,0C105.4,157.9,106.5,155.4,107.5,152.8L107.5,152.8z"/>
	<path d="M55,154.2c0.8,0,1.6,0.1,2.5,0.1c-0.2,0.6-0.2,1.3-0.8,1.6c-0.8,0.2-1.6,0.1-2.4,0.2C54.5,155.6,54.8,154.9,55,154.2
		L55,154.2z"/>
	<path d="M86.4,156.6c0.3-0.8,0.6-1.6,0.9-2.4c0.7,0.2,2.4-0.2,2,1C89,156.6,87.5,156.5,86.4,156.6L86.4,156.6z"/>
	<path d="M94.9,154.4c1-0.8,2.9,0,2.5,1.4c-0.4,1.8-1.8,4-3.9,3.5C91.9,157.8,93.4,155.2,94.9,154.4L94.9,154.4z"/>
	<path d="M46.9,157.7c0.7-1,1.4-1.9,2.1-2.9c-0.1,0.9-0.2,1.9-0.3,2.8C48.1,157.6,47.5,157.7,46.9,157.7L46.9,157.7z"/>
	<path d="M69.8,157.7c0.6-1,1.3-1.9,2-2.9c-0.1,0.9-0.1,1.9-0.2,2.8C71.1,157.6,70.5,157.7,69.8,157.7L69.8,157.7z"/>
</g>
</svg>
