<?xml version="1.0" encoding="utf-8"?>
<!-- Generator: Adobe Illustrator 21.1.0, SVG Export Plug-In . SVG Version: 6.00 Build 0)  -->
<svg version="1.1" id="Layer_1" xmlns="http://www.w3.org/2000/svg" xmlns:xlink="http://www.w3.org/1999/xlink" x="0px" y="0px"
	 viewBox="0 0 200 200" style="enable-background:new 0 0 200 200;" xml:space="preserve">
<style type="text/css">
	.st0{clip-path:url(#SVGID_2_);fill:#F8B81C;}
	.st1{fill:#333B74;}
	.st2{clip-path:url(#SVGID_4_);fill:#333B74;}
	.st3{fill:#F8B81C;}
	.st4{fill:#FFFFFF;}
</style>
<g>
	<g>
		<defs>
			<rect id="SVGID_1_" x="11.2" width="177.5" height="200"/>
		</defs>
		<clipPath id="SVGID_2_">
			<use xlink:href="#SVGID_1_"  style="overflow:visible;"/>
		</clipPath>
		<path class="st0" d="M180.9,162l1.6,13.5c0.3,2.2-0.7,3.8-3.1,2.7c-10.9-5.3-22.1-9.1-33.9-12.1l-2.5-0.6l13.5-23.2l1.3,0.2
			c9.8,1.8,19.5,4.4,28.9,7.6c2.3,0.8,2.4,2.3,0.9,4L180.9,162z"/>
		<path class="st0" d="M19,162l-1.6,13.5c-0.3,2.2,0.7,3.8,3.1,2.7c10.9-5.3,22.1-9.1,33.9-12.1l2.5-0.6l-13.5-23.2l-1.3,0.2
			c-9.8,1.8-19.5,4.4-28.9,7.6c-2.3,0.8-2.4,2.3-0.9,4L19,162z"/>
	</g>
	<path class="st1" d="M157.5,144.4c9.9,1.8,19.9,4.5,29.3,7.8l-7.9,9.2l1.8,15.3c-11.9-5.9-23.3-9.6-34.8-12.4L157.5,144.4z"/>
	<g>
		<defs>
			<rect id="SVGID_3_" x="11.2" width="177.5" height="200"/>
		</defs>
		<clipPath id="SVGID_4_">
			<use xlink:href="#SVGID_3_"  style="overflow:visible;"/>
		</clipPath>
		<path class="st2" d="M42.4,144.4c-10,1.8-19.9,4.5-29.3,7.8l7.9,9.2l-1.8,15.3c11.9-5.9,23.3-9.6,34.8-12.4L42.4,144.4z"/>
		<path class="st2" d="M99.1,199.3c-18.9-8.2-33.2-20-45.6-36.3c-0.8-1.1-1.7-2.2-2.5-3.4c-3.2-4.5-6.1-9.4-8.8-14.2
			c-3.4-6.1-6.6-12.4-9.4-18.7c-4.7-10.6-8.8-21.4-10.7-32.9c-1.8-11.4-2.5-21.8-2.2-33.3c0.2-7.6,1-15,1.7-22.6
			c0.4-4.7,0.6-9.4,0.5-14.1l-0.1-2.2l2.2,0c27.2-0.6,50.8-8,74.7-21l1-0.6l1,0.6c5,2.7,10.1,5.3,15.3,7.6
			c19.5,8.7,38.1,12.7,59.4,13.5l2.2,0.1l0,2.2c-0.2,7.3,0.6,14.7,1.3,22c0.8,9.1,1.3,18,1,27.2c-0.4,10.4-1.6,20.1-4.3,30.2
			c-1.6,5.8-3.6,11.5-5.8,17c-5.5,13.8-12.7,27.1-20.9,39.6c-1.5,2.2-3.3,4.2-5,6.3c-12.3,15.1-25.3,25.4-43.3,33.2l-0.9,0.4
			L99.1,199.3z"/>
	</g>
	<path class="st3" d="M24.2,23.8c0.4,12.8-1.9,22.6-2.2,36.8c-0.2,11.6,0.3,20.8,2.2,32.9c1.8,11,5.6,21.3,10.5,32.3
		c4.9,10.9,10.6,21.2,15.3,28.4c-0.7,0.2-1.5,0.5-2.2,0.7c-1.5-2.6-3-5.1-4.5-7.7L26.8,163c-1.2,0.7-1.8,1.7-0.9,3.4L36,185.8
		c0.7,1.4,1.9,2.2,3.4,1.4c9.1-4.7,18.7-8.5,28.5-11.2c8.6,8.4,19,15.6,32.1,21.3c13-5.6,23.1-12.4,32.4-21.4
		c9.8,2.7,19.3,6.5,28.4,11.4c1.2,0.7,2.4,0.7,3.2-0.9l10.1-20c0.7-1.5,0.5-1.9-0.7-3l-16.6-15.9l-4.3,7.3c-0.7-0.3-1.5-0.5-2.2-0.8
		c6.3-10.1,12.6-21.9,17.6-34.4c2.1-5.4,4.2-10.9,5.8-16.8c2.7-10,3.8-19.1,4.2-29.7c0.8-20.6-2.6-34.7-2.3-49.1
		C143.1,22.6,122,14.3,100,2.5C73.7,16.7,50.1,23.2,24.2,23.8L24.2,23.8z"/>
	<path class="st1" d="M147.4,154.9c7.3-11.4,13.8-23.6,18.8-36.2c2.2-5.4,4.1-10.9,5.7-16.6c2.7-9.8,3.8-19.1,4.2-29.2
		c0.3-9-0.2-17.7-1-26.6c-0.6-6.8-1.3-13.7-1.3-20.5C163,25.2,153,24,143.2,21.7v131.9c-14.2-4.2-28.2-6.2-42.2-6.2
		c-14.6,0-29.3,2.3-44.3,6.7V21.7c-9.8,2.3-19.8,3.7-30.4,4c0.1,11.7-2,23.2-2.2,34.9c-0.2,11.2,0.4,21.4,2.2,32.5
		C28,104.3,32,114.7,36.6,125c2.8,6.3,5.9,12.4,9.2,18.4c2.2,4,4.6,8,7.2,11.8c-8.5,2.6-17,6-25.7,9.9L38,185.7
		c20.4-10.6,41.1-15.9,61.3-16c21.6-0.2,42.8,5.3,62.8,16.2l10.3-20.8C164,160.9,155.7,157.5,147.4,154.9L147.4,154.9z"/>
	<path class="st1" d="M92.1,181.9v1.5h-6c0-0.4,0.1-0.8,0.2-1.1c0.1-0.3,0.2-0.5,0.3-0.7c0.1-0.2,0.3-0.5,0.6-0.7
		c0.3-0.3,0.7-0.6,1.3-1.1c0.6-0.5,1-0.8,1.2-0.9c0.2-0.2,0.4-0.4,0.5-0.6c0.1-0.2,0.2-0.5,0.2-0.8c0-0.4-0.1-0.7-0.3-1
		c-0.2-0.2-0.5-0.3-0.9-0.3c-0.5,0-0.8,0.1-0.9,0.4c-0.2,0.3-0.3,0.7-0.3,1.3h-1.7c0-0.7,0.2-1.3,0.4-1.7c0.2-0.4,0.6-0.8,1-1
		c0.4-0.2,1-0.3,1.6-0.3c0.5,0,1,0.1,1.5,0.3c0.5,0.2,0.8,0.6,1.1,1c0.2,0.4,0.4,0.9,0.4,1.4c0,0.4-0.1,0.8-0.2,1.2
		c-0.2,0.3-0.4,0.6-0.6,0.8c-0.2,0.2-0.6,0.5-1.2,0.9c-0.9,0.6-1.5,1-1.6,1.2c-0.1,0.1-0.2,0.2-0.2,0.3H92.1z"/>
	<path class="st1" d="M93.5,179.2c0-0.8,0.1-1.5,0.2-2.1c0.1-0.4,0.2-0.7,0.4-1c0.2-0.3,0.4-0.5,0.6-0.7c0.2-0.2,0.5-0.3,0.8-0.4
		c0.3-0.1,0.7-0.1,1.1-0.1c0.6,0,1.1,0.1,1.5,0.4c0.6,0.4,0.9,0.9,1.1,1.5c0.2,0.6,0.3,1.4,0.3,2.2c0,0.7-0.1,1.3-0.2,1.9
		c-0.1,0.6-0.3,1.1-0.4,1.4c-0.2,0.3-0.4,0.6-0.6,0.8c-0.3,0.2-0.5,0.3-0.9,0.4c-0.3,0.1-0.6,0.1-1,0.1c-0.4,0-0.7,0-1-0.1
		c-0.3-0.1-0.6-0.3-0.8-0.5c-0.2-0.2-0.4-0.5-0.6-0.7c-0.1-0.3-0.2-0.6-0.3-1.1C93.6,180.6,93.5,179.9,93.5,179.2L93.5,179.2z
		 M95.3,179.2c0,0.8,0,1.3,0.1,1.7c0,0.4,0.1,0.6,0.3,0.9c0.1,0.2,0.2,0.3,0.4,0.4c0.2,0.1,0.4,0.1,0.6,0.1c0.2,0,0.5-0.1,0.7-0.3
		c0.2-0.2,0.3-0.4,0.4-0.8c0.1-0.4,0.1-1,0.1-2c0-0.8,0-1.4-0.1-1.7c0-0.3-0.1-0.6-0.3-0.8c-0.1-0.2-0.2-0.3-0.4-0.4
		c-0.2-0.1-0.4-0.1-0.6-0.1c-0.3,0-0.5,0.1-0.7,0.3c-0.2,0.2-0.3,0.4-0.4,0.8C95.3,177.6,95.3,178.3,95.3,179.2L95.3,179.2z"/>
	<path class="st1" d="M101,179.2c0-0.8,0.1-1.5,0.2-2.1c0.1-0.4,0.2-0.7,0.4-1c0.2-0.3,0.4-0.5,0.6-0.7c0.2-0.2,0.5-0.3,0.8-0.4
		c0.3-0.1,0.7-0.1,1.1-0.1c0.6,0,1.1,0.1,1.5,0.4c0.6,0.4,0.9,0.9,1.1,1.5c0.2,0.6,0.3,1.4,0.3,2.2c0,0.7-0.1,1.3-0.2,1.9
		c-0.1,0.6-0.2,1.1-0.4,1.4c-0.2,0.3-0.4,0.6-0.6,0.8c-0.3,0.2-0.5,0.3-0.9,0.4c-0.3,0.1-0.6,0.1-1,0.1c-0.4,0-0.7,0-1-0.1
		c-0.3-0.1-0.6-0.3-0.8-0.5c-0.2-0.2-0.4-0.5-0.6-0.7c-0.1-0.3-0.2-0.6-0.3-1.1C101,180.6,101,179.9,101,179.2L101,179.2z
		 M102.7,179.2c0,0.8,0,1.3,0.1,1.7c0,0.4,0.1,0.6,0.3,0.9c0.1,0.2,0.2,0.3,0.4,0.4c0.2,0.1,0.4,0.1,0.6,0.1c0.2,0,0.5-0.1,0.7-0.3
		c0.2-0.2,0.3-0.4,0.4-0.8c0.1-0.4,0.1-1,0.1-2c0-0.8,0-1.4-0.1-1.7c0-0.3-0.1-0.6-0.3-0.8c-0.1-0.2-0.2-0.3-0.4-0.4
		c-0.2-0.1-0.4-0.1-0.6-0.1c-0.3,0-0.5,0.1-0.7,0.3c-0.2,0.2-0.3,0.4-0.4,0.8C102.8,177.6,102.7,178.3,102.7,179.2L102.7,179.2z"/>
	<path class="st1" d="M108.5,179.7l0.6-4.7h4.8v1.4h-3.6l-0.3,1.8c0.5-0.3,1-0.5,1.5-0.5c0.3,0,0.6,0,0.9,0.1
		c0.3,0.1,0.5,0.2,0.7,0.4c0.2,0.2,0.4,0.3,0.5,0.5c0.1,0.2,0.3,0.4,0.4,0.7c0.1,0.3,0.2,0.6,0.2,1c0,0.6-0.1,1.2-0.4,1.6
		c-0.3,0.5-0.6,0.8-1.1,1.1c-0.5,0.2-1,0.3-1.6,0.3c-0.5,0-0.9-0.1-1.3-0.2c-0.4-0.2-0.7-0.4-0.9-0.6c-0.2-0.2-0.4-0.5-0.5-0.8
		c-0.1-0.2-0.1-0.5-0.2-0.9h1.7c0.1,0.4,0.2,0.7,0.4,0.9c0.2,0.2,0.5,0.3,0.8,0.3c0.4,0,0.7-0.1,0.9-0.4c0.3-0.3,0.4-0.7,0.4-1.2
		c0-0.5-0.1-0.9-0.4-1.2c-0.2-0.2-0.6-0.3-1-0.3c-0.5,0-0.9,0.2-1.1,0.6L108.5,179.7z"/>
	<path class="st1" d="M109.8,96.9c-0.7,0.8-1.4,1.5-2.1,2.6l-0.9,0.1c-0.3,2.3-0.6,4.6-0.7,7.8c0.4,0.3,0.6,0.8,0.6,1.1
		c0,0.4,0,1.3-0.7,1.8c1.3,1.7,2.8,4.4,3.3,7.2c0.8,4.9-1.1,10.5-0.9,13.3c0.4-0.3,1.1,0.3,1.2,0.7c0.3,0.7,0.3,1.8,0.2,2.4
		c-0.1,0.6-0.5,1.2-1.2,1.4c-0.5,0.1-1.1,0.1-1.7-0.2l-0.6,0.2c-0.4,0.6-0.9,0.8-1.6,0.9c-0.5,0-0.9-0.2-0.9-0.6
		c-1.6,0.2-3.7,1.5-5.6,1.4c-2.7-0.1-2.3-1.3-6.3,1c0.8-2.3,1.5-3.1,2.3-3.6c1-0.7,2.7-1.1,3.9-1.4c0.9-0.2,1.7-0.8,2.7-1.7
		c-0.3-1.1,0.5-2,1.8-2.2c1.2-2.9-1-8.4-2.1-14.2c-0.1,0.1-0.2,0.1-0.3,0.2c-0.4-0.6-0.5-0.9-0.5-1.7c-1.2-0.1-2-1-2.3-1.7
		c-0.4-1.1-0.2-2.3,0.6-2.9c-0.6-0.2-1.1-0.9-1.1-2l0,0l-1.4-4.6c-0.5,0.6-1,1.1-1.4,1.6c-0.7,0.8-1.2,1.5-1.5,1.9
		c-0.8,0.8-2.3,1.9-4.7,3.9c0.1,0.4,0.1,0.7,0.1,1c0,0.3-0.3,0.9-0.9,1.2c1.5,1.9,2.2,3.8,2.5,5.9c0.6,3.6-0.1,7.6,0.2,11.4
		c0,0.7,0.2,1.5,0.4,2.2c0.3,0.1,0.6,0.2,0.7,0.6c0.3,0.7,0.1,1.5,0.1,2.2c0,0.6-0.2,1.2-0.8,1.3c-0.8,0.2-1.8,0.1-2.3,0.1
		c0,0.5-1.7,0.7-1.9,0.1c-1.6,0.2-4.3,1.3-6.1,1.3c-2.7-0.1-5.1-1.4-7.9-1.7c1.2-0.6,2.5-1.2,3.5-1.3l0.2,0c0,0,0-0.1,0-0.1
		L65.5,72.6c-0.6-0.2-1.1-0.6-1.4-1.1c-0.6-1-1.2-3-1-4.7c0.1-0.8,0.6-1.3,1.5-1.6c-0.1-0.2-0.1-0.4-0.1-0.7
		c-0.4-0.2-0.6-0.4-0.7-0.8l-0.4-2.9c-0.3-0.2-0.3-0.6-0.3-1l-0.8-5.2c-2-1.1-1.9-4.2-1.8-5.2l0.9-9.5l4.3,8.7
		c1.3,2.6,0.8,4.1,0.3,5.2l0.7,5.4c0,0.2,0.1,0.6,0,0.8l0.5,3.1c0,0.1,0,0.2,0,0.3c0.2,0,0.4,0,0.7,0.1c0.5,0.2,1.3,0.6,1.6,1
		c0.5,0.7,0.9,1.4,0.9,2.3c0,1.3,1.7,2,3.5,0.4c0.4-0.4,2.1,0.6,1.7,1.1l-2.2,2.7c1,0.2,1.9,0.7,3.1,1.3c0.1-0.1,0.2-0.1,0.4-0.2
		c0.6-0.2,1.3-0.1,1.7,0.3l1.9-2.4c-0.1,0-0.3,0-0.4,0c-0.8,0-0.8-0.7-0.6-1.1c0.1-0.5,1.4-0.8,1.3-1.5c-0.2-2.8,0.7-6.4,4.9-7.5
		l-0.1,0c-0.2-1,1.9-0.5,3.5-1.4c1.5-0.8,3.2-3.3,3.9-5.3c-0.7,0.1-1.5-0.4-1.2-1.4c0.4-1.2,1.2-3.6,1.4-6.1c-0.8-0.5-0.6-1.6,0-2.1
		c0.4-0.3,0.8-0.4,1.3-0.4c0.5,0,1,0.3,1,1.1c1.2-1,2.7-2.5,4.1-3.5c0.8-0.6,0.8-0.5,1.4,0.1c1.3,1.3,3,2.9,4.7,4.9
		c0.5,0.7,0.9,0.9,0.7,4.1c0.8,0.2,0.8,2.2,0.1,2.6c0.2,1.5,0.7,2.6,1.3,3.5c0.7,1,1.9,1.7,3,2.3c0.1,0.1,0.2,0.3,0.3,0.5
		c1.9-0.1,3.5,0.5,5.4,2.4c0.2,0.2,1,0.2,1.3,0.2c0.4,0,0.7,0.3,0.9,0.6c0.1,0.3,0,0.7-0.1,1l-0.1,0.1l1.7,1.3
		c0.2-0.2,0.4-0.4,0.6-0.6c0.1-0.1,0.7-0.3,0.9,0.1l0.8,1.5c1.5-0.1,2.8,0.5,3.6,1.6c0.6,0.9,0.9,2.6,0,3.9c0.4,0.3,0.6,0.6,0.8,1
		c0.2,0.3,0.1,0.5-0.1,0.7c-0.2,0.1-0.4,0.3-0.7,0.4l-0.1,6.1c0.8,0,1.7,0.1,2.5,0.2c1,0.1,1.2,1.4,0.4,1.9
		c-0.9,0.5-1.4,0.9-1.9,1.5c-0.7,0.9-0.3,3.3-1.1,4.6h13.1v21.2c0,13.8-7.9,22.1-14.8,25.7c-9.9-5.1-14.7-15.6-14.7-25.1L109.8,96.9
		z M79.6,133.2L79.6,133.2c1.4-0.4,2.3-0.8,3.2-1.7c-0.3-1.1,0.6-1.7,1.7-2.2c-1-5.1-2.4-10.4-4-15.4c-0.3,0.1-0.7,0.1-1,0.2
		c-0.1-0.8-0.2-1.4,0.1-2.2C78.3,111,78,110,78,109c0-1.1,0.8-2.4,2.3-2.8l-0.1-2.3c0.4,0.3,0.7,0.6,1.2,0.8
		c0.9-2.1,1.9-3.9,3.3-5.8c-0.3-0.3-0.5-0.5-0.6-0.8c-0.5-0.8-0.6-1.7-0.4-2.6c1.1-3.7,3.3-10.6,5.6-13.2c-1.4-2.4-3-5.7-3-7
		c0-0.2,0-0.3,0-0.5l-2.1,2.5c0.2,0.4,0.4,0.9,0.4,1.3L82.6,79c-0.4,2.1-1.9,3-3.3,3.2c-1.3,0.1-2.8-0.4-3.3-1.8l-2,0.2
		c-0.1-0.2-0.1-0.8,0-1.5l-4-3.4l-0.4,0.5l9.9,56.8C79.6,133,79.6,133.1,79.6,133.2L79.6,133.2z M112.7,67.3
		c-0.6,0.1-1.2,0.2-1.8,0.2c-0.4,0.2-0.8,0.5-1.1,0.7c0,1.3,0,2.3-0.3,2.7c-2.7,3.2-4.7,7.5-6.3,11c1.8,2.1,3.2,4.1,3.7,4.8
		c0.9,1.3,2.1,3.9,3,5.9l0-5h6.6c0-0.3,0.1-0.5,0.1-0.8c0.2-0.5,1.5-1.5,3.3-2c-0.2-1.8-0.6-3.6-1.1-5.4l1.4-0.1
		c-0.2-2.1-0.6-3.8-1.1-5.7c-0.6,0.2-1.4,0-1.9-0.5c-0.7-0.6-0.8-1.8-0.2-2.5l-4.3-2.8L112.7,67.3z"/>
	<path class="st4" d="M110.9,88.7l-0.1,20.7c0,9.7,5,19.1,13.6,23.8c8.9-5,13.7-14.3,13.7-24.4V88.7h-15.4c0,0.5-0.1,1.1-0.2,1.6
		c-0.2,0.6-0.7,0.8-1.1,0.6c-0.3,0.4-0.9,0.6-1.4,0.3c-0.5,0.6-1.6,0.4-1.7-0.3c-0.4,0.7-1.5,0.2-1.7-0.5c-0.1-0.4-0.2-1.1-0.3-1.8
		H110.9z M116.2,96.2h2.1v23.1h2.2V97.7h2.9v-4.1h2.1v4.1h2.9v21.6h2.2V96.2h2.1l0,25.1h-16.4L116.2,96.2z M122.6,119.3h3.8V99.8
		h-3.8V119.3z"/>
	<path class="st4" d="M86.8,60.6c-3.6,0.7-5.5,3.4-5.2,7c0.1,1.1-1,1.3-1.3,1.7c0,0.1,0,0.2,0,0.2c0,0,0.1,0,0.1,0
		c3.5,0.2,7.3-1.3,9.3-4.8c-1.4-1-1.3-2.5-2.2-3.7C87.2,61,87,60.8,86.8,60.6L86.8,60.6z"/>
	<path class="st4" d="M105.4,65.1c1.6,1.3,3.8,1.8,5.6,1.8c2.7-0.1,5.3-1.5,7.2-4.1c0.1-0.1,0.1-0.3,0.1-0.4c0-0.1-0.2-0.2-0.3-0.2
		c-0.6,0-1.4,0-1.8-0.4c-1.9-1.9-3.7-2.5-5.9-2.1c-1.3,1.2-1.8,4.6-3.7,5.1C106.3,65,105.7,65.1,105.4,65.1L105.4,65.1z"/>
	<path class="st4" d="M104.8,65.2c-2.2,0.4-5.3,0.7-8.2,0.7c-1.1,0-2.1,0-3.1-0.1c-1.4,3-2.8,6.4-2.8,9.6c0,1.9,1.5,4.6,2.8,6.7
		l9.1-0.3c1.7-3.8,3.7-8,6.5-11.2c0.1-0.2,0.2-1.4,0.2-2c-0.1,0.2-0.5,0.6-0.6,0.7c-0.8,1-2.5,1.7-3.5,1c-1.1-0.7-1-2.8,0.1-4.6
		L104.8,65.2z M93,65.8c-0.8-0.1-1.6-0.2-2.2-0.4c-0.2-0.1-0.4-0.1-0.6-0.2c-0.9,1.1-2,2.9-2.3,3.8c-0.7,2.1-0.9,4.3-0.9,6.4
		c0,1.3,2.1,5.2,3.1,6.9l3-0.1c-1.2-2.1-2.7-4.8-2.7-6.7C90.3,72.2,91.6,68.7,93,65.8L93,65.8z"/>
	<path class="st4" d="M105.6,65.9c-0.6,1.1-1.3,3.2-0.2,3.9c0.9,0.6,2.3-0.2,2.8-0.9c0.4-0.6,1-1,1.6-1.5
		C108.4,67.3,106.9,66.8,105.6,65.9L105.6,65.9z"/>
	<path class="st4" d="M95,100.9c5.5-0.8,10.8-2.8,15.2-5.7c-0.4-1-0.9-2.2-1.4-3.4c-3.6,2.8-9.7,4-14.5,3.9
		C94.7,97.4,94.8,99.3,95,100.9L95,100.9z M108.6,91.4c-0.5-1.1-1-2.1-1.5-3.1c-3.6,1.7-8,2.6-12,2.6c-3.2,0-5.9-0.3-8.6-2
		c-0.5,1.3-1,2.7-1.4,3.9c0.9,0.6,1.9,1.1,2.9,1.5c0.6-1.6,1.6-2.7,3-2.6c1.7,0.1,2.6,1.7,3.1,3.6C98.9,95.4,105.1,94.2,108.6,91.4
		L108.6,91.4z M85,93.3c-0.3,0.9-0.5,1.7-0.7,2.3c-0.2,0.7-0.1,1.4,0.3,2.1c0.4,0.7,1.3,1.6,2.1,2.1c0.3-1.3,0.6-3.4,1.3-5.1
		C86.9,94.4,85.9,93.9,85,93.3L85,93.3z M106.8,87.9c-0.2-0.3-0.4-0.6-0.5-0.9c-1.1-1.7-2.4-3.4-3.7-4.9l-12.7,0.4
		c-1.1,1.2-2.2,3.5-3.2,5.9c2.7,1.7,5.3,1.9,8.4,1.9C98.9,90.5,103.4,89.7,106.8,87.9L106.8,87.9z"/>
	<path class="st4" d="M78.8,73.6c-0.2-0.6-1-0.8-1.5-0.6c-0.6,0.2-0.9,0.8-0.7,1.4c0.1,0.2,0.4,0.6,0.6,0.7c0.6,0.4,0.6,1.2,0.3,1.7
		c-0.4-0.1-0.1-0.8-0.5-0.7c-1.6,1-2.2,2.1-2.2,3.7l1.6-0.2c-0.1-0.3,0-0.9,0.3-1.3c0.2-0.3,0.2-0.1,0.2,0.1c-0.2,0.5-0.1,1.2,0,1.6
		c0.4,1.1,1.5,1.5,2.6,1.4c1.5-0.1,2.4-1.2,2.7-2.6c-0.1-0.4-0.2-0.9-0.4-1.4c-0.2-0.4,0.6,0,0.9,0.9l1.4-0.2
		c-0.6-1.8-2.5-3-4.6-2.9c0.1,0.5,0.5,0.6,0.4,0.8c-0.6,0.2-0.9-0.3-1-0.6C78.5,74.8,78.9,74.5,78.8,73.6L78.8,73.6z"/>
	<path class="st4" d="M81.6,70.1l-2.5,3.3c0,0.1,0.1,0.1,0.1,0.2c0.2,0.6-0.2,1.2-0.2,1.4c1.1-0.1,2.2,0.1,3.2,0.6L87,70
		c0.2-0.9,0.5-1.6,1-2.3c-1.7,1.3-3.8,2.1-6.2,2.3L81.6,70.1z M82.6,75.8c0.4,0.3,0.8,0.6,1.1,1l2.7-3.2c0.1-0.9,0.2-1.8,0.3-2.7
		L82.6,75.8z"/>
	<path class="st4" d="M76.3,73c-1.1-0.5-2.3-1-3.5-1.2l-1.3,1.6l4,3.1c0.4-0.3,0.8-0.6,1.3-0.8c0-0.4-0.4-0.6-0.5-0.9
		C75.9,74.3,76,73.5,76.3,73L76.3,73z M71.3,73.7l-1,1.2l4,3.4c0.2-0.6,0.6-1.1,1-1.5L71.3,73.7z"/>
	<path class="st4" d="M65.1,64.8c0,0.7,0.6,1.1,1.2,1.2c0.3,0,0.5-0.1,0.7-0.2c-0.2,1.5,0.3,3.1,2.1,2.6l0,0.3l-1,0.2l1.1,6.5
		l5.8-6.9c-0.2-0.1-0.5-0.3-0.7-0.3c-1.2,1-3.2,1.6-4.2,0.1c-0.2-0.3-0.3-0.7-0.3-1.1c0-0.7-0.3-1.3-0.8-1.9
		c-0.2-0.3-0.8-0.7-1.2-0.8c-0.3-0.1-0.6-0.2-0.9,0c-0.7,0.3-1.1,0.3-1.7,0.3C65.2,64.6,65.1,64.5,65.1,64.8L65.1,64.8z"/>
	<path class="st4" d="M65.7,72c0.4,0.1,0.1-0.9,0.2-1.4c0.3-0.3,0.6-0.4,0.9-0.6c0.3-0.2,0.2-0.7,0-0.8c-0.7-0.1-1,0.2-1.5,0.5
		c-0.2,0.1-0.3-0.1-0.1-0.2c0.6-0.5,1-0.5,1.5-0.6c0.4,0,0.3-0.8,0-0.8c-0.7-0.1-1,0-1.7,0.4c-0.1,0-0.2-0.1,0-0.3
		c0.6-0.4,1.1-0.5,1.4-0.4c0.4,0,0.5-0.7,0-0.8c-0.2,0-0.9-0.2-1.5,0.3c-0.2,0.2-0.2-0.1,0-0.3c0.5-0.4,1.2-0.3,1.5-0.3
		c0.1,0-0.1-0.5-0.3-0.6c-0.7-0.4-1.6-0.2-2,0.3c-0.1,0.1-0.2,0.3-0.2,0.6c-0.2,1.3,0.2,3.2,0.9,4.3C64.9,71.6,65.3,71.9,65.7,72
		L65.7,72z"/>
	<path class="st4" d="M66.2,72.5l10.5,60.7c0.2,1.1,2.4,0.7,2.2-0.3L67.7,68.7c-0.2-0.1-0.3-0.3-0.4-0.4c0.2,0.4,0,0.6-0.1,0.7
		c0.4,0.2,0.3,0.8-0.1,1.2c-0.2,0.2-0.5,0.3-0.7,0.6C66.3,71.1,66.5,72,66.2,72.5L66.2,72.5z"/>
	<path class="st4" d="M66.3,59.7c0-0.1,0-0.2,0-0.3l-0.8-5.6l0,0c-0.5-0.6-0.9-1.2-1.3-2.2c-0.5-1.2-0.8-2.3-1.1-3.4
		c0.1,1.7,0.2,3.4,0,5.1c-0.1,0.5-0.1,1-0.1,1.6l0.8,5c0,0,0,0.2,0,0.3C64.7,60.1,65.5,60,66.3,59.7L66.3,59.7z M65.7,53.3
		c0.6-1.5,0.3-2.8-0.4-4.3L62,42.4l-0.7,7.2c-0.1,1.4,0,3.7,1.4,4.5c0-0.3,0-0.6,0.1-0.9c0.2-1.9,0.1-3.8-0.1-5.7
		c0-0.3,0.6-0.5,0.7-0.1c0.4,1.4,0.7,2.7,1.3,4.1C65,52.2,65.3,52.8,65.7,53.3L65.7,53.3z M64.1,60.5L64.1,60.5l0.4,3.2
		c0.1,0.7,2.3,0.6,2.2-0.4l-0.5-3.2C65.6,60.4,64.8,60.5,64.1,60.5L64.1,60.5z"/>
	<path class="st4" d="M126.5,72.5c0-0.4-0.3-0.7-0.8-1c-0.7,0.4-1.9,0.6-2.9,0.5l0-0.3c0.8,0,1.6-0.1,2.2-0.3c0.5-0.3,0.9-0.5,1-1.1
		c0.3-0.8,0.1-1.8-0.3-2.5c-0.5-0.7-1.1-1-1.8-1.2c-0.9-0.2-1.4-0.1-2.1,0.4c-0.4,0.4-0.8,0.8-1,1.2l0-0.3c0.2-0.6,0.6-1.2,1.4-1.7
		l-0.6-1.2c-0.2-0.3-0.1-0.3-0.5,0c-1.5,1.3-1.7,3-1.6,4.9c0,0.6-0.3,0.9-0.5,1c-0.4,0.1-0.8-0.2-1.3,0.3c-0.5,0.4-0.2,1.4,0.1,1.7
		c0.4,0.3,0.9,0.5,1.5,0.3c0.3-0.1,0.4-0.6,0.6-0.7c0.3-0.3,0.6-0.3,1.2,0C122.6,73.3,124.6,73.6,126.5,72.5L126.5,72.5z"/>
	<path class="st4" d="M113.4,67.6l4.3,2.8c0.3-0.1,0.6-0.1,0.8,0c0.3,0,0.5-0.2,0.5-0.5c-0.1-1-0.1-2,0.3-3.1l-2.5-1.7
		c-1,0.9-2.2,1.5-3.4,1.8L113.4,67.6z M119.4,66.4c0.2-0.4,0.4-0.7,0.6-1.1l-2-1.5c-0.3,0.4-0.6,0.7-1,1.1L119.4,66.4z"/>
	<path class="st4" d="M119.8,73.3c0.6,2.1,1,4.2,1.2,6.4c1,0,2,0,3,0l0-5.9c-1.2,0-2.4-0.5-3.5-1.1C119.9,72.3,120,72.9,119.8,73.3
		L119.8,73.3z M124.3,79.7c0.4,0,0.8,0,1.2,0l0.1-6.2c-0.4,0.1-0.9,0.2-1.3,0.2L124.3,79.7z"/>
	<path class="st4" d="M118.7,90.5c0.1,0.6,0.8,0.8,1.2,0.3c-0.1-0.2-0.3-0.5-0.3-0.8l0-2.2c0-0.4,0.3-0.3,0.4,0l0,2.1
		c0,0.7,0.4,0.9,0.8,0.9c0.2,0,0.4-0.1,0.5-0.3c-0.2-0.3-0.3-0.5-0.3-0.9l0-1.8c0-0.4,0.3-0.3,0.3-0.1c0,0.7,0,1.4,0,2
		c0,0.6,0.4,1,0.7,0.6c0.3-0.5,0.2-1.3,0.3-1.8c0.1-0.7,0.3-0.9,1-0.8c0.3,0,1.7,0.2,2,0c1.2-0.7,0.6-3.8,1.5-5.1
		c0.6-0.7,1.3-1.2,2.1-1.6c0.3-0.2,0.2-0.6-0.1-0.7c-2.9-0.3-6-0.2-9-0.1c0.4,1.5,0.7,3.4,0.9,4.9c1.1-0.1,2.4,0.1,3.4,0.4l-0.2,0.4
		c-1.3-0.3-3.1-0.5-4.1-0.3c-0.8,0.3-2.3,1-2.6,1.5c-0.3,0.7,0.1,2.5,0.3,3.2c0.2,0.5,0.9,0.5,0.9,0.1c-0.1-0.9-0.2-1.6-0.3-2.7
		c0-0.4,0.3-0.3,0.3,0.1C118.5,88.5,118.5,89.5,118.7,90.5L118.7,90.5z"/>
	<path class="st4" d="M84.4,105.9c-1.1,0-2.5-0.2-3.5-0.7l0,1.1c0.8,0.2,1.1,0.3,1.3,0.7c-1-0.2-1.9-0.3-2.7,0.4
		c-0.5,0.4-0.8,1-0.8,1.6c0,0.8,0.3,1.4,0.8,1.9c0.6,0.6,1.3,0.7,2,0.7c-0.3,0.4-0.8,0.3-1.1,0.5c-0.2,0.4-0.2,1-0.2,1.4
		c1-0.2,1.9-0.3,3.2-0.4c0-0.4,0.3-1.1,0.4-1.5c-1.4-0.3,1-1,1.4-1c0.1,0.4,0.7,0.7,1.1,0.8c0.6,0.1,1.2-0.5,1.3-1.1
		c0.1-0.6-0.2-1.4-0.9-1.5c-0.7-0.1-1.1,0.2-1.6,0.7l-0.4-0.4c-0.7-1-1.2-1.5-0.3-1.5C84.4,107,84.4,106.4,84.4,105.9L84.4,105.9z"
		/>
	<path class="st4" d="M87.7,108.9c0.7-0.6,1.4-1.2,2.1-1.7c0.8-0.7,1.7-1.4,2.5-2.1c0.5-0.5,1-1.3,1.5-1.8c0.6-0.6,1.1-1.3,1.7-1.9
		c-0.3,0-0.6,0.1-0.9,0.1c-0.1-0.7-0.2-1.5-0.3-2.3c-1.8,2.1-4,3.8-5.9,5.9c-0.7,0.7-1.6,2.1-2.2,3.3c0.1,0,0.3,0,0.4,0
		C87.2,108.4,87.5,108.6,87.7,108.9L87.7,108.9z M94.1,97.9c-0.4-3-1.1-5.6-3.1-5.7c-1.7-0.1-2.6,2.1-3.1,4.6
		C89.7,98,92,98.4,94.1,97.9L94.1,97.9z M87.8,97.3c-0.3,1.2-0.5,2.4-0.7,3.5c-0.6-0.3-1.3-0.8-1.9-1.4c-1.2,1.8-2.3,3.6-3.1,5.6
		c0.9,0.3,1.8,0.5,3,0.4c-0.1,1.1-0.5,2.9,0,3.4c0.2-0.2,0.4-0.3,0.7-0.4c0.6-1.2,1.7-2.8,2.4-3.6c2-2.2,4.1-4.1,6-6.3
		C91.9,98.8,89.7,98.5,87.8,97.3L87.8,97.3z"/>
	<path class="st4" d="M74.4,134.7c1.9,0.5,3.9,1.2,5.8,1.3c1.9,0.1,4.1-1,6-1.3l0.2,0c-0.2-1.7-0.9-3-2.9-3.1
		c-0.1,0.2-0.3,0.4-0.5,0.6c-0.9,0.8-1.9,1.2-3.2,1.6c-1.3,0.4-2.6,0.3-3.9,0.4C75.5,134.3,75,134.5,74.4,134.7L74.4,134.7z
		 M86.9,134.7c0,0.1,0,0.3,0.1,0.4c0.1,0.1,0.5,0.1,0.7,0c0.1-0.1,0.2-0.3,0.2-0.4c0.1-0.6,0.1-1.5-0.1-2.2
		c-0.4-1.3-1.5-2.2-3.1-2.5c-0.5,0.2-1.3,0.7-1.3,1.2C85.8,131.2,86.6,132.7,86.9,134.7L86.9,134.7z M88.3,134.6L88.3,134.6
		c0.7,0,1.3,0.1,2,0c0.2-0.1,0.3-0.5,0.3-0.7c0-0.5,0.1-1.3,0-1.8c-0.1-0.3-0.3-0.6-0.5-0.2c-0.1,0.3-0.1,0.8-0.5,1
		c-0.3,0.2-0.8,0.1-1.3,0.1C88.5,133.6,88.4,134.1,88.3,134.6L88.3,134.6z M88.3,132.6c0.3,0,0.9,0.1,1.1,0c0.2-0.2,0.2-0.7,0.5-1.1
		l-0.1-0.2c-0.3-0.7-0.4-1.6-0.5-2.3c-0.3-3.7,0.4-7.6-0.2-11.3c-0.4-2.3-1.2-4.1-2.5-5.8c-0.1,0-0.3,0-0.4,0
		c-0.4-0.1-0.9-0.3-1.1-0.6c-0.9,0.1-1.1,0.6-1.2,1.3c1.6,0.4,2.7,4.2,3.1,5.6c0.4,1.7,0.6,3.7,0.8,5.5c0.3,2.7,0.5,5.3,1,8l0,0.2
		l-0.6,0.2C88.2,132.2,88.3,132.4,88.3,132.6L88.3,132.6z M87.9,131.6l0.3-0.1c-0.6-3.7-0.8-7.3-1.4-10.9c-0.1-0.7-0.3-1.5-0.4-2.2
		c-0.3-1.1-1.3-4.8-2.6-5.2c0,0.2-0.1,0.3-0.1,0.5c-0.8,0.1-1.7,0.1-2.5,0.2c1.6,5.1,3,10.2,4,15.4l0.1,0.4
		C86.5,129.9,87.4,130.6,87.9,131.6L87.9,131.6z"/>
	<path class="st4" d="M100.6,114.2c0.6-0.3,1.4-0.5,2.1-0.7c-0.2-1.6,0.1-3.2,1.5-3.7c0.3,0.1,0.6,0.3,1.1,0.2
		c0.6-0.1,0.8-0.8,0.7-1.4c-0.1-0.5-0.6-0.9-1.1-0.9c-0.5,0.1-0.7,0.3-0.9,0.8c-0.8,0.2-1.2,0.1-2.2,0.1l-1-1.9
		c-0.9,0.4-2.1,0.6-3.1,0.5c0.1,0.4,0.6,0.9,0.9,1c0.6-0.2,1-0.3,1.5-0.2l0.1,0.4c-0.8-0.1-1.5,0.3-2,1c-0.3,0.5-0.4,1.1-0.1,1.9
		c0.2,0.6,0.6,0.9,1.1,1.1c0.8,0.3,1.6,0.2,2.3-0.1l0,0.3c-0.3,0.2-0.7,0.4-1.2,0.5C100.4,113.6,100.6,114,100.6,114.2L100.6,114.2z
		"/>
	<path class="st4" d="M93.3,136.4c0.9-0.4,1.8-0.7,2.7-0.6c0.8,0.1,1.4,0.3,2.3,0.4c1.7,0.1,3.7-1.2,5.5-1.4l0.4,0
		c0-1.8-0.5-3.5-2.6-3.4l-0.2,0.2c-0.8,0.8-1.8,1.6-3,1.9c-1.1,0.3-2.8,0.6-3.7,1.3C94.1,135.2,93.7,135.8,93.3,136.4L93.3,136.4z
		 M104.5,135.3c1,0.3,1.2-0.4,1.3-1.1c0.1-1,0-2.3-0.5-3.2c-0.4-0.7-1.1-1.3-2.2-1.4c-0.3,0-0.7,0.1-1,0.2c-0.5,0.3-0.7,0.5-0.6,1.1
		c2.4-0.2,3,1.8,3,3.8C104.6,134.9,104.6,135.1,104.5,135.3L104.5,135.3z M106.3,134.5c0.3,0,0.6-0.4,0.9-0.1
		c0.4,0.2,0.8,0.3,1.2,0.2c0.4-0.1,0.7-0.4,0.8-0.8c0.1-0.5,0.1-1.6-0.1-2.1c-0.4-0.9-0.9-0.1-1.2,0.3c-0.1,0.1-0.2,0.2-0.4,0.3
		c-0.4,0.2-0.8,0-1.2-0.1C106.4,132.9,106.4,133.7,106.3,134.5L106.3,134.5z M106,131.5l0.2,0c0.4-4.3,0.9-9.2,0.2-13.4
		c-0.4-2.3-1.3-5.1-3.1-6.9c-0.4,0.8-0.2,1.9,0,2.7c-0.5,0.1-1.3,0.3-2,0.6l0,0c0.5,2.8,1.3,5.6,1.9,8.4c0.4,1.9,0.9,4.5,0.2,6.4
		C104.8,129.4,105.6,130.3,106,131.5L106,131.5z M106.6,131.8c0.3,0.1,0.5,0.2,0.6,0.1c0.2-0.1,0.4-0.3,0.6-0.5l0-0.6
		c-0.1-1.5,0.3-3.3,0.5-4.7c0.3-1.9,0.6-3.9,0.6-5.8c0-0.9-0.1-1.8-0.2-2.7c-0.4-2.4-1.7-5.2-3.3-7.1c-0.3,0-0.6,0-0.9-0.2
		c-0.3,0.1-0.5,0.2-0.7,0.4c1.8,1.8,2.8,4.5,3.3,7c0.7,4.4,0.2,9.5-0.3,13.9L106.6,131.8L106.6,131.8z"/>
	<path class="st4" d="M96.1,101.2l1.7,5.6c1.1,0.1,2.3-0.1,3.4-0.7l1,2c0.2,0.2,1.2,0,1.5,0c0.1-0.2,0.2-0.4,0.4-0.5
		c-0.9-2.5-1.2-5.4-1.1-8.1C100.8,100.2,98.6,100.8,96.1,101.2L96.1,101.2z M104.5,107.3c0.1,0,0.3-0.1,0.4-0.1c0.2,0,0.4,0,0.6,0
		c0.1-2.8,0.4-5.3,0.7-8.2c0-0.3,0.1-0.7,0.1-1c-0.9,0.4-1.9,0.8-2.9,1.2C103.4,101.9,103.6,104.9,104.5,107.3L104.5,107.3z"/>
	<path class="st4" d="M106.9,99l0.5-0.1c0.6-0.9,1.3-1.7,2-2.4c-0.8,0.4-1.6,0.8-2.4,1.2L106.9,99z"/>
	<path class="st4" d="M87,60c2.1,1.5,1.2,4.1,3.9,4.8c3.8,1.1,11.8,0.5,15.6-0.5c1.6-0.4,2.2-4.4,3.9-5.4c-1.1-0.6-2.2-1.4-3-2.4
		c-0.8-1.1-1.2-2.4-1.5-3.8l0-0.2l-5.6,0c-0.1,0.7-0.3,1.4-0.6,2.1c-0.6,1.6-1.3,3-2.5,4.3L97.1,59c0.6-0.8,1.3-1.8,1.6-2.8
		c-1,0.7-2.4,1-3.4,0.8c-0.8-0.2-1-1.1-0.7-1.9c0-0.2-0.4-0.5,0-0.8c-0.1-0.2-0.3-0.3-0.3-0.4c0-0.3,0.1-0.4,0.1-0.6
		c-0.2,0-0.4,0-0.6-0.1l-0.1,0.5c-0.6,1.9-2.4,4.7-4.2,5.7c-0.7,0.4-1.4,0.5-2.1,0.7C87.4,60,87.2,60,87,60L87,60z M100.5,52.2
		l5.6,0c0.4,0,0.5-0.3,0.5-0.7c0-0.5-0.1-0.7-0.5-0.7l-5.6,0C100.5,51.2,100.5,51.7,100.5,52.2L100.5,52.2z M100.4,50.3l5.5,0l0-0.2
		c0.1-0.8,0.2-2.6-0.3-3.3c-0.1-0.1-0.2-0.2-0.3-0.3c-1.5-1.8-3-3.3-4.6-4.9c-0.3-0.3-0.2-0.2-0.6,0c-1.4,1.1-2.7,2.3-4.1,3.5
		c-1,0.9-1.3,2.2-1.3,3.4C96.6,48.3,99.9,48,100.4,50.3L100.4,50.3z M94.8,44.1C94.6,44,94,44,93.7,44.3c-0.3,0.2-0.3,0.8,0,1
		c0.2,0.2,0.4,0.1,0.7,0.1c0,0.2-0.1,0.4-0.4,0.5c-0.2,2.2-0.9,4.1-1.4,6.2c-0.2,0.7,0.4,0.9,0.9,0.6c0.5-2.4,1-4.7,1.5-7.1
		C95.1,45.2,95.3,44.4,94.8,44.1L94.8,44.1z M95.1,48.8c-0.4,1-0.9,2.3-1.2,3.4c-0.1,0.2,0,0.5,0.3,0.5c0.5,0,1,0.1,1.5,0
		c0.1,0,0.2-0.2,0.2-0.4c-0.1-0.4-0.2-0.9,0-1c0.2,0,0.1,0.1,0.1,0.3c0,0.3,0.2,0.6,0.3,0.9c0.1,0.4-0.1,0.5-0.4,0.6
		c-0.4,0.1-0.7,0-1.1,0c0,0.1-0.1,0.2-0.1,0.4c0,0.1,1.1,0.1,1.6,0.2c0.2,0.1,0.2,0.2,0.1,0.2c-0.2,0.1-0.9,0.1-1.3,0.2
		c-0.1,0-0.2,0.3-0.2,0.4c0,0.2,0.3,0.2,0.7,0.3c-0.1,0.2-0.2,0.2-0.4,0.2c-0.4,0.1-0.4,0.2-0.5,0.6c-0.1,0.8,0.7,1.1,1.4,1
		c0.9-0.1,1.9-0.5,2.5-1c0.4-0.3,0.5-0.5,0.6-1c0.5-1.2,0.8-2.9,0.6-4.1c-0.2-1.5-1.9-1.7-3.4-1.7c0,0,0,0.3,0.1,0.6l1.7,0.5
		l0.1,0.1c-0.2,0.1-0.7,0.1-1.1,0.3c-0.3,0.2-0.8,0.1-0.8,0.1c0-0.4-0.4-1.7-0.5-1.7C95.7,48.8,95.4,48.8,95.1,48.8L95.1,48.8z"/>
	<path class="st1" d="M93.1,13h3.1v14.1l5.2-7.1h3.1l-6.2,7c4.9,0.3,6.3,2.8,6.3,5.8l0,3.6l-2.1,0l0-2.4c0-3.2-1.7-5.1-6.3-5.1v7.5
		h-3.1V13z"/>
	<path class="st1" d="M91.1,13v3c-2.8,0.1-3.2,2.1-3.2,3.7v1.5h3.2v3.1h-3.2v11.5c0,3.2-1.8,6.7-6.1,6.6l0-3c2.3,0.1,3-1.6,3-2.9
		V24.2h-3.1v-3.1h3.1v-1.2C84.8,16.8,86.3,13.4,91.1,13L91.1,13z"/>
	<polygon class="st1" points="109.7,17.9 109.7,36.4 106.6,36.4 106.6,17.9 98.2,17.9 98.2,14.9 118.1,14.9 118.1,17.9 	"/>
	<polygon class="st4" points="42.6,172.8 44.9,171.7 44.4,170.6 42.1,171.7 41.4,170.3 44.3,168.9 43.8,167.8 39.6,169.8 42.6,176 
		43.9,175.4 	"/>
	<polygon class="st4" points="51.3,165.9 53.2,165.2 55.2,170.6 56.5,170.1 54.5,164.7 56.4,164.1 56,162.9 50.9,164.8 	"/>
	<path class="st4" d="M76.3,161.1c0.3,2,1.4,3.4,3,3.2c1.6-0.3,2.3-2.1,2-4c-0.3-1.9-1.4-3.4-3-3.2C76.6,157.4,76,159.2,76.3,161.1
		L76.3,161.1z M79.2,163.1c-0.9,0.1-1.4-1.1-1.6-2.1c-0.2-1.1,0-2.4,0.9-2.6c0.9-0.1,1.4,1.1,1.6,2.1
		C80.2,161.6,80.1,163,79.2,163.1L79.2,163.1z"/>
	<path class="st4" d="M64.1,164.1c0.6,1.9,1.9,3.2,3.5,2.7c1.6-0.5,1.9-2.4,1.4-4.2c-0.6-1.8-1.9-3.2-3.5-2.7
		C63.9,160.4,63.5,162.2,64.1,164.1L64.1,164.1z M67.2,165.6c-0.9,0.3-1.6-0.9-1.9-1.9c-0.3-1-0.3-2.4,0.5-2.7
		c0.8-0.3,1.6,0.8,1.9,1.9C68.1,164,68.1,165.3,67.2,165.6L67.2,165.6z"/>
	<polygon class="st4" points="95.6,155.4 94.2,155.4 94.2,162.2 98.7,162.2 98.7,161 95.6,161 	"/>
	<polygon class="st4" points="71.3,158.7 69.9,158.9 71.3,165.7 75.7,164.8 75.4,163.6 72.4,164.2 	"/>
	<path class="st4" d="M104.9,155.2h-1.4v4.5c0,0.9-0.2,1.3-0.9,1.3c-0.7,0-1-0.4-1-1.4v-4.5h-1.4v4.6c0,1.8,1,2.5,2.3,2.5
		c1.6,0,2.4-0.8,2.4-2.6V155.2z"/>
	<path class="st4" d="M49.4,165.4l-1.3,0.6l1.9,4.1c0.4,0.8,0.3,1.3-0.3,1.6c-0.6,0.3-1,0-1.4-0.9l-1.9-4.1l-1.3,0.6l1.9,4.2
		c0.8,1.7,2,1.8,3.2,1.3c1.3-0.5,1.8-1.8,1.1-3.3L49.4,165.4z"/>
	<path class="st4" d="M106.2,162.2l2.3,0.1c0.7,0,1.3-0.1,1.8-0.5c0.4-0.3,0.7-0.8,0.7-1.5c0-0.2,0-0.3,0-0.5c0-0.2-0.1-0.3-0.1-0.5
		c-0.1-0.2-0.2-0.3-0.3-0.4c-0.1-0.1-0.3-0.2-0.5-0.3c0.6-0.3,0.8-0.7,0.9-1.4c0-0.2,0-0.4-0.1-0.6c-0.1-0.2-0.2-0.4-0.3-0.6
		c-0.1-0.2-0.3-0.3-0.6-0.5c-0.3-0.1-0.6-0.2-1-0.2l-2.5-0.1L106.2,162.2z M107.6,159.2l1,0c0.3,0,0.5,0.1,0.7,0.2
		c0.1,0.1,0.2,0.2,0.2,0.3c0.1,0.1,0.1,0.3,0.1,0.5c0,0.3-0.1,0.5-0.3,0.7c-0.2,0.1-0.5,0.2-0.8,0.2l-1,0L107.6,159.2z M107.7,156.6
		l1,0c0.2,0,0.5,0.1,0.6,0.2c0.2,0.1,0.2,0.3,0.2,0.6c0,0.3-0.1,0.5-0.3,0.6c-0.2,0.1-0.4,0.2-0.6,0.2l-1,0L107.7,156.6z"/>
	<path class="st4" d="M59.2,169.1l2.2-0.7c0.7-0.2,1.2-0.6,1.5-1c0.3-0.5,0.4-1,0.2-1.6c0-0.1-0.1-0.3-0.2-0.4
		c-0.1-0.1-0.2-0.3-0.3-0.4c-0.1-0.1-0.3-0.2-0.4-0.3c-0.2-0.1-0.4-0.1-0.6-0.1c0.4-0.4,0.6-1,0.4-1.6c-0.1-0.2-0.1-0.4-0.3-0.5
		c-0.1-0.2-0.3-0.3-0.5-0.5c-0.2-0.1-0.4-0.2-0.7-0.2c-0.3,0-0.6,0-1,0.1l-2.4,0.8L59.2,169.1z M59.6,165.8l0.9-0.3
		c0.3-0.1,0.5-0.1,0.7-0.1c0.1,0,0.2,0.1,0.3,0.2c0.1,0.1,0.2,0.2,0.2,0.4c0.1,0.3,0.1,0.6-0.1,0.8c-0.1,0.2-0.4,0.3-0.6,0.4
		l-0.9,0.3L59.6,165.8z M58.8,163.3l1-0.3c0.2-0.1,0.5-0.1,0.6-0.1c0.2,0,0.3,0.2,0.4,0.5c0.1,0.3,0.1,0.5-0.1,0.7
		c-0.1,0.2-0.3,0.3-0.5,0.4l-0.9,0.3L58.8,163.3z"/>
	<path class="st4" d="M121.4,156.4c-1.2-0.2-2.3,0.3-2.6,1.8c-0.2,1,0.5,1.8,1.2,2.1c0.1,0.1,0.2,0.1,0.3,0.2l0.6,0.3
		c0.1,0.1,0.3,0.1,0.4,0.2c0.3,0.2,0.5,0.4,0.4,0.8c-0.1,0.7-0.7,0.8-1.2,0.7c-0.6-0.1-1.1-0.5-1-1.3l-1.3-0.2
		c-0.1,0.8,0.1,1.4,0.5,1.8c0.4,0.4,1,0.7,1.6,0.8c1.1,0.2,2.6-0.3,2.8-1.8c0-0.4,0-0.7-0.1-1.1c-0.2-0.6-0.7-0.8-1.2-1.1l-1.2-0.6
		c-0.4-0.2-0.6-0.3-0.6-0.8c0-0.5,0.5-0.7,1-0.7c0.3,0,0.6,0.2,0.8,0.4c0.2,0.2,0.3,0.5,0.2,0.8l1.3,0.2c0.1-1.1-0.4-2-1.3-2.4
		C121.8,156.5,121.6,156.5,121.4,156.4L121.4,156.4z"/>
	<polygon class="st4" points="131.1,160 133,160.6 131.5,166.1 132.9,166.4 134.4,160.9 136.3,161.4 136.6,160.3 131.4,158.9 	"/>
	<path class="st4" d="M135.7,167.2l1.3,0.4l0.9-2.6l0.7,0.2c0.2,0.1,0.4,0.2,0.5,0.3c0.1,0.1,0.2,0.2,0.2,0.3c0,0.1,0,0.3,0,0.4
		c0,0.2-0.1,0.3-0.2,0.6c-0.1,0.3-0.2,0.6-0.2,0.8c0,0.2-0.1,0.4-0.1,0.6l1.5,0.5l0.1-0.2c-0.1-0.1-0.2-0.2-0.1-0.4
		c0-0.2,0.1-0.5,0.3-1c0.1-0.3,0.2-0.6,0.2-0.8c0-0.2,0-0.4,0-0.5c0-0.1-0.1-0.3-0.1-0.4c-0.1-0.1-0.2-0.2-0.3-0.3
		c0.4,0,0.7-0.1,0.9-0.3c0.3-0.2,0.5-0.5,0.6-0.9c0-0.1,0.1-0.2,0.1-0.3c0-0.1,0-0.2,0-0.3c0-0.2,0-0.5-0.1-0.7
		c-0.1-0.2-0.2-0.5-0.4-0.7c-0.2-0.2-0.5-0.4-0.9-0.5l-2.5-0.9L135.7,167.2z M138.2,164l0.6-1.7l1,0.3c0.2,0.1,0.3,0.1,0.4,0.2
		c0.1,0.1,0.2,0.2,0.2,0.3c0,0.1,0.1,0.2,0,0.3c0,0.1,0,0.2-0.1,0.3c-0.2,0.6-0.6,0.8-1.3,0.6L138.2,164z"/>
	<polygon class="st4" points="147.1,171.3 148.3,171.9 149.2,169.7 150.1,169.3 150.6,172.8 152.2,173.4 151.3,168.7 154.7,167 
		153.1,166.3 149.9,168 150.9,165.5 149.6,164.9 	"/>
	<polygon class="st4" points="87.9,162.7 89.3,162.6 89.1,160.2 89.7,159.5 91.7,162.4 93.4,162.3 90.6,158.4 92.8,155.4 
		91.1,155.5 89,158.4 88.8,155.7 87.4,155.8 	"/>
	<path class="st4" d="M152.8,173.7l1.3,0.5l1-1.3l2.2,0.8l-0.1,1.6l1.4,0.5l0.3-7.3l-1.4-0.5L152.8,173.7z M157.6,169.8L157.6,169.8
		l-0.2,2.7l-1.5-0.6L157.6,169.8z"/>
	<path class="st4" d="M140.7,169l1.3,0.5l0.9-1.3l2.2,0.8l-0.1,1.6l1.4,0.5l0.2-7.3l-1.4-0.5L140.7,169z M145.4,165L145.4,165
		l-0.1,2.7l-1.5-0.6L145.4,165z"/>
	<path class="st4" d="M111.4,162.5l1.4,0.2l0.6-1.5l2.3,0.3l0.3,1.6l1.5,0.2l-1.5-7.1l-1.5-0.2L111.4,162.5z M115,157.5L115,157.5
		l0.5,2.7l-1.6-0.2L115,157.5z"/>
	<polygon class="st4" points="159.3,176.3 160.6,176.8 163.1,170.4 161.8,169.9 	"/>
</g>
</svg>
