<?xml version="1.0" encoding="utf-8"?>
<!-- Generator: Adobe Illustrator 21.1.0, SVG Export Plug-In . SVG Version: 6.00 Build 0)  -->
<svg version="1.1" id="Layer_1" xmlns="http://www.w3.org/2000/svg" xmlns:xlink="http://www.w3.org/1999/xlink" x="0px" y="0px"
	 viewBox="0 0 200 200" style="enable-background:new 0 0 200 200;" xml:space="preserve">
<style type="text/css">
	.st0{fill:#C7A13A;}
	.st1{fill:#FFFFFF;}
	.st2{fill:#E21434;}
	.st3{fill:#416996;stroke:#C7A13A;stroke-width:2;}
</style>
<g>
	<polygon class="st0" points="175.6,0 23.4,0 23.4,158.4 100,200 176.6,158.4 176.6,0 	"/>
	<path class="st1" d="M174.6,2.1c0-0.1,0-0.2,0-0.2C172.7,2,100,2,100,2S27.3,2,25.4,2c0,1.9,0,150.5,0,155.2L174.6,2.1z"/>
	<path class="st2" d="M25.4,157.3c1,0.5,73.7,40,74.6,40.5c0.9-0.5,73.6-40,74.6-40.5c0-1.1,0-149,0-155.1l-149.3,155
		C25.4,157.2,25.4,157.3,25.4,157.3z"/>
	<polygon class="st3" points="59.3,12.7 53,29.2 35.7,29.5 48.9,41.3 44.6,57.5 59.3,48.7 74.1,57.5 69.8,41.3 83,29.5 65.7,29.2 	
		"/>
	<path class="st0" d="M93.1,149.9c-3.8,0-5.1,3.5-5.1,6.8c0,3.2,1.4,6.6,5.1,6.6c3.7,0,5.1-3.5,5.1-6.7
		C98.2,153.4,96.8,149.9,93.1,149.9z M93.1,161c-2.3,0-2.9-2.6-2.9-4.5c0-1.9,0.5-4.4,2.9-4.4c2.4,0,2.9,2.6,2.9,4.4
		C96,158.4,95.4,161,93.1,161z"/>
	<polygon class="st0" points="84,155.2 79.8,155.2 79.8,150.1 77.7,150.1 77.7,163.1 79.8,163.1 79.8,157.4 84,157.4 84,163.1 
		86.1,163.1 86.1,150.1 84,150.1 	"/>
	<path class="st0" d="M129.7,161c-2.3,0-2.6-2.9-2.6-4.5c0-1.7,0.4-4.4,2.6-4.4c0.6,0,1,0.2,1.4,0.6c0.4,0.4,0.6,0.9,0.8,1.6
		l2.1-0.6c-0.5-2.1-1.8-3.8-4.2-3.8c-3.7,0-4.9,3.7-4.9,6.8c0,2.9,1.2,6.6,4.8,6.6c2.6,0,3.8-1.8,4.3-4.2l-2-0.8
		C131.8,159.5,131.2,161,129.7,161z"/>
	<path class="st0" d="M154.9,160.9v-10.8h-7.2v1.4c0,2.2-0.1,4.1-0.2,5.5c-0.1,1.5-0.4,2.8-0.9,3.9h-0.9v5h1.8v-2.8h6.6v2.8h1.8v-5
		L154.9,160.9L154.9,160.9z M152.8,160.9h-4c0.6-1.8,0.9-4.7,0.9-8.6h3.1L152.8,160.9L152.8,160.9z"/>
	<polygon class="st0" points="112.8,158.7 112.8,150.1 110.8,150.1 110.8,163.1 112.9,163.1 117.1,154.6 117.1,163.1 119.1,163.1 
		119.1,150.1 117,150.1 	"/>
	<path class="st0" d="M139.1,150.1l-4.1,12.9h2.2l0.9-2.9h4.2l0.9,2.9h2.3l-4.2-12.9H139.1z M138.7,157.9l1.4-4.8l1.4,4.8H138.7z"/>
	<path class="st0" d="M106.8,156.2c1-0.6,1.5-1.7,1.5-2.8c0-1.4-0.8-2.8-2.2-3.1c-0.4-0.1-1-0.1-1.8-0.1H100v12.9h3.6
		c0.7,0,1.2,0,1.6,0c0.4,0,0.7,0,0.9-0.1c1.8-0.3,2.7-2,2.7-3.7C108.8,157.9,108.1,156.7,106.8,156.2z M102.1,152.3h1.2
		c1,0,1.6,0,1.8,0c0.8,0.1,1.1,0.7,1.1,1.4c0,0.8-0.4,1.4-1.2,1.5c-0.1,0-0.2,0-0.5,0c-0.4,0-0.7,0-1.1,0h-1.4L102.1,152.3
		L102.1,152.3z M105.5,160.8c-0.2,0-0.7,0.1-1.4,0.1h-2v-3.5h1.7c1,0,1.6,0.1,1.9,0.2c0.6,0.3,0.9,0.9,0.9,1.6
		C106.6,159.9,106.3,160.6,105.5,160.8z"/>
	<path class="st0" d="M55.7,145.4c0.6-1.6,0.2-3.4-1-4.6c-2.2-2.1-5.2-1.6-7.2,0.5l-5.6,5.9l13.5,12.8l5.5-5.7
		c2.3-2.4,3.3-5.8,0.6-8.4C59.7,144.3,57.7,144.3,55.7,145.4z M45.1,147.1l3.3-3.5c1.4-1.4,3.1-2.5,4.8-0.9c1.7,1.6,0.8,3.4-0.6,4.9
		l-3.3,3.5L45.1,147.1z M59,153.1l-3.6,3.8l-4.6-4.4l3.6-3.8c1.5-1.6,3.6-2.9,5.5-1.1C61.9,149.5,60.6,151.5,59,153.1z"/>
	<path class="st0" d="M72.7,128.1c-4-3.8-9.4-4.2-13.3-0.1c-4,4.2-3.3,9.5,0.7,13.3c4.1,3.8,9.4,4.1,13.3,0
		C77.4,137.2,76.8,132,72.7,128.1z M72,140c-3.3,3.4-7,2.8-10.2-0.3c-3-2.9-3.8-7-0.8-10.1c3.1-3.2,7.1-2.6,10.2,0.3
		C74.3,132.9,75.2,136.6,72,140z"/>
	<polygon class="st0" points="137.8,46.2 143.4,51.5 136.2,59 130.7,53.7 129.1,55.4 142.6,68.2 144.2,66.5 137.8,60.5 144.9,53 
		151.3,59 152.9,57.3 139.4,44.5 	"/>
	<path class="st0" d="M148,35.5l-2,2.1l8.7,17.9l1.9-2l-2.6-5.2l5.1-5.4l5.2,2.4l1.8-1.9L148,35.5z M152.9,46.2l-3.9-7.6l7.9,3.4
		L152.9,46.2z"/>
	<path class="st0" d="M124.7,83.9l-11.9-11.3l-7,7.4c2.5,2.4,4.7,4.8,6.5,7.2c1.8,2.3,3.1,4.4,3.6,6.1l-1.1,1.2l2.7,2.5l1.6-1.7
		l-1.1-1.1l8.1-8.6l1.1,1.1l1.6-1.7l-2.7-2.5L124.7,83.9z M117.7,91.3c-0.8-1.8-2-3.9-3.7-6c-1.7-2-3.3-4-5-5.6l3.8-4l10.4,9.8
		L117.7,91.3z"/>
	<path class="st0" d="M74.5,112.9l-1.6,1.7l9.8,9.3c1.6,1.5,1.8,3,0.2,4.6c-1.3,1.4-2.7,1.3-4.1,0l-0.9-0.8l-1.6,1.7l1.1,1
		c2.3,2.2,4.8,1.9,6.9-0.4c2.6-2.7,2.7-5.2-0.1-7.9L74.5,112.9z"/>
	<path class="st0" d="M91.2,107.9c0.6-1.6,0.2-3.4-1.1-4.6c-2.3-2.1-5.1-1.6-7.2,0.5l-5.6,5.9l13.5,12.8l5.5-5.7
		c2.3-2.4,3.3-5.8,0.6-8.4C95.3,106.9,93.2,106.9,91.2,107.9z M80.6,109.6l3.3-3.5c1.4-1.5,3.1-2.5,4.9-0.9c1.8,1.7,0.8,3.4-0.6,4.9
		l-3.3,3.5L80.6,109.6z M94.6,115.7l-3.6,3.8l-4.6-4.4l3.6-3.8c1.5-1.5,3.6-2.9,5.5-1.1C97.4,112.1,96.1,114.1,94.6,115.7z"/>
	<path class="st0" d="M108.3,90.7c-4-3.8-9.4-4.2-13.3-0.1c-4,4.2-3.3,9.5,0.7,13.3c4.1,3.8,9.4,4.1,13.3,0
		C112.9,99.8,112.3,94.5,108.3,90.7z M107.5,102.5c-3.3,3.4-7,2.8-10.2-0.3c-3.1-2.9-3.8-6.9-0.8-10.1c3.1-3.2,7.1-2.6,10.2,0.3
		C109.9,95.4,110.7,99.1,107.5,102.5z"/>
	<polygon class="st0" points="124.2,60.5 128.5,78 117.5,67.6 115.9,69.2 129.4,82.1 131.4,80 127.2,62.5 138.1,72.9 139.7,71.2 
		126.2,58.4 	"/>
	<path class="st0" d="M111.1,13.1v2c1.1-0.4,2.1-0.9,2.9-1.7V22h2.3V10.1h-1.8C114,11.5,112.5,12.7,111.1,13.1z"/>
	<path class="st0" d="M129.9,13.1v2c1.1-0.4,2.1-0.9,2.9-1.7V22h2.3V10.1h-1.8C132.7,11.5,131.2,12.7,129.9,13.1z"/>
	<path class="st0" d="M145.2,17.6v-7.5h-1.9l-5.1,7.5v2h4.8V22h2.2v-2.4h1.5v-2L145.2,17.6L145.2,17.6z M143.1,17.6l-2.7,0l2.7-4
		V17.6z"/>
	<path class="st0" d="M123.5,10.1c-2.3,0-3.8,1.7-3.8,4c0,2,1.3,3.9,3.4,3.9c0.9,0,1.6-0.3,2.1-1c0,0.6-0.1,1.2-0.2,1.7
		c-0.2,0.8-0.7,1.6-1.6,1.6c-0.8,0-1.2-0.5-1.3-1.3l-2.2,0.2c0.3,1.8,1.4,2.9,3.3,2.9c3.5,0,4.3-3.2,4.3-6.1
		C127.6,13.4,126.8,10.1,123.5,10.1z M123.5,16.3c-1.2,0-1.6-1.2-1.6-2.2c0-1,0.3-2.1,1.5-2.1c1.2,0,1.7,1.3,1.7,2.3
		C125,15.3,124.6,16.3,123.5,16.3z"/>
	<path class="st0" d="M73.6,83.1c-0.8,0.4-1.6,0.9-2.2,1.5L70,83.2l-1.4,1.4L70,86c-0.7,0.6-1.1,1.4-1.5,2.1c-1,2.3-0.8,4.8,1.1,6.6
		c1.8,1.8,4.4,2.1,6.7,1.1c0.7-0.3,1.4-0.8,2.1-1.5l1.4,1.4l1.4-1.4L79.7,93c0.7-0.7,1.2-1.5,1.6-2.3c0.9-2.2,0.5-4.7-1.2-6.4
		C78.3,82.5,75.9,82.1,73.6,83.1z M75.6,94.1c-1.6,0.7-3.2,0.4-4.5-0.9c-1.3-1.3-1.6-2.9-0.9-4.5c0.2-0.5,0.6-1,1-1.4l5.8,5.8
		C76.6,93.5,76.1,93.9,75.6,94.1z M79.5,90.2c-0.2,0.5-0.6,1-1,1.5l-5.8-5.8c0.5-0.5,1-0.8,1.5-1.1c1.6-0.7,3.2-0.3,4.4,0.9
		C79.9,87,80.2,88.6,79.5,90.2z"/>
	<polygon class="st0" points="94.9,80.6 96.8,78.7 85.4,76.9 85.5,67.8 83.6,69.8 83.6,80.8 78.1,75.3 76.6,76.8 87.7,87.8 
		89.1,86.4 85.3,82.5 85.3,79 	"/>
</g>
</svg>
