<?xml version="1.0" encoding="utf-8"?>
<!-- Generator: Adobe Illustrator 21.1.0, SVG Export Plug-In . SVG Version: 6.00 Build 0)  -->
<svg version="1.1" id="Layer_1" xmlns="http://www.w3.org/2000/svg" xmlns:xlink="http://www.w3.org/1999/xlink" x="0px" y="0px"
	 viewBox="0 0 200 200" style="enable-background:new 0 0 200 200;" xml:space="preserve">
<style type="text/css">
	.st0{fill-rule:evenodd;clip-rule:evenodd;fill:#F1CB15;}
	.st1{fill-rule:evenodd;clip-rule:evenodd;fill:#FFFFFF;}
	.st2{fill-rule:evenodd;clip-rule:evenodd;}
	.st3{fill-rule:evenodd;clip-rule:evenodd;fill:#C02126;}
	.st4{fill-rule:evenodd;clip-rule:evenodd;fill:#231F20;}
</style>
<g>
	<path class="st0" d="M57.2,40.4c1.1-3.4,3.2-5.6,5.9-6.7c2.7-1.1,6-1.1,9.5-0.7c1.5,0.2,1.4,0.6,1.8-0.8c0.6-2.4,0.8-3.1,2.9-5.3
		c5.2-0.8,11.5-0.6,10.7-6.9c-2,1-2.9,1.8-5.1,1.5c3.2-4.8,3.5-8.5,1.8-14.2c-3.8,4.9-6.4,10.5-13.7,9c-5,1.3-7.3,2.9-11.6,5.7
		c-9.3,4.8-16.8,6.4-21.2,16.7c-0.5,2.8-0.6,4.6-0.4,7.1c0.1,1.7,0.9,1.2,2.5,0.8c3.7-5.4,8.1-5.4,15.3-4.9
		C57.2,41.9,56.7,42,57.2,40.4L57.2,40.4L57.2,40.4z"/>
	<path class="st1" d="M47.5,37.8c-2.7,1.7-5.3,2.6-5.7,1.9c-0.4-0.7,1.5-2.5,4.2-4.2c2.7-1.7,5.3-2.5,5.7-1.9
		C52.2,34.2,50.3,36.1,47.5,37.8L47.5,37.8L47.5,37.8z"/>
	<path class="st1" d="M62.5,28.6c-2.7,1.7-5.3,2.6-5.7,1.9c-0.4-0.6,1.5-2.5,4.2-4.2c2.7-1.7,5.3-2.6,5.7-1.9
		C67.1,25,65.2,26.9,62.5,28.6L62.5,28.6L62.5,28.6z"/>
	<path class="st1" d="M76.2,21.5c-3.1,0.8-5.8,0.8-6,0.1c-0.2-0.7,2.2-2,5.3-2.8c3.1-0.8,5.8-0.8,6-0.1
		C81.7,19.5,79.3,20.7,76.2,21.5L76.2,21.5L76.2,21.5z"/>
	<path class="st0" d="M142.7,40.4c-1.1-3.4-3.2-5.6-5.9-6.7c-2.7-1.1-6-1.1-9.5-0.7c-1.5,0.2-1.4,0.6-1.8-0.8
		c-0.6-2.4-0.8-3.1-2.9-5.3c-5.2-0.8-11.5-0.6-10.7-6.9c2,1,2.9,1.8,5.1,1.5c-3.2-4.8-3.5-8.5-1.8-14.2c3.8,4.9,6.4,10.5,13.7,9
		c5,1.3,7.3,2.9,11.6,5.7c9.3,4.8,16.8,6.4,21.2,16.7c0.5,2.8,0.6,4.6,0.4,7.1c-0.1,1.7-0.9,1.2-2.5,0.8c-3.7-5.4-8.1-5.4-15.3-4.9
		C142.7,41.9,143.2,42,142.7,40.4L142.7,40.4z"/>
	<path class="st1" d="M152.4,37.8c2.7,1.7,5.3,2.6,5.7,1.9c0.4-0.7-1.5-2.5-4.2-4.2c-2.7-1.7-5.3-2.5-5.7-1.9
		C147.7,34.2,149.6,36.1,152.4,37.8L152.4,37.8L152.4,37.8z"/>
	<path class="st1" d="M137.4,28.6c2.7,1.7,5.3,2.6,5.7,1.9c0.4-0.6-1.5-2.5-4.2-4.2c-2.7-1.7-5.3-2.6-5.7-1.9
		C132.8,25,134.7,26.9,137.4,28.6L137.4,28.6L137.4,28.6z"/>
	<path class="st1" d="M123.7,21.5c3.1,0.8,5.8,0.8,6,0.1c0.2-0.7-2.2-2-5.3-2.8c-3.1-0.8-5.8-0.8-6-0.1
		C118.2,19.5,120.6,20.7,123.7,21.5L123.7,21.5L123.7,21.5z"/>
	<path class="st2" d="M100,22.8c-6.3,0-11.4-5.1-11.4-11.4C88.6,5.1,93.7,0,100,0c6.3,0,11.4,5.1,11.4,11.4
		C111.3,17.6,106.2,22.8,100,22.8L100,22.8L100,22.8z"/>
	<path class="st1" d="M93.1,3.5c-2.2,1.9-3.6,4.7-3.6,7.8c0,0.3,0,0.5,0.1,0.8c1.1-3.4,1.9-5.9,4.2-8.1C93.6,3.9,93.3,3.7,93.1,3.5
		L93.1,3.5L93.1,3.5z"/>
	<path class="st1" d="M90,14.5c0.4,1.2,1,2.4,1.8,3.3c0.8-4.6,1.7-7.8,5.1-10.8c-0.7-0.9-1.3-1.4-2.1-2.2
		C91.8,7.2,90.8,10.9,90,14.5L90,14.5L90,14.5z"/>
	<path class="st1" d="M92.7,18.8c1,1,2.2,1.7,3.4,2.2c0.2-3.8,1.1-6.5,2.7-9.9c0-0.9-0.7-2.2-1.3-3.1C94.1,10.5,93.3,14.7,92.7,18.8
		L92.7,18.8L92.7,18.8z"/>
	<path class="st1" d="M97.1,21.4c0.9,0.3,1.9,0.4,2.9,0.4c1.8,0,3.2-0.3,4.7-1.1c-2.9,0.6-4.7,0.8-7.5-0.2
		C97.1,20.7,97.1,21.2,97.1,21.4L97.1,21.4L97.1,21.4z"/>
	<path class="st1" d="M106.9,19.1c1-0.9,1.8-2,2.4-3.3c-4.2,1.5-7,1.7-11.3,0.2c-0.4,1.1-0.5,2-0.7,3.2
		C100.5,20.7,103.6,20.1,106.9,19.1L106.9,19.1L106.9,19.1z"/>
	<path class="st1" d="M109.9,14.5c0.3-1,0.5-2,0.5-3.1c0-0.3,0-0.5,0-0.8c-3.5,1.8-6.3,2.4-10.4,1.7c-0.5,0.9-1.1,1.8-1.5,2.6
		C102.4,16.9,106.1,16,109.9,14.5L109.9,14.5L109.9,14.5z"/>
	<path class="st1" d="M110.2,9.4C109.5,6,107,3.1,104,1.7c2.4,2.8,4.6,4.9,5.2,8.2C109.6,9.7,109.9,9.6,110.2,9.4L110.2,9.4
		L110.2,9.4z"/>
	<path class="st1" d="M102.1,1.2c-0.7-0.2-1.4-0.2-2.1-0.2c-0.5,0-1.1,0-1.6,0.1c3.6,3,5.4,5.6,6.4,10.2c1-0.1,2.2-0.3,3.4-0.7
		C107.8,6.6,105,3.8,102.1,1.2L102.1,1.2L102.1,1.2z"/>
	<path class="st1" d="M97.1,1.3c-1,0.3-2,0.7-2.9,1.3c2.8,2.4,4.9,4.7,6,8.2c1.2,0.2,2.2,0.4,3.2,0.4C103.2,6.8,100.4,3.8,97.1,1.3
		L97.1,1.3z"/>
	<path class="st0" d="M100,200L100,200L100,200L100,200L100,200c62.6-38.8,68.9-80.5,63.2-148.9l-6.3-1.5v-2.4l0,0
		c-2.4-4.8-9.4-3.5-13.6-3.1l-3.2-0.7c0,0,0-0.1,0-0.1c-1.9-15.4-17.4-3.8-17.4-10.3c0-2.2-1.8-4-3.9-4h-9.4c-2-2.2-5.6-3.2-9.3-3.2
		l0,0c0,0,0,0,0,0l0,0c0,0,0,0,0,0l0,0c0,0,0,0,0,0l0,0l0,0l0,0c0,0,0,0-0.1,0c-3.7,0-7.4,1-9.3,3.2h-9.4c-2.2,0-3.9,1.8-3.9,4
		c0,6.5-15.5-5.1-17.4,10.3c0,0,0,0,0,0.1l-3.2,0.7c-4.2-0.3-11.2-1.7-13.6,3.1l0,0v2.4l-6.3,1.5C31.1,118.4,38.2,161.7,100,200
		L100,200z"/>
	<path class="st3" d="M47.5,54c0.8,0,1.4,0.1,1.8,0.3c0.4,0.2,0.6,0.5,0.6,1c0,0.4-0.2,0.7-0.6,0.9c-0.4,0.2-1,0.3-1.8,0.3h-2.7v2.1
		h2.4c0.8,0,1.4,0.1,1.8,0.3c0.4,0.2,0.6,0.5,0.6,0.9c0,0.4-0.2,0.7-0.6,0.9c-0.4,0.2-1,0.3-1.8,0.3h-2.4v2.9c0,0.7-0.1,1.1-0.4,1.4
		c-0.3,0.3-0.7,0.5-1.3,0.5c-0.6,0-1-0.2-1.3-0.5c-0.3-0.3-0.4-0.8-0.4-1.4v-8.2c0-0.7,0.2-1.2,0.5-1.5c0.3-0.3,0.9-0.4,1.8-0.4
		H47.5L47.5,54L47.5,54z"/>
	<path class="st3" d="M69.3,59.9c0-0.6,0.2-1,0.6-1.4c0.4-0.4,0.9-0.6,1.4-0.6c0.5,0,1,0.2,1.4,0.6c0.4,0.4,0.6,0.9,0.6,1.4
		s-0.2,1-0.6,1.4c-0.4,0.4-0.9,0.6-1.4,0.6c-0.6,0-1.1-0.2-1.4-0.6C69.5,61,69.3,60.5,69.3,59.9L69.3,59.9L69.3,59.9z"/>
	<path class="st3" d="M154.4,59.9c0-0.6,0.2-1,0.6-1.4c0.4-0.4,0.9-0.6,1.4-0.6c0.5,0,1,0.2,1.4,0.6c0.4,0.4,0.6,0.9,0.6,1.4
		s-0.2,1-0.6,1.4c-0.4,0.4-0.9,0.6-1.4,0.6c-0.6,0-1.1-0.2-1.4-0.6C154.6,61,154.4,60.5,154.4,59.9L154.4,59.9L154.4,59.9z"/>
	<path class="st3" d="M58,66.2c-2.1,0-3.9-0.6-5.2-1.7c-1.3-1.1-2-2.7-2-4.5c0-1.8,0.7-3.3,2-4.5c1.4-1.2,3.1-1.7,5.2-1.7
		c1.2,0,2.3,0.2,3.1,0.6c0.8,0.4,1.3,0.8,1.3,1.3c0,0.3-0.1,0.6-0.4,0.9c-0.3,0.2-0.6,0.4-1,0.4c-0.2,0-0.7-0.1-1.3-0.2
		c-0.7-0.2-1.2-0.2-1.6-0.2c-1.1,0-2,0.3-2.6,1c-0.7,0.7-1,1.6-1,2.7c0,1.1,0.3,2,1,2.6c0.7,0.6,1.6,1,2.7,1c0.5,0,1.1-0.1,1.8-0.3
		c0.7-0.2,1.1-0.3,1.3-0.3c0.3,0,0.7,0.1,0.9,0.4c0.3,0.2,0.4,0.5,0.4,0.8c0,0.6-0.4,1.1-1.3,1.5C60.4,66,59.3,66.2,58,66.2L58,66.2
		L58,66.2z"/>
	<path class="st3" d="M80.4,65.1l-4.5-9c-0.1-0.1-0.1-0.2-0.1-0.4c0-0.1-0.1-0.3-0.1-0.4c0-0.4,0.2-0.7,0.5-1
		c0.3-0.2,0.7-0.4,1.2-0.4c0.3,0,0.7,0.1,0.9,0.3c0.2,0.2,0.4,0.5,0.6,0.9l3.1,6.7l2.9-6.6c0.2-0.5,0.4-0.8,0.7-1
		c0.2-0.2,0.6-0.3,1-0.3c0.5,0,0.9,0.1,1.2,0.3c0.3,0.2,0.4,0.5,0.4,0.9c0,0.2,0,0.3-0.1,0.5c0,0.2-0.1,0.3-0.2,0.5L83.7,65
		c-0.2,0.4-0.4,0.7-0.7,0.9c-0.3,0.2-0.6,0.2-1,0.2c-0.4,0-0.7-0.1-1-0.2C80.8,65.7,80.6,65.4,80.4,65.1L80.4,65.1L80.4,65.1z"/>
	<path class="st3" d="M91.2,63.6h5.4l0.4,1.1c0.2,0.4,0.4,0.8,0.7,1c0.3,0.2,0.6,0.3,1.1,0.3c0.5,0,0.9-0.1,1.2-0.4
		c0.3-0.2,0.5-0.5,0.5-0.9c0-0.1,0-0.2-0.1-0.4c0-0.1-0.1-0.3-0.2-0.5l-3.7-8.5c-0.2-0.5-0.6-0.9-1-1.2c-0.4-0.3-0.9-0.4-1.5-0.4
		c-0.6,0-1.1,0.1-1.5,0.4c-0.4,0.3-0.7,0.7-1,1.3l-3.8,8.3c-0.1,0.1-0.1,0.2-0.1,0.4c0,0.1,0,0.3,0,0.4c0,0.4,0.1,0.7,0.4,0.9
		c0.3,0.2,0.7,0.4,1.1,0.4c0.4,0,0.7-0.1,0.9-0.3c0.3-0.2,0.5-0.5,0.7-0.9L91.2,63.6L91.2,63.6L91.2,63.6L91.2,63.6z M92.2,61.1
		l1.8-4.4l1.7,4.4H92.2L92.2,61.1L92.2,61.1z"/>
	<path class="st3" d="M105,61.2v2.9c0,0.7-0.1,1.1-0.4,1.4c-0.3,0.3-0.7,0.5-1.3,0.5c-0.6,0-1-0.2-1.3-0.5c-0.3-0.3-0.4-0.8-0.4-1.4
		v-8.2c0-0.7,0.2-1.2,0.5-1.5c0.3-0.3,0.9-0.4,1.8-0.4h2.6c1.7,0,3.1,0.3,4.1,1c1,0.7,1.5,1.6,1.5,2.7c0,0.8-0.3,1.6-0.9,2.1
		c-0.6,0.6-1.5,0.9-2.6,1.1l2.6,2.4c0.3,0.3,0.6,0.6,0.7,0.8c0.2,0.2,0.2,0.5,0.2,0.7c0,0.4-0.2,0.7-0.4,0.9
		c-0.3,0.2-0.7,0.4-1.1,0.4c-0.3,0-0.6-0.1-0.8-0.2c-0.3-0.2-0.6-0.4-1-0.7L105,61.2L105,61.2L105,61.2L105,61.2z M105,59.4h1.6
		c0.7,0,1.2-0.1,1.6-0.4c0.4-0.2,0.5-0.6,0.5-1.1c0-0.4-0.2-0.8-0.5-1.1c-0.4-0.2-0.9-0.4-1.5-0.4H105V59.4L105,59.4L105,59.4z"/>
	<path class="st3" d="M130.7,63.6l-0.5,1.2c-0.2,0.4-0.4,0.7-0.7,0.9c-0.3,0.2-0.6,0.3-1,0.3c-0.5,0-0.8-0.1-1.1-0.4
		c-0.3-0.2-0.4-0.6-0.4-0.9c0-0.2,0-0.3,0-0.4c0-0.1,0.1-0.2,0.1-0.4l3.8-8.3c0.3-0.6,0.6-1,1-1.3c0.4-0.3,0.9-0.4,1.5-0.4
		c0.6,0,1.1,0.1,1.5,0.4c0.4,0.3,0.7,0.7,1,1.2l3.7,8.5c0.1,0.2,0.1,0.3,0.2,0.5c0,0.1,0.1,0.3,0.1,0.4c0,0.4-0.2,0.7-0.5,0.9
		c-0.3,0.2-0.7,0.4-1.2,0.4c-0.4,0-0.8-0.1-1.1-0.3c-0.3-0.2-0.5-0.6-0.7-1l-0.4-1.1H130.7L130.7,63.6L130.7,63.6L130.7,63.6z
		 M131.7,61.1h3.5l-1.7-4.4L131.7,61.1L131.7,61.1L131.7,61.1z"/>
	<path class="st3" d="M144.6,61.2v2.9c0,0.7-0.2,1.1-0.4,1.4c-0.3,0.3-0.7,0.5-1.3,0.5c-0.6,0-1-0.2-1.2-0.5
		c-0.3-0.3-0.4-0.8-0.4-1.4v-8.2c0-0.7,0.2-1.2,0.5-1.5c0.3-0.3,0.9-0.4,1.8-0.4h2.6c1.7,0,3.1,0.3,4.1,1c1,0.7,1.5,1.6,1.5,2.7
		c0,0.8-0.3,1.6-0.9,2.1c-0.6,0.6-1.5,0.9-2.6,1.1l2.6,2.4c0.3,0.3,0.6,0.6,0.7,0.8c0.2,0.2,0.2,0.5,0.2,0.7c0,0.4-0.2,0.7-0.5,0.9
		c-0.3,0.2-0.7,0.4-1.1,0.4c-0.3,0-0.6-0.1-0.9-0.2c-0.3-0.2-0.6-0.4-0.9-0.7L144.6,61.2L144.6,61.2L144.6,61.2L144.6,61.2z
		 M144.6,59.4h1.5c0.7,0,1.2-0.1,1.6-0.4c0.4-0.2,0.6-0.6,0.6-1.1c0-0.4-0.2-0.8-0.5-1.1c-0.4-0.2-0.9-0.4-1.6-0.4h-1.6V59.4
		L144.6,59.4z"/>
	<path class="st3" d="M119,54c0.9,0,1.8,0.1,2.5,0.2c0.7,0.2,1.4,0.3,1.9,0.6c1,0.5,1.7,1.2,2.3,2.1c0.6,0.9,0.8,1.8,0.8,2.9
		c0,1.9-0.6,3.3-1.9,4.4c-1.3,1.1-3,1.6-5.2,1.6h-3c-0.9,0-1.5-0.1-1.8-0.4c-0.3-0.2-0.5-0.7-0.5-1.3v-8.2c0-0.7,0.2-1.2,0.5-1.5
		c0.3-0.3,0.9-0.4,1.8-0.4H119L119,54L119,54L119,54z M117.3,63.4h1.5c1.3,0,2.3-0.3,3-0.9c0.7-0.6,1-1.5,1-2.7c0-1.1-0.3-1.9-1-2.4
		c-0.7-0.5-1.7-0.8-3-0.8h-1.5V63.4L117.3,63.4L117.3,63.4z"/>
	<path class="st3" d="M60.2,69.3h-19c-1.8,34.2,3.2,62.6,19,86.4L60.2,69.3L60.2,69.3z"/>
	<path class="st3" d="M139.8,155.7c15.8-23.8,20.8-52.2,19-86.3h-19L139.8,155.7L139.8,155.7z"/>
	<path class="st3" d="M114.2,69.3H85.8v113.9c4.4,3.5,9.1,6.8,14.2,10.1c5.1-3.2,9.9-6.6,14.2-10.1V69.3L114.2,69.3z"/>
	<path class="st4" d="M60.2,69.3l0,86.4c6.6,9.9,15,19,25.5,27.4V69.3H60.2L60.2,69.3z"/>
	<path class="st4" d="M139.8,155.7l0-86.3h-25.6v113.8C124.8,174.7,133.2,165.6,139.8,155.7L139.8,155.7z"/>
	<path class="st0" d="M76.7,90.6c0,14,0,28,0,42c0,3.7-5.9,4.5-8.4,4.9v1.9H112c27.8-3.9,26-25.1,1.9-30.3
		c25.4-9,13.3-26.5-8.4-27.4H67.8v2.8C72.3,84.4,76.7,84.4,76.7,90.6L76.7,90.6L76.7,90.6L76.7,90.6z M94.4,111.9
		c9.3-0.6,17.5-0.4,18.1,11.2c0.8,15.4-6.4,13-18.1,13V111.9L94.4,111.9L94.4,111.9L94.4,111.9z M94.4,85.7
		c7.4-0.6,14-0.3,14.5,10.3c0.7,14.2-5.1,12-14.5,12V85.7L94.4,85.7z"/>
	<path class="st0" d="M77.8,147.4h-4.1v-1.7c1.4,0,2.5-0.2,3.2-0.6c0.7-0.4,1.2-1.3,1.5-2.7h1.8V160h-2.4V147.4L77.8,147.4
		L77.8,147.4z"/>
	<path class="st0" d="M88.8,155.7c0.3,1.8,1.3,2.7,3,2.7c1.3,0,2.3-0.6,3.1-1.8c0.8-1.2,1.1-2.8,1.1-4.8c-0.4,0.6-0.9,1.1-1.6,1.5
		c-0.7,0.4-1.6,0.6-2.6,0.6c-1.5,0-2.8-0.5-3.9-1.5c-1.1-1-1.6-2.4-1.6-4.2c0-1.5,0.5-2.9,1.4-4.1c0.9-1.2,2.4-1.9,4.3-1.9
		c2.1,0,3.7,0.7,4.7,2.2c1,1.5,1.5,3.4,1.5,6c0,2.7-0.5,5-1.4,6.9c-1,1.9-2.7,2.9-5.1,2.9c-1.5,0-2.7-0.4-3.6-1.3
		c-1-0.8-1.5-2-1.5-3.4H88.8L88.8,155.7L88.8,155.7L88.8,155.7z M92.1,152c1.1,0,2-0.3,2.6-1c0.6-0.7,1-1.6,1-2.8c0-1-0.3-1.9-1-2.7
		c-0.6-0.8-1.5-1.1-2.6-1.1c-1.1,0-2,0.4-2.6,1.1c-0.6,0.8-1,1.7-1,2.7c0,1.2,0.3,2.1,1,2.8C90.2,151.6,91,152,92.1,152L92.1,152
		L92.1,152z"/>
	<path class="st0" d="M107.5,155.7h-7.7v-2.2l8.1-11.1h1.9v11.3h2.5v2h-2.5v4.3h-2.3V155.7L107.5,155.7L107.5,155.7L107.5,155.7z
		 M107.5,145.9l-5.6,7.8h5.6V145.9L107.5,145.9L107.5,145.9z"/>
	<path class="st0" d="M114.1,142.7h12.2v2c-1.6,1.8-3.1,4-4.5,6.8c-1.4,2.8-2.3,5.6-2.8,8.5h-2.4c0.3-2.1,1-4.5,2.3-7.2
		c1.3-2.7,2.9-5.3,4.9-7.7h-9.7V142.7L114.1,142.7z"/>
</g>
</svg>
