<?xml version="1.0" encoding="utf-8"?>
<!-- Generator: Adobe Illustrator 21.1.0, SVG Export Plug-In . SVG Version: 6.00 Build 0)  -->
<svg version="1.1" id="Layer_1" xmlns="http://www.w3.org/2000/svg" xmlns:xlink="http://www.w3.org/1999/xlink" x="0px" y="0px"
	 viewBox="0 0 200 200" style="enable-background:new 0 0 200 200;" xml:space="preserve">
<style type="text/css">
	.st0{fill:#FFFFFF;}
	.st1{fill:#2C4891;}
	.st2{fill:#F8DB71;}
</style>
<g>
	<path class="st0" d="M20.8,0.8c-9,0-16.3,7.3-16.3,16.3v165.8c0,9,7.3,16.3,16.3,16.3h158.3c9,0,16.3-7.3,16.3-16.3V17.1
		c0-9-7.3-16.3-16.3-16.3H20.8z"/>
	<path class="st1" d="M20.8,3.5c-7.5,0-13.6,6.1-13.6,13.6v165.8c0,7.5,6.1,13.6,13.6,13.6h158.3c7.5,0,13.6-6.1,13.6-13.6V17.1
		c0-7.5-6.1-13.6-13.6-13.6C179.2,3.5,20.8,3.5,20.8,3.5z"/>
	<path class="st2" d="M9.5,182.9c0,6.3,5.1,11.4,11.4,11.4h158.3c6.3,0,11.4-5.1,11.4-11.4V17.1c0-6.3-5.1-11.4-11.4-11.4H20.8
		c-6.3,0-11.4,5.1-11.4,11.4L9.5,182.9L9.5,182.9z"/>
	<path d="M75,180l-2.8,7.4h1l0.8-2.3h3.1l0.9,2.3h1.1l-3-7.4H75z M74.3,184.4l0.8-2.2c0.2-0.5,0.3-1,0.4-1.4
		c0.1,0.4,0.3,0.9,0.5,1.6l0.8,2.1H74.3L74.3,184.4z"/>
	<polygon points="84.9,185.9 80.9,180 79.9,180 79.9,187.5 80.9,187.5 80.9,181.6 84.8,187.5 85.8,187.5 85.8,180 84.9,180 	"/>
	<polygon points="92.4,185.9 88.4,180 87.4,180 87.4,187.5 88.4,187.5 88.4,181.6 92.3,187.5 93.3,187.5 93.3,180 92.4,180 	"/>
	<path d="M100.1,180.4c-0.6-0.3-1.2-0.5-1.9-0.5c-1.1,0-1.9,0.3-2.6,1c-0.7,0.7-1,1.7-1,2.9c0,0.7,0.1,1.3,0.4,1.9
		c0.3,0.6,0.7,1,1.3,1.4c0.6,0.3,1.2,0.5,1.9,0.5c0.6,0,1.3-0.2,1.8-0.5c0.6-0.3,1-0.8,1.3-1.4c0.3-0.6,0.5-1.3,0.5-2
		c0-0.7-0.1-1.4-0.4-2C101.1,181.2,100.6,180.7,100.1,180.4z M100.1,186c-0.5,0.5-1.1,0.8-1.8,0.8c-0.7,0-1.3-0.3-1.8-0.8
		c-0.5-0.5-0.7-1.2-0.7-2.1c0-1.1,0.3-1.9,0.8-2.4c0.5-0.5,1.1-0.7,1.8-0.7c0.5,0,0.9,0.1,1.3,0.4c0.4,0.2,0.7,0.6,0.9,1.1
		c0.2,0.5,0.3,1,0.3,1.6C100.8,184.7,100.5,185.4,100.1,186z"/>
	<path d="M107.6,181c-0.4,0.3-0.8,0.6-1.3,0.9v0.9c0.3-0.1,0.6-0.3,1-0.5c0.4-0.2,0.6-0.4,0.9-0.6v5.8h0.9V180h-0.6
		C108.3,180.3,108,180.6,107.6,181z"/>
	<path d="M115,180.4c-0.4-0.3-0.8-0.4-1.3-0.4c-0.7,0-1.2,0.2-1.7,0.7c-0.4,0.5-0.7,1.1-0.7,1.8c0,0.7,0.2,1.3,0.6,1.8
		c0.4,0.4,0.9,0.7,1.6,0.7c0.4,0,0.7-0.1,1-0.3c0.3-0.2,0.6-0.4,0.7-0.7c0,0.1,0,0.1,0,0.2c0,0.4,0,0.8-0.1,1.1
		c-0.1,0.4-0.2,0.7-0.3,0.9c-0.1,0.2-0.3,0.4-0.5,0.5c-0.2,0.1-0.5,0.2-0.7,0.2c-0.3,0-0.6-0.1-0.8-0.3c-0.2-0.2-0.4-0.5-0.4-0.9
		l-0.9,0.1c0.1,0.6,0.3,1,0.7,1.4c0.4,0.3,0.8,0.5,1.4,0.5c0.5,0,1-0.1,1.4-0.4c0.4-0.3,0.7-0.7,0.9-1.3s0.3-1.3,0.3-2.3
		c0-0.9-0.1-1.6-0.3-2.1C115.7,181,115.4,180.6,115,180.4z M114.8,183.7c-0.3,0.3-0.6,0.4-1,0.4c-0.4,0-0.8-0.1-1.1-0.4
		c-0.3-0.3-0.4-0.7-0.4-1.2c0-0.5,0.1-1,0.4-1.3c0.3-0.3,0.6-0.5,1.1-0.5c0.4,0,0.7,0.2,1,0.5c0.3,0.3,0.4,0.7,0.4,1.2
		C115.2,183,115.1,183.4,114.8,183.7z"/>
	<path d="M120.8,180.4c-0.4-0.3-0.8-0.4-1.3-0.4c-0.7,0-1.2,0.2-1.7,0.7c-0.4,0.5-0.7,1.1-0.7,1.8c0,0.7,0.2,1.3,0.6,1.8
		c0.4,0.4,0.9,0.7,1.6,0.7c0.4,0,0.7-0.1,1-0.3c0.3-0.2,0.6-0.4,0.7-0.7c0,0.1,0,0.1,0,0.2c0,0.4,0,0.8-0.1,1.1
		c-0.1,0.4-0.2,0.7-0.3,0.9s-0.3,0.4-0.5,0.5c-0.2,0.1-0.5,0.2-0.7,0.2c-0.3,0-0.6-0.1-0.8-0.3c-0.2-0.2-0.4-0.5-0.4-0.9l-0.9,0.1
		c0.1,0.6,0.3,1,0.7,1.4c0.4,0.3,0.8,0.5,1.4,0.5c0.5,0,1-0.1,1.4-0.4c0.4-0.3,0.7-0.7,0.9-1.3c0.2-0.6,0.3-1.3,0.3-2.3
		c0-0.9-0.1-1.6-0.3-2.1C121.5,181,121.2,180.6,120.8,180.4z M120.6,183.7c-0.3,0.3-0.6,0.4-1,0.4c-0.4,0-0.8-0.1-1.1-0.4
		c-0.3-0.3-0.4-0.7-0.4-1.2c0-0.5,0.1-1,0.4-1.3c0.3-0.3,0.6-0.5,1.1-0.5c0.4,0,0.7,0.2,1,0.5c0.3,0.3,0.4,0.7,0.4,1.2
		C121,183,120.9,183.4,120.6,183.7z"/>
	<path d="M123,180.1v0.9h3.6c-0.5,0.5-0.9,1.2-1.3,2c-0.4,0.8-0.7,1.6-0.9,2.4c-0.2,0.8-0.3,1.5-0.3,2.1h0.9
		c0.1-0.7,0.2-1.4,0.3-2.1c0.3-0.9,0.6-1.7,1.1-2.6c0.5-0.8,0.9-1.5,1.4-2v-0.7L123,180.1L123,180.1z"/>
	<polygon points="47.1,56.7 49.8,56.7 49.8,53.2 53.2,53.2 53.2,51.4 49.8,51.4 49.8,49.9 53.8,49.9 53.8,48 47.1,48 	"/>
	<polygon points="64.4,48 60.8,48 58,51.3 58,48 55.3,48 55.3,56.7 58,56.7 58,54.6 59.4,53.2 61.3,56.7 64.6,56.7 61.2,51.3 	"/>
	<polygon points="75.4,54.3 73.4,48 70.6,48 73.9,56.7 76.9,56.7 80.1,48 77.4,48 	"/>
	<polygon points="83.7,53 87.9,53 87.9,51.3 83.7,51.3 83.7,49.9 88.3,49.9 88.3,48 81,48 81,56.7 88.4,56.7 88.4,54.8 83.7,54.8 	
		"/>
	<polygon points="95.7,52.8 92.5,48 89.9,48 89.9,56.7 92.5,56.7 92.5,51.9 95.7,56.7 98.3,56.7 98.3,48 95.7,48 	"/>
	<polygon points="99.5,50.2 102.3,50.2 102.3,56.7 105,56.7 105,50.2 107.7,50.2 107.7,48 99.5,48 	"/>
	<path d="M115,51.6c-0.5-0.3-1.4-0.5-2.5-0.8c-0.5-0.1-0.8-0.2-0.9-0.3c-0.1-0.1-0.2-0.2-0.2-0.4c0-0.2,0.1-0.4,0.2-0.5
		c0.2-0.1,0.4-0.2,0.7-0.2c0.4,0,0.7,0.1,0.9,0.3c0.2,0.2,0.4,0.5,0.4,0.9l2.5-0.1c-0.1-0.9-0.5-1.6-1.1-2c-0.6-0.4-1.4-0.6-2.6-0.6
		c-0.9,0-1.6,0.1-2.1,0.3c-0.5,0.2-0.9,0.5-1.2,0.9c-0.3,0.4-0.4,0.8-0.4,1.3c0,0.7,0.3,1.2,0.8,1.7c0.5,0.4,1.3,0.8,2.5,1.1
		c0.7,0.2,1.2,0.3,1.4,0.5c0.2,0.2,0.3,0.4,0.3,0.6c0,0.2-0.1,0.4-0.3,0.6c-0.2,0.2-0.5,0.3-0.9,0.3c-0.5,0-0.9-0.2-1.2-0.5
		c-0.2-0.2-0.3-0.5-0.3-1l-2.6,0.2c0.1,0.9,0.4,1.6,1,2.2c0.6,0.6,1.6,0.9,3.1,0.9c0.8,0,1.5-0.1,2.1-0.4c0.6-0.2,1-0.6,1.3-1.1
		c0.3-0.5,0.5-1,0.5-1.6c0-0.5-0.1-0.9-0.3-1.3C115.9,52.2,115.5,51.9,115,51.6z"/>
	<path d="M122.3,48h-4.5v8.7h2.7v-3.2h1.5c1.1,0,1.9-0.2,2.4-0.7c0.5-0.5,0.8-1.2,0.8-2.1c0-0.9-0.2-1.5-0.7-2
		C124,48.2,123.3,48,122.3,48z M122.3,51.5c-0.2,0.2-0.6,0.3-1.1,0.3h-0.7v-2h0.8c0.5,0,0.8,0.1,1,0.3c0.2,0.2,0.3,0.4,0.3,0.7
		C122.6,51.1,122.5,51.3,122.3,51.5z"/>
	<rect x="126.8" y="48" width="2.7" height="8.7"/>
	<polygon points="134.2,48 131.5,48 131.5,56.7 138.4,56.7 138.4,54.6 134.2,54.6 	"/>
	<path d="M145.7,51.6c-0.5-0.3-1.4-0.5-2.5-0.8c-0.5-0.1-0.8-0.2-0.9-0.3c-0.1-0.1-0.2-0.2-0.2-0.4c0-0.2,0.1-0.4,0.2-0.5
		c0.2-0.1,0.4-0.2,0.7-0.2c0.4,0,0.7,0.1,0.9,0.3c0.2,0.2,0.4,0.5,0.4,0.9l2.5-0.1c-0.1-0.9-0.5-1.6-1.1-2c-0.6-0.4-1.4-0.6-2.6-0.6
		c-0.9,0-1.6,0.1-2.2,0.3c-0.5,0.2-0.9,0.5-1.2,0.9c-0.3,0.4-0.4,0.8-0.4,1.3c0,0.7,0.3,1.2,0.8,1.7c0.5,0.4,1.3,0.8,2.5,1.1
		c0.7,0.2,1.2,0.3,1.4,0.5c0.2,0.2,0.3,0.4,0.3,0.6c0,0.2-0.1,0.4-0.3,0.6c-0.2,0.2-0.5,0.3-0.9,0.3c-0.5,0-0.9-0.2-1.2-0.5
		c-0.2-0.2-0.3-0.5-0.3-1l-2.6,0.2c0.1,0.9,0.4,1.6,1,2.2c0.6,0.6,1.6,0.9,3.1,0.9c0.8,0,1.5-0.1,2.1-0.4c0.6-0.2,1-0.6,1.3-1.1
		c0.3-0.5,0.5-1,0.5-1.6c0-0.5-0.1-0.9-0.3-1.3C146.6,52.2,146.2,51.9,145.7,51.6z"/>
	<circle cx="151.1" cy="52.5" r="1.8"/>
	<circle cx="68.1" cy="52.5" r="1.8"/>
	<path class="st1" d="M109.1,38c2.5-2.4,4-5.8,4-9.5c0-7.3-5.9-13.2-13.2-13.2c-7.3,0-13.2,5.9-13.2,13.2c0,3.7,1.5,7.1,4,9.5h-62
		l7.6,7.5h127.1l7.6-7.5C171.1,38,109.1,38,109.1,38z M100,22.4c3.4,0,6.1,2.8,6.1,6.1s-2.8,6.1-6.1,6.1c-3.4,0-6.1-2.8-6.1-6.1
		C93.9,25.2,96.6,22.4,100,22.4z"/>
	<path class="st1" d="M167,125.7l-31.4,29.1H64.4L33,125.7c-1.7-1.5-3.1-3.8-4.2-9c0,10.3,0.5,15.7,3.6,18.6l29,27h77.2l29-27
		c3.1-2.9,3.5-8.3,3.6-18.6C170.1,121.9,168.7,124.2,167,125.7z"/>
	<path class="st1" d="M167,140.8l-27.5,25.5h-79L33,140.8c-1.7-1.5-3.1-3.8-4.2-9c0,10.3,0.5,15.7,3.6,18.6l25.2,23.4h84.9
		l25.2-23.4c3.1-2.9,3.5-8.3,3.6-18.6C170.1,136.9,168.7,139.2,167,140.8z"/>
	<path class="st1" d="M159.7,86.9c-2.9-3.1-8.3-3.5-18.6-3.6c5.1,1.1,7.4,2.5,9,4.2l19.4,20.9l-3.4,3.1l-22.8-24.6
		c-2.9-3.1-8.3-3.5-18.6-3.6c5.1,1.1,7.4,2.5,9,4.2l27,29.1l-28.8,26.8l-22.1,0V72.5c0-3.2,2.6-5.8,5.8-5.8H142l7.6-7.5H50.4
		l7.6,7.5h26.5c3.2,0,5.8,2.6,5.8,5.8v70.8l-22.1,0l-28.8-26.8l27-29.1c1.5-1.7,3.8-3.1,9-4.2c-10.3,0-15.7,0.5-18.6,3.6l-22.8,24.6
		l-3.4-3.1l19.4-20.9c1.5-1.7,3.8-3.1,9-4.2c-10.3,0-15.7,0.5-18.6,3.6L28.8,99.3c0,11.8,0.2,17.9,3.6,21l32.9,30.6h25
		c4.1,0,7.5-3.4,7.5-7.5V66.7h4.5v76.6c0,4.1,3.4,7.5,7.5,7.5h25l32.9-30.6c3.3-3.1,3.6-9.1,3.6-21L159.7,86.9z"/>
	<circle class="st0" cx="100" cy="106.7" r="31.2"/>
	<circle cx="100" cy="106.7" r="29"/>
	<polygon class="st0" points="108.8,80.1 91.2,80.1 87.5,88.5 91.3,93.7 108.7,93.7 112.4,88.5 	"/>
	<polygon class="st0" points="121,112.8 127.8,106.7 122.4,90 113.3,89.1 109.5,94.2 114.9,110.8 	"/>
	<polygon class="st0" points="85.1,110.8 90.5,94.3 86.7,89.1 77.6,90 72.2,106.7 79,112.8 	"/>
	<polygon class="st0" points="79.3,113.7 77.3,122.7 91.5,133 99.4,128.4 99.5,122 85.4,111.7 	"/>
	<polygon class="st0" points="114.6,111.7 100.5,122 100.5,128.4 108.5,133 122.6,122.7 120.7,113.7 	"/>
</g>
</svg>
