<?xml version="1.0" encoding="utf-8"?>
<!-- Generator: Adobe Illustrator 21.1.0, SVG Export Plug-In . SVG Version: 6.00 Build 0)  -->
<svg version="1.1" id="Layer_1" xmlns="http://www.w3.org/2000/svg" xmlns:xlink="http://www.w3.org/1999/xlink" x="0px" y="0px"
	 viewBox="0 0 200 200" style="enable-background:new 0 0 200 200;" xml:space="preserve">
<style type="text/css">
	.st0{fill:#E6E6E6;}
	.st1{fill:#1A478F;}
	.st2{fill:#FFFFFF;stroke:#1A478F;stroke-width:0.1326;stroke-miterlimit:2.6131;}
	.st3{fill:#FFFFFF;stroke:#1A478F;stroke-width:0.459;stroke-miterlimit:2.6131;}
	.st4{fill:none;stroke:#1A478F;stroke-width:0.3443;stroke-miterlimit:2.6131;}
	.st5{fill:#1A478F;stroke:#1A478F;stroke-width:0.261;stroke-miterlimit:2.6131;}
	.st6{fill:#FFFFFF;}
</style>
<g id="_x3C_Group_x3E_" transform="translate(-16.258,-16.257006)">
	<path id="path7" class="st0" d="M116.3,16.3c55,0,100,45,100,100s-45,100-100,100s-100-45-100-100C16.3,61.2,61.2,16.3,116.3,16.3z
		"/>
	<path id="path9" class="st1" d="M116.6,65.6c17.7,11.4,36.8,11.4,56.5,11c-0.1,56.9-19.6,92.2-53.9,109.7c-0.9-0.4-1.8-0.8-2.6-1.2
		L116.6,65.6C116.6,65.6,116.6,65.6,116.6,65.6z M116.6,213.1c26.5-0.1,50.6-11,68.1-28.4c17.5-17.6,28.4-41.8,28.4-68.4
		c0-26.6-10.9-50.9-28.4-68.5c-17.5-17.4-41.5-28.3-68.1-28.4v1.3c26.1,0.1,49.9,10.8,67.1,28c17.3,17.3,28.1,41.2,28.1,67.5h-0.1
		h0.1c0,26.3-10.8,50.2-28.1,67.5c-17.2,17.2-41,27.9-67.1,28L116.6,213.1L116.6,213.1z M116.6,209.5c51.2-0.2,92.8-42,92.8-93.2
		c0-51.2-41.6-93-92.8-93.2v22.8c38.6,0.2,70.1,31.8,70.1,70.4s-31.4,70.2-70.1,70.4V209.5z M60.1,76c23.6,0.1,32.8-12,38.4-27.2
		c5.8,7.3,11.9,12.7,18.1,16.8V185C81.8,168.8,65,131,60.1,76L60.1,76z M116.6,19.4h-0.4c-26.6,0-50.9,10.9-68.4,28.4
		c-17.5,17.6-28.4,41.8-28.4,68.5c0,26.6,10.9,50.9,28.4,68.4c17.6,17.5,41.8,28.4,68.4,28.4h0.4v-1.3c-0.2,0-0.3,0.1-0.4,0.1v-0.1
		v0.1c-26.3,0-50.2-10.8-67.5-28.1c-17.3-17.3-28-41.2-28.1-67.5h0.1h-0.1c0-26.3,10.8-50.2,28.1-67.5
		c17.3-17.3,41.2-28.1,67.5-28.1v0.1v-0.1c0.1,0,0.2,0.1,0.4,0.1V19.4L116.6,19.4z M116.6,23h-0.4C65,23,23,64.9,23,116.3
		s41.9,93.2,93.2,93.2h0.4v-22.8h-0.4c-38.8,0-70.4-31.7-70.4-70.4s31.7-70.4,70.4-70.4h0.4V23L116.6,23z"/>
	<path id="path11" class="st2" d="M118.2,124.6c7.9,0,14.5-6.5,14.5-14.3c0-7.9-6.5-14.5-14.5-14.5c-7.9,0-14.4,6.5-14.4,14.5
		C103.8,118.1,110.3,124.6,118.2,124.6z"/>
	<path id="path13" class="st3" d="M118.2,124c7.6,0,13.8-6.2,13.8-13.8c0-7.6-6.2-13.8-13.8-13.8c-7.6,0-13.8,6.2-13.8,13.8
		C104.4,117.8,110.6,124,118.2,124z"/>
	<polygon id="polygon15" class="st4" points="114.3,111.1 109,111 109,111 109,111 109,111 109,111 109.1,110.9 109.1,110.9 
		109,110.9 114.3,111 	"/>
	<polygon id="polygon17" class="st4" points="126.1,119.5 126.2,119.5 126.1,119.5 126.2,119.5 126.2,119.6 126.2,119.6 
		126.2,119.6 120.7,122.5 120.7,122.3 	"/>
	<polygon id="polygon19" class="st4" points="111.5,120.9 111.5,121 111.5,120.9 111.5,121 111.3,121 111.3,121 111.4,121.1 
		107.7,115.8 107.8,115.8 	"/>
	<polygon id="polygon21" class="st4" points="116.4,120 117.9,115 118,115.1 116.5,120.1 116.5,120 116.5,120 	"/>
	<polygon id="polygon23" class="st4" points="122.7,113.2 126.8,115.2 126.8,115.2 126.9,115.4 126.8,115.4 126.8,115.4 
		126.9,115.4 126.9,115.4 126.8,115.4 122.7,113.3 	"/>
	<polygon id="polygon25" class="st4" points="130.2,112.9 130.2,112.8 130.1,113 130.1,112.9 130.1,113 130.1,113 130.1,112.9 
		130.1,107 130.3,107 	"/>
	<polygon id="polygon27" class="st4" points="126,105.1 122.8,107.8 122.7,107.8 122.8,107.8 122.7,107.9 122.7,107.8 122.7,107.7 
		122.7,107.7 122.6,107.7 125.9,105 	"/>
	<polygon id="polygon29" class="st4" points="110,101.9 110,102 110.1,102 110.1,102 110.1,102 110.1,102 110.1,102 107.4,107.2 
		107.3,107.2 	"/>
	<polygon id="polygon31" class="st4" points="115,101.8 116.9,106.6 116.9,106.7 116.9,106.6 117,106.7 116.9,106.7 116.8,106.6 
		116.8,106.6 116.8,106.7 114.8,101.9 	"/>
	<polygon id="polygon33" class="st4" points="124.7,99.9 124.7,100 124.7,100 118,98.8 118,98.7 	"/>
	<polygon id="polygon35" class="st5" points="129.2,118.7 128.9,119 128.7,119.3 128.4,119.6 128.2,119.8 126.2,119.5 126.8,115.3 
		130.1,112.9 130.1,112.9 131.5,114.2 131.3,114.7 131.2,115.1 131,115.5 130.8,115.9 130.6,116.3 130.4,116.6 130.2,117 130,117.4 
		129.8,117.6 129.6,118 129.4,118.4 	"/>
	<polygon id="polygon37" class="st5" points="117.9,115.1 122.7,113.2 122.7,107.8 116.9,106.7 114.3,111.1 114.3,111.1 	"/>
	<polygon id="polygon39" class="st5" points="104.4,110.7 104.4,110.3 104.5,110 104.5,109.5 104.5,109.2 104.5,108.8 104.6,108.4 
		107.4,107.2 107.4,107.2 109,110.9 107.8,115.8 105.1,115.1 105,114.7 104.8,114.2 104.7,113.7 104.6,113.3 104.6,112.8 
		104.5,112.5 104.5,112 104.4,111.6 104.4,111.1 	"/>
	<polygon id="polygon41" class="st5" points="114.5,123.6 114.8,123.7 115,123.8 115.3,123.9 115.6,123.9 115.8,123.9 116.1,123.9 
		116.3,124 116.5,124 116.8,124 117,124 117.3,124 117.5,124 117.8,124 118,124 118.2,124 118.5,124 118.7,123.9 119,123.9 
		119.2,123.9 119.5,123.9 120.7,122.4 116.5,120 111.4,121 111.4,121 111.3,122.4 111.6,122.6 111.9,122.7 112.2,122.8 112.5,122.9 
		112.7,123 113,123.2 113.3,123.3 113.5,123.4 113.8,123.4 114.1,123.5 114.3,123.6 	"/>
	<polygon id="polygon43" class="st5" points="113.9,97.1 113.7,97.2 113.5,97.2 113.3,97.3 113.2,97.3 113.1,97.4 112.8,97.4 
		112.7,97.6 112.5,97.6 112.3,97.7 112.2,97.7 112,97.8 111.8,97.9 111.7,98 111.6,98.1 111.4,98.2 111.2,98.3 111.1,98.3 
		110.9,98.4 110.7,98.6 110.6,98.7 110.4,98.8 110.3,98.8 110.1,98.9 110.1,98.9 110,102 114.9,101.9 118,98.8 115.4,96.7 
		115.3,96.8 115,96.8 114.9,96.8 114.7,96.9 114.5,96.9 114.4,97 114.2,97 114,97.1 	"/>
	<polygon id="polygon45" class="st5" points="130.2,103.6 130.1,103.4 129.9,103.1 129.8,102.9 129.7,102.6 129.5,102.4 
		129.4,102.2 129.2,102 129.1,101.8 128.9,101.6 128.8,101.4 128.6,101.3 128.4,101 128.3,100.9 128.1,100.7 127.9,100.5 
		127.7,100.3 127.5,100.2 127.3,100 127.2,99.9 127,99.7 126.7,99.5 126.6,99.4 126.3,99.3 126.3,99.3 124.7,99.9 125.9,105.1 
		130.2,107 131.2,105.9 131,105.6 131,105.3 130.9,105.1 130.8,104.8 130.7,104.6 130.5,104.3 130.4,104 130.3,103.8 	"/>
	<polygon id="polygon47" class="st5" points="130.1,117.4 129.9,117.3 129.9,117.3 130.2,116.9 130.3,117 	"/>
	<path id="path49" class="st6" d="M198.5,99.5v-4.2c0.1-0.1,0.2-0.1,0.3-0.1c0.7-0.2,1.2-0.4,1.4-0.8c0.2-0.3,0.2-0.7,0.1-1.3
		c0-0.1-0.1-0.2-0.1-0.2c-0.1-0.1-0.1-0.1-0.2,0h-0.1l-0.1,0.1l-1.3,0.4V88c0.1-0.1,0.2-0.2,0.2-0.3c0.1-0.1,0.1-0.3,0.1-0.5
		c0.1-0.6,0.3-0.9,0.7-1c0.4-0.1,0.7-0.1,0.9,0.2c0.3,0.3,0.5,0.7,0.7,1.3c0.1,0.3,0.2,0.7,0.3,1.2c0.2,0.6,0.3,1,0.4,1.3
		c0.1,0.6,0.3,1.3,0.6,2c0.2,0.8,0.4,1.4,0.5,1.6c0.5,1.8,0.6,3.1,0.3,4.1c-0.3,0.9-1,1.6-2.2,1.9c-0.5,0.1-0.9,0.2-1.3,0.2
		c-0.4-0.1-0.8-0.2-1.1-0.4C198.7,99.5,198.5,99.5,198.5,99.5z M198.5,81.9v-1.4c0.1,0.3,0.1,0.5,0.1,0.7
		C198.7,81.5,198.7,81.8,198.5,81.9z M200,128.7c0.2,0,0.3-0.1,0.4-0.2c0.1-0.1,0.2-0.3,0.2-0.6c0.1-0.3,0.1-0.7,0.1-1.2
		c0-0.6,0.1-1.2,0.1-1.9c0-0.4-0.1-0.7-0.2-0.8c-0.1-0.1-0.3-0.1-0.6-0.1h-0.3h-0.2c-0.2,0-0.3-0.1-0.4-0.1
		c-0.1-0.1-0.2-0.2-0.2-0.4c0-0.2,0.1-0.3,0.3-0.6c0.2-0.2,0.6-0.3,1-0.5c0.5-0.2,1.1-0.4,1.8-0.6c0.7-0.1,1.3-0.2,1.9-0.2
		c0.4,0,0.7,0.1,0.8,0.2c0.2,0.1,0.2,0.2,0.2,0.4c0,0.3-0.2,0.4-0.4,0.6c-0.1,0.1-0.2,0.1-0.3,0.1c-0.1,0.1-0.2,0.2-0.2,0.4
		c-0.1,0.2-0.1,0.6-0.1,1.3v0.8c0,1.2,0,1.9,0.1,2.3c0.1,0.4,0.1,0.6,0.2,0.7c0.2,0.1,0.5,0.2,0.8,0.3h0.3c0.1,0.1,0.2,0.1,0.3,0.2
		c0.1,0.1,0.1,0.2,0.1,0.4c0,0.3-0.3,0.6-0.7,0.7c-0.4,0.2-1.3,0.2-2.4,0.2c-1.5,0-2.5-0.1-3.1-0.2c-0.6-0.1-0.8-0.4-0.8-0.7
		c0-0.2,0.1-0.3,0.2-0.4c0.1-0.1,0.3-0.2,0.5-0.2h0.2C199.9,128.7,200,128.7,200,128.7L200,128.7z M198.5,80.5v1.4
		c-0.1,0.2-0.2,0.3-0.4,0.4c-0.3,0.2-0.8,0.1-1.2-0.2c-0.1-0.1-0.2-0.1-0.2-0.2c-0.3-0.2-0.9-0.1-1.7,0.3c-0.1,0.1-0.2,0.1-0.2,0.1
		c-0.5,0.3-1.2,0.6-2.1,1V80c0.8-0.4,1.3-0.7,1.6-0.9c0.3-0.2,0.5-0.4,0.6-0.6v-0.8c0-0.4,0.1-0.7,0.4-0.9c0.3-0.2,0.8-0.1,1.3,0.3
		c0.4,0.4,0.9,1.1,1.4,2C198.3,79.7,198.4,80.1,198.5,80.5L198.5,80.5z M198.5,88v5.3l-1.5,0.4c-0.2,0.1-0.3,0.1-0.3,0.2
		c-0.1,0.1-0.1,0.2,0,0.3c0.2,0.5,0.4,0.9,0.7,1c0.3,0.1,0.7,0.1,1.2,0.1v4.2l-0.3-0.2c-0.2-0.2-0.4-0.3-0.6-0.3
		c-0.1,0.1-0.2,0.2-0.2,0.6v0.7c-0.1,0.6-0.3,1.1-0.8,1.5c-0.4,0.4-1,0.8-1.7,0.9c-0.8,0.3-1.5,0.3-2.3,0.2v-5.5
		c0.2,0,0.4-0.1,0.6-0.1c0.6-0.2,1-0.4,1.2-0.8c0.2-0.4,0.2-0.9,0.1-1.5c-0.1-0.3-0.2-0.4-0.2-0.4c-0.1-0.1-0.2-0.1-0.4,0
		c-0.4,0.1-0.8,0.2-1.2,0.3v-5.2c0.7-0.2,1.5-0.4,2.4-0.7l1.5-0.4c0.8-0.2,1.4-0.4,1.7-0.6C198.4,88.1,198.5,88,198.5,88L198.5,88z
		 M192.8,162.6v-10.9c0.3,0.1,0.6,0.2,0.9,0.4c1.2,0.7,1.9,1.6,2.2,2.8c0.2,1.2,0,2.4-0.8,3.7L192.8,162.6z M192.8,130.1v-3.5
		c0.2-0.2,0.3-0.3,0.3-0.5c0.3-0.4,0.4-0.8,0.4-1.1c0-0.2-0.1-0.3-0.2-0.4c-0.2-0.1-0.3-0.2-0.5-0.2h-0.1v-2.4
		c0.6-0.2,1.2-0.2,1.8-0.2c0.9,0,1.7,0.2,2.3,0.7c0.6,0.4,0.9,1,0.9,1.7c0,0.4-0.1,0.7-0.3,1c-0.2,0.3-0.5,0.8-1,1.3
		c-0.1,0.1-0.2,0.2-0.4,0.4c-0.4,0.3-0.6,0.6-0.6,0.8c0,0.1,0.1,0.2,0.2,0.3c0.1,0.1,0.2,0.1,0.3,0.1c0.1,0,0.3,0,0.4-0.1
		c0.2-0.1,0.3-0.1,0.4-0.2c0.1-0.1,0.2-0.1,0.3-0.2c0.2-0.2,0.4-0.3,0.5-0.3c0.2,0,0.3,0.1,0.5,0.3c0.1,0.2,0.2,0.5,0.2,0.8
		c0,0.7-0.2,1.3-0.5,1.8c-0.3,0.5-0.7,0.8-1,0.8c-0.1,0-0.2-0.1-0.3-0.1c-0.1-0.1-0.2-0.2-0.3-0.3c-0.1-0.2-0.2-0.3-0.3-0.3
		c-0.2,0-0.4-0.1-0.7-0.1L192.8,130.1L192.8,130.1L192.8,130.1z M192.8,74.7v-5.1c0.3,0.4,0.7,0.9,0.9,1.5c0.6,1.1,0.9,1.9,0.9,2.5
		c0.1,0.6-0.1,0.9-0.6,1.2C193.7,75.1,193.3,75.1,192.8,74.7L192.8,74.7z M192.8,69.6v5.1l-0.1-0.1c-0.1-0.1-0.2-0.1-0.3-0.2
		c-0.1-0.1-0.6,0.1-1.3,0.4c-0.2,0.1-0.5,0.2-0.8,0.4v-7.2c0.4-0.2,0.9-0.1,1.5,0.4C192.1,68.8,192.4,69.2,192.8,69.6z M192.8,80
		v3.4l-0.3,0.1c-0.9,0.4-1.6,0.8-2.3,1v-3.2c0.5-0.2,1.1-0.6,1.8-0.9l0.5-0.3C192.5,80.1,192.8,80,192.8,80z M192.8,89.7v5.2
		l-0.2,0.1c-0.4,0.1-0.8,0.2-1,0.3c-0.4,0.1-0.7,0.3-0.7,0.4c-0.1,0.1-0.1,0.3,0.1,0.6c0.1,0.5,0.4,0.9,0.8,1c0.3,0.1,0.7,0.1,1,0.1
		v5.5c-0.4-0.1-0.8-0.3-1.2-0.6c-0.6-0.3-1-0.7-1.3-1.3V90.3c0.4-0.1,0.9-0.2,1.5-0.3C192.1,89.9,192.4,89.8,192.8,89.7L192.8,89.7z
		 M192.8,121.9v2.4c-0.2,0-0.4,0.1-0.7,0.3l-0.1,0.1l-0.1,0.1c-0.2,0.2-0.4,0.3-0.6,0.3c-0.3,0-0.5-0.1-0.7-0.3
		c-0.2-0.2-0.3-0.4-0.3-0.7c0-0.2,0.1-0.4,0.2-0.6c0.1-0.2,0.3-0.4,0.5-0.6c0.4-0.4,1-0.7,1.5-0.9C192.6,122,192.7,122,192.8,121.9z
		 M192.8,126.6v3.5h-1.6c-0.3,0-0.5,0-0.7-0.1c-0.2-0.1-0.2-0.2-0.2-0.3s0.3-0.6,0.8-1.1c0.3-0.4,0.6-0.7,0.8-0.9
		C192.3,127.2,192.5,126.9,192.8,126.6L192.8,126.6z M192.8,151.7v10.9l-1.7,2.9c-0.3,0.6-0.6,0.9-0.9,1v-7.1
		c0.2,0.1,0.4,0.2,0.6,0.3c0.4,0.2,0.6,0.3,0.8,0.2c0.1-0.1,0.3-0.2,0.4-0.4c0.2-0.4,0.3-0.9,0.1-1.3c-0.2-0.4-0.6-0.8-1.2-1.2
		c-0.3-0.2-0.5-0.3-0.7-0.3v-4.7c0.4-0.3,1-0.5,1.6-0.5C192.2,151.6,192.4,151.6,192.8,151.7L192.8,151.7z M190.2,68.1v7.2
		c-0.7,0.3-1.4,0.7-2.4,1.2c-1.2,0.6-2,1.3-2.3,1.9c-0.3,0.6-0.3,1.4,0.2,2.2c0.2,0.4,0.5,0.8,0.8,1.1c0.3,0.3,0.7,0.4,1,0.4
		c0.3,0.1,0.8,0,1.4-0.2c0.3-0.1,0.7-0.3,1.2-0.6v3.2c-1,0.4-1.8,0.7-2.4,0.7c-1.1,0.1-2.2-0.2-3.1-0.9c-0.5-0.3-0.9-0.8-1.3-1.3
		v-9.9c0.1-0.1,0.1-0.1,0.2-0.1l4.4-2.3l0.2-0.1c0.6-0.3,0.9-0.6,1.1-0.7c0.2-0.2,0.2-0.4,0.3-0.7v-0.1c0.1-0.6,0.2-1,0.6-1.2
		C190.2,68.1,190.2,68.1,190.2,68.1L190.2,68.1z M190.2,90.3v10.8c-0.4-0.5-0.7-1.1-0.9-1.8l-2.2-7.7c-0.2-0.6-0.2-1-0.1-1.4
		c0.1-0.3,0.3-0.6,0.6-0.6c0.2-0.1,0.4-0.1,0.6-0.1c0.2,0.1,0.3,0.1,0.3,0.2c0.1,0.2,0.2,0.3,0.4,0.5c0.3,0.1,0.6,0.2,0.8,0.2
		C189.8,90.3,190,90.3,190.2,90.3L190.2,90.3z M190.2,152.1v4.7c-0.3-0.1-0.5-0.1-0.7,0c-0.4,0.1-0.8,0.5-1.2,1
		c-0.1,0.2-0.2,0.3-0.1,0.4c0,0.1,0.1,0.2,0.3,0.3c0.4,0.2,0.9,0.5,1.3,0.7c0.2,0.1,0.3,0.2,0.4,0.2v7.1h-0.1
		c-0.3,0.2-0.6,0.2-0.9,0c-0.2-0.1-0.3-0.2-0.4-0.4c-0.1-0.2-0.1-0.3-0.1-0.3c0.1-0.2,0.1-0.3,0-0.6c-0.1-0.3-0.2-0.6-0.4-0.7
		c-0.3-0.3-0.9-0.7-1.7-1.2c-0.8-0.6-1.8-1.2-3-1.8l-0.3-0.2v-5.7l2.4,1.4c0.2,0.1,0.3,0.1,0.3,0.1c0.1-0.1,0.2-0.1,0.2-0.2
		c0.3-0.5,0.3-0.9,0.2-1.3c-0.1-0.3-0.5-0.7-1.1-1c-0.6-0.4-1.2-0.6-1.5-0.5c-0.2,0.1-0.4,0.2-0.6,0.3v-4.1c0.3-0.3,0.7-0.6,1-0.8
		c0.9-0.4,1.9-0.4,2.9,0.2c0.4,0.2,0.8,0.6,1,0.9c0.3,0.3,0.4,0.7,0.5,1c0.1,0.1,0.1,0.3,0.1,0.5c0,0.3,0.1,0.5,0.2,0.6
		c0.1,0.1,0.3-0.1,0.6-0.3C189.8,152.3,190,152.2,190.2,152.1L190.2,152.1L190.2,152.1z M183.4,175.8c0.1-0.1,0.3-0.3,0.4-0.4
		c1-1.3,1.8-2.5,2-3.6c0.2-1.2,0.1-2.3-0.4-3.3c-0.3-0.6-0.9-1.4-2-2.4L183.4,175.8L183.4,175.8z M183.4,61.4v-4.3
		c0.1,0.2,0.3,0.3,0.4,0.5c0.9,1,1.4,1.8,1.7,2.5c0.3,0.7,0.2,1.2-0.1,1.5c-0.3,0.3-0.8,0.3-1.3,0.1c-0.2-0.1-0.3-0.2-0.4-0.2
		C183.7,61.4,183.5,61.4,183.4,61.4L183.4,61.4z M183.4,57.1v4.4h-0.1c-0.1,0-0.3,0.1-0.4,0.2c-0.2,0.2-0.6,0.4-1,0.8
		c-0.4,0.4-1.2,0.9-2,1.7l-1.2,1c-0.6,0.6-1,0.9-1.3,1.2c-0.3,0.3-0.5,0.5-0.6,0.6c-0.1,0.2-0.1,0.3-0.1,0.6
		c0.1,0.2,0.3,0.5,0.5,0.8c0.5,0.6,0.9,0.9,1.3,1c0.4,0.2,0.8,0.2,1.3,0c0.1-0.1,0.3-0.1,0.4-0.2c0.6-0.2,0.9-0.2,1.2,0.1
		c0.3,0.3,0.4,0.7,0.3,1c-0.1,0.4-0.3,0.8-0.7,1c-0.3,0.3-0.8,0.6-1.3,0.8c-0.6,0.2-1.1,0.4-1.6,0.4c-0.3,0.1-0.6,0-0.8-0.1
		c-0.2-0.1-0.4-0.2-0.6-0.4c0,0-0.1-0.1-0.1-0.2c-0.3-0.7-0.8-1.3-1.4-2l-1.8-2.1v-5.2c0.1-0.1,0.1-0.1,0.1-0.1
		c0.4-0.2,1.2-0.8,2.2-1.8l1.4-1.2c1-0.9,1.8-1.6,2.1-1.9c0.3-0.3,0.5-0.6,0.5-0.7c0-0.1,0-0.3-0.1-0.5c-0.1-0.2-0.2-0.3-0.2-0.4
		c0-0.2,0-0.3,0.1-0.5c0.1-0.1,0.2-0.3,0.3-0.4c0.3-0.3,0.9-0.3,1.5,0.1C182.1,55.8,182.7,56.3,183.4,57.1z M183.4,73.2v9.9
		c-0.4-0.6-0.9-1.2-1.3-1.9c-0.9-1.8-1.3-3.4-1-4.8C181.4,75,182.2,74,183.4,73.2z M183.4,150.3v4.1c-0.2,0.2-0.3,0.3-0.4,0.6
		c-0.1,0.1-0.1,0.2-0.1,0.3c0,0.1,0.1,0.1,0.1,0.1c0,0.1,0.1,0.1,0.1,0.1c0.1,0,0.1,0,0.1,0.1l0.2,0.1v5.7l-1-0.6
		c-0.8-0.4-1.3-0.7-1.6-0.8c-0.3-0.1-0.5-0.2-0.6-0.1c-0.1,0.1-0.3,0.1-0.4,0.3c-0.4,0.4-0.9,0.4-1.2,0.3c-0.3-0.2-0.5-0.5-0.6-0.8
		c0-0.4,0.2-0.8,0.5-1.4c0.2-0.2,0.4-0.6,0.7-1c0.3-0.5,0.6-0.9,0.7-1.2c0.3-0.5,0.6-1.2,1-1.9c0.4-0.8,0.7-1.3,0.8-1.5
		C182.3,151.7,182.9,150.9,183.4,150.3L183.4,150.3z M183.4,166.1c-0.4-0.4-0.8-0.8-1.3-1.2c-0.9-0.8-1.5-1.4-2-1.8
		c-0.1-0.1-0.1-0.1-0.2-0.2c-0.6-0.6-0.9-1-0.8-1.4c0-0.1,0-0.1,0.1-0.2c0.1-0.6,0-1-0.3-1.2c-0.3-0.3-0.7-0.3-1.2-0.1
		c-0.4,0.2-1,0.7-1.5,1.3c-0.7,0.8-1.1,1.5-1.3,2.1c-0.2,0.6-0.1,1,0.2,1.3c0.3,0.2,0.6,0.2,0.9,0.1c0.4-0.2,0.7-0.3,0.7-0.3
		c0.2,0,0.4,0.1,0.7,0.3c0.3,0.2,0.8,0.7,1.7,1.3l0.4,0.4c1.2,1,2,1.8,2.5,2.2c0.4,0.4,0.7,0.8,0.7,1.2c0.1,0.4,0.1,0.8-0.1,1.2
		c-0.1,0.4-0.3,0.8-0.7,1.2c-0.6,0.7-1.3,1-2,1c-0.7,0-1.5-0.5-2.6-1.4c-1.3-1-2.2-1.8-2.7-2.4c-0.6-0.6-0.8-0.9-0.8-1.1
		c0-0.1,0-0.2,0.1-0.3c0.1-0.6,0-1.1-0.4-1.4v-0.1v8.4l2.3,2c1.2,1,2.5,1.3,4,1c1.3-0.3,2.5-1,3.6-2.3L183.4,166.1L183.4,166.1
		L183.4,166.1z M173.5,184.7v-6.5c0.2-0.1,0.4-0.1,0.6-0.1c0.4,0.1,0.8,0.3,1,0.7c0.3,0.3,0.6,0.8,0.8,1.4c0.2,0.6,0.3,1.2,0.4,1.7
		c0,0.3,0,0.6-0.1,0.8c-0.1,0.2-0.2,0.4-0.4,0.6c0,0-0.1,0.1-0.2,0.1c-0.7,0.3-1.3,0.7-2,1.3L173.5,184.7L173.5,184.7z M173.5,50.7
		v-3.2c0.4,0.2,0.8,0.6,1.2,0.9c0.9,0.7,1.4,1.3,1.7,1.7c0.2,0.4,0.2,0.9-0.1,1.2c-0.2,0.3-0.5,0.4-0.8,0.4c-0.3,0-0.7-0.1-1-0.4
		c-0.1-0.1-0.1-0.1-0.2-0.2l-0.2-0.2C174,50.9,173.8,50.8,173.5,50.7L173.5,50.7z M173.5,47.5v3.2h-0.1c-0.3-0.1-0.6-0.1-1-0.1
		c-0.7,0.1-1.2,0.1-1.7,0.2c-0.5,0.1-0.8,0.3-0.9,0.4c-0.2,0.3-0.3,1.2-0.2,2.7c0.1,1.5,0.2,3.3,0.4,5.4c0,0,0.1,0.1,0.1,0.2
		c0,0.4,0.2,0.9,0.3,1.5c0.1,0.1,0.1,0.2-0.1,0.4c-0.1,0.2-0.2,0.4-0.3,0.6c-0.3,0.4-0.6,0.6-0.8,0.6c-0.3-0.1-0.7-0.3-1.3-0.7
		l-2.6-2v-18c0.1,0,0.2,0.1,0.3,0.1c0.7,0.2,1.5,0.7,2.5,1.4c0.9,0.8,1.6,1.4,1.9,1.9c0.3,0.5,0.3,0.9,0,1.3
		c-0.2,0.2-0.3,0.3-0.4,0.4c-0.1,0.1-0.3,0.1-0.6,0.1c-0.3-0.1-0.6,0.1-0.9,0.2s-0.6,0.5-0.9,1c-0.2,0.2-0.2,0.3-0.2,0.4
		c0,0.2,0.1,0.3,0.2,0.4c0.1,0.1,0.3,0.1,0.5,0.1c0.2,0,0.4-0.1,0.8-0.2c0.5-0.1,0.9-0.3,1.3-0.4c0.4-0.2,0.6-0.3,0.7-0.3
		c0-0.1,0.1-0.2,0.1-0.5c0.1-0.3,0.2-0.4,0.3-0.6c0.3-0.4,0.7-0.5,1.4-0.3C172.5,46.9,173,47.1,173.5,47.5L173.5,47.5z M173.5,62.8
		V68l-2.7-3.1c-0.2-0.3-0.4-0.6-0.3-0.9c0-0.3,0.2-0.6,0.4-0.8c0.3-0.3,0.7-0.3,1.3-0.2c0.2,0.1,0.4,0.1,0.6,0.1
		C172.9,63.1,173.2,63,173.5,62.8L173.5,62.8z M173.5,166.6v8.4l-1.4-1.2l-0.2-0.1c-0.5-0.4-0.9-0.7-1-0.8c-0.2-0.1-0.4-0.1-0.7,0
		H170c-0.6,0.2-1,0.2-1.3-0.1c-0.4-0.3-0.5-0.9-0.2-1.7c0.3-0.8,0.9-1.7,1.8-2.8c0.8-0.9,1.4-1.5,1.9-1.8
		C172.7,166.3,173.1,166.3,173.5,166.6L173.5,166.6z M173.5,178.1v6.5l-5.3,4.2c-0.3,0.3-0.6,0.3-0.9,0.3c-0.3-0.1-0.6-0.2-0.8-0.5
		c-0.2-0.3-0.3-0.7-0.1-1.3c0.1-0.2,0.2-0.4,0.2-0.5c0-0.3-0.1-0.6-0.3-1c-0.1-0.3-0.4-0.7-0.8-1.2v-8.3c0,0.1,0.1,0.1,0.1,0.1
		c0.2,0.3,0.4,0.6,0.8,1.1c0.4,0.5,0.9,1.2,1.7,2.1l1,1.2c0.5,0.7,0.9,1.1,1.2,1.4c0.3,0.3,0.4,0.5,0.6,0.6c0.2,0.1,0.3,0.1,0.6,0.1
		c0.2-0.1,0.5-0.2,0.8-0.5c0.6-0.4,0.9-0.8,1.1-1.2c0.2-0.4,0.2-0.9,0.1-1.4c-0.1-0.1-0.1-0.3-0.2-0.4c-0.2-0.6-0.2-0.9,0.1-1.2
		C173.2,178.3,173.3,178.2,173.5,178.1L173.5,178.1z M165.3,175.7V174c0.1,0,0.1,0.1,0.1,0.1c0.3,0.3,0.3,0.7,0.1,1.3
		C165.4,175.5,165.4,175.6,165.3,175.7z M165.3,91.5v-1.1c0.2,0.2,0.3,0.3,0.3,0.6C165.6,91.2,165.5,91.3,165.3,91.5z M165.3,87.7
		c0.4,0.2,0.7,0.7,0.9,1.7c0.1,0.1,0.1,0.2,0.1,0.2v0.1c0.2,0.9,0.5,1.4,0.9,1.7c0.2,0.2,0.4,0.3,0.7,0.4c0.3,0.1,0.7,0.1,1,0.1
		c0.7,0,1.2-0.1,1.7-0.3c0.4-0.2,0.6-0.5,0.6-0.8c0-0.2-0.2-0.4-0.7-0.6c-0.1,0-0.1,0-0.1-0.1c-0.1,0-0.2-0.3-0.3-0.8
		c-0.1-0.1-0.1-0.2-0.1-0.2c-0.1-0.5-0.2-0.9-0.3-1.2c-0.2-0.3-0.4-0.5-0.7-0.7c-0.1-0.1-0.3-0.2-0.6-0.2c-0.2-0.1-0.4-0.2-0.4-0.3
		c0-0.1,0.1-0.2,0.3-0.3c0.1-0.1,0.2-0.1,0.3-0.2c0.3-0.2,0.6-0.5,0.7-0.8c0.1-0.3,0.2-0.7,0.2-1c0-0.8-0.3-1.4-0.9-1.9
		c-0.6-0.4-1.5-0.7-2.6-0.7c-0.2,0-0.4,0.1-0.8,0.1v1.5c0.2,0.1,0.3,0.2,0.5,0.3c0.1,0.2,0.2,0.5,0.2,0.9c0,0.5-0.1,0.9-0.2,1.1
		c-0.1,0.2-0.3,0.2-0.5,0.3L165.3,87.7L165.3,87.7z M165.3,41.7v18l-0.3-0.2c-0.3-0.2-0.4-0.4-0.4-0.5c-0.1-0.1-0.1-0.4-0.1-0.7
		c0-0.8,0-1.8,0.1-2.9c0.1-1.5-0.1-2.4-0.3-2.6c-0.1-0.1-0.2-0.1-0.3-0.1c-0.2,0.1-0.3,0.2-0.4,0.4c-0.2,0.3-0.4,0.6-0.6,0.8
		c-0.1,0.2-0.2,0.4-0.2,0.6c0,0.1,0.1,0.2,0.1,0.4c0.1,0.5,0.1,0.9-0.2,1.2c-0.3,0.4-0.8,0.5-1.3,0.3h-0.1v-8.6
		c0.2-0.3,0.5-0.7,0.8-1c0.8-1,1.3-1.7,1.6-2.3c0.3-0.5,0.4-0.9,0.4-1.1c0-0.1-0.1-0.2-0.1-0.3c-0.2-0.5-0.1-0.9,0.1-1.2
		C164.4,41.7,164.8,41.6,165.3,41.7L165.3,41.7z M165.3,81.9v1.5h-0.2c-0.2,0-0.3,0.1-0.4,0.2c-0.1,0.2-0.1,0.4-0.1,0.9v0.6
		c0,0.2,0,0.3,0.1,0.4V86c0.1,0,0.2,0,0.2,0.1h0.2c0.1,0,0.2,0,0.3-0.1v1.7c-0.1-0.1-0.2-0.1-0.3-0.1h-0.2c-0.1,0-0.1,0.1-0.2,0.1
		V89c0,0.4,0,0.7,0.1,0.8c0,0.1,0.1,0.2,0.1,0.3c0.1,0,0.1,0.1,0.2,0.1c0.1,0.1,0.2,0.1,0.2,0.2v1.1c-0.1,0.1-0.2,0.1-0.3,0.1
		c-0.4,0.2-1,0.2-2,0.2c-0.7,0-1.3-0.1-1.7-0.1v-3.2c0.1-0.5,0.1-1.1,0.1-1.8v-0.5c0-1,0-1.7-0.1-2V82c0.2,0,0.5-0.1,0.8-0.1h0.6
		h0.8h1.4L165.3,81.9L165.3,81.9L165.3,81.9z M165.3,174v1.7v0.1c-0.1,0.2-0.1,0.4-0.1,0.5c0,0.1,0.1,0.2,0.1,0.3v8.3
		c-0.2-0.3-0.5-0.7-0.8-1l-1.2-1.4c-0.9-1.1-1.5-1.8-1.8-2.2l-0.2-0.2v-4.4c1-0.8,1.9-1.4,2.6-1.7
		C164.6,173.7,165.1,173.7,165.3,174L165.3,174z M161.4,193.4v-5.1c0.1-0.1,0.2-0.3,0.2-0.4c0.1-0.1,0.1-0.1,0.1-0.2
		c0.1-0.3,0.2-0.5,0.4-0.6c0.2-0.2,0.5-0.1,0.8,0c0.3,0.2,0.6,0.4,0.7,0.8c0.3,0.6,0.4,1.3,0.3,1.9c-0.1,0.7-0.3,1.2-0.7,1.3
		c-0.1,0.1-0.1,0.1-0.1,0.1l-0.1,0.1c-0.4,0.7-0.9,1.4-1.4,1.9C161.5,193.3,161.4,193.4,161.4,193.4L161.4,193.4z M161.4,47.9v8.6
		c-0.6-0.2-1.3-0.7-2.4-1.5c-1.1-0.9-1.8-1.5-2.2-2.1c-0.3-0.6-0.4-1-0.1-1.4c0.2-0.3,0.6-0.4,1.1-0.4c0.2-0.1,0.3-0.1,0.4-0.1
		c0.3-0.1,0.7-0.4,1.2-0.9C159.9,49.7,160.5,49,161.4,47.9L161.4,47.9z M161.4,82v2.3v-0.2c-0.1-0.3-0.1-0.5-0.2-0.6
		c-0.1-0.1-0.2-0.1-0.3-0.2c-0.3-0.2-0.5-0.4-0.5-0.7c0-0.2,0.2-0.4,0.4-0.6C161,82.1,161.2,82.1,161.4,82L161.4,82z M161.4,88.5
		v3.2c-0.1-0.1-0.3-0.1-0.4-0.1c-0.4-0.2-0.6-0.4-0.6-0.7c0-0.3,0.2-0.5,0.6-0.7c0.1-0.1,0.1-0.1,0.1-0.1c0.1-0.1,0.2-0.4,0.3-1
		C161.4,89,161.4,88.7,161.4,88.5L161.4,88.5z M161.4,175.6v4.4c-0.2-0.2-0.4-0.3-0.6-0.4c-0.1,0-0.3,0.1-0.5,0.1
		c-0.2,0.1-0.3,0.2-0.4,0.2c-0.2,0-0.3,0-0.5-0.1c-0.1-0.1-0.2-0.2-0.4-0.3c-0.3-0.4-0.2-0.9,0.2-1.6
		C159.6,177.2,160.3,176.4,161.4,175.6L161.4,175.6z M161.4,188.4v5.1c-0.5,0.5-1.1,0.9-1.8,1.3c-0.9,0.5-1.8,0.8-2.8,0.9
		c-0.9,0.1-1.9,0-2.8-0.3c-0.2-0.1-0.3-0.1-0.4-0.1v-7.1c0.2,0.4,0.5,0.7,0.8,1c0.4,0.4,0.9,0.8,1.4,1c0.7,0.3,1.3,0.4,2,0.4
		c0.6,0,1.2-0.1,1.8-0.4c0.4-0.2,0.8-0.6,1.2-0.9C161,189.1,161.2,188.7,161.4,188.4L161.4,188.4z M153.6,184.4
		c0.2-0.2,0.3-0.3,0.6-0.4c0.5-0.3,1.1-0.4,1.7-0.3c0.6,0.1,1.3,0.3,1.9,0.7c0.1,0,0.2,0.1,0.3,0.2c0.7,0.4,1.4,0.5,1.9,0.2
		c0.5-0.2,0.8-0.6,0.9-1.2c0.2-0.6,0.1-1.1-0.2-1.7c-0.4-0.8-1-1.5-1.7-1.9c-0.8-0.4-1.4-0.6-1.8-0.3c-0.2,0.1-0.3,0.2-0.5,0.3
		c-0.2,0.2-0.3,0.3-0.4,0.3c-0.1,0-0.5,0.1-1.3,0.2c-0.5,0.1-0.9,0.2-1.4,0.3V184.4z M153.6,137.1v-1.6h1.7v1.6H153.6z M153.6,133.3
		v-1.7h3.3v1.7C156.8,133.3,153.6,133.3,153.6,133.3z M153.6,129.5v-1.6h4.9v1.6C158.4,129.5,153.6,129.5,153.6,129.5z M153.6,125.7
		V124l7.6,0.1v1.6H153.6z M153.6,89.3v-1.8h1c-0.3-0.6-0.5-1.1-0.7-1.4c-0.2-0.3-0.3-0.4-0.4-0.4v-3.9h0.1c0.4,0,0.7,0.1,1,0.2
		c0.2,0.1,0.5,0.2,0.7,0.4c0.3,0.3,0.6,0.7,0.9,1.3c0.3,0.6,0.8,1.6,1.4,3c0.2,0.4,0.4,0.9,0.7,1.6c0.4,1,0.7,1.6,0.9,1.8
		c0.1,0.1,0.2,0.1,0.3,0.2c0.1,0,0.1,0.1,0.2,0.1c0.1,0.1,0.2,0.1,0.3,0.2c0.1,0.1,0.1,0.2,0.1,0.3c0,0.3-0.3,0.6-0.7,0.8
		c-0.4,0.2-1.2,0.3-2.1,0.3c-1.1,0-1.9-0.1-2.3-0.2c-0.4-0.1-0.7-0.4-0.7-0.7c0-0.2,0-0.3,0.1-0.3c0.1-0.1,0.2-0.2,0.3-0.3
		c0.1,0,0.1-0.1,0.2-0.1c0.2-0.1,0.4-0.2,0.4-0.4s-0.2-0.3-0.5-0.4C154.5,89.4,154.1,89.4,153.6,89.3L153.6,89.3z M153.6,37.8v-2.5
		c0.2,0.2,0.4,0.3,0.6,0.5c0.5,0.4,0.6,0.9,0.4,1.4c-0.2,0.3-0.4,0.6-0.9,0.6C153.8,37.7,153.6,37.8,153.6,37.8z M153.6,35.2v2.5
		c-0.3,0.1-0.5,0.1-0.5,0.1c-0.2,0.1-0.6,0.6-1,1.6c-0.4,0.9-1.2,2.5-2.2,4.7c-0.3,0.6-0.4,1-0.5,1.3c-0.1,0.3-0.1,0.5,0,0.7
		c0.1,0.1,0.1,0.3,0.2,0.4c0.3,0.5,0.3,0.9,0.2,1.2c-0.2,0.4-0.7,0.7-1.4,0.6c-0.7-0.1-1.7-0.4-2.9-0.9c-1.2-0.5-2-1-2.5-1.5
		c-0.6-0.5-0.7-1-0.5-1.4c0.2-0.3,0.6-0.6,1.1-0.7c0.2,0,0.4-0.1,0.5-0.1c0.2-0.1,0.5-0.4,0.8-0.9c0.3-0.6,0.9-1.7,1.6-3.3
		c0.1-0.3,0.3-0.7,0.5-1.1c0.2-0.4,0.3-0.7,0.4-0.9c0.3-0.7,0.5-1.1,0.6-1.4c0.1-0.3,0.1-0.6-0.1-0.7c0-0.1-0.1-0.2-0.2-0.3
		c-0.3-0.4-0.4-0.8-0.2-1.2c0.2-0.4,0.7-0.7,1.3-0.6c0.7,0.1,1.7,0.3,2.9,0.9C152.5,34.6,153.1,34.9,153.6,35.2z M153.6,81.7v3.9
		l-0.1-0.1c-0.1,0-0.2,0.2-0.4,0.4c-0.1,0.2-0.3,0.8-0.7,1.5h1.1v1.8h-0.4c-0.6,0-0.9,0.1-1.2,0.1c-0.2,0.1-0.3,0.3-0.3,0.4
		c0,0.1,0,0.2,0.1,0.3c0.1,0.1,0.2,0.1,0.3,0.2c0.2,0.1,0.3,0.1,0.4,0.2c0.1,0.1,0.1,0.2,0.1,0.3c0,0.3-0.2,0.6-0.5,0.7
		c-0.4,0.1-0.9,0.2-1.7,0.2c-0.7,0-1.2-0.1-1.5-0.2c-0.3-0.2-0.5-0.4-0.5-0.7c0-0.2,0.1-0.3,0.1-0.4c0.1-0.1,0.3-0.2,0.6-0.3
		c0.3-0.1,0.4-0.2,0.5-0.3c0.1-0.1,0.2-0.3,0.4-0.7c0.2-0.3,0.4-0.9,0.8-1.9l0.2-0.4c1-2.3,1.5-3.6,1.7-4.1v-0.1
		C152.7,82.1,153,81.8,153.6,81.7L153.6,81.7z M153.6,124v1.7l-11.3-0.1V124H153.6z M153.6,127.9v1.6h-11.3v-1.6H153.6z
		 M153.6,131.7v1.7h-11.3v-1.7H153.6z M153.6,135.5v1.6h-11.3v-1.6H153.6z M153.6,180.9v3.5c-0.3,0.3-0.6,0.6-0.7,1
		c-0.2,0.7-0.1,1.3,0.3,2.1c0.1,0.2,0.2,0.4,0.3,0.6v7.1c-0.9-0.3-1.6-0.8-2.3-1.3c-0.8-0.7-1.4-1.4-1.9-2.3
		c-0.4-0.9-0.7-1.9-0.8-2.9c-0.1-1,0.1-2,0.3-3c0.3-1,0.8-1.9,1.4-2.6c0.7-0.8,1.4-1.4,2.4-1.8C153,181.1,153.3,181,153.6,180.9z
		 M142.3,201.5v-3.3c0.2-0.3,0.3-0.6,0.3-0.9c0-0.1,0-0.3,0.1-0.4c0-0.6,0.2-0.9,0.6-1c0.4-0.1,0.7-0.1,1,0.2c0.3,0.3,0.6,0.6,0.7,1
		c0.1,0.4,0.2,0.9,0.2,1.5c-0.1,0.7-0.2,1.2-0.3,1.7c-0.1,0.3-0.2,0.5-0.4,0.7c-0.2,0.2-0.4,0.3-0.6,0.4h-0.2
		C143.3,201.4,142.8,201.4,142.3,201.5L142.3,201.5z M142.3,161.1v-1.6c0.2,0.1,0.3,0.2,0.4,0.2c0.2,0,0.4-0.1,0.5-0.3
		c0.1-0.2,0.2-0.4,0.2-0.8c0-0.2-0.1-0.4-0.1-0.7c-0.1-0.3-0.1-0.6-0.2-0.8c-0.2-0.4-0.4-0.8-0.6-0.9c-0.1-0.1-0.2-0.2-0.3-0.2v-1.5
		h0.1c0.5,0,0.9,0.1,1.4,0.2c0.4,0.2,0.8,0.4,1.1,0.7c0.3,0.3,0.6,0.7,0.7,1c0.1,0.4,0.2,0.8,0.2,1.3c0,0.5-0.1,0.9-0.3,1.4
		c-0.2,0.4-0.4,0.8-0.8,1.1c-0.3,0.3-0.7,0.5-1.1,0.7C143.3,161,142.8,161.1,142.3,161.1L142.3,161.1L142.3,161.1L142.3,161.1z
		 M142.3,91.8v-4.2c0.1,0.2,0.2,0.3,0.3,0.4c0.3,0.4,0.6,0.7,1,0.8c0.4,0.2,0.8,0.3,1.2,0.3c0.3,0,0.7-0.1,0.9-0.2
		c0.3-0.1,0.6-0.3,0.9-0.6c0.1,0,0.1-0.1,0.1-0.1c0.2-0.1,0.3-0.2,0.4-0.2c0.2,0,0.3,0.1,0.4,0.3c0.1,0.2,0.2,0.4,0.2,0.7
		c0,0.4-0.1,0.9-0.4,1.3c-0.3,0.4-0.6,0.6-0.8,0.6h-0.1h-0.1c-0.5,0.3-0.9,0.6-1.5,0.7c-0.5,0.2-1,0.3-1.6,0.3
		C143.1,91.9,142.7,91.9,142.3,91.8z M142.3,84.3v-2.4c0.4-0.1,0.7-0.1,1.1-0.1c0.6,0,1,0.1,1.6,0.2c0.6,0.2,0.8,0.3,0.9,0.3
		s0.2,0,0.3-0.1c0.1-0.1,0.3-0.1,0.3-0.1c0.4,0,0.7,0.3,1,0.8c0.3,0.5,0.4,1,0.4,1.7c0,0.4-0.2,0.8-0.4,1c-0.2,0.3-0.6,0.4-0.9,0.4
		c-0.4,0-0.8-0.2-1-0.7c-0.1-0.1-0.1-0.2-0.2-0.2c-0.3-0.4-0.6-0.7-0.9-0.9c-0.3-0.2-0.7-0.3-1.1-0.3C143,83.9,142.6,84,142.3,84.3z
		 M142.3,80.7V79h0.1c0.1,0,0.1,0.1,0.2,0.2l0.7,0.8c0.1-0.1,0.3-0.2,0.4-0.4c0.3-0.3,0.6-0.6,0.6-0.6h0.2h0.4h0.6
		c0.1,0.1,0.1,0.1,0.1,0.2v0.1c0,0.1-0.1,0.1-0.1,0.1l-1.2,1.4c-0.2,0.2-0.3,0.3-0.4,0.4c-0.1,0-0.3,0.1-0.6,0.1
		c-0.2,0-0.4-0.1-0.5-0.1l-0.3-0.3C142.5,80.9,142.3,80.7,142.3,80.7z M142.3,31.8v-0.3C142.4,31.5,142.4,31.7,142.3,31.8z
		 M142.3,31.5v0.3v0.1c-0.1,0.4-0.3,0.6-0.6,0.8c-0.3,0.1-0.6,0.1-1,0c-0.1,0-0.2,0-0.3-0.1c-0.1,0-0.2-0.1-0.2-0.1
		c-0.3-0.1-0.6-0.1-0.9,0c-0.2,0.1-0.3,0.1-0.6,0.2v-2.9c0.2,0.1,0.5,0.1,0.7,0.2c1.1,0.2,1.9,0.5,2.3,0.8
		C142.2,30.9,142.3,31.2,142.3,31.5z M142.3,79v1.7l-1.2-1.4l-0.1-0.1v-0.2c0-0.1,0.1-0.1,0.2-0.1h0.6h0.2
		C142.2,79,142.3,79,142.3,79z M142.3,81.9v2.4c0,0.1,0,0.1-0.1,0.1c-0.3,0.3-0.4,0.8-0.4,1.3c0,0.5,0.1,0.9,0.2,1.3
		c0.1,0.2,0.2,0.4,0.3,0.7v4.2c-0.3-0.1-0.6-0.1-0.8-0.2c-0.6-0.2-1.1-0.6-1.6-1c-0.4-0.4-0.8-0.9-1-1.4v-4.5c0.3-0.5,0.6-1,1-1.4
		c0.4-0.5,1-0.9,1.7-1.1C141.8,82,142.1,82,142.3,81.9z M142.3,124v1.6h-3.5V124L142.3,124z M142.3,127.9v1.6h-3.5v-1.6H142.3z
		 M142.3,131.7v1.7h-3.5v-1.7H142.3z M142.3,135.5v1.6h-3.5v-1.6H142.3z M142.3,154.4v1.5c-0.1-0.1-0.2-0.1-0.4-0.1
		c-0.2,0-0.4,0.1-0.5,0.3c-0.2,0.2-0.2,0.4-0.2,0.7c0,0.2,0.1,0.5,0.1,0.8c0.1,0.3,0.2,0.6,0.3,0.9c0.2,0.4,0.3,0.7,0.6,0.9
		c0.1,0.1,0.1,0.1,0.2,0.2v1.6c-0.3,0-0.7-0.1-1-0.2s-0.7-0.2-0.9-0.4c-0.5-0.3-0.9-0.7-1.2-1.2c-0.2-0.4-0.3-0.9-0.4-1.4v-0.5
		c0.1-0.3,0.1-0.7,0.3-1c0.2-0.4,0.5-0.8,0.8-1.2c0.3-0.3,0.7-0.5,1.1-0.7C141.5,154.5,141.9,154.4,142.3,154.4z M142.3,198.3v3.3
		c-0.3,0.1-0.6,0.1-0.9,0.2l-2.5,0.7v-4c0.1,0.3,0.2,0.6,0.3,0.7c0.1,0.2,0.3,0.3,0.6,0.3c0.2,0.1,0.6,0,0.9-0.1
		c0.7-0.2,1.2-0.4,1.5-0.7C142.2,198.5,142.3,198.4,142.3,198.3L142.3,198.3z M138.9,155.2v-0.1V155
		C138.9,155,138.9,155.2,138.9,155.2z M138.9,44.8v-5c0.4,0.7,0.8,1.3,1.2,1.9c0,0.1,0,0.1,0.1,0.2c0.2,0.4,0.6,0.8,0.9,1.2
		c0.1,0.1,0.2,0.2,0.2,0.4c0,0.2,0,0.4-0.1,0.7c-0.1,0.4-0.3,0.7-0.6,0.8c-0.3,0.1-0.8,0.1-1.5-0.1L138.9,44.8z M138.9,29.8v2.9
		c-0.1,0.1-0.2,0.1-0.4,0.2c-0.6,0.3-1,0.6-1.4,0.9c-0.3,0.3-0.6,0.6-0.6,0.8c-0.1,0.3,0.2,1.2,0.9,2.5c0.4,0.8,0.9,1.8,1.5,2.8v5
		l-3.3-0.8c-0.3-0.1-0.5-0.1-0.6-0.2c-0.1-0.1-0.2-0.3-0.4-0.7c-0.3-0.7-0.8-1.5-1.2-2.6c-0.6-1.4-1-2.2-1.3-2.2
		c-0.2-0.1-0.3,0-0.3,0.1c-0.1,0.1-0.2,0.3-0.2,0.5c-0.1,0.4-0.2,0.7-0.2,1c0,0.2,0,0.4,0.1,0.6c0,0.1,0.1,0.2,0.2,0.3
		c0.3,0.4,0.4,0.8,0.4,1.2c-0.2,0.5-0.5,0.8-1,0.9h-0.4v-15c0.3,0.1,0.6,0.1,0.8,0.2c1.2,0.3,2,0.6,2.5,0.9c0.4,0.3,0.7,0.7,0.6,1.2
		c-0.1,0.3-0.2,0.4-0.2,0.6c-0.1,0.1-0.3,0.2-0.6,0.3c-0.3,0.1-0.6,0.3-0.7,0.6c-0.2,0.3-0.3,0.7-0.4,1.3c-0.1,0.2-0.1,0.4,0,0.6
		c0.1,0.1,0.2,0.2,0.3,0.2c0.2,0.1,0.3,0,0.5-0.1c0.2-0.1,0.4-0.3,0.7-0.5c0.4-0.3,0.7-0.7,1-0.9c0.3-0.3,0.4-0.4,0.4-0.6
		c0-0.1,0-0.2-0.1-0.5s-0.1-0.5-0.1-0.7c0.1-0.5,0.5-0.8,1.2-0.8C137.1,29.5,137.9,29.6,138.9,29.8z M138.9,84.7v4.5
		c-0.1-0.1-0.1-0.2-0.1-0.3c-0.3-0.6-0.4-1.3-0.4-2c0-0.7,0.2-1.3,0.4-1.9C138.8,84.9,138.8,84.8,138.9,84.7z M138.9,124v1.7H135
		l-4.4,7.7V130l3.2-5.6l0.2-0.4C134,124,138.9,124,138.9,124z M138.9,127.9h-3.4v1.6h3.4V127.9z M138.9,131.7h-5v1.7h5V131.7z
		 M138.9,135.5v1.6h-6.6v-1.6H138.9z M138.9,155v0.2c0,0.2-0.1,0.3-0.3,0.3h-0.1c-0.2,0.1-0.4,0.4-0.7,1c-0.1,0.2-0.1,0.3-0.2,0.4
		l-0.7,1.5c-0.3,0.6-0.5,1.1-0.7,1.5c-0.2,0.3-0.3,0.6-0.4,0.7c-0.1,0.1-0.2,0.2-0.3,0.3c-0.1,0.1-0.2,0.1-0.3,0.1
		c-0.4,0-0.8-0.7-1.3-2c-0.1-0.2-0.2-0.4-0.2-0.6l-0.6-1.5V157c-0.3-0.8-0.6-1.3-0.7-1.3c-0.1,0-0.1-0.1-0.2-0.1
		c-0.2-0.1-0.3-0.2-0.3-0.4c0-0.3,0.2-0.4,0.4-0.6c0.3-0.2,0.7-0.2,1.2-0.2c0.6,0,1,0.1,1.3,0.2c0.2,0.1,0.4,0.3,0.4,0.6
		c0,0.2-0.1,0.3-0.2,0.3c-0.1,0.1-0.2,0.2-0.2,0.2s0.1,0.2,0.1,0.4c0,0.1,0.1,0.1,0.1,0.1l0.4,1.2c0.1,0.1,0.1,0.2,0.2,0.3
		c0,0.1,0.1,0.1,0.1,0.1c0.1,0,0.1,0,0.2-0.1c0.1-0.1,0.1-0.2,0.2-0.4c0.2-0.6,0.4-0.9,0.5-1.2c0.1-0.2,0.1-0.3,0.1-0.4
		c0-0.1-0.1-0.1-0.2-0.2h-0.1c-0.1-0.1-0.1-0.1-0.1-0.1c-0.1-0.1-0.1-0.1-0.1-0.2c0-0.2,0.1-0.4,0.3-0.5c0.2-0.1,0.5-0.2,0.9-0.2
		c0.5,0,0.9,0.1,1,0.1C138.8,154.7,138.9,154.8,138.9,155L138.9,155z M138.9,157.5v0.3v0.2V157.5L138.9,157.5z M138.9,198.4v4
		l-4.2,1.2c-0.4,0.1-0.7,0.1-0.9-0.1c-0.3-0.2-0.5-0.4-0.6-0.8c-0.1-0.4,0-0.8,0.4-1.2c0.2-0.2,0.3-0.3,0.3-0.4
		c0.1-0.3,0.2-0.6,0.1-1c-0.1-0.4-0.3-1.3-0.7-2.7l-0.5-1.8c-0.4-1.4-0.7-2.3-0.8-2.7c-0.2-0.4-0.3-0.7-0.5-0.8
		c-0.1-0.1-0.2-0.1-0.4-0.1h-0.4V190h0.1c0.7-0.5,1.6-0.9,2.9-1.3c1.3-0.4,2.3-0.6,3.1-0.5c0.7,0.1,1.2,0.3,1.3,0.7
		c0.1,0.4-0.1,0.8-0.5,1.2c-0.1,0.2-0.2,0.2-0.3,0.3c-0.2,0.1-0.2,0.3-0.3,0.4v0.4c0.1,0.3,0.2,0.7,0.3,1.3c0.1,0.6,0.4,1.4,0.7,2.6
		l0.4,1.5C138.6,197.5,138.8,198,138.9,198.4L138.9,198.4L138.9,198.4L138.9,198.4z M130.6,203.8c0.3-0.4,0.4-0.9,0.6-1.5
		c0.1-0.6,0.2-1.2,0.2-1.6c-0.1-0.4-0.2-0.8-0.5-1.1c-0.1-0.1-0.2-0.2-0.3-0.2V203.8z M130.6,161v-1.9c0.1-0.1,0.1-0.1,0.1-0.1
		c0.1-0.3,0.3-0.4,0.4-0.4s0.3,0.1,0.4,0.2c0.1,0.1,0.2,0.2,0.2,0.4c0,0.2-0.1,0.4-0.1,0.7c-0.1,0.2-0.2,0.4-0.3,0.6
		c-0.1,0.2-0.2,0.3-0.3,0.4c-0.1,0.1-0.2,0.2-0.3,0.2C130.8,161.1,130.7,161,130.6,161L130.6,161z M130.6,156.4v-2
		c0.2,0,0.4,0.1,0.6,0.4c0.2,0.2,0.2,0.6,0.2,0.9c0,0.2-0.1,0.4-0.2,0.6c-0.1,0.1-0.2,0.2-0.3,0.2S130.7,156.5,130.6,156.4
		L130.6,156.4z M130.6,84.5V82c0.3,0.1,0.5,0.1,0.6,0.2c0.3,0.1,0.4,0.3,0.4,0.7c0,0.2,0,0.3-0.1,0.4c-0.1,0.1-0.2,0.2-0.4,0.4
		c-0.2,0.1-0.3,0.2-0.3,0.3C130.7,84,130.7,84.2,130.6,84.5L130.6,84.5z M132.1,90.8c0-0.3,0.2-0.5,0.6-0.7c0.1-0.1,0.2-0.1,0.3-0.2
		c0.1-0.1,0.2-0.4,0.2-0.8c0.1-0.4,0.1-1.3,0.1-2.5v-0.8v-0.7c0-0.5,0-0.8-0.1-1c-0.1-0.2-0.1-0.3-0.2-0.4c-0.1-0.1-0.2-0.1-0.3-0.2
		c-0.3-0.2-0.4-0.4-0.4-0.7c0-0.3,0.2-0.6,0.7-0.7c0.4-0.2,1.1-0.3,2-0.3c0.9,0,1.5,0.1,1.9,0.2c0.4,0.2,0.6,0.4,0.6,0.8
		c0,0.2-0.1,0.4-0.3,0.6c-0.2,0.2-0.4,0.2-0.4,0.3c-0.1,0.1-0.2,0.6-0.2,1.3c-0.1,0.7-0.1,1.9-0.1,3.5c0,0.4,0,0.8,0.1,0.9
		c0,0.2,0.1,0.3,0.2,0.4c0.1,0.1,0.1,0.2,0.3,0.2c0.3,0.2,0.4,0.4,0.4,0.7c0,0.3-0.2,0.6-0.7,0.8c-0.4,0.2-1.2,0.2-2,0.2
		c-0.8,0-1.5-0.1-2-0.3C132.4,91.3,132.1,91.1,132.1,90.8L132.1,90.8z M130.6,27.8v15c-0.6,0-1.4-0.1-2.5-0.3
		c-1.3-0.3-2.3-0.7-2.8-1c-0.6-0.4-0.8-0.8-0.7-1.2c0.1-0.3,0.3-0.7,0.8-0.9c0.2-0.1,0.3-0.2,0.3-0.2c0.3-0.2,0.5-0.7,0.8-1.4
		c0.2-0.7,0.6-2,1-4.1c0.3-1.2,0.4-2.1,0.5-2.7s0.1-1-0.1-1.2l-0.2-0.2c-0.3-0.4-0.5-0.7-0.4-1c0.1-0.5,0.6-0.8,1.3-0.9
		C129.1,27.7,129.8,27.7,130.6,27.8L130.6,27.8z M130.6,82v2.5v0.3c-0.1,0.4-0.1,1-0.1,2v1c-0.1,0.2-0.1,0.4-0.1,0.7
		c-0.1,1.4-0.1,2.2-0.2,2.4c-0.1,0.3-0.2,0.5-0.3,0.7c-0.1,0.1-0.3,0.2-0.4,0.2c-0.2,0-0.5-0.1-0.8-0.4c-0.3-0.2-1-0.8-2-1.7
		c-0.4-0.3-0.8-0.8-1.4-1.3c-0.8-0.8-1.2-1.2-1.4-1.2s-0.3,0.1-0.4,0.3c-0.1,0.2-0.1,0.5-0.1,1c0,0.3,0,0.7,0.1,0.9
		c0.1,0.3,0.1,0.5,0.2,0.6c0,0.1,0.2,0.2,0.4,0.3c0.2,0.1,0.4,0.3,0.4,0.6c0,0.3-0.2,0.6-0.5,0.7c-0.3,0.2-0.8,0.2-1.5,0.2
		c-0.7,0-1.2-0.1-1.5-0.2c-0.3-0.2-0.5-0.4-0.5-0.7c0-0.2,0.1-0.4,0.3-0.6c0.2-0.2,0.4-0.2,0.4-0.3c0.1-0.2,0.2-0.4,0.2-0.8
		c0.1-0.4,0.1-1,0.1-2c0-1.1,0-1.8-0.1-2.3c-0.1-0.4-0.1-0.8-0.2-1c-0.1-0.1-0.2-0.2-0.4-0.3c-0.1-0.1-0.1-0.1-0.2-0.1
		c-0.1-0.1-0.2-0.2-0.3-0.3c-0.1-0.1-0.1-0.2-0.1-0.3c0-0.3,0.2-0.6,0.5-0.7c0.4-0.2,1-0.2,1.9-0.2c0.3,0,0.5,0,0.7,0.1
		c0.2,0,0.3,0.1,0.4,0.1c0.2,0.1,0.3,0.2,0.6,0.4c0.2,0.2,0.6,0.6,1.2,1c0.1,0.1,0.1,0.2,0.3,0.3c1.4,1.3,2.3,2,2.5,2
		c0.1,0,0.2-0.1,0.2-0.2c0.1-0.1,0.1-0.2,0.1-0.4c0-0.2,0-0.5,0.1-0.7v-0.1c0-0.3-0.1-0.6-0.1-0.7c-0.1-0.2-0.2-0.3-0.4-0.4H128
		c-0.3-0.1-0.4-0.3-0.4-0.6c0-0.3,0.2-0.6,0.4-0.7c0.3-0.1,0.8-0.2,1.7-0.2C130,81.9,130.4,82,130.6,82L130.6,82z M130.6,130v3.3
		l-5.6,9.8l-1.4-0.8C123.6,142.4,130.6,130,130.6,130z M130.6,154.4v2c-0.1-0.1-0.2-0.2-0.2-0.3c-0.1-0.1-0.1-0.1-0.1-0.1
		c-0.2-0.2-0.3-0.3-0.4-0.3c-0.2-0.1-0.4-0.1-0.7-0.1c-0.3,0-0.6,0-0.7,0.1c-0.1,0-0.2,0.1-0.2,0.1c-0.1,0.1-0.1,0.2-0.1,0.3v0.6
		c0,0.3,0,0.4,0.1,0.5s0.2,0.1,0.3,0.1c0.2,0,0.2,0,0.3-0.1c0.1-0.1,0.1-0.1,0.2-0.3v-0.1c0.1-0.3,0.2-0.6,0.4-0.6
		c0.2,0,0.4,0.1,0.5,0.3c0.1,0.2,0.2,0.6,0.2,1c0,0.6-0.1,0.9-0.2,1.2c-0.1,0.3-0.3,0.4-0.5,0.4c-0.2,0-0.3-0.2-0.4-0.4v-0.1
		c-0.1-0.2-0.1-0.3-0.1-0.4c-0.1-0.1-0.2-0.1-0.3-0.1c-0.2,0-0.2,0.1-0.3,0.1c-0.1,0.1-0.1,0.2-0.1,0.5c0,0.4,0,0.6,0.1,0.7
		c0,0.1,0.1,0.2,0.1,0.3c0.1,0,0.2,0.1,0.3,0.1h0.6c0.3,0,0.6-0.1,0.8-0.1c0.2-0.1,0.4-0.2,0.5-0.4c0.1-0.1,0.1-0.1,0.1-0.2v1.9
		c-0.4-0.1-0.9-0.1-1.4-0.1H126c-0.3,0-0.4-0.1-0.6-0.1c-0.1-0.1-0.1-0.2-0.1-0.3s0.1-0.3,0.3-0.4c0.1-0.1,0.2-0.1,0.2-0.1
		c0.1-0.1,0.2-0.4,0.2-0.8c0.1-0.3,0.1-1,0.1-1.8c0-0.6,0-1-0.1-1.3c0-0.3-0.1-0.4-0.1-0.5c-0.1-0.1-0.1-0.1-0.3-0.2
		c-0.2-0.1-0.2-0.2-0.2-0.4s0.1-0.3,0.2-0.4c0.2-0.1,0.3-0.1,0.6-0.1h0.8h1.5C129.3,154.5,130,154.5,130.6,154.4
		C130.6,154.4,130.6,154.4,130.6,154.4L130.6,154.4z M130.6,190v2.1h-0.1c-0.2-0.1-0.3-0.2-0.4-0.3c-0.1-0.1-0.2-0.3-0.3-0.4
		C129.8,190.9,130,190.4,130.6,190z M130.6,199.3c-0.2-0.1-0.5-0.2-0.8-0.2c-0.3,0-0.6,0.3-0.7,0.9c-0.1,0.2-0.1,0.3-0.2,0.4
		c-0.2,0.6-0.4,0.9-0.8,1.1c-0.3,0.2-0.9,0.4-1.6,0.4c-0.4,0.1-0.7,0-0.9-0.1c-0.2-0.1-0.4-0.2-0.4-0.4c-0.1-0.1-0.1-0.4-0.2-0.8
		c-0.1-0.4-0.1-1-0.2-1.8l-0.2-1.6c-0.1-1.2-0.2-2-0.2-2.6v-1.3c0-0.2,0.1-0.3,0.1-0.4c0.1-0.1,0.2-0.2,0.3-0.3
		c0.1-0.1,0.2-0.1,0.3-0.2c0.5-0.3,0.8-0.7,0.7-1c-0.1-0.5-0.4-0.8-1.1-1c-0.7-0.2-1.8-0.2-3.1-0.1c-1.4,0.2-2.4,0.4-3.1,0.7
		c-0.7,0.3-1,0.7-1,1.2c0,0.2,0.1,0.3,0.1,0.5c0.1,0.1,0.2,0.2,0.4,0.3c0.1,0,0.2,0.1,0.4,0.1c0.2,0.1,0.4,0.1,0.4,0.2
		c0.1,0.1,0.2,0.4,0.3,0.9c0.1,0.4,0.2,1.4,0.3,2.8l0.2,1.8c0.1,1.4,0.2,2.4,0.2,2.8c-0.1,0.4-0.2,0.8-0.3,1
		c-0.1,0.1-0.2,0.2-0.4,0.4c-0.4,0.3-0.7,0.7-0.6,1.1c0,0.4,0.2,0.7,0.4,0.9c0.3,0.2,0.6,0.3,0.9,0.2l6.9-0.6
		c0.9-0.1,1.7-0.1,2.4,0.1h0.2c0.2,0,0.4-0.1,0.6-0.2c0.2-0.2,0.4-0.3,0.5-0.6V199.3z M115.1,205.2v-4.3c0.3,1,0.6,1.6,0.8,1.9
		c0.1,0.1,0.2,0.2,0.4,0.3c0.1,0.1,0.2,0.1,0.2,0.1c0.2,0.1,0.3,0.2,0.4,0.4c0.1,0.2,0.1,0.3,0.1,0.5c-0.1,0.5-0.4,0.8-1,1
		C115.8,205.2,115.4,205.2,115.1,205.2L115.1,205.2z M115.1,159.4v-1.2h0.7c-0.2-0.4-0.3-0.7-0.4-0.9c-0.1-0.2-0.2-0.3-0.3-0.3v-2.5
		h0.1c0.2,0,0.4,0.1,0.6,0.1s0.3,0.2,0.4,0.3c0.1,0.2,0.3,0.4,0.5,0.8c0.2,0.4,0.6,1,1,2c0.1,0.3,0.2,0.6,0.4,1
		c0.3,0.7,0.4,1,0.6,1.2c0.1,0.1,0.2,0.1,0.2,0.1c0.1,0.1,0.1,0.1,0.1,0.1c0.1,0.1,0.2,0.1,0.2,0.2c0.1,0.1,0.1,0.1,0.1,0.2
		c0,0.2-0.2,0.4-0.4,0.5c-0.3,0.1-0.8,0.2-1.4,0.2c-0.7,0-1.2-0.1-1.4-0.2c-0.3-0.1-0.4-0.2-0.4-0.4c0-0.1,0.1-0.2,0.1-0.2
		c0.1-0.1,0.1-0.1,0.2-0.2h0.1c0.2-0.1,0.2-0.2,0.2-0.3c0-0.1-0.1-0.2-0.3-0.3C115.7,159.4,115.4,159.4,115.1,159.4L115.1,159.4z
		 M115.1,91.7V85l0.4-0.6c0.1-0.2,0.1-0.2,0.2-0.3c0.1-0.1,0.1-0.2,0.1-0.2s-0.1-0.1-0.2-0.2c-0.1-0.1-0.2-0.1-0.4-0.1v-1.8h3.8
		c0.4,0,0.7,0.1,0.9,0.2c0.2,0.1,0.2,0.3,0.2,0.6c0,0.3-0.4,1.1-1.2,2.4c-0.3,0.5-0.6,0.9-0.8,1.2l-1.8,2.9
		c-0.1,0.1-0.1,0.2-0.2,0.3c0,0.1-0.1,0.2-0.1,0.2s0.1,0.1,0.2,0.2c0.1,0.1,0.2,0.1,0.4,0.1c0.3,0,0.6,0,0.8-0.1
		c0.2-0.1,0.3-0.1,0.4-0.3c0.1-0.1,0.1-0.2,0.2-0.4c0.2-0.5,0.5-0.7,0.8-0.7c0.3,0,0.4,0.1,0.6,0.3c0.1,0.2,0.2,0.5,0.2,0.8
		c0,0.6-0.2,1.2-0.4,1.7c-0.3,0.5-0.6,0.8-0.9,0.8c-0.1,0-0.2-0.1-0.4-0.1c-0.2-0.1-0.4-0.1-0.6-0.1L115.1,91.7L115.1,91.7z
		 M115.1,41.9V39h0.2c0.4,0,0.8-0.1,1-0.3c0.3-0.2,0.4-0.4,0.4-0.7c0-0.4-0.4-0.7-1.5-1.1h0V26.8h0.4c0.6-0.1,1.2,0.1,1.8,0.2
		c0.7,0.1,1,0.2,1,0.2c0.2,0,0.4,0,0.7-0.1c0.3-0.1,0.5-0.1,0.6-0.1c0.2-0.1,0.4,0,0.7,0.1s0.4,0.3,0.7,0.6c0.3,0.4,0.6,0.8,0.8,1.3
		c0.2,0.4,0.3,0.8,0.3,1.2c0,0.5-0.1,0.8-0.4,1.2c-0.3,0.3-0.6,0.4-1,0.4c-0.4,0-0.9-0.3-1.5-0.9c-0.2-0.2-0.4-0.3-0.5-0.4
		c-0.3-0.3-0.7-0.4-1-0.6c-0.4-0.2-0.8-0.2-1.2-0.2c-0.3,0-0.6,0.1-0.8,0.3c-0.2,0.1-0.3,0.3-0.3,0.6c0,0.5,0.8,1,2.2,1.4
		c0.3,0.1,0.4,0.1,0.5,0.1c1.6,0.4,2.7,1,3.3,1.7c0.7,0.7,1,1.6,1,2.8c0,1.6-0.6,2.9-1.8,3.9c-1.2,1-2.9,1.5-4.8,1.5H115.1
		L115.1,41.9z M115.9,150.7v-19.2h2.1v19.2H115.9z M120.2,149.1v-16h2.2v16H120.2z M122.2,158.9v-2.5c0-0.3,0-0.4-0.1-0.5
		c0-0.1-0.1-0.2-0.3-0.2c-0.2-0.1-0.4-0.3-0.4-0.4c0-0.3,0.2-0.4,0.4-0.6c0.3-0.1,0.7-0.2,1.4-0.2c0.7,0,1.1,0.1,1.4,0.1
		c0.3,0.1,0.4,0.3,0.4,0.5c0,0.2-0.1,0.4-0.3,0.5c-0.2,0.1-0.3,0.4-0.3,0.8v1.3c0,0.9-0.1,1.6-0.2,1.9c-0.2,0.4-0.4,0.8-0.8,1.1
		c-0.4,0.2-0.9,0.4-1.5,0.4c-0.8,0-1.4-0.2-1.8-0.5c-0.4-0.3-0.7-0.8-0.7-1.3c0-0.3,0.1-0.6,0.3-0.8c0.2-0.2,0.4-0.3,0.8-0.3
		c0.3,0,0.5,0.1,0.7,0.3c0.2,0.2,0.3,0.4,0.3,0.7v0.2c-0.1,0.1-0.1,0.2-0.1,0.3c0,0.1,0,0.1,0.1,0.2c0.1,0,0.1,0.1,0.2,0.1
		c0.2,0,0.4-0.1,0.4-0.3C122.2,159.4,122.2,159.2,122.2,158.9L122.2,158.9z M115.1,26.8v10.1c-0.4-0.1-0.8-0.3-1-0.4
		c-0.9-0.3-1.7-0.7-2.3-1.2v-7.5C112.7,27.2,113.8,26.9,115.1,26.8z M115.1,39c-0.6,0-1-0.2-1.5-0.4c-0.5-0.2-1-0.7-1.5-1.3
		c-0.1-0.1-0.2-0.3-0.3-0.4v4.5c0.2,0.1,0.5,0.2,0.8,0.3c0.8,0.2,1.7,0.3,2.5,0.4L115.1,39L115.1,39L115.1,39z M115.1,81.9v1.8H115
		c-0.4,0-0.7,0.1-0.8,0.1c-0.2,0.1-0.3,0.2-0.4,0.4c-0.1,0.1-0.1,0.2-0.2,0.3c-0.2,0.5-0.5,0.7-0.9,0.7c-0.2,0-0.4-0.1-0.6-0.3
		c-0.2-0.2-0.2-0.4-0.2-0.7c0-0.3,0.1-0.7,0.2-1c0.2-0.3,0.3-0.6,0.5-0.9c0.2-0.2,0.3-0.3,0.5-0.4c0.2-0.1,0.3-0.2,0.4-0.2
		c0.1,0,0.2,0.1,0.4,0.1c0.1,0.1,0.2,0.1,0.2,0.1S115.1,81.9,115.1,81.9z M115.1,85l-2.3,3.5l-0.3,0.3c-0.3,0.5-0.6,0.9-0.8,1.3v1.4
		c0.2,0.1,0.6,0.2,1,0.2h2.4C115.1,91.7,115.1,85,115.1,85z M115.1,154.4v2.5H115c-0.1,0-0.1,0.1-0.2,0.3c-0.1,0.2-0.2,0.5-0.4,1
		h0.7v1.2h-0.3c-0.4,0-0.6,0-0.8,0.1c-0.2,0.1-0.2,0.2-0.2,0.3c0,0.1,0,0.1,0.1,0.2c0,0.1,0.1,0.1,0.2,0.1c0.1,0.1,0.2,0.1,0.3,0.2
		c0,0.1,0.1,0.1,0.1,0.2c0,0.2-0.1,0.3-0.3,0.4c-0.3,0.1-0.6,0.2-1.1,0.2c-0.4,0-0.8-0.1-1-0.2c-0.1-0.1-0.2-0.1-0.3-0.2v-0.1
		c0.1-0.1,0.1-0.2,0.1-0.2c0-0.1,0-0.1-0.1-0.2c0.1-0.1,0.2-0.2,0.4-0.2c0.2-0.1,0.3-0.1,0.3-0.2c0.1-0.1,0.1-0.2,0.2-0.4
		c0.1-0.2,0.3-0.6,0.6-1.2l0.1-0.3c0.7-1.5,1-2.4,1-2.7l0.1-0.1C114.5,154.7,114.7,154.4,115.1,154.4L115.1,154.4z M115.1,200.9v4.3
		c-0.6,0.1-1.4,0.1-2.3,0c-0.4-0.1-0.7-0.1-1-0.1v-13.3c0.2,0.3,0.3,0.7,0.5,1c0.4,0.9,1,2.4,1.8,4.7c0.2,0.6,0.5,1.4,0.8,2.4
		C114.9,200.3,115,200.7,115.1,200.9L115.1,200.9z M111.7,141.5v-3.3l2.3,4.1l-1.4,0.8C112.7,143.1,111.7,141.5,111.7,141.5z
		 M111.7,27.9v7.5c-0.3-0.2-0.7-0.5-0.9-0.8c-0.7-0.8-1-1.7-1.1-2.8c0-1.4,0.5-2.6,1.6-3.5C111.5,28.1,111.6,28,111.7,27.9z
		 M111.7,36.8v4.5c-0.6-0.2-1-0.4-1.3-0.7c-0.3-0.3-0.6-0.8-0.7-1.4c-0.2-0.6-0.3-1.3-0.3-2c0-0.4,0.1-0.8,0.2-0.9
		c0.2-0.2,0.4-0.3,0.7-0.3C110.9,35.9,111.3,36.1,111.7,36.8L111.7,36.8L111.7,36.8z M111.7,90.1v1.4c-0.1,0-0.1,0-0.1-0.1
		c-0.2-0.1-0.3-0.3-0.3-0.6C111.3,90.8,111.5,90.6,111.7,90.1z M111.7,138.2v3.3l-3.9-6.9v-3.3L111.7,138.2z M111.7,160.2
		c-0.1,0.1-0.1,0.2-0.1,0.2c0,0.1,0,0.2,0.1,0.2v-0.1c-0.1,0.1-0.2,0.2-0.3,0.3c-0.3,0.2-0.7,0.2-1.1,0.2c-0.2,0-0.4-0.1-0.7-0.1
		c-0.2-0.1-0.3-0.1-0.5-0.2c-0.2-0.2-0.4-0.6-0.6-1.2v-0.1c0,0-0.1-0.1-0.1-0.2c-0.2-0.7-0.4-1-0.7-1.1v-1c0.2,0,0.3-0.1,0.4-0.2
		c0.1-0.2,0.2-0.4,0.2-0.7c0-0.3-0.1-0.4-0.2-0.6c-0.1-0.2-0.3-0.2-0.4-0.2v-1h0.6c0.8,0,1.3,0.1,1.8,0.4c0.4,0.3,0.6,0.7,0.6,1.3
		c0,0.2-0.1,0.4-0.2,0.7c-0.1,0.2-0.3,0.3-0.4,0.5c-0.1,0-0.1,0.1-0.2,0.1c-0.1,0.1-0.2,0.1-0.2,0.2c0,0.1,0.1,0.1,0.2,0.2
		c0.2,0.1,0.3,0.1,0.4,0.2c0.2,0.1,0.3,0.3,0.4,0.5c0.1,0.2,0.2,0.4,0.2,0.8v0.2c0.1,0.3,0.2,0.4,0.2,0.5l0.1,0.1
		C111.6,160,111.7,160.1,111.7,160.2L111.7,160.2z M111.7,191.8v13.3c-1-0.2-1.8-0.3-2.3-0.5c-0.7-0.3-0.9-0.6-0.9-1.1
		c0-0.2,0.1-0.4,0.2-0.5c0.1-0.1,0.2-0.2,0.4-0.3c0.1,0,0.1-0.1,0.2-0.1c0.4-0.1,0.6-0.3,0.6-0.5c0.1-0.3-0.2-0.6-0.7-0.7
		c-0.3-0.1-0.8-0.2-1.4-0.3v-2.8l1.5,0.2c-0.3-1-0.6-1.7-0.8-2.3c-0.3-0.5-0.4-0.7-0.6-0.8c-0.1,0-0.1,0.1-0.2,0.1V190
		c0.3-0.1,0.6-0.2,0.9-0.1c0.6,0.1,1,0.2,1.4,0.3c0.3,0.2,0.7,0.4,0.9,0.7C111.3,191.1,111.5,191.4,111.7,191.8L111.7,191.8z
		 M107.8,160.8c0.2-0.1,0.3-0.2,0.3-0.4c0-0.2-0.1-0.3-0.3-0.4V160.8L107.8,160.8z M107.8,91.7v-1.7c0.3-0.1,0.6-0.1,0.8-0.2
		c0.3-0.2,0.6-0.3,0.8-0.6c0.1-0.1,0.2-0.2,0.3-0.4c0.2-0.4,0.4-0.6,0.7-0.6c0.3,0,0.4,0.1,0.6,0.2c0.1,0.2,0.2,0.4,0.2,0.7
		c0,0.3,0,0.7-0.1,1c-0.1,0.3-0.2,0.7-0.4,1c-0.2,0.3-0.3,0.5-0.4,0.6c-0.1,0.1-0.3,0.2-0.4,0.2h-0.2
		C109.1,91.8,108.4,91.7,107.8,91.7z M107.8,89c0.3,0,0.6-0.2,0.7-0.6c0.2-0.4,0.2-1,0.2-1.9c0-0.7-0.1-1.2-0.2-1.5
		c-0.2-0.3-0.4-0.5-0.7-0.5V89z M107.8,83.6V82c0.6,0,1.1-0.1,1.6-0.1c0.1-0.1,0.1-0.1,0.1-0.1c0.4,0,0.7,0.2,0.9,0.6
		c0.2,0.4,0.3,0.8,0.3,1.4c0,0.4-0.1,0.7-0.2,0.8c-0.2,0.2-0.3,0.3-0.6,0.3c-0.3,0-0.5-0.2-0.7-0.5c-0.1-0.1-0.2-0.2-0.2-0.2
		c-0.2-0.2-0.4-0.4-0.7-0.5C108.2,83.7,108,83.6,107.8,83.6L107.8,83.6z M107.8,40v-1.7v0.1C107.9,38.9,107.9,39.4,107.8,40z
		 M107.8,38.4V40c-0.1,0.6-0.3,1.2-0.4,1.6c-0.2,0.3-0.3,0.5-0.5,0.7c-0.2,0.1-0.3,0.2-0.6,0.3h-0.2c-0.7-0.1-1.5,0-2.4,0.2
		l-3.7,0.7V28.7c0.1,0,0.3,0.1,0.4,0.1c0.7,0.1,1.2,0.4,1.2,0.9s-0.1,0.8-0.6,1.1c-0.1,0.1-0.2,0.2-0.3,0.3
		c-0.1,0.1-0.2,0.3-0.3,0.3c-0.1,0.1-0.1,0.3-0.1,0.4c0.1,0.3,0.1,0.8,0.2,1.3c0.1,0.6,0.2,1.5,0.4,2.6l0.3,1.6
		c0.2,0.8,0.3,1.4,0.3,1.8c0.1,0.4,0.2,0.7,0.2,0.8c0.1,0.2,0.2,0.3,0.5,0.3c0.2,0.1,0.6,0.1,0.9,0c0.7-0.2,1.2-0.3,1.5-0.6
		c0.3-0.2,0.6-0.6,0.7-1.2c0-0.1,0.1-0.3,0.1-0.4c0.1-0.6,0.3-0.9,0.7-1c0.4-0.1,0.8,0.1,1,0.3C107.6,37.6,107.7,38,107.8,38.4
		L107.8,38.4z M107.8,82v1.7c-0.2,0-0.3-0.1-0.5-0.1c-0.5,0-0.8,0.1-0.9,0.1c-0.2,0.1-0.3,0.1-0.3,0.2c-0.1,0.1-0.1,0.2-0.1,0.4
		c-0.1,0.3-0.1,0.6-0.1,1c0,0.4,0.1,0.6,0.1,0.7c0.1,0.1,0.2,0.2,0.6,0.2c0.2,0,0.3-0.1,0.4-0.1c0.1-0.1,0.2-0.2,0.2-0.4
		c0-0.1,0-0.1,0.1-0.2c0.1-0.6,0.3-0.9,0.6-0.9V89h-0.1c-0.3,0-0.5-0.2-0.6-0.7l-0.1-0.1c0-0.3-0.1-0.5-0.2-0.6
		c-0.1-0.1-0.2-0.1-0.4-0.1c-0.3,0-0.4,0.1-0.5,0.2c-0.1,0.1-0.1,0.3-0.1,0.7c0,0.6,0,0.9,0.1,1.1c0,0.2,0.1,0.3,0.1,0.4
		c0.1,0.1,0.2,0.2,0.3,0.2c0.2,0.1,0.5,0.1,0.9,0.1h0.5v1.7h-0.4h-4.9c-0.4,0-0.7-0.1-0.8-0.2c-0.2-0.1-0.2-0.3-0.2-0.5
		c0-0.3,0.2-0.5,0.4-0.7c0.2-0.1,0.3-0.2,0.3-0.2c0.2-0.2,0.3-0.5,0.3-1.1c0.1-0.6,0.1-1.5,0.1-2.8c0-0.9-0.1-1.6-0.1-2
		c-0.1-0.4-0.2-0.7-0.3-0.7c0-0.1-0.2-0.2-0.4-0.3c-0.2-0.2-0.4-0.3-0.4-0.6c0-0.2,0.1-0.4,0.3-0.6c0.2-0.1,0.5-0.2,0.9-0.2h1.3
		c0.8,0.1,1.6,0.1,2.3,0.1C106.9,82,107.4,82,107.8,82z M107.8,131.3v3.3l-5.1-9H100V124h3.6l0.2,0.4L107.8,131.3z M107.8,154.5v1
		h-0.1c-0.1,0-0.2,0.1-0.2,0.1c-0.1,0.1-0.1,0.3-0.1,0.6v0.4v0.3v0.2c0.1,0,0.1,0.1,0.2,0.1h0.1h0.1v1h-0.1h-0.1
		c-0.1,0.1-0.1,0.1-0.1,0.1v0.8v0.6c0.1,0.1,0.1,0.2,0.1,0.2c0.1,0,0.1,0.1,0.1,0.1h0.1v0.9c-0.1,0-0.1,0-0.1,0.1
		c-0.3,0.1-0.7,0.1-1.3,0.1s-1-0.1-1.3-0.2c-0.3-0.1-0.4-0.2-0.4-0.4c0-0.2,0.2-0.3,0.4-0.4c0.1,0,0.1-0.1,0.1-0.1
		c0.1-0.1,0.1-0.3,0.2-0.7c0-0.4,0.1-0.9,0.1-1.5v-0.4c0-0.7,0-1.2-0.1-1.4c0-0.2-0.1-0.3-0.1-0.4c-0.1-0.1-0.1-0.1-0.2-0.1
		c-0.2-0.1-0.3-0.3-0.3-0.4c0-0.2,0.1-0.3,0.3-0.4c0.2-0.1,0.4-0.1,0.8-0.1h0.4h0.5h0.9L107.8,154.5L107.8,154.5L107.8,154.5z
		 M107.8,190v5.7c-0.1,0.1-0.3,0.2-0.4,0.4c-0.2,0.4-0.6,1.1-1.2,2.2l1.6,0.1v2.8c-0.3-0.1-0.6-0.1-0.9-0.1
		c-0.8-0.1-1.4-0.1-1.8,0.1c-0.3,0.1-0.5,0.3-0.6,0.6c0,0.1,0,0.2,0.1,0.3c0.1,0.1,0.2,0.2,0.4,0.3c0.3,0.2,0.5,0.3,0.6,0.4
		c0.1,0.2,0.1,0.3,0.1,0.6c-0.1,0.5-0.3,0.8-0.9,0.9c-0.5,0.2-1.3,0.2-2.4,0.1c-1-0.1-1.8-0.2-2.3-0.5c-0.1-0.1-0.2-0.2-0.3-0.2
		v-1.5c0.1-0.1,0.4-0.2,0.7-0.3c0.4-0.1,0.7-0.2,0.8-0.4c0.2-0.2,0.4-0.6,0.7-1c0.3-0.5,0.8-1.4,1.4-2.6l0.3-0.7
		c1.8-3.2,2.8-5.1,2.9-5.8c0.1,0,0.1-0.1,0.1-0.1C107,190.6,107.4,190.2,107.8,190L107.8,190z M100,193c0.1-0.2,0.1-0.4,0.2-0.6
		c0.3-1,0.2-1.8-0.2-2.5V193z M100,159.4v-1.2h0.9c-0.2-0.4-0.3-0.7-0.4-0.9c-0.1-0.2-0.2-0.3-0.3-0.3c-0.1,0-0.1,0.1-0.2,0.3v0.1
		v-2.8c0.1-0.1,0.2-0.1,0.3-0.1c0.3,0,0.5,0.1,0.7,0.1c0.2,0.1,0.3,0.2,0.4,0.3c0.2,0.2,0.3,0.4,0.6,0.8c0.2,0.4,0.6,1,0.9,2
		c0.1,0.3,0.3,0.6,0.4,1c0.3,0.7,0.5,1,0.6,1.2c0.1,0.1,0.1,0.1,0.2,0.1c0.1,0.1,0.1,0.1,0.1,0.1c0.1,0.1,0.1,0.1,0.2,0.2
		c0.1,0.1,0.1,0.1,0.1,0.2c0,0.2-0.2,0.4-0.5,0.5c-0.3,0.1-0.7,0.2-1.4,0.2c-0.7,0-1.2-0.1-1.5-0.2c-0.3-0.1-0.4-0.2-0.4-0.4
		c0-0.1,0-0.2,0.1-0.2c0.1-0.1,0.1-0.1,0.2-0.2h0.1c0.2-0.1,0.2-0.2,0.2-0.3c0-0.1-0.1-0.2-0.3-0.3
		C100.8,159.4,100.5,159.4,100,159.4L100,159.4z M100,137.1v-1.6h5.4v1.6H100z M100,133.3h3.8v-1.7H100V133.3z M100,129.5h2.2v-1.6
		H100V129.5z M100,89.2V82c0.2,0.1,0.4,0.1,0.6,0.1c0.4,0.2,0.6,0.4,0.6,0.8c0,0.3-0.1,0.6-0.4,0.8h-0.1c-0.3,0.2-0.4,0.6-0.5,1.1
		v0.1v2C100.1,87.9,100,88.7,100,89.2z M100,28.7v14.7L96.8,44c-0.4,0.1-0.7,0-1-0.2c-0.2-0.2-0.4-0.4-0.5-0.8
		c-0.1-0.4,0.1-0.8,0.6-1.2c0.2-0.2,0.3-0.3,0.3-0.4c0.2-0.2,0.2-0.6,0.2-1s-0.1-1.4-0.4-2.8l-0.3-1.8c-0.3-1.4-0.4-2.3-0.6-2.8
		c-0.2-0.4-0.3-0.7-0.4-0.8c-0.1-0.1-0.2-0.1-0.4-0.1c-0.3-0.1-0.4-0.1-0.5-0.1c-0.1,0-0.1-0.1-0.2-0.1v-1.7
		c0.1-0.1,0.3-0.2,0.5-0.4c0.7-0.4,1.7-0.7,3-0.9C98.4,28.8,99.3,28.8,100,28.7L100,28.7z M100,82v7.2c-0.1,0.2-0.1,0.4-0.1,0.5
		c-0.3,0.8-0.7,1.3-1.3,1.7c-0.6,0.4-1.4,0.6-2.4,0.6s-1.8-0.2-2.4-0.6v-3.9H94c0.4,0,0.8,0.2,1.2,0.4c0.3,0.3,0.4,0.6,0.4,1
		c0,0.1-0.1,0.2-0.1,0.4c-0.1,0.2-0.1,0.3-0.1,0.4c0,0.1,0.1,0.2,0.1,0.2s0.2,0.1,0.2,0.1c0.3,0,0.6-0.1,0.7-0.4
		c0.2-0.3,0.2-0.7,0.2-1.1v-3.8c0-0.4,0-0.7-0.1-0.8s-0.2-0.2-0.4-0.3c-0.4-0.2-0.6-0.4-0.6-0.7c0-0.4,0.2-0.7,0.6-0.9
		c0.4-0.2,1.1-0.3,2.1-0.3C99,81.9,99.6,82,100,82L100,82z M100,124v1.7h-6.2V124L100,124z M100,127.9v1.6h-6.2v-1.6H100z
		 M100,131.7v1.7h-6.2v-1.7H100z M100,135.5v1.6h-6.2v-1.6H100z M100,154.5v2.8c-0.1,0.2-0.3,0.5-0.4,0.9h0.4v1.2
		c-0.4,0-0.7,0-0.8,0.1c-0.2,0.1-0.2,0.2-0.2,0.3c0,0.1,0,0.1,0.1,0.2c0,0.1,0.1,0.1,0.2,0.1c0.1,0.1,0.2,0.1,0.2,0.2
		c0.1,0.1,0.1,0.1,0.1,0.2c0,0.2-0.1,0.3-0.4,0.4c-0.2,0.1-0.6,0.2-1,0.2c-0.4,0-0.8-0.1-1-0.2c-0.2-0.1-0.3-0.2-0.3-0.4
		c0-0.1,0-0.2,0.1-0.2c0.1-0.1,0.2-0.2,0.4-0.2c0.2-0.1,0.3-0.1,0.3-0.2c0.1-0.1,0.1-0.2,0.2-0.4c0.1-0.2,0.3-0.6,0.6-1.2l0.1-0.3
		c0.7-1.5,1-2.4,1-2.7V155C99.6,154.8,99.8,154.5,100,154.5L100,154.5z M100,190v3c-0.1,0.2-0.3,0.4-0.4,0.6
		c-0.3,0.3-0.6,0.6-0.9,0.8c-0.1,0-0.3,0.1-0.4,0.2c-0.3,0.1-0.5,0.2-0.6,0.3c0,0.1,0.1,0.3,0.4,0.4c0.3,0.2,0.4,0.3,0.6,0.4
		c0.4,0.4,0.7,0.9,0.9,1.4c0.2,0.6,0.1,1.3-0.1,2c-0.3,1.3-1.1,2.2-2.2,2.8c-1,0.5-2.2,0.6-3.5,0.3v-3.9c0.1-0.2,0.2-0.4,0.2-0.7
		c0.2-0.6,0.2-1.1-0.1-1.5c-0.1-0.1-0.1-0.1-0.2-0.2v-2.6c0.2,0,0.4-0.1,0.6-0.2c0.3-0.2,0.6-0.7,0.7-1.3c0.2-0.7,0.3-1.3,0.1-1.6
		c-0.2-0.3-0.6-0.6-1.1-0.7c-0.1-0.1-0.2-0.1-0.3,0v-2.4c0.2,0.1,0.4,0.1,0.7,0.2c0.8,0.2,1.3,0.4,1.6,0.4c1.8,0.5,2.9,1.2,3.6,1.9
		C99.8,189.7,99.9,189.9,100,190L100,190z M100,202.1c-0.1,0-0.1,0.1-0.2,0.1c-0.1,0.1-0.2,0.3-0.2,0.6c0,0.3,0.1,0.6,0.4,0.8
		L100,202.1C100,202.1,100,202.1,100,202.1z M93.8,161.1v-1.3c0.1,0,0.2-0.1,0.3-0.1c0.1-0.1,0.2-0.2,0.2-0.3c0-0.1-0.2-0.3-0.4-0.4
		v-2.7c0.2,0.1,0.4,0.3,0.9,0.4c0.1,0.1,0.2,0.1,0.2,0.1c0.7,0.2,1.2,0.5,1.4,0.8c0.3,0.3,0.4,0.7,0.4,1.2c0,0.7-0.3,1.3-0.8,1.7
		C95.3,160.9,94.6,161.1,93.8,161.1L93.8,161.1z M93.8,155.8L93.8,155.8c0.1-0.1,0.3-0.1,0.4-0.1c0.2,0,0.3,0,0.5,0.1
		c0.2,0.1,0.3,0.2,0.4,0.3c0.1,0,0.1,0.1,0.2,0.2c0.3,0.3,0.6,0.4,0.7,0.4c0.2,0,0.3-0.1,0.4-0.2c0.1-0.1,0.2-0.3,0.2-0.5
		c0-0.2,0-0.3-0.1-0.6c-0.1-0.2-0.2-0.4-0.4-0.6c-0.1-0.1-0.2-0.2-0.3-0.3c-0.1-0.1-0.2-0.1-0.3-0.1c-0.1,0-0.1,0-0.3,0.1H95
		l-0.4-0.1c-0.3-0.1-0.6-0.1-0.8-0.1L93.8,155.8L93.8,155.8z M93.8,44.5c0.4-0.4,0.6-0.9,0.3-1.3c-0.1-0.2-0.2-0.3-0.3-0.4V44.5z
		 M93.8,30.3v1.7c-0.1-0.1-0.2-0.2-0.2-0.2c-0.1-0.1-0.2-0.3-0.2-0.5C93.3,30.9,93.4,30.5,93.8,30.3z M93.8,42.8v1.7
		c-0.1,0.1-0.1,0.1-0.1,0.1c-0.5,0.5-1.4,1-2.8,1.7c-1.5,0.7-2.5,1-3.3,1.1c-0.7,0.1-1.1-0.1-1.3-0.6c-0.1-0.2-0.1-0.3-0.1-0.5
		c0-0.2,0.1-0.3,0.2-0.5c0,0,0.1-0.1,0.2-0.2c0.3-0.3,0.3-0.5,0.3-0.7c-0.2-0.3-0.4-0.4-0.9-0.3c-0.1,0-0.2,0-0.2,0.1v-7.9
		c0.7,0.6,1.5,1.3,2.5,2.2c0.4,0.4,1.1,1,1.9,1.7c1.2,1.2,1.9,1.8,2.3,1.9c0.2,0.1,0.3,0.1,0.6,0h0.2C93.4,42.6,93.6,42.7,93.8,42.8
		L93.8,42.8z M93.8,87.5v3.9c-0.1-0.1-0.2-0.1-0.3-0.2c-0.7-0.6-1-1.2-1-2c0-0.5,0.2-0.9,0.4-1.2C93.1,87.7,93.4,87.6,93.8,87.5z
		 M93.8,124v1.6l-8,0.1V124H93.8z M93.8,127.9v1.6h-8v-1.6H93.8L93.8,127.9z M93.8,131.7v1.7h-8v-1.7H93.8L93.8,131.7z M93.8,135.5
		v1.6h-8v-1.6H93.8L93.8,135.5z M93.8,154.4v1.4c-0.1,0.1-0.1,0.2-0.1,0.3c0,0.1,0.1,0.1,0.1,0.2v2.7c-0.1-0.1-0.2-0.1-0.2-0.1
		c-0.2-0.1-0.4-0.1-0.5-0.2c-0.7-0.2-1.1-0.6-1.4-0.9c-0.3-0.4-0.4-0.8-0.4-1.3c0-0.6,0.2-1.2,0.7-1.5
		C92.4,154.7,93,154.4,93.8,154.4L93.8,154.4z M93.8,159.8h-0.2c-0.3,0-0.5-0.1-0.7-0.2c-0.2-0.2-0.4-0.4-0.7-0.6
		c-0.1-0.1-0.1-0.1-0.2-0.2c-0.2-0.3-0.3-0.4-0.6-0.4c-0.2,0-0.2,0.1-0.3,0.2c-0.1,0.1-0.1,0.2-0.1,0.4c0,0.3,0.1,0.6,0.1,0.9
		c0.1,0.3,0.2,0.4,0.3,0.6c0.2,0.2,0.4,0.3,0.9,0.4c0.4,0.1,0.9,0.2,1.4,0.2L93.8,159.8L93.8,159.8z M93.8,187.1v2.4
		c-0.1,0-0.1,0.1-0.1,0.1v0.1v0.1l-0.8,2.9c-0.1,0.2-0.1,0.3-0.1,0.3c0.1,0.1,0.2,0.2,0.3,0.2c0.3,0.1,0.5,0.1,0.7,0.1v2.6
		c-0.2-0.3-0.6-0.4-1.1-0.6c-0.2-0.1-0.4-0.1-0.5,0c-0.1,0-0.1,0.2-0.2,0.3c-0.2,0.5-0.3,1-0.4,1.4c-0.1,0.4-0.2,0.8-0.2,1
		c-0.1,0.4-0.1,0.7-0.1,0.8c0.1,0.1,0.3,0.2,0.6,0.3c0.5,0.2,0.9,0.1,1.3-0.2c0.2-0.2,0.4-0.4,0.6-0.8v3.9c-0.1-0.1-0.2-0.1-0.3-0.1
		l-7.7-2.2v-2.4c0.2-0.1,0.3-0.3,0.3-0.4c0.2-0.3,0.4-1,0.8-1.9c0.3-0.9,0.7-2,1-3.3l0.4-1.5c0.2-0.8,0.3-1.4,0.4-1.7
		c0.1-0.3,0-0.6-0.1-0.7c-0.1-0.1-0.2-0.2-0.4-0.3c-0.5-0.3-0.7-0.7-0.6-1.1c0.1-0.4,0.3-0.7,0.7-0.7c0.3-0.1,0.8-0.1,1.5,0.2
		c0.2,0.1,0.7,0.2,1.2,0.3c0.6,0.2,0.9,0.3,1.3,0.4C92.8,186.8,93.3,187,93.8,187.1L93.8,187.1z M85.8,189.4c0.4-0.2,0.7-0.6,1-1.1
		c0.3-0.4,0.4-1,0.4-1.6c0.1-0.6,0-1.2-0.1-1.8c-0.1-0.2-0.2-0.4-0.3-0.6c-0.1-0.2-0.3-0.3-0.5-0.4c-0.1-0.1-0.3-0.1-0.5-0.2
		C85.8,183.8,85.8,189.4,85.8,189.4z M85.8,91.7v-9.9h0.6c0.9,0,1.6,0.1,2.1,0.2c0.4,0.2,0.7,0.4,0.7,0.8c0,0.3-0.2,0.5-0.5,0.7
		c-0.1,0.1-0.2,0.1-0.3,0.1c-0.1,0.1-0.2,0.2-0.2,0.2c-0.1,0.1-0.1,0.1-0.1,0.3V85C88,85.4,88,86,88,86.8v1c0,0.6,0,0.9,0.1,1.2v0.6
		c0.1,0.1,0.2,0.2,0.3,0.3C88.5,90,88.7,90,89,90c0.5,0,0.8-0.1,1.1-0.2c0.2-0.1,0.4-0.3,0.6-0.7c0-0.1,0.1-0.2,0.1-0.3
		c0.1-0.3,0.3-0.6,0.6-0.6c0.2,0,0.4,0.1,0.7,0.3c0.2,0.2,0.2,0.4,0.2,0.8s-0.1,0.7-0.2,1c-0.2,0.4-0.3,0.7-0.5,1
		c-0.1,0.2-0.2,0.3-0.4,0.4c-0.1,0.1-0.3,0.1-0.4,0.1h-0.1c-0.5-0.1-1-0.2-1.6-0.2L85.8,91.7L85.8,91.7L85.8,91.7z M85.8,36.8v7.9
		c-0.5,0.1-1.2,0.3-2,0.7c-0.2,0.1-0.4,0.2-0.6,0.3v-3l1.4-0.7c-0.6-0.6-1-1-1.4-1.3v-5.8c0.3,0.2,0.8,0.5,1.2,0.8
		C84.8,36,85.2,36.3,85.8,36.8L85.8,36.8z M85.8,81.8v9.9h-1.4c-0.3,0-0.5-0.1-0.6-0.2c-0.2-0.2-0.3-0.4-0.3-0.6
		c0-0.3,0.2-0.5,0.5-0.7c0.2-0.1,0.2-0.2,0.3-0.2c0.2-0.1,0.2-0.3,0.3-0.7c0.1-0.3,0.1-0.9,0.1-1.9v-1.2v-1.9c0-0.3-0.1-0.6-0.2-0.6
		c-0.1-0.1-0.2-0.1-0.3-0.2c-0.2-0.1-0.3-0.1-0.3-0.1c-0.1-0.1-0.2-0.2-0.2-0.2c-0.1-0.1-0.1-0.2-0.1-0.3c0-0.3,0.2-0.6,0.8-0.8
		C84.6,81.9,85.2,81.9,85.8,81.8L85.8,81.8z M85.8,124v1.7h-2.5V124H85.8z M85.8,127.9v1.6h-2.5v-1.6H85.8z M85.8,131.7v1.7h-2.5
		v-1.7H85.8z M85.8,135.5v1.6h-2.5v-1.6H85.8z M85.8,183.8v5.6c-0.4,0.2-0.8,0.1-1.3-0.1c-0.3-0.1-0.5-0.4-0.7-0.7
		c-0.2-0.3-0.3-0.7-0.3-1.1c0-0.2,0-0.3-0.1-0.6c0-0.6-0.1-0.9-0.3-1v-3.3l1.8,0.9c0.1,0,0.3,0.1,0.6,0.1
		C85.6,183.8,85.7,183.8,85.8,183.8L85.8,183.8z M85.8,197.5v2.4c-0.6-0.2-1-0.4-1.2-0.6c-0.2-0.2-0.3-0.6-0.2-0.9
		c0.1-0.2,0.2-0.3,0.3-0.4c0.2-0.1,0.2-0.2,0.3-0.2c0.1,0.1,0.3,0,0.6-0.2C85.6,197.6,85.7,197.6,85.8,197.5z M83.2,49.5v-2
		c0.1,0,0.2,0,0.3,0.1c0.2,0.1,0.3,0.2,0.4,0.4c0.2,0.4,0.1,0.8-0.3,1.3C83.4,49.2,83.3,49.4,83.2,49.5z M83.2,34.9v5.8
		c-0.1-0.1-0.2-0.2-0.3-0.2c-0.4-0.3-0.8-0.4-0.9-0.4c-0.2,0.1-0.2,0.3-0.3,0.8c0,0.4,0,1.3,0.1,2.4l1.4-0.6v3
		c-0.5,0.2-0.8,0.4-1,0.6c-0.3,0.2-0.3,0.5-0.2,0.8c0.1,0.2,0.1,0.3,0.2,0.3c0.1,0.1,0.3,0.1,0.6,0.1h0.4v2c-0.4,0.3-1,0.7-1.8,1
		c-0.9,0.4-1.7,0.6-2.2,0.6s-0.9-0.2-1.1-0.6c-0.1-0.2-0.1-0.4-0.1-0.6c0.1-0.2,0.2-0.4,0.6-0.8c0.3-0.3,0.5-0.5,0.5-0.7
		c0.1-0.3,0.1-0.7,0.1-1.2v-3v-0.7c-0.1-3.6-0.2-5.8-0.3-6.6v-0.1c-0.2-1,0.1-1.7,1-2.1c0.5-0.2,1-0.3,1.4-0.4c0.4,0,0.8,0,1.2,0.2
		C82.7,34.6,83,34.7,83.2,34.9z M83.2,124v1.7h-6.8v-1.6L83.2,124z M83.2,127.9v1.6h-4v-1.6H83.2z M83.2,131.7v1.7h-2.4v-1.7H83.2z
		 M83.2,135.5v1.6h-0.8v-1.6H83.2z M83.2,182.7v3.3h-0.1c-0.1-0.1-0.3-0.1-0.4,0c-0.2,0.1-0.3,0.2-0.4,0.5l-0.3,0.6
		c-0.2,0.4-0.6,1.2-1.2,2.2c-0.6,1.1-1,1.9-1.3,2.6c-0.3,0.6-0.5,1.1-0.6,1.4c-0.1,0.3,0.1,0.6,0.2,0.8c0.1,0.1,0.1,0.2,0.2,0.3
		c0.3,0.4,0.4,0.8,0.2,1.2c-0.2,0.5-0.7,0.7-1.5,0.6c-0.8-0.1-1.9-0.5-3.3-1.3c-0.9-0.4-1.6-0.9-2.1-1.4v-2.4h0.4h0.6
		c0.3-0.1,0.7-0.5,1.3-1.3c0.6-0.8,1.2-2,2-3.5l0.4-0.8c0.4-0.8,0.7-1.4,0.7-1.7c0.1-0.3-0.1-0.4-0.2-0.6c-0.2-0.1-0.6,0-1.1,0.3
		c-0.2,0.1-0.3,0.1-0.4,0.2c-0.6,0.3-1,0.4-1.3,0.5c-0.3,0.1-0.6,0-0.9-0.2c-0.3-0.2-0.6-0.4-0.7-0.8c-0.1-0.4,0-0.8,0.2-1.2
		c0.2-0.4,0.5-0.7,0.9-1c0.4-0.4,0.9-0.7,1.4-1c0.4-0.2,0.8-0.4,1.1-0.4c0.3-0.1,0.6-0.1,0.8,0.1c0.1,0.1,0.2,0.2,0.4,0.4
		c0.2,0.2,0.3,0.3,0.4,0.4L83.2,182.7L83.2,182.7z M72.7,183.6c0.3-0.4,0.4-0.9,0.6-1.5c0.3-0.9,0.4-1.9,0.3-2.9
		c-0.2-0.9-0.4-1.8-0.9-2.6V183.6L72.7,183.6z M72.7,90.9v-2.4c0,0.1,0.1,0.1,0.1,0.1c0.1,0.2,0.2,0.5,0.2,0.8
		C73,90,72.9,90.4,72.7,90.9z M72.7,83.9v-2c0.1,0.1,0.2,0.1,0.3,0.1c0.2,0.1,0.3,0.3,0.3,0.6C73.2,82.8,73.1,83.3,72.7,83.9
		L72.7,83.9z M72.7,56v-9c0.3,0,0.6,0.1,0.9,0.2c0.6,0.2,1.1,0.6,1.5,1.2c0.8,1,1.2,2.2,0.9,3.4C75.9,53,75.2,54,74,55
		C74,55,72.7,56,72.7,56z M79.3,91.7h-4.9c-0.4,0-0.7-0.1-0.8-0.2c-0.2-0.1-0.2-0.3-0.2-0.5c0-0.3,0.2-0.5,0.5-0.7
		c0.1-0.1,0.2-0.2,0.3-0.2c0.2-0.2,0.3-0.5,0.3-1.1c0.1-0.6,0.1-1.5,0.1-2.8c0-0.9,0-1.6-0.1-2c-0.1-0.4-0.1-0.7-0.2-0.7
		c-0.1-0.1-0.2-0.2-0.4-0.3c-0.3-0.2-0.4-0.3-0.4-0.6c0-0.2,0.1-0.4,0.3-0.6C74,82,74.3,82,74.7,82H76c0.8,0.1,1.5,0.1,2.3,0.1
		c1.2,0,2.2-0.1,3-0.2c0.1-0.1,0.1-0.1,0.2-0.1c0.3,0,0.6,0.2,0.8,0.6c0.2,0.4,0.3,0.8,0.3,1.4c0,0.4-0.1,0.7-0.2,0.8
		c-0.2,0.2-0.3,0.3-0.6,0.3c-0.3,0-0.6-0.2-0.8-0.5c-0.1-0.1-0.1-0.2-0.2-0.2c-0.2-0.2-0.4-0.4-0.7-0.5c-0.3-0.1-0.6-0.2-1-0.2
		c-0.5,0-0.8,0.1-1,0.1c-0.2,0.1-0.2,0.1-0.3,0.2c-0.1,0.1-0.1,0.2-0.1,0.4c0,0.3-0.1,0.6-0.1,1c0,0.4,0.1,0.6,0.1,0.7
		C78,86,78.2,86,78.4,86c0.2,0,0.3-0.1,0.4-0.1c0.1-0.1,0.2-0.2,0.2-0.4c0.1-0.1,0.1-0.1,0.1-0.2c0.1-0.6,0.3-0.9,0.6-0.9
		c0.3,0,0.6,0.2,0.7,0.5c0.2,0.3,0.3,0.8,0.3,1.5c0,0.8-0.1,1.4-0.3,1.9C80.2,88.7,80,89,79.6,89c-0.3,0-0.5-0.2-0.6-0.7v-0.1
		c-0.1-0.3-0.1-0.5-0.2-0.6c-0.1-0.1-0.2-0.1-0.4-0.1s-0.4,0.1-0.5,0.2c-0.1,0.1-0.1,0.3-0.1,0.7c0,0.6,0,0.9,0.1,1.1
		c0,0.2,0.1,0.3,0.1,0.4c0.1,0.1,0.2,0.2,0.4,0.2c0.2,0.1,0.4,0.1,0.9,0.1c0.5,0,0.9-0.1,1.2-0.2c0.3-0.2,0.6-0.3,0.8-0.6
		c0.1-0.1,0.2-0.2,0.3-0.4c0.2-0.4,0.5-0.6,0.8-0.6c0.2,0,0.4,0.1,0.6,0.2c0.1,0.2,0.2,0.4,0.2,0.7c0,0.3-0.1,0.7-0.2,1
		c-0.1,0.3-0.2,0.7-0.4,1c-0.2,0.3-0.3,0.5-0.4,0.6c-0.1,0.1-0.3,0.2-0.4,0.2h-0.2C80.9,91.8,80.1,91.7,79.3,91.7z M72.7,47v9
		l-3.1,2.4v-4c0.3,0.3,0.5,0.5,0.6,0.5c0.2,0,0.3-0.1,0.6-0.3c0.4-0.3,0.6-0.7,0.6-1.2c0-0.5-0.2-1-0.7-1.5
		c-0.3-0.5-0.8-0.8-1.2-0.8v-7.9c0.2,0.2,0.4,0.4,0.6,0.6c0.3,0.4,0.6,0.8,0.7,1.2c0.1,0.4,0.1,0.8,0.1,1.2
		c-0.1,0.1-0.1,0.3-0.2,0.4c-0.1,0.3-0.1,0.6,0,0.7c0.1,0.1,0.3,0.1,0.6-0.1c0.3-0.1,0.5-0.2,0.7-0.3C72.2,47,72.4,47,72.7,47z
		 M72.7,81.9v2c-0.2,0.3-0.4,0.7-0.7,1c-0.3,0.5-0.6,0.9-0.8,1.2l-1.7,2.6v-6.9H72C72.3,81.9,72.5,81.9,72.7,81.9z M72.7,88.5
		c-0.2-0.1-0.3-0.2-0.5-0.2c-0.3,0-0.6,0.2-0.8,0.7c-0.1,0.2-0.2,0.3-0.3,0.4c-0.1,0.2-0.2,0.2-0.4,0.3c-0.2,0.1-0.5,0.1-0.8,0.1
		h-0.3v1.9h1c0.2,0,0.4,0,0.7,0.1c0.2,0.1,0.3,0.1,0.4,0.1c0.3,0,0.6-0.3,0.8-0.8c0.1-0.1,0.1-0.2,0.2-0.2L72.7,88.5L72.7,88.5
		L72.7,88.5z M72.7,176.5v7c-0.2,0.4-0.5,0.8-0.8,1.2c-0.7,0.9-1.4,1.5-2.3,2v-13.4c0.3,0.2,0.6,0.4,0.8,0.6
		c0.9,0.7,1.6,1.5,2.2,2.4C72.6,176.4,72.6,176.5,72.7,176.5L72.7,176.5z M72.7,191v2.4c-0.2-0.1-0.3-0.2-0.4-0.3
		c-0.6-0.6-0.7-1.1-0.4-1.5C72,191.3,72.3,191,72.7,191L72.7,191z M69.6,81.2v-1.7L70,80c0.1-0.1,0.2-0.2,0.4-0.4
		C70.8,79.2,71,79,71,79h0.3h0.4h0.5c0.1,0.1,0.2,0.1,0.2,0.2v0.1c-0.1,0.1-0.1,0.1-0.1,0.1L71,80.8c-0.2,0.2-0.3,0.3-0.4,0.4
		c-0.1,0-0.3,0.1-0.6,0.1C69.8,81.2,69.7,81.2,69.6,81.2z M69.6,43.3v7.9h-0.1c-0.4-0.1-0.9,0.1-1.4,0.5c-0.2,0.2-0.3,0.3-0.3,0.4
		c0,0.1,0.1,0.2,0.2,0.4c0.3,0.4,0.7,0.8,0.9,1.2c0.3,0.3,0.6,0.6,0.7,0.8v4l-1.9,1.5c-0.5,0.3-0.9,0.6-1.2,0.6
		c-0.3,0.1-0.6-0.1-0.8-0.3l-0.1-0.1v-0.9c0.1-0.1,0.1-0.3,0.1-0.4c0.1-0.3,0-0.6-0.1-0.8v-8.5L66,50c0.1,0.1,0.2,0.2,0.3,0.2
		c0.1,0,0.2-0.1,0.3-0.2c0.4-0.3,0.6-0.7,0.7-1c0-0.4-0.2-0.8-0.7-1.3c-0.3-0.5-0.7-0.8-1-0.9v-3.5c0.7-0.4,1.4-0.6,1.9-0.7
		C68.3,42.6,69,42.8,69.6,43.3z M69.6,79.5v1.7h-0.1c-0.1-0.1-0.2-0.2-0.3-0.3l-1.3-1.5c0-0.1-0.1-0.1-0.1-0.1v-0.2
		c0-0.1,0-0.1,0.1-0.1h0.6h0.2c0.2,0,0.3,0,0.4,0.1c0.1,0,0.2,0.1,0.2,0.2C69.3,79.2,69.6,79.5,69.6,79.5z M69.6,81.9v6.9l-0.2,0.3
		c-0.1,0.1-0.1,0.2-0.2,0.3c-0.1,0.1-0.1,0.2-0.1,0.2s0.1,0.1,0.2,0.2c0.1,0,0.1,0.1,0.2,0.1v1.9h-3.7h-0.3V89l0.1-0.1l0.2-0.3
		l2.8-4.1c0.1-0.2,0.1-0.2,0.2-0.3c0-0.1,0.1-0.2,0.1-0.2s-0.1-0.1-0.2-0.2c-0.1-0.1-0.3-0.1-0.6-0.1c-0.3,0-0.6,0.1-0.8,0.1
		c-0.2,0.1-0.3,0.2-0.4,0.4c-0.1,0.1-0.1,0.2-0.2,0.3c-0.2,0.5-0.5,0.7-0.9,0.7c-0.1,0-0.2,0-0.2-0.1v-2.6c0.1-0.1,0.1-0.1,0.1-0.2
		c0.2-0.2,0.3-0.3,0.5-0.4c0.1-0.1,0.3-0.2,0.4-0.2c0.1,0,0.2,0.1,0.3,0.1c0.2,0.1,0.2,0.1,0.3,0.1L69.6,81.9
		C69.6,81.9,69.6,81.9,69.6,81.9z M69.6,173.4v13.4l-0.1,0.1c-0.9,0.5-1.9,0.8-3,0.8c-0.3,0.1-0.6,0.1-0.9,0v-3.9
		c0.2-0.2,0.5-0.4,0.7-0.7c0.3-0.4,0.7-0.9,0.9-1.5c0.3-0.6,0.5-1.1,0.7-1.7c0.3-1.1,0.4-1.9,0.4-2.5c-0.1-0.7-0.3-1.2-0.8-1.5
		c-0.3-0.3-0.8-0.3-1.3-0.2c-0.2,0.1-0.4,0.2-0.7,0.3V172c0.7,0.1,1.3,0.2,2,0.4C68.3,172.6,68.9,173,69.6,173.4L69.6,173.4z
		 M65.6,43.3v3.5c-0.1-0.1-0.2-0.1-0.2-0.1c-0.3-0.1-0.8,0.1-1.2,0.5c-0.1,0.1-0.2,0.1-0.2,0.2c-0.1,0.1,0,0.2,0,0.2
		c0.1,0,0.1,0,0.1,0.1c0.1,0,0.1,0,0.1,0.1l1.4,1.9V58c-0.2-0.3-0.6-0.9-1.1-1.7c-0.6-0.8-1.3-1.8-2.1-2.8l-0.9-1.2
		c-0.6-0.7-0.9-1.1-1.2-1.3c-0.1-0.1-0.1-0.1-0.1-0.2v-3.4c0.3-0.2,0.6-0.4,0.7-0.6c0.4-0.4,1-0.8,1.7-1.3c0.7-0.6,1.1-0.9,1.3-1.1
		C64.5,43.9,65.1,43.6,65.6,43.3z M65.6,59.2v0.9c-0.1-0.2-0.2-0.3-0.2-0.4c0-0.2,0-0.3,0.1-0.3C65.6,59.3,65.6,59.3,65.6,59.2z
		 M65.6,82.6v2.6c-0.2,0-0.3-0.1-0.4-0.2c-0.1-0.2-0.2-0.4-0.2-0.7c0-0.3,0.1-0.7,0.2-1C65.4,83.1,65.5,82.8,65.6,82.6z M65.6,89
		v2.8c-0.4-0.1-0.7-0.1-0.8-0.2c-0.2-0.1-0.3-0.3-0.3-0.6C64.5,90.7,64.9,90.1,65.6,89z M65.6,172v3.9c-0.2,0.2-0.5,0.4-0.7,0.7
		c-0.3,0.4-0.6,0.9-0.9,1.5c-0.3,0.6-0.6,1.2-0.8,1.9c-0.2,0.9-0.3,1.7-0.2,2.3c0.1,0.7,0.3,1.1,0.7,1.4c0.4,0.3,0.8,0.4,1.2,0.2
		c0.2-0.1,0.4-0.2,0.7-0.3v3.9c-0.7,0-1.3-0.1-2-0.3c-0.9-0.3-1.8-0.8-2.7-1.5c-0.3-0.2-0.5-0.4-0.7-0.7V174c0.4-0.4,0.9-0.8,1.5-1
		c0.9-0.6,1.9-0.8,3-0.9C65,172,65.4,172,65.6,172L65.6,172z M60.2,172.9c0.2-0.3,0.4-0.6,0.6-0.9c0.4-0.9,0.7-1.8,0.8-2.8
		c0.1-1-0.1-2-0.4-3c-0.3-0.7-0.6-1.4-1-2.1V172.9L60.2,172.9z M60.2,67.8l0.1-0.1c0.8-0.9,1.4-1.8,1.8-2.6c0.3-0.8,0.6-1.7,0.5-2.5
		c-0.1-1-0.3-2-0.8-2.9c-0.4-0.8-0.9-1.5-1.6-2.2L60.2,67.8C60.2,67.8,60.2,67.8,60.2,67.8z M60.2,47.4v3.4
		c-0.2-0.1-0.3-0.2-0.4-0.2c-0.1,0-0.3,0.1-0.5,0.1c-0.5,0.2-0.8,0.1-1.1-0.1V49c0.2-0.2,0.4-0.4,0.7-0.7c0.2-0.1,0.6-0.4,1-0.7
		C60,47.5,60.1,47.5,60.2,47.4z M60.2,57.6v10.3c-0.3,0.4-0.9,1-1.8,1.9c-0.1,0.1-0.2,0.2-0.3,0.3v-3.9c0.3-0.6,0.4-1.3,0.3-1.9
		c-0.1-0.3-0.2-0.5-0.3-0.8V56c0.6,0.3,1,0.7,1.6,1.2C60,57.3,60.1,57.4,60.2,57.6L60.2,57.6z M60.2,164.1v8.8
		c-0.4,0.5-0.8,0.9-1.4,1.4c-0.2,0.2-0.4,0.4-0.7,0.6V162c0.5,0.4,1,0.9,1.5,1.5C59.9,163.7,60.1,163.9,60.2,164.1L60.2,164.1z
		 M60.2,174c-0.3,0.3-0.6,0.6-0.8,0.9c-0.6,0.7-0.9,1.4-1.2,2.3v4.9l0.1,0.2c0.2,0.7,0.6,1.4,1,2c0.3,0.4,0.6,0.7,0.9,1V174
		L60.2,174z M58.2,49v1.5c-0.1,0-0.1-0.1-0.1-0.1c-0.3-0.3-0.3-0.7-0.2-1C58,49.3,58,49.2,58.2,49z M58.2,56v7.4
		c-0.3-0.6-0.9-1.3-1.7-2c-0.8-0.7-1.4-1.2-2.1-1.4v-5h0.1C55.7,55,56.9,55.3,58.2,56z M58.2,66.1V70c-0.2,0.2-0.3,0.3-0.3,0.4
		c-0.2,0.2-0.4,0.4-0.7,0.7c-0.3,0.3-0.4,0.5-0.5,0.6l-0.8,0.8l-0.2,0.2c-0.4,0.4-0.8,0.7-1,0.7h-0.3v-8.7l0.6,0.5
		c0.7,0.6,1.2,1,1.5,1.2c0.3,0.3,0.6,0.4,0.8,0.4c0.2,0.1,0.3-0.1,0.6-0.3C57.9,66.5,58.1,66.3,58.2,66.1z M58.2,162v12.9
		c-0.7,0.4-1.4,0.8-2.1,1c-0.6,0.2-1.1,0.3-1.7,0.3v-5.2c0.2-0.2,0.4-0.4,0.6-0.7c0.4-0.5,0.7-1,1-1.5c0.5-1,0.8-1.8,0.9-2.4
		c0.1-0.6-0.1-1.2-0.4-1.5c-0.3-0.4-0.7-0.6-1.2-0.5c-0.3,0-0.6,0.1-0.9,0.3v-4.1h0.2c0.9,0.1,1.9,0.4,2.7,0.9
		C57.6,161.5,57.9,161.8,58.2,162L58.2,162z M58.2,177.1v4.9c-0.4-1.2-0.5-2.4-0.3-3.6C58,177.9,58.1,177.5,58.2,177.1z M54.4,55v5
		c-0.5-0.3-0.9-0.4-1.3-0.5c-1-0.1-1.9,0.2-2.6,1c-0.1,0.1-0.2,0.2-0.2,0.3v0.3c0.1,0,0.2,0.2,0.4,0.4c0.2,0.2,0.9,0.8,1.9,1.7
		c0.7,0.6,1.3,1.1,1.8,1.5v8.7c-0.2,0-0.4-0.1-0.6-0.3c-0.1-0.1-0.2-0.2-0.3-0.4c-0.1-0.1-0.1-0.3-0.1-0.5c0-0.2,0-0.3,0.1-0.6
		c0.1-0.2,0.1-0.4,0.1-0.5c-0.1-0.2-0.6-0.7-1.5-1.6c-0.9-0.8-2.3-2-4.1-3.6v-6.5c0.5-0.6,0.9-1.1,1.4-1.7
		C51,56.1,52.6,55.2,54.4,55z M54.4,160.4v4.1c-0.2,0.1-0.4,0.3-0.7,0.4c-0.4,0.3-0.8,0.8-1.2,1.3c-0.4,0.5-0.8,1.1-1.2,1.8
		c-0.4,0.8-0.7,1.5-0.7,2.2c-0.1,0.7,0.1,1.2,0.4,1.5c0.3,0.4,0.7,0.6,1.2,0.5c0.5-0.1,1-0.3,1.5-0.8c0.2-0.2,0.4-0.4,0.6-0.6v5.2
		c-0.4,0.1-0.9,0-1.4-0.1c-0.9-0.1-1.9-0.4-2.7-0.9c-0.8-0.4-1.5-1-2.2-1.8v-10.7c0.2-0.2,0.4-0.3,0.6-0.6c0.8-0.6,1.7-1.1,2.7-1.4
		C52.4,160.3,53.4,160.3,54.4,160.4L54.4,160.4z M48.1,158.4v-2.6c0.6-0.2,1-0.1,1.3,0.3c0.2,0.4,0.2,0.9-0.2,1.3
		C49,157.7,48.6,158.1,48.1,158.4z M48.1,153.7c0.4-0.2,0.8-0.3,0.9-0.4c0.1-0.1,0.3,0,0.4,0.2c0.1,0.1,0.3,0.4,0.5,0.7
		c0.4,0.8,0.7,1.4,0.7,1.8c0.1,0.5,0.1,1-0.1,1.5c0,0.1-0.1,0.2-0.1,0.3c-0.2,0.6-0.2,1-0.1,1.3c0.2,0.3,0.4,0.5,0.8,0.6
		c0.3,0.1,0.7-0.1,1-0.3c0.7-0.4,1.3-0.9,1.7-1.6c0.4-0.6,0.5-1.1,0.3-1.5c0-0.1-0.1-0.2-0.3-0.4c-1.1-1.6-2.3-3.4-3.3-5.2
		c-0.3-0.6-0.7-1.2-1-1.8c-0.3-0.6-0.6-1-0.6-1c-0.3-0.5-0.6-0.9-0.9-1C48.1,146.9,48.1,153.7,48.1,153.7z M48.1,85.8V80
		c0.2-0.4,0.3-0.7,0.3-1c0-0.4-0.1-0.8-0.2-1.2c0-0.1-0.1-0.1-0.1-0.2v-3.8c1.3,0.8,2.2,1.5,2.6,2c0.7,0.9,1,1.9,1,3.1
		c0,1.2-0.4,2.4-1.2,3.9C49.8,84.2,49,85.1,48.1,85.8z M48.1,59.5V66l-0.6-0.5c-0.3-0.3-0.6-0.4-0.7-0.5c-0.1,0-0.3,0-0.6,0.2
		c-0.3,0.1-0.6,0.2-0.7,0.1c-0.2,0-0.4-0.1-0.6-0.3c-0.4-0.3-0.5-0.7-0.4-1c0.1-0.4,0.5-1,1.2-1.8c0.1-0.1,0.3-0.3,0.6-0.6
		c0.2-0.3,0.4-0.4,0.6-0.6c0-0.1,0.3-0.4,0.9-1.1C47.8,59.9,48.1,59.5,48.1,59.5z M48.1,73.8v3.8c-0.2-0.3-0.4-0.5-0.9-0.8
		c-0.5-0.3-1.4-0.9-2.8-1.7l-0.6-0.3c-0.9-0.5-1.5-0.8-1.9-0.9c-0.3-0.1-0.6-0.2-0.8-0.1c-0.1,0-0.3,0.2-0.6,0.4
		c-0.3,0.3-0.7,0.3-0.9,0.2c-0.4-0.2-0.5-0.6-0.4-1.2c0.1-0.7,0.4-1.4,0.8-2.3c0.4-0.8,0.9-1.3,1.3-1.7c0.4-0.3,0.8-0.4,1.2-0.2
		c0.3,0.2,0.5,0.6,0.6,1.2v0.2c0.1,0.4,0.4,0.8,1.2,1.3c0.1,0,0.1,0.1,0.1,0.1c0.6,0.3,1.3,0.8,2.3,1.3
		C47.2,73.3,47.7,73.6,48.1,73.8L48.1,73.8z M48.1,80C48,80,48,80.1,48,80.2c-0.4,0.9-1,1.3-1.7,1.4c-0.7,0.1-1.7-0.2-2.9-0.8
		C42,80,40.9,79.5,40.3,79c-0.7-0.4-1-0.8-1-0.9v-0.3c-0.1-0.4-0.1-0.7-0.3-0.9V84l4,2.1c1.4,0.8,2.7,0.8,4.1,0.2
		c0.3-0.2,0.7-0.3,1-0.6L48.1,80C48.1,80,48.1,80,48.1,80z M48.1,146.9v6.8c-0.4,0.2-0.9,0.4-1.4,0.7c-0.1,0.1-0.2,0.2-0.2,0.3
		c0,0.1,0.1,0.3,0.3,0.7c0.2,0.3,0.3,0.4,0.4,0.5c0.2,0.1,0.4,0.1,0.6,0c0.1,0,0.2-0.1,0.2-0.1h0.1v2.6c-0.3,0.2-0.6,0.3-0.9,0.6
		c-1,0.6-1.8,0.9-2.4,0.9c-0.6,0.1-1-0.1-1.3-0.6c-0.1-0.2-0.1-0.3-0.1-0.6c0-0.2,0.1-0.3,0.2-0.5c0.1,0,0.2-0.1,0.2-0.2
		c0.8-0.6,1-1.2,0.7-1.7c-0.2-0.2-0.3-0.4-0.4-0.4c-0.1,0-0.3,0.1-0.6,0.2l-0.1,0.1c-0.8,0.5-1.4,0.9-1.8,1.2
		c-0.4,0.3-0.6,0.6-0.6,0.8c0,0.1,0.1,0.3,0.1,0.5c0.1,0.2,0.1,0.4,0.1,0.4c0,0.2-0.1,0.4-0.1,0.6c-0.1,0.2-0.2,0.3-0.4,0.4
		c-0.5,0.3-1,0.2-1.5-0.2c-0.1-0.1-0.2-0.2-0.3-0.3v-6.5c0.1-0.1,0.2-0.1,0.3-0.1c0.5-0.2,1.4-0.7,2.8-1.5c1.3-0.8,2.4-1.4,3.1-1.9
		c0.8-0.5,1.2-0.8,1.3-1c0.1-0.1,0.1-0.3,0.1-0.6c-0.1-0.3-0.1-0.4-0.1-0.5c0.1-0.2,0.1-0.3,0.2-0.4c0.1-0.1,0.2-0.2,0.3-0.2
		C47.3,146.6,47.7,146.6,48.1,146.9L48.1,146.9L48.1,146.9z M48.1,162.6v10.7c-0.1-0.1-0.1-0.1-0.2-0.2c-0.5-0.7-0.9-1.3-1.3-2
		c-0.3-0.7-0.5-1.4-0.6-2.2c-0.2-1.3,0-2.5,0.4-3.7C46.9,164.1,47.4,163.3,48.1,162.6L48.1,162.6z M39,131.8v-5.7
		c0.1,0.1,0.2,0.1,0.3,0.1s0.2-0.1,0.3-0.2c0.1-0.1,0.1-0.2,0.1-0.4c0-0.4-0.1-0.8-0.3-1.2c-0.1-0.2-0.2-0.4-0.4-0.4v-2.4
		c1.2,0,2.1,0.3,2.8,0.9c0.7,0.7,1.1,1.5,1.1,2.5c0,0.9-0.2,1.9-0.7,2.9c-0.4,1-1.1,2-2,3c-0.3,0.3-0.5,0.5-0.7,0.6
		c-0.1,0.1-0.3,0.2-0.4,0.2C39,131.8,39,131.8,39,131.8z M39,101.6v-5h0.2c0.9,0.2,1.6,0.4,2.1,0.4c0.5,0,0.8-0.1,0.9-0.2
		c0.1-0.1,0.2-0.3,0.3-0.5c0.1-0.2,0.2-0.3,0.2-0.4c0.1-0.2,0.3-0.2,0.4-0.3c0.2-0.1,0.4-0.1,0.6,0c0.6,0.1,0.9,0.6,1,1.2
		c0.1,0.7-0.1,1.7-0.4,3.1c-0.3,1.5-0.7,2.5-1.2,3.1c-0.4,0.6-0.8,0.8-1.4,0.7c-0.5-0.1-0.8-0.5-0.9-1c-0.1-0.2-0.1-0.3-0.1-0.3
		c-0.1-0.2-0.3-0.4-0.9-0.6C39.7,101.7,39.4,101.7,39,101.6z M39,95.1v-2.8c0.8,0.3,1.4,0.5,1.8,0.8c0.4,0.3,0.7,0.8,0.5,1.3
		c0,0.2-0.1,0.3-0.3,0.4c-0.2,0.2-0.4,0.2-0.6,0.2h-0.3C39.7,94.9,39.3,94.9,39,95.1L39,95.1z M28.2,128.7c0.2,0,0.3-0.1,0.4-0.2
		c0.1-0.1,0.1-0.3,0.2-0.6c0.1-0.3,0.1-0.7,0.1-1.2v-1.9c0-0.4,0-0.7-0.1-0.8c-0.1-0.1-0.3-0.1-0.6-0.1H28h-0.2
		c-0.2,0-0.3-0.1-0.4-0.1c-0.1-0.1-0.1-0.2-0.1-0.4c0-0.2,0.1-0.3,0.3-0.6c0.2-0.2,0.5-0.3,1-0.5c0.5-0.2,1.1-0.4,1.8-0.6
		c0.7-0.1,1.3-0.2,1.9-0.2c0.4,0,0.6,0.1,0.8,0.2c0.2,0.1,0.3,0.2,0.3,0.4c0,0.3-0.2,0.4-0.5,0.6c-0.1,0.1-0.2,0.1-0.2,0.1
		c-0.1,0.1-0.2,0.2-0.2,0.4c0,0.2-0.1,0.6-0.1,1.3v0.8c0,1.2,0.1,1.9,0.1,2.3c0,0.4,0.1,0.6,0.2,0.7c0.2,0.1,0.4,0.2,0.8,0.3h0.3
		c0.1,0.1,0.2,0.1,0.3,0.2c0.1,0.1,0.1,0.2,0.1,0.4c0,0.3-0.2,0.6-0.7,0.7c-0.4,0.2-1.3,0.2-2.4,0.2c-1.5,0-2.6-0.1-3.1-0.2
		c-0.6-0.1-0.8-0.4-0.8-0.7c0-0.2,0.1-0.3,0.2-0.4s0.3-0.2,0.5-0.2H28C28,128.7,28.1,128.7,28.2,128.7z M39,76.9v7.2l-0.3-0.2
		l-0.2-0.1c-0.6-0.3-1-0.5-1.2-0.6c-0.2,0-0.4,0-0.7,0.2l-0.1,0.1c-0.6,0.3-0.9,0.3-1.3,0.2c-0.5-0.3-0.7-0.8-0.6-1.6
		s0.5-1.9,1.2-3.1c0.6-1,1-1.8,1.5-2.2c0.4-0.4,0.9-0.4,1.3-0.2C38.8,76.6,38.9,76.7,39,76.9z M39,92.2v2.9
		c-0.3,0.1-0.4,0.3-0.5,0.6c-0.1,0.3-0.1,0.5,0,0.6c0,0.1,0.2,0.2,0.5,0.3v5c-0.6-0.2-1.3-0.4-2.2-0.6c-1.5-0.4-2.7-0.7-3.6-0.8
		c-0.9-0.2-1.5-0.2-1.6-0.2c-0.2,0.1-0.3,0.2-0.4,0.4c-0.2,0.2-0.2,0.3-0.3,0.4c-0.2,0.1-0.3,0.2-0.4,0.2c-0.1,0-0.2,0-0.4-0.1
		c-0.4-0.1-0.7-0.3-0.8-0.7c-0.1-0.4-0.1-0.9,0.1-1.5c0.1-0.1,0.2-0.4,0.3-1.1c0.2-0.7,0.4-1.3,0.5-1.9c0.6-2.2,0.9-4.1,1.3-6.1
		c0-0.2,0.1-0.4,0.1-0.4c0.1-0.4,0.5-0.7,1.3-0.9c0.7-0.2,1.5-0.2,2.3,0.1c0.4,0.1,0.7,0.3,0.9,0.6c0.2,0.2,0.2,0.6,0.2,0.9
		c-0.1,0.3-0.4,0.6-1,0.9c-0.1,0.1-0.2,0.1-0.3,0.2c-0.6,0.3-0.9,0.6-1.2,1c-0.3,0.4-0.6,1-0.7,1.9c-0.1,0.3-0.2,0.6-0.1,0.8
		c0,0.2,0.1,0.3,0.2,0.4c0.2,0.1,0.4,0.2,0.9,0.4c0.4,0.2,0.9,0.3,1.5,0.4c0.2,0.1,0.3,0.1,0.3,0c0.1-0.1,0.2-0.3,0.3-0.8
		c0.1-0.3,0.1-0.5,0-0.7S36,94,35.7,93.8c-0.1,0-0.1-0.1-0.2-0.1c-0.6-0.3-0.9-0.7-0.8-1.2c0.2-0.4,0.5-0.7,1-0.8
		c0.6-0.1,1.4,0,2.5,0.3C38.5,92.1,38.8,92.2,39,92.2z M39,121.6v2.4c-0.1-0.1-0.2-0.1-0.3-0.1s-0.2,0.1-0.3,0.2
		c-0.1,0.1-0.1,0.3-0.1,0.4c0,0.4,0.1,0.8,0.3,1.2c0.1,0.2,0.3,0.3,0.4,0.4v5.7c-0.2,0-0.3-0.1-0.6-0.1c-0.3-0.1-0.5-0.2-0.8-0.4
		c-0.1-0.1-0.3-0.2-0.3-0.3c-0.1-0.1-0.2-0.2-0.2-0.3c0-0.1,0.1-0.2,0.3-0.4c0.2-0.2,0.3-0.3,0.4-0.4c0.3-0.3,0.4-0.5,0.6-0.8
		c0.2-0.3,0.2-0.6,0.2-0.8c-0.2,0-0.3,0.1-0.4,0.1c-0.2,0.1-0.3,0.1-0.4,0.1c-0.4,0-0.7-0.1-1-0.2c-0.3-0.2-0.6-0.4-0.8-0.7
		c-0.3-0.3-0.5-0.7-0.7-1.1c-0.1-0.4-0.2-0.9-0.2-1.4c0-1,0.4-1.9,1-2.5C36.8,121.9,37.8,121.6,39,121.6
		C38.9,121.6,39,121.6,39,121.6z M39,153.1v6.5c-0.4-0.4-1-1.2-1.6-2.3c-0.8-1.3-1.2-2.4-1.3-3c-0.1-0.7,0.1-1.2,0.6-1.5
		c0.4-0.2,0.8-0.2,1.3,0.2c0.2,0.1,0.3,0.1,0.3,0.2C38.4,153.2,38.7,153.2,39,153.1z"/>
</g>
</svg>
