<?xml version="1.0" encoding="utf-8"?>
<!-- Generator: Adobe Illustrator 21.1.0, SVG Export Plug-In . SVG Version: 6.00 Build 0)  -->
<svg version="1.1" id="Layer_1" xmlns="http://www.w3.org/2000/svg" xmlns:xlink="http://www.w3.org/1999/xlink" x="0px" y="0px"
	 viewBox="0 0 200 200" style="enable-background:new 0 0 200 200;" xml:space="preserve">
<style type="text/css">
	.st0{fill:#FFFFFF;}
	.st1{fill:#014D26;}
</style>
<g>
	<path class="st0" d="M156.3,33.2l9.8,4.1v5.9l6.8,3.2c4.8,38-0.7,71.6-16.9,100.6c8.5,2,17.1,6.2,25.2,13.1
		c-16.9,0.9-21.5,5-13.9,12.4c-2.3,2.1-8.2,1.6-17.8-1.6c1.1,6-0.4,10.5-4.3,13.1c-3.9,2.7-15.1,5.9-33.6,9.2
		c-2.8,3-6.9,5.3-12.3,6.8c-5.3-1.4-9.6-3.7-12.3-6.8c-18.5-3.2-29.7-6.2-33.6-9.1c-3.9-2.8-5.3-7.3-4.6-13.3
		c-9.4,3-15.3,3.4-17.6,1.2c7.6-7.3,3.6-11.2-12.6-11.7c8.5-6.8,16.7-11.2,24.7-13.1C27.3,118.1,21.6,84.5,26.4,46.3
		c2.3-1.1,4.4-2.3,6.8-3.4v-5.7l8.5-3.6v-9.2l15.6-6v2.3l3.9-1.4v-2.5l10.7-4.1V9.5h21.9c0-0.2,0.4-1.6,1.1-4.4s2.5-3.7,5-3
		c2.1-1.8,4.8-2.3,8-2c1.1,0.2,1.4,0.9,1.2,2s-0.4,2.7-0.5,4.4c-0.2,1.8,0.2,2.8,1.1,3h16.3v3.2l10.7,4.1v2.3l3.9,1.4v-2.3l15.6,6
		v8.9"/>
	<path class="st1" d="M38,81V82c1.8,30.4,9.4,54.7,22.9,73.2l0,0l4.3,5.7c-5.3-1.4-9.4-3-12.3-4.6c-1.4-2.1-2.8-4.4-4.1-6.6
		l-2.7-4.6l-0.9-1.6c-2.1-4.1-4.1-8.4-5.9-12.8v-0.2l-0.5-1.2c-3.9-10.3-6.8-21.3-8.4-33c-0.5-3.6-0.9-6.9-1.2-10.3
		c-0.5-5.7-0.7-11.4-0.7-17.4c0-3.7,0.2-7.5,0.4-11.4V57c0-0.5,0-1.2,0.2-2c0.2-1.4,0.4-2.8,0.4-4.1l0.2-1.6c0-0.2,0-0.4,0.2-0.5
		l0,0c1.1-0.5,2.1-1.2,3.4-1.8l0,0h0.2c0.7-0.4,1.8-0.7,2.8-1.2c4.1-1.6,8.5-3,13.1-4.3c5.9-1.6,12.8-2.8,20.8-3.7
		c9.1-1.1,18.7-1.6,28.8-1.6h2.5c9.8,0,19.2,0.5,28.1,1.6c9.2,1.1,17.2,2.7,23.8,4.8l0,0c2.5,0.7,4.6,1.4,6.6,2l2.1,0.7
		c2.8,1.1,5.3,2.1,7.5,3.4l0.7,5.3l0.2,3c0.2,3.9,0.4,7.6,0.4,11.4c0,9.2-0.7,18.3-2,27.2v0.5c-1.6,11.4-4.4,22-8,32v-0.2
		c-2.1,6-4.3,11-6.4,15.1l-0.9,1.6l-2.8,4.8c-1.1,2-2.3,3.7-3.6,5.7l-0.5,0.9c-2.8,1.6-6.9,3.2-12.3,4.6c1.4-1.8,3-3.6,4.3-5.5
		c13.7-18.7,21.3-43.5,22.9-74.3l0,0l0,0l0,0l0,0l0,0l0,0l0,0l0,0l0,0l0,0l0,0l0,0l0,0l0,0l0,0l0,0l0,0c-6.6-2.7-13.1-5-19.7-6.9
		c-27.7-8-56-8-84.2,0.2C51,75.8,44.4,78.1,38,81L38,81L38,81L38,81L38,81L38,81L38,81L38,81L38,81L38,81L38,81L38,81L38,81L38,81
		 M162,43.8c-16.9-5.9-33.4-9.4-49.6-11l-3.2-2.8l-2.7,0.4l-21.7-0.9l-2.3,3.4C67.1,34.4,51.8,38.1,37.1,44v-4.8l35.4-13.5h11
		l1.4-1.6h-8.7V13.4H95l0.7-0.7l0.7-1.2l0.7-5.2c0-0.7,0.4-1.2,1.1-1.6c0.7-0.4,1.1-0.4,1.4,0l0.7,0.7c0.4-0.5,0.9-1.1,1.8-1.6
		c0.5-0.4,0.9-0.5,1.2-0.5l0.7-0.2l1.8-0.2c0.2,0,0.5,0.2,0.7,0.4c0.2,0.4,0.2,0.9,0.2,1.8l-0.4,3.4c0,1.1,0.2,2,0.9,3
		c0.2,0.4,0.5,0.9,0.7,1.4l-0.2,0.7h13.7v10.7h-14l0,0l-0.2,0.4l0.9,1.2h17.4L162,39.6V43.8 M124.2,24.3v-8l10.5,4.1v3.4
		c0,0.4,0.2,0.5,0.4,0.7l5.9,2.3h0.2l0.4-0.2c0.2-0.2,0.4-0.4,0.4-0.7V23l10.5,4.1v7.3l-26.5-10h-0.4h-1.2V24.3 M103.2,5.3l-0.5,0.4
		c-0.4,0.2-0.5,0.5-0.7,1.1l-0.2,0.2c-0.2,0.4-0.5,0.7-1.1,1.2l-0.4-0.5L99.1,6l-0.2,0.2c-0.4,0.2-0.5,0.5-0.7,0.9v0.4
		c0,0.5-0.2,1.2-0.4,2l-0.2,2.5l-1.1,1.8c-0.2,0.4-0.5,0.7-1.2,1.1l-1.8,1.1c-0.4,0.2-1.2,0.7-2.7,1.1c-1.4,0.5-2.3,0.9-2.5,1.1
		l0.2,0.2l0.4,0.7c0.2,0.5,0.4,0.7,0.5,0.9l-4.4,3.2l10.7,1.1l0,0l9.8,0.9c0-0.2,0-0.2,0-0.2l0,0l0,0l0.4-0.5
		c0.2-0.2,0.4-0.4,0.9-0.5l-1.4-2.7l0.4,0.4l0.2,0.2c0.9,0.7,2,1.2,3.4,1.1c0.7,0,1.6-0.2,2.3-0.4l-0.9-0.7
		c-1.1-1.2-1.8-2.1-2.5-2.7c-0.5-0.5-1.1-1.1-1.4-1.8c0-1.2-0.2-2.1-0.4-3l-0.2-0.7c-0.2-0.5-0.4-0.9-0.5-1.1
		c-0.5-0.7-0.9-2.1-0.7-4.6l0,0V7.2l-0.9-0.9l0.7-0.9l0.2-0.4c0-0.2,0-0.4,0-0.4c-0.2-0.2-0.5-0.4-0.9-0.2l-1.2,0.4h-0.2l-0.9,0.5
		l-1.1,1.2h0.2l0.7-0.7c0.4-0.2,0.7-0.4,0.9-0.5C102.8,5.3,103,5.1,103.2,5.3 M105.3,12.7c0.2,0.2,0.2,0.5,0.2,0.7
		c0,0.9-0.5,1.8-1.2,2.7c0.4-1.2,0.4-2.1,0.2-2.5l0,0c-0.2-0.4-0.2-0.7-0.2-0.9c0.2-0.2,0.4-0.4,0.7-0.4L105.3,12.7 M108.7,29.1
		l-3.2-3.6l-18.7-1.6l-3.9,4.4l22.7,1.2L108.7,29.1 M109.1,44.9V65l6.6,0.5c0-7.8,0-14.6,0-20.3L109.1,44.9 M118.3,45.2
		c0,4.8,0,11.5,0,20.4l6.6,0.9v-7.1l0.9,0.2l3.2,7.6l6.8,1.2l-3.6-8c0.9,0.2,1.6,0,2.1-0.2c0.5-0.4,0.7-0.7,0.7-1.2
		c0-3.9,0-7.1,0-9.6c0-0.7-0.4-1.4-1.1-2c-0.7-0.5-2-0.9-3.4-1.1L118.3,45.2 M128.6,49.5l0.2,0.4c0,1.6,0,3.6,0,6v0.4h-0.5l-3.2-0.4
		v-6.8l3.2,0.4C128.3,49.5,128.4,49.5,128.6,49.5 M137.8,69l6.6,1.4c0-8.2,0-15.6,0.2-22.4l-6.6-0.9C137.8,53.9,137.8,61.2,137.8,69
		 M106.6,52.5l-6.4,3.6v4.4h-3h-0.4c-0.2,0-0.2-0.2-0.2-0.4V48.3c0-0.2,0-0.2,0.2-0.2c0-0.2,0.2-0.2,0.5-0.2c2.5,0,5,0,7.1,0
		l-1.1-3.4c-3.2,0-6.2,0-9.2,0c-1.2,0-2.3,0.2-2.8,0.7c-0.5,0.4-0.9,1.1-0.9,1.8v14.4c0,1.2,0.4,2,1.2,2.5c0.7,0.5,2.1,0.7,3.9,0.5
		c3.7-0.2,7.5,0,11.4,0.2L106.6,52.5 M107.5,77.9v14.7h-2.7V81.1h-3.2v-5.5h-3.2v5.5h-3.2v11.5h-2.7V77.9h-3.2v14.7l0,0v2.8h21.3
		V77.9L107.5,77.9 M101.6,92.9h-3.2V84h3.2V92.9 M160.4,50.6l-8.9-1.4c-1.6-0.2-2.7-0.2-3.2,0.2c-0.7,0.4-1.1,0.9-1.1,1.8l-0.2,8.9
		c0,0.7,0.2,1.4,0.5,2c0.4,0.5,0.7,0.9,1.2,1.1l1.8,0.5l3.4,0.5c0.4,0,0.7,0.2,0.9,0.4l0.2,0.4V68c0,0.2,0,0.4-0.2,0.4h-0.7
		l-6.9-1.8l1.1,4.8l8,2.1c1.8,0.5,3.2,0.5,3.9,0.2c0.2,0,0.2-0.2,0.4-0.4c0.5-0.5,0.7-1.2,0.7-2.5v-8.5c0-1.1-0.4-1.8-0.9-2.3
		s-1.4-0.9-2.3-1.1L154,58l-0.7-0.4c-0.2-0.2-0.2-0.2-0.2-0.5V57l0,0v-3.2c0-0.2,0-0.4,0.2-0.4c0.2,0,0.4,0,0.5,0l7.3,1.2
		L160.4,50.6 M137,75.4c6,1.1,13.5,3.4,22.4,6.6c-2,30.7-9.4,54.7-22.2,71.6V75.4 M73.5,16.3v8h-1.1h-0.4L45.3,34.6v-7.5L55.8,23
		v2.8c0,0.4,0.2,0.5,0.4,0.7c0.2,0.2,0.2,0.2,0.4,0.2h0.4l5.7-2.1c0.4-0.2,0.5-0.4,0.5-0.7v-3.4L73.5,16.3 M74.9,45.8v21
		c4.1-0.7,8-1.1,12.1-1.4l1.1-4.1l-6.6,0.5V45.4L74.9,45.8 M46.5,46.1c-0.4-0.2-0.7-0.5-1.6-0.9h-0.2c-0.9,0.4-1.8,0.5-2.8,0.9
		l1.4,1.1l1.2,1.1c0.2,0.2,0.4,0.4,0.5,0.2l1.4-0.2l1.2-0.2c0.2-0.2,0.5-0.7,1.4-1.8c0.9-1.1,1.4-2,2-2.5l0.2-0.2
		c-1.1,0.2-2.1,0.5-3.6,0.9L46.5,46.1 M38.3,54.5l6.8-1.2c-2.5,6.6-4.8,14-7.3,22c4.6-1.4,9.2-2.7,13.7-3.7c0.4-1.6,0.7-3.2,1.1-4.8
		l-6,1.4c2.3-7.8,4.8-14.6,7.1-20.1l-14,2.1C39.1,51.6,38.7,53.1,38.3,54.5 M66.1,65.3l0.5,2.8l6.6-1.2c-2-7.6-3.9-14.6-5.9-20.4
		l-6.9,0.9c-2,6.6-3.9,14.4-5.9,23.6l6.6-1.6c0.2-1.1,0.4-2.1,0.5-3L66.1,65.3 M62.3,62.3c0.5-2.7,1.1-5.5,1.6-8.4l1.4,7.8
		L62.3,62.3 M62.5,75.6V154c-12.8-17.1-20.3-40.9-22.2-71.6C49,79,56.5,76.9,62.5,75.6 M100.7,104c0.7,0.5,1.2,0.9,1.6,1.1
		c5.2,0,8,0.2,8.7,0.5c-0.5-0.4-1.1-0.7-1.8-1.1l-2.3-0.9c-2.8-1.1-5.5-1.4-8-1.2L100.7,104 M98.6,112.4c-3.2,0.2-6,0.7-8.7,1.4
		l-0.4,0.5v0.2l0,0l-0.2,0.5l0,0c-0.5,0.9-0.9,1.8-1.2,3c-0.2,0.4-0.5,2-1.4,5l4.6,5.9c0.7,0.9,1.4,1.2,1.8,1.2l2.8-0.2l2.1-0.4
		l4.1-1.1l0.2-0.2l1.8-4.3c0.7-1.6,1.1-3.2,1.4-4.6c-0.2-0.5-0.7-1.2-1.2-2l-3.2-3.7c-0.7-0.7-1.2-1.2-1.6-1.2L98.6,112.4
		 M88.3,105.6c-0.4,0.2-0.7,0.4-1.2,0.9l-2,1.4l-0.5,0.5c-0.5,0.5-0.7,0.7-0.7,0.9c0.2-0.2,0.5-0.4,0.7-0.4c0.5-0.2,1.2-0.5,2.1-0.7
		h0.2c0.2-0.4,0.5-0.9,1.1-1.6c1.1-1.1,1.4-1.6,0.9-1.4h-0.2L88.3,105.6L88.3,105.6L88.3,105.6 M84.5,106.7
		c4.3-3.6,9.4-5.5,15.1-5.5c6,0,11.4,2,15.6,5.9l1.1,1.1c4.6,4.6,6.9,10.3,6.9,16.9c0,6.6-2.3,12.1-6.9,16.9l-1.1,1.1
		c-1.1,0.9-2.1,1.8-3.4,2.5c-3.7,2.3-7.8,3.4-12.4,3.4c-4.6,0-8.7-1.1-12.4-3.4c-1.1-0.7-2-1.2-2.8-2l-1.2-1.6
		c-1.8-1.8-3.4-3.9-4.4-6c-1.1-2-1.6-3.9-2.1-6c-0.4-1.6-0.4-3-0.4-4.8c0-1.6,0.2-3.2,0.4-4.8c0.4-2.1,1.1-4.1,2.1-6
		c1.1-2.1,2.7-4.3,4.4-6L84.5,106.7 M81.2,112.4l-0.7,1.2c-0.9,1.4-1.4,2.7-2,4.3l-0.2,0.7c-0.4,1.1-0.5,2.1-0.5,3
		c0,0.7,0.2,1.6,0.7,2.5v0.2c0.4,0.9,0.9,1.6,1.6,2.1c1.6-1.2,3.2-2,4.4-2.7c0.5-0.2,0.9-0.4,1.4-0.5c0.4-2.8,1.4-5.9,3-8.7l0.4-0.7
		c-0.5-0.4-1.1-1.1-1.6-2c-0.5-0.7-0.9-1.4-1.1-2.3h-0.2l-2,0.7c-1.4,0.5-2.3,1.1-2.8,1.6C81.5,111.7,81.3,112,81.2,112.4
		 M84.5,104.2V71.5c10.1-0.9,20.4-0.9,30.9,0v33c-4.4-3.6-9.8-5.3-15.6-5.3c-3.6,0-6.9,0.7-10.1,2C87.9,102.1,86.1,103.2,84.5,104.2
		 M77.3,123.2c-0.2,3,0.2,5.7,0.9,8.2c0,0.2,0.2,0.5,0.2,0.7c0.7,1.8,1.6,3.6,2.7,5.3l0.9-1.8c-1.6-2.3-2.3-5.3-2.3-8.9
		c-0.4-0.4-0.9-0.9-1.4-1.8L77.3,123.2 M101.1,129.6c-2,0.7-4.6,1.1-8.2,1.4l-2.5,7.1c0.7,1.1,1.8,2.3,3,3.4
		c1.4,1.2,2.7,2.1,3.7,2.5c1.2,0.4,2.8,0.4,4.8-0.2c0.9-0.2,2.3-0.7,4.3-1.4c1.6-2.1,2.5-4.4,3-7.1l0,0l-4.8-4.6
		c-1.1-0.9-1.6-1.4-1.8-1.4l-0.7,0.2h-0.2h-0.2L101.1,129.6L101.1,129.6L101.1,129.6 M81.7,138.5c0.9,1.1,1.8,2.1,2.8,3l1.2,1.1
		c1.6,1.2,3,2.1,4.4,2.8l0,0l3,1.1l1.8,0.4l1.1-2.3c-2.7-1.4-4.8-3.2-6.6-5.7c-1.1,0.2-2.3-0.2-3.7-0.7l-3.4-1.4l-0.4,0.9
		C81.9,137.8,81.9,138.2,81.7,138.5 M99.8,150.8c5.9,0,11.2-1.8,15.6-5.2v18.8c-10.3,1.6-20.6,1.8-30.9,0.2V146
		C89,149,94,150.8,99.8,150.8 M37.5,170c4.4-5.9,0.7-9.6-11.5-11.5c8-5.2,15.1-8,21-8.9l1.6,2.7c-2.1,0.4-3.2,0.7-3.4,1.4
		s0.7,2.1,2.5,4.6c1.6,2.5,2.7,5.3,3,8.7c-1.4,0.4-2.8,0.9-4.3,1.4C40.7,170.7,37.6,171,37.5,170 M52.4,166.6c0-2.5-1.1-5.7-3-9.6
		c5,2.5,11.2,4.4,18.3,6.4l1.4,0.4l2,0.4l5.3,1.2l7.8,1.2c10.1,1.2,20.4,1.2,30.9-0.2l2.3-0.4c5-0.9,11-2.1,18.1-4.1l1.1-0.4
		c5.2-1.4,9.6-3.2,13.5-5c-2,3.9-2.8,7.1-3,9.6v1.4c0.4,3.4,0.5,6.2,0.2,8.5c-0.4,2.3-1.1,3.9-2.3,4.8c-1.2,0.9-2.3,1.6-3.4,2
		c-3.6,1.4-6.8,2.5-9.8,3.4l0,0c-6.8,2-13,3.4-18.3,4.1c-8.7,1.4-17.4,1.6-26.1,0.4l-1.6-0.2c-5.5-0.7-11-1.8-16.5-3.4l-1.4-0.4
		c-3-0.9-6.2-2-9.2-3l-0.7-0.4c-1.1-0.5-2.1-1.1-3.4-2c-1.2-0.9-2-2.5-2.3-4.8c-0.4-2.3-0.2-5.2,0.2-8.5L52.4,166.6 M96.8,157.2
		c0,0.4-0.2,0.5-0.4,0.7c-0.2,0.2-0.4,0.2-0.5,0.2c-0.4,0-0.7-0.2-0.9-0.4c-0.2-0.2-0.2-0.5-0.2-0.9c0-0.2,0-0.4,0.2-0.7
		c0.2-0.2,0.2-0.4,0.4-0.5c0.2-0.2,0.4-0.2,0.5-0.2s0.4,0,0.5,0.2c0.2,0.2,0.2,0.2,0.4,0.4C96.8,156.5,96.8,156.8,96.8,157.2
		 M97.2,154.3c-0.5-0.4-1.1-0.4-1.8-0.4c-0.4,0-0.7,0.2-1.1,0.4c-0.4,0.2-0.5,0.5-0.7,0.7c-0.2,0.2-0.2,0.5-0.4,0.9
		c0,0.4-0.2,0.7-0.2,1.1s0,0.7,0.2,1.1c0,0.4,0.2,0.7,0.4,0.9c0.2,0.2,0.4,0.4,0.5,0.5s0.5,0.2,0.7,0.4c0.2,0,0.4,0,0.7,0
		c0.2,0,0.5,0,0.7-0.2c0.2-0.2,0.4-0.4,0.5-0.7c0,0.2,0,0.5,0,0.7c0,0.4-0.2,0.5-0.5,0.9c-0.2,0.2-0.5,0.4-0.9,0.4s-0.5,0-0.9-0.2
		c-0.2-0.2-0.5-0.4-0.9-0.7v1.8c0.4,0.2,0.7,0.4,0.9,0.4c0.4,0.2,0.9,0.2,1.2,0.2c0.5,0,1.1-0.2,1.4-0.4c0.4-0.2,0.7-0.5,0.9-0.9
		s0.4-0.9,0.4-1.2c0.2-0.9,0.2-1.8,0-2.8c0-0.2-0.2-0.5-0.2-1.1C98,155,97.7,154.7,97.2,154.3 M90.9,154.3l-0.9,1.4h0.7v6.2h1.8
		v-7.8h-1.6 M99.1,160.4h3v1.6h1.6v-1.6h0.5V159h-0.5v-4.8h-2.5l-2.1,4.8V160.4 M82.2,172.1v11.5l3.6,0.4v-11.5L82.2,172.1
		 M100.4,178l-1.8-5h-3.4v11.5h3.2v-4.4l1.8,4.4h3.6V173h-3.6v5 M87,172.5V184l6.4,0.4l0.5-2.1l-3.6-0.2v-9.4L87,172.5 M62,173.7
		c-0.4,0.2-0.4,0.5-0.4,0.9c0,0.4,0.2,0.7,0.4,0.9c0.2,0.2,0.5,0.4,0.9,0.4c0.4,0,0.7-0.2,0.9-0.4c0.2-0.4,0.4-0.5,0.4-0.9
		c0-0.4-0.2-0.7-0.4-0.9c-0.4-0.4-0.5-0.4-0.9-0.4C62.7,173.3,62.3,173.5,62,173.7 M71.2,170.9c1.1,4.3,2.1,8.4,3.2,12.1l3.6,0.4
		l3.2-11.2l-3.6-0.4l-1.4,7.6c-0.5-2.7-1.1-5.5-1.4-8L71.2,170.9 M96.1,195.7c-1.6-0.7-3.2-1.6-4.6-2.5l-1.1-0.7
		c6.4,0.7,12.4,0.7,18.1,0l-1.1,0.7c-1.4,0.9-3,1.8-4.6,2.5c-1.1,0.5-2.3,1.1-3.4,1.4C98.4,196.8,97.3,196.3,96.1,195.7 M151,151.8
		l1.6-2.7c4.6,0.5,10,2.5,15.8,5.9c1.6,0.9,3.4,2,5,3c-12.3,2-16.2,5.7-11.5,11.5c-0.4,1.1-3.2,0.7-8.7-1.6
		c-1.4-0.5-2.8-1.1-4.3-1.4c0.4-3.4,1.4-6.2,3-8.7c0.7-1.1,1.4-2.1,1.8-2.8c0.5-0.9,0.7-1.4,0.5-1.8
		C154.4,152.6,153.1,152.2,151,151.8 M112.8,108c-0.7-1.2-1.2-1.8-1.6-1.8c-0.4,0-1.2-0.2-2.7-0.2c-1.4-0.2-3.6-0.2-6,0
		c-0.7,1.2-1.4,3.4-2,6c2.3,2.1,4.3,4.4,5.7,6.9c1.2-0.2,2.7-0.2,4.3,0c1.1,0.2,2.5,0.4,4.1,0.7l0.9-2.5l0.5-2.1
		c0.2-0.7,0.2-1.2,0.2-1.6c0-0.2-0.2-0.5-0.4-0.9L112.8,108 M118.7,114.4c-0.5-0.4-1.1-0.5-1.6-0.7c-0.2,0.7-0.5,2-0.9,3.4l-0.7,1.8
		c-0.2,0.5-0.4,1.1-0.4,1.2c0,0.2,0.2,0.5,0.4,1.1l0.9,1.8c0.4,1.1,0.5,2.1,0.7,3s0.2,2,0,3l3.2,2c1.6-1.4,2.3-3.9,2-7.5
		c-0.4-2.8-1.1-5.5-2.1-8L118.7,114.4 M119.9,131.6L119.9,131.6l-3-1.8l-0.2,0.2h-0.2l-0.2,0.2l-0.2,0.2v0.2l-0.2,0.2v0.2l-1.6,1.4
		l0,0c-1.2,1.1-2.7,2-4.8,3c-0.2,1.4-0.5,2.8-1.1,4.1c-0.4,1.1-1.1,2.1-2,3.2c1.8,2,3.6,2.3,5.3,1.2c1.2-0.7,2.3-1.6,3.4-2.5
		l1.6-1.6l1.2-1.6c0.7-0.9,1.2-1.8,1.4-2.3c0.2-0.7,0.4-1.6,0.4-2.8v-0.2l0,0v-0.4v-0.2L119.9,131.6L119.9,131.6 M122.9,171.6
		c-0.9,0.2-1.4,0.4-1.8,0.7c-0.4,0.4-0.5,0.7-0.5,1.2v3.4v0.2v0.5c0,0.4,0,0.7,0.4,0.9c0.2,0.2,0.4,0.2,0.7,0.4l2.8-0.4h0.5
		c0.2,0,0.2,0.2,0.2,0.2v2v0.2h-0.4l-3.7,0.4l0.7,2l4.3-0.5c0.9-0.2,1.6-0.4,2.1-0.7c0.4-0.4,0.5-0.7,0.5-1.2v-4.4
		c0-0.5-0.2-0.7-0.5-0.9l-1.2-0.2l-2.1,0.4h-0.4l-0.7,0v-1.4c0-0.2,0-0.2,0.2-0.2c0,0,0.2-0.2,0.4-0.2l3.9-0.5l-0.5-2.1L122.9,171.6
		 M137.3,173.3c-0.2-0.4-0.5-0.4-0.9-0.4s-0.7,0.2-0.9,0.4c-0.2,0.2-0.4,0.5-0.4,0.9c0,0.4,0.2,0.7,0.4,0.9c0.4,0.2,0.5,0.4,0.9,0.4
		s0.7-0.2,0.9-0.4c0.4-0.4,0.4-0.5,0.4-0.9C137.8,173.9,137.7,173.7,137.3,173.3 M109.1,154.3h-4.4v1.4h2.5l-2.3,6.2h1.8l2.3-6.4
		v-1.2 M102.1,159.1h-1.4l1.4-3.2V159.1 M105.3,173v11.5l3.6-0.2v-11.5L105.3,173 M115.6,172.3v9.4v0.2h-0.2l-1.2,0.2h-0.4v-0.2
		v-9.4l-3.6,0.2v9.8c0,0.5,0.2,0.9,0.5,1.2c0.4,0.2,1.1,0.4,2.1,0.4l3.6-0.4c0.9-0.2,1.6-0.4,2.1-0.7c0.4-0.4,0.5-0.7,0.5-1.2v-9.8
		L115.6,172.3"/>
	<path class="st0" d="M161.7,80.6L161.7,80.6h-0.4H161.7L161.7,80.6L161.7,80.6L161.7,80.6 M161.7,80.6L161.7,80.6h-0.4H161.7
		L161.7,80.6L161.7,80.6L161.7,80.6 M38,80.8L38,80.8L38,80.8L38,80.8L38,80.8L38,80.8L38,80.8L38,80.8 M38,81h0.2H38L38,81L38,81
		L38,81L38,81L38,81L38,81 M101.6,92.9V84h-3.2v8.9H101.6 M107.5,77.9h3.2v17.6H89.3v-2.8l0,0V77.9h3.2v14.7h2.7V81.1h3.2v-5.5h3.2
		v5.5h3.2v11.5h2.7L107.5,77.9 M46.5,46.1l1.4-1.8c1.4-0.4,2.7-0.7,3.6-0.9l-0.2,0.2c-0.5,0.5-1.2,1.4-2,2.5
		c-0.9,1.1-1.2,1.6-1.4,1.8l-1.1,0.2l-1.4,0.2c0,0-0.2,0-0.5-0.2L43.7,47l-1.6-1.1c1.1-0.4,2-0.5,2.8-0.9h0.2
		C45.8,45.6,46.3,45.9,46.5,46.1 M99.1,160.4v-1.2l2.1-4.8h2.5v4.8h0.5v1.4h-0.5v1.6h-1.6v-1.6h-3 M90.9,154.3h1.6v7.8h-1.8v-6.2H90
		L90.9,154.3 M97.2,154.3c0.5,0.2,0.9,0.7,1.1,1.4c0.2,0.4,0.2,0.7,0.2,1.1c0.2,1.1,0.2,2,0,2.8c0,0.5-0.2,0.9-0.4,1.2
		c-0.2,0.4-0.5,0.7-0.9,0.9s-0.9,0.4-1.4,0.4c-0.4,0-0.7,0-1.2-0.2c-0.2,0-0.5-0.2-0.9-0.4v-1.8c0.4,0.4,0.7,0.5,0.9,0.7
		c0.4,0.2,0.5,0.2,0.9,0.2c0.4,0,0.7-0.2,0.9-0.4c0.2-0.2,0.4-0.5,0.5-0.9c0-0.4,0-0.5,0-0.7c-0.2,0.4-0.4,0.5-0.5,0.7
		c-0.4,0.2-0.5,0.2-0.7,0.2s-0.5,0-0.7,0c-0.2,0-0.4-0.2-0.7-0.4c-0.2,0-0.4-0.2-0.5-0.5c-0.2-0.2-0.4-0.5-0.4-0.9s-0.2-0.7-0.2-1.1
		c0-0.4,0-0.7,0.2-1.1c0-0.4,0.2-0.5,0.4-0.9c0.2-0.4,0.4-0.5,0.7-0.7c0.4-0.2,0.7-0.4,1.1-0.4C96.1,154,96.6,154.2,97.2,154.3
		 M96.8,157.2c0-0.4,0-0.7-0.2-1.1c0-0.2-0.2-0.4-0.4-0.4c-0.2-0.2-0.4-0.2-0.5-0.2c-0.2,0-0.4,0-0.5,0.2s-0.2,0.4-0.4,0.5
		c0,0.2-0.2,0.4-0.2,0.7c0,0.4,0,0.7,0.2,0.9c0.2,0.2,0.4,0.4,0.9,0.4c0.2,0,0.4-0.2,0.5-0.2C96.6,157.9,96.6,157.5,96.8,157.2
		 M102.1,159.1v-3.2l-1.4,3.2H102.1 M109.1,154.3v1.2l-2.3,6.4H105l2.3-6.2h-2.5v-1.4L109.1,154.3"/>
</g>
</svg>
