<?xml version="1.0" encoding="utf-8"?>
<!-- Generator: Adobe Illustrator 21.1.0, SVG Export Plug-In . SVG Version: 6.00 Build 0)  -->
<svg version="1.1" id="Layer_1" xmlns="http://www.w3.org/2000/svg" xmlns:xlink="http://www.w3.org/1999/xlink" x="0px" y="0px"
	 viewBox="0 0 200 200" style="enable-background:new 0 0 200 200;" xml:space="preserve">
<style type="text/css">
	.st0{fill:#225F3C;}
	.st1{fill:#FFD918;}
	.st2{fill:#FFFFFF;}
</style>
<g>
	<path d="M142,144c1.6-3.7,3-7.5,4.2-11.6c2.6-9,3.9-18.6,3.9-28.4c0-9.9-1.3-19.4-3.9-28.4c-2.5-8.7-6.1-16.5-10.7-23.3
		c-4.6-6.7-9.9-12-15.9-15.8c-6.2-3.9-12.8-5.8-19.6-5.8c-6.8,0-13.4,2-19.6,5.8c-6,3.7-11.3,9-15.9,15.8
		c-4.6,6.7-8.2,14.6-10.7,23.3c-2.6,9-3.9,18.6-3.9,28.4c0,9.9,1.3,19.4,3.9,28.4c1.2,4.1,2.6,7.9,4.2,11.6
		c-0.7,4.9-1.8,8.3-2.9,10.7c-0.8,1.7-1.6,2.9-2.1,3.9c-0.6,1-1,1.6-1,2.3c0,1,0.7,2.4,1.7,4c0.9,1.4,2.1,2.9,3.6,4.5
		c0,0.1,0.2,0.4,0.5,0.9c1,1.8,2.9,6,2.9,10.9c0,5.6-1.2,9.5-2.3,12c-0.6,1.3-1.1,2.2-1.6,2.8c-0.2,0.3-0.4,0.5-0.5,0.7
		c-0.1,0.1-0.2,0.2-0.2,0.2l-0.8,0.8l1.2-0.2c5.4-1,9.4-5,10.7-6.5c1.5,4.7,4.1,8.1,4.1,8.1l0.3,0.4l0.3-0.4c0,0,3.5-4.7,3.5-12.3
		c0-0.6,0-1.2-0.1-1.8c6.5,3.9,14.4,6.5,24.7,6.5c0,0,0,0,0,0c10.4,0,18.2-2.6,24.7-6.5c0,0.6-0.1,1.2-0.1,1.8
		c0,7.6,3.5,12.2,3.5,12.3l0.3,0.4l0.3-0.4c0,0,2.6-3.4,4.1-8.1c1.3,1.5,5.2,5.5,10.7,6.5l1.2,0.2l-0.8-0.8c0,0-0.1-0.1-0.2-0.2
		c-0.9-1-4.4-5.7-4.4-15.4c0-3.3,0.9-6.2,1.7-8.4c0.4-1.1,0.9-1.9,1.2-2.5c0.3-0.5,0.5-0.8,0.5-0.9c1.4-1.6,2.6-3.2,3.6-4.5
		c1.1-1.6,1.7-2.9,1.7-4c0-0.7-0.4-1.4-1-2.3C145.6,156.3,143.1,152.4,142,144z"/>
	<path class="st0" d="M74.6,186.9c0,3.7-0.9,6.6-1.7,8.7c-0.4,1-0.9,1.8-1.2,2.3c-0.1,0.1-0.2,0.3-0.2,0.4c0-0.1-0.1-0.1-0.1-0.2
		c-0.9-1.2-2.7-4.2-3.8-7.9l-0.2-0.7l-0.5,0.6c0,0-0.1,0.1-0.2,0.2c-0.8,1-4.4,5-9.4,6.3c1.3-1.8,4.1-6.7,4.1-15.3
		c0-3.9-1.2-7.4-2.2-9.6c3.2,3.4,7.1,6.9,10.5,9.6c1.5,1.2,3.1,2.3,4.8,3.4C74.5,185.4,74.6,186.1,74.6,186.9z"/>
	<path class="st0" d="M142.7,196.5c-2.7-0.7-5-2.2-6.7-3.6c-0.9-0.8-1.7-1.5-2.2-2.1c-0.3-0.3-0.4-0.5-0.6-0.6
		c-0.1-0.2-0.2-0.2-0.2-0.2l-0.5-0.6l-0.2,0.7c-0.7,2.4-1.8,4.6-2.6,6.1c-0.4,0.8-0.8,1.4-1.1,1.8c-0.1,0.1-0.1,0.1-0.1,0.2
		c-0.8-1.3-3.1-5.4-3.1-11.4c0-0.7,0-1.5,0.1-2.3c1.7-1,3.3-2.2,4.8-3.4c3.4-2.7,7.3-6.2,10.5-9.6c-1,2.2-2.2,5.7-2.2,9.6
		C138.6,189.9,141.4,194.7,142.7,196.5z"/>
	<path class="st0" d="M145.7,164.5c-3.1,4.6-10.1,11.6-15.9,16.1c-7.4,5.8-16.5,10.2-29.8,10.2c-13.4,0-22.4-4.3-29.8-10.2
		c-3.8-3-8.2-7.1-11.7-10.9c-1.7-1.9-3.2-3.7-4.2-5.2c-1-1.5-1.6-2.8-1.6-3.5c0-0.4,0.3-1,0.9-2c1.3-2.2,3.8-6,5-13.7
		c1.7,3.7,3.7,7.2,5.9,10.4c4.6,6.7,9.9,12,15.9,15.8c6.2,3.9,12.8,5.8,19.6,5.8c6.8,0,13.4-2,19.6-5.8c6-3.7,11.3-9,15.9-15.8
		c2.2-3.2,4.2-6.7,5.9-10.4c0.7,4.3,1.8,7.5,2.8,9.7c0.8,1.8,1.6,3,2.2,4c0.6,0.9,0.9,1.6,0.9,2C147.3,161.7,146.7,163,145.7,164.5z
		"/>
	<ellipse class="st1" cx="100" cy="104" rx="49.4" ry="72.5"/>
	<path class="st2" d="M56.5,76.7c7.5-2.1,24.1-6,43.5-6c19.4,0,36.1,3.9,43.5,6c1.4,4.8,2.4,9.8,3,15c-5.8-1.7-24.4-6.8-46.5-6.8
		c-22.1,0-40.7,5-46.5,6.8C54.1,86.5,55.1,81.5,56.5,76.7z"/>
	<path class="st2" d="M108.8,34.9v34c4.8,0.3,9.3,0.8,13.5,1.3V42c-1.4-1.1-2.8-2.1-4.3-3C115.1,37.1,112,35.8,108.8,34.9z"/>
	<path class="st0" d="M106.7,68.7V34.3c-2.2-0.5-4.5-0.7-6.7-0.7c-2.3,0-4.5,0.2-6.7,0.7v34.4c2.2-0.1,4.5-0.2,6.7-0.2
		C102.3,68.6,104.5,68.6,106.7,68.7z"/>
	<path class="st0" d="M66.9,53.9c-1.8,2.6-3.4,5.3-4.8,8.2v10.9c3.7-0.9,8.3-1.8,13.5-2.6V43.8C72.4,46.7,69.5,50,66.9,53.9z"/>
	<path class="st2" d="M91.2,34.9c-3.2,0.9-6.2,2.3-9.2,4.1c-1.5,0.9-2.9,1.9-4.3,3v28.1c4.2-0.6,8.7-1.1,13.5-1.3V34.9z"/>
	<path class="st0" d="M124.4,43.8v26.6c5.2,0.8,9.8,1.7,13.5,2.6V62.2c-1.4-2.9-3.1-5.7-4.8-8.2C130.5,50,127.6,46.7,124.4,43.8z"/>
	<path class="st2" d="M140,66.8v6.8c1,0.2,1.9,0.5,2.7,0.7C142,71.7,141.1,69.2,140,66.8z"/>
	<path class="st2" d="M60,73.6v-6.8c-1,2.4-1.9,4.9-2.7,7.5C58,74,59,73.8,60,73.6z"/>
	<path class="st2" d="M108.8,101.4c7.2,4.3,12.2,13.8,12.2,24.8c0,11-5,20.5-12.2,24.8v22.1c3.2-0.9,6.2-2.3,9.2-4.1
		c1.5-0.9,2.9-1.9,4.3-3V88.6c-4.2-0.6-8.7-1.1-13.5-1.4V101.4z"/>
	<path class="st2" d="M53.3,93.9c-0.3,3.3-0.5,6.7-0.5,10.1c0,9.6,1.3,18.9,3.8,27.6c1,3.3,2.1,6.6,3.4,9.6V92.1
		C56.8,92.9,54.5,93.6,53.3,93.9C53.3,93.9,53.3,93.9,53.3,93.9z"/>
	<path class="st2" d="M78.9,126.2c0-11,5-20.5,12.2-24.8V87.3c-4.8,0.3-9.3,0.8-13.5,1.4V166c1.4,1.1,2.8,2.1,4.3,3
		c3,1.9,6.1,3.2,9.2,4.1V151C83.9,146.7,78.9,137.2,78.9,126.2z"/>
	<path class="st0" d="M62.1,145.8c1.4,2.9,3.1,5.7,4.8,8.2c2.6,3.9,5.6,7.3,8.7,10.1V88.9c-5.2,0.8-9.8,1.8-13.5,2.6V145.8z"/>
	<path class="st0" d="M106.7,100.3V87.2c-2.2-0.1-4.5-0.2-6.7-0.2c-2.3,0-4.5,0.1-6.7,0.2v13.1c2.1-0.9,4.4-1.4,6.7-1.4
		C102.4,98.9,104.6,99.4,106.7,100.3z"/>
	<path class="st0" d="M93.3,152.1v21.6c2.2,0.5,4.5,0.7,6.7,0.7c2.3,0,4.5-0.2,6.7-0.7v-21.6c-2.1,0.9-4.4,1.4-6.7,1.4
		C97.6,153.5,95.4,153,93.3,152.1z"/>
	<path class="st2" d="M146.7,93.9C146.7,93.9,146.7,93.9,146.7,93.9c-0.7-0.2-1.6-0.5-2.8-0.8c-1.1-0.3-2.4-0.7-3.9-1v49.2
		c1.3-3.1,2.4-6.3,3.4-9.6c2.5-8.7,3.8-18,3.8-27.6C147.2,100.6,147.1,97.3,146.7,93.9z"/>
	<path class="st0" d="M124.4,88.9v75.2c3.1-2.8,6-6.2,8.7-10.1c1.8-2.6,3.4-5.3,4.8-8.2V91.6c-1.3-0.3-2.7-0.6-4.2-0.9
		C131,90.1,127.8,89.5,124.4,88.9z"/>
	<path class="st0" d="M100,101c-10.4,0-18.9,11.3-18.9,25.2c0,13.9,8.5,25.2,18.9,25.2c10.4,0,18.9-11.3,18.9-25.2
		C118.9,112.3,110.4,101,100,101L100,101z"/>
	<path d="M60.1,87.2l-2-8.3l5.9-1.4l0.4,1.7l-3.8,0.9l0.4,1.7l3.3-0.8l0.4,1.7l-3.3,0.8l0.7,3.1L60.1,87.2z"/>
	<path d="M67,85.6l-1.6-8.3l2.1-0.4l1.3,6.5l4-0.8l0.4,1.8L67,85.6z"/>
	<path d="M72.5,80.2c-0.2-1.4,0-2.5,0.7-3.4c0.6-0.9,1.6-1.5,2.9-1.6c1.3-0.2,2.4,0.1,3.3,0.7c0.9,0.7,1.4,1.7,1.6,3.1
		c0.2,1.4,0,2.5-0.7,3.4c-0.6,0.9-1.6,1.5-2.9,1.6c-1.3,0.2-2.4-0.1-3.2-0.7C73.2,82.6,72.7,81.6,72.5,80.2z M74.7,79.9
		c0.1,0.9,0.4,1.5,0.8,1.9c0.4,0.4,0.9,0.6,1.6,0.5c0.7-0.1,1.1-0.4,1.4-0.9c0.3-0.5,0.4-1.2,0.2-2c-0.1-0.9-0.4-1.5-0.8-1.9
		c-0.4-0.4-1-0.6-1.6-0.5c-0.7,0.1-1.1,0.4-1.4,0.9C74.6,78.3,74.5,79,74.7,79.9z"/>
	<path d="M82.6,83l-0.8-8.5l4-0.4c1.1-0.1,1.9,0,2.4,0.4c0.5,0.3,0.9,0.9,0.9,1.7c0,0.5,0,0.9-0.2,1.2c-0.2,0.4-0.5,0.7-0.9,0.9
		c0.4,0.1,0.7,0.3,0.8,0.5c0.2,0.2,0.3,0.6,0.4,1.3c0,0.2,0.1,0.4,0.1,0.7c0.1,0.7,0.2,1.1,0.5,1.1l0,0.3l-2.3,0.2
		c-0.1-0.3-0.2-0.7-0.3-1.2c-0.1-0.5-0.1-0.8-0.1-1c-0.1-0.3-0.2-0.6-0.4-0.7c-0.2-0.1-0.5-0.2-0.9-0.2l-1.4,0.1l0.3,3.2L82.6,83z
		 M84.3,78l1.6-0.2c0.4,0,0.7-0.2,0.9-0.3c0.2-0.2,0.3-0.4,0.2-0.8c0-0.3-0.2-0.5-0.4-0.7c-0.2-0.1-0.5-0.2-0.9-0.1l-1.7,0.2
		L84.3,78z"/>
	<path d="M91.1,82.3l-0.5-8.5l2.2-0.1l0.5,8.5L91.1,82.3z"/>
	<path d="M97,73.6l2.4,0l3.1,8.5l-2.3,0l-0.5-1.5l-2.8,0l-0.5,1.6l-2.3,0L97,73.6z M97.2,78.7l1.9,0l-1-2.9L97.2,78.7z"/>
	<path d="M103,82l0.4-8.5l2.3,0.1l1.5,2.9c0.2,0.5,0.5,0.9,0.7,1.4c0.2,0.5,0.4,0.9,0.6,1.3c0-0.6,0-1.2,0-1.8c0-0.6,0-1.1,0-1.5
		l0.1-2.2l2.1,0.1l-0.4,8.5l-2.3-0.1l-1.5-2.9c-0.2-0.3-0.4-0.7-0.6-1.2c-0.2-0.4-0.4-0.9-0.7-1.4c0,0.6,0,1.1,0,1.5
		c0,0.5,0,0.9,0,1.3l-0.1,2.6L103,82z"/>
	<path d="M114.9,74.3l2.4,0.2l2.1,8.7L117,83l-0.4-1.6l-2.8-0.3l-0.6,1.5l-2.2-0.2L114.9,74.3z M114.6,79.4l1.8,0.2l-0.6-3
		L114.6,79.4z"/>
	<path d="M123.4,83.8l1.4-8.4l6,1l-0.3,1.7l-3.9-0.7l-0.3,1.7l3.4,0.6l-0.3,1.7L126,81l-0.5,3.2L123.4,83.8z"/>
	<path d="M128.4,84.7l0.4-2l2.1,0.4l-0.4,2L128.4,84.7z"/>
	<path d="M139.9,84.1c-0.4,1-0.9,1.6-1.7,2c-0.8,0.4-1.6,0.5-2.7,0.3c-1.2-0.3-2.1-0.9-2.7-1.8c-0.6-1-0.7-2.1-0.4-3.4
		c0.3-1.3,0.9-2.3,1.9-3c0.9-0.6,2-0.8,3.3-0.5c1,0.2,1.8,0.7,2.3,1.3c0.5,0.7,0.7,1.5,0.6,2.4l-2-0.4c0-0.4-0.1-0.8-0.4-1
		c-0.2-0.3-0.6-0.4-1-0.5c-0.6-0.1-1.1,0-1.6,0.4c-0.5,0.4-0.8,1-1,1.8c-0.2,0.8-0.2,1.5,0.1,2c0.2,0.5,0.6,0.8,1.2,1
		c0.5,0.1,0.9,0.1,1.2-0.1c0.3-0.2,0.6-0.5,0.8-0.9L139.9,84.1z"/>
	<path d="M140.1,87.3l0.5-2l2.1,0.5l-0.5,2L140.1,87.3z"/>
	<path class="st2" d="M56.9,164.2l5.9-5.3l4,4.5l-1.2,1.1l-2.7-3l-1,0.9l2.4,2.7l-1.2,1.1l-2.4-2.7l-1.3,1.1l2.7,3.1l-1.2,1.1
		L56.9,164.2z"/>
	<path class="st2" d="M61.4,169.2l4.7-1.1l1-4.5l1.7,1.6l-0.6,2.4l2.4-0.7l1.7,1.6l-4.5,1l-1,4.7l-1.7-1.6l0.7-2.6l-2.6,0.7
		L61.4,169.2z"/>
	<path class="st2" d="M70.2,177.4l4.6-6.5l1.7,1.2l-3.6,5.1l3.1,2.2l-1,1.4L70.2,177.4z"/>
	<path class="st2" d="M79.5,174.4l1.8,0.9l-2.2,4.5c-0.2,0.5-0.3,0.9-0.2,1.2c0.1,0.3,0.3,0.6,0.8,0.8c0.4,0.2,0.8,0.3,1.1,0.1
		c0.3-0.1,0.5-0.4,0.8-0.9l2.2-4.5l1.8,0.9l-2.1,4.2c-0.3,0.6-0.6,1-0.9,1.3c-0.3,0.3-0.6,0.5-1,0.6c-0.4,0.1-0.8,0.1-1.3,0.1
		c-0.4-0.1-0.9-0.2-1.4-0.4c-0.5-0.2-0.9-0.5-1.2-0.8c-0.3-0.3-0.5-0.7-0.7-1.1c-0.1-0.4-0.2-0.8-0.1-1.2c0.1-0.4,0.2-0.9,0.5-1.5
		L79.5,174.4z"/>
	<path class="st2" d="M84.2,185.3l2-7.7l3.3,0.8c1.1,0.3,1.9,0.8,2.4,1.7c0.4,0.8,0.5,1.9,0.2,3.1c-0.3,1.3-0.9,2.2-1.7,2.6
		c-0.8,0.5-1.8,0.6-3.1,0.2L84.2,185.3z M86.6,184.1l1.1,0.3c0.6,0.2,1.1,0.1,1.5-0.2c0.4-0.3,0.7-0.8,0.9-1.6
		c0.2-0.8,0.2-1.4,0-1.8c-0.2-0.4-0.6-0.7-1.2-0.9l-1.1-0.3L86.6,184.1z"/>
	<path class="st2" d="M92.9,187.1l0.9-7.9l2,0.2l-0.9,7.9L92.9,187.1z"/>
	<path class="st2" d="M96.6,184.9l2,0c0,0.5,0.1,0.8,0.4,1c0.3,0.2,0.6,0.3,1.1,0.4c0.4,0,0.7-0.1,1-0.2c0.2-0.1,0.3-0.3,0.3-0.6
		c0-0.1,0-0.2-0.1-0.3c-0.1-0.1-0.1-0.2-0.2-0.2c-0.1-0.1-0.5-0.2-1.1-0.4c-0.6-0.2-1.1-0.3-1.5-0.5c-0.6-0.2-1-0.5-1.3-0.9
		c-0.3-0.4-0.4-0.8-0.4-1.3c0-0.8,0.3-1.4,0.9-1.8c0.6-0.4,1.3-0.7,2.3-0.7c1,0,1.7,0.2,2.3,0.7c0.6,0.5,0.8,1.1,0.8,1.9l-1.9,0
		c0-0.4-0.2-0.6-0.4-0.8c-0.2-0.2-0.5-0.3-0.9-0.3c-0.3,0-0.6,0.1-0.8,0.2c-0.2,0.1-0.3,0.3-0.3,0.5c0,0.4,0.5,0.7,1.5,1
		c0.2,0.1,0.3,0.1,0.4,0.1c0,0,0,0,0.1,0c1,0.3,1.6,0.6,1.9,0.8c0.3,0.2,0.4,0.5,0.6,0.7c0.1,0.3,0.2,0.6,0.2,0.9
		c0,0.8-0.3,1.4-0.9,1.8c-0.6,0.4-1.5,0.7-2.6,0.6c-1,0-1.8-0.3-2.4-0.7C96.9,186.6,96.6,185.9,96.6,184.9z"/>
	<path class="st2" d="M110.4,186.6l-4.4-7.1l2.1-0.5l2,3.7c0,0.1,0.1,0.2,0.2,0.3c0.2,0.4,0.4,0.8,0.6,1.1c0-0.2,0-0.4,0-0.6
		c0-0.2,0-0.5,0-0.9l0.2-4.4l2.1-0.5l-0.9,8.4L110.4,186.6z"/>
	<path class="st2" d="M116.1,185l-2.8-7.4l1.9-0.7l2.8,7.4L116.1,185z"/>
	<path class="st2" d="M120,183.6l-3.8-7l3.3-1.8c0.9-0.5,1.6-0.7,2.2-0.6c0.6,0.1,1.1,0.5,1.4,1.1c0.2,0.4,0.3,0.8,0.3,1.2
		c0,0.4-0.2,0.8-0.4,1.2c0.4-0.1,0.7,0,0.9,0.1c0.2,0.1,0.5,0.4,0.8,0.9c0.1,0.1,0.2,0.3,0.3,0.6c0.3,0.5,0.6,0.8,0.8,0.8l0.1,0.2
		l-1.9,1c-0.2-0.2-0.5-0.5-0.7-0.9c-0.2-0.4-0.4-0.7-0.5-0.8c-0.2-0.3-0.4-0.4-0.6-0.4c-0.2,0-0.5,0-0.8,0.2l-1.2,0.7l1.4,2.6
		L120,183.6z M119.6,178.6l1.3-0.7c0.4-0.2,0.6-0.4,0.7-0.6c0.1-0.2,0.1-0.5-0.1-0.8c-0.1-0.3-0.3-0.4-0.6-0.4c-0.2,0-0.5,0-0.9,0.2
		l-1.4,0.8L119.6,178.6z"/>
	<path class="st2" d="M128.8,178.1l-3.9-5l-1.8,1.4l-1-1.3l5.2-4.1l1,1.3l-1.8,1.4l3.9,5L128.8,178.1z"/>
	<path class="st2" d="M127.6,168.9l1.4-1.4l3.5,3.6c0.4,0.4,0.7,0.6,1,0.6c0.3,0,0.6-0.1,1-0.5c0.3-0.3,0.5-0.6,0.5-1
		c0-0.3-0.2-0.7-0.6-1.1l-3.5-3.6l1.4-1.4l3.3,3.4c0.5,0.5,0.8,0.9,1,1.3c0.2,0.4,0.3,0.8,0.2,1.2c0,0.4-0.1,0.8-0.3,1.2
		c-0.2,0.4-0.5,0.8-0.9,1.1c-0.4,0.4-0.8,0.6-1.2,0.8c-0.4,0.2-0.8,0.3-1.2,0.3c-0.4,0-0.8-0.1-1.2-0.3c-0.4-0.2-0.8-0.5-1.2-1
		L127.6,168.9z"/>
	<path class="st2" d="M136.9,167.2l1.3-1.5c0.3,0.3,0.7,0.4,1,0.4c0.3,0,0.7-0.2,1-0.6c0.3-0.3,0.4-0.6,0.5-0.9c0-0.3,0-0.5-0.2-0.6
		c-0.1-0.1-0.2-0.1-0.3-0.2c-0.1,0-0.2,0-0.3,0c-0.2,0.1-0.5,0.2-1,0.6c-0.5,0.3-1,0.6-1.3,0.8c-0.5,0.3-1.1,0.4-1.5,0.4
		c-0.5,0-0.9-0.2-1.3-0.5c-0.6-0.5-0.8-1.1-0.8-1.8c0-0.7,0.4-1.4,1-2.2c0.6-0.7,1.3-1.1,2-1.2c0.7-0.1,1.4,0.1,2,0.6l-1.3,1.4
		c-0.3-0.2-0.6-0.3-0.9-0.3c-0.3,0-0.6,0.2-0.8,0.5c-0.2,0.2-0.3,0.5-0.4,0.7c0,0.2,0,0.4,0.2,0.6c0.3,0.2,0.8,0.1,1.7-0.4
		c0.2-0.1,0.3-0.2,0.4-0.2c0,0,0,0,0.1,0c0.9-0.5,1.5-0.8,1.8-0.9c0.3-0.1,0.6,0,0.9,0.1c0.3,0.1,0.6,0.2,0.8,0.5
		c0.6,0.5,0.9,1.2,0.8,1.9c-0.1,0.7-0.5,1.5-1.2,2.3c-0.7,0.8-1.4,1.2-2.1,1.3C138.4,168,137.7,167.7,136.9,167.2z"/>
	<polygon points="123.1,23.9 113.2,30.5 116.2,19.1 107.3,11.5 118.7,11.5 123.1,0.5 127.5,11.5 138.6,11.5 138.6,11.6 138.6,11.5 
		138.9,11.5 130,19.1 133.1,30.5 123.1,23.9 	"/>
	<polygon class="st1" points="132.8,30 129.8,19 138.4,11.7 127.4,11.7 123.1,1 118.8,11.7 107.9,11.7 116.4,19 113.5,30 
		123.1,23.7 132.8,30 	"/>
	<polygon points="76.9,23.9 86.8,30.5 83.8,19.1 92.7,11.5 81.3,11.5 76.9,0.5 72.5,11.5 61.4,11.5 61.4,11.6 61.4,11.5 61.1,11.5 
		70,19.1 66.9,30.5 76.9,23.9 	"/>
	<polygon class="st1" points="67.2,30 70.2,19 61.6,11.7 72.6,11.7 76.9,1 81.2,11.7 92.1,11.7 83.6,19 86.5,30 76.9,23.7 67.2,30 	
		"/>
	<path d="M80.7,161.9v-4.6h-1.6v-1.1h0.1c0.6,0,1.1-0.1,1.3-0.3c0.3-0.2,0.5-0.5,0.5-1h1.4v6.9H80.7z"/>
	<path d="M85.5,158.1c-0.3-0.1-0.6-0.3-0.7-0.6c-0.2-0.2-0.2-0.5-0.2-0.9c0-0.6,0.2-1.1,0.6-1.4c0.4-0.3,1-0.5,1.8-0.5
		c0.8,0,1.4,0.2,1.8,0.5c0.4,0.3,0.6,0.8,0.6,1.4c0,0.3-0.1,0.6-0.2,0.9c-0.2,0.2-0.4,0.4-0.7,0.6c0.4,0.1,0.7,0.4,0.9,0.6
		c0.2,0.3,0.3,0.6,0.3,1.1c0,0.7-0.2,1.3-0.7,1.7c-0.5,0.4-1.1,0.6-2,0.6c-0.9,0-1.5-0.2-2-0.6c-0.5-0.4-0.7-0.9-0.7-1.7
		c0-0.4,0.1-0.8,0.3-1.1C84.8,158.5,85.1,158.2,85.5,158.1z M86.1,159.8c0,0.3,0.1,0.5,0.3,0.7c0.2,0.2,0.4,0.3,0.7,0.3
		c0.3,0,0.5-0.1,0.7-0.3c0.2-0.2,0.3-0.4,0.3-0.7c0-0.3-0.1-0.6-0.3-0.7c-0.2-0.2-0.4-0.3-0.7-0.3c-0.3,0-0.5,0.1-0.7,0.3
		C86.2,159.2,86.1,159.5,86.1,159.8z M86.2,156.8c0,0.3,0.1,0.5,0.2,0.6c0.2,0.1,0.4,0.2,0.6,0.2c0.3,0,0.5-0.1,0.6-0.2
		c0.1-0.1,0.2-0.3,0.2-0.6c0-0.3-0.1-0.5-0.2-0.6c-0.1-0.1-0.4-0.2-0.6-0.2c-0.3,0-0.5,0.1-0.6,0.2
		C86.3,156.3,86.2,156.5,86.2,156.8z"/>
	<path d="M110.1,160.2h1.6c0.1,0.2,0.1,0.4,0.3,0.5c0.1,0.1,0.3,0.2,0.5,0.2c0.3,0,0.6-0.1,0.7-0.4c0.2-0.3,0.3-0.7,0.3-1.3
		c-0.2,0.2-0.4,0.3-0.6,0.4c-0.2,0.1-0.5,0.1-0.7,0.1c-0.7,0-1.2-0.2-1.6-0.6c-0.4-0.4-0.6-1-0.6-1.7c0-0.8,0.2-1.4,0.7-1.9
		c0.5-0.5,1.1-0.7,1.9-0.7c0.9,0,1.5,0.3,2,0.9c0.5,0.6,0.7,1.5,0.7,2.7c0,1.2-0.3,2.1-0.8,2.8c-0.5,0.7-1.2,1-2.1,1
		c-0.6,0-1.2-0.2-1.6-0.5C110.4,161.2,110.2,160.8,110.1,160.2z M112.5,156c-0.3,0-0.5,0.1-0.7,0.3c-0.2,0.2-0.2,0.5-0.2,0.8
		c0,0.4,0.1,0.6,0.2,0.8c0.2,0.2,0.4,0.3,0.7,0.3c0.3,0,0.5-0.1,0.7-0.3c0.2-0.2,0.2-0.5,0.2-0.8c0-0.4-0.1-0.6-0.2-0.8
		C113,156.1,112.8,156,112.5,156z"/>
	<path d="M118.8,161.9v-1.4h-3v-1.4l2.7-4.2h2v4.3h0.7v1.3h-0.7v1.4H118.8z M118.8,159.2v-2.7l-1.8,2.7H118.8z"/>
	<path d="M115.9,122.8c-0.7-1.4-0.7-2.5-0.7-3.4c0-0.5-0.1-0.9-0.3-1.4c-0.2-0.4-0.5-0.8-1-1.3c0-1-0.4-1.9-1-2.6
		c-0.6-0.7-1.5-1.1-2.4-1.1s-1.8,0.5-2.4,1.3c-0.6,0.8-1,1.8-1,3c0,2.8,1.1,5.2,2.2,7.2c1.1,2,2.2,3.7,2.2,5.1c0,0.5-0.2,1-0.6,1.4
		c-0.4,0.4-1,0.6-1.6,0.6c-0.5,0-0.9-0.1-1.2-0.2c-0.4-0.2-0.8-0.6-1.3-1.1c-0.5-0.5-1.1-1.1-2.2-1.7c0,0,0,0,0-0.1
		c-0.1-0.2-0.5-0.7-0.8-1.3c-0.3-0.6-0.6-1.3-0.6-2c0-1.2,0.3-2.1,0.3-3c0-0.3,0-0.5-0.1-0.8c0.2,0.1,0.5,0.2,0.7,0.2
		c0.1,0,0.1,0,0.1-0.1c0,0,0,0,0,0l0.2,0.1l0.1-0.2c0.1-0.3,0.2-0.4,0.2-0.6c0-0.2,0-0.3-0.1-0.4c0.3,0,0.5-0.1,0.7-0.1
		c0.1,0,0.2-0.1,0.3-0.2c0.1-0.1,0.2-0.2,0.2-0.3c0-0.3-0.1-0.5-0.1-0.7c-0.1-0.2-0.1-0.3-0.2-0.6c0-0.1,0-0.2,0-0.3
		c0,0,0-0.1,0-0.1c0.1,0,0.1,0,0.2,0c0,0,0,0,0,0c0,0,0,0,0,0c0,0,0,0,0,0c0,0,0,0,0,0c0,0,0,0,0,0c0,0,0,0,0,0c0,0,0,0,0,0
		c0,0,0,0,0,0c0,0,0,0,0,0c0,0,0,0,0,0c0,0,0,0,0,0c0,0,0,0,0,0c0,0,0,0,0,0c0,0,0,0,0,0c0,0,0,0,0,0c0,0,0,0,0,0c0,0,0,0,0,0
		c0,0,0,0,0,0c0,0,0,0,0,0c0,0,0,0,0,0c0,0,0,0,0,0c0,0,0,0,0,0c0,0,0,0,0,0l0,0c0,0,0-0.3,0-0.8c0,0,0.1-0.1,0.2-0.2
		c0,0,0,0.1,0,0.2v0.4l0.3-0.2c0,0,0.6-0.4,0.6-1.4l0.1,0.2l0.2-0.4c0,0,0.2-0.4,0.2-0.9c0-0.1,0-0.1,0-0.2c0,0,0.1,0,0.1-0.1
		c0.1-0.1,0.2-0.3,0.3-0.5l0-0.1l-0.1-0.1c-0.4-0.4-0.6-0.8-0.8-1.1c0-0.3-0.1-0.5-0.2-0.7c-0.1-0.2-0.1-0.3-0.1-0.5
		c0-0.1,0-0.2,0-0.3l0-0.1l-0.1-0.1c0,0-0.1-0.2-0.2-0.3c-0.1-0.1-0.3-0.2-0.5-0.3c0,0,0-0.1,0-0.1c0-0.1,0-0.2,0.1-0.3l0.1-0.1
		l-0.1-0.1c-0.4-0.3-0.7-0.5-0.9-0.6c-0.2-0.1-0.4-0.2-0.4-0.3c-0.1-0.1-0.1-0.3-0.1-0.4c0-0.2-0.1-0.4-0.2-0.6
		c-0.1-0.1-0.1-0.1-0.2-0.2c-0.1-0.1-0.2-0.1-0.4-0.1c-0.1,0-0.2-0.1-0.3-0.2c0,0,0,0,0-0.1c0-0.1,0-0.2-0.1-0.3l0-0.1l-0.1,0
		c0,0,0,0,0,0c-0.1,0-0.7-0.2-1-1l-0.1-0.2l-0.2,0.1c0,0,0,0-0.1,0c0-0.1,0-0.1,0-0.2c0-0.3-0.1-0.7-0.5-1.2l-0.1-0.2l-0.2,0.2
		c-0.1,0.1-0.2,0.2-0.2,0.4c-0.1-0.2-0.1-0.2-0.1-0.3l-0.1-0.1l-0.1,0.1c-0.2,0.1-0.2,0.2-0.3,0.3c-0.1,0.2-0.1,0.3-0.1,0.4
		c0,0-0.1,0.1-0.1,0.1c-0.1,0-0.2,0.1-0.3,0.1c-0.6,0-1.1,0.1-1.4,0.2c-0.2,0.1-0.4,0.2-0.6,0.3c-0.2,0.2-0.4,0.4-0.7,0.5
		c-0.3,0.2-0.8,0.4-1.6,0.5c-0.5,0-0.9,0.1-0.9,0.1l-0.1,0l0,0.1c0,0.1,0,0.2,0,0.3c0,0.4,0.1,0.6,0.2,0.7c0,0.1,0,0.1,0,0.2
		c0,0.2,0,0.4,0.1,0.6c0.1,0.1,0.2,0.2,0.3,0.3c0.4,0.2,1.1,0.3,2.4,0.4c0,0.1-0.1,0.2-0.1,0.4c-0.4-0.3-0.8-0.4-1.1-0.4
		c-0.6,0-1.1,0.3-1.6,0.3c-0.4,0-0.8-0.1-1.4-0.6l-0.5-0.4L93,110c0.2,0.5,0.4,0.8,0.6,1c0.2,0.2,0.5,0.3,0.7,0.3c0,0,0,0,0,0
		c0.3,0,0.5-0.1,0.8-0.2c-0.1,0.3-0.2,0.6-0.2,0.9c0,0.4,0.2,0.8,0.4,0.9c0.2,0.2,0.5,0.3,0.7,0.3c0.4,0,0.8-0.1,1-0.2
		c0,0,0,0.1,0,0.1c0,0.2-0.1,0.3-0.2,0.4c-0.2,0.2-0.5,0.5-1,0.7c-0.7,0.4-1.5,0.8-2.3,1.5c0,0-0.1,0.1-0.1,0.1
		c-0.3-0.1-0.5-0.2-0.8-0.4c-0.3-0.3-0.5-0.6-0.8-1c-0.2-0.3-0.4-0.5-0.6-0.8c-0.2-0.3-0.4-0.6-0.6-1.3c0.3-0.6,0.5-0.7,0.7-0.8
		c0.1-0.1,0.2-0.2,0.3-0.3c0.1-0.2,0.1-0.3,0.1-0.6c0-0.4-0.1-0.7-0.3-1c-0.2-0.3-0.4-0.4-0.8-0.4c-0.1,0-0.3,0-0.4,0.1
		c-0.3-0.2-0.6-0.3-0.9-0.4l-0.1,0l-0.1,0c-0.2,0.1-0.3,0.3-0.4,0.5c0,0.1-0.1,0.1-0.1,0.2c0,0-0.1,0-0.1,0c-0.3,0-0.5,0.1-0.9,0.2
		l-0.1,0v0.1c0,0.2,0,0.4,0.1,0.5c0,0,0,0,0,0c-0.2,0-0.4,0-0.6,0.1l-0.1,0l0,0.1c0,0.1-0.1,0.3-0.1,0.4c0,0.3,0.1,0.5,0.1,0.6
		c0,0.1,0,0.1,0,0.2c0,0.5,0.2,0.9,0.5,1.1c0.3,0.2,0.6,0.3,0.9,0.3c0,0.5,0.1,0.8,0.3,1.1c0.2,0.3,0.5,0.5,0.8,0.8
		c0,0.5,0.4,1.1,0.7,1.8c0.3,0.7,0.6,1.7,0.6,3c-0.6,0-1.1,0.1-1.5,0.2c-0.7,0.1-1.2,0.2-1.5,0.2c0,0,0,0,0,0c0,0,0,0,0,0
		c-0.4,0-0.6-0.1-0.8-0.3c-0.2-0.3-0.2-0.8-0.3-1.2c0-0.2-0.1-0.5-0.2-0.6c-0.1-0.2-0.4-0.3-0.6-0.3c-0.2,0-0.4,0-0.7,0.1l-0.2,0.1
		l0.1,0.2c0,0.1,0.1,0.1,0.1,0.2c-0.2,0-0.4-0.1-0.6,0c-0.3,0-0.6,0-1,0.1l-0.1,0v0.1c0,0.3,0,0.5,0.1,0.7c-0.1,0-0.2,0-0.3,0.1
		l-0.1,0l0,0.1c0,0.1,0,0.2,0,0.3c0,0.4,0.1,0.7,0.2,0.8l-0.1,0l0,0.2c0.3,0.9,0.6,1.6,1.2,2.1c0.5,0.5,1.2,0.7,1.9,0.7
		c0.2,0,0.4,0,0.6,0l0.1,0l0,0c0,0,0.1-0.1,0.3-0.3l0.5,0.7l0.4-0.6c0.3-0.1,0.5-0.1,0.7-0.1c0.3,0,0.6,0.1,1.2,0.1h0l0.4-0.2
		l0.4,0.2l0.3-0.1c0.7,0,1.3,0,1.6,0c1.5,2.8,2.9,3.9,4,4.7c0.5,0.4,1,0.7,1.3,1c0.3,0.3,0.5,0.7,0.6,1.4c-1.5,0.4-3.2,0.4-4.6,0.6
		c-0.7,0.1-1.4,0.4-1.9,0.8c-0.5,0.5-0.8,1.1-0.8,2.1c0,1.7,0.3,2.9,0.3,4.4c0,1.1-0.2,2.5-0.7,4.4c-0.5,0-0.8-0.2-1.1-0.4
		c-0.2-0.1-0.3-0.2-0.5-0.3c-0.2-0.1-0.4-0.2-0.6-0.2c-0.1,0-0.2,0-0.3,0l-0.2,0l0.1,0.2c0,0,0,0,0,0c0,0-0.1,0-0.1,0
		c-0.2,0-0.5,0.1-0.7,0.2l-0.1,0.1l0.1,0.1c0.1,0.1,0.1,0.2,0.2,0.3c-0.4,0.1-0.6,0.4-0.6,0.4l-0.1,0.1l0.1,0.1
		c0.1,0.2,0.4,0.4,0.6,0.5l-0.1,0.1l0.1,0.2c0.3,0.5,0.7,0.7,1.3,0.9c0.6,0.1,1.3,0.2,2.2,0.2c0.6,0,1,0,1.4-0.1
		c0.3-0.1,0.6-0.2,0.8-0.3c0.4-0.3,0.6-0.7,0.9-1.4c0.2-0.6,0.5-1.5,0.7-2.7c0.3-0.1,0.4-0.2,0.4-0.2l0.1,0l0-0.1c0-0.3,0-0.5,0-0.8
		c0-0.8-0.2-1.3-0.2-1.4c0-0.3,0.1-0.6,0.4-0.9c0.7-0.8,2.4-1.4,4-1.6c0,0,0,0,0,0c0.1,0,0.1,0,0.2,0c0.3,0.7,0.6,1.3,1,2
		c0.7,0.9,1.9,1.4,3.2,1.8c1.2,0.4,2.5,0.6,3.1,1.1c0.1,0.1,0.1,0.1,0.2,0.2c0,0.1,0.1,0.2,0.1,0.3c0,0.2,0,0.4,0,0.7
		c0,0.2,0.1,0.4,0.1,0.5c0,0.2,0.1,0.4,0.1,0.8c0,0.2,0,0.4,0,0.6c-0.3,0-0.6,0-0.9,0.1c-0.3-0.1-0.5-0.1-0.7-0.1
		c-0.5,0-0.9,0.2-1.2,0.5c-0.2,0.3-0.4,0.7-0.4,1c-0.1,0.2-0.2,0.4-0.2,0.6c0,0.1,0,0.3,0.1,0.4l0,0.1h0.1c0.1,0,0.1,0,0.2,0
		c0,0.2,0.1,0.4,0.3,0.6l0.1,0.1h0.1c0,0,0,0,0,0c0.2,0,0.4,0,0.6-0.1c0.2,0.1,0.4,0.1,0.7,0.1c0.6,0,1.3-0.1,1.9-0.3
		c0.6-0.1,1.2-0.3,1.4-0.3c0.3,0,0.5,0,0.8-0.2c0.1-0.1,0.2-0.2,0.3-0.4c0.1-0.2,0.1-0.4,0.1-0.7c0-0.7-0.3-1.3-0.4-1.4
		c0-0.6,0-1.2,0-1.7c0-0.5,0-0.9-0.1-1.2c0.1-0.3,0.2-0.6,0.2-0.9c0-0.3-0.1-0.5-0.2-0.7c-0.2-0.3-0.5-0.6-0.9-0.8
		c-0.6-0.3-1.2-0.6-1.7-1.3c-0.5-0.6-0.9-1.6-0.9-3.3c0,0,0,0,0,0c0.6,0.1,1.2,0.2,1.8,0.2c1.2,0,2.3-0.3,3.1-1
		c0.8-0.6,1.3-1.5,1.3-2.7c0-2.5-1.2-4.3-2.4-6.1c-1.2-1.8-2.3-3.7-2.3-6.4c0-0.8,0.2-1.5,0.6-2.1c0.4-0.5,0.8-0.8,1.3-0.8
		c0.4,0,0.7,0.1,0.9,0.1c0.3,0.1,0.5,0.3,0.6,0.6c0.1,0.3,0.2,0.7,0.2,1.1c0,0.6-0.1,1.3-0.1,2c0,0.8,0.1,1.7,0.6,2.5
		c0.5,0.8,1.4,1.6,2.9,2.1l0.4,0.1L115.9,122.8z M96.2,111.2c-0.2,0-0.4,0-0.7-0.1c0.3-0.1,0.7-0.2,1.1-0.2c0.1,0,0.2,0,0.3,0
		C96.8,111.1,96.6,111.2,96.2,111.2z"/>
	<path class="st0" d="M93.8,110.8c-0.1-0.1-0.2-0.2-0.3-0.3c0.4,0.2,0.7,0.3,1.1,0.3c0.6,0,1.1-0.3,1.6-0.3c0.2,0,0.3,0,0.5,0.1
		c0,0,0,0,0,0c-0.6,0-1,0.1-1.4,0.2c-0.4,0.1-0.7,0.2-1,0.2C94.1,110.9,93.9,110.9,93.8,110.8z"/>
	<path class="st1" d="M113.1,120.8c-0.4-0.7-0.5-1.6-0.5-2.3c0-0.7,0.1-1.4,0.1-2c0-0.6-0.1-1.2-0.4-1.6c-0.2-0.2-0.4-0.4-0.6-0.5
		c-0.3-0.1-0.6-0.2-1-0.2c-0.6,0-1.2,0.4-1.6,1c-0.4,0.6-0.6,1.4-0.6,2.2c0,2.8,1.2,4.8,2.4,6.6c1.2,1.8,2.3,3.6,2.3,5.9
		c0,1-0.4,1.8-1.2,2.4c-0.7,0.6-1.8,0.9-2.9,0.9c-0.6,0-1.2-0.1-1.9-0.3l-0.2-0.1l0,0.2c0,0.1,0,0.2,0,0.3c0,1.3,0.2,2.3,0.6,3
		c0,0,0,0.1,0.1,0.1c-0.4-0.5-0.8-1.2-1-2.1c0-0.1-0.1-0.2-0.2-0.1c-0.1,0-0.2,0.1-0.1,0.2l0,0c0.3,1.5,1.1,2.4,1.7,2.9
		c0.6,0.5,1.1,0.6,1.2,0.7c0.1,0.1,0.2,0.1,0.3,0.2c0.3,0.2,0.6,0.3,0.8,0.5c0.2,0.2,0.3,0.4,0.3,0.7c0,0.1,0,0.2,0,0.2
		c-0.2-0.3-0.4-0.6-0.8-0.8c-0.1,0-0.2,0-0.2,0.1c0,0.1,0,0.2,0.1,0.2l0,0c0.4,0.2,0.6,0.5,0.7,0.9c0.1,0.4,0.2,0.9,0.2,1.5
		c0,0.5,0,1.1,0,1.7v0l0,0c0,0,0,0,0,0c0.1,0.1,0.3,0.7,0.3,1.3c0,0.3,0,0.5-0.1,0.6c-0.1,0.2-0.1,0.3-0.2,0.3c-0.1,0-0.3,0-0.5,0
		c-0.3,0-0.8,0.1-1.4,0.3c-0.6,0.1-1.3,0.3-1.8,0.3c-0.1,0-0.2,0-0.3,0c0.1-0.1,0.2-0.1,0.2-0.2c0.2-0.1,0.3-0.2,0.6-0.2
		c0.1,0,0.1,0,0.2,0c0.1,0,0.2-0.1,0.2-0.2c0-0.1-0.1-0.2-0.2-0.2l0,0c-0.1,0-0.2,0-0.3,0c-0.3,0-0.5,0.1-0.7,0.1
		c-0.2,0.1-0.4,0.3-0.5,0.4c-0.1,0.1-0.3,0.2-0.6,0.2c-0.1-0.1-0.2-0.3-0.2-0.3c0-0.1,0-0.2,0.1-0.2c0,0,0,0,0-0.1
		c0.1-0.1,0.3-0.3,0.5-0.4c0.2-0.1,0.5-0.1,0.6-0.1c0.1,0,0.2-0.1,0.2-0.2c0-0.1-0.1-0.2-0.2-0.2c-0.3,0-0.7,0.1-1,0.3
		c-0.2,0.1-0.3,0.2-0.4,0.4c0,0,0,0,0,0.1c0,0-0.1,0.1-0.1,0.1c0,0-0.1,0.1-0.1,0.1c0,0,0-0.1,0-0.1c0-0.3,0.2-0.5,0.5-0.7
		c0.3-0.2,0.7-0.3,1-0.3c0.1,0,0.2-0.1,0.2-0.2c0-0.1-0.1-0.2-0.2-0.2c-0.4,0-0.9,0.1-1.2,0.4c0-0.1,0.1-0.2,0.2-0.3
		c0.2-0.2,0.5-0.4,0.9-0.4c0.2,0,0.4,0,0.6,0.1l0,0l0,0c0.5-0.1,0.9-0.1,1.3-0.1c0.3,0,0.5,0,0.6,0c0.2,0,0.2,0,0.2,0
		c0.1,0,0.2-0.1,0.2-0.2c0-0.1-0.1-0.2-0.2-0.2l0,0c0,0-0.4,0-0.9,0c0,0,0,0-0.1,0c0-0.2,0-0.4,0-0.6c0-0.4-0.1-0.7-0.1-0.9
		c-0.1-0.2-0.1-0.3-0.1-0.5c0-0.4,0-0.7,0-0.9c0-0.1,0-0.2-0.1-0.3c-0.1-0.1-0.1-0.2-0.3-0.3c-0.7-0.6-2-0.8-3.2-1.2
		c-1.2-0.4-2.4-0.8-3-1.6c-0.4-0.6-0.7-1.2-1-2l0,0c-0.1-0.2-0.1-0.3-0.2-0.5c-0.3-1-0.5-2.3-0.8-4c0-0.1-0.1-0.2-0.2-0.1
		c-0.1,0-0.2,0.1-0.1,0.2l0,0c0.3,1.7,0.5,3,0.8,4c0,0.1,0.1,0.2,0.1,0.3c-0.1,0-0.1,0-0.2,0c-1,0-2,0.1-2.8,0.1
		c-0.6,0-1.1,0-1.4-0.2c-0.2-0.1-0.3-0.1-0.3-0.3c-0.1-0.1-0.1-0.2-0.1-0.4c0-0.1,0.1-0.2,0.2-0.3c0.2-0.2,0.5-0.4,0.7-0.6
		c0.1-0.1,0.2-0.1,0.3-0.2c0.1,0,0.1-0.1,0.1-0.1c0.1,0,0.1-0.1,0.1-0.2c0-0.1-0.1-0.1-0.2-0.1c0,0-0.4,0.2-0.7,0.4
		c-0.2,0.1-0.4,0.3-0.5,0.5c-0.1,0.2-0.3,0.4-0.3,0.6c0,0.2,0.1,0.5,0.2,0.6c0.2,0.3,0.5,0.4,0.8,0.5c0.3,0.1,0.8,0.1,1.2,0.1
		c0.3,0,0.7,0,1,0c-0.4,0.1-0.9,0.3-1.3,0.5c-0.5,0.2-0.9,0.5-1.2,0.9c-0.3,0.3-0.5,0.7-0.5,1.2v0l0,0c0,0,0,0,0,0
		c0,0.1,0.2,0.5,0.2,1.3c0,0.2,0,0.4,0,0.6c-0.1,0-0.2,0.1-0.4,0.1l-0.1,0l0,0.1c-0.5,2.2-0.9,3.3-1.3,3.8c-0.2,0.2-0.5,0.4-0.8,0.4
		c-0.4,0.1-0.8,0.1-1.4,0.1c-0.9,0-1.6,0-2.1-0.2c-0.4-0.1-0.7-0.3-0.9-0.5c0.1,0,0.1,0,0.2,0c0.2,0.1,0.4,0.1,0.7,0.1
		c0.1,0,0.2-0.1,0.2-0.2s-0.1-0.2-0.2-0.2c-0.6,0-1.2-0.3-1.5-0.6c0.1-0.1,0.4-0.2,0.6-0.2c0.2,0,0.5,0.1,0.8,0.4
		c0.1,0.1,0.2,0.1,0.2,0c0.1-0.1,0.1-0.2,0-0.2l0,0c-0.3-0.3-0.6-0.4-0.9-0.5c-0.1,0-0.2-0.1-0.3-0.3c0.1-0.1,0.2-0.1,0.4-0.1
		c0.2,0,0.4,0.1,0.6,0.2c0,0,0,0,0,0c0,0,0,0,0,0c0.1,0,0.1,0.1,0.2,0.1c0.1,0.1,0.2,0.1,0.2,0.2c0,0,0,0,0.1,0.1c0,0,0,0,0,0
		c0,0,0,0,0,0c0.1,0.1,0.2,0.1,0.2,0c0.1-0.1,0.1-0.2,0-0.2l0,0c0,0-0.1-0.2-0.4-0.4c-0.1,0-0.1-0.1-0.2-0.1c0,0,0,0,0,0
		c0,0-0.1-0.1-0.2-0.1c0,0,0,0,0,0c0.2,0,0.3,0,0.4,0.1c0.2,0.1,0.4,0.3,0.7,0.5c0.3,0.2,0.6,0.3,1.1,0.3c0,0,0,0,0,0c0,0,0,0,0,0
		c0,0,0,0,0,0c0,0,0,0,0,0c0.2,0,0.3,0,0.5-0.1c0.1,0,0.2-0.1,0.1-0.2c0-0.1-0.1-0.2-0.2-0.1c-0.1,0-0.2,0-0.2,0
		c0.5-1.9,0.7-3.3,0.7-4.4c0-1.6-0.3-2.7-0.3-4.4c0-0.9,0.2-1.5,0.6-1.8c0.6-0.6,1.6-0.8,2.8-0.9c1.2-0.1,2.5-0.2,3.7-0.5l0.1,0
		l0-0.1c-0.1-0.8-0.4-1.3-0.8-1.7c-0.6-0.6-1.3-1-2.2-1.7c-0.9-0.7-1.9-1.9-3.1-4l0-0.1l-0.1,0c0,0-0.8,0-1.7,0h0l-0.2,0.1l-0.3-0.2
		l-0.5,0.2c-0.5,0-0.8-0.1-1.2-0.1c-0.2,0-0.5,0-0.9,0.1l-0.1,0l-0.2,0.3l-0.5-0.7l-0.1,0.2c-0.1,0.1-0.2,0.3-0.2,0.4
		c0,0-0.1,0.1-0.1,0.1c-0.2,0-0.3,0-0.5,0c-0.7,0-1.2-0.2-1.7-0.6c-0.4-0.4-0.8-1-1-1.7h0c0,0,0,0,0,0c0,0,0,0,0,0
		c0.3,0,0.5,0.1,0.7,0.2c0.1,0,0.2,0.1,0.2,0.1c0,0,0,0,0.1,0c0,0,0,0,0,0c0,0,0,0,0,0c0.1,0.1,0.2,0.1,0.2,0c0.1-0.1,0.1-0.2,0-0.2
		c0,0-0.5-0.4-1.1-0.4c-0.1-0.1-0.3-0.4-0.3-0.8c0-0.1,0-0.1,0-0.2c0.1,0,0.3,0,0.4,0c0.3,0,0.6,0.1,0.9,0.2
		c0.3,0.1,0.5,0.4,0.6,0.6c0,0.1,0.1,0.1,0.2,0.1c0.1,0,0.1-0.1,0.1-0.2c-0.1-0.4-0.4-0.6-0.7-0.8c-0.3-0.2-0.7-0.2-1-0.3
		c0-0.1-0.1-0.3-0.1-0.5c0.3,0,0.5-0.1,0.8-0.1c0.6,0,1,0.1,1.3,0.4c0.1,0.1,0.2,0.1,0.2,0c0.1-0.1,0.1-0.2,0-0.2l0,0
		c0,0-0.1-0.1-0.2-0.1c0,0,0,0-0.1-0.1c-0.1-0.1-0.2-0.2-0.3-0.3c0-0.1-0.1-0.1-0.1-0.2c0.1,0,0.2,0,0.3,0c0.1,0,0.2,0,0.3,0.1
		c0.1,0.1,0.2,0.2,0.2,0.5c0.1,0.3,0.1,0.8,0.2,1.2c0.1,0.2,0.2,0.4,0.4,0.5c0.2,0.1,0.5,0.2,0.8,0.2c0,0,0,0,0,0h0
		c0.9,0,1.4,0,1.8,0c0.2,0,0.5,0,0.8,0c0,0,0,0,0,0c0.1,0,0.2-0.1,0.2-0.2c0-0.1-0.1-0.2-0.2-0.2c-0.1,0-0.1,0-0.2,0
		c0.5-0.1,1.2-0.1,1.9-0.1c0.1,0,0.2-0.1,0.2-0.2c0-0.1-0.1-0.2-0.2-0.2c-0.3,0-0.7,0-1,0c0-1.4-0.3-2.4-0.7-3.1
		c-0.3-0.8-0.6-1.3-0.6-1.7v-0.1l-0.1-0.1c-0.3-0.3-0.6-0.5-0.8-0.7c-0.2-0.3-0.3-0.6-0.3-1.1v-0.2h-0.2c-0.4,0-0.7-0.1-0.9-0.2
		c-0.2-0.2-0.4-0.4-0.4-0.8c0-0.1,0-0.1,0-0.2l0,0l0,0c0,0,0,0,0,0c0-0.1-0.1-0.3-0.1-0.5c0-0.1,0-0.2,0-0.2c0.2,0,0.3-0.1,0.4-0.1
		c0.3,0,0.6,0.1,0.8,0.4c0.2,0.3,0.4,0.7,0.7,1.1c0,0.1,0.2,0.1,0.2,0.1c0.1,0,0.1-0.2,0.1-0.2c-0.2-0.4-0.4-0.8-0.7-1.1
		c-0.2-0.2-0.4-0.4-0.6-0.5c0-0.1-0.1-0.3-0.1-0.5c0.3-0.1,0.5-0.1,0.6-0.1c0.3,0,0.4,0.1,0.6,0.2c0.2,0.1,0.3,0.4,0.4,0.6
		c0.1,0.2,0.1,0.4,0.1,0.5c0,0,0,0,0,0c0,0.1,0.1,0.2,0.2,0.2c0,0,0,0,0,0c0.1,0,0.2-0.1,0.2-0.2l0,0c0,0,0,0,0,0
		c0-0.1,0-0.5-0.2-0.9c-0.1-0.2-0.2-0.4-0.4-0.5c-0.1-0.1-0.2-0.1-0.3-0.2c0.1-0.1,0.2-0.3,0.3-0.4c0.3,0.1,0.7,0.2,0.9,0.5
		c0.3,0.3,0.4,0.6,0.4,0.8c0,0.1,0,0.2,0,0.2c0,0.1,0,0.2,0.1,0.2c0,0,0,0,0.1,0c0.1,0,0.1,0,0.2-0.1c0-0.1,0.1-0.2,0.1-0.4
		c0-0.4-0.2-0.7-0.5-1c0,0,0.1,0,0.1,0c0.2,0,0.3,0.1,0.5,0.3c0.1,0.2,0.2,0.5,0.2,0.8c0,0.3,0,0.4-0.1,0.5c0,0.1-0.1,0.1-0.1,0.1
		c-0.1,0.1-0.2,0.1-0.4,0.3c-0.2,0.2-0.3,0.4-0.5,0.8l0,0.1l0,0.1c0.2,0.8,0.4,1.2,0.6,1.5c0.2,0.3,0.4,0.5,0.6,0.7
		c0.3,0.5,0.6,0.8,0.9,1.1c0.2,0.2,0.5,0.4,0.7,0.5c-0.6,0.6-1.1,1.4-1.3,2.5l-0.1,0.3l0.8-0.3l0-0.2c0,0,0,0,0,0
		c0,0-0.1-0.3-0.1-0.7c0.5-1.4,1.6-2.1,2.5-2.7c0.6-0.3,1.2-0.6,1.6-0.9c0.2-0.1,0.4-0.3,0.6-0.5c0.1-0.2,0.2-0.4,0.2-0.6
		c0-0.1,0-0.3-0.1-0.4l-0.1-0.2l-0.2,0.1c0,0,0,0,0,0c-0.1,0.1-0.5,0.3-1,0.3c-0.1,0-0.3-0.1-0.5-0.2c-0.2-0.1-0.3-0.3-0.3-0.7
		c0-0.2,0-0.4,0.1-0.7c0.3,0.1,0.6,0.2,0.8,0.2c0.4,0,0.8-0.2,1.1-0.4c0.1-0.1,0.1-0.1,0.2-0.2c0,0,0,0,0,0c0.2-0.2,0.3-0.5,0.3-0.9
		l0-0.2l-0.2,0c-1.2-0.1-1.9-0.2-2.3-0.3c-0.2-0.1-0.3-0.2-0.3-0.2c-0.1-0.1-0.1-0.2-0.1-0.4c0-0.1,0-0.1,0-0.2
		c0.1,0,0.2-0.1,0.3-0.2c0.2-0.2,0.3-0.4,0.4-0.7c0.6-0.1,1.1-0.3,1.4-0.4c0.5-0.3,0.8-0.6,1-0.7c0.3-0.2,0.7-0.3,1.6-0.3
		c0.2,0,0.4-0.1,0.6-0.2c0.2-0.2,0.3-0.4,0.3-0.5c0,0,0-0.1,0-0.1c0,0.1,0.1,0.2,0.1,0.3l0.1,0.6l0.2-0.5c0,0,0,0,0-0.1
		c0-0.1,0.1-0.2,0.2-0.4c0.2,0.4,0.3,0.6,0.3,0.8c0,0.1,0,0.2-0.1,0.4c0,0.1-0.1,0.3-0.1,0.4c0,0,0,0.1,0,0.2c0,0,0,0,0,0
		c0,0,0,0,0,0c0,0,0,0,0,0c0,0,0,0,0,0c0,0,0,0,0,0c0,0,0,0,0,0c0,0,0,0,0,0c0,0,0,0,0,0c0,0,0,0,0,0c0,0,0,0,0,0c0,0,0,0,0,0
		c0,0,0,0,0,0c0,0,0,0,0,0c0,0,0,0,0,0c0,0,0,0,0,0c0,0,0,0,0,0c0,0,0,0,0,0c0,0,0,0,0,0c0,0,0,0,0,0c0,0,0,0,0,0c0,0,0,0,0,0
		c0,0,0,0,0,0c0,0,0,0,0,0c0,0,0,0,0,0c0,0,0,0,0,0c0,0,0,0,0,0c0,0,0,0,0,0c0,0,0,0,0,0c0,0,0,0,0,0c0,0,0,0,0,0l0,0c0,0,0,0,0-0.1
		c0-0.1,0.1-0.2,0.2-0.4c0.2,0.4,0.5,0.6,0.7,0.7c0.2,0.1,0.3,0.2,0.4,0.2c0,0.1,0,0.1,0,0.2c0,0.1,0,0.2,0.1,0.3
		c0.2,0.2,0.4,0.2,0.5,0.3c0.1,0,0.2,0.1,0.2,0.1c0,0,0,0,0.1,0c0,0,0,0,0,0c0.1,0.2,0.1,0.3,0.2,0.5c0,0.2,0.1,0.3,0.1,0.5l0,0l0,0
		c0.1,0.2,0.3,0.3,0.6,0.4c0.2,0.1,0.5,0.3,0.8,0.5c-0.1,0.1-0.1,0.3-0.1,0.4c0,0.1,0,0.2,0.1,0.3c0,0,0,0.1,0,0.1
		c-0.1,0-0.1,0.1-0.1,0.1c-0.1,0.1-0.1,0.2-0.2,0.2c0,0,0,0,0,0c0.1-0.4,0.1-0.5,0.1-0.6l0-0.1l-0.6-0.2c0-0.1,0-0.3-0.1-0.4
		c0-0.1-0.1-0.2-0.2-0.1c-0.1,0-0.2,0.1-0.1,0.2c0,0.3,0.1,0.6,0.1,0.8c0,0.3,0,0.6-0.1,0.8c0-0.1-0.1-0.1-0.1-0.2
		c0-0.1,0.1-0.3,0.1-0.4c0-0.1,0-0.2,0-0.3c0-0.1-0.1-0.2-0.2-0.1c-0.1,0-0.2,0.1-0.1,0.2c0,0.1,0,0.1,0,0.2c0,0.1,0,0.2,0,0.3
		c-0.1-0.1-0.1-0.1-0.1-0.2c0,0,0,0,0,0c0,0,0,0,0,0c0,0,0,0,0,0c0,0,0,0,0,0c0,0,0,0,0,0c0,0,0,0,0,0c0,0,0,0,0,0c0,0,0,0,0,0
		c0,0,0,0,0,0c0,0,0,0,0,0c0,0,0,0,0,0c0,0,0,0,0,0c0,0,0,0,0,0c0,0,0,0,0,0c0,0,0,0,0,0c0,0,0,0,0,0c0,0,0,0,0,0c0,0,0,0,0,0
		c0,0,0,0,0,0c0,0,0,0,0,0c0,0,0,0,0,0c0,0,0,0,0,0c0,0,0,0,0,0c0,0,0,0,0,0c0,0,0,0,0,0c0,0,0,0,0,0h0c-0.1,0.1-0.1,0.2-0.1,0.2
		c-0.1,0-0.1-0.1-0.2-0.1c-0.1-0.1-0.2-0.2-0.3-0.4c0,0,0,0,0,0c0,0,0,0,0,0c0,0,0,0,0,0c0,0,0,0,0,0c0,0,0,0,0,0c0,0,0,0,0,0
		c0,0,0,0,0,0c0,0,0,0,0,0c0,0,0,0,0,0c0,0,0,0,0,0c0,0,0,0,0,0c0,0,0,0,0,0c0,0,0,0,0,0c0,0,0,0,0,0c0,0,0,0,0,0c0,0,0,0,0,0
		c0,0,0,0,0,0c0,0,0,0,0,0c0,0,0,0,0,0c0,0,0,0,0,0c0,0,0,0,0,0c0,0,0,0,0,0c0,0,0,0,0,0c0,0,0,0,0,0c0,0,0,0,0,0c0,0,0,0,0,0
		c0,0,0,0,0,0c0,0,0,0,0,0c0,0,0,0,0,0c0,0,0,0,0,0c0,0,0,0,0,0c0,0,0,0,0,0c0,0,0,0,0,0c0,0,0,0-0.1,0c-0.1,0-0.3,0-0.4,0.1
		c-0.1-0.4-0.3-0.7-0.4-0.9c-0.2-0.3-0.3-0.4-0.4-0.6c0-0.1-0.1-0.1-0.2-0.1c-0.1,0-0.1,0.1-0.1,0.2c0.1,0.3,0.3,0.5,0.5,0.7
		c0.2,0.2,0.3,0.5,0.4,1c-0.1,0.1-0.1,0.3-0.1,0.5c0,0.1,0,0.1,0.1,0.2c-0.1,0.1-0.3,0.2-0.3,0.2c0,0,0-0.1,0-0.1
		c0-0.1,0-0.2,0.1-0.4c0-0.1,0.1-0.3,0.1-0.5c0-0.3-0.1-0.6-0.4-0.9c-0.1-0.1-0.2-0.1-0.2,0c-0.1,0.1-0.1,0.2,0,0.2
		c0.2,0.3,0.3,0.6,0.3,0.7c0,0.1,0,0.3-0.1,0.4c0,0.1-0.1,0.3-0.1,0.5c0,0.1,0,0.3,0.1,0.5l0.1,0.2l0.2-0.1c0,0,0,0,0.1-0.1
		c0.2-0.2,0.7-0.5,1-0.7c0,0,0,0,0,0c0.1,0.4,0.3,0.6,0.3,0.6l0.1,0.1l0.1,0c0.4-0.1,0.6-0.3,0.7-0.5c0,0,0.1-0.1,0.1-0.1
		c0,0,0,0,0,0l0.2,0.1l0-0.1c0.1,0.2,0.3,0.3,0.3,0.3l0.2,0.2l0.1-0.2c0,0,0.2-0.4,0.2-1.2c0,0,0,0,0,0l0.1,0.1
		c0,0.1-0.1,0.4-0.2,0.7l-0.1,0.3l0.3,0c0.3,0,0.4-0.2,0.5-0.3c0,0.1,0,0.1,0,0.2c0,0.1,0.1,0.1,0.2,0.1c0,0,0,0,0,0
		c0.1,0,0.1-0.1,0.1-0.2c0-0.1,0-0.1,0-0.2c0-0.1,0-0.3,0.1-0.3c0,0,0,0,0,0c0.1,0,0.1,0.1,0.2,0.1c0.1,0.1,0.1,0.2,0.2,0.2
		c0,0.1,0,0.2,0,0.2c0,0.3,0.1,0.5,0.2,0.7c0.1,0.2,0.1,0.3,0.1,0.6v0.1l0,0c0.2,0.3,0.4,0.7,0.8,1.1c0,0.1-0.1,0.2-0.2,0.2
		c0,0-0.1,0.1-0.1,0.1c0,0,0,0,0,0c0,0,0,0,0,0l-0.1,0.1l0,0.1c0,0.1,0,0.2,0,0.3c0,0.1,0,0.3,0,0.4c0,0-0.1-0.1-0.2-0.1l-0.4-0.2
		l0.1,0.4c0,0.2,0.1,0.4,0.1,0.6c0,0.4-0.1,0.7-0.2,0.9c0,0,0,0,0,0c-0.1-0.1-0.1-0.2-0.1-0.2l-0.2-0.2l-0.1,0.3
		c0,0.1-0.1,0.2-0.2,0.3c0,0-0.1,0.1-0.1,0.1c0,0,0,0,0,0c0,0,0,0,0,0l-0.1,0.1v0.1c0,0.2,0,0.5,0,0.6c-0.2,0-0.4,0-0.4,0
		c0,0,0,0-0.1,0c0,0-0.1,0.1-0.1,0.1c0,0,0,0.1,0,0.1c0,0,0,0.1,0,0.1c0,0,0,0,0,0l0,0c0.1,0.1,0.1,0.1,0.1,0.2c0,0.1,0,0.2,0,0.4
		c0.1,0.3,0.1,0.4,0.2,0.6c0.1,0.2,0.1,0.3,0.1,0.6c0,0,0,0-0.1,0.1c-0.2,0.1-0.5,0.2-0.8,0.2c0-0.1,0-0.2,0-0.4
		c0-0.1-0.1-0.2-0.2-0.2c-0.1,0-0.2,0.1-0.2,0.2c0,0.3,0.1,0.6,0.1,0.8c0.1,0.2,0.1,0.3,0.1,0.4c0,0.1,0,0.2-0.1,0.3
		c-0.2-0.2-0.3-0.3-0.4-0.4c-0.1-0.2-0.2-0.4-0.5-0.7c-0.1-0.1-0.2-0.1-0.2,0c-0.1,0.1-0.1,0.2,0,0.2c0.2,0.2,0.3,0.4,0.5,0.6
		c0.1,0.1,0.1,0.2,0.2,0.3c-0.6-0.1-1.1-0.6-1.1-1.3c0-0.1-0.1-0.2-0.2-0.2c-0.1,0-0.2,0.1-0.2,0.2c0,0.4,0.2,0.8,0.4,1.1
		c0,0.1-0.1,0.1-0.2,0.2c0,0-0.1,0.1-0.1,0.1c-0.3-0.1-1-0.4-1.4-0.9l-0.1-0.1l-0.1,0l0-0.4c0,0,0-0.4-0.2-0.9c0,0,0,0,0,0
		c0.1-0.1,0.2-0.1,0.2-0.2c0.1,0.1,0.1,0.3,0.2,0.4c0.1,0.2,0.2,0.5,0.3,1l0,0.2l0.2-0.1c0,0,0.1-0.1,0.3-0.2
		c0.1-0.1,0.2-0.4,0.2-0.7c0-0.2,0-0.4-0.1-0.7c0-0.1-0.1-0.1-0.2-0.1c-0.1,0-0.1,0.1-0.1,0.2l0,0c0.1,0.3,0.1,0.5,0.1,0.6
		c0,0.2,0,0.4-0.1,0.4c-0.1-0.4-0.2-0.6-0.3-0.8c-0.1-0.3-0.2-0.5-0.3-0.8c0-0.1-0.1-0.1-0.2-0.1c-0.1,0-0.1,0.1-0.1,0.2
		c0,0,0,0.1,0,0.1c0,0.1-0.1,0.1-0.2,0.2c-0.1-0.1-0.2-0.3-0.2-0.5c0-0.1-0.1-0.2-0.2-0.1c-0.1,0-0.1,0-0.1,0.1c0-0.1,0-0.3,0-0.5
		c0-0.1-0.1-0.2-0.2-0.2c-0.1,0-0.2,0.1-0.2,0.2c0,0.8,0.2,1.4,0.4,1.8c0,0,0,0,0,0c0,0.1,0,0.2,0.1,0.4c-0.1-0.1-0.1-0.1-0.2-0.2
		c-0.1-0.1-0.1-0.2-0.2-0.2c0,0,0,0,0-0.1c0,0,0,0,0,0c-0.1-0.1-0.2-0.1-0.2-0.1c-0.1,0.1-0.1,0.2-0.1,0.2c0,0,0.1,0.2,0.2,0.3
		c0.1,0.2,0.3,0.4,0.6,0.5l0.2,0.1c-0.1,0-0.3,0-0.5,0c0,0,0,0-0.1,0c-0.1-0.1-0.2-0.3-0.3-0.5c-0.2-0.3-0.5-0.7-0.9-0.9l-0.2-0.1
		l-0.1,0.2c0,0.2-0.1,0.3-0.1,0.5c-0.2-0.2-0.4-0.4-0.6-0.5c-0.4-0.3-0.8-0.7-1-1.2c0,0,0,0,0,0c0,0,0-0.1,0-0.1c0-0.2,0-0.4,0-0.6
		c0-0.1,0-0.3,0-0.5c0-0.1-0.1-0.2-0.1-0.2c-0.1,0-0.2,0.1-0.2,0.1l0,0c0,0.2,0,0.4,0,0.5c0,0.3,0,0.5,0,0.6c0,0.1,0,0.3-0.1,0.5
		c-0.2-0.1-0.4-0.2-0.5-0.3c-0.2-0.2-0.4-0.4-0.5-0.5c-0.1-0.1-0.2-0.1-0.2,0c-0.1,0.1-0.1,0.2,0,0.2c0.1,0.1,0.1,0.1,0.2,0.2
		c-0.1,0-0.2,0-0.3,0c0-0.1,0-0.1,0-0.1c0-0.2,0.1-0.4,0.1-0.6c0-0.1,0.1-0.1,0.1-0.2c0,0,0,0,0,0c0,0,0,0,0,0l0.2-0.3l-0.4,0.1
		c-0.1,0-0.2,0.1-0.3,0.1c0-0.1,0-0.2,0-0.2c-0.1-0.1-0.2-0.1-0.2,0c-0.3,0.3-0.5,0.7-1.1,1.5c-0.1-0.1-0.2-0.3-0.2-0.5
		c0-0.2,0.1-0.4,0.3-0.7c0.1-0.1,0-0.2,0-0.2c-0.1-0.1-0.2,0-0.2,0c-0.3,0.3-0.4,0.6-0.4,0.9c0,0.6,0.4,0.9,0.4,1l0.1,0.1l0.1-0.2
		c0.1-0.1,0.1-0.2,0.2-0.3c0.8,0.1,1.4,0.1,1.7,0.1c0,0.1,0,0.2,0,0.2l0,0.1l0.1,0c0.2,0.1,0.4,0.3,0.6,0.5c0.1,0.1,0.1,0.1,0.1,0.2
		c0,0,0,0,0,0c0,0,0,0,0,0l0.1,0.2l0.2-0.1c0,0,0.3-0.3,0.5-0.7c0.4,0.4,0.7,0.7,1.1,1c0.2,0.2,0.4,0.4,0.6,0.6
		c0.1,0.2,0.2,0.5,0.2,0.9c0,0.5-0.1,0.7-0.2,0.8c-0.1,0.1-0.2,0.1-0.4,0.2c-0.2,0.1-0.3,0.3-0.4,0.4c-0.1,0.1-0.2,0.2-0.5,0.2
		c-0.9,0-1.3-0.1-1.5-0.3c-0.1-0.1-0.2-0.2-0.3-0.3c-0.1-0.1-0.2-0.2-0.4-0.4c-0.1-0.1-0.3-0.1-0.5-0.1c-0.6-0.1-1.6-0.1-2.3-0.1
		c-0.4,0-0.6,0-0.6,0c-0.1,0-0.2,0.1-0.2,0.2c0,0.1,0.1,0.2,0.2,0.2c0,0,0.3,0,0.6,0c0.4,0,1,0,1.5,0c0.3,0,0.5,0,0.7,0.1
		c0.2,0,0.3,0.1,0.4,0.1c0.2,0.1,0.3,0.2,0.4,0.3c0.1,0.2,0.3,0.4,0.6,0.5c0.3,0.1,0.7,0.2,1.5,0.2c0,0,0,0,0,0
		c0.3,0,0.6-0.2,0.7-0.3c0.1-0.2,0.2-0.3,0.3-0.4c0.1,0,0.3-0.1,0.4-0.3c0.2-0.2,0.3-0.5,0.3-1c0-0.4-0.1-0.8-0.3-1c0,0,0,0,0,0
		c0,0,0,0,0,0c0-0.1,0-0.2,0-0.4c0-0.1,0-0.1,0-0.2c0.2,0.2,0.4,0.4,0.5,0.7c0.1,0.2,0.2,0.3,0.2,0.4c0,0.1,0,0.1,0.1,0.1
		c0,0,0,0,0,0l0,0.1l0.1,0c0.1,0,0.1,0,0.2,0c0.4,0,0.7-0.1,0.9-0.2c0.3,0.3,0.7,0.6,1,0.7c0.4,0.2,0.6,0.2,0.6,0.2l0.1,0l0.1,0
		c0,0,0.1-0.1,0.3-0.2c0.1,0.3,0.1,0.6,0.1,0.8c0,0.8-0.3,1.7-0.3,3c0,0.9,0.4,1.7,0.7,2.4c0.4,0.7,0.7,1.2,0.7,1.2l0,0l0,0
		c1.4,0.8,2,1.5,2.6,2.1c0.3,0.3,0.6,0.5,0.9,0.7c0.4,0.2,0.8,0.3,1.3,0.3c0.7,0,1.4-0.3,1.8-0.7c0.5-0.4,0.8-1,0.8-1.7
		c0-1.6-1.1-3.3-2.2-5.3c-1.1-2-2.2-4.3-2.2-7c0-1.1,0.3-2.1,0.9-2.8c0.5-0.7,1.3-1.1,2.1-1.1c0.8,0,1.6,0.4,2.1,1
		c0.5,0.6,0.9,1.5,0.9,2.4v0.1l0.1,0.1c0.5,0.4,0.8,0.8,1,1.2c0.2,0.6,0.2,1.2,0.3,2c0,0.5,0.1,1.1,0.3,1.7c-0.4-0.6-0.6-1-0.7-1.3
		c-0.1-0.2-0.1-0.4-0.2-0.6c-0.1-0.2-0.2-0.4-0.3-0.6c-0.1-0.1-0.2-0.1-0.2,0c-0.1,0.1-0.1,0.2,0,0.2l0,0c0.1,0.1,0.2,0.3,0.2,0.4
		c0.1,0.2,0.1,0.6,0.3,1.1c0.1,0.2,0.3,0.5,0.5,0.9c-0.4-0.4-0.6-0.7-0.8-1.1c-0.1-0.2-0.2-0.5-0.2-0.7c-0.1-0.2-0.2-0.4-0.4-0.6
		c-0.1-0.1-0.2,0-0.2,0c-0.1,0.1,0,0.2,0,0.2c0.1,0.1,0.2,0.2,0.3,0.4c0.1,0.3,0.2,0.7,0.5,1.2c0.1,0.2,0.3,0.4,0.5,0.6
		C113.8,121.7,113.4,121.2,113.1,120.8z"/>
	<path class="st1" d="M102.5,111.4C102.5,111.4,102.5,111.4,102.5,111.4C102.5,111.4,102.5,111.4,102.5,111.4c0,0.1,0.1,0.2,0.1,0.3
		c0,0-0.1,0-0.1,0c-0.1,0.1-0.3,0.1-0.4,0.2C102,111.6,102.2,111.4,102.5,111.4z"/>
	<path class="st1" d="M103,111.8c0.2,0.1,0.3,0.2,0.4,0.2l0.1,0l0.1,0c0,0,0.1,0,0.1-0.1c0,0,0,0.1-0.1,0.1
		c-0.1,0.1-0.2,0.2-0.4,0.3C103,112.2,102.9,112,103,111.8C102.9,111.7,102.9,111.8,103,111.8z"/>
	<path class="st1" d="M100.6,119.4L100.6,119.4c0,0,0,0.1,0,0.1c-0.1-0.2-0.2-0.5-0.3-0.8c0.1,0.3,0.3,0.5,0.3,0.5
		C100.6,119.2,100.6,119.3,100.6,119.4z"/>
	<path class="st1" d="M100.9,120.2l0.3,0.2l-0.1,0c0,0,0,0,0,0c0,0-0.2,0.1-0.4,0.1v-0.3c0-0.1,0-0.2,0-0.2
		C100.8,120.2,100.8,120.2,100.9,120.2z"/>
	<path class="st1" d="M96.6,118.8l0.1,0l0.1-0.1c0-0.1,0.1-0.2,0.1-0.2c0,0,0,0,0,0c-0.1,0.2-0.2,0.4-0.3,0.5c0,0-0.1,0.1-0.1,0.1
		c-0.1-0.2-0.4-0.4-0.7-0.6c0,0,0-0.1,0-0.1C96.1,118.5,96.3,118.7,96.6,118.8z"/>
	<path class="st1" d="M94.4,117.5c0.1,0,0.3-0.1,0.5-0.2c-0.1,0.2-0.1,0.4-0.1,0.6c0,0,0,0.1,0,0.1c-0.2,0-0.5,0-0.8-0.1
		C94.2,117.8,94.3,117.6,94.4,117.5z"/>
	<path d="M97.7,112.8C97.8,112.8,97.8,112.8,97.7,112.8c1.2-0.5,1.7-1.4,1.7-2.3c0,0,0,0,0,0c0,0,0.1-0.1,0.1-0.2c0,0,0,0,0,0
		c-0.1-0.5-0.4-1.1-0.8-1.4c-0.1-0.1-0.2-0.1-0.2,0c-0.1,0.1-0.1,0.2,0,0.2h0c0.3,0.3,0.6,0.8,0.7,1.2c0,0,0,0,0,0
		c0,0-0.1,0.1-0.1,0.2c0,0.8-0.5,1.5-1.5,2c-0.1,0-0.1,0.1-0.1,0.2C97.6,112.8,97.7,112.8,97.7,112.8z"/>
	<path d="M104.6,135.2c-0.1,0-0.1,0.2-0.1,0.2h0c0.3,0.5,0.7,0.9,1,1.3c-0.3-0.2-0.6-0.5-0.9-0.9c-0.6-0.7-1.1-1.6-1.4-2.7
		c0-0.1-0.1-0.1-0.2-0.1c-0.1,0-0.1,0.1-0.1,0.2c0.3,1.1,0.9,2.1,1.5,2.8c0.6,0.7,1.3,1.2,2,1.5c0.2,0.2,0.3,0.2,0.3,0.2
		c0,0,0.1,0,0.1,0c0,0,0.1,0,0.1-0.1c0.1-0.1,0.1-0.2,0-0.2c0,0-0.1-0.1-0.2-0.2c-0.4-0.4-1.3-1.3-1.8-2.1
		C104.8,135.2,104.7,135.2,104.6,135.2z"/>
	<path d="M101.5,126.5c-0.3-0.4-1.4-2.1-1.6-3.8c0-0.1-0.1-0.2-0.2-0.2c-0.1,0-0.2,0.1-0.2,0.2l0,0c0,0.3,0.1,0.6,0.2,0.9
		c-0.1,0.1-0.3,0.4-0.8,0.7c-0.1,0-0.1,0.2-0.1,0.2c0,0.1,0.1,0.1,0.2,0.1c0,0,0.1,0,0.1,0c0.4-0.2,0.6-0.4,0.7-0.6
		c0,0.1,0.1,0.2,0.1,0.3c-0.1,0.1-0.3,0.4-0.8,0.7c-0.1,0-0.1,0.2-0.1,0.2c0,0.1,0.1,0.1,0.2,0.1c0,0,0.1,0,0.1,0
		c0.4-0.2,0.6-0.5,0.8-0.6c0,0.1,0.1,0.2,0.1,0.3c-0.1,0.1-0.3,0.4-0.8,0.7c-0.1,0-0.1,0.2-0.1,0.2c0,0.1,0.1,0.1,0.2,0.1
		c0,0,0.1,0,0.1,0c0.4-0.2,0.6-0.5,0.8-0.7c0.1,0.2,0.2,0.4,0.3,0.5c-0.1,0.1-0.2,0.3-0.4,0.5c-0.1,0.1-0.1,0.2,0,0.2
		c0,0,0.1,0.1,0.1,0.1c0,0,0.1,0,0.1,0c0.2-0.1,0.3-0.3,0.4-0.4c0.2,0.4,0.4,0.6,0.4,0.6c0,0,0.1,0.1,0.1,0.1c0,0,0.1,0,0.1,0
		C101.6,126.8,101.6,126.7,101.5,126.5C101.5,126.6,101.5,126.6,101.5,126.5z"/>
	<path d="M98.8,117.9c-0.1,0-0.2,0.1-0.1,0.2c0,0.1,0,0.2,0,0.3c0,0.2-0.1,0.4-0.1,0.5c0,0,0,0,0,0.1c-0.1-0.1-0.3-0.3-0.3-0.5
		c0-0.1-0.1-0.1-0.2-0.1c-0.1,0-0.1,0.1-0.1,0.2c0.2,0.6,0.6,0.8,0.6,0.8l0.1,0.1l0.1-0.1c0,0,0.1-0.1,0.2-0.2
		c0.1-0.1,0.2-0.4,0.2-0.7c0-0.1,0-0.2-0.1-0.4C99,117.9,98.9,117.8,98.8,117.9z"/>
	<path d="M97.5,116c0.1,0.2,0.2,0.5,0.4,0.7c0.1,0.2,0.3,0.4,0.5,0.5l0,0h0c0.2,0,0.3-0.1,0.4-0.2c0.3-0.3,0.6-0.9,0.6-1.7
		c0-0.1-0.1-0.2-0.2-0.2c-0.1,0-0.2,0.1-0.2,0.2c0,0.4-0.1,0.8-0.3,1.1c-0.1,0.1-0.2,0.3-0.2,0.3c0,0-0.1,0.1-0.1,0.1
		c-0.1-0.1-0.2-0.2-0.3-0.4c-0.2-0.3-0.3-0.7-0.5-1c-0.1-0.2-0.1-0.3-0.1-0.4c0-0.1,0-0.2,0-0.2c0-0.1-0.1-0.1-0.2-0.1
		c-0.1,0-0.1,0.1-0.1,0.2C97.2,115.1,97.3,115.5,97.5,116z"/>
	<path d="M98.7,115.1c0,0.2,0,0.5-0.1,0.6c0,0.1-0.1,0.1-0.1,0.2c0,0,0,0,0,0c-0.3-0.2-0.5-0.5-0.6-1.2c0-0.1-0.1-0.2-0.2-0.2
		c-0.1,0-0.2,0.1-0.2,0.2c0,0.8,0.4,1.3,0.8,1.6l0,0h0c0,0,0,0,0,0c0.1,0,0.2-0.1,0.3-0.1c0.2-0.2,0.3-0.6,0.3-1
		c0-0.1-0.1-0.2-0.2-0.2C98.8,115,98.7,115,98.7,115.1z"/>
	<path d="M101.9,114c0,0.1,0,0.2,0,0.3c0,0.5-0.2,1-0.4,1.4c-0.1,0.2-0.2,0.3-0.3,0.4c-0.1-0.1-0.3-0.3-0.5-0.4
		c-0.1,0-0.2,0-0.2,0.1c0,0.1,0,0.2,0.1,0.2c0.1,0.1,0.2,0.2,0.3,0.3c0,0.1,0.1,0.1,0.1,0.1c0,0,0,0,0,0c0,0,0,0,0,0c0,0,0,0,0,0
		c0,0,0,0,0,0c0,0,0,0,0,0c0,0,0,0,0,0c0,0,0,0,0,0c0,0,0,0,0,0c0,0,0,0,0,0l0,0l0,0c0,0,0,0,0,0c0,0,0,0,0,0c0,0,0,0,0,0
		c0,0,0,0,0,0c0,0,0,0,0,0c0,0,0,0,0,0c0,0,0,0,0,0c0,0,0,0,0,0c0,0,0,0,0,0c0,0,0.9-0.9,0.9-2.2c0-0.1,0-0.2,0-0.3
		c0-0.1-0.1-0.2-0.2-0.2C101.9,113.8,101.9,113.9,101.9,114L101.9,114z"/>
	<path d="M100.3,114.6c0.1,0.2,0.3,0.5,0.5,0.9l0.1,0.2l0.2-0.2c0.2-0.2,0.4-0.4,0.5-0.6c0.1-0.2,0.2-0.4,0.2-0.7
		c0-0.2,0-0.3-0.1-0.5c0-0.1-0.1-0.1-0.2-0.1c-0.1,0-0.1,0.1-0.1,0.2l0,0c0.1,0.1,0.1,0.2,0.1,0.3c0,0.2-0.1,0.3-0.2,0.5
		c-0.1,0.1-0.2,0.3-0.3,0.4c-0.3-0.5-0.5-0.8-0.5-0.8c-0.1-0.1-0.2-0.1-0.2,0C100.2,114.4,100.2,114.5,100.3,114.6
		C100.2,114.5,100.3,114.6,100.3,114.6z"/>
	<path d="M102.5,113.7c0.2,1.6,1.1,2.1,1.1,2.1l0.1,0.1l0.1-0.1c0.3-0.5,0.3-1,0.3-1.3c0-0.2,0-0.3,0.1-0.4c0-0.1,0.1-0.2,0.3-0.2
		c0.1,0,0.1-0.1,0.1-0.2c0-0.1-0.1-0.1-0.2-0.1c-0.2,0.1-0.4,0.2-0.4,0.4c-0.1,0.3-0.1,0.5-0.1,0.8c0,0,0,0,0,0c0,0,0,0,0,0
		c0,0,0,0,0,0c0,0-0.1-0.1-0.1-0.2c-0.1-0.1-0.1-0.2-0.1-0.2c0-0.1,0-0.1,0.1-0.2l0.1-0.1l-0.6-0.9c-0.1-0.1-0.2-0.1-0.2,0
		c-0.1,0.1-0.1,0.2,0,0.2l0,0l0.4,0.6c-0.1,0.1-0.1,0.2-0.1,0.3c0,0.2,0.1,0.4,0.2,0.5c0.1,0.1,0.2,0.2,0.2,0.2c0,0,0.1,0,0.1,0
		c0,0,0.1,0,0.1,0c0,0.1-0.1,0.3-0.1,0.4c-0.2-0.2-0.7-0.7-0.8-1.7c0-0.1-0.1-0.2-0.2-0.1C102.6,113.5,102.5,113.6,102.5,113.7
		L102.5,113.7z"/>
	<path d="M104.2,117.8c-0.1,0-0.2,0-0.2,0.1l0,0c-0.1,0.2-0.1,0.3-0.1,0.5c0,0.2,0,0.4,0.1,0.5c-0.1-0.1-0.1-0.2-0.1-0.4
		c0-0.1-0.1-0.2-0.2-0.2c-0.1,0-0.2,0.1-0.2,0.2c0,0.3,0.1,0.5,0.2,0.7c0.1,0.1,0.2,0.2,0.3,0.2l0.1,0.1l0.1-0.1
		c0.1-0.1,0.1-0.2,0.1-0.3c0-0.2-0.1-0.4-0.1-0.6c0-0.1,0-0.2,0.1-0.3C104.3,117.9,104.3,117.8,104.2,117.8z"/>
	<path d="M102.4,117.9L102.4,117.9l0.7,0.4l-0.1-0.4c0-0.1,0-0.1,0-0.1c0-0.1,0-0.2,0.1-0.3c0-0.1,0.1-0.2,0.1-0.3
		c0-0.1-0.1-0.2-0.2-0.2c-0.1,0-0.2,0.1-0.2,0.2c0,0,0,0.1-0.1,0.2c0,0.1-0.1,0.2-0.1,0.3l-0.1,0c-0.1,0-0.2,0-0.2,0.1
		C102.2,117.7,102.3,117.8,102.4,117.9z"/>
	<path d="M99.2,107c0,0-0.5-0.1-1.2-0.1c-0.4,0.2-0.5,0.7-0.5,0.7h0c0,0,0,0.1,0,0.1c0,0.1,0.1,0.2,0.2,0.2c0.4,0,0.6-0.3,0.8-0.5
		c0.4,0,0.7,0.1,0.7,0.1C99.4,107.2,99.2,107.2,99.2,107z"/>
</g>
</svg>
