<?xml version="1.0" encoding="utf-8"?>
<!-- Generator: Adobe Illustrator 21.1.0, SVG Export Plug-In . SVG Version: 6.00 Build 0)  -->
<svg version="1.1" id="Layer_1" xmlns="http://www.w3.org/2000/svg" xmlns:xlink="http://www.w3.org/1999/xlink" x="0px" y="0px"
	 viewBox="0 0 200 200" style="enable-background:new 0 0 200 200;" xml:space="preserve">
<style type="text/css">
	.st0{fill-rule:evenodd;clip-rule:evenodd;fill:#FFFFFF;}
	.st1{fill:#231F20;}
	.st2{fill-rule:evenodd;clip-rule:evenodd;fill:#E2DDDB;}
	.st3{fill-rule:evenodd;clip-rule:evenodd;fill:#900028;}
	.st4{fill:#FFFFFF;}
	.st5{fill:#8F182B;}
	.st6{fill:#900028;}
	.st7{fill:none;stroke:#900028;stroke-width:14.04;}
	.st8{fill:#FFF100;}
	.st9{fill:#FFFFFF;stroke:#900028;stroke-width:5.616;}
	.st10{fill:#131F6B;}
</style>
<g>
	<path class="st0" d="M175.3,15.2c-25.1,0-48.3-6.4-75.3-13.8C72.6,9.2,49.8,15.2,24.7,15.2v91.5c0,66.1,50.2,67.6,75.3,91.7
		c25.1-24.1,75.3-25.5,75.3-91.7C175.3,76.1,175.3,45.7,175.3,15.2L175.3,15.2z"/>
	<path class="st1" d="M100,200l-0.8-0.8c-7-6.7-15.9-11.6-25.4-16.8c-12.1-6.6-24.6-13.5-34.1-24.8c-5.2-6.1-9-12.9-11.7-20.8
		c-3-8.8-4.5-18.7-4.5-30.2V13.9h1.2c24.7,0,46.6-5.7,75-13.8l0.3-0.1l1.3,0.4c26.5,7.3,49.4,13.5,74,13.5h1.2v92.7
		c0,11.5-1.5,21.4-4.5,30.2c-2.7,7.9-6.5,14.7-11.7,20.8c-9.6,11.3-22.1,18.1-34.1,24.8c-9.4,5.2-18.4,10.1-25.4,16.8L100,200z
		 M25.9,16.4v90.2c0,46.7,24.9,60.4,49.1,73.6c9.2,5.1,18,9.9,25,16.4c7.1-6.5,15.8-11.3,25-16.4c24.1-13.2,49.1-26.9,49.1-73.6
		V16.4c-24.5-0.2-47.2-6.4-73.4-13.6L100,2.6C72.1,10.6,50.3,16.2,25.9,16.4z"/>
	<path class="st2" d="M99.8,198c25.1-24.1,75.3-25.5,75.3-91.7c0-30.5,0-61,0-91.5l0,0C150,14.8,126.8,8.4,99.8,1"/>
	<path class="st3" d="M175.1,14.8C150,14.8,126.8,8.4,99.8,1C72.4,8.8,49.6,14.8,24.5,14.8v21.1c0,26.4,50.2-15.8,75.3,8.2
		c25.1-24.1,75.3,18.2,75.3-8.2C175.1,5.5,175.1,45.3,175.1,14.8L175.1,14.8z"/>
	<path class="st1" d="M33.2,46c-2.6,0-4.8-0.5-6.5-1.8c-2.1-1.6-3.2-4.3-3.2-8.2V13.9h1c24.7,0,46.7-5.7,75-13.8L99.8,0l1.2,0.3
		c26.5,7.3,49.4,13.5,74.1,13.5h1v22.1c0,3.9-1,6.6-3.2,8.2c-4.7,3.6-13.8,1.1-24.5-1.8c-15.7-4.3-35.3-9.6-48,2.5l-0.7,0.7
		l-0.7-0.7c-12.6-12.1-32.2-6.8-48-2.5C44.3,44.2,38.1,46,33.2,46z M121.2,35.4c9.3,0,19.1,2.7,27.8,5c10.1,2.8,18.8,5.1,22.8,2.1
		c1.6-1.2,2.4-3.4,2.4-6.7V15.8c-24.6-0.2-47.3-6.4-73.6-13.6L99.8,2c-28,8-49.8,13.6-74.3,13.8v20.1c0,3.3,0.8,5.4,2.4,6.7
		c3.9,3,12.6,0.6,22.8-2.1c15.9-4.3,35.7-9.7,49.2,2.3C106,37.3,113.4,35.4,121.2,35.4z"/>
	<polygon class="st4" points="35.4,23.4 30.3,24.7 29.8,22.9 42.1,19.8 42.6,21.6 37.4,22.9 40.4,34.7 38.4,35.2 	"/>
	<path class="st4" d="M44.5,19.4l1.9-0.3l0.8,5.3l0,0c0.8-1.6,2.2-2.2,3.7-2.5c2.4-0.3,4.4,0.4,4.8,3l1,6.9l-1.9,0.3l-0.9-6.6
		c-0.2-1.5-1.2-2.2-3.3-1.9c-1.8,0.3-3.2,1.5-2.9,3.5l0.8,5.9l-1.9,0.3L44.5,19.4z"/>
	<path class="st4" d="M60.1,27c0.3,2.1,2.3,3.1,4.1,2.9c1.1-0.1,2.6-0.6,3.1-2.1l2.1-0.2c-0.8,2.5-2.9,3.7-5,3.9c-4,0.4-6.2-2-6.4-5
		c-0.3-3,1.5-5.7,5.5-6c2.7-0.2,5.7,1.1,6.1,5.3l0,0.3L60.1,27z"/>
	<path class="st5" d="M67.4,24.9c-0.5-1.8-2-2.7-3.8-2.6c-1.8,0.2-3.3,1.4-3.5,3.2L67.4,24.9z"/>
	<polygon class="st4" points="80.5,19 80.4,19 80.8,30.2 78.7,30.2 78.3,16.2 80.7,16.1 90.1,27 90.1,27 89.7,15.9 91.8,15.8 
		92.3,29.8 89.8,29.9 	"/>
	<path class="st4" d="M100.5,19.1c4,0,6,2.5,6,5.5c0,3-2,5.5-6,5.5c-4,0-6-2.5-6-5.5C94.5,21.7,96.5,19.1,100.5,19.1z"/>
	<path class="st5" d="M100.5,20.8c-2.8,0-3.9,2-3.9,3.8c0,1.9,1,3.9,3.9,3.9c2.8,0,3.9-2,3.9-3.8C104.4,22.8,103.3,20.8,100.5,20.8z
		"/>
	<path class="st4" d="M124.1,23.8c0.1-1.9-1.1-2.5-2.4-2.5c-1.8-0.1-3.4,0.7-3.5,2.6l-0.2,6.2l-2-0.1l0.2-6.5
		c0.1-1.9-1.1-2.5-2.4-2.5c-1.8-0.1-3.4,0.9-3.5,2.9l-0.2,5.9l-2-0.1l0.4-10.3l2,0.1l-0.1,1.6l0,0c1-1.4,2.6-1.8,4.1-1.8
		c1.3,0,2.6,0.6,3.4,2c1-1.1,2.3-1.8,4.2-1.7c1,0,3.9,0.6,3.8,3.8l-0.3,7l-2-0.1L124.1,23.8z"/>
	<path class="st4" d="M128.6,23.6c0.5-2.5,2.3-3.4,5.4-3.2c2.1,0.2,4.7,0.9,4.5,3.3l-0.4,5.5c0,0.6,0.2,0.9,0.8,1c0.2,0,0.5,0,0.7,0
		l-0.1,1.4c-0.5,0-1.1,0-1.5,0c-1-0.1-1.6-0.4-1.6-1.6c-0.9,1-2.8,1.4-4.5,1.3c-3.4-0.3-4-2.1-3.9-3.4c0.2-1.9,1.3-2.7,4.7-2.8
		l2.3-0.1c1.1,0,1.8-0.2,1.9-1.1c0.1-1.4-1.2-1.8-2.8-1.9c-1.7-0.1-3.1,0.2-3.3,1.8L128.6,23.6z"/>
	<path class="st5" d="M136.5,25.9c-0.3,0.3-0.9,0.4-2,0.5l-2.2,0.1c-1.6,0.1-2.4,0.4-2.5,1.5c-0.1,1,0.8,1.7,2.3,1.8
		c2.2,0.2,4.2-0.8,4.3-2.5L136.5,25.9z"/>
	<path class="st4" d="M149.8,31.5L149.8,31.5c-0.9,1-2.6,1.3-4.1,1.1c-3.1-0.4-5.3-2.7-4.8-6.1c0.4-3.4,3.2-5.1,6.3-4.7
		c1.5,0.2,3,1,3.7,2.2l0,0l0.7-5.2l1.9,0.3l-1.8,14l-1.9-0.3L149.8,31.5z"/>
	<path class="st5" d="M146.1,31.1c2.6,0.3,4-1.3,4.3-3.3c0.3-2.3-1-4-3.3-4.2c-2.3-0.3-3.9,0.9-4.2,3.3
		C142.6,28.8,143.5,30.7,146.1,31.1z"/>
	<path class="st4" d="M155.7,30.5c-0.2,0.9,0.3,2.2,2.7,2.7c2.5,0.5,3.3-0.2,3.4-0.9c0.2-0.7-0.1-1.2-1.6-1.8l-3.1-1.1
		c-1.4-0.5-2.5-1.7-2.1-3.3c0.5-2.1,2.5-2.9,5.3-2.2c3.3,0.7,4.4,2.5,4.2,4.5l-1.9-0.4c0.2-1-0.6-2.1-2.6-2.5c-1.2-0.3-2.7-0.2-3,1
		c-0.1,0.7,0.1,1.1,1.4,1.6l2.6,1c2.5,0.9,3.2,2,2.9,3.4c-0.5,2.3-2.7,3-5.8,2.3c-2.3-0.5-4.8-1.7-4.4-4.6L155.7,30.5z"/>
	<path class="st6" d="M120.1,142.4l-8.1-2.5l19.1-18l5.6,8.1L120.1,142.4z M114.8,139.3l5.1,1.6l15-11.2l-3.9-5.6L114.8,139.3z"/>
	<polygon class="st4" points="100.5,53.8 83.6,54.5 84.4,55.7 59.5,57.4 57.5,57.5 59.5,57.9 65.1,59.7 59.3,61.8 57.7,62.2 
		59.3,62.2 84.8,61 85.5,59.8 99.5,59.4 	"/>
	<path class="st6" d="M57.8,62.7l-0.1-0.9l1.6-0.4l4.5-1.6l-4.3-1.4l-2-0.4l0.1-0.9l2-0.1l24-1.6l-0.9-1.2l18.4-0.8l-1.2,6.5
		l-14.1,0.4L85,61.4l-25.7,1.2L57.8,62.7z M60.8,57.8l5.7,1.9l-5.3,1.9l23.3-1.1l0.8-1.2l13.9-0.4l0.9-4.7l-15.6,0.7l0.8,1.2
		L60.8,57.8z"/>
	<rect x="97.9" y="112.2" class="st6" width="3.9" height="3.1"/>
	<line class="st7" x1="92.4" y1="120.9" x2="92.4" y2="112.2"/>
	<line class="st7" x1="107.1" y1="121.1" x2="107.1" y2="111.7"/>
	<rect x="98.9" y="53.1" class="st6" width="2.3" height="68"/>
	<path class="st6" d="M99.6,135.7c-7.2,0-13.6-1.8-19-5.3c-4.3-2.8-8-6.8-10.9-11.7c-5-8.4-6.1-16.6-6.2-17l1.4-0.2
		c0,0.1,1.1,8.3,6,16.5c6.5,10.8,16.1,16.3,28.7,16.3c12.6,0,22.6-5.5,29.6-16.3c5.3-8.1,6.8-16.3,6.8-16.4l1.4,0.2
		c-0.1,0.3-1.6,8.5-7,16.9c-3.2,4.9-7.1,8.8-11.5,11.6C113.3,133.9,106.8,135.7,99.6,135.7z"/>
	
		<rect x="80.4" y="66.5" transform="matrix(0.9818 -0.1898 0.1898 0.9818 -10.9825 20.5454)" class="st6" width="42.8" height="2.3"/>
	<path class="st6" d="M116.5,87.3l-16.9,2.2c0,0-3.2-7.2-0.3-20.3l22.1-4.5C121.4,64.7,116.6,78.1,116.5,87.3z"/>
	<path class="st6" d="M99.6,112.4c0,0-16.3,1-17,0.6c-3.4-1.9-7.1-17.1-5.9-20c0.6-1.4,22.9-3.9,22.9-3.5
		C99.3,97.1,99.7,103.2,99.6,112.4z"/>
	<path class="st8" d="M119.2,111.7c0,0-19.5,1.4-19.6,0.7c-0.7-3.9-4.4-15.8,0-22.8c0.8-1.3,16.9-2.6,16.9-2.2
		C116.2,94.8,117.1,102.8,119.2,111.7z"/>
	<path class="st8" d="M99.7,89.5c0,0-21.5,6.8-23.2,3.9c-0.6-1,0.9-12.6,5.6-20.6c0.7-1.3,19.3-4.4,19.3-4
		C101.1,76.3,97.5,80.6,99.7,89.5z"/>
	<path d="M117.6,111.8c-0.3-0.3-25.2-29.7-36.1-37.8c0,0,0.5-1.1,0.8-1.3c0.3-0.3,1.4-0.6,1.4-0.6c9.9,7.3,35,36.6,35,36.6
		s0.2,1.1,0.4,1.6l0.3,1.4L117.6,111.8z"/>
	<polygon class="st9" points="78.9,103.9 54.1,102.1 54.1,96.9 78.9,98.7 	"/>
	<path class="st6" d="M99.6,140.3c-7.2,0-13.7-1.9-19.4-5.7c-4.5-3-8.4-7.2-11.7-12.5c-5.6-8.9-7.2-17.7-7.3-18.1l1.4-0.3
		c0,0.1,1.7,8.9,7.2,17.6c7.2,11.6,17.3,17.5,29.9,17.5c12.6,0,23.2-6.3,31.4-18.6c6.2-9.3,8.6-18.6,8.7-18.7l1.3,0.3
		c0,0.1-2.5,9.7-8.9,19.1c-3.7,5.6-8,10-12.8,13.2C113.5,138.3,106.8,140.3,99.6,140.3z"/>
	<path class="st6" d="M99.6,121.9c-12.3,0-21.2-2.8-26.5-8.2c-4.7-4.9-4.6-10.1-4.6-10.3l1.4,0.1c0,0-0.1,4.9,4.2,9.3
		c5,5.1,13.5,7.7,25.5,7.7c12.4,0,21.8-3.3,27.1-9.4c4-4.6,4.3-9.3,4.3-9.4l1.4,0.1c0,0.2-0.3,5.2-4.6,10.1
		c-2.5,2.9-5.8,5.2-9.8,6.9C113,120.9,106.8,121.9,99.6,121.9z"/>
	<path class="st6" d="M99.6,129.7c-7.2,0-13.4-1.4-18.5-4.1c-4.1-2.2-7.5-5.2-10-9c-4.3-6.5-4.8-12.9-4.8-13.1l1.4-0.1
		c0,0.1,0.5,6.3,4.6,12.5c5.6,8.3,14.8,12.4,27.3,12.4c12.6,0,22.2-4.5,28.5-13.3c4.7-6.6,5.6-13.3,5.7-13.3l1.4,0.2
		c0,0.3-1,7.1-5.9,13.9c-2.9,4-6.5,7.3-10.7,9.6C113.1,128.3,106.8,129.7,99.6,129.7z"/>
	<polygon class="st4" points="78.9,103.9 54.1,102.1 54.1,104.7 78.9,106.6 	"/>
	<path class="st6" d="M79.4,107l-25.7-1.9v-3.6l25.7,1.9V107z M54.6,104.3l23.9,1.8v-1.7l-23.9-1.8V104.3z"/>
	<polygon class="st4" points="78.9,96.1 54.1,94.3 54.1,96.9 78.9,98.7 	"/>
	<path class="st6" d="M79.4,99.2l-25.7-1.9v-3.6l25.7,1.9V99.2z M54.6,96.5l23.9,1.8v-1.7l-23.9-1.8V96.5z"/>
	<path class="st6" d="M59.5,103l-0.6-0.7c0.3-0.2,0.4-0.7,0.4-1.2c0-0.5-0.1-1-0.3-1.2l-0.4-0.4c-0.5-0.6-1.4-0.6-1.9-0.1
		c-0.5,0.5-0.6,1.7-0.2,2.3l0.6,0.2l-0.3,0.9l-0.8-0.3l-0.1-0.1c-0.8-0.9-0.8-2.8,0.2-3.7c0.9-0.8,2.4-0.8,3.2,0.2l0.4,0.4
		c0.4,0.4,0.6,1.1,0.6,1.9C60.2,101.9,59.9,102.6,59.5,103z"/>
	<path class="st6" d="M65,103l-0.6-0.7c0.6-0.5,0.6-1.4,0.1-1.9l-0.4-0.4c-0.5-0.6-1.4-0.6-1.9-0.1c-0.6,0.5-0.6,1.4-0.1,1.9
		l0.4,0.4l-0.7,0.6l-0.4-0.4c-0.8-0.9-0.8-2.4,0.2-3.2c0.9-0.8,2.4-0.8,3.2,0.2l0.4,0.4C66,100.7,65.9,102.1,65,103z"/>
	<path class="st6" d="M70.5,103.4l-0.6-0.7c0.3-0.2,0.4-0.6,0.4-0.9c0-0.4-0.1-0.7-0.3-1l-0.4-0.4c-0.5-0.6-1.4-0.6-1.9-0.1
		c-0.6,0.5-0.6,1.4-0.1,1.9l0.4,0.4l-0.7,0.6l-0.4-0.4c-0.8-0.9-0.8-2.4,0.2-3.2c0.9-0.8,2.4-0.8,3.2,0.2l0.4,0.4
		c0.4,0.5,0.6,1,0.6,1.6C71.2,102.5,71,103,70.5,103.4z"/>
	<path class="st6" d="M76,103.9l-0.6-0.7c0.3-0.2,0.4-0.6,0.4-0.9c0-0.4-0.1-0.7-0.3-1l-0.4-0.4c-0.5-0.6-1.4-0.6-1.9-0.1
		c-0.6,0.5-0.6,1.4-0.1,1.9l0.4,0.4l-0.7,0.6l-0.4-0.4c-0.8-0.9-0.8-2.4,0.2-3.2c0.9-0.8,2.4-0.8,3.2,0.2l0.4,0.4
		c0.4,0.5,0.6,1,0.6,1.6C76.8,102.9,76.5,103.5,76,103.9z"/>
	<polygon class="st9" points="122.1,103.9 146.9,102.1 146.9,96.9 122.1,98.7 	"/>
	<polygon class="st4" points="122.1,103.9 146.9,102.1 146.9,104.7 122.1,106.6 	"/>
	<path class="st6" d="M121.7,107v-3.6l25.7-1.9v3.6L121.7,107z M122.6,104.3v1.7l23.9-1.8v-1.7L122.6,104.3z"/>
	<polygon class="st4" points="122.1,96.1 146.9,94.3 146.9,96.9 122.1,98.7 	"/>
	<path class="st6" d="M121.7,99.2v-3.6l25.7-1.9v3.6L121.7,99.2z M122.6,96.5v1.7l23.9-1.8v-1.7L122.6,96.5z"/>
	<path class="st6" d="M141.5,103c-0.4-0.4-0.7-1.1-0.8-1.8c0-0.7,0.2-1.4,0.6-1.9l0.4-0.4c0.8-0.9,2.3-1,3.2-0.2
		c0.9,0.8,1,2.7,0.2,3.7l-0.1,0.1l-0.8,0.3l-0.3-0.9l0.6-0.2c0.4-0.6,0.3-1.8-0.2-2.3c-0.6-0.5-1.4-0.4-1.9,0.1l-0.4,0.4
		c-0.2,0.3-0.4,0.7-0.3,1.2c0,0.5,0.2,0.9,0.4,1.2L141.5,103z"/>
	<path class="st6" d="M136,103c-0.5-0.4-0.7-1-0.8-1.6c0-0.6,0.2-1.2,0.6-1.6l0.4-0.4c0.8-0.9,2.3-1,3.2-0.2c0.9,0.8,1,2.3,0.2,3.2
		l-0.4,0.4l-0.7-0.6l0.4-0.4c0.5-0.6,0.4-1.4-0.1-1.9c-0.6-0.5-1.4-0.4-1.9,0.1l-0.4,0.4c-0.2,0.3-0.4,0.6-0.3,1
		c0,0.4,0.2,0.7,0.4,0.9L136,103z"/>
	<path class="st6" d="M130.5,103.4c-0.5-0.4-0.7-1-0.8-1.6c0-0.6,0.2-1.2,0.6-1.6l0.4-0.4c0.8-0.9,2.3-1,3.2-0.2
		c0.9,0.8,1,2.3,0.2,3.2l-0.4,0.4l-0.7-0.6l0.4-0.4c0.5-0.6,0.4-1.4-0.1-1.9c-0.6-0.5-1.4-0.4-1.9,0.1l-0.4,0.4
		c-0.2,0.3-0.4,0.6-0.3,1c0,0.4,0.2,0.7,0.4,0.9L130.5,103.4z"/>
	<path class="st6" d="M125,103.9c-0.5-0.4-0.7-1-0.8-1.6c0-0.6,0.2-1.2,0.6-1.6l0.4-0.4c0.8-0.9,2.3-1,3.2-0.2
		c0.9,0.8,1,2.3,0.2,3.2l-0.4,0.4l-0.7-0.6l0.4-0.4c0.5-0.6,0.4-1.4-0.1-1.9c-0.6-0.5-1.4-0.4-1.9,0.1l-0.4,0.4
		c-0.2,0.3-0.4,0.6-0.3,1c0,0.4,0.2,0.7,0.4,0.9L125,103.9z"/>
	<ellipse class="st4" cx="84.9" cy="123" rx="2.7" ry="2.8"/>
	<path class="st6" d="M84.9,126.2c-1.7,0-3.1-1.4-3.1-3.2c0-1.8,1.4-3.2,3.1-3.2c1.7,0,3.1,1.4,3.1,3.2
		C88,124.8,86.6,126.2,84.9,126.2z M84.9,120.7c-1.2,0-2.2,1-2.2,2.3c0,1.3,1,2.3,2.2,2.3c1.2,0,2.2-1,2.2-2.3
		C87.1,121.7,86.1,120.7,84.9,120.7z"/>
	<ellipse class="st4" cx="94.1" cy="124.9" rx="2.7" ry="2.8"/>
	<path class="st6" d="M94.1,128.1c-1.7,0-3.1-1.4-3.1-3.2c0-1.8,1.4-3.2,3.1-3.2c1.7,0,3.1,1.4,3.1,3.2
		C97.2,126.6,95.8,128.1,94.1,128.1z M94.1,122.6c-1.2,0-2.2,1-2.2,2.3c0,1.3,1,2.3,2.2,2.3c1.2,0,2.2-1,2.2-2.3
		C96.3,123.6,95.3,122.6,94.1,122.6z"/>
	<ellipse class="st4" cx="105.1" cy="124.9" rx="2.7" ry="2.8"/>
	<path class="st6" d="M105.1,128.1c-1.7,0-3.1-1.4-3.1-3.2c0-1.8,1.4-3.2,3.1-3.2s3.1,1.4,3.1,3.2
		C108.3,126.6,106.9,128.1,105.1,128.1z M105.1,122.6c-1.2,0-2.2,1-2.2,2.3c0,1.3,1,2.3,2.2,2.3c1.2,0,2.2-1,2.2-2.3
		C107.3,123.6,106.3,122.6,105.1,122.6z"/>
	<ellipse class="st4" cx="115.7" cy="122.1" rx="2.7" ry="2.8"/>
	<path class="st6" d="M115.7,125.3c-1.7,0-3.1-1.4-3.1-3.2c0-1.8,1.4-3.2,3.1-3.2c1.7,0,3.1,1.4,3.1,3.2
		C118.8,123.9,117.4,125.3,115.7,125.3z M115.7,119.8c-1.2,0-2.2,1-2.2,2.3c0,1.3,1,2.3,2.2,2.3c1.2,0,2.2-1,2.2-2.3
		C117.9,120.8,116.9,119.8,115.7,119.8z"/>
	<rect x="65.7" y="83.7" class="st4" width="1.3" height="11.5"/>
	<path class="st6" d="M67.4,95.6h-2.1V83.3h2.1V95.6z M66.1,94.8h0.6V84h-0.6V94.8z"/>
	<rect x="137.9" y="83.2" class="st4" width="1.3" height="11.5"/>
	<path class="st6" d="M139.6,95.1h-2.1V82.8h2.1V95.1z M138.2,94.3h0.6V83.6h-0.6V94.3z"/>
	<rect x="136.9" y="81.4" class="st4" width="3.1" height="1.5"/>
	<path class="st6" d="M140.3,83.1h-3.6v-1.9h3.6V83.1z M137.1,82.6h2.7v-1.1h-2.7V82.6z"/>
	<rect x="64.8" y="81.8" class="st4" width="3.1" height="1.5"/>
	<path class="st6" d="M68.1,83.5h-3.6v-1.9h3.6V83.5z M65,83.1h2.7V82H65V83.1z"/>
	<path class="st6" d="M137.9,91.6l-10,0.8c0,0-4.2-0.1-1.2-7.7l11.5-1.5C138.2,83.2,138,82.4,137.9,91.6z"/>
	<path class="st6" d="M65.8,92l-8.6-0.1c0,0-2.7-1.5-1.6-7.7l10.1-0.6C65.6,83.6,65.9,82.8,65.8,92z"/>
	<path class="st10" d="M167,145.5c-13.9,3.1-31.2-4.5-31.2-4.5c-14.6-4.3-34.6-4.8-34.6-4.8c-22.8-0.5-29.3,4.8-29.3,4.8
		c-16.8-7-32-2.4-40.4,1.6c14.4,31.6,48.3,36.9,67.8,55.1c0.5,0,0.9-0.1,1.4-0.1C119.7,180.1,151.9,174.5,167,145.5z"/>
	<path class="st4" d="M56.5,149.7c6,3.3,13.2,4.4,20.2,4.4c13,0,25-3.8,26.4-4.3c0.8-0.2,8.6-2.3,17.9-3.4
		c12.4-1.4,21.8-0.3,27.2,3.1c2.9,1.9,7.6,3.1,14,3.8c1.5-2,2.9-4.2,4.2-6.6c-8.8-0.5-12.7-1.9-14.4-3c-6.9-4.4-17.6-5.8-31.8-4.2
		c-10.3,1.2-18.6,3.5-19,3.6l-0.2,0.1c-0.3,0.1-26.2,8.6-41.2,0.4c-9.2-5.1-19.4-6.6-29.8-4.5c0.9,2.3,1.9,4.4,2.9,6.5
		C39.6,144.5,47.9,144.9,56.5,149.7z"/>
	<path class="st4" d="M76.7,172.4c13,0,25-3.8,26.4-4.3c0.8-0.2,8.6-2.3,17.9-3.4c12.1-1.4,21.4-0.4,26.8,2.9c2-1.5,3.9-3.1,5.7-4.8
		c-0.7-0.3-1.2-0.5-1.6-0.8c-6.9-4.4-17.6-5.8-31.8-4.2c-10.3,1.2-18.6,3.5-19,3.6l-0.2,0.1c-0.3,0.1-26.2,8.6-41.2,0.4
		c-6.1-3.4-12.7-5.2-19.5-5.4c2.5,3,5.2,5.7,8.1,8.1c2.7,0.8,5.4,1.9,8,3.3C62.5,171.3,69.8,172.4,76.7,172.4z"/>
	<path class="st4" d="M120.9,183.2c0.6-0.1,1.1-0.1,1.7-0.2c4.2-2.3,8.6-4.7,12.8-7.2c-4.5-0.3-9.6-0.1-15.3,0.5
		c-10.3,1.2-18.6,3.5-19,3.6L101,180c-0.2,0.1-10.6,3.5-22,3.9c3.4,1.9,6.8,3.9,10,5.9c7.5-1.2,13.2-3,14.1-3.3
		C103.9,186.3,111.6,184.2,120.9,183.2z"/>
	<path class="st6" d="M64.6,110.8h-1.4c0-1-2.3-1.8-4.2-2.4c-2.6-0.9-5.1-1.8-5.1-3.7h1.4c0,1,2.3,1.8,4.2,2.4
		C62.1,108,64.6,108.9,64.6,110.8z"/>
	<path class="st6" d="M138,110.8h-1.4c0-1.9,2.5-2.8,5.1-3.7c1.9-0.6,4.2-1.5,4.2-2.4h1.4c0,1.9-2.5,2.8-5.1,3.7
		C140.3,109.1,138,109.9,138,110.8z"/>
	<rect x="50.1" y="93.8" transform="matrix(0.204 -0.979 0.979 0.204 -54.746 127.0706)" class="st6" width="1.4" height="6.9"/>
	<rect x="147.1" y="97" transform="matrix(0.979 -0.204 0.204 0.979 -16.7599 32.7549)" class="st6" width="6.9" height="1.4"/>
	<rect x="97.4" y="52" class="st4" width="5" height="1.5"/>
	<path class="st6" d="M102.7,53.7h-5.5v-2h5.5V53.7z M97.7,53.2h4.5v-1h-4.5V53.2z"/>
	<rect x="96.4" y="64.1" class="st4" width="6.9" height="2.8"/>
	<path class="st6" d="M103.7,67.3H96v-3.6h7.7V67.3z M96.8,66.4h6.1v-1.9h-6.1V66.4z"/>
	<path class="st1" d="M100,200l-0.8-0.8c-7-6.7-15.9-11.6-25.4-16.8c-12.1-6.6-24.6-13.5-34.1-24.8c-5.2-6.1-9-12.9-11.7-20.8
		c-3-8.8-4.5-18.7-4.5-30.2V13.9h1.2c24.7,0,46.6-5.7,75-13.8l0.3-0.1l1.3,0.4c26.5,7.3,49.4,13.5,74,13.5h1.2v92.7
		c0,11.5-1.5,21.4-4.5,30.2c-2.7,7.9-6.5,14.7-11.7,20.8c-9.6,11.3-22.1,18.1-34.1,24.8c-9.4,5.2-18.4,10.1-25.4,16.8L100,200z
		 M25.9,16.4v90.2c0,46.7,24.9,60.4,49.1,73.6c9.2,5.1,18,9.9,25,16.4c7.1-6.5,15.8-11.3,25-16.4c24.1-13.2,49.1-26.9,49.1-73.6
		V16.4c-24.5-0.2-47.2-6.4-73.4-13.6L100,2.6C72.1,10.6,50.3,16.2,25.9,16.4z"/>
</g>
</svg>
