<?xml version="1.0" encoding="utf-8"?>
<!-- Generator: Adobe Illustrator 21.1.0, SVG Export Plug-In . SVG Version: 6.00 Build 0)  -->
<svg version="1.1" id="Layer_1" xmlns="http://www.w3.org/2000/svg" xmlns:xlink="http://www.w3.org/1999/xlink" x="0px" y="0px"
	 viewBox="0 0 200 200" style="enable-background:new 0 0 200 200;" xml:space="preserve">
<style type="text/css">
	.st0{fill:#FFBE00;}
	.st1{fill:#FFFFFF;}
	.st2{fill:#E32118;}
	.st3{fill:#1D3A8D;}
</style>
<g>
	<path id="path16" class="st0" d="M200,100c0,55.2-44.8,100-100,100C44.8,200,0,155.2,0,100C0,44.8,44.8,0,100,0
		C155.2,0,200,44.8,200,100"/>
	<path id="path18" class="st1" d="M79.4,41.1c0-1,0-36.5,0-37.8c-0.8,0.2-1.6,0.4-2.4,0.5c-0.2,0-0.4,0.1-0.6,0.1
		c-0.6,0.1-1.1,0.3-1.7,0.4c-0.4,0.1-0.9,0.2-1.3,0.4c-0.3,0.1-0.5,0.1-0.8,0.2C61.1,8.3,50.4,13.6,41,20.6c0,1,0,19.4,0,20.4
		C42.1,41.1,78.4,41.1,79.4,41.1"/>
	<path id="path20" class="st2" d="M80.5,81.7v37.1l37.1-37.1H80.5"/>
	<path id="path22" class="st2" d="M166.6,26.9c-0.4-0.4-0.8-0.7-1.2-1.1c-0.5-0.4-1-0.8-1.5-1.3c-1.4-1.2-2.9-2.4-4.4-3.5
		c0,1.8,0,15.7,0,18.7l10.1-10.1C168.6,28.7,167.6,27.8,166.6,26.9"/>
	<path id="path24" class="st2" d="M39.9,81.7H2.7C1.6,87.6,1,93.8,1,100.1c0,6.8,0.7,13.5,2,20h36.9V81.7"/>
	<path id="path26" class="st2" d="M41,80.5h38.4V42.2H41V80.5z"/>
	<path id="path28" class="st2" d="M41,121.1v37.1l37.1-37.1H41"/>
	<path id="path30" class="st2" d="M120,42.2v37.1l37.1-37.1H120"/>
	<path id="path32" class="st2" d="M118.9,2.9c-6.2-1.2-12.5-1.8-18.9-1.8c-6.7,0-13.2,0.7-19.5,1.9v38h38.4V2.9"/>
	<path id="path34" class="st2" d="M21.8,160.6c0.1,0.1,0.1,0.2,0.2,0.3c0.7,0.9,1.4,1.7,2.1,2.6c0.7,0.8,1.3,1.6,2,2.3
		c0.3,0.3,0.5,0.6,0.8,0.9c0.9,1,1.8,2,2.8,3l9-9C35.7,160.6,23.6,160.6,21.8,160.6"/>
	<path id="path36" class="st2" d="M39.9,21.4C32.6,27.1,26.1,33.6,20.6,41h19.3V21.4"/>
	<path id="path38" class="st1" d="M39.9,121.1c-1,0-35.3,0-36.6,0c0.7,3.4,1.6,6.7,2.7,10c0.1,0.2,0.1,0.3,0.1,0.5
		c0.4,1.3,0.9,2.6,1.4,3.9c0.1,0.4,0.3,0.8,0.4,1.1c0.3,0.7,0.6,1.4,0.9,2.1c0.4,0.9,0.8,1.8,1.2,2.7c0.3,0.6,0.5,1.1,0.8,1.7
		c0.4,0.9,0.9,1.8,1.3,2.7c0.3,0.5,0.6,1.1,0.9,1.6c0.4,0.8,0.9,1.6,1.4,2.4c0.3,0.5,0.6,1.1,0.9,1.6c0.5,0.9,1.1,1.7,1.6,2.6
		c0.2,0.4,0.5,0.7,0.7,1.1c0.7,1.1,1.5,2.1,2.2,3.1c0.2,0.3,0.4,0.5,0.6,0.8c0.1,0.2,0.3,0.4,0.4,0.5h18.8l0.2-0.2
		C39.9,156.3,39.9,122.1,39.9,121.1"/>
	<path id="path40" class="st1" d="M79.4,81.6c-1,0-37.3,0-38.4,0c0,1.1,0,37.4,0,38.4c1,0,35.1,0,38.2,0l0.2-0.2
		C79.4,116.8,79.4,82.6,79.4,81.6"/>
	<path id="path42" class="st1" d="M118.9,42.1c-1.1,0-37.3,0-38.4,0c0,1,0,37.4,0,38.4c1,0,35.1,0,38.2,0l0.2-0.2
		C118.9,77.3,118.9,43.2,118.9,42.1"/>
	<path id="path44" class="st1" d="M39.9,42.1c-1,0-19.1,0-20.1,0C13.6,50.7,8.7,60.3,5.5,70.6c-0.2,0.7-0.4,1.4-0.6,2
		c0,0.1,0,0.1-0.1,0.2c-0.7,2.5-1.3,5.1-1.9,7.7c1.3,0,35.9,0,36.9,0C39.9,79.5,39.9,43.2,39.9,42.1"/>
	<path id="path46" class="st1" d="M158.4,20.2C158.4,20.1,158.3,20.1,158.4,20.2c-1-0.8-2-1.4-3-2.1c-0.4-0.3-0.9-0.6-1.3-0.9
		c-0.9-0.6-1.8-1.2-2.7-1.7c-0.5-0.3-1.1-0.6-1.6-0.9c-0.9-0.5-1.8-1-2.7-1.5c-0.6-0.3-1.2-0.6-1.7-0.9c-0.6-0.3-1.3-0.7-2-1
		c-0.9-0.4-1.7-0.8-2.6-1.2c-0.5-0.2-1-0.4-1.5-0.7c-1.1-0.5-2.3-0.9-3.4-1.4c-0.3-0.1-0.7-0.3-1-0.4c-4.8-1.8-9.8-3.2-14.9-4.3
		c0,1.3,0,36.9,0,37.9c1,0,35.1,0,38.2,0l0.2-0.2L158.4,20.2"/>
	<path id="path48" class="st3" d="M170.5,30.6c-0.8,0.8-139.1,139.1-139.9,139.9C49.2,188.9,73.8,199,100,199c54.6,0,99-44.4,99-99
		C199,73.9,188.8,49.3,170.5,30.6"/>
	<path id="path54" class="st0" d="M152.3,71.9h-33.4v9.6c0,0,21.6,0,22.6,0c0,1,0,35.2,0,37.4c-5.8-5.1-13.1-8-20.9-8
		c-17.4,0-31.6,14.2-31.6,31.6c0,17.4,14.2,31.6,31.6,31.6c8.5,0,16.6-3.5,22.6-9.6c0,1.8,0,6.5,0,6.5H159v-8.4c0,0-5.2,0-6.1,0
		c0-1.1,0-90.8,0-90.8H152.3z M101.2,142.5c0-10.7,8.7-19.5,19.5-19.5s19.5,8.7,19.5,19.5c0,10.7-8.7,19.5-19.5,19.5
		S101.2,153.2,101.2,142.5"/>
	<path id="path56" class="st1" d="M142.1,72.9c0,0,8.7,0,9.7,0c0,1,0,90.8,0,90.8s5.2,0,6.1,0c0,0.9,0,5.4,0,6.2c-1,0-12.6,0-13.6,0
		c0-0.9,0-8.2,0-8.2l-1,1.1c-5.8,6.5-14.1,10.2-22.7,10.2c-16.8,0-30.5-13.7-30.5-30.5c0-16.8,13.7-30.5,30.5-30.5
		c7.9,0,15.4,3,21.1,8.4l0.9,0.9v-41c0,0-21.6,0-22.6,0c0-0.9,0-6.5,0-7.4C121,72.9,142.1,72.9,142.1,72.9L142.1,72.9z M100.1,142.5
		c0,11.3,9.2,20.6,20.6,20.6c11.3,0,20.6-9.2,20.6-20.6c0-11.3-9.2-20.6-20.6-20.6C109.3,121.9,100.1,131.1,100.1,142.5"/>
</g>
</svg>
