<?xml version="1.0" encoding="utf-8"?>
<!-- Generator: Adobe Illustrator 21.1.0, SVG Export Plug-In . SVG Version: 6.00 Build 0)  -->
<svg version="1.1" id="Layer_1" xmlns="http://www.w3.org/2000/svg" xmlns:xlink="http://www.w3.org/1999/xlink" x="0px" y="0px"
	 viewBox="0 0 200 200" style="enable-background:new 0 0 200 200;" xml:space="preserve">
<style type="text/css">
	.st0{fill:#C6A02F;}
	.st1{fill:#DA2031;}
</style>
<g>
	<polygon class="st0" points="90.6,28.9 100,22.3 109.4,28.9 106,17.9 115.2,11 103.7,10.8 100,0 96.3,10.8 84.8,11 94,17.9 	"/>
	<path class="st1" d="M34.5,92.2c-1.8-0.7-3.9,0.1-4.6,2c-0.7,1.9,0.4,3.8,2.2,4.5c1.9,0.7,3.9-0.2,4.6-2
		C37.4,94.9,36.4,92.9,34.5,92.2"/>
	<path class="st1" d="M42.8,74.5c-1-0.8-1.7-0.3-2.3,0.5l-0.2,0.2l2.3,1.8l0.2-0.2C43.5,76.1,43.8,75.3,42.8,74.5"/>
	<polygon class="st1" points="91.8,50.5 89.8,47.2 88.8,51 	"/>
	<path class="st1" d="M54,61.3l-0.2,0.2l2,2.6l0.3-0.2c0.9-0.7,1.7-1.6,0.8-2.7C56,60.1,54.8,60.7,54,61.3"/>
	<path class="st1" d="M46.4,76.3c-1-0.8-2,0-2.5,0.8l-0.4,0.5l2.4,1.9l0.5-0.6C47,78.1,47.4,77.1,46.4,76.3"/>
	<path class="st1" d="M100,39.4c-44.4,0-80.3,36-80.3,80.3c0,2,0.1,3.9,0.2,5.9h2.3h14.1h1.9c-0.2-1.9-0.3-3.8-0.3-5.7
		c0-34.3,27.8-62.1,62.1-62.1c34.3,0,62.1,27.8,62.1,62.1c0,1.9-0.1,3.8-0.3,5.7h1.9h14.1h2.3c0.1-1.9,0.2-3.9,0.2-5.9
		C180.3,75.3,144.4,39.4,100,39.4 M33.5,115.6l-4.3-0.1l-0.1,4.1l4.3,0.1l0,1.1l-8.9-0.3l0-1.1l3.6,0.1l0.1-4.1l-3.6-0.1l0-1.1
		l8.9,0.3L33.5,115.6z M34.6,107.3l-2.4,0.6l-0.6,3.9l2.1,1.3l-0.2,1.1l-8.6-5.4l9.8-2.7L34.6,107.3z M34.9,105.7l-8.7-2.2l0.3-1.2
		c0.6-2.6,1.8-3.1,3.3-2.7c1.8,0.5,2.2,2,1.8,3.5l-0.1,0.6l3.6,0.9L34.9,105.7z M37.7,97c-0.9,2.3-3.4,3.5-5.9,2.6
		c-2.4-0.9-3.7-3.5-2.8-5.8c0.9-2.3,3.5-3.5,5.9-2.6C37.4,92.1,38.6,94.7,37.7,97 M39.5,92.1l-8-4l2.1-4.1l0.9,0.5l-1.6,3.2l2.2,1.1
		l1.5-3.1l0.9,0.5L36,89.2l3,1.5l1.6-3.2l0.9,0.5L39.5,92.1z M42.1,87.1l-7.7-4.6l0.5-0.9l6.8,4.1l1.3-2.2l0.9,0.5L42.1,87.1z
		 M47.2,79.4L46,81l-7.1-5.5l0.6-0.8c1-1.3,2.3-2.2,3.9-1c0.5,0.4,0.9,1.1,0.8,1.8l0,0c0.8-0.7,2-0.6,2.8,0
		C48.5,76.6,48.1,78.2,47.2,79.4 M49.6,76.4l-6.6-6.1l3.1-3.4l0.7,0.7l-2.4,2.6l1.8,1.7l2.3-2.5l0.7,0.7l-2.3,2.5l2.5,2.3l2.4-2.6
		l0.7,0.7L49.6,76.4z M53.5,72.2l-6-6.6l3.4-3.1l0.7,0.8L49,65.7l1.7,1.8l2.5-2.3l0.7,0.8l-2.5,2.3l2.3,2.5l2.6-2.4l0.7,0.8
		L53.5,72.2z M61,66l-4.3-1.5l-0.4,0.3l2.3,3l-0.8,0.7l-5.4-7.1l1-0.8c0.6-0.5,1.3-1,2-1c0.8-0.1,1.7,0.3,2.2,1
		c0.8,1,0.8,2.4-0.1,3.2l4.5,1.4L61,66z M60.5,62.5L60,61.8l2-1.3l0.5,0.8L60.5,62.5z M66.9,62.4c-1.2,0.7-2.6,0.3-3.5-0.9l0.8-0.7
		c0.5,0.9,1.5,1.1,2.3,0.6c0.8-0.5,1-1.5,0.5-2.3c-0.5-0.8-1.3-0.8-2.1-0.7l-0.6,0.1c-1.1,0.1-2.1,0-2.7-1c-0.7-1.3-0.1-2.6,1-3.2
		c0.8-0.5,1.7-0.4,2.6,0.1l-0.5,0.9c-0.6-0.3-1-0.4-1.6,0c-0.6,0.3-1,1.1-0.6,1.8c0.3,0.6,1.1,0.6,1.7,0.5l0.7-0.1
		c1.3-0.2,2.4,0,3.2,1.3C68.7,60,68.3,61.6,66.9,62.4 M74.5,58.4l-1.8-3.9l-3.7,1.7l1.8,3.9l-1,0.4l-3.7-8.1l1-0.4l1.5,3.3l3.7-1.7
		l-1.5-3.3l1-0.4l3.7,8.1L74.5,58.4z M76.7,57.5l-2.9-8.4l4.3-1.5l0.3,1l-3.3,1.1l0.8,2.4l3.2-1.1l0.3,1L76.3,53l1.1,3.2l3.3-1.1
		l0.3,1L76.7,57.5z M84.8,55.6L79,47.3l1.1-0.3l4,5.8l0.9-7l1.1-0.3L84.8,55.6z M93.6,53.6l-1.3-2.1L88.5,52l-0.6,2.4l-1.1,0.2
		l2.7-9.8l5.3,8.7L93.6,53.6z M131.1,51.3l1.2,0.6l-2,4.4l-1.4-0.1L131.1,51.3z M111.2,53.4c-0.7,0.2-1.5,0.3-2.3,0.5
		c-0.8,0.1-1.7,0.2-2.6,0.3l0.2-1c0.3,0,0.6-0.1,1-0.1c0.5-0.1,1-0.2,1.7-0.3l0.1,0l-1-7.8l1.5,0.2l0.7,7.3l0.2,0
		c0.7-0.1,1.2-0.3,1.6-0.6c0.5-0.3,0.9-0.6,1.1-1c0.2-0.4,0.4-1.1,0.6-2l0.5-2.9l1.5,0.2l-0.3,2.1c-0.3,1.6-0.8,2.8-1.5,3.6
		C113.4,52.6,112.4,53.1,111.2,53.4 M123.7,51.3l-1.3,4.4l1,0.3l-0.3,1l-7.6-2.2l0.3-1l5.2,1.5l1.3-4.4c0.4-1.2-0.1-2-1.2-2.3
		l-3.2-1l0.3-0.9l3.5,1c0.5,0.2,0.9,0.3,1.3,0.6c0.3,0.2,0.6,0.5,0.7,0.7c0.2,0.3,0.2,0.6,0.3,1C123.9,50.4,123.8,50.8,123.7,51.3
		 M133.2,58.4c-0.8,0.5-1.8,0.8-3,0.8l-0.2,0c-1.4,0-3.3-0.5-5.7-1.5l2.9-8.2l1.3,0.6l-2.6,7.2l0.1,0.1c1.6,0.6,2.9,0.8,3.9,0.9
		c1,0,1.8-0.2,2.4-0.6c0.5-0.4,1.1-1.1,1.5-2.2l1.1-2.4l1.3,0.6l-1,2.1C134.7,57,134,57.9,133.2,58.4 M138.6,60.2l-2.7-1.6l0.5-0.8
		l2.7,1.6L138.6,60.2z M140.9,66.9l3.2-4.3c0.8-1.1,0.7-2.1-0.4-2.9l-2.5-1.8l0.6-0.8l2.6,1.9c0.9,0.6,1.4,1.3,1.6,1.9
		c0.2,0.7-0.1,1.6-0.7,2.4l-3.2,4.4L140.9,66.9z M149.8,70.2c-0.1,1.1-0.2,2.5-0.4,4.2l-1.2-1.1l0.7-6.6l-0.1,0
		c-0.9-0.3-1.6-0.1-2,0.3l-2.4,2.5l-1-1l2-2.1c0.4-0.5,0.9-0.8,1.3-0.8c0.5-0.1,1.2,0,2.2,0.3l0.2,0l0.1-3.6l1.2,1.1
		c0,1.3-0.2,3.1-0.3,5.6l0,0.1l0.1,0c0.5,0.2,1,0.2,1.3,0.1c0.3-0.1,0.6-0.3,1-0.6l1.7-1.8l1,1l-1.5,1.6c-0.4,0.4-0.8,0.6-1.4,0.7
		c-0.5,0.1-1.3,0-2.2-0.3l-0.2-0.1L149.8,70.2z M154.9,81.3l-5-6.2l0.8-0.6l3.4,4.2l3.6-2.9c0.5-0.4,0.8-0.8,0.8-1.2
		c0.1-0.4-0.1-0.9-0.5-1.4l-2.1-2.6l0.8-0.6l2.3,2.8c0.3,0.4,0.6,0.8,0.7,1.2c0.1,0.4,0.2,0.7,0.2,1c0,0.3-0.1,0.6-0.3,0.9
		c-0.2,0.3-0.5,0.6-0.9,0.9l-3.6,2.9l0.7,0.8L154.9,81.3z M157.7,85.8l0.9-0.5c0.8,0.8,1.6,1.3,2.5,1.6c0.8,0.2,1.7,0.1,2.6-0.4
		l2.4-1.3l-2.7-4.9l3.5-2l0.7,1.2l-2.6,1.5l2.7,4.9l-2.5,1.4c-1.3,0.7-2.5,0.9-3.6,0.7C160,87.8,158.8,87,157.7,85.8 M162.9,95
		c-0.5-0.5-1.1-1.1-1.6-1.7c-0.5-0.6-1.1-1.3-1.6-2.1l1-0.4c0.2,0.2,0.4,0.5,0.6,0.8c0.3,0.3,0.6,0.7,0.9,1.1l0.2,0.3l6.2-4.8
		l0.6,1.4l-5.9,4.4l0.1,0.1c0.5,0.5,0.9,0.9,1.3,1.1c0.5,0.3,1,0.4,1.5,0.4h0c0.5,0,1.1-0.2,2-0.5L171,94l0.5,1.4l-2,0.8
		c-1.5,0.6-2.8,0.8-3.9,0.5C164.8,96.5,163.9,95.9,162.9,95 M164.1,100.3l8.1-2.4l0.4,1.4l-8.1,2.4L164.1,100.3z M165.1,103.5l1-0.2
		l0.6,3.2c0.4,1.9,1.6,2.7,3.5,2.3l0.4-0.1c1.2-0.2,2-0.7,2.5-1.3c0.3-0.5,0.4-1.2,0.3-2c-0.1-0.7-0.4-1.2-0.7-1.6
		c-0.4-0.5-1.1-0.6-2-0.4c-0.4,0.1-0.7,0.2-1,0.3l-0.8-1.1c0.3-0.2,0.8-0.4,1.5-0.5c0.9-0.2,1.8,0,2.5,0.6c0.7,0.6,1.2,1.5,1.5,2.7
		c0.2,1.2,0.1,2.2-0.3,3c-0.5,0.9-1.5,1.5-3,1.8l-0.3,0.1c-1.3,0.3-2.3,0.1-3.2-0.6c-0.9-0.6-1.4-1.6-1.7-2.9L165.1,103.5z
		 M166.8,112.3l4.5-0.3l0.5,1.4l-4.9,0.3L166.8,112.3z M173.1,119.6l-5.9,0.3l-0.1-1.4l5.7-0.3c1.2-0.1,1.7-0.7,1.7-2l-0.3-4.7
		l1-0.1l0.3,5C175.6,118.5,174.8,119.5,173.1,119.6"/>
	<path class="st1" d="M29.6,100.6c-1.4-0.3-1.8,0.9-2.1,1.9l-0.1,0.3l3.1,0.8l0.1-0.3C30.9,102.2,31,101,29.6,100.6"/>
	<polygon class="st1" points="30.7,111.2 31.1,108.2 27.3,109.2 	"/>
	<path class="st1" d="M66.3,152.8c2.9,4.9,7.3,10.4,9,12.7c3.3,0.2,12.9,0.7,19.2,0.7c5.9,0,13.7-1.1,16.1-1.5c1.1-2.5,4-8.8,6.9-14
		c2.5-4.4,5.5-9,6.9-11c-1.2-2-4.1-6.7-6.5-10.6H63.7c-2.2,4.3-4,8.2-4.6,9.6C60.2,141.2,63.2,147.7,66.3,152.8"/>
	<path class="st1" d="M36.7,136.5c1.8,0.2,5.8,0.8,10.5,1c4.3,0.3,8.6,0.1,10.5,0c0.7-1.5,2.2-4.8,4.1-8.5H33.2
		C34.5,132.2,35.9,134.9,36.7,136.5"/>
	<path class="st1" d="M125.8,138.6c2-0.2,7.8-0.8,13.9-1.1c3.6-0.2,9.6-0.1,11.9,0c0.9-1.7,2.6-5,4.3-8.5h-36
		C122.1,132.6,124.6,136.7,125.8,138.6"/>
	<path class="st1" d="M122.4,188.2c2.9-3.9,4-6.7,4.4-7.7c-1.5-0.8-4.8-2.8-8.1-5.6c-3.5-2.9-6.7-6.9-7.9-8.5
		c-2.6,0.4-10.2,1.5-16.1,1.5c-6.2,0-15.4-0.5-19-0.7c-1.2,1.6-4,5.1-6,7.4c-2.2,2.5-4.2,4.4-5.2,5.4c1.6,1.8,5.2,5.8,7.6,8l0.6,0.6
		c3,2.8,7.8,6.5,12.7,10c4.8,0.9,9.7,1.4,14.7,1.4c4.1,0,8.1-0.3,12-0.9C114.5,196.8,119.5,192,122.4,188.2"/>
	<path class="st1" d="M37.9,161.5c-0.6-2-2.1-6.9-2.7-12.5c-0.5-5-0.1-9,0.3-11.1c-0.8-1.6-2.6-4.9-4.2-8.9h-11
		c1.5,11.7,5.4,22.6,11.3,32.2c1.5,0.1,3.9,0.3,4.8,0.3C36.9,161.6,37.4,161.6,37.9,161.5"/>
	<path class="st1" d="M157.9,129c-2.1,4.3-4.3,8.5-5,10c0.3,2.6,1,8.2,1.2,12.4c0.2,4.4-0.4,10-0.6,12.3c1.2,0.6,3.4,1.8,4.9,2.5
		c1.9,1,4.8,1.8,5.5,2c8.5-11.1,14.2-24.6,16-39.2H157.9z"/>
	<path class="st1" d="M152.6,165.3c-1.6,1.5-6.1,5.7-11.2,9c-4.8,3.1-10.6,5.4-12.9,6.3l0,0c0,0.1-1,3.4-4.8,8.7
		c-2.7,3.6-6.4,7.3-8.6,9.4c19-3.7,35.7-14.2,47.4-28.9c-1.2-0.3-3.5-1-5.2-1.9C156,167.1,153.8,165.9,152.6,165.3"/>
	<path class="st1" d="M70.8,189.3c-3.2-2.9-8.3-8.8-8.5-9l0.2-0.2c-2.4-1.3-8.4-4.6-13.2-8c-5-3.7-9-7.4-10.4-8.8l-0.2,0
		c0,0-1.3,0.1-2.4,0.1c-0.8,0-2.5-0.1-3.6-0.2c11.1,17.2,28.5,29.9,48.9,34.8c-4.4-3.2-7.2-5.2-10.2-7.9L70.8,189.3z"/>
	<polygon class="st1" points="67.4,107.1 67.4,108.8 69.9,108.8 71.2,102.8 67.9,102.8 67.9,100.6 66.3,100.6 66.3,104.4 
		68.8,104.4 68.4,107.1 	"/>
	<polygon class="st1" points="77.2,102.8 74.8,102.8 74.8,104.4 75.2,104.4 75.2,106.2 73.7,102.8 71.5,102.8 71.5,104.4 
		72.4,104.4 73.5,107.1 71.5,107.1 71.5,108.8 77.2,108.8 	"/>
	<polygon class="st1" points="92.1,102.8 87.3,102.8 87.3,105.7 89.2,105.7 89.2,104.4 90.2,104.4 90.2,107.1 87.3,107.1 
		87.3,108.8 92.1,108.8 	"/>
	<rect x="92.9" y="105.7" class="st1" width="1.9" height="3.1"/>
	<polygon class="st1" points="97.3,108.8 97.3,102.8 92.9,102.8 92.9,104.4 95.5,104.4 95.5,108.8 	"/>
	<path class="st1" d="M99.9,81.8c-2-13.2-19-17.2-28.7-6.9l-2.9-0.4c-4.5-1.9-3.3,4.1,0.3,1.2l10.7,3.1l1.8,7.1l-4.5,12.6l-7.3-7.3
		c-1.4-1.6-4.3,0.9-2.4,2.6l15.2,11.9l-2.6,3.1l2.9,2.7l4.3-4.8l0-4.8C95.6,98.6,101.2,92.7,99.9,81.8 M86.3,100.7l-3.4,4.1
		l-5.5-5.5l5.9-9.6l4.3,10.5L86.3,100.7z M88.5,99.6l-2.9-13.9l-1.7-0.2l1.4-1.5l1.6-3.7l7.9-0.7l-6.3-5.4c0.2-1.6-1.5-1.9-2.2-1.2
		c-0.8,0.7-0.2,2.5,1.2,2l2.6,3l-5.4-0.8l-0.8-1.4c0.4-0.6,0.2-3.4-0.2-3.3c-1-0.5-2.1-0.6-3.2-0.6c-0.4,0.3-0.6,0.7-0.6,1.2
		l0.6,0.1l0.2,2.3c0.4,0.3,0.8,0.4,1.1,0.3l0.4,1.1l-9.5-1.7c7.6-7,20.7-5,23.6,6.6C98.3,91.4,93.9,97.7,88.5,99.6"/>
	<polygon class="st1" points="80.9,99.2 81.5,99.2 81.5,102.8 83.4,102.8 83.4,97.6 80.9,97.6 	"/>
	<polygon class="st1" points="127.2,78.6 124.4,81.4 124.4,125.6 125.7,125.6 125.7,81.4 128.5,78.6 128.5,71.6 127.2,70.8 	"/>
	<polygon class="st1" points="109.5,70.9 109.5,78.7 112.3,81.4 112.3,125.6 113.7,125.6 113.7,80.6 110.9,78.1 110.9,71.5 	"/>
	<path class="st1" d="M111.5,77L111.5,77l3.9,3.4l3.9-3.4h0v-8.3c-2.5-0.9-5.1-1.7-7.7-2.3L111.5,77z"/>
	<path class="st1" d="M125,67.1c-0.6-0.3-1.3-0.6-2-0.9c-0.4-0.2-0.7-0.3-1.1-0.4c-0.2-0.1-0.4-0.2-0.7-0.3v0
		c-3.1-1.2-6.4-2.2-9.7-2.9v2.5c3.4,0.7,6.6,1.8,9.7,3v9.3l-4.3,3.8v44.2h6.3l0-44.2l2.8-2.8v-11c0,0,0,0,0,0v0
		C125.7,67.4,125.3,67.3,125,67.1"/>
	<rect x="101.5" y="115.6" class="st1" width="3" height="10"/>
	<rect x="133.2" y="115.6" class="st1" width="3" height="10"/>
	<rect x="127.8" y="115.6" class="st1" width="3" height="10"/>
	<rect x="138.6" y="115.6" class="st1" width="3" height="10"/>
	<rect x="107" y="115.6" class="st1" width="3" height="10"/>
	<rect x="149.5" y="115.6" class="st1" width="3" height="10"/>
	<rect x="96.1" y="115.6" class="st1" width="3" height="10"/>
	<rect x="154.9" y="115.6" class="st1" width="3" height="10"/>
	<rect x="144.1" y="115.6" class="st1" width="3" height="10"/>
	<rect x="58.2" y="115.6" class="st1" width="3" height="10"/>
	<rect x="47.3" y="115.6" class="st1" width="3" height="10"/>
	<rect x="52.7" y="115.6" class="st1" width="3" height="10"/>
	<rect x="63.6" y="115.6" class="st1" width="3" height="10"/>
	<rect x="41.9" y="115.6" class="st1" width="3" height="10"/>
	<rect x="79.9" y="115.6" class="st1" width="3" height="10"/>
	<rect x="69" y="115.6" class="st1" width="3" height="10"/>
	<rect x="85.3" y="115.6" class="st1" width="3" height="10"/>
	<rect x="90.7" y="115.6" class="st1" width="3" height="10"/>
	<rect x="74.4" y="115.6" class="st1" width="3" height="10"/>
</g>
</svg>
