<?xml version="1.0" encoding="utf-8"?>
<!-- Generator: Adobe Illustrator 21.1.0, SVG Export Plug-In . SVG Version: 6.00 Build 0)  -->
<svg version="1.1" id="Layer_1" xmlns="http://www.w3.org/2000/svg" xmlns:xlink="http://www.w3.org/1999/xlink" x="0px" y="0px"
	 viewBox="0 0 200 200" style="enable-background:new 0 0 200 200;" xml:space="preserve">
<style type="text/css">
	.st0{fill:#3E4B99;}
	.st1{fill:#FFFFFF;}
	.st2{fill:#FFED00;}
</style>
<g>
	<path class="st0" d="M175.2,126.8c0.9-8.3,2.8-17.7,0.8-24.7c-2-7-8.4-10.7-8.4-10.7s3-6.2,0.7-12.8c-2.4-6.6-9.1-12.9-14.5-18.8
		c-5.3-6-5.1-14.3-5.1-14.3s-7.6,3-14.9,0c-7.3-3-15.4-7.4-22.3-7.4c-6.5,0-11,4.4-11.5,5c-0.6-0.6-5.1-5-11.5-5
		c-6.9,0-15,4.3-22.3,7.4c-7.3,3-14.9,0-14.9,0s0.2,8.3-5.1,14.3C40.8,65.8,34,72,31.6,78.6c-2.4,6.6,0.7,12.8,0.7,12.8
		s-6.4,3.7-8.4,10.7c-2,7,0,16.4,0.8,24.7c0.9,8.3-4.3,15.1-4.3,15.1s8.2,2.2,12.5,9.2c4.3,7.1,8.5,15.7,14.3,20
		c5.8,4.3,12.7,3,12.7,3s0.9,6.5,6.4,10.5c5.5,3.9,14.3,5,21.8,6.8c7.5,1.7,11.9,8.4,11.9,8.4s4.4-6.7,11.9-8.4
		c7.5-1.7,16.3-2.9,21.8-6.8c5.5-3.9,6.4-10.5,6.4-10.5s6.9,1.3,12.7-3c5.8-4.3,10-12.9,14.3-20c4.3-7.1,12.5-9.2,12.5-9.2
		S174.4,135.1,175.2,126.8z"/>
	<path class="st1" d="M171.5,135.1c-1.2-2.9-1.5-6.1-1.4-9.3h0c0.4-11.2,5.6-23.7-6.4-32.1c5.7-18.4-14.2-23.8-17.2-37.2
		c-0.5-2.3-0.4-6.5-0.4-6.5c-16.2,6.4-21-5.9-35.5-5.9c-3.9,0-7.6,1.6-10.5,4c0,0,0,0-0.1,0c0,0,0,0-0.1,0c-2.9-2.4-6.7-4-10.5-4
		C75,44,70.2,56.3,54,50c0,0,0.1,4.2-0.4,6.5c-2.9,13.4-22.9,18.9-17.2,37.2c-12.1,8.4-6.9,20.9-6.4,32.1l0,0
		c0.1,3.3-0.2,6.4-1.4,9.3c-0.9,2.1-2.1,3.8-3.5,5.6c0,0,4,1.1,6.2,2.3c12.1,6.7,12.5,29,31.2,27.6c4.9,17.2,24.2,10.6,33.7,19.6
		c1.6,1.5,2.7,3.2,3.9,5c1.2-1.8,2.3-3.5,3.9-5c9.5-8.9,28.8-2.3,33.7-19.6c18.7,1.3,19.1-21,31.2-27.6c2.1-1.2,6.2-2.3,6.2-2.3
		C173.6,138.9,172.4,137.2,171.5,135.1z M165.2,139.4c-11.8,6.5-12.7,25.5-26.4,26.4c-1.9,0.1-4.9-0.4-4.9-0.4
		c-0.6,3.9-1.8,7.4-5.3,9.9c-9.1,6.5-20.3,2.4-28.7,12.1c0,0,0,0,0,0c0,0,0,0,0,0c-8.5-9.8-19.6-5.7-28.7-12.1
		c-3.5-2.5-4.7-5.9-5.3-9.9c0,0-3,0.6-4.9,0.4c-13.7-1-14.6-20-26.4-26.4c-0.9-0.5-1.7-0.9-2.4-1.2c2.5-4.4,3-8.6,2.9-12.6h0
		c-0.3-7-2.8-13.8-0.7-21.1c1.2-4.2,4.1-6.8,7.7-8.8c0,0-1.1-2.7-1.5-4.6c-2.5-14.8,16-18.8,17.7-34.7c12.9,3.2,19.9-7,31.3-7
		c4.3,0,7.4,2.2,10.2,5.1c0,0,0,0,0.1-0.1c0,0,0.1,0.1,0.1,0.1c2.8-3,5.9-5.1,10.2-5.1c11.4,0,18.4,10.2,31.3,7
		c1.7,15.9,20.2,19.9,17.7,34.7c-0.3,2-1.5,4.6-1.5,4.6c3.6,1.9,6.5,4.5,7.7,8.8c2.1,7.4-0.4,14.1-0.7,21.1h0
		c-0.2,4,0.3,8.2,2.9,12.6C167,138.6,166.1,138.9,165.2,139.4z"/>
	<path class="st1" d="M86.5,87.9c0-2.2,1.9-4,4.2-4c2.3,0,4.2,1.8,4.2,4c0,2.2-1.9,4-4.2,4C88.4,91.9,86.5,90.1,86.5,87.9"/>
	<path class="st1" d="M57.9,98.7c2.6-8.2,7.4-15.5,13.7-20.9c4.9,1.4,9.1,3.6,12.1,6c-0.7,1.1-1.3,2.4-1.4,3.8
		C75.1,88,66.3,91.8,57.9,98.7"/>
	<path class="st1" d="M72.8,147.5c-10.3-8.2-16.9-21-16.9-35.3c0-2.9,0.3-5.8,0.8-8.6c9.1-8.2,18.6-13.1,26.2-13.6
		c0.4,1.4,1.3,2.8,2.4,3.8c-7.3,5.9-12.9,19-13.9,34.6C70.8,135.3,71.5,141.8,72.8,147.5"/>
	<path class="st1" d="M75.4,149.5c-1.4-6-2-12.9-1.5-20.3c1-15.7,6.4-28.9,13.4-34.2c1.1,0.5,2.2,0.7,3.5,0.7c1.7,0,3.4-0.6,4.7-1.4
		c7.6,5.1,13.3,18.7,13.8,34.9c0.4,10.8-1.8,20.6-5.3,27.6c-1.3,0.1-2.7,0.2-4,0.2C90.8,157,82.5,154.4,75.4,149.5"/>
	<path class="st1" d="M97.3,92.7c8.2,5.6,14.3,19.4,14.9,35.8c0.4,10.7-1.7,20.8-5.4,28c20.7-3.3,36.5-21.2,37.1-43
		c-3.7-4.5-8.5-8.9-14.1-12.8c-11-7.6-22.6-11.4-30.9-10.9C98.6,90.9,98,91.9,97.3,92.7"/>
	<path class="st1" d="M144.1,110c-3.6-4.3-8.1-8.4-13.3-12c-11.1-7.7-22.9-11.4-31.7-10.7c-0.1-1-0.4-2-0.9-2.9
		c5.9-4.8,16.5-7.8,28.8-7.7C136.9,84.5,143.5,96.5,144.1,110"/>
	<path class="st1" d="M123,74c-11,0.5-20.7,3.6-26.4,8.4c-1.1-1.1-2.4-1.8-3.9-2.2c2.1-4.2,4.9-8.6,8.4-12.8
		C109.2,67.6,116.6,69.9,123,74"/>
	<path class="st1" d="M97.5,67.5c-3.2,4.1-5.9,8.5-7.8,12.6c-1.6,0.2-3.2,0.7-4.4,1.7c-2.8-2.4-6.6-4.5-11.1-6
		C80.9,70.9,88.9,68,97.5,67.5"/>
	<path class="st1" d="M86.2,178.2V163H85c-0.9,0.9-1.5,1.4-2.9,1.9v1.4h2v11.9H86.2"/>
	<path class="st1" d="M93.7,165.8c0-0.6,0.6-1,0.9-1c0.4,0,0.8,0.3,0.8,0.8v3.8c0,0.5-0.6,0.9-1,0.9c-0.7,0-0.7-0.9-0.7-1.2V165.8
		 M97.7,175.4v-9.2c0-1.8-0.7-3.6-2.9-3.6c-2.3,0-3.1,1.6-3.1,3.6v3.3c0,1.2,0.2,2.9,2.2,2.9c0.6,0,1.5-0.6,1.7-0.7v2.8
		c0,1.2,0,1.8-0.9,1.8c-0.7,0-0.7-0.6-0.7-2l-2.2,0v1.2c0,1.5,0.9,3.1,3.1,3.1C97,178.7,97.7,177,97.7,175.4z"/>
	<path class="st1" d="M104,166c0-0.6,0.1-1.3,0.8-1.3c0.7,0,0.8,0.7,0.8,1.3v9.2c0,0.8-0.1,1.4-0.8,1.4c-0.8,0-0.8-0.7-0.8-1.4V166
		 M107.8,175.1V166c0-0.8,0-3.4-3-3.4c-3,0-3,2.6-3,3.4v9.2c0,1.1,0,3.6,3,3.6C107.8,178.7,107.8,176.2,107.8,175.1z"/>
	<polyline class="st1" points="115.3,178.2 118,163 112,163 112,165.2 115.3,165.2 113,178.2 115.3,178.2 	"/>
	<path class="st0" d="M96.1,123.2V138c0,2.1-0.4,3.3-2,3.3c-0.7,0-1.3-0.2-2-0.5l-0.6,6.8c1.7,0.7,3.5,1.1,5.2,1.1
		c6.2,0,8.5-3.1,8.5-9.5v-16h2.9v-6.6H93.2v6.6H96.1"/>
	<polyline class="st0" points="59.9,126.5 72.3,133.8 72.8,127.7 70.6,126.4 71,121.4 77.3,125.2 76.9,130.1 74.7,128.8 74.2,134.9 
		86.5,142.2 87.1,136.1 84.9,134.8 86.2,119 88.4,120.3 88.9,114.3 76.5,107 76,113 78.2,114.3 77.8,119 71.5,115.3 71.9,110.6 
		74.1,111.9 74.7,105.9 62.3,98.6 61.8,104.6 64,105.9 62.6,121.7 60.4,120.4 59.9,126.5 	"/>
	<polyline class="st0" points="113,140.4 124.7,132.9 124.7,127.3 122.6,128.6 122.6,121.5 122.9,121.3 128,125.1 126.3,126.3 
		126.3,131.9 138.6,124.1 138.6,118.4 137,119.5 130.1,115.5 136.2,105.3 138,104.1 138,98.6 126.4,106 126.4,111.6 129,109.9 
		122.9,120.2 122.6,120.4 122.6,114 124.7,112.6 124.7,107.1 113,114.5 113,120.1 115.1,118.7 115.1,133.4 113,134.7 113,140.4 	"/>
	<path class="st2" d="M83.3,13.3h14L86,21.8l4.4,13.4l-11.2-8.2L68,35.2l4.4-13.4L61,13.3h13.9l4.2-13L83.3,13.3z"/>
	<path class="st2" d="M124.9,13.3h14l-11.2,8.4l4.4,13.4l-11.2-8.2l-11.2,8.2l4.4-13.4l-11.3-8.4h13.9l4.2-13L124.9,13.3z"/>
</g>
</svg>
