<?xml version="1.0" encoding="utf-8"?>
<!-- Generator: Adobe Illustrator 21.1.0, SVG Export Plug-In . SVG Version: 6.00 Build 0)  -->
<svg version="1.1" id="Layer_1" xmlns="http://www.w3.org/2000/svg" xmlns:xlink="http://www.w3.org/1999/xlink" x="0px" y="0px"
	 viewBox="0 0 200 200" style="enable-background:new 0 0 200 200;" xml:space="preserve">
<style type="text/css">
	.st0{fill:#DDBE80;}
	.st1{fill:#FFFFFF;}
	.st2{fill:#38A1CE;}
	.st3{fill:#E5F1FB;}
	.st4{fill:#40403D;}
	.st5{fill:#C9B27E;}
</style>
<g>
	<g id="g20">
		<path id="path22" class="st0" d="M48,0c34.2,16.5,69.7,16.5,104,0l25.2,28.6c-3.6,6-6.7,12-8.7,18.7c-5.9,19.2-2.3,35.9,3.8,54.6
			c3,9.2,6.3,18.8,5.2,28.6c-1.8,16.1-16,26.6-29,34.2c-7.2,4.2-14.8,7.7-22.5,11c-15.1,6.5-20.2,9.6-26.1,24.2
			c-5.8-14.6-10.9-17.8-26.1-24.2c-7.7-3.3-15.3-6.8-22.5-11c-13-7.5-27.2-18.1-29-34.2c-1.1-9.8,2.2-19.4,5.2-28.6
			c6.1-18.7,9.8-35.5,3.8-54.6c-2.1-6.7-5.1-12.8-8.7-18.7L48,0L48,0z"/>
	</g>
	<g id="g24">
		<path id="path26" class="st1" d="M49.4,156.8c1.7,1,3.3,2,4.9,2.9c7,4.1,14.4,7.5,21.9,10.7c9.1,3.9,18.5,7.9,23.8,16.1
			c5.3-8.2,14.7-12.2,23.8-16.1c7.5-3.2,14.9-6.6,21.9-10.7c11.2-6.5,24.6-15.8,26.1-29.8c1-8.9-2.2-17.9-5-26.2
			c-6.5-19.9-10.2-37.7-3.9-58.1c0.3-0.9,0.6-1.7,0.8-2.6L49.4,156.8L49.4,156.8z"/>
	</g>
	<g id="g28">
		<path id="path30" class="st2" d="M28,129.3c0.9,10.5,8.5,18.3,16.5,24.2L169.9,29L150.8,7.3L28,129.3L28,129.3z"/>
	</g>
	<g id="g32">
		<path id="path34" class="st1" d="M49.4,7.1L29.8,29.2c3,5.3,5.4,10.8,7.1,16.4c6.3,20.4,2.7,38.2-3.9,58.1
			c-1.8,5.5-3.8,11.3-4.7,17.2L137.9,12C108.9,21.6,77.5,20,49.4,7.1"/>
	</g>
	<g id="g36">
		<path id="path38" class="st0" d="M96.5,23.7h-5.3l-5.7,11.1V23.7h-4.6v6.6v16.8h4.6V37l5.1,10.1h5.7L90,35.6L96.5,23.7z"/>
	</g>
	<g id="g40">
		<path id="path42" class="st0" d="M77.6,23.7h-4.8v13l-7.1-13h-4.2v6.6v16.8h4.7V34.2l7.3,12.8h4.2v-6.5L77.6,23.7L77.6,23.7z"/>
	</g>
	<g id="g44">
		<path id="path46" class="st0" d="M58.3,23.7h-4.8v9h-4.9v-9H44v6.6v16.8h4.6v-8.8h4.9v8.8h4.8v-6.5L58.3,23.7L58.3,23.7z"/>
	</g>
	<g id="g48">
		<path id="path50" class="st0" d="M142.2,30.7l2.9,7.4l4.2-4.2L142.2,30.7z M142.5,52.1L137,34.3l-2.1-7.1l4.2-4.1l17.2,6.3
			l6.8,2.2l-5.8,5.8l-3.4-1.3l-7,6.8l1.1,3.6L142.5,52.1z"/>
	</g>
	<g id="g52">
		<path id="path54" class="st0" d="M120.4,56.9l-1.2-14.1L125,37l0.9,15.5l14.5,1.5l-6.2,6.2L122,58.6l6.7,7.1l-5.1,5.1l-11.3-12
			l-4.4-4.8L113,49L120.4,56.9L120.4,56.9z"/>
	</g>
	<g id="g56">
		<path id="path58" class="st0" d="M105.2,89L94,77l-4.5-4.8l11.5-11.3l3.5,3.7L98,70.8l2.6,2.8l6.4-6.3l3.5,3.7l-6.4,6.2l2.8,2.9
			l6.3-6.2l3.5,3.6L105.2,89L105.2,89z"/>
	</g>
	<g id="g60">
		<path id="path62" class="st0" d="M87,99.6c0.4,0,0.9-0.3,1.4-0.7c0.6-0.7,1-1.3,0.8-1.9c-0.2-0.6-0.6-1.2-1.1-1.7L77.6,84l5.3-5.2
			l9.3,9.8v0.1c1,1,1.9,2.1,2.4,2.9c0.6,0.8,0.8,1.8,1,2.8c0.1,0.8,0.1,1.7-0.1,2.6c-0.2,0.8-0.5,1.7-1.1,2.6
			c-0.5,0.7-1,1.6-1.8,2.3c-0.2,0.2-0.4,0.4-0.5,0.5l-0.2,0.2c-2.2,2.2-4.4,3.5-6.5,3.6h-0.4c-1.8,0-3.6-0.8-5.3-2.5l5.1-5.1
			c0.6,0.6,1.3,0.9,1.8,1L87,99.6L87,99.6z"/>
	</g>
	<g id="g64">
		<path id="path66" class="st0" d="M74.4,119.5l-11.3-12l-4.4-4.8l5.2-5.1l11.3,12.1l4.4,4.6L74.4,119.5L74.4,119.5z"/>
	</g>
	<g id="g68">
		<path id="path70" class="st0" d="M50.9,119.2c-0.6,0.1-1.2,0.3-1.9,0.8c-0.6,0.5-1.3,1.1-2,1.7l-1.1,1.1l3.8,4.1l0.7-0.6
			c0.7-0.9,1.5-1.7,1.9-2.3c0.6-0.6,0.8-1.3,0.9-2c0.1-0.6-0.1-1.3-0.6-1.9C52.2,119.4,51.5,119.2,50.9,119.2 M53,140.7l-11.3-12
			l-4.4-4.8l6.9-6.9c0.8-0.8,1.7-1.5,2.2-2c0.6-0.6,1.3-1.1,2-1.4c0.6-0.4,1.4-0.7,2.1-0.9c0.8-0.3,1.8-0.5,2.5-0.5
			c0.6,0,1.5,0.2,2,0.4c0.7,0.3,1.4,0.6,1.9,1c0.4,0.4,0.7,0.6,0.8,0.7c1.1,1.2,1.7,2.8,1.9,4.4c0.1,1,0,2.1-0.3,3
			c-0.3,0.8-0.7,1.9-1.4,3.1l10.6,0.3l-6.6,6.6l-9-1.4l5.1,5.3L53,140.7L53,140.7z"/>
	</g>
	<g id="g72">
		<path id="path74" class="st2" d="M124.4,144.8c-9.2-8.4-15.3-23-11.8-34.6l21-5v2.9h2.8v-2.9l21,5c3.5,11.5-2.6,26.2-11.8,34.6
			c-1.7,1.6-3.5,2.8-5.4,3.9v-14.3l-0.7-1.3c-0.3,0.2-0.5,0.4-0.8,0.5l-1.1,0.5c-0.3,0.1-0.6,0.2-0.9,0.3l-1.2,0.2H135h-0.5
			l-1.3-0.2c-0.3-0.1-0.6-0.2-0.9-0.3l-1.1-0.5c-0.3-0.2-0.5-0.4-0.8-0.5l-0.7,1.3v14.3C127.9,147.6,126.1,146.4,124.4,144.8"/>
	</g>
	<g id="g76">
		<path id="path78" class="st0" d="M125.6,134.9c-8.5-7.2-1.3-23.9,6.5-24.9c2.3-0.2,3.6-0.2,5.9,0c7.8,1,15,17.7,6.5,24.9
			c0.6-1.3,1-2.8,1-4.2c0-14.3-20.8-14.3-20.8,0C124.5,132.1,124.9,133.6,125.6,134.9"/>
	</g>
	<g id="g80">
		<path id="path82" class="st3" d="M127.8,125.9c-0.7,1.4-1.2,2.9-1.2,4.6c0,1.6,0.6,3.3,1.3,4.7v-1.1c0-0.2,0.7-1.5,1.2-2.5
			C127.8,129.9,127.4,127.9,127.8,125.9"/>
	</g>
	<g id="g84">
		<path id="path86" class="st3" d="M142.1,125.9c0.8,1.4,1.2,2.9,1.2,4.6c0,1.6-0.6,3.3-1.3,4.7v-1.1c0-0.2-0.7-1.5-1.2-2.5
			C142.1,129.9,142.5,127.9,142.1,125.9"/>
	</g>
	<g id="g88">
		<path id="path90" class="st4" d="M135,133.1c3.2,0,5.8-2.6,5.8-5.8c0-3.2-2.6-5.8-5.8-5.8c-3.2,0-5.8,2.6-5.8,5.8
			C129.2,130.5,131.8,133.1,135,133.1"/>
	</g>
	<g id="g92">
		<path id="path94" class="st5" d="M132.3,134.1c-0.4-0.1-0.7-0.3-1.1-0.5l0.7-1.4c0.3,0.2,0.6,0.3,0.8,0.4L132.3,134.1L132.3,134.1
			z"/>
	</g>
	<g id="g96">
		<path id="path98" class="st5" d="M134.5,134.6c-0.4,0-0.9-0.1-1.3-0.2l0.5-1.4c0.3,0.1,0.6,0.1,0.9,0.1L134.5,134.6L134.5,134.6z"
			/>
	</g>
	<g id="g100">
		<path id="path102" class="st5" d="M136.7,134.4c-0.4,0.1-0.8,0.2-1.2,0.2l-0.1-1.5c0.3,0,0.6,0,0.9-0.1L136.7,134.4L136.7,134.4z"
			/>
	</g>
	<g id="g104">
		<path id="path106" class="st5" d="M137.5,134.1l-0.5-1.4c0.3-0.1,0.6-0.3,0.8-0.4l0.7,1.3C138.3,133.8,137.9,134,137.5,134.1"/>
	</g>
	<g id="g108">
		<path id="path110" class="st0" d="M132.1,150c-0.5-0.3-0.9-0.5-1.4-0.7v-14.6l0.5-1c0.4,0.2,0.7,0.4,1.1,0.5l-0.2,0.6V150
			L132.1,150z"/>
	</g>
	<g id="g112">
		<path id="path114" class="st0" d="M134.5,151.2c-0.5-0.3-0.9-0.5-1.4-0.7v-15.6l0.1-0.4c0.4,0.1,0.8,0.2,1.3,0.2l0,0.3V151.2
			L134.5,151.2z"/>
	</g>
	<g id="g116">
		<path id="path118" class="st0" d="M136.8,150.5c-0.5,0.3-0.9,0.5-1.4,0.7v-16.3l0-0.3c0.4,0,0.8-0.1,1.2-0.2l0.2,0.4V150.5
			L136.8,150.5z"/>
	</g>
	<g id="g120">
		<path id="path122" class="st0" d="M139.1,149.2c-0.5,0.3-0.9,0.5-1.4,0.7v-15.2l-0.2-0.6c0.4-0.1,0.7-0.3,1.1-0.5l0.5,1
			L139.1,149.2L139.1,149.2z"/>
	</g>
</g>
</svg>
