<?xml version="1.0" encoding="utf-8"?>
<!-- Generator: Adobe Illustrator 21.1.0, SVG Export Plug-In . SVG Version: 6.00 Build 0)  -->
<svg version="1.1" id="Layer_1" xmlns="http://www.w3.org/2000/svg" xmlns:xlink="http://www.w3.org/1999/xlink" x="0px" y="0px"
	 viewBox="0 0 200 200" style="enable-background:new 0 0 200 200;" xml:space="preserve">
<style type="text/css">
	.st0{fill:#ED1C24;}
	.st1{fill:#FFC20E;}
	.st2{fill:#21409A;}
	.st3{fill:#FFFFFF;}
</style>
<g>
	<path class="st0" d="M100,163.5c-35,0-63.5-28.5-63.5-63.5c0-35,28.5-63.6,63.5-63.6c35,0,63.5,28.6,63.5,63.6
		C163.5,135,135,163.5,100,163.5L100,163.5z"/>
	<path class="st1" d="M100,194.3C48.1,194.3,5.7,152,5.7,100c0-52,42.4-94.4,94.3-94.4c52,0,94.3,42.4,94.3,94.4
		C194.3,152,152,194.3,100,194.3L100,194.3z M100,0C45,0,0,44.9,0,100c0,55,45,100,100,100c55.1,0,100-44.9,100-100
		C200,44.9,155,0,100,0L100,0z"/>
	<path class="st2" d="M100,163.5c-35,0-63.5-28.5-63.5-63.5c0-35,28.5-63.6,63.5-63.6c35,0,63.5,28.6,63.5,63.6
		C163.5,135,135,163.5,100,163.5L100,163.5z M100,5.7C48.1,5.7,5.7,48.1,5.7,100c0,52,42.4,94.3,94.3,94.3c52,0,94.3-42.4,94.3-94.3
		C194.3,48.1,152,5.7,100,5.7L100,5.7z"/>
	<path class="st3" d="M167.1,87h7l0.3,1.6l0.5,3.7l0.3,3.9l0.1,3.9l-0.1,3.9l-0.3,3.8l-0.5,3.8l-0.4,1.8h-7l0.5-2.9l0.5-3.4l0.2-3.5
		l0.1-3.5l-0.1-3.6l-0.2-3.5l-0.5-3.4L167.1,87L167.1,87z M25.9,87h7l-0.5,2.6L32,93l-0.2,3.5l-0.2,3.6l0.2,3.5L32,107l0.5,3.4
		l0.5,2.9h-7l-0.3-1.8l-0.5-3.8l-0.3-3.8l-0.1-3.9l0.1-3.9l0.3-3.9l0.5-3.7L25.9,87L25.9,87L25.9,87z M11.8,113.3
		c-0.6-4.3-0.9-8.8-0.9-13.2c0-4.4,0.3-8.8,0.9-13h7l-0.1,0.5l-0.5,4.1l-0.3,4.2l-0.2,4.3l0.2,4.2l0.3,4.2l0.5,4.1l0.1,0.8
		L11.8,113.3L11.8,113.3L11.8,113.3z M188.3,87c0.6,4.3,0.9,8.6,0.9,13c0,4.5-0.3,8.9-1,13.2h-7l0.2-0.8l0.5-4.1l0.3-4.2l0.1-4.2
		l-0.1-4.3l-0.3-4.2l-0.5-4.1l-0.1-0.5L188.3,87L188.3,87L188.3,87z"/>
	<path class="st3" d="M54.1,158.4c0.3-0.5,0.3-1,0.2-1.6c-0.2-0.5-0.5-1.1-0.8-1.5c-0.1-0.2-0.2-0.2-0.2-0.3
		c-0.1-0.1-0.2-0.1-0.2-0.2c-0.3-0.2-0.6-0.5-0.9-0.6c-0.4-0.1-0.6-0.1-0.9,0.1l0,0c0,0.1-0.1,0.1-0.1,0.1l-0.1,0.1
		c0,0-0.1,0-0.2,0.1c-0.4,0.4-0.3,1,0.1,1.9c0.4,0.8,0.9,1.6,1.5,2.4c0.1,0.1,0.1,0.2,0.1,0.2c0.1,0.1,0.1,0.1,0.1,0.1
		c1.6,2,2.6,3.9,3,5.6c0.5,1.8,0,3.4-1.2,5l-0.2,0.2c-1.5,1.8-3.6,2.5-5.9,2.2c-2.3-0.4-4.4-1.3-6.3-2.9c-1.9-1.7-3.3-3.6-4.2-5.9
		c-0.2-0.6-0.4-1.3-0.4-1.9v-0.2c0-1.5,0.6-2.9,1.8-4.2l5.2,4.4c-0.4,0.8-0.5,1.5-0.3,2c0.2,0.6,0.5,1.2,0.9,1.6
		c0.1,0.1,0.2,0.2,0.2,0.2c0.1,0.1,0.2,0.2,0.2,0.2c0.5,0.5,1,0.7,1.5,0.7c0.5,0.1,0.9-0.1,1.2-0.3c0-0.1,0-0.1,0-0.1l0,0
		c0.1-0.1,0.1-0.2,0.2-0.2c0-0.1,0.1-0.2,0.1-0.2c0.1-0.2,0.2-0.5,0.1-0.8c0-0.3-0.1-0.6-0.3-0.9c-0.2-0.2-0.2-0.3-0.3-0.5
		c-0.2-0.2-0.2-0.3-0.3-0.5c-0.2-0.2-0.2-0.2-0.3-0.4c-0.1-0.2-0.2-0.2-0.3-0.4c-1.3-1.9-2.3-3.8-3.2-5.7c-0.8-1.9-0.5-3.8,1.1-5.5
		c0.1-0.2,0.2-0.2,0.2-0.3c0.2-0.1,0.2-0.1,0.3-0.2c0.1-0.1,0.2-0.2,0.2-0.2c0.1-0.1,0.2-0.1,0.2-0.2c1.2-1,2.6-1.5,4.5-1.5
		c1.8,0.1,3.6,0.9,5.7,2.6l0.6,0.5c0.1,0.2,0.2,0.2,0.3,0.3c0.1,0.1,0.2,0.2,0.3,0.3c1.4,1.4,2.5,2.9,3.1,4.8
		c0.7,1.9,0.3,3.9-1.2,6.1L54.1,158.4L54.1,158.4L54.1,158.4z"/>
	<path class="st3" d="M79.2,172.6c0,0.1,0,0.2,0,0.2l-0.1,0.1c0,0.1,0,0.1,0,0.1c0,0.1-0.1,0.1-0.1,0.1c-0.2,0.5-0.5,0.9-1,1.1
		c-0.5,0.2-1,0.3-1.6,0l-0.2-0.1l-3.1-1.2l1.6-4.2l1.5,0.5l1.6,0.6c0.6,0.3,1.1,0.7,1.2,1.2C79.2,171.6,79.3,172.1,79.2,172.6
		L79.2,172.6z M85.4,169.9c-0.9-2-2.7-3.6-5.4-4.6l-3.9-1.5l-6.5-2.5l-7.6,20.2l6.7,2.6l2.3-6.1l3.7,1.5c0.5,0.2,0.9,0.3,1.3,0.4
		c2.2,0.6,4.1,0.5,5.7-0.2c1.9-0.9,3.2-2.2,3.9-4c0,0,0,0,0-0.1c0,0,0-0.1,0.1-0.1C86.4,173.8,86.3,171.9,85.4,169.9L85.4,169.9z"/>
	<polygon class="st3" points="100.3,168 101.2,184.4 111.2,184 111.4,189.1 94.4,190 93.3,168.4 100.3,168 	"/>
	<polygon class="st3" points="124.8,163.3 132.2,183.7 125.3,186.1 117.9,165.9 124.8,163.3 	"/>
	<polygon class="st3" points="148.1,148.9 151.6,153.5 146.7,157.5 156.4,169.9 150.6,174.4 140.9,162 135.9,165.9 132.3,161.3 	"/>
	<path class="st3" d="M59.2,37.4l-0.8,0.5l-2-7.1l2.8,2.5l2.8,2.5L59.2,37.4L59.2,37.4z M59.2,25.2l-3.4-2.7l-5.4,3.4l-1,0.6l1,4.4
		l3.9,18l5-3.1l1.2-0.7l-0.8-2.9l5.9-3.7l2.1,2l6.2-3.9L59.2,25.2L59.2,25.2z"/>
	<path class="st3" d="M115.9,23.1c-0.4,2.2-1.2,3.7-2.3,4.4c-0.4,0.2-0.8,0.3-1.2,0.5c-0.9,0.2-1.9,0.2-2.9,0.1
		c-0.1-0.1-0.2-0.1-0.2-0.1c-0.1,0-0.2,0-0.2-0.1c-0.1,0-0.2,0-0.2,0c-0.1,0-0.2-0.1-0.2-0.1l1.9-11.2l1.1,0.2
		c0.2,0.1,0.5,0.1,0.7,0.2c1.2,0.3,2.2,0.9,2.9,1.6C116.1,19.4,116.3,20.9,115.9,23.1L115.9,23.1z M122,17.4c-1.2-1.7-2.6-3-4.1-3.9
		c-0.8-0.5-1.6-0.8-2.4-1.1c-0.8-0.3-1.5-0.5-2.2-0.6l-0.9-0.2l-7.9-1.4l-3.7,21.3l9.3,1.7c0.8,0.2,1.5,0.2,2.3,0.2
		c2.3,0.2,4.3-0.3,6.1-1.2c2.4-1.2,3.9-3.8,4.6-7.6l0.1-0.6C123.5,21.4,123.1,19.2,122,17.4L122,17.4z"/>
	<path class="st3" d="M152,27.8l-2.9-1.8L142,37.6c-0.5,0.9-1.2,1.3-2,1.5c-0.9,0.2-1.6,0.1-2.2-0.2c-0.1,0-0.1,0-0.2-0.1
		c-0.1,0-0.1,0-0.2-0.1c0,0,0,0-0.1,0c0,0,0,0,0-0.1c-0.7-0.4-1.2-1.1-1.4-1.9c-0.2-0.9-0.1-1.7,0.5-2.6l7.2-11.5l-6-3.7l-7,11.2
		c-1.6,2.6-2.1,5-1.3,7.3c0.7,2.3,2.5,4.2,5.3,6c2.8,1.8,5.4,2.6,7.8,2.2c2.4-0.2,4.3-1.5,5.8-4l3.9-6.1l3.4-5.4L152,27.8L152,27.8z
		"/>
	<polygon class="st3" points="173.9,50.5 165.2,49.6 170.5,45.7 166.2,39.8 152,50.1 148.6,52.5 152,57.1 153,58.5 158.6,54.3 
		160.6,54.6 156.8,63.8 161.9,70.8 167.7,55.9 178.9,57.4 	"/>
	<path class="st3" d="M90.4,11.2l2.5,14.2c0.4,2.2,0.2,3.9-0.5,5.1c-0.8,1.2-1.7,2.2-2.8,2.9c-0.7,0.4-1.3,0.7-2,0.9
		c-0.6,0.2-1.2,0.3-1.6,0.4c-2.6,0.5-4.9,0.2-6.7-1c-1.8-1.2-2.9-3.1-3.5-6c0-0.1,0-0.2,0-0.4c-0.1-0.2-0.1-0.3-0.1-0.5
		c0-0.2,0-0.2-0.1-0.4c0-0.2,0-0.3,0-0.5l6.4-1.2c0.2,1.5,0.6,2.6,0.9,3.4c0.4,0.8,0.9,1.2,1.6,1c0.7-0.1,1.1-0.4,1.2-0.9
		c0.2-0.5,0.2-1.1,0-1.6l-2.5-14.2L90.4,11.2L90.4,11.2z"/>
	<polygon class="st3" points="50.4,52 33.8,40 29.5,45.8 35.4,50.2 31.6,55.3 25.7,51 21.4,56.9 38.9,69.6 43.2,63.7 36.6,58.8 
		40.3,53.7 47,58.5 50.4,54 51.3,52.7 	"/>
	<path class="st3" d="M138.8,87.1h23.4c-2-9.6-6.1-18.4-11.9-25.9h-11.5L138.8,87.1L138.8,87.1z M112.9,138.8v23.5
		c9.6-2,18.4-6.2,25.9-11.9v-11.5H112.9L112.9,138.8z M87.1,113v25.8h25.9V113H87.1L87.1,113z M138.8,138.8h11.5
		c5.8-7.5,9.9-16.2,11.9-25.8h-23.4L138.8,138.8L138.8,138.8z M61.3,138.8v11.6c7.5,5.8,16.2,9.9,25.8,11.9v-23.4H61.3L61.3,138.8z
		 M87.1,87.1H61.3V113h25.8L87.1,87.1L87.1,87.1z M112.9,113h25.9V87.1h-25.9V113L112.9,113z M138.8,61.2V49.8
		c-7.5-5.8-16.3-10-25.9-12v23.4L138.8,61.2L138.8,61.2z M87.1,61.2V37.8c-9.6,2-18.3,6.1-25.8,11.9v11.5L87.1,61.2L87.1,61.2z
		 M61.3,61.2H49.8c-5.8,7.5-9.9,16.3-11.9,25.9h23.5L61.3,61.2L61.3,61.2z M61.3,113H37.8c2,9.6,6.1,18.3,11.9,25.8h11.6L61.3,113
		L61.3,113z M112.9,87.1V61.2H87.1v25.9H112.9L112.9,87.1z"/>
</g>
</svg>
