<?xml version="1.0" encoding="utf-8"?>
<!-- Generator: Adobe Illustrator 21.1.0, SVG Export Plug-In . SVG Version: 6.00 Build 0)  -->
<svg version="1.1" id="Layer_1" xmlns="http://www.w3.org/2000/svg" xmlns:xlink="http://www.w3.org/1999/xlink" x="0px" y="0px"
	 viewBox="0 0 200 200" style="enable-background:new 0 0 200 200;" xml:space="preserve">
<style type="text/css">
	.st0{fill:#FFFFFF;stroke:#EE3338;stroke-width:4.2562;stroke-miterlimit:22.9256;}
	.st1{fill:#2957A5;}
	.st2{fill:#FFFFFF;}
	.st3{fill:#EE3338;}
</style>
<g id="layer1" transform="translate(-174.15625,-272.25)">
	<path id="path64" class="st0" d="M274.2,275.7c53.3,0,96.5,43.2,96.5,96.5c0,53.3-43.2,96.5-96.5,96.5c-53.3,0-96.5-43.2-96.5-96.5
		C177.7,319,220.9,275.7,274.2,275.7z"/>
	<path id="path66" class="st1" d="M274.2,304.3c37.5,0,67.9,30.4,67.9,67.9c0,37.5-30.4,67.9-67.9,67.9c-37.5,0-67.9-30.4-67.9-67.9
		C206.2,334.7,236.6,304.3,274.2,304.3"/>
	<path id="path68" class="st2" d="M243.7,317.7l7.2-5.1h44.8l7,5.5v31.5l-29.3,16.6l-29.7-16.4L243.7,317.7L243.7,317.7z"/>
	<path id="path70" class="st3" d="M267.8,313.5v10.4h11.1v10.4h-11.1v10.7H279v-10.7h11.6v10.7h11.3v-10.7h-11.2v-10.3H302v-5.8
		l-6.5-4.6h-4.9v10.3H279v-10.4H267.8z M267.8,334.2v-10.4h-12v-10.3H251l-6.5,4.6v5.8h11.3v10.3H267.8z M255.8,334.2h-11.2v10.7
		h11.2V334.2z M255.8,345v10.4h12V345H255.8z M278.9,345v10.4h11.7V345H278.9z M267.8,355.4v6.9l5.6,2.9l5.5-2.8v-7.1H267.8z"/>
	<path id="path92" class="st2" d="M241.8,317c-2.3,0.1-1.4,2.7-2,4.2c0.6,0.1,0.6,0.1,2.5,0.3c0-1.5,0.1-3,0.1-4.4
		c0,0-0.1,0-0.1-0.1C242.1,316.9,241.9,316.9,241.8,317L241.8,317z M304.1,317c-0.2,0-0.3,0-0.5,0c0,0,0,0,0,0.1
		c0,1.5,0,2.9,0.1,4.4c1.9-0.2,1.9-0.2,2.5-0.3C305.6,319.7,306.5,317,304.1,317L304.1,317z M230.9,322.8c-0.7,2-1.8,4.1-2.5,6.2
		c0,1.7,0.6,2.3,2.1,3.5h0.4c0.7-0.7,1.7-2.3,2.5-2.5c-0.1,0.9-1.4,2.5-1.8,3.3c1.2,0,2.2-2.3,2.7-3.2c-0.9-0.9-0.3-1.2,0.2-2.1
		c0.1,0,0.2,0.1,0.3,0.1c0.1,0.2,0.1,0.4,0.2,0.7c1.6,0.2,3.2,0.3,4.8,0.5c1-0.7,2-0.8,3.3-1.1c0-0.1,0-0.2,0.1-0.2
		c0-0.3,0-1.2,0-1.6c-0.1-0.4,0-1.4-0.1-1.6c-3.2-0.3-5.2-0.9-7.5,1.4c-0.3,0-1-1.6-1-1.7C233.2,323.9,231.8,322.9,230.9,322.8
		L230.9,322.8z M315.1,322.8c-1,0.2-2.4,1.1-3.6,1.8c0,0.1-0.7,1.7-1,1.7c-2.3-2.3-4.3-1.7-7.5-1.4c-0.1,0.1,0,1.1-0.1,1.6
		c-0.1,0.4,0,1.3,0,1.6c0,0.1,0,0.1,0.1,0.2c1.3,0.3,2.3,0.4,3.3,1.1c1.6-0.2,3.2-0.3,4.8-0.5c0.1-0.2,0.1-0.5,0.1-0.7
		c0.1,0,0.2-0.1,0.3-0.1c0.6,0.9,1.1,1.2,0.2,2.1c0.5,0.8,1.5,3.2,2.7,3.2c-0.5-0.8-1.7-2.5-1.8-3.3c0.8,0.2,1.9,1.8,2.5,2.5h0.4
		c1.4-1.2,2.1-1.8,2.1-3.5C316.9,326.9,315.7,324.8,315.1,322.8L315.1,322.8z M314.9,333.6c-2.2,0.1-4.4,0.2-6.5,0.3
		c-2,1.1-1.7,5.4-1.2,7.5c0.6-0.2,1.1-0.5,1.7-0.7c1.2-0.1,2.2,0.1,4.1,0.1c2.1-0.3,4.1-0.8,6.3-1.3c-0.2-2-0.2-3.7-1-5.2
		C317.1,334.1,316,333.8,314.9,333.6z M228.8,335.3c-0.8,0.1-1.4,0.2-2,0.4c-0.4,1-0.9,2.1-1,3.3c0.3,0.2,0.6,0.3,0.9,0.5
		c0.2,0.8,0.4,1.6,0.7,2.4c0.8,0.8,4,0.6,5.2,0.6c1.6-0.5,2.9-0.9,4.8-1c0-0.9,0-1.8,0-2.7c-1.7-2.5-4.1-3.3-6.6-3.5
		C230.1,335.3,229.4,335.3,228.8,335.3L228.8,335.3z M329.5,338.2c-2.5,0.1-4.8,0.9-5.4,3.6c-0.2,0.1-0.2,0.1-0.7,0.5
		c0,0.3,0,0.7,0,1c0.6,0.4,0.7,0.4,0.8,0.6c-4.4,0.3-7.9,1.4-11.9,2.8c0.1,0.2,1.9,2.1,2.9,3.3c0.7,1.3,1,2.1,2.5,3.2
		c2.8,0.5,5.6-1.2,8.3-2.2c0.4,0.1,0.8,0.3,1.2,0.5c0.1-0.6,0.1-1.2,0.2-1.9c0-0.9,0-1.9,0-2.8c-0.7-1-1-1.6-1.8-2v-0.4
		c1.9,0.3,2.3,2.4,2.9,4.2c1.4-0.5,1.5-0.5,2.1-2.1C330.6,343.6,329.5,340.9,329.5,338.2L329.5,338.2z M320,340.5
		c0.1,0.7,0.6,1.6,1,2.4c0.2-0.1,0.4-0.1,0.7-0.1c0-0.5-1.3-2.1-1.5-2.3H320z M217,341.8c-0.8,0.4-1.8,3.5-1.8,4.6
		c0,0.6,0,1.2,0,1.8c0.2,1.3,0.8,4,2.7,4.3c0.1-0.5,0.1-0.9,0.2-1.4c0.1,0,0.1,0,0.2,0c0.4,1.1,0.4,1.1,0.9,2.7
		c0.2-0.2,0.2-0.2,0.9-0.4c1,0,4-0.1,4.6,0.5c1.8-0.1,3.8-0.8,5.4-1.9c1-0.9,3.4-3.1,2.9-4.5c-0.3-0.1-0.6-0.2-0.9-0.3
		c-1.7-0.2-3.4-0.7-4.9-1.1c-1.9,0.1-3.5,0-5.1,0.2c0-0.1,0-0.2,0-0.3c0.6-0.9,0.4-1,0.1-1.8C220.4,343.2,220.4,343.2,217,341.8
		L217,341.8z M326.9,353.8c1,3.9,1,3.9,1.2,5c-0.4-0.2-1-1.9-1.1-2.2c-2.5-0.5-2.5-0.5-4-0.7c-1,2.6-3.5,4.2-1.5,7.2
		c0.7,0.7,2,1.8,2.3,2.2c-0.9,0-3.8-1.9-4.4-2.3c-0.2,2.4-1.1,6.7,0.7,9.1c2,0.9,4,1.8,6,2.7c-0.2,0-0.3,0-0.4,0
		c-3.4-1.3-6-1.3-8.8,1c-0.9,1-0.9,1-1,1.3c0.1,0.2,1.5,0.1,1.9,0.1c4.3,0.8,4.3,5.8,4.5,9.4c-0.5-0.1-0.7-0.4-0.9-0.6
		c-1.8-3.4-3.7-2.1-6.7-2.8c-0.2,2.1-0.4,4.3-0.5,6.4h1.2c-0.2,0.9-1.8,2.2-2.5,2.9c-1.4,1.7-2.1,2.9-2.6,5.1c0,0.6,0,1.2,0,1.8
		c-0.4,0-1.6-2.7-1.7-2.8c-1.6-1.2-3.1-0.8-4.8-0.7c-0.1,0-0.1,0.1-0.2,0.1c0.9,2.8,0.6,4.6-0.4,7.5c-1,1.9-1.2,2.9-1.2,5.2
		c0.5,2.3,2.1,4.6,3.6,6.8c-0.2,0.6-0.8,3-1.6,3.2c-0.2-1.2,0.3-1.5,0.7-2.3c0.1-1.2,0.2-1.9-1.1-1.9c-1.5,1-1.9,3.2-2.2,4.9
		c-2.3,1.3-4.5,2.7-6.8,4c-0.3,0.2-0.9,0.8-1.1,0.9c0-3.1,0.8-3.2,3.5-4.4c1.9-1.3,2.7-2.4,3.7-4.4c-0.1-3.2-0.1-3.2-0.4-6.9
		c-0.4-1.8-1.9-3.8-3-4.9c-0.3-0.7-0.8-0.9-1-1.2c-0.3-0.2-0.7-0.5-0.8-0.5c-0.4,0.8-0.9,1.1-1.2,1.9c-0.6,0-1.4,2-1.8,2.6
		c3.6,0.2,3.6,0.2,3.6,0.3c-0.1,0.5-0.1,0.9-0.2,1.4c-0.2,1.1-1.5,2.4-1.9,3.6h-0.3c0-0.8,0.4-1.6,0.7-2.2c0.3-0.4,1.1-1.1,1.2-1.5
		c-0.1-0.1-0.1-0.1-0.1-0.2c-2,0-4.1-0.4-5.8,0c-0.5,0.3-1.1,0.7-1.6,1c0,0.4,0.2,1,0.2,1.6h-0.2c-0.2-0.6-0.5-1.3-0.6-1.7
		c-1-2.7-1.7-3.3-3.9-4.7c-1.3-0.3-2.4-0.8-3.4-0.8c-0.1,1,0.2,2.3,0,3.4c-0.4,0.8-0.8,1.7-1.2,2.5c-1.7,2.9-4.5,7-2.9,10.5
		c0.8,1.1,1.6,2.2,2.5,3.3c0.1,0.7,0.2,1.4,0.3,2.1c1.2,0,6.3-4,6.9-4.9h0.2c-1,2.1-3.9,3.1-4.4,4.9h-0.2c-0.1-0.1-0.2-0.3-0.2-0.4
		c-1,0.1-2.5,1.3-2.4,2.5c0.8,0,0.8,0,1,0.1v0.2c-1,0.2-1.8,0.5-2.6,0.4c-0.7,0.5-0.9,0.6-1.6,0.5c-0.2,0.3-0.2,0.3-0.2,0.8
		c0.1,0.1,0.1,0.1,0.4,0.1c1.7-1.2,3.1-0.9,5.4-0.9c2.7-0.3,5.4-0.7,8-1c0,0,0,0.1,0.1,0.1c-2,0.4-4,0.9-6,1.3
		c-0.8,0.6-1.3,0.3-2,0.3c0,2.7,2.3,4.5,5,5.4c2.9-0.1,4.5-1.1,6.9-3c0.2-0.4,1-1.2,1.4-1c1.9,3,6-0.5,7.8-1.9
		c1.9-1.2,2.6-1.5,4.8-1.6c0-1.5-1.3-1.9-2.2-2.4c-1.8-0.7-4.8-2.1-5.1-2.1c0-1.3,1.4-1.4,2.4-1.4v0.5c0.5,0.2,0.5,0.2,1,0.6
		c1.5,0.4,3.1-0.1,4.7-0.6c2.4-2.6,4.2-3,7.7-3.2c-0.7-1.7-1.7-2.6-2.7-3.7c-0.5,0-1,0-1.4,0c0-1,3.6-5.9,4.6-7.3
		c0.9-1.1,2.2-2.9,3.7-3.1c0.1,0.2,0.1,0.4,0.1,0.6c3.2,0.9,7.1-0.7,8.8-3.7c0.7-2.2,1.3-4,2.6-5.8c0-0.6-3.5-1.8-3.9-1.9
		c-0.5,0-1-0.1-1.4-0.1c-0.6,0.2-1,0.3-1.3,0.3c0-0.7-0.1-1.1,0.7-1.3c0.5-1,0.8-2.5,0.8-3.5c-0.6-1.4,0.5-1.7,1.5-2.5
		c1.5-2.1,2.8-3.6,2.8-6c-2.5-3.8-2.5-3.7-2.5-4c0.3,0,0.6,0.3,1,0.6c0.7,0,1.2-1.4,1.9-1.6c0,0.8-0.5,1.3-0.7,2.1
		c0,1,0.4,2.3,1.6,2.9c3.2-0.6,4.8-0.5,6-3.6c0.1-3.3-0.6-6.3-0.4-9.4c-1.4,0.1-3.2,0.4-4.3,0.9c-0.3,0.2-1.1,1.1-1.3,1.1
		c-1.1-7.5-1.1-7.5-1.2-8.1c0.1,0.1,0.1,0.1,1.2,3.1c0.4,0,1.3-1.7,1.6-2.2c-0.2-0.5-0.1-0.5-0.3-1.7c-0.4-1.1-2.1-3.7-3.3-2.9
		c0,0.3,0,0.6,0.1,1c-0.5-0.5-1.3-3.4-1.5-4C327.5,354.2,327.2,354,326.9,353.8L326.9,353.8z M222.8,357.5c-0.1,0-0.1,0-0.2,0
		c-1.1,0.8-2.5,1.3-3.7,1.7c-0.1,0.9-0.3,2-0.6,3.1c-0.1,0-0.2,0-0.3,0c0-0.2,0-0.4,0-0.7c-0.1-0.7-0.1-1.5-0.1-2.2
		c-0.4,0-1,2.4-1.6,2.7c0-0.3,0-0.3,0.3-3c-0.2,0-0.3,0.1-0.4,0.1c-2.8,1.5-3.4,1.3-3.6,4.8c0.4,0.9,1.4,2,2.8,2
		c0.3-1.1,0.2-2.3,0.8-3.2h0.2c-0.1,2.3-0.2,4.5-0.2,6.8c0.1,0.1,0.2,0.1,0.3,0.3c0.1,0,0.1,0,0.2-0.1c0.2-0.8,0.4-1.5,0.6-2.3h0.3
		c0.1,0.2,0.1,0.5,0.3,0.7c0.6,0,0.9-0.7,1.3-0.7c0,0.1,0,0.1,0.1,0.2c-1,1.1-1.9,2.1-2.9,3.2c-0.4,1.4-0.3,2.9-0.1,4.6
		c0.4,0.9,0.8,1.8,0.9,3.1h-0.3c-1.1-2.1-1.3-4.5-1.4-6.6c-1.7-1.7-3.5-1.3-5.6-1.4c-0.5,2.8-2,9.3,2,11c1.8,0.1,3.2-0.7,5.1-0.7
		c0,1.8-0.6,3.7,0,5.6c1.2,0.8,2.5,1.3,3.8,2.6c0.4,0,2.1-1.2,2.4-1.7c0.7-2.7,1.6-5.4,2.9-7.8c1.1-1.4,2.1-2.2,3.7-3.2
		c0-0.1,0-0.2,0.1-0.2c-2.3-0.9-5.1-0.5-7.4-0.5c0.1-0.2,0.1-0.2,2.1-1.9c2.5-2.8,2.3-7.2,1.8-10.4c-1.6-3.6-1.3-0.3-2.9-0.3v-0.4
		c0.8-1.7,0-3.4-0.4-5C222.9,357.5,222.8,357.5,222.8,357.5L222.8,357.5z M241,370.4v1.5h7.8v0.7l-7.8,5.8v1.3h9.5v-1.5h-6.3l6.6-5
		v-2.7H241z M252.9,370.5v9.3h1.6v-1.2l5.1-1.4l1.5,2.8h1.4l-1.3-3.3l1.3-0.6v-5.5H252.9z M264.2,370.5v9.3h1.5v-9.3H264.2z
		 M305.2,370.5v9.3h1.5v-9.3H305.2z M294.1,370.5l0,9.4h1.4v-3.6l3.2-1.4l2.6,5h1.8l-2.9-5.8l3.2-1.4v-1.6h-0.7l-7.1,3.1v-3.7H294.1
		z M282.7,370.6v5.7h7.2v2.3h-7.2v1.4h8.5v-5.1h-6.9v-3h7v-1.4H282.7z M275.6,370.6v2.1l-7.7-1.9l0,9h1.5v-6.9l6.2,1.5v5.3h1.5v-9.3
		H275.6L275.6,370.6z M278.9,370.6l0,9.6l-1.1,1.4v0.5h1.1l1.4-1.8v-9.6H278.9z M254.6,372.1h6.6v3.2l-6.6,1.9V372.1z M220.7,376.4
		v0.3c-0.3,0.2-0.3,0.2-0.8,0.4C220.1,376.8,220.1,376.8,220.7,376.4z M218.8,377.7c-1.6,2.3-1.6,2.3-1.6,2.3
		C217.7,378.4,217.5,378.4,218.8,377.7z M232.1,385c-1.3,0.6-2.5,1.3-3.8,1.9c-1.4,1.3-3.9,3.2-4.3,5.2c0.2,1.9,0.6,3.9,2.6,5.2
		c0.5,0,2-1.1,2.5-1.5c0.2-0.4,0.4-0.8,0.7-1.2c0.1,0,0.2,0,0.3,0.1c-0.5,2.4-0.6,4.7-0.5,7.3c0,0.6,0,1.2,0.1,1.8
		c-0.2-0.1-0.2-0.1-0.3-0.1c-0.8-1-1.9-2.3-2.8-2.5c-0.1-0.3-0.1-0.5-0.2-0.8c-0.1,0-0.3,0.1-0.4,0.1c-0.1-0.3-0.1-0.3-0.1-1.6
		c-1.9-2.8-3.4-5.2-4.4-8c-0.5-0.3-0.8-0.5-1-0.6c0.7,1.7,1.5,3.4,2.2,5.1h-0.6c-0.1-0.3-0.2-0.5-0.3-0.7c-1.3,0-6.8,1.7-5.1,3.4
		c0.6,1.2,1.3,2.3,1.9,3.5c2.2,3,3.4,3.7,7.4,4.3c0,0.1,0,0.1,0,0.2c-1.7,0.4-3.6,0.5-4.8,1.8c-0.6,1.2-0.9,1.2,0.2,2.2
		c0.8,0.3,2.4,0.5,3,1.6c2.9,2.3,3.9,4,7.6,2c1.2-1,1.2-1,2.1-1.9c0.4,0.1,4.3,3.3,4.6,4c-0.3,0-0.6,0-0.9,0.1c0,0.2,0,0.4,0.1,0.6
		c-0.9-0.7-1.8-2.1-2.4-2.2c-0.8,0.8-2.4,2.5-2.2,3.9c3.2,0.8,5.2,1.8,7.7,4.5c1.5,0.3,3,0.4,4.6-0.7c0-0.1,0-0.2,0-0.2
		c-0.2-0.1-0.3-0.2-0.5-0.3v-0.4c0.5,0,3,0.5,2.8,1.4c-1.8,0.6-2.8,2-4,3.2c-1.3,0.9-1.3,0.9-1.5,1c0,0.3-0.1,0.4,0.1,1
		c3.7,0.9,5.3,4.3,9.8,3.3c1.6-1-0.3-2.1-0.3-3.2c0.3-0.1,2.2,2.4,2.9,3.2c2.2,0.8,5.5,2.5,8.2,1.6c0.2-0.4,0.5-0.7,0.7-1.1
		c0.3-0.6,1.6-2.5,1.6-3c-0.3-0.1-0.6-0.2-0.8-0.3c-0.1,0-0.1,0-0.1-0.1c0-0.1,0-0.1,0.1-0.2h0.4c1.4,0,2.9,0,4.3-0.1
		c-0.2-0.3-0.3-0.6-0.4-0.9c-1,0-2.5,0.3-3.2,0c-0.1-0.2-0.2-0.4-0.3-0.6c-3.7-0.9-8.3-1.7-11.5-3.2c0,0.1,0,0.1-0.1,0.2
		c-2.8-1.7-7.2-2.1-8.9-4.4c0.2,0,0.5,0,1.1,0.3c0-1.7-1.5-4.1-3.2-4.1c-0.4,0.4-0.2,0.6-0.9,0.6c0-0.9,0.9-2.1,1.3-3
		c0.5-1.3,1-2.5,1.2-3.8v-1.5c-0.3-0.7-0.5-1.2-1.2-3c-0.7-2.6-1-4.5-0.5-6.9c0-0.2-0.1-0.3-0.1-0.5c-1.9,0-2.2,0.3-3.7,1.2
		c-1.2,1.1-2.4,2.5-3.6,3.6c0-0.8,0.5-1.3,0.9-2c0-2.8-1.7-5.1-3.4-6.9c-0.8-0.6-1.7-1.1-2.3-1.2c-0.1,0.6-0.1,1.4-0.4,2.1
		c-0.1,0-0.1,0-0.1,0c0-0.4,0-0.8,0-1.2h-0.1c0.1-1.8,0.1-1.8,0.1-1.7c0,0,0.1,0,0.1,0c0.7,0.1,1.4,0.2,2.1,0.4
		C233.2,389.4,232.7,386.6,232.1,385L232.1,385z M260.8,387.5c-0.3,0.4-0.7,0.8-1.3,1.3c-0.6,0.4-1.4,0.8-2.2,1.1v1.1
		c0.5-0.1,1-0.3,1.6-0.6c0.6-0.3,1-0.5,1.4-0.8v7.5h1.5v-9.6H260.8z M269.4,387.5c-1.1,0-2,0.3-2.7,0.9c-0.7,0.6-1.1,1.4-1.1,2.4
		c0,0.9,0.3,1.7,1,2.3c0.7,0.6,1.5,0.9,2.5,0.9c0.6,0,1.2-0.1,1.7-0.4c0.5-0.2,0.9-0.5,1.2-0.9c0,0.1,0,0.2,0,0.2
		c0,0.5-0.1,1-0.2,1.4c-0.1,0.5-0.3,0.9-0.6,1.1c-0.2,0.3-0.5,0.5-0.8,0.7c-0.3,0.2-0.7,0.3-1.2,0.3c-0.5,0-1-0.1-1.3-0.4
		c-0.3-0.2-0.6-0.6-0.7-1.2l-1.4,0.1c0.1,0.8,0.5,1.3,1.1,1.8c0.6,0.4,1.4,0.6,2.3,0.6c0.9,0,1.7-0.2,2.3-0.6
		c0.7-0.4,1.2-0.9,1.5-1.7c0.3-0.7,0.5-1.7,0.5-2.9c0-1.2-0.2-2.1-0.5-2.7c-0.3-0.6-0.8-1.1-1.5-1.4
		C270.9,387.6,270.2,387.5,269.4,387.5z M278.9,387.5c-0.9,0-1.6,0.2-2.2,0.6c-0.6,0.4-1,0.9-1.3,1.6c-0.3,0.7-0.4,1.6-0.4,2.7
		c0,1.8,0.4,3.1,1.2,3.9c0.7,0.7,1.6,1,2.8,1c0.9,0,1.6-0.2,2.2-0.6c0.6-0.4,1-0.9,1.3-1.6c0.3-0.7,0.4-1.6,0.4-2.7
		c0-1-0.1-1.7-0.3-2.3c-0.2-0.6-0.4-1-0.8-1.4c-0.3-0.4-0.7-0.7-1.2-0.9C280.2,387.6,279.6,387.5,278.9,387.5z M285.8,387.6
		l-1.2,4.9l1.4,0.1c0.2-0.3,0.5-0.5,0.9-0.7c0.4-0.2,0.8-0.3,1.3-0.3c0.8,0,1.4,0.2,1.9,0.6c0.5,0.4,0.7,0.9,0.7,1.6
		c0,0.7-0.2,1.3-0.7,1.7c-0.5,0.4-1.1,0.6-1.8,0.6c-0.6,0-1.1-0.1-1.5-0.4c-0.4-0.3-0.7-0.8-0.8-1.4l-1.6,0.1
		c0.1,0.8,0.5,1.5,1.2,1.9c0.7,0.5,1.6,0.7,2.7,0.7c1.3,0,2.4-0.4,3.2-1.2c0.6-0.6,1-1.4,1-2.2c0-0.9-0.4-1.7-1.1-2.2
		c-0.7-0.6-1.6-0.9-2.7-0.9c-0.8,0-1.6,0.2-2.3,0.6l0.7-2.6h4.8v-1.1H285.8z M269.5,388.4c0.6,0,1.2,0.2,1.7,0.6
		c0.5,0.4,0.7,0.9,0.7,1.6c0,0.7-0.2,1.2-0.7,1.6c-0.4,0.4-1,0.6-1.7,0.6c-0.7,0-1.2-0.2-1.7-0.6c-0.5-0.4-0.7-0.9-0.7-1.5
		c0-0.7,0.2-1.2,0.7-1.7C268.3,388.6,268.9,388.4,269.5,388.4z M278.9,388.4c0.7,0,1.3,0.3,1.7,0.8c0.5,0.5,0.7,1.6,0.7,3.2
		c0,1.6-0.2,2.6-0.7,3.1c-0.5,0.5-1,0.8-1.7,0.8c-0.7,0-1.3-0.3-1.7-0.8c-0.5-0.5-0.7-1.6-0.7-3.2c0-1.6,0.2-2.7,0.8-3.2
		C277.7,388.7,278.2,388.4,278.9,388.4z M317,395.6c0.7,1.2,1.8,1.5,3.4,2.1c0.3,2.1-1.4,3.9-2.7,5.3c-0.7,1.5-1.5,2.6-2.8,3.7
		c0-0.5,1.4-1.7,1.8-2.2C317.8,401.6,317,398.4,317,395.6z M322.8,397c0,1-2.2,5-2.8,6.1C320.2,400.9,321.8,398.8,322.8,397z
		 M267,403.4c-2.1,0.6-4.2,2.3-6,3.5c-1.9,2.1-1.4,4.3-1.3,7.2c-0.1,0.1-0.1,0.2-0.2,0.3h-0.2c-0.2-2.2,0.1-5.3-1.9-6.3
		c-2.1-0.4-4.1-0.4-6.2-0.2c0,0.7,1.9,3,1.2,3.4c-0.9-1.3-2.1-2.8-2.6-4c1.1-0.5,1.1-0.5,1.2-0.6c-0.4-0.8-0.7-1.7-1-2.5
		c-0.1,0-0.2,0-0.3,0c-2.1,3.4-4.2,7.3-2.6,11.5c1.5,2.2,4.1,4.6,6.5,6.4c-0.4-1.9-0.1-1.9,1.3-2.8c0.1,0,0.2,0,0.3,0
		c1.8,2.4,4.4,5.2,8,4.9c0.1-0.2,0.1-0.3,0.2-0.4c0.7,0,0.8,0.2,1.6,0.4c0-0.2,0-0.5-0.1-0.7c-1-0.4-1.4-1.1-1.9-1.2
		c-0.1,0.4-0.1,0.4-0.2,0.5c-0.7,0-1.2-1.7-1.3-2c-0.5-0.9-1.1-1.7-1.2-2.5c0.3,0,1.5,2.1,1.9,2.7c2,1.2,4.6,1.9,6.5,3.6
		c0.1,0,0.2,0,0.3,0c0.7-2,1.6-3.6,2.6-5.4c1.1-3.8-0.3-6.4-2.5-9c-1.1-1.9-1.7-3.4-2-5.4C267,404.5,267,403.9,267,403.4L267,403.4z
		 M318.4,406.2c-0.9,0.3-6,5.8-4.8,6.4c1.9,0.3,3.8,0.6,5.9,0.6c2.9-0.8,4.6-2.2,6.8-4.3c0.3-0.2,1.1-0.4,1.2-0.8
		c-0.6-0.9-2.5-1.1-3.2-1.2h-2.9C320.3,406.8,319.2,406.6,318.4,406.2z M259.3,414.8c0.1,0,0.1,0,0.2,0c0.2,0.6,0.5,1.4,0.5,2.2
		c-0.5-0.7-1.3-1.7-1.3-2.2C258.8,414.9,259,414.8,259.3,414.8z M291.6,419.3c0.7,1.1,1.4,1.8,1.3,3.5c-0.8,1.3-0.9,2.1-2.4,2.4
		c-0.2-0.2-0.2-0.2-0.2-0.5c-2.4-0.7-2.4-0.7-2.5-0.9C290.2,422.4,290.6,422,291.6,419.3z M251.2,423.3c0.4,0,1.2,0.2,1.6,0.8
		c-0.5-0.2-1-0.4-1.5-0.6C251.3,423.4,251.2,423.4,251.2,423.3z M253.1,424.3c0.2,0.1,0.4,0.2,0.6,0.2v0.2c-0.3,0.1-0.5,0.2-0.7,0.3
		C253,424.8,253.1,424.6,253.1,424.3z M295.8,424.3c-0.3,0.4-0.3,0.4-0.3,0.6c0.1,0.1,0.6,0.3,0.8,0.7c-0.4,0-0.4,0-1-0.1
		c-0.7-0.7-3,0.5-3.7,0.7c0-0.1,0-0.1,0-0.1C293.2,425.1,294,424.8,295.8,424.3L295.8,424.3z M289.4,425.2c-0.3,0.6-1.4,1-2,1
		c-0.2-0.1-0.3-0.2-0.4-0.3C287.8,425.7,288.6,425.4,289.4,425.2z M252.4,425.7h0.1c-0.1,0.5-0.6,0.8-0.7,1.4c-0.1,0-0.1,0-0.2,0
		C251.6,426.4,252.1,426.2,252.4,425.7L252.4,425.7z M273.3,425.7c0.1,0.8,0.1,4.1,0.8,4.7h0.3c-0.2-1.6-0.4-3.2-0.5-4.7H273.3z
		 M269.9,427.2c0.3,1.1,0.7,1.3,2.1,1.8c0.2,0,0.4-0.1,0.7-0.3v-1c-0.4-0.1-0.8-0.2-1.2-0.3c-0.1,0.2-0.2,0.3-0.2,0.5
		C270.6,427.8,270.1,427.2,269.9,427.2z"/>
	<path id="path110" class="st3" d="M207.2,406.8l-12.4,5.5l-1.1-2.6l4.6-2.1l-2.3-5.1l-4.6,2.1l-1.1-2.6l12.4-5.5l1.1,2.6l-5.5,2.5
		l2.3,5.1l5.5-2.5L207.2,406.8z M193.1,389.8l-0.5-3.3c-0.1-0.7-0.3-1.2-0.7-1.5c-0.3-0.3-0.8-0.4-1.4-0.3c-0.6,0.1-1,0.3-1.3,0.7
		c-0.3,0.4-0.3,0.9-0.2,1.5l0.5,3.4L193.1,389.8L193.1,389.8z M201.1,391.4l-13.5,2.1l-1-6.5c-0.2-1.5-0.1-2.6,0.4-3.4
		c0.5-0.8,1.4-1.3,2.7-1.5c0.8-0.1,1.5-0.1,2.1,0.2c0.6,0.3,1.1,0.7,1.4,1.3c0.1-0.6,0.4-1.1,0.8-1.4c0.4-0.3,1-0.6,1.9-0.7l1.6-0.3
		c0,0,0,0,0.1,0c0.8-0.1,1.3-0.4,1.4-0.8l0.4-0.1l0.5,3c-0.2,0.1-0.4,0.2-0.7,0.3c-0.3,0.1-0.6,0.2-1,0.3l-1.4,0.3
		c-0.8,0.2-1.4,0.4-1.6,0.7c-0.2,0.3-0.3,0.9-0.2,1.6l0.5,2.9l5.2-0.8L201.1,391.4L201.1,391.4z M198.9,372.5l-13.8,4.2l0.1-3.1
		l10.3-2.5l-10.1-3.3l0.1-3.1l13.5,5.1L198.9,372.5L198.9,372.5z M190,353.9l5.2,3.1l0.9-3.7L190,353.9z M186.9,354.9l0.7-3.2
		L202,350l-0.7,2.9l-2.9,0.3l-1.2,5.1l2.5,1.5l-0.7,2.9L186.9,354.9L186.9,354.9z M204.4,343.9l-10.1-4.7l-1.7,3.7l-2.2-1l4.6-9.8
		l2.2,1l-1.7,3.6l10.1,4.7L204.4,343.9z M205.2,332.1l1.6-2.2c0.7,0.4,1.3,0.4,1.9,0.2c0.6-0.2,1.2-0.7,1.7-1.5
		c0.5-0.7,0.7-1.2,0.7-1.7c0-0.5-0.2-0.9-0.7-1.3c-0.7-0.5-1.9,0.1-3.8,1.7c0,0,0,0-0.1,0.1c0,0-0.1,0.1-0.2,0.2
		c-1,0.9-1.8,1.4-2.4,1.6c-0.5,0.2-1.1,0.3-1.7,0.2c-0.6-0.1-1.1-0.4-1.7-0.8c-1.1-0.8-1.6-1.7-1.7-2.9c0-1.1,0.4-2.4,1.4-3.8
		c0.9-1.3,2-2.1,3.1-2.4c1.1-0.3,2.3,0,3.4,0.7l-1.6,2.2c-0.6-0.3-1.1-0.4-1.7-0.3c-0.5,0.2-1.1,0.6-1.6,1.3
		c-0.4,0.6-0.6,1.1-0.7,1.6c0,0.5,0.2,0.9,0.6,1.2c0.6,0.4,1.5,0.1,2.7-0.9c0.3-0.3,0.6-0.5,0.8-0.7c0.8-0.7,1.4-1.1,1.7-1.4
		c0.4-0.3,0.7-0.5,1-0.6c0.6-0.3,1.1-0.4,1.7-0.3c0.6,0.1,1.1,0.3,1.7,0.7c1.1,0.8,1.8,1.9,1.8,3.1c0.1,1.2-0.4,2.6-1.4,4
		c-1,1.4-2.1,2.2-3.3,2.6C207.6,333.1,206.4,332.9,205.2,332.1L205.2,332.1z M217.9,321.9l-9.3-10l2-1.9l3.8,4.1l0.1-7.7l2.6-2.4
		l-0.2,7.7l9.9,1.9l-2.5,2.3l-7.5-1.5l-0.1,2l3.3,3.5L217.9,321.9L217.9,321.9z M229.9,311.4l-7.8-11.2l2.3-1.6l7.8,11.2
		L229.9,311.4L229.9,311.4z M244.5,298.4l2.6-0.9c0.3,0.7,0.8,1.1,1.4,1.3c0.6,0.2,1.3,0.1,2.3-0.2c0.8-0.3,1.3-0.6,1.6-1
		c0.3-0.4,0.4-0.9,0.2-1.4c-0.3-0.8-1.6-1.1-4-0.9c0,0-0.1,0-0.1,0c-0.1,0-0.2,0-0.3,0c-1.3,0.1-2.3,0.1-2.9,0
		c-0.6-0.1-1-0.4-1.4-0.8c-0.4-0.4-0.7-1-0.9-1.6c-0.4-1.3-0.3-2.4,0.3-3.3c0.6-0.9,1.8-1.7,3.4-2.2c1.5-0.5,2.8-0.5,3.9-0.1
		c1.1,0.4,1.9,1.3,2.3,2.6l-2.6,0.8c-0.3-0.6-0.6-1-1.2-1.2c-0.5-0.2-1.2-0.2-2,0.1c-0.7,0.2-1.2,0.5-1.5,0.9
		c-0.3,0.4-0.4,0.8-0.2,1.4c0.2,0.7,1.1,1,2.7,0.8c0.4,0,0.8-0.1,1-0.1c1-0.1,1.8-0.1,2.2-0.1c0.4,0,0.8,0,1.2,0.1
		c0.6,0.1,1.1,0.4,1.6,0.8c0.4,0.4,0.7,0.9,1,1.6c0.4,1.3,0.3,2.5-0.3,3.6s-1.8,1.8-3.5,2.4c-1.6,0.5-3,0.6-4.2,0.1
		C245.9,300.7,245,299.8,244.5,298.4L244.5,298.4z M242.7,284.2l1.2-0.4l2.2,1.4l0.9-2.4l1.2-0.4l-0.7,3.8l-2.1,0.7L242.7,284.2
		L242.7,284.2z M262.6,290.5l2.7-0.3c0.7-0.1,1.2-0.3,1.5-0.7c0.3-0.4,0.4-0.9,0.3-1.6c-0.1-0.6-0.3-1.1-0.7-1.4
		c-0.4-0.3-0.9-0.4-1.5-0.3l-2.8,0.3L262.6,290.5L262.6,290.5z M262.9,292.9l0.6,4.8l-2.8,0.3l-1.7-13.5l6-0.7
		c1.4-0.2,2.5,0.1,3.4,0.7c0.8,0.6,1.3,1.7,1.5,3.1c0.2,1.4-0.1,2.5-0.7,3.4c-0.6,0.8-1.6,1.3-2.9,1.5L262.9,292.9z M278.5,290.2
		c-0.1,1.5,0.1,2.7,0.8,3.6c0.6,0.9,1.5,1.4,2.7,1.4c1.2,0.1,2.2-0.3,2.9-1c0.7-0.8,1.1-1.9,1.2-3.4c0.1-1.5-0.1-2.7-0.8-3.6
		c-0.6-0.9-1.5-1.4-2.7-1.4c-1.2-0.1-2.2,0.3-2.9,1C279,287.6,278.6,288.7,278.5,290.2L278.5,290.2z M275.7,290
		c0.2-2.2,0.9-3.9,2.2-5.1c1.3-1.2,2.9-1.7,5-1.6c2,0.1,3.6,0.9,4.7,2.3c1.1,1.4,1.6,3.2,1.4,5.3c-0.2,2.2-0.9,3.9-2.2,5.1
		c-1.3,1.2-3,1.7-5,1.6c-2-0.1-3.6-0.9-4.7-2.3C276,294,275.5,292.2,275.7,290L275.7,290z M297.9,292.8l3.1,1
		c0.7,0.2,1.2,0.2,1.6,0.1c0.4-0.2,0.7-0.6,0.9-1.1c0.2-0.6,0.2-1,0-1.4c-0.2-0.4-0.6-0.7-1.2-0.9l-3.3-1.1L297.9,292.8L297.9,292.8
		z M292.9,299.3l4.2-13l6.3,2c1.4,0.5,2.4,1.1,2.8,1.9c0.5,0.8,0.5,1.9,0.1,3.1c-0.3,0.8-0.6,1.4-1.1,1.8c-0.5,0.4-1.1,0.6-1.8,0.6
		c0.5,0.4,0.8,0.8,0.9,1.3c0.1,0.5,0,1.2-0.2,2.1l-0.4,1.5c0,0,0,0,0,0.1c-0.2,0.8-0.2,1.3,0,1.6l-0.1,0.4l-2.9-1c0-0.2,0-0.5,0-0.7
		c0-0.3,0.1-0.6,0.2-1l0.4-1.4c0.2-0.8,0.3-1.4,0.1-1.8c-0.2-0.4-0.6-0.7-1.3-0.9l-2.8-0.9l-1.6,5L292.9,299.3L292.9,299.3z
		 M310.2,306.2l5.4-9.8l-3.5-2l1.2-2.1l9.5,5.3l-1.2,2.1l-3.5-1.9l-5.4,9.8L310.2,306.2L310.2,306.2z M321.8,308.5l2.1,1.8
		c-0.4,0.6-0.5,1.2-0.4,1.9c0.1,0.6,0.6,1.2,1.3,1.8c0.6,0.5,1.2,0.8,1.7,0.9c0.5,0.1,0.9-0.1,1.3-0.6c0.5-0.6,0.1-1.9-1.3-3.9
		c0,0,0,0,0-0.1c0-0.1-0.1-0.1-0.2-0.2c-0.8-1-1.3-1.9-1.4-2.5c-0.2-0.5-0.2-1.1,0-1.7c0.2-0.6,0.5-1.1,0.9-1.6c0.9-1,1.9-1.5,3-1.4
		c1.1,0.1,2.4,0.6,3.6,1.8c1.2,1,1.9,2.1,2.1,3.3c0.2,1.2-0.2,2.3-1,3.3l-2-1.8c0.4-0.5,0.5-1.1,0.4-1.6c-0.1-0.6-0.5-1.1-1.1-1.7
		c-0.6-0.5-1.1-0.7-1.6-0.8c-0.5,0-0.9,0.1-1.3,0.5c-0.5,0.5-0.2,1.5,0.7,2.7c0.3,0.3,0.5,0.6,0.6,0.8c0.6,0.8,1,1.5,1.2,1.8
		c0.2,0.4,0.4,0.7,0.5,1.1c0.2,0.6,0.3,1.2,0.1,1.7c-0.1,0.6-0.4,1.1-0.9,1.7c-0.9,1.1-2,1.6-3.2,1.5c-1.2,0-2.5-0.6-3.8-1.8
		c-1.3-1.1-2-2.3-2.3-3.5C320.6,310.8,320.9,309.6,321.8,308.5L321.8,308.5z M330.4,322.3l10.6-8.6l1.8,2.2l-4.3,3.5l7.7,0.6
		l2.2,2.7l-7.7-0.8l-2.6,9.7l-2.2-2.7l2-7.4l-2-0.2l-3.7,3L330.4,322.3L330.4,322.3z M339.6,335.2l11.8-6.8l1.4,2.4l-11.8,6.8
		L339.6,335.2L339.6,335.2z M347.2,352.7l13.4-2.4l0.5,2.8l-5.5,1l6.4,4.3l0.6,3.5l-6.4-4.4l-7,7.2l-0.6-3.4l5.4-5.5l-1.7-1.2
		l-4.7,0.8L347.2,352.7L347.2,352.7z M349.5,368.2l13.6,0.2l0,2.8l-11.1-0.2l-0.1,6.6l-2.5,0L349.5,368.2L349.5,368.2z M362.4,383.5
		l-0.4,2.8l-8.4-1.3c-1-0.2-1.8-0.1-2.4,0.3c-0.5,0.3-0.9,1-1,1.9c-0.1,0.9,0,1.6,0.4,2.1c0.4,0.5,1.1,0.8,2.2,1l8.4,1.3l-0.4,2.8
		l-8.7-1.4c-1.6-0.3-2.8-0.9-3.6-2c-0.7-1.1-1-2.5-0.7-4.2c0.3-1.7,0.9-3,2-3.8c1-0.8,2.4-1.1,4-0.8L362.4,383.5L362.4,383.5z
		 M346.6,400.6l-1.3,3c-0.3,0.7-0.4,1.3-0.3,1.7c0.1,0.4,0.4,0.8,1,1c0.6,0.3,1.1,0.3,1.5,0.1c0.4-0.2,0.8-0.7,1.1-1.4l1.3-3
		L346.6,400.6z M351.9,403l-1.3,2.9c-0.3,0.6-0.4,1.1-0.3,1.5c0.1,0.4,0.4,0.7,0.8,0.9c0.5,0.2,0.9,0.2,1.2,0
		c0.3-0.2,0.6-0.6,0.9-1.3l1.3-2.9L351.9,403L351.9,403z M345.4,397.1l12.4,5.5l-2.6,5.9c-0.6,1.3-1.3,2.1-2.1,2.6
		c-0.8,0.4-1.8,0.4-2.8,0c-0.6-0.3-1.1-0.6-1.4-1.1c-0.3-0.4-0.5-1-0.5-1.6c-0.5,0.5-1.1,0.8-1.8,0.9c-0.6,0.1-1.3,0-2-0.3
		c-1.2-0.5-2-1.4-2.3-2.4c-0.3-1.1-0.1-2.3,0.5-3.8L345.4,397.1L345.4,397.1z"/>
	<path id="path112" class="st1" d="M214.1,437.9l8.4-10.4l3.2,2.6l-4.3,9.6l8.4-6.3l3.2,2.6l-8.4,10.4l-2-1.6l6.8-8.4l-8.9,6.7
		l-2.2-1.8l4.6-10.1l-6.8,8.4L214.1,437.9L214.1,437.9z M240.7,447.5c-0.6,1.4-0.7,2.5-0.4,3.5c0.3,1,1,1.7,2.1,2.2
		c1.1,0.4,2.1,0.4,3-0.1c0.9-0.5,1.6-1.4,2.2-2.8c0.6-1.4,0.7-2.5,0.4-3.5c-0.3-1-1-1.7-2.1-2.2c-1.1-0.4-2.1-0.4-3,0.1
		C242,445.2,241.3,446.1,240.7,447.5L240.7,447.5z M238.1,446.4c0.8-2,2-3.4,3.6-4.1c1.6-0.7,3.3-0.7,5.1,0c1.9,0.7,3.1,1.9,3.7,3.6
		c0.6,1.6,0.5,3.4-0.3,5.4c-0.8,2-2,3.4-3.6,4.1c-1.6,0.7-3.3,0.7-5.1,0c-1.9-0.7-3.1-1.9-3.7-3.5
		C237.2,450.2,237.3,448.4,238.1,446.4L238.1,446.4z M259.8,455.8l2.7,0.4c0,0.7,0.2,1.3,0.7,1.7c0.4,0.4,1.1,0.7,2.1,0.8
		c0.8,0.1,1.4,0.1,1.8-0.2c0.4-0.2,0.7-0.6,0.8-1.2c0.1-0.8-0.9-1.6-3.2-2.5c0,0-0.1,0-0.1,0c-0.1,0-0.1-0.1-0.3-0.1
		c-1.2-0.4-2-0.9-2.5-1.3c-0.4-0.4-0.7-0.8-0.9-1.4c-0.2-0.5-0.2-1.2-0.1-1.8c0.2-1.3,0.8-2.2,1.7-2.8c1-0.6,2.3-0.7,3.9-0.5
		c1.5,0.2,2.7,0.8,3.5,1.6c0.8,0.9,1.1,1.9,0.9,3.3l-2.6-0.4c0-0.6-0.1-1.2-0.5-1.6c-0.4-0.4-1-0.7-1.8-0.8c-0.7-0.1-1.3,0-1.7,0.2
		c-0.4,0.2-0.7,0.6-0.7,1.1c-0.1,0.7,0.6,1.3,2,1.9c0.4,0.2,0.7,0.3,0.9,0.4c0.9,0.4,1.6,0.7,2,0.9c0.4,0.2,0.7,0.4,1,0.6
		c0.5,0.4,0.8,0.8,1,1.4c0.2,0.5,0.3,1.1,0.2,1.8c-0.2,1.4-0.8,2.4-1.8,3c-1,0.6-2.4,0.8-4.1,0.6c-1.7-0.2-2.9-0.8-3.8-1.7
		C260,458.4,259.7,457.2,259.8,455.8L259.8,455.8z M285.2,460.5l-1.5-10.9l-3.9,0.6l-0.3-2.4l10.5-1.5l0.3,2.4l-3.9,0.5l1.5,10.9
		L285.2,460.5L285.2,460.5z M303.7,444.7l0.4,6l3.4-1.4L303.7,444.7z M301.3,442.8l2.9-1.2l9.5,10.6l-2.7,1.1l-1.9-2.2l-4.8,1.9
		l0.2,2.9l-2.7,1.1L301.3,442.8L301.3,442.8z M321.3,438.7l2.5-2c0.5-0.4,0.9-0.9,0.9-1.3c0.1-0.4-0.1-0.9-0.5-1.4
		c-0.4-0.5-0.8-0.7-1.2-0.7c-0.4,0-0.9,0.2-1.4,0.6l-2.6,2.1L321.3,438.7L321.3,438.7z M323.9,446.3l-8.4-10.4l5-4.1
		c1.1-0.9,2.2-1.4,3.1-1.3c0.9,0,1.8,0.6,2.6,1.6c0.5,0.6,0.8,1.3,0.9,1.9c0.1,0.6-0.1,1.2-0.4,1.8c0.6-0.2,1.1-0.2,1.6,0
		c0.5,0.2,1,0.6,1.6,1.3l1,1.2c0,0,0,0,0,0c0.5,0.6,1,0.9,1.3,0.8l0.3,0.3l-2.3,1.9c-0.2-0.1-0.4-0.2-0.6-0.4
		c-0.2-0.2-0.4-0.4-0.7-0.7l-0.9-1.1c-0.5-0.6-1-1-1.4-1c-0.4,0-0.9,0.2-1.5,0.6l-2.3,1.8l3.3,4L323.9,446.3L323.9,446.3z"/>
</g>
</svg>
