<?xml version="1.0" encoding="utf-8"?>
<!-- Generator: Adobe Illustrator 21.1.0, SVG Export Plug-In . SVG Version: 6.00 Build 0)  -->
<svg version="1.1" id="Layer_1" xmlns="http://www.w3.org/2000/svg" xmlns:xlink="http://www.w3.org/1999/xlink" x="0px" y="0px"
	 viewBox="0 0 200 200" style="enable-background:new 0 0 200 200;" xml:space="preserve">
<style type="text/css">
	.st0{fill:#0C4099;}
	.st1{fill:#FFFFFF;}
	.st2{fill:#FFD600;}
</style>
<g>
	<path id="path3" class="st0" d="M183.9,1.6c3.7,8.9,18.9,50,4.3,102.7c-19.6,56.4-58.9,82.1-85.3,95.7
		c-31.7-15.4-69.1-43.6-84.8-83.7c-18.6-40-13.4-86-3.8-115.1c41.9,11.2,59,8.3,85.9-1.2C129.8,13.1,169.9,6.3,183.9,1.6L183.9,1.6z
		"/>
	<path id="path5" class="st1" d="M181.6,5.4c5.9,17.6,15.5,49.3,3.3,98.1c-22.9,61.4-61.6,80.8-82.2,93
		c-34-21.2-65.1-40.7-81.8-82.4C2.5,74.6,10,26.3,16.5,5.2c36,10.6,56.2,8.4,83.6-1C112.4,10,150.8,16.4,181.6,5.4L181.6,5.4z"/>
	<path id="path7" class="st0" d="M149.5,17.8c-17.9,35.3-51.8,52.5-60.1,56.6c-15.1,8.6-47,16-67.8,17.3
		c-3.5-5.4-10.7-40.8-1.1-77.2c23.9,5.8,52.5,7.8,77.9-2.9C100.9,12.8,133.4,21.2,149.5,17.8L149.5,17.8z"/>
	<path id="path9" class="st2" d="M56.2,29c-1,0.4-0.6,1.5-1.5,1.5c-0.2,0.8-0.2,1.7,0,2.5c2.1,0.2,1-2.7,2.7-2.5
		c0.4,1.4-1.7,1-1.4,2.1c-0.4,0-0.4,0.4-0.6,0.4c-0.2,0.6,0.2,1,0.4,1.6c0.2,0,0.4,0,0.6-0.2v-0.6c0.8,1,1.4-0.2,2.1-0.6
		c0.2-0.8,1-1.2,1.6-1.7c0.2,1-0.4,2.3,0.4,3.1c1.5,0.8,1.9-1.4,3.5-0.6l1.4-1.7c0,0.4-0.2,0.6-0.2,1l0.2,0.2c0-0.2-0.6,0.6-1.2,1
		c0.6,0.6,1,1.2,2.1,1c1.2-1.6,2.2-1.4,3.3-2.9c-1.8,1-1,3.5-2.9,3.1c-0.8,1-2.1,1-3.3,0.8v-0.6c0.2,0,0.2,0,0.4-0.2
		c0-0.2-0.2-0.4-0.4-0.6c-1.4,0.2-1.5,2.1-1.9,3.3c-0.2-0.2-0.4,0.2-0.4,0.4c0,0.4,0,0.8,0.4,1l0.4-0.4c0.6,0.8,1.5,0.2,2.3,0.4
		c1.7-0.8,2.7-1.7,4.3-2.9c-0.4,1.4-3.7,1.4-2.3,3.1c2.7,0.8,2.9-2.1,5.2-2.1c-1.7,0.8-2.9,2.5-4.7,3.3v0.4c-0.2-0.2-0.4,0-0.4,0.2
		c0-0.4-0.4-0.4-0.4-0.6h-1.6c-0.2-1-1.6-0.2-1.9-0.8c-1.6-0.4-2.9-1.4-4.7-1.6c-1.7-1.2-3.1-2.7-5-3.5c0,1-2.3,1.7-0.8,2.7
		c0.6,0.4,0.8-1,1.4-0.2c-0.2,0.4-1.2-0.2-1.4,0.6c0.8,0.4,0,1.7,1.4,1.4c-0.4,0-1,0-0.8,0.4c0,1,0.6,1.5,1.4,1.9
		c-0.2,0.6-1,0.8-1.4,0.2c-0.4-0.2-0.4,0.2-0.6,0.4c-0.2,0.6,0.2,1,0.4,1.3c0.6,0.2-2.1-0.4-1.3,1.2c0.6,0,1,0.8,0.4,1.2L50,45.5
		c-1.2,1.2,1.2,1.5,1,2.7c0.4-0.4,0.6-0.6,1.2-0.4c0.2,2.1,1.4-1,2.1-0.4c0,0.6,0,0.8,0.4,1.2c1.5-0.4,4.1,0.4,5.8-0.4
		c2.9-0.4,6-0.6,8.2,1.6h1c-0.2,0.4,0.2,0.6,0.6,0.4c0.2,0,0.6,0.2,0.8-0.2v-0.2h0.4c-0.2,0.6-1.2,0.6-0.8,1.5
		c0.2-1.5-2.5-0.4-3.5-1.9c-0.4,0.4-0.2,1-0.2,1.4c1.3,1.7,1.6,4.1,1.3,6.4h-0.2c-0.2,1.6-0.8,4.5,1.4,4.9H70
		c-0.2,1.9-2.3,3.7-3.3,5.4v0.4c-1.4,0.8-1.5,2.5-1.5,3.9c0-0.4-0.8-0.4-1.4-0.4c-0.4,0.8,0,1.8-1,2c-0.4-0.2-0.6-0.6-0.4-1
		c0.2,0,0.4-0.2,0.8-0.6c0-0.2-0.2-0.2-0.2-0.4c1.5-1.9,4.3-4.5,4.1-8.1c-1.6-2.1-3.3-2.5-5.2-3.1c0.4-1.8-2-2.7-2-4.3
		c-0.6-0.4-1.4-0.2-1.9-0.2c-0.4,1.7-2.9-0.4-3.1,1.7c2.9,1.4,4.5,3.1,6.6,5l1.4-1c0.8,1.4-0.4,2.7-1.6,3.3
		c-1.7,0.6-1.7,3.1-3.7,3.5c-0.2,1.6-2.1,2.5-1.4,4.5c0.2-0.4-0.2-0.8-0.6-0.8c-1,0.6-1.8,1.7-2.7,1.7c1-1.2,0.4-3.3,2.7-3.3
		c1-2.3,4.1-4.3,4.1-7.2c-1.8-1.8-3.9-2.7-4.9-4.9c-0.2-0.4-0.8-0.2-1.2-0.4c-0.2,1.2-1.2,0.8-1.8,1.2c-0.6-1.6-3.9,0.6-3.3-2.1
		c-0.6,0-0.8,0-1.2,0.4c0.6,1.6,0,2.1-0.2,3.5c0.4,3.7-0.8,8.2,1.2,10.9c-1.2,1-1.2,2.7-2.7,2.7c-0.8-1.9,1.2-2.1,0.8-3.9
		c1.2-1.2-0.4-2.5-0.2-3.9c-2.9-2.3,0.4-10.7-6.8-8c-1.2-0.2-1.7-0.8-3.1-0.2c1.4,1.6,1.2,4.3,2.3,6h1.7c0,0.4-0.2,0.8-0.2,1.2
		c0.8,0.8,2.5,0,2.7,1.6v0.6l-0.8-1c-0.4,0.8-1.2,0.6-2,0.6c-0.8-1.2-1.8-2.7-2.9-3.9c0.2-2.3-3.9-4.5-1.9-6.8
		c1.8-0.4,4.3-0.6,5.1-2.3c-1-0.8,0.4-2.9-1-3.9c-0.2,0.2-0.2,0.4-0.4,0.2c0.6-0.2,0.8-1.2,0.4-1.7l-0.2-0.2c1-0.4,0.6-1.4,0.6-2.1
		l-0.2-0.2c1.2,0,1.2-1.4,1.7-1.7c-1.4-1.2,0.8-2,1.2-2.9c1.6-0.8,2.3-1.7,4.1-2c0-0.4-0.6-0.6-0.8-1c-0.4,0-0.8,0-1,0.4v0.2
		c-1.4-2.5-4.3,1-5.6-1.4h1.4c0,0.2,0.2,0.2,0.2,0.4c0.4,0.2,0.6-0.2,1-0.4c0-0.6,0-1-0.4-1.4c-0.8,0-1.5,0.2-1.9-0.6
		c0.2-2.7,4.5-0.6,6-2.1c0.8-1.1,2.3,1.4,2.3-0.8c0.4-0.6-0.4-1-0.8-1.4v-0.6c0.8,0.6,2,1.6,2.9,1.2v-0.4c0.6,1.4,2.3,0.2,2.7,1.8
		c0.8-0.8,1.6-1.8,1.4-2.9C54.3,30.1,55,29.2,56.2,29L56.2,29z"/>
	<polygon id="polygon11" class="st1" points="60.1,31.1 60.5,30.5 61.3,30.9 	"/>
	<polygon id="polygon13" class="st1" points="70,32.1 70.6,31.3 70.4,31.7 	"/>
	<path id="path15" d="M52.1,33.8v0.6H51C50.6,33.6,51.7,33.2,52.1,33.8L52.1,33.8z"/>
	<path id="path17" d="M59.9,34.8c0,0.8,1,0,1.4,0.6c-0.6,1.2-0.4,2.1-1.5,2.7c-1.4-0.2-1.8-1.4-3.1-1.6c-0.4-0.2-0.8-1.4,0-1.5
		C57.7,33.4,58.3,35.4,59.9,34.8L59.9,34.8z"/>
	<path id="path19" d="M45.5,36h-1.4c0.2-0.4-0.2-1.2,0.4-1.4C44.9,34.8,46.1,35.2,45.5,36L45.5,36z"/>
	<path id="path21" d="M51,35.8v0.4h-0.8c0-0.2,0-0.4,0.2-0.6c-0.2,0-1.2-0.6-0.6-1C51,34,50.6,35.4,51,35.8L51,35.8z"/>
	<path id="path23" d="M49,38.9c0.4,0.8-0.6,1-1.2,1h-1C47.4,39.3,48,38.9,49,38.9L49,38.9z"/>
	<path id="path25" class="st2" d="M147.9,40.1c-3,3.4-1.9,23.2-1.9,23.2c1,0.6,13.5,4.8,14.6,5.1c2.1,1,11.2,4.7,18.8,3.1
		c0.6,0.8,0.6,1.6-0.2,2.3c-3.3,2.9-13.4,12.6-13.4,12.6c-1.3-1.2-0.2-2.3-1.6-3.6c-3.5-2-14.2-6-16.9-6.2c-1.2,1.7,0.2,5.2,0.2,5.2
		l8.7,8c1.8,1.7,3.3-1.4,5.1,0.5l-15,13.1c-1.7-2,2.2-4.2-0.5-6.6c-3.5-4.3-21.4-24-23.7-27c-2.8-3.6-4.5-0.1-5.8-2.1l14.2-13.5
		c1.2,1,0.7,2.5,0.3,2.9c-1.2,4.1,1.2,6.6,3.3,8.9l8.8,9.7c0,0-0.6-5.6-0.8-7.6c-1.6-12.3,1-19.5-2.7-21.6l0.2-1.4l6.1-5.9
		C145.7,39.6,147.3,38.2,147.9,40.1L147.9,40.1z"/>
	<path id="path27" class="st2" d="M105.4,104.4l7.3,15.7c2.6,4,4.7,0.4,5.8,3.1l-17.9,9c-1-2.4,2.3-3.3,0.8-6.9L84.8,88.6
		c-1.6-3.4-3.6,0-4.7-2.6l25.5-12.7c0,0,4.7-2.3,7.2-2.9l3.7,7.4c0,0-7.6-1.6-10.7-0.1c0,0-9.1,4.3-9.7,5.9l7.4,16.2l5.3-2.4
		c-0.8-1.7,0-3.7,0.9-4.2l4.3,10c-0.6,0.4-2.8-0.3-3.7-1.6C107.5,103.1,105.4,104.4,105.4,104.4L105.4,104.4z"/>
	<path id="path29" class="st0" d="M184,75.4c-1.4,36.2-24.5,64.6-29.5,71c-11.3,12.5-18,23.8-52,42.3c-18.1-7.5-49.6-35.3-51.3-39.2
		c37.5-3,63.1-17.1,74.8-25.1C137.7,117,148.6,110.6,184,75.4L184,75.4z"/>
	<path id="path31" class="st2" d="M51.3,97.7c-0.7-2.5-4.9,0.2-5.6-2.4L67,90.2c0.8,3.1-4.2,2.7-3.3,5.7c-0.2,0,10,40.5,10,40.5
		c0.9,3.2,4.6,0.3,5.6,3.1l-21.6,5c-0.4-2,3.8-2,3.2-5.4L51.3,97.7L51.3,97.7z"/>
	<path id="path33" class="st2" d="M147.6,137.2c-0.8,2-8,11.3-8,11.3l-2.1-1.8c1.9-1.6,3.2-4,4-5.8c-2.8-0.3-6.8-2.1-6.8-7
		c0.5-4.8,4.1-6.6,8.5-6.6C144.7,127.5,150.5,130.8,147.6,137.2L147.6,137.2z"/>
	<path id="path35" class="st0" d="M145.8,135.4c-0.2,2.9-8,4.9-8.1-1.9c0.5-2.2,2.2-3.7,4.7-3.6C145.4,130.4,146,133,145.8,135.4
		L145.8,135.4z"/>
	<polygon id="polygon37" class="st2" points="130,157.8 127.4,157.8 127.4,140.3 124.4,140.3 125.5,138 130,137.9 	"/>
	<path id="path39" class="st2" d="M120.3,155.1c-0.8,1.9-8,11.3-8,11.3l-2.1-1.8c2-1.6,3.2-4,4-5.8c-2.8-0.3-6.8-2.1-6.8-7
		c0.5-4.8,4.1-6.6,8.5-6.6C117.4,145.4,123.3,148.6,120.3,155.1L120.3,155.1z"/>
	<path id="path41" class="st0" d="M118.5,153.3c-0.2,2.9-8,4.9-8.1-1.9c0.5-2.2,2.2-3.8,4.8-3.5
		C118.1,148.3,118.7,150.9,118.5,153.3L118.5,153.3z"/>
	<polygon id="polygon43" class="st2" points="101.5,171 98.6,171 98.7,153.5 95.7,153.6 96.8,151.2 101.3,151.2 	"/>
</g>
</svg>
