<?xml version="1.0" encoding="utf-8"?>
<!-- Generator: Adobe Illustrator 21.1.0, SVG Export Plug-In . SVG Version: 6.00 Build 0)  -->
<svg version="1.1" id="Layer_1" xmlns="http://www.w3.org/2000/svg" xmlns:xlink="http://www.w3.org/1999/xlink" x="0px" y="0px"
	 viewBox="0 0 200 200" style="enable-background:new 0 0 200 200;" xml:space="preserve">
<style type="text/css">
	.st0{fill:#DEBE43;}
	.st1{fill:#231F20;}
	.st2{fill:#4164AD;}
	.st3{fill:#FFFFFF;}
</style>
<g>
	<path class="st0" d="M165.6,132.1C195.2,75.7,177.2,5.3,177.2,5.3s-15.4,18.1-41.8,17.5C111.8,22.2,100,1.4,100,1.4
		S88.2,22.2,64.5,22.8C38.1,23.4,22.8,5.3,22.8,5.3s-18,70.4,11.7,126.8c24.9,47.3,65.6,66.6,65.6,66.6S140.7,179.4,165.6,132.1z"/>
	<path class="st1" d="M99.8,1.3c-0.1,0.2-12,20.8-35.3,21.3c-26,0.6-41.5-17.3-41.6-17.4c0-0.1-0.1-0.1-0.2-0.1
		c-0.1,0-0.1,0.1-0.1,0.1c0,0.2-4.5,17.9-5.3,42.3c-0.7,22.5,1.6,55.5,17,84.7c12.9,24.5,30,41.3,42.2,51.1
		c13.1,10.6,23.4,15.5,23.5,15.6c0.1,0,0.1,0,0.2,0c0.1,0,10.3-4.9,23.5-15.6c12.1-9.8,29.3-26.6,42.2-51.1
		c15.3-29.2,17.7-62.1,17-84.7c-0.8-24.4-5.3-42.1-5.3-42.3c0-0.1-0.1-0.1-0.1-0.1c-0.1,0-0.1,0-0.2,0.1c-0.2,0.2-15.6,18-41.6,17.4
		C112.2,22,100.3,1.5,100.2,1.3c0-0.1-0.1-0.1-0.2-0.1S99.9,1.2,99.8,1.3z M64.5,23c22-0.5,33.9-18.8,35.5-21.2
		c1.5,2.5,13.5,20.7,35.5,21.2c24.4,0.6,39.6-15,41.7-17.3c0.6,2.6,4.5,19.4,5.2,41.9c0.1,2.3,0.1,4.6,0.1,7.1
		c0,22-3.3,51.2-17.1,77.4c-12.8,24.4-29.9,41.2-42,50.9c-12.6,10.2-22.5,15.1-23.3,15.5c-0.8-0.4-10.7-5.3-23.3-15.5
		c-12.1-9.8-29.2-26.5-42-50.9c-13.8-26.2-17.1-55.4-17.1-77.4c0-2.5,0-4.8,0.1-7.1C18.4,25,22.3,8.2,22.9,5.7
		C24.9,7.9,40.1,23.5,64.5,23z"/>
	<path class="st2" d="M175.9,78.4c-11.3,15.2-26.6,31.5-46.4,44.9c-26.9,18.2-53.7,27-73.8,31.2l0,0c8.5,10.5,17.1,18.6,24.1,24.2
		c9.1,7.4,16.7,11.9,20.4,13.9c3.6-2,11.3-6.5,20.4-13.9c11.6-9.4,28.1-25.6,40.4-49.1l0,0C169.6,112.9,174,94.8,175.9,78.4
		L175.9,78.4z"/>
	<path class="st1" d="M175.7,78.2C175.7,78.2,175.7,78.2,175.7,78.2c-13.5,18.1-29.1,33.2-46.4,44.9c-27.8,18.8-55.4,27.3-73.8,31.2
		c-0.1,0-0.1,0.1-0.2,0.1c0,0,0,0.1,0,0.1c0,0,0,0.1,0,0.1c7.2,8.9,15.3,17.1,24.1,24.2c9,7.3,16.7,11.9,20.4,13.9
		c0.1,0,0.1,0,0.2,0c3.7-2,11.3-6.6,20.4-13.9c11.7-9.5,28.1-25.7,40.5-49.2c7.8-14.7,12.8-32,15.1-51.3c0-0.1,0-0.2-0.1-0.2
		C175.9,78.1,175.8,78.1,175.7,78.2z M129.5,123.4c17.2-11.7,32.7-26.6,46.1-44.4c-2.3,19-7.3,36-15,50.5
		c-12.3,23.5-28.8,39.6-40.4,49c-9,7.3-16.5,11.8-20.2,13.8c-3.7-2.1-11.3-6.6-20.2-13.8c-8.7-7.1-16.7-15.1-23.9-23.9
		C74.3,150.7,101.9,142.2,129.5,123.4z"/>
	<path class="st3" d="M176.8,67.7c-10.8,15.8-27.4,35.5-50.4,51.1c-27,18.3-54,26.6-71.8,30.4c-0.9,0.2-1.8,0.4-2.7,0.5l0,0
		c-4.5-6-8.8-12.7-12.7-20.2c-2.7-5.1-4.9-10.2-6.8-15.5l0,0c14.7-1.7,43.8-7.3,72.6-26.9c29.1-19.7,45.8-48.1,53-62.9l0,0
		c6.6-2.5,11.9-5.8,15.8-8.8c1.3,7.4,2.9,18.8,3.3,32.4c0.1,2.1,0.1,4.4,0.1,6.7C177.3,58.8,177.1,63.2,176.8,67.7L176.8,67.7z"/>
	<path class="st1" d="M173.7,15.4c-4.9,3.7-10.2,6.6-15.8,8.7c0,0-0.1,0.1-0.1,0.1c-7.3,15-24,43.2-53,62.8
		c-28.8,19.5-57.8,25.2-72.5,26.9c-0.1,0-0.1,0-0.2,0.1c0,0.1-0.1,0.1,0,0.2c2,5.4,4.3,10.6,6.8,15.5c3.7,7,7.9,13.8,12.7,20.2
		c0,0.1,0.1,0.1,0.2,0.1l2.7-0.5c17.9-3.7,44.8-12.1,71.9-30.4c23.9-16.2,40.6-36.8,50.5-51.1c0,0,0-0.1,0.1-0.1
		c0.3-4.3,0.4-8.7,0.4-13.1c0-2.2,0-4.5-0.1-6.7c-0.4-13.6-2-25.2-3.3-32.4c0-0.1-0.1-0.1-0.1-0.1C173.9,15.3,173.8,15.4,173.7,15.4
		z M173.7,15.9c1.3,7.3,2.8,18.6,3.3,32.1c0.1,2.2,0.1,4.5,0.1,6.7c0,4.4-0.1,8.7-0.4,13c-9.8,14.4-26.5,34.9-50.4,51
		c-27,18.3-53.9,26.6-71.8,30.3c0,0-2.3,0.5-2.5,0.5c-4.7-6.4-9-13.1-12.6-20c-2.5-4.8-4.8-9.9-6.7-15.2
		c14.8-1.7,43.7-7.4,72.5-26.9c29-19.7,45.7-47.9,53.1-62.9C163.7,22.4,168.9,19.5,173.7,15.9z"/>
	<polygon class="st0" points="94.2,171.9 100,187.7 105.8,171.9 122.1,165.6 105.8,159.4 100,143.5 94.2,159.4 77.9,165.6 	"/>
	<path class="st1" d="M100,143.3c-0.1,0-0.2,0.1-0.2,0.1c0,0-5.7,15.6-5.7,15.7c-0.2,0.1-16.2,6.2-16.2,6.2c-0.1,0-0.1,0.1-0.1,0.2
		c0,0.1,0,0.2,0.1,0.2c0,0,16.1,6.2,16.2,6.2c0.1,0.2,5.7,15.7,5.7,15.7c0,0.1,0.1,0.1,0.2,0.1l0,0c0.1,0,0.2-0.1,0.2-0.1
		c0,0,5.7-15.6,5.7-15.7c0.2-0.1,16.2-6.2,16.2-6.2c0.1,0,0.1-0.1,0.1-0.2c0-0.1,0-0.2-0.1-0.2c0,0-16.1-6.2-16.2-6.2
		c-0.1-0.2-5.7-15.7-5.7-15.7C100.2,143.4,100.1,143.3,100,143.3z M94.3,159.5c0.1,0,0.1-0.1,0.1-0.1c0,0,5.2-14.4,5.6-15.3
		c0.3,0.9,5.6,15.3,5.6,15.3c0,0.1,0.1,0.1,0.1,0.1c0,0,15,5.7,15.9,6.1c-0.9,0.3-15.9,6.1-15.9,6.1c-0.1,0-0.1,0.1-0.1,0.1
		c0,0-5.2,14.4-5.6,15.3c-0.3-0.9-5.6-15.3-5.6-15.3c0-0.1-0.1-0.1-0.1-0.1c0,0-15-5.7-15.9-6.1C79.3,165.3,94.3,159.5,94.3,159.5z"
		/>
	<path class="st2" d="M150.8,26.5c-7.9,15-23.6,39.1-48.9,56.2c-28.6,19.4-57.7,24.7-71.4,26.1l0,0c-6.1-19.2-7.8-38.6-7.8-54.2
		c0-2.3,0-4.6,0.1-6.7c0.4-13.6,2-25,3.3-32.4c7.6,5.8,20.7,13,38.5,12.6C82.3,27.7,94,17.5,100,10.5c6,7,17.7,17.3,35.3,17.7
		C141,28.3,146.2,27.6,150.8,26.5L150.8,26.5z"/>
	<path class="st1" d="M99.9,10.3C94.4,16.7,82.6,27.5,64.7,28c-17.5,0.4-30.5-6.6-38.4-12.6c-0.1,0-0.1-0.1-0.2,0
		c-0.1,0-0.1,0.1-0.1,0.1c-1.3,7.3-2.9,18.8-3.3,32.4c-0.1,2.2-0.1,4.5-0.1,6.7c0,19.7,2.6,38,7.9,54.3c0,0.1,0.1,0.1,0.2,0.1
		c14.5-1.5,43.1-6.9,71.5-26.1c24.6-16.7,40.2-39.8,48.9-56.3c0-0.1,0-0.2,0-0.2c0-0.1-0.1-0.1-0.2-0.1c-5,1.2-10.2,1.8-15.5,1.6
		c-18-0.4-29.8-11.2-35.2-17.6c0,0-0.1-0.1-0.1-0.1S99.9,10.3,99.9,10.3z M64.7,28.3c18-0.4,29.8-11.1,35.3-17.6
		c5.5,6.5,17.4,17.2,35.3,17.6c5.1,0.1,10.2-0.4,15.2-1.6c-8.7,16.4-24.2,39.3-48.6,55.8c-28.2,19.1-56.6,24.5-71.1,26.1
		c-5.2-16.2-7.8-34.4-7.8-54c0-2.2,0-4.5,0.1-6.7c0.4-13.4,2-24.8,3.3-32.1C34.2,21.8,47.2,28.7,64.7,28.3z"/>
	<path class="st0" d="M55.4,119.2l4.1-1l5.5,23.2l-3.9,0.9L53,130.1l3.2,13.5l-4.1,1l-5.5-23.2l3.9-0.9l8,12.2L55.4,119.2z"/>
	<path class="st1" d="M59.4,118l-4.1,1c0,0-0.1,0-0.1,0.1c0,0,0,0.1,0,0.1c0,0,0,0,0,0c0,0,2.5,10.5,2.9,12.3
		c-1-1.6-7.4-11.2-7.4-11.2c0-0.1-0.1-0.1-0.2-0.1l-3.9,0.9c-0.1,0-0.2,0.1-0.1,0.2l5.5,23.2c0,0.1,0.1,0.2,0.2,0.1l4.1-1
		c0.1,0,0.1-0.1,0.1-0.2c0,0,0,0,0,0c0,0-2.5-10.6-2.9-12.4c1,1.6,7.5,11.4,7.5,11.4c0,0.1,0.1,0.1,0.2,0.1l3.9-0.9
		c0.1,0,0.2-0.1,0.1-0.2l-5.5-23.2C59.7,118.1,59.6,118,59.4,118z M59.3,118.5c0.1,0.4,5.4,22.5,5.4,22.9c-0.3,0.1-3.3,0.8-3.6,0.8
		c-0.1-0.2-8-12.2-8-12.2c-0.1-0.1-0.2-0.1-0.2-0.1c-0.1,0-0.1,0.1-0.1,0.2c0,0,0,0,0,0c0,0,3.1,13,3.1,13.3
		c-0.3,0.1-3.4,0.8-3.7,0.9c-0.1-0.4-5.4-22.5-5.4-22.9c0.3-0.1,3.4-0.8,3.6-0.9c0.1,0.2,8,12,8,12c0.1,0.1,0.2,0.1,0.2,0.1
		c0.1,0,0.1-0.1,0.1-0.2c0,0,0,0,0,0c0,0-3.1-12.8-3.1-13.1C55.9,119.3,59,118.5,59.3,118.5z"/>
	<path class="st0" d="M79,124.4c2.8,8.5,0.4,12.9-3.2,14.1c-3.6,1.2-8.2-0.8-11-9.3c-2.8-8.5-0.4-12.9,3.2-14.1
		C71.5,113.9,76.1,115.9,79,124.4z M74.4,134.3c2.7-0.9,0.9-6.7,0.3-8.5c-0.7-2-2.7-7.5-5.4-6.6c-2.7,0.9-1,6.5-0.3,8.5
		C69.6,129.6,71.7,135.2,74.4,134.3z"/>
	<path class="st1" d="M67.9,114.9c-1.6,0.5-2.9,1.7-3.7,3.2c-1.3,2.7-1.2,6.5,0.3,11.1c1.5,4.6,3.8,7.7,6.4,9
		c1.6,0.8,3.3,0.9,4.9,0.4c1.6-0.5,2.9-1.7,3.7-3.2c1.3-2.7,1.2-6.5-0.3-11.1C76.2,115.6,71.4,113.8,67.9,114.9z M71.1,137.9
		c-2.6-1.3-4.7-4.3-6.2-8.8c-1.5-4.5-1.6-8.2-0.3-10.8c0.7-1.5,1.9-2.5,3.4-3c3.4-1.1,7.9,0.7,10.8,9.2c1.5,4.5,1.6,8.2,0.3,10.8
		c-0.7,1.5-1.9,2.5-3.4,3C74.2,138.8,72.6,138.7,71.1,137.9z"/>
	<path class="st1" d="M69.3,119.1c-0.5,0.2-0.9,0.5-1.2,1.1c-0.9,1.9,0.1,5.6,0.8,7.7c0.8,2.3,2.9,7.6,5.6,6.7
		c0.5-0.2,0.9-0.5,1.2-1.1c1-2-0.2-6-0.7-7.7C73.9,122.9,71.9,118.2,69.3,119.1z M69.2,127.7c-0.7-2-1.7-5.6-0.8-7.4
		c0.2-0.4,0.5-0.7,1-0.9c2.4-0.8,4.4,4.3,5.1,6.5c0.5,1.6,1.7,5.5,0.8,7.4c-0.2,0.4-0.5,0.7-1,0.9C71.8,135,69.8,129.4,69.2,127.7z"
		/>
	<path class="st0" d="M86,134.4l-9.5-21.9l3.9-1.7c2.5-1.1,7-2.7,9.6,3.3c1,2.4,1.1,4.8-0.3,6.9l7.7,8.5l-4.1,1.8l-7.8-8.6l-0.1,0
		l4.4,10.1L86,134.4z M84.5,120.2l0.7-0.3c1.8-0.8,1.9-2.4,1.1-4.2c-0.7-1.6-1.9-2.6-3.8-1.6l-0.5,0.2L84.5,120.2z"/>
	<path class="st1" d="M80.4,110.6l-3.9,1.7c0,0-0.1,0.1-0.1,0.1c0,0,0,0.1,0,0.1l9.5,21.9c0,0,0.1,0.1,0.1,0.1c0,0,0.1,0,0.1,0
		l3.9-1.7c0,0,0.1-0.1,0.1-0.1c0,0,0,0,0-0.1c0,0,0-0.1,0-0.1c0,0-3.3-7.7-4-9.2c1.1,1.2,7.1,7.9,7.1,7.9c0.1,0.1,0.1,0.1,0.2,0
		l4.1-1.8c0.1,0,0.1-0.1,0.1-0.1c0,0,0,0,0,0c0,0,0-0.1,0-0.1c0,0-7.4-8.2-7.6-8.4c0.7-1,1-2.2,1-3.5c0-1.1-0.3-2.2-0.8-3.4
		c-0.9-2.1-2.1-3.5-3.7-4.1C84.5,109.1,82.2,109.9,80.4,110.6z M80.6,111c1.7-0.7,3.9-1.5,5.9-0.7c1.4,0.6,2.6,1.9,3.5,3.9
		c0.5,1.1,0.7,2.2,0.7,3.3c0,1.2-0.4,2.4-1.1,3.4c0,0,0,0.1,0,0.1c0,0,0,0.1,0,0.1c0,0,7.2,7.9,7.5,8.3c-0.4,0.2-3.5,1.5-3.7,1.6
		c-0.2-0.2-7.7-8.5-7.7-8.5c-0.1-0.1-0.1-0.1-0.2,0l-0.1,0c0,0-0.1,0.1-0.1,0.1c0,0,0,0,0,0.1c0,0,0,0.1,0,0.1c0,0,4.1,9.6,4.3,9.9
		c-0.3,0.1-3.2,1.4-3.5,1.5c-0.1-0.3-9.2-21.2-9.3-21.6C77.2,112.5,80.6,111,80.6,111z"/>
	<path class="st1" d="M82.4,114l-0.5,0.2c0,0-0.1,0.1-0.1,0.1c0,0,0,0.1,0,0.1l2.5,5.8c0,0.1,0.1,0.1,0.2,0.1l0.7-0.3
		c0.8-0.3,1.3-0.8,1.5-1.4c0.3-0.8,0.2-1.8-0.3-3c-0.4-1-1.1-1.7-1.8-2C84,113.5,83.3,113.6,82.4,114z M82.6,114.3
		c0.7-0.4,1.4-0.5,2-0.2c0.6,0.2,1.2,0.8,1.6,1.7c0.3,0.7,0.4,1.3,0.4,1.8c0,0.3-0.1,0.6-0.2,0.9c-0.2,0.5-0.7,1-1.3,1.2
		c0,0-0.3,0.1-0.5,0.2c-0.1-0.3-2.2-5.2-2.4-5.5C82.4,114.4,82.6,114.3,82.6,114.3z"/>
	<path class="st0" d="M101,127.8l-11.2-21.1l3.7-2c2.4-1.3,6.8-3.3,9.8,2.5c1.2,2.3,1.5,4.7,0.2,6.9l8.4,7.8L108,124l-8.5-8l-0.1,0
		l5.2,9.7L101,127.8z M98.3,113.8l0.7-0.3c1.7-0.9,1.7-2.6,0.8-4.3c-0.8-1.5-2.1-2.4-3.9-1.3l-0.5,0.3L98.3,113.8z"/>
	<path class="st1" d="M93.4,104.6l-3.7,2c-0.1,0-0.1,0.2-0.1,0.3l11.2,21.1c0,0,0.1,0.1,0.1,0.1c0,0,0.1,0,0.1,0l3.7-2
		c0,0,0.1-0.1,0.1-0.1c0,0,0,0,0-0.1c0,0,0-0.1,0-0.1c0,0-3.9-7.4-4.7-8.8c1.2,1.1,7.7,7.3,7.7,7.3c0.1,0.1,0.1,0.1,0.2,0l3.9-2.1
		c0.1,0,0.1-0.1,0.1-0.1c0,0,0,0,0,0c0-0.1,0-0.1-0.1-0.1c0,0-8.1-7.5-8.3-7.7c0.5-0.9,0.8-1.9,0.8-3c0-1.3-0.4-2.6-1.1-3.9
		C100.2,100.9,95.2,103.6,93.4,104.6z M93.5,104.9c3-1.6,6.8-2.8,9.6,2.4c0.7,1.3,1,2.5,1,3.7c0,1-0.3,2-0.8,2.9c0,0,0,0.1,0,0.1
		c0,0.1,0,0.1,0.1,0.1c0,0,7.8,7.3,8.2,7.7c-0.4,0.2-3.4,1.8-3.6,1.9c-0.2-0.2-8.4-7.9-8.4-7.9c-0.1-0.1-0.1-0.1-0.2,0l-0.1,0
		c0,0-0.1,0.1-0.1,0.1c0,0,0,0,0,0.1c0,0,0,0.1,0,0.1c0,0,4.9,9.2,5.1,9.6c-0.3,0.2-3.1,1.7-3.4,1.8c-0.2-0.3-10.9-20.4-11.1-20.7
		C90.3,106.6,93.5,104.9,93.5,104.9z"/>
	<path class="st1" d="M95.7,107.7l-0.5,0.3c0,0-0.1,0.1-0.1,0.1c0,0,0,0.1,0,0.1l3,5.6c0,0.1,0.2,0.1,0.3,0.1l0.7-0.3
		c0.7-0.4,1.2-0.9,1.4-1.6c0.3-0.8,0.1-1.9-0.5-3c-0.5-1-1.2-1.6-2-1.8C97.2,107.1,96.5,107.3,95.7,107.7z M95.9,108.1
		c0.7-0.4,1.4-0.6,2-0.4c0.7,0.2,1.2,0.7,1.7,1.6c0.4,0.7,0.6,1.4,0.6,2c0,0.2,0,0.5-0.1,0.7c-0.2,0.6-0.6,1-1.2,1.3
		c0,0-0.3,0.1-0.5,0.2c-0.2-0.3-2.7-5-2.8-5.3C95.7,108.2,95.9,108.1,95.9,108.1z"/>
	<path class="st0" d="M105.8,97.6l5.8,9l0,0l-2.8-10.9l3.6-2.3l2.7,11.4l10.7,8.4l-3.7,2.4l-9.9-8.1l0,0l6.6,10.2l-3.5,2.3l-13-20
		L105.8,97.6z"/>
	<path class="st1" d="M112.4,93.2l-3.6,2.3c-0.1,0-0.1,0.1-0.1,0.2c0,0,0,0,0,0c0,0,2.2,8.3,2.6,9.9c-0.9-1.4-5.2-8.1-5.2-8.1
		c0,0-0.1-0.1-0.1-0.1c0,0-0.1,0-0.1,0l-3.5,2.3c-0.1,0.1-0.1,0.2-0.1,0.3l13,20c0,0,0.1,0.1,0.1,0.1c0,0,0.1,0,0.1,0l3.5-2.3
		c0.1,0,0.1-0.1,0.1-0.2c0,0,0-0.1,0-0.1c0,0-5.1-7.8-6-9.3c1.4,1.1,9.1,7.4,9.1,7.4c0.1,0.1,0.2,0.1,0.2,0l3.7-2.4
		c0.1,0,0.1-0.1,0.1-0.2c0,0,0,0,0,0c0-0.1,0-0.1-0.1-0.2c0,0-10.6-8.3-10.7-8.3c0-0.1-2.7-11.3-2.7-11.3c0-0.1-0.1-0.1-0.1-0.1
		C112.5,93.1,112.4,93.1,112.4,93.2z M112.3,93.6c0.1,0.5,2.6,11.1,2.6,11.1c0,0,0,0.1,0.1,0.1c0,0,10.1,7.9,10.5,8.2
		c-0.4,0.2-3.2,2.1-3.4,2.2c-0.2-0.2-9.8-8-9.8-8c-0.1-0.1-0.2-0.1-0.2,0l0,0c0,0-0.1,0.1-0.1,0.1c0,0,0,0,0,0c0,0,0,0.1,0,0.1
		c0,0,6.3,9.7,6.5,10c-0.3,0.2-2.9,1.9-3.2,2.1c-0.2-0.3-12.6-19.4-12.8-19.7c0.3-0.2,2.9-1.9,3.2-2.1c0.2,0.3,5.7,8.8,5.7,8.8
		c0.1,0.1,0.2,0.1,0.3,0.1l0,0c0.1,0,0.1-0.1,0.1-0.2c0,0,0,0,0,0c0,0-2.7-10.5-2.8-10.7C109.3,95.6,111.9,93.9,112.3,93.6z"/>
	<path class="st0" d="M132.4,92.8c5.6,7,4.8,12,1.8,14.3c-2.9,2.4-8,2.1-13.6-4.9c-5.6-7-4.8-12-1.8-14.3
		C121.8,85.5,126.8,85.8,132.4,92.8z M131.5,103.7c2.2-1.7-1.4-6.6-2.6-8.1c-1.3-1.7-5.1-6.1-7.3-4.3c-2.2,1.7,1.3,6.4,2.6,8.1
		C125.4,100.9,129.3,105.5,131.5,103.7z"/>
	<path class="st1" d="M118.7,87.7c-2.9,2.3-4,7.4,1.8,14.6c5.8,7.2,10.9,7.3,13.8,5c1.3-1.1,2.1-2.5,2.3-4.3
		c0.3-2.9-1.1-6.5-4.1-10.3c-3-3.8-6.2-6-9.1-6.3C121.7,86.2,120,86.7,118.7,87.7z M120.8,102.1c-5.6-7-4.6-11.8-1.8-14
		c1.2-1,2.8-1.4,4.4-1.2c2.8,0.3,5.9,2.4,8.9,6.2c3,3.7,4.4,7.2,4,10c-0.2,1.6-0.9,3-2.2,4C131.3,109.2,126.4,109.1,120.8,102.1z"/>
	<path class="st1" d="M121.4,91.2c-0.4,0.4-0.7,0.8-0.8,1.4c-0.2,2.1,2,5.2,3.3,6.9c1.1,1.4,3.8,4.5,6,4.8c0.6,0.1,1.1-0.1,1.5-0.4
		l0,0c2.3-1.8-1.1-6.4-2.6-8.4c-1.3-1.7-3.9-4.6-6-4.8C122.4,90.7,121.9,90.8,121.4,91.2z M130.1,103.9c-2.1-0.2-4.7-3.3-5.8-4.6
		c-1.3-1.6-3.5-4.7-3.3-6.7c0.1-0.5,0.3-0.9,0.6-1.2c0.4-0.3,0.8-0.4,1.3-0.3c2,0.2,4.4,3,5.8,4.7c0.9,1.1,3.3,4.3,3.3,6.4
		c0,0.6-0.2,1.1-0.6,1.4C131,103.9,130.6,104,130.1,103.9z"/>
	<path class="st0" d="M142.5,99.6L126,82.5l3.2-3c0.7-0.6,4.8-5.5,10.1,0.1c3.1,3.2,3,6.9,0.2,9.6l-0.7,0.6l6.8,7.1L142.5,99.6z
		 M136.1,86.9c1.5-1.3,1.8-2.8,0.1-4.5c-1.2-1.2-2.6-1.8-3.9-0.6l-0.6,0.6L136.1,86.9z"/>
	<path class="st1" d="M129.1,79.1l-0.1,0.1l-3.2,3c-0.1,0.1-0.1,0.2,0,0.3l16.6,17.2c0.1,0.1,0.2,0.1,0.3,0l3-2.9
		c0,0,0.1-0.1,0.1-0.1c0,0,0,0,0,0c0,0,0-0.1-0.1-0.1c0,0-6.4-6.7-6.7-6.9c0.2-0.2,0.6-0.5,0.6-0.5c1.4-1.3,2.2-2.9,2.2-4.6
		c0,0,0-0.1,0-0.1c0-1.8-0.8-3.5-2.4-5.2c-1.7-1.8-3.5-2.7-5.2-2.7C131.6,76.6,129.7,78.5,129.1,79.1z M129.3,79.5l0.1-0.1
		c0.6-0.6,2.3-2.4,4.7-2.4c1.7,0,3.3,0.9,5,2.6c1.5,1.5,2.3,3.2,2.3,4.9c0,0,0,0.1,0,0.1c0,1.5-0.7,3-2.1,4.3l-0.7,0.6
		c0,0-0.1,0.1-0.1,0.1c0,0,0,0,0,0c0,0,0,0.1,0.1,0.1c0,0,6.4,6.7,6.7,7c-0.2,0.2-2.5,2.4-2.8,2.7c-0.3-0.3-16-16.6-16.3-16.9
		C126.5,82.2,129.3,79.5,129.3,79.5z"/>
	<path class="st1" d="M132.1,81.6l-0.6,0.6c0,0-0.1,0.1-0.1,0.1c0,0.1,0,0.1,0.1,0.1l4.4,4.5c0.1,0.1,0.2,0.1,0.3,0
		c0.9-0.8,1.3-1.5,1.3-2.3c0-0.8-0.4-1.6-1.2-2.5c-0.8-0.9-1.7-1.3-2.4-1.3C133.3,80.9,132.7,81.1,132.1,81.6z M132.4,81.9
		c0.5-0.4,0.9-0.7,1.4-0.6c0.7,0,1.4,0.4,2.2,1.2c0.8,0.8,1.1,1.5,1.1,2.2c0,0,0,0.1,0,0.1c0,0.6-0.4,1.2-1.1,1.9
		c-0.2-0.3-3.9-4-4.1-4.3C132.1,82.2,132.4,81.9,132.4,81.9z"/>
	<path class="st0" d="M138.3,70l17.6,16.2l-2.9,3.1l-17.6-16.2L138.3,70z"/>
	<path class="st1" d="M138.1,69.9l-2.9,3.1c0,0-0.1,0.1-0.1,0.1c0,0.1,0,0.1,0.1,0.1l17.6,16.2c0,0,0.1,0.1,0.1,0.1
		c0.1,0,0.1,0,0.1-0.1l2.9-3.1c0,0,0.1-0.1,0.1-0.1c0-0.1,0-0.1-0.1-0.1l-17.6-16.2C138.3,69.8,138.2,69.8,138.1,69.9z M138.3,70.3
		c0.3,0.3,17,15.6,17.3,15.9c-0.2,0.2-2.4,2.6-2.6,2.8c-0.3-0.3-17-15.6-17.3-15.9C135.9,72.8,138.1,70.5,138.3,70.3z"/>
	<path class="st0" d="M166.1,50.6l1.5,1c4.2,2.8,9.2,7.5,5.9,12.3c-3.2,4.8-10,2.4-14.4-0.5c-4.6-3.1-9.4-8.3-6-13.3
		c1.8-2.7,4.9-3.2,8.2-2l-0.8,4.4c-1.1-0.5-2.8-1.3-3.8,0.1c-1.8,2.3,3,5.8,4.8,7.1c2,1.4,6.7,4.3,8.4,1.8c1.2-1.8-1.3-3.9-2.6-4.8
		l-1.5,2.2l-3.7-2.5L166.1,50.6z"/>
	<path class="st1" d="M153,50.1c-4.1,6,3.6,11.9,6.1,13.6c4.7,3.2,11.4,5.2,14.6,0.5c2.5-3.8,0.4-8.2-6-12.6l-1.5-1
		c-0.1-0.1-0.2,0-0.3,0.1l-3.9,5.7c-0.1,0.1,0,0.2,0.1,0.3l3.7,2.5c0,0,0.1,0,0.1,0c0,0,0.1,0,0.1-0.1c0,0,1.2-1.8,1.4-2.1
		c0.8,0.6,2.4,1.8,2.7,3.2c0,0.1,0,0.2,0,0.3c0,0.3-0.1,0.6-0.3,0.9c-1.7,2.5-6.6-0.7-8.1-1.8c-1.4-1-4.8-3.4-5.1-5.5
		c-0.1-0.5,0-0.9,0.3-1.3c0.8-1.1,2.2-0.6,3.5,0c0.1,0,0.1,0,0.2,0c0.1,0,0.1-0.1,0.1-0.1l0.8-4.4c0-0.1,0-0.2-0.1-0.2
		C157.9,46.7,154.8,47.5,153,50.1z M159.3,63.3c-2.4-1.6-9.8-7.3-6-13c1.6-2.4,4.4-3.1,7.8-2c-0.1,0.3-0.7,3.6-0.8,4
		c-1.1-0.5-2.8-1.2-3.8,0.2c-0.4,0.5-0.5,1-0.4,1.6c0.3,2.2,3.8,4.7,5.3,5.7c1.7,1.1,6.7,4.6,8.7,1.7c0.3-0.5,0.4-1,0.3-1.5
		c-0.3-1.6-2.2-3-3-3.5c-0.1-0.1-0.2,0-0.3,0.1c0,0-1.2,1.8-1.4,2.1c-0.3-0.2-3.1-2.1-3.4-2.3c0.2-0.3,3.5-5.1,3.7-5.4
		c0.3,0.2,1.4,0.9,1.4,0.9c3.4,2.3,6.9,5.5,6.9,8.9c0,1-0.3,2.1-1,3.1C170.4,68.4,163.9,66.4,159.3,63.3z"/>
	<circle class="st0" cx="115.5" cy="86.9" r="1.5"/>
	<path class="st1" d="M113.9,86.9c0,0.9,0.7,1.7,1.7,1.7c0.9,0,1.7-0.7,1.7-1.7c0-0.9-0.7-1.7-1.7-1.7
		C114.6,85.2,113.9,86,113.9,86.9z M114.3,86.9c0-0.7,0.6-1.3,1.3-1.3c0.7,0,1.3,0.6,1.3,1.3c0,0.7-0.6,1.3-1.3,1.3
		C114.8,88.2,114.3,87.6,114.3,86.9z"/>
	<circle class="st0" cx="119.3" cy="84.2" r="1.5"/>
	<path class="st1" d="M117.6,84.2c0,0.9,0.7,1.7,1.7,1.7c0.9,0,1.7-0.7,1.7-1.7c0-0.9-0.7-1.7-1.7-1.7
		C118.3,82.5,117.6,83.3,117.6,84.2z M118,84.2c0-0.7,0.6-1.3,1.3-1.3c0.7,0,1.3,0.6,1.3,1.3c0,0.7-0.6,1.3-1.3,1.3
		C118.6,85.5,118,84.9,118,84.2z"/>
	<path class="st0" d="M145.6,61.2l2.6-3.3l18.6,15l-2.5,3.1l-14-4.8l10.8,8.7l-2.6,3.3l-18.6-15l2.5-3.2l13.8,4.7L145.6,61.2z"/>
	<path class="st1" d="M148.1,57.8l-2.6,3.3c0,0,0,0.1,0,0.1c0,0,0,0,0,0c0,0.1,0,0.1,0.1,0.1c0,0,8.4,6.7,9.8,7.9
		c-1.8-0.6-12.8-4.3-12.8-4.3c-0.1,0-0.2,0-0.2,0.1l-2.5,3.2c-0.1,0.1-0.1,0.2,0,0.3l18.6,15c0.1,0.1,0.2,0.1,0.3,0l2.6-3.3
		c0,0,0-0.1,0-0.1c0-0.1,0-0.1-0.1-0.1c0,0-8.5-6.9-10-8c1.8,0.6,12.9,4.4,12.9,4.4c0.1,0,0.2,0,0.2-0.1L167,73
		c0.1-0.1,0.1-0.2,0-0.3l-18.6-15C148.3,57.7,148.2,57.7,148.1,57.8z M148.3,58.2c0.3,0.2,18,14.5,18.3,14.7
		c-0.2,0.3-2.1,2.7-2.3,2.9c-0.3-0.1-13.8-4.7-13.8-4.7c-0.1,0-0.2,0-0.2,0.1c0,0,0,0.1,0,0.1c0,0.1,0,0.1,0.1,0.1
		c0,0,10.4,8.4,10.7,8.6c-0.2,0.3-2.2,2.7-2.4,3c-0.3-0.2-18-14.5-18.3-14.7c0.2-0.3,2.2-2.7,2.3-2.9c0.2,0.1,13.7,4.6,13.7,4.6
		c0.1,0,0.2,0,0.2-0.1c0,0,0-0.1,0-0.1c0-0.1,0-0.1-0.1-0.1c0,0-10.2-8.2-10.5-8.4C146.1,60.9,148.1,58.5,148.3,58.2z"/>
	<g>
		<path class="st0" d="M46.3,39.8c-1.3,0.1-2.8,0.1-4.2,0.1c-1.3,0-2.8-0.1-4.2-0.1l-3.3-0.1c-0.6,0-0.6,0.8-0.6,1.3
			c0,0.5,0,1.1,0.6,1.1c3.2,0,3.8,0.9,3.8,2.8v22.4c0,2.7-0.8,3.1-3.5,3.1c-0.6,0-0.6,0.8-0.6,1.2c0,1.1,0.4,1.2,0.6,1.2l2.3-0.1
			c1.4-0.1,3.2-0.1,4.8-0.1c1.4,0,2.8,0.1,4,0.1l2.7,0.1c0.4,0,0.6-0.5,0.6-1.4c0-0.9-0.3-1-0.6-1c-2.7,0-3.5-0.4-3.5-2.7
			c0-6.8,0.1-13.8,0.2-18.4l0.1-4.6c0-2,0.3-2.6,3.7-2.6c0.6,0,0.6-0.8,0.6-1.1c0-0.6,0-1.3-0.6-1.3L46.3,39.8z"/>
		<path class="st1" d="M46.3,39.6C46.3,39.6,46.3,39.6,46.3,39.6c-1.3,0.1-2.8,0.1-4.2,0.1c-1.3,0-2.8-0.1-4.2-0.1l-3.3-0.1
			c-0.8,0-0.8,1-0.8,1.5c0,0.5,0,1.3,0.7,1.3c3.1,0,3.6,0.8,3.6,2.6v22.4c0,2.6-0.7,2.9-3.4,2.9c-0.8,0-0.8,1-0.8,1.4
			c0,1.2,0.5,1.4,0.8,1.4l2.3-0.1c1.4-0.1,3.2-0.1,4.8-0.1c1.4,0,2.8,0.1,4,0.1l2.7,0.1c0.5,0,0.8-0.5,0.8-1.6
			c0-1.1-0.5-1.2-0.7-1.2c-2.6,0-3.3-0.3-3.3-2.6c0-6.8,0.1-13.8,0.2-18.4l0.1-4.6c0-1.8,0.2-2.4,3.5-2.4c0.5,0,0.8-0.4,0.8-1.3
			c0-0.6,0-1.5-0.8-1.5L46.3,39.6z M49,39.9c0.3,0,0.4,0.4,0.4,1.1c0,0.6-0.1,0.9-0.4,0.9c-3.4,0-3.9,0.6-3.9,2.8l-0.1,4.6
			c-0.1,4.6-0.2,11.6-0.2,18.4c0,2.5,0.9,2.9,3.7,2.9c0.3,0,0.4,0.6,0.4,0.9c0,0.7-0.1,1.2-0.4,1.2l-2.7-0.1c-1.2,0-2.5-0.1-4-0.1
			c-1.5,0-3.3,0.1-4.8,0.1l-2.3,0.1c-0.2,0-0.4-0.4-0.4-1c0-0.7,0.1-1,0.4-1c2.9,0,3.7-0.5,3.7-3.3V44.9c0-2.1-0.6-3-3.9-3
			c-0.3,0-0.4-0.3-0.4-0.9c0-0.7,0.1-1.1,0.4-1.1l3.3,0.1c1.4,0.1,2.9,0.1,4.2,0.1c1.4,0,2.9-0.1,4.2-0.1c0,0,0,0,0,0L49,39.9z"/>
	</g>
	<g>
		<path class="st0" d="M70.6,39.7c-2.3,0.1-5.8,0.2-12.4,0.2c-1.3,0-2.8-0.1-4.2-0.1l-3.3-0.1c-0.6,0-0.6,0.8-0.6,1.3
			c0,0.5,0,1.1,0.6,1.1c3.6,0,3.8,0.7,3.8,2v23.2c0,2.7-0.8,3.1-3.5,3.1c-0.6,0-0.6,0.8-0.6,1.2c0,1.1,0.4,1.2,0.6,1.2l2.3-0.1
			c1.4-0.1,3.2-0.1,4.8-0.1l4.5,0.1l3.1,0.1c0.4,0,0.6-0.5,0.6-1.4c0-0.9-0.3-1-0.6-1c-2.9,0-4.4-0.4-4.4-2.7l0-1.5l0-3.3
			c0,0,0-4.7,0-5.3c4.6,0,5.8,1.1,5.8,5c0,0.4,0.2,1.9,1.2,1.9c0.7,0,1.2-0.3,1.2-0.8l0-1.4c-0.1-1.5-0.2-3.7-0.2-5.8
			c0-2.2,0.1-4.3,0.2-5.5l0-1c0-0.4-0.2-1-1.2-1c-0.9,0-1.2,1.6-1.2,2c0,2.8-0.9,4.2-5.8,4.2c0.1-3.5,0.2-8.7,0.2-12.7
			c1.5-0.1,2.9-0.2,3.5-0.2c5.6,0,6.9,5,7.2,7.1c0.1,0.6,0.6,0.6,0.9,0.6c0.6,0,1.3-0.2,1.3-0.7l-0.2-8.5c0-1.1-0.7-1.2-1-1.2
			L70.6,39.7z"/>
		<path class="st1" d="M70.6,39.5C70.6,39.5,70.6,39.5,70.6,39.5c-2.3,0.1-5.8,0.2-12.4,0.2c-1.3,0-2.8-0.1-4.2-0.1l-3.3-0.1
			c-0.8,0-0.8,1-0.8,1.5c0,0.5,0,1.3,0.7,1.3c3.6,0,3.6,0.6,3.6,1.8v23.2c0,2.6-0.7,2.9-3.4,2.9c-0.8,0-0.8,1-0.8,1.4
			c0,1.2,0.5,1.4,0.8,1.4l2.3-0.1c1.4-0.1,3.2-0.1,4.8-0.1l4.5,0.1l3.1,0.1c0.5,0,0.8-0.5,0.8-1.6c0-1.1-0.5-1.2-0.7-1.2
			c-2.8,0-4.2-0.4-4.2-2.6l0-1.5l0-3.3c0,0,0-4.1,0-5.1c4.3,0.1,5.4,1.1,5.4,4.8c0,0.4,0.2,2.1,1.4,2.1c0.8,0,1.4-0.4,1.4-1l0-1.4
			c-0.1-1.5-0.2-3.7-0.2-5.8c0-2.2,0.1-4.3,0.2-5.5l0-1c0-0.4-0.1-1.2-1.4-1.2c-1,0-1.4,1.6-1.4,2.2c0,2.6-0.8,3.9-5.4,4
			c0.1-3.5,0.2-8.5,0.2-12.4c1.5-0.1,2.8-0.1,3.4-0.1c5.5,0,6.7,4.9,7,7c0.1,0.8,0.8,0.8,1.1,0.8c0.7,0,1.5-0.3,1.5-0.9l-0.2-8.5
			c0-1.3-0.9-1.4-1.2-1.4L70.6,39.5z M73.2,39.9c0.4,0,0.8,0.2,0.8,1l0.2,8.5c0,0.3-0.6,0.5-1.1,0.5c-0.4,0-0.7,0-0.7-0.4
			c-0.3-2.2-1.6-7.3-7.4-7.3c-0.5,0-2,0-3.6,0.2c-0.1,0-0.2,0.1-0.2,0.2c0,4-0.1,9.2-0.2,12.7c0,0.1,0,0.1,0.1,0.1
			c0,0,0.1,0.1,0.1,0.1c5.1-0.1,6-1.5,6-4.4c0-0.4,0.3-1.8,1-1.8c0.6,0,1,0.3,1,0.8l0,1c-0.1,1.3-0.2,3.4-0.2,5.5
			c0,2.1,0.1,4.3,0.2,5.8l0,1.4c0,0.5-0.5,0.6-1,0.6c-0.8,0-1-1.4-1-1.7c0-4-1.4-5.1-6-5.2c-0.1,0-0.1,0-0.1,0.1
			c0,0-0.1,0.1-0.1,0.1l0,5.3l0,3.3l0,1.5c0,2.5,1.7,2.9,4.6,2.9c0.3,0,0.4,0.6,0.4,0.9c0,0.7-0.1,1.2-0.4,1.2l-3.1-0.1L58,72.5
			c-1.6,0-3.3,0.1-4.8,0.1l-2.3,0.1c-0.2,0-0.4-0.4-0.4-1c0-0.7,0.1-1,0.4-1c2.9,0,3.7-0.5,3.7-3.3V44.1c0-1.6-0.4-2.2-3.9-2.2
			c-0.3,0-0.4-0.3-0.4-0.9c0-0.7,0.1-1.1,0.4-1.1L54,40c1.4,0.1,2.9,0.1,4.2,0.1c6.6,0,10.1-0.1,12.4-0.2h0L73.2,39.9z"/>
	</g>
	<g>
		<path class="st0" d="M74.8,40.9c0,0.5,0,1.1,0.6,1.1c3.6,0,3.8,0.7,3.8,2v23.2c0,2.7-0.8,3.1-3.5,3.1c-0.6,0-0.6,0.8-0.6,1.2
			c0,1.1,0.4,1.2,0.6,1.2l2.3-0.1c1.4-0.1,3.2-0.1,4.8-0.1c1.4,0,2.6,0.1,3.6,0.1l2.5,0.1c0.4,0,0.6-0.5,0.6-1.4c0-0.9-0.3-1-0.6-1
			c-2.5,0-2.9-0.2-2.9-2.7c0,0,0-7.9,0-8.2c0.1-0.1,1.3-1.1,1.6-1.5c3,4.5,6.3,8.9,8.2,11c0.3,0.4,0.3,0.6,0.3,0.6
			c0,0.5-1,0.7-2,0.7c-0.4,0-0.6,0.4-0.6,1.1c0,0.8,0.2,1.2,0.6,1.2l2.6-0.1l5-0.1l5.2,0.1l2.2,0c0.5,0,0.7-0.4,0.7-1.2
			c0-0.8-0.2-1.2-0.5-1.2c-0.5,0-1.2,0-1.8-0.3c-1.4-0.6-6-4.9-14.8-16.9c2.5-2.4,6.1-6.4,7.6-8.1c1.2-1.4,2.9-2.9,5.5-2.9
			c0.5,0,0.5-0.6,0.5-1.2c0-0.4-0.1-1.2-0.6-1.2l-0.7,0c-0.9,0.1-2.5,0.1-4.4,0.1c-2.2,0-3.7-0.1-4.7-0.1l-1.5,0
			c-0.5,0-0.5,0.8-0.5,1.2c0,0.4,0,1.2,0.5,1.2c1.9,0,2.1,0.5,2.1,1.1c0,0.5-0.1,1-0.9,2.2c-2.1,3.1-6.6,8.2-9.6,11.1
			c0-3.7,0.1-7,0.1-9.2l0-2.6l0-0.6c0-0.2,0-0.3,0-0.4c0-0.6,0-1,0.2-1.2c0.3-0.3,1-0.4,2.7-0.4c0.4,0,0.6-0.4,0.6-1.1
			c0-0.5,0-1.2-0.6-1.2l-2.4,0.1l-3.7,0.1c-1.3,0-2.8-0.1-4.2-0.1l-3.3-0.1C74.8,39.7,74.8,40.5,74.8,40.9z"/>
		<path class="st1" d="M74.6,40.9c0,0.5,0,1.3,0.7,1.3c3.6,0,3.6,0.6,3.6,1.8v23.2c0,2.6-0.7,2.9-3.4,2.9c-0.8,0-0.8,1-0.8,1.4
			c0,1.2,0.5,1.4,0.8,1.4l2.3-0.1c1.4-0.1,3.2-0.1,4.8-0.1c1.4,0,2.6,0.1,3.6,0.1l2.5,0.1c0.5,0,0.8-0.5,0.8-1.6
			c0-1.1-0.5-1.2-0.7-1.2c-2.4,0-2.7-0.1-2.7-2.6c0,0,0-7.2,0-8.1c0.1-0.1,1.1-1,1.4-1.2c3,4.5,6.3,8.8,8.1,10.9
			c0.3,0.3,0.3,0.5,0.3,0.5c0,0.3-0.8,0.5-1.8,0.5c-0.2,0-0.8,0.1-0.8,1.3c0,1.3,0.6,1.4,0.8,1.4l2.6-0.1l5-0.1L107,73
			c0,0,2.2,0,2.2,0c0.4,0,0.9-0.2,0.9-1.4c0-0.4,0-1.4-0.7-1.4c-0.5,0-1.2,0-1.8-0.3c-1.3-0.6-5.9-4.8-14.7-16.7
			c2.5-2.5,6.1-6.4,7.5-8c1.1-1.3,2.8-2.9,5.4-2.9c0.7,0,0.7-0.8,0.7-1.4c0-0.9-0.3-1.4-0.7-1.4l-0.7,0c-0.9,0.1-2.5,0.1-4.4,0.1
			c-2.2,0-3.7-0.1-4.7-0.1l-1.5,0c-0.7,0-0.7,1-0.7,1.4c0,0.4,0,1.4,0.7,1.4c1.9,0,1.9,0.5,1.9,0.9c0,0.5-0.1,0.9-0.9,2.1
			c-2,3-6.3,7.9-9.2,10.7c0-3.6,0.1-6.6,0.1-8.7l0-2.6l0-1c0-0.5,0-0.9,0.2-1c0.2-0.2,1-0.3,2.5-0.3c0.4,0,0.8-0.2,0.8-1.3
			c0-0.6,0-1.4-0.8-1.4l-2.4,0.1l-3.7,0.1c-1.3,0-2.8-0.1-4.2-0.1l-3.3-0.1C74.6,39.5,74.6,40.5,74.6,40.9z M75.2,71.7
			c0-0.7,0.1-1,0.4-1c2.9,0,3.7-0.5,3.7-3.3V44.1c0-1.6-0.4-2.2-3.9-2.2c-0.3,0-0.4-0.3-0.4-0.9c0-0.7,0.1-1.1,0.4-1.1l3.3,0.1
			c1.4,0.1,2.9,0.1,4.2,0.1l3.7-0.1L89,40c0.3,0,0.4,0.3,0.4,1c0,0.6-0.1,0.9-0.4,0.9c-1.7,0-2.5,0.1-2.8,0.5
			c-0.3,0.3-0.3,0.8-0.3,1.3l0,1l0,2.6c0,2.1-0.1,5.4-0.1,9.2c0,0.1,0,0.1,0.1,0.2c0.1,0,0.2,0,0.2,0c2.9-2.8,7.5-8,9.6-11.1
			c0.8-1.2,1-1.7,1-2.3c0-0.7-0.4-1.2-2.3-1.2c-0.3,0-0.3-0.5-0.3-1c0-0.3,0-1,0.3-1l1.5,0c1,0,2.5,0.1,4.7,0.1
			c1.9,0,3.5-0.1,4.4-0.1l0.7,0c0.3,0,0.4,0.6,0.4,1c0,0.7,0,1-0.3,1c-2.7,0-4.5,1.6-5.7,3c-1.4,1.6-5,5.6-7.6,8.1
			c-0.1,0.1-0.1,0.2,0,0.3c8.8,12.1,13.5,16.4,14.9,17c0.6,0.3,1.4,0.3,1.9,0.3c0.3,0,0.3,0.7,0.3,1c0,0.7-0.2,1-0.5,1l-2.2,0
			l-5.2-0.1l-5,0.1l-2.6,0.1c-0.4,0-0.4-0.8-0.4-1c0-0.2,0-0.9,0.4-0.9c1,0,2.2-0.2,2.2-0.9c0-0.1,0-0.3-0.4-0.7
			c-1.8-2.1-5.1-6.5-8.2-11c0,0-0.1-0.1-0.1-0.1c-0.1,0-0.1,0-0.2,0l-1.6,1.5c0,0-0.1,0.1-0.1,0.1l0,8.2c0,2.7,0.5,2.9,3,2.9
			c0.3,0,0.4,0.6,0.4,0.9c0,0.7-0.1,1.2-0.4,1.2l-2.5-0.1c-1,0-2.2-0.1-3.6-0.1c-1.5,0-3.3,0.1-4.8,0.1l-2.3,0.1
			C75.3,72.7,75.2,72.3,75.2,71.7z"/>
	</g>
</g>
</svg>
