<?xml version="1.0" encoding="utf-8"?>
<!-- Generator: Adobe Illustrator 21.1.0, SVG Export Plug-In . SVG Version: 6.00 Build 0)  -->
<svg version="1.1" id="Layer_1" xmlns="http://www.w3.org/2000/svg" xmlns:xlink="http://www.w3.org/1999/xlink" x="0px" y="0px"
	 viewBox="0 0 200 200" style="enable-background:new 0 0 200 200;" xml:space="preserve">
<style type="text/css">
	.st0{fill:#FFFFFF;}
	.st1{fill:url(#SVGID_1_);}
	.st2{fill:#2E2868;}
</style>
<g>
	<polygon class="st0" points="198.8,79.9 184.1,65.2 184.1,44.3 184.1,42.7 182.9,41.5 158.5,17.1 157.3,15.9 155.7,15.9 
		134.8,15.9 120.1,1.2 118.9,0 117.3,0 82.7,0 81.1,0 79.9,1.2 65.2,15.9 44.3,15.9 42.7,15.9 41.5,17.1 17.1,41.5 15.9,42.7 
		15.9,44.3 15.9,65.2 1.2,79.9 0,81.1 0,82.7 0,117.3 0,118.9 1.2,120.1 15.9,134.8 15.9,155.7 15.9,157.3 17.1,158.5 41.5,182.9 
		42.7,184.1 44.3,184.1 65.2,184.1 79.9,198.8 81.1,200 82.7,200 117.3,200 118.9,200 120.1,198.8 134.8,184.1 155.7,184.1 
		157.3,184.1 158.5,182.9 182.9,158.5 184.1,157.3 184.1,155.7 184.1,134.8 198.8,120.1 200,118.9 200,117.3 200,82.7 200,81.1 	"/>
	<radialGradient id="SVGID_1_" cx="100.0003" cy="100.0002" r="65.0476" gradientUnits="userSpaceOnUse">
		<stop  offset="0" style="stop-color:#FFFFFF"/>
		<stop  offset="0.1406" style="stop-color:#EEEEEE"/>
		<stop  offset="0.5166" style="stop-color:#C7C7C7"/>
		<stop  offset="0.8162" style="stop-color:#AFAFAF"/>
		<stop  offset="1" style="stop-color:#A6A6A6"/>
	</radialGradient>
	<polygon class="st1" points="120.4,113.4 144.5,118.4 123.9,105 165,100 123.9,95 144.5,81.6 120.4,86.6 146,54 113.4,79.6 
		118.4,55.5 105,76.1 100,35 95,76.1 81.6,55.5 86.6,79.6 54,54 79.6,86.6 55.5,81.6 76.1,95 35,100 76.1,105 55.5,118.4 
		79.6,113.4 54,146 86.6,120.4 81.6,144.5 95,123.9 100,165 105,123.9 118.4,144.5 113.4,120.4 146,146 	"/>
	<polygon class="st2" points="15.9,70.9 4,82.7 15.9,94.6 	"/>
	<polygon class="st2" points="39.9,75.1 39.9,24.4 24,40.3 24,91 	"/>
	<polygon class="st2" points="19.9,138.9 19.9,155.7 36.7,155.7 	"/>
	<polygon class="st2" points="39.9,124.9 4,89.1 4,111.6 39.9,147.4 	"/>
	<polygon class="st2" points="180.1,61.1 180.1,44.3 163.3,44.3 	"/>
	<polygon class="st2" points="124.9,39.9 175.6,39.9 159.7,24 109,24 	"/>
	<polygon class="st2" points="75.1,160.1 24.4,160.1 40.3,176 91,176 	"/>
	<polygon class="st2" points="61.1,19.9 44.3,19.9 44.3,36.7 	"/>
	<polygon class="st2" points="129.1,15.9 117.3,4 105.4,15.9 	"/>
	<polygon class="st2" points="75.1,39.9 110.9,4 88.4,4 52.6,39.9 	"/>
	<polygon class="st2" points="138.9,180.1 155.7,180.1 155.7,163.3 	"/>
	<polygon class="st2" points="124.9,160.1 89.1,196 111.6,196 147.4,160.1 	"/>
	<polygon class="st2" points="160.1,124.9 160.1,175.6 176,159.7 176,109 	"/>
	<polygon class="st2" points="184.1,129.1 196,117.3 184.1,105.4 	"/>
	<polygon class="st2" points="160.1,52.6 160.1,75.1 196,110.9 196,88.4 	"/>
	<polygon class="st2" points="70.9,184.1 82.7,196 94.6,184.1 	"/>
	<path class="st2" d="M76.5,152.5c0-2.2,1-2.8,3-2.9l4.1-0.3c1.8-0.1,1.9-0.6,1.9-1.9c0-1.5-0.3-2.1-1.9-2.1h-3.8
		c-1.3,0-2.1,0.2-2.1,2.2v0.6h-1.2V147c0-2.1,1-2.9,3.2-2.9h3.9c2.6,0,3.1,1.3,3.1,3.3c0,2.7-0.9,2.9-3.9,3.1l-1.9,0.1
		c-2.9,0.2-3.2,0.3-3.2,1.7v0.9h9.2v1.1H76.5V152.5z"/>
	<path class="st2" d="M88.6,147.5c0-2.2,0.7-3.4,3.1-3.4H96c2.5,0,3.1,1.2,3.1,3.4v3.6c0,2.2-0.7,3.4-3.1,3.4h-4.3
		c-2.5,0-3.1-1.2-3.1-3.4V147.5z M98,148.1c0-2.6-0.4-2.9-2.8-2.9h-2.8c-2.4,0-2.8,0.3-2.8,2.9v2.3c0,2.6,0.4,2.9,2.8,2.9h2.8
		c2.4,0,2.8-0.3,2.8-2.9V148.1z"/>
	<path class="st2" d="M100.7,147.5c0-2.2,0.7-3.4,3.1-3.4h4.3c2.5,0,3.1,1.2,3.1,3.4v3.6c0,2.2-0.7,3.4-3.1,3.4h-4.3
		c-2.5,0-3.1-1.2-3.1-3.4V147.5z M110.2,148.1c0-2.6-0.4-2.9-2.8-2.9h-2.8c-2.4,0-2.8,0.3-2.8,2.9v2.3c0,2.6,0.4,2.9,2.8,2.9h2.8
		c2.4,0,2.8-0.3,2.8-2.9V148.1z"/>
	<path class="st2" d="M112.7,150.6l7.5-6.4h1.7v6.9h1.5v1.1h-1.5v2.1h-1.2v-2.1h-8V150.6z M120.8,145.2l-6.9,5.9v0h6.9V145.2z"/>
	<path class="st2" d="M74.2,131.3v-10.9h6.6c1.3,0,2.4,0.1,3.2,0.3c0.8,0.2,1.4,0.6,1.9,1c0.5,0.5,0.7,0.9,0.7,1.4
		c0,0.5-0.2,0.9-0.6,1.3c-0.4,0.4-1,0.7-1.8,1c1.1,0.2,1.9,0.5,2.4,1c0.6,0.5,0.9,1,0.9,1.7c0,0.5-0.2,1-0.5,1.4
		c-0.3,0.4-0.8,0.8-1.3,1c-0.5,0.2-1.1,0.4-1.9,0.5c-0.8,0.1-1.7,0.2-2.8,0.2H74.2z M76.5,125h3.8c1,0,1.8,0,2.2-0.1
		c0.6-0.1,1-0.3,1.3-0.5c0.3-0.3,0.4-0.6,0.4-1c0-0.4-0.1-0.7-0.4-1c-0.3-0.3-0.7-0.5-1.2-0.6c-0.5-0.1-1.4-0.2-2.7-0.2h-3.5V125z
		 M76.5,130h4.3c0.7,0,1.3,0,1.6-0.1c0.5-0.1,1-0.2,1.3-0.3c0.4-0.1,0.7-0.3,0.9-0.6c0.2-0.3,0.3-0.6,0.3-0.9c0-0.4-0.2-0.8-0.5-1.1
		c-0.3-0.3-0.8-0.5-1.4-0.6c-0.6-0.1-1.4-0.2-2.6-0.2h-4V130z"/>
	<path class="st2" d="M88.6,131.3l6.7-10.9h2.5l7.1,10.9h-2.6l-2-3.3H93l-1.9,3.3H88.6z M93.7,126.8h5.9l-1.8-3
		c-0.6-0.9-1-1.7-1.2-2.3c-0.2,0.7-0.5,1.4-0.9,2.1L93.7,126.8z"/>
	<path class="st2" d="M106.7,131.3v-10.9h2.3v5.4l8.7-5.4h3.1l-7.3,4.4l7.6,6.5h-3l-6.2-5.5l-2.9,1.7v3.8H106.7z"/>
	<path class="st2" d="M123.5,131.3v-10.9h2.3v10.9H123.5z"/>
	<path class="st2" d="M47.2,113h-3.7V80.2h3.7V113z"/>
	<path class="st2" d="M47.2,72.9h-3.7v4.3h3.7V72.9z"/>
	<path class="st2" d="M55.2,78.8l23.2,26.8V80.2h3.3v34.3L58.5,87.7V113h-3.3V78.8z"/>
	<path class="st2" d="M99.3,113h-4.1V83.6h-8.8v-3.4h21.9v3.4h-8.9V113z"/>
	<path class="st2" d="M112.5,80.2h17v3.4h-13.4v9.8h13v3.4h-13v12.9h13.4v3.4h-17V80.2z"/>
	<path class="st2" d="M139.7,113h-3.9V80.2h5c8.4,0,12.8,1,12.8,9.1c0,5.6-2.9,8-9.6,8.2l12.4,15.6h-4.8l-11.4-15.2h-0.5V113z
		 M139.7,94.5h1.2c4.4,0,8.8,0,8.8-5.1c0-5.4-2.7-5.9-8.9-5.9h-1.2V94.5z"/>
</g>
</svg>
