<?xml version="1.0" encoding="utf-8"?>
<!-- Generator: Adobe Illustrator 21.1.0, SVG Export Plug-In . SVG Version: 6.00 Build 0)  -->
<svg version="1.1" id="Layer_1" xmlns="http://www.w3.org/2000/svg" xmlns:xlink="http://www.w3.org/1999/xlink" x="0px" y="0px"
	 viewBox="0 0 200 200" style="enable-background:new 0 0 200 200;" xml:space="preserve">
<style type="text/css">
	.st0{fill:#FFFFFF;}
	.st1{fill:#004071;}
	.st2{fill:#F37920;}
	.st3{fill:#00052F;}
	.st4{fill:#002952;}
	.st5{fill:#00153A;}
</style>
<g>
	<path class="st0" d="M172.4,77.6c-2-8.7-2.7-17.7-2.7-26.3c0-12,1.4-23,2.8-31c1.4-8,2.8-13.1,2.8-13.1l0.3-1l-1,0.2
		c0,0-4.8,0.8-11.9,1.5c-7.1,0.8-16.7,1.5-26.2,1.5c-15.5,0-31-2.2-35.8-9.1L100.5,0h-0.6h-0.3l-0.2,0.3c-4.9,7-20.3,9.2-35.8,9.1
		c-9.5,0-19.1-0.8-26.2-1.5c-7.1-0.8-11.9-1.5-11.9-1.5l-1-0.2l0.3,1c0,0,1.4,5,2.8,13.1c1.4,8,2.8,19.1,2.8,31
		c0,8.5-0.7,17.6-2.7,26.3c-2.8,12.4-4,23.5-4,33.6c0,39.5,19.1,61.8,38.1,74.1C80.8,197.6,99.8,200,99.9,200l0.1,0l0.1,0
		c0.1,0,19.1-2.4,38.1-14.7c19.1-12.3,38.2-34.6,38.2-74.1C176.4,101.1,175.1,90,172.4,77.6z"/>
	<path class="st1" d="M137.5,184.1c-9.4,6.1-18.8,9.7-25.9,11.8c-3.5,1.1-6.5,1.7-8.5,2.1c-1.7,0.3-2.8,0.5-3.1,0.5
		c-0.3,0-1.4-0.2-3.1-0.5c-7.2-1.4-25.2-6.1-41.4-19c-16.2-12.9-30.5-33.8-30.5-68c0-9.9,1.2-21,4-33.3c2-8.8,2.7-18,2.7-26.6
		c0-21-4.3-39.1-5.4-43.5c4.2,0.6,20.7,2.9,37.3,2.9c15.2,0,30.5-1.8,36.5-9.2c6,7.3,21.3,9.1,36.5,9.2c16.6,0,33.1-2.3,37.3-2.9
		c-1.1,4.3-5.4,22.5-5.4,43.5c0,8.6,0.7,17.7,2.7,26.6c2.7,12.3,4,23.3,4,33.3C175,150.2,156.3,172,137.5,184.1z"/>
	<path class="st0" d="M100,192.4c-5.5-0.9-38.6-7.6-56.8-35.5c-12.8-19.6-15.7-45.7-8.6-77.6c5.5-24.4,2-50.4-0.8-64.2
		C41.3,16,52.4,17,63.5,17c17.2,0,29.3-2.4,36.5-7.3c7.2,4.9,19.3,7.3,36.5,7.3c11.2,0,22.2-1,29.7-1.9c-2.7,13.9-6.2,39.8-0.8,64.2
		c7.1,31.8,4.2,57.9-8.6,77.6C138.6,184.8,105.5,191.4,100,192.4"/>
	<path class="st2" d="M99.8,188.8c-7.5-1.4-37.2-8.2-54-33.9C37.9,142.9,34,128.2,34,111.1c0-9.6,1.2-19.9,3.7-31
		c2.2-9.6,2.9-19.5,2.9-28.9c0-11.8-1.3-22.6-2.6-30.8L37.8,19l1.4,0.1c6.9,0.7,15.5,1.3,24.3,1.3c16.4,0,28.2-2.2,36-6.5l0.5-0.3
		l0.5,0.3c7.8,4.3,19.6,6.5,36,6.5c8.8,0,17.4-0.6,24.3-1.3l1.4-0.1l-0.2,1.5c-1.3,8.2-2.6,19-2.6,30.8c0,9.3,0.8,19.2,2.9,28.9
		c2.5,11,3.7,21.4,3.7,31c0,17-3.9,31.8-11.8,43.8c-16.8,25.7-46.5,32.5-54,33.9l-0.2,0L99.8,188.8z"/>
	<path class="st3" d="M42.8,51.3c0,9.5-0.8,19.5-3,29.4c-2.4,10.9-3.7,21.1-3.7,30.5c0,16.7,3.8,30.9,11.4,42.5
		c16,24.6,44.8,31.5,52.4,32.9c7.6-1.4,36.4-8.3,52.4-32.9c7.6-11.6,11.4-25.8,11.4-42.5c0-9.4-1.2-19.5-3.6-30.4
		c-2.2-9.9-3-20-3-29.4c0-11.2,1.1-21.6,2.4-29.7c-6.7,0.6-14.8,1.2-23.1,1.2c-16.2,0-28.2-2.1-36.5-6.5c-8.3,4.4-20.3,6.5-36.5,6.5
		c-8.3,0-16.4-0.5-23.1-1.2C41.7,29.7,42.8,40,42.8,51.3"/>
	<path class="st4" d="M69.3,155L69.3,155l-7,5.9l-11.8-3.2c6.9,9,15.4,15.3,23.6,19.6l-0.2-3.6l9.8-3.7l-11.4-5.4L69.3,155"/>
	<path class="st5" d="M41,133.5l-2,0.6c1.5,5.7,3.6,11,6.4,15.9l1.3,1l-1-7.3l7.6-0.4l-9.2-4.2L41,133.5"/>
	<path class="st5" d="M134.6,138.5L134.6,138.5l1.2,12.1l-10.8,6.9v0l13.1,4.2l1.9,5.9c4.1-3.5,8-7.7,11.4-12.6l-0.3-0.4l2.3-10.5
		l-9.4,2.8L134.6,138.5"/>
	<polyline class="st5" points="50.9,96.2 50.9,96.2 49.8,109.8 39.9,119.6 49.9,119.2 51.1,127.8 56.9,117.9 64.8,115.3 61.5,108.5 
		66,97.8 57.8,103.2 50.9,96.2 	"/>
	<path class="st4" d="M159.9,120.8L159.9,120.8l0.1,8.6l-6.8,3.7l6.9,4.2c1.2-3.8,2.1-7.8,2.8-12.1L159.9,120.8"/>
	<polyline class="st5" points="73.2,123.9 73.2,123.9 73.2,136.8 65.4,142.6 74.1,147.8 76.3,160.4 82.5,151.4 94.5,154.8 
		87.4,141.9 92.6,128.3 80.9,132.6 73.2,123.9 	"/>
	<polyline class="st4" points="117.2,139.1 117.2,139.1 109.6,147.7 103.5,145.3 103.7,155.4 97.8,164.6 104.6,164.3 106.8,175.1 
		111.4,162.6 122.3,158.3 114.7,151.1 117.2,139.1 	"/>
	<polyline class="st5" points="116.8,103.5 116.8,103.5 110.9,114.7 96.5,117.7 107,125.4 103.5,140.2 117.9,131.4 133.4,137.7 
		128.5,123.2 138.8,113.2 123.6,113.4 116.8,103.5 	"/>
	<polyline class="st4" points="104.6,67.2 104.6,67.2 96.2,81.5 78.1,84.3 92.1,91.2 89.9,101.3 103.6,95.4 117.1,99 115.4,89.2 
		128.9,80.5 112.1,80.3 104.6,67.2 	"/>
	<polyline class="st5" points="140.9,88.4 141.7,93.8 136.1,94.1 142.9,97.3 145.1,101.4 149.8,100 157,102.4 153.3,98.4 
		157.9,95.2 148.4,94.1 140.9,88.4 	"/>
	<polyline class="st4" points="145.3,71.9 145.3,71.9 145.5,77 141.5,78.5 146.2,80.8 147.4,84.7 150.3,82.3 155.5,83.7 152.7,79.6 
		155.4,75.4 149.7,76 145.3,71.9 	"/>
	<polyline class="st4" points="87,104.1 87,104.1 81.9,111.1 74,114.6 78.7,116.4 76.5,121 82,116.9 86.3,117 87.2,112.6 92.3,108 
		87.5,109.2 87,104.1 	"/>
	<path class="st5" d="M151.9,54.1l5.6,7.4l-1.8,8.1l2.5-0.7c-0.6-4.9-0.9-9.7-1-14.4L151.9,54.1"/>
	<path class="st5" d="M163.8,112.2l-2.1,2.1l2.1,0C163.8,113.6,163.8,112.9,163.8,112.2"/>
	<polyline class="st5" points="119.8,33.6 119.8,33.6 119.3,46.2 110.8,51.1 120,56.7 121.9,68.6 128.7,60.7 140.7,64.5 134.1,52.2 
		140.1,39.9 127.7,42.9 119.8,33.6 	"/>
	<polyline class="st4" points="82.8,27.2 82.8,27.2 84.7,35.5 80.6,38.7 86.8,42.4 89.8,49.9 92.5,45.1 100.1,47.7 94.4,39.7 
		96.3,30.9 88.9,33.3 82.8,27.2 	"/>
	<polyline class="st4" points="66.7,51.8 66.7,51.8 61.5,61.2 50.9,65.7 57.8,69.8 54.1,81.2 65.3,72.7 77.7,75.6 74.4,64.5 
		83.2,55 71.2,57.9 66.7,51.8 	"/>
	<polyline class="st4" points="96.1,63 96.1,63 94.1,66.7 91.2,67 92.8,69.8 91.5,73.5 94.5,72.1 97.2,75 97.2,70.3 100.6,67.5 
		96.9,66.8 96.1,63 	"/>
	<path class="st4" d="M46,85L46,85l-2.9,3.1l-5,0.8c0,0.3-0.1,0.5-0.1,0.8l3.3,1.1l-1.9,4.6l7.8-3.3l8.5,1.3l-3.3-3.9l4.1-2.6
		l-6.8,0.5L46,85"/>
	<path class="st0" d="M90.1,167.9c0.1-0.3,0.2-0.5,0.4-0.7c0.2-0.2,0.4-0.4,0.7-0.5c0.3-0.1,0.6-0.2,0.9-0.2c0.3,0,0.6,0,0.8,0.1
		c0.3,0.1,0.5,0.2,0.7,0.4c0.2,0.2,0.3,0.4,0.4,0.6c0.1,0.2,0.2,0.5,0.2,0.8c0,0.3,0,0.6-0.1,0.8c-0.1,0.2-0.2,0.4-0.4,0.6
		c-0.2,0.2-0.3,0.3-0.5,0.5c-0.2,0.1-0.4,0.3-0.6,0.4c-0.2,0.1-0.4,0.3-0.6,0.4c-0.2,0.1-0.4,0.3-0.6,0.4c-0.2,0.1-0.3,0.3-0.4,0.4
		c-0.1,0.2-0.2,0.3-0.2,0.6h3.4v0.7h-4.4c0-0.4,0.1-0.7,0.2-1c0.1-0.3,0.3-0.5,0.4-0.7s0.4-0.4,0.6-0.5c0.2-0.2,0.4-0.3,0.7-0.4
		c0.3-0.2,0.5-0.3,0.7-0.5c0.2-0.1,0.4-0.3,0.5-0.4c0.1-0.2,0.2-0.3,0.3-0.5c0.1-0.2,0.1-0.4,0.1-0.6c0-0.2,0-0.3-0.1-0.5
		c-0.1-0.1-0.2-0.3-0.3-0.4c-0.1-0.1-0.3-0.2-0.4-0.2c-0.2-0.1-0.3-0.1-0.5-0.1c-0.2,0-0.4,0-0.6,0.1c-0.2,0.1-0.3,0.2-0.4,0.4
		c-0.1,0.2-0.2,0.3-0.2,0.5c0,0.2-0.1,0.4-0.1,0.6H90C90,168.5,90.1,168.2,90.1,167.9"/>
	<path class="st0" d="M95.1,169.1c0-0.3,0-0.5,0.1-0.8c0.1-0.3,0.1-0.5,0.2-0.7c0.1-0.2,0.2-0.4,0.4-0.6c0.2-0.2,0.4-0.3,0.6-0.4
		c0.2-0.1,0.5-0.2,0.9-0.2c0.3,0,0.6,0.1,0.9,0.2c0.2,0.1,0.5,0.2,0.6,0.4c0.2,0.2,0.3,0.4,0.4,0.6c0.1,0.2,0.2,0.5,0.2,0.7
		c0.1,0.3,0.1,0.5,0.1,0.8c0,0.3,0,0.5,0,0.8c0,0.2,0,0.5,0,0.8c0,0.3,0,0.5-0.1,0.8c-0.1,0.3-0.1,0.5-0.2,0.7
		c-0.1,0.2-0.2,0.4-0.4,0.6c-0.2,0.2-0.4,0.3-0.6,0.4c-0.2,0.1-0.5,0.1-0.9,0.1c-0.3,0-0.6,0-0.9-0.1c-0.2-0.1-0.5-0.2-0.6-0.4
		c-0.2-0.2-0.3-0.4-0.4-0.6c-0.1-0.2-0.2-0.5-0.2-0.7c0-0.3-0.1-0.5-0.1-0.8c0-0.3,0-0.5,0-0.8C95,169.7,95.1,169.4,95.1,169.1
		 M95.9,170.7c0,0.3,0.1,0.6,0.2,0.9c0.1,0.3,0.2,0.5,0.4,0.7c0.2,0.2,0.5,0.3,0.8,0.3c0.3,0,0.6-0.1,0.8-0.3
		c0.2-0.2,0.3-0.4,0.4-0.7c0.1-0.3,0.1-0.6,0.2-0.9c0-0.3,0-0.6,0-0.8c0-0.2,0-0.3,0-0.5c0-0.2,0-0.4,0-0.6c0-0.2-0.1-0.4-0.1-0.6
		c-0.1-0.2-0.1-0.4-0.2-0.5c-0.1-0.1-0.2-0.3-0.4-0.3c-0.2-0.1-0.3-0.1-0.6-0.1c-0.2,0-0.4,0-0.6,0.1c-0.2,0.1-0.3,0.2-0.4,0.3
		c-0.1,0.1-0.2,0.3-0.2,0.5c-0.1,0.2-0.1,0.4-0.1,0.6c0,0.2,0,0.4,0,0.6c0,0.2,0,0.4,0,0.5C95.9,170.1,95.9,170.4,95.9,170.7"/>
	<path class="st0" d="M102.2,173.2v-4.8h-1.7v-0.6c0.2,0,0.4,0,0.7-0.1c0.2,0,0.4-0.1,0.6-0.2c0.2-0.1,0.3-0.2,0.4-0.4
		c0.1-0.2,0.2-0.4,0.2-0.6h0.6v6.7H102.2z"/>
	<path class="st0" d="M109.5,170.9v0.7h-0.9v1.6h-0.8v-1.6H105v-0.8l3-4.3h0.6v4.4H109.5z M107.9,167.6L107.9,167.6l-2.2,3.3h2.2
		V167.6z"/>
	<path class="st0" d="M50.3,34.5h-1.6v-1.3h1.6V34.5z M50.3,40.9h-1.6v-5.7h1.6V40.9z"/>
	<path class="st0" d="M52.7,38.8c0,0.2,0,0.3,0,0.5c0,0.1,0.1,0.3,0.2,0.4c0.1,0.1,0.2,0.2,0.3,0.2c0.1,0.1,0.3,0.1,0.5,0.1
		c0.2,0,0.5-0.1,0.7-0.2c0.2-0.2,0.3-0.4,0.3-0.7c0-0.2,0-0.3-0.1-0.4c0-0.1-0.1-0.2-0.2-0.3C54.3,38.1,54.2,38,54,38
		c-0.2-0.1-0.4-0.2-0.7-0.3c-0.4-0.1-0.7-0.2-0.9-0.4c-0.3-0.1-0.5-0.3-0.7-0.5c-0.2-0.2-0.3-0.4-0.4-0.6c-0.1-0.2-0.1-0.5-0.1-0.8
		c0-0.8,0.2-1.3,0.7-1.7c0.4-0.4,1.1-0.6,1.8-0.6c0.4,0,0.7,0,1,0.1c0.3,0.1,0.6,0.2,0.8,0.4c0.2,0.2,0.4,0.4,0.5,0.6
		c0.1,0.3,0.2,0.6,0.2,0.9v0.2h-1.6c0-0.4-0.1-0.6-0.2-0.8c-0.1-0.2-0.4-0.3-0.7-0.3c-0.2,0-0.3,0-0.4,0.1c-0.1,0-0.2,0.1-0.3,0.2
		c-0.1,0.1-0.1,0.2-0.1,0.3c0,0.1,0,0.2,0,0.3c0,0.2,0.1,0.4,0.2,0.6c0.1,0.2,0.3,0.3,0.7,0.4l1.2,0.5c0.3,0.1,0.6,0.3,0.8,0.4
		c0.2,0.1,0.4,0.3,0.5,0.4c0.1,0.2,0.2,0.3,0.2,0.5c0,0.2,0.1,0.4,0.1,0.6c0,0.8-0.2,1.4-0.7,1.8c-0.5,0.4-1.2,0.5-2.1,0.5
		c-0.9,0-1.6-0.2-2-0.6c-0.4-0.4-0.6-0.9-0.6-1.6v-0.3h1.6V38.8z"/>
	<polygon class="st0" points="61.9,34.6 60.2,34.6 60.2,40.9 58.6,40.9 58.6,34.6 56.8,34.6 56.8,33.3 61.9,33.3 	"/>
	<path class="st0" d="M66.2,33.3l2.1,7.6h-1.7l-0.4-1.6h-2.1l-0.4,1.6h-1.7l2.1-7.6H66.2z M66,38.1l-0.8-3.4h0l-0.8,3.4H66z"/>
	<polygon class="st0" points="72.7,38.5 72.8,38.5 72.8,33.3 74.2,33.3 74.2,40.9 72.4,40.9 70.4,35.6 70.4,35.6 70.4,40.9 
		68.9,40.9 68.9,33.3 70.8,33.3 	"/>
	<path class="st0" d="M78.1,33.3c0.3,0,0.6,0,0.9,0.1c0.3,0.1,0.5,0.2,0.7,0.3c0.2,0.1,0.4,0.3,0.5,0.6c0.1,0.2,0.2,0.6,0.2,0.9
		c0,0.4-0.1,0.8-0.3,1.1c-0.2,0.3-0.5,0.5-0.9,0.6v0c0.5,0.1,0.8,0.2,1.1,0.5c0.3,0.3,0.4,0.7,0.4,1.2c0,0.3,0,0.6-0.1,0.9
		c-0.1,0.3-0.2,0.5-0.4,0.7c-0.2,0.2-0.5,0.4-0.8,0.5c-0.3,0.1-0.7,0.2-1.2,0.2h-2.7v-7.6H78.1z M77.4,36.4c0.5,0,0.8-0.1,1-0.2
		c0.2-0.2,0.3-0.4,0.3-0.8c0-0.4-0.1-0.6-0.3-0.8c-0.2-0.1-0.5-0.2-0.9-0.2H77v2H77.4z M77.6,39.8c0.4,0,0.7-0.1,0.9-0.2
		c0.2-0.2,0.4-0.5,0.4-0.9c0-0.2,0-0.4-0.1-0.5c-0.1-0.1-0.1-0.3-0.3-0.4c-0.1-0.1-0.2-0.2-0.4-0.2c-0.1,0-0.3-0.1-0.5-0.1H77v2.3
		H77.6z"/>
	<path class="st0" d="M83.1,38.6c0,0.2,0,0.4,0,0.5c0,0.2,0.1,0.3,0.1,0.4c0.1,0.1,0.2,0.2,0.3,0.3c0.1,0.1,0.3,0.1,0.5,0.1
		c0.2,0,0.4,0,0.5-0.1c0.1-0.1,0.2-0.2,0.3-0.3c0.1-0.1,0.1-0.3,0.1-0.4c0-0.2,0-0.3,0-0.5v-5.3h1.6v5.3c0,0.5-0.1,0.9-0.2,1.2
		c-0.1,0.3-0.3,0.6-0.6,0.8c-0.2,0.2-0.5,0.3-0.8,0.4c-0.3,0.1-0.6,0.1-1,0.1c-0.3,0-0.6,0-1-0.1c-0.3-0.1-0.6-0.2-0.8-0.3
		c-0.2-0.2-0.4-0.4-0.6-0.7c-0.1-0.3-0.2-0.7-0.2-1.2v-5.3h1.6V38.6z"/>
	<polygon class="st0" points="87.7,33.3 89.3,33.3 89.3,39.7 92.2,39.7 92.2,40.9 87.7,40.9 	"/>
	<path class="st0" d="M98.3,33.3c0.3,0,0.6,0,0.9,0.1c0.3,0.1,0.5,0.2,0.7,0.3c0.2,0.1,0.4,0.3,0.5,0.6c0.1,0.2,0.2,0.6,0.2,0.9
		c0,0.4-0.1,0.8-0.3,1.1c-0.2,0.3-0.5,0.5-0.9,0.6v0c0.5,0.1,0.8,0.2,1.1,0.5c0.3,0.3,0.4,0.7,0.4,1.2c0,0.3,0,0.6-0.1,0.9
		c-0.1,0.3-0.2,0.5-0.4,0.7c-0.2,0.2-0.5,0.4-0.8,0.5c-0.3,0.1-0.7,0.2-1.2,0.2h-2.7v-7.6H98.3z M97.7,36.4c0.5,0,0.8-0.1,1-0.2
		c0.2-0.2,0.3-0.4,0.3-0.8c0-0.4-0.1-0.6-0.3-0.8c-0.2-0.1-0.5-0.2-0.9-0.2h-0.6v2H97.7z M97.8,39.8c0.4,0,0.7-0.1,0.9-0.2
		c0.2-0.2,0.4-0.5,0.4-0.9c0-0.2,0-0.4-0.1-0.5c-0.1-0.1-0.2-0.3-0.3-0.4c-0.1-0.1-0.2-0.2-0.4-0.2c-0.1,0-0.3-0.1-0.5-0.1h-0.7v2.3
		H97.8z"/>
	<path class="st0" d="M105.4,33.3l2.1,7.6h-1.7l-0.4-1.6h-2.1l-0.4,1.6h-1.7l2.1-7.6H105.4z M105.2,38.1l-0.8-3.4h0l-0.8,3.4H105.2z
		"/>
	<path class="st0" d="M109.4,38.8c0,0.2,0,0.3,0,0.5c0,0.1,0.1,0.3,0.2,0.4c0.1,0.1,0.2,0.2,0.3,0.2c0.1,0.1,0.3,0.1,0.5,0.1
		c0.2,0,0.5-0.1,0.7-0.2c0.2-0.2,0.3-0.4,0.3-0.7c0-0.2,0-0.3-0.1-0.4c0-0.1-0.1-0.2-0.2-0.3c-0.1-0.1-0.3-0.2-0.4-0.3
		c-0.2-0.1-0.4-0.2-0.7-0.3c-0.4-0.1-0.7-0.2-0.9-0.4c-0.3-0.1-0.5-0.3-0.7-0.5c-0.2-0.2-0.3-0.4-0.4-0.6c-0.1-0.2-0.1-0.5-0.1-0.8
		c0-0.8,0.2-1.3,0.7-1.7c0.4-0.4,1.1-0.6,1.8-0.6c0.4,0,0.7,0,1,0.1c0.3,0.1,0.6,0.2,0.8,0.4c0.2,0.2,0.4,0.4,0.5,0.6
		c0.1,0.3,0.2,0.6,0.2,0.9v0.2h-1.6c0-0.4-0.1-0.6-0.2-0.8c-0.1-0.2-0.4-0.3-0.7-0.3c-0.2,0-0.3,0-0.4,0.1c-0.1,0-0.2,0.1-0.3,0.2
		c-0.1,0.1-0.1,0.2-0.1,0.3c0,0.1,0,0.2,0,0.3c0,0.2,0.1,0.4,0.2,0.6c0.1,0.2,0.3,0.3,0.7,0.4l1.2,0.5c0.3,0.1,0.6,0.3,0.8,0.4
		c0.2,0.1,0.4,0.3,0.5,0.4c0.1,0.2,0.2,0.3,0.2,0.5c0,0.2,0.1,0.4,0.1,0.6c0,0.8-0.2,1.4-0.7,1.8c-0.5,0.4-1.2,0.5-2.1,0.5
		c-0.9,0-1.6-0.2-2-0.6c-0.4-0.4-0.6-0.9-0.6-1.6v-0.3h1.6V38.8z M110.4,41.6c0.1,0,0.1,0,0.2,0c0.1,0,0.1,0,0.2,0
		c0.1,0,0.2,0,0.3,0.1c0.1,0,0.2,0.1,0.3,0.2c0.1,0.1,0.2,0.1,0.2,0.2c0.1,0.1,0.1,0.2,0.1,0.3c0,0.3-0.1,0.6-0.4,0.7
		c-0.2,0.2-0.6,0.3-1,0.3c-0.2,0-0.5,0-0.7-0.1c-0.2,0-0.4-0.1-0.4-0.1l0.2-0.5c0.1,0,0.2,0.1,0.3,0.1c0.1,0,0.3,0,0.4,0
		c0.2,0,0.3,0,0.4-0.1c0.1-0.1,0.2-0.2,0.2-0.3c0-0.1,0-0.2-0.1-0.3c-0.1-0.1-0.2-0.1-0.4-0.1c-0.1,0-0.2,0-0.2,0
		c-0.1,0-0.1,0-0.2,0l-0.2-0.2l0.6-0.9h0.6L110.4,41.6z"/>
	<path class="st0" d="M117.5,33.3l2.1,7.6h-1.7l-0.4-1.6h-2.1l-0.4,1.6h-1.7l2.1-7.6H117.5z M117.3,38.1l-0.8-3.4h0l-0.8,3.4H117.3z
		"/>
	<polygon class="st0" points="121.8,36.4 121.8,36.4 123.9,33.3 125.6,33.3 123.5,36.6 125.9,40.9 124.1,40.9 122.4,37.8 
		121.8,38.7 121.8,40.9 120.2,40.9 120.2,33.3 121.8,33.3 	"/>
	<path class="st0" d="M127.5,38.8c0,0.2,0,0.3,0,0.5c0,0.1,0.1,0.3,0.2,0.4c0.1,0.1,0.2,0.2,0.3,0.2c0.1,0.1,0.3,0.1,0.5,0.1
		c0.2,0,0.5-0.1,0.7-0.2c0.2-0.2,0.3-0.4,0.3-0.7c0-0.2,0-0.3-0.1-0.4c0-0.1-0.1-0.2-0.2-0.3c-0.1-0.1-0.3-0.2-0.4-0.3
		c-0.2-0.1-0.4-0.2-0.7-0.3c-0.4-0.1-0.7-0.2-0.9-0.4c-0.3-0.1-0.5-0.3-0.7-0.5c-0.2-0.2-0.3-0.4-0.4-0.6c-0.1-0.2-0.1-0.5-0.1-0.8
		c0-0.8,0.2-1.3,0.7-1.7c0.4-0.4,1-0.6,1.8-0.6c0.4,0,0.7,0,1,0.1c0.3,0.1,0.6,0.2,0.8,0.4c0.2,0.2,0.4,0.4,0.5,0.6
		c0.1,0.3,0.2,0.6,0.2,0.9v0.2h-1.6c0-0.4-0.1-0.6-0.2-0.8c-0.1-0.2-0.4-0.3-0.7-0.3c-0.2,0-0.3,0-0.5,0.1c-0.1,0-0.2,0.1-0.3,0.2
		c-0.1,0.1-0.1,0.2-0.1,0.3c0,0.1,0,0.2,0,0.3c0,0.2,0.1,0.4,0.2,0.6c0.1,0.2,0.3,0.3,0.7,0.4l1.2,0.5c0.3,0.1,0.6,0.3,0.8,0.4
		c0.2,0.1,0.4,0.3,0.5,0.4c0.1,0.2,0.2,0.3,0.2,0.5c0,0.2,0.1,0.4,0.1,0.6c0,0.8-0.2,1.4-0.7,1.8c-0.5,0.4-1.2,0.5-2.1,0.5
		c-0.9,0-1.6-0.2-2-0.6c-0.4-0.4-0.6-0.9-0.6-1.6v-0.3h1.6V38.8z M128.5,41.6c0.1,0,0.1,0,0.2,0c0.1,0,0.1,0,0.2,0
		c0.1,0,0.2,0,0.3,0.1c0.1,0,0.2,0.1,0.3,0.2c0.1,0.1,0.2,0.1,0.2,0.2c0.1,0.1,0.1,0.2,0.1,0.3c0,0.3-0.1,0.6-0.4,0.7
		c-0.2,0.2-0.6,0.3-1,0.3c-0.2,0-0.5,0-0.7-0.1c-0.2,0-0.4-0.1-0.4-0.1l0.2-0.5c0.1,0,0.2,0.1,0.3,0.1c0.1,0,0.3,0,0.4,0
		c0.2,0,0.3,0,0.4-0.1c0.1-0.1,0.2-0.2,0.2-0.3c0-0.1,0-0.2-0.1-0.3c-0.1-0.1-0.2-0.1-0.4-0.1c-0.1,0-0.2,0-0.2,0
		c-0.1,0-0.1,0-0.2,0l-0.2-0.2l0.6-0.9h0.6L128.5,41.6z"/>
	<polygon class="st0" points="136.6,34.6 133.7,34.6 133.7,36.4 136.4,36.4 136.4,37.6 133.7,37.6 133.7,39.7 136.7,39.7 
		136.7,40.9 132.1,40.9 132.1,33.3 136.6,33.3 	"/>
	<polygon class="st0" points="139.1,33.3 139.1,36.2 141,36.2 141,33.3 142.6,33.3 142.6,40.9 141,40.9 141,37.6 139.1,37.6 
		139.1,40.9 137.5,40.9 137.5,33.3 	"/>
	<path class="st0" d="M145.3,34.5h-1.6v-1.3h1.6V34.5z M145.3,40.9h-1.6v-5.7h1.6V40.9z"/>
	<path class="st0" d="M149.4,33.3c0.7,0,1.2,0.2,1.6,0.5c0.4,0.3,0.6,0.8,0.6,1.5c0,0.5-0.1,0.9-0.3,1.3c-0.2,0.3-0.6,0.5-1,0.6v0
		c0.4,0.1,0.7,0.2,0.9,0.4c0.2,0.2,0.3,0.5,0.3,0.9c0,0.1,0,0.3,0,0.5c0,0.2,0,0.4,0,0.6c0,0.4,0,0.7,0.1,0.9c0,0.2,0.1,0.4,0.3,0.4
		v0.1h-1.8c-0.1-0.1-0.1-0.2-0.2-0.4c0-0.1,0-0.3,0-0.4l0-1.5c0-0.3-0.1-0.5-0.2-0.7c-0.1-0.2-0.4-0.3-0.7-0.3h-0.9v3.2h-1.6v-7.6
		H149.4z M148.7,36.7c0.4,0,0.7-0.1,0.9-0.3c0.2-0.2,0.3-0.5,0.3-0.9c0-0.7-0.4-1.1-1.1-1.1h-0.8v2.2H148.7z"/>
	<path class="st0" d="M124.2,108.3c-1.5-2.3-3.5-4.3-5.9-6.2l-0.8-0.6c1-1.1,2-2.7,2.6-3.9c1.6-3.1,2.4-6.5,2.4-10.2
		c0-5.7-1.8-10.7-5.2-14.9c-3.4-4.1-7.9-7-13.6-8.4c-3.7-1-9.3-1.5-16.9-1.5H74.6H70v4.6v26.1v4.5l0,4.6v15v4.6h0v23.7v4.6h4.6h22
		c7.1,0,12.7-1,16.9-3.2c4.3-2.2,7.9-5.5,10.6-9.8c2.7-4.4,4.1-9.2,4.1-14.5C128.3,117.3,126.9,112.4,124.2,108.3 M120.3,134.8
		c-2.3,3.6-5.2,6.3-8.8,8.1c-3.6,1.8-8.6,2.7-14.9,2.7h-22v-28.3h0v-15h0V98h14.9v0h3.3c3.6,0,6.3-0.8,8.1-2.3
		c1.8-1.5,2.7-3.6,2.7-6.2c0-0.4,0-0.8-0.1-1.2c-0.1-1.2-0.5-2.2-1.1-3.1c-0.4-0.6-0.8-1.1-1.3-1.5c-0.2-0.2-0.5-0.4-0.8-0.6
		c-1.7-1.1-3.9-1.6-6.9-1.6h-3.5h-0.4v8.8v2.3v0.8H74.6V67.2h12.3c7.2,0,12.4,0.5,15.7,1.4c4.7,1.2,8.4,3.6,11.2,6.9
		c2.8,3.4,4.2,7.4,4.2,12c0,3-0.6,5.7-1.9,8.1c-1.3,2.4-3.3,4.7-6.2,6.9c0,0,0,0,0,0c-0.8,0.6-1.7,1.1-2.7,1.6
		c-3.6,1.8-8.6,2.7-14.9,2.7h-2.9v4.6v6h0v14h3.7c6.2,0,10.4-0.8,12.5-2.3c2.2-1.6,3.2-3.8,3.2-6.8c0-3.4-1.3-6-3.8-8
		c-2.3-1.8-6.1-2.8-11.3-2.9c6.4-0.1,11.5-1.2,15.4-3.2c1.8-0.9,3.5-2,5-3.3c2.6,1.7,4.6,3.7,6.1,5.9c2.2,3.4,3.3,7.3,3.3,11.9
		C123.7,127.2,122.6,131.2,120.3,134.8 M94.1,93.3L94.1,93.3v-0.8v-2.3V86c2.2,0.1,3.2,0.6,3.7,0.9c0.1,0.1,0.2,0.1,0.3,0.2
		c0.2,0.2,0.4,0.3,0.5,0.5c0.2,0.3,0.3,0.7,0.4,1.2c0,0.2,0,0.4,0,0.6c0,1.6-0.5,2.3-1.1,2.8C97.5,92.6,96.4,93.2,94.1,93.3
		 M94.1,126.8v-4.9l0-4.6v-1.5c5.3,0.2,7.5,1.3,8.4,2c1.4,1.1,2,2.4,2,4.4c0,1.9-0.6,2.6-1.3,3.1
		C102.8,125.6,100.8,126.7,94.1,126.8"/>
</g>
</svg>
