<?xml version="1.0" encoding="utf-8"?>
<!-- Generator: Adobe Illustrator 21.1.0, SVG Export Plug-In . SVG Version: 6.00 Build 0)  -->
<svg version="1.1" id="Layer_1" xmlns="http://www.w3.org/2000/svg" xmlns:xlink="http://www.w3.org/1999/xlink" x="0px" y="0px"
	 viewBox="0 0 200 200" style="enable-background:new 0 0 200 200;" xml:space="preserve">
<style type="text/css">
	.st0{fill:#231F20;}
	.st1{fill:#DF272D;}
	.st2{fill:#FBDD1B;}
</style>
<g>
	<path class="st0" d="M22.1,12.1l5,117.6c0.2,5.1,2.1,8.8,5.9,12.3l61.5,55.9c3,2.7,7.9,2.9,10.9,0.2l63.8-58.2
		c3.3-3,3.8-8.1,4-13.2L178,12.2c0.3-6.4-4-12.7-13.8-12.1c-40.9,2.7-80.3,4.5-128.7,0C27-0.7,21.8,5.2,22.1,12.1L22.1,12.1z
		 M100.2,192.2l63.7-58.1c1.2-1.1,1.4-6.2,1.5-7.8l4.8-114.5c0.1-3.5-2.4-4.1-5.5-3.9c-6.3,0.4-12.6,0.8-18.9,1.2
		c-37.4,2.1-73.7,2.3-111-1.2c-2.8-0.3-5,0.9-4.9,3.9l5,117.6c0.1,3,1.2,4.8,3.4,6.8l61.5,55.9C99.8,192.1,100,192.2,100.2,192.2
		L100.2,192.2z"/>
	<path class="st1" d="M100.6,195.5c-1.1,0.1-2.3-0.2-3.1-1L36,138.6c-2.9-2.6-4.3-5.2-4.5-9.1l-5-117.6C26.3,6.7,30.2,4,35,4.5
		C71.9,8,108.7,7.8,145.6,5.7c6.3-0.4,12.6-0.8,18.8-1.2c5-0.3,9.3,1.8,9,7.4l-4.8,114.5c-0.1,3-0.3,8-2.6,10.1l-64.5,58.8
		L100.6,195.5L100.6,195.5z"/>
	<path class="st2" d="M100.6,195.5c-1.1,0.1-2.3-0.2-3.1-1L36,138.6c-2.9-2.6-4.3-5.2-4.5-9.1l-5-117.6c0-1,0.1-2,0.3-2.8L157,144.8
		l-55.4,50.6L100.6,195.5L100.6,195.5z"/>
	<path class="st0" d="M66.6,113.4c2.2,4.6,3.3,12,2.4,15.1c12.7,1.6,24.1,17.5,31,33.2c9.1-16.4,22.4-28.3,34.7-36.6
		c-4.8-37.3-4.6-68.4,4.1-93.5C114.9,40.4,93,40,73.7,34c-1.4,5.9-5.6,10.7-11.1,12.3L68.9,75c7.7-14,21.2-21,34.7-22.4
		c7.7-0.8,16.7,4.5,16.8,16.1c0.3,22.2-0.8,60.1-17.6,61.3c-6.9,0.5-18.7-12.8-21.6-24.3C77.1,110.7,72.2,112.4,66.6,113.4
		L66.6,113.4z"/>
</g>
</svg>
