<?xml version="1.0" encoding="utf-8"?>
<!-- Generator: Adobe Illustrator 21.1.0, SVG Export Plug-In . SVG Version: 6.00 Build 0)  -->
<svg version="1.1" id="Layer_1" xmlns="http://www.w3.org/2000/svg" xmlns:xlink="http://www.w3.org/1999/xlink" x="0px" y="0px"
	 viewBox="0 0 200 200" style="enable-background:new 0 0 200 200;" xml:space="preserve">
<style type="text/css">
	.st0{fill:#004794;}
</style>
<g>
	<polygon class="st0" points="123.1,86.1 124.3,81.9 128.2,83.7 128.5,83.6 128.5,83.3 126,79.8 129.8,77.9 129.9,77.6 129.7,77.4 
		125.4,77.2 126.3,73 126.1,72.7 125.8,72.8 123,76 120.2,72.7 119.9,72.6 119.8,72.9 120.5,77.1 116.2,77.2 116,77.4 116.1,77.7 
		119.9,79.8 117.3,83.2 117.3,83.5 117.6,83.6 121.6,81.9 122.6,86.1 122.9,86.3 	"/>
	<path class="st0" d="M130.9,69.9c-0.7-0.6-1.4-1.2-2.2-1.6l-1,2c2.3,1.4,4.1,3.6,4.7,6.4l2.2-0.5l-0.4-1.3
		C133.5,72.9,132.4,71.2,130.9,69.9z"/>
	<path class="st0" d="M118.4,68.3l0.4,0.9l0.2,0.4c1-0.4,2.2-0.7,3.3-0.7l0.7,0c1.3,0,2.5,0.3,3.6,0.8l1-2c-1.4-0.6-2.9-1-4.5-1
		h-0.9l-2,0.3c-0.8,0.2-1.5,0.4-2.2,0.7l0.2,0.4L118.4,68.3z"/>
	<path class="st0" d="M132.6,78.3c0.1,2.4-0.7,4.7-2.1,6.5l1.6,1.5c1.8-2.2,2.8-5,2.7-8.1l-0.1-1l-2.2,0.5L132.6,78.3z"/>
	<path class="st0" d="M128.5,86.8l-0.9,0.6l-0.4,0.2l-0.6,0.3l-0.6,0.2l-0.4,0.1l-1,0.2l-1.2,0.1H123l-0.1,1.4l-0.1,0.5v0v0.4h0.4
		l0.4-0.1h0.1l0.1,0l0.3,0l0.6-0.1l1.8-0.4l1.2-0.5l1.7-0.9l0.7-0.5l0.1-0.1l1.2-1l-1.6-1.5L128.5,86.8z M116.3,86.2l-0.2-0.2
		l-0.8-0.8l-1,0.6l-0.3,0.2l-0.6,0.4l0.4,0.4l0.4,0.4l0.4,0.4l1.1,0.9l0.6,0.4l0.7,0.4l0.5,0.3l0.2,0.1l0.3,0.1l0.2,0.1l0.3,0.1
		c0.7,0.3,1.5,0.5,2.2,0.6l1,0.1v-0.2l0-0.5l0-0.1l0.1-1.4v-0.1c-1.6-0.2-3.1-0.7-4.3-1.5L116.3,86.2z"/>
	<path class="st0" d="M114,84.6l0.2-0.1l0.3-0.2l0-0.1l-0.1-0.1l-0.5-0.8l-0.2-0.3l-0.5-1.2c-0.2-0.8-0.4-1.5-0.4-2.3l0-0.1v-0.3
		l0.1-1.6l0-0.2l-2.1-0.6l-0.2,2.1v0.6v0.1l0.1,0.7l0.1,0.4l0,0.4c0.2,1.2,0.6,2.3,1.1,3.4l0.1,0.1l0.3,0.6l0.3,0.4l0.1,0.2l1-0.7
		L114,84.6z"/>
	<path class="st0" d="M163.5,52.4l0.4,1.4c0.1,0.5,0.2,1,0.1,1.4c-0.1,0.9-0.9,1.5-3,1.5l-2.3-0.2l-1.8-0.3
		c-1.1-0.2-2.1-0.4-3.6-0.2l-2.5,0.6l-2.2,0.6c-1.5,0.3-3.3,0.4-6.1-0.5c0.7-1.7,1.6-3.5,2.8-5.4c4.8-4.3,9.1-7.2,12-9
		C158.9,44.1,162.2,48.2,163.5,52.4z M159,59.6c0.4-0.3,0.5-0.2,0.7-0.1c0.4,0.3,0.5,0.5,0.4,0.7l-0.3,0.3l-0.2,0l-0.3-0.1l-0.6-0.1
		c-0.6,0-1.2,0.5-1.7,0.9l-0.7,0.6l-0.5,0.3l-0.9,0.1l-0.3,0.1l-0.4-0.1l0.2-0.3l1.7-1.7c1-1,1.8-1.4,2.4-1.5
		c0.6-0.1,0.7,0.1,0.7,0.4l-0.2,0.4L159,59.6z M123.9,63.7l-1.1-0.1l-2.2,0.2l-0.3-0.7l1-1l2.8,0.9L123.9,63.7z M125.5,60.1
		l-3.3-1.1l-0.1-0.4l-0.4-1.3l-0.1-0.2l0.5-0.4l1.3-0.9l1.4,0.6l2.2,0.9L125.5,60.1z M128.6,54.6l-4.8-2l0-0.3l-0.1-1.4l0-0.4
		l0.3-0.2l1.9-1l1.4,0.8l3.2,1.7L128.6,54.6z M132.3,49.2l-4.9-2.6l0.2-2.1l1.1-0.6l0.9-0.5l0-0.1l0.8,0.5l4,2.6L132.3,49.2z
		 M136.5,43.9l-1.2-0.8l-4.7-3l0.1-0.2l0.3-1.1l0.3-1.1l0.9-0.4l0.7-0.4l0.2-0.1l4.3,3.3l1.5,1.1L136.5,43.9z M141,38.9l-6.3-4.8
		l0.1-0.2l0.2-1.4l0.1-0.6l0-0.1l1.3-0.4l1-0.3l1.6,1.4l4.5,4L141,38.9z M157.6,40.4l-0.3,0.1l-0.1,0.1c-5.5,3.2-16.4,10.9-26.9,25
		l-0.9-0.5l-1.5-1.7l-1.3-1.5l2.2,0.1l3,0.2l-1.4-2.5l-1.5-2.7l2.9,0.8l3,0.8l-1.3-3.3l-1.4-3.3l0,0l3.1,0.9l3.6,1.1l-1.7-3.8
		l-1.3-3l0-0.1l2.7,1l4.2,1.6l-1.9-4.9l-0.9-2.3l1.9,0.8l5.8,2.3l-2.8-6.7l-0.5-1.2l0.1-0.1l0.9,0.5l6.8,3.6l-3.1-8.3l0.1,0l9.1,4.3
		l1.5,1.4L157.6,40.4z M145.9,34.2l-5-4.5l-0.5-0.5L140,29l0.2-1.8l0-0.2l0-0.3l0-0.1l0.2,0l0.5-0.1l1.2-0.2l0.6-0.1l0.1-0.1
		l5.7,5.7L145.9,34.2z M121.6,113.7l-0.5,0.3l-0.2,0.1l-1.5,1.1l-0.5,0.4l-0.4,0.3c-1.3,1.1-2.8,2.4-4,3.7l-0.5,0.4
		c0.1-0.9,0.3-2.3,0.5-3.4l0-0.2l0.3-1.6l0.5-4.4l0.1-0.7l0.5-4.8l0.1-0.9l0-0.1c0.1-1.6,0.7-3.4,1-4.4l0.2-0.7l0.1-0.4l0.3-1
		l-1.3,0.5l0.6-1.4l0.8-1.9l0.3-0.6l0.5-0.8l1.2,0.3l1.8,0.2v3.6v4.9v0.2v2.1v2.6l-0.1,4.1L121.6,113.7L121.6,113.7z M122.4,113.8
		l0.1-6.4l0-1.4l0-0.9l0.1-5.4l0.3-0.6l0.3-0.7l0,0.2c0.1,1.1,0.2,2.6,0.5,3.9l0.3,1.4c0.8,3.3,2.2,9.6,2.4,11.4l0.1,0.7l-2.3-1.1
		L122.4,113.8z M130.2,111.3l-1.6,3.2l-0.4,0.9l-0.3,0.4l-0.6-3.4c-0.2-1.6-1.3-6.8-2.1-10.1l-0.4-1.7c-1.1-4.3-0.9-5.8-0.9-5.8
		l0.2-1l1.1-0.1l1.2-0.2l1.1-0.3l1.1,3.6l3.6,11.4C131.9,108.5,131,109.8,130.2,111.3z M137.2,108.8l-2.3-0.5
		c-0.8-0.1-1.4-0.3-1.8-0.5l-3.7-12.7l-0.7-2.4l1.9-0.9l0.9-0.6l0.8,1.1l3.1,6c0.7,1.7,1.4,3.7,2.1,5.9l1.3,4.9l-1.5-0.4
		L137.2,108.8z M145.9,118.5c-0.9,1.7-1.6,2.8-2.3,3.6l-0.1-0.3c-1.5-5.1-2.3-7-2.7-7.7l-0.8-1.6l1.1,0.3l-0.2-0.9l-1.7-6.3
		c2.5,3,7.4,3.9,13.1,4.4l-1.2,0.9l-1.6,1.4C148.4,113.5,147.1,115.4,145.9,118.5z M172,78.8c-0.5,0.6-2.3,0.9-3.3,0.5l-1.2-0.4
		c-0.4-0.1-0.9-0.2-1.6-0.2c-0.9,0-1.8,0.6-3,1.7c-1.3,1.1-2.4,1.1-3,0.6c-0.6-0.6-0.7-1.9,0.2-3.5l0.8-1.6l-0.1-0.3l-0.9,0.6
		l-1.7,1.2l-0.8,0.7l-6,5.1c-1.5,1.1-2,1.9-2.2,2.7c-0.1,0.4-0.1,0.8-0.1,1.3l0.1,1.6l0,4.3c0,0.5,0.1,0.8,0.2,0.8l0.1-0.1l0.1-0.6
		l0.3-5.2c0.2-1.2,0.9-2.6,2.4-4.1c1.9-1.7,4.6-3.8,5.7-4.7c-0.6,1.4,0.1,2.5,0.3,2.7c0.6,0.4,1.5,0.5,2.8,0.5
		c0.5,0,0.9-0.1,1.2-0.3l1.1-0.6l1.1-0.6c0.4-0.2,0.8-0.3,1.3-0.3c0,0,0.9,1,1.2,2.3l0.3,1.4c0.1,0.6,0.1,1.2,0,1.9
		c-0.2,1.3-1,2.6-3.2,3c-2,0.4-3.7,0.3-5.1,0.1l-1.8-0.3c-0.5-0.1-0.9-0.1-1.2,0.1c-0.4,0.1-0.4,0.3-0.3,0.5l0.6,0.6
		c0.5,0.5,1,1,0.5,1.6l0,0.4c0.2,0,0.5-0.1,0.9-0.4c0.7-0.6,7-2.7,9.2-0.6c1.6,0.9,0.7,2.2-0.7,3.5l-2.1,1.9
		c-0.6,0.6-1.1,1.2-1.2,1.7l0.1,0.1l0.4-0.1c0.3-0.1,0.8-0.2,1.2-0.1c0.9,0.2,1.8,1.1,1.9,4.3c0.1,4.6-3.8,5.6-6.3,5.6l-7.1-0.1
		c-2,0-3.8-0.1-5.3-0.2c-3-0.2-5-0.8-6.7-2.3c-0.7-0.6-1.6-1.5-2.3-2.4l-0.7-0.9c-2-5.7-4.1-9.4-5.9-11.8c2.7-2.2,4.6-5.2,5.3-8.7
		c0.3-0.7,0.8-1,2-0.8c2.6,0.4,5.6,2.7,5.6,2.7l0.1,0l0.3-0.1c0.1-0.1,0.1-0.3-0.1-0.4l-1.6-1.2l-2.5-2c-1.8-1.5-3.5-3.3-4-5.2
		l-0.1-0.4l-0.8-2.2c1.2-1.7,2.1-3.6,2.8-5.5l2-6.3c1.7,0,3.2-0.4,4.6-0.8l2-0.8l1.8-0.8c2.3-1,4.2-1.6,6,0c0.2,0.2,0.1,0.5-0.2,0.8
		l-1.1,1.1c-0.4,0.4-0.9,0.8-1.5,1l-1.8,0.7c-2.1,0.8-2.7,1.3-2.7,1.7c0.1,0.4,0.9,0.5,1.7,0.4c1.5-0.3,3.3,0,4.4,0.3
		c2.2,0.6,2.2,1.4,1.8,2.2l-0.6,0.9c-0.1,0.2,0,0.4,0.5,0.4c2.3-0.2,3.3-1.6,3.9-3l0.7-1.9c0.2-0.5,0.4-0.9,0.8-1
		c1.2-0.3,2.8-0.6,5,2.9C168.9,68.1,173.6,77.2,172,78.8z M100.1,131.2l4.6,1.3l4.9,1l0.1-0.1l-1.7-4.9l-1.9-4.2l3.4,0.7l3.7,0.8
		l0.3,2l0,0.1c-2.1,3.4-4.6,6.9-7.4,10.4l-2.8,3.4l-0.2-1.4c-0.3-1.5-0.7-2.8-1.2-4.1l-0.9-2.5L100.1,131.2z M103,141.9l-4.4,4.9
		l-5.3-8.7l4.7,2.1L103,141.9z M90.3,115.9l0.1-0.8c0.3-1.6,1-5,1.4-6.4l0.1-0.6l-1.3-0.5l-2.9-0.7l-2.5-0.4c-1.3-0.2-2.7-0.3-4-0.3
		l-0.3-0.1l-0.3-0.1l0.4-0.2c1.3-0.7,3-1.6,4.5-2.2c1.4-0.6,4.5-2.2,7.7-3.9l4.5-2.6l3.4-2.3l3.7-2.5l1.8-1.3l0.7-0.6l0.6-0.6l2.3-2
		l0.1-0.1l0.2,0.2l1.6,1.7l1.8,1.5l1.5,0.9l-0.1,0.2l-0.4,1.4l-0.6,1.5l-1.6,2.9c-1,1.5-2.3,3.1-3.8,4.7c-1.5,1.6-3.3,3.1-5.3,4.6
		c-2,1.5-4.2,3-6.7,4.5l-4.4,2.5L90.3,115.9z M60.8,90.6l-0.1,0l-6.1,3.9l-0.1-0.1l0-0.1l5.2-3.9l-2.2-0.5l2.3-0.9l2.1-0.8l0,0
		l3.1-1.2c2-0.7,4.2-1.4,6-1.8l3.1-0.8l0.7-0.2l1.1-1.6l2.1-3.1L77,79.1l-6.4-1.2l-6-1.1l-0.7-0.3c1.9-0.5,4.6-1.1,6.9-1.3l11.1-1.7
		l12.3-1.7l3.1-0.5c1-0.2,2-0.3,2.9-0.3c1.8,0,3.3-0.3,3.3-0.3l3.4,0.2l2.7,0.6l-0.5,1c-0.5,1.1-0.9,2.3-1.1,3.5l-0.2,1.1l-0.1,1.7
		l0,0.5l-1.1-0.1c-1.6-0.1-9.1,0.6-9.1,0.6L96.1,80c-1.4,0.2-3,0.4-4.4,0.8l-9.8,2.3l-5.7,1.4l-1,0.2L74.1,85l-3,0.8
		c-2,0.5-4.2,1.2-5.9,1.8l-2,0.7l-1.1,0.4l-2,0.8l1.7,0.4L60.8,90.6z M109.1,41c-2.1-0.5-5-1.1-7.7-1.3l-7.5-0.5l-2.7-0.1l-0.2,0
		L88.5,39L83.3,39l-7.3,0c-2.1-0.1-4.6,0-6.5,0.2L66,39.4l-2.3,0.2l1.6,0.9l-10.3,2.1l8-2.4l-2-1.1l2.5-0.3l2.3-0.2l3.5-0.3
		c2.3-0.1,4.7-0.2,6.6-0.2l3.3,0l5,0l2-1.8l1.8-1.4l0.8-0.6l-0.2-0.2l0,0l-0.7-0.7l-3.2-2.5l-2.6-1.7c-1.4-0.9-2.9-1.7-4.4-2.4
		l-0.6-0.5c2,0.1,5,0.3,7.5,0.6l3,0.3l9,1c5.1,0.6,10.3,1.4,13.4,2c2,0.3,4.1,0.9,5.8,1.4l0.9,0.3L120,33l0.4,0.2l0.1,0.1l1,3.3
		l-3.5,0.9l1.1,4.1l-2.5,1.5l-0.9-0.2C112.8,41.6,109.1,41,109.1,41z M78,14.3L78,14.3l-5.4,0.2l6.9-1l0.1-0.1l1.6-0.2l-1.7-1.4
		l4.5,0.2l3.3,0.2c1.3,0.1,3.8,0.4,6.1,0.8l3.3,0.5l6.9,1.1l-1.9-2.4c-1.4-1.6-3.2-3.5-5.1-4.9L96.2,7c1.6,0.3,4,0.9,6,1.5l9.6,2.7
		l0.4,0.1c3.9,1.2,7.9,2.5,10.3,3.4c1.8,0.7,3.7,1.7,5.2,2.5l2.5,1.5l1,0.7l0.1,0.3l0,0.1l0.6,2.4l-4.3,0.1c-3.4-1.6-8.7-3.5-10.6-4
		l-6.2-1.4l-0.7-0.1l-0.6-0.1l-1-0.2l-0.6-0.1l-0.8-0.1l-0.3-0.1l-0.5-0.1l-1.3-0.2l-0.7-0.1L93.4,14c-2-0.4-4.2-0.6-6.1-0.8
		l-3.3-0.3l-2.1-0.1l1.4,1.1l-0.1,0l-0.2,0L78,14.3z M75.3,26.2l-11.3,1.1l9.3-1.5l0.1-0.1l-0.1-0.1l-0.2,0l-1.8-1.2l2.5,0l2.3,0
		h0.1l3,0.1l0.5,0c2.3,0.1,4.7,0.3,6.6,0.6l3.7,0.4l0.9,0.1l4.9-2.4l0.6-0.4l-0.1-0.1l-0.7-0.7l-0.6-0.5l-0.1-0.1l-2.7-2
		c-1.8-1.5-4.1-3.2-6.3-4.4l-0.6-0.5l1.9,0.2l4.2,0.6l0.8,0.1l4.5,0.7l6.6,1.1l0.1,0l0.3,0.1c3.4,0.6,6.8,1.3,9.5,1.9l2.5,0.6
		c2,0.5,4.1,1.2,5.8,1.9l0.4,0.2l3,1.3l0.9,0.5l0.3,1.5l0.3,1.6l0.1,0.4l-2.4,0.1l-0.5,0l-1.3,0.1l0.2,0.6l0.1,0.3l0.5,1l0.8,1.8
		l-3.3,0.8l-1.7-0.7c-2.1-0.7-4.9-1.5-7.6-2c-2.4-0.4-7.7-1.3-12.9-1.9l-6.4-0.7l-2.8-0.3l-2.8-0.3l-0.4-0.1
		c-2.1-0.3-4.6-0.4-6.5-0.5l-0.5,0l-3-0.1h-2.3L75.3,26.2z M113.1,119l-0.4,1.8l-1.3-2.3l-0.9-1.3l0.1-0.2l2.4-0.2h0.2L113.1,119z
		 M82,5.8h6.9l3.1,0l-1.4-1.5l2.2,0.3L94.6,5l2.9,0.5c1.1,0.2,3.3,0.7,5.3,1.3l3,0.8l5.2,1.4l-0.8-1.3c-1.1-1.7-2.6-3.7-4.2-5.2
		l-0.4-0.6c1.5,0.4,3.7,1.1,5.4,1.9l3.5,1.4l5.1,2.1l5.3,2.5l4.2,2.3c1.6,0.9,3.2,2.2,4.4,3.2l2,1.9l0.6,0.7l-0.1,0.4l-4.4,0.2
		c-2.4-1.6-5.1-3.2-6.9-4.2l-1.7-0.7c-1.9-0.7-6.1-2.2-10.2-3.4l-1.1-0.3l-8.9-2.5c-1.7-0.5-3.7-1-5.2-1.3l-2.8-0.5L93,5.5l-0.4-0.1
		l0.8,0.9l0.3,0.3l-5.5-0.4L83.7,6l-1.4-0.1L82,5.8z M63.8,54.2l-12,3.5l10-3.5l0.1-0.1L61.7,54l-0.1,0l-1.9-0.9l2.4-0.4l2.2-0.4
		c0.5-0.1,5.6-1,9.7-1.2l3.5-0.3l2.6-2.6l0.8-0.8l-0.3-0.3l-0.2-0.2l-0.5-0.4l-0.3-0.2l0,0l-3.2-2c-1.4-0.8-3-1.7-4.7-2.4l-2.6-1
		l-0.7-0.4c2-0.2,5-0.3,7.4-0.2h6.2l5.8,0.1c5.1,0.1,10.4,0.4,13.5,0.7c2,0.2,4.1,0.5,5.8,0.9l1,0.2l5.3,1.2l1.2,0.5l1.7,0.6l0.6,2
		l-0.8,0.3l-1.4,0.5l0.3,0.7l0.4,0.9l0.4,0.9l0.1,0.3l-2.3,1.2l-0.3-0.1c-3.1-0.8-7.2-1.1-7.2-1.1c-2.1-0.2-5-0.3-7.6-0.2
		c-2.4,0.1-7.5,0.5-12.5,0.9l-1.7,0.2l-5.6,0.6l-2.1,0.2L74,51.9c-4.1,0.2-9.4,1.1-9.6,1.2l-2.2,0.4L63.8,54.2z M66.7,99.9l-10.1,6
		l7.7-5.4l0-0.1l-0.1,0l-0.1,0.1l-2.5-0.4l2.7-1.3l2.4-1.2c0.5-0.2,5.5-2.6,10-4.3l0.6-2.4L74.5,90l-2.8-0.7l-0.2,0l-4.2-0.9
		l-0.6-0.3c1.5-0.5,3.8-1.1,5.8-1.5l0.7-0.1l8.5-2.1L91.9,82c1.7-0.4,3.7-0.7,5.2-0.9l2.6-0.2l2.4-0.2c0,0,1.5-0.4,3.2-0.3l1,0.1
		l1.4,0.1l0.1,0.7l0,0l0.2,1.1l0.6,1.9L96.9,88l-1.2,0.3l-9.5,2.9L80.6,93l-1.4,0.5l-2.8,0.9l-0.5,0.2c-3.7,1.4-7.5,3.2-8.5,3.7
		l-0.3,0.1l-2.4,1.2L66.7,99.9z M74.5,109.6l-7.1,5.8l-0.1-0.1l4.9-4.9v-0.1H72l-0.1,0.1l-1.7-0.2c0,0,7-4.8,11.9-7.6
		c0.2-0.8,0.5-1.5,0.8-1.9l-0.1,0L81,100l-2.6-0.8c-2-0.5-4.5-0.9-6.8-1L71,98.1c1.5-0.7,3.7-1.7,5.6-2.3l3.7-1.3l5.3-1.9l9.9-3.4
		c1.6-0.6,3.5-1.1,4.9-1.4l2.4-0.6l2.2-0.7l2.9-0.8l1.2-0.3l0.7,1.3l0.3,0.5l-7.1,5.3l-0.5,0.3l-2,1.2l-3,1.8l-4.4,2.6
		c-3.2,1.8-6.5,3.4-7.9,4l-3.6,1.7l-0.1,0l-3,1.6l-3.8,2.2l-2.3,1.4L74.5,109.6z M94.2,115.2l3.7-2.2c3-1.8,5.6-3.7,8-5.6
		c2.3-1.9,4.3-3.8,6-5.8c0.9-1.1,1.8-2.2,2.4-3.4l-0.2,2.5c-0.3,9.5-10.6,23.1-10.6,23.1l0.5-3.5c0.2-1.5,0.3-3.6,0.3-6.4
		L94.2,115.2z M78.6,126l0.1,0l0.8-0.8l-0.1,0.1l-0.4,0.7l0,0.1h0l-1.1,2.2c-0.6,1.3-4.6,7.8-6,9.2c2-0.2,11.1-1.8,11.5-2
		c0.6-0.2,2.2-0.9,3.6-1.6l-1.4,2.5l1.9-0.8c0.2-0.1,2.6-1.1,5.2-2.5c2.6-1.4,5.3-3.1,6.4-4l2.9-2.5c-2.8,3.2-6,6.5-9.7,9.8
		c-0.6,0.6-0.8,1.7-0.4,2.4l5.3,9.3c0.5,0.8,1.5,0.9,2.2,0.1c5.7-6.3,10.5-12.4,14.2-18.4l0.6,6.9l0.3,3.8c0.1,1.1,1.2,2.1,2.4,3.4
		c1.7,1.6,3.5,4.1,4.2,6.4c0.9-2.5,2.7-5.7,3.7-6.8l0.5-0.6l0.3-0.4l0.3-2.7l1.4,1.6l0.3-1.4l0.7-3.9c0.3-2,0.7-4.2,0.7-5.3
		c0.1-5.5-0.1-7.7-0.3-8.5l-0.3-1.8l1.1,2.2l3.4,8.2l1.4,3.4c0.2,0.5,0.6,0.9,1.1,1.3l1.9,1.2l1.5,0.9l1.6,1.1
		c1,0.8,1.9,1.7,2.2,2.8c0-1.3,0.4-3.3,0.7-5l0.7-3.3l-0.5-2.6l1.3,1.1c0,0-0.5-5.3-1.1-8.4l2.4-3.8l2.2-3.5
		c1.4-2.1,3.4-3.4,5.6-4.2c1.1-0.4,2.2-0.8,3.3-1l3.3-0.8c4.3-1.1,7.7-2.4,7.4-7.9c-0.1-1.2-0.2-1.7-0.4-2.3l-0.9-2.5
		c-0.1-0.2,0.1-0.4,0.3-0.7l1-1.1c0.7-0.8,1.5-1.7,1.5-2.5c0-1.7-1.7-3-1.7-3s1.4-0.7,1.7-2.1l-0.2-0.9c-1-2.6-1-6.1-1-6.1h1.9
		c1.2,0,3.7,0,3.4-2.9c-0.7-5.8-3.7-11.3-6.5-15.4c-1.3-1.9-2.5-2.7-4.1-3.5c0,0,2.8-1.2,2.8-3c0-3.2-3.3-8.6-5.9-12.2l0.1-0.1
		c1.9-2.1,1.9-4.3,1.9-4.4l0-0.1l0-0.1l0-0.1l0-0.1l-0.1-0.1l-0.1-0.1l-9.5-8.9c-0.3-0.3-0.7-0.3-1-0.1l-0.1,0l-0.1,0.1l-4.4-4.4
		l-0.1-0.6l-0.3-1.9l0.2-0.4l0.7-1.1l-2.2-0.7l0.6-3.3l-2.8,0.6l-0.7-2.9l-2.1,1.7l-3.3-2l-0.3,1.2c-2.3-2-5.5-4.3-6.8-5L125.7,9
		l-5.3-2.6l-5.3-2.2l-3.7-1.4c-1.5-0.7-3.3-1.2-4.7-1.7l-2.6-0.7L102.4,0l0.9,1.3l-4.5-0.3l-6.3-0.3c-2.4-0.1-4.9-0.1-7.2-0.1
		l-5.5,0.2c-0.8,0.1-5,1.3-9.1,2.5L64.9,5l-3.3,0.8c0.9-0.1,3.5,0.9,6.1,1.9l-1.3,0.2c-1.9,0.1-5.8,1.6-9.5,3.1l-8.1,3.5l10.5,2.1
		l-5,0.9c-2.7,0.4-5.8,2.3-8.5,4.4l-3.6,2.9l-2.3,2c2.7,0.2,12.6,1,14.3,0.7L53,28l-1.6,0.4c-1.2,0.3-2.3,0.5-2.8,0.9l4,0.3l-1,0.2
		l-7.3,1.6c-2.4,0.6-4.3,2.3-6,4.3l-2.6,3.1l-2.6,3l6.9,0.2c2.5,0.1,4.8,0.1,5.8,0.3l-1.4,1.5l-1.6,1.5l2.8-0.4l4.7-0.6
		c-3.3,1-8.5,2.8-11.2,3.7c-2.5,0.9-9.3,8.4-10.8,10.5c1.3,0.5,3.3,0.9,5.2,1.2l4.8,0.6l-2.5,2.5l2.4-0.7l5.5-1.3l-2,0.7l-6.8,2.6
		c-1,0.4-2.5,2.2-4,4.2l-3.8,5.2c1.1,0.6,3.3,0.9,5.4,1.1l3.1,0.2l2.3,0.2l-1.7,1.3c-0.7,0.4-1.3,0.9-1.8,1.4l4.2-1.1
		c-2.2,1.2-4.4,3.5-6.3,5.7l-2.5,3c-0.7,0.8-1.2,1.5-1.6,1.7l2.3,0.3l3.1,0.6c2.2,0.4,4.3,0.7,5.4,0.7l-0.6,0.9l-3.8,3.1
		c-0.8,0.7-1.6,2.6-2.3,4.6l-1,2.9l-0.8,2l5.4-0.1l5.1-0.2l-1.1,3l1.7-1.3l1.5-1l3.2-1.9c-2.4,2.4-5.9,6.6-6.4,8.6
		c-0.4,1.7-0.7,3.8-0.9,5.8c-0.1,1-0.2,1.7-0.1,2.4l0.3,2.1c0.4-0.4,2.1-1.6,3.9-2.8l3.6-2.4l2.6-2.2l-0.7,2.6l1.4-1l1.3-0.9
		l2.9-1.7l1.2-0.7l-1.5,1.9l-1.6,2l-1.2,1.9c-0.5,0.8-1.2,3-1.9,5.3l-1.1,3.3l-1,2.5c1.1-0.8,4.1-1.8,6.9-2.7l3.9-1.2
		c1.1-0.4,1.9-0.7,2-1L60,125c0.3-0.5,1.7-1.8,3.4-3.5l0.7-0.7l-0.8,1.6l-0.8,1.4c-1,1.5-2.6,9.4-2.6,12l4.8-2.4l4.4-2.3l-0.1,2.5
		l1.9-1.4l2.9-2.3l2.8-2.2L78.6,126z M54,68.7l-0.1-0.1l-4.5,1.5l11-4.4l0-0.1l-0.1,0l-0.1,0l-2-0.8l2.4-0.6l2.2-0.5l3.3-0.7
		c2.2-0.4,4.5-0.7,6.3-0.9l2.1-0.3l2.6-3.3c-0.3-0.2-5.1-2-8.5-3.3l-3.3-1.2c1.9-0.3,6.1-0.9,8.5-1l1.5-0.1l10-1
		c4.9-0.5,10-0.8,13.1-1c2.3-0.1,4.8,0,6.7,0.1l3.4,0.4l3.1,0.4l1.2,0.1l0.1,0.2l0.5,1.3l0.7,1.7l-2,1.2l1.4,2.6l-1.8,1.5l-1.8,0.4
		c-3.6-0.6-11-0.7-13.3-0.5c-2.3,0.2-7.4,0.6-12.4,1.2l-0.2,0L80.7,62l-0.5,0.1l-0.3,0l-6,0.8L72.6,63c-2,0.2-4.4,0.6-6.2,0.9
		l-3.3,0.7l-2.2,0.5l1.7,0.7l-1.1,0.4l-0.1,0L61,66.4L54,68.7z M135.7,73.5c0.7,1.6,1,3.4,1,5.3c0,1.1-0.1,2.3-0.4,3.3
		c-0.7,3-2.5,5.7-4.8,7.6l-0.8,0.6c-0.8,0.5-1.6,1-2.5,1.4l-1.2,0.4l-1.4,0.4l-1.3,0.2l-0.1,0l-0.4,0l-0.3,0.1h-1.2l-0.7-0.1
		l-2.1-0.3l-0.7-0.2l-1.5-0.5l-0.2-0.1l-0.1-0.1l-0.5-0.2l-0.2-0.1L116,91l-0.1,0l-1.1-0.7l-1.8-1.5l-1.3-1.5l-0.1-0.2l-0.5-0.7
		l-0.4-0.6l-0.4-0.8l0-0.1l-0.4-0.9l-0.7-2.1l-0.2-0.8l0-0.2l0-0.3l-0.1-1.1v-0.7l0.2-2l0.2-1.1c0.3-1.3,0.7-2.5,1.4-3.7l0.3-0.4
		l0.6-0.9l0.2-0.3c1.1-1.5,2.6-2.8,4.2-3.7l1.6-0.8l0.6-0.3l1.9-0.5l0.6-0.1l2-0.2h0.4c1.3,0,2.7,0.2,3.9,0.6
		c1.2,0.4,2.3,0.8,3.3,1.5c2.5,1.5,4.5,3.8,5.7,6.5L135.7,73.5z M49.1,82.6L49.1,82.6l4.7-2.7l0-0.1l4.9-2.7l-2.1-0.7l2.4-0.7
		l2.1-0.6l0,0l3.2-0.8c2.1-0.5,4.3-0.9,6.1-1.1l3.2-0.5l1.5-0.2l2-0.3l0.6-0.7l0.4-0.4l-1.2-0.9l-2.8-1.4l-0.7-0.3
		c-2.1-1-4.8-2-7.4-2.6l-0.7-0.3c1.9-0.4,4.7-0.9,7.1-1.1l0.2,0l11.2-1.4c4.8-0.6,9.9-1,12.9-1.2c2.2-0.2,4.7-0.1,6.6,0l2.5,0.2
		l0.8,0.1l3,0.4h0.1l0.8,0l1.7,2.5l0.7,1.1l0.1,0.2l-0.4,0.7l-0.5,0.8l-0.2,0.4c-0.7,0.7-1.4,1.5-2,2.3l-3.5-0.5
		c-1.4-0.2-3.9-0.1-6.3,0.1L94,70.5l-8.2,1.1l-3.5,0.5l-1.1,0.2l-0.6,0.1l-0.8,0.1l-0.7,0.1l-0.8,0.1l-0.4,0.1l-1.2,0.2l-1.3,0.2
		l-4.7,0.7c-2,0.3-4.3,0.7-6.1,1.1l-3.2,0.8l-2.1,0.6L61,77L49.1,82.6z M113.3,76l0.5-1.3l0.7-1.2l0.8-1.1l0.2-0.2l1.1-1l1.4-1
		l-0.2-0.5l-0.5-1.1l-0.1-0.1l-0.2-0.3l-1.5,1l-0.1,0.1l-1.6,1.4l-0.1,0.2l-0.4,0.5l-0.5,0.7c-0.5,0.7-0.9,1.5-1.2,2.3l-0.3,0.8
		l-0.1,0.2v0.1L113.3,76z"/>
	<path class="st0" d="M165.7,160.8v5.3h5.9v17.7h6.1v-17.7h6.2v-5.3H165.7z M156.8,178.4h-0.2l-6.6-17.7h-10.4v23h6.1l-0.4-17.7h0.3
		l6.5,17.7h10.4v-23h-6.1L156.8,178.4z M124.8,174.2h9.8V170h-9.8v-4.2h10.4v-5h-16.6v23h16.8v-5h-10.7
		C124.8,178.7,124.8,174.2,124.8,174.2z M104.7,165.6l1.4,0l1.3,0.2c0.7,0.3,1.3,0.8,1.3,2h6.2c0-7.3-4.2-7.3-10.2-7.3
		c-6.7,0-10.9,1.1-10.9,8.7v5.9c0,7.4,3.7,8.7,10.9,8.7c8.2,0,10.2-1.4,10.2-9.2v-4h-10.5v4.3h4.2c0,3.2-0.8,3.9-4,3.9
		c-3.2,0-4.6-0.4-4.6-4.5v-3.7C100.1,166.9,100.2,165.6,104.7,165.6z M70.3,160.8l-6.9,23h6.4l1.1-4h8.2l1.2,4h6.2l-7-23H70.3z
		 M72.2,175.3l2.8-10H75l2.9,10H72.2z M45.9,160.8l-6.9,23h6.4l1.1-4h8.2l1.2,4h6.2l-7-23H45.9z M47.8,175.3l2.8-10h0.1l2.9,10H47.8
		z M37.4,160.8H30l-5.9,8.6h-1.8v-8.6h-6.1v23h6.1v-9h1.8l6.4,9h7.6L29.3,172L37.4,160.8z"/>
	<rect x="31.4" y="196" class="st0" width="20.9" height="1"/>
	<rect x="147.6" y="196" class="st0" width="20.9" height="1"/>
	<path class="st0" d="M134.6,195.1c0-1.6-0.6-2.1-2.1-2.1h-3.6v7h1.4v-2.3h2.1c0.6,0,0.9,0.4,0.9,1v1.3h1.3v-1.3
		c0-1-0.2-1.5-1.2-1.6C134.6,196.8,134.6,196.1,134.6,195.1z M132.1,196.5h-1.8v-2.4h1.9c1,0,1.1,0.2,1.1,1.2
		C133.3,196.3,133,196.5,132.1,196.5z M123.7,196.9h3.3v-1.1h-3.3v-1.7h3.5v-1.2h-4.8v7h4.8v-1.2h-3.5V196.9z M116.5,198.1l-1.9-5.2
		h-2.2v7h1.3l-0.1-5.9l2.2,5.9h1.2l2.2-5.9h0l-0.1,5.9h1.3v-7h-2.2L116.5,198.1z M106.4,198.1l-1.9-5.2h-2.2v7h1.4l-0.1-5.9l2.2,5.9
		h1.2l2.2-5.9h0l-0.1,5.9h1.4v-7h-2.2L106.4,198.1z M99.1,197.9c0,0.7-0.3,0.9-1.6,0.9c-1.3,0-1.5-0.2-1.5-0.9v-5h-1.4v5
		c0,1.9,1.3,2.1,2.9,2.1c1.7,0,2.9-0.1,2.9-2.1v-5h-1.4L99.1,197.9L99.1,197.9z M91.5,198.8L91.5,198.8l-3-5.8h-2.2v7h1.3l-0.1-5.8
		h0.1l3,5.8h2.2v-7h-1.3L91.5,198.8z M80.3,198.1l-1.9-5.2h-2.2v7h1.3l-0.1-5.9l2.2,5.9h1.2l2.2-5.9h0.1l-0.1,5.9h1.3v-7h-2.2
		L80.3,198.1z M70.6,192.9l-2.3,7h1.4l0.4-1.3h3l0.4,1.3h1.4l-2.4-7H70.6z M70.4,197.6l1.2-3.6l1.2,3.6H70.4z M62.8,194.1h2.1v5.8
		h1.3v-5.8h2.1v-1.2h-5.4L62.8,194.1L62.8,194.1z M58.8,195.8c-1.4-0.1-1.5-0.1-1.5-1c0-0.7,0.2-0.9,1.5-0.9c0.9,0,1.2,0,1.2,0.8
		v0.2h1.3v-0.2c0-1.8-1.2-1.9-2.6-1.9c-1.7,0-2.9,0.1-2.9,2c0,1,0.3,1.5,0.8,1.8l0.9,0.2l1.1,0.1l0.7,0l0.5,0.1
		c0.3,0.1,0.4,0.3,0.4,0.8c0,0.8-0.2,1-1.4,1c-1.2,0-1.6-0.1-1.6-0.9v-0.3h-1.4v0.3c0,1,0.4,1.5,0.9,1.7l0.9,0.2h1.1
		c1.8,0,2.7-0.2,2.7-2.1C61.5,196.1,60.9,196,58.8,195.8z"/>
	<polygon class="st0" points="139,194.1 142.9,194.1 139.8,199.9 141.3,199.9 144.1,194.2 144.1,192.9 139,192.9 	"/>
</g>
</svg>
