<?xml version="1.0" encoding="utf-8"?>
<!-- Generator: Adobe Illustrator 21.1.0, SVG Export Plug-In . SVG Version: 6.00 Build 0)  -->
<svg version="1.1"
	 id="svg766" inkscape:version="0.92.1 r15371" sodipodi:docname="K.F. Shkendija.svg" xmlns:cc="http://creativecommons.org/ns#" xmlns:dc="http://purl.org/dc/elements/1.1/" xmlns:inkscape="http://www.inkscape.org/namespaces/inkscape" xmlns:rdf="http://www.w3.org/1999/02/22-rdf-syntax-ns#" xmlns:sodipodi="http://sodipodi.sourceforge.net/DTD/sodipodi-0.dtd" xmlns:svg="http://www.w3.org/2000/svg"
	 xmlns="http://www.w3.org/2000/svg" xmlns:xlink="http://www.w3.org/1999/xlink" x="0px" y="0px" viewBox="0 0 200 200"
	 style="enable-background:new 0 0 200 200;" xml:space="preserve">
<style type="text/css">
	.st0{fill:#E32325;}
	.st1{fill:#231F20;}
	.st2{fill:#FFFFFF;}
	.st3{fill:#070405;}
	.st4{fill:#D2AC67;}
</style>
<g>
	<path id="path786" inkscape:connector-curvature="0" class="st0" d="M167.4,95.1c0-0.5,0-1-0.1-1.4c0-0.3,0-0.7,0-1
		c0-0.7-0.1-1.3-0.1-1.9c0-0.2,0-0.3,0-0.4c-0.2-3.2-0.6-6.4-1-9.5H33.8c-0.4,3.1-0.8,6.3-1,9.5c0,0.2,0,0.3,0,0.4
		c0,0.7-0.1,1.3-0.1,1.9c0,0.3,0,0.7,0,1c0,0.5,0,1-0.1,1.4c0,0.5,0,1,0,1.4c0,0.3,0,0.7,0,1c0,0.8,0,1.6,0,2.5c0,0.8,0,1.6,0,2.5
		c0,0.3,0,0.7,0,1c0,0.5,0,1,0,1.4c0,0.5,0,1,0.1,1.4c0,0.3,0,0.7,0,1c0,0.7,0.1,1.3,0.1,1.9c0,0.2,0,0.3,0,0.4
		c1.5,22.2,8.3,42.5,19.6,58c12.6,17.4,29.5,27,47.6,27s35-9.6,47.6-27c11.2-15.5,18.1-35.8,19.6-58c0-0.2,0-0.3,0-0.4
		c0-0.7,0.1-1.3,0.1-1.9c0-0.3,0-0.7,0-1c0-0.5,0-1,0.1-1.4c0-0.5,0-1,0-1.4c0-0.2,0-0.5,0-0.7v-5.4c0-0.2,0-0.5,0-0.7
		C167.5,96.1,167.5,95.6,167.4,95.1"/>
	<path id="path790" inkscape:connector-curvature="0" class="st1" d="M42.9,151.2c2.7,5.9,5.9,11.5,9.5,16.5
		c0.3,0.4,0.6,0.8,0.9,1.2V80.9H42.9V151.2z"/>
	<path id="path794" inkscape:connector-curvature="0" class="st1" d="M63.7,92.8v87.3c3.3,2.9,6.8,5.4,10.4,7.5V109
		C69.3,104.6,65.7,99.1,63.7,92.8"/>
	<path id="path798" inkscape:connector-curvature="0" class="st1" d="M84.4,192.2c3.4,1.1,6.9,1.8,10.4,2.2v-75.6
		c-3.7-0.5-7.1-1.5-10.4-2.9V192.2z"/>
	<path id="path802" inkscape:connector-curvature="0" class="st1" d="M105.2,194.4c3.5-0.4,7-1.1,10.4-2.2v-76.4
		c-3.3,1.5-6.7,2.5-10.4,2.9V194.4z"/>
	<path id="path806" inkscape:connector-curvature="0" class="st1" d="M126,109v78.7c3.6-2,7.1-4.6,10.4-7.5V92.8
		C134.3,99.1,130.7,104.6,126,109"/>
	<path id="path810" inkscape:connector-curvature="0" class="st1" d="M146.7,80.9v87.9c0.3-0.4,0.6-0.8,0.9-1.2
		c3.6-5,6.8-10.5,9.5-16.5V80.9H146.7z"/>
	<path id="path814" inkscape:connector-curvature="0" class="st2" d="M147.6,32.4C135,15,118.1,5.4,100,5.4s-35,9.6-47.6,27
		c-9.6,13.2-16,30-18.6,48.5h132.4C163.6,62.4,157.2,45.6,147.6,32.4"/>
	<path id="path818" inkscape:connector-curvature="0" class="st1" d="M167.5,102.5c0,0.3,0,0.7,0,1c0,0.5,0,1,0,1.4
		c0,0.5,0,1-0.1,1.4c0,0.3,0,0.7,0,1c0,0.7-0.1,1.3-0.1,1.9c0,0.2,0,0.3,0,0.4c-1.5,22.2-8.3,42.5-19.6,58
		c-12.6,17.4-29.5,27-47.6,27s-35-9.6-47.6-27c-11.2-15.5-18.1-35.8-19.6-58c0-0.2,0-0.3,0-0.4c0-0.7-0.1-1.3-0.1-1.9
		c0-0.3,0-0.7,0-1c0-0.5,0-1-0.1-1.4c0-0.5,0-1,0-1.4c0-0.3,0-0.7,0-1c0-0.8,0-1.6,0-2.5c0-0.8,0-1.6,0-2.5c0-0.3,0-0.7,0-1
		c0-0.5,0-1,0-1.4c0-0.5,0-1,0.1-1.4c0-0.3,0-0.7,0-1c0-0.7,0.1-1.3,0.1-1.9c0-0.2,0-0.3,0-0.4c1.5-22.2,8.3-42.5,19.6-58
		C65,15,81.9,5.4,100,5.4s35,9.6,47.6,27c11.2,15.5,18.1,35.8,19.6,58c0,0.2,0,0.3,0,0.4c0,0.7,0.1,1.3,0.1,1.9c0,0.3,0,0.7,0,1
		c0,0.5,0,0.9,0.1,1.4c0,0.5,0,1,0,1.4c0,0.3,0,0.7,0,1c0,0.8,0,1.6,0,2.5C167.5,100.8,167.5,101.6,167.5,102.5 M170.2,102.5
		c0-0.8,0-1.7,0-2.5c0-0.8,0-1.7,0-2.5c0-0.1,0-0.1,0-0.2c-0.5-25.6-7.7-49.6-20.4-67.8C136.5,10.5,118.8,0,100,0
		S63.5,10.5,50.2,29.5C37.5,47.7,30.3,71.6,29.8,97.2c0,0.1,0,0.1,0,0.2c0,0.8,0,1.7,0,2.5c0,0.8,0,1.7,0,2.5c0,0.1,0,0.1,0,0.2
		c0.5,25.6,7.7,49.6,20.4,67.8c13.2,19,30.9,29.5,49.8,29.5s36.5-10.5,49.8-29.5c12.7-18.2,19.9-42.2,20.4-67.8
		C170.2,102.7,170.2,102.6,170.2,102.5"/>
	<path id="path822_1_" inkscape:connector-curvature="0" class="st2" d="M71.5,78.7c0,15.7,12.8,28.5,28.5,28.5s28.5-12.8,28.5-28.5
		S115.7,50.2,100,50.2C84.3,50.2,71.5,63,71.5,78.7"/>
	<path class="st1" d="M100,107.5c-15.9,0-28.8-12.9-28.8-28.8S84.1,49.9,100,49.9s28.8,12.9,28.8,28.8S115.9,107.5,100,107.5z
		 M100,50.5c-15.5,0-28.2,12.6-28.2,28.2s12.6,28.2,28.2,28.2s28.2-12.6,28.2-28.2S115.5,50.5,100,50.5z"/>
	<path id="path826" inkscape:connector-curvature="0" class="st3" d="M125.1,79.6c0,1.6-0.7,8.4-3.2,10.7c-0.4,0.3-0.7,0.6-1,0.8
		c-3.2,1.6-5.9,2-7.4,2.1c-1.2,0-1.5-0.4-1.5-0.4s-4.7-6.9-5.3-8c-0.2-0.4-0.4-0.8-0.4-1.1c0.4-0.9,1.3-2.8,2-4.7
		c1-2.9,1.5-4.7,1.6-5.5c0.2-0.3,0.7-0.7,1.6-1.1c1.8-0.7,3.9-1.7,7.5-2c0.1,0,0.2,0.3,0.2,0.3C122.2,72.7,125.1,79.5,125.1,79.6
		L125.1,79.6C125.1,79.5,125.1,79.5,125.1,79.6 M100,103c-3.4-0.1-5.1-0.5-5.9-0.9c-0.4-0.4-5.2-5.3-5.8-8.3c0-0.2,0.1-0.5,0.2-0.7
		c0.5-1.2,5.3-8,5.3-8s0.4-0.6,1.1-0.9c1,0.1,2.9,0.2,5.2,0.2c2.6,0,5.2-0.2,5.8-0.3c0.4,0.3,0.6,0.6,0.6,0.6s4.8,6.8,5.3,8
		c0.2,0.5,0.2,1.1,0.2,1.7c-1.2,3.1-5.6,7.4-5.6,7.4l0,0C105.2,102.5,103.3,103.1,100,103 M75.1,80c0-1.2,0.2-1.7,0.2-1.8
		c0.8-1.7,2.9-5.6,4.9-7.4c0.5-0.2,0.9-0.3,1.3-0.3c3.6,0.3,5.7,1.3,7.5,2c0.4,0.2,0.7,0.3,0.9,0.4c0.1,0.3,0.4,2.2,1.8,6.1
		c0.7,2.1,1.7,4.1,2.1,4.9c0,0.3-0.1,0.7-0.4,1.2c-0.7,1.2-5.3,8-5.3,8s-0.1,0.2-0.6,0.3c-1.3,0-4.5-0.3-8.3-2.3
		c-0.2-0.2-0.5-0.4-0.7-0.7C76,88.1,75.1,81.6,75.1,80 M84.8,56.4c2.2-1.6,4.7-2.2,6.1-2.5c0,0,0,0,0,0c4.3-0.1,7.9,1.7,9.1,2.3
		c0.2,0.2,0.3,0.4,0.3,0.9c0.1,1-0.3,8.6-0.3,8.6s0,0.3-0.2,0.7c-0.8,0.4-3.4,1.9-5,3c-1.6,1-3.6,2.6-4.4,3.3
		c-0.6,0-1.1-0.3-1.1-0.3c-2.5-1.1-6.7-2-7.7-2c-0.4,0-0.7-0.2-0.9-0.5c-0.4-1.3-1.2-5.1-0.2-8.3C81,60.4,82.3,58.2,84.8,56.4
		 M109.1,53.6c1.5,0.3,3.8,1,5.9,2.5c3.4,2.4,4.5,5.6,4.5,5.6l0.1,0.1c1,3.6-0.2,7.7-0.4,8.4c0,0-0.1,0-0.1,0
		c-0.9,0.1-5.2,0.9-7.7,2c0,0-0.9,0.4-1.6,0.2c-0.1,0-0.1,0-0.2,0c-0.9-0.7-2.8-2.2-4.3-3.2s-3.7-2.2-4.7-2.8
		c-0.2-0.2-0.4-0.6-0.4-0.8c0-0.4,0.2-7.9,0.3-8.7c0-0.3,0.1-0.6,0.2-0.7C103.5,54.6,107.8,53.8,109.1,53.6 M128,75.6
		c0-6.1-4-12.2-4-12.2c-2-1.7-3.5-2-4.2-2.1c-0.5-0.8-2-3.2-4.6-5.2c-2-1.5-4.2-2.2-5.7-2.6c-1.1-1.8-3.5-2.6-3.5-2.6
		C99.4,49.1,93.2,51,93.2,51c-1.5,1-2,2.1-2.2,2.5c-1.5,0.3-4.1,1.1-6.3,2.8c-2.5,1.8-3.9,3.9-4.5,4.9c-0.7,0.1-2.2,0.5-4.1,2.1
		c0,0-4,6.1-4.1,12.2c0,0,0.9,2.6,2.8,3.3c0,0.1,0,0.2,0,0.4c0.1,2.6,0.9,7,2.3,9.6c0.6,1.1,1.1,1.8,1.4,2.1c-0.2,0.7-0.8,3,0.4,6.2
		c0,0,2.6,4.6,9.6,7.4c0,0,3.5-0.3,5.5-2.5c0.8,0.3,2.5,0.8,6,0.9c3.6,0.1,5.6-0.5,6.6-1c2,2,5.4,2.3,5.4,2.3c7-2.8,9.6-7.4,9.6-7.4
		c1.3-3.3,0.7-5.6,0.4-6.3c0.2-0.3,0.7-1.1,1.4-2.2c1.3-2.5,2-7.1,2.1-9.7C127.2,78.1,128,75.6,128,75.6"/>
	<path class="st1" d="M88.5,104.8L88.5,104.8c-7-2.9-9.7-7.5-9.7-7.5c-1.2-3.1-0.7-5.4-0.5-6.3c-0.2-0.2-0.7-0.9-1.3-2.1
		c-1.4-2.5-2.2-6.8-2.3-9.6V79c-1.9-0.7-2.8-3.3-2.8-3.4v0v0c0.1-6.1,4.1-12.2,4.1-12.3l0,0c1.8-1.6,3.4-2,4.1-2.1
		c0.7-1.1,2-3.1,4.5-4.9c2.2-1.6,4.6-2.4,6.3-2.8c0.2-0.5,0.7-1.5,2.2-2.5l0,0c0.1,0,6.4-1.9,12.9-0.2c0.1,0,2.4,0.8,3.5,2.7
		c1.6,0.4,3.8,1.2,5.7,2.6c2.7,2.1,4.2,4.4,4.6,5.2c0.7,0.1,2.2,0.4,4.2,2.1l0,0c0,0.1,4,6.2,4,12.3v0c0,0.1-0.7,2.5-2.5,3.3
		c-0.1,2.5-0.8,7.2-2.1,9.7c-0.7,1.2-1.1,1.9-1.3,2.1c0.2,0.7,0.8,3.1-0.4,6.3c0,0.1-2.8,4.7-9.7,7.5h0h0c-0.1,0-3.3-0.3-5.4-2.3
		c-1.1,0.5-3.1,1-6.6,0.9c-3.4-0.1-5.1-0.5-6-0.8C92,104.5,88.6,104.8,88.5,104.8L88.5,104.8z M78.2,90.4c0.2,0.3,0.3,0.5,0.4,0.6
		l0.1,0.1l0,0.1c-0.3,0.8-0.8,3,0.4,6.1c0,0,2.7,4.5,9.5,7.4c0.4,0,3.5-0.4,5.4-2.4c-0.7-0.7-5.2-5.4-5.8-8.3v0v0
		c0-0.2,0.1-0.4,0.1-0.6c-0.1,0.1-0.2,0.2-0.6,0.3h0h0c-1.5,0-4.7-0.4-8.4-2.3l0,0c-0.2-0.2-0.5-0.4-0.7-0.7
		C78.3,90.5,78.3,90.4,78.2,90.4z M106.7,102L106.7,102c1.9,1.9,4.9,2.3,5.3,2.3c6.8-2.8,9.5-7.3,9.5-7.4c1.3-3.3,0.6-5.6,0.4-6.2
		l0-0.1l0.1-0.1c0,0,0.1-0.1,0.1-0.1c-0.3,0.2-0.5,0.4-0.7,0.6c-0.1,0.1-0.1,0.1-0.2,0.2c-3.1,1.6-5.8,2-7.5,2.1
		c-1.1,0-1.5-0.3-1.6-0.4c0.1,0.4,0.2,1,0.1,1.6v0.1c-1.1,2.8-4.8,6.6-5.6,7.4L106.7,102l-0.3,0.1c0,0-0.1,0-0.1,0.1
		c0.1,0,0.2-0.1,0.3-0.1L106.7,102z M94.2,102c0.8,0.3,2.4,0.8,5.8,0.9l0,0c3.2,0.1,5.1-0.5,6.1-1l0.1-0.1c0,0,4.3-4.3,5.6-7.4
		c0-0.7,0-1.2-0.2-1.6c-0.5-1.1-5.2-7.9-5.2-7.9c0,0-0.2-0.3-0.5-0.5c-2.7,0.2-4.6,0.3-5.8,0.3c-1.7,0-3.4-0.1-5.2-0.2
		c-0.6,0.3-1,0.8-1,0.8c0,0.1-4.8,6.8-5.2,7.9c-0.1,0.2-0.1,0.4-0.2,0.6C89,96.7,93.9,101.6,94.2,102z M79.4,91
		c3.7,1.9,6.7,2.2,8.2,2.3c0.3-0.1,0.5-0.2,0.5-0.2c0-0.1,4.7-6.9,5.3-8c0.2-0.4,0.4-0.8,0.4-1.1c-0.2-0.4-1.3-2.5-2.1-4.9
		c-0.6-1.7-1.4-4.1-1.8-6c-0.2-0.1-0.5-0.2-0.7-0.3l-0.1,0c-0.2-0.1-0.5-0.2-0.7-0.3c-1.6-0.7-3.7-1.4-6.7-1.7
		c-0.3,0-0.8,0.1-1.2,0.2c-2,1.8-4.1,5.6-4.9,7.3v0c0,0.2-0.2,0.7-0.2,1.7c0,1.7,0.9,8.2,3.4,10.4C78.9,90.6,79.1,90.8,79.4,91z
		 M106.4,83.7c0,0.3,0.2,0.6,0.4,1c0.7,1.1,5.3,7.9,5.3,8c0,0,0.3,0.4,1.4,0.4c1.7-0.1,4.3-0.6,7.4-2.1c0,0,0.1-0.1,0.2-0.1
		c0.2-0.2,0.5-0.3,0.7-0.6c2.5-2.3,3.2-9,3.1-10.6l0,0c0-0.1-2.9-6.8-5.7-8.7c-0.1,0-0.1-0.1-0.2-0.2c0,0,0,0,0-0.1
		c-3,0.2-5.1,1-6.7,1.7c-0.2,0.1-0.5,0.2-0.7,0.3c-0.8,0.3-1.3,0.6-1.6,1c-0.3,1.6-0.9,3.4-1.6,5.5C107.7,81,106.8,83,106.4,83.7z
		 M89.8,72.6c0.1,0,0.2,0.1,0.2,0.2l0.1,0l0,0.1c0.4,1.9,1.1,4.3,1.7,6c0.8,2.4,2,4.6,2.1,4.9l0,0v0c0,0.3-0.1,0.6-0.2,1
		c0.2-0.2,0.5-0.5,0.9-0.7l0,0h0c1.8,0.2,3.5,0.2,5.2,0.2c1.2,0,3.1-0.1,5.8-0.3h0.1l0.1,0c0.2,0.1,0.3,0.2,0.4,0.4
		c-0.1-0.3-0.2-0.6-0.2-0.8v0l0,0c0.3-0.7,1.3-2.7,2-4.7c0.7-2.1,1.3-3.9,1.6-5.5l0-0.1c0.2-0.2,0.5-0.5,0.9-0.7
		c-0.3,0.1-0.6,0.1-0.9,0h-0.1c0,0,0,0-0.1,0h-0.1l0,0c-0.9-0.8-2.9-2.3-4.3-3.2c-1.4-0.9-3.6-2.2-4.7-2.8l-0.1-0.1
		c-0.2-0.2-0.2-0.4-0.3-0.5c0,0.1-0.1,0.2-0.2,0.3l-0.1,0c-0.7,0.4-3.4,1.9-5,3c-1.1,0.7-2.5,1.8-4.4,3.3l0,0h-0.1
		C90.2,72.7,90,72.7,89.8,72.6z M125.3,79.6c0,0.1,0,0.3,0,0.5c0-0.4,0.1-0.9,0.1-1.2v-0.1l0.1,0c1.6-0.7,2.3-2.9,2.4-3.1
		c0-5.8-3.7-11.7-3.9-12.1c-2-1.7-3.5-2-4.1-2h-0.1l0-0.1c-0.1-0.1-0.2-0.4-0.5-0.9c0.3,0.6,0.5,1,0.5,1.1l0.1,0.2
		c0.9,3.5-0.1,7.4-0.4,8.5l0,0.1c0,0,0.1,0.1,0.1,0.1c0,0,0,0.1,0,0.1h0c2.8,1.9,5.5,8.1,5.8,8.8l0,0
		C125.3,79.4,125.3,79.5,125.3,79.6z M72.1,75.6c0.1,0.2,1,2.6,2.7,3.2l0.1,0v0.5c0,0.1,0,0.2,0,0.3c0-0.9,0.1-1.3,0.2-1.5l0-0.1
		c0.8-1.6,2.9-5.6,5-7.4l0,0c0.4-0.2,0.8-0.3,1.1-0.3c-0.2-0.1-0.5-0.2-0.7-0.5l0-0.1c-0.3-1.1-1.2-5-0.2-8.4
		c0.1-0.2,0.2-0.5,0.4-0.8c-0.2,0.3-0.4,0.6-0.5,0.8l0,0.1h-0.1c-0.7,0.1-2.2,0.5-4,2C76,63.9,72.2,69.7,72.1,75.6z M80.9,69.7
		c0.2,0.2,0.5,0.4,0.7,0.4c0.9,0.1,5.2,0.9,7.7,2c0,0,0.4,0.2,0.9,0.2c1.8-1.5,3.3-2.6,4.4-3.3c1.6-1.1,4.2-2.5,5-3
		c0.2-0.3,0.2-0.5,0.2-0.5c0-0.1,0.3-7.6,0.3-8.6c0-0.4-0.2-0.7-0.3-0.7c-1.4-0.7-4.9-2.3-9-2.3h-0.1c-2.3,0.5-4.3,1.3-5.9,2.5l0,0
		c-2.7,1.9-3.9,4.3-4.2,5C79.7,64.8,80.6,68.6,80.9,69.7z M109.7,72.3c0,0,0.1,0,0.1,0c0.6,0.2,1.5-0.2,1.5-0.2c2.5-1.1,6.7-2,7.7-2
		c0,0,0,0,0.1,0c0.3-1.2,1.3-4.9,0.4-8.2l-0.1-0.2c0,0-1.1-3.2-4.4-5.5c-1.6-1.1-3.5-1.9-5.8-2.5c-0.7,0.1-5.3,0.8-8.3,2.6l0,0
		c-0.1,0.2-0.1,0.4-0.2,0.7c-0.1,0.6-0.2,4.4-0.2,6.7c0,1.1-0.1,1.8-0.1,2c0,0.1,0,0.2,0.3,0.7h0c1.1,0.6,3.3,1.9,4.7,2.8
		C106.8,70.1,108.7,71.5,109.7,72.3C109.6,72.3,109.6,72.3,109.7,72.3z M91.1,53.7c4.1,0,7.6,1.6,8.9,2.3l0,0
		c0.1,0.1,0.2,0.3,0.3,0.5c0-0.1,0.1-0.2,0.1-0.3l0-0.1l0.1,0c3.1-1.8,7.9-2.6,8.5-2.7h0h0c0.1,0,0.1,0,0.2,0
		c-1.1-1.7-3.4-2.5-3.4-2.5c-6.2-1.6-12.3,0.1-12.7,0.2c-1.6,1.1-2,2.1-2.1,2.5L91.1,53.7L91.1,53.7C91.1,53.7,91.1,53.7,91.1,53.7z
		"/>
	<path id="path834" inkscape:connector-curvature="0" class="st4" d="M100,8.6l1.7,5.3h5.6l-4.5,3.3l1.7,5.3l-4.5-3.3l-4.5,3.3
		l1.7-5.3l-4.5-3.3h5.6L100,8.6z"/>
	<path id="path838" inkscape:connector-curvature="0" class="st1" d="M53.5,67.2l0.9-2.7l3.3,1.1l-2.3-4l1.2-3.6l2.2,4.3l6.6-1.4
		l-1.1,3.3L60,64.9l1,1.9l2.1,0.7l-0.9,2.7L53.5,67.2z"/>
	<path id="path842" inkscape:connector-curvature="0" class="st1" d="M58.2,55.4l3.8-5.9l1.7,1.1l-2.3,3.5l1.3,0.9l2-3l1.6,1l-2,3
		l3.2,2.1l-1.6,2.4L58.2,55.4z"/>
	<path id="path846" inkscape:connector-curvature="0" class="st1" d="M71.8,47.9l2.1-1.8c0.3,0.3,0.6,0.5,0.9,0.6
		c0.5,0.1,0.9,0,1.3-0.3c0.3-0.2,0.5-0.5,0.6-0.8c0.1-0.3,0-0.5-0.1-0.7c-0.2-0.2-0.3-0.3-0.7-0.3c-0.3,0-0.8,0.1-1.5,0.4
		c-1.2,0.5-2.1,0.7-2.8,0.7c-0.7-0.1-1.3-0.4-1.7-0.9c-0.3-0.4-0.4-0.8-0.5-1.3c0-0.5,0.1-1,0.4-1.6s0.8-1.1,1.6-1.6
		c0.9-0.7,1.8-1.1,2.5-1.1s1.5,0.3,2.1,1l-2,1.7c-0.3-0.3-0.6-0.4-0.9-0.5c-0.3,0-0.6,0.1-0.9,0.3c-0.3,0.2-0.4,0.4-0.5,0.6
		c-0.1,0.2,0,0.4,0.1,0.6c0.1,0.1,0.2,0.2,0.4,0.2c0.2,0,0.5-0.1,1-0.3c1.1-0.5,2-0.8,2.6-1c0.6-0.1,1.1-0.1,1.6,0.1
		c0.4,0.2,0.8,0.5,1.1,0.9c0.3,0.5,0.6,1,0.6,1.6c0,0.6-0.1,1.2-0.4,1.7c-0.3,0.6-0.8,1.1-1.6,1.6c-1.3,0.9-2.3,1.3-3.2,1.2
		C73.1,49,72.4,48.6,71.8,47.9"/>
	<path id="path850" inkscape:connector-curvature="0" class="st1" d="M77.8,36.2l2.6-1.1l1.2,3l2.9-1.2l-1.2-3l2.6-1.1l3.5,8.5
		l-2.6,1.1l-1.4-3.4l-2.9,1.2l1.4,3.4l-2.6,1.1L77.8,36.2z"/>
	<path id="path854" inkscape:connector-curvature="0" class="st1" d="M89.8,31.9l2.8-0.3L93,35l2.5-3.8l3.8-0.5l-2.9,3.9l4.2,5.3
		l-3.5,0.4l-2.4-3.5l-1.3,1.7l0.3,2.2L90.9,41L89.8,31.9z"/>
	<path id="path858" inkscape:connector-curvature="0" class="st1" d="M106.9,29.3l1.6,0.2l-0.2,1.6l-1.6-0.2L106.9,29.3z
		 M104.3,28.9l1.6,0.2l-0.2,1.6l-1.6-0.2L104.3,28.9z M102.5,30.9l7.6,1l-0.2,2l-4.7-0.6l-0.2,1.5l4.4,0.6l-0.2,1.9l-4.4-0.6
		l-0.2,1.8l4.9,0.6L109,41l-7.7-1L102.5,30.9z"/>
	<path id="path862" inkscape:connector-curvature="0" class="st1" d="M113.6,32.7l2.5,1l1.3,6l1.9-4.7l2.5,1l-3.4,8.6l-2.5-1l-1.3-6
		l-1.9,4.7l-2.5-1L113.6,32.7z"/>
	<path id="path866" inkscape:connector-curvature="0" class="st1" d="M126.3,41.4l-3,4l0.6,0.4c0.5,0.3,0.9,0.6,1.1,0.6
		c0.3,0,0.6,0,0.9-0.2c0.3-0.2,0.7-0.6,1.1-1.1c0.6-0.8,0.9-1.4,0.8-1.9c0-0.5-0.3-0.9-1-1.4L126.3,41.4z M125.3,38l3.4,2.5
		c0.7,0.5,1.1,1,1.4,1.5c0.3,0.5,0.4,1,0.4,1.6c0,0.5-0.1,1.1-0.3,1.6s-0.5,1.1-0.9,1.6c-0.6,0.8-1.1,1.3-1.6,1.6
		c-0.5,0.3-1,0.5-1.6,0.5c-0.5,0.1-1,0-1.5-0.2c-0.6-0.2-1.1-0.5-1.5-0.8l-3.4-2.5L125.3,38z"/>
	<path id="path870" inkscape:connector-curvature="0" class="st1" d="M134.4,45.6l1.9,2.1l-6.9,6.2l-1.9-2.1L134.4,45.6z"/>
	<path id="path874" inkscape:connector-curvature="0" class="st1" d="M140.8,53.9l1.5,2.4l-4.3,2.6c-0.9,0.6-1.6,0.9-2.2,1
		c-0.6,0.1-1.1,0.1-1.8-0.2s-1.2-0.8-1.6-1.6c-0.5-0.8-0.8-1.5-0.8-2c-0.1-0.6,0.1-1.1,0.3-1.6c0.3-0.5,0.7-1,1.3-1.4l1.8,2.1
		c-0.3,0.2-0.6,0.4-0.7,0.6c-0.1,0.2-0.2,0.3-0.2,0.5c0,0.1,0,0.3,0.2,0.5c0.2,0.3,0.4,0.4,0.7,0.4s0.7-0.2,1.1-0.4L140.8,53.9z"/>
	<path id="path878" inkscape:connector-curvature="0" class="st1" d="M140.1,66.1l2.8-2l-3.5,0.1L140.1,66.1z M138.4,67.4l-1.1-3.1
		l-1.6,0.1l-0.9-2.8l9.9,0.3l1,2.9l-7.6,6.3l-1-2.8L138.4,67.4z"/>
	<path id="path882" inkscape:connector-curvature="0" class="st2" d="M126,99.4c-0.3-0.2-0.6-0.4-0.9-0.3c-0.3,0-0.5,0.1-0.7,0.3
		c-0.2,0.2-0.2,0.4-0.2,0.6c0,0.2,0.2,0.5,0.5,0.7c0.3,0.2,0.6,0.4,0.8,0.4c0.2,0,0.5-0.1,0.6-0.3s0.2-0.4,0.2-0.7
		C126.4,99.9,126.2,99.7,126,99.4 M126.1,103.4l0.7-1.1c0.2,0.1,0.4,0.2,0.6,0.2c0.2,0,0.3-0.1,0.5-0.3c0.2-0.2,0.2-0.5,0.2-0.7
		c-0.1-0.3-0.3-0.7-0.8-1.2c0.1,0.5-0.1,0.9-0.4,1.3c-0.3,0.4-0.8,0.7-1.3,0.7c-0.5,0.1-1.1-0.1-1.5-0.5c-0.5-0.4-0.7-0.9-0.8-1.5
		s0.2-1.1,0.6-1.6c0.4-0.5,1-0.8,1.6-0.8c0.7,0,1.4,0.3,2.3,1c0.9,0.7,1.4,1.4,1.4,2.1c0.1,0.7-0.1,1.3-0.6,1.9
		c-0.3,0.4-0.7,0.7-1.1,0.7C127,103.7,126.6,103.6,126.1,103.4"/>
	<path id="path886" inkscape:connector-curvature="0" class="st2" d="M119.3,104.6l-0.7-0.8l3.4-2.9l0.6,0.7c-0.1,0.5,0,1.1,0.1,1.8
		c0.1,0.7,0.3,1.4,0.6,2.1c0.3,0.7,0.6,1.2,1,1.6l-1,0.8c-0.6-0.7-1-1.5-1.3-2.4c-0.3-0.9-0.5-1.8-0.4-2.8L119.3,104.6z"/>
	<path id="path890" inkscape:connector-curvature="0" class="st2" d="M117.9,106.7c-0.2-0.3-0.4-0.5-0.7-0.6
		c-0.3-0.1-0.5-0.1-0.7,0.1c-0.2,0.1-0.3,0.3-0.4,0.5s0,0.5,0.2,0.9c0.2,0.3,0.4,0.6,0.7,0.6c0.2,0.1,0.5,0,0.7-0.1s0.3-0.3,0.4-0.6
		C118.2,107.3,118.1,107,117.9,106.7 M116.7,110.5l1-0.8c0.2,0.2,0.3,0.3,0.5,0.3s0.3,0,0.5-0.1c0.2-0.2,0.4-0.3,0.4-0.7
		c0-0.3-0.1-0.7-0.4-1.4c-0.1,0.5-0.4,0.8-0.8,1.1c-0.5,0.3-1,0.4-1.5,0.2c-0.5-0.1-1-0.4-1.3-1c-0.3-0.5-0.4-1.1-0.3-1.6
		c0.2-0.6,0.5-1,1.1-1.3c0.6-0.4,1.2-0.4,1.8-0.2c0.6,0.2,1.2,0.7,1.8,1.7c0.6,1,0.8,1.8,0.7,2.5c-0.1,0.7-0.5,1.2-1.1,1.6
		c-0.5,0.3-0.9,0.4-1.3,0.3C117.4,111.1,117.1,110.9,116.7,110.5"/>
	<path id="path894" inkscape:connector-curvature="0" class="st2" d="M114.9,112.9l-1.2,0.5l-1.7-4.2c-0.3,0.6-0.7,1.1-1.2,1.5
		l-0.4-1c0.3-0.2,0.6-0.5,0.8-1c0.3-0.4,0.4-0.8,0.4-1.2l1-0.4L114.9,112.9z"/>
	<path id="path898" inkscape:connector-curvature="0" class="st2" d="M103.9,109.2l-0.1-1l1.1-0.1l0.1,1L103.9,109.2z M101.9,109.4
		l-0.1-1l1.1-0.1l0.1,1L101.9,109.4z M101.7,116l-0.7-6.2l5-0.6l0.1,1.1l-3.7,0.4l0.2,1.4l3.4-0.4l0.1,1.1l-3.4,0.4l0.2,1.7l3.8-0.4
		l0.1,1.1L101.7,116z"/>
	<path id="path902" inkscape:connector-curvature="0" class="st2" d="M96.2,115.8l-1.9-6.4l1.5,0.1l1.4,4.7l2-4.4l1.5,0.1l-2.9,6
		L96.2,115.8z"/>
	<path id="path906" inkscape:connector-curvature="0" class="st2" d="M88.3,110.9c-0.2,0.7-0.2,1.2,0.1,1.7c0.2,0.5,0.6,0.7,1.1,0.9
		c0.5,0.2,1,0.1,1.5-0.1c0.4-0.2,0.8-0.7,1-1.4c0.2-0.7,0.2-1.2,0-1.7c-0.2-0.4-0.6-0.7-1.1-0.9c-0.6-0.2-1-0.1-1.5,0.1
		C88.9,109.7,88.6,110.2,88.3,110.9 M87,110.5c0.2-0.6,0.4-1.1,0.7-1.4c0.2-0.2,0.5-0.5,0.9-0.6c0.3-0.2,0.7-0.2,1-0.3
		c0.5,0,1,0,1.5,0.2c1,0.3,1.6,0.8,2.1,1.5c0.4,0.7,0.5,1.6,0.2,2.5c-0.3,1-0.8,1.6-1.6,2c-0.7,0.4-1.6,0.4-2.5,0.1
		c-1-0.3-1.7-0.8-2.1-1.5C86.8,112.3,86.7,111.4,87,110.5"/>
	<path id="path910" inkscape:connector-curvature="0" class="st2" d="M81.7,111.2l2.5-4.5l-1.8-1l0.5-0.9l4.8,2.6l-0.5,0.9l-1.8-1
		l-2.5,4.5L81.7,111.2z"/>
	<path id="path914" inkscape:connector-curvature="0" class="st2" d="M74.6,106.1l3.9-4.8l3.9,3.2l-0.7,0.8l-2.9-2.3L78,104l2.7,2.2
		L80,107l-2.7-2.2l-1.1,1.3l2.9,2.4l-0.7,0.8L74.6,106.1z"/>
	<path id="path918" inkscape:connector-curvature="0" class="st2" d="M71.1,102.2l3.9-3.3l-1.3-1.6l0.8-0.7l3.5,4.2l-0.8,0.7
		l-1.3-1.6l-3.9,3.3L71.1,102.2z"/>
</g>
</svg>
