<?xml version="1.0" encoding="utf-8"?>
<!-- Generator: Adobe Illustrator 21.1.0, SVG Export Plug-In . SVG Version: 6.00 Build 0)  -->
<svg version="1.1" id="Layer_1" xmlns="http://www.w3.org/2000/svg" xmlns:xlink="http://www.w3.org/1999/xlink" x="0px" y="0px"
	 viewBox="0 0 200 200" style="enable-background:new 0 0 200 200;" xml:space="preserve">
<style type="text/css">
	.st0{fill:#006EB8;}
	.st1{fill:#FFFFFF;}
</style>
<g id="layer1" transform="translate(-153.86036,-290.62406)">
	<path id="path462" class="st0" d="M333.5,292H174.2c0,0,0.2,114.3,0,126.8c0.2,62.6,61.9,19,79.6,70.4
		c17.7-51.4,79.4-7.8,79.6-70.4C333.3,406.2,333.5,292,333.5,292"/>
	<path id="path466" class="st1" d="M329,296.5H178.8c0,21.6,0.2,111.2,0,122.3c0.1,29.6,13.9,32.1,33,35.6
		c14.4,2.6,31.7,5.8,42.1,23.8c10.4-18,27.7-21.2,42.1-23.8c19.1-3.5,32.9-6,33-35.6C328.8,407.7,328.9,318.1,329,296.5"/>
	<path id="path470" class="st0" d="M183.3,301c0,29,0,117.9,0,117.8c0.1,25.9,10.5,27.8,29.3,31.2c13,2.4,29.7,5.5,41.3,20.2
		c11.5-14.7,28.3-17.8,41.3-20.2c18.9-3.5,29.2-5.4,29.3-31.2c0,0.1,0-88.7,0-117.8H183.3L183.3,301z"/>
	<path id="path654" class="st1" d="M281,325h0.9v-1.2h0.5V323h-0.5v-2.8h-0.6l-1.9,2.7v0.8h1.7V325L281,325z M279.7,323l1.2-1.8v1.8
		H279.7z M277.3,325c0.9,0,1.5-0.9,1.5-2.4c0-1.5-0.6-2.4-1.5-2.4c-0.9,0-1.5,0.8-1.5,2.3C275.9,324.1,276.4,325,277.3,325
		 M277.3,320.6c0.5,0,0.6,0.6,0.6,1.9c0,1.3-0.1,2-0.5,2c-0.5,0-0.6-0.6-0.6-1.9C276.8,321.3,276.9,320.6,277.3,320.6 M272.7,325
		c0.7-0.1,1.3-0.3,1.8-0.8c0.6-0.6,0.9-1.3,0.9-2c0-1.1-0.6-1.9-1.5-1.9c-0.9,0-1.5,0.7-1.5,1.6c0,0.8,0.5,1.4,1.2,1.4
		c0.2,0,0.4,0,0.6-0.1c-0.2,0.8-0.7,1.3-1.6,1.7L272.7,325L272.7,325z M273.8,322.7c-0.3,0-0.5-0.3-0.5-1c0-0.7,0.2-1,0.5-1
		c0.3,0,0.5,0.3,0.5,1C274.4,322.3,274.2,322.7,273.8,322.7 M271.5,324.5L271.5,324.5l0.1,0.4h-2.4v-0.4h0.1c0.6,0,0.6-0.1,0.6-0.6
		v-2.8c0-0.2-0.1-0.2-0.4-0.2c-0.1,0-0.2,0-0.3,0v-0.3c0.4,0,0.9-0.2,1.7-0.4v3.8C270.8,324.4,270.9,324.5,271.5,324.5 M267.6,323.9
		c0.3,0,0.5,0.2,0.5,0.5s-0.2,0.5-0.5,0.5c-0.3,0-0.5-0.2-0.5-0.5S267.3,323.9,267.6,323.9 M265.2,322c-0.6-0.4-0.8-0.7-0.8-1
		c0-0.3,0.3-0.5,0.7-0.5c0.4,0,0.7,0.3,0.7,0.6C265.8,321.5,265.6,321.8,265.2,322 M264.3,322.6c-0.6,0.4-0.9,0.8-0.9,1.2
		c0,0.6,0.6,1.2,1.5,1.2c0.9,0,1.5-0.6,1.5-1.3c0-0.5-0.3-0.9-0.9-1.4c0.5-0.3,0.8-0.7,0.8-1.1c0-0.6-0.5-1-1.3-1
		c-0.9,0-1.4,0.5-1.4,1.2C263.5,321.8,263.8,322.2,264.3,322.6 M264.7,322.8c0.6,0.4,1,0.7,1,1.1c0,0.3-0.3,0.6-0.7,0.6
		c-0.5,0-0.8-0.3-0.8-0.8C264.2,323.4,264.3,323.1,264.7,322.8 M262.3,323.9c0.3,0,0.5,0.2,0.5,0.5c0,0.3-0.2,0.5-0.5,0.5
		c-0.3,0-0.5-0.2-0.5-0.5C261.7,324.1,261.9,323.9,262.3,323.9 M259.7,325h0.9v-1.2h0.5V323h-0.5v-2.8H260l-1.9,2.7v0.8h1.7V325
		L259.7,325z M258.5,323l1.2-1.8v1.8H258.5z M254.5,324.6c1.3-1.3,1.9-2.3,1.9-2.9c0-0.5-0.3-0.8-0.7-0.8c-0.3,0-0.6,0.1-0.9,0.4
		l-0.2-0.2c0.6-0.5,1.1-0.8,1.5-0.8c0.7,0,1.2,0.4,1.2,1.2c0,0.8-0.7,1.5-1.9,2.7h1.1c0.3,0,0.5-0.1,0.7-0.4l0.3,0.1l-0.4,1.2h-2.6
		L254.5,324.6L254.5,324.6z M248.8,324.9h1.8c0.7,0,1.1-0.1,1.5-0.5c0.5-0.4,0.7-1.1,0.7-1.8c0-1.4-0.9-2.2-2.3-2.2h-1.7v0.4
		c0.4,0,0.4,0.2,0.4,0.5v1.1h-0.6v0.4h0.6v1.2c0,0.4-0.1,0.5-0.4,0.5L248.8,324.9L248.8,324.9z M250.1,323.7v-1h0.9v-0.4h-0.9V321
		c0-0.2,0.1-0.3,0.3-0.3c0.9,0,1.4,0.7,1.4,2c0,1.1-0.4,1.8-1.2,1.8C250.1,324.5,250.1,324.3,250.1,323.7 M244.8,324.9h1.1v-0.4h0
		c-0.2,0-0.3-0.1-0.3-0.3c0-0.1,0-0.2,0-0.3l0.1-0.6h1.2l0.2,0.7c0,0.1,0,0.2,0,0.3c0,0.2-0.1,0.3-0.3,0.3v0.4h1.6v-0.4
		c-0.2,0-0.3-0.2-0.4-0.5l-1.1-3.7H246c0.1,0.1,0.1,0.2,0.1,0.3c0,0,0,0.1,0,0.1l-0.9,3.2c-0.1,0.3-0.2,0.5-0.4,0.6L244.8,324.9
		L244.8,324.9z M245.9,322.9l0.5-1.6l0.4,1.6H245.9L245.9,322.9z M240.6,324.5c0.4-0.1,0.5-0.3,0.5-0.8v-2.6
		c-0.2-0.2-0.3-0.4-0.5-0.4h0v-0.4h1c0.1,0,0.1,0,0.2,0.1l1.9,2.8v-1.9c0-0.4-0.1-0.6-0.5-0.6v-0.4h1.3v0.4
		c-0.4,0.1-0.5,0.2-0.5,0.6v2.9c0,0.3,0,0.5,0,0.8l-0.4,0l-2.4-3.3v2.1c0,0.6,0.1,0.7,0.6,0.8v0.4h-1.4L240.6,324.5L240.6,324.5z
		 M237.1,321.2c-0.1-0.3-0.2-0.4-0.4-0.5l0-0.4h1.6v0.3c-0.2,0-0.3,0.1-0.3,0.3c0,0.1,0,0.2,0.1,0.3l0.7,2.1c0.4-1.3,0.7-2,0.7-2.2
		c0-0.2-0.1-0.4-0.4-0.4v-0.3h1.2v0.3c-0.3,0-0.4,0.5-0.7,1.3c-0.5,1.6-0.9,2.6-1,3h-0.3L237.1,321.2L237.1,321.2z M234.5,325
		c0.6,0,1.1-0.3,1.5-0.8c0.3-0.4,0.4-1,0.4-1.6c0-0.7-0.2-1.3-0.6-1.7c-0.3-0.4-0.8-0.6-1.3-0.6c-0.6,0-1.1,0.3-1.4,0.8
		c-0.3,0.4-0.5,1-0.5,1.6c0,0.6,0.2,1.2,0.5,1.6C233.5,324.7,233.9,325,234.5,325 M233.6,322.5c0-1.2,0.3-1.8,0.9-1.8
		c0.6,0,0.9,0.7,0.9,2.1c0,1.2-0.3,1.8-0.9,1.8C234,324.6,233.6,323.8,233.6,322.5 M230.9,323.9c0,0.2,0,0.3,0,0.4
		c0.1,0.1,0.2,0.2,0.5,0.2h0v0.3h-2.1v-0.3h0c0.3,0,0.4-0.1,0.5-0.2c0-0.1,0-0.2,0-0.4v-3.2h-0.4c-0.4,0-0.6,0.2-0.8,0.8h-0.3
		l0.1-1.2h3.6l0.1,1.2h-0.3c-0.1-0.6-0.3-0.8-0.8-0.8h-0.3v3L230.9,323.9L230.9,323.9z M225.4,323.5h0.3c0.1,0.6,0.5,1,1,1
		c0.4,0,0.6-0.3,0.6-0.6c0-0.5-0.4-0.6-1-1.1c-0.6-0.4-0.9-0.7-0.9-1.3c0-0.8,0.5-1.3,1.3-1.3c0.4,0,0.8,0.1,1.1,0.4v0.9h-0.3
		c-0.1-0.6-0.5-0.9-0.9-0.9c-0.3,0-0.6,0.2-0.6,0.6c0,0.4,0.3,0.5,0.8,0.8c0.2,0.1,0.5,0.3,0.7,0.5c0.3,0.3,0.4,0.6,0.4,1
		c0,0.8-0.5,1.4-1.3,1.4c-0.4,0-0.8-0.1-1.3-0.3L225.4,323.5L225.4,323.5z M314.9,315.4c-1.7,0-2.9-1.4-2.9-3.5c0-1.1,0.3-2,0.9-2.6
		c0.6-0.7,1.3-1,2.1-1c0.7,0,1.4,0.2,2.2,0.7v1.5h-0.4c-0.4-1-1-1.6-1.7-1.6c-1,0-1.7,1.1-1.7,2.8c0,1.9,0.8,3.1,1.8,3.1
		c0.2,0,0.5-0.1,0.7-0.2v-1.3c0-0.6-0.1-0.8-0.6-0.8v-0.5h2.6v0.5c-0.6,0-0.7,0.2-0.7,0.8v1.8C316.3,315.2,315.5,315.4,314.9,315.4
		 M306.5,315.3h1.6v-0.6h0c-0.3,0-0.5-0.2-0.5-0.5c0-0.1,0-0.2,0.1-0.4l0.2-0.9h1.7l0.2,1c0,0.2,0.1,0.3,0.1,0.4
		c0,0.3-0.2,0.4-0.5,0.4v0.6h2.4v-0.6c-0.2,0-0.4-0.3-0.5-0.8l-1.6-5.6h-1.4c0.1,0.1,0.2,0.3,0.2,0.4c0,0.1,0,0.1,0,0.2l-1.3,4.9
		c-0.1,0.5-0.2,0.8-0.6,0.9L306.5,315.3L306.5,315.3z M308,312.2l0.7-2.5l0.7,2.5H308z M303.5,308.9c-0.5,0.1-0.6,0.3-0.6,0.8v3.8
		c0,0.9,0.1,1.2,0.9,1.2c0.9,0,1.4-0.3,1.9-1.4h0.4l-0.3,2h-4.9v-0.6c0.5-0.1,0.6-0.2,0.6-0.8v-4.2c0-0.6-0.1-0.7-0.6-0.8v-0.6h2.6
		L303.5,308.9L303.5,308.9z M295.8,314.7c0.5-0.1,0.6-0.2,0.6-0.8v-4.2c0-0.6-0.1-0.7-0.6-0.8v-0.6h4.3v1.4h-0.4
		c-0.2-0.6-0.6-0.9-1.2-0.9c-0.7,0-0.7,0.1-0.7,0.5v1.9h0.6c0.5,0,0.8-0.2,0.8-0.8h0.4v2.3h-0.4c0-0.6-0.3-0.9-0.8-0.9h-0.6v1.9
		c0,0.6,0.2,0.8,0.7,0.8c0.7,0,1.3-0.4,1.7-1.2h0.4l-0.3,1.9h-4.4V314.7z M290.7,314.7c0.5-0.1,0.6-0.2,0.6-0.8v-4.2
		c0-0.6-0.1-0.7-0.6-0.8v-0.6h4.7v1.5h-0.4c-0.3-0.7-0.8-1-1.7-1c-0.6,0-0.7,0.1-0.7,0.5v1.9h0.6c0.5,0,0.8-0.2,0.8-0.8h0.4v2.3
		h-0.4c0-0.6-0.3-0.9-0.8-0.9h-0.6v1.9c0,0.7,0.1,0.9,0.7,1v0.5h-2.7V314.7L290.7,314.7z M287.1,313.8v-1.7h0.2l1.4,3
		c0,0.1,0.1,0.1,0.2,0.1h1.4v-0.6c-0.3-0.1-0.5-0.4-0.8-0.9l-1-2c0.7-0.2,1.1-0.8,1.1-1.6c0-0.6-0.2-1-0.6-1.4
		c-0.4-0.4-1-0.4-1.7-0.4h-2.3v0.6c0.5,0.1,0.6,0.2,0.6,0.8v4.1c0,0.6-0.1,0.8-0.6,0.9v0.6h2.5v-0.6
		C287.1,314.6,287.1,314.4,287.1,313.8 M287.1,311.5v-2.3c0-0.1,0.1-0.2,0.2-0.2c0.7,0,1,0.4,1,1.2c0,0.9-0.3,1.3-1,1.3
		C287.2,311.6,287.1,311.5,287.1,311.5 M279.4,315.3h1.6v-0.6h0c-0.3,0-0.5-0.2-0.5-0.5c0-0.1,0-0.2,0.1-0.4l0.2-0.9h1.7l0.2,1
		c0,0.2,0.1,0.3,0.1,0.4c0,0.3-0.2,0.4-0.5,0.4v0.6h2.4v-0.6c-0.2,0-0.4-0.3-0.5-0.8l-1.6-5.6h-1.4c0.1,0.1,0.2,0.3,0.2,0.4
		c0,0.1,0,0.1,0,0.2l-1.3,4.9c-0.1,0.5-0.2,0.8-0.6,0.9L279.4,315.3L279.4,315.3z M281,312.2l0.7-2.5l0.7,2.5H281z M277.4,313.8
		c0,0.3,0,0.5,0.1,0.6c0.1,0.2,0.4,0.3,0.7,0.3h0v0.5h-3.1v-0.5h0c0.4,0,0.6-0.1,0.7-0.3c0.1-0.1,0.1-0.3,0.1-0.6V309h-0.5
		c-0.6,0-0.9,0.4-1.2,1.3h-0.4l0.2-1.9h5.3l0.1,1.9h-0.4c-0.2-0.9-0.5-1.3-1.2-1.3h-0.5v4.5L277.4,313.8L277.4,313.8z M271.3,313.8
		c0,0.3,0,0.5,0.1,0.6c0.1,0.2,0.4,0.3,0.7,0.3h0v0.5h-3.1v-0.5h0c0.4,0,0.6-0.1,0.7-0.3c0.1-0.1,0.1-0.3,0.1-0.6V309h-0.5
		c-0.6,0-0.9,0.4-1.2,1.3h-0.4l0.2-1.9h5.3l0.1,1.9h-0.4c-0.2-0.9-0.5-1.3-1.2-1.3h-0.5v4.5L271.3,313.8L271.3,313.8z M264.5,315.4
		c0.9,0,1.6-0.4,2.2-1.3c0.4-0.6,0.6-1.5,0.6-2.4c0-1-0.3-1.9-0.8-2.6c-0.5-0.6-1.2-0.9-1.9-0.9c-0.8,0-1.6,0.4-2.1,1.2
		c-0.5,0.7-0.7,1.5-0.7,2.5c0,1,0.2,1.8,0.7,2.4C263.1,315,263.7,315.4,264.5,315.4 M263.9,307.7h0.3l1.2-0.8
		c0.2-0.2,0.4-0.3,0.4-0.5c0-0.3-0.1-0.4-0.3-0.4c-0.2,0-0.3,0.1-0.5,0.4L263.9,307.7z M263.3,311.6c0-1.9,0.5-2.8,1.3-2.8
		c0.8,0,1.3,1.1,1.3,3.2c0,1.9-0.4,2.8-1.3,2.8C263.8,314.8,263.3,313.7,263.3,311.6 M258.2,313.8v-1.7h0.2l1.4,3
		c0,0.1,0.1,0.1,0.2,0.1h1.4v-0.6c-0.3-0.1-0.5-0.4-0.8-0.9l-1-2c0.7-0.2,1.1-0.8,1.1-1.6c0-0.6-0.2-1-0.6-1.4
		c-0.5-0.4-1-0.4-1.7-0.4h-2.3v0.6c0.5,0.1,0.6,0.2,0.6,0.8v4.1c0,0.6-0.1,0.8-0.6,0.9v0.6h2.5v-0.6
		C258.2,314.6,258.2,314.4,258.2,313.8 M258.2,311.5v-2.3c0-0.1,0.1-0.2,0.2-0.2c0.7,0,1,0.4,1,1.2c0,0.9-0.3,1.3-1,1.3
		C258.3,311.6,258.2,311.5,258.2,311.5 M253.7,313.8c0,0.3,0,0.5,0.1,0.6c0.1,0.2,0.4,0.3,0.7,0.3h0v0.5h-3.1v-0.5h0
		c0.4,0,0.6-0.1,0.7-0.3c0.1-0.1,0.1-0.3,0.1-0.6V309h-0.5c-0.6,0-0.9,0.4-1.2,1.3h-0.4l0.2-1.9h5.3l0.1,1.9h-0.4
		c-0.2-0.9-0.5-1.3-1.2-1.3h-0.5v4.5L253.7,313.8L253.7,313.8z M247.1,314.7c0.5-0.1,0.6-0.2,0.6-0.8v-4.2c0-0.6-0.1-0.7-0.6-0.8
		v-0.6h2.6v0.6c-0.5,0.1-0.6,0.2-0.6,0.8v4.2c0,0.6,0.1,0.7,0.6,0.8v0.6h-2.6V314.7z M248.7,306.3c0.2-0.3,0.4-0.4,0.5-0.4
		c0.2,0,0.3,0.2,0.3,0.4c0,0.2-0.1,0.4-0.4,0.5l-1.2,0.8h-0.3L248.7,306.3z M241.5,313.8v-1.7h0.2l1.4,3c0,0.1,0.1,0.1,0.2,0.1h1.4
		v-0.6c-0.3-0.1-0.5-0.4-0.8-0.9l-1-2c0.7-0.2,1.1-0.8,1.1-1.6c0-0.6-0.2-1-0.6-1.4c-0.5-0.4-1-0.4-1.7-0.4h-2.3v0.6
		c0.5,0.1,0.6,0.2,0.6,0.8v4.1c0,0.6-0.1,0.8-0.6,0.9v0.6h2.5v-0.6C241.6,314.6,241.5,314.4,241.5,313.8 M241.5,311.5v-2.3
		c0-0.1,0.1-0.2,0.2-0.2c0.7,0,1,0.4,1,1.2c0,0.9-0.3,1.3-1,1.3C241.7,311.6,241.6,311.5,241.5,311.5 M233.9,315.3h1.6v-0.6h0
		c-0.3,0-0.5-0.2-0.5-0.5c0-0.1,0-0.2,0.1-0.4l0.2-0.9h1.7l0.2,1c0,0.2,0.1,0.3,0.1,0.4c0,0.3-0.2,0.4-0.5,0.4v0.6h2.4v-0.6
		c-0.2,0-0.4-0.3-0.5-0.8l-1.6-5.6h-1.4c0.1,0.1,0.2,0.3,0.2,0.4c0,0.1,0,0.1,0,0.2l-1.3,4.9c-0.1,0.5-0.2,0.8-0.6,0.9L233.9,315.3
		L233.9,315.3z M235.4,312.2l0.7-2.5l0.7,2.5H235.4z M228.3,314.7c0.5-0.1,0.6-0.2,0.6-0.8v-4.2c0-0.6-0.1-0.7-0.6-0.8v-0.6h2.6v0.6
		c-0.5,0.1-0.6,0.3-0.6,0.8v1.9l1.5-1.8c0.2-0.2,0.2-0.3,0.2-0.5c0-0.2-0.2-0.4-0.5-0.4v-0.6h2.3v0.6c-0.6,0.1-0.9,0.4-1.4,0.9
		l-1.1,1.3c0,0-0.1,0.1-0.1,0.1c0,0,0,0.1,0.1,0.2l2.1,2.6c0.3,0.4,0.5,0.6,0.7,0.6c0,0,0.1,0,0.1,0v0.6h-1.6l-2.5-3.2v1.8
		c0,0.6,0.1,0.7,0.6,0.8v0.6h-2.6L228.3,314.7L228.3,314.7z M225.3,314.7c0.5-0.1,0.6-0.2,0.6-0.8v-4.2c0-0.6-0.1-0.7-0.6-0.8v-0.6
		h2.6v0.6c-0.5,0.1-0.6,0.2-0.6,0.8v4.2c0,0.6,0.1,0.7,0.6,0.8v0.6h-2.6V314.7z M226.8,306.3c0.2-0.3,0.4-0.4,0.5-0.4
		c0.2,0,0.3,0.2,0.3,0.4c0,0.2-0.1,0.4-0.4,0.5l-1.2,0.8h-0.3L226.8,306.3L226.8,306.3z M220.1,309.6c-0.1-0.4-0.3-0.7-0.6-0.7
		l0-0.6h2.4v0.5c-0.3,0-0.4,0.1-0.4,0.4c0,0.1,0,0.2,0.1,0.4l1.1,3.2c0.6-2,1-3.1,1-3.4c0-0.3-0.2-0.6-0.6-0.6v-0.5h1.8v0.5
		c-0.5,0-0.6,0.8-1,2c-0.8,2.4-1.3,3.9-1.4,4.6H222L220.1,309.6L220.1,309.6z M215.1,313.2h0.4c0.2,1,0.7,1.5,1.4,1.5
		c0.5,0,0.9-0.4,0.9-1c0-0.7-0.6-1-1.5-1.6c-0.8-0.6-1.3-1.1-1.3-2.1c0-1.2,0.7-1.9,2-1.9c0.6,0,1.1,0.2,1.6,0.6v1.4h-0.4
		c-0.2-0.9-0.7-1.4-1.3-1.4c-0.5,0-0.8,0.4-0.8,0.9c0,0.6,0.4,0.8,1.1,1.3c0.3,0.2,0.7,0.4,1.1,0.8c0.4,0.4,0.6,1,0.6,1.5
		c0,1.3-0.7,2.2-2,2.2c-0.5,0-1.1-0.1-1.9-0.4V313.2L215.1,313.2z M208.7,314.7c0.5-0.1,0.6-0.2,0.6-0.8v-4.2c0-0.6-0.1-0.7-0.6-0.8
		v-0.6h2.6v0.6c-0.5,0.1-0.6,0.3-0.6,0.8v1.9l1.5-1.8c0.2-0.2,0.2-0.3,0.2-0.5c0-0.2-0.2-0.4-0.5-0.4v-0.6h2.3v0.6
		c-0.6,0.1-0.9,0.4-1.4,0.9l-1.1,1.3c0,0-0.1,0.1-0.1,0.1c0,0,0,0.1,0.1,0.2l2.1,2.6c0.3,0.4,0.5,0.6,0.7,0.6c0,0,0.1,0,0.1,0v0.6
		h-1.6l-2.5-3.2v1.8c0,0.6,0.1,0.7,0.6,0.8v0.6h-2.6L208.7,314.7L208.7,314.7z M203,315.3h1.6v-0.6h0c-0.3,0-0.5-0.2-0.5-0.5
		c0-0.1,0-0.2,0.1-0.4l0.2-0.9h1.7l0.2,1c0,0.2,0.1,0.3,0.1,0.4c0,0.3-0.2,0.4-0.5,0.4v0.6h2.4v-0.6c-0.2,0-0.4-0.3-0.5-0.8
		l-1.6-5.6h-1.4c0.1,0.1,0.2,0.3,0.2,0.4c0,0.1,0,0.1,0,0.2l-1.3,4.9c-0.1,0.5-0.2,0.8-0.6,0.9L203,315.3L203,315.3z M204.5,312.2
		l0.7-2.5l0.7,2.5H204.5z M200,308.9c-0.5,0.1-0.6,0.3-0.6,0.8v3.8c0,0.9,0.1,1.2,0.9,1.2c0.9,0,1.4-0.3,1.9-1.4h0.4l-0.3,2h-4.9
		v-0.6c0.5-0.1,0.6-0.2,0.6-0.8v-4.2c0-0.6-0.1-0.7-0.6-0.8v-0.6h2.6V308.9z M191.2,314.7c0.5-0.1,0.6-0.2,0.6-0.8v-4.2
		c0-0.6-0.1-0.7-0.6-0.8v-0.6h2.6v0.6c-0.5,0.1-0.6,0.3-0.6,0.8v1.9l1.5-1.8c0.2-0.2,0.2-0.3,0.2-0.5c0-0.2-0.2-0.4-0.5-0.4v-0.6
		h2.3v0.6c-0.6,0.1-0.9,0.4-1.4,0.9l-1.1,1.3c0,0-0.1,0.1-0.1,0.1c0,0,0,0.1,0.1,0.2l2.1,2.6c0.3,0.4,0.5,0.6,0.7,0.6
		c0,0,0.1,0,0.1,0v0.6h-1.6l-2.5-3.2v1.8c0,0.6,0.1,0.7,0.6,0.8v0.6h-2.6L191.2,314.7L191.2,314.7z M281.8,336.7l-15.2-0.2l15.2-5.8
		V336.7z M246,366.3v14.3L229.4,364v-33.2H246v18.8l11.1-18.8h10.6l-19.2,24.9l14.7,23.4l-9.3,9.3L246,366.3L246,366.3z
		 M266.6,338.4v37.2l15.2-15.2l0-22.1H266.6L266.6,338.4z M253.9,420.6l13.1-13.2v46.2c-4.6,2.4-9.1,5.4-13.1,9.6l0,0
		c-4-4.2-8.5-7.2-13.1-9.6v-46.1L253.9,420.6L253.9,420.6z M319.9,354.6l-28.8,28.7l0,62.8c1.1-0.2,2.2-0.4,3.2-0.6
		c25.6-4.7,25.6-10.7,25.6-26.8C319.9,418.9,319.9,386.7,319.9,354.6 M253.9,395.8l-66.1-66.1v15.7l66.1,66.1l66.1-66.1v-15.7
		L253.9,395.8z M187.8,354.6c0,32.1,0,64.3,0,64.2c0,16.1,0.1,22.1,25.6,26.8c1.1,0.2,2.1,0.4,3.2,0.6l0-62.8L187.8,354.6
		L187.8,354.6z"/>
</g>
</svg>
