<?xml version="1.0" encoding="utf-8"?>
<!-- Generator: Adobe Illustrator 21.1.0, SVG Export Plug-In . SVG Version: 6.00 Build 0)  -->
<svg version="1.1" id="Layer_1" xmlns="http://www.w3.org/2000/svg" xmlns:xlink="http://www.w3.org/1999/xlink" x="0px" y="0px"
	 viewBox="0 0 200 200" style="enable-background:new 0 0 200 200;" xml:space="preserve">
<style type="text/css">
	.st0{fill:#F6FBFD;}
	.st1{fill:#28377E;}
	.st2{fill:#A7AAAC;}
</style>
<g>
	<path class="st0" d="M143.6,75.2l4-6.8h-7.8l8.3-26.2H51.9l8.3,26.2h-7.8l4,6.8v67.1l-5.6-1.9v8l5.6,1.8v23.6l-5.6-1.8v8.2
		l49.2,17.3l48.5-17.2v-8.2l-4.9,1.8v-23.6l4.9-1.8v-8l-4.9,1.9V75.2z"/>
	<path class="st0" d="M151.9,66h-8.7l8.2-26.3H48.5L56.8,66h-8.8l5.9,9.9v63l-5.6-1.9v13.2L54,152v18.5l-5.6-1.8V182l51.6,18
		l50.9-18v-13.4l-4.9,1.8V152l4.9-1.8V137l-4.9,1.8V75.9L151.9,66z"/>
	<path class="st1" d="M141.5,67.3l8.2-26.3H50.2l8.3,26.3h-8.3l5,8.3v65l-5.6-1.9v10.5l5.6,1.9v21l-5.6-1.8v10.8l50.4,17.7
		l49.7-17.7v-10.8l-4.9,1.8v-21l4.9-1.9v-10.5l-4.9,1.9v-65l4.9-8.3H141.5z"/>
	<path class="st0" d="M138.2,67.2l7.6-23.3H54.4l7,23.3H138.2z"/>
	<path class="st0" d="M141.5,75l2.6-4.3H55.6l2.9,4.9v70l-5.9-1.9v3.1l5.9,1.9v28.5l-5.9-1.9v3l47.4,16.8l46.4-16.8v-3l-4.9,1.9
		v-28.5l4.9-1.9v-3.1l-4.9,1.9V75z"/>
	<path class="st1" d="M138.6,149.8L100,163.5l-38.7-13.7v27.9l38.7,14.2l38.6-14.2V149.8z"/>
	<path class="st0" d="M135.7,154.2L100,166.6l-35.7-12.4v21.1l35.7,13.1l35.6-13.1V154.2z"/>
	<path class="st1" d="M97.8,75H61.4v71.8l36.4,12.3V75z"/>
	<path class="st1" d="M68.9,52.8l2.4-6.9h-3.5l-2.4,7.3l0,0v-7.3h-3.7v15.5h3.7v-8.1l0,0l2.2,8.1h3.7L68.9,52.8z"/>
	<path class="st1" d="M79.3,52.8l2.4-6.9h-3.5l-2.4,7.3l0,0v-7.3h-3.7v15.5h3.7v-8.1l0,0l2.2,8.1h3.7L79.3,52.8z"/>
	<path class="st1" d="M87.2,47.9c0.6,0,0.9,0.5,0.9,1.3v2.2h3.6v-2.2c0-2.5-1.5-3.7-4.5-3.7c-3.2,0-4.8,1.3-4.8,3.9
		c0,1.3,0.4,2.3,1.2,3.1l4,4c0.3,0.3,0.4,0.7,0.4,1.3c0,0.9-0.3,1.3-0.9,1.3c-0.6,0-0.9-0.4-0.9-1.3v-2.4h-3.7v2.4
		c0,2.6,1.6,3.9,4.6,3.9c3.2,0,4.7-1.4,4.7-4.3c0-1.3-0.4-2.4-1.2-3.2l-4-4c-0.4-0.3-0.5-0.7-0.5-1.1C86.1,48.4,86.5,47.9,87.2,47.9
		z"/>
	<path class="st1" d="M105.6,45.9H102v15.5h7.5V59h-3.8V45.9z"/>
	<path class="st1" d="M118.2,48.4v-2.5h-7.6v15.5h7.6V59h-3.8v-4.9h3.8v-2.5h-3.8v-3.2H118.2z"/>
	<path class="st1" d="M124.2,47.9c0.6,0,0.9,0.5,0.9,1.3v2.2h3.6v-2.2c0-2.4-1.5-3.6-4.5-3.6c-3.1,0-4.7,1.7-4.7,4.9V57
		c0,3.2,1.6,4.9,4.7,4.9c3,0,4.5-1.3,4.5-3.9v-2.4h-3.6v2.4c0,0.9-0.3,1.3-0.9,1.3c-0.7,0-0.9-0.5-0.9-1.3v-8.6
		C123.2,48.4,123.5,47.9,124.2,47.9z"/>
	<path class="st1" d="M139.3,45.9h-3.6v5.7h-1.8v-5.7h-3.7v15.5h3.7V54h1.8v7.4h3.6V45.9z"/>
	<path class="st1" d="M111.4,166.1l-3,1.1l0.1,12.1h-0.1l-2.1-11.3l-5.1,1.9v15.7l3-1.1v-9l-0.2-4.4h0.1l0.7,3.8l2,8.6l4.7-1.7
		V166.1z"/>
	<path class="st1" d="M112.4,181.4l3.1-1.1l0.6-4l2-0.8l0.3,3.8l3.8-1.4l-2.3-14.8l-4.9,1.8L112.4,181.4z M117.3,165.9l0.5,7.2
		l-1.4,0.5l0.7-7.7L117.3,165.9z"/>
	<path class="st1" d="M127.1,159.5l2.2-0.8l2-3.1l-3.4,1.3L127.1,159.5z"/>
	<path class="st1" d="M133.5,158l-3,1.1l0.1,12.1l-0.1,0.1l-0.7-4.7l-1.3-6.6l-5.1,1.9v15.7l3-1.1v-9l-0.2-4.4l0.1-0.1l2.6,12.5
		l4.7-1.8V158z"/>
	<path class="st1" d="M78.6,166.2c0-1.5-0.5-2.6-1.3-3.4c-0.7-0.7-2-1.3-4-2l-4-1.4v15.7l3.6,1.3v-6.1l0.8,0.3
		c3.2,1.1,4.9,0.3,4.9-2.2V166.2z M74.9,164.9v2.3c0,0.9-0.5,1.3-1.5,0.9L73,168V163l0.3,0.1C74.3,163.4,74.9,164,74.9,164.9z"/>
	<path class="st1" d="M89.4,171c0-3.4-1.6-5.5-4.7-6.5c-3-1.1-4.6,0-4.6,3.3v6.6c0,3.2,1.6,5.4,4.6,6.4c3.1,1.1,4.7-0.1,4.7-3.3V171
		z M84.7,166.8c0.6,0.3,0.9,0.8,0.9,1.7v8.6c0,0.9-0.3,1.3-0.9,1.1c-0.6-0.3-0.9-0.8-0.9-1.7v-8.7C83.8,166.9,84.1,166.6,84.7,166.8
		z"/>
	<path class="st1" d="M98.7,171.9v-2.4l-8-2.8v2.4l4,1.4l-4.2,9.2v2.7l8,2.7v-2.3l-4.2-1.4L98.7,171.9z"/>
	<path class="st1" d="M138.6,146.8V75h-36.2v84.1L138.6,146.8z"/>
	<path class="st0" d="M135.3,144.3V78.1h-29.8v76.1L135.3,144.3z"/>
	<path class="st1" d="M123.7,82.3v-19H76.6v19H123.7z"/>
	<path class="st0" d="M79.4,66.2v13.2h41.4V66.2H79.4z"/>
	<path class="st1" d="M90,67.5h-2.1c-0.1,0.7-0.9,1.2-2.1,1.2v1.6h1.7v8H90V67.5z"/>
	<path class="st1" d="M98.6,70.6c0-2.3-1.1-3.4-3.2-3.4c-2.2,0-3.2,1-3.2,2.9v2.2c0,1.6,0.7,2.3,2,2.3c0.8,0,1.5-0.3,1.9-0.9v2.2
		c0,0.6-0.2,0.9-0.6,0.9c-0.5,0-0.7-0.3-0.7-0.9V75h-2.6V76c0,1.7,1.1,2.6,3.2,2.6c2.1,0,3.2-1.1,3.2-3.4V70.6z M95.4,68.9
		c0.4,0,0.6,0.3,0.6,0.9v1.8c0,0.6-0.2,0.9-0.6,0.9c-0.5,0-0.7-0.3-0.7-0.9v-1.8C94.8,69.2,95,68.9,95.4,68.9z"/>
	<path class="st1" d="M104.3,69.4v0.7l-2.4,3.3c-0.9,1.1-1.3,2.2-1.3,3v1.8h6.3v-1.8h-3.7c0.1-0.4,0.7-1.3,1.9-2.8
		c1.2-1.4,1.8-2.8,1.8-3.9c0-1.7-1.1-2.5-3.2-2.5c-2.2,0-3.2,0.9-3.2,2.6v1.5h2.6v-1.4c0-0.6,0.2-0.9,0.7-0.9
		C104.1,68.9,104.3,69.1,104.3,69.4z"/>
	<path class="st1" d="M114.8,69.7c0-1.7-1.1-2.5-3.2-2.5c-2.1,0-3.2,0.9-3.2,2.6v1.5h2.6v-1.4c0-0.6,0.2-0.9,0.6-0.9
		c0.4,0,0.6,0.2,0.6,0.5v0.7l-2.4,3.3c-0.9,1.1-1.3,2.2-1.3,3v1.8h6.3v-1.8h-3.7c0.1-0.5,0.7-1.4,1.9-2.8
		C114.2,72.2,114.8,70.9,114.8,69.7z"/>
	<path class="st1" d="M133.8,106.1v-11l-16.1,22.9V114l16.1-23.4V79.3l-26.7,42.8l0.1,10.2c1.4,0.1,2.5,0.9,3.3,2.2
		c0.6,1.1,0.9,2.6,0.9,4.3c-0.1,1.6-0.4,3-1.1,4.3c-0.8,1.3-1.8,2.1-3.2,2.3l0.1,3.2c0,1.2,0.9,1.9,2.9,2c2,0.1,3.2-0.7,3.9-2
		c1.6,0.3,2.9-0.3,4-1.6c1.3-1.6,1.3-3.9,0.1-6.9c1.3-0.4,2.1-1.8,2.2-4c0.1-2.2-0.4-3.8-1.6-4.5l15-12.7v-8.4l-15,16v-3
		L133.8,106.1z"/>
	<path class="st0" d="M66.3,95.1v11l15,17.3v3l-15-16v8.4l15,12.7c-1.1,0.7-1.7,2.2-1.6,4.5c0.1,2.3,0.9,3.6,2.2,4
		c-1.2,3-1.1,5.3,0.2,6.9c1.1,1.3,2.4,1.8,3.9,1.6c0.7,1.3,2,2.1,3.9,2c2-0.1,2.9-0.7,2.9-2l0.1-3.2c-1.3-0.2-2.4-0.9-3.1-2.3
		c-0.7-1.2-1.1-2.6-1.2-4.3c-0.1-1.7,0.3-3.1,0.9-4.3c0.7-1.3,1.8-2.1,3.2-2.2l0.1-10.2L66.3,79.3v11.3l16,23.4v3.9L66.3,95.1z"/>
	<polygon class="st2" points="101.2,0 104.5,10.2 115.3,10.2 106.5,16.4 110,26.7 101.2,20.3 92.4,26.7 95.9,16.4 86.9,10.2 
		97.9,10.2 	"/>
</g>
</svg>
