<?xml version="1.0" encoding="utf-8"?>
<!-- Generator: Adobe Illustrator 21.1.0, SVG Export Plug-In . SVG Version: 6.00 Build 0)  -->
<svg version="1.1" id="Layer_1" xmlns="http://www.w3.org/2000/svg" xmlns:xlink="http://www.w3.org/1999/xlink" x="0px" y="0px"
	 viewBox="0 0 200 200" style="enable-background:new 0 0 200 200;" xml:space="preserve">
<style type="text/css">
	.st0{fill:#FFFFFF;}
	.st1{fill:#BF6B00;}
</style>
<g id="g3019">
	<path id="path6" d="M100,200c55.1,0,100-44.9,100-100C200,44.9,155.1,0,100,0C44.9,0,0,44.9,0,100C0,155.1,44.9,200,100,200z"/>
	<path id="path10" class="st0" d="M100,193.6c51.5,0,93.6-42.1,93.6-93.6S151.5,6.4,100,6.4S6.4,48.5,6.4,100S48.5,193.6,100,193.6z
		"/>
	<path id="path14" d="M100,181.9c45.1,0,81.9-36.8,81.9-81.9S145.1,18.1,100,18.1S18.1,54.9,18.1,100S54.9,181.9,100,181.9z"/>
	<path id="path18" class="st1" d="M122.8,134.7c4.6,0,5.2,1.1,5.3,5.7c0.2,4.7-0.9,10-4.7,11.7c-1.5,0.7-3.5,0.6-6-0.2
		c-4.8-1.5-9.9-1.4-14.7,0.9c-2,1-3.3,1-5.3,0c-4.8-2.4-10-2.5-14.7-0.9c-2.5,0.8-4.5,0.9-6,0.2c-3.8-1.7-4.9-7-4.7-11.7
		c0.2-4.5,0.7-5.7,5.3-5.7H122.8L122.8,134.7z"/>
	<path id="path22" class="st1" d="M102.7,111.5c4.8,2.4,10,2.5,14.7,0.9c2.5-0.8,4.5-0.9,6-0.2c3.8,1.7,4.9,7,4.7,11.7
		c-0.2,4.5-0.7,5.7-5.3,5.7H77.2c-4.6,0-5.2-1.1-5.3-5.7c-0.2-4.7,0.9-10,4.7-11.7c1.5-0.7,3.5-0.6,6,0.2c4.8,1.5,9.9,1.4,14.7-0.9
		C99.4,110.5,100.6,110.5,102.7,111.5L102.7,111.5z"/>
	<path id="path26" class="st1" d="M72.4,98.1c6.9-5.6,15.6-9.2,25-9.7v14.2c-0.8,6.3-8.2,6.6-13.3,5c-3.7-1.2-7.1-3.7-9.9-6.9
		C73.7,99.8,73,99,72.4,98.1z"/>
	<path id="path30" class="st1" d="M68.6,162.6c-7.7-7.9-12.4-18.7-12.4-30.5c0-11.9,4.7-22.7,12.4-30.6c0.4,0.6,0.8,1.1,1.2,1.7
		c3.2,4.1,3,4.1,0.3,8.1c-1.3,2-2.3,4.1-2.8,6.3c-1,3.6-1,7.5,0,11.6c0.6,2.6,0.6,3.2,0,5.8c-1,4.1-1,8,0,11.6
		c0.6,2.2,1.5,4.3,2.8,6.3c2.7,4,2.9,4-0.3,8.1C69.4,161.5,69,162.1,68.6,162.6L68.6,162.6z"/>
	<path id="path34" class="st1" d="M97.4,175.9c-9.4-0.6-18.1-4.1-25-9.7c0.6-0.9,1.2-1.8,1.9-2.6c2.7-3.2,6.1-5.7,9.9-6.9
		c5.1-1.6,12.4-1.4,13.3,5V175.9L97.4,175.9z"/>
	<path id="path38" class="st1" d="M127.6,166.1c-6.9,5.6-15.6,9.2-25,9.7v-14.2c0.8-6.3,8.2-6.6,13.3-5c3.7,1.2,7.1,3.7,9.9,6.9
		C126.3,164.4,127,165.3,127.6,166.1L127.6,166.1z"/>
	<path id="path42" class="st1" d="M131.4,101.5c7.7,7.9,12.4,18.7,12.4,30.6c0,11.8-4.7,22.6-12.4,30.5c-0.4-0.6-0.8-1.1-1.2-1.7
		c-3.2-4.1-3-4.1-0.3-8.1c1.3-2,2.3-4.1,2.8-6.3c1-3.6,1-7.5,0-11.6c-0.6-2.6-0.6-3.2,0-5.8c1-4.1,1-8,0-11.6
		c-0.6-2.2-1.5-4.3-2.8-6.3c-2.7-4-2.9-4,0.3-8.1C130.6,102.7,131,102.1,131.4,101.5z"/>
	<path id="path46" class="st1" d="M102.6,88.3c9.4,0.6,18.1,4.1,25,9.7c-0.6,0.9-1.2,1.8-1.9,2.5c-2.7,3.2-6.1,5.7-9.9,6.9
		c-5.1,1.6-12.4,1.4-13.3-5V88.3z"/>
	<path id="path50" class="st0" d="M100,24.5c23,0,43.1,10.4,57.5,26.7c5.5,6.2,4.5,21.4-4.1,24.8c12.3,18.9,10.3,27.4,9.8,47.9
		c-0.1,5.6,0.6,9,2.4,13.3c-5.4,9.6-12.9,17.8-21.8,24.2c0.5-5.1,1.5-8.1,3.2-12.9c1.8-5.1,2.7-10.6,2.7-16.4
		c0-7.7-1.8-15.1-4.9-21.6c1.1-6.3-0.3-16.5-3.1-22.3c-4.7-9.8-14.7-10.2-14.1,2.6c-5.7-3.8-12.2-6.5-19.2-7.7V37.7
		c0-3.4-0.4-6.7-3.2-9c-1.5-1.3-3.8-1.3-6.1,0.7c-5.7,5-17,19.9-18.6,25.6c-0.6,2.2-0.4,4.8,0.9,7.6c3.2,6.8,11.7,14,17.3,19.8
		c-8.7,0.2-16.8,2.7-23.9,6.8l-2.4-4.9c-2.2-4.4-4.5-9.8-10.1-7.1c-6.6,3.2-8.8,10.9-8.8,17.1v19.9c-2.2,5.6-3.3,11.6-3.3,17.9
		c0,6.8,1.3,13.2,3.8,19.1c0.1,2.7,0.1,5.5-0.2,8.5c-8-6.1-14.6-13.8-19.6-22.6c0-1.7-0.4-4.1,0.5-5.6c0.9-1.5,1.1-2.1,1.1-3.7
		l0-53.3c0-2.7-0.6-6.9-3.5-7.8c4.4-8.8,10.4-16.6,17.7-23.1c0.9-0.8,2.4-1.7,3.2-0.1c0.6,1.2-0.5,3.3-1.2,5.9
		c-0.7,2.5-1.1,9.3,2.3,10.4c2.8,0.9,6.5-4.2,7.8-5.9c5.9-7.4,13.8-19.7,15.1-21.7c-1-1.4-0.8-3.8,1.1-4.4
		C85.2,25.4,92.5,24.5,100,24.5z"/>
	<path id="path54" d="M126.1,56.9c-0.1,4.8,2.2,11.7,8,11.7c10.2,0,14.1-8.4,7.3-16c-3.1-3.5-10.8-9.1-14-4.8
		C125.7,50.2,126.1,54.1,126.1,56.9z"/>
</g>
</svg>
