<?xml version="1.0" encoding="utf-8"?>
<!-- Generator: Adobe Illustrator 21.1.0, SVG Export Plug-In . SVG Version: 6.00 Build 0)  -->
<svg version="1.1" id="Layer_1" xmlns="http://www.w3.org/2000/svg" xmlns:xlink="http://www.w3.org/1999/xlink" x="0px" y="0px"
	 viewBox="0 0 200 200" style="enable-background:new 0 0 200 200;" xml:space="preserve">
<style type="text/css">
	.st0{fill:#20315F;}
	.st1{fill:url(#SVGID_1_);}
	.st2{fill:#EEEFF0;}
	.st3{fill:#010101;}
	.st4{fill:#112A48;}
</style>
<g>
	<path class="st0" d="M196.9,37l-0.1-1.7l-1.3-1.1C167.7,11.7,135.8,0,100,0C64.2,0,32.3,11.7,4.6,34.2l-1.3,1.1L3.1,37
		c-3.6,52.7,9.3,100.1,51,134.9c13.3,11.1,28.4,20,44.2,27.3l0,0l1.7,0.8l1.7-0.8c15.7-7.3,30.8-16.2,44.2-27.3
		C187.5,137.1,200.4,89.8,196.9,37z M145.2,171.1c-13.3,11.1-28.3,19.9-43.9,27.2l-1.3,0.6l-1.3-0.6l0,0
		c-15.7-7.3-30.7-16.1-43.9-27.2C13.4,136.6,0.6,89.6,4.1,37.1l0.1-1.3l1-0.8C32.7,12.6,64.5,1,100,1c35.5,0,67.3,11.6,94.8,34
		l1,0.8l0.1,1.3C199.4,89.6,186.6,136.6,145.2,171.1z"/>
	
		<radialGradient id="SVGID_1_" cx="1.3889" cy="198.614" r="0.962" gradientTransform="matrix(72 0 0 -72 0 14400)" gradientUnits="userSpaceOnUse">
		<stop  offset="0" style="stop-color:#173B6A"/>
		<stop  offset="0.8118" style="stop-color:#254A74"/>
		<stop  offset="1" style="stop-color:#06295F"/>
	</radialGradient>
	<path class="st1" d="M100,195.6c-54.6-25.4-99-68.9-92.9-158.3C34,15.4,65,4.4,100,4c35,0.4,66,11.5,92.9,33.3
		C199,126.7,154.6,170.2,100,195.6z M100.3,7.6c44.7,0,80.9,36.2,80.9,80.9s-36.2,80.9-80.9,80.9s-80.9-36.2-80.9-80.9
		C19.4,43.8,55.6,7.6,100.3,7.6z"/>
	<circle class="st2" cx="100.3" cy="88.5" r="80.9"/>
	<path class="st0" d="M100.3,11c-42.8,0-77.5,34.7-77.5,77.5c0,42.8,34.7,77.5,77.5,77.5c42.8,0,77.5-34.7,77.5-77.5
		C177.8,45.7,143.1,11,100.3,11z M100.3,163.6c-41.5,0-75.1-33.6-75.1-75.1c0-41.5,33.6-75.1,75.1-75.1c41.5,0,75.1,33.6,75.1,75.1
		C175.4,130,141.8,163.6,100.3,163.6z"/>
	<g>
		<path class="st3" d="M99.8,125.9L99.8,125.9c-2.8-0.1-5.6-0.4-8.4-0.8c-0.1,1.1-0.1,2.2,0.2,3.4c2.7,2.8,6,4.9,10.1,6.1
			c1.6-0.6,3-1.4,4.2-2.5C103.7,130.1,101.6,128,99.8,125.9z"/>
		<path class="st3" d="M93.6,114.2c-0.8-2.7-1.4-5.5-1.7-8.4c-1.1,0.2-2,0.6-2.6,1.1c-1.8,2.9-2.5,7.9-2,12.5c0.6,1,1.4,1.8,2.4,2.4
			C90.7,119.2,92,116.7,93.6,114.2L93.6,114.2z"/>
		<polygon class="st3" points="104,104.1 104,104.1 104,104.1 		"/>
		<path class="st3" d="M73.8,126.2c-7.2-9.7-10.2-26.7-3.2-44.6l-3-3.3c-6.1,10.3-10.1,36.1,4.4,48.6c1.7,1.5,3.7,2.6,3.9,2.1
			C76,128.7,75.1,128,73.8,126.2L73.8,126.2z"/>
		<path class="st3" d="M80.9,127.5c-6-9.7-8.6-24.8-4.6-40l-4.2-4.4c-3.6,9.3-5.1,32.6,6.8,46.2c1.7,1.9,3.2,2.5,3.6,2
			C83,130.7,82.4,129.9,80.9,127.5L80.9,127.5z"/>
		<path class="st3" d="M65.6,77L62,75.2c-6.4,9.3-9.6,27.2-1.2,41.9c2,3.4,4.6,6.6,5.1,6.2c0.3-0.3-1-2-3.2-6.2
			C57.5,106.8,58.3,89.9,65.6,77z"/>
		<path class="st3" d="M108.8,96.8c-3.8-0.2-7.4,0.3-10.9,1.9c-1,1.3-1.5,2.7-1.9,4c2.7,0.1,5.3,0.6,8,1.5c2.5-1.5,5.2-2.8,7.9-3.9
			C111.1,99,110.2,97.8,108.8,96.8z"/>
		<polygon class="st3" points="113.7,111.9 104.8,107.2 97.6,114.2 102,123.2 107,122.5 112,121.8 		"/>
		<path class="st3" d="M128.7,48.6c-1-1.2-4.1,0.2-7.5,1.9c-12.3,6.1-26.1,15.9-34.3,23.9c-1.3,0.8-5.2,1.2-6.5,0.5
			c0.6-10.6,17-22.1,25.5-25.3c2.5-0.9,1.3-1.1-0.1-1.2C93.8,47.7,71.5,53,58.2,69.3c-12.1,14.7-13.7,35.2,3,51.1l0,0
			c-10.6-12.7-15-34.1,6.6-55.1c-2,2.6-3.3,5.2-3.4,7.6c-0.1,1.7,0.7,2.2,1.2,2.2c0.9-0.1,1-1.5,1-2.1c0.1-4.1,3.2-8,6.3-9.3
			c-1.1,1.5-6.4,5.6-4.4,13.1c0.9-5.1,2.8-9.5,7.2-11.3c-3.3,3-6.7,8.2-4.5,13.5c0.8-4.3,2-8.6,5.3-10.9C73,75.4,71.4,82.7,78,86.8
			c0.4-6.6-1.4-9.8,1.2-14.5c1.2,2.8,1.3,10.1,0.7,13c-0.5,2.3-1.3,2.3-2.1,3.7c-1.2,5.6-1,11.2-0.4,16.9c3.9-1.1,19.2-7.7,22.8-13
			c1.3-1.9,2.6-3,5.6-2.5c1.2,2.1,2.9,3.9,4.8,5.3c2.6,2,3.3,0.2,2.9-1.4c-0.8-2.9-2-4.1,1.4-3.8c2.4,0.3,4,2.1,0.6,3.5
			c3.1,1.2,6.1-0.6,6.2-3c0.1-1.7-0.9-4.1-5.3-5.3c2.8-0.9-2-2.9-5-4.7c3-3,6-6.1,9-9.1c-1.7-1.8-2.9-3.8-3.8-6.1
			c0.9,1,1.6,1.8,2.7,2.2c0.6,0.2,0.8-0.5,1-1c0.5,1,1,2.1,1.4,3c4-5.3,6.6-13,6.5-19.4C128.8,50,129,49,128.7,48.6z M120.8,91
			c0,1.6-1.7,2.8-3.7,2.8c2-1.5,0.4-3.2-1.6-3.7c-1.7-0.4-3.5-0.2-5,0.1c-0.9,0.2-1.7,0.5-1,1.7h0c0.8,1.2,2,2.6,2.5,2.6
			c-0.3-1.1-0.5-2-0.3-3c0.1,0.4,1,2.5,1.1,3.7c0.1,1.3-1,0.8-1.4,0.5c-1.9-1.5-4-3.4-5.1-5.4c3.1-0.2,5.6-1,5.6-3.6
			C117.7,85.3,120.9,88.5,120.8,91z M115.5,84.4c1.1,0.7,0.5,1-0.9,1.3c-1.4,0.2-1.9,0.3-2.6,0.1c-1.4-0.2-1.5-1.2-3.4-2.2
			c-2-1.1-4-1.8-6.1-2.3c0.9,0.5,4.6,2.1,5,2.6c0.7,0.6,0.4,2.3,0.4,4c1.2,0,2.2-0.4,3.3-1.4c-0.2,2.8-3.7,3.1-6.3,3
			c-2.3,0-4.2,0.4-5.9,3.7c-5.2-2.6,1.8-3.9,3.9-4.8c-2.8-1.3-7.2,0.3-8.8,3.8l-4.3-2.9c2.8-2.8,7.2-3.2,12.5-2.8
			c-4.5-1.6-9.1-1.2-13.9,1l-3-3.6c4.2-1.2,8.7-1.5,13.3-1.7c-2.4-1.1-10.6-0.4-12.8-0.1l-2-2.9c5.7-1.5,13-0.4,8.4-2.2
			c1.9,0,6.5,0.7,8,1.1c0.1-0.4-0.3-0.8-0.3-0.9c0-0.2,4.8,1.6,9.1,3.7C111.7,82.1,114.2,83.5,115.5,84.4z M95.3,76.3
			c-2-0.4-4.2-0.4-6.1-0.7c9-11.8,29-22.6,36.4-24.7C114.3,56.4,101.8,68.3,95.3,76.3z"/>
		<path class="st3" d="M114.3,122.7L114.3,122.7c-0.9,3-2,5.8-3.3,8.6c1.6,0.7,3.3,1.2,5.2,1.4c3.1-2.1,5.7-4.8,7.6-8.4
			c-0.2-1.7-0.6-3.3-1.3-4.7C119.7,120.9,116.9,122.1,114.3,122.7z"/>
		<path class="st3" d="M116.8,101.6c0.6,2.7,0.9,5.5,1,8.4l0,0c2.2,1.9,4.3,4,6.2,6.3c0.8-0.8,1.2-1.7,1.5-2.7
			c-0.8-4.2-2.5-8.2-6.1-11.7C118.5,101.5,117.6,101.5,116.8,101.6z"/>
	</g>
	<path class="st4" d="M42.4,54.8l10.8,6.2c0.2,0.1,0.4,0.2,0.6,0.2c0.1,0,0.2,0,0.2-0.1c0,0,0.2-0.2,0.4-0.4
		c0.2-0.3,0.5-0.3,0.8-0.2c0.2,0.1,0.2,0.2,0.2,0.5c0,0.2-0.1,0.4-0.2,0.6l-0.2,0.3l-2.4,4.1l-0.1,0.2c-0.1,0.2-0.3,0.4-0.4,0.4
		c-0.2,0.1-0.3,0.1-0.5,0c-0.3-0.1-0.3-0.4-0.3-0.7c0.1-0.2,0.1-0.4,0.1-0.4c0,0,0-0.1,0-0.2c-0.1-0.1-0.2-0.3-0.4-0.4l-9.2-5.3
		c-0.2-0.1-0.4-0.2-0.5-0.2c-0.1,0-0.1,0-0.2,0c0,0-0.1,0.1-0.3,0.3c-0.2,0.2-0.5,0.2-0.7,0.1c-0.2-0.1-0.2-0.2-0.2-0.4
		c0-0.2,0-0.4,0.2-0.6l0.1-0.2L42.4,54.8L42.4,54.8z M42.8,54l2.1-3.7l3.2,1.9c0.2,0.1,0.3,0.2,0.4,0.4c0,0.1,0,0.3-0.1,0.4
		c-0.1,0.1-0.2,0.2-0.3,0.2c-0.1,0-0.2,0-0.4,0c-0.4-0.1-0.7-0.1-1-0.1c-0.3,0-0.6,0-0.9,0.1c-0.4,0.1-0.7,0.3-1,0.5
		c-0.3,0.2-0.6,0.5-0.9,0.9C43.9,54.6,42.8,54,42.8,54z M49.5,57.9l-1.1-0.6c0-0.5,0-0.8-0.1-1.1c-0.1-0.3-0.3-0.6-0.6-0.8
		c-0.2-0.2-0.3-0.3-0.4-0.5c0-0.1,0-0.3,0.1-0.4c0.1-0.2,0.3-0.3,0.5-0.3c0.1,0,0.3,0.1,0.6,0.3l3.5,2c0.3,0.2,0.5,0.3,0.5,0.4
		c0.1,0.1,0.1,0.3,0,0.4c-0.1,0.1-0.2,0.2-0.3,0.3c-0.1,0-0.3,0-0.5-0.1c-0.5-0.1-0.9-0.2-1.2-0.1C50,57.5,49.8,57.7,49.5,57.9z
		 M57.4,52.2c0.4-0.4,0.8-0.7,1.4-0.7c0.6,0,1.1,0.1,1.5,0.5c0.4,0.4,0.7,0.9,0.7,1.4c0,0.6-0.1,1.1-0.5,1.5
		c-0.4,0.4-0.9,0.7-1.4,0.7c-0.6,0-1.1-0.1-1.5-0.5c-0.4-0.4-0.7-0.8-0.7-1.4C56.9,53.2,57.1,52.7,57.4,52.2z M67.7,47.5l-3.7,2.9
		l-0.2,0.2c-0.2,0.2-0.4,0.2-0.6,0.2c-0.2,0-0.3-0.1-0.4-0.2c-0.2-0.2-0.2-0.5,0-0.7c0.1-0.2,0.2-0.3,0.2-0.4c0,0,0-0.1,0-0.2
		c0-0.1-0.1-0.3-0.2-0.5l-6.6-8.4c-0.2-0.2-0.3-0.3-0.4-0.3c-0.1,0-0.1,0-0.2,0c0,0-0.2,0.1-0.4,0.1c-0.3,0.1-0.5,0-0.7-0.2
		c-0.1-0.1-0.1-0.3-0.1-0.4c0-0.2,0.2-0.3,0.4-0.5L55,39l3.7-2.9l0.2-0.2c0.2-0.2,0.4-0.2,0.6-0.2c0.2,0,0.3,0.1,0.4,0.2
		c0.2,0.2,0.2,0.5,0,0.7c-0.1,0.2-0.2,0.3-0.2,0.4c0,0,0,0.1,0,0.2c0,0.1,0.1,0.3,0.2,0.5l6.6,8.4c0.2,0.3,0.5,0.4,0.7,0.4l0.3-0.1
		c0.3-0.1,0.5,0,0.7,0.2c0.2,0.3,0.1,0.6-0.3,0.9L67.7,47.5L67.7,47.5z M64.7,36.8l7.7,4.6c0.2,0.1,0.4,0.2,0.5,0.2
		c0.1,0,0.3,0,0.5,0c0.2,0,0.3,0,0.3-0.1c0.1,0,0.3,0.1,0.4,0.2c0.2,0.3,0.1,0.6-0.3,0.9L69.5,46c-0.2,0.2-0.4,0.2-0.6,0.2
		c-0.2,0-0.3-0.1-0.4-0.2c-0.1-0.2-0.1-0.4,0-0.7c0.1-0.2,0.1-0.3,0.1-0.4c0-0.1,0-0.2-0.1-0.2c0,0-0.1-0.1-0.3-0.2l-3.6-2.4
		c-0.3-0.2-0.6-0.4-0.7-0.6c-0.2-0.2-0.2-0.5-0.3-0.8l-0.2-4.4c0-0.4-0.1-0.8-0.4-1c-0.1-0.2-0.3-0.3-0.5-0.3
		c-0.2-0.1-0.4-0.1-0.6,0l-0.4,0.1c-0.3,0.1-0.4,0-0.6-0.2c-0.1-0.2-0.2-0.3-0.1-0.5c0-0.1,0.1-0.3,0.3-0.4l3-2.3
		c0.2-0.2,0.4-0.2,0.6-0.2c0.2,0,0.3,0.1,0.4,0.2c0.2,0.2,0.2,0.5,0,0.8L65.1,33c-0.1,0.2-0.2,0.5-0.4,1c-0.1,0.3-0.1,0.8-0.1,1.5
		L64.7,36.8L64.7,36.8z M76.8,37.4c0.5-0.2,1-0.2,1.6,0c0.5,0.2,0.9,0.6,1.1,1.1c0.2,0.5,0.2,1.1,0,1.6c-0.2,0.5-0.6,0.9-1.1,1.1
		c-0.5,0.2-1.1,0.2-1.6,0c-0.5-0.2-0.9-0.6-1.2-1.1c-0.2-0.5-0.2-1,0-1.6C75.9,38,76.3,37.7,76.8,37.4L76.8,37.4z M88.3,37.5l-4.6,1
		l-0.3,0.1c-0.2,0.1-0.5,0-0.6,0c-0.2-0.1-0.3-0.2-0.3-0.4c-0.1-0.3,0-0.5,0.3-0.7c0.2-0.1,0.3-0.2,0.4-0.2c0,0,0.1-0.1,0.1-0.1
		c0.1-0.1,0.1-0.3,0-0.6l-2.2-10.4c-0.1-0.2-0.1-0.4-0.2-0.5c-0.1-0.1-0.1-0.1-0.1-0.1c0,0-0.2,0-0.4-0.1c-0.3,0-0.5-0.2-0.5-0.5
		c0-0.2,0-0.3,0.1-0.4c0.1-0.1,0.3-0.2,0.5-0.3l0.3-0.1l4.6-1l0.3-0.1c0.2-0.1,0.5,0,0.6,0c0.2,0.1,0.3,0.2,0.3,0.4
		c0.1,0.3,0,0.5-0.3,0.7c-0.2,0.1-0.3,0.2-0.4,0.2c0,0-0.1,0.1-0.1,0.1c-0.1,0.1-0.1,0.3,0,0.6l2.2,10.4c0.1,0.4,0.2,0.6,0.4,0.6
		l0.3,0c0.3,0,0.5,0.2,0.5,0.5c0.1,0.4-0.1,0.6-0.6,0.7C88.6,37.4,88.3,37.5,88.3,37.5z M90.3,26.5l4.9,7.5c0.1,0.2,0.3,0.4,0.4,0.4
		c0.1,0.1,0.3,0.2,0.4,0.2c0.2,0,0.3,0.1,0.3,0.1c0.1,0.1,0.2,0.2,0.2,0.4c0.1,0.4-0.1,0.6-0.7,0.7L90.6,37c-0.3,0.1-0.5,0-0.6,0
		c-0.2-0.1-0.3-0.2-0.3-0.4c0-0.2,0-0.4,0.3-0.6c0.1-0.1,0.2-0.2,0.3-0.3c0-0.1,0.1-0.1,0-0.2c0,0-0.1-0.2-0.2-0.3L88,31.4
		c-0.2-0.3-0.3-0.6-0.4-0.9c-0.1-0.2,0-0.5,0.1-0.9l1.7-4c0.2-0.4,0.2-0.7,0.1-1.1c0-0.2-0.1-0.4-0.3-0.5c-0.1-0.1-0.3-0.2-0.5-0.3
		l-0.4-0.1c-0.3,0-0.4-0.2-0.5-0.4c0-0.2,0-0.4,0.1-0.5c0.1-0.1,0.2-0.2,0.5-0.2l3.7-0.8c0.2-0.1,0.4,0,0.6,0
		c0.2,0.1,0.3,0.2,0.3,0.4c0.1,0.3-0.1,0.5-0.3,0.7l-0.5,0.3c-0.2,0.1-0.5,0.4-0.8,0.7c-0.2,0.3-0.5,0.7-0.7,1.3L90.3,26.5
		L90.3,26.5z M99.4,31.7l0.6-8.3c0-0.2,0-0.4-0.1-0.5c0-0.1-0.1-0.1-0.1-0.1c0,0-0.2-0.1-0.4-0.2c-0.3-0.1-0.4-0.3-0.4-0.6
		c0-0.2,0.1-0.3,0.2-0.4c0.1-0.1,0.3-0.1,0.6-0.1l0.3,0l4.7,0.3l0.3,0l0.4,0.1c0.1,0,0.2,0.1,0.3,0.2c0.1,0.1,0.1,0.2,0.1,0.3
		c0,0.3-0.2,0.5-0.5,0.5c-0.2,0.1-0.4,0.1-0.4,0.1c0,0-0.1,0.1-0.1,0.1c-0.1,0.1-0.1,0.3-0.2,0.5l-0.6,8.9c0,0.6-0.1,1,0,1.3
		c0,0.2,0.1,0.5,0.2,0.7c0.1,0.2,0.2,0.3,0.3,0.4c0.1,0.1,0.3,0.2,0.6,0.3l-0.1,1.4l-0.2,0c-0.9-0.1-1.7-0.2-2.3-0.4
		c-0.7-0.2-1.3-0.6-1.8-1c-0.5-0.4-0.9-0.9-1.1-1.3C99.4,33.4,99.3,32.7,99.4,31.7L99.4,31.7z M105.9,36.7l0.1-1.4
		c0.7,0,1.3-0.3,1.8-0.7c0.6-0.5,0.9-1.3,1-2.4l0.5-6.9c0.1-1-0.3-1.7-1-2.1c-0.2-0.1-0.3-0.2-0.4-0.3c-0.1-0.1-0.1-0.2-0.1-0.4
		c0-0.2,0.1-0.3,0.2-0.4c0.1-0.1,0.4-0.1,0.7-0.1l2.6,0.2c0.2,0,0.4,0,0.4,0c0.1,0,0.1,0.1,0.2,0.1c0.2,0.1,0.3,0.3,0.2,0.5
		c0,0.2-0.1,0.3-0.2,0.4c0,0-0.2,0.1-0.5,0.3c-0.3,0.1-0.6,0.4-0.8,0.7c-0.2,0.3-0.3,0.7-0.3,1.2l-0.5,6.9c-0.1,1.2-0.4,2.1-1,2.9
		c-0.4,0.5-1,1-1.7,1.2C106.9,36.6,106.4,36.7,105.9,36.7L105.9,36.7z M118.5,39.4l-4.4-1.7l-0.3-0.1c-0.2-0.1-0.4-0.2-0.5-0.3
		c-0.1-0.1-0.1-0.3,0-0.5c0.1-0.3,0.3-0.4,0.6-0.4c0.2,0,0.4,0,0.4,0c0,0,0.1,0,0.2-0.1c0.1-0.1,0.2-0.2,0.3-0.5l3.8-9.9
		c0.1-0.2,0.1-0.4,0.1-0.6c0-0.1,0-0.1-0.1-0.2c0,0-0.1-0.1-0.3-0.3c-0.2-0.2-0.3-0.4-0.2-0.7c0.1-0.2,0.2-0.3,0.3-0.3
		c0.2,0,0.4,0,0.6,0.1l0.3,0.1l4.4,1.7L124,26c0.2,0.1,0.4,0.2,0.5,0.3c0.1,0.1,0.1,0.3,0,0.5c-0.1,0.3-0.3,0.4-0.6,0.4
		c-0.2,0-0.4,0-0.4,0c0,0-0.1,0-0.2,0.1c-0.1,0.1-0.2,0.2-0.3,0.5l-3.8,9.9c-0.1,0.4-0.1,0.6,0,0.8l0.3,0.2c0.2,0.2,0.3,0.4,0.2,0.7
		c-0.1,0.3-0.4,0.4-0.9,0.2L118.5,39.4L118.5,39.4z M126.1,31.3l0,9c0,0.2,0,0.4,0.1,0.6c0,0.1,0.1,0.3,0.2,0.4
		c0.1,0.1,0.2,0.2,0.2,0.3c0.1,0.1,0.1,0.3,0,0.4c-0.1,0.3-0.4,0.4-0.9,0.2l-5-1.9c-0.2-0.1-0.4-0.2-0.5-0.4c-0.1-0.1-0.1-0.3,0-0.5
		c0.1-0.2,0.3-0.3,0.6-0.4c0.2,0,0.3,0,0.4-0.1c0.1,0,0.1-0.1,0.2-0.2c0,0,0-0.2,0-0.3l0.2-4.3c0-0.4,0.1-0.7,0.2-1
		c0.1-0.2,0.3-0.4,0.6-0.6l3.7-2.4c0.3-0.2,0.6-0.5,0.7-0.8c0.1-0.2,0.1-0.4,0-0.6c0-0.2-0.1-0.4-0.3-0.5l-0.3-0.3
		c-0.2-0.2-0.2-0.4-0.2-0.6c0.1-0.2,0.2-0.3,0.4-0.4c0.1,0,0.3,0,0.5,0.1l3.5,1.4c0.2,0.1,0.4,0.2,0.5,0.4c0.1,0.2,0.1,0.3,0,0.5
		c-0.1,0.3-0.3,0.4-0.7,0.4l-0.6,0c-0.2,0-0.6,0.1-1,0.2c-0.3,0.1-0.8,0.4-1.3,0.7L126.1,31.3L126.1,31.3z M141.1,35.5l-8.9,11.4
		l-3.7-2.9l-0.2-0.2c-0.2-0.2-0.3-0.3-0.4-0.5c-0.1-0.2,0-0.3,0.1-0.4c0.2-0.2,0.4-0.3,0.7-0.2c0.2,0.1,0.4,0.1,0.4,0.1
		c0,0,0.1,0,0.2,0c0.1,0,0.3-0.2,0.4-0.3l6.6-8.4c0.2-0.2,0.2-0.4,0.2-0.5c0-0.1,0-0.1,0-0.2c0,0-0.1-0.2-0.2-0.4
		c-0.2-0.2-0.2-0.5,0-0.7c0.1-0.1,0.2-0.2,0.4-0.2c0.2,0,0.4,0.1,0.6,0.2l0.2,0.2L141.1,35.5L141.1,35.5z M141.9,36.1l3.4,2.6
		l-2.3,3c-0.1,0.2-0.3,0.3-0.4,0.3c-0.1,0-0.3,0-0.4-0.1c-0.1-0.1-0.2-0.2-0.2-0.3c0-0.1,0-0.2,0.1-0.4c0.3-0.8,0.4-1.5,0.2-2.2
		c-0.1-0.7-0.5-1.3-1.1-1.9L141.9,36.1L141.9,36.1z M137.1,42.1l0.8-1c0.4,0.1,0.8,0.1,1.1,0.1c0.3-0.1,0.6-0.2,0.9-0.5
		c0.2-0.2,0.4-0.3,0.5-0.3c0.1,0,0.3,0,0.4,0.1c0.2,0.1,0.2,0.3,0.2,0.5c0,0.1-0.1,0.3-0.3,0.5l-2.5,3.2c-0.2,0.3-0.4,0.4-0.5,0.5
		c-0.1,0.1-0.3,0-0.4-0.1c-0.1-0.1-0.2-0.2-0.2-0.4c0-0.1,0-0.3,0.1-0.5c0.2-0.5,0.3-0.9,0.3-1.2C137.4,42.7,137.3,42.4,137.1,42.1z
		 M132.9,47.5l0.7-0.9c0.4,0.2,0.8,0.4,1.1,0.5c0.3,0.1,0.7,0.1,1.1,0.1c0.4,0,0.8-0.1,1.1-0.2c0.3-0.1,0.7-0.3,1.1-0.6
		c0.2-0.1,0.4-0.2,0.5-0.2c0.1,0,0.2,0,0.4,0.1c0.2,0.1,0.2,0.3,0.2,0.4c0,0.1-0.1,0.3-0.3,0.6l-2.3,3L132.9,47.5L132.9,47.5z
		 M141.8,30.9c0.3,0.3,0.5,0.6,0.6,1c0.1,0.4-0.1,0.8-0.3,1.2c-0.3,0.3-0.6,0.5-1.1,0.6c-0.4,0.1-0.8-0.1-1.2-0.3
		c-0.3-0.3-0.5-0.6-0.6-1c-0.1-0.4,0.1-0.8,0.3-1.2c0.3-0.3,0.6-0.5,1-0.6C141,30.5,141.4,30.6,141.8,30.9z M145,33.4
		c0.3,0.3,0.5,0.6,0.6,1c0.1,0.4-0.1,0.8-0.3,1.2c-0.3,0.3-0.6,0.5-1.1,0.6c-0.4,0.1-0.8-0.1-1.2-0.3c-0.3-0.3-0.5-0.6-0.6-1
		c-0.1-0.4,0.1-0.8,0.3-1.2c0.3-0.3,0.6-0.5,1-0.6C144.2,33,144.6,33.1,145,33.4L145,33.4z M152.2,46l-1,0.8
		c-0.4-0.3-0.7-0.4-1.1-0.4c-0.3,0-0.7,0.1-0.9,0.3c-0.3,0.2-0.5,0.5-0.5,0.8c-0.1,0.3-0.1,0.7,0,1.2c0.1,0.3,0.2,1.1,0.5,2.2
		c0.2,0.7,0.3,1.2,0.4,1.6c0,0.4,0,0.8,0,1.3c-0.2,1.2-0.7,2.2-1.6,2.9c-0.7,0.6-1.5,0.9-2.4,1.1c-0.9,0.1-1.7,0-2.6-0.3
		c-0.4-0.2-0.9-0.4-1.3-0.8c-0.4-0.3-0.8-0.6-1-1l0.9-0.8c0.5,0.4,0.9,0.6,1.3,0.6c0.4,0,0.7-0.1,1.1-0.4c0.4-0.3,0.6-0.7,0.6-1.3
		c0-0.4-0.1-1-0.3-1.8c-0.3-0.9-0.4-1.6-0.5-1.9c-0.1-0.4-0.1-0.7-0.1-1.1c-0.1-1.6,0.5-2.9,1.7-3.9c0.6-0.5,1.3-0.8,2.1-1
		c0.7-0.2,1.5-0.2,2.2,0C150.5,44.5,151.4,45.1,152.2,46L152.2,46z M151.8,47.5l0.9-0.7c0.2,0.3,0.4,0.7,0.6,1
		c0.1,0.3,0.3,0.7,0.5,1.3c0,0.1,0.1,0.3,0.2,0.3c0.1,0.1,0.2,0.2,0.3,0.1l0.4,0c0.2,0,0.3,0,0.4,0.2c0.1,0.1,0.2,0.3,0.1,0.5
		c-0.1,0.2-0.2,0.3-0.4,0.5l-2.7,2.2c-0.2,0.1-0.3,0.2-0.5,0.2c-0.2,0-0.3-0.1-0.4-0.2c-0.1-0.1-0.1-0.2-0.1-0.4
		c0-0.1,0-0.2,0.1-0.3c0-0.1,0.1-0.2,0.2-0.3c0.2-0.3,0.4-0.6,0.6-1c0.2-0.4,0.3-0.8,0.3-1.1C152.3,48.9,152.1,48.2,151.8,47.5
		L151.8,47.5z M141.1,54.3l-0.9,0.8c-0.4-0.5-0.6-1.1-0.8-1.8c-0.1-0.3-0.1-0.5-0.2-0.6c0-0.1-0.1-0.2-0.1-0.3
		c-0.1-0.1-0.2-0.2-0.3-0.2c-0.1,0-0.2,0-0.5,0c-0.2,0-0.4-0.1-0.4-0.2c-0.2-0.3-0.1-0.7,0.3-1l3-2.4c0.2-0.1,0.3-0.2,0.5-0.2
		c0.2,0,0.3,0.1,0.4,0.2c0.1,0.1,0.1,0.2,0.1,0.4c0,0.1-0.1,0.3-0.2,0.5c-0.4,0.5-0.7,1.1-0.9,1.6c-0.2,0.6-0.3,1.1-0.4,1.7
		C140.7,53.3,140.8,53.9,141.1,54.3L141.1,54.3z M147.9,66.4l-2.2-4.2l-0.1-0.2c-0.1-0.2-0.2-0.4-0.1-0.6c0-0.2,0.1-0.3,0.3-0.4
		c0.3-0.1,0.5-0.1,0.7,0.1c0.2,0.2,0.3,0.3,0.3,0.3c0,0,0.1,0,0.2,0.1c0.1,0,0.3,0,0.5-0.1l9.4-5c0.2-0.1,0.4-0.2,0.4-0.4
		c0-0.1,0.1-0.1,0.1-0.2c0,0,0-0.2-0.1-0.4c0-0.3,0.1-0.5,0.3-0.6c0.2-0.1,0.3-0.1,0.5,0c0.2,0.1,0.3,0.2,0.4,0.5l0.1,0.2l2.2,4.2
		l0.1,0.2c0.1,0.2,0.2,0.4,0.1,0.6c0,0.2-0.1,0.3-0.3,0.4c-0.3,0.1-0.5,0.1-0.7-0.1c-0.2-0.2-0.3-0.3-0.3-0.3c0,0-0.1,0-0.2-0.1
		c-0.1,0-0.3,0-0.5,0.1l-9.4,5c-0.2,0.1-0.4,0.2-0.4,0.4c0,0.1-0.1,0.1-0.1,0.2c0,0,0,0.2,0.1,0.4c0,0.3-0.1,0.5-0.3,0.6
		c-0.2,0.1-0.3,0.1-0.5,0c-0.2-0.1-0.3-0.2-0.4-0.5L147.9,66.4z"/>
	<path class="st4" d="M81.9,137l-6.6,14.7c-0.1,0.3-0.2,0.6-0.1,0.8c0,0.1,0.1,0.2,0.1,0.2c0,0,0.2,0.2,0.5,0.4
		c0.4,0.3,0.5,0.6,0.3,1c-0.1,0.2-0.3,0.3-0.6,0.4c-0.2,0-0.5,0-0.9-0.2l-0.4-0.2l-4.8-2.1l-0.4-0.2c-0.4-0.2-0.6-0.3-0.7-0.5
		c-0.2-0.2-0.2-0.5-0.1-0.7c0.2-0.4,0.5-0.5,0.9-0.4c0.4,0.1,0.6,0.1,0.6,0.1c0.1,0,0.1,0,0.2-0.1c0.2-0.1,0.4-0.3,0.5-0.6l5.2-11.7
		c0.2-0.4,0.3-0.8,0.3-1c0-0.2-0.1-0.4-0.3-0.5l-0.4-0.3c-0.4-0.2-0.5-0.5-0.3-0.9c0.1-0.3,0.3-0.4,0.7-0.5c0.2,0,0.4,0.1,0.8,0.2
		L81.9,137L81.9,137z M87.5,156.2l-0.3,1.3c-0.9-0.2-1.7-0.7-2.5-1.3c-0.7-0.6-1.1-1.2-1.4-1.9c-0.3-0.7-0.3-1.4-0.2-2
		c0.2-0.7,0.6-1.3,1.2-1.7c0.6-0.4,1.3-0.5,2-0.3c0.7,0.2,1.2,0.5,1.5,1.1c0.4,0.5,0.5,1.1,0.3,1.7c-0.1,0.4-0.3,0.7-0.6,1l-0.6,0.5
		c-0.2,0.1-0.3,0.3-0.3,0.4c-0.1,0.3,0,0.5,0.2,0.8C87.1,156,87.3,156.1,87.5,156.2L87.5,156.2z M88.2,157.8l0.3-1.3
		c0.3,0,0.5-0.1,0.7-0.1c0.2-0.1,0.3-0.2,0.5-0.3c0.3-0.3,0.5-0.7,0.6-1.1l3.1-12.3c0.1-0.4,0.2-0.7,0.2-0.9c0-0.2,0-0.3-0.1-0.5
		c-0.1-0.2-0.3-0.4-0.7-0.6l0.3-1.3c0.8,0.3,1.6,0.8,2.2,1.4c0.6,0.6,1.2,1.3,1.6,2.2c0.5,0.9,0.7,2.1,0.8,3.4
		c0.1,1.3-0.1,2.7-0.5,4.1c-0.8,3.1-2.2,5.2-4.4,6.6c-0.8,0.5-1.6,0.8-2.4,0.9C89.6,158,88.9,158,88.2,157.8L88.2,157.8z M91,147.8
		l-0.4,1.5c-1.1,0.3-2.1,0.3-3,0.1c-0.5-0.1-1.1-0.4-1.6-0.7c-0.5-0.4-0.9-0.8-1.2-1.2c-0.4-0.5-0.6-1.1-0.7-1.8
		c-0.1-0.7-0.1-1.4,0.1-2c0.2-1,0.7-1.9,1.4-2.7c0.7-0.8,1.5-1.4,2.4-1.7c1.3-0.5,2.7-0.5,4.2-0.2l-0.3,1.3c-0.4,0-0.7,0.1-0.9,0.2
		c-0.2,0.2-0.4,0.4-0.4,0.8l-1.3,5.1c-0.1,0.4-0.1,0.7,0,1c0.1,0.3,0.3,0.4,0.6,0.5C90.1,148,90.5,148,91,147.8z M128.6,153.3
		l-0.5-1.3c0.2-0.2,0.4-0.3,0.4-0.4c0.1-0.1,0.1-0.2,0.2-0.4c0.1-0.4,0.1-0.9-0.2-1.5l-4.5-11.6c-0.2-0.6-0.5-1-0.9-1.2
		c-0.1-0.1-0.2-0.1-0.4-0.1c-0.1,0-0.3,0-0.6,0l-0.5-1.3c0.9-0.2,1.8-0.3,2.7-0.2c0.8,0.1,1.7,0.5,2.6,1c1,0.6,1.8,1.3,2.6,2.3
		c0.8,1,1.4,2.1,1.9,3.4c0.5,1.3,0.8,2.6,0.9,3.8c0.1,1.2-0.1,2.4-0.4,3.5c-0.3,1-0.7,1.8-1.3,2.5
		C130.1,152.3,129.5,152.8,128.6,153.3L128.6,153.3z M127.6,153.7c-0.9,0.2-1.8,0.3-2.7,0.2c-0.8-0.1-1.7-0.5-2.6-1
		c-1-0.6-1.8-1.3-2.6-2.3c-0.8-1-1.4-2.1-1.9-3.4c-0.5-1.3-0.8-2.5-0.9-3.8c-0.1-1.2,0.1-2.4,0.4-3.5c0.3-1,0.7-1.8,1.3-2.5
		c0.5-0.7,1.2-1.2,2.1-1.7l0.5,1.3c-0.2,0.2-0.4,0.3-0.4,0.4c-0.1,0.1-0.1,0.2-0.2,0.4c-0.1,0.4-0.1,0.9,0.2,1.5l4.5,11.6
		c0.2,0.6,0.5,1,0.9,1.2c0.1,0.1,0.2,0.1,0.4,0.1c0.1,0,0.3,0,0.6,0L127.6,153.7L127.6,153.7z M107.8,157.3l0.2,1.4
		c-1,0.1-1.9,0-2.7-0.2c-0.9-0.2-1.6-0.6-2.1-1.1c-0.6-0.5-0.9-1.2-1-1.9c-0.1-0.8,0-1.4,0.4-2c0.4-0.6,1-1,1.7-1.1
		c0.8-0.1,1.5,0.1,2.1,0.6c0.4,0.4,0.7,0.8,0.8,1.4c0.1,0.4,0,0.7-0.1,1.1c-0.1,0.4-0.3,0.7-0.6,1c-0.3,0.3-0.4,0.4-0.4,0.6
		c0,0.1,0.2,0.2,0.5,0.3C107.1,157.4,107.4,157.3,107.8,157.3z M104.8,139.9l0.2,1.4c-0.3,0.1-0.6,0.3-0.7,0.4
		c-0.1,0.1-0.2,0.2-0.2,0.3c-0.1,0.1-0.1,0.2-0.1,0.2c0,0.1,0.2,0.3,0.4,0.4l0.7,0.4c0.3,0.2,0.6,0.6,0.7,1.2c0.1,0.7,0,1.3-0.4,1.8
		c-0.4,0.5-0.9,0.9-1.6,1c-0.7,0.1-1.3,0-1.8-0.4c-0.5-0.4-0.9-1-1-1.7c-0.1-0.6,0-1.2,0.2-1.8c0.2-0.6,0.6-1.2,1.1-1.6
		C102.8,140.8,103.7,140.3,104.8,139.9z M110.5,148.3c0.8,0.1,1.4,0.2,1.9,0.3c0.4,0.1,0.8,0.3,1.1,0.5c0.5,0.3,0.9,0.7,1.2,1.2
		c0.3,0.5,0.6,1.1,0.7,1.7c0.2,1.4,0,2.6-0.8,3.7c-0.5,0.7-1.1,1.2-1.9,1.7c-0.8,0.4-1.7,0.7-2.7,0.9l-0.6,0.1l-0.2-1.4
		c0.5-0.2,0.8-0.5,1-0.8c0.1-0.2,0.2-0.4,0.2-0.6c0-0.2,0-0.4,0-0.8l-0.7-3.9c-0.1-0.4-0.1-0.6-0.2-0.8c-0.1-0.2-0.2-0.3-0.3-0.5
		c-0.3-0.3-0.7-0.4-1.3-0.3c-0.4,0-0.6,0-0.7,0c-0.2-0.1-0.4-0.3-0.4-0.5c0-0.3,0-0.4,0.1-0.6c0.1-0.1,0.4-0.2,0.8-0.3
		c1-0.3,1.4-0.9,1.2-1.8l-0.1-0.5l-0.5-3.1c-0.1-0.6-0.3-1-0.5-1.2c-0.3-0.2-0.7-0.4-1.2-0.4l-0.3-1.4l0.4-0.1
		c0.9-0.2,1.7-0.2,2.6-0.1c0.8,0.1,1.6,0.3,2.2,0.7c0.6,0.3,1.1,0.8,1.5,1.3c0.4,0.5,0.6,1.1,0.8,1.8c0.2,1.2,0,2.3-0.6,3.2
		c-0.3,0.4-0.6,0.7-0.9,1C111.6,147.7,111.1,148,110.5,148.3L110.5,148.3z"/>
</g>
</svg>
