<?xml version="1.0" encoding="utf-8"?>
<!-- Generator: Adobe Illustrator 21.1.0, SVG Export Plug-In . SVG Version: 6.00 Build 0)  -->
<svg version="1.1" id="Layer_1" xmlns="http://www.w3.org/2000/svg" xmlns:xlink="http://www.w3.org/1999/xlink" x="0px" y="0px"
	 viewBox="0 0 200 200" style="enable-background:new 0 0 200 200;" xml:space="preserve">
<style type="text/css">
	.st0{fill:#FFFFFF;}
	.st1{fill:#00A352;}
	.st2{fill:#EB1B23;}
</style>
<g>
	<path d="M178.8,115.1c-0.8-7.9-2.7-15.3-6.4-25.5c-6.1-17.1-7.1-20.2-8.2-25.7c-2.4-12.7-0.2-23.9,7-36.6c1.2-2.1,2.2-4.1,2.2-4.3
		c0-0.2-3.9-5.2-8.6-10.9c-4.7-5.8-8.9-11.2-9.1-11.6c-0.4-0.7-1.4-0.3-56.1-0.3c-46,0-55.7,0.1-55.9,0.5c-0.1,0.3-4.1,5.3-8.8,11.1
		c-4.8,5.8-8.7,10.8-8.8,11c-0.1,0.3,0.5,1.6,1.3,3c4,6.7,7,14.1,8.1,19.8c2,10.3,0.7,18.9-5,34.8c-8,22.3-9.3,27.5-9.6,38.5
		c-0.1,4.2,0,6.6,0.2,6.9c0.2,0.2,0.4,0.8,0.4,1.3c0,1.7,1.9,7.9,3.3,11c3.5,7.5,9.8,14.7,18.1,20.9c4.3,3.2,7.7,5.2,19.2,11.6
		C81.6,181.3,90,187.6,97.3,197l0,0c1.3,1.6,2.4,3,2.6,3s0.9-0.9,1.8-2c4-5.3,9.3-10.4,15.4-15c4.8-3.6,8.7-6,20.1-12.3
		c11.5-6.4,15.2-8.7,20.2-12.4c4.4-3.2,10-8.8,12.8-12.6c3.6-4.9,7-12.5,7.7-17.5c0.1-1,0.4-2,0.5-2.2
		C178.9,125.5,179.2,118.4,178.8,115.1z M170.4,137.4c-3.2,6.4-7.3,11.1-14.4,16.4l0,0c0,0,0,0,0,0c-0.2,0.1-0.4,0.3-0.5,0.4
		c0,0,0,0,0,0c-0.4,0.3-0.7,0.5-1.1,0.8c0,0,0,0,0,0c-0.2,0.1-0.3,0.2-0.5,0.4c0,0,0,0-0.1,0c-0.4,0.3-0.7,0.5-1.1,0.8
		c0,0-0.1,0.1-0.1,0.1c-0.1,0.1-0.3,0.2-0.4,0.3c-0.1,0-0.1,0.1-0.2,0.1c-0.2,0.1-0.4,0.2-0.6,0.4c-0.1,0.1-0.2,0.1-0.3,0.2
		c-0.1,0-0.1,0.1-0.2,0.1c-0.1,0-0.1,0.1-0.2,0.1c0,0-0.1,0.1-0.1,0.1c-0.1,0-0.1,0.1-0.2,0.1c0,0-0.1,0.1-0.1,0.1
		c-0.1,0-0.1,0.1-0.2,0.1c0,0-0.1,0.1-0.1,0.1c-0.1,0.1-0.2,0.1-0.2,0.2c0,0-0.1,0-0.1,0.1c-0.1,0.1-0.2,0.1-0.2,0.2
		c0,0-0.1,0.1-0.1,0.1c-0.1,0.1-0.2,0.1-0.3,0.2c0,0,0,0,0,0c-0.1,0.1-0.2,0.1-0.3,0.2c0,0-0.1,0-0.1,0.1c-0.1,0.1-0.2,0.1-0.2,0.2
		c0,0-0.1,0.1-0.1,0.1c-0.1,0-0.1,0.1-0.2,0.1c-0.1,0-0.1,0.1-0.2,0.1c0,0-0.1,0.1-0.1,0.1c-0.1,0-0.1,0.1-0.2,0.1
		c-0.1,0-0.1,0.1-0.2,0.1c-0.1,0-0.1,0.1-0.2,0.1c0,0-0.1,0.1-0.1,0.1c-0.1,0-0.1,0.1-0.2,0.1c0,0-0.1,0-0.1,0.1
		c-0.1,0-0.1,0.1-0.2,0.1c0,0-0.1,0.1-0.1,0.1c-0.1,0.1-0.2,0.2-0.4,0.2c0,0,0,0-0.1,0c-0.1,0-0.1,0.1-0.2,0.1c0,0,0,0-0.1,0
		c-0.1,0-0.1,0.1-0.2,0.1c0,0-0.1,0-0.1,0.1c-0.1,0-0.1,0.1-0.2,0.1c0,0,0,0-0.1,0c-0.1,0-0.1,0.1-0.2,0.1c0,0,0,0-0.1,0
		c-0.1,0-0.1,0.1-0.2,0.1c0,0,0,0,0,0c-0.4,0.2-0.7,0.5-1,0.7c0,0,0,0,0,0c-0.1,0-0.1,0.1-0.2,0.1c0,0,0,0,0,0c0,0-0.1,0.1-0.1,0.1
		c0,0,0,0,0,0c0,0-0.1,0.1-0.1,0.1c0,0,0,0,0,0c0,0-0.1,0.1-0.1,0.1l0,0c-0.2,0.1-0.3,0.2-0.4,0.3c-1.9,1.3-9.3,5.4-14,7.6
		c-7.6,3.6-16.6,10.2-23.9,17.3h0c-2.8,2.7-5.2,5-5.3,5s-1.2-1-2.3-2.3c-2.8-3.1-7.8-7.6-12-10.7c-4.6-3.5-10.5-7.1-21-12.9
		c-14.5-8-20.3-11.9-26-17.6c-9.1-9-12.8-17.9-12.8-30.4c0-8.3,1.6-15.5,5.9-27.4c8.1-22.3,9.3-26.9,9.3-36.7
		c0-9.7-1.5-15.6-6.5-25.7c-1.4-2.9-2.6-5.4-2.6-5.6c0-0.2,0.8-1.4,1.8-2.6c0.1-0.1,0.1-0.1,0.2-0.2c0,0,0,0,0.1-0.1
		c0,0,0.1-0.1,0.1-0.1c0,0,0-0.1,0.1-0.1c0,0,0.1-0.1,0.1-0.1c0,0,0-0.1,0.1-0.1c0,0,0.1-0.1,0.1-0.1c0,0,0.1-0.1,0.1-0.1
		c0,0,0.1-0.1,0.1-0.1c0,0,0.1-0.1,0.1-0.1c0,0,0.1-0.1,0.1-0.1c0,0,0.1-0.1,0.1-0.1c0,0,0.1-0.1,0.1-0.1c0,0,0-0.1,0.1-0.1
		c0-0.1,0.1-0.1,0.1-0.2c0-0.1,0.1-0.1,0.1-0.2c0,0,0-0.1,0.1-0.1c0,0,0.1-0.1,0.1-0.1c0,0,0-0.1,0.1-0.1c0,0,0.1-0.1,0.1-0.1
		c0,0,0,0,0-0.1c0,0,0.1-0.1,0.1-0.1c0,0,0,0,0-0.1c0,0,0.1-0.1,0.1-0.1c0,0,0,0,0-0.1c0,0,0-0.1,0.1-0.1c0,0,0,0,0,0
		c0,0,0-0.1,0.1-0.1l0,0c0.1-0.1,0.1-0.2,0.1-0.3c0.3-0.6,2.7-3.7,5.4-6.8l4.8-5.7l9.3-0.1c0.2,0,0.3,0,0.5,0c0,0,0,0,0,0
		c0.2,0,0.3,0,0.5,0c0,0,0,0,0,0c0.2,0,0.3,0,0.5,0c0,0,0,0,0.1,0c0.2,0,0.3,0,0.5,0c0,0,0,0,0.1,0c0.2,0,0.3,0,0.5,0c0,0,0,0,0,0
		c0.2,0,0.3,0,0.5,0c0,0,0,0,0.1,0c0.4,0,0.7,0,1.1,0c0,0,0,0,0,0c0.2,0,0.4,0,0.6,0c0,0,0.1,0,0.1,0c0.2,0,0.4,0,0.5,0
		c0,0,0.1,0,0.1,0c0.2,0,0.4,0,0.6,0c0,0,0,0,0,0c0.4,0,0.9,0,1.3,0c0,0,0,0,0,0c27.7-0.3,89.4-0.3,90-0.1
		c0.6,0.2,14.6,16.7,15.5,18.3c0.2,0.4-0.1,1.3-1,3c-6.4,11.8-9,22.6-8,33.1c0.7,7.8,2.3,13.3,9.4,32.9
		C176.1,111.8,176.5,125.3,170.4,137.4z"/>
	<path class="st0" d="M143.6,162.2C143.6,162.2,143.5,162.2,143.6,162.2C143.5,162.2,143.6,162.2,143.6,162.2z"/>
	<path class="st0" d="M143.4,162.3C143.4,162.3,143.4,162.3,143.4,162.3C143.4,162.3,143.4,162.3,143.4,162.3z"/>
	<path class="st0" d="M151.4,157c-0.1,0.1-0.2,0.1-0.3,0.2C151.2,157.1,151.3,157.1,151.4,157z"/>
	<path class="st0" d="M35.4,18.3C35.4,18.3,35.4,18.3,35.4,18.3C35.4,18.3,35.4,18.3,35.4,18.3z"/>
	<path class="st0" d="M143.9,162C143.9,162,143.9,162,143.9,162C143.9,162,143.9,162,143.9,162z"/>
	<path class="st0" d="M150.6,157.5c-0.1,0-0.1,0.1-0.2,0.1C150.5,157.6,150.5,157.6,150.6,157.5z"/>
	<path class="st0" d="M33.8,20.4c0,0,0.1-0.1,0.1-0.1C33.9,20.3,33.8,20.4,33.8,20.4z"/>
	<path class="st0" d="M143.7,162.1C143.7,162.1,143.7,162.1,143.7,162.1C143.7,162.1,143.7,162.1,143.7,162.1z"/>
	<path class="st0" d="M150.9,157.3c-0.1,0-0.1,0.1-0.2,0.1C150.8,157.4,150.9,157.4,150.9,157.3z"/>
	<path class="st0" d="M34.8,19c0-0.1,0.1-0.1,0.1-0.2C34.9,18.9,34.9,19,34.8,19z"/>
	<path class="st0" d="M35.1,18.7C35.1,18.7,35.1,18.7,35.1,18.7C35.1,18.7,35.1,18.7,35.1,18.7z"/>
	<path class="st0" d="M34.7,19.3c0,0,0.1-0.1,0.1-0.1C34.7,19.2,34.7,19.2,34.7,19.3z"/>
	<path class="st0" d="M34,20.2c0,0,0.1-0.1,0.1-0.1C34.1,20.1,34,20.1,34,20.2z"/>
	<path class="st0" d="M35.2,18.5C35.2,18.5,35.3,18.5,35.2,18.5C35.3,18.5,35.2,18.5,35.2,18.5z"/>
	<path class="st0" d="M34.5,19.5c0,0,0.1-0.1,0.1-0.1C34.6,19.4,34.5,19.4,34.5,19.5z"/>
	<path class="st0" d="M34.2,19.9c0,0,0.1-0.1,0.1-0.1C34.2,19.9,34.2,19.9,34.2,19.9z"/>
	<path class="st0" d="M34.3,19.7c0,0,0.1-0.1,0.1-0.1C34.4,19.6,34.4,19.7,34.3,19.7z"/>
	<path class="st0" d="M33.6,20.7c0.1-0.1,0.1-0.1,0.2-0.2C33.7,20.6,33.6,20.6,33.6,20.7z"/>
	<path class="st0" d="M146.6,160.2c0,0-0.1,0.1-0.1,0.1C146.5,160.3,146.5,160.2,146.6,160.2z"/>
	<path class="st0" d="M149.2,158.4c-0.1,0.1-0.2,0.1-0.3,0.2C149,158.6,149.1,158.5,149.2,158.4z"/>
	<path class="st0" d="M147.5,159.6c-0.1,0-0.1,0.1-0.2,0.1C147.4,159.7,147.4,159.6,147.5,159.6z"/>
	<path class="st0" d="M146.9,160c0,0-0.1,0-0.1,0.1C146.8,160.1,146.8,160,146.9,160z"/>
	<path class="st0" d="M147.2,159.8c0,0-0.1,0.1-0.1,0.1C147.1,159.9,147.1,159.8,147.2,159.8z"/>
	<path class="st0" d="M148.1,159.2c-0.1,0-0.1,0.1-0.2,0.1C148,159.3,148.1,159.2,148.1,159.2z"/>
	<path class="st0" d="M147.8,159.4c0,0-0.1,0.1-0.1,0.1C147.7,159.5,147.7,159.4,147.8,159.4z"/>
	<path class="st0" d="M148.9,158.6c-0.1,0.1-0.2,0.1-0.3,0.2C148.7,158.8,148.8,158.7,148.9,158.6z"/>
	<path class="st0" d="M144.8,161.4C144.8,161.4,144.8,161.4,144.8,161.4C144.8,161.4,144.8,161.4,144.8,161.4z"/>
	<path class="st0" d="M145.3,161C145.3,161.1,145.3,161.1,145.3,161C145.3,161.1,145.3,161.1,145.3,161z"/>
	<path class="st0" d="M150.3,157.8c-0.1,0-0.1,0.1-0.2,0.1C150.1,157.8,150.2,157.8,150.3,157.8z"/>
	<path class="st0" d="M145.1,161.2C145.1,161.2,145.1,161.2,145.1,161.2C145.1,161.2,145.1,161.2,145.1,161.2z"/>
	<path class="st0" d="M145.6,160.9C145.6,160.9,145.5,160.9,145.6,160.9C145.5,160.9,145.6,160.9,145.6,160.9z"/>
	<path class="st0" d="M146.1,160.5C146.1,160.5,146.1,160.6,146.1,160.5C146.1,160.6,146.1,160.5,146.1,160.5z"/>
	<path class="st0" d="M149.6,158.2c-0.1,0.1-0.2,0.1-0.2,0.2C149.4,158.3,149.5,158.3,149.6,158.2z"/>
	<path class="st0" d="M145.8,160.7C145.8,160.7,145.8,160.7,145.8,160.7C145.8,160.7,145.8,160.7,145.8,160.7z"/>
	<path class="st0" d="M149.9,158c-0.1,0.1-0.2,0.1-0.2,0.2C149.8,158.1,149.8,158,149.9,158z"/>
	<path class="st0" d="M60.3,4.6c0.2,0,0.4,0,0.5,0C60.7,4.6,60.5,4.6,60.3,4.6z"/>
	<path class="st0" d="M58.6,4.7c0.4,0,0.7,0,1.1,0C59.3,4.7,58.9,4.7,58.6,4.7z"/>
	<path class="st0" d="M58,4.7c0.2,0,0.3,0,0.5,0C58.3,4.7,58.1,4.7,58,4.7z"/>
	<path class="st0" d="M154.4,155c-0.2,0.1-0.3,0.2-0.5,0.4C154,155.2,154.2,155.1,154.4,155z"/>
	<path class="st0" d="M153.8,155.4c-0.4,0.3-0.7,0.5-1.1,0.8C153.1,155.9,153.4,155.6,153.8,155.4z"/>
	<path class="st0" d="M152.6,156.2c-0.1,0.1-0.3,0.2-0.4,0.3C152.3,156.4,152.4,156.3,152.6,156.2z"/>
	<path class="st0" d="M59.7,4.6c0.2,0,0.4,0,0.6,0C60.1,4.6,59.9,4.6,59.7,4.6z"/>
	<path class="st0" d="M56.9,4.7c0.2,0,0.3,0,0.5,0C57.2,4.7,57.1,4.7,56.9,4.7z"/>
	<path class="st0" d="M57.4,4.7c0.2,0,0.3,0,0.5,0C57.8,4.7,57.6,4.7,57.4,4.7z"/>
	<path class="st0" d="M148.5,158.9c-0.1,0.1-0.2,0.1-0.2,0.2C148.3,159,148.4,159,148.5,158.9z"/>
	<path class="st0" d="M47.4,4.8l8-0.1l-9.3,0.1l-4.8,5.7c-2.6,3.1-5,6.2-5.4,6.8c0,0.1-0.1,0.2-0.1,0.3
		c1.5,2.7,89.5,146.5,92.6,151.2l0.9,1.3c-0.1,0.1-0.2,0.1-0.3,0.2c4.7-2.2,12.1-6.3,14-7.6c0.1-0.1,0.2-0.2,0.4-0.3
		c-0.9-2.3-13.5-23-47.6-78.7C70.2,42.4,49,7.6,47.4,4.8z"/>
	<path class="st0" d="M159.4,59c-1-10.6,1.6-21.4,8-33.1c0.9-1.7,1.2-2.6,1-3c-0.9-1.6-14.9-18.1-15.5-18.3
		c-0.6-0.2-62.2-0.1-90,0.1c0.7,0,1.4,0,2.1,0C64.6,4.8,64.6,5,65,5.7c1.3,2.6,88.6,144.4,91,148.1c7.1-5.2,11.2-10,14.4-16.4
		c6.1-12.2,5.6-25.7-1.6-45.6C161.8,72.3,160.2,66.8,159.4,59z M155.1,42.5c-2.7,7.2-9.6,13.4-16.9,15.1c-3,0.7-9.5,0.7-12.2,0l0,0
		c-8.8-2.4-15.8-9.5-17.7-18.2c-0.8-3.7-0.6-9.7,0.5-13.2c2.3-7.2,8.5-13.3,15.7-15.7c3.3-1.1,10.1-1.4,13.4-0.5
		C152.3,13.5,160.3,28.7,155.1,42.5z"/>
	<path class="st0" d="M156,153.8c-0.2,0.1-0.4,0.3-0.5,0.4C155.7,154,155.9,153.9,156,153.8z"/>
	<path class="st0" d="M61,4.6c0.2,0,0.4,0,0.6,0C61.3,4.6,61.2,4.6,61,4.6z"/>
	<path class="st0" d="M155.5,154.2c-0.4,0.3-0.7,0.5-1.1,0.8C154.8,154.7,155.1,154.4,155.5,154.2z"/>
	<path class="st0" d="M61.6,4.6c0.4,0,0.9,0,1.3,0C62.4,4.6,62,4.6,61.6,4.6z"/>
	<path class="st0" d="M56.4,4.7c0.2,0,0.3,0,0.5,0C56.7,4.7,56.5,4.7,56.4,4.7z"/>
	<path class="st0" d="M55.9,4.7c0.2,0,0.3,0,0.5,0C56.2,4.7,56,4.7,55.9,4.7z"/>
	<path class="st0" d="M55.4,4.7c0.2,0,0.3,0,0.5,0C55.7,4.7,55.5,4.7,55.4,4.7z"/>
	<path class="st0" d="M35.7,17.8C35.7,17.8,35.7,17.8,35.7,17.8C35.7,17.8,35.7,17.8,35.7,17.8z"/>
	<path class="st0" d="M35.6,18C35.6,17.9,35.6,17.9,35.6,18C35.6,17.9,35.6,17.9,35.6,18z"/>
	<path class="st0" d="M152,156.6c-0.2,0.1-0.4,0.2-0.6,0.4C151.6,156.9,151.8,156.7,152,156.6z"/>
	<path class="st0" d="M35.5,18.1C35.5,18.1,35.5,18.1,35.5,18.1C35.5,18.1,35.5,18.1,35.5,18.1z"/>
	<path d="M137.9,9.9c-3.3-0.8-10.1-0.6-13.4,0.5c-7.2,2.4-13.4,8.5-15.7,15.7c-1.1,3.4-1.3,9.5-0.5,13.2c1.9,8.7,8.9,15.9,17.7,18.2
		l0,0c2.7,0.7,9.2,0.7,12.2,0c7.3-1.7,14.2-7.9,16.9-15.1C160.3,28.7,152.3,13.5,137.9,9.9z M151,43.8c-2.7,5.2-8.3,9.5-13.9,10.8
		c-2.5,0.6-6.6,0.7-9.1,0.2c-4.7-0.9-9.8-4.1-12.7-7.9c-5.2-6.8-6-14.9-2.4-22.5c1.6-3.4,6.3-8.1,9.7-9.7c8.5-4.1,18-2.5,24.5,4
		C153.9,25.4,155.4,35.3,151,43.8z"/>
	<path class="st0" d="M122.6,14.7c-3.4,1.6-8,6.3-9.7,9.7c-3.6,7.7-2.8,15.7,2.4,22.5c2.8,3.8,7.9,6.9,12.7,7.9
		c2.5,0.5,6.5,0.4,9.1-0.2c5.6-1.3,11.2-5.7,13.9-10.8c4.4-8.5,2.9-18.4-3.8-25.1C140.6,12.2,131.2,10.6,122.6,14.7z M132.8,48.1
		h-9.5l0-14.5V19.1h2.6h2.6l0.1,12l0.1,12l6.7,0.2l6.7,0.2l0.1,2.3l0.1,2.3H132.8z"/>
	<polygon points="142.1,43.5 135.4,43.3 128.7,43.1 128.6,31.1 128.5,19.1 125.9,19.1 123.3,19.1 123.3,33.6 123.3,48.1 132.8,48.1 
		142.3,48.1 142.2,45.8 	"/>
	<path class="st1" d="M35.6,17.9c0,0,0-0.1,0.1-0.1C35.7,17.8,35.7,17.9,35.6,17.9z"/>
	<path class="st1" d="M35,18.9c0-0.1,0.1-0.1,0.1-0.2C35,18.8,35,18.8,35,18.9z"/>
	<path class="st1" d="M34.6,19.4C34.6,19.3,34.7,19.3,34.6,19.4C34.7,19.3,34.6,19.3,34.6,19.4z"/>
	<path class="st1" d="M33.7,20.5C33.8,20.5,33.8,20.4,33.7,20.5C33.8,20.4,33.8,20.5,33.7,20.5z"/>
	<path class="st1" d="M35.4,18.3c0,0,0.1-0.1,0.1-0.1C35.5,18.2,35.4,18.2,35.4,18.3z"/>
	<path class="st1" d="M35.1,18.6c0,0,0.1-0.1,0.1-0.1C35.2,18.6,35.2,18.6,35.1,18.6z"/>
	<path class="st1" d="M34.8,19.1C34.8,19.1,34.8,19.1,34.8,19.1C34.8,19.1,34.8,19.1,34.8,19.1z"/>
	<path class="st1" d="M33.9,20.3C33.9,20.2,34,20.2,33.9,20.3C34,20.2,33.9,20.2,33.9,20.3z"/>
	<path class="st1" d="M35.8,17.7c0,0,0,0.1-0.1,0.1C35.8,17.7,35.8,17.7,35.8,17.7L35.8,17.7z"/>
	<path class="st1" d="M35.5,18.1c0,0,0.1-0.1,0.1-0.1C35.6,18,35.6,18,35.5,18.1z"/>
	<path class="st1" d="M34.3,19.8c0,0,0.1-0.1,0.1-0.1C34.3,19.7,34.3,19.8,34.3,19.8z"/>
	<path class="st1" d="M35.3,18.4c0,0,0.1-0.1,0.1-0.1C35.3,18.4,35.3,18.4,35.3,18.4z"/>
	<path class="st1" d="M34.4,19.6c0,0,0.1-0.1,0.1-0.1C34.5,19.5,34.5,19.6,34.4,19.6z"/>
	<path class="st1" d="M34.1,20C34.1,20,34.1,20,34.1,20C34.1,20,34.1,20,34.1,20z"/>
	<path class="st1" d="M128.4,168.8c-3.1-4.7-91.1-148.5-92.6-151.2c0,0,0,0.1-0.1,0.1c0,0,0,0,0,0c0,0,0,0.1-0.1,0.1c0,0,0,0,0,0.1
		c0,0,0,0.1-0.1,0.1c0,0,0,0,0,0.1c0,0-0.1,0.1-0.1,0.1c0,0,0,0,0,0.1c0,0-0.1,0.1-0.1,0.1c0,0,0,0.1-0.1,0.1c0,0-0.1,0.1-0.1,0.1
		c0,0,0,0.1-0.1,0.1c0,0-0.1,0.1-0.1,0.2c0,0.1-0.1,0.1-0.1,0.2c0,0,0,0.1-0.1,0.1c0,0-0.1,0.1-0.1,0.1c0,0,0,0.1-0.1,0.1
		c0,0-0.1,0.1-0.1,0.1c0,0-0.1,0.1-0.1,0.1c0,0-0.1,0.1-0.1,0.1c0,0-0.1,0.1-0.1,0.1c0,0-0.1,0.1-0.1,0.1c0,0,0,0.1-0.1,0.1
		c0,0-0.1,0.1-0.1,0.1c0,0,0,0.1-0.1,0.1c0,0-0.1,0.1-0.1,0.1c0,0,0,0-0.1,0.1c-0.1,0.1-0.1,0.1-0.2,0.2c-1,1.2-1.8,2.3-1.8,2.6
		c0,0.2,1.2,2.8,2.6,5.6c5,10.1,6.5,16.1,6.5,25.7c0,9.8-1.2,14.4-9.3,36.7c-4.3,11.9-5.9,19-5.9,27.4c0,12.4,3.7,21.4,12.8,30.4
		c5.7,5.6,11.5,9.5,26,17.6c10.5,5.8,16.4,9.4,21,12.9c4.2,3.2,9.2,7.7,12,10.7c1.1,1.3,2.2,2.3,2.3,2.3s2.5-2.2,5.3-5h0
		c7.2-7.1,16.3-13.6,23.9-17.3c0.1-0.1,0.2-0.1,0.3-0.2L128.4,168.8z"/>
	<path class="st2" d="M148.6,158.9C148.5,158.9,148.5,158.9,148.6,158.9C148.5,158.9,148.5,158.9,148.6,158.9z"/>
	<path class="st2" d="M149.4,158.4c0,0-0.1,0.1-0.1,0.1C149.3,158.4,149.3,158.4,149.4,158.4z"/>
	<polygon class="st2" points="156,153.8 156,153.8 156,153.8 	"/>
	<path class="st2" d="M148.9,158.6C148.9,158.6,148.9,158.6,148.9,158.6C148.9,158.6,148.9,158.6,148.9,158.6z"/>
	<path class="st2" d="M152.7,156.1c0,0-0.1,0.1-0.1,0.1C152.6,156.2,152.7,156.2,152.7,156.1z"/>
	<path class="st2" d="M150.7,157.4c0,0-0.1,0.1-0.1,0.1C150.7,157.5,150.7,157.5,150.7,157.4z"/>
	<path class="st2" d="M152.1,156.5c-0.1,0-0.1,0.1-0.2,0.1C152,156.6,152.1,156.5,152.1,156.5z"/>
	<path class="st2" d="M151.1,157.2c-0.1,0-0.1,0.1-0.2,0.1C151,157.3,151,157.2,151.1,157.2z"/>
	<path class="st2" d="M155.5,154.2C155.5,154.2,155.5,154.2,155.5,154.2C155.5,154.2,155.5,154.2,155.5,154.2z"/>
	<path class="st2" d="M153.9,155.3C153.8,155.3,153.8,155.4,153.9,155.3C153.8,155.4,153.8,155.3,153.9,155.3z"/>
	<path class="st2" d="M149.7,158.1C149.7,158.2,149.6,158.2,149.7,158.1C149.6,158.2,149.7,158.2,149.7,158.1z"/>
	<path class="st2" d="M154.4,154.9C154.4,155,154.4,155,154.4,154.9C154.4,155,154.4,155,154.4,154.9z"/>
	<path class="st2" d="M150,157.9c0,0-0.1,0.1-0.1,0.1C150,157.9,150,157.9,150,157.9z"/>
	<path class="st2" d="M150.4,157.7c0,0-0.1,0.1-0.1,0.1C150.3,157.7,150.4,157.7,150.4,157.7z"/>
	<path class="st2" d="M148.3,159.1c0,0-0.1,0.1-0.1,0.1C148.2,159.1,148.2,159.1,148.3,159.1z"/>
	<path class="st2" d="M56.9,4.7C56.9,4.7,56.9,4.7,56.9,4.7C56.9,4.7,56.9,4.7,56.9,4.7z"/>
	<path class="st2" d="M56.3,4.7C56.4,4.7,56.4,4.7,56.3,4.7C56.4,4.7,56.4,4.7,56.3,4.7z"/>
	<path class="st2" d="M58,4.7C58,4.7,58,4.7,58,4.7C58,4.7,58,4.7,58,4.7z"/>
	<path class="st2" d="M57.4,4.7C57.4,4.7,57.4,4.7,57.4,4.7C57.4,4.7,57.4,4.7,57.4,4.7z"/>
	<path class="st2" d="M55.9,4.7C55.9,4.7,55.9,4.7,55.9,4.7C55.9,4.7,55.9,4.7,55.9,4.7z"/>
	<path class="st2" d="M143.3,162.4c0,0,0.1-0.1,0.1-0.1C143.4,162.4,143.3,162.4,143.3,162.4L143.3,162.4z"/>
	<path class="st2" d="M60.3,4.6C60.3,4.6,60.3,4.6,60.3,4.6C60.3,4.6,60.3,4.6,60.3,4.6z"/>
	<path class="st2" d="M61.5,4.6C61.6,4.6,61.6,4.6,61.5,4.6C61.6,4.6,61.6,4.6,61.5,4.6z"/>
	<path class="st2" d="M147.9,159.3c-0.1,0-0.1,0.1-0.2,0.1C147.8,159.4,147.9,159.3,147.9,159.3z"/>
	<path class="st2" d="M58.5,4.7C58.5,4.7,58.5,4.7,58.5,4.7C58.5,4.7,58.5,4.7,58.5,4.7z"/>
	<path class="st2" d="M62.9,4.6C62.9,4.6,62.9,4.6,62.9,4.6C62.9,4.6,62.9,4.6,62.9,4.6z"/>
	<path class="st2" d="M59.7,4.6C59.7,4.6,59.7,4.6,59.7,4.6C59.7,4.6,59.7,4.6,59.7,4.6z"/>
	<path class="st2" d="M143.5,162.2c0,0-0.1,0.1-0.1,0.1C143.5,162.3,143.5,162.3,143.5,162.2z"/>
	<path class="st2" d="M60.9,4.6c0,0,0.1,0,0.1,0C60.9,4.6,60.9,4.6,60.9,4.6z"/>
	<path class="st2" d="M146.8,160.1c-0.1,0-0.1,0.1-0.2,0.1C146.6,160.2,146.7,160.1,146.8,160.1z"/>
	<path class="st2" d="M147,159.9c-0.1,0-0.1,0.1-0.2,0.1C146.9,160,147,159.9,147,159.9z"/>
	<path class="st2" d="M146.4,160.3c-0.1,0.1-0.2,0.2-0.4,0.2C146.2,160.5,146.3,160.4,146.4,160.3z"/>
	<path class="st2" d="M146,160.6c-0.1,0-0.1,0.1-0.2,0.1C145.9,160.7,146,160.6,146,160.6z"/>
	<path class="st2" d="M147.6,159.5c-0.1,0-0.1,0.1-0.2,0.1C147.5,159.6,147.6,159.5,147.6,159.5z"/>
	<path class="st2" d="M147.3,159.7c-0.1,0-0.1,0.1-0.2,0.1C147.2,159.8,147.3,159.7,147.3,159.7z"/>
	<path class="st2" d="M145,161.2c-0.1,0-0.1,0.1-0.2,0.1C144.9,161.3,145,161.3,145,161.2z"/>
	<path class="st2" d="M144.8,161.4c-0.4,0.2-0.7,0.5-1,0.7C144.2,161.8,144.5,161.6,144.8,161.4z"/>
	<path class="st2" d="M143.9,162c-0.1,0-0.1,0.1-0.2,0.1C143.8,162.1,143.8,162.1,143.9,162z"/>
	<path class="st2" d="M143.7,162.1c0,0-0.1,0.1-0.1,0.1C143.6,162.2,143.7,162.2,143.7,162.1z"/>
	<path class="st2" d="M145.5,160.9c-0.1,0-0.1,0.1-0.2,0.1C145.4,161,145.4,161,145.5,160.9z"/>
	<path class="st2" d="M145.3,161.1c-0.1,0-0.1,0.1-0.2,0.1C145.1,161.2,145.2,161.1,145.3,161.1z"/>
	<path class="st2" d="M145.8,160.7c-0.1,0-0.1,0.1-0.2,0.1C145.7,160.8,145.7,160.8,145.8,160.7z"/>
	<path class="st2" d="M64.9,4.6c-0.7,0-1.4,0-2.1,0c0,0,0,0,0,0c-0.4,0-0.9,0-1.3,0c0,0,0,0,0,0c-0.2,0-0.4,0-0.6,0c0,0-0.1,0-0.1,0
		c-0.2,0-0.4,0-0.5,0c0,0-0.1,0-0.1,0c-0.2,0-0.4,0-0.6,0c0,0,0,0,0,0c-0.4,0-0.7,0-1.1,0c0,0,0,0-0.1,0c-0.2,0-0.4,0-0.5,0
		c0,0,0,0,0,0c-0.2,0-0.3,0-0.5,0c0,0,0,0-0.1,0c-0.2,0-0.3,0-0.5,0c0,0,0,0-0.1,0c-0.2,0-0.3,0-0.5,0c0,0,0,0,0,0
		c-0.2,0-0.3,0-0.5,0c0,0,0,0,0,0c-0.2,0-0.3,0-0.5,0l-8,0.1C49,7.6,70.2,42.4,95.6,83.8c34.1,55.6,46.7,76.4,47.6,78.7
		c0,0,0.1-0.1,0.1-0.1c0,0,0,0,0,0c0,0,0.1-0.1,0.1-0.1c0,0,0,0,0,0c0,0,0.1-0.1,0.1-0.1c0,0,0,0,0,0c0,0,0.1-0.1,0.2-0.1
		c0,0,0,0,0,0c0.3-0.2,0.6-0.4,1-0.7c0,0,0,0,0,0c0.1,0,0.1-0.1,0.2-0.1c0,0,0,0,0.1,0c0.1,0,0.1-0.1,0.2-0.1c0,0,0,0,0.1,0
		c0.1,0,0.1-0.1,0.2-0.1c0,0,0.1,0,0.1-0.1c0.1,0,0.1-0.1,0.2-0.1c0,0,0,0,0.1,0c0.1,0,0.1-0.1,0.2-0.1c0,0,0,0,0.1,0
		c0.1-0.1,0.2-0.2,0.4-0.2c0,0,0.1-0.1,0.1-0.1c0.1,0,0.1-0.1,0.2-0.1c0,0,0.1,0,0.1-0.1c0.1,0,0.1-0.1,0.2-0.1c0,0,0.1-0.1,0.1-0.1
		c0.1,0,0.1-0.1,0.2-0.1c0.1,0,0.1-0.1,0.2-0.1c0.1,0,0.1-0.1,0.2-0.1c0,0,0.1-0.1,0.1-0.1c0.1,0,0.1-0.1,0.2-0.1
		c0.1,0,0.1-0.1,0.2-0.1c0,0,0.1-0.1,0.1-0.1c0.1,0,0.2-0.1,0.2-0.2c0,0,0.1,0,0.1-0.1c0.1-0.1,0.2-0.1,0.3-0.2c0,0,0,0,0,0
		c0.1-0.1,0.2-0.1,0.3-0.2c0,0,0.1-0.1,0.1-0.1c0.1-0.1,0.2-0.1,0.2-0.2c0,0,0.1,0,0.1-0.1c0.1-0.1,0.2-0.1,0.2-0.2
		c0,0,0.1-0.1,0.1-0.1c0.1,0,0.1-0.1,0.2-0.1c0,0,0.1-0.1,0.1-0.1c0.1,0,0.1-0.1,0.2-0.1c0,0,0.1-0.1,0.1-0.1c0.1,0,0.1-0.1,0.2-0.1
		c0.1,0,0.1-0.1,0.2-0.1c0.1-0.1,0.2-0.1,0.3-0.2c0.2-0.1,0.4-0.2,0.6-0.4c0.1,0,0.1-0.1,0.2-0.1c0.1-0.1,0.3-0.2,0.4-0.3
		c0,0,0.1-0.1,0.1-0.1c0.4-0.3,0.7-0.5,1.1-0.8c0,0,0,0,0.1,0c0.2-0.1,0.3-0.2,0.5-0.4c0,0,0,0,0,0c0.4-0.3,0.7-0.5,1.1-0.8
		c0,0,0,0,0,0c0.2-0.1,0.4-0.3,0.5-0.4c0,0,0,0,0,0C153.6,150.2,66.4,8.3,65,5.7C64.6,5,64.6,4.8,64.9,4.6z"/>
</g>
</svg>
