<?xml version="1.0" encoding="utf-8"?>
<!-- Generator: Adobe Illustrator 21.1.0, SVG Export Plug-In . SVG Version: 6.00 Build 0)  -->
<svg version="1.1"
	 id="svg2" inkscape:version="0.48.2 r9819" sodipodi:docname="FP_04_PAOK_OSFP.pdf" xmlns:cc="http://creativecommons.org/ns#" xmlns:dc="http://purl.org/dc/elements/1.1/" xmlns:inkscape="http://www.inkscape.org/namespaces/inkscape" xmlns:rdf="http://www.w3.org/1999/02/22-rdf-syntax-ns#" xmlns:sodipodi="http://sodipodi.sourceforge.net/DTD/sodipodi-0.dtd" xmlns:svg="http://www.w3.org/2000/svg"
	 xmlns="http://www.w3.org/2000/svg" xmlns:xlink="http://www.w3.org/1999/xlink" x="0px" y="0px" viewBox="0 0 200 200"
	 style="enable-background:new 0 0 200 200;" xml:space="preserve">
<style type="text/css">
	.st0{fill:#0023FD;}
	.st1{fill:#FFFFFF;}
	.st2{fill:#59B455;}
</style>
<g>
	<path id="path1774" inkscape:connector-curvature="0" class="st0" d="M98.7,197.3c0,0-23.1-4.2-42.7-33.1
		C21.5,113.3,16.3,41.7,16.3,41.7s3.5-2.3,8.2-15.1c2.9-7.7,2.1-14.8,2.1-14.8s15.1,4.2,35.9,2.1C87.3,11.4,100,2.6,100,2.6
		s12.7,8.8,37.6,11.3c20.7,2.1,35.9-2.1,35.9-2.1s-0.7,7.1,2.1,14.8c4.7,12.9,8.2,15.1,8.2,15.1s-5.3,71.6-39.8,122.5
		c-19.5,28.9-42.7,33.1-42.7,33.1H98.7z"/>
	<path id="path1778" inkscape:connector-curvature="0" class="st1" d="M27.5,12.6c0,0,20.1,4.7,40.9,0.5c20.9-4.3,31.7-9.8,31.7-9.8
		s17.4,10.1,40.4,11.3c23,1.3,32.2-1.6,32.2-1.6s-0.5,6.1,3.9,15.9c4.5,9.8,6.3,13.7,6.3,13.7s0,5.3-1.3,15.1
		c-1.3,9.8-2.9,17.4-2.9,17.4L21.6,74.8c0,0-2.1-6.6-3.7-18.5c-1.5-11.9-1.8-13.5-1.8-13.5s3.9-4.5,7.7-14
		C27.5,19.4,27.5,12.6,27.5,12.6"/>
	<path id="path1780" inkscape:connector-curvature="0" class="st2" d="M18.5,44h164.6v-5.3H18.5V44L18.5,44z"/>
	<path id="path1784" inkscape:connector-curvature="0" class="st2" d="M154.2,145.3l-7.9,15.3l-13.8,17.1V74.4h21.7L154.2,145.3z"/>
	<path id="path1786" inkscape:connector-curvature="0" class="st2" d="M110.8,196.1H89V74.4h21.7V196.1z"/>
	<path id="path1790" inkscape:connector-curvature="0" class="st2" d="M67.4,177.1l-16.1-17.9l-5.6-12.9V74.4h21.7V177.1z"/>
	<path id="path1792" inkscape:connector-curvature="0" class="st2" d="M21.1,77.2h158.2v-5.3H21.1V77.2z"/>
	<path id="path1796" inkscape:connector-curvature="0" class="st2" d="M40.3,66h-2.5l-3.1-10.7c-0.3-0.8-0.4-1.5-0.5-2
		C34.1,53,34,52.6,33.9,52l0.8-0.1c-0.1,0.4-0.1,0.9-0.3,1.5c-0.1,0.2-0.2,0.7-0.4,1.5L31,66h-2.5l4.7-16.2h2.1L40.3,66z"/>
	<path id="path1800" inkscape:connector-curvature="0" class="st2" d="M53.1,66h-9.3V49.8h9.1v2.8h-6.7v3.6h6.3V59h-6.3v4.1h7V66z"
		/>
	<path id="path1804" inkscape:connector-curvature="0" class="st2" d="M66.6,61c0,0.5-0.1,0.9-0.1,1.2c-0.2,1.2-0.7,2.1-1.3,2.7
		c-0.7,0.7-1.9,1.1-3.3,1.1h-4.7V49.8h4.7c0.7,0,1.4,0.1,2,0.4c0.5,0.3,1,0.6,1.3,1.1s0.6,0.9,0.7,1.5c0.1,0.5,0.2,1,0.2,1.5
		c0,0.8-0.1,1.5-0.5,2.1c-0.2,0.4-0.4,0.7-0.7,1c0,0,0.1,0.1,0.3,0.2C66.1,58.4,66.6,59.5,66.6,61 M63.7,54.4c0-0.4-0.1-0.7-0.2-1.1
		c-0.1-0.3-0.3-0.5-0.6-0.6c-0.4-0.1-0.9-0.2-1.5-0.2h-1.9V56h2.1c0.7,0,1.1-0.1,1.3-0.1C63.4,55.8,63.7,55.2,63.7,54.4 M64.2,61
		c0-0.5-0.1-0.9-0.3-1.2c-0.2-0.3-0.5-0.5-0.7-0.7c-0.3-0.1-0.8-0.3-1.5-0.3h-2.3v4.2h2.4c0.3,0,0.5,0,0.5,0
		C63.6,63,64.2,62.3,64.2,61"/>
	<path id="path1808" inkscape:connector-curvature="0" class="st2" d="M81,66h-2.5l-1.3-4.6h-4.2L71.6,66h-2.5l4.7-16.2H76L81,66
		 M75,53.8c0,0.2-0.1,0.5-0.3,1.1l-1,3.7h2.7l-1-3.5c0-0.1-0.1-0.3-0.2-0.6C75.1,54.3,75,54,75,53.8"/>
	<path id="path1812" inkscape:connector-curvature="0" class="st2" d="M95.2,66L93,66L83.4,66l4.7-16.3h2.1L95.2,66 M91.8,63.2
		l-2.3-7.9c-0.3-0.9-0.5-1.6-0.5-2C89,53,88.9,52.6,88.8,52l0.8-0.1c-0.1,0.5-0.1,1-0.3,1.5c-0.1,0.4-0.2,0.9-0.4,1.5l-2.2,8.2H91.8
		z"/>
	<path id="path1816" inkscape:connector-curvature="0" class="st2" d="M107.9,66h-9.3V49.8h9.1v2.8h-6.7v3.6h6.3V59h-6.3v4.1h7V66z"
		/>
	<path id="path1818" inkscape:connector-curvature="0" class="st2" d="M114.2,66h-2.3V49.8h2.3V66z"/>
	<path id="path1822" inkscape:connector-curvature="0" class="st2" d="M129.5,66H127l-1.3-4.6h-4.2l-1.3,4.6h-2.5l4.7-16.2h2.1
		L129.5,66 M123.5,53.8c0,0.2-0.1,0.5-0.3,1.1l-1,3.7h2.7l-1-3.5c0-0.1-0.1-0.3-0.2-0.6C123.6,54.3,123.6,54,123.5,53.8"/>
	<path id="path1826" inkscape:connector-curvature="0" class="st2" d="M143.7,66h-3l-3.9-7.3l-1.4,1.8V66H133V49.8h2.3v6.7l5.1-6.7
		h3.1l-5.1,6.7L143.7,66z"/>
	<path id="path1830" inkscape:connector-curvature="0" class="st2" d="M158.3,57.9c0,2.7-0.5,4.8-1.6,6.3c-1.1,1.5-2.5,2.3-4.2,2.3
		c-1.7,0-3.1-0.8-4.2-2.3s-1.6-3.7-1.6-6.3s0.5-4.7,1.6-6.3c1.1-1.5,2.5-2.3,4.2-2.3c1.7,0,3.1,0.8,4.2,2.3
		C157.7,53.2,158.3,55.2,158.3,57.9 M155.9,57.9c0-2.1-0.3-3.6-1.1-4.5c-0.7-0.9-1.5-1.3-2.5-1.3s-1.7,0.5-2.5,1.3
		c-0.7,0.9-1.1,2.4-1.1,4.5c0,2.1,0.3,3.6,1.1,4.5c0.7,0.9,1.5,1.3,2.5,1.3s1.7-0.5,2.5-1.3C155.6,61.6,155.9,60,155.9,57.9"/>
	<path id="path1834" inkscape:connector-curvature="0" class="st2" d="M171.5,66h-9.9v-2.6l3.7-6.1l-3.1-5.1v-2.5h9v2.8h-5.9
		c0.1,0.2,0.2,0.3,0.3,0.5s0.2,0.3,0.3,0.5l2.3,3.8l-3.4,5.6l-0.1,0.3h6.9V66z"/>
	<path id="path1838" inkscape:connector-curvature="0" class="st2" d="M98.4,0.4c-0.1,0.1-12.5,8.5-36.3,10.8c-20,2-34.8-2-34.9-2
		c-0.9-0.2-1.7,0-2.4,0.5c-0.7,0.5-1,1.4-0.9,2.3c0,0.1,0.6,6.6-2,13.6c-4.2,11.4-7.2,13.9-7.3,13.9l0.1-0.1
		c-0.7,0.5-1.3,1.5-1.2,2.4c0,0.2,1.4,18.4,7.1,42.6c5.2,22.3,15.2,54.6,33.2,81.2c19.9,29.5,43.4,34.1,44.4,34.2
		c0.1,0,0.3,0.1,0.5,0.1h2.6c0.1,0,0.3,0,0.5-0.1c1-0.2,24.4-4.7,44.4-34.2c18.1-26.7,28-58.9,33.2-81.2c5.6-24.2,7-42.4,7.1-42.6
		c0.1-0.9-0.4-1.9-1.2-2.4l0.1,0.1c0,0-3.1-2.5-7.3-13.9c-2.6-7.1-2-13.5-2-13.6c0.1-0.9-0.3-1.7-0.9-2.3c-0.7-0.5-1.5-0.7-2.4-0.5
		c-0.1,0.1-15,4-34.9,2C114,8.9,101.6,0.5,101.4,0.4C100.6-0.1,99.4-0.1,98.4,0.4 M62.7,16.5C83.4,14.4,95.9,8.1,100,5.7
		c4.1,2.4,16.6,8.7,37.3,10.8c15.5,1.5,27.8-0.3,33.5-1.4c0.1,3,0.6,7.5,2.3,12.4c3.4,9.3,6.3,13.5,7.9,15.3
		c-0.9,9.5-8,73.8-39.3,120c-17.7,26.1-38.5,31.5-40.7,31.9c-0.4,0-1.7,0-2.1,0c-2.2-0.5-23.1-5.8-40.7-31.9
		C26.9,116.6,19.9,52.2,19,42.7c1.6-1.8,4.5-5.9,7.9-15.3c1.8-4.8,2.3-9.4,2.3-12.4C34.9,16.2,47.2,18,62.7,16.5"/>
	<path id="path1842" inkscape:connector-curvature="0" class="st1" d="M89.8,79.4h5.8V87h-1.5v-6.3h-2.9V87h-1.5V79.4z"/>
	<path id="path1846" inkscape:connector-curvature="0" class="st1" d="M103.6,87H102l-0.6-1.7h-2.9L97.9,87h-1.6l2.8-7.5h1.6
		L103.6,87 M100.9,84l-1-2.8L99,84H100.9z"/>
	<path id="path1850" inkscape:connector-curvature="0" class="st1" d="M104.4,87v-7.5h5.3v1.3h-3.9v1.7h3.6v1.3h-3.6v2h4V87
		L104.4,87L104.4,87z"/>
	<path id="path1854" inkscape:connector-curvature="0" class="st1" d="M90.6,179.1h2.1v7.6h-1.4v-6.3h-1.5L90.6,179.1z"/>
	<path id="path1858" inkscape:connector-curvature="0" class="st1" d="M97.4,186.8l-1.1-0.6l1.3-2.6c-0.6,0-1.1-0.2-1.6-0.7
		c-0.5-0.5-0.7-1-0.7-1.7c0-0.7,0.2-1.2,0.7-1.7c0.5-0.5,1-0.7,1.6-0.7c0.7,0,1.2,0.3,1.7,0.7c0.5,0.5,0.7,1,0.7,1.7
		c0,0.3-0.1,0.5-0.1,0.7c-0.1,0.3-0.2,0.6-0.5,1.1L97.4,186.8 M97.6,182.3c0.3,0,0.5-0.1,0.7-0.3c0.2-0.2,0.3-0.5,0.3-0.7
		s-0.1-0.5-0.3-0.7c-0.2-0.2-0.4-0.3-0.7-0.3s-0.5,0.1-0.7,0.3c-0.2,0.2-0.3,0.5-0.3,0.7s0.1,0.5,0.3,0.7
		C97.1,182.1,97.3,182.3,97.6,182.3"/>
	<path id="path1862" inkscape:connector-curvature="0" class="st1" d="M103.3,178.9l1.1,0.6l-1.3,2.6c0.6,0,1.1,0.2,1.6,0.7
		c0.5,0.5,0.7,1,0.7,1.7c0,0.7-0.2,1.2-0.7,1.7c-0.5,0.5-1,0.7-1.6,0.7c-0.7,0-1.2-0.3-1.7-0.7c-0.5-0.5-0.7-1-0.7-1.7
		c0-0.3,0.1-0.5,0.1-0.7c0.1-0.3,0.2-0.6,0.5-1.1L103.3,178.9 M103.1,183.4c-0.3,0-0.5,0.1-0.7,0.3c-0.2,0.2-0.3,0.5-0.3,0.7
		c0,0.3,0.1,0.5,0.3,0.7c0.2,0.2,0.4,0.3,0.7,0.3c0.3,0,0.5-0.1,0.7-0.3c0.2-0.2,0.3-0.5,0.3-0.7c0-0.3-0.1-0.5-0.3-0.7
		C103.6,183.5,103.4,183.4,103.1,183.4"/>
	<path id="path1866" inkscape:connector-curvature="0" class="st1" d="M107.7,179.1h2.1v7.6h-1.4v-6.3h-1.5L107.7,179.1z"/>
</g>
</svg>
