<?xml version="1.0" encoding="utf-8"?>
<!-- Generator: Adobe Illustrator 21.1.0, SVG Export Plug-In . SVG Version: 6.00 Build 0)  -->
<svg version="1.1" id="Layer_1" xmlns="http://www.w3.org/2000/svg" xmlns:xlink="http://www.w3.org/1999/xlink" x="0px" y="0px"
	 viewBox="0 0 200 200" style="enable-background:new 0 0 200 200;" xml:space="preserve">
<style type="text/css">
	.st0{fill:#FFFFFF;}
	.st1{fill:#006785;}
	.st2{fill:#006787;}
	.st3{fill:#006887;}
	.st4{fill:#006988;}
	.st5{fill:#006A89;}
	.st6{fill:#006B8A;}
	.st7{fill:#006D8B;}
	.st8{fill:#006C8A;}
	.st9{fill:#006F8D;}
	.st10{fill:#006F8E;}
	.st11{fill:#00708F;}
	.st12{fill:#007190;}
	.st13{fill:#007291;}
	.st14{fill:#007391;}
	.st15{fill:#007492;}
	.st16{fill:#007595;}
	.st17{fill:#007696;}
	.st18{fill:#007795;}
	.st19{fill:#007897;}
	.st20{fill:#007898;}
	.st21{fill:#007A99;}
	.st22{fill:#007B9A;}
	.st23{fill:#007C9A;}
	.st24{fill:#007D9B;}
	.st25{fill:#007C9C;}
	.st26{fill:#007D9D;}
	.st27{fill:#007F9E;}
	.st28{fill:#007F9F;}
	.st29{fill:#00809F;}
	.st30{fill:#0081A2;}
	.st31{fill:#0082A2;}
	.st32{fill:#0084A3;}
	.st33{fill:#0086A6;}
	.st34{fill:#0086A5;}
	.st35{fill:#0087A6;}
	.st36{fill:#0389A8;}
	.st37{fill:#0189A9;}
	.st38{fill:#1F8AA9;}
	.st39{fill:#278BAA;}
	.st40{fill:#2D8CAA;}
	.st41{fill:#348EAC;}
	.st42{fill:#388FAD;}
	.st43{fill:#3890AE;}
	.st44{fill:#3C91AF;}
	.st45{fill:#3D92B0;}
	.st46{fill:#4092B0;}
	.st47{fill:#4593B1;}
	.st48{fill:#4A94B1;}
	.st49{fill:#4D96B2;}
	.st50{fill:#5298B4;}
	.st51{fill:#5599B4;}
	.st52{fill:#559AB5;}
	.st53{fill:#599BB7;}
	.st54{fill:#599BB5;}
	.st55{fill:#5B9CB7;}
	.st56{fill:#609DB7;}
	.st57{fill:#5F9DB9;}
	.st58{fill:#629FB9;}
	.st59{fill:#66A0BB;}
	.st60{fill:#66A2BC;}
	.st61{fill:#68A3BC;}
	.st62{fill:#6CA4BC;}
	.st63{fill:#6CA4BE;}
	.st64{fill:#6FA6BF;}
	.st65{fill:#72A5BF;}
	.st66{fill:#72A6BF;}
	.st67{fill:#76A9C1;}
	.st68{fill:#79AAC2;}
	.st69{fill:#78ABC4;}
	.st70{fill:#7CACC4;}
	.st71{fill:#7CACC6;}
	.st72{fill:#7EADC6;}
	.st73{fill:#7EAFC7;}
	.st74{fill:#81B0C7;}
	.st75{fill:#83B0C7;}
	.st76{fill:#83B2C9;}
	.st77{fill:#87B3CA;}
	.st78{fill:#89B3CA;}
	.st79{fill:#8CB4CA;}
	.st80{fill:#8FB7CD;}
	.st81{fill:#91B6CC;}
	.st82{fill:#91B8CE;}
	.st83{fill:#91B9CE;}
	.st84{fill:#97BCD2;}
	.st85{fill:#9ABDD2;}
	.st86{fill:#9CBED3;}
	.st87{fill:#9FC0D4;}
	.st88{fill:#A1C1D5;}
	.st89{fill:#A4C3D6;}
	.st90{fill:#A7C4D6;}
	.st91{fill:#A9C7D8;}
	.st92{fill:#ACC8D8;}
	.st93{fill:#AEC9D8;}
	.st94{fill:#B1CBD9;}
	.st95{fill:#B0CBDB;}
	.st96{fill:#B2CCDB;}
	.st97{fill:#B5CEDD;}
	.st98{fill:#B7CFDD;}
	.st99{fill:#BAD0DD;}
	.st100{fill:#BDD1DE;}
	.st101{fill:#BED2DE;}
	.st102{fill:#BED4E0;}
	.st103{fill:#C1D4DF;}
	.st104{fill:#C3D6E1;}
	.st105{fill:#C7D9E4;}
	.st106{fill:#C9DAE4;}
	.st107{fill:#CCDBE4;}
	.st108{fill:#CEDDE5;}
	.st109{fill:#D0DEE6;}
	.st110{fill:#D2E1E9;}
	.st111{fill:#D5E2E9;}
	.st112{fill:#D7E3E9;}
	.st113{fill:#D9E3E9;}
	.st114{fill:#D9E3EB;}
	.st115{fill:#DCE4EB;}
	.st116{fill:#DDE7EC;}
	.st117{fill:#E0E8ED;}
	.st118{fill:#E2EAEE;}
	.st119{fill:#E4EBEE;}
	.st120{fill:#E6ECF0;}
	.st121{fill:#E8EDF0;}
	.st122{fill:#EBF0F2;}
	.st123{fill:#ECF0F2;}
	.st124{fill:#ECF0F3;}
	.st125{fill:#F0F2F4;}
	.st126{fill:#F0F4F7;}
	.st127{fill:#F3F5F7;}
	.st128{fill:#F5F7F8;}
	.st129{fill:#F7F8F9;}
	.st130{fill:#F8F9FA;}
	.st131{fill:#FBFBFB;}
	.st132{fill:#FDFEFF;}
	.st133{fill:#F3E5A0;stroke:#000000;stroke-width:0.3655;stroke-miterlimit:2.6131;}
	.st134{fill:#06B4E2;stroke:#000000;stroke-width:0.3655;stroke-miterlimit:2.6131;}
	.st135{fill:#49AA85;stroke:#000000;stroke-width:0.3655;stroke-miterlimit:2.6131;}
	.st136{fill:none;stroke:#000000;stroke-width:0.3655;stroke-miterlimit:2.6131;}
	.st137{fill:#E5A65A;stroke:#000000;stroke-width:0.3655;stroke-miterlimit:2.6131;}
	.st138{fill:#FEE222;stroke:#000000;stroke-width:0.3655;stroke-miterlimit:2.6131;}
	.st139{fill:#FFFFFF;stroke:#000000;stroke-width:0.3655;stroke-miterlimit:2.6131;}
	.st140{fill:#0085B0;}
	.st141{fill:#D0B137;stroke:#000000;stroke-width:0.3655;stroke-miterlimit:2.6131;}
</style>
<g>
	<path class="st0" d="M99.8,3.3c41.2,0,74.7,33.5,74.7,74.6c0,41.1-33.5,74.6-74.7,74.6c-41.2,0-74.7-33.5-74.7-74.6
		C25.1,36.8,58.7,3.3,99.8,3.3L99.8,3.3L99.8,3.3z"/>
	<path d="M99.8,2.3L99.8,2.3L99.8,2.3c20.9,0,39.8,8.5,53.5,22.2c13.7,13.7,22.2,32.6,22.2,53.4h0v0v0h0c0,20.8-8.5,39.8-22.2,53.4
		c-13.7,13.7-32.6,22.2-53.5,22.2v0h0h0v0c-20.9,0-39.8-8.5-53.5-22.2c-13.7-13.7-22.2-32.6-22.2-53.4h0v0v0h0
		c0-20.8,8.5-39.8,22.2-53.4C60,10.8,79,2.3,99.8,2.3L99.8,2.3L99.8,2.3L99.8,2.3z M99.8,4.3L99.8,4.3L99.8,4.3L99.8,4.3L99.8,4.3
		c-20.3,0-38.7,8.3-52.1,21.6c-13.3,13.3-21.6,31.7-21.6,52h0v0v0h0c0,20.3,8.3,38.7,21.6,52c13.3,13.3,31.8,21.6,52.1,21.6v0h0h0v0
		c20.3,0,38.7-8.3,52.1-21.6c13.4-13.3,21.6-31.7,21.6-52h0v0v0h0c0-20.3-8.3-38.7-21.6-52C138.6,12.6,120.1,4.3,99.8,4.3L99.8,4.3z
		"/>
	<path class="st1" d="M161.9,48.9H37.8c11-23.4,34.7-39.7,61.9-39.7l0,0C127.1,9.3,150.9,25.7,161.9,48.9L161.9,48.9z"/>
	<path class="st1" d="M37.9,48.6h123.8c0.1,0.2,0.2,0.4,0.3,0.7H37.6C37.7,49.1,37.8,48.8,37.9,48.6L37.9,48.6z"/>
	<path class="st1" d="M37.8,48.9h124.1c0.1,0.2,0.2,0.4,0.3,0.7H37.4C37.5,49.4,37.7,49.2,37.8,48.9L37.8,48.9z"/>
	<path class="st2" d="M37.6,49.3h124.5c0.1,0.2,0.2,0.4,0.3,0.7H37.3C37.4,49.7,37.5,49.5,37.6,49.3L37.6,49.3z"/>
	<path class="st3" d="M37.4,49.6h124.8c0.1,0.2,0.2,0.4,0.3,0.7H37.1C37.2,50.1,37.3,49.8,37.4,49.6L37.4,49.6z"/>
	<path class="st3" d="M37.3,50h125.1c0.1,0.2,0.2,0.4,0.3,0.7H37C37.1,50.4,37.2,50.2,37.3,50L37.3,50z"/>
	<path class="st4" d="M37.1,50.3h125.4c0.1,0.2,0.2,0.4,0.3,0.7h-126C36.9,50.7,37,50.5,37.1,50.3L37.1,50.3z"/>
	<path class="st5" d="M37,50.6h125.7c0.1,0.2,0.2,0.4,0.3,0.7H36.7C36.8,51.1,36.9,50.9,37,50.6L37,50.6z"/>
	<path class="st6" d="M36.8,51h126c0.1,0.2,0.2,0.4,0.3,0.7H36.6C36.7,51.4,36.7,51.2,36.8,51L36.8,51z"/>
	<path class="st7" d="M36.7,51.3H163c0.1,0.2,0.2,0.4,0.3,0.7H36.4C36.5,51.8,36.6,51.5,36.7,51.3L36.7,51.3z"/>
	<path class="st8" d="M36.6,51.6h126.5c0.1,0.2,0.2,0.4,0.3,0.7H36.3C36.4,52.1,36.5,51.9,36.6,51.6L36.6,51.6z"/>
	<path class="st7" d="M36.4,52h126.8c0.1,0.2,0.2,0.4,0.3,0.7H36.1C36.2,52.4,36.3,52.2,36.4,52L36.4,52z"/>
	<path class="st9" d="M36.3,52.3h127.1c0.1,0.2,0.2,0.4,0.3,0.7H36C36.1,52.8,36.2,52.5,36.3,52.3L36.3,52.3z"/>
	<path class="st10" d="M36.1,52.6h127.4c0.1,0.2,0.2,0.4,0.3,0.7H35.9C36,53.1,36.1,52.9,36.1,52.6L36.1,52.6z"/>
	<path class="st10" d="M36,53h127.6c0.1,0.2,0.2,0.4,0.3,0.7H35.8C35.8,53.4,35.9,53.2,36,53L36,53z"/>
	<path class="st11" d="M35.9,53.3h127.9c0.1,0.2,0.2,0.4,0.3,0.7H35.6C35.7,53.8,35.8,53.5,35.9,53.3L35.9,53.3z"/>
	<path class="st11" d="M35.8,53.7h128.1c0.1,0.2,0.2,0.4,0.3,0.7H35.5C35.6,54.1,35.7,53.9,35.8,53.7L35.8,53.7z"/>
	<path class="st12" d="M35.6,54H164c0.1,0.2,0.2,0.4,0.2,0.7H35.4C35.5,54.4,35.5,54.2,35.6,54L35.6,54z"/>
	<path class="st13" d="M35.5,54.3h128.7c0.1,0.2,0.2,0.4,0.2,0.7H35.3C35.3,54.8,35.4,54.6,35.5,54.3L35.5,54.3z"/>
	<path class="st13" d="M35.4,54.7h128.9c0.1,0.2,0.2,0.4,0.2,0.7H35.1C35.2,55.1,35.3,54.9,35.4,54.7L35.4,54.7z"/>
	<path class="st14" d="M35.3,55h129.1c0.1,0.2,0.2,0.4,0.2,0.7H35C35.1,55.4,35.2,55.2,35.3,55L35.3,55z"/>
	<path class="st15" d="M35.1,55.3h129.4c0.1,0.2,0.2,0.4,0.2,0.7H34.9C35,55.8,35.1,55.6,35.1,55.3L35.1,55.3z"/>
	<path class="st16" d="M35,55.7h129.6c0.1,0.2,0.2,0.4,0.2,0.7H34.8C34.9,56.1,34.9,55.9,35,55.7L35,55.7z"/>
	<path class="st17" d="M34.9,56h129.8c0.1,0.2,0.1,0.4,0.2,0.7H34.7C34.8,56.5,34.8,56.2,34.9,56L34.9,56z"/>
	<path class="st18" d="M34.8,56.3h130.1c0.1,0.2,0.2,0.4,0.2,0.7H34.6C34.6,56.8,34.7,56.6,34.8,56.3L34.8,56.3z"/>
	<path class="st19" d="M34.7,56.7H165c0.1,0.2,0.2,0.4,0.2,0.7H34.5C34.5,57.1,34.6,56.9,34.7,56.7L34.7,56.7z"/>
	<path class="st19" d="M34.6,57h130.5c0.1,0.2,0.1,0.4,0.2,0.7H34.4C34.4,57.5,34.5,57.2,34.6,57L34.6,57z"/>
	<path class="st20" d="M34.5,57.4h130.7c0.1,0.2,0.1,0.4,0.2,0.7H34.3C34.3,57.8,34.4,57.6,34.5,57.4L34.5,57.4z"/>
	<path class="st20" d="M34.4,57.7h130.9c0.1,0.2,0.1,0.4,0.2,0.7H34.2C34.2,58.1,34.3,57.9,34.4,57.7L34.4,57.7z"/>
	<path class="st21" d="M34.3,58h131.1c0.1,0.2,0.1,0.4,0.2,0.7H34.1C34.1,58.5,34.2,58.3,34.3,58L34.3,58z"/>
	<path class="st22" d="M34.2,58.4h131.3c0.1,0.2,0.1,0.4,0.2,0.7H34C34,58.8,34.1,58.6,34.2,58.4L34.2,58.4z"/>
	<path class="st23" d="M34.1,58.7h131.5c0.1,0.2,0.1,0.4,0.2,0.7H33.9C33.9,59.1,34,58.9,34.1,58.7L34.1,58.7z"/>
	<path class="st24" d="M34,59h131.7c0.1,0.2,0.1,0.4,0.2,0.7H33.8C33.8,59.5,33.9,59.3,34,59L34,59z"/>
	<path class="st25" d="M33.9,59.4h131.9c0.1,0.2,0.1,0.4,0.2,0.7H33.7C33.7,59.8,33.8,59.6,33.9,59.4L33.9,59.4z"/>
	<path class="st26" d="M33.8,59.7h132.1c0.1,0.2,0.1,0.4,0.2,0.7H33.6C33.6,60.2,33.7,59.9,33.8,59.7L33.8,59.7z"/>
	<path class="st27" d="M33.7,60H166c0.1,0.2,0.1,0.4,0.2,0.7H33.5C33.5,60.5,33.6,60.3,33.7,60L33.7,60z"/>
	<path class="st28" d="M33.6,60.4h132.5c0.1,0.2,0.1,0.4,0.2,0.7H33.4C33.5,60.8,33.5,60.6,33.6,60.4L33.6,60.4z"/>
	<path class="st29" d="M33.5,60.7h132.7c0.1,0.2,0.1,0.4,0.2,0.7h-133C33.4,61.2,33.4,60.9,33.5,60.7L33.5,60.7z"/>
	<path class="st29" d="M33.4,61.1h132.8c0.1,0.2,0.1,0.4,0.2,0.7H33.2C33.3,61.5,33.3,61.3,33.4,61.1L33.4,61.1z"/>
	<path class="st30" d="M33.3,61.4h133c0.1,0.2,0.1,0.4,0.2,0.7H33.2C33.2,61.8,33.3,61.6,33.3,61.4L33.3,61.4z"/>
	<path class="st30" d="M33.2,61.7h133.2c0.1,0.2,0.1,0.4,0.2,0.7H33.1C33.1,62.2,33.2,62,33.2,61.7L33.2,61.7z"/>
	<path class="st31" d="M33.2,62.1h133.3c0.1,0.2,0.1,0.4,0.2,0.7H33C33,62.5,33.1,62.3,33.2,62.1L33.2,62.1z"/>
	<path class="st31" d="M33.1,62.4h133.5c0.1,0.2,0.1,0.4,0.2,0.7H32.9C33,62.8,33,62.6,33.1,62.4L33.1,62.4z"/>
	<path class="st32" d="M33,62.7h133.6c0.1,0.2,0.1,0.4,0.1,0.7H32.9C32.9,63.2,32.9,63,33,62.7L33,62.7z"/>
	<path class="st32" d="M32.9,63.1h133.8c0,0.2,0.1,0.4,0.1,0.7H32.8C32.8,63.5,32.9,63.3,32.9,63.1L32.9,63.1z"/>
	<path class="st33" d="M32.9,63.4h133.9c0,0.2,0.1,0.4,0.1,0.7H32.7C32.7,63.9,32.8,63.6,32.9,63.4L32.9,63.4z"/>
	<path class="st34" d="M32.8,63.7h134.1c0,0.2,0.1,0.4,0.1,0.7H32.6C32.7,64.2,32.7,64,32.8,63.7L32.8,63.7z"/>
	<path class="st35" d="M32.7,64.1h134.2c0,0.2,0.1,0.4,0.1,0.7H32.6C32.6,64.5,32.7,64.3,32.7,64.1L32.7,64.1z"/>
	<path class="st36" d="M32.6,64.4H167c0,0.2,0.1,0.4,0.1,0.7H32.5C32.5,64.9,32.6,64.6,32.6,64.4L32.6,64.4z"/>
	<path class="st37" d="M32.6,64.8h134.5c0,0.2,0.1,0.4,0.1,0.7H32.4C32.5,65.2,32.5,65,32.6,64.8L32.6,64.8z"/>
	<path class="st38" d="M32.5,65.1h134.6c0,0.2,0.1,0.4,0.1,0.7H32.4C32.4,65.5,32.5,65.3,32.5,65.1L32.5,65.1z"/>
	<path class="st38" d="M32.4,65.4h134.8c0,0.2,0.1,0.4,0.1,0.7h-135C32.4,65.9,32.4,65.6,32.4,65.4L32.4,65.4z"/>
	<path class="st39" d="M32.4,65.8h134.9c0,0.2,0.1,0.4,0.1,0.7H32.3C32.3,66.2,32.3,66,32.4,65.8L32.4,65.8z"/>
	<path class="st40" d="M32.3,66.1h135c0,0.2,0.1,0.4,0.1,0.7H32.2C32.2,66.5,32.3,66.3,32.3,66.1L32.3,66.1z"/>
	<path class="st40" d="M32.3,66.4h135.1c0,0.2,0.1,0.4,0.1,0.7H32.2C32.2,66.9,32.2,66.7,32.3,66.4L32.3,66.4z"/>
	<path class="st41" d="M32.2,66.8h135.2c0,0.2,0.1,0.4,0.1,0.7H32.1C32.1,67.2,32.2,67,32.2,66.8L32.2,66.8z"/>
	<path class="st41" d="M32.2,67.1h135.3c0,0.2,0.1,0.4,0.1,0.7H32C32.1,67.6,32.1,67.3,32.2,67.1L32.2,67.1z"/>
	<path class="st42" d="M32.1,67.4h135.4c0,0.2,0.1,0.4,0.1,0.7H32C32,67.9,32.1,67.7,32.1,67.4L32.1,67.4z"/>
	<path class="st43" d="M32,67.8h135.5c0,0.2,0.1,0.4,0.1,0.7H32C32,68.2,32,68,32,67.8L32,67.8z"/>
	<path class="st44" d="M32,68.1h135.6c0,0.2,0.1,0.4,0.1,0.7H31.9C31.9,68.6,32,68.3,32,68.1L32,68.1z"/>
	<path class="st45" d="M32,68.5h135.7c0,0.2,0.1,0.4,0.1,0.7H31.9C31.9,68.9,31.9,68.7,32,68.5L32,68.5z"/>
	<path class="st46" d="M31.9,68.8h135.8c0,0.2,0.1,0.4,0.1,0.7h-136C31.8,69.2,31.9,69,31.9,68.8L31.9,68.8z"/>
	<path class="st47" d="M31.9,69.1h135.9c0,0.2,0.1,0.4,0.1,0.7H31.8C31.8,69.6,31.8,69.3,31.9,69.1L31.9,69.1z"/>
	<path class="st47" d="M31.8,69.5h136c0,0.2,0.1,0.4,0.1,0.7H31.7C31.8,69.9,31.8,69.7,31.8,69.5L31.8,69.5z"/>
	<path class="st48" d="M31.8,69.8h136.1c0,0.2,0.1,0.4,0.1,0.7H31.7C31.7,70.2,31.7,70,31.8,69.8L31.8,69.8z"/>
	<path class="st49" d="M31.7,70.1h136.2c0,0.2,0.1,0.4,0.1,0.7H31.7C31.7,70.6,31.7,70.4,31.7,70.1L31.7,70.1z"/>
	<path class="st49" d="M31.7,70.5h136.2c0,0.2,0,0.4,0.1,0.7H31.6C31.6,70.9,31.7,70.7,31.7,70.5L31.7,70.5z"/>
	<path class="st50" d="M31.7,70.8H168c0,0.2,0,0.4,0.1,0.7H31.6C31.6,71.3,31.6,71,31.7,70.8L31.7,70.8z"/>
	<path class="st50" d="M31.6,71.1H168c0,0.2,0,0.4,0.1,0.7H31.6C31.6,71.6,31.6,71.4,31.6,71.1L31.6,71.1z"/>
	<path class="st51" d="M31.6,71.5H168c0,0.2,0,0.4,0.1,0.7H31.5C31.6,71.9,31.6,71.7,31.6,71.5L31.6,71.5z"/>
	<path class="st52" d="M31.6,71.8h136.5c0,0.2,0,0.4,0.1,0.7H31.5C31.5,72.3,31.5,72,31.6,71.8L31.6,71.8z"/>
	<path class="st53" d="M31.5,72.1h136.5c0,0.2,0,0.4,0,0.7H31.5C31.5,72.6,31.5,72.4,31.5,72.1L31.5,72.1z"/>
	<path class="st54" d="M31.5,72.5h136.6c0,0.2,0,0.4,0,0.7H31.5C31.5,72.9,31.5,72.7,31.5,72.5L31.5,72.5z"/>
	<path class="st55" d="M31.5,72.8h136.7c0,0.2,0,0.4,0,0.7H31.4C31.5,73.3,31.5,73,31.5,72.8L31.5,72.8z"/>
	<path class="st56" d="M31.5,73.2h136.7c0,0.2,0,0.4,0,0.7H31.4C31.4,73.6,31.4,73.4,31.5,73.2L31.5,73.2z"/>
	<path class="st57" d="M31.4,73.5h136.7c0,0.2,0,0.4,0,0.7H31.4C31.4,73.9,31.4,73.7,31.4,73.5L31.4,73.5z"/>
	<path class="st56" d="M31.4,73.8h136.8c0,0.2,0,0.4,0,0.7H31.4C31.4,74.3,31.4,74.1,31.4,73.8L31.4,73.8z"/>
	<path class="st58" d="M31.4,74.2h136.8c0,0.2,0,0.4,0,0.7H31.4C31.4,74.6,31.4,74.4,31.4,74.2L31.4,74.2z"/>
	<path class="st59" d="M31.4,74.5h136.9c0,0.2,0,0.4,0,0.7H31.4C31.4,75,31.4,74.7,31.4,74.5L31.4,74.5z"/>
	<path class="st59" d="M31.4,74.8h136.9c0,0.2,0,0.4,0,0.7H31.3C31.3,75.3,31.4,75.1,31.4,74.8L31.4,74.8z"/>
	<path class="st60" d="M31.4,75.2h136.9c0,0.2,0,0.4,0,0.7h-137C31.3,75.6,31.3,75.4,31.4,75.2L31.4,75.2z"/>
	<path class="st61" d="M31.3,75.5h136.9c0,0.2,0,0.4,0,0.7h-137C31.3,76,31.3,75.7,31.3,75.5L31.3,75.5z"/>
	<path class="st62" d="M31.3,75.8h137c0,0.2,0,0.4,0,0.7h-137C31.3,76.3,31.3,76.1,31.3,75.8L31.3,75.8z"/>
	<path class="st63" d="M31.3,76.2h137c0,0.2,0,0.4,0,0.7h-137C31.3,76.6,31.3,76.4,31.3,76.2L31.3,76.2z"/>
	<path class="st63" d="M31.3,76.5h137c0,0.2,0,0.4,0,0.7h-137C31.3,77,31.3,76.7,31.3,76.5L31.3,76.5z"/>
	<path class="st64" d="M31.3,76.9h137c0,0.2,0,0.4,0,0.7h-137C31.3,77.3,31.3,77.1,31.3,76.9L31.3,76.9z"/>
	<path class="st65" d="M31.3,77.2h137c0,0.1,0,0.2,0,0.3s0,0.2,0,0.3h-137C31.3,77.6,31.3,77.4,31.3,77.2L31.3,77.2z"/>
	<path class="st66" d="M31.3,77.5h137c0,0.2,0,0.4,0,0.7h-137c0-0.1,0-0.2,0-0.3S31.3,77.6,31.3,77.5L31.3,77.5z"/>
	<path class="st67" d="M31.3,77.9h137c0,0.2,0,0.4,0,0.7h-137C31.3,78.3,31.3,78.1,31.3,77.9L31.3,77.9z"/>
	<path class="st68" d="M31.3,78.2h137c0,0.2,0,0.4,0,0.7h-137C31.3,78.7,31.3,78.4,31.3,78.2L31.3,78.2z"/>
	<path class="st68" d="M31.3,78.5h137c0,0.2,0,0.4,0,0.7h-137C31.3,79,31.3,78.8,31.3,78.5L31.3,78.5z"/>
	<path class="st69" d="M31.3,78.9h137c0,0.2,0,0.4,0,0.7h-137C31.3,79.3,31.3,79.1,31.3,78.9L31.3,78.9z"/>
	<path class="st70" d="M31.3,79.2h137c0,0.2,0,0.4,0,0.7H31.3C31.3,79.7,31.3,79.4,31.3,79.2L31.3,79.2z"/>
	<path class="st71" d="M31.3,79.5h137c0,0.2,0,0.4,0,0.7H31.3C31.3,80,31.3,79.8,31.3,79.5L31.3,79.5z"/>
	<path class="st70" d="M31.3,79.9h136.9c0,0.2,0,0.4,0,0.7H31.4C31.3,80.3,31.3,80.1,31.3,79.9L31.3,79.9z"/>
	<path class="st72" d="M31.3,80.2h136.9c0,0.2,0,0.4,0,0.7H31.4C31.4,80.7,31.3,80.4,31.3,80.2L31.3,80.2z"/>
	<path class="st73" d="M31.4,80.6h136.9c0,0.2,0,0.4,0,0.7H31.4C31.4,81,31.4,80.8,31.4,80.6L31.4,80.6z"/>
	<path class="st74" d="M31.4,80.9h136.9c0,0.2,0,0.4,0,0.7H31.4C31.4,81.3,31.4,81.1,31.4,80.9L31.4,80.9z"/>
	<path class="st75" d="M31.4,81.2h136.8c0,0.2,0,0.4,0,0.7H31.4C31.4,81.7,31.4,81.5,31.4,81.2L31.4,81.2z"/>
	<path class="st76" d="M31.4,81.6h136.8c0,0.2,0,0.4,0,0.7H31.4C31.4,82,31.4,81.8,31.4,81.6L31.4,81.6z"/>
	<path class="st77" d="M31.4,81.9h136.7c0,0.2,0,0.4,0,0.7H31.5C31.4,82.3,31.4,82.1,31.4,81.9L31.4,81.9z"/>
	<path class="st78" d="M31.4,82.2h136.7c0,0.2,0,0.4,0,0.7H31.5C31.5,82.7,31.5,82.5,31.4,82.2L31.4,82.2z"/>
	<path class="st79" d="M31.5,82.6h136.7c0,0.2,0,0.4-0.1,0.7H31.5C31.5,83,31.5,82.8,31.5,82.6L31.5,82.6z"/>
	<path class="st80" d="M31.5,82.9h136.6c0,0.2,0,0.4-0.1,0.7H31.5C31.5,83.4,31.5,83.1,31.5,82.9L31.5,82.9z"/>
	<path class="st81" d="M31.5,83.2h136.5c0,0.2,0,0.4-0.1,0.7H31.6C31.6,83.7,31.5,83.5,31.5,83.2L31.5,83.2z"/>
	<path class="st82" d="M31.5,83.6H168c0,0.2,0,0.4-0.1,0.7H31.6C31.6,84,31.6,83.8,31.5,83.6L31.5,83.6z"/>
	<path class="st83" d="M31.6,83.9H168c0,0.2,0,0.4-0.1,0.7H31.6C31.6,84.4,31.6,84.1,31.6,83.9L31.6,83.9z"/>
	<path class="st84" d="M31.6,84.3H168c0,0.2,0,0.4-0.1,0.7H31.7C31.6,84.7,31.6,84.5,31.6,84.3L31.6,84.3z"/>
	<path class="st84" d="M31.6,84.6h136.3c0,0.2-0.1,0.4-0.1,0.7H31.7C31.7,85,31.7,84.8,31.6,84.6L31.6,84.6z"/>
	<path class="st85" d="M31.7,84.9h136.2c0,0.2-0.1,0.4-0.1,0.7H31.7C31.7,85.4,31.7,85.2,31.7,84.9L31.7,84.9z"/>
	<path class="st86" d="M31.7,85.3h136.2c0,0.2-0.1,0.4-0.1,0.7h-136C31.8,85.7,31.7,85.5,31.7,85.3L31.7,85.3z"/>
	<path class="st87" d="M31.7,85.6h136.1c0,0.2-0.1,0.4-0.1,0.7H31.8C31.8,86,31.8,85.8,31.7,85.6L31.7,85.6z"/>
	<path class="st88" d="M31.8,85.9h136c0,0.2-0.1,0.4-0.1,0.7H31.9C31.8,86.4,31.8,86.2,31.8,85.9L31.8,85.9z"/>
	<path class="st88" d="M31.8,86.3h135.9c0,0.2-0.1,0.4-0.1,0.7H31.9C31.9,86.7,31.9,86.5,31.8,86.3L31.8,86.3z"/>
	<path class="st89" d="M31.9,86.6h135.8c0,0.2-0.1,0.4-0.1,0.7H32C31.9,87.1,31.9,86.8,31.9,86.6L31.9,86.6z"/>
	<path class="st90" d="M31.9,86.9h135.7c0,0.2-0.1,0.4-0.1,0.7H32C32,87.4,31.9,87.2,31.9,86.9L31.9,86.9z"/>
	<path class="st91" d="M32,87.3h135.6c0,0.2-0.1,0.4-0.1,0.7H32.1C32,87.7,32,87.5,32,87.3L32,87.3z"/>
	<path class="st92" d="M32,87.6h135.5c0,0.2-0.1,0.4-0.1,0.7H32.1C32.1,88.1,32,87.8,32,87.6L32,87.6z"/>
	<path class="st93" d="M32.1,88h135.4c0,0.2-0.1,0.4-0.1,0.7H32.2C32.1,88.4,32.1,88.2,32.1,88L32.1,88z"/>
	<path class="st93" d="M32.1,88.3h135.3c0,0.2-0.1,0.4-0.1,0.7H32.2C32.2,88.7,32.1,88.5,32.1,88.3L32.1,88.3z"/>
	<path class="st94" d="M32.2,88.6h135.2c0,0.2-0.1,0.4-0.1,0.7h-135C32.2,89.1,32.2,88.9,32.2,88.6L32.2,88.6z"/>
	<path class="st95" d="M32.2,89h135.1c0,0.2-0.1,0.4-0.1,0.7H32.3C32.3,89.4,32.3,89.2,32.2,89L32.2,89z"/>
	<path class="st96" d="M32.3,89.3h135c0,0.2-0.1,0.4-0.1,0.7H32.4C32.4,89.7,32.3,89.5,32.3,89.3L32.3,89.3z"/>
	<path class="st97" d="M32.3,89.6h134.9c0,0.2-0.1,0.4-0.1,0.7H32.5C32.4,90.1,32.4,89.9,32.3,89.6L32.3,89.6z"/>
	<path class="st98" d="M32.4,90h134.8c0,0.2-0.1,0.4-0.1,0.7H32.5C32.5,90.4,32.4,90.2,32.4,90L32.4,90z"/>
	<path class="st99" d="M32.5,90.3h134.6c0,0.2-0.1,0.4-0.1,0.7H32.6C32.5,90.8,32.5,90.5,32.5,90.3L32.5,90.3z"/>
	<path class="st100" d="M32.5,90.6H167c0,0.2-0.1,0.4-0.1,0.7H32.7C32.6,91.1,32.6,90.9,32.5,90.6L32.5,90.6z"/>
	<path class="st101" d="M32.6,91H167c0,0.2-0.1,0.4-0.1,0.7H32.7C32.7,91.4,32.6,91.2,32.6,91L32.6,91z"/>
	<path class="st102" d="M32.7,91.3h134.2c0,0.2-0.1,0.4-0.1,0.7H32.8C32.8,91.8,32.7,91.5,32.7,91.3L32.7,91.3z"/>
	<path class="st103" d="M32.7,91.7h134.1c0,0.2-0.1,0.4-0.1,0.7H32.9C32.8,92.1,32.8,91.9,32.7,91.7L32.7,91.7z"/>
	<path class="st104" d="M32.8,92h133.9c0,0.2-0.1,0.4-0.1,0.7H33C32.9,92.4,32.9,92.2,32.8,92L32.8,92z"/>
	<path class="st104" d="M32.9,92.3h133.8c-0.1,0.2-0.1,0.4-0.1,0.7H33C33,92.8,32.9,92.5,32.9,92.3L32.9,92.3z"/>
	<path class="st105" d="M33,92.7h133.6c-0.1,0.2-0.1,0.4-0.2,0.7H33.1C33.1,93.1,33,92.9,33,92.7L33,92.7z"/>
	<path class="st106" d="M33,93h133.5c-0.1,0.2-0.1,0.4-0.2,0.7H33.2C33.1,93.4,33.1,93.2,33,93L33,93z"/>
	<path class="st107" d="M33.1,93.3h133.3c-0.1,0.2-0.1,0.4-0.2,0.7h-133C33.2,93.8,33.2,93.6,33.1,93.3L33.1,93.3z"/>
	<path class="st108" d="M33.2,93.7h133.2c-0.1,0.2-0.1,0.4-0.2,0.7H33.4C33.3,94.1,33.2,93.9,33.2,93.7L33.2,93.7z"/>
	<path class="st108" d="M33.3,94h133c-0.1,0.2-0.1,0.4-0.2,0.7H33.4C33.4,94.5,33.3,94.2,33.3,94L33.3,94z"/>
	<path class="st109" d="M33.4,94.3h132.8c-0.1,0.2-0.1,0.4-0.2,0.7H33.5C33.5,94.8,33.4,94.6,33.4,94.3L33.4,94.3z"/>
	<path class="st110" d="M33.4,94.7h132.7c-0.1,0.2-0.1,0.4-0.2,0.7H33.6C33.6,95.1,33.5,94.9,33.4,94.7L33.4,94.7z"/>
	<path class="st111" d="M33.5,95H166c-0.1,0.2-0.1,0.4-0.2,0.7H33.7C33.7,95.5,33.6,95.2,33.5,95L33.5,95z"/>
	<path class="st112" d="M33.6,95.4h132.3c-0.1,0.2-0.1,0.4-0.2,0.7H33.8C33.7,95.8,33.7,95.6,33.6,95.4L33.6,95.4z"/>
	<path class="st113" d="M33.7,95.7h132.1c-0.1,0.2-0.1,0.4-0.2,0.7H33.9C33.8,96.1,33.8,95.9,33.7,95.7L33.7,95.7z"/>
	<path class="st114" d="M33.8,96h131.9c-0.1,0.2-0.1,0.4-0.2,0.7H34C33.9,96.5,33.9,96.2,33.8,96L33.8,96z"/>
	<path class="st115" d="M33.9,96.4h131.7c-0.1,0.2-0.1,0.4-0.2,0.7H34.1C34,96.8,34,96.6,33.9,96.4L33.9,96.4z"/>
	<path class="st116" d="M34,96.7h131.5c-0.1,0.2-0.1,0.4-0.2,0.7H34.2C34.1,97.1,34.1,96.9,34,96.7L34,96.7z"/>
	<path class="st116" d="M34.1,97h131.3c-0.1,0.2-0.1,0.4-0.2,0.7H34.3C34.2,97.5,34.2,97.3,34.1,97L34.1,97z"/>
	<path class="st117" d="M34.2,97.4h131.1c-0.1,0.3-0.2,0.7-0.3,1H34.5C34.4,98,34.3,97.7,34.2,97.4L34.2,97.4z"/>
	<path class="st118" d="M34.3,97.7h130.9c-0.1,0.3-0.2,0.7-0.3,1H34.6C34.5,98.4,34.4,98,34.3,97.7L34.3,97.7z"/>
	<path class="st119" d="M34.5,98.4H165c-0.1,0.2-0.1,0.4-0.2,0.7H34.7C34.7,98.8,34.6,98.6,34.5,98.4L34.5,98.4z"/>
	<path class="st120" d="M34.6,98.7h130.3c-0.1,0.2-0.1,0.4-0.2,0.7H34.8C34.8,99.2,34.7,98.9,34.6,98.7L34.6,98.7z"/>
	<path class="st121" d="M34.7,99.1h130.1c-0.1,0.2-0.2,0.4-0.2,0.7H35C34.9,99.5,34.8,99.3,34.7,99.1L34.7,99.1z"/>
	<path class="st121" d="M34.8,99.4h129.8c-0.1,0.2-0.2,0.4-0.2,0.7H35.1C35,99.8,34.9,99.6,34.8,99.4L34.8,99.4z"/>
	<path class="st122" d="M35,99.7h129.6c-0.1,0.2-0.2,0.4-0.2,0.7H35.2C35.1,100.2,35,99.9,35,99.7L35,99.7z"/>
	<path class="st123" d="M35.1,100.1h129.4c-0.1,0.2-0.2,0.4-0.2,0.7H35.3C35.2,100.5,35.2,100.3,35.1,100.1L35.1,100.1z"/>
	<path class="st124" d="M35.2,100.4h129.1c-0.1,0.2-0.2,0.4-0.2,0.7H35.4C35.4,100.8,35.3,100.6,35.2,100.4L35.2,100.4z"/>
	<path class="st125" d="M35.3,100.7h128.9c-0.1,0.2-0.2,0.5-0.2,0.7H35.6C35.5,101.2,35.4,101,35.3,100.7L35.3,100.7z"/>
	<path class="st126" d="M35.4,101.1h128.7c-0.1,0.2-0.2,0.4-0.3,0.7H35.7C35.6,101.5,35.5,101.3,35.4,101.1L35.4,101.1z"/>
	<path class="st127" d="M35.6,101.4H164c-0.1,0.2-0.2,0.4-0.3,0.7H35.8C35.7,101.9,35.7,101.6,35.6,101.4L35.6,101.4z"/>
	<path class="st128" d="M35.7,101.7h128.1c-0.1,0.2-0.2,0.4-0.3,0.7H36C35.9,102.2,35.8,102,35.7,101.7L35.7,101.7z"/>
	<path class="st128" d="M35.8,102.1h127.9c-0.1,0.2-0.2,0.4-0.3,0.7H36.1C36,102.5,35.9,102.3,35.8,102.1L35.8,102.1z"/>
	<path class="st129" d="M36,102.4h127.6c-0.1,0.2-0.2,0.4-0.3,0.7H36.2C36.1,102.9,36,102.6,36,102.4L36,102.4z"/>
	<path class="st130" d="M36.1,102.7h127.4c-0.1,0.2-0.2,0.4-0.3,0.7H36.4C36.3,103.2,36.2,103,36.1,102.7L36.1,102.7z"/>
	<path class="st131" d="M36.2,103.1h127.1c-0.1,0.2-0.2,0.4-0.3,0.7H36.5C36.4,103.5,36.3,103.3,36.2,103.1L36.2,103.1z"/>
	<path class="st131" d="M36.4,103.4h126.8c-0.1,0.2-0.2,0.4-0.3,0.7H36.6C36.6,103.9,36.5,103.6,36.4,103.4L36.4,103.4z"/>
	<path class="st132" d="M36.5,103.8H163c-0.1,0.2-0.2,0.4-0.3,0.7h-126C36.7,104.2,36.6,104,36.5,103.8L36.5,103.8z"/>
	<path class="st0" d="M36.6,104.1h126.3c-0.1,0.2-0.2,0.4-0.3,0.7H36.9C36.8,104.5,36.7,104.3,36.6,104.1L36.6,104.1z"/>
	<path class="st0" d="M36.8,104.4h126c-10.5,24.4-34.9,41.7-62.8,41.7C71.7,146.1,47.3,128.8,36.8,104.4L36.8,104.4z"/>
	<polygon class="st133" points="164.1,94.5 158.5,94.5 158.5,66.5 164.1,66.5 	"/>
	<polygon class="st133" points="158.5,99.1 151.2,99.1 151.2,65.3 158.5,65.3 	"/>
	<polygon class="st133" points="152.4,104.2 143.9,104.2 143.9,65.7 152.4,65.7 	"/>
	<polygon class="st133" points="153.9,68.5 142.5,68.5 142.5,59.2 153.9,59.2 	"/>
	<polygon class="st133" points="147.1,104.4 140.9,104.4 140.9,75.8 147.1,75.8 	"/>
	<polygon class="st133" points="147.1,85.4 140.8,85.4 140.8,81.9 147.1,81.9 	"/>
	<polygon class="st133" points="153.5,104.8 146.2,104.8 146.2,82.5 150,78.8 153.5,82.5 	"/>
	<polygon class="st133" points="140.8,105.7 133.1,105.7 133.1,73.2 140.8,73.2 	"/>
	<polygon class="st133" points="109.1,103.6 101.3,103.6 101.3,68.8 109.1,68.8 	"/>
	<polygon class="st133" points="86.4,89.4 74.9,89.4 74.9,74.7 86.4,74.7 	"/>
	<polygon class="st133" points="86.2,101.5 70.6,101.5 70.6,82.6 86.2,82.6 	"/>
	<polygon class="st133" points="71.4,102.6 63.9,102.6 63.9,79.5 71.4,79.5 	"/>
	<polygon class="st133" points="94.3,110.7 85.5,110.7 85.5,70.5 94.3,70.5 	"/>
	<polygon class="st133" points="101.9,108.7 90.6,108.7 90.6,65.1 101.9,65.1 	"/>
	<polygon class="st133" points="58.1,103.4 51.2,103.4 51.2,81.6 58.1,81.6 	"/>
	<polygon class="st133" points="52,104.1 40.1,104.1 40.1,74.5 52,74.5 	"/>
	<path class="st133" d="M32.6,71.2l7.9,0.1l0.4,34.2l-2.7-0.1c0,0-2.7-4.2-4.1-11.6c-1.4-7.4-1.6-12.5-1.5-17.2
		C32.8,71.9,32.6,71.2,32.6,71.2L32.6,71.2z"/>
	<path d="M108.9,42.2c-0.1,0.9,2.6,1.6,5.4,1.6c2.7,0.1,5.8-0.5,5.8-1.5c0-0.7-4-1.7-6-1.7C112.4,40.8,108.9,41.7,108.9,42.2
		L108.9,42.2z"/>
	<path class="st133" d="M111.5,45v5.6l16.7,2.2v-6.2c0,0-3-1-8.4-1.4C111.9,44.5,111.5,45,111.5,45L111.5,45z"/>
	<path class="st133" d="M109.3,49.7v6.8l22.4,2l0.1-6c0,0-2-0.9-11.4-2.2C111.1,49.2,109.3,49.7,109.3,49.7L109.3,49.7z"/>
	<path class="st133" d="M108.5,55.4v11.5l24.4,1.2V57.9c0,0-1.9-1-11.2-1.9C110,55,108.5,55.4,108.5,55.4L108.5,55.4z"/>
	<path class="st133" d="M107,65c0,0,5.7-1.2,16.5-0.5c9.2,0.5,13.4,2.4,13.4,2.4l0.3,39.8l-30.2-1.2V65L107,65z"/>
	<path class="st133" d="M112.5,42.1l0.1,2.6c0,0,0.5,0,2.2,0c1.7,0,2,0.1,2,0.1l-0.1-2.5c0,0-0.5-0.6-2.1-0.6
		C113.1,41.8,112.5,42.1,112.5,42.1L112.5,42.1z"/>
	<path class="st133" d="M114.6,18.5c-0.5,0-0.7,0.4-0.7,0.4v18.4h1.4V18.8C115.4,18.8,115.2,18.5,114.6,18.5L114.6,18.5z"/>
	<path class="st133" d="M115.5,19.8c0,0,0.7-0.4,2.5,0.2c1.8,0.6,2.5,1,4.3,3c1.2,1.4,2.3,2.6,4,3.2c2.4,0.9,4.9,0.7,4.9,0.7
		l0.2,11.7c0,0-0.7,0.9-5.5-0.2c-2-0.4-2.7-1.3-4.2-2.6c-1.5-1.4-1.7-1.6-3.1-1.8c-2.1-0.3-2.8,0-2.8,0L115.5,19.8L115.5,19.8z"/>
	<path class="st134" d="M121.6,24.2v9.1c0,0,0.4,0.7,2.1,1.7c2.1,1.2,3,0.9,3,0.9v-2.4c0,0-0.5-0.5-1.4-1c-0.7-0.4-1.2-0.9-1.2-0.9
		l-0.1-4.9c0,0-0.6-0.3-1.2-0.9C122.1,24.9,121.6,24.2,121.6,24.2L121.6,24.2z"/>
	<path class="st133" d="M36.8,102.7c0,0,0.5,1.6,2,4.7c1.9,4.1,2.8,5.3,2.8,5.3l44-4.9L85.5,98c0,0-4.8,0.1-8.2,0.5
		c-3.5,0.4-8,1.1-11.8,1.9c-3.8,0.8-9,1.7-14.7,2C45.1,102.8,36.8,102.7,36.8,102.7L36.8,102.7z"/>
	<polygon points="114.1,54.2 112.3,54.2 112.3,51.9 114.1,51.9 	"/>
	<polygon points="118.6,54.4 116.8,54.4 116.8,52.1 118.6,52.1 	"/>
	<polygon points="123.1,54.8 121.3,54.8 121.3,52.5 123.1,52.5 	"/>
	<polygon points="127.4,55.2 125.6,55.2 125.6,53 127.4,53 	"/>
	<polygon points="113.7,61.3 111.9,61.3 111.9,59 113.7,59 	"/>
	<polygon points="120,61.6 118.2,61.6 118.2,59.3 120,59.3 	"/>
	<polygon points="125.3,61.8 123.5,61.8 123.5,59.6 125.3,59.6 	"/>
	<polygon points="129.7,62.5 127.9,62.5 127.9,60.2 129.7,60.2 	"/>
	<polygon points="112.8,69 110.9,69 110.9,66.7 112.8,66.7 	"/>
	<polygon points="118.3,68.7 116.4,68.7 116.4,66.4 118.3,66.4 	"/>
	<polygon points="123,68.6 121.2,68.6 121.2,66.4 123,66.4 	"/>
	<polygon points="129,68.9 127.1,68.9 127.1,66.7 129,66.7 	"/>
	<polygon points="134,69.5 132.1,69.5 132.1,67.3 134,67.3 	"/>
	<polygon points="119.4,76.2 117.6,76.2 117.6,74 119.4,74 	"/>
	<polygon points="123.6,76.3 121.8,76.3 121.8,74.1 123.6,74.1 	"/>
	<polygon points="127.8,76.2 126,76.2 126,74 127.8,74 	"/>
	<polygon points="132.1,76.2 130.3,76.2 130.3,74 132.1,74 	"/>
	<polygon points="95.8,78.9 93.9,78.9 93.9,76.4 95.8,76.4 	"/>
	<polygon points="89.3,81.1 87.3,81.1 87.3,78.7 89.3,78.7 	"/>
	<polygon points="83.4,78.8 81.6,78.8 81.6,76.4 83.4,76.4 	"/>
	<polygon points="79.3,78.8 77.5,78.8 77.5,76.4 79.3,76.4 	"/>
	<polygon points="150.8,86.3 149.9,86.8 148.9,86.3 148.9,84 150.8,84 	"/>
	<polygon points="150.7,91.8 148.9,91.8 148.9,89.5 149.8,88.9 150.7,89.5 	"/>
	<polygon points="150.7,98.6 148.9,98.6 148.9,96.2 150.7,96.2 	"/>
	<polygon points="144.5,92.7 142.6,92.7 142.6,90.3 144.5,90.3 	"/>
	<polygon points="144.5,100.5 142.5,100.5 142.5,97.9 144.5,97.9 	"/>
	<polygon points="95.8,98.6 93.8,98.6 93.8,96.2 95.8,96.2 	"/>
	<polygon points="45.9,81.1 44.2,81.1 44.2,78.7 45.9,78.7 	"/>
	<polygon points="46.3,93.4 44.4,93.4 44.4,91 46.3,91 	"/>
	<polygon points="49.4,92.7 47.8,92.7 47.8,90.3 49.4,90.3 	"/>
	<polygon points="49.4,81.8 47.7,81.8 47.7,79.5 49.4,79.5 	"/>
	<polygon points="38.1,92.9 36.2,92.9 36.2,90.4 38.1,90.4 	"/>
	<polygon points="120.8,106.7 120.1,106.7 120.1,79 120.8,79 	"/>
	<polygon points="124.5,106.5 123.8,106.5 123.8,78.8 124.5,78.8 	"/>
	<polygon points="128.8,106.8 128.1,106.8 128.1,79.1 128.8,79.1 	"/>
	<path class="st133" d="M79.6,98.3l-6.2,9.1l2,0.3l6.9-9.5c0,0-0.6-0.1-1.5,0C80,98.3,79.6,98.3,79.6,98.3L79.6,98.3z"/>
	<path class="st133" d="M70.9,99.4l-6.1,8.9l2,0.3l6.8-9.5c0,0-0.4,0-1.3,0.1C71.3,99.3,70.9,99.4,70.9,99.4L70.9,99.4z"/>
	<path class="st133" d="M61.8,101.2l-5.7,9.3l2,0.2l6.5-10c0,0-0.9,0.2-1.4,0.3C62.2,101.1,61.8,101.2,61.8,101.2L61.8,101.2z"/>
	<path class="st133" d="M53.5,102.3l-6.5,9.3l2.4-0.1l6.9-9.6c0,0-0.6,0.1-1.5,0.2C53.9,102.2,53.5,102.3,53.5,102.3L53.5,102.3z"/>
	<path class="st133" d="M45.2,102.7l-5.2,7.5l1,1.8l7-9.5c0,0-0.7,0.1-1.5,0.1C45.7,102.6,45.2,102.7,45.2,102.7L45.2,102.7z"/>
	<path class="st135" d="M40.6,111.1c0,0,5.4,0,7.5,0c2,0,6.1-0.6,7.6-1.1c2-0.6,2.7-0.3,4.4-1c1.7-0.7,4.7-1.9,6.1-2.1
		c1.4-0.2,4.6-0.6,7.1-0.3c2.5,0.3,5,0.1,5.9-0.2c0.9-0.3,3-0.3,3.9-0.7c0.8-0.4,2.4-0.6,3.7-0.3c1.2,0.3,3.4,1.7,4.9,1.7
		c1.5,0,7.9,0.8,9.5-1.2c1.5-2,2.1-3.7,2.1-3.7s0.3-0.3,5,0.2c3.6,0.4,5.7-0.5,8.8,0.3c3.2,0.8,6.8,2.3,9.3,2.7
		c2.4,0.4,4,0.7,7.1-1.1c1.7-1,5.2-0.4,6.7-0.8c2.1-0.6,2.8-2,2.8-2s0.4,0,2.7,1.1c1.7,0.8,6.3,0.2,6.3,0.2s-0.1-0.9,0.1-2.3
		c0.2-1.3,1.1-1.6,2.5-2.7c1.4-1.1,3.4-2.7,4.4-5c1-2.2,2-3.3,3.4-4c3.3-1.5,5-1,5-1s-1.5,7.2-4,14.2c-7.3,20.5-27.7,43.4-65.6,43.1
		c-32.4-0.3-47-19.8-50.8-24.6C43.2,115.6,40.6,111.1,40.6,111.1L40.6,111.1z"/>
	<path class="st136" d="M119.1,112.1c0,0,0.5,0.5,1.6,0c0.6-0.2,0.5-0.7,1.1-1.4c0.5-0.6,0.7-0.2,1.4-0.9c0.6-0.6,0.3-1.2,1.1-1.6
		c0.7-0.4,1.4-0.3,1.8,0.1c0.4,0.4,0.9,1,1.6,0.5c1.8-1.4,2.8-3.1,2.8-3.1 M152,102.4c0,0,0.3,1.7-1.8,4.6c-1.6,2.2-2.1,3.7-2.4,6.6
		c-0.2,1.4,0,1.4,0,1.4s0.5-0.1,2.2,0.1c1.4,0.1,2,0.6,3.7,0.5c1.8-0.1,2.8-0.4,2.8-0.4 M133.1,128.1c0,0-4.4-3.2-7.5-5.4
		c-3-2.2-4.9-3.7-6.2-4.3c-1.2-0.6-5.3,0.3-6.5,0.1c-1.2-0.2-5.3-8.6-6.2-9.3c-0.9-0.7-10-0.7-11.3-0.2c-1.3,0.5-1.5,0.9-2.1,0.8
		s-3.7-0.2-4.3,0c-0.6,0.2-1.6,2.7-2.1,3.1c-0.5,0.4-1.6,0.3-2.5,1c-0.9,0.7-1.8,1.5-2.8,1.8c-1,0.3-3.1,0.6-4.7,1.1
		s-4.9,0.7-6.3,0.7 M109,118.9c-0.9,0.3-4.9,0.3-6,0.5c-1.2,0.3-3.2,1-4.2,1c-1,0-2-0.3-2.4-0.3s-0.8,0.7-1.6,0.9s-3.1-0.1-4,0.6
		c-0.9,0.7-2.8,3.7-3.8,4.5"/>
	<path class="st137" d="M65.9,112.3l-4.6,4v17.7c0,0,1.6,1.1,4.7,2.8c3.3,1.8,5.1,1.6,5.1,1.6v-22L65.9,112.3L65.9,112.3z"/>
	<path class="st137" d="M61.3,116.3l-4.8-3.9l-4.7,3.8l0.1,10.1c0,0,1.8,1.9,4.5,4c2.6,2,4.9,3.8,4.9,3.8L61.3,116.3L61.3,116.3z"/>
	<path d="M99.7,8.6L99.7,8.6L99.7,8.6c19.1,0,36.3,7.8,48.9,20.3s20.3,29.8,20.3,48.8h0v0v0h0c0,19-7.8,36.3-20.3,48.8
		s-29.8,20.3-48.9,20.3v0h0h0v0c-19.1,0-36.3-7.8-48.9-20.3S30.6,96.7,30.6,77.7h0v0v0h0c0-19,7.8-36.3,20.3-48.8
		C63.4,16.3,80.7,8.6,99.7,8.6L99.7,8.6L99.7,8.6L99.7,8.6z M99.7,10.6L99.7,10.6L99.7,10.6L99.7,10.6L99.7,10.6
		c-18.5,0-35.3,7.5-47.4,19.7S32.6,59.2,32.6,77.7h0v0v0h0c0,18.5,7.5,35.2,19.7,47.4c12.2,12.1,28.9,19.7,47.4,19.7v0h0h0v0
		c18.5,0,35.3-7.5,47.4-19.7c12.2-12.1,19.7-28.9,19.7-47.4h0v0v0h0c0-18.5-7.5-35.2-19.7-47.4C135,18.1,118.2,10.6,99.7,10.6
		L99.7,10.6z"/>
	<path class="st133" d="M109.2,38l-0.1,4.1c0,0,1.9-1.3,5.1-1.3c3.3,0,5.7,1.4,5.7,1.4l0.1-4.2c0,0-1.3-1.1-5.5-1.1
		C110.1,36.9,109.2,38,109.2,38L109.2,38z"/>
	<path class="st138" d="M192.8,76.4c0,0-5.2,2-7.3,5.3c-2.6,4.1-1.1,12.6-1.2,14.8c-0.1,2.2-0.9,3.6-1.6,5.3
		c-0.7,1.8-1.5,4.7-2.2,4.5c0,0,0-2.6,0.8-4.6c0.8-2,1.6-5.8,0.4-8.9c-1.2-3.1-3.5-3.8-3.5-3.8s-0.3,2.2-0.4,3.4
		c-0.1,1.8-2.2,4.3-1.9,6.9c0.7,5.6,3.3,6.1,3.1,11.1c-0.1,2.3-1.6,5.1-2.8,7.6c-0.7,1.4-1.5,4.3-2.2,4.3c0,0,0.3-1.8,1.1-4.6
		c0.8-2.8,0.7-5.8-0.8-9.2c-1.5-3.4-2.2-4.1-2.2-4.1s-0.4,1.9-1.2,3.8c-0.8,1.9-1.9,6.1-0.5,8.9c1.4,2.8,2.4,6.9,1.8,8.4
		c-0.7,1.5-2.2,5.7-3.9,8.4c-1.8,2.7-1.6,4.9-2.7,4.5c-1.1-0.4,0-2.6,0.7-4.6c0.7-2,1.8-4.2,1.9-6.8c0.2-4.3-2.4-8.7-2.4-8.7
		s-0.8,2.2-1.9,3c-1.1,0.8-3.5,3.8-3.4,6.1c0.3,4.1,1.7,5.5,2.3,8.3c0.5,2.4,0.8,6.4-0.9,7.9c-1.8,1.5-5.6,6.1-6.2,6
		c-0.7-0.1,0-1.6,0.8-3.1c0.8-1.5,3.7-6.1,3.1-9.5c-0.5-3.4-1.4-3-1.9-5.1c-0.5-2.2-0.5-2.2-0.5-2.2s-0.9,2.3-2.3,4.3
		c-1.4,2-4.2,5-3,9.3c1.2,4.3,2.4,7.3,0,10.2c-2.4,2.8-9.1,6.5-11.7,7.6c-2.6,1.1,7.2,4.9,7.2,4.9s-1.1-1.6-0.1-3.2
		c0.9-1.6,3-4.1,4.1-4.1s3.6,1,5.8,2.8c4.9,4.2,10.3,1.6,13,0.7c2.7-0.9-3-6.3-6.4-7.3c-4.7-1.4-6.1-0.4-9.4,1.8
		c-1.2,0.8-2.6,0.7-2.2,0.1c0.4-0.5,3.3-1.6,5-3.5c1.8-1.9,2.4-3.7,3.3-3.7c0.8,0,4.9,1.5,7.5,1.1c10-1.5,10-10.4,10-10.4
		s-6.2-0.5-8.5,1.2c-4.2,3.1-7.3,5.4-7.3,5.4s1.9-1.6,3.5-4.2c1.2-1.9,1.8-4.6,5.2-5.6c3.7-1.1,5.9-0.9,8.5-2.2
		c5-2.4,8.1-8.4,8.1-8.4s-5-1-8.3,0.5c-4.1,1.9-8.1,8.7-8.8,7.9c-0.3-0.4,1-2.9,2.6-5.1c1.6-2.1,3.5-3.9,7.7-5.1
		c4.3-1.2,6.9-2,9.1-6c2.2-4,2.7-4.9,2.7-4.9s-5.2-0.4-9,2.2c-3.9,2.6-6,9-7.2,8.3c-1-0.5,0.6-1.8,1.5-4.1c0.9-2.2,1.8-5.2,3.2-6.8
		c2.7-3.2,4.6-2.4,7.4-3.2c2.8-0.8,4.8-2.2,6-4.7c1.9-4.1,2-7,2-7s-3.5-0.1-7.3,2.1c-2.9,1.7-4.4,6.7-5.7,6.7c-0.9,0-0.2-1,0.7-3.6
		c0.5-1.4,1.1-4.7,2.9-7.1c1.8-2.4,3.3-2.3,4.6-6.1c0.8-2.3,1.1-3.4,0.9-6c-0.2-2.6-0.4-4.4-0.2-5.9
		C192.4,77.4,192.8,76.4,192.8,76.4L192.8,76.4z"/>
	<path class="st138" d="M147.1,141.5c0,0-1.5,2.2-2.8,3.6c-2.5,2.6-2.1,10.3,0.1,13.1c1.3,1.6,0.8,1.5,2.2-0.5
		c3.9-5.3,3.2-9.2,1.3-12.7C147.1,143.4,147.1,141.5,147.1,141.5L147.1,141.5z"/>
	<path class="st138" d="M7.2,76.8c0,0,5.2,2,7.3,5.3c2.6,4.1,1.1,12.6,1.2,14.8c0.1,2.2,0.9,3.6,1.6,5.3c0.7,1.8,1.5,4.7,2.2,4.5
		c0,0,0-2.6-0.8-4.6c-0.8-2-1.6-5.8-0.4-8.9c1.2-3.1,3.5-3.8,3.5-3.8s0.3,2.2,0.4,3.4c0.1,1.8,2.2,4.3,1.9,6.9
		c-0.7,5.6-3.3,6.1-3.1,11.1c0.1,2.3,1.6,5.1,2.8,7.6c0.7,1.4,1.5,4.3,2.2,4.3c0,0-0.3-1.8-1.1-4.6c-0.8-2.8-0.7-5.8,0.8-9.2
		c1.5-3.4,2.2-4.1,2.2-4.1s0.4,1.9,1.2,3.8c0.8,1.9,1.9,6.1,0.5,8.9c-1.4,2.8-2.4,6.9-1.8,8.4c0.7,1.5,2.2,5.7,3.9,8.4
		c1.8,2.7,1.6,4.9,2.7,4.5c1.1-0.4,0-2.6-0.7-4.6c-0.7-2-1.8-4.2-1.9-6.8c-0.2-4.3,2.4-8.7,2.4-8.7s0.8,2.2,1.9,3
		c1.1,0.8,3.5,3.8,3.4,6.1c-0.3,4.1-1.7,5.5-2.3,8.3c-0.5,2.4-0.8,6.4,0.9,7.9c1.8,1.5,5.6,6.1,6.2,6c0.7-0.1,0-1.6-0.8-3.1
		c-0.8-1.5-3.7-6.1-3.1-9.5c0.5-3.4,1.4-3,1.9-5.1c0.5-2.2,0.5-2.2,0.5-2.2s0.9,2.3,2.3,4.3c1.4,2,4.2,5,3,9.3
		c-1.2,4.3-2.4,7.3,0,10.2c2.4,2.8,9.1,6.5,11.7,7.6c2.6,1.1-7.2,4.9-7.2,4.9s1.1-1.6,0.1-3.3c-0.9-1.6-3-4.1-4.1-4.1
		s-3.6,1-5.8,2.8c-4.9,4.2-10.3,1.6-13,0.7c-2.7-0.9,3-6.3,6.4-7.3c4.7-1.4,6.1-0.4,9.4,1.8c1.2,0.8,2.6,0.7,2.2,0.1
		c-0.4-0.5-3.3-1.6-5-3.5c-1.8-1.9-2.4-3.7-3.3-3.7s-4.9,1.5-7.5,1.1c-10-1.5-10-10.4-10-10.4s6.2-0.5,8.5,1.2
		c4.2,3.1,7.3,5.4,7.3,5.4s-1.9-1.6-3.5-4.2c-1.2-1.9-1.8-4.6-5.2-5.6c-3.7-1.1-5.9-0.9-8.5-2.2c-5-2.4-8.1-8.4-8.1-8.4s5-1,8.3,0.5
		c4.1,1.9,8.1,8.7,8.8,7.9c0.3-0.4-1-2.9-2.6-5.1c-1.6-2.1-3.5-3.9-7.7-5.1s-6.9-2-9.1-6c-2.2-4-2.7-4.9-2.7-4.9s5.2-0.4,9,2.2
		c3.9,2.6,6,9,7.2,8.3c1-0.5-0.6-1.8-1.5-4.1c-0.9-2.2-1.8-5.2-3.2-6.8c-2.7-3.2-4.6-2.4-7.4-3.2c-2.8-0.8-4.8-2.2-6-4.7
		c-1.9-4.1-2-7-2-7s3.5-0.1,7.3,2.1c2.9,1.7,4.4,6.7,5.7,6.7c0.9,0,0.2-1-0.7-3.6c-0.5-1.4-1.1-4.7-2.9-7.1
		c-1.8-2.4-3.3-2.3-4.6-6.1c-0.8-2.3-1.1-3.4-0.9-6c0.2-2.6,0.4-4.4,0.2-5.9C7.6,77.8,7.2,76.8,7.2,76.8L7.2,76.8z"/>
	<path class="st139" d="M68,138.5c0,0,15.4-4.9,31.1-4.9c21.8,0,32.5,4.7,32.5,4.7s0.4,28.2,18.9,27.8c17.9-0.4,16.3-23.6,16.3-23.6
		l6.3,13.8c0,0,4.7,22.3-4.7,25.2c-9.4,2.8-138.6,2.4-143.9,0c-5.3-2.4,2-24.8,2-24.8l6-13.1c0,0,0.7,23.5,13.8,23.3
		C68.6,166.6,68,138.5,68,138.5L68,138.5z"/>
	<path class="st139" d="M66,136.8c-1.4,0.8,0.1,9-2.8,16c-6.8,16.8-26.8,14.5-27.3-0.2c-0.2-5.3,1.7-8.3,0.8-10.4
		c-0.6-1.3-2.6-1.1-3.5-0.3c-0.8,0.8-4.2,12.2,1,20.2c7.2,11,21.5,7.9,28.5,0.4c7-7.6,7.1-22.1,7.1-22.1c0.8-1,12.6-4.5,29.7-4.3
		c18.1,0.2,29.3,2.7,30.2,4c0,0-1.2,13.2,7.6,22.4c8.4,8.7,22.7,8,28.7-2.6c3.9-6.9,1.5-16.2,0.8-17.3c-1.1-1.5-2.7-1.5-3.9-0.2
		c-0.7,0.8,1.3,7.1,0.4,11.2c-2.8,13.4-20.5,13.9-26.8-0.8c-3.4-8-1.7-15.2-2.5-15.9c-4.9-4.3-23-5.4-34.9-5.3
		C85.4,131.6,71.4,133.7,66,136.8L66,136.8z"/>
	<path class="st139" d="M69.8,160.9c-0.1,1.2,1.7,2.8,5.8,1.6c3.2-0.9,12.7-1.9,23.6-1.9c11.2,0,18.9,0.7,23.8,1.9
		c2.5,0.6,6.7-0.1,6.8-1.5c0.1-1.1-1.8-2.6-5.2-2.9c-6.3-0.6-6.3,1.3-6.3,1.3s-13.4-1.2-18.8-1.2c-5.4,0-18.2,1.2-18.2,1.2
		s-1.3-2-7.8-0.7C72,158.9,69.9,159.9,69.8,160.9L69.8,160.9z"/>
	<path class="st140" d="M78.6,138.8l7,0l-0.4,2.4l-0.6,0c-0.3,0-0.6,0-0.7,0.1c-0.2,0.1-0.3,0.2-0.4,0.4c-0.1,0.2-0.2,0.4-0.3,0.8
		l-1.8,10.1c-0.1,0.4-0.1,0.7-0.1,0.7c0,0.1,0.1,0.2,0.1,0.2c0.1,0.1,0.3,0.1,0.5,0.1c0.9,0,1.7-0.1,2.3-0.4
		c0.6-0.3,1.2-0.8,1.7-1.4c0.6-0.6,1.1-1.5,1.6-2.7l1.7,0.8l-3.5,6.6l-10.4-0.1l0.4-2.4l0.7,0c0.3,0,0.5,0,0.7-0.1
		c0.2-0.1,0.3-0.2,0.4-0.4c0.1-0.2,0.2-0.4,0.2-0.8l1.8-10c0.1-0.4,0.1-0.7,0.1-0.9c0-0.2-0.1-0.3-0.2-0.4c-0.1-0.1-0.3-0.1-0.6-0.1
		l-0.8,0L78.6,138.8L78.6,138.8z"/>
	<path class="st140" d="M93.2,138.5l10.6,0.1l-0.7,5h-1.9v-2.5h-2.8l-1.1,5.4l2.2-0.1l0.3-1.4l1.9,0.1l-1,5.7l-1.9-0.1l0.2-1.9h-2.2
		l-0.8,5.1l1.9-0.1l0.1,2.4l-6.8,0.1c0,0,0.9-1,1.4-2.3c0.5-1.4,2.1-13,2.1-13l-1.8,0L93.2,138.5L93.2,138.5z"/>
	<path class="st140" d="M115.6,144.6l2,0.1c0,0,0.8-3.7,0.6-4.5c-0.2-1.2-2.6-1.6-2.7-1.3c-0.2,0.6-0.9-0.5-4.2-0.2
		c-2.2,0.2-6.2,2.2-7.4,8.6c-0.9,5,2.7,9.3,7.2,9c2-0.1,3.1-1.3,3.1-1.3s0.3,1.1,0.9,0.6c1-0.7,2-4,2-4l-1.6-1.4
		c0,0-0.7,2.1-2.1,3.2c-1.5,1.2-6.8,1.8-6-6.3c0.4-4.2,3.3-6.3,4.6-6.3c1.4,0,2.9,0.5,3.3,1.4C115.9,143.5,115.6,144.6,115.6,144.6
		L115.6,144.6z"/>
	<path class="st140" d="M87.6,154.4c0,1.2,0.9,2.1,2.1,2.1c1.2,0,2.1-0.9,2.1-2.1c0-1.2-0.9-2.1-2.1-2.1
		C88.6,152.3,87.6,153.3,87.6,154.4L87.6,154.4z"/>
	<path class="st140" d="M99.5,154.1c0,1.2,0.9,2.1,2.1,2.1c1.2,0,2.1-0.9,2.1-2.1c0-1.2-0.9-2.1-2.1-2.1
		C100.5,152,99.5,153,99.5,154.1L99.5,154.1z"/>
	<path class="st140" d="M116.9,154.4c0,1.2,0.9,2.1,2.1,2.1c1.2,0,2.1-0.9,2.1-2.1c0-1.2-0.9-2.1-2.1-2.1
		C117.8,152.3,116.9,153.3,116.9,154.4L116.9,154.4z"/>
	<path class="st138" d="M13.4,164.2L9,183c0,0,1.2,6.3,10.2,11.7c6.2,3.8,14.9,3,28.1,1.4c11.9-1.5,25.2-3.6,25.2-3.6l-2.5-27.8
		c0,0-23.4,10-31.8,10.3c-20.3,0.5-24.6-11.1-24.6-11.1L13.4,164.2L13.4,164.2z"/>
	<path class="st138" d="M186.1,164.5l4.4,18.8c0,0-1.2,6.3-10.2,11.7c-6.2,3.8-14.9,3-28.1,1.4c-11.9-1.5-25.2-3.6-25.2-3.6
		l2.5-27.8c0,0,23.4,10,31.8,10.3c20.3,0.5,24.6-11.1,24.6-11.1L186.1,164.5L186.1,164.5z"/>
	<path class="st138" d="M64.2,176.4l8,19c0,0,14.6-3.2,27.7-3.4c13.6-0.1,28,3.4,28,3.4l7.3-19.1c0,0-27.6-2.7-35.6-2.7
		S64.2,176.4,64.2,176.4L64.2,176.4z"/>
	<path class="st138" d="M170.8,158.4c1.5-1.5,7.3-1.3,9.5,0.9c2.1,2.2,3,7.9,0.4,10.2c-2.6,2.2-8.4,3.1-10.3,0.7
		C168.5,167.8,170.8,158.4,170.8,158.4L170.8,158.4z"/>
	<polygon class="st138" points="166.6,161.8 167.5,173.8 176.6,172.3 176.1,167 	"/>
	<path class="st138" d="M23.7,156.9c-3,0.7-7.5,4-7.4,7.1c0.1,3.1,4.3,8.6,7.6,8.5c3.4-0.1,7.4-4.8,6.7-8.6
		C29.9,160,26.5,156.3,23.7,156.9L23.7,156.9z"/>
	<polygon class="st138" points="23.4,166.4 22.7,171.4 32.6,173.5 33,161.9 	"/>
	<path class="st141" d="M119.9,164.3l-1.7,9c0,0,8.8,3.2,9.7-0.4C128.7,169.3,119.9,164.3,119.9,164.3L119.9,164.3z"/>
	<path class="st141" d="M79.6,164.4l1.7,9c0,0-8.8,3.3-9.7-0.4C70.8,169.4,79.6,164.4,79.6,164.4L79.6,164.4z"/>
	<path class="st138" d="M117.2,175.5c7.2,2.4,17.1,3.2,18.1,0.8c1.4-3.5-2.3-4.1-4.4-6.7c-0.9-1.1-1.3-2.2,0.4-2.6
		c1.3-0.3,11.1,5.6,22.1,8.3c17.5,4.4,27-0.1,30.2-4.6c5.1-7.2,1.3-11.9-2.9-14.1c-4.6-2.4-10.5-1.9-13,1.7
		c-1.8,2.6-1.4,6.4,1.7,7.9c4,1.9,6.8,0.8,6.8,0.8v-2.9c0,0-4.9,0.1-5.3-1.9c-1-5.4,11.3-3,9.9,3.2c-1,4.5-8.8,10-25.9,5.6
		c-17.2-4.5-19.8-7.4-25.5-8.6c-8.8-1.9-8.9,0-9.5,1.9c-0.5,1.9,3.6,3.6,5.3,5.2c1.7,1.6,2.3,2.2,1.3,3.5c-1.1,1.3-4.9,0.6-9.3-0.8
		c-10.9-3.7-27.5-2.3-34.9,0.1c-4.3,1.4-8.1,2.1-9.2,0.8c-1-1.2-0.4-1.8,1.3-3.5c1.7-1.6,5.8-3.2,5.3-5.2c-0.5-1.9-0.7-3.8-9.5-1.9
		c-5.7,1.2-8.3,4.2-25.5,8.6c-17.1,4.4-24.8-1.1-25.9-5.6c-1.6-6.5,10.6-8.3,9.9-3.2c-0.3,2-5.3,1.9-5.3,1.9v2.9
		c0,0,2.8,1.1,6.8-0.8c3.1-1.5,3.5-5.3,1.7-7.9c-2.5-3.7-8.4-4.2-13-1.7c-4.2,2.3-8.1,7.6-2.9,14.1c3.4,4.3,12.7,8.9,30.2,4.6
		c11-2.7,20.8-8.6,22.1-8.3c1.7,0.4,1.3,1.5,0.4,2.6c-2.1,2.6-6,2.6-4.4,6.7c1,2.6,10.9,1.6,18.1-0.8
		C90.3,172.9,110,173,117.2,175.5L117.2,175.5z"/>
	<path d="M74.7,190.9c-0.7-2.8-1.4-5.7-2-8.5c1.8-0.4,3.6-0.8,5.5-1.2c0.1,0.5,0.2,1,0.3,1.4c-1.3,0.2-2.5,0.5-3.8,0.8
		c0.2,0.7,0.3,1.3,0.5,2c1.1-0.2,2.1-0.5,3.2-0.7c0.1,0.5,0.2,1,0.3,1.4c-1.1,0.2-2.1,0.4-3.2,0.7c0.3,1.2,0.5,2.4,0.8,3.6
		C75.7,190.7,75.2,190.8,74.7,190.9L74.7,190.9z"/>
	<path d="M79.9,185.4c-0.2-0.9-0.2-1.6,0-2.3c0.1-0.5,0.3-0.9,0.5-1.3c0.3-0.4,0.6-0.7,0.9-0.9c0.5-0.3,1-0.5,1.7-0.6
		c1.2-0.2,2.2,0.1,3,0.8c0.8,0.7,1.3,1.8,1.4,3.2c0.2,1.4-0.1,2.5-0.6,3.4c-0.6,0.9-1.4,1.4-2.5,1.5c-1.1,0.2-2-0.1-2.8-0.8
		C80.7,187.8,80.1,186.8,79.9,185.4L79.9,185.4z M81.5,185.1c0.2,1,0.5,1.7,1,2.1c0.5,0.4,1,0.6,1.6,0.5c0.6-0.1,1.1-0.4,1.4-1
		c0.3-0.6,0.4-1.3,0.3-2.3c-0.1-1-0.4-1.7-0.9-2.1c-0.5-0.4-1-0.6-1.7-0.5c-0.7,0.1-1.2,0.4-1.5,1C81.4,183.3,81.3,184.1,81.5,185.1
		L81.5,185.1z"/>
	<path d="M89,188.5c-0.3-2.9-0.6-5.8-0.9-8.7c1.1-0.1,2.3-0.2,3.4-0.3c0.9-0.1,1.5,0,1.9,0.1c0.4,0.1,0.7,0.4,1,0.8
		c0.3,0.4,0.4,0.8,0.4,1.4c0,0.7-0.1,1.2-0.4,1.6c-0.3,0.4-0.8,0.7-1.5,0.9c0.4,0.2,0.6,0.4,0.9,0.7c0.2,0.3,0.6,0.7,0.9,1.4
		c0.3,0.6,0.7,1.1,1,1.7c-0.6,0-1.2,0.1-1.8,0.1c-0.4-0.6-0.8-1.2-1.2-1.8c-0.4-0.7-0.7-1.1-0.9-1.2c-0.2-0.2-0.3-0.3-0.5-0.3
		c-0.2-0.1-0.4-0.1-0.8,0c-0.1,0-0.2,0-0.3,0c0.1,1.2,0.2,2.4,0.3,3.6C90,188.4,89.5,188.4,89,188.5L89,188.5z M90.1,183.3
		c0.4,0,0.8-0.1,1.2-0.1c0.8-0.1,1.2-0.1,1.4-0.2c0.2-0.1,0.3-0.2,0.4-0.4c0.1-0.2,0.1-0.4,0.1-0.7c0-0.3-0.1-0.5-0.3-0.7
		c-0.2-0.2-0.4-0.3-0.6-0.3c-0.1,0-0.5,0-1.2,0.1c-0.4,0-0.8,0.1-1.2,0.1C90,181.9,90.1,182.6,90.1,183.3L90.1,183.3z"/>
	<path d="M98.3,188c0-2.4-0.1-4.8-0.1-7.2c-0.8,0-1.6,0-2.4,0.1c0-0.5,0-1-0.1-1.5c2.1-0.1,4.3-0.1,6.4,0c0,0.5,0,1,0,1.5
		c-0.8,0-1.6,0-2.4,0c0,2.4,0,4.8,0,7.2C99.3,188,98.8,188,98.3,188L98.3,188z"/>
	<path d="M103.2,179.3c0.5,0,1.1,0,1.6,0.1c-0.1,1.6-0.1,3.2-0.2,4.7c0,0.7,0,1.2,0,1.5c0,0.4,0.2,0.7,0.4,0.9
		c0.2,0.2,0.6,0.4,1,0.4c0.4,0,0.8-0.1,1-0.2c0.2-0.2,0.4-0.4,0.4-0.7c0.1-0.3,0.1-0.8,0.2-1.5c0.1-1.6,0.2-3.2,0.3-4.8
		c0.5,0,1.1,0.1,1.6,0.1c-0.1,1.5-0.3,3-0.4,4.6c-0.1,1-0.2,1.8-0.3,2.2c-0.1,0.4-0.3,0.8-0.5,1.1c-0.2,0.3-0.6,0.5-0.9,0.6
		c-0.4,0.2-0.9,0.2-1.4,0.2c-0.7,0-1.2-0.2-1.6-0.4c-0.4-0.2-0.6-0.5-0.8-0.8c-0.2-0.3-0.3-0.6-0.4-1c-0.1-0.5-0.1-1.2-0.1-2.2
		C103.1,182.4,103.2,180.8,103.2,179.3L103.2,179.3z"/>
	<path d="M110.5,188.5c0.3-2.9,0.6-5.8,0.9-8.7c0.5,0.1,1.1,0.1,1.6,0.2c0.9,2.1,1.7,4.1,2.5,6.2c0.3-1.9,0.6-3.9,0.8-5.8
		c0.5,0.1,1,0.2,1.5,0.2c-0.5,2.9-0.9,5.7-1.4,8.6c-0.5-0.1-1-0.2-1.5-0.2c-0.7-2-1.5-4.1-2.4-6.1c-0.2,1.9-0.4,3.8-0.7,5.7
		C111.4,188.6,111,188.6,110.5,188.5L110.5,188.5z"/>
	<path d="M124.6,190.9c-0.5-0.1-1.1-0.3-1.6-0.4c-0.1-0.7-0.1-1.4-0.2-2.1c-1-0.2-2-0.4-3-0.6c-0.3,0.6-0.7,1.2-1,1.8
		c-0.5-0.1-1.1-0.2-1.6-0.3c1.4-2.7,2.9-5.4,4.5-8c0.6,0.1,1.1,0.2,1.7,0.3C123.9,184.8,124.3,187.8,124.6,190.9L124.6,190.9z
		 M122.6,186.9c-0.1-1.1-0.3-2.3-0.4-3.4c-0.6,1-1.1,2-1.7,3C121.2,186.6,121.9,186.8,122.6,186.9L122.6,186.9z"/>
	<path d="M17.6,187.6l-1.2-1l0.7-1.9l-2.3-1.9l-1.7,1.1l-1.2-1l7.4-4.7l1.2,1L17.6,187.6L17.6,187.6z M17.6,183.3l1.1-3L16,182
		L17.6,183.3L17.6,183.3z"/>
	<path d="M22.4,181.1l1.4,0.6l-1.8,4.1c-0.3,0.7-0.5,1.1-0.5,1.3c-0.1,0.3,0,0.7,0.1,0.9c0.1,0.3,0.4,0.5,0.8,0.7
		c0.4,0.2,0.7,0.2,1,0.1c0.3-0.1,0.5-0.3,0.7-0.5c0.2-0.2,0.4-0.7,0.6-1.3l1.8-4.2l1.4,0.6l-1.7,4c-0.4,0.9-0.7,1.5-1,1.9
		c-0.2,0.3-0.5,0.6-0.8,0.8c-0.3,0.2-0.7,0.3-1.1,0.3c-0.4,0-0.9-0.1-1.4-0.3c-0.7-0.3-1.1-0.6-1.4-0.9c-0.3-0.3-0.4-0.7-0.5-1
		c-0.1-0.4-0.1-0.7,0-1c0.1-0.5,0.3-1.1,0.7-2L22.4,181.1L22.4,181.1z"/>
	<path d="M42.5,192.3l-1.5,0l-0.6-1.9l-2.9,0l-0.6,1.9l-1.5,0l2.7-8.3l1.5,0L42.5,192.3L42.5,192.3z M39.8,189l-1-3.1l-0.9,3.1
		L39.8,189L39.8,189z"/>
	<path d="M29.5,183.5l2.8,0.3c0.6,0.1,1.1,0.2,1.4,0.3c0.4,0.2,0.8,0.5,1,0.9c0.3,0.4,0.5,0.9,0.6,1.4c0.1,0.5,0.1,1.2,0,2
		c-0.1,0.7-0.2,1.3-0.4,1.7c-0.3,0.6-0.6,1-1,1.4c-0.3,0.3-0.7,0.4-1.1,0.5c-0.3,0.1-0.8,0.1-1.4,0l-2.8-0.3L29.5,183.5L29.5,183.5z
		 M30.9,185.1l-0.6,5.5l1.1,0.1c0.4,0,0.7,0.1,0.9,0c0.3,0,0.5-0.1,0.6-0.3c0.2-0.1,0.3-0.4,0.5-0.8c0.1-0.4,0.2-0.9,0.3-1.5
		c0.1-0.6,0.1-1.1,0-1.5c-0.1-0.4-0.2-0.6-0.3-0.8c-0.2-0.2-0.4-0.4-0.7-0.5c-0.2-0.1-0.6-0.1-1.2-0.2L30.9,185.1L30.9,185.1z"/>
	<path d="M47.8,188.8l1.6,0.2c-0.1,0.9-0.3,1.7-0.8,2.2c-0.5,0.5-1.1,0.9-1.9,1c-1,0.2-1.9,0-2.7-0.6c-0.8-0.6-1.3-1.6-1.5-2.9
		c-0.3-1.4-0.1-2.5,0.4-3.3c0.5-0.9,1.3-1.4,2.4-1.6c0.9-0.2,1.8,0,2.4,0.5c0.4,0.3,0.8,0.7,1.1,1.4l-1.5,0.7
		c-0.2-0.4-0.4-0.7-0.8-0.9c-0.3-0.2-0.7-0.3-1.1-0.2c-0.6,0.1-1,0.4-1.3,0.9c-0.3,0.5-0.3,1.2-0.1,2.2c0.2,1,0.5,1.7,0.9,2.1
		c0.4,0.4,0.9,0.5,1.5,0.4c0.4-0.1,0.7-0.3,1-0.6C47.6,189.9,47.7,189.4,47.8,188.8L47.8,188.8z"/>
	<polygon points="51,191.3 49.5,183.2 54.9,182.2 55.2,183.6 51.2,184.3 51.6,186.1 55.3,185.4 55.5,186.8 51.8,187.5 52.2,189.7 
		56.3,188.9 56.6,190.3 	"/>
	<path d="M56.8,187.3l1.4-0.5c0.2,0.5,0.5,0.8,0.8,1c0.3,0.2,0.7,0.2,1.2,0.1c0.5-0.1,0.8-0.3,1-0.6c0.2-0.3,0.2-0.6,0.2-0.9
		c-0.1-0.2-0.1-0.3-0.3-0.4c-0.1-0.1-0.3-0.2-0.6-0.2c-0.2,0-0.6,0-1.3,0c-0.9,0-1.5-0.1-1.9-0.3c-0.6-0.3-0.9-0.8-1.1-1.4
		c-0.1-0.4-0.1-0.8,0-1.2c0.1-0.4,0.3-0.8,0.7-1.1c0.3-0.3,0.8-0.5,1.4-0.7c0.9-0.3,1.7-0.2,2.3,0.1c0.6,0.3,1,0.8,1.2,1.6l-1.5,0.5
		c-0.2-0.4-0.4-0.7-0.7-0.8c-0.3-0.1-0.6-0.1-1,0c-0.4,0.1-0.7,0.3-0.9,0.6c-0.1,0.2-0.2,0.4-0.1,0.6c0.1,0.2,0.2,0.3,0.4,0.4
		c0.2,0.1,0.7,0.2,1.5,0.2c0.8,0,1.4,0,1.8,0.1c0.4,0.1,0.7,0.3,1,0.6c0.3,0.3,0.5,0.7,0.6,1.2c0.1,0.5,0.1,0.9,0,1.4
		c-0.1,0.5-0.4,0.9-0.7,1.2c-0.4,0.3-0.9,0.6-1.5,0.7c-0.9,0.3-1.7,0.2-2.3-0.1C57.7,188.8,57.2,188.2,56.8,187.3L56.8,187.3z"/>
	<path d="M170.8,191.6l-1.6,0l-0.6-1.9l-3,0l-0.6,1.9l-1.6,0l2.8-8.3l1.6,0L170.8,191.6L170.8,191.6z M168,188.3l-1-3.1l-1,3.1
		L168,188.3L168,188.3z"/>
	<path d="M146.7,180.9l1.5,0.3l-0.9,5.2c-0.1,0.7-0.3,1.2-0.4,1.5c-0.2,0.5-0.5,0.8-1,1c-0.4,0.2-0.9,0.3-1.5,0.2
		c-0.7-0.1-1.2-0.4-1.5-1c-0.3-0.5-0.4-1.2-0.2-2.1l1.4,0.1c-0.1,0.5-0.1,0.8,0,1c0.1,0.3,0.3,0.5,0.6,0.6c0.3,0.1,0.6,0,0.7-0.2
		c0.2-0.2,0.3-0.6,0.4-1.3L146.7,180.9L146.7,180.9z"/>
	<path d="M149.9,181.5l1.5,0.2l-0.7,4.4c-0.1,0.7-0.2,1.2-0.2,1.4c0,0.3,0.1,0.6,0.3,0.9c0.2,0.2,0.5,0.4,0.9,0.5
		c0.4,0.1,0.7,0,1-0.1c0.2-0.2,0.4-0.4,0.5-0.6c0.1-0.3,0.2-0.7,0.3-1.4l0.7-4.5l1.5,0.2l-0.7,4.3c-0.2,1-0.3,1.7-0.4,2.1
		c-0.1,0.4-0.3,0.7-0.6,1c-0.3,0.2-0.6,0.4-1,0.5c-0.4,0.1-0.9,0.1-1.4,0c-0.7-0.1-1.2-0.3-1.5-0.5c-0.3-0.2-0.6-0.5-0.7-0.8
		c-0.2-0.3-0.3-0.6-0.3-1c0-0.5,0-1.2,0.2-2.1L149.9,181.5L149.9,181.5z"/>
	<polygon points="158.6,191.2 156.7,182.7 158.3,182.8 159.6,189.1 162,183.1 163.5,183.3 160.2,191.3 	"/>
	<polygon points="174.3,190.6 172.3,184 170.2,184.6 169.8,183.3 175.4,181.6 175.8,183 173.7,183.6 175.7,190.2 	"/>
</g>
</svg>
