<?xml version="1.0" encoding="utf-8"?>
<!-- Generator: Adobe Illustrator 21.1.0, SVG Export Plug-In . SVG Version: 6.00 Build 0)  -->
<svg version="1.1" id="Layer_1" xmlns="http://www.w3.org/2000/svg" xmlns:xlink="http://www.w3.org/1999/xlink" x="0px" y="0px"
	 viewBox="0 0 200 200" style="enable-background:new 0 0 200 200;" xml:space="preserve">
<style type="text/css">
	.st0{fill:#FFFFFF;}
	.st1{fill:#004B95;}
</style>
<g>
	<polygon class="st0" points="44.1,26.2 44.1,170.6 189.7,144.4 189.7,0 	"/>
	<path class="st1" d="M9.1,66.8L9.2,77c25.4,0.8,34.9,5,34.9,5v-9.9C26.5,66.9,9.1,66.8,9.1,66.8L9.1,66.8z"/>
	<path class="st1" d="M9.2,100.1c25.4,0.8,34.9,5,34.9,5v-9.9c-17.7-5.1-35-5.3-35-5.3L9.2,100.1L9.2,100.1z"/>
	<path class="st1" d="M9.2,123.1c25.4,0.8,34.9,5,34.9,5v-9.9c-17.7-5.1-35-5.3-35-5.3L9.2,123.1L9.2,123.1z"/>
	<path class="st1" d="M95.6,16.9l-26.1,4.7c4.3,12.2,27.7,10.5,27.7,10.5c0.6,1.5,1.1,4.9,1.1,10.4c0,10-6.8,12.1-6.8,12.1
		c-4.2-1.3-5.7-5-5.7-5c4.7-4,4.2-8.3,4.2-8.3c-20.6-2.1-25.4-18.8-25.4-18.8l-20.4,3.7l0,45.9c0.9,0.4,6.1,2.3,13.3,2.3
		c12.7,0,24.9-8.5,39.3-14c16.4-6.3,34.2-8.3,34.2-8.3C126.4,29.8,95.6,16.9,95.6,16.9L95.6,16.9z"/>
	<path class="st1" d="M106.4,15c34.2,16.8,37.2,45.9,37.2,45.9c-31.6,1.5-51.2,9.4-60.7,15.4c-9.6,6-18.1,8.2-25.7,8.2
		c-7.6,0-13-2.6-13-2.6v13.3c0,0,3.7,2.1,12.2,2.1s17.9-4.4,21.7-6.3c3.8-1.8,18.1-8.5,18.1-8.5v10.6c0,0-3.1,0.8-11.1,5.1
		s-18.8,9.1-27.4,9.1c-8.6,0-13.4-2.3-13.4-2.3l0,13.1c1.2,0.6,5.4,2.1,12.7,2.1c12.5,0,27-9,27-9v10.3c-9.4,6.1-18.9,8.8-26.7,8.8
		c-7.8,0-13-2.3-13-2.3l0,42.5l72.5-13c-2.1-19.6-14.5-47.7-14.5-47.7l7.2-0.3c11.7,22,17.2,46.2,17.2,46.2l13.3-2.4
		c-0.4-3.5-6.2-17.2-6.2-17.2l7.1-0.3c1.7,2.2,7.1,16.1,7.1,16.1l11.9-2.1c-8.8-30.9-22.8-31.2-22.8-31.2l0-2.6l13.3-1.1
		c14.3,19.3,19.7,33.1,19.7,33.1l19.6-3.5l0-144.4L106.4,15L106.4,15z M135.8,65.6L135.8,65.6c1.2-0.2,3.2-0.6,4,0.2
		c0.8,0.8,5.1,7.2,8.1,15.2c3,8,5,14.6,5.1,15.2c0.1,0.6,0.4,1.5-0.6,1.4c-1-0.1-5.8,0-6.3,0s-0.8-0.2-1.1-1.4
		c-0.2-1.2-2.3-10-3.7-14.8c-1.4-4.8-5.3-13.6-5.8-14.3C134.9,66.5,134.6,65.8,135.8,65.6L135.8,65.6z M116.4,73.3L116.4,73.3
		c0-0.6,0.3-1.3,1.2-1.5c0.9-0.2,8.1-1.4,8.9-1.3c0.8,0.1,1.7-0.3,1.7,0.9c0,0,0,1.2,0,1.7c0,0.5,0.3,0.6,0.7,0.6
		c0.4,0,1,0.2,0.9,1.1c-0.1,0.8-0.6,1.8-1,2.3c-0.4,0.4-0.9,0.6-2.1,0.2c-1.2-0.4-6.9-2.1-8.2-2.2C117.2,75,116.5,75.1,116.4,73.3
		L116.4,73.3z M135.7,111.4L135.7,111.4c-2.1,0.2-4.4,0.5-5.5,2.2l-6-0.1c0,0,4.6-11.8,11.7-11.8c6.6,0,10.5,0,11.4,0
		c0.8,0,1.8,0,2.9,1.6c1.1,1.6,3.5,5.9,3.6,7.6C153.7,110.9,137.8,111.2,135.7,111.4L135.7,111.4z"/>
	<polygon class="st1" points="57,194.6 57,197.7 44.2,200 44.2,183.2 48.4,182.5 48.4,196.2 	"/>
	<polygon class="st1" points="61.7,196.9 61.7,189 55,181.3 60.1,180.4 63.8,185 67.4,179.1 72.5,178.1 65.9,188.3 65.9,196.1 	"/>
	<polygon class="st1" points="92.1,174.6 92.1,191.4 88.6,192 79.3,182.9 79.3,193.7 75.1,194.4 75.1,177.7 79,177 87.9,185.6 
		87.9,175.4 	"/>
	<path class="st1" d="M112.6,172.1l0,3.7c-2.2-0.6-4.3-0.8-6.3-0.4c-2,0.4-3.5,1.1-4.6,2.3c-1.1,1.2-1.6,2.6-1.6,4.1
		c0,1.5,0.5,2.6,1.6,3.3c1.1,0.7,2.5,0.9,4.2,0.6c0.9-0.2,1.9-0.5,2.8-1.1l0-2l-2.4,0.4l0-3.1l6.6-1.2l0,6.9c-0.7,0.8-1.7,1.5-3,2.2
		c-1.4,0.7-2.7,1.1-4,1.4c-2.9,0.5-5.3,0.2-7.2-1.1c-1.9-1.3-2.8-3.2-2.8-5.7c0-2.6,0.9-4.8,2.8-6.8c1.9-1.9,4.3-3.2,7.3-3.7
		C108.5,171.4,110.7,171.5,112.6,172.1L112.6,172.1z"/>
	<path class="st1" d="M117.3,170.1l7.2-1.3c1.7-0.3,3.1-0.1,4.1,0.5c1,0.7,1.5,1.6,1.5,2.7c0,1.5-0.8,2.7-2.3,3.8
		c1.2,0.1,2,0.5,2.7,1.1c0.6,0.7,0.9,1.5,0.9,2.5c0,1.5-0.5,2.7-1.5,3.8c-1,1.1-2.5,1.8-4.4,2.2l-8.2,1.5L117.3,170.1L117.3,170.1z
		 M121.5,172.4L121.5,172.4l0,3.6l2.2-0.4c0.7-0.1,1.2-0.4,1.6-0.8c0.4-0.4,0.6-0.9,0.6-1.4c0-0.5-0.2-0.9-0.6-1.2
		c-0.4-0.3-0.9-0.3-1.6-0.2L121.5,172.4L121.5,172.4z M121.5,179.1L121.5,179.1l0,3.9l2.3-0.4c1.1-0.2,1.9-0.5,2.4-0.9
		c0.5-0.4,0.7-1,0.7-1.7c0-0.6-0.2-1-0.7-1.3c-0.5-0.3-1.1-0.3-1.8-0.2L121.5,179.1L121.5,179.1z"/>
	<polygon class="st1" points="138.9,183 138.9,175.1 132.2,167.4 137.3,166.5 141,171.1 144.7,165.2 149.7,164.3 143.1,174.4 
		143.1,182.2 	"/>
	<path class="st1" d="M158,162.8l7.2-1.3c1.7-0.3,3.1-0.1,4.1,0.5c1,0.7,1.5,1.6,1.5,2.7c0,1.5-0.8,2.7-2.3,3.8
		c1.2,0.1,2,0.5,2.7,1.1c0.6,0.7,0.9,1.5,0.9,2.5c0,1.5-0.5,2.7-1.5,3.8c-1,1.1-2.5,1.8-4.4,2.2l-8.2,1.5L158,162.8L158,162.8z
		 M162.2,165.1L162.2,165.1l0,3.6l2.2-0.4c0.7-0.1,1.2-0.4,1.6-0.8c0.4-0.4,0.6-0.9,0.6-1.4c0-0.5-0.2-0.9-0.6-1.2
		c-0.4-0.3-0.9-0.3-1.6-0.2L162.2,165.1L162.2,165.1z M162.2,171.8L162.2,171.8l0,3.9l2.3-0.4c1.1-0.2,1.9-0.5,2.4-0.9
		c0.5-0.4,0.7-1,0.7-1.7c0-0.6-0.2-1-0.7-1.3c-0.5-0.3-1.1-0.3-1.8-0.2L162.2,171.8L162.2,171.8z"/>
	<polygon class="st1" points="189,157.2 183.5,166.1 190.9,173.6 185.6,174.6 179,167.9 179,175.8 174.8,176.5 174.8,159.8 179,159 
		179,166.5 184.3,158 	"/>
</g>
</svg>
