<?xml version="1.0" encoding="utf-8"?>
<!-- Generator: Adobe Illustrator 21.1.0, SVG Export Plug-In . SVG Version: 6.00 Build 0)  -->
<svg version="1.1" id="Layer_1" xmlns="http://www.w3.org/2000/svg" xmlns:xlink="http://www.w3.org/1999/xlink" x="0px" y="0px"
	 viewBox="0 0 200 200" style="enable-background:new 0 0 200 200;" xml:space="preserve">
<style type="text/css">
	.st0{fill:#FFD900;}
	.st1{fill:#0E1874;}
	.st2{fill:#C6B092;}
</style>
<g>
	<path class="st0" d="M178.7,87.5c-3.8-9.1-9.3-17.2-16.3-24.2c-7-7-15.1-12.5-24.2-16.3c-9.4-4-19.3-6-29.6-6
		c-19.9,0-38.7,7.6-53,21.5c-13.3,12.9-21.3,29.9-22.8,48.2H11.4L30.7,141l-19.2,30.3h38.5L68.2,200l8.8-13.8
		c9.9,4.5,20.8,6.9,31.7,6.9c10.3,0,20.2-2,29.6-6c9.1-3.8,17.2-9.3,24.2-16.3c7-7,12.5-15.1,16.3-24.2c4-9.4,6-19.3,6-29.6
		C184.6,106.8,182.6,96.8,178.7,87.5z"/>
	<path class="st1" d="M108.6,45.1c-39,0-70.7,31-71.9,69.7H18.9L35.5,141l-16.6,26.2h33.3l16,25.2l7.3-11.5
		c9.9,5.2,21.2,8.1,33.2,8.1c39.7,0,71.9-32.2,71.9-71.9C180.6,77.3,148.4,45.1,108.6,45.1z"/>
	<polyline class="st0" points="68.2,97.2 81.9,118.9 110,118.9 96,141 110,163.1 81.9,163.1 68.2,184.8 54.4,163.1 26.3,163.1 
		40.4,141 26.3,118.9 54.4,118.9 68.2,97.2 	"/>
	<polygon class="st1" points="72.9,127.1 77.3,120.4 68.2,106.1 58.5,121.3 68.1,121.3 	"/>
	<polygon class="st1" points="61.1,131.1 57,123.7 57,123.7 50.7,133.6 56.5,133.6 56.5,147.6 41.8,147.6 35,158.3 63.3,158.3 
		63.3,147.6 61.1,147.6 	"/>
	<circle class="st1" cx="51.1" cy="140.9" r="3.1"/>
	<polygon class="st1" points="41.3,133.6 44.6,133.6 42.9,136.2 44.4,138.4 45.1,139.5 48.8,133.6 48.8,123.7 35,123.7 	"/>
	<path class="st1" d="M73.9,156.4l-3.3,4.4c0,0-0.4,0.6-1.5,0.6c-1.1,0-10.2,0-10.2,0l9.2,14.5l10.2-16v-23.2h-4.4V156.4z"/>
	<path class="st1" d="M80.9,147.7v10.6h20.4l-11-17.3l11-17.3H77.7l-4.3,6.6c-0.2,0.4-0.7,0.3-1,0.1l-5.5-6.7h-6.7l5.2,9.4
		c0,0,0.5,0.8,0.5,1.6v24.8l5.5-7.1v-18.6h13.3c0,0,1.7,1.2,1.7,3c0,1.8,0,11,0,11H80.9z"/>
	<path class="st0" d="M60.3,70.2l5.8,4.6l0,0l-4.2-6.1l2.4-2.2l9.3,8.3l-1.9,1.7l-6.4-6.2l0,0l1.8,2.5l3.2,5l-1.4,1.3L64,75.5
		l-2.2-1.8l-0.2-0.2l0,0l5.7,6.8l-1.9,1.8l-7.5-9.9L60.3,70.2z"/>
	<path class="st0" d="M71.2,60.8l9.7,8.3l-2.1,1.5l-1.6-1.4l-2,1.5l0.9,1.9l-2,1.4l-4.9-11.7L71.2,60.8z M73.3,65.6L72,64.2l0,0
		l0.9,1.7l1.5,3l1.4-1L73.3,65.6z"/>
	<path class="st0" d="M82.7,56.8c-0.3,0-0.6,0.1-0.9,0.2c-2,0.7-2.3,2.9-1.6,4.7c0.6,1.7,2.2,3.6,4.2,2.9c0.3-0.1,0.6-0.3,0.8-0.5
		l0.8,2.2c-0.3,0.3-0.6,0.4-1,0.6c-3.3,1.2-6.2-1.2-7.3-4.3c-1-2.9-0.1-6.5,3-7.6c0.4-0.1,0.8-0.2,1.3-0.2L82.7,56.8z"/>
	<path class="st0" d="M90.4,53.5c-0.3,0-0.6,0-0.9,0.1c-2.1,0.6-2.4,2.7-1.9,4.6c0.5,1.8,2.1,3.7,4.1,3.1c0.3-0.1,0.6-0.3,0.8-0.4
		l0.7,2.2c-0.3,0.2-0.6,0.4-1,0.5c-3.4,1-6.2-1.5-7.1-4.6c-0.9-2.9,0.2-6.5,3.4-7.5c0.4-0.1,0.8-0.2,1.3-0.1L90.4,53.5z"/>
	<path class="st0" d="M98.7,49.6l4.6,11.9l-2.6,0.3l-0.7-2l-2.5,0.3l-0.2,2.1L95,62.6L96.2,50L98.7,49.6z M98.3,54.8L97.8,53l0,0
		l0,1.9l-0.1,3.3l1.7-0.2L98.3,54.8z"/>
	<path class="st0" d="M105.3,61.4V49h2.4c1,0,1.8,0,2.6,0.7c0.8,0.7,1.3,1.8,1.3,2.8c0,1.1-0.4,1.9-1.3,2.6c1,0.5,1.5,1.8,1.5,2.9
		c0,2.4-1.8,3.5-4,3.5H105.3z M107.7,51.1v3c0.9,0,1.5-0.6,1.5-1.6C109.2,51.7,108.7,51,107.7,51.1z M107.7,56v3.3
		c1,0,1.6-0.7,1.6-1.7C109.3,56.7,108.7,56,107.7,56z"/>
	<path class="st0" d="M117.5,49.3l-0.9,12.3l-2.4-0.2l0.9-12.3L117.5,49.3z"/>
	<path class="st0" d="M135,54.7l-0.8,2.2l-1.8-0.6l-3.4,9.5l-2.3-0.8l3.4-9.5l-1.8-0.6l0.8-2.2L135,54.7z"/>
	<path class="st0" d="M141.1,57.7l-1,2.1l-2.2-1.1l-1.2,2.4l2,1l-1,2.1l-2-1l-1.2,2.5l2.2,1.1l-1,2.1l-4.4-2.2l5.5-11.1L141.1,57.7z
		"/>
	<path class="st0" d="M144.9,60l-5.2,8.6l2.2,1.3l-1.2,2l-4.3-2.6l6.4-10.6L144.9,60z"/>
	<path class="st0" d="M148,69.5l-1.3,1.8l-3.3-2.4l1.3-1.8L148,69.5z"/>
	<path class="st0" d="M155.9,68.8l-6,11.2l-1.9-1.7l1-1.9l-1.8-1.7l-1.7,1.3l-1.8-1.6l10.4-7.3L155.9,68.8z M151.7,71.9l1-1.6l0,0
		l-1.4,1.2l-2.6,2.1l1.3,1.2L151.7,71.9z"/>
	<path class="st0" d="M160.7,74.3l-3.8,4.8c-0.4,0.6-0.9,1.1-1.4,1.6l0,0c0.7-0.3,1.2-0.7,1.9-1l5.6-2.4l1.5,2l-11.9,4.7l-1.2-1.6
		l7.7-10.3L160.7,74.3z"/>
	<path class="st0" d="M166.7,82.9l-10.4,6.6l-1.3-2.1l10.4-6.6L166.7,82.9z"/>
	<path class="st0" d="M168.6,86.6l-4.7,3.9c-0.5,0.5-1.1,0.9-1.7,1.3l0,0c0.7-0.2,1.4-0.5,2.1-0.6l6-1.2l1.1,2.3l-12.6,2.2l-0.9-1.8
		l9.6-8.6L168.6,86.6z"/>
	<polygon class="st0" points="176.3,109.3 176,106.9 166,105.1 166,105.1 173.2,104 173.2,104 173.2,105.5 175.8,105.5 175.2,101.4 
		162.9,103.2 163.2,105.5 163.2,105.5 163.5,107.5 167.2,108 167.2,108.1 163.8,108.8 164.1,111.1 168.4,110.5 168.4,108.2 	"/>
	<path class="st0" d="M166.7,119.3l-2.2,0.1l-0.3-6.5c0,0,7.7-0.4,9.4-0.4c1.7-0.1,2.9,1.3,2.9,1.3l0.2,5.1l-2.2,0.1l-0.2-4.3
		l-7.8,0.4L166.7,119.3z"/>
	<polygon class="st0" points="163,127.5 164,121.2 173.9,122.8 174.1,121.9 176.5,122.3 175.4,129.4 173,129 173.6,125.2 166,124.1 
		165.4,127.9 	"/>
	<path class="st0" d="M162.3,130.9l0.5-2.1l5.2,1.1l-0.5,2.1L162.3,130.9z"/>
	<polygon class="st0" points="157,143.4 159.8,137 171.2,142 170.3,144.2 161,140.3 160.2,142.1 169.5,146.1 168.1,149.2 
		165.9,148.2 166.3,147.4 	"/>
	<path class="st0" d="M155.9,145.2l-2.5,3.9l-1.1-0.7l-1.3,2l3.3,2.1l2.5-3.9c6.1,4,7.7,6.2,7.4,6.8l1.3-2.1
		C165.9,152.8,163.9,150,155.9,145.2z"/>
	<path class="st0" d="M153.7,159.8l-1.5-1.6l3.6-3.5l1.5,1.6L153.7,159.8z"/>
	<path class="st0" d="M152.2,168l2-1.4l-4.1-2.7c-0.1-0.1-0.2-0.3-0.1-0.7l0.5-1.7c0.1-0.5-0.5-1.2-0.5-1.2l-2.8-4l-2,1.5l2.8,4
		c0.1,0.3,0.2,0.6,0.1,0.9l-5.1-3.3l-2,1.4l4,2.6l0,0l0,0l0.1,0.1c0.1,0.1,0.2,0.3,0.1,0.7l-0.5,1.7c-0.1,0.5,0.5,1.2,0.5,1.2l2.8,4
		l2-1.5l-2.8-4c-0.1-0.3-0.2-0.6-0.1-0.9L152.2,168z"/>
	<polygon class="st0" points="133.1,165.4 138.4,162 143.8,170.6 144.5,170.1 145.8,172.2 139.6,176 138.4,173.9 141.6,171.9 
		137.6,165.4 134.3,167.4 	"/>
	<path class="st0" d="M129.6,167.1l1.9-1.1l2.8,4.6l-1.9,1.1L129.6,167.1z"/>
	<polygon class="st0" points="122.2,171.3 127.7,168.1 132.8,176.8 133.5,176.3 134.7,178.4 128.5,182.1 127.3,180 130.6,178 
		126.8,171.4 123.4,173.3 	"/>
	<path class="st0" d="M99.5,104.6l18.6-2.2l7.8-12.5l-7.9-9.8c-2.6-0.6-5.3-0.9-8.1-0.9c-5,0-9.7,0.9-14,2.7l-6.4,10.8L99.5,104.6z"
		/>
	<path class="st0" d="M119.7,103.3l6.9,16.7l16,3.3l5.1-9.7c-0.7-7.8-3.8-14.8-8.5-20.5l-11.8-2.2L119.7,103.3z"/>
	<path class="st0" d="M127.4,152.9l-2.1,7.7c12.3-4.3,22.1-13.7,27.1-25.6l-8,2.1C140.4,143.9,134.5,149.4,127.4,152.9z"/>
	<polygon class="st0" points="127.1,89.8 127.1,89.8 127.1,89.8 	"/>
	<path class="st0" d="M149.5,113.2l6.4,3.7c-0.1-13.1-5.7-25-14.6-33.3l-0.7,8.4C145.5,97.9,148.7,105.2,149.5,113.2z"/>
	<path class="st0" d="M74.4,99.3c0.5-1.1,1.1-2.1,1.7-3.1L73.5,89c-1.1,1.4-2.1,2.8-3,4.3l1.1,1.7L74.4,99.3z"/>
	<path class="st0" d="M109.9,77.4c2.9,0,5.7,0.3,8.4,0.9l6.4-4.7c-4.6-1.6-9.6-2.4-14.8-2.4c-8.6,0-16.7,2.4-23.7,6.5l9,2.5
		C99.8,78.4,104.7,77.4,109.9,77.4z"/>
	<path class="st0" d="M126.2,121.8l-13.5,12.3l1.8,14.9l12,2.3c3.8-1.9,7.3-4.3,10.3-7.3c2.4-2.4,4.4-5,6.1-8l-0.7-11L126.2,121.8z"
		/>
	<polygon class="st0" points="111.7,133.8 111.7,133.8 111.7,133.8 	"/>
	<path class="st0" d="M77.7,97.1c-0.8,1.3-1.5,2.6-2.2,4l8.7,13.7h12.2l1.8-9.1L88.1,93.8L77.7,97.1z"/>
	<polygon class="st0" points="110.9,134.3 106.8,131.6 100.8,141 107.9,152.1 112.8,149.3 	"/>
	<polygon class="st2" points="84.1,0.1 90.3,10.5 102.2,7.9 94.1,16.9 100.4,27.3 89.1,22.5 81,31.6 82.3,19.5 70.9,14.9 83,12.2 	
		"/>
	<polygon class="st2" points="32.9,23.2 43,29.9 52.5,22.2 49.2,33.9 59.5,40.5 47.3,41.1 44,52.9 39.8,41.5 27.6,42.3 37.2,34.6 	
		"/>
	<polygon class="st2" points="132.6,0 133.3,12.1 145.2,15.2 133.8,19.5 134.7,31.6 126.9,22.2 115.5,26.6 122.1,16.4 114.1,7.1 
		126.1,10.2 	"/>
	<polygon class="st2" points="184.2,23.7 179.4,34.9 188.6,42.9 176.5,41.6 171.8,52.9 169.1,41 156.9,39.8 167.4,33.7 164.4,21.8 
		173.7,29.9 	"/>
</g>
</svg>
