<?xml version="1.0" encoding="utf-8"?>
<!-- Generator: Adobe Illustrator 21.1.0, SVG Export Plug-In . SVG Version: 6.00 Build 0)  -->
<svg version="1.1" id="Layer_1" xmlns="http://www.w3.org/2000/svg" xmlns:xlink="http://www.w3.org/1999/xlink" x="0px" y="0px"
	 viewBox="0 0 200 200" style="enable-background:new 0 0 200 200;" xml:space="preserve">
<style type="text/css">
	.st0{fill:#048DC9;}
	.st1{fill:#FFFFFF;}
</style>
<g id="g20009" transform="matrix(1.25,0,0,-1.25,-1.7976782,1053.3127)">
	<g id="g20238" transform="matrix(3.1847265,0,0,3.1847265,-176.45539,-1759.0281)">
		<path id="path20029" class="st0" d="M95.7,813.5v3.4h-3.2v-2.4h-3.4v2.4h-3.2v-2.4h-3.4v2.4h-3.2v-2.4H76v2.4h-3.2v-2.4h-3.4v2.4
			h-3.2v-3.4c-0.1-9.9,1.1-19.2,7-26.5c2.2-2.6,4.8-4.8,7.8-5.8c2.9,1,5.6,3.2,7.8,5.8C94.7,794.3,95.8,803.6,95.7,813.5"/>
		<path id="path20031" class="st1" d="M76.1,806.9v-21.8c1.5-1.3,3.1-2.5,4.9-3.1c1.8,0.6,3.4,1.8,4.9,3.1v21.8H76.1"/>
		<path id="path20033" class="st1" d="M93.3,816.2l0-2.4h-4.9v2.4h-1.7v-2.4h-4.9v2.4h-1.7v-2.4h-4.9v2.4h-1.7v-2.4h-4.9l0,2.4h-1.7
			v-8.5H95v8.5H93.3"/>
		<path id="path20035" class="st0" d="M86,808.5v4.5h3.5v-0.7H87v-1h2.2v-0.7H87v-2.1H86"/>
		<path id="path20037" class="st0" d="M78.9,810.2c0.3,0,0.6,0.3,0.6,0.6c0,0.3-0.3,0.6-0.6,0.6c-0.3,0-0.6-0.3-0.6-0.6
			C78.4,810.5,78.6,810.2,78.9,810.2"/>
		<path id="path20039" class="st0" d="M84.7,810.2c0.3,0,0.6,0.3,0.6,0.6s-0.3,0.6-0.6,0.6c-0.3,0-0.6-0.3-0.6-0.6
			C84.1,810.4,84.4,810.2,84.7,810.2"/>
		<path id="path20041" class="st0" d="M75,808.5h0.4l1.4,3.5v-3.5h0.8v4.5h-1.3l-1.4-3.1l-1.4,3.1h-1.3v-4.5h0.8v3.5l1.5-3.5H75"/>
		<path id="path20043" class="st0" d="M80.2,808.5v4.5h3.5v-0.7h-2.6v-1h2.2v-0.7h-2.2v-2.1H80.2"/>
		<path id="path20045" class="st0" d="M83.6,770.8l-1.6,0l-1,1.2l-1-1.2l-1.6,0l0.7-1.4l-0.7-1.4l1.6,0l1-1.2l1,1.2l1.6,0l-0.7,1.4
			L83.6,770.8"/>
		<path id="path20047" class="st0" d="M71.6,781.4c0.1-0.1,0.2-0.1,0.3-0.2c0.1-0.1,0.2-0.1,0.3-0.1c-0.8-2-1.5-3.6-2-5.1
			c-0.2,0.1-0.4,0.2-0.6,0.4c-0.2,0.1-0.4,0.2-0.6,0.3c0.6,1.1,1,2.3,1.5,3.4c-1.1-0.8-2.2-1.5-3.3-2.3c-0.1,0.1-0.2,0.1-0.3,0.1
			c0.1,1.2,0.1,2.6,0.2,4c-0.8-1.1-1.5-2-2-3c-0.1,0.1-0.2,0.2-0.3,0.2c-0.1,0.1-0.2,0.1-0.3,0.1c1,1.3,2.1,2.7,3.3,4.4
			c0.1-0.1,0.2-0.1,0.3-0.2c0.1-0.1,0.2-0.1,0.3-0.1c-0.1-1.4-0.2-2.7-0.2-4.1C69.2,779.7,70.4,780.5,71.6,781.4"/>
		<path id="path20049" class="st0" d="M74.3,775.4c-0.1-0.3,0-0.4,0.3-0.5l0-0.2c-0.2,0-0.5-0.1-0.7,0c-0.4,0.1-0.6,0.4-0.6,0.8
			c-0.3-0.3-0.7-0.4-1.1-0.3c-0.6,0.2-1,0.6-0.8,1.3c0.2,0.7,0.7,0.8,1.7,0.8c0.2,0,0.4,0,0.6,0c0.1,0.1,0.2,0.2,0.2,0.3
			c0.1,0.4-0.2,0.8-0.5,0.9c-0.5,0.1-1-0.1-1.1-0.2l-0.1,0l0,0.5c0.4,0.2,1.1,0.3,1.6,0.1c0.6-0.2,1.4-0.6,1.2-1.4L74.3,775.4z
			 M73.6,777c-0.2,0-0.6,0-0.8-0.1c-0.2-0.1-0.3-0.3-0.4-0.6c-0.1-0.3-0.1-0.6,0.3-0.7c0.5-0.1,0.7,0.3,0.8,0.7L73.6,777"/>
		<path id="path20051" class="st0" d="M76.5,774.2c-0.2,0.1-0.3,0.1-0.5,0.1c-0.2,0-0.4,0-0.5,0.1l1.1,5.9c0.2-0.1,0.3-0.1,0.5-0.1
			c0.2,0,0.4,0,0.5-0.1L76.5,774.2"/>
		<path id="path20053" class="st0" d="M78.2,777.9c0.2,0,0.4,0,0.5,0c0.2,0,0.4,0,0.5,0l0-0.6c0.2,0.4,0.7,0.7,1.2,0.6
			c0.5,0,0.9-0.3,1-0.7c0.3,0.4,0.7,0.7,1.2,0.7c0.9,0,1.2-0.6,1.2-1.4l0-2.5c-0.2,0-0.4,0-0.5,0c-0.2,0-0.4,0-0.5,0l0,2.1
			c0,0.5,0,1.1-0.6,1.1c-0.6,0-0.7-0.3-0.7-0.8l0-2.4c-0.2,0-0.4,0-0.5,0c-0.2,0-0.4,0-0.5,0l0,2.1c0,0.5,0,1.1-0.6,1.1
			c-0.5,0-0.7-0.5-0.7-0.9l0-2.3c-0.2,0-0.4,0-0.5,0c-0.2,0-0.4,0-0.5,0L78.2,777.9"/>
		<path id="path20055" class="st0" d="M85,775.9c-0.2,1.2,0.4,2.2,1.6,2.3c1.2,0.2,2-0.4,2.2-1.6c0.2-1.2-0.4-2.2-1.6-2.4
			C86.1,774.1,85.2,774.7,85,775.9z M86.2,776.1c0.1-0.5,0.3-1.5,1-1.4c0.6,0.1,0.6,1.1,0.5,2c-0.1,0.8-0.4,1.4-0.9,1.3
			C86.1,777.8,86,777,86.2,776.1z M87.8,779.5c0-0.3-0.1-0.5-0.4-0.6c-0.3,0-0.6,0.2-0.6,0.4c0,0.3,0.2,0.5,0.4,0.6
			C87.5,779.9,87.8,779.7,87.8,779.5z M85.1,779c0,0.3,0.2,0.5,0.4,0.6c0.3,0,0.5-0.1,0.6-0.4c0-0.3-0.1-0.5-0.4-0.6
			C85.5,778.6,85.2,778.8,85.1,779"/>
		<path id="path20057" class="st0" d="M93.1,776.1c-0.2-0.1-0.4-0.1-0.6-0.2c-0.2-0.1-0.3-0.2-0.5-0.3l-2.3,4.9l2.7,1.3
			c0-0.1,0.1-0.2,0.1-0.3c0-0.1,0.1-0.2,0.2-0.3c-0.5-0.2-1-0.3-1.7-0.7l0.7-1.5l0.8,0.4c0.3,0.1,0.6,0.3,0.8,0.5
			c0-0.1,0.1-0.2,0.1-0.3c0-0.1,0.1-0.2,0.2-0.3c-0.3-0.1-0.6-0.2-0.9-0.3l-0.8-0.4L93.1,776.1"/>
		<path id="path20059" class="st0" d="M97.1,778c-0.2-0.1-0.4-0.1-0.5-0.2c-0.2-0.1-0.3-0.2-0.5-0.3l-2.5,4.8l2.7,1.4
			c0-0.1,0.1-0.2,0.1-0.3c0.1-0.1,0.1-0.2,0.2-0.3c-0.5-0.2-0.9-0.4-1.7-0.7l0.8-1.5l0.7,0.4c0.3,0.1,0.5,0.3,0.8,0.5
			c0-0.1,0.1-0.2,0.1-0.3c0.1-0.1,0.1-0.2,0.2-0.3c-0.3-0.1-0.6-0.2-0.9-0.4l-0.7-0.4L97.1,778"/>
	</g>
</g>
</svg>
