<?xml version="1.0" encoding="utf-8"?>
<!-- Generator: Adobe Illustrator 21.1.0, SVG Export Plug-In . SVG Version: 6.00 Build 0)  -->
<svg version="1.1" id="Layer_1" xmlns="http://www.w3.org/2000/svg" xmlns:xlink="http://www.w3.org/1999/xlink" x="0px" y="0px"
	 viewBox="0 0 200 200" style="enable-background:new 0 0 200 200;" xml:space="preserve">
<style type="text/css">
	.st0{fill-rule:evenodd;clip-rule:evenodd;fill:#0000A1;}
	.st1{fill-rule:evenodd;clip-rule:evenodd;fill:#FFFFFF;}
	.st2{fill:#FFFF00;}
	.st3{fill:#00FF00;}
	.st4{fill:#FF0000;}
</style>
<g>
	<path class="st0" d="M29.3,0h141.4v129.2c0,39-31.8,70.8-70.8,70.8c-38.8,0-70.6-31.8-70.6-70.8V0z"/>
	<path class="st1" d="M167.1,129.2c0,37-30.2,67.2-67.2,67.2c-37,0-67.2-30.2-67.2-67.2V33.6h134.4V129.2z"/>
	<path class="st1" d="M46.8,23.4h2.7v-3.9h3v-2.3h-3v-1.8h3v-2.3h-5.7V23.4z M53.8,23.4h2.7v-4.3l2.7,4.3h3.2l-3.6-5.2l3.4-5h-2.7
		l-3,4.5v-4.5h-2.7V23.4z M139.6,18.4h-1.1v-3h1.1c0.4,0,0.8-0.1,1.1,0.2c0.2,0.2,0.5,0.7,0.5,1.1C141.2,17.8,140.8,18.4,139.6,18.4
		z M136,23.4h2.5v-3.2c0.8,1.1,1.6,2.1,2.5,3.2h3.2l-3-3.4c1.7-0.6,2.5-1.4,2.5-3.4c0-2.4-1.8-3.4-3.9-3.4c-0.2,0-0.3,0-0.5,0
		l-3.4,0V23.4z M72.6,18.4h-1.1v-3h1.1c0.4,0,0.8-0.1,1.1,0.2c0.2,0.2,0.5,0.7,0.5,1.1C74.2,17.8,73.8,18.4,72.6,18.4z M69,23.4h2.5
		v-3.2c0.8,1.1,1.6,2.1,2.5,3.2h3.2l-3-3.4c1.7-0.6,2.5-1.4,2.5-3.4c0-2.4-1.8-3.4-3.9-3.4c-0.2,0-0.3,0-0.5,0l-3.4,0V23.4z
		 M78.3,13.2v6.1c0,1.6,0.2,2.5,0.9,3.2c0.9,0.9,1.8,1.1,3,1.1c2.7,0,4.1-1.7,4.1-4.3v-6.1h-2.7v6.1c0,1.1,0,2-1.4,2
		c-0.9,0-1.4-0.7-1.4-2v-6.1H78.3z M87.2,23.4h6.6v-2.3h-3.2l3.2-5.9v-2h-6.6v2.3h3.6l-3.6,6.4V23.4z M90.6,10.7l-0.7-0.9h-2.5
		l2,2.3h2.3l2-2.3h-2.5L90.6,10.7z M97.2,18.2c0-4,5.9-3.9,5.9,0.2C103.1,22.5,97.2,22.4,97.2,18.2z M100.1,12.9
		c-3.2,0-5.4,2.3-5.4,5.2c0,3.2,2.3,5.4,5.4,5.4c3.1,0,5.4-2.3,5.4-5.4C105.6,15.1,103.1,12.9,100.1,12.9z M147.2,18.2
		c0-4,5.9-3.9,5.9,0.2C153.1,22.5,147.2,22.4,147.2,18.2z M150.2,12.9c-3.2,0-5.4,2.3-5.4,5.2c0,3.2,2.3,5.4,5.4,5.4
		c3.1,0,5.4-2.3,5.4-5.4C155.6,15.1,153.2,12.9,150.2,12.9z M106.9,23.4h2.5l-0.2-7.7l2.3,7.7h1.8l2.3-7.7v7.7h2.3V13.2h-3.4l-2,6.8
		l-2-6.8h-3.4V23.4z M123.3,17h-1.1v-1.6h1.1c0.5,0,1.1,0,1.1,0.7C124.4,16.8,123.9,17,123.3,17z M122.1,21.1v-1.8h1.4
		c0.6,0,1.4,0.2,1.4,0.9c0,0.7-0.5,0.9-1.4,0.9H122.1z M119.6,23.4h3.6c1.9,0,4.1-0.6,4.1-3c0-1.4-0.7-2-1.8-2.5
		c0.9-0.5,1.4-1.1,1.4-2c0-2.6-2.1-2.7-4.1-2.7h-3.2V23.4z M128.7,23.4h5.7v-2.3h-3.2v-1.8h3.2V17h-3.2v-1.6h3.2v-2.3h-5.7V23.4z
		 M157.1,23.4h2.5v-4.3l3,4.3h3.2l-3.6-5.2l3.4-5h-3l-3,4.5v-4.5h-2.5V23.4z M34.1,23.4h2.5v-7.7l2.3,7.7h1.6l2.3-7.7v7.7h2.5V13.2
		h-3.4L39.5,20l-2-6.8h-3.4V23.4z"/>
	<path d="M103.8,158.2c1.5-1.1,3.7-2,6.4-2.3c1.8-0.3,8.1-1.3,9.2-7.2c4,0.5,6.3,2.8,8.9,5c-1.6-3.8-3.5-6.2-2.8-10.3
		c6.6,1.2,10.3-5.5,11.3-7.2c2.9-5.6,7-7,10.8-7.1c-2.8-2.3-4.9-5.2-3.4-11.3c0.3-1.7,0.9-7.4-2.6-10.9c2-3.2,6.6-5.5,8.6-7.4
		c-3.2-0.2-7.7,0.4-11-1.3c0.9-4.4-3.8-9.3-5-10.6c-4.9-4.6-5.1-8-3.8-11.1c-3.2,1.5-7,1.1-12.2-3c-1.8-1.2-9.3-4.9-14.7,1.9l0-6.1
		l5.6-4.4V45.8l-9.3,7l-9-7.1L91,65.1l5.9,4.2v6.1c-5.3-6.9-12.8-3.2-14.6-1.9c-5.2,4.1-8.9,4.5-12.2,3c1.3,3,1.1,6.5-3.8,11.1
		c-1.2,1.3-5.9,6.2-5,10.6c-3.2,1.7-7.8,1.1-11,1.3c2,1.9,6.6,4.2,8.6,7.4c-3.5,3.5-2.9,9.2-2.6,10.9c1.5,6.1-0.7,8.9-3.4,11.3
		c3.8,0.1,7.9,1.5,10.8,7.1c1,1.7,4.7,8.4,11.3,7.2c0.7,4.1-1.2,6.5-2.8,10.3c2.7-2.2,4.9-4.5,8.9-5c1.2,5.9,7.5,6.9,9.2,7.2
		c2.8,0.3,5,1.2,6.4,2.3v8.1l-8.4-3.2l11.7,17l11.5-17.1l-8,3.3L103.8,158.2z"/>
	<path class="st2" d="M100.3,178.7l9.3-14l-6.8,3l0-36.8c-0.8,0.1-1.6,0.2-2.5,0.2c-0.9,0-1.8-0.1-2.7-0.2l0,36.8l-7.3-3.1
		L100.3,178.7z"/>
	<path class="st2" d="M97.6,94.5l0-25.5l-5.9-4.1V47.5l8,6.4l8.7-6.5v17.2l-5.6,4.4v25.4c-0.8-0.1-1.7-0.2-2.5-0.2
		C99.5,94.3,98.5,94.3,97.6,94.5"/>
	<path class="st3" d="M61.5,99c-2.3,1.5-6.5,1.3-9.2,1.3c2.3,1.7,5.6,3.8,7.1,6.2c0.8-0.6,2.3-1.5,4.1-1.9c1.9-0.4,3.5-0.1,5-0.4
		c-1.9-0.7-3.5-1.2-4.8-2.2C62.6,101.2,62,100,61.5,99"/>
	<path class="st3" d="M139.2,99c2.3,1.5,6.5,1.3,9.2,1.3c-2.3,1.7-5.6,3.8-7.1,6.2c-0.8-0.6-2.3-1.5-4.1-1.9c-1.9-0.4-3.5-0.1-5-0.4
		c1.9-0.7,3.5-1.2,4.8-2.2C138.1,101.2,138.7,100,139.2,99"/>
	<path class="st3" d="M79.3,141.6c1.1-0.6,1.8-1.1,2.9-1.8c-0.2,1.1-0.3,1.5-0.5,2.6c-0.4,1.9-0.7,3.9-0.5,5.4
		c-1.3,0.3-3.2,0.7-4.4,1.4c-0.7,0.4-1.4,0.9-2.1,1.5c1.1-2.2,1.9-4.9,1.3-7.5C77,142.9,78.2,142.3,79.3,141.6"/>
	<path class="st3" d="M121.4,141.6c-1.1-0.6-1.8-1.1-2.9-1.8c0.1,1.1,0.3,1.5,0.5,2.6c0.4,1.9,0.7,3.9,0.5,5.4
		c1.3,0.3,3.2,0.7,4.4,1.4c0.7,0.4,1.4,0.9,2.1,1.5c-1.1-2.2-1.9-4.9-1.3-7.5C123.7,142.9,122.5,142.3,121.4,141.6"/>
	<path class="st4" d="M96.9,152.8c-1.7-0.6-3.9-0.8-5.8-1.5c-5.6-2-7.9-2.4-8-12.5l0,0c-9.5,3.3-11.1,0-15.2-4.8
		c-3-3.5-6-7.7-10.6-6.4c4.1-1.7,3.7-6.4,3.7-10.7c0-6.2-0.4-9.2,9.1-12.5l0,0c-5.8-4.9-3.5-9.4,0.1-14.5c2.5-3.6,6.6-7,4-9.8
		c3.7,2.7,6.5-0.8,10.6-2.7c4.7-2.3,7.7-2.4,12.2,1.6l0,4c-4.6,1.3-8.9,4.7-6.4,14c-0.8,0.5-1.5,1.1-2.3,1.7
		c-8.2-6.7-14.4-2-17.1,4.6c-1.3,5.5-1,12.9,11.3,13.4c0.2,0.9,0.5,1.8,0.9,2.7c-9.1,5.9-6.5,13.3-0.8,17.8c6.4,5,12.8,0.6,14.4-2.3
		L96.9,152.8z"/>
	<path class="st4" d="M60,121.2c-0.1,1.6-0.4,3.1-1.2,4.2c-0.4,0.6-1.2,1.4-2,1.8l-2.2,1c0.9-1,1.7-2.1,2.2-3.3
		c0.5-1.2,0.6-2.5,0.6-3.5c0-1.3-0.2-2.5-0.5-3.7c-0.5-3.2-0.2-6.9,1.8-9.6c0.8-0.9,1.6-1.5,2.7-2.1c1.5-0.6,3.1-1,4.8-1
		c-2.3,1.1-4.3,2.3-5.5,4.6c-1,2.1-0.9,4.5-0.9,6.7C60.1,118,60.1,119.6,60,121.2"/>
	<path class="st4" d="M140.6,121.2c0.1,1.6,0.4,3.1,1.2,4.2c0.4,0.6,1.2,1.4,2,1.8l2.2,1c-0.9-1-1.7-2.1-2.2-3.3
		c-0.5-1.2-0.6-2.5-0.6-3.5c0-1.3,0.2-2.5,0.5-3.7c0.5-3.2,0.2-6.9-1.8-9.6c-0.8-0.9-1.6-1.5-2.7-2.1c-1.5-0.6-3.1-1-4.8-1
		c2.3,1.1,4.3,2.3,5.5,4.6c0.9,2.1,0.9,4.5,0.9,6.7C140.6,118,140.6,119.6,140.6,121.2"/>
	<path class="st4" d="M70.5,88c0.8-1,1.7-2,2.4-3.1c0.9-1.3,1.6-2.9,0.6-4.3c-0.5-0.6-1.4-1.5-2-2c0.5,2.9-0.8,5.3-2.6,7.5
		c-0.7,0.9-1.6,1.8-2.5,2.6c-2.2,2.4-4.8,5.7-4.4,9.2c0.1,0.6,0.3,1.1,0.6,1.6c1.2,1.7,2.8,2.6,4.7,3.3c-1.1-1.4-1.7-3-1.8-4.8
		c0.1-3.4,2.3-6.3,4.1-8.9L70.5,88z"/>
	<path class="st4" d="M130.1,88c-0.8-1-1.6-2-2.4-3.1c-0.9-1.3-1.6-2.9-0.6-4.3c0.5-0.6,1.4-1.5,2-2c-0.5,2.9,0.8,5.3,2.6,7.5
		c0.7,0.9,1.6,1.8,2.5,2.6c2.2,2.4,4.8,5.7,4.4,9.2c-0.1,0.6-0.3,1.1-0.6,1.6c-1.2,1.7-2.8,2.6-4.7,3.3c1.1-1.4,1.7-3,1.8-4.8
		c-0.1-3.4-2.3-6.3-4.2-8.9L130.1,88z"/>
	<path class="st4" d="M109,96.5c0.4-1.8,0.6-3.7,0.5-5.6c-0.1-0.7-0.3-1.4-0.5-2.1c-0.8-2-2.1-3.2-4-4.2l-1.3-0.5l0,10.5
		C105.6,94.9,107.4,95.6,109,96.5"/>
	<path class="st4" d="M91.2,96.7c-0.5-1.9-0.7-3.9-0.5-5.9c0.3-1.8,0.8-3.2,2.1-4.6c1.2-1.1,2.6-1.8,4.1-2.3l0,10.7
		C94.8,95,92.9,95.7,91.2,96.7"/>
	<path class="st4" d="M112.8,99.2c1.9-1.5,3.9-2.7,6.5-2.9c1.1,0,2,0.1,3,0.5c3,1.3,4.8,4,6,6.9c0.4,1.5,0.5,3,0.5,4.6
		c-0.2,2.5-1.2,4.4-3.3,5.8c-1.8,1.1-3.7,1.6-5.8,1.8c-0.4,0-0.9,0.1-1.3,0.1c0.2-1.1,0.3-2.2,0.3-3.4
		C118.6,107.3,116.3,102.6,112.8,99.2"/>
	<path class="st4" d="M83.7,120.2c-1.8,1.2-3.4,2.6-4.5,4.4c-0.7,1.2-1,2.3-1,3.7c0.1,3.5,2.3,6.2,4.8,8.3c2.3,1.5,4.8,2.6,7.5,2
		c2.3-0.5,5.4-2.3,6.4-5.3v-2.6C91,129.5,86.1,125.5,83.7,120.2"/>
	<path class="st4" d="M116.9,120.4c1.7,1.1,3.2,2.5,4.2,4.2c0.7,1.2,1,2.3,1,3.7c-0.1,3.5-2.3,6.2-4.8,8.3c-2.3,1.3-4.8,2.3-7.6,1.9
		c-2.1-0.5-3.4-1.6-4.8-3.2c-0.6-0.9-0.7-1.1-1.2-2l0-2.5C109.5,129.6,114.4,125.7,116.9,120.4"/>
	<path class="st4" d="M82.3,116c-2.6-0.1-5.2-0.6-7.5-2c-2.1-1.5-3.1-3.3-3.3-5.8c-0.1-1.5,0.1-3.1,0.5-4.5c1.3-3.1,3.3-5.9,6.6-7.1
		c0.8-0.2,1.6-0.3,2.5-0.3c2.6,0.2,4.7,1.5,6.7,3.1c-3.5,3.3-5.6,8-5.6,13.3C82,113.8,82.1,114.9,82.3,116"/>
	<path class="st4" d="M61.9,129.2c-1.6-1-2.2-1.1-3.8-1.1c-1.1,0-2.2,0.3-3,0.5c0.3,0,1.6,0.2,2.4,0.5c1.6,0.5,2.9,1.5,4.1,2.7
		c1,1,1.8,2.2,2.5,3.4c0.5,0.8,1,1.7,1.5,2.5c1.7,2.3,3.6,4.3,6.6,4.9c3.1,0.6,5.2-0.6,7.7-2.1c-1.9,0.4-4.7,0.6-6.5-0.1
		c-2.7-1.2-4.5-3.6-6.3-5.8C65.5,132.7,64,130.6,61.9,129.2"/>
	<path class="st4" d="M138.8,129.2c1.6-1,2.2-1.1,3.8-1.1c1.1,0,2.2,0.3,3,0.5c-0.3,0-1.6,0.2-2.4,0.5c-1.5,0.5-2.9,1.5-4,2.7
		c-1,1-1.8,2.2-2.6,3.4c-0.5,0.8-1,1.7-1.5,2.5c-1.7,2.3-3.6,4.3-6.6,4.9c-3.1,0.6-5.2-0.6-7.7-2.1c1.9,0.4,4.7,0.6,6.5-0.1
		c2.7-1.2,4.5-3.6,6.3-5.8C135.1,132.7,136.7,130.6,138.8,129.2"/>
	<path class="st4" d="M96.9,157.3c-1.4-1-3-1.6-4.7-1.9c-0.5-0.1-1.1-0.2-1.6-0.3c-2.9-0.6-5.5-1.4-7.4-3.8c-1-1.5-1.3-2.8-1.3-4.5
		c0-1.3,0.3-3.6,0.6-4.9c0,1.2,0.1,5.1,2.5,7.4c1.8,1.6,4.1,2.2,6.2,3l0.4,0.1l0.4,0.1c1.4,0.4,2.9,0.6,4.3,1l0.6,0.2V157.3z"/>
	<path class="st4" d="M96.9,76.9l0,1.3c-1.4-1.3-3.1-2.4-4.9-2.9c-1.7-0.3-3.3-0.2-4.9,0.4c-1.9,0.6-3.7,1.5-5.4,2.6l-0.4,0.2
		c-1.5,0.9-3.2,2.1-5.1,1.8c-1.7-0.4-3.4-1.4-4.4-2.3c0.8,0.2,2.3,0.2,3,0.1c3-0.4,5.6-2,7.9-3.8c2.4-1.5,5.3-2.3,8.1-1.8
		c2,0.5,3.5,1.5,4.9,3L96.9,76.9z"/>
	<path class="st4" d="M103.8,78.1l0-1.3l1.1-1.4c1.4-1.5,2.9-2.5,4.9-3c2.8-0.5,5.8,0.2,8.2,1.8c2.3,1.8,5,3.5,7.9,3.8
		c0.6,0.1,2.2,0.1,3-0.1c-1.1,0.8-2.7,1.9-4.4,2.3c-1.8,0.3-3.6-0.9-5.1-1.8l-0.4-0.2c-1.7-1.1-3.5-2-5.3-2.6
		c-1.7-0.5-3.2-0.7-4.9-0.4C106.9,75.7,105.2,76.9,103.8,78.1"/>
	<path class="st4" d="M103.8,157.3c1.5-1,3-1.6,4.7-1.9c0.5-0.1,1.1-0.2,1.6-0.3c2.9-0.6,5.5-1.4,7.4-3.8c0.9-1.5,1.3-2.8,1.3-4.5
		c0-1.3-0.3-3.6-0.6-4.9c0,1.2-0.1,5.1-2.5,7.4c-1.8,1.6-4.1,2.2-6.2,3l-0.4,0.1l-0.4,0.1c-1.4,0.4-2.9,0.6-4.3,1l-0.6,0.2V157.3z"
		/>
	<path class="st4" d="M103.8,152.8l0-17.8c4.2,6.4,10,4.7,14,2.3c5.6-4.5,8.3-11.8-0.6-17.7c0.4-0.9,0.7-1.8,0.9-2.8
		c12.1-0.6,12.3-8,11-13.4c-2.7-6.7-8.7-11.7-16.9-4.8c-0.8-0.7-1.6-1.2-2.4-1.8c2.3-8.8-1.6-12.3-6-13.6l0-4.2
		c4.5-4,7.5-3.9,12.2-1.6c4.1,1.9,6.9,5.4,10.6,2.7c-2.6,2.8,1.5,6.2,4,9.8c3.6,5.2,6,9.6,0.1,14.5l0,0c9.5,3.3,9.1,6.3,9.1,12.5
		c0,4.3-0.4,9,3.7,10.7c-4.5-1.3-7.6,2.9-10.6,6.4c-4.1,4.7-5.7,8.1-15.2,4.8l0,0c-0.1,10.1-2.5,10.5-8.1,12.5
		C107.7,152,105.5,152.2,103.8,152.8"/>
	<polygon class="st1" points="102.8,119.6 103.9,124.3 108.7,124.6 113.8,118 112.5,113.5 107.7,113.1 	"/>
	<path class="st1" d="M90.4,119.5c0,0.5,0.7,2.8,0.8,3.4c0.2,0.9,0,1,0.8,1.3c0.5,0.2,1,0.4,1.5,0.6c0.8,0.3,5.8,2.2,6.1,2.2
		c0,0,1.6-1.2,1.8-1.3c0.2-0.1,1.8-1.3,1.8-1.3c0-0.2-0.7-2.9-0.9-3.3c-0.1-0.3-0.2-0.6-0.2-0.8c-0.1-0.5-0.1-0.4-0.5-0.5
		c-0.5-0.2-1-0.4-1.5-0.6c-1-0.3-2-0.7-3-1.1c-0.5-0.2-1-0.4-1.5-0.6c-0.4-0.2-1.1-0.4-1.5-0.6L90.4,119.5z"/>
	<path class="st1" d="M103.3,105.8l4.5,6.7l4.7,0.3c0.1-0.6,0.6-1.5,0.8-2.2c0.1-0.3,0.8-2.1,0.8-2.2c0-0.1-4.2-6.4-4.6-7l-4.6-0.2
		L103.3,105.8z"/>
	<path class="st1" d="M86.8,107.9l-0.5,8.3c0.4,0.2,3.7,2.7,3.7,2.7c0.2,0,3.3-2.3,3.8-2.6l0.5-8.2l-3.5-2.8L86.8,107.9z"/>
	<path class="st1" d="M93,100.4l-1.5,4.5l3.6,2.9c0.4-0.1,1.1-0.3,1.5-0.5c0.5-0.2,1-0.3,1.5-0.5c1-0.4,2.1-0.6,3.1-0.9
		c2-0.7,1.3,0.1,2.1-1.9c0.2-0.5,0.3-0.9,0.5-1.4c0.2-0.4,0.4-1.1,0.5-1.5c-0.5-0.3-3.6-3-3.7-3h0c0,0-3.5,1-3.8,1.1
		C96.4,99.4,93.1,100.3,93,100.4"/>
	<path class="st1" d="M83.9,106.4c0,0.2,2.2,1,2.4,1.2c0.5-0.4,1.5-0.9,2-1.3c0.7-0.5,1.4-0.9,2.1-1.3c0.5-0.3,0.4-0.5,0.6-1.1
		c0.2-0.4,0.3-0.8,0.4-1.3c0.1-0.4,0.3-0.8,0.4-1.2c0.1-0.4,0.3-0.9,0.4-1.3c-0.1-0.2-1.4-2.2-1.5-2.2c-0.3,0-2,1.3-2.3,1.6
		c-0.7,0.7-1.3,1.2-1.9,2C86.1,102.2,83.9,105.3,83.9,106.4"/>
	<path class="st1" d="M101.1,95.1l-0.2,2.6l3.8,3.1l4.5,0.2h0.4c0.1,0,1.5-1.9,1.7-2.2c-0.3-0.2-0.6-0.5-0.9-0.7
		c-0.3-0.2-0.7-0.4-1-0.6c-0.6-0.4-1.5-0.8-2.2-1.1c-1.3-0.5-3.6-1.3-5.3-1.3h-0.5C101.2,95.1,101.2,95.1,101.1,95.1"/>
	<path class="st1" d="M101,130.3c2.9,0,7.6-1.3,9-2.9l-1.6-2.2l-4.8-0.5l-3.9,3l0,2.2l0,0.3l0.4,0L101,130.3z"/>
	<path class="st1" d="M114.8,108.6c-0.1,0.1-1.8,4.5-1.8,4.6c0,0.4,0.9,2.9,1.1,3.5c0.3,1.1,0.1,0.9,1,1.2c0.3,0.1,1.5,0.6,1.7,0.6
		c0.1-0.3,0.4-0.8,0.5-1.3c0.1-0.5,0.2-0.9,0.3-1.4c0.2-1,0.3-2.1,0.3-3.2v-0.7c0-0.8-0.1-1.5-0.2-2.2c0-0.3-0.1-0.7-0.2-1
		c-0.1-0.3-0.2-0.6-0.3-0.9L114.8,108.6z"/>
	<path class="st1" d="M83.5,117.3c0,1.2,1.6,4.3,2.2,5.1c0.5,0.7,1,1.4,1.6,2.1c0.2,0.3,1.6,1.7,2,1.7c0,0,1.6-1.7,1.7-1.9
		c-0.2-0.4-0.5-2-0.7-2.5c-0.1-0.5-0.2-0.8-0.3-1.3c-0.1-0.4-0.2-0.9-0.5-1.1c-0.4-0.3-3.4-2.7-3.7-2.7
		C85.6,116.7,83.9,117.2,83.5,117.3"/>
</g>
</svg>
