<?xml version="1.0" encoding="utf-8"?>
<!-- Generator: Adobe Illustrator 21.1.0, SVG Export Plug-In . SVG Version: 6.00 Build 0)  -->
<svg version="1.1" id="Layer_1" xmlns="http://www.w3.org/2000/svg" xmlns:xlink="http://www.w3.org/1999/xlink" x="0px" y="0px"
	 viewBox="0 0 200 200" style="enable-background:new 0 0 200 200;" xml:space="preserve">
<style type="text/css">
	.st0{fill:#25429A;}
	.st1{fill:#FFFFFF;}
	.st2{fill:#EC2029;}
</style>
<g>
	<path class="st0" d="M100,200c2,0,3.8-4.5,5.4-7.3c2.9-5.1,9.4-10.1,19.1-14.2c12.2-5.2,31.9-11.1,39.5-25
		c8.7-15.9,5.1-29.4-0.5-47c-4.9-15.3-11.7-35.1-4.6-56.4c5.7-17.2,12.6-28.4,12.6-28.4L141.8,2.3l-18.1,16.3
		c-2.4,2-4.3,1.9-6.4-0.2L100,0L82.6,18.4c-2.1,2.2-4,2.2-6.4,0.2L58.2,2.3L28.6,21.6c0,0,6.9,11.1,12.6,28.4
		c7.1,21.3,0.3,41.2-4.6,56.4c-5.7,17.6-9.2,31.1-0.5,47c7.5,13.8,27.2,19.7,39.5,25c9.7,4.1,16.2,9.1,19.1,14.2
		C96.2,195.5,98,200,100,200L100,200z"/>
	<path class="st1" d="M144.6,148.6c-1.1,1.5-3,3.8-5.5,5.8c-1.1,0-8.1,0-10.9,0c0-2.3,0-5.9,0-5.9c0-2.1-1.6-3.8-3.6-3.8
		c-2,0-3.6,1.7-3.6,3.8c0,0,0,3.7,0,5.9c-1.5,0-2.5,0-3.6,0c-3.2-6.2-9.3-9.6-17.4-9.5c-8.1-0.1-14.2,3.3-17.4,9.5
		c-1.1,0-2.1,0-3.6,0c0-2.3,0-5.9,0-5.9c0-2.1-1.6-3.8-3.6-3.8c-2,0-3.6,1.7-3.6,3.8c0,0,0,3.7,0,5.9c-2.8,0-9.8,0-10.9,0
		c-2.5-2-4.4-4.3-5.5-5.8c5.1-3.2,21.7-12.3,44.6-12.3C123,136.3,139.5,145.4,144.6,148.6z"/>
	<path class="st2" d="M44.2,98.7l10.1-5.4v-41c0-0.6,0.5-1.1,1.1-1.1h4.2c0.6,0,1.1,0.5,1.1,1.1v5.3h3.4v-5.3c0-0.6,0.5-1.1,1.1-1.1
		h4.7c0.6,0,1.1,0.5,1.1,1.1v5.3h3.4v-5.3c0-0.6,0.5-1.1,1.1-1.1h4.2c0.6,0,1.1,0.5,1.1,1.1v32.9h0.1h3.3c0.6,0,1.1,0.5,1.1,1.1v6.3
		h2.5v-6.3c0-0.6,0.5-1.1,1.1-1.1H89l0-0.1l2.3-44.7c0-0.6,0.6-1.1,1.2-1.1h14.9c0.6,0,1.1,0.5,1.2,1.1L111,85l0,0.1h0.1
		c0.6,0,1.1,0.5,1.1,1.1v6.3h2.5v-6.3c0-0.6,0.5-1.1,1.1-1.1h3.3h0.1V52.3c0-0.6,0.5-1.1,1.1-1.1h4.2c0.6,0,1.1,0.5,1.1,1.1v5.3h3.4
		v-5.3c0-0.6,0.5-1.1,1.1-1.1h4.7c0.6,0,1.1,0.5,1.1,1.1v5.3h3.4v-5.3c0-0.6,0.5-1.1,1.1-1.1h4.2c0.6,0,1.1,0.5,1.1,1.1v41l10.1,5.4
		l0,0c-2.6-8.7-5-18.7-5-29.4c0-6.7,0.9-13.7,3.3-20.8c3.8-11.5,8.1-20.3,10.7-25.2c-5.1-3.4-18.2-11.9-22.5-14.7
		c-4,3.6-15.3,13.8-15.3,13.8l-0.1,0.1c-4.3,3.6-9.3,3.4-13.1-0.6c0,0-9.3-9.8-13.8-14.6C95.5,12,86.2,21.8,86.2,21.8
		c-3.9,4-8.8,4.2-13.1,0.6L73,22.4c0,0-11.3-10.2-15.3-13.8c-4.3,2.8-17.4,11.4-22.5,14.7c2.6,4.9,6.9,13.7,10.7,25.2
		c2.4,7.1,3.3,14.1,3.3,20.8C49.2,80,46.8,90,44.2,98.7L44.2,98.7z"/>
	<path class="st1" d="M80.9,94.6L80.9,94.6l-2.1,0l0,0c0-3.5,0-37.7,0-41.3c-1,0-1.3,0-2.3,0c0,1.9,0,6.4,0,6.4h-7.6
		c0,0,0-4.5,0-6.4c-1.1,0-1.6,0-2.7,0c0,1.9,0,6.4,0,6.4h-7.6c0,0,0-4.5,0-6.4c-1,0-1.3,0-2.3,0c0,3.8,0,41.2,0,41.2l-16.1,8.7
		l-0.1,0.1c-0.3,0.9-0.6,1.8-0.8,2.6l-0.4,1.3c-3.3,10.2-5.7,18.6-5.7,26.5c0,5,0.9,9.8,3.1,14.9l0.1,0.2
		c16.7-12.9,40.4-23.2,63.5-23.2l0,0c23.1,0,46.6,10.2,63.3,23l0.2,0.1c2.3-5.1,3.2-10,3.2-15.1c0-8-2.4-16.3-5.7-26.5l-0.4-1.3
		c-0.3-0.9-0.6-1.7-0.8-2.6l-0.1-0.1l-16.1-8.7c0,0,0-37.5,0-41.2c-1,0-1.3,0-2.3,0c0,1.9,0,6.4,0,6.4h-7.6c0,0,0-4.5,0-6.4
		c-1.1,0-1.6,0-2.7,0c0,1.9,0,6.4,0,6.4h-7.6c0,0,0-4.5,0-6.4c-1,0-1.3,0-2.3,0c0,3.6,0,37.8,0,41.3l0,0h-2.1l0,0v-7.3l0,0
		c-1,0-1.3,0-2.3,0c0,2.2,0,7.4,0,7.4h-6.7c0,0,0-5.3,0-7.4c-1,0-1.3,0-2.3,0c0,2.2,0,7.4,0,7.4h-6.7c0,0,0-5.3,0-7.4
		c-1,0-1.3,0-2.3,0c0,2.2,0,7.4,0,7.4h-6.7c0,0,0-5.3,0-7.4c-1,0-1.3,0-2.3,0c0,2.2,0,7.4,0,7.4h-6.7c0,0,0-5.3,0-7.4
		c-1,0-1.3,0-2.3,0L80.9,94.6z"/>
	<path class="st1" d="M39.5,149.2c0.3,0.6,0.6,1.2,1,1.9c5.5,10.1,19.6,15.8,30.9,20.3c2.2,0.9,4.2,1.7,6.2,2.5
		c10.5,4.5,17.9,10.1,21.4,16.4c0,0,1,1.8,1.1,2c0.2-0.4,1.1-2,1.1-2c3.5-6.2,10.9-11.9,21.4-16.4c1.9-0.8,4-1.6,6.2-2.5
		c11.3-4.5,25.4-10.1,30.9-20.3c0.3-0.6,0.7-1.2,0.9-1.8l0-0.1c0.6,0.5,1.3,0.9,1.9,1.4l0.1,0.1c-0.3,0.5-0.5,1-0.8,1.5
		c-6,10.9-20.5,16.7-32.2,21.4c-2.2,0.9-4.2,1.7-6.1,2.5c-10,4.3-17,9.6-20.3,15.3l-1.1,2c-0.5,1.1-1.5,2.8-2.2,3.7
		c-0.7-0.9-1.6-2.6-2.2-3.7l-1.1-2c-3.3-5.7-10.3-11-20.3-15.3c-1.9-0.8-3.9-1.6-6.1-2.5c-11.7-4.7-26.2-10.4-32.2-21.4
		c-0.3-0.5-0.5-1-0.8-1.5l0.2-0.2C38.2,150.1,38.8,149.7,39.5,149.2L39.5,149.2z"/>
	<path class="st2" d="M116,156.6c-2.8-6.5-8.6-9.6-16-9.5l0,0c-7.4-0.1-13.3,3-16,9.5h-7v-8c0-0.9-0.7-1.7-1.5-1.7
		c-0.8,0-1.5,0.8-1.5,1.7v8H60.1c-4.8-3.7-7.7-8.5-7.7-8.5s18.7-13.9,47.5-13.9l0,0c28.8,0,47.5,13.9,47.5,13.9s-2.8,4.9-7.7,8.5
		h-13.7v-8c0-0.9-0.7-1.7-1.5-1.7c-0.8,0-1.5,0.8-1.5,1.7v8H116z M39.5,149.2c0.3,0.6,0.6,1.2,1,1.9c5.5,10.1,19.6,15.8,30.9,20.3
		c2.2,0.9,4.2,1.7,6.2,2.5c10.5,4.5,17.9,10.1,21.4,16.4c0,0,1,1.8,1.1,2c0.2-0.4,1.1-2,1.1-2c3.5-6.2,10.9-11.9,21.4-16.4
		c1.9-0.8,4-1.6,6.2-2.5c11.3-4.5,25.4-10.1,30.9-20.3c0.3-0.6,0.7-1.2,0.9-1.8l0-0.1c-6.6-4.9-14.2-9.3-22-12.8
		c-12.9-5.7-26.3-8.7-38.6-8.7c-12.3,0-25.6,3-38.6,8.7C53.6,139.9,46.1,144.3,39.5,149.2L39.5,149.2z"/>
	<path class="st1" d="M68.9,158.9v6.7h1.9c0,0,0-1.7,0-2c0.3,0,0.9,0,0.9,0c0.9,0,1.7-0.2,2.1-0.6c0.5-0.4,0.8-1,0.8-1.8
		c0-0.8-0.2-1.4-0.7-1.8c-0.5-0.4-1.2-0.5-2.2-0.5H68.9z M71.6,160.5c0.5,0,0.8,0.1,0.9,0.2c0.1,0.1,0.2,0.3,0.2,0.6
		c0,0.3-0.1,0.5-0.2,0.6c-0.1,0.1-0.3,0.2-0.9,0.2c0,0-0.5,0-0.8,0c0-0.3,0-1.2,0-1.5C71.1,160.5,71.6,160.5,71.6,160.5z"/>
	<path class="st1" d="M77.9,158.9c-0.4,0.1-0.7,0.3-1,0.6c-0.4,0.3-0.6,0.7-0.8,1.2c-0.2,0.5-0.3,1-0.3,1.5c0,1,0.3,1.9,0.9,2.5
		c0.6,0.6,1.4,1,2.4,1c1,0,1.8-0.3,2.4-1c0.6-0.6,0.9-1.5,0.9-2.5c0-0.6-0.1-1.1-0.3-1.5c-0.2-0.5-0.5-0.9-0.8-1.2
		c-0.3-0.3-0.6-0.5-1-0.6c-0.4-0.1-0.8-0.2-1.2-0.2C78.6,158.7,78.2,158.8,77.9,158.9z M78.1,163.6L78.1,163.6
		c-0.2-0.3-0.4-0.7-0.4-1.3c0-0.6,0.1-1,0.4-1.3c0.2-0.3,0.5-0.4,0.9-0.4c0.4,0,0.7,0.1,0.9,0.4c0.2,0.3,0.4,0.8,0.4,1.3
		c0,0.6-0.1,1-0.4,1.3c-0.2,0.3-0.5,0.4-0.9,0.4C78.6,164,78.3,163.8,78.1,163.6z"/>
	<path class="st1" d="M83.9,158.9v6.7h2.4c1.2,0,2-0.3,2.6-0.8c0.6-0.6,0.9-1.4,0.9-2.5c0-1.1-0.3-2-0.9-2.5
		c-0.6-0.5-1.5-0.8-2.7-0.8H83.9z M86.3,160.6c0.5,0,0.9,0.1,1.1,0.4c0.2,0.3,0.4,0.7,0.4,1.2c0,0.6-0.1,1-0.4,1.2
		c-0.2,0.3-0.6,0.4-1.1,0.4c0,0-0.3,0-0.5,0c0-0.4,0-2.9,0-3.3C86,160.6,86.3,160.6,86.3,160.6z"/>
	<path class="st1" d="M91.9,159.7c-0.6,0.6-0.9,1.5-0.9,2.6c0,1,0.3,1.9,0.8,2.5c0.5,0.6,1.3,0.9,2.2,0.9c2.3,0,3.2-1.2,3.2-1.2
		l0-0.1v-2.8h-3.1v1.7c0,0,1.1,0,1.4,0c0,0.1,0,0.2,0,0.2c-0.1,0.1-0.5,0.4-1.2,0.4c-0.5,0-0.8-0.1-1-0.4c-0.2-0.3-0.4-0.7-0.4-1.3
		c0-0.6,0.1-1,0.4-1.3c0.3-0.3,0.6-0.5,1.1-0.4c0.6,0,0.8,0.4,0.9,0.4l0.1,0.1l0.1,0h1.8l0-0.3c0,0-0.2-0.9-1.3-1.6
		c-0.5-0.3-1-0.4-1.7-0.4C93.3,158.7,92.5,159.1,91.9,159.7z"/>
	<path class="st1" d="M100.7,158.9c-0.4,0.1-0.7,0.3-1,0.6c-0.4,0.3-0.6,0.7-0.8,1.2c-0.2,0.5-0.3,1-0.3,1.5c0,1,0.3,1.9,0.9,2.5
		c0.6,0.6,1.4,1,2.4,1c1,0,1.8-0.3,2.4-1c0.6-0.6,0.9-1.5,0.9-2.5c0-0.6-0.1-1.1-0.3-1.5c-0.2-0.5-0.5-0.9-0.8-1.2
		c-0.3-0.3-0.6-0.5-1-0.6c-0.4-0.1-0.8-0.2-1.2-0.2C101.5,158.7,101.1,158.8,100.7,158.9z M101,163.6L101,163.6
		c-0.2-0.3-0.4-0.7-0.4-1.3c0-0.6,0.1-1,0.4-1.3c0.2-0.3,0.5-0.4,0.9-0.4c0.4,0,0.7,0.1,0.9,0.4c0.2,0.3,0.4,0.8,0.4,1.3
		c0,0.6-0.1,1-0.4,1.3c-0.2,0.3-0.5,0.4-0.9,0.4C101.5,164,101.2,163.8,101,163.6z"/>
	<path class="st1" d="M106.7,158.9v6.7h1.9c0,0,0-1.9,0-2.2c0.2,0,0.5,0,0.6,0c0.1,0.2,1.2,2.2,1.2,2.2h2.2c0,0-1.3-2.3-1.5-2.7
		c0.3-0.2,0.6-0.4,0.8-0.6c0.2-0.3,0.4-0.8,0.4-1.2c0-0.7-0.2-1.3-0.7-1.7c-0.5-0.3-1.2-0.5-2.1-0.5H106.7z M109.5,160.5
		c0.5,0,0.7,0.1,0.8,0.1c0.1,0.1,0.2,0.3,0.2,0.5c0,0.2-0.1,0.4-0.2,0.5c-0.1,0.1-0.3,0.2-0.8,0.2c0,0-0.6,0-0.9,0c0-0.3,0-1,0-1.3
		C108.9,160.5,109.5,160.5,109.5,160.5z"/>
	<rect x="114.1" y="158.9" class="st1" width="1.9" height="6.7"/>
	<path class="st1" d="M118.5,159.7c-0.6,0.6-0.9,1.5-0.9,2.5c0,1.1,0.3,1.9,0.9,2.5c0.6,0.6,1.4,1,2.3,1c0.6,0,1.2-0.1,1.6-0.4
		c0.5-0.3,0.9-0.7,1.2-1.3l0.1-0.2l-1.6-0.8l-0.1,0.2c-0.1,0.3-0.3,0.5-0.5,0.6c-0.2,0.1-0.4,0.2-0.7,0.2c-0.4,0-0.7-0.1-0.9-0.4
		c-0.2-0.3-0.3-0.8-0.3-1.3c0-0.6,0.1-1,0.4-1.3c0.2-0.3,0.5-0.4,0.9-0.4c0.2,0,0.5,0.1,0.6,0.2c0.2,0.1,0.3,0.3,0.5,0.6l0.1,0.2
		l1.6-0.8l-0.1-0.2c-0.3-0.6-0.6-1-1.1-1.3c-0.5-0.3-1-0.4-1.6-0.4C119.9,158.7,119.1,159.1,118.5,159.7z"/>
	<path class="st1" d="M126.8,158.9l-2.4,6.7h2.1c0,0,0.3-0.8,0.3-1c0.3,0,1.7,0,2,0c0.1,0.2,0.3,1,0.3,1h2.1l-2.4-6.7H126.8z
		 M127.7,161.5c0.2,0.6,0.4,1.2,0.5,1.5c-0.3,0-0.7,0-1,0C127.3,162.7,127.5,162.1,127.7,161.5z"/>
	<path class="st1" d="M44.2,98.7l-3,1.6l-0.1,0c1.9-6.2,3.8-13.1,4.8-20.4c0.5-3.7,0.8-7.2,0.8-10.7c0-7-1.1-13.7-3.2-20.1
		C39.1,36,34.1,26.5,31.9,22.4c3.2-2.1,23.4-15.3,26-17c2.4,2.2,16.7,15.1,16.7,15.1l0,0c3.4,2.8,6.7,2.7,9.8-0.4
		c0,0,12.7-13.4,15.6-16.5c2.9,3.1,15.6,16.5,15.6,16.5c3,3.1,6.4,3.3,9.8,0.4l0,0c0,0,14.3-12.9,16.7-15.1c2.7,1.7,22.8,14.9,26,17
		c-2.3,4-7.3,13.6-11.7,26.8c-2.1,6.4-3.2,13-3.2,20.1c0,3.5,0.3,7,0.8,10.7c1,7.3,2.9,14.1,4.8,20.4l-0.1-0.1l-3-1.6l0,0
		c-2.6-8.7-5-18.7-5-29.4c0-6.7,0.9-13.7,3.3-20.8c3.8-11.5,8.1-20.3,10.7-25.2c-5.1-3.4-18.2-11.9-22.5-14.7
		c-4,3.6-15.3,13.8-15.3,13.8l-0.1,0.1c-4.3,3.6-9.3,3.4-13.1-0.6c0,0-9.3-9.8-13.8-14.6C95.5,12,86.2,21.8,86.2,21.8
		c-3.9,4-8.8,4.2-13.1,0.6L73,22.4c0,0-11.3-10.2-15.3-13.8c-4.3,2.8-17.4,11.4-22.5,14.7c2.6,4.9,6.9,13.7,10.7,25.2
		c2.4,7.1,3.3,14.1,3.3,20.8C49.2,80,46.8,90,44.2,98.7L44.2,98.7z"/>
	<path class="st1" d="M91.3,85.1h1.9c0.6,0,1.1,0.5,1.1,1.1v6.3h2.5v-6.3c0-0.6,0.5-1.1,1.1-1.1h4.3c0.6,0,1.1,0.5,1.1,1.1v6.3h2.5
		v-6.3c0-0.6,0.5-1.1,1.1-1.1h2l0-0.1c-0.5-10-2.1-40.7-2.3-43.7c-2.7,0-10.5,0-13.1,0c-0.2,3-2.3,43.8-2.3,43.8H91.3z"/>
	<path class="st1" d="M99.3,18.7c0.4-1.2,1-1.2,1.4,0l2.1,6.6h6.9c1.2,0,1.4,0.6,0.4,1.3l-5.6,4.1l2.1,6.6c0.4,1.2-0.1,1.5-1.1,0.8
		l-5.6-4.1l-5.6,4.1c-1,0.7-1.5,0.4-1.1-0.8l2.1-6.6l-5.6-4.1c-1-0.7-0.8-1.3,0.4-1.3h7L99.3,18.7z"/>
	<polygon class="st2" points="100,20.9 101.9,26.7 108,26.7 103,30.2 104.9,36 100,32.5 95.1,36 97,30.2 92,26.7 98.1,26.7 	"/>
	<path class="st2" d="M80.9,122.3H68.2l-0.1,0v-1.9c1.1,0,1.4-0.6,1.4-1.8v-4.7c0-1.2-0.6-1.4-1.4-1.4v-2.2l0,0h7.6l0,0v2.2
		c-1.1,0-1.5,0.2-1.5,1.2v4.9c0,1.2,0.5,1.8,1.6,1.8c0.9,0,1.8,0,1.8-2.5v-1h3.2L80.9,122.3L80.9,122.3z"/>
	<path class="st2" d="M66.6,122.2v-1.8c-0.9,0-1.3-0.6-1.3-1.8v-4.9c0-1,0.4-1.3,1.3-1.2v-2.3l-0.1,0h-8.9l-1.5,3.2l-1.7-3.2h-8.1
		l0,0v2.2c1,0,1.6,0.2,1.6,1.4v4.7c0,1.2-0.3,1.8-1.6,1.8v1.9l0,0h6.4v-0.1v-1.8c-1.1,0-1.6-0.6-1.6-1.8v-2.9c0.6,0,1,0.7,1.9,2.7
		c0.9,1.9,1.7,3.9,1.7,3.9h2.2c0,0,1.1-3.1,2-5.6c0.4-1.2,1.2-1,1.2-1v2.9c0,1.2-0.2,1.8-1.2,1.8v1.9l0.1,0L66.6,122.2L66.6,122.2z"
		/>
	<path class="st2" d="M140.6,110.2v4.9h2.3v-1c0-1.4,0.5-1.6,1.9-1.6v6.1c0,1.2-0.5,1.8-1.6,1.8v1.8l0,0.1h7.9l0-0.1v-1.8
		c-1.1,0-1.6-0.6-1.6-1.8v-6.1c1.4,0,1.9,0.2,1.9,1.6v1h2.3v-4.9l-0.1,0h-12.9H140.6z"/>
	<path class="st2" d="M117.4,122.4c-2.6-0.7-4.4-3-4.4-5.7v-0.5c0-2.6,1.7-4.8,4-5.6c0.9-0.3,1.9-0.3,2.8-0.3c0.6,0,1.5,0,2.1,0.1
		c2.7,0.6,4.7,3,4.7,5.8v0.5c0,2.9-2,5.3-4.8,5.8c-0.7,0.1-1.2,0.1-2,0.1C118.9,122.5,118.1,122.5,117.4,122.4z M121.2,114
		c0-1-0.7-1.7-1.5-1.7c-0.8,0-1.5,0.8-1.5,1.7v4.7c0,1,0.7,1.7,1.5,1.7c0.8,0,1.5-0.8,1.5-1.7V114z"/>
	<path class="st2" d="M87.4,117.6c0.3-1.2,0.8-2.8,0.8-2.8h0.6c0,0,0.6,1.6,1,2.8H87.4z M89.4,120.5v1.9h7.2v-1.9
		c-0.6,0-0.9-0.3-1.2-1.1l-3.6-9.1h-5.3l-2.8,9.1c-0.3,0.9-0.6,1.2-1.7,1.2v1.9h6v-1.9c-0.9,0-1.1-0.5-1-1.6h3.2
		C90.5,119.9,90.2,120.4,89.4,120.5z"/>
	<path class="st2" d="M90.1,104.7v1.3c0,0.9,1,1.2,1.7,1.2v1.1h-9.4v-1.1c0.8,0,1.9-0.3,1.8-1.2v-3.8c0-0.9-1.1-1.1-1.8-1.1v-1.3H98
		l0.1,0v3h-3.2v-0.6c0-0.9-0.7-1.1-1.1-1.1h-2c-0.7,0-1.7,0.2-1.7,1.1v0.9l0.1,0h0.9c0.6,0,0.7-0.6,0.7-0.6h1.5v2.6h-1.5
		c0,0-0.1-0.6-0.7-0.6L90.1,104.7L90.1,104.7z"/>
	<path class="st2" d="M109.2,102l-0.9,1.1h-1.4v-0.9c0-0.6,0.4-0.9,1-1l0,0v-1.3l0,0h-8.7v1.3c0.8,0,1.7,0.1,1.7,1.1v3.8
		c0,0.9-0.9,1.3-1.7,1.3v1.1h8.6l0.1,0v-1.2l0-0.1c-0.5-0.2-1-0.5-1-1.1v-0.8h2c0.6,0.8,1,1.4,0.9,1.7c0,0.2-0.2,0.3-0.2,0.3l0,1.1
		h8.2v-1.1c-0.6,0-1-0.2-2-1c-1.6-1.4-3-3.4-3-3.4c1.3-1.3,2.9-1.7,3.7-1.7h0.9v-1.3h-7.9l-0.1,0v1.3
		C109.4,101.1,109.9,101.1,109.2,102z"/>
	<path class="st2" d="M104.4,120.4v-7.9c1.7,0,2.5,0.5,2.5,3.7C106.9,119.2,106.6,120.4,104.4,120.4z M98.1,122.3h4.8
		c3.5,0,5.5-0.4,7.3-2.4c1.7-2,1.9-5.2-0.2-7.3c-2-1.9-3.8-2.4-7.7-2.4h-4.2l0,0.1v2.2c1.2,0,1.6,0.5,1.6,1.5v4.7
		c0,1.2-0.5,1.8-1.6,1.8v1.7L98.1,122.3z"/>
	<path class="st2" d="M127.6,122.3v-4.7h2.3c0,0,0.5,1.3,1.5,2.1c1,0.9,2.4,0.8,2.7,0.3c0.5-0.6,0.2-1.5-1.3-2.2
		c-1.5-0.7-3.7-1.7-4.6-2.8c-0.9-1.2-0.8-2.6,0.1-3.6c0.8-0.9,2-1.4,4.6-1.3c1.6,0.1,2.6,0.5,3.1,0.8l0.1,0v-0.7l0-0.1h2.2l0,0.1
		v4.1H136c0,0-0.1-0.7-0.8-1.3c-0.7-0.7-2.2-0.9-2.5-0.3c-0.3,0.6,0.2,1.1,1.3,1.7c2.9,1.5,4.8,2.1,5.1,3.9c0.3,2.3-1.6,3.5-3.5,3.7
		c-1.9,0.2-4.1,0.2-5.5-0.6l0,0.1v0.7l-0.1,0L127.6,122.3L127.6,122.3z"/>
</g>
</svg>
