<?xml version="1.0" encoding="utf-8"?>
<!-- Generator: Adobe Illustrator 21.1.0, SVG Export Plug-In . SVG Version: 6.00 Build 0)  -->
<svg version="1.1" id="Layer_1" xmlns="http://www.w3.org/2000/svg" xmlns:xlink="http://www.w3.org/1999/xlink" x="0px" y="0px"
	 viewBox="0 0 200 200" style="enable-background:new 0 0 200 200;" xml:space="preserve">
<style type="text/css">
	.st0{fill:#FEFEFE;}
	.st1{fill:#9ED6B3;}
	.st2{fill:#FBE000;}
	.st3{fill:#6AC089;}
	.st4{fill:#A8C610;}
	.st5{fill:#5DAF20;}
	.st6{fill:#1EA04D;}
	.st7{fill:#009435;}
</style>
<g id="g2399" transform="translate(-1.04113,1.36797)">
	<path id="path2415" class="st0" d="M18,98.6V-0.6h83h83v99.2v99.2h-83H18V98.6z"/>
	<path id="path2413" class="st1" d="M100.3,197.3c-0.2-0.2-1.8-1.4-3.6-2.7c-5.4-4-11.4-8.9-16.4-13.3c-6.8-6.1-14.4-13.8-20.1-20.4
		c-23.2-27-36.8-59.1-41.1-96.5c-0.5-4.6-0.9-9.9-0.9-11.3l0-1.3l1.4-0.8c0.8-0.4,3.4-1.8,6-3.1C56.9,32.4,94,27.1,130.2,33.1
		c18,3,35.7,9,51,17.4l2.5,1.4l0,1.8c0,3.8-1,13.1-2.2,20.7c-4.1,25.1-12.6,47.6-25.8,68c-11.2,17.4-27.2,34.4-46.5,49.4
		c-4.4,3.4-7.9,5.9-8.2,5.9C100.9,197.6,100.6,197.4,100.3,197.3z M180.5,45.9l-2.9-1.4l-0.5-2.3c-0.3-1.4-0.6-2.4-0.8-2.5
		c-0.3-0.3-5.1-2.5-5.2-2.4c-0.1,0-0.2,0.4-0.3,0.9c-0.6,2.3-0.8,2.7-1,2.7c-0.1,0-1.4-0.6-3-1.3c-1.9-0.9-2.8-1.4-2.8-1.5
		c0-0.3,7-19,7.2-19.2c0.1-0.2,0.7,0.1,3,1.2c1.5,0.8,2.9,1.5,2.9,1.6c0.2,0.2,6.6,24.9,6.6,25.2c0,0.1,0,0.2-0.1,0.3
		C183.5,47.2,182.1,46.6,180.5,45.9z M175.2,34.4c0-0.2-0.4-2-0.7-4c-0.7-3.7-0.7-4.1-0.8-4c-0.1,0.1-1.5,6.2-1.5,6.6
		c0,0.2,0.3,0.4,1.4,0.9C175.1,34.8,175.3,34.8,175.2,34.4z M18.5,46.8c0-0.9,2.6-23.3,2.7-23.4c0.2-0.2,6.1-3,6.3-3
		c0.1,0,0.2,0.1,0.2,0.2c0.1,0.4,2.6,9.2,2.7,9.8c0.1,0.5,0.2,0.6,0.3,0.4c0.1-0.2,0.8-3.2,1.7-6.8c0.9-3.6,1.7-6.6,1.8-6.7
		c0.3-0.3,5.9-2.7,6.1-2.6c0.1,0,0.2,0.2,0.2,0.3c0,0.1,0.6,4.8,1.4,10.5c1.1,7.9,1.3,10.3,1.2,10.5c-0.3,0.3-5.5,2.6-5.6,2.5
		c-0.1-0.1-0.3-2.6-0.4-5.7c-0.3-5.4-0.3-6.1-0.5-5.9c0,0-0.9,3.1-1.9,6.9c-1,3.8-1.9,6.9-2,7c-0.2,0.2-3.8,1.9-4,1.9
		c-0.2,0-0.3-0.2-1.8-5.5c-0.8-2.7-1.5-4.9-1.5-5c-0.2-0.3-0.2,0.1-0.7,6.5c-0.3,3.3-0.5,6.1-0.6,6.1c-0.2,0.2-5.2,2.5-5.5,2.5
		C18.5,47,18.5,46.9,18.5,46.8z M159,36.7l-2.5-0.7l-2.9-6.5c-1.6-3.6-2.9-6.5-3-6.5c-0.1,0-0.1,2.5-0.1,5.6c0,3.6,0,5.6-0.1,5.7
		c-0.1,0.1-4.3-1-5-1.3l-0.3-0.1V21.6c0-10,0-11.2,0.2-11.2c0.3-0.1,5.1,1.2,5.3,1.5c0.1,0.1,1.4,3.1,3,6.6c1.5,3.5,2.8,6.4,2.9,6.4
		c0.1,0,0.1-2.6,0.1-5.7v-5.7l0.3,0c0.2,0,1.4,0.3,2.7,0.7l2.4,0.7v11.3c0,9.9,0,11.3-0.2,11.3C161.7,37.5,160.4,37.1,159,36.7z
		 M44.7,34.3c-0.5-0.1-0.4-0.4,0.4-2.8l0.7-2.1l2.2,0c3.1,0.1,4.8-0.3,6.3-1.2c1.4-0.9,1.9-2.3,1.2-3c-0.3-0.3-0.5-0.3-3-0.4
		c-4.7-0.2-5.1-0.3-6.1-1.4c-1.2-1.3-1.5-3.3-0.8-5.7c0.6-1.9,1.2-2.8,2.6-4.3c1.1-1.1,1.6-1.5,2.6-2c0.7-0.4,1.3-0.7,1.3-0.8
		c0-0.1-0.8-0.5-1.8-0.9c-1.2-0.6-1.8-0.9-1.8-1c0-0.3,0.8-2.3,1.1-2.5c0.2-0.2,0.4-0.1,1.8,0.7c0.9,0.5,1.7,0.9,1.8,0.9
		c0.1,0,0.9-0.7,1.7-1.6l1.6-1.6L57,4.8c0.6,0.4,1.5,1.2,1.5,1.4c0,0.1-0.7,0.9-1.6,1.9C56,9,55.3,9.8,55.3,9.8s1,0,2.2,0
		c2.8-0.1,4.4,0.1,4.5,0.4c0,0.2-2,3.6-2.5,4.1c-0.3,0.3-0.4,0.3-0.8,0.2c-0.3-0.1-1-0.2-1.7-0.2c-2.8-0.2-5.1,1-5.4,2.8
		c-0.1,0.4,0,0.6,0.2,0.9c0.6,0.6,1.6,0.8,4.4,0.8c3.1,0.1,4.1,0.3,5.1,1.2c1.6,1.5,1.8,4.6,0.3,7.6c-0.5,1-0.8,1.4-1.9,2.5
		c-1.2,1.1-1.6,1.4-2.9,2.1c-1.6,0.8-3.4,1.5-5.3,1.9C50.5,34.3,45.4,34.5,44.7,34.3z M138.9,31.2c-1.4-0.4-2.6-0.7-2.7-0.8
		c-0.2-0.1-0.2-1-0.2-11.3c0-6.2,0.1-11.2,0.1-11.3c0.1-0.1,5.3,1.3,5.5,1.4c0.2,0.2,0.1,22.5-0.1,22.5
		C141.4,31.8,140.3,31.6,138.9,31.2z M64.8,30c0,0-0.1-5.1-0.1-11.3c0-10.5,0-11.2,0.2-11.3c0.3-0.2,4.7-0.6,5-0.5
		c0.2,0.1,0.2,0.7,0.2,4.9c0,2.7,0,4.8,0.1,4.8s1.2-2.3,2.5-5.1c1.3-2.8,2.4-5.1,2.5-5.2c0.1-0.1,1.4-0.3,3-0.5s3-0.4,3.3-0.4
		c0.4-0.1,0.5,0,0.5,0.2c0,0.1-1.3,2.7-2.9,5.6l-2.9,5.4L80,22c2.5,3.8,3.6,5.6,3.5,5.7c-0.1,0.1-1.7,0.3-3.5,0.5l-3.3,0.4l-0.3-0.3
		c-0.2-0.2-1.5-2.3-3-4.7s-2.8-4.5-2.9-4.6c-0.2-0.2-0.2,0.6-0.2,5c0,4,0,5.2-0.2,5.3c-0.1,0.1-1.2,0.2-2.4,0.4
		c-1.2,0.1-2.4,0.3-2.5,0.3C65,30,64.8,30,64.8,30z M126.8,28.8l-6.3-0.9l0-11.2c0-10.1,0-11.3,0.2-11.3c0.2-0.1,5.2,0.6,5.4,0.7
		c0.1,0,0.1,4.1,0.1,9v9l0.3,0.1c0.2,0.1,1.8,0.3,3.6,0.6s3.4,0.5,3.5,0.6c0.1,0.1,0.2,0.7,0.1,2.3c0,2-0.1,2.1-0.3,2.1
		C133.2,29.7,130.3,29.3,126.8,28.8z M113.8,27.4l-2.4-0.1V16.1V4.8h2.8h2.8v11.3v11.3l-0.4,0C116.4,27.5,115.1,27.5,113.8,27.4z
		 M92.7,26.8c-0.1-0.1-0.2-0.8-0.2-2.1c0-1.7,0-2,0.3-2.4c0.2-0.3,2.2-3.3,4.6-6.7s4.4-6.3,4.4-6.4c0.1-0.2-0.7-0.2-4.2-0.2l-4.3,0
		V6.7V4.6l3.1-0.1l3.1-0.1l-1.7-1.2C96.8,2.6,96,2,96,1.9c-0.1-0.2,1.3-2.1,1.6-2.2c0.2,0,0.8,0.3,1.9,1.2c1.4,1.1,1.6,1.2,1.9,1
		c0.1-0.1,0.8-0.6,1.4-1.2c0.7-0.6,1.3-1,1.4-1c0.3,0,1.6,1.5,1.7,1.9c0,0.1-0.7,0.8-1.6,1.5s-1.6,1.4-1.6,1.4
		c0,0.1,3.1,0.3,4.8,0.3c0.5,0,1,0.1,1,0.1c0,0.1,0,1,0,2.1l-0.1,2l-4.2,6.3c-2.3,3.5-4.2,6.4-4.2,6.5c-0.1,0.1,0.9,0.2,4.1,0.2
		l4.2,0v2.5v2.5l-7.7,0C94.7,27,92.9,26.9,92.7,26.8z"/>
	<path id="path2411" class="st2" d="M98.4,195.7c-16.4-12.1-30.5-25.4-41.6-39.2c-21.1-26.4-33.5-57-37.5-92.7
		c-0.3-3.1-0.8-8.8-0.9-10.5l0-1.3l1.7-1c0.9-0.5,3.6-1.9,6-3.1c29.2-14.6,64.3-20.1,98.6-15.6c18,2.4,35.4,7.6,51,15.3
		c3.2,1.6,7.6,4,7.9,4.3c0.2,0.2,0.2,0.6,0,3.5c-2.2,30.5-10.5,57.9-24.8,81.7c-12,19.9-28.4,37.9-49.6,54.4
		c-4.1,3.2-7.8,5.9-8.1,5.9C101,197.5,99.8,196.7,98.4,195.7z M180.5,45.8c-1.4-0.7-2.7-1.3-2.8-1.4c-0.1-0.1-0.4-1.2-0.7-2.4
		c-0.3-1.2-0.6-2.3-0.7-2.4c-0.3-0.3-5.3-2.6-5.5-2.5c-0.1,0-0.4,0.8-0.6,1.8c-0.3,0.9-0.5,1.7-0.6,1.8c-0.2,0.1-5.6-2.4-5.7-2.6
		c-0.1-0.2,6.9-19,7.1-19.1c0.1-0.1,1.4,0.5,3,1.3l2.8,1.4l3.3,12.5c1.8,6.9,3.3,12.5,3.3,12.6c0,0.1-0.1,0.2-0.2,0.2
		C183.2,47,182,46.5,180.5,45.8z M175.3,34.4c0-0.2-0.4-2.2-0.8-4.4c-0.4-2.2-0.8-4.1-0.8-4.1c0,0-0.1,0-0.1,0
		c-0.2,0.2-1.7,7.3-1.6,7.4c0.2,0.2,2.9,1.5,3.1,1.5C175.3,34.8,175.4,34.8,175.3,34.4z M18.6,46.6c0-0.6,2.6-23,2.6-23.1
		c0.1-0.3,6.2-3,6.3-2.9c0.1,0.1,0.7,2.3,1.5,5s1.4,5,1.5,5.1c0.1,0.2,0.2,0.3,0.2,0.4c0.1,0,0.9-3.1,1.9-6.9l1.8-6.9l2.9-1.3
		c1.6-0.7,3-1.3,3-1.2c0.1,0.1,2.7,18.8,2.8,20.4l0,0.5l-2.6,1.2C39.2,37.5,38,38,37.9,38c-0.2,0-0.3-0.6-0.6-6.4
		c-0.2-5.1-0.3-5.7-0.5-5.5c-0.1,0.1-1,3.3-2,7.2s-1.9,7.1-2,7.1s-1,0.5-2,1c-1.3,0.6-1.9,0.8-2,0.7c-0.1-0.1-0.9-2.6-1.7-5.5
		s-1.6-5.4-1.7-5.4c0,0-0.1,0-0.1,0c0,0-0.3,3-0.6,6.5c-0.4,4.8-0.6,6.5-0.7,6.7c-0.2,0.2-5,2.5-5.2,2.5
		C18.7,46.9,18.6,46.8,18.6,46.6z M159.2,36.6c-1.3-0.4-2.4-0.8-2.5-0.9s-1.4-3-2.9-6.4c-3.3-7.5-3.1-7-3.2-7
		c-0.1,0-0.1,2.6-0.1,5.8s-0.1,5.8-0.1,5.9c-0.1,0.1-4.6-1.2-4.9-1.4c-0.3-0.2-0.3-22.1,0-22.2c0.2-0.1,4.8,1.2,5,1.3
		c0.1,0.1,1.2,2.6,2.5,5.6s2.6,6,2.9,6.7c0.3,0.7,0.6,1.3,0.7,1.3c0.1,0,0.1-2.5,0.1-5.9c0-5.5,0-5.9,0.2-5.9c0.4,0,4.7,1.2,4.8,1.4
		c0.2,0.2,0.1,22.2-0.1,22.2C161.6,37.3,160.5,37,159.2,36.6z M44.8,34.2c-0.4-0.1-0.3-0.3,0.5-2.6l0.7-2l2,0.1
		c3.1,0.1,5-0.3,6.5-1.3c1.3-0.9,1.9-2.4,1.2-3.1c-0.4-0.4-0.7-0.4-4.6-0.6c-1.9-0.1-2.9-0.2-3.4-0.4c-1.5-0.5-2.5-2.4-2.3-4.5
		c0.3-3.6,2.5-6.6,6.1-8.4c0.6-0.3,1-0.6,0.9-0.7c-0.1-0.1-0.9-0.5-1.8-1c-1-0.4-1.7-0.9-1.7-1c0-0.3,0.9-2.3,1-2.4
		c0.1-0.1,0.9,0.3,1.7,0.7c0.9,0.5,1.7,0.8,1.8,0.8c0.1,0,0.9-0.7,1.7-1.6s1.6-1.6,1.6-1.6c0.2,0,1.7,1.3,1.7,1.4
		c0,0.1-0.8,1-1.7,1.9c-1.6,1.7-2,2.2-1.4,2c0.8-0.3,6.6-0.2,6.6,0.1c0,0.1-0.6,1.1-1.3,2.2c-1,1.6-1.4,2-1.6,2
		c-0.1,0-0.8-0.1-1.4-0.2c-1.3-0.2-3,0-4,0.4c-1.7,0.8-2.7,2.6-1.9,3.5c0.6,0.6,1.7,0.8,4.5,0.8c2.9,0.1,4,0.3,4.9,1
		c1.6,1.4,1.8,4.6,0.4,7.5c-1.5,3.1-5,5.3-10,6.4C50.5,34.1,45.3,34.3,44.8,34.2z M138.6,31c-1.2-0.3-2.3-0.6-2.3-0.7
		c-0.1-0.1-0.2-2.9-0.2-11.2V8.1h0.3c0.4,0,4.8,1.1,5,1.3c0.1,0.1,0.2,2.5,0.2,11.2v11l-0.4,0C141,31.6,139.8,31.3,138.6,31z
		 M64.8,18.7c0-8.7,0-11.1,0.2-11.2c0.2-0.2,4.5-0.7,4.8-0.5C70,7.1,70,7.8,70,12.1c0,3.5,0,5,0.2,4.9c0.1,0,1.3-2.4,2.6-5.3
		s2.5-5.3,2.5-5.3c0,0,1.3-0.2,2.9-0.4c1.5-0.2,3-0.4,3.3-0.4c0.3-0.1,0.5,0,0.5,0.1c0,0.1-1.3,2.6-2.9,5.5s-2.9,5.4-2.9,5.4
		c0,0,1.6,2.5,3.5,5.4c1.9,2.9,3.6,5.4,3.6,5.5c0.1,0.3,0.1,0.3-3.7,0.7c-1.8,0.2-2.9,0.3-3,0.2c-0.1-0.1-1.5-2.3-3.1-4.9
		s-3-4.8-3.1-4.8c-0.1,0-0.2,1.3-0.2,5.3l0,5.4l-2,0.2c-1.1,0.1-2.3,0.2-2.6,0.2l-0.7,0V18.7z M127,28.7c-3.4-0.5-6.2-0.9-6.3-1
		c-0.1-0.1-0.2-2.4-0.2-11.1c0-9.5,0-11.1,0.2-11.2c0.2-0.1,4.9,0.6,5.1,0.7c0.1,0.1,0.1,3.4,0.1,9c0,6.3,0,9,0.2,9
		c0.1,0.1,1.8,0.3,3.7,0.6l3.6,0.5v2.1c0,1.8,0,2.1-0.2,2.1C133.2,29.6,130.4,29.2,127,28.7z M113.9,27.3l-2.3-0.1V16.1V4.9h2.7h2.7
		v11.2v11.2l-0.4,0C116.3,27.3,115.1,27.3,113.9,27.3z M92.8,26.7c-0.1-0.1-0.1-1-0.1-2.1v-2l4.7-6.7c2.6-3.7,4.7-6.8,4.7-6.9
		c0-0.2-0.6-0.2-4.3-0.2l-4.3,0v-2v-2l3,0c1.7,0,3.1-0.1,3.1-0.2c0.1-0.1-0.6-0.6-1.5-1.3c-2.3-1.6-2.2-1.4-1.4-2.5
		c0.4-0.5,0.7-1,0.8-1s0.9,0.5,1.7,1.1s1.7,1.2,1.8,1.3c0.1,0,0.9-0.5,1.7-1.2l1.5-1.3l0.8,0.9c0.4,0.5,0.8,1,0.8,1
		c0,0.1-0.8,0.7-1.7,1.5s-1.7,1.4-1.7,1.5c0,0.1,0.9,0.2,3,0.3l3,0.1l-0.1,2l-0.1,2l-4.3,6.4c-2.3,3.5-4.3,6.5-4.3,6.6
		c0,0.1,1.2,0.2,4.2,0.2l4.2,0.1v2.3v2.3l-7.6,0C96.3,26.8,92.9,26.8,92.8,26.7z"/>
	<path id="path2409" class="st3" d="M98.4,195.7c-16.4-12.1-30.5-25.4-41.6-39.2c-21.1-26.4-33.5-57-37.5-92.7
		c-0.3-3.1-0.8-8.8-0.9-10.5l0-1.3l1.7-1c0.9-0.5,3.6-1.9,6-3.1c29.2-14.6,64.3-20.1,98.6-15.6c18,2.4,35.4,7.6,51,15.3
		c3.2,1.6,7.6,4,7.9,4.3c0.2,0.2,0.2,0.6,0,3.5c-2.2,30.5-10.5,57.9-24.8,81.7c-12,19.9-28.4,37.9-49.6,54.4
		c-4.1,3.2-7.8,5.9-8.1,5.9C101,197.5,99.8,196.7,98.4,195.7z M116,180c12.3-10.9,22.2-22.2,30.4-34.5c10-15,16.9-30.8,21.6-49
		c2.9-11.5,4.9-24,5.6-35.8c0.1-2.3,0.1-2.7,0-2.8c-0.1-0.1-1.7-1-3.6-1.9c-28.1-14.1-62.3-19-95.2-13.6c-15.1,2.5-29,6.9-42,13.4
		l-4.2,2.1l0,1.4c0.1,5.3,1.5,16.6,2.8,24.1c6.2,34.2,20,61.4,43.7,86c4.1,4.3,10.2,10,13.9,13l0.3,0.3l-0.3-0.4
		c-0.2-0.2-1.1-1.2-2.1-2.2c-12.3-12.8-22.1-26.3-29.8-41.4c-8.8-17.2-15-38.6-17.9-61.4c-0.5-3.6-1-8.8-1-9.7v-0.8H101
		c52.6,0,62.8,0,62.9,0.2c0.1,0.2-0.4,4.9-0.9,9.5c-2.3,18.9-7,37.2-13.6,52.6c-7.5,17.6-19,35-33.2,49.8c-3.7,3.8-3.6,3.8-3,3.3
		C113.6,182.1,114.8,181,116,180z M47.3,65.1c-0.7-0.2-1.3-0.7-1.6-1.3c-0.2-0.5-0.3-1-0.3-4.7c0-3,0-4.2,0.2-4.3
		c0.2-0.2,1.3-0.2,1.5,0c0.1,0.1,0.2,1.6,0.2,4.2l0,4l0.3,0.3c0.5,0.4,1.5,0.4,1.9-0.1l0.3-0.3v-4c0-3.8,0-4,0.3-4.1
		c0.3-0.2,1-0.2,1.3-0.1c0.2,0.1,0.2,0.6,0.2,4.3c0,2.7-0.1,4.4-0.1,4.6c-0.2,0.5-0.6,1-1.2,1.3C50,65.2,48,65.3,47.3,65.1z M81,65
		c-1.6-0.6-2.3-2.7-2.1-5.9c0.1-2.4,0.8-3.8,2-4.4c0.7-0.3,2.2-0.2,2.9,0.1c1.3,0.6,1.7,1.7,1.8,4.4c0.1,3-0.4,4.8-1.6,5.5
		C83.3,65.2,81.9,65.3,81,65z M83.1,63.2c0.5-0.5,0.6-1.4,0.6-3.8c0-1.9-0.1-2.2-0.3-2.6c-0.4-0.6-1.1-0.9-1.7-0.5
		c-0.7,0.5-0.8,1-0.8,3.4c0,2.3,0.1,3,0.7,3.5C82,63.7,82.8,63.6,83.1,63.2z M118.9,65.1c-0.7-0.2-1.2-0.6-1.5-1.2
		c-0.3-0.6-0.3-0.7-0.4-4.8c0-4.7-0.1-4.6,1-4.6c1,0,1,0,1,4.4c0,3.8,0,4,0.3,4.3c0.2,0.2,0.5,0.3,1,0.3c0.5,0,0.8-0.1,1-0.3
		c0.3-0.3,0.3-0.5,0.3-4.3c0-4.5,0-4.4,1-4.4c1,0,1-0.1,1,4.6c0,4-0.1,4.2-0.4,4.7c-0.4,0.8-1.2,1.2-2.6,1.2
		C119.8,65.2,119.1,65.2,118.9,65.1z M151.2,65.1c-0.6-0.2-1.2-0.8-1.5-1.5c-0.2-0.5-0.3-1-0.3-2.9c-0.1-4.7,0.5-6,3-6
		c1.5,0,2.3,0.7,2.8,2c0.2,0.7,0.2,5.7,0,6.4C154.6,64.8,153,65.6,151.2,65.1z M152.9,63.3c0.5-0.8,0.5-6.1,0-6.9
		c-0.4-0.6-1.1-0.5-1.4,0.3c-0.2,0.6-0.4,4.3-0.2,5.5c0.1,0.5,0.3,1.1,0.4,1.2C152.1,63.8,152.6,63.8,152.9,63.3z M158.6,65.1
		c-1.3-0.5-1.7-1.3-1.7-3c0-1.3,0.3-2.2,0.8-2.5l0.3-0.2l-0.4-0.4c-0.5-0.4-0.6-0.9-0.6-2c0-1.7,0.9-2.5,2.7-2.5
		c1.8,0,2.6,0.6,2.8,2c0.1,1-0.1,1.9-0.5,2.4c-0.4,0.5-0.4,0.5-0.2,0.7c0.6,0.5,0.8,0.9,0.8,2.4c0,1.7-0.2,2.2-1.2,2.7
		C160.8,65.2,159.3,65.3,158.6,65.1z M160.4,63.4c0.6-0.6,0.4-2.8-0.3-3.1c-0.5-0.2-1,0.1-1.2,0.5c-0.2,0.6-0.1,2.2,0.2,2.5
		C159.5,63.8,160.1,63.8,160.4,63.4z M160.5,58.4c0.3-0.3,0.2-1.7,0-2.1c-0.3-0.4-0.8-0.4-1.2-0.1c-0.2,0.2-0.3,0.4-0.3,1.2
		c0,0.8,0,1,0.3,1.2C159.6,58.8,160.2,58.7,160.5,58.4z M39.6,65c-0.1-0.1-0.1-2.4-0.1-5.2c0-4.5,0-5.1,0.2-5.2
		c0.1,0,1.1-0.1,2.2-0.1s2.1,0,2.2,0.1c0.3,0.1,0.3,1.4,0,1.5c-0.1,0-0.8,0.1-1.5,0.1h-1.3l0,1.3l0,1.3l1.3,0c1.4,0,1.6,0.2,1.6,0.7
		c0,0.8-0.2,0.9-1.6,0.9h-1.3l0,2.3l0,2.3l-0.8,0C40,65.1,39.6,65,39.6,65z M54.8,65c-0.1-0.1-0.1-2-0.1-4.4v-4.3l-1,0l-1,0l0-0.6
		c-0.1-1-0.1-1,2.9-1c1.6,0,2.8,0.1,2.9,0.1c0.3,0.2,0.4,1.1,0.1,1.4c-0.1,0.1-0.6,0.2-1.1,0.2h-0.9v4.2c0,3.1,0,4.3-0.2,4.4
		C56.4,65.1,55,65.1,54.8,65z M59.3,64.9c-0.1-0.1-0.2-1.4-0.2-5c0-4.4,0-4.9,0.2-5.1c0.2-0.2,0.4-0.2,1.8-0.1
		c1.8,0.1,2.5,0.3,3.1,1c0.8,1,0.8,2.7,0,3.6l-0.5,0.5l0.5,0.4c0.6,0.5,0.8,1.3,0.7,2.4c-0.1,1.3-0.7,2.1-1.8,2.4
		C62.2,65.1,59.5,65.2,59.3,64.9z M62.7,63.1c0.3-0.3,0.3-0.5,0.3-1.1c0-0.6-0.1-0.8-0.4-1.1c-0.3-0.3-0.5-0.4-1-0.4H61v1.5v1.5h0.6
		C62.2,63.4,62.4,63.3,62.7,63.1z M62.5,58.6c0.3-0.3,0.3-0.5,0.3-1.1c0-0.9-0.3-1.3-1.2-1.3H61v1.3v1.3h0.6
		C62,58.9,62.3,58.8,62.5,58.6z M65.3,64.9c0-0.1,0.5-2.3,1.2-5s1.3-4.8,1.3-4.8c0,0,0.1-0.2,0.2-0.3c0.3-0.3,1.2-0.3,1.5,0
		c0.3,0.2,2.8,9.8,2.7,10.1c-0.1,0.2-0.3,0.2-0.9,0.2l-0.8,0l-0.3-0.9l-0.3-0.9h-1.2h-1.2L67.4,64c-0.1,0.4-0.3,0.8-0.3,0.9
		C66.9,65.2,65.4,65.1,65.3,64.9z M69.6,61.4c0-0.1-0.2-0.8-0.4-1.5c-0.2-0.8-0.4-1.3-0.4-1.3c-0.1,0.1-0.7,2.6-0.7,2.9
		c0,0.1,0.4,0.1,0.8,0.1C69.4,61.6,69.6,61.5,69.6,61.4z M73.8,65c-0.1-0.1-0.1-2.4-0.1-5.1c0-4.8,0-5,0.3-5.2
		c0.3-0.2,1.1-0.2,1.4,0c0.2,0.1,0.2,0.8,0.3,4.4l0.1,4.3l1.5,0.1l1.5,0.1v0.7V65l-2.5,0C75,65.1,73.8,65,73.8,65z M88.4,64.8
		c-0.2-0.5-2.4-9.3-2.4-9.7c0-0.2,0.1-0.4,0.2-0.4c0.4-0.2,1.2-0.1,1.4,0.2c0.2,0.2,0.5,1.2,0.9,3c0.3,1.5,0.7,2.7,0.7,2.7
		c0.1-0.1,0.4-1.4,0.8-2.9c0.7-3,0.8-3,1.6-3c0.7,0,0.9,0.1,0.8,0.5c0,0.2-0.6,2.5-1.2,5.1L90,65l-0.7,0
		C88.6,65.1,88.5,65.1,88.4,64.8z M95.5,65c-0.1-0.1-0.1-1.1-0.1-2.2l0-2.1l-1.1-2.9c-0.8-2.1-1.1-2.9-1-3c0.2-0.2,1.3-0.2,1.6-0.1
		c0.1,0.1,0.5,0.8,0.8,1.8c0.3,0.9,0.6,1.6,0.6,1.6c0,0,0.3-0.7,0.6-1.5c0.3-0.8,0.7-1.6,0.8-1.8c0.4-0.4,1.8-0.3,1.8,0.1
		c0,0.1-0.5,1.4-1.1,2.9l-1.1,2.7l-0.1,2.2L97.3,65l-0.8,0C95.9,65.1,95.5,65,95.5,65z M104,65c-0.1-0.1-0.1-2.4-0.1-5.2
		c0-5.6-0.1-5.2,1-5.2c0.3,0,0.6,0.1,0.7,0.2c0.1,0.1,0.2,0.8,0.2,2c0,1,0,1.9,0.1,1.9c0.1,0,0.5-0.8,1.1-1.8c0.5-1,1.1-1.9,1.2-2
		c0.3-0.3,1.3-0.3,1.6-0.1c0.3,0.2,0.2,0.3-1.3,2.8c-0.6,1.1-1.1,2-1.1,2.1c0,0.1,0.6,1.3,1.3,2.6c0.7,1.3,1.2,2.5,1.2,2.6
		c0,0.1-0.3,0.2-0.9,0.2h-0.8l-1.2-2.2l-1.2-2.2l-0.1,2.2l-0.1,2.2l-0.8,0C104.5,65.1,104.1,65,104,65z M111,65
		c-0.1-0.1-0.1-2.4-0.1-5.1c0-4.8,0-5,0.3-5.2c0.3-0.2,1.1-0.2,1.4,0c0.2,0.1,0.2,0.8,0.3,4.4l0.1,4.3l1.5,0.1l1.5,0.1v0.7V65
		l-2.5,0C112.2,65.1,111.1,65,111,65z M125,64.9c-0.1-0.1-0.2-1.3-0.2-5c0-4.2,0-4.9,0.2-5.1c0.4-0.4,3.6-0.2,4.4,0.3
		c1.2,0.7,1.5,3.1,0.5,4.2l-0.4,0.4l0.4,0.4c0.5,0.5,0.7,1,0.7,1.9c0,1.3-0.5,2.3-1.5,2.8C128.6,65.1,125.2,65.2,125,64.9z
		 M128.4,63.1c0.3-0.3,0.4-0.4,0.4-0.9c0-0.3,0-0.8-0.1-0.9c-0.1-0.4-0.8-0.7-1.4-0.7h-0.5v1.5v1.5h0.6
		C127.8,63.4,128.1,63.3,128.4,63.1z M128.2,58.6c0.4-0.3,0.6-0.9,0.4-1.6c-0.2-0.6-0.5-0.8-1.2-0.8h-0.6v1.3v1.3h0.5
		C127.6,58.9,128,58.8,128.2,58.6z M137.9,65c-0.1-0.1-0.1-2-0.1-4.4v-4.3h-0.5c-0.8,0-1-0.2-1-0.8c0-0.7,0.2-0.8,1.8-0.8
		c1,0,1.3,0.1,1.5,0.2c0.2,0.2,0.2,0.8,0.2,5.1c0,3.6,0,4.9-0.2,5C139.4,65.1,138.1,65.1,137.9,65z M143.1,64.8c0-0.1,0.5-1,1.1-1.8
		s1-1.6,1-1.7c0-0.1-0.4-0.1-0.8-0.1c-1,0-1.7-0.4-2.1-1.2c-0.4-0.9-0.4-3.3,0-4.1c0.4-0.7,0.9-1.1,1.8-1.3c1.6-0.4,3.1,0.4,3.5,1.9
		c0.3,1.1,0.2,2.8-0.2,4.1c-0.4,1.1-1.5,3.2-2.1,4.1c-0.3,0.4-0.4,0.5-1.2,0.5C143.3,65.1,143.1,65,143.1,64.8z M145.6,59.4
		c0.3-0.3,0.3-0.5,0.3-1.5c0-0.9-0.1-1.2-0.3-1.5c-0.4-0.5-1.1-0.5-1.5-0.1c-0.5,0.7-0.4,2.5,0.1,3.1
		C144.6,59.9,145.2,59.8,145.6,59.4z M96.1,54.1c-0.5-0.2-0.4-0.5,0.5-1.5l0.8-0.9l0.4,0.3c0.6,0.4,0.9,0.8,0.8,1
		c-0.2,0.2-1.8,1.3-2,1.3C96.5,54.3,96.3,54.2,96.1,54.1z M104.2,181.3c0.3-0.7,0.3-1.6,0-2.9c-0.5-2.2-0.4-3,0.6-4.5
		c0.9-1.4,1.1-2.1,1.2-3.9c0.1-1.3,0.2-1.7,0.5-2.3c0.7-1.3,2.2-1.7,3.9-0.9c2.1,0.9,2.3,2.5,0.7,5.4c-0.3,0.6-0.7,1.5-0.9,2
		c-0.3,0.9-0.5,2.9-0.4,2.9c0,0,0.4-0.5,0.7-1.2c0.9-1.5,1.6-2.4,2.8-3.6c1.4-1.3,1.9-1.9,2.2-3c0.5-1.7,0.1-3.4-1.3-4.6
		c-0.4-0.4-1.5-1.1-2.7-1.6c-3.1-1.6-4.3-2.9-5-5.7c-0.3-1.1-0.3-1.2-0.3-18.1c0-9.4,0.1-17.1,0.1-17.1c0.1-0.1,4.5-0.1,10-0.1
		c9.4,0.1,9.9,0.1,11.4,0.4c2.1,0.4,3.6,0.8,5.4,1.4c0.8,0.3,1.5,0.5,1.6,0.4c0,0,0-0.2-0.1-0.4c-0.8-2.1-0.8-10.4,0-12.5
		c0.1-0.2,0.1-0.4,0.1-0.4c0,0-0.7,0.2-1.6,0.4c-1.9,0.6-3.9,1.1-5.9,1.4c-1.4,0.2-2.5,0.3-11.3,0.3h-9.7v-11.1V90.5l2.5,0
		c2.7,0,4.2,0.2,6.3,0.8c0.7,0.2,1.2,0.3,1.3,0.3c0,0,0-0.6-0.1-1.4c-0.2-1.8-0.2-6.3,0-8.3c0.1-0.9,0.1-1.7,0.1-1.7
		c0,0-0.6,0.1-1.3,0.3c-0.7,0.2-1.9,0.5-2.7,0.6c-1.7,0.3-5.3,0.4-5.8,0.3l-0.4-0.1l0-4.4l0-4.4l-0.8,0.1c-1,0.1-7.1,0.1-8.3,0
		l-0.8-0.1l0,4.3c0,4.3,0,4.3-0.3,4.5c-0.4,0.2-4.6,0.1-6.2-0.2c-1-0.2-2.8-0.7-3.7-1c-0.2-0.1-0.2,0-0.1,0.5
		c0.3,1.7,0.4,5.6,0.2,8.1c-0.1,1.5-0.1,2.7-0.1,2.8c0,0,0.5-0.1,1.1-0.3c1.9-0.6,3.3-0.8,6.3-0.8l2.7,0l0,11c0,8.3,0,11-0.1,11.2
		c-0.1,0.2-1.6,0.2-10.1,0.1c-9.4-0.1-10-0.1-11.5-0.4c-1.9-0.4-4.4-1-5.7-1.5c-0.6-0.2-1-0.3-1.1-0.3c0,0,0,0.5,0.2,1.1
		c0.7,3.1,0.7,8,0,11.2c-0.1,0.6-0.2,1.1-0.2,1.1c0,0,0.5-0.1,1.1-0.3c1.4-0.5,3.8-1.1,5.7-1.5c1.5-0.3,2.1-0.3,11.5-0.4
		c7.5,0,9.9,0,10.1,0.1c0.2,0.1,0.2,2.5,0.2,16.7c0,18.2,0,17.7-0.9,19.6c-0.2,0.5-0.8,1.3-1.3,1.9c-0.8,0.9-1.1,1.1-3.1,2.1
		c-1.2,0.6-2.4,1.3-2.7,1.5c-1.1,0.9-1.4,2.9-0.8,4.3c0.2,0.4,0.7,1.2,1.1,1.8c0.4,0.6,1,1.6,1.2,2.1c0.6,1.2,0.7,1.1,0.6-0.4
		c0-0.7-0.2-1.2-0.6-2.1c-0.8-1.9-0.7-2.7,0.4-3.6c0.3-0.2,0.6-0.3,1.4-0.3c0.9,0,1.1,0,1.6,0.4c1.3,1,1.6,2.7,0.8,5.2
		c-0.9,3.1-0.5,4.2,2.5,6.6c0.8,0.6,1.7,1.4,2,1.7c0.5,0.5,0.6,0.5,0.6,0.3c0-0.8-0.3-1.4-1.4-2.5c-1.4-1.5-1.6-2-1.6-3.2
		c0-1.7,0.9-3.6,2-4.4c0.5-0.4,0.8-0.4,1.7-0.5c1-0.1,1.2,0,1.7,0.3c0.9,0.5,1.4,1.5,1.4,2.8c0,0.6-0.1,1.4-0.2,1.8
		c-0.4,1.7-0.3,2.8,0.6,4.3c0.5,0.8,0.8,1.7,0.8,2.6C103.8,181.7,103.9,181.8,104.2,181.3z M66.4,96.5c0.5-1.4,0.9-2.7,0.9-2.8
		c0.1-0.3,0.4-0.3,3.3,0.4c1.5,0.3,2.7,0.5,2.7,0.5c0,0-0.8-1-1.9-2.3c-1.1-1.2-2-2.2-2-2.3s0.9-1.1,2-2.3c1.1-1.2,1.9-2.2,1.9-2.3
		c0,0-1.3,0.2-2.9,0.5c-2.4,0.5-2.8,0.6-3,0.4c-0.1-0.1-0.6-1.4-1.1-2.9c-0.5-1.5-0.9-2.6-1-2.6c-0.1,0.1-0.5,1.3-1,2.8
		c-0.5,1.7-0.9,2.7-1.1,2.8c-0.1,0-1.4-0.2-2.9-0.5c-1.5-0.3-2.8-0.6-2.8-0.5c-0.1,0,0.8,1,1.8,2.2c1.1,1.2,1.9,2.3,1.9,2.4
		s-0.9,1.2-2,2.4c-1.1,1.2-1.9,2.2-1.9,2.2c0,0,1.3-0.2,2.8-0.5c1.5-0.3,2.9-0.6,3-0.5c0.1,0.1,0.5,1.1,1.1,2.8
		c0.5,1.5,0.9,2.7,1,2.7S65.9,98,66.4,96.5z M137.7,96.4c0.8-2.4,0.9-2.8,1.2-2.8c0.2,0,1.5,0.2,3,0.5s2.7,0.5,2.8,0.5
		s-0.8-1-1.9-2.2c-1.1-1.2-2-2.2-2-2.3c0-0.1,0.9-1.1,2-2.3s1.9-2.2,1.9-2.3c0,0-1.3,0.2-2.9,0.5s-2.9,0.6-3,0.5
		c-0.1,0-0.6-1.3-1.1-2.8c-0.5-1.5-0.9-2.7-1-2.7s-0.5,1.2-1,2.7c-0.5,1.6-1,2.8-1.1,2.8c-0.1,0-1.4-0.2-2.9-0.5
		c-1.5-0.3-2.8-0.6-2.9-0.5s0.8,1,1.8,2.2c1.1,1.2,1.9,2.3,1.9,2.4c0,0.1-0.9,1.2-2,2.4c-1.1,1.2-1.9,2.2-1.9,2.2
		c0,0,1.3-0.2,2.9-0.5c1.5-0.3,2.9-0.5,3-0.5c0.1,0.1,0.5,1.1,1.1,2.8c0.5,1.5,0.9,2.7,1,2.7S137.2,97.9,137.7,96.4z M180.5,45.8
		c-1.4-0.7-2.7-1.3-2.8-1.4c-0.1-0.1-0.4-1.2-0.7-2.4c-0.3-1.2-0.6-2.3-0.7-2.4c-0.3-0.3-5.3-2.6-5.5-2.5c-0.1,0-0.4,0.8-0.6,1.8
		c-0.3,0.9-0.5,1.7-0.6,1.8c-0.2,0.1-5.6-2.4-5.7-2.6c-0.1-0.2,6.9-19,7.1-19.1c0.1-0.1,1.4,0.5,3,1.3l2.8,1.4l3.3,12.5
		c1.8,6.9,3.3,12.5,3.3,12.6c0,0.1-0.1,0.2-0.2,0.2C183.2,47,182,46.5,180.5,45.8z M175.3,34.4c0-0.2-0.4-2.2-0.8-4.4
		c-0.4-2.2-0.8-4.1-0.8-4.1c0,0-0.1,0-0.1,0c-0.2,0.2-1.7,7.3-1.6,7.4c0.2,0.2,2.9,1.5,3.1,1.5C175.3,34.8,175.4,34.8,175.3,34.4z
		 M18.6,46.6c0-0.6,2.6-23,2.6-23.1c0.1-0.3,6.2-3,6.3-2.9c0.1,0.1,0.7,2.3,1.5,5s1.4,5,1.5,5.1c0.1,0.2,0.2,0.3,0.2,0.4
		c0.1,0,0.9-3.1,1.9-6.9l1.8-6.9l2.9-1.3c1.6-0.7,3-1.3,3-1.2c0.1,0.1,2.7,18.8,2.8,20.4l0,0.5l-2.6,1.2C39.2,37.5,38,38,37.9,38
		c-0.2,0-0.3-0.6-0.6-6.4c-0.2-5.1-0.3-5.7-0.5-5.5c-0.1,0.1-1,3.3-2,7.2s-1.9,7.1-2,7.1s-1,0.5-2,1c-1.3,0.6-1.9,0.8-2,0.7
		c-0.1-0.1-0.9-2.6-1.7-5.5s-1.6-5.4-1.7-5.4c0,0-0.1,0-0.1,0c0,0-0.3,3-0.6,6.5c-0.4,4.8-0.6,6.5-0.7,6.7c-0.2,0.2-5,2.5-5.2,2.5
		C18.7,46.9,18.6,46.8,18.6,46.6z M159.2,36.6c-1.3-0.4-2.4-0.8-2.5-0.9s-1.4-3-2.9-6.4c-3.3-7.5-3.1-7-3.2-7
		c-0.1,0-0.1,2.6-0.1,5.8s-0.1,5.8-0.1,5.9c-0.1,0.1-4.6-1.2-4.9-1.4c-0.3-0.2-0.3-22.1,0-22.2c0.2-0.1,4.8,1.2,5,1.3
		c0.1,0.1,1.2,2.6,2.5,5.6s2.6,6,2.9,6.7c0.3,0.7,0.6,1.3,0.7,1.3c0.1,0,0.1-2.5,0.1-5.9c0-5.5,0-5.9,0.2-5.9c0.4,0,4.7,1.2,4.8,1.4
		c0.2,0.2,0.1,22.2-0.1,22.2C161.6,37.3,160.5,37,159.2,36.6z M44.8,34.2c-0.4-0.1-0.3-0.3,0.5-2.6l0.7-2l2,0.1
		c3.1,0.1,5-0.3,6.5-1.3c1.3-0.9,1.9-2.4,1.2-3.1c-0.4-0.4-0.7-0.4-4.6-0.6c-1.9-0.1-2.9-0.2-3.4-0.4c-1.5-0.5-2.5-2.4-2.3-4.5
		c0.3-3.6,2.5-6.6,6.1-8.4c0.6-0.3,1-0.6,0.9-0.7c-0.1-0.1-0.9-0.5-1.8-1c-1-0.4-1.7-0.9-1.7-1c0-0.3,0.9-2.3,1-2.4
		c0.1-0.1,0.9,0.3,1.7,0.7c0.9,0.5,1.7,0.8,1.8,0.8c0.1,0,0.9-0.7,1.7-1.6s1.6-1.6,1.6-1.6c0.2,0,1.7,1.3,1.7,1.4
		c0,0.1-0.8,1-1.7,1.9c-1.6,1.7-2,2.2-1.4,2c0.8-0.3,6.6-0.2,6.6,0.1c0,0.1-0.6,1.1-1.3,2.2c-1,1.6-1.4,2-1.6,2
		c-0.1,0-0.8-0.1-1.4-0.2c-1.3-0.2-3,0-4,0.4c-1.7,0.8-2.7,2.6-1.9,3.5c0.6,0.6,1.7,0.8,4.5,0.8c2.9,0.1,4,0.3,4.9,1
		c1.6,1.4,1.8,4.6,0.4,7.5c-1.5,3.1-5,5.3-10,6.4C50.5,34.1,45.3,34.3,44.8,34.2z M138.6,31c-1.2-0.3-2.3-0.6-2.3-0.7
		c-0.1-0.1-0.2-2.9-0.2-11.2V8.1h0.3c0.4,0,4.8,1.1,5,1.3c0.1,0.1,0.2,2.5,0.2,11.2v11l-0.4,0C141,31.6,139.8,31.3,138.6,31z
		 M64.8,18.7c0-8.7,0-11.1,0.2-11.2c0.2-0.2,4.5-0.7,4.8-0.5C70,7.1,70,7.8,70,12.1c0,3.5,0,5,0.2,4.9c0.1,0,1.3-2.4,2.6-5.3
		s2.5-5.3,2.5-5.3c0,0,1.3-0.2,2.9-0.4c1.5-0.2,3-0.4,3.3-0.4c0.3-0.1,0.5,0,0.5,0.1c0,0.1-1.3,2.6-2.9,5.5s-2.9,5.4-2.9,5.4
		c0,0,1.6,2.5,3.5,5.4c1.9,2.9,3.6,5.4,3.6,5.5c0.1,0.3,0.1,0.3-3.7,0.7c-1.8,0.2-2.9,0.3-3,0.2c-0.1-0.1-1.5-2.3-3.1-4.9
		s-3-4.8-3.1-4.8c-0.1,0-0.2,1.3-0.2,5.3l0,5.4l-2,0.2c-1.1,0.1-2.3,0.2-2.6,0.2l-0.7,0V18.7z M127,28.7c-3.4-0.5-6.2-0.9-6.3-1
		c-0.1-0.1-0.2-2.4-0.2-11.1c0-9.5,0-11.1,0.2-11.2c0.2-0.1,4.9,0.6,5.1,0.7c0.1,0.1,0.1,3.4,0.1,9c0,6.3,0,9,0.2,9
		c0.1,0.1,1.8,0.3,3.7,0.6l3.6,0.5v2.1c0,1.8,0,2.1-0.2,2.1C133.2,29.6,130.4,29.2,127,28.7z M113.9,27.3l-2.3-0.1V16.1V4.9h2.7h2.7
		v11.2v11.2l-0.4,0C116.3,27.3,115.1,27.3,113.9,27.3z M92.8,26.7c-0.1-0.1-0.1-1-0.1-2.1v-2l4.7-6.7c2.6-3.7,4.7-6.8,4.7-6.9
		c0-0.2-0.6-0.2-4.3-0.2l-4.3,0v-2v-2l3,0c1.7,0,3.1-0.1,3.1-0.2c0.1-0.1-0.6-0.6-1.5-1.3c-2.3-1.6-2.2-1.4-1.4-2.5
		c0.4-0.5,0.7-1,0.8-1s0.9,0.5,1.7,1.1s1.7,1.2,1.8,1.3c0.1,0,0.9-0.5,1.7-1.2l1.5-1.3l0.8,0.9c0.4,0.5,0.8,1,0.8,1
		c0,0.1-0.8,0.7-1.7,1.5s-1.7,1.4-1.7,1.5c0,0.1,0.9,0.2,3,0.3l3,0.1l-0.1,2l-0.1,2l-4.3,6.4c-2.3,3.5-4.3,6.5-4.3,6.6
		c0,0.1,1.2,0.2,4.2,0.2l4.2,0.1v2.3v2.3l-7.6,0C96.3,26.8,92.9,26.8,92.8,26.7z"/>
	<path id="path2407" class="st4" d="M98.4,195.5C82,183.5,68,170.3,56.9,156.4c-15-18.8-25.8-39.9-32-63c-3.4-12.6-5.4-25.3-6.4-40
		l-0.1-1.4l2.4-1.3c3.3-1.8,9.8-5,13.3-6.5c29.5-12.6,63.2-16.4,96.2-10.9c15.9,2.6,31.1,7.5,45.2,14.4c3,1.5,7.7,4,8,4.3
		c0.1,0.1,0.1,1.2-0.1,3.5c-1.3,17.9-4.8,35.5-10.3,50.7c-11.8,33.1-32.6,60.7-64,85.1c-4.1,3.2-7.8,5.9-8.1,5.9
		C101,197.3,99.8,196.5,98.4,195.5z M116,180c12.3-10.9,22.2-22.2,30.4-34.5c10-15,16.9-30.8,21.6-49c2.9-11.5,4.9-24,5.6-35.8
		c0.1-2.3,0.1-2.7,0-2.8c-0.1-0.1-1.7-1-3.6-1.9c-28.1-14.1-62.3-19-95.2-13.6c-15.1,2.5-29,6.9-42,13.4l-4.2,2.1l0,1.4
		c0.1,5.3,1.5,16.6,2.8,24.1c6.2,34.2,20,61.4,43.7,86c4.1,4.3,10.2,10,13.9,13l0.3,0.3l-0.3-0.4c-0.2-0.2-1.1-1.2-2.1-2.2
		c-12.3-12.8-22.1-26.3-29.8-41.4c-8.8-17.2-15-38.6-17.9-61.4c-0.5-3.6-1-8.8-1-9.7v-0.8H101c52.6,0,62.8,0,62.9,0.2
		c0.1,0.2-0.4,4.9-0.9,9.5c-2.3,18.9-7,37.2-13.6,52.6c-7.5,17.6-19,35-33.2,49.8c-3.7,3.8-3.6,3.8-3,3.3
		C113.6,182.1,114.8,181,116,180z M47.3,65.1c-0.7-0.2-1.3-0.7-1.6-1.3c-0.2-0.5-0.3-1-0.3-4.7c0-3,0-4.2,0.2-4.3
		c0.2-0.2,1.3-0.2,1.5,0c0.1,0.1,0.2,1.6,0.2,4.2l0,4l0.3,0.3c0.5,0.4,1.5,0.4,1.9-0.1l0.3-0.3v-4c0-3.8,0-4,0.3-4.1
		c0.3-0.2,1-0.2,1.3-0.1c0.2,0.1,0.2,0.6,0.2,4.3c0,2.7-0.1,4.4-0.1,4.6c-0.2,0.5-0.6,1-1.2,1.3C50,65.2,48,65.3,47.3,65.1z M81,65
		c-1.6-0.6-2.3-2.7-2.1-5.9c0.1-2.4,0.8-3.8,2-4.4c0.7-0.3,2.2-0.2,2.9,0.1c1.3,0.6,1.7,1.7,1.8,4.4c0.1,3-0.4,4.8-1.6,5.5
		C83.3,65.2,81.9,65.3,81,65z M83.1,63.2c0.5-0.5,0.6-1.4,0.6-3.8c0-1.9-0.1-2.2-0.3-2.6c-0.4-0.6-1.1-0.9-1.7-0.5
		c-0.7,0.5-0.8,1-0.8,3.4c0,2.3,0.1,3,0.7,3.5C82,63.7,82.8,63.6,83.1,63.2z M118.9,65.1c-0.7-0.2-1.2-0.6-1.5-1.2
		c-0.3-0.6-0.3-0.7-0.4-4.8c0-4.7-0.1-4.6,1-4.6c1,0,1,0,1,4.4c0,3.8,0,4,0.3,4.3c0.2,0.2,0.5,0.3,1,0.3c0.5,0,0.8-0.1,1-0.3
		c0.3-0.3,0.3-0.5,0.3-4.3c0-4.5,0-4.4,1-4.4c1,0,1-0.1,1,4.6c0,4-0.1,4.2-0.4,4.7c-0.4,0.8-1.2,1.2-2.6,1.2
		C119.8,65.2,119.1,65.2,118.9,65.1z M151.2,65.1c-0.6-0.2-1.2-0.8-1.5-1.5c-0.2-0.5-0.3-1-0.3-2.9c-0.1-4.7,0.5-6,3-6
		c1.5,0,2.3,0.7,2.8,2c0.2,0.7,0.2,5.7,0,6.4C154.6,64.8,153,65.6,151.2,65.1z M152.9,63.3c0.5-0.8,0.5-6.1,0-6.9
		c-0.4-0.6-1.1-0.5-1.4,0.3c-0.2,0.6-0.4,4.3-0.2,5.5c0.1,0.5,0.3,1.1,0.4,1.2C152.1,63.8,152.6,63.8,152.9,63.3z M158.6,65.1
		c-1.3-0.5-1.7-1.3-1.7-3c0-1.3,0.3-2.2,0.8-2.5l0.3-0.2l-0.4-0.4c-0.5-0.4-0.6-0.9-0.6-2c0-1.7,0.9-2.5,2.7-2.5
		c1.8,0,2.6,0.6,2.8,2c0.1,1-0.1,1.9-0.5,2.4c-0.4,0.5-0.4,0.5-0.2,0.7c0.6,0.5,0.8,0.9,0.8,2.4c0,1.7-0.2,2.2-1.2,2.7
		C160.8,65.2,159.3,65.3,158.6,65.1z M160.4,63.4c0.6-0.6,0.4-2.8-0.3-3.1c-0.5-0.2-1,0.1-1.2,0.5c-0.2,0.6-0.1,2.2,0.2,2.5
		C159.5,63.8,160.1,63.8,160.4,63.4z M160.5,58.4c0.3-0.3,0.2-1.7,0-2.1c-0.3-0.4-0.8-0.4-1.2-0.1c-0.2,0.2-0.3,0.4-0.3,1.2
		c0,0.8,0,1,0.3,1.2C159.6,58.8,160.2,58.7,160.5,58.4z M39.6,65c-0.1-0.1-0.1-2.4-0.1-5.2c0-4.5,0-5.1,0.2-5.2
		c0.1,0,1.1-0.1,2.2-0.1s2.1,0,2.2,0.1c0.3,0.1,0.3,1.4,0,1.5c-0.1,0-0.8,0.1-1.5,0.1h-1.3l0,1.3l0,1.3l1.3,0c1.4,0,1.6,0.2,1.6,0.7
		c0,0.8-0.2,0.9-1.6,0.9h-1.3l0,2.3l0,2.3l-0.8,0C40,65.1,39.6,65,39.6,65z M54.8,65c-0.1-0.1-0.1-2-0.1-4.4v-4.3l-1,0l-1,0l0-0.6
		c-0.1-1-0.1-1,2.9-1c1.6,0,2.8,0.1,2.9,0.1c0.3,0.2,0.4,1.1,0.1,1.4c-0.1,0.1-0.6,0.2-1.1,0.2h-0.9v4.2c0,3.1,0,4.3-0.2,4.4
		C56.4,65.1,55,65.1,54.8,65z M59.3,64.9c-0.1-0.1-0.2-1.4-0.2-5c0-4.4,0-4.9,0.2-5.1c0.2-0.2,0.4-0.2,1.8-0.1
		c1.8,0.1,2.5,0.3,3.1,1c0.8,1,0.8,2.7,0,3.6l-0.5,0.5l0.5,0.4c0.6,0.5,0.8,1.3,0.7,2.4c-0.1,1.3-0.7,2.1-1.8,2.4
		C62.2,65.1,59.5,65.2,59.3,64.9z M62.7,63.1c0.3-0.3,0.3-0.5,0.3-1.1c0-0.6-0.1-0.8-0.4-1.1c-0.3-0.3-0.5-0.4-1-0.4H61v1.5v1.5h0.6
		C62.2,63.4,62.4,63.3,62.7,63.1z M62.5,58.6c0.3-0.3,0.3-0.5,0.3-1.1c0-0.9-0.3-1.3-1.2-1.3H61v1.3v1.3h0.6
		C62,58.9,62.3,58.8,62.5,58.6z M65.3,64.9c0-0.1,0.5-2.3,1.2-5s1.3-4.8,1.3-4.8c0,0,0.1-0.2,0.2-0.3c0.3-0.3,1.2-0.3,1.5,0
		c0.3,0.2,2.8,9.8,2.7,10.1c-0.1,0.2-0.3,0.2-0.9,0.2l-0.8,0l-0.3-0.9l-0.3-0.9h-1.2h-1.2L67.4,64c-0.1,0.4-0.3,0.8-0.3,0.9
		C66.9,65.2,65.4,65.1,65.3,64.9z M69.6,61.4c0-0.1-0.2-0.8-0.4-1.5c-0.2-0.8-0.4-1.3-0.4-1.3c-0.1,0.1-0.7,2.6-0.7,2.9
		c0,0.1,0.4,0.1,0.8,0.1C69.4,61.6,69.6,61.5,69.6,61.4z M73.8,65c-0.1-0.1-0.1-2.4-0.1-5.1c0-4.8,0-5,0.3-5.2
		c0.3-0.2,1.1-0.2,1.4,0c0.2,0.1,0.2,0.8,0.3,4.4l0.1,4.3l1.5,0.1l1.5,0.1v0.7V65l-2.5,0C75,65.1,73.8,65,73.8,65z M88.4,64.8
		c-0.2-0.5-2.4-9.3-2.4-9.7c0-0.2,0.1-0.4,0.2-0.4c0.4-0.2,1.2-0.1,1.4,0.2c0.2,0.2,0.5,1.2,0.9,3c0.3,1.5,0.7,2.7,0.7,2.7
		c0.1-0.1,0.4-1.4,0.8-2.9c0.7-3,0.8-3,1.6-3c0.7,0,0.9,0.1,0.8,0.5c0,0.2-0.6,2.5-1.2,5.1L90,65l-0.7,0
		C88.6,65.1,88.5,65.1,88.4,64.8z M95.5,65c-0.1-0.1-0.1-1.1-0.1-2.2l0-2.1l-1.1-2.9c-0.8-2.1-1.1-2.9-1-3c0.2-0.2,1.3-0.2,1.6-0.1
		c0.1,0.1,0.5,0.8,0.8,1.8c0.3,0.9,0.6,1.6,0.6,1.6c0,0,0.3-0.7,0.6-1.5c0.3-0.8,0.7-1.6,0.8-1.8c0.4-0.4,1.8-0.3,1.8,0.1
		c0,0.1-0.5,1.4-1.1,2.9l-1.1,2.7l-0.1,2.2L97.3,65l-0.8,0C95.9,65.1,95.5,65,95.5,65z M104,65c-0.1-0.1-0.1-2.4-0.1-5.2
		c0-5.6-0.1-5.2,1-5.2c0.3,0,0.6,0.1,0.7,0.2c0.1,0.1,0.2,0.8,0.2,2c0,1,0,1.9,0.1,1.9c0.1,0,0.5-0.8,1.1-1.8c0.5-1,1.1-1.9,1.2-2
		c0.3-0.3,1.3-0.3,1.6-0.1c0.3,0.2,0.2,0.3-1.3,2.8c-0.6,1.1-1.1,2-1.1,2.1c0,0.1,0.6,1.3,1.3,2.6c0.7,1.3,1.2,2.5,1.2,2.6
		c0,0.1-0.3,0.2-0.9,0.2h-0.8l-1.2-2.2l-1.2-2.2l-0.1,2.2l-0.1,2.2l-0.8,0C104.5,65.1,104.1,65,104,65z M111,65
		c-0.1-0.1-0.1-2.4-0.1-5.1c0-4.8,0-5,0.3-5.2c0.3-0.2,1.1-0.2,1.4,0c0.2,0.1,0.2,0.8,0.3,4.4l0.1,4.3l1.5,0.1l1.5,0.1v0.7V65
		l-2.5,0C112.2,65.1,111.1,65,111,65z M125,64.9c-0.1-0.1-0.2-1.3-0.2-5c0-4.2,0-4.9,0.2-5.1c0.4-0.4,3.6-0.2,4.4,0.3
		c1.2,0.7,1.5,3.1,0.5,4.2l-0.4,0.4l0.4,0.4c0.5,0.5,0.7,1,0.7,1.9c0,1.3-0.5,2.3-1.5,2.8C128.6,65.1,125.2,65.2,125,64.9z
		 M128.4,63.1c0.3-0.3,0.4-0.4,0.4-0.9c0-0.3,0-0.8-0.1-0.9c-0.1-0.4-0.8-0.7-1.4-0.7h-0.5v1.5v1.5h0.6
		C127.8,63.4,128.1,63.3,128.4,63.1z M128.2,58.6c0.4-0.3,0.6-0.9,0.4-1.6c-0.2-0.6-0.5-0.8-1.2-0.8h-0.6v1.3v1.3h0.5
		C127.6,58.9,128,58.8,128.2,58.6z M137.9,65c-0.1-0.1-0.1-2-0.1-4.4v-4.3h-0.5c-0.8,0-1-0.2-1-0.8c0-0.7,0.2-0.8,1.8-0.8
		c1,0,1.3,0.1,1.5,0.2c0.2,0.2,0.2,0.8,0.2,5.1c0,3.6,0,4.9-0.2,5C139.4,65.1,138.1,65.1,137.9,65z M143.1,64.8c0-0.1,0.5-1,1.1-1.8
		s1-1.6,1-1.7c0-0.1-0.4-0.1-0.8-0.1c-1,0-1.7-0.4-2.1-1.2c-0.4-0.9-0.4-3.3,0-4.1c0.4-0.7,0.9-1.1,1.8-1.3c1.6-0.4,3.1,0.4,3.5,1.9
		c0.3,1.1,0.2,2.8-0.2,4.1c-0.4,1.1-1.5,3.2-2.1,4.1c-0.3,0.4-0.4,0.5-1.2,0.5C143.3,65.1,143.1,65,143.1,64.8z M145.6,59.4
		c0.3-0.3,0.3-0.5,0.3-1.5c0-0.9-0.1-1.2-0.3-1.5c-0.4-0.5-1.1-0.5-1.5-0.1c-0.5,0.7-0.4,2.5,0.1,3.1
		C144.6,59.9,145.2,59.8,145.6,59.4z M96.1,54.1c-0.5-0.2-0.4-0.5,0.5-1.5l0.8-0.9l0.4,0.3c0.6,0.4,0.9,0.8,0.8,1
		c-0.2,0.2-1.8,1.3-2,1.3C96.5,54.3,96.3,54.2,96.1,54.1z M104.2,181.3c0.3-0.7,0.3-1.6,0-2.9c-0.5-2.2-0.4-3,0.6-4.5
		c0.9-1.4,1.1-2.1,1.2-3.9c0.1-1.3,0.2-1.7,0.5-2.3c0.7-1.3,2.2-1.7,3.9-0.9c2.1,0.9,2.3,2.5,0.7,5.4c-0.3,0.6-0.7,1.5-0.9,2
		c-0.3,0.9-0.5,2.9-0.4,2.9c0,0,0.4-0.5,0.7-1.2c0.9-1.5,1.6-2.4,2.8-3.6c1.4-1.3,1.9-1.9,2.2-3c0.5-1.7,0.1-3.4-1.3-4.6
		c-0.4-0.4-1.5-1.1-2.7-1.6c-3.1-1.6-4.3-2.9-5-5.7c-0.3-1.1-0.3-1.2-0.3-18.1c0-9.4,0.1-17.1,0.1-17.1c0.1-0.1,4.5-0.1,10-0.1
		c9.4,0.1,9.9,0.1,11.4,0.4c2.1,0.4,3.6,0.8,5.4,1.4c0.8,0.3,1.5,0.5,1.6,0.4c0,0,0-0.2-0.1-0.4c-0.8-2.1-0.8-10.4,0-12.5
		c0.1-0.2,0.1-0.4,0.1-0.4c0,0-0.7,0.2-1.6,0.4c-1.9,0.6-3.9,1.1-5.9,1.4c-1.4,0.2-2.5,0.3-11.3,0.3h-9.7v-11.1V90.5l2.5,0
		c2.7,0,4.2,0.2,6.3,0.8c0.7,0.2,1.2,0.3,1.3,0.3c0,0,0-0.6-0.1-1.4c-0.2-1.8-0.2-6.3,0-8.3c0.1-0.9,0.1-1.7,0.1-1.7
		c0,0-0.6,0.1-1.3,0.3c-0.7,0.2-1.9,0.5-2.7,0.6c-1.7,0.3-5.3,0.4-5.8,0.3l-0.4-0.1l0-4.4l0-4.4l-0.8,0.1c-1,0.1-7.1,0.1-8.3,0
		l-0.8-0.1l0,4.3c0,4.3,0,4.3-0.3,4.5c-0.4,0.2-4.6,0.1-6.2-0.2c-1-0.2-2.8-0.7-3.7-1c-0.2-0.1-0.2,0-0.1,0.5
		c0.3,1.7,0.4,5.6,0.2,8.1c-0.1,1.5-0.1,2.7-0.1,2.8c0,0,0.5-0.1,1.1-0.3c1.9-0.6,3.3-0.8,6.3-0.8l2.7,0l0,11c0,8.3,0,11-0.1,11.2
		c-0.1,0.2-1.6,0.2-10.1,0.1c-9.4-0.1-10-0.1-11.5-0.4c-1.9-0.4-4.4-1-5.7-1.5c-0.6-0.2-1-0.3-1.1-0.3c0,0,0,0.5,0.2,1.1
		c0.7,3.1,0.7,8,0,11.2c-0.1,0.6-0.2,1.1-0.2,1.1c0,0,0.5-0.1,1.1-0.3c1.4-0.5,3.8-1.1,5.7-1.5c1.5-0.3,2.1-0.3,11.5-0.4
		c7.5,0,9.9,0,10.1,0.1c0.2,0.1,0.2,2.5,0.2,16.7c0,18.2,0,17.7-0.9,19.6c-0.2,0.5-0.8,1.3-1.3,1.9c-0.8,0.9-1.1,1.1-3.1,2.1
		c-1.2,0.6-2.4,1.3-2.7,1.5c-1.1,0.9-1.4,2.9-0.8,4.3c0.2,0.4,0.7,1.2,1.1,1.8c0.4,0.6,1,1.6,1.2,2.1c0.6,1.2,0.7,1.1,0.6-0.4
		c0-0.7-0.2-1.2-0.6-2.1c-0.8-1.9-0.7-2.7,0.4-3.6c0.3-0.2,0.6-0.3,1.4-0.3c0.9,0,1.1,0,1.6,0.4c1.3,1,1.6,2.7,0.8,5.2
		c-0.9,3.1-0.5,4.2,2.5,6.6c0.8,0.6,1.7,1.4,2,1.7c0.5,0.5,0.6,0.5,0.6,0.3c0-0.8-0.3-1.4-1.4-2.5c-1.4-1.5-1.6-2-1.6-3.2
		c0-1.7,0.9-3.6,2-4.4c0.5-0.4,0.8-0.4,1.7-0.5c1-0.1,1.2,0,1.7,0.3c0.9,0.5,1.4,1.5,1.4,2.8c0,0.6-0.1,1.4-0.2,1.8
		c-0.4,1.7-0.3,2.8,0.6,4.3c0.5,0.8,0.8,1.7,0.8,2.6C103.8,181.7,103.9,181.8,104.2,181.3z M66.4,96.5c0.5-1.4,0.9-2.7,0.9-2.8
		c0.1-0.3,0.4-0.3,3.3,0.4c1.5,0.3,2.7,0.5,2.7,0.5c0,0-0.8-1-1.9-2.3c-1.1-1.2-2-2.2-2-2.3s0.9-1.1,2-2.3c1.1-1.2,1.9-2.2,1.9-2.3
		c0,0-1.3,0.2-2.9,0.5c-2.4,0.5-2.8,0.6-3,0.4c-0.1-0.1-0.6-1.4-1.1-2.9c-0.5-1.5-0.9-2.6-1-2.6c-0.1,0.1-0.5,1.3-1,2.8
		c-0.5,1.7-0.9,2.7-1.1,2.8c-0.1,0-1.4-0.2-2.9-0.5c-1.5-0.3-2.8-0.6-2.8-0.5c-0.1,0,0.8,1,1.8,2.2c1.1,1.2,1.9,2.3,1.9,2.4
		s-0.9,1.2-2,2.4c-1.1,1.2-1.9,2.2-1.9,2.2c0,0,1.3-0.2,2.8-0.5c1.5-0.3,2.9-0.6,3-0.5c0.1,0.1,0.5,1.1,1.1,2.8
		c0.5,1.5,0.9,2.7,1,2.7S65.9,98,66.4,96.5z M137.7,96.4c0.8-2.4,0.9-2.8,1.2-2.8c0.2,0,1.5,0.2,3,0.5s2.7,0.5,2.8,0.5
		s-0.8-1-1.9-2.2c-1.1-1.2-2-2.2-2-2.3c0-0.1,0.9-1.1,2-2.3s1.9-2.2,1.9-2.3c0,0-1.3,0.2-2.9,0.5s-2.9,0.6-3,0.5
		c-0.1,0-0.6-1.3-1.1-2.8c-0.5-1.5-0.9-2.7-1-2.7s-0.5,1.2-1,2.7c-0.5,1.6-1,2.8-1.1,2.8c-0.1,0-1.4-0.2-2.9-0.5
		c-1.5-0.3-2.8-0.6-2.9-0.5s0.8,1,1.8,2.2c1.1,1.2,1.9,2.3,1.9,2.4c0,0.1-0.9,1.2-2,2.4c-1.1,1.2-1.9,2.2-1.9,2.2
		c0,0,1.3-0.2,2.9-0.5c1.5-0.3,2.9-0.5,3-0.5c0.1,0.1,0.5,1.1,1.1,2.8c0.5,1.5,0.9,2.7,1,2.7S137.2,97.9,137.7,96.4z M180.5,45.7
		c-1.4-0.7-2.6-1.3-2.7-1.3s-0.4-1.1-0.7-2.4c-0.3-1.2-0.6-2.3-0.7-2.4c-0.3-0.3-5.4-2.6-5.5-2.5c-0.2,0.1-0.3,0.5-1,2.8
		c-0.1,0.4-0.3,0.8-0.3,0.8c-0.3,0-5.5-2.4-5.5-2.6c0-0.2,6.9-18.6,7-18.8c0.1-0.1,0.8,0.2,2.9,1.2c1.5,0.8,2.8,1.4,2.8,1.5
		c0,0,1.4,5.6,3.2,12.4c1.8,6.8,3.2,12.4,3.2,12.5s0,0.2-0.1,0.2S182,46.3,180.5,45.7z M175.4,34.9c0.1-0.2-1.5-9-1.7-9.2
		c-0.2-0.2-0.2-0.4-1.1,3.9c-0.6,2.8-0.8,3.7-0.7,3.8c0.3,0.3,2.9,1.5,3.2,1.5C175.2,35,175.4,34.9,175.4,34.9z M18.7,46.5
		c0-0.2,2.4-21.9,2.6-22.8c0-0.2,0.9-0.6,3.1-1.7c1.7-0.8,3.1-1.4,3.1-1.3c0.1,0.1,2,6.7,2.6,9c0.5,1.7,0.6,2,0.8,1.5
		c0.1-0.2,0.8-3.1,1.7-6.6c0.9-3.4,1.6-6.5,1.7-6.7c0.1-0.5,0.2-0.5,3-1.8c1.6-0.7,2.9-1.3,3-1.2c0.1,0.1,2.9,20.7,2.8,20.8
		c-0.1,0.1-5,2.3-5.1,2.3c-0.2,0-0.1,0.9-0.5-6.1c-0.3-5.4-0.4-6.7-0.7-6.3c0,0.1-0.9,3.2-1.9,7.1c-1,3.8-1.9,7.1-2,7.4
		c-0.1,0.4-0.3,0.5-2,1.3c-1.1,0.5-2,0.8-2,0.8c-0.1-0.1-0.8-2.5-1.7-5.4s-1.6-5.4-1.7-5.6c-0.1-0.1-0.2-0.2-0.3-0.1
		c-0.1,0.1-0.3,3-0.6,6.6C24.3,41,24,44,23.9,44.1c-0.1,0.2-0.9,0.6-2.5,1.4C18.5,46.9,18.7,46.8,18.7,46.5z M159.2,36.6
		c-1.2-0.3-2.3-0.7-2.4-0.8c-0.1-0.1-1.5-3.2-3.1-6.9c-1.6-3.7-3-6.7-3-6.8c-0.3-0.3-0.4,0.5-0.4,6V34l-0.4-0.1
		c-0.2,0-1.3-0.4-2.4-0.7l-2-0.6l0-11c0-10.4,0-11,0.2-11c0.4,0,4.7,1.2,4.8,1.4c0.1,0.1,1.4,3.1,3,6.8c1.6,3.7,3,6.7,3,6.8
		c0.4,0.6,0.4-0.2,0.4-5.9c0-5.5,0-5.9,0.2-5.9c0.1,0,1.2,0.3,2.4,0.6l2.2,0.6l0,11.1c0,8.8,0,11.1-0.1,11.1
		C161.5,37.2,160.4,36.9,159.2,36.6z M44.7,33.9c0-0.1,0.2-1.1,0.6-2.2l0.7-2l2,0c2.2,0.1,3.5-0.1,5-0.6c1.9-0.6,3.2-2,3-3.2
		c-0.1-1.1-0.6-1.3-5.1-1.5c-2-0.1-2.9-0.2-3.3-0.4c-2.3-1-2.8-4.4-1.1-7.9c1-2.1,2.6-3.6,5-4.8c0.6-0.3,1.1-0.6,1.1-0.7
		c0-0.1-0.8-0.6-1.8-1c-1-0.5-1.8-0.9-1.8-1c0-0.2,0.7-1.9,0.9-2.1c0.1-0.1,0.5,0,1.7,0.7c0.9,0.5,1.7,0.8,1.8,0.8
		c0.1,0,0.9-0.7,1.7-1.6s1.6-1.6,1.6-1.6c0.2,0,1.5,1.1,1.5,1.3c0,0.1-0.8,1-1.7,2c-1,1.1-1.7,1.9-1.6,2c0.1,0.1,0.2,0.2,0.7,0.1
		c0.7-0.1,3.9-0.2,5.2,0c0.7,0.1,0.9,0.1,0.9,0.3c0,0.1-0.6,1-1.3,2.1c-1,1.6-1.3,1.9-1.5,1.8c-3.3-0.9-6.7,0.2-7.4,2.3
		c-0.6,1.8,0.5,2.4,4.8,2.4c3.6,0.1,4.7,0.5,5.5,2c0.8,1.5,0.6,4.2-0.4,6.3c-1.1,2.2-2.7,3.6-5.5,5c-2.6,1.2-5.2,1.8-8.8,1.8
		C45.2,34.1,44.8,34.1,44.7,33.9z M138.8,30.9l-2.5-0.7l0-11c0-6,0-11,0.1-11.1c0.1-0.1,1.2,0.2,2.6,0.6l2.5,0.6l0,11
		c0,6,0,11-0.1,11.1C141.3,31.5,140.1,31.3,138.8,30.9z M65,29.6c0-0.1,0-5.1,0-11.1l0-10.9l1.3-0.2c0.7-0.1,1.8-0.2,2.4-0.3
		l1.2-0.1v5.1c0,2.8,0.1,5.1,0.1,5.1c0.1,0,0.2,0,0.3,0c0.1-0.1,1.3-2.5,2.6-5.4c1.4-2.9,2.5-5.3,2.5-5.4c0.1-0.1,6.3-0.9,6.4-0.8
		c0,0-1.2,2.4-2.7,5.3c-1.5,2.9-2.8,5.3-2.9,5.5c-0.1,0.2,1,1.8,3.5,5.6c2.1,3.1,3.5,5.4,3.5,5.5c-0.1,0.1-1.4,0.3-2.9,0.4
		c-1.5,0.2-2.9,0.3-3.2,0.4l-0.4,0.1l-3.1-4.9c-1.7-2.7-3.1-5-3.2-5c-0.1-0.1-0.2-0.1-0.3,0c-0.1,0-0.1,2.5-0.1,5.5v5.4l-0.4,0
		c-0.2,0-1.3,0.1-2.5,0.3C65.7,29.7,65.1,29.7,65,29.6z M127.4,28.7c-3-0.4-5.8-0.9-6.1-0.9l-0.6-0.1V16.6c0-10.9,0-11.1,0.3-11.1
		c0.3,0,3.9,0.5,4.5,0.6l0.4,0.1v8.9c0,7.4,0,9,0.2,9.1c0.1,0.1,1.8,0.4,3.8,0.7l3.6,0.5v2c0,1.8,0,2-0.2,2
		C133.1,29.5,130.5,29.1,127.4,28.7z M113.8,27.2l-2.2,0V16V5h2.6h2.6v11.1v11.1l-0.4,0C116.2,27.2,115,27.2,113.8,27.2z M92.8,24.7
		v-2l4.7-6.8c2.6-3.7,4.7-6.9,4.7-7c0-0.2-0.5-0.2-4.4-0.3l-4.3,0V6.7V4.9l3.1,0c2.6,0,3.1-0.1,3.1-0.2c0-0.1-0.6-0.6-1.3-1.2
		c-0.7-0.5-1.5-1.1-1.8-1.3l-0.5-0.4l0.6-0.8c0.3-0.5,0.7-0.9,0.8-1c0.1-0.1,0.6,0.2,1.7,1c0.8,0.6,1.6,1.2,1.8,1.3
		c0.2,0.1,0.7-0.3,1.7-1.2l1.5-1.3l0.7,0.8c0.4,0.5,0.7,0.9,0.7,1s-0.8,0.8-1.7,1.5c-0.9,0.8-1.7,1.4-1.7,1.5c0,0.1,0.8,0.2,3,0.3
		l3,0.1l-0.1,1.9l-0.1,1.9l-4.3,6.5c-2.4,3.6-4.3,6.6-4.2,6.7c0.1,0.1,1.5,0.1,4.3,0.1h4.2v2.2v2.2h-7.6h-7.6V24.7z"/>
	<path id="path2405" class="st5" d="M98.4,195.5C82,183.5,68,170.3,56.9,156.4c-15-18.8-25.8-39.9-32-63c-3.4-12.6-5.4-25.3-6.4-40
		l-0.1-1.4l2.4-1.3c3.3-1.8,9.8-5,13.3-6.5c29.5-12.6,63.2-16.4,96.2-10.9c15.9,2.6,31.1,7.5,45.2,14.4c3,1.5,7.7,4,8,4.3
		c0.1,0.1,0.1,1.2-0.1,3.5c-1.3,17.9-4.8,35.5-10.3,50.7c-11.8,33.1-32.6,60.7-64,85.1c-4.1,3.2-7.8,5.9-8.1,5.9
		C101,197.3,99.8,196.5,98.4,195.5z M113.8,182.1c5-4.3,13.5-12.6,17.5-17c8.6-9.6,15.1-18.5,21-28.9c12.1-21.2,19.4-46.9,21.4-75.4
		c0.1-1.5,0.1-2.8,0.1-2.9c-0.1-0.1-1.5-1-3.3-1.8c-15.1-7.7-31.5-12.6-49.2-14.8c-6.4-0.8-10.9-1.1-17.8-1.2
		C82,39.7,60.6,43.6,41.6,51.5c-4.7,1.9-12.8,5.9-13.2,6.4c-0.2,0.3,0,3.2,0.5,8.9c2.5,26.4,9.7,50,21.3,70.1
		c9.1,15.9,21.5,30.7,36.8,44c2.7,2.4,4.2,3.6,4.4,3.6c0.1,0-1.4-1.6-3.3-3.5c-1.8-1.9-4.1-4.3-5-5.3c-13-14.4-23.4-30.3-30.3-46.7
		C46.5,114.3,42,97.1,39.6,78.7c-0.5-3.8-1.2-10.3-1.2-11.2l0-0.5H101c34.5,0,62.7,0.1,62.8,0.1c0.1,0.1-0.4,5.4-0.8,8.6
		c-2.4,19.8-7.1,38-14,54.1c-1.5,3.4-4.9,10.4-6.8,13.9c-7.7,13.8-17,26-28.9,38c-1.5,1.5-2.6,2.7-2.6,2.8
		C110.6,184.8,111.6,184,113.8,182.1z M47.5,65c-0.6-0.1-1.1-0.5-1.5-1c-0.3-0.4-0.3-0.6-0.3-4.7l0-4.3h0.8h0.8v3.9
		c0,2.6,0.1,4,0.2,4.3c0.3,0.7,1.7,0.9,2.4,0.4l0.3-0.3l0.1-4.1l0.1-4.1l0.7,0l0.7,0V59c0,4.1,0,4.2-0.3,4.8
		c-0.2,0.4-0.5,0.7-0.8,0.9C49.9,65,48.2,65.1,47.5,65z M81.1,64.9c-0.7-0.3-1.5-1.1-1.7-1.8c-0.7-2.4-0.4-6.4,0.7-7.5
		c0.7-0.8,2.7-1.1,3.8-0.5c1.2,0.6,1.8,2.6,1.6,5.6c-0.1,2.4-0.6,3.6-1.6,4.1C83.3,65.1,81.8,65.1,81.1,64.9z M83.2,63.3
		c0.5-0.5,0.7-1.4,0.7-3.5c0-2.3-0.2-3-0.8-3.5c-0.4-0.3-0.5-0.4-1-0.3c-1.1,0.1-1.5,1.1-1.5,3.8c0,2,0.2,2.9,0.7,3.5
		C81.9,63.8,82.8,63.8,83.2,63.3z M118.9,64.9c-0.3-0.1-0.7-0.3-1-0.6c-0.7-0.7-0.8-1.4-0.7-5.7l0-3.7l0.7,0l0.7,0l0,3.7
		c0,3.9,0.1,4.6,0.6,4.9c0.4,0.2,1.4,0.3,1.8,0.1c0.6-0.3,0.7-0.9,0.7-4.9v-3.8h0.7h0.7l0,4.4c0,4.2-0.1,4.4-0.3,4.8
		c-0.2,0.2-0.5,0.5-0.8,0.7C121.3,65,119.7,65.1,118.9,64.9z M151.2,64.9c-0.7-0.2-1.3-0.9-1.5-1.7c-0.1-0.4-0.2-1.6-0.2-3.4
		c0-3.2,0.1-3.8,1-4.5c0.8-0.7,2.6-0.8,3.5-0.1c0.9,0.7,1,1.1,1.1,4.2c0,1.8,0,3.1-0.1,3.6C154.5,64.7,152.9,65.5,151.2,64.9z
		 M152.9,63.5c0.4-0.5,0.6-2.1,0.5-4.5c-0.1-2.1-0.3-2.8-0.9-3.1c-0.4-0.2-1,0.1-1.2,0.7c-0.2,0.6-0.3,4.9-0.1,5.8
		C151.5,63.8,152.3,64.2,152.9,63.5z M158.6,64.9c-1.2-0.4-1.6-1.2-1.6-2.8c0-1.1,0.2-1.8,0.7-2.2c0.5-0.4,0.5-0.5,0.1-0.8
		c-0.5-0.4-0.7-1.1-0.6-2.2c0.1-1.6,0.8-2.2,2.6-2.2c1.7,0,2.4,0.6,2.6,2.1c0.1,0.9-0.2,1.8-0.7,2.3l-0.4,0.4l0.4,0.2
		c0.5,0.3,0.7,0.8,0.8,1.7c0.2,1.5-0.2,2.7-1.1,3.3C160.8,65,159.3,65.1,158.6,64.9z M160.5,63.5c0.3-0.3,0.5-1.1,0.4-2.1
		c-0.1-0.6-0.2-0.9-0.4-1.1c-0.4-0.4-0.6-0.4-1.1-0.2c-0.5,0.2-0.7,0.7-0.7,1.7c0,0.9,0.2,1.6,0.6,1.8
		C159.7,63.9,160.2,63.8,160.5,63.5z M160.3,58.7c0.6-0.4,0.7-2.2,0.1-2.7c-0.6-0.4-1.4-0.1-1.6,0.7
		C158.4,58.2,159.3,59.4,160.3,58.7z M39.7,64.9c-0.1-0.1-0.1-2.3-0.1-5v-4.9h2.3h2.3v0.6V56l-1.4,0c-0.8,0-1.4,0.1-1.5,0.1
		c-0.1,0.1-0.2,0.5-0.1,1.5l0,1.4l1.4,0l1.4,0l0,0.6l0,0.6l-1.3,0.1l-1.3,0.1l-0.1,2.2l-0.1,2.2l-0.6,0
		C40.1,64.9,39.8,64.9,39.7,64.9z M55,64.8c-0.1-0.1-0.1-2-0.1-4.4v-4.3l-1,0l-1,0l0-0.6l0-0.6l2.9,0l2.9,0l0,0.4
		c0.1,0.6-0.2,0.8-1.2,0.8c-0.7,0-0.9,0.1-1,0.2c0,0.1-0.1,2.1-0.1,4.4v4.2h-0.7C55.4,64.9,55,64.9,55,64.8z M59.4,59.9v-5.1l1.9,0
		c2.1,0.1,2.6,0.2,3.1,1.1c0.6,0.9,0.3,2.9-0.5,3.4c-0.4,0.2-0.3,0.4,0.1,0.7c0.6,0.3,0.8,0.9,0.8,2c0,1.3-0.4,2-1.2,2.5
		c-0.5,0.3-0.9,0.3-2.4,0.4L59.4,65V59.9z M62.6,63.4c0.1-0.1,0.3-0.3,0.4-0.4c0.2-0.4,0.2-1.5,0-1.9c-0.2-0.4-0.9-0.7-1.5-0.7h-0.6
		v1.6c0,1.1,0,1.6,0.2,1.7C61.3,63.7,62.3,63.5,62.6,63.4z M62.5,58.8c0.5-0.2,0.7-1,0.5-1.8c-0.2-0.6-0.4-0.8-1.1-1
		c-1-0.2-1-0.2-1,1.5c0,1,0.1,1.5,0.2,1.5C61.3,59.2,62,59.1,62.5,58.8z M65.5,64.8c0-0.1,0.5-2.3,1.2-5l1.3-4.9l0.7,0
		c0.6,0,0.7,0,0.9,0.3c0.4,0.9,2.5,9.5,2.4,9.7c-0.1,0.1-0.4,0.1-0.7,0.1l-0.6,0L70.3,64l-0.3-0.9l-1.3,0c-1,0-1.3,0-1.3,0.1
		c0,0.1-0.2,0.5-0.3,1l-0.2,0.8h-0.7C65.9,64.9,65.5,64.9,65.5,64.8z M69.6,61.7c0.2-0.2-0.5-3.5-0.8-3.6c-0.1,0-0.3,0.7-0.5,1.5
		c-0.4,1.7-0.4,2-0.3,2.1C68.2,61.9,69.4,61.9,69.6,61.7z M73.9,64.8c0-0.1-0.1-2.4,0-5l0-4.8l0.7,0l0.7,0v4.3c0,3.1,0,4.3,0.2,4.4
		c0.1,0.1,0.7,0.2,1.7,0.2h1.5l0,0.6l0,0.6l-2.3,0C74.5,64.9,73.9,64.9,73.9,64.8z M88.5,64.6c-0.2-0.4-2.4-9.3-2.4-9.6
		c0-0.2,0.2-0.2,0.8-0.2c0.4,0,0.8,0,0.8,0.1c0,0.1,1.2,5.5,1.3,5.8c0,0.1,0.1,0.2,0.2,0.2c0.1,0,0.9-3.2,1.4-5.5l0.1-0.7h0.8
		c0.6,0,0.8,0,0.7,0.2c0,0.1-0.6,2.4-1.2,5l-1.2,4.8l-0.6,0C88.7,65,88.6,64.9,88.5,64.6z M95.6,64.9c-0.1-0.1-0.1-1-0.1-2.2v-2.1
		l-1.1-2.7c-0.6-1.5-1.1-2.8-1.1-2.9c0-0.1,0.2-0.2,0.8-0.2c0.9,0,0.8-0.1,1.5,2c0.3,0.8,0.6,1.6,0.6,1.7c0.1,0.1,0.2-0.2,0.3-0.6
		c0.1-0.4,0.4-1.2,0.7-1.9l0.4-1.2h0.8c0.5,0,0.8,0.1,0.8,0.1c0,0.1-0.5,1.3-1.1,2.8l-1.1,2.7l-0.1,2.2l-0.1,2.2l-0.7,0
		C96,64.9,95.7,64.9,95.6,64.9z M104.2,64.9c-0.1-0.1-0.1-2.3-0.1-5v-4.9h0.8h0.8V57c0,1.4,0.1,2.1,0.1,2.1c0.1,0,0.7-1,1.3-2.1
		l1.2-2l0.7,0c0.6,0,0.7,0,0.7,0.2c0,0.1-0.5,1.1-1.2,2.3c-0.7,1.2-1.2,2.2-1.2,2.3s0.6,1.3,1.3,2.7c1.4,2.7,1.4,2.7,0.3,2.6l-0.6,0
		l-1.2-2.3c-0.6-1.3-1.2-2.3-1.3-2.3c-0.1,0-0.1,1-0.2,2.3l0,2.3l-0.6,0C104.5,64.9,104.2,64.9,104.2,64.9z M111.1,64.8
		c0-0.1-0.1-2.4,0-5l0-4.8l0.7,0l0.7,0v4.3c0,3.3,0,4.3,0.2,4.4c0.1,0.1,0.8,0.2,1.6,0.2l1.5,0v0.6v0.6l-2.3,0
		C111.7,64.9,111.2,64.9,111.1,64.8z M125.1,59.9v-5.1l1.9,0c1.6,0,1.9,0.1,2.3,0.3c1.3,0.7,1.5,2.9,0.4,4c-0.2,0.2-0.4,0.5-0.4,0.5
		c0,0.1,0.2,0.2,0.5,0.4c0.6,0.4,0.8,1.1,0.7,2.3c-0.1,1.1-0.5,1.8-1.3,2.2c-0.4,0.2-1,0.3-2.3,0.3l-1.8,0.1V59.9z M128.4,63.3
		c0.4-0.3,0.7-1.2,0.5-1.9c-0.2-0.8-0.6-1-1.5-1.1l-0.8-0.1v1.6c0,1.2,0,1.6,0.2,1.7C127.1,63.7,128,63.5,128.4,63.3z M128.2,58.8
		c0.6-0.4,0.8-1.7,0.2-2.3c-0.3-0.3-1.2-0.6-1.6-0.5c-0.2,0.1-0.3,0.2-0.3,1.5c0,1,0.1,1.5,0.2,1.5C127.1,59.2,127.9,59,128.2,58.8z
		 M138,64.8c-0.1-0.1-0.1-2-0.1-4.4v-4.3l-0.3-0.1c-0.2,0-0.5-0.1-0.7-0.1c-0.4,0-0.4-0.1-0.4-0.5v-0.5l1.5,0l1.5,0v5v5h-0.7
		C138.4,64.9,138.1,64.9,138,64.8z M143.3,64.8c0-0.1,0.5-0.9,1.1-1.8c0.6-0.9,1.1-1.8,1.1-1.8c0-0.1-0.4-0.1-0.9-0.1
		c-1.6,0-2.3-0.7-2.4-2.5c-0.1-1.8,0.3-3.1,1.4-3.6c0.2-0.1,0.8-0.2,1.4-0.2c1.3,0,1.8,0.3,2.3,1.3c0.3,0.6,0.4,0.9,0.4,2
		c0,0.7-0.1,1.5-0.2,1.9c-0.2,0.9-1.1,2.8-1.9,4.1l-0.6,1h-0.8C143.7,64.9,143.3,64.9,143.3,64.8z M145.4,59.8
		c0.7-0.3,0.9-2.3,0.5-3.2c-0.3-0.6-0.9-0.8-1.5-0.5c-0.6,0.2-0.8,1-0.7,2.3C143.8,59.6,144.5,60.2,145.4,59.8z M96.1,54
		c-0.3-0.2-0.3-0.1,0.6-1.3c0.3-0.3,0.6-0.6,0.7-0.6c0.3,0,1,0.6,1,0.8c0,0.2-1.7,1.3-1.9,1.3C96.5,54.2,96.3,54.1,96.1,54z
		 M104.3,181.4c0.4-0.8,0.4-1.7,0.1-3.2c-0.5-2.2-0.4-2.8,0.6-4.4c0.9-1.4,1-2,1.2-3.9c0.1-1.3,0.2-1.8,0.4-2.2
		c0.3-0.6,1-1.1,1.7-1.2c0.7-0.1,1.9,0.2,2.6,0.6c1.5,0.9,1.4,2.5,0,4.9c-0.7,1.2-1.1,2.6-1.2,4.2c-0.1,1.5,0,1.6,0.7,0.2
		c0.8-1.6,1.4-2.4,3.1-4.1c2.1-2.1,2.4-2.8,2.4-4.5c0-1-0.1-1.2-0.5-2.1c-0.6-1.2-1.3-1.8-3.5-2.9c-2.7-1.4-3.8-2.4-4.7-4.2
		c-0.8-1.8-0.8-1.3-0.8-19.6c0-9.2,0.1-16.9,0.1-16.9c0.1-0.1,4.4-0.1,9.7-0.1c8.3,0,9.8,0.1,11.1,0.3c2.1,0.4,4.1,0.8,6,1.5
		c0.9,0.3,1.7,0.5,1.7,0.5s-0.1-0.7-0.3-1.5c-0.3-1.3-0.3-1.8-0.3-5.4s0-4.1,0.3-5.4c0.2-0.8,0.3-1.5,0.3-1.5c0,0-0.8,0.2-1.7,0.5
		c-1.9,0.6-3.8,1.1-6,1.5c-1.4,0.2-2.5,0.3-11.1,0.3h-9.6v-11v-11l2.3,0c2.5,0,4.3,0.3,6.2,0.8c0.7,0.2,1.3,0.4,1.4,0.4
		c0.2,0,0.2-0.2,0.1-1.4c-0.1-2.2,0-8.3,0.1-9.4c0.1-0.5,0.1-1,0-1c-0.1,0-0.5,0.1-1,0.2c-2,0.6-3.4,0.9-6.3,0.9l-2.8,0.1l0-4.4
		l0-4.4l-1.1,0.1c-0.6,0-2.4,0.1-4.1,0.1s-3.4,0-4-0.1L96,72.6l-0.1,4.3l-0.1,4.3l-2.9,0c-3.1,0-3.7-0.1-5.9-0.8
		c-0.8-0.2-1.4-0.4-1.4-0.4c0,0,0,0.8,0.1,1.6c0.2,1.8,0.2,7.3,0,9c-0.1,0.6-0.1,1.2-0.1,1.2c0,0.1,0.4,0,0.9-0.2
		c2.3-0.8,4.9-1.2,7.8-1.1l1.5,0l0,10.8c0,8.2,0,10.9-0.1,11c-0.3,0.3-18.9,0.2-20.8-0.2c-1.9-0.3-4.5-1-6.1-1.5
		c-0.8-0.3-1.5-0.4-1.5-0.4c-0.1,0.1-0.1,0.3,0,0.5c0.9,2.3,0.9,10.6,0,12.8c-0.1,0.2-0.1,0.4,0,0.5s0.7-0.1,1.5-0.4
		c0.8-0.3,2.2-0.7,3.1-0.9c3.5-0.9,3.5-0.9,14-0.9c7.3,0,9.7,0,9.8,0.1c0.3,0.2,0.3,32.3,0,34c-0.3,1.6-1,3-2.1,4.1
		c-0.7,0.7-1.2,1-3.1,2c-2.5,1.2-3.2,1.8-3.5,2.9c-0.3,1-0.3,2.1,0,2.9c0.2,0.3,0.7,1.3,1.3,2.1c0.8,1.3,1.2,1.9,1.7,3.3
		c0.2,0.5,0.4-0.2,0.4-1.3c0-1.1,0-1.3-0.6-2.5c-0.9-2.1-0.7-3.1,0.5-3.7c1.1-0.4,2.1-0.2,2.8,0.6c1,1.1,1.1,2.3,0.4,5
		c-0.5,2-0.5,2.7,0,3.8c0.4,0.8,1.2,1.7,2.9,3.1c0.7,0.6,1.5,1.3,1.8,1.6c0.3,0.3,0.5,0.5,0.6,0.5c0.2,0,0.1-1-0.2-1.6
		c-0.1-0.3-0.7-1.1-1.2-1.6c-1.5-1.6-1.7-2.3-1.4-3.9c0.6-2.5,1.7-3.7,3.6-3.7c2.4,0,3.3,1.7,2.5,5.1c-0.4,1.7-0.3,2.2,0.6,4
		c0.6,1.2,0.7,1.6,0.8,2.4C103.7,182.1,103.9,182.2,104.3,181.4z M66.5,96.6c0.5-1.6,1-2.9,1.1-2.9c0.1,0,1.4,0.2,2.9,0.5
		c2.8,0.6,3.2,0.6,3.2,0.5c0-0.1-0.9-1.1-2-2.3c-1.1-1.2-2-2.3-2-2.4s0.9-1.2,2-2.4c1.9-2.1,2.2-2.6,1.7-2.5
		c-1.2,0.3-5.8,1.2-5.9,1.1c-0.1-0.1-0.5-1.4-1-2.9c-0.8-2.6-1-3.1-1.2-2.9c0,0-0.5,1.3-0.9,2.8c-0.5,1.5-1,2.8-1,2.9
		c-0.1,0.2-0.7,0.1-3.1-0.4c-1.6-0.3-3-0.6-3-0.5c-0.1,0.1,0.8,1.1,1.9,2.4c1.1,1.2,2,2.3,2,2.4c0,0.1-0.9,1.1-2.1,2.4
		c-1.6,1.8-2,2.3-1.8,2.3c0.2,0,1.5-0.2,3-0.5c1.5-0.3,2.8-0.6,2.9-0.6c0.1,0,0.5,1.1,1.1,2.9c0.5,1.6,1,2.9,1.1,2.9
		C65.5,99.5,66,98.2,66.5,96.6z M137.8,96.7c0.5-1.5,1-2.9,1-2.9c0.1-0.1,1.2,0.1,2.9,0.5c2.9,0.6,3.3,0.7,3.2,0.4
		c0-0.1-0.9-1.1-2-2.3c-1.1-1.2-2-2.2-2-2.3s0.9-1.1,2-2.4s2-2.3,2-2.4c0-0.1-0.1-0.1-0.2-0.1c-1.2,0.3-5.8,1.2-5.9,1.1
		c-0.1-0.1-0.5-1.4-1-2.9c-0.5-1.5-1-2.8-1-2.8c-0.1,0-0.6,1.3-1.1,2.8c-0.5,1.6-1,2.9-1.1,3c-0.1,0-1.5-0.2-3.1-0.6
		c-1.6-0.3-3-0.6-3-0.6c-0.2,0,0.3,0.6,2,2.5c1.1,1.2,2,2.3,2,2.4s-0.9,1.1-2,2.3c-1.1,1.2-2,2.3-2,2.3c0,0.2,0.5,0.1,3.2-0.5
		c1.5-0.3,2.8-0.5,2.9-0.5c0.1,0,0.6,1.4,1.1,3c0.5,1.6,1,2.9,1.1,2.8C136.8,99.5,137.3,98.2,137.8,96.7z M180.5,45.7
		c-1.4-0.7-2.6-1.3-2.7-1.3s-0.4-1.1-0.7-2.4c-0.3-1.2-0.6-2.3-0.7-2.4c-0.3-0.3-5.4-2.6-5.5-2.5c-0.2,0.1-0.3,0.5-1,2.8
		c-0.1,0.4-0.3,0.8-0.3,0.8c-0.3,0-5.5-2.4-5.5-2.6c0-0.2,6.9-18.6,7-18.8c0.1-0.1,0.8,0.2,2.9,1.2c1.5,0.8,2.8,1.4,2.8,1.5
		c0,0,1.4,5.6,3.2,12.4c1.8,6.8,3.2,12.4,3.2,12.5s0,0.2-0.1,0.2S182,46.3,180.5,45.7z M175.4,34.9c0.1-0.2-1.5-9-1.7-9.2
		c-0.2-0.2-0.2-0.4-1.1,3.9c-0.6,2.8-0.8,3.7-0.7,3.8c0.3,0.3,2.9,1.5,3.2,1.5C175.2,35,175.4,34.9,175.4,34.9z M18.7,46.5
		c0-0.2,2.4-21.9,2.6-22.8c0-0.2,0.9-0.6,3.1-1.7c1.7-0.8,3.1-1.4,3.1-1.3c0.1,0.1,2,6.7,2.6,9c0.5,1.7,0.6,2,0.8,1.5
		c0.1-0.2,0.8-3.1,1.7-6.6c0.9-3.4,1.6-6.5,1.7-6.7c0.1-0.5,0.2-0.5,3-1.8c1.6-0.7,2.9-1.3,3-1.2c0.1,0.1,2.9,20.7,2.8,20.8
		c-0.1,0.1-5,2.3-5.1,2.3c-0.2,0-0.1,0.9-0.5-6.1c-0.3-5.4-0.4-6.7-0.7-6.3c0,0.1-0.9,3.2-1.9,7.1c-1,3.8-1.9,7.1-2,7.4
		c-0.1,0.4-0.3,0.5-2,1.3c-1.1,0.5-2,0.8-2,0.8c-0.1-0.1-0.8-2.5-1.7-5.4s-1.6-5.4-1.7-5.6c-0.1-0.1-0.2-0.2-0.3-0.1
		c-0.1,0.1-0.3,3-0.6,6.6C24.3,41,24,44,23.9,44.1c-0.1,0.2-0.9,0.6-2.5,1.4C18.5,46.9,18.7,46.8,18.7,46.5z M159.2,36.6
		c-1.2-0.3-2.3-0.7-2.4-0.8c-0.1-0.1-1.5-3.2-3.1-6.9c-1.6-3.7-3-6.7-3-6.8c-0.3-0.3-0.4,0.5-0.4,6V34l-0.4-0.1
		c-0.2,0-1.3-0.4-2.4-0.7l-2-0.6l0-11c0-10.4,0-11,0.2-11c0.4,0,4.7,1.2,4.8,1.4c0.1,0.1,1.4,3.1,3,6.8c1.6,3.7,3,6.7,3,6.8
		c0.4,0.6,0.4-0.2,0.4-5.9c0-5.5,0-5.9,0.2-5.9c0.1,0,1.2,0.3,2.4,0.6l2.2,0.6l0,11.1c0,8.8,0,11.1-0.1,11.1
		C161.5,37.2,160.4,36.9,159.2,36.6z M44.7,33.9c0-0.1,0.2-1.1,0.6-2.2l0.7-2l2,0c2.2,0.1,3.5-0.1,5-0.6c1.9-0.6,3.2-2,3-3.2
		c-0.1-1.1-0.6-1.3-5.1-1.5c-2-0.1-2.9-0.2-3.3-0.4c-2.3-1-2.8-4.4-1.1-7.9c1-2.1,2.6-3.6,5-4.8c0.6-0.3,1.1-0.6,1.1-0.7
		c0-0.1-0.8-0.6-1.8-1c-1-0.5-1.8-0.9-1.8-1c0-0.2,0.7-1.9,0.9-2.1c0.1-0.1,0.5,0,1.7,0.7c0.9,0.5,1.7,0.8,1.8,0.8
		c0.1,0,0.9-0.7,1.7-1.6s1.6-1.6,1.6-1.6c0.2,0,1.5,1.1,1.5,1.3c0,0.1-0.8,1-1.7,2c-1,1.1-1.7,1.9-1.6,2c0.1,0.1,0.2,0.2,0.7,0.1
		c0.7-0.1,3.9-0.2,5.2,0c0.7,0.1,0.9,0.1,0.9,0.3c0,0.1-0.6,1-1.3,2.1c-1,1.6-1.3,1.9-1.5,1.8c-3.3-0.9-6.7,0.2-7.4,2.3
		c-0.6,1.8,0.5,2.4,4.8,2.4c3.6,0.1,4.7,0.5,5.5,2c0.8,1.5,0.6,4.2-0.4,6.3c-1.1,2.2-2.7,3.6-5.5,5c-2.6,1.2-5.2,1.8-8.8,1.8
		C45.2,34.1,44.8,34.1,44.7,33.9z M138.8,30.9l-2.5-0.7l0-11c0-6,0-11,0.1-11.1c0.1-0.1,1.2,0.2,2.6,0.6l2.5,0.6l0,11
		c0,6,0,11-0.1,11.1C141.3,31.5,140.1,31.3,138.8,30.9z M65,29.6c0-0.1,0-5.1,0-11.1l0-10.9l1.3-0.2c0.7-0.1,1.8-0.2,2.4-0.3
		l1.2-0.1v5.1c0,2.8,0.1,5.1,0.1,5.1c0.1,0,0.2,0,0.3,0c0.1-0.1,1.3-2.5,2.6-5.4c1.4-2.9,2.5-5.3,2.5-5.4c0.1-0.1,6.3-0.9,6.4-0.8
		c0,0-1.2,2.4-2.7,5.3c-1.5,2.9-2.8,5.3-2.9,5.5c-0.1,0.2,1,1.8,3.5,5.6c2.1,3.1,3.5,5.4,3.5,5.5c-0.1,0.1-1.4,0.3-2.9,0.4
		c-1.5,0.2-2.9,0.3-3.2,0.4l-0.4,0.1l-3.1-4.9c-1.7-2.7-3.1-5-3.2-5c-0.1-0.1-0.2-0.1-0.3,0c-0.1,0-0.1,2.5-0.1,5.5v5.4l-0.4,0
		c-0.2,0-1.3,0.1-2.5,0.3C65.7,29.7,65.1,29.7,65,29.6z M127.4,28.7c-3-0.4-5.8-0.9-6.1-0.9l-0.6-0.1V16.6c0-10.9,0-11.1,0.3-11.1
		c0.3,0,3.9,0.5,4.5,0.6l0.4,0.1v8.9c0,7.4,0,9,0.2,9.1c0.1,0.1,1.8,0.4,3.8,0.7l3.6,0.5v2c0,1.8,0,2-0.2,2
		C133.1,29.5,130.5,29.1,127.4,28.7z M113.8,27.2l-2.2,0V16V5h2.6h2.6v11.1v11.1l-0.4,0C116.2,27.2,115,27.2,113.8,27.2z M92.8,24.7
		v-2l4.7-6.8c2.6-3.7,4.7-6.9,4.7-7c0-0.2-0.5-0.2-4.4-0.3l-4.3,0V6.7V4.9l3.1,0c2.6,0,3.1-0.1,3.1-0.2c0-0.1-0.6-0.6-1.3-1.2
		c-0.7-0.5-1.5-1.1-1.8-1.3l-0.5-0.4l0.6-0.8c0.3-0.5,0.7-0.9,0.8-1c0.1-0.1,0.6,0.2,1.7,1c0.8,0.6,1.6,1.2,1.8,1.3
		c0.2,0.1,0.7-0.3,1.7-1.2l1.5-1.3l0.7,0.8c0.4,0.5,0.7,0.9,0.7,1s-0.8,0.8-1.7,1.5c-0.9,0.8-1.7,1.4-1.7,1.5c0,0.1,0.8,0.2,3,0.3
		l3,0.1l-0.1,1.9l-0.1,1.9l-4.3,6.5c-2.4,3.6-4.3,6.6-4.2,6.7c0.1,0.1,1.5,0.1,4.3,0.1h4.2v2.2v2.2h-7.6h-7.6V24.7z"/>
	<path id="path2403" class="st6" d="M98.4,195.5C82,183.5,68,170.3,56.9,156.4c-15-18.8-25.8-39.9-32-63c-3.4-12.6-5.4-25.3-6.4-40
		l-0.1-1.4l2.4-1.3c3.3-1.8,9.8-5,13.3-6.5c29.5-12.6,63.2-16.4,96.2-10.9c15.9,2.6,31.1,7.5,45.2,14.4c3,1.5,7.7,4,8,4.3
		c0.1,0.1,0.1,1.2-0.1,3.5c-1.3,17.9-4.8,35.5-10.3,50.7c-11.8,33.1-32.6,60.7-64,85.1c-4.1,3.2-7.8,5.9-8.1,5.9
		C101,197.3,99.8,196.5,98.4,195.5z M110.5,185.1c1.5-1.2,4.6-3.8,7-6.1c7.7-7,14.4-14,20.4-21.5c12.5-15.5,21.5-32.2,27.4-50.8
		c4.4-13.9,7.3-29.1,8.4-44.2c0.1-1.7,0.2-3.4,0.3-3.8c0.1-0.8,0.1-0.8-0.4-1.1c-0.2-0.2-1.7-1-3.3-1.8c-15-7.6-31.8-12.6-49.4-14.7
		c-6.1-0.7-10.6-1-17.3-1.2c-22.9-0.4-45.2,4-65.2,12.8c-2.7,1.2-9.9,4.8-10.1,5.1c-0.4,0.5,0.6,11.2,1.6,18.6
		c2.2,15.2,6.1,29.8,11.3,42.6c9.8,23.8,25.5,44.9,47.7,63.9c2.9,2.5,3.7,3.1,3.9,3c0,0-1.7-1.9-3.9-4.1
		c-6.7-6.8-11.1-11.9-16.4-18.9c-9.2-12.2-16.4-25.3-21.7-39.2c-5.3-13.9-9.2-29.8-11.3-46.5c-0.3-2.7-1-8.9-1-9.5v-0.4H101
		c34.4,0,62.6,0,62.6,0.1c0,0.1,0,1-0.1,2c-1.9,19.9-5.8,37.2-11.8,53.4c-5.9,15.9-14.4,30.6-25.5,44.5c-4,5.1-8.1,9.5-13.6,15.1
		c-1.9,1.9-3.5,3.6-3.5,3.6C109.2,186.1,109.4,186,110.5,185.1z M47.4,64.7c-0.8-0.2-1.3-0.7-1.5-1.4c-0.1-0.3-0.1-2.2-0.1-4.4
		l0-3.9h0.6H47l0,4c0,3.8,0.1,4.1,0.3,4.3c0.6,0.6,2,0.6,2.5,0c0.2-0.3,0.3-0.6,0.3-4.3l0.1-4l0.6,0l0.6,0l0,4.3
		c0,4.1-0.1,4.3-0.3,4.7c-0.2,0.2-0.5,0.5-0.7,0.6C49.9,64.9,48.3,65,47.4,64.7z M81.4,64.8c-0.7-0.2-1.2-0.6-1.6-1.4
		c-0.9-1.8-0.8-6.1,0.2-7.6c0.6-0.9,2.5-1.2,3.7-0.6c0.3,0.2,0.8,0.5,0.9,0.8c0.9,1.4,1,5.7,0.1,7.5c-0.3,0.6-0.5,0.8-0.9,1
		C83.2,64.9,82.1,65,81.4,64.8z M83.2,63.6c0.5-0.3,0.7-0.9,0.9-2.1c0.1-1.2,0.1-3.4-0.2-4.3c-0.5-1.8-2.6-1.8-3.1,0.1
		c-0.3,1-0.3,4.1,0,5.1C81.1,63.8,82.2,64.3,83.2,63.6z M119.1,64.8c-0.8-0.2-1.3-0.6-1.6-1.2c-0.2-0.5-0.3-0.9-0.3-4.6v-4l0.6,0
		l0.6,0l0,3.7c0,2.1,0.1,3.9,0.1,4.2c0.2,0.7,0.7,1,1.5,1c0.8,0,1.3-0.3,1.5-0.9c0.1-0.3,0.2-1.9,0.2-4.2V55h0.6h0.6v4.1
		c0,3.8,0,4.2-0.3,4.7c-0.2,0.3-0.5,0.6-0.8,0.8C121.3,64.9,119.8,65,119.1,64.8z M151.4,64.8c-0.6-0.1-1.1-0.6-1.5-1.4
		c-0.3-0.8-0.5-4-0.3-5.8c0.2-2,0.9-2.7,2.6-2.7c1,0,1.7,0.4,2.2,1.1c0.3,0.6,0.4,0.7,0.4,3.4c0,1.8,0,3.1-0.1,3.5
		C154.4,64.5,153.1,65.2,151.4,64.8z M152.9,63.8c0.6-0.4,0.7-1.1,0.7-4c0-2.3,0-2.8-0.3-3.2c-0.5-1-1.6-1-2,0
		c-0.3,0.7-0.4,4.7-0.2,6C151.3,63.8,152.1,64.3,152.9,63.8z M158.7,64.7c-0.9-0.3-1.3-0.8-1.5-1.8c-0.2-1.5,0.1-2.8,0.8-3.1
		c0.4-0.2,0.5-0.5,0-0.7c-0.5-0.3-0.7-0.7-0.8-1.6c-0.2-1.8,0.6-2.6,2.4-2.6c1.6,0,2.2,0.5,2.5,1.7c0.2,0.9,0,1.8-0.6,2.3
		c-0.3,0.2-0.5,0.5-0.5,0.6s0.2,0.3,0.4,0.4c0.6,0.3,0.8,0.9,0.8,2.3c0,1.4-0.3,2-1,2.4C160.7,64.9,159.5,65,158.7,64.7z
		 M160.7,63.6c0.3-0.3,0.3-0.5,0.4-1.4c0-0.8,0-1.2-0.2-1.6c-0.3-0.6-0.9-0.8-1.5-0.5c-0.6,0.3-0.8,0.7-0.8,2c0,1,0,1.1,0.4,1.5
		C159.4,64.1,160.2,64.1,160.7,63.6z M160.6,58.8c0.3-0.2,0.5-1.2,0.4-1.8c-0.2-1.1-1.3-1.6-2-0.9c-0.6,0.7-0.5,2.3,0.2,2.8
		C159.5,59.1,160.3,59,160.6,58.8z M39.8,59.9V55h2.2h2.2v0.4v0.4h-1.4c-1,0-1.4,0.1-1.5,0.2c-0.1,0.1-0.1,0.7-0.1,1.6l0,1.5l1.4,0
		l1.4,0l0,0.5l0,0.5l-1.3,0.1l-1.3,0.1l0,2.3l0,2.3h-0.6h-0.6V59.9z M55.1,64.6c0-0.1-0.1-2.1-0.1-4.4l0-4.2L54,56l-1-0.1l0-0.5
		l0-0.5l2.8,0l2.8,0v0.4v0.4l-1,0c-0.6,0-1,0.1-1.1,0.2c-0.1,0.1-0.1,2.1-0.1,4.4l0,4.2h-0.6C55.4,64.8,55.1,64.7,55.1,64.6z
		 M59.5,59.9V55H61c1.7,0,2.4,0.2,3,0.7c0.4,0.4,0.4,0.5,0.4,1.6l0,1.2l-0.6,0.6c-0.3,0.3-0.6,0.6-0.6,0.7c0,0,0.2,0.2,0.4,0.3
		c0.7,0.4,0.9,0.9,0.9,2c0,2.1-0.9,2.7-3.8,2.7h-1.3V59.9z M62.7,63.4c0.8-0.6,0.8-2.2,0-2.9c-0.4-0.3-0.5-0.4-1.2-0.3l-0.7,0l0,1.7
		c0,1.2,0,1.7,0.1,1.8C61.2,63.9,62.3,63.7,62.7,63.4z M62.6,59c0.8-0.5,0.9-2,0.2-2.6c-0.3-0.3-1.4-0.6-1.8-0.4
		c-0.2,0.1-0.2,0.3-0.2,1.7c0,1.1,0,1.6,0.2,1.7C61.2,59.4,62.2,59.2,62.6,59z M65.6,64.7c-0.1-0.1,2.2-8.8,2.5-9.5
		c0.1-0.2,0.3-0.2,0.7-0.2c0.3,0,0.6,0,0.6,0.1c0,0,0.6,2.2,1.3,4.8c0.7,2.6,1.3,4.8,1.3,4.8c0,0-0.3,0.1-0.6,0.1h-0.6l-0.3-1
		l-0.3-1h-1.3c-0.9,0-1.4,0.1-1.4,0.2c-0.1,0.1-0.2,0.5-0.3,0.9c-0.2,0.8-0.2,0.8-0.8,0.8C66,64.8,65.7,64.8,65.6,64.7z M69.7,61.8
		c0.1-0.2,0.1-0.6-0.3-2.1c-0.2-1-0.5-1.9-0.6-2c-0.2-0.1-0.4,0.3-0.8,1.9c-0.4,1.6-0.4,2.2-0.3,2.3C68.1,62.1,69.6,62,69.7,61.8z
		 M74,64.6c0-0.1-0.1-2.3,0-4.9l0-4.7l0.6,0l0.6,0v4.1c0,2.6,0.1,4.3,0.1,4.4c0.1,0.2,0.3,0.3,1.7,0.3h1.5v0.5v0.5h-2.2
		C74.6,64.8,74,64.8,74,64.6z M88.5,64.3c-0.5-1.7-2.3-9-2.3-9.1c0-0.1,0.3-0.1,0.6-0.1h0.6l0.4,1.9c0.9,3.9,1.1,4.4,1.3,4.4
		c0.1,0,0.3-0.3,0.4-0.7c0.1-0.4,0.4-1.8,0.8-3.2l0.6-2.5h0.6c0.3,0,0.6,0,0.6,0.1s-0.5,2.2-1.2,4.9l-1.2,4.8h-0.5
		C88.7,64.8,88.6,64.8,88.5,64.3z M95.6,62.7v-2.1l-1-2.4c-1.3-3.4-1.3-3.1-0.5-3.1c0.8,0,0.7,0,1.5,2.2c0.3,0.9,0.6,1.6,0.7,1.6
		c0.1,0,0.5-0.9,0.8-1.9l0.7-1.9l0.7,0l0.7,0L99,55.7c-0.1,0.4-0.7,1.7-1.1,2.9L97,60.7v2v2h-0.7h-0.7V62.7z M104.2,59.9V55h0.6h0.6
		l0,2.1c0,1.4,0.1,2.1,0.2,2.2c0.1,0,0.7-0.9,1.4-2.1l1.2-2.2h0.6c0.7,0,0.8-0.2-0.7,2.4c-0.6,1.1-1.1,2.1-1.1,2.3
		c0,0.2,0.5,1.3,1.2,2.6c0.7,1.3,1.2,2.3,1.2,2.4c0,0.1-0.3,0.2-0.6,0.2h-0.6l-1.2-2.4c-0.7-1.5-1.3-2.4-1.4-2.4
		c-0.2,0-0.2,0.4-0.2,2.4v2.4h-0.6h-0.6V59.9z M111.3,64.6c0-0.1-0.1-2.3,0-4.9l0-4.7l0.6,0l0.6,0v4.1c0,2.6,0.1,4.3,0.1,4.4
		c0.1,0.2,0.3,0.3,1.7,0.3h1.5v0.5v0.5h-2.2C111.9,64.8,111.3,64.8,111.3,64.6z M125.2,59.9V55l1.8,0c1.6,0,1.9,0.1,2.3,0.4
		c0.6,0.4,0.9,1,0.9,2.1c0,0.9-0.2,1.4-0.8,1.9l-0.4,0.4l0.6,0.5c1.3,1,1.1,3.4-0.4,4.3c-0.4,0.2-0.8,0.3-2.2,0.3l-1.7,0.1V59.9z
		 M127.9,63.7c0.8-0.2,1.2-0.7,1.2-1.7c0-1.3-0.6-1.9-1.9-1.8l-0.6,0l0,1.7C126.4,63.9,126.5,64.1,127.9,63.7z M127.6,59.2
		c1.1-0.2,1.6-1.2,1.2-2.3c-0.2-0.6-0.5-0.9-1.3-1c-1-0.2-1.1-0.1-1.1,1.7C126.5,59.4,126.5,59.5,127.6,59.2z M138.2,64.7
		c-0.1-0.1-0.1-2-0.1-4.4V56l-0.3-0.1c-0.2,0-0.5-0.1-0.7-0.1c-0.3,0-0.4-0.1-0.4-0.4c0-0.3,0-0.4,1.4-0.4l1.4,0v4.9v4.9h-0.5
		C138.5,64.8,138.2,64.8,138.2,64.7z M143.5,64.6c0.1-0.1,0.3-0.5,0.6-0.9c1-1.5,1.7-2.7,1.6-2.8c0-0.1-0.5-0.1-1,0
		c-1.8,0.1-2.4-0.5-2.4-2.8c0-1.2,0-1.5,0.3-2c0.5-0.8,1-1.1,2.3-1.1c1.7,0,2.4,0.8,2.5,2.9c0.1,2-0.5,3.8-2.1,6.2l-0.6,0.9h-0.7
		C143.6,64.8,143.4,64.8,143.5,64.6z M145.8,59.6c0.7-0.7,0.7-2.6,0.1-3.4c-0.6-0.8-1.6-0.6-2,0.3c-0.5,1-0.2,3,0.4,3.3
		C144.7,60.2,145.4,60.1,145.8,59.6z M96.2,53.8c-0.1-0.1,0-0.4,0.5-0.9l0.7-0.8l0.4,0.3c0.2,0.2,0.4,0.3,0.4,0.4
		c0,0.1-1.5,1.2-1.7,1.2C96.4,54,96.3,53.9,96.2,53.8z M104.1,181.9c0.4-0.4,0.7-1.2,0.7-1.9c0-0.3-0.1-1.3-0.3-2.1
		c-0.4-2-0.3-2.5,0.6-4.1c1-1.7,1.1-2.2,1.3-4.1c0.1-1.9,0.4-2.5,1.1-3c0.7-0.4,1.9-0.4,2.9,0.2c1.1,0.6,1.4,1,1.4,2.1
		c0,0.9-0.2,1.5-1.2,3.2c-0.3,0.5-0.6,1.3-0.8,2c-0.3,1.4-0.4,3.4-0.1,3.3c0.1,0,0.5-0.6,0.9-1.3c1-1.8,1.8-2.9,3-4
		c1.9-1.7,2.6-3.2,2.5-4.9c-0.2-2-1.2-3.2-4.3-4.8c-2.2-1.1-3.2-1.9-3.9-3.1c-0.6-1-1.1-2.5-1.2-4.1c-0.1-0.7-0.1-8.5,0-17.3l0.1-16
		l9.5,0c8.4,0,9.6,0,11,0.3c2.1,0.3,4.5,0.9,6.3,1.6c0.8,0.3,1.5,0.5,1.6,0.5c0.2,0,0.1-0.3-0.2-2.1c-0.2-1-0.3-1.9-0.3-5
		s0-4.1,0.3-5c0.4-1.8,0.4-2.1,0.2-2.1c-0.1,0-0.8,0.2-1.6,0.5c-1.8,0.6-4.2,1.2-6.3,1.6c-1.4,0.2-2.6,0.3-11,0.3l-9.5,0l0-10.9
		l0-10.9l1.2,0c2.8,0,6.2,0.5,8,1.1c0.5,0.2,0.8,0.2,0.9,0.1c0.1-0.1,0.1-0.7,0-2c-0.2-2.9-0.1-7.9,0.2-9.6c0.1-0.6-0.2-0.6-1.5-0.2
		c-1.9,0.6-3.3,0.8-6.1,0.9l-2.6,0.1V77c0-3.4,0-4.3-0.2-4.4c-0.1-0.1-0.6-0.1-1.8,0c-1.3,0.1-4.8,0.1-8.1-0.1l-0.5,0l-0.1,4.3
		l-0.1,4.3l-2.2,0c-2.6,0-4.4-0.2-6.3-0.8c-1.8-0.6-1.8-0.6-1.7,0.3c0.2,1.7,0.3,8.2,0.1,9.7c-0.1,0.9-0.1,1.6,0,1.7
		c0.1,0.1,0.6-0.1,1.4-0.3c1.9-0.6,3.5-0.9,6.4-0.9l2.5,0v10.9v10.9h-9.5c-8.4,0-9.6,0-11.1-0.3c-2.2-0.3-4.2-0.8-6.3-1.5
		c-0.9-0.3-1.8-0.5-1.8-0.5c0,0,0,0.5,0.1,1c0.8,3.4,0.8,8.6,0.1,11.9c-0.2,0.7-0.2,1.3-0.2,1.3c0,0,0.9-0.2,1.8-0.5
		c2.1-0.7,4.1-1.2,6.3-1.5c1.4-0.2,2.7-0.3,11.1-0.3l9.5,0v16.7c0,18.3,0,17.4-0.9,19.3c-0.7,1.6-1.9,2.6-4.4,3.8
		c-1.1,0.5-2.2,1.2-2.6,1.4c-1.3,1.1-1.7,3.1-1,4.7c0.2,0.4,0.8,1.4,1.3,2.3c0.6,0.9,1.1,1.9,1.3,2.5c0.3,1,0.6,1.3,0.8,0.7
		c0.3-1.5,0.2-2.5-0.5-4.2c-0.8-1.8-0.6-2.8,0.6-3.3c1.5-0.6,2.9,0.2,3.4,1.9c0.3,0.9,0.2,1.2-0.4,3.5c-0.5,2-0.5,2.8-0.1,3.7
		c0.5,1,1.2,1.7,3,3.2c0.9,0.7,1.8,1.5,2.1,1.8c0.5,0.6,0.7,0.5,0.7-0.2c0-1-0.3-1.6-1.5-2.9c-0.9-1-1.2-1.4-1.4-2
		c-0.2-0.7-0.2-0.9,0-1.8c0.3-1.4,1-2.7,1.8-3.2c0.5-0.4,0.7-0.4,1.7-0.4c1.3,0,1.9,0.3,2.4,1.2c0.3,0.7,0.3,2.6,0,3.9
		c-0.4,1.4-0.2,2.1,0.6,3.8c0.6,1.1,0.7,1.6,0.8,2.4C103.6,182.3,103.6,182.4,104.1,181.9z M66.6,96.8c0.5-1.6,1-2.9,1.1-3
		c0,0,1.4,0.2,3.1,0.5c1.6,0.3,3,0.6,3.1,0.6c0.1,0,0.1-0.1,0.1-0.2s-0.9-1.1-2-2.4c-1.1-1.2-2-2.3-2-2.4c0-0.1,0.9-1.2,2-2.4
		c1.1-1.2,2-2.3,2-2.4c0-0.3-0.5-0.2-3.3,0.4c-1.6,0.3-3,0.6-3,0.6s-0.5-1.4-1.1-3c-0.7-2-1-2.9-1.2-2.9c-0.1,0-0.5,0.9-1.1,2.9
		c-0.5,1.6-1,2.9-1,3c0,0-1.4-0.2-3-0.6c-1.6-0.3-3-0.6-3.1-0.6c-0.4,0,0.1,0.7,1.9,2.7c1.1,1.2,2,2.3,2,2.3c0,0-0.9,1.1-2,2.3
		s-2,2.4-2,2.5c0,0.1,0,0.2,0.1,0.2c0,0,1.4-0.3,3-0.6c1.6-0.3,3-0.6,3.1-0.6c0.1,0,0.5,1.3,1,2.9c0.5,1.6,1,3,1,3
		C65.4,100.1,65.7,99.5,66.6,96.8z M137.9,96.8c0.5-1.6,1-3,1-3c0,0,1.4,0.2,3.1,0.6c2,0.4,3.1,0.6,3.2,0.5c0.2-0.2,0.3,0-2.2-2.8
		c-1-1.1-1.8-2.1-1.8-2.2s0.7-1,1.6-1.9c2.6-2.9,2.5-2.8,2.4-3c-0.1-0.1-1,0-3.1,0.5c-1.6,0.4-3,0.6-3.1,0.5c-0.1-0.1-0.5-1.4-1.1-3
		c-0.6-2-1-2.9-1.1-2.9c-0.1,0-0.5,0.9-1.1,2.8c-0.5,1.5-1,2.9-1,3c-0.1,0.1-0.8,0-3.1-0.5c-2-0.4-3.1-0.6-3.2-0.5
		c-0.1,0.1,0.1,0.4,2.9,3.5c0.6,0.7,1.1,1.3,1.1,1.4s-0.6,0.8-1.3,1.6c-2.6,2.8-2.8,3.2-2.7,3.3c0.1,0.1,1.2-0.1,3.1-0.5
		c1.6-0.3,3-0.6,3.1-0.6s0.5,1.2,1,2.7c1.1,3.4,1.1,3.4,1.3,3.3C136.8,99.8,137.3,98.4,137.9,96.8z M180.5,45.7
		c-1.4-0.7-2.6-1.3-2.7-1.3s-0.4-1.1-0.7-2.4c-0.3-1.2-0.6-2.3-0.7-2.4c-0.3-0.3-5.4-2.6-5.5-2.5c-0.2,0.1-0.3,0.5-1,2.8
		c-0.1,0.4-0.3,0.8-0.3,0.8c-0.3,0-5.5-2.4-5.5-2.6c0-0.2,6.9-18.6,7-18.8c0.1-0.1,0.8,0.2,2.9,1.2c1.5,0.8,2.8,1.4,2.8,1.5
		c0,0,1.4,5.6,3.2,12.4c1.8,6.8,3.2,12.4,3.2,12.5s0,0.2-0.1,0.2S182,46.3,180.5,45.7z M175.4,34.9c0.1-0.2-1.5-9-1.7-9.2
		c-0.2-0.2-0.2-0.4-1.1,3.9c-0.6,2.8-0.8,3.7-0.7,3.8c0.3,0.3,2.9,1.5,3.2,1.5C175.2,35,175.4,34.9,175.4,34.9z M18.7,46.5
		c0-0.2,2.4-21.9,2.6-22.8c0-0.2,0.9-0.6,3.1-1.7c1.7-0.8,3.1-1.4,3.1-1.3c0.1,0.1,2,6.7,2.6,9c0.5,1.7,0.6,2,0.8,1.5
		c0.1-0.2,0.8-3.1,1.7-6.6c0.9-3.4,1.6-6.5,1.7-6.7c0.1-0.5,0.2-0.5,3-1.8c1.6-0.7,2.9-1.3,3-1.2c0.1,0.1,2.9,20.7,2.8,20.8
		c-0.1,0.1-5,2.3-5.1,2.3c-0.2,0-0.1,0.9-0.5-6.1c-0.3-5.4-0.4-6.7-0.7-6.3c0,0.1-0.9,3.2-1.9,7.1c-1,3.8-1.9,7.1-2,7.4
		c-0.1,0.4-0.3,0.5-2,1.3c-1.1,0.5-2,0.8-2,0.8c-0.1-0.1-0.8-2.5-1.7-5.4s-1.6-5.4-1.7-5.6c-0.1-0.1-0.2-0.2-0.3-0.1
		c-0.1,0.1-0.3,3-0.6,6.6C24.3,41,24,44,23.9,44.1c-0.1,0.2-0.9,0.6-2.5,1.4C18.5,46.9,18.7,46.8,18.7,46.5z M159.2,36.6
		c-1.2-0.3-2.3-0.7-2.4-0.8c-0.1-0.1-1.5-3.2-3.1-6.9c-1.6-3.7-3-6.7-3-6.8c-0.3-0.3-0.4,0.5-0.4,6V34l-0.4-0.1
		c-0.2,0-1.3-0.4-2.4-0.7l-2-0.6l0-11c0-10.4,0-11,0.2-11c0.4,0,4.7,1.2,4.8,1.4c0.1,0.1,1.4,3.1,3,6.8c1.6,3.7,3,6.7,3,6.8
		c0.4,0.6,0.4-0.2,0.4-5.9c0-5.5,0-5.9,0.2-5.9c0.1,0,1.2,0.3,2.4,0.6l2.2,0.6l0,11.1c0,8.8,0,11.1-0.1,11.1
		C161.5,37.2,160.4,36.9,159.2,36.6z M44.7,33.9c0-0.1,0.2-1.1,0.6-2.2l0.7-2l2,0c2.2,0.1,3.5-0.1,5-0.6c1.9-0.6,3.2-2,3-3.2
		c-0.1-1.1-0.6-1.3-5.1-1.5c-2-0.1-2.9-0.2-3.3-0.4c-2.3-1-2.8-4.4-1.1-7.9c1-2.1,2.6-3.6,5-4.8c0.6-0.3,1.1-0.6,1.1-0.7
		c0-0.1-0.8-0.6-1.8-1c-1-0.5-1.8-0.9-1.8-1c0-0.2,0.7-1.9,0.9-2.1c0.1-0.1,0.5,0,1.7,0.7c0.9,0.5,1.7,0.8,1.8,0.8
		c0.1,0,0.9-0.7,1.7-1.6s1.6-1.6,1.6-1.6c0.2,0,1.5,1.1,1.5,1.3c0,0.1-0.8,1-1.7,2c-1,1.1-1.7,1.9-1.6,2c0.1,0.1,0.2,0.2,0.7,0.1
		c0.7-0.1,3.9-0.2,5.2,0c0.7,0.1,0.9,0.1,0.9,0.3c0,0.1-0.6,1-1.3,2.1c-1,1.6-1.3,1.9-1.5,1.8c-3.3-0.9-6.7,0.2-7.4,2.3
		c-0.6,1.8,0.5,2.4,4.8,2.4c3.6,0.1,4.7,0.5,5.5,2c0.8,1.5,0.6,4.2-0.4,6.3c-1.1,2.2-2.7,3.6-5.5,5c-2.6,1.2-5.2,1.8-8.8,1.8
		C45.2,34.1,44.8,34.1,44.7,33.9z M138.8,30.9l-2.5-0.7l0-11c0-6,0-11,0.1-11.1c0.1-0.1,1.2,0.2,2.6,0.6l2.5,0.6l0,11
		c0,6,0,11-0.1,11.1C141.3,31.5,140.1,31.3,138.8,30.9z M65,29.6c0-0.1,0-5.1,0-11.1l0-10.9l1.3-0.2c0.7-0.1,1.8-0.2,2.4-0.3
		l1.2-0.1v5.1c0,2.8,0.1,5.1,0.1,5.1c0.1,0,0.2,0,0.3,0c0.1-0.1,1.3-2.5,2.6-5.4c1.4-2.9,2.5-5.3,2.5-5.4c0.1-0.1,6.3-0.9,6.4-0.8
		c0,0-1.2,2.4-2.7,5.3c-1.5,2.9-2.8,5.3-2.9,5.5c-0.1,0.2,1,1.8,3.5,5.6c2.1,3.1,3.5,5.4,3.5,5.5c-0.1,0.1-1.4,0.3-2.9,0.4
		c-1.5,0.2-2.9,0.3-3.2,0.4l-0.4,0.1l-3.1-4.9c-1.7-2.7-3.1-5-3.2-5c-0.1-0.1-0.2-0.1-0.3,0c-0.1,0-0.1,2.5-0.1,5.5v5.4l-0.4,0
		c-0.2,0-1.3,0.1-2.5,0.3C65.7,29.7,65.1,29.7,65,29.6z M127.4,28.7c-3-0.4-5.8-0.9-6.1-0.9l-0.6-0.1V16.6c0-10.9,0-11.1,0.3-11.1
		c0.3,0,3.9,0.5,4.5,0.6l0.4,0.1v8.9c0,7.4,0,9,0.2,9.1c0.1,0.1,1.8,0.4,3.8,0.7l3.6,0.5v2c0,1.8,0,2-0.2,2
		C133.1,29.5,130.5,29.1,127.4,28.7z M113.8,27.2l-2.2,0V16V5h2.6h2.6v11.1v11.1l-0.4,0C116.2,27.2,115,27.2,113.8,27.2z M92.8,24.7
		v-2l4.7-6.8c2.6-3.7,4.7-6.9,4.7-7c0-0.2-0.5-0.2-4.4-0.3l-4.3,0V6.7V4.9l3.1,0c2.6,0,3.1-0.1,3.1-0.2c0-0.1-0.6-0.6-1.3-1.2
		c-0.7-0.5-1.5-1.1-1.8-1.3l-0.5-0.4l0.6-0.8c0.3-0.5,0.7-0.9,0.8-1c0.1-0.1,0.6,0.2,1.7,1c0.8,0.6,1.6,1.2,1.8,1.3
		c0.2,0.1,0.7-0.3,1.7-1.2l1.5-1.3l0.7,0.8c0.4,0.5,0.7,0.9,0.7,1s-0.8,0.8-1.7,1.5c-0.9,0.8-1.7,1.4-1.7,1.5c0,0.1,0.8,0.2,3,0.3
		l3,0.1l-0.1,1.9l-0.1,1.9l-4.3,6.5c-2.4,3.6-4.3,6.6-4.2,6.7c0.1,0.1,1.5,0.1,4.3,0.1h4.2v2.2v2.2h-7.6h-7.6V24.7z"/>
	<path id="path2401" class="st7" d="M100.5,196.8c-0.2-0.2-1.8-1.4-3.6-2.7c-5.4-4-11.4-8.9-16.4-13.3c-6.8-6-14.2-13.5-19.8-20.1
		c-23.4-27.3-37-59.3-41.2-97c-0.3-3.1-0.8-8.7-0.9-10.4l0-1.3l1.7-1c0.9-0.5,3.5-1.9,5.8-3c29.1-14.5,64.2-20.1,98.5-15.5
		c20.1,2.7,39.6,8.9,56.2,18l2.6,1.4l0,0.6c0,1.7-0.8,9.9-1.3,14.5c-6.4,50.5-30,90.6-73.1,124.1c-3.6,2.8-7.8,5.9-8,5.9
		C101,197.2,100.7,197,100.5,196.8z M93.1,186c0-0.1-1.5-1.6-3.3-3.5c-13-13-22.3-25.5-30.4-40.3c-9.9-18.1-16.6-40-19.8-64.6
		c-0.5-4.2-1.2-10.2-1.1-10.4c0-0.1,24.6-0.1,62.6-0.1h62.5l-0.1,1.2c-0.2,2.3-0.9,8.8-1.4,12.2c-3.1,21.4-9,41.2-17,57.2
		c-8.2,16.3-18.3,30.1-32.5,44.4c-2,2.1-3.7,3.8-3.6,3.8c0.2,0.2,0.7-0.2,2.8-1.9c17-14.2,30.5-30,40.6-47.5
		c9.1-15.9,15.7-34.8,19.1-55.1c1.2-6.9,2.1-15.1,2.5-22.2l0.1-1.5l-0.4-0.3c-0.6-0.5-6.2-3.2-9-4.5C147.9,45.5,129,41,109.1,40
		c-3.5-0.2-12.6-0.2-16.1,0c-19.9,1-38.8,5.5-55.5,13c-3.3,1.5-9.2,4.5-9.4,4.8c-0.3,0.5,0.7,11.8,1.7,18.4c5,35.3,18,63.6,40.8,89
		c5.4,6,17,17,21.4,20.3C92.9,186.1,93.1,186.2,93.1,186z M39.8,64.6c0-0.1-0.1-2.3,0-4.9l0-4.7h2.1H44v0.4c0,0.3,0,0.4-1.5,0.4
		l-1.5,0.1l0,1.6l0,1.6l1.4,0l1.4,0l0,0.4l0,0.4l-1.4,0l-1.4,0L41,62.4l-0.1,2.3l-0.5,0C40.1,64.8,39.9,64.8,39.8,64.6z M47,64.6
		c-1.2-0.6-1.3-1.3-1.2-6.3l0-3.2h0.6H47l0.1,4.1c0.1,4.1,0.1,4.1,0.4,4.4c0.7,0.6,2,0.5,2.6-0.1l0.3-0.4l0-4.1l0-4.1l0.5,0l0.5,0
		v4.1c0,4.1,0,4.1-0.3,4.6c-0.4,0.7-1.1,1-2.5,1C47.9,64.8,47.4,64.7,47,64.6z M55.3,64.7c-0.1-0.1-0.1-2-0.1-4.3
		c0-3.3,0-4.3-0.2-4.4c-0.1-0.1-0.6-0.2-1.1-0.2c-0.9,0-0.9-0.1-0.9-0.4v-0.4l2.7,0l2.7,0v0.4v0.4h-0.9c-0.6,0-0.9,0.1-1,0.2
		c-0.1,0.1-0.2,1.6-0.2,4.4l0,4.3l-0.4,0C55.6,64.8,55.3,64.8,55.3,64.7z M59.6,64.6c0-0.1-0.1-2.3,0-4.9l0-4.7h1.5
		c1.9,0,2.6,0.2,3,1.1c0.5,1.1,0.3,2.6-0.6,3.2c-0.5,0.4-0.4,0.6,0.2,0.9c0.5,0.2,0.8,0.9,0.8,1.9c0,1.1-0.4,1.9-1.2,2.3
		C62.6,64.8,59.7,65,59.6,64.6z M62.5,63.6c1.1-0.5,1.2-2.5,0.2-3.2c-0.5-0.3-1.6-0.4-1.9-0.2c-0.3,0.2-0.3,3.2,0,3.5
		C61,63.9,61.9,63.9,62.5,63.6z M62.4,59.1c1-0.4,1.2-2.1,0.5-2.8c-0.4-0.4-1.6-0.6-2-0.3c-0.3,0.2-0.3,2.9,0,3.2
		C61,59.4,61.8,59.4,62.4,59.1z M65.8,64.7c-0.1-0.1,1.8-7.6,2.4-9.4c0.1-0.2,0.2-0.2,0.7-0.2l0.6,0l1.2,4.6
		c0.7,2.5,1.2,4.7,1.2,4.8c0,0.2-0.3,0.4-0.7,0.3c-0.3-0.1-0.4-0.2-0.5-0.8c-0.3-1.2-0.4-1.3-1.8-1.3c-0.8,0-1.3,0.1-1.4,0.2
		c-0.1,0.1-0.2,0.6-0.4,1c-0.3,0.8-0.3,0.8-0.7,0.9C66,64.8,65.8,64.8,65.8,64.7z M69.8,61.6c0-0.3-0.6-3.4-0.8-3.9
		c-0.1-0.2-0.2-0.2-0.3-0.1c-0.2,0.2-1.1,3.8-1,4.1C67.8,62,68,62,68.8,62C69.7,61.9,69.8,61.9,69.8,61.6z M74.2,64.7
		c-0.1-0.1-0.1-2.3-0.1-4.9V55l0.5,0l0.5,0l0.1,4.3l0.1,4.3l1.6,0.1l1.6,0.1v0.4v0.4l-2.1,0C75.2,64.8,74.2,64.8,74.2,64.7z
		 M81.1,64.6c-1.3-0.5-1.8-2-1.8-4.8c0-3.3,0.8-4.7,2.6-5c1.4-0.2,2.6,0.5,3,1.7c0.5,1.5,0.5,4.6,0.1,6.2c-0.4,1.4-1.2,2-2.7,2
		C81.8,64.8,81.3,64.7,81.1,64.6z M83.4,63.5c0.6-0.5,0.7-1.1,0.7-3.6c0-3.3-0.3-4.1-1.8-4.1c-0.8,0-1.4,0.5-1.6,1.4
		c-0.2,0.8-0.2,4.3,0,5.1c0.2,0.7,0.6,1.3,1.1,1.5C82.2,64,83,63.9,83.4,63.5z M88.7,64.7c0-0.1-0.6-2.2-1.3-4.8
		c-1.3-5-1.2-4.9-0.4-4.8c0.4,0,0.4,0,1.1,3.2c0.4,1.7,0.8,3.2,0.8,3.3c0.3,0.3,0.5-0.3,1.2-3.2l0.7-3.1l0.5,0c0.4,0,0.5,0,0.5,0.2
		c0,0.5-2.3,9.4-2.4,9.5C89.4,64.8,88.8,64.8,88.7,64.7z M95.7,64.7c-0.1-0.1-0.1-1.1-0.1-2.2v-2.1l-1-2.5c-0.5-1.4-1-2.6-1-2.7
		c0-0.1,0.2-0.2,0.6-0.1l0.6,0l0.7,2c0.4,1.1,0.7,2,0.9,2c0.1,0,0.3-0.5,0.7-1.4c0.3-0.8,0.6-1.7,0.7-2C98,55,98,55,98.6,55
		c0.3,0,0.6,0,0.6,0.1c0,0.1-0.5,1.2-1,2.6l-1,2.5L97,62.5L97,64.7l-0.6,0C96.1,64.8,95.8,64.8,95.7,64.7z M104.3,64.6
		c0-0.1-0.1-2.3,0-4.9l0-4.7h0.6h0.6l0,2.2c0,1.9,0.1,2.2,0.3,2.2c0.1,0,0.8-1,1.4-2.2c1.2-2.1,1.2-2.2,1.7-2.2c0.3,0,0.5,0,0.5,0.1
		c0,0.1-0.5,1.1-1.2,2.3c-0.7,1.2-1.2,2.2-1.2,2.3c0,0.1,0.6,1.2,1.3,2.6c0.7,1.3,1.2,2.5,1.2,2.5c-0.2,0.2-0.9,0.1-1.1-0.1
		c-0.1-0.1-0.7-1.2-1.3-2.5c-0.7-1.4-1.2-2.2-1.3-2.2c-0.2,0-0.2,0.4-0.2,2.4l0,2.4l-0.5,0C104.5,64.8,104.3,64.8,104.3,64.6z
		 M111.4,64.7c-0.1-0.1-0.1-2.3-0.1-4.9V55l0.5,0l0.5,0l0.1,4.3l0.1,4.3l1.6,0.1l1.6,0.1v0.4v0.4l-2.1,0
		C112.5,64.8,111.5,64.8,111.4,64.7z M118.5,64.5c-0.5-0.2-0.7-0.4-0.9-0.9c-0.2-0.5-0.3-0.9-0.3-4.6l0-4l0.5,0l0.5,0l0.1,4l0.1,4
		l0.4,0.4c0.3,0.3,0.5,0.4,1.2,0.4s0.9-0.1,1.2-0.4l0.4-0.4l0.1-4l0.1-4h0.5h0.5l0,4c0,3.7,0,4-0.2,4.6c-0.2,0.5-0.4,0.7-0.9,0.9
		C121,64.9,119.3,64.9,118.5,64.5z M125.3,64.6c0-0.1-0.1-2.3,0-4.9l0-4.7l1.4,0c2.5-0.1,3.3,0.5,3.4,2.2c0.1,1.1-0.2,1.7-0.7,2.1
		c-0.5,0.3-0.4,0.5,0.1,0.9c0.6,0.4,0.8,0.8,0.8,1.9c0,1.2-0.4,1.9-1.2,2.3C128.2,64.8,125.4,64.9,125.3,64.6z M128.3,63.6
		c0.7-0.3,0.9-0.8,0.8-1.8c0-0.7-0.1-0.9-0.5-1.2c-0.3-0.3-0.7-0.4-1.1-0.5c-1-0.2-1.1-0.1-1.1,1.8c0,1,0,1.6,0.1,1.8
		C126.7,63.9,127.7,63.9,128.3,63.6z M128.1,59.1c0.7-0.3,0.9-0.7,0.9-1.5c0-1.2-0.6-1.8-1.8-1.8c-0.8,0-0.8,0.2-0.8,1.8
		c0,0.9,0.1,1.5,0.2,1.6C126.7,59.4,127.5,59.4,128.1,59.1z M138.3,64.7c-0.1-0.1-0.1-2-0.1-4.3c0-3.1,0-4.3-0.2-4.4
		c-0.1-0.1-0.4-0.2-0.8-0.2c-0.6,0-0.6,0-0.6-0.4V55l1.3,0l1.3,0v4.8v4.8l-0.4,0C138.6,64.8,138.4,64.8,138.3,64.7z M143.6,64.7
		c0-0.1,0.4-0.9,1-1.8c1.1-1.7,1.3-2.3,0.8-2.2c-1.6,0.3-2.3,0.1-2.7-0.8c-0.4-0.9-0.4-2.9,0-3.7c0.4-0.8,0.8-1.1,1.7-1.2
		c0.9-0.1,1.6,0,2.2,0.5c1,0.9,1.2,3,0.4,5.1c-0.4,1-1.7,3.6-2.1,4C144.6,64.8,143.8,64.9,143.6,64.7z M145.7,59.9
		c0.6-0.3,0.9-2.2,0.5-3.3c-0.5-1.1-1.9-1.3-2.4-0.2c-0.5,0.9-0.2,3.3,0.4,3.6C144.5,60.1,145.4,60,145.7,59.9z M151,64.6
		c-0.8-0.4-1.1-1.2-1.3-3c-0.2-1.9,0-4.6,0.3-5.3c0.5-1.3,2.1-1.8,3.5-1.1c0.5,0.2,0.7,0.5,1,1c0.3,0.7,0.4,0.9,0.4,3.2
		c0.1,3.1-0.1,4-0.9,4.8c-0.5,0.5-0.6,0.5-1.5,0.5C151.7,64.8,151.3,64.7,151,64.6z M152.7,63.9c0.7-0.3,0.8-0.8,0.9-3.5
		c0.1-3.7-0.2-4.8-1.3-4.8c-1.1,0-1.3,0.8-1.3,4.5c0,3,0.1,3.4,0.8,3.8C152.3,64.1,152.3,64.1,152.7,63.9z M158.5,64.6
		c-0.7-0.3-1-0.8-1.2-1.7c-0.2-1.5,0.1-2.8,0.9-3.1c0.4-0.1,0.3-0.6-0.1-0.9c-0.7-0.5-0.9-2.1-0.3-3.1c0.3-0.6,1-0.9,2.2-0.9
		c1.8,0,2.4,0.6,2.4,2.4c0,0.9,0,0.9-0.6,1.5c-0.3,0.3-0.6,0.6-0.6,0.7c0,0.1,0.2,0.2,0.4,0.3c0.6,0.3,0.8,1,0.8,2.3
		c0,1.3-0.3,1.9-1.1,2.4C160.6,64.8,159.2,64.9,158.5,64.6z M160.7,63.7c0.2-0.2,0.3-0.5,0.3-1.4c0-0.6,0-1.3,0-1.5
		c-0.2-0.9-1.5-1.2-2.1-0.6c-0.6,0.6-0.7,2.5-0.1,3.3C159.2,64.2,160.2,64.2,160.7,63.7z M160.6,58.8c0.6-0.6,0.6-2.3,0-2.9
		c-0.4-0.4-1.3-0.4-1.7,0c-0.3,0.3-0.3,0.5-0.3,1.4c0,1,0,1.2,0.3,1.4C159.4,59.1,160.3,59.1,160.6,58.8z M96.3,53.8
		c-0.1-0.1,0.8-1.2,1.1-1.5c0.1-0.1,0.9,0.5,0.8,0.6c0,0-0.4,0.3-0.7,0.5C96.8,53.9,96.4,54,96.3,53.8z M104.1,182.1
		c0.7-0.7,0.8-2.3,0.4-4c-0.4-1.5-0.3-2.5,0.2-3.4c1.5-2.9,1.4-2.6,1.6-4.5c0.1-2,0.4-2.7,1.2-3.2c0.9-0.6,2.9-0.2,3.7,0.7
		c0.8,0.8,0.6,2.2-0.5,4c-0.3,0.6-0.8,1.5-0.9,2c-0.4,1.2-0.7,3.9-0.4,4.1c0.2,0.2,0.4,0,0.9-0.9c0.8-1.6,1.9-3.1,3.4-4.5
		c1.9-1.8,2.3-2.6,2.3-4.3c0.1-2.5-0.8-3.7-4.3-5.5c-1.9-1-2.2-1.2-3-2c-1-1-1.5-2-1.9-3.4c-0.2-0.8-0.2-2.2-0.2-17.8v-17l9.9,0
		c8.9,0,10,0,11.2,0.3c1.9,0.4,4.8,1.1,6.2,1.6c0.7,0.3,1.2,0.4,1.3,0.3c0.1-0.1,0-0.6-0.2-1.3c-0.4-1.5-0.6-3.6-0.6-5.9
		s0.2-4.4,0.6-5.9c0.2-0.7,0.2-1.2,0.2-1.3c-0.1-0.1-0.6,0-1.3,0.3c-1.4,0.5-4.3,1.3-6.2,1.6c-1.2,0.2-2.3,0.3-11.2,0.3l-9.9,0
		v-10.8V90.8l2,0c2.4,0.1,4.5,0.3,6.1,0.8c0.7,0.2,1.4,0.4,1.6,0.4l0.4,0.1l-0.1-2.2c-0.2-2.8-0.1-6.5,0.1-8.4c0.1-1,0.1-1.6,0-1.7
		c-0.1-0.1-0.6,0-1.5,0.3c-2.2,0.7-3.6,0.9-6.3,0.9l-2.4,0l-0.1-4.3l-0.1-4.3l-0.8,0c-1,0-7.9,0-9,0l-0.8,0l0,4.4l0,4.4l-2.7-0.1
		c-2.9-0.1-3.9-0.2-6-1c-0.8-0.3-1.4-0.4-1.5-0.3c-0.1,0.1-0.1,0.6,0,1.3c0.2,1.4,0.2,7.3,0.1,9.4c-0.1,1.8-0.2,1.8,1.2,1.3
		c1.8-0.6,3-0.8,5.8-1c1.5-0.1,2.8-0.1,2.9-0.1c0.1,0.1,0.1,4.1,0.1,10.9v10.8l-10.1-0.1c-9.4-0.1-10.1-0.1-11.5-0.3
		c-1.8-0.4-3.8-0.9-5.5-1.5c-0.8-0.3-1.5-0.4-1.6-0.4c-0.1,0.1,0,0.5,0.2,1.2c0.4,1.7,0.6,3.2,0.6,6s-0.2,4.4-0.6,6
		c-0.2,0.6-0.2,1.1-0.2,1.2c0.1,0.1,0.7-0.1,1.6-0.4c2.2-0.8,4.4-1.3,6.5-1.6c1.7-0.3,2.7-0.3,11.2-0.3l9.4,0l0,14.4
		c0,7.9,0,15.3,0,16.5c0,3.5-0.6,5.2-2.2,6.9c-0.7,0.7-1.2,1-2.9,1.8c-2.6,1.3-3.1,1.6-3.6,2.7c-0.3,0.7-0.4,1-0.4,1.9
		c0,1.3,0.1,1.6,1.3,3.4c0.8,1.2,1.5,2.5,1.7,3.4c0.4,1.5,1,0.4,0.8-1.6c-0.1-0.8-0.2-1.3-0.6-2.1c-0.6-1.3-0.7-2-0.5-2.5
		c0.3-0.8,1.5-1.3,2.5-1c0.7,0.2,1.5,1,1.7,1.8c0.2,0.7,0.1,2.2-0.3,3.4c-0.3,1-0.5,2.7-0.4,3.4c0.2,1,1.1,2.1,3,3.7
		c1,0.8,2,1.7,2.2,2c0.6,0.7,0.9,0.6,0.9-0.2c0-1.1-0.3-1.6-1.5-2.9c-0.6-0.7-1.2-1.4-1.3-1.7c-0.4-0.9-0.2-2.5,0.5-3.9
		c0.7-1.3,1.4-1.8,2.9-1.8c1.1,0,1.7,0.3,2.1,1.2c0.4,0.8,0.5,2.1,0.1,3.6c-0.4,1.6-0.3,2.5,0.5,4c0.5,1,0.7,1.4,0.8,2.4
		C103.6,182.5,103.6,182.6,104.1,182.1z M66.6,96.9c0.8-2.4,1-2.9,1.2-2.9c0.2,0,1.5,0.2,2.9,0.5c1.5,0.3,2.8,0.6,2.9,0.6
		c0.7,0,0.4-0.3-2.1-3.1L69.9,90l1.5-1.7c2.8-3.2,3-3.3,2.2-3.3c-0.2,0-1.5,0.3-3,0.6c-1.5,0.3-2.8,0.5-2.9,0.5s-0.6-1.3-1.1-2.9
		c-0.5-1.5-1-2.9-1-3c-0.1-0.1-0.2-0.1-0.3-0.1s-0.6,1.4-1.1,3c-0.8,2.6-1,2.9-1.2,2.9c-0.2,0-1.6-0.3-3.1-0.6
		c-1.5-0.3-2.8-0.6-2.9-0.5c-0.3,0.2,0,0.6,1.9,2.7c1.1,1.2,2,2.3,2,2.4s-0.9,1.1-2,2.4c-1.1,1.2-2,2.3-2,2.5c0,0.3,0.3,0.3,3.4-0.4
		c1.5-0.3,2.8-0.6,2.9-0.6c0.1,0,0.5,1.4,1,3c0.8,2.5,1,2.9,1.2,2.9C65.6,99.8,65.9,99.1,66.6,96.9z M137.9,96.9
		c0.8-2.6,1-2.9,1.2-2.9c0.2,0,1.5,0.3,2.9,0.6c1.4,0.3,2.7,0.6,2.9,0.6c0.6,0,0.2-0.6-1.8-2.7c-1.1-1.2-2-2.3-2-2.3
		c0-0.1,0.9-1.1,2-2.3s2-2.3,2-2.5c0-0.3-0.4-0.3-3.3,0.3c-1.4,0.3-2.7,0.6-2.9,0.6c-0.2,0-0.4-0.6-1.1-2.8
		c-0.9-2.8-1.1-3.4-1.4-3.1c-0.1,0.1-0.6,1.4-1.1,3c-0.7,2.2-1,2.9-1.2,2.9c-0.1,0-1.4-0.3-2.8-0.6c-2.9-0.6-3.3-0.7-3.3-0.3
		c0,0.1,0.9,1.2,2,2.5c1.1,1.2,2,2.3,2,2.3c0,0-0.9,1.1-2,2.3c-1.1,1.2-2,2.3-2,2.5c0,0.3,0.2,0.3,3.4-0.4c1.5-0.3,2.8-0.6,2.9-0.5
		s0.5,1.4,1,3c0.8,2.3,1,2.9,1.2,2.9C136.9,99.8,137.2,99.2,137.9,96.9z M180.5,45.5l-2.6-1.2l-0.4-1.9c-0.8-3.3-0.3-2.8-3.6-4.3
		c-1.5-0.7-2.9-1.3-3-1.3c-0.3,0-0.4,0.3-0.9,2c-0.2,0.8-0.5,1.5-0.5,1.6c-0.1,0.1-5-2.2-5.2-2.3c-0.1-0.1,1.4-4.1,6.7-18.2l0.3-0.7
		l2.6,1.3c1.5,0.7,2.7,1.4,2.7,1.4c0.1,0.1,6.5,24.7,6.5,24.8C183.1,46.7,182,46.2,180.5,45.5z M175.6,34.9c0.1-0.1-1.2-7.8-1.6-9.2
		c-0.1-0.2-0.2-0.3-0.4-0.3c-0.3,0-0.4,0.4-1.2,4c-0.6,2.6-0.8,4-0.7,4.1c0.3,0.3,3.1,1.6,3.5,1.6C175.4,35.1,175.5,35,175.6,34.9z
		 M18.9,46.5c0-0.2,2.5-22.7,2.6-22.8c0-0.1,5.8-2.9,5.9-2.8c0,0,2.5,8.8,2.9,10c0.2,0.6,0.3,0.8,0.5,0.8c0.3,0,0.5-0.7,2.1-7.1
		c1-3.9,1.8-7.1,1.9-7.2c0.2-0.1,5.4-2.5,5.5-2.4c0,0,2.6,19,2.7,20.1l0,0.5l-2.4,1.1c-1.3,0.6-2.5,1.1-2.5,1.1c0,0-0.2-2.8-0.4-6.1
		c-0.2-3.3-0.4-6.1-0.4-6.3c0-0.1-0.2-0.2-0.3-0.1c-0.2,0-0.7,1.7-2.2,7.5c-1.1,4.1-2,7.5-2.1,7.6c-0.2,0.2-3.6,1.7-3.6,1.7
		c0,0-0.8-2.6-1.7-5.7c-1-3.4-1.7-5.7-1.9-5.7c-0.1,0-0.2,0-0.3,0s-0.3,3-0.6,6.5s-0.5,6.6-0.6,6.8c-0.1,0.4-0.2,0.5-0.9,0.8
		c-0.5,0.2-1.6,0.7-2.4,1.1C19.6,46.2,18.9,46.5,18.9,46.5z M159.2,36.4c-1.3-0.4-2.4-0.7-2.4-0.7c0,0-1.4-3.1-3.1-6.9
		c-2.4-5.6-3.1-6.9-3.3-6.9c-0.3,0-0.3,0.2-0.3,6l-0.1,6l-2.3-0.6l-2.3-0.6l0-10.9c0-6,0-10.9,0.1-10.9c0.3,0,4.6,1.3,4.7,1.4
		c0.1,0.1,1.5,3.2,3.1,7c2.4,5.6,3,6.9,3.3,6.9c0.3,0,0.3-0.2,0.3-6c0-3.3,0.1-6,0.1-6c0.2,0,4.3,1.2,4.4,1.3c0.1,0.1,0.1,5,0.1,11
		l0,10.9L159.2,36.4z M44.9,33.9c0-0.1,0.2-1,0.6-2.1l0.7-1.9l2,0c3,0.1,4.9-0.3,6.5-1.4c1.7-1.1,2.1-3.2,0.8-3.8
		c-0.3-0.1-1.4-0.2-3.4-0.3c-3.7-0.2-4.5-0.3-5.3-1.1c-1.2-1.2-1.4-3.2-0.7-5.7c0.5-1.4,1-2.4,2.1-3.5c1.1-1.1,2.2-2,3.7-2.7
		c0.6-0.3,1.1-0.6,1.1-0.7c0-0.1-0.7-0.6-1.9-1.1c-1-0.5-1.9-1-1.9-1c0-0.1,0.1-0.5,0.3-0.9c0.2-0.4,0.4-0.9,0.4-1
		c0.1-0.2,0.3-0.2,1.7,0.6c0.9,0.5,1.7,0.9,1.8,0.9c0.1,0,0.9-0.7,1.8-1.6L56.8,5l0.7,0.6l0.7,0.6L56.4,8c-1.3,1.4-1.7,1.9-1.7,2.1
		c0,0.2,0.1,0.3,0.4,0.3c1.1-0.1,4.7-0.2,5.5-0.1l0.9,0.1l-1.2,1.9c-0.7,1.1-1.3,1.9-1.4,1.8c-1.1-0.3-2.6-0.3-3.7-0.2
		c-2,0.3-3.3,1.1-3.8,2.3c-0.7,1.5-0.2,2.2,1.6,2.7c0.3,0.1,1.7,0.2,3.1,0.2c2.9,0.1,3.9,0.3,4.7,1c0.8,0.7,1.2,1.5,1.2,2.9
		c0.1,1.5-0.2,2.9-0.9,4.3c-1,2-3.4,4.1-6,5.1c-1.3,0.5-3.2,1-4.7,1.3C49.1,34,45,34.1,44.9,33.9z M138.7,30.7l-2.2-0.6l0-10.9
		c0-6,0-10.9,0.1-10.9c0.1,0,1.2,0.3,2.5,0.6l2.3,0.6l0,10.9c0,10.3,0,10.9-0.2,10.9C140.9,31.3,139.8,31,138.7,30.7z M65.1,18.6
		V7.7l2.1-0.2c1.2-0.1,2.2-0.2,2.3-0.2c0.1,0,0.2,1.2,0.2,5.1c0,5,0,5.1,0.3,5.1c0.2,0,0.6-0.7,2.8-5.3c1.4-2.9,2.6-5.4,2.6-5.5
		c0.1-0.1,5.9-0.9,6-0.8c0,0-1.2,2.5-2.7,5.4s-2.8,5.4-2.8,5.5s1.7,2.6,3.6,5.5s3.5,5.3,3.5,5.3c0,0-1.4,0.2-3.1,0.4
		c-2.9,0.4-3.1,0.4-3.3,0.1c-0.1-0.1-1.5-2.4-3.2-5c-2.4-3.9-3-4.8-3.2-4.8c-0.3,0-0.3,0.2-0.3,5.4l0,5.4l-2.1,0.2
		c-1.1,0.1-2.2,0.2-2.4,0.2l-0.3,0V18.6z M127.6,28.5c-3-0.4-5.8-0.9-6.1-0.9l-0.6-0.1V16.6c0-6.8,0.1-10.9,0.1-10.9
		c0.2,0,3.9,0.5,4.4,0.6l0.4,0.1v8.9c0,7.4,0,9,0.2,9.1c0.1,0.1,1.8,0.4,3.8,0.7l3.6,0.5v1.9c0,1,0,1.9-0.1,1.9
		C133.2,29.3,130.6,29,127.6,28.5z M114,27l-2.2,0V16V5.1h2.5h2.5v11c0,10.4,0,11-0.2,11C116.3,27.1,115.2,27,114,27z M93,24.6v-1.9
		l4.7-6.7c3.6-5.1,4.7-6.8,4.7-7.1l0-0.4l-4.3,0l-4.3,0V6.7V5l3.2,0c4,0,4,0,1.4-1.9c-1-0.7-1.8-1.3-1.8-1.4c0-0.1,0.3-0.5,0.6-0.9
		L97.6,0L99.1,1c1.5,1.2,1.9,1.4,2.1,1.4c0.1,0,0.8-0.6,1.6-1.2l1.4-1.2l0.7,0.8l0.7,0.8l-1.4,1.1c-0.7,0.6-1.5,1.2-1.7,1.4
		c-0.2,0.2-0.4,0.4-0.4,0.6c0,0.3,0.2,0.3,3.1,0.4l3.1,0.1l-0.1,0.6c0,0.3-0.1,1.1-0.1,1.8v1.1l-4.3,6.6c-2.4,3.6-4.3,6.7-4.3,6.8
		c0,0.2,0.5,0.2,4.3,0.3l4.2,0v2.1v2.1h-7.5H93V24.6z"/>
</g>
</svg>
