<?xml version="1.0" encoding="utf-8"?>
<!-- Generator: Adobe Illustrator 21.1.0, SVG Export Plug-In . SVG Version: 6.00 Build 0)  -->
<svg version="1.1" id="Layer_1" xmlns="http://www.w3.org/2000/svg" xmlns:xlink="http://www.w3.org/1999/xlink" x="0px" y="0px"
	 viewBox="0 0 200 200" style="enable-background:new 0 0 200 200;" xml:space="preserve">
<style type="text/css">
	.st0{fill:#0096D5;}
	.st1{fill:#FFFFFF;}
	.st2{fill:#EC1943;}
</style>
<g>
	<path class="st0" d="M154.3,153.4c18.3-25.3,30.8-57,37-95.3c3.9-24.5,2.6-45.3,2.6-45.3C168.8,5.8,137.7,0,100,0l0,0
		C62.3,0,31.2,5.8,6.1,12.8c0,0-1.3,20.8,2.6,45.3c6.2,38.3,18.7,70,37,95.3C70.8,188,100,200,100,200S129.2,188,154.3,153.4z"/>
	<path class="st1" d="M11.2,19.9c-0.3,7.9-0.3,22.8,2,39c5.4,37.5,17,68.3,34.6,92.8c24.1,33.5,52.2,45.2,52.2,45.2
		s28.1-11.7,52.2-45.2c17.6-24.5,29.2-55.3,34.6-92.8c2.3-16.2,2.3-31.1,2-39l-0.2,0C159.5,12,130.5,8.2,100,8.2
		C69.5,8.2,40.4,12,11.2,19.9L11.2,19.9z"/>
	<path class="st2" d="M120.6,83c1.8,0,2.3-1-0.3-1c-2.5-0.1-7.1-0.3-18.9-1.2c-12-0.9-17.9-2.1-17.9-2.1c-2.1,3.1-4,5.4-4,5.4
		s3.7,2.1,10.7,2.4c0,0,3-2.6,9.3-3.4C105.8,82.3,115,83.1,120.6,83z"/>
	<path class="st2" d="M90.9,77.7c0,0,0.5-0.6,1.1-1.5c0,0,2.9,0.9,8.6,1c5.3,0.1,8.6-0.1,10.1-0.3c0.6-0.1,1.1-0.1,1.5,0
		c1.1,0.1,3.6,0.5,5.3,1.2c2.2,1,3.1,1.9,1,2.2c-2,0.3-8.1,0-17.2-1C93,78.4,90.9,77.7,90.9,77.7z"/>
	<path class="st2" d="M88.4,77.3c0,0,0.4-2,1.9-2.7c1.5-0.7,2.6-0.7,3.5,0.2c0.9,0.8,2,1.2,5.4,1.2c3.4,0,5.3,0.1,5.9-0.2
		c0.6-0.3,0.4-0.8-0.3-1.1c-0.7-0.3-3.3-0.5-7-0.7c-4-0.2-5.3-0.7-7.2-0.7c-1.4,0-3,1.6-4.1,3.3C86.5,76.6,87.1,77.1,88.4,77.3z"/>
	<path class="st2" d="M93.8,86.9c0,0,6-2.6,13-2.4c7,0.2,17.7,0.8,19.5,0.2c0,0,0.7-0.1,0.6,2.7c-0.1,2.8-0.5,7.6,0,12.2
		c0.5,4.5,0.6,7-1.4,10.5c-2,3.5-5.3,4.4-7.4,3.8c0,0,0.6-7.5-1.3-13.8c-1.9-6.3-6.3-9.4-10.6-10.6C101,88.1,95.5,87.9,93.8,86.9z"
		/>
	<path class="st2" d="M116.3,112.8c-8.1-2.3-24.8-0.6-30.3-0.3c-5.5,0.3-9.8-1.6-11.7-4.7c-1.1-1.8-1.4-4-1.4-5.5
		c0-1,0.3-2.3,0.4-2.7c0.4-1.6,0.8-4.1,1.5-8.2c0.5-3,0.9-4.7,1.1-5.5c0.1-0.5,0.4-0.7,0.8-0.6c1.7,0.4,6.8,1.5,10.5,2.5
		c4.9,1.3,8.1,1.3,11.8,1.9c6.1,0.9,11.1,2,14.6,6.4C117,100.7,116.3,112.8,116.3,112.8z"/>
	<path class="st2" d="M116.3,117.4c-3.5-3-7.9-3.3-14.5-3.3c0,0,1.2,0.6,3.1,2.1c1.9,1.5,3.6,3.2,5.9,3.4
		C113.4,119.9,116.3,117.4,116.3,117.4z"/>
	<path class="st2" d="M99.3,126.3c0,0,1.8-2.1,2-6.6c0.2-3.1-0.4-5.6-0.4-5.6c-0.5,0-1,0-1.6,0c-0.3,0-0.7,0-1,0
		c0,0,0.7,3.2,0.5,5.7c-0.2,2.9-1.7,5.8-1.7,5.8S97.6,126,99.3,126.3z"/>
	<path class="st2" d="M84.3,115.4c0,0,5.7-0.9,12.7-1.2c0,0,0.6,2.9-1.5,4.5C93.5,120.3,87.1,120.2,84.3,115.4z"/>
	<path class="st0" d="M134.3,168.3c-12.2-8-29.5-22-46.5-45.3c-0.3-0.5-0.7-0.9-1-1.4c0,0-1.7-0.2-3.6-2.3c-2.3-2.5-2-3.7-2-3.7
		s-5.9-0.7-8.9-5.1c-2.8-4-2.8-7.9-2.3-10.5c0.5-2.5,1.2-5.8,1.2-5.8c-8.7-19.1-12.8-37.3-14.8-50.1l-0.2,0
		c-14.4,1.9-27.6,4.6-39.4,7.7l-0.2,0.1c0.2,2.1,0.5,4.2,0.8,6.3c5.2,37,16.2,67.4,33,91.6c23,33.1,49.8,44.6,49.8,44.6
		s16.4-7,34.6-26L134.3,168.3z"/>
	<path class="st0" d="M160.1,132.9c11.1-21,18.7-45.8,22.7-74.6c0.3-2.1,0.6-4.2,0.8-6.3l-0.2,0c-22.9-5.9-50.3-10.4-82.8-10.5
		l-0.3,0c1.3,8,4.1,19.7,9.5,32.4c0,0,2.4-0.6,6,0.4c3.6,1,6.2,2.3,6.9,5c0,0,1.9,0.4,2.4,2.4c0,0,1.6-0.5,2.9,0.3
		c1.3,0.8,2,1.5,2,4.9c0,3.4-0.5,8.1-0.2,11.2c0.3,3.1,0.5,3.4,0.5,5.4c-0.1,2-0.2,3-0.2,3C141.1,119.3,152.5,128,160.1,132.9
		L160.1,132.9z"/>
	<polygon class="st1" points="84.9,178.2 84.9,170.5 83,172.2 83,170.3 84.9,168.7 86.7,168.7 86.7,178.2 	"/>
	<path class="st1" d="M97,174.1l-2,4.1h-1.9l2-3.9c-0.2,0.1-0.5,0.1-0.7,0.1c-1.3,0-2.5-1.1-2.5-2.8c0-1.9,1.3-3,3-3
		c1.7,0,3,1.1,3,2.9C97.8,172.4,97.4,173.2,97,174.1z M94.8,170.1c-0.7,0-1.2,0.5-1.2,1.4c0,0.8,0.5,1.4,1.2,1.4
		c0.7,0,1.2-0.5,1.2-1.4C96,170.7,95.5,170.1,94.8,170.1z"/>
	<polygon class="st1" points="106.7,176.8 106.7,178.2 105,178.2 105,176.8 101.1,176.8 101.1,175.2 104.4,168.7 106.3,168.7 
		103,175.2 105,175.2 105,173.4 106.7,173.4 106.7,175.2 107.6,175.2 107.6,176.8 	"/>
	<polygon class="st1" points="113.9,178.2 112,178.2 115.1,170.2 112.6,170.2 112.6,171.7 110.9,171.7 110.9,168.7 117,168.7 
		117,170.2 	"/>
	<polygon class="st0" points="53,36.7 41.7,24.3 43.8,38.1 42,38.4 39.4,21.2 41.1,20.9 52.3,33.3 50.2,19.5 52.1,19.3 54.7,36.5 	
		"/>
	<path class="st0" d="M68.9,33.2c-0.9,1.1-2.4,1.9-4.2,2l-5.9,0.6L57,18.5l5.9-0.6c1.8-0.2,3.4,0.2,4.5,1.2c2,1.6,2.1,4.3,2.4,6.7
		C70.1,28.2,70.5,31.2,68.9,33.2z M66.3,20.5c-1-0.8-2.2-1.1-3.5-0.9L59,20l1.4,14l3.8-0.4c1.3-0.1,2.5-0.6,3.3-1.6
		c1.1-1.4,0.8-3.9,0.6-6C67.8,23.8,67.6,21.6,66.3,20.5z"/>
	<path class="st0" d="M102.5,31.8c-1.2,1.2-2.7,1.9-4.7,1.9c-2,0-3.5-0.7-4.7-1.9c-1.8-1.7-1.7-3.9-1.8-6.9c0-3-0.1-5.2,1.7-6.9
		c1.2-1.2,2.7-1.9,4.7-1.9c2,0,3.5,0.7,4.7,1.9c1.8,1.7,1.8,3.9,1.8,6.9C104.2,27.9,104.3,30,102.5,31.8z M99.9,20
		c-0.5-0.6-1.3-0.9-2.2-0.9c-0.9,0-1.7,0.4-2.2,0.9c-0.7,0.7-0.8,1.5-0.8,4.9c0,3.3,0.2,4.2,0.9,4.9c0.5,0.6,1.3,0.9,2.2,0.9
		c0.9,0,1.7-0.4,2.2-0.9c0.7-0.7,0.8-1.5,0.8-4.9C100.8,21.5,100.6,20.7,99.9,20z"/>
	<path class="st0" d="M116.5,34l-3.1-7.1l-2.4-0.1l-0.3,6.9l-3.4-0.1l0.7-17.4l6.8,0.3c3.5,0.1,5.5,2.6,5.4,5.5
		c-0.1,2.4-1.6,3.9-3.3,4.4l3.6,7.6L116.5,34z M114.4,19.5l-3.2-0.1l-0.2,4.6l3.2,0.1c1.5,0.1,2.5-0.9,2.6-2.2
		C116.9,20.6,115.9,19.6,114.4,19.5z"/>
	
		<rect x="117.2" y="24.1" transform="matrix(7.149295e-02 -0.9974 0.9974 7.149295e-02 91.1146 149.4902)" class="st0" width="17.4" height="3.4"/>
	<path class="st0" d="M155.6,38l-0.6-3.2l-6.1-0.9l-1.5,2.9l-3.5-0.5l8.9-16.3l2.6,0.4l3.7,18.1L155.6,38z M153.4,25.3l-3.1,5.9
		l4.3,0.6L153.4,25.3z"/>
	<path class="st0" d="M83.3,19.9c-0.6-0.2-1.2-0.4-1.9-0.3c-0.9,0-1.6,0.4-2.1,1c-0.6,0.8-0.8,1.5-0.6,4.9c0.2,3.4,0.4,4.1,1.1,4.9
		c0.5,0.6,1.3,0.8,2.2,0.8c1,0,1.8-0.4,2.4-1.1c0.5-0.6,0.7-1.4,0.7-2.4l0-0.7l-3.2,0.2l-0.1-2.8l6.6-0.3l0.1,2.5
		c0.1,2.5-0.3,4-1.4,5.4c-1.3,1.4-2.9,2.1-4.8,2.2c-1.9,0.1-3.4-0.5-4.8-1.7c-0.8-0.7-1.3-1.6-1.5-2.5c-0.2-1-0.4-2.4-0.5-4.3
		c-0.1-1.9-0.1-3.3,0.1-4.3c0.1-1,0.6-1.9,1.3-2.7c1.2-1.3,2.7-2,4.6-2.1c2.4-0.1,4.3,0.7,5.5,2l-2.2,2.3
		C84.6,20.8,84,20.2,83.3,19.9z"/>
	<path class="st0" d="M141.8,34.3c-1.4,1.1-3.1,1.6-5,1.4c-1.8-0.2-3.3-1-4.5-2.4c-0.7-0.8-1.1-1.8-1.2-2.7c-0.1-1-0.1-2.4,0.1-4.3
		c0.2-1.9,0.4-3.3,0.7-4.3c0.3-1,0.8-1.8,1.7-2.5c1.4-1.1,3-1.6,4.9-1.4c2.4,0.2,4.2,1.3,5.2,2.8l-2.5,2c0,0-0.5-0.7-1.1-1.1
		c-0.5-0.3-1.1-0.5-1.8-0.6c-0.9-0.1-1.7,0.2-2.3,0.7c-0.7,0.7-1,1.4-1.3,4.8c-0.3,3.4-0.3,4.1,0.3,5c0.4,0.7,1.1,1,2.1,1.1
		c1,0.1,1.8-0.1,2.5-0.7c0.1-0.1,0.1-0.1,0.2-0.2L141.8,34.3z"/>
</g>
</svg>
