<?xml version="1.0" encoding="utf-8"?>
<!-- Generator: Adobe Illustrator 21.1.0, SVG Export Plug-In . SVG Version: 6.00 Build 0)  -->
<svg version="1.1" id="Layer_1" xmlns="http://www.w3.org/2000/svg" xmlns:xlink="http://www.w3.org/1999/xlink" x="0px" y="0px"
	 viewBox="0 0 200 200" style="enable-background:new 0 0 200 200;" xml:space="preserve">
<style type="text/css">
	.st0{fill:#FBC707;}
	.st1{fill:#303280;}
	.st2{fill:#FFFFFF;}
	.st3{fill:#FFFFFF;stroke:#FFFFFF;stroke-width:0.308;stroke-miterlimit:3.864;}
</style>
<g>
	<path id="path14" class="st0" d="M19.8,2.7h160.4c0,0,0,111,0,120.5c0,34.9-27.8,74.1-80,74.1c-50.4,0-80.4-38.9-80.4-77.1
		C19.8,112.4,19.8,2.7,19.8,2.7"/>
	<path id="path16" class="st1" d="M21.7,32.4v93c0,6.9,2.8,17.4,5.6,24.5c2.2,5.6,4.5,8.8,4.5,8.8v-48.9l4.2,2.5V165
		c0,0,3.6,4.4,6.8,7.6c3.2,3.2,6.1,5.7,6.1,5.7v-37L53,144v37.2c0,0,2.7,2.2,5.7,3.9c3.3,1.9,6.9,3.4,6.9,3.4v-37l3.7,2.2v36.4
		c0,0,2.9,1.3,5.9,2.2c3.3,1,6.9,1.5,6.9,1.5v-33.2l4.1,2.6v31.4c0,0,2.6,0.9,5.5,1.2c3,0.3,6.3,0,6.3,0v-26.4l2.2,1.2l2-1.1v26.3
		c0,0,4.1,0.2,7.2-0.1c2.9-0.3,4.9-1,4.9-1v-32l4-2.2v33.5c0,0,3.9-0.5,7.2-1.5c2.4-0.7,4.4-2,4.4-2v-36.7l4.3-2V189
		c0,0,3.4-1.5,6.6-3.3c3.3-1.9,6.3-4.1,6.3-4.1v-37l4.5-2.5v36.4c0,0,2.9-2.4,5.6-5.2c2.9-3,5.5-6.1,5.5-6.1v-54.3l4.8-2.2v50.3
		c0,0,2.9-4.8,5.9-12c2.6-6.4,5.3-16,5.3-21.9V32.5h-11.4v74.5l-4.3-2.5V32.5h-11.5v44l-4.3-2.2V32.5H134v34.6l-4.1-2.6v-32h-11.4
		v26.1l-4.3-2.5V32.5h-12v16.9l-2.2-1.2l-2.3,0.9V32.6H86.2v23.5l-4.1,2.1V32.4H69.9v33l-4.6,2.5V32.4H53v42.9l-4.4,2.1V32.6H36.2
		v73.2l-4.4,2.3V32.4H21.7z M19,1.7h162v121.7c0,35.2-28,74.9-80.8,74.9C49.3,198.3,19,159,19,120.4V1.7"/>
	<path id="path18" class="st1" d="M51.2,79.7l48.9-27l47.6,26.1l-14.6,8.9l-32.9-18.3l-34.9,20L51.2,79.7"/>
	<path id="path20" class="st1" d="M37.2,108.9l63.9-34.7l62.7,34.4l-62.7,36.6L37.2,108.9"/>
	<path id="path22" class="st2" d="M96.1,98.9v22h5.1c2.2,0,9.2-3.5,9.2-11.1c0-7.5-6.8-11.1-10.3-11.1
		C96.5,98.8,96.1,98.9,96.1,98.9L96.1,98.9z M79.6,91.4c0,0,18.7,0.3,25.2,0.3c6.5,0,16.8,6.9,16.8,18.1s-8.8,18-16.1,18h-26v-6.9
		h5.2V98.8h-5.1V91.4"/>
	<path id="path24" class="st1" d="M64.9,129.5l35.2,19.8l32.7-18l14.8,8.3l-47.6,26.6l-49.5-27.5L64.9,129.5"/>
	<path id="path26" class="st1" d="M48.7,119.2v15.2l4.2-2.3v-10.5L48.7,119.2"/>
	<path id="path28" class="st1" d="M48.7,84.2v14.9l4.2-2.5v-9.7L48.7,84.2"/>
	<path id="path30" class="st1" d="M151.4,81.9v16.3l-4.3-2.5V84.2L151.4,81.9"/>
	<path id="path32" class="st1" d="M151.4,119.7v17.8l-4.1-2.6v-12.4L151.4,119.7"/>
	<path id="path34" class="st1" d="M74.8,182h1.2v-9.5h-0.9c-0.2,1.4-1.2,1.8-2.5,1.8v1h2.2V182"/>
	<path id="path36" class="st1" d="M88.7,179.7c0,1.7,1.3,2.6,2.9,2.6c2.9,0,3.6-2.9,3.6-5.3c0-2.3-0.8-4.5-3.4-4.5
		c-1.9,0-3.2,1.3-3.2,3.2c0,1.8,1.1,3.1,3,3.1c0.9,0,1.7-0.3,2.3-1c-0.1,1.4-0.4,3.4-2.2,3.4c-1,0-1.7-0.5-1.7-1.5H88.7z
		 M89.9,175.7c0-1.2,0.7-2.1,1.9-2.1c1.2,0,1.9,0.9,1.9,2.1c0,1.2-0.7,2-2,2C90.6,177.7,89.9,176.8,89.9,175.7"/>
	<path id="path38" class="st1" d="M105.5,182h6.5v-1.2h-5.1c0.7-2.5,5.1-2,5.1-5.5c0-1.8-1.4-2.8-3.1-2.8c-2,0-3.2,1.3-3.2,3.3v0.2
		h1.2c0-1.2,0.5-2.3,1.9-2.3c1,0,1.9,0.6,1.9,1.7C110.6,178.2,105.5,177.5,105.5,182L105.5,182"/>
	<path id="path40" class="st1" d="M125.4,182h1.2v-9.5h-0.9c-0.2,1.4-1.2,1.8-2.5,1.8v1h2.2L125.4,182"/>
	<path id="path42" class="st0" d="M66.8,116.8l-5.5-4l-5.5,4l2.1-6.4l-5.5-4h6.8l2.1-6.4l2.1,6.4h6.8l-5.5,4L66.8,116.8"/>
	<path id="path44" class="st0" d="M142.5,116.8l-5.5-4l-5.5,4l2.1-6.4l-5.5-4h6.8l2.1-6.4l2.1,6.4h6.8l-5.5,4L142.5,116.8"/>
	<path id="path46" class="st3" d="M165.9,23.7H159V11.1h6.8v1.7h-5v3.7h5v1.7h-5V22h5V23.7z M45.6,23.7h-1.9l-6.3-9.7v9.7h-1.8V11.1
		h2l6.2,9.6v-9.6h1.8V23.7z M56.8,11.1h2.3l-4.9,6.3l4.9,6.3h-2.3L52,17.3v6.3h-1.8V11.1H52v6.3L56.8,11.1z M76,23.7V11.1h4.5
		c1.8,0,3.1,0.5,4.2,1.7c1.2,1.2,1.8,2.9,1.8,4.7c0,1.6-0.6,3.3-1.6,4.4c-1.1,1.3-2.7,1.8-5.1,1.8L76,23.7z M77.8,22h1.5
		c1.7,0,2.9-0.3,3.9-1.1c1-0.8,1.5-2.1,1.5-3.5c0-1.3-0.5-2.5-1.4-3.4c-0.9-0.9-1.8-1.3-3.2-1.3h-2.3V22z M96.5,10.8
		c3.6,0,6.5,2.9,6.5,6.5s-2.9,6.5-6.5,6.5c-3.6,0-6.6-2.9-6.6-6.5C89.8,13.7,92.7,10.8,96.5,10.8L96.5,10.8z M96.3,12.5
		c-1.4,0-2.5,0.5-3.4,1.6c-0.8,0.9-1.2,2.1-1.2,3.3c0,1.3,0.5,2.6,1.4,3.5c0.9,0.9,2,1.4,3.3,1.4c1.3,0,2.4-0.5,3.3-1.4
		c0.9-0.9,1.4-2.2,1.4-3.5c0-1.2-0.4-2.4-1.2-3.3C98.9,13,97.8,12.5,96.3,12.5z M120.2,23.7h-1.8V13l-4.3,10.6H113L108.7,13v10.6
		h-1.8V11.1h2.9l3.8,9.6l3.8-9.6h2.9V23.7z M131.7,23.7H124V22l5.5-9.2h-5.2v-1.7h7.2v1.7l-5.4,9.2h5.7V23.7z M124.9,7.4h1.8
		l1.2,1.4l1.2-1.4h1.8l-2.1,2.6H127L124.9,7.4z M145.9,23.7h-1.9l-1.4-3.7H138l-1.4,3.7h-2l4.8-12.6h1.6L145.9,23.7z M141.9,18.2
		l-1.6-4.8l-1.6,4.8H141.9z M155.4,23.7h-6.2V11.1h1.8V22h4.4V23.7z"/>
</g>
</svg>
