<?xml version="1.0" encoding="utf-8"?>
<!-- Generator: Adobe Illustrator 21.1.0, SVG Export Plug-In . SVG Version: 6.00 Build 0)  -->
<svg version="1.1"
	 id="svg2" inkscape:version="0.91 r13725" sodipodi:docname="NkOsijek_Grb_Boja_2016 ink.svg" xmlns:cc="http://creativecommons.org/ns#" xmlns:dc="http://purl.org/dc/elements/1.1/" xmlns:inkscape="http://www.inkscape.org/namespaces/inkscape" xmlns:rdf="http://www.w3.org/1999/02/22-rdf-syntax-ns#" xmlns:sodipodi="http://sodipodi.sourceforge.net/DTD/sodipodi-0.dtd" xmlns:svg="http://www.w3.org/2000/svg"
	 xmlns="http://www.w3.org/2000/svg" xmlns:xlink="http://www.w3.org/1999/xlink" x="0px" y="0px" viewBox="0 0 200 200"
	 style="enable-background:new 0 0 200 200;" xml:space="preserve">
<style type="text/css">
	.st0{fill:#FFFFFF;}
	.st1{fill:#2D5DA7;}
	.st2{fill:#5CB7E8;}
	.st3{fill:#323235;}
</style>
<g>
	<path id="path22" inkscape:connector-curvature="0" class="st0" d="M100,199.6l-3-2.3c-11.6-8.7-18.3-11.1-26.3-13.5
		c-8.7-2.6-18.5-5.6-27.4-15.3c-9.4-10.4-10.9-25.7-11-34.1V0.4h135.4v134c-0.1,8.3-1.6,23.7-11,34.1c-8.8,9.7-18.7,12.6-27.4,15.3
		c-8.1,2.5-14.8,4.8-26.3,13.5L100,199.6z"/>
	<path id="path24" inkscape:connector-curvature="0" class="st1" d="M162.5,5.8h-31.6v31.5h31.6V5.8z"/>
	<path id="path26" inkscape:connector-curvature="0" class="st1" d="M69.1,5.8H37.2v31.5h31.9C69.1,37.3,69.1,5.8,69.1,5.8z"/>
	<path id="path28" inkscape:connector-curvature="0" class="st0" d="M130.9,6.4H69.1v30.8h61.8V6.4z"/>
	<path id="path32" inkscape:connector-curvature="0" class="st1" d="M38.2,37.6v96.9c0.1,7.5,1.3,21.2,9.5,30.1
		c7.7,8.4,16.8,11.2,24.8,13.6c8.3,2.5,15.5,5.2,27.7,14c12-8.9,19.4-11.6,27.7-14c8-2.5,17-5.2,24.8-13.6
		c8.1-8.9,9.4-22.7,9.5-30.1V37.6H38.2z"/>
	<path id="path36" inkscape:connector-curvature="0" class="st2" d="M141.8,173.7L141.8,173.7c-0.1,0-0.1,0.1-0.2,0.1
		C141.7,173.7,141.8,173.7,141.8,173.7"/>
	<path id="path40" inkscape:connector-curvature="0" class="st2" d="M54.6,171.7c1.1,0.7,2.2,1.4,3.3,1.9h83.9
		c1.1-0.6,2.3-1.2,3.3-1.9H54.6z"/>
	<path id="path44" inkscape:connector-curvature="0" class="st2" d="M71.9,178.9L71.9,178.9c-0.6-0.2-1.1-0.4-1.8-0.5
		C70.8,178.6,71.4,178.8,71.9,178.9"/>
	<path id="path48" inkscape:connector-curvature="0" class="st2" d="M92.5,188.2h14.7l0,0c1.1-0.7,2.2-1.4,3.2-1.9H89.3
		C90.3,186.8,91.4,187.5,92.5,188.2"/>
	<path id="path52" inkscape:connector-curvature="0" class="st2" d="M151.6,166.4L151.6,166.4L151.6,166.4L151.6,166.4"/>
	<path id="path56" inkscape:connector-curvature="0" class="st2" d="M72,178.9c2,0.6,4,1.2,5.9,1.9h43.9c1.9-0.7,3.9-1.3,6-1.9h0.1
		H72C71.9,178.9,72,178.9,72,178.9"/>
	<path id="path60" inkscape:connector-curvature="0" class="st2" d="M121.9,180.9"/>
	<path id="path64" inkscape:connector-curvature="0" class="st2" d="M46.2,164.3c-0.9-1.1-1.8-2.2-2.5-3.4
		C44.4,162.1,45.2,163.2,46.2,164.3"/>
	<path id="path68" inkscape:connector-curvature="0" class="st2" d="M38,144.5h123.7c0.1-0.7,0.2-1.3,0.3-1.9H37.7
		C37.8,143.2,37.9,143.9,38,144.5"/>
	<path id="path72" inkscape:connector-curvature="0" class="st2" d="M151.6,166.4c-0.4,0.5-1,1-1.5,1.4
		C150.7,167.3,151.2,166.8,151.6,166.4"/>
	<path id="path76" inkscape:connector-curvature="0" class="st2" d="M39.7,151.8h120.5c0.2-0.6,0.4-1.3,0.5-1.9H39.1
		C39.2,150.5,39.4,151.2,39.7,151.8"/>
	<path id="path80" inkscape:connector-curvature="0" class="st2" d="M162.4,37.2v21.6H37.8V37.2h-0.6v97.2c0,0.9,0,1.8,0.1,2.9
		h125.2c0.1-1,0.1-1.9,0.1-2.9V37.2H162.4z"/>
	<path id="path84" inkscape:connector-curvature="0" class="st2" d="M42.7,159.1h114.4c0.4-0.6,0.7-1.3,1-1.9H41.7
		C42,157.8,42.3,158.5,42.7,159.1"/>
	<path id="path88" inkscape:connector-curvature="0" class="st2" d="M46.9,165.1c0.4,0.4,0.8,0.9,1.2,1.2h103.6
		c0.4-0.4,0.8-0.8,1.2-1.2c0.2-0.3,0.4-0.4,0.6-0.7H46.3C46.4,164.6,46.6,164.9,46.9,165.1"/>
	<path id="path92" inkscape:connector-curvature="0" class="st2" d="M156.1,160.9c-0.8,1.2-1.6,2.4-2.5,3.4
		C154.5,163.2,155.3,162.1,156.1,160.9"/>
	<path id="path94" inkscape:connector-curvature="0" class="st0" d="M162.4,37.1H37.8v21.6h124.6V37.1z"/>
	<path id="path98" inkscape:connector-curvature="0" class="st0" d="M140,103.2c-11.7-1.9-24.4-3-24.4-3v-19h2.5V77h-2.5v-4.3h-7.4
		V77h-4.3v-4.3h-7.5V77h-4.3v-4.3h-7.4V77h-2.5v4.3h2.5v18.9c0,0-15,1.2-25.7,3.2c-9.8,1.8-20.1,4.7-21.6,5.1v31.1H53v-10.4
		c0-4.1,3.3-7.6,7.6-7.6c4.1,0,7.6,3.3,7.6,7.6v10.4h19.9v-15.8c0-6.7,5.4-12,12-12c6.7,0,12,5.4,12,12v15.8H132v-10.4
		c0-4.1,3.3-7.6,7.6-7.6c4.1,0,7.6,3.3,7.6,7.6v10.4h15.6v-31C160.7,108,149.6,104.8,140,103.2"/>
	<path id="path102" inkscape:connector-curvature="0" class="st0" d="M49.5,38V25.2H37v-7.7h12.6V5.1h7.7v12.4h12.8v7.7H57.2V38
		C57.2,38,49.5,38,49.5,38z"/>
	<path id="path106" inkscape:connector-curvature="0" class="st3" d="M69.4,18.3H56.5V5.9h-6.2v12.4H37.7v6.2h12.6v12.8h6.2V24.5
		h12.8L69.4,18.3L69.4,18.3z"/>
	<path id="path110" inkscape:connector-curvature="0" class="st3" d="M98.6,195.2l1.4,1.1l1.4-1.1c11.9-9,18.8-11.4,27.1-14
		c8.3-2.5,17.9-5.4,26.2-14.6c8.9-9.7,10.3-24.4,10.3-32.3V3.1h-130v131.4c0.1,7.9,1.5,22.6,10.3,32.3c8.3,9.1,17.8,12,26.2,14.6
		C79.8,183.8,86.7,186.3,98.6,195.2 M100,199.6l-3-2.3c-11.6-8.7-18.3-11.1-26.3-13.5c-8.7-2.6-18.5-5.6-27.4-15.3
		c-9.4-10.4-10.9-25.7-11-34.1V0.4h135.4v134c-0.1,8.3-1.6,23.7-11,34.1c-8.8,9.7-18.7,12.6-27.4,15.3c-8.1,2.5-14.8,4.8-26.3,13.5
		L100,199.6z"/>
	<path id="path114" inkscape:connector-curvature="0" class="st0" d="M143.6,27.1l-9.4,1.4l5.8-7.1l-5.8-7.1l9.4,1.4l3.2-8.6
		l3.2,8.6l9.4-1.4l-5.8,7.1l5.8,7.1l-9.5-1.4l-3.2,8.6L143.6,27.1z"/>
	<path id="path118" inkscape:connector-curvature="0" class="st3" d="M145.7,20.4C145.7,20.3,145.7,20.3,145.7,20.4l-2.4-4.3
		l-7.2-1.1L145.7,20.4z"/>
	<path id="path122" inkscape:connector-curvature="0" class="st3" d="M145.3,21.1c0-0.1,0-0.1,0.1-0.2l-9.6-5.4l4.5,5.6
		C140.3,21.1,145.3,21.1,145.3,21.1z"/>
	<path id="path126" inkscape:connector-curvature="0" class="st3" d="M145.4,21.9c0-0.1,0-0.1-0.1-0.2h-5l-4.6,5.7L145.4,21.9z"/>
	<path id="path130" inkscape:connector-curvature="0" class="st3" d="M147.1,19.9c0.1,0,0.1,0,0.2,0.1l2.4-4.1l-2.5-6.7V19.9z"/>
	<path id="path134" inkscape:connector-curvature="0" class="st3" d="M147.9,20.4l9.4-5.4l-7.1,1.1l-2.5,4.2
		C147.8,20.3,147.9,20.4,147.9,20.4"/>
	<path id="path138" inkscape:connector-curvature="0" class="st3" d="M146.5,19.9V9.1l-2.5,6.8l2.4,4.1
		C146.4,19.9,146.5,19.9,146.5,19.9"/>
	<path id="path142" inkscape:connector-curvature="0" class="st3" d="M148.2,21.7c0,0.1,0,0.1,0,0.2l9.6,5.4l-4.5-5.5H148.2z"/>
	<path id="path146" inkscape:connector-curvature="0" class="st3" d="M145.8,22.5C145.7,22.5,145.7,22.4,145.8,22.5l-9.6,5.2
		l7.1-1.1L145.8,22.5z"/>
	<path id="path150" inkscape:connector-curvature="0" class="st3" d="M148.1,20.9c0,0.1,0,0.1,0,0.2h5l4.6-5.6L148.1,20.9z"/>
	<path id="path154" inkscape:connector-curvature="0" class="st3" d="M147.9,22.3c-0.1,0.1-0.1,0.1-0.2,0.2l2.5,4.2l7.3,1.1
		L147.9,22.3z"/>
	<path id="path158" inkscape:connector-curvature="0" class="st3" d="M146.5,22.8c-0.1,0-0.1,0-0.2-0.1l-2.4,4.1l2.5,6.7V22.8z"/>
	<path id="path162" inkscape:connector-curvature="0" class="st3" d="M147.2,22.7c-0.1,0-0.1,0-0.2,0.1v10.8l2.5-6.7L147.2,22.7z"/>
	<path id="path166" inkscape:connector-curvature="0" class="st3" d="M104.2,24c-0.5-0.3-1.1-0.5-1.5-0.8c-0.8-0.4-1.7-0.6-2.5-0.6
		c-0.6,0-1.2,0.1-2.1,0.3c-1.1,0.3-2.1,1-3,1.6c-0.4,0.3-0.7,0.5-1.1,0.7c-0.4,0.2-0.6,0.4-1,0.6c0.6-0.7,1.1-1.5,1.8-2.3
		c0.1-0.1,0.1-0.1,0.2-0.2c0.8-0.9,1.8-1.8,2.9-2c1.3-0.4,2.4-0.1,3.2,0.4c1.3,0.6,2.3,1.4,3.2,2.5C104.4,24.1,104.3,24.1,104.2,24
		 M127.3,19.7c-0.4-0.6-1-0.7-1.5-0.3c-0.8,0.7-1,1.8-1.6,2.6c-0.4,0.5-0.8,1.2-1.3,1.7c-1.6,1.2-3.3,1.8-5.4,1.8
		c-1.3,0-2.5-0.1-3.9-1c-0.4-0.2-5.4-3.8-7.2-4.7c-0.6-0.4-3-1.4-3.6-1.5c-1.4-0.4-3.6-1-6.1-0.4c-1.7,0.4-3.2,0.9-4.8,1.6
		c-2.3,1.1-4.6,2.2-6.8,3.3c-1.4,0.7-2.7,0.4-3.6-0.9c-0.9-1.2-2-2.2-3.3-3c-0.4-0.2-0.6-0.2-0.6,0.4c-0.3-0.3-0.3-0.6-0.5-0.9
		c-0.4-0.3-0.7-0.5-0.9,0.2c-0.1,0.4-0.4,0.4-0.6,0.5c-0.5,0.2-1.1,0.3-1.5,0.5c-0.7,0.5-1.4,1.1-2.3,1.4c-0.3,0.1-0.2,0.3-0.1,0.5
		c0.4,1,1.2,1.2,2.1,1.2c1.7,0,3,0.8,4,2c1,1.1,1.7,2.5,3.2,3.2c-1,0.9-1.8,1.7-3.1,1.8c-0.4,0-1,0-1.1,0.7c1.2,0.3,2.4,0.3,3.5-0.1
		c1-0.4,1.8-0.6,2.9-0.8c0.7-0.1,1.3-0.4,1.9-0.6c0.4-0.2,0.4-0.6,1-0.3c0.3,0.2,3.4-0.6,4.6-1.2c0.4-0.2,0.6-0.4,0.9-0.5
		c0.3-0.2,0.4-0.4,0.7-0.4c0.7-0.4,1.3-0.9,1.9-1.2c0.4-0.3,0.7-0.5,1.1-0.8c0.9-0.6,1.8-1.2,2.8-1.5c0.8-0.2,1.4-0.3,2-0.3
		c0.9,0,1.7,0.2,2.4,0.5c0.5,0.3,1,0.5,1.5,0.8c0.3,0.1,0.4,0.3,0.7,0.4l0.1,0.1c0.3,0.5,0.6,1,1,1.5c0.6,0.8,1.4,1.2,2.4,1.4
		c0.8,0.2,1.6,0.4,2.4,0.5c0.4,0.1,1,0.4,1,1c0,0.5-0.4,1-0.5,1.5c-0.2,0.4-0.5,0.3-0.8,0.4c-0.2,0.1-0.4,0.2-0.5,0.3
		s-0.3,0.4-0.3,0.5c0,0.3,0.3,0.3,0.5,0.3c0.5,0,1.1,0,1.7,0c0.3,0,0.4-0.1,0.6-0.4c0.6-1,1-2.2,1.7-3.2c0.1-0.2,0.1-0.4-0.1-0.4
		c-1.3-0.4-2.1-1.3-2.8-2.4c-0.3-0.4-0.6-0.9-0.9-1.3c-0.2-0.2-0.1-0.4,0-0.4c0.1-0.2,0.3,0,0.4,0c0.7,0.4,1.4,0.8,2,1.2
		c1.8,0.9,4,1.9,7.4,2.4c1.3,0.2,2.6-0.1,3.8-0.6c1.3-0.6,2.5-1.6,3.2-3C127.6,22.9,128,21.1,127.3,19.7"/>
	<path id="path170" inkscape:connector-curvature="0" class="st3" d="M61.6,42v2.2h-1V54h-2.8l-4.3-6.8l0,0v4.7h1.1v2.2h-4.5v-2.2h1
		v-7.6h-1v-2.2h3.7l4.5,7.3l0,0v-5.1h-1.1v-2.2L61.6,42L61.6,42z"/>
	<path id="path174" inkscape:connector-curvature="0" class="st3" d="M68.7,42v2.2h-1v3.4l3.2-3.4h-0.7V42h5v2.2h-1l-3,2.9l3.2,4.7
		h0.9V54h-5.2v-2.2h0.9l-1.8-2.6l-1.6,1.3v1.2h1v2.2h-4.7v-2.2h1v-7.6h-1V42L68.7,42L68.7,42z"/>
	<path id="path178" inkscape:connector-curvature="0" class="st3" d="M86.3,47.8c0,2.3,0.4,4,2.5,4c2.1,0,2.5-1.8,2.5-4
		S90.9,44,88.8,44C86.7,44,86.3,45.6,86.3,47.8 M83.3,47.8c0-3.4,1.1-6.1,5.4-6.1c4.2,0,5.4,2.6,5.4,6.1s-1.1,6.2-5.4,6.2
		C84.5,54.1,83.3,51.3,83.3,47.8"/>
	<path id="path182" inkscape:connector-curvature="0" class="st3" d="M98.7,50.3v1.1c1.1,0.2,1.8,0.4,2.5,0.4c1.1,0,1.7-0.4,1.7-1.1
		c0-1-1.2-1.2-2.6-1.6c-2.1-0.6-3.6-1.8-3.6-3.8c0-2.5,2-3.4,4.5-3.4c1.4,0,2.6,0.2,4.3,0.7v3.2h-2.2v-1.4c-0.9-0.2-1.5-0.2-2.1-0.2
		c-1,0-1.5,0.4-1.5,1.1c0,0.8,1.1,1.2,2.5,1.6c2.1,0.5,3.8,1.5,3.8,3.6c0,2.6-2,3.8-4.7,3.8c-1.4,0-2.9-0.2-4.7-0.7v-3.1L98.7,50.3
		L98.7,50.3z"/>
	<path id="path186" inkscape:connector-curvature="0" class="st3" d="M109.3,51.7v-7.6h-1V42h4.7v2.2h-1v7.6h1v2.2h-4.7v-2.2H109.3z
		"/>
	<path id="path190" inkscape:connector-curvature="0" class="st3" d="M121.7,42v2.2h-1v6.5c0,2.5-1.3,3.4-3.3,3.4
		c-0.8,0-1.5-0.1-2-0.2l0.3-2.2c0.4,0.1,0.6,0.1,1,0.1c0.7,0,1.3-0.2,1.3-1.2v-6.5h-1V42L121.7,42L121.7,42z"/>
	<path id="path194" inkscape:connector-curvature="0" class="st3" d="M133.5,42v3.2h-2.2v-1h-3.4v2.5h4.7V49h-4.7v2.9h3.4v-1h2.2
		v3.2h-9.3v-2.2h1v-7.6h-1v-2.2L133.5,42L133.5,42z"/>
	<path id="path198" inkscape:connector-curvature="0" class="st3" d="M140.7,42v2.2h-1v3.4l3.2-3.4h-0.7V42h5v2.2h-1l-3,2.9l3.2,4.7
		h0.9V54h-5.2v-2.2h0.9l-1.8-2.6l-1.5,1.5v1.2h1v2.2h-4.7v-2.2h1v-7.6h-1v-2.2L140.7,42L140.7,42z"/>
	<path id="path200" inkscape:connector-curvature="0" class="st3" d="M93.4,89.6h3.8v-5.6h-3.8V89.6z M102.9,89.6h3.8v-5.6h-3.8
		V89.6z M161.8,36.5h-30V6.3h30V36.5z M161.8,57.9H38.2V38.3h123.6V57.9z M161.8,107.4c-3.6-1-13.3-3.6-21.8-5
		c-9.9-1.7-20.7-2.7-23.7-3V82.1h2.5V76h-2.5v-4.3h-9.1V76h-2.5v-4.3h-9.1V76H93v-4.3h-9.1V76h-2.5v6.1h2.5v17.2
		c-3.2,0.3-15.7,1.5-24.9,3.2c-8.5,1.6-17.4,4-20.6,4.7V59.7h123.6L161.8,107.4z M97.3,77.9v-4.3h5.6v4.3h6.1v-4.3h5.6v4.3h2.5v2.5
		H83.1v-2.5h2.5v-4.3h5.6v4.3H97.3z M161.8,111.2c-17.3-5.3-38.8-8.4-58.4-8.8v-5.8c0-1.8-1.5-3.4-3.4-3.4c-1.8,0-3.4,1.5-3.4,3.4
		v5.8c-19.6,0.4-41.1,3.6-58.4,8.9v-2c2.6-0.7,11.9-3.2,20.9-4.8c10.5-1.9,25.5-3.2,25.6-3.2l0.8-0.1V82.3h29.1v18.9l0.8,0.1
		c0.1,0,12.9,1.1,24.3,3c8.9,1.5,18.9,4.2,22,5.1L161.8,111.2z M161.8,114.8c-18.4-5.5-41.4-8.9-61.7-8.9c-20.5,0-43.6,3.3-61.9,8.9
		v-1.9c18.3-5.6,41.4-9,61.9-9c20.5,0,43.6,3.3,61.7,9V114.8z M161.8,134.4c0,1.2-0.1,2.7-0.2,4.3h-13.7v-9.5c0-4.7-3.8-8.4-8.4-8.4
		s-8.4,3.8-8.4,8.4v9.5H113v-14.9c0-7.1-5.8-12.9-12.9-12.9s-12.9,5.8-12.9,12.9v14.9H68.9v-9.5c0-4.7-3.8-8.4-8.4-8.4
		s-8.4,3.8-8.4,8.4v9.5H38.4c-0.1-1.6-0.2-3-0.2-4.2v-17.6c18.3-5.6,41.4-9,61.9-9c20.5,0,43.6,3.3,61.7,9V134.4z M152.4,164.5
		c-7.7,8.4-16.8,11.2-24.8,13.6c-8.3,2.5-15.5,5.2-27.7,14c-12-8.9-19.4-11.6-27.7-14c-8-2.5-17-5.2-24.8-13.6
		c-6.2-6.8-8.4-16.6-9.1-24.1h15.4v-11.2c0-3.7,3-6.7,6.7-6.7s6.7,3,6.7,6.7v11.2h21.7v-16.7c0-6.1,5-11.2,11.2-11.2
		s11.2,5,11.2,11.2v16.7h21.7v-11.2c0-3.7,3-6.7,6.7-6.7c3.7,0,6.7,3,6.7,6.7v11.2h15.4C160.9,147.9,158.7,157.7,152.4,164.5
		 M38.2,6.3h29.9v30.2H38.2V6.3z M70,6.3h60.1v30.2H70V6.3z M163.6,107.9V4.6H36.4v103.3l0,0v0.4v26.2c0.1,7.6,1.4,22,9.9,31.3
		c8.1,8.8,17.3,11.6,25.6,14.1c8.3,2.5,15.5,5.1,27.7,14.1l0.5,0.4l0.5-0.4c12.1-9,19.4-11.7,27.6-14.1c8.2-2.5,17.5-5.3,25.6-14.1
		c8.5-9.3,9.8-23.6,9.9-31.3v-26.1L163.6,107.9L163.6,107.9z"/>
</g>
</svg>
