<?xml version="1.0" encoding="utf-8"?>
<!-- Generator: Adobe Illustrator 21.1.0, SVG Export Plug-In . SVG Version: 6.00 Build 0)  -->
<svg version="1.1" id="Layer_1" xmlns="http://www.w3.org/2000/svg" xmlns:xlink="http://www.w3.org/1999/xlink" x="0px" y="0px"
	 viewBox="0 0 200 200" style="enable-background:new 0 0 200 200;" xml:space="preserve">
<style type="text/css">
	.st0{fill:#2F529F;}
	.st1{fill:#FFE500;}
	.st2{fill:#C51718;}
	.st3{fill:#FFFFFF;}
</style>
<g>
	<path d="M158.2,41.9l11.9-15.3l-0.2-0.2C151,10.5,126.6,1,100,1v0c-26.6,0-51,9.6-69.9,25.4l-0.2,0.2l11.9,15.3
		c-19.1,16.4-31.2,40.7-31.2,67.8c0,49.3,40,89.3,89.3,89.3c49.3,0,89.3-40,89.3-89.3C189.3,82.6,177.3,58.3,158.2,41.9z"/>
	<path class="st0" d="M162.7,172.4c-16.1,16-38.2,26-62.7,26s-46.7-9.9-62.7-26c-16-16.1-26-38.2-26-62.7c0-24.5,9.9-46.7,26-62.7
		c1.6-1.6,3.2-3.1,4.9-4.6l22.5,28.8c-10.4,9.6-16.9,23.3-16.9,38.5c0,28.9,23.4,52.3,52.3,52.3c28.9,0,52.3-23.4,52.3-52.3
		c0-15.2-6.5-29-16.9-38.5l22.5-28.8c1.7,1.5,3.3,3,4.9,4.6c16,16,26,38.2,26,62.7C188.7,134.2,178.8,156.3,162.7,172.4z"/>
	<path class="st1" d="M39.1,56.7l16.2,11.5L53,71.3l-15.5-1.1l10.8,7.7l-2.2,3L30,69.5l2.3-3.3l15.2,1l-10.5-7.5L39.1,56.7z"/>
	<path class="st1" d="M23.7,83.2l19.3,4.6L42,91.7l-8.6-2l6.7,9.9l-1.3,5.2l-5.8-9.1l-13.6,4.8l1.2-5L31,92.4l-2.5-3.9l-5.8-1.4
		L23.7,83.2z"/>
	<path class="st1" d="M26,117.3l1.2,3.7c-1.2,0.5-2.1,1.2-2.5,2s-0.5,1.8-0.3,3c0.3,1.3,0.7,2.2,1.4,2.7s1.4,0.7,2.1,0.6
		c0.5-0.1,0.8-0.3,1.1-0.7c0.3-0.3,0.4-0.9,0.5-1.6c0.1-0.5,0.1-1.6,0.2-3.3c0.1-2.2,0.4-3.8,1-4.8c0.8-1.4,2-2.3,3.5-2.6
		c1-0.2,2-0.1,3,0.2c1,0.4,1.8,1,2.5,2c0.7,1,1.2,2.2,1.5,3.7c0.5,2.4,0.4,4.4-0.4,5.8c-0.8,1.5-2.1,2.4-3.8,2.9l-1-3.9
		c1-0.4,1.6-0.9,1.9-1.5c0.3-0.6,0.4-1.5,0.1-2.6c-0.2-1.1-0.7-2-1.3-2.5c-0.4-0.3-0.8-0.5-1.3-0.4c-0.5,0.1-0.8,0.4-1.1,0.8
		c-0.3,0.6-0.5,1.9-0.5,3.9c0,2-0.2,3.5-0.5,4.5c-0.3,1-0.8,1.9-1.5,2.6c-0.7,0.7-1.7,1.2-2.9,1.4c-1.1,0.2-2.2,0.2-3.3-0.3
		c-1.1-0.4-2-1.1-2.7-2.1c-0.7-1-1.3-2.4-1.6-4.1c-0.5-2.4-0.4-4.5,0.5-6C22.4,119.2,23.9,118.1,26,117.3z M44.9,116.8l0.6,3
		l-1.7,1.9l2.3,1.1l0.6,3l-4.5-1.9l-0.7-3.4L44.9,116.8z"/>
	<path class="st1" d="M27.9,145.2l17.6-9.2l1.9,3.5l-17.6,9.2L27.9,145.2z"/>
	<path class="st1" d="M36.3,159.4l14.4-13.7l5.8,6.1c1.5,1.5,2.4,2.8,2.8,3.7c0.4,0.9,0.5,1.9,0.2,3c-0.3,1-0.8,2-1.7,2.8
		c-1.1,1-2.3,1.6-3.6,1.6c-1.3,0-2.6-0.5-4-1.6c0.2,1,0.3,1.9,0.3,2.7s-0.3,2.1-0.8,3.9l-1.1,4.4l-3.3-3.5l1.1-5.1
		c0.4-1.8,0.6-3,0.7-3.5c0-0.6,0-1-0.2-1.4c-0.2-0.4-0.6-0.9-1.2-1.6l-0.6-0.6l-6,5.7L36.3,159.4z M47.3,154.4l2,2.1
		c1.3,1.4,2.2,2.2,2.7,2.4c0.4,0.2,0.9,0.3,1.4,0.2c0.5-0.1,0.9-0.3,1.4-0.7c0.5-0.5,0.8-1,0.8-1.5c0.1-0.5-0.1-1.1-0.5-1.6
		c-0.2-0.3-0.8-1-2-2.2l-2.2-2.3L47.3,154.4z"/>
	<path class="st1" d="M61.7,169.8c0.8-1.8,1.8-3.2,3-4.2c0.8-0.7,1.8-1.3,2.8-1.7c1-0.4,2.1-0.6,3.1-0.5c1.3,0,2.7,0.4,4.2,1.1
		c2.7,1.2,4.4,3,5.2,5.4c0.8,2.4,0.6,5-0.8,8c-1.3,2.9-3.2,4.8-5.5,5.7c-2.3,0.9-4.8,0.8-7.5-0.5c-2.7-1.2-4.4-3-5.2-5.4
		C60.1,175.3,60.4,172.6,61.7,169.8z M65.5,171.4c-0.9,2-1.2,3.8-0.7,5.3c0.5,1.5,1.4,2.6,2.9,3.2c1.4,0.7,2.9,0.7,4.3,0.1
		c1.4-0.6,2.6-2,3.6-4.1c1-2.1,1.2-3.8,0.8-5.2c-0.4-1.4-1.4-2.5-2.9-3.2c-1.5-0.7-2.9-0.7-4.3-0.1C67.7,168,66.5,169.3,65.5,171.4z
		"/>
	<path class="st1" d="M87.6,189.5l1.1-19.8l4,0.2l-0.5,8.8l8.6-8.4l5.4,0.3l-7.9,7.3l7.2,12.5l-5.2-0.3l-4.9-9.6l-3.4,3.1l-0.3,6
		L87.6,189.5z"/>
	<path class="st1" d="M115.9,188.5l-4.4-19.3l3.9-0.9l4.4,19.3L115.9,188.5z"/>
	<path class="st1" d="M127.5,164.3l6.5-4.5c1.3-0.9,2.3-1.5,3-1.8c0.7-0.3,1.4-0.5,2.2-0.5c0.7,0,1.5,0.2,2.2,0.5
		c0.7,0.3,1.3,0.9,1.8,1.6c0.5,0.8,0.8,1.6,0.8,2.5c0,0.9-0.2,1.8-0.7,2.6c1.2-0.4,2.3-0.4,3.3-0.1c1,0.3,1.8,1,2.5,1.9
		c0.5,0.7,0.8,1.6,1,2.5c0.1,0.9,0,1.8-0.3,2.7c-0.3,0.8-0.9,1.6-1.7,2.3c-0.5,0.4-1.8,1.4-3.9,2.8l-5.6,3.8L127.5,164.3z
		 M132.6,164.7l2.6,3.8l2.2-1.5c1.3-0.9,2.1-1.4,2.4-1.7c0.5-0.5,0.8-1,0.9-1.5c0.1-0.5,0-1.1-0.4-1.6c-0.3-0.5-0.8-0.8-1.3-0.9
		c-0.5-0.1-1,0-1.6,0.3c-0.4,0.2-1.3,0.8-2.9,1.9L132.6,164.7z M137.1,171.3l3,4.4l3.1-2.1c1.2-0.8,1.9-1.4,2.2-1.6
		c0.4-0.4,0.7-0.9,0.8-1.5c0.1-0.6-0.1-1.1-0.5-1.7c-0.3-0.5-0.7-0.8-1.2-1c-0.5-0.2-1-0.2-1.5,0c-0.6,0.2-1.6,0.7-3.1,1.8
		L137.1,171.3z"/>
	<path class="st1" d="M161.4,162.1l-16.3-11.3l4.8-6.9c1.2-1.7,2.2-2.9,3.1-3.5c0.8-0.6,1.8-0.9,2.9-0.8c1.1,0,2.1,0.4,3.1,1.1
		c1.2,0.9,2,1.9,2.3,3.2c0.3,1.3,0,2.7-0.7,4.3c0.9-0.4,1.8-0.7,2.6-0.8c0.8-0.1,2.1-0.1,3.9,0l4.6,0.2l-2.7,3.9l-5.2-0.1
		c-1.9,0-3.1,0-3.6,0.1c-0.5,0.1-1,0.3-1.4,0.5c-0.4,0.3-0.8,0.8-1.3,1.5l-0.5,0.7l6.8,4.7L161.4,162.1z M154.3,152.3l1.7-2.4
		c1.1-1.6,1.7-2.6,1.9-3.1c0.1-0.5,0.1-1,0-1.4c-0.2-0.4-0.5-0.8-1-1.2c-0.5-0.4-1.1-0.5-1.6-0.5c-0.5,0.1-1,0.3-1.5,0.8
		c-0.2,0.2-0.8,1-1.7,2.4l-1.8,2.6L154.3,152.3z"/>
	<path class="st1" d="M175.5,137.5l-18.8-6.4l1.3-3.8l18.8,6.4L175.5,137.5z"/>
	<path class="st1" d="M160.5,113.2l0.3-4l12.5,1c1.6,0.1,2.9,0.4,3.7,0.7c1.1,0.5,2,1.3,2.6,2.3c0.6,1.1,0.9,2.4,0.7,4.1
		c-0.2,1.9-0.8,3.4-2,4.4c-1.2,1-2.8,1.4-4.9,1.2l-0.1-3.8c1.1,0,1.9-0.1,2.4-0.3c0.7-0.4,1.2-1,1.2-1.9c0.1-0.9-0.1-1.5-0.6-1.9
		c-0.5-0.4-1.5-0.7-3.1-0.8L160.5,113.2z"/>
	<path class="st1" d="M179.8,97.5l-19.3,4.7L157.1,88l3.3-0.8l2.5,10.4l4.3-1l-2.4-9.7l3.2-0.8l2.4,9.7l5.2-1.3L173,83.7l3.2-0.8
		L179.8,97.5z"/>
	<path class="st1" d="M159.8,67.6l-2.7,1.9l-4.9-7.1l6.5-4.5c1.1,0.2,2.4,0.8,3.8,1.8c1.4,1,2.6,2.1,3.5,3.4c1.2,1.7,1.9,3.4,2,5.2
		c0.2,1.8-0.2,3.4-1.1,5c-0.9,1.6-2.1,2.9-3.7,4c-1.7,1.2-3.4,1.9-5.3,2.1c-1.8,0.2-3.5-0.1-5.2-1c-1.3-0.7-2.4-1.8-3.5-3.3
		c-1.4-2-2.1-3.9-2-5.6c0.1-1.7,0.7-3.3,2-4.6l2.9,2.8c-0.6,0.8-1,1.7-1,2.6c0,1,0.3,1.9,1,2.9c1,1.4,2.2,2.3,3.7,2.5
		c1.5,0.2,3.1-0.3,4.9-1.5c1.9-1.3,3.1-2.8,3.5-4.3c0.4-1.5,0.1-3-0.9-4.4c-0.5-0.7-1.1-1.3-1.8-1.8c-0.8-0.5-1.5-0.9-2.2-1.1
		l-2.1,1.4L159.8,67.6z"/>
	<path class="st2" d="M157.8,41.3l11.4-14.6c-7.6-6.3-16-11.6-25.1-15.7L137,28.1C144.5,31.5,151.6,36,157.8,41.3z"/>
	<path class="st3" d="M137,28.1l7.1-17.1c-9.3-4.2-19.2-7-29.7-8.4l-2.3,18.4C120.9,22.1,129.2,24.6,137,28.1z"/>
	<path class="st2" d="M55.9,11c-9.1,4.1-17.6,9.4-25.1,15.7l11.4,14.6C48.4,36,55.5,31.5,63,28.1L55.9,11z"/>
	<path class="st3" d="M87.9,20.9L85.6,2.6C75.1,4,65.2,6.9,55.9,11L63,28.1C70.8,24.6,79.1,22.1,87.9,20.9z"/>
	<path class="st2" d="M100,20.1c4.1,0,8.1,0.3,12.1,0.8l2.3-18.4c-4.7-0.6-9.5-1-14.4-1c-4.9,0-9.7,0.3-14.4,1l2.3,18.4
		C91.9,20.4,95.9,20.1,100,20.1z"/>
	<path class="st2" d="M87.9,20.9c-8.8,1.2-17.1,3.6-24.9,7.1l7.3,17.4c6.2-2.9,12.9-4.9,20-5.9L87.9,20.9z"/>
	<path class="st3" d="M100,38.9c3.3,0,6.6,0.2,9.8,0.7l2.3-18.7c-4-0.5-8-0.8-12.1-0.8c-4.1,0-8.1,0.3-12.1,0.8l2.3,18.7
		C93.4,39.2,96.7,38.9,100,38.9z"/>
	<path class="st2" d="M129.7,45.5l7.3-17.4c-7.8-3.5-16.1-6-24.9-7.1l-2.3,18.7C116.8,40.6,123.5,42.6,129.7,45.5z"/>
	<path class="st3" d="M129.7,45.5c6,2.8,11.6,6.4,16.5,10.7l11.6-14.8c-6.3-5.3-13.3-9.8-20.8-13.2L129.7,45.5z"/>
	<path class="st3" d="M70.3,45.5L63,28.1c-7.6,3.4-14.6,7.9-20.9,13.2l11.6,14.8C58.7,51.9,64.3,48.3,70.3,45.5z"/>
	<path class="st2" d="M134.8,70.7l11.4-14.6c-5-4.3-10.5-7.9-16.5-10.7l-7.1,17.1C127,64.7,131.2,67.5,134.8,70.7z"/>
	<path class="st2" d="M100,38.9c-3.3,0-6.6,0.2-9.8,0.7L92.5,58c2.4-0.3,4.9-0.5,7.5-0.5c2.5,0,5,0.2,7.5,0.5l2.3-18.3
		C106.6,39.2,103.3,38.9,100,38.9z"/>
	<path class="st2" d="M77.4,62.6l-7.1-17.1c-6,2.8-11.6,6.4-16.5,10.7l11.4,14.6C68.8,67.5,72.9,64.7,77.4,62.6z"/>
	<path class="st3" d="M92.5,58l-2.3-18.3c-7,1-13.7,3-20,5.9l7.1,17.1C82.1,60.3,87.2,58.7,92.5,58z"/>
	<path class="st3" d="M107.5,58c5.3,0.8,10.4,2.3,15.1,4.6l7.1-17.1c-6.2-2.9-12.9-4.9-20-5.9L107.5,58z"/>
	<path class="st3" d="M116.9,148.9l-15.3-5.7c-0.4-8.5-1.2-14.8-1.4-16l16-11.1c4,1.3,7.9,2.8,10.8,4c2.4,1,4.1,1.8,4.7,2l-0.3,18.1
		c-2.4,2.4-6,4.6-9,6.1C119.6,147.7,117.4,148.6,116.9,148.9z"/>
	<path class="st3" d="M86.1,150.8c-6.5-3.3-10.9-6.7-13.6-9.3c-1.4-1.3-2.4-2.4-3-3.2c-0.3-0.4-0.5-0.7-0.7-0.9
		c-0.1-0.1-0.1-0.2-0.2-0.2l-0.5-16.7c8-2,14.6-5,15.8-5.6l15.7,12.3c0.1,0.4,0.3,2,0.5,4.5c0.3,2.9,0.6,6.9,0.9,11.5L86.1,150.8z"
		/>
	<path class="st3" d="M66.4,86.8c0.1-0.1,0.2-0.2,0.3-0.2l15.8-4.2l7.8,13.3l-6.6,18.6c-0.4,0.2-2.1,1-4.6,2
		c-2.9,1.1-6.8,2.5-11.2,3.6L57.7,108c0.7-7.7,3-13.1,5-16.5c1-1.7,2-3,2.8-3.8C65.9,87.3,66.2,87,66.4,86.8z"/>
	<path class="st3" d="M91.5,67.7c2.9-0.4,5.5-0.5,7.7-0.5c4.6,0,7.8,0.7,9.8,1.3c1,0.3,1.7,0.6,2.1,0.9c0.2,0.1,0.4,0.2,0.5,0.3
		c0,0,0.1,0.1,0.1,0.1l8.8,12.5c-1.3,2.5-3.8,5.9-6,8.7c-1.9,2.5-3.6,4.5-4.1,4.9l-19.6-0.5L83,82L91.5,67.7z"/>
	<path class="st3" d="M137.5,86.8c0,0.1,0.1,0.1,0.1,0.2c0.8,1.6,4,9,4.1,24.1l-9.7,10.4c-1.3-0.6-8.2-3.7-15.5-6l-5.5-19.2
		c0.9-1.1,7.5-8.9,10.1-13.7L137.5,86.8z"/>
	<path class="st3" d="M142.3,111c0-16.2-3.8-23.7-4.3-24.6l1.1-10.3c7.7,9,12.4,20.7,12.4,33.6c0,3-0.3,5.9-0.7,8.8L142.3,111z"/>
	<path class="st3" d="M120.9,62.5L112,69c-0.9-0.6-4.6-2.6-12.7-2.6c-2.3,0-4.9,0.2-7.8,0.5L81,61.7c5.9-2.3,12.3-3.6,19-3.6
		C107.4,58.1,114.5,59.7,120.9,62.5z"/>
	<path class="st3" d="M62.3,74.5l3.8,11.7c-1.1,1-7.7,7.5-9.1,21.8l-8.1,9.4c-0.4-2.5-0.6-5.1-0.6-7.7
		C48.4,96.1,53.7,83.7,62.3,74.5z"/>
	<path class="st3" d="M56.6,137.5h11.5c0.7,1.1,5.6,7.8,17.7,13.9l5.6,9.1c-10.8-1.8-20.5-7-27.9-14.4
		C60.9,143.6,58.6,140.7,56.6,137.5z"/>
	<path class="st3" d="M136.5,146.2c-6.1,6.1-13.7,10.7-22.2,13.1l3-9.8c1.2-0.5,9.9-4.2,14.6-8.8l11.1-2.3
		C141,141.2,138.9,143.8,136.5,146.2z"/>
</g>
</svg>
