<?xml version="1.0" encoding="utf-8"?>
<!-- Generator: Adobe Illustrator 21.1.0, SVG Export Plug-In . SVG Version: 6.00 Build 0)  -->
<svg version="1.1" id="Layer_1" xmlns="http://www.w3.org/2000/svg" xmlns:xlink="http://www.w3.org/1999/xlink" x="0px" y="0px"
	 viewBox="0 0 200 200" style="enable-background:new 0 0 200 200;" xml:space="preserve">
<style type="text/css">
	.st0{fill:#FFCC00;}
	.st1{stroke:#FCCA00;stroke-width:1.7885;stroke-miterlimit:2.6131;}
	.st2{fill:none;stroke:#FCCA00;stroke-width:1.7885;stroke-miterlimit:2.6131;}
</style>
<g>
	<path class="st0" d="M100,195.2c52.6,0,95.2-42.6,95.2-95.2c0-52.6-42.6-95.2-95.2-95.2S4.8,47.4,4.8,100
		C4.8,152.6,47.4,195.2,100,195.2L100,195.2z"/>
	<path d="M2.4,100c0,53.8,43.8,97.6,97.6,97.6c53.8,0,97.6-43.8,97.6-97.6c0-53.8-43.8-97.6-97.6-97.6C46.2,2.4,2.4,46.2,2.4,100
		L2.4,100z M7.1,100C7.1,48.8,48.8,7.1,100,7.1c51.2,0,92.9,41.7,92.9,92.9c0,51.2-41.7,92.9-92.9,92.9S7.1,151.2,7.1,100L7.1,100z"
		/>
	<path d="M100,41.4c17.7,0,33.5,7.8,44.3,20.2h7.4c-11.7-15.8-30.5-26-51.6-26c-21.1,0-39.9,10.2-51.6,26h7.4
		C66.5,49.2,82.3,41.4,100,41.4L100,41.4z"/>
	<path d="M100,158.6c-18.5,0-35.1-8.6-45.8-22.1l-7.2,0c11.6,16.8,31,27.9,53,27.9c21.8,0,41.2-10.9,52.8-27.6l-7.2,0
		C134.9,150.1,118.4,158.6,100,158.6L100,158.6z"/>
	<path d="M30.2,75.6c0,0-0.2,35.6,0,37.2c3.5,0.7,8.2,4.9,16.4,3.7c0-2.1,0-18.5,0-18.5s12.9,13.4,15.7,15.9
		c8.2-0.5,14.3,3.3,16.7,3.1c0.2-2.6,0-41.3,0-41.3H66.7v19l-16.9-19L30.2,75.6L30.2,75.6z"/>
	<path d="M137,90c-5.4-0.6-16.2-1.1-18.7-1.8c-5.4-1.6-0.9-4.2,2.4-4.2c5.9,0,7.5,2.6,7.5,2.6H149c0,0,2.1-12.8-23.7-13.1
		c-14.7-0.2-21.1,5.2-21.1,5.2l-1.7,34.4c0,0,2.8,3.4,11.3,4c7.7,0.5,15.5-5.9,18.5-5.9c3,0,7.2,2.6,11.7,2.3
		c2.5-0.2,7.5-4.9,7.3-10.8C151.1,94.6,143.8,90.8,137,90L137,90z M128.3,106.3c-2.7,0.7-2.8,1.4-7.3-1.1c-1.5-0.8-4.4-1.6-6.1-1
		c-1.3,0.4-4.7-0.5-4.7-0.5l1.7-3.1c0,0,14.3,1.3,16.7,1.7C130.5,102.6,132.4,105.2,128.3,106.3L128.3,106.3z"/>
	<path d="M152.8,74.4v40.5c0,0,3,1.4,5.1,1.2c18.5-13.4,16.4-41.7,16.4-41.7L152.8,74.4L152.8,74.4z"/>
	<polygon points="154.9,72.3 172.9,72.3 176.2,63.9 159.8,63.9 	"/>
	<path class="st1" d="M92.1,119.3c12.9,0,23.3-10.4,23.3-23.3c0-12.9-10.4-23.3-23.3-23.3c-12.9,0-23.3,10.4-23.3,23.3
		C68.8,108.8,79.2,119.3,92.1,119.3L92.1,119.3z"/>
	<path class="st2" d="M78.1,114.5c0,0,11.5-4.6,13.6-19.6c-9.2-7.3-9.8-19.5-9.8-19.5 M86.4,107.3c-13.1-8-16-20.1-16-20.1
		 M83.8,83.4c11.2-7.2,25.6-2.8,25.6-2.8 M91.6,94.9c0,0,13.1-4,23.7,1 M105.1,93.5c-1.4,19.4-13,25.7-13,25.7"/>
	<path d="M17.5,118.7c0,0,2.4-1.2,6.3-1.2c2.3,0,12.6,2.1,15.5,2.1c3,0,9.1-2.4,16-2.4c11.5,0,14.3,3,14.3,3s-8.5-1-15.3,0.5
		c-2.6,0.6-10.8,4.1-14,4c-6.3-0.2-8.3-2.6-13.3-4.2C21,118.5,17.5,118.7,17.5,118.7L17.5,118.7z"/>
	<path d="M59.2,123.5c0,0,3.1-2.3,7.8-2.1c2.1,0.1,10.1,1.2,15.3,1.4c5.6,0.2,8.7-2.6,8.7-2.6c5.9,0,16,4,23,4.9
		c0,0-1.8,3.1-8.7,2.6c-10.1-0.7-16.2-1.7-19.2-1.7c-2.2,0-5.2,1.3-5.2,1.3s-2.4-1.7-8.9-3C65.6,123.2,59.2,123.5,59.2,123.5
		L59.2,123.5z"/>
	<path d="M111.5,121.1c0,0,13.6-0.9,20.2-5.9c0.3-1.9,0.7-3,4.4-1.7c3.5,1.2,11.7,5.9,17.8,6.3c2.6,0.2,6.6-0.9,8.7-0.9
		c1.6,0,3.7,1.4,3.7,1.4c-6.1,0.3-10.5,5.1-15.3,4.7c-9.4-0.7-16.6-4-16.6-4s-10.8,3.1-14.7,3C114.1,123.7,111.5,121.1,111.5,121.1
		L111.5,121.1z"/>
	<polygon points="52.1,152.4 53.2,153.4 56.7,153 55,151.5 54.9,151.5 	"/>
	<path d="M66.7,167.3c0.3-0.6,0.5-1.1,0.5-1.7c0-0.2,0-0.4-0.1-0.7c-0.2-0.9-1-1.7-2.2-2.4l-4.7-2.7l-7.2-5.5l0.1-0.1l-1.4-1.3
		l-0.1,0.1l-7.6,8.6l1.4,1.3l6.5-7.3l0,0c0,0,2.8,2.1,3,2.3c-0.2,0.3-6,7.9-6,7.9l1.5,1.2c0,0,5.8-7.6,6-7.9
		c0.3,0.2,2.5,1.9,2.9,2.2l-5,8.6l1.7,1c0,0,2.2-3.9,2.4-4.2c0.3,0.2,3,1.8,3,1.8c0.8,0.5,1,0.9,1,1.4c0,0.4-0.2,0.8-0.4,1.1
		c-0.2,0.4-1,1.9-1.2,2.6l0,0.1l1.9,1.1l0.3-0.5l-0.1-0.1c-0.1-0.2-0.2-0.3-0.2-0.4c0-0.2,0.1-0.3,0.2-0.6l0.9-1.8
		c0.3-0.6,0.4-1,0.4-1.4c0-0.4-0.1-0.7-0.3-1C65,168.9,65.9,168.6,66.7,167.3L66.7,167.3z M61,162.3c0.3,0.2,3.1,1.8,3.1,1.8
		c0.4,0.2,0.9,0.6,1,1.1c0,0.1,0,0.2,0,0.3c0,0.3-0.1,0.6-0.3,1c-0.3,0.5-0.6,0.8-1,0.9c-0.5,0.1-1,0-1.7-0.4c0,0-2.6-1.5-2.9-1.7
		C59.5,164.9,60.9,162.5,61,162.3L61,162.3z"/>
	<polygon points="74.9,163.8 72.5,165.5 73.9,166.1 77.1,164.5 75,163.7 	"/>
	<path d="M73.3,166.3c-1.5-0.6-2.9-0.6-4.2-0.1c-1.4,0.6-2.7,2-3.4,3.6c-0.9,2.1-1.2,6.1,3,7.8c1.5,0.6,2.9,0.6,4.2,0.1
		c1.4-0.6,2.7-2,3.4-3.6c0.3-0.7,0.5-1.7,0.5-2.7C76.8,169.4,76,167.4,73.3,166.3L73.3,166.3z M74.5,173.3c-1,2.5-3,3.5-5.1,2.7
		c-2.1-0.8-2.8-3-1.8-5.5c1-2.5,3-3.5,5.1-2.7c0.9,0.4,1.6,1,2,1.9C75.1,170.8,75,172,74.5,173.3L74.5,173.3z"/>
	<path d="M94.7,171.7l-8.7-1.2l-8.5-2.2l0,0.2l-0.4,1.5c0,0,3.4,0.9,3.7,1c-0.1,0.4-2.5,9.6-2.5,9.6L80,181c0,0,2.4-9.2,2.5-9.6
		c0.2,0.1,1.5,0.4,2.5,0.6l0,0.1c0,0,0.2,0,0.6,0.1c0.4,0.1,0.6,0.2,0.6,0.2l0-0.1c1,0.1,2.3,0.3,2.5,0.4c-0.1,0.4-1.4,9.8-1.4,9.8
		l1.9,0.3c0,0,1.3-9.5,1.4-9.8c0.4,0,3.8,0.5,3.8,0.5L94.7,171.7L94.7,171.7z"/>
	<path d="M95.7,171.6l-0.1,0.1l-4.9,11.3l2,0.1c0,0,1.2-3,1.3-3.2c0.3,0,4,0.2,4.2,0.2c0.1,0.2,1,3.3,1,3.3l2.1,0.1l-3.7-11.8
		L95.7,171.6L95.7,171.6z M97.7,178.4c-0.4,0-2.5-0.1-2.9-0.1c0.2-0.4,1.4-3.4,1.7-4.1C96.7,174.8,97.6,177.9,97.7,178.4L97.7,178.4
		z"/>
	<path d="M112,182.1c-0.4-0.2-0.5-0.3-0.5-0.9l-0.3-2c-0.2-1.4-0.7-1.8-1.3-2c0.6-0.5,1.1-1.2,1.1-2.4c0-0.1,0-0.2,0-0.4
		c-0.2-2.1-1.6-3.1-4.2-2.9l-5.4,0.4l1,11.6l1.9-0.2c0,0-0.4-4.5-0.4-4.8c0.4,0,3.5-0.3,3.5-0.3c0.6-0.1,1.1,0.1,1.4,0.3
		c0.4,0.3,0.5,0.9,0.5,1.3c0,0.4,0.2,2.2,0.5,2.9l0.1,0.1l2.2-0.2l0-0.6L112,182.1L112,182.1z M103.8,176.8c0-0.3-0.3-3.1-0.3-3.4
		c0.4,0,3.6-0.3,3.6-0.3c0.8-0.1,1.8,0,2,1.5c0,0.1,0,0.2,0,0.2c0,1-0.6,1.6-2,1.7C107.1,176.5,104.2,176.8,103.8,176.8L103.8,176.8
		z"/>
	<path d="M124,178.1c-0.1-0.3-1-2.9-1.1-3.2c0.3-0.1,5.8-2,5.8-2l-0.6-1.6c0,0-5.5,1.9-5.8,2c-0.1-0.3-0.9-2.6-1-2.9
		c0.3-0.1,6.3-2.1,6.3-2.1l-0.6-1.6l-0.2,0.1l-8,2.7l0,0l-0.1,0l-7.8,1.6l2.4,11.4l1.9-0.4c0,0-1-4.7-1-5c0.4-0.1,5.4-1.1,5.4-1.1
		l-0.4-1.7c0,0-5.1,1.1-5.4,1.1c-0.1-0.3-0.6-2.7-0.6-3c0.4-0.1,6.1-1.3,6.1-1.3l-0.1-0.6l3.4,9.9l8.3-2.8l-0.6-1.6
		C130.5,175.9,124.4,178,124,178.1L124,178.1z"/>
	<path d="M138.3,160.6l-1.6,1l2.3,11.6l-0.5-1.1c0,0-4.8,2.3-5.2,2.4c-0.2-0.3-4.2-9-4.2-9l-0.2,0.1l-1.6,0.7l5,10.6l6.8-3.2l0,0.1
		l1.7-1c0,0-0.7-3.2-0.7-3.4c0.2-0.1,3.4-2.1,3.6-2.2c0.2,0.2,2.7,2.2,2.7,2.2l1.8-1.1l-9.7-7.7L138.3,160.6L138.3,160.6z
		 M142.2,166c-0.4,0.2-2.1,1.3-2.5,1.5c-0.1-0.4-0.7-3.6-0.9-4.4C139.4,163.7,141.9,165.7,142.2,166L142.2,166z"/>
	<path d="M152.4,156.6l-4.1,3.4l1.1,1.3c0,0,2.4-2,2.7-2.2c0.6,0.7,0.8,1.4,0.8,2.1c0,0.2,0,0.5-0.1,0.7c-0.2,1-0.8,1.5-1.3,1.9
		c-0.8,0.7-1.6,0.9-2.4,0.9c-1-0.1-2.1-0.8-3.1-2.1c-1.6-2-1.7-4.3,0-5.6c0.9-0.8,2.4-1.4,3.9-0.3l0.1,0.1l1.4-1.2l-0.2-0.2
		c-2-1.9-4.6-1.2-6.3,0.1c-2.8,2.3-2.4,5.8-0.5,8.2c0.7,0.9,2,2.5,4.5,2.7c0.9,0.1,2.1,0,3.6-1.2c1.1-0.9,1.8-2.2,1.8-3.5
		c0.3,0.3,1,0.8,1,0.8l1-0.8L152.4,156.6L152.4,156.6z"/>
	<path d="M52.5,43.8c0,0-4.7-6-5.3-6.8c1,0.4,9.6,3.5,9.6,3.5l1.6-1.2L51.2,30l-0.2,0.1l-1.3,1c0,0,4.7,6,5.3,6.8
		c-1-0.4-9.6-3.5-9.6-3.5l-1.7,1.3l7.2,9.2L52.5,43.8L52.5,43.8z"/>
	<path d="M68.2,33.5L67.4,32c0,0-5.6,3.1-5.9,3.3c-0.2-0.3-1.5-2.7-1.6-2.9c0.3-0.2,5.4-3,5.4-3l-0.9-1.5c0,0-5.1,2.8-5.4,3
		c-0.2-0.3-1.3-2.4-1.5-2.7c0.3-0.2,5.8-3.3,5.8-3.3l-0.9-1.5l-0.2,0.1l-7.3,4.1l5.7,10.2L68.2,33.5L68.2,33.5z"/>
	<path d="M70.6,26.6l2.3-0.3c1.9-0.2,2.4-0.1,2.7,0.9c0.1,0.4,0.1,0.7,0,1.1c-0.4,0.8-1.5,1.3-2,1.5c-0.5,0.2-1.6,0.5-2.4,0.1
		c-0.5-0.2-0.9-0.7-1.2-1.3L70,28.4L68.3,29l0.1,0.2c0.4,0.9,0.9,1.9,2.2,2.4c0.8,0.3,1.8,0.5,3.7-0.2c2.1-0.8,4-2.5,3-5
		c-0.6-1.6-1.9-2.3-3.7-2l-3.3,0.4c-0.8,0.1-1.3-0.1-1.5-0.7c-0.5-1.5,0.8-2.2,1.6-2.5c0.5-0.2,2.4-0.7,3.2,1.1l0.1,0.2l1.7-0.6
		l-0.1-0.2c-1-2.3-2.9-2.9-5.6-1.9c-2.8,1.1-3.1,3.3-2.5,4.9C67.5,25.8,68.4,26.9,70.6,26.6L70.6,26.6z"/>
	<path d="M87.1,22l2.4,0.2c1.9,0.2,2.3,0.4,2.5,1.5c0.1,0.4,0,0.8-0.2,1.1c-0.5,0.7-1.7,1-2.2,1c-0.6,0.1-1.6,0.1-2.4-0.4
		c-0.5-0.3-0.7-0.9-0.8-1.6l0-0.2l-1.8,0.3l0,0.2c0.1,1,0.4,2,1.6,2.8c0.7,0.5,1.7,0.9,3.7,0.6c1.5-0.2,2.8-0.9,3.5-1.8
		c0.5-0.7,0.7-1.5,0.6-2.5c-0.2-1.7-1.3-2.6-3.1-2.8l-3.3-0.3c-0.8-0.1-1.3-0.4-1.3-1.1c-0.1-0.5,0-0.9,0.3-1.2
		c0.5-0.6,1.3-0.8,1.8-0.9c0.6-0.1,2.5-0.2,2.9,1.7l0,0.2l1.8-0.3l0-0.2c-0.5-2.5-2.2-3.5-5.1-3.1c-1.3,0.2-2.3,0.7-2.9,1.5
		c-0.6,0.7-0.8,1.7-0.6,2.7C84.3,20.6,85,21.8,87.1,22L87.1,22z"/>
	<polygon points="104.6,11.5 102.3,11.5 102.3,11.6 100.6,14 102.1,14.1 	"/>
	<path d="M101.4,26.7c1.6,0,3-0.4,4-1.4c1.1-1.1,1.8-2.8,1.8-4.6c0-1.8-0.6-3.6-1.7-4.7c-1-1-2.3-1.5-3.9-1.6
		c-4.5-0.1-5.8,3.7-5.8,6C95.8,22.8,96.9,26.6,101.4,26.7L101.4,26.7z M101.6,16.2c1,0,1.9,0.4,2.5,1c0.8,0.8,1.2,2,1.2,3.4
		c0,1.4-0.5,2.6-1.3,3.4c-0.7,0.6-1.5,1-2.5,0.9c-1,0-1.9-0.4-2.5-1c-0.8-0.8-1.2-2-1.2-3.4C97.9,17.9,99.4,16.2,101.6,16.2
		L101.6,16.2z"/>
	<path d="M111.6,23.2c0.1-0.1,1.5-1,1.8-1.2c0.2,0.4,2.8,6.1,2.8,6.1l2.4,0.4c0,0-3.5-7.4-3.6-7.7c0.3-0.2,5.7-3.8,5.7-3.8l-2.6-0.5
		c0,0-5.3,3.7-6,4.2c0.1-0.8,0.9-5.1,0.9-5.1l-1.9-0.3l0,0.2l-2,11.3l1.9,0.3C110.9,27.2,111.6,23.3,111.6,23.2L111.6,23.2z"/>
	<path d="M121.5,29.6c0,0,2.5-7.2,2.9-8.2c0.2,1.1,2.3,10,2.3,10l1.9,0.7l3.8-11l-1.8-0.6c0,0-2.5,7.1-2.8,8.2
		c-0.2-1.1-2.2-9.9-2.2-9.9l-2-0.7l-0.1,0.2l-3.8,10.8L121.5,29.6L121.5,29.6z"/>
	<path d="M131.6,33.5c0,0,2.4-2.2,2.6-2.3c0.2,0.1,3.5,1.9,3.7,2c0,0.3-0.6,3.4-0.6,3.4l1.8,1l1.8-12.3l-1.8-0.9l-0.1,0.1l-9.3,8.1
		L131.6,33.5L131.6,33.5z M135.5,29.9c0.3-0.3,2.8-2.5,3.3-3c-0.1,0.8-0.7,4-0.7,4.4C137.8,31.1,135.9,30.1,135.5,29.9L135.5,29.9z"
		/>
	<path d="M142,39.6c0,0,2.7-3.6,2.9-3.9c0.3,0.2,2.8,2.1,2.8,2.1c0.5,0.4,0.8,0.8,0.9,1.2c0,0.1,0,0.1,0,0.2c0,0.4-0.3,0.8-0.5,1.2
		c-0.3,0.3-1.3,1.8-1.5,2.5l0,0.1l1.8,1.3l0.3-0.4l0-0.1c-0.1-0.2-0.1-0.3-0.1-0.4c0-0.2,0.1-0.4,0.3-0.7L150,41
		c0.4-0.7,0.6-1.2,0.6-1.6c0-0.3-0.1-0.6-0.2-0.8c0.9,0,1.8-0.1,2.7-1.3c1.3-1.7,0.8-3.4-1.2-4.9l-4.3-3.2l-0.1,0.2l-6.9,9.2
		L142,39.6L142,39.6z M150.9,33.8c0.3,0.3,0.8,0.7,0.9,1.2c0,0.1,0,0.1,0,0.2c0,0.3-0.1,0.7-0.4,1.1c-0.3,0.5-0.7,0.7-1.1,0.8
		c-0.5,0.1-1-0.1-1.6-0.6c0,0-2.4-1.8-2.7-2c0.2-0.3,1.9-2.5,2.1-2.7C148.3,31.8,150.9,33.8,150.9,33.8L150.9,33.8z"/>
	<path d="M89.3,148v-11.4h-0.2h-1.2l0,0.2c-0.4,1.6-1,1.8-2.8,1.9l-0.2,0v1.5c0,0,2.2,0,2.6,0c0,0.4,0,7.8,0,7.8H89.3L89.3,148z"/>
	<path d="M96.1,146.7c-1,0-1.6-0.6-1.7-1.6l0-0.2h-1.8v0.2c0,1.1,0.7,3.1,3.5,3.1c3.9,0,4.2-4.9,4.2-6.4c0-4.4-2.2-5.3-4.1-5.3
		c-2.6,0-3.7,2.1-3.7,4c0,2.2,1.5,3.7,3.7,3.7c0.8,0,1.7-0.3,2.3-0.8C98.1,145.7,97.4,146.7,96.1,146.7L96.1,146.7z M96.4,142.7
		c-0.9,0-2-0.2-2-2.2c0-1.4,0.8-2.3,1.9-2.3c1.8,0,2,1.5,2,2.1C98.3,142.4,97,142.7,96.4,142.7L96.4,142.7z"/>
	<path d="M101.3,143.1l1.5,0.1l0.1-0.1c0.5-0.6,1.2-1,1.9-1c1.4,0,2.3,0.9,2.3,2.3c0,1.4-0.9,2.3-2.1,2.3c-0.7,0-2-0.2-2.1-1.7
		l0-0.2h-1.8l0,0.2c0.3,2.9,2.7,3.2,3.8,3.2c4,0,4.2-3.4,4.2-4.1c0-2.4-2-3.7-3.8-3.7c-0.7,0-1.3,0.2-1.9,0.5
		c0.1-0.6,0.3-2.2,0.4-2.4c0.3,0,4.7,0,4.7,0v-1.7h-0.2h-5.9L101.3,143.1L101.3,143.1z"/>
	<path d="M111.1,148h1.9l0-0.2c0.7-4.6,3.2-8.1,4.5-9.5l0.1-0.1v-1.5h-0.2h-7.8v1.7c0,0,5.2,0,5.9,0c-2.2,2.6-4,6.4-4.3,9.2
		L111.1,148L111.1,148z"/>
</g>
</svg>
