<?xml version="1.0" encoding="utf-8"?>
<!-- Generator: Adobe Illustrator 21.1.0, SVG Export Plug-In . SVG Version: 6.00 Build 0)  -->
<svg version="1.1" id="svg2" xmlns:svg="http://www.w3.org/2000/svg"
	 xmlns="http://www.w3.org/2000/svg" xmlns:xlink="http://www.w3.org/1999/xlink" x="0px" y="0px" viewBox="0 0 200 200"
	 style="enable-background:new 0 0 200 200;" xml:space="preserve">
<style type="text/css">
	.st0{fill:#FFFFFF;}
</style>
<g>
	<path id="path3397_1_" class="st0" d="M100,194.7c7.2-8,18.9-12.5,30.7-16.8c36.3-13.3,67.9-37.1,34.3-91.2
		c-14.5-23.4-8.3-39.3,11.1-53.3l-23.6-29c-16.1,8.4-32.4,15.1-52.5,0c-20.1,15.1-36.4,8.4-52.5,0l-23.6,29
		c19.4,14,25.6,29.9,11.1,53.3c-33.6,54.1-1.9,77.9,34.3,91.2C81.1,182.3,92.8,186.8,100,194.7z"/>
	<path d="M100,200l-2.6-2.9c-6.3-7.1-16.6-11.2-29.3-15.9c-12.2-4.5-21.9-9.4-29.5-15c-9.5-6.9-15.9-15.1-19-24.2
		c-2.6-7.7-3.1-16.2-1.2-25.4c2-9.7,6.6-20.4,13.6-31.8c6.5-10.5,8.7-19.5,6.7-27.5c-1.8-7.3-7.4-14.3-16.9-21.1l-3-2.2L46.6,0
		l2.5,1.3c15.9,8.3,30.5,14,48.8,0.3L100,0l2.1,1.6c18.3,13.7,32.9,8,48.8-0.3l2.5-1.3l27.8,34.1l-3,2.2
		c-9.5,6.9-15.1,13.8-16.9,21.1c-2,8,0.2,17,6.7,27.5c7.1,11.4,11.7,22.1,13.6,31.8c1.9,9.1,1.5,17.7-1.2,25.4
		c-3.1,9.1-9.5,17.3-19,24.2c-7.7,5.6-17.3,10.5-29.5,15c-12.7,4.7-23,8.8-29.3,15.9L100,200z M28.9,32.8C38,40,43.5,47.5,45.5,55.7
		c2.5,9.9,0,20.7-7.6,32.9c-12.5,20.2-16.5,37.4-11.8,51.2c5,14.4,19.4,25.8,44.3,34.9c12.1,4.5,22.2,8.5,29.5,15.1
		c7.3-6.6,17.3-10.7,29.5-15.1c24.9-9.1,39.4-20.5,44.3-34.9c4.7-13.8,0.8-31-11.8-51.2c-7.6-12.2-10.1-23-7.6-32.9
		c2-8.2,7.5-15.7,16.6-22.9l-19.5-24c-7,3.5-15,7-23.5,7.9c-9.7,0.9-18.9-1.7-28.1-8c-7.9,5.5-15.9,8.1-24.3,8.1
		c-1.3,0-2.6-0.1-3.9-0.2c-8.5-0.8-16.5-4.3-23.5-7.9L28.9,32.8z"/>
	<path id="path3395" d="M157.2,60.6c1-10.4,7.8-19.1,18.9-27.2l-23.6-29c-6.1,3.2-12.2,6.1-18.5,7.7L21.4,119.3
		c-3.7,22.3,7.5,37.1,24.1,47.4L157.2,60.6z"/>
	<path id="path3364" class="st0" d="M131.7,21.1l-5.7,5.6l10.6,10.9L126,47.8l-10.7-11.1l-5.7,5.6L138.3,72l5.7-5.6l-12.5-12.9
		l10.5-10.1l12.6,13l5.7-5.6L131.7,21.1z M96.1,62.7c-4,0-7.8,1.1-11,3.1L84,64.6l-6.5,6.2l1.1,1.2c-2.3,3.4-3.6,7.4-3.6,11.8
		c0,11.6,9.5,21.1,21.1,21.1c4.1,0,7.9-1.2,11.1-3.2l1.2,1.3l6.5-6.3l-1.2-1.3c2.2-3.4,3.6-7.4,3.6-11.7
		C117.3,72.2,107.8,62.7,96.1,62.7z M127.8,71.7c-2.5,0-4.5,2-4.5,4.5c0,2.5,2,4.5,4.5,4.5c2.5,0,4.5-2,4.5-4.5
		C132.3,73.7,130.3,71.7,127.8,71.7z M96.1,71.7c6.7,0,12.1,5.4,12.1,12.1c0,1.8-0.4,3.4-1,4.9L91.7,72.6C93,72,94.5,71.7,96.1,71.7
		z M85.1,78.8l15.7,16.3c-1.4,0.6-3,0.9-4.6,0.9C89.4,96,84,90.6,84,83.8C84,82,84.4,80.3,85.1,78.8z M54.6,102.6
		c-11.6,0-21.1,9.5-21.1,21.1c0,11.6,9.5,21.1,21.1,21.1c11.6,0,21.1-9.5,21.1-21.1C75.8,112.1,66.3,102.6,54.6,102.6z M86.3,111.6
		c-2.5,0-4.5,2-4.5,4.5c0,2.5,2,4.5,4.5,4.5c2.5,0,4.5-2,4.5-4.5C90.8,113.6,88.8,111.6,86.3,111.6z M54.6,111.6
		c6.7,0,12.1,5.4,12.1,12.1c0,6.7-5.4,12.1-12.1,12.1c-6.7,0-12.1-5.4-12.1-12.1C42.5,117,47.9,111.6,54.6,111.6z"/>
</g>
</svg>
