<?xml version="1.0" encoding="utf-8"?>
<!-- Generator: Adobe Illustrator 21.1.0, SVG Export Plug-In . SVG Version: 6.00 Build 0)  -->
<svg version="1.1" id="Layer_1" xmlns="http://www.w3.org/2000/svg" xmlns:xlink="http://www.w3.org/1999/xlink" x="0px" y="0px"
	 viewBox="0 0 200 200" style="enable-background:new 0 0 200 200;" xml:space="preserve">
<style type="text/css">
	.st0{fill-rule:evenodd;clip-rule:evenodd;}
	.st1{fill:#FFFFFF;}
	.st2{fill-rule:evenodd;clip-rule:evenodd;fill:#FFFFFF;}
	.st3{fill-rule:evenodd;clip-rule:evenodd;fill:#0068A2;}
	.st4{fill-rule:evenodd;clip-rule:evenodd;fill:#231F20;}
</style>
<g>
	<path class="st0" d="M100,0C44.9,0,0,44.9,0,100c0,55.1,44.9,100,100,100s100-44.9,100-100C200,44.9,155.1,0,100,0L100,0z"/>
	<path class="st1" d="M131.7,180.5c16.3-6.4,30.3-17.7,40-32c9.4-13.8,14.9-30.5,14.7-48.5c-0.1-15-4.1-29.1-10.9-41.4
		c-7.1-12.8-17.3-23.6-29.5-31.5l1.7-2.7c12.6,8.1,23.2,19.4,30.5,32.6c7.1,12.8,11.1,27.4,11.3,42.9c0.1,18.6-5.5,35.9-15.3,50.3
		c-10.1,14.8-24.6,26.5-41.5,33.2L131.7,180.5L131.7,180.5z M50,29.5c-11.2,8-20.5,18.6-26.9,30.9C17,72.3,13.5,85.8,13.5,100
		c0,17.4,5.2,33.6,14.1,47.2c9.2,14,22.3,25.3,37.8,32.1l-1.3,2.9c-16.1-7.1-29.7-18.7-39.2-33.2c-9.2-14.1-14.6-30.9-14.6-49
		c0-14.8,3.6-28.7,10-41c6.6-12.8,16.2-23.8,27.9-32.1L50,29.5L50,29.5z"/>
	<path class="st2" d="M100,100V25c-41.3,0-75,33.7-75,75c0,41.3,33.7,75,75,75V100L100,100z"/>
	<path class="st3" d="M100,100v75c41.3,0,75-33.7,75-75c0-41.3-33.7-75-75-75V100L100,100z"/>
	<polygon points="88.8,22.4 88.8,177.9 77.4,177.9 77.4,22.4 88.8,22.4 	"/>
	<polygon points="66.7,29.4 66.7,171.1 55.2,165.6 55.2,35.2 66.7,29.4 	"/>
	<polygon points="44.5,45.1 44.5,157.4 33.1,140 33.1,57.2 44.5,45.1 	"/>
	<path class="st4" d="M130.5,111c3,0,5.9,0.6,8.5,1.6c2.8,1.2,5.2,2.9,7.3,4.9c2.1,2.1,3.7,4.6,4.9,7.3c1.1,2.6,1.7,5.5,1.7,8.5
		s-0.6,6-1.7,8.5c-1.1,2.8-2.8,5.3-4.9,7.3c-2.1,2.1-4.5,3.7-7.3,4.9c-2.7,1.1-5.5,1.7-8.5,1.7c-3,0-5.9-0.6-8.5-1.7
		c-2.7-1.2-5.2-2.9-7.3-4.9c-2-2-3.7-4.5-4.9-7.3c-1.1-2.6-1.7-5.5-1.7-8.5s0.6-5.9,1.7-8.5c1.1-2.7,2.8-5.2,4.9-7.3
		c2.1-2,4.6-3.7,7.3-4.9C124.6,111.6,127.5,111,130.5,111L130.5,111z"/>
	<path class="st2" d="M123.7,119.7c-0.6,0.1-1.2,0.1-1.9,0.1c-0.7,0.2-1.5,0.2-2.1,0.4c-0.6,0.1-1.1,0.2-1.6,0.3
		c-0.4,0.1-0.8,0.2-1.2,0.4c-0.4,0.6-1,1.5-1.5,2.7c-0.6,1-1.1,2.1-1.6,3.2c-0.3,0.6-0.6,1.2-0.8,1.8c-0.2,0.5-0.4,1-0.6,1.5
		c0.2,0.3,0.3,0.7,0.6,1.2c0.2,0.4,0.5,1,0.8,1.4c0.3,0.6,0.7,1.1,1.1,1.7c0.4,0.5,0.8,0.9,1.3,1.3c0.3-0.2,0.7-0.2,1-0.4
		c0.5-0.2,0.9-0.2,1.3-0.4c0.7-0.1,1.5-0.4,2.3-0.6c0.7-0.1,1.5-0.3,2.2-0.5l3.8-7.4c-0.4-0.4-0.7-1-1-1.5c-0.3-0.5-0.6-1-0.9-1.7
		c-0.3-0.6-0.5-1.1-0.7-1.7C124,120.8,123.8,120.3,123.7,119.7L123.7,119.7z"/>
	<path class="st2" d="M121.3,150.6c0.6-0.2,1.2-0.2,1.7-0.4c0.6-0.2,1.1-0.3,1.7-0.4c0.6-0.2,1.1-0.3,1.7-0.5c0.5-0.2,1-0.4,1.5-0.6
		l1-8l-5.9-6c-0.6,0.1-1.3,0.3-2.1,0.6c-0.7,0.1-1.5,0.3-2.2,0.6c-0.6,0.1-1,0.2-1.4,0.4c-0.3,0.2-0.8,0.2-1.1,0.3
		c-0.2,0.4-0.4,0.9-0.6,1.3c-0.2,0.5-0.4,1-0.6,1.6c-0.2,0.6-0.4,1.3-0.5,1.9c-0.2,0.8-0.3,1.4-0.3,2c0.3,0.6,0.8,1.3,1.4,2.1
		c0.6,0.8,1.3,1.5,2,2.3c0.7,0.6,1.3,1.3,2,1.7C120.2,149.9,120.8,150.3,121.3,150.6L121.3,150.6z"/>
	<path class="st2" d="M143.5,147.5l0.8-6.7c-0.1,0,0,0.1-0.1,0c-0.7-0.5-1.5-1.1-2.7-1.7c-1-0.7-2.2-1.4-3.5-2l-8.2,3.9l-1,8.1
		c0.4,0.4,0.8,0.6,1.2,0.9c0.4,0.3,0.9,0.6,1.4,0.8c0.5,0.2,1.1,0.5,1.8,0.8c0.7,0.3,1.4,0.6,2.3,0.8c0.3-0.1,0.5-0.2,0.8-0.3
		c0.1,0,0,0,0.1,0c1.1-0.6,2.3-1.1,3.5-1.9C141.2,149.4,142.4,148.5,143.5,147.5L143.5,147.5z"/>
	<path class="st2" d="M140.2,122.9c-0.1-0.4-0.2-0.9-0.3-1.4c-0.2-0.5-0.4-1-0.6-1.5c-0.4-0.6-0.6-1.3-1-2c-0.4-0.8-0.8-1.5-1.2-2.1
		c-0.6-0.1-1.3-0.2-1.9-0.3c-0.6-0.1-1.3-0.2-1.9-0.3c-0.6-0.1-1.2-0.1-1.8-0.2c-0.6-0.1-1.2-0.2-1.8-0.2c-0.4,0.3-1,0.6-1.5,1.1
		c-0.5,0.3-1,0.8-1.5,1.2c-0.5,0.4-0.9,0.8-1.3,1.2c-0.3,0.4-0.6,0.7-0.8,1c0.1,0.5,0.3,1,0.5,1.6c0.2,0.6,0.4,1.2,0.8,1.7
		c0.2,0.6,0.6,1.1,0.8,1.6c0.3,0.5,0.6,1,0.9,1.5l9,1.4L140.2,122.9L140.2,122.9z"/>
	<path class="st2" d="M147.6,125.8c-0.4-0.4-0.9-0.8-1.3-1c-0.5-0.4-1-0.6-1.6-0.7c-0.6-0.2-1.1-0.4-1.7-0.5
		c-0.6-0.1-1.3-0.1-1.9-0.1l-3.7,4.4l1.2,8.2c1.4,0.6,2.7,1.4,3.7,2c1,0.7,1.9,1.3,2.6,1.7c0.4-0.4,0.8-0.7,1.2-1.1
		c0.4-0.4,0.9-0.8,1.4-1.3c0.4-0.4,0.7-0.7,1-1.1c0.4-0.4,0.6-0.8,0.9-1.2c0.1-2.4-0.2-4.3-0.6-5.8
		C148.5,127.9,148,126.7,147.6,125.8L147.6,125.8z"/>
	<path class="st2" d="M151.5,137.2c0.2-0.6,0.2-1.1,0.3-1.7c0.1-0.7,0.1-1.4,0.1-2.1c0-2.1-0.4-4.2-0.9-6.1
		c-0.6-1.9-1.4-3.7-2.4-5.3l-0.1,3c0.1,0.1,0,0,0.1,0.2c0,0.1,0,0.1,0.1,0.1c0.4,0.9,0.9,2.1,1.3,3.6c0.4,1.5,0.7,3.4,0.6,5.8
		c0.1,0.1,0.1,0.3,0.2,0.6c0.1,0.2,0.2,0.4,0.3,0.7c0.2,0.3,0.2,0.6,0.4,0.8C151.4,136.9,151.4,137.1,151.5,137.2L151.5,137.2z"/>
	<path class="st2" d="M135.3,154.2c1.9-0.5,3.7-1.2,5.4-2.1c1.8-1,3.5-2.2,4.9-3.7c0-0.1,0.1-0.1,0.1-0.1c-0.2,0-0.4,0-0.6,0
		c-0.3,0-0.6,0-1,0c-1.1,1-2.3,1.9-3.7,2.6c-1.3,0.8-2.5,1.3-3.6,1.9l-0.1,0.1c-0.4,0.2-0.7,0.3-0.9,0.5L135.3,154.2L135.3,154.2z"
		/>
	<path class="st2" d="M111.6,143.3c0.5,0.9,1,1.8,1.7,2.7c0.6,0.8,1.4,1.7,2.1,2.5c0.8,0.9,1.8,1.7,2.8,2.4c0.9,0.6,1.9,1.2,2.9,1.7
		c0-0.1,0-0.2-0.1-0.3c-0.1-0.2-0.1-0.3-0.2-0.6c0,0,0-0.1,0-0.1c-0.1,0-0.1-0.1-0.1-0.1c-0.6-0.3-1.2-0.8-1.9-1.2
		c-0.7-0.6-1.4-1.2-2.1-1.9c-0.8-0.8-1.5-1.5-2.1-2.4c-0.6-0.8-1.1-1.5-1.5-2.1c-0.2-0.1-0.4-0.1-0.6-0.2c-0.1-0.1-0.3-0.2-0.6-0.2
		c-0.1,0-0.3-0.1-0.3-0.1C111.7,143.4,111.7,143.3,111.6,143.3L111.6,143.3z"/>
	<path class="st2" d="M115.9,117.9L115.9,117.9c-0.2,0.2-0.4,0.3-0.4,0.4c-1.9,1.9-3.5,4.2-4.6,6.7c-1,2.4-1.6,4.9-1.7,7.6
		c0.2-0.3,0.4-0.5,0.7-0.8c0.3-0.3,0.6-0.6,0.8-1c0.1-0.1,0.2-0.2,0.3-0.4c0.1-0.1,0.2-0.1,0.2-0.2c0.1-0.6,0.3-1.1,0.6-1.8
		c0.3-0.7,0.6-1.5,1-2.2c0.5-1.1,1-2.1,1.6-3.2c0.6-1,1.2-2,1.6-2.6c0-0.2-0.1-0.4-0.1-0.6c0-0.3,0-0.5,0-0.8c0-0.2,0-0.5,0-0.7
		C115.9,118.1,115.9,118,115.9,117.9L115.9,117.9z"/>
	<path class="st2" d="M128.6,112.1c-0.7,0-1.3,0-2,0c-0.5,0.1-1.1,0.1-1.6,0.2c0.1,0.1,0.3,0.3,0.4,0.3c0.3,0.1,0.5,0.3,0.7,0.5
		c0.3,0.1,0.5,0.2,0.9,0.3c0.3,0.1,0.5,0.3,0.9,0.3c0.6,0,1.1,0.1,1.8,0.1c0.5,0,1.2,0.1,1.8,0.2c0.7,0.1,1.4,0.2,2,0.3
		c0.7,0.1,1.3,0.3,2,0.3l2.6-0.4c-1.4-0.7-2.9-1.3-4.5-1.7C132.1,112.3,130.4,112.1,128.6,112.1L128.6,112.1z"/>
	<path d="M46.9,90.3c0,1.4,0,2.5,0,3.4c0,0.5,0,1-0.1,1.4h1c0.2,0,0.4,0,0.6,0c0-0.2,0-0.5,0-0.9V74.8v-1.6H50h15.8h1.6v1.6v26.4
		v1.6h-1.6h-6.9h-1.6v-1.6v-0.9c-0.3,0.5-0.8,1-1.3,1.3c-0.6,0.4-1.2,0.7-1.9,0.8c-0.6,0.1-1.4,0.2-2.2,0.3c-0.8,0.1-1.8,0.1-3,0.1
		h-1.1h-1.6v-1.6V98c0,0,0,0.1,0,0.1c-0.2,0.6-0.6,1.2-1,1.8c-0.4,0.6-0.9,1.1-1.5,1.5h0c-0.5,0.4-1.2,0.8-1.8,1.1
		c-0.7,0.3-1.4,0.5-2.2,0.7c-0.8,0.1-1.6,0.2-2.4,0.2c-0.8,0-1.5-0.1-2.3-0.2h0c-0.7-0.1-1.4-0.3-2.1-0.6l0,0
		c-0.7-0.3-1.3-0.6-1.9-1.1c-0.6-0.4-1.1-0.9-1.5-1.5c-0.4-0.6-0.8-1.2-1-1.8c-0.3-0.6-0.4-1.3-0.5-2v0c-0.1-0.6-0.1-1.4-0.2-2.4
		c0-0.9,0-2.1,0-3.5v-4.5c0-1.4,0-2.5,0-3.4c0-1,0.1-1.7,0.2-2.4h0c0.1-0.7,0.2-1.3,0.5-2c0.2-0.6,0.6-1.2,1-1.8l0,0
		c0.4-0.6,0.9-1.1,1.4-1.5c0.5-0.4,1.2-0.8,1.9-1.1c0.7-0.3,1.4-0.5,2.2-0.7c0.8-0.1,1.6-0.2,2.4-0.2c1.6,0,3.1,0.3,4.4,0.8
		c0.7,0.3,1.3,0.6,1.9,1.1c0.6,0.4,1.1,0.9,1.5,1.5c0.4,0.6,0.8,1.2,1,1.8c0.3,0.6,0.4,1.3,0.5,2h0c0.1,0.6,0.1,1.4,0.2,2.4
		c0,1,0,2.1,0,3.5V90.3L46.9,90.3z M43.8,93.7c0-0.9,0-2.1,0-3.4v-4.5c0-1.3,0-2.5,0-3.4c0-0.9-0.1-1.6-0.1-2.1v0
		c0-0.4-0.1-0.8-0.3-1.2c-0.2-0.4-0.4-0.7-0.6-1.1c-0.3-0.3-0.5-0.6-0.9-0.9c-0.3-0.3-0.7-0.5-1.2-0.7c-0.9-0.4-2-0.6-3.2-0.6
		c-0.7,0-1.3,0.1-1.8,0.2c-0.5,0.1-1,0.3-1.5,0.4c-0.4,0.2-0.8,0.4-1.2,0.7c-0.3,0.3-0.6,0.6-0.9,0.9v0c-0.3,0.4-0.5,0.7-0.6,1.1
		c-0.1,0.4-0.2,0.8-0.3,1.2v0c-0.1,0.5-0.1,1.2-0.1,2.1c0,0.9,0,2.1,0,3.4v4.5c0,1.3,0,2.5,0,3.4c0,0.9,0.1,1.6,0.1,2.1h0
		c0.1,0.4,0.2,0.8,0.3,1.2c0.2,0.4,0.4,0.8,0.6,1.1c0.3,0.3,0.5,0.6,0.9,0.9c0.3,0.3,0.7,0.5,1.2,0.7l0,0c0.5,0.2,1,0.3,1.5,0.4l0,0
		c0.5,0.1,1.1,0.1,1.7,0.1c0.7,0,1.3-0.1,1.8-0.2c0.5-0.1,1-0.2,1.5-0.4c0.4-0.2,0.8-0.4,1.2-0.7l0,0c0.3-0.3,0.6-0.6,0.9-0.9
		c0.2-0.3,0.4-0.7,0.6-1.1c0.1-0.4,0.2-0.8,0.3-1.2h0C43.7,95.3,43.7,94.6,43.8,93.7L43.8,93.7z M40,80c0,0.4,0.1,0.9,0.1,1.6v12.1
		c0,0.8,0,1.5,0,2c0,0.6-0.1,1.1-0.2,1.4l0,0c-0.2,0.5-0.5,1-0.9,1.3c-0.4,0.3-0.9,0.4-1.5,0.4c-0.5,0-1-0.1-1.4-0.4
		c-0.5-0.3-0.8-0.7-1-1.2l0,0c-0.1-0.3-0.2-0.8-0.2-1.4c0-0.5,0-1.1,0-2V81.6c0-0.7,0-1.3,0.1-1.8c0.1-0.7,0.2-1.2,0.5-1.5l0,0
		c0.2-0.4,0.6-0.6,0.9-0.8l0,0c0.4-0.2,0.8-0.3,1.2-0.3c0.5,0,0.9,0.1,1.3,0.4c0.4,0.3,0.8,0.7,1,1.1l0,0C39.9,79,40,79.5,40,80
		L40,80z M60.5,99.7h3.8V76.4H51.6v17.9c0,0.7-0.1,1.3-0.2,1.8c-0.2,0.8-0.5,1.3-1,1.7l0,0c-0.3,0.2-0.6,0.3-1,0.4v1.6
		c0.9,0,1.6,0,2.3-0.1c0.8-0.1,1.4-0.1,1.8-0.2c0.3-0.1,0.6-0.2,0.8-0.3c0.2-0.1,0.4-0.3,0.5-0.6v0c0.2-0.3,0.3-0.7,0.4-1.2h0
		c0.1-0.6,0.2-1.4,0.2-2.3v-15v-1.6h1.6h2h1.6v1.6V99.7L60.5,99.7z M85,102.8h-5.7h-1.6v-1.6v-1.3l-0.5,1.7l-0.3,1.1h-1.2h-6h-1.6
		v-1.6V74.8v-1.6h1.6h5.7H77v1.6v2l0.8-2.5l0.4-1.1h1.1H85h1.6v1.6v26.4v1.6H85L85,102.8z M80.8,99.7h2.6V76.4h-3l-3.5,10.8l-3,9.4
		v-9.9V76.4h-2.6v23.3h3.3l3.2-10.9l3.1-10.3v10.7V99.7L80.8,99.7z M111.6,74.8v26.4v1.6h-1.6h-6h-1h-0.5h-0.8h-4.3h-1h-0.4h-1.2h-6
		h-1.6v-1.6V74.8v-1.6h1.6h4.4h1.6h2.8h1.3l0.2,1.3c0.1,0.3,0.1,0.6,0.2,0.9l0.1-0.9l0.2-1.4h1.4h2.8h1.8h4.4h1.6V74.8L111.6,74.8z
		 M108.5,99.7V76.4h-2.9v7v16.3H108.5L108.5,99.7z M102.5,83.2l0.9-6.8h-1l-1.4,11l-1.5,11.5L98,87.4l-0.9-6.7v0
		c-0.1-0.9-0.3-1.9-0.4-3c-0.1-0.5-0.1-0.9-0.2-1.3h-1.1l1,7.2l2.3,16.1h1.6L102.5,83.2L102.5,83.2z M93.3,83.8v-7.4h-2.9v23.3h2.9
		V83.8L93.3,83.8z M129.8,102.8h-6.9h-0.5h-1.1h-0.5h-6.9h-1.6v-1.6V74.8v-1.6h1.6h15.8h1.6v1.6v26.4v1.6H129.8L129.8,102.8z
		 M124.4,99.7h3.8V76.4h-12.7v23.3h3.8V80.1v-1.6h1.6h2h1.6v1.6V99.7L124.4,99.7z M149,102.8h-5.7h-1.6v-1.6v-1.3l-0.5,1.7l-0.3,1.1
		h-1.2h-6h-1.6v-1.6V74.8v-1.6h1.6h5.7h1.6v1.6v2l0.8-2.5l0.4-1.1h1.1h5.7h1.6v1.6v26.4v1.6H149L149,102.8z M144.8,99.7h2.6V76.4h-3
		l-3.5,10.8l-3,9.4v-9.9V76.4h-2.6v23.3h3.3l3.2-10.9l3.1-10.3v10.7V99.7L144.8,99.7z M170.7,75.3l-3.8,11.5l4.2,14l0.6,2h-2.1h-7.1
		h-1.2h0h-1.6h-6.9h-1.6v-1.6V74.8v-1.6h1.6h6.9h1.6v1.1l0.3-1.1h1.2h6.4h2.2L170.7,75.3L170.7,75.3z M163.8,86.3l3.3-9.9h-3.1
		l-2.7,9.1l-0.5,1.8l0.5,2.2l2.5,10.1h3.8l-3.7-12.5l-0.1-0.5L163.8,86.3L163.8,86.3z M158.1,89.9v-4.8V77v-0.6h-3.7v23.3h3.7v-3.9
		V89.9L158.1,89.9z"/>
	<path class="st2" d="M45.4,90.3c0,2.7-0.1,4.5-0.2,5.6c-0.1,1.1-0.5,2.1-1.2,3c-0.7,0.9-1.5,1.6-2.7,2.1c-1.1,0.5-2.4,0.7-3.9,0.7
		c-1.4,0-2.7-0.2-3.8-0.7c-1.1-0.5-2-1.2-2.7-2.1c-0.7-0.9-1.1-1.9-1.2-3c-0.1-1.1-0.2-3-0.2-5.7v-4.5c0-2.7,0.1-4.5,0.2-5.6
		c0.1-1.1,0.5-2.1,1.2-3c0.7-0.9,1.5-1.6,2.7-2.1c1.1-0.5,2.4-0.7,3.9-0.7c1.4,0,2.7,0.2,3.8,0.7c1.1,0.5,2,1.2,2.7,2.1
		c0.7,0.9,1.1,1.9,1.2,3c0.1,1.1,0.2,3,0.2,5.7V90.3L45.4,90.3z M38.5,81.6c0-1.2-0.1-2-0.2-2.4c-0.1-0.3-0.4-0.5-0.8-0.5
		c-0.4,0-0.6,0.1-0.8,0.4c-0.2,0.3-0.3,1.1-0.3,2.5V94c0,1.5,0.1,2.5,0.2,2.8c0.1,0.4,0.4,0.5,0.9,0.5c0.5,0,0.8-0.2,0.9-0.6
		c0.1-0.4,0.2-1.4,0.2-3V81.6L38.5,81.6z"/>
	<path class="st2" d="M65.8,101.3h-6.9V80.1h-2v15c0,2-0.3,3.4-0.8,4.2c-0.5,0.9-1.3,1.4-2.3,1.6c-1,0.2-2.7,0.3-4.9,0.3h-1.1v-4.5
		c0.8,0,1.4-0.1,1.7-0.3c0.3-0.2,0.5-0.9,0.5-2.1V74.8h15.8V101.3L65.8,101.3z"/>
	<polygon class="st2" points="85,101.3 79.3,101.3 79.3,89.2 75.7,101.3 69.7,101.3 69.7,74.8 75.4,74.8 75.4,86.8 79.3,74.8 
		85,74.8 85,101.3 	"/>
	<path class="st2" d="M110.1,74.8v26.4h-6V83.4l-2.4,17.8h-4.3l-2.5-17.4v17.4h-6V74.8h8.9c0.3,1.6,0.5,3.5,0.8,5.6l0.9,6.7
		l1.6-12.3H110.1L110.1,74.8z"/>
	<polygon class="st2" points="129.8,101.3 122.9,101.3 122.9,80.1 120.8,80.1 120.8,101.3 113.9,101.3 113.9,74.8 129.8,74.8 
		129.8,101.3 	"/>
	<polygon class="st2" points="149,101.3 143.2,101.3 143.2,89.2 139.6,101.3 133.6,101.3 133.6,74.8 139.4,74.8 139.4,86.8 
		143.2,74.8 149,74.8 149,101.3 	"/>
	<polygon class="st2" points="169.2,74.8 165.2,86.8 169.5,101.3 162.5,101.3 159.7,89.9 159.7,101.3 152.8,101.3 152.8,74.8 
		159.7,74.8 159.7,85.1 162.7,74.8 169.2,74.8 	"/>
	<path class="st2" d="M48.9,19.2l8.4-4.8l7,12.2l1.2-0.7l2.8,4.8l-1.6,0.9l-1.9-3.2l-9.1,5.3l1.9,3.2l-1.6,0.9L53.1,33l1.1-0.6
		c0.1-2.3-1.3-6-4.2-11.1L48.9,19.2L48.9,19.2z M56.4,17.1l-4.8,2.8l0.4,0.7c0.7,1.2,1.5,2.8,2.5,5c1,2.2,1.5,4.1,1.7,5.7l6.4-3.7
		L56.4,17.1L56.4,17.1z"/>
	<path class="st2" d="M65.9,18.8c-0.8-2.5-0.7-4.7,0.2-6.6c0.9-1.8,2.5-3.1,4.6-3.8c1.4-0.4,2.8-0.5,4.1-0.2c1.3,0.3,2.5,1,3.4,2
		c1,1,1.7,2.3,2.1,3.8c0.5,1.5,0.6,3,0.3,4.4c-0.2,1.4-0.8,2.6-1.8,3.6c-0.9,1-2.1,1.7-3.4,2.1c-1.4,0.4-2.8,0.5-4.2,0.1
		c-1.3-0.3-2.5-1-3.4-2.1C67,21.4,66.3,20.2,65.9,18.8L65.9,18.8z M68,18.2c0.6,1.8,1.5,3.1,2.8,3.9c1.3,0.8,2.7,0.9,4.2,0.4
		c1.5-0.5,2.6-1.4,3.3-2.7c0.7-1.4,0.7-3,0.1-5c-0.4-1.2-0.9-2.3-1.6-3.1c-0.7-0.8-1.5-1.3-2.5-1.6c-1-0.3-1.9-0.2-2.9,0.1
		c-1.4,0.4-2.5,1.3-3.2,2.6C67.3,14.2,67.3,16,68,18.2L68,18.2z"/>
	<polygon class="st2" points="85.4,21.1 84,5.2 86.1,5 86.6,11.5 94.9,10.8 94.3,4.3 96.4,4.1 97.8,20 95.7,20.2 95.1,12.7 
		86.8,13.4 87.5,20.9 85.4,21.1 	"/>
	<polygon class="st2" points="101.4,20.1 102.8,4.2 114.3,5.2 114.1,7.1 104.7,6.2 104.3,11.1 113.1,11.9 112.9,13.7 104.1,13 
		103.7,18.4 113.4,19.2 113.3,21.1 101.4,20.1 	"/>
	<polygon class="st2" points="120.6,6.4 122.6,7 118.7,20.5 126.7,22.8 130.6,9.3 132.6,9.9 128.7,23.4 130.1,23.8 128.4,29.8 
		126.6,29.3 127.8,25.1 116.2,21.7 120.6,6.4 	"/>
	<polygon class="st2" points="131.7,26.9 139.5,13 141.3,14 137.5,20.9 148.2,17.9 150.7,19.2 141.7,21.6 143.3,33.3 140.8,32 
		139.8,22.2 136.2,23.1 133.6,28 131.7,26.9 	"/>
	<path class="st2" d="M81.9,193.2l-9.1-2.1l0.5-2l6.1-3.7l0.1-0.1c1.6-1,2.5-1.9,2.7-2.7c0.2-0.7,0.1-1.4-0.3-2
		c-0.4-0.6-0.9-1-1.7-1.2c-0.8-0.2-1.5-0.1-2,0.3c-0.6,0.4-0.9,1.1-1.2,2l0,0.2l-2-0.5l0,0c0.3-1.5,1-2.6,2.1-3.3
		c1.1-0.7,2.3-0.9,3.7-0.6c1.2,0.3,2.2,1,2.9,2c0.7,1.1,0.9,2.2,0.6,3.4c-0.2,0.7-0.5,1.3-0.9,1.9c-0.5,0.5-1.2,1.1-2,1.6l-5.4,3.2
		l6.5,1.5L81.9,193.2L81.9,193.2z"/>
	<path class="st2" d="M88.8,189.2l0.3-4.3c0.1-0.9,0.2-1.6,0.4-2.1c0.2-0.5,0.4-0.9,0.8-1.3c0.5-0.6,1.2-1.1,1.9-1.3
		c0.7-0.3,1.5-0.4,2.4-0.3c0.9,0.1,1.7,0.3,2.4,0.7c0.7,0.4,1.3,1,1.7,1.7c0.2,0.4,0.4,0.9,0.5,1.4c0.1,0.5,0.1,1.2,0.1,1.9
		l-0.3,4.5c-0.1,0.8-0.2,1.5-0.3,2c-0.2,0.5-0.4,1-0.7,1.3c-0.5,0.6-1.2,1.1-1.9,1.4c-0.8,0.3-1.6,0.4-2.4,0.4
		c-0.8-0.1-1.6-0.3-2.3-0.7c-0.7-0.4-1.3-0.9-1.7-1.6c-0.3-0.4-0.5-0.9-0.5-1.4C88.7,190.8,88.7,190.1,88.8,189.2L88.8,189.2z
		 M90.9,189.8l0,0.2c0,0.5,0,0.8,0,1c0,0.2,0.1,0.4,0.2,0.6c0.2,0.4,0.5,0.7,1,0.9c0.4,0.2,0.9,0.4,1.4,0.4c1,0.1,1.7-0.1,2.2-0.6
		c0.5-0.5,0.8-1.3,0.9-2.3l0.3-4.9c0-0.6,0-1,0-1.3c0-0.2-0.1-0.5-0.2-0.7c-0.2-0.4-0.5-0.7-1-1c-0.4-0.2-0.9-0.4-1.4-0.4
		c-0.5,0-1,0-1.4,0.2c-0.4,0.2-0.8,0.4-1.1,0.8c-0.2,0.2-0.3,0.4-0.4,0.7c-0.1,0.3-0.1,0.7-0.2,1.3L90.9,189.8L90.9,189.8z"/>
	<path class="st2" d="M104.3,189.7l-0.4-4.3c-0.1-0.9-0.1-1.6,0-2.1c0.1-0.5,0.3-1,0.6-1.4c0.4-0.7,1-1.2,1.7-1.6
		c0.7-0.4,1.4-0.6,2.3-0.7c0.9-0.1,1.7,0,2.5,0.3c0.8,0.3,1.4,0.8,2,1.4c0.3,0.4,0.5,0.8,0.7,1.3c0.2,0.5,0.3,1.1,0.4,1.9l0.4,4.5
		c0.1,0.8,0.1,1.5,0,2c-0.1,0.5-0.2,1-0.5,1.4c-0.4,0.7-1,1.2-1.7,1.7c-0.7,0.4-1.5,0.7-2.4,0.7c-0.8,0.1-1.6,0-2.4-0.3
		c-0.7-0.3-1.4-0.7-2-1.3c-0.3-0.3-0.6-0.8-0.8-1.3C104.5,191.3,104.4,190.6,104.3,189.7L104.3,189.7z M106.5,189.9l0,0.2
		c0,0.5,0.1,0.8,0.2,1c0.1,0.2,0.2,0.4,0.3,0.6c0.3,0.3,0.6,0.6,1.1,0.8c0.5,0.2,0.9,0.2,1.4,0.2c1-0.1,1.6-0.4,2.1-1
		c0.4-0.6,0.6-1.4,0.5-2.4l-0.4-4.9c-0.1-0.6-0.1-1-0.2-1.3c-0.1-0.2-0.2-0.4-0.3-0.6c-0.3-0.4-0.6-0.6-1.1-0.8
		c-0.5-0.2-0.9-0.2-1.5-0.2c-0.5,0-1,0.2-1.4,0.4c-0.4,0.2-0.7,0.5-0.9,0.9c-0.1,0.2-0.2,0.5-0.2,0.7c0,0.3,0,0.7,0,1.3L106.5,189.9
		L106.5,189.9z"/>
	<polygon class="st2" points="126.9,191 124.8,191.6 121.5,179.1 119,179.7 118.5,178 123.1,176.8 126.9,191 	"/>
</g>
</svg>
