<?xml version="1.0" encoding="utf-8"?>
<!-- Generator: Adobe Illustrator 21.1.0, SVG Export Plug-In . SVG Version: 6.00 Build 0)  -->
<svg version="1.1" id="Layer_1" xmlns="http://www.w3.org/2000/svg" xmlns:xlink="http://www.w3.org/1999/xlink" x="0px" y="0px"
	 viewBox="0 0 200 200" style="enable-background:new 0 0 200 200;" xml:space="preserve">
<style type="text/css">
	.st0{fill:#BA8C58;}
	.st1{fill:#009DDC;}
</style>
<g>
	<path id="path29223" class="st0" d="M102.6,10.3h10.8l-8.7,6.3l3.4,10.3l-8.8-6.3l-8.7,6.4l3.3-10.3l-8.8-6.4h10.8L99.2,0
		L102.6,10.3"/>
	<path id="path29225" class="st1" d="M51.9,177c-4-0.6-10-2.5-27.9,0l-1-2c4.2-2.9,11.6-9.3,16.8-20.7c6.5-18,28-72.2,28-94.1
		c0-0.2,0-0.5,0-0.7c-0.4-6-3-14.7-6.1-20.1c-0.8-1.4-1.8-2.7-2.8-3.9c0,0-0.3-0.3-0.3-0.3l0,0c-1.5-1.8-3-3.2-4.2-4.1l1-2.3
		c4.9,2.2,15.2,7.1,21.6,12.8c3-2.8,8.8-5.7,13-7.1l0.8,1.9c-0.5,0.5-0.6,0.6-0.9,1.2l0,0l0,0C86.2,42.7,85,48,85,53
		c0,4.7,1,9.1,2,13.1c0,0,0.8,3.6,0.8,3.6c0,0,10,40.4,11.7,46.7c1.6-6.3,11.7-46.6,11.7-46.7c0-0.1,0.8-3.6,0.8-3.6
		c0.9-4,2-8.4,2-13.1c0-5-1.2-10.3-5.1-15.4l0,0l0,0c-0.3-0.5-0.4-0.6-0.9-1.2l0.8-1.9c4.2,1.3,9.9,4.2,13,7.1
		c6.3-5.7,16.7-10.7,21.6-12.8l1,2.3c-1.2,0.9-2.7,2.3-4.2,4.1l0,0c0,0-0.2,0.2-0.3,0.3c-1,1.2-1.9,2.5-2.8,3.9
		c-3,5.4-5.7,14.1-6.1,20.1c0,0.2,0,0.4,0,0.7c0,21.9,21.9,76.1,28.4,94.1c5.2,11.4,12.7,17.8,16.8,20.7l-1,2
		c-17.8-2.5-23.9-0.6-27.9,0l-26.7-75.6c-1.7,6.4-5.2,19.5-5.2,19.5l-0.8,3.4c-0.8,3.4-1.4,6-1.4,8.5c0,3.7,1.4,7,5.6,11.5l-0.7,2
		c-2.2,1.4-6.2,2.5-9.1,2.7c-0.9,4.4-6.1,11.1-9.7,14.2c-3.6-3.1-8.7-9.8-9.7-14.2c-2.9-0.1-6.9-1.3-9.1-2.7l-0.7-2
		c4.2-4.4,5.6-7.8,5.6-11.5c0-2.5-0.6-5.2-1.4-8.5l-0.8-3.4c0,0-3.5-13.1-5.2-19.5L51.9,177"/>
	<path id="path29227" class="st1" d="M99.4,47C58.7,47,25.8,75.6,25.8,111c0,35.4,32.9,64.1,73.6,64.1c40.6,0,73.6-28.7,73.6-64.1
		C172.9,75.6,140,47,99.4,47z M99.4,168.7c-30.7,0-55.5-25.8-55.5-57.6s24.8-57.6,55.5-57.6c30.7,0,55.5,25.8,55.5,57.6
		S130,168.7,99.4,168.7"/>
	<path id="path29229" class="st0" d="M31.1,193.6c0,3.2-1,3.7-2.3,3.7h-1.5v-6.7h1.4C30,190.5,31.1,190.9,31.1,193.6z M36.1,193.7
		c0-2.4-0.9-4-2.9-4.9c-1.4-0.7-3-0.7-4.2-0.7h-6.3v11.7h6.4c2.4,0,3.8-0.5,4.9-1.4C35.7,197.1,36.1,195.5,36.1,193.7"/>
	<path id="path29231" class="st0" d="M44.1,190.5c1.4,0,2.1,0.3,2.1,1.1c0,0.8-0.5,1.3-2.1,1.3h-1.3v-2.4H44.1z M52.1,199.8
		c-0.6-0.9-2.1-3-2.7-3.8c-0.4-0.6-1.2-1.1-1.8-1.3c2.1-0.2,3.7-1.3,3.7-3.3c0-2-1.7-3.3-6.9-3.3h-6.1v11.7h4.5v-4.6
		c1,0,1.4,0.2,2.1,1.4l1.9,3.3H52.1"/>
	<path id="path29233" class="st0" d="M60.7,197.6c-1.9,0-3-0.7-3-3.7c0-2.2,0.9-3.7,2.9-3.7c2,0,2.8,0.7,2.8,3.6
		C63.4,196.9,62.6,197.6,60.7,197.6z M60.6,200c6.3,0,7.9-3.1,7.9-6.5c0-2.6-1.8-5.6-7.8-5.6c-4.7,0-8.1,2.2-8.1,6.4
		C52.6,197.7,55.5,200,60.6,200"/>
	<path id="path29235" class="st0" d="M70.8,188.1h4.6v11.7h-4.6V188.1z"/>
	<path id="path29237" class="st0" d="M90.1,190.6H86v9.2h-4.6v-9.2h-4.1v-2.5h13.4L90.1,190.6"/>
	<path id="path29239" class="st0" d="M104,195.2h-2.3l0.7-1.9c0.3-0.8,0.4-1.4,0.5-1.9c0,0.4,0.2,1.1,0.3,1.6L104,195.2z
		 M110.8,199.8l-5.4-11.7h-4.7L95,199.8h4.8l1-2.3h4.2l0.9,2.3H110.8"/>
	<path id="path29241" class="st0" d="M124.8,196.2c0,1-0.1,1.5-0.4,1.9c-0.7,1-2.7,1.9-6.2,1.9c-2.8,0-4.7-0.5-5.8-1.5
		c-0.7-0.6-0.9-0.9-0.9-2.5v-8h4.6v7.7c0,1.1,0.5,1.8,2.1,1.8c1.6,0,2.1-0.6,2.1-1.7v-7.7h4.5V196.2"/>
	<path id="path29243" class="st0" d="M139.9,190.5c1.1,0,1.5,0.3,1.5,0.9c0,0.6-0.4,1.1-1.5,1.1h-1.8v-2H139.9z M146.7,196.2
		c0-1.4-1.5-2.3-3.2-2.6c2-0.4,2.6-1.5,2.6-2.6c0-2.2-2.1-2.9-4.6-2.9h-7.8v11.7h7.2C144.8,199.8,146.7,198.3,146.7,196.2z
		 M141.5,196.1c0,0.7-0.5,1.2-1.6,1.2h-1.7V195h1.7C141.2,195,141.5,195.5,141.5,196.1"/>
	<path id="path29245" class="st0" d="M162.1,196.2c0,1,0,1.5-0.4,1.9c-0.7,1-2.7,1.9-6.2,1.9c-2.8,0-4.7-0.5-5.8-1.5
		c-0.7-0.6-0.9-0.9-0.9-2.5v-8h4.6v7.7c0,1.1,0.5,1.8,2.1,1.8c1.6,0,2.1-0.6,2.1-1.7v-7.7h4.5V196.2"/>
	<path id="path29247" class="st0" d="M176.8,190.6h-4.1v9.2h-4.6v-9.2h-4.1v-2.5h13.4L176.8,190.6"/>
</g>
</svg>
