<?xml version="1.0" encoding="utf-8"?>
<!-- Generator: Adobe Illustrator 21.1.0, SVG Export Plug-In . SVG Version: 6.00 Build 0)  -->
<svg version="1.1" id="Layer_1" xmlns="http://www.w3.org/2000/svg" xmlns:xlink="http://www.w3.org/1999/xlink" x="0px" y="0px"
	 viewBox="0 0 200 200" style="enable-background:new 0 0 200 200;" xml:space="preserve">
<style type="text/css">
	.st0{fill:#E21E26;}
	.st1{fill:#FFFFFF;}
	.st2{fill:#E7C569;}
</style>
<g>
	<path class="st0" d="M44.8,65.5C30,80.3,21.9,99.9,21.9,120.7c0,20.9,8.1,40.5,22.9,55.2c14.7,14.8,34.4,22.9,55.2,22.9
		c20.9,0,40.5-8.1,55.2-22.9c14.7-14.8,22.9-34.4,22.9-55.2c0-20.9-8.1-40.5-22.9-55.2c-14.8-14.8-34.4-22.9-55.2-22.9
		C79.1,42.6,59.5,50.8,44.8,65.5 M45.4,175.3c-14.6-14.6-22.6-34-22.6-54.6c0-20.6,8-40,22.6-54.6C60,51.6,79.4,43.5,100,43.5
		c20.6,0,40,8,54.6,22.6c14.6,14.6,22.6,34,22.6,54.6c0,20.6-8,40-22.6,54.6c-14.6,14.6-34,22.6-54.6,22.6
		C79.4,197.9,60,189.9,45.4,175.3"/>
	<path class="st0" d="M100,45.1c-41.8,0-75.6,33.9-75.6,75.6c0,41.8,33.8,75.6,75.6,75.6c41.8,0,75.6-33.9,75.6-75.6
		C175.6,79,141.8,45.1,100,45.1 M100,180.2c-32.8,0-59.4-26.6-59.4-59.4c0-32.8,26.6-59.4,59.4-59.4c32.8,0,59.4,26.6,59.4,59.4
		C159.4,153.6,132.8,180.2,100,180.2"/>
	<path class="st0" d="M42.1,120.7c0,31.9,26,57.9,57.9,57.9s57.9-26,57.9-57.9c0-31.9-26-57.9-57.9-57.9
		C68.1,62.8,42.1,88.8,42.1,120.7 M43,120.7c0-31.4,25.6-57,57-57c31.4,0,57,25.6,57,57c0,31.4-25.6,57-57,57
		C68.6,177.7,43,152.2,43,120.7"/>
	<path class="st0" d="M120,148.4c-0.9-0.1-0.9-0.3-0.9-1.4v-3.3c0-1.1,0-1.2,1-1.4l0.3-0.1c0.1-0.1,0.1-0.4-0.1-0.4
		c-0.4,0-1.1,0-1.8,0c-0.7,0-1.5,0-1.8,0c-0.1,0-0.1,0.3,0,0.4l0.3,0.1c1,0.2,1,0.3,1,1.4v3.3c0,1.1,0,1.3-1,1.4l-0.4,0.1
		c-0.1,0.1-0.1,0.3,0.1,0.4c0.3-0.1,1.3-0.1,2-0.1c0.7,0,1.6,0,2,0.1c0.1-0.1,0.2-0.3,0.1-0.4L120,148.4"/>
	<path class="st0" d="M124.9,141.6c-1.7,0-3.2,1.3-3.2,3.2c0,1.3,0.9,2.4,2.2,2.4c0.7,0,1.2-0.2,1.6-0.6c0-0.1,0-0.3-0.1-0.3
		c-0.2,0.1-0.5,0.1-0.8,0.1c-1.1,0-1.7-1.3-1.7-2.4c0-1.1,0.7-2,1.7-2c1.6,0,1.9,1.7,1.9,2.8c0,3-1.7,4.8-2.6,5.4
		c-0.6,0.5-1.4,0.9-2.3,1.2c-0.1,0.1,0,0.3,0.1,0.4c1.2-0.2,2.6-0.8,3.8-1.8c1.7-1.6,2.4-3.4,2.4-5.1
		C127.8,143.1,126.9,141.6,124.9,141.6"/>
	<path class="st0" d="M135.4,147c-0.4,0.8-0.7,0.8-1.6,0.8h-1.9c-0.3,0-0.3-0.1-0.3-0.2l1.3-1.4c1-1.1,1.5-1.7,1.5-2.7
		c0-1.1-0.8-1.9-2.1-1.9c-1.3,0-2.2,1-2.6,1.8c0,0.2,0.2,0.3,0.3,0.2c0.4-0.7,1-1.1,1.7-1.1c0.9,0,1.4,0.6,1.4,1.6
		c0,1-0.8,2-1.7,2.9c-0.6,0.7-1.2,1.1-1.6,1.5c-0.1,0.1,0,0.2,0.1,0.3c0.3,0,0.9-0.1,1.5-0.1h1.6c0.9,0,1.6,0,2.2,0.1
		c0.2-0.5,0.5-1.1,0.8-1.7C135.7,147,135.5,146.9,135.4,147"/>
	<path class="st0" d="M140.9,141.6c-0.2,0.1-0.3,0.2-0.9,0.2l-1.1,0.2c-0.5,0.1-0.8,0.1-1.1,0.2c-0.2,0.1-0.5,0.6-0.7,1.1
		c-0.2,0.5-0.4,1-0.4,1.3c0,0.6,0.6,0.9,1.3,1.4c0.7,0.5,1.3,1.2,1.3,2.3c0,1.8-1.7,3-2.6,3.3c-0.1,0.1-0.1,0.4,0.1,0.5
		c1.2-0.4,3.6-1.8,3.6-4.1c0-1.3-0.8-2.2-1.8-2.9c-0.2-0.2-0.5-0.3-0.8-0.5c-0.4-0.3-0.5-0.5-0.4-0.8c0.1-0.3,0.2-0.4,0.6-0.4
		l2.1-0.3c0.5-0.1,0.8-0.7,0.9-1C141.1,141.7,141.1,141.6,140.9,141.6"/>
	<path class="st0" d="M70,143.2c0-3.5,0-8,0.4-11.2c0.1-1,0.2-2.1,0.3-3c0.1-0.7,0.1-1,0.4-1.4c3.1,0.1,5.7,0.9,8.7,1.3
		c1.3-1.3,3-2.2,4.5-3.2c1.1-0.8,2.4-1.7,3.2-2.3c0.1-0.1,0.2-0.2,0.2-0.4c0-0.1-0.1-1.1-0.4-1.6c-1,0-3.3,1-4.7,1.4
		c-2.4,0.8-4.9,1.3-7.2,2c-1.7,0.5-3.7,1.2-5.2,1.4c-1.3-0.1-2.8-1.4-3.2-2.3c-0.7-1.6,1.7-7.6,1.3-10.1c2.3-2.3,3.5-3.9,4.5-4.3
		c-1.7,2.7-2.5,5.3-2.6,8.6c2.8-0.4,6.2-0.5,9-1.6c4.5-1.7,6.4-3.8,8-5.9c1.1,6.1,3.3,8.1,4.9,13c3.4,0.1,5.9-9.4,5.9-9.4
		c1.4,5.6,3.4,6.7,4.1,10.3c1.3-0.2,2.6-3.1,3.4-3.3c0.1,0.6,0.2,0.9,0.4,1.4c5.8-0.5,10.1-5,10.2-5c-2.6,6.2,3.1,14.4,3.7,14.9
		c2.2-0.9,4.9-4.9,5.4-5.4c1.1,2.4,2.5,4.6,4.5,5.9c1,0.7,1.8,1.1,2.8,1.7c1-0.9,1.8-4.1,2.3-4.7c2.5,2.8,7.8,5.8,11.6,4.4
		c0,0-0.6-9.3-6.7-12.8c0.9,0.1,2.1,0.4,2.9,0.6c1.4,0.3,7.7-0.8,9.9-3.4c-1.8-2.7-5.4-6.5-13.2-7c1.9-0.6,6.4-6.2,6.8-9.2
		c-1.8-1.6-4.7-1.9-6.9-2.3c0.7-4.7-3.1-7.7-3.6-8.1c-0.2-0.5-0.5-7.3-9.2-9.5c-0.2-0.1-2.3-5-7.6-7.4c-8.1-3.7-14.3-0.9-15.7-0.5
		c-12.5-1.9-15.5,3.9-16.3,4.7c-0.4,0.4-5-0.5-9.4,4.4c-1.2-0.1-6.2-2.8-7.9-2.4c-0.7,2,0.2,9.5,0.6,10.9C66,93.1,59,90.4,57.5,91.8
		c-0.5,3.1,2.2,6.7,2.2,6.7c-3.2-0.3-9.3,0-11.2,1.5c-0.4,0.4,0.7,2.9,2.3,4.5c1.7,1.7,4.6,3.2,8.3,3.5c0,0.1-6.7,4.1-8.9,7
		c0.7,0.4,5.4,1.8,5.8,1.9c2.6,0.8,9.9-1.6,10-1.6c-0.4,2-1.8,7.3-1.8,8.3c0.1,1.5,3.1,3.6,4.1,4.3c0,3.4-0.3,13.3-0.3,13.3
		c0,1.5-0.2,3.7,0.2,4.9c1.5,0.3,7-1.2,7.2-1c0.5,0.8,0.6,3.3,0.9,4.3c1,0.2,1.7,0.7,2.7,0.8c0.3,0.9-0.5,2.3,0,3.1
		c0.4,1.1,2.2,1.4,3.2,1.8c0,2,0.1,4,0.1,6c0.5,1.1,4.5,2.5,5.5,3.1c0-0.1,8.6-8.3,8.6-8.3c1.6,1.6,2.7,2.9,3.9,4.7
		c-1.3,3.7-6.1,10.4-6.4,10.8c-0.2,0.4,1.1,1.3,1.3,1.5c1.7-2,2.4-3,3.9-5.6c1.5-2.6,2.4-4,3.7-7.3c-1.4-1.9-3.1-3.6-4.5-5.3
		c0.7-2.1,1.7-2.7,2.8-4.7c-0.5-0.3-0.8-0.6-1.5-0.5c-4.1,4.8-7.4,7.9-11.9,12.1c-0.6-0.4-2.5-1.1-3.1-1.4c-0.2-1.3,0.2-5.3-0.2-6
		c-0.5-1.3-2.2-1.1-3.2-1.8c-0.1,0-0.3-0.2-0.3-0.2c0.2-4.4,0-3.3-2.8-4.7c-0.1-0.1-0.3-0.5-0.2-0.9c0-1.4-0.1-3.8-0.5-4.9
		c-1.3,0-6.4,1.6-7.2,2c-0.1,0-0.2,0-0.2,0l-0.1-0.2L70,143.2 M143.6,103.5c-0.4,1.1-1.2,1.6-2,2.3c-6.1,5.5-8.1,4.1-14.8,3.2
		C130.8,102.4,140.2,101.5,143.6,103.5 M120.1,90.4c2.2,6.3-1.1,14.2-12.7,16c0-0.1,10.1-4.6,10.5-11.1c-1.1-0.4-3.2-0.8-3.1-0.7
		C116,92.7,118.7,90.7,120.1,90.4 M71.2,83.4c2,0.4,7.4,3.2,8.6,4.4c1.1,1.2,1.6,3.2,2,4.9c0.6,2.4,0.6,5.3-0.2,6.7
		c-3-0.3-8.6-5.9-9.6-9.4C71,86.6,71.1,85.2,71.2,83.4 M51.1,101.4c1.3-1.6,9.6-1.5,11-0.6c1.1,0.7,3.6,2.5,5,2.9
		c-0.6,1.1-4.2,2.3-6.6,2.2C57.1,105.8,52.7,103.9,51.1,101.4 M63.8,113.8c-1,0.5-2.4,0.5-3.4,0.7c-2,0.3-4-0.6-5.6-1
		c0-0.2,7-5.3,11.1-6.9c0.9-0.3,4.8-0.5,5.6-0.1C70.9,108.5,65.6,112.9,63.8,113.8 M70.3,103.5c-3.5-1.2-9.9-6.8-10.7-10.2
		c2.6,0.1,4.3,0.5,6.3,1.1c3.1,0.4,4.8,0.5,7.8,2.8c1.5,1.2,3.1,4.1,3.3,5.3C75.9,103.3,72.4,104.2,70.3,103.5 M79.7,113.8
		c-1.9,1-4.5,0.8-7.4,1.6c2.6-12.1,11.8-12.8,13.9-12.8C86.3,105.7,85.1,111.2,79.7,113.8 M85.7,97.5c-3.1-5-3.1-9.1-0.5-14.9
		c3.2,0.4,9.6,10.3,3.6,17.9C87.5,99.9,86.4,98.8,85.7,97.5 M92.9,120.5c-0.7-3.1-2.7-5.3-3.5-8.5c-0.2-1-0.6-2.7-0.1-4.1
		c0.6-1.8,1.7-3.7,2.8-5C96.1,104.6,97.6,116.5,92.9,120.5 M92.7,99.5c0.4-5.4,6.4-10.4,14.7-11.3c-0.2,5.1-4.9,10.2-9.1,11.3
		C96.5,99.7,93,99.7,92.7,99.5 M102.6,121.8c-0.6-2.9-4.9-9.8-3.6-13.8c0.3-1.1,0.7-2.2,1.2-3.3c1.8,0.8,4.1,4.7,4.6,6.1
		C106.1,115.2,103.5,121.4,102.6,121.8 M104.4,103.5c-1.6-0.4-3.2-1.1-4.2-1.8c4.3-4.5,11.1-7.4,15-5.8c-0.9,2.6-3.7,5.3-6.4,6.4
		C108.1,102.6,105.6,103.8,104.4,103.5 M106.8,120.5c0.4-3.2,1.3-8.2,3.5-9.8c1.5-1,4.5-1.9,6.2-2.1
		C117.6,111.9,112.8,120.1,106.8,120.5 M120.2,129.5c-0.5-1.2-1.5-2.5-2-3.7c-1.2-2.7-0.5-8,0.6-10.4c0.8-1.8,2.7-2.5,3.8-4
		C126.3,115,121.5,128.9,120.2,129.5 M115.2,106.4c3.2-1.6,4.8-4.8,7.6-6.7c4.7-3.2,8.7-2.5,9.6-1.6c-1,1.9-4,5.4-6,7
		C122.8,107.3,116.3,107.5,115.2,106.4 M131.8,131.9c-1.7-0.5-3.5-2.6-4.3-3.8c-2.8-4.1-1.6-9.2,0.5-13c0.7,0.6,1.5,1.6,2.2,2.5
		C133.7,122.5,132.9,125.4,131.8,131.9 M144.8,133.2c-5.9-0.2-9.6-5.8-9.6-11.8c1.7,0.2,3.7,1.4,4.7,2.4
		C142,126,144.2,129.6,144.8,133.2 M132.5,114.9c3.7-4.6,17.6,1.4,17.6,3.4c-2.4,1.1-4.2,1.1-6.2,1.3
		C139.4,120.1,133.1,115.8,132.5,114.9"/>
	<path class="st1" d="M55.5,69.5c1.5,1.5,1.3,3.8-0.2,5.3c-1.6,1.6-3.8,1.6-5.3,0c-1.5-1.5-1.3-3.8,0.2-5.3
		C51.8,68,54,67.9,55.5,69.5 M56.9,68.1c-2.2-2.3-5.6-2.3-8,0.1c-2.3,2.2-2.5,5.7-0.3,8c2.3,2.3,5.6,2.3,8-0.1
		C58.9,73.9,59.2,70.4,56.9,68.1"/>
	<polygon class="st1" points="68.3,67.2 62.1,63 63.5,70.4 61.6,70.7 59.5,59.6 60,59.3 69.4,65.6 	"/>
	<polygon class="st1" points="73.1,59.7 74.8,63.5 73.1,64.3 71.4,60.5 65.7,56.6 66.9,55.1 71.4,58.2 72,52.8 73.9,52.9 	"/>
	<polygon class="st1" points="89.8,59.3 87.5,52.3 85,57.2 84.6,57.3 80.2,54 81.3,61.3 79.4,61.6 77.9,50.8 78.6,50.4 84.2,54.7 
		87.4,48.4 88.1,48.4 91.6,58.7 	"/>
	<polygon class="st1" points="101.3,58.3 101.2,49.6 96.6,49.6 96.7,58.4 94.8,58.4 94.6,47.8 103.1,47.7 103.2,58.3 	"/>
	<polygon class="st1" points="107.1,58.7 108.5,48.3 110.4,48.5 109,59 	"/>
	<path class="st1" d="M118.6,57.7l-2.9-0.8l2.3-2.8L118.6,57.7z M121.2,61.5l-1.7-11.2l-0.6-0.1l-7.2,8.8l1.5,1.2l1.3-1.6l4.4,1.2
		l0.3,2.1L121.2,61.5z"/>
	<polygon class="st1" points="129.1,65.6 127,58.7 124.7,63.5 123,62.7 127.5,53.1 129.3,54 127.7,57.2 132.5,55.5 134.6,56.5 
		128.9,58.6 131.4,66.7 	"/>
	<path class="st1" d="M142,67.8c-1.2,1.7-3.5,2-5.2,0.8c-1.8-1.3-2.2-3.4-1-5.2c1.2-1.7,3.5-2,5.2-0.7C142.8,63.9,143.2,66,142,67.8
		 M143.6,68.9c1.9-2.6,1.2-5.9-1.5-7.9c-2.6-1.9-6.1-1.5-7.9,1.1c-1.9,2.6-1.2,5.9,1.5,7.9C138.3,71.9,141.7,71.6,143.6,68.9"/>
	<polygon class="st1" points="141.5,74.3 142.3,73.6 147.5,72.4 148.1,68 149.2,67 153.9,71.8 152.6,73.1 149.8,70.2 149.2,74 
		144.8,75 147.7,78 146.4,79.3 	"/>
	<polygon class="st1" points="37.9,82 38.4,82.3 41.4,87.4 46.2,86.9 47,87.3 43.8,93.1 42.9,92.6 45.3,88.2 40.7,88.7 38,83.9 
		35.4,88.5 34.5,88 	"/>
	<polygon class="st1" points="35.3,96.7 31.5,95.2 31.9,94.1 35.7,95.5 42.9,94 43.2,95.1 36.7,96.5 40.6,101.9 39.6,102.6 	"/>
	<path class="st1" d="M28,123.1l0.1-6.5l7.3,3.3L28,123.1z M27.3,124.7l10.4-4.5l0-0.4l-10.3-4.7l-0.4,0.4l-0.1,8.9L27.3,124.7z"/>
	<polygon class="st1" points="27.4,128.7 37.9,127.2 38.6,132.4 37.6,132.6 37,128.5 34,129 34.6,132.7 33.6,132.8 33,129.1 
		28.6,129.8 29.3,134.4 28.3,134.6 	"/>
	<polygon class="st1" points="29.1,138.4 29.7,138.2 35.4,139.7 38.5,135.8 39.3,135.5 41.2,141.8 40.2,142.1 38.8,137.3 35.9,141 
		30.6,139.7 32.1,144.7 31.1,144.9 	"/>
	<polygon class="st1" points="37.2,158.3 44.6,153.6 37.7,153.1 37.4,152.6 41,146.6 32.8,150 32.4,148.9 42.5,144.7 42.8,145.4 
		38.9,152.1 46.7,152.8 47.1,153.5 37.8,159.4 	"/>
	<path class="st1" d="M51.1,167.5c-2,1.7-4.7,1.2-6.3-0.7c-1.7-2.1-1.6-4.7,0.4-6.4c2-1.7,4.7-1.3,6.3,0.7
		C53.2,163.2,53.1,165.8,51.1,167.5 M51.9,168.4c2.5-2.1,2.7-5.4,0.5-8c-2.1-2.4-5.5-3-8-0.9c-2.5,2.1-2.7,5.4-0.5,8
		C45.9,170,49.4,170.5,51.9,168.4"/>
	<polygon class="st1" points="50.5,174.2 50.9,173.7 56.5,171.8 56.9,166.9 57.4,166.2 62.5,170.4 61.8,171.2 58,168 57.6,172.6 
		52.4,174.4 56.4,177.8 55.7,178.5 	"/>
	<path class="st1" d="M77.7,184.3c-0.8,1.9-3.1,2.3-5.4,1.5l2.8-6.6C77.4,180.5,78.5,182.5,77.7,184.3 M78.8,184.8
		c1-2.3-0.4-5-3.3-6.4l0.2-0.5l-1.1-0.5l-0.2,0.5c-2.9-1-5.9-0.3-6.9,2.1c-1,2.3,0.4,5,3.3,6.4l-0.3,0.8l1.1,0.5l0.3-0.8
		C74.8,187.8,77.8,187.1,78.8,184.8 M71.2,185.4c-2.3-1.2-3.4-3.1-2.6-5c0.8-1.9,3.1-2.3,5.4-1.6L71.2,185.4z"/>
	<polygon class="st1" points="80.7,190.7 83.4,180.5 84.6,180.8 81.9,191.1 	"/>
	<polygon class="st1" points="93.6,193.5 91.3,184.6 86.8,192.6 85.8,192 91.4,182 91.9,182.1 94.8,193.2 	"/>
	<path class="st1" d="M104.3,190.1l-4.3,0.1l2-5.2L104.3,190.1z M106.9,193l-4.9-10.5l-0.4,0l-4.2,10.8l1.1,0.4l1-2.5l5.2-0.2
		l1.1,2.4L106.9,193z"/>
	<polygon class="st1" points="131.6,186.4 125.1,180 125.3,189.2 124.2,189.1 123.9,177.7 124.3,177.5 132.5,185.6 	"/>
	<path class="st1" d="M141.8,178.7l2.1-1.4l0.6,0.8l-3.3,2.2l-0.8-1.2c0.9-1.4,1.6-3.8,0.5-5.4c-1.4-2.1-4.1-2.1-6.1-0.8
		c-2,1.3-2.9,3.9-1.6,5.9c1.1,1.6,3.6,1.9,5.2,1.6l0.8,1.2l-3.3,2.2l-0.6-0.8l2.1-1.4c-1.9,0.1-4-0.4-5.1-2.1
		c-1.8-2.7-0.4-6,1.9-7.5c2.3-1.6,5.9-1.6,7.7,1.1C143,174.8,142.7,177,141.8,178.7"/>
	<polygon class="st1" points="165.5,151.9 157.1,147.5 154.5,152.4 162.9,156.9 162.4,157.9 153,153 156.7,146 166.1,150.9 	"/>
	<polygon class="st1" points="168.1,145.7 158.1,142.3 159.8,137.3 160.7,137.7 159.4,141.5 162.3,142.5 163.5,138.9 164.5,139.2 
		163.3,142.8 167.5,144.2 169,139.8 170,140.1 	"/>
	<polygon class="st1" points="170.9,135.9 160.6,133.8 160.8,132.6 171.2,134.8 	"/>
	<path class="st1" d="M165,123.6c1.1,0.1,1.9,1.3,1.8,2.5l-0.2,1.7l-4-0.4l0.2-1.9C162.9,124.2,163.7,123.4,165,123.6 M165.1,122.4
		c-1.8-0.2-3.1,1.1-3.3,3.1l-0.3,3.1l10.5,0.9l0.1-1.2l-4.5-0.4l0.2-1.7C168,124.3,166.8,122.5,165.1,122.4"/>
	<path class="st1" d="M169.2,114.5l0.2,4.3l-5.2-1.9L169.2,114.5z M172.2,111.8l-10.4,5.1l0,0.4l10.8,3.9l0.4-1.1l-2.6-0.9l-0.3-5.2
		l2.4-1.2L172.2,111.8z"/>
	<polygon class="st1" points="171.5,108.2 161.1,110.1 160.9,108.9 171.3,107 	"/>
	<path class="st1" d="M166.7,94.4l-0.8-2.4l1-0.3l1.3,3.8l-1.3,0.5c-1.1-1.2-3.3-2.5-5.1-1.9c-2.3,0.8-3.1,3.5-2.3,5.7
		c0.8,2.2,3,3.8,5.3,3c1.8-0.6,2.7-3,2.8-4.6l1.3-0.5l1.3,3.8l-1,0.3l-0.8-2.4c-0.4,1.9-1.4,3.8-3.3,4.5c-3.1,1.1-5.9-1.1-6.8-3.8
		c-1-2.7-0.1-6.1,3-7.2C163.2,92.3,165.2,93.1,166.7,94.4"/>
	<polygon class="st1" points="164.9,87.7 164.4,88 158.4,87.9 156.3,92.3 155.6,92.7 152.3,87 153.2,86.5 155.7,90.9 157.7,86.7 
		163.2,86.8 160.6,82.3 161.5,81.8 	"/>
	<polygon class="st1" points="27.7,109.6 27.7,109.6 36.2,105.5 28.8,103.4 29.1,102.3 39.5,105.3 29.8,110 38,111.6 37.8,112.8 
		27.5,110.8 	"/>
	<path class="st1" d="M119,185.4c0.5,2.5-1.1,4.7-3.6,5.3c-2.6,0.6-4.9-0.8-5.4-3.3c-0.5-2.5,1.1-4.7,3.6-5.3
		C116.2,181.5,118.4,182.9,119,185.4 M120.1,185.2c-0.7-3.2-3.5-4.9-6.8-4.2c-3.1,0.7-5.2,3.5-4.5,6.6c0.7,3.2,3.5,4.9,6.8,4.2
		C118.8,191.1,120.8,188.3,120.1,185.2"/>
	<polygon class="st1" points="117.7,186.2 111.5,187.5 111.3,186.5 117.5,185.2 	"/>
	<polygon class="st1" points="153.6,169.6 153.6,169.6 144.3,168.3 149.3,174.1 148.4,174.8 141.4,166.6 152.1,168.1 146.1,162.2 
		147,161.3 154.5,168.7 	"/>
	<polygon class="st2" points="34.4,20.3 40.3,27.5 49,24.2 43.9,32 49.8,39.2 40.8,36.8 35.7,44.6 35.2,35.3 26.2,32.9 34.9,29.6 	
		"/>
	<polygon class="st2" points="78.3,1.1 82.2,9.6 91.4,8.5 84.6,14.8 88.6,23.3 80.4,18.7 73.6,25.1 75.4,16 67.2,11.4 76.5,10.3 	
		"/>
	<polygon class="st2" points="121.8,1.1 123.5,10.3 132.8,11.4 124.6,16 126.4,25.1 119.6,18.7 111.4,23.3 115.4,14.8 108.6,8.5 
		117.8,9.6 	"/>
	<polygon class="st2" points="165.6,20.3 165.1,29.6 173.8,32.9 164.8,35.3 164.3,44.6 159.2,36.8 150.2,39.2 156.1,32 151,24.2 
		159.7,27.5 	"/>
</g>
</svg>
