<?xml version="1.0" encoding="utf-8"?>
<!-- Generator: Adobe Illustrator 21.1.0, SVG Export Plug-In . SVG Version: 6.00 Build 0)  -->
<svg version="1.1"
	 id="svg3379" xmlns:cc="http://creativecommons.org/ns#" xmlns:dc="http://purl.org/dc/elements/1.1/" xmlns:rdf="http://www.w3.org/1999/02/22-rdf-syntax-ns#" xmlns:svg="http://www.w3.org/2000/svg"
	 xmlns="http://www.w3.org/2000/svg" xmlns:xlink="http://www.w3.org/1999/xlink" x="0px" y="0px" viewBox="0 0 200 200"
	 style="enable-background:new 0 0 200 200;" xml:space="preserve">
<style type="text/css">
	.st0{fill:#4D4180;}
	.st1{fill:#FFFFFF;}
</style>
<g>
	<path id="path3393" class="st0" d="M100,195.2L100,195.2L100,195.2c26.2,0,50-10.7,67.2-27.9s27.9-41.1,27.9-67.2l0,0l0,0l0,0
		c0-26.2-10.7-50-27.9-67.2c-17.2-17.3-41-28-67.2-28l0,0l0,0l0,0c-26.2,0-49.9,10.7-67.2,27.9C15.5,50,4.8,73.8,4.8,100l0,0l0,0
		l0,0c0,26.2,10.7,50,27.9,67.2C50.1,184.5,73.8,195.2,100,195.2L100,195.2L100,195.2z M100,200L100,200L100,200L100,200
		c-27.5,0-52.5-11.2-70.6-29.3C11.3,152.5,0,127.5,0,100l0,0l0,0l0,0c0-27.5,11.3-52.5,29.4-70.6C47.5,11.2,72.5,0,100,0l0,0l0,0
		l0,0c27.5,0,52.5,11.2,70.6,29.3C188.8,47.5,200,72.4,200,100l0,0l0,0l0,0c0,27.5-11.2,52.5-29.3,70.6
		C152.5,188.8,127.6,200,100,200"/>
	<path id="path3395" class="st0" d="M100,197.6c53.7,0,97.6-43.8,97.6-97.6S153.7,2.4,100,2.4C46.3,2.4,2.4,46.3,2.4,100
		S46.3,197.6,100,197.6"/>
	<path id="path3397" class="st1" d="M100,196.3L100,196.3L100,196.3c26.5,0,50.6-10.8,68.1-28.3c17.5-17.4,28.3-41.5,28.3-68.1l0,0
		l0,0l0,0c0-26.5-10.8-50.6-28.3-68.1C150.6,14.5,126.5,3.7,100,3.7l0,0l0,0l0,0c-26.5,0-50.6,10.8-68.1,28.3S3.7,73.5,3.7,100l0,0
		l0,0l0,0c0,26.5,10.8,50.6,28.3,68.1C49.4,185.5,73.5,196.3,100,196.3L100,196.3L100,196.3z M100,198.8L100,198.8L100,198.8
		L100,198.8c-27.2,0-51.9-11.1-69.8-29s-29-42.6-29-69.8l0,0l0,0l0,0c0-27.2,11.1-51.9,29-69.8s42.6-29,69.8-29l0,0l0,0l0,0
		c27.2,0,51.9,11.1,69.8,29s29,42.6,29,69.8l0,0l0,0l0,0c0,27.2-11.1,51.9-29,69.8S127.2,198.8,100,198.8"/>
	<path id="path3399" class="st1" d="M100,168.7L100,168.7L100,168.7c18.9,0,36.1-7.7,48.6-20.2c12.5-12.5,20.2-29.6,20.2-48.6l0,0
		l0,0l0,0c0-18.9-7.7-36.1-20.2-48.6C136.1,39,118.9,31.3,100,31.3l0,0l0,0l0,0c-18.9,0-36.1,7.7-48.6,20.2s-20.2,29.6-20.2,48.6
		l0,0l0,0l0,0c0,18.9,7.7,36.1,20.2,48.6C63.9,161.1,81.1,168.7,100,168.7L100,168.7L100,168.7L100,168.7z M100,171.2L100,171.2
		L100,171.2L100,171.2c-19.6,0-37.4-8-50.3-20.9c-12.9-12.9-20.9-30.7-20.9-50.4l0,0l0,0l0,0c0-19.6,8-37.4,20.9-50.3
		S80.4,28.7,100,28.7l0,0l0,0l0,0c19.6,0,37.4,8,50.3,20.9c12.9,12.9,20.9,30.7,20.9,50.3l0,0l0,0l0,0c0,19.6-8,37.4-20.9,50.3
		C137.4,163.3,119.6,171.2,100,171.2"/>
	<path id="path3401" class="st1" d="M100,41.1l13.2,41.6h42.5l-34.4,25.8l13.2,41.7L100,124.4l-34.4,25.8l13.2-41.7L44.4,82.7h42.5
		L100,41.1"/>
	<path id="path3403" class="st1" d="M42.4,146.2l1.5,2.2l-13.1,8.8l-5.8-8.6l13.1-8.8l1.5,2.2l-10.9,7.3l2.8,4.3L42.4,146.2"/>
	<path id="path3405" class="st1" d="M35.9,136.6l-2.6,1.5l-1.2-2.2l2.6-1.5L35.9,136.6"/>
	<path id="path3407" class="st1" d="M28.7,120.1l1,2.6l-2.9,2.3l1.8,4.8l3.7-0.3l0.9,2.6l-16.5,1l-1-2.6L28.7,120.1z M24.6,126.8
		l-4.8,3.7l6.2-0.5L24.6,126.8"/>
	<path id="path3409" class="st1" d="M28.2,117.7l-3,0.6l-0.5-2.4l2.9-0.6L28.2,117.7"/>
	<path id="path3411" class="st1" d="M26.6,111.5l-15.7,1.1l-0.7-9.6l2.6-0.2l0.5,6.9l3.5-0.3l-0.5-6.5l2.6-0.2l0.5,6.5l4.3-0.3
		l-0.5-7.2l2.6-0.2L26.6,111.5"/>
	<path id="path3413" class="st1" d="M25.8,98.2l-3-0.1l0.1-2.5l3,0.1L25.8,98.2"/>
	<path id="path3415" class="st1" d="M31.1,72.1l-0.8,2.7l-3.7,0.1L25,79.8l3.1,2.1l-0.8,2.6l-13.6-9.4l0.8-2.6L31.1,72.1L31.1,72.1z
		 M23.7,74.9h-6.1l5.1,3.4L23.7,74.9"/>
	<path id="path3417" class="st1" d="M32.4,69.9l-2.8-1.3l1.1-2.3l2.7,1.3L32.4,69.9"/>
	<path id="path3419" class="st1" d="M36.7,62.1l-1.4,2.2L22,55.6l5.6-8.6l13.3,8.6l-1.4,2.2l-11.1-7.2l-2.8,4.3L36.7,62.1"/>
	<path id="path3421" class="st1" d="M43.5,52.6l-2.3-1.9l1.6-1.9l2.3,1.9L43.5,52.6"/>
	<path id="path3423" class="st1" d="M38.5,38.5l-1.9-2.1l6.7-6.1l1.8,2l-4.2,3.8l5.7,1.4l0.9,6.6l4.7-4.3l1.8,2l-6.9,6.3l-2-2.2
		l-0.9-6.3L38.5,38.5"/>
	<path id="path3425" class="st1" d="M74.5,29.9l-2.5,1.3l-2.6-2.7l-4.6,2.3l0.7,3.7l-2.5,1.3l-2.6-16.4l2.4-1.2L74.5,29.9L74.5,29.9
		z M67.4,26.5l-4.2-4.4l1.1,6L67.4,26.5"/>
	<path id="path3427" class="st1" d="M80,28.6l-3.2-12.7l-3.7,0.9l-0.7-2.6l10-2.5l0.6,2.6l-3.7,0.9l3.2,12.7L80,28.6"/>
	<path id="path3429" class="st1" d="M89,26.4l-1.6-15.7l4.2-0.4c1.5-0.2,2.6-0.2,3.1-0.1c0.8,0.2,1.5,0.6,2.1,1.3
		c0.6,0.7,0.9,1.8,1.1,3c0.1,1.2,0,2.1-0.4,2.9c-0.4,0.8-0.8,1.4-1.5,1.8s-1.7,0.7-3.3,0.8L91,20.1l0.6,5.9L89,26.4L89,26.4z
		 M90.3,13.1l0.4,4.5l1.5-0.2c0.9-0.1,1.6-0.2,1.9-0.4c0.3-0.2,0.6-0.4,0.7-0.8c0.2-0.4,0.3-0.8,0.2-1.4c-0.1-0.5-0.2-0.9-0.5-1.3
		c-0.3-0.3-0.6-0.5-0.9-0.6c-0.4-0.1-1.1-0.1-2.2,0.1L90.3,13.1"/>
	<path id="path3431" class="st1" d="M102.6,17.7c0.2-1.8,0.6-3.4,1.3-4.5c0.7-1.2,1.5-2,2.5-2.5c0.9-0.5,2.1-0.7,3.4-0.5
		c1.8,0.2,3.3,1.1,4.3,2.6s1.4,3.6,1.1,6.2s-1.1,4.6-2.5,5.9c-1.2,1.2-2.7,1.7-4.6,1.5c-1.8-0.2-3.3-1-4.2-2.4
		C102.7,22.4,102.3,20.3,102.6,17.7z M105.3,17.9c-0.2,1.8,0,3.2,0.6,4.2c0.6,0.9,1.4,1.5,2.4,1.6c1,0.2,1.9-0.2,2.6-1.1
		c0.8-0.8,1.3-2.2,1.5-4c0.2-1.8,0-3.2-0.5-4.2c-0.6-0.9-1.4-1.5-2.5-1.6c-1-0.1-1.9,0.3-2.7,1.1C105.9,14.7,105.5,16.1,105.3,17.9"
		/>
	<path id="path3433" class="st1" d="M117.5,27.6l5.2-14.9l3.7,1.3l-1.3,10.9l5.7-9.4l3.7,1.3l-5.1,14.9l-2.3-0.8l4.1-11.8l-6.5,10.9
		l-2.4-0.8l1.6-12.6l-4.1,11.7L117.5,27.6"/>
	<path id="path3435" class="st1" d="M132.8,33.2l8.4-13.4l2.2,1.4l-3.3,5.3l4.4,2.7l3.3-5.3l2.2,1.4l-8.3,13.4l-2.2-1.4l3.6-5.9
		l-4.3-2.7l-3.7,5.9L132.8,33.2"/>
	<path id="path3437" class="st1" d="M146.8,42.8l8.3-10.2l-2.9-2.4l1.7-2.1l8,6.5l-1.7,2.1l-3-2.4l-8.3,10.2L146.8,42.8"/>
	<path id="path3439" class="st1" d="M159.7,43.8c1.5-1.2,2.9-1.9,4.2-2.3c1.3-0.3,2.5-0.4,3.5,0c1,0.3,1.9,0.9,2.7,1.9
		c1.2,1.5,1.6,3.1,1.2,4.8c-0.4,1.8-1.6,3.5-3.6,5.2c-2.1,1.6-4,2.5-5.9,2.4c-1.7,0-3.2-0.7-4.3-2.2c-1.2-1.5-1.6-3.1-1.3-4.7
		C156.5,47.3,157.7,45.5,159.7,43.8L159.7,43.8z M161.5,45.9c-1.4,1.1-2.3,2.3-2.6,3.4c-0.3,1.1-0.1,2.1,0.6,2.8
		c0.7,0.8,1.5,1.2,2.6,1.1c1.2-0.1,2.4-0.6,3.9-1.8c1.4-1.2,2.3-2.3,2.5-3.3s0.1-2.1-0.6-2.8c-0.7-0.8-1.6-1.3-2.7-1.2
		C164.2,44.1,162.9,44.7,161.5,45.9"/>
	<path id="path3441" class="st1" d="M174.1,54.4l2.4-1.5l4.6,7.7l-2.3,1.4l-2.9-4.9l-2.5,5.4l-6.7-0.3l3.3,5.5l-2.3,1.4l-4.8-8.1
		l2.6-1.5l6.3,0.2L174.1,54.4"/>
	<path id="path3443" class="st1" d="M174.6,91.6l-0.7-2.7l3.2-2.1l-1.4-5l-3.7-0.1l-0.7-2.7l16.5,0.8l0.7,2.6L174.6,91.6L174.6,91.6
		z M179.4,85.3l5.2-3.2l-6.2-0.2L179.4,85.3"/>
	<path id="path3445" class="st1" d="M174.5,100.1c-0.1-2.1,0.6-3.7,2.1-4.8c1.5-1.1,3.4-1.7,5.7-1.8c2.6-0.1,4.6,0.4,6.2,1.5
		c1.5,1.1,2.3,2.6,2.3,4.5c0.1,1.9-0.6,3.4-2.1,4.6c-1.4,1.2-3.3,1.8-5.6,1.9c-2.7,0.1-4.8-0.4-6.3-1.5
		C175.3,103.5,174.5,102.1,174.5,100.1L174.5,100.1z M188.1,99.6c-0.1-1.2-0.5-2.1-1.5-2.6c-0.9-0.6-2.3-0.9-4.1-0.8
		c-1.7,0.1-3.1,0.4-3.9,1.2c-0.9,0.7-1.4,1.6-1.4,2.7c0.1,1.1,0.6,1.8,1.5,2.5c1,0.6,2.3,0.9,4.1,0.8c1.7-0.1,3.1-0.4,3.9-1.1
		C187.6,101.6,188.1,100.7,188.1,99.6z M181.3,101.9l-0.2-4.3l2.7-0.1l0.2,4.2L181.3,101.9"/>
	<path id="path3447" class="st1" d="M174.3,109.7l15.4,3.3l-0.6,2.5l-6.1-1.3l-1.1,5.1l6.1,1.3l-0.5,2.6l-15.4-3.3l0.5-2.6l6.7,1.4
		l1.1-5l-6.7-1.5L174.3,109.7"/>
	<path id="path3449" class="st1" d="M171.1,123.5l14.7,5.7l-0.9,2.3l-11.8,1.2l9.9,3.7l-0.9,2.3l-14.7-5.6l0.9-2.5l11.5-1.2
		l-9.6-3.7L171.1,123.5"/>
	<path id="path3451" class="st1" d="M162.6,141.2l3.3-4.9l2.3,1.5l-1.4,2.1c2.5-0.2,4.7,0.4,6.5,1.6c1.7,1.2,2.8,2.6,3.3,4.3
		c0.4,1.7,0.2,3.3-0.9,4.8c-1,1.5-2.4,2.4-4.1,2.6c-1.8,0.2-3.5-0.3-5.2-1.4c-1.9-1.3-3.2-3.1-3.9-5.5l-1.4,2.1l-2.2-1.5l3.3-4.9
		l2.1,1.4c-0.4,2.2,0.7,4.1,3,5.7c1.3,0.8,2.5,1.3,3.6,1.3c1.2-0.1,2-0.4,2.6-1.3c0.6-0.9,0.7-1.8,0.3-2.8c-0.4-1.1-1.3-2-2.5-2.8
		c-2.3-1.5-4.5-1.8-6.4-0.7L162.6,141.2"/>
	<path id="path3453" class="st1" d="M156.7,149.8l11.7,10.5l-1.7,1.9l-11.4-3.2l7.8,7.1l-1.6,1.8l-11.7-10.5l1.8-2l11.1,3.1
		l-7.6-6.8L156.7,149.8"/>
</g>
</svg>
