<?xml version="1.0" encoding="utf-8"?>
<!-- Generator: Adobe Illustrator 21.1.0, SVG Export Plug-In . SVG Version: 6.00 Build 0)  -->
<svg version="1.1"
	 id="svg2" xmlns:cc="http://creativecommons.org/ns#" xmlns:dc="http://purl.org/dc/elements/1.1/" xmlns:rdf="http://www.w3.org/1999/02/22-rdf-syntax-ns#" xmlns:svg="http://www.w3.org/2000/svg"
	 xmlns="http://www.w3.org/2000/svg" xmlns:xlink="http://www.w3.org/1999/xlink" x="0px" y="0px" viewBox="0 0 200 200"
	 style="enable-background:new 0 0 200 200;" xml:space="preserve">
<style type="text/css">
	.st0{fill:#01422C;}
	.st1{fill:#FFFFFF;}
	.st2{fill:#E29A2A;}
	.st3{fill:none;stroke:#E29A2A;stroke-width:1.4173;stroke-linecap:round;stroke-linejoin:round;}
	.st4{fill:none;stroke:#1B1918;stroke-width:0.5669;}
</style>
<g id="Layer1000">
	<path id="path5" class="st0" d="M32.9,24.7h-2.3l-0.9-2.9h-4.2l-0.9,2.9h-2.3l4.1-12.9h2.3L32.9,24.7z M29,19.6l-1.5-4.8l-1.4,4.8
		H29z M34,24.7V11.9h7.4v2.2h-5.3v10.6H34z M42.8,24.7V11.8h3.4c1.3,0,2.1,0.1,2.5,0.2c0.6,0.2,1.1,0.6,1.5,1.3
		c0.4,0.6,0.6,1.5,0.6,2.5c0,0.9-0.2,1.7-0.5,2.3c-0.3,0.6-0.8,1.1-1.3,1.3c-0.5,0.3-1.4,0.4-2.7,0.4h-1.4v4.9
		C44.9,24.7,42.8,24.7,42.8,24.7z M44.9,14v3.7h1.2c0.8,0,1.3-0.1,1.6-0.2c0.3-0.1,0.5-0.3,0.7-0.6c0.2-0.3,0.3-0.7,0.3-1.1
		c0-0.4-0.1-0.8-0.3-1.1c-0.2-0.3-0.4-0.5-0.7-0.6C47.4,14,46.9,14,46,14H44.9z M52.2,18.3c0-1.5,0.2-2.8,0.7-3.8
		c0.4-1,1-1.7,1.8-2.2c0.7-0.5,1.6-0.7,2.6-0.7c1.5,0,2.7,0.6,3.7,1.7c0.9,1.2,1.4,2.8,1.4,4.9c0,2.2-0.5,3.8-1.5,5
		c-0.9,1.1-2.1,1.6-3.6,1.6c-1.5,0-2.7-0.5-3.6-1.6C52.7,22.1,52.2,20.4,52.2,18.3L52.2,18.3z M54.4,18.2c0,1.5,0.3,2.6,0.8,3.3
		c0.6,0.7,1.3,1.1,2.1,1.1c0.8,0,1.5-0.4,2.1-1.1c0.5-0.7,0.8-1.9,0.8-3.4c0-1.5-0.3-2.6-0.8-3.3c-0.5-0.7-1.2-1.1-2.1-1.1
		c-0.9,0-1.6,0.4-2.1,1.1C54.6,15.6,54.4,16.7,54.4,18.2L54.4,18.2z M66.4,24.7V14h-3.1v-2.2h8.3V14h-3.1v10.7H66.4z M72.9,24.7
		V11.8H75v12.9H72.9z M77.1,24.7V11.8h2.1v5.7l4.3-5.7h2.9l-4,5l4.2,7.9h-2.7l-2.9-6l-1.7,2.2v3.9H77.1L77.1,24.7z M87.2,18.3
		c0-1.5,0.2-2.8,0.7-3.8c0.4-1,1-1.7,1.8-2.2c0.7-0.5,1.6-0.7,2.6-0.7c1.5,0,2.7,0.6,3.7,1.7c0.9,1.2,1.4,2.8,1.4,4.9
		c0,2.2-0.5,3.8-1.5,5c-0.9,1.1-2.1,1.6-3.6,1.6c-1.5,0-2.7-0.5-3.6-1.6C87.7,22.1,87.2,20.4,87.2,18.3L87.2,18.3z M89.4,18.2
		c0,1.5,0.3,2.6,0.8,3.3c0.6,0.7,1.3,1.1,2.1,1.1c0.8,0,1.5-0.4,2.1-1.1c0.5-0.7,0.8-1.9,0.8-3.4c0-1.5-0.3-2.6-0.8-3.3
		c-0.5-0.7-1.2-1.1-2.1-1.1c-0.9,0-1.6,0.4-2.1,1.1C89.7,15.6,89.4,16.7,89.4,18.2L89.4,18.2z M98.7,14.1v-2.3h7.3V14h-4.7l2.7,4
		l-3,4.6h5.2v2.2h-7.6v-2.4l2.8-4.3L98.7,14.1L98.7,14.1z M121.4,24.7h-2.3l-0.9-2.9H114l-0.9,2.9h-2.3l4.1-12.9h2.3L121.4,24.7z
		 M117.5,19.6l-1.5-4.8l-1.4,4.8H117.5L117.5,19.6z M122.2,14.1v-2.3h7.3V14h-4.7l2.7,4l-3,4.6h5.2v2.2h-7.6v-2.4l2.8-4.3
		L122.2,14.1z M133.7,24.7V14h-3.1v-2.2h8.3V14h-3.1v10.7H133.7z M140.3,24.7V11.8h7.8V14h-5.7v2.8h5.3V19h-5.3v3.5h5.9v2.2H140.3
		L140.3,24.7z M150,24.7V11.8h3.4c1.3,0,2.1,0.1,2.5,0.2c0.6,0.2,1.1,0.6,1.5,1.3c0.4,0.6,0.6,1.5,0.6,2.5c0,0.9-0.2,1.7-0.5,2.3
		c-0.3,0.6-0.8,1.1-1.3,1.3c-0.5,0.3-1.4,0.4-2.7,0.4h-1.4v4.9H150z M152.1,14v3.7h1.2c0.8,0,1.3-0.1,1.6-0.2
		c0.3-0.1,0.5-0.3,0.7-0.6c0.2-0.3,0.3-0.7,0.3-1.1c0-0.4-0.1-0.8-0.3-1.1c-0.2-0.3-0.4-0.5-0.7-0.6c-0.3-0.1-0.9-0.1-1.7-0.1H152.1
		L152.1,14z M169.3,24.7H167l-0.9-2.9h-4.2l-0.9,2.9h-2.3l4.1-12.9h2.3L169.3,24.7z M165.4,19.6l-1.5-4.8l-1.4,4.8H165.4z
		 M170.1,14.1v-2.3h7.3V14h-4.7l2.7,4l-3,4.6h5.2v2.2H170v-2.4l2.8-4.3L170.1,14.1L170.1,14.1z"/>
	<path id="path7" class="st1" d="M64.6,49.7L64.3,49c-1.3,0.5-1.9,0.1-2.5-1l-4.3-8.5c-1.1,1.2-2.6,2.7-3.5,3.4l0.4,0.7l0.7-0.5
		c0.6-0.4,1-0.6,1.4,0.3l3,5.8c0.6,1.2,0.1,1.8-1.1,2.5l0.3,0.6L64.6,49.7z"/>
	<path id="path9" class="st1" d="M71,36c-2.6,0.3-3.8,2.7-3.6,4.4c0.2,2,1.8,3.6,3.8,3.4c0.6-0.1,1.2-0.2,1.7-0.5
		c-0.5,2.3-1.6,3.7-4.1,4.6c-0.6,0.2-0.3,0.9,0.2,0.8c0.7-0.1,2.2-0.8,2.8-1.1c2.3-1.4,4.3-3.6,3.9-7C75.4,38.1,73.6,35.7,71,36z
		 M70.8,36.7c1.3-0.2,1.9,1.6,2.1,3.7c0,0.4,0.1,1.3,0,2c-0.2,0.2-0.4,0.3-0.8,0.3c-1.3,0.2-1.8-1.4-2-3
		C69.9,38.9,69.7,36.8,70.8,36.7L70.8,36.7z"/>
	<path id="path11" class="st1" d="M86,40.6c0.9-0.2,1.7-0.7,1.8-1.8c0.1-1.5-0.7-2.5-2.4-2.8c-1-0.2-2.4,0-3.4,0.5
		c-0.6,0.4-1.2,1-1.5,1.5c-0.3,0.4,0.1,0.8,0.4,0.5c0.8-0.8,2-1.2,2.9-0.9c0.9,0.3,1.4,1.4,0.9,2.3c-0.7,1.3-1.5,0.5-2.5,1l0,0.9
		c0.3,0,0.8,0,1.4,0.3c1.1,0.4,1.7,1.3,1.7,3.1c0,1.3-1.5,1.9-2.3,1.8c-1-0.2-1.3-1.4-1.7-1.7c-0.5-0.4-1-0.5-1.4-0.4
		c-0.4,0.1-0.6,0.5-0.7,0.9c0,0.5,0.1,1,0.3,1.3c0.3,0.4,1.3,0.8,2.2,0.9c1.6,0.2,5.1-0.5,5.7-3.5c0.3-1.4,0.1-2.8-1.4-3.6L86,40.6
		L86,40.6z"/>
	<path id="path13" class="st1" d="M98.9,48.8c-1.1,0.8-1.3,1-2.3,0.6l-2.8-1.2l2.7-1.1c2.4-1,3.9-1.6,4.5-2.9
		c0.9-1.9,0.3-3.4-1.3-4.1c-1-0.5-2.7-0.4-3.6,0c-0.7,0.3-1.3,0.7-1.7,1.2c-0.2,0.3,0.2,0.8,0.7,0.4c0.8-0.8,1.7-0.6,2.4-0.4
		c1.1,0.3,1.2,0.9,1,2.3c-0.2,1.3-1.4,2.4-3.8,3.3c-1.2,0.5-3.1,1.2-4.4,1.7L90.1,49l7.1,3c0.5-0.7,1.4-1.9,2.2-2.9L98.9,48.8
		L98.9,48.8z"/>
	<path id="path15" class="st1" d="M52.4,50.1c-0.9,0-1.7-0.7-1.7-1.7c0-0.9,0.7-1.7,1.7-1.7c0.9,0,1.7,0.7,1.7,1.7
		C54.1,49.3,53.3,50.1,52.4,50.1L52.4,50.1z"/>
	<path id="path17" class="st1" d="M103.4,50.1c-0.9,0-1.7-0.7-1.7-1.7c0,0,0,0,0,0c0-0.9,0.7-1.7,1.7-1.7c0.9,0,1.7,0.7,1.7,1.7
		C105.1,49.4,104.3,50.1,103.4,50.1z"/>
	<path id="path19" class="st2" d="M28.2,68.3c0-0.6,0.4-1,0.8-0.9c3.3,0.6,5.6,4.2,6.7,5.9c-0.8-2.2-0.5-4.5-0.3-5.7
		c0.3-1.1,0.6-2.3,1.3-2.9c0.3-0.2,0.5-0.4,0.8-0.1c1.1,1.1,2.1,2.9,2.2,5.1c0.2,2.3-0.4,4-2.4,6.5c-0.5,0.6-1.5,0.8-2,0.6
		C31.6,75.4,28.1,73.6,28.2,68.3L28.2,68.3z"/>
	<path id="path21" class="st2" d="M25.7,58.1c-0.1-0.6,0.5-0.5,1-0.4c4.2,0.8,5.2,5.4,6,6c0.6-0.9,0.1-3.6,0.4-5.3
		c0.2-1.1,0.7-2,1.4-2.5c0.3-0.2,0.6-0.4,0.8,0c1,1.2,1.7,2.8,1.7,5c0,2.3-0.4,4-2.7,6.2c-0.4,0.4-1,0.7-1.5,0.5
		C29,65.8,26.2,63.2,25.7,58.1z"/>
	<path id="path23" class="st2" d="M33.9,87.2c0-0.6,0.4-1,0.8-0.9c3.3,0.6,6.4,3.1,7.4,4.8c-0.8-2.2-0.7-4.4-0.4-5.7
		c0.3-1.1,0.7-2.4,1.4-2.9c0.3-0.2,0.6-0.3,1-0.1c1.5,1,2.3,2.9,2.3,5c0.1,2.4-0.4,3.8-2.5,6.1c-1,1.1-1.7,1.3-2.6,1.1
		C37.7,93.8,34.2,92.2,33.9,87.2z"/>
	<path id="path25" class="st2" d="M37.5,95.4c0-0.6,0.4-1,0.8-0.9c3.4,0.6,5.8,2.5,6.8,4.3c-0.8-2.2-0.2-4,0.2-5.3
		c0.3-1.1,0.7-2.1,1.5-2.7c0.3-0.2,0.9-0.4,1.3-0.2c1,0.4,1.8,2.3,1.8,4.5c-0.1,2.3-0.5,3.4-2.5,5.9c-1,1.2-1.9,1.6-2.8,1.5
		C40.7,102.1,37.8,100.3,37.5,95.4L37.5,95.4z"/>
	<path id="path27" class="st2" d="M40.1,103.6c-0.1-0.6,0.4-0.9,1.3-1c3-0.2,5.7,2.1,6.7,3.9c-0.8-2.2-0.6-3.8-0.3-5.1
		c0.3-1.1,0.7-2.1,1.5-2.7c0.3-0.2,0.9-0.4,1.3-0.2c1,0.4,2,2,2.1,4.2c0.1,2.2-0.1,3.5-2.1,5.9c-1,1.2-2.2,1.4-3.1,1.2
		C44.2,109.1,40.8,108.6,40.1,103.6L40.1,103.6z"/>
	<path id="path29" class="st2" d="M43.1,110.3c0-0.6,0.1-1,1-0.9c3.3,0.3,5.8,4,6.8,5.8c-0.8-2.2-0.6-3.8-0.3-5.1
		c0.3-1.1,0.7-2.1,1.5-2.7c0.3-0.2,0.9-0.6,1.3-0.4c0.9,0.4,1.5,2.1,1.6,4.4c0.1,2.2,0.2,4-1.5,5.9c-1,1.1-2.1,2-3.1,1.7
		C47.3,117.8,42.9,114.2,43.1,110.3L43.1,110.3z"/>
	<path id="path31" class="st2" d="M46.9,118.2c-0.1-0.3-0.1-0.6,0.1-0.9c0.1-0.2,0.4-0.3,0.8-0.2c4,1.4,6.7,5.6,7.7,7.4
		c-0.8-2.2-0.8-3.5-0.8-4.8c0-1.2,0.4-3.1,0.9-4c0.3-0.5,0.5-0.7,0.9-0.6c1.1,0.3,2.9,3.2,3,5.4c0.1,2.2,0.1,3.5-1.1,6.6
		c-0.5,1.4-1.4,1.5-2.3,1.1C52.7,126.6,47.7,122.9,46.9,118.2L46.9,118.2z"/>
	<path id="path33" class="st2" d="M51.7,127.5c-0.1-0.3-0.2-0.6,0-0.8c0.1-0.2,0.6-0.1,1,0.1c3.7,2.4,6.7,5.1,7.7,6.9
		c-1.3-2.7-1.3-3.7-1.4-5c-0.1-1.2,0.1-2.8,0.4-3.9c0.2-0.6,0.6-1,1-0.8c0.9,0.4,2.8,3.5,3.3,5.8c0.4,1.8,0.6,3.4-0.5,6.7
		c-0.5,1.4-1,1.2-1.9,0.9C57.8,136.3,52.8,131.9,51.7,127.5L51.7,127.5z"/>
	<path id="path35" class="st2" d="M58.6,137.7c-0.1-0.3-0.2-0.8-0.1-1c0.1-0.2,0.8-0.1,1.2,0.1c3.7,1.7,6.2,3.3,7.3,5
		c-1.4-2.6-1.9-3.6-2.2-5c-0.4-1.4-0.3-2.9-0.2-4c0.1-0.9,0.4-1.2,0.8-1.1c0.9,0.4,3.5,3.2,4.3,6c0.5,1.8,0.5,2.9,0.4,6.7
		c-0.1,1.5-1.3,1.3-2.3,1.1C62.9,144.3,60.1,141.1,58.6,137.7z"/>
	<path id="path37" class="st2" d="M64.1,147.5c-0.1-0.3-0.3-0.8,0-1.1c0.2-0.2,0.9-0.1,1.4,0c3.7,0.9,6.7,2.5,7.9,4.2
		c-1.3-2.3-2.1-3.2-2.3-4.8c-0.2-1.4-0.3-2.6-0.1-3.7c0.1-0.9,0.4-1.2,0.8-1.1c0.9,0.4,3.9,2.6,4.6,5.4c0.5,1.8,1,3.6,0.4,6.3
		c-0.4,1.5-1.6,1.7-2.6,1.6C69.4,153.6,65.9,150.9,64.1,147.5L64.1,147.5z"/>
	<path id="path39" class="st3" d="M29.6,35.9c-0.2,0.8-0.4,1.7-0.5,2.5c-0.8,7.9,1.1,16.3,2.9,24.7"/>
	<path id="path41" class="st3" d="M28.2,35.9c-1.5,4.3,0.9,15.5,3.5,27.2"/>
	<path id="path43" class="st3" d="M26.4,35.9c-0.2,7.4,2.1,17,5.2,27.2"/>
	<path id="path45" class="st3" d="M22.4,38.9c1.2,8.1,4.1,15.2,8.5,21.6"/>
	<path id="path47" class="st3" d="M19.9,41.3c2.6,7,5.6,13.3,9.4,18.2"/>
	<path id="path49" class="st2" d="M28.2,68.3c0-0.6,0.4-1,0.8-0.9c3.3,0.6,5.6,4.2,6.7,5.9c-0.8-2.2-0.5-4.5-0.3-5.7
		c0.3-1.1,0.6-2.3,1.3-2.9c0.3-0.2,0.5-0.4,0.8-0.1c1.1,1.1,2.1,2.9,2.2,5.1c0.2,2.3-0.4,4-2.4,6.5c-0.5,0.6-1.5,0.8-2,0.6
		C31.6,75.4,28.1,73.6,28.2,68.3L28.2,68.3z"/>
	<path id="path51" class="st2" d="M30.5,77.4c0-0.6,0.4-1,0.8-0.9c3.3,0.6,6.4,3.8,7.4,5.5c-0.8-2.2-0.7-4.4-0.4-5.7
		c0.3-1.1,0.7-2.4,1.4-2.9c0.3-0.2,0.5-0.4,0.8-0.1c1.1,1.1,2.1,2.9,2.2,5.1c0.2,2.3-0.3,4-2.3,6.3c-0.5,0.6-2.2,0.9-2.8,0.7
		C34,84.1,30.5,82.7,30.5,77.4z"/>
	<path id="path53" class="st2" d="M25.7,58.1c-0.1-0.6,0.5-0.5,1-0.4c4.2,0.8,5.2,5.4,6,6c0.6-0.9,0.1-3.6,0.4-5.3
		c0.2-1.1,0.7-2,1.4-2.5c0.3-0.2,0.6-0.4,0.8,0c1,1.2,1.7,2.8,1.7,5c0,2.3-0.4,4-2.7,6.2c-0.4,0.4-1,0.7-1.5,0.5
		C29,65.8,26.2,63.2,25.7,58.1z"/>
	<path id="path55" class="st2" d="M33.9,87.2c0-0.6,0.4-1,0.8-0.9c3.3,0.6,6.4,3.1,7.4,4.8c-0.8-2.2-0.7-4.4-0.4-5.7
		c0.3-1.1,0.7-2.4,1.4-2.9c0.3-0.2,0.6-0.3,1-0.1c1.5,1,2.3,2.9,2.3,5c0.1,2.4-0.4,3.8-2.5,6.1c-1,1.1-1.7,1.3-2.6,1.1
		C37.7,93.8,34.2,92.2,33.9,87.2z"/>
	<path id="path57" class="st2" d="M37.5,95.4c0-0.6,0.4-1,0.8-0.9c3.4,0.6,5.8,2.5,6.8,4.3c-0.8-2.2-0.2-4,0.2-5.3
		c0.3-1.1,0.7-2.1,1.5-2.7c0.3-0.2,0.9-0.4,1.3-0.2c1,0.4,1.8,2.3,1.8,4.5c-0.1,2.3-0.5,3.4-2.5,5.9c-1,1.2-1.9,1.6-2.8,1.5
		C40.7,102.1,37.8,100.3,37.5,95.4L37.5,95.4z"/>
	<path id="path59" class="st2" d="M40.1,103.6c-0.1-0.6,0.4-0.9,1.3-1c3-0.2,5.7,2.1,6.7,3.9c-0.8-2.2-0.6-3.8-0.3-5.1
		c0.3-1.1,0.7-2.1,1.5-2.7c0.3-0.2,0.9-0.4,1.3-0.2c1,0.4,2,2,2.1,4.2c0.1,2.2-0.1,3.5-2.1,5.9c-1,1.2-2.2,1.4-3.1,1.2
		C44.2,109.1,40.8,108.6,40.1,103.6L40.1,103.6z"/>
	<path id="path61" class="st2" d="M43.1,110.3c0-0.6,0.1-1,1-0.9c3.3,0.3,5.8,4,6.8,5.8c-0.8-2.2-0.6-3.8-0.3-5.1
		c0.3-1.1,0.7-2.1,1.5-2.7c0.3-0.2,0.9-0.6,1.3-0.4c0.9,0.4,1.5,2.1,1.6,4.4c0.1,2.2,0.2,4-1.5,5.9c-1,1.1-2.1,2-3.1,1.7
		C47.3,117.8,42.9,114.2,43.1,110.3L43.1,110.3z"/>
	<path id="path63" class="st2" d="M46.9,118.2c-0.1-0.3-0.1-0.6,0.1-0.9c0.1-0.2,0.4-0.3,0.8-0.2c4,1.4,6.7,5.6,7.7,7.4
		c-0.8-2.2-0.8-3.5-0.8-4.8c0-1.2,0.4-3.1,0.9-4c0.3-0.5,0.5-0.7,0.9-0.6c1.1,0.3,2.9,3.2,3,5.4c0.1,2.2,0.1,3.5-1.1,6.6
		c-0.5,1.4-1.4,1.5-2.3,1.1C52.7,126.6,47.7,122.9,46.9,118.2L46.9,118.2z"/>
	<path id="path65" class="st2" d="M51.7,127.5c-0.1-0.3-0.2-0.6,0-0.8c0.1-0.2,0.6-0.1,1,0.1c3.7,2.4,6.7,5.1,7.7,6.9
		c-1.3-2.7-1.3-3.7-1.4-5c-0.1-1.2,0.1-2.8,0.4-3.9c0.2-0.6,0.6-1,1-0.8c0.9,0.4,2.8,3.5,3.3,5.8c0.4,1.8,0.6,3.4-0.5,6.7
		c-0.5,1.4-1,1.2-1.9,0.9C57.8,136.3,52.8,131.9,51.7,127.5L51.7,127.5z"/>
	<path id="path67" class="st2" d="M58.6,137.7c-0.1-0.3-0.2-0.8-0.1-1c0.1-0.2,0.8-0.1,1.2,0.1c3.7,1.7,6.2,3.3,7.3,5
		c-1.4-2.6-1.9-3.6-2.2-5c-0.4-1.4-0.3-2.9-0.2-4c0.1-0.9,0.4-1.2,0.8-1.1c0.9,0.4,3.5,3.2,4.3,6c0.5,1.8,0.5,2.9,0.4,6.7
		c-0.1,1.5-1.3,1.3-2.3,1.1C62.9,144.3,60.1,141.1,58.6,137.7z"/>
	<path id="path69" class="st2" d="M64.1,147.5c-0.1-0.3-0.3-0.8,0-1.1c0.2-0.2,0.9-0.1,1.4,0c3.7,0.9,6.7,2.5,7.9,4.2
		c-1.3-2.3-2.1-3.2-2.3-4.8c-0.2-1.4-0.3-2.6-0.1-3.7c0.1-0.9,0.4-1.2,0.8-1.1c0.9,0.4,3.9,2.6,4.6,5.4c0.5,1.8,1,3.6,0.4,6.3
		c-0.4,1.5-1.6,1.7-2.6,1.6C69.4,153.6,65.9,150.9,64.1,147.5L64.1,147.5z"/>
	<path id="path71" class="st2" d="M29.3,35.8c0.1-0.2,0.2-0.3,0.4-0.2c0.2,0.1,0.3,0.2,0.2,0.4c-0.1,0.4-0.2,0.8-0.3,1.2
		c-0.1,0.4-0.1,0.8-0.2,1.3c-0.4,3.9-0.1,8,0.5,12.1c0.6,4.1,1.5,8.3,2.4,12.5c0,0.2-0.1,0.3-0.2,0.4c-0.2,0-0.3-0.1-0.4-0.2
		c-0.9-4.2-1.9-8.4-2.5-12.5c-0.6-4.2-0.9-8.3-0.5-12.2c0-0.4,0.1-0.9,0.2-1.3C29.1,36.6,29.2,36.2,29.3,35.8z"/>
	<path id="path73" class="st2" d="M27.9,35.8c0.1-0.2,0.2-0.3,0.4-0.2c0.2,0.1,0.3,0.2,0.2,0.4c-0.7,2.1-0.5,5.9,0.2,10.7
		c0.7,4.8,2,10.5,3.3,16.4c0,0.2-0.1,0.3-0.2,0.4c-0.2,0-0.3-0.1-0.4-0.2C30,57.3,28.8,51.5,28,46.7C27.3,41.9,27.1,38,27.9,35.8z"
		/>
	<path id="path75" class="st2" d="M26.1,35.9c0-0.2,0.2-0.3,0.3-0.3c0.2,0,0.3,0.2,0.3,0.3c-0.1,3.7,0.4,7.9,1.4,12.5
		C29.1,53,30.4,57.9,32,63c0.1,0.2,0,0.4-0.2,0.4c-0.2,0.1-0.4,0-0.4-0.2c-1.5-5.1-2.9-10.1-3.8-14.7C26.5,43.9,26,39.6,26.1,35.9z"
		/>
	<path id="path77" class="st2" d="M22.1,39c0-0.2,0.1-0.3,0.3-0.4c0.2,0,0.3,0.1,0.4,0.3c0.6,4,1.6,7.8,3,11.4
		c1.4,3.6,3.2,6.9,5.4,10.1c0.1,0.1,0.1,0.4-0.1,0.5c-0.1,0.1-0.4,0.1-0.5-0.1c-2.2-3.2-4.1-6.6-5.5-10.3C23.7,46.8,22.7,43,22.1,39
		z"/>
	<path id="path79" class="st2" d="M19.6,41.4c-0.1-0.2,0-0.4,0.2-0.4c0.2-0.1,0.4,0,0.4,0.2c1.3,3.5,2.7,6.8,4.2,9.9
		c1.5,3.1,3.2,5.8,5.1,8.3c0.1,0.1,0.1,0.3-0.1,0.5c-0.1,0.1-0.3,0.1-0.5-0.1c-1.9-2.5-3.6-5.3-5.2-8.4
		C22.3,48.2,20.9,44.9,19.6,41.4L19.6,41.4z"/>
	<path id="path81" class="st2" d="M171.4,68.1c0-0.6-0.4-1-0.8-0.9c-3.3,0.6-5.6,4.2-6.7,5.9c0.8-2.2,0.5-4.5,0.3-5.7
		c-0.3-1.1-0.6-2.3-1.3-2.9c-0.3-0.2-0.5-0.4-0.8-0.1c-1.1,1.1-2.1,2.9-2.2,5.1c-0.2,2.3,0.4,4,2.4,6.5c0.5,0.6,1.5,0.8,2,0.6
		C168,75.2,171.4,73.4,171.4,68.1L171.4,68.1z"/>
	<path id="path83" class="st2" d="M169.1,77.1c0-0.6-0.4-1-0.8-0.9c-3.3,0.6-6.4,3.8-7.4,5.5c0.8-2.2,0.7-4.4,0.4-5.7
		c-0.3-1.1-0.7-2.4-1.4-2.9c-0.3-0.2-0.5-0.4-0.8-0.1c-1.1,1.1-2.1,2.9-2.2,5.1c-0.2,2.3,0.3,4,2.3,6.3c0.5,0.6,2.2,0.9,2.8,0.7
		C165.6,83.8,169.1,82.4,169.1,77.1L169.1,77.1z"/>
	<path id="path85" class="st2" d="M173.8,57.8c0.1-0.6-0.5-0.5-1-0.4c-4.2,0.8-5.2,5.4-6,6c-0.6-0.9-0.1-3.6-0.4-5.3
		c-0.2-1.1-0.7-2-1.4-2.5c-0.3-0.2-0.6-0.4-0.8,0c-1,1.2-1.7,2.8-1.7,5c0,2.3,0.4,4,2.7,6.2c0.4,0.4,1,0.7,1.5,0.5
		C170.6,65.5,173.4,63,173.8,57.8z"/>
	<path id="path87" class="st2" d="M165.6,87c0-0.6-0.4-1-0.8-0.9c-3.3,0.6-6.4,3.1-7.4,4.8c0.8-2.2,0.7-4.4,0.4-5.7
		c-0.3-1.1-0.7-2.4-1.4-2.9c-0.3-0.2-0.6-0.3-1-0.1c-1.5,1-2.3,2.9-2.3,5c-0.1,2.4,0.4,3.8,2.5,6.1c1,1.1,1.7,1.3,2.6,1.1
		C161.9,93.6,165.4,91.9,165.6,87L165.6,87z"/>
	<path id="path89" class="st2" d="M162,95.2c0-0.6-0.4-1-0.8-0.9c-3.4,0.6-5.8,2.5-6.8,4.3c0.8-2.2,0.2-4-0.2-5.3
		c-0.3-1.1-0.7-2.1-1.5-2.7c-0.3-0.2-0.9-0.4-1.3-0.2c-1,0.4-1.8,2.3-1.8,4.5c0.1,2.3,0.5,3.4,2.5,5.9c1,1.2,1.9,1.6,2.8,1.5
		C158.9,101.9,161.8,100.1,162,95.2L162,95.2z"/>
	<path id="path91" class="st2" d="M159.4,103.4c0.1-0.6-0.4-0.9-1.3-1c-3-0.2-5.7,2.1-6.7,3.9c0.8-2.2,0.6-3.8,0.3-5.1
		c-0.3-1.1-0.7-2.1-1.5-2.7c-0.3-0.2-0.9-0.4-1.3-0.2c-1,0.4-2,2-2.1,4.2c-0.1,2.2,0.1,3.5,2.1,5.9c1,1.2,2.2,1.4,3.1,1.2
		C155.4,108.9,158.7,108.3,159.4,103.4L159.4,103.4z"/>
	<path id="path93" class="st2" d="M156.4,110.1c0-0.6-0.1-1-1-0.9c-3.3,0.3-5.8,4-6.8,5.8c0.8-2.2,0.6-3.8,0.3-5.1
		c-0.3-1.1-0.7-2.1-1.5-2.7c-0.3-0.2-0.9-0.6-1.3-0.4c-0.9,0.4-1.5,2.1-1.6,4.4c-0.1,2.2-0.2,4,1.5,5.9c1,1.1,2.1,2,3.1,1.7
		C152.3,117.6,156.6,113.9,156.4,110.1z"/>
	<path id="path95" class="st2" d="M152.7,117.9c0.1-0.3,0.1-0.6-0.1-0.9c-0.1-0.2-0.4-0.3-0.8-0.2c-4,1.4-6.7,5.6-7.7,7.4
		c0.8-2.2,0.8-3.5,0.8-4.8c0-1.2-0.4-3.1-0.9-4c-0.3-0.5-0.5-0.7-0.9-0.6c-1.1,0.3-2.9,3.2-3,5.4c-0.1,2.2-0.1,3.5,1.1,6.6
		c0.5,1.4,1.4,1.5,2.3,1.1C146.9,126.4,151.9,122.6,152.7,117.9z"/>
	<path id="path97" class="st2" d="M147.9,127.2c0.1-0.3,0.2-0.6,0-0.8c-0.1-0.2-0.6-0.1-1,0.1c-3.7,2.4-6.7,5.1-7.7,6.9
		c1.3-2.7,1.3-3.7,1.4-5c0.1-1.2-0.1-2.8-0.4-3.9c-0.2-0.6-0.6-1-1-0.8c-0.9,0.4-2.8,3.5-3.3,5.8c-0.4,1.8-0.6,3.4,0.5,6.7
		c0.5,1.4,1,1.2,1.9,0.9C141.7,136,146.8,131.7,147.9,127.2L147.9,127.2z"/>
	<path id="path99" class="st2" d="M141,137.5c0.1-0.3,0.2-0.8,0.1-1c-0.1-0.2-0.8-0.1-1.2,0.1c-3.7,1.7-6.2,3.3-7.3,5
		c1.4-2.6,1.9-3.6,2.2-5c0.4-1.4,0.3-2.9,0.2-4c-0.1-0.9-0.4-1.2-0.8-1.1c-0.9,0.4-3.5,3.2-4.3,6c-0.5,1.8-0.5,2.9-0.4,6.7
		c0.1,1.5,1.3,1.3,2.3,1.1C136.7,144,139.4,140.9,141,137.5L141,137.5z"/>
	<path id="path101" class="st2" d="M135.5,147.3c0.1-0.3,0.3-0.8,0-1.1c-0.2-0.2-0.9-0.1-1.4,0c-3.7,0.9-6.7,2.5-7.9,4.2
		c1.3-2.3,2.1-3.2,2.3-4.8c0.2-1.4,0.3-2.6,0.1-3.7c-0.1-0.9-0.4-1.2-0.8-1.1c-0.9,0.4-3.9,2.6-4.6,5.4c-0.5,1.8-1,3.6-0.4,6.3
		c0.4,1.5,1.6,1.7,2.6,1.6C130.1,153.4,133.7,150.7,135.5,147.3L135.5,147.3z"/>
	<path id="path103" class="st2" d="M169.7,35.7c-0.1-0.2,0-0.4,0.2-0.4c0.2-0.1,0.4,0,0.4,0.2c0.1,0.4,0.2,0.8,0.3,1.3
		c0.1,0.4,0.1,0.9,0.2,1.3c0.4,4,0.1,8.1-0.5,12.2c-0.6,4.1-1.5,8.3-2.5,12.5c0,0.2-0.2,0.3-0.4,0.2c-0.2,0-0.3-0.2-0.2-0.4
		c0.9-4.2,1.8-8.4,2.4-12.5c0.6-4.1,0.9-8.2,0.5-12.1c0-0.4-0.1-0.8-0.2-1.3C169.9,36.5,169.8,36.1,169.7,35.7L169.7,35.7z"/>
	<path id="path105" class="st2" d="M171.1,35.7c-0.1-0.2,0-0.4,0.2-0.4c0.2-0.1,0.4,0,0.4,0.2c0.8,2.2,0.5,6.1-0.2,11
		c-0.7,4.8-2,10.5-3.3,16.4c0,0.2-0.2,0.3-0.4,0.2c-0.2,0-0.3-0.2-0.2-0.4c1.3-5.9,2.5-11.6,3.3-16.4
		C171.6,41.7,171.8,37.8,171.1,35.7L171.1,35.7z"/>
	<path id="path107" class="st2" d="M172.8,35.6c0-0.2,0.1-0.3,0.3-0.3c0.2,0,0.3,0.1,0.3,0.3c0.1,3.7-0.4,8-1.4,12.7
		c-0.9,4.6-2.3,9.6-3.8,14.7c-0.1,0.2-0.2,0.3-0.4,0.2c-0.2-0.1-0.3-0.2-0.2-0.4c1.5-5.1,2.9-10,3.8-14.6
		C172.4,43.6,172.9,39.3,172.8,35.6L172.8,35.6z"/>
	<path id="path109" class="st2" d="M176.9,38.6c0-0.2,0.2-0.3,0.4-0.3c0.2,0,0.3,0.2,0.3,0.4c-0.6,4.1-1.6,7.9-3.1,11.5
		c-1.4,3.6-3.3,7-5.5,10.3c-0.1,0.1-0.3,0.2-0.5,0.1s-0.2-0.3-0.1-0.5c2.2-3.2,4-6.6,5.4-10.1C175.3,46.4,176.3,42.6,176.9,38.6
		L176.9,38.6z"/>
	<path id="path111" class="st2" d="M179.4,40.9c0.1-0.2,0.2-0.3,0.4-0.2c0.2,0.1,0.3,0.2,0.2,0.4c-1.3,3.5-2.7,6.9-4.3,9.9
		c-1.6,3.1-3.3,5.9-5.2,8.4c-0.1,0.1-0.3,0.2-0.5,0.1c-0.1-0.1-0.2-0.3-0.1-0.5c1.9-2.4,3.6-5.2,5.1-8.3
		C176.7,47.7,178.1,44.4,179.4,40.9L179.4,40.9z"/>
	<path id="path113" class="st4" d="M65.8,117.1l86.8-86.9"/>
	<path id="path115" class="st1" d="M77.9,53.4l3.5,10.9l11.8,0L83.6,71l3.6,10.9l-9.2-6.7l-9.6,7L72.2,71l-9.7-6.7l11.9,0L77.9,53.4
		L77.9,53.4z"/>
	<path id="path117" class="st1" d="M78.3,47.2l4.8,14.9l17.6,0l-14.4,10l5.4,16.7L77.9,78.2l-14,10.4l5.6-16.5l-14.3-10l17.4,0
		l5.2-16.2L78.3,47.2L78.3,47.2z M82.4,62.7l-4.5-14L73.3,63L58,63l12.6,8.8l-4.9,14.4l12.3-9.1l12.2,9.2l-4.8-14.7L97.9,63l-15.4,0
		L82.4,62.7L82.4,62.7z"/>
	<path id="path119" class="st0" d="M78.3,47.2l4.8,14.9l17.6,0l-14.4,10l5.4,16.7L77.9,78.2l-14,10.4l5.6-16.5l-14.3-10l17.4,0
		l5.2-16.2L78.3,47.2L78.3,47.2z M65.8,117.1l86.8-86.9l-108.3,0v3.7C44.3,69.6,54.2,97,65.8,117.1L65.8,117.1z M81.7,47.9
		c-0.9-0.1-1.9-0.5-2.2-0.9c-0.2-0.3-0.3-0.8-0.3-1.3c0-0.4,0.3-0.8,0.7-0.9c0.5-0.1,0.9,0,1.4,0.4c0.4,0.3,0.8,1.5,1.7,1.7
		c0.8,0.2,2.4-0.5,2.3-1.8c0-1.8-0.7-2.7-1.7-3.1c-0.6-0.2-1.2-0.3-1.4-0.3l0-0.9c1-0.5,1.8,0.2,2.5-1c0.5-0.9,0-2-0.9-2.3
		c-0.8-0.3-2.1,0.1-2.9,0.9c-0.4,0.4-0.7-0.1-0.4-0.5c0.3-0.5,0.9-1.2,1.5-1.5c0.9-0.5,2.3-0.7,3.4-0.5c1.7,0.4,2.5,1.3,2.4,2.8
		c0,1-0.9,1.6-1.8,1.8l0,0.2c1.4,0.8,1.7,2.2,1.4,3.6C86.8,47.4,83.3,48,81.7,47.9L81.7,47.9z M75.6,40.5c0.4,3.5-1.6,5.7-3.9,7
		c-0.6,0.4-2.1,1-2.8,1.1c-0.5,0.1-0.8-0.6-0.2-0.8c2.5-0.9,3.6-2.3,4.1-4.6c-0.5,0.3-1.1,0.5-1.7,0.5c-2,0.2-3.6-1.4-3.8-3.4
		c-0.2-1.7,1-4.1,3.6-4.4C73.6,35.7,75.4,38.1,75.6,40.5L75.6,40.5z M103.4,50.1c-0.9,0-1.7-0.7-1.7-1.7c0-0.9,0.7-1.7,1.7-1.7
		c0.9,0,1.7,0.7,1.7,1.7C105.1,49.4,104.3,50.1,103.4,50.1z M99.3,49.2c-0.7,1-1.7,2.2-2.2,2.9l-7.1-3l0.2-0.4
		c1.3-0.5,3.2-1.2,4.4-1.7c2.4-0.9,3.6-2.1,3.8-3.3c0.2-1.3,0.2-1.9-1-2.3c-0.7-0.2-1.6-0.4-2.4,0.4c-0.5,0.4-1-0.1-0.7-0.4
		c0.4-0.5,1.1-0.9,1.7-1.2c0.9-0.4,2.6-0.4,3.6,0c1.5,0.7,2.2,2.2,1.3,4.1c-0.6,1.3-2.2,1.9-4.5,2.9l-2.7,1.1l2.8,1.2
		c1,0.4,1.2,0.3,2.3-0.6L99.3,49.2L99.3,49.2z M64.6,49.7l-5.8,2.6l-0.3-0.6c1.2-0.7,1.7-1.3,1.1-2.5l-3-5.8
		c-0.5-0.9-0.9-0.7-1.4-0.3l-0.7,0.5l-0.4-0.7c0.9-0.7,2.4-2.2,3.5-3.4l4.3,8.5c0.6,1.2,1.2,1.5,2.5,1L64.6,49.7z M52.4,46.7
		c0.9,0,1.7,0.7,1.7,1.7c0,0.9-0.7,1.7-1.7,1.7c-0.9,0-1.7-0.7-1.7-1.7C50.7,47.5,51.5,46.7,52.4,46.7L52.4,46.7z"/>
	<path id="path121" class="st0" d="M72.1,42.7c0.4-0.1,0.7-0.1,0.8-0.3c0.1-0.7,0.1-1.6,0-2c-0.2-2.1-0.8-3.9-2.1-3.7
		c-1.1,0.1-0.9,2.2-0.8,3C70.2,41.3,70.8,42.8,72.1,42.7L72.1,42.7z"/>
	<path id="path123" class="st0" d="M72.2,71l-9.7-6.7l11.9,0l3.5-10.9l3.5,10.9l11.8,0L83.6,71l3.6,10.9l-9.2-6.7l-9.6,7L72.2,71z
		 M73.3,63L58,63l12.6,8.8l-4.9,14.4l12.3-9.1l12.2,9.2l-4.8-14.7L97.9,63l-15.4,0l-0.1-0.3l-4.5-14L73.3,63L73.3,63z"/>
	<path id="path125" class="st0" d="M81.2,139.4v-33.7l-13.9,13.9C71.8,127.2,76.6,133.8,81.2,139.4z"/>
	<path id="path127" class="st0" d="M93.1,93.9v58.8c3,3.1,5.4,5.4,6.9,7.2c1.4-1.2,3.9-3.3,7-6.5V80L93.1,93.9L93.1,93.9z"/>
	<path id="path129" class="st0" d="M119.3,67.8v71.7c4.5-5.8,9.4-12.7,14-20.8V53.9L119.3,67.8z"/>
	<path id="path131" class="st0" d="M144.9,42.3v51.4c6.2-16.7,10.4-36.3,10.4-58.8v-2.9L144.9,42.3z"/>
	<path id="path133" class="st0" d="M15.7,0h170.5v36.7c0,34.3-9.1,64.2-22.2,89.3c-17.7,33.9-42.9,58.8-62.9,73.3L100,200l-1.1-0.8
		c-20-14.4-45.2-38.9-63-72.9c-13.1-25-22.1-55-22.1-89.7V0C13.9,0,15.7,0,15.7,0z M182.5,3.7h-165v33c0,34.1,8.9,63.6,21.7,88
		c17.1,32.7,41.3,56.6,60.8,70.8c19.5-14.3,43.6-38.5,60.7-71.2c12.9-24.6,21.8-54,21.8-87.6L182.5,3.7L182.5,3.7z"/>
	<path id="path135" class="st1" d="M29,19.6l-1.5-4.8l-1.4,4.8H29z"/>
	<path id="path137" class="st1" d="M44.9,14v3.7h1.2c0.8,0,1.3-0.1,1.6-0.2c0.3-0.1,0.5-0.3,0.7-0.6c0.2-0.3,0.3-0.7,0.3-1.1
		c0-0.4-0.1-0.8-0.3-1.1c-0.2-0.3-0.4-0.5-0.7-0.6C47.4,14,46.9,14,46,14H44.9z"/>
	<path id="path139" class="st1" d="M55.2,14.9c-0.5,0.7-0.8,1.8-0.8,3.3c0,1.5,0.3,2.6,0.8,3.3c0.6,0.7,1.3,1.1,2.1,1.1
		c0.8,0,1.5-0.4,2.1-1.1c0.5-0.7,0.8-1.9,0.8-3.4c0-1.5-0.3-2.6-0.8-3.3c-0.5-0.7-1.2-1.1-2.1-1.1C56.4,13.8,55.7,14.2,55.2,14.9
		L55.2,14.9z"/>
	<path id="path141" class="st1" d="M89.4,18.2c0,1.5,0.3,2.6,0.8,3.3c0.6,0.7,1.3,1.1,2.1,1.1c0.8,0,1.5-0.4,2.1-1.1
		c0.5-0.7,0.8-1.9,0.8-3.4c0-1.5-0.3-2.6-0.8-3.3c-0.5-0.7-1.2-1.1-2.1-1.1c-0.9,0-1.6,0.4-2.1,1.1C89.7,15.6,89.4,16.7,89.4,18.2
		L89.4,18.2z"/>
	<path id="path143" class="st1" d="M116,14.8l-1.4,4.8h2.9L116,14.8L116,14.8z"/>
	<path id="path145" class="st1" d="M152.1,14v3.7h1.2c0.8,0,1.3-0.1,1.6-0.2c0.3-0.1,0.5-0.3,0.7-0.6c0.2-0.3,0.3-0.7,0.3-1.1
		c0-0.4-0.1-0.8-0.3-1.1c-0.2-0.3-0.4-0.5-0.7-0.6c-0.3-0.1-0.9-0.1-1.7-0.1H152.1L152.1,14z"/>
	<path id="path147" class="st1" d="M163.9,14.8l-1.4,4.8h2.9L163.9,14.8z"/>
	<path id="path149" class="st1" d="M93.1,152.7V93.9L107,80v73.4c-3.1,3.1-5.6,5.3-7,6.5C98.4,158.1,96,155.7,93.1,152.7z
		 M119.3,139.5V67.8l14-13.9v64.8C128.6,126.7,123.8,133.7,119.3,139.5z M144.9,93.6V42.3l10.4-10.4v2.9
		C155.3,57.3,151.1,77,144.9,93.6z M161,24.7h-2.3l4.1-12.9h2.3l4.2,12.9H167l-0.9-2.9h-4.2L161,24.7z M152.6,30.3l-86.8,86.9
		C54.2,97,44.3,69.6,44.3,33.9v-3.7L152.6,30.3L152.6,30.3z M148.2,24.7h-8V11.8h7.8V14h-5.7v2.8h5.3V19h-5.3v3.5h5.9V24.7
		L148.2,24.7z M150,24.7V11.8h3.4c1.3,0,2.1,0.1,2.5,0.2c0.6,0.2,1.1,0.6,1.5,1.3c0.4,0.6,0.6,1.5,0.6,2.5c0,0.9-0.2,1.7-0.5,2.3
		c-0.3,0.6-0.8,1.1-1.3,1.3c-0.5,0.3-1.4,0.4-2.7,0.4h-1.4v4.9H150z M118.2,21.8H114l-0.9,2.9h-2.3l4.1-12.9h2.3l4.2,12.9h-2.3
		L118.2,21.8z M92.3,24.9c-1.5,0-2.7-0.5-3.6-1.6c-1-1.2-1.5-2.9-1.5-5c0-1.5,0.2-2.8,0.7-3.8c0.4-1,1-1.7,1.8-2.2
		c0.7-0.5,1.6-0.7,2.6-0.7c1.5,0,2.7,0.6,3.7,1.7c0.9,1.2,1.4,2.8,1.4,4.9c0,2.2-0.5,3.8-1.5,5C95,24.4,93.8,24.9,92.3,24.9
		L92.3,24.9z M83.8,24.7l-2.9-6l-1.7,2.2v3.9h-2.1V11.8h2.1v5.7l4.3-5.7h2.9l-4,5l4.2,7.9H83.8L83.8,24.7z M182.5,3.7h-165v33
		c0,34.1,8.9,63.6,21.7,88c17.1,32.7,41.3,56.6,60.8,70.8c19.5-14.3,43.6-38.5,60.7-71.2c12.9-24.6,21.8-54,21.8-87.6L182.5,3.7
		L182.5,3.7z M129.8,137.6c0.7-2.7,3.3-5.6,4.3-6c0.4-0.2,0.7,0.2,0.8,1.1c0.2,1.1,0.2,2.6-0.2,4c-0.4,1.3-0.9,2.4-2.2,5
		c1.2-1.7,3.6-3.3,7.3-5c0.4-0.2,1.1-0.3,1.2-0.1c0.1,0.2,0.1,0.7-0.1,1c-1.6,3.4-4.3,6.5-9.3,7.8c-0.9,0.2-2.2,0.5-2.3-1.1
		C129.3,140.5,129.4,139.4,129.8,137.6L129.8,137.6z M136.5,136.2c-1.1-3.3-0.9-4.8-0.5-6.7c0.5-2.3,2.4-5.4,3.3-5.8
		c0.4-0.2,0.8,0.2,1,0.8c0.3,1.1,0.5,2.7,0.4,3.9c-0.1,1.4-0.2,2.3-1.4,5c1-1.8,4-4.6,7.7-6.9c0.4-0.2,0.9-0.3,1-0.1
		c0.1,0.2,0,0.5,0,0.8c-1.1,4.5-6.2,8.8-9.5,9.8C137.5,137.3,137,137.6,136.5,136.2z M141.3,126.9c-1.2-3.2-1.2-4.4-1.1-6.6
		c0.1-2.2,1.9-5.1,3-5.4c0.4-0.1,0.6,0.1,0.9,0.6c0.5,0.9,0.9,2.8,0.9,4c0,1.4-0.1,2.7-0.8,4.8c0.7-1.3,2.3-3.8,4.6-5.7
		c-0.9,0.1-1.8-0.8-2.8-1.8c-1.7-1.8-1.6-3.6-1.5-5.9c0.1-2.2,0.7-3.9,1.6-4.4c0.4-0.2,1,0.1,1.3,0.4c0.7,0.6,1.2,1.7,1.5,2.8
		c0.3,1.3,0.5,3-0.3,5.1c1-1.8,3.6-5.5,6.8-5.8c0.9-0.1,1,0.3,1,0.9c0.1,2.6-1.8,5.1-4.1,6.8c0.1,0,0.2,0.1,0.2,0.2
		c0.1,0.2,0.1,0.5,0.1,0.9c-0.8,4.7-5.8,8.5-9.1,10C142.7,128.4,141.8,128.3,141.3,126.9L141.3,126.9z M152,109.6
		c-0.9,0.2-2.1,0-3.1-1.2c-2-2.5-2.2-3.7-2.1-5.9c0.1-2.2,1.1-3.8,2.1-4.2c0.4-0.2,1,0,1.3,0.2c0.7,0.6,1.2,1.7,1.5,2.8
		c0.3,1.3,0.5,3-0.3,5.1c1-1.8,3.8-4.1,6.7-3.9c0.9,0.1,1.4,0.3,1.3,1C158.7,108.3,155.4,108.9,152,109.6L152,109.6z M152.3,100.6
		c-2-2.5-2.4-3.6-2.5-5.9c-0.1-2.2,0.8-4.1,1.8-4.5c0.4-0.2,1,0,1.3,0.2c0.7,0.6,1.2,1.7,1.5,2.7c0.3,1.3,0.9,3.2,0.2,5.3
		c1-1.7,3.4-3.7,6.8-4.3c0.4-0.1,0.8,0.3,0.8,0.9c-0.2,4.9-3.2,6.7-6.9,6.9C154.2,102.2,153.2,101.8,152.3,100.6L152.3,100.6z
		 M155.6,93.4c-2.1-2.3-2.6-3.7-2.5-6.1c0.1-2.2,0.8-4,2.3-5c0.4-0.2,0.7-0.2,1,0.1c0.7,0.5,1.1,1.8,1.4,2.9
		c0.3,1.3,0.4,3.5-0.4,5.7c1-1.7,4.1-4.2,7.4-4.8c0.4-0.1,0.8,0.3,0.8,0.9c-0.2,4.9-3.8,6.6-7.4,7.5
		C157.3,94.7,156.6,94.5,155.6,93.4L155.6,93.4z M156.8,78.1c0.2-2.1,1.2-3.9,2.2-5.1c0.3-0.3,0.5-0.2,0.8,0.1
		c0.7,0.5,1.1,1.8,1.4,2.9c0.3,1.3,0.4,3.5-0.4,5.7c1-1.7,4.1-4.9,7.4-5.5c0.4-0.1,0.8,0.3,0.8,0.9c0,5.3-3.5,6.7-7.2,8
		c-0.6,0.2-2.2-0.1-2.8-0.7C157,82.1,156.6,80.4,156.8,78.1z M76.7,152.8c-0.4,1.5-1.6,1.7-2.6,1.6c-4.7-0.8-8.2-3.5-10-6.8
		c-0.1-0.3-0.3-0.8,0-1.1c0.2-0.2,0.9-0.1,1.4,0c3.7,0.9,6.7,2.5,7.9,4.2c-1.3-2.3-2.1-3.2-2.3-4.8c-0.2-1.4-0.3-2.6-0.1-3.7
		c0.1-0.9,0.4-1.2,0.8-1.1c0.9,0.4,3.9,2.6,4.6,5.4C76.8,148.3,77.3,150.1,76.7,152.8L76.7,152.8z M32.9,24.7h-2.3l-0.9-2.9h-4.2
		l-0.9,2.9h-2.3l4.1-12.9h2.3L32.9,24.7z M36.2,24.7H34V11.9h7.4v2.2h-5.3V24.7z M81.2,139.4c-4.5-5.5-9.3-12.1-13.9-19.8l13.9-13.9
		V139.4z M44.9,24.7h-2.1V11.8h3.4c1.3,0,2.1,0.1,2.5,0.2c0.6,0.2,1.1,0.6,1.5,1.3c0.4,0.6,0.6,1.5,0.6,2.5c0,0.9-0.2,1.7-0.5,2.3
		c-0.3,0.6-0.8,1.1-1.3,1.3c-0.5,0.3-1.4,0.4-2.7,0.4h-1.4L44.9,24.7L44.9,24.7z M53.7,23.3c-1-1.2-1.5-2.9-1.5-5
		c0-1.5,0.2-2.8,0.7-3.8c0.4-1,1-1.7,1.8-2.2c0.7-0.5,1.6-0.7,2.6-0.7c1.5,0,2.7,0.6,3.7,1.7c0.9,1.2,1.4,2.8,1.4,4.9
		c0,2.2-0.5,3.8-1.5,5c-0.9,1.1-2.1,1.6-3.6,1.6C55.8,24.9,54.6,24.4,53.7,23.3L53.7,23.3z M68.5,24.7h-2.1V14h-3.1v-2.2h8.3V14
		h-3.1V24.7z M75,24.7h-2.1V11.8H75V24.7z M98.7,14.1v-2.3h7.3V14h-4.7l2.7,4l-3,4.6h5.2v2.2h-7.6v-2.4l2.8-4.3L98.7,14.1L98.7,14.1
		z M122.2,14.1v-2.3h7.3V14h-4.7l2.7,4l-3,4.6h5.2v2.2h-7.6v-2.4l2.8-4.3L122.2,14.1z M133.7,24.7V14h-3.1v-2.2h8.3V14h-3.1v10.7
		H133.7z M170.1,14.1v-2.3h7.3V14h-4.7l2.7,4l-3,4.6h5.2v2.2H170v-2.4l2.8-4.3L170.1,14.1L170.1,14.1z M67.9,145.6
		c-5-1.3-7.7-4.5-9.3-7.8c-0.1-0.3-0.2-0.8-0.1-1c0.1-0.2,0.8-0.1,1.2,0.1c3.7,1.7,6.2,3.3,7.3,5c-1.4-2.6-1.9-3.6-2.2-5
		c-0.4-1.4-0.3-2.9-0.2-4c0.1-0.9,0.4-1.2,0.8-1.1c0.9,0.4,3.5,3.2,4.3,6c0.5,1.8,0.5,2.9,0.4,6.7C70.1,146,68.8,145.8,67.9,145.6z
		 M61.2,137.3c-3.3-1-8.4-5.3-9.5-9.8c-0.1-0.3-0.2-0.6,0-0.8c0.1-0.2,0.6-0.1,1,0.1c3.7,2.4,6.7,5.1,7.7,6.9
		c-1.3-2.7-1.3-3.7-1.4-5c-0.1-1.2,0.1-2.8,0.4-3.9c0.2-0.6,0.6-1,1-0.8c0.9,0.4,2.8,3.5,3.3,5.8c0.4,1.8,0.6,3.4-0.5,6.7
		C62.6,137.8,62.1,137.6,61.2,137.3L61.2,137.3z M56,128.2c-3.3-1.6-8.3-5.3-9.1-10c-0.1-0.3-0.1-0.6,0.1-0.9
		c0.1-0.1,0.1-0.2,0.2-0.2c-2.3-1.7-4.2-4.2-4.1-6.8c0-0.6,0.1-1,1-0.9c3.3,0.3,5.8,4,6.8,5.8c-0.8-2.2-0.6-3.8-0.3-5.1
		c0.3-1.1,0.7-2.1,1.5-2.7c0.3-0.2,0.9-0.6,1.3-0.4c0.9,0.4,1.5,2.1,1.6,4.4c0.1,2.2,0.2,4-1.5,5.9c-0.9,1-1.9,1.8-2.8,1.8
		c2.3,1.9,3.9,4.4,4.6,5.7c-0.8-2.2-0.8-3.5-0.8-4.8c0-1.2,0.4-3.1,0.9-4c0.3-0.5,0.5-0.7,0.9-0.6c1.1,0.3,2.9,3.2,3,5.4
		c0.1,2.2,0.1,3.5-1.1,6.6C57.7,128.6,56.8,128.6,56,128.2L56,128.2z M47.5,109.9c-3.4-0.7-6.7-1.3-7.4-6.2c-0.1-0.6,0.4-0.9,1.3-1
		c3-0.2,5.7,2.1,6.7,3.9c-0.8-2.2-0.6-3.8-0.3-5.1c0.3-1.1,0.7-2.1,1.5-2.8c0.3-0.2,0.9-0.4,1.3-0.2c1,0.4,2,2,2.1,4.2
		c0.1,2.2-0.1,3.5-2.1,5.9C49.7,109.9,48.4,110.1,47.5,109.9L47.5,109.9z M49.8,95c-0.1,2.3-0.5,3.4-2.5,5.9c-1,1.2-1.9,1.6-2.8,1.5
		c-3.8-0.3-6.7-2-6.9-6.9c0-0.6,0.4-1,0.8-0.9c3.4,0.6,5.8,2.5,6.8,4.3c-0.8-2.2-0.2-4,0.2-5.3c0.3-1.1,0.7-2.1,1.5-2.8
		c0.3-0.2,0.9-0.4,1.3-0.2C49,90.9,49.9,92.8,49.8,95L49.8,95z M46.4,87.5c0.1,2.4-0.4,3.8-2.5,6.1c-1,1.1-1.7,1.3-2.6,1.1
		c-3.6-0.9-7.2-2.6-7.4-7.5c0-0.6,0.4-1,0.8-0.9c3.3,0.6,6.4,3.1,7.4,4.8c-0.8-2.2-0.7-4.4-0.4-5.7c0.3-1.1,0.7-2.4,1.4-2.9
		c0.3-0.2,0.6-0.3,1-0.1C45.6,83.4,46.4,85.3,46.4,87.5L46.4,87.5z M37.5,64.6c1.1,1.1,2.1,2.9,2.2,5.1c0.2,2.3-0.4,4-2.4,6.5
		c-0.5,0.6-1.5,0.8-2,0.6c-3.7-1.3-7.2-3.2-7.1-8.5c0-0.6,0.4-1,0.8-0.9c3.3,0.6,5.6,4.2,6.7,5.9c-0.8-2.2-0.5-4.5-0.3-5.7
		c0.3-1.1,0.6-2.3,1.3-2.9C36.9,64.5,37.2,64.3,37.5,64.6L37.5,64.6z M37.1,60.8c0,2.3-0.4,4-2.7,6.2c-0.4,0.4-1,0.7-1.5,0.5
		c-3.9-1.8-6.8-4.3-7.2-9.5c-0.1-0.6,0.5-0.5,1-0.4c0.4,0.1,0.7,0.2,1,0.3c-1.4-2-2.7-4.2-3.9-6.6c-1.6-3.1-3-6.4-4.3-9.9
		c-0.1-0.2,0-0.4,0.2-0.4c0.2-0.1,0.4,0,0.4,0.2c1.3,3.5,2.7,6.8,4.2,9.9c1.4,2.8,2.9,5.3,4.6,7.6c0.1,0.1,0.3,0.2,0.4,0.3
		c-1.7-2.7-3.1-5.5-4.3-8.4c-1.4-3.6-2.5-7.5-3.1-11.5c0-0.2,0.1-0.3,0.3-0.4c0.2,0,0.3,0.1,0.4,0.3c0.6,4,1.6,7.8,3,11.4
		c1.2,2.9,2.6,5.7,4.3,8.4c-1-3.5-1.8-6.9-2.5-10.1c-0.9-4.6-1.5-8.9-1.4-12.7c0-0.2,0.2-0.3,0.3-0.3c0.2,0,0.3,0.2,0.3,0.3
		c-0.1,3.7,0.4,7.9,1.4,12.5c0.3,1.4,0.6,2.8,1,4.3c-0.4-2.1-0.8-4.1-1-5.9c-0.7-4.8-0.9-8.8-0.2-11c0.1-0.2,0.2-0.3,0.4-0.2
		c0.2,0.1,0.3,0.2,0.2,0.4c-0.7,2.1-0.5,5.9,0.2,10.7c0.1,0.7,0.2,1.4,0.4,2.2c-0.4-3.5-0.6-7-0.2-10.5c0-0.4,0.1-0.9,0.2-1.3
		c0.1-0.4,0.2-0.9,0.3-1.3c0.1-0.2,0.2-0.3,0.4-0.2c0.2,0.1,0.3,0.2,0.2,0.4c-0.1,0.4-0.2,0.8-0.3,1.2c-0.1,0.4-0.1,0.8-0.2,1.3
		c-0.4,3.9-0.1,8,0.5,12.1c0.6,4.1,1.5,8.3,2.4,12.5c0,0.1,0,0.1,0,0.2c0.1,0.2,0.2,0.4,0.3,0.5c0.6-0.9,0.1-3.6,0.4-5.3
		c0.2-1.1,0.7-2,1.4-2.5c0.3-0.2,0.6-0.4,0.8,0C36.3,57.1,37.1,58.7,37.1,60.8L37.1,60.8z M40.5,73.2c1.1,1.1,2.1,2.9,2.2,5.1
		c0.2,2.3-0.3,4-2.3,6.3c-0.5,0.6-2.2,0.9-2.8,0.7c-3.7-1.3-7.2-2.7-7.2-8c0-0.6,0.4-1,0.8-0.9c3.3,0.6,6.4,3.8,7.4,5.5
		c-0.8-2.2-0.7-4.4-0.4-5.7c0.3-1.1,0.7-2.4,1.4-2.9C40,73.1,40.2,72.9,40.5,73.2z M169.6,50.3c0.6-4.1,0.9-8.2,0.5-12.1
		c0-0.4-0.1-0.8-0.2-1.3c-0.1-0.4-0.2-0.8-0.3-1.2c-0.1-0.2,0-0.4,0.2-0.4c0.2-0.1,0.4,0,0.4,0.2c0.1,0.4,0.2,0.8,0.3,1.3
		c0.1,0.4,0.1,0.9,0.2,1.3c0.3,3.4,0.2,6.9-0.2,10.5c0.1-0.7,0.2-1.5,0.4-2.2c0.7-4.8,0.9-8.6,0.2-10.7c-0.1-0.2,0-0.4,0.2-0.4
		c0.2-0.1,0.4,0,0.4,0.2c0.8,2.2,0.5,6.1-0.2,11c-0.3,1.8-0.6,3.8-1,5.9c0.4-1.5,0.7-2.9,1-4.3c0.9-4.6,1.5-8.8,1.4-12.5
		c0-0.2,0.1-0.3,0.3-0.3c0.2,0,0.3,0.1,0.3,0.3c0.1,3.7-0.4,8-1.4,12.7c-0.7,3.2-1.5,6.6-2.5,10.1c1.7-2.7,3.1-5.4,4.3-8.4
		c1.4-3.6,2.4-7.4,3-11.4c0-0.2,0.2-0.3,0.4-0.3c0.2,0,0.3,0.2,0.3,0.4c-0.6,4.1-1.6,7.9-3.1,11.5c-1.2,2.9-2.6,5.8-4.3,8.4
		c0.1-0.1,0.3-0.2,0.4-0.3c1.7-2.3,3.2-4.8,4.6-7.6c1.5-3.1,2.9-6.4,4.2-9.9c0.1-0.2,0.2-0.3,0.4-0.2c0.2,0.1,0.3,0.2,0.2,0.4
		c-1.3,3.5-2.7,6.9-4.3,9.9c-1.2,2.4-2.5,4.6-3.9,6.6c0.3-0.1,0.7-0.2,1-0.3c0.4-0.1,1-0.2,1,0.4c-0.4,5.2-3.3,7.7-7.2,9.5
		c-0.5,0.2-1.1-0.1-1.5-0.5c-2.3-2.2-2.7-3.9-2.7-6.2c0-2.2,0.8-3.8,1.7-5c0.3-0.4,0.5-0.2,0.8,0c0.7,0.5,1.3,1.3,1.4,2.5
		c0.3,1.8-0.2,4.5,0.4,5.3c0.1-0.1,0.2-0.2,0.3-0.5c0-0.1,0-0.1,0-0.2C168.1,58.6,169,54.4,169.6,50.3L169.6,50.3z M122.9,152.6
		c-0.7-2.8-0.1-4.5,0.4-6.3c0.7-2.7,3.7-4.9,4.6-5.4c0.4-0.2,0.7,0.2,0.8,1.1c0.2,1.1,0.1,2.3-0.1,3.7c-0.3,1.6-1,2.4-2.3,4.8
		c1.2-1.7,4.2-3.3,7.9-4.2c0.4-0.1,1.2-0.1,1.4,0c0.2,0.3,0.1,0.8,0,1.1c-1.8,3.4-5.3,6.1-10,6.8
		C124.5,154.3,123.2,154.1,122.9,152.6L122.9,152.6z M164.3,76.5c-0.6,0.2-1.5,0.1-2-0.6c-1.9-2.5-2.6-4.2-2.4-6.5
		c0.2-2.1,1.2-3.9,2.2-5.1c0.3-0.3,0.5-0.2,0.8,0.1c0.7,0.5,1,1.8,1.3,2.9c0.3,1.2,0.5,3.6-0.3,5.7c1-1.7,3.4-5.4,6.7-5.9
		c0.4-0.1,0.8,0.3,0.8,0.9C171.4,73.4,168,75.2,164.3,76.5z"/>
</g>
</svg>
