<?xml version="1.0" encoding="utf-8"?>
<!-- Generator: Adobe Illustrator 21.1.0, SVG Export Plug-In . SVG Version: 6.00 Build 0)  -->
<svg version="1.1"
	 id="svg2" inkscape:version="0.48.2 r9819" sodipodi:docname="diarkeias.pdf" xmlns:cc="http://creativecommons.org/ns#" xmlns:dc="http://purl.org/dc/elements/1.1/" xmlns:inkscape="http://www.inkscape.org/namespaces/inkscape" xmlns:rdf="http://www.w3.org/1999/02/22-rdf-syntax-ns#" xmlns:sodipodi="http://sodipodi.sourceforge.net/DTD/sodipodi-0.dtd" xmlns:svg="http://www.w3.org/2000/svg"
	 xmlns="http://www.w3.org/2000/svg" xmlns:xlink="http://www.w3.org/1999/xlink" x="0px" y="0px" viewBox="0 0 300 300"
	 style="enable-background:new 0 0 300 300;" xml:space="preserve">
<style type="text/css">
	.st0{fill:#FFFFFF;}
	.st1{fill:#00793F;}
</style>
<g>
	<path id="path302" inkscape:connector-curvature="0" class="st0" d="M149.8,0C232.6,0,300,67.3,300,149.8
		c0,82.8-67.4,150.1-150.2,150.1C67.4,300,0,232.7,0,149.8C0,67.3,67.4,0,149.8,0"/>
	<path id="path306" inkscape:connector-curvature="0" class="st1" d="M149.6,54.1c51.8,0,94.1,42.8,94.1,95.5
		c0,52.4-42.2,95.2-94.1,95.2c-52.1,0-94.3-42.8-94.3-95.2C55.2,96.9,97.5,54.1,149.6,54.1z M149.6,59.7c-49,0-88.7,40.3-88.7,89.8
		c0,49.3,39.7,89.6,88.7,89.6c48.7,0,88.4-40.3,88.4-89.6C238,100,198.3,59.7,149.6,59.7"/>
	<path id="path310" inkscape:connector-curvature="0" class="st1" d="M149.8,6.2C228.1,6.2,292,70.7,292,149.8
		c0,79.2-63.9,143.9-142.2,143.9C71.6,293.8,7.9,229,7.9,149.8C7.9,70.7,71.6,6.2,149.8,6.2z M149.8,10.5
		c-75.7,0-137.7,62.8-137.7,139.4c0,76.9,62,139.4,137.7,139.4c76,0,138-62.5,138-139.4C287.8,73.3,225.9,10.5,149.8,10.5"/>
	<path id="path314" inkscape:connector-curvature="0" class="st1" d="M47.1,195.8l5.9,7.3l9-3.1l-5.1,8.2l5.6,7.6l-9.3-2.3l-5.3,7.9
		l-0.6-9.6l-9.3-3.1l9-3.4L47.1,195.8"/>
	<path id="path318" inkscape:connector-curvature="0" class="st1" d="M251.8,195.8v9.6l8.7,3.4l-9,3.1l-0.6,9.6l-5.6-7.9l-9,2.3
		l5.6-7.6l-5.1-8.2l9,3.1L251.8,195.8"/>
	<path id="path322" inkscape:connector-curvature="0" class="st1" d="M281.6,137.5l-5.9,0.3l-8.2,3.7l-13.8-3.1l-6.2,0.3l0.3,14.7
		l6.5-0.3l-0.3-6.5l13.8,2.8l7.9-3.4l0.3,6.2l6.2-0.3L281.6,137.5"/>
	<path id="path326" inkscape:connector-curvature="0" class="st1" d="M240.3,84l-8.4,13l5.1,7.6l10.4-17.2l16.9-3.4l-4.5-7L245,80.6
		l11.8-8.2l-4.2-6.5l-28.2,19.4l4.2,6.8L240.3,84"/>
	<path id="path330" inkscape:connector-curvature="0" class="st1" d="M233.2,47.1l-22,27.3l5.4,5.1l22-27L233.2,47.1"/>
	<path id="path334" inkscape:connector-curvature="0" class="st1" d="M170.1,37.2l2,17.2l6.8,1.1l6.2-34.1l-7.3-1.4L175,36.1
		l-2-17.2l-6.8-1.1l-6.5,34.1l7.3,1.4L170.1,37.2"/>
	<path id="path338" inkscape:connector-curvature="0" class="st1" d="M141.4,31.6l-3.7,0.3l-1.1-14.1l-7.9,0.6l2.8,34.9l8.2-0.6
		l-1.4-14.4L142,38l1.1,14.4l7.9-0.6l-2.8-34.9l-7.9,0.6L141.4,31.6"/>
	<path id="path342" inkscape:connector-curvature="0" class="st1" d="M57.2,84l16.3,6.2l4.5-5.3L50.5,63.1L45.7,69l13,10.1L42.6,73
		l-4.8,5.6l27.6,21.7l4.8-5.9L57.2,84"/>
	<path id="path346" inkscape:connector-curvature="0" class="st1" d="M18.1,151.3l33.8,1.7l0.3-8.2l-27.6-1.1l0.3-3.7l27.6,1.4
		l0.3-7.9L19,131.8L18.1,151.3"/>
	<path id="path350" inkscape:connector-curvature="0" class="st1" d="M227.6,42.3l-3.1,3.7l3.7,3.1l3.1-3.7L227.6,42.3"/>
	<path id="path354" inkscape:connector-curvature="0" class="st1" d="M240.8,54.7l-3.1,3.4l3.7,3.1l3.1-3.4L240.8,54.7"/>
	<path id="path358" inkscape:connector-curvature="0" class="st1" d="M44.5,114.4l-12.4-6.5l0.3-0.5l13.2,3.4L44.5,114.4z
		 M28.2,99.7l-3.6,11l28.7,16.9l2.5-7.6l-5.6-3.1l1.4-4.5l6.5,1.7l2.5-7.6L28.2,99.7"/>
	<path id="path362" inkscape:connector-curvature="0" class="st1" d="M79.7,63.7l-7.9-12.1l0.6-0.6l10.4,10.4L79.7,63.7z M72.1,42.3
		l-8.7,7.3l18,30.1l6.2-4.8L83.7,69l3.7-2.8l4.8,4.8l6.2-5.1L72.1,42.3"/>
	<path id="path366" inkscape:connector-curvature="0" class="st1" d="M109.9,60.9l8.7-3.4l2.8-7l-9.3-22.8l-7-3.1L96.7,28l-2.8,6.8
		l9.3,22.8L109.9,60.9z M102,33.3l2.8-1.1l8.5,20.3l-2.8,1.1L102,33.3"/>
	<path id="path370" inkscape:connector-curvature="0" class="st1" d="M110.7,45.1l-2.5-6.2l-3.7,1.1l2.5,6.2L110.7,45.1"/>
	<path id="path374" inkscape:connector-curvature="0" class="st1" d="M198.9,49.9l7.6-12.7l0.6,0.3L202,51.6L198.9,49.9z
		 M214.3,33.8l-9.6-5.1l-19.4,29.6l6.8,3.4l3.7-5.9l3.9,2l-2.2,6.8l6.7,3.4L214.3,33.8"/>
	<path id="path378" inkscape:connector-curvature="0" class="st1" d="M273.5,105.4L267,102l-22.2,7.6l-3.4,6.5l2.8,9l6.5,3.4
		l22.3-7.3l3.4-7L273.5,105.4z M268.1,110.4l1.1,3.1l-20,6.5l-0.8-2.8L268.1,110.4"/>
	<path id="path382" inkscape:connector-curvature="0" class="st1" d="M116.9,249.8l-8.4,27.3l7.9,2.2l10.4-33.8l-5.1-1.4l-6.8,0.3
		l-1.4,4.2L116.9,249.8"/>
	<path id="path386" inkscape:connector-curvature="0" class="st1" d="M137.5,270.1l-1.1,7.6l-3.4-0.6l0.6-5.1l-7.6-1.1l-0.8,6.2
		l4.5,6.2l8.7,1.1l5.7-4.2l3.4-25.4l-4.5-5.6l-8.5-1.4l-5.9,4.2l-1.4,11.5l3.9,5.6L137.5,270.1z M139.4,255.5l-1.1,8.2l-3.4-0.6
		l1.1-8.2L139.4,255.5"/>
	<path id="path390" inkscape:connector-curvature="0" class="st1" d="M154.7,248.7l-5.1,5.6l2,24.2l5.3,5.1l9.9-0.6l5.1-5.6l-2-24.2
		l-5.9-5.1L154.7,248.7z M158.3,255.5l3.1-0.3l1.7,21.7H160L158.3,255.5"/>
	<path id="path394" inkscape:connector-curvature="0" class="st1" d="M190.1,259.4l2.5-3.9l-2.2-9l-6.5-3.1l-7.6,1.4l-3.7,5.9
		l2.2,8.7l4.5,2.3l-3.7,4.8l2.3,8.5l6.5,4.2l9.3-2l3.7-5.9l-2.3-9L190.1,259.4z M187.3,263.9l2,7.6l-3.1,0.6l-2-7.6L187.3,263.9z
		 M183.6,250.1l2,7.3l-3.1,0.8l-2-7.6L183.6,250.1"/>
	<path id="path398" inkscape:connector-curvature="0" class="st1" d="M221.4,148.2c-1.7-4.5-0.8-2-0.3-14.6
		c0.6-12.7-3.7-18-8.2-21.1c-4.2-3.1-11.3-4.5-18.9-2.8c-7.6,1.7-15.2,11.8-17.2,14.7c-1.7,2.8-4.5,7.3-6.8,10.7
		c-2,2.8-4.5,4.5-5.9,3.9c-3.1-1.1,0.8-7,3.1-9.8c1.1-1.4,4.8-5.9,8.2-10.4c2.3-2.8,3.9-5.9,5.4-8.2c3.4-6.2,2.5-13,1.7-18.9
		c-1.1-6.2-8.4-15.2-16.6-16.3c-7.9-1.4-11,0.3-16.6,2.8c-5.6,2.3-7.3,1.7-9.6,1.1c-2.2-0.6-10.1-2.2-14.1-1.4
		c-4.2,0.8-15.8,6.2-18.3,17.7c-2.6,11.5,5.6,21.1,9.8,24.8c4,4,14.4,11,16.6,14.1c2,3.1,3.1,6.2,0.8,7c-2.2,1.1-7.3-2.8-10.7-5.3
		c-3.4-2.8-9-11.8-14.6-16.1c-5.4-3.9-16.6-6.8-25.4,1.1c-8.7,7.9-7.6,14.9-5.9,20c2,5.1,2.5,9.9,2.2,14.4
		c-0.8,7.9-3.7,15.2-2.5,23.7c0.8,9,15.8,22.5,31.3,14.6s18-16.9,23.9-22.5c4.3-4.3,6.2-6.3,8-6.6h0.4c0.5,0,1,0.1,1.6,0.4
		c2.2,1.1,3.9,4.7,4,11.7c0.2,11-0.7,20-2.1,25.5c-1.5,5.6-4.2,18.1-4.6,19.5c-0.7,1.4-1,3.3,2.1,2.9c3.1-0.4,12.4-4.3,14.2-6.7
		c1.5-2.2,2.4-2.1,2-5.8c-0.5-5.4-1-11.3-0.9-17.3c0.1-5.6-0.7-11,0.1-15.5c0.9-6.1,1.5-11.6,4.2-13.4c1.4-0.9,3-0.7,4.5,0.2
		c3.9,2.3,6.2,4.5,11.6,8.7c2.3,1.7,6.5,4.2,9.3,6.5c11.8,8.4,19.2,4.8,26.2,1.9c6.8-2.5,13-9.8,13-17.2
		C226.5,158.6,223.1,152.7,221.4,148.2"/>
</g>
</svg>
