<?xml version="1.0" encoding="utf-8"?>
<!-- Generator: Adobe Illustrator 21.1.0, SVG Export Plug-In . SVG Version: 6.00 Build 0)  -->
<svg version="1.1" id="Layer_1" xmlns="http://www.w3.org/2000/svg" xmlns:xlink="http://www.w3.org/1999/xlink" x="0px" y="0px"
	 viewBox="0 0 200 200" style="enable-background:new 0 0 200 200;" xml:space="preserve">
<style type="text/css">
	.st0{fill:#D3C78D;}
	.st1{fill:#FFFFFF;}
	.st2{fill:#1B1918;}
	.st3{fill:none;}
</style>
<g>
	<path class="st0" d="M55.5,12l1.9-0.6l1.9-0.5l2-0.5l2-0.5L67.4,9l4.2-0.8l4.2-0.7L79.9,7l4.2-0.4l3.3-0.3l3.3-0.2l4.7-0.2l4.7-0.1
		l4,0l4,0.1l4,0.2l4,0.3l4.2,0.4l4.2,0.5l4.2,0.7l4.2,0.8l4.1,0.9l2,0.5l2,0.5l1.9,0.5l1.9,0.6l1.9,0.6l1.9,0.7l1.9,0.7l1.9,0.8
		l1.6,0.8l0.8,0.4l0.8,0.4l0.8,0.4l0.8,0.4l0.8,0.5l0.8,0.5l2.3,1.5l0.3,2.7l1.3,11.4l1,11.4l1.4,20.9l0.7,14.6l0.2,7.4l0,7.4
		l-0.2,7.4l-0.2,3.7l-0.3,3.7l-0.6,5.9l-0.4,3l-0.4,3l-0.4,2.6l-0.5,2.6l-0.6,2.6l-0.6,2.6l-0.7,2.6l-0.7,2.5l-0.8,2.5l-0.9,2.5
		l-0.9,2.4l-1,2.4l-1.1,2.4L154,152l-0.9,1.7l-1,1.7l-1,1.7l-1.1,1.6l-1.1,1.6l-1.1,1.6l-1.2,1.6l-1.2,1.5l-1.3,1.5l-1.3,1.5
		l-1.3,1.4l-1.4,1.4l-1.8,1.7l-1.8,1.7l-1.9,1.6l-1.9,1.6l-2.3,1.8l-2.4,1.7l-2.4,1.6l-2.5,1.5l-2.5,1.4l-2.6,1.4l-2.6,1.3l-2.6,1.2
		l-2.7,1.1l-2.7,1l-2.7,0.9l-2.8,0.9l-1.7,0.5l-1.7-0.5l-2.8-0.9l-2.7-0.9l-2.7-1l-2.7-1.1l-2.6-1.2l-2.6-1.3l-2.6-1.4l-2.5-1.4
		l-2.5-1.5l-2.4-1.6l-2.4-1.7l-2.3-1.8l-1.9-1.6l-1.9-1.6l-1.8-1.7l-1.8-1.7l-1.4-1.4l-1.3-1.4l-1.3-1.5l-1.3-1.5l-1.2-1.5l-1.2-1.6
		l-1.1-1.6l-1.1-1.6l-1.1-1.6l-1-1.7l-1-1.7L46,152l-1.2-2.3l-1.1-2.4l-1-2.4l-0.9-2.4l-0.9-2.5l-0.8-2.5l-0.7-2.5l-0.7-2.6
		l-0.6-2.6l-0.6-2.6l-0.5-2.6l-0.4-2.6l-0.4-3l-0.4-3l-0.6-5.9l-0.3-3.7l-0.2-3.7l-0.2-7.4l0-7.3l0.2-7.3l1.3-24.2l0.8-11.4l1-11.4
		l1.3-11.4l0.3-2.7l2.3-1.5l0.8-0.5l0.8-0.5l0.8-0.4l0.8-0.4l0.8-0.4l0.8-0.4l1.6-0.8l1.9-0.8l1.9-0.7l1.9-0.7L55.5,12z M55.5,12
		L55.5,12z M39.1,12.9l-0.7,0.5l-4.6,2.9l-0.7,5.4l-1.5,13.6l-1.2,13.7L29,70.7l-0.5,13.3l-0.1,7.5l0.1,7.5l0.4,7.5l0.4,4.9l0.5,4.9
		l0.6,4.9l0.8,4.8l0.8,4.2l0.5,2.1l0.5,2.1l0.6,2.1l0.6,2.1l0.6,2.1l0.7,2l0.7,2l0.8,2l0.8,2l0.9,2l0.8,1.7l0.9,1.7l0.9,1.7l0.9,1.7
		l1,1.7l1,1.6l1.1,1.6l1.1,1.6l1,1.3l1,1.3l1,1.3l1,1.3l1,1.2l1.1,1.2l1.1,1.2l1.1,1.2l1.6,1.6l1.6,1.6l1.7,1.5l1.7,1.5l1.7,1.4
		l1.8,1.4l1.8,1.3l1.8,1.3l2.6,1.7l2.6,1.6l2.7,1.6l2.7,1.5l2.1,1.1l2.2,1l2.2,1l2.2,0.9l2.2,0.9l2.2,0.8l2.3,0.8l2.3,0.7l3.3,1
		l3.3-1l2.9-0.9l2.9-1l2.9-1.1l2.8-1.2l2.8-1.3l2.7-1.3l2.7-1.4l2.7-1.5l2.7-1.7l2.7-1.7l2.4-1.7l2.3-1.7l2.2-1.8l2.2-1.9l2-1.8
		l1.9-1.9l1.9-1.9l1.8-2l1.8-2l1.7-2.1l1.6-2.1l1.6-2.2l0.8-1.2l0.8-1.2l0.8-1.3l0.8-1.3l0.7-1.3l0.7-1.3l0.7-1.3l0.7-1.3l0.7-1.5
		l0.7-1.5l0.7-1.5l0.6-1.6l0.6-1.6l0.6-1.6l1.1-3.2l0.8-2.7l0.7-2.7l0.7-2.7l0.6-2.7l0.5-2.8l0.5-2.8l0.4-2.8l0.4-2.8l0.4-3.3
		l0.3-3.3l0.5-6.7l0.3-7.6l0.1-7.6l-0.1-7.4l-0.3-7.4l-0.9-16.3l-1.7-22.3l-1.6-14.5l-0.7-5.4l-4.6-2.9l-0.7-0.5l-0.7-0.4l-0.7-0.4
		l-0.7-0.4l-1.5-0.8l-1.5-0.8l-2-0.9l-2-0.8l-1.4-0.5l-1.4-0.5l-2.8-0.9l-1.7-0.5l-1.7-0.5l-3.5-0.9l-3.6-0.8l-3.6-0.7l-4.1-0.7
		l-4.1-0.6l-3.5-0.4l-3.5-0.4l-3.5-0.3l-3.6-0.2l-6-0.2l-3,0l-3,0l-4.2,0.1l-4.2,0.2l-3.3,0.2l-3.3,0.3l-3.3,0.4l-3.3,0.4l-3.8,0.6
		l-3.8,0.7l-3.8,0.8l-3.8,0.9l-3.5,0.9l-1.7,0.5l-1.7,0.5l-2.8,0.9l-1.4,0.5l-1.4,0.5l-2,0.8l-2,0.9l-1.5,0.8l-1.5,0.8L40.6,12
		l-0.7,0.4L39.1,12.9z"/>
	<polygon class="st1" points="158.8,63.2 157.4,43.2 156.5,33.1 155.3,23.2 154.4,22.6 153.4,22 152.4,21.5 151.4,21 150.3,20.4 
		149.2,19.9 148,19.5 146.8,19 145.6,18.5 144.4,18.1 141.8,17.3 139.2,16.5 136.4,15.8 133.6,15.2 130.8,14.6 127.9,14.1 
		124.9,13.6 122,13.2 119,12.8 113.1,12.2 109.8,12 106.5,11.8 103.3,11.7 100,11.7 96.7,11.7 93.5,11.8 90.2,12 86.9,12.2 81,12.8 
		78,13.2 75.1,13.6 72.1,14.1 69.2,14.6 66.4,15.2 63.6,15.8 60.8,16.5 58.2,17.3 55.6,18.1 54.4,18.5 53.2,19 52,19.5 50.8,19.9 
		49.7,20.4 48.6,21 47.6,21.5 46.6,22 45.6,22.6 44.7,23.2 43.5,33.1 42.6,43.2 41.2,63.2 40.2,82.5 40.1,88.9 40.1,95.3 
		40.3,101.7 40.7,108.1 41,111.4 41.4,114.6 41.9,119 42.6,123.4 43.1,125.6 43.5,127.7 44,129.9 44.6,132.1 45.1,134.2 45.8,136.3 
		46.5,138.4 47.2,140.5 48,142.6 48.9,144.6 49.8,146.6 50.8,148.6 51.5,150 52.3,151.4 53.1,152.8 54,154.2 54.8,155.5 55.7,156.9 
		56.7,158.2 57.7,159.5 58.7,160.7 59.7,162 60.7,163.2 61.8,164.4 62.9,165.6 64.1,166.8 65.2,167.9 66.4,169 68.2,170.7 
		70.1,172.2 72,173.7 73.9,175.2 75.9,176.5 78,177.9 80,179.1 82.2,180.4 84.3,181.5 86.5,182.6 88.7,183.6 90.9,184.6 93.1,185.5 
		95.4,186.3 97.7,187.1 100,187.8 102.3,187.1 104.6,186.3 106.9,185.5 109.1,184.6 111.3,183.6 113.5,182.6 115.7,181.5 
		117.8,180.4 120,179.1 122,177.9 124.1,176.5 126.1,175.2 128,173.7 129.9,172.2 131.8,170.7 133.6,169 134.8,167.9 135.9,166.8 
		137.1,165.6 138.2,164.4 139.3,163.2 140.3,162 141.3,160.7 142.3,159.5 143.3,158.2 144.3,156.9 145.2,155.5 146,154.2 
		146.9,152.8 147.7,151.4 148.5,150 149.2,148.6 150.2,146.6 151.1,144.6 152,142.6 152.8,140.5 153.5,138.4 154.2,136.3 
		154.9,134.2 155.4,132.1 156,129.9 156.5,127.7 156.9,125.6 157.4,123.4 158.1,119 158.6,114.6 159,111.4 159.3,108.1 159.7,101.7 
		159.9,95.3 159.9,88.9 159.8,82.5 	"/>
	<path class="st2" d="M165.6,80.7l-0.7-14.6l-1.4-20.9l-1-11.4l-1.3-11.4l-0.3-2.7l-2.3-1.5l-0.8-0.5l-0.8-0.5l-0.8-0.4l-0.8-0.4
		l-0.8-0.4l-0.8-0.4l-1.6-0.8l-1.9-0.8l-1.9-0.7l-1.9-0.7l-1.9-0.6l-1.9-0.6l-1.9-0.5l-2-0.5l-2-0.5L132.6,9l-4.2-0.8l-4.2-0.7
		L120.1,7l-4.2-0.4l-4-0.3l-4-0.2l-4-0.1l-4,0l-4.7,0.1l-4.7,0.2l-3.3,0.2l-3.3,0.3L79.9,7l-4.2,0.5l-4.2,0.7L67.4,9l-4.1,0.9
		l-2,0.5l-2,0.5l-1.9,0.5L55.5,12l-1.9,0.6l-1.9,0.7L49.8,14l-1.9,0.8l-1.6,0.8L45.4,16l-0.8,0.4l-0.8,0.4l-0.8,0.4l-0.8,0.5
		l-0.8,0.5l-2.3,1.5l-0.3,2.7l-1.3,11.4l-1,11.4l-0.8,11.4l-1.3,24.2l-0.2,7.3l0,7.3l0.2,7.4l0.2,3.7l0.3,3.7l0.6,5.9l0.4,3l0.4,3
		l0.4,2.6l0.5,2.6l0.6,2.6l0.6,2.6l0.7,2.6l0.7,2.5l0.8,2.5l0.9,2.5l0.9,2.4l1,2.4l1.1,2.4L46,152l0.9,1.7l1,1.7l1,1.7l1.1,1.6
		l1.1,1.6l1.2,1.6l1.2,1.6l1.2,1.5l1.3,1.5l1.3,1.5l1.3,1.4l1.4,1.4l1.8,1.7l1.8,1.7l1.9,1.6l1.9,1.6l2.3,1.8l2.4,1.7l2.4,1.6
		l2.5,1.5l2.5,1.4l2.6,1.4l2.6,1.3l2.6,1.2l2.7,1.1l2.7,1l2.7,1l2.8,0.9l1.7,0.5l1.7-0.5l2.8-0.9l2.7-1l2.7-1l2.7-1.1l2.6-1.2
		l2.6-1.3l2.6-1.4l2.5-1.4l2.5-1.5l2.4-1.6l2.4-1.7l2.3-1.8l1.9-1.6l1.9-1.6l1.8-1.7l1.8-1.7l1.4-1.4l1.3-1.4l1.3-1.5l1.3-1.5
		l1.2-1.5l1.2-1.6l1.1-1.6l1.1-1.6l1.1-1.6l1-1.7l1-1.7l0.9-1.7l1.2-2.3l1.1-2.4l1-2.4l0.9-2.4l0.9-2.5l0.8-2.5l0.7-2.5l0.7-2.6
		l0.6-2.6l0.6-2.6l0.5-2.6l0.4-2.6l0.4-3l0.4-3l0.6-5.9l0.3-3.7l0.2-3.7l0.2-7.4l0-7.4L165.6,80.7z M159.9,95.3l-0.2,6.4l-0.4,6.4
		l-0.3,3.2l-0.3,3.2l-0.6,4.4l-0.7,4.4l-0.4,2.2l-0.5,2.2l-0.5,2.2l-0.5,2.2l-0.6,2.1l-0.6,2.1l-0.7,2.1l-0.7,2.1l-0.8,2.1l-0.9,2
		l-0.9,2l-1,2l-0.8,1.4l-0.8,1.4l-0.8,1.4l-0.8,1.4l-0.9,1.4l-0.9,1.3l-0.9,1.3l-1,1.3l-1,1.3l-1,1.3l-1.1,1.2l-1.1,1.2l-1.1,1.2
		l-1.1,1.2l-1.2,1.1l-1.2,1.1l-1.8,1.6l-1.9,1.6l-1.9,1.5l-2,1.4l-2,1.4l-2,1.3l-2.1,1.3l-2.1,1.2l-2.1,1.1l-2.2,1.1l-2.2,1l-2.2,1
		l-2.2,0.9l-2.3,0.8l-2.3,0.8l-2.3,0.7l-2.3-0.7l-2.3-0.8l-2.3-0.8l-2.2-0.9l-2.2-1l-2.2-1l-2.2-1.1l-2.1-1.1l-2.1-1.2l-2.1-1.3
		l-2-1.3l-2-1.4l-2-1.4l-1.9-1.5l-1.9-1.6l-1.8-1.6l-1.2-1.1l-1.2-1.1l-1.1-1.2l-1.1-1.2l-1.1-1.2l-1.1-1.2l-1-1.3l-1-1.3l-1-1.3
		l-0.9-1.3l-0.9-1.3l-0.9-1.4l-0.8-1.4l-0.8-1.4l-0.8-1.4l-0.8-1.4l-1-2l-0.9-2l-0.9-2l-0.8-2.1l-0.7-2.1l-0.7-2.1l-0.6-2.1
		l-0.6-2.1l-0.5-2.2l-0.5-2.2l-0.5-2.2l-0.4-2.2l-0.7-4.4l-0.6-4.4l-0.3-3.2l-0.3-3.2l-0.4-6.4l-0.2-6.4l0-6.4l0.1-6.4l0.9-19.2
		l1.4-20.1l0.9-10l1.2-10l0.9-0.6l1-0.6l1-0.5l1-0.5l1.1-0.5l1.1-0.5l1.1-0.5l1.2-0.5l1.2-0.4l1.2-0.4l2.6-0.8l2.7-0.8l2.7-0.7
		l2.8-0.6l2.9-0.6l2.9-0.5l2.9-0.5l3-0.4l3-0.4l5.9-0.6l3.3-0.2l3.3-0.2l3.3-0.1l3.3,0l3.3,0l3.3,0.1l3.3,0.2l3.3,0.2l5.9,0.6l3,0.4
		l3,0.4l2.9,0.5l2.9,0.5l2.9,0.6l2.8,0.6l2.7,0.7l2.7,0.8l2.6,0.8l1.2,0.4l1.2,0.4l1.2,0.5l1.1,0.5l1.1,0.5l1.1,0.5l1,0.5l1,0.5
		l1,0.6l0.9,0.6l1.2,10l0.9,10l1.4,20.1l0.9,19.2l0.1,6.4L159.9,95.3z"/>
	<path class="st2" d="M89.2,25.4h1.7v-6.7h-1.7V25.4z"/>
	<path class="st2" d="M78.9,23.4h8.1v-1h-8.1V23.4z"/>
	<path class="st2" d="M93.5,22.2c0.4,0.4,1,0.6,1.6,0.6l-1.3,2.3l1.2,0.5l1.9-3.3c0.2-0.3,0.3-0.6,0.5-1c0.1-0.2,0.1-0.4,0.1-0.6
		c0-0.6-0.2-1.1-0.7-1.4c-0.4-0.4-1-0.6-1.6-0.6c-0.6,0-1.2,0.2-1.6,0.6c-0.4,0.4-0.7,0.9-0.7,1.5C92.8,21.3,93,21.8,93.5,22.2z
		 M93.5,22.2L93.5,22.2z M95.8,21.4c-0.2,0.2-0.4,0.3-0.7,0.3c-0.3,0-0.5-0.1-0.7-0.3c-0.2-0.2-0.3-0.4-0.3-0.7
		c0-0.2,0.1-0.5,0.3-0.7c0.2-0.2,0.4-0.3,0.7-0.3c0.2,0,0.5,0.1,0.6,0.3c0.2,0.2,0.3,0.4,0.3,0.7C96,21,95.9,21.2,95.8,21.4z"/>
	<path class="st2" d="M100.1,20.1c0.2-0.2,0.5-0.3,0.8-0.3c0.3,0,0.5,0.1,0.7,0.3c0.2,0.2,0.3,0.4,0.3,0.6c0,0.3-0.1,0.6-0.3,0.8
		c-0.3,0.5-0.7,0.9-1.1,1.2l-2.3,2.1v0.6h5.1v-1.2h-2.6l0.8-0.8c0.5-0.5,1-1,1.4-1.6c0.2-0.4,0.4-0.8,0.4-1.3c0-0.3-0.1-0.7-0.3-1
		c-0.2-0.3-0.5-0.6-0.8-0.7c-0.4-0.2-0.8-0.3-1.2-0.3c-0.7,0-1.3,0.2-1.8,0.6c-0.5,0.5-0.7,1.1-0.7,1.7h1.3
		C99.8,20.7,99.9,20.4,100.1,20.1z"/>
	<path class="st2" d="M105.3,25c0.4,0.4,1,0.6,1.6,0.6c0.6,0,1.2-0.2,1.6-0.6c0.4-0.4,0.7-0.9,0.7-1.5c0-0.6-0.2-1.1-0.7-1.5
		c-0.4-0.4-1-0.6-1.6-0.6l1.3-2.3l-1.2-0.5l-1.9,3.3c-0.2,0.3-0.3,0.6-0.5,1c-0.1,0.2-0.1,0.4-0.1,0.6
		C104.7,24.1,104.9,24.6,105.3,25z"/>
	<path class="st1" d="M106.3,22.9c0.2-0.2,0.4-0.3,0.7-0.3c0.3,0,0.5,0.1,0.7,0.3c0.2,0.2,0.3,0.4,0.3,0.7c0,0.3-0.1,0.5-0.3,0.7
		c-0.2,0.2-0.4,0.3-0.7,0.3c-0.2,0-0.5-0.1-0.6-0.3c-0.2-0.2-0.3-0.4-0.3-0.7C106,23.3,106.1,23,106.3,22.9z"/>
	<path class="st2" d="M111.3,23.4h8.1v-1h-8.1V23.4z"/>
	<path class="st2" d="M73.3,56.1V29.4H53.7v26.7h6.5V36.5h6.5v19.6H73.3z"/>
	<path class="st2" d="M84.5,43.6l0.8-7.7h3.4l0.8,7.7H84.5z M84.5,43.6L84.5,43.6z M83.7,50.5h6.6l0.6,5.8h6.5l-3.5-26.9H80.2
		l-3.5,26.9h6.5L83.7,50.5z"/>
	<path class="st2" d="M100.6,29.4v26.9h20V29.4H100.6z M100.6,29.4L100.6,29.4z M107.5,49.7V35.9h6.5v13.8H107.5z"/>
	<path class="st2" d="M124.2,29.4v26.7h7.1v-9.8h2.9l4.6,9.8h6.9l-6.5-13.8l6.5-12.9h-6.9l-5,10h-2.5v-10H124.2z"/>
	<path class="st2" d="M70.6,103.9c17.1-14,41.7-14,58.9,0l0.2-0.5l0.2-0.5l0.3-0.9l0.3-0.9l0.2-0.9l0.8-3.8l0.5-2.7l0.1-0.7l0.1-0.7
		l0.1-0.7l0-0.3l0-0.3l0-0.3l0-0.3l0-0.3l0-0.3l0-0.3l0-0.3l0-0.3l-0.1-0.3l0-0.2l0-0.2l0-0.2l0-0.2l0-0.2l0-0.2l-0.1-0.2l-0.1-0.2
		l-0.1-0.2l-0.1-0.2l-0.1-0.2l-0.1-0.2l-0.1-0.2l-0.1-0.2l-0.1-0.2l-0.1-0.2l-0.1-0.1l-0.1-0.1l-0.1-0.1l-0.1-0.1l-0.1-0.1l-0.1-0.1
		l-0.1-0.1l-0.1-0.1l-0.1-0.1l-0.1-0.1l-0.1-0.1l-0.1-0.1l-0.1-0.1l-0.1-0.1l-0.1-0.1l-0.1-0.1l-0.1,0l-0.1,0l-0.1,0l-0.1,0l-0.1,0
		l-0.1,0l-0.1,0l-0.1,0l0,0l0,0l0,0l0,0l0,0l0,0l0,0l0,0l0,0l0,0l0,0l0,0l0,0l0,0l0,0l0,0l0,0l0,0l0,0l0,0l0,0l0,0h0h0l-0.1,0
		l-0.1,0l-0.1,0l-0.1,0l-0.1,0l-0.1,0l-0.1,0l-0.1,0l-0.1,0l-0.1,0l-0.1,0l-0.1,0l-0.1,0l-0.1,0l-0.1,0l-0.1,0l-0.1,0l-0.1,0
		l-0.2,0.1l-0.2,0.1l-0.2,0.1l-0.2,0.1l-0.2,0.1l-0.2,0.1l-0.2,0.1l-0.2,0.1l-0.2,0.2l-0.2,0.2l-0.2,0.2l-0.2,0.2l-0.2,0.2l-0.2,0.2
		l-0.2,0.2l-0.2,0.2l-0.1,0.2l-0.2,0.2l-0.2,0.2l-0.4,0.5l-1.1,1.4l-0.2,0.2l-0.2,0.2l-0.2,0.2l-0.1,0.1l-0.1,0.1l-0.1,0.1l-0.1,0.1
		l-0.1,0.1l-0.1,0.1l-0.1,0.1l-0.1,0.1l-0.1,0.1l-0.1,0.1l-0.1,0.1l-0.1,0.1l-0.1,0l-0.1,0l-0.1,0l-0.1,0l-0.1,0l-0.1,0l-0.1,0
		l-0.1,0l-0.1,0l-0.1,0l-0.1,0l-0.1,0l0,0l0,0l0,0l0,0l0,0l0,0l0,0l0,0l0,0l0,0h0h0h0l0,0l0,0l0,0l0,0l0,0l0,0l0,0l0,0l0,0l0,0l0,0
		l0,0l0,0l0,0l0,0l0,0l0,0l0,0l0,0l0,0l0,0l0,0l0,0l0,0l0,0l0,0l0,0l0,0l0,0l0,0l0,0l0,0l0,0l0,0l0,0l0,0l0,0l-0.1-0.1l-0.1-0.1
		l0-0.1l0-0.1l0-0.1l0-0.1l0-0.1l0-0.1l0-0.1l0-0.1l0-0.1l0-0.1l0-0.1l0-0.1l0-0.1l0-0.1l0-0.1l0-0.1l0-0.1l0-0.1l0-0.1l0-0.1l0-0.1
		l0-0.1l0-0.1l0-0.1l0-0.1l0-0.1l0-0.1l0-0.1l0-0.1l0-0.1l0-0.1l0,0l0,0l0,0l0,0l0,0l0,0l0,0l0,0l0,0l0,0l0,0l0,0l0,0l0,0l0,0l0,0
		l0,0l0,0l0,0l0,0l0,0l0,0l0,0l0,0l0,0l0,0l0,0l0,0l0,0l0,0l0,0l0,0l0,0l0,0l0,0l0,0l0,0l0,0l0,0l0,0l0,0l0,0l0,0l0,0l0,0l0,0l0,0
		l0,0l0,0h0l0,0h0l0,0h0l0,0h0h0h0l0,0h0l0,0h0h0h0l0,0h0h0l0,0l0,0l0,0h0l0,0l0,0l0,0l0,0l0,0l0,0l0,0l0,0l0,0l0,0l0,0l0,0l0,0l0,0
		l0,0l0,0l0,0l0,0l0,0l0,0l0,0l0,0l0,0l0.1,0.1l0.1,0.1l0.1,0.1l0.1,0.1l0.1,0.1l0.1,0.2l0.1,0.2l-0.1-0.2l-0.1-0.2l-0.1-0.2
		l-0.1-0.2l-0.1-0.2l-0.1-0.2l-0.1-0.2l0-0.2l-0.1-0.4l-0.1-0.4l-0.2-1l-0.1-0.9l0-0.2l0-0.2l0-0.2l0-0.1l0-0.1v-0.1l0-0.1l0-0.1
		l0,0l0,0l0,0l0,0l0,0l0,0l0,0l0,0l0,0l0,0l0,0l0,0l0,0l0,0l0,0l0,0l0,0l0,0l0,0l0,0l0,0l0,0l0,0l0,0l0,0l0,0l0,0l0,0l0,0l0,0l0,0
		l0,0l0,0l0,0l0,0l0,0l0,0l0,0l0,0l0,0l0,0l0,0l0,0l0,0l0,0l0,0l0,0l0,0l0,0l0,0l0,0l0,0l0,0l0,0l0,0l0,0h0l0,0l0,0h0l0,0h0h0l0,0h0
		h0h0h0h0l0,0l0,0l0,0l0,0l0,0l0,0l0,0l0,0l0,0l0,0l0,0l0,0l0,0l0,0l0,0l0,0l0,0l0.1,0l0.1,0l0.1,0.1l0.1,0.1l0.1,0.1l0.1,0.1
		l0.1,0.1l0.1,0.1l0.1,0.1l0-0.2l0-0.2l0-0.2l0-0.2l0-0.2l0-0.2l0-0.2l0-0.2l0-0.2l0-0.2l0-0.2l0-0.2l0-0.2l0-0.2l0-0.2l0-0.2l0-0.2
		l0-0.2l0-0.2l0-0.2l0.1-0.3l0.1-0.3l0.1-0.3l0.1-0.3l0.1-0.3l0.1-0.3l0.1-0.2l0-0.1l0-0.1l0-0.1l0-0.1l0,0l0,0l0,0l0,0l0,0l0,0l0,0
		l0,0l0,0l0,0l0,0l0,0l0,0l0,0l0,0l0,0l0,0l0,0l0,0l0,0l0,0l0,0l0,0l0,0l0,0l0,0l0,0l0,0l0,0l0,0l0,0l0,0l0,0l0,0l0,0l0,0l0,0l0,0
		l0,0l0,0l0,0l0,0l0,0l0,0h0l0,0l0,0l0,0l0,0l0,0l0,0l0,0l0,0l0,0l0,0l0,0l0,0l0,0l0,0l0,0l0,0l0,0l0.1,0l0.1,0l0.1,0l0.2-0.3
		l0.2-0.3l0.2-0.3l0.2-0.3l0.3-0.3l0.1-0.2l0.1-0.2l0.1-0.2l0.1-0.1l0.1-0.1l0.1-0.1l0.1-0.1l0.1-0.1l0.2-0.1l0.2-0.1l0.2-0.1
		l0.2-0.1l0.2-0.1l0.2-0.1l0.2-0.1l0.2-0.1l0.2-0.1l0.2-0.1l0.2-0.1l0.2-0.1l0.2-0.1l0.2-0.1l0.2-0.1l0.2-0.1l0.2-0.1l0.2-0.1
		l0.2-0.1l0.2-0.1l0.2-0.1l0.2,0l0.2,0l0.2,0l0.2,0l0.2,0l0.2,0l0.2,0l0.2,0l0.2,0l0.2,0l0.2,0l0.2,0l0.2,0l0.2,0l0.2,0l0.2,0l0.2,0
		l0.2,0l0.2,0l0.2,0l0.2,0l0.2,0l0.2,0l0.2,0l0.2,0l0.1,0l0.1,0l0.1,0l0.1,0l0.1,0l0.1,0l0.1,0.1l0.1,0.1l0.1,0.1l0.1,0.1l0.3,0.1
		l0.3,0.1l0.2,0.1c1.8-0.4,3.7-0.3,5.4,0.4l0-0.3l0-0.3l0-0.1l0-0.1l0-0.1l0-0.1l0-0.1l0-0.1l0-0.1l0-0.1l0-0.1l0-0.1l0-0.1
		l-0.1-0.1l-0.1-0.1l-0.1-0.1l-0.1-0.1l-0.1-0.1l-0.1-0.1l-0.1-0.1l-0.1-0.1l-0.1-0.1l-0.1-0.1l-0.1-0.1l-0.1-0.1l-0.1-0.1l0-0.1
		l0-0.1l0-0.1l0-0.1l-0.1-0.1l0-0.1l-0.1,0l-0.1,0l-0.1-0.1l-0.1-0.1l-0.1-0.1l-0.1-0.1l-0.1-0.1l-0.1-0.1l-0.1-0.1l-0.1-0.1
		l-0.1-0.1l-0.1-0.1l-0.1-0.1l-0.1,0l-0.1,0l-0.1,0l-0.1,0l-0.1,0l-0.1,0l-0.1,0l-0.1,0l-0.1,0l-0.1,0l-0.1,0l-0.2,0l-0.2,0l-0.2,0
		l-0.2,0l-0.2,0l-0.1-0.3l-0.1-0.3l-0.1-0.3l-0.1-0.3l-0.1-0.3l-0.1-0.3l-0.1-0.3l-0.1-0.3l-0.1-0.3l-0.1-0.1l-0.1-0.1l-0.1-0.1
		l-0.1-0.1l-0.1-0.1l-0.1-0.1l-0.1-0.1l-0.1-0.1l-0.1-0.1l-0.1-0.1l-0.1-0.1l-0.1-0.1l-0.1-0.1l-0.1-0.1l-0.1-0.1l-0.1,0l-0.1,0
		l-0.1,0l-0.1,0l-0.1,0l-0.1,0l-0.1,0l-0.1,0l-0.1,0l-0.1,0l-0.1,0l-0.1,0l-0.1,0l-0.1,0l-0.1,0l-0.1,0l-0.1,0l-0.1,0l-0.1,0l-0.2,0
		l-0.2,0l-0.2,0l-0.2,0l-0.2,0l-0.2,0l-0.2,0l-0.2,0l-0.2,0h-0.2h-0.2l-0.2,0l-0.4,0l-0.4,0l-0.4,0l-0.4,0.1l-0.4,0.1l-0.8,0.1
		l-3.1,0.7l-0.8,0.1l-0.4,0.1l-0.4,0.1l-0.4,0l-0.4,0l-0.3,0l-0.3,0l-0.3,0l-0.3,0l-0.5,0l-2.6-0.2l0,0.2l0,0.3l0,0.1l0,0.1l0,0.1
		l0,0.1l0,0.1l0,0.1l0,0.1l0,0.1l0,0.1l0,0.1l0,0.1l0,0.1l0,0l0,0l0,0l0,0l0,0l0,0l0,0l0,0l0,0l0,0l0,0l0,0l0,0l0,0l0,0l0,0l0,0l0,0
		l0,0l0,0l0,0l0,0l0,0l0,0l0,0l0,0l0,0l0,0l0.1,0.1l0.1,0.1l0.1,0l0.1,0l0.1,0l0.1,0l0.2,0.1l0.7,0.3l0.2,0.1l0.1,0l0.1,0l0,0l0,0
		l0,0l0,0l0,0l0,0l0,0l0,0l0,0l0,0l0,0l0,0l0,0l0,0l0,0l0,0l0,0l0,0l0,0l0,0l0,0l0,0l0,0l0,0v0l0,0l0,0l0,0v0l0,0v0l0,0v0v0l0,0v0v0
		v0v0v0l0,0v0v0v0l0,0v0v0l0,0v0l0,0v0l0,0l0,0v0l0,0l0,0l0,0l0,0v0l0,0l0,0l0,0l0,0l0,0l0,0l0,0l0,0l0,0l0,0l0,0l0,0l0,0l0,0l0,0
		l0,0l0,0l0,0l0,0l0,0l0,0l0,0l0,0l-0.1,0l-0.1,0l-0.1,0l-0.1,0l-0.1,0l-0.1,0l-0.3,0.1l-3,0.7l-0.7,0.2l-0.3,0.1l-0.3,0.1l-0.3,0.1
		l-0.3,0.1l-0.3,0.1l-0.3,0.1l-0.3,0.1l-0.3,0.2l-0.2,0.1l-0.2,0.1l-0.2,0.1l-0.2,0.1l-0.2,0.1l-0.2,0.1l-0.4,0.3l-0.4,0.3l-0.4,0.3
		l-0.3,0.3l-0.2,0.2l-0.2,0.2l0.2-0.1l0.1,0l0.1,0l0.1,0l0.1,0l0.1,0l0.1,0l0.1,0l0.1,0l0.1,0l0.1,0l0.1,0l0.1,0l0.1,0l0.1,0h0.1
		l0.1,0l0.1,0l0.1,0l0.1,0l0.1,0l0.1,0l0.1,0l0.1,0l0.1,0l0.1,0l0.1,0l0.1,0l0.1,0l0.1,0l0.1,0l0.1,0l0.1,0l0.1,0l0.1,0l0.1,0l0.1,0
		l0.1,0l0.1,0l0.1,0l0.1,0l0.1,0l0.1,0l0.1,0l0.1,0l0.1,0l0.1,0l0,0l0,0l0,0l0,0l0,0l0,0l0,0l0,0l0,0l0,0l0,0l0,0l0,0l0,0l0,0l0,0
		l0,0l0,0l0,0l0,0l0,0l0,0l0,0l0,0l0,0l0,0v0l0,0v0l0,0v0v0l0,0v0v0v0v0v0l0,0v0v0l0,0l0,0v0l0,0l0,0l0,0l0,0l0,0l0,0l0,0l0,0l0,0
		l0,0l0,0l0,0l0,0l0,0l0,0l0,0l0,0l0,0l0,0l0,0l0,0l0,0l0,0l0,0l0,0l0,0l0,0l0,0l0,0l0,0l0,0l0,0l0,0l0,0l0,0l0,0l0,0l0,0l0,0l0,0
		l-0.1,0l-0.1,0l-0.1,0l-0.2,0.1l-0.2,0.1l-1.5,0.3l-0.3,0.1l-0.2,0.1l-0.2,0.1l-0.2,0.1l-0.2,0.1l-0.2,0.1l-0.2,0.1l-0.2,0.1
		l-0.2,0.1l-0.2,0.1l-0.2,0.1L107,74l-0.2,0.1l-0.2,0.1l-0.2,0.1l-0.1,0.1l-0.1,0.1l-0.1,0.1l-0.1,0.1l-0.3,0.2l-0.3,0.3l-1.3,1.3
		l0.1,0l0.1,0l0.1,0l0.1,0l0.1,0l0.1,0h0.3l0.3,0l0.9,0.1l0.3,0l0.2,0l0.1,0l0.1,0l0.1,0l0,0l0,0l0,0l0,0l0,0l0,0l0,0l0,0l0,0l0,0
		l0,0l0,0l0,0l0,0l0,0l0,0l0,0l0,0l0,0l0,0l0,0l0,0l0,0l0,0l0,0l0,0l0,0l0,0l0,0l0,0l0,0l0,0l0,0l0,0l0,0l0,0l0,0l0,0l0,0l0,0l0,0v0
		l0,0l0,0v0l0,0l0,0v0v0l0,0v0v0l0,0v0v0v0v0v0v0v0v0v0l0,0v0v0l0,0v0l0,0l0,0l0,0l0,0l0,0l0,0l0,0l0,0l0,0l0,0l0,0l0,0l0,0l0,0l0,0
		l0,0l0,0l0,0l0,0l0,0l0,0l0,0l0,0.1l-0.1,0.1l-0.1,0.1l-0.1,0.1l-0.1,0.1l-0.1,0.1l-0.1,0.1l-0.1,0.1l-0.1,0.1l-0.2,0.1l-0.2,0.1
		l-0.2,0.1l-0.2,0.1l-0.1,0.1l-0.1,0.1l-0.1,0.1l-0.1,0.1l-0.2,0.1l-0.2,0.1l-0.2,0.1l-0.9,0.3l-0.2,0.1l-0.1,0l-0.1,0l-0.1,0
		l-0.1,0l-0.1,0l-0.1,0l-0.1,0l-0.1,0l-0.1,0l-0.1,0.1l-0.1,0.1l-0.1,0.1l-0.1,0.1l-0.1,0.1l-0.1,0.1l-0.1,0.1l-0.1,0.1l-0.1,0.1
		l-0.1,0.1l-0.1,0.1l-0.1,0.1l-0.1,0.1l-0.1,0.1l-0.1,0.1l-0.1,0.2l-0.1,0.2l-0.1,0.2l-0.1,0.2l-0.1,0.2l-0.1,0.2l-0.1,0.2l-0.1,0.2
		l-0.1,0.2l0.1-0.1l0.1-0.1l0.1,0l0.1,0l0.1,0l0.1,0l0.1,0l0.1,0l0.1,0l0.1,0l0.1,0l0.1,0l0.1,0l0.1,0l0.1,0l0.1,0l0.1,0l0,0h0h0h0
		l0,0l0,0l0,0l0,0l0,0l0,0l0,0l0,0l0,0l0,0l0,0l0,0l0,0l0,0l0,0l0,0l0,0l0,0l0,0l0,0l0,0l0,0l0.1,0l0.1,0l0.1,0l0.1,0l0.1,0l0,0l0,0
		l0,0l0,0l0,0l0,0l0,0l0,0l0,0l0,0l0,0l0,0l0,0l0,0l0,0l0,0l0,0l0,0l0,0l0,0l0,0l0,0l0,0l0,0l0,0l0,0l0,0l0,0l0,0v0l0,0v0v0v0l0,0v0
		v0v0v0v0v0v0v0v0v0v0l0,0v0v0l0,0v0v0l0,0v0l0,0v0l0,0l0,0v0l0,0l0,0l0,0l0,0l0,0l0,0l0,0l0,0l0,0l0,0l0,0l0,0l0,0l0,0l0,0l0,0l0,0
		l0,0l0,0l0,0l0,0l0,0l0,0l0,0l0,0l0,0l0,0l0,0l0,0l-0.1,0l-0.1,0l-0.1,0l-0.1,0l-0.1,0l-0.5,0.2l-0.3,0.1l-0.2,0.1l-0.1,0.1
		l-0.1,0.1l-0.1,0.1l-0.1,0.1l-0.1,0.1l-0.1,0.1l-0.1,0.1l-0.1,0.1l-0.1,0.1l-0.1,0.1l-0.1,0.1l-0.1,0.1l-0.1,0.1l-0.1,0.1l-0.1,0.1
		l-0.1,0.1l-0.1,0.1l-0.1,0.2l-0.1,0.2l-0.7,1l-0.7-1l-0.1-0.2L99,84.7l-0.1-0.1l-0.1-0.1l-0.1-0.1l-0.1-0.1l-0.1-0.1l-0.1-0.1
		l-0.1-0.1L98.3,84l-0.1-0.1l-0.1-0.1L98,83.8l-0.1-0.1l-0.1-0.1l-0.1-0.1l-0.1-0.1l-0.1-0.1l-0.1-0.1l-0.2-0.1l-0.3-0.1L96.3,83
		l-0.1,0l-0.1,0l-0.1,0l-0.1,0l-0.1,0l0,0l0,0l0,0l0,0l0,0l0,0l0,0l0,0l0,0l0,0l0,0l0,0l0,0l0,0l0,0l0,0l0,0l0,0l0,0l0,0l0,0l0,0
		l0,0l0,0l0,0l0,0l0,0l0,0l0,0v0l0,0l0,0v0l0,0v0l0,0v0v0l0,0v0v0l0,0v0v0v0v0v0v0v0v0v0v0v0l0,0v0v0l0,0v0v0l0,0l0,0l0,0l0,0l0,0
		l0,0l0,0l0,0l0,0l0,0l0,0l0,0l0,0l0,0l0,0l0,0l0,0l0,0l0,0l0,0l0,0l0,0l0,0l0,0l0,0l0,0l0,0l0,0l0,0l0.1,0l0.1,0l0.1,0l0.1,0l0.1,0
		l0,0l0,0l0,0l0,0l0,0l0,0l0,0l0,0l0,0l0,0l0,0l0,0l0,0l0,0l0,0l0,0l0,0l0,0l0,0l0,0l0,0l0,0h0h0h0l0,0l0.1,0l0.1,0l0.1,0l0.1,0
		l0.1,0l0.1,0l0.1,0l0.1,0l0.1,0l0.1,0l0.1,0l0.1,0l0.1,0l0.1,0l0.1,0l0.1,0.1l0.1,0.1l-0.1-0.2l-0.1-0.2l-0.1-0.2l-0.1-0.2
		l-0.1-0.2l-0.1-0.2L98,80.8l-0.1-0.2l-0.1-0.2l-0.1-0.1l-0.1-0.1l-0.1-0.1l-0.1-0.1l-0.1-0.1L97.4,80l-0.1-0.1l-0.1-0.1l-0.1-0.1
		l-0.1-0.1l-0.1-0.1L97,79.6l-0.1-0.1l-0.1-0.1l-0.1-0.1l-0.1,0l-0.1,0l-0.1,0l-0.1,0l-0.1,0l-0.1,0l-0.1,0l-0.1,0l-0.1,0L95.9,79
		L95,78.7l-0.2-0.1l-0.2-0.1l-0.2-0.1l-0.1-0.1l-0.1-0.1l-0.1-0.1l-0.1-0.1l-0.2-0.1l-0.2-0.1L93.5,78l-0.2-0.1l-0.1-0.1l-0.1-0.1
		L93,77.6l-0.1-0.1l-0.1-0.1l-0.1-0.1l-0.1-0.1l-0.1-0.1l0-0.1l0,0l0,0l0,0l0,0l0,0l0,0l0,0l0,0l0,0l0,0l0,0l0,0l0,0l0,0l0,0l0,0
		l0,0l0,0l0,0l0,0l0,0l0,0v0l0,0v0v0l0,0v0v0v0v0v0v0v0v0v0l0,0v0v0l0,0v0v0l0,0l0,0v0l0,0l0,0v0l0,0l0,0l0,0l0,0l0,0l0,0l0,0l0,0
		l0,0l0,0l0,0l0,0l0,0l0,0l0,0l0,0l0,0l0,0l0,0l0,0l0,0l0,0l0,0l0,0l0,0l0,0l0,0l0,0l0,0l0,0l0,0l0,0l0,0l0,0l0,0l0,0l0,0l0,0l0,0
		l0,0l0,0l0.1,0l0.1,0l0.1,0l0.2,0l1-0.1l0.3,0l0.3,0H95l0.1,0l0.1,0l0.1,0l0.1,0l0.1,0l0.1,0l-1.3-1.3L94.3,75L94,74.8l-0.1-0.1
		l-0.1-0.1l-0.1-0.1l-0.1-0.1l-0.2-0.1l-0.2-0.1L93,74l-0.2-0.1l-0.2-0.1l-0.2-0.1l-0.2-0.1l-0.2-0.1l-0.2-0.1l-0.2-0.1l-0.2-0.1
		l-0.2-0.1l-0.2-0.1L90.8,73L90.6,73L89,72.6l-0.2-0.1l-0.2-0.1l-0.1,0l-0.1,0l-0.1,0l0,0l0,0l0,0l0,0l0,0l0,0l0,0l0,0l0,0l0,0l0,0
		l0,0l0,0l0,0l0,0l0,0l0,0l0,0l0,0l0,0l0,0l0,0l0,0l0,0l0,0l0,0l0,0l0,0l0,0l0,0l0,0l0,0l0,0l0,0l0,0l0,0l0,0l0,0l0,0l0,0v0l0,0v0
		l0,0v0l0,0v0v0v0v0v0l0,0v0v0l0,0v0l0,0l0,0l0,0l0,0l0,0l0,0l0,0l0,0l0,0l0,0l0,0l0,0l0,0l0,0l0,0l0,0l0,0l0,0l0,0l0,0l0,0l0,0l0,0
		l0,0l0,0l0,0l0,0l0,0l0.1,0l0.1,0l0.1,0l0.1,0l0.1,0l0.1,0l0.1,0l0.1,0l0.1,0l0.1,0l0.1,0l0.1,0l0.1,0l0.1,0l0.1,0l0.1,0l0.1,0
		l0.1,0l0.1,0l0.1,0l0.1,0l0.1,0l0.1,0l0.1,0l0.1,0l0.1,0l0.1,0l0.1,0l0.1,0l0.1,0l0.1,0h0.1l0.1,0l0.1,0l0.1,0l0.1,0l0.1,0l0.1,0
		l0.1,0l0.1,0l0.1,0l0.1,0l0.1,0l0.1,0l0.1,0l0.1,0l0.2,0.1L91.3,71l-0.2-0.2l-0.3-0.3l-0.4-0.3L90,69.9l-0.4-0.3l-0.2-0.1l-0.2-0.1
		l-0.2-0.1l-0.2-0.1L88.7,69l-0.2-0.1l-0.3-0.2l-0.3-0.1l-0.3-0.1l-0.3-0.1l-0.3-0.1l-0.3-0.1L86.5,68l-0.3-0.1l-0.7-0.2l-3-0.7
		L82.1,67l-0.1,0l-0.1,0l-0.1,0l-0.1,0l-0.1,0l-0.1,0l0,0l0,0l0,0l0,0l0,0l0,0l0,0l0,0l0,0l0,0l0,0l0,0l0,0l0,0l0,0l0,0l0,0l0,0l0,0
		l0,0l0,0l0,0l0,0v0l0,0l0,0l0,0l0,0v0l0,0l0,0v0l0,0v0l0,0v0v0l0,0v0v0v0l0,0v0v0v0v0v0l0,0v0v0l0,0v0l0,0v0l0,0l0,0l0,0v0l0,0l0,0
		l0,0l0,0l0,0l0,0l0,0l0,0l0,0l0,0l0,0l0,0l0,0l0,0l0,0l0,0l0,0l0,0l0,0l0,0l0,0l0,0l0,0l0,0l0.1,0l0.1,0l0.2-0.1l0.7-0.3l0.2-0.1
		l0.1,0l0.1,0l0.1,0l0.1,0l0.1-0.1l0.1-0.1l0,0l0,0l0,0l0,0l0,0l0,0l0,0l0,0l0,0l0,0l0,0l0,0l0,0l0,0l0,0l0,0l0,0l0,0l0,0l0,0l0,0
		l0,0l0,0l0,0l0,0l0,0l0,0l0,0l0-0.1l0-0.1l0-0.1l0-0.1l0-0.1l0-0.1l0-0.1l0-0.1l0-0.1l0-0.1l0-0.1l0-0.1l0-0.3l0-0.2l-2.6,0.2
		l-0.5,0l-0.3,0l-0.3,0l-0.3,0l-0.3,0l-0.4,0l-0.4,0l-0.4-0.1l-0.4-0.1l-0.8-0.1l-3.1-0.7l-0.8-0.1l-0.4-0.1l-0.4-0.1l-0.4,0l-0.4,0
		l-0.4,0l-0.2,0h-0.2h-0.2l-0.2,0l-0.2,0l-0.2,0l-0.2,0l-0.2,0l-0.2,0l-0.2,0l-0.2,0l-0.2,0l-0.1,0l-0.1,0l-0.1,0l-0.1,0l-0.1,0
		l-0.1,0l-0.1,0l-0.1,0l-0.1,0l-0.1,0l-0.1,0l-0.1,0l-0.1,0l-0.1,0L69,63L69,63l-0.1,0l-0.1,0l-0.1,0l-0.1,0.1l-0.1,0.1l-0.1,0.1
		l-0.1,0.1l-0.1,0.1l-0.1,0.1l-0.1,0.1L68,63.9L67.9,64l-0.1,0.1l-0.1,0.1l-0.1,0.1l-0.1,0.1l-0.1,0.1l-0.1,0.1L67.3,65l-0.1,0.3
		L67,65.5l-0.1,0.3l-0.1,0.3l-0.1,0.3l-0.1,0.3l-0.1,0.3l-0.1,0.3l-0.2,0l-0.2,0l-0.2,0l-0.2,0l-0.2,0l-0.1,0l-0.1,0l-0.1,0l-0.1,0
		l-0.1,0l-0.1,0l-0.1,0l-0.1,0l-0.1,0l-0.1,0l-0.1,0l-0.1,0.1l-0.1,0.1l-0.1,0.1L63.5,68L63.4,68l-0.1,0.1l-0.1,0.1l-0.1,0.1
		L63,68.3l-0.1,0.1l-0.1,0.1l-0.1,0l-0.1,0l0,0.1l-0.1,0.1l0,0.1l0,0.1l0,0.1l0,0.1L62.4,69l-0.1,0.1l-0.1,0.1l-0.1,0.1l-0.1,0.1
		L62,69.6l-0.1,0.1l-0.1,0.1l-0.1,0.1l-0.1,0.1l-0.1,0.1l-0.1,0.1l-0.1,0.1l0,0.1l0,0.1l0,0.1l0,0.1l0,0.1l0,0.1l0,0.1l0,0.1l0,0.1
		l0,0.1l0,0.1l0,0.3l0,0.3c1.7-0.7,3.6-0.9,5.4-0.4l0.2-0.1l0.3-0.1l0.3-0.1l0.1-0.1l0.1-0.1l0.1-0.1l0.1-0.1l0.1,0l0.1,0l0.1,0
		l0.1,0l0.1,0l0.1,0l0.2,0l0.2,0l0.2,0l0.2,0l0.2,0l0.2,0l0.2,0l0.2,0l0.2,0l0.2,0l0.2,0l0.2,0l0.2,0l0.2,0l0.2,0l0.2,0l0.2,0l0.2,0
		l0.2,0l0.2,0l0.2,0l0.2,0l0.2,0l0.2,0l0.2,0l0.2,0.1l0.2,0.1l0.2,0.1l0.2,0.1l0.2,0.1l0.2,0.1l0.2,0.1l0.2,0.1l0.2,0.1l0.2,0.1
		l0.2,0.1l0.2,0.1l0.2,0.1l0.2,0.1l0.2,0.1l0.2,0.1l0.2,0.1l0.2,0.1l0.2,0.1l0.2,0.1l0.2,0.1l0.1,0.1l0.1,0.1l0.1,0.1l0.1,0.1
		l0.1,0.1l0.1,0.2l0.1,0.2l0.1,0.2l0.3,0.3l0.2,0.3l0.2,0.3l0.2,0.3l0.2,0.3l0.1,0l0.1,0l0.1,0l0,0l0,0l0,0l0,0l0,0l0,0l0,0l0,0l0,0
		l0,0l0,0l0,0l0,0l0,0l0,0l0,0l0,0h0l0,0l0,0l0,0l0,0l0,0l0,0l0,0l0,0l0,0l0,0l0,0l0,0l0,0l0,0l0,0l0,0l0,0l0,0l0,0l0,0l0,0l0,0l0,0
		l0,0l0,0l0,0l0,0l0,0l0,0l0,0l0,0l0,0l0,0l0,0l0,0l0,0l0,0l0,0l0,0l0,0l0,0l0,0l0,0l0,0l0,0.1l0,0.1l0,0.1l0,0.1l0.1,0.2l0.1,0.3
		l0.1,0.3l0.1,0.3l0.1,0.3l0.1,0.3l0.1,0.3l0,0.2l0,0.2l0,0.2l0,0.2l0,0.2l0,0.2l0,0.2l0,0.2l0,0.2l0,0.2l0,0.2l0,0.2l0,0.2l0,0.2
		l0,0.2l0,0.2l0,0.2l0,0.2l0,0.2l0,0.2l0.1-0.1l0.1-0.1l0.1-0.1l0.1-0.1l0.1-0.1l0.1-0.1l0.1-0.1l0.1,0l0.1,0l0,0l0,0l0,0l0,0l0,0
		l0,0l0,0l0,0l0,0l0,0l0,0l0,0l0,0l0,0l0,0l0,0l0,0h0h0h0h0h0l0,0h0h0l0,0h0l0,0l0,0h0l0,0l0,0l0,0l0,0l0,0l0,0l0,0l0,0l0,0l0,0l0,0
		l0,0l0,0l0,0l0,0l0,0l0,0l0,0l0,0l0,0l0,0l0,0l0,0l0,0l0,0l0,0l0,0l0,0l0,0l0,0l0,0l0,0l0,0l0,0l0,0l0,0l0,0l0,0l0,0l0,0l0,0l0,0
		l0,0l0,0l0,0l0,0l0,0l0,0l0,0l0,0l0,0l0,0l0,0l0,0l0,0l0,0l0,0.1l0,0.1v0.1l0,0.1l0,0.1l0,0.2l0,0.2l0,0.2l-0.1,0.9l-0.2,1
		l-0.1,0.4l-0.1,0.4l0,0.2l-0.1,0.2l-0.1,0.2l-0.1,0.2l-0.1,0.2l-0.1,0.2l-0.1,0.2l-0.1,0.2l0.1-0.2l0.1-0.2l0.1-0.1l0.1-0.1
		l0.1-0.1l0.1-0.1l0.1-0.1l0,0l0,0l0,0l0,0l0,0l0,0l0,0l0,0l0,0l0,0l0,0l0,0l0,0l0,0l0,0l0,0l0,0l0,0l0,0l0,0l0,0l0,0l0,0h0l0,0l0,0
		l0,0h0h0l0,0h0h0h0l0,0h0l0,0h0h0h0l0,0h0l0,0h0l0,0h0l0,0l0,0l0,0l0,0l0,0l0,0l0,0l0,0l0,0l0,0l0,0l0,0l0,0l0,0l0,0l0,0l0,0l0,0
		l0,0l0,0l0,0l0,0l0,0l0,0l0,0l0,0l0,0l0,0l0,0l0,0l0,0l0,0l0,0l0,0l0,0l0,0l0,0l0,0l0,0l0,0l0,0l0,0l0,0l0,0l0,0l0,0l0,0l0,0l0,0
		l0,0.1l0,0.1l0,0.1l0,0.1l0,0.1l0,0.1l0,0.1l0,0.1l0,0.1l0,0.1l0,0.1l0,0.1l0,0.1l0,0.1l0,0.1l0,0.1l0,0.1l0,0.1l0,0.1l0,0.1l0,0.1
		l0,0.1l0,0.1l0,0.1l0,0.1l0,0.1l0,0.1l0,0.1l0,0.1l0,0.1l0,0.1L83,90.6l-0.1,0.1l0,0l0,0l0,0l0,0l0,0l0,0l0,0l0,0l0,0l0,0l0,0l0,0
		l0,0l0,0l0,0l0,0l0,0l0,0l0,0l0,0l0,0l0,0l0,0l0,0l0,0l0,0l0,0l0,0l0,0l0,0l0,0l0,0l0,0l0,0l0,0l0,0l0,0h0h0h0l0,0l0,0l0,0l0,0l0,0
		l0,0l0,0l0,0l0,0l0,0l-0.1,0l-0.1,0l-0.1,0l-0.1,0l-0.1,0l-0.1,0l-0.1,0l-0.1,0l-0.1,0l-0.1,0l-0.1,0l-0.1,0l-0.1-0.1l-0.1-0.1
		L80,90.7l-0.1-0.1l-0.1-0.1l-0.1-0.1l-0.1-0.1l-0.1-0.1L79.2,90l-0.1-0.1L79,89.8l-0.1-0.1l-0.2-0.2l-0.2-0.2L78.3,89l-1.1-1.4
		l-0.4-0.5l-0.2-0.2l-0.2-0.2l-0.2-0.2l-0.2-0.2L76,86.1l-0.2-0.2l-0.2-0.2l-0.2-0.2l-0.2-0.2l-0.2-0.2l-0.2-0.2L74.7,85l-0.2-0.1
		l-0.2-0.1l-0.2-0.1L74,84.5l-0.2-0.1l-0.2-0.1l-0.2-0.1l-0.1,0l-0.1,0l-0.1,0L73,84l-0.1,0l-0.1,0l-0.1,0l-0.1,0l-0.1,0l-0.1,0
		l-0.1,0l-0.1,0l-0.1,0l-0.1,0l-0.1,0l-0.1,0l-0.1,0l-0.1,0h0h0l0,0l0,0l0,0l0,0l0,0l0,0l0,0l0,0l0,0l0,0l0,0l0,0l0,0l0,0l0,0l0,0
		l0,0l0,0l0,0l0,0l0,0l0,0l-0.1,0l-0.1,0l-0.1,0l-0.1,0l-0.1,0l-0.1,0l-0.1,0l-0.1,0L70,84.3L70,84.3l-0.1,0.1l-0.1,0.1l-0.1,0.1
		l-0.1,0.1l-0.1,0.1l-0.1,0.1l-0.1,0.1l-0.1,0.1l-0.1,0.1l-0.1,0.1l-0.1,0.1l-0.1,0.1L69,85.6l-0.1,0.1l-0.1,0.2l-0.1,0.2l-0.1,0.2
		l-0.1,0.2l-0.1,0.2l-0.1,0.2l-0.1,0.2L68.4,87l-0.1,0.2l-0.1,0.2l0,0.2l0,0.2l0,0.2l0,0.2l0,0.2l0,0.2L68,88.7l0,0.3l0,0.3l0,0.3
		l0,0.3l0,0.3l0,0.3l0,0.3l0,0.3l0,0.3l0.1,0.7l0.1,0.7l0.1,0.7l0.5,2.7l0.8,3.8l0.2,0.9l0.3,0.9l0.3,0.9l0.2,0.5L70.6,103.9z"/>
	<path class="st2" d="M70.6,103.9L70.6,103.9z"/>
	<polygon class="st2" points="131.7,67.4 128.4,67.8 126.7,64.5 128.8,67.2 	"/>
	<polygon class="st2" points="71.6,67.8 68.3,67.4 71.2,67.2 73.3,64.5 	"/>
	<path class="st1" d="M131.7,67.4l-3.3,0.4l-1.7-3.3l2.1,2.7L131.7,67.4z"/>
	<path class="st1" d="M71.6,67.8l-3.3-0.4l2.9-0.2l2.1-2.7L71.6,67.8z"/>
	<rect x="57.6" y="82.8" class="st3" width="10.8" height="24.7"/>
	<path class="st2" d="M67.7,102.8l0-0.4l0-0.4l-0.1-0.5l-0.1-0.5l-0.1-0.5l-0.1-0.5l-0.2-1l-0.8-3.6l-0.2-0.9L66,93.7l-0.1-0.8
		l-0.1-0.4l0-0.4l0-0.4l0-0.4l0-0.4l0-0.4l0-0.4l0-0.4l0-0.4l0-0.4l0-0.2l0-0.2l0-0.2l0-0.2l0.1-0.3l0.1-0.3l0.1-0.3l0.1-0.3
		l0.1-0.3l0.1-0.3l0.1-0.3l0.1-0.3l0.2-0.3l0.2-0.3l0.2-0.3l0.2-0.3l0.2-0.3l0.2-0.3l0.2-0.3l0.2-0.3h-0.2L67.6,83L67,83.3l-0.5,0.2
		L66,83.8l-0.2,0.1L65.5,84l-0.2,0.1L65,84.3l-0.2,0.1l-0.2,0.2l-0.2,0.2l-0.2,0.2l-0.3,0.3l-0.3,0.3l-0.3,0.3L62.8,86l-0.3,0.3
		l-0.3,0.3l-0.3,0.3l-0.3,0.3l-0.3,0.3l-0.3,0.3l-0.3,0.3l-0.3,0.4L60.3,89l-0.2,0.4l-0.2,0.4l-0.2,0.4l-0.2,0.4l-0.2,0.4l-0.2,0.4
		l-0.2,0.4l-0.2,0.4l-0.2,0.4l-0.1,0.4l-0.1,0.4l-0.1,0.4l-0.1,0.4L58,94.6l-0.1,0.4l-0.1,0.4l-0.1,0.4l-0.1,0.4l0,0.4l0,0.3l0,0.3
		l0,0.3l0,0.3l0,0.3l0,0.3l0,0.3l0,0.3l0,0.3l0,0.3l0.1,0.3l0.1,0.3l0.1,0.3l0.1,0.3l0.1,0.3l0.1,0.3l0.1,0.2l0.1,0.2l0.1,0.2
		l0.1,0.2l0.1,0.1l0.1,0.1l0.1,0.1l0.1,0.1l0.1,0.1l0.1,0.1l0.1,0.1l0.1,0.1l0.1,0.1l0.1,0.1l0.1,0.1l0.1,0.1l0.1,0.1l0.1,0.1
		l0.1,0.1l0.1,0.1l0.1,0.1l0.1,0.1l0.1,0.1l0.1,0.1l0.1,0.1l0.1,0.1l0.1,0.1l0.1,0.1l0.1,0.1l0.1,0.1l0.1,0.1l0.2,0.1l0.2,0.1
		l0.2,0.1l0.2,0.1l0.2,0.1l0.2,0.1l0.2,0.1l0.2,0.1l0.2,0.1l0.2,0.1l0.2,0.1l0.2,0.1l0.2,0.1l0.2,0.1l0.2,0l0.2,0l0.2,0l0.2,0l0.2,0
		l0.2,0l0.1,0l0.1,0l0.1,0l0.1,0h0.1h0.1l0.1,0l0.1,0l0.1,0l0.1,0l0.1,0l0.1,0l0.1,0l0.1,0l0.1,0l0.1,0l0.1,0l0.1,0l0.1,0l0.1,0l0,0
		l0,0l0,0l0,0l0,0l0,0l0,0l0,0l0,0l0,0l0,0l0,0l0,0l0,0l0,0l0,0l0,0l0,0l0,0l0,0l0,0l0,0l0-0.1l0-0.1l0-0.1l0-0.1l0-0.1l0-0.1l0-0.1
		l0-0.1l0-0.1l0-0.1l0-0.1l0-0.1l0-0.1l0-0.1l0-0.1l0-0.1l0-0.1l0-0.1l0-0.1l0-0.2l0-0.2l0-0.2l0-0.2l0-0.2l0-0.2l0-0.2l0-0.2l0-0.4
		l0-0.4l0-0.4L67.7,102.8z"/>
	<rect x="57.2" y="105.1" class="st3" width="13.2" height="22"/>
	<path class="st2" d="M67.4,121.2l-2-4.9l-0.4-0.8l-0.4-0.8l-0.4-0.7l-0.4-0.7l-0.4-0.7l-0.4-0.7l-0.4-0.6l-0.4-0.6l-0.5-0.6
		l-0.5-0.6l-0.5-0.6l-0.5-0.6l-0.5-0.6l-0.5-0.6l-0.5-0.5l-0.5-0.5l-0.6-0.5l-0.6-0.5l0.6,5.2l0.5,3.8l0.1,0.9l0.1,0.5l0.1,0.5
		l0.1,0.5l0.1,0.5l0.1,0.5l0.1,0.5l0.1,0.4l0.1,0.4l0.1,0.4l0.1,0.4l0.2,0.3l0.2,0.3l0.2,0.3l0.2,0.3l0.2,0.3l0.2,0.3l0.2,0.3
		l0.2,0.3l0.2,0.3l0.2,0.3l0.1,0.1l0.1,0.1l0.1,0.1l0.1,0.1l0.2,0.2l0.2,0.2l0.2,0.2l0.2,0.2l0.2,0.2l0.2,0.2l0.2,0.2l0.2,0.2
		l0.2,0.2l0.2,0.2l0.3,0.2l0.3,0.1l0.3,0.1l0.3,0.1l0.3,0.1l0.3,0.1l0.3,0.1l0.3,0.1l0.3,0.1l0.3,0.1l0.3,0.1l0.3,0.1l0.3,0.1
		l0.3,0.1l0.3,0.1l0.3,0.1l0.3,0.1l0.3,0.1l0.6,0.1l0.6,0.1l-1.5-2.9l-0.7-1.5l-0.3-0.7L67.4,121.2z"/>
	<path class="st2" d="M69.7,140.1l-0.2-0.9l-0.5-1.7l-0.5-1.7l-0.3-0.8l-0.3-0.8l-0.3-0.8l-0.2-0.4l-0.2-0.4l-0.2-0.4l-0.2-0.4
		l-0.2-0.4l-0.2-0.4l-0.2-0.4l-0.3-0.4l-0.3-0.4l-0.3-0.4l-0.3-0.4l-0.3-0.4l-0.3-0.4l-0.3-0.4l-0.3-0.4l-0.3-0.3l-0.3-0.3l-0.3-0.3
		l-0.4-0.3l-0.4-0.3l-0.4-0.3l-0.4-0.3l0.5,1.3l0.5,1.3l0.5,1.3l0.4,1.3l0.4,1.3l0.4,1.4l0.3,1.4l0.3,1.4l0.2,1.4l0.2,1.4l0.1,1.4
		l0.1,1.4l0,1.4l0,0.7l0,0.7l0,0.7l0,0.7l0,0.7l-0.1,0.7l-0.1,0.7l-0.1,0.7l-0.1,0.7l-0.1,0.7l-0.1,0.7l-0.1,0.7l-0.3,1.4l-0.4,1.4
		l-0.4,1.4l-0.5,1.4l-0.5,1.3l0.6-0.3l0.6-0.3l0.6-0.4l0.5-0.4l0.5-0.4l0.5-0.4L66,156l0.3-0.2l0.2-0.2l0.2-0.2l0.2-0.2l0.2-0.2
		l0.2-0.2l0.2-0.2l0.2-0.2l0.2-0.2l0.2-0.2l0.2-0.3l0.2-0.3l0.2-0.3l0.2-0.3l0.2-0.3l0.2-0.3l0.1-0.3l0.1-0.3l0.1-0.3l0.1-0.2
		l0.1-0.2l0.1-0.2l0.1-0.2l0.1-0.2l0.1-0.2l0.1-0.2l0.1-0.2l0.1-0.2l0-0.2l0-0.2l0-0.2l0-0.2l0-0.2l0.1-0.4l0-0.4l0-0.4l0-0.4l0-0.4
		l0-0.4l0-0.4l0-0.4l0-0.4l-0.1-0.4l-0.1-0.4l-0.2-0.9l-0.2-0.9l-0.2-0.9L69.7,140.1z"/>
	<path class="st2" d="M77.3,134.4l-0.2-0.2l-0.2-0.2l-0.2-0.2l-0.2-0.2l-0.2-0.2l-0.2-0.2l-0.2-0.2l-0.2-0.2l-0.2-0.2l-0.2-0.2
		l-0.3-0.2l-0.4-0.3l-0.4-0.3l-0.4-0.3l-0.4-0.2l-0.4-0.2l-0.4-0.2l-0.4-0.2l-0.4-0.2l-0.4-0.2l-0.4-0.2l-0.4-0.2l-0.4-0.1l-0.5-0.1
		l-0.5-0.1l-0.5-0.1l-0.5-0.1l1.8,3.4l0.7,1.5l0.6,1.4l0.3,0.7l0.3,0.7l0.2,0.6l0.2,0.6l0.2,0.6l0.2,0.6l0.2,0.6l0.2,0.7l0.2,0.7
		l0.1,0.7l0.1,0.8l0.1,0.8l0.1,0.8l0.1,0.8l0,0.8l0,0.8l0,0.8l0,0.8l0,0.8l0,0.8l-0.1,0.8l-0.1,0.8l-0.1,0.8l-0.1,0.8l0.3-0.2
		l0.3-0.2l0.3-0.2l0.3-0.2l0.3-0.2l0.3-0.2l0.3-0.2l0.3-0.2l0.3-0.2l0.3-0.2l0.3-0.2l0.2-0.2l0.2-0.3l0.2-0.3l0.2-0.3l0.2-0.3
		l0.2-0.3l0.2-0.3l0.2-0.3l0.2-0.3l0.2-0.3l0.2-0.3l0.2-0.3l0.2-0.3l0.2-0.3L79,147l0.1-0.3l0.1-0.3l0.1-0.3l0.1-0.3l0.1-0.3
		l0.1-0.3l0.1-0.3l0.1-0.3l0.1-0.3l0.1-0.3l0.1-0.3l0.1-0.3l0-0.3l0-0.3l0-0.3l0-0.3l0-0.3l0-0.3l0-0.3l0-0.3l0-0.3l-0.1-0.3
		l-0.1-0.3l-0.1-0.3l-0.1-0.3l-0.1-0.3l-0.1-0.3l-0.1-0.3l-0.1-0.3l-0.1-0.3l-0.1-0.3l-0.1-0.3l-0.1-0.3l-0.1-0.3l-0.2-0.3l-0.2-0.3
		l-0.2-0.3l-0.2-0.3l-0.2-0.3l-0.2-0.2l-0.2-0.2l-0.2-0.2L77.3,134.4z"/>
	<path class="st2" d="M72.8,119.4l-0.1-0.5l-0.1-0.5l-0.1-0.5l-0.1-0.5l-0.1-0.5l-0.1-0.5l-0.1-0.5l-0.1-0.5l-0.2-0.5l-0.2-0.5
		l-0.2-0.5l-0.2-0.5l-0.2-0.5l-0.2-0.5l-0.1-0.2l-0.1-0.2l-0.1-0.2l-0.1-0.2l-0.1-0.2l-0.2-0.2l-0.2-0.3l-0.1-0.1l-0.1-0.1l-0.1-0.1
		l-0.1-0.1l-0.1-0.1l-0.1-0.1l0,0l0,0l0,0l0,0l0,0l0,0l0,0l0,0l-0.1,0l0,0l0,0l0,0l0,0l0,0l0,0l0,0l0,0l0,0l0,0l0,0l0,0l0,0l0,0l0,0
		l0,0l0,0l0,0l0,0l0,0l0,0l0,0h0l0,0l0,0h0h0h0h0h0l0,0l0,0l0,0l0,0l0,0l0,0l0,0l0,0l0,0l0,0l0,0l0,0l0,0l0,0l0,0l0,0l0,0l0,0l0,0
		l0,0l0,0l0,0l0,0l-0.1,0l-0.1,0.1l-0.1,0.1l-0.1,0.1l-0.1,0.1l-0.1,0.1l-0.1,0.1l-0.1,0.1l-0.1,0.1l-0.1,0.1l-0.1,0.1l-0.1,0.1
		l-0.1,0.1l0,0.1l0,0.1l0,0.1l-0.1,0.1l-0.1,0.1l-0.1,0.1l0,0.1l0,0.1l0,0.1l0,0.1l0,0.1l0,0.1l0,0.1l0,0.1l0,0.1l0,0.1l0,0.1l0,0.1
		l0,0.1l0,0.1l0,0.1v0.1l0,0.1l0,0.1l0,0.1l0,0.1l0,0.1l0,0.1l0,0.1l0,0.1l0,0.1l0,0.1l0,0.1l0.1,0.2l0.1,0.2l0.1,0.2l0.1,0.2
		l0.1,0.3l0.1,0.3l0.1,0.3l0.2,0.5l0.3,0.5l0.3,0.5l2.6,4.4l0.3,0.6l0.3,0.6l0.3,0.6l0.3,0.6l0.3,0.6l0.1,0.3l0.1,0.3l0.1,0.3
		l0.1,0.3l0.1,0.3l0.1,0.3l0.1,0.3l0.1,0.3l0.1,0.3l0,0.3l0.1-1.1l0.1-1.1l0.1-1.1l0.1-1.1l0-1.1l0-0.5l0-0.5l0-0.5l0-0.5
		L72.8,119.4z"/>
	<path class="st2" d="M84.4,131l-0.7-0.7l-2.7-2.9l-1-1.1l-0.5-0.6l-0.5-0.6l-0.3-0.4l-0.3-0.5l-0.3-0.5l-0.3-0.5l-0.6-1l-0.6-1
		l-0.1,0.2l-0.1,0.2l-0.1,0.2l-0.1,0.2l-0.1,0.2l-0.1,0.2l-0.1,0.2L76,123l-0.1,0.2l-0.1,0.2l-0.1,0.2l-0.1,0.2l0,0.2l0,0.2l0,0.2
		l0,0.2l0,0.2l0,0.2l0,0.2l0,0.2l0,0.2v0.2v0.2l0,0.2l0,0.2l0,0.2l0,0.2l0,0.2l0,0.2l0,0.2l0.1,0.3l0.1,0.3l0.1,0.3l0.1,0.3l0.1,0.3
		l0.1,0.3l0.1,0.3l0.1,0.3l0.1,0.3l0.1,0.2l0.1,0.2l0.2,0.3l0.2,0.3l0.2,0.3l0.2,0.3l0.2,0.3l0.4,0.6l2.2,2.9l0.4,0.5l0.8,1.1
		l0.7,1.1l0.7,1.2l2.7,4.7l0.3-0.4l0.2-0.4l0.2-0.4l0.2-0.5l0.1-0.2l0.1-0.2l0.1-0.2l0.1-0.2l0.1-0.2l0.1-0.2L87,140l0.1-0.2
		l0.1-0.2l0.1-0.2l0.1-0.2l0-0.2l0-0.2l0-0.2l0-0.2l0-0.2l0-0.2l0-0.2l0-0.2l0-0.2l0-0.2l0-0.1l0-0.1l0-0.1l0-0.1l0-0.1l0-0.1l0-0.1
		l0-0.1l0-0.1l0-0.1l-0.1-0.2L87,135l-0.1-0.2l-0.1-0.2l-0.1-0.2l-0.1-0.2l-0.1-0.2l-0.1-0.2l-0.1-0.2l-0.1-0.2l-0.1-0.2l-0.1-0.2
		l-0.1-0.2l-0.1-0.2l-0.3-0.4l-0.3-0.4l-0.3-0.4L84.4,131z"/>
	<path class="st2" d="M88.3,145.5l-0.2,0.1l-0.2,0.1l-0.2,0.1l-0.2,0.1l-0.2,0.1l-0.2,0.1l-0.2,0.1l-0.2,0.1l-0.2,0.1l-0.2,0.1
		l-0.4,0.1l-0.4,0.1l-0.4,0.1l-0.4,0.1l-0.4,0.1l-0.4,0.1l-0.2,0.5l-0.3,0.5l-0.3,0.5l-0.3,0.5l-0.3,0.5l-0.3,0.5l-0.3,0.5l-0.3,0.5
		l-0.4,0.5l-0.4,0.5l-0.4,0.5l-0.4,0.4l-0.4,0.4l-0.2,0.2l-0.2,0.2l-0.2,0.2l-0.2,0.2l-0.2,0.2l-0.2,0.2L78,155l-0.3,0.2l-0.3,0.2
		l-0.3,0.2l-0.3,0.2l-0.3,0.2l-0.3,0.2l-0.3,0.2l-0.6,0.3l-0.6,0.3l-0.6,0.3l-0.6,0.3l-0.6,0.2l-0.6,0.2l-0.6,0.2l-0.6,0.2l-0.6,0.2
		l-0.6,0.1l-0.6,0.1l-0.6,0.1l0.5,0.6l0.5,0.6l0.6,0.6l0.6,0.6l0.6,0.6l0.6,0.5l0.6,0.5l0.3,0.3l0.3,0.2l0.3,0.2l0.3,0.2l0.3,0.2
		l0.3,0.2l0.3,0.2l0.4,0.2l0.4,0.2l0.4,0.2l0.4,0.2l0.4,0.2l0.4,0.2l0.4,0.2l0.4,0.2l0.4,0.1l0.4,0.1l0.4,0.1l0.5,0.1l0.5,0.1
		l0.5,0.1l0.5,0.1l0.5,0.1l0.5,0.1l0.5,0.1l0.5,0.1l0.5,0l0.5,0l0.5,0l0.5,0l0.5,0l0.5,0l0.5,0l0.5,0c3.3,3.3,7.7,5.1,12.3,5.1
		c4.6,0,9-1.8,12.3-5.1l0.5,0l0.5,0l0.5,0l0.5,0l0.5,0l0.5,0l0.5,0l0.5,0l0.5-0.1l0.5-0.1l0.5-0.1l0.5-0.1l0.5-0.1l0.5-0.1l0.5-0.1
		l0.5-0.1l0.4-0.1l0.4-0.1l0.4-0.1l0.4-0.2l0.4-0.2l0.4-0.2l0.4-0.2l0.4-0.2l0.4-0.2l0.4-0.2l0.4-0.2l0.3-0.2l0.3-0.2l0.3-0.2
		l0.3-0.2l0.3-0.2l0.3-0.2l0.3-0.3l0.6-0.5l0.6-0.5l0.6-0.6l0.6-0.6l0.6-0.6l0.5-0.6l0.5-0.6l-0.6-0.1l-0.6-0.1l-0.6-0.1l-0.6-0.2
		l-0.6-0.2l-0.6-0.2l-0.6-0.2l-0.6-0.2l-0.6-0.3l-0.6-0.3l-0.6-0.3l-0.6-0.3l-0.3-0.2l-0.3-0.2l-0.3-0.2l-0.3-0.2l-0.3-0.2l-0.3-0.2
		L122,155l-0.2-0.2l-0.2-0.2l-0.2-0.2l-0.2-0.2l-0.2-0.2l-0.2-0.2l-0.2-0.2l-0.4-0.4l-0.4-0.4l-0.4-0.5l-0.4-0.5l-0.4-0.5l-0.3-0.5
		l-0.3-0.5l-0.3-0.5l-0.3-0.5l-0.3-0.5l-0.3-0.5l-0.3-0.5l-0.2-0.5l-0.4-0.1l-0.4-0.1l-0.4-0.1l-0.4-0.1l-0.4-0.1l-0.4-0.1l-0.2-0.1
		l-0.2-0.1l-0.2-0.1l-0.2-0.1l-0.2-0.1l-0.2-0.1l-0.2-0.1l-0.2-0.1l-0.2-0.1l-0.2-0.1l-0.2-0.1l-0.2-0.1l-0.2-0.1L111,145l-0.2-0.1
		l-0.2-0.1l-0.2-0.1l-0.2-0.1l-0.2-0.1l-0.1-0.2l-0.1-0.1l-0.1-0.2l-0.1-0.2l-0.1-0.2l-0.1-0.2l-0.1-0.2l-0.1-0.2l-0.1-0.2l-0.1-0.2
		l-0.1-0.2l-0.1-0.2l-0.1-0.2l-0.1-0.2l-0.1-0.2l-0.2-0.4l-0.2-0.4l-0.2-0.4l-0.1-0.4l-0.1-0.4l-0.1-0.4l-0.1-0.4l-0.1-0.4l-0.1-0.4
		c-1.7,1.2-3.6,2.4-5.4,3.5l-1.8,1l-1.8-1c-1.9-1.1-3.7-2.2-5.4-3.5l-0.1,0.4l-0.1,0.4l-0.1,0.4l-0.1,0.4l-0.1,0.4l-0.1,0.4
		l-0.2,0.4l-0.2,0.4l-0.2,0.4l-0.1,0.2l-0.1,0.2l-0.1,0.2l-0.1,0.2l-0.1,0.2l-0.1,0.2l-0.1,0.2l-0.1,0.2l-0.1,0.2l-0.1,0.2l-0.1,0.2
		l-0.1,0.2l-0.1,0.2l-0.1,0.1l-0.2,0.2l-0.2,0.1l-0.2,0.1l-0.2,0.1l-0.2,0.1L89,145l-0.2,0.1l-0.2,0.1l-0.2,0.1L88.3,145.5z
		 M88.3,145.5L88.3,145.5z M89.1,162.4c0.9-5.4,3.2-10.6,6.5-15C96.4,153.1,93.9,158.9,89.1,162.4z M89.1,162.4L89.1,162.4z
		 M100,153L100,153L100,153L100,153L100,153l0.1,0.1l0,0l0,0l0,0.1l0,0.1l0,0.1l0,0.1l0,0.1l0,0.1l0,0.1l0,0.1l0,0.1l0,0.1l0,0.1
		l0.1,0.2l0.1,0.2l0.1,0.2l0.1,0.2l0.1,0.2l0.1,0.2l0.1,0.2l0.1,0.5l0.1,0.5l0.1,0.5l0.1,0.5l0.1,0.6l0,0.6l0,0.6l0,0.6l0,0.6l0,0.6
		l0,0.6l0,0.6l0,0.6l-0.1,0.5l-0.1,0.5l-0.1,0.5l-0.1,0.5l-0.1,0.5l-0.1,0.2l-0.1,0.2l-0.1,0.2l-0.1,0.2l-0.1,0.2l-0.1,0.2l-0.1,0.2
		l0,0.1l0,0.1l0,0.1l0,0.1l0,0.1l0,0.1l0,0.1l0,0.1l0,0.1l0,0.1l0,0.1l0,0l0,0l0,0l0,0l0,0l0,0l0,0l0,0l0,0l0,0l0,0l0,0l0-0.1l0-0.1
		l0-0.1l0-0.1l0-0.1l0-0.1l0-0.1l0-0.1l0-0.1l0-0.1l0-0.1l-0.1-0.2l-0.1-0.2l-0.1-0.2l-0.1-0.2l-0.1-0.2l-0.1-0.2l-0.1-0.2l-0.1-0.5
		l-0.1-0.5l-0.1-0.5l-0.1-0.5l-0.1-0.5l0-0.6l0-0.6l0-0.6l0-0.6l0-0.6l0-0.6l0-0.6l0-0.6l0.1-0.6l0.1-0.5l0.1-0.5l0.1-0.5l0.1-0.5
		l0.1-0.2l0.1-0.2l0.1-0.2l0.1-0.2l0.1-0.2l0.1-0.2l0.1-0.2l0-0.1l0-0.1l0-0.1l0-0.1l0-0.1l0-0.1l0-0.1l0-0.1l0-0.1l0-0.1l0-0.1l0,0
		L100,153L100,153L100,153L100,153z M100,153L100,153z M110.9,162.4c-4.7-3.4-7.2-9.2-6.5-15C107.7,151.8,109.9,156.9,110.9,162.4z"
		/>
	<rect x="119.7" y="129.1" class="st3" width="12.5" height="24.3"/>
	<path class="st2" d="M120.1,138.9l-0.1,0.3l-0.1,0.3l-0.1,0.3l-0.1,0.3l0,0.3l0,0.3l0,0.3l0,0.3l0,0.3l0,0.3l0,0.3l0,0.3l0,0.3
		l0,0.3l0.1,0.3l0.1,0.3l0.1,0.3l0.1,0.3l0.1,0.3l0.1,0.3l0.1,0.3l0.1,0.3l0.1,0.3l0.1,0.3l0.1,0.3l0.1,0.3l0.1,0.3l0.2,0.3l0.2,0.3
		l0.2,0.3l0.2,0.3l0.2,0.3l0.2,0.3l0.2,0.3l0.2,0.3l0.2,0.3l0.2,0.3l0.2,0.3l0.2,0.3l0.2,0.3l0.2,0.2l0.3,0.2l0.3,0.2l0.3,0.2
		l0.3,0.2l0.3,0.2l0.3,0.2l0.3,0.2l0.3,0.2l0.3,0.2l0.3,0.2l0.3,0.2l-0.1-0.8l-0.1-0.8l-0.1-0.8l-0.1-0.8l0-0.8l0-0.8l0-0.8l0-0.8
		l0-0.8l0-0.8l0.1-0.8l0.1-0.8l0.1-0.8l0.1-0.8l0.1-0.7l0.2-0.7l0.2-0.7l0.2-0.6l0.2-0.6l0.2-0.6l0.2-0.6l0.2-0.6l0.3-0.7l0.3-0.7
		l0.6-1.4l0.7-1.5l1.8-3.4l-0.5,0.1l-0.5,0.1l-0.5,0.1l-0.5,0.1l-0.4,0.1l-0.4,0.2l-0.4,0.2l-0.4,0.2l-0.4,0.2l-0.4,0.2l-0.4,0.2
		l-0.4,0.2l-0.4,0.2l-0.4,0.3l-0.4,0.3l-0.4,0.3l-0.2,0.2l-0.2,0.2l-0.2,0.2l-0.2,0.2l-0.2,0.2l-0.2,0.2l-0.2,0.2l-0.2,0.2l-0.2,0.2
		l-0.2,0.2l-0.2,0.2l-0.2,0.2l-0.2,0.2l-0.2,0.2l-0.2,0.2l-0.2,0.3l-0.2,0.3l-0.2,0.3l-0.2,0.3l-0.2,0.3l-0.1,0.3l-0.1,0.3l-0.1,0.3
		l-0.1,0.3l-0.1,0.3l-0.1,0.3l-0.1,0.3L120.1,138.9z"/>
	<rect x="112.6" y="121.4" class="st3" width="11.9" height="22"/>
	<path class="st2" d="M114.2,132.7l-0.1,0.2l-0.1,0.2l-0.1,0.2l-0.1,0.2l-0.1,0.2l-0.1,0.2l-0.1,0.2l-0.1,0.2l-0.1,0.2l-0.1,0.2
		L113,135l-0.1,0.2l-0.1,0.2l0,0.1l0,0.1l0,0.1l0,0.1l0,0.1l0,0.1l0,0.1l0,0.1l0,0.1l0,0.1l0,0.2l0,0.2v0.2l0,0.2l0,0.2l0,0.2l0,0.2
		l0,0.2l0,0.2l0,0.2l0.1,0.2l0.1,0.2l0.1,0.2l0.1,0.2l0.1,0.2l0.1,0.2l0.1,0.2l0.1,0.2l0.1,0.2l0.1,0.2l0.1,0.2l0.2,0.5l0.2,0.4
		l0.2,0.4l0.3,0.4l2.7-4.7l0.7-1.2l0.7-1.1l0.8-1.1l0.4-0.5l2.2-2.9l0.4-0.6l0.2-0.3l0.2-0.3l0.2-0.3l0.2-0.3l0.2-0.3l0.1-0.2
		l0.1-0.2l0.1-0.3l0.1-0.3l0.1-0.3l0.1-0.3l0.1-0.3l0.1-0.3l0.1-0.3l0.1-0.3l0.1-0.3l0-0.2l0-0.2l0-0.2l0-0.2l0-0.2l0-0.2l0-0.2
		l0-0.2l0-0.2l0-0.2l0-0.2l0-0.2l0-0.2l0-0.2l0-0.2l0-0.2l0-0.2l0-0.2l-0.1-0.2l-0.1-0.2l-0.1-0.2L124,123l-0.1-0.2l-0.1-0.2
		l-0.1-0.2l-0.1-0.2l-0.1-0.2l-0.1-0.2l-0.1-0.2l-0.1-0.2l-0.6,1l-0.6,1l-0.3,0.5l-0.3,0.5l-0.3,0.5l-0.3,0.4l-0.5,0.6l-0.5,0.6
		l-1,1.1l-2.7,2.9l-0.7,0.7l-0.3,0.4l-0.3,0.4l-0.3,0.4l-0.3,0.4L114.2,132.7z"/>
	<path class="st2" d="M130.6,139.3l-0.2,0.9l-0.2,0.9l-0.2,0.9l-0.2,0.9l-0.2,0.9l-0.1,0.4l-0.1,0.4l0,0.4l0,0.4l0,0.4l0,0.4v0.4
		l0,0.4l0,0.4l0,0.4l0.1,0.4l0,0.2l0,0.2l0,0.2l0,0.2l0,0.2l0.1,0.2l0.1,0.2l0.1,0.2l0.1,0.2l0.1,0.2l0.1,0.2l0.1,0.2l0.1,0.2
		l0.1,0.2l0.1,0.3l0.1,0.3l0.1,0.3l0.2,0.3l0.2,0.3l0.2,0.3l0.2,0.3l0.2,0.3l0.2,0.3l0.2,0.2l0.2,0.2l0.2,0.2l0.2,0.2l0.2,0.2
		l0.2,0.2l0.2,0.2l0.2,0.2l0.2,0.2l0.3,0.2l0.3,0.2l0.5,0.4l0.5,0.4l0.5,0.4l0.6,0.4l0.6,0.3l0.6,0.3l-0.5-1.3l-0.5-1.4l-0.4-1.4
		l-0.4-1.4l-0.3-1.4l-0.1-0.7l-0.1-0.7l-0.1-0.7l-0.1-0.7l-0.1-0.7l-0.1-0.7l-0.1-0.7l0-0.7l0-0.7l0-0.7l0-0.7l0-0.7l0-1.4l0.1-1.4
		l0.1-1.4l0.2-1.4l0.2-1.4l0.3-1.4l0.3-1.4l0.4-1.4l0.4-1.3l0.4-1.3l0.5-1.3l0.5-1.3l0.5-1.3l-0.4,0.3l-0.4,0.3l-0.4,0.3l-0.4,0.3
		l-0.3,0.3l-0.3,0.3l-0.3,0.3l-0.3,0.4l-0.3,0.4l-0.3,0.4l-0.3,0.4l-0.3,0.4l-0.3,0.4l-0.3,0.4l-0.3,0.4l-0.2,0.4l-0.2,0.4l-0.2,0.4
		l-0.2,0.4l-0.2,0.4l-0.2,0.4l-0.2,0.4l-0.3,0.8l-0.3,0.8l-0.3,0.8l-0.5,1.7L130.6,139.3z"/>
	<path class="st2" d="M134.5,116.4l-2,4.9l-0.3,0.7l-0.3,0.7l-0.7,1.5l-1.5,2.9l0.6-0.1l0.6-0.1l0.3-0.1l0.3-0.1l0.3-0.1l0.3-0.1
		l0.3-0.1l0.3-0.1l0.3-0.1l0.3-0.1l0.3-0.1l0.3-0.1l0.3-0.1l0.3-0.1l0.3-0.1l0.3-0.1l0.3-0.1l0.3-0.1l0.3-0.1l0.3-0.2l0.2-0.2
		l0.2-0.2l0.2-0.2l0.2-0.2l0.2-0.2l0.2-0.2l0.2-0.2l0.2-0.2l0.2-0.2l0.2-0.2l0.1-0.1l0.1-0.1l0.1-0.1l0.1-0.1l0.2-0.3l0.2-0.3
		l0.2-0.3l0.2-0.3l0.2-0.3l0.2-0.3l0.2-0.3l0.2-0.3l0.2-0.3l0.2-0.3l0.1-0.4l0.1-0.4l0.1-0.4l0.1-0.4l0.1-0.5l0.1-0.5l0.1-0.5
		l0.1-0.5l0.1-0.5l0.1-0.5l0.1-0.9l0.4-3.8l0.6-5.2l-0.6,0.5l-0.6,0.5l-0.5,0.5l-0.5,0.5l-0.5,0.6l-0.5,0.6l-0.5,0.6l-0.5,0.6
		l-0.5,0.6l-0.5,0.6l-0.4,0.6l-0.4,0.6l-0.4,0.7l-0.4,0.7l-0.4,0.7l-0.4,0.7l-0.4,0.8L134.5,116.4z"/>
	<rect x="127.1" y="109.1" class="st3" width="6.9" height="18.5"/>
	<path class="st2" d="M127.5,117.2l-0.1,0.5l-0.1,0.5l-0.1,0.5l-0.1,0.5l0,0.5l0,0.5l0,0.5l0,0.5l0,0.5l0,1.1l0.1,1.1l0.1,1.1
		l0.1,1.1l0.1,1.1l0-0.3l0.1-0.3l0.1-0.3l0.1-0.3l0.1-0.3l0.1-0.3l0.1-0.3l0.1-0.3l0.1-0.3l0.1-0.3l0.3-0.6l0.3-0.6l0.3-0.6l0.3-0.6
		l0.3-0.6l2.6-4.4l0.3-0.5l0.3-0.5l0.2-0.5l0.1-0.3l0.1-0.3l0.1-0.3l0.1-0.2l0.1-0.2l0.1-0.2l0.1-0.2l0-0.1l0-0.1l0-0.1l0-0.1l0-0.1
		l0-0.1l0-0.1l0-0.1l0-0.1l0-0.1l0-0.1v-0.1l0-0.1l0-0.1l0-0.1l0-0.1l0-0.1l0-0.1l0-0.1l0-0.1l0-0.1l0-0.1l0-0.1l0-0.1l0-0.1l0-0.1
		l0-0.1l-0.1-0.1l-0.1-0.1l-0.1-0.1l0-0.1l0-0.1l0-0.1l-0.1-0.1l-0.1-0.1l-0.1-0.1l-0.1-0.1l-0.1-0.1l-0.1-0.1l-0.1-0.1l-0.1-0.1
		l-0.1-0.1l-0.1-0.1l-0.1-0.1l-0.1-0.1l-0.1,0l0,0l0,0l0,0l0,0l0,0l0,0l0,0l0,0l0,0l0,0l0,0l0,0l0,0l0,0l0,0l0,0l0,0l0,0l0,0l0,0
		l0,0l0,0l0,0h0h0h0h0h0l0,0l0,0h0l0,0l0,0l0,0l0,0l0,0l0,0l0,0l0,0l0,0l0,0l0,0l0,0l0,0l0,0l0,0l0,0l0,0l0,0l0,0l0,0l0,0l0,0l0,0
		l-0.1,0l0,0l0,0l0,0l0,0l0,0l0,0l0,0l-0.1,0.1l-0.1,0.1l-0.1,0.1l-0.1,0.1l-0.1,0.1l-0.1,0.1l-0.2,0.3l-0.2,0.2l-0.1,0.2l-0.1,0.2
		l-0.1,0.2l-0.1,0.2l-0.1,0.2l-0.2,0.5l-0.2,0.5l-0.2,0.5l-0.2,0.5l-0.2,0.5l-0.2,0.5l-0.1,0.5l-0.1,0.5l-0.1,0.5L127.5,117.2z"/>
	<rect x="131.7" y="82.8" class="st3" width="10.8" height="24.7"/>
	<path class="st2" d="M132.3,103.5l0,0.4l0,0.4l0,0.2l0,0.2l0,0.2l0,0.2l0,0.2l0,0.2l0,0.2l0,0.2l0,0.1l0,0.1l0,0.1l0,0.1l0,0.1
		l0,0.1l0,0.1l0,0.1l0,0.1l0,0.1l0,0.1l0,0.1l0,0.1l0,0.1l0,0.1l0,0.1l0,0.1l0,0.1l0,0.1l0,0l0,0l0,0l0,0l0,0l0,0l0,0l0,0l0,0l0,0
		l0,0l0,0l0,0l0,0l0,0l0,0l0,0l0,0l0,0l0,0l0,0l0,0l0.1,0l0.1,0l0.1,0l0.1,0l0.1,0l0.1,0l0.1,0l0.1,0l0.1,0l0.1,0l0.1,0l0.1,0l0.1,0
		l0.1,0h0.1h0.1l0.1,0l0.1,0l0.1,0l0.1,0l0.2,0l0.2,0l0.2,0l0.2,0l0.2,0l0.2,0l0.2-0.1l0.2-0.1l0.2-0.1l0.2-0.1l0.2-0.1l0.2-0.1
		l0.2-0.1l0.2-0.1l0.2-0.1l0.2-0.1l0.2-0.1l0.2-0.1l0.2-0.1l0.2-0.1l0.1-0.1l0.1-0.1l0.1-0.1l0.1-0.1l0.1-0.1l0.1-0.1l0.1-0.1
		l0.1-0.1l0.1-0.1l0.1-0.1l0.1-0.1l0.1-0.1l0.1-0.1l0.1-0.1l0.1-0.1l0.1-0.1l0.1-0.1l0.1-0.1l0.1-0.1l0.1-0.1l0.1-0.1l0.1-0.1
		l0.1-0.1l0.1-0.1l0.1-0.1l0.1-0.1l0.1-0.1l0.1-0.2l0.1-0.2l0.1-0.2l0.1-0.2l0.1-0.3l0.1-0.3l0.1-0.3l0.1-0.3l0.1-0.3l0.1-0.3l0-0.3
		l0-0.3l0-0.3l0-0.3l0-0.3l0-0.3l0-0.3l0-0.3l0-0.3l0-0.3l0-0.4l-0.1-0.4l-0.1-0.4l-0.1-0.4l-0.1-0.4l-0.1-0.4l-0.1-0.4l-0.1-0.4
		l-0.1-0.4l-0.1-0.4l-0.2-0.4l-0.2-0.4l-0.2-0.4l-0.2-0.4l-0.2-0.4l-0.2-0.4l-0.2-0.4l-0.2-0.4l-0.2-0.4l-0.2-0.4l-0.3-0.4l-0.3-0.3
		l-0.3-0.3l-0.3-0.3l-0.3-0.3l-0.3-0.3l-0.3-0.3l-0.3-0.3l-0.3-0.3l-0.3-0.3l-0.3-0.3l-0.3-0.3l-0.2-0.2l-0.2-0.2l-0.2-0.2l-0.2-0.1
		l-0.2-0.1l-0.2-0.1l-0.2-0.1l-0.2-0.1l-0.5-0.3l-0.5-0.2l-0.5-0.2l-0.5-0.2h-0.2l0.2,0.3l0.2,0.3l0.2,0.3l0.2,0.3l0.2,0.3l0.2,0.3
		l0.2,0.3l0.2,0.3l0.1,0.3l0.1,0.3l0.1,0.3l0.1,0.3l0.1,0.3l0.1,0.3l0.1,0.3l0.1,0.3l0,0.2l0,0.2l0,0.2l0,0.2l0,0.4l0,0.4l0,0.4
		l0,0.4l0,0.4l0,0.4l0,0.4l0,0.4l0,0.4l-0.1,0.4l-0.1,0.8l-0.2,0.8l-0.2,0.9l-0.8,3.6l-0.2,1l-0.1,0.5l-0.1,0.5l-0.1,0.5l-0.1,0.5
		l0,0.4l0,0.4l0,0.4L132.3,103.5z"/>
	<path class="st2" d="M119.6,104.1v13.4c-2.1,3-4.4,5.8-6.9,8.4v-24.8C115.1,101.9,117.4,102.9,119.6,104.1z M119.6,104.1
		L119.6,104.1z M105,99.4v33.3c-1.6,1.2-3.3,2.3-5,3.4c-1.7-1-3.4-2.2-5-3.4V99.4C98.3,99,101.7,99,105,99.4z M105,99.4L105,99.4z
		 M87.3,101.1v24.8c-2.5-2.6-4.8-5.4-6.9-8.4v-13.4C82.6,102.9,84.9,101.9,87.3,101.1z M87.3,101.1L87.3,101.1z M72,107.1
		c5.6,13.3,15.5,24.5,28,31.7c12.5-7.3,22.3-18.4,28-31.7C111.8,93.4,88.2,93.4,72,107.1z"/>
	<rect x="72" y="96.8" class="st3" width="55.9" height="42"/>
</g>
</svg>
