<?xml version="1.0" encoding="utf-8"?>
<!-- Generator: Adobe Illustrator 21.1.0, SVG Export Plug-In . SVG Version: 6.00 Build 0)  -->
<svg version="1.1" id="Layer_1" xmlns="http://www.w3.org/2000/svg" xmlns:xlink="http://www.w3.org/1999/xlink" x="0px" y="0px"
	 viewBox="0 0 200 200" style="enable-background:new 0 0 200 200;" xml:space="preserve">
<style type="text/css">
	.st0{fill:#FF0000;}
	.st1{fill:#FFFFFF;}
	.st2{fill:#FFE600;}
	.st3{fill:#CC5C04;}
	.st4{fill:#EBB803;}
</style>
<g>
	<path class="st0" d="M100.5,199.9L100,200l-0.5-0.1c-23-6.5-41-17.6-53.6-31c-13.7-14.6-20.8-31.9-20.8-48.7V0h149.7v120.2
		c0,16.8-7.2,34.1-20.8,48.7C141.5,182.2,123.5,193.4,100.5,199.9L100.5,199.9z"/>
	<path class="st1" d="M100,198.1c47.3-13.4,73-46.5,73-77.9V1.8H27v118.4C27,151.6,52.7,184.7,100,198.1L100,198.1z"/>
	<polygon class="st2" points="171.2,33.9 171.2,3.7 28.8,3.7 28.8,33.9 	"/>
	<path class="st2" d="M100,196.2c22.1-6.3,39.4-17,51.4-29.8c13-13.9,19.8-30.3,19.8-46.1V35.7H28.8v84.5c0,15.9,6.8,32.3,19.8,46.1
		C60.6,179.2,77.9,189.8,100,196.2L100,196.2z"/>
	<polygon class="st0" points="100,35.7 120.9,78.8 168.8,85.2 133.8,118.2 142.5,165.3 100,142.6 57.5,165.3 66.2,118.2 31.2,85.2 
		79.1,78.8 	"/>
	<path class="st3" d="M100,72.7c9.6,0,18.3,3.9,24.6,10.2c6.3,6.3,10.2,15,10.2,24.6c0,9.6-3.9,18.3-10.2,24.6
		c-6.3,6.3-15,10.2-24.6,10.2c-9.6,0-18.3-3.9-24.6-10.2c-6.3-6.3-10.2-15-10.2-24.6c0-9.5,3.9-18.3,10.2-24.6
		C81.7,76.7,90.4,72.7,100,72.7L100,72.7z"/>
	<path class="st4" d="M119,80.6c-4-2.8-8.6-4.8-13.7-5.6c-6.7,2.2-12,6.6-15.8,11.9c-4.9,6.9-7.3,15.3-7,23.1
		c5.7,1.1,11.5,0.2,16.6-3c-0.2-7.1,2.4-13.3,7.1-18.2C109.5,85.4,113.9,82.6,119,80.6L119,80.6z"/>
	<path class="st4" d="M127.8,125.1c3.3-5.1,5.1-11.1,5.1-17.6c0-9-3.7-17.3-9.7-23.2c-0.8-0.8-1.6-1.6-2.5-2.3
		c-5.2,1.8-9.5,4.4-12.8,7.7c7,3.9,13.3,10.5,16.9,18.3C127.2,113.2,128.4,119,127.8,125.1L127.8,125.1z"/>
	<path class="st4" d="M113.8,137.5c3.5-1.6,6.7-3.9,9.5-6.6c0.8-0.8,1.5-1.6,2.2-2.5c1.4-6.9,0.3-13.7-2.4-19.6
		c-3.5-7.6-9.6-13.9-16.5-17.6c-3.8,4.4-5.9,9.8-5.7,15.8c6.3,3.4,10.4,8.7,12.3,15.3C114.5,126.8,114.7,132,113.8,137.5
		L113.8,137.5z"/>
	<path class="st4" d="M70.8,122.8c1.6,2.9,3.6,5.6,5.9,8c6,6,14.2,9.7,23.3,9.7c4.2,0,8.1-0.8,11.8-2.2c1-5.4,0.9-10.5-0.2-15
		c-6.9,4.2-15.7,6.3-24.3,5.5C81.5,128.2,75.8,126.4,70.8,122.8L70.8,122.8z"/>
	<path class="st4" d="M67.2,104.5c-0.1,1-0.1,2-0.1,3c0,4.1,0.8,8,2.1,11.7c5.3,4.7,11.7,7.1,18.2,7.8c8.4,0.8,17-1.4,23.6-5.5
		c-1.9-5.5-5.6-10.1-10.9-12.9c-6,3.8-12.7,4.6-19.4,2.9C76,110.4,71.5,108,67.2,104.5L67.2,104.5z"/>
	<path class="st4" d="M100,74.6c-9.1,0-17.3,3.7-23.3,9.7c-4.8,4.8-8.1,11.1-9.2,18.1c4.1,3.6,8.6,6,13.1,7.3
		c-0.1-8,2.4-16.7,7.4-23.8c3.4-4.7,7.8-8.7,13.3-11.2C100.9,74.6,100.5,74.6,100,74.6L100,74.6z"/>
	<path class="st0" d="M125,157.4c0.4,0,0.7,0.1,0.9,0.4c0.2,0.2,0.4,0.5,0.4,0.9c0,0.4-0.1,0.6-0.4,0.9c-0.2,0.2-0.5,0.4-0.9,0.4
		c-0.3,0-0.6-0.1-0.9-0.4c-0.2-0.3-0.4-0.5-0.4-0.9c0-0.3,0.1-0.6,0.4-0.9C124.4,157.5,124.7,157.4,125,157.4L125,157.4z"/>
	<path class="st0" d="M121.1,157.4c0.3,0,0.6,0.1,0.9,0.4c0.3,0.2,0.4,0.5,0.4,0.9c0,0.4-0.1,0.6-0.4,0.9c-0.2,0.2-0.5,0.4-0.9,0.4
		c-0.4,0-0.6-0.1-0.9-0.4c-0.2-0.3-0.3-0.5-0.3-0.9c0-0.3,0.1-0.6,0.3-0.9C120.5,157.5,120.8,157.4,121.1,157.4L121.1,157.4z"/>
	<polygon class="st0" points="119.6,160.8 126.6,160.8 126.6,163.2 122,163.2 122,165.6 126.6,165.6 126.6,167.9 122,167.9 
		122,171.3 126.6,171.3 126.6,173.7 119.6,173.7 	"/>
	<polygon class="st0" points="106.6,160.8 108.9,160.8 114.4,169.3 114.4,160.8 116.9,160.8 116.9,173.7 114.5,173.7 109,165.3 
		109,173.7 106.6,173.7 	"/>
	<polygon class="st0" points="97.5,160.8 99.9,160.8 104.9,173.7 102.3,173.7 101.3,171.1 96.1,171.1 95,173.7 92.5,173.7 	"/>
	<polygon class="st2" points="98.7,164.3 97,168.6 100.4,168.6 	"/>
	<path class="st0" d="M83.6,160.8h2.6c1.4,0,2.4,0.1,3,0.4c0.6,0.3,1.1,0.7,1.4,1.3c0.4,0.6,0.5,1.3,0.5,2.1c0,0.9-0.2,1.6-0.6,2.1
		c-0.4,0.6-1,1-1.8,1.3l3,5.7h-2.6l-2.9-5.5H86v5.5h-2.4V160.8L83.6,160.8z"/>
	<path class="st2" d="M86,165.9h0.8c0.8,0,1.3-0.1,1.6-0.3c0.3-0.2,0.4-0.5,0.4-1c0-0.3-0.1-0.5-0.2-0.7c-0.1-0.2-0.3-0.4-0.6-0.4
		c-0.3-0.1-0.7-0.2-1.3-0.2H86V165.9L86,165.9z"/>
	<polygon class="st0" points="78.4,160.8 80.8,160.8 80.8,173.7 78.4,173.7 	"/>
	<polygon class="st0" points="70,160.8 77.1,160.8 77.1,163.2 74.7,163.2 74.7,173.7 72.3,173.7 72.3,163.2 70,163.2 	"/>
	<polygon class="st0" points="103,178.7 104.7,178.7 104.7,184.2 105.4,184.2 105.4,185.7 104.7,185.7 104.7,187.5 103.1,187.5 
		103.1,185.7 99.3,185.7 99.3,184.2 	"/>
	<polygon class="st2" points="103.1,184.2 103.1,181.3 101.1,184.2 	"/>
	<path class="st0" d="M96,187.5h-1.8l1.7-3.4c-0.7,0-1.3-0.2-1.8-0.8c-0.5-0.5-0.8-1.2-0.8-1.9c0-0.7,0.3-1.4,0.8-1.9
		c0.5-0.5,1.1-0.8,1.9-0.8c0.8,0,1.4,0.3,1.9,0.8c0.5,0.5,0.8,1.2,0.8,1.9c0,0.3,0,0.5-0.1,0.8c-0.1,0.3-0.3,0.7-0.6,1.2L96,187.5
		L96,187.5z"/>
	<path class="st2" d="M96.1,182.5c0.3,0,0.5-0.1,0.7-0.3c0.2-0.2,0.3-0.5,0.3-0.8c0-0.3-0.1-0.6-0.3-0.8c-0.2-0.2-0.5-0.3-0.8-0.3
		c-0.3,0-0.6,0.1-0.8,0.3c-0.2,0.2-0.3,0.5-0.3,0.8c0,0.3,0.1,0.6,0.3,0.8C95.5,182.4,95.7,182.5,96.1,182.5L96.1,182.5z"/>
	<polygon class="st0" points="89.2,178.7 91.7,178.7 91.7,187.5 90.1,187.5 90.1,180.2 88.3,180.2 	"/>
	<path class="st0" d="M109.1,178.7h1.7l-1.7,3.4c0.7,0,1.3,0.2,1.8,0.8c0.5,0.5,0.8,1.2,0.8,1.9c0,0.7-0.3,1.4-0.8,1.9
		c-0.5,0.5-1.2,0.8-1.9,0.8c-0.8,0-1.4-0.3-1.9-0.8c-0.5-0.5-0.8-1.2-0.8-1.9c0-0.3,0-0.5,0.1-0.8c0.1-0.3,0.3-0.7,0.5-1.2
		L109.1,178.7L109.1,178.7z"/>
	<path class="st2" d="M109,183.7c-0.3,0-0.6,0.1-0.8,0.3c-0.2,0.2-0.3,0.5-0.3,0.8c0,0.3,0.1,0.6,0.3,0.8c0.2,0.2,0.5,0.3,0.7,0.3
		c0.3,0,0.6-0.1,0.8-0.3c0.2-0.2,0.3-0.5,0.3-0.8c0-0.3-0.1-0.6-0.3-0.8C109.6,183.8,109.4,183.7,109,183.7L109,183.7z"/>
	<polygon class="st0" points="164.7,7.7 168.4,7.7 168.4,29.9 164.7,29.9 	"/>
	<polygon class="st0" points="148.2,7.7 151.8,7.7 160.2,22.3 160.2,7.7 163.9,7.7 163.9,29.9 160.3,29.9 152,15.3 152,29.9 
		148.2,29.9 	"/>
	<polygon class="st0" points="136.6,7.7 140.4,7.7 147.9,29.9 144,29.9 142.5,25.3 134.6,25.3 133,29.9 129.1,29.9 	"/>
	<polygon class="st0" points="117.2,7.7 129.3,7.7 122.3,25.9 128.8,25.9 128.8,29.9 116.9,29.9 123.9,11.9 117.2,11.9 	"/>
	<polygon class="st0" points="112.8,7.7 116.5,7.7 116.5,29.9 112.8,29.9 	"/>
	<polygon class="st0" points="101.6,7.6 112.4,7.6 112.4,11.8 108.8,11.8 108.8,29.9 105.1,29.9 105.1,11.8 101.6,11.8 	"/>
	<path class="st0" d="M89.6,7.7h4c2.1,0,3.7,0.2,4.6,0.7c0.9,0.4,1.6,1.2,2.2,2.2c0.6,1,0.8,2.2,0.8,3.6c0,1.4-0.3,2.7-0.9,3.7
		c-0.6,1-1.5,1.7-2.7,2.2l4.6,9.9h-4.1l-4.4-9.4h-0.3v9.4h-3.7V7.7L89.6,7.7z"/>
	<polygon class="st0" points="77.9,7.7 81.7,7.7 89.2,29.9 85.3,29.9 83.8,25.3 75.8,25.3 74.3,29.9 70.4,29.9 	"/>
	<path class="st0" d="M62.8,7.7h3.9c2.1,0,3.7,0.2,4.6,0.7c0.9,0.5,1.7,1.2,2.2,2.2c0.5,1,0.8,2.2,0.8,3.6c0,1.5-0.4,2.8-1.1,3.9
		c-0.7,1-1.7,1.7-2.9,2.1c-0.7,0.2-2,0.4-3.9,0.4v9.4h-3.7V7.7L62.8,7.7z"/>
	<polygon class="st0" points="42.2,7.7 46,7.7 46,15.3 51.3,7.7 55.7,7.7 48.9,17.6 56.4,29.9 52,29.9 46,20 46,29.9 42.2,29.9 	"/>
	<polygon class="st0" points="31.6,7.7 41.3,7.7 41.3,11.8 35.3,11.8 35.3,15.8 41.3,15.8 41.3,19.9 35.3,19.9 35.3,29.9 31.6,29.9 
			"/>
	<polygon class="st2" points="138.5,13.6 135.9,21.2 141.1,21.2 	"/>
	<path class="st2" d="M93.3,16.4h1.2c1.2,0,2-0.2,2.4-0.5c0.4-0.4,0.7-0.9,0.7-1.7c0-0.5-0.1-0.9-0.3-1.3c-0.2-0.4-0.5-0.6-0.9-0.8
		c-0.4-0.2-1-0.2-2-0.2h-1V16.4L93.3,16.4z"/>
	<polygon class="st2" points="79.8,13.6 77.2,21.2 82.4,21.2 	"/>
	<path class="st2" d="M66.5,16.4h1.2c0.9,0,1.6-0.1,1.9-0.2c0.3-0.2,0.6-0.4,0.8-0.8c0.2-0.3,0.3-0.7,0.3-1.2c0-0.9-0.3-1.5-0.9-1.9
		c-0.4-0.3-1.2-0.4-2.3-0.4h-1V16.4L66.5,16.4z"/>
</g>
</svg>
