<?xml version="1.0" encoding="utf-8"?>
<!-- Generator: Adobe Illustrator 21.1.0, SVG Export Plug-In . SVG Version: 6.00 Build 0)  -->
<svg version="1.1" id="Layer_1" xmlns="http://www.w3.org/2000/svg" xmlns:xlink="http://www.w3.org/1999/xlink" x="0px" y="0px"
	 viewBox="0 0 200 200" style="enable-background:new 0 0 200 200;" xml:space="preserve">
<style type="text/css">
	.st0{fill:#231F20;}
	.st1{fill:#FFFFFF;}
	.st2{fill:#006432;}
	.st3{fill:#F9A53A;}
	.st4{fill:#FFEC8F;}
	.st5{fill:#3B3E41;}
	.st6{fill:#FFE82C;}
	.st7{fill:#B2B5B7;}
	.st8{fill:#5B5F62;}
</style>
<g>
	<path class="st0" d="M152.3,161.1c22-27.8,24.6-60.4,21.2-92.4c-3.4-32-11.9-44.9-11.9-44.9c-9.9,1.7-16.8-2.9-26.8-8.9
		c-10-5.9-22.2-15-34.8-15h0C87.4,0,75.2,9.1,65.2,15c-10,5.9-16.9,10.5-26.8,8.9c0,0-8.5,12.9-11.9,44.9
		c-3.4,32-0.9,64.6,21.2,92.4C74.6,195,100,200,100,200S125.4,195,152.3,161.1z"/>
	<path class="st1" d="M64,17.2l1.9-1.1l5-3.1c8.9-5.5,19-11.7,29.1-11.7c10.2,0,20.2,6.2,29.1,11.7l5,3.1l1.9,1.1
		c8.7,5.2,15.6,9.3,24.9,8c1.7,3,8.4,16.4,11.3,43.7c0.8,7.7,1.2,15,1.2,21.8c0,9.2-0.7,17.7-2.3,25.6c-3.2,16.8-9.7,31.2-19.9,44
		l0,0c-13.7,17.3-27,26.8-35.7,31.7c-8.4,4.8-14.3,6.3-15.6,6.6c-1.2-0.3-7.1-1.8-15.6-6.6c-8.7-5-22-14.5-35.7-31.7
		c-10.2-12.8-16.7-27.2-19.9-44c-1.5-7.9-2.3-16.4-2.3-25.6c0-6.8,0.4-14.1,1.2-21.8c2.9-27.3,9.6-40.6,11.3-43.7
		C48.4,26.5,55.3,22.4,64,17.2z"/>
	<path class="st0" d="M95.5,84.6c-0.4,1.2-0.8,2.5-0.8,2.5c0.5-1.1,1.1-2.5,1.1-2.5c1.3-0.5,3.7-1.2,3.7-1.2
		c0.3-0.9,0.5-2.1,0.5-2.1c2.7-0.2,4.8,0.4,4.8,0.4c-1.5-0.7-3.2-1.1-4.9-1.1c-6.7,0-12,5.4-12,12c0,5.2,3.3,9.6,7.9,11.3
		c0,0-5.9-3.5-6.7-8.7c-0.7-4.5,0.9-9.1,4.6-11.8c0,0,0.6,0.4,0.9,0.6C95.1,84.3,95.5,84.6,95.5,84.6z"/>
	<path class="st2" d="M56.1,94.3l-26.2,4.7l-0.1,0c-0.1-2.7-0.2-5.5-0.2-8.3c0-6.7,0.4-13.9,1.2-21.5c2.5-23.2,7.7-36,10.1-40.8
		c9.2,0.6,16.1-3.5,24.7-8.6l1.9-1.1l5.1-3.1C81,10.3,90.7,4.3,100,4.3c9.3,0,19,6,27.6,11.3l5.1,3.1l1.9,1.1
		c8.6,5.1,15.5,9.2,24.7,8.6c2.3,4.8,7.6,17.6,10.1,40.8c0.2,1.7,0.3,3.3,0.5,4.9l-0.1,0L147.4,78l-0.1,0c0.3-0.8,0.5-1.5,0.6-2.3
		c0.4-2.3,0.1-3.8-0.7-3.8c-0.8-0.1-2.1,2-2.1,2s1.2-4.6,1.5-8.7c0.3-4.1,0-5.2-0.7-5.3c-0.7-0.2-1.3,1.3-2.8,5
		c-1.5,3.6-2.9,6.4-2.9,6.4c0.3-6.7-0.1-8.8-1-8.8c-0.9-0.1-1.6,3.2-3,8.4c-0.8,2.8-1.9,5.3-1.9,5.3s-0.2-0.7-0.5-0.8
		c-0.2-0.1-0.3,0.7-0.5,1.6l0-0.2c-0.6-3.2-1.1-5-1.1-5c-19.9-6.4-27.4-11.8-32.1-11.8h0c-4.3,0-10.8,4.5-26.7,10L73.1,70
		c0.3-0.9,0.7-1.7,1.1-2.6c2.2-4.5,3.3-6,2.6-6.2c-0.7-0.2-3.6,1.9-7,7.7c0,0,0.1-1.3-1.1-1.3c-1.2,0-2.5,2.4-4.1,8.2
		c0,0-0.4-2.8-0.3-5.2c0.1-2.4,0.7-4.6-0.1-4.5c-0.8,0.1-2.1,1.6-2.9,5.6c-0.8,4-1,6.4-1,6.4s-0.5-1.4-1.5-1.2c-1,0.2-1.5,1.8-1,8.7
		c0,0-1-1-1.7-0.4c-0.7,0.6-0.2,3.3,0.8,5.9c0,0-0.6-0.4-1,0.2c-0.3,0.4-0.4,1.1,0.4,3L56.1,94.3z"/>
	<path class="st0" d="M94,90.2c0,0-2.5,1.7-3.7,3.2c0,0,0.6,2.1,1.7,4.1c0,0,0.1,1.9,0.3,2.9c0,0,0-1.4,0.1-2.6c0,0,2.4-0.3,3.6-1.1
		c0,0,1.3,0.8,2.5,2c0,0-1.2-1.5-2-2.4c0,0,0.5-2.5,0.7-4.2C97.3,92,95.7,90.9,94,90.2z"/>
	<path class="st0" d="M98.1,91.8c0,0,1.9-0.8,3.5-1.5c0,0,2.1,1.1,3.5,1.8c0,0,2.2-1.4,3.4-3c0,0-0.8-2.1-1.6-3.6
		c0,0-2.4,0.3-3.9,0.4c0,0-1.7-1.3-2.8-2.1c0,0,1.3,1.3,2.5,2.6c0,0-0.9,2.8-1.2,3.5L98.1,91.8z"/>
	<path class="st2" d="M148.7,86c-0.4,1-0.9,2.1-1.5,3.1c-0.2,0.4-0.4,0.7-0.6,1l0.2,0l23.6-4.2l0.1,0c0-1.2-0.1-2.5-0.1-3.7l-0.1,0
		l-21.3,3.8L148.7,86z"/>
	<path class="st2" d="M145.2,98.5c-0.9,0.9-1.9,1.8-3.1,2.9c0,0,2.3-1.5,3.8-1.7c1.5-0.2,2.4,0.7,1.6,1.9c-0.1,0.1-0.1,0.2-0.2,0.3
		l0.2,0l22.6-4l0.2-0.1c0.1-1.2,0.1-2.5,0.1-3.7l-0.2,0l-24.8,4.4L145.2,98.5z"/>
	<path class="st2" d="M72.8,94.3c0-0.1-0.1-0.2-0.1-0.3c-0.8-2.5-0.7-2.7-1-3.7c-0.2-0.7-0.4-0.8-0.8-0.1c0,0-0.3-5.6,0-9.8
		c0.2-2.4,0.6-5.4,1.5-8.4l0.2-0.1c8.1-2.8,13.8-5.3,18.2-7.2c4.4-1.9,7.3-3.2,9.2-3.2h0c1.9,0,4.8,1.3,9.2,3.2
		c4.9,2.2,11.6,5.1,21.5,8.3c0.3,1.2,0.7,3.4,1.3,6.5l0,0.2c-0.2,0.5-0.4,0.8-0.4,0.8s-0.8-0.9-2.3,0.7c-1.2,1.3-2.8,3.9-3.4,4.8
		l0-0.2c-0.1-0.4-0.5-2.6-0.5-2.6c-0.2-1.3-0.4-2.4-0.6-3.4c-8.1-2.7-13.9-5.2-18.3-7.1c-2.6-1.1-5.4-2.3-6.5-2.5
		c-1.1,0.2-4,1.4-6.5,2.5c-4.4,1.9-10.2,4.4-18.3,7.1c-0.2,1-0.4,2.1-0.6,3.4l-0.3,1.4c-0.4,2.1-1,5.3-1.4,9.3L72.8,94.3z"/>
	<path class="st2" d="M57.7,102.2L30.6,107l-0.2,0c0.1,1.3,0.3,2.5,0.5,3.7l0.2-0.1l27.7-4.9l0.1,0c-1.6-1.5-2.1-2.9-1.6-3.3
		c0.2-0.2,0.6-0.3,0.8-0.3L57.7,102.2z"/>
	<path class="st0" d="M102.3,155.2c-0.3,0.6-0.7,0.9-0.7,0.9s0,0.2-0.2,0.7c-0.2,0.5-0.6,1.3-1.4,2.2c-0.9,0.9-1.2,2.5-1.3,3.9
		c-0.1,1.4-0.3,2.2-1.1,2.8c-1,0.7-2.7-1.6-2.7-1.6c-0.5,0-1-0.9-1-2.1c0-1.2,0.6-1.8,0.6-1.8s0,0.3,0.1,1.1
		c0.1,0.8,0.5,0.9,0.5,0.9s-0.1-0.5,0.4-0.5c0.5,0,0.4-0.4-0.2-1.2c-0.6-0.9-0.7-1.7-0.8-2.4c-0.1-0.7-0.3-1.4-0.3-1.4
		c-0.3,0.2-1-0.1-1-0.1c0.1,1.4-0.5,2.1-0.5,2.1s0,0-0.2-0.5c-0.2-0.5-0.6-1.8-0.6-1.8c-0.5-0.1-1-0.9-1-1.9c-0.1-1,0.7-1.4,1-1.8
		c0.4-0.4,0.7-0.7,1.1-1.2c0.3-0.5,0.9-0.8,1.5-0.9l0.1,0c0-0.6,0.1-1.6,0.3-2.3c0.4-1.2,1.4-1.8,1.4-1.8s-0.3-1.6,0-2.7
		c0,0-0.7-0.1-1.5-0.1c-0.4,0-1,0-1.6,0.1l0,0.1c-0.1,0.6-0.5,1.6-1.4,3.1c-1.4,2.4-3,3.3-3.1,2.2c0,0-0.3,0.6-0.8,0.8
		c-0.5,0.3-0.7,0.3-0.7,0.3s0,0.9-0.9,2.2c-0.9,1.2-1.9,1.8-2.5,0.4c0,0-0.6,0.8-1.5,1.1c-0.9,0.4-1.6-0.1-1.6-0.1s0.2,0.6-0.9,1.9
		c-1.1,1.3-2.5,2.2-2.8-0.5c0,0-1.4-0.6-1.5-1.6c-0.1-0.8,0-1.6,0.1-2.1l0-0.1c-0.1,0-0.1,0.1-0.2,0.1c-0.2,0.2-0.4,0.3-0.7,0.5
		l-0.1,0.1c0.1,0.1,0.1,0.1,0.1,0.1c-0.2,0.1-0.3,0.1-0.4,0.1l-0.1,0.1c-0.7,0.5-1.5,1.1-1.7,1.8c-0.3,0.9,0.2,1.5,0.7,1.8
		c0.6,0.3,1.1,0.6,1.2,1.5s-0.7,1.3-0.6,2.4c0.2,1.1-0.5,1.2-0.5,1.2s0.2,1.5-0.5,2.3c-0.7,0.8-2,0.4-2,0.4s0.4-0.5,0.6-1
		c0.2-0.5,0.2-0.7,0.2-0.7c-0.6,0.2-1.2-0.3-1.6-0.8c-0.4-0.5-0.4-1.3,0.1-1.8c0.4-0.5,0.5-0.8-0.1-1.1c-0.6-0.3-0.8-0.6-1.2-0.5
		c-0.4,0.1-1.2,0.1-1.7,0.1c-0.6,0-1.5,0.6-2,1.2c-0.5,0.6-0.9,0.6-1.1,1.3c-0.2,0.7-1,1.2-1.6,1.2c-0.7,0-1.2-0.1-1.2-0.1
		c0,1.1-0.4,1.9-0.4,1.9c-1-0.4-1-1.3-1-2.2c0-0.9,0.4-1.4,0.4-1.4s-0.1-0.4,0-0.7c0.1-0.3,0.6-0.6,0.9-1c0.4-0.4,0.6-0.8,0.6-0.8
		s-1,0.4-1.9,0.2c-0.9-0.2-1.2-1-1.2-1s-0.2,0.7-0.3,1.1c-0.1,0.4-0.5,0.8-0.5,0.8c-0.8-0.4-0.9-1.8-0.6-2.5
		c0.3-0.8,1.1-0.9,1.1-0.9c0-0.3,0.3-0.5,0.3-0.5c-0.6,0-1.1-0.8-1.1-0.8s-0.7,0.1-0.8,0.6c-0.1,0.5-0.6,0.9-0.6,0.9
		c-0.7-1.2,0.4-2.6,0.9-2.9c0.5-0.4,1-0.1,1-0.1s0.1-0.5,0.8-0.9c0.7-0.4,2-1,2.7-1.6c0.6-0.6,1.1-0.6,1.5-0.6
		c0.5,0.1,1.1,0.4,2.1,1.2c1,0.8,2,1.4,2.7,1.4c0.3,0,0.6-0.1,0.9-0.1l0.1,0c-0.7-1.2-0.3-2.3,0.5-3.4c0.8-1.1,0.6-1.2,0.9-2.2
		c0.3-1,1.1-1.8,1.1-1.8c-0.3-2.5,1.5-4,2.4-4.8c0.9-0.8,3.4-2.3,4.8-3.3c1.4-1,2.1-2.1,2.1-2.1s-0.5-0.3-1.6-0.9
		c-1.2-0.6-1.1-1.8-1.1-1.8c-2.2-0.7-1.6-2.3-1.6-2.3s-1.8-0.5-3.6-1.3c-1.8-0.9-1.1-2.4-1.1-2.4c-2.8-1.1-1.8-3-1.8-3
		c-2.8-1.3-4.6-2.7-4.7-3.8c-0.1-1.1,0.3-1.2,0.3-1.2c-2.7-1.7-3.6-3.1-3.5-4c0.1-0.9,1.7-0.2,1.7-0.2c-3.7-2.5-4.4-4.5-4.3-5.3
		c0.1-0.8,1.1-0.7,1.1-0.7c-2.7-2.1-3.7-4.1-3.1-4.7c0.3-0.3,1.1-0.4,1.1-0.4c-1.8-2.2-2.3-3.4-2-4.7c0.2-0.8,1.3-0.5,1.3-0.5
		c-2.2-3.9-2.2-5.2-1.8-5.7c0.5-0.5,1-0.2,1-0.2c-1-2.6-1.5-5.3-0.8-5.9c0.7-0.6,1.7,0.4,1.7,0.4c-0.5-6.9,0.1-8.6,1-8.7
		c1-0.2,1.5,1.2,1.5,1.2s0.2-2.3,1-6.4c0.8-4,2.2-5.5,2.9-5.6c0.8-0.1,0.2,2.1,0.1,4.5c-0.1,2.4,0.3,5.2,0.3,5.2
		c1.6-5.8,2.9-8.1,4.1-8.2c1.1,0,1.1,1.3,1.1,1.3c3.3-5.9,6.3-7.9,7-7.7c0.7,0.2-0.5,1.7-2.6,6.2c-2.2,4.5-2.9,9.2-3.2,12.9
		c-0.4,4.3,0,9.8,0,9.8c0.4-0.6,0.6-0.6,0.8,0.1c0.3,1,0.3,1.2,1,3.7c0.8,2.5,1.6,4.5,2.5,6.2c1.6,2.9,3.8,5.2,5.1,6.2
		c1.3,1.1,5,3.5,7.4,5.2c2,1.4,4.5,3.9,4.6,6.1c0.1,2.1,0.1,3.7,0.1,3.7c0.4,0.1,1-0.3,2.1-1c1.1-0.7,2.2-0.8,2.2-0.8
		c0.3-2.4,3-5.3,5.6-7c2.6-1.7,6.7-4.4,9.2-6.4c3.8-3.2,5.5-8.2,6.4-11.4c1-3.2,1.2-8.8,1.2-8.8s1.5,1.4,1.9,3.5
		c0,0,2.7-3.6,3.7-3.7c1.1-0.1,1,0.4,1,0.4s2.1-3.5,3.6-5.1c1.5-1.6,2.3-0.7,2.3-0.7s0.7-1.6,1.2-2.7c0.5-1.1,0.6-2.7,0.9-2.5
		c0.3,0.2,0.5,0.8,0.5,0.8s1.1-2.5,1.9-5.3c1.5-5.1,2.1-8.4,3-8.4c0.9,0.1,1.3,2.1,1,8.8c0,0,1.5-2.7,2.9-6.4c1.5-3.6,2.1-5.1,2.8-5
		c0.7,0.2,0.9,1.2,0.7,5.3c-0.3,4.1-1.5,8.7-1.5,8.7s1.4-2,2.1-2c0.8,0.1,1.2,1.6,0.7,3.8c-0.8,4.2-4.4,10.1-4.4,10.1s2-1.9,3.6-3.2
		c1.6-1.4,2.5-1.7,2.4-0.2c-0.1,1.6-1,4.2-2.4,6.6c-1.4,2.4-3.1,4.4-3.1,4.4s2.2-1.7,3.4-2.3c1.2-0.7,2.7-0.9,2.6,0.1
		c-0.1,1-1.5,4.5-7.9,10.2c0,0,2.3-1.5,3.8-1.7c1.5-0.2,2.4,0.7,1.6,1.9c-0.9,1.3-3,3.4-6.4,5.6c0,0,2.8-0.9,4.2-0.8
		c1.4,0.2,1.7,1.2,1.1,2.2c-0.6,1-2.5,2.4-9.6,5.5c0,0,2.1-0.1,3.3,0.6c1.2,0.7,0.8,2-0.8,3c-2,1.3-5.2,2-5.2,2s2.2,0.1,3,1.1
		c0.9,1-1,3.6-6,4c0,0,0.7,0.9-0.5,2c-1.2,1.1-3.7,1.4-5.9,1.4c0,0,1.3,1.2,0.4,2.5c-0.9,1.3-2.7,1.3-4.7,1.3c0,0,2.6,1.1,5.7,2.8
		c4,2.3,9.4,5.9,9.9,8.2c0,0,1.4,1.2,2,2.3c0.7,1.1,0.5,2.4-0.7,2.4c0,0,0.7,1.4-0.2,2.1c-0.9,0.7-2.7,0.3-2.7,0.3s1,1.1,0.3,2
		c-0.7,0.9-4.5,0-4.5,0s0.9,0.9,0.5,1.6c-0.5,0.8-2.8,0.6-4.5-0.2c0,0,0.2,0.8-0.7,1.2c-0.9,0.4-2.6,0.2-4.4-1.1
		c0,0,0.4,0.8-0.1,1.4c-0.5,0.6-3-0.5-4.7-2.1c0,0-0.7,0.4-1.8-0.2c-1.1-0.6-2.6-2.3-4-4.8c0,0-0.5,2-1.2,3.1
		c-0.7,1.1-1.4,0.5-1.6-0.5c0,0-0.1,2-1.1,3.3c-1,1.3-2,1.1-2.2,0.5c0,0-0.4,1-1.1,1.3C102.9,155.8,102.4,155.3,102.3,155.2
		L102.3,155.2z"/>
	<polygon class="st1" points="86.9,27.4 85.1,27.5 85.4,18 93.1,17.5 92.8,27 91,27.1 91.3,19.2 87.2,19.4 	"/>
	<path class="st1" d="M101.4,17.2l-0.1,1.2c3.2,0.2,3.9,1.3,3.7,3.6c-0.3,2.4-1.3,3.4-4.5,3.5l-0.1,1.2l-1.8,0l0.1-1.2
		c-3.1-0.2-3.8-1.3-3.5-3.6c0.3-2.4,1.2-3.4,4.4-3.5l0.1-1.2L101.4,17.2z M98.8,24l0.5-4.2c-1.9,0-2.2,0.6-2.4,2
		C96.8,23.3,97,23.9,98.8,24z M101.1,19.8l-0.5,4.2c2,0,2.3-0.6,2.5-2C103.3,20.5,103.1,19.9,101.1,19.8z"/>
	<path class="st1" d="M111.6,27.6c-0.4-3.8-1.1-4.7-2.7-5.1l-1.2,4.4l-1.8-0.3l2.6-9.3l1.8,0.3l-1.2,4.5c1-0.6,3-2.1,4.9-3.9
		l2.1,0.4c-2.4,2.1-4,3.3-4.6,3.6c1,0.6,1.8,1.3,2.2,5.7L111.6,27.6z"/>
	<path class="st1" d="M51.6,44.3l-8.4,4.1l0.1,0.2c2,4.6,2.8,9.3,3.3,12.5l0,0.3l3.7-1.8l0-0.1c-0.4-3.2-1.1-6.2-2.3-9.5
		c0.2-0.1,1.7-0.8,2-1c0.2,0.3,4.3,8.7,4.3,8.7l3.4-1.7l-5.8-11.7L51.6,44.3z"/>
	<path class="st1" d="M65.9,38.8l-3.9,1.5l0,0.1c0,0.4,0,0.8,0,1.3c0,1.3-0.1,2.8-0.2,4.2c-1.4-1.5-2.9-3-4-3.9l-0.1-0.1l-4.4,1.7
		l0.3,0.2c2.4,1.8,5.9,5.2,7.5,7c-0.2,1.2-0.5,2.8-0.8,3.8L60.2,55l4.6-1.8l0-0.1c0.6-3.4,1.3-9.2,1.3-14.1l0-0.3L65.9,38.8z"/>
	<path class="st1" d="M77.6,35.6L68.5,38l0,0.2c0.6,2.6,0.9,5.4,0.9,8.6c0,0.3,0,0.5,0,0.8c-0.2,0.1-2.1,0.6-2.1,0.6l2.1,6.1
		l3.4-0.9c0,0-0.6-2.4-0.7-2.7c0.3-0.1,7.1-1.9,7.5-2c0.1,0.3,0.7,2.7,0.7,2.7l3.3-0.9l-1.2-6.3c0,0-1.8,0.5-2.1,0.6
		c-0.1-0.4-2.5-9.1-2.5-9.1L77.6,35.6z M74.9,39.9c0.1,0.3,1.5,5.5,1.6,5.8c-0.3,0.1-2.8,0.7-3.2,0.8c0-1.9-0.2-3.8-0.5-6.1
		C73.1,40.4,74.6,39.9,74.9,39.9z"/>
	<path class="st1" d="M87.9,33.5L87.9,33.5c-2.4,0.3-3.8,0.9-4.7,2.1c-0.9,1.2-1.2,2.9-0.9,5.3c0.3,2.5,1.1,4.3,2.3,5.2
		c1.2,0.9,2.7,1.2,5,0.9c4.6-0.6,6.2-2.8,5.6-7.7c-0.3-2.5-1-4-2.2-5C91.9,33.5,90.3,33.2,87.9,33.5z M88.4,37.1
		c1-0.1,1.6-0.1,2,0.1c0.4,0.3,0.6,1.1,0.8,2.7c0.2,1.7,0.2,2.6-0.1,3c-0.3,0.4-0.9,0.5-1.9,0.6c-2.1,0.3-2.4,0.2-2.8-3l0,0
		C86,37.5,86.2,37.4,88.4,37.1z"/>
	<path class="st1" d="M96.6,33.2l-0.4,12.9l3.9,0.1c0,0,0.3-9.3,0.3-9.6c0.4,0,5.8,0.2,5.8,0.2l0.1-3.4l-9.7-0.3L96.6,33.2z"/>
	<path class="st1" d="M108.7,34.6c-1.2,0.9-2,2.4-2.4,4.9l0,0c-0.8,4.9,0.7,7.2,5.3,8c2.2,0.4,3.8,0.2,5-0.7
		c1.3-0.9,2.1-2.6,2.5-5.1c0.4-2.4,0.2-4.2-0.7-5.4c-0.8-1.2-2.3-1.9-4.6-2.3C111.4,33.6,109.8,33.8,108.7,34.6z M112.1,43.9
		L112.1,43.9c-2.1-0.4-2.4-0.5-1.8-3.7c0.5-3,0.8-3,2.9-2.7c2.1,0.4,2.3,0.5,1.8,3.5C114.5,44.2,114.2,44.3,112.1,43.9z"/>
	<path class="st1" d="M122.5,36l-3.6,12.4l3.7,1.1c0,0,1-3.3,1-3.6c0.3,0.1,3.7,1.1,3.7,1.1c0.9,0.3,1.8,0.2,2.5-0.2
		c1-0.6,1.8-1.7,2.2-3.1c0.9-3,0.2-4.9-2.2-5.6l-7.4-2.2L122.5,36z M125.3,40.1c0.3,0.1,2.5,0.7,2.5,0.7c0.3,0.1,0.5,0.2,0.5,0.7
		c0,0.2,0,0.5-0.2,0.9c-0.2,0.6-0.4,0.9-0.6,1.1c-0.1,0.1-0.3,0.1-0.5,0c0,0-2.1-0.6-2.4-0.7C124.6,42.4,125.2,40.4,125.3,40.1z"/>
	<path class="st1" d="M134.9,39.8l-4.7,12l9.4,3.7l1.3-3.2c0,0-5.5-2.1-5.8-2.3c0.1-0.3,0.5-1.2,0.6-1.5c0.3,0.1,4.2,1.6,4.2,1.6
		l1.2-3.2c0,0-3.9-1.5-4.2-1.6c0.1-0.2,0.4-0.9,0.4-1.1c0.3,0.1,5.8,2.3,5.8,2.3l1.3-3.2l-9.4-3.7L134.9,39.8z"/>
	<path class="st1" d="M146.7,44.5L140.9,56c0,0,8.4,4.2,8.7,4.4c-0.1,0.3-1.3,2.5-1.3,2.5l3.1,1.6l3.3-5.5c0,0-1.7-0.9-2-1
		c0.2-0.3,4.3-8.4,4.3-8.4l-3.4-1.7c0,0-4.1,8.1-4.3,8.4c-0.3-0.1-3-1.5-3.3-1.7c0.2-0.3,4.3-8.4,4.3-8.4l-3.4-1.7L146.7,44.5z"/>
	<path class="st2" d="M94.9,159.8c0.1,0.2,0.2,0.4,0.4,0.6c0.6,0.9,0.7,1.2,0.2,1.2c-0.5,0-0.4,0.5-0.4,0.5s-0.4-0.1-0.5-0.9
		c-0.1-0.8-0.1-1.1-0.1-1.1s-0.6,0.6-0.6,1.8c0,1.2,0.5,2.1,1,2.1c0,0,1.7,2.3,2.7,1.6c0.9-0.6,1-1.4,1.1-2.8c0-0.1,0-0.3,0-0.4
		l0.1,0c0.7,0.4,1.1,0.7,1.1,0.7s6.6-3.6,14.1-10.8l0.1-0.1c0.2,0.1,0.3,0.2,0.5,0.3c1.1,0.6,1.8,0.2,1.8,0.2
		c1.7,1.6,4.3,2.7,4.7,2.1c0.5-0.6,0.1-1.4,0.1-1.4c1.8,1.3,3.5,1.5,4.4,1.1c0.9-0.4,0.7-1.2,0.7-1.2c1.7,0.8,4,1,4.5,0.2
		c0.5-0.8-0.5-1.6-0.5-1.6s3.8,0.9,4.5,0c0.7-0.9-0.3-2-0.3-2s1.9,0.5,2.7-0.3c0.9-0.7,0.2-2.1,0.2-2.1c1.2,0,1.3-1.3,0.7-2.4
		c-0.7-1.1-2-2.3-2-2.3c-0.5-2-4.8-5.1-8.6-7.4l0.1-0.1c1.2-2.2,2.4-4.5,3.4-6.9c0.5-1.2,1-2.5,1.4-3.7l0-0.1c4-0.7,5.5-3,4.7-3.9
		c-0.9-1-3-1.1-3-1.1s3.2-0.8,5.2-2c1.6-1,2-2.4,0.8-3c-1.2-0.7-3.3-0.6-3.3-0.6c3.3-1.4,5.5-2.5,6.9-3.3l0.2-0.1l25.6-4.6l0.2,0
		c-0.4,3.3-0.8,6.5-1.4,9.6c-3.1,16.3-9.4,30.3-19.3,42.8l0,0c-13.3,16.8-26.1,26-34.6,30.8c-7.2,4.1-12.5,5.8-14.4,6.3
		c-2-0.5-7.2-2.2-14.4-6.3c-8.4-4.8-21.3-14.1-34.6-30.8c-6.9-8.6-12-18-15.5-28.4l0-0.1l30.9-5.5l0.1,0c-0.9-2.6-1.5-5.2-2-7.8
		l-0.1,0l-31.1,5.5l0-0.1c-0.3-1.2-0.6-2.4-0.8-3.5l0.1,0l29.5-5.2l0.1,0c0,0.9,1,2.3,3.5,3.9c0,0-0.4,0.1-0.3,1.2
		c0,0.4,0.4,0.9,0.9,1.4l0,0.1c0.7,2.8,1.6,5.7,2.8,8.5c1.6,3.7,3.4,7.2,5.5,10.3l0,0.1c-0.3,0.2-0.6,0.4-0.8,0.6
		c-0.9,0.8-2.6,2.2-2.4,4.8c0,0-0.8,0.8-1.1,1.8c-0.3,1-0.2,1.1-0.9,2.2c-0.8,1.1-1.2,2.2-0.5,3.4l-0.1,0c-0.2,0.1-0.5,0.1-0.9,0.1
		c-0.8,0-1.8-0.6-2.7-1.4c-1-0.8-1.6-1.1-2.1-1.2c-0.5-0.1-0.9,0-1.5,0.6c-0.7,0.7-2,1.2-2.7,1.6c-0.7,0.4-0.8,0.9-0.8,0.9
		s-0.5-0.3-1,0.1c-0.5,0.4-1.6,1.7-0.9,2.9c0,0,0.5-0.4,0.6-0.9c0.1-0.5,0.8-0.6,0.8-0.6s0.5,0.8,1.1,0.8c0,0-0.3,0.2-0.3,0.5
		c0,0-0.8,0.2-1.1,0.9c-0.3,0.8-0.2,2.1,0.6,2.5c0,0,0.4-0.4,0.5-0.8c0.1-0.4,0.3-1.1,0.3-1.1s0.3,0.8,1.2,1
		c0.9,0.2,1.9-0.2,1.9-0.2s-0.3,0.4-0.6,0.8c-0.4,0.4-0.9,0.7-0.9,1c-0.1,0.3,0,0.7,0,0.7s-0.4,0.5-0.4,1.4c0,0.9,0.1,1.8,1,2.2
		c0,0,0.4-0.8,0.4-1.9c0,0,0.6,0.1,1.2,0.1c0.7,0,1.4-0.5,1.6-1.2c0.2-0.7,0.6-0.7,1.1-1.3c0.5-0.6,1.4-1.2,2-1.2
		c0.6,0,1.3,0.1,1.7-0.1c0.4-0.1,0.7,0.2,1.2,0.5c0.6,0.3,0.5,0.6,0.1,1.1c-0.4,0.5-0.4,1.3-0.1,1.8c0.4,0.5,1,1,1.6,0.8
		c0,0,0.1,0.3-0.2,0.7c-0.2,0.5-0.6,1-0.6,1s1.3,0.5,2-0.4c0.7-0.8,0.5-2.3,0.5-2.3s0.7-0.1,0.5-1.2c-0.2-1.1,0.6-1.5,0.6-2.4
		s-0.6-1.2-1.2-1.5c-0.6-0.3-1-0.9-0.7-1.8c0.3-0.7,1-1.3,1.7-1.8l0.1-0.1c0.1,0,0.3-0.1,0.4-0.1c0,0,0,0-0.1-0.1l0.1-0.1
		c0.3-0.2,0.5-0.3,0.7-0.5c0.1,0,0.1-0.1,0.2-0.1l0,0.1c-0.1,0.5-0.2,1.3-0.1,2.1c0.1,1,1.5,1.6,1.5,1.6c0.3,2.6,1.7,1.8,2.8,0.5
		c1.1-1.3,0.9-1.9,0.9-1.9s0.7,0.4,1.6,0.1c0.9-0.4,1.5-1.1,1.5-1.1c0.6,1.4,1.6,0.8,2.4-0.3l0.1,0.1c2.2,2.1,4.3,3.8,6.2,5.3
		l0.1,0.1c0,0,0,0.1,0,0.1c0.2,0.5,0.2,0.5,0.2,0.5s0.1-0.1,0.2-0.3L94.9,159.8z"/>
	<polygon class="st1" points="86.4,181.7 85.1,174.7 83.1,175.9 82.2,174.2 86.7,171.5 88.5,181.3 	"/>
	<path class="st1" d="M95.6,176.9c-0.2,0-0.7,0.1-0.8,0.1c-2.7,0.2-3.6-0.5-3.7-2.7c-0.2-2.5,0.7-3.3,3.4-3.5c3-0.2,3.7,0.5,3.9,3
		c0.1,1.9-0.4,3.5-1.4,4.9c-1.5,2.3-4.7,2.6-4.7,2.6l-0.3-1.9c0.7-0.1,1.8-0.4,2.6-1.1C95.5,177.8,95.6,176.9,95.6,176.9z M96.1,175
		c0-0.2,0-0.5,0-0.8c-0.1-1.3-0.4-1.5-1.4-1.4c-1.1,0.1-1.4,0.4-1.3,1.3c0.1,0.9,0.3,1.1,1.6,1C95.3,175.1,95.7,175.1,96.1,175z"/>
	<path class="st1" d="M100.1,178l0-0.8c1.1-1.8,3.1-4.6,4.4-6.3l2.8,0.2l-0.3,5.4l1.2,0.1l-0.1,1.8l-1.2-0.1l-0.1,2.3l-2.1-0.1
		l0.1-2.3L100.1,178z M105.1,173.1c-0.8,1-1.8,2.5-2.3,3.3l2.1,0.1L105.1,173.1z"/>
	<path class="st1" d="M117.9,172.8l-0.4,1.9l-4-0.8l-0.3,1.6c0.3,0,0.6,0.1,0.9,0.1c2.7,0.5,3.3,1.5,2.9,3.6c-0.5,2.4-1.5,3-4.3,2.5
		c-0.9-0.2-2.4-0.6-3.1-0.9l0.8-1.8c0.5,0.3,1.5,0.6,2.2,0.7c1.5,0.3,1.9,0.2,2-0.7c0.2-0.9,0-1.2-1.6-1.5c-0.7-0.1-1.6-0.2-2.2-0.3
		l1-5.5L117.9,172.8z"/>
	<path class="st2" d="M129.5,127.8c-1,2.4-2.1,4.6-3.3,6.7l-0.1,0.1c-3-1.7-5.6-2.8-5.6-2.8c2,0.1,3.8,0.1,4.7-1.3
		c0.9-1.3-0.4-2.5-0.4-2.5c1.7,0,3.5-0.2,4.8-0.8L129.5,127.8z"/>
	<path class="st2" d="M99.2,160.7c0.3,0.2,0.6,0.4,0.8,0.5c1.9-1.2,7.1-4.5,12.9-10l0,0c-0.8-0.8-1.6-2-2.3-3.3c0,0-0.5,2-1.2,3.1
		c-0.7,1.1-1.4,0.5-1.6-0.5c0,0-0.1,2-1.1,3.3c-1,1.3-2,1.1-2.2,0.5c0,0-0.4,1-1.1,1.3c-0.6,0.3-1.1-0.2-1.2-0.4l0,0.1
		c-0.3,0.6-0.7,0.9-0.7,0.9s0,0.2-0.2,0.7c-0.2,0.5-0.6,1.3-1.4,2.2C99.6,159.4,99.3,160,99.2,160.7L99.2,160.7z"/>
	<path class="st2" d="M68.3,121.5c0.6,2.1,1.3,4.2,2.2,6.3c1.5,3.6,3.3,6.9,5.3,10l0.1,0.1c0.9-0.6,2-1.3,2.7-1.8
		c1.4-1,2.1-2.1,2.1-2.1s-0.5-0.3-1.6-0.9c-1.2-0.6-1.1-1.8-1.1-1.8c-2.2-0.7-1.6-2.3-1.6-2.3s-1.8-0.5-3.6-1.3
		c-1.8-0.9-1.1-2.4-1.1-2.4c-2.8-1.1-1.8-3-1.8-3C69.3,122,68.8,121.7,68.3,121.5L68.3,121.5z"/>
	<path class="st2" d="M92.2,146.4c0.9,0.8,1.7,1.5,2.5,2.2l0.1,0.1c-0.2,0.6-0.2,1.4-0.2,1.9l-0.1,0c-0.6,0.1-1.2,0.4-1.5,0.9
		c-0.4,0.6-0.7,0.8-1.1,1.2c-0.4,0.4-1.1,0.8-1,1.8c0,0,0,0.1,0,0.1l-0.1-0.1c-1.2-1-2.5-2.2-3.9-3.5l0-0.1c0.2-0.5,0.2-0.8,0.2-0.8
		s0.2,0,0.7-0.3c0.5-0.3,0.8-0.8,0.8-0.8c0.2,1.1,1.7,0.2,3.1-2.2C91.9,146.8,92,146.5,92.2,146.4L92.2,146.4z"/>
	<path class="st1" d="M80,146.2c0.2-0.4,0.2-0.8,0.2-0.8c-0.5-0.2-1.7,0.2-2.8,0.6c-1.1,0.4-2,0.5-2.6,0.3c-0.6-0.2-0.6-0.7-0.3-0.8
		c0.3-0.1,0.7-0.1,0.7-0.1c0.5,0.3,1.5,0.4,2.1-0.2c0.6-0.6,0.5-1.5,0.2-2.1c-0.3-0.6-0.3-0.8,0.4-1.4c0.7-0.7,0.9-1.2,0.9-1.2
		s-0.8,0.8-1.9,1.3c-1.1,0.5-1.1,1.3-1.2,2.2c-0.1,0.8-1.4,1.6-2,1.5c-0.6,0-0.6-0.9-0.9-0.9c-0.3,0-0.9-0.5-0.9-0.5
		s-0.1-2.3,1.4-3.6c1.6-1.3,3.3-2.5,4.8-3.5c1.5-0.9,3.2-2.8,4.3-4.5c1.2-1.7,0.7-3.2,2.1-3.6c0,0,0.1,0.8,0.1,2
		c0,0,2.1-2.4,4.4-2.6c0,0-0.3,1.1-1.5,2.5c-1.2,1.5-1.7,2.4-1.8,3.1c0,0,1.3-0.6,2.9-1.4c1.6-0.8,2.7-1.9,2.7-1.9s0.1,0.5-0.5,2.1
		c-0.6,1.6-1.5,2.8-2.1,3.7c-0.6,0.9-0.7,1-0.7,1s1.7-2.1,2.5-2.5c0.8-0.4,2.6-1.1,3.5-1.6c0.9-0.5,1.6-1.1,1.6-1.1s0.3,1-0.2,1.8
		c-0.5,0.8-1.4,1.4-1.4,1.4s0.5,0.2,0.8,0.1c0,0-0.4,0.7-1.5,1.7c-1.1,1.1-1.8,1.7-2.2,2.4c0,0,1.9-1.6,3.5-1.6c0,0-0.3,0.5-0.9,1.1
		c-0.7,0.7-1.2,1.1-1.3,1.8c0,0,1-0.7,2-1c1-0.3,2.1-0.3,2.1-0.3s0,0.3-0.9,1c-0.9,0.7-1.8,0.9-1.8,0.9s0.6,0.2,0.9,0.2
		c0,0,0,0.3-0.4,0.4c-0.5,0.1-1,0.9-2.4,1.2c-1.4,0.3-4,0.6-5.7,0.9c-1.7,0.3-4.7,1.1-6.6,2.7C79.8,147,79.8,146.6,80,146.2z
		 M83.8,139.6c0,0,2.1-1.7,2.9-2.8c0.8-1.1,1-1.4,1-1.4s-1.5,0-2.8,1.4c0,0,1.4-0.7,2.1-0.8c0,0-0.3,0.6-1.4,1.7
		C84.3,138.8,83.8,139.6,83.8,139.6z M90.7,132c-0.3,0.8-1.4,2-1.4,2C90.9,132.8,90.7,132,90.7,132z"/>
	<path class="st1" d="M122.5,135.3c0,0,2.5,1,6.9,3.7c4.4,2.7,6.3,4.1,7.4,5.4c1.1,1.2,1.2,1.9,0.9,2.3c-0.3,0.4-0.7,0.4-2.7-0.5
		c-2.1-0.9-6.3-3.8-8-5c-1.7-1.2-4.6-3.3-4.6-3.3s0.7-0.1,1-0.4c0,0,4.4,2.7,7.1,4.4c0,0-4.3-3.1-6.9-4.9
		C123.6,137,123.3,136.1,122.5,135.3z"/>
	<path class="st1" d="M123,138.7c0,0,0.8,0.5,3,2.1c2.2,1.6,5.4,3.9,7.4,5c2,1.1,3.2,1.5,3.7,2.2c0.5,0.6,0,1.3-0.3,1.4
		c-0.3,0.2-1.9,0.2-3.2-0.4c-1.3-0.6-4-2.6-6.2-4.1c-2.2-1.5-4.2-2.9-4.2-2.9s0.8-0.1,1.1-0.2c0,0,2,1.4,4.6,3.1
		c2.6,1.6,4.6,2.5,4.6,2.5s-5.4-3.2-9-6C124.4,141.4,124.5,140.2,123,138.7z"/>
	<path class="st1" d="M122.4,142c0,0,3,2,5.8,3.9c2.9,1.9,4.8,3.4,5.7,4.3c0.9,0.9,0.8,1.5-0.1,1.6c-0.9,0.2-2.7,0-4.3-0.8
		c-1.6-0.8-5.6-3.5-8.5-6c0,0,2.2,0.5,2.7,0.1c0,0,4.4,2.5,6.2,3.8c0,0-4.1-3.2-6.1-4.4C123.8,144.6,123.7,143.4,122.4,142z"/>
	<path class="st1" d="M121,145.4c0,0,0.1,0.8-0.1,1.4c0,0,1.6,1.6,4.1,3.4c0,0-2.8-1.7-4.5-3.1c0,0-1.6,0-3.5-1.5
		c0,0,0.8,1.4,4.4,3.9c3.6,2.5,4.6,3.3,6.6,3.9c1,0.3,1.9,0.3,2-0.3c0-0.6-0.5-1.4-2.2-2.5C126.3,149.5,121,145.4,121,145.4z"/>
	<path class="st1" d="M117.5,146.4c0,0,0.9,1.1,4.4,3.7c2.4,1.8,3.8,2.8,3.9,3.2c0.1,0.3-0.2,0.9-0.8,1.1c-0.6,0.2-2.4-0.4-3.6-1.4
		c-1.3-1.1-4-3.5-5.7-6.1c0,0,0.6,0.3,0.9,0.3c0,0,2.3,2.3,3.6,3.4c0,0-2.3-2.3-3.1-3.5C117,147.1,117.4,147,117.5,146.4z"/>
	<path class="st1" d="M112.5,144.4c0,0,1.3,1.3,2.7,2.2c0,0,0.7,1.3,2.6,3.5c1.9,2.1,2.9,3,3.1,3.6c0.2,0.6,0,1.1-0.5,1
		c-0.5-0.1-1.8-0.6-2.7-1.4c-0.9-0.8-1.7-1.7-3.1-3.5c-1.2-1.5-2.4-3.1-2.9-4.5c-0.3-0.9,0-1.1,0.5-0.3c1.2,2.1,2.1,3.2,3.6,4.7
		c0,0-1.5-1.9-2.5-3.4C112.4,144.7,111.5,143.6,112.5,144.4z"/>
	<path class="st3" d="M75.6,145c0.4-0.4,1-0.1,1.2-0.7c0.1-0.5-0.1-1.5-0.1-1.5s0.4,0.2,0.6,0.5c0.2,0.3,0.3,1.4-0.4,1.8
		C76.2,145.6,75.2,145.4,75.6,145z"/>
	<path class="st4" d="M101.1,156.5c0,0-0.5,0.3-0.5,0.5c0,0.2-0.2,0.9-0.7,1.6C100,158.5,100.9,157.5,101.1,156.5z"/>
	<path class="st5" d="M86.7,147.9c0,0,0.1,0.9,0.1,1.4c0,0.5-0.2,1.7-0.7,2.5c-0.6,0.8-1.3,1.2-1.5,1.2c-0.3,0-0.7-0.5-0.5-1.4
		c0.2-0.9,0.2-1.6,0.7-2.1c0.5-0.5,1.4-1.3,1.4-1.3s-0.2,1.1-0.5,2c-0.3,0.9-0.3,1.2,0,0.6C86,150.2,86.7,147.9,86.7,147.9z"/>
	<path class="st5" d="M83.2,149.1c0,0,0.2,0.7,0.5,0.8c0,0,0,1.1-0.4,2.1c-0.4,0.9-1.6,1.6-2,1.5c-0.4-0.1-0.5-0.8-0.3-2.2
		c0.3-1.3,0.6-1.9,1-2.3c0.4-0.4,0.9-0.3,0.7,0.7c-0.2,1-0.7,2.2-0.7,2.2s0.5-0.4,0.8-1.2C83,149.9,83.2,149.1,83.2,149.1z"/>
	<path class="st5" d="M77.9,152.3c0.3,0.4,0.5,0.8,0.7,1c0,0,0,0.4-0.1,0.9c-0.1,0.5-0.1,0.7,0,0.6c0.1-0.1,0.2-0.3,0.3-0.8
		c0.2-0.5,0.2-0.7,0.2-0.7c1.4-1.1,0.9-2.4,0.8-3.8c0-0.2,0-0.4,0-0.6l0.1,0.2c0.3,0.6,0.6,1.5,0.5,2.8c0,0.6-0.1,1.4-0.2,1.9
		c-0.3,1.2-1.6,2.7-2,2.7c-0.4,0-0.8-0.2-0.8-0.9C77.3,154.9,77.4,153.5,77.9,152.3L77.9,152.3z"/>
	<path class="st5" d="M81.6,146.5c-0.4,0.8-0.7,1.7-0.3,1.2c0.3-0.4,0.7-1.1,0.9-1.5l0.1-0.2c0.4-0.2,0.9-0.3,1.4-0.5l-0.1,0.2
		c-0.3,0.7-1,2-1.6,2.6c-0.9,0.9-1.1,1.3-1.6,1.1c-0.3-0.2-0.6-0.6-0.7-1.1l0-0.1c0-0.4,0.1-0.6,0.1-0.6s0.1-0.2,1.4-1
		c0.1-0.1,0.3-0.2,0.4-0.2L81.6,146.5z"/>
	<path class="st5" d="M85.4,145.2c-0.1,0.4-0.3,0.9-0.4,1.4c0,0.8-0.2,1,0.3-0.2c0.3-0.6,0.5-1,0.6-1.3l0.1-0.1
		c0.5-0.1,0.9-0.2,1.3-0.2l0,0.1c-0.1,0.5-0.3,1.7-1.2,2.8c-1.1,1.5-2,1.9-2.3,1.6c-0.3-0.2-0.4-1.6,0-2.8c0.2-0.5,0.3-0.8,0.4-1.1
		l0-0.1c0.3-0.1,0.6-0.1,0.9-0.2c0.1,0,0.1,0,0.2,0L85.4,145.2z"/>
	<path class="st5" d="M89.2,144.5c-0.2,0.4-0.5,1.1-0.7,1.6c-0.3,0.8-0.5,0.7-0.1-0.5c0.2-0.5,0.3-0.9,0.4-1.1l0-0.1
		c-0.3,0-0.6,0.1-1,0.1l0,0.1c-0.2,0.5-0.5,1.4-0.6,2.2c-0.1,1.1-0.3,2.9,0.3,2.7c0.5-0.1,1.8-2.4,2.2-3.5c0.2-0.7,0.4-1.3,0.5-1.7
		l0-0.1c-0.4,0.1-0.7,0.1-1,0.2L89.2,144.5z"/>
	<path class="st5" d="M91.9,144.1c-0.2,0.5-0.7,1.5-1,2c-0.4,0.8-0.5,0.7,0-0.5c0.3-0.7,0.5-1.2,0.6-1.5l0.1-0.1
		c-0.2,0-0.5,0.1-0.7,0.1c-0.1,0-0.1,0-0.2,0l0,0.1c-0.1,0.5-0.4,1.8-0.8,2.5c-0.6,0.9-0.8,1.8-0.8,2c0,0.2,0.7,0.5,1.6-0.8
		c0.8-1.2,1.7-2.8,2.1-4l0-0.1c-0.2,0-0.5,0.1-0.7,0.1L91.9,144.1z"/>
	<path class="st3" d="M78.2,152.1c-1.2-2-1.6-3.2-1.7-3.7l0-0.1c0.2-0.2,0.4-0.4,0.6-0.5c0.8-0.3,0.6,0.1,0.8,1.6
		c0.1,1,0.3,2,0.5,2.8L78.2,152.1z"/>
	<path class="st4" d="M76.2,148.8c0.1,0.3,0.2,0.7,0.4,1.2l0,0.1c-0.3,0.3-0.6,0.7-1.1,1.1c-0.3,0.2-0.7,0.5-1,0.8l-0.1,0.1
		c-0.3-0.4-0.6-0.9-0.4-1.4c0.3-0.9,1.2-1.2,2-1.4c0,0,0.1-0.3,0.2-0.6L76.2,148.8z"/>
	<path class="st5" d="M75.9,151.3c-0.1,0.4-0.2,1.3-0.1,1.9c0.1,0.7,0.3,1.5,0.6,1.5c0.2,0,0.6-1.5,1.2-2.7l0-0.1
		c-0.3-0.5-0.6-1-0.8-1.5l-0.1,0.1c-0.2,0.2-0.4,0.4-0.7,0.7L75.9,151.3z"/>
	<path class="st4" d="M98.7,160.7c-0.2,0.8-0.4,2.2-0.5,3.1c-0.1,0.9-0.8,1.5-1.1,1.5c-0.3,0-0.7-0.3-0.7-0.7c0-0.4-0.4,0.3-0.6,0.1
		c-0.2-0.2-0.2-0.8-0.1-1.2c0.1-0.4-0.2-0.5-0.2-1c0-0.5,0.5-0.5,0.8-0.4c0.3,0.2,0.8,0.7,0.8,1.1c0,0.3,0.1,0.6,0.2,0.1
		c0.1-0.5,0-0.8-0.4-1.1c-0.4-0.3-0.8-0.7-0.9-1c-0.1-0.3-0.7-1-1-1.8c-0.4-0.8-0.3-1.9-0.3-1.9c0.4,0.8,0.8,1.1,0.8,1.1
		c0-0.7,0.5-2,0.7-2.2c0.2-0.2,0.5-0.7,0.5-0.7s0.4,0.1,1-0.3c0.6-0.3,0.9-0.9,0.9-0.9c0,0.6,0.5,1.6,0.5,1.6s0,0.9,0,1.7
		c0,0.8,0.3,1.7,0.3,1.7S98.9,159.9,98.7,160.7z M98.2,156.8c-0.5,0.1-0.9-0.1-1.2-0.2c-0.3-0.1-0.3,0.2,0.2,0.3
		c0.5,0.2,1.3,0.1,1.4,0C98.7,157,98.6,156.8,98.2,156.8z M97.4,157.6c-0.6-0.1-0.8,0.2-0.3,0.2c0.5,0,0.8,0.2,1.2,0.5
		c0.4,0.3,0.6,0.3,0.2,0C98.1,158,98,157.7,97.4,157.6z M96.3,160.6c0.2,0.6,0.4,0.6,0.3,0.3c-0.1-0.3,0-0.4,0-0.9
		C96.5,159.5,96.1,160,96.3,160.6z M97.8,161.1c0,0.8,0,1.3,0.1,0.9c0.1-0.4,0.2-1,0.2-1.4C97.9,159.5,97.8,160.3,97.8,161.1z"/>
	<path class="st4" d="M69,152c-0.4,0.1-0.9,0.3-1.5,0.2c-0.8-0.1-1.6-0.7-2.4-1.4c-0.8-0.6-1.3-1.1-1.8-1.3c-0.5-0.2-1.4,0.5-2.2,1
		c-0.8,0.6-1.6,0.8-2.2,1.3c-0.6,0.5-0.2,0.8-0.8,1.4c-0.6,0.5,0,0.8,0.5,0.9c0.5,0.1,1.2-0.3,2-0.8c0.8-0.5,1.1-1.2,1.9-2
		c0.8-0.8,1.3-0.5,2.1,0.1c0.7,0.6,1.4,1.1,2.3,1.2c0.9,0.2,1.9,0,1.9,0s-0.4,0.3-1.5,0.3s-2-0.7-2.4-1.1c-0.5-0.3-1.1-0.6-1.5-0.6
		c-0.4,0-0.9,0.4-1.4,1.2c-0.5,0.8-1.4,1.3-2.1,1.9c-0.6,0.6-0.3,0.9-0.6,1.3c-0.2,0.4-0.3,0.6,0,0.9c0.3,0.4,0.8,0.6,1.5,0.5
		c0.6-0.2,1.1-0.3,1.2-1c0.2-0.6,0.5-0.7,0.8-1.4c0.4-0.6,0.6-0.3,1-0.2c0.4,0,0.7,0,1.1-0.3c0.4-0.4,0.5,0.2,1.1,0.4
		c0.5,0.3,1.3,0.3,2.1,0.1c0.8-0.2,0.6,0.1,0,0.3c-0.6,0.3-1.9,0-2.2,0c-0.4,0-0.8-0.3-2,0.2c-1.2,0.5-1.1,0.9-1.4,1.9
		c-0.2,1-1.1,1.3-1.4,1.9c-0.3,0.6,0,0.5,0.4,0.5c0.4,0,0.2,0.5,0,1c-0.2,0.5,0.4,0.6,1.1,0.5c0.8,0,0.9-0.8,1.1-1.2
		c0.2-0.4,0-0.7,0.4-0.7c0.4,0,0.6-0.4,0.7-0.9c0.1-0.5,0.2-0.1,0.5-0.1c0.2,0,0.5-0.3,0.6-0.5c0.1-0.2,0.2-0.5,0.4-0.1
		s0.6-0.2,0.8-0.5c0.2-0.2,0.5,0,0.9,0.2c0.5,0.2,0.8,0,1.2-0.3c0.4-0.3,0.2,0.1,0.7,0.5c0.5,0.5,0.8,0.6,1.2,0.3
		c0.3-0.3,0.5-0.4,0.3,0.2c-0.2,0.6,0,0.5,0.2,0.6c0.2,0.2-0.2,0.4-0.7,0.7c-0.6,0.3-0.5,1.2-0.4,1.5c0.2,0.3,0.8,0.8,1.1,0.7
		c0.2-0.1,0.7-0.8,1-0.8c0.3,0,0.8-0.2,0.8-0.6c0-0.4,0-1.1,0.2-1.3c0.2-0.3,0.6-0.9,0.3-1.6c-0.2-0.7-0.9-0.8-1.6-1.1
		c-0.6-0.4-0.6-1.4,0-2.4c0.2-0.3,0.5-0.6,0.9-0.9l0.1-0.1c-2,0.4-3.3-0.1-4.1-0.9L69,152z"/>
	<path class="st4" d="M57.7,153c0.1-0.4,0-0.5-0.3-0.5s-1.2,0.8-1.1,2.1c0,0,0.4-0.8,0.6-0.9C57.1,153.6,57.6,153.5,57.7,153z"/>
	<path class="st4" d="M58.7,155.7c0.1-0.4-0.3-0.3-0.7-0.1c-0.4,0.2-0.7,1.5-0.2,2.4c0,0,0.2-0.2,0.3-1.1
		C58.3,156,58.6,156.3,58.7,155.7z"/>
	<path class="st4" d="M60.6,162.9c0,0,0.3-0.8,0.3-1.4c0-0.6,0.3-1.3,0.1-1.3c-0.2,0-0.8,0-0.9,0.8C59.9,161.8,60,162.4,60.6,162.9z
		"/>
	<path class="st4" d="M71.4,163.7c0,0,0.6-1,0.6-1.4c0-0.4,0.4-0.9,0.7-1c0.3,0,0.2,0.6,0.1,1.2C72.7,163.1,72.3,163.6,71.4,163.7z"
		/>
	<path class="st4" d="M95.6,151.1c-0.8,0-1.3-0.2-1.7,0.2c-0.4,0.3-0.6,0.6-0.1,0.6c0.5,0,0.4,0.4-0.2,0.3c-0.6-0.1-0.8,0.1-1.1,0.5
		c-0.3,0.3,0,0.6,0.3,0.6c0.3,0,0.3,0.3-0.4,0.3c-0.7,0-1,0.5-1,0.9s0.2,1.4,0.5,1.4c0.3,0.1,0.3,0,0.5-0.5c0.2-0.5,0.5-0.3,0.6,0
		c0.1,0.3,0.1,0.8,0.6,0.8c0.5,0,0.6-0.2,0.7-0.8c0.1-0.6,0.1-1.2,0.4-1.7c0.3-0.5,0.9-0.9,1.1-1.3C95.9,152,96.3,151.2,95.6,151.1z
		"/>
	<path class="st4" d="M98.1,150.4c-0.7-0.2-1.2,0.3-1.4,0.6c-0.2,0.3-0.3,0.4,0.1,0.5c0.4,0.1,0.8,0.4,0.2,0.4
		c-0.6,0-1.2,0.7-0.9,0.7c0.3,0,1.2,0.5,0.6,0.4c-0.6,0-0.9,0.2-1.3,0.6c-0.4,0.4-1.1,1.3-0.8,1.6c0.3,0.2,0.7,0.4,0.9,0.1
		c0.2-0.3,0.5-0.9,0.8-0.5c0.3,0.4,0.5,0.5,0.9,0.5c0.4,0,0.9-0.9,1.3-1.4c0.4-0.6,0.7-1.3,0.6-2C99,151.1,98.7,150.6,98.1,150.4z"
		/>
	<path class="st4" d="M101,151.2c-0.7-0.1-0.8,0.1-1,0.6c-0.2,0.6-0.2,0.5,0.3,0.5c0.5,0.1,1,0.1,0.3,0.1c-0.7,0-0.9,0.1-1,0.4
		c-0.1,0.3,0.1,0.2,0.7,0.3c0.6,0,0.5,0.2-0.1,0.2c-0.6,0-1,0.2-1.2,0.6c-0.2,0.4-0.3,0.8,0,1.3c0.2,0.5,0.5,1.3,0.8,0.4
		c0.3-0.9,0.8-0.9,0.8-0.2s0.2,0.9,0.6,0.4c0.5-0.5,1.1-1.1,1.2-2.2C102.3,152.6,102.2,151.4,101,151.2z"/>
	<path class="st4" d="M94.3,160.9c0,0-0.2,1.1-0.1,1.7c0.1,0.6,0.6,1.2,0.6,0.6c0-0.6-0.2-0.6-0.3-1.1
		C94.4,161.7,94.3,160.9,94.3,160.9z"/>
	<path class="st4" d="M92.8,157.9c0,0,0.2-1.1,0.1-1.5c-0.1-0.4-0.2-0.5-0.4-0.3C92.3,156.4,92.5,157.2,92.8,157.9z"/>
	<path class="st4" d="M95.8,155.5c-0.4,0.1-0.5,0.4-0.8,0.3c-0.3-0.1-0.2,0.5-0.1,1c0.1,0.6,0.5,1.3,0.5,1.3s0-0.6,0.3-1.4
		C95.9,156,95.9,155.5,95.8,155.5z"/>
	<path class="st4" d="M100.1,156.3c-0.2,0-0.6,0.4-0.7,0.7c-0.1,0.3,0.1,1.6,0.1,1.6s0.6-0.6,0.6-1
		C100.2,157.3,100.5,156.4,100.1,156.3z"/>
	<path class="st6" d="M73,145.3c0.2,0.6,0.9,0.5,0.9,0.5s0,0.5,1.2,0.8c1.2,0.2,1.9-0.2,2.9-0.5c0.9-0.3,1.9-0.3,1.9-0.3
		c-0.3,1-0.9,2.1-0.7,3.1c0.2,0.9,0.3,1.8,0.3,2.7c0,0.9-0.6,1.4-0.6,1.4s-0.6-2.4-0.8-3.8c-0.2-1.4,0.1-2.3,0.1-2.3s-0.3,0-1.3,0.4
		c-1.1,0.4-1.4,1.6-1.4,1.6s-1.1,0.1-1.9,1s0.1,2.3,0.1,2.3c-3.2,0.8-4.5-0.5-4.7-1.3c-0.2-0.6,0.1-1.5,0.7-2.4
		c0.6-0.8,0.8-1.4,0.8-1.4s0.9,0.1,1.6,0.5c0.6,0.4,0.8,0.3,0-0.4c-0.8-0.7-1.4-0.6-1.4-0.6s-0.1-0.3,0.3-1c0.4-0.7,0.7-1.2,0.7-1.2
		S72.9,144.6,73,145.3z M73.1,146.3c-0.3-0.1-0.5,0.5-0.1,0.5C73.4,146.9,73.8,146.5,73.1,146.3z"/>
	<path class="st7" d="M115.6,130.7c0,0,1.8,0.3,4.3,1.4c2.5,1,5.4,2.5,8.3,4.3c2.9,1.8,5,3.5,6.1,4.6c1.1,1.1,1.5,1.9,0.8,1.4
		c-0.7-0.5-4-2.6-6.9-4.4c-2.9-1.8-6.5-3.4-8.3-4.1c-1.8-0.7-2.8-1-2.8-1s-0.2-0.7-0.7-1.3C115.8,130.9,115.6,130.7,115.6,130.7z"/>
	<path class="st7" d="M112,146.3c0.6,1.3,0.8,1.5,2.2,3.2c1.3,1.7,1.9,2.5,1.8,2.8c0,0.3-1.4-0.1-2.2-0.8c-0.8-0.7-2-2.3-2.5-3.4
		c-0.5-1.1-0.8-1.9-0.5-2.1c0.3-0.2,0.2,0.1,0.9,1.4c0.7,1.3,1.4,1.9,1.4,1.9s-0.7-1.2-1.2-2.1C111.4,146.3,111.2,144.8,112,146.3z"
		/>
	<path class="st7" d="M116.9,133.1c0,0,1.9,0.6,3.3,1.3c1.4,0.6,2.2,1.3,2.6,1.9c0.4,0.6,0.3,1.3-0.7,1.3s-2.4-0.2-4.5-1.4
		c-2.1-1.2-2.8-1.7-2.1-1.9c0.7-0.2,1.7,0.6,2.5,1.1c0.8,0.5,1.7,0.8,1.7,0.8s-1.3-0.8-2.3-1.5c-1-0.7-1.4-0.9-1.4-0.9
		s-0.1-0.4-0.6-0.7C115.5,133,116.2,133.3,116.9,133.1z"/>
	<path class="st7" d="M115,134.7c0,0,2.4,1.7,3.9,2.3c1.6,0.6,3.1,0.8,3.1,0.8s0.7,0.8,1.4,1.7c0.7,0.9,0.8,1.7,0.5,1.9
		c-0.3,0.3-1.6,0.1-2.6-0.4s-2.9-1.6-4.7-3.1c-1.7-1.5-2.4-2.1-2.4-2.1s0-0.5,0.5-0.1c0.5,0.4,3.4,2.4,5.1,3.4c0,0-1.6-1-3.3-2.4
		c-1.7-1.4-1.9-1.8-1.9-1.9C114.5,134.7,115,134.7,115,134.7z"/>
	<path class="st7" d="M113.9,136c0,0,1.9,1.9,4,3.4c2.1,1.5,3.8,2.4,4.4,3c0.6,0.6,1.1,1.9,1.2,2.3c0,0.3-0.2,0.5-1,0.4
		c-0.8-0.1-1.5-0.5-2.7-1.4c-1.2-0.8-2.4-1.7-4.6-3.6c-2.2-1.9-3.6-3.1-3.6-3.4c0-0.3,0.6-0.1,1.4,0.5c0.8,0.6,5.9,4.3,5.9,4.3
		s-2-1.6-3.6-3c-1.6-1.4-2.4-1.9-2.4-2.2C112.9,136,113.1,136.2,113.9,136z"/>
	<path class="st7" d="M112.2,137.9c0.6,0.6,3,2.7,5.2,4.4c2.1,1.7,2.9,2.2,3.2,3.1c0.3,0.9-0.1,1.3-0.8,1.2c-0.7,0-2.3-1-3.6-2.1
		c-1.3-1.1-4-3.8-4.3-4.5c-0.3-0.7-0.1-1.3,0.4-0.6c0.5,0.7,2.5,2.8,4.1,3.9c0,0-1.7-1.5-2.8-2.9c-1.1-1.4-1.9-2.3-2.1-2.7
		C111.2,137.2,111.6,137.3,112.2,137.9z"/>
	<path class="st7" d="M111.7,140.4c0.6,0.6,2.2,2.2,3.3,3.4c1.2,1.2,1.9,1.8,1.9,2.2c0,0.5-0.3,0.9-0.8,0.8
		c-0.4-0.1-1.5-0.8-2.7-1.9c-1.2-1.1-2.1-1.7-2.2-2.4c0-0.6,0-0.9,0.6-0.2c0.6,0.8,2.5,2.4,2.5,2.4s-0.2-0.3-1.4-1.7
		C111.7,141.5,111.2,139.9,111.7,140.4z"/>
	<path class="st8" d="M125.9,86.7c0,0,1.6-2.3,2.9-4c1.3-1.7,2-2.1,2.4-1.6c0.4,0.5,0.2,1.6-0.3,2.9c-0.6,1.4-2.2,3.9-2.9,4.7
		c0,0,2.2-2.9,3.3-3.8c1.1-0.8,2-0.5,2.1-0.1c0.2,1.1-0.3,2.4-2.3,4.6c-2,2.2-4.7,5-4.7,5s-0.8-0.3-1.3,0c0,0,1.7-1.6,2.2-3.3
		c0.5-1.7-0.8-1.9-1.7-1.8C125.3,89.3,126,88.2,125.9,86.7z"/>
	<path class="st8" d="M131.7,89.4c-1,1.1-3.3,3.6-5.3,5.4c0,0,1.3,2.2-2.5,4.2c0,0,0.9-0.1,1.3,0.2c0,0,3.8-2.5,5.3-4
		c1.5-1.5,2.7-3.2,3-4.1c0.3-0.9,0.1-1.6-0.3-2C132.8,88.7,132,89.1,131.7,89.4z"/>
	<path class="st8" d="M116.9,103.2c1.4,0,3.6-0.4,5.5-1.1c1.9-0.7,2.5-1.5,2.5-2.2c0-0.7-1.6-0.4-3-0.2c-1.4,0.2-2.7,0.4-2.7,0.4
		s2.4-0.8,4.2-1.5c1.8-0.7,2.4-1.8,2.6-2.4c0.2-0.6,0.1-1.4-0.5-1.4c-0.6,0-1.3,0.2-2.3,0.8c-1,0.6-2,1.3-2,1.3s0.2-0.2,1.3-1.1
		c1.1-0.9,2.4-2.2,3.3-3.5c0.9-1.3,1-2.1,0.2-2.4c-0.8-0.2-1.4,0.1-2.3,1.3c-0.9,1.2-2.1,2.7-2.1,2.7s0.4-0.8,1.8-2.7
		c1.4-1.9,1.8-3,1.9-4.2c0.1-1.2-0.8-0.6-1.9,0.3c-1,0.9-2.4,2.9-2.4,2.9s0.2,0.7,0.1,2.6c-0.1,1.9,0,3.1-0.4,4.3
		c-0.4,1.2-0.8,1.3-1.5,2.1c-0.7,0.7-1.2,1.4-1.6,2.4C117.2,102.5,116.9,103.2,116.9,103.2z"/>
	<path class="st8" d="M116.7,103.7c0,0-0.3,1.1-1.1,2.3c0,0,2.4,0.3,4.3-0.2c1.5-0.3,3.4-1.7,3.2-2.4c-0.2-0.7-0.5-0.9-2.2-0.5
		C118.9,103.5,116.7,103.7,116.7,103.7z"/>
	<path class="st8" d="M125.5,99.5c0,0,2.2-1.7,3.3-2.3c1.1-0.6,2.8-1.1,3.4-0.8c0.6,0.3,0.4,0.9-1,2.1c-1.4,1.2-3.3,2.8-5.2,3.6
		c-1.9,0.7-2.5,0.9-2.5,0.9s0-0.3-0.5-0.5c0,0,1.3-0.4,2-1.3C125.7,100.2,125.5,99.5,125.5,99.5z"/>
	<path class="st8" d="M123.6,103.4c0,0,0.2,0.8-0.9,1.7c-1.1,0.8-1.8,1-1.8,1s0.7,0.3,1,0.6c0,0,2.9,0.1,4.9-0.8
		c2-0.8,3.6-1.7,4.1-2.4c0.5-0.7-0.2-1.2-1-1.3c-0.9-0.1-2.4-0.2-3.4,0.1C125.4,102.7,123.6,103.4,123.6,103.4z"/>
	<path class="st8" d="M115.5,106.3c0,0-0.8,1.3-2,2.2c0,0,1.9,0.3,3.9,0.3c2.1,0,3.1-0.7,3.7-1.3c0.6-0.6-0.3-0.9-0.9-1.2
		C120.2,106.3,118.1,106.6,115.5,106.3z"/>
	<path class="st8" d="M121.8,107.2c0,0-0.3,1.4-2.8,2.1c0,0,0.6,0.6,0.5,1.2c0,0,2.7,0.4,4.4,0.3s3.9-1.1,4.4-1.5
		c0.5-0.4,0.4-1.1-0.6-1.5c-1-0.4-2-0.7-3.2-0.7C123.5,107.1,121.8,107.2,121.8,107.2z"/>
	<path class="st8" d="M113.1,108.9c0,0-1.6,1.4-2.5,2c0,0,1.1,0.4,3.9,0.6s4-0.3,4.3-0.6c0.3-0.3,0.1-1.4-0.7-1.5
		C117.2,109.3,114.6,109.2,113.1,108.9z"/>
	<path class="st8" d="M119.4,111c0,0-0.5,0.8-2.2,1.1c0,0,0.6,1.2-0.3,1.9c0,0,0.7,0.3,3.3,0.5c2.6,0.2,4.3-0.1,4.9-0.7
		c0.6-0.6,0.6-1.4-0.5-1.7C123.6,111.8,122.7,111.3,119.4,111z"/>
	<path class="st8" d="M110.1,111.2c0,0-0.5,0.2-1.1,0.4c-0.6,0.2-0.8,0.9-1,1.3c0,0,2.7,0.8,4.7,1c2,0.3,3.4,0.1,3.9-0.4
		c0.5-0.5,0.2-1.4-0.5-1.5C115.4,112,112.5,112.2,110.1,111.2z"/>
	<path class="st8" d="M107.9,113.4c0,0-0.5,1.1-1.1,2c0,0,2.7,0.7,4.4,0.9c1.7,0.3,2.6,0.1,3-0.4c0.4-0.5,0-1.4-1.1-1.5
		C111.8,114.4,109.9,114.1,107.9,113.4z"/>
	<path class="st8" d="M114.7,114.7c0,0,0.6,1.3-0.9,2.1c0,0,3.6,0.8,5.4,0.8c1.9,0,3.1-0.6,3.3-1c0.2-0.4-0.4-1.2-1.4-1.4
		c-1.6-0.3-2.8-0.5-4.6-0.8C116.6,114.5,115.9,114.6,114.7,114.7z"/>
	<path class="st8" d="M106.6,115.9c0,0-0.5,1.2-1.6,1.9c0,0,1.4,0.5,3.7,0.8c2.3,0.3,3.2,0.2,3.4-0.5c0.2-0.6-0.4-1.1-2.1-1.5
		C108.4,116.2,106.6,115.9,106.6,115.9z"/>
	<path class="st8" d="M112.3,117.1c0,0,0.5,0.5,0.3,1.3c-0.2,0.8-2.1,1-2.1,1s0.5,0.5,0.5,0.8c0,0,1.4,0.5,4.7,0.6
		c3.3,0.2,4.5-0.3,4.9-0.5c0.3-0.2,0.1-1.2-0.8-1.7c-0.9-0.5-2.2-0.7-4.1-1C113.7,117.4,112.3,117.1,112.3,117.1z"/>
	<path class="st8" d="M104.6,118.1c0,0-0.9,0.6-1.4,1.2c0,0,0.7,0.7,2.2,1.3c1.5,0.6,3,0.6,3.8,0.4c0.8-0.2,1.3-0.9,0.7-1.3
		c-0.6-0.4-1.3-0.6-2.8-0.9C105.6,118.5,104.6,118.1,104.6,118.1z"/>
	<path class="st8" d="M103,119.5c0,0-0.2,0.5-0.8,1.8c-0.6,1.3-0.5,1.4-0.5,1.4s1.3,0.6,2.2,0.8c0.9,0.2,2-0.1,2.5-0.1
		c0.6,0,0.8-0.9,0.5-1.3c-0.3-0.4-0.4-0.6-1.7-1.2C103.8,120.2,103,119.5,103,119.5z"/>
	<path class="st8" d="M107.3,121.6c0,0,0.2,0.8,0,1.4c0,0,1.1,0.4,3.5,0.9c2.4,0.5,4.1,0.3,4.9,0.2c0.8-0.1,1.2-0.9,0.4-1.6
		c-0.8-0.8-0.9-1-2.9-1.3c-2-0.3-2.4-0.4-2.4-0.4s-0.3,0.4-1.5,0.6C108.2,121.6,107.3,121.6,107.3,121.6z"/>
	<path class="st8" d="M107.1,123.4c0,0-1.1,0.5-2.4,0.5c0,0,0.2,0.8,1.5,1.4c1.3,0.7,3,1.4,4.3,1.6c1.3,0.2,2.2-0.3,2.5-0.7
		c0.2-0.4-0.2-1.1-1-1.4c-0.8-0.3-1.5-0.4-2.9-0.8C107.8,123.6,107.1,123.4,107.1,123.4z"/>
	<path class="st5" d="M122.4,127.8c0,0,2.4,0.1,4.4-0.2c2-0.2,3-0.6,3.6-1.2c0.6-0.6,0.8-1.7-0.7-1.7c-1.5,0-5.9,0.2-8.6-0.1
		c-2.7-0.2-2.7-0.2-2.7-0.2s3.6,0,7.5,0c3.8,0,6.4,0,8.3-0.7c1.9-0.7,2.5-1.6,2.7-1.9c0.2-0.3,0.3-0.9-0.8-1.3
		c-1-0.3-2.4-0.6-4.3-0.6c-1.9,0-5.6,0.5-7.7,0.6c-2.1,0.2-2.7,0.2-2.7,0.2s-0.4,0.2-1.4,0.4c-2,0.4-4,0.3-4,0.3s0.4,0.3,1.4,0.6
		c1,0.3,3.3,0.3,6.8,0.3c3.4,0,6-0.2,6.7-0.3c0.7-0.1,0.5,0.1-0.5,0.3c-1,0.2-3.9,0.4-6.6,0.4c-2.7,0-5.4,0.1-6,0
		c-0.6-0.1-1-0.3-1-0.3s0.7,0.8,0.6,1.2c-0.1,0.5-0.8,0.6-2,0.8s-1.1,0.2-1.1,0.2s1.6,0.3,4.7,0.6c3.2,0.3,4.2,0.6,0.7,0.4
		c-3.5-0.2-6.1-0.6-6.1-0.6s0.4,0.6,0.3,1c-0.1,0.4-0.1,0.5,2.4,0.8c2.5,0.3,3.5,0.4,3.5,0.4s-1.1,0.1-3.4-0.2c-2.3-0.3-3-0.5-3-0.5
		s-0.8,0.5-1.7,0.6c0,0,1,0.4,1.3,0.8c0,0,1,0.1,4.2,0.6c3.2,0.5,4.1,0.6,5,0.5c0.9,0,1.6,0.2-0.3,0.2c-1.9,0-2.4-0.1-5-0.5
		c-2.6-0.3-3.7-0.5-3.7-0.5s0.2,0.4,0.2,0.7c0,0,1.7,0.1,2.3,0.9c0,0,0.9,0.1,2.2,0.5c1.4,0.4,2.2,0.8,3.8,0.7
		c1.6,0,2.9-0.4,3.3-1.1c0.4-0.6,0.1-1.4-0.2-1.8C124.1,128.1,122.4,127.8,122.4,127.8z"/>
	<path class="st5" d="M120.3,118.4c0,0,1.3,0.9,1.2,2c0,0,3.2-0.2,6.9-0.6c3.6-0.3,5.8-0.6,8.4-1.6c2.6-0.9,3.6-1.8,3.3-2.6
		c-0.3-0.8-2.1-1.2-3.3-1.2s-2.3,0.2-6.5,1.3c-4.1,1.1-5.7,1.5-7.7,1.5c0,0-0.4,0.4-1.2,0.6c0,0,0.8,0.4,4.5,0.2
		c3.7-0.2,7.4-0.9,8.7-1.3c1.4-0.4,1.4-0.1-0.9,0.5c-2.3,0.6-5.6,1.3-8.7,1.4C122,118.9,120.3,118.4,120.3,118.4z"/>
	<path class="st5" d="M124.3,111.4c0,0,4.5-0.5,8.8-2.5c2.9-1.3,6.1-3.1,6.1-3.1s-3.1,2.1-6.3,3.6c-3.2,1.4-7.8,2.4-7.8,2.4
		c1.4,0.4,1.1,1.6,1.1,1.6s2.8-0.7,6.2-1.7c3.3-1.1,5-1.9,5-1.9s-0.2,0.2-3.2,1.5c-3,1.3-8,2.5-8,2.5c-0.3,0.3-0.9,0.9-0.9,0.9
		s1.6,0,4.9-0.9c3.3-0.8,5.9-2.1,8.2-3c2.3-0.9,1.4-0.4-1.3,0.8c-2.7,1.2-6.4,2.5-9.4,3.1c-3,0.6-5,0.8-5,0.8
		c1.1,0.7,0.6,1.5,0.6,1.5s2.2-0.1,5-0.9c2.8-0.8,7.1-1.9,9-2.6c1.9-0.7,6-2.6,7.3-3.5c1.2-0.9,2.2-1.9,1.6-2.5
		c-0.5-0.7-1.7-0.5-2.8-0.3c-1.1,0.3-3.5,1.2-4.4,1.7c0,0,0.9-1.2,2.5-2.3c1.6-1.1,3.5-2.4,4.6-3.5c1.1-1.1,1.9-2,1.5-2.5
		c-0.3-0.6-1.4-0.6-3.7,0.6c-3,1.6-5.4,2.8-5.4,2.8s4.3-3.2,6.6-5.7c2.3-2.5,4.2-4.9,4.6-5.8s0.4-1.2,0-1.4
		c-0.4-0.2-1.9,0.6-3.8,1.9c-1.9,1.3-4.2,3.6-6.5,5.3c-2.3,1.7-3.1,2.2-3.1,2.2s3.9-3.2,5.5-4.9c1.6-1.7,2.7-3.1,4.6-6
		c1.9-2.9,2.4-4.4,2.7-5.6c0.3-1.2,0.4-1.6,0.2-1.9c-0.3-0.2-0.7,0.2-2.4,1.7c-1.7,1.6-3.2,2.8-4.5,4.6c-1.3,1.7-2.6,3.8-4.3,5.5
		c-1.7,1.7-2.7,2.3-2.7,2.3s2.3-1.9,4-4.3c2.5-3.5,3.9-6,5.2-8.5c1.3-2.5,2.7-5.7,3-7.3c0.3-1.6,0.5-2.9,0-3.3
		c-0.5-0.4-1.7,1.1-2.4,2.2c-0.6,1.1-1.7,3.2-2.8,4.8c0,0,1.6-3.4,2.5-7.4c0.9-4,1.4-8.3,1.4-9.9c-0.1-1.6-0.2-2.7-0.9-1
		c-0.9,2.1-2.4,5.6-3.9,9c-1.6,3.3-4.1,8.3-4.1,8.3s1.6-4.1,1.9-6.2c0.4-2.1,0.8-5.4,0.7-7.1c-0.1-1.7-0.2-2.3-0.5-2.5
		c-0.4-0.2-0.8,1.2-1.4,3c-0.5,1.9-1.1,4.7-2.2,7.5c-1.1,2.8-1.2,2.9-1.2,2.9s0.5,1.2,0.5,1.9c0,0.8,0,0.8,0,0.8s1.3-2.5,2.1-5.7
		c0.8-3.2,1.2-5.1,1.2-5.1s-0.5,4.6-1.7,8c-1.2,3.3-2.6,5.4-3.9,7.3c0,0,1.3-0.1,1.4,0.9c0,0,1.7-2.5,2.8-4.8c0,0-1.5,3.5-2.9,5.8
		c0,0-0.1,1.1-1.2,2.5c0,0,0.5,0,0.9,0.3c0,0,3.3-4.5,5.7-9.1c2.4-4.6,3.3-7.3,3.3-7.3s-1.3,4.4-3.9,9.1c-2.6,4.7-4.7,7.7-4.7,7.7
		s0.5,1,0.2,2.2c0,0,3.5-3.8,5.5-7c2-3.2,2-3.2,2-3.2s-1.6,3.7-4,6.7c-2.4,3-4,4.7-4,4.7s-0.9,1.5-2.2,2.8c0,0,3.8-1.9,6.9-5.8
		c3.2-3.9,5.5-8.5,5.5-8.5s-1.8,4.6-5.2,8.8c-3.5,4.2-7.1,6.3-7.1,6.3s1.6-0.5,1.9,0.4c0.3,0.8-0.5,2.4-5.7,5.4c0,0,1-0.1,1.6,0
		c0,0,3.5-1.9,6.5-4.1s5.2-4.7,5.2-4.7s-2.9,3.7-5.7,5.6c-2.8,1.9-5.2,3.2-5.2,3.2s1.4,0.2,1.6,1.1c0,0,2.5-1,4.1-2.1
		c0,0-1.8,1.4-4,2.4c0,0,0.3,1.5-4.4,3.2c0,0,3.5-1.2,6.5-2.9s8.5-5.8,8.5-5.8s-3,3-7.6,5.7c-4.6,2.7-7.2,3.7-7.2,3.7s1.6,0.5,2,1.2
		c0,0,5-2,7.7-3.5c0,0-4.3,2.6-7.6,3.9c0,0,0,0.9-1.5,1.5C126.3,110.8,124.3,111.4,124.3,111.4z"/>
	<path class="st5" d="M131.1,84.3c0,0,1.1-1.5,0.7-3.5c0,0,1.5-2.6,1.7-3.7c0.3-1.1,0.5-1.1,0.8,0.2c0.3,1.3,0.5,2.1-0.5,3.6
		c-1,1.6-1.9,2.9-1.9,2.9S131.5,84,131.1,84.3z"/>
	<path class="st5" d="M119.5,87.5c0,0-0.1,2.6-0.7,5.4c-0.6,2.8-1.3,5.2-2.4,7.4c-1.1,2.2-2.4,4.9-6.6,7.9c-4.2,2.9-7.8,5.2-9.3,6.5
		c-1.5,1.3-3.1,3.5-3.4,5.2c0,0-1.3,0.3-1.9,0.6c-0.7,0.3-1.6,0.8,0,0.7c1.6,0,1.8-0.3,2.1-0.7c0.2-0.4,0.3,0.2,0.5,0.6
		s0.5,0.8,0.5,1.5c-0.1,0.7-0.1,0.7-0.1,0.7s1.4,0.1,2.1-0.3c0.6-0.3,1-0.4,1-0.4s0.7-1.7,1.1-2.7c0.4-0.9,1-1.4,1.9-2.2
		c0.9-0.7,1.8-1.7,2.7-3.5c0.9-1.8,0.9-2.9,1.7-3c0.9-0.1,1.9-1,3-1.9c1.1-0.9,2.3-1.8,3.1-2.8c0.8-1,1.8-3.3,2.3-4.6
		c0.5-1.4,0.7-2,2-3.2c1.3-1.2,1.3-2.2,1.4-3.5c0.2-1.3,0.4-3.6,0.1-5.3C120.3,88.3,119.5,87.5,119.5,87.5z"/>
	<path class="st5" d="M95.3,121.6c0.9,0,1.6,0,1.9-0.3c0,0,0.7,0.6,0.7,1.1c0,0.5-0.3,0.9-0.3,0.9s-0.6,0.4-1.5,0.8
		c-0.4,0.2-0.5,0-0.9-0.3c-0.3-0.3-0.5-0.6,0.5-1c0.9-0.4,1.4-0.9,0.2-0.3c-1.2,0.5-1.6,1.3-1.5,0.5
		C94.5,122.3,94.3,121.6,95.3,121.6z"/>
	<path class="st5" d="M95.7,125.8c-0.8,0-2.4,1.2-2.4,1.2c-0.5-0.2-1.3,0-1.3,0s0-0.4,0-1.3c0-0.9-0.8-1.3-0.8-1.3
		c0.3-0.9-0.2-1.1-0.7-1.2c-0.5-0.1-0.1-0.6,0.3-0.7c0.3-0.1,1.2-0.4,2.3-0.6c0.8-0.2,1.5-0.1,1.1,0.8c-0.3,0.9-0.9,1.2-0.9,1.2
		s1.2-0.3,1.7,0.2C95.5,124.5,95.7,125.8,95.7,125.8z"/>
	<path class="st5" d="M102.4,124.2c0.1,0.6-0.2,1.2-1.3,1.3c-1.1,0.1-1.9-0.2-1.9-0.2s0,0.7-1,0.7c-1,0-2.1-0.3-2.1-0.3
		c-0.2-0.6-0.1-1.1,0.8-1.5c0.8-0.4,1.1-0.5,1.1-0.5s0.9,0.2,2-0.1c1.1-0.3,1.5-0.5,1.5-0.5S102.3,123.5,102.4,124.2z M100.6,124.2
		c-0.3-0.1-0.4,0.4-0.8,0.3c-0.5,0,0.2,0.3,0.6,0.3C100.8,124.9,101.3,124.3,100.6,124.2z"/>
	<path class="st5" d="M89.6,123.4c-0.5,0-2.5,1.4-3.2,2.2c-1.7,2.1-1.5,4-1.5,4s2.3-2,4.9-1.9c0,0,1.2-0.6,1.5-0.8
		c0.3-0.2,0.2-0.8,0-1.3c-0.2-0.5-0.2-0.7-1.3-0.5c-1.1,0.2-2.5,0.8-3.7,2.1c0,0,0.3-1.2,1.8-1.8c1.5-0.6,2.4-0.8,2.5-0.9
		c0.1-0.2,0.4-0.7-0.1-0.8C90.1,123.4,89.8,123.4,89.6,123.4z"/>
	<path class="st5" d="M86.4,133.1c0,0,0.5-1,1.4-2.2c0.9-1.2,1.3-1.9,2.2-2.5c0.9-0.7,1.9-1.3,2.5-1c1.3,0.6,0.9,1.9,0.2,1.9
		c-0.6,0-2,1.3-3.3,2.2c-0.7,0.5-1.5,0.9-2,1.2c0,0,0.7-0.9,1.4-1.6L86.4,133.1z"/>
	<path class="st5" d="M93.5,127.3c0,0,1.2-0.9,1.8-1c0.6-0.1,1.7,0.3,2,0.3c0.3,0,0.3,1,0.2,1.6c0,0.5-0.7,0.5-1.3,1.1
		c-0.5,0.6-1,0.5-1,0.5s0-0.7-0.6-0.7c-0.6,0-0.9,0-0.9,0S94,127.9,93.5,127.3z"/>
	<path class="st5" d="M91,133.3c0,0,0.6-1.3,0.6-2c0-0.7,0.1-1,0.1-1s1-0.9,1.9-0.9c0.9,0,1.3,0.3,1.3,1.3c0,1-0.3,1.7-0.8,1.9
		c-0.5,0.2-1,0.5-1.9,0.9c-0.9,0.5-1.7,0.8-1.7,0.8s1-1.1,1.6-1.7c0.6-0.6,0.9-1.3,0.9-1.3L91,133.3z"/>
	<path class="st5" d="M92,121.5c0,0-1.7,0.3-2.3,1.2c0,0-1.2-0.9-1.6-1c0,0,0.3-0.7-0.3-1.3c-0.7-0.6-0.8-1.1-0.9-2.1
		c-0.1-1-0.5-1.9-0.5-2.6c0-0.6,0.1-0.5,0.5-0.6c0.3-0.2,0.2-0.3-0.6-0.6c-0.8-0.3-2.4-0.9-3.5-1.7c-1.2-0.8-2-0.9-2-0.9
		s-0.8-1.1-1.5-1.5c-0.7-0.3-0.6-0.7-1.4-1.5c-0.8-0.8-0.8-1.3-1.7-2.3c-0.9-1.1-0.8-1.4-0.7-1.8c0.2-0.4,0.3-0.3-0.6-0.9
		c-0.9-0.6-2-0.9-2.7-2c-0.6-1.1-0.5-1.4-0.9-2.4c-0.4-1-0.4-1.9-0.1-2c0.3-0.1,0.1-1.4-0.3-2.4c-0.3-1-0.3-2.1,0-3.5
		c0.3-1.4,0.6-1.6,0.9-0.4c0.3,1.2,1.1,4.9,2.7,8.1c1.7,3.2,3.4,5.8,7.1,8.3c3.7,2.5,5.8,4.1,7.4,5.3c1.5,1.2,2.6,3,2.9,4.4
		C92,118.8,92,121.5,92,121.5z"/>
	<path class="st5" d="M69.5,93.4c-0.4-0.3-0.8-0.4-0.8-0.4s-0.4-2-0.5-4.7c-0.2-2.7-0.2-5.5,0-9.5c0.1-1.9,0.3-6,1.5-8.7
		c0.8-1.9,2.6-4.4,3.9-5.8c1.3-1.5,2.4-2.5,2.7-2.4c0.3,0.1,0.1,0.4-0.6,1.6c-0.7,1.2-2.1,3.6-3.5,7.5c-1.4,3.9-1.9,8.9-1.9,12.2
		c0,3.3,0.2,7.3,0.2,7.3C70,91.6,70,93.3,70,93.3s-0.3-1.7-0.5-5.2c-0.2-3.5-0.1-10.7,0.4-13.6c0,0-0.8,4.3-0.8,10.1
		C69.1,91.2,69.5,93.4,69.5,93.4z"/>
	<path class="st5" d="M68,90.6c0,0-0.5-4.9-0.2-9.5c0.2-4.6,0.6-7.5,0.9-9.2s0.6-2.7,0.5-3.2c-0.2-0.6-0.8-0.6-1.4,0.3
		c-0.6,0.9-1.8,4.2-2.4,5.9s-0.9,4.8-0.9,7c0,2.2,0.3,4,0.3,4s0.6,0.3,1.1,1.1c0,0,0-6,0.4-8.8c0,0,0.1,3.6,0.1,6.1
		c0,2.5,0.1,3.3,0.1,3.3S66.9,88.5,68,90.6z"/>
	<path class="st5" d="M64.4,76.7c0,0-0.6-2.6-0.5-5.5c0.1-2.9,0.5-4.1,0.2-4.2c-0.3,0-1.2,1.2-1.6,2.4c-0.5,1.3-1.1,4.3-1.4,6.9
		c-0.3,2.6-0.2,4.4,0.2,7.3c0.3,2.8,0.7,4.9,2.5,7.9c0,0-0.3-1.6,0.4-1.6c0,0-2.5-4.6-1.9-11.6c0,0,0,7.1,2.3,11
		c0,0-1.2-2.6-0.2-3.4C64.2,85.8,63.6,81.5,64.4,76.7z"/>
	<path class="st5" d="M59.6,77.8c-0.4-0.4-1.2-0.1-1.3,0.8c-0.1,0.9-0.1,3.3,0.1,5.8c0.2,2.5,1,4.1,1.9,6.2c0.9,2.1,3.1,5.4,3.1,5.4
		s-0.3-0.9,0-1.6c0,0-2.1-3.1-3.1-6.5c-0.9-3.4-0.9-5.3-0.9-5.3s0.3,3.1,1.6,6.3c1.3,3.2,2.6,5.2,2.6,5.2s0.3,0,0.6,0
		c0,0-0.8-0.9-0.9-2.2c0,0-1.7-2.4-2.4-5.1c-0.8-3.4-0.8-5-0.9-6.6C60.2,79,60,78.2,59.6,77.8z"/>
	<path class="st5" d="M66.6,105.4c0,0-2.7-1.6-5.1-4.2c-2.4-2.6-3.4-4.3-4.2-6c-0.8-1.7-1.2-3.2-0.8-3.5c0.4-0.2,0.9-0.2,1.4,0.7
		c0.6,0.9,3.9,5.8,3.9,5.8S61,97,59.3,94.5c-1.6-2.5-2.2-4.3-2.7-5.8c-0.4-1.5-0.5-3-0.2-3.1c0.3-0.2,1.1,0.2,1.4,0.7
		c0.3,0.5,1,2.2,2.7,5.6c1.7,3.3,3.6,6,3.6,6s-0.5,0.3-0.5,0.8c0,0-1.6-2.1-2.8-4.4c-1.3-2.3-1.9-3.7-1.9-3.7s1.2,3,2.6,5.4
		c1.4,2.4,2.2,3.5,2.2,3.5s0.3,1.4,1.2,2.5c0,0-1.9-1.9-2.6-2.7c0,0,1.4,2,2.8,3.4c0,0,0.2,0.5,0.4,0.9c0,0-2.2-1.9-4-4.2
		c-1.9-2.3-2.3-3.1-2.3-3.1s1.2,2.4,3.1,4.6c1.9,2.2,3.3,3.2,3.3,3.2S66,104.7,66.6,105.4z"/>
	<path class="st5" d="M66.3,105.7c0,0-2.8-1.7-5-4.1c-2.2-2.5-3.1-3.7-3.6-4.1c-0.5-0.4-1,0.1-0.9,0.6c0,0.6,0.9,2.9,2.8,4.6
		c1.9,1.7,4.4,3.6,7.3,5c0,0-0.5-0.6-0.5-1.2c0,0-3.3-1.7-5.6-4.1c0,0,2.8,2,5.5,3.7C66.3,106.2,66.3,106.1,66.3,105.7z"/>
	<path class="st5" d="M68.8,109.6c0,0-0.9-0.5-1.5-1.1c0,0-2.5-1-4.9-2.8c-2.4-1.9-3.6-2.8-4.1-3c-0.5-0.2-0.8,0-0.5,0.9
		c0.3,0.9,1.5,2.3,3,3.4c1.5,1.1,5.5,3.7,8.2,4.9c0,0-0.5-0.6-0.6-1.3c0,0-5.3-2.7-8.5-5.4c0,0,4.1,2.9,8.5,4.9
		C68.4,110,68.5,109.6,68.8,109.6z"/>
	<path class="st5" d="M69.3,112.3c0,0-2.1-0.8-4.9-2.5c-2.8-1.8-3.8-2.4-4.3-2.1c-0.5,0.3-0.2,1.3,0.6,2.2c0.8,0.9,2.1,2.3,4.3,3.5
		c2.2,1.3,5,2.5,7.1,3c0,0-0.8-0.5-1-1.2c0,0-4-1.6-5.8-2.8c-1.8-1.2-2.3-1.7-2.3-1.7s3.3,2.4,8,3.9c0,0,0-0.5,0.2-0.6
		C71.2,114,70.3,113.4,69.3,112.3z"/>
	<path class="st5" d="M74.2,117.8c0,0-1.1-0.5-1.8-1c0,0-2.1-0.1-4.6-1.3c-2.5-1.1-3.6-1.7-4.4-2.1c-0.8-0.3-0.9,0.1-0.6,0.7
		c0.3,0.6,1,1.6,3.4,2.9c2.4,1.3,5.6,3.2,9.6,3.3c0,0-0.8-0.5-1.4-1.1c0,0-3.5-0.8-6-2.1c-2.5-1.3-3.1-1.7-3.1-1.7s4.7,2.5,8.8,3.2
		C74,118.6,73.8,118.2,74.2,117.8z"/>
	<path class="st5" d="M76,121c0,0-2.3-0.1-5.9-1.5c-3.6-1.4-4-1.9-4.3-1.3s0.3,1.4,1.4,2.1c1.1,0.7,2,1.3,4.9,2.4
		c2.9,1.1,5.4,1.6,6.6,1.7c0,0-1.4-0.4-2.2-1.3c0,0-2.1-0.2-4.8-1.3c-2.7-1.1-3.9-2.2-3.9-2.2s4.2,2.6,8.2,2.9
		C76,122.3,75.5,121.8,76,121z"/>
	<path class="st5" d="M78.8,124.6c0,0-2.1-0.1-4.8-1c-2.7-0.9-3.7-1.4-3.7-0.5c0,0.9,0.7,1.3,2.4,2.1c1.7,0.8,5.4,1.9,8,1.9
		c0,0,0.2-0.3,0.3-0.4c0,0-0.5-0.1-1.2-0.6c0,0-4-0.3-6.2-1.6c0,0,3.8,1.1,5.7,1.1C79.2,125.6,78.8,125.3,78.8,124.6z"/>
	<path class="st5" d="M80.6,127.4c0,0-1.1,0.2-3.9-0.5c-2.8-0.7-4.6-1.7-4.6-0.9c0.1,0.8,0.4,1.1,1.7,1.7c1.4,0.6,3.3,1,5,1.1
		c1.8,0.1,2.5,0,2.5,0s-0.8-0.2-0.9-0.6c0,0-4.3-0.2-6.5-1.3c0,0,3.5,0.9,6.5,0.9C80.5,128,80.4,127.8,80.6,127.4z"/>
	<path class="st5" d="M83.3,129.3c0,0-1.1,0.3-3.2,0.2c-2.1-0.1-3.5-0.5-3.3,0.2c0.2,0.7,0.8,1,1.7,1.3c0.8,0.3,1.7,0.5,2.7,0.5
		s1.3,0,1.3,0s0.4-0.7,0.4-0.9c0,0-2.3,0.2-3.8-0.3c0,0,3.1,0.1,3.8-0.1C82.9,130.1,83,129.7,83.3,129.3z"/>
	<path class="st5" d="M82.2,131.9c0,0-1,0.1-1.9,0c-0.9-0.1-1.7-0.4-1.6,0.2c0.1,0.5,1.1,1.1,2.2,1.7c0,0,0.3-0.5,0.5-0.8
		c0,0-1-0.3-1.4-0.5c0,0,1.2,0.1,1.7,0.1C81.7,132.6,82,132.3,82.2,131.9z"/>
	<path class="st5" d="M104.2,124c0.3,0.5,1,1.1,1.2,1.6c0.2,0.5-0.6,0.7-1.7,0.5c-1-0.2-1.1-0.7-1.1-0.7c0.6-0.8,0-1.9,0-1.9
		C103.2,124,104.2,124,104.2,124z M103.9,125.1c-0.5-0.1-0.9,0.1-0.5,0.3C103.9,125.6,104.4,125.2,103.9,125.1z"/>
	<path class="st5" d="M102.2,125.8c0,0-1,0.5-2.7,0.1c0,0-0.5,0.7-1.6,0.7c0,0,0.2,0.7,0.2,1.3c0,0,1.9-0.2,2.7,0.9
		c0,0,0.9,0,1.6-0.6c0.6-0.6,0.9-1.2,0.7-1.6C102.9,126.2,102.2,125.8,102.2,125.8z"/>
	<path class="st5" d="M103.5,127.3c0,0,0.2-0.5,0.2-0.6s0.3-0.1,1.1-0.1c0.7,0,1-0.2,1-0.2s1.4,0.5,1.8,1.1c0.4,0.6,0.2,1.4-0.8,1.6
		c-1,0.1-2.5-0.2-3.1-0.2c-0.6-0.1-1.1-0.2-1.1-0.2s0.5-0.4,0.8-0.8c0,0,2.1,0,2.5,0.2c0.5,0.2,0.8-0.2-0.4-0.3
		C104.3,127.5,103.5,127.3,103.5,127.3z"/>
	<path class="st5" d="M102.2,128.9c0,0-0.7,0.3-1.3,0.3c0,0-0.5,0.8-0.6,1.3c-0.2,0.5-0.3,0.9,0.5,0.9c0.8,0.1,1.7,0.4,2.3,0.4
		c0.6,0,1.1,0,1.4-0.3c0.3-0.3,0.7-0.7,0-1.4C103.9,129.3,103.3,129.2,102.2,128.9z"/>
	<path class="st5" d="M100.2,129.3c0.1-0.4-0.1-0.7-0.8-0.9c-0.7-0.3-1.4-0.1-1.4-0.1s0.1,0.5-0.6,0.8c-0.7,0.3-1,0.9-1.4,1.1
		c-0.4,0.2-0.5,0.6-0.5,0.8c0,0.2,1.2-0.1,1.6-0.5c0.4-0.3,0.5,0.1,0,0.3c-0.5,0.3-1.6,0.6-1.6,0.6s0.8-0.1,0.8,0.2
		c0,0.3,1.1,0,1.8-0.3C98.7,131.2,99.7,131.1,100.2,129.3z"/>
	<path class="st5" d="M95.1,135c0,0,1.2-1.3,1.3-2.7c0,0,1.1-0.2,1.6-0.5c0,0,0.1,1.2-0.4,2C97.1,134.6,96.1,135,95.1,135z"/>
	<path class="st5" d="M93.7,137.5c0,0,0.9-0.9,1.6-1.6c0.7-0.7,1.3-0.9,2.5-1.1c1.1-0.2,1.4,0.4,0.5,1.6c-0.9,1.2-1.5,1.3-2.2,1.5
		c-0.7,0.2-0.7-0.3-1.1-0.3C94.5,137.5,93.7,137.5,93.7,137.5z"/>
	<path class="st5" d="M106.4,126.1c0,0,2.5,1.1,4.5,1.4c0,0,0.8,0.5,1.2,0.9c0.4,0.4,0.6,0.9-0.3,0.9c-0.8,0-1.3-0.3-2.4-0.9
		C108.3,127.8,106.4,126.1,106.4,126.1z"/>
	<path class="st5" d="M97.7,134.3c0,0,0.5-0.7,0.6-1.6c0.2-0.9,0.5-1,1.1-1c0.6,0,2,0.3,2.4,0.9c0.5,0.6,0.3,1.7-0.8,1.9
		C100,134.6,98.8,134.2,97.7,134.3z"/>
	<path class="st5" d="M99.2,134.9c0,0,0,0.9-0.3,1.3c0,0,1,0.5,1.7,1.1c0.7,0.6,1.3,1.1,1.7,0.9c0.4-0.2,0.6-0.2,0.4-1.7
		c-0.2-1.5-0.7-2-0.7-2S101.5,135.2,99.2,134.9z"/>
	<path class="st5" d="M102.3,132.3c0,0,0.5,1.1,0.1,1.9c0,0,0.9,1,1.6,1.2c0.7,0.2,0.9,0.4,1.1-0.7c0.1-1.1,0.1-2.2-0.5-2.3
		C103.9,132.2,103,132.5,102.3,132.3z"/>
	<path class="st5" d="M105,131.6c0,0,0.7-1.4-0.1-2.1c0,0,1.3,0.1,1.8,0.1c0.5,0,1.1,1.1,1.4,1.9c0.4,0.9-0.1,1.7-0.5,1.8
		c-0.4,0.1-1.1-0.7-1.6-1C105.5,132,105,131.6,105,131.6z M106.3,130.8c-0.3-0.2-0.5-0.1-0.1,0.3c0.4,0.5,0.9,0.8,0.9,0.6
		C107,131.4,106.6,131.1,106.3,130.8z"/>
	<path class="st5" d="M108.3,128.2c0,0,0.1,0.5-0.3,0.9c0,0,2,1.5,2.5,2.1c0.6,0.6,0.6,0.8,0.6,0.8s-2-1.7-3.5-2.5
		c0,0-0.3,0.1-0.5,0.2c0,0,1.2,0.9,1.4,1.9c0.2,0.8,0.4,1.1,1.7,1.7c1.3,0.5,2.1,0.4,1.9-0.6c-0.2-1-0.8-1.9-1.9-2.8
		C109.2,128.7,108.3,128.2,108.3,128.2z"/>
	<path class="st5" d="M110.9,129.5c0,0,2,0.3,2.9,1.1c0.9,0.8,1.4,1.4,0.5,1.6c-0.9,0.2-1.7,0.1-1.7,0.1s-0.3-1.1-0.6-1.3
		c0,0,0.8,0.4,1.1,0.4c0.3,0,0-0.2-0.5-0.5c-0.5-0.3-0.8-0.4-0.8-0.4S111.5,130.1,110.9,129.5z"/>
	<path class="st5" d="M114.7,130.9c0,0,1,0.4,1.4,0.8c0.4,0.5,0.8,1.1,0,0.9c-0.7-0.1-1.5-0.3-1.5-0.3S115.8,132,114.7,130.9z"/>
	<path class="st5" d="M110.7,133.6c0,0,0.8,0.2,1.4-0.2c0,0,0.8,0.7,1.3,1.2c0.5,0.5,0.2,0.9-0.3,1c-0.8,0.1-1.3,0.3-1.6,0.2
		C111.6,135.8,111.5,134.5,110.7,133.6z"/>
	<path class="st5" d="M112.6,132.6c0,0,1.1,0,1.6-0.1c0,0,0.7,0.4,1.1,0.8c0.3,0.4-0.4,1.1-0.9,1.1c-0.6,0-1-0.9-2-1.2
		C112.3,133.3,112.7,133,112.6,132.6z M113.9,133.3c-0.5-0.3-0.5,0,0,0.3C114.3,133.8,114.8,133.9,113.9,133.3z"/>
	<path class="st5" d="M108.8,132.6c0.5,0.3,1.5,1.1,1.9,1.8c0.4,0.7,1,1.9,0.1,2.2c-0.9,0.2-2,0-2.7-0.8c-0.6-0.8-0.8-2.1-0.8-2.1
		s0.8,0,1-0.4c0,0,0.8,0.9,1,1.7c0.2,0.8,0.7,0.8,0.3-0.2c-0.4-1-0.9-1.7-0.9-1.7L108.8,132.6z"/>
	<path class="st5" d="M105.4,132.5c0,0,0.1,1.4,0.1,2.3c0,0.8,0.5,1.1,1.1,1.1c0.6,0,0.6-0.3,0.5-1.2c-0.1-0.9-0.1-0.9-0.1-0.9
		S106.2,133.2,105.4,132.5z"/>
	<path class="st5" d="M105.2,135.5c0,0-0.3,0.5-0.5,0.5c-0.2,0,0,1.3,0,1.3s-0.4-1.1-0.6-1.4c-0.2-0.3-1.3-0.9-1.3-0.9
		s0.5,0.7,0.5,1.6c0,0.9,1,2.8,1.5,2.8c0.5,0,1,0.4,1-1.4C105.7,136.4,105.7,136,105.2,135.5z"/>
	<path class="st5" d="M106.1,136.2c0,0,0.1,1.2,0.1,1.7c0,0.6,0.7,0.9,1,1.2c0.3,0.3,0.6,0.9,0.9,0c0.3-0.9,0.4-1.6,0-2.4
		c-0.4-0.8-0.7-1-0.7-1S107.3,136.5,106.1,136.2z"/>
	<path class="st5" d="M108.7,136.9c0,0,0.3,1.4,0.6,2c0.3,0.6,1.5,1.6,1.8,0.9c0.3-0.7,0.2-1.3-0.1-2.1c-0.3-0.8-1.1-0.7-0.9-0.2
		c0.2,0.5,0.3,1.4,0,0.7c-0.3-0.7-0.6-1-0.9-1.2C108.9,136.8,108.7,136.9,108.7,136.9z"/>
	<path class="st8" d="M89.2,123c0,0-1.2,0.6-2.6,1.7c0,0-1-0.5-2.2-0.6c0,0-0.6-0.9-1.1-1.5c-0.1-0.2-0.1-0.3,0.2-0.3
		c0.6,0.1,1.4,0.1,2.1,0.1c1.2-0.1,1.9-0.4,1.9-0.4S88.5,122.2,89.2,123z"/>
	<path class="st8" d="M82.2,120c-0.8,0-1.2,0.3-0.6,1c0.6,0.7,0.8,0.7,2.2,0.9c1.5,0.2,3.1-0.1,3.5-0.3c0.4-0.3,0.4-0.5,0-0.9
		c-0.4-0.5-0.9-1-1.4-0.9C85.3,119.8,84.2,120,82.2,120z"/>
	<path class="st8" d="M86.2,118.7c0-0.5,0-1-0.3-1.3c-0.3-0.3-0.6-0.1-1.8,0.1c-1.2,0.2-2.8,0.1-3.7,0.1c-0.9,0-1.1-0.1-1.1-0.1
		s0.7,0.6,0.5,1.4c0,0,1.4,0.2,1.6,0.8c0,0,1.6,0,2.8-0.2C85.5,119.4,86.2,119.3,86.2,118.7z"/>
	<path class="st8" d="M77.6,114.8c0,0,0.3,0.5,0.1,1c0,0,1.1,0.7,1.4,1.3c0,0,1.7,0.3,3.9,0c2.2-0.3,2.7-0.5,2.8-1.3
		c0.1-0.9-0.2-1.1-0.7-1.1c-0.7-0.1-0.9,0.4-3.1,0.4C78.7,115.2,77.6,114.8,77.6,114.8z"/>
	<path class="st8" d="M75.5,112.3c0,0-0.1,0.7,0.8,1.3c0.9,0.6,1.9,1,4.3,1.1c2.3,0.1,3.5-0.1,3.3-0.5c-0.2-0.4-0.8-0.7-1.8-1.2
		c-1-0.5-1.3-0.7-2.4-0.6c-1,0.1-1.8,0-2.7-0.1C76,112.3,75.5,112.1,75.5,112.3z"/>
	<path class="st8" d="M73,109c0.1,0.4,0.6,1.4,1.4,1.9c0.7,0.5,1,0.8,2.1,0.9c1.1,0.2,2.3,0.2,2.9,0.2c0.6,0,0.8-0.2,0.1-0.7
		c-0.7-0.5-1.3-1-2.2-1.1c-0.9-0.1-1.3,0-2.7-0.8C73.2,108.8,72.9,108.6,73,109z"/>
	<path class="st8" d="M72,106.7c0,0.3,0.1,0.9,1.6,1.8c1.5,0.9,2.6,1.3,3.3,1.3c0.7,0,0.9-0.1,0.4-0.7c-0.5-0.6-0.9-1.2-2.1-1.4
		c-1.2-0.2-1.6-0.5-2.3-0.8C72.3,106.5,72,106.2,72,106.7z"/>
	<path class="st8" d="M75.3,107.2c0.4,0.1,0.5-0.3,0-0.9c-0.5-0.6-0.5-0.9-1.9-1.5c-1.4-0.6-3.1-1.6-3.1-1c0,0.5,0.5,1,0.8,1.4
		C71.4,105.6,73.6,106.9,75.3,107.2z"/>
	<path class="st8" d="M74.6,104.7c0-0.3-0.5-0.8-1.4-1.2c-0.8-0.4-1.3-1.1-1.7-1.6c-0.3-0.5-0.8-0.7-1.7-1.1c-0.8-0.4-1.3-0.7-1,0.2
		c0.3,0.9,1.3,1.9,1.8,2.2C71.2,103.5,74.7,105.2,74.6,104.7z"/>
	<path class="st8" d="M68.7,96.8c-0.6-0.5-0.8-0.1-0.7,0.7c0.1,0.8,0.4,1.4,1,2.1c0.6,0.7,1.6,1.2,1.9,1.3c0.3,0.1,0-0.6-0.2-1.2
		C70.5,99,69.9,97.8,68.7,96.8z"/>
	<path class="st8" d="M68.8,93.7c-0.8-0.4-1.1,0.2-0.8,1.2c0.3,1,0.7,1.1,1.4,2s1.1,0.8,1.3,0.4c0.2-0.3-0.2-1.6-0.5-2.2
		C70,94.5,69.4,94,68.8,93.7z"/>
	<path class="st8" d="M65.4,87c-0.7-0.9-1.1-0.7-1.2-0.1c-0.2,0.6,0.3,1.7,1.1,3.3c0.8,1.6,2.2,3.5,2.2,3.5s0.1-0.3,0.4-0.6
		c0,0-1.7-2.6-2.4-4.6c0,0,2,3.6,2.6,4.3c0,0,0-1.3-0.3-1.9C67.3,90.1,66.3,88.2,65.4,87z"/>
	<path class="st8" d="M67.5,97.1c0,0-0.2-0.3-0.8-0.8c-0.6-0.5-1.8-1.9-2.3-2.9c-0.5-1-0.6-2.5-0.4-2.8c0.2-0.2,0.7-0.2,1.5,0.9
		c0.8,1.2,1.9,2.6,1.9,2.6c0.2,0.8,0.7,1.6,0.7,1.6s-0.3,0.2-0.5,0.5C67.4,96.5,67.5,97.1,67.5,97.1z"/>
	<path class="st8" d="M67.4,97.6c0,0-0.9-0.9-1.8-1.8c-0.8-0.9-1.4-1.1-1.7-0.9c-0.3,0.2-0.1,1.6,0.4,2.3c0.5,0.7,2.2,2.3,3.8,3.1
		c0,0,0.2-0.4,0.4-0.4c0,0-1.8-1.3-3.1-2.8c0,0,1.3,1.3,2.4,1.8C67.9,98.9,67.7,98.5,67.4,97.6z"/>
	<path class="st8" d="M69.9,103.2c-0.2,0.2-0.1,0.6-0.1,0.6c-0.7-0.3-2.7-1.3-4-2.2c-1.3-0.9-1.7-1.9-1.7-2.8c0-0.9,0.8-0.5,1.8,0.4
		c1,0.9,2.5,1.7,2.5,1.7s0.2,0.6,0.5,1.1C69.1,102.5,69.9,103.2,69.9,103.2z"/>
	<path class="st8" d="M69.9,104.5c0,0-1.3-0.6-2.6-1.4c-1.3-0.8-1.9-1.2-1.7-0.4c0.2,0.8,0.7,1.7,1.6,2.5c0.9,0.8,3.2,2.3,5,2.8
		c0,0-1.1-0.7-0.9-1.9C71.4,106.2,70.2,105.5,69.9,104.5z"/>
	<path class="st8" d="M72.2,108.7c0,0-1.9-0.6-3.3-1.6c-1.4-0.9-2.1-1.4-2.1-0.6c0,0.7,0.5,1.3,2.2,2.7c2,1.7,4.1,2.4,5.7,2.7
		c0,0-1.2-0.8-1.5-1.2c0,0-2.3-1-3.8-2.3c0,0,2.5,1.5,3.4,1.7C72.9,110.1,72.2,109.5,72.2,108.7z"/>
	<path class="st8" d="M74.9,112.4c0,0-1.3,0-3.2-1c-1.9-0.9-2.8-1.8-2.7-0.8c0.1,1,0.6,1.5,2.1,2.6c1.5,1.1,4.1,2.2,6.1,2.5
		c0,0,0.2-0.5-0.1-1c0,0-1.1-0.4-1.6-0.8c0,0-2.5-0.2-4.8-2.1c0,0,2.3,1.6,4.6,1.7C75.4,113.6,74.8,113,74.9,112.4z"/>
	<path class="st8" d="M77.3,116.1c0,0-1.6-0.3-3.2-0.8c-1.5-0.6-2.8-1.6-2.6-0.6c0.1,0.8,0.7,1.4,2.3,2.2c2.1,1.2,4,1.8,5.3,1.8
		c0,0-0.1-0.8-0.5-1.1c0,0-2.7-0.4-3.8-0.9c0,0,2.5,0.4,3.2,0.4C78.1,117.1,78.2,116.7,77.3,116.1z"/>
	<path class="st8" d="M80.8,119.8c0,0-0.6-0.4-1.7-0.6c-1.2-0.2-2.6-0.5-3.5-0.9c-0.9-0.4-1-0.2-1,0.2c0,0.5,0.6,1,2.1,1.9
		c1.5,0.9,3,1.1,4,1.4c0,0-0.4,0.2-1.8-0.1c-1.4-0.3-2.4-0.6-2.4,0.1c0,0.7,0.9,1.1,1.5,1.6c0.6,0.5,2.2,0.8,3.8,0.8
		c1.6,0,1.9,0,1.9,0s-0.3-0.7-0.7-1.3c-0.4-0.5-0.4-0.5-0.4-0.5s-1-0.3-1.4-1C80.6,120.3,80.8,119.8,80.8,119.8z"/>
	<path class="st8" d="M86.1,125c0,0-0.9,1-1.3,2c0,0-1.3,0-2.5-0.3c-1.2-0.3-2.7-1.1-2.9-1.6c-0.2-0.5-0.5-0.6,0.7-0.6
		c1.8,0.1,3.1,0.2,4.2,0C84.3,124.5,85.3,124.6,86.1,125z"/>
	<path class="st8" d="M84.7,127.3c0,0-0.2,0.8-0.5,1.1c-0.3,0.4-1.1,0.3-1.9,0.2c-0.8-0.1-1.2-0.5-1.1-1.1c0.1-0.6,0.3-0.7,1.4-0.5
		C83.8,127.4,84.7,127.3,84.7,127.3z"/>
	<path class="st5" d="M112.9,129.6c0,0,1.4,0.1,1.9,0.6c0.4,0.5,0.4,0.5,0,0.5c-0.4,0-0.4,0-0.4,0S113.8,130,112.9,129.6z"/>
	<path class="st5" d="M93.8,139.7c0,0,1.3-1.2,1.4-1.4c0.2-0.2,0.5-0.1,1-0.2c0.5-0.1,0.1,0.5-0.5,0.9
		C95.1,139.3,94.4,139.3,93.8,139.7z"/>
	<path class="st5" d="M96.2,139c0,0,1-1.2,1.9-1.7c0.9-0.5,1.7-0.3,1.7,0.3c-0.1,0.6-0.5,1.3-1.3,1.9c-0.7,0.5-1.4,0.3-1.4,0.3
		s-0.2-0.5,0.4-0.9c0.6-0.4,0.9-0.8,0.9-0.8s-0.5,0.4-1.2,0.7C96.5,139.2,96.2,139,96.2,139z"/>
	<path class="st5" d="M96.1,140.9c0,0,0.5-0.5,1.2-0.6c0.7-0.2,1.1,0.2,1.9,0.6c0.7,0.4,0.6,0.8-0.5,1.1c-1.2,0.3-3.2,0.4-3.3,0.3
		c-0.2-0.1,0.3-0.5,0.3-0.6c0-0.1,1.3-0.3,1.7-0.3c0,0-0.2-0.1-0.9-0.1C95.9,141.3,95.4,141.4,96.1,140.9z"/>
	<path class="st5" d="M95.9,142.6c-0.8,0-1.6,0.4-1.7,0.5c-0.1,0.1,0.9,0,1.7,0c0.8,0,1.2,0.3,1.6-0.1
		C98,142.6,97.3,142.5,95.9,142.6z"/>
	<path class="st5" d="M100.2,137.7c0,0,0.1,0.9-0.6,1.6c-0.8,0.7-0.4,1.1,0,1.4c0.4,0.2,1.4,0.9,1.5-0.2c0.1-1,0.5-1.8,0-2.2
		C100.6,137.9,100.2,137.7,100.2,137.7z"/>
	<path class="st5" d="M103.1,138c0,0-0.2,1.1-1.4,0.7c0,0-0.2,1-0.2,1.6s0.7,1.4,1.1,1.2c0.5-0.3,0.8-1,0.8-1.8
		C103.5,138.9,103.1,138,103.1,138z"/>
	<path class="st5" d="M101.3,141.3c0,0,0.5,0.7,0.9,0.8c0.5,0.1,0.4,1.4,0,2.6c-0.3,1.2-0.9,1.4-1.2,1.4c-0.3,0-0.5-0.6-0.2-1.4
		c0.3-0.8,0.6-2.1,0.2-2.5c0,0-0.1,1.3-0.4,2.2c-0.3,0.8-0.2,1.5-0.8,1.5c-0.6,0-0.9-1.2-0.9-1.9c0-0.7,0.2-1.5,0.8-2.1
		C100.1,141.6,100.3,141.5,101.3,141.3z"/>
	<path class="st5" d="M103.9,139.5c0,0,0.3,1.3,0.6,2.1c0.3,0.7-0.2,2.6-0.5,3c-0.4,0.3-1.3,0.5-1.2-0.8c0.1-1.3,0.2-2,0.2-2
		S103.9,141.2,103.9,139.5z M103.6,142.7c-0.1,0.8-0.2,1.1,0,1.1c0.2,0,0.2-0.6,0.2-1.2C103.8,141.8,103.7,142,103.6,142.7z"/>
	<path class="st5" d="M98.7,142.5c0,0-0.3,1.1-0.3,1.7c0,0.6-0.5,1.1-0.9,2c-0.5,0.9-0.9,0.9-0.9-0.5c0-1.4,0-1.9,0.6-2.1
		C97.8,143.4,98.7,142.5,98.7,142.5z"/>
	<path class="st5" d="M106.2,138.9c0,0-0.2,0.9-0.6,1.1c-0.5,0.2-1.1-0.2-1.1-0.2s0.5,0.9,0.6,1.7c0,0.7,0,1.9,0.4,1.9
		c0.4,0,1.1-1.1,1.4-2c0.3-0.9,0.3-1.9,0.3-1.9S106.6,139.3,106.2,138.9z"/>
	<path class="st5" d="M102.8,145.1c0,0-0.3,0.8-0.2,1.5c0,0.6,0.5,1.7,0.8,1.6c0.3-0.1,0.7-0.6,0.7-1.9c0-1.3,0.6-0.5,0.3,0.8
		s-0.4,1.8-0.1,2.2c0.3,0.3,0.9,0.8,1.3-0.5c0.4-1.3,0.7-1.9,0.4-3.2c-0.3-1.3-1.2-2-1.2-2s-0.2,0.9-0.9,1.4
		C103.2,145.6,102.8,145.1,102.8,145.1z"/>
	<path class="st5" d="M107.4,139.9c0,0-0.2,1.7-0.4,2.1c-0.2,0.4,0.2,1.1,0.4,1.8c0.2,0.7,0.4,1,0.9,0c0.5-1.1,0.6-2.7,0.6-3.6
		s-0.2-0.9-0.5-0.3C108,140.4,107.4,139.9,107.4,139.9z"/>
	<path class="st5" d="M106.6,142.7c0,0-0.5,0.9-1,1.1c0,0,0.7,1.1,0.8,2c0.1,0.9,0.5,1.3,0.9,0.8c0.4-0.5,0.3-1.4-0.1-2.2
		C106.9,143.7,106.6,142.7,106.6,142.7z"/>
	<path class="st5" d="M107.4,147.1c0,0-0.5,0.6-0.9,0.1c0,0,0,2.3-0.1,3.2c0,0.9-0.3,1.7-0.5,1.9c-0.2,0.2,0.3-2.1,0.1-3.9
		c0,0-0.4,1.6-0.8,1.8c-0.4,0.2-0.4,0.2-0.4,0.2s0,0.8-0.1,1.9c-0.1,1.1,0,1.7,0.4,1.8c0.4,0.1,1.4-0.5,1.8-1.9
		C107.4,150.8,107.5,148.7,107.4,147.1z"/>
	<path class="st5" d="M108.8,143.1c0,0-0.3,1.2-0.5,1.7c-0.3,0.5-0.4,1.3-0.4,2c0,0.7-0.1,2.4,0.2,3.2c0.3,0.8,0.8,1.3,1.3,0.5
		c0.5-0.9,0.8-2.7,0.8-3.8c0-1.1-0.2-2.7-0.3-3.3c-0.1-0.6-0.5,0-0.5,0.6c0,0.6-0.1,3.3-0.3,4c-0.2,0.7-0.1-0.7-0.1-2.3
		C108.9,144,108.9,143.1,108.8,143.1z"/>
	<path class="st5" d="M95.9,147.4c-0.3,0.4-0.8,1.5-0.8,2.3c0,0.9,0.5,0.9,0.7,1c0.2,0.1,0.7-0.3,1-0.6c0.3-0.3,0.6-1,0.5-1.9
		c-0.1-0.9-0.8-1.4-0.9-0.3s-0.4,1.3-0.3,0.3C96.2,147.3,96.5,146.7,95.9,147.4z"/>
	<path class="st5" d="M98.5,145.6c-0.8,0.7-0.9,1.4-0.8,2.5c0.2,1.1-0.4,1.8,0,1.9c0.4,0.1,1.3,0,1.6-0.4c0.4-0.4,1-1.6,0.8-2.4
		c-0.3-0.8-0.9-1.1-1-0.3c-0.1,0.9-0.5,1.7-0.4,0.5C98.9,146.2,98.9,145.1,98.5,145.6z"/>
	<path class="st5" d="M102.5,148c-0.4-0.7-0.7-1-1.1,0.2c-0.4,1.2-0.8,1.5-0.5,0.4c0.2-1.1,1.2-2,0.6-2c-0.6,0-0.7,0.5-1.1,1.6
		c-0.3,1-0.9,1.8-0.8,2.2c0.2,0.3,0.9,0.3,1.5,0.3c0.5,0,0.8,0.2,1.2-0.5C102.7,149.4,103.1,148.9,102.5,148z"/>
	<path class="st5" d="M109.3,139.6c0,0,0.8,0.7,1.3,0.8c0.5,0.1,0.4,0.9-0.1,1.4c-0.5,0.5-1.6,1.2-1.4,0.3
		C109.1,141.4,109.5,140.9,109.3,139.6z"/>
	<path class="st5" d="M110.9,142.7c0,0.4,0.6,1.6,0.5,2.2c-0.2,0.5-0.7,1.1-0.9-0.2c-0.2-1.4-0.2-1.7,0-2.1
		C110.7,142.1,110.8,142.2,110.9,142.7z"/>
	<path class="st5" d="M102.4,151c0.1-0.3,0.3-0.6,0.4-0.9c0.2-0.5,0.6-0.9,0.6-0.9s0,1.2,0,2.5s0.3,0.5,0.4-0.5
		c0.1-1.1,0.1-1.9,0.1-1.9c0.2,0.4,0.5,0.9,0.6,0.9c0.2,0,0,0.4,0,1.6c0,1.1,0,2.2-0.5,2.8c-0.4,0.6-0.9,0.6-1.4,0.3l-0.1-0.1
		c0.1-0.2,0.2-0.5,0.2-0.8c0-1.1,0.2-2.2-0.4-2.8L102.4,151z"/>
</g>
</svg>
