<?xml version="1.0" encoding="utf-8"?>
<!-- Generator: Adobe Illustrator 21.1.0, SVG Export Plug-In . SVG Version: 6.00 Build 0)  -->
<svg version="1.1" id="Layer_1" xmlns="http://www.w3.org/2000/svg" xmlns:xlink="http://www.w3.org/1999/xlink" x="0px" y="0px"
	 viewBox="0 0 200 200" style="enable-background:new 0 0 200 200;" xml:space="preserve">
<style type="text/css">
	.st0{fill:#2A3C6A;}
	.st1{fill:#FFFFFF;}
	.st2{fill:#CDB470;}
	.st3{fill:#FBC60D;}
	.st4{fill:#DA2931;}
	.st5{fill:#006CAD;}
</style>
<g>
	<path class="st0" d="M40.9,27.7c0.8,4.4,0.3,9.2-1.6,13.3c-0.7,1.5-1.7,2.9-2.8,4.2c2.4-0.2,4.9,0,7.4,0.4l2.9,0.5V27.1h105.8v18.8
		c3.1-0.5,6.3-0.9,9.4-0.7c-1-1.1-1.9-2.3-2.6-3.8c-2.7-5.8-1.9-12-0.8-17.9c0,0,0.8,0.4,1.1,0.6c5.4,2.9,10.7,5.6,13.7,11.3
		c0.4,0.9,0.8,1.8,1.1,2.8c1.2-1.6,2.6-3,4.1-4.2l3.2-2.5l1.5-1.1l1.8,5.1c1.7,4.6,2.4,9,1.2,13.7c-0.1,0.4-0.2,0.7-0.3,1.1
		c1.3-0.8,2.4-1.6,3.7-2.3c0.4-0.2,1.8-0.8,1.8-0.8l1,5.5c0.8,4.8,0.8,9.2-1.3,13.6c0,0,1.8-0.8,3.4-1.3c0.9-0.3,2.2-0.6,2.2-0.6
		l0.2,5.2c0.2,4.9-0.4,9.4-3.2,13.5c-0.2,0.2-0.3,0.5-0.5,0.7c0.1,0,2.4-0.5,4.1-0.7c0.5,0,2-0.1,2-0.1l-0.6,5
		c-0.6,4.9-2,9.2-5.4,12.8l-0.1,0.1c0,0,1.5-0.3,3.5-0.4c1.4,0,2.3,0.3,2.3,0.3l-1.3,4.9c-1.3,4.7-3.2,8.8-7.1,11.9
		c-0.5,0.4-1,0.8-1.6,1.1c0,0,1.7,0.1,3.9,0.6c1.3,0.3,2.4,0.9,2.4,0.9l-2.6,4.6c-2.4,4.3-5.3,7.7-9.8,9.8c-0.9,0.4-1.9,0.7-2.8,1
		c3.9,1.3,6.1,3.2,6.1,3.2l-3.3,3.3c-3.4,3.5-7.1,6.1-12,6.9c-1.1,0.2-2.1,0.2-3.2,0.2c1,0.6,2,1.3,2.9,2.1l3,2.6l-3.3,2.2
		c-4.1,2.7-8.3,4.4-13.3,4.1c-1.3-0.1-2.6-0.3-3.8-0.7c0.9,0.9,1.6,1.8,2.4,2.8l2.3,3.2l-3.7,1.3c-4.2,1.4-8.3,2.1-12.6,1.1
		c-13.6,5.7-29.3,9.3-44.3,8.9c-12.5-0.3-25.7-3.1-38.2-9c-5,1.3-17.6-2.4-18.5-2.7c1.5-2.2,2.7-3.8,3.7-5c-0.5,0.1-1,0.1-1.6,0.2
		c-6.5,0.4-17.9-7.2-17.9-7.2c0.9-1.2,4.5-3.7,4.8-3.8c-0.4,0-0.7-0.1-1.1-0.1c-6.4-1-15.3-10.9-15.5-11.1c0.2-0.1,3.9-2.1,5.5-2.8
		c-0.6-0.2-1.2-0.4-1.8-0.7c-5.9-2.7-10-9.4-11.6-14.7c2.2-0.4,4.4-0.7,6.5-0.6c-0.9-0.5-1.8-1.1-2.6-1.7c-5-4.1-6.8-11.6-7.7-16.7
		c2,0,4,0.3,5.8,0.7c-0.2-0.2-0.3-0.3-0.5-0.5c-4.8-5-5.3-11.2-5.9-17.7C3,83.4,5.2,84,7.3,84.8c-0.4-0.5-0.8-1-1.2-1.6
		c-2.7-4.1-3.3-9.2-3.1-14l0.2-4.1l3.9,1.5c0.9,0.4,1.8,0.8,2.6,1.2c-0.4-0.6-0.7-1.1-0.9-1.7c-2.1-4.5-2.1-9.2-1.3-14l0.7-4
		l3.6,1.9c1.1,0.6,2.1,1.2,3,1.9c-0.5-1-0.9-2-1.1-3c-1.3-4.8-0.5-9.2,1.2-13.7l1.4-3.9l3.2,2.5c2.3,1.8,4.1,3.9,5.5,6.3
		c0.3-1.8,0.8-3.5,1.6-5c2.3-4.5,5.5-7.3,10-9.6l3.6-1.9L40.9,27.7z"/>
	<path id="path12" class="st1" d="M161.8,28.5c4.9,2.6,7.3,5.1,8.8,8.1c1.2,2.4,2.1,6.5,1.4,11.1c-3.7-1.6-7.1-4.3-8.8-7.9
		C161.8,36.6,161.1,32.7,161.8,28.5z"/>
	<path id="path14" class="st1" d="M161.8,28.5c4.9,2.6,7.3,5.1,8.8,8.1c1.2,2.4,2.1,6.5,1.4,11.1c-3.7-1.6-7.1-4.3-8.8-7.9
		C161.8,36.6,161.1,32.7,161.8,28.5z"/>
	<path id="path16" class="st1" d="M182.3,36.2c1.9,5.2,2,8.7,1.1,11.9c-0.7,2.6-2.9,6.2-6.4,9.2c-1.7-3.7-2.4-7.9-1.2-11.8
		C176.8,42.3,178.9,38.9,182.3,36.2z"/>
	<path id="path18" class="st1" d="M156.6,48.6c5.4-0.9,8.9-0.4,12,1c2.5,1.2,5.6,3.9,7.9,7.9c-3.9,1-8.2,1-11.8-0.9
		C161.5,55,158.6,52.4,156.6,48.6z"/>
	<path id="path20" class="st1" d="M162.1,60.4c5.5,0.1,8.8,1.2,11.6,3.2c2.2,1.6,4.8,4.9,6.4,9.2c-4,0.3-8.2-0.6-11.5-3.1
		C165.7,67.6,163.3,64.5,162.1,60.4z"/>
	<path id="path22" class="st1" d="M165.9,73.5c5.5,0.8,8.6,2.4,11,4.7c2,1.9,4.1,5.5,5.1,10c-4-0.2-8.1-1.6-10.9-4.5
		C168.6,81.2,166.6,77.8,165.9,73.5z"/>
	<path id="path24" class="st1" d="M167.3,86.4c5.3,1.7,8.1,3.7,10.1,6.4c1.7,2.2,3.2,6.1,3.4,10.7c-3.9-0.9-7.7-2.9-10.1-6.2
		C168.7,94.4,167.3,90.8,167.3,86.4z"/>
	<path id="path26" class="st1" d="M189.5,52.9c0.9,5.4,0.4,8.9-1.1,12c-1.2,2.5-3.9,5.6-7.9,7.9c-1-3.9-0.9-8.2,0.9-11.8
		C183.1,57.8,185.7,54.9,189.5,52.9z"/>
	<path id="path28" class="st1" d="M194,69.8c0.2,5.5-0.8,8.9-2.7,11.7c-1.7,2.5-4.4,4.7-8.6,6.4c-0.5-4,0.1-8.2,2.4-11.6
		C187.1,73.5,190.2,71.1,194,69.8z"/>
	<path id="path30" class="st1" d="M195.8,87.6c-0.7,5.5-2.3,8.6-4.6,11.1c-2.1,2.2-5.1,3.9-9.6,4.9c0.1-4,1.5-8.1,4.3-11
		C188.4,90,191.8,88.2,195.8,87.6z"/>
	<path id="path32" class="st1" d="M195.3,104.7c-1.4,5.3-3.4,8.3-6,10.4c-2.4,1.9-5.6,3.2-10.2,3.6c0.7-4,2.5-7.8,5.7-10.4
		C187.6,106.2,191.3,104.8,195.3,104.7z"/>
	<path id="path34" class="st1" d="M167.4,100.5c-0.3,5.5,0.7,8.9,2.6,11.8c1.7,2.6,4.3,4.7,8.6,6.5c0.6-4,0-8.2-2.3-11.6
		C174.2,104.2,171.2,101.8,167.4,100.5z"/>
	<path id="path36" class="st1" d="M164.9,111.8c-1.7,5.2-1.6,9-0.5,12.3c0.9,2.9,2.9,5.6,6.5,8.4c1.4-3.8,2-8,0.7-11.8
		C170.5,117.3,168.2,114.1,164.9,111.8z"/>
	<path id="path38" class="st1" d="M159.5,122.4c-3,4.6-3.8,8.3-3.7,11.7c0.2,3,1.4,6.1,4.1,9.8c2.3-3.3,4-7.2,3.8-11.2
		C163.5,129.2,162.1,125.5,159.5,122.4z"/>
	<path id="path40" class="st1" d="M151.3,131.6c-3.9,3.9-5.5,7.3-6,10.7c-0.5,3,0.1,6.3,2,10.5c3-2.8,5.4-6.2,6-10.2
		C153.8,139.1,153.2,135.2,151.3,131.6z"/>
	<path id="path42" class="st1" d="M141.4,138.5c-4.8,2.8-7.1,5.7-8.5,8.9c-1.2,2.8-1.5,6.1-0.7,10.7c3.6-2,6.8-4.6,8.4-8.4
		C142,146.4,142.4,142.5,141.4,138.5z"/>
	<path id="path44" class="st1" d="M190.6,123.1c-2.7,4.8-5.4,7.2-8.4,8.6c-2.8,1.3-6.2,1.7-10.7,0.9c1.6-3.7,4.4-7,8.2-8.6
		C182.8,122.6,186.7,122.2,190.6,123.1z"/>
	<path id="path46" class="st1" d="M181.5,140c-3.9,3.9-7,5.5-10.4,6.1c-3,0.5-6.4,0-10.6-1.9c2.6-3.1,6.1-5.6,10.1-6.2
		C174.1,137.4,177.9,138.1,181.5,140z"/>
	<path id="path48" class="st1" d="M168.9,153.7c-4.6,3-8.1,3.9-11.5,3.7c-3-0.2-6.2-1.4-9.9-4.1c3.2-2.5,7.1-4.1,11.2-3.8
		C162.2,149.6,165.9,151.1,168.9,153.7z"/>
	<path id="path50" class="st1" d="M153.4,164.2c-5.2,1.8-8.8,1.8-12,0.8c-2.9-0.9-5.7-2.9-8.6-6.4c3.7-1.7,7.9-2.2,11.8-1
		C147.9,158.6,151.1,160.9,153.4,164.2z"/>
	<path id="path54" class="st1" d="M38.1,28.5c-4.9,2.6-7.3,5.1-8.8,8.1c-1.2,2.4-2.1,6.5-1.4,11.1c3.7-1.6,7.1-4.3,8.8-7.9
		C38.1,36.6,38.8,32.7,38.1,28.5z"/>
	<path id="path56" class="st1" d="M38.1,28.5c-4.9,2.6-7.3,5.1-8.8,8.1c-1.2,2.4-2.1,6.5-1.4,11.1c3.7-1.6,7.1-4.3,8.8-7.9
		C38.1,36.6,38.8,32.7,38.1,28.5z"/>
	<path id="path58" class="st1" d="M17.6,36.2c-1.9,5.2-2,8.7-1.1,11.9c0.7,2.6,2.9,6.2,6.4,9.2c1.7-3.7,2.4-7.9,1.2-11.8
		C23.1,42.3,21.1,38.9,17.6,36.2z"/>
	<path id="path60" class="st1" d="M43.4,48.6c-5.4-0.9-8.9-0.4-12,1c-2.5,1.2-5.6,3.9-7.9,7.9c3.9,1,8.2,1,11.8-0.9
		C38.4,55,41.4,52.4,43.4,48.6z"/>
	<path id="path62" class="st1" d="M37.9,60.4c-5.5,0.1-8.8,1.2-11.6,3.2c-2.2,1.6-4.8,4.9-6.4,9.2c4,0.3,8.2-0.6,11.5-3.1
		C34.2,67.6,36.6,64.5,37.9,60.4z"/>
	<path id="path64" class="st1" d="M34.1,73.5c-5.5,0.8-8.6,2.4-11,4.7c-2,1.9-4.1,5.5-5.1,10c4-0.2,8.1-1.6,10.9-4.5
		C31.4,81.2,33.3,77.8,34.1,73.5z"/>
	<path id="path66" class="st1" d="M32.7,86.4c-5.3,1.7-8.1,3.7-10.1,6.4c-1.7,2.2-3.2,6.1-3.4,10.7c3.9-0.9,7.7-2.9,10.1-6.2
		C31.2,94.4,32.6,90.8,32.7,86.4z"/>
	<path id="path68" class="st1" d="M10.4,52.9c-0.9,5.4-0.4,8.9,1.1,12c1.2,2.5,3.9,5.6,7.9,7.9c1-3.9,0.9-8.2-0.9-11.8
		C16.9,57.8,14.3,54.9,10.4,52.9z"/>
	<path id="path70" class="st1" d="M5.9,69.8c-0.2,5.5,0.8,8.9,2.7,11.7c1.7,2.5,4.4,4.7,8.6,6.4c0.5-4-0.1-8.2-2.4-11.6
		C12.8,73.5,9.7,71.1,5.9,69.8z"/>
	<path id="path72" class="st1" d="M4.1,87.6c0.7,5.5,2.3,8.6,4.6,11.1c2.1,2.2,5.1,3.9,9.6,4.9c-0.1-4-1.5-8.1-4.3-11
		C11.6,90,8.1,88.2,4.1,87.6z"/>
	<path id="path74" class="st1" d="M4.6,104.7c1.4,5.3,3.4,8.3,6,10.4c2.4,1.9,5.6,3.2,10.2,3.6c-0.7-4-2.5-7.8-5.7-10.4
		C12.3,106.2,8.7,104.8,4.6,104.7z"/>
	<path id="path76" class="st1" d="M32.6,100.5c0.3,5.5-0.7,8.9-2.6,11.8c-1.7,2.6-4.3,4.7-8.6,6.5c-0.6-4,0-8.2,2.3-11.6
		C25.7,104.2,28.8,101.8,32.6,100.5z"/>
	<path id="path78" class="st1" d="M35.1,111.8c1.7,5.2,1.6,9,0.5,12.3c-0.9,2.9-2.9,5.6-6.5,8.4c-1.4-3.8-2-8-0.7-11.8
		C29.4,117.3,31.8,114.1,35.1,111.8z"/>
	<path id="path80" class="st1" d="M40.5,122.4c3,4.6,3.8,8.3,3.7,11.7c-0.2,3-1.4,6.1-4.1,9.8c-2.3-3.3-4-7.2-3.8-11.2
		C36.4,129.2,37.8,125.5,40.5,122.4z"/>
	<path id="path82" class="st1" d="M48.6,131.6c3.9,3.9,5.5,7.3,6,10.7c0.5,3-0.1,6.3-2,10.5c-3-2.8-5.4-6.2-6-10.2
		C46.1,139.1,46.7,135.2,48.6,131.6z"/>
	<path id="path84" class="st1" d="M58.5,138.5c4.8,2.8,7.1,5.7,8.5,8.9c1.2,2.8,1.5,6.1,0.7,10.7c-3.6-2-6.8-4.6-8.4-8.4
		C57.9,146.4,57.5,142.5,58.5,138.5z"/>
	<path id="path86" class="st1" d="M9.4,123.1c2.7,4.8,5.4,7.2,8.4,8.6c2.8,1.3,6.2,1.7,10.7,0.9c-1.6-3.7-4.4-7-8.2-8.6
		C17.2,122.6,13.3,122.2,9.4,123.1z"/>
	<path id="path88" class="st1" d="M18.5,140c3.9,3.9,7,5.5,10.4,6.1c3,0.5,6.4,0,10.6-1.9c-2.6-3.1-6.1-5.6-10.1-6.2
		C25.9,137.4,22,138.1,18.5,140z"/>
	<path id="path90" class="st1" d="M31,153.7c4.6,3,8.1,3.9,11.5,3.7c3-0.2,6.2-1.4,9.9-4.1c-3.2-2.5-7.1-4.1-11.2-3.8
		C37.7,149.6,34.1,151.1,31,153.7z"/>
	<path id="path92" class="st1" d="M46.5,164.2c5.2,1.8,8.8,1.8,12,0.8c2.9-0.9,5.7-2.9,8.6-6.4c-3.7-1.7-7.9-2.2-11.8-1
		C52,158.6,48.8,160.9,46.5,164.2z"/>
	<path id="path96" class="st2" d="M162.5,30.1c3,1.7,5.5,3.8,7.1,7c1.3,2.6,1.7,6.1,1.5,9.1c-3-1.5-5.6-3.8-7-6.9
		C162.7,36.4,162.2,33.2,162.5,30.1z"/>
	<path id="path98" class="st2" d="M181.7,38c1.1,3.3,1.5,6.5,0.6,9.9c-0.7,2.8-2.8,5.7-5,7.8c-1.2-3.1-1.6-6.6-0.6-9.8
		C177.6,42.8,179.3,40.1,181.7,38z"/>
	<path id="path100" class="st2" d="M158,49.4c3.4-0.5,6.6-0.3,9.9,1.2c2.6,1.2,5.1,3.8,6.8,6.3c-3.3,0.6-6.7,0.4-9.7-1.1
		C162.1,54.3,159.7,52.1,158,49.4z"/>
	<path id="path102" class="st2" d="M163.3,61.4c3.4,0.2,6.6,0.9,9.5,3c2.4,1.7,4.3,4.7,5.5,7.5c-3.3,0-6.7-0.9-9.4-2.9
		C166.4,67,164.5,64.4,163.3,61.4z"/>
	<path id="path104" class="st2" d="M167,74.8c3.4,0.6,6.4,1.7,9,4.2c2.1,2,3.6,5.2,4.5,8.1c-3.3-0.4-6.5-1.7-8.9-4.1
		C169.3,80.7,167.8,77.9,167,74.8z"/>
	<path id="path106" class="st2" d="M168.2,87.9c3.2,1.2,6.1,2.7,8.2,5.6c1.8,2.3,2.8,5.7,3.1,8.7c-3.2-0.9-6.2-2.7-8.1-5.5
		C169.5,94.1,168.5,91.1,168.2,87.9z"/>
	<path id="path108" class="st2" d="M188.6,54.5c0.4,3.4,0.3,6.6-1.2,9.9c-1.2,2.6-3.8,5.1-6.3,6.7c-0.6-3.3-0.4-6.7,1.2-9.7
		C183.7,58.5,185.9,56.2,188.6,54.5z"/>
	<path id="path110" class="st2" d="M192.9,71.3c0,3.5-0.5,6.7-2.5,9.7c-1.7,2.5-4.2,4.2-6.9,5.5c-0.2-3.3,0.5-6.7,2.4-9.5
		C187.5,74.4,190.1,72.5,192.9,71.3z"/>
	<path id="path112" class="st2" d="M194.4,88.9c-0.6,3.4-1.7,6.5-4.1,9.1c-2.1,2.2-4.9,3.5-7.7,4.3c0.4-3.3,1.6-6.6,4-9
		C188.7,91.1,191.5,89.6,194.4,88.9z"/>
	<path id="path114" class="st2" d="M193.8,105.8c-1,3.3-2.5,6.2-5.3,8.5c-2.4,1.9-5.3,2.8-8.2,3.2c0.8-3.2,2.5-6.3,5.1-8.4
		C187.7,107.2,190.7,106.1,193.8,105.8z"/>
	<path id="path116" class="st2" d="M168.2,102c2.8,1.2,5.3,3.2,7,5.7c1.9,2.8,2.5,6.2,2.3,9.5c-2.7-1.3-5.2-3-6.8-5.6
		C168.6,108.7,168.1,105.4,168.2,102z"/>
	<path id="path118" class="st2" d="M165.2,113.5c2.4,2,4.3,4.6,5.2,7.5c1.1,3.2,0.7,6.6-0.3,9.8c-2.2-1.9-4.2-4.2-5.1-7
		C164,120.3,164.3,116.9,165.2,113.5z"/>
	<path id="path120" class="st2" d="M159.4,124.2c1.8,2.5,2.9,5.5,3.1,8.6c0.2,3.4-1,6.5-2.8,9.4c-1.6-2.4-2.9-5.1-3.1-8.1
		C156.5,130.4,157.6,127.2,159.4,124.2z"/>
	<path id="path122" class="st2" d="M150.9,133.4c1.2,2.8,1.7,6,1.3,9.1c-0.5,3.3-2.4,6.2-4.7,8.6c-1.1-2.7-1.8-5.6-1.3-8.6
		C146.7,138.9,148.5,136,150.9,133.4z"/>
	<path id="path124" class="st2" d="M140.6,140.2c0.5,3,0.2,6.3-1,9.1c-1.3,3.1-3.8,5.4-6.6,7.2c-0.4-2.9-0.4-5.9,0.8-8.6
		C135.2,144.5,137.6,142.1,140.6,140.2z"/>
	<path id="path126" class="st2" d="M188.8,123.8c-1.8,3-4,5.4-7.3,6.9c-2.8,1.3-5.8,1.4-8.8,1.1c1.6-2.9,3.9-5.5,7-6.8
		C182.6,123.7,185.8,123.4,188.8,123.8z"/>
	<path id="path128" class="st2" d="M179.5,140.3c-2.5,2.4-5.3,4.2-8.8,4.8c-3,0.5-6-0.2-8.7-1.3c2.3-2.4,5.2-4.3,8.6-4.8
		C173.6,138.5,176.7,139,179.5,140.3z"/>
	<path id="path130" class="st2" d="M167,153.6c-3,1.8-6,2.9-9.6,2.7c-3-0.2-5.8-1.5-8.3-3.1c2.8-1.9,6-3,9.4-2.8
		C161.6,150.6,164.5,151.8,167,153.6z"/>
	<path id="path132" class="st2" d="M151.6,163.7c-3.3,1-6.6,1.4-10,0.3c-2.9-0.9-5.3-2.8-7.2-5.1c3.1-1.1,6.6-1.5,9.8-0.4
		C147,159.5,149.6,161.3,151.6,163.7z"/>
	<path id="path136" class="st2" d="M37.3,30.1c-3,1.7-5.5,3.8-7.1,7c-1.3,2.6-1.7,6.1-1.5,9.1c3-1.5,5.6-3.8,7-6.9
		C37.1,36.4,37.6,33.2,37.3,30.1z"/>
	<path id="path138" class="st2" d="M18.1,38c-1.1,3.3-1.5,6.5-0.6,9.9c0.7,2.8,2.8,5.7,5,7.8c1.2-3.1,1.6-6.6,0.6-9.8
		C22.2,42.8,20.5,40.1,18.1,38z"/>
	<path id="path140" class="st2" d="M41.8,49.4c-3.4-0.5-6.6-0.3-9.9,1.2c-2.6,1.2-5.1,3.8-6.8,6.3c3.3,0.6,6.7,0.4,9.7-1.1
		C37.7,54.3,40.1,52.1,41.8,49.4z"/>
	<path id="path142" class="st2" d="M36.4,61.4c-3.4,0.2-6.6,0.9-9.5,3c-2.4,1.7-4.3,4.7-5.5,7.5c3.3,0,6.7-0.9,9.4-2.9
		C33.4,67,35.3,64.4,36.4,61.4z"/>
	<path id="path144" class="st2" d="M32.8,74.8c-3.4,0.6-6.4,1.7-9,4.2c-2.1,2-3.6,5.2-4.5,8.1c3.3-0.4,6.5-1.7,8.9-4.1
		C30.4,80.7,32,77.9,32.8,74.8z"/>
	<path id="path146" class="st2" d="M31.6,87.9c-3.2,1.2-6.1,2.7-8.2,5.6c-1.8,2.3-2.8,5.7-3.1,8.7c3.2-0.9,6.2-2.7,8.1-5.5
		C30.2,94.1,31.3,91.1,31.6,87.9z"/>
	<path id="path148" class="st2" d="M11.2,54.5c-0.4,3.4-0.3,6.6,1.2,9.9c1.2,2.6,3.8,5.1,6.3,6.7c0.6-3.3,0.4-6.7-1.2-9.7
		C16.1,58.5,13.9,56.2,11.2,54.5z"/>
	<path id="path150" class="st2" d="M6.9,71.3c0,3.5,0.5,6.7,2.5,9.7c1.7,2.5,4.2,4.2,6.9,5.5c0.2-3.3-0.5-6.7-2.4-9.5
		C12.2,74.4,9.7,72.5,6.9,71.3z"/>
	<path id="path152" class="st2" d="M5.3,88.9C5.9,92.3,7,95.4,9.5,98c2.1,2.2,4.9,3.5,7.7,4.3c-0.4-3.3-1.6-6.6-4-9
		C11.1,91.1,8.3,89.6,5.3,88.9z"/>
	<path id="path154" class="st2" d="M6,105.8c1,3.3,2.5,6.2,5.3,8.5c2.4,1.9,5.3,2.8,8.2,3.2c-0.8-3.2-2.5-6.3-5.1-8.4
		C12,107.2,9.1,106.1,6,105.8z"/>
	<path id="path156" class="st2" d="M31.6,102c-2.8,1.2-5.3,3.2-7,5.7c-1.9,2.8-2.5,6.2-2.3,9.5c2.7-1.3,5.2-3,6.8-5.6
		C31.1,108.7,31.7,105.4,31.6,102z"/>
	<path id="path158" class="st2" d="M34.5,113.5c-2.4,2-4.3,4.6-5.2,7.5c-1.1,3.2-0.7,6.6,0.3,9.8c2.2-1.9,4.2-4.2,5.1-7
		C35.7,120.3,35.5,116.9,34.5,113.5z"/>
	<path id="path160" class="st2" d="M40.4,124.2c-1.8,2.5-2.9,5.5-3.1,8.6c-0.2,3.4,1,6.5,2.8,9.4c1.6-2.4,2.9-5.1,3.1-8.1
		C43.3,130.4,42.2,127.2,40.4,124.2z"/>
	<path id="path162" class="st2" d="M48.9,133.4c-1.2,2.8-1.7,6-1.3,9.1c0.5,3.3,2.4,6.2,4.7,8.6c1.1-2.7,1.8-5.6,1.3-8.6
		C53.1,138.9,51.3,136,48.9,133.4z"/>
	<path id="path164" class="st2" d="M59.2,140.2c-0.5,3-0.2,6.3,1,9.1c1.3,3.1,3.8,5.4,6.6,7.2c0.4-2.9,0.4-5.9-0.8-8.6
		C64.6,144.5,62.2,142.1,59.2,140.2z"/>
	<path id="path166" class="st2" d="M11,123.8c1.8,3,4,5.4,7.3,6.9c2.8,1.3,5.8,1.4,8.8,1.1c-1.6-2.9-3.9-5.5-7-6.8
		C17.2,123.7,14,123.4,11,123.8z"/>
	<path id="path168" class="st2" d="M20.2,140.3c2.5,2.4,5.3,4.2,8.8,4.8c3,0.5,6-0.2,8.7-1.3c-2.3-2.4-5.2-4.3-8.6-4.8
		C26.2,138.5,23,139,20.2,140.3z"/>
	<path id="path170" class="st2" d="M32.8,153.6c3,1.8,6,2.9,9.6,2.7c3-0.2,5.8-1.5,8.3-3.1c-2.8-1.9-6-3-9.4-2.8
		C38.2,150.6,35.3,151.8,32.8,153.6z"/>
	<path id="path172" class="st2" d="M48.2,163.7c3.3,1,6.6,1.4,10,0.3c2.9-0.9,5.3-2.8,7.2-5.1c-3.1-1.1-6.6-1.5-9.8-0.4
		C52.7,159.5,50.2,161.3,48.2,163.7z"/>
	<path id="path176" class="st1" d="M50.1,29.9h99.6v100.1H50.1V29.9z"/>
	<path id="path178" class="st3" d="M148.4,109.2v19.5h-97v-19.5H71l28.8-44.4l29.1,44.4H148.4z"/>
	<path id="path180" class="st4" d="M90.2,128.6H70.9v-19.5H71l19.2-29.5V128.6z"/>
	<path id="path182" class="st4" d="M129,128.6h-19.3V79.8l19.3,29.4h0.1V128.6z"/>
	<path id="path184" class="st5" d="M51.4,31.2h97v74.9h-4.6L98.9,38H79.3v3.1h5l7.4,11.3l-35.5,53.8h-4.8V31.2z"/>
	<path id="path188" class="st1" d="M121.9,124.2h2.1v-10.6h-2.1l-4.8,7.3v-7.3H115v10.6h2.1l4.8-7.2V124.2z"/>
	<path id="path190" class="st1" d="M136.7,124.2l2.5-3.5h1.7v3.5h1.7v0h0.4v-10.6h-4.7c-2.1,0-3.6,1.5-3.6,3.5c0,1.5,1,2.7,2.3,3.2
		l-2.7,3.8H136.7z M136.5,117.1c0-1.1,1.1-1.6,1.8-1.6h2.5v3.4h-2.5C137.3,118.9,136.5,118.3,136.5,117.1z"/>
	<path id="path192" class="st1" d="M99,125.4h1.9v-1.3c2.9-0.3,5.2-2.1,5.2-5.2s-2.4-4.9-5.2-5.2v-1.3H99v1.3c-2.8,0.4-5,2.2-5,5.2
		c0,3,2.2,4.8,5,5.2V125.4z M100.9,122.4v-7c2,0.3,3.1,1.7,3.1,3.5C104,120.7,102.8,122.1,100.9,122.4z M99,115.4v6.9
		c-1.8-0.4-2.9-1.7-2.9-3.5C96.1,117.1,97.2,115.8,99,115.4z"/>
	<circle class="st1" cx="80.5" cy="118.9" r="5.4"/>
	<circle class="st4" cx="80.5" cy="118.9" r="3.4"/>
	<path id="path196" class="st1" d="M61.9,113.4c1.6,0,3.1,0.7,4.1,1.8l-1.5,1.4c-0.6-0.7-1.5-1.1-2.5-1.1c-1.9,0-3.4,1.5-3.4,3.4
		c0,1.9,1.5,3.4,3.4,3.4c1,0,1.9-0.4,2.6-1.2l1.5,1.4c-1,1.1-2.4,1.8-4,1.8c-3,0-5.4-2.4-5.4-5.4C56.4,115.9,58.9,113.4,61.9,113.4z
		"/>
	<path id="path198" class="st1" d="M78.1,163.8h3v5.1H69.5v-5.1h3.1v-8.9l-2.8,0.8l-1.3-4.8l6.4-1.8h3.3V163.8z"/>
	<path id="path200" class="st2" d="M77,150h-2.1l-5.3,1.5l0.8,2.9l3.1-0.9v11.3h-3.1v3.1h9.5v-3.1h-3V150z"/>
	<path id="path202" class="st1" d="M110,163.8h3v5.1h-11.6v-5.1h3.1v-8.9l-2.8,0.8l-1.3-4.8l6.4-1.8h3.3V163.8z"/>
	<path id="path204" class="st2" d="M109,150h-2.1l-5.3,1.5l0.8,2.9l3.1-0.9v11.3h-3.1v3.1h9.5v-3.1h-3V150z"/>
	<path id="path206" class="st1" d="M128.8,160.6h2.6v4.2h-2.6v4.2h-4.9v-4.2h-8.5l-0.7-3.7l10.2-11.9h4V160.6z M120.6,160.6h3.2
		v-3.8L120.6,160.6z"/>
	<path id="path208" class="st2" d="M127.8,150.2h-2.5l-9.5,11.2l0.5,2.4h8.7v4.2h2.9v-4.2h2.6v-2.2h-2.6V150.2z M118.5,161.6
		l6.4-7.7v7.7H118.5z"/>
	<path id="path210" class="st1" d="M93.2,161.6c-1.3,0.6-2.7,0.8-4.2,0.7c-1.9-0.2-3.7-1.1-4.9-2.6c-0.6-0.9-1-1.9-1.1-3
		c0-0.6,0-1.2,0.1-1.8c0.7-3.5,3.6-5.7,7.1-5.8c1.4,0,2.8,0.3,4,0.9c3.1,1.8,4,5.4,4,8.7c0,3.5-1.1,7.2-4.2,9.1
		c-1.2,0.8-2.6,1.1-4.1,1.1c-2.4,0-4.1-0.7-5.9-2.2l-0.8-0.6l2.7-3.7l0.8,0.6c1,0.7,2,1.3,3.2,1.2C91.8,164.4,92.8,163.2,93.2,161.6
		z M90.6,153.8c-1.3,0-2.5,0.6-2.5,2c0,1.4,1.2,2.2,2.5,2.2c1.4,0,2.5-0.5,2.5-2C93.1,154.5,92.1,153.8,90.6,153.8z"/>
	<path id="path212" class="st2" d="M84.6,166.1c1.7,1.3,3.1,1.9,5.3,2c4.4,0,7.3-3.7,7.3-9.2c0-6-2.9-8.7-6.9-8.6
		c-4.1,0.1-6.4,3.3-6.2,6.5c0.3,4.3,6.1,6.4,10.4,3c0,4.4-2.4,5.8-4.5,5.8c-1.1,0-2.3-0.3-3.8-1.4L84.6,166.1z M90.6,152.8
		c2.1,0,3.5,1.2,3.5,3.2c0,1.9-1.4,3-3.5,3c-2.1,0-3.5-1.4-3.5-3.2C87.1,154,88.5,152.8,90.6,152.8z"/>
</g>
</svg>
