<?xml version="1.0" encoding="utf-8"?>
<!-- Generator: Adobe Illustrator 21.1.0, SVG Export Plug-In . SVG Version: 6.00 Build 0)  -->
<svg version="1.1" id="Layer_1" xmlns="http://www.w3.org/2000/svg" xmlns:xlink="http://www.w3.org/1999/xlink" x="0px" y="0px"
	 viewBox="0 0 200 200" style="enable-background:new 0 0 200 200;" xml:space="preserve">
<style type="text/css">
	.st0{fill:#161413;}
	.st1{fill:#F6CA00;}
	.st2{fill:none;stroke:#161413;stroke-width:0.1;}
	.st3{fill:#D91521;}
	.st4{fill:#293484;}
	.st5{fill:#FFFFFF;}
</style>
<g>
	<g id="g8" transform="matrix(0.4811244,0,0,0.4811244,129.39508,541.63935)">
		<path id="path10" class="st0" d="M75.2-970.5c0.2,0.1,0.7,0.2,0.8,0.3c0.7,0.3,1.3,0.6,1.8,1.2c1.1,1.3,1.1,2.7,1,4.3
			c0.9,0.8,2.3,1.6,3.1,2.4c1.5,1.4,2.3,2.3,2.8,4.4c0.3,1.2,0.2,2.7,0.1,4.1c0.7,0.7,0.9,1.6,0.9,2.6c-0.1,2.7-0.1,5.5-0.3,8.2
			c0.1,0,0.1,0.1,0.2,0.1c1.4,0.7,2.3,1.8,2.4,3.4c0.1,1-0.5,2.3-0.7,3.2c2.7,0.2,4.3,1.4,4,4.4c-0.4,3.7-3,7-5.9,9.1
			c-1.8,1.3-4.3,2.8-4.8,5.2c-0.1,0.3-0.2,0.6-0.3,0.9c0,0.1,0,0.2,0,0.2c0.6,0.6,1,1.4,1.3,2.2c1.5,0.4,2.2,1.6,2.3,3.2
			c0.1,2.6-0.7,7.2-1.7,9.9c0.1,0,0.1,0.1,0.2,0.1c1.4,0.9,2.4,2.1,2.3,3.9c0,0.6-0.3,1.1-0.6,1.6c-0.2,0.3-0.5,0.6-0.7,1
			c0.4,0.2,0.9,0.5,1.2,0.7c1.1,0.8,1.5,1.9,1.6,3.2c0.3,3.3-3.1,6.6-5.5,8.5c-1.1,0.9-2.4,1.6-3.6,2.3c-0.7,0.4-2.4,1.4-2.9,1.9
			c-0.2,0.2-0.7,0.6-0.5,0.9c1.2,1.7,1.5,3.4,0.6,5.2c0.7,3.2,0.4,6.6-0.7,9.7c-1.4,4-3.2,7.8-5,11.6c-2.7,6.1-4.5,13.6-9.5,18.4
			c-2.1,2.1-4.1,3.5-6.8,4.8c-0.8,0.4-1.6,0.7-2.4,1c-0.2,3.9-2.3,8.2-4.6,11.4c1.1,1.1,1.7,2.4,1.3,4c-0.2,0.9-0.8,1.3-1.2,1.8
			c0.3,0.3,0.8,0.8,0.9,0.9c0.9,1,1.1,2.2,1,3.6c-0.4,4.6-10.7,8.9-14.6,9.8c-1,0.3-1.2,0.3-1.3,1.4c-0.2,3.3,0.3,5.6-3.2,7.3
			c-0.6,0.3-1.3,0.6-1.9,0.8c-0.6,3.7-3.3,7.1-6.9,8.3c-0.7,0.2-1.5,0.4-2.2,0.4c0.3,0.9,0.4,1.7,0.3,2.7c-0.1,0.8-0.4,1.5-0.9,2.2
			c-0.3,0.4-0.7,0.7-0.9,1c-0.2,0.2-0.2,0.4-0.2,0.7c0,3,2,5.7,0.3,8.8c-1.7,2.9-5.7,4.8-8.6,6.3c-0.8,0.4-1.7,0.5-2.6,0.5
			c-0.4,0-1.4-0.1-2,0l0.4,0l-4.8,4.1c-8.4,7.1-16.4,14.8-25.2,21.5c-2.7,2-4.3,3.3-7.8,2.4c-1.6-0.5-3.3-0.9-4.9-1.3
			c-5.9,5-11.9,9.9-18,14.7l-4.3,3.3l-4.2-3.4c-6-4.8-11.8-9.8-17.6-14.8c-1.8,0.4-3.5,0.9-5.2,1.5c-3.2,1.1-4.1,0-6.6-1.7
			c-9.3-6.5-17.3-14.5-26-21.8l-4.1-3.4c-2.4-1.1-5.2-2.5-6.9-4.3l-28.2-28.7l4.2-0.8c0.5-0.1,0.9-0.2,1.4-0.3l-21.6-27.2l1.8-0.1
			c1.4-0.1,2.7-0.1,4.1-0.2c-1.7-4.6-3.9-8.9-6.6-13l-0.5-0.7c-2.4-1-4.5-2.2-6.4-4c-5.2-4.7-5.7-11.6-8.4-17.7
			c-1.8-4-4.2-7.8-5.6-12c-1.1-3.1-1.5-6.6-0.7-9.9l0.7-3c-1.4-2.4-2.7-4.8-3.9-7.3l-2-4.2l4.4,1c-0.7-3.3-1.6-6.6-2.6-9.9
			c-2.4-8.3-5.4-16.5-8.9-24.3l-2-4.6l4.8,1.5c1.7,0.5,3.3,1.1,5,1.7c-1.4-2.9-2.4-6.1-3.1-9.1c-2.9-12.9,0.5-27.7,7.8-38.7l1.1-1.7
			c-0.7-11.7-1.2-23.4-1.3-35.1l0-5.6c3.2,0.2,6.2-0.4,9.4-0.9c10.4-1.9,19.5-6.4,29.3-10.9c15.7-7.2,30.8-15.4,46.1-23.3
			c3.5-1.8,7-3.7,10.5-5.5l-26.3-23.5l48.6-4.8l19.5-45.1l19.5,45.1l48.6,4.8l-25.8,23.1c6.3,3.3,12.6,6.7,18.9,10.1
			c12.7,6.8,25.4,13.6,38.5,19.5c10,4.5,21.1,9,32,10.5l6.2,0.8l-0.2,6.2c-0.4,11.3-0.4,22.5-0.8,33.8
			C74.8-971.5,74.9-971,75.2-970.5z M-72.1-730.2c3.4,2.9,6.8,5.7,10.2,8.5c3.5-2.7,7-5.5,10.5-8.4c-3.6-0.4-7.3-0.7-10.9-0.7
			C-65.6-730.8-68.9-730.6-72.1-730.2z"/>
	</g>
	<g id="g12" transform="matrix(0.4811244,0,0,0.4811244,140.24732,545.43196)">
		<path id="path14" class="st1" d="M-189.7-998.1c19.7-7.7,38.9-17.2,57.6-27.1c4.7-2.5,9.4-5,14-7.6l4.2-19.2l-5-4.5
			c-24.5,12.5-50.4,26.5-70.4,35.2c-10.2,4.4-19.2,7.1-25.5,7.8c0.1,18.2,1.1,35.6,2.4,51.7c-2.2-4.5-4-9.1-5.6-13.4
			c-0.8-12.9-1.4-25.8-1.5-38.8l0-3.5c3.6-0.2,9.5-1.2,14.3-2.8c8.1-2.6,17-6.4,23-9.1c15.6-7.2,30.9-15.4,46.2-23.4
			c4.5-2.3,8.9-4.7,13.5-7l-24.9-22.2l44.7-4.4l17.9-41.5l17.9,41.5l44.7,4.4l-24.4,21.8c7.3,3.8,14.6,7.7,21.8,11.6
			c12.7,6.8,25.5,13.6,38.6,19.5c10,4.5,21.8,9.2,32.7,10.7l4.1,0.5l-0.1,4.2c-0.3,10.5-0.4,20.9-0.7,31.4c-0.5-0.7-1.2-1.1-1.9-1.7
			c-0.8-0.7-1.7-1.3-2.7-1.3c0.2-8.2,0.3-16.9,0.7-28.6c-25.7-3.4-62.8-25.8-96.2-43.1l-5.5,4.9l4.2,19.2c3.5,1.9,6.9,3.7,10.4,5.5
			c10.9,5.8,21.9,11.5,33,16.8c9.3,4.5,19,8.9,28.8,12.3l3.3,1.1l-0.2,3.5c-1.6,30.1-4.5,60.6-12.6,89.6C-3.7-851-32.3-808-69.5-769
			c-1.9-0.2-3.9-0.4-5.8-0.6c40.5-41.8,67.9-84.7,82-135.7c7.7-27.5,10.8-56.8,12.5-88.7c-19.1-6.6-44.8-19.9-69.4-33l4.2,19
			l-38.7-22.9l-38.7,22.9l4.2-19c-22.7,12.4-46,24.2-68.6,33c2.4,31.2,4.1,61.6,11.9,89.3c14.2,50.8,45.9,99.6,83.5,135.1
			c-2,0.2-4,0.4-6,0.6c-37.5-36.3-68-84.8-81.9-134.5c-1.2-4.2-2.2-8.4-3.1-12.6l0,0l1.1-2.6l-1.6,0.4c-5.1-24.7-6.6-50.5-8.4-75.4
			l-0.3-3.4L-189.7-998.1z M-98.7-738.5c5.8,5,10.6,9,14.2,11.8c4.9-3.8,9.7-7.7,14.5-11.7c1.9,0.3,3.9,0.7,5.8,1.1
			c-5.7,4.9-11.5,9.6-17.5,14.2l-2.9,2.2l-2.8-2.3c-5.8-4.7-11.5-9.5-17.1-14.4C-102.6-737.9-100.6-738.3-98.7-738.5z"/>
	</g>
	<g id="g16" transform="matrix(0.4811244,0,0,0.4811244,133.69417,645.12596)">
		<path id="path18" class="st1" d="M-193.9-1157.9c-5.8-8.2-9.7-18.2-12.2-25.2c-8.1,12.2-9.8,26.6-7.4,36.9c1,4.4,2.5,8,4,10.6
			c0.9-2.9,2.1-5.7,3.6-8.3c0.3-0.6,0.7-1.2,1.1-1.9c-1.8-6.7-3.2-19-2.3-26.4c0,4.9,0.4,10.6,1.2,15.9c0.4-2.3,1.2-4.9,2.3-7
			c-1,3.4-1.8,7.7-1.7,10.4c0.4,2.2,0.8,4.2,1.3,6C-201.4-1150.9-197.8-1154.8-193.9-1157.9z"/>
	</g>
	<g id="g20" transform="matrix(0.4811244,0,0,0.4811244,138.45706,658.5195)">
		<path id="path22" class="st1" d="M-192.7-1190.6c-9.4,3.3-18.1,12.5-22,19.4c-1.7,3-3,6.1-3.8,9.3c3.3,1.5,6.5,3.2,9.6,5.2
			c0.2-0.9,0.5-1.9,0.7-2.9c-0.2-2.7-1.6-7-3-10.4c1.7,2.4,3,5.9,3.6,8.4c1.9-6.5,4.7-14.2,7.8-19.2c-3.4,7.6-6.3,16.7-8,24.8
			c4.6,3.1,8.6,6.8,11.3,11.1c1.3-1.1,2.7-2.1,4-3c0.2-0.9,0.3-1.8,0.4-2.6c0.4-4.6-0.4-10.2-1.6-15.6
			C-195.3-1172.7-195-1184-192.7-1190.6z"/>
	</g>
	<g id="g24" transform="matrix(0.4811244,0,0,0.4811244,138.01972,700.51926)">
		<path id="path26" class="st1" d="M-208.7-1198.5c-3.7-4.7-6.8-9.4-9.6-15.4c15.9,3.5,23.4,8.8,30.1,14.5c-1.4,2-2.6,4.2-3.6,6.5
			c-4.7-4.4-10.9-9.6-16.3-12.6c4.9,3.9,10.9,8.8,15.8,13.8c-0.2,0.5-0.4,1.1-0.6,1.6c-1.4-0.6-2.8-1.1-4.2-1.8
			C-201.2-1193.7-205.1-1195.8-208.7-1198.5z"/>
	</g>
	<g id="g28" transform="matrix(0.4811244,0,0,0.4811244,132.10467,675.96844)">
		<path id="path30" class="st1" d="M-203-1163.6c-2.6-13-8.2-28.1-12-36.7c12.9,4,25,11.2,30.5,20.1c-3.1,2.6-5.8,5.6-7.8,8.6
			c-2,3-3.6,6.3-4.7,9.8C-199-1162.5-201-1163-203-1163.6z M-208.2-1193.5c3.8,4.1,7.5,8.4,10.8,12.9c-1.7-1-3.8-1.8-6.7-2.4
			c2.8,1.2,5.8,2.6,7.8,4c1.6,2.2,3,4.5,4.4,6.8l0.7-1.1C-194.7-1179.5-201.1-1187.2-208.2-1193.5z"/>
	</g>
	<g id="g32" transform="matrix(0.4811244,0,0,0.4811244,144.80165,684.12109)">
		<path id="path34" class="st1" d="M-194.4-1204.8c-9.6,2.5-18.7,10.4-23.1,17c-2,3-3.5,6.2-4.5,9.4c3.5,1.2,6.8,2.6,10,4.4
			c0.5,0.3,0.9,0.5,1.4,0.8c1.2-4.8,2.9-9.8,5.2-13.9c-1.5,4.8-3,9.7-4.2,14.6c1.2,0.8,2.4,1.6,3.6,2.5c1.6-1.7,3.2-3.9,4.7-6.1
			c-1.6,3.2-2.6,5-4,6.6c1.3,1,2.5,2,3.8,3.1c1.4-1.9,3-3.7,4.7-5.4c0-3-0.3-6.2-0.8-9.4C-198.5-1187.9-197.2-1198.4-194.4-1204.8z"
			/>
	</g>
	<g id="g36" transform="matrix(0.4811244,0,0,0.4811244,163.77479,738.93753)">
		<path id="path38" class="st1" d="M-231.9-1235.2c-0.5,3.9-0.7,8.8-0.4,11.4c1.1,0.3,6.1,1.2,8.6,1.9c-0.2-3.1-0.2-6.4,0-9.9
			C-226.6-1233.3-229-1234.3-231.9-1235.2z M-222.6-1221.6c1.2,0.4,2.4,0.8,3.6,1.2c0.6,0.2,1.2,0.4,1.7,0.7
			c0.7-2.3,1.5-4.6,2.5-6.8c-2.7-1.8-5.5-3.5-8.4-5.1C-223-1228.3-222.9-1224.9-222.6-1221.6z"/>
	</g>
	<g id="g40" transform="matrix(0.4811244,0,0,0.4811244,156.42561,746.738)">
		<path id="path42" class="st1" d="M-208.2-1213.6l-20.3-25.5c10.3-0.4,19,1.6,26.1,4.5c-0.7,2.7-1.2,5.5-1.4,8.3
			c-3.8-2.5-9-5.2-13.9-7.5c4.4,2.6,9.7,6,13.8,9c0,0.8,0,1.7,0,2.5c-1.7,0.1-3.3,0.3-6.3,0.5c2.1,0.2,4.4,0.3,6.3,0.3
			c0.1,2.5,0.4,4.9,0.9,7.4C-204.7-1214-206.4-1213.9-208.2-1213.6z"/>
	</g>
	<g id="g44" transform="matrix(0.4811244,0,0,0.4811244,172.24643,738.57861)">
		<path id="path46" class="st1" d="M-225.7-1235c-8.2,12.4-11.5,25.3-8.7,37.8c3.2-0.1,6.4,0.2,9.6,0.7c-1.6-6.7-2.6-15.5-2.1-25.5
			c0.4,6.8,1,14,2.3,20.9c0.7-2.6,1.8-4.3,4.1-8c-1.7,3.3-3.3,7.7-3.6,10.2c0.2,0.9,0.4,1.8,0.6,2.7c2,0.4,3.9,0.8,5.9,1.4
			c1-1.8,2.3-3.3,3.8-4.8c-0.9,1.4-2,3-2.9,5c2.9,0.9,5.7,2.1,8.4,3.6c0.6,0.3,1.2,0.6,1.7,1c-0.8-4.4-2.5-8.4-4.4-11.8
			c-2.2-4-5.2-7.5-7.9-12.4C-222.1-1220.1-224.5-1228.5-225.7-1235z"/>
	</g>
	<g id="g48" transform="matrix(0.4811244,0,0,0.4811244,166.97282,761.00671)">
		<path id="path50" class="st2" d="M-196.4-1209.2c-4.9-1.7-10.4-4-12.7-6.3l-25.3-25.7c30.9-6.2,48.3,13.1,52.9,18
			c1.4,1.5,3.4,6.5,4.9,10.5c-1.8,0.4-3.5,0.8-5.3,1.2c-2.9-3.2-6.6-6.5-11.4-10c-0.2-2.9-0.4-5.1-1.7-8.3c0.6,2.6,0.8,5.1,0.6,7.5
			c-7-4.9-16.1-10.1-28.2-15.6c5,2.7,10,5.4,14.9,8.2c-2.2,0.2-3.6,0.2-7.4,0.3c3.3,0.4,7,0.6,9.2,0.7c5.5,3.3,10.9,6.9,15.9,11.2
			c-3.1,0.2-8.6,0.3-12.6,0.5c3.2,0.4,10.9,0.5,13.8,0.6c1.8,1.6,3.6,3.4,5.3,5.2c-1.3,0.3-2.6,0.5-4,0.8
			C-189.9-1209.9-193.5-1209.2-196.4-1209.2z"/>
	</g>
	<g id="g52" transform="matrix(0.4811244,0,0,0.4811244,166.97282,761.00671)">
		<path id="path54" class="st1" d="M-196.4-1209.2c-4.9-1.7-10.4-4-12.7-6.3l-25.3-25.7c30.9-6.2,48.3,13.1,52.9,18
			c1.4,1.5,3.4,6.5,4.9,10.5c-1.8,0.4-3.5,0.8-5.3,1.2c-2.9-3.2-6.6-6.5-11.4-10c-0.2-2.9-0.4-5.1-1.7-8.3c0.6,2.6,0.8,5.1,0.6,7.5
			c-7-4.9-16.1-10.1-28.2-15.6c5,2.7,10,5.4,14.9,8.2c-2.2,0.2-3.6,0.2-7.4,0.3c3.3,0.4,7,0.6,9.2,0.7c5.5,3.3,10.9,6.9,15.9,11.2
			c-3.1,0.2-8.6,0.3-12.6,0.5c3.2,0.4,10.9,0.5,13.8,0.6c1.8,1.6,3.6,3.4,5.3,5.2c-1.3,0.3-2.6,0.5-4,0.8
			C-189.9-1209.9-193.5-1209.2-196.4-1209.2z"/>
	</g>
	<g id="g56" transform="matrix(0.4811244,0,0,0.4811244,154.48813,736.47273)">
		<path id="path58" class="st1" d="M-227.4-1233.8c2.8,4.4,5.1,9.2,7,14.6c1.9,0,3.5,0.2,6,0.5c-0.2-3.5-0.1-7.8,0.6-11.8
			C-218.2-1231.7-223-1232.4-227.4-1233.8z"/>
	</g>
	<g id="g60" transform="matrix(0.4811244,0,0,0.4811244,139.7686,708.26295)">
		<path id="path62" class="st2" d="M-218.6-1218.2c-0.7,2.9-0.3,5.8,0.6,8.6c1.2,3.6,3.4,7,5.6,11.8c2.4,5.4,3.3,12.7,7.9,16.9
			c5.7,5.2,13.1,5.3,20.9,7.4c6.2,1.7,12.7,5.1,19.3,9.4c0.7-1.5,1.5-3.1,2.4-4.5c-2.8-7.9-6.4-17.2-8-20.5
			c-2.9-5.9-8.7-8.5-14.4-10.8C-194.4-1204.1-208.1-1207.6-218.6-1218.2z"/>
	</g>
	<g id="g64" transform="matrix(0.4811244,0,0,0.4811244,155.48453,704.32928)">
		<path id="path66" class="st1" d="M-214-1216c-7.1,4.9-11.4,11.8-14,18.5c2.5,1,5,1.9,7.4,2.8c0.5-4.7,1.5-9.7,3-13.9
			c-0.8,4.7-1.5,9.5-1.9,14.3c1,0.4,2,0.8,2.9,1.2c3,1.2,5.6,2.4,7.9,3.8c-0.5-1.2-1.1-2.5-1.6-3.9
			C-212.4-1199.5-213.8-1209.4-214-1216z"/>
	</g>
	<g id="g68" transform="matrix(0.4811244,0,0,0.4811244,139.7686,708.26295)">
		<path id="path70" class="st3" d="M-218.6-1218.2c-0.7,2.9-0.3,5.8,0.6,8.6c1.2,3.6,3.4,7,5.6,11.8c2.4,5.4,3.3,12.7,7.9,16.9
			c5.7,5.2,13.1,5.3,20.9,7.4c6.2,1.7,12.7,5.1,19.3,9.4c0.7-1.5,1.5-3.1,2.4-4.5c-2.8-7.9-6.4-17.2-8-20.5
			c-2.9-5.9-8.7-8.5-14.4-10.8C-194.4-1204.1-208.1-1207.6-218.6-1218.2z"/>
	</g>
	<g id="g72" transform="matrix(0.4811244,0,0,0.4811244,277.72383,708.32695)">
		<path id="path74" class="st3" d="M-236.4-1218.2c0.7,2.9,0.4,5.9-0.5,8.7c-1.2,3.6-2.7,6.7-4.9,11.4c-2.4,5.4-4.5,13.3-9,17.7
			c-2.2,2.1-3.8,3.2-6.1,4.3c-5,2.4-10.9,3.7-16.3,5c-6.5,1.6-14.7,4.8-22.6,9.9c3.5-7.8,10.3-24.5,11.8-27.9
			c3.3-7.5,8.4-9,14.1-11.3C-259.9-1204.4-246.8-1207.9-236.4-1218.2z"/>
	</g>
	<g id="g76" transform="matrix(0.4811244,0,0,0.4811244,252.88337,763.50134)">
		<path id="path78" class="st1" d="M-282-1218c0.2-3.5,0.3-7.3,2.2-9.5c1.7-1.9,5,0.1,6.7-1.5c1.6-1.5,0.9-7.6,4.3-11.6
			c1.4-1.6,4.3-0.3,6.4-0.8c2.8-0.6,3.1-3.7,5.5-3.9c2.3-0.3,3.6,2.6,5.8,1.9c1.3-0.4,2.3-1.9,3.6-3.1c1.3-1.3,2.9-2.3,4.2-1.8
			c1.8,0.8,2.2,2.6,1.9,4.4c-0.2,1.8-1.5,3.2-1.2,4.8c0.2,1,1.4,1.5,1.2,3.4c-0.3,2-2.1,1.6-2.1,4.3c0,2.6,1.7,5.7,0.6,7.7
			c-1.3,2.2-4.6,3.8-7.7,5.4c-0.9,0.5-4,0-5,0.5c-1.6,0.9-2.9,2-4.2,2.9l-0.3,0c-4,0-7.8-0.1-11.7-0.8c3.4-2.6,6.7-5.6,10.3-9.2
			c3.5,0.3,9.3,0.1,12.7-0.5c-2.6,0.1-8.8,0.2-11.9-0.4c4.5-4.6,9.3-10.1,14.8-17.1c-3.4,3.7-6.8,7.5-10.2,11.2
			c0.3-2.4,0.4-4.1,0.7-7c-0.9,3.1-1.3,6.1-1.9,8.2c-2.5,2.7-5.2,5.3-8,7.8c0-3,0.3-8.8,0.5-12.9c-0.6,3.2-1.3,11-1.6,13.9
			c-2.2,1.9-4.4,3.7-6.8,5.5c-0.7-2.5-1.2-4.2-2.1-7.2c0.3,2.6,0.8,5.1,1.2,7.1C-276.7-1216.7-279.3-1217.4-282-1218z"/>
	</g>
	<g id="g80" transform="matrix(0.4811244,0,0,0.4811244,281.81771,737.92476)">
		<path id="path82" class="st1" d="M-279.7-1231.6c-2.6,4.7-6,10.1-9.2,15c-0.8-3.2-1.6-5.8-2.6-7.9c0.8,2.8,1.5,5.7,2,8.7
			c-1.2,1.7-2.3,3.3-3.4,4.8c0-0.2-0.1-0.4-0.1-0.6c-0.4-1.8-1.5-2.2-2.2-3.7c-0.5-1-0.1-4.1-0.3-5.3c-0.2-2-0.7-3.6-2.5-4.1
			c5.3-2.8,11-5.1,16.7-6.5L-279.7-1231.6z M-269.1-1234.6c-0.2,4-2.8,8.5-4.8,11c-1.2,1.6,2,1.9,1.5,3.9c-0.2,0.7-1.6,1.2-1.4,2.5
			c0.2,1.9,2.2,1.7,2,4.1c-0.2,2.4-7.7,6.5-12.9,7.8c-1.4,0.4-2.9,0.9-3,3.5c-0.1,2.3,0.5,4.2-1.9,5.3c-0.6,0.3-1.1,0.5-1.7,0.7
			c-0.1-1.4-0.6-2.5-1.8-3.6c-1.4-1.3-2.7-2.7-2.9-4.3c1.1-2.2,2.2-4.5,3.8-6.9c4.7-0.6,9.6-0.8,13.7-1.7c-4.5,0.2-9,0.6-13,0.6
			c1.6-2.3,3.5-5.1,5.5-8.2c1.6-0.7,3.5-1.4,5.4-2.3c-1.9,0.6-3.3,1-4.8,1.4c2.2-3.6,4.4-7.4,6.1-11.1
			C-275.9-1232.5-272.4-1233.4-269.1-1234.6z"/>
	</g>
	<g id="g84" transform="matrix(0.4811244,0,0,0.4811244,265.64471,745.17097)">
		<path id="path86" class="st1" d="M-288.5-1204.8c-0.3-2.3-0.5-4.4-0.1-5.9c0.3-1.3,2.6-2,3.3-3.3c1.1-1.9-0.9-6.9-0.7-8.9
			c0.3-2.9,3.3-2,5.1-2.6c2.3-0.7,0.9-3.3,2.7-4.2c2-1,1.5,1.6,3.6,0.3c0.9-0.6,2-3,2.3-4.2c0.4-1.2,1.4-1.6,2.1-2.1
			c1.8-1.4,3.5-2.7,4.4-2.7c2-0.1,2.3,1,2.5,3c0.2,1.8-0.3,4.4,0.4,5.9c0.8,1.5,1.8,1.9,2.1,3.4c0.4,1.8-0.5,2.6-1.6,3.9
			c-3,3.7-0.4,7,2,9.1c1.4,1.3,1.5,2.5,1.3,4c-0.4,3.7-3.3,6.1-5.4,6.8c-0.9,0.3-2,0.4-3.2,0.4c0.3-1,1-2.2,1.1-3.5
			c0.3-2.4-0.3-4.8-2.7-5.9c-1.8-0.7-3.6,0.3-5,1.4c1.3-3.2,2.7-7,3.9-10.8c1.4-1.2,3-2.5,4.5-4c-1.7,1.2-2.9,2-4.2,2.9
			c1.1-3.4,2-6.9,2.5-10.2c-1.7,7-5.1,16.2-8.3,23.6c-0.3,0.3-0.6,0.7-1,1c-1-5.2-1.7-9.2-3-12.2c0.9,4.1,1.7,8.5,1.9,13
			c-0.1,0-0.1,0.1-0.2,0.1c-1.2,0.3-2.9-2.3-5.6-2C-286.3-1208.3-286.9-1205.7-288.5-1204.8z"/>
	</g>
	<g id="g88" transform="matrix(0.4811244,0,0,0.4811244,300.19138,681.3248)">
		<path id="path90" class="st1" d="M-308.2-1171.3c0-1.5,0.2-2.9,0.9-4.1c1.3-2.2,4.9-0.8,6.3-2.7c1.3-1.7-0.6-7.7,2-12.2
			c1-1.8,4-1.5,5.9-2.3c2.6-1.1,1.1-1.1,3.3-2c2.5-1,2.8-2.8,4.3-3.5c0.9-0.4,1.9,1.1,4.4-1.7c1.2-1.3,3.2-2.2,4.5-2.4
			c1.3-0.3,2.9-1,3,0.8c0.1,1.8-0.7,7.3-1.9,9.8c-0.8,1.8,2.8,1.9,2.7,3.9c0,0.8-1.8,2-1.4,3.3c0.6,1.9,2.7,1,2.9,3.5
			c0.2,1.7-1.7,4.1-4.6,6.5c-1.3,1.1-5.8,3.4-6.8,4.5c-1.1,1.2-1.6,2.4-0.7,3.7c1.6,2.3,0.1,3.6-2,5.2c-0.5-1.6-1.2-3-2.3-4.3
			c-0.4-0.5-2-1.9-2.2-2.2c-0.1-0.4,0-2.3-0.2-3.1c-0.1-0.6-0.3-1-0.5-1.5c3.5-0.6,8.9-1.6,11.3-2.6c-3.7,0.8-8.9,1.5-12.1,1.6
			c-0.3-0.3-0.7-0.6-1.1-0.8c3.5-5.5,11.9-15.4,15.4-19.4c-3.8,3.5-13.8,13.6-16.4,19c-0.3-0.1-0.7-0.2-1.1-0.3
			c-2.3-0.5-6.6,0.8-8.9,1.5C-304.9-1172.5-306.5-1171.9-308.2-1171.3z"/>
	</g>
	<g id="g92" transform="matrix(0.4811244,0,0,0.4811244,304.20876,654.87498)">
		<path id="path94" class="st1" d="M-310.4-1153c0-0.5,0-0.9,0-1.4C-310.2-1153.8-310.1-1153.3-310.4-1153z M-300.8-1172.2
			c0.3-1.9,1-3.7,2.2-4.4c2.5-1.5,3.9-1.1,5.9-2.3c2.3-1.4,1.2-2.8,2.6-3.8c0.8-0.5,2.1,0.5,3.9-1.7c1.1-1.4,1.8-2.4,3.1-2.8
			c1.3-0.4,3.1-1.4,3.1,0.4c-0.1,1.7-0.1,5.6-0.3,8.7c-0.1,2,2.5,1.3,2.6,3.3c0.1,0.8-1.2,3.3-0.6,4.5c0.9,1.8,4.2-0.5,3.9,2.7
			c-0.2,2.1-1.7,5.1-5,7.4c-1.6,1.1-4.5,2.9-5.5,5.8c-0.6-1-1.4-1.9-2.3-2.7c-0.5-0.4-3.1-2.1-3.3-2.4c0-0.2,0-0.4,0-0.6
			c3.2-1.5,7.4-3.7,9.3-5.1c-2.7,1.5-6.4,3.1-9.4,4.2c0-0.2,0-0.4-0.1-0.6c1.9-6.5,4.5-14.9,5.9-18.8c-1,2.3-2.7,6.4-4.2,10.7
			c-1-1.7-1.7-2.8-3-5c0.9,2.4,1.9,4.3,2.6,6.1c-0.6,1.8-1.3,3.7-1.8,5.4c-0.1-0.1-0.1-0.2-0.2-0.4c-0.5-0.6-1.1-0.9-1.7-1.1
			c-0.2-0.1-0.8-0.2-1-0.3c-0.7-1.3-1.1-2.5-1.8-3.8C-296.9-1170.3-298.8-1172.2-300.8-1172.2z M-284-1148.9c0.1,0.3,0,0.7-0.1,1
			l0-0.1C-284-1148.3-284-1148.6-284-1148.9z"/>
	</g>
	<g id="g96" transform="matrix(0.4811244,0,0,0.4811244,301.95421,666.06016)">
		<path id="path98" class="st1" d="M-304.7-1157.3c-0.1-0.4-0.3-0.7-0.3-1c-0.3-1.3,1.4-3,1.5-4.5c0.1-2.2-3.9-5.8-4.6-7.7
			c-1-2.7,2-3.3,3.4-4.6c1.7-1.7-0.7-3.4,0.5-5c1.4-1.8,2.1,0.7,3.4-1.4c0.6-0.9,0.6-2.8,0.4-4c-0.2-1.2,0.6-2.8,0.9-3.6
			c0.5-1.1,1.6-4.2,2.5-4.7c1.4-0.9,3.5,0.9,4.5,2.5c1,1.6,1.1,2.5,1.8,3.8c0.5,1,2.1,0.6,2.9,1.6c0.6,0.8,0.4,1.6,0.6,3.4
			c0.1,1.2,2,1.7,3.8,3.2c1.1,0.9,2.1,2.1,2.6,3.9c0.3,1,0.2,2.1,0.1,3.6c-1.8,0.4-3.7,1.4-4.9,2.8c-2.2,2.4-2.1,0.5-4,1.3
			c-0.8,0.4-1.3,0.9-1.8,1.5c-0.1-1.1-0.1-2.3-0.3-3.5c1.1-1.7,2.5-3.8,3.8-6.1c-1.6,2-2.6,3.3-3.9,4.9c-0.6-6.4-1.7-13.5-2.4-16.9
			c0.5,4.8,1.5,15.7,1.8,22.7c-0.4,0.4-0.9,0.7-1.5,1c-0.8,0.3-1.4,0.6-2,1.2c-0.3,0.4-0.9,0.6-1.4,0.8c-2.2,0.9-5.1,0.3-6.6,2.9
			C-304.2-1158.6-304.5-1158-304.7-1157.3z"/>
	</g>
	<g id="g100" transform="matrix(0.4811244,0,0,0.4811244,302.45988,639.68107)">
		<path id="path102" class="st1" d="M-301.6-1135.3c-1.8-1.4-3.2-3.3-4.3-4.3c-2.4-2.3-0.9-0.6-2.4-2.8c-1.2-1.8,0.3-4.1,2-5.3
			c1.1-0.8,1.7-1.9,1.8-2.7c0.2-2.2-2.5-4.6-3.3-7.1c-0.7-2.2,0.7-6.7,5.5-7.5c1.4-0.2,1-2.8,1.8-3.6c2.3-2.2,4.6,1,4.5-3
			c-0.1-1.2,0.4-2.7,0.8-3.5c0.5-1.1,1.8-4.1,2.8-4.6c0.8-0.5,1.6,0.1,2.4,0.8c0.7,0.6,1.5,1.2,2,1.9c0.9,1.6,1,2.5,1.6,3.8
			c0.5,1,2,0.8,2.8,1.8c0.6,0.7,0.5,1.5,0.5,3.3c0,1.2,2.2,2,3.9,3.6c1,1,1.7,1.4,2.1,3.3c0.2,0.9,0.1,2.2,0,3.6
			c-0.6,0-1.2,0.2-1.8,0.4c-0.3,0.1-0.5,0.2-0.8,0.3c-1.7,0.6-2.7,1.9-3.7,3.3c-1.3,1.7-2.1,0.4-3.5,1.4c-2,1.3-0.9,2.7-2.6,3.7
			c-0.6,0.4-1.3,0.6-2,0.8l-0.4,0.1c0.4-2.6,0.7-6,0.9-9.6c1.3-1.6,3.1-3.7,4.7-5.8c-1.8,1.8-3.1,3.1-4.6,4.5
			c0.3-5.6,0.4-11.2,0.3-14.1c-0.2,4.3-0.9,13.5-1.7,20.4c-2.3-2.4-5.1-5.2-7.3-6.2c2.7,2.2,5.3,5.2,7.2,7.6
			c-0.2,1.3-0.3,2.5-0.5,3.5c-0.8,0.3-1.6,0.6-2.5,1.1c-1.9,1.1-2.7,3.6-3,6c-0.1,0-0.1,0.1-0.2,0.1
			C-300-1139.4-301-1136.8-301.6-1135.3z"/>
	</g>
	<g id="g104" transform="matrix(0.4811244,0,0,0.4811244,294.31444,700.8012)">
		<path id="path106" class="st1" d="M-304.8-1186c-0.1-1-0.1-1.7,0-2.1c0.4-1.9,3.1-2.2,4.4-4c1.2-1.6,0.3-3.5-0.7-5.8
			c-1.2-3-2.8-6.6-1.5-10.2c0.3-2.9,2-0.5,3.8-1.1c0.6-0.2,6.2-2.6,10.9-3.9c-1,4.6-2.2,9.3-3.4,14c-2.2-2.8-5.5-6.4-7.8-8.4
			c1.9,2,6,6.8,7.5,9.4c-0.7,2.6-1.4,5.1-2.2,7.7C-297.5-1188.8-301.2-1187.5-304.8-1186L-304.8-1186z M-287.8-1213.1
			c2.2-0.6,4.3-1,5.5-0.7c4.7,1,3.1,4.7,3.6,6.3c0.4,1.2,3.1,2.1,4.4,6.3c-4.2,3.6-8.9,6.3-14,8.7c-1.4,0.6-2.8,1.2-4.2,1.8
			c0.3-1.1,0.5-2.1,0.8-3.3c3-2,8.3-5.9,10.7-8.5c-2,1.7-7.5,5.6-10.3,7.1c0.6-2.6,1.2-5.4,1.8-8.4c1.3-1.6,3.2-3.6,4.8-5.8
			c-1.9,1.8-3.1,2.9-4.5,4.3C-288.8-1207.8-288.3-1210.4-287.8-1213.1z"/>
	</g>
	<g id="g108" transform="matrix(0.4811244,0,0,0.4811244,194.66057,553.01862)">
		<path id="path110" class="st3" d="M-197.9-1132.1l-14.8,34.2l-37,3.6l27.8,24.8l-8,36.5l32-18.9l32,18.9l-8-36.5l27.8-24.8
			l-37-3.6L-197.9-1132.1z"/>
	</g>
	<g id="g112" transform="matrix(0.4811244,0,0,0.4811244,207.19386,566.33225)">
		<path id="path114" class="st1" d="M-223.6-1139.5l-1,32.7l-32.1-9l31.2,11.7l-18.3,26.6l20.2-25.3l19.4,24.7l-17.4-26.2l29.5-10.7
			l-30.1,8.4L-223.6-1139.5z"/>
	</g>
	<g id="g116" transform="matrix(0.4811244,0,0,0.4811244,190.62153,781.14321)">
		<path id="path118" class="st3" d="M-247.4-1249.8c8.6,7.2,16.2,14.9,25.8,21.6c1.9,1.3,2.2,2.2,4.5,1.5c7-2.4,18.4-4.1,27.5-4.2
			c9.3-0.1,19,1.6,28.2,4.2c2.7,0.8,3.7-0.4,5.8-2c8.7-6.6,16.7-14.3,25.1-21.4c-4.4,0-8.2-0.1-12.4-0.9
			c-13.3-2.7-26.8-7.5-46.3-7.3c-19.5,0.2-36.2,5.5-46.9,7.5C-240.7-1250.1-244.5-1249.4-247.4-1249.8z"/>
	</g>
	<g id="g120" transform="matrix(0.4811244,0,0,0.4811244,144.23825,593.04712)">
		<path id="path122" class="st3" d="M-198.5-1098.4c19.7-7.7,38.8-17.1,57.4-27c4.5-2.4,9-4.8,13.4-7.3l3.9-17.8l-3.7-3.3
			c-4.7,2.4-9.5,4.9-14.1,7.4c-15.3,8-30.7,16.3-46.5,23.5c-3.5,1.6-7.7,3.5-12.2,5.3c-7.2,2.9-14.4,5.3-21.6,6.4
			c0.1,15.6,0.9,30.8,2.1,46.4c0.2,2.4,0.4,4.9,0.6,7.3c1.3,2.5,2.8,4.8,4.3,7.1c3.1-2.3,6.3-4.2,9.5-5.3l2.7-0.9l-0.9,2.7
			c-2.2,6.3-2.5,17.3-1.1,23.8c1.1,5,2.1,10.8,1.6,16c0,0.5-0.1,1-0.2,1.5c3-1.8,6.2-3.2,9.3-4.1c-5.2-24.8-6.6-50.5-8.5-75.6
			l-0.3-4.4L-198.5-1098.4z M-127.9-864c2.6-0.6,5.3-1.2,7.9-1.7c3.7-0.7,7.5-1.4,11.3-1.9c-37.3-36.4-67.6-84.8-81.5-134.3
			c-1-3.5-1.9-7.1-2.7-10.6c-2.1,6.1-3,14.7-2.2,20.5c0.4,2.7,0.7,5.5,0.8,8.4c0.9-0.8,1.8-1.5,2.8-2.1l2.1-1.4l0.1,2.5
			c0.2,6.9,1.5,16,3.8,22.5c0.7,2,1.6,4,2.5,5.9c0.9,0.7,1.7,1.4,2.5,2.3c2,2.2,3.2,5,4.6,8.7c1.4,3.5,4.3,11.1,5.6,14.8l3.5-5.5
			l0.6,3.4c1.2,6.3,3.8,14.9,6.7,20.4c2.3,4.3,5.5,8.1,7.9,12.3c2.3,4.2,4,8.7,4.7,13.3c5.2,3.2,9.4,7,13.7,11.6
			C-131.5-873.3-129.4-868.1-127.9-864z M-105.1-837.8c4.1,3.5,8.2,7,12.4,10.3c4.3-3.3,8.5-6.7,12.7-10.2c-4.4-0.6-8.8-1-13.1-1
			C-96.8-838.6-101-838.3-105.1-837.8z M-57.5-864c0.2-3.4,0.3-7.6,2.5-10.1c2.2-2.5,5.8-0.6,6.8-1.6c0.4-0.4,0.9-3.5,1-4.1
			c0.5-2.7,1.3-5.3,3.1-7.4c1.8-2.1,4.3-1,6.4-1.1c-0.4-2.4-0.5-4.8-0.1-6.5c0.5-2,2.8-2.5,3.5-3.7c0.7-1.2-1.1-6.5-0.9-8.4
			c0.1-1.1,0.6-2.1,1.5-2.7c1.6-1.1,3-0.6,4.6-1.1c1.1-0.4,0.1-3,2.5-4.1c0.8-0.4,1.8-0.4,2.4,0.1c0.2,0.2,0.4,0.3,0.5,0.4l0.1-0.1
			c0.4-0.5,0.9-0.8,1.4-1l0.9-2c0.4-1.5,1-3,1.7-4.5c1.8-4,3.5-8.1,5.2-12.1c2.2-5.2,4.3-10.6,6.6-15.8c3.1-7,7.2-8.9,13.5-11.5
			c-0.1-1.3-0.1-2.3,0-2.9c0.6-2.7,3.4-2.8,4.6-4.5c0.8-1.1-0.4-3.4-0.9-4.4c-1.5-3.5-2.8-7.2-1.6-11.1c0.1-1,0.5-2,1.5-2.4
			c1.3-0.5,2.5,0.5,3.2,0.3c0.6-0.2,1.3-0.5,2-0.8c0-1.9,0.2-3.8,1.1-5.3c1.7-2.9,5.5-1.7,6.4-2.8c0.4-0.5,0.2-3.6,0.2-4.2
			c0-1.3,0.1-2.6,0.3-3.8c-0.6-1-1-2-1.2-2.9c-0.4-2,1.4-3.4,1.4-4.8c0.1-1.3-3.9-5.3-4.5-7.1c-0.4-1-0.4-2.1,0.1-3.1
			c0.6-1.1,1.5-1.6,2.4-2.1c-0.2-1.7-0.2-3.4,0.4-4.9c0.9-2.2,3.2-2.5,4.7-3c0.1-0.8,0.1-1.8,0-2.3c-0.2-1.2,0.2-2.3,0.7-3.4
			c-1.7-1.3-3.1-3.1-4.7-4.6c-0.4-0.4-1.4-1.2-1.7-1.7c-0.3-0.4-0.5-0.9-0.8-1.4c-1.7-2.5,0.2-5.7,2.3-7.2c0.5-0.3,1.1-1.1,1.2-1.7
			c0.1-1-1.3-3-1.8-3.8c-0.5-0.9-1.1-1.8-1.4-2.8c-0.5-1.7-0.1-3.8,0.8-5.4c1.2-2.1,3.2-3.4,5.6-3.8c0.4-0.7,0.2-2.2,1.2-3.2
			c0.8-0.8,1.8-1.2,2.9-1.2c0.3,0,0.8,0,1.2,0c0-0.3,0-0.6,0-0.8c-0.1-1.3,0.4-3,1-4.2c0.7-1.4,1.9-4.3,3.3-5.1
			c0.2-9.3,0.3-18.5,0.6-27.8c-11.1-1.7-22.9-6.4-33.1-11c-13.3-6-26.2-12.9-39-19.7c-7.5-4-14.9-8-22.5-11.9l-4.2,3.8l3.9,17.8
			c3.3,1.8,6.6,3.5,9.8,5.2c10.9,5.8,21.8,11.5,32.9,16.8c9.4,4.5,18.9,8.8,28.7,12.2l4.3,1.5l-0.2,4.5
			c-1.6,30.2-4.5,60.7-12.7,89.9c-14.7,52.8-43.3,95.9-80.3,134.8c3,0.4,5.9,0.9,8.9,1.5C-64-865.6-60.7-864.8-57.5-864z"/>
	</g>
	<g id="g124" transform="matrix(0.4811244,0,0,0.4811244,161.88349,610.20209)">
		<path id="path126" class="st3" d="M-231.5-1127.6c2.2,29.2,3.8,59.8,11.7,88c14.1,50.3,45.6,99.4,84.1,135.4c2-0.1,4-0.2,6.1-0.2
			c2.5,0,5,0,7.5,0.2c38.2-39.2,67.6-82.4,82.5-135.9c7.9-28.3,10.8-58.1,12.4-87.3c-9.7-3.4-19.2-7.7-28.5-12.2
			c-11.2-5.4-22.2-11.1-33.2-16.9c-1.4-0.8-2.9-1.5-4.3-2.3l4.2,19.2l-40.7-24.1l-40.7,24.1l4.2-19.2c-2.6,1.4-5.3,2.8-7.9,4.2
			C-192.8-1144.7-211.9-1135.3-231.5-1127.6z"/>
	</g>
	<g id="g128" transform="matrix(0.4811244,0,0,0.4811244,161.88349,610.20209)">
		<path id="path130" class="st4" d="M-231.5-1127.6c2.2,29.2,3.8,59.8,11.7,88c6.3,22.7,16.2,45.1,28.7,66.2v-172.5
			C-204.3-1139.2-217.8-1133-231.5-1127.6z M-149.6-918.1c4.5,4.8,9.2,9.5,13.9,13.9c2-0.1,4-0.2,6.1-0.2c2.5,0,5,0,7.5,0.2
			c4.2-4.3,8.2-8.6,12.2-13v-234.8l-19.8-11.7l-19.8,11.7V-918.1z M-68.5-972.9c12.3-20.7,22.1-42.9,28.9-67.3
			c7.9-28.3,10.8-58.1,12.4-87.3c-9.7-3.4-19.2-7.7-28.5-12.2c-4.3-2.1-8.5-4.2-12.8-6.3V-972.9z"/>
	</g>
	<g id="g132" transform="matrix(0.4811244,0,0,0.4811244,152.41159,599.30174)">
		<path id="path134" class="st1" d="M-142.3-1156l-38,19.6c-6,3.1-12.1,6.1-18.3,8.9c-8.5,4-17.6,7.8-26.7,10.4l-0.7,0.2l-0.4-1.3
			l0.7-0.2c9-2.5,18-6.4,26.5-10.3c6.1-2.8,12.2-5.9,18.2-8.9l39-20.1L-142.3-1156z"/>
	</g>
	<g id="g136" transform="matrix(0.4811244,0,0,0.4811244,249.40051,598.84659)">
		<path id="path138" class="st1" d="M-280-1157.5l40.3,20.8c6,3.1,12.1,6.1,18.2,8.9c8.5,3.9,17.5,7.8,26.5,10.3l0.7,0.2l-0.4,1.3
			l-0.7-0.2c-9.1-2.5-18.2-6.4-26.7-10.4c-6.1-2.8-12.2-5.9-18.3-8.9l-39.3-20.2L-280-1157.5z"/>
	</g>
	<g id="g140" transform="matrix(0.4811244,0,0,0.4811244,150.22777,627.25459)">
		<path id="path142" class="st1" d="M-223.7-1172.6c0.1,15.7,1.5,31.3,2.9,47c-0.4,0.2-0.9,0.4-1.3,0.7c-1.5-15.9-2.9-31.7-3-47.6
			l0-0.7l1.4,0L-223.7-1172.6z"/>
	</g>
	<g id="g144" transform="matrix(0.4811244,0,0,0.4811244,305.74066,627.25459)">
		<path id="path146" class="st1" d="M-308.2-1172.6c-0.1,10.8-0.7,21.5-1.6,32.2c-0.5,0.1-1,0.2-1.4,0.4c0.9-10.8,1.6-21.7,1.7-32.6
			l0-0.7l1.4,0L-308.2-1172.6z"/>
	</g>
	<g id="g148" transform="matrix(0.4811244,0,0,0.4811244,247.28548,701.02636)">
		<path id="path150" class="st1" d="M-202.6-1213.1l-0.6,1.8c-0.4-0.1-0.9-0.2-1.4-0.1l0.8-2.2l0.2-0.7l1.3,0.4L-202.6-1213.1z
			 M-206.3-1202.4c-2.3,6.3-4.7,12.6-7.4,18.8c-0.7,0.4-1.4,0.8-2,1.2c3.3-7.5,6.2-15.2,9-22.9
			C-206.7-1204.2-206.6-1203.3-206.3-1202.4z M-234.4-1144.9c-1.2,1.9-2.4,3.9-3.7,5.8c-0.1,0-0.1-0.1-0.2-0.2
			c-0.3-0.2-0.7-0.4-1.1-0.4c3.2-4.9,6.2-9.8,9.1-14.8c-1.1,2.7-2.3,5.3-3.4,7.9C-234-1146-234.2-1145.4-234.4-1144.9z
			 M-248.3-1124.7c-9,12.2-18.8,23.7-29,34.9c-0.5-0.1-1-0.2-1.6-0.3c10.7-11.6,20.9-23.7,30.3-36.4
			C-248.5-1125.9-248.4-1125.2-248.3-1124.7z"/>
	</g>
	<g id="g152" transform="matrix(0.4811244,0,0,0.4811244,162.2323,703.99298)">
		<path id="path154" class="st1" d="M-231.7-1215.8l0.4,1.2c-0.1,0.1-0.2,0.2-0.4,0.3C-231.6-1214.8-231.7-1215.3-231.7-1215.8z
			 M-209.1-1165c0.6,1.1,1.2,2.2,1.8,3.2l-0.4,0.6C-208.1-1162.2-208.6-1163.6-209.1-1165z M-199.5-1149c2.5,4,5.2,7.9,7.9,11.7
			c10.3,14.4,21.6,28,33.7,41.1c-0.5,0.1-1,0.2-1.6,0.3c-11.9-12.9-23-26.3-33.2-40.6l-0.2-0.3c-1.4-2-2.7-4-3.9-6.1
			C-197.8-1144.7-198.7-1146.7-199.5-1149z"/>
	</g>
	<g id="g156" transform="matrix(0.4811244,0,0,0.4811244,147.52048,622.89656)">
		<path id="path158" class="st0" d="M-217.9-1170.8c3.1,0,5.7,2.5,5.7,5.7c0,3.1-2.5,5.7-5.7,5.7c-3.1,0-5.7-2.5-5.7-5.7
			C-223.5-1168.3-221-1170.8-217.9-1170.8z"/>
	</g>
	<g id="g160" transform="matrix(0.4811244,0,0,0.4811244,148.42403,623.80011)">
		<path id="path162" class="st1" d="M-219.8-1171.3c2.4,0,4.3,1.9,4.3,4.3c0,2.4-1.9,4.3-4.3,4.3c-2.4,0-4.3-1.9-4.3-4.3
			C-224-1169.4-222.1-1171.3-219.8-1171.3z"/>
	</g>
	<g id="g164" transform="matrix(0.4811244,0,0,0.4811244,178.51115,609.22397)">
		<path id="path166" class="st0" d="M-235.1-1163.3c3.1,0,5.7,2.5,5.7,5.7c0,3.1-2.5,5.7-5.7,5.7c-3.1,0-5.7-2.5-5.7-5.7
			C-240.7-1160.7-238.2-1163.3-235.1-1163.3z"/>
	</g>
	<g id="g168" transform="matrix(0.4811244,0,0,0.4811244,179.41518,610.128)">
		<path id="path170" class="st1" d="M-237-1163.8c2.4,0,4.3,1.9,4.3,4.3c0,2.4-1.9,4.3-4.3,4.3c-2.4,0-4.3-1.9-4.3-4.3
			C-241.2-1161.8-239.3-1163.8-237-1163.8z"/>
	</g>
	<g id="g172" transform="matrix(0.4811244,0,0,0.4811244,303.03001,622.89656)">
		<path id="path174" class="st0" d="M-304.1-1170.8c3.1,0,5.7,2.5,5.7,5.7c0,3.1-2.5,5.7-5.7,5.7c-3.1,0-5.7-2.5-5.7-5.7
			C-309.8-1168.3-307.2-1170.8-304.1-1170.8z"/>
	</g>
	<g id="g176" transform="matrix(0.4811244,0,0,0.4811244,303.93308,623.80011)">
		<path id="path178" class="st1" d="M-306-1171.3c2.4,0,4.3,1.9,4.3,4.3c0,2.4-1.9,4.3-4.3,4.3s-4.3-1.9-4.3-4.3
			C-310.3-1169.4-308.4-1171.3-306-1171.3z"/>
	</g>
	<g id="g180" transform="matrix(0.4811244,0,0,0.4811244,271.9614,609.22397)">
		<path id="path182" class="st0" d="M-286.9-1163.3c3.1,0,5.7,2.5,5.7,5.7c0,3.1-2.5,5.7-5.7,5.7c-3.1,0-5.7-2.5-5.7-5.7
			C-292.5-1160.7-290-1163.3-286.9-1163.3z"/>
	</g>
	<g id="g184" transform="matrix(0.4811244,0,0,0.4811244,272.86495,610.128)">
		<path id="path186" class="st1" d="M-288.8-1163.8c2.4,0,4.3,1.9,4.3,4.3c0,2.4-1.9,4.3-4.3,4.3c-2.4,0-4.3-1.9-4.3-4.3
			C-293-1161.8-291.1-1163.8-288.8-1163.8z"/>
	</g>
	<g id="g188" transform="matrix(0.4811244,0,0,0.4811244,142.99743,626.74748)">
		<path id="path190" class="st0" d="M-170.5-1163l25.1-5.7l2.4,7.6l12-9.9l26.6-1.9l17.5,13.3l-1.3,64.7l1.2,17.8L-102-1062
			l-30.8,1.4l-6.8-5.8l-1.2,19l-29.8,3l-8.3-10.6l-14.7,2.9l-27.5-13.6l27.3-91.9L-170.5-1163z"/>
	</g>
	<g id="g192" transform="matrix(0.4811244,0,0,0.4811244,145.55028,628.60366)">
		<path id="path194" class="st1" d="M-195.9-1098.5l7.5-1.1l14.8-64.9l20.1-4.6l-11.2,66.3l3.7-0.2l8.8-55.3l16.3-13.7l25.1-1.9
			l14.7,11.4l0,21.9l-23.8,0.1l0.3-15l-9.8,0.5l-5.5,49.9l14-0.6l1.3-22.5l23.7-0.8l-0.6,28.8l-17.8,14l-32.6,2.2l-11.7-9.8
			l-3.6,27.2l-23.7,1.9l2.2-15l-38.9,6.7l25.4-86.3l17.4-3.8L-195.9-1098.5z"/>
	</g>
	<g id="g196" transform="matrix(0.4811244,0,0,0.4811244,147.46515,630.16394)">
		<path id="path198" class="st5" d="M-199.4-1160.8l-24.1,81.9l38.4-6.6l-2.2,15.2l19.5-1.5l3.9-29.3l13.9,11.7l31.1-2.1l16.5-13
			l0.5-25.7l-19.6,0.6l-1.3,22.4l-18.3,0.8l5.9-54.1l13.9-0.6l-0.3,14.7h19.4l0.1-18.3l-13.4-10.3l-23.7,1.8l-15,12.5l-8.9,56.1
			l-8,0.5l11.1-65.8l-15.9,3.6l-14.8,65l-12,1.8l16-64.1L-199.4-1160.8z"/>
	</g>
	<g id="g200" transform="matrix(0.4811244,0,0,0.4811244,227.72778,626.5329)">
		<path id="path202" class="st0" d="M-236.5-1153.4l7.4-17.9l27.5,4.9l-3.1,9l9-7.5l33.1,9.3l28.8,91l-23.4,13.4l-35.7-5.6
			l-34.8-3.7l-5.3-9.3l-1.1,9l-33.9-1l1.3-111l29,1.1L-236.5-1153.4z"/>
	</g>
	<g id="g204" transform="matrix(0.4811244,0,0,0.4811244,230.40475,628.4141)">
		<path id="path206" class="st1" d="M-244-1145.3l11-26.8l22.1,3.9l-12.3,35.4l22.4,36.4l-10.9-60.2l11-9.2l30.2,8.5l27,85.1
			l-21.4-4.6l-4.2-17l-7.7-0.7l3.1,16.6l-22.7-3.4l-24.7-2.2l-20.9-36.3l2.2,34.9l-28.5-0.6l-1.2-88.4l23.7,0.9L-244-1145.3z
			 M-189.9-1147.5l7.7,32.2l8.4,1.2l-9.5-31.4L-189.9-1147.5z"/>
	</g>
	<g id="g208" transform="matrix(0.4811244,0,0,0.4811244,231.78029,629.82523)">
		<path id="path210" class="st5" d="M-270.3-1174.7l1.2,84.2l24.3,0.5l-2.6-41.4l24.8,43l23.7,2.1l19.9,3l-3.1-16.4l11.9,1l4.3,17.2
			l16.6,3.6l-25.5-80.6l-28.1-7.9l-9.3,7.7l12.6,69.8l-28.6-46.6l11.9-34.1l-18.1-3.2l-13.5,34.3l-2.6-35.5L-270.3-1174.7z
			 M-195.6-1153.4l8.9,37l13,1.8l-10.7-35.6L-195.6-1153.4z"/>
	</g>
	<g id="g212" transform="matrix(0.4811244,0,0,0.4811244,197.86294,702.4019)">
		<path id="path214" class="st5" d="M-204.2-1214.9c26.1,0,47.3,21.2,47.3,47.3c0,26.1-21.2,47.3-47.3,47.3s-47.3-21.2-47.3-47.3
			C-251.5-1193.7-230.3-1214.9-204.2-1214.9z"/>
	</g>
	<g id="g216" transform="matrix(0.4811244,0,0,0.4811244,197.41068,701.95012)">
		<path id="path218" class="st0" d="M-203.2-1214.7c26.5,0,48,21.5,48,48c0,26.5-21.5,48-48,48c-26.5,0-48-21.5-48-48
			C-251.2-1193.2-229.7-1214.7-203.2-1214.7z M-169.9-1176.9l-17.2,6.1c-0.7,6.1-2.5,11.9-5.8,17.6l10.6,14.6
			c4.5-0.2,9.1-1.7,13.6-4.9c4.1-6.2,6.7-13.5,7-21.4C-163.4-1170.1-166.3-1174.2-169.9-1176.9z M-187.5-1171.9l17.2-6.1
			c1.3-4.3,1.4-9.1-0.3-14.4c-4.7-5.9-11-10.6-18.2-13.3c-5.3,0-10.1,1.4-13.8,4.1v18.7C-197-1180.3-191.9-1176.8-187.5-1171.9z
			 M-183.4-1138.2l-10.6-14.6c-5.8,1.2-11.8,1.2-18,0l-10.7,15.1c1.6,4.1,4.3,7.9,8.7,11.1c3.4,0.9,7,1.4,10.7,1.4
			c3.9,0,7.7-0.5,11.3-1.6C-187.6-1129.9-184.8-1133.7-183.4-1138.2z M-223.4-1138.5l10.5-14.8c-3-5.3-5-11.2-5.7-17.7l-17.8-5.8
			c-3.6,2.7-6.5,6.5-8.3,11.8c0.3,8.1,3,15.7,7.3,21.9C-232.9-1140-228.1-1138.4-223.4-1138.5z M-236.2-1178l18.1,5.9
			c4-4.3,8.7-7.8,14.3-10.4v-18.9c-3.7-2.6-8.2-4.2-13.8-4.2c-7.2,2.7-13.5,7.3-18.2,13.3C-237.4-1187.3-237.5-1182.3-236.2-1178z
			 M-170-1193.4c2.5,0.7,4.8,1.6,6.9,3c-6.4-10.8-17.1-18.9-29.7-21.7c1.9,1.7,3.7,3.6,4.9,5.6
			C-180.8-1203.8-174.7-1199.2-170-1193.4z M-156.8-1170.8c-1,2.3-2.3,4.6-3.8,6.4c-0.4,7.7-2.9,14.9-6.9,21.1
			c0.1,2.6-0.1,5.1-0.7,7.5c7.3-8.2,11.7-19,11.7-30.8C-156.6-1168.1-156.7-1169.4-156.8-1170.8z M-184.9-1123.8
			c-2.5-0.3-5.1-0.8-7.3-1.7c-3.5,0.9-7.2,1.4-11,1.4c-3.7,0-7.2-0.5-10.6-1.3c-2.4,1-4.9,1.6-7.4,1.7c5.5,2.3,11.6,3.6,17.9,3.6
			C-196.7-1120.1-190.6-1121.4-184.9-1123.8z M-237.9-1135.6c-0.6-2.5-0.9-5.1-0.8-7.4c-4.2-6.2-6.8-13.6-7.1-21.6
			c-1.6-2-2.9-4.2-3.8-6.5c-0.1,1.5-0.2,2.9-0.2,4.4C-249.8-1154.7-245.3-1143.8-237.9-1135.6z M-243.2-1190.6
			c2.2-1.3,4.6-2.4,6.9-2.9c4.7-5.8,10.9-10.3,18-13c1.4-2.2,3.1-4.1,5-5.6C-226-1209.4-236.7-1201.4-243.2-1190.6z"/>
	</g>
	<g id="g220" transform="matrix(0.4811244,0,0,0.4811244,225.07534,785.24287)">
		<path id="path222" class="st1" d="M-259.4-1244.4v-2.8l2.2,0c1.3,0,2.5-0.6,2.5-2.4v-6.2c0-1.6-1.5-2.3-2.8-2.3h-1.8v-2.8h-2.5
			v2.8h-1.9c-1.3,0-2.8,0.7-2.8,2.3c0,2.2,0,4,0,6.2c0,1.8,1.2,2.4,2.6,2.4h2.1v2.8H-259.4z M-259.4-1248.6v-8l0.9,0
			c0.7,0,1.2,0.1,1.2,1.2v5.9c0,0.7-0.5,0.9-0.9,0.9L-259.4-1248.6z M-261.9-1256.6v8l-1.1,0c-0.6,0-1-0.3-1-0.9v-6c0-0.8,0.4-1,1-1
			L-261.9-1256.6z"/>
	</g>
	<g id="g224" transform="matrix(0.4811244,0,0,0.4811244,151.92181,720.58937)">
		<path id="path226" class="st1" d="M-226-1223.1c0.9-0.2,1.8-0.4,2.4-1.9l1.7,0.2l4.1,16.5l-2.6-0.4l-3.2-13l-2,0L-226-1223.1z"/>
	</g>
	<g id="g228" transform="matrix(0.4811244,0,0,0.4811244,300.50796,720.38537)">
		<path id="path230" class="st1" d="M-306.2-1221.8c1.1-0.3,2.3-0.9,3.6-2.8l1.6-0.3l-4.9,16.3l-2.5,0.5l3.6-12.5l-2,0.5
			L-306.2-1221.8z"/>
	</g>
	<g id="g232" transform="matrix(0.4811244,0,0,0.4811244,293.13905,723.12826)">
		<path id="path234" class="st1" d="M-302.1-1223.3c1.1-0.3,2.3-0.9,3.6-2.8l1.6-0.3l-5,16.3l-2.5,0.5l3.6-12.5l-2,0.5
			L-302.1-1223.3z"/>
	</g>
	<g id="g236" transform="matrix(0.4811244,0,0,0.4811244,159.66214,723.11864)">
		<path id="path238" class="st1" d="M-223.1-1222.2l2.6,10.1c0.6,2.2-0.6,3-2,2.8l-1.1-0.1c-2.1-0.2-3.4-2.3-3.6-3.2l-0.3-1.4
			l2.5,0.5l0.3,1.4c0.1,0.4,0.6,1,1.2,1.1c0.5,0.1,0.9-0.1,0.7-0.9l-0.9-3.7c-0.4,0.1-0.9,0.1-1.5,0c-2.1-0.3-3-1.3-3.5-3.4
			l-1.1-4.8c-0.5-2.1,0.6-2.7,2.2-2.6l0.7,0.1C-224.7-1226-223.7-1224.3-223.1-1222.2z M-224.3-1217.7l-1.5-5.7
			c-0.1-0.5-0.4-1-1.1-1.2c-0.8-0.1-0.6,0.6-0.5,1l1.4,5.5c0.2,0.6,0.6,0.9,1,1C-224.7-1216.9-224-1216.7-224.3-1217.7z"/>
	</g>
	<g id="g240" transform="matrix(0.4811244,0,0,0.4811244,214.67102,786.04827)">
		<path id="path242" class="st1" d="M-252.8-1261.3l2.6,16l-2.6,0.2l-2.3-14.3l-2.9,0.3l2.3,14.4l-2.6,0.2l-2.6-16L-252.8-1261.3z"
			/>
	</g>
	<g id="g244" transform="matrix(0.4811244,0,0,0.4811244,236.37503,785.7418)">
		<path id="path246" class="st1" d="M-268-1260.8l-2.6-0.3l-2.3,16.3l2.6,0.3l1.2-8.5l1.9,8.8l2.6,0.3l-2-9l4.4-7.1l-2.6-0.3
			l-4.3,7.1L-268-1260.8z"/>
	</g>
</g>
</svg>
