<?xml version="1.0" encoding="utf-8"?>
<!-- Generator: Adobe Illustrator 21.1.0, SVG Export Plug-In . SVG Version: 6.00 Build 0)  -->
<svg version="1.1"
	 id="svg2985" inkscape:version="0.48.0 r9654" sodipodi:docname="psv.svg" xmlns:cc="http://creativecommons.org/ns#" xmlns:dc="http://purl.org/dc/elements/1.1/" xmlns:inkscape="http://www.inkscape.org/namespaces/inkscape" xmlns:rdf="http://www.w3.org/1999/02/22-rdf-syntax-ns#" xmlns:sodipodi="http://sodipodi.sourceforge.net/DTD/sodipodi-0.dtd" xmlns:svg="http://www.w3.org/2000/svg"
	 xmlns="http://www.w3.org/2000/svg" xmlns:xlink="http://www.w3.org/1999/xlink" x="0px" y="0px" viewBox="0 0 200 200"
	 style="enable-background:new 0 0 200 200;" xml:space="preserve">
<style type="text/css">
	.st0{fill:#F00000;}
	.st1{fill-opacity:0;}
	.st2{fill:#FFFFFF;}
	.st3{fill:#A8862D;}
</style>
<g>
	<g>
		
			<path id="path4217_1_" sodipodi:cx="181.39719" sodipodi:cy="430.46405" sodipodi:end="7.8572787" sodipodi:open="true" sodipodi:rx="183.41646" sodipodi:ry="123.17509" sodipodi:start="1.5780947" sodipodi:type="arc" class="st0" d="
			M100.1,162.3c-50.2-0.3-90.7-28.1-90.3-62.3c0.4-34.2,41.4-61.6,91.6-61.3s90.7,28.1,90.3,62.3c-0.4,34-41.2,61.5-91.3,61.4"/>
		<path class="st1" d="M100.8,162.7c-0.1,0-0.2,0-0.3,0V162c0.1,0,0.2,0,0.3,0c24,0,46.7-6.3,63.8-17.8
			c17.1-11.5,26.6-26.8,26.8-43.2c0.2-12.3-5.1-24.3-15.2-34.5c-16.8-17-44.7-27.3-74.8-27.4c-0.2,0-0.5,0-0.7,0
			c-49.7,0-90.3,27.3-90.6,61c-0.2,12.3,5.1,24.3,15.2,34.5c16.8,17,44.7,27.3,74.8,27.4v0.7c-30.3-0.2-58.4-10.4-75.2-27.6
			c-10.2-10.4-15.5-22.5-15.4-35c0.4-34.1,41.3-61.7,91.3-61.7c0.3,0,0.5,0,0.7,0c30.3,0.2,58.4,10.4,75.2,27.6
			c10.2,10.4,15.5,22.5,15.4,35c-0.2,16.6-9.8,32.1-27.2,43.8C147.7,156.3,125,162.7,100.8,162.7z"/>
	</g>
	<g>
		<path id="path4172_1_" inkscape:connector-curvature="0" class="st2" d="M47.3,56.8l110,0.3l14.9,12.6L29.4,69.5L47.3,56.8z"/>
		<path class="st1" d="M172.8,69.9L28.6,69.7l18.7-13.1h0.1l110.1,0.2L172.8,69.9z M30.1,69.2l141.3,0.3l-14.3-12.2L47.4,57
			L30.1,69.2z"/>
	</g>
	<g>
		<path id="path4172-7_1_" inkscape:connector-curvature="0" sodipodi:nodetypes="ccccc" class="st2" d="M21,82.1l159.4,0.3
			L193.7,95L10.1,94.5L21,82.1z"/>
		<path class="st1" d="M194.4,95.3l-185-0.5l11.5-13H21l159.5,0.3L194.4,95.3z M10.7,94.3l182.2,0.5l-12.6-12L21.1,82.4L10.7,94.3z"
			/>
	</g>
	<g>
		<path id="path4172-9_1_" inkscape:connector-curvature="0" sodipodi:nodetypes="ccccc" class="st2" d="M12.3,106.5l175.9,0.5
			l3.7,12.4l-177.7-0.3L12.3,106.5z"/>
		<path class="st1" d="M192.3,119.7L14,119.4L12,106.2l176.4,0.5L192.3,119.7z M14.5,118.9l177,0.3l-3.5-11.8l-175.3-0.5L14.5,118.9
			z"/>
	</g>
	<g>
		<path id="path4172-90_1_" inkscape:connector-curvature="0" sodipodi:nodetypes="ccccc" class="st2" d="M25.7,131.6l145.9,0.3
			l-0.7,12.6L38,144.3L25.7,131.6z"/>
		<path class="st1" d="M171.1,144.8h-0.3l-133-0.3l-0.1-0.1l-12.7-13.1l146.7,0.3L171.1,144.8z M38.1,144l132.5,0.3l0.7-12.2
			l-145-0.3L38.1,144z"/>
	</g>
	<path id="path2997" inkscape:connector-curvature="0" class="st3" d="M100.7,30.9C45.5,30.6,0.4,61.4,0,99.5s44.1,69.3,99.3,69.6
		h0.4c55.1,0.2,99.9-30.5,100.3-68.6C200.4,62.4,155.9,31.2,100.7,30.9z M100.7,46c46.4,0.2,83.7,24.7,83.4,54.6
		c-0.4,29.9-38,53.9-84.3,53.9h-0.4c-46.4-0.2-83.7-24.7-83.4-54.6C16.4,69.9,54.3,45.8,100.7,46z"/>
	<g>
		
			<path id="path2999_1_" sodipodi:cx="236.59039" sodipodi:cy="115.12236" sodipodi:end="7.8572787" sodipodi:open="true" sodipodi:rx="0.33654395" sodipodi:ry="5.7212472" sodipodi:start="1.5780947" sodipodi:type="arc" class="st2" d="
			M118.2,91.5c-0.1,0-0.2-1.3-0.2-2.9c0-1.6,0.1-2.9,0.2-2.9c0.1,0,0.2,1.3,0.2,2.9C118.3,90.2,118.3,91.5,118.2,91.5"/>
		<path class="st1" d="M118.3,91.7h-0.1v-0.3l0,0l0,0l-0.1,0.3c-0.2-0.1-0.4-0.1-0.4-3.2c0-2.8,0.2-3,0.3-3l0.1-0.1h0.1
			c0.2,0.1,0.4,0.1,0.4,3.2C118.6,91.5,118.4,91.6,118.3,91.7L118.3,91.7z"/>
	</g>
	<g>
		<path id="path3023_1_" inkscape:connector-curvature="0" sodipodi:nodetypes="csssasscsscscsssccsscc" class="st2" d="M98,35.1
			c0,0-5.1,0.1-7.6,0.3c-0.8,0.1-1.6,0.2-2.3,0.7c-0.5,0.4-0.8,1-1,1.5s-0.3,1.1-0.3,1.7s0.1,1.2,0.3,1.7c0.3,0.7,0.7,1.3,1.4,1.7
			c1,0.6,3.4,0.5,3.4,0.5s3.8,0,6.7,0c0.5,0,0.3-0.7,0.3-1.2c0.1-0.7-0.9-1.3-0.9-1.3s-0.5-0.4-0.9-0.4c-1.7-0.3-5.3,0-5.3,0
			s-1.3,0.1-1.9-0.4c-0.3-0.3-0.5-0.8-0.4-1.2c0.1-0.3,0.4-0.6,0.7-0.7c0.6-0.3,1.9-0.2,1.9-0.2l3.4-0.1c0,0,1.5,0.1,2.2-0.4
			c0.3-0.2,0.7-0.3,0.9-0.6c0.4-0.6,0.5-2,0.5-2L98,35.1z"/>
		<path class="st1" d="M95.5,43.4c-2,0-3.7,0-3.7,0c-0.1,0-2.5,0.1-3.5-0.6c-0.6-0.4-1.1-1-1.5-1.8c-0.3-0.6-0.3-1.3-0.3-1.8
			c0-0.7,0.1-1.3,0.3-1.8c0.2-0.5,0.5-1.2,1.1-1.7c0.7-0.6,1.6-0.7,2.4-0.8c2.4-0.2,7.2-0.3,7.6-0.3l1.3-0.2L99.3,35
			c0,0.1-0.2,1.4-0.6,2.1c-0.2,0.3-0.5,0.5-0.8,0.6l-0.2,0.1c-0.8,0.4-2.3,0.4-2.3,0.4l-3.3,0.1c-0.4-0.1-1.3-0.1-1.8,0.2
			c-0.3,0.2-0.5,0.4-0.6,0.5c-0.1,0.4,0.1,0.8,0.3,0.9c0.4,0.3,1.3,0.3,1.7,0.3c0.2,0,3.7-0.3,5.3,0c0.5,0.1,0.9,0.5,1,0.5
			c0.1,0.1,1,0.7,1,1.5c0,0.1,0,0.3,0,0.4c0.1,0.3,0.1,0.7-0.2,0.9c-0.1,0.1-0.2,0.2-0.4,0.2C97.6,43.4,96.5,43.4,95.5,43.4z
			 M91.8,42.8c0.1,0,3.8,0,6.7,0c0.1-0.1,0.1-0.4,0.1-0.5c0-0.2-0.1-0.3,0-0.5c0-0.4-0.6-0.9-0.8-1.1c-0.1-0.1-0.5-0.4-0.8-0.4
			c-1.6-0.3-5.2,0-5.2,0c-0.2,0-1.5,0.1-2-0.4c-0.4-0.3-0.6-0.9-0.4-1.5c0.1-0.5,0.6-0.7,0.8-0.9c0.6-0.3,1.8-0.2,2-0.2l3.3-0.1
			c0.4,0,1.6,0,2.1-0.3c0.1-0.1,0.1-0.1,0.2-0.1c0.2-0.1,0.5-0.3,0.6-0.4c0.2-0.4,0.4-1.1,0.4-1.5L98,35.2c-0.1,0-5.1,0.1-7.6,0.3
			c-0.8,0.1-1.5,0.2-2.1,0.6c-0.5,0.4-0.8,1-0.9,1.4s-0.3,1-0.3,1.6c0,0.5,0.1,1.1,0.3,1.6c0.2,0.4,0.6,1.2,1.2,1.6
			C89.5,42.9,91.8,42.8,91.8,42.8z"/>
	</g>
	<g>
		<path id="path3023-6_1_" inkscape:connector-curvature="0" sodipodi:nodetypes="csssasscsscscsssccsscc" class="st2" d="M82,35.9
			c0,0-5,0.9-7.5,1.4c-0.8,0.2-1.6,0.4-2.1,1c-0.4,0.5-0.7,1.1-0.8,1.7c-0.1,0.6-0.1,1.2,0,1.7c0.1,0.6,0.2,1.2,0.5,1.7
			c0.4,0.6,0.9,1.2,1.6,1.5c1.1,0.4,3.4,0,3.4,0s3.8-0.6,6.6-1c0.5-0.1,0.2-0.7,0.1-1.2c-0.1-0.7-1-1.2-1-1.2S82.3,41,81.9,41
			c-1.7-0.1-5.2,0.8-5.2,0.8s-1.3,0.3-1.9-0.1c-0.4-0.2-0.6-0.7-0.5-1.1c0.1-0.3,0.3-0.6,0.6-0.8c0.5-0.4,1.8-0.5,1.8-0.5l3.3-0.6
			c0,0,1.5-0.2,2.1-0.7c0.3-0.2,0.6-0.4,0.8-0.7c0.3-0.6,0.2-2,0.2-2L82,35.9z"/>
		<path class="st1" d="M75,45.1c-0.6,0-1.1-0.1-1.5-0.2c-0.7-0.3-1.3-0.8-1.7-1.6c-0.3-0.6-0.5-1.2-0.5-1.7c-0.1-0.7-0.1-1.3,0-1.8
			c0.1-0.5,0.4-1.3,0.9-1.8c0.6-0.7,1.5-0.9,2.3-1.1c2.4-0.5,7.1-1.3,7.5-1.4l1.3-0.4v0.4c0,0.1,0,1.4-0.3,2.1
			c-0.1,0.3-0.5,0.6-0.7,0.7l-0.2,0.1c-0.7,0.5-2.2,0.7-2.2,0.7l-3.3,0.6c-0.4,0.1-1.3,0.2-1.7,0.4c-0.3,0.2-0.5,0.4-0.5,0.6
			c-0.1,0.4,0.2,0.8,0.4,0.9c0.4,0.3,1.4,0.1,1.7,0.1c0.2-0.1,3.6-0.9,5.3-0.8c0.5,0,1,0.3,1,0.3c0.1,0.1,1.1,0.6,1.2,1.3
			c0,0.1,0.1,0.3,0.1,0.4c0.1,0.3,0.2,0.7,0,0.9c-0.1,0.1-0.2,0.2-0.4,0.2c-2.8,0.5-6.6,1-6.6,1C77,45,76,45.1,75,45.1z M82.7,35.9
			L82,36.1c-0.1,0-5.1,0.9-7.5,1.4c-0.8,0.2-1.5,0.4-2,0.9c-0.4,0.5-0.6,1.1-0.7,1.5c-0.1,0.5-0.1,1,0,1.6c0.1,0.5,0.2,1.1,0.5,1.6
			c0.2,0.4,0.7,1.1,1.5,1.4c1,0.4,3.2,0,3.3,0c0.1,0,3.8-0.6,6.6-1c0.1-0.1,0-0.4-0.1-0.5c-0.1-0.2-0.1-0.3-0.1-0.5
			c-0.1-0.4-0.7-0.8-0.9-1c-0.2-0.1-0.5-0.3-0.8-0.3c-1.6-0.1-5.1,0.8-5.1,0.8c-0.2,0.1-1.4,0.3-2.1-0.1C74.2,41.6,74,41,74,40.5
			c0.1-0.5,0.5-0.8,0.7-1c0.6-0.4,1.8-0.5,1.9-0.5l3.3-0.6c0.4-0.1,1.5-0.3,2-0.6c0.1-0.1,0.1-0.1,0.2-0.1c0.2-0.2,0.5-0.3,0.5-0.5
			C82.6,37.1,82.7,36.4,82.7,35.9z"/>
	</g>
	<g>
		<path id="path3023-2_1_" inkscape:connector-curvature="0" sodipodi:nodetypes="csssasscsscscsssccsscc" class="st2" d="
			M113.3,35.6c0,0-5.1-0.4-7.6-0.5c-0.8,0-1.6,0-2.3,0.5c-0.5,0.4-0.9,0.9-1.2,1.4c-0.3,0.5-0.4,1.1-0.4,1.7
			c-0.1,0.6-0.1,1.2,0.1,1.7c0.2,0.7,0.6,1.4,1.2,1.8c0.9,0.7,3.3,0.8,3.3,0.8s3.8,0.4,6.7,0.6c0.5,0.1,0.3-0.7,0.4-1.2
			c0.1-0.7-0.7-1.4-0.7-1.4s-0.4-0.4-0.8-0.5c-1.6-0.5-5.2-0.5-5.2-0.5s-1.3-0.1-1.8-0.5c-0.3-0.3-0.4-0.8-0.3-1.2
			c0.1-0.3,0.5-0.5,0.7-0.6c0.6-0.2,1.9,0,1.9,0l3.3,0.2c0,0,1.5,0.2,2.2-0.2c0.3-0.2,0.7-0.3,0.9-0.5c0.4-0.6,0.7-1.9,0.7-1.9
			L113.3,35.6z"/>
		<path class="st1" d="M113.1,43.8L113.1,43.8c-2.9-0.3-6.7-0.6-6.7-0.6c-0.1,0-2.5-0.2-3.4-0.9c-0.6-0.4-1-1.1-1.3-2
			c-0.2-0.6-0.2-1.3-0.1-1.8c0.1-0.7,0.2-1.3,0.4-1.8c0.2-0.5,0.6-1.1,1.2-1.5c0.8-0.5,1.6-0.6,2.5-0.5c2.4,0.1,7.2,0.4,7.6,0.5
			l1.4-0.1l-0.1,0.4c0,0.1-0.3,1.4-0.7,2c-0.2,0.3-0.6,0.4-0.8,0.6l-0.2,0.1c-0.8,0.4-2.3,0.2-2.3,0.2l-3.3-0.2
			c-0.4-0.1-1.3-0.2-1.8,0c-0.3,0.1-0.5,0.3-0.6,0.5c-0.1,0.3-0.1,0.8,0.2,1c0.4,0.4,1.3,0.4,1.6,0.5c0.2,0,3.7,0,5.3,0.5
			c0.4,0.1,0.9,0.5,0.9,0.6c0.1,0.1,0.9,0.8,0.8,1.6c0,0.1,0,0.3,0,0.4c0,0.3,0,0.7-0.2,0.9C113.4,43.7,113.3,43.8,113.1,43.8z
			 M105.4,35.4c-0.7,0-1.3,0.1-1.9,0.5c-0.5,0.4-0.9,0.9-1.1,1.3c-0.2,0.5-0.3,1-0.4,1.6c-0.1,0.5-0.1,1.1,0.1,1.6
			c0.2,0.5,0.5,1.2,1.1,1.7c0.9,0.6,3.1,0.8,3.2,0.8c0.1,0,3.8,0.4,6.7,0.6c0.1-0.1,0.1-0.4,0.1-0.5s0-0.3,0-0.5
			c0.1-0.4-0.5-1-0.7-1.1c-0.1-0.1-0.5-0.4-0.7-0.5c-1.6-0.5-5.1-0.5-5.2-0.5c-0.2,0-1.5-0.1-2-0.6c-0.4-0.4-0.5-1-0.3-1.5
			c0.2-0.5,0.6-0.7,0.9-0.8c0.6-0.3,1.9-0.1,2,0l3.3,0.2c0.4,0.1,1.5,0.1,2.1-0.1c0.1,0,0.1-0.1,0.2-0.1c0.2-0.1,0.5-0.2,0.6-0.4
			c0.2-0.3,0.5-1,0.6-1.5l-0.7,0.1l0,0c-0.1,0-5.1-0.4-7.6-0.5C105.6,35.4,105.5,35.4,105.4,35.4z"/>
	</g>
	<g>
		<path id="path3023-1_1_" inkscape:connector-curvature="0" sodipodi:nodetypes="csssasscsscscsssccsscc" class="st2" d="
			M128.3,37.7c0,0-5-0.8-7.5-1c-0.8-0.1-1.6-0.1-2.3,0.3c-0.6,0.3-1,0.8-1.3,1.4c-0.3,0.5-0.5,1.1-0.5,1.6c-0.1,0.6-0.2,1.2-0.1,1.7
			c0.2,0.7,0.5,1.5,1.1,1.9c0.9,0.7,3.2,1.1,3.2,1.1s3.7,0.7,6.6,1.1c0.5,0.1,0.4-0.7,0.5-1.1c0.2-0.7-0.6-1.4-0.6-1.4
			s-0.4-0.4-0.8-0.6c-1.6-0.6-5.2-0.9-5.2-0.9s-1.3-0.2-1.8-0.7c-0.3-0.3-0.3-0.9-0.2-1.2c0.2-0.3,0.5-0.5,0.8-0.6
			c0.6-0.2,1.9,0.2,1.9,0.2l3.3,0.5c0,0,1.5,0.3,2.2,0.1c0.3-0.1,0.7-0.2,0.9-0.5c0.4-0.5,0.8-1.9,0.8-1.9L128.3,37.7z"/>
		<path class="st1" d="M127.5,45.9c-0.1,0-0.1,0-0.1,0c-2.8-0.5-6.6-1.1-6.6-1.1c-0.1,0-2.4-0.4-3.3-1.1c-0.6-0.5-1-1.2-1.1-2
			c-0.2-0.6-0.1-1.3,0.1-1.8c0.1-0.7,0.3-1.3,0.6-1.7c0.3-0.5,0.7-1.1,1.4-1.5c0.8-0.5,1.7-0.4,2.5-0.3c2.4,0.3,7.2,1,7.5,1h1.4
			l-0.1,0.3c0,0.1-0.4,1.4-0.9,1.9c-0.2,0.3-0.6,0.4-0.9,0.5l-0.2,0.1c-0.8,0.3-2.3,0-2.3,0l-3.3-0.5c-0.4-0.1-1.3-0.3-1.8-0.2
			c-0.3,0.1-0.6,0.3-0.6,0.4c-0.2,0.3-0.1,0.8,0.1,1c0.3,0.4,1.3,0.5,1.6,0.6c0.2,0,3.7,0.3,5.3,0.9c0.4,0.2,0.8,0.6,0.9,0.6
			c0.1,0.1,0.9,0.9,0.7,1.6c0,0.1-0.1,0.3-0.1,0.4c0,0.3-0.1,0.7-0.3,0.9C127.8,45.9,127.7,45.9,127.5,45.9z M119.9,36.9
			c-0.5,0-1,0.1-1.4,0.3c-0.6,0.3-0.9,0.9-1.2,1.3c-0.3,0.4-0.4,0.9-0.5,1.6c-0.1,0.5-0.2,1.1-0.1,1.6c0.1,0.5,0.4,1.3,1,1.8
			c0.8,0.7,3.1,1,3.1,1c0.1,0,3.8,0.7,6.6,1.1c0.1-0.1,0.1-0.3,0.1-0.5c0-0.2,0-0.3,0.1-0.5c0.1-0.4-0.4-1-0.6-1.2
			c-0.1-0.1-0.4-0.4-0.7-0.5c-1.5-0.6-5.1-0.9-5.1-0.9c-0.2,0-1.5-0.2-1.9-0.7c-0.3-0.4-0.4-1-0.2-1.5c0.2-0.5,0.7-0.6,1-0.7
			c0.7-0.2,1.9,0.1,2,0.2l3.3,0.5c0.4,0.1,1.5,0.3,2.1,0.1c0.1,0,0.1-0.1,0.2-0.1c0.3-0.1,0.5-0.2,0.6-0.3c0.3-0.3,0.5-1,0.7-1.4
			h-0.7c-0.1,0-5.1-0.8-7.5-1C120.5,36.9,120.2,36.9,119.9,36.9z"/>
	</g>
	<g>
		<path id="path3023-4_1_" inkscape:connector-curvature="0" sodipodi:nodetypes="csssasscsscscsssccsscc" class="st2" d="
			M143.1,41.7c0,0-4.9-1.3-7.4-1.8c-0.8-0.2-1.6-0.3-2.4,0.1c-0.6,0.3-1,0.7-1.4,1.2c-0.3,0.5-0.6,1-0.7,1.6
			c-0.2,0.6-0.3,1.2-0.2,1.7c0.1,0.7,0.4,1.5,0.9,2c0.8,0.8,3.1,1.4,3.1,1.4s3.7,1,6.4,1.8c0.5,0.1,0.4-0.6,0.6-1.1
			c0.2-0.6-0.5-1.5-0.5-1.5s-0.4-0.5-0.7-0.7c-1.5-0.8-5.1-1.4-5.1-1.4s-1.3-0.3-1.7-0.8c-0.3-0.4-0.2-0.9,0-1.2
			c0.2-0.3,0.5-0.4,0.8-0.5c0.6-0.1,1.8,0.3,1.8,0.3l3.3,0.8c0,0,1.4,0.5,2.2,0.3c0.3-0.1,0.8-0.1,1-0.4c0.5-0.5,1-1.8,1-1.8
			L143.1,41.7z"/>
		<path class="st1" d="M141.7,49.9c-0.1,0-0.1,0-0.2,0c-2.8-0.8-6.4-1.8-6.4-1.8c-0.1,0-2.4-0.6-3.2-1.5c-0.5-0.5-0.8-1.3-0.9-2.1
			c-0.1-0.7,0.1-1.3,0.2-1.8c0.2-0.7,0.4-1.2,0.7-1.7c0.3-0.5,0.8-1,1.5-1.3c0.8-0.4,1.7-0.3,2.5-0.1c2.4,0.5,7.1,1.7,7.4,1.8
			l1.3,0.2l-0.2,0.3c0,0.1-0.6,1.3-1.1,1.8c-0.3,0.3-0.6,0.3-0.9,0.4l-0.2,0.1c-0.9,0.2-2.3-0.3-2.3-0.3l-3.2-0.8
			c-0.4-0.1-1.3-0.4-1.7-0.3c-0.3,0.1-0.6,0.2-0.7,0.4c-0.2,0.3-0.2,0.7,0,1c0.3,0.4,1.2,0.7,1.5,0.7c0.2,0.1,3.6,0.7,5.1,1.4
			c0.4,0.2,0.8,0.7,0.8,0.7c0.1,0.1,0.8,1,0.5,1.7c-0.1,0.1-0.1,0.3-0.1,0.4c-0.1,0.3-0.1,0.7-0.4,0.8
			C141.9,49.8,141.8,49.9,141.7,49.9z M134.5,40.1c-0.4,0-0.7,0.1-1,0.2c-0.6,0.3-1,0.8-1.3,1.1c-0.3,0.4-0.5,0.9-0.7,1.5
			c-0.2,0.5-0.3,1.1-0.2,1.6c0.1,0.5,0.3,1.3,0.8,1.9c0.8,0.8,3,1.3,3,1.3c0.1,0,3.7,1.1,6.4,1.8c0.1-0.1,0.1-0.3,0.2-0.5
			c0.1-0.2,0.1-0.3,0.1-0.5c0.2-0.4-0.3-1-0.5-1.2c-0.1-0.1-0.4-0.5-0.6-0.6c-1.5-0.7-5-1.4-5-1.4c-0.2-0.1-1.4-0.3-1.9-0.9
			c-0.3-0.4-0.3-1.1-0.1-1.5c0.2-0.3,0.6-0.5,1-0.6c0.7-0.1,1.8,0.3,2,0.4l3.2,0.8c0.4,0.1,1.5,0.4,2.1,0.3c0.1,0,0.1-0.1,0.2-0.1
			c0.3-0.1,0.5-0.1,0.7-0.3c0.3-0.3,0.6-0.9,0.8-1.4l-0.7-0.1c-0.1,0-5-1.3-7.4-1.8C135.3,40.1,134.9,40.1,134.5,40.1z"/>
	</g>
	<g>
		<path id="path3023-8_1_" inkscape:connector-curvature="0" sodipodi:nodetypes="csssasscsscscsssccsscc" class="st2" d="
			M156.9,48.1c0,0-4.6-2.2-6.9-3.2c-0.7-0.3-1.5-0.6-2.3-0.4c-0.6,0.1-1.2,0.5-1.6,0.9c-0.4,0.4-0.7,0.9-1,1.4s-0.5,1.1-0.5,1.6
			c-0.1,0.7,0.1,1.5,0.5,2.1c0.6,1,2.8,2,2.8,2s3.4,1.7,6,3c0.5,0.2,0.5-0.5,0.8-1c0.3-0.6-0.2-1.5-0.2-1.5s-0.3-0.5-0.6-0.8
			c-1.4-1-4.7-2.4-4.7-2.4s-1.2-0.5-1.5-1.2c-0.2-0.4-0.1-0.9,0.2-1.2c0.2-0.3,0.6-0.3,0.9-0.3c0.6,0,1.7,0.7,1.7,0.7l3,1.5
			c0,0,1.3,0.7,2.1,0.7c0.3,0,0.8,0.1,1-0.2c0.6-0.4,1.3-1.5,1.3-1.5L156.9,48.1z"/>
		<path class="st1" d="M154,55.8c-0.1,0-0.2,0-0.3-0.1c-2.6-1.3-5.9-3-6-3c-0.1-0.1-2.2-1.1-2.9-2.1c-0.4-0.6-0.6-1.4-0.5-2.3
			c0.1-0.7,0.3-1.3,0.6-1.7c0.3-0.6,0.7-1.1,1-1.5c0.4-0.4,1-0.8,1.7-1c0.9-0.2,1.7,0.1,2.5,0.5c2.2,1,6.6,3.1,6.9,3.2l1.3,0.4
			l-0.2,0.3c-0.1,0.1-0.8,1.2-1.4,1.6c-0.3,0.2-0.7,0.2-1,0.2h-0.2c-0.9,0.1-2.2-0.7-2.2-0.7l-3-1.5c-0.3-0.2-1.2-0.7-1.6-0.7
			c-0.3,0-0.6,0.1-0.7,0.2c-0.2,0.3-0.3,0.7-0.2,1c0.2,0.5,1.1,0.9,1.4,1c0.2,0.1,3.4,1.4,4.8,2.4c0.4,0.3,0.6,0.8,0.7,0.9
			c0.1,0.1,0.6,1.1,0.2,1.8c-0.1,0.1-0.1,0.3-0.2,0.4c-0.1,0.3-0.3,0.6-0.5,0.7C154.1,55.8,154,55.8,154,55.8z M148.2,44.6
			c-0.2,0-0.3,0-0.5,0.1c-0.6,0.1-1.1,0.5-1.5,0.9s-0.7,0.8-0.9,1.3c-0.2,0.5-0.5,1-0.5,1.6c-0.1,0.5-0.1,1.3,0.4,2
			c0.6,0.9,2.7,1.9,2.7,1.9c0.1,0,3.4,1.8,6,3c0.1,0,0.2-0.3,0.3-0.4s0.1-0.3,0.2-0.4c0.2-0.4-0.1-1.1-0.2-1.3
			c-0.1-0.2-0.3-0.5-0.5-0.7c-1.3-1-4.6-2.4-4.7-2.4c-0.2-0.1-1.3-0.6-1.6-1.3c-0.2-0.5-0.1-1.1,0.3-1.5c0.3-0.4,0.8-0.4,1.1-0.4
			c0.7,0,1.7,0.7,1.9,0.7l3,1.4c0.4,0.2,1.4,0.7,2,0.7c0.1,0,0.1,0,0.2,0c0.3,0,0.6,0,0.7-0.1c0.3-0.2,0.8-0.8,1.1-1.2l-0.7-0.2
			c-0.1,0-4.6-2.2-6.9-3.2C149.4,44.8,148.8,44.6,148.2,44.6z"/>
	</g>
	<g>
		<path id="path3023-3_1_" inkscape:connector-curvature="0" sodipodi:nodetypes="csssasscsscscsssccsscc" class="st2" d="
			M169.6,55.5c0,0-4.3-2.8-6.4-4.1c-0.7-0.4-1.4-0.8-2.3-0.7c-0.6,0.1-1.2,0.4-1.7,0.7c-0.5,0.4-0.9,0.8-1.2,1.3s-0.6,1-0.8,1.6
			c-0.2,0.7-0.2,1.5,0.2,2.2c0.5,1,2.5,2.3,2.5,2.3s3.1,2.2,5.5,3.8c0.4,0.3,0.6-0.5,0.9-0.9c0.4-0.6,0-1.5,0-1.5s-0.2-0.6-0.5-0.8
			c-1.2-1.2-4.4-3-4.4-3s-1.2-0.7-1.4-1.3c-0.1-0.4,0.1-0.9,0.4-1.2c0.3-0.2,0.6-0.3,0.9-0.2c0.6,0.1,1.6,0.9,1.6,0.9l2.8,1.8
			c0,0,1.2,0.9,2,1c0.3,0.1,0.8,0.1,1,0c0.6-0.3,1.5-1.3,1.5-1.3L169.6,55.5z"/>
		<path class="st1" d="M165.8,62.8c-0.1,0-0.2,0-0.3-0.1c-2.4-1.6-5.5-3.8-5.5-3.8c-0.1-0.1-2.1-1.4-2.6-2.4
			c-0.3-0.7-0.4-1.5-0.2-2.3c0.2-0.6,0.5-1.2,0.8-1.6c0.4-0.6,0.8-1,1.2-1.3c0.4-0.3,1.1-0.7,1.8-0.8c0.9-0.1,1.7,0.4,2.4,0.8
			c2.1,1.3,6.1,3.9,6.4,4.1l1.2,0.6l-0.2,0.3c-0.1,0.1-1,1.1-1.6,1.4c-0.3,0.2-0.7,0.1-1,0.1h-0.2c-0.9-0.1-2.1-1-2.1-1l-2.8-1.8
			c-0.3-0.3-1.1-0.8-1.5-0.9c-0.3-0.1-0.6,0-0.7,0.1c-0.3,0.2-0.4,0.7-0.3,0.9c0.2,0.5,0.9,1,1.2,1.2c0.2,0.1,3.2,1.8,4.4,3
			c0.3,0.3,0.5,0.9,0.5,0.9c0.1,0.1,0.4,1.2-0.1,1.8c-0.1,0.1-0.2,0.2-0.2,0.4c-0.2,0.3-0.3,0.6-0.6,0.7
			C165.8,62.8,165.8,62.8,165.8,62.8z M161.1,51c-0.1,0-0.1,0-0.2,0c-0.6,0.1-1.2,0.4-1.6,0.7c-0.4,0.3-0.8,0.7-1.1,1.2
			c-0.3,0.4-0.6,0.9-0.7,1.5c-0.1,0.5-0.2,1.3,0.2,2c0.5,1,2.4,2.2,2.4,2.2c0.1,0.1,3.2,2.2,5.5,3.8c0.1,0,0.2-0.3,0.3-0.4
			c0.1-0.2,0.2-0.3,0.3-0.4c0.3-0.4,0.1-1.1,0-1.3c-0.1-0.2-0.2-0.6-0.4-0.8c-1.2-1.2-4.3-2.9-4.3-3c-0.2-0.1-1.3-0.8-1.5-1.5
			c-0.2-0.5,0.1-1.1,0.5-1.4c0.4-0.3,0.9-0.3,1.2-0.3c0.7,0.1,1.6,0.9,1.7,1l2.8,1.8c0.4,0.3,1.3,0.9,1.9,0.9c0.1,0,0.1,0,0.2,0
			c0.3,0.1,0.6,0.1,0.7,0c0.4-0.2,0.9-0.7,1.2-1l-0.7-0.3c-0.1-0.1-4.3-2.8-6.4-4.1C162.5,51.3,161.8,51,161.1,51z"/>
	</g>
	<g>
		<path id="path3023-5_1_" inkscape:connector-curvature="0" sodipodi:nodetypes="csssasscsscscsssccsscc" class="st2" d="M181,65.8
			c0,0-3.8-3.5-5.7-5.1c-0.6-0.5-1.3-1-2.1-1.1c-0.6-0.1-1.2,0.2-1.8,0.4c-0.5,0.3-1,0.7-1.4,1.1c-0.4,0.4-0.8,0.9-1,1.4
			c-0.3,0.7-0.4,1.5-0.2,2.2c0.3,1.1,2.1,2.7,2.1,2.7s2.7,2.7,4.8,4.7c0.4,0.4,0.7-0.4,1-0.7c0.5-0.5,0.3-1.5,0.3-1.5
			s-0.1-0.6-0.3-0.9c-1-1.4-3.8-3.7-3.8-3.7s-1-0.9-1.1-1.5c-0.1-0.4,0.2-0.9,0.6-1.1c0.3-0.2,0.7-0.1,1,0c0.6,0.2,1.5,1.2,1.5,1.2
			l2.5,2.3c0,0,1.1,1.1,1.8,1.3c0.3,0.1,0.7,0.3,1,0.2c0.7-0.2,1.7-1.1,1.7-1.1L181,65.8z"/>
		<path class="st1" d="M176,72.2c-0.1,0-0.3-0.1-0.4-0.2c-2.1-2-4.8-4.7-4.8-4.7c-0.1-0.1-1.8-1.7-2.2-2.8c-0.2-0.7-0.2-1.5,0.2-2.3
			c0.3-0.6,0.7-1.1,1-1.5c0.5-0.5,1-0.9,1.4-1.1s1.2-0.5,1.9-0.4c0.9,0.1,1.6,0.6,2.2,1.2c1.9,1.6,5.4,4.9,5.7,5.1l1.1,0.8l-0.3,0.2
			c-0.1,0.1-1.1,0.9-1.8,1.1c-0.3,0.1-0.7,0-1-0.1l-0.2-0.1c-0.8-0.3-1.9-1.3-1.9-1.4l-2.5-2.3c-0.3-0.3-0.9-1-1.4-1.1
			c-0.3-0.1-0.6-0.1-0.8,0c-0.3,0.2-0.5,0.6-0.5,0.9c0.1,0.5,0.8,1.2,1,1.4c0.1,0.1,2.9,2.4,3.9,3.7c0.3,0.4,0.4,1,0.4,1
			c0,0.1,0.2,1.2-0.4,1.7c-0.1,0.1-0.2,0.2-0.3,0.3C176.6,72,176.4,72.2,176,72.2C176.1,72.2,176.1,72.2,176,72.2z M172.9,59.8
			c-0.6,0-1.1,0.2-1.4,0.4c-0.4,0.2-0.9,0.6-1.3,1c-0.4,0.4-0.7,0.8-0.9,1.3c-0.2,0.4-0.4,1.3-0.2,2c0.3,1,2,2.6,2,2.6
			c0.1,0.1,2.8,2.7,4.8,4.7c0.1,0,0.3-0.2,0.4-0.4c0.1-0.1,0.2-0.3,0.3-0.4c0.3-0.3,0.3-1.1,0.2-1.3c0-0.2-0.1-0.6-0.3-0.8
			c-1-1.3-3.7-3.6-3.8-3.6c-0.1-0.1-1.1-1-1.2-1.7c-0.1-0.5,0.3-1.1,0.7-1.4c0.4-0.3,0.9-0.2,1.2-0.1c0.6,0.2,1.5,1.1,1.6,1.3
			l2.5,2.3c0.3,0.3,1.1,1.1,1.7,1.2c0.1,0,0.1,0.1,0.2,0.1c0.3,0.1,0.5,0.2,0.7,0.1c0.4-0.1,1-0.5,1.4-0.8l-0.6-0.4
			c-0.1-0.1-3.8-3.5-5.7-5.1c-0.6-0.5-1.2-1-2-1C173.1,59.8,173,59.8,172.9,59.8z"/>
	</g>
	<g>
		<path id="path3023-57_1_" inkscape:connector-curvature="0" sodipodi:nodetypes="csssasscsscscsssccsscc" class="st2" d="
			M190.2,77.9c0,0-3-4.2-4.6-6.2c-0.5-0.6-1.1-1.3-1.9-1.5c-0.6-0.2-1.2-0.1-1.8,0.1c-0.6,0.2-1.1,0.5-1.5,0.8
			c-0.5,0.3-0.9,0.7-1.2,1.2c-0.4,0.6-0.7,1.4-0.6,2.1c0.1,1.2,1.5,3.1,1.5,3.1s2.2,3.2,3.8,5.5c0.3,0.4,0.7-0.2,1.1-0.5
			c0.6-0.4,0.6-1.4,0.6-1.4s0-0.6-0.2-1c-0.7-1.6-3-4.4-3-4.4s-0.9-1.1-0.8-1.7c0.1-0.4,0.4-0.8,0.8-1c0.3-0.1,0.7,0,1,0.2
			c0.6,0.3,1.2,1.4,1.2,1.4l2,2.7c0,0,0.8,1.3,1.5,1.6c0.3,0.2,0.7,0.4,1,0.4c0.7-0.1,1.9-0.7,1.9-0.7L190.2,77.9z"/>
		<path class="st1" d="M184.2,83.3L184.2,83.3c-0.2,0-0.3-0.1-0.4-0.3c-1.7-2.4-3.8-5.5-3.8-5.5c-0.1-0.1-1.5-2-1.6-3.2
			c-0.1-0.7,0.2-1.5,0.7-2.2c0.4-0.6,0.9-0.9,1.3-1.3c0.6-0.4,1.1-0.7,1.6-0.8c0.5-0.2,1.3-0.3,2-0.1c0.9,0.3,1.5,0.9,2,1.6
			c1.5,1.9,4.4,5.9,4.6,6.2l1,1l-0.3,0.2c-0.1,0.1-1.3,0.7-2,0.7c-0.3,0.1-0.7-0.2-1-0.3l-0.2-0.1c-0.8-0.4-1.6-1.7-1.6-1.7l-2-2.7
			c-0.2-0.3-0.7-1.2-1.1-1.4c-0.3-0.2-0.6-0.2-0.7-0.2c-0.3,0.1-0.6,0.5-0.6,0.8c-0.1,0.5,0.5,1.3,0.7,1.6c0.1,0.1,2.4,2.9,3.1,4.4
			c0.2,0.4,0.2,1,0.2,1.1c0,0.1,0,1.2-0.7,1.6c-0.1,0.1-0.2,0.2-0.3,0.3C184.6,83.1,184.4,83.3,184.2,83.3z M183,70.4
			c-0.4,0-0.7,0.1-1,0.2c-0.5,0.1-0.9,0.4-1.5,0.7c-0.4,0.3-0.9,0.7-1.2,1.1c-0.3,0.4-0.7,1.1-0.6,1.9c0.1,1.1,1.5,2.9,1.5,2.9
			c0.1,0.1,2.2,3.2,3.8,5.5c0.1,0,0.3-0.2,0.4-0.3s0.3-0.2,0.4-0.3c0.4-0.3,0.5-1,0.5-1.2c0-0.2,0-0.6-0.1-0.9c-0.7-1.5-3-4.3-3-4.3
			c-0.1-0.1-0.9-1.2-0.9-1.9c0.1-0.5,0.5-1,1-1.2c0.5-0.2,0.9,0.1,1.2,0.2c0.6,0.4,1.2,1.4,1.3,1.5l2,2.7c0.2,0.4,0.9,1.3,1.4,1.6
			c0.1,0.1,0.1,0.1,0.2,0.1c0.2,0.1,0.5,0.3,0.7,0.3c0.4-0.1,1.1-0.3,1.5-0.5L190,78c-0.1-0.1-3-4.2-4.6-6.2c-0.5-0.6-1-1.2-1.7-1.4
			C183.5,70.4,183.2,70.4,183,70.4z"/>
	</g>
	<g>
		<path id="path3023-44_1_" inkscape:connector-curvature="0" sodipodi:nodetypes="csssasscsscscsssccsscc" class="st2" d="
			M195.4,93.2c0,0-1.2-5-1.9-7.5c-0.2-0.8-0.5-1.6-1.1-2.1c-0.5-0.4-1.1-0.6-1.7-0.7c-0.6-0.1-1.2,0-1.7,0.1s-1.1,0.3-1.6,0.6
			c-0.6,0.4-1.2,1-1.4,1.7c-0.4,1.1,0.2,3.4,0.2,3.4s0.8,3.8,1.4,6.6c0.1,0.5,0.7,0.1,1.2,0c0.7-0.1,1.1-1.1,1.1-1.1
			s0.3-0.5,0.3-0.9c-0.1-1.7-1.1-5.2-1.1-5.2s-0.4-1.3-0.1-1.9c0.2-0.4,0.7-0.6,1.1-0.6c0.3,0,0.6,0.3,0.8,0.5
			c0.4,0.5,0.6,1.8,0.6,1.8l0.8,3.3c0,0,0.3,1.5,0.8,2.1c0.2,0.3,0.5,0.6,0.8,0.7c0.7,0.2,2,0.1,2,0.1L195.4,93.2z"/>
		<path class="st1" d="M188.1,95.9c-0.1,0-0.2,0-0.3-0.1c-0.1-0.1-0.2-0.2-0.3-0.4c-0.6-2.8-1.4-6.6-1.4-6.6c0-0.1-0.6-2.4-0.2-3.5
			c0.2-0.7,0.7-1.3,1.5-1.8c0.5-0.4,1.2-0.5,1.7-0.7c0.7-0.2,1.3-0.2,1.8-0.1c0.5,0.1,1.3,0.3,1.8,0.8c0.7,0.6,1,1.4,1.2,2.2
			c0.7,2.4,1.8,7.1,1.9,7.5l0.5,1.3l-0.4,0.1c-0.1,0-1.4,0.1-2.1-0.1c-0.3-0.1-0.6-0.4-0.8-0.7l-0.1-0.2c-0.6-0.7-0.8-2.1-0.9-2.2
			l-0.8-3.3c-0.1-0.4-0.3-1.3-0.5-1.7c-0.2-0.3-0.4-0.4-0.6-0.4c-0.4,0-0.7,0.2-0.9,0.5c-0.2,0.4,0,1.4,0.1,1.7
			c0.1,0.2,1.1,3.6,1.1,5.3c0,0.5-0.3,1-0.3,1c-0.1,0.1-0.5,1.1-1.3,1.3c-0.1,0-0.3,0.1-0.4,0.1C188.5,95.8,188.3,95.9,188.1,95.9z
			 M190.3,83.2c-0.4,0-0.7,0.1-1.1,0.2c-0.5,0.1-1.1,0.3-1.5,0.6c-0.4,0.3-1,0.8-1.3,1.6c-0.3,1,0.2,3.3,0.2,3.3
			c0,0.1,0.8,3.8,1.4,6.6c0.1,0.1,0.4-0.1,0.5-0.1c0.2-0.1,0.3-0.1,0.5-0.1c0.4-0.1,0.8-0.7,0.9-1c0.1-0.2,0.2-0.6,0.2-0.8
			c-0.1-1.7-1.1-5.1-1.1-5.1c-0.1-0.2-0.4-1.4-0.1-2.1c0.2-0.5,0.8-0.8,1.3-0.7c0.5,0,0.8,0.4,1,0.6c0.4,0.6,0.6,1.8,0.6,1.9
			l0.8,3.3c0.1,0.4,0.4,1.5,0.8,2c0.1,0.1,0.1,0.1,0.1,0.2c0.2,0.2,0.4,0.4,0.5,0.5c0.4,0.1,1.1,0.1,1.6,0.1l-0.3-0.7
			c0-0.1-1.2-5-1.9-7.4c-0.2-0.8-0.5-1.5-1.1-2c-0.5-0.4-1.1-0.6-1.6-0.6C190.6,83.2,190.4,83.2,190.3,83.2z"/>
	</g>
	<g>
		<path id="path3023-15_1_" inkscape:connector-curvature="0" sodipodi:nodetypes="csssasscsscscsssccsscc" class="st2" d="
			M195.1,111c0,0,0.5-5.1,0.7-7.7c0.1-0.8,0.1-1.6-0.4-2.4c-0.3-0.5-0.9-0.9-1.4-1.2c-0.5-0.3-1.1-0.4-1.6-0.5
			c-0.6-0.1-1.2-0.1-1.7,0.1c-0.7,0.2-1.4,0.6-1.8,1.2c-0.7,0.9-0.9,3.3-0.9,3.3s-0.5,3.8-0.8,6.7c-0.1,0.5,0.7,0.3,1.2,0.4
			c0.7,0.1,1.4-0.7,1.4-0.7s0.4-0.4,0.5-0.8c0.5-1.6,0.7-5.3,0.7-5.3s0.1-1.4,0.6-1.8c0.3-0.3,0.8-0.4,1.2-0.2
			c0.3,0.1,0.5,0.5,0.6,0.8c0.2,0.6-0.1,1.9-0.1,1.9l-0.3,3.4c0,0-0.2,1.5,0.1,2.2c0.1,0.3,0.3,0.7,0.5,0.9c0.6,0.4,1.9,0.8,1.9,0.8
			L195.1,111z"/>
		<path class="st1" d="M195.4,112.3l-0.4-0.1c-0.1,0-1.4-0.4-2-0.8c-0.3-0.2-0.4-0.6-0.5-0.9l-0.1-0.2c-0.3-0.8-0.1-2.3-0.1-2.4
			l0.3-3.4c0.1-0.4,0.2-1.4,0.1-1.8c-0.1-0.3-0.3-0.5-0.5-0.6c-0.3-0.1-0.7-0.1-1,0.2c-0.4,0.4-0.5,1.3-0.5,1.7
			c0,0.2-0.2,3.7-0.7,5.3c-0.2,0.4-0.6,0.9-0.6,0.9c-0.1,0.1-0.8,0.9-1.6,0.8c-0.1,0-0.3,0-0.4,0c-0.3,0-0.7,0-0.9-0.3
			c-0.1-0.1-0.2-0.2-0.1-0.4c0.4-2.9,0.8-6.7,0.8-6.7c0-0.1,0.3-2.5,1-3.4c0.4-0.6,1.1-1,2-1.3c0.6-0.2,1.3-0.1,1.8-0.1
			c0.7,0.1,1.3,0.3,1.7,0.5c0.5,0.3,1.1,0.7,1.5,1.3c0.5,0.8,0.5,1.7,0.5,2.5c-0.2,2.4-0.7,7.3-0.7,7.6L195.4,112.3z M192.1,101.8
			c0.2,0,0.4,0.1,0.6,0.1c0.5,0.2,0.7,0.7,0.8,0.9c0.2,0.7,0,1.9-0.1,2l-0.3,3.4c-0.1,0.4-0.2,1.6,0.1,2.1c0,0.1,0.1,0.1,0.1,0.2
			c0.1,0.3,0.2,0.5,0.4,0.6c0.3,0.3,1,0.5,1.4,0.6l-0.1-0.7l0,0c0-0.1,0.5-5.2,0.7-7.6c0.1-0.8,0.1-1.6-0.4-2.2
			c-0.3-0.6-0.9-0.9-1.3-1.1c-0.4-0.2-0.9-0.4-1.6-0.5c-0.5-0.1-1.1-0.1-1.6,0.1c-0.4,0.1-1.2,0.4-1.7,1.1c-0.6,0.9-0.9,3.2-0.9,3.2
			c0,0.1-0.5,3.8-0.8,6.7c0.1,0.1,0.3,0.1,0.5,0.1s0.3,0,0.5,0.1c0.4,0.1,1-0.5,1.1-0.6c0.1-0.1,0.4-0.5,0.5-0.7
			c0.5-1.6,0.6-5.2,0.6-5.2c0-0.2,0.1-1.5,0.7-2C191.4,102,191.8,101.8,192.1,101.8z"/>
	</g>
	<g>
		<path id="path3023-9_1_" inkscape:connector-curvature="0" sodipodi:nodetypes="csssasscsscscsssccsscc" class="st2" d="
			M188.9,125.2c0,0,2.3-4.6,3.3-6.9c0.3-0.7,0.6-1.5,0.5-2.3c-0.1-0.6-0.5-1.2-0.9-1.6c-0.4-0.4-0.9-0.8-1.4-1
			c-0.5-0.3-1.1-0.5-1.6-0.6c-0.7-0.1-1.5,0-2.1,0.4c-1,0.6-2,2.8-2,2.8s-1.8,3.4-3.1,6c-0.2,0.5,0.5,0.6,0.9,0.8
			c0.6,0.4,1.5-0.2,1.5-0.2s0.5-0.3,0.8-0.6c1.1-1.3,2.5-4.7,2.5-4.7s0.6-1.2,1.2-1.5c0.4-0.2,0.9,0,1.2,0.3
			c0.3,0.2,0.3,0.6,0.3,0.9c-0.1,0.6-0.7,1.7-0.7,1.7l-1.5,3c0,0-0.7,1.3-0.7,2.1c0,0.3-0.1,0.8,0.2,1c0.4,0.6,1.5,1.4,1.5,1.4
			L188.9,125.2z"/>
		<path class="st1" d="M188.7,126.7l-0.3-0.2c-0.1-0.1-1.2-0.8-1.6-1.4c-0.2-0.3-0.2-0.7-0.2-1v-0.2c0-0.9,0.7-2.2,0.8-2.2l1.5-3
			c0.2-0.3,0.7-1.2,0.7-1.6c0-0.3-0.1-0.6-0.2-0.7c-0.3-0.2-0.7-0.3-0.9-0.2c-0.5,0.2-0.9,1.1-1,1.4c-0.1,0.2-1.5,3.4-2.5,4.8
			c-0.3,0.4-0.8,0.6-0.9,0.6c-0.1,0.1-1.1,0.6-1.7,0.2c-0.1-0.1-0.3-0.1-0.4-0.2c-0.3-0.1-0.6-0.3-0.7-0.5c-0.1-0.1-0.1-0.3,0.1-0.5
			c1.3-2.6,3.1-5.9,3.1-6c0.1-0.1,1.1-2.2,2.1-2.9c0.6-0.4,1.4-0.6,2.3-0.5c0.7,0.1,1.3,0.4,1.7,0.6c0.6,0.3,1.1,0.7,1.4,1.1
			c0.4,0.4,0.8,1,0.9,1.7c0.2,0.9-0.2,1.7-0.5,2.5c-1,2.2-3.2,6.6-3.3,6.9L188.7,126.7z M188.8,115.5c0.4,0,0.8,0.2,1,0.4
			c0.4,0.3,0.4,0.9,0.4,1.1c-0.1,0.7-0.7,1.7-0.8,1.9l-1.5,3c-0.2,0.4-0.7,1.4-0.7,2c0,0.1,0,0.1,0,0.2c0,0.3,0,0.6,0.1,0.7
			c0.2,0.4,0.8,0.8,1.1,1.1l0.2-0.7c0-0.1,2.3-4.6,3.3-6.9c0.3-0.7,0.6-1.5,0.5-2.2c-0.1-0.6-0.5-1.2-0.8-1.5
			c-0.3-0.4-0.8-0.7-1.3-1c-0.5-0.3-1-0.5-1.5-0.6c-0.5-0.1-1.3-0.1-2,0.4c-0.9,0.6-1.9,2.6-1.9,2.7c0,0.1-1.8,3.4-3.1,6
			c0,0.1,0.3,0.2,0.4,0.3c0.2,0.1,0.3,0.1,0.4,0.2c0.4,0.2,1.1-0.1,1.3-0.2c0.2-0.1,0.5-0.3,0.7-0.5c1-1.3,2.4-4.6,2.4-4.7
			c0.1-0.2,0.6-1.3,1.3-1.6C188.5,115.6,188.6,115.5,188.8,115.5z"/>
	</g>
	<g>
		<path id="path3023-0_1_" inkscape:connector-curvature="0" sodipodi:nodetypes="csssasscsscscsssccsscc" class="st2" d="
			M180,136.5c0,0,3.4-3.8,5-5.8c0.5-0.6,1-1.3,1.1-2.1c0.1-0.6-0.2-1.3-0.4-1.8s-0.7-1-1.1-1.4c-0.4-0.4-0.9-0.8-1.4-1
			c-0.7-0.3-1.5-0.4-2.1-0.2c-1.1,0.4-2.7,2.1-2.7,2.1s-2.6,2.8-4.6,4.9c-0.3,0.4,0.4,0.7,0.7,1c0.5,0.5,1.5,0.3,1.5,0.3
			s0.6-0.1,0.9-0.4c1.4-1,3.6-3.9,3.6-3.9s0.9-1.1,1.5-1.1c0.4-0.1,0.9,0.2,1.1,0.6c0.2,0.3,0.2,0.7,0.1,1c-0.2,0.6-1.2,1.5-1.2,1.5
			l-2.2,2.5c0,0-1.1,1.1-1.3,1.9c-0.1,0.3-0.3,0.7-0.2,1c0.2,0.7,1.1,1.7,1.1,1.7L180,136.5z"/>
		<path class="st1" d="M179.4,137.8l-0.2-0.3c-0.1-0.1-0.9-1.1-1.1-1.8c-0.1-0.3,0-0.7,0.1-1l0.1-0.2c0.2-0.9,1.3-1.9,1.3-2l2.2-2.5
			c0.3-0.3,1-1,1.1-1.4c0.1-0.3,0.1-0.6,0-0.8c-0.2-0.3-0.6-0.5-0.9-0.5c-0.5,0.1-1.2,0.8-1.4,1.1c-0.1,0.1-2.3,2.9-3.6,3.9
			c-0.4,0.3-0.9,0.4-1,0.4c-0.1,0-1.2,0.3-1.7-0.3c-0.1-0.1-0.2-0.2-0.3-0.3c-0.3-0.2-0.5-0.4-0.6-0.7c0-0.1,0-0.3,0.2-0.4
			c2-2.1,4.5-4.9,4.6-4.9c0.1-0.1,1.6-1.9,2.8-2.2c0.7-0.2,1.5-0.2,2.3,0.2c0.6,0.2,1.1,0.7,1.5,1c0.5,0.5,0.9,1,1.1,1.4
			c0.3,0.5,0.5,1.2,0.5,1.9c-0.1,0.9-0.6,1.6-1.1,2.3c-1.5,1.9-4.8,5.5-5,5.8L179.4,137.8z M182,127c0.5,0,1,0.3,1.2,0.7
			c0.3,0.4,0.2,0.9,0.1,1.2c-0.2,0.7-1.1,1.5-1.2,1.6l-2.2,2.5c-0.3,0.3-1.1,1.2-1.2,1.8c0,0.1-0.1,0.1-0.1,0.2
			c-0.1,0.3-0.2,0.5-0.1,0.7c0.1,0.4,0.5,1,0.8,1.4l0.4-0.6c0.1-0.1,3.4-3.9,5-5.8c0.5-0.6,0.9-1.3,1-2c0.1-0.6-0.2-1.3-0.4-1.7
			s-0.6-0.9-1-1.3c-0.4-0.4-0.8-0.7-1.3-0.9c-0.4-0.2-1.2-0.4-2-0.2c-1,0.3-2.5,2.1-2.5,2.1c-0.1,0.1-2.6,2.8-4.6,5
			c0,0.1,0.2,0.3,0.4,0.4c0.1,0.1,0.3,0.2,0.4,0.3c0.3,0.3,1,0.3,1.3,0.2c0.2-0.1,0.6-0.1,0.8-0.3c1.3-1,3.5-3.8,3.6-3.9
			c0.1-0.1,0.9-1.1,1.7-1.2C181.9,127,182,127,182,127z"/>
	</g>
	<g>
		<path id="path3023-7_1_" inkscape:connector-curvature="0" sodipodi:nodetypes="csssasscsscscsssccsscc" class="st2" d="
			M169,145.5c0,0,4.1-3.1,6-4.7c0.6-0.5,1.2-1.1,1.5-1.9c0.2-0.6,0.1-1.3-0.1-1.8c-0.2-0.6-0.5-1.1-0.8-1.5
			c-0.4-0.5-0.7-0.9-1.2-1.2c-0.6-0.4-1.4-0.7-2.1-0.6c-1.1,0.1-3,1.6-3,1.6s-3.1,2.2-5.4,3.9c-0.4,0.3,0.2,0.7,0.5,1.1
			c0.4,0.6,1.4,0.6,1.4,0.6s0.6,0,0.9-0.2c1.5-0.7,4.3-3.1,4.3-3.1s1-0.9,1.7-0.8c0.4,0.1,0.8,0.4,1,0.8c0.1,0.3,0,0.7-0.2,1
			c-0.3,0.6-1.4,1.2-1.4,1.2l-2.7,2.1c0,0-1.2,0.8-1.6,1.6c-0.2,0.3-0.4,0.7-0.4,1c0.1,0.7,0.7,1.9,0.7,1.9L169,145.5z"/>
		<path class="st1" d="M168.2,146.6l-0.2-0.3c-0.1-0.1-0.7-1.3-0.8-2c-0.1-0.4,0.2-0.7,0.3-1l0.1-0.2c0.4-0.8,1.6-1.6,1.7-1.7l2.7-2
			c0.3-0.2,1.1-0.8,1.3-1.2c0.2-0.3,0.2-0.6,0.2-0.8c-0.1-0.3-0.5-0.6-0.8-0.6c-0.5-0.1-1.3,0.6-1.5,0.8c-0.1,0.1-2.8,2.4-4.3,3.1
			c-0.4,0.2-1,0.2-1.1,0.2c-0.1,0-1.2,0-1.6-0.7c-0.1-0.1-0.2-0.2-0.3-0.3c-0.2-0.3-0.5-0.5-0.4-0.8c0-0.1,0.1-0.3,0.3-0.4
			c2.3-1.7,5.4-3.9,5.4-3.9c0.1-0.1,2-1.5,3.1-1.6c0.7-0.1,1.5,0.2,2.2,0.6c0.6,0.4,0.9,0.9,1.3,1.3c0.4,0.6,0.7,1.1,0.8,1.6
			c0.2,0.5,0.3,1.3,0.1,2c-0.3,0.9-0.9,1.5-1.5,2c-1.9,1.6-5.8,4.5-6,4.7L168.2,146.6z M172.7,136.6L172.7,136.6
			c0.6,0.1,1.1,0.5,1.2,0.9c0.2,0.5-0.1,0.9-0.2,1.2c-0.3,0.6-1.4,1.3-1.5,1.3l-2.7,2c-0.4,0.3-1.3,0.9-1.5,1.5
			c-0.1,0.1-0.1,0.1-0.1,0.2c-0.1,0.2-0.3,0.5-0.3,0.7c0.1,0.4,0.3,1.1,0.6,1.5l0.5-0.5c0.1-0.1,4.1-3.1,6-4.7
			c0.6-0.5,1.2-1,1.4-1.8c0.2-0.6,0.1-1.3-0.1-1.7c-0.2-0.5-0.4-1-0.8-1.5c-0.3-0.4-0.7-0.9-1.1-1.2c-0.4-0.3-1.1-0.7-1.9-0.6
			c-1.1,0.1-2.9,1.5-2.9,1.5c-0.1,0.1-3.1,2.3-5.4,3.9c0,0.1,0.2,0.3,0.3,0.4c0.1,0.1,0.2,0.3,0.3,0.4c0.3,0.4,1,0.4,1.2,0.4
			c0.2,0,0.6,0,0.8-0.1c1.5-0.7,4.2-3.1,4.2-3.1C171,137.4,172,136.6,172.7,136.6z"/>
	</g>
	<g>
		<path id="path3023-62_1_" inkscape:connector-curvature="0" sodipodi:nodetypes="csssasscsscscsssccsscc" class="st2" d="
			M157,152.4c0,0,4.5-2.5,6.6-3.8c0.7-0.4,1.4-0.9,1.7-1.7c0.3-0.6,0.3-1.2,0.2-1.8c-0.1-0.6-0.3-1.1-0.6-1.6c-0.3-0.5-0.6-1-1-1.4
			c-0.6-0.5-1.3-0.9-2-0.9c-1.1-0.1-3.2,1.2-3.2,1.2s-3.4,1.8-5.9,3.2c-0.4,0.3,0.1,0.7,0.4,1.2c0.3,0.6,1.3,0.7,1.3,0.7
			s0.6,0.1,1,0c1.6-0.5,4.7-2.5,4.7-2.5s1.1-0.7,1.8-0.6c0.4,0.1,0.8,0.5,0.9,0.9c0.1,0.3-0.1,0.7-0.3,0.9c-0.4,0.5-1.6,1-1.6,1
			l-2.9,1.7c0,0-1.3,0.7-1.8,1.3c-0.2,0.3-0.5,0.6-0.5,0.9c0,0.7,0.5,2,0.5,2L157,152.4z"/>
		<path class="st1" d="M156.1,153.4l-0.1-0.3c0-0.1-0.5-1.4-0.5-2.1c0-0.4,0.3-0.7,0.4-0.9l0.1-0.2c0.5-0.7,1.8-1.4,1.9-1.4l2.9-1.7
			c0.4-0.2,1.2-0.6,1.5-1c0.2-0.3,0.3-0.5,0.3-0.7c-0.1-0.4-0.4-0.7-0.7-0.7c-0.5-0.1-1.3,0.4-1.6,0.6c-0.1,0.1-3.1,2-4.7,2.5
			c-0.4,0.2-1,0.1-1.1,0.1c-0.1,0-1.2-0.2-1.5-0.9c-0.1-0.1-0.2-0.2-0.2-0.4c-0.2-0.3-0.4-0.6-0.3-0.8c0-0.1,0.1-0.3,0.3-0.4
			c2.5-1.4,5.9-3.2,5.9-3.2c0.1-0.1,2.1-1.2,3.3-1.2c0.7,0,1.5,0.4,2.1,0.9c0.5,0.4,0.8,1,1.1,1.5c0.3,0.6,0.5,1.2,0.6,1.7
			c0.1,0.5,0.1,1.3-0.2,2c-0.4,0.8-1.1,1.4-1.8,1.8c-2.1,1.3-6.3,3.7-6.6,3.8L156.1,153.4z M161.7,144.1c0.1,0,0.2,0,0.3,0
			c0.5,0.1,0.9,0.6,1.1,1.1c0.1,0.5-0.2,1-0.3,1.1c-0.4,0.6-1.5,1.1-1.7,1.1l-2.9,1.7c-0.4,0.2-1.4,0.8-1.7,1.3
			c-0.1,0.1-0.1,0.1-0.1,0.2c-0.2,0.2-0.3,0.5-0.3,0.7c0,0.4,0.2,1.1,0.4,1.6l0.6-0.5c0.1,0,4.5-2.5,6.6-3.8
			c0.7-0.4,1.3-0.9,1.6-1.6c0.3-0.6,0.2-1.2,0.2-1.7c-0.1-0.5-0.3-1-0.6-1.5c-0.3-0.5-0.6-1-1-1.3c-0.4-0.3-1-0.8-1.8-0.8
			c-1.1-0.1-3,1.1-3.1,1.1s-3.4,1.8-5.9,3.2c-0.1,0.1,0.1,0.3,0.2,0.5c0.1,0.2,0.2,0.3,0.3,0.4c0.2,0.4,0.9,0.6,1.2,0.6
			c0.2,0,0.6,0.1,0.8,0c1.6-0.5,4.6-2.5,4.6-2.5C160,144.7,161,144.1,161.7,144.1z"/>
	</g>
	<g>
		<path id="path3023-70_1_" inkscape:connector-curvature="0" sodipodi:nodetypes="csssasscsscscsssccsscc" class="st2" d="
			M144.3,158c0,0,4.7-1.9,7-2.9c0.7-0.3,1.5-0.7,1.9-1.4c0.3-0.5,0.4-1.2,0.4-1.8c0-0.6-0.2-1.2-0.4-1.7c-0.2-0.6-0.5-1.1-0.8-1.5
			c-0.5-0.6-1.2-1-1.9-1.1c-1.1-0.2-3.3,0.7-3.3,0.7s-3.6,1.3-6.3,2.4c-0.5,0.2,0,0.8,0.2,1.2c0.2,0.6,1.2,0.9,1.2,0.9
			s0.6,0.2,0.9,0.1c1.7-0.3,4.9-1.9,4.9-1.9s1.2-0.6,1.9-0.4c0.4,0.2,0.7,0.6,0.7,1c0.1,0.3-0.2,0.7-0.4,0.9
			c-0.5,0.5-1.7,0.8-1.7,0.8l-3.1,1.3c0,0-1.4,0.5-1.9,1.1c-0.2,0.3-0.6,0.6-0.6,0.9c-0.1,0.7,0.2,2,0.2,2L144.3,158z"/>
		<path class="st1" d="M143.2,158.9l-0.1-0.4c0-0.1-0.3-1.4-0.2-2.1c0.1-0.4,0.3-0.6,0.5-0.9l0.1-0.2c0.6-0.7,2-1.2,2-1.2l3.1-1.3
			c0.4-0.1,1.3-0.4,1.6-0.8c0.2-0.3,0.4-0.5,0.3-0.7c-0.1-0.4-0.3-0.7-0.6-0.8c-0.5-0.2-1.4,0.2-1.7,0.3c-0.2,0.1-3.3,1.6-5,1.9
			c-0.5,0.1-1-0.1-1.1-0.1c-0.1-0.1-1.2-0.3-1.4-1.1c-0.1-0.1-0.1-0.3-0.2-0.4c-0.2-0.3-0.3-0.6-0.2-0.9c0.1-0.1,0.1-0.2,0.3-0.3
			c2.7-1,6.2-2.4,6.3-2.4c0.1-0.1,2.3-0.9,3.4-0.7c0.7,0.1,1.4,0.6,2,1.2c0.5,0.5,0.7,1.1,0.9,1.6c0.3,0.7,0.4,1.2,0.4,1.8
			c0,0.5-0.1,1.3-0.5,1.9c-0.5,0.8-1.3,1.2-2,1.5c-2.2,1-6.7,2.8-7,2.9L143.2,158.9z M149.8,150.3c0.2,0,0.3,0,0.5,0.1
			c0.5,0.2,0.9,0.7,0.9,1.2c0.1,0.5-0.3,0.9-0.5,1.1c-0.5,0.5-1.7,0.9-1.8,0.9l-3.1,1.3c-0.4,0.2-1.4,0.6-1.8,1
			c-0.1,0.1-0.1,0.1-0.2,0.2c-0.2,0.2-0.4,0.4-0.4,0.6c-0.1,0.4,0.1,1.1,0.2,1.6l0.6-0.4c0.1,0,4.8-1.9,7-2.9
			c0.7-0.3,1.4-0.7,1.8-1.3c0.3-0.6,0.4-1.2,0.4-1.7c0-0.5-0.1-1-0.4-1.6c-0.2-0.5-0.4-1-0.8-1.4c-0.3-0.4-0.9-0.9-1.7-1.1
			c-1-0.2-3.2,0.7-3.2,0.7c-0.1,0-3.6,1.4-6.3,2.4c-0.1,0.1,0.1,0.4,0.2,0.5c0.1,0.2,0.2,0.3,0.2,0.4c0.2,0.4,0.8,0.7,1.1,0.8
			c0.2,0.1,0.6,0.2,0.8,0.1c1.6-0.3,4.8-1.8,4.9-1.9C148.3,150.7,149.1,150.3,149.8,150.3z"/>
	</g>
	<g>
		<path id="path3023-20_1_" inkscape:connector-curvature="0" sodipodi:nodetypes="csssasscsscscsssccsscc" class="st2" d="
			M131,161.8c0,0,5-1.1,7.4-1.7c0.8-0.2,1.6-0.5,2.1-1.1c0.4-0.5,0.6-1.1,0.7-1.7c0.1-0.6,0.1-1.2-0.1-1.7c-0.1-0.6-0.3-1.2-0.6-1.6
			c-0.4-0.6-1-1.2-1.6-1.4c-1.1-0.4-3.4,0.2-3.4,0.2s-3.7,0.7-6.6,1.3c-0.5,0.1-0.1,0.8,0,1.2c0.1,0.7,1.1,1.1,1.1,1.1
			s0.5,0.3,0.9,0.3c1.7,0,5.2-1,5.2-1s1.3-0.4,1.9,0c0.4,0.2,0.6,0.7,0.6,1.1c0,0.3-0.3,0.6-0.6,0.8c-0.5,0.4-1.8,0.5-1.8,0.5
			l-3.3,0.7c0,0-1.5,0.3-2.1,0.8c-0.3,0.2-0.6,0.5-0.7,0.8c-0.2,0.7-0.2,2-0.2,2L131,161.8z"/>
		<path class="st1" d="M129.8,162.5v-0.4c0-0.1-0.1-1.4,0.2-2.1c0.1-0.3,0.4-0.6,0.7-0.8l0.2-0.1c0.7-0.6,2.1-0.8,2.2-0.8l3.3-0.7
			c0.4-0.1,1.3-0.2,1.7-0.5c0.3-0.2,0.4-0.4,0.5-0.6c0-0.4-0.2-0.7-0.4-0.9c-0.4-0.2-1.4-0.1-1.7,0.1c-0.2,0.1-3.6,1-5.2,1l0,0
			c-0.5,0-1-0.3-1-0.3c-0.1-0.1-1.1-0.5-1.2-1.3c0-0.1-0.1-0.3-0.1-0.4c-0.1-0.3-0.2-0.7-0.1-0.9c0.1-0.1,0.2-0.2,0.4-0.3
			c2.8-0.6,6.5-1.3,6.6-1.3c0.1,0,2.4-0.5,3.5-0.2c0.7,0.3,1.3,0.8,1.8,1.5c0.4,0.6,0.5,1.2,0.6,1.7c0.2,0.7,0.2,1.3,0.1,1.8
			c-0.1,0.5-0.3,1.3-0.8,1.8c-0.6,0.7-1.4,1-2.2,1.2c-2.3,0.6-7.1,1.6-7.4,1.7L129.8,162.5z M137.2,155.2c0.3,0,0.6,0.1,0.9,0.2
			c0.4,0.3,0.7,0.8,0.7,1.4c-0.1,0.5-0.5,0.9-0.7,1c-0.6,0.4-1.8,0.6-1.9,0.6l-3.3,0.7c-0.4,0.1-1.5,0.3-2,0.7
			c-0.1,0.1-0.1,0.1-0.2,0.1c-0.2,0.2-0.4,0.4-0.5,0.5c-0.2,0.4-0.2,1.1-0.2,1.6l0.7-0.3c0.1,0,5-1.1,7.4-1.7c0.9-0.2,1.5-0.5,2-1
			c0.4-0.5,0.6-1.1,0.7-1.6c0.1-0.5,0.1-1-0.1-1.6c-0.1-0.5-0.3-1.1-0.5-1.5c-0.3-0.4-0.8-1.1-1.5-1.3c-1-0.4-3.2,0.2-3.2,0.2
			c-0.1,0-3.8,0.7-6.6,1.3c-0.1,0.1,0,0.4,0.1,0.5c0.1,0.2,0.1,0.3,0.1,0.5c0.1,0.4,0.7,0.8,0.9,0.9c0.2,0.1,0.5,0.3,0.8,0.3l0,0
			c1.6,0,5.1-1,5.1-1C136.1,155.3,136.7,155.2,137.2,155.2z"/>
	</g>
	<g>
		<path id="path3023-32_1_" inkscape:connector-curvature="0" sodipodi:nodetypes="csssasscsscscsssccsscc" class="st2" d="
			M117.4,164.4c0,0,5-0.9,7.5-1.5c0.8-0.2,1.6-0.4,2.1-1c0.4-0.5,0.7-1.1,0.8-1.7c0.1-0.6,0.1-1.2,0-1.7c-0.1-0.6-0.2-1.2-0.5-1.6
			c-0.4-0.6-0.9-1.2-1.6-1.5c-1.1-0.4-3.4,0.1-3.4,0.1s-3.7,0.6-6.6,1.1c-0.5,0.1-0.1,0.7-0.1,1.2c0.1,0.7,1,1.1,1,1.1
			s0.5,0.3,0.9,0.3c1.7,0.1,5.2-0.9,5.2-0.9s1.3-0.3,1.9,0.1c0.4,0.2,0.6,0.7,0.5,1.1c-0.1,0.3-0.3,0.6-0.6,0.8
			c-0.5,0.4-1.8,0.5-1.8,0.5l-3.3,0.6c0,0-1.5,0.2-2.1,0.7c-0.3,0.2-0.6,0.4-0.8,0.7c-0.3,0.6-0.2,2-0.2,2L117.4,164.4z"/>
		<path class="st1" d="M116.2,165v-0.4c0-0.1-0.1-1.4,0.2-2.1c0.1-0.3,0.4-0.6,0.7-0.7l0.2-0.1c0.7-0.6,2.2-0.7,2.2-0.8l3.3-0.6
			c0.4-0.1,1.3-0.2,1.7-0.4c0.3-0.2,0.5-0.4,0.5-0.6c0.1-0.4-0.2-0.8-0.4-0.9c-0.4-0.3-1.4-0.1-1.7,0c-0.2,0.1-3.6,0.9-5.3,0.9
			c-0.5,0-1-0.3-1-0.3c-0.1-0.1-1.1-0.6-1.2-1.3c0-0.1-0.1-0.3-0.1-0.4c-0.1-0.3-0.2-0.7,0-0.9c0.1-0.1,0.2-0.2,0.4-0.2
			c2.8-0.5,6.6-1.1,6.6-1.1c0.1,0,2.4-0.5,3.5,0c0.7,0.3,1.3,0.8,1.7,1.6c0.4,0.6,0.5,1.2,0.6,1.7c0.1,0.7,0.1,1.3,0,1.8
			c-0.1,0.5-0.3,1.3-0.8,1.8c-0.6,0.7-1.5,0.9-2.3,1.1c-2.4,0.6-7.1,1.4-7.5,1.5L116.2,165z M123.8,157.9c0.4,0,0.7,0.1,1,0.2
			c0.4,0.3,0.7,0.8,0.7,1.4c-0.1,0.4-0.3,0.7-0.7,1c-0.6,0.4-1.8,0.5-1.9,0.5l-3.3,0.6c-0.4,0.1-1.5,0.3-2,0.7
			c-0.1,0.1-0.1,0.1-0.2,0.1c-0.2,0.2-0.5,0.3-0.5,0.5c-0.2,0.4-0.2,1.1-0.2,1.6l0.7-0.2c0.1,0,5-0.9,7.4-1.5c0.8-0.2,1.5-0.4,2-1
			c0.4-0.5,0.6-1.1,0.7-1.6s0.1-1,0-1.6c-0.1-0.5-0.2-1.1-0.5-1.6c-0.3-0.4-0.7-1.1-1.5-1.4c-1-0.4-3.2,0.1-3.3,0.1
			c-0.1,0-3.8,0.6-6.6,1.1c-0.1,0.1,0,0.4,0.1,0.5c0.1,0.2,0.1,0.3,0.1,0.5c0.1,0.4,0.7,0.8,0.9,0.9c0.2,0.1,0.5,0.3,0.8,0.3
			c1.6,0.1,5.1-0.8,5.1-0.8C122.8,158.1,123.3,157.9,123.8,157.9z"/>
	</g>
	<g>
		<path id="path3023-06_1_" inkscape:connector-curvature="0" sodipodi:nodetypes="csssasscsscscsssccsscc" class="st2" d="
			M102.9,165.5c0,0,5.1-0.4,7.6-0.7c0.8-0.1,1.6-0.3,2.2-0.8c0.5-0.4,0.8-1,0.9-1.6c0.2-0.6,0.2-1.2,0.2-1.7
			c-0.1-0.6-0.1-1.2-0.4-1.7c-0.3-0.7-0.8-1.3-1.4-1.6c-1-0.5-3.4-0.3-3.4-0.3s-3.8,0.2-6.7,0.4c-0.5,0.1-0.2,0.7-0.2,1.2
			c0,0.7,0.9,1.2,0.9,1.2s0.5,0.3,0.9,0.4c1.7,0.2,5.3-0.3,5.3-0.3s1.3-0.2,1.9,0.3c0.4,0.3,0.5,0.8,0.4,1.2
			c-0.1,0.3-0.4,0.6-0.7,0.7c-0.6,0.3-1.8,0.3-1.8,0.3l-3.3,0.3c0,0-1.5,0.1-2.2,0.5c-0.3,0.2-0.7,0.4-0.8,0.7c-0.3,0.6-0.4,2-0.4,2
			L102.9,165.5z"/>
		<path class="st1" d="M101.7,166v-0.4c0-0.1,0.1-1.4,0.4-2.1c0.2-0.3,0.5-0.5,0.8-0.7l0.2-0.1c0.7-0.5,2.2-0.5,2.3-0.5l3.3-0.3
			c0.4,0,1.3-0.1,1.7-0.3c0.3-0.2,0.5-0.4,0.5-0.6c0.1-0.4-0.1-0.8-0.3-0.9c-0.4-0.3-1.4-0.2-1.7-0.2c-0.2,0-3.7,0.5-5.3,0.3
			c-0.5-0.1-0.9-0.4-1-0.4c-0.1-0.1-1-0.7-1-1.4c0-0.1,0-0.3-0.1-0.4c-0.1-0.3-0.1-0.7,0.1-0.9c0.1-0.1,0.2-0.2,0.4-0.2
			c2.9-0.2,6.6-0.4,6.7-0.4c0.1,0,2.4-0.2,3.5,0.4c0.6,0.3,1.2,0.9,1.6,1.7c0.3,0.6,0.4,1.2,0.4,1.8c0.1,0.7,0,1.3-0.2,1.8
			c-0.2,0.5-0.5,1.2-1,1.7c-0.7,0.6-1.5,0.8-2.4,0.9c-2.4,0.3-7.2,0.7-7.6,0.7L101.7,166z M108.6,162.6l-3.3,0.3
			c-0.4,0-1.5,0.1-2.1,0.4c-0.1,0.1-0.1,0.1-0.2,0.1c-0.2,0.1-0.5,0.3-0.6,0.5c-0.2,0.4-0.3,1.1-0.4,1.6l0.7-0.2
			c0.1,0,5.1-0.4,7.6-0.7c0.8-0.1,1.5-0.3,2.1-0.8c0.5-0.4,0.7-1,0.9-1.5c0.2-0.5,0.2-1,0.2-1.6c-0.1-0.5-0.1-1.1-0.3-1.6
			c-0.2-0.4-0.6-1.2-1.3-1.5c-1-0.5-3.2-0.3-3.2-0.3c-0.1,0-3.8,0.2-6.7,0.4c-0.1,0.1,0,0.4,0,0.5c0,0.2,0.1,0.3,0.1,0.5
			c0,0.4,0.6,0.9,0.8,1c0.2,0.1,0.5,0.3,0.8,0.4c1.6,0.2,5.2-0.3,5.2-0.3c0.2,0,1.5-0.2,2.1,0.3c0.4,0.3,0.6,0.9,0.5,1.4
			c-0.1,0.5-0.5,0.8-0.8,0.9C110,162.6,108.8,162.6,108.6,162.6z"/>
	</g>
	<g>
		<path id="path3023-56_1_" inkscape:connector-curvature="0" sodipodi:nodetypes="csssasscsscscsssccsscc" class="st2" d="
			M88.5,164.9c0,0,5.1,0.1,7.6,0.1c0.8,0,1.6-0.1,2.3-0.6c0.5-0.4,0.9-0.9,1.1-1.5c0.2-0.5,0.3-1.1,0.3-1.7s0-1.2-0.2-1.7
			c-0.3-0.7-0.7-1.4-1.3-1.8c-1-0.6-3.3-0.7-3.3-0.7s-3.8-0.2-6.7-0.3c-0.5,0-0.3,0.7-0.3,1.2c-0.1,0.7,0.8,1.3,0.8,1.3
			s0.5,0.4,0.8,0.5c1.6,0.4,5.3,0.2,5.3,0.2s1.3-0.1,1.8,0.4c0.3,0.3,0.4,0.8,0.3,1.2c-0.1,0.3-0.4,0.5-0.7,0.7
			c-0.6,0.3-1.9,0.1-1.9,0.1l-3.4-0.1c0,0-1.5-0.1-2.2,0.3c-0.3,0.2-0.7,0.3-0.9,0.6c-0.4,0.6-0.6,1.9-0.6,1.9L88.5,164.9z"/>
		<path class="st1" d="M87.2,165.3l0.1-0.4c0-0.1,0.3-1.4,0.6-2c0.2-0.3,0.5-0.5,0.8-0.6l0.2-0.1c0.8-0.4,2.3-0.3,2.3-0.3l3.3,0.1
			c0.4,0.1,1.3,0.1,1.8-0.1c0.3-0.1,0.5-0.3,0.6-0.5c0.1-0.3,0-0.8-0.2-1c-0.4-0.3-1.3-0.4-1.7-0.4c-0.2,0-3.7,0.2-5.3-0.3
			c-0.4-0.1-0.9-0.5-0.9-0.5c-0.1-0.1-1-0.8-0.9-1.5c0-0.1,0-0.3,0-0.4c0-0.3-0.1-0.7,0.2-0.9c0.1-0.1,0.2-0.2,0.4-0.2
			c2.9,0.1,6.6,0.3,6.7,0.3c0.1,0,2.5,0.1,3.5,0.7c0.6,0.4,1.1,1.1,1.4,1.9c0.2,0.6,0.2,1.3,0.2,1.8c-0.1,0.7-0.2,1.3-0.4,1.8
			c-0.2,0.5-0.6,1.2-1.2,1.6c-0.7,0.5-1.6,0.6-2.4,0.7c-2.4,0.1-7.2-0.1-7.6-0.1L87.2,165.3z M90.6,162.5c-0.5,0-1.2,0.1-1.6,0.3
			c-0.1,0.1-0.1,0.1-0.2,0.1c-0.2,0.1-0.5,0.3-0.6,0.4c-0.2,0.4-0.4,1.1-0.5,1.5l0.7-0.1l0,0c0.1,0,5.1,0.1,7.6,0.1
			c0.8,0,1.5-0.1,2.2-0.6c0.5-0.4,0.8-1,1-1.4c0.2-0.5,0.3-1,0.3-1.6c0-0.5,0-1.1-0.2-1.6c-0.2-0.4-0.5-1.2-1.2-1.6
			c-0.9-0.6-3.2-0.6-3.2-0.6c-0.1,0-3.8-0.2-6.7-0.3c-0.1,0.1-0.1,0.4-0.1,0.5c0,0.2,0,0.3,0,0.5c-0.1,0.4,0.5,1,0.7,1.1
			c0.1,0.1,0.5,0.4,0.7,0.4c1.6,0.4,5.2,0.2,5.2,0.2c0.2,0,1.5,0,2,0.5c0.4,0.3,0.5,1,0.4,1.5c-0.2,0.5-0.6,0.7-0.9,0.8
			c-0.6,0.3-1.8,0.2-2,0.1l-3.3-0.1C91,162.5,90.8,162.5,90.6,162.5z"/>
	</g>
	<g>
		<path id="path3023-07_1_" inkscape:connector-curvature="0" sodipodi:nodetypes="csssasscsscscsssccsscc" class="st2" d="
			M73.8,162.8c0,0,5.1,0.7,7.6,0.9c0.8,0.1,1.6,0.1,2.3-0.4c0.5-0.3,0.9-0.8,1.2-1.4c0.3-0.5,0.4-1.1,0.5-1.7c0.1-0.6,0.1-1.2,0-1.7
			c-0.2-0.7-0.5-1.4-1.1-1.9c-0.9-0.7-3.2-1-3.2-1s-3.8-0.6-6.6-1c-0.5-0.1-0.4,0.7-0.4,1.2c-0.1,0.7,0.7,1.4,0.7,1.4
			s0.4,0.4,0.8,0.6c1.6,0.6,5.2,0.8,5.2,0.8s1.3,0.1,1.8,0.6c0.3,0.3,0.3,0.9,0.2,1.2c-0.1,0.3-0.5,0.5-0.8,0.6
			c-0.6,0.2-1.9-0.1-1.9-0.1l-3.3-0.4c0,0-1.5-0.3-2.2,0.1c-0.3,0.1-0.7,0.2-0.9,0.5c-0.4,0.6-0.8,1.9-0.8,1.9L73.8,162.8z"/>
		<path class="st1" d="M82.1,163.9c-0.3,0-0.5,0-0.7-0.1c-2.4-0.2-7.2-0.8-7.5-0.9l-1.4,0.1l0.1-0.3c0-0.1,0.4-1.4,0.8-2
			c0.2-0.3,0.6-0.4,0.9-0.5l0.2-0.1c0.8-0.3,2.3-0.1,2.3-0.1l3.3,0.4c0.4,0.1,1.3,0.3,1.8,0.1c0.3-0.1,0.5-0.3,0.6-0.5
			c0.2-0.3,0.1-0.8-0.1-1c-0.3-0.4-1.3-0.5-1.6-0.5c-0.2,0-3.7-0.2-5.3-0.8c-0.4-0.2-0.8-0.6-0.9-0.6c-0.1-0.1-0.9-0.9-0.7-1.6
			c0-0.1,0.1-0.3,0.1-0.4c0-0.3,0.1-0.7,0.3-0.9c0.1-0.1,0.2-0.2,0.4-0.1c2.9,0.4,6.6,1,6.6,1c0.1,0,2.4,0.3,3.4,1
			c0.6,0.5,1,1.2,1.2,2c0.2,0.6,0.1,1.3,0,1.8c-0.1,0.7-0.3,1.3-0.5,1.7c-0.3,0.5-0.7,1.1-1.3,1.5C83.3,163.8,82.7,163.9,82.1,163.9
			z M73.9,162.5L73.9,162.5c0.1,0,5.1,0.7,7.6,0.9c0.8,0.1,1.5,0.1,2.2-0.3c0.6-0.3,0.9-0.9,1.1-1.3c0.2-0.4,0.4-1,0.5-1.6
			c0.1-0.5,0.1-1.1,0-1.6c-0.1-0.5-0.4-1.3-1-1.7c-0.8-0.7-3.1-0.9-3.1-0.9c-0.1,0-3.8-0.6-6.6-1c-0.1,0.1-0.1,0.3-0.1,0.5
			s0,0.3-0.1,0.5c-0.1,0.4,0.4,1,0.6,1.2c0.1,0.1,0.4,0.4,0.7,0.5c1.6,0.5,5.1,0.8,5.1,0.8c0.2,0,1.5,0.1,2,0.7
			c0.3,0.4,0.4,1,0.2,1.5c-0.2,0.5-0.7,0.7-0.9,0.7c-0.7,0.2-1.9-0.1-2-0.1l-3.3-0.4c-0.4-0.1-1.5-0.2-2.1,0c-0.1,0-0.1,0.1-0.2,0.1
			c-0.3,0.1-0.5,0.2-0.6,0.3c-0.3,0.3-0.5,1-0.6,1.5L73.9,162.5z"/>
	</g>
	<g>
		<path id="path3023-561_1_" inkscape:connector-curvature="0" sodipodi:nodetypes="csssasscsscscsssccsscc" class="st2" d="
			M67.4,38.7c0,0-4.9,1.4-7.3,2.1c-0.8,0.3-1.5,0.6-2,1.2c-0.4,0.5-0.6,1.1-0.6,1.7c-0.1,0.6,0,1.2,0.2,1.7s0.3,1.1,0.7,1.6
			c0.4,0.6,1,1.1,1.7,1.3c1.1,0.3,3.4-0.3,3.4-0.3s3.7-0.9,6.5-1.7c0.5-0.1,0.1-0.8-0.1-1.2c-0.2-0.7-1.1-1-1.1-1s-0.5-0.3-0.9-0.2
			c-1.7,0.1-5.1,1.3-5.1,1.3s-1.3,0.4-1.9,0.1c-0.4-0.2-0.6-0.7-0.6-1.1c0-0.3,0.3-0.6,0.5-0.8c0.5-0.4,1.8-0.6,1.8-0.6l3.2-0.9
			c0,0,1.5-0.3,2-0.9c0.3-0.2,0.6-0.5,0.7-0.8c0.2-0.7,0-2,0-2L67.4,38.7z"/>
		<path class="st1" d="M60.7,48.7c-0.3,0-0.6-0.1-0.8-0.1c-0.7-0.2-1.3-0.7-1.9-1.4c-0.4-0.5-0.6-1.1-0.7-1.7
			c-0.2-0.7-0.2-1.3-0.2-1.8c0.1-0.5,0.2-1.3,0.7-1.9c0.6-0.7,1.4-1.1,2.2-1.3c2.3-0.8,7-2,7.3-2.1l1.2-0.6l0.1,0.4
			c0,0.1,0.2,1.4-0.1,2.1c-0.1,0.3-0.4,0.6-0.6,0.8l-0.2,0.1c-0.7,0.6-2.1,0.9-2.2,0.9L62.4,43c-0.4,0.1-1.3,0.3-1.7,0.6
			c-0.3,0.2-0.4,0.5-0.4,0.7c0,0.4,0.2,0.7,0.5,0.9c0.4,0.2,1.4-0.1,1.7-0.2c0.2-0.1,3.5-1.2,5.2-1.3c0.5-0.1,1,0.2,1,0.3
			c0.1,0.1,1.1,0.5,1.3,1.2c0,0.1,0.1,0.3,0.1,0.4c0.1,0.3,0.2,0.6,0.1,0.9c-0.1,0.1-0.2,0.2-0.4,0.3c-2.8,0.7-6.4,1.6-6.5,1.7
			C63.3,48.3,61.9,48.7,60.7,48.7z M68.1,38.7L67.5,39c-0.1,0-4.9,1.4-7.3,2.1c-0.7,0.3-1.5,0.5-1.9,1.1c-0.4,0.5-0.5,1.2-0.6,1.6
			s0,1,0.2,1.6c0.1,0.5,0.3,1.1,0.6,1.5c0.3,0.4,0.8,1,1.6,1.2c1,0.3,3.2-0.3,3.2-0.3c0.1,0,3.7-0.9,6.5-1.7
			c0.1-0.1-0.1-0.4-0.1-0.5c-0.1-0.2-0.1-0.3-0.2-0.5c-0.1-0.4-0.7-0.8-1-0.9c-0.2-0.1-0.6-0.2-0.8-0.2c-1.6,0.1-5,1.3-5,1.3
			c-0.2,0.1-1.4,0.5-2.1,0.1c-0.5-0.2-0.8-0.8-0.8-1.3c0-0.5,0.4-0.9,0.6-1c0.5-0.4,1.7-0.7,1.9-0.7l3.2-0.9
			c0.4-0.1,1.5-0.4,1.9-0.8c0.1-0.1,0.1-0.1,0.2-0.2c0.2-0.2,0.4-0.4,0.5-0.6C68.2,39.9,68.2,39.1,68.1,38.7z"/>
	</g>
	<g>
		<path id="path3023-42_1_" inkscape:connector-curvature="0" sodipodi:nodetypes="csssasscsscscsssccsscc" class="st2" d="
			M51.9,43.8c0,0-4.7,2-6.9,3.1c-0.7,0.4-1.4,0.8-1.9,1.5c-0.3,0.6-0.4,1.2-0.4,1.8c0,0.6,0.2,1.2,0.4,1.7c0.2,0.6,0.5,1.1,0.9,1.5
			c0.5,0.5,1.2,1,1.9,1.1c1.1,0.2,3.3-0.8,3.3-0.8s3.5-1.4,6.2-2.5c0.5-0.2-0.1-0.8-0.2-1.2c-0.2-0.6-1.3-0.9-1.3-0.9
			s-0.6-0.2-1-0.1c-1.7,0.4-4.9,2-4.9,2s-1.2,0.6-1.8,0.4c-0.4-0.1-0.7-0.6-0.8-1c-0.1-0.3,0.2-0.7,0.4-0.9c0.4-0.5,1.7-0.9,1.7-0.9
			l3.1-1.4c0,0,1.4-0.5,1.9-1.2c0.2-0.3,0.5-0.6,0.6-0.9c0.1-0.7-0.3-2-0.3-2L51.9,43.8z"/>
		<path class="st1" d="M46.1,54.7c-0.1,0-0.2,0-0.3,0c-0.7-0.1-1.4-0.5-2-1.2c-0.5-0.5-0.7-1.1-0.9-1.6c-0.3-0.7-0.4-1.2-0.4-1.8
			c0-0.5,0.1-1.3,0.4-1.9c0.5-0.8,1.2-1.2,2-1.6c2.2-1.1,6.6-3,6.9-3.1l1.2-0.7l0.1,0.4c0,0.1,0.4,1.4,0.3,2.1
			c-0.1,0.4-0.3,0.6-0.5,0.9l-0.1,0.2c-0.6,0.7-2,1.2-2,1.2l-3.1,1.4c-0.4,0.1-1.3,0.5-1.6,0.8c-0.2,0.3-0.4,0.5-0.3,0.7
			c0.1,0.4,0.3,0.7,0.6,0.8c0.5,0.2,1.4-0.3,1.7-0.4c0.2-0.1,3.3-1.7,4.9-2c0.4-0.1,1,0.1,1.1,0.1c0.1,0.1,1.2,0.3,1.4,1
			c0.1,0.1,0.1,0.3,0.2,0.4c0.2,0.3,0.3,0.6,0.2,0.9c-0.1,0.1-0.1,0.2-0.3,0.3c-2.7,1.1-6.2,2.5-6.2,2.5
			C49.1,53.9,47.3,54.7,46.1,54.7z M52.6,43.7L52,44c-0.1,0-4.7,2-6.9,3.1c-0.7,0.4-1.4,0.7-1.7,1.4c-0.3,0.6-0.4,1.2-0.4,1.7
			s0.2,1,0.4,1.6c0.2,0.5,0.5,1,0.8,1.4c0.3,0.3,1,0.9,1.7,1c1.1,0.2,3.1-0.8,3.2-0.8c0.1,0,3.6-1.5,6.2-2.5
			c0.1-0.1-0.1-0.4-0.2-0.5c-0.1-0.2-0.2-0.3-0.2-0.4c-0.2-0.4-0.8-0.7-1.1-0.7c-0.2-0.1-0.6-0.2-0.8-0.1c-1.6,0.3-4.8,2-4.8,2
			c-0.2,0.1-1.3,0.6-2,0.4c-0.5-0.2-0.9-0.7-0.9-1.2c-0.1-0.5,0.3-0.9,0.5-1.1c0.5-0.5,1.6-0.9,1.8-0.9l3.1-1.4
			c0.4-0.2,1.4-0.6,1.8-1.1c0.1-0.1,0.1-0.1,0.1-0.2c0.2-0.2,0.4-0.4,0.4-0.6C52.8,44.9,52.7,44.2,52.6,43.7z"/>
	</g>
	<g>
		<path id="path3023-14_1_" inkscape:connector-curvature="0" sodipodi:nodetypes="csssasscsscscsssccsscc" class="st2" d="
			M38.7,50.5c0,0-4.4,2.7-6.5,4.1c-0.7,0.5-1.3,1-1.6,1.7c-0.2,0.6-0.2,1.2-0.1,1.8c0.1,0.6,0.4,1.1,0.6,1.6c0.3,0.5,0.6,1,1.1,1.4
			c0.6,0.5,1.3,0.8,2,0.8c1.1,0,3.2-1.3,3.2-1.3s3.3-1.9,5.8-3.4c0.4-0.3-0.2-0.7-0.4-1.2c-0.3-0.6-1.4-0.7-1.4-0.7s-0.6-0.1-1,0.1
			c-1.6,0.6-4.6,2.7-4.6,2.7s-1.1,0.7-1.8,0.6c-0.4-0.1-0.8-0.5-0.9-0.9c-0.1-0.3,0.1-0.7,0.3-0.9c0.4-0.5,1.5-1.1,1.5-1.1l2.9-1.8
			c0,0,1.3-0.7,1.7-1.4c0.2-0.3,0.5-0.6,0.5-1c0-0.7-0.5-2-0.5-2L38.7,50.5z"/>
		<path class="st1" d="M34.2,62c-0.7,0-1.5-0.3-2.2-0.9c-0.5-0.4-0.9-1-1.1-1.4c-0.4-0.6-0.6-1.2-0.7-1.7s-0.2-1.3,0.2-2
			c0.4-0.9,1-1.4,1.7-1.9c2-1.4,6.2-3.9,6.4-4.1l1.1-0.9l0.2,0.3c0,0.1,0.6,1.3,0.6,2c0,0.4-0.2,0.7-0.4,0.9l-0.2,0.2
			c-0.5,0.8-1.8,1.5-1.8,1.5L35.2,56c-0.4,0.2-1.2,0.7-1.5,1c-0.2,0.3-0.3,0.6-0.2,0.7c0.1,0.3,0.4,0.6,0.7,0.7
			c0.5,0.1,1.3-0.4,1.6-0.6c0.1-0.1,3-2.1,4.6-2.7c0.4-0.2,1-0.1,1.1-0.1c0.1,0,1.2,0.1,1.6,0.8c0.1,0.1,0.2,0.2,0.2,0.3
			c0.2,0.3,0.4,0.6,0.3,0.8c0,0.1-0.1,0.3-0.3,0.4c-2.5,1.5-5.8,3.4-5.8,3.4C37.4,60.8,35.4,62,34.2,62L34.2,62z M39.4,50.2
			l-0.6,0.5c-0.1,0.1-4.4,2.7-6.4,4.1c-0.6,0.4-1.3,0.9-1.5,1.6c-0.3,0.6-0.2,1.3-0.1,1.7s0.3,1,0.6,1.5c0.3,0.5,0.6,0.9,1,1.3
			c0.4,0.3,1.1,0.8,1.9,0.8l0,0c1.1,0,3-1.2,3-1.2c0.1,0,3.3-1.9,5.8-3.4c0.1-0.1-0.2-0.3-0.2-0.5c-0.1-0.2-0.2-0.3-0.3-0.4
			c-0.2-0.4-0.9-0.5-1.2-0.6c-0.2,0-0.6-0.1-0.8,0.1c-1.5,0.6-4.5,2.6-4.5,2.6c-0.1,0.1-1.2,0.8-2,0.7c-0.5-0.1-1-0.5-1.1-1.1
			c-0.1-0.5,0.1-0.9,0.3-1.2c0.4-0.6,1.5-1.1,1.6-1.2l2.8-1.8c0.4-0.2,1.3-0.8,1.6-1.3c0.1-0.1,0.1-0.1,0.1-0.2
			c0.2-0.2,0.3-0.5,0.3-0.7C39.8,51.3,39.6,50.7,39.4,50.2z"/>
	</g>
	<g>
		<path id="path3023-96_1_" inkscape:connector-curvature="0" sodipodi:nodetypes="csssasscsscscsssccsscc" class="st2" d="M26,59.4
			c0,0-3.7,3.5-5.5,5.3c-0.6,0.6-1.1,1.2-1.2,2c-0.1,0.6,0.1,1.3,0.3,1.8c0.2,0.5,0.6,1,1,1.4c0.4,0.4,0.8,0.9,1.3,1.1
			c0.7,0.3,1.4,0.5,2.1,0.4c1.1-0.3,2.8-1.9,2.8-1.9s2.8-2.6,5-4.5c0.4-0.4-0.3-0.7-0.6-1.1c-0.4-0.5-1.5-0.4-1.5-0.4
			s-0.6,0.1-0.9,0.3c-1.4,0.9-3.9,3.6-3.9,3.6s-0.9,1-1.6,1c-0.4,0-0.9-0.3-1.1-0.7c-0.2-0.3-0.1-0.7,0.1-1c0.3-0.6,1.3-1.4,1.3-1.4
			l2.4-2.3c0,0,1.1-1,1.4-1.7c0.1-0.3,0.3-0.7,0.3-1c-0.2-0.7-0.9-1.8-0.9-1.8L26,59.4z"/>
		<path class="st1" d="M23.4,71.7c-0.6,0-1.1-0.2-1.7-0.5c-0.6-0.3-1.1-0.8-1.4-1.2c-0.5-0.5-0.8-1-1-1.5c-0.2-0.5-0.4-1.2-0.3-2
			c0.2-0.9,0.7-1.6,1.3-2.2c1.7-1.7,5.2-5.1,5.4-5.3l0.9-1.1l0.2,0.3c0.1,0.1,0.8,1.2,1,1.9c0.1,0.4-0.1,0.7-0.2,1l-0.1,0.2
			c-0.3,0.8-1.4,1.8-1.5,1.8l-2.4,2.3c-0.3,0.3-1,0.9-1.2,1.3c-0.1,0.3-0.2,0.6-0.1,0.8c0.2,0.3,0.5,0.6,0.8,0.5
			c0.5,0,1.2-0.7,1.4-0.9c0.1-0.1,2.5-2.7,4-3.6c0.4-0.3,1-0.3,1-0.3c0.1,0,1.2-0.2,1.7,0.5c0.1,0.1,0.2,0.2,0.3,0.3
			c0.3,0.2,0.5,0.5,0.5,0.8c0,0.1-0.1,0.3-0.2,0.4c-2.1,2-4.9,4.5-5,4.5c-0.1,0.1-1.8,1.7-2.9,2C23.8,71.7,23.6,71.7,23.4,71.7z
			 M26.7,59l-0.5,0.6c-0.1,0.1-3.7,3.6-5.5,5.3c-0.5,0.6-1.1,1.2-1.2,1.9c-0.1,0.6,0.1,1.3,0.3,1.7c0.2,0.5,0.5,0.9,0.9,1.4
			c0.4,0.4,0.8,0.8,1.2,1c0.4,0.2,1.2,0.5,2,0.4c1-0.2,2.7-1.8,2.7-1.8c0.1-0.1,2.9-2.6,5-4.5c0-0.1-0.2-0.3-0.3-0.4
			c-0.1-0.1-0.3-0.2-0.3-0.3c-0.3-0.3-1-0.3-1.3-0.3c-0.2,0-0.6,0.1-0.8,0.2c-1.4,0.9-3.8,3.5-3.9,3.5c-0.1,0.1-1,1.1-1.8,1.1
			c-0.5,0.1-1-0.3-1.3-0.8c-0.2-0.4-0.1-0.9,0.1-1.2c0.3-0.6,1.2-1.4,1.3-1.5l2.4-2.3c0.3-0.3,1.1-1.1,1.3-1.6
			c0-0.1,0.1-0.1,0.1-0.2c0.1-0.3,0.2-0.5,0.2-0.7C27.3,60.1,26.9,59.4,26.7,59z"/>
	</g>
	<g>
		<path id="path3023-71_1_" inkscape:connector-curvature="0" sodipodi:nodetypes="csssasscsscscsssccsscc" class="st2" d="
			M15.3,70.1c0,0-2.6,4.4-3.8,6.7c-0.4,0.7-0.7,1.5-0.7,2.3c0.1,0.6,0.4,1.2,0.8,1.7c0.4,0.5,0.8,0.8,1.3,1.1c0.5,0.3,1,0.6,1.6,0.7
			c0.7,0.1,1.5,0.1,2.1-0.3c1-0.6,2.2-2.6,2.2-2.6s2-3.2,3.6-5.7c0.3-0.4-0.5-0.6-0.9-0.9c-0.6-0.4-1.5,0.1-1.5,0.1
			s-0.6,0.2-0.8,0.5c-1.1,1.3-2.8,4.5-2.8,4.5s-0.6,1.2-1.3,1.4c-0.4,0.2-0.9-0.1-1.2-0.4c-0.2-0.3-0.3-0.6-0.2-1
			c0.1-0.6,0.9-1.7,0.9-1.7l1.7-2.9c0,0,0.8-1.3,0.9-2.1c0-0.3,0.1-0.8-0.1-1.1c-0.3-0.6-1.4-1.5-1.4-1.5L15.3,70.1z"/>
		<path class="st1" d="M15.2,82.8c-0.3,0-0.5,0-0.8-0.1c-0.6-0.1-1.2-0.5-1.7-0.7c-0.6-0.4-1-0.8-1.4-1.2c-0.3-0.4-0.7-1.1-0.8-1.8
			c-0.1-0.9,0.3-1.7,0.7-2.5c1.2-2.2,3.6-6.4,3.8-6.6l0.5-1.3l0.3,0.2c0.1,0.1,1.1,0.9,1.4,1.6c0.2,0.3,0.1,0.7,0.1,1v0.2
			c-0.1,0.9-0.9,2.1-0.9,2.2l-1.7,2.9c-0.2,0.3-0.8,1.1-0.8,1.6c-0.1,0.3,0,0.6,0.2,0.8c0.3,0.3,0.7,0.4,0.9,0.3
			c0.5-0.2,1-1,1.1-1.3c0.1-0.2,1.7-3.3,2.8-4.6c0.3-0.3,0.9-0.6,0.9-0.6c0.1-0.1,1.1-0.5,1.8,0c0.1,0.1,0.2,0.2,0.4,0.2
			c0.3,0.2,0.6,0.3,0.7,0.6c0.1,0.1,0.1,0.3-0.1,0.4c-1.5,2.5-3.5,5.7-3.6,5.7c-0.1,0.1-1.3,2.1-2.3,2.7
			C16.2,82.7,15.7,82.8,15.2,82.8z M15.8,69.6l-0.3,0.7c-0.1,0.1-2.6,4.5-3.8,6.6c-0.4,0.7-0.7,1.4-0.6,2.2c0.1,0.6,0.4,1.2,0.7,1.6
			c0.3,0.4,0.7,0.7,1.2,1.1c0.4,0.3,0.9,0.6,1.5,0.7c0.5,0.1,1.3,0.2,2-0.2c0.9-0.5,2.1-2.5,2.1-2.5s2.1-3.3,3.6-5.7
			c0-0.1-0.3-0.2-0.4-0.3c-0.2-0.1-0.3-0.2-0.4-0.2c-0.4-0.3-1-0.1-1.3,0.1c-0.2,0.1-0.6,0.3-0.7,0.5c-1.1,1.2-2.7,4.4-2.8,4.5
			c-0.1,0.2-0.7,1.3-1.4,1.5c-0.5,0.2-1.1,0-1.5-0.4c-0.3-0.4-0.3-0.9-0.3-1.2c0.1-0.7,0.8-1.7,0.9-1.8l1.7-2.9
			c0.2-0.4,0.8-1.3,0.9-1.9c0-0.1,0-0.2,0-0.2c0-0.3,0.1-0.6-0.1-0.7C16.6,70.4,16.1,69.9,15.8,69.6z"/>
	</g>
	<g>
		<path id="path3023-154_1_" inkscape:connector-curvature="0" sodipodi:nodetypes="csssasscsscscsssccsscc" class="st2" d="
			M8.1,82.9c0,0-1.5,4.9-2.1,7.4c-0.2,0.8-0.4,1.6-0.1,2.4c0.2,0.6,0.7,1.1,1.1,1.5c0.5,0.4,1,0.6,1.5,0.8c0.6,0.2,1.1,0.3,1.7,0.3
			c0.7-0.1,1.5-0.3,2-0.8c0.9-0.8,1.5-3.1,1.5-3.1s1.2-3.6,2.1-6.4c0.2-0.5-0.6-0.5-1.1-0.6c-0.6-0.3-1.5,0.4-1.5,0.4
			s-0.5,0.4-0.7,0.7c-0.8,1.5-1.6,5.1-1.6,5.1s-0.3,1.3-0.9,1.7c-0.4,0.2-0.9,0.2-1.2-0.1c-0.3-0.2-0.4-0.6-0.5-0.9
			c-0.1-0.6,0.4-1.8,0.4-1.8l1-3.3c0,0,0.5-1.4,0.4-2.2c-0.1-0.3-0.1-0.8-0.3-1c-0.5-0.5-1.7-1.1-1.7-1.1L8.1,82.9z"/>
		<path class="st1" d="M10,95.4c-0.6,0-1.1-0.2-1.6-0.3c-0.7-0.2-1.2-0.5-1.6-0.8c-0.4-0.3-1-0.9-1.2-1.6c-0.3-0.9-0.2-1.7,0.1-2.5
			c0.6-2.4,2-7.1,2.1-7.4L8,81.5l0.3,0.2c0.1,0,1.3,0.6,1.8,1.2c0.2,0.3,0.3,0.6,0.4,1l0.1,0.2c0.2,0.9-0.4,2.3-0.4,2.3l-1,3.2
			c-0.2,0.4-0.5,1.3-0.4,1.7c0.1,0.3,0.2,0.6,0.3,0.7c0.3,0.2,0.7,0.2,1,0.1c0.4-0.3,0.7-1.2,0.8-1.5c0.1-0.2,0.9-3.6,1.7-5.1
			c0.2-0.4,0.7-0.7,0.8-0.8c0.1-0.1,1-0.7,1.7-0.5c0.1,0.1,0.3,0.1,0.4,0.1c0.3,0.1,0.7,0.2,0.8,0.4c0.1,0.1,0.1,0.3,0.1,0.5
			c-0.9,2.8-2.1,6.4-2.1,6.4c-0.1,0.1-0.7,2.4-1.6,3.2c-0.5,0.5-1.3,0.8-2.2,0.8C10.2,95.4,10.1,95.4,10,95.4z M8.5,82.3L8.4,83
			c0,0.1-1.5,5-2.1,7.4c-0.2,0.8-0.3,1.5-0.1,2.2c0.2,0.6,0.7,1.1,1.1,1.3c0.4,0.3,0.9,0.6,1.5,0.7c0.5,0.2,1,0.3,1.6,0.3
			c0.5-0.1,1.3-0.2,1.9-0.7c0.8-0.7,1.4-2.9,1.5-3c0-0.1,1.2-3.7,2.1-6.4c-0.1-0.1-0.3-0.2-0.5-0.2c-0.2-0.1-0.3-0.1-0.5-0.1
			c-0.4-0.2-1,0.2-1.2,0.4c-0.1,0.1-0.5,0.4-0.6,0.6c-0.8,1.5-1.6,5-1.6,5c-0.1,0.2-0.4,1.4-1,1.8c-0.4,0.3-1.1,0.3-1.5-0.1
			c-0.4-0.3-0.5-0.8-0.6-1.1c-0.1-0.7,0.4-1.8,0.4-2l1-3.2c0.2-0.4,0.5-1.5,0.4-2.1c0-0.1,0-0.1-0.1-0.2c-0.1-0.3-0.1-0.6-0.2-0.7
			C9.5,82.9,8.9,82.5,8.5,82.3z"/>
	</g>
	<g>
		<path id="path3023-19_1_" inkscape:connector-curvature="0" sodipodi:nodetypes="csssasscsscscsssccsscc" class="st2" d="
			M4.7,97.6c0,0-0.1,5.2,0,7.7c0,0.8,0.1,1.6,0.6,2.3c0.4,0.5,0.9,0.9,1.5,1.1c0.5,0.2,1.1,0.3,1.7,0.3s1.2,0,1.7-0.2
			c0.7-0.3,1.4-0.7,1.7-1.3c0.6-1,0.6-3.4,0.6-3.4s0.2-3.8,0.3-6.8c0-0.5-0.7-0.3-1.2-0.3c-0.7-0.1-1.3,0.8-1.3,0.8
			s-0.4,0.5-0.5,0.9c-0.4,1.7-0.2,5.3-0.2,5.3s0.1,1.4-0.4,1.9c-0.3,0.3-0.8,0.4-1.2,0.3c-0.3-0.1-0.5-0.4-0.7-0.7
			c-0.3-0.6-0.1-1.9-0.1-1.9l0.1-3.4c0,0,0.1-1.5-0.3-2.2c-0.2-0.3-0.3-0.7-0.6-0.9c-0.6-0.4-1.9-0.6-1.9-0.6L4.7,97.6z"/>
		<path class="st1" d="M8.8,109.2c-0.1,0-0.3,0-0.4,0c-0.7,0-1.3-0.2-1.8-0.4s-1.2-0.6-1.6-1.2c-0.5-0.7-0.6-1.6-0.7-2.5
			c-0.1-2.5,0-7.3,0-7.7l-0.2-1.4l0.4,0.1c0.1,0,1.4,0.3,2,0.6c0.3,0.2,0.5,0.5,0.6,0.8l0.1,0.3c0.4,0.8,0.3,2.3,0.3,2.4l-0.1,3.4
			c-0.1,0.4-0.1,1.4,0.1,1.8c0.1,0.3,0.3,0.5,0.5,0.6c0.3,0.1,0.8,0,0.9-0.2c0.3-0.4,0.4-1.3,0.4-1.7c0-0.2-0.2-3.7,0.2-5.4
			c0.1-0.5,0.5-0.9,0.5-1c0.1-0.1,0.7-1,1.5-0.9c0.1,0,0.3,0,0.4,0c0.3,0,0.7-0.1,0.9,0.2c0.1,0.1,0.2,0.2,0.2,0.4
			c-0.1,2.9-0.3,6.7-0.3,6.8c0,0.1-0.1,2.5-0.7,3.5c-0.4,0.6-1,1.1-1.9,1.4C9.7,109.2,9.2,109.2,8.8,109.2z M4.9,96.9L5,97.6l0,0
			c0,0.1-0.1,5.2,0,7.7c0,0.8,0.1,1.6,0.6,2.2c0.4,0.5,1,0.8,1.4,1c0.5,0.2,1,0.3,1.6,0.3c0.5,0,1.1,0,1.6-0.2
			c0.4-0.2,1.2-0.5,1.6-1.2c0.6-0.9,0.6-3.2,0.6-3.2c0-0.1,0.2-3.9,0.3-6.8c-0.1-0.1-0.4-0.1-0.5-0.1c-0.2,0-0.3,0-0.5,0
			c-0.4-0.1-0.9,0.5-1.1,0.7c-0.1,0.1-0.4,0.5-0.4,0.8c-0.4,1.6-0.2,5.2-0.2,5.3c0,0.2,0.1,1.5-0.5,2c-0.3,0.4-1,0.5-1.5,0.4
			c-0.5-0.2-0.7-0.6-0.8-0.9c-0.3-0.6-0.2-1.9-0.1-2l0.1-3.4c0.1-0.4,0.1-1.6-0.3-2.1C6.9,98,6.9,98,6.8,97.9
			c-0.1-0.2-0.3-0.5-0.4-0.6C6.1,97.2,5.4,97,4.9,96.9z"/>
	</g>
	<g>
		<path id="path3023-320_1_" inkscape:connector-curvature="0" sodipodi:nodetypes="csssasscsscscsssccsscc" class="st2" d="
			M6.4,112.9c0,0,1.7,4.9,2.6,7.2c0.3,0.8,0.7,1.5,1.4,2c0.5,0.4,1.2,0.5,1.8,0.5c0.6,0,1.2-0.1,1.7-0.3c0.6-0.2,1.1-0.4,1.5-0.8
			c0.6-0.5,1-1.1,1.2-1.8c0.3-1.1-0.6-3.4-0.6-3.4s-1.2-3.7-2.1-6.4c-0.2-0.5-0.8,0-1.2,0.1c-0.6,0.2-1,1.2-1,1.2s-0.2,0.6-0.2,1
			c0.2,1.7,1.6,5.1,1.6,5.1s0.5,1.3,0.3,1.9c-0.2,0.4-0.6,0.7-1,0.7c-0.3,0-0.6-0.2-0.9-0.5c-0.4-0.5-0.7-1.7-0.7-1.7l-1.1-3.2
			c0,0-0.4-1.4-1-2c-0.3-0.2-0.5-0.6-0.8-0.6c-0.7-0.2-2,0.1-2,0.1L6.4,112.9z"/>
		<path class="st1" d="M12.2,122.8c-0.1,0-0.1,0-0.1,0c-0.5,0-1.3-0.1-1.9-0.6c-0.8-0.5-1.1-1.3-1.4-2.1c-0.9-2.3-2.5-6.9-2.6-7.2
			l-0.6-1.2l0.4-0.1c0.1,0,1.4-0.3,2.1-0.1c0.3,0.1,0.6,0.4,0.8,0.6l0.2,0.2c0.6,0.6,1.1,2.1,1.1,2.1l1.1,3.2
			c0.1,0.4,0.4,1.3,0.7,1.6c0.2,0.3,0.5,0.4,0.7,0.4c0.4,0,0.7-0.3,0.8-0.5c0.2-0.5-0.2-1.4-0.3-1.7c-0.1-0.2-1.4-3.4-1.7-5.1
			c-0.1-0.5,0.2-1,0.2-1.1c0.1-0.1,0.4-1.2,1.1-1.4c0.1-0.1,0.3-0.1,0.4-0.2c0.3-0.2,0.6-0.3,0.9-0.2c0.1,0.1,0.2,0.2,0.3,0.4
			c0.9,2.8,2.1,6.4,2.1,6.4c0.1,0.1,0.8,2.3,0.6,3.5c-0.2,0.7-0.6,1.4-1.3,2c-0.5,0.4-1.1,0.7-1.6,0.8
			C13.2,122.7,12.7,122.8,12.2,122.8z M6.3,112.1l0.3,0.7c0,0.1,1.7,4.9,2.6,7.2c0.3,0.7,0.6,1.4,1.3,1.9c0.5,0.4,1.2,0.5,1.6,0.5
			c0.5,0,1-0.1,1.6-0.3c0.5-0.2,1-0.4,1.4-0.7c0.4-0.3,1-0.9,1.1-1.7c0.2-1.1-0.6-3.2-0.6-3.2c0-0.1-1.2-3.7-2.1-6.4
			c-0.1-0.1-0.3,0.1-0.5,0.1c-0.2,0.1-0.3,0.2-0.4,0.2c-0.4,0.1-0.7,0.8-0.8,1c-0.1,0.2-0.2,0.6-0.2,0.9c0.2,1.6,1.6,5,1.6,5
			c0.1,0.2,0.5,1.4,0.3,2.1c-0.2,0.5-0.7,0.8-1.2,0.9c-0.5,0-0.9-0.3-1.1-0.5c-0.5-0.5-0.8-1.7-0.8-1.8l-1.1-3.2
			c-0.1-0.4-0.5-1.5-0.9-1.9c-0.1-0.1-0.1-0.1-0.2-0.2c-0.2-0.2-0.4-0.4-0.6-0.4C7.5,112,6.8,112.1,6.3,112.1z"/>
	</g>
	<g>
		<path id="path3023-40_1_" inkscape:connector-curvature="0" sodipodi:nodetypes="csssasscsscscsssccsscc" class="st2" d="
			M12,126.2c0,0,3.2,4,4.9,5.9c0.5,0.6,1.1,1.2,1.9,1.4c0.6,0.2,1.2,0.1,1.8-0.2c0.6-0.2,1-0.5,1.5-0.9c0.5-0.4,0.9-0.8,1.2-1.3
			c0.4-0.6,0.6-1.4,0.5-2.1c-0.2-1.1-1.7-3-1.7-3s-2.3-3-4.1-5.3c-0.3-0.4-0.7,0.3-1.1,0.6c-0.6,0.4-0.5,1.5-0.5,1.5s0,0.6,0.2,0.9
			c0.8,1.5,3.3,4.2,3.3,4.2s0.9,1,0.9,1.7c0,0.4-0.4,0.9-0.7,1c-0.3,0.2-0.7,0.1-1-0.1c-0.6-0.3-1.3-1.4-1.3-1.4l-2.1-2.6
			c0,0-0.9-1.2-1.6-1.5c-0.3-0.2-0.7-0.4-1-0.3c-0.7,0.1-1.8,0.8-1.8,0.8L12,126.2z"/>
		<path class="st1" d="M19.5,133.8c-0.2,0-0.5,0-0.7-0.1c-0.9-0.2-1.5-0.9-2.1-1.5c-1.6-1.8-4.7-5.6-4.9-5.9l-1-0.9l0.3-0.2
			c0.1-0.1,1.2-0.8,1.9-0.9c0.4-0.1,0.7,0.1,1,0.3l0.2,0.1c0.8,0.4,1.7,1.6,1.7,1.6L18,129c0.2,0.3,0.8,1.1,1.2,1.3
			c0.3,0.2,0.6,0.2,0.7,0.1c0.3-0.2,0.6-0.5,0.6-0.8c0-0.5-0.6-1.3-0.8-1.5c-0.1-0.1-2.5-2.7-3.3-4.3c-0.2-0.4-0.2-1-0.2-1.1
			c0-0.1-0.1-1.2,0.6-1.7c0.1-0.1,0.2-0.2,0.3-0.3c0.3-0.2,0.5-0.5,0.8-0.5c0.1,0,0.3,0.1,0.4,0.2c1.8,2.3,4.1,5.3,4.1,5.3
			c0.1,0.1,1.6,1.9,1.7,3.1c0.1,0.7-0.1,1.5-0.5,2.3c-0.3,0.6-0.8,1-1.2,1.3c-0.6,0.4-1.1,0.7-1.6,0.9
			C20.4,133.7,19.9,133.8,19.5,133.8z M11.7,125.5l0.5,0.5c0.1,0.1,3.2,4,4.9,5.9c0.5,0.6,1.1,1.1,1.8,1.3c0.6,0.2,1.3,0,1.7-0.2
			c0.5-0.2,0.9-0.4,1.4-0.8c0.4-0.3,0.9-0.7,1.1-1.2c0.2-0.4,0.6-1.2,0.5-2c-0.2-1.1-1.6-2.8-1.6-2.9c-0.1-0.1-2.4-3.1-4.1-5.3
			c-0.1,0-0.3,0.2-0.4,0.3c-0.1,0.1-0.3,0.2-0.4,0.3c-0.4,0.3-0.4,1-0.4,1.3c0,0.2,0.1,0.6,0.2,0.8c0.8,1.5,3.2,4.1,3.2,4.1
			c0.1,0.1,1,1.1,1,1.9c0,0.5-0.4,1-0.9,1.2c-0.3,0.2-0.8,0.1-1.2-0.1c-0.6-0.3-1.3-1.3-1.4-1.5l-2.1-2.6c-0.3-0.4-1-1.2-1.5-1.5
			c-0.1,0-0.1-0.1-0.2-0.1c-0.2-0.1-0.5-0.3-0.7-0.2C12.8,125,12.1,125.3,11.7,125.5z"/>
	</g>
	<g>
		<path id="path3023-01_1_" inkscape:connector-curvature="0" sodipodi:nodetypes="csssasscsscscsssccsscc" class="st2" d="
			M60.4,159.7c0,0,5,0.8,7.5,1.1c0.8,0.1,1.6,0.1,2.4-0.3c0.6-0.3,1-0.8,1.3-1.3c0.3-0.5,0.5-1.1,0.6-1.6c0.1-0.6,0.2-1.2,0.1-1.7
			c-0.2-0.7-0.5-1.5-1-1.9c-0.9-0.8-3.2-1.1-3.2-1.1s-3.7-0.7-6.6-1.2c-0.5-0.1-0.4,0.7-0.5,1.1c-0.2,0.7,0.6,1.4,0.6,1.4
			s0.4,0.4,0.8,0.6c1.6,0.6,5.2,0.9,5.2,0.9s1.3,0.2,1.8,0.7c0.3,0.3,0.3,0.9,0.2,1.2c-0.2,0.3-0.5,0.5-0.8,0.6
			c-0.6,0.2-1.9-0.2-1.9-0.2l-3.3-0.5c0,0-1.5-0.3-2.2-0.1c-0.3,0.1-0.7,0.2-0.9,0.5c-0.4,0.5-0.8,1.8-0.8,1.8H60.4z"/>
		<path class="st1" d="M68.8,161.1c-0.3,0-0.6-0.1-0.9-0.1c-2.4-0.3-7.2-1.1-7.5-1.1H59l0.1-0.3c0-0.1,0.4-1.4,0.9-1.9
			c0.2-0.3,0.6-0.4,0.9-0.5l0.2-0.1c0.8-0.3,2.3,0.1,2.3,0.1l3.3,0.5c0.4,0.1,1.3,0.3,1.8,0.2c0.3-0.1,0.6-0.3,0.6-0.4
			c0.2-0.3,0.1-0.8-0.1-1c-0.3-0.4-1.3-0.6-1.6-0.6c-0.2,0-3.7-0.4-5.2-1c-0.4-0.2-0.8-0.6-0.9-0.7c-0.1-0.1-0.8-0.9-0.7-1.6
			c0.1-0.1,0.1-0.3,0.1-0.4c0-0.3,0.1-0.7,0.3-0.9c0.1-0.1,0.2-0.2,0.4-0.1c2.8,0.5,6.5,1.2,6.6,1.2c0.1,0,2.4,0.4,3.3,1.2
			c0.6,0.5,0.9,1.2,1.1,2.1c0.2,0.6,0.1,1.3-0.1,1.8c-0.1,0.7-0.3,1.3-0.6,1.7c-0.3,0.5-0.7,1.1-1.4,1.4
			C69.9,161,69.3,161.1,68.8,161.1z M59.7,159.5h0.7c0.1,0,5.1,0.8,7.5,1.1c0.8,0.1,1.5,0.1,2.2-0.3c0.6-0.3,0.9-0.8,1.2-1.2
			c0.3-0.4,0.4-0.9,0.5-1.6c0.1-0.5,0.2-1.1,0.1-1.6c-0.1-0.5-0.4-1.3-1-1.8c-0.8-0.7-3.1-1-3.1-1.1c-0.1,0-3.8-0.7-6.6-1.2
			c-0.1,0.1-0.1,0.3-0.1,0.5c0,0.2,0,0.3-0.1,0.5c-0.1,0.4,0.4,1,0.6,1.2c0.1,0.1,0.4,0.4,0.7,0.5c1.5,0.6,5.1,0.9,5.1,0.9
			c0.2,0,1.5,0.2,1.9,0.8c0.3,0.4,0.4,1,0.2,1.5c-0.2,0.3-0.5,0.6-1,0.7c-0.7,0.2-1.8-0.1-2-0.2l-3.3-0.5c-0.4-0.1-1.5-0.3-2.1-0.1
			c-0.1,0-0.1,0.1-0.2,0.1c-0.3,0.1-0.5,0.2-0.7,0.3C60.1,158.3,59.9,159,59.7,159.5z"/>
	</g>
	<g>
		<path id="path3023-87_1_" inkscape:connector-curvature="0" sodipodi:nodetypes="csssasscsscscsssccsscc" class="st2" d="
			M47,154.2c0,0,4.8,1.7,7.2,2.4c0.8,0.2,1.6,0.4,2.4,0.2c0.6-0.2,1.1-0.6,1.5-1.1c0.4-0.5,0.6-1,0.8-1.5c0.2-0.6,0.4-1.1,0.4-1.7
			c-0.1-0.7-0.2-1.5-0.7-2.1c-0.7-0.9-3-1.7-3-1.7s-3.6-1.3-6.3-2.3c-0.5-0.2-0.5,0.6-0.7,1c-0.3,0.6,0.4,1.5,0.4,1.5
			s0.3,0.5,0.7,0.7c1.5,0.9,4.9,1.8,4.9,1.8s1.3,0.4,1.6,1c0.2,0.4,0.2,0.9-0.1,1.2c-0.2,0.3-0.6,0.4-0.9,0.4
			c-0.6,0.1-1.8-0.5-1.8-0.5l-3.2-1.1c0,0-1.4-0.6-2.2-0.5c-0.3,0.1-0.8,0.1-1,0.3c-0.5,0.5-1.1,1.7-1.1,1.7L47,154.2z"/>
		<path class="st1" d="M55.7,157.1c-0.6,0-1.1-0.2-1.6-0.3c-2.3-0.7-6.9-2.3-7.2-2.4l-1.3-0.3l0.2-0.3c0.1-0.1,0.7-1.3,1.2-1.7
			c0.3-0.2,0.7-0.3,1-0.3H48c0.9-0.2,2.2,0.4,2.3,0.5l3.2,1.1c0.4,0.2,1.3,0.5,1.7,0.5c0.3-0.1,0.6-0.2,0.7-0.3
			c0.2-0.3,0.2-0.7,0.1-1c-0.3-0.4-1.2-0.8-1.5-0.9c-0.2-0.1-3.6-1-5-1.9c-0.4-0.2-0.7-0.7-0.7-0.8c-0.1-0.1-0.7-1-0.4-1.7
			c0.1-0.1,0.1-0.3,0.1-0.4c0.1-0.3,0.2-0.7,0.4-0.8c0.1-0.1,0.3-0.1,0.5,0c2.7,1,6.2,2.3,6.3,2.3c0.1,0.1,2.3,0.8,3.1,1.7
			c0.5,0.6,0.7,1.3,0.8,2.2c0,0.7-0.2,1.3-0.4,1.8c-0.3,0.7-0.5,1.2-0.9,1.6c-0.4,0.4-0.9,1-1.6,1.2C56.4,157.1,56,157.1,55.7,157.1
			z M46.4,153.9l0.7,0.2c0.1,0,4.8,1.7,7.2,2.4c0.7,0.2,1.5,0.4,2.2,0.2c0.6-0.2,1.1-0.7,1.4-1c0.3-0.4,0.6-0.9,0.8-1.4
			c0.2-0.5,0.4-1.1,0.3-1.6c0-0.5-0.1-1.3-0.6-1.9c-0.7-0.8-2.8-1.6-2.9-1.6s-3.6-1.4-6.3-2.3c-0.1,0.1-0.2,0.3-0.2,0.5
			s-0.1,0.3-0.2,0.5c-0.2,0.4,0.2,1.1,0.4,1.3c0.1,0.2,0.4,0.5,0.6,0.6c1.4,0.9,4.9,1.8,4.9,1.8c0.2,0.1,1.4,0.4,1.8,1.1
			c0.3,0.4,0.2,1.1-0.1,1.5c-0.2,0.3-0.6,0.5-1.1,0.5c-0.7,0.1-1.8-0.5-1.9-0.5l-3.2-1.1c-0.4-0.2-1.5-0.5-2.1-0.4
			c-0.1,0-0.1,0-0.2,0c-0.3,0.1-0.6,0.1-0.7,0.2C47,152.8,46.6,153.4,46.4,153.9z"/>
	</g>
	<g>
		<path id="path3023-63_1_" inkscape:connector-curvature="0" sodipodi:nodetypes="csssasscsscscsssccsscc" class="st2" d="
			M22,137.7c0,0,3.7,3.5,5.6,5.2c0.6,0.5,1.3,1,2.1,1.1c0.6,0.1,1.2-0.1,1.8-0.4c0.5-0.3,1-0.7,1.4-1.1c0.4-0.4,0.8-0.9,1-1.4
			c0.3-0.7,0.4-1.5,0.2-2.2c-0.3-1.1-2.1-2.7-2.1-2.7s-2.7-2.7-4.8-4.7c-0.4-0.4-0.7,0.4-1,0.7c-0.5,0.5-0.3,1.5-0.3,1.5
			s0.1,0.6,0.3,0.9c1,1.4,3.8,3.7,3.8,3.7s1,0.9,1.1,1.6c0.1,0.4-0.3,0.9-0.6,1.1c-0.3,0.2-0.7,0.1-1,0c-0.6-0.2-1.5-1.2-1.5-1.2
			l-2.5-2.3c0,0-1-1.1-1.8-1.3c-0.3-0.1-0.7-0.3-1-0.2c-0.7,0.2-1.7,1.1-1.7,1.1L22,137.7z"/>
		<path class="st1" d="M30,144.3c-0.1,0-0.2,0-0.3,0c-0.9-0.1-1.6-0.6-2.2-1.2c-1.8-1.6-5.4-4.9-5.6-5.2l-1.1-0.8l0.3-0.2
			c0.1-0.1,1.1-0.9,1.8-1.1c0.3-0.1,0.7,0,1,0.1l0.2,0.1c0.8,0.3,1.9,1.3,1.9,1.4l2.5,2.3c0.3,0.3,0.9,1,1.4,1.1
			c0.3,0.1,0.6,0.1,0.8,0c0.3-0.2,0.5-0.6,0.5-0.9c-0.1-0.5-0.8-1.2-1-1.4c-0.1-0.1-2.9-2.4-3.8-3.8c-0.3-0.4-0.4-1-0.4-1
			c0-0.1-0.2-1.2,0.4-1.7c0.1-0.1,0.2-0.2,0.3-0.3c0.2-0.3,0.4-0.5,0.7-0.6c0.1,0,0.3,0,0.4,0.2c2.1,2,4.8,4.7,4.8,4.7
			c0.1,0.1,1.8,1.7,2.1,2.8c0.2,0.7,0.1,1.5-0.2,2.3c-0.3,0.6-0.7,1.1-1.1,1.5c-0.5,0.5-1,0.9-1.4,1.1C31.2,144,30.6,144.3,30,144.3
			z M21.6,137.1l0.6,0.4c0.1,0.1,3.8,3.5,5.6,5.2c0.6,0.5,1.2,1,2,1.1c0.6,0.1,1.2-0.2,1.6-0.4c0.4-0.2,0.9-0.6,1.3-1
			c0.4-0.4,0.7-0.8,0.9-1.3c0.2-0.4,0.4-1.2,0.2-2c-0.3-1-2-2.6-2-2.6s-2.8-2.7-4.8-4.7c-0.1,0-0.3,0.2-0.4,0.4
			c-0.1,0.1-0.2,0.3-0.3,0.4c-0.3,0.3-0.3,1.1-0.2,1.3c0,0.2,0.1,0.6,0.3,0.8c1,1.4,3.7,3.6,3.7,3.7c0.1,0.1,1.1,1,1.2,1.7
			c0.1,0.5-0.3,1.1-0.7,1.3c-0.3,0.2-0.7,0.2-1.2,0.1c-0.6-0.2-1.5-1.2-1.6-1.3l-2.5-2.3c-0.3-0.3-1.1-1.1-1.7-1.2
			c-0.1,0-0.1-0.1-0.2-0.1c-0.3-0.1-0.5-0.2-0.7-0.1C22.6,136.5,22,136.9,21.6,137.1z"/>
	</g>
	<g>
		<path id="path3023-03_1_" inkscape:connector-curvature="0" sodipodi:nodetypes="csssasscsscscsssccsscc" class="st2" d="
			M34.1,147.1c0,0,4.5,2.5,6.7,3.6c0.7,0.4,1.5,0.7,2.3,0.6c0.6-0.1,1.2-0.4,1.6-0.8c0.4-0.4,0.8-0.9,1.1-1.4
			c0.3-0.5,0.6-1.1,0.6-1.6c0.1-0.7,0.1-1.5-0.3-2.2c-0.6-1-2.7-2.1-2.7-2.1s-3.3-1.9-5.8-3.4c-0.4-0.3-0.6,0.5-0.8,0.9
			c-0.4,0.6,0.1,1.5,0.1,1.5s0.2,0.6,0.5,0.8c1.3,1.1,4.6,2.7,4.6,2.7s1.2,0.6,1.4,1.2c0.2,0.4,0,0.9-0.3,1.2
			c-0.2,0.3-0.6,0.3-0.9,0.3c-0.6-0.1-1.7-0.8-1.7-0.8l-2.9-1.6c0,0-1.3-0.8-2.1-0.8c-0.3,0-0.8-0.1-1,0.1c-0.6,0.4-1.4,1.4-1.4,1.4
			L34.1,147.1z"/>
		<path class="st1" d="M42.8,151.6c-0.8,0-1.4-0.3-2.1-0.6c-2.2-1.1-6.4-3.5-6.7-3.6l-1.3-0.5l0.2-0.3c0.1-0.1,0.9-1.2,1.5-1.5
			c0.3-0.2,0.7-0.2,1-0.2h0.2c0.9,0,2.1,0.8,2.2,0.9l2.9,1.6c0.3,0.2,1.1,0.7,1.6,0.8c0.3,0.1,0.6-0.1,0.7-0.2
			c0.3-0.3,0.4-0.7,0.3-1c-0.2-0.5-1-1-1.3-1.1c-0.2-0.1-3.3-1.6-4.6-2.7c-0.4-0.3-0.6-0.8-0.6-0.9s-0.5-1.1-0.1-1.8
			c0.1-0.1,0.1-0.3,0.2-0.4c0.2-0.3,0.3-0.6,0.6-0.7c0.1-0.1,0.3-0.1,0.4,0.1c2.5,1.5,5.8,3.4,5.8,3.4c0.1,0.1,2.2,1.2,2.7,2.2
			c0.4,0.6,0.5,1.4,0.4,2.3c-0.1,0.7-0.4,1.2-0.7,1.7c-0.4,0.6-0.7,1.1-1.1,1.4c-0.4,0.4-1,0.8-1.8,0.9
			C43,151.5,42.9,151.6,42.8,151.6z M33.6,146.6l0.7,0.3c0.1,0,4.5,2.5,6.7,3.6c0.7,0.4,1.4,0.7,2.2,0.6c0.6-0.1,1.2-0.5,1.5-0.8
			c0.4-0.3,0.7-0.7,1-1.3c0.3-0.5,0.5-1,0.6-1.5c0.1-0.5,0.1-1.3-0.3-2c-0.5-0.9-2.5-2-2.6-2s-3.3-2-5.8-3.4c-0.1,0-0.2,0.3-0.3,0.4
			s-0.2,0.3-0.2,0.4c-0.2,0.4,0,1.1,0.1,1.3c0.1,0.2,0.3,0.6,0.5,0.7c1.2,1.1,4.5,2.6,4.5,2.6c0.2,0.1,1.3,0.7,1.6,1.4
			c0.2,0.5,0,1.1-0.4,1.5c-0.3,0.3-0.7,0.4-1.1,0.3c-0.7-0.1-1.7-0.8-1.8-0.8l-2.9-1.6c-0.4-0.2-1.4-0.8-1.9-0.8c-0.1,0-0.1,0-0.2,0
			c-0.3,0-0.6-0.1-0.7,0.1C34.4,145.7,33.9,146.3,33.6,146.6z"/>
	</g>
	<g>
		<path id="path4170_1_" inkscape:connector-curvature="0" sodipodi:nodetypes="cccsssscc" class="st2" d="M34.6,133.2l162.7-36.5
			L59.2,47.2c0,0,1.1,8.7,1.2,13.1c0.2,7.6,0.1,15.3-0.7,22.9c-0.5,5.3-1.5,10.6-3,15.8c-1.8,6.2-4,12.5-7.4,18
			c-2.5,4-9,10.6-9,10.6L34.6,133.2z"/>
		<path d="M33.8,133.6l6.3-6.1c0.1-0.1,6.5-6.6,8.9-10.6c3.7-6,5.9-12.7,7.4-18c1.4-4.9,2.4-10.2,3-15.7c0.7-7.2,1-14.9,0.7-22.9
			C60,56,59,47.3,59,47.3l-0.1-0.4l139.3,49.9l-0.9,0.2L33.8,133.6z M59.5,47.6c0.2,1.8,1,8.9,1.2,12.7c0.3,8,0,15.7-0.7,23
			c-0.6,5.6-1.6,10.9-3,15.8c-1.5,5.3-3.8,12-7.5,18.1c-2.5,4-8.9,10.6-9,10.7l-5,4.9l160.9-36.1L59.5,47.6z"/>
	</g>
	<g>
		<path id="path4266_1_" inkscape:connector-curvature="0" sodipodi:nodetypes="ccccc" class="st2" d="M27.1,144l3.6,1.5L59.9,43.9
			l-3.4-1L27.1,144z"/>
		<path d="M30.8,145.8l-4-1.6l0.1-0.2L56.3,42.6l3.9,1.1L60.1,44L30.8,145.8z M27.4,143.9l3.1,1.3l29.1-101l-2.9-0.9L27.4,143.9z"/>
	</g>
	<g>
		<path id="path4290_1_" inkscape:connector-curvature="0" sodipodi:nodetypes="ccccccc" class="st2" d="M54.7,42.5l7.1,2.2
			c0,0,0.4-1.8,0.1-2.9c-1-1.9-2.6-2.5-4.6-2.1c-1,0.3-1.8,0.8-2.3,1.7C54.8,41.7,54.7,42.5,54.7,42.5L54.7,42.5z"/>
		<path d="M62,45l-7.6-2.3v-0.2c0-0.1,0.1-0.9,0.3-1.3c0.5-0.9,1.3-1.5,2.4-1.8c2.3-0.5,4,0.4,4.9,2.2c0.4,1.2,0,3,0,3.1L62,45z
			 M55,42.4l6.7,2.1c0.1-0.6,0.3-1.8,0-2.5c-0.9-1.7-2.3-2.3-4.3-1.9c-1,0.3-1.7,0.8-2.1,1.5C55.1,41.7,55,42.1,55,42.4z"/>
	</g>
	<g>
		<path id="path4292_1_" inkscape:connector-curvature="0" sodipodi:nodetypes="casccccc" d="M59.4,40c0,0,0.1,0.9,0.1,1.3
			c-0.1,0.8,0,2-0.3,2.5c-0.2,0.4-0.4,0.1-0.4,0.1l2.9,0.8l0.2-2L61,40.8L59.4,40z"/>
		<path d="M61.9,44.8l-2.8-0.8c-0.1,0-0.1,0.1-0.2,0.1c-0.3,0-0.4-0.2-0.4-0.3l-0.3-0.6l0.7,0.2c0.2-0.4,0.2-1.2,0.2-1.9v-0.4
			c0-0.4-0.1-1.3-0.1-1.3L59,39.6l2.2,1l0.9,1.9L61.9,44.8z M59.5,43.7l2,0.6l0.2-1.6L60.9,41l-1.2-0.6c0,0.3,0.1,0.7,0,0.9v0.4
			C59.7,42.4,59.6,43.2,59.5,43.7z"/>
	</g>
	<g>
		<path id="path4324_1_" inkscape:connector-curvature="0" sodipodi:nodetypes="cccccccccc" d="M111.2,79.5l1.6,27.4h7.4l16.1-27.5
			l-10.4,0.1l-4,6.9h3.5l-6.4,9.3l-0.6-16.3L111.2,79.5z"/>
		<path d="M112.6,107.2v-0.3l-1.7-27.7l7.8-0.1l0.5,15.8l5.7-8.3h-3.5l4.3-7.4l11-0.1l-16.4,28H112.6z M111.5,79.8l1.6,26.8h7
			l15.8-27l-9.8,0.1l-3.7,6.4h3.6l-7.1,10.4l-0.6-16.9L111.5,79.8z"/>
	</g>
	<g>
		<path id="path4326_1_" inkscape:connector-curvature="0" d="M69,79.8l-3,6.2l3.7,0.1l-6,20.4c1,0.1,7.2,0,7.2,0l2.4-8.4l6.2,0.2
			c0,0,2.4-0.4,3.5-0.9c1.4-0.7,2.5-1.7,3.5-2.9c1-1.2,1.8-2.6,2.3-4.1c0.6-1.7,0.9-3.4,0.7-5.2c-0.1-1-0.4-2.1-1-2.9
			c-0.8-1.1-0.3-0.5-1.4-1.4c-0.5-0.4-2.1-1.1-2.7-1.1C79.8,79.9,69,79.8,69,79.8z M78.5,85.9c0.9,0,1.9,0,2.5,0
			c0.6,0.1,0.8,0.5,1.1,1c0.4,0.6,0.5,1.4,0.3,2c-0.1,0.6-0.6,1.1-1,1.5c-0.5,0.6-1.8,1.2-1.8,1.2L75,91.6l1.9-5.7
			C76.9,85.9,77.6,85.9,78.5,85.9z"/>
		<path d="M66,106.7c-1.1,0-2,0-2.3-0.1h-0.3l6-20.4l-3.8-0.1l3.3-6.6h0.2c0.1,0,10.8,0.1,15.5,0.1l0,0c0.7,0,2.4,0.7,2.9,1.1
			c0.3,0.2,0.4,0.3,0.6,0.4c0.3,0.2,0.3,0.3,0.5,0.5c0.1,0.1,0.2,0.3,0.4,0.5c0.6,0.7,0.9,1.7,1,3c0.2,1.6-0.1,3.4-0.7,5.3
			c-0.5,1.5-1.3,2.9-2.4,4.2c-1.1,1.3-2.3,2.3-3.6,2.9c-1.1,0.6-3.5,0.9-3.6,0.9l-6.1-0.1l-2.4,8.4H71
			C70.8,106.7,68.1,106.7,66,106.7z M64.1,106.2c1.4,0.1,5.7,0,6.7,0l2.4-8.4l6.4,0.2c0,0,2.4-0.4,3.4-0.9c1.2-0.6,2.4-1.6,3.4-2.8
			c1-1.2,1.8-2.6,2.3-4c0.6-1.8,0.9-3.5,0.7-5c-0.1-1.2-0.4-2.1-0.9-2.7c-0.2-0.3-0.3-0.4-0.4-0.6c-0.2-0.2-0.2-0.2-0.4-0.4
			c-0.1-0.1-0.3-0.2-0.6-0.4c-0.5-0.4-2-1-2.6-1l0,0c-4.4,0.1-14-0.1-15.4-0.1l-2.8,5.7l3.7,0.1L64.1,106.2z M79.7,91.9l-5-0.1
			l2.1-6.2h0.2c0,0,0.7,0,1.6,0c1,0,1.9,0,2.5,0c0.7,0.1,0.9,0.5,1.1,0.9c0.1,0.1,0.1,0.2,0.2,0.3c0.4,0.6,0.5,1.5,0.3,2.2
			c-0.2,0.7-0.6,1.2-1,1.6C81,91.2,79.8,91.9,79.7,91.9L79.7,91.9z M75.4,91.4l4.2,0.1c0.3-0.2,1.2-0.7,1.7-1.1
			c0.4-0.4,0.8-0.9,0.9-1.4c0.2-0.7,0.1-1.3-0.3-1.9c-0.1-0.1-0.1-0.2-0.2-0.3c-0.3-0.5-0.4-0.6-0.7-0.6c-0.6-0.1-1.6,0-2.5,0V86
			v0.3c-0.6,0-1.1,0-1.4,0L75.4,91.4z"/>
	</g>
	<g>
		<path id="path4331_1_" inkscape:connector-curvature="0" sodipodi:nodetypes="ccssssccssssssccccssaasssssssscccc" d="M110.5,81.6
			l-3.6,6.2c0,0-2.4-1.5-3.7-2.2c-1.1-0.6-2.5-0.8-3.2-0.5c-0.5,0.2-1.2,0.6-1.5,1c-0.3,0.6-0.4,1.3-0.2,1.9c0.4,1,1.3,1.7,2.1,2.3
			c2.8,1.4,4.7,3.4,5.2,6.4c0.2,1-0.2,2-0.5,3c-0.4,1.2-1.1,2.2-1.9,3.1c-1.2,1.4-2.8,2.4-4.3,3.3c-0.9,0.5-1.9,0.9-2.9,1.1
			c-1.1,0.3-2.2,0.4-3.4,0.3c-1.3-0.2-2.5-0.6-3.7-1.2c-1.2-0.6-3.2-2.5-3.2-2.5l-1.7-1.9l4.8-5l1.9,2c0,0,1.2,1.1,1.9,1.4
			c0.7,0.3,1.2,0.3,1.8,0.2c0.7-0.1,1.5-0.5,2-1c0.5-0.4,0.9-1,1-1.6c0.1-0.9-0.5-1.6-1-2.3c-0.8-1-2.2-1.3-3.2-2.2
			c-0.7-0.6-1.4-1.3-1.8-2.1c-0.5-1-0.7-2.2-0.8-3.3c-0.1-1.1,0-2.2,0.4-3.2c0.4-1,1.1-2,1.9-2.7c1-0.9,2.1-1.7,3.3-2.3
			c1-0.5,2.2-0.9,3.2-1.1c0.9-0.2,2.1-0.1,2.9,0.1c1.2,0.3,2.1,1,3,1.7l1-1.4L110.5,81.6z"/>
		<path d="M93.6,107.6c-0.3,0-0.6,0-0.9-0.1c-1.3-0.2-2.6-0.6-3.8-1.2c-1.2-0.7-3.2-2.4-3.2-2.5l-1.9-2.1l5.1-5.3l2.1,2.1
			c0,0,1.2,1.1,1.8,1.4c0.7,0.3,1.2,0.3,1.7,0.2c0.8-0.1,1.4-0.4,1.9-0.9c0.4-0.4,0.8-0.9,0.9-1.5c0.1-0.7-0.5-1.5-1-2.1
			c-0.4-0.6-1.1-0.9-1.7-1.2c-0.5-0.3-1-0.6-1.5-0.9c-0.7-0.6-1.4-1.3-1.9-2.2c-0.5-0.9-0.7-2-0.8-3.4c-0.1-1-0.1-2.2,0.5-3.3
			c0.4-1,1.2-2,1.9-2.8c1-0.9,2.2-1.7,3.4-2.3c1.1-0.6,2.3-0.9,3.3-1.1c0.9-0.1,2.1-0.1,3,0.1c1.1,0.3,2,1,2.9,1.6l0.9-1.4l4.5,2.5
			l-3.9,6.6l-0.2-0.2c0,0-2.4-1.5-3.7-2.2c-1-0.5-2.4-0.7-3-0.5c-0.5,0.2-1.1,0.5-1.3,0.9c-0.3,0.5-0.3,1.2-0.2,1.7
			c0.3,0.9,1.1,1.5,1.9,2.1l0.1,0.1c3.1,1.5,4.9,3.8,5.3,6.6c0.2,1.1-0.2,2.2-0.5,3.1c-0.5,1.2-1.1,2.3-1.9,3.2
			c-1.1,1.2-2.5,2.3-4.4,3.4c-1,0.5-1.9,0.9-2.9,1.1C95.2,107.5,94.4,107.6,93.6,107.6z M84.6,101.9l1.5,1.7c0,0,2,1.8,3.1,2.4
			s2.4,1,3.6,1.2c1,0.1,2,0.1,3.3-0.3c1-0.2,1.9-0.6,2.8-1.1c1.9-1.1,3.3-2.1,4.3-3.3c0.8-0.9,1.4-1.9,1.8-3.1
			c0.3-0.9,0.6-1.9,0.5-2.9c-0.4-2.7-2.1-4.8-5-6.2l-0.2-0.1c-0.8-0.6-1.7-1.3-2.1-2.3c-0.2-0.7-0.2-1.4,0.2-2.1
			c0.3-0.6,1.2-1,1.6-1.2c0.9-0.3,2.3,0,3.4,0.6c1.1,0.6,2.9,1.7,3.5,2.1l3.4-5.7l-3.7-2.1l-1,1.4l-0.4-0.3
			c-0.9-0.7-1.7-1.3-2.8-1.6c-0.9-0.2-2-0.3-2.8-0.1c-1,0.2-2.1,0.5-3.1,1c-1.2,0.6-2.3,1.4-3.2,2.3c-0.7,0.7-1.4,1.7-1.8,2.6
			c-0.5,1-0.5,2.2-0.4,3.1c0.1,1.3,0.3,2.4,0.7,3.2c0.4,0.8,1.2,1.5,1.8,2c0.4,0.4,0.9,0.6,1.4,0.9c0.7,0.4,1.4,0.7,1.9,1.4
			c0.6,0.8,1.1,1.6,1.1,2.5c-0.1,0.8-0.6,1.4-1,1.8c-0.6,0.5-1.3,0.9-2.1,1c-0.5,0.1-1.2,0.2-2-0.2c-0.7-0.3-1.9-1.4-1.9-1.5
			L89,97.3L84.6,101.9z"/>
	</g>
	<g>
		<path id="path4266-0_1_" inkscape:connector-curvature="0" sodipodi:nodetypes="ccccc" d="M28.7,144.4l1,0.7L58.8,43.6l-0.9-0.1
			L28.7,144.4z"/>
		<path d="M29.8,145.5l-1.4-1l0.1-0.2L57.7,43.3l1.4,0.2L59,43.8L29.8,145.5z M29,144.3l0.5,0.4l29-100.8l-0.4-0.1L29,144.3z"/>
	</g>
</g>
</svg>
