<?xml version="1.0" encoding="utf-8"?>
<!-- Generator: Adobe Illustrator 21.1.0, SVG Export Plug-In . SVG Version: 6.00 Build 0)  -->
<svg version="1.1" id="Layer_1" xmlns="http://www.w3.org/2000/svg" xmlns:xlink="http://www.w3.org/1999/xlink" x="0px" y="0px"
	 viewBox="0 0 200 200" style="enable-background:new 0 0 200 200;" xml:space="preserve">
<style type="text/css">
	.st0{fill:#036784;}
	.st1{fill:#0088B0;}
	.st2{fill:#FFFFFF;}
	.st3{fill:#CA6B30;}
	.st4{fill:#F1BA28;}
	.st5{fill:#CA6A2F;}
	.st6{fill:#DEA031;}
	.st7{fill:#F8BE25;}
	.st8{fill:#254645;}
</style>
<g>
	<path id="path10" class="st0" d="M100,17.1c22.1,0,40.1,17.9,40.1,40.1s-18,40.1-40.1,40.1S59.9,79.3,59.9,57.1S77.9,17.1,100,17.1
		z"/>
	<path id="path12" class="st1" d="M100,17.9c21.7,0,39.2,17.6,39.2,39.2c0,21.6-17.6,39.2-39.2,39.2S60.8,78.8,60.8,57.1
		C60.8,35.5,78.3,17.9,100,17.9z"/>
	<path id="path14" class="st2" d="M100,17.9c5.5,0,10.8,1.1,15.6,3.2l-5.5,5.5c-3.1-1.7-6.7-2.5-10.2-2.5c-3.2,0-6.5,0.7-9.9,2.5
		l-5.5-5.5C89.2,19.1,94.5,17.9,100,17.9z M116.3,21.5c9.5,4.3,16.9,12.3,20.5,22.1l-8.2,6.5l-12.6-8.7l-5.5-14.2L116.3,21.5z
		 M135.3,74.2C129,87.3,115.6,96.4,100,96.4c-15.5,0-29-9-35.3-22.1l6.8-5.3l13.7,9.6l0.4-0.6L71.5,68c-1.1-2.9-1.5-5.7-1.6-8.4
		c-0.1-3.1,0.7-6.4,1.7-8.8l12.7-8.7l15.3,8.7v14h0.8V50.8l15.3-8.8l12.6,8.7c1,2.4,1.8,5.7,1.8,8.8c0,2.7-0.5,5.9-1.6,8.4L115,77.5
		l0.4,0.6l13.1-9.3L135.3,74.2z M63.2,43.5c3.6-9.8,11.1-17.8,20.5-22.1l5.7,5.7L84,41.4l-12.6,8.7L63.2,43.5z"/>
	<path id="path16" class="st3" d="M79.7,74.1c5.3-3.8,5.1-7.8,4.2-10.2c-1.7-4.5-6.3-6.3-10.7-4.3c-1.4,0.6-2.3-0.8-1.5-1.9
		c4-5.2,9.4-7,14-7c2.2,0,4.3,0.5,6.2,1.2c3.3,1.3,6.1,3.7,8.2,6.9c2.1-3.1,4.9-5.5,8.2-6.9c1.9-0.8,4-1.2,6.2-1.2
		c4.6,0,10,1.7,14,7c0.8,1.1-0.1,2.5-1.5,1.8c-4.4-2-9-0.1-10.7,4.4c-0.9,2.4-1.1,6.5,4.2,10.2c-5.1,0.1-10.3,0.1-15.5,0.2l0,0.1
		c-1.6,0-3.2,0-4.9-0.1c-1.6,0-3.3,0-4.9,0.1l0-0.1C89.9,74.3,84.7,74.2,79.7,74.1z"/>
	<path class="st4" d="M104.4,74l0-0.1c4.9-0.1,9.8-0.1,14.7-0.2c-1.6-1.3-3-3-3.5-5.1c-0.5-1.6-0.4-3.3,0.2-4.9
		c1.8-4.7,6.7-6.7,11.3-4.6c1,0.4,1.5-0.4,0.9-1.1c-3.3-4.3-8.1-6.8-13.6-6.8c-2.1,0-4.1,0.4-6.1,1.2c-0.7,0.3-1.4,0.6-2.1,1.1
		c-2.6,1.5-4.6,3.7-6.2,6.2c-1.6-2.5-3.6-4.7-6.2-6.2c-0.7-0.4-1.4-0.8-2.1-1.1c-1.9-0.8-4-1.2-6.1-1.2c-5.5-0.1-10.3,2.5-13.6,6.8
		c-0.6,0.7,0,1.6,1,1.2c4.6-2,9.5-0.1,11.3,4.6c0.6,1.6,0.7,3.3,0.2,4.9c-0.6,2-1.9,3.7-3.5,5.1c4.9,0.1,9.8,0.1,14.7,0.2l0,0.1
		c1.5,0,2.9,0,4.4-0.1C101.5,73.9,102.9,74,104.4,74z"/>
	<path class="st5" d="M76.7,56.3c1.5,0.4,2.6,0.4,3.8,0c1.1-0.3,2.3-1.1,2.9-1.8c-1-0.3-2.5-0.4-3.6-0.1
		C78.6,54.7,77.5,55.4,76.7,56.3z"/>
	<path class="st4" d="M79.4,54.9c0.3,0.2,0.4,0.4,0.4,0.8c0,0.2,0,0.3-0.1,0.4c0.2,0,0.4-0.1,0.7-0.1c0.7-0.2,1.6-0.7,2.3-1.2
		c-0.9-0.2-1.9-0.2-2.7,0C79.7,54.8,79.5,54.9,79.4,54.9z"/>
	<path class="st4" d="M78.1,56.2C78,56,78,55.9,78,55.7v0c-0.2,0.1-0.4,0.3-0.5,0.4C77.7,56.1,77.9,56.1,78.1,56.2z"/>
	<path class="st5" d="M123.4,56.3c-1.5,0.4-2.6,0.4-3.8,0c-1.1-0.3-2.3-1.1-2.9-1.8c1-0.3,2.5-0.4,3.6-0.1
		C121.4,54.7,122.5,55.4,123.4,56.3z"/>
	<path class="st4" d="M120.7,54.9c-0.3,0.2-0.4,0.4-0.4,0.8c0,0.2,0,0.3,0.1,0.4c-0.2,0-0.4-0.1-0.7-0.1c-0.7-0.2-1.6-0.7-2.3-1.2
		c0.9-0.2,1.9-0.2,2.7,0C120.4,54.8,120.5,54.9,120.7,54.9z"/>
	<path class="st4" d="M121.9,56.2c0.1-0.1,0.1-0.3,0.1-0.5l0,0c0.2,0.1,0.4,0.3,0.5,0.4C122.4,56.1,122.2,56.1,121.9,56.2z"/>
	<path id="path22" class="st5" d="M74.3,75.3c-2.2-2.7-5-3.8-7.7-3.8c-2.7,0-5.3,1.2-7.4,3.3L0,134c2,3,7.2,2.9,9.2,0.9l1.1-1.1
		c2.9,3.4,7.5,3.1,9.5,1l1.1-1.1c2.4,3.2,7.3,3.5,9.7,1l1-1c2.3,3.2,7.3,3.4,9.6,1l0.9-0.9c2.3,3,7,3.4,9.8,0.8
		c0.3-0.3,0.5-0.7,0.8-1c1.8-2.2,4.2-3.2,6.4-3.1c4.1,0,7.1,3,7.9,6.3C67.6,116.2,73.8,95.7,74.3,75.3z"/>
	<path id="path24" class="st4" d="M73.9,75.4c-1.8-2.2-4.3-3.5-7.3-3.5c-2.7,0-5.2,1.2-7.1,3.1L0.6,134c0.2,0.2,0.4,0.4,0.6,0.6
		c0.8,0.7,1.9,1,2.9,1.1c1.5,0.2,3.6-0.1,4.7-1.2l0,0L48.3,95l0.3,0.3l-38,38l0,0c1.2,1.4,2.9,2.3,4.8,2.4c1.4,0.1,3.1-0.4,4.1-1.4
		l1.5-1.5l0,0l32.6-32.6l0.3,0.3l-32.6,32.6l0,0c1.1,1.4,2.8,2.3,4.5,2.4c1.5,0.1,3.1-0.2,4.3-1.2h0l0.8-0.8l0.8-0.8l0,0L59,105.7
		l0.3,0.3L32,133.3l0,0.1c1.1,1.4,2.7,2.3,4.5,2.4c1.6,0.1,3.3-0.3,4.5-1.4l0.8-0.8L64.3,111l0.3,0.3l-22.1,22.1l0,0.1
		c0.6,0.7,1.3,1.3,2.1,1.7c2.2,1.1,5.1,0.8,7-0.9c0.3-0.3,0.5-0.6,0.8-1c1.7-2.1,4.1-3.3,6.7-3.3c3.2,0,6.1,1.8,7.5,4.5
		C67.6,114.7,73.4,95.3,73.9,75.4z"/>
	<path id="path28" class="st5" d="M125.7,75.1c2.2-2.7,5-3.8,7.7-3.8c2.7,0,5.3,1.2,7.4,3.3l59.2,59.2c-2,3-7.2,2.9-9.2,0.9
		l-1.1-1.1c-2.9,3.4-7.5,3.1-9.5,1l-1.1-1.1c-2.4,3.2-7.3,3.5-9.7,1l-1-1c-2.3,3.2-7.3,3.4-9.6,1l-0.9-0.9c-2.3,3-7,3.4-9.8,0.8
		c-0.3-0.3-0.5-0.7-0.8-1c-1.8-2.2-4.2-3.2-6.4-3.1c-4.1,0-7.1,3-7.9,6.3C132.4,116.1,126.2,95.6,125.7,75.1z"/>
	<path id="path30" class="st4" d="M126.1,75.3c1.8-2.2,4.3-3.5,7.3-3.5c2.7,0,5.2,1.2,7.1,3.1l58.9,59c-0.2,0.2-0.4,0.4-0.6,0.6
		c-0.8,0.7-1.9,1-2.9,1.1c-1.5,0.2-3.6-0.1-4.7-1.2l0,0l-39.4-39.5l-0.3,0.3l38,38l0,0c-1.2,1.4-2.9,2.3-4.8,2.4
		c-1.4,0.1-3.1-0.4-4.1-1.4l-1.5-1.5l0,0l-32.6-32.6l-0.3,0.3l32.6,32.6l0,0c-1.1,1.4-2.8,2.3-4.5,2.4c-1.5,0.1-3.1-0.2-4.3-1.2h0
		l-0.8-0.8l-0.8-0.8l0,0L141,105.6l-0.3,0.3l27.3,27.4l0,0.1c-1.1,1.4-2.7,2.3-4.5,2.4c-1.6,0.1-3.3-0.3-4.5-1.4l-0.8-0.8
		l-22.5-22.6l-0.3,0.3l22.1,22.1l0,0.1c-0.6,0.7-1.3,1.3-2.1,1.7c-2.2,1.1-5.1,0.8-7-0.9c-0.3-0.3-0.5-0.6-0.8-1
		c-1.7-2.1-4.1-3.3-6.7-3.3c-3.2,0-6.1,1.8-7.5,4.5C132.4,114.6,126.6,95.2,126.1,75.3z"/>
	<path id="path32" class="st0" d="M66.8,72.5h66.6v77c0,2.8,0.3,7.6-4.6,12l-20,17.5c-0.6,0.5-1,1-1.6,1.4c-1.1,0.8-2.1,1.5-3.5,1.9
		c-2.5,0.8-4.6,0.8-7,0.1c-1.1-0.3-2.2-0.9-3.1-1.5c-0.8-0.6-1.4-1.2-2.2-1.9l-20-17.5c-4.2-3.7-4.6-7.9-4.6-9.9V72.5z"/>
	<path id="path34" class="st1" d="M67.6,73.3v78.3c0,3.7,1.6,6.8,4.3,9.3l11.2,9.9V73.3H67.6z M84,171.4l7.9,6.9
		c0.7,0.6,1.4,1.3,2.1,1.8c0.8,0.6,1.9,1.1,2.9,1.4c2.3,0.6,4.2,0.6,6.5-0.1c1.2-0.4,2.2-1,3.2-1.8c0.5-0.4,1-0.9,1.5-1.4l7.8-6.9
		V73.3H84V171.4z M116.9,170.7l11.3-9.9c1.9-1.7,3.3-3.7,3.9-6.1c0.5-1.8,0.4-3.4,0.4-5.2V73.3h-15.6V170.7z"/>
	<path id="path36" class="st2" d="M67.6,73.3v78.3c0,3.7,1.6,6.8,4.3,9.3l2.1,1.9V73.3H67.6z M125.3,163.3l2.8-2.5
		c1.9-1.7,3.3-3.7,3.9-6.1c0.5-1.8,0.4-3.4,0.4-5.2V73.3h-7.2V163.3z"/>
	<path id="path40" class="st4" d="M19.2,158.8h44.6v10.9H19.2l5.4-5.5L19.2,158.8z"/>
	<path id="path42" class="st6" d="M56.6,162.3l7.2-3.5l0,14.5h-7.2L56.6,162.3z"/>
	<path id="path44" class="st4" d="M180.9,158.8h-44.6v10.9h44.6l-5.4-5.5L180.9,158.8z"/>
	<path id="path46" class="st6" d="M143.5,162.3l-7.2-3.5l0,14.5h7.2L143.5,162.3z"/>
	<path id="path48" class="st4" d="M56.6,162.3h86.7v10.9H56.6V162.3z"/>
	<path id="path52" class="st7" d="M91.5,92.7l8.1,8.2c-2.3-3.2-3-5.8-3-9c0-3.1,1.6-6.5,3.4-8.7c1.9,2.2,3.4,5.6,3.4,8.8
		c0,3.2-1,6.3-3,8.9l8.1-8.1v16.7c-1.2,2.3-3.6,4.8-6.5,5.6c2.2-0.3,5-1.3,7.2-4.5c0.5,5.7-0.4,10.6-2.1,14.5
		c-1.8,4.1-5.1,6.6-6.8,6.8v4.9l0.9,7l-1.5,1.5v-13.4c-2-0.3-5.3-3-7.1-7.5c-1.8-4.6-2.3-9.9-1.8-13.9c2.2,3.3,5.1,4.3,7.3,4.6
		c-2.6-0.7-4.9-2.8-6.6-5.6V92.7z"/>
	<path id="path54" class="st4" d="M100,83.2L100,83.2c1.9,2.2,3.5,5.6,3.5,8.8c0,3.2-1,6.3-3,8.9l8.1-8.1v16.7
		c-1.2,2.3-3.6,4.8-6.5,5.6c2.2-0.3,5-1.3,7.2-4.5c0.5,5.7-0.4,10.6-2.1,14.5c-1.8,4-5,6.5-6.7,6.8c-0.1,0-0.3,0-0.4,0V83.2z"/>
	<path id="path58" class="st2" d="M78,166.6h-0.3c-0.1-0.2-0.2-0.5-0.4-0.7c-0.2-0.3-0.4-0.4-0.6-0.4c-0.1,0-0.2,0-0.3,0
		c-0.1,0-0.3,0-0.4,0h-0.9v2.3h0.6c0.2,0,0.3,0,0.4-0.1c0.1,0,0.2-0.1,0.3-0.2c0.1-0.1,0.1-0.2,0.2-0.3c0.1-0.2,0.1-0.3,0.1-0.4h0.3
		v2.5h-0.3c0-0.1-0.1-0.3-0.1-0.5c-0.1-0.2-0.1-0.3-0.2-0.4c-0.1-0.1-0.2-0.2-0.3-0.2c-0.1,0-0.3-0.1-0.4-0.1h-0.6v1.9
		c0,0.1,0,0.2,0.1,0.3c0,0.1,0.1,0.1,0.2,0.2c0.1,0,0.1,0,0.2,0.1c0.1,0,0.2,0,0.3,0v0.3h-3.2v-0.3c0.1,0,0.2,0,0.3,0
		c0.1,0,0.2,0,0.3-0.1c0.1,0,0.2-0.1,0.2-0.2c0-0.1,0.1-0.2,0.1-0.3V166c0-0.1,0-0.2-0.1-0.2c0-0.1-0.1-0.1-0.2-0.2
		c-0.1,0-0.2-0.1-0.3-0.1c-0.1,0-0.2,0-0.3-0.1v-0.3H78V166.6z"/>
	<path id="path60" class="st2" d="M81.5,171.1c-0.4,0-0.8-0.1-1.2-0.2c-0.4-0.1-0.7-0.3-1-0.6c-0.3-0.3-0.5-0.6-0.6-1
		c-0.2-0.4-0.2-0.8-0.2-1.3c0-0.5,0.1-0.9,0.2-1.3c0.2-0.4,0.4-0.7,0.7-1c0.3-0.3,0.6-0.5,1-0.6c0.4-0.2,0.8-0.2,1.3-0.2
		c0.3,0,0.6,0,0.9,0.1c0.3,0.1,0.5,0.2,0.7,0.3l0.3-0.2h0.4l0,2.1h-0.4c-0.2-0.7-0.5-1.1-0.7-1.4c-0.3-0.3-0.6-0.5-1.1-0.5
		c-0.5,0-0.9,0.2-1.2,0.7c-0.3,0.5-0.4,1.1-0.4,1.9c0,0.5,0,0.9,0.1,1.2c0.1,0.3,0.2,0.6,0.4,0.8c0.2,0.2,0.3,0.4,0.6,0.5
		c0.2,0.1,0.5,0.1,0.7,0.1c0.4,0,0.7-0.1,1-0.3c0.3-0.2,0.6-0.5,0.8-0.9l0.4,0.2c-0.1,0.2-0.3,0.5-0.4,0.6c-0.2,0.2-0.3,0.4-0.5,0.5
		c-0.2,0.2-0.5,0.3-0.7,0.4C82.2,171,81.9,171.1,81.5,171.1z"/>
	<path id="path62" class="st2" d="M92.1,166.5c0,0.3-0.1,0.6-0.2,0.9c-0.1,0.2-0.3,0.4-0.6,0.6c-0.2,0.2-0.5,0.3-0.8,0.3
		c-0.3,0.1-0.7,0.1-1.1,0.1H89v1.6c0,0.1,0,0.2,0.1,0.3c0,0.1,0.1,0.1,0.2,0.2c0.1,0,0.1,0,0.3,0.1c0.1,0,0.2,0,0.3,0v0.3h-3.2v-0.3
		c0.1,0,0.2,0,0.3,0c0.1,0,0.2,0,0.3-0.1c0.1,0,0.2-0.1,0.2-0.2c0-0.1,0.1-0.2,0.1-0.3V166c0-0.1,0-0.2-0.1-0.3
		c0-0.1-0.1-0.1-0.2-0.2c-0.1,0-0.2-0.1-0.3-0.1c-0.1,0-0.2,0-0.3-0.1v-0.3h3.2c0.8,0,1.3,0.1,1.7,0.4C92,165.7,92.1,166,92.1,166.5
		z M90.5,166.7c0-0.4-0.1-0.8-0.3-1c-0.2-0.2-0.5-0.3-0.9-0.3H89v2.6h0.2c0.5,0,0.8-0.1,1-0.3C90.4,167.5,90.5,167.2,90.5,166.7z"/>
	<path id="path64" class="st2" d="M98.8,165.4c-0.1,0-0.2,0-0.3,0.1c-0.1,0-0.2,0.1-0.2,0.1c-0.1,0.1-0.2,0.2-0.3,0.3
		c-0.1,0.1-0.2,0.2-0.3,0.3c-0.2,0.3-0.4,0.5-0.6,0.9c-0.2,0.3-0.4,0.6-0.6,1c-0.2,0.2-0.2,0.4-0.3,0.5c0,0.1-0.1,0.3-0.1,0.6v0.8
		c0,0.1,0,0.2,0.1,0.3c0,0.1,0.1,0.1,0.2,0.2c0,0,0.1,0,0.3,0.1c0.2,0,0.3,0.1,0.3,0.1v0.3h-3.3v-0.3c0.1,0,0.2,0,0.3,0
		c0.1,0,0.2,0,0.3-0.1c0.1,0,0.2-0.1,0.2-0.2c0-0.1,0.1-0.2,0.1-0.3v-1c0-0.1,0-0.2,0-0.2c0-0.1,0-0.1,0-0.2c0-0.1-0.1-0.1-0.1-0.2
		c0-0.1-0.1-0.2-0.2-0.3c-0.2-0.4-0.4-0.7-0.6-1.1c-0.2-0.3-0.4-0.6-0.6-0.9c-0.1-0.2-0.2-0.3-0.3-0.4c-0.1-0.1-0.2-0.2-0.3-0.2
		c-0.1,0-0.2-0.1-0.3-0.1c-0.1,0-0.2,0-0.3,0v-0.3h3.4v0.3c-0.3,0-0.5,0-0.6,0.1c-0.1,0-0.2,0.1-0.2,0.1c0,0,0,0.1,0.1,0.2
		c0,0.1,0.1,0.2,0.2,0.4c0.1,0.2,0.2,0.4,0.4,0.7c0.2,0.3,0.4,0.7,0.7,1.1c0.5-0.8,0.9-1.4,1.1-1.7c0.2-0.3,0.3-0.5,0.3-0.6
		c0-0.1-0.1-0.2-0.2-0.2c-0.1,0-0.3-0.1-0.6-0.1v-0.3h2.2V165.4z"/>
	<path id="path66" class="st2" d="M105.5,165.4c-0.1,0-0.2,0-0.3,0.1c-0.2,0-0.3,0.1-0.4,0.2c-0.1,0.1-0.2,0.2-0.2,0.4
		c0,0.2-0.1,0.4-0.1,0.8v2.2c0,0.6-0.2,1.2-0.7,1.5c-0.4,0.4-1,0.6-1.7,0.6c-0.8,0-1.5-0.2-1.9-0.6c-0.5-0.4-0.7-0.9-0.7-1.6v-3
		c0-0.1,0-0.2-0.1-0.2c0-0.1-0.1-0.1-0.2-0.2c-0.1,0-0.2-0.1-0.3-0.1c-0.1,0-0.2,0-0.3,0v-0.3h3.1v0.3c-0.1,0-0.2,0-0.3,0
		c-0.1,0-0.2,0-0.3,0.1c-0.1,0-0.2,0.1-0.2,0.2c0,0.1-0.1,0.2-0.1,0.3v3c0,0.6,0.1,1,0.4,1.3c0.3,0.3,0.6,0.4,1.1,0.4
		c0.5,0,0.9-0.1,1.1-0.4c0.3-0.3,0.4-0.7,0.4-1.3v-2c0-0.4,0-0.6-0.1-0.8c0-0.2-0.1-0.3-0.2-0.4c-0.1-0.1-0.2-0.1-0.4-0.2
		c-0.2,0-0.3-0.1-0.4-0.1v-0.3h2.5V165.4z"/>
	<path id="path68" class="st2" d="M112.5,165.4c-0.1,0-0.2,0-0.3,0c-0.1,0-0.3,0.1-0.4,0.2c-0.1,0.1-0.2,0.2-0.2,0.4
		c0,0.2-0.1,0.4-0.1,0.8v4.2h-0.7l-3.6-4.5v2.7c0,0.3,0,0.6,0.1,0.8c0,0.2,0.1,0.3,0.2,0.4c0.1,0.1,0.2,0.1,0.4,0.2
		c0.2,0,0.3,0.1,0.4,0.1v0.3h-2.5v-0.3c0.1,0,0.2,0,0.4-0.1c0.1,0,0.3-0.1,0.3-0.1c0.1-0.1,0.2-0.2,0.2-0.4c0-0.2,0.1-0.4,0.1-0.8
		v-2.8c0-0.1,0-0.3-0.1-0.4c0-0.1-0.1-0.2-0.2-0.3c-0.1-0.1-0.2-0.2-0.3-0.2c-0.1-0.1-0.3-0.1-0.4-0.1v-0.3h2.2l3.2,4v-2.2
		c0-0.4,0-0.6-0.1-0.8c0-0.2-0.1-0.3-0.2-0.4c-0.1-0.1-0.2-0.1-0.4-0.2c-0.2,0-0.3-0.1-0.4-0.1v-0.3h2.5V165.4z"/>
	<path id="path70" class="st2" d="M116.1,170.9h-3.2v-0.3c0.1,0,0.2,0,0.3,0c0.1,0,0.2,0,0.3,0c0.1,0,0.2-0.1,0.2-0.2
		c0-0.1,0.1-0.2,0.1-0.3V166c0-0.1,0-0.2-0.1-0.2c0-0.1-0.1-0.1-0.2-0.2c-0.1,0-0.2-0.1-0.3-0.1c-0.1,0-0.2,0-0.3-0.1v-0.3h3.2v0.3
		c-0.1,0-0.2,0-0.3,0c-0.1,0-0.2,0-0.3,0.1c-0.1,0-0.2,0.1-0.2,0.2c0,0.1-0.1,0.2-0.1,0.3v4.1c0,0.1,0,0.2,0.1,0.3
		c0,0.1,0.1,0.1,0.2,0.2c0.1,0,0.2,0,0.3,0.1c0.1,0,0.2,0,0.3,0V170.9z"/>
	<path id="path72" class="st2" d="M123.5,170.9h-2.3c-0.3-0.5-0.7-1-0.9-1.3c-0.3-0.4-0.6-0.8-1.1-1.4H119v1.8c0,0.1,0,0.2,0.1,0.3
		c0,0.1,0.1,0.1,0.2,0.2c0,0,0.1,0,0.2,0.1c0.1,0,0.2,0,0.3,0v0.3h-3.1v-0.3c0.1,0,0.2,0,0.3,0c0.1,0,0.2,0,0.3,0
		c0.1,0,0.2-0.1,0.2-0.2c0-0.1,0.1-0.2,0.1-0.3V166c0-0.1,0-0.2-0.1-0.2c0-0.1-0.1-0.1-0.2-0.2c-0.1,0-0.2-0.1-0.3-0.1
		c-0.1,0-0.2,0-0.3,0v-0.3h3.2v0.3c-0.1,0-0.2,0-0.3,0c-0.1,0-0.2,0-0.3,0.1c-0.1,0-0.2,0.1-0.2,0.2c0,0.1-0.1,0.2-0.1,0.3v2h0.2
		c0.2-0.2,0.5-0.4,0.8-0.7c0.3-0.3,0.5-0.5,0.7-0.7c0.2-0.2,0.4-0.4,0.5-0.6c0.1-0.1,0.2-0.3,0.2-0.4c0,0-0.1-0.1-0.1-0.1
		c-0.1,0-0.3,0-0.5-0.1v-0.3h2.5v0.3c-0.3,0-0.6,0.1-0.8,0.2c-0.2,0.1-0.4,0.2-0.6,0.4c-0.3,0.3-0.5,0.5-0.7,0.7
		c-0.2,0.2-0.4,0.4-0.7,0.7c0.3,0.3,0.6,0.7,1,1.2c0.4,0.5,0.7,0.9,1.1,1.4c0.1,0.1,0.2,0.2,0.3,0.3c0.1,0.1,0.3,0.2,0.4,0.2
		c0.1,0,0.1,0.1,0.2,0.1c0.1,0,0.2,0,0.2,0V170.9z"/>
	<path id="path76" class="st8" d="M96,153.3h-2.3v-0.2c0.1,0,0.2,0,0.3,0c0.1,0,0.2,0,0.3,0c0.1,0,0.1-0.1,0.2-0.1
		c0-0.1,0.1-0.1,0.1-0.2v-2.4h-0.8V150h0.2c0.2,0,0.5,0,0.7-0.1c0.2-0.1,0.3-0.2,0.4-0.3h0.3c0,0.1,0,0.3,0,0.5c0,0.2,0,0.4,0,0.5v2
		c0,0.1,0,0.2,0.1,0.2c0,0.1,0.1,0.1,0.2,0.1c0.1,0,0.2,0,0.3,0.1c0.1,0,0.2,0,0.3,0V153.3z"/>
	<path id="path78" class="st8" d="M99.8,151.5c0,0.4-0.1,0.8-0.2,1.1c-0.1,0.3-0.3,0.7-0.5,0.9c-0.2,0.3-0.5,0.5-0.8,0.6
		c-0.3,0.2-0.7,0.3-1.1,0.3l-0.1-0.3l0.3-0.1c0.5-0.2,0.9-0.4,1.1-0.7c0.3-0.3,0.5-0.7,0.5-1.2c-0.2,0.2-0.4,0.3-0.6,0.3
		c-0.2,0.1-0.4,0.1-0.6,0.1c-0.4,0-0.7-0.1-1-0.4c-0.3-0.3-0.4-0.7-0.4-1.1c0-0.5,0.2-0.9,0.5-1.2c0.3-0.3,0.7-0.5,1.2-0.5
		c0.5,0,0.9,0.2,1.2,0.5C99.7,150.4,99.8,150.9,99.8,151.5z M99.1,151.5c0-0.5-0.1-0.9-0.3-1.2c-0.2-0.3-0.4-0.5-0.7-0.5
		c-0.3,0-0.5,0.1-0.7,0.3c-0.2,0.2-0.2,0.6-0.2,1c0,0.4,0.1,0.7,0.3,0.9c0.2,0.2,0.4,0.3,0.7,0.3c0.2,0,0.3,0,0.5-0.1
		c0.1-0.1,0.3-0.2,0.4-0.3c0,0,0,0,0-0.1c0,0,0-0.1,0-0.1c0,0,0-0.1,0-0.1C99.1,151.6,99.1,151.5,99.1,151.5z"/>
	<path id="path80" class="st8" d="M103.8,151.5c0,0.4-0.1,0.8-0.2,1.1c-0.1,0.3-0.3,0.7-0.5,0.9c-0.2,0.3-0.5,0.5-0.8,0.6
		c-0.3,0.2-0.7,0.3-1.1,0.3l-0.1-0.3l0.3-0.1c0.5-0.2,0.9-0.4,1.1-0.7c0.3-0.3,0.5-0.7,0.5-1.2c-0.2,0.2-0.4,0.3-0.6,0.3
		c-0.2,0.1-0.4,0.1-0.6,0.1c-0.4,0-0.7-0.1-1-0.4c-0.3-0.3-0.4-0.7-0.4-1.1c0-0.5,0.2-0.9,0.5-1.2c0.3-0.3,0.7-0.5,1.2-0.5
		c0.5,0,0.9,0.2,1.2,0.5C103.6,150.4,103.8,150.9,103.8,151.5z M103,151.5c0-0.5-0.1-0.9-0.3-1.2c-0.2-0.3-0.4-0.5-0.7-0.5
		c-0.3,0-0.5,0.1-0.7,0.3c-0.2,0.2-0.2,0.6-0.2,1c0,0.4,0.1,0.7,0.3,0.9c0.2,0.2,0.4,0.3,0.7,0.3c0.2,0,0.3,0,0.5-0.1
		c0.1-0.1,0.3-0.2,0.4-0.3c0,0,0,0,0-0.1c0,0,0-0.1,0-0.1c0,0,0-0.1,0-0.1C103,151.6,103,151.5,103,151.5z"/>
	<path id="path82" class="st8" d="M107.7,153.3h-3.2v-0.5c0.1-0.1,0.1-0.1,0.3-0.2c0.1-0.1,0.2-0.2,0.4-0.3c0.1-0.1,0.2-0.1,0.3-0.2
		c0.1-0.1,0.3-0.2,0.4-0.2c0.2-0.1,0.3-0.2,0.4-0.3c0.1-0.1,0.2-0.2,0.3-0.3c0.1-0.1,0.1-0.2,0.1-0.3c0-0.1,0-0.3,0-0.5
		c0-0.3-0.1-0.5-0.2-0.6c-0.2-0.1-0.3-0.2-0.6-0.2c-0.1,0-0.3,0-0.4,0.1c-0.1,0.1-0.2,0.1-0.3,0.2c0,0.1,0,0.2,0.1,0.3
		c0,0.1,0,0.2,0,0.3c0,0.1,0,0.2-0.1,0.2c-0.1,0.1-0.2,0.1-0.3,0.1c-0.1,0-0.2,0-0.3-0.1c-0.1-0.1-0.1-0.2-0.1-0.3
		c0-0.1,0-0.2,0.1-0.4c0.1-0.1,0.2-0.2,0.3-0.3c0.1-0.1,0.3-0.2,0.5-0.2c0.2-0.1,0.4-0.1,0.6-0.1c0.5,0,0.8,0.1,1.1,0.3
		c0.3,0.2,0.4,0.5,0.4,0.8c0,0.2,0,0.3-0.1,0.5s-0.1,0.3-0.2,0.4c-0.1,0.1-0.3,0.2-0.4,0.3c-0.2,0.1-0.4,0.2-0.7,0.3
		c-0.2,0.1-0.4,0.2-0.6,0.3c-0.2,0.1-0.3,0.2-0.4,0.3h2.6V153.3z"/>
	<path id="path84" class="st8" d="M95.9,156.2c0,0-0.1,0-0.1,0c0,0-0.1,0-0.1,0c0,0-0.1,0.1-0.1,0.1c0,0-0.1,0.1-0.1,0.1
		c-0.1,0.1-0.2,0.3-0.3,0.4c-0.1,0.1-0.2,0.3-0.3,0.5c0,0.1-0.1,0.1-0.1,0.2c0,0,0,0.1,0,0.2v0.5c0,0,0,0.1,0,0.1
		c0,0,0.1,0.1,0.1,0.1c0,0,0.1,0,0.1,0c0.1,0,0.1,0,0.2,0v0.1H94v-0.1c0,0,0.1,0,0.2,0c0.1,0,0.1,0,0.1,0c0,0,0.1,0,0.1-0.1
		c0,0,0-0.1,0-0.1v-0.7c0,0,0-0.1,0-0.1c0-0.1-0.1-0.1-0.1-0.2c-0.1-0.1-0.2-0.3-0.3-0.5c-0.1-0.2-0.2-0.3-0.2-0.4
		c0-0.1-0.1-0.1-0.1-0.2c0,0-0.1-0.1-0.1-0.1c0,0-0.1,0-0.1,0c0,0-0.1,0-0.1,0v-0.1h1.2v0.1c-0.1,0-0.2,0-0.3,0
		c-0.1,0-0.1,0-0.1,0.1c0,0,0,0,0,0c0,0,0,0,0,0.1c0,0,0,0.1,0.1,0.1c0,0,0,0.1,0.1,0.1c0.1,0.1,0.1,0.2,0.2,0.3
		c0.1,0.1,0.1,0.3,0.2,0.4c0.2-0.3,0.4-0.6,0.5-0.8c0.1-0.2,0.2-0.3,0.2-0.3c0,0,0-0.1,0-0.1c0,0-0.1,0-0.1,0c0,0-0.1,0-0.1,0
		c0,0-0.1,0-0.1,0v-0.1h0.9V156.2z"/>
	<path id="path86" class="st8" d="M97.6,158.3c-0.1,0.2-0.2,0.3-0.3,0.4c-0.1,0.1-0.3,0.1-0.5,0.1c-0.2,0-0.3,0-0.4-0.1
		c-0.1-0.1-0.2-0.1-0.3-0.2c-0.1-0.1-0.1-0.2-0.2-0.3c0-0.1-0.1-0.3-0.1-0.4c0-0.1,0-0.2,0.1-0.4c0-0.1,0.1-0.2,0.2-0.3
		c0.1-0.1,0.2-0.2,0.3-0.2c0.1-0.1,0.2-0.1,0.4-0.1c0.1,0,0.3,0,0.4,0.1c0.1,0,0.2,0.1,0.2,0.2c0.1,0.1,0.1,0.2,0.1,0.3
		c0,0.1,0,0.2,0,0.3v0.1h-1.2c0,0.1,0,0.2,0,0.3c0,0.1,0.1,0.2,0.1,0.3c0,0.1,0.1,0.1,0.2,0.2c0.1,0,0.2,0.1,0.3,0.1
		c0.1,0,0.2,0,0.3-0.1c0.1-0.1,0.2-0.1,0.2-0.3L97.6,158.3z M97.2,157.6c0-0.1,0-0.1,0-0.2c0-0.1,0-0.1-0.1-0.2
		c0-0.1-0.1-0.1-0.1-0.1c-0.1,0-0.1-0.1-0.2-0.1c-0.1,0-0.2,0.1-0.3,0.2c-0.1,0.1-0.1,0.3-0.1,0.5H97.2z"/>
	<path id="path88" class="st8" d="M99.3,157.1c0,0.1,0,0.1,0,0.2c0,0.1-0.1,0.1-0.1,0.1c-0.1,0-0.1,0-0.2-0.1c0,0-0.1-0.1-0.1-0.1
		c0,0,0-0.1,0-0.1c0,0,0,0,0-0.1c-0.1,0-0.1,0-0.2,0.1c-0.1,0-0.1,0.1-0.2,0.2v1.1c0,0,0,0.1,0,0.1c0,0,0,0,0.1,0.1c0,0,0.1,0,0.1,0
		c0.1,0,0.1,0,0.1,0v0.1h-1v-0.1c0,0,0.1,0,0.1,0c0,0,0.1,0,0.1,0c0,0,0.1,0,0.1-0.1c0,0,0-0.1,0-0.1v-1.2c0,0,0-0.1,0-0.1
		c0,0,0-0.1-0.1-0.1c0,0-0.1,0-0.1,0c0,0-0.1,0-0.1,0v-0.1l0.6,0l0,0v0.3h0c0.1-0.1,0.2-0.2,0.3-0.2c0.1-0.1,0.2-0.1,0.3-0.1
		c0.1,0,0.1,0,0.2,0.1C99.3,157,99.3,157,99.3,157.1z"/>
	<path id="path90" class="st8" d="M101.1,158.3c-0.1,0.2-0.2,0.3-0.3,0.4c-0.1,0.1-0.3,0.1-0.5,0.1c-0.2,0-0.3,0-0.4-0.1
		c-0.1-0.1-0.2-0.1-0.3-0.2c-0.1-0.1-0.1-0.2-0.2-0.3c0-0.1-0.1-0.3-0.1-0.4c0-0.1,0-0.2,0.1-0.4c0-0.1,0.1-0.2,0.2-0.3
		c0.1-0.1,0.2-0.2,0.3-0.2c0.1-0.1,0.2-0.1,0.4-0.1c0.1,0,0.3,0,0.4,0.1c0.1,0,0.2,0.1,0.2,0.2c0.1,0.1,0.1,0.2,0.1,0.3
		c0,0.1,0,0.2,0,0.3v0.1h-1.2c0,0.1,0,0.2,0,0.3c0,0.1,0.1,0.2,0.1,0.3c0,0.1,0.1,0.1,0.2,0.2c0.1,0,0.2,0.1,0.3,0.1
		c0.1,0,0.2,0,0.3-0.1c0.1-0.1,0.2-0.1,0.2-0.3L101.1,158.3z M100.7,157.6c0-0.1,0-0.1,0-0.2c0-0.1,0-0.1-0.1-0.2
		c0-0.1-0.1-0.1-0.1-0.1c-0.1,0-0.1-0.1-0.2-0.1c-0.1,0-0.2,0.1-0.3,0.2c-0.1,0.1-0.1,0.3-0.1,0.5H100.7z"/>
	<path id="path92" class="st8" d="M103.2,157c-0.1,0-0.1,0-0.2,0.1c-0.1,0-0.1,0.1-0.1,0.2c-0.1,0.2-0.2,0.3-0.2,0.5
		c-0.1,0.2-0.2,0.4-0.3,0.6c0,0.1-0.1,0.1-0.1,0.2c0,0.1-0.1,0.2-0.1,0.2h-0.1c-0.1-0.3-0.2-0.6-0.3-0.8c-0.1-0.2-0.2-0.5-0.3-0.8
		c0-0.1-0.1-0.1-0.1-0.1c-0.1,0-0.1-0.1-0.2-0.1v-0.1h0.9v0.1c0,0-0.1,0-0.1,0c-0.1,0-0.1,0-0.1,0.1c0,0,0,0,0,0c0,0,0,0,0,0.1
		c0.1,0.1,0.1,0.3,0.2,0.5c0.1,0.2,0.2,0.4,0.2,0.6c0-0.1,0.1-0.2,0.2-0.4c0.1-0.2,0.1-0.3,0.2-0.5c0,0,0-0.1,0-0.1c0,0,0-0.1,0-0.1
		c0,0,0,0,0-0.1c0,0,0,0-0.1,0c0,0-0.1,0-0.1,0c0,0-0.1,0-0.1,0v-0.1h0.7V157z"/>
	<path id="path94" class="st8" d="M105.1,158.7c-0.1,0-0.1,0-0.2,0.1c0,0-0.1,0-0.2,0c-0.1,0-0.2,0-0.2-0.1c-0.1,0-0.1-0.1-0.1-0.2
		h0c-0.1,0.1-0.2,0.2-0.3,0.2c-0.1,0-0.2,0.1-0.3,0.1c-0.1,0-0.3,0-0.3-0.1c-0.1-0.1-0.1-0.2-0.1-0.3c0-0.1,0-0.1,0-0.2
		c0-0.1,0.1-0.1,0.1-0.2c0,0,0.1-0.1,0.1-0.1c0.1,0,0.1-0.1,0.1-0.1c0.1,0,0.2-0.1,0.3-0.1c0.2-0.1,0.3-0.1,0.4-0.1v-0.2
		c0,0,0,0,0-0.1c0,0,0-0.1,0-0.1c0,0-0.1-0.1-0.1-0.1c0,0-0.1-0.1-0.2-0.1c-0.1,0-0.1,0-0.2,0c-0.1,0-0.1,0-0.1,0.1c0,0,0,0.1,0,0.1
		c0,0,0,0.1,0,0.1c0,0,0,0.1-0.1,0.1c0,0-0.1,0.1-0.2,0.1c-0.1,0-0.1,0-0.1-0.1c0,0,0-0.1,0-0.2c0-0.1,0-0.1,0.1-0.2
		c0-0.1,0.1-0.1,0.2-0.1c0.1,0,0.1-0.1,0.2-0.1c0.1,0,0.2,0,0.2,0c0.1,0,0.2,0,0.3,0c0.1,0,0.2,0,0.2,0.1c0.1,0,0.1,0.1,0.1,0.2
		c0,0.1,0.1,0.2,0.1,0.3c0,0.2,0,0.3,0,0.5c0,0.1,0,0.3,0,0.5c0,0,0,0.1,0,0.1c0,0,0,0.1,0.1,0.1c0,0,0,0,0.1,0c0,0,0.1,0,0.1,0
		V158.7z M104.4,157.7c-0.1,0-0.2,0.1-0.3,0.1c-0.1,0-0.2,0.1-0.2,0.1c-0.1,0-0.1,0.1-0.2,0.2c0,0.1-0.1,0.1-0.1,0.2
		c0,0.1,0,0.2,0.1,0.2c0.1,0,0.1,0.1,0.2,0.1c0.1,0,0.2,0,0.2-0.1c0.1,0,0.1-0.1,0.2-0.2L104.4,157.7z"/>
	<path id="path96" class="st8" d="M107.3,158.8h-0.9v-0.1c0,0,0.1,0,0.1,0c0,0,0.1,0,0.1,0c0,0,0.1,0,0.1-0.1c0,0,0-0.1,0-0.1v-1
		c0-0.1,0-0.2-0.1-0.3c-0.1-0.1-0.1-0.1-0.2-0.1c-0.1,0-0.1,0-0.2,0c-0.1,0-0.1,0-0.1,0.1c0,0-0.1,0.1-0.1,0.1c0,0,0,0.1-0.1,0.1
		v1.1c0,0,0,0.1,0,0.1c0,0,0,0,0.1,0.1c0,0,0.1,0,0.1,0c0,0,0.1,0,0.1,0v0.1h-0.9v-0.1c0,0,0.1,0,0.1,0c0,0,0.1,0,0.1,0
		c0,0,0.1,0,0.1-0.1c0,0,0-0.1,0-0.1v-1.2c0,0,0-0.1,0-0.1c0,0,0-0.1-0.1-0.1c0,0-0.1,0-0.1,0c0,0-0.1,0-0.1,0v-0.1l0.6,0l0,0v0.3h0
		c0,0,0.1-0.1,0.1-0.1c0,0,0.1-0.1,0.1-0.1c0,0,0.1-0.1,0.2-0.1c0.1,0,0.1,0,0.2,0c0.2,0,0.3,0.1,0.4,0.2c0.1,0.1,0.1,0.3,0.1,0.5v1
		c0,0,0,0.1,0,0.1c0,0,0,0,0.1,0.1c0,0,0.1,0,0.1,0c0,0,0.1,0,0.1,0V158.8z"/>
</g>
</svg>
