<?xml version="1.0" encoding="utf-8"?>
<!-- Generator: Adobe Illustrator 21.1.0, SVG Export Plug-In . SVG Version: 6.00 Build 0)  -->
<svg version="1.1"
	 id="svg4839" inkscape:version="0.48.4 r9939" sodipodi:docname="Qarabagh_1987_Logo2.svg" xmlns:cc="http://creativecommons.org/ns#" xmlns:dc="http://purl.org/dc/elements/1.1/" xmlns:inkscape="http://www.inkscape.org/namespaces/inkscape" xmlns:rdf="http://www.w3.org/1999/02/22-rdf-syntax-ns#" xmlns:sodipodi="http://sodipodi.sourceforge.net/DTD/sodipodi-0.dtd" xmlns:svg="http://www.w3.org/2000/svg"
	 xmlns="http://www.w3.org/2000/svg" xmlns:xlink="http://www.w3.org/1999/xlink" x="0px" y="0px" viewBox="0 0 605.9 686"
	 style="enable-background:new 0 0 605.9 686;" xml:space="preserve">
<style type="text/css">
	.st0{fill:#E18105;}
	.st1{fill:#1C097D;}
	.st2{fill:#FFFFFF;}
	.st3{fill:#E18105;stroke:#1C097D;stroke-width:5.9631;stroke-linecap:square;stroke-linejoin:round;}
</style>
<g>
	<path id="path3806_1_" inkscape:connector-curvature="0" class="st0" d="M280.6,665.5c-25-16.6-36-24.6-53.9-38.9
		C117.2,539.1,47.2,422.1,18,278.2C9.9,238.3,5.8,192.7,5.8,143.6c0-28.9,0.1-31.2,2.2-31.2c1.2,0,10.5,0.8,20.7,1.8
		c24.1,2.4,51.9,2.3,71.2,0c40.9-5,83-19.1,117.5-39.1C245.3,58.8,260,47.5,285.1,23l17.5-17.2l14,13C362.3,61,402.2,86,448.5,101.2
		c41.9,13.8,78.8,17.5,129.5,13c11.5-1,21.2-1.6,21.5-1.3c1.3,1.3,0.7,65.9-0.8,82.4c-4,45.5-9.2,79.5-17,110.7
		C546.4,447.1,473.6,557.7,361,641.1c-10.6,7.8-39.2,27.2-52.8,35.9l-5.2,3.3L280.6,665.5L280.6,665.5L280.6,665.5z M324.5,650.9
		c40.3-27.1,64.7-47,95.3-77.6c44.6-44.6,76.4-89,103.9-144.8c20-40.6,34.4-80.7,45.8-127c10.8-43.9,17.9-104.1,17.9-151.6V127
		l-17,1.1c-21.5,1.3-50.5,1-65.1-0.8c-66.9-8-131.8-39.3-187.6-90.3c-6.5-5.9-12.5-11.2-13.3-11.7c-1-0.6-6.5,3.7-15.5,12.1
		c-18.2,17-27.7,24.6-47.9,38.1c-17.9,11.9-46.3,26.5-65.7,33.7C133,124.8,86.8,131.7,44,128.6c-11.6-0.8-21.9-1.8-22.8-2.2
		c-1.8-0.7-1.9,1.6-1.7,37.4C20.3,289.9,63,419.3,135.4,514.9c30.1,39.7,67.2,77.1,108,108.7c18.5,14.4,56.9,40.6,59.5,40.7
		C303.8,664.2,313.6,658.2,324.5,650.9z"/>
	<path class="st1" d="M586.8,144.1l-0.3-17l-16.9,1.5c-93.2,8.3-179.2-23.2-255.6-93.7l-11-10.2l-10.7,10.6
		c-68.1,67.4-163.6,102.3-255.5,93.4L19.5,127l-0.1,17.3C18.9,196,23.8,244.7,33.9,289c36.4,160.5,121.7,281.4,260.7,369.8l8.5,5.4
		l8.5-5.4c69.7-44.1,124.6-95.3,167.7-156.3c42.9-60.6,72.9-129.3,91.9-210c5.1-21.7,8.9-45.8,12-76.1
		C586,188.1,587.2,165.1,586.8,144.1z M569.3,215c-2.5,24.9-6,49.9-11.7,74.3C521,445.2,439.5,561.3,304.1,647l-1,0.7l-1-0.7
		C166.3,560.8,83,442.8,47.4,285.9c-10.5-46.1-14.6-94.3-14.2-141.5v-2.1l2.1,0.2c97.8,9.4,197.1-28.5,266.6-97.3l1.3-1.3l1.4,1.3
		c74.9,69.1,163.4,106.5,266.2,97.3l2.1-0.2v2.1l0,0C573.4,167.9,571.7,191.6,569.3,215z"/>
	<path id="path2998_1_" inkscape:connector-curvature="0" class="st2" d="M573,144.3c0.4,23.6-1.2,47.3-3.6,70.7
		c-2.5,24.9-6,49.9-11.7,74.3c-36.6,155.9-118.1,272-253.5,357.7l-1,0.7l-1-0.7C166.3,560.8,83,442.8,47.4,285.9
		c-10.5-46.1-14.6-94.3-14.2-141.5v-2.1l2.1,0.2c97.8,9.4,197.1-28.5,266.6-97.3l1.3-1.3l1.4,1.3c74.9,69.1,163.4,106.5,266.2,97.3
		l2.1-0.2L573,144.3L573,144.3L573,144.3z"/>
	
		<path id="path4563" sodipodi:cx="267.65216" sodipodi:cy="555.65216" sodipodi:rx="133.04347" sodipodi:ry="133.04347" sodipodi:type="arc" class="st3" d="
		M432.9,345.1c0,70.2-56.9,127.2-127.2,127.2s-127.2-57-127.2-127.2s56.9-127.2,127.2-127.2S432.9,274.9,432.9,345.1z"/>
	
		<path id="path4565" sodipodi:cx="417.13043" sodipodi:cy="532.17389" sodipodi:rx="82.95652" sodipodi:ry="82.95652" sodipodi:type="arc" class="st2" d="
		M392.6,344.7c0,48-38.9,86.9-86.9,86.9s-86.9-38.9-86.9-86.9s38.9-86.9,86.9-86.9S392.6,296.7,392.6,344.7z"/>
	<path id="path3689" inkscape:connector-curvature="0" class="st1" d="M305.6,254.2c-50.1,0-90.8,40.6-90.8,90.8
		s40.6,90.8,90.8,90.8s90.8-40.7,90.8-90.8S355.7,254.2,305.6,254.2z M305.6,260.9c46.5,0,84.1,37.6,84.1,84.1s-37.7,84.1-84.1,84.1
		s-84.1-37.7-84.1-84.1S259.2,260.9,305.6,260.9z M305.8,263.9c-44.9,0-81.2,36.4-81.2,81.2s36.4,81.2,81.2,81.2
		s81.2-36.4,81.2-81.2S350.6,263.9,305.8,263.9z M333.4,272.5c17.7,6.8,32.4,19.8,41.1,36.5l-8.4,6.6c-2-1.7-5.6-4.7-9.9-7.7
		c-4.1-2.8-12.6-6.6-14.2-7.3l-15.5-23.1L333.4,272.5z M277.9,272.6l6.8,4.9l-15.5,23.1c-1.7,0.7-10.1,4.5-14.2,7.3
		c-4.4,3-8,6.1-9.9,7.8l-8.2-6.5C245.6,292.5,260.2,279.4,277.9,272.6z M305.6,277c6,0,12.2,0.4,16.2,0.7l17,25.4
		c-2.3,2.4-5.5,5.6-7.3,7.9c-3.9,5-6.4,8.2-8.1,10.4c-2.4-0.2-10.6-0.7-17.8-0.8c-7.3,0-15.9,0.4-18,0.5c-1.7-2.2-4.2-5.5-7.9-10.2
		c-1.8-2.3-5-5.5-7.3-7.9l17-25.4C293.4,277.4,299.6,277,305.6,277z M376.4,312.8c4.5,9.9,7.1,20.8,7.1,32.3
		c0,9.4-1.7,18.5-4.8,26.9c-0.2-0.5-2.2-5.9-4.7-12.1c-1.5-3.9-4.5-8.4-6.3-10.9v-29.4L376.4,312.8z M235.1,312.9l8.5,6.7V349
		c-1.7,2.5-4.7,7-6.3,10.9c-2.4,5.9-4.2,10.8-4.6,11.8c-3-8.3-4.7-17.2-4.7-26.6C228.1,333.6,230.6,322.7,235.1,312.9z M305.6,324.7
		c6.4,0,13.4,0.5,16.6,0.7c1.2,1.8,5.8,8.6,8.6,12.7c2.8,4,7,11.7,7.9,13.2c-1.9,4.3-5.6,12.6-8.3,16.7c-2.8,4.1-8.8,10.5-12.2,13.9
		l-12.6,0.1l-12.6-0.1c-3.3-3.4-9.3-9.8-12.1-13.9c-2.7-4-6.4-12.3-8.3-16.7c0.8-1.5,5.1-9.2,7.9-13.2c2.9-4.2,7.8-11.4,8.8-12.9
		C292.5,325,299.3,324.7,305.6,324.7z M246.8,351.5l21.7,0.7c1.2,3,5.2,12.6,9,18.1c3.7,5.5,10.6,12.5,13.1,15l-8,15.3
		c-1.7,0.1-9.1,0.3-13.3,0.2c-6.9-0.2-13.1-0.8-13.8-0.9c-0.9-1-8.9-9.8-11.6-13.8c-3.1-4.5-6.6-11.8-7.2-13
		c0.3-0.7,2.1-5.5,4.5-11.5C242.5,358.1,245.4,353.6,246.8,351.5z M364.4,351.5c1.5,2.2,4.4,6.6,5.8,10c2.4,6,4.2,10.8,4.5,11.5
		c-0.6,1.2-4.1,8.5-7.2,13c-2.8,4-10.7,12.9-11.6,13.8c-0.7,0.1-6.9,0.7-13.8,0.9c-4.3,0.1-11.6-0.1-13.3-0.2l-8-15.3
		c2.5-2.5,9.4-9.5,13.1-15s7.8-15.1,9-18.1L364.4,351.5z M356.6,403.9c-13.2,11.4-30.2,18.4-48.8,18.9l-0.1-5.5
		c2.5-0.8,6.9-2.5,12-5.3c4.2-2.3,7.4-5.4,9-7.3c2.2,0.1,9,0.3,13.4,0.2C349.3,404.6,355.8,404,356.6,403.9z M255,403.9
		c1.1,0.1,7.2,0.7,14.1,0.9c4.4,0.1,11.2-0.1,13.5-0.2c1.6,1.8,4.8,5,9,7.3c5.2,2.9,9.6,4.5,12,5.3l-0.1,5.5
		C285,422.3,268.1,415.2,255,403.9z"/>
	<path id="path3671" inkscape:connector-curvature="0" class="st1" d="M406.7,253.7c-3.6-3.3-5.9-7.2-8.7-11c-2-2.7-2.5-2.6-5.8-2.5
		c-2.2,0-4.3,0.3-6.3,1.3c-1,0.5-2.2,2.1-3.3,3.6c-6.4,8.4-8.5,17-11.7,27.6c0.3,8.1,1.7,12.4,4.3,17.2l9.1-11.4
		c2-2.5,2.2-1.8-0.3-4c-1.3-1.2-2.4-2.3-3.3-3.8c-1.6-2.7-1-3.6,0.1-6.3c2.1-5.2,2.6-8,5.9-13.2c1.9-3,3.9,0.5,4.9,2.6
		c2.9,6.6,1.8,12.4,7.5,23c-1.3,9.4-1.3,21.9,1.4,31.2c5.4,18,24.1,29.9,25,37.2c1.1,9.3-11.2,15.3-11.1,23.9
		c0.2,12.8,11.3,30.1,11.3,43.6c0,1.3-2.2,2.2-3.7,3c-9.7,5-21,10.8-32,21.6c-1,1.8-1,7.3-0.7,11.3c2.9-0.7,8.5-2.9,12.6-5.5
		c1.8-1.3,0-4.7,0-7.1c0.1-0.3,0.6-0.4,1.1-0.5c8.5-8.7,20.1-15.4,34.2-16.2c0.8,0,1.6-0.7,1.6-2.3c0.2-6.3-0.9-11-0.6-17.4
		c1.1-1.6,1.8-1,2.4,0.6c2.9,8.4,5.6,12.9,8.7,17.5c2.7,4,2.7,5,2.6,9.8c-0.1,6-0.3,12.3-2.2,17.2c-1.2,2.9-1,7.7-2.9,10.1
		c-4.3,5.3-11.1,6.1-14,13.9c-0.2,0.7,2.8,1.3,8.3,0.9c1.9-0.1,6.6-0.6,7.2-1.2c1.1-1.7,0.7-4.5,1.7-6.9c1.3-3,3-5.3,4.9-6.8
		c2-1.5,2.6-1.6,2.4-4.1c-0.7-6.9-1-17.7,3.9-28.7c1.4-3.2,1.6-4.6-0.6-7.5c-4.2-5.4-7.1-10.6-7.4-17.6
		c-0.3-8.3,10.9-13.2,15.7-19.8c3.3-4.5,4.1-6.1,4.8-12.9c2-0.2,3.4-0.5,4.2,1.2c1.5,3.2-1.7,8.6,1.1,10.9c2.2,1.7,5.5,3.1,8.1,4.4
		c1.8,0.9,1.5,2.8,1,4.5c-1.9,6-9.8,6.5-10.8,10.4c-0.9,3.6,3.3,6.1,3.9,7.7c1.8,5-5.4,5-5,10.8c0.4,4.9,5.2,6.8,12.1,7
		c3.7,0.1,6.4,1.8,6.8,1.9c0.3-1.2-1.9-4-4.8-5.4c-3.7-1.7-8.5-2-8.8-4.2c-0.8-5.6,7.2-6.1,7.1-8.5c-0.1-2.6-2.5-3.9-2-4.6
		c4.2-2.4,3.4-3.5,3.6-5.9c0.1-1.5,4-0.3,5-1.2c1.4-1.2,0.3-6.2,2.6-6.3c0.5,0,1.2,0.3,1.9,0.8c1,0.9,2,2.3,2.5,2.8
		c-0.2-1.5-0.6-2.2-1-2.9c-1-2-4-4.1-3.7-5.2c1.1-4.4,8.3-5.2,8.2-10.3c0-4.7-6.7-4.7-6.6-7.9c0-1.2,4-2.2,4-3.4
		c0-0.6-3.2-2.1-4.7-2.1c-2.1-0.7-5.9,1.2-10.1,2.3c-1.9,0.5-3.5,0.3-4.3-0.4c-0.5-0.4-0.3-2.1,1.3-3.4c2.1-1.7,6.2-1.5,4.1-3
		c-1.7-1.2-4.5-1.4-7.1-0.4c-3.3,1.4-5.7,4.6-7.7,3.7c-4.2-31.2-18.2-38.1-21.2-43.2c0.3-3.8,0.9-4.9,1.4-7.7c0.4-2.2,1-4.2,0.9-5.7
		c-0.1-1.7-1.6-3.6-3.2-5.5s-3.2-4.1-4.2-5.7c-1.2-1.8-0.5-5.2,2.9-4.2c2.4,0.7,5.3,2.9,8.2,4.6c3.6,2.1,7.8,2.5,10.9,0.8
		c-7.8-1.5-14.7-6.3-12-10.8c2.2-3.6,10-0.1,13,4.3c0.4-4.7-4.1-7.8-7.1-9.7c-2.1-1.3-0.7-4.6,2.1-4.8c2.8-0.1,5.3,2.6,10,3.3
		c4.1,0.6,12.1-1.3,14.6,1c0.1-0.8-0.3-2.9-2.8-4.3c-2.7-1.5-7.8-0.7-10.9-1.9c-2.1-0.8-3.5-2.6-2.7-4.3c0.7-1.4,3.1-3.1,5.1-2.9
		c8.5,0.7,11.1-0.7,12.9-3.3c-4.8,1.1-9,0.3-10.9-0.8c-2.9-1.6-2.7-4.7-2.2-5.6c1.9-3.6,4.7-3.1,6.5-4.9c1.6-1.8,3.6-3.5,5.2-4.2
		c1.3-0.6-1.1,3.8-0.5,8.6c0.4,3.2,2.4,4.2,3.1,4.5c3.5,1.6,9-0.1,8.9-10.1c-2.3,5.9-6.2,9.1-7.7,5.7c-1.4-3.2,7.9-15.7-0.2-17.9
		c-6-1.6-8,9-12.2,6.1c-0.5-0.4-1.5-0.8,2.2-3c4.3-2.5,2.5-7,3.3-9.4c1.7-4.8,7.8-5.6,11.4,1.4c0.1-5.8-3.6-11.2-11.8-9
		c0.8-4,0.2-9-2.3-13.9c-0.4-3.6-2.1-6.8-5.2-9.3c2.5,3.9,3.6,6.8,3.3,9.3c-0.1,0.4-1.1,0.6-2.9,2.3c-2-0.5-4.5-0.6-5.7-0.8
		c-0.4-2.5-0.1-8.5-4.3-9.3c-4-0.8-7.6,3.3-10.4,6.3c-2,0.3-5.1,0-7.3,0.3c-7.8,1-16.2,4.3-23.5,4.7c-3.7,0.2-7.4-1.3-10.3-1
		c-2.6,0.2-3.7,2.4-4.1,4.9c-0.4,2.4,0.3,5.1,0.6,7.7c0.2,2.4,2.8,3.7,5.1,4.1c2.2,0.4,5-0.3,7.3-1c5.6,1.7,11.1,3.7,17.2,8.9
		c-2.1,3.9-10,7.8-15.8,9.7c-5,1.6-10.9,2.9-15.8,4.7C410.3,248.4,408.8,251,406.7,253.7L406.7,253.7L406.7,253.7z"/>
	<path id="path4567" inkscape:connector-curvature="0" inkscape:transform-center-x="132.4586" class="st1" d="M204.6,253.7
		c3.6-3.3,5.9-7.2,8.7-11c2-2.7,2.5-2.6,5.8-2.5c2.2,0,4.3,0.3,6.3,1.3c1,0.5,2.2,2.1,3.3,3.6c6.4,8.4,8.5,17,11.7,27.6
		c-0.3,8.1-1.7,12.4-4.3,17.2l-9.1-11.4c-2-2.5-2.2-1.8,0.3-4c1.3-1.2,2.4-2.3,3.3-3.8c1.6-2.7,1-3.6-0.1-6.3
		c-2.1-5.2-2.6-8-5.9-13.2c-1.9-3-3.9,0.5-4.9,2.6c-2.9,6.6-1.8,12.4-7.5,23c1.3,9.4,1.3,21.9-1.4,31.2c-5.4,18-24.1,29.9-25,37.2
		c-1.1,9.3,11.2,15.3,11.1,23.9c-0.2,12.8-11.3,30.1-11.3,43.6c0,1.3,2.2,2.2,3.7,3c9.7,5,21,10.8,32,21.6c1,1.8,1,7.3,0.7,11.3
		c-2.9-0.7-8.5-2.9-12.6-5.5c-1.8-1.3,0-4.7,0-7.1c-0.1-0.3-0.6-0.4-1.1-0.5c-8.5-8.7-20.1-15.4-34.2-16.2c-0.8,0-1.6-0.7-1.6-2.3
		c-0.2-6.3,0.9-11,0.6-17.4c-1.1-1.6-1.8-1-2.4,0.6c-2.9,8.4-5.6,12.9-8.7,17.5c-2.7,4-2.7,5-2.6,9.8c0.1,6,0.3,12.3,2.2,17.2
		c1.2,2.9,1,7.7,2.9,10.1c4.3,5.3,11.1,6.1,14,13.9c0.2,0.7-2.8,1.3-8.3,0.9c-1.9-0.1-6.6-0.6-7.2-1.2c-1.1-1.7-0.7-4.5-1.7-6.9
		c-1.3-3-3-5.3-4.9-6.8c-2-1.5-2.6-1.6-2.4-4.1c0.7-6.9,1-17.7-3.9-28.7c-1.4-3.2-1.6-4.6,0.6-7.5c4.2-5.4,7.1-10.6,7.4-17.6
		c0.3-8.3-10.9-13.2-15.7-19.8c-3.3-4.5-4.1-6.1-4.8-12.9c-2-0.2-3.4-0.5-4.2,1.2c-1.5,3.2,1.7,8.6-1.1,10.9
		c-2.2,1.7-5.5,3.1-8.1,4.4c-1.8,0.9-1.5,2.8-1,4.5c1.9,6,9.8,6.5,10.8,10.4c0.9,3.6-3.3,6.1-3.9,7.7c-1.8,5,5.4,5,5,10.8
		c-0.4,4.9-5.2,6.8-12.1,7c-3.7,0.1-6.4,1.8-6.8,1.9c-0.3-1.2,1.9-4,4.8-5.4c3.7-1.7,8.5-2,8.8-4.2c0.8-5.6-7.2-6.1-7.1-8.5
		c0.1-2.6,2.5-3.9,2-4.6c-4.2-2.4-3.4-3.5-3.6-5.9c-0.1-1.5-4-0.3-5-1.2c-1.4-1.2-0.3-6.2-2.6-6.3c-0.5,0-1.2,0.3-1.9,0.8
		c-1,0.9-2,2.3-2.5,2.8c0.2-1.5,0.6-2.2,1-2.9c1-2,4-4.1,3.7-5.2c-1.1-4.4-8.3-5.2-8.2-10.3c0-4.7,6.7-4.7,6.6-7.9
		c0-1.2-4-2.2-4-3.4c0-0.6,3.2-2.1,4.7-2.1c2.1-0.7,5.9,1.2,10.1,2.3c1.9,0.5,3.5,0.3,4.3-0.4c0.5-0.4,0.3-2.1-1.3-3.4
		c-2.1-1.7-6.2-1.5-4.1-3c1.7-1.2,4.5-1.4,7.1-0.4c3.3,1.4,5.7,4.6,7.7,3.7c4.2-31.2,18.2-38.1,21.2-43.2c-0.3-3.8-0.9-4.9-1.4-7.7
		c-0.4-2.2-1-4.2-0.9-5.7c0.1-1.7,1.6-3.6,3.2-5.5s3.2-4.1,4.2-5.7c1.2-1.8,0.5-5.2-2.9-4.2c-2.4,0.7-5.3,2.9-8.2,4.6
		c-3.6,2.1-7.8,2.5-10.9,0.8c7.8-1.5,14.7-6.3,12-10.8c-2.2-3.6-10-0.1-13,4.3c-0.4-4.7,4.1-7.8,7.1-9.7c2.1-1.3,0.7-4.6-2.1-4.8
		c-2.8-0.1-5.3,2.6-10,3.3c-4.1,0.6-12.1-1.3-14.6,1c-0.1-0.8,0.3-2.9,2.8-4.3c2.7-1.5,7.8-0.7,10.9-1.9c2.1-0.8,3.5-2.6,2.7-4.3
		c-0.7-1.4-3.1-3.1-5.1-2.9c-8.5,0.7-11.1-0.7-12.9-3.3c4.8,1.1,9,0.3,10.9-0.8c2.9-1.6,2.7-4.7,2.2-5.6c-1.9-3.6-4.7-3.1-6.5-4.9
		c-1.6-1.8-3.6-3.5-5.2-4.2c-1.3-0.6,1.1,3.8,0.5,8.6c-0.4,3.2-2.4,4.2-3.1,4.5c-3.5,1.6-9-0.1-8.9-10.1c2.3,5.9,6.2,9.1,7.7,5.7
		c1.4-3.2-7.9-15.7,0.2-17.9c6-1.6,8,9,12.2,6.1c0.5-0.4,1.5-0.8-2.2-3c-4.3-2.5-2.5-7-3.3-9.4c-1.7-4.8-7.8-5.6-11.4,1.4
		c-0.1-5.8,3.6-11.2,11.8-9c-0.8-4-0.2-9,2.3-13.9c0.4-3.6,2.1-6.8,5.2-9.3c-2.5,3.9-3.6,6.8-3.3,9.3c0.1,0.4,1.1,0.6,2.9,2.3
		c2-0.5,4.5-0.6,5.7-0.8c0.4-2.5,0.1-8.5,4.3-9.3c4-0.8,7.6,3.3,10.4,6.3c2,0.3,5.1,0,7.3,0.3c7.8,1,16.2,4.3,23.5,4.7
		c3.7,0.2,7.4-1.3,10.3-1c2.6,0.2,3.7,2.4,4.1,4.9c0.4,2.4-0.3,5.1-0.6,7.7c-0.2,2.4-2.8,3.7-5.1,4.1c-2.2,0.4-5-0.3-7.3-1
		c-5.6,1.7-11.1,3.7-17.2,8.9c2.1,3.9,10,7.8,15.8,9.7c5,1.6,10.9,2.9,15.8,4.7C201,248.4,202.5,251,204.6,253.7L204.6,253.7
		L204.6,253.7z"/>
	<path id="path3190" inkscape:connector-curvature="0" class="st2" d="M376.1,412.2l4.6-6.3c-0.1,0.9,0.7,1.7,1.3,2.2l4.5,3.3
		l5.8-7.9l-4.5-3.2c-0.7-0.5-1.7-1-2.5-0.7l4.6-6.3c-0.1,0.9,0.7,1.7,1.3,2.2l12.6,9.3c0.7,0.5,1.5,0.9,2.5,0.7l-4.5,6.3
		c0-0.9-0.7-1.7-1.3-2.2l-6.1-4.5l-5.8,7.9l6.1,4.5c0.7,0.5,1.5,0.9,2.5,0.7l-4.5,6.3c0-0.9-0.7-1.7-1.3-2.2l-12.6-9.2
		C377.9,412.3,376.9,411.9,376.1,412.2L376.1,412.2L376.1,412.2z"/>
	<path id="path3192" inkscape:connector-curvature="0" class="st2" d="M237.6,432.1l2.3-8.5l-8.1,3.7L237.6,432.1L237.6,432.1z
		 M241.3,417.9l3.9,3.3l-4.5,19.8c-0.2,0.9-0.3,2.1,0.2,3.2l-6-5c0.8-0.3,1-1.1,1.2-2l0.6-2.3l-7.7-6.4l-2.1,0.9
		c-0.9,0.4-1.6,0.9-1.8,1.6l-6-5c1.2,0.2,2.4,0,3.2-0.4L241.3,417.9L241.3,417.9z"/>
	<path id="path3194" inkscape:connector-curvature="0" class="st2" d="M290.7,454.5l-2.4-8.5l-5,7.3L290.7,454.5L290.7,454.5z
		 M286.6,440.4l5,0.9l6.2,19.3c0.3,0.9,0.9,1.9,1.8,2.7l-7.7-1.3c0.5-0.6,0.3-1.4,0.1-2.4l-0.7-2.3l-9.9-1.7l-1.3,1.9
		c-0.6,0.8-0.9,1.5-0.8,2.3l-7.7-1.3c1.1-0.4,2-1.2,2.6-2L286.6,440.4L286.6,440.4L286.6,440.4z"/>
	<path id="path3196" inkscape:connector-curvature="0" class="st2" d="M351,445.5l-6.5-6l-0.4,8.8L351,445.5L351,445.5z
		 M340.1,435.6l4.7-2l15.5,13.1c0.8,0.7,1.7,1.1,2.9,1.3l-7.2,3c0.1-0.8-0.5-1.4-1.2-2.1l-1.7-1.6l-9.2,3.9l-0.1,2.4
		c0,0.9,0,1.8,0.6,2.3l-7.2,3c0.8-0.9,1-2.1,1.1-3L340.1,435.6L340.1,435.6L340.1,435.6z"/>
	<path id="path3198" inkscape:connector-curvature="0" class="st2" d="M318.4,444l-7.6,0.9l0.6,5.3l7.8-0.9c2.4-0.3,3.2-1.7,2.9-3.4
		C321.8,444.2,320.2,443.8,318.4,444L318.4,444L318.4,444z M320,451.9l-8.3,0.9l0.9,7l8.4-0.9c3-0.4,3.9-2.7,3.6-4
		C324.2,453.6,323.5,451.5,320,451.9L320,451.9L320,451.9z M303.7,442.9L320,441c6.4-0.8,7.7,2,7.9,4.1c0.1,1.7,0,3.8-3.9,4.9
		c5.9-0.6,6.6,3.7,6.7,4.9c0.3,3.2-1.9,5.7-7.3,6.3l-13.5,1.5l0,0l-4,0.5c0.7-0.7,0.8-1.6,0.7-2.5l-1.8-15.5
		C304.7,444.5,304.4,443.3,303.7,442.9L303.7,442.9L303.7,442.9z"/>
	<path id="path3200" inkscape:connector-curvature="0" class="st2" d="M258.4,439.3l1.6,0.8l2.8,1.3c2.2,0.9,3.6,0.2,4.3-1.4
		c0.7-1.6-0.5-2.7-2.2-3.5l-2.7-1.2l-1.6-0.8l-0.5-0.2l-2.2,4.8L258.4,439.3L258.4,439.3z M267.9,434.7c6,2.7,5.6,5.7,4.6,7.6
		c-0.8,1.5-2,3.2-5.9,2.3c1.9,0.9,2.2,2.2,2.2,3.5c0,1.4-0.5,2.8-0.8,3.5c-0.6,1.3-1.6,4.1-0.5,5.6c-0.6-0.3-1.6-0.8-2.4-1
		c-1.7-0.8-2.8-1.7-3-3.7c-0.1-1.5,0.5-3.1,0.9-4c0.5-1.2,1.5-3.2-1.7-4.7l-2.4-1l-1.6-0.8l-0.5-0.2l-2.9,6.4
		c-0.4,0.9-0.7,1.9-0.2,2.8l-3.4-1.5l0,0l-3.7-1.6c0.9-0.3,1.5-0.9,1.8-1.8l6.4-14.2c0.4-0.8,0.7-2,0.1-2.7L267.9,434.7L267.9,434.7
		L267.9,434.7z"/>
	<path id="path3202" inkscape:connector-curvature="0" class="st2" d="M373.5,427.9l6-4.9c-0.3,0.8,0.2,1.8,0.8,2.5l5.7,6.8
		c-1.6,1.2-2.7,1.6-3.8,1.9c-0.9,1.6-2.2,3.1-4,4.5c-6.5,5.1-12.4,4.1-16.1-0.4s-4.1-10.6,2.7-15.9c1.4-1.1,2.8-2,4.2-2.6
		c0.9-0.4,2.5-0.9,2.6-2.7l1.1-0.6l3.9,5.4l-1.7,1.4c-2.4-1.4-5.6-1.3-8.4,1c-4,3.3-2.2,6.7,0.6,10c2.7,3.3,6,5.3,9.7,2.3
		c1.6-1.3,2.3-2.7,2.3-4.2l-2.8-3.5C375.2,428.5,374.4,427.8,373.5,427.9L373.5,427.9z"/>
	<path class="st2" d="M226.8,400.3L226.8,400.3c-4.6-7.1-10.8-7.3-15.6-4c-3,2.1-4.7,5.2-4.5,8.9c-0.6-0.3-1.2-0.5-1.9-0.5l-0.1,2.1
		c0.9,0,2.3,1.3,3.1,2.7c0.1,0.3,0.3,0.7,0.5,0.9c0,0.1,0.1,0.2,0.1,0.3c0.9,2.8-0.3,4.9,0.9,7.6c0.9,1.9,2.8,2.9,4.7,3.2l0.5-1.6
		c-0.9-0.6-1.6-1.5-2-2.5c-0.3-0.7-0.5-1.4-0.6-2.1c4.2,3.8,9,3.5,13,0.8C229.9,413,231.6,407.4,226.8,400.3z M221.4,411.2
		c-3.6,2.5-7.2,3.5-9.9-0.4s-0.5-6.9,3-9.4c3.6-2.5,7.1-4,10,0.3C227.6,405.9,225,408.7,221.4,411.2z"/>
	<path id="path3182" inkscape:connector-curvature="0" class="st2" d="M276.8,232.1l4.8,12.3c0.3,0.9,0.6,1.5,0.8,1.7
		c0.2,0.2,0.5,0.3,0.9,0.4s1-0.1,1.7-0.3l0.4-0.1l0.1,0.4l-10.3,3.5l-0.1-0.4l0.6-0.2c0.8-0.3,1.4-0.6,1.7-0.8
		c0.3-0.3,0.5-0.6,0.5-0.8c0-0.3-0.1-0.9-0.5-1.9l-3-7.8c-0.3-0.7-0.5-1.1-0.6-1.2c-0.1-0.1-0.3-0.2-0.7-0.3c-0.3-0.1-0.6,0-0.9,0.1
		c-0.5,0.1-1,0.5-1.7,1l-0.4-0.3l6.2-5L276.8,232.1L276.8,232.1z"/>
	<path id="path3184" inkscape:connector-curvature="0" class="st2" d="M297.6,238.4c0.1-0.9,0.1-1.7,0.1-2.4
		c-0.1-1.5-0.3-2.9-0.8-4.1c-0.3-0.7-0.6-1.2-1.1-1.5c-0.3-0.1-0.6-0.3-1-0.2c-0.5,0-0.9,0.2-1.1,0.6c-0.3,0.5-0.6,1.5-0.5,2.8
		c0.1,2.3,0.4,3.8,1.1,4.6c0.4,0.6,1,0.8,1.7,0.8C296.5,238.9,297,238.7,297.6,238.4L297.6,238.4L297.6,238.4z M289.4,246.8v-0.3
		c1.6-0.3,3-0.9,4.1-1.5s2-1.5,2.6-2.4s1.1-1.9,1.3-3.1c-0.6,0.3-1.1,0.5-1.5,0.6s-0.9,0.2-1.3,0.2c-1.5,0.1-2.8-0.3-3.8-1.2
		s-1.6-2.1-1.7-3.7c0-1.1,0.2-2.1,0.8-3c0.5-0.9,1.2-1.7,2.3-2.2c1-0.6,2.1-0.8,3.1-0.9c1.2-0.1,2.3,0.2,3.3,0.7s1.9,1.3,2.6,2.4
		c0.6,1,1,2.2,1,3.6c0.1,1.7-0.4,3.5-1.4,5.1c-1,1.7-2.4,3-4.4,4C294.5,246,292.1,246.6,289.4,246.8L289.4,246.8L289.4,246.8z"/>
	<path id="path3186" inkscape:connector-curvature="0" class="st2" d="M312.6,238.2c-0.3,0.2-0.6,0.4-0.8,0.6
		c-0.2,0.3-0.5,0.7-0.7,1.2c-0.2,0.6-0.4,1.1-0.5,1.7c-0.1,0.8-0.1,1.4,0.1,1.9c0.1,0.6,0.5,1,0.9,1.2s0.8,0.4,1.3,0.5
		c0.7,0.1,1.4-0.1,1.9-0.5c0.6-0.4,0.9-1,1-1.7C316,241.6,314.9,239.9,312.6,238.2L312.6,238.2z M315.8,236c0.4-0.3,0.8-0.8,1-1.3
		c0.3-0.5,0.4-1,0.5-1.7c0.1-1,0-1.9-0.5-2.5c-0.3-0.5-0.9-0.8-1.7-0.8c-0.7-0.1-1.2,0.1-1.7,0.4c-0.5,0.3-0.8,0.8-0.9,1.4
		c-0.1,0.6,0.1,1.2,0.6,1.9C313.6,234.2,314.4,235,315.8,236L315.8,236z M316.9,236.6c1.3,1,2.1,1.9,2.6,2.7s0.6,1.7,0.5,2.6
		c-0.2,1.3-0.9,2.4-2.3,3.2c-1.3,0.8-3,1.1-5.1,0.9c-2-0.2-3.5-0.8-4.4-1.7c-1-0.9-1.4-1.9-1.2-3.1c0.1-0.9,0.6-1.7,1.2-2.2
		c0.7-0.6,1.8-1.1,3.4-1.5c-1.5-1.2-2.4-2.1-2.7-2.8c-0.3-0.7-0.5-1.5-0.4-2.3c0.1-1.1,0.8-2,2.1-2.8c1.2-0.8,2.8-1,4.8-0.8
		c1.9,0.2,3.3,0.7,4.2,1.5c1,0.8,1.3,1.8,1.2,2.8c-0.1,0.8-0.5,1.5-1.1,2C319.1,235.9,318.1,236.3,316.9,236.6L316.9,236.6
		L316.9,236.6z"/>
	<path id="path3188" inkscape:connector-curvature="0" class="st2" d="M326.5,248.3l10.2-11.2l-4-1.2c-1.6-0.5-2.8-0.7-3.7-0.6
		c-0.6,0.1-1.2,0.3-1.9,0.9l-0.6-0.1l3.2-4.4l11.5,3.5L328.6,249L326.5,248.3L326.5,248.3z"/>
	<path id="path4605" inkscape:connector-curvature="0" sodipodi:nodetypes="cscccccscscsc" class="st0" d="M285.6,158.4
		c0,0-3.7,6.5-7.4,6.8c-5,0.4-10.6-4.3-10.6-4.3l9.8,27.7h27.5h27.5l9.8-27.7c0,0-5.6,4.7-10.5,4.3c-3.6-0.3-7.4-6.8-7.4-6.8
		s-4.1,7.8-10,7.9c-4.7,0.1-9.4-8-9.4-8s-4.7,8.1-9.4,8C289.7,166.1,285.6,158.4,285.6,158.4z"/>
	
		<path id="path4612" sodipodi:cx="-239.28261" sodipodi:cy="322.23914" sodipodi:rx="3.423913" sodipodi:ry="3.423913" sodipodi:type="arc" class="st0" d="
		M291.4,147.3c0,2.9-2.3,5.2-5.2,5.2s-5.2-2.3-5.2-5.2s2.3-5.2,5.2-5.2C289,142.1,291.4,144.5,291.4,147.3z"/>
	
		<path id="path4614" sodipodi:cx="-239.28261" sodipodi:cy="322.23914" sodipodi:rx="3.423913" sodipodi:ry="3.423913" sodipodi:type="arc" class="st0" d="
		M272.1,152c0,2.9-2.3,5.2-5.2,5.2c-2.9,0-5.2-2.3-5.2-5.2s2.3-5.2,5.2-5.2S272.1,149.1,272.1,152z"/>
	
		<path id="path4622" sodipodi:cx="-239.28261" sodipodi:cy="322.23914" sodipodi:rx="3.423913" sodipodi:ry="3.423913" sodipodi:type="arc" class="st0" d="
		M318.6,147.3c0,2.9,2.3,5.2,5.2,5.2s5.2-2.3,5.2-5.2s-2.3-5.2-5.2-5.2S318.6,144.5,318.6,147.3z"/>
	
		<path id="path4624" sodipodi:cx="-239.28261" sodipodi:cy="322.23914" sodipodi:rx="3.423913" sodipodi:ry="3.423913" sodipodi:type="arc" class="st0" d="
		M337.9,152c0,2.9,2.3,5.2,5.2,5.2s5.2-2.3,5.2-5.2s-2.3-5.2-5.2-5.2S337.9,149.1,337.9,152z"/>
	
		<path id="path4628" sodipodi:cx="-239.28261" sodipodi:cy="322.23914" sodipodi:rx="3.423913" sodipodi:ry="3.423913" sodipodi:type="arc" class="st0" d="
		M299.8,144.5c0,2.9,2.3,5.2,5.2,5.2s5.2-2.3,5.2-5.2s-2.3-5.2-5.2-5.2S299.8,141.6,299.8,144.5z"/>
	
		<path id="path4639" inkscape:flatsided="false" inkscape:randomized="0" inkscape:rounded="0" inkscape:transform-center-x="-0.51301881" inkscape:transform-center-y="1.0445616" sodipodi:arg1="1.4677147" sodipodi:arg2="2.0960332" sodipodi:cx="-373.53683" sodipodi:cy="659.82965" sodipodi:r1="16.133892" sodipodi:r2="6.1356945" sodipodi:sides="5" sodipodi:type="star" class="st0" d="
		M185,455.1l-4.7-10.7l-11.7,1.2l8.8-7.8l-4.8-10.7l10.1,5.9l8.7-7.9l-2.5,11.5l10.2,5.9l-11.7,1.2L185,455.1z"/>
	
		<path id="path4641" inkscape:flatsided="false" inkscape:randomized="0" inkscape:rounded="0" inkscape:transform-center-x="-0.65059593" inkscape:transform-center-y="-0.68321523" sodipodi:arg1="1.4677147" sodipodi:arg2="2.0960332" sodipodi:cx="-373.53683" sodipodi:cy="659.82965" sodipodi:r1="16.133892" sodipodi:r2="6.1356945" sodipodi:sides="5" sodipodi:type="star" class="st0" d="
		M212,470.7l-7.1-7.1l-8.9,4.6l4.5-9l-7.1-7.1l9.9,1.6l4.5-9l1.6,9.9l9.9,1.5l-8.9,4.6L212,470.7z"/>
	
		<path id="path4643" inkscape:flatsided="false" inkscape:randomized="0" inkscape:rounded="0" inkscape:transform-center-x="1.0815131" inkscape:transform-center-y="0.24569087" sodipodi:arg1="1.4677147" sodipodi:arg2="2.0960332" sodipodi:cx="-373.53683" sodipodi:cy="659.82965" sodipodi:r1="16.133892" sodipodi:r2="6.1356945" sodipodi:sides="5" sodipodi:type="star" class="st0" d="
		M207.9,493l-9.7-2.6l-5.4,8.5l-0.6-10l-9.7-2.5l9.4-3.6l-0.6-10l6.3,7.8l9.3-3.7l-5.4,8.4L207.9,493z"/>
	
		<path id="path4645" inkscape:flatsided="false" inkscape:randomized="0" inkscape:rounded="0" inkscape:transform-center-x="-0.44992733" inkscape:transform-center-y="-0.72635095" sodipodi:arg1="1.4677147" sodipodi:arg2="2.0960332" sodipodi:cx="-373.53683" sodipodi:cy="659.82965" sodipodi:r1="16.133892" sodipodi:r2="6.1356945" sodipodi:sides="5" sodipodi:type="star" class="st0" d="
		M236.4,488.2l-6.5-6l-7.7,4.3l3.7-8l-6.5-6l8.8,1.1l3.7-8l1.7,8.7l8.8,1l-7.7,4.3L236.4,488.2z"/>
	
		<path id="path4647" inkscape:flatsided="false" inkscape:randomized="0" inkscape:rounded="0" inkscape:transform-center-x="0.13324556" inkscape:transform-center-y="0.85143118" sodipodi:arg1="1.4677147" sodipodi:arg2="2.0960332" sodipodi:cx="-373.53683" sodipodi:cy="659.82965" sodipodi:r1="16.133892" sodipodi:r2="6.1356945" sodipodi:sides="5" sodipodi:type="star" class="st0" d="
		M231.6,502.2l-7.5-0.3l-2.6,7l-2-7.2l-7.5-0.3l6.2-4.1l-2-7.2l5.8,4.6l6.2-4.1l-2.6,7L231.6,502.2z"/>
	
		<path id="path4649" inkscape:flatsided="false" inkscape:randomized="0" inkscape:rounded="0" inkscape:transform-center-x="0.36484891" inkscape:transform-center-y="0.89437489" sodipodi:arg1="1.4677147" sodipodi:arg2="2.0960332" sodipodi:cx="-373.53683" sodipodi:cy="659.82965" sodipodi:r1="16.133892" sodipodi:r2="6.1356945" sodipodi:sides="5" sodipodi:type="star" class="st0" d="
		M263.3,503l-9.5-0.9l-3.7,8.7l-2.1-9.3l-9.5-0.8l8.2-4.8l-2.1-9.3l7.1,6.3l8.1-4.9l-3.8,8.7L263.3,503z"/>
	
		<path id="path4651" inkscape:flatsided="false" inkscape:randomized="0" inkscape:rounded="0" inkscape:transform-center-x="-1.1639413" inkscape:transform-center-y="-0.086495792" sodipodi:arg1="1.4677147" sodipodi:arg2="2.0960332" sodipodi:cx="-373.53683" sodipodi:cy="659.82965" sodipodi:r1="16.133892" sodipodi:r2="6.1356945" sodipodi:sides="5" sodipodi:type="star" class="st0" d="
		M293.1,501.5l-9,3.1l0.2,9.5l-5.7-7.6l-9,3.1l5.4-7.8l-5.8-7.6l9.1,2.8l5.4-7.8l0.2,9.5L293.1,501.5z"/>
	
		<path id="path4653" inkscape:flatsided="false" inkscape:randomized="0" inkscape:rounded="0" inkscape:transform-center-x="0.13324556" inkscape:transform-center-y="0.85143118" sodipodi:arg1="1.4677147" sodipodi:arg2="2.0960332" sodipodi:cx="-373.53683" sodipodi:cy="659.82965" sodipodi:r1="16.133892" sodipodi:r2="6.1356945" sodipodi:sides="5" sodipodi:type="star" class="st0" d="
		M278.6,525.9l-7.5-0.3l-2.6,7l-2-7.2l-7.5-0.3l6.2-4.1l-2-7.2l5.8,4.6l6.2-4.1l-2.6,7L278.6,525.9z"/>
	
		<path id="path4655" inkscape:flatsided="false" inkscape:randomized="0" inkscape:rounded="0" inkscape:transform-center-x="-0.72810401" inkscape:transform-center-y="0.087685413" sodipodi:arg1="1.4677147" sodipodi:arg2="2.0960332" sodipodi:cx="-373.53683" sodipodi:cy="659.82965" sodipodi:r1="16.133892" sodipodi:r2="6.1356945" sodipodi:sides="5" sodipodi:type="star" class="st0" d="
		M302.6,526.4l-5.9,1.7l-0.2,6.2l-3.5-5.1l-5.9,1.7l3.8-4.9l-3.5-5.1l5.8,2.1l3.8-4.9l-0.2,6.2L302.6,526.4z"/>
	
		<path id="path4657" inkscape:flatsided="false" inkscape:randomized="0" inkscape:rounded="0" inkscape:transform-center-x="-0.034754554" inkscape:transform-center-y="-0.77883044" sodipodi:arg1="1.4677147" sodipodi:arg2="2.0960332" sodipodi:cx="-373.53683" sodipodi:cy="659.82965" sodipodi:r1="16.133892" sodipodi:r2="6.1356945" sodipodi:sides="5" sodipodi:type="star" class="st0" d="
		M314.8,544.8l-5.1,3.6l1.8,5.9l-4.9-3.7l-5,3.6l2-5.9l-5-3.7l6.2,0.1l2-5.9l1.8,5.9L314.8,544.8z"/>
	
		<path id="path4672" inkscape:flatsided="false" inkscape:randomized="0" inkscape:rounded="0" inkscape:transform-center-x="-0.51301881" inkscape:transform-center-y="1.0445616" sodipodi:arg1="1.4677147" sodipodi:arg2="2.0960332" sodipodi:cx="-373.53683" sodipodi:cy="659.82965" sodipodi:r1="16.133892" sodipodi:r2="6.1356945" sodipodi:sides="5" sodipodi:type="star" class="st0" d="
		M428.1,455.1l4.7-10.7l11.7,1.2l-8.8-7.8l4.8-10.7l-10.1,5.9l-8.7-7.9l2.5,11.5l-10.2,5.9l11.7,1.2L428.1,455.1z"/>
	
		<path id="path4674" inkscape:flatsided="false" inkscape:randomized="0" inkscape:rounded="0" inkscape:transform-center-x="-0.65059593" inkscape:transform-center-y="-0.68321523" sodipodi:arg1="1.4677147" sodipodi:arg2="2.0960332" sodipodi:cx="-373.53683" sodipodi:cy="659.82965" sodipodi:r1="16.133892" sodipodi:r2="6.1356945" sodipodi:sides="5" sodipodi:type="star" class="st0" d="
		M401.1,470.7l7.1-7.1l8.9,4.6l-4.5-9l7.1-7.1l-9.9,1.6l-4.5-9l-1.6,9.9l-9.9,1.5l8.9,4.6L401.1,470.7z"/>
	
		<path id="path4676" inkscape:flatsided="false" inkscape:randomized="0" inkscape:rounded="0" inkscape:transform-center-x="1.0815131" inkscape:transform-center-y="0.24569087" sodipodi:arg1="1.4677147" sodipodi:arg2="2.0960332" sodipodi:cx="-373.53683" sodipodi:cy="659.82965" sodipodi:r1="16.133892" sodipodi:r2="6.1356945" sodipodi:sides="5" sodipodi:type="star" class="st0" d="
		M405.2,493l9.7-2.6l5.4,8.5l0.6-10l9.7-2.5l-9.4-3.6l0.6-10l-6.3,7.8l-9.3-3.7l5.4,8.4L405.2,493z"/>
	
		<path id="path4678" inkscape:flatsided="false" inkscape:randomized="0" inkscape:rounded="0" inkscape:transform-center-x="-0.44992733" inkscape:transform-center-y="-0.72635095" sodipodi:arg1="1.4677147" sodipodi:arg2="2.0960332" sodipodi:cx="-373.53683" sodipodi:cy="659.82965" sodipodi:r1="16.133892" sodipodi:r2="6.1356945" sodipodi:sides="5" sodipodi:type="star" class="st0" d="
		M376.6,488.2l6.5-6l7.7,4.3l-3.7-8l6.5-6l-8.8,1.1l-3.7-8l-1.7,8.7l-8.8,1l7.7,4.3L376.6,488.2z"/>
	
		<path id="path4680" inkscape:flatsided="false" inkscape:randomized="0" inkscape:rounded="0" inkscape:transform-center-x="0.13324556" inkscape:transform-center-y="0.85143118" sodipodi:arg1="1.4677147" sodipodi:arg2="2.0960332" sodipodi:cx="-373.53683" sodipodi:cy="659.82965" sodipodi:r1="16.133892" sodipodi:r2="6.1356945" sodipodi:sides="5" sodipodi:type="star" class="st0" d="
		M381.5,502.2l7.5-0.3l2.6,7l2-7.2l7.5-0.3l-6.2-4.1l2-7.2l-5.8,4.6l-6.2-4.1l2.6,7L381.5,502.2z"/>
	
		<path id="path4682" inkscape:flatsided="false" inkscape:randomized="0" inkscape:rounded="0" inkscape:transform-center-x="0.36484891" inkscape:transform-center-y="0.89437489" sodipodi:arg1="1.4677147" sodipodi:arg2="2.0960332" sodipodi:cx="-373.53683" sodipodi:cy="659.82965" sodipodi:r1="16.133892" sodipodi:r2="6.1356945" sodipodi:sides="5" sodipodi:type="star" class="st0" d="
		M349.8,503l9.5-0.9l3.7,8.7l2.1-9.3l9.5-0.8l-8.2-4.8l2.1-9.3l-7.1,6.3l-8.1-4.9l3.8,8.7L349.8,503z"/>
	
		<path id="path4684" inkscape:flatsided="false" inkscape:randomized="0" inkscape:rounded="0" inkscape:transform-center-x="-1.1639413" inkscape:transform-center-y="-0.086495792" sodipodi:arg1="1.4677147" sodipodi:arg2="2.0960332" sodipodi:cx="-373.53683" sodipodi:cy="659.82965" sodipodi:r1="16.133892" sodipodi:r2="6.1356945" sodipodi:sides="5" sodipodi:type="star" class="st0" d="
		M320,501.5l9,3.1l-0.2,9.5l5.7-7.6l9,3.1l-5.4-7.8l5.8-7.6l-9.1,2.8l-5.4-7.8l-0.2,9.5L320,501.5z"/>
	
		<path id="path4686" inkscape:flatsided="false" inkscape:randomized="0" inkscape:rounded="0" inkscape:transform-center-x="0.13324556" inkscape:transform-center-y="0.85143118" sodipodi:arg1="1.4677147" sodipodi:arg2="2.0960332" sodipodi:cx="-373.53683" sodipodi:cy="659.82965" sodipodi:r1="16.133892" sodipodi:r2="6.1356945" sodipodi:sides="5" sodipodi:type="star" class="st0" d="
		M334.5,525.9l7.5-0.3l2.6,7l2-7.2l7.5-0.3l-6.2-4.1l2-7.2l-5.8,4.6l-6.2-4.1l2.6,7L334.5,525.9z"/>
	
		<path id="path4688" inkscape:flatsided="false" inkscape:randomized="0" inkscape:rounded="0" inkscape:transform-center-x="-0.72810401" inkscape:transform-center-y="0.087685413" sodipodi:arg1="1.4677147" sodipodi:arg2="2.0960332" sodipodi:cx="-373.53683" sodipodi:cy="659.82965" sodipodi:r1="16.133892" sodipodi:r2="6.1356945" sodipodi:sides="5" sodipodi:type="star" class="st0" d="
		M310.5,526.4l5.9,1.7l0.2,6.2l3.5-5.1l5.9,1.7l-3.8-4.9l3.5-5.1l-5.8,2.1l-3.8-4.9l0.2,6.2L310.5,526.4z"/>
	
		<path id="path4690" inkscape:flatsided="false" inkscape:randomized="0" inkscape:rounded="0" inkscape:transform-center-x="-1.7956241" inkscape:transform-center-y="45.688561" sodipodi:arg1="1.4677147" sodipodi:arg2="2.0960332" sodipodi:cx="-373.53683" sodipodi:cy="659.82965" sodipodi:r1="16.133892" sodipodi:r2="6.1356945" sodipodi:sides="5" sodipodi:type="star" class="st0" d="
		M314.3,501l-5.1,3.6l1.8,5.9l-4.9-3.7l-5,3.6l2-5.9l-5-3.7l6.2,0.1l2-5.9l1.8,5.9L314.3,501z"/>
</g>
</svg>
