<?xml version="1.0" encoding="utf-8"?>
<!-- Generator: Adobe Illustrator 21.1.0, SVG Export Plug-In . SVG Version: 6.00 Build 0)  -->
<svg version="1.1"
	 id="svg2985" inkscape:version="0.48.4 r9939" sodipodi:docname="Crest 1.svg" xmlns:cc="http://creativecommons.org/ns#" xmlns:dc="http://purl.org/dc/elements/1.1/" xmlns:inkscape="http://www.inkscape.org/namespaces/inkscape" xmlns:rdf="http://www.w3.org/1999/02/22-rdf-syntax-ns#" xmlns:sodipodi="http://sodipodi.sourceforge.net/DTD/sodipodi-0.dtd" xmlns:svg="http://www.w3.org/2000/svg"
	 xmlns="http://www.w3.org/2000/svg" xmlns:xlink="http://www.w3.org/1999/xlink" x="0px" y="0px" viewBox="0 0 500 500"
	 style="enable-background:new 0 0 500 500;" xml:space="preserve">
<style type="text/css">
	.st0{fill:#0C2577;stroke:#0C2577;stroke-width:1.0115;}
	.st1{fill:#FFFFFF;stroke:#0C2577;}
</style>
<g id="g3791">
	<rect id="rect3822" x="1.6" y="1.3" class="st0" width="499.5" height="499.5"/>
	<path id="path2995" inkscape:connector-curvature="0" sodipodi:nodetypes="cscccccccccccccccscccccccccccccccc" class="st1" d="
		M128.3,40.1c4,1.4,8.6,4.7,13.4,8.8c4.7,4,10.5,8.8,13.2,17.5l0,37.6l21.1-9.7l0-21.5c16.4-7.4,34.5-13.8,53.3-16.7
		c21.3-2.1,43.7-3.3,62.6,4c13.1,5.1,23.3,14,31.4,24.1c9.4,14.1,12.9,30.5,11.8,47.5c0.5,22.8-13,42.5-23.1,51.1
		c-11.5,11.3-27.4,16.8-41.8,20.3L176,204v-66.3l-19.9,13.9l-0.8,216.8c-2.3,16.4-4.1,21.8-11,31.2c-5,4.3-8.3,8.6-16.8,11.7
		c-2.1,0.8-5.7,1.6-8.2,2c3,1.8,8.5,3.7,13.5,5.1c9.5,1.8,20-0.1,30.3-11.4c6-7.7,12.6-14.5,12.9-32.8L176,223.3l59.7,0.4
		c39,8.8,51.6,39.2,56.8,56.1c15.8,2.2,21.6,0.7,24.5,0.3c-5.4-24-21.3-43.8-42.7-57.2c39.5-7.1,68.3-26.9,80.8-65.6
		c3.7-20.6,8.8-40.5-3.9-69.8c-14.9-30.4-45.4-47.1-74.8-52.4c-42.8-1.4-66.2,1.2-103.8,17.4c-4.8-6.6-11.6-12.7-22.1-13.6
		C143,38.6,135.6,38.2,128.3,40.1L128.3,40.1z"/>
	<path id="path3773" inkscape:connector-curvature="0" sodipodi:nodetypes="cccccccc" class="st1" d="M366.8,113.5
		c1.3,6.7,1.5,13.4,1.4,20.1l26.5,14.6c15,21.9,42.2,12.4,40.8-0.9c0.4-13-11.8-19.3-24.4-9.9c-10.3-14-7.7-25.9-1-31.7
		c-7.2,3.9-15.7,7.5-18.8,20.4C379.5,119.9,374.8,117.6,366.8,113.5L366.8,113.5z"/>
	<path id="path3775" inkscape:connector-curvature="0" sodipodi:nodetypes="cccc" class="st1" d="M366.5,147.5l-7.5,21.5
		c11.6,3,22.1,11.6,29.7,34.6C396.8,184.2,392.2,160,366.5,147.5z"/>
	<path id="path3777" inkscape:connector-curvature="0" sodipodi:nodetypes="ccccccccc" class="st1" d="M183.9,134.5
		c11.1,4.1,22.8,9.7,29.1,26.7l0.3,33.9l20.6-0.3l-0.3-28.8l83-0.3c4.2-6.5,7-13.3,8.8-20.6l-97.9-0.6
		C217.7,129.8,201.1,127.8,183.9,134.5L183.9,134.5z"/>
	<path id="path3779" inkscape:connector-curvature="0" sodipodi:nodetypes="cccccccccccc" class="st1" d="M213.3,232.4v107.9
		l20.3,3.9v-35.5l25.5-16.4c43,34.3,100.4,13.1,99.4-25.8c1.1-15.4-32-30-33-0.9c0.3,7.8,3.7,12.8,12.1,13.3
		c-11.8,16.6-52.4,15.3-76.7-9.4l-27.6,17v-54.2L213.3,232.4z"/>
	<path id="path3781" inkscape:connector-curvature="0" sodipodi:nodetypes="ccccc" class="st1" d="M183.9,339.4
		c25.2,9.9,48.8,20.6,114.8,12.4l4.2,18.5c-35.5,3.9-69.1,10.9-119.4-8.5L183.9,339.4z"/>
	<path id="path3783" inkscape:connector-curvature="0" sodipodi:nodetypes="cccccc" class="st1" d="M213.3,380.3l20.2,2
		c-3.9,80.1,19,81.2,37.4,90.6c-6,4.3-34.3,18-55.7-25.1c-17.5,12.6-26,7.3-34.5,2C199.5,444.3,216.5,434.8,213.3,380.3L213.3,380.3
		z"/>
	<path id="path3785" inkscape:connector-curvature="0" sodipodi:nodetypes="cccccc" class="st1" d="M302,316.7
		c8.2,36.9,10.8,117.1,75.9,105.4c18.8-8.2,12.8-23.5,4.4-28.1c-15.8-6.7-19.8,3-20.7,11.8c-27.8-8.8-33.7-57.7-38.4-90.6
		C316.1,320,309,318.4,302,316.7L302,316.7z"/>
	<path id="path3787" inkscape:connector-curvature="0" sodipodi:nodetypes="ccscccc" class="st1" d="M336.3,342.2l4.2,18.4
		c26.6-6.7,48.1-24.8,58.2-27.3c15.4-3.8,30.5-0.3,45.9,4c-6-17.2-19.6-21.6-35.3-22.5c3.2-12.8,1.3-22.6-7.8-28.2
		C401,326.8,360.8,326.5,336.3,342.2L336.3,342.2z"/>
	<path id="path3789" inkscape:connector-curvature="0" sodipodi:nodetypes="cccccccccc" class="st1" d="M325.5,117.9
		c-1.2-6.8-2-14.8-5.6-21.6c-51.7-10.6-102.9-15.1-152,10.5C110.6,137.5,80,180.4,65.2,230.6c14.1,50.1,41.7,86.8,80.6,112V313
		c-23.2-22.5-30.1-40.5-34.6-57.8c-29.5,1.2-34.6-45.5,0.7-47.3c4.6-12.5,0.8-35.6,62-79.4C222.6,104,273.6,105.2,325.5,117.9
		L325.5,117.9z"/>
</g>
</svg>
