<?xml version="1.0" encoding="utf-8"?>
<!-- Generator: Adobe Illustrator 21.1.0, SVG Export Plug-In . SVG Version: 6.00 Build 0)  -->
<svg version="1.1" id="Layer_1" xmlns="http://www.w3.org/2000/svg" xmlns:xlink="http://www.w3.org/1999/xlink" x="0px" y="0px"
	 viewBox="0 0 200 200" style="enable-background:new 0 0 200 200;" xml:space="preserve">
<style type="text/css">
	.st0{fill:#FFFFFF;}
	.st1{fill:none;stroke:#000000;stroke-width:0.51;}
	.st2{fill:#8D6B36;}
</style>
<g>
	<path id="path2503" class="st0" d="M0.4,121.9l98.8-35.6l100.4,35.7L98.8,159.5L0.4,121.9z"/>
	<path id="path2507" class="st0" d="M0.4,121.9l98.8-35.6l100.4,35.7L98.8,159.5L0.4,121.9z"/>
	<path id="path2511" class="st1" d="M0.4,121.9l98.8-35.6l100.4,35.7L98.8,159.5L0.4,121.9z"/>
	<path id="path2515" d="M11.6,122.5L99,90.1l89.2,32.1L99,155.3L11.6,122.5z"/>
	<path id="path2519" class="st0" d="M89.3,95.7v54.2l9.8,3.6l9.2-3.3V95.5L99,92.1L89.3,95.7z"/>
	<path id="path2531" class="st0" d="M74.4,115v7.8c0,0,2.3,0.6,3.6-0.8c1.4-1.4,1.3-1.9,1.3-3.5C79.3,116.8,78,115,74.4,115
		 M76.7,112.5c-0.1,0,5.7,0.2,5.7,5.6c0,5.4-2.7,6.4-2.7,6.4l2.7,9.6H79l-2.3-7.5c-1.4-2.1-2.4,0.2-2.4,0.2v7.4h-3.4v-21.7H76.7z"/>
	<path id="path2535" class="st0" d="M60,126.3c1.5,0,2.6-1.2,2.6-2.6c0-1.5-1.2-2.7-2.6-2.7s-2.7,1.2-2.7,2.7
		C57.3,125.1,58.5,126.3,60,126.3"/>
	<path id="path2539" d="M97.6,123.8v7.1c0,0-0.3,0.8,1.8,0.6c2.1-0.2,3.1-2.1,3-4.2c-0.1-2.1-1.2-4-4.2-3.9
		C98.3,123.5,97.6,123.5,97.6,123.8 M97.6,115v5.8c0,0,4,1.3,3.8-3.2C101.4,117.5,101,114,97.6,115 M93.9,112.8h6
		c1.2,0,5.7,0.9,5.7,4.7c0,3.8-2.3,5.1-2.3,5.1c3.2,0.9,3.5,4.6,3.5,4.6c-0.1,5.7-4.5,6.8-9.2,6.9c-4.7,0.1-4.3-0.5-4.3-0.5v-20.3
		C93,112.7,93.9,112.8,93.9,112.8"/>
	<path id="path2543" class="st0" d="M115.1,112.4v21.8h3.5V125c0,0.1,5.4,9.2,5.4,9.2h4.2l-6.6-12l6.3-9.6h-3.3l-5.5,7.9v-8.1H115.1
		z"/>
	<path id="path2547" class="st0" d="M138.1,126.5c1.5,0,2.7-1.2,2.7-2.7c0-1.5-1.2-2.6-2.7-2.6c-1.5,0-2.6,1.2-2.6,2.6
		C135.5,125.3,136.7,126.5,138.1,126.5"/>
	<path id="path2551" class="st0" d="M38.2,129.2h-2.4v-7.6h-2.1v-1.8c0.8,0.1,1.2-0.1,1.8-0.5c0.6-0.4,0.6-0.8,0.7-1.3h2.1V129.2z"
		/>
	<path id="path2555" class="st0" d="M46.4,123.1c0.4-0.4,0.5-0.8,0.5-1.2c0-0.8-0.3-1.6-0.6-1.8c-0.4-0.4-0.9-0.5-1.4-0.5
		c-0.5,0-1,0.3-1.5,0.7c-0.2,0.3-0.5,0.8-0.5,1.3c0,0.5,0.1,1.1,0.6,1.5c0.4,0.4,0.9,0.5,1.4,0.5C45.6,123.6,46.1,123.4,46.4,123.1
		 M43.4,126.5c-0.1,0.4,0.3,1.3,1.7,1.3c0.8,0,1.3-0.5,1.5-1.1c0.2-0.6,0.5-1.6,0.3-2.2c-0.3,0.4-0.8,0.7-1.3,0.8
		c-0.2,0.1-0.5,0.1-0.8,0.1c-0.3,0-0.6,0-0.9-0.1c-1-0.2-2-0.7-2.6-1.9c-0.3-0.5-0.4-1.2-0.4-1.7c0-0.8,0.2-1.6,0.5-2.2
		c0.6-1.1,1.9-1.9,3.4-1.9c4.2,0,4.6,4,4.6,5.3c0,1.8-0.4,3.6-1,4.6c-1,1.8-2.9,1.9-3.7,1.9c-2.9,0-3.9-2.3-3.7-3H43.4z"/>
	<path id="path2559" class="st0" d="M152.7,129.1h-2.5v-7.6h-2.1v-1.8c0.8,0.1,1.2-0.1,1.8-0.5c0.6-0.4,0.6-0.8,0.7-1.3h2.1V129.1z"
		/>
	<path id="path2563" class="st0" d="M156,117.9v1.9h4.3l-5.4,9.4h2.8l6.3-11.3H156z"/>
	<path id="path2603" class="st2" d="M71.4,55l5.1-14.5l5,14.5l15.4,0.3l-12.3,9.3l4.5,14.7l-12.6-8.8l-12.6,8.8l4.5-14.7L56,55.3
		L71.4,55z"/>
	<path id="path2607" class="st2" d="M116.3,55l5.1-14.5l5,14.5l15.4,0.3l-12.3,9.3l4.4,14.7l-12.6-8.8l-12.6,8.8l4.5-14.7l-12.3-9.3
		L116.3,55z"/>
</g>
</svg>
