<?xml version="1.0" encoding="utf-8"?>
<!-- Generator: Adobe Illustrator 21.1.0, SVG Export Plug-In . SVG Version: 6.00 Build 0)  -->
<svg version="1.1"
	 id="svg2" inkscape:version="0.48.4 r9939" sodipodi:docname="SC Freiburg.svg" xmlns:cc="http://creativecommons.org/ns#" xmlns:dc="http://purl.org/dc/elements/1.1/" xmlns:inkscape="http://www.inkscape.org/namespaces/inkscape" xmlns:rdf="http://www.w3.org/1999/02/22-rdf-syntax-ns#" xmlns:sodipodi="http://sodipodi.sourceforge.net/DTD/sodipodi-0.dtd" xmlns:svg="http://www.w3.org/2000/svg"
	 xmlns="http://www.w3.org/2000/svg" xmlns:xlink="http://www.w3.org/1999/xlink" x="0px" y="0px" viewBox="0 0 200 200"
	 style="enable-background:new 0 0 200 200;" xml:space="preserve">
<style type="text/css">
	.st0{fill:#1A171B;}
</style>
<g>
	<path id="path2991" inkscape:connector-curvature="0" class="st0" d="M97.8,0c8.7-0.4,17.5,1.6,25.3,5.5
		c10.8,5.4,19.8,14.1,26.6,23.9c5.5,8,9.9,16.8,13.1,26c4,11.5,6.3,23.5,7,35.6c1.3,21.6-2,43.7-11,63.6c-4,8.6-9,16.8-15.3,23.9
		c-6.7,7.6-15,14-24.4,17.8c-9.6,3.9-20.3,4.8-30.4,2.4c-8.9-2-17.2-6.6-24.1-12.4c-6.8-5.7-12.5-12.6-17.1-20.2
		c-5.5-8.9-9.6-18.7-12.4-28.8c-3.6-12.9-5.2-26.3-5-39.7c0.3-20.5,5-41.2,14.8-59.3c4.2-7.7,9.4-14.8,15.6-21
		c4.8-4.6,10.1-8.7,16.1-11.7C83.1,2.4,90.4,0.4,97.8,0 M96.7,5.2c-9.3,0.7-18.2,4.4-25.7,9.9c-7.5,5.5-13.6,12.6-18.6,20.4
		c-5.8,9.1-10,19.2-12.8,29.6c-4.3,15.7-5.5,32.2-3.9,48.3c1.1,10.8,3.4,21.5,7.2,31.8c3.5,9.5,8.4,18.6,14.6,26.6
		c5.9,7.4,13.1,13.9,21.6,18.2c9,4.6,19.5,6.2,29.4,4.3c8.8-1.7,16.9-6,23.8-11.7c7.6-6.4,13.7-14.5,18.5-23.2
		c5.3-9.7,9-20.2,11.3-31c2.5-11.6,3.4-23.5,2.8-35.3c-0.6-11.2-2.5-22.4-5.9-33.1c-3.3-10.3-8-20.1-14.3-28.9
		c-5.9-8.1-13.3-15.3-22.1-20.1C114.7,6.6,105.7,4.5,96.7,5.2z"/>
	<path id="path2993" inkscape:connector-curvature="0" class="st0" d="M99.5,7.5c6.9-0.1,13.8,1.5,20,4.5
		c7.1,3.4,13.4,8.6,18.6,14.5c7.1,8.1,12.5,17.7,16.3,27.8c4,10.4,6.4,21.3,7.5,32.3c1.2,12.2,0.7,24.5-1.4,36.5
		c-1.8,10.2-4.8,20.2-9.2,29.6c-4,8.4-9.1,16.3-15.6,23c-6.5,6.7-14.5,12.1-23.6,14.7c-6.2,1.8-12.8,2.2-19.2,1.1
		c-8.4-1.4-16.3-5.3-22.9-10.7c-7.7-6.2-13.7-14.2-18.5-22.8c-4.6-8.4-8-17.5-10.3-26.9c-3.2-13.3-4.3-27.1-3.4-40.7
		c0.7-10.6,2.7-21.1,6-31.2c2.8-8.6,6.7-17,11.8-24.5c3.7-5.4,7.9-10.5,12.9-14.8c5.9-5.1,12.8-9.1,20.4-11.1
		C92.4,8,95.9,7.5,99.5,7.5 M84.7,12c-7.3,2.8-13.7,7.5-19.1,13.1c-6.4,6.5-11.4,14.3-15.3,22.5C45.9,56.9,43,66.9,41.2,77
		c-2.7,15.7-2.6,31.9,0.4,47.6c2,10.5,5.3,20.7,10.2,30.2c4.4,8.5,10,16.5,17.2,22.9C88.8,125,108.6,72.3,128.5,19.6
		c-6.2-4.9-13.5-8.6-21.3-9.9C99.7,8.3,91.8,9.2,84.7,12 M107.6,106.6c-4.2,2.5-7.7,6.1-10.1,10.3c-4.7,7.9-5.3,18-1.6,26.4
		c2.2,5,5.7,9.3,10.2,12.4c7.8,5.5,18.4,6.7,27.2,3.2c8.2-3.1,14.8-10.2,17.4-18.6c-1.5,0-2.9,0-4.4,0c-2.9,8.1-10.3,14.3-18.7,15.9
		c-5.4,1.1-11.1,0.3-16-2.2c-4.3-2.1-8-5.5-10.4-9.7c-4.4-7.3-4.7-16.8-0.7-24.3c1.9-3.7,4.8-6.9,8.2-9.3c4.4-3,9.9-4.6,15.3-4.3
		c4.4,0.2,8.7,1.6,12.3,4c3.6,2.3,6.6,5.6,8.7,9.4c1.5,0,3.1,0,4.7,0c-2.7-6.1-7.5-11.2-13.3-14.3
		C127.4,101,116.2,101.4,107.6,106.6 M113.4,115.5c-1.8,2.7-2.2,6.3-0.8,9.3c1.2,2.5,3.5,4,5.9,5.2c0,5.9,0,11.9,0,17.8
		c-3.2-1.3-5.2-4.3-6.1-7.4c-1.3,0.4-2.5,0.8-3.8,1.2c0.4,1.6,1.1,3.2,2,4.6c1.8,2.7,4.7,4.7,7.9,5.4c0,0.7,0,1.5,0,2.3
		c1.2,0,2.3,0,3.5-0.1c0-0.6,0-1.2,0-1.7c3.9,0.1,7.9-1.5,10.3-4.6c2.1-2.6,2.8-6.1,2.5-9.4c0.6,0,1.2,0,1.8,0c0-1.2,0-2.5,0-3.7
		c-1,0-2,0-3,0c-0.5-0.9-1.1-1.6-1.8-2.3c-2.7-2.5-6.4-3.5-9.8-4.8c0-0.9,0-1.9,0-2.8c5,0,10,0,15,0c0-1.2,0-2.4,0-3.6
		c-6.2,0-12.4,0-18.5,0c0,1.6,0,3.2,0,4.7c-0.6-0.4-1.2-0.9-1.6-1.4c-1.3-1.5-1.5-3.8-0.7-5.6c1.4-2.9,5-4.6,8.1-3.7
		c2.2,0.5,4,2.2,5,4.2c1.1-0.6,2.3-1.2,3.4-1.8c-1.3-2.6-3.7-4.7-6.5-5.6C121.7,110,116.1,111.5,113.4,115.5L113.4,115.5z"/>
	<path id="path2995" inkscape:connector-curvature="0" class="st0" d="M69.4,34.1c7,0.4,14.1,0.3,21-1c4.3-0.7,9.2,0.1,12.5,3.2
		c3,3,4.9,7.1,4.8,11.4c0.1,2.6-1.2,5-1.8,7.4c-0.5,1.8-0.5,3.7-0.5,5.6c0.1,1.5,0.2,3.2-0.5,4.7c-0.1,0.3-0.6,0.4-0.9,0.5
		c-0.7-0.6-1.2-1.3-2.1-1.7c-0.6,0.6-1.2,1.3-1.5,2.2c-0.5,1.6-1,3.2-0.8,4.9c0.1,2.1,0.8,4.2,0.3,6.3c-0.1,0.5-0.4,1.1-1.1,1
		c-1.3-0.6-1.2-2.5-2.5-3.1c-0.9,0.2-1.2,1.1-1.5,1.8c-0.5,1.6-0.4,3.4-0.5,5.1c-0.2,2.5,0.8,5,0.3,7.4c-0.9,0.1-1.8-0.9-2.7-0.3
		c-1.5,2.3-2.1,5.1-2.8,7.7c-1.6,5.9-2.2,12.1-2.5,18.2c-0.4,0.3-1.1,0.7-1.6,0.3c-2-1.4-2.6-3.9-2.7-6.2c-0.3-3.6,0.2-7.2,0.2-10.8
		c-0.1-1.1,0-2.4-0.6-3.4c-0.9,0.1-1.5,1-1.9,1.7c-1.3,2.5-2.3,5.1-3.4,7.6c-2.3,5.6-4.4,11.4-6.5,17.1c-0.3,0.8-0.4,1.7-1.2,2.1
		c-1.5-0.5-1.5-2.3-1.7-3.6c-0.9-7,1.5-13.9,3.6-20.5c0.3-1.3,1.1-2.6,0.6-4c-0.3-0.2-0.8-0.1-1.2-0.1c-6.2,5.4-11.1,12.1-16.4,18.3
		c-0.6,0.4-1.4-0.3-1.5-1c-0.2-1.7,0.5-3.3,1-4.9c2.4-6.1,6.2-11.5,10.3-16.5c1-1.2,2-2.5,2.9-3.8c0.4-0.5,0.4-1.3,0.1-1.8
		c-0.7-0.5-1.6-0.5-2.4-0.2c-4.2,1.6-8.1,3.8-12.1,5.7c-0.2-0.3-0.5-0.7-0.4-1.2c0.4-2.3,2.1-4,3.5-5.7c3.9-3.7,8.7-6,13.3-8.6
		c0,0.1,0.1,0.2,0.2,0.2c0-0.1-0.1-0.2-0.1-0.3c2.4-1.4,5-2.5,7.4-3.8c3.4-1.7,6.8-3.6,10.1-5.7c1.1-0.6,1.8-1.7,1.9-2.9
		c0.1-1-0.8-1.7-1.7-1.9c-1.3-0.3-2.8-0.1-4.1-0.3c-4.4,0-9.1,0.1-12.9-2.3c-0.9-0.5-1.3-1.6-1.2-2.6c5.9,0.3,11.9,0,17.8-0.2
		c0.9,0,1.8-0.2,2.5-0.8c0-0.9-1.1-1.1-1.6-1.5c-3.5-1.4-7.4-1.9-11.1-2.5c-0.4,0-0.5-0.5-0.2-0.7c0.7-0.8,1.9-0.6,2.8-0.7
		c2.6-0.4,5.1,0.8,7.6,0.6c1.1-0.4,1.1-1.8,0.4-2.6c-2.6-1.9-5.9-2.2-9-2.6c-2.5,0-4.9,0.5-7.4,0.5c-2.1,0-4.2-0.4-6.3,0.2
		c-1.5,0.7-2,2.7-1.3,4.1c-0.2,0.2-0.5,0.4-0.8,0.4c-1.4,0-2.9-0.3-3.8-1.4c-1-2.3-0.9-5-0.4-7.4c0.4-1.6,2.2-1.6,3.5-2.2
		c0.7-0.2,1-0.8,1.4-1.3c1.1-0.8,2.7-0.2,3.7-1.2C67,36.1,68,34.8,69.4,34.1 M86.7,38.8c-1.1,0.4-2.2,1.4-2,2.7
		c0,1.4,1.6,1.9,2.7,2.1c1-0.1,2.2-0.1,3.1-0.7c1.6-1,0.8-3.7-0.9-4C88.6,38.6,87.6,38.5,86.7,38.8 M64.2,39.9c0,0.1,0,0.4-0.1,0.5
		c0.6,0.4,1.2,0.9,2,0.6c0-0.5-0.2-1.1-0.7-1.4C65,39.3,64.6,39.8,64.2,39.9 M59.4,43c-0.3,1.5,0,3,0.2,4.4c0.1,0.3,0.1,0.9,0.6,0.6
		c0.5-1.3,1.1-2.7,2.4-3.3c1.9-0.9,4.1-0.6,6.1-0.9c-0.3-0.4-0.6-0.8-0.9-1.1c-0.4,0.1-0.8,0.3-1.1,0.5c-1.6,0.2-3.3-0.5-4.2-1.9
		C61.5,41.6,60,41.8,59.4,43 M99.9,48.8c0,1.9,0.4,3.8,0.2,5.7c-0.1,0.7,0,1.3,0.2,1.9c2.1-1.8,2-4.9,1.8-7.4
		C101.6,48.4,100.7,48.4,99.9,48.8 M95,58.3c1.1,2.4,1.1,5,1.7,7.5c0.4-0.7,0.8-1.4,0.8-2.2c0.2-2,0.1-4.1-0.7-6
		C96.2,57.5,95.5,57.7,95,58.3 M90.1,66.4c1.1,2.5,1.3,5.2,2.4,7.6c0.2-0.8,0.6-1.5,0.6-2.4c0.1-1.9,0.1-3.9-0.9-5.5
		C91.5,65.7,90.7,66,90.1,66.4 M69.2,78.6c-3.3,1.7-6.5,3.8-9.1,6.4c6.4-3,12.9-5.7,19.5-8c0.2-0.9,0-1.8-0.4-2.5
		C75.7,75.4,72.5,76.9,69.2,78.6 M86.3,80.8c-1.1,4.3-1.7,8.8-1.6,13.2c0.1,3.5,0.4,7,0.9,10.5c0.1-1.8,0.3-3.7,0.5-5.5
		c0.7-5.9,1.4-11.9,2.7-17.7C88,80.9,87.1,80.7,86.3,80.8 M76.2,81c-1.9,1.2-3.3,2.9-4.8,4.5c-3.6,4.1-6.8,8.5-9.6,13.2
		c-1.2,2.1-2.4,4.2-3.2,6.4c6.6-7.7,13-15.6,19.9-23.1C77.9,81.3,77,80.7,76.2,81 M80.1,83.1c-3.1,5.1-5.3,10.6-6.9,16.3
		c-1.3,4.7-2.3,9.5-2.7,14.4c0.8-2.4,1.6-4.7,2.5-7.1c2.7-7.7,6.1-15.1,9.4-22.6C81.8,83.5,81,82.9,80.1,83.1L80.1,83.1z"/>
	<path id="path2997" inkscape:connector-curvature="0" class="st0" d="M86.4,40c1-0.1,2.3-0.2,3.1,0.6c0.3,0.3,0.6,0.6,0.7,1.1
		c-0.8,0.2-1.7,0.7-2.6,0.4C86.9,41.6,86.1,40.9,86.4,40L86.4,40z"/>
	<path id="path2999" inkscape:connector-curvature="0" class="st0" d="M121.9,131.4c2.2,0.8,4.5,1.5,6.5,2.9c-2.1,0-4.3,0-6.4,0
		C121.9,133.4,121.9,132.4,121.9,131.4L121.9,131.4z"/>
	<path id="path3001" inkscape:connector-curvature="0" class="st0" d="M121.9,138c2.9,0,5.9,0,8.8,0c0.4,2.6-0.2,5.3-1.9,7.3
		c-1.7,2.1-4.3,3.2-6.9,3.2C121.9,145,121.9,141.5,121.9,138L121.9,138z"/>
</g>
</svg>
