<?xml version="1.0" encoding="utf-8"?>
<!-- Generator: Adobe Illustrator 21.1.0, SVG Export Plug-In . SVG Version: 6.00 Build 0)  -->
<svg version="1.1" id="Layer_1" xmlns="http://www.w3.org/2000/svg" xmlns:xlink="http://www.w3.org/1999/xlink" x="0px" y="0px"
	 viewBox="0 0 200 200" style="enable-background:new 0 0 200 200;" xml:space="preserve">
<style type="text/css">
	.st0{fill:#FFD600;}
	.st1{fill:#FFFFFF;}
</style>
<g>
	<path d="M21.2,5.4c1.9,0.3,3.7,0.5,5.6,0.8V0c49.1,11.8,97.9,12.2,147.1,0.1V6c1.6-0.2,3.2-0.4,4.8-0.7v45.4
		C184.4,142,137.4,176.2,100,200c-39.5-24.5-84.1-60-78.7-147.2V5.4L21.2,5.4z"/>
	<path class="st0" d="M29.1,2.8c23.4,5.5,47.2,8.2,71.2,8.4c24.1-0.1,47.9-2.7,71.4-8.3V28H29.1V2.8L29.1,2.8z"/>
	<path d="M13,28.6h174v69.1c-28.5-8.9-56.6-14-86.5-14.1C70.2,83.5,42.2,88.5,13,97.9L13,28.6L13,28.6z M15.2,30.9h169.6v63.8
		C128.6,77.2,72.9,76.4,15.2,94.8L15.2,30.9L15.2,30.9z"/>
	<path class="st1" d="M14,29.7h172.1V96C129.1,77.9,72.6,77.1,14,96.1L14,29.7L14,29.7z"/>
	<path class="st0" d="M29.2,93.1c6.1,47.6,30.7,77.1,70.8,102.3c36.3-22.8,64.9-52.5,70.9-102.4c-0.7-0.2-1.5-0.4-2.2-0.6l-0.3,2.5
		l-0.7,4.6l-0.8,4.4l-1,4.3l-0.4,1.7l0,0l0,0.1c-0.1,0.3-0.2,0.7-0.3,1l0,0l0,0l-0.4,1.4l-0.3,0.9v0c-0.3,0.9-0.5,1.8-0.8,2.7
		l-0.1,0.5l-0.1,0.4l0,0c-0.4,1.2-0.8,2.4-1.2,3.6c-2.7,7.7-6,14.9-10.2,21.9c-0.6,0.9-1.1,1.8-1.7,2.7v0l-0.4,0.6l-0.6,0.9l0,0l0,0
		c-0.3,0.4-0.5,0.8-0.8,1.1l0,0l0,0l-0.8,1.1l-1,1.4l-0.2,0.3l-1,1.4l-0.9,1.2l0,0l0,0l0,0l0,0l0,0l0,0c-0.2,0.2-0.3,0.4-0.5,0.6
		l0,0l0,0l0,0l0,0l-0.8,1.1l-0.7,0.9l0,0c-0.4,0.5-0.7,0.9-1.1,1.4l0,0l-0.6,0.7l-0.5,0.6l0,0c-0.5,0.6-1,1.2-1.5,1.7l-0.5,0.5
		l-0.4,0.5c-0.6,0.7-1.2,1.3-1.8,2l-0.3,0.4l-0.4,0.4c-0.7,0.7-1.3,1.4-2,2.1l-0.3,0.3l-0.3,0.3c-0.7,0.7-1.5,1.5-2.3,2.2l-0.2,0.2
		l-0.2,0.2c-0.9,0.8-1.7,1.6-2.6,2.5c-2.8,2.6-5.8,5.1-8.8,7.4l-0.2,0.1l-0.2,0.2v0c-0.8,0.6-1.6,1.2-2.4,1.8l-0.5,0.4l-0.9,0.6l0,0
		l0,0l0,0l0,0l0,0c-0.3,0.2-0.6,0.4-0.9,0.6l0,0l0,0l0,0l0,0l0,0l0,0l0,0l-1.2,0.9l-3.2,2.3l-3.3,2.3l-3.4,2.2l-2.2,1.4l-2.5-1.6
		l-3.6-2.4l-3.6-2.5l-1.4-1c-0.4-0.3-0.8-0.6-1.2-0.9l-0.9-0.6l-0.5-0.4c-0.9-0.7-1.9-1.4-2.8-2.1l-0.1,0l0,0
		c-3.2-2.5-6.4-5.1-9.5-7.8c-0.9-0.8-1.8-1.7-2.7-2.5l0,0l-0.2-0.2l-0.2-0.2c-0.8-0.7-1.6-1.5-2.3-2.2l-0.3-0.3l-0.3-0.3
		c-0.7-0.7-1.4-1.4-2.2-2.2l-0.3-0.3l-0.3-0.3c-0.7-0.7-1.4-1.4-2-2.2l-0.3-0.4l-0.3-0.4c-0.6-0.7-1.2-1.4-1.9-2.1l-0.4-0.4
		l-0.4-0.5c-0.6-0.6-1.1-1.3-1.6-2l-0.4-0.5l-0.4-0.6c-0.5-0.6-1-1.2-1.4-1.8l-0.5-0.6l-0.5-0.7l0,0c-0.4-0.6-0.8-1.1-1.2-1.7
		l-0.5-0.7l-0.5-0.7c-0.5-0.6-0.9-1.3-1.3-2l-0.4-0.5l-0.3-0.4c-0.6-0.9-1.2-1.8-1.8-2.8c-4.9-7.8-8.6-15.9-11.5-24.6
		c-0.4-1.3-0.8-2.5-1.2-3.8l0-0.1l0-0.1c-0.3-1.2-0.7-2.4-1-3.5l-0.1-0.3l-0.1-0.4c-0.3-1-0.5-1.9-0.7-2.9v0l-0.2-0.8l-0.2-1.1
		c-0.1-0.5-0.2-1-0.3-1.5l0,0l-0.3-1.5l-0.8-4.3l-0.7-4.4l-0.3-2.2C30.7,92.7,29.9,92.9,29.2,93.1L29.2,93.1z"/>
	<path class="st0" d="M123.2,90.2c10.7,0,19.9,6.4,23.6,15.4h-8.9c-3.1-4.7-8.5-7.7-14.7-7.7c-6.2,0-11.6,3.1-14.7,7.7h-8.9
		C103.3,96.6,112.5,90.2,123.2,90.2L123.2,90.2z M146.7,124c-3.8,9-12.9,15.3-23.6,15.3c-10.6,0-19.8-6.3-23.6-15.3h9
		c3.1,4.6,8.5,7.6,14.6,7.6c6.1,0,11.5-3,14.6-7.6H146.7L146.7,124z"/>
	<path class="st1" d="M73.5,121.6l0-4.2c1.5,0.6,2.9,0.7,3.7,0.7c0.8,0,1.9-0.1,1.9-0.6c-0.1-0.5-2.3-1-3.1-1.4
		c-1-0.5-2.7-1.6-2.7-3.7c0-2.9,2.6-4.4,5.8-4.3c1.4,0,2.6,0.1,4.2,0.3l0,4.1c-1.3-0.5-2.6-0.6-3.3-0.7c-0.4,0-1.7-0.1-1.7,0.5
		c0,0.5,0.6,0.6,1.1,0.8c0.7,0.3,1.6,0.7,2,0.8c1.3,0.5,2.6,1.5,2.6,3.7c0,3-2.9,4.5-5.6,4.5C77.6,122.1,75.6,122.1,73.5,121.6
		L73.5,121.6z"/>
	<path class="st0" d="M50.3,131.1l0-2.2c0.8,0.3,1.5,0.4,1.9,0.4c0.4,0,1,0,1-0.3c0-0.3-1.2-0.5-1.6-0.7c-0.5-0.3-1.4-0.8-1.4-1.9
		c0-1.5,1.3-2.2,3-2.2c0.7,0,1.3,0.1,2.2,0.2l0,2.1c-0.7-0.3-1.3-0.3-1.7-0.3c-0.2,0-0.9,0-0.9,0.2c0,0.2,0.3,0.3,0.6,0.4
		c0.4,0.1,0.8,0.4,1,0.4c0.7,0.3,1.3,0.8,1.3,1.9c0,1.6-1.5,2.3-2.9,2.3C52.4,131.3,51.4,131.4,50.3,131.1L50.3,131.1z"/>
	<path class="st1" d="M117.9,108.1c1,0,2,0.2,3,0.5c0.9,0.3,1.8,0.8,2.5,1.4c0.7,0.6,1.3,1.3,1.7,2.2c0.4,0.9,0.6,1.8,0.6,2.9
		c0,1.1-0.2,2.1-0.6,2.9c-0.4,0.9-1,1.6-1.7,2.2c-0.7,0.6-1.6,1.1-2.5,1.4c-0.9,0.3-1.9,0.5-3,0.5c-1,0-2-0.2-3-0.5
		c-0.9-0.3-1.8-0.8-2.5-1.4c-0.7-0.6-1.3-1.3-1.7-2.2s-0.6-1.8-0.6-2.9c0-1.1,0.2-2.1,0.7-2.9c0.4-0.9,1-1.6,1.7-2.2
		c0.7-0.6,1.5-1.1,2.5-1.4C115.9,108.2,116.9,108.1,117.9,108.1L117.9,108.1z M114.7,115.1c0,1.8,1.2,2.9,3.1,2.9
		c1.9,0,3.3-1,3.3-2.9s-1.3-3-3.2-3S114.7,113.2,114.7,115.1L114.7,115.1z"/>
	<path class="st1" d="M54.6,108c0.8,0,1.5,0.1,2.3,0.3l0.8,4.4c-0.8-0.4-1.3-0.7-2.9-0.7c-2.1,0-3.3,1.5-3.3,3.1
		c0,1.6,1.3,2.9,3.2,2.9c1.4,0,2.6-0.4,3.1-0.7l-0.5,4.4c-0.9,0.3-1.8,0.4-2.7,0.4c-1,0-2-0.2-3-0.5s-1.8-0.8-2.5-1.4
		c-0.7-0.6-1.3-1.3-1.7-2.2s-0.6-1.9-0.6-2.9c0-1.1,0.2-2.1,0.7-2.9c0.4-0.9,1-1.6,1.7-2.2s1.5-1.1,2.5-1.4
		C52.6,108.2,53.6,108,54.6,108L54.6,108z"/>
	<polygon class="st1" points="150.6,122 150.6,112.4 147.4,112.4 148.4,108.2 158.2,108.2 158.2,112.4 155.5,112.4 155.5,121.7 	"/>
	<polygon class="st1" points="133.3,122 133.3,108.2 133.3,108.2 137.8,108.2 141.9,114.6 141.9,108.4 146.5,108.1 146.5,121.8 
		141.9,121.7 137.8,115.3 137.8,121.7 	"/>
	<polygon class="st1" points="126.8,122 126.8,108.4 131.7,108.1 131.7,121.7 	"/>
	<polygon class="st1" points="84.9,122 84.9,108.5 89.7,108.2 89.7,112.8 92.4,112.8 92.4,108.5 97.2,108.2 97.2,121.7 92.4,122 
		92.4,116.8 89.7,116.8 89.7,121.7 	"/>
	<path class="st1" d="M67.9,122.1l-0.6-2.4h-3.9l-0.6,2.4l-5.4-0.4l5.1-13.5l2.9,0l2.9,0l5.1,13.5L67.9,122.1L67.9,122.1z
		 M66.4,116.2l-1-4l-1,4H66.4L66.4,116.2z"/>
	<path class="st1" d="M98.4,122.1v-13.9l4.8,0l0,0h1.1c2.7,0,5,2,5,4.7s-2.1,4.9-4.9,4.9h-1.3v3.9L98.4,122.1L98.4,122.1z
		 M103.3,111.7v2.7h0.2c0.6,0,1.3-0.4,1.4-1.4c0-1-0.7-1.3-1.4-1.3H103.3L103.3,111.7z"/>
	<path class="st1" d="M61.1,129.3c0,0.7-0.2,1.3-0.6,1.8c-0.5,0.5-1,0.8-1.8,0.8c-0.3,0-0.5,0-0.7-0.1c-0.3-0.1-0.5-0.3-0.7-0.6
		l0,2.1h-1.1V127h1v0.6c0.2-0.3,0.5-0.5,0.8-0.6c0.2-0.1,0.5-0.1,0.8-0.1c0.7,0,1.2,0.2,1.7,0.7C60.9,128,61.1,128.6,61.1,129.3
		L61.1,129.3z M60,129.3c0-0.4-0.1-0.7-0.3-1c-0.3-0.3-0.6-0.5-1-0.5c-0.4,0-0.8,0.1-1,0.4c-0.3,0.3-0.4,0.6-0.4,1
		c0,0.4,0.1,0.8,0.4,1.1c0.3,0.3,0.6,0.4,1,0.4c0.4,0,0.8-0.1,1-0.4C59.9,130.1,60,129.8,60,129.3L60,129.3z"/>
	<path class="st1" d="M66.7,129.4c0,0.7-0.2,1.3-0.7,1.8c-0.5,0.5-1.1,0.7-1.8,0.7c-0.7,0-1.3-0.2-1.8-0.7c-0.5-0.5-0.7-1.1-0.7-1.8
		c0-0.7,0.2-1.3,0.7-1.8c0.5-0.5,1.1-0.7,1.8-0.7c0.7,0,1.3,0.2,1.8,0.7C66.5,128,66.7,128.6,66.7,129.4L66.7,129.4z M65.6,129.4
		c0-0.4-0.1-0.8-0.4-1c-0.3-0.3-0.6-0.4-1-0.4c-0.4,0-0.7,0.1-1,0.4c-0.3,0.3-0.4,0.6-0.4,1s0.1,0.8,0.4,1c0.3,0.3,0.6,0.4,1,0.4
		c0.4,0,0.7-0.1,1-0.4C65.4,130.1,65.6,129.8,65.6,129.4L65.6,129.4z"/>
	<path class="st1" d="M69.7,127.9c-0.3,0-0.6,0.1-0.8,0.3c-0.2,0.2-0.3,0.5-0.3,0.9v2.6h-1.1V127h1v0.4c0.2-0.4,0.6-0.6,1-0.6
		c0.1,0,0.1,0,0.1,0L69.7,127.9L69.7,127.9z"/>
	<polygon class="st1" points="72.4,128 71.7,128 71.7,131.7 70.6,131.7 70.6,128 70,128 70,127 70.6,127 70.6,125.4 71.7,125.4 
		71.7,127 72.4,127 	"/>
	<polygon class="st1" points="79.3,127 77.6,131.7 76.9,131.7 76,128.6 75.1,131.7 74.3,131.7 72.6,127 73.8,127 74.7,129.9 
		75.5,127 76.4,127 77.2,129.9 78.1,127 	"/>
	<path class="st1" d="M84.4,129.3v0.1c0,0.1,0,0.2,0,0.4h-3.7c0.1,0.3,0.2,0.5,0.5,0.7c0.2,0.2,0.5,0.3,0.8,0.3c0.2,0,0.4,0,0.6-0.1
		c0.2-0.1,0.4-0.2,0.5-0.4h1.3c-0.2,0.5-0.5,0.9-0.9,1.1c-0.4,0.3-0.9,0.4-1.4,0.4c-0.8,0-1.4-0.3-1.9-0.8c-0.4-0.5-0.6-1-0.6-1.7
		c0-0.6,0.2-1.2,0.6-1.7c0.5-0.6,1.1-0.9,1.9-0.9c0.7,0,1.3,0.2,1.8,0.7C84.2,128,84.4,128.6,84.4,129.3L84.4,129.3z M83.2,128.8
		c-0.1-0.3-0.2-0.5-0.5-0.7c-0.2-0.2-0.5-0.2-0.8-0.2c-0.3,0-0.6,0.1-0.8,0.3c-0.2,0.2-0.4,0.4-0.5,0.7L83.2,128.8L83.2,128.8z"/>
	<polygon class="st1" points="86.8,128 86.1,128 86.1,131.7 85,131.7 85,128 84.4,128 84.4,127 85,127 85,125.4 86.1,125.4 
		86.1,127 86.8,127 	"/>
	<polygon class="st1" points="89.4,128 88.7,128 88.7,131.7 87.5,131.7 87.5,128 87,128 87,127 87.5,127 87.5,125.4 88.7,125.4 
		88.7,127 89.4,127 	"/>
	<path class="st1" d="M94.5,129.3v0.1c0,0.1,0,0.2,0,0.4h-3.7c0.1,0.3,0.2,0.5,0.5,0.7c0.2,0.2,0.5,0.3,0.8,0.3c0.2,0,0.4,0,0.6-0.1
		c0.2-0.1,0.4-0.2,0.5-0.4h1.3c-0.2,0.5-0.5,0.9-0.9,1.1c-0.4,0.3-0.9,0.4-1.4,0.4c-0.8,0-1.4-0.3-1.9-0.8c-0.4-0.5-0.6-1-0.6-1.7
		c0-0.6,0.2-1.2,0.6-1.7c0.5-0.6,1.1-0.9,1.9-0.9c0.7,0,1.3,0.2,1.8,0.7C94.3,128,94.5,128.6,94.5,129.3L94.5,129.3z M93.3,128.8
		c-0.1-0.3-0.2-0.5-0.5-0.7c-0.2-0.2-0.5-0.2-0.8-0.2c-0.3,0-0.6,0.1-0.8,0.3c-0.2,0.2-0.4,0.4-0.5,0.7L93.3,128.8L93.3,128.8z"/>
	<path class="st1" d="M99.5,131.7h-1.1v-2.5c0-0.5-0.1-0.8-0.3-1c-0.2-0.2-0.4-0.3-0.6-0.3c-0.4,0-0.7,0.2-0.8,0.5
		c-0.1,0.2-0.1,0.5-0.1,0.8v2.5h-1.1V127h1v0.4c0.1-0.2,0.3-0.3,0.4-0.4c0.3-0.1,0.6-0.2,0.9-0.2c0.6,0,1,0.2,1.4,0.6
		c0.3,0.4,0.5,0.9,0.5,1.6L99.5,131.7L99.5,131.7z"/>
	<path d="M40.8,21.6c0,0.5-0.2,1-0.5,1.3c-0.4,0.4-0.8,0.5-1.4,0.5c-0.5,0-0.9-0.2-1.3-0.5c-0.4-0.3-0.6-0.8-0.6-1.4H38
		c0,0.2,0.1,0.4,0.2,0.5c0.2,0.1,0.3,0.2,0.6,0.2c0.2,0,0.4-0.1,0.6-0.2c0.1-0.1,0.2-0.3,0.2-0.5c0-0.3-0.1-0.5-0.3-0.7
		c-0.1-0.1-0.3-0.2-0.6-0.3c-0.5-0.2-0.9-0.3-1.1-0.5c-0.4-0.3-0.6-0.7-0.6-1.2c0-0.4,0.1-0.8,0.4-1.1c0.3-0.4,0.8-0.6,1.3-0.6
		c0.5,0,1,0.2,1.3,0.5c0.3,0.3,0.4,0.7,0.4,1.2h-1.1c0-0.2,0-0.3-0.1-0.4c-0.1-0.1-0.3-0.2-0.5-0.2c-0.2,0-0.4,0.1-0.5,0.2
		c-0.1,0.1-0.2,0.3-0.2,0.4c0,0.2,0.1,0.4,0.3,0.5c0.1,0.1,0.3,0.2,0.5,0.2c0.5,0.2,0.9,0.3,1.1,0.5C40.5,20.5,40.8,21,40.8,21.6
		L40.8,21.6z"/>
	<path d="M48.2,19c-0.2-0.2-0.3-0.3-0.5-0.4c-0.3-0.2-0.6-0.2-0.9-0.2c-0.6,0-1.1,0.2-1.5,0.6c-0.4,0.4-0.6,0.9-0.6,1.4
		c0,0.6,0.2,1.1,0.6,1.5c0.4,0.4,0.9,0.6,1.5,0.6c0.3,0,0.5-0.1,0.8-0.2c0.2-0.1,0.5-0.3,0.6-0.5l0.8,0.7c-0.2,0.2-0.4,0.4-0.6,0.6
		c-0.5,0.3-1.1,0.5-1.7,0.5c-1,0-1.7-0.4-2.3-1.1c-0.5-0.6-0.8-1.3-0.8-2.1c0-0.8,0.3-1.4,0.8-2c0.6-0.7,1.4-1.1,2.4-1.1
		c0.6,0,1.2,0.2,1.7,0.5c0.2,0.2,0.4,0.3,0.6,0.6L48.2,19L48.2,19z"/>
	<path d="M156.6,19c-0.2-0.2-0.3-0.3-0.5-0.4c-0.3-0.2-0.6-0.2-0.9-0.2c-0.6,0-1.1,0.2-1.5,0.6c-0.4,0.4-0.6,0.9-0.6,1.4
		c0,0.6,0.2,1.1,0.6,1.5c0.4,0.4,0.9,0.6,1.5,0.6c0.3,0,0.5-0.1,0.8-0.2c0.2-0.1,0.5-0.3,0.6-0.5l0.8,0.7c-0.2,0.2-0.4,0.4-0.6,0.6
		c-0.5,0.3-1.1,0.5-1.7,0.5c-1,0-1.7-0.4-2.3-1.1c-0.5-0.6-0.8-1.3-0.8-2.1c0-0.8,0.3-1.4,0.8-2c0.6-0.7,1.4-1.1,2.4-1.1
		c0.6,0,1.2,0.2,1.7,0.5c0.2,0.2,0.4,0.3,0.6,0.6L156.6,19L156.6,19z"/>
	<path d="M61.1,23.3h-1.6l-2.2-2.2l0,2.2h-1.1v-6H58c0.9,0,1.5,0.2,1.9,0.7c0.2,0.3,0.4,0.7,0.4,1.2c0,0.5-0.1,0.9-0.4,1.3
		c-0.3,0.3-0.6,0.5-1,0.6L61.1,23.3L61.1,23.3z M59.1,19.3c0-0.4-0.2-0.6-0.5-0.8c-0.2-0.1-0.4-0.1-0.7-0.1h-0.7v1.8H58
		c0.3,0,0.5,0,0.6-0.1C59,19.9,59.1,19.7,59.1,19.3L59.1,19.3z"/>
	<path d="M112.3,23.3h-1.6l-2.2-2.2l0,2.2h-1.1v-6h1.7c0.9,0,1.5,0.2,1.9,0.7c0.2,0.3,0.4,0.7,0.4,1.2c0,0.5-0.1,0.9-0.4,1.3
		c-0.3,0.3-0.6,0.5-1,0.6L112.3,23.3L112.3,23.3z M110.3,19.3c0-0.4-0.2-0.6-0.5-0.8c-0.2-0.1-0.4-0.1-0.7-0.1h-0.7v1.8h0.7
		c0.3,0,0.5,0,0.6-0.1C110.1,19.9,110.3,19.7,110.3,19.3L110.3,19.3z"/>
	<polygon points="68.3,23.3 67.2,23.3 67.2,20.8 64.7,20.8 64.7,23.3 63.6,23.3 63.6,17.3 64.7,17.3 64.7,19.7 67.2,19.7 67.2,17.3 
		68.3,17.3 	"/>
	<polygon points="165,23.3 163.9,23.3 163.9,20.8 161.4,20.8 161.4,23.3 160.3,23.3 160.3,17.3 161.4,17.3 161.4,19.7 163.9,19.7 
		163.9,17.3 165,17.3 	"/>
	<polygon points="74.8,23.3 71.6,23.3 71.6,17.3 74.8,17.3 74.8,18.4 72.7,18.4 72.7,19.8 74.7,19.8 74.7,20.9 72.7,20.9 72.7,22.2 
		74.8,22.2 	"/>
	<polygon points="79,23.3 77.9,23.3 77.9,17.3 79,17.3 	"/>
	<polygon points="87.1,23.3 86,23.3 83.3,19.3 83.3,23.3 82.2,23.3 82.2,17.3 83.3,17.3 86,21.4 86,17.3 87.1,17.3 	"/>
	<path d="M95.1,20.4c0,0.4-0.1,0.7-0.2,1.1c-0.2,0.5-0.5,1-0.9,1.3c-0.5,0.4-1.3,0.6-2.2,0.6h-1.6v-6h1.5c0.8,0,1.5,0.2,2.1,0.5
		c0.4,0.3,0.7,0.7,0.9,1.2C95,19.4,95.1,19.9,95.1,20.4L95.1,20.4z M94,20.4c0-0.8-0.3-1.4-0.9-1.7c-0.3-0.2-0.8-0.3-1.3-0.3h-0.4
		v3.8h0.4c0.5,0,1-0.1,1.3-0.3C93.7,21.7,94,21.1,94,20.4L94,20.4z"/>
	<path d="M104.5,20.4c0,0.9-0.3,1.6-0.9,2.2c-0.6,0.6-1.4,0.9-2.2,0.9c-0.9,0-1.6-0.3-2.2-0.9c-0.6-0.6-0.9-1.3-0.9-2.2
		c0-0.9,0.3-1.6,0.9-2.2s1.4-0.9,2.2-0.9c0.9,0,1.6,0.3,2.2,0.9S104.5,19.5,104.5,20.4L104.5,20.4z M103.4,20.3c0-0.6-0.2-1-0.6-1.4
		c-0.4-0.4-0.9-0.6-1.5-0.6c-0.6,0-1.1,0.2-1.5,0.6c-0.4,0.4-0.6,0.9-0.6,1.4c0,0.6,0.2,1.1,0.6,1.5c0.4,0.4,0.9,0.6,1.4,0.6
		c0.6,0,1.1-0.2,1.5-0.6C103.2,21.4,103.4,20.9,103.4,20.3L103.4,20.3z"/>
	<polygon points="118,18.4 115.8,18.4 115.8,19.8 118,19.8 118,20.9 115.8,20.9 115.8,23.3 114.7,23.3 114.7,17.3 118,17.3 	"/>
	<path d="M149.6,23.3h-1.2l-0.6-1.5h-2.2l-0.6,1.5h-1.2l2.5-6h0.9L149.6,23.3L149.6,23.3z M147.3,20.7l-0.7-1.7l-0.7,1.7H147.3
		L147.3,20.7z"/>
	<polygon points="142.1,18.4 140.7,18.4 140.7,23.3 139.6,23.3 139.6,18.4 138.1,18.4 138.1,17.3 142.1,17.3 	"/>
	<polygon points="136.6,23.3 133.3,23.3 133.3,17.3 134.4,17.3 134.4,22.2 136.6,22.2 	"/>
	<path d="M130.6,23.3h-1.2l-0.5-1.2h-2.5l-0.5,1.2h-1.2l2.5-6h0.9L130.6,23.3L130.6,23.3z M128.4,21l-0.8-2.1l-0.8,2.1H128.4
		L128.4,21z"/>
	<path d="M54.2,67.4C54,76.2,46,81.5,39,82.9c-4.1,0.8-7.9,1.2-11.8-0.4c-3.4-1.4-4-4.1-4.1-6.3c-0.1-1.7,0-3.4,0.2-5.3L34.5,69
		l-0.2,3.7c-0.1,2.1,1.4,3.5,4.1,2.9c2.2-0.3,4.8-2.4,4.8-5c0-0.9-0.1-1.7-0.6-2.3c-2.1-2.9-7.9-3.4-10.6-4.6
		c-4-1.7-7.5-3.9-7.4-10.4c0.2-10,8.5-14.4,15.4-14.9c4-0.4,7.3,0.5,9.7,1.8c2.9,1.6,4.5,4.3,4.9,10.2l-10.9,1.4
		c0-1.4-0.1-2.8-0.5-3.7c-0.8-1.8-2.6-2.4-4.7-1.7c-2.2,0.8-2.9,2.5-2.9,3.9c0,1.6,0.8,2.7,2.4,3.8c0.8,0.6,1.8,0.7,2.8,1
		C47,57.2,54.3,58.7,54.2,67.4L54.2,67.4z"/>
	<path d="M93.4,60.1l0,5.8c0,6.7-7.6,10.2-15,10.7c-11.8,0.8-15.6-4.5-15.6-10.8l0-18.3c0-7.1,5.7-11.4,15.3-11.6
		c13.8-0.3,15.4,5.7,15.4,14l-11.5,0.4l0.1-3.7c0-1.5-0.9-3.7-3.7-3.7c-2.8,0-4.3,1.4-4.3,3.8L73.9,66c0,3.1,1.9,3.9,4.1,3.7
		c3.2-0.2,4.1-2.4,4.1-5l0-4.5L93.4,60.1L93.4,60.1z"/>
	<path d="M136.8,77.5l-13.2-1.6c-0.1-0.1-0.6-1.1-0.7-2.5c-0.2-2.7-0.1-6.5-0.2-7.6c0-3.2-1.2-4.6-4.3-5l-4-0.1v14.6l-12.1-0.6v-38
		l19.5,0.1c7.1,0.1,12.8,3.2,12.8,11.1c0,4.1-2.2,8-6.7,9.3c4.2,1.1,6.2,2.7,6.3,7.1l0.1,4.4C134.7,74.6,135.8,75.8,136.8,77.5
		L136.8,77.5z M123,49.1c0-3.4-2.2-5.2-4.8-5.2h-3.7v9.5l4.1,0.3C121.9,54,122.9,51.7,123,49.1L123,49.1z"/>
	<path d="M176.4,86.2l-12-2.6l-1.7-8.3l-10.4-2.1l-1.1,7.6l-10.6-2l8.3-40.5l16.2,1.4L176.4,86.2L176.4,86.2z M161.2,67.4l-4.5-21.2
		l-3.2,19.6L161.2,67.4L161.2,67.4z"/>
	<path class="st0" d="M90.5,173.5c1.3,1.1,3.5,2.1,5.4,2.6c5.9-4.6,9.2-8.9,10.2-14.1c-1.1-0.1-2.9,0-4.9,0.5
		C98.6,166.4,95.6,170.5,90.5,173.5L90.5,173.5z"/>
	<path class="st0" d="M115.4,161.9c0.1-1.9,0-2.7-0.4-4.4c-6.2-2.9-12.5-3.4-17.6-0.6c0.5,0.9,1.5,2.2,3.1,3.6
		C104.9,159.2,110.1,159.8,115.4,161.9L115.4,161.9z"/>
	<path class="st1" d="M97.9,176.6c2.5,0.3,4.2,0,5.5-0.3c4.9-4.2,8.1-8.5,8.8-13.2c-1.1-0.4-2.5-0.7-4.2-0.9
		C107.1,167.4,103,173,97.9,176.6L97.9,176.6z"/>
	<path class="st0" d="M114,163.6c-1,5.2-4.1,8.8-7.1,11.4c4.2-2,7.3-5.9,8.4-11L114,163.6L114,163.6z"/>
	<path class="st1" d="M114.4,155.5c-0.7-1.7-1.7-3.4-2.7-4.5c-2.4-1.1-7.2-2.5-10.7-2.4c-2.2,0-4.5,0.7-5.9,1.4
		c0.1,1.3,0.7,3.4,1.4,5C102.4,152.3,108.1,153,114.4,155.5L114.4,155.5z"/>
	<path class="st0" d="M94.6,146.6l0,1.6c4.3-1.6,9-1.3,14.6,0.5C105.5,145.9,99.9,144.6,94.6,146.6L94.6,146.6z"/>
	<path class="st0" d="M92.7,147.4c-1.5,0.8-3.1,1.9-4.4,3.4c1.3,6.9,3.4,11.9,8.1,14.9c0.8-1,2.2-2.9,2.7-4
		C95.7,159.2,92.9,153.8,92.7,147.4L92.7,147.4z"/>
	<path class="st1" d="M87.1,152.5c-1.3,2.1-2.2,4.3-2.4,6.1c1.2,5.7,3.2,9.2,7.1,12.1c0.8-0.6,2.3-1.9,3.6-3.5
		C90.7,164,88.1,159.1,87.1,152.5L87.1,152.5z"/>
	<path class="st0" d="M90.4,171.8c-3.1-2.3-4.5-5.2-5.8-8.6c0.5,3.7,2,6.5,4.7,9.3L90.4,171.8L90.4,171.8z"/>
</g>
</svg>
