<?xml version="1.0" encoding="utf-8"?>
<!-- Generator: Adobe Illustrator 21.1.0, SVG Export Plug-In . SVG Version: 6.00 Build 0)  -->
<svg version="1.1" id="Layer_1" xmlns="http://www.w3.org/2000/svg" xmlns:xlink="http://www.w3.org/1999/xlink" x="0px" y="0px"
	 viewBox="0 0 200 200" style="enable-background:new 0 0 200 200;" xml:space="preserve">
<style type="text/css">
	.st0{fill:#FFFFFF;}
	.st1{fill:#118528;}
</style>
<g>
	<path class="st0" d="M165.4,114.1c2.8-8.9,3.9-18.6,2.9-28.5l11.9,10l11.1-12.4c1.4,13.2,0,26-3.8,37.8L165.4,114.1z"/>
	<path class="st0" d="M34.6,114.1c-2.8-8.9-3.9-18.6-2.9-28.5l-11.9,10L8.7,83.2c-1.4,13.2,0,26,3.8,37.8L34.6,114.1z"/>
	<path class="st1" d="M189.7,81.8c0,0-7.6,8.5-9.7,10.9c-2.4-2-14.3-12.1-14.3-12.1l0.5,5.2c1,9.4,0.1,18.7-2.8,27.6l-0.6,2
		l26.1,8.2l0.6-2c4-12.5,5.3-25.5,3.9-38.7l-0.5-4.8L189.7,81.8z M181.8,97c0,0,4.5-5.1,7.8-8.7c0.1,1.6,0.1,3.2,0.1,4.8
		c0,8.6-1.2,17-3.6,25.3c-3.1-1-15.1-4.8-18-5.7c1.8-6.4,2.8-13,2.8-19.6c0-0.9,0-1.8-0.1-2.6c3.5,3,9.7,8.1,9.7,8.1L181.8,97z"/>
	<path class="st1" d="M6.6,83c-1.4,13.2-0.1,26.2,3.9,38.7l0.6,2l26.1-8.2l-0.6-2c-2.8-8.9-3.8-18.2-2.8-27.6l0.5-5.2
		c0,0-12,10.1-14.3,12.1C17.9,90.3,7.1,78.2,7.1,78.2L6.6,83z M10.3,93.1c0-1.6,0-3.2,0.1-4.8c3.3,3.7,9.1,10.3,9.1,10.3
		s6.2-5.2,9.7-8.1c0,0.9-0.1,1.8-0.1,2.6c0,6.6,1,13.2,2.8,19.6c-2.9,0.9-15,4.7-18,5.7C11.6,110.1,10.3,101.7,10.3,93.1z"/>
	<path class="st0" d="M197.2,112.1c-12,42.4-51,73.4-97.2,73.4c-46.2,0-85.2-31.1-97.2-73.4l22.2-6.3c9.2,32.7,39.3,56.6,74.9,56.6
		c35.6,0,65.7-24,74.9-56.6L197.2,112.1z"/>
	<path class="st0" d="M142.8,14.4l24.5,24.5c-7.6,10-12,22.5-12,36c0,6.7,1.1,13.2,3.2,19.2l0,0c1.2,3.6,1.9,7.4,1.9,11.4
		c0,13.5-7.5,25.3-18.7,31.3l0,0c-7,3.8-14.6,6.7-22.7,8.4v0c-7.5,1.6-14.1,6-19,11.8c-4.9-5.8-11.5-10.1-19-11.8v0
		c-8-1.8-15.6-4.6-22.7-8.4l0,0c-11.1-6-18.7-17.8-18.7-31.3c0-4,0.7-7.8,1.9-11.4l0,0c2-6,3.2-12.5,3.2-19.2c0-13.5-4.5-26-12-36
		l24.5-24.5L142.8,14.4z"/>
	<path class="st0" d="M121.2,97.4c0,11.7-9.5,21.2-21.2,21.2c-11.7,0-21.2-9.5-21.2-21.2c0-11.7,9.5-21.2,21.2-21.2
		C111.7,76.1,121.2,85.6,121.2,97.4z"/>
	<path class="st1" d="M172.9,105.2c-4.4,15.6-13.9,29.6-26.8,39.5c-13.3,10.2-29.3,15.6-46.1,15.6c-16.8,0-32.8-5.4-46.1-15.6
		c-12.9-9.9-22.4-23.9-26.8-39.5l-0.6-2l-26.3,7.5l0.6,2c6,21.2,19,40.3,36.5,53.7c18.1,13.9,39.8,21.3,62.7,21.3
		c22.9,0,44.6-7.4,62.7-21.3c17.5-13.5,30.5-32.5,36.5-53.7l0.6-2l-26.3-7.5L172.9,105.2z M148.7,148.1c13.1-10,22.8-24,27.7-39.7
		c3,0.8,15.1,4.3,18.2,5.1c-6,19.5-18.1,37-34.4,49.5c-17.4,13.3-38.2,20.4-60.1,20.4c-22,0-42.8-7.1-60.1-20.4
		c-16.3-12.5-28.4-30-34.4-49.5c3.1-0.9,15.2-4.3,18.2-5.1c4.9,15.6,14.6,29.6,27.7,39.6c14.1,10.8,30.9,16.5,48.7,16.5
		C117.8,164.6,134.6,158.9,148.7,148.1z"/>
	<polygon class="st1" points="26.5,103.2 28.1,117.5 37.2,115.4 	"/>
	<polygon class="st1" points="173.5,103.2 171.7,117.6 162.8,115.5 	"/>
	<polygon class="st1" points="90.1,14.4 43.2,61.4 44.7,71.9 102.1,14.4 	"/>
	
		<rect x="32.9" y="32.3" transform="matrix(0.7071 -0.7071 0.7071 0.7071 -6.4402 53.3295)" class="st1" width="56.6" height="4.2"/>
	<polygon class="st1" points="157.3,90.4 95.5,152.1 101.4,158.2 159.8,99.8 	"/>
	
		<rect x="76.3" y="113.7" transform="matrix(0.707 -0.7072 0.7072 0.707 -45.8808 120.8072)" class="st1" width="93.1" height="4.2"/>
	<rect x="97.6" y="53.6" class="st1" width="4.9" height="22.7"/>
	<path class="st1" d="M77.2,97.4c0,12.6,10.2,22.8,22.8,22.8c12.6,0,22.8-10.2,22.8-22.8c0-12.6-10.2-22.8-22.8-22.8
		C87.4,74.6,77.2,84.8,77.2,97.4z M80.4,97.4c0-10.8,8.8-19.6,19.6-19.6c10.8,0,19.6,8.8,19.6,19.6c0,10.8-8.8,19.6-19.6,19.6
		C89.2,117,80.4,108.2,80.4,97.4z"/>
	<path class="st1" d="M79.1,90.9c3.2,4.6,11.4,7.5,20.9,7.5v-2.1c-8.7,0-16.4-2.7-19.2-6.6L79.1,90.9z"/>
	<path class="st1" d="M80.5,108c3.9,3.7,11.4,5.9,19.5,5.9c1.7,0,3.3-0.1,5-0.3l-0.2-2.1c-1.5,0.2-3.1,0.3-4.7,0.3
		c-7.6,0-14.6-2.1-18.1-5.4L80.5,108z"/>
	<path class="st1" d="M77.8,96.1c0.8,6.2,10.4,10.8,22.2,10.8c1.3,0,2.5-0.1,3.7-0.2l-0.2-2.1c-1.2,0.1-2.4,0.2-3.6,0.2
		c-10.5,0-19.5-4-20.1-9L77.8,96.1z"/>
	<path class="st1" d="M99.1,97.9c4.3,7.5,5.9,15.5,3.8,19.9l1.9,0.9c2.3-5.1,0.8-13.7-3.9-21.8L99.1,97.9z"/>
	<path class="st1" d="M110,86.2c0.9,1.2,1.8,2.6,2.6,4c3.8,6.6,5.5,13.6,4.4,18.3l2.1,0.5c1.2-5.2-0.5-12.8-4.6-19.9
		c-0.8-1.5-1.8-2.9-2.7-4.2L110,86.2z"/>
	<path class="st1" d="M104.5,90.7c0.7,1,1.3,2,1.9,3c5.2,9,6.2,18.9,2.3,21.9l1.3,1.7c4.9-3.8,4.2-14.4-1.7-24.7
		c-0.6-1.1-1.3-2.1-2-3.2L104.5,90.7z"/>
	<path class="st1" d="M99.1,96.8l1.8,1.1c4.3-7.5,10.5-12.8,15.3-13.3l-0.2-2.1C110.5,83,103.8,88.7,99.1,96.8z"/>
	<path class="st1" d="M85.6,89.1c-0.8,1.4-1.6,2.9-2.2,4.4l1.9,0.8c0.6-1.4,1.3-2.8,2.1-4.2c3.8-6.6,9.1-11.6,13.7-13l-0.6-2
		C95.4,76.7,89.7,82,85.6,89.1z"/>
	<path class="st1" d="M91.7,92.6c-0.6,1.1-1.2,2.2-1.7,3.3l1.9,0.9c0.5-1.1,1.1-2.1,1.6-3.2c5.2-9,13.2-14.9,17.8-12.9l0.8-2
		C106.5,76.4,97.7,82.3,91.7,92.6z"/>
	<path class="st1" d="M11.5,122.9c-0.4-0.8-0.7-1.7-0.9-2.6l3.1-1.2c0.1,0.8,0.3,1.9,0.7,2.8c0.4,0.8,0.9,1.2,1.5,0.9
		c1.8-0.8-1.3-4.8,2.8-6.7c2.4-1.1,4.8,0.1,6.2,3.3c0.3,0.6,0.6,1.5,0.8,2.3l-3,1.1c-0.1-0.8-0.3-1.6-0.6-2.3
		c-0.4-0.9-1-1.2-1.4-0.9c-1.5,0.7,1.1,4.9-2.7,6.6C15.7,127.2,13,126.1,11.5,122.9z"/>
	<path class="st1" d="M19.4,136.9l4.4-2.7l-2.1-3.4l-4.4,2.7l-1.9-3.1l11.2-7l1.9,3.1l-4.1,2.5l2.1,3.4l4.1-2.5l1.9,3.1l-11.2,7
		L19.4,136.9z"/>
	<path class="st1" d="M28.5,148.8l1.2-1.9l-2.6-3.1l-2.1,0.9l-2.3-2.7l12.9-5.3l2.7,3.2l-7.1,12L28.5,148.8z M32.2,142.9
		c0.4-0.7,0.8-1.3,1.4-1.9l0,0c-0.7,0.4-1.5,0.8-2.3,1.1l-1.4,0.6l1.5,1.7L32.2,142.9z"/>
	<path class="st1" d="M42.1,161.5l2.3-3.8c0.5-0.8,1-1.6,1.6-2.6l0,0c-0.9,0.7-1.8,1.4-2.8,2.2l-3.3,2.3l-2.6-2.2l1.4-3.4
		c0.5-1.2,1.1-2.4,1.8-3.5l0,0c-0.9,0.9-1.7,1.6-2.4,2.3l-3,2.8l-2.8-2.3l10.1-8.8l3.2,2.6l-1.9,4.4c-0.4,0.9-0.8,1.7-1.4,2.8l0,0
		c0.9-0.7,1.6-1.3,2.5-1.9l4-2.6l3.1,2.6L45,163.9L42.1,161.5z"/>
	<path class="st1" d="M52.9,168.4l0.3-5.4l-0.1-0.1l-2.4,4.2l-3.1-1.8l6.7-11.4c1.1,0.6,2.5,1.4,4,2.2c2.9,1.7,3.9,3.7,2.5,6.2
		c-0.8,1.4-2.3,2.2-3.9,1.9c0,0.6,0.1,1.2,0.1,1.8l0,4.7L52.9,168.4z M56.4,158.5c-0.2-0.1-0.5-0.3-0.6-0.3l-1.4,2.5
		c0.1,0.1,0.3,0.2,0.5,0.3c0.9,0.5,1.7,0.4,2.2-0.5C57.5,159.9,57.5,159.1,56.4,158.5z"/>
	<path class="st1" d="M64,174c-3.9-1.5-4.8-4.6-3.3-8.5c1.6-4,5.4-5.4,8.9-4.1c3.2,1.3,5.1,4,3.3,8.5C71.3,173.9,67.5,175.4,64,174z
		 M68.1,164.4c-1.2-0.5-2.7,0-3.7,2.3c-0.8,2.1-0.7,3.6,1,4.3c1.1,0.4,2.8,0.3,3.8-2.3C70.1,166.5,69.7,165.1,68.1,164.4z"/>
	<path class="st1" d="M78.8,178.5c-5-1.2-5.3-5-4.6-7.5c1-4.3,4.1-6.5,8.3-5.4c0.8,0.2,1.7,0.5,2.4,0.9l-1.2,3.1
		c-0.6-0.3-1.3-0.6-2-0.8c-1.7-0.4-3,0.5-3.5,2.6c-0.5,2.2,0,3.6,2,4.1c0.6,0.1,1.4,0.2,2,0.1l-0.3,3.3
		C80.9,178.9,79.8,178.8,78.8,178.5z"/>
	<path class="st1" d="M91.2,180.3L89,174l-0.6,6l-3.6-0.4l1.4-13.1l3.6,0.4l-0.6,5.6l3.4-5.3l4.4,0.5l-4.4,5.9l3.2,7.2L91.2,180.3z"
		/>
	<path class="st1" d="M109.4,180.3l-2.9-4.6l-0.1,0l0.4,4.8l-3.6,0.3l-1.1-13.2c1.2-0.2,2.8-0.3,4.5-0.5c3.4-0.3,5.3,0.8,5.6,3.7
		c0.1,1.6-0.6,3.1-2.1,3.8c0.4,0.5,0.7,1,1.1,1.4l2.7,3.8L109.4,180.3z M106.6,170.1c-0.2,0-0.6,0.1-0.7,0.1l0.2,2.8
		c0.1,0,0.4,0,0.6,0c1-0.1,1.6-0.7,1.6-1.6C108.3,170.6,107.8,170,106.6,170.1z"/>
	<path class="st1" d="M121.6,178.6c-4,0.9-6.6-1-7.5-5.1c-1-4.2,1.3-7.6,4.9-8.4c3.4-0.8,6.4,0.4,7.5,5.1
		C127.5,174.3,125.2,177.7,121.6,178.6z M119.5,168.3c-1.2,0.3-2.3,1.5-1.7,4c0.5,2.2,1.5,3.4,3.2,3c1.1-0.3,2.4-1.4,1.8-4.1
		C122.3,168.9,121.2,167.9,119.5,168.3z"/>
	<path class="st1" d="M138.1,172.9l-4,1.6l-9-10.6l3.6-1.5l4.4,5.4c0.5,0.6,1,1.2,1.5,1.9l0,0c-0.2-0.8-0.3-1.3-0.4-2.6l-0.6-6.7
		l3.4-1.4L138.1,172.9z"/>
	<path class="st1" d="M144.8,169.7l-6.6-11.4l6.7-3.9l1.5,2.7l-3.5,2l0.9,1.6l3.4-1.9l1.5,2.6l-3.4,1.9l1.1,1.8l3.5-2l1.6,2.7
		L144.8,169.7z"/>
	<path class="st1" d="M159.3,160.2l-4.9-2.3l-0.1,0.1l2.9,3.8l-2.9,2.2l-8-10.5c0.9-0.8,2.2-1.8,3.5-2.8c2.7-2,4.9-2.2,6.7,0.1
		c0.9,1.2,1.2,3,0.3,4.3c0.6,0.2,1.1,0.4,1.7,0.6l4.3,1.8L159.3,160.2z M151.5,153.2c-0.2,0.1-0.4,0.4-0.5,0.4l1.7,2.3
		c0.1-0.1,0.4-0.2,0.5-0.3c0.8-0.6,1-1.4,0.4-2.2C153.2,152.7,152.5,152.5,151.5,153.2z"/>
	<path class="st1" d="M166.5,154.3c-0.6,0.6-1.4,1.2-2.1,1.7l-2.2-2.5c0.7-0.3,1.6-0.9,2.3-1.6c0.6-0.6,0.8-1.3,0.4-1.7
		c-1.3-1.4-4.1,2.9-7.2-0.3c-1.8-1.9-1.6-4.5,0.9-6.9c0.5-0.5,1.2-1.1,1.9-1.5l2.1,2.4c-0.7,0.4-1.4,0.8-1.9,1.4
		c-0.7,0.7-0.7,1.3-0.4,1.7c1.2,1.2,4.2-2.7,7.1,0.2C169.2,149,169,151.9,166.5,154.3z"/>
	<path class="st1" d="M169.3,135.6l1.7,1.3l2.2-3l2.4,1.8l-2.2,3l4,2.9l-2.2,2.9l-10.6-7.8l4.5-6.1l2.5,1.9L169.3,135.6z"/>
	<path class="st1" d="M181.1,132.7c1,0.6,1.3,2,0.7,3c-0.6,1-2,1.3-3,0.7c-1-0.6-1.3-2-0.7-3C178.7,132.4,180.1,132.1,181.1,132.7z"
		/>
	<path class="st1" d="M186.7,126.6c-2.3,4.6-6,4-8.4,2.8c-3.9-2-5.3-5.5-3.4-9.3c0.4-0.8,0.9-1.5,1.4-2.1l2.8,1.8
		c-0.4,0.5-0.9,1.1-1.2,1.8c-0.8,1.5-0.2,3,1.7,4c2,1,3.5,0.8,4.5-1c0.3-0.5,0.5-1.4,0.6-2l3.1,1.1
		C187.5,124.6,187.1,125.7,186.7,126.6z"/>
	<path class="st1" d="M188.5,117.2c1.1,0.4,1.6,1.7,1.2,2.8c-0.4,1.1-1.7,1.6-2.8,1.2c-1.1-0.4-1.6-1.7-1.2-2.8
		C186.1,117.3,187.4,116.8,188.5,117.2z"/>
	<path class="st1" d="M142.8,12.3l-86.5,0L29.9,38.7l1.1,1.5c7.6,10.1,11.6,22.1,11.6,34.7c0,6.4-1,12.6-3,18.6
		c-1.3,3.9-2,7.9-2,12.1c0,13.8,7.6,26.5,19.8,33.1c7.3,3.9,15.1,6.9,23.2,8.6c6.7,1.5,13,5.4,17.8,11.1l1.6,1.9l1.6-1.9
		c4.8-5.7,11.1-9.6,17.8-11.1c8.1-1.8,15.9-4.7,23.2-8.6c12.2-6.6,19.8-19.3,19.8-33.1c0-4.1-0.7-8.2-2-12.1c-2-6-3-12.2-3-18.6
		c0-12.7,4-24.7,11.6-34.7l1.1-1.5l-26.4-26.4H142.8z M141.9,16.6c1.1,1.1,20.4,20.4,22.6,22.6c-7.4,10.5-11.4,22.8-11.4,35.8
		c0,6.8,1.1,13.5,3.3,19.9c1.2,3.4,1.8,7,1.8,10.7c0,12.3-6.7,23.6-17.5,29.4c-7,3.8-14.4,6.5-22.1,8.2c-6.9,1.5-13.3,5.3-18.5,10.7
		c-5.2-5.4-11.6-9.2-18.5-10.7c-7.7-1.7-15.2-4.5-22.1-8.2c-10.8-5.8-17.5-17.1-17.5-29.4c0-3.7,0.6-7.3,1.8-10.7
		c2.2-6.4,3.3-13.1,3.3-19.9c0-13-4-25.3-11.4-35.8C37.7,37,57,17.7,58.1,16.6C59.8,16.6,140.2,16.6,141.9,16.6z"/>
	<path class="st1" d="M110.8,36.5c0-3-2.4-5.4-5.4-5.4c-3,0-5.4,2.4-5.4,5.4c0-3-2.4-5.4-5.4-5.4c-3,0-5.4,2.4-5.4,5.4
		c0,0.5,0.1,1,0.2,1.5c0,0,0,0,0,0c1.4,5.5,10.5,14.4,10.5,14.4s9.2-8.9,10.5-14.4c0,0,0,0,0,0C110.7,37.5,110.8,37,110.8,36.5z"/>
	<path class="st1" d="M100,33.8c-1-2-3-3.3-5.4-3.3c-3.3,0-6,2.7-6,6.1c0,0.6,0.1,1.1,0.2,1.7c1.4,5.6,10.3,14.3,10.7,14.7
		c0.3,0.3,0.7,0.3,0.9,0c0.4-0.4,9.3-9.1,10.7-14.7c0.1-0.5,0.2-1.1,0.2-1.7c0-3.3-2.7-6.1-6.1-6.1C103,30.4,101,31.8,100,33.8z
		 M100.7,36.5c0-2.6,2.1-4.7,4.7-4.7c2.6,0,4.7,2.1,4.7,4.7c0,0.4-0.1,0.9-0.2,1.3c-1.1,4.6-8,11.8-9.9,13.6
		c-1.9-1.9-8.8-9-9.9-13.6c-0.1-0.5-0.2-0.9-0.2-1.3c0-2.6,2.1-4.7,4.7-4.7c2.6,0,4.7,2.1,4.7,4.7c0,0.4,0.3,0.7,0.7,0.7
		C100.4,37.2,100.7,36.9,100.7,36.5z"/>
	<path class="st1" d="M82.9,47.4C82.9,47.4,82.9,47.4,82.9,47.4c-0.5,0-1,0.1-1.5,0.3c-2.8,1-4.2,4.1-3.2,6.9c1,2.8,4.1,4.2,6.9,3.2
		c-2.8,1-4.2,4.1-3.2,6.9c1,2.8,4.1,4.2,6.9,3.2c0.5-0.2,0.9-0.4,1.3-0.7c0,0,0,0,0,0c4.7-3.2,9.9-14.8,9.9-14.8
		S88.5,46.8,82.9,47.4z"/>
	<path class="st1" d="M82.8,46.7C82.8,46.7,82.8,46.7,82.8,46.7c-0.6,0-1.1,0.2-1.6,0.4c-2.5,0.9-4,3.2-4,5.7c0,0.7,0.1,1.4,0.4,2.1
		c0.8,2.2,2.8,3.6,4.9,3.9c-1,1.1-1.6,2.6-1.6,4.1c0,0.7,0.1,1.4,0.4,2.1c1.1,3.1,4.6,4.8,7.8,3.6c0.5-0.2,1-0.5,1.5-0.8
		c4.8-3.2,9.9-14.6,10.1-15.1c0.1-0.3,0-0.7-0.3-0.9C99.8,51.5,88.6,46.1,82.8,46.7z M78.8,54.4c-0.9-2.4,0.4-5.1,2.8-6
		c0.4-0.1,0.8-0.2,1.3-0.3c0,0,0,0,0,0c4.7-0.5,13.8,3.5,16.2,4.6c-1.1,2.4-5.5,11.3-9.4,14c-0.4,0.3-0.8,0.5-1.2,0.6
		c-2.4,0.9-5.1-0.4-6-2.8c-0.2-0.5-0.3-1.1-0.3-1.6c0-1.9,1.2-3.7,3.1-4.4c0.3-0.1,0.4-0.4,0.4-0.6c0-0.1,0-0.2,0-0.2
		c-0.1-0.3-0.3-0.6-0.6-0.4c-0.1,0-0.2,0-0.2,0C82.4,58.1,79.7,56.8,78.8,54.4z M82.8,46.7C82.8,46.7,82.8,46.7,82.8,46.7
		C82.8,46.7,82.8,46.7,82.8,46.7z"/>
	<path class="st1" d="M118.6,47.7c-0.5-0.2-1-0.3-1.5-0.3v0c-5.7-0.6-17.1,5-17.1,5s5.2,11.7,9.9,14.8c0,0,0,0,0,0
		c0.4,0.3,0.8,0.5,1.3,0.7c2.8,1,5.9-0.4,6.9-3.2c1-2.8-0.4-5.9-3.2-6.9c2.8,1,5.9-0.4,6.9-3.2C122.9,51.8,121.4,48.7,118.6,47.7z"
		/>
	<path class="st1" d="M99.7,51.8c-0.3,0.2-0.5,0.5-0.3,0.9c0.2,0.5,5.3,11.9,10.2,15.1c0.4,0.3,1,0.6,1.5,0.8
		c3.1,1.1,6.6-0.5,7.8-3.6c0.2-0.7,0.4-1.4,0.4-2.1c0-1.5-0.6-3-1.6-4.1c2.2-0.3,4.1-1.7,4.9-3.9c0.2-0.7,0.4-1.4,0.4-2.1
		c0-2.5-1.5-4.8-4-5.7c0,0,0,0,0,0c-0.5-0.2-1.1-0.3-1.7-0.3C111.4,46.1,100.2,51.5,99.7,51.8z M117.1,48.1c0.5,0,0.9,0.1,1.3,0.3
		c1.9,0.7,3.1,2.5,3.1,4.4c0,0.5-0.1,1.1-0.3,1.6c-0.9,2.4-3.6,3.7-6,2.8c-0.1,0-0.2,0-0.2,0c-0.3,0-0.5,0.2-0.6,0.4
		c0,0.1,0,0.2,0,0.2c0,0.3,0.2,0.5,0.4,0.6c1.9,0.7,3.1,2.5,3.1,4.4c0,0.5-0.1,1.1-0.3,1.6c-0.9,2.4-3.6,3.7-6,2.8
		c-0.4-0.1-0.8-0.4-1.2-0.6c-3.9-2.6-8.3-11.6-9.4-14C103.3,51.6,112.4,47.5,117.1,48.1z"/>
</g>
</svg>
