<?xml version="1.0" encoding="utf-8"?>
<!-- Generator: Adobe Illustrator 21.1.0, SVG Export Plug-In . SVG Version: 6.00 Build 0)  -->
<svg version="1.1" id="Layer_1" xmlns="http://www.w3.org/2000/svg" xmlns:xlink="http://www.w3.org/1999/xlink" x="0px" y="0px"
	 viewBox="0 0 200 200" style="enable-background:new 0 0 200 200;" xml:space="preserve">
<style type="text/css">
	.st0{fill:#FFFFFF;}
	.st1{fill:#EF7E25;}
</style>
<g>
	<path d="M99.9,199.3c-14.3-4.3-29.5-11.1-42.1-18.7l0,0c-12.6-7.6-22.5-16-26.2-23.8l0,0c-3.7-7.7-4.6-17.1-4.6-30.5l0,0V11.7h35.9
		v-11h74.1v11H173l0,114.6c0,13.4-0.9,22.8-4.6,30.5l0,0c-3.7,7.7-13.6,16.2-26.2,23.8l0,0c-12.6,7.6-27.8,14.4-42.1,18.7l0,0
		l-0.1,0L99.9,199.3L99.9,199.3z"/>
	<path class="st0" d="M28,126.3c0,13.4,0.9,22.6,4.5,30.1l0,0c3.5,7.4,13.3,15.8,25.8,23.3l0,0c12.4,7.5,27.5,14.3,41.7,18.5l0,0
		c14.2-4.2,29.3-11,41.7-18.5l0,0c12.5-7.6,22.3-16,25.8-23.3l0,0c3.6-7.5,4.5-16.7,4.5-30.1l0,0V12.7h-35.4v-0.5h0.5h-0.5v0.5H136
		v-11H64v11H28V126.3L28,126.3z"/>
	<polyline class="st1" points="133.5,4.3 133.5,15.3 169.4,15.3 169.4,51.1 30.6,51.1 30.6,15.3 66.5,15.3 66.5,4.3 133.5,4.3 	"/>
	<polygon points="132.4,5.3 67.6,5.3 67.6,16.3 31.6,16.3 31.6,50.1 168.4,50.1 168.4,16.3 132.4,16.3 132.4,5.3 	"/>
	<path d="M30.6,54.7v71.6c0,12.1,0.7,21.6,4.2,29c3.1,6.6,11.9,14.5,24.8,22.3c12.1,7.3,26.7,13.9,40.4,18
		c13.6-4.2,28.3-10.7,40.4-18c12.9-7.8,21.7-15.7,24.8-22.3c3.5-7.4,4.2-16.9,4.2-29V54.7H30.6z"/>
	<rect x="31.6" y="55.7" class="st1" width="136.7" height="31.6"/>
	<path class="st0" d="M48.3,64.3c-0.8-2-2.2-2.9-4.5-2.9c-2.3,0-3.9,1.4-3.9,3.1c0,5.1,11.3,3.8,11.3,11.6c0,4.6-4,7.7-9.9,7.7
		c-2.7,0-4.9-0.7-6-1.5c0.5-1.6,0.8-2.8,1.1-4.3h0.7c0.4,2,2.1,3.7,5.1,3.7c2.9,0,4.4-1.6,4.4-3.5c0-5.2-11.1-3.8-11.1-11.6
		c0-4.7,4-7.3,8.4-7.3c2.7,0,4.7,0.7,6.1,1.7c-0.4,1.1-0.7,1.9-1.2,3.4H48.3z"/>
	<path class="st0" d="M72.8,71.9c-1.9,0-3.8-0.1-5.7-0.1c-1.9,0-3.8,0.1-5.7,0.1v2c0,3.8,0.1,6.5,0.3,9.5c-0.8-0.1-1.8-0.2-3.1-0.2
		c-1.2,0-2.2,0.1-3.1,0.2c0.2-3,0.3-5.6,0.3-9.5v-4.7c0-3.8-0.1-6.5-0.3-9.5c0.8,0.1,1.8,0.2,3.1,0.2c1.2,0,2.2-0.1,3.1-0.2
		c-0.2,3-0.3,5.6-0.3,9.4c1.3,0,3.1,0.1,5.7,0.1c2.6,0,4.2,0,5.6-0.1c0-3.8-0.1-6.4-0.3-9.4c0.8,0.1,1.8,0.2,3.1,0.2
		c1.2,0,2.2-0.1,3.1-0.2c-0.2,3-0.3,5.6-0.3,9.5v4.7c0,3.8,0.1,6.5,0.3,9.5c-0.8-0.1-1.8-0.2-3.1-0.2c-1.2,0-2.2,0.1-3.1,0.2
		c0.2-3,0.3-5.6,0.3-9.5V71.9z"/>
	<path class="st0" d="M85.1,69.2c0-3.8-0.1-6.5-0.3-9.5c0.8,0.1,1.8,0.2,3.1,0.2c1.2,0,2.2-0.1,3.1-0.2c-0.2,3-0.3,5.6-0.3,9.5v4.7
		c0,3.8,0.1,6.5,0.3,9.5c-0.8-0.1-1.8-0.2-3.1-0.2c-1.2,0-2.2,0.1-3.1,0.2c0.2-3,0.3-5.6,0.3-9.5V69.2z"/>
	<path class="st0" d="M103.2,72.4h-0.3v1.4c0,3.8,0.1,6.5,0.3,9.5c-0.8-0.1-1.8-0.2-3.1-0.2c-1.2,0-2.2,0.1-3.1,0.2
		c0.2-3,0.3-5.6,0.3-9.5v-4.7c0-3.8-0.1-6.5-0.3-9.5c0.8,0.1,1.8,0.2,3.1,0.2c1.3,0,2.9-0.2,5.5-0.2c3.8,0,5.1,0.3,6.5,1.2
		c1.5,1,2.4,2.5,2.4,4.5c0,3.3-2.1,5.4-5.8,6.3c2.4,3.9,5.2,7.8,7.9,11.6c-1.1-0.1-2.2-0.2-3.4-0.2c-1.1,0-2.3,0.1-3.4,0.2
		L103.2,72.4z M103,61.6c-0.1,3.1-0.1,6.2-0.1,9.3c0.3,0,0.6,0.1,0.8,0.1c3.3,0,5.1-1.7,5.1-4.9C108.8,62.1,107.1,61.6,103,61.6z"/>
	<path class="st0" d="M141.2,83.3c-1.2-0.1-2.2-0.2-3.3-0.2c-1,0-2.1,0.1-3.2,0.2c-0.8-2.3-1.6-4.7-2.6-7c-1.6,0-3.2-0.1-4.8-0.1
		c-1.3,0-2.6,0-3.9,0.1c-1,2.3-1.8,4.7-2.5,7c-0.6-0.1-1.2-0.2-1.8-0.2c-0.6,0-1.2,0.1-1.9,0.2c1.8-3.8,7.4-16,10.6-23.8
		c0.5,0.1,0.9,0.2,1.4,0.2s0.9-0.1,1.4-0.2C134,67.3,138.4,77.7,141.2,83.3z M131.3,74.3c-1.1-2.8-2.1-5.5-3.3-8.1
		c-1.3,2.7-2.4,5.4-3.5,8.1H131.3z"/>
	<path class="st0" d="M150.3,72.6c0,4.9,0,8.6,0.3,10.8c-0.8-0.1-1.8-0.2-3.1-0.2c-1.2,0-2.2,0.1-3.1,0.2c0.2-3,0.3-5.6,0.3-9.5
		v-4.7c0-3.8-0.1-6.5-0.3-9.5c0.8,0.1,1.8,0.2,3.1,0.2c1.2,0,2.2-0.1,3.1-0.2c-0.3,1.8-0.3,6.5-0.3,10.9c3.4-3.6,8.2-9.2,9.5-10.9
		c0.7,0.1,1.4,0.2,2.1,0.2c0.7,0,1.4-0.1,2.2-0.2c-1.7,1.5-7.7,7.6-9.6,9.9c3.2,4.5,8.2,11.3,10.2,13.8c-1.5-0.1-2.5-0.2-3.6-0.2
		c-1.1,0-2.2,0.1-3.2,0.2C155.3,79.7,152.8,76.1,150.3,72.6L150.3,72.6z"/>
	<path class="st1" d="M58.2,91.1v84.4c0.6,0.4,1.3,0.8,1.9,1.2c0.8,0.5,1.6,1,2.5,1.5V91.1H58.2z"/>
	<path class="st1" d="M68.9,91.1v90.5c1.4,0.8,2.9,1.5,4.4,2.2V91.1H68.9z"/>
	<path class="st1" d="M47.5,91.1V168c1.4,1.1,2.8,2.2,4.4,3.3V91.1H47.5z"/>
	<path class="st1" d="M36.9,91.1v65.8c1.1,1.8,2.6,3.6,4.4,5.5V91.1H36.9z"/>
	<path class="st1" d="M79.6,91.1v95.7c1.5,0.7,2.9,1.3,4.4,1.9V91.1H79.6z"/>
	<path class="st1" d="M90.3,91.1v100.1c1.5,0.6,2.9,1.1,4.4,1.6V91.1H90.3z"/>
	<path class="st0" d="M100,133.8v60.7c8.3-2.6,17-6,25.3-10v-50.7H100z"/>
	<rect x="143.1" y="90.2" class="st0" width="25.3" height="25.8"/>
	<rect x="100" y="90.2" class="st0" width="25.3" height="25.8"/>
	<path class="st0" d="M143.1,174.6c10.9-7,18.4-14,21.1-19.8c2.7-5.6,3.7-12.6,4-21h-25.2V174.6z"/>
	<path class="st1" d="M168.4,116l-25.3,0V90.2h-17.8V116l-25.3,0v17.8h25.3v50.7c5.1-2.5,10-5.1,14.5-7.8c1.1-0.7,2.2-1.4,3.3-2
		v-40.8h25.2c0.1-2.4,0.1-4.9,0.1-7.5V116z"/>
	<path class="st0" d="M43.2,31.2c0-1.5,0-2.5-0.1-3.7c0.8,0,1.6,0.1,2.4,0.1c1.3,0,2.4,0,2.8-0.1c0,0.2-0.1,0.3-0.1,0.6
		c0,0.3,0,0.4,0.1,0.6c-1-0.1-2.6-0.2-3-0.2c-0.1,1-0.1,1.9-0.1,2.9c1.2,0,2-0.1,3-0.1c-0.1,0.3-0.1,0.4-0.1,0.6
		c0,0.1,0,0.3,0.1,0.5c-1-0.1-2-0.1-3-0.1V33c0,1.5,0,2.5,0.1,3.7c-0.3,0-0.7-0.1-1.1-0.1c-0.4,0-0.8,0-1.1,0.1
		c0.1-1.2,0.1-2.2,0.1-3.7V31.2z"/>
	<path class="st0" d="M58,35.1c-0.1,0.4-0.3,0.8-0.3,1.1c-0.7,0.4-1.6,0.6-2.7,0.6c-3.1,0-4.9-1.9-4.9-4.5c0-3.7,2.5-5.1,5.3-5.1
		c0.9,0,2.1,0.3,2.7,0.7c-0.2,0.4-0.3,0.9-0.3,1.4h-0.2c-0.7-0.8-1.3-1.2-2.3-1.2c-1.4,0-3,1.2-3,4.1c0,2.8,1.6,3.8,3.2,3.8
		c0.9,0,1.8-0.4,2.4-1L58,35.1z"/>
	<path class="st0" d="M137.1,27.7c-0.1,1.1-0.1,2.6-0.1,4v0.8c0,1.4,0,2.4,0.1,4.2c-0.3,0-0.7-0.1-1-0.1c-0.3,0-0.7,0-1.1,0.1
		c0-0.7,0.1-2.2,0.1-3.7v-3.8c-0.3,0.1-1.1,0.5-1.5,0.8c-0.2-0.3-0.5-0.6-0.7-0.7c1.4-0.5,2.6-1,4-1.7L137.1,27.7z"/>
	<path class="st0" d="M141.7,35.8c0.3,0.2,0.6,0.5,1.3,0.5c1,0,2.2-1.2,2.3-3.8l0,0c-0.3,0.4-0.8,0.7-1.8,0.7
		c-1.3,0-2.5-0.9-2.5-2.5c0-1.8,1.1-3,3-3c1.9,0,3.2,1.2,3.2,3.7c0,3.4-1.7,5.4-4.2,5.4c-0.3,0-0.8-0.1-1-0.2
		C141.8,36.4,141.7,36.1,141.7,35.8L141.7,35.8z M144,28.3c-0.7,0-1.1,0.8-1.1,2.1c0,1.5,0.5,2.1,1.1,2.1c0.6,0,1.1-0.5,1.1-1.9
		C145.2,28.8,144.7,28.3,144,28.3z"/>
	<path class="st0" d="M150.1,32.4c0.1-0.4,0.1-1.3,0.1-1.8c0-0.8-0.1-2.4-0.2-2.8l0.1-0.1c0.3,0.1,1,0.1,1.6,0.1
		c0.5,0,1.9,0,3.1-0.1c0,0.3-0.1,0.6-0.1,0.9c0,0.3,0,0.6,0.1,0.9c-0.3,0-1.6-0.1-2-0.1c-0.9,0-1.4,0-1.8,0.1
		c-0.1,0.3-0.1,1.5-0.1,2.3c0.4-0.3,0.9-0.4,1.5-0.4c1.8,0,2.8,1.1,2.8,2.5c0,1.7-1.5,3-3.6,3c-0.9,0-1.8-0.3-2.4-0.7
		c0.3-0.5,0.5-0.9,0.7-1.4h0.2c0.3,1,0.7,1.5,1.5,1.5c0.6,0,1.5-0.4,1.5-2.2c0-1.4-0.7-2-1.6-2c-0.4,0-0.9,0.3-1.1,0.6L150.1,32.4z"
		/>
	<path class="st0" d="M159.5,31.7c-0.8-0.1-1.5-0.9-1.5-1.9c0-1.4,1.2-2.2,2.8-2.2c1.9,0,2.9,0.9,2.9,2.1c0,1.1-0.7,1.8-1.5,2v0.1
		c0.8,0.1,1.8,0.9,1.8,2.2c0,1.8-1.3,2.8-3.2,2.8c-1.8,0-3.1-0.9-3.1-2.6C157.6,32.8,158.5,32,159.5,31.7L159.5,31.7z M160.7,32.1
		c-0.7,0-1.1,0.6-1.1,2.1c0,1.4,0.5,2.1,1.2,2.1c0.6,0,1.2-0.7,1.2-2.1C161.9,32.7,161.4,32.1,160.7,32.1z M160.8,28.2
		c-0.8,0-1.1,0.7-1.1,1.8c0,1,0.5,1.6,1,1.6c0.6,0,1.1-0.6,1.1-1.7C161.8,28.9,161.5,28.2,160.8,28.2z"/>
	<polygon class="st0" points="105.2,14.3 102.3,14.3 102.3,11.6 100.1,11.6 100.1,14.3 97.1,14.3 97.1,16.6 100.1,16.6 100.1,23.9 
		102.3,23.9 102.3,16.6 105.2,16.6 	"/>
	<path class="st0" d="M124.5,40.6c-0.4-0.3-0.8-0.5-2.2-0.5c-1.1,0-2.4,0.2-3.9-0.8c-1-0.7-2.1-2.4-3.3-4.5c-0.9-1.6-2.3-3.4-3-5.3
		c0.6,0.6,1.7,3.7,3.8,5.8c0,0,1.6-1.7,3.1-9.4c2.6-0.1,2.3,0.9,3.3,0.9c0.4,0,1-0.3,0.8-1.6c0,0,0.6,0.1,1.3,0.1
		c0,0,1.1-1.2,1.1-1.9c0-0.5-0.8-0.9-2.9-2.8c-0.9-0.9-2.5-2.7-3.4-2.7c-0.8,0-1,0.1-1.4,0.1c-1.2,0,0.2-1.5-1.2-1.5
		c-0.8,0-0.8,0.7-1,1.4c-3.3,0.9-7.4,4.3-9.2,5.7c-1.3,1-2,1.5-5.6,1.5c-2.1,0-10.2-0.6-13.7-0.6c-4.5,0-6.8,3.3-10.1,3.3
		c-1.4,0-2.1-0.9-2.1-1.9c0-5.6,14.2-5.8,14.2-12c0-0.8-0.3-1.5-0.6-1.5c-1.6,0-0.6,2.2-2.5,4c-2,1.8-4.6,2.6-6.8,3.6
		c-3.4,1.5-6.2,3.3-6.2,6.1c0,2,1.3,4.2,5.8,4.2c0.7,0,2.2-0.3,2.2,0.1c0,0.6-1.2,1.5-1.8,1.9c-1.4,1-2.7,0.9-3.8,1.3
		c-1.1,0.3-1.6,1.1-2.5,3.5c-0.9,2.5-0.8,3.6-1.2,3.6c-0.8,0,0-1.2-2.3-1.2c-0.7,0-1.6,0.3-1.4,1.7c0,0-0.5,0.9,0.1,1.9
		c0.1,1.2,1.2,1.9,2.7,1.9c4.6,0,5.4-5.2,7.5-6.8c0.9-0.7,2.2-1,5.4-1c3.3,0,4.2,0.5,4.2,0.5c3-4.5,8.2-5.7,8.2-5.7
		s-7.6,4.3-7.6,5.9c0,0.1,1.4,0.1,3.2,0.1c0.7,0,4.2-2.9,6.8-2.9c3.2,0,3.7,2.3,10,1.5c-0.5-1-4.1-3.6-4.1-3.6
		c2.6,0.9,3.8,2.6,5.1,3.7c3.1,2.6,4.4,4.5,6,5.7c1.9,1.6,3.4,1.8,7.1,1.8c2.8,0,2.8-0.7,2.8-1.6C125.3,41.6,125,41,124.5,40.6z"/>
	<path class="st0" d="M110,37.2c-0.4,0.4-0.8,0.9-1.4,1.1c-2,0.3-2.6,0-3-0.6c0.2-0.9-0.7-1.2-1.3-1.2c-1.1,0-2,0.6-2,1.4
		c0,1.7,1.4,2.9,8.2,3c0,0,0.8-0.5,1.9-1.4C111.8,38.8,111,38.1,110,37.2z"/>
	<path class="st0" d="M95.5,40c0-0.4-0.3-0.7-0.9-0.8c0,0-0.1-0.3-1.3-0.3c-1.3,0-1.8,0.7-2.8,0.7c-1.9,0-1.7-2.1-6.9-2.1
		c-1.6,0-2.8,0.1-3.7,0.3c1.4,3.1,3.4,3.9,7.5,3.9h6.8c0.5,0,1.1-0.4,1-1C95.2,40.6,95.5,40.5,95.5,40z"/>
</g>
</svg>
