<?xml version="1.0" encoding="utf-8"?>
<!-- Generator: Adobe Illustrator 21.1.0, SVG Export Plug-In . SVG Version: 6.00 Build 0)  -->
<svg version="1.1" id="Layer_1" xmlns="http://www.w3.org/2000/svg" xmlns:xlink="http://www.w3.org/1999/xlink" x="0px" y="0px"
	 viewBox="0 0 200 200" style="enable-background:new 0 0 200 200;" xml:space="preserve">
<style type="text/css">
	.st0{fill:#32B0E5;enable-background:new    ;}
	.st1{fill:#006696;}
	.st2{fill:#FFFFFF;}
	.st3{fill:#ED3024;}
	.st4{fill:#FFFFFF;enable-background:new    ;}
	.st5{fill:#006696;enable-background:new    ;}
	.st6{fill:#F6921E;enable-background:new    ;}
</style>
<g>
	<g>
		<path class="st0" d="M176.2,99.6l-0.1-0.2c-3.1-6.2-15.5-21.3-31.2-32.6C127.8,54.4,107.2,46,100,44.1H100
			C92.8,46,72.2,54.4,55.1,66.8C39.4,78.1,27,93.2,23.9,99.4c0,0.1-0.1,0.2-0.1,0.2c-0.5,7.4,1.1,29.6,7.5,49.7
			c5.9,18.4,16.3,34.9,21.3,39.8c0.1,0.1,0.1,0.1,0.2,0.2c7,2.8,28.5,8,49.5,8.3c19.3,0.3,38.3-4.4,44.5-7.6
			c0.2-0.2,0.3-0.3,0.5-0.4c5-4.9,15.5-21.8,21.4-40.2C175.1,129.2,176.7,107,176.2,99.6z"/>
		<path class="st1" d="M99.4,41.8c-6.7,1.7-27.6,9.9-45.7,23C38.1,76,25.1,91.5,21.7,98.3l-0.1,0.1l0,0l-0.3,0.9l0,0.1
			c-0.5,6.9,0.8,29.3,7.6,50.6c5.8,18.2,16.4,35.4,21.9,40.8l0.2,0.2l-0.4-0.5c0,0,1.7,1.1,1.7,1.1c7.4,2.8,28.8,8,50,8.3
			c19.1,0.3,38.8-4.4,45.6-7.9l0.4-0.2l0,0l1.1-1.1l-0.3,0.4c5.4-5.4,16.1-22.7,22-41.2c6.8-21.3,8.1-43.7,7.6-50.7l0-0.3l-0.2-0.6
			l-0.1-0.1c-3.4-6.8-16.4-22.3-31.9-33.5c-18.1-13.1-39-21.3-45.7-23l-0.6-0.2L99.4,41.8z M56.5,68.8c16.2-11.7,35.9-20,43.5-22.1
			c7.6,2.1,27.3,10.4,43.5,22.1c15.8,11.4,27.3,25.9,30.2,31.4c0,0.7,0.1,1.5,0.1,2.4c0,9.2-1.9,28.6-7.5,46
			c-5.6,17.5-15.8,34.3-20.8,39.2l-0.1,0.1c0,0,0,0-0.1,0.1c-5.6,2.7-23.5,7.5-43.1,7.2c-20.6-0.3-41.3-5.3-48.3-8
			c-4.4-4.5-14.5-19.9-20.4-38.5c-5.6-17.5-7.5-36.8-7.5-46c0-0.9,0-1.7,0.1-2.4C29.2,94.7,40.7,80.2,56.5,68.8z M52.5,191.8
			c0,0-0.1,0-0.1-0.1c-0.1-0.1-0.3-0.1-0.4-0.2L52.5,191.8z"/>
	</g>
	<path class="st2" d="M100,58.7c36.1,0,65.5,29.4,65.5,65.5c0,36.1-29.4,65.5-65.5,65.5c-36.1,0-65.5-29.4-65.5-65.5
		C34.6,88.1,64,58.7,100,58.7L100,58.7z"/>
	<path class="st3" d="M100,78.4c25.2,0,45.8,20.6,45.8,45.8c0,25.2-20.6,45.8-45.8,45.8c-25.2,0-45.8-20.6-45.8-45.8
		C54.3,98.9,74.8,78.4,100,78.4L100,78.4z"/>
	<g>
		<path class="st4" d="M100,150.3l-3.6-2.6l0-15.8l0,0c-5-0.1-12.5,0.2-22,1.8l0,0l0-11.5l0,0c7.7,1.6,14.6,1.9,22,1.9l0,0l0-11.7
			l0,0c-4,0.2-7.6,0.7-13.1,1.8l0,0l0-11.5l0,0c5.4,1,8.9,1.5,12.8,1.7c-0.3-4.1-0.9-7.6-2-13.2l0,0l11.5,0l0,0
			c-1,5.5-1.7,9.1-2,13.1c3.9-0.2,7.4-0.7,12.8-1.7l0,0l0,11.5l0,0c-5.5-1-9-1.5-13.1-1.8l0,0l0,11.7l0,0c7.5,0,14.4-0.3,22-1.9l0,0
			l0,11.5l0,0c-9.5-1.6-17.1-1.9-22-1.8l0,0l0,17L100,150.3L100,150.3z"/>
		<path class="st1" d="M93.6,91.4c1,5.5,1.6,8.8,1.9,12.3c-3.6-0.2-7-0.7-12-1.6l-0.8-0.1l0,13.1l0.8-0.1c5.4-1,8.7-1.5,12.3-1.7
			c0,1.2,0,9.2,0,10.3c-6.4,0-13.5-0.2-21.2-1.9l-0.8-0.2l0,13.1l0.8-0.1c7.4-1.3,14.5-1.9,21.3-1.8c0,1.2,0,15.4,0,15.4l4.2,3
			l4.4-1.7c0,0,0-15.6,0-16.8c6.7,0,13.9,0.6,21.3,1.8l0.8,0.1l0-13.1l-0.8,0.2c-7.7,1.7-14.8,1.9-21.2,1.9c0-1.1,0-9.1,0-10.3
			c3.6,0.2,6.9,0.7,12.3,1.7l0.8,0.1l0-13.1l-0.8,0.1c-5,0.9-8.4,1.4-12,1.6c0.3-3.6,0.8-6.8,1.9-12.3l0.1-0.8l-13.1,0L93.6,91.4z
			 M96.9,104.4c-0.3-3.8-0.8-7-1.8-12.4c1.3,0,8.6,0,9.9,0c-1,5.5-1.5,8.7-1.8,12.4l-0.1,0.8l0.8,0c3.8-0.2,7.1-0.6,12.1-1.6
			c0,1.3,0,8.6,0,9.9c-5.3-1-8.7-1.4-12.4-1.6l-0.7,0l0,13l0.7,0c6.5,0,13.6-0.2,21.4-1.8c0,1.3,0,8.7,0,10
			c-7.4-1.2-14.6-1.8-21.4-1.7l-0.7,0c0,0,0,16.3,0,17.2c-0.6,0.2-2.3,0.9-2.8,1.1c-0.5-0.3-2.6-1.9-3-2.2c0-0.7,0-16.1,0-16.1
			l-0.7,0c-6.7-0.1-13.9,0.5-21.4,1.7c0-1.2,0-8.7,0-10c7.8,1.6,14.9,1.8,21.4,1.8l0.7,0l0-13l-0.7,0c-3.7,0.2-7.1,0.7-12.4,1.6
			c0-1.3,0-8.6,0-9.9c5,0.9,8.3,1.3,12.1,1.6l0.8,0L96.9,104.4z"/>
	</g>
	<g>
		<path class="st5" d="M131.9,157c-8.3,8-19.5,12.9-31.8,12.9c-12.3,0-23.6-4.9-31.8-12.9c0.1-11.3,11.7-14.8,18.2-9.6
			c2.2-3.8,6.8-8.9,13.8-8.2c6.9-0.7,11.3,4.3,13.6,8.2C119.7,142.1,131.7,145.7,131.9,157L131.9,157z"/>
		<path class="st2" d="M100.1,137.9c-7.5-0.7-12.2,4.7-14.2,7.6c-3.5-2.2-8-2.5-11.8-0.7c-4.5,2.1-7.2,6.5-7.2,12.1l0,0.6l0.4,0.4
			c8.9,8.6,20.5,13.3,32.8,13.3c12.3,0,23.9-4.7,32.8-13.3l0.4-0.4l0-0.6c-0.1-5.6-2.9-10.2-7.6-12.2c-3.9-1.7-8.2-1.4-11.5,0.7
			C111.7,141.9,107.2,137.3,100.1,137.9z M87.5,148.1c1.4-2.5,5.5-8.2,12.5-7.5l0.1,0l0.1,0c6.5-0.7,10.5,4.4,12.3,7.5l0.8,1.4
			l1.2-1.1c2.5-2.2,6.5-2.7,9.9-1.2c3.6,1.6,5.8,5,6,9.2c-8.3,7.8-19.1,12.1-30.5,12.1c-11.4,0-22.2-4.3-30.5-12.1
			c0.2-4.2,2.3-7.5,5.7-9.1c3.4-1.6,7.4-1.2,10.3,1.1l1.2,1L87.5,148.1z"/>
	</g>
	<g>
		<path class="st1" d="M74,72.3l-2.8,1.6l-0.5-0.8c-0.2-0.4-0.4-0.6-0.5-0.7c-0.1-0.1-0.3-0.1-0.4,0c-0.2,0.1-0.3,0.3-0.3,0.5
			c0,0.2,0.1,0.4,0.3,0.7c0.2,0.4,0.4,0.6,0.7,0.8c0.2,0.1,0.6,0.2,1.2,0.2c1.8,0,3,0.2,3.6,0.5c0.6,0.3,1.3,1,1.9,2.1
			c0.5,0.8,0.7,1.5,0.8,2c0,0.5-0.1,1-0.5,1.6c-0.4,0.6-1,1.1-1.7,1.5c-0.8,0.5-1.6,0.7-2.3,0.7c-0.7,0-1.3-0.1-1.8-0.5
			c-0.4-0.4-0.9-1-1.4-1.8L69.8,80l2.8-1.6l0.8,1.4c0.3,0.4,0.4,0.7,0.6,0.8c0.1,0.1,0.3,0.1,0.5-0.1c0.2-0.1,0.3-0.3,0.3-0.5
			c0-0.2-0.1-0.5-0.3-0.8c-0.4-0.7-0.7-1.1-1-1.2c-0.3-0.1-1-0.2-2-0.2c-1-0.1-1.7-0.1-2.1-0.2c-0.4-0.1-0.7-0.3-1.1-0.6
			c-0.4-0.3-0.8-0.8-1.1-1.4c-0.5-0.9-0.8-1.6-0.8-2.1c0-0.5,0.2-1.1,0.5-1.6c0.4-0.5,0.9-1,1.6-1.4c0.8-0.5,1.5-0.7,2.2-0.8
			c0.7-0.1,1.2,0,1.6,0.3c0.4,0.3,0.9,0.9,1.4,1.8L74,72.3z"/>
		<path class="st1" d="M81.3,65.1l3.4,10l2-0.7l0.8,2.5l-5.2,1.8L78,66.2L81.3,65.1z"/>
		<path class="st1" d="M97.6,69.8c0.2,1.3,0.2,2.3,0.3,2.8c0,0.6-0.1,1.1-0.4,1.6c-0.3,0.5-0.7,0.9-1.2,1.2
			c-0.5,0.3-1.2,0.5-1.9,0.6c-0.7,0.1-1.3,0.1-1.9-0.1c-0.6-0.2-1.1-0.5-1.5-0.9c-0.4-0.4-0.7-0.9-0.8-1.4c-0.1-0.5-0.3-1.5-0.4-2.8
			l-0.3-2.2c-0.2-1.3-0.2-2.3-0.3-2.8c0-0.6,0.1-1.1,0.4-1.6c0.3-0.5,0.7-0.9,1.2-1.2c0.5-0.3,1.2-0.5,1.9-0.6
			c0.7-0.1,1.3,0,1.9,0.1c0.6,0.2,1.1,0.5,1.5,0.9c0.4,0.4,0.7,0.9,0.8,1.4c0.1,0.5,0.3,1.5,0.4,2.8L97.6,69.8z M93.7,65.9
			c-0.1-0.6-0.2-1-0.2-1.2c-0.1-0.2-0.2-0.2-0.4-0.2c-0.2,0-0.3,0.1-0.4,0.3c-0.1,0.1-0.1,0.6,0,1.2l0.8,6.1
			c0.1,0.8,0.2,1.2,0.3,1.4c0.1,0.2,0.2,0.2,0.5,0.2c0.2,0,0.4-0.1,0.4-0.4c0-0.2,0-0.7-0.1-1.5L93.7,65.9z"/>
		<path class="st1" d="M111.7,63l-3.2,13l-5.2-0.6L102.8,62l3.6,0.4c0,3.7,0,6.8-0.1,9.3c0.5-2.5,0.9-4.7,1.3-6.7l0.5-2.4L111.7,63z
			"/>
		<path class="st1" d="M123,66.3l-2.4,13.2l-3.3-1.1l0.6-2.3l-1.2-0.4l-1,2.2l-3.4-1.2l5.9-12L123,66.3z M118.5,73.7
			c0.3-1.5,0.8-3.3,1.3-5.4c-1.1,2.3-2,4-2.4,5L118.5,73.7z"/>
		<path class="st1" d="M136.9,73.7l-7,11.2l-2.6-1.6l1.7-6.1l-3.2,5.1l-2.4-1.5l7-11.2l2.4,1.5l-1.5,6.1l3.2-5.1L136.9,73.7z"/>
	</g>
	<g>
		<g>
			<path class="st1" d="M60.4,153.3l2.2,2.6c0.7,0.8,1.1,1.5,1.4,2c0.2,0.5,0.3,1.1,0.1,1.7c-0.2,0.6-0.7,1.3-1.6,2
				c-0.6,0.5-1.1,0.8-1.5,0.8c-0.4,0-0.9-0.2-1.4-0.6c0.4,0.7,0.5,1.3,0.3,1.8c-0.1,0.5-0.5,1-1.2,1.6l-0.9,0.8
				c-0.7,0.6-1.3,0.9-1.7,1.1c-0.5,0.1-0.9,0.1-1.3-0.2c-0.4-0.2-1-0.9-1.9-1.9l-2.5-3L60.4,153.3z M57.1,160.6l-2.8,2.4
				c0.3,0.4,0.6,0.5,0.8,0.5c0.2,0,0.5-0.2,0.9-0.5l0.9-0.8c0.4-0.4,0.7-0.6,0.7-0.8C57.5,161.3,57.4,161,57.1,160.6z M60.9,157.3
				l-2.2,1.9c0.1,0.1,0.2,0.2,0.2,0.3c0.2,0.3,0.4,0.4,0.6,0.3c0.2,0,0.6-0.3,1.2-0.8c0.3-0.3,0.5-0.5,0.6-0.6
				c0.1-0.2,0.1-0.3,0.1-0.4C61.2,157.8,61.1,157.6,60.9,157.3z"/>
			<path class="st1" d="M67.9,161.5l1.9,1.4c1.3,1,2.1,1.7,2.5,2.1c0.4,0.4,0.6,1,0.5,1.6c0,0.6-0.4,1.4-1.1,2.3
				c-0.6,0.8-1.1,1.3-1.6,1.4c-0.4,0.1-0.9,0-1.6-0.4c0.4,0.5,0.7,1,0.7,1.4c0,0.4,0,0.7-0.1,0.9c-0.1,0.2-0.5,0.8-1.1,1.6l-2.1,2.8
				l-2.5-1.9l2.6-3.5c0.4-0.6,0.6-0.9,0.7-1.2c0-0.2-0.2-0.4-0.5-0.7l-3.6,4.8l-2.7-2L67.9,161.5z M69.2,165.4l-1.8,2.4
				c0.3,0.2,0.5,0.3,0.7,0.4c0.2,0,0.5-0.2,0.8-0.7l0.4-0.6c0.3-0.3,0.4-0.6,0.3-0.8C69.7,165.8,69.5,165.6,69.2,165.4z"/>
			<path class="st1" d="M82.2,170.2L78.4,183l-3.2-1.4l0.8-2.2l-1.1-0.5l-1.2,2.1l-3.2-1.5l7.1-11.3L82.2,170.2z M77,177.2
				c0.5-1.4,1.1-3.2,1.8-5.3c-1.4,2.2-2.3,3.8-2.9,4.8L77,177.2z"/>
			<path class="st1" d="M92.5,173.1l-0.6,2.6l-2-0.5l-2.4,10.3l-3.3-0.8l2.4-10.3l-1.9-0.5l0.6-2.6L92.5,173.1z"/>
			<path class="st1" d="M99.2,173.6l-0.7,13.2l-3.4-0.2l0.7-13.2L99.2,173.6z"/>
			<path class="st1" d="M110.7,176.6l-3.1,0.4l-0.1-1c-0.1-0.5-0.1-0.7-0.2-0.8c-0.1-0.1-0.2-0.2-0.4-0.1c-0.2,0-0.3,0.1-0.4,0.3
				c-0.1,0.2-0.1,0.4,0,0.8c0.1,0.4,0.2,0.8,0.3,1c0.1,0.2,0.5,0.4,1.1,0.7c1.6,0.7,2.7,1.3,3.1,1.8c0.5,0.5,0.8,1.4,1,2.7
				c0.1,0.9,0.1,1.6,0,2.1c-0.2,0.5-0.5,0.9-1.1,1.3c-0.6,0.4-1.3,0.6-2.1,0.7c-0.9,0.1-1.7,0.1-2.4-0.2c-0.7-0.3-1.2-0.6-1.4-1.1
				c-0.3-0.5-0.5-1.3-0.6-2.2L104,182l3.1-0.4l0.2,1.6c0.1,0.5,0.2,0.8,0.3,0.9c0.1,0.1,0.3,0.2,0.5,0.1c0.2,0,0.4-0.1,0.5-0.3
				c0.1-0.2,0.1-0.5,0.1-0.8c-0.1-0.8-0.3-1.3-0.5-1.5c-0.2-0.2-0.8-0.5-1.7-1c-0.9-0.4-1.5-0.8-1.8-1c-0.3-0.2-0.6-0.5-0.8-1
				c-0.2-0.4-0.4-1-0.5-1.7c-0.1-1-0.1-1.8,0.1-2.3c0.2-0.5,0.5-0.9,1.1-1.3c0.5-0.3,1.2-0.6,2-0.7c0.9-0.1,1.6-0.1,2.3,0.1
				c0.7,0.2,1.1,0.5,1.4,0.9c0.3,0.4,0.5,1.1,0.6,2.2L110.7,176.6z"/>
			<path class="st1" d="M116.8,170.5l3.5,10l1.9-0.7l0.9,2.5l-5.1,1.8l-4.4-12.5L116.8,170.5z"/>
			<path class="st1" d="M126.9,165.3l8.5,10.3l-3,1.8l-1.4-1.9l-1,0.6l1.1,2.1l-3,1.8l-5.4-12.2L126.9,165.3z M129.7,173.5
				c-0.9-1.2-2-2.7-3.3-4.5c1,2.3,1.8,4,2.3,5.1L129.7,173.5z"/>
			<path class="st1" d="M136.2,157.3l7.8,10.8l-3.7,3.5l-10.5-8.3l2.6-2.4c2.8,2.4,5.1,4.4,7,6.1c-1.6-2-3-3.8-4.2-5.3l-1.5-2
				L136.2,157.3z"/>
			<path class="st1" d="M141.2,150.5l12,6l-2,2.8l-2-1.2l-0.7,1l1.8,1.5l-2,2.9l-9.9-9L141.2,150.5z M147.2,156.8
				c-1.3-0.7-2.9-1.6-4.8-2.7c1.9,1.7,3.3,3,4.2,3.7L147.2,156.8z"/>
		</g>
	</g>
	<g>
		<polygon class="st6" points="100.2,1.8 105.1,11.7 116,13.3 108.1,21 110,31.9 100.2,26.7 90.5,31.9 92.3,21 84.4,13.3 95.3,11.7 
					"/>
		<path class="st1" d="M99.5,1.4c0,0-4.4,8.8-4.7,9.5c-0.8,0.1-12.1,1.8-12.1,1.8s8.2,8,8.8,8.5c-0.1,0.8-2.1,12.1-2.1,12.1
			s10.1-5.3,10.8-5.7c0.7,0.4,10.8,5.7,10.8,5.7S109.1,22,109,21.3c0.6-0.5,8.8-8.5,8.8-8.5s-11.3-1.6-12.1-1.8
			c-0.3-0.7-5.4-11-5.4-11L99.5,1.4z M95.5,12.5l0.4-0.1c0,0,3.3-6.7,4.4-8.8c1,2.1,4.4,8.8,4.4,8.8s7.4,1.1,9.7,1.4
			c-1.7,1.6-7,6.9-7,6.9s1.3,7.4,1.7,9.7c-2.1-1.1-8.7-4.6-8.7-4.6s-6.6,3.5-8.7,4.6c0.4-2.3,1.7-9.7,1.7-9.7s-5.4-5.2-7-6.9
			C88.5,13.5,95.5,12.5,95.5,12.5z"/>
	</g>
	<g>
		<polygon class="st6" points="139.2,27.8 142.5,34.4 149.8,35.5 144.5,40.6 145.8,48 139.2,44.5 132.7,48 133.9,40.6 128.6,35.5 
			135.9,34.4 		"/>
		<path class="st1" d="M138.6,27.5c0,0-2.8,5.7-3.1,6.3c-0.6,0.1-8.3,1.2-8.3,1.2s5.6,5.4,6,5.9c-0.1,0.6-1.4,8.3-1.4,8.3
			s6.9-3.6,7.5-3.9c0.6,0.3,7.5,3.9,7.5,3.9s-1.3-7.7-1.4-8.3c0.5-0.5,6-5.9,6-5.9s-7.7-1.1-8.3-1.2c-0.3-0.6-3.7-7.6-3.7-7.6
			L138.6,27.5z M136,35.1l0.4-0.1c0,0,2-4.1,2.8-5.7c0.8,1.6,2.8,5.7,2.8,5.7s4.5,0.7,6.3,0.9c-1.3,1.3-4.6,4.5-4.6,4.5
			s0.8,4.5,1.1,6.3c-1.6-0.9-5.7-3-5.7-3s-4,2.1-5.7,3c0.3-1.8,1.1-6.3,1.1-6.3s-3.3-3.2-4.6-4.5C131.9,35.7,136,35.1,136,35.1z"/>
	</g>
	<g>
		<polygon class="st6" points="60.8,27.7 64.1,34.4 71.4,35.4 66.1,40.6 67.3,47.9 60.8,44.5 54.2,47.9 55.5,40.6 50.2,35.4 
			57.5,34.4 		"/>
		<path class="st1" d="M60.2,27.4c0,0-2.8,5.7-3.1,6.3c-0.6,0.1-8.3,1.2-8.3,1.2s5.6,5.4,6,5.9c-0.1,0.6-1.4,8.3-1.4,8.3
			s6.9-3.6,7.5-3.9c0.6,0.3,7.5,3.9,7.5,3.9s-1.3-7.7-1.4-8.3c0.5-0.5,6-5.9,6-5.9s-7.7-1.1-8.4-1.2c-0.3-0.6-3.7-7.6-3.7-7.6
			L60.2,27.4z M57.6,35.1l0.4-0.1c0,0,2-4.1,2.8-5.7c0.8,1.6,2.8,5.7,2.8,5.7s4.5,0.7,6.3,0.9c-1.3,1.3-4.6,4.5-4.6,4.5
			s0.8,4.5,1.1,6.3c-1.6-0.9-5.7-3-5.7-3s-4,2.1-5.7,3c0.3-1.8,1.1-6.3,1.1-6.3s-3.3-3.2-4.6-4.5C53.4,35.7,57.6,35.1,57.6,35.1z"/>
	</g>
</g>
</svg>
