<?xml version="1.0" encoding="utf-8"?>
<!-- Generator: Adobe Illustrator 21.1.0, SVG Export Plug-In . SVG Version: 6.00 Build 0)  -->
<svg version="1.1" id="Layer_1" xmlns="http://www.w3.org/2000/svg" xmlns:xlink="http://www.w3.org/1999/xlink" x="0px" y="0px"
	 viewBox="0 0 200 200" style="enable-background:new 0 0 200 200;" xml:space="preserve">
<style type="text/css">
	.st0{fill:#BB0B31;}
	.st1{fill:#FFFFFF;}
	.st2{fill:none;}
</style>
<g>
	<path class="st0" d="M200,100c0,55.2-44.8,100-100,100C44.8,200,0,155.2,0,100C0,44.8,44.8,0,100,0C155.2,0,200,44.8,200,100"/>
	<path class="st1" d="M100,2C45.9,2,2,45.9,2,100c0,54.1,43.9,98,98,98c54.1,0,98-43.9,98-98C198,45.9,154.1,2,100,2z"/>
	<path class="st0" d="M99.9,33.9c36.5,0,66.2,29.7,66.2,66.1c0,36.3-29.7,66.1-66.2,66.1c-36.3,0-66.1-29.8-66.1-66.1
		C33.9,63.5,63.6,33.9,99.9,33.9"/>
	<path class="st1" d="M100,35.6v128.7c34.8-0.7,64.4-29.4,64.4-64.4C164.4,64.9,134.8,36.2,100,35.6"/>
	<path class="st2" d="M100,35.6v128.3c34.9-0.7,64.4-29.3,64.4-64.2C164.4,64.7,134.9,36.1,100,35.6z"/>
	<path class="st0" d="M128.4,77.6l-12-8.7l4.5,14.4l-11.6,9l14.7,0l4.7,13.9l4.4-14l14.7,0l-12.1-8.9l4.7-14.4
		C140.4,68.9,128.4,77.7,128.4,77.6"/>
	<polyline class="st0" points="163.3,165.6 163.5,165.5 163.3,165.2 163.3,165.6 	"/>
	<polyline class="st0" points="49.9,46.2 49.9,45.8 50.1,46 49.9,46.2 	"/>
	<polyline class="st0" points="152.5,174.3 141.8,161.1 145.9,157.9 154.1,168.4 161.2,162.6 163.5,165.5 152.5,174.3 	"/>
	<polyline class="st0" points="86.4,176.4 80,175.5 80.5,172.1 98.5,174.5 98.1,177.9 91.4,177.1 89.8,190.4 84.8,189.8 86.4,176.4 
			"/>
	<polyline class="st0" points="48,152.8 59,161.8 56.9,164.2 50.1,158.7 47.3,161.8 53.8,167.1 51.7,169.7 45.2,164.4 41.2,169.3 
		37,166 48,152.8 	"/>
	<polyline class="st0" points="187.9,79.3 188.7,83.9 182.1,84.9 183.3,92.8 190,92 190.8,97.3 173.8,99.4 173,94.2 180,93.4 
		178.8,85.2 171.7,86.2 171.1,81.5 187.9,79.3 	"/>
	<polyline class="st0" points="91.2,9.3 96,9.1 96.7,26.6 91.9,26.8 91.2,9.3 	"/>
	<path class="st0" d="M77.1,30.2L64.8,15.6l5.3-1.4c2.7,4.2,5.5,8,8.9,11.9l1-14.5l4.7-1.4l-1.9,18.3L77.1,30.2"/>
	<polyline class="st0" points="28.1,45 32,40.8 41.7,49.7 47.3,43.6 50.1,46 40.7,56.3 28.1,45 	"/>
	<path class="st0" d="M25.2,73l2.3-4.7c0.8,0.3,1.6,0.3,2.4,0c0.6-0.5,1.3-1.3,1.9-2.4c0.5-1,0.6-1.8,0.6-2.4
		c0.2-0.8-0.2-1.1-0.6-1.4c-0.2,0-0.5,0-0.6,0c-0.3,0-0.5,0.2-0.8,0.3c-0.3,0.3-1,1.1-1.9,2.3c-1,1.3-1.9,2.3-2.6,3.1
		c-1.1,1.3-2.3,2.1-3.4,2.4c-1,0.5-1.9,0.3-2.9,0c-1.5-0.6-2.3-1.9-2.4-3.5c-0.3-1.8,0.2-3.9,1.5-6.1c1.1-2.4,2.4-4,3.9-4.8
		c1.6-1,3.2-1.1,4.7-0.5l-2.3,4.5c-0.6-0.2-1.5,0-1.9,0.3c-0.6,0.3-1.1,1.1-1.6,2.1c-0.5,0.6-0.6,1.4-0.6,2.1c0,0.5,0.3,1,0.6,1.1
		c0.6,0.3,1.9-0.6,3.7-2.7c0.3-0.3,0.5-0.6,0.6-0.8l0.2-0.2c1.8-2.1,3.1-3.4,3.7-3.9c0.6-0.5,1.5-0.6,2.1-0.8c0.6,0,1.5,0,2.1,0.3
		c1.5,0.6,2.3,1.9,2.4,3.7c0.2,1.9-0.5,4-1.8,6.8c-1.1,2.4-2.6,4.2-4,5C28.8,73.7,27,73.7,25.2,73"/>
	<polyline class="st0" points="26.2,101.8 8.9,99.6 9.7,94.6 16.7,95.5 10.7,87.8 11.6,81.7 17.8,90.4 29.1,83.3 28.1,89.4 
		18.6,95.9 26.8,96.7 26.2,101.8 	"/>
	<path class="st0" d="M23.3,125l-0.5-5c1-0.2,1.6-0.6,1.9-1.3c0.5-0.8,0.6-1.8,0.5-3.1c-0.2-1-0.5-1.8-0.8-2.4
		c-0.3-0.5-0.8-0.8-1.3-0.6c-0.3,0-0.5,0-0.8,0.2c-0.2,0.2-0.3,0.5-0.3,0.6c-0.2,0.5-0.3,1.4-0.5,3.1c-0.2,1.5-0.3,2.7-0.5,3.9
		c-0.3,1.4-0.8,2.7-1.6,3.5c-0.6,1-1.6,1.4-2.6,1.6c-1.6,0.2-3.1-0.5-4.2-1.8c-1.1-1.4-1.9-3.4-2.1-5.9c-0.3-2.4-0.2-4.5,0.6-6
		c1-1.6,2.1-2.6,3.9-2.7l0.6,5c-0.8,0.2-1.3,0.6-1.6,1.1c-0.3,0.6-0.5,1.4-0.3,2.6c0.2,0.8,0.3,1.6,0.6,2.1c0.5,0.5,0.8,0.6,1.3,0.6
		c0.8-0.2,1.3-1.4,1.6-4c0.2-0.5,0.2-1,0.2-1.1c0-0.2,0-0.2,0-0.3c0.5-2.6,0.8-4.3,1.1-5c0.3-0.8,0.8-1.3,1.5-1.8
		c0.5-0.5,1.1-0.6,1.9-0.8c1.6-0.2,3.1,0.5,4.2,1.9c1.1,1.4,1.9,3.5,2.3,6.4c0.3,2.7,0,4.8-0.8,6.3C26.8,123.7,25.4,124.6,23.3,125"
		/>
	<path class="st0" d="M116,22.2l-1.8-7.4l-4.5,6.4L116,22.2 M117.9,11.9l5.7,18.3l-5.5-0.8l-1-3.9l-9.5-1.6l-2.3,3.1l-5.2-0.8
		l12-15.4L117.9,11.9z"/>
	<path class="st0" d="M60.4,31.4L54,27.5l0.6,7.2L60.4,31.4 M55.1,22.2l16,10.5l-4.7,2.9l-3.2-1.9l-8.1,4.8l0.3,3.5l-4.4,2.7
		l-1.3-19.5L55.1,22.2z"/>
	<path class="st0" d="M143.9,30.6c0.8,0.5,1.5,0.6,2.1,0.6c0.5,0,1-0.3,1.3-0.8c0.5-0.6,0.5-1.1,0.3-1.8c-0.3-0.5-0.8-1-1.6-1.6
		l-2.9-1.8l-2.1,3.4L143.9,30.6 M140.7,19.6l7.8,5c1.9,1.3,3.2,2.7,3.9,4.2c0.6,1.4,0.5,2.9-0.5,4.2c-1,1.6-2.3,2.4-3.7,2.6
		c-1.6,0.2-3.4-0.5-5.3-1.8l-3.6-2.3l-3.2,5l-4.2-2.6L140.7,19.6z"/>
	<path class="st0" d="M161.2,45.4c0.6,0.8,1.3,1.3,1.9,1.4c0.6,0.2,1.1,0,1.6-0.5c0.5-0.5,0.6-1,0.5-1.4c0-0.6-0.5-1.3-1.1-2.1
		l-2.7-3.1l-2.9,2.6L161.2,45.4 M160.4,33.6L167,41c2.4,2.7,4.7,5,1.3,8c-0.6,0.6-1.5,1-2.3,1c-1,0.2-1.9-0.2-3.1-0.6
		c0.5,0.8,1,1.9,0.8,2.6c-0.2,0.5-0.5,1.8-1.3,2.6l-1,1c-1,1-1.5,1.8-1.3,2.3l-0.3,0.5L156,54c0.3-0.6,0.8-1.3,1.6-1.9
		c0.6-0.8,1.1-1.3,1.3-1.4c0.5-0.5,0.6-1.1,0.5-1.6c0-0.5-0.3-1.1-1-1.8l-2.4-2.7l-4.7,4.3l-3.6-4L160.4,33.6z"/>
	<path class="st0" d="M172.8,70l5.2-6.1l-8.1,0.2L172.8,70 M182.2,65.5l-11.5,15.1l-2.7-5l2.6-2.9l-4.2-9h-3.7l-2.3-4.3L180,60
		L182.2,65.5z"/>
	<path class="st0" d="M177.9,116.2l7.4-2.1l-6.3-4.5L177.9,116.2 M188.2,117.9l-18.3,5.6l0.6-5.3l3.6-1l1.8-10.1l-3-1.9l0.9-4.9
		l15.2,11.3L188.2,117.9z"/>
	<path class="st0" d="M111.5,180.3c0.9-0.1,1.5-0.4,1.9-0.5c0.5-0.3,0.9-0.8,0.7-1.3c-0.1-0.7-0.3-0.8-0.7-1.1
		c-0.4-0.2-1-0.3-1.9-0.3l-4.2,0.4l0.3,3.2L111.5,180.3 M112,187.2c1.1-0.2,1.9-0.3,2.4-0.6c0.5-0.3,0.8-0.8,0.8-1.4
		c-0.1-0.6-0.2-1.1-0.7-1.4c-0.5-0.3-1.5-0.4-2.3-0.3l-4.3,0.4l0.3,3.7L112,187.2z M102.1,174.5l9.5-0.8c2.4-0.2,4,0,5.2,0.6
		c1.1,0.5,1.8,1.6,1.9,3.1c0,0.8,0,1.6-0.5,2.3c-0.5,0.6-1.1,1.1-2.1,1.6c1.1,0.2,2.1,0.5,2.7,1.1c0.7,0.7,1,1.3,1,2.3
		c0,1.1-0.1,1.9-0.5,2.7c-0.5,0.8-1.1,1.4-1.9,1.9c-0.6,0.3-1.3,0.6-2.3,0.8c-0.8,0.2-2.1,0.3-3.9,0.5l-7.8,0.8L102.1,174.5z"/>
	<path class="st0" d="M62.7,173.5c-0.8,1.6-1,2.9-0.5,4.2c0.3,1.1,1.3,2.1,2.7,2.7c1.5,0.6,2.7,0.8,3.9,0.3c1.1-0.5,1.9-1.4,2.7-3.1
		c0.6-1.6,0.8-2.9,0.3-4.2c-0.3-1.1-1.3-2.1-2.6-2.7c-1.5-0.6-2.7-0.8-3.9-0.3C64.3,171,63.3,171.9,62.7,173.5 M57.8,171.3
		c1.1-2.4,2.7-4,5.2-4.7c2.3-0.8,4.8-0.5,7.6,1c2.9,1.3,4.8,3.1,6,5.3c1,2.3,1,4.7-0.2,7.1c-1.1,2.6-2.9,4.2-5.2,4.8
		c-2.3,0.6-4.8,0.3-7.8-1.1c-2.9-1.3-4.8-3.1-5.8-5.3C56.5,176.1,56.7,173.8,57.8,171.3z"/>
	<path class="st0" d="M136.1,175.7l-5.7-5l0,7.9L136.1,175.7 M131.7,166.2l15.2,11.7l-5,2.5l-3-2.6l-8.7,4.2l-0.1,3.8l-4.7,2.3
		l0.9-19.5L131.7,166.2z"/>
</g>
</svg>
