<?xml version="1.0" encoding="utf-8"?>
<!-- Generator: Adobe Illustrator 21.1.0, SVG Export Plug-In . SVG Version: 6.00 Build 0)  -->
<svg version="1.1" id="Layer_1" xmlns="http://www.w3.org/2000/svg" xmlns:xlink="http://www.w3.org/1999/xlink" x="0px" y="0px"
	 viewBox="0 0 200 200" style="enable-background:new 0 0 200 200;" xml:space="preserve">
<style type="text/css">
	.st0{fill:#7F5F1E;}
	.st1{fill:#F30000;}
	.st2{fill:#FFFFFF;}
</style>
<g>
	<path class="st0" d="M97.5,198.8c-11-5.5-20.9-12.2-29.8-20.1c-9-7.9-17-17.1-23.9-27.2c-7.8-11.5-14.1-24.3-18.3-38.3
		c-3.9-13.1-6-27.2-5.9-42.5c0.1-7.6,0.7-15.3,1.8-23.2c1.2-8.1,3-16.4,5.3-25l0.8-3l3-0.8L98.6,0.4L100,0l1.4,0.4l67.9,18.3l3,0.8
		l0.8,3c2.3,8.6,4.1,16.9,5.3,25c1.2,7.9,1.8,15.6,1.9,23.2c0.1,15.2-2,29.4-5.9,42.5c-4.2,14-10.5,26.8-18.3,38.3
		c-6.9,10.2-14.8,19.3-23.9,27.2c-8.8,7.8-18.7,14.5-29.8,20.1L100,200L97.5,198.8z"/>
	<path class="st1" d="M142.1,17L104.3,6.9c5.1,22.7,7,42.3,7,65.5c-0.1,31.8-4.3,66.7-11.3,110.5c-7-43.8-11.3-78.7-11.3-110.5
		c-0.1-23.3,1.8-42.8,7-65.5L57.9,17c-8.4,21.4-12.5,42.2-12.2,62.5c0.7,39.6,19.3,79.6,54.3,112c35.1-32.4,53.6-72.3,54.3-112
		C154.6,59.2,150.6,38.4,142.1,17z"/>
	<path d="M42,21.3l-9.9,2.6c-4.5,16.6-6.9,32.3-7,46.8c-0.2,30.4,8.7,56.2,23.3,77.7c11.5,17,26.3,31.1,44.2,41.5
		C41.9,144.7,21.9,85,42,21.3z"/>
	<path d="M167.9,23.9l-9.9-2.6c20,63.7,0.1,123.4-50.6,168.7c17.9-10.4,32.7-24.5,44.2-41.5c14.6-21.5,23.5-47.3,23.3-77.7
		C174.8,56.2,172.4,40.5,167.9,23.9z"/>
	<path class="st2" d="M158,21.3L142.1,17c8.4,21.4,12.5,42.2,12.1,62.5c-0.7,39.6-19.3,79.6-54.3,112c-35-32.4-53.6-72.3-54.3-112
		C45.3,59.2,49.4,38.4,57.9,17L42,21.3c-20,63.7-0.1,123.4,50.7,168.7c2.4,1.4,4.8,2.7,7.3,4c2.5-1.3,5-2.6,7.4-4
		C158,144.7,178,85,158,21.3z"/>
	<path class="st2" d="M69.1,135.4c0.1,2.2,0.5,3.5,2.7,4.6c1.1,0.5,2.2,0.6,4.1,0.7c0.9,0.1,3.2,0.2,4.9,0.3
		c0.9,0.1,1.6,0.1,2.1,0.1c1,0,1.9,0.1,2.9,0.1c2.7,0.1,5.4,0.2,8.1,0.3c1.7,13,3.8,26.7,6.1,41.5c2.3-14.7,4.4-28.4,6.1-41.3
		c0.7,0,1.3,0,2,0c3.1,0,6.2,0.1,8.8,0.1h0.1c2.6,0.1,3.9,0.1,5.2-2.6c0.7-1.3,0.6-2.5,0.6-4.9v-0.4c0-1.1-0.2-1.9-0.5-2.6
		c1.1-0.8,2.2-1.9,2.4-4.3c0.2-1.9-0.2-2.7-0.6-3.8c-0.1-0.3-0.3-0.7-0.2-1.8c0.1-1.1-0.2-2.2-0.8-3.2c-0.3-0.5-0.6-0.9-0.9-1.3
		c0.5-1,0.6-2,0.6-3.1c-0.1-1.7-0.7-3.1-1.8-4.5c-0.9-1.1-1.4-1.9-1.8-2.6c-0.2-0.5-0.3-0.9-0.3-1.3c0-0.2,0-0.4,0.1-0.5
		c0-0.1,0.1-0.1,0.1-0.2c0.2-0.2,0.3-0.4,0.5-0.6c1.3-1.6,3-3.7,3.5-6.1c1.3-0.5,2.9-1.1,4.4-1.8c3.5-1.8,6.2-4.3,5.6-7.9
		c0.9-0.3,2-0.5,3.2-0.7c2.3-0.5,4.6-0.8,6-0.8c4.8-0.2,6.1-1.9,6-4.5c-0.1-1.5-0.6-2.3-1.2-2.8c0.8-0.3,1.5-0.5,2.3-0.6
		c1.5-0.4,2.6-0.9,3.3-1.6c1.2-1.2,1.6-2.6,1.2-4.1c-0.3-1.3-1.1-2.2-2.4-2.8c-0.9-0.4-2.2-0.6-3.7-0.5c-2,0.2-5,0.6-8.1,1.1
		c-3,0.5-6,1.1-7.9,1.5c-2.2,0.6-5.3,1.7-8.7,3.3c-2.5,1.2-5.2,2.6-7.8,4.2c-0.7,0-1.5,0.1-2.6,0.5c-0.7,0.3-1.2,0.6-1.6,0.9
		c0.1-3,0.1-6,0.1-9c0.1-23.3-1.8-42.8-7-65.5L100,5.6l-4.4,1.2c-5.1,22.7-7,42.3-7,65.5c0,7.1,0.3,14.2,0.7,21.6
		c-0.7,0.4-1.4,0.8-2.1,1.2c-1.4,0.8-2.9,1.6-3.5,1.9c-0.1,0.1-0.2,0.1-0.2,0.1c-0.4,0.2-0.3,0.2-0.3,0.2c-2,1-5.1,2.5-5.1,7.2
		c0,0.5,0.1,1,0.1,1.4c-0.3,0.1-0.5,0.2-0.8,0.3c-1.2,0.5-2.7,1.4-3.9,2.7c-0.7,0.9-1.3,1.8-1.6,2.9c-1.1,1-1.9,2.3-2.1,3.9
		c-0.2,1.1-0.1,2.2,0.5,3.3c-0.1,0.4-0.2,0.7-0.2,1.2c-0.1,1.6,0.2,2.3,0.4,3c0,0.4,0,1.1-0.1,2c0,0.6-0.1,1.2-0.2,1.5
		c0,0,0,0.1-0.1,0.2c-0.2,0.5-0.3,0.9-0.4,1.7c0,0.3-0.1,0.5-0.1,0.7c-1,1.9-0.8,4.3-0.7,5.7C69.1,135.3,69.1,135.2,69.1,135.4z"/>
	<path class="st0" d="M135.3,33.7c0.7-0.7,1.6-1.2,2.7-1.1c1.3,0.1,2.5,0.2,3.8,0.4c1.3,0.1,2.5,0.2,3.8,0.3c0.3,0,0.5,0.1,0.8,0.2
		c0.5-0.2,1.1-0.1,1.7-0.1c0.5,0.1,1,0.1,1.4,0.2c0.6,0.1,1.1,0.1,1.7,0.2c0.6,0.1,1,0.2,1.4,0.4c0.5-0.2,1.1-0.2,1.7-0.1
		c0.5,0.1,1,0.1,1.5,0.2c0.5,0.1,1,0.1,1.5,0.2c2,0.2,3,1.2,3,3.3c0,2.8,0,5.5,0,8.3c0,3,0,6,0,9c0,2.1-1,3.9-2.8,4.9
		c-0.8,0.5-1.7,0.8-2.6,0.9c-1,0.2-1.9,0.2-2.8,0.1c-0.9-0.1-1.7-0.3-2.6-0.6c-0.7-0.3-1.3-0.6-1.9-0.9c-0.6,0.4-1.3,0.7-2.1,0.6
		c-1.3-0.1-2.6-0.2-3.9-0.3c-1.3-0.1-2.6-0.2-4-0.3c-1.1-0.1-2-0.7-2.6-1.5c-0.5,0.3-1,0.5-1.6,0.7c-0.9,0.2-1.7,0.3-2.6,0.3
		c-1,0-2-0.1-3-0.1c-0.7,0-1.4-0.1-2.1-0.1c-0.4-0.1-0.7-0.1-1.1-0.2c-0.4,0.2-0.9,0.2-1.3,0.2c-0.6,0-1.2-0.1-1.7-0.1
		c-0.7,0-1.4,0-2-0.1s-1.2-0.2-1.6-0.4c-0.5,0.3-1,0.3-1.6,0.3c-0.6,0-1.2-0.1-1.8-0.1c-0.6,0-1.2-0.1-1.7-0.1
		c-0.5,0-0.9-0.1-1.2-0.2c-0.3,0.1-0.6,0.2-1,0.2h-8.2c-1.1,0-2-0.4-2.5-1.2c-0.5,0.4-1.1,0.6-1.7,0.8c-0.9,0.3-1.8,0.4-2.7,0.4
		h-5.6c-0.5,0-0.9-0.1-1.3-0.3c-0.3,0.1-0.6,0.1-0.9,0.2c-0.6,0-1.3,0-1.9,0c-0.7,0.1-1.3,0.1-1.9,0.1c-1,0.1-1.7-0.3-2.3-0.8
		c-0.6,0.6-1.4,0.9-2.2,0.9c-0.5,0.1-1,0.1-1.4,0.1c-0.5,0-1,0.1-1.5,0.1c-0.2,0-0.4,0-0.6-0.1c-0.4,0.2-0.8,0.3-1.3,0.3
		c-1.4,0-2.7,0.1-4.1,0.1s-2.7,0.1-4.1,0.1c-0.1,0-0.2,0-0.3,0c-0.5,0.3-1,0.4-1.6,0.5c-0.8,0.1-1.5,0.1-2.2,0.1
		c-0.8,0.1-1.5,0.1-2.2,0.1c-0.5,0.1-1,0-1.3-0.2c-0.4,0.2-0.8,0.3-1.3,0.3c-0.7,0.1-1.3,0.1-1.9,0.1c-0.6,0.1-1.2,0.1-1.8,0.1
		c-0.8,0.1-1.5-0.1-2.1-0.6c-1.5,1.1-3.4,1.5-5.2,1.6c-1.8,0.1-3.9-0.1-5.4-1.2c-1.6-1.2-2.3-2.9-2.3-4.9c0-1.3,0-2.5,0-3.8
		c0-1.1,0.1-2,0.9-2.8c0.3-0.3,0.6-0.5,0.8-0.6c-0.2-0.2-0.4-0.5-0.5-0.7c-0.8-1.1-1.2-2.3-1.2-3.7c0-0.9,0-1.7,0-2.5
		c0-4.6,3.5-6.8,7.7-7.1c1.6-0.1,3.3,0.1,4.7,0.9c0.1-0.1,0.2-0.2,0.3-0.4c0.6-0.6,1.4-0.9,2.2-0.9c0.6-0.1,1.1-0.1,1.7-0.1
		c0.7-0.1,1.3-0.1,2-0.1c0.5-0.1,1,0,1.4,0.2c0.4-0.3,0.9-0.4,1.5-0.4c0.6-0.1,1.1-0.1,1.6-0.1c0.5-0.1,1-0.1,1.5-0.1
		c0.2,0,0.3,0,0.5,0v-4.4L77,27.7v4c0.5-0.1,1-0.1,1.5-0.1c0.7-0.1,1.3-0.1,2-0.1c1-0.1,1.7,0.1,2.3,0.5c0.6-0.5,1.2-0.6,1.9-0.7
		c0.5,0,0.9-0.1,1.4-0.1c0.5,0,1-0.1,1.5-0.1c0.5,0,1,0,1.4,0.2c0.3-0.1,0.6-0.2,0.9-0.2h5.6c0.9,0,1.8,0.1,2.6,0.4
		c0.7,0.2,1.3,0.5,1.9,0.9c0.6-0.7,1.4-1.1,2.5-1.1h8.1c0.6,0,1,0.1,1.5,0.3c0.3-0.1,0.5-0.1,0.8-0.1c0.8,0,1.5,0.1,2.3,0.1
		c1,0,2,0.1,3,0.1c0.9,0,1.7,0.1,2.5,0.4c0.8,0.2,1.6,0.6,2.3,1c0,0.1,0.1,0.1,0.1,0.1c0.1-0.1,0.2-0.2,0.3-0.3
		c0.9-0.8,1.7-0.8,2.7-0.8c0.5,0.1,1.1,0.1,1.6,0.1c0.8,0,1.5,0,2.3,0.1C131.9,32.2,133.8,32.7,135.3,33.7z M144.1,40.9
		c0,0.3,0,0.5,0,0.7C144.7,41.7,144.6,40.9,144.1,40.9z"/>
	<path class="st2" d="M157,36.8c-0.5-0.1-1-0.1-1.5-0.2c-0.5-0.1-1-0.1-1.5-0.2c-0.9-0.1-0.9-0.1-0.9,0.8c0,2.8,0,5.5,0,8.3
		c0,3,0,6.1,0,9.1c0,0.4-0.3,0.6-0.8,0.6c-0.6-0.1-0.8-0.3-0.8-0.8c0-3,0-6,0-9.1c0-2.8,0-5.6,0-8.4c0-0.7,0.1-0.7-0.7-0.8
		c-0.6-0.1-1.1-0.1-1.7-0.2c-0.5-0.1-1-0.1-1.4-0.2c-1-0.1-0.9-0.2-0.9,0.9c0,2.7,0,5.4,0,8.1c0,3,0,5.9,0,8.9
		c0,1.4,0.6,2.4,1.6,3.1c0.5,0.4,1.1,0.7,1.7,0.9c0.7,0.3,1.3,0.4,2.1,0.5c0.8,0.1,1.5,0.1,2.1,0c0.7-0.1,1.3-0.3,1.7-0.6
		c1-0.6,1.6-1.5,1.6-2.7c0-3,0-6,0-9c0-2.8,0-5.5,0-8.3C157.8,36.8,157.8,36.8,157,36.8z M49.6,46.9c-0.6-0.6-1.4-1.4-2.3-2.3
		c-1.1-1-1.6-1.9-1.6-2.7c0-0.5-0.1-1-0.1-1.4c0-0.9,0.3-1.3,0.8-1.3c0.5-0.1,0.7,0.2,0.7,0.6c0,1,0,1.6,0,2.6c0,1.2,0,1.2,1,1.2
		c0.8,0,1.5,0,2.2-0.1c0.9-0.1,1,0,1-0.8c0-1,0-1.9,0-2.9c0.1-1.3-0.4-2.2-1.2-2.8c-0.8-0.6-2-0.9-3.6-0.8c-2.8,0.2-5.4,1.3-5.4,4.6
		c0,0.8,0,1.6,0,2.5c0,0.8,0.3,1.5,0.7,2.2c0.3,0.3,0.7,0.8,1.3,1.4c0.7,0.6,1.4,1.4,2.4,2.3c1,1,1.5,1.9,1.5,2.7
		c0,0.9,0,1.7-0.1,2.5c0,0.5-0.3,0.8-0.8,0.8c-0.6,0-0.9-0.2-0.9-0.7c0-1.4,0-2.8,0-4.3c0-0.5,0-0.5-0.8-0.5
		c-0.8,0.1-1.6,0.1-2.4,0.1c-1,0-1.1,0-1.1,1.1c0,1.3,0,2.5,0,3.8c0,1.3,0.5,2.2,1.3,2.8s2.1,0.9,3.9,0.8c1.8-0.1,3.1-0.5,4-1.3
		c0.9-0.8,1.3-1.9,1.3-3.3c0-0.9,0-1.8,0-2.8c0.1-0.9-0.3-1.8-0.8-2.5C50.6,48.1,50.2,47.6,49.6,46.9z M63.9,53.7
		c-0.3-1-0.6-1.9-0.9-2.9c-0.3-1-0.6-1.9-0.9-2.9c-0.3-1-0.6-1.9-0.9-2.8c0.5-1.7,0.9-3.4,1.4-5c0.4-1.5,0.8-2.7,1.2-4.2
		c0.2-0.6,0.2-0.7-0.4-0.7c-0.6,0.1-1,0.1-1.5,0.1s-1.1,0.1-1.6,0.1c-0.6,0-0.5,0-0.7,0.6c-0.3,1-0.6,2-0.8,3
		c-0.4,1.2-0.7,2.4-1,3.6c0-1.2,0-2.3,0-3.6c0-1,0-2.1-0.1-3.1c0-0.4,0.1-0.4-0.4-0.4c-0.7,0.1-1.3,0.1-1.9,0.1
		c-0.6,0.1-1.1,0.1-1.7,0.1C53,35.8,53,36,53,36.8c0,1.7,0,3.3,0,4.8c0,1.6,0,3.1,0,4.8c0,1.8,0.1,3.6,0.1,5.4c0,1.5,0,3.1,0,4.6
		c0,0.7-0.1,0.8,0.6,0.8c0.6-0.1,1.2-0.1,1.8-0.1c0.7-0.1,1.3-0.1,2-0.1c0.5,0,0.4,0,0.4-0.5c-0.1-1.2-0.1-2.4-0.1-3.6
		c0-1.3,0-2.6,0-4c0.3,1.3,0.6,2.6,0.9,4c0.3,1.2,0.6,2.4,0.8,3.6c0.1,0.4,0.1,0.4,0.5,0.4c0.8,0,1.5-0.1,2.2-0.1
		c0.8-0.1,1.5-0.1,2.2-0.1c0.5-0.1,0.4-0.1,0.3-0.5C64.3,55.4,64.1,54.6,63.9,53.7z M74.6,53.3c-0.6,0-1.2,0-1.8,0.1
		c-0.6,0-1.2,0-1.8,0c-0.5,0.1-0.6-0.3-0.6-0.7c0-1,0-2.1,0-3.1c0-1.1,0-2.1,0-3.1c0-0.5,0.1-0.6,0.5-0.7c0.5,0,1.1,0,1.6,0
		c0.6-0.1,1.1-0.1,1.6-0.1c0.3-0.1,0.5-0.2,0.5-0.5c0-0.6,0-1.1,0-1.7c0-0.3-0.1-0.5-0.5-0.5c-0.6,0.1-1.1,0.1-1.6,0.1
		c-0.6,0.1-1.1,0.1-1.6,0.1c-0.3,0-0.4-0.2-0.4-0.6c0-1.5,0-3,0-4.5c0-0.5,0.2-0.7,0.6-0.7c0.6-0.1,1.2-0.1,1.8-0.1
		c0.6,0,1.2-0.1,1.8-0.1c0.3,0,0.5-0.3,0.5-0.5c0-0.7,0-1.3,0-1.9c0-0.3-0.1-0.5-0.5-0.4c-1.4,0.1-2.7,0.1-4.1,0.2
		c-1.3,0.1-2.6,0.1-4,0.2c-0.6,0.1-0.8,0.4-0.8,1c0,3.3,0,6.5-0.1,9.8c0,3.3-0.1,6.6-0.1,9.9c0,0.5,0.2,0.8,0.8,0.8
		c1.4,0,2.7-0.1,4.1-0.1c1.4-0.1,2.7-0.1,4.1-0.1c0.5,0,0.6-0.2,0.6-0.6c0-0.6,0-1.1,0-1.7C75.1,53.4,74.9,53.3,74.6,53.3z
		 M71.3,30.5l3.2-0.1v3l-3.2,0.2V30.5z M66.2,30.7l3.1-0.2v3l-3.1,0.1V30.7z M88.2,34.4c0-0.7,0.1-0.6-0.6-0.6
		c-0.5,0.1-1,0.1-1.5,0.1c-0.5,0.1-0.9,0.1-1.4,0.1c-0.6,0.1-0.7,0.2-0.7,1.1c0,1.3,0,2.6,0,3.9c0,1.7,0,3.3,0,5
		c-0.5-1.7-0.9-3.3-1.4-4.9c-0.4-1.4-0.8-2.8-1.2-4.3c-0.2-0.6-0.2-0.6-1-0.6c-0.7,0.1-1.3,0.1-2,0.1c-0.6,0-1.2,0.1-1.8,0.1
		c-1,0.1-0.9-0.1-0.9,0.9c0,3.4,0,6.7,0,10c0,3.3,0,6.6,0,10c0,0.7,0.1,0.9,0.5,0.9c0.5-0.1,1-0.1,1.5-0.1c0.5,0,0.9-0.1,1.4-0.1
		c0.7,0,0.7-0.3,0.7-1.2c0-1.5,0-3,0-4.6c0-1.9,0-3.8,0-5.7c0.5,1.9,1.1,3.8,1.6,5.7c0.5,1.7,1,3.4,1.5,5.1c0.2,0.6,0.4,0.6,0.8,0.6
		c0.7,0,1.3,0,1.9-0.1c0.6,0,1.3,0,1.9-0.1c0.7,0,0.6-0.3,0.6-1.2c0-3.3,0-6.5,0-9.7C88.2,41.3,88.2,37.8,88.2,34.4z M99,34.9
		c-0.5-0.4-1.1-0.6-1.6-0.8c-0.6-0.2-1.2-0.3-1.9-0.3h-5.6c-0.3,0-0.4,0.2-0.4,0.4v21.1c0,0.2,0.2,0.4,0.4,0.4h5.6
		c0.7,0,1.4-0.1,1.9-0.3c0.6-0.2,1.2-0.5,1.6-0.9l0,0c0.5-0.4,0.9-0.9,1.2-1.5c0.2-0.6,0.4-1.2,0.4-1.9V38.4c0-0.8-0.2-1.4-0.4-2
		C99.9,35.8,99.5,35.3,99,34.9z M95.6,51.8L95.6,51.8c0,0.7-0.4,0.8-1.2,0.8V36.7c0.8,0,1.2,0.3,1.2,1V51.8z M110.7,52.9h-3.6
		c-0.5,0-0.6-0.3-0.6-0.7v-6.3c0-0.5,0.1-0.6,0.5-0.7h3.1c0.4,0.1,0.5-0.1,0.5-0.4v-1.7c0-0.3-0.1-0.5-0.6-0.5h-3.2
		c-0.3,0-0.4-0.2-0.4-0.7v-4.6c0-0.5,0.2-0.7,0.5-0.7h3.6c0.3,0,0.5-0.2,0.5-0.5v-1.9c0-0.4-0.1-0.5-0.5-0.5h-8.1
		c-0.6,0-0.9,0.4-0.8,0.9v20c-0.1,0.6,0.2,0.9,0.8,0.9h8.2c0.5,0,0.6-0.2,0.6-0.6v-1.7C111.2,53,111.1,52.9,110.7,52.9z M123.4,54.3
		c-0.2-1-0.3-2.3-0.3-4.1c0.1-0.8,0.1-1.6,0.1-2.4c0-1-0.3-1.8-0.8-2.4c-0.4-0.4-0.9-0.7-1.5-1c-0.6-0.3-0.5-0.4,0-0.5
		c0.7-0.3,1.2-0.6,1.5-1c0.5-0.6,0.8-1.3,0.8-2.1c0-0.9,0-1.8,0-2.6c0-1.3-0.5-2.3-1.5-2.9c-0.5-0.3-1.1-0.6-1.7-0.7
		c-0.6-0.2-1.2-0.3-1.9-0.3c-1,0-2,0-2.9-0.1c-0.8,0-1.5-0.1-2.2,0c-0.6,0-0.8-0.1-0.8,0.8c0,3.3,0,6.7,0,10c0,3.3,0.1,6.6,0.1,9.9
		c0,0.8-0.1,0.9,0.6,0.9c0.6,0,1.2,0,1.8,0.1c0.6,0,1.2,0.1,1.8,0.1c0.8,0,0.6,0,0.6-0.7c0-1.5,0-2.9,0-4.5c0-1.7,0-3.5,0-5.2
		c1,0.1,1.5,0.4,1.5,1.2c0,0.1-0.1,1-0.1,2.7c0,0.5-0.1,0.9-0.1,1.3l0,0c0,2.2,0.2,3.8,0.5,4.6c0.2,0.6,0.3,0.6,0.8,0.7
		c0.6,0.1,1.3,0.1,2,0.1c0.6,0,1.2,0,1.8,0.1c0.6,0,0.5-0.1,0.3-0.5C123.6,55.3,123.5,54.9,123.4,54.3z M117,42.9L117,42.9
		c0-1,0-2,0-2.9s0-1.9,0-2.9c1,0,1.5,0.4,1.5,1.2c0,1.2,0,2.3,0,3.6C118.6,42.5,118.1,42.9,117,42.9z M133.7,45.2
		c-0.5-0.3-0.7-0.5-0.1-0.8c0.5-0.2,0.9-0.5,1.2-0.9c0.5-0.6,0.7-1.2,0.7-1.9c0-1,0-2,0-3c0-2.6-3.1-3.9-5.5-3.9
		c-0.9-0.1-1.3-0.1-2.3-0.1c-0.6,0-1.1,0-1.6,0c-1.1-0.1-1.1-0.1-1.1,1c0,3.3,0,6.4,0,9.7c0,3.1,0,6.2,0,9.3c0,1.2,0.1,1.4,0.9,1.5
		c0.7,0,1.4,0.1,2,0.1c1,0.1,2,0.1,3,0.1c0.7,0.1,1.2-0.1,1.8-0.2c0.6-0.2,1.1-0.4,1.6-0.7c0.9-0.7,1.4-1.8,1.4-3.2
		c0-1.4,0-2.8,0-4.2C135.7,46.4,134.9,45.8,133.7,45.2z M129.6,40.4L129.6,40.4c0-1,0-2,0-2.9c0.9,0,1.4,0.4,1.4,1.1
		c0,1.3,0,2.5,0,3.7c0,0.8-0.5,1.6-1.4,0.8C129.6,42.1,129.6,41.4,129.6,40.4z M131.1,52.4L131.1,52.4c0,0.8-0.4,1.2-1.4,1
		c0-1.3,0-2.5,0-3.8c0-1.3,0-2.5,0-3.9c0.9,0.1,1.4,0.4,1.4,1.2c0,0.9,0,1.8,0,2.7S131.1,51.5,131.1,52.4z M145.6,54.5
		c-0.6-0.1-1.1-0.1-1.7-0.1c-0.6-0.1-1.1-0.1-1.7-0.1c-0.5-0.1-0.6-0.4-0.6-0.8c0-1.1,0-2.1,0-3.1c0-1.1,0-2.1,0-3.1
		c0-0.5,0.1-0.6,0.5-0.6c0.5,0.1,1,0.1,1.5,0.1c0.5,0.1,1,0.1,1.5,0.2c0.3,0,0.4-0.1,0.4-0.4c0-0.6,0-1.1,0-1.7
		c0-0.3-0.1-0.5-0.5-0.6s-1-0.1-1.5-0.1c-0.5-0.1-1-0.1-1.5-0.1c-0.3-0.1-0.4-0.3-0.4-0.7c0-1.5,0-3,0-4.5c0-0.5,0.1-0.7,0.5-0.6
		c0.6,0.1,1.1,0.1,1.7,0.2c0.6,0.1,1.1,0.1,1.7,0.2c0.3,0,0.5-0.2,0.5-0.5c0-0.6,0-1.2,0-1.8c0-0.4-0.1-0.5-0.5-0.5
		c-1.2-0.1-2.5-0.2-3.8-0.3c-1.3-0.2-2.5-0.3-3.8-0.4c-0.6-0.1-0.8,0.3-0.8,0.9c-0.1,3.3-0.1,6.6-0.1,9.9c0,3.4,0,6.7,0,10.1
		c0,0.5,0.3,0.9,0.8,0.9c1.3,0.1,2.6,0.2,4,0.3c1.3,0.1,2.6,0.2,3.9,0.3c0.4,0,0.5-0.2,0.5-0.6c0-0.6,0-1.1-0.1-1.7
		C146.1,54.7,146,54.6,145.6,54.5z"/>
	<path class="st0" d="M73.1,135.3c0-0.9-0.4-3.8,0.5-4.6c0.3-0.3,0.1-0.7,0.2-1.7c0.1-0.7,0.3-0.9,0.5-1.6c0.2-1.4,0.3-3.4,0.3-4.3
		c0-1.4-0.5-1.2-0.4-2.7c0-0.6,0.8-1.8,0.3-2.4c-1-1.2-0.6-2.5,0.2-3.1c0.7-0.6,1.1-0.8,1.1-1.2c0-1.8,1.9-3.1,3.3-3.7
		c1-0.4,1.1,0.4,3-1.7c1.5-1.7,0.2-1.3,0.2-3.7c0-2.5,2.2-3.3,3.3-3.9c3.8-2.1,7.4-4.2,11.4-6.2c2-1,2.3-3.4,4.8-5
		c1.4-1,1.8-1.1,4.2-1.2c2.7-0.2,4.3-1.1,6.8-2.5c0.9-0.5,0.8-1.3,1.7-1.7c1-0.4,1.8,0.2,2.5-0.3c5.6-3.6,12.4-6.5,16.1-7.4
		c3.6-0.9,11.5-2.2,15.3-2.5c2.2-0.2,2.8,0.6,0.5,1.1c-4.5,1.1-8.6,2.6-12.9,4.6c-3.8,1.7-3.6,1.9-1.6,1.7c0.9-0.1,2.1-0.3,3.5-0.3
		c1.7,0,4.7-0.1,6.1,0.9c0.7,0.5,1.8,0.9-1.4,1c-3.4,0.1-10.2,1.4-12.8,2.5c-3.3,1.3-1.5,1-0.7,2.6c1.9,3.7-6.2,6.1-8.5,6.9
		c-0.6,0.2-1.1,0.6-1.1,2c0.1,1.8-2.1,4.2-3.2,5.5c-0.7,0.9-0.9,1.9-1,3.1c0,2,0.8,3.7,2.9,6.4c1.2,1.5,1.4,2.7,0.1,4.5
		c-0.5,0.8-0.5,1.6,0.7,2.7c0.8,0.8,1.2,1.5,1.2,2.2c-0.2,3.6,1,3.3,0.8,5.3c-0.2,1.9-2.2,1.6-2.4,2.8c-0.4,2.7-1.7,1.6-2,2.2
		c-0.6,1.1,2.4-0.1,2.5,2.3c0.1,3.9,0.2,3.8-1.9,3.8c-5.5-0.1-14.2-0.1-19.2-0.2c-4.8-0.1-9.8-0.3-14.7-0.5c-0.7,0-5.2-0.3-6.9-0.3
		C73.4,136.6,73.1,136.4,73.1,135.3z"/>
	<polygon class="st2" points="112.6,120 110.2,129.3 111.2,129.5 113.6,120.3 	"/>
	<path class="st2" d="M76.5,119.8c0.9,0,0.5-0.6,1-1.6s0.7-2.1,1-3c0.1-0.2,0.1-0.4,0.2-0.7c0-0.2-0.3-0.4-0.5-0.4
		c-0.5,0-0.9,0.4-0.4,0.5c0.3,0.1,0.2,0.2-0.2,1.3c-0.7,2.3-1.3,3-1.6,3c-0.2,0-0.2,0.4-0.3,0.6C75.7,119.7,76,119.8,76.5,119.8z"/>
	<path class="st2" d="M134.2,77.9c-2.4,0.7-7.4,2.5-8.2,2.9c-3.6,1.7-6,2.7-8.5,4.3c-0.7,0.5-1.8,0.3-2.5,0.7
		c-0.6,0.3-0.8,1.3-1.9,1.7c-0.4,0.2-4,1-6.7,3.3c-0.6,0.5-1.1,1.3-1.3,2.2c-0.2,0.7-0.3,1.7-1.6,0.9c-1-0.6-5.1,0.9-1.9,1
		c2.8,0.2,2.7-0.3,3.5-0.3c1.3,0.1,0.7,1.2,1,1.7c0.3,0.5,0.7,0.8,1,1c0.6,0.4,0.7,0.8-1.1,0.6c-1-0.1-1.9-0.2-2.9-0.2
		c-2.7-0.1-3.2-1.6-4.9-1.5c-1.6,0.1-1,1.1-4.4,2.3c-3.5,1.3-5.5,2.7-8.3,4.5c-1.1,0.7-1,0.9-1,1.9c0,0.5,0.5,0.7,1,0.7
		c1.2,0,1.7-0.7,0.4-0.9c-1-0.2-1.6-1.7,1.1-1.7c1.4,0,1.4,0.3,3-0.2c2.5-0.7,6.8-2.1,9.7-2.1c5.5,0,2.9,0.9-0.7,1.5
		c-1.7,0.3-4.4,0.9-6.6,1.6c-2.3,0.7-0.1,1,2.6,1.1c4.7,0.1,11.3,2.1,15.2,4.9c0.8,0.6,2.9,2.2,3.9,3.1c1.1,1.1,3,1.1,1.7-0.9
		c-1.6-2.5-4.2-6.8-1.8-11.1c0.5-0.8,1.2-1.9,2-3c0.7-0.9,0.6-1.5-0.5-1.6c-0.8-0.1-1.8,0.1-2.5,0.5s-1.1,0.4-1.2,0.2
		c-0.2-0.4,0.3-0.8,1.6-1.3c2-0.7,4.2-1.7,6.9-2.8c1.9-0.8,5.1-2.3,6-3.3c1-1.2-0.3-2.7-4.8-1c-2.9,1.1-7,4.1-9.4,5.4
		c-0.6,0.4-1.1,0.6-1.2,0.4c-0.2-0.3,0-0.5,1-1.2c2.9-2.2,8-6.4,10.9-8.3c3.1-2.1,8.6-5.2,12.4-6.9
		C136.3,77.4,135.5,77.5,134.2,77.9z"/>
	<polygon class="st2" points="116.1,121.1 115.1,120.8 112.7,130.1 113.7,130.4 	"/>
	<path class="st2" d="M118,122.7c-0.3-0.2-0.6-0.2-0.7,0.1c-0.2,0.3-0.2,0.5-0.3,0.7c-0.3,1-0.7,2.1-0.9,3.3
		c-0.2,1.1-0.9,1.4-0.1,1.9c0.4,0.3,0.7,0.4,0.9,0.1c0.2-0.2,0.3-0.5,0.1-0.6c-0.3-0.2-0.4-1.1,0.4-3.6c0.3-1.2,0.3-1.3,0.5-1.2
		C118.5,123.5,118.4,122.9,118,122.7z"/>
	<path class="st2" d="M115.8,134.1c-2.8,0.3-12.5,0.5-16,0.6c-4.5,0.1-8.7,0.1-13-0.4c-2-0.2-7.6-1.1-10.4-1.9
		c-2.2-0.6-1.9,0.2-1.8,0.9c0.2,1.8-0.1,1.7,1.6,1.8c7.6,0.5,14.8,0.8,22.5,0.8l17.8-0.1c0.3,0,0.4,0,0.5-1.1
		C116.9,133.9,116.8,134,115.8,134.1z"/>
	<path class="st2" d="M81.3,114.9c-0.8,0.6-1.3,1.9-1,2.9c-2,1.3-1.2,4.5,1.5,4.5c1.1,2.7,4.1,2.2,4.8,0c2.3,0,3.8-2.7,1.5-4.6
		c0.9-2.5-1.9-4.4-3.8-2.8C83.6,114.1,82.2,114.2,81.3,114.9z M82.8,116.7c-0.4,0.3-0.7,1-0.5,1.5c-1,0.6-0.6,2.3,0.8,2.2
		c0.6,1.4,2.1,1.1,2.4,0c1.2,0,1.9-1.4,0.8-2.3c0.5-1.3-1-2.2-1.9-1.5C83.9,116.4,83.2,116.5,82.8,116.7z M83,117.1
		c-0.3,0.2-0.5,0.7-0.4,1l0.1,0.3l-0.3,0.2c-0.7,0.5-0.4,1.6,0.6,1.6l0.3-0.1l0.1,0.3c0.4,1,1.4,0.9,1.7,0.1l0.1-0.3h0.3
		c1,0,1.3-1,0.5-1.6l-0.2-0.2l0.1-0.3c0.3-0.9-0.7-1.6-1.3-1l-0.3,0.2l-0.3-0.2C83.8,116.8,83.3,116.8,83,117.1z M84.1,115.3
		c-0.7-0.5-1.8-0.4-2.4,0.1s-1,1.5-0.8,2.3L81,118l-0.4,0.3c-1.6,1-0.8,3.4,1.2,3.4h0.4l0.2,0.4c0.3,0.8,0.9,1.5,1.9,1.5
		c0.9-0.1,1.6-0.7,1.8-1.4l0.2-0.4h0.4c0.8,0,1.6-0.5,1.9-1.3c0.4-0.9-0.2-1.7-0.8-2.3l-0.4-0.3l0.2-0.4c0.7-1.9-1.4-3.4-2.8-2.2
		l-0.4,0.3L84.1,115.3z"/>
	<polygon class="st2" points="90.3,125.3 91.3,125.6 93.8,116.3 92.8,116 	"/>
	<polygon class="st2" points="98.8,117.9 97.7,117.6 95.3,126.9 96.3,127.2 	"/>
	<polygon class="st2" points="92.8,126.1 93.8,126.3 96.3,117.1 95.3,116.8 	"/>
	<path class="st2" d="M76,126.5c0.1,2.3,1.7,3.4,3.4,4.1c4.4,1.8,10.9,1.7,14,1.9c4.6,0.3,12.4-0.1,15.6-0.1c0.8,0,4.2-0.2,3.2-0.5
		c-1.2-0.4-6.3-0.7-9.5-1.2c-6.6-1.1-18.9-3.4-25-5.8C75.9,124.3,76,124.3,76,126.5z"/>
	<path class="st2" d="M83.8,111.8c9.3,1.8,19.2,4.5,28.6,6.2c4.9,0.9,5.4,0.7,1.8-2.2c-5.8-4.6-16.2-8.8-23.7-8.8
		c-2.8,0-5.7,0.2-7.7,2.3C81.5,110.6,80.7,111.2,83.8,111.8z"/>
	<path class="st2" d="M101.6,119.5c-0.8,0.6-1.4,1.9-1,2.9c-2,1.3-1.2,4.5,1.5,4.5c1.1,2.8,4.1,2.2,4.8,0c2.3,0,3.8-2.7,1.5-4.6
		c0.9-2.5-1.9-4.4-3.8-2.8C103.8,118.8,102.4,118.9,101.6,119.5z M103,121.4c-0.4,0.3-0.7,1-0.5,1.5c-1,0.6-0.6,2.3,0.8,2.2
		c0.5,1.4,2,1.1,2.4,0c1.1,0,1.9-1.3,0.7-2.3c0.5-1.3-1-2.2-1.9-1.5C104.1,121.1,103.4,121.1,103,121.4z M103.2,121.7
		c-0.3,0.2-0.5,0.7-0.4,1l0.1,0.3l-0.3,0.2c-0.7,0.5-0.4,1.6,0.6,1.6h0.3l0.1,0.3c0.4,0.9,1.4,0.9,1.7,0l0.1-0.3h0.3
		c1,0,1.3-1,0.6-1.6l-0.3-0.2l0.1-0.3c0.3-0.9-0.6-1.6-1.3-1l-0.3,0.2l-0.3-0.2C104,121.5,103.5,121.5,103.2,121.7z M104.3,119.9
		c-0.7-0.5-1.8-0.4-2.4,0.1c-0.6,0.5-1,1.5-0.8,2.3l0.1,0.4l-0.4,0.3c-1.6,1-0.8,3.5,1.2,3.4h0.4l0.2,0.4c0.3,0.8,1,1.5,1.9,1.5
		c0.8-0.1,1.5-0.7,1.8-1.4l0.2-0.4h0.4c0.8,0,1.6-0.5,1.9-1.3c0.4-0.9-0.1-1.7-0.8-2.3l-0.3-0.3l0.1-0.4c0.7-1.9-1.4-3.4-2.8-2.2
		l-0.4,0.3L104.3,119.9z"/>
	<path class="st0" d="M98.3,166.1c-0.9,0.5-1.8,0.6-2.8,0.6c-0.9,0-1.8-0.1-2.6-0.6c-0.4,0.4-0.8,0.6-1.4,0.6c-0.3,0-0.5,0-0.8,0
		c-0.2,0-0.5,0-0.7,0c-1.3,0-2-1-2-2.2c0-1.2,0-2.4,0-3.7c0-1,0-2,0-3c-0.6-0.3-1-0.8-1-1.7c0-0.3,0-0.7,0-1c0-1,0.4-1.6,1.3-1.8
		l0.1-0.1c0.2-1.1,0.9-1.4,1.9-1.4c0.2,0,0.3,0,0.5,0c0.3,0,0.6,0,0.8,0c0.6,0,1.1,0.2,1.5,0.6c0.3-0.2,0.7-0.3,1-0.4
		c0.5-0.1,1.1-0.2,1.6-0.2s1.1,0.1,1.6,0.2c0.5,0.2,1,0.4,1.4,0.6c0.1,0.1,0.2,0.2,0.3,0.3c0.7-0.7,1.7-1.1,2.7-1.1
		c0.4,0,0.8,0,1.1,0c0.8,0,1.5,0.3,2.1,0.6c0.4-0.4,0.9-0.6,1.5-0.6h4.8c1.2,0,2,0.7,2,1.9c0,0.3,0,0.5,0,0.7c0,0.1,0,0.2,0,0.3
		c0,0.8-0.3,1.4-0.9,1.7c0.6,0.7,0.9,1.6,0.9,2.6c0,1.4,0,2.7,0,4.1c0,2.1-1.8,3.7-3.9,3.7c-0.4,0-0.8,0-1.1,0
		c-0.8,0-1.5-0.2-2.1-0.6c-0.3,0.3-0.8,0.5-1.4,0.5h-4.9C99.1,166.6,98.6,166.4,98.3,166.1z"/>
	<path class="st2" d="M91.4,153.3c-0.3,0-0.5,0-0.8,0c-0.2,0-0.3,0-0.5,0c-0.3,0-0.4-0.1-0.4,0.3c-0.1,0.2-0.2,0.5-0.4,0.7
		c-0.2,0.2-0.3,0.3-0.5,0.4c-0.1,0.1-0.2,0.1-0.3,0.1c-0.3,0.1-0.3,0.1-0.3,0.4c0,0.4,0,0.7,0,1c0,0.4,0.1,0.4,0.4,0.4
		c0.1,0,0.2,0,0.3,0c0.4,0,0.3,0.2,0.3,0.5c0,1.3,0,2.6,0,3.9c0,1.3,0,2.3,0,3.7c0,0.5,0.1,0.7,0.6,0.7c0.3,0,0.5,0,0.7,0
		c0.4,0,0.5,0,0.8,0c0.4,0,0.5-0.3,0.5-0.7c0-1.7,0-3.3,0-5c0-1.9,0-3.6,0-5.5C92,153.5,92,153.3,91.4,153.3z M105.7,154.1V154
		c0-0.5,0.1-0.7,0.6-0.7h0.4l0,0l0,0l0,0l0,0l0,0h0.1l0,0l0,0l0,0l0,0l0,0h0.1l0,0l0,0l0,0l0,0h0.1l0,0l0,0l0,0l0,0l0,0h0.1l0,0l0,0
		l0,0l0,0h0.1l0,0l0,0l0,0l0,0h0.1l0,0l0,0l0,0l0,0h0.1l0,0l0,0l0,0h0.1l0,0l0,0l0,0h0.1l0,0l0,0l0,0h0.1l0,0l0,0l0,0l0,0h0.1l0,0
		l0,0l0,0h0.1l0,0l0,0l0,0l0,0l0,0h0.1l0,0l0,0l0,0l0,0h0.1l0,0l0,0l0,0h0.1l0,0l0,0l0,0l0,0l0,0h0.1l0,0l0,0l0,0l0,0h0.1l0,0l0,0
		l0,0l0,0l0,0h0.1l0,0l0,0l0,0h0.1l0,0l0,0l0,0l0,0h0.1l0,0l0,0l0,0l0,0h0.1l0,0l0,0l0,0l0,0h0.1l0,0l0,0l0,0h0.1l0,0l0,0l0,0h3.2
		l0,0h0.1c0.4,0,0.5,0,0.5,0.4c0,0.3,0,0.4,0,0.7c0,0.2,0,0.2,0,0.3c0,0.4,0,0.5-0.4,0.5H111l0,0c-1.2,0-1.7,0-2.9,0
		c0,0.8,0,1.5,0,2.3c0.5-0.5,1-0.6,1.6-0.6c1.3,0,1.8,1.1,1.8,2.2c0,1.4,0,2.7,0,4.1c0,1.2-1.1,2.2-2.3,2.2c-0.4,0-0.8,0-1.1,0
		c-1.3,0-2.4-1-2.4-2.2c0-0.6,0-1.2,0-1.8l0,0v-0.4c0-0.6,0.2-0.6,0.7-0.6c0.2,0,0.2,0,0.4,0c0.3,0,0.5,0,0.9,0
		c0.5,0,0.6,0.1,0.6,0.6v0.4l0,0c0,0.6,0,1.2,0,1.8c0,0.2,0.2,0.4,0.5,0.4c0.3,0,0.5-0.2,0.5-0.4c0-1.4,0-2.7,0-4
		c0-0.3-0.2-0.4-0.5-0.4c-0.3,0-0.4,0.2-0.5,0.4v0.1l0,0l0,0l0,0l0,0c-0.1,0.3-0.2,0.4-0.6,0.4c-0.4,0-0.6,0-0.9,0
		c-0.2,0-0.2,0-0.4,0c-0.5,0-0.7-0.1-0.7-0.6v-0.2l0,0c0-1.4,0-2.1,0-3.5v-0.3l0,0v-0.1l0,0l0,0l0,0v-0.1l0,0l0,0l0,0v-0.1l0,0l0,0
		l0,0l0,0v-0.1l0,0l0,0l0,0l0,0l0,0v-0.1l0,0l0,0l0,0l0,0v-0.1l0,0l0,0l0,0v-0.1l0,0l0,0l0,0v-0.1l0,0l0,0v-0.1l0,0l0,0v-0.1l0,0
		l0,0v-0.1l0,0v-0.1l0,0V154.1L105.7,154.1L105.7,154.1z M99.1,164.1v0.3c0,0.5,0.1,0.7,0.6,0.7h0.5l0,0h0.1l0,0l0,0l0,0l0,0h0.1
		l0,0l0,0l0,0l0,0l0,0h0.1l0,0l0,0l0,0l0,0h0.1l0,0l0,0l0,0l0,0h0.1l0,0l0,0l0,0h0.1l0,0l0,0l0,0h0.1l0,0l0,0l0,0l0,0h0.1l0,0l0,0
		l0,0l0,0h0.1l0,0l0,0l0,0l0,0h0.1l0,0l0,0l0,0h0.1l0,0l0,0l0,0l0,0h0.1l0,0l0,0l0,0l0,0l0,0h0.1l0,0l0,0l0,0l0,0h0.1l0,0l0,0l0,0
		l0,0h0.1l0,0l0,0l0,0l0,0h0.1l0,0l0,0l0,0l0,0l0,0h0.1l0,0l0,0l0,0l0,0h0.1l0,0l0,0l0,0l0,0h0.1l0,0l0,0l0,0h0.1l0,0l0,0l0,0h0.1
		l0,0l0,0l0,0l0,0h3.1l0,0h0.2c0.4,0,0.5-0.1,0.5-0.5c0-0.2,0-0.2,0-0.3c0-0.2,0-0.4,0-0.6c0-0.4-0.1-0.4-0.5-0.4h-0.2l0,0
		c-1.1,0-1.6,0-2.8,0c0-2,3.4-4,3.4-7.9c0-1.2-1.1-2.2-2.3-2.2c-0.4,0-0.8,0-1.1,0c-1.3,0-2.4,1-2.4,2.2c0,0.4,0,0.8,0,1.2l0,0v0.4
		c0,0.6,0.2,0.6,0.7,0.6c0.2,0,0.2,0,0.4,0c0.3,0,0.5,0,0.9,0c0.6,0,0.6-0.1,0.6-0.7v-0.3l0,0c0-0.4,0-0.8,0-1.2
		c0-0.3,0.2-0.4,0.5-0.4s0.5,0.2,0.5,0.4c0,0.8,0.1,1.1-0.3,1.8c-0.7,1.5-1.8,2.8-2.7,4.2c-0.3,0.4-0.4,0.7-0.4,1.4v0.8v0.1l0,0l0,0
		v0.1l0,0l0,0v0.1l0,0l0,0v0.1l0,0v0.1l0,0v0.1l0,0v0.1l0,0v0.1v0.1l0,0V164.1L99.1,164.1z M97.6,153.8c-0.3-0.2-0.6-0.4-0.9-0.4
		c-0.4-0.1-0.8-0.2-1.2-0.2c-0.4,0-0.8,0.1-1.2,0.2c-0.4,0.1-0.7,0.2-0.9,0.4c-0.6,0.4-0.8,0.9-0.8,1.6c0,0.9,0,1.8,0,2.7
		c0,0.6,0.2,1.1,0.7,1.4c0.2,0.2,0.5,0.3,0.7,0.4c0.3,0.1,0.6,0.2,0.9,0.2c0.5,0,0.9-0.1,1.1-0.3c0,0.6,0,1.2,0,1.7
		c0,0.6,0,1.2,0,1.8c0,0.3-0.2,0.4-0.5,0.4c-0.3,0-0.4-0.1-0.4-0.4c0-0.8,0-1.6,0-2.4c0-0.5-0.1-0.6-0.6-0.6c-0.4,0-0.6,0-0.9,0
		c-0.2,0-0.2,0-0.4,0c-0.6,0-0.7,0.1-0.7,0.6c0,0.8,0,1.4,0,2.2c0,0.8,0.3,1.3,0.7,1.7c0.5,0.4,1.2,0.6,2.2,0.6s1.7-0.2,2.2-0.6
		c0.5-0.4,0.8-1,0.8-1.7c0-1.3,0-2.5,0-3.8s0-2.5,0-3.8C98.5,154.7,98.2,154.2,97.6,153.8z M96,158.1L96,158.1
		c0,0.3-0.2,0.4-0.5,0.4c-0.3,0-0.4-0.1-0.4-0.4c0-1,0-1.9,0-2.8c0-0.3,0.2-0.4,0.4-0.4c0.3,0,0.5,0.2,0.5,0.4
		C96,156.2,96,157.1,96,158.1z"/>
</g>
</svg>
