<?xml version="1.0" encoding="utf-8"?>
<!-- Generator: Adobe Illustrator 21.1.0, SVG Export Plug-In . SVG Version: 6.00 Build 0)  -->
<svg version="1.1" id="Layer_1" xmlns="http://www.w3.org/2000/svg" xmlns:xlink="http://www.w3.org/1999/xlink" x="0px" y="0px"
	 viewBox="0 0 200 200" style="enable-background:new 0 0 200 200;" xml:space="preserve">
<style type="text/css">
	.st0{fill:#FFFFFF;}
	.st1{fill:#090909;}
	.st2{fill:#252526;}
	.st3{fill:#424142;}
	.st4{fill:#515153;}
	.st5{fill:#5F6062;}
	.st6{fill:#6C6C6E;}
	.st7{fill:#78797B;}
	.st8{fill:#8E9091;}
	.st9{fill:#9C9E9F;}
	.st10{fill:#A2A3A4;}
	.st11{fill:#A5A7A8;}
	.st12{fill:#AAABAD;}
	.st13{fill:#ADAEAF;}
	.st14{fill:#AFB1B2;}
	.st15{fill:#B6B8B9;}
	.st16{fill:#BABBBC;}
	.st17{fill:#BCBEBF;}
	.st18{fill:#BFC1C2;}
	.st19{fill:#C2C4C4;}
	.st20{fill:#C5C7C8;}
	.st21{fill:#C9CBCB;}
	.st22{fill:#009A4E;}
	.st23{fill:#E31F26;}
</style>
<g>
	<path d="M193.2,148.1c-1.6-1-11.7-7.3-15.2-9.4c0.1-0.2,2.3-3.2,4.7-6.7c10.1-4.2,17.1-14.1,17.1-25.6c0-11.3-6.9-21.1-16.7-25.4
		c5.1-1.1,12.4-2.7,12.4-2.7c1-0.2,1.9-1,2-2v-0.5c0-0.8-0.5-1.6-1.2-2.2l-16.8-10.7c0.1,0,0.1-0.1,0.2-0.1c1.2-0.9,1.9-2.3,1.9-3.6
		c0-1-0.5-1.9-1.2-2.5c-1.2-0.9-2.7-2.6-2.8-2.6c-7.9-10-19.5-22.9-39.7-33.5c-16.2-8.3-32-8.8-37.1-9.1h-0.9h-0.1h-0.9
		c-5.1,0.2-20.9,0.7-37.1,9.1C41.5,31.1,29.8,44.1,22,54c0,0-1.6,1.7-2.8,2.6c-0.8,0.6-1.2,1.5-1.2,2.5l0,0c0,1.4,0.7,2.6,1.9,3.6
		c0.1,0.1,0.2,0.2,0.3,0.3C11.6,68.6,3.7,73.6,3.7,73.6c-0.8,0.6-1.2,1.4-1.2,2.2v0.5c0.2,1,1,1.8,2,2c0,0,7.3,1.6,12.4,2.7
		C7,85.2,0.2,95,0.2,106.4c0,11.6,7,21.4,17.1,25.6c2.2,3.1,4.1,5.8,4.7,6.7c-4.3,2.6-13.7,8.5-15.2,9.4c-0.7,0.5-1.1,1.2-1.1,2.2
		v0.5c0.2,1.1,1.1,2,2.5,2.3l0,0h0.1l0,0c1,0.2,10.1,2,20.2,4.1c2.8,3.4,7.6,8.4,14.4,13.5c11.1,8.2,30.1,17.9,57.1,17.9
		c27.1,0,46.1-9.8,57.1-17.9c6.8-5,11.6-10,14.4-13.5c10-2,19.1-3.9,20.2-4.1h0.1l0,0l0,0c1.2-0.2,2.3-1.1,2.5-2.3v-0.5
		C194.3,149.4,193.9,148.6,193.2,148.1L193.2,148.1z M140.9,129.3c-0.1,0-1.1,0.5-1.2,1.6v0.3c0,0.6,0.2,1,0.7,1.6
		c0,0,0.2,2.9,0.5,7c-13,10.2-26.4,15.3-40.6,15.3c-14.3,0-27.7-5-40.6-15.3c0.2-4,0.5-6.9,0.5-7c0.5-0.6,0.7-1,0.7-1.6v-0.3
		c-0.2-1-1.2-1.5-1.4-1.6h-0.1l-10.9-3.9c4.7-5,7.5-11.6,7.5-18.9c0-7.3-2.8-13.8-7.4-18.8c5.9-4.8,10.9-8.8,11.2-9.1
		c0.5-0.5,0.7-1,0.7-1.6c0-0.7-0.2-1.1-0.5-1.6l0,0l-3-4.8l-0.1-0.1c-0.1-0.1-0.5-0.6-0.6-1.1c3.1-3.3,7.1-7.6,8.5-9.3l0.9-0.9
		c5-5.1,15.4-15.5,34.2-15.3c18.8-0.2,29.3,10.2,34.3,15.3l0.9,0.9c1.5,1.7,5.8,6.4,9,9.6c-0.1,0.3-0.3,0.7-0.5,0.8l-0.1,0.1l-3,4.8
		l0,0c-0.2,0.3-0.5,0.9-0.5,1.6c0,0.6,0.2,1,0.7,1.6c0.3,0.3,5.2,4.3,11.2,9.1c-4.5,5-7.4,11.6-7.4,18.8c0,7.4,2.8,14,7.5,18.9
		L140.9,129.3C141,129.2,140.9,129.3,140.9,129.3L140.9,129.3z"/>
	<path class="st0" d="M40.3,80.9c-2.3-0.5-7.9-4.2-9.4-6.9c-1.4-2.4-2.2-3.5-2.4-3.7c-1.9-2.6-6.2-6.4-8.3-7.9c-1-0.8-1.7-2-1.7-3.1
		c0-0.8,0.3-1.6,1-2c1.2-1,2.7-2.5,3-2.7C30.4,44.5,42,31.7,62,21.1c16.1-8.3,31.8-8.7,36.9-9h0.9l0,0h0.9c5.1,0.2,20.8,0.7,36.9,9
		c20.1,10.6,31.7,23.4,39.6,33.4c0.2,0.2,1.7,1.7,3,2.7c0.7,0.5,1,1.2,1,2c0,1.1-0.7,2.3-1.7,3.1c-2,1.6-6.4,5.3-8.3,7.9
		c0,0-0.9,1.1-2.3,3.7c-1.5,2.7-7.3,6.5-9.4,6.9c-0.3,0.1-2.9,0.9-4.9-1.1c-0.1-0.1-6.4-6.4-7-7.1c-0.2-0.2-1.4-1.4-2.7-3l-0.1-0.1
		c-3.1-3.3-7.7-8.2-9.2-10l-0.9-0.9c-5.1-5.1-15.7-15.8-34.6-15.5C81,42.9,70.4,53.6,65.3,58.7l-0.9,0.9c-1.6,1.8-6.1,6.8-9.3,10.1
		L55,69.8c-1.4,1.5-2.5,2.6-2.7,2.8c-0.6,0.7-6.7,6.8-7,7C43.2,81.8,40.6,81.1,40.3,80.9L40.3,80.9z"/>
	<path d="M98.9,13.2c-5.1,0.1-20.5,0.7-36.4,8.8c-19.9,10.4-31.4,23.1-39.3,33c0,0-1.7,1.8-3.1,2.8c-0.3,0.3-0.6,0.7-0.6,1.2
		c0,0.8,0.5,1.7,1.2,2.3c0.2,0.2,6,4.8,8.4,8.1c0,0,0.9,1.1,2.4,3.9c1.5,2.6,7,6.1,8.7,6.4h0.1l0,0c0.1,0,2.3,0.8,3.9-0.9
		c1.7-1.7,6.5-6.5,6.9-7c0.2-0.2,1.1-1.2,2.8-3.1c3.1-3.3,7.7-8.3,9.2-10l0,0l0.9-0.9c5.2-5.2,15.9-16.1,35.4-15.8
		c19.5-0.2,30.3,10.6,35.4,15.8l0.9,0.9l0,0c1.5,1.8,6.1,6.7,9.2,10c1.7,1.8,2.6,2.7,2.8,3.1c0.6,0.7,6.4,6.5,7,7.1
		c1.5,1.7,3.6,0.9,3.7,0.9h0.1c1.7-0.2,7.4-3.7,8.7-6.4c1.5-2.7,2.4-3.9,2.4-3.9c2.5-3.4,8.4-8.1,8.5-8.2c0.8-0.7,1.2-1.5,1.2-2.3
		c0-0.5-0.2-0.9-0.6-1.2c-1.4-1-3-2.7-3.1-2.8c-7.8-10-19.4-22.7-39.3-33.1c-15.9-8.2-31.3-8.6-36.4-8.8h-0.8
		C99.8,13.2,98.9,13.2,98.9,13.2L98.9,13.2z"/>
	<circle class="st1" cx="99.9" cy="97.3" r="39"/>
	<circle class="st2" cx="99.9" cy="97.3" r="38.5"/>
	<circle class="st3" cx="99.8" cy="97.3" r="37.9"/>
	<circle class="st4" cx="99.8" cy="97.3" r="37.3"/>
	<circle class="st5" cx="99.9" cy="97.3" r="36.8"/>
	<circle class="st6" cx="99.8" cy="97.3" r="36.2"/>
	<circle class="st7" cx="99.8" cy="97.3" r="35.6"/>
	<circle class="st8" cx="99.9" cy="97.3" r="35.1"/>
	<circle class="st9" cx="99.8" cy="97.3" r="34.5"/>
	<circle class="st10" cx="99.8" cy="97.3" r="33.4"/>
	<circle class="st11" cx="99.8" cy="97.3" r="32.2"/>
	<circle class="st12" cx="99.8" cy="97.3" r="31.1"/>
	<circle class="st13" cx="99.8" cy="97.3" r="30"/>
	<circle class="st14" cx="99.8" cy="97.3" r="28.8"/>
	<circle class="st15" cx="99.8" cy="97.3" r="27.1"/>
	<circle class="st16" cx="99.8" cy="97.3" r="25.4"/>
	<circle class="st17" cx="99.8" cy="97.3" r="23.7"/>
	<circle class="st18" cx="99.8" cy="97.3" r="21.4"/>
	<circle class="st19" cx="99.8" cy="97.3" r="19.2"/>
	<circle class="st20" cx="99.8" cy="97.3" r="16.3"/>
	<circle class="st21" cx="99.8" cy="97.3" r="13.5"/>
	<path d="M135.1,79.9c-1.8,0-5-1.2-6.7-2c-3.4-5.7-9.5-9.8-11.7-11.1c-0.3-1.2-1-3.2-2.2-5.7c-4.5-1.8-9.4-2.7-14.5-2.7
		c-1.1,0-2.3,0-3.4,0.1c-0.6,2.6-3.5,4.9-4.1,5.3c-7.1,1.1-12.9,5.9-15.4,8.4c-1.8,0-5.4,0-6.5-0.5c-3.5,4.1-6.2,8.8-7.9,14.1
		c0.6,5,2.2,8.2,3,9.5c-0.2,4.2,0,13.4,4.4,20v7.3c3.9,4.7,8.8,8.4,14.5,10.8c3.3-1.5,5.8-2.2,7.3-2.5c2.2,0.7,8.1,2,15.1,0.6
		c1,0.7,3.1,1.9,6.5,2.8c5.7-2,10.7-5.3,14.8-9.5v-6.5c4.3-5.6,5.7-12.4,6.2-15.7c2.7-2.6,4.8-3.9,4.9-3.9c0-0.5,0-0.8,0-1.2
		C139.2,91,137.7,85.1,135.1,79.9L135.1,79.9z M104.4,69.4c3.7-1.6,10-1.5,12-1.4c2.4,1.5,8.1,5.6,11.1,10.8
		c0.7,5.7,0.1,9.9-0.1,11.3c-3,0.8-8.7,2-13.4,3.1l-10.7-10.7C103.7,78.1,104.1,72.4,104.4,69.4L104.4,69.4z M77.1,73.8
		c1.8-1.9,8.3-7.9,16.2-9c2,0.3,7.5,1.2,9.9,3.7c-0.2,3-0.8,9.8-1,14.5l-14.6,7.1c-3.1-2.4-9.2-5.4-12.1-6.9
		C75.3,81.8,75.8,76.9,77.1,73.8L77.1,73.8z M71.6,115.2c-5.7-7.5-4.8-20.1-4.5-21.8c2-4.7,5.8-7.9,7.4-9.2c4,1.9,9,4.7,11.8,6.6
		l0,0l4.3,17.7c-1.5,2.2-5.6,7.9-7.8,10.9C81,119.4,75.5,118.7,71.6,115.2L71.6,115.2z M109.2,129.5c-8.1,2.4-15.2,0.7-17.2,0
		c-4.4-2.8-7.3-7.4-8.3-9.2c2.4-3.1,6.4-8.7,7.9-11h14.9c1.7,2.5,6,8.5,9.6,12C115.4,122.6,113.1,127,109.2,129.5L109.2,129.5z
		 M126.6,118c-3,2.5-7.1,3-9.2,3c-3.3-3.1-7.6-9-9.6-11.8l7-14.9c6.2-1.4,10.6-2.4,13-3.1c1.1,1.7,4.4,6.6,5.4,10
		C133,103.9,131.6,112,126.6,118L126.6,118z"/>
	<path class="st0" d="M23,138.8l-0.3,0.2c-4.2,2.6-14,8.6-15.5,9.6c-0.6,0.3-0.9,0.9-0.9,1.6v0.3c0.2,0.9,1,1.6,2,1.8l0,0
		c0.8,0.2,9.2,1.9,19.4,4c-0.3-0.5-0.7-0.9-1-1.2c-9.8-1.9-17.6-3.5-18.2-3.6l0,0c-0.7-0.1-1.1-0.5-1.2-1v-0.1
		c0-0.2,0.1-0.6,0.3-0.7c1.6-1,11.7-7.3,16-9.9l0.3-0.2c0.1-0.1,0.2-0.2,0.2-0.3v-0.1c0-0.1,0-0.2-0.1-0.3l-4-5.7
		c-0.6-0.1-1.1-0.3-1.7-0.6L23,138.8L23,138.8z"/>
	<path class="st0" d="M47.8,125.9c-0.2,0.2-0.6,0.6-0.8,0.8l3,1c0.3-0.1,0.5-0.3,0.6-0.3c0.1-0.2-0.1-0.5-0.2-0.6L47.8,125.9
		L47.8,125.9z"/>
	<path class="st0" d="M5.1,76.6c-0.5-0.1-0.8-0.3-0.8-0.7v-0.1c0-0.3,0.2-0.6,0.5-0.8c0.1,0,8.2-5.2,16.9-10.8
		c-0.3-0.2-0.6-0.5-0.8-0.7L4.2,74.1c-0.6,0.5-0.9,1-0.9,1.6v0.3c0.1,0.8,0.8,1.4,1.6,1.5l13.3,3c0.6-0.2,1.2-0.5,1.9-0.7L5.1,76.6
		L5.1,76.6z"/>
	<path class="st0" d="M48,87.1c3.1-2.5,5.8-4.7,7.8-6.4c-0.7,0.1-1.4,0.2-2.2,0.5c-1.8,1.5-4.1,3.3-6.4,5.2
		C47.4,86.6,47.6,86.8,48,87.1L48,87.1z"/>
	<path class="st0" d="M152.4,125.9l-2.5,0.9c-0.1,0.1-0.3,0.5-0.2,0.6c0,0.1,0.1,0.2,0.6,0.3l3-1
		C152.9,126.4,152.6,126.1,152.4,125.9L152.4,125.9z"/>
	<path class="st0" d="M192.9,148.6c-1.6-1-12.3-7.6-15.5-9.6l-0.3-0.2l4.5-6.5c-0.6,0.2-1.1,0.3-1.7,0.6l-4,5.7
		c-0.1,0.1-0.1,0.2-0.1,0.3v0.1c0,0.1,0.1,0.2,0.2,0.3l0.3,0.2c4.3,2.6,14.4,8.8,16,9.9c0.2,0.1,0.3,0.5,0.3,0.7c0,0,0,0.1,0,0.2
		c-0.1,0.5-0.6,0.9-1.2,1l0,0c-0.6,0.1-8.4,1.7-18.2,3.6c-0.3,0.3-0.7,0.8-1,1.2c10.2-2,18.6-3.7,19.4-4l0,0c1.1-0.2,1.9-0.9,2-1.8
		V150C193.8,149.5,193.4,148.9,192.9,148.6L192.9,148.6z"/>
	<path class="st0" d="M195.3,77.6c0.8-0.2,1.5-0.8,1.6-1.5v-0.3c0-0.6-0.3-1.2-0.9-1.6L179,63.5c-0.2,0.2-0.6,0.5-0.8,0.7L195.4,75
		c0.2,0.1,0.5,0.5,0.5,0.8v0.1c-0.1,0.3-0.3,0.6-0.8,0.7l-14.9,3.3c0.7,0.2,1.2,0.5,1.9,0.7L195.3,77.6L195.3,77.6z"/>
	<path class="st0" d="M152.9,86.4c-2.4-1.9-4.5-3.7-6.4-5.2c-0.8-0.2-1.5-0.3-2.2-0.5c2,1.6,4.8,3.9,7.8,6.4
		C152.5,86.8,152.7,86.6,152.9,86.4L152.9,86.4z"/>
	<path class="st0" d="M43.3,170c-11.9-8.8-17.5-17.5-17.7-17.8c-0.1-0.1-0.1-0.2-0.1-0.5c0-0.1,0.1-0.2,0.2-0.3
		c0.3-0.2,8.2-4.7,9.9-10.7c2.6-8.8,10.1-12,10.4-12.1c0.2-0.1,0.5,0,0.6,0.1c17,18,34.5,26.9,53.4,26.9s36.4-8.7,53.4-26.9l0,0
		c0.1-0.1,0.3-0.2,0.6-0.1c0.3,0.1,7.7,3.2,10.4,12.1c1.7,5.9,9.8,10.6,9.9,10.6c0.1,0.1,0.2,0.2,0.2,0.3c0,0.1,0,0.3-0.1,0.5
		c-0.2,0.3-5.7,9.1-17.7,17.8c-11,8.2-29.8,17.8-56.7,17.8C73.2,187.8,54.3,178.2,43.3,170L43.3,170z"/>
	<path d="M46.4,44.1l-9.5,10.2h1l0.3,0.1l0.3,0.1l0.3,0.2l0.1,0.1l0.1,0.1H39l7,6.6l0.3,0.5l0.2,0.5c0.1,0.1,0.1,0.3,0.1,0.5
		s0,0.2-0.1,0.5l0.3,0.2l3.3-3.5l-0.8,0.2c-0.1,0-0.3,0.1-0.5,0.1l-0.5-0.1l-0.5-0.2l-0.5-0.3l-6.7-6.2c0,0-0.2-0.2-0.3-0.5
		c0.2-0.2,4.4-4.9,4.8-5.1c0.1,0.1,0.3,0.2,0.3,0.2l7.1,6.6l-0.1-0.1l0.1,0.2L53,55v0.1l0,0l0.2,0.2l0.1,0.3V56l-0.1,0.3l0.3,0.2
		l3.2-3.4L56,53.3l-0.5,0.1l-0.5-0.1L54.8,53l-0.5-0.5l-6.8-6.4l-0.5-0.5l-0.2-0.3l-0.1-0.3l-0.1-0.3v-0.2v-0.3l-0.1-0.1l0,0l0,0
		l-0.1-0.3L46.4,44.1L46.4,44.1z"/>
	<path class="st0" d="M46.4,44.6v0.1l0.1,0.3l0.1,0.3l0.2,0.5l0.5,0.5l6.8,6.4l0.6,0.5l0.5,0.2l0.6,0.1l0,0
		c-0.5,0.5-1.4,1.4-1.8,1.9c0-0.1,0-0.2,0-0.2l-0.2-0.5l-0.2-0.3l-0.1-0.1l0,0l-0.1-0.1v0.1l-0.1-0.1l-7.1-6.6l-0.7-0.5l-0.1,0.1
		L40,52.8l0.1,0.1l0.6,0.6l6.7,6.2l0.6,0.3l0.6,0.2l0.6,0.1l0,0c-0.5,0.5-1.5,1.5-1.9,2c0-0.2,0-0.3-0.1-0.6l-0.3-0.6l-0.5-0.5
		l-7.1-6.6H39l0,0l-0.1-0.1l-0.5-0.2L38,53.7l-0.5-0.1l0,0C38.6,53.3,45.9,45.2,46.4,44.6L46.4,44.6z"/>
	<path d="M58.1,48.4c-0.2,0-0.3,0.1-0.6,0.1l-0.5,0.3c-0.1,0.1-0.2,0.3-0.3,0.5l-0.1,0.6c0,0.2,0,0.5,0.1,0.6
		c0.1,0.2,0.2,0.3,0.3,0.6l0.1,0.1c0.2,0.1,0.3,0.2,0.6,0.3c0.2,0,0.3,0.1,0.6,0l0.6-0.2l0.5-0.3l0.3-0.5l0.2-0.5
		c0-0.2,0-0.5-0.1-0.7s-0.2-0.3-0.3-0.6l0,0c-0.2-0.2-0.3-0.3-0.6-0.3C58.5,48.4,58.3,48.4,58.1,48.4L58.1,48.4z"/>
	<path class="st0" d="M57.1,49.6c0-0.1,0.1-0.2,0.2-0.3l0.3-0.2c0.1-0.1,0.2-0.1,0.5-0.1c0.1,0,0.3,0,0.5,0c0.1,0.1,0.2,0.1,0.5,0.3
		c0.1,0.1,0.2,0.2,0.3,0.5c0,0.1,0.1,0.2,0.1,0.3v0.1l-0.1,0.5L59.1,51l-0.3,0.2l-0.5,0.1c-0.1,0-0.2,0-0.3,0
		c-0.1,0-0.2-0.1-0.5-0.2l0,0l0,0c-0.1-0.1-0.2-0.2-0.3-0.5c0-0.1-0.1-0.2-0.1-0.3v-0.1C56.9,50.1,57.1,49.6,57.1,49.6L57.1,49.6z"
		/>
	<path d="M72.1,39.4L72.1,39.4H72l0,0h-0.2h0.1h-0.2l0,0h-0.2l0,0h-0.3l-0.3-0.1l-0.3-0.1L70,39l-11.1-6.4l-0.1,0.1l-3.1,2.4h0.9
		h0.2h0.2l0.1,0.1v0.1v0.1l0.1,0.2l0,0l0,0l3,10.2l0,0l0.1,0.5l0.1,0.6v0.6l-0.1,0.8v0.1v0.1v0.1l0.2,0.3l3.2-2.5l-0.2-0.3h0.1h-0.1
		l0,0h-0.1l0,0h-0.1h-0.2H63L62.8,46l-0.1-0.1l0,0v-0.1l-0.1-0.1l-0.1-0.2c0,0-1-3.2-1-3.4c0.2-0.1,3.5-2.7,3.7-2.8
		c0.2,0.1,3,1.8,3,1.8h-0.1l0.1,0.1l0.1,0.1h0.1h0.1c0,0,0,0,0.1,0l0.1,0.1l0.1,0.1l0,0l0.1,0.1l0.1,0.1l0.1,0.1V42v0.2l-0.1,0.3
		l0.3,0.2l4.1-3.1L72.1,39.4L72.1,39.4z M60.7,39.9c-0.1-0.5-1-3.5-1.2-4.3c0.7,0.5,3.5,2.2,3.9,2.4C62.8,38.2,61,39.6,60.7,39.9
		L60.7,39.9z"/>
	<path class="st0" d="M71.7,39.9C71.7,39.9,71.7,39.8,71.7,39.9h-0.1l0,0l-0.5-0.1c0,0-0.3-0.1-0.5-0.1l-0.5-0.1l-0.6-0.2
		c0,0-10.6-6.1-10.9-6.2c-0.1,0.1-1.5,1.1-2,1.6l0,0l0.3,0.1l0.2,0.2l0.1,0.1l0.1,0.1l0.1,0.1v0.2v-0.1l3,10.2l0.1,0.5l0.1,0.6v0.7
		c0,0-0.1,0.3-0.1,0.6c0.6-0.5,1.7-1.2,2.3-1.7c-0.1,0-0.2,0-0.2,0l-0.2-0.1L62.3,46L62,45.8c0,0,0,0-0.1-0.1l-0.1-0.2v-0.1
		l-0.1-0.2l-1.1-3.7l4.2-3.2l3.2,1.9h0.1h0.1l0.1,0.1l0.1,0.1l0,0h0.1l0,0c0,0,0,0,0.1,0l0.2,0.1l0.1,0.1l0.1,0.2l0.1,0.3v0.1
		C69.9,41.2,71.1,40.2,71.7,39.9L71.7,39.9z M60.5,40.5l-1.6-5.4l-0.1-0.6l5.3,3.3L60.5,40.5L60.5,40.5z"/>
	<path d="M74.1,36.3l-0.6,0.2c-0.2,0.1-0.3,0.2-0.5,0.3l-0.3,0.5c-0.1,0.2-0.1,0.5-0.1,0.6c0,0.2,0.1,0.5,0.2,0.7l0.1,0.1l0,0
		c0.1,0.2,0.2,0.3,0.5,0.5c0.1,0.1,0.3,0.2,0.6,0.2h0.6l0.6-0.2l0.5-0.3l0.3-0.5c0.1-0.2,0.1-0.3,0.1-0.6v-0.1
		c0-0.2-0.1-0.5-0.2-0.7c-0.1-0.2-0.2-0.5-0.5-0.6c-0.1-0.1-0.3-0.2-0.6-0.2C74.4,36.3,74.2,36.3,74.1,36.3L74.1,36.3z"/>
	<path class="st0" d="M73.3,37.1c0.1-0.1,0.2-0.2,0.3-0.2l0.5-0.1c0.1,0,0.3,0,0.5,0c0.1,0,0.2,0.1,0.3,0.2l0,0
		c0.1,0.1,0.2,0.2,0.3,0.5c0.1,0.2,0.1,0.3,0.1,0.5c0,0,0,0,0,0.1s0,0.2-0.1,0.3L75,38.7L74.6,39l-0.3,0.1h-0.5
		c-0.1,0-0.2-0.1-0.3-0.1c-0.1-0.1-0.2-0.2-0.3-0.3v-0.1c-0.1-0.2-0.1-0.3-0.1-0.5c0,0,0,0,0-0.1s0-0.2,0.1-0.3
		C73.1,37.6,73.3,37.1,73.3,37.1L73.3,37.1z"/>
	<path d="M80.5,21.8l-0.1,0.1l-0.1,0.1L80,22.2h-0.2l-6.8,2.4l0.6,0.2c0.2,0.1,0.5,0.2,0.6,0.3c0.1,0.1,0.2,0.2,0.3,0.5l0.2,0.6
		l0.2,0.5l3,9l0.1,0.2V36v0.2v0.2l0,0v0.1v0.1v0.1L77.8,37l-0.5,0.6l0.5-0.1l8.2-2.7l0.2-3.1l-0.3-0.1c-0.1,0.2-0.3,0.6-0.6,0.7
		c-0.2,0.2-0.3,0.5-0.6,0.6l-0.3,0.2l-0.3,0.2l-0.3,0.2l-0.3,0.1h-0.1c0,0,0,0-0.1,0l-0.3,0.1l-0.6,0.1L81.7,34l-0.6,0.1l-0.6,0.1
		h-0.1c0,0,0,0,0.1,0h-0.1c0,0-0.1,0-0.2,0c-0.1-0.2-1.2-4-1.5-4.3c0.3-0.1,1.2-0.3,1.2-0.3h0.1l0.6-0.1h0.6h0.5l0.7,0.3l-0.1-0.5
		l-0.8-2.4L81,27.3l-0.2,0.1l-0.3,0.1L80,27.6c0,0-1.4,0.5-1.7,0.6c-0.1-0.3-0.9-2.8-1-3.1c0.1,0,0.7-0.2,0.7-0.2H78h0.1l0.2-0.1
		h0.1l0.3-0.1l0.9-0.2l0.8-0.1c0.2,0,0.5,0,0.7,0c0.2,0,0.5,0.1,0.6,0.2l0.5,0.2l-1-3.3L80.5,21.8L80.5,21.8z"/>
	<path class="st0" d="M80.5,22.4C80.5,22.4,80.5,22.3,80.5,22.4c0.2,0.3,0.5,1.1,0.7,1.7c-0.1,0-0.1-0.1-0.2-0.1
		c-0.2-0.1-0.6-0.1-0.8,0l-0.9,0.1l-0.9,0.2L78,24.4l-0.2,0.1l-0.2,0.1l-1,0.5l0.1,0.2l1.2,3.7l2-0.7l0.5-0.1l0.3-0.1l0,0l0.3-0.1
		c0.1,0.3,0.3,1,0.5,1.5h-0.5h-0.6L80,29.7l0,0l-1.6,0.5l1.6,5h0.1h0.2h0.2h0.1h-0.1h0.2h0.1h0.2h0.3L82,35l0.6-0.1l0.6-0.2l0.3-0.1
		c0,0,0,0,0.1,0h0.1l0.3-0.2l0.3-0.2l0.3-0.2l0.3-0.2c0.2-0.2,0.5-0.5,0.7-0.7l0.1-0.1c-0.1,0.8-0.1,1.8-0.1,2
		c-0.2,0.1-6.6,2.2-7.4,2.5v-0.1l0,0v-0.1V37v-0.1v-0.1v-0.2v-0.2v-0.2l-0.1-0.2l-3-9l-0.2-0.6l-0.2-0.6c-0.1-0.2-0.2-0.3-0.5-0.6
		c-0.1,0-0.1-0.1-0.2-0.1c0.8-0.2,5.9-1.9,5.9-2c0.1,0,0.2,0,0.2,0L80.5,22.4L80.5,22.4z"/>
	<path d="M89.3,31.4c-0.2,0-0.3,0.1-0.6,0.2l-0.5,0.3c-0.1,0.1-0.2,0.3-0.3,0.6c0,0.2,0,0.5,0,0.7v0.1l0,0c0.1,0.2,0.1,0.3,0.2,0.6
		c0.1,0.1,0.2,0.2,0.5,0.3l0.6,0.1h0.6l0.6-0.2l0.5-0.3c0.2-0.2,0.2-0.3,0.3-0.6c0-0.2,0-0.5,0-0.7c0-0.2-0.1-0.5-0.2-0.7
		c-0.1-0.2-0.2-0.3-0.5-0.5c-0.1-0.1-0.3-0.1-0.6-0.2L89.3,31.4L89.3,31.4z"/>
	<path class="st0" d="M88.9,31.9c0.1-0.1,0.2-0.1,0.3-0.1h0.5c0.1,0,0.3,0.1,0.5,0.1c0.1,0.1,0.2,0.1,0.3,0.2
		c0.1,0.1,0.1,0.3,0.1,0.5c0,0.1,0,0.2,0,0.2c0,0.1,0,0.1,0,0.2s-0.1,0.2-0.2,0.3l-0.3,0.2l-0.5,0.1h-0.5l-0.5-0.1
		c-0.1-0.1-0.2-0.1-0.2-0.2c-0.1-0.1-0.1-0.2-0.2-0.5v-0.1l0,0c0-0.1,0-0.2,0-0.2c0-0.1,0-0.1,0-0.2s0.1-0.2,0.2-0.3
		C88.6,32.1,88.9,31.9,88.9,31.9L88.9,31.9z"/>
	<path d="M101.6,21.1c-0.9,0.8-1.4,1.9-1.4,3.2c0,1.6,0.9,3,2.5,3.6l0.7,0.2c1.1,0.5,2.4,0.9,2.3,2c-0.1,0.6-0.6,0.9-1,1
		c-0.7,0.1-1.5-0.1-2.3-0.5l-0.8-0.5l-0.2-0.2c-0.3-0.3-0.6-0.6-0.7-0.6h-0.5v3.5l0.1,0.1c0.6,0.3,1.1,0.6,1.8,0.8
		c0.7,0.2,1.5,0.3,2.3,0.3c1.5,0,2.7-0.5,3.6-1.2c0.9-0.8,1.4-1.9,1.4-3.3c0-0.9-0.2-1.7-0.6-2.4c-0.3-0.6-1-1.1-1.8-1.5l0,0l0,0
		l-1.1-0.5l-1.1-0.3c-0.5-0.1-0.9-0.6-0.9-1.1c0-0.2,0-0.3,0.1-0.5c0.1-0.1,0.2-0.2,0.3-0.3c0.2-0.1,0.3-0.1,0.6-0.2
		c0.7-0.1,1.4,0.1,1.9,0.3c0.6,0.3,1,0.7,1.5,1l0.1,0.1h0.6V21l-0.1-0.1c-0.5-0.2-1.1-0.5-1.7-0.7c-0.7-0.2-1.4-0.2-2-0.3
		C103.8,19.9,102.6,20.3,101.6,21.1L101.6,21.1z"/>
	<path class="st0" d="M104.7,31.7c0.7-0.1,1.2-0.7,1.4-1.4c0.2-1.5-1.4-2-2.5-2.5l-0.6-0.2c-1.5-0.7-2.3-1.8-2.3-3.2
		c0-1.2,0.5-2.2,1.2-2.8c0.8-0.7,1.9-1.1,3.2-1.1c0.7,0,1.4,0.1,1.9,0.2c0.6,0.1,1.1,0.3,1.6,0.6c0,0.2,0,2.4,0,2.7
		c-0.5-0.5-0.9-0.8-1.5-1c-0.6-0.3-1.4-0.6-2.3-0.5c-0.2,0-0.5,0.1-0.7,0.2s-0.3,0.2-0.6,0.5c-0.1,0.2-0.2,0.5-0.2,0.8l0,0
		c0,0.8,0.7,1.4,1.2,1.6l1.1,0.3l1.1,0.3c0.8,0.3,1.2,0.8,1.6,1.4c0.3,0.6,0.5,1.2,0.5,2c0,0,0,0,0,0.1c0,1.2-0.5,2.3-1.2,3.1
		c-0.8,0.8-1.9,1.1-3.4,1.1c-0.8,0-1.6-0.1-2.2-0.3c-0.6-0.2-1.1-0.5-1.6-0.7c0-0.2,0-2.5,0-2.8h0.1c0,0,0.2,0.2,0.3,0.3l0.2,0.2
		l0.9,0.6C103.1,31.6,103.9,31.8,104.7,31.7L104.7,31.7z"/>
	<path d="M115.4,21.6l-3.4,13l3.3,0.9c0,0,1.2-4.7,1.5-5.8c0.3,1.1,2.3,6.7,2.3,6.7l4.1,1.1c0,0-2.8-8.2-3-8.4c0.2-0.2,6.1-5,6.1-5
		l-3.9-1c0,0-4.3,3.6-5.1,4.4c0.2-1,1.4-5.4,1.4-5.4l-3.3-0.9V21.6L115.4,21.6z"/>
	<path class="st0" d="M115.7,21.9c0.3,0.1,2.2,0.6,2.5,0.7c-0.1,0.3-1.5,5.8-1.5,5.8l0,0c0,0-1.6,6.4-1.7,6.7
		c-0.3-0.1-2.2-0.6-2.5-0.7C112.5,34.1,115.6,22.3,115.7,21.9L115.7,21.9z"/>
	<path class="st0" d="M117.1,28.4c0,0,5.3-4.5,5.4-4.7c0.2,0,2.3,0.6,2.8,0.8c-0.6,0.5-5.8,4.7-5.8,4.7s2.5,7.3,2.7,7.9
		c-0.6-0.1-2.8-0.8-3.1-0.8c-0.1-0.2-2.5-7.4-2.5-7.6C116.8,28.5,117.1,28.4,117.1,28.4L117.1,28.4z"/>
	<path d="M137.2,37.8c0.8-1.4,1.2-2.8,1.2-4.1c0-0.3,0-0.8-0.1-1.1c-0.3-1.6-1.4-3-3-3.9c-1.7-0.9-3.3-1.1-4.9-0.7
		c-1.6,0.6-3,1.7-4,3.6c-1,1.8-1.5,3.6-1.1,5.2s1.4,3,3,3.9c1.7,0.9,3.3,1.1,4.9,0.7C134.8,40.9,136.1,39.6,137.2,37.8L137.2,37.8z
		 M134.9,34.3c-0.1,0.6-0.3,1.1-0.8,1.8c-0.3,0.6-0.7,1.1-1.1,1.5c-0.3,0.3-0.8,0.7-1.1,0.8c-0.3,0.1-0.7,0.2-1,0.2
		c-0.3,0-0.7-0.1-1-0.3c-0.3-0.2-0.6-0.5-0.8-0.7c-0.2-0.3-0.3-0.7-0.3-1c0-0.5,0-0.9,0.1-1.4c0.1-0.6,0.3-1.1,0.8-1.8
		c0.3-0.7,0.8-1.1,1.1-1.6c0.5-0.3,0.8-0.7,1.1-0.8c0.3-0.1,0.8-0.2,1-0.2c0.3,0,0.7,0.1,0.9,0.3c0.3,0.2,0.6,0.5,0.8,0.7
		c0.2,0.2,0.3,0.6,0.3,1C135,33.3,135,33.7,134.9,34.3L134.9,34.3z"/>
	<path d="M148.4,48.1c0.9-0.9,1.5-1.9,1.7-3c0.3-1,0.3-2,0.1-3.1c-0.1-0.6-0.5-1.1-0.8-1.8c-0.3-0.6-0.9-1.2-1.7-1.9l-3.3-3
		l-0.1,0.1l-8.8,9.8l3.2,2.8c0.7,0.7,1.4,1.1,1.9,1.5c0.6,0.3,1.2,0.6,2,0.7c0.9,0.1,1.9,0,3-0.3C146.6,49.7,147.6,49.1,148.4,48.1
		L148.4,48.1z M144.2,47c-0.6,0.2-1.1,0.3-1.7,0.2c-0.3-0.1-0.7-0.2-0.9-0.3c-0.2-0.1-0.7-0.5-1.2-0.9c0,0-0.2-0.2-0.5-0.3
		c0.2-0.3,4.9-5.3,5.2-5.7c0.1,0.1,0.5,0.3,0.5,0.3c0.5,0.5,0.8,0.8,1,1c0.2,0.2,0.3,0.6,0.5,0.8c0.1,0.3,0.1,0.6,0.1,0.9
		c0,0.3,0,0.6-0.1,0.9c-0.2,0.6-0.6,1.2-1.1,1.8C145.2,46.3,144.6,46.8,144.2,47L144.2,47z"/>
	<path d="M157.7,48.6l-0.1,0.1l-12.9,5.2l2.3,2.6c0,0,2.3-1,2.5-1.1c0.2,0.2,2.4,2.8,2.5,3.1c-0.1,0.2-1.5,2.3-1.5,2.3l2.3,2.7
		l7.4-12L157.7,48.6L157.7,48.6z M153.5,56c-0.2-0.3-1.1-1.4-1.5-1.7c0.3-0.1,2.7-1.1,3.5-1.5C155.1,53.6,153.7,55.6,153.5,56
		L153.5,56z"/>
	<path class="st0" d="M157.6,49.2c-0.2,0.1-11.8,4.8-12.3,5c0.3,0.3,1.5,1.8,1.7,1.9c0.2-0.1,2.5-1.1,2.5-1.1l2.9,3.5
		c0,0-1.4,2-1.5,2.3c0.1,0.2,1.4,1.7,1.7,2c0.3-0.5,6.8-11,6.9-11.2C159.5,51.3,157.8,49.3,157.6,49.2L157.6,49.2z M153.6,56.8
		l-2.2-2.6l4.7-2l0.7-0.2L153.6,56.8L153.6,56.8z"/>
	<path d="M86.1,149.7c-0.1-0.1-0.2-0.2-0.2-0.5c-0.1-0.1-0.1-0.2-0.1-0.5c0-0.1,0-0.3,0-0.5V138l-0.1,0.1l-0.1,0.1l0,0l0,0
		c0,0,0,0,0,0.1c0,0,0,0,0,0.1c-0.2,0.2-0.3,0.5-0.6,0.7c-0.2,0.2-0.5,0.5-0.7,0.7c-0.2,0.2-0.6,0.5-0.9,0.7
		c-0.3,0.2-0.8,0.5-1.2,0.6h1.9v7.1l0,0l0,0c0,0,0,0,0,0.1l0,0c0,0,0,0,0,0.1c0,0.1,0,0.3-0.1,0.5c0,0.1-0.1,0.3-0.2,0.5
		c-0.1,0.1-0.2,0.2-0.2,0.5c-0.1,0.1-0.2,0.2-0.3,0.3h3.6C86.3,149.9,86.2,149.8,86.1,149.7L86.1,149.7z"/>
	<path d="M97.2,140.2c-0.3-0.5-0.8-0.8-1.4-1c-0.6-0.2-1.1-0.3-1.9-0.3l0,0l0,0l0,0l0,0l0,0l0,0l0,0l0,0c-0.5,0-1,0.1-1.5,0.3
		c-0.5,0.2-0.9,0.5-1.4,0.8c-0.5,0.3-0.7,0.7-0.9,1.2c-0.2,0.5-0.3,1-0.3,1.7c0,0.6,0.1,1,0.2,1.5c0.2,0.5,0.5,0.8,0.8,1.1
		c0.3,0.3,0.7,0.6,1.1,0.7c0.3,0.2,0.8,0.2,1.2,0.3l0,0l0,0l0,0l0,0l0,0l0,0c0.1,0,0.1,0,0.2,0c0.1,0,0.1,0,0.2,0c0,0,0.1,0,0.2,0
		c0.1,0,0.1,0,0.2,0c0.1,0,0.2-0.1,0.3-0.1c0.1,0,0.2-0.1,0.3-0.2l1-1.5c-0.2,0.1-0.3,0.2-0.6,0.3c-0.2,0.1-0.3,0.1-0.6,0.2
		c-0.1,0-0.3,0.1-0.5,0.1c-0.1,0-0.3,0-0.5,0c-0.3,0-0.6,0-0.9-0.1c-0.2-0.1-0.5-0.2-0.7-0.5c-0.2-0.2-0.3-0.5-0.5-0.7
		c-0.1-0.2-0.2-0.5-0.3-0.7c0,0,0-0.1,0-0.2s0-0.1,0-0.2c0,0,0-0.1,0-0.2s0-0.1,0-0.2v-0.1v-0.1c0,0,0-0.1,0-0.2c0-0.1,0-0.1,0-0.2
		c0.1-0.2,0.1-0.5,0.3-0.7c0.1-0.2,0.3-0.5,0.5-0.6c0.2-0.2,0.5-0.3,0.7-0.5c0.2-0.1,0.5-0.1,0.8-0.1c0.5,0,0.9,0.1,1.2,0.3
		c0.3,0.2,0.7,0.5,0.9,0.9c0.2,0.3,0.5,0.8,0.6,1.2c0.1,0.5,0.2,0.9,0.2,1.4c0,0.6-0.1,1.1-0.2,1.6c-0.1,0.5-0.3,0.9-0.7,1.2
		c-0.2,0.3-0.6,0.7-0.9,1c-0.3,0.3-0.7,0.6-1,0.8c-0.2,0.1-0.5,0.2-0.6,0.3c-0.2,0.1-0.5,0.2-0.6,0.3c-0.2,0.1-0.3,0.1-0.6,0.2
		c-0.1,0-0.2,0.1-0.2,0.1s-0.1,0-0.2,0l-0.9,1c0.9,0,1.9-0.2,2.7-0.6c0.9-0.3,1.7-0.8,2.5-1.5c0.8-0.7,1.4-1.4,1.8-2.2
		c0.5-0.8,0.7-1.8,0.7-2.8c0,0,0,0,0-0.1c0,0,0,0,0-0.1c0,0,0,0,0-0.1c0,0,0,0,0-0.1l0,0l0,0l0,0c0-0.6-0.1-1-0.3-1.5
		C97.9,141.1,97.6,140.6,97.2,140.2L97.2,140.2z"/>
	<path d="M107.9,143.8c-0.3-0.3-0.7-0.6-1.1-0.7c-0.3-0.1-0.8-0.2-1.2-0.3l0,0l0,0l0,0l0,0c0,0,0,0-0.1,0c0,0,0,0-0.1,0
		c-0.1,0-0.2,0-0.3,0c-0.1,0-0.2,0-0.3,0.1c-0.1,0-0.2,0-0.3,0.1c-0.1,0-0.2,0.1-0.3,0.1l-1.2,1.5c0.2-0.1,0.3-0.1,0.6-0.2
		c0.2-0.1,0.3-0.1,0.6-0.1c0.1,0,0.3-0.1,0.5-0.1c0.1,0,0.3,0,0.5,0c0.3,0,0.7,0.1,1,0.2c0.3,0.1,0.6,0.3,0.8,0.6
		c0.2,0.2,0.3,0.5,0.5,0.7c0.1,0.2,0.2,0.6,0.2,0.8v0.1c0,0,0,0,0,0.1l0,0l0,0l0,0l0,0l0,0c0,0,0,0,0,0.1l0,0c0,0,0,0,0,0.1l0,0
		c0,0,0,0,0,0.1l0,0c0,0,0,0,0,0.1c-0.1,0.5-0.1,0.8-0.3,1.1c-0.1,0.3-0.3,0.6-0.5,0.8c-0.2,0.2-0.5,0.3-0.7,0.5
		c-0.3,0.1-0.7,0.1-1,0.1c-0.5,0-0.8-0.1-1.1-0.2c-0.3-0.2-0.6-0.5-0.9-0.8c-0.2-0.3-0.5-0.8-0.6-1.2c-0.1-0.5-0.2-0.9-0.2-1.4v-0.1
		v-0.1c0,0,0-0.1,0-0.2c0-0.1,0-0.1,0-0.2v-0.1V145v-0.1v-0.1v-0.1v-0.1c0,0,0-0.1,0.1-0.1v-0.1c0.1-0.3,0.2-0.6,0.5-0.9
		c0.1-0.2,0.3-0.6,0.6-0.8c0.2-0.2,0.5-0.5,0.7-0.7c0.2-0.2,0.5-0.3,0.7-0.6c0.2-0.1,0.5-0.3,0.7-0.5c0.2-0.1,0.5-0.2,0.6-0.3
		c0.2-0.1,0.3-0.1,0.6-0.2c0.1,0,0.3-0.1,0.5-0.1l0.9-1.1c-0.2,0-0.5,0-0.7,0.1c-0.2,0-0.5,0.1-0.7,0.1c-0.1,0-0.2,0.1-0.3,0.1
		c-0.1,0-0.2,0.1-0.3,0.1c-0.1,0-0.2,0.1-0.3,0.1c-0.1,0-0.2,0.1-0.3,0.1c-0.6,0.2-1.1,0.6-1.7,0.9s-1,0.8-1.6,1.4
		c-0.5,0.5-0.9,1.1-1.1,1.7c-0.2,0.7-0.5,1.4-0.5,2.3l0,0c0,0.1,0,0.2,0,0.5c0,0.1,0,0.3,0.1,0.6c0,0.2,0.1,0.3,0.1,0.6
		c0.1,0.2,0.1,0.3,0.2,0.6c0.1,0.3,0.3,0.6,0.6,0.9c0.2,0.3,0.6,0.6,0.8,0.8c0.3,0.2,0.7,0.5,1.1,0.6s1,0.2,1.6,0.2
		c0.7,0,1.2-0.1,1.8-0.3c0.5-0.2,0.9-0.5,1.2-0.8c0.3-0.3,0.6-0.8,0.8-1.1c0.2-0.5,0.2-0.8,0.3-1.2l0,0l0,0l0,0l0,0c0,0,0,0,0-0.1
		V147c0-0.6-0.1-1.1-0.2-1.6C108.5,144.5,108.2,144.1,107.9,143.8L107.9,143.8z"/>
	<path d="M114.8,149.7c0-0.1-0.1-0.1-0.1-0.2s0-0.1,0-0.2l0,0l0,0c0,0,0,0,0-0.1l0,0V149v-0.1c0,0,0,0,0-0.1c0,0,0,0,0-0.1
		c0,0,0,0,0-0.1c0,0,0,0,0-0.1l0,0l0,0l0,0l0,0v-0.1v-0.1l4-9.3h-7.3l-0.8,2.2c0.3-0.2,0.6-0.3,0.9-0.5c0.3-0.1,0.6-0.2,0.9-0.2
		c0.3-0.1,0.6-0.1,0.8-0.1s0.6,0,0.8,0c0.1,0,0.3,0,0.5,0c0.1,0,0.2,0,0.5,0c0.1,0,0.2,0,0.3,0c0.1,0,0.2,0,0.3,0.1
		c0.1,0,0.1,0,0.2,0s0.1,0,0.1,0h0.1h0.1L112,150h3c-0.1,0-0.1-0.1-0.2-0.1C114.8,149.8,114.8,149.8,114.8,149.7L114.8,149.7z"/>
	<path class="st0" d="M137.8,32.7L137.8,32.7c-0.3-1.5-1.2-2.7-2.7-3.6c-1.6-0.9-3.1-1.1-4.5-0.6c-1.5,0.5-2.7,1.6-3.7,3.4
		c-1,1.7-1.4,3.4-1,4.9c0.3,1.5,1.2,2.7,2.7,3.6c1.6,0.9,3.1,1.1,4.5,0.6c1.5-0.5,2.7-1.6,3.7-3.4C137.8,35.9,138.2,34.2,137.8,32.7
		L137.8,32.7z M135.3,34.4c-0.1,0.6-0.5,1.2-0.8,1.9c-0.3,0.7-0.8,1.1-1.1,1.6c-0.5,0.5-0.8,0.7-1.4,0.9c-0.5,0.2-0.9,0.2-1.2,0.2
		c-0.5,0-0.8-0.1-1.1-0.3c-0.3-0.2-0.7-0.5-0.9-0.8c-0.2-0.3-0.3-0.8-0.5-1.2c-0.1-0.5,0-1,0.1-1.6c0.1-0.6,0.5-1.2,0.8-1.9
		c0.3-0.7,0.8-1.2,1.2-1.7c0.5-0.5,0.9-0.7,1.2-0.9c0.5-0.2,0.9-0.2,1.2-0.2c0.3,0,0.8,0.1,1.1,0.3c0.3,0.2,0.7,0.5,0.9,0.8
		c0.2,0.3,0.3,0.8,0.5,1.2c0,0.1,0,0.2,0,0.5C135.5,33.6,135.3,34,135.3,34.4L135.3,34.4z"/>
	<path class="st0" d="M149.9,42.2c-0.1-0.6-0.3-1.1-0.8-1.7c-0.3-0.6-0.9-1.1-1.6-1.8c0,0-2.6-2.4-3-2.7c-0.2,0.3-8.2,9-8.5,9.3
		c0.2,0.2,2.8,2.6,2.8,2.6c0.7,0.6,1.2,1.1,1.9,1.4c0.6,0.3,1.2,0.6,1.8,0.7c0.9,0.1,1.8,0,2.7-0.3c1-0.3,1.8-1,2.6-1.8
		c0.8-0.9,1.4-1.8,1.7-2.8c0.1-0.6,0.2-1,0.2-1.6C150,43,150,42.7,149.9,42.2L149.9,42.2z M147.4,44.1c-0.2,0.7-0.6,1.4-1.2,1.9
		c-0.6,0.7-1.2,1.1-1.8,1.4s-1.2,0.3-1.9,0.2l0,0c-0.3-0.1-0.7-0.2-1-0.3c-0.3-0.2-0.7-0.5-1.2-1l-0.7-0.7l5.6-6.1l0.1-0.1l0.7,0.7
		c0.5,0.5,0.8,0.8,1,1c0.2,0.2,0.3,0.6,0.5,0.9C147.6,42.7,147.6,43.4,147.4,44.1L147.4,44.1z"/>
	<path d="M153.8,130c-17,18-34.6,26.8-53.8,26.8S63.4,148,46.3,130l-0.1-0.2l-0.2,0.1c-1.6,0.8-7.1,4.1-9.3,11.1l0,0
		c-1.5,5.3-7.7,9.6-9.5,10.8l-0.2,0.2l0.2,0.2c1.5,2.2,7,9.5,17,16.9c10.9,8.1,29.5,17.6,56.1,17.6s45.2-9.5,56.1-17.6
		c10-7.4,15.5-14.8,17-16.9l0.2-0.2l-0.2-0.2c-1.8-1.1-8.1-5.4-9.5-10.8c-2.2-7.1-7.6-10.3-9.3-11.2l-0.2-0.1L153.8,130L153.8,130z"
		/>
	<path d="M44.7,156.7c-0.2,0-1,0.5-1.2,0.7c-0.1,0.1-0.2,0.2-0.2,0.3c0,0.1,0,0.2,0.1,0.2l8.6,6.6l3.2-1.7l-1.4-0.2l-0.7-0.1
		l-0.7-0.2l-0.6-0.3c-1.4-0.8-2.7-2-4.3-3.6l-0.7-0.7C46.2,157.1,45.5,156.4,44.7,156.7L44.7,156.7z"/>
	<path class="st0" d="M44.8,157.1c0.7-0.2,1.2,0.3,1.6,0.8l0.7,0.7c1.6,1.7,3.1,2.8,4.4,3.7l0.7,0.3l0.7,0.2l0.8,0.2h0.1
		c-0.7,0.3-1.6,0.9-1.8,0.9c-0.2-0.1-8.1-6.1-8.3-6.4C44,157.4,44.7,157.2,44.8,157.1L44.8,157.1z"/>
	<path d="M53,147.7l-3,1.8l1.5,0.1l0.8,0.2l0.8,0.3c1.5,0.7,2.6,1.7,3.4,2.6c0.5,0.5,0.8,0.8,1.2,1.4l0.1,0.2c0.3,0.3,0.6,0.8,1.1,1
		c0.5,0.1,0.9,0.1,1.2-0.1c0.6-0.3,0.8-0.8,0.8-1.1c0-0.3-0.2-0.5-0.3-0.6l0,0l-7.6-5.8L53,147.7L53,147.7z"/>
	<path class="st0" d="M53.1,148.1c0.2,0.2,7.4,5.7,7.4,5.7l0,0c0,0,0.1,0.1,0.1,0.2l0,0c0,0.1-0.1,0.3-0.6,0.8
		c-0.2,0.1-0.6,0.2-0.9,0.1c-0.3-0.1-0.7-0.6-0.9-0.9l-0.1-0.2c-0.3-0.5-0.8-0.9-1.2-1.4c-0.9-0.9-2-1.9-3.5-2.7l-0.8-0.3l-0.9-0.2
		c0,0,0,0-0.1,0C51.9,148.8,52.9,148.2,53.1,148.1L53.1,148.1z"/>
	<path d="M64.7,169.9C64.7,169.9,64.7,170,64.7,169.9l-0.1,0.2l-0.1,0.1l-0.2,0.1l-0.2,0.1h-0.3l-0.1,0.5l4.5,2.3l-0.5-0.7v-0.1l0,0
		l0,0l-0.1-0.2l0,0l-0.1-0.2l0,0l-0.1-0.2l0,0l-0.1-0.3L67,171v-0.5V170l0.8-12.8l-3.6-1.7l0.3,0.6l0.1,0.2l0.1,0.2v0.2l-0.1,0.2
		v0.1l-0.1,0.1l-0.1,0.1l0,0l0,0l-7.8,7.1l0,0l-0.3,0.3l-0.5,0.3l-0.6,0.2l-0.7,0.2h-0.1h-0.1h-0.1l-0.1,0.3l3.6,1.8l0.2-0.3l0,0
		v-0.1l0,0l-0.1-0.1l0,0v-0.1l-0.1-0.2v-0.1v-0.1l0.1-0.2v-0.1l0,0l0.1-0.1l0.1-0.1c0,0,2.4-2.3,2.6-2.5c0.2,0.1,4,1.9,4.2,2.2
		c0,0.2-0.3,3.4-0.3,3.4V169v0.1v0.1v0.2l0,0c0,0,0,0,0,0.1v0.1C64.7,169.8,64.7,169.9,64.7,169.9L64.7,169.9z M62.2,162.3
		c0.3-0.3,2.7-2.5,3.3-3.1c-0.1,0.8-0.3,4.1-0.5,4.5C64.7,163.5,62.6,162.5,62.2,162.3L62.2,162.3z"/>
	<path d="M72.7,160.2l0.1,0.1l0,0l0,0l0.1,0.1c0,0,0,0,0.1,0l0,0l0.1,0.2l0.1,0.5c0,0.1,0,0.3,0,0.6l-0.1,0.8l-2.4,9l-0.3,0.6
		l-0.2,0.3l-0.3,0.2l-0.3,0.1l-0.1,0.1h-0.1h-0.1h-0.1l-0.8,0.2l0.8,0.2c0,0,3.3,0.9,3.6,1l0,0h0.1l0,0l0,0l0.1-0.3l0,0l0,0l0,0l0,0
		c0-0.1-0.3-0.5-0.3-0.5l-0.2-0.5v-0.5l0.1-0.7c0,0,1.8-6.7,2-7.7c0.5,1,4.7,11.1,4.7,11.1v0.1v0.1l0,0l0,0l0.1,0.1l0.1,0.1l0.1,0.2
		l0.2,0.2l0.2,0.2l0.2,0.2l0.2,0.2l0.2,0.2l0.2,0.1l0.2,0.1l0.2,0.1v-0.2l3.2-11.7l0.3-0.7c0.1-0.2,0.2-0.3,0.2-0.3l0.2-0.2l0.3-0.1
		h0.1h0.1l0,0H86l0.8-0.3l-0.6-0.1l-4-1l-0.1,0.3c0.1,0.1,0.2,0.2,0.3,0.3c0.1,0.1,0.2,0.3,0.2,0.5c0,0.2,0.1,0.3,0.1,0.6
		c0,0,0,0,0,0.1c0,0.2,0,0.5-0.1,0.8c0,0-1.7,6.4-2,7.4c-0.5-1-5.1-11.8-5.1-11.8l-3.1-0.8L72.7,160.2L72.7,160.2z"/>
	<path class="st0" d="M73.8,162c0-0.1,0-0.1,0-0.2c0-0.2,0-0.3,0-0.5l-0.1-0.5c0,0-0.1-0.1-0.1-0.2c0.1,0,1.9,0.6,2.2,0.6
		c0.1,0.2,5.4,12.7,5.4,12.7l2.3-8.5c0.1-0.3,0.1-0.6,0.1-0.9v-0.1c0-0.2,0-0.5-0.1-0.7c-0.1-0.2-0.1-0.3-0.2-0.5
		c0.8,0.2,1.8,0.5,2.5,0.7c-0.1,0-0.2,0.1-0.2,0.1l-0.3,0.2c-0.1,0.1-0.2,0.2-0.3,0.5l-0.3,0.8c0,0-3,11-3.1,11.5l-0.2-0.1l-0.2-0.2
		l-0.2-0.2l-0.2-0.2l-0.2-0.2l-0.1-0.2l-0.1-0.2l-0.1-0.1v-0.1v-0.1l-0.1-0.1l-5.1-12.1l-2.4,8.8l-0.1,0.8v0.7l0.2,0.6l0,0
		c-0.7-0.2-1.7-0.5-2.5-0.7c0.1,0,0.2-0.1,0.2-0.1l0.3-0.2l0.3-0.5l0.3-0.7l0,0l2.4-9l0,0L73.8,162L73.8,162z"/>
	<path d="M100.3,168.5c-0.3-0.9-0.8-1.7-1.6-2.4c-0.7-0.7-1.5-1.2-2.4-1.6c-0.9-0.3-1.9-0.6-3-0.7c-1.1-0.1-2,0-3,0.1
		c-0.9,0.2-1.6,0.6-2.3,1c-0.6,0.5-1.1,1-1.6,1.6c-0.5,0.6-0.8,1.1-1,1.8l-0.1,0.3l-0.1,0.3l-0.1,0.3l-0.1,0.3l-0.1,0.6l-0.1,0.6
		l0,0c0,0,0,0,0,0.1c0,1,0.1,1.9,0.5,2.7c0.3,0.9,0.8,1.7,1.4,2.4c0.6,0.8,1.5,1.4,2.4,1.7c0.9,0.5,2,0.7,3.4,0.8
		c1,0.1,1.9,0,2.7-0.2c0.8-0.2,1.6-0.6,2.2-1.1c0.7-0.5,1.1-1,1.6-1.6s0.8-1.2,1-1.9l0.2-0.6l0.1-0.6v-0.2v-0.2v-0.2v-0.2
		C100.7,170.5,100.6,169.4,100.3,168.5L100.3,168.5z M97.9,171.5v0.3c0,0.7-0.2,1.2-0.5,1.8c-0.2,0.6-0.7,1.1-1.1,1.6
		c-0.5,0.5-1,0.8-1.6,1c-0.6,0.2-1.2,0.2-1.9,0.2s-1.2-0.2-1.8-0.6s-1.1-0.7-1.6-1.2c-0.5-0.6-0.8-1.1-1-1.8
		c-0.2-0.7-0.3-1.4-0.2-2.2v-0.2c0.1-0.8,0.2-1.6,0.5-2.2c0.2-0.6,0.7-1,1.1-1.5c0.5-0.3,0.9-0.7,1.5-0.9c0.5-0.2,1-0.3,1.6-0.3H93
		h-0.1h0.3c0.7,0,1.4,0.2,1.9,0.6c0.6,0.3,1,0.8,1.5,1.2c0.5,0.6,0.7,1.1,0.9,1.7c0.2,0.6,0.3,1.2,0.3,1.8
		C97.9,171.3,97.9,171.5,97.9,171.5v-0.2V171.5L97.9,171.5L97.9,171.5z"/>
	<path d="M110.4,163.9v0.5c0.1,0,0.2,0.1,0.3,0.2l0.3,0.3l0.2,0.5l0.1,0.5v0.1v0.2c0,0,0,0,0,0.1l0,0c0,0,0.2,2.7,0.3,3.1
		c-0.3,0-6.6,0.6-7,0.7c0-0.3-0.2-2.8-0.2-2.8v-0.8l0.1-0.7l0.2-0.5l0.7-0.8h-0.6l-4.4,0.5l0.8,0.6l0.2,0.3l0.2,0.3l0.1,0.5l0,0
		l0.1,0.2l0,0l0.9,9.5v0.6l-0.1,0.6c0,0.1-0.1,0.3-0.2,0.5c-0.1,0.1-0.2,0.2-0.3,0.2l0.1,0.5l4.8-0.5l-0.7-0.3
		c-0.1-0.1-0.2-0.1-0.3-0.2l-0.3-0.3l-0.2-0.5l-0.1-0.6c0,0-0.3-4-0.5-4.3c0.3,0,6.6-0.6,7-0.7c0,0.3,0.5,4.7,0.5,4.7l0,0v0.1v-0.1
		v0.1v0.1v0.3l-0.1,0.3l-0.2,0.2l-0.3,0.2l0.1,0.5l4.1-0.3l0,0V177l0,0l0,0l0,0l0,0l-0.5-0.2l-0.2-0.3l-0.1-0.5l-0.1-0.7l-0.9-9.3
		v-0.6l0.1-0.5l0.1-0.3l0.1-0.2l0.3-0.3V164l0.1-0.3h-0.3L110.4,163.9L110.4,163.9z"/>
	<path class="st0" d="M114.2,163.9l-0.1,0.1l-0.2,0.3l-0.1,0.3l-0.1,0.6v0.7l0.9,9.3l0.1,0.7l0.2,0.6l0.3,0.5l0,0
		c-0.8,0.1-1.9,0.2-2.7,0.2c0.1-0.1,0.1-0.2,0.1-0.2l0.1-0.5l0.1-0.5v-0.1l0,0l0,0v-0.1c0,0,0,0,0,0.1v-0.1l-0.5-5l-7.8,0.7l0.5,4.8
		l0.1,0.7l0.2,0.6l0.3,0.5l0,0c-0.7,0.1-2,0.2-2.8,0.2c0.1-0.1,0.2-0.3,0.2-0.5l0.1-0.7v-0.7l-0.8-9.1l0,0v-0.6v-0.1l0,0v-0.1
		l-0.1-0.5l-0.2-0.5l-0.3-0.5l0,0c0.7-0.1,2.2-0.2,2.8-0.3l0,0l-0.2,0.6l-0.1,0.7v0.8l0.3,3.2l7.8-0.7l-0.3-3.5l0,0v-0.1
		c0,0,0,0,0-0.1l0,0l-0.2-0.6l-0.2-0.5c0,0-0.2-0.2-0.3-0.3C112,164.1,113.7,163.9,114.2,163.9L114.2,163.9z"/>
	<path d="M139.8,169.2C139.8,169.2,139.8,169.1,139.8,169.2h-0.1l0,0l-0.2-0.1l0,0l-0.2-0.1l0,0l-0.2-0.1l0,0l-0.3-0.1l-0.3-0.2
		l-0.3-0.2l-0.3-0.3l-8.8-9.2h-0.1l-3.6,1.5l0.9,0.2l0.2,0.1l0.1,0.1l0.1,0.2v0.1v0.1v0.2l0,0l0,0V172l0,0v0.5l-0.1,0.6l-0.2,0.6
		l-0.3,0.7l0,0l0,0l-0.1,0.1v0.1l-0.1,0.1l0.2,0.3l3.7-1.5l-0.1-0.3h0.1h-0.1l0,0h-0.1l0,0l-0.1-0.1l-0.2-0.1l-0.1-0.1l-0.1-0.1
		l-0.1-0.1v-0.1l0,0v-0.2V172c0,0-0.1-3.3-0.1-3.6c0.2-0.1,4.2-1.6,4.4-1.7c0.2,0.2,2.3,2.5,2.3,2.5v-0.1l0.1,0.1l0.1,0.1l0.1,0.1
		l0.1,0.1c0,0,0,0,0.1,0.1v0.1l0.1,0.1l0.1,0.1l0.1,0.1v0.2v0.2l-0.1,0.2l-0.2,0.2l0.2,0.3l4.8-1.8L139.8,169.2L139.8,169.2z
		 M128.5,166.4c0-0.5,0-3.7,0-4.5c0.6,0.6,2.7,3,3.1,3.3C131.1,165.4,129,166.3,128.5,166.4L128.5,166.4z"/>
	<path d="M141.7,165.1l-0.6,0.2c-0.2,0.1-0.3,0.2-0.5,0.3l-0.3,0.5c-0.1,0.2-0.1,0.5-0.1,0.6c0,0.2,0.1,0.5,0.2,0.7l0.1,0.1l0,0
		c0.1,0.2,0.2,0.3,0.5,0.5c0.1,0.1,0.3,0.2,0.6,0.2h0.6l0.6-0.2l0.5-0.3l0.3-0.5c0.1-0.2,0.1-0.5,0.1-0.7s-0.1-0.5-0.2-0.7
		c-0.1-0.2-0.2-0.3-0.5-0.6c-0.1-0.1-0.3-0.2-0.6-0.2C142.2,165.1,141.9,165.1,141.7,165.1L141.7,165.1z"/>
	<path class="st0" d="M141,165.9c0.1-0.1,0.2-0.2,0.3-0.2l0.5-0.1c0.1,0,0.3,0,0.5,0s0.2,0.1,0.3,0.1c0.1,0.1,0.2,0.2,0.3,0.3
		c0.1,0.1,0.1,0.3,0.1,0.5v0.1c0,0.1,0,0.2-0.1,0.3l-0.2,0.3l-0.3,0.3l-0.3,0.1h-0.5c-0.1,0-0.2-0.1-0.3-0.1
		c-0.1-0.1-0.2-0.2-0.3-0.3l0,0l0,0c-0.1-0.1-0.1-0.3-0.1-0.5v-0.1c0-0.1,0-0.2,0.1-0.3C140.8,166.4,141,165.9,141,165.9L141,165.9z
		"/>
	<path d="M155.5,155.3c-0.1-0.7-0.2-1.5-0.5-2l-0.2-0.6l-0.2-0.5l-0.1-0.2l-0.1-0.2l-0.1-0.2l-0.1-0.2c-0.7-0.9-1.5-1.6-2.4-2
		c-0.8-0.5-1.7-0.7-2.7-0.8c-0.9-0.1-1.9,0.1-2.8,0.3c-0.9,0.3-1.8,0.8-2.7,1.5c-0.9,0.7-1.6,1.4-2,2c-0.6,0.7-0.8,1.5-1,2.3
		c-0.1,0.6-0.2,1.2-0.2,1.8c0,0.1,0,0.3,0,0.5c0,0.7,0.2,1.4,0.5,2l0.1,0.3l0.1,0.3l0.1,0.3l0.1,0.3l0.3,0.6l0.3,0.5l0,0
		c0.7,0.8,1.4,1.4,2.2,1.8c0.8,0.5,1.7,0.8,2.6,0.9c0.9,0.1,1.9,0,3-0.3c1-0.3,2-0.9,3.1-1.7c0.8-0.6,1.5-1.2,1.9-1.9
		c0.5-0.7,0.8-1.5,0.9-2.3C155.5,156.8,155.5,156.1,155.5,155.3L155.5,155.3z M152.7,158.8c-0.3,0.6-0.7,1-1.2,1.5s-1.1,0.7-1.7,0.8
		c-0.6,0.1-1.2,0.2-2,0.1c-0.7-0.1-1.4-0.3-1.9-0.7c-0.6-0.3-1.1-0.8-1.6-1.5l-0.2-0.2c-0.5-0.7-0.8-1.2-1-1.9
		c-0.1-0.5-0.2-0.8-0.2-1.2c0-0.2,0-0.5,0-0.6c0.1-0.6,0.2-1.1,0.5-1.7c0.2-0.5,0.6-0.9,0.9-1.2l0.1-0.1v0.1l0.2-0.1l0,0
		c0.6-0.5,1.2-0.8,1.8-0.9c0.6-0.1,1.2-0.1,1.9,0c0.7,0.1,1.4,0.3,1.8,0.7c0.6,0.3,1,0.7,1.5,1.1l0.2,0.1h-0.1l0.1,0.1h0.1l0.2,0.3
		c0.3,0.6,0.7,1,0.8,1.7c0.2,0.6,0.2,1.2,0.2,1.9C153.2,157.6,152.9,158.3,152.7,158.8L152.7,158.8z"/>
	<path class="st0" d="M155.1,155.4c-0.1-0.7-0.2-1.4-0.5-1.9l-0.2-0.5l-0.2-0.5l-0.1-0.2l-0.1-0.2l-0.2-0.5
		c-0.7-0.8-1.5-1.5-2.2-1.9c-0.8-0.5-1.6-0.7-2.6-0.7c-0.9,0-1.8,0.1-2.7,0.3c-0.9,0.3-1.7,0.8-2.5,1.4c-0.8,0.7-1.5,1.2-2,1.9
		c-0.5,0.7-0.8,1.4-0.9,2.2c-0.1,0.7-0.2,1.5-0.1,2.2c0,0.7,0.1,1.2,0.3,1.9l0.1,0.2l0.1,0.3l0.1,0.2l0.1,0.2l0.3,0.5
		c0,0,0.2,0.5,0.3,0.5c0.7,0.7,1.4,1.2,2,1.7c0.8,0.5,1.6,0.7,2.5,0.8c0.9,0.1,1.8,0,2.7-0.2c0.9-0.3,1.9-0.8,2.8-1.6
		c0.8-0.6,1.4-1.2,1.8-1.8c0.5-0.7,0.7-1.4,0.8-2.2C155.1,156.7,155.2,156.1,155.1,155.4L155.1,155.4z M153.5,157.1
		c0,0.7-0.2,1.4-0.6,1.9c-0.3,0.6-0.8,1.1-1.4,1.6c-0.6,0.5-1.2,0.8-1.8,0.9c-0.7,0.2-1.4,0.2-2.2,0.1c-0.8-0.1-1.5-0.3-2.2-0.7
		c-0.7-0.3-1.2-0.9-1.7-1.6c0,0-0.1-0.2-0.2-0.2c-0.6-0.7-0.9-1.4-1.1-2c-0.1-0.5-0.2-0.9-0.2-1.4c0-0.2,0-0.5,0-0.7
		c0.1-0.7,0.2-1.2,0.6-1.8c0.2-0.6,0.6-1,1-1.4l0,0v-0.1l0.2-0.2c0.7-0.5,1.2-0.8,1.9-0.9c0.7-0.1,1.4-0.1,2.2,0
		c0.7,0.1,1.4,0.5,1.9,0.7c0.6,0.3,1.1,0.8,1.6,1.2l0,0l0,0c0,0,0,0.1,0.1,0.1c0,0,0,0,0.1,0l0.2,0.3c0.5,0.6,0.7,1.1,0.9,1.8
		c0.1,0.6,0.2,1.1,0.2,1.8C153.6,156.8,153.6,157,153.5,157.1L153.5,157.1z"/>
	<path d="M159.7,151.4c-0.2,0-0.3,0.1-0.6,0.2l-0.5,0.3c-0.1,0.1-0.2,0.3-0.3,0.5l-0.1,0.6c0,0.2,0,0.5,0.1,0.6
		c0.1,0.2,0.2,0.3,0.3,0.6l0.1,0.1l0,0c0.2,0.1,0.3,0.2,0.6,0.2c0.2,0,0.3,0.1,0.6,0l0.6-0.2l0.5-0.3l0.3-0.5l0.2-0.5
		c0-0.2,0-0.5-0.1-0.7c-0.1-0.2-0.2-0.3-0.5-0.6c-0.2-0.1-0.3-0.3-0.6-0.3C160.1,151.4,160,151.4,159.7,151.4L159.7,151.4z"/>
	<path class="st0" d="M158.7,152.6c0-0.1,0.1-0.2,0.2-0.3l0.3-0.2c0.1-0.1,0.2-0.1,0.5-0.1c0.1,0,0.3,0,0.5,0c0.1,0,0.2,0.1,0.5,0.2
		c0.1,0.1,0.2,0.2,0.3,0.5c0,0.1,0.1,0.2,0.1,0.3v0.1l-0.1,0.5l-0.2,0.3l-0.3,0.2l-0.5,0.2c-0.1,0-0.2,0-0.3,0
		c-0.1,0-0.2-0.1-0.5-0.2l-0.1-0.1c-0.1-0.1-0.2-0.2-0.3-0.5c0-0.1-0.1-0.2-0.1-0.3c0,0,0,0,0-0.1L158.7,152.6L158.7,152.6z"/>
	<path d="M90.6,169.4c-1.5,0.1-1.8,1.2-2.2,2.2l-0.1,0.3l0.3-0.1c1.2-0.5,2.5-0.2,3.7,0c0.8,0.1,1.6,0.2,2.5,0.2
		c1.5-0.1,1.8-1.2,2.2-2.2l0.1-0.3l-0.3,0.1c-1.2,0.5-2.5,0.2-3.7,0C92.2,169.6,91.4,169.4,90.6,169.4L90.6,169.4z"/>
	<path class="st0" d="M90.6,169.9c0.8,0,1.6,0.1,2.4,0.2c1.1,0.2,2.4,0.3,3.6,0c-0.3,0.9-0.7,1.5-1.7,1.5c-0.8,0-1.6-0.1-2.4-0.2
		c-1.1-0.2-2.4-0.3-3.6,0C89.3,170.5,89.6,169.9,90.6,169.9L90.6,169.9z"/>
	<path d="M48.4,153.9l-0.3,0.2l0.3,0.1c1.2,0.3,2.3,1.2,3.2,2c0.6,0.6,1.2,1.1,1.9,1.6c1.4,0.8,2.2,0.1,3-0.6l0.3-0.2l-0.3-0.1
		c-1.2-0.3-2.3-1.2-3.2-2c-0.6-0.6-1.2-1.1-1.9-1.6C50.1,152.5,49.2,153.2,48.4,153.9L48.4,153.9z"/>
	<path class="st0" d="M51.3,153.7c0.7,0.3,1.2,0.9,1.8,1.5c0.9,0.8,1.8,1.6,3,2c-0.8,0.6-1.4,0.8-2.3,0.3c-0.7-0.3-1.2-0.9-1.8-1.5
		c-0.9-0.8-1.8-1.6-3-2C49.8,153.4,50.4,153.1,51.3,153.7L51.3,153.7z"/>
	<path class="st0" d="M67,172L67,172l-0.1-0.5l-0.1-0.3l-0.1-0.5v-0.6c0,0,0.8-12.3,0.8-12.5c-0.2-0.1-1.6-0.8-2.3-1.1l0,0v0.3
		l-0.1,0.3l-0.1,0.1l-0.1,0.1l-0.1,0.1l-0.2,0.1h0.1l-7.9,7.1l-0.3,0.3l-0.5,0.3l-0.7,0.3c0,0-0.3,0.1-0.6,0.1
		c0.7,0.3,1.9,0.9,2.5,1.2c0-0.1-0.1-0.2-0.1-0.2v-0.2v-0.2c0,0,0.1-0.2,0.1-0.3l0,0l0.1-0.1l0.1-0.1c0,0,0.1-0.1,0.1-0.2l2.8-2.7
		l4.8,2.4l-0.3,3.6v0.1v0.1v0.1v0.1v0.1l0,0v0.1l0,0c0,0,0,0,0,0.1v0.2l-0.1,0.2l-0.2,0.2l-0.2,0.2h-0.1c0.8,0.3,2.2,1,2.8,1.4
		C67.2,172.2,67.2,172.2,67,172L67,172L67,172z M65.5,164.3l-4.1-2l4.2-3.9l0.5-0.3L65.5,164.3L65.5,164.3z"/>
	<path class="st0" d="M99.9,168.8c-0.3-0.8-0.8-1.6-1.5-2.3c-0.7-0.7-1.4-1.1-2.3-1.5c-0.8-0.3-1.8-0.6-2.8-0.7
		c-1-0.1-1.9,0-2.8,0.1c-0.8,0.2-1.5,0.5-2,0.9s-1.1,0.9-1.5,1.5c-0.5,0.6-0.8,1.1-1,1.7l-0.1,0.2l-0.1,0.3l-0.1,0.3l-0.1,0.3
		l-0.1,0.6c0,0-0.1,0.5-0.1,0.6c0,0.9,0.1,1.8,0.5,2.7c0.3,0.8,0.7,1.6,1.4,2.3c0.6,0.7,1.4,1.2,2.3,1.6c0.9,0.3,2,0.7,3.2,0.7
		c0.9,0.1,1.8,0,2.6-0.2c0.8-0.2,1.5-0.6,2-1c0.6-0.5,1.1-1,1.5-1.6c0.5-0.6,0.8-1.1,1-1.8l0.2-0.5l0.1-0.5v-0.2v-0.2v-0.2v-0.2
		c0-0.1,0-0.2,0-0.3C100.3,170.3,100.2,169.4,99.9,168.8L99.9,168.8z M98.2,171.9c0,0.7-0.2,1.4-0.5,1.9c-0.2,0.6-0.7,1.1-1.1,1.7
		c-0.5,0.6-1,0.9-1.7,1.1c-0.7,0.2-1.4,0.3-2,0.2c-0.7,0-1.4-0.2-2-0.6c-0.6-0.3-1.1-0.8-1.7-1.4c-0.6-0.6-0.9-1.2-1.1-1.9
		c-0.2-0.7-0.3-1.5-0.2-2.4v-0.3c0.1-0.8,0.2-1.6,0.6-2.3s0.7-1.1,1.2-1.6c0.5-0.5,1-0.7,1.6-0.9c0.6-0.2,1.1-0.3,1.7-0.3l0,0H93
		h0.3c0.8,0.1,1.5,0.2,2.2,0.6c0.6,0.3,1.1,0.8,1.6,1.4c0.5,0.6,0.8,1.2,1,1.8c0.2,0.7,0.3,1.4,0.3,2l0,0l0,0v0.1c0,0,0,0,0,0.1
		C98.4,171.5,98.2,171.9,98.2,171.9L98.2,171.9z"/>
	<path class="st0" d="M136.4,170.6c0.8-0.3,2.3-0.9,3-1.1l0,0h-0.1l0,0l-0.5-0.2l-0.3-0.2l-0.3-0.2l-0.5-0.3c0,0-8.5-8.8-8.7-9
		c-0.2,0.1-1.7,0.7-2.4,0.9l0,0l0.3,0.2l0.2,0.3v0.1v0.1v0.1v0.2v-0.1V172v0.6l-0.1,0.6l-0.2,0.7c0,0-0.1,0.2-0.2,0.5
		c0.7-0.2,1.9-0.8,2.6-1c-0.1,0-0.2-0.1-0.2-0.1l-0.2-0.1l-0.1-0.2l-0.1-0.2v-0.1v-0.2v-0.1v-0.2l-0.1-4l5-1.9l2.5,2.7v0.1l0.1,0.1
		l0.1,0.1l0.1,0.1l0,0l0.1,0.1l0,0c0,0,0,0,0,0.1l0.1,0.2l0.1,0.2l0.1,0.3v0.3C136.4,170.3,136.4,170.5,136.4,170.6L136.4,170.6z
		 M128.2,167.1v-5.7v-0.6l4.2,4.7L128.2,167.1L128.2,167.1z"/>
	<path class="st0" d="M1.6,106.4c0-14.6,11.9-26.4,26.4-26.4c14.6,0,26.4,11.9,26.4,26.4c0,14.6-11.9,26.4-26.4,26.4
		C13.5,132.8,1.6,121,1.6,106.4L1.6,106.4z"/>
	<path d="M28.1,80.9c-14.1,0-25.4,11.3-25.4,25.4s11.3,25.4,25.4,25.4s25.4-11.3,25.4-25.4S42.1,80.9,28.1,80.9L28.1,80.9z"/>
	<path class="st0" d="M28.1,91.2c-8.4,0-15.3,6.8-15.3,15.3c0,8.4,6.8,15.3,15.3,15.3s15.3-6.8,15.3-15.3
		C43.3,98,36.5,91.2,28.1,91.2L28.1,91.2z"/>
	<path class="st0" d="M28,82.8c-1.1,0-1.9,0.3-2.5,0.9c-0.6,0.7-0.9,1.5-0.9,2.6c0,1,0.3,1.9,0.9,2.6c0.6,0.7,1.5,0.9,2.5,0.9
		c1.1,0,1.9-0.3,2.5-0.9c0.6-0.7,0.9-1.5,0.9-2.6c0-1.1-0.3-1.9-0.9-2.6C29.9,83,29,82.8,28,82.8L28,82.8z M29.6,87.2
		c-0.1,0.2-0.2,0.6-0.3,0.7c-0.1,0.2-0.3,0.3-0.6,0.5c-0.2,0.1-0.5,0.1-0.7,0.1c-0.2,0-0.5,0-0.7-0.1c-0.2-0.1-0.3-0.2-0.6-0.3
		c-0.1-0.2-0.2-0.5-0.3-0.7c-0.1-0.2-0.1-0.6-0.1-1c0-0.3,0-0.7,0.1-1s0.2-0.6,0.3-0.7c0.1-0.2,0.3-0.3,0.6-0.3
		c0.2-0.1,0.5-0.1,0.6-0.1c0.2,0,0.5,0,0.7,0.1c0.2,0.1,0.3,0.2,0.6,0.3c0.1,0.2,0.2,0.5,0.3,0.7s0.1,0.7,0.1,1
		C29.7,86.6,29.6,87,29.6,87.2L29.6,87.2z"/>
	<path class="st0" d="M42.2,89.4c0-0.6-0.1-1-0.3-1.6c-0.1-0.3-0.3-0.6-0.7-0.9c-0.3-0.3-0.7-0.6-1.1-0.9l-2-1.2l-3.5,5.7l2,1.2
		c0.5,0.2,0.9,0.5,1.2,0.7c0.3,0.1,0.8,0.2,1.1,0.2c0.6,0,1-0.1,1.5-0.3c0.5-0.2,0.9-0.7,1.2-1.2C42,90.5,42.1,89.9,42.2,89.4
		L42.2,89.4z M40,90.1c-0.2,0.3-0.5,0.7-0.8,0.8c-0.3,0.2-0.6,0.2-1,0.2c-0.2,0-0.5,0-0.6-0.1c-0.2-0.1-0.5-0.2-0.8-0.5l-0.3-0.2
		l2.2-3.5l0.3,0.2c0.3,0.2,0.6,0.3,0.7,0.5s0.2,0.2,0.3,0.5c0.2,0.3,0.3,0.7,0.2,1C40.4,89.3,40.3,89.7,40,90.1L40,90.1z"/>
	<path class="st0" d="M48.7,94.9l-7.1,0.8l0.8,1.6l1.5-0.2l1.1,2.2l-1,1l0.8,1.6l4.9-5.2L48.7,94.9L48.7,94.9z M45.7,98.3l-0.8-1.5
		l2.5-0.3L45.7,98.3L45.7,98.3z"/>
	<path class="st0" d="M14.7,125.2l1,0.6l0.7-0.7l1.5,0.8l-0.2,0.9l1,0.6l0.8-4.9l-1.1-0.7L14.7,125.2L14.7,125.2z M18.1,125.1
		l-1-0.6l1.2-1.1L18.1,125.1L18.1,125.1z"/>
	<path class="st0" d="M25.5,127.5c0,0.3-0.1,0.6-0.3,0.7c-0.1,0.1-0.3,0.1-0.7,0.1c-0.3,0-0.5-0.1-0.6-0.3c-0.1-0.2-0.1-0.5-0.1-0.7
		l0.5-2.8l-1.1-0.2l-0.5,2.8c-0.1,0.6,0,1,0.3,1.4c0.3,0.3,0.8,0.6,1.5,0.7c0.7,0.1,1.1,0,1.6-0.2c0.3-0.2,0.7-0.7,0.7-1.2l0.5-2.8
		l-1.1-0.2L25.5,127.5L25.5,127.5z"/>
	<polygon class="st0" points="33.2,124.1 29.3,124.7 29.4,125.6 30.8,125.4 31.4,129 32.7,128.8 32,125.2 33.3,125 	"/>
	<path class="st0" d="M40.3,123.1c-0.3-0.7-0.8-1-1.4-1.2c-0.6-0.1-1.1-0.1-1.8,0.3c-0.7,0.3-1,0.8-1.1,1.4c-0.1,0.6,0,1.1,0.3,1.8
		c0.3,0.7,0.8,1,1.4,1.2c0.6,0.1,1.1,0.1,1.8-0.3c0.7-0.3,1-0.8,1.1-1.5C40.8,124.4,40.7,123.8,40.3,123.1L40.3,123.1z M39.6,125
		c0,0.1-0.1,0.3-0.2,0.5c-0.1,0.1-0.2,0.2-0.3,0.3c-0.1,0.1-0.2,0.1-0.5,0.1c-0.1,0-0.3,0-0.5,0c-0.1,0-0.3-0.1-0.5-0.3
		c-0.1-0.1-0.3-0.3-0.5-0.6c-0.1-0.2-0.2-0.5-0.2-0.7s0-0.3,0-0.6c0-0.1,0.1-0.3,0.2-0.5c0.1-0.1,0.2-0.2,0.3-0.2
		c0.1-0.1,0.2-0.1,0.5-0.1c0.1,0,0.3,0,0.5,0c0.1,0,0.3,0.1,0.5,0.2c0.1,0.1,0.3,0.3,0.5,0.6c0.1,0.2,0.2,0.5,0.2,0.6
		C39.6,124.6,39.6,124.7,39.6,125L39.6,125z"/>
	<path class="st22" d="M36.1,111.3c-0.5,0-0.5,0.1-0.5,0.3c0,0,0,0.3,0.1,0.5c0.1,0.2,0,0.3-0.1,0.5c-0.1,0.1-0.9,0.1-1.1-0.3
		c-0.1-0.3,0.2-1.8,0.2-1.8s3.7-8.8-4-17.1c0,0-1.1-1.4-3.2-1.1c-2,0.2-3.1,0.1-3.3,1c-0.1,0.5,0.6,0.9,0.6,0.9s2.2,2,3,3.2
		c0.2,0.6-0.1,0.8-0.1,0.8s-0.2,0.2-0.6-0.1c-1.7-1.7-2.8-3.5-4.4-4.1c0,0-0.7-0.2-1.4,0.1c-0.7,0.3-1.5,0.8-2.4,1.6
		c-0.9,0.8-1.7,1.9-1.8,2.2c-0.1,0.3-0.2,0.5,0.1,0.8c0.1,0.1,1.1,0.5,1.1,0.5s1.4,0.5,2.7,1.4c0.8,0.5,0.7,0.9,0.7,0.9
		s-0.1,0.6-0.7,0.2s-1.5-0.9-1.5-0.9s-1.5-1-3-0.9c-0.9,0.1-1.2,0.8-1.2,0.8s-1.2,2.2-1.1,3.7c0,0,0,0.7,0.5,0.9
		c0.5,0.2,1.4,0.2,2,0.2c0.6,0,1.6-0.1,2.6,0.6c0,0,4.1,2,4.1,6.5c0,0,0.1,0.3-0.2,0.3c-0.2,0.1-1,0-2-0.7c0,0-1.9-1-5.7-0.3
		c0,0-0.5,0-0.2,0.5c0,0,0.2,0.5,0.8,0.9c0.6,0.5,1,1,1.1,1.4c0,0,0.2,0.5,0.2,0.6c0,0.1,0.3,0.9,0.6,1.1c0,0,0.1,0.1,0.3,0.2
		c0.3,0.1,1.4,0.1,1.6,0c0,0,0.2,0,0.3-0.1c0,0,0.8-0.8,1-1c0.2-0.2,0.1-0.2,0.9-0.2h13.3c0.1,0.1,0.2,0.2,0.1,0.5
		c-0.1,0.2-0.1,0.5-0.1,0.5c0,0.2,0,0.3,0.5,0.3c2.2,0,4.5-2.5,4.5-2.5S38.2,111.3,36.1,111.3L36.1,111.3z M30.5,111.8
		c-1.1,0-2.2-0.9-2.2-2.2s0.9-2.2,2.2-2.2c1.1,0,2.2,0.9,2.2,2.2S31.6,111.8,30.5,111.8L30.5,111.8z"/>
	<polygon class="st0" points="22.3,90.2 18,88.5 18.7,84.6 16.9,85.6 16.5,89.4 14.8,86.8 13.4,87.7 17,93.5 18.5,92.6 16.7,89.8 
		20.5,91.3 	"/>
	<path class="st0" d="M12.9,95.3c-0.5-0.2-0.8-0.3-1.1-0.2c-0.3,0-0.7,0.2-1,0.6c-0.2,0.1-0.3,0.3-0.5,0.5c-0.1,0.1-0.2,0.3-0.5,0.5
		c-0.2,0.2-0.6,0.3-0.9,0.2c-0.1,0-0.2-0.1-0.2-0.2c0-0.1-0.1-0.2-0.1-0.3c0-0.1,0-0.2,0.1-0.3c0-0.1,0.1-0.2,0.1-0.3
		c0.1-0.3,0.5-0.6,0.7-0.7c0.1-0.1,0.2-0.1,0.3-0.2c0.1,0,0.3-0.1,0.3-0.1l0.1-0.1l-1.4-0.7c-0.2,0.2-0.5,0.5-0.7,0.7
		C8,94.8,7.8,95,7.6,95.3c-0.3,0.7-0.5,1.4-0.3,1.9c0.1,0.6,0.5,1,1,1.4c0.5,0.2,0.8,0.3,1.1,0.2c0.3,0,0.8-0.2,1.1-0.6
		c0.3-0.2,0.6-0.6,0.9-0.9c0.1-0.1,0.3-0.2,0.5-0.3c0.1,0,0.2,0,0.5,0c0.1,0.1,0.2,0.1,0.2,0.2c0,0.1,0,0.2,0,0.3
		c0,0.1,0,0.2-0.1,0.3c0,0.1,0,0.1,0,0.1c-0.1,0.3-0.5,0.6-0.7,0.9c-0.3,0.2-0.7,0.5-1,0.6l-0.1,0.1l1.5,0.8
		c0.2-0.2,0.6-0.5,0.8-0.7c0.2-0.2,0.5-0.6,0.7-1c0.3-0.7,0.5-1.4,0.3-2C13.9,96,13.5,95.6,12.9,95.3L12.9,95.3z"/>
	<path class="st0" d="M7.6,95.1c0.1-0.1,0.1-0.2,0.2-0.5l-0.6-1l-0.3,0.7l0.3,0.6L6.6,95l-0.3,0.7l1.1-0.2
		C7.4,95.5,7.5,95.2,7.6,95.1L7.6,95.1z"/>
	<path class="st0" d="M145.6,106.4c0-14.6,11.9-26.4,26.4-26.4c14.6,0,26.4,11.9,26.4,26.4c0,14.6-11.9,26.4-26.4,26.4
		C157.5,132.8,145.6,121,145.6,106.4L145.6,106.4z"/>
	<path class="st23" d="M183.9,95.8c0,0,0,0.2,0.2,0.3c0.2,0.1,0.1,0.2,0.2,0.2c0.1,0,0.3-0.2,0.3-0.3c0-0.1,0.1-0.5,0.1-0.5
		c0.1-0.1,0.2-0.2,0-0.5c-0.1-0.2,0.1-0.2,0.2-0.3c0.1-0.1,0.3-0.3,0.3-0.3s0.3-0.3,0.1-0.8c0-0.1-0.5-0.2-0.5-0.2l-0.2-0.1
		l-0.1-0.1h-0.2c0,0-0.2,0,0.1-0.7c0.1-0.2,0.3-0.1,0.3-0.1s0.3,0,0.3-0.1s0.5-0.1,0.5,0c0.1,0.1,0.2-0.1,0.2-0.1
		c0-0.1,0.1-0.3,0-0.3c-0.1-0.1-0.3-0.1-0.5-0.3c-0.1-0.2-0.5-0.3-0.5-0.5c0-0.1-0.2-0.3-0.2-0.5s-0.1-0.9,0-1.4
		c0.1-0.5,0.2-0.6,0.1-0.7c-0.1-0.1-0.2-0.2-0.5-0.3c-0.2,0-0.5-0.1-0.5-0.1c0-0.1-0.3-0.2-0.5-0.2c0,0,0-0.3,0.2-0.3
		c0.2-0.1,0.6-0.5,0.3-0.5c-0.1-0.1-0.3,0-0.5-0.1c-0.1-0.1-0.3-0.2-0.3-0.2s-0.3-0.3-0.1-0.5c0.2-0.1,0.3-0.1,0.5,0
		c0.1,0.1,0.1,0,0.2-0.1c0.1-0.1,0.3,0.1,0.3,0.2c0,0.1,0,0.3,0,0.6s0.2,0.2,0.2,0.2c0.1-0.1,0.3,0,0.3,0.1c0,0.1,0,0.3,0.2,0.3
		c0.1,0,0.5,0.1,0.6,0c0-0.1-0.1-0.3-0.2-0.3c-0.1-0.1-0.2-0.3-0.2-0.5c0-0.1-0.1-0.6-0.2-0.6s-0.2-0.7-0.1-0.7
		c0.1-0.1,0.2-0.3-0.3-0.3c-0.5,0-0.5,0.1-0.6,0.1c-0.1,0-0.7,0-0.9,0c-0.1,0-0.2,0.2-0.3,0.3c-0.1,0.1-0.3,0.1-0.5,0.1
		c-0.1,0.1-0.3,0.2-0.3,0.3c0,0.1-0.1,0.2-0.1,0.1c-0.1-0.1-0.3-0.1-0.3-0.3c0-0.2,0-0.5-0.1-0.5c-0.1-0.1-0.1-0.5,0-0.6l0.2-0.3
		l-0.5,0.3h-0.2h-0.2c0,0-0.2-0.1-0.2-0.2c0-0.1,0-0.2,0.1-0.3l0.2-0.2c0,0,0.2,0,0.2-0.1c0-0.1,0-0.2,0-0.2s0-0.1-0.1-0.2
		c-0.1,0-0.2-0.1-0.2-0.1s-0.9-0.5-1.1-0.7c-0.2-0.2,0.3,1.1-1.1,1.2c-0.5,0.1,0.2,0.3,0.2,0.3s0.3,0.1,0.2,0.3
		c0,0.2-0.1,0.3-0.2,0.3c-0.1,0.1-0.6,0.5-0.6,0.7c-0.1,0.2-0.3,0-0.3,0s-0.1-0.1-0.2-0.1c-0.1,0-0.3,0-0.5,0c0,0-0.1,0.1-0.2,0.1
		s-0.2-0.1-0.2-0.1s-0.1,0-0.2,0.1c0,0-0.2,0-0.2-0.1c-0.1-0.1-0.1-0.1-0.2-0.2c-0.1,0-0.2-0.1-0.3-0.2c-0.1-0.1,0-0.2,0-0.3
		c-0.1-0.1-0.1-0.3-0.1-0.3s0.1-0.1-0.1-0.2c-0.2-0.1-0.6,0.1-0.7,0c-0.1-0.1-0.5-0.5-0.6-0.5s-0.5,0.1-0.5,0.2
		c-0.1,0.1-0.2,0.2-0.5,0.3c-0.2,0.1-0.2,0.1-0.3,0.2c-0.1,0.2-0.5,0.5-0.6,0.7s-0.2,0.5-0.2,0.7c0,0.2-0.1,0.5,0,0.7
		c0,0.1,0.3,0.3,0.3,0.3s0.3,0.1,0.3,0.2c0,0.1,0.2,0.1,0.2,0.1s0.1,0,0.1,0.1c0,0.1,0.3,0.2,0.5,0.2s0.2-0.1,0.3-0.1
		c0.1,0,0.2,0.1,0.2,0.2c0,0.1,0.1,0.2,0.1,0.1c0.1,0,0.3,0,0.3-0.1c0,0,0.3,0,0.5,0.1c0.1,0.1,0.5,0.2,0.6,0.2s0.3-0.1,0.3-0.1
		c0-0.1,0.2-0.2,0.3-0.2c0,0,0.1,0,0.2,0.5c0.1,0.3,0.8,1.2,1.1,1.5c0.5,0.1,0.6,0.1,0.6,0.1h0.5c0,0,0.6,0.1,0.2-0.3
		c-0.3-0.3-0.6-0.2-0.6-0.6c0-0.3,0.1-0.3,0.1-0.5v-0.2c-0.1,0-0.2-0.1-0.2-0.1S178,88,177.9,88c-0.1,0-0.3,0.1-0.3,0.1
		s0-0.2-0.1-0.2c-0.1,0-0.1-0.1-0.2-0.1s-0.2,0.1-0.2,0.1l-0.1-0.1c0,0,0-0.2-0.1-0.2c0,0-0.1-0.1,0-0.2c0.1-0.1,0.2-0.1,0.2-0.2
		c0,0,0.1-0.2,0.1-0.3c0,0-0.1-0.5,0-0.5c0.1,0.1,0.2,0.3,0.2,0.5c0.1,0.1,0.1,0.2,0.2,0.2c0.1,0,0.1,0.1,0.1,0.1h0.1
		c0,0,0.1,0.1,0.2,0.1s0.1,0,0.1,0.1c0,0.1,0,0.2,0,0.2s0,0.1,0.1,0.1c0.1,0,0.2,0,0.3,0c0,0,0.1-0.1,0.2-0.2c0-0.1,0.1-0.1,0.2-0.1
		s0.2,0,0.2,0s0.1,0,0.2,0.1l0.2,0.1c0,0.1,0,0.1,0.1,0.1s0.1,0.1,0.1,0.1h0.1c0,0.1,0,0.1-0.1,0.2c-0.1,0-0.1,0.1-0.1,0.2
		c0,0.1-0.1,0.1-0.1,0.2c0,0.1,0,0.1,0,0.1c0.1,0,0.1,0.1,0.2,0.1s0.3,0,0.3-0.1c0.1-0.1,0.2-0.2,0.2-0.2s0.1-0.1,0.1,0.1
		s-0.2,0.1-0.1,0.3c0.1,0.1,0.2,0.1,0.2,0.2c0.1,0,0.5,0,0.3,0.1c-0.1,0.1-0.3,0.3-0.2,0.5c0.1,0.1,0.2,0.2,0.3,0.2
		c0.1,0,0.3,0.2,0.5,0.2c0,0,0.2,0.1,0.3,0.1c0.1,0,0.3,0.1,0.3,0.1s0.1,1.2,0,1.2c-0.1,0.1-0.2,0.1-0.1,0.2c0.1,0,0.6-0.3,0.6-0.3
		l0.3-0.3c0-0.1,0.1-0.6,0.2-0.5c0.1,0.1,0.1,0.3,0.1,0.5c0,0.1,0,0.2,0.1,0.5c0.1,0.2,0.1,0.2,0.2,0.3c0,0.1,0.2,0.3-0.1,0.5
		c-0.3,0.1-0.3,0.1-0.3,0.1H183h-0.3c0,0-0.1,0.1,0.1,0.3c0,0,0.5,0.7-0.1,0.7s-0.5,0.1-0.6,0c-0.1-0.1-0.2-0.3-0.5-0.2
		c-0.1,0.1-0.1,0.1,0,0.5c0.1,0.3,0.1,0.5,0.2,0.6c0.1,0.1,0.2,0.2,0.1,0.3c0,0.1,0.1,0.3,0.3,0.3c0.1,0.1,0,0.7-0.1,0.8
		c-0.1,0.1-0.3,0.8-0.5,1.1c-0.1,0.3,0,0.6-0.1,0.6c-0.1,0-0.5,0.1-0.7,0.3c-0.2,0.2-0.8,1-0.9,1c-0.1,0-0.5-0.1-0.5-0.1
		s-0.1-0.1-0.3-0.1c-0.1,0-0.6-0.1-0.7,0c0,0-1.5,1.1-1.9,1c-0.6-0.1-1.1-0.9-1.2-1c-0.1-0.1-1-0.1-1.2-0.6
		c-0.2-0.3-0.3-0.3-0.3-0.5c0-0.2,0.2-0.5,0.2-0.7c0-0.2-0.5-1.1-0.6-1.2c-0.1-0.1,0-0.2,0-0.3c0,0,0.1-0.1,0.1-0.2
		c0-0.2,0.3-0.1,0.5,0c0.1,0,0.5,0.1,0.5,0.1c0.1,0,0.2,0.2,0.3,0.1c0.1,0,0.6,0,0.7,0c0.1,0.1,0.3,0.2,0.5,0.2
		c0.1,0,0.6-0.1,0.7-0.1s0.5-0.1,0.7-0.1c0.1,0,0.6,0,0.6-0.1c0.1-0.1,0.2-0.2,0.2-0.2c0.1,0,0.2,0,0.2-0.2s-0.1-0.3-0.1-0.5
		c0-0.1,0-0.1-0.3,0c-0.3,0.1-0.5,0.1-0.5,0.2c-0.1,0.1-0.3,0.1-0.5,0.1s-0.6,0-0.6,0s-0.2,0-0.3,0.1c-0.1,0.1-0.6,0.1-0.8,0
		c-0.1-0.1-0.5-0.2-0.7-0.2c-0.2,0-0.5,0.1-0.7,0c-0.2,0-0.6-0.1-0.7-0.1c-0.1-0.1-0.5-0.2-0.6-0.2c-0.1,0-0.5-0.3,0.2-0.9
		c0,0,0.2-0.2,0.2-0.3c0-0.1-0.2-0.1-0.3-0.3c-0.1-0.2-0.2-0.5-0.1-0.6c0-0.1,0.1-0.3-0.1-0.2c-0.2,0.1-0.2,0.3-0.5,0.2
		c-0.1,0-0.5-0.1-0.5-0.1c-0.1-0.1-0.2-0.2-0.2-0.2s-0.1-0.1-0.2-0.2c0,0-0.1-0.2,0.1-0.3c0.2-0.1,0.3-0.1,0.3-0.2
		c0-0.2-0.1-0.3-0.1-0.5c0-0.1,0-0.6,0-0.7c-0.1-0.1-0.1-0.5,0-0.5c0.1,0,0.3-0.1,0.5,0c0.1,0,0.3,0.1,0.3,0.1s0.1,0,0.1,0.2
		s-0.1,0.6,0.1,0.7c0.2,0.1,0.2,0.1,0.3,0.1c0.1,0,0.5,0.1,0.5,0c0.1-0.1,0.2-0.1,0.2-0.1s0.1-0.1,0.2,0c0.1,0,0.3,0,0.3,0
		s0.1-0.2,0.1-0.1c0.1,0.1,0.3,0.1,0.5,0.1c0.1,0.1,0.6,0.3,0.8,0.2c0.2-0.2-0.1-0.3-0.2-0.5c-0.1-0.1-0.9-0.7-1-0.9
		c-0.1-0.2-0.1-0.5-0.3-0.6c-0.2-0.1-0.6-0.2-0.7-0.2c-0.1,0-0.3,0-0.6-0.1c-0.1-0.1-0.3-0.1-0.5-0.1c-0.1,0-0.3,0.2-0.3,0.2
		c0,0.1-0.2,0.2-0.3,0.2c-0.1,0-0.2,0-0.3,0c0,0-0.1,0.1-0.3,0.1c-0.2,0-0.3-0.2-0.5-0.2c0,0-0.3-0.3-0.5-0.5c-0.1,0-0.5,0-0.3-0.2
		c0.1-0.2,0.2-0.3,0.2-0.5c0.1-0.1,0.3-0.5,0.3-0.6c0.1-0.1,0.1-0.2,0.3-0.2c0.1,0,0.2,0,0.5-0.1c0.2-0.1,0.2-1.7,0.2-1.8
		c0-0.1-0.2-0.8-1.1-0.8c-0.1,0-0.2,0.1-0.3,0.2c-0.1,0-0.2,0-0.3,0.1c-0.1,0.1-0.1,0.3-0.2,0.2c-0.1,0-0.5-0.1-0.6-0.1
		c-0.1,0.1-0.5,0-0.6,0c-0.1,0-0.1-0.2-0.3-0.2c-0.2,0-0.2,0-0.2-0.2c0-0.1,0.1-0.3,0-0.3c-0.1,0-0.3,0.1-0.3,0.1
		c0,0.1-0.2,0.2-0.2,0.1c-0.1,0-0.2,0.1-0.1,0.3c0.1,0.2,0.3,0.5,0.3,0.5c0,0.1,0.1,0.2,0.1,0.3c0,0.1,0.1,0.2,0.2,0.2
		c0.1,0,0.1,0,0.2,0.1c0.1,0.1,0.3,0.1,0.2,0.2c-0.1,0.1-0.2,0.2-0.3,0.2c-0.1,0.1-0.2,0.2-0.1,0.3c0.1,0.1,0.3,0.1,0.2,0.2
		c-0.1,0-0.3,0.1-0.5,0c-0.1,0-0.2,0-0.3,0c-0.1,0.1-0.5,0.1-0.7,0c-0.2-0.1-0.3-0.6-0.5-0.6c-0.1-0.1-0.3-0.5-0.5-0.6l-0.3-0.5
		c-0.1,0-0.7,0.6-0.9,0.6c-0.2,0-0.5-0.5-0.6-0.6c-0.1,0-0.7-0.1-0.8,0c-0.1,0.1-0.1,0.2-0.2,0.3c-0.1,0.1,0.1,0.1-0.1,0.2
		c-0.1,0-0.2,0-0.3,0.2c-0.1,0.2-0.6,0.7-0.6,0.9c0,0.2,0.2,0.8,0.5,0.9c0.1,0.1,0.2,0.8,0.2,0.9c0,0.1,0.1,0.7,0.3,0.6
		c0.1-0.1,0.3-0.2,0.5-0.1c0.1,0.1,0.7,1.1,0.7,1.2c0,0.1-0.1,0.3-0.1,0.3s-0.1,0-0.1,0.1c0,0.1-0.2,0-0.3-0.1
		c-0.1-0.1-0.1-0.2-0.2-0.2c0,0-0.2-0.1-0.3-0.2c0,0-0.6-0.1-0.7-0.1s-0.1-0.3-0.2-0.5c-0.1-0.1-0.3-0.3-0.5-0.3
		c-0.1,0-0.1-0.3-0.1-0.5c0-0.1,0.2-0.3,0.1-0.5c-0.1-0.1-0.1-0.2-0.1-0.3c0,0-0.2-0.2-0.1-0.3c0-0.1,0.1-0.6,0-0.6
		s-0.3,0.1-0.5,0.3c-0.1,0.2-0.2,0.2-0.3,0.2c-0.1,0-0.6,0-0.6,0.1c0,0.1-0.1,0.3-0.1,0.5c0,0.1,0.1,0.3,0,0.3
		c-0.1,0.1-0.1,0.1-0.3,0c-0.1-0.1-0.3-0.1-0.6,0.1c-0.1,0.1-0.2,0.2-0.3,0.1c-0.1-0.1-0.2-0.1-0.3-0.1c-0.1,0-0.1,0-0.2-0.1
		c-0.1-0.1-0.2-0.6-0.3-0.5c-0.1,0.1-0.2,0.2-0.2,0.3c0,0.1,0,0.3,0,0.5c0,0.1,0,0.2-0.1,0.3c0,0.1-0.1,0.1-0.1,0.3
		c0.1,0.2,0.1,0.3,0,0.5c-0.1,0.2-0.2,0.2-0.2,0.3c0,0.1,0,0.2,0,0.3c0,0.1,0,0.2-0.1,0.3c-0.1,0.1-0.1,0.3-0.2,0.5
		c0,0-0.1,0.1-0.1,0.2c0,0.1,0,0.1-0.1,0.2c-0.1,0.1-0.2,0.2-0.2,0.6c0,0.2-0.2,0.2-0.2,0.3c0,0.1,0.3,0.3,0.3,0.3
		c0.1,0,0.2,0,0.2,0.2s0,0.3,0.1,0.3c0.1,0,0.2,0.1,0.3,0c0.1-0.1,0.2-0.3,0.3-0.1c0,0.1,0,0.3,0,0.5c0,0.1,0.1,0.5,0,0.6
		c-0.1,0-0.2,0-0.2-0.2c0-0.1,0-0.3-0.2-0.3c-0.1,0-0.3,0-0.3-0.1c-0.1,0-0.3-0.2-0.5-0.2c-0.2,0-0.2,0-0.3,0.1
		c-0.1,0.1-0.2,0.1-0.2,0.1c-0.1,0-0.1,0.1-0.1,0.2c0,0.1,0.6,1,0.6,1.4c0,0.3,0,0.7-0.1,0.8c-0.1,0.2-0.1,0.1-0.1,0.3
		c-0.1,0.1-0.1,0.1-0.1,0.2c0,0.1,0,0.5,0,0.6c0,0.1,0.2,0.5,0,0.7c-0.2,0.2,0,0.3,0,0.5c0,0.1,0.1,0.6,0.1,0.6s0.2,0.3,0.3,0.2
		c0.1-0.1,0.5,0,0.5,0.1c0,0.1,0.1,0.5-0.1,0.8c-0.2,0.5-0.1,0.3-0.1,0.6c0,0.1,0.2,0.3,0.2,0.5c0.1,0.1,0.1,0.3,0.1,0.5
		c0,0.1,0.2,0.2,0.2,0.3c0,0.1,0,0.2,0.1,0.3c0.1,0.1,0.1,0.1,0.2,0.3c0.1,0.1,0.2,0.2,0.5,0.3c0.2,0.1,0.6,0,0.6,0.2s0,0.3,0,0.3
		c0,0.1,0.1,0.2,0.1,0.3c0.1,0.1,0.1,0.2,0.1,0.5c0,0.1,0,0.3,0.1,0.5c0.1,0.1,0.1,0.3,0.1,0.3s0,0,0,0.1c0.1,0.1,0.1-0.1,0.1,0.2
		c0,0.3-0.1,0.6,0,0.7c0.1,0.1,0.6,0.6,0.6,0.8s-0.2,0.6,0,0.7c0.1,0.1,0.1,0.1,0.2,0.2c0.1,0.1,0.5,0.2,0.6,0.2
		c0.1,0,0.5,0,0.7,0.2c0.2,0.1,0.9,0.8,0.9,1c0,0.2-0.1,0.1-0.1,0.2c-0.1,0.1-0.1,0.5-0.1,0.6c0.1,0.1,0.3,0.2,0.3,0.2
		s0.2,0.2,0.2,0.3c0,0.1,0.1,0.2,0.1,0.3c0,0.1-0.1,0.1-0.2,0.1c-0.1,0-0.2,0-0.2,0.1c0,0.1-0.1,0.5,0,0.6c0.1,0.1,0.1,0.5,0.2,0.5
		c0.1,0.1,0.1,0.5,0,0.6c-0.1,0.1-0.3,0.2-0.5,0.2s-0.5,0.2-0.5,0.3c-0.1,0.1-0.3,0.2-0.5,0.3c-0.1,0-1.5,1.4-1.6,1.5
		c-0.1,0.1-0.5,0.3-0.6,0.5c-0.1,0.1-0.5,0.3-0.6,0.3c-0.1,0.1-0.3,0.3-0.5,0.5c-0.1,0.1-1.1,1.2-1.2,1.5c-0.1,0.1-0.3,0.2-0.3,0.2
		c-0.1,0-1.2,1.7-1.5,1.9c-0.1,0.2-0.3,0.7-0.3,0.8c0,0.1,0.3,0.1,0.2,0.3c0,0.2-0.1,0.5-0.1,0.6c0,0.1,0.2,0.2,0.3,0.3
		c0,0.1,0.1,0.2,0.2,0.2c0.1,0.1,0.8,0.7,0.9,0.9c0.1,0.2,0.9,0.1,1,0c0.1-0.1,0.5-0.2,0.5-0.1c0.1,0.1,0.5,0.1,0.6,0.1
		s0.2-0.1,0.2-0.1c0.1,0,0.2,0.1,0.5,0.3c0.1,0.1,0.3,0,0.3,0.1c0.1,0,0.1,0.1,0.2,0.2c0.1,0.1,0.5,0.2,0.6,0.1c0.1,0,0.2,0,0.3,0.1
		c0.1,0.1,0.2,0.3,0.3,0.2l0.5-0.2c0.1,0,0.7,0,0.8,0.1c0.1,0.1,0.1,0.1,0.1,0.1s0.3,0.1,0.3,0.3c0,0.2-0.1,0.3,0,0.3
		c0,0-0.1,0.5-0.2,0.6c-0.1,0.1-0.1,0.3,0.1,0.5c0.1,0.1,0.6,0.8,0.6,1.1s0.6,2.3,0.7,2.4s0.3,0.2,0.7,0.1c0.2-0.1,0.6-0.2,0.7-0.2
		c0.1,0,0.7-0.3,0.8-0.3c0.1,0,0.8-0.3,0.9-0.2c0.1,0.1,0.1,0.3,0.1,0.5c0.1,0,0.2,0.1,0.2,0.2s0.2,0.3,0.7-0.1
		c0.5-0.3,0.5,0.1,0.6,0.1s0.6,0.3,0.6,0.3s0.2,0.1,0.3,0c0.1,0,0.2,0,0.3,0c0,0.1,0.1,0.1,0.1,0.1s0.1,0.2,0.1-0.3
		c0-0.7,0.3-0.5,0.5-0.5c0,0,0.3-0.1,0.3-0.2s0.2-0.2,0.2-0.2s0.1-0.9,0-1.1s-0.1-0.5,0-0.5c0.1-0.1,0.2-0.3,0.2-0.5s0-0.2,0.2-0.1
		c0.2,0.1,0.1,0.1,0.3,0.2c0.2,0.1,0.1,0.2,0.2,0.3c0.1,0.1,0,0.1,0.2,0.2c0.2,0.1,0.6,0.2,0.6,0.3c0,0.1,0.6,0.8,0.7,0.9
		c0.1,0.1,0,0.5,0.1,0.6c0.1,0.1,0.5-0.1,0.6-0.1c0,0,0.1,0.1,0.2,0.2c0.1,0.1,0.2,0.3,0.2,0.3c0,0.1,0.7,0.2,1,0.2
		c0.3-0.1,0.5-0.1,0.5-0.2s0.5-0.1,0.6-0.1c0.1,0,0.2,0,0.3,0.1c0,0.1,0.1,0.2,0.2,0.2c0.1,0,0.3-0.1,0.3-0.1c0.1,0,0.8,0,0.9,0
		c0,0,0.2-0.1,0.2-0.2c0,0,0.8-0.1,0.9,0c0.1,0.1,0.6,0.2,0.7,0.2s0.3,0.1,0.6,0c0.2-0.1,1-0.5,1-0.5l0.3-0.1h0.3c0,0,0.6,0,0.7-0.1
		c0.1-0.1,0.6-0.2,0.7-0.2s0.9-0.3,1.1-1.5c0.2-1.1,0.3-0.9,0.3-1c0-0.1,0.3-0.7,0.3-0.8c0.1-0.1,0.1-0.7,0.3-0.9
		c0.2-0.2,0.5-0.6,0.6-0.7c0.2-0.1,1-1.4,1-1.5c0-0.1,0.1-0.5,0.2-0.6c0.1-0.1,0.3-1.1,0.6-1.4c0.2-0.3,0.2-1.6,0.5-1.6
		c0.2,0,0.7,1.2,0.7,1.9c0,0.7,0,0.6-0.1,0.7c-0.1,0.2,0.2,0.5,0.3,0.5c0.1,0,0.3,0,0.3,0s0.2-0.2,0.3-0.2c0.1,0,0.3,0.1,0.5,0
		c0.1-0.1,0-0.2,0.1-0.3c0-0.1,0-0.2,0.1-0.3c0.1-0.1,0.2-0.3,0.1-0.5c0-0.1,0-0.1-0.1-0.3c-0.2-0.2-0.2-0.1-0.2-0.5s0-0.6-0.1-0.7
		c-0.2-0.1-0.3-0.3-0.6-0.5c-0.1,0-0.7,0-0.9-0.1c-0.2-0.1-0.8-0.3-0.8-0.3c-0.1,0-0.7-0.5-0.8-0.6c-0.1-0.1-0.2-0.5-0.3-0.5
		c-0.1,0-0.8-1.1-0.9-1.1c-0.1-0.1-0.1-0.2-0.2-0.2s-0.1-0.2,0-0.3c0-0.1-0.2-0.1-0.3-0.2c-0.1,0-0.7-0.8-0.7-0.8
		c0-0.1,0-0.2-0.1-0.2c-0.1-0.1-0.1-0.1,0-0.2c0,0-0.5-0.3-0.8,0.1c-0.3,0.5-0.2,1.1-0.3,1.2c-0.1,0.1-0.1,0.1-0.1,0.2
		c-0.1,0.1-0.1,0.1-0.1,0.2s-0.5,0.1-0.6-0.2c-0.1-0.3,0-0.3-0.1-0.3c-0.1,0-0.3-0.3-0.1-0.9c0.1-0.6,0-0.3,0.3-0.6
		c0.2-0.2,0.1-0.5,0.2-0.6c0.1-0.1,0.2-0.3,0.2-0.3s-0.2-0.1-0.3,0c-0.1,0-0.2,0.3-0.1-0.3c0.1-0.7,0.2-0.9,0.3-1.4
		c0.1-0.6,0.2-0.7,0.2-0.8c0-0.1,0-0.8,0-1.1c0.1-0.2,0.1-0.3,0.1-0.5c0-0.2-0.1-0.7,0-0.9c0.1-0.2,0.1-0.6,0-0.7
		c0-0.1-0.2-0.2-0.2-0.5c0-0.1,0-0.5,0-0.5c0.1-0.1,0.1-0.2,0.1-0.2s-0.3,0.3-0.5,0.6c-0.1,0.2,0,0.2-0.1,0.3
		c-0.2,0.1-0.5,0.1-0.5-0.1s0-0.8,0.1-0.9c0.1-0.1,0.7-1.4,0.7-1.5c0-0.1,0.1-0.5,0-0.6c-0.1-0.1,0-0.6,0-0.8c0-0.2-0.1-0.5-0.1-0.5
		s-0.1,0.2-0.2,0.5c0,0.1-0.2,0.3-0.2,0.6s-0.1,0.5-0.2,0.5c-0.1,0.1-0.3,0.2-0.3,0.3c0,0.1-0.1,0.9-0.2,0.9
		c-0.1,0.1-0.7,0.7-0.8,0.7c-0.1,0-0.5,0-0.6-0.1c-0.2-0.1-0.5-0.3-0.3-0.6c0.1-0.2,0.1-0.5,0.1-0.6c0,0-0.2,0-0.2,0.1
		s-0.2,0.3-0.1,0.6c0,0.3,0.2,0.5,0.3,0.7c0.1,0.1,0.5,0.1,0.1,0.2c-0.2,0.1-0.3,0.2-0.2,0.5c0,0.3,0.1,0.5,0.1,0.5s0,0.1,0,0.2
		c0,0.1,0.2,0.1,0.2,0.2c0.1,0.1,0.3,0.2,0.3,0.3c0,0.1,0.2,0.3,0.2,0.3s0.1,0.2,0.1,0.3c0,0.1,0,0.2,0,0.3s0,0.2-0.1,0.2
		c-0.1,0.1-0.1,0.1-0.3,0.3c-0.3,0.2-0.5,0.3-0.5,0.5c0,0.1,0,0.1-0.3,0.1c-0.2,0-0.3-0.1-0.5,0c-0.1,0.1-1.1,1-1.2,1.1
		c-0.1,0.1-0.5,0.1-0.6,0.1c-0.1-0.1-0.3-0.1-0.5-0.1s-0.3-0.2-0.3-0.3c0-0.1-0.1-0.2-0.3-0.2c-0.2,0-0.6-0.1-0.7-0.2
		c-0.1-0.1-0.3-0.2-0.5-0.3c-0.1-0.1-0.3-0.2-0.6-0.1c-0.2,0-0.5,0.2-0.5,0c0-0.1-0.1-0.1-0.2-0.2c-0.1-0.1-0.2-0.2-0.2,0
		c0,0.2,0,0.3,0.1,0.6c0,0.1,0.1,0.1,0,0.5c-0.1,0.2,0,0.5-0.2,0.6c-0.2,0.1-0.5,0.2-0.6,0.2c-0.1,0-0.3-0.1-0.3-0.2
		c0.1-0.1,0.1-0.2,0-0.3c-0.1-0.1-0.2-0.1-0.2-0.3c0.1-0.2,0-0.3,0-0.5c0.1-0.1,0.2-0.2,0.2-0.3c0-0.1,0-0.2,0.2-0.3
		c0.2-0.1,0.3,0,0.3-0.1s-0.1-0.1-0.1-0.3c0-0.1,0.2-0.2,0.2-0.3c0-0.1,0.1-0.1-0.3-0.1s-0.5-0.1-0.5-0.3c0.1-0.2,0-0.3,0.1-0.5
		c0.1-0.2,0.2-0.1,0.1-0.3c-0.1-0.1-0.1-0.2,0-0.5c0.1-0.2-0.1-0.2,0.1-0.5c0.3-0.1,0.3-0.2,0.1-0.2c-0.2-0.1-0.2-0.3-0.5-0.2
		c-0.2,0.1,0,0.1-0.1,0.1s-0.2,0.1-0.3,0.2c-0.1,0.1-0.2,0.1-0.5,0c-0.3,0-0.5,0-0.6-0.1c-0.1-0.1-0.2-0.1-0.3-0.1
		c-0.1,0-0.3-0.1-0.5-0.2c-0.1-0.1-0.7-0.7-1-1.8c0,0,0-0.3-0.5-0.1c-0.5,0.1-0.3-0.1-0.3-0.2c0-0.1-0.1-0.2-0.1-0.3
		c-0.1-0.1-0.2-0.2-0.1-0.3c0-0.1,0-0.2,0-0.3c0-0.1,0.1-0.3,0.5-0.2c0.3,0,0.5,0,0.6,0.3c0.1,0.2,0.1,0.3,0.3,0.5
		c0.2,0,0.3,0.1,0.6,0c0.2,0,0.5-0.1,0.5-0.2s0-0.1,0.1-0.2c0.1-0.1,0.1-0.1,0.2-0.2c0.1-0.1,0.1-0.3,0.5-0.3c0.3,0,0.3-0.1,0.7-0.1
		c0.3-0.1,1.1-0.2,1.5,0c0.2,0.1,0.8,0.5,0.8,0.8c0,0.3,0,0.7,0,0.8c-0.1,0.1,0.1,1.1,0,1.2c-0.2,0.2,0,0.6,0,0.6
		c0.1,0,0.1,0.6,0.1,0.7c0,0.1-0.1,1.8,0,2c0.1,0.2,0.8,0.6,0.8,0.7c0,0.1,0.8,0.6,0.8,0.6s0.2,0.1,0.3,0.1c0.1,0,0.2,0.1,0.2,0.1
		s0.1,0.2,0.1,0.3c0,0.1,0.2,0.1,0.2,0c0.1-0.1,0.3-0.1,0.3-0.2c0.1-0.2,0.2-0.2,0.2-0.2c0.1,0,0.5-0.2,0.6-0.3
		c0.1-0.1,0.6-0.2,0.7-0.6s0.2-0.3,0.1-0.5c-0.1-0.1-0.2-0.3-0.2-0.3c0.1-0.1-0.3,0-0.3,0s-0.1,0.2-0.2,0.1
		c-0.1-0.1-0.2-0.1-0.2-0.3c0-0.2-0.1-0.3-0.2-0.5c0,0,0-0.1,0-0.2c0-0.1-0.1,0.1-0.2-0.2c0-0.3,0.1-0.3,0-0.6
		c-0.1-0.2,0-0.6-0.1-0.8s-0.5-1-0.8-1.5c-0.3-0.5-0.3-0.3-0.3-0.7c0-0.2,0.2-0.6,0.1-0.6c-0.1-0.1-0.2-0.3-0.1-0.5
		c0.1-0.1,0.1-0.2,0.2-0.3c0.1-0.1,0.2-0.1,0.3-0.2c0.1-0.1,0.1,0.1,0.2,0c0.1-0.1,0-0.2,0.2-0.3c0.2-0.1,0.6,0,0.6,0.1
		c0.1,0.1,0.3,0.1,0.5,0.2c0,0.1,0.1,0.3,0.2,0.5c0.1,0.1,0.1,0,0.2,0.2c0.2,0.3,0.3,0.5,0.5,0.5c0.1,0,0.3,0,0.5,0.1
		c0.1,0.1,0.5,0.3,0.5,0.5c0,0.1,0.3,0.5,0.5,0.5s0.2,0,0.2-0.1c0,0,0.1-0.1,0.2-0.1s0.1-0.1,0.2-0.2c0-0.1,0-0.2,0.1-0.3
		c0.1-0.1,0.2-0.1,0.2-0.2c0.1-0.1,0-0.2,0-0.3c0-0.1,0.1-0.2,0-0.2c-0.1,0,0.1,0-0.3,0.1c-0.3,0.1-0.3,0.1-0.6,0.1
		c-0.2,0-0.1,0-0.5,0c-0.2,0-0.3,0-0.5-0.1c-0.1-0.1-0.2-0.1-0.1-0.2c0.1-0.1-0.1-0.2,0.2-0.3c0.3-0.1,0.5,0,0.7-0.1
		c0.2-0.1,0.5-0.2,0.6-0.2c0,0,0.2-0.2,0.3-0.3c0.1-0.1,0.2-0.1,0.5-0.1c0.1,0,0.2-0.1,0.2-0.2c0.1-0.1,0.3,0,0.5-0.1
		c0.1-0.1,0.1-0.3,0.1-0.5c0-0.1-0.1-0.2,0-0.3c0.1-0.1,0.2-0.2,0.1-0.3c0,0-0.1-0.2-0.1-0.5c0-0.1-0.1-0.2-0.1-0.2
		c-0.1,0-0.1-0.3-0.2-0.2c-0.1,0.1-0.2,0.3-0.2,0.5c0,0.1,0,0.2-0.1,0.2c-0.1,0,0,0-0.5,0c-0.5,0-0.6,0.1-0.7,0.1s-0.5-0.1-0.5-0.2
		c0-0.1-0.1-0.7,0.1-0.8c0.2-0.1,0.2-0.1,0.6-0.5c0.3-0.3,0.5-0.3,0.6-0.5c0.1-0.1,0.3-0.2,0.5-0.2c0.1,0,0.2-0.2,0.3-0.2
		c0-0.1,0.2-1.5,0.1-1.9c-0.1-0.5-0.5-0.9-0.1-1c0.5,0,0.2-0.1,0.3,0c0,0.1,0.1,0.1,0.3,0.1c0.2,0,0.5-0.1,0.7-0.1
		c0.2,0.1,0.1,0.7,0,0.8C184.1,94.9,183.9,95.6,183.9,95.8L183.9,95.8z"/>
	<path class="st0" d="M169.6,85.4c0.1-0.2,0.3-0.7,0.6-0.6c0.2,0.1,0.5,0.5,0.5,0.6c0,0.1,0.1,0.3,0.1,0.5c0,0.1-0.1,0.3-0.1,0.3
		s-0.2-0.1-0.2-0.2c-0.1-0.1-0.3-0.2-0.3-0.1c0,0.1,0,0.3-0.1,0.2c-0.1-0.1-0.2-0.3-0.2-0.3L169.6,85.4L169.6,85.4z"/>
	<path class="st23" d="M171.1,83c0,0,0.1,0.2,0.3,0.2c0.2,0,0.5,0,0.5,0.1c0,0.1,0.2,0,0.3-0.1c0.1-0.1,0.3-0.1,0.3-0.2
		c0-0.1,0-0.1,0.1-0.3c0.1-0.1,0-0.1-0.1-0.2c-0.2-0.1-0.1-0.1-0.6-0.1C171.4,82.4,171.1,82.8,171.1,83L171.1,83z"/>
	<path class="st23" d="M175.2,82.4c0,0,0,0.6,0.1,0.6s0.5,0,0.5,0.1c0.1,0.1,0.1,0.2,0.2,0.3c0,0.1,0.3,0,0.3,0.2s0,0.5,0.2,0.5
		c0.1-0.1,0.7-0.6,0.6-0.6c-0.1-0.1-0.1-0.2-0.2-0.2s-0.5-0.2-0.5-0.3c0-0.1-0.1-0.3-0.3-0.3c-0.1,0-0.3,0-0.5-0.1
		C175.5,82.5,175.1,82.2,175.2,82.4L175.2,82.4z"/>
	<path class="st0" d="M172.6,116.2c-0.1-0.1,0-0.3-0.1-0.5c-0.1-0.1-1-1.7-1-1.8c0-0.1,0.1-0.8,0-0.9c-0.1-0.1,0.1-0.2,0.2-0.1
		c0.1,0.1,0.5,0.1,0.5,0.2c0,0.1,0.3,0.5,0.5,0.6c0.1,0.1,0.5,0.1,0.6,0.1c0,0,0.2-0.1,0.3,0c0.1,0.1,0.5,0.3,0.6,0.2
		c0.1,0,0.2,0,0.3,0.2c0.1,0.1,0.2,0.2,0.2,0.2s0.2,0.3,0.1,0.5c-0.2,0.1-0.3,0.1-0.3,0.1v0.1c0,0-0.1,0.1-0.3,0
		c-0.2-0.1-0.3-0.2-0.2,0.1c0.1,0.3,0.2,0.3,0.5,0.5c0.2,0.1,0.2,0.2,0.2,0.3c0,0.1,0,0.3,0,0.5c-0.1,0,0,0.1,0.2,0.2
		c0.1,0.1,0.3,0.3,0.2,0.3c-0.1,0.1-0.6,0.3-0.7,0.2c-0.1-0.1-0.1-0.3-0.2-0.3c-0.1-0.1-0.3-0.2-0.5-0.2h-0.3
		c-0.1-0.1-0.2-0.3-0.3-0.2C172.9,116.3,172.6,116.3,172.6,116.2L172.6,116.2z"/>
	<path class="st0" d="M177.9,116.5c0,0,0,0.1,0,0.2c0.1,0.1,0,0.3,0,0.6c0,0.1-0.3,0.5-0.3,0.5c-0.1,0.1-0.1,0.2-0.1,0.2
		c-0.1,0-0.2,0.1-0.3-0.1c-0.1-0.1-0.2-0.2-0.2-0.3c-0.1-0.1-0.1-0.1-0.2-0.1c-0.1,0-0.3,0-0.5,0c-0.1-0.1-0.3-0.1-0.3-0.1
		c-0.1,0.1-0.3-0.2-0.3-0.3c0-0.1,0.1-0.3,0-0.5c-0.1-0.1-0.2-0.3-0.2-0.5c-0.1-0.1-0.1-0.2-0.1-0.3c0-0.1,0.1-0.2,0-0.3
		c-0.1-0.1-0.1-0.2,0-0.3c0.1-0.1,0.1-0.2,0.2-0.5c0.1-0.1-0.1-0.2,0.2-0.2c0.3,0,0.7,0,0.7,0.1c0.1,0.1,0.2-0.1,0.2,0.3
		c0.1,0.3,0.2,0.6,0.2,0.5c0.1,0,0.1-0.5,0.1-0.6c-0.1-0.1-0.2-0.3-0.2-0.6s0-0.3,0.1-0.6s0.5-0.9,0.7-0.9c0.2,0,0.6,0.2,0.8,0.2
		c0.2-0.1,0.6-0.3,0.5-0.3c-0.1-0.1-0.2-0.2-0.2-0.3c0-0.1,0.1-0.2,0.2-0.3c0.1,0,0.3-0.1,0.6,0c0.2,0.1,0.5,0.1,0.5,0.2
		c0,0.1,0.2,0.3,0.2,0.7c0,0.5,0,0.3,0.1,0.2c0-0.1,0.3-0.5,0.5-0.6c0-0.1,0.2,0.1,0.2,0.2c0,0.1,0.5,0.5,0.5,0.5
		c0,0.1,0.1,0,0.1,0.3c0,0.5,0,0.7,0.1,0.8c0.1,0.1,0.1,0.5,0.1,0.6c0,0.1,0.2,1.4-0.3,1.5c-0.6,0.2-0.9,0.1-1,0
		c-0.1-0.1-0.3-0.3-0.2-0.2c0,0.1,0.6,0.6,0,0.8s-0.2,0.2-0.5,0.1c-0.2-0.1-0.2-0.1-0.3-0.2c0-0.1-0.1-0.3-0.2-0.3s-0.2-0.1-0.3-0.3
		c-0.1-0.1-0.2-0.2-0.3-0.2C178.2,116.3,178,116.3,177.9,116.5L177.9,116.5z"/>
	<path class="st0" d="M181.7,128.9c0,0-0.5-0.2-0.7-0.1c-0.1,0.1-0.2,0.2-0.5,0.1c-0.2,0,0-0.2-0.2-0.2c-0.2,0,0,0-0.6,0
		s-0.3-0.1-0.5-0.1c-0.1,0,0,0-0.2,0c-0.2,0.1,0.1,0-0.3,0c-0.5,0-0.3-0.1-0.3-0.1c-0.1,0,0.1,0-0.2,0.1c-0.3,0-0.3,0.1-0.5,0.1
		c-0.1,0,0,0-0.1-0.1c-0.1-0.1-0.1-0.2-0.3-0.1c-0.2,0.1,0.5-0.9,0.8-1c0.3-0.1,0.5,0,0.6-0.1c0.1-0.1,0.1-0.2,0.2-0.2
		s0.3,0,0.5-0.1c0-0.1,0.2-0.8,0.3-1c0.1-0.2,0-0.3,0.2-0.3c0.2,0,0.2,0,0.5,0c0.2,0.1,0.3,0.2,0.5-0.1c0.1-0.3,0.1-0.2,0.1-0.5
		c0-0.2,0.3-0.2,0.1-0.5c-0.2-0.1-0.2-0.3-0.3-0.3c-0.1-0.1-0.6-0.7-0.7-0.8c-0.1-0.1,0-0.2-0.1-0.2s-0.1,0.2-0.1-0.1
		c0.1-0.3,0-0.2,0-0.3c-0.1-0.1-0.1-1.1,0-1.2c0.1-0.1,0.1-0.8,0.1-0.9c0.1-0.2,0.1-0.3-0.1-0.3c-0.1,0-0.2,0-0.3,0.1
		c-0.1,0.1-0.3,0.3-0.5,0.5c-0.1,0.1-0.1,0.2-0.2,0.3c-0.1,0.1-0.1,0.1-0.2,0.1s-0.3,0-0.3,0.1c-0.1,0.1-0.2,0-0.2-0.2
		c0-0.1,0.2-0.2,0.1-0.3c-0.1-0.1-0.1-0.1-0.2-0.2c0,0-0.5-0.1,0-0.3c0.3-0.1,0.5-0.2,0.6-0.5c0.1-0.2,0.3-0.5,0.3-0.6
		c0-0.1,0.3-0.5,0.5-0.6c0-0.1,0.2-0.1,0.2-0.3c0.1-0.2,0.2-0.2,0.3-0.3c0.1-0.1,0-0.1,0.1-0.3c0.1-0.2,0.5-0.6,0.6-0.7
		c0.1-0.1,0.3-0.3,0.5-0.3c0.1-0.1,0.3-0.1,0.6,0c0.2,0.1,0.5,0.1,0.5,0.1s0.3,0,0.3,0.2c0,0.2,0.1,0.5,0.2,0.8
		c0,0.5,0.5,5.9,0.2,6.2c-0.2,0.3-0.1,0.8-0.2,1c-0.1,0.2-0.3,0.7-0.3,0.9c-0.1,0.2-0.1,0.2-0.1,0.7c0,0.5,0,0.2-0.1,0.6
		c-0.1,0.3-0.2,0.3-0.1,0.7C182.3,128.3,182.3,128.9,181.7,128.9L181.7,128.9z"/>
	<path class="st0" d="M164.7,90.9l-0.1,0.1c0.1,0.1,0.1,0.1,0.2,0.2c0.2-0.5,0.5-1.4,0.5-1.4s0.7,0,1-0.3c0.1,0.1,0.1,0.2,0.1,0.3
		c0,0.2-0.1,0.3-0.1,0.6c0,0.1,0,0.2,0,0.2s-0.1,0-0.2,0.1c-0.1,0.1,0,0.2,0,0.3c0,0.1,0.2,0.2,0.1,0.2c-0.1,0.1-0.5,0-0.6-0.1
		c-0.1,0-0.1,0-0.2,0c0.2,0-0.2,0.3-0.2,0.3c-0.3,0.2-0.8-0.3-1.1-0.2c-0.2,0.1-0.3,0.9-0.7,0.2c-0.1,0.2-0.3,0.5-0.3,0.8
		c0,0.2,0.2,0.2,0.3,0.5c0,0.2-0.1,0.2-0.1,0.5c0,0.2,0.1,0.8-0.1,1.1c-0.3,0.5-0.1,1-0.8,0.7c-0.2,0.1-0.7,1.2-0.2,1.2
		c-0.1,0,0.1-0.3,0.1-0.3c0.2-0.1,0.5,0.3,0.5,0.2c0,0.1,1,0.2,1.1,0.1c0.1-0.1-0.5-0.3-0.5-0.5c-0.1-0.2,0.2-0.5,0.3-0.7
		c0.1,0,0.5-1.2,0.3-1.5c0-0.2-0.5-0.5-0.3-0.6c0-0.1,0-0.6,0.1-0.6s0.3-0.5,0.2-0.5c0,0,0-0.2,0.1-0.2c0,0,0.1,0.3,0.2,0.3
		c0.1,0.1,0.9,0.2,1,0.1c0.1-0.1,0.2-0.6,0.5-0.5c0.1,0.1,0.2,0.9,0.3,1c0,0.2,0.2,0.2,0.3,0.1c0-0.1,0-0.2,0-0.5
		c0.1,0,0.2-0.1,0.2-0.2c0-0.1,0-0.1,0-0.2c0-0.2,0.5,0,0.5-0.1s0-0.1,0-0.2c0-0.1,0.1-0.5,0.2-0.6c0.1-0.2-0.1-0.3-0.2-0.3
		c0,0-0.5-0.9-0.3-1.2c0.1,0,0-0.5,0.1-0.8c0-0.1,0.2-0.2,0.3-0.3c0.1-0.1,0.2-0.5,0.1-0.6c0-0.1,0.1-0.2,0-0.3
		c0-0.1-0.1-0.2-0.2-0.2c-0.2-0.1-0.6-0.1-0.8-0.2c-0.5-0.1-0.7-0.5-1.1-0.5c0,0.3-0.6,0.3-0.7,0.6c-0.5-0.2-0.2,0.5-0.2,0.5
		c0.6,0.1,0.9,1.1,0.9,1.4c0,0.2-0.3,0.8-0.3,0.9c0,0.1-0.2,0.1-0.2,0.2C164.4,90.4,165.1,90.6,164.7,90.9L164.7,90.9z"/>
	<path class="st0" d="M171.4,96.1c-0.1,0.2-0.5,0.2-0.5,0.6c0,0.3,0,0.3-0.1,0.7c-0.1,0.3-0.2-0.2-0.2,0.5s-0.3,0.6,0,0.8
		c0.3,0.1,0.6-0.1,0.5,0.1c-0.1,0.2-0.1,0.1-0.1,0.3c-0.1,0.2-0.2,0.3,0,0.5c0.2,0.1,0.1,0.3,0.3,0.3c0.2,0,0.2,0,0.3-0.1
		c0.2-0.2,0.5-0.3,0.6-0.2c0.1,0.1,0.3,0.2,0.3,0s0-0.2,0.1-0.2s0.5,0.1,0.5,0.1s0.1-0.1,0.1-0.3c0-0.1,0.3-0.1,0.3-0.1
		c0.1,0,0.3-0.3,0.2-0.3s-0.1-0.1-0.3-0.1c-0.2,0-0.3,0-0.5,0s-0.1-0.2-0.3-0.2c-0.1,0-0.5,0-0.5,0s-0.3,0-0.5-0.1
		c-0.1-0.1,0-0.5-0.1-0.6c-0.1-0.1-0.1-0.2-0.2-0.3c-0.1-0.1-0.3-0.3-0.1-0.5c0.2-0.1,0.3-0.2,0.3-0.3
		C171.7,96.1,171.4,96.1,171.4,96.1L171.4,96.1z"/>
	<path class="st0" d="M162.1,97.2c-0.1,0.1-0.1,0.3-0.2,0.3c-0.1,0.1-0.2,0.2-0.1,0.6c0.1,0.3-0.2,0.1,0.1,0.3
		c0.3,0.1,0.5,0,0.5,0.3c0,0.3-0.2,0.5,0,0.5c0.2,0,0-0.3,0.2-0.3c0.2,0,0.5,0.1,0.5-0.1c0-0.1-0.1-0.1-0.2-0.3
		c-0.1-0.2-0.1-0.2-0.1-0.5c0-0.1,0.1-0.2-0.1-0.3C162.5,97.6,162.1,97.2,162.1,97.2L162.1,97.2z"/>
	<path class="st0" d="M158.5,98c0,0.2-0.2,0.3-0.2,0.6c0,0.3-0.1,0.5,0,0.6c0.1,0.1-0.2-0.1,0.1,0.1c0.5,0.3,0.3,0.5,0.5,0.6
		c0.1,0.1,0.2-0.1,0.2-0.1h0.5c0,0,0.3,0.1,0.2-0.1c-0.1-0.3-0.2-0.2-0.3-0.3c-0.1-0.1-0.1-0.1-0.1-0.3c0-0.1,0.3-0.2-0.1-0.2
		s-0.6-0.1-0.6-0.2s0.1-0.3,0.1-0.3S158.5,97.8,158.5,98L158.5,98z"/>
	<path class="st0" d="M159.4,103.5c0,0.1-0.1,0.3,0,0.6s0.1,0.5,0.2,0.5c0.1,0,0.1,0.1,0.6,0.1c0.3,0,0.5,0.1,0.5,0.1
		s0.1-0.3,0.2-0.3c0.1-0.1,0.8,0,0.7-0.1c-0.1-0.1,0.2-0.1-0.2-0.2c-0.5-0.1-0.5-0.3-0.6-0.2c-0.1,0.1-0.2,0.3-0.2,0.3l-0.3-0.3
		c0,0-0.2-0.1-0.2-0.2C159.9,103.7,159.4,103.5,159.4,103.5L159.4,103.5z"/>
</g>
</svg>
