<?xml version="1.0" encoding="utf-8"?>
<!-- Generator: Adobe Illustrator 21.1.0, SVG Export Plug-In . SVG Version: 6.00 Build 0)  -->
<svg version="1.1" id="Layer_1" xmlns="http://www.w3.org/2000/svg" xmlns:xlink="http://www.w3.org/1999/xlink" x="0px" y="0px"
	 viewBox="0 0 200 200" style="enable-background:new 0 0 200 200;" xml:space="preserve">
<style type="text/css">
	.st0{fill:#13007C;}
	.st1{fill:#FFFFFF;}
	.st2{fill:#008837;}
	.st3{fill:#FFFF00;}
	.st4{fill:#FF0000;}
</style>
<g>
	<path class="st0" d="M175.5,0.1l-75.5,0l-75.5,0v110.1c9.2,27.3,11.5,62.4,75.5,89.7c64-27.3,66.3-62.4,75.5-89.7V0.1z"/>
	<path class="st1" d="M100,4.4l71.1,0c0,0,0,103.8,0,105.1c-1.1,3.3-2.1,6.6-3.1,10.1c-7.3,24.7-15.5,52.7-68,75.6
		c-52.5-22.9-60.8-50.9-68-75.6c-1-3.5-2-6.8-3.1-10.1c0-1.3,0-105.1,0-105.1L100,4.4z"/>
	<path class="st0" d="M46.4,20.3c0.5,0,1.1,0.1,1.7,0.3c0.6,0.2,1.2,0.6,1.8,1l0.8-5.1c-0.8-0.4-1.6-0.7-2.4-0.9
		c-0.8-0.2-1.6-0.3-2.5-0.3c-2.2,0-3.9,0.6-5.1,1.7c-1.3,1.2-1.9,2.7-1.9,4.7c0,0.9,0.2,1.7,0.6,2.4c0.4,0.7,1,1.6,2,2.5
		c0.8,0.8,1.4,1.4,1.7,1.9c0.3,0.5,0.4,0.9,0.4,1.4c0,0.5-0.2,1-0.5,1.3c-0.3,0.3-0.8,0.5-1.4,0.5c-0.7,0-1.3-0.1-2-0.4
		c-0.7-0.3-1.4-0.7-2-1.3l-1,5.5c0.6,0.4,1.4,0.8,2.3,1c0.9,0.2,1.9,0.4,2.9,0.4c2.4,0,4.3-0.6,5.6-1.9c1.4-1.3,2.1-3,2.1-5.3
		c0-1-0.2-1.9-0.5-2.6c-0.3-0.8-1-1.7-2.1-2.7c-0.1-0.1-0.2-0.2-0.3-0.3c-1.1-1.1-1.6-1.9-1.6-2.5c0-0.4,0.1-0.8,0.4-1
		C45.5,20.4,45.9,20.3,46.4,20.3z"/>
	<path class="st0" d="M79.3,31.2c-0.5-0.5-1.1-0.7-1.8-0.7c-1,0-1.8,0.4-2.5,1.1c-0.7,0.7-1,1.6-1,2.7c0,0.8,0.2,1.5,0.7,2
		c0.5,0.5,1.1,0.7,1.8,0.7c1,0,1.8-0.4,2.5-1.1c0.7-0.7,1-1.6,1-2.7C80,32.3,79.8,31.7,79.3,31.2z"/>
	<path class="st0" d="M73.2,21.7c-0.4-0.1-0.9-0.2-1.3-0.2c-2.3,0-4.1,0.9-5.5,2.7c-1.4,1.8-2.1,4.2-2.1,7.2c0,1.7,0.4,3.1,1.3,4.1
		c0.9,1,2.1,1.5,3.7,1.5c0.5,0,1,0,1.4-0.1c0.5-0.1,1-0.2,1.4-0.4l0.7-4.7c-0.2,0.1-0.4,0.2-0.6,0.2c-0.2,0.1-0.4,0.1-0.6,0.1
		c-0.5,0-0.9-0.2-1.1-0.4c-0.2-0.3-0.3-0.8-0.3-1.4c0-1.1,0.2-2.1,0.6-2.8c0.4-0.8,0.9-1.1,1.6-1.1c0.2,0,0.5,0,0.7,0.1
		c0.2,0.1,0.4,0.2,0.6,0.3l0.7-4.5C74.1,22,73.7,21.8,73.2,21.7z"/>
	<path class="st0" d="M57.4,21.6c-2.2,0-3.9,0.8-5.1,2.5c-1.3,1.6-1.9,3.8-1.9,6.6c0,2.1,0.5,3.7,1.6,4.7c1.1,1.1,2.6,1.6,4.7,1.6
		c2.2,0,3.9-0.8,5.1-2.5c1.3-1.6,1.9-3.8,1.9-6.6c0-2.1-0.5-3.7-1.6-4.7C60.9,22.1,59.4,21.6,57.4,21.6z M57.8,31.1
		c-0.4,1-0.8,1.5-1.3,1.5c-0.3,0-0.5-0.1-0.7-0.4c-0.2-0.3-0.2-0.7-0.2-1.2c0-1.3,0.2-2.5,0.6-3.5c0.4-1,0.8-1.5,1.3-1.5
		c0.3,0,0.5,0.1,0.7,0.4c0.2,0.3,0.2,0.7,0.2,1.2C58.3,29,58.1,30.1,57.8,31.1z"/>
	<path class="st0" d="M143.3,21.6c-2.2,0-3.9,0.8-5.1,2.5c-1.3,1.6-1.9,3.8-1.9,6.6c0,2.1,0.5,3.7,1.6,4.7c1.1,1.1,2.6,1.6,4.7,1.6
		c2.2,0,3.9-0.8,5.1-2.5c1.3-1.6,1.9-3.8,1.9-6.6c0-2.1-0.5-3.7-1.6-4.7C146.9,22.2,145.3,21.6,143.3,21.6z M143.7,31.2
		c-0.4,1-0.8,1.5-1.3,1.5c-0.3,0-0.5-0.1-0.7-0.4c-0.2-0.3-0.2-0.7-0.2-1.2c0-1.3,0.2-2.5,0.6-3.5c0.4-1,0.8-1.5,1.3-1.5
		c0.3,0,0.5,0.1,0.7,0.4c0.2,0.3,0.2,0.7,0.2,1.2C144.2,29,144.1,30.2,143.7,31.2z"/>
	<path class="st0" d="M134.9,17.2c-1.2-0.9-3.2-1.4-6-1.4h-5l-3.3,20.8h5.8l1.1-6.9c0.1,0,0.2,0,0.4,0c0.2,0,0.3,0,0.4,0
		c2.7,0,4.8-0.7,6.3-2.1c1.5-1.4,2.2-3.4,2.2-6C136.7,19.6,136.1,18.1,134.9,17.2z M130.6,24.3c-0.4,0.5-1,0.7-1.9,0.7
		c-0.1,0-0.2,0-0.3,0c-0.1,0-0.2,0-0.2,0l0.7-4.6h0.3c0.7,0,1.2,0.1,1.5,0.4c0.3,0.3,0.5,0.7,0.5,1.2
		C131.3,23.1,131.1,23.8,130.6,24.3z"/>
	<path class="st0" d="M162.8,31.2c-0.5-0.5-1.1-0.7-1.8-0.7c-1,0-1.8,0.4-2.5,1.1c-0.7,0.7-1,1.6-1,2.7c0,0.8,0.2,1.5,0.7,2
		c0.5,0.5,1.1,0.7,1.8,0.7c1,0,1.8-0.4,2.5-1.1c0.7-0.7,1-1.6,1-2.7C163.5,32.4,163.2,31.7,162.8,31.2z"/>
	<polygon class="st0" points="153.5,13.9 149.9,36.6 155.2,36.6 158.8,13.9 	"/>
	<path class="st0" d="M100.6,128.2c0.7,0.7,1.6,1,2.6,1c0.6,0,1.1-0.1,1.6-0.4c0.5-0.2,1-0.6,1.5-1.1l0,1.2h4.7l0.1-10.9l-4.7,0
		l0,1.2c-0.5-0.5-0.9-0.9-1.4-1.1c-0.5-0.2-1-0.4-1.6-0.4c-1.6,0-2.7,0.7-3.5,2.2c-0.8,1.5-1,3.3-0.6,5.5
		C99.5,126.6,99.9,127.6,100.6,128.2z M104,122.1c0.2-0.7,0.6-1,1-1c0.3,0,0.5,0.1,0.7,0.3c0.2,0.2,0.3,0.5,0.4,0.9
		c0.2,0.9,0.2,1.8-0.1,2.4c-0.2,0.7-0.6,1-1,1c-0.3,0-0.5-0.1-0.7-0.3c-0.2-0.2-0.3-0.5-0.4-1C103.8,123.6,103.8,122.8,104,122.1z"
		/>
	<polygon class="st0" points="98,125.1 94.2,125.1 94.3,113.4 89,113.4 88.9,128.9 98,128.9 	"/>
	<polygon class="st0" points="82.1,167.1 83.4,167.1 83.4,176.1 87,176.1 87.1,164.4 82.2,164.4 	"/>
	<polygon class="st0" points="110.1,167.1 114.5,167.1 110.3,176.1 114.7,176.1 118.7,164.4 110.1,164.4 	"/>
	<path class="st0" d="M107.7,169c-0.6-0.5-1.3-0.7-2.1-0.7c-0.2,0-0.4,0-0.6,0.1c-0.2,0-0.4,0.1-0.6,0.2c0.4-0.7,0.9-1.5,1.4-2.1
		c0.5-0.7,1.1-1.3,1.7-2h-4.2c-1.3,1.6-2.3,3.2-2.9,4.6c-0.6,1.4-0.8,2.7-0.6,3.9c0.2,1.1,0.7,1.9,1.6,2.5c0.8,0.6,1.9,0.9,3.2,0.9
		c1.5,0,2.6-0.5,3.4-1.5c0.8-1,1-2.3,0.8-3.7C108.7,170.2,108.3,169.5,107.7,169z M105.1,173c-0.2,0.4-0.4,0.7-0.8,0.7
		c-0.2,0-0.4-0.1-0.5-0.2c-0.1-0.1-0.2-0.3-0.3-0.6c-0.1-0.7-0.1-1.3,0-1.7c0.1-0.4,0.4-0.7,0.8-0.7c0.2,0,0.4,0.1,0.5,0.2
		c0.1,0.1,0.2,0.3,0.3,0.6C105.2,172,105.2,172.6,105.1,173z"/>
	<path class="st0" d="M97.6,165.1c-0.8-0.6-1.9-0.9-3.2-0.9c-1.5,0-2.6,0.5-3.4,1.5c-0.8,1-1.1,2.3-0.8,3.7c0.2,0.9,0.5,1.6,1.1,2.1
		c0.6,0.5,1.3,0.7,2.1,0.7c0.2,0,0.4,0,0.6-0.1c0.2,0,0.4-0.1,0.6-0.2c-0.4,0.7-0.9,1.5-1.4,2.1c-0.5,0.7-1.1,1.3-1.7,2h4.2
		c1.3-1.6,2.3-3.1,2.9-4.6c0.6-1.4,0.8-2.7,0.6-3.9C98.9,166.5,98.4,165.7,97.6,165.1z M95.5,169.3c-0.2,0.4-0.4,0.7-0.8,0.7
		c-0.2,0-0.4-0.1-0.5-0.2c-0.1-0.1-0.2-0.3-0.3-0.6c-0.1-0.7-0.1-1.3,0-1.7c0.1-0.4,0.4-0.7,0.8-0.7c0.2,0,0.4,0.1,0.5,0.2
		c0.1,0.1,0.2,0.3,0.3,0.6C95.6,168.3,95.6,168.8,95.5,169.3z"/>
	<path class="st0" d="M108.8,151.1l-4.9-8.2c1.6-0.3,2.7-1,3.3-1.9c0.7-1,0.8-2.2,0.5-3.7c-0.4-1.7-1.4-3-2.9-3.7
		c-1.5-0.7-4.1-1.1-7.8-1.1h-5.8l0.3,18.6l6.9,0l-0.1-7.5l3.2,7.5L108.8,151.1z M100.8,140.1c-0.4,0.5-1.2,0.7-2.3,0.7h-0.4
		l-0.1-4.4c0.1,0,0.2,0,0.3,0c0.1,0,0.2,0,0.2,0c0.8,0,1.3,0.1,1.8,0.4c0.4,0.3,0.7,0.6,0.8,1.2
		C101.4,138.8,101.3,139.6,100.8,140.1z"/>
	<polygon class="st0" points="61.6,132.5 61.9,151.1 68.8,151.1 68.5,132.5 	"/>
	<polygon class="st0" points="134.1,137.2 134,132.5 118.9,132.5 119,137.2 123.1,137.2 123.3,151.1 130.2,151.1 130,137.2 	"/>
	<path class="st0" d="M146.7,132.5l-8.1,0l-5.1,18.6h7.1l0.5-2.7l4.1,0l0.6,2.7l7,0L146.7,132.5z M141.6,144.6l1.3-6.9l1.5,6.9
		H141.6z"/>
	<path class="st0" d="M85.7,134c-1.7-1.3-3.7-1.9-6.1-1.9c-1.7,0-3.1,0.3-4.3,0.8c-1.2,0.5-2.1,1.3-2.9,2.4
		c-0.8,1.1-1.3,2.5-1.5,4.1c-0.2,1.6-0.1,3.3,0.2,5c0.5,2.1,1.6,3.8,3.3,5.1c1.7,1.3,3.7,1.9,6.1,1.9c1.7,0,3.1-0.3,4.3-0.8
		c1.2-0.5,2.2-1.3,2.9-2.4c0.8-1.1,1.3-2.5,1.5-4.1c0.2-1.6,0.1-3.3-0.2-5C88.5,137,87.4,135.3,85.7,134z M82,145.1
		c-0.1,0.6-0.4,1.1-0.6,1.4c-0.3,0.3-0.7,0.4-1.2,0.4c-0.5,0-1-0.2-1.3-0.5c-0.3-0.3-0.6-0.8-0.7-1.5c-0.2-1-0.4-2.1-0.4-3.3
		c0-1.2,0.1-2.2,0.2-3.1c0.1-0.6,0.3-1.1,0.6-1.4c0.3-0.3,0.7-0.4,1.2-0.4c0.5,0,0.9,0.2,1.2,0.5c0.3,0.3,0.5,0.8,0.7,1.5
		c0.2,1.1,0.4,2.2,0.4,3.3C82.3,143.3,82.2,144.3,82,145.1z"/>
	<polygon class="st0" points="117.2,151.1 117,132.5 110.1,132.5 110.3,151.1 	"/>
	<polygon class="st0" points="59.6,132.5 47.4,132.5 47.6,151.1 54.5,151.1 54.4,144.1 59,144.1 59,139.7 54.3,139.7 54.3,137 
		59.6,137 	"/>
	<path class="st0" d="M139.5,53L139.5,53c-0.1-0.2-0.3-0.6-0.9-0.8c-0.7-0.2-1.9,0-2.5,0.1c-0.5,0.1-0.9,0.2-1.1,0.3
		c0.3-0.6,0.5-1.2,0.5-1.8c0-0.8-0.3-1.5-0.7-1.9c-0.7-0.7-1.8-1.1-3.2-0.8c0.2-0.5,0.4-1.3,0.6-2c0.3-1.3,0.4-2.5-0.4-3l0,0
		c-0.2-0.1-0.6-0.3-1.2,0.1c-0.6,0.4-1.4,1.3-1.8,1.8c-0.4,0.5-0.7,1-0.8,1.3c-0.6-1.4-1.6-2-2.5-2.1c-1-0.1-2.2,0.5-3,1.8
		c-0.2-0.4-0.4-0.8-0.7-1.2c-0.7-1.1-1.4-2.1-2.4-1.9l0,0c-0.2,0.1-0.6,0.2-0.8,0.8c-0.1,0.3-0.1,0.7-0.1,1.1c0,0.5,0.1,1.1,0.1,1.5
		c0.1,0.5,0.1,0.8,0.2,1.1c-1.5-0.8-2.8-0.4-3.5,0.2c-0.8,0.7-1.3,2-0.8,3.6c-0.5-0.2-1.2-0.3-1.8-0.5c-1.3-0.3-2.5-0.4-3,0.5l0,0
		c-0.1,0.1-0.1,0.3-0.1,0.5c0,0.2,0.1,0.4,0.2,0.7c0.4,0.6,1.3,1.3,1.9,1.7c0.5,0.3,0.9,0.6,1.1,0.7c-1.8,0.6-2.5,1.8-2.5,2.8
		c0,0,0,0,0,0.1c0,1,0.6,2.1,1.9,2.8c-0.5,0.3-1.2,0.7-1.8,1.1c-0.9,0.7-1.8,1.4-1.7,2.2c-0.5,0.3-1,0.6-1.4,1
		c1-3.1,1.3-4.9,1.3-6.4c0-0.6,0-1.2-0.1-1.7c0-0.4-0.1-0.8-0.1-1.3l0-1.4l-1.2,0.8c-1.7,1.1-3.3,2.4-4.2,4.4
		c-0.4,0.9-0.6,1.8-0.6,2.8c0,1.7,0.6,3.5,1.8,5.5c-0.7,0.6-1.4,1.4-2.1,2.1c0-3,0-16.1,0-17.3c2.2-0.2,5.2-0.7,7.6-2.6
		c2.8-2.3,4.3-6.3,4.3-11.6c0-0.2,0-0.3,0-0.5l0-1.5l-1.2,0.9c-6.2,4.5-9,7.2-10.6,9.4c0-1.8,0-5.1,0-7.6c0.2,0.4,0.5,0.9,0.7,1.3
		c0.7,1.1,1.5,2.1,2.4,1.9l0,0c0.2-0.1,0.6-0.2,0.8-0.9c0.1-0.3,0.1-0.6,0.1-1c0-0.5-0.1-1.1-0.1-1.5c-0.1-0.5-0.1-0.8-0.2-1.1
		c1.6,0.9,3,0.5,3.8-0.2c0.8-0.7,1.2-2.1,0.6-3.7c0.4,0.1,0.9,0.2,1.3,0.3c1.3,0.3,2.5,0.4,3-0.5l0,0c0.1-0.1,0.1-0.3,0.1-0.5
		c0-0.2-0.1-0.4-0.2-0.7c-0.4-0.6-1.3-1.4-1.8-1.7c-0.2-0.1-0.4-0.3-0.5-0.4c1.7-0.6,2.3-1.8,2.4-2.8c0,0,0-0.1,0-0.1
		c0-1-0.6-2.1-1.9-2.8c0.4-0.2,0.9-0.6,1.4-0.9c1.1-0.7,2-1.6,1.7-2.5l0,0c-0.1-0.2-0.3-0.6-0.9-0.8c-0.7-0.2-1.9,0-2.5,0.1
		c-0.5,0.1-0.9,0.2-1.1,0.3c0.3-0.6,0.5-1.2,0.5-1.8c0-0.8-0.3-1.5-0.7-1.9c-0.7-0.7-1.8-1.1-3.2-0.8c0.2-0.5,0.4-1.3,0.6-2
		c0.3-1.3,0.4-2.5-0.4-3l0,0c-0.2-0.1-0.6-0.3-1.2,0.1c-0.6,0.4-1.4,1.3-1.8,1.8c-0.4,0.5-0.7,1-0.8,1.3c-0.6-1.4-1.6-2-2.5-2.1
		c-1-0.1-2.2,0.5-3,1.8c-0.2-0.4-0.4-0.8-0.7-1.2c-0.7-1.1-1.4-2.1-2.4-1.9l0,0c-0.2,0.1-0.6,0.2-0.8,0.8c-0.1,0.3-0.1,0.7-0.1,1.1
		c0,0.5,0.1,1.1,0.1,1.5c0.1,0.5,0.1,0.8,0.2,1.1c-1.5-0.8-2.8-0.4-3.5,0.2c-0.8,0.7-1.3,2-0.8,3.6c-0.5-0.2-1.2-0.3-1.8-0.5
		c-1.3-0.3-2.5-0.4-3,0.5l0,0c-0.1,0.1-0.1,0.3-0.1,0.5c0,0.2,0.1,0.4,0.2,0.7c0.4,0.6,1.3,1.3,1.9,1.7c0.5,0.3,0.9,0.6,1.1,0.7
		c-1.8,0.6-2.5,1.8-2.5,2.8c0,0,0,0,0,0.1c0,1,0.6,2.1,1.9,2.8c-0.5,0.3-1.2,0.7-1.8,1.1c-1.1,0.8-2,1.6-1.7,2.5l0,0
		c0.1,0.2,0.3,0.6,0.9,0.7c0.7,0.1,1.9-0.1,2.5-0.2c0.5-0.1,0.9-0.2,1.3-0.3c-0.2,0.5-0.3,1-0.3,1.5c0,0.8,0.3,1.5,0.7,2
		c0.6,0.7,1.7,1,3,0.8c-0.2,0.5-0.4,1.3-0.5,2.1c-0.2,1.3-0.3,2.5,0.5,3l0,0c0.2,0.1,0.6,0.2,1.2-0.1c0.6-0.4,1.3-1.3,1.7-1.9
		c0.3-0.4,0.5-0.8,0.7-1c0.6,1.3,1.6,1.9,2.5,1.9c0.1,0,0.1,0,0.2,0c0,3.4,0,7.4,0,9.4c0,0,0-0.1,0-0.1c-0.7-1.8-1.4-3.5-11-10.7
		l-1.2-0.9l0,1.5c0,0.2,0,0.3,0,0.5c0,5.5,1.5,9.5,4.5,11.8c2.4,1.9,5.5,2.4,7.8,2.5c0,1.2,0,12.5,0,15.4c-0.9-0.9-1.7-1.7-2.4-2.4
		c1.1-1.7,1.6-3.4,1.6-4.9c0-0.4,0-0.8-0.1-1.2c-0.5-2.8-3-4.4-4.2-5.1l-1.1-0.8l-0.1,1.4c0,0.4,0,0.7-0.1,1.1c0,0.5-0.1,1-0.1,1.6
		c0,1.2,0.2,2.8,1.1,5.4c-1.5-1-2.9-1.7-4.2-2c-0.4-0.3-0.8-0.7-1.1-0.9c-0.2-0.1-0.4-0.3-0.5-0.4c1.7-0.6,2.3-1.8,2.4-2.8
		c0,0,0-0.1,0-0.1c0-1-0.6-2.1-1.9-2.8c0.4-0.2,0.9-0.6,1.4-0.9c1.1-0.7,2-1.6,1.7-2.5l0,0c-0.1-0.2-0.3-0.6-0.9-0.8
		c-0.7-0.2-1.9,0-2.5,0.1c-0.5,0.1-0.9,0.2-1.1,0.3c0.3-0.6,0.5-1.2,0.5-1.8c0-0.8-0.3-1.5-0.7-1.9c-0.7-0.7-1.8-1.1-3.2-0.8
		c0.2-0.5,0.4-1.3,0.6-2c0.3-1.3,0.4-2.5-0.4-3l0,0c-0.2-0.1-0.6-0.3-1.2,0.1c-0.6,0.4-1.4,1.3-1.8,1.8c-0.4,0.5-0.7,1-0.8,1.3
		c-0.6-1.4-1.6-2-2.5-2.1c-1-0.1-2.2,0.5-3,1.8c-0.2-0.4-0.4-0.8-0.7-1.2c-0.7-1.1-1.4-2.1-2.4-1.9l0,0c-0.2,0.1-0.6,0.2-0.8,0.8
		c-0.1,0.3-0.1,0.7-0.1,1.1c0,0.5,0.1,1.1,0.1,1.5c0.1,0.5,0.1,0.8,0.2,1.1c-1.5-0.8-2.8-0.4-3.5,0.2c-0.8,0.7-1.3,2-0.8,3.6
		c-0.5-0.2-1.2-0.3-1.8-0.5c-1.3-0.3-2.5-0.4-3,0.5l0,0c-0.1,0.1-0.1,0.3-0.1,0.5c0,0.2,0.1,0.4,0.2,0.7c0.4,0.6,1.3,1.3,1.9,1.7
		c0.5,0.3,0.9,0.6,1.1,0.7c-1.8,0.6-2.5,1.8-2.5,2.8c0,0,0,0,0,0.1c0,1,0.6,2.1,1.9,2.8c-0.5,0.3-1.2,0.7-1.8,1.1
		c-1.1,0.8-2,1.6-1.7,2.5l0,0c0.1,0.2,0.3,0.6,0.9,0.7c0.7,0.1,1.9-0.1,2.5-0.2c0.5-0.1,0.9-0.2,1.3-0.3c-0.2,0.5-0.3,1-0.3,1.5
		c0,0.8,0.3,1.5,0.7,2c0.6,0.7,1.7,1,3,0.8c-0.2,0.5-0.4,1.3-0.5,2.1c-0.2,1.3-0.3,2.5,0.5,3l0,0c0.2,0.1,0.6,0.2,1.2-0.1
		c0.6-0.4,1.3-1.3,1.7-1.9c0.3-0.4,0.5-0.8,0.7-1c0.6,1.3,1.6,1.9,2.5,1.9c1.1,0.1,2.4-0.6,3.1-2.1c0.2,0.4,0.5,1,0.8,1.4
		c0.7,1.1,1.5,2.1,2.4,1.9l0,0c0.2-0.1,0.6-0.2,0.8-0.9c0.1-0.3,0.1-0.7,0.1-1c0-0.5-0.1-1.1-0.1-1.5c-0.1-0.5-0.1-0.8-0.2-1.1
		c1.6,0.9,3,0.5,3.8-0.2c0.8-0.7,1.2-2.1,0.6-3.7c0.3,0.1,0.6,0.2,0.9,0.2l0,0.3l0.8,0c1.6,0,3.3,0.8,5.3,2.5
		c-1.3,0.2-2.7,0.6-4,1.6c-2,1.6-3,4.3-3,8c0,0.1,0,0.2,0,0.3l0,1.5l1.2-0.9c5.9-4.3,7.2-6.2,8.2-8.1c1,1.1,2,2.3,3.1,3.6
		c-5.1,0.9-9,5.1-9,10v0C89,84,88.5,83.4,88,82.8c-2.1-2.1-5.1-3.3-8.2-3.3c-6.1,0-11.1,4.6-11.1,10.2l0,20.6l22.2,0v0l20.6,0v0
		l20.6,0l0-20.6c0-2.6-1-5-2.9-6.9c-2.1-2.1-5.1-3.3-8.2-3.3c-4.1,0-7.6,2-9.6,5v0c0-5.1-4-9.3-9.3-10.1c0.9-1.1,1.8-2.1,2.6-3.1
		c1,1.4,3,3.1,7.6,6l1.2,0.7l0-1.4c0-0.1,0-0.2,0-0.3c0-6.1-3-6.8-5.9-7.6c-0.2,0-0.3-0.1-0.5-0.1c2.2-2.2,4-3.3,5.8-3.4
		c0,0.2-0.1,0.4-0.1,0.6c0,0.8,0.3,1.5,0.7,2c0.6,0.7,1.7,1,3,0.8c-0.2,0.5-0.4,1.3-0.5,2.1c-0.2,1.3-0.3,2.5,0.5,3l0,0
		c0.2,0.1,0.6,0.2,1.2-0.1c0.6-0.4,1.3-1.3,1.7-1.9c0.3-0.4,0.5-0.8,0.7-1c0.6,1.3,1.6,1.9,2.5,1.9c1.1,0.1,2.4-0.6,3.1-2.1
		c0.2,0.4,0.5,1,0.8,1.4c0.7,1.1,1.5,2.1,2.4,1.9l0,0c0.2-0.1,0.6-0.2,0.8-0.9c0.1-0.3,0.1-0.7,0.1-1c0-0.5-0.1-1.1-0.1-1.5
		c-0.1-0.5-0.1-0.8-0.2-1.1c1.6,0.9,3,0.5,3.8-0.2c0.8-0.7,1.2-2.1,0.6-3.7c0.4,0.1,0.9,0.2,1.3,0.3c1.3,0.3,2.5,0.4,3-0.5l0,0
		c0.1-0.1,0.1-0.3,0.1-0.5c0-0.2-0.1-0.4-0.2-0.7c-0.4-0.6-1.3-1.4-1.8-1.7c-0.2-0.1-0.4-0.3-0.5-0.4c1.7-0.6,2.3-1.8,2.4-2.8
		c0,0,0-0.1,0-0.1c0-1-0.6-2.1-1.9-2.8c0.4-0.2,0.9-0.6,1.4-0.9C138.9,54.7,139.8,53.9,139.5,53z"/>
	<path class="st2" d="M105.8,69.2c2-2.2,4-3.7,6-4.4c-0.7,0.1-1.7,0.3-2.3,0.1c-0.3-0.1-0.5-0.2-0.7-0.3c-1.1,0.7-2.2,1.6-3.4,2.7
		c2.9-7.6,2.1-8.9,2-11.7c-2.6,1.7-7,5-2.5,12.1c-1.2,1.1-2.4,2.4-3.8,3.8l0-19.9c4.9-0.2,12-1.8,11.8-14c-8.3,6-10.3,8.8-11.8,11.4
		l0-9.3c-0.4,0.5-1,0.8-1.5,1l0,12.2c-3.3-3.8,1.3-2.9-12.3-12.9c-0.2,12.6,7.3,13.9,12.3,14l0,18c-1.5-1.6-2.9-3-4.2-4.2
		c4.2-6.2,0.2-9.1-2.1-10.6c-0.1,2.5-0.8,3.6,1.8,10.4c-1.8-1.6-3.4-2.7-5-3.3c0.1,0.2,0.1,0.4,0.1,0.5c0,0.2-0.1,0.4-0.1,0.5l0,0
		c-0.1,0.2-0.2,0.3-0.4,0.4c1.6,0.6,3.2,1.8,4.8,3.4c-3.3,0.1-8.1,1.1-8,9.3c6.8-4.8,7.2-6.5,8.5-8.8c1.3,1.4,2.7,3,4.1,4.8
		c0.4,0,0.8-0.1,1.2-0.1c0.3,0,0.6,0,0.9,0c1.3-1.5,2.5-3,3.6-4.3c0.6,1.4,2.3,3.2,7.9,6.7C113,69.8,109.4,70.3,105.8,69.2z"/>
	<path class="st3" d="M89.4,89.8c0-4.8-4.3-8.7-9.5-8.7c-5.3,0-9.6,3.9-9.6,8.7l0,19.1l14.6,0l-0.1-19.1c-0.1-3.3-1.7-5.1-3.4-6.7
		c4,0.3,7.1,5.4,7.3,9.2l0,16.6h0.7L89.4,89.8z"/>
	<path class="st3" d="M130.7,89.8c0-4.8-4.3-8.7-9.6-8.7c-5.3,0-9.6,3.9-9.6,8.7l0,19.1l14.5,0L126,89.4c-0.1-3.4-1.7-5.3-3.4-6.9
		c4,0.3,7.1,5.5,7.3,9.5l0,16.8h0.8L130.7,89.8z"/>
	<path class="st3" d="M110,84.5c0-4.8-4.3-8.7-9.5-8.7c-5.3,0-9.6,3.9-9.6,8.7l0,24.3l14.4,0l-0.1-25.4c-0.1-3.3-1.7-5-3.4-6.5
		c4,0.3,7.1,5.2,7.3,9l0,23h0.9L110,84.5z"/>
	<ellipse transform="matrix(0.6305 -0.7762 0.7762 0.6305 16.5044 87.5174)" class="st4" cx="100.2" cy="26.4" rx="2.1" ry="2.1"/>
	<path class="st4" d="M109.3,24.7c-2,0.2-5.5,0.9-5.5,2c0,0.8,2.9,2,4.9,2.5c0.5-0.1,1.1-0.1,1.8,0.1c0.1,0,0.2,0,0.3,0.1
		c3.3-0.5,3.5-3.6,0.5-4.6C110.5,25.1,109.8,25,109.3,24.7z"/>
	<path class="st4" d="M109,33.1L109,33.1c-0.8-0.5-1.3-1-1.5-1.5c-1.6-1.3-4.2-2.9-5-2.2c-0.7,0.6,1,4.3,2.1,6
		c0.2,0.2,0.4,0.4,0.5,0.7c0.1,0.1,0.1,0.1,0.2,0.1C108.2,38.4,110.7,36.2,109,33.1C109,33.1,109,33.1,109,33.1L109,33.1z"/>
	<path class="st4" d="M101.6,36c-0.1-2-0.7-5.7-1.9-5.8c-1-0.1-2.6,4.1-2.9,5.9c0,0.2,0.1,0.4,0.1,0.7c0,0.2,0,0.3,0,0.5
		c0.5,3.4,3.8,3.5,4.7,0C101.4,36.8,101.5,36.4,101.6,36z"/>
	<path class="st4" d="M92.6,20.9c1.4,1.3,4.5,3.6,5.5,2.9c0.7-0.6-0.9-4.5-2-6.1c-0.2-0.2-0.4-0.4-0.6-0.7c0,0,0,0,0,0
		c-2.9-2.5-5.4-0.3-3.8,2.9C92.1,20.2,92.4,20.6,92.6,20.9z"/>
	<path class="st4" d="M90.6,28.3c1.7-0.1,6.2-0.9,6.3-2.2c0-1.2-6.1-3-6.8-2.6c-3.7,0.5-3.8,3.8-0.4,4.7
		C90,28.2,90.3,28.2,90.6,28.3z"/>
	<path class="st4" d="M94.6,34.8c1.1-1.2,3.8-5.1,2.9-6.1c-0.7-0.7-5.1,1.5-6.3,2.6c-0.1,0.1-0.2,0.2-0.2,0.3c0,0.1-0.1,0.1-0.1,0.1
		c-2.2,2.8-0.2,5.2,2.6,3.8C93.9,35.1,94.2,34.9,94.6,34.8z"/>
	<path class="st4" d="M99,15.1L99,15.1c0.3,1.1,0.1,1.9-0.3,2.4c0.2,2,0.7,5.1,1.8,5.3c1.2,0.1,3.3-5.9,3-6.7
		C103.2,12.5,100.1,12.1,99,15.1C98.9,15.1,99,15.1,99,15.1L99,15.1z"/>
	<path class="st4" d="M105.9,18.1c-1.2,1.2-3.9,5-3,6c0.8,0.9,6.5-2,6.7-2.8c2.3-2.9,0.2-5.3-2.8-3.8
		C106.5,17.8,106.2,18,105.9,18.1z"/>
	<path class="st4" d="M95.6,11.8c-0.6,0.1-0.1,3.8,0.3,4.2c1.1,2.1,2.7,1.6,2.2-0.7C98,14.8,96.3,11.6,95.6,11.8L95.6,11.8z"/>
	<path class="st4" d="M107.3,12c-0.5-0.3-2.7,2.7-2.7,3.2c-0.7,2.3,0.9,3,2.1,1C106.9,15.7,107.9,12.4,107.3,12L107.3,12z"/>
	<path class="st4" d="M114.8,21.3c-0.2-0.5-3.8,0.1-4.2,0.5c-2.1,1.2-1.4,2.8,0.8,2.2C111.9,23.8,115,22,114.8,21.3L114.8,21.3z"/>
	<path class="st4" d="M113.7,32.9c0.3-0.5-2.8-2.7-3.3-2.7c-2.3-0.7-3,0.9-1,2.1C109.9,32.6,113.3,33.5,113.7,32.9L113.7,32.9z"/>
	<path class="st4" d="M104.9,41.1c0.5-0.1,0.1-3.8-0.3-4.2c-1.1-2.1-2.7-1.6-2.2,0.7C102.6,38.1,104.2,41.2,104.9,41.1L104.9,41.1z"
		/>
	<path class="st4" d="M93.2,41c0.5,0.3,2.6-2.8,2.6-3.3c0.6-2.3-1-3-2.1-1C93.4,37.3,92.6,40.7,93.2,41L93.2,41z"/>
	<path class="st4" d="M85.5,32c0.2,0.5,3.8-0.2,4.2-0.6c2-1.2,1.4-2.8-0.9-2.2C88.3,29.5,85.3,31.3,85.5,32L85.5,32z"/>
	<path class="st4" d="M86.4,19.7c-0.3,0.5,2.8,2.7,3.3,2.7c2.3,0.6,3-0.9,1-2.1C90.2,20,86.8,19,86.4,19.7L86.4,19.7z"/>
	<ellipse transform="matrix(0.6303 -0.7763 0.7763 0.6303 0.5849 117.9237)" class="st4" cx="124.1" cy="58.3" rx="2.1" ry="2.1"/>
	<path class="st4" d="M133.3,56.7c-2,0.2-5.5,0.9-5.5,2c0,0.8,2.9,2,4.9,2.5c0.5-0.1,1.1-0.1,1.8,0.1c0.1,0,0.2,0,0.3,0.1
		c3.3-0.5,3.5-3.6,0.5-4.6C134.4,57,133.7,56.9,133.3,56.7z"/>
	<path class="st4" d="M132.9,65L132.9,65c-0.8-0.5-1.3-1-1.5-1.5c-1.6-1.3-4.2-2.9-5-2.2c-0.7,0.6,1,4.3,2.1,6
		c0.2,0.2,0.4,0.4,0.5,0.7c0.1,0.1,0.1,0.1,0.2,0.1C132.2,70.4,134.7,68.1,132.9,65C132.9,65,132.9,65,132.9,65L132.9,65z"/>
	<path class="st4" d="M125.5,67.9c-0.1-2-0.7-5.7-1.9-5.8c-1-0.1-2.6,4.1-2.9,5.9c0,0.2,0.1,0.4,0.1,0.7c0,0.2,0,0.3,0,0.5
		c0.5,3.4,3.8,3.5,4.7,0C125.4,68.7,125.4,68.3,125.5,67.9z"/>
	<path class="st4" d="M116.5,52.8c1.4,1.3,4.5,3.6,5.5,2.9c0.7-0.6-0.9-4.5-2-6.1c-0.2-0.2-0.4-0.4-0.6-0.7c0,0,0,0,0,0
		c-2.9-2.5-5.4-0.3-3.8,2.9C116.1,52.1,116.4,52.5,116.5,52.8z"/>
	<path class="st4" d="M114.5,60.2c1.7-0.1,6.2-0.9,6.3-2.2c0-1.2-6.1-3-6.8-2.6c-3.7,0.5-3.8,3.8-0.4,4.7
		C113.9,60.1,114.2,60.2,114.5,60.2z"/>
	<path class="st4" d="M118.5,66.7c1.1-1.2,3.8-5.1,2.9-6.1c-0.7-0.7-5.1,1.5-6.3,2.6c-0.1,0.1-0.2,0.2-0.3,0.3c0,0-0.1,0.1-0.1,0.1
		c-2.2,2.8-0.2,5.2,2.6,3.8C117.8,67,118.2,66.8,118.5,66.7z"/>
	<path class="st4" d="M122.9,47L122.9,47c0.3,1.1,0.1,1.9-0.3,2.4c0.2,2,0.7,5.1,1.8,5.3c1.2,0.1,3.3-5.9,3-6.7
		C127.2,44.4,124.1,44,122.9,47C122.9,47,122.9,47,122.9,47L122.9,47z"/>
	<path class="st4" d="M129.9,50c-1.2,1.2-3.9,5-3,6c0.8,0.9,6.5-2,6.7-2.8c2.3-2.9,0.2-5.3-2.8-3.8C130.5,49.7,130.2,49.9,129.9,50z
		"/>
	<path class="st4" d="M119.6,43.7c-0.5,0.1-0.1,3.8,0.3,4.2c1.1,2.1,2.7,1.6,2.2-0.7C121.9,46.7,120.3,43.6,119.6,43.7L119.6,43.7z"
		/>
	<path class="st4" d="M131.3,43.9c-0.5-0.3-2.7,2.7-2.7,3.2c-0.7,2.3,0.9,3,2.1,1C130.9,47.7,131.9,44.3,131.3,43.9L131.3,43.9z"/>
	<path class="st4" d="M138.7,53.2c-0.2-0.5-3.8,0.1-4.2,0.5c-2.1,1.2-1.4,2.8,0.8,2.2C135.9,55.7,138.9,53.9,138.7,53.2L138.7,53.2z
		"/>
	<path class="st4" d="M137.6,64.8c0.3-0.5-2.8-2.7-3.3-2.7c-2.3-0.7-3,0.9-1,2.1C133.8,64.5,137.2,65.5,137.6,64.8L137.6,64.8z"/>
	<path class="st4" d="M128.9,73c0.5-0.1,0.1-3.8-0.3-4.2c-1.1-2.1-2.7-1.6-2.2,0.7C126.5,70,128.2,73.1,128.9,73L128.9,73z"/>
	<path class="st4" d="M117.1,72.9c0.5,0.3,2.6-2.8,2.6-3.3c0.6-2.3-1-3-2.1-1C117.4,69.2,116.5,72.6,117.1,72.9L117.1,72.9z"/>
	<path class="st4" d="M109.5,63.9c0.2,0.5,3.8-0.2,4.2-0.6c2-1.2,1.4-2.8-0.9-2.2C112.2,61.4,109.2,63.2,109.5,63.9L109.5,63.9z"/>
	<path class="st4" d="M110.4,51.6c-0.3,0.5,2.8,2.7,3.3,2.7c2.3,0.7,3-0.9,1-2.1C114.1,51.9,110.7,51,110.4,51.6L110.4,51.6z"/>
	<ellipse transform="matrix(0.6305 -0.7762 0.7762 0.6305 -17.2217 80.5121)" class="st4" cx="76" cy="58.3" rx="2.1" ry="2.1"/>
	<path class="st4" d="M85.1,56.7c-2,0.2-5.5,0.9-5.5,2c0,0.8,2.9,2,4.9,2.5c0.5-0.1,1.1-0.1,1.8,0.1c0.1,0,0.2,0,0.3,0.1
		c3.3-0.5,3.5-3.6,0.5-4.6C86.2,57,85.6,56.9,85.1,56.7z"/>
	<path class="st4" d="M84.7,65L84.7,65c-0.8-0.5-1.3-1-1.5-1.5c-1.6-1.3-4.2-2.9-5-2.2c-0.7,0.6,1,4.3,2.1,6
		c0.2,0.2,0.4,0.4,0.5,0.7C81,67.9,81,68,81.1,68C84,70.4,86.5,68.1,84.7,65C84.8,65,84.8,65,84.7,65L84.7,65z"/>
	<path class="st4" d="M77.3,67.9c-0.1-2-0.7-5.7-1.9-5.8c-1-0.1-2.6,4.1-2.9,5.9c0,0.2,0.1,0.4,0.1,0.7c0,0.2,0,0.3,0,0.5
		c0.5,3.4,3.8,3.5,4.7,0C77.2,68.7,77.2,68.3,77.3,67.9z"/>
	<path class="st4" d="M68.4,52.8c1.4,1.3,4.5,3.6,5.5,2.9c0.7-0.6-0.9-4.5-2-6.1c-0.2-0.2-0.4-0.4-0.6-0.7c0,0,0,0,0,0
		c-2.9-2.5-5.4-0.3-3.8,2.9C67.9,52.1,68.2,52.5,68.4,52.8z"/>
	<path class="st4" d="M66.3,60.2c1.7-0.1,6.2-0.9,6.3-2.2c0-1.2-6.1-3-6.8-2.6c-3.7,0.5-3.8,3.8-0.4,4.7
		C65.7,60.1,66.1,60.2,66.3,60.2z"/>
	<path class="st4" d="M70.4,66.7c1.1-1.2,3.8-5.1,2.9-6.1c-0.7-0.7-5.1,1.5-6.3,2.6c-0.1,0.1-0.2,0.2-0.3,0.3c0,0-0.1,0.1-0.1,0.1
		c-2.2,2.8-0.2,5.2,2.6,3.8C69.6,67,70,66.8,70.4,66.7z"/>
	<path class="st4" d="M74.7,47L74.7,47c0.3,1.1,0.1,1.9-0.3,2.4c0.2,2,0.7,5.1,1.8,5.3c1.2,0.1,3.3-5.9,3-6.7
		C79,44.4,75.9,44,74.7,47C74.7,47,74.7,47,74.7,47L74.7,47z"/>
	<path class="st4" d="M81.7,50c-1.2,1.2-3.9,5-3,6c0.8,0.9,6.5-2,6.7-2.8c2.3-2.9,0.2-5.3-2.8-3.8C82.3,49.7,82,49.9,81.7,50z"/>
	<path class="st4" d="M71.4,43.7c-0.5,0.1-0.1,3.8,0.3,4.2c1.1,2.1,2.7,1.6,2.2-0.7C73.7,46.7,72.1,43.6,71.4,43.7L71.4,43.7z"/>
	<path class="st4" d="M83.1,43.9c-0.5-0.3-2.7,2.7-2.7,3.2c-0.7,2.3,0.9,3,2.1,1C82.7,47.7,83.7,44.3,83.1,43.9L83.1,43.9z"/>
	<path class="st4" d="M90.5,53.2c-0.2-0.5-3.8,0.1-4.2,0.5c-2.1,1.2-1.4,2.8,0.8,2.2C87.7,55.7,90.7,53.9,90.5,53.2L90.5,53.2z"/>
	<path class="st4" d="M89.4,64.8c0.3-0.5-2.8-2.7-3.3-2.7c-2.3-0.7-3,0.9-1,2.1C85.7,64.5,89.1,65.5,89.4,64.8L89.4,64.8z"/>
	<path class="st4" d="M80.7,73c0.5-0.1,0.1-3.8-0.3-4.2c-1.1-2.1-2.7-1.6-2.2,0.7C78.4,70,80,73.1,80.7,73L80.7,73z"/>
	<path class="st4" d="M69,72.9c0.5,0.3,2.6-2.8,2.6-3.3c0.6-2.3-1-3-2.1-1C69.2,69.2,68.3,72.6,69,72.9L69,72.9z"/>
	<path class="st4" d="M61.3,63.9c0.2,0.5,3.8-0.2,4.2-0.6c2-1.2,1.4-2.8-0.9-2.2C64.1,61.4,61.1,63.2,61.3,63.9L61.3,63.9z"/>
	<path class="st4" d="M62.2,51.6c-0.3,0.5,2.8,2.7,3.3,2.7c2.3,0.6,3-0.9,1-2.1C66,51.9,62.6,51,62.2,51.6L62.2,51.6z"/>
</g>
</svg>
