<?xml version="1.0" encoding="utf-8"?>
<!-- Generator: Adobe Illustrator 21.1.0, SVG Export Plug-In . SVG Version: 6.00 Build 0)  -->
<svg version="1.1" id="Layer_1" xmlns="http://www.w3.org/2000/svg" xmlns:xlink="http://www.w3.org/1999/xlink" x="0px" y="0px"
	 viewBox="0 0 200 200" style="enable-background:new 0 0 200 200;" xml:space="preserve">
<style type="text/css">
	.st0{fill:#F2F904;}
	.st1{fill:#30358E;}
	.st2{fill:#FFFFFF;}
</style>
<g>
	<path d="M171.3,0h-2.8h-137h-2.8v2.8v105.6c0,12.1,1.8,23.5,5.3,33.9c3.4,9.9,8.4,18.9,14.8,26.8c12.2,14.9,29.7,25.6,50.5,30.8
		l0.7,0.2l0.7-0.2c20.8-5.3,38.3-15.9,50.5-30.8c6.4-7.9,11.4-16.9,14.8-26.8c3.5-10.3,5.3-21.7,5.3-33.9V2.8V0L171.3,0z"/>
	<path class="st0" d="M31.5,2.8v105.6c0,48.6,29.1,78.8,68.5,88.7c39.4-10,68.5-40.1,68.5-88.7V2.8H31.5z"/>
	<rect x="34.3" y="5.6" width="131.4" height="24"/>
	<path d="M34.3,32.4v76c0,11.5,1.7,22.3,5,32.1c3.2,9.3,7.8,17.7,13.8,25c11.3,13.8,27.5,23.7,46.9,28.8c19.3-5,35.5-15,46.9-28.8
		c6-7.3,10.7-15.7,13.8-25c3.3-9.8,5-20.6,5-32.1v-76H34.3z"/>
	<path class="st1" d="M128,83.5c-0.5-1.6-0.7-3.1-0.7-4.4c0-2.8,1-4.8,2.2-6c0.1,1.6,0.8,3.1,1.7,4.2c0.8,1,1.9,1.7,3.2,2v7.8h0
		l-1.5,1.8l-1.5-1.8h-0.8H127h-0.8l-1.5,1.8l-1.5-1.8h-0.3v-4.3c1.2,1.1,2.6,1.8,4.3,1.8c0.3,0,0.6-0.1,0.7-0.4
		C128,84,128,83.7,128,83.5z"/>
	<path class="st1" d="M131.8,62.6c-3.7,0-6.8,1.2-9,3.3c0,0,0,0,0,0V35.2h11.5v27.7C133.5,62.7,132.7,62.6,131.8,62.6z"/>
	<path class="st1" d="M100.7,74.1c-0.5-1.6-0.7-3.1-0.7-4.4c0-2.8,1-4.8,2.2-6c0.1,1.6,0.8,3.1,1.7,4.2c0.5,0.6,1.2,1.1,1.9,1.5v9.8
		l-0.3,0.3l-1.5-1.8h-0.8h-3.4h-0.8l-1.5,1.8l-1.5-1.8h-0.8h-0.8v-5.9c0,0,0.1,0.1,0.1,0.1c1.3,2,3.2,3.3,5.5,3.3
		c0.3,0,0.6-0.1,0.7-0.4C100.7,74.7,100.8,74.4,100.7,74.1z"/>
	<path class="st1" d="M104.6,53.2c-3.7,0-6.8,1.2-9,3.3c-0.5,0.5-0.9,1-1.3,1.5V35.2h11.5v18.1C105.4,53.3,105,53.2,104.6,53.2z"/>
	<polygon class="st1" points="66.9,103.6 66.2,103.6 65.7,103.6 65.7,78.1 66.9,79.7 	"/>
	<path class="st1" d="M77.2,69l-0.5-0.6h-0.8h-3.4h-0.8l-1.5,1.8l-1.5-1.8h-0.8h-2h-0.1v-8.6c0.4,1.1,0.8,2,1.4,2.9
		c1.3,2,3.2,3.3,5.5,3.3c0.3,0,0.6-0.1,0.7-0.4c0.2-0.2,0.2-0.5,0.1-0.8c-0.5-1.6-0.7-3.1-0.7-4.4c0-2.8,1-4.8,2.2-6
		c0.1,1.6,0.8,3.1,1.7,4.2c0.2,0.2,0.4,0.4,0.6,0.6V69z"/>
	<path class="st1" d="M77.2,43.9c-3.6,0-6.7,1.3-8.8,3.3c-1.2,1.1-2.1,2.5-2.6,4v-16h11.5V43.9z"/>
	<path class="st1" d="M41.8,128.9v1.8v5.5l-0.9-0.1c-2.5-8.5-3.7-17.8-3.7-27.6V35.2h11.5v95.9l-4.8-4.5L41.8,128.9z"/>
	<polygon class="st2" points="51.4,128.1 51.4,35.2 62.9,35.2 62.9,112.7 	"/>
	<path class="st2" d="M83.2,109.7l1.3-2.1l-1.6-4h-0.8h-0.7V79.7l2.3-3.1l-1-2.3l1.7-2.7l-1-3.2h-0.8h-2H80v-7.8
		c0.3,0.1,0.7,0.1,1,0.1c1.7,0,3.3-0.8,4.4-2.1c1.1-1.3,1.7-3,1.7-4.9c0-4.5-3-8.2-7.1-9.4v-9.1h11.5l0,45l-0.2,0.8l0.2,0.4v34.6
		l-0.4,1l0.4,0.6v2.8l-0.2,0.2L83.2,109.7z"/>
	<path class="st2" d="M119.7,128.3l-1.1,1.5l-8.1-10.9l1.3-2.1l-1.6-4h-0.8h-0.7V89.1l2.3-3.1l-1-2.3l1.7-2.7l-1-3.2h-0.8h-1.3v-7.7
		c1.6-0.1,3-0.9,4.1-2.1c1.1-1.3,1.7-3,1.7-4.9c0-4-2.4-7.4-5.8-8.9V35.2H120v35.2c-0.3,1.1-0.5,2.2-0.5,3.4c0,1.4,0.2,2.7,0.5,3.9
		v9.3h-0.5l-1,3.2l1.5,2.5v0.5l-0.9,2l0.9,1.2v25.8h-0.1l-1.6,4L119.7,128.3z"/>
	<path class="st2" d="M137.7,128.3l1.3-2.1l-1.6-4h-0.4V96.8l1.1-1.5l-1-2.3l1.7-2.7l-1-3.2h-0.8v-7.9c1.1-0.3,2-1,2.8-1.9
		c1.1-1.3,1.7-3,1.7-4.9c0-3.5-1.8-6.5-4.5-8.2V35.2h11.5v107.7L137.7,128.3z"/>
	<path class="st1" d="M162.9,108.4c0,11.2-1.6,21.7-4.9,31.2c-0.9,2.7-2,5.3-3.1,7.8v-1.9l-2.8,2.1l-0.7-0.9V35.2h11.5V108.4z"/>
	<rect x="73.8" y="124.1" class="st0" width="11.4" height="6.7"/>
	<polygon class="st0" points="71.7,110.3 66.2,110.3 62.7,115 71.7,115 	"/>
	<polygon class="st0" points="72.9,110.3 72.9,115 84.8,115 81.3,110.3 	"/>
	<polygon class="st0" points="81,122.9 90.7,122.9 85.7,116.2 81,116.2 	"/>
	<rect x="66.3" y="116.2" class="st0" width="13.5" height="6.7"/>
	<polygon class="st0" points="56.8,122.9 65.1,122.9 65.1,116.2 61.8,116.2 	"/>
	<polygon class="st0" points="57.9,124.1 55.9,124.1 50.9,130.7 51.9,130.7 53.6,129.5 53.6,130.7 57.9,130.7 	"/>
	<polygon class="st0" points="72.6,124.1 59.1,124.1 59.1,130.7 63.2,130.7 64,129.8 65.1,130.7 72.6,130.7 	"/>
	<polygon class="st0" points="86.4,124.1 86.4,130.7 96.6,130.7 91.6,124.1 	"/>
	<polygon class="st0" points="75.1,103.6 77.7,105.4 78.5,103.6 79.4,103.6 79.4,98.9 74.4,98.9 74.4,103.6 	"/>
	<rect x="69.9" y="74.8" class="st0" width="3.2" height="4.1"/>
	<rect x="77.2" y="89" class="st0" width="2.3" height="4.6"/>
	<rect x="68.1" y="89" class="st0" width="2.3" height="4.6"/>
	<path class="st0" d="M79.4,84.4h-2.5c0.1,0.5,0.2,1,0.2,1.5v1.8h2.3V84.4z"/>
	<path class="st0" d="M79.4,80.1h-5.1v1.6c0.7,0.2,1.4,0.6,1.9,1.3c0.1,0.1,0.1,0.2,0.2,0.3h3V80.1z"/>
	<rect x="74.4" y="74.8" class="st0" width="3.2" height="4.1"/>
	<path class="st0" d="M68.1,83.2h3c0.1-0.1,0.1-0.2,0.2-0.3c0.5-0.6,1.1-1.1,1.9-1.3v-1.6h-5.1V83.2z"/>
	<path class="st0" d="M68.1,84.4v3.3h2.3v-1.8c0-0.5,0.1-1,0.2-1.5H68.1z"/>
	<rect x="68.1" y="94.8" class="st0" width="2.3" height="2.9"/>
	<rect x="71.6" y="94.8" class="st0" width="7.9" height="2.9"/>
	<polygon class="st0" points="81.5,76.5 80.8,74.8 78.8,74.8 78.8,78.9 79.7,78.9 	"/>
	<polygon class="st0" points="80.9,73.6 82.3,71.4 81.7,69.6 80.3,69.6 78.6,71.6 77,71.6 75.3,69.6 72.2,69.6 70.5,71.6 68.9,71.6 
		67.2,69.6 65.8,69.6 65.3,71.4 66.6,73.6 	"/>
	<polygon class="st0" points="66,76.5 67.8,78.9 68.7,78.9 68.7,74.8 66.7,74.8 	"/>
	<polygon class="st0" points="69.8,105.4 72.4,103.6 73.2,103.6 73.2,98.9 68.1,98.9 68.1,103.6 69,103.6 	"/>
	<polygon class="st0" points="81.3,109.1 82.4,107.4 81.3,104.8 79.3,104.8 78.2,107.2 74.7,104.8 72.8,104.8 69.3,107.2 
		68.2,104.8 66.2,104.8 65.1,107.4 66.2,109.1 	"/>
	<polygon class="st0" points="53.6,138 56.8,138.5 62,139.3 62,133.9 62,132.1 62.2,131.9 53.6,131.9 	"/>
	<polygon class="st0" points="81.8,131.9 66.4,131.9 70.1,135.4 73.8,132.7 73.8,141.2 81.8,141.2 	"/>
	<polygon class="st0" points="49.8,132.2 49.9,132.2 50.3,131.9 50,131.9 	"/>
	<polygon class="st0" points="83,131.9 83,134.5 84.3,133 90.4,138.6 94.1,135.9 94.1,141.2 102.6,141.2 102.6,140.3 102.6,138.8 
		97.5,131.9 	"/>
	<polygon class="st0" points="112.4,133.4 101.1,133.4 101.1,133.7 103.7,137.2 104.6,136.2 108.8,140.1 112.4,140.1 	"/>
	<polygon class="st0" points="98.9,124.3 98.9,119.6 93.5,119.6 92,121.5 94.1,124.3 	"/>
	<polygon class="st0" points="100.1,119.6 100.1,124.3 112.1,124.3 108.6,119.6 	"/>
	<polygon class="st0" points="108.3,125.5 108.3,132.2 118,132.2 113,125.5 	"/>
	<polygon class="st0" points="100,132.2 107.1,132.2 107.1,125.5 95,125.5 	"/>
	<polygon class="st0" points="118.9,133.4 113.6,133.4 113.6,139.6 114.4,139.1 114.4,140.1 123.9,140.1 	"/>
	<polygon class="st0" points="102.4,112.9 105,114.7 105.8,112.9 106.7,112.9 106.7,108.2 101.6,108.2 101.6,112.9 	"/>
	<rect x="97.2" y="84.1" class="st0" width="3.2" height="4.1"/>
	<rect x="104.4" y="98.3" class="st0" width="2.3" height="4.6"/>
	<rect x="95.4" y="98.3" class="st0" width="2.3" height="4.6"/>
	<path class="st0" d="M106.7,93.8h-2.5c0.1,0.5,0.2,1,0.2,1.5v1.8h2.3V93.8z"/>
	<path class="st0" d="M106.7,89.5h-5.1V91c0.7,0.2,1.4,0.6,1.9,1.3c0.1,0.1,0.1,0.2,0.2,0.3h3V89.5z"/>
	<rect x="101.6" y="84.1" class="st0" width="3.2" height="4.1"/>
	<path class="st0" d="M95.4,92.6h3c0.1-0.1,0.1-0.2,0.2-0.3c0.5-0.6,1.1-1.1,1.9-1.3v-1.6h-5.1V92.6z"/>
	<path class="st0" d="M95.4,93.8v3.3h2.3v-1.8c0-0.5,0.1-1,0.2-1.5H95.4z"/>
	<rect x="95.4" y="104.1" class="st0" width="2.3" height="2.9"/>
	<rect x="98.8" y="104.1" class="st0" width="7.9" height="2.9"/>
	<polygon class="st0" points="108.8,85.8 108.1,84.1 106.1,84.1 106.1,88.3 107,88.3 	"/>
	<polygon class="st0" points="108.2,82.9 109.5,80.8 108.9,78.9 107.6,78.9 105.9,80.9 104.3,80.9 102.6,78.9 99.5,78.9 97.8,80.9 
		96.2,80.9 94.5,78.9 93.1,78.9 92.5,80.8 93.9,82.9 	"/>
	<polygon class="st0" points="93.3,85.8 95.1,88.3 96,88.3 96,84.1 94,84.1 	"/>
	<polygon class="st0" points="97.1,114.7 99.7,112.9 100.4,112.9 100.4,108.2 95.4,108.2 95.4,112.9 96.2,112.9 	"/>
	<polygon class="st0" points="108.6,118.4 109.6,116.8 108.6,114.1 106.6,114.1 105.4,116.5 102,114.1 100.1,114.1 96.6,116.5 
		95.5,114.1 93.5,114.1 92.4,116.8 93.5,118.4 	"/>
	<polygon class="st0" points="82.3,142.5 82.3,142.4 81.3,142.4 	"/>
	<polygon class="st0" points="94.1,144.4 102.6,145.7 102.6,142.4 94.1,142.4 	"/>
	<polygon class="st0" points="114.4,147.6 122.8,148.9 122.8,143.5 122.8,141.7 123.2,141.3 114.4,141.3 	"/>
	<polygon class="st0" points="110.3,141.5 110.7,141.8 111.4,141.3 110.3,141.3 	"/>
	<polygon class="st0" points="130.9,145 134,142.7 128.4,142.7 	"/>
	<rect x="134.6" y="142.7" class="st0" width="5.1" height="6.7"/>
	<polygon class="st0" points="126.2,129 120.7,129 119.3,130.9 121.4,133.6 126.2,133.6 	"/>
	<polygon class="st0" points="135.9,129 127.4,129 127.4,133.6 139.4,133.6 	"/>
	<polygon class="st0" points="135.6,134.8 135.6,141.5 145.3,141.5 140.3,134.8 	"/>
	<polygon class="st0" points="127.3,141.5 134.4,141.5 134.4,134.8 122.3,134.8 	"/>
	<polygon class="st0" points="145.3,142.7 148.2,145.4 146.2,142.7 	"/>
	<polygon class="st0" points="140.9,149.4 143.1,149.4 143.1,146.7 143.1,144.9 145,142.7 140.9,142.7 	"/>
	<polygon class="st0" points="129.7,122.2 132.2,124 133.1,122.2 134,122.2 134,117.5 128.9,117.5 128.9,122.2 	"/>
	<rect x="124.5" y="93.5" class="st0" width="3.2" height="4.1"/>
	<rect x="131.7" y="107.6" class="st0" width="2.3" height="4.6"/>
	<rect x="122.6" y="107.6" class="st0" width="2.3" height="4.6"/>
	<path class="st0" d="M134,103.1h-2.5c0.1,0.5,0.2,1,0.2,1.5v1.8h2.3V103.1z"/>
	<path class="st0" d="M134,98.8h-5.1v1.6c0.7,0.2,1.4,0.6,1.9,1.3c0.1,0.1,0.1,0.2,0.2,0.3h3V98.8z"/>
	<rect x="128.9" y="93.5" class="st0" width="3.2" height="4.1"/>
	<path class="st0" d="M122.6,101.9h3c0.1-0.1,0.1-0.2,0.2-0.3c0.5-0.6,1.1-1.1,1.9-1.3v-1.6h-5.1V101.9z"/>
	<path class="st0" d="M122.6,103.1v3.3h2.3v-1.8c0-0.5,0.1-1,0.2-1.5H122.6z"/>
	<rect x="122.6" y="113.4" class="st0" width="2.3" height="2.9"/>
	<rect x="126.1" y="113.4" class="st0" width="7.9" height="2.9"/>
	<polygon class="st0" points="136.1,95.1 135.4,93.5 133.4,93.5 133.4,97.6 134.3,97.6 	"/>
	<polygon class="st0" points="135.4,92.3 136.8,90.1 136.2,88.3 134.8,88.3 133.1,90.3 131.5,90.3 129.8,88.3 126.8,88.3 
		125.1,90.3 123.5,90.3 121.8,88.3 120.4,88.3 119.8,90.1 121.2,92.3 	"/>
	<polygon class="st0" points="120.5,95.1 122.3,97.6 123.2,97.6 123.2,93.5 121.2,93.5 	"/>
	<polygon class="st0" points="124.4,124 126.9,122.2 127.7,122.2 127.7,117.5 122.6,117.5 122.6,122.2 123.5,122.2 	"/>
	<polygon class="st0" points="135.8,127.7 136.9,126.1 135.9,123.4 133.9,123.4 132.7,125.8 129.3,123.4 127.3,123.4 123.9,125.8 
		122.7,123.4 120.7,123.4 119.7,126.1 120.8,127.7 	"/>
	<polygon class="st0" points="134.6,150.6 134.6,150.8 136.4,151.1 136.4,150.6 	"/>
	<polygon class="st0" points="137.6,151.3 143.1,152.1 143.1,150.6 137.6,150.6 	"/>
	<path class="st2" d="M84,57.5c-0.8,0.9-1.9,1.5-3,1.5c-1.1,0-2.2-0.5-3-1.5c-0.8-0.9-1.3-2.3-1.3-3.8c0-0.3,0-0.6,0.1-1
		c0.1-0.3-0.1-0.7-0.4-0.9c-0.3-0.2-0.6-0.2-0.9-0.1C73,53,70.9,56,70.9,60.4c0,1.1,0.1,2.3,0.4,3.5c-1-0.3-2-1.1-2.8-2.3
		c-1.1-1.6-1.8-3.9-1.8-6.5c0-5.2,3.9-9.4,10.5-9.5c4.4,0,8,3.6,8,8C85.3,55.2,84.8,56.5,84,57.5z"/>
	<path class="st2" d="M111.2,66.8c-0.8,0.9-1.9,1.5-3,1.5c-1.1,0-2.2-0.5-3-1.5c-0.8-0.9-1.3-2.3-1.3-3.8c0-0.3,0-0.6,0.1-1
		c0.1-0.3-0.1-0.7-0.4-0.9c-0.3-0.2-0.6-0.2-0.9-0.1c-2.4,1.2-4.5,4.2-4.5,8.6c0,1.1,0.1,2.3,0.4,3.5c-1-0.3-2-1.1-2.8-2.3
		c-1.1-1.6-1.8-3.9-1.8-6.5c0-5.2,3.9-9.4,10.5-9.5c4.4,0,8,3.6,8,8C112.5,64.5,112,65.9,111.2,66.8z"/>
	<path class="st2" d="M138.5,76.1c-0.8,0.9-1.9,1.5-3,1.5c-1.1,0-2.2-0.5-3-1.5c-0.8-0.9-1.3-2.3-1.3-3.8c0-0.3,0-0.6,0.1-1
		c0.1-0.3-0.1-0.7-0.4-0.9c-0.3-0.2-0.6-0.2-0.9-0.1c-2.4,1.2-4.5,4.2-4.5,8.6c0,1.1,0.1,2.3,0.4,3.5c-1-0.3-2-1.1-2.8-2.3
		c-1.1-1.6-1.8-3.9-1.8-6.5c0-5.2,3.9-9.4,10.5-9.5c4.4,0,8,3.6,8,8C139.8,73.8,139.3,75.2,138.5,76.1z"/>
	<path class="st2" d="M147.8,151.1l-4.7-4.4v5.5v2.8l-11.4-1.8v-2.8v-5l-4.1,2.5l-4.7-4.4v5.5v2.8l-11.4-1.8l0,0v-2.8v-5l-4.1,2.5
		l-4.7-4.4v5.5v2.8l-11.4-1.8v-2.8v-5l-4.1,2.5l-4.7-4.4v5.5v2.8l-11.4-1.8v-2.8v-5l-4.1,2.5l-4.7-4.4v5.5v0v2.8l-11.4-1.8v-2.8v-5
		l-4.1,2.5l-4.7-4.4v5.5v2.8c0,0,0,0,0,0l0,0c0.1,0.2,0.1,0.4,0.2,0.6c3,8.9,7.5,17.1,13.3,24.1c10.8,13.2,26.2,22.7,44.7,27.6
		c18.4-4.9,33.9-14.5,44.7-27.6c2-2.4,3.8-5,5.5-7.6c0.6-1,1.2-1.9,1.7-2.9v-4.6L147.8,151.1z"/>
	<path class="st2" d="M39.8,10h12.5v2.6h-4.7v12.6h-3.2V12.6h-4.7V10z"/>
	<path class="st2" d="M54.1,10h7.7c4.1,0,4.8,3,4.8,4.3c0,1.7-0.9,3.1-2.4,3.6c1.3,0.6,1.9,1,1.9,3.9c0,2.2,0,2.8,0.7,3v0.4h-3.5
		c-0.2-0.7-0.3-1.5-0.3-3.1c0-2.1-0.1-2.9-2.5-2.9h-3.3v6h-3.1V10z M61,16.7c1.7,0,2.5-0.6,2.5-2.1c0-0.8-0.4-2-2.2-2h-4v4.1H61z"/>
	<path class="st2" d="M69.6,10h11.2v2.6h-8.1V16h7.5v2.6h-7.5v3.8h8.5v2.8H69.6V10z"/>
	<path class="st2" d="M89.7,10h6.9c3.2,0,4.8,1.8,4.8,4.9c0,2.8-1.9,4.9-5,4.9h-3.5v5.5h-3.2V10z M92.8,17.1h3
		c1.4,0,2.3-0.7,2.3-2.3c0-1.6-0.9-2.3-2.3-2.3h-3V17.1z"/>
	<path class="st2" d="M103.8,10H115v2.6h-8.1V16h7.5v2.6h-7.5v3.8h8.5v2.8h-11.6V10z"/>
	<path class="st2" d="M130.1,25.2h-3.2l-6-10.3h0v10.3h-3.1V10h3.2l6,10.4h0V10h3.1V25.2z"/>
	<path class="st2" d="M145.5,25.2h-3.2l-6-10.3h0v10.3h-3.1V10h3.2l6,10.4h0V10h3.1V25.2z"/>
	<path class="st2" d="M148.7,10h11.2v2.6h-8.1V16h7.5v2.6h-7.5v3.8h8.5v2.8h-11.6V10z"/>
	<path d="M73.9,158.1c-0.6,1.1-1.3,2.1-2.3,2.8c-0.7,0.5-1.9,1-3.2,1.4v3.3h3.7v10.7h5.3v-18.3H73.9z"/>
	<path d="M83.3,172.4l5.2-0.6c0.1,0.7,0.4,1.2,0.7,1.5c0.3,0.3,0.7,0.4,1.2,0.4c0.8,0,1.5-0.4,2-1.2c0.3-0.6,0.6-1.9,0.8-3.8
		c-0.6,0.6-1.3,1.1-1.9,1.3c-0.7,0.3-1.4,0.4-2.3,0.4c-1.7,0-3.1-0.6-4.2-1.7c-1.2-1.1-1.7-2.6-1.7-4.3c0-1.2,0.3-2.3,0.9-3.3
		c0.6-1,1.4-1.7,2.4-2.2c1-0.5,2.3-0.8,3.9-0.8c1.9,0,3.4,0.3,4.5,0.9c1.1,0.6,2,1.6,2.7,2.9c0.7,1.3,1,3.1,1,5.3
		c0,3.2-0.7,5.6-2.1,7.1c-1.4,1.5-3.4,2.3-5.9,2.3c-1.5,0-2.7-0.2-3.5-0.5c-0.9-0.3-1.6-0.8-2.1-1.5
		C84.1,174.1,83.6,173.3,83.3,172.4z M92.9,164.3c0-1-0.3-1.7-0.8-2.3c-0.5-0.6-1.1-0.8-1.9-0.8c-0.7,0-1.3,0.2-1.7,0.7
		c-0.5,0.5-0.7,1.2-0.7,2.2c0,1,0.2,1.8,0.7,2.3c0.5,0.5,1.1,0.8,1.8,0.8c0.7,0,1.3-0.3,1.8-0.8C92.7,166,92.9,165.3,92.9,164.3z"/>
	<path d="M102.7,158.4H115v4h-8.4l-0.4,2.7c0.6-0.3,1.2-0.5,1.7-0.6c0.6-0.1,1.1-0.2,1.7-0.2c1.9,0,3.4,0.5,4.6,1.6
		c1.2,1.1,1.8,2.5,1.8,4.1c0,1.2-0.3,2.3-0.9,3.3c-0.6,1.1-1.5,1.9-2.6,2.5c-1.1,0.6-2.5,0.8-4.2,0.8c-1.2,0-2.3-0.1-3.2-0.3
		c-0.9-0.2-1.6-0.6-2.2-1c-0.6-0.4-1.1-0.9-1.5-1.5c-0.4-0.6-0.7-1.3-1-2.1l5.3-0.6c0.1,0.8,0.4,1.4,0.9,1.8c0.5,0.4,1,0.6,1.7,0.6
		c0.7,0,1.3-0.3,1.8-0.8c0.5-0.5,0.7-1.3,0.7-2.4c0-1.1-0.2-1.9-0.7-2.4c-0.5-0.5-1.1-0.7-1.9-0.7c-0.5,0-1,0.1-1.5,0.4
		c-0.3,0.2-0.7,0.5-1.2,0.9l-4.4-0.6L102.7,158.4z"/>
	<path d="M132.3,162.5l-5.2,0.6c-0.1-0.7-0.4-1.2-0.7-1.5c-0.3-0.3-0.7-0.4-1.2-0.4c-0.8,0-1.5,0.4-2,1.2c-0.3,0.6-0.6,1.8-0.8,3.8
		c0.6-0.6,1.3-1.1,1.9-1.3c0.7-0.3,1.4-0.4,2.3-0.4c1.7,0,3.1,0.6,4.2,1.7c1.2,1.1,1.7,2.6,1.7,4.4c0,1.2-0.3,2.3-0.9,3.2
		c-0.6,1-1.4,1.7-2.4,2.2c-1,0.5-2.3,0.8-3.9,0.8c-1.9,0-3.4-0.3-4.5-0.9c-1.1-0.6-2-1.6-2.7-2.9c-0.7-1.3-1-3.1-1-5.3
		c0-3.2,0.7-5.6,2.1-7.1c1.4-1.5,3.4-2.3,5.9-2.3c1.5,0,2.7,0.2,3.5,0.5c0.9,0.3,1.6,0.8,2.2,1.5C131.6,160.7,132,161.5,132.3,162.5
		z M122.8,170.5c0,1,0.3,1.7,0.8,2.3c0.5,0.6,1.1,0.8,1.9,0.8c0.7,0,1.3-0.2,1.7-0.7c0.5-0.5,0.7-1.2,0.7-2.2c0-1-0.2-1.8-0.7-2.3
		c-0.5-0.5-1.1-0.8-1.8-0.8c-0.7,0-1.3,0.3-1.8,0.8C123,168.8,122.8,169.5,122.8,170.5z"/>
	<path class="st1" d="M72.7,156.9c-0.6,1.1-1.3,2.1-2.3,2.8c-0.7,0.5-1.9,1-3.2,1.4v3.3H71v10.7h5.3v-18.3H72.7z"/>
	<path class="st1" d="M82.1,171.2l5.2-0.6c0.1,0.7,0.4,1.2,0.7,1.5c0.3,0.3,0.7,0.4,1.2,0.4c0.8,0,1.5-0.4,2-1.2
		c0.3-0.6,0.6-1.9,0.8-3.8c-0.6,0.6-1.3,1.1-1.9,1.3c-0.7,0.3-1.4,0.4-2.3,0.4c-1.7,0-3.1-0.6-4.2-1.7c-1.2-1.1-1.7-2.6-1.7-4.3
		c0-1.2,0.3-2.3,0.9-3.3c0.6-1,1.4-1.7,2.4-2.2c1-0.5,2.3-0.8,3.9-0.8c1.9,0,3.4,0.3,4.5,0.9c1.1,0.6,2,1.6,2.7,2.9
		c0.7,1.3,1,3.1,1,5.3c0,3.2-0.7,5.6-2.1,7.1c-1.4,1.5-3.4,2.3-5.9,2.3c-1.5,0-2.7-0.2-3.5-0.5c-0.9-0.3-1.6-0.8-2.1-1.5
		C82.9,172.9,82.4,172.1,82.1,171.2z M91.7,163.1c0-1-0.3-1.7-0.8-2.3c-0.5-0.6-1.1-0.8-1.9-0.8c-0.7,0-1.3,0.2-1.7,0.7
		c-0.5,0.5-0.7,1.2-0.7,2.2c0,1,0.2,1.8,0.7,2.3c0.5,0.5,1.1,0.8,1.8,0.8c0.7,0,1.3-0.3,1.8-0.8C91.5,164.8,91.7,164.1,91.7,163.1z"
		/>
	<path class="st1" d="M101.5,157.2h12.4v4h-8.4l-0.4,2.7c0.6-0.3,1.2-0.5,1.7-0.6c0.6-0.1,1.1-0.2,1.7-0.2c1.9,0,3.4,0.5,4.6,1.6
		c1.2,1.1,1.8,2.5,1.8,4.1c0,1.2-0.3,2.3-0.9,3.3c-0.6,1.1-1.5,1.9-2.6,2.5c-1.1,0.6-2.5,0.8-4.2,0.8c-1.2,0-2.3-0.1-3.2-0.3
		c-0.9-0.2-1.6-0.6-2.2-1c-0.6-0.4-1.1-1-1.5-1.5c-0.4-0.6-0.7-1.3-1-2.1l5.3-0.6c0.1,0.8,0.4,1.4,0.9,1.8c0.5,0.4,1,0.6,1.7,0.6
		c0.7,0,1.3-0.3,1.8-0.8c0.5-0.5,0.7-1.3,0.7-2.4c0-1.1-0.2-1.9-0.7-2.4c-0.5-0.5-1.1-0.7-1.9-0.7c-0.5,0-1,0.1-1.5,0.4
		c-0.3,0.2-0.7,0.5-1.2,0.9l-4.4-0.6L101.5,157.2z"/>
	<path class="st1" d="M131.1,161.3l-5.2,0.6c-0.1-0.7-0.4-1.2-0.7-1.5c-0.3-0.3-0.7-0.4-1.2-0.4c-0.8,0-1.5,0.4-2,1.2
		c-0.3,0.6-0.6,1.8-0.8,3.8c0.6-0.6,1.3-1.1,1.9-1.3c0.7-0.3,1.4-0.4,2.3-0.4c1.7,0,3.1,0.6,4.2,1.7c1.2,1.1,1.7,2.6,1.7,4.4
		c0,1.2-0.3,2.3-0.9,3.2c-0.6,1-1.4,1.7-2.4,2.2c-1,0.5-2.3,0.8-3.9,0.8c-1.9,0-3.4-0.3-4.5-0.9c-1.1-0.6-2-1.6-2.7-2.9
		c-0.7-1.3-1-3.1-1-5.3c0-3.2,0.7-5.6,2.1-7.1c1.4-1.5,3.4-2.3,5.9-2.3c1.5,0,2.7,0.2,3.5,0.5c0.9,0.3,1.6,0.8,2.2,1.5
		C130.4,159.5,130.8,160.3,131.1,161.3z M121.6,169.3c0,1,0.3,1.7,0.8,2.3c0.5,0.6,1.1,0.8,1.9,0.8c0.7,0,1.3-0.2,1.7-0.7
		c0.5-0.5,0.7-1.2,0.7-2.2c0-1-0.2-1.8-0.7-2.3c-0.5-0.5-1.1-0.8-1.8-0.8c-0.7,0-1.3,0.3-1.8,0.8
		C121.8,167.6,121.6,168.3,121.6,169.3z"/>
</g>
</svg>
