<?xml version="1.0" encoding="utf-8"?>
<!-- Generator: Adobe Illustrator 21.1.0, SVG Export Plug-In . SVG Version: 6.00 Build 0)  -->
<svg version="1.1" id="Layer_1" xmlns="http://www.w3.org/2000/svg" xmlns:xlink="http://www.w3.org/1999/xlink" x="0px" y="0px"
	 viewBox="0 0 200 200" style="enable-background:new 0 0 200 200;" xml:space="preserve">
<style type="text/css">
	.st0{fill:none;stroke:#000000;stroke-width:1.0001;stroke-miterlimit:2.6131;}
	.st1{fill:#FFFFFF;stroke:#000000;stroke-width:1.0001;stroke-miterlimit:2.6131;}
	.st2{fill:#B30000;}
	.st3{stroke:#FFFFFF;stroke-width:2.0001;stroke-miterlimit:2.6131;}
	.st4{fill:#0C4099;stroke:#000000;stroke-width:1.3706;stroke-miterlimit:2.6131;}
	.st5{fill:#FF9900;stroke:#000000;stroke-width:1.3706;stroke-miterlimit:2.6131;}
	.st6{fill:#B30000;stroke:#000000;stroke-width:1.3706;stroke-miterlimit:2.6131;}
	.st7{fill:none;stroke:#000000;stroke-width:1.3706;stroke-miterlimit:2.6131;}
</style>
<g>
	<path class="st0" d="M100,26.1c-34,0-61.5,27.5-61.5,61.5c0,34,27.5,61.5,61.5,61.5c34,0,61.5-27.5,61.5-61.5
		C161.5,53.6,134,26.1,100,26.1L100,26.1z"/>
	<path class="st1" d="M100,0C51.6,0,12.4,39.2,12.4,87.6s39.2,87.6,87.6,87.6c48.4,0,87.6-39.2,87.6-87.6S148.4,0,100,0L100,0z
		 M100,149.1c-34,0-61.5-27.5-61.5-61.5c0-34,27.5-61.5,61.5-61.5c34,0,61.5,27.5,61.5,61.5C161.5,121.5,134,149.1,100,149.1
		L100,149.1z"/>
	<path class="st2" d="M100,26.1c-34,0-61.5,27.5-61.5,61.5c0,34,27.5,61.5,61.5,61.5c34,0,61.5-27.5,61.5-61.5
		C161.5,53.6,134,26.1,100,26.1L100,26.1z"/>
	<polygon class="st0" points="121.1,173.1 127.9,195.8 121.1,172.6 	"/>
	<polygon points="60.7,141.1 68.4,146 66.7,148.7 61.8,145.6 59.6,149 64.2,152 62.5,154.7 57.8,151.8 53.9,158 51.1,156.2 	"/>
	<path d="M77.7,152.9c3.2,1.1,4.8,4.5,3.8,7.7c-1,3.2-4.5,5-7.6,3.9c-3.1-1-4.8-4.6-3.8-7.7C71.1,153.6,74.5,151.8,77.7,152.9
		L77.7,152.9z M78.7,149.8c-4.9-1.6-10.2,1-11.8,5.9c-1.6,4.9,1.1,10.2,5.9,11.8c4.8,1.6,10.1-1,11.8-5.9
		C86.2,156.7,83.6,151.5,78.7,149.8L78.7,149.8z"/>
	<polygon points="92,156.7 88.7,156.4 89,153.2 98.9,154 98.7,157.2 95.3,156.9 94,171.6 90.7,171.3 	"/>
	<path d="M107.9,168.1l-0.5-4.6l1.4-0.1c0.8-0.1,1.6-0.2,2.4,0.1c0.8,0.4,1.3,0.8,1.4,1.7c0.1,0.7-0.1,1.4-0.7,1.8
		c-0.8,0.7-1.7,0.8-2.7,0.9L107.9,168.1L107.9,168.1z M104.9,171.7l4.5-0.4c1.7-0.2,3.5-0.5,4.8-1.7c1.3-1.2,1.9-2.7,1.7-4.5
		c-0.2-2-1.5-3.6-3.5-4c1.2-0.8,1.8-2.2,1.6-3.6c-0.2-1.7-1.4-3.2-2.9-3.8c-1.6-0.6-3.2-0.4-4.8-0.2l-3.2,0.3L104.9,171.7
		L104.9,171.7z M107.1,160.4l-0.4-3.6l0.6-0.1c0.7-0.1,1.5-0.3,2.2,0c0.7,0.2,1.2,0.7,1.3,1.5c0.1,0.7-0.3,1.4-0.8,1.7
		c-0.6,0.4-1.5,0.4-2.2,0.5L107.1,160.4L107.1,160.4z"/>
	<path d="M123.4,159.8l0-5.8l3.6,4.5L123.4,159.8L123.4,159.8z M119.6,169.5l3.4-1.2l0.3-5l6-2.1l3.4,3.7l3.4-1.2L123,149.3
		l-2.4,0.9L119.6,169.5L119.6,169.5z"/>
	<polygon points="131.6,145.4 134.4,143.6 142.3,156 146.9,153.1 148.6,155.8 141.2,160.5 	"/>
	<path class="st3" d="M62.3,102.3H81c0.1,9.9,2.7,10.7,8.1,10.7h23c4,0,8-0.6,8-7.8c0-8.1-2.2-8.6-26.4-8.6
		c-28.2,0-31.4-5.2-31.4-28.2c0-17,1-30,24.7-30h26.1c21.6,0,23.7,11.2,23.7,27.7v3H118c0-6.9-0.5-9.7-9-9.7H88.2
		c-4.2,0-7.1,2.2-7.1,7.3c0,8.2,2.3,8.4,22.4,8.3c29.1-0.1,35.8,2.6,35.8,29.8c0,25.2-5.5,29.3-30.4,29.3H86.2
		c-17.1,0-23.9-4.9-23.9-25.2V102.3L62.3,102.3z"/>
	<path class="st4" d="M77.7,172.9c-14.1-3.7-26.9-10.9-37.2-20.5l-16.8,17.5c13.3,12.4,29.6,21.6,47.7,26.4l6.1-22.3L77.7,172.9
		L77.7,172.9z"/>
	<path class="st5" d="M120.2,173.3c-14.2,3.5-28.8,3.3-42.5-0.2l-6.4,23.4c17.6,4.6,36.3,4.8,54.5,0.4l-5.3-22.5L120.2,173.3
		L120.2,173.3z"/>
	<path class="st6" d="M158,153.6c-10.9,9.7-23.9,16.3-37.7,19.7l5.3,23.6c17.7-4.2,34.4-12.7,48.4-25.1l-15.2-17.4L158,153.6
		L158,153.6z"/>
	<path class="st7" d="M40.5,152.4l17.8-18.8 M158,153.6l-17.1-19.1"/>
	<path class="st2" d="M33.2,112.3l1.4,3.4l-5.7,0.3l0,0L33.2,112.3L33.2,112.3z M36.5,103.4l-13.4,12.4l1.8,4.5l18.3-0.3l-1.8-4.4
		l-3.2,0l-2.3-5.7l2.3-2.1L36.5,103.4L36.5,103.4z"/>
	<path class="st2" d="M35.6,90.3c0.2,2.4-0.5,4.7-2,6.6c-1.5,2-3.7,3-6.2,3.2c-2.3,0.2-4.6-0.5-6.4-2c-1.9-1.5-3.1-3.9-3.3-6.3
		c-0.1-1.4,0.1-2.8,0.5-4.1l5.3-0.4c-1.1,1-1.7,2.5-1.6,4c0.2,2.7,2.4,4.4,5.1,4.2c2.7-0.2,4.5-2.2,4.3-5c-0.1-1.4-0.9-2.8-2.1-3.7
		l5.3-0.4C35.1,87.9,35.5,88.9,35.6,90.3L35.6,90.3z"/>
	<path class="st2" d="M40.4,58.4c0.6,1.7,0.3,3.5-0.3,5.1c-0.8,2-2.3,3.7-4.1,4.8l-2.6-3.1c1.3-0.7,2.5-1.6,3.1-3
		c0.4-1,0.3-2.2-0.8-2.6c-1.2-0.5-2.2,1-2.8,1.8c-1.8,2.3-3.1,3.7-6.2,2.5c-3.2-1.3-4.4-4.4-3.1-7.6c0.6-1.6,1.9-3.3,3.3-4.4
		l2.5,2.9c-0.9,0.5-1.7,1.3-2.2,2.3C27,57.8,27,59,27.9,59.4c0.9,0.4,1.7-0.6,2.2-1.2l0.7-0.9c1.5-1.9,3.3-3.2,5.9-2.2
		C38.4,55.7,39.9,56.7,40.4,58.4L40.4,58.4z"/>
	<path class="st2" d="M41.3,38.7c1.6,1.3,0.7,2.5-0.3,3.8L40.5,43l-3.4-2.6l0.5-0.6C38.7,38.5,39.6,37.3,41.3,38.7L41.3,38.7z
		 M44.1,34.9c-3.1-2.4-6-1.5-8.2,1.4l-4.2,5.4l13.5,10.5l2.7-3.5l-4.5-3.5l1.5-2C47.3,40.2,47.2,37.4,44.1,34.9L44.1,34.9z"/>
	<path class="st2" d="M59.8,28.5l-3,2.2l-1.7-5.5l0,0L59.8,28.5L59.8,28.5z M69.2,29.6L54,19.5L50,22.3L54.7,40l3.8-2.8l-0.8-3.1
		l5-3.6l2.6,1.8L69.2,29.6L69.2,29.6z"/>
	<path class="st2" d="M77.7,14.3c0.6,1.8-0.9,2.5-2.3,3L75,17.4l-1.3-4l0.4-0.1C75.4,12.8,77.1,12.5,77.7,14.3L77.7,14.3z
		 M87.2,23.3l-7.3-5c2.2-1.2,2.8-3.5,2-5.8c-1.1-3.5-4.1-4.2-7.3-3.1l-6.3,2.1l5.3,16.2l4.2-1.4l-2.1-6.2l0,0l6,4.9L87.2,23.3
		L87.2,23.3z"/>
	<polygon class="st2" points="98.2,9.2 98.9,22.5 94.4,22.7 93.8,9.4 90.1,9.6 89.9,5.9 101.7,5.3 101.9,9 	"/>
	<path class="st2" d="M117.1,18.3l-3.6-0.8l3-4.9l0,0L117.1,18.3L117.1,18.3z M122.6,26L120,7.9l-4.7-1l-10.1,15.3l4.6,1l1.8-2.6
		l6,1.3L118,25L122.6,26L122.6,26z"/>
	<path class="st2" d="M151.1,31.1c-1.4,1.6-2.6,0.6-3.8-0.5l-0.6-0.5l2.8-3.2l0.6,0.5C151.4,28.5,152.5,29.4,151.1,31.1L151.1,31.1z
		 M154.7,34c2.5-3,1.7-5.9-1.1-8.3l-5.2-4.4l-11.1,13l3.4,2.9l3.7-4.3l1.9,1.6C149.3,37,152.1,37,154.7,34L154.7,34z"/>
	<path class="st2" d="M164.9,47.4c-1.6,1-2.7-0.2-3.5-1.4l-0.2-0.4l3.6-2.3l0.2,0.4C165.8,44.8,166.5,46.4,164.9,47.4L164.9,47.4z
		 M158.6,58.9l3-8.3c1.7,1.8,4.1,1.8,6.1,0.5c3.1-2,3-5,1.2-7.8l-3.6-5.6L150.9,47l2.4,3.7l5.5-3.6l0,0l-3.2,7.1L158.6,58.9
		L158.6,58.9z"/>
	<path class="st2" d="M169,70.5l-1-3.6l5.7,0.4l0,0L169,70.5L169,70.5z M164.7,79l14.8-10.7l-1.3-4.7L160,61.8l1.2,4.5l3.2,0.4
		l1.6,5.9l-2.6,1.8L164.7,79L164.7,79z"/>
	<polygon class="st2" points="164.3,94.7 171.2,95.2 171.7,88.8 164.7,88.3 165,83.9 182,85 181.7,89.4 175.1,89 174.7,95.4 
		181.3,95.8 181,100.2 164,99.1 	"/>
	<path class="st2" d="M164.8,116.3l1.4-3.4l4.3,3.8l0,0L164.8,116.3L164.8,116.3z M156.2,120.4l18.2,0.6l1.9-4.5l-13.3-12.6
		l-1.8,4.4l2.3,2.2l-2.3,5.7l-3.2-0.1L156.2,120.4L156.2,120.4z"/>
</g>
</svg>
