<?xml version="1.0" encoding="utf-8"?>
<!-- Generator: Adobe Illustrator 21.1.0, SVG Export Plug-In . SVG Version: 6.00 Build 0)  -->
<svg version="1.1"
	 id="svg2" inkscape:version="0.48.2 r9819" sodipodi:docname="10360 SPL Community Report Sumary Final Proof low res.pdf" xmlns:cc="http://creativecommons.org/ns#" xmlns:dc="http://purl.org/dc/elements/1.1/" xmlns:inkscape="http://www.inkscape.org/namespaces/inkscape" xmlns:rdf="http://www.w3.org/1999/02/22-rdf-syntax-ns#" xmlns:sodipodi="http://sodipodi.sourceforge.net/DTD/sodipodi-0.dtd" xmlns:svg="http://www.w3.org/2000/svg"
	 xmlns="http://www.w3.org/2000/svg" xmlns:xlink="http://www.w3.org/1999/xlink" x="0px" y="0px" viewBox="0 0 200 200"
	 style="enable-background:new 0 0 200 200;" xml:space="preserve">
<style type="text/css">
	.st0{fill:#005FA7;}
	.st1{fill:url(#path3844_1_);}
	.st2{fill:#FFFFFF;}
	.st3{fill:#EB5C21;}
</style>
<g>
	<path id="path3816" inkscape:connector-curvature="0" class="st0" d="M177.5,155.2c-1.4,1.7-2.9,3.4-4.6,5.1l0,0l5.1,3.3v-8.4
		H177.5z M22,155.3v8.4l5.1-3.3l0,0c-1.7-1.7-3.3-3.4-4.6-5.1H22L22,155.3z M100.1,171.1c9.1,0,20-1.9,29.5-5.9
		c14.1-5.9,27.2-16.6,33.1-22.5l2.8,1.2c0.6-0.6,2.8-2.5,4.5-5.1c1.7-2.7,3.2-5.4,5.2-12.6c2.3-8.1,2.8-11.6,4.2-12.9
		c0,0,0.5,0.5,0.9,1.4c0.8,1.4,1.6,2.8,2.1,2.9c0.6,0,1.1-0.5,1.9-1c0.7-0.6,1.5-1,2-1.4c0,0,0.6,0.6,1.4,1.7
		c0.8,1.2,1.2,1.8,1.4,1.9c0.3,0.1,3.6-1.5,3.6-1.5s1.9,4.4,2.4,4.5s1.6-0.9,2.7-1.7c1.1-0.8,1.9-1.4,1.9-1.4s1,4.2-0.3,11.4
		c-2,9.9-7.3,18.4-9.7,22c-4.5,7.1-12.1,12.2-12.1,12.2l-5.4-3.5l0,0c-7.8,7.6-19,15.5-34.4,22.4c-9.5,4.3-26,8-37.7,8
		s-28.1-3.7-37.7-8c-15.4-6.9-26.6-14.7-34.4-22.2l0,0l-5.4,3.5c0,0-7.6-5.1-12.1-12.2c-2.3-3.6-7.7-12.1-9.6-22
		c-1.4-7.2-0.3-11.4-0.3-11.4s0.8,0.6,1.9,1.4c1,0.8,2.1,1.7,2.7,1.7c0.5-0.1,2.4-4.5,2.4-4.5s3.3,1.6,3.6,1.5
		c0.2-0.1,0.6-0.7,1.4-1.9c0.8-1.2,1.4-1.7,1.4-1.7c0.6,0.2,1.2,0.8,2,1.4c0.8,0.6,1.4,1,1.9,1c0.6-0.1,1.4-1.6,2.1-2.9
		c0.5-0.9,0.9-1.4,0.9-1.4c1.2,1.2,1.8,4.7,4.2,12.9c2,7.1,3.5,9.9,5.2,12.6c1.7,2.6,4,4.6,4.5,5.1l2.8-1.2
		c5.9,5.9,19,16.5,33.1,22.5C80,169.2,90.8,171.1,100.1,171.1"/>
	<path id="path3820" inkscape:connector-curvature="0" d="M100,28.4c2.5-3.3,6.2-5.4,6.2-5.4s-1.4-1.6-2.6-3.2
		c-1.2-1.6-1.2-2.1-1-2.1c0.2-0.1,0.6,0.2,1.5,0.6c1.5,0.7,4.3,1.9,6.7,2.1c1.6,0.2,3.8-0.2,6.2-0.3c2.7-0.2,3.3,0,4,0.7
		c0.3,0.5,0.1,1.1,0.1,1.1c3.8-1,5.8,1,6.9,3.6c1,2.7,0.9,4.3,0.9,4.3c-3.2-2.5-5.3-1-7.3-0.1c-2,0.9-3.7,0.6-3.7,0.6
		c-0.7,0.6-0.8,3.3-0.8,3.3c-1.1-0.2-3.2-0.1-4.3,0.6c-1.1,0.6-1.2,1.7-0.1,2.5c1,0.7,3,1,3,1c-4.3,1.5-4.3,6.2-0.7,6.5
		c1.6,0.1,3.2-0.7,3.2-0.7c0.5,2.1-0.1,3.5-1.2,4.4c-1.2,0.9-3.8,0.6-3.8,0.6c2.1,2.5,4.7,3.4,7.2,3.2c2.5-0.2,4.4-1.6,4.4-1.6
		c-0.3,1.9-0.7,2.9-1.9,4c-1.4,1-3.7,1.5-4.3,1.6c-0.6,0.1-0.7,1.6-0.7,1.6l1.9,1.7c5.6-3.5,8.9-0.6,8.9-0.6s-0.7-3.6,1.4-5.9
		c1.7-1.8,5-1.2,5-1.2c-4.7-6.2-3-9.9-2-11c1-1,12.5-12.4,12.5-12.4c-0.5-3,1.4-5.1,3.2-5.8c1.7-0.7,3.6-0.1,3.6-0.1
		c0.9-3,1.9-6.8,3.2-8.2c0.9-1,2.3-1,2.3-1c0.2-1.1,0.9-2.9,1.8-3.6c0.9-0.7,2.3-0.7,2.8,0.2c0.6,0.9,0.2,2.9,0.2,2.9
		c3.8,0.6,2.9,6.2,2.4,7.5c-0.6,1.2-1.6,1.9-1.6,1.9c-0.7,4.5-4.7,9.1-4.7,9.1c0.9-0.6,2.5-0.2,2.5-0.2s-0.1-1.8,0.6-3.2
		s1.9-2.4,2.9-3.2c0.9-0.7,1.7-1.6,2.8-3c1-1.4,1.9-1.9,3.5-1.7c1.6,0.2,2.4,1.4,2.7,2.8c0.2,1.4-0.2,3.6-0.9,4.6
		c-0.6,0.9-1.9,1.1-1.9,1.1s1,2.1,0.2,3.2c-0.6,0.7-0.9,0.9-1.5,1.4c-1.4,1.1-2.8,1.6-2.8,1.6c-0.3,3.7-4.5,4.3-4.5,4.3
		c-0.2,2.1-1.6,3-1.6,3c2.1-0.6,4.7-1.7,8.1-3.8c2.7-1.7,4.2-2.5,4.7-2.7c0.2-0.1,0.2,0.1,0.1,0.1c-1.2,2.8-2.4,9.3-3.8,10.4
		c-0.9,0.7-2.8,0.7-2.8,0.7c-0.6,1.6-1.6,2.4-2.1,2.7c-0.2,0.1-0.7,0.2-0.8,0.2c-3.5,0.6-5.2,1.5-6.4,2s-1.8,1-1.7,1.1
		c0.1,0.1,0.5,0.1,1.8-0.2c1.4-0.5,2.5-1,2.5-1c1.5,1.4,3,0.9,4.7,0.3c1.7-0.6,4.4-2,5.3-2.5c0.3-0.2,0.6-0.3,0.8-0.3
		c0.3-0.1,0.5,0.1,0.5,0.2c0.5,5-3.5,8.8-6.7,10.2c-3.5,1.4-8.6,1.7-8.6,1.7c6.2,0.7,8.7,2.4,9.5,2.8c0.9,0.5,1.1,0.7,1,1
		c-0.6,2-2.1,4.3-3.3,4.9c-0.7,0.3-5.2,0-8.2-0.2c-3-0.2-5.6-0.6-5.6-0.6s0.1,0.9,1.6,2.5c1.2,1.4,2.4,2,4.3,3c1.8,0.9,3.2,1,5,1.5
		c1.8,0.5,2.5,0.7,3.3,1.7c0.7,0.9,1.1,2,1,2.7c-0.2,1.4-1.4,2-2.5,2.6c-0.9,0.5-1.8,0.2-2.3,0.1c-0.1-0.1-0.2,0-0.3,0.1
		c-0.2,0.2-0.9,0.9-1.4,1.2c-0.3,0.2-1,0.5-1.7,0.1c-1.4-0.8-5.4-2.5-7.2-3s-2.8-0.5-2.8-0.5c1.5,1.2,4.3,3.5,6.7,5.1
		c1.8,1.2,3,1.9,3.6,2.1c0.1,0.1,0.1,0.3,0.1,0.5c-1.7,3.3-3.8,3.8-6.1,4c-2.4,0.1-4.7-0.7-6.8-2.1c-2-1.6-4.3-3.8-6.3-5.6
		c-2-1.7-3.7-2.4-3.7-2.4c0.9,2.3,2.4,4.6,4.7,7.6c1.9,2.4,4.1,4,4.7,4.3c0.5,0.2,0.6,0.5,0.7,0.6c0.1,0.2-0.1,0.5-0.1,0.5
		c-1.2,2.3-5.4,1.6-9.3-0.1c-4.4-1.8-7.9-6.5-7.9-6.5c0.3,2.7,2.9,7.7,3.5,8.7c0.1,0.1,0.1,0.2-0.1,0.5c-0.9,1.1-3.5,1.6-3.5,1.6
		c0.9,0.9,1.4,1.5,1.4,3.8c0,2.7-1,3.7-1,3.7c1.2,1.4,1.2,4,1.2,4c2.1,0.1,3.5,2,3.7,2.6c0.5,1.1,1.5,1.4,4,1.5
		c2.4,0.1,2.7-1.1,5.4-2c2.7-0.9,5.4-0.3,7.3,1c1.7,1.2,2.1,2.1,2.4,3.6c0.2,1.6-0.6,2.5-0.6,2.5c-1.1-0.9-2.3-0.5-2.3-0.5
		c2.5,0.9,3.8,2,4.3,4.1c0.5,2,0.1,4.6-0.7,6.5c-0.7,1.9-1.4,2.4-1.4,2.4c0-0.5-0.5-1.8-0.9-2.4c-0.5-0.6-1.2-0.2-2.9-0.3
		c-1.7,0-2.4-0.7-2.4-0.7c-0.2,0.7-1,1.7-1,1.7c0.3,0.3,1,1.4,0.7,2.8c-0.2,1.5-1.4,2.3-2.8,2.6c-1.5,0.3-2.7-0.6-2.7-0.6
		c1.2-1.5,0.7-2.3,0.5-2.6c-0.2-0.3-2-0.9-2.9-1.6c-1.1-0.8-1.4-1.8-1.4-2.7c-0.1-0.7,0.1-1-0.2-1.2c-0.6-0.6-3.2-1.2-3.2-1.2
		s-0.1,0.7-0.5,1c-0.2,0.3-0.5,0.5-0.5,0.9c0.2,1,2,1.8,2,1.8c-0.1,0.9-3.2,2.8-6.1,0.6c-2.7-2-3.7-4.9-3.8-7.1
		c-0.1-1.4,0.1-2.6,0.2-3.2c0.1-0.1-0.1-0.2-0.1-0.3c-0.5-0.1-1-0.2-1-0.2c0.2-4.5-3.5-5.6-4.5-5.9c-0.2,0-0.3,0.1-0.5,0.2
		c-0.3,0.5-1.2,1.2-2.4,1.7c-1.6,0.7-3.5,0.9-4.7,0.1c-1-0.6-1.7-1.9-1.9-2.3c-0.1-0.1-0.2-0.1-0.5-0.1c-0.5,0.1-1,0.1-1.7-0.2
		c-0.6-0.2-1.4-0.9-1.7-1.1c-0.1-0.1-0.2,0-0.2,0.1c0,1,0,1.6-0.6,2.3s-1.2,1.4-1.2,1.4c3.3,0.3,4.7,1.9,5.2,2.5
		c0.1,0.1,0.5,0.2,0.6,0.2c3.5,0.2,5.9,1.4,6.7,1.9c0.2,0.1,0.2,0.3,0.1,0.5c-1,1.6-1.9,3.7-1.9,6.4c0,1.9,0.1,2.8,0.2,3.3
		c0.1,0.2,0.3,0.5,0.5,0.6c1.2,0.6,2.7,1.7,4,3.2c1,1.1,1.4,2.4,1.5,2.9c0,0.1,0.1,0.3,0.3,0.5c0.6,0.2,2,0.8,5,0.8
		c1.9,0,2.9-0.2,4.5-0.7c1.7-0.5,2.8-1.2,2.8-1.2s-0.2,1.5-0.7,2.4c-0.5,0.8-0.9,1.8-1.6,2.4s-1,0.7-1,1.7s-0.1,1.7-0.2,2.4
		c-0.2,0.7-0.8,0.9-1.8,0.9c-1,0.1-5.8,0-5.8,0c-1,1.5-3.5,2.1-5.9,2.1c-2.8,0-5-1.1-5-1.1s-0.6,0.5-1,0.7c-0.9,0.7-1.6,0.9-1.6,0.9
		c-3.5-1.4-6.5-4.2-6.5-4.2s-3.2,2.8-6.5,4.2c0,0-0.6-0.2-1.6-0.9c-0.6-0.3-1-0.7-1-0.7s-2,1.1-5,1.1c-2.5,0-4.9-0.7-5.9-2.1
		c0,0-4.6,0.1-5.8,0c-1-0.1-1.6-0.2-1.8-0.9c-0.2-0.6-0.2-1.4-0.2-2.4c-0.1-0.9-0.5-1.1-1-1.7s-1.1-1.6-1.6-2.4
		c-0.5-0.9-0.7-2.4-0.7-2.4s1.1,0.7,2.8,1.2c1.7,0.6,2.6,0.7,4.5,0.7c2.8,0,4.4-0.6,5-0.8c0.2-0.1,0.2-0.2,0.3-0.5
		c0.1-0.6,0.5-1.7,1.5-2.9c1.2-1.4,2.7-2.5,4-3.2c0.1-0.1,0.5-0.2,0.5-0.6c0.1-0.5,0.2-1.5,0.2-3.3c0-2.8-0.9-5-1.9-6.4
		c-0.1-0.1-0.1-0.3,0.1-0.5c0.8-0.5,3-1.7,6.7-1.9c0.1,0,0.5-0.1,0.6-0.2c0.5-0.6,1.9-2.1,5.2-2.5c0,0-0.8-0.7-1.2-1.4
		c-0.6-0.7-0.6-1.2-0.6-2.3c0-0.1-0.1-0.1-0.2-0.1c-0.3,0.2-1.1,0.9-1.7,1.1s-1.2,0.2-1.7,0.2c-0.2,0-0.3,0-0.5,0.1
		c-0.2,0.5-0.9,1.7-1.9,2.3c-1.4,0.7-3.3,0.7-4.7-0.1c-1.1-0.6-2-1.4-2.4-1.7c-0.1-0.1-0.3-0.2-0.5-0.2c-1,0.2-4.6,1.4-4.5,5.9
		c0,0-0.7,0.1-1,0.2c-0.1,0-0.2,0.1-0.1,0.3c0.1,0.5,0.3,1.7,0.2,3.2c-0.1,2.1-1.2,5-3.8,7.1c-3,2.3-6.1,0.5-6.1-0.6
		c0,0,1.8-0.9,2-1.8c0.1-0.5-0.1-0.6-0.5-0.9c-0.2-0.5-0.5-1-0.5-1s-2.6,0.8-3.2,1.2c-0.2,0.2-0.2,0.6-0.2,1.2
		c-0.1,0.9-0.2,1.9-1.4,2.7c-0.9,0.7-2.7,1.2-2.9,1.6c-0.2,0.3-0.7,1.1,0.5,2.6c0,0-1.2,0.9-2.7,0.6c-1.5-0.3-2.6-1.1-2.8-2.6
		c-0.3-1.5,0.5-2.5,0.7-2.8c0,0-0.9-0.9-1-1.7c0,0-0.7,0.7-2.4,0.7c-1.7,0.1-2.5-0.2-2.9,0.3s-0.9,1.9-0.9,2.4c0,0-0.7-0.6-1.4-2.4
		c-0.7-1.9-1.1-4.5-0.7-6.5c0.6-2,1.8-3.3,4.3-4.1c0,0-1.1-0.5-2,0.3c0,0-0.9-0.9-0.7-2.4c0.1-1.5,0.7-2.4,2.4-3.6
		c1.9-1.4,4.6-2,7.3-1c2.8,0.9,3,2.1,5.4,2c2.5-0.1,3.6-0.3,4-1.5c0.2-0.6,1.6-2.5,3.7-2.6c0,0,0-2.6,1.2-4c0,0-1-1-1-3.7
		c0-2.4,0.5-3,1.4-3.8c0,0-2.6-0.3-3.5-1.6c-0.1-0.2-0.1-0.3-0.1-0.5c0.6-1,3.2-6.1,3.5-8.7c0,0-3.5,4.7-7.9,6.5
		c-3.8,1.6-8,2.4-9.3,0.1c-0.1-0.1-0.1-0.2-0.1-0.5c0-0.1,0.2-0.5,0.7-0.6c0.7-0.5,2.8-1.9,4.7-4.3c2.4-3,3.8-5.4,4.7-7.6
		c0,0-1.7,0.7-3.7,2.4S58,88.4,56,90c-2,1.6-4.5,2.4-6.8,2.1c-2.3-0.1-4.5-0.7-6.1-4c-0.1-0.1-0.1-0.5,0.1-0.5
		c0.6-0.2,1.8-0.9,3.6-2.1c2.4-1.6,5.2-4,6.7-5.1c0,0-0.9-0.1-2.8,0.5c-1.8,0.6-5.9,2.1-7.2,3c-0.7,0.5-1.4,0.2-1.7-0.1
		c-0.6-0.3-1.1-0.9-1.4-1.2c-0.1-0.1-0.2-0.1-0.3-0.1c-0.5,0.1-1.4,0.3-2.3-0.1c-1-0.6-2.1-1.2-2.5-2.6c-0.1-0.6,0.2-1.7,1-2.7
		c0.7-0.9,1.5-1.2,3.3-1.7c1.8-0.5,3.2-0.6,5-1.5c2-1,3-1.6,4.3-3c1.4-1.6,1.6-2.5,1.6-2.5s-2.6,0.2-5.6,0.6c-3,0.2-7.6,0.6-8.2,0.2
		c-1.2-0.6-2.7-2.8-3.3-4.9c-0.1-0.2,0.2-0.6,1-1c0.9-0.5,3.3-2.1,9.5-2.8c0,0-5.1-0.3-8.6-1.7c-3-1.2-7-5.1-6.7-10.2
		c0-0.1,0.2-0.3,0.5-0.2c0.2,0.1,0.5,0.1,0.8,0.3c0.9,0.6,3.6,2,5.3,2.5c1.7,0.6,3.2,1,4.7-0.3c0,0,1.2,0.7,2.5,1
		c1.4,0.5,1.7,0.5,1.8,0.2c0.1-0.1-0.5-0.6-1.7-1.1s-3-1.4-6.4-2c-0.1,0-0.6-0.1-0.7-0.2c-0.6-0.3-1.6-1-2.1-2.7c0,0-2-0.1-2.8-0.7
		c-1.5-1.1-2.6-7.6-3.8-10.4c-0.1-0.1,0-0.2,0.1-0.1c0.6,0.2,2,1,4.7,2.7c3.3,2.1,6,3.3,8.1,3.8c0,0-1.4-0.9-1.6-3
		c0,0-4.2-0.6-4.5-4.3c0,0-1.5-0.5-2.8-1.6c-0.6-0.5-0.9-0.8-1.5-1.4c-0.7-0.9,0.2-3.2,0.2-3.2s-1.2-0.2-1.9-1.1
		c-0.6-0.9-1-3.2-0.8-4.6c0.2-1.4,1-2.5,2.7-2.8c1.6-0.2,2.5,0.3,3.5,1.7c1,1.5,1.9,2.4,2.8,3s2.3,1.7,2.9,3.2
		c0.7,1.4,0.6,3.2,0.6,3.2s1.7-0.2,2.5,0.2c0,0-4.1-4.7-4.7-9.1c0,0-0.9-0.6-1.6-1.9c-0.6-1.2-1.5-6.9,2.4-7.5c0,0-0.5-2,0.2-2.9
		c0.6-0.9,1.9-0.9,2.8-0.2c0.9,0.7,1.5,2.4,1.8,3.6c0,0,1.4,0.1,2.3,1c1.2,1.4,2.3,5.1,3.2,8.2c0,0,1.9-0.6,3.6,0.1
		c1.7,0.7,3.6,2.7,3.2,5.8c0,0,11.6,11.5,12.5,12.4c1,0.9,2.8,4.7-2,11c0,0,3.3-0.6,5,1.2c2,2.1,1.4,5.9,1.4,5.9s3.4-3,8.9,0.6
		l1.9-1.7c0,0-0.2-1.4-0.7-1.6c-0.5-0.2-2.9-0.6-4.3-1.6c-1.2-1-1.7-2-1.9-4c0,0,1.9,1.4,4.4,1.6s5-0.7,7.2-3.2c0,0-2.7,0.3-3.8-0.6
		c-1.2-0.9-1.7-2.3-1.2-4.4c0,0,1.6,0.8,3.2,0.7c3.6-0.3,3.6-5.1-0.7-6.5c0,0,2-0.3,3-1c1.1-0.7,1-1.8-0.1-2.5
		c-1.1-0.6-3.2-0.8-4.3-0.6c0,0-0.1-2.7-0.8-3.3c0,0-1.7,0.2-3.7-0.6c-2-0.9-4.2-2.5-7.3,0.1c0,0-0.1-1.6,0.9-4.3
		c1.1-2.7,3-4.7,6.9-3.6c0,0-0.2-0.7,0.1-1.1c0.6-0.6,1.2-0.9,4-0.7c2.4,0.2,4.7,0.6,6.2,0.3c2.4-0.2,5.1-1.6,6.7-2.1
		c0.9-0.5,1.4-0.7,1.5-0.6c0.2,0.1,0.2,0.6-1,2.1c-1.2,1.6-2.6,3.2-2.6,3.2S97.5,25.2,100,28.4"/>
	
		<radialGradient id="path3844_1_" cx="-357.9186" cy="240.5482" r="0.6659" gradientTransform="matrix(148.7761 0 0 148.7761 53350.4063 -35711.1758)" gradientUnits="userSpaceOnUse">
		<stop  offset="0" style="stop-color:#E9E9C8"/>
		<stop  offset="0.7022" style="stop-color:#9D8449"/>
		<stop  offset="0.7022" style="stop-color:#9D8449"/>
		<stop  offset="1" style="stop-color:#9A8347"/>
	</radialGradient>
	<path id="path3844" inkscape:connector-curvature="0" class="st1" d="M39.2,9.8c-0.1,0-0.3,0.1-0.5,0.2l0,0
		c-0.2,0.2-0.2,1.2-0.1,1.9l0,0c0.1,0.6,0.2,1.6,0.2,1.6l0,0c0,0-0.9-0.2-1.6,0l0,0c-0.5,0.1-0.7,0.5-0.9,0.9l0,0
		c-0.2,0.6-0.6,1.8,0.3,3.3l0,0c0.6,1,1.6,2.1,1.9,2.4l0,0c0.2,0.1,1.2-0.1,2.8,0.7l0,0c0.6,0.2,0.9,0.6,1.4,1l0,0
		c1.4,1.5,2.7,4,4.4,7.1l0,0c0,0,3.2,0.9,6.1,3.3l0,0c4.7,3.8,4.6,6.9,4.6,6.9l0,0c0,0,1.7,0.1,3.4,1.7l0,0c1.7,1.6,2.4,4.2,0.9,6.9
		l0,0c-0.7,1.2-1.9,2.1-3.5,2.6l0,0c-0.1,0.1-0.3,0.1-0.5,0.1l0,0c-0.1,0-0.1,0.1,0,0.2l0,0c0.1,0.1,0.2,0.2,0.2,0.5l0,0
		c0.3,0.5,0.7,0.9,1.2,1.4l0,0l-2.5,4.5c0,0,3.6-0.5,5.4-0.3l0,0c1.7,0.1,3.6,0.7,3.2,4.7l0,0c0,0,0.9,0.5,1.7,0.5l0,0
		c0.1,0,0.2,0,0.3,0l0,0c0.6,0,0.8,0,0.9,0.9l0,0c0,1,0.2,3.2,0.3,3.4l0,0c0.1,0.3,1.2,0.9,4.4,0.7l0,0c0,0,1.4,1.2,2.1,3.7l0,0
		c0,0,1.6,0.5,3.6-0.5l0,0c0,0,1.7,1.4,4,4.5l0,0h34c2.3-3.3,4-4.5,4-4.5l0,0c1.9,0.9,3.5,0.5,3.5,0.5l0,0c0.9-2.5,2.1-3.7,2.1-3.7
		l0,0c3.2,0.1,4.3-0.5,4.4-0.7l0,0c0.1-0.3,0.3-2.4,0.3-3.4l0,0c0-0.9,0.3-0.9,0.9-0.9l0,0c0.1,0,0.2,0,0.3,0l0,0
		c0.9-0.1,1.7-0.5,1.7-0.5l0,0c-0.5-4.1,1.6-4.7,3.2-4.7l0,0c1.7-0.1,5.4,0.3,5.4,0.3l0,0l-2.5-4.5c0.5-0.5,0.9-0.9,1.2-1.4l0,0
		c0.1-0.1,0.2-0.2,0.2-0.5l0,0c0.1-0.1,0.1-0.2,0-0.2l0,0c-0.2,0-0.3-0.1-0.6-0.1l0,0c-1.6-0.5-2.7-1.4-3.5-2.6l0,0
		c-1.6-2.7-0.9-5.3,0.9-6.9l0,0c1.7-1.6,3.3-1.7,3.3-1.7l0,0c0,0-0.2-3,4.6-6.9l0,0c2.8-2.4,6.1-3.3,6.1-3.3l0,0
		c1.7-3,3-5.6,4.4-7.1l0,0c0.5-0.5,0.9-0.9,1.4-1l0,0c1.6-0.7,2.5-0.6,2.8-0.7l0,0c0.2-0.1,1.2-1.2,1.9-2.4l0,0
		c0.9-1.6,0.6-2.8,0.3-3.3l0,0c-0.2-0.5-0.6-0.8-0.9-0.9l0,0c-0.7-0.2-1.6,0-1.6,0l0,0c0,0,0.2-1,0.2-1.6l0,0
		c0.1-0.7,0.1-1.7-0.1-1.9l0,0c-0.1-0.1-0.2-0.2-0.5-0.2l0,0c-0.1,0-0.1,0-0.2,0l0,0c-0.3,0-0.6,0.1-0.9,0.2l0,0
		c-0.5,0.3-1,1.6-1.4,3l0,0l-0.2,0.7l-0.7,0.1c0,0-1,0.1-1.6,0.7l0,0c-1.2,1.4-2.4,5.5-2.9,7.8l0,0l-0.2,0.9l-0.9-0.2
		c0,0-1.6-0.5-2.9,0.1l0,0c-1.1,0.5-2.9,1.9-2.6,4.7l0,0l0.1,0.5l-0.3,0.3c-0.5,0.5-11.6,11.5-12.5,12.4l0,0c0,0-3,3.2,2.1,9.7l0,0
		l1.5,1.9l-2.4-0.5c-0.8-0.1-3-0.2-4.2,1l0,0c-1.7,1.8-1,5.1-1,5.1l0,0L130,61l-2-1.7c-0.1-0.1-3-2.5-7.9,0.6l0,0l-0.6,0.5l-2.8-2.5
		l0.1-0.6c0.1-0.9,0.5-2.1,1.4-2.4l0,0l0.2-0.1c0.7-0.1,2.6-0.6,3.6-1.4l0,0c0.6-0.5,0.9-0.9,1.1-1.4l0,0c-0.8,0.3-1.8,0.6-2.8,0.7
		l0,0c-3,0.2-5.9-1.2-8.2-3.7l0,0c-1.2-1.5-2-2.5-2-2.5l0,0c0,0,2.3,0.9,4,1l0,0c0.7,0.1,1.7,0,2-0.2l0,0c0.5-0.3,1.2-1,1.2-2.3l0,0
		v-0.1l0,0c-0.7,0.2-1.6,0.5-2.4,0.3l0,0c-1.9-0.1-3.2-1.4-3.5-3.2l0,0c0-0.1,0-0.2,0-0.5l0,0c0-1.2,0.6-2.6,1.9-3.6l0,0
		c-0.5-0.1-0.8-0.3-1.1-0.6l0,0c-0.8-0.5-1.2-1.2-1.2-2l0,0v-0.1l0,0c0-0.8,0.6-1.6,1.4-2l0,0c1-0.6,2.6-0.8,3.8-0.7l0,0
		c0.1-1.1,0.5-2.5,1-3l0,0l0.3-0.2l0.5,0.1c0,0,1.6,0.2,3.2-0.6l0,0l0.7-0.3c1.5-0.7,3.4-1.7,5.9-0.6l0,0c-0.1-0.6-0.3-1.4-0.7-2.1
		l0,0c-1.2-3-2.9-4.1-5.8-3.3l0,0c-1.6,0.6-2,1-2.7,1.7l0,0c-0.7,0.7-1,1.2-1.5,1.2l0,0c-0.2,0-2.1-0.9-2.1-1.2l0,0
		c0-0.2,1.2-1.9,1.6-1.9l0,0c0.2,0,0.7,0.1,1.4,0.2l0,0c0.6,0.1,1.1,0.1,1.6-0.2l0,0c0.3-0.2,0.6-0.5,0.6-0.7l0,0
		c0.1-0.2,0-0.6-0.1-0.7l0,0c-0.3-0.1-1-0.2-2.7-0.1l0,0l-2,0.2c-1.7,0.2-3.2,0.3-4.4,0.2l0,0c-2-0.2-4.3-1.1-6.1-1.9l0,0
		c0.3,0.5,3,3.8,3,3.8l0,0l-1,0.6c0,0-3.5,1.9-5.8,5l0,0c0,0-0.5,0.5-0.5,4.2l0,0c0,0.9-0.5,1.1-0.5,1.1l0,0c0,0-0.5-0.2-0.5-1.1
		l0,0c0-3.8-0.5-4.2-0.5-4.2l0,0c-2.3-3-5.6-5-5.8-5l0,0l-1-0.6c0,0,2.7-3.4,3-3.8l0,0c-1.8,0.8-4.1,1.7-6.1,1.9l0,0
		c-1.2,0.1-2.7,0-4.3-0.2l0,0l-2-0.2c-1.7-0.1-2.4-0.1-2.7,0.1l0,0c-0.1,0.1-0.2,0.3-0.1,0.7l0,0c0.1,0.2,0.2,0.5,0.6,0.7l0,0
		c0.3,0.2,0.9,0.2,1.6,0.2l0,0c0.6-0.1,1.1-0.2,1.4-0.2l0,0c0.2,0,1.6,1.7,1.6,1.9l0,0c0,0.3-2,1.4-2.1,1.2l0,0
		c-0.3-0.1-0.8-0.6-1.5-1.2l0,0c-0.7-0.7-1.1-1.1-2.7-1.7l0,0c-2.8-0.8-4.5,0.2-5.8,3.3l0,0c-0.3,0.9-0.6,1.6-0.7,2.1l0,0
		c2.5-1.1,4.4-0.2,5.9,0.6l0,0l0.7,0.3c1.7,0.7,3.2,0.6,3.2,0.6l0,0l0.5-0.1l0.3,0.2c0.6,0.6,0.9,1.9,1,3l0,0c1.2-0.1,2.8,0.2,4,0.7
		l0,0c0.9,0.5,1.4,1.2,1.4,2l0,0c0,0,0,0,0,0.1l0,0c0,0.8-0.5,1.6-1.2,2l0,0c-0.3,0.2-0.7,0.5-1.1,0.6l0,0c1.2,1,1.9,2.5,1.9,3.6
		l0,0c0,0.1,0,0.3,0,0.5l0,0c-0.2,1.7-1.6,2.9-3.5,3.2l0,0c-0.9,0.1-1.7-0.1-2.4-0.3l0,0V45l0,0c0,1.2,0.7,1.9,1.2,2.3l0,0
		c0.5,0.2,1.2,0.3,2,0.2l0,0c1.7-0.1,4-1,4-1l0,0c0,0-0.7,1-2,2.5l0,0c-2.3,2.5-5.2,4-8.2,3.7l0,0c-1-0.1-2-0.5-2.8-0.7l0,0
		c0.2,0.6,0.6,1,1.1,1.4l0,0c1,0.8,2.8,1.2,3.6,1.4l0,0l0.2,0.1c0.9,0.2,1.2,1.4,1.4,2.4l0,0l0.1,0.6l-2.8,2.5l-0.6-0.5
		c-4.9-3-7.7-0.7-7.9-0.6l0,0l-2,1.7l0.5-2.6c0-0.1,0.6-3.3-1-5.1l0,0c-1-1.2-3.3-1.1-4.2-1l0,0l-2.4,0.5l1.5-1.9
		c5.1-6.5,2.1-9.7,2.1-9.7l0,0c-1.5-1-12.5-12.1-13.1-12.5l0,0l0.1-0.2l0.1-0.5c0.5-2.8-1.4-4.3-2.6-4.7l0,0
		c-1.4-0.6-2.9-0.1-2.9-0.1l0,0l-0.9,0.2l-0.2-0.9c-0.6-2.3-1.7-6.4-2.9-7.8l0,0c-0.6-0.7-1.6-0.7-1.6-0.7l0,0L42,13.8l-0.1-0.7
		c-0.5-1.6-0.9-2.7-1.5-3l0,0c-0.2-0.1-0.6-0.2-0.9-0.2l0,0C39.4,9.8,39.3,9.8,39.2,9.8 M167.7,21.9c-1.1,1.6-2,2.5-3,3.3l0,0
		c-0.7,0.6-2,1.6-2.7,2.8l0,0c-0.6,1.1-0.5,2.7-0.5,2.7l0,0l0.1,1.2l-1.2-0.2c-0.5-0.1-1-0.1-1.5-0.1l0,0c-0.9,0.1-2,0.9-2.4,2.1
		l0,0c-0.5,1.4-0.2,3.2-0.2,3.2l0,0c-6-0.7-8.8,0.9-8.8,0.9l0,0c0,0,2-1.7,6.1-5.3l0,0c4.2-3.7,6.3-8,6.9-9.3l0,0
		c0.6-1.2,0.6-2.1,0.5-2.1l0,0c-0.1-0.1-1.5,0.1-2.4,0.5l0,0c-1.5,0.7-2.5,3-4.2,5.9l0,0l-1.2,2.3l-0.3,0.1c0,0-3,0.9-5.8,3l0,0
		c-4.3,3.4-4.3,6.1-4.3,6.1l0,0v0.9l-0.9,0.1c-0.1,0-1.4,0.1-2.8,1.5l0,0c-1.2,1.2-2,3.3-0.7,5.8l0,0c0.7,1.1,1.9,2,3.3,2.3l0,0
		c0.1,0,0.2,0.1,0.5,0.1l0,0c0.1,0,0.1,0,0.1-0.1l0,0c0.1-0.1,0.1-0.2,0.1-0.2l0,0c0.6-1.1,1-2.4,1.7-3.7l0,0
		c1.6-3.3,4.4-4.3,6.9-5.5l0,0c2.5-1.2,2.8-2,2.8-2l0,0c0.7,0.6,0.9,1.6,0.9,2l0,0c0,0,2.8,0.5,4.7-1.4l0,0c0.8-0.7,0.5-2.7,0.5-2.7
		l0,0c0.9-0.1,2.6-0.2,3.6-1.4l0,0c1-1,0.9-2.6,0.9-2.6l0,0c3-1,4-2.4,4.1-2.8l0,0c0.1-0.5-0.1-0.9-0.3-1.7l0,0
		c-0.2-0.8-0.1-1.6-0.1-1.6l0,0c0,0,2.6,0,3.3-1.7l0,0c0.6-1.5,0.2-2.7-0.1-3l0,0c-0.3-0.6-0.9-0.7-1.4-0.7l0,0
		c-0.2,0-0.3-0.1-0.6-0.1l0,0C169.1,20.7,168.5,21,167.7,21.9 M29.7,20.7c-0.5,0.1-1,0.2-1.4,0.7l0,0c-0.2,0.3-0.7,1.6-0.1,3l0,0
		c0.7,1.7,3.3,1.7,3.3,1.7l0,0c0,0,0.2,0.7-0.1,1.6l0,0c-0.2,0.8-0.5,1.2-0.3,1.7l0,0c0.1,0.5,1,1.8,4.1,2.8l0,0
		c0,0-0.1,1.6,0.9,2.6l0,0c1,1,2.7,1.2,3.6,1.4l0,0c0,0-0.5,1.9,0.5,2.7l0,0c1.9,1.7,4.7,1.4,4.7,1.4l0,0c0.1-0.6,0.2-1.5,0.9-2l0,0
		c0,0,0.5,0.7,2.8,2l0,0c2.5,1.2,5.3,2.3,6.9,5.5l0,0c0.7,1.4,1.2,2.7,1.7,3.7l0,0c0.1,0.1,0.1,0.1,0.1,0.2l0,0
		c0.1,0.1,0.1,0.1,0.1,0.1l0,0c0.1,0,0.2-0.1,0.5-0.1l0,0c1.4-0.2,2.6-1.1,3.3-2.3l0,0c1.4-2.4,0.6-4.5-0.7-5.8l0,0
		c-1.4-1.4-2.7-1.5-2.8-1.5l0,0l-0.9-0.1v-0.9c0,0,0-2.7-4.3-6.1l0,0c-2.7-2.1-5.8-3-5.8-3l0,0l-0.5-0.1l-1.2-2.3
		c-1.4-2.9-2.5-5.3-4-6l0,0c-0.9-0.5-2.1-0.6-2.4-0.5l0,0c-0.1,0.1-0.1,0.9,0.5,2.1l0,0c0.6,1.4,2.8,5.6,6.9,9.3l0,0
		c4.2,3.7,6.1,5.3,6.1,5.3l0,0c0,0-2.8-1.7-8.8-0.9l0,0c0,0,0.1-1.9-0.2-3.2l0,0c-0.5-1.4-1.5-2.1-2.4-2.1l0,0c-0.5-0.1-1,0-1.5,0.1
		l0,0l-1.2,0.2l0.1-1.2c0,0,0.1-1.6-0.5-2.7l0,0c-0.6-1.2-1.9-2.3-2.7-2.8l0,0c-1-0.7-1.9-1.7-3-3.3l0,0c-0.7-1-1.2-1.4-2-1.4l0,0
		C30,20.7,29.8,20.7,29.7,20.7 M171.5,37c-0.7,0.5-1.6,0.9-2.6,1.6l0,0c-3.2,2-6.5,3.7-9,4.4l0,0c-5.5,1.4-8.1,1-8.1,1l0,0
		c0,0-0.3,2.4-3.2,4.5l0,0c-1.9,1.5-3.7,2.1-5.4,2.1l0,0c-0.1,0-0.2,0-0.2,0l0,0c-0.5,0-0.5,0.1-0.7,0.7l0,0
		c-0.3,0.6-0.5,0.6-0.2,0.6l0,0c0.6-0.1,1.9-0.2,3,0.1l0,0c1,0.5,2.3,1.6,2.4,3.5l0,0c0.1,1.7-1.9,3.3-1.9,3.3l0,0
		c0,0,0.6,1,0.7,2.3l0,0c0.1,1.2-0.7,2.6-1.7,3.2l0,0c-1.4,0.7-2.8,0.5-2.8,0.5l0,0c0,0,0.1,1.8-0.9,2.7l0,0c-1,0.9-2.7,0.5-2.7,0.5
		l0,0c0,0-0.3,1.6-1.9,2.5l0,0c-1.7,0.9-2.7,0.9-4.3,0.5l0,0c-1.6-0.6-2.9-1-4.5-0.3l0,0c-1.6,0.7-2.7,1.2-3.5,1.2l0,0
		c-1.4,0.1-2.7-0.3-2.7-0.3l0,0c-0.6,0.6-2.3,2.4-3.8,4.6l0,0H82.5c-1.6-2.1-3.2-4.1-3.8-4.6l0,0c0,0-1.2,0.5-2.7,0.3l0,0
		c-0.9-0.1-1.9-0.6-3.5-1.2l0,0c-1.6-0.7-2.9-0.2-4.5,0.3l0,0c-1.6,0.6-2.7,0.5-4.3-0.5l0,0c-1.7-0.9-1.9-2.5-1.9-2.5l0,0
		c0,0-1.7,0.5-2.7-0.5l0,0c-1-0.9-0.9-2.7-0.9-2.7l0,0c0,0-1.5,0.5-2.8-0.5l0,0c-1-0.6-1.8-1.9-1.7-3.2l0,0c0.1-1.2,0.7-2.3,0.7-2.3
		l0,0c0,0-1.9-1.6-1.9-3.3l0,0c0.1-1.8,1.2-3,2.4-3.5l0,0c1-0.5,2.4-0.2,3-0.1l0,0c0.1,0,0-0.1-0.2-0.6l0,0
		c-0.5-0.7-0.5-0.8-0.9-0.8l0,0c-0.1,0-0.2,0-0.2,0l0,0c-1.7-0.1-3.5-0.7-5.4-2.1l0,0c-2.8-2.1-3-4.5-3-4.5l0,0c0,0-2.6,0.5-8.1-1
		l0,0c-2.5-0.7-5.8-2.4-9-4.4l0,0c-1-0.7-1.9-1.1-2.6-1.6l0,0C28.1,36.8,28,37,28,37l0,0c0.2,0.7,0.5,1.4,0.6,2l0,0
		c0.2,0.8,0.5,1.8,0.8,2.7l0,0c0.2,0.8,0.6,1.6,1.9,1.7l0,0c1.4,0.2,2.7,0.1,2.7,0.1l0,0c0,0,0.7,1.7,2.1,2.5l0,0
		c1.6,0.8,2,0.6,3.6,1.2l0,0c1.6,0.6,7.1,2.6,11.2,5.5l0,0c0,0-2.4,1.1-8,0.1l0,0c-1.4-0.2-2.7-0.8-3.2-1l0,0
		c-1.4,0.9-2.7,0.8-4,0.5l0,0c-0.7-0.2-1.9-0.6-2.4-0.8l0,0c-1.5-0.6-3-1.5-3.8-1.9l0,0c0,0,0.1,1.5,1.4,3.2l0,0
		c1.2,1.7,5.4,5.8,16.4,4.7l0,0c0,0-1.2,2-2,3.5l0,0c0,0-2.6,0-7.1,1.4l0,0c-1.9,0.6-2.9,1.2-3.5,1.6l0,0l-0.1,0.2
		c-0.2,0.1-0.5,0.2-0.5,0.2l0,0c0,0,0.1,1.5,1.7,2l0,0c1.4,0.5,3,0.1,6.3-0.1l0,0c3.3-0.2,10.5-0.6,10.5-0.6l0,0
		c0,0-0.7,2.8-2.8,5.4l0,0c-0.1,0.1-0.2,0.2-0.5,0.5l0,0c-1.4,1.5-2.5,2.1-4.6,3.2l0,0c-1.6,0.7-2.8,1-4.2,1.4l0,0l-0.9,0.2
		c-1.7,0.5-2.1,0.7-2.7,1.4l0,0c-0.7,0.9-0.9,1.4-0.7,1.8l0,0c0.2,0.6,2,0.9,4,0.2l0,0c0,0,0.6,0.8,1.2,1.2l0,0
		c0.7,0.5,1.2,0.5,2.4-0.1l0,0c1.2-0.6,3.8-1.9,8.1-2.7l0,0c0,0,2.9-4.6,9.7-6.1l0,0c0,0-1.8,4-10.3,11.2l0,0
		c-1.2,1-2.8,2.1-4.2,3.2l0,0c-1.1,0.7-2,1.2-2.7,1.7l0,0c0,0,0.3,1,1.6,1.6l0,0c1.2,0.6,4.6,0.5,6.3-0.3l0,0c1.7-0.7,4-2.1,5.8-4
		l0,0c1.8-1.7,5.3-5.8,9.7-6.1l0,0c0,0-0.1,0.6-0.2,1l0,0l-0.8,2c-0.9,2.4-2.5,4.7-4.9,7.9l0,0c-1.2,1.6-2.7,2.8-3.7,3.7l0,0
		c0,0,2.3,0.6,5-0.6l0,0c3-1.2,7.6-4.6,11.6-11.3l0,0c0,0-0.1,2.6-0.9,6.4l0,0c-0.8,3.6-2.4,6.7-3.3,8.5l0,0c0,0,1.9,0.5,5.1-0.7
		l0,0c3.2-1,5.8-2.1,5.8-2.1l0,0c0,0-2.3,1.6-5,3.6l0,0c-2.7,2-3.8,2.7-4,4.1l0,0c0,0-0.1,1.1,0.9,1.4l0,0c1,0.2,1.7-0.2,3.4-0.9
		l0,0c1.7-0.8,6.4-3.2,6.4-3.2l0,0c0,0-0.7,1.8-0.5,3l0,0c0.7,2.7,4.7,3.6,4.7,3.6l0,0c0,0-1.5,0.2-2.5,1.8l0,0
		c-0.9,1.4-1.1,2.1,0.1,3.4l0,0c0.5,0.5,0.6,1.6,0.5,2.5l0,0c0,0,0.7,0.7,2.1,0.7l0,0c1.4,0.1,2.6-0.8,3.5-3l0,0
		c0,0,1.6,0.2,2.7-0.2l0,0c1-0.5,2.5-1.6,3.5-2.5l0,0c0,0-0.1,0.6-0.5,1.7l0,0c-0.2,1.2-0.5,3,0.1,3.8l0,0c0.6,0.9,1.1,1.4,2.4,1.6
		l0,0c1.2-0.1,1.8-0.7,2.4-1.6l0,0c0.6-0.9,0.5-2.7,0.1-3.8l0,0c-0.2-1.2-0.5-1.7-0.5-1.7l0,0c1,0.9,2.5,2,3.5,2.5l0,0
		c1,0.5,2.7,0.2,2.7,0.2l0,0c0.9,2.3,2,3.2,3.5,3l0,0c1.4-0.1,2.1-0.7,2.1-0.7l0,0c-0.1-1-0.1-2,0.5-2.5l0,0c1.2-1.2,1-2,0.1-3.4
		l0,0c-1-1.6-2.5-1.8-2.5-1.8l0,0c0,0,4-0.9,4.7-3.6l0,0c0.3-1.2-0.5-3-0.5-3l0,0c0,0,4.7,2.4,6.5,3.2l0,0c1.7,0.7,2.4,1.1,3.4,0.9
		l0,0c0.9-0.2,0.9-1.4,0.9-1.4l0,0c-0.1-1.4-1.2-2-4-4.1l0,0c-2.7-2-5-3.6-5-3.6l0,0c0,0,2.7,1,5.8,2.1l0,0c3.2,1,5.1,0.7,5.1,0.7
		l0,0c-0.9-1.8-2.5-4.9-3.3-8.5l0,0c-0.7-3.8-0.9-6.4-0.9-6.4l0,0c4.2,6.7,8.7,9.9,11.6,11.3l0,0c2.7,1.1,5,0.6,5,0.6l0,0
		c-1-0.8-2.5-2-3.7-3.7l0,0c-2.5-3-4-5.5-5-7.9l0,0l-0.7-2c-0.2-0.6-0.2-1-0.2-1l0,0c4.5,0.2,8,4.3,9.7,6.1l0,0
		c1.8,1.7,4.2,3.2,5.8,4l0,0c1.7,0.7,5.1,0.9,6.3,0.3l0,0c1.2-0.6,1.6-1.6,1.6-1.6l0,0c-0.7-0.5-1.6-0.9-2.7-1.7l0,0
		c-1.4-0.9-2.8-2-4.2-3.2l0,0c-8.5-7.1-10.3-11.2-10.3-11.2l0,0c6.9,1.6,9.7,6.1,9.7,6.1l0,0c4.3,0.9,6.9,2.1,8.1,2.7l0,0
		c1.1,0.6,1.7,0.6,2.4,0.1l0,0c0.7-0.5,1.2-1.2,1.2-1.2l0,0c1.9,0.7,3.8,0.5,4-0.2l0,0c0.1-0.5-0.1-0.9-0.7-1.8l0,0
		c-0.6-0.7-1-0.9-2.7-1.4l0,0l-0.9-0.2c-1.4-0.2-2.6-0.6-4.2-1.4l0,0c-2-1-3.3-1.7-4.6-3.2l0,0c-0.1-0.1-0.2-0.2-0.3-0.5l0,0
		c-2-2.5-2.8-5.4-2.8-5.4l0,0c0,0,7.2,0.5,10.5,0.6l0,0c3.3,0.2,5,0.6,6.3,0.1l0,0c1.6-0.6,1.7-2,1.7-2l0,0
		c-0.1-0.1-0.2-0.1-0.6-0.2l0,0l-0.3-0.2c-0.6-0.3-1.7-0.9-3.5-1.6l0,0c-4.5-1.4-7.1-1.4-7.1-1.4l0,0c-0.8-1.4-2-3.5-2-3.5l0,0
		c11,1,15-3,16.4-4.7l0,0c1.2-1.6,1.4-3.2,1.4-3.2l0,0c-0.7,0.5-2.4,1.2-3.8,1.9l0,0c-0.5,0.2-1.7,0.6-2.4,0.8l0,0
		c-1.2,0.3-2.6,0.5-4-0.5l0,0c-0.6,0.2-1.8,0.8-3.2,1l0,0c-5.6,1-8-0.1-8-0.1l0,0c4.2-2.9,9.6-5,11.2-5.5l0,0
		c1.6-0.6,2.1-0.5,3.6-1.2l0,0c1.5-0.8,2.1-2.5,2.1-2.5l0,0c0,0,1.5,0.1,2.7-0.1l0,0c1.4-0.2,1.6-1,1.9-1.7l0,0
		c0.3-0.9,0.6-1.9,0.8-2.7l0,0c0.2-0.7,0.5-1.4,0.6-2l0,0C171.7,37.1,171.7,37,171.5,37L171.5,37C171.6,37,171.6,37,171.5,37
		 M151.7,40.8l-1,0.5c-2.1,1-4.3,2-5.5,4.6l0,0c-0.5,0.8-0.7,1.6-1,2.3l0,0c-0.1,0.3-0.2,0.7-0.5,0.9l0,0c-0.1,0.1-0.1,0.2-0.2,0.5
		l0,0c0,0.1,0,0.1,0.1,0.1l0,0c0.1,0,0.2,0,0.5-0.1l0,0c1.4-0.2,2.8-0.9,4.2-1.9l0,0c2.4-1.9,2.7-3.5,3.6-4.6l0,0
		c0.5-0.6,1.4-1.5,1.9-1.9l0,0c0.6-0.5,0.5-0.8,0.5-1l0,0c0-0.2-0.1-0.5-0.1-0.6l0,0C153.5,39.7,152.8,40.3,151.7,40.8 M45.8,40
		c0,0.2-0.1,0.6,0.5,1l0,0c0.6,0.5,1.4,1.4,1.9,1.9l0,0c1,1.2,1.2,2.8,3.6,4.6l0,0c1.4,1,2.8,1.7,4.2,1.9l0,0c0.1,0,0.2,0,0.5,0.1
		l0,0c0.1,0,0.1,0,0.1-0.1l0,0c-0.1-0.1-0.1-0.2-0.2-0.5l0,0c-0.1-0.3-0.2-0.6-0.5-0.9l0,0c-0.3-0.7-0.7-1.5-1-2.3l0,0
		c-1.2-2.5-3.3-3.5-5.5-4.6l0,0l-1-0.5c-1-0.6-1.8-1-2.4-1.4l0,0C45.9,39.6,45.8,39.7,45.8,40 M142.8,52.7c-0.8,0.1-1.1,0.2-1.1,0.2
		l0,0c0.7,1.4,2.7,4.7,2.7,4.7l0,0c0,0-1.7-0.1-3.8-0.3l0,0c-2.1-0.2-3.8-0.1-4.5,0.5l0,0c-0.7,0.6-0.9,1.2-0.9,2.3l0,0
		c-0.1,1-0.1,1.8-0.1,1.8l0,0c0,0-0.1,0.1-1,0.5l0,0c-0.7,0.2-1.1,0.2-1.4,0.2l0,0c-0.1,0-0.2,0-0.2,0l0,0c-0.1,0.1-0.1,0.7-0.2,2
		l0,0c-0.1,1.4-0.2,1.9-0.2,1.9l0,0c-0.5,0.9-2,1.1-3.5,1.2l0,0c-0.7,0.1-1.4,0-1.4,0l0,0c0,0-0.3,0.5-0.7,1l0,0
		c-0.5,0.7-0.7,1.2-0.7,1.2l0,0c0,0,0.3-0.1,1.9-0.7l0,0c1.6-0.6,2.7-0.2,4.1,0.2l0,0c1.4,0.6,2.8,0.7,4.3-0.2l0,0
		c1.6-0.9,1.6-2.7,1.6-2.7l0,0c1.7,0.9,3,0.1,3.4-0.9l0,0c0.3-1,0-2.4,0-2.4l0,0c0,0,1.8,0.7,3.2,0.1l0,0c1.4-0.7,1.6-2,1.4-3l0,0
		c-0.1-1-0.8-2-0.8-2l0,0v-0.1l0.2-0.2c0.5-0.3,1.6-1.6,1.6-2.6l0,0c-0.1-1.5-1-2.4-1.7-2.6l0,0c-0.5-0.1-0.8-0.2-1.2-0.2l0,0
		C143.2,52.6,143,52.7,142.8,52.7 M55.2,52.8c-0.7,0.2-1.7,1.1-1.7,2.6l0,0c-0.1,1,1.1,2.3,1.6,2.6l0,0l0.2,0.2v0.1c0,0-0.7,1-0.8,2
		l0,0c-0.1,1,0,2.4,1.4,3l0,0c1.4,0.7,3.2-0.1,3.2-0.1l0,0c0,0-0.3,1.4,0,2.4l0,0c0.5,1,1.7,1.8,3.4,0.9l0,0c0,0,0,1.7,1.6,2.7l0,0
		c1.6,0.9,2.9,0.8,4.3,0.2l0,0c1.4-0.6,2.5-0.8,4.1-0.2l0,0c1.6,0.6,1.9,0.7,1.9,0.7l0,0c0,0-0.2-0.6-0.7-1.2l0,0
		c-0.5-0.7-0.7-1-0.7-1l0,0c0,0-0.7,0-1.4,0l0,0c-1.5-0.1-3-0.5-3.5-1.2l0,0c0,0-0.1-0.6-0.2-1.9l0,0c-0.1-1.4-0.1-2-0.2-2l0,0
		c0,0-0.1,0-0.2,0l0,0c-0.2,0-0.7,0-1.4-0.2l0,0c-0.8-0.3-1-0.5-1-0.5l0,0c0,0,0-0.8-0.1-1.8l0,0c-0.1-1-0.2-1.8-0.9-2.3l0,0
		c-0.7-0.6-2.4-0.6-4.5-0.5l0,0c-2.1,0.2-3.8,0.3-3.8,0.3l0,0c0,0,1.9-3.4,2.7-4.7l0,0c0,0-0.3-0.2-1.1-0.2l0,0
		c-0.2,0-0.6-0.1-0.8-0.1l0,0C56.1,52.6,55.6,52.7,55.2,52.8 M117.7,101.2c0,0.3-0.1,0.7-0.1,0.9l0,0c-0.5,1.8-2,2.8-3.4,3.5l0,0
		c0.3,0.3,0.7,0.7,1,1.1l0,0c0.5,0.7,0.9,1.5,0.9,2.4l0,0c0,0.7-0.2,1.4-0.9,2l0,0c0,0,3.3,0.2,4.6,0.9l0,0c1.4,0.7,2.4,1.6,3.2,3.3
		l0,0c0.5,1,0.7,1.6,1.4,1.8l0,0c0.7,0.2,1.8,0.5,1.8,0.5l0,0c-1.8,2.9-1.9,6.4-0.6,8.2l0,0c1.1,1.6,2.4,1.7,2.4,1.7l0,0
		c0.5,1.6,1.2,2,2,2.1l0,0c0.7,0.1,0.9-0.1,0.9-0.1l0,0c0,0-0.3-0.1-0.8-0.7l0,0c-0.5-0.6-0.7-1-0.7-1.2l0,0
		c0.1-0.3,0.5-0.7,0.8-1.6l0,0c0.5-0.9,0.5-1.7,0.5-3.2l0,0c0-1.4-0.1-2.8-0.3-3.2l0,0c-0.2-0.5-0.2-0.6-0.2-0.6l0,0
		c1.2,0.7,2.5,2.1,2.5,2.1l0,0c0.5-0.6,1.2-0.9,1.9-0.9l0,0c0.7-0.1,1.5,0.3,2,1l0,0c0.7,0.7,1.2,1.1,2,1.1l0,0
		c0.7,0.1,1.6-0.1,1.6-0.1l0,0c4,3.8,7.7,3.6,8.7,3.7l0,0c1,0.1,1.2,0.2,1.7,0.7l0,0c0.5,0.6,0.7,1.1,0.7,1.1l0,0
		c0.2-0.5,1-2.5,0.2-5.2l0,0c-0.8-2.7-3.8-3.5-5.3-3.8l0,0c-1.4-0.5-5.4-0.9-5.4-0.9l0,0c0,0,0.9,0,2.7-0.1l0,0
		c1.7-0.1,3.6-1.4,4.2-1.9l0,0c0.6-0.6,0.9-0.6,1.2-0.6l0,0c0.3,0.1,0.9,0.5,0.9,0.5l0,0c-2-4.1-6.5-3.5-8.5-2.9l0,0
		c-1,0.3-1.7,0.7-2.4,1.1l0,0c-0.9,0.6-1.8,1-3.5,1l0,0c-2.4-0.1-4.3-0.3-4.9-2.1l0,0c-0.1-0.5-1.2-1.9-2.9-2l0,0l-0.9-0.1v-0.9
		c0-0.6-0.2-2.4-1-3.3l0,0l-0.6-0.6l0.6-0.7c0,0,0.6-0.6,0.7-2.1l0,0l0,0c-0.2,0.1-0.5,0.1-0.6,0.2l0,0c-1.2,0.2-2.1-0.2-4-1l0,0
		c-1-0.5-3.2-1.5-4.6-2.3l0,0C117.7,100.7,117.7,100.9,117.7,101.2 M77.7,102.7c-1.7,0.8-2.7,1.2-4,1l0,0c-0.2-0.1-0.5-0.1-0.6-0.2
		l0,0l0,0c0.2,1.5,0.7,2.1,0.7,2.1l0,0l0.6,0.7l-0.6,0.6c-0.8,0.9-1,2.7-1,3.3l0,0v0.9l-0.9,0.1c-1.7,0.1-2.8,1.6-2.9,2l0,0
		c-0.6,1.8-2.5,2-4.9,2.1l0,0c-1.7,0.1-2.6-0.5-3.5-1l0,0c-0.6-0.3-1.2-0.8-2.4-1.1l0,0c-1.9-0.6-6.4-1.1-8.5,2.9l0,0
		c0,0,0.6-0.3,0.9-0.5l0,0c0.3-0.1,0.7,0,1.2,0.6l0,0c0.6,0.6,2.5,1.8,4.2,1.9l0,0c1.7,0.1,2.7,0.1,2.7,0.1l0,0c0,0-4,0.6-5.4,0.9
		l0,0c-1.4,0.5-4.5,1.2-5.3,3.8l0,0c-0.8,2.7,0,4.7,0.2,5.2l0,0c0,0,0.2-0.6,0.7-1.1l0,0c0.5-0.6,0.7-0.7,1.7-0.7l0,0
		c1-0.1,4.7,0.1,8.7-3.7l0,0c0,0,0.7,0.1,1.6,0.1l0,0c0.7-0.1,1.4-0.5,2-1.1l0,0c0.7-0.7,1.4-1.1,2-1l0,0c0.7,0.1,1.4,0.5,1.9,0.9
		l0,0c0,0,1.2-1.5,2.5-2.1l0,0c0,0,0,0.1-0.2,0.6l0,0c-0.2,0.5-0.3,1.8-0.3,3.2l0,0c0,1.4,0.1,2.3,0.5,3.2l0,0
		c0.5,0.9,0.7,1.1,0.8,1.6l0,0c0,0.2-0.2,0.7-0.7,1.2l0,0c-0.5,0.6-0.8,0.7-0.8,0.7l0,0c0,0,0.1,0.2,0.9,0.1l0,0
		c0.7-0.1,1.6-0.6,2-2.1l0,0c0,0,1.2-0.2,2.4-1.7l0,0c1.4-1.9,1.2-5.3-0.5-8.2l0,0c0,0,1-0.2,1.8-0.5l0,0c0.7-0.2,0.9-0.8,1.4-1.8
		l0,0c0.9-1.8,1.9-2.7,3.2-3.3l0,0c1.4-0.7,4.6-0.9,4.6-0.9l0,0c-0.7-0.7-0.9-1.4-0.9-2l0,0c0-0.9,0.5-1.6,0.9-2.4l0,0
		c0.3-0.5,0.7-0.9,1-1.1l0,0c-1.4-0.7-2.8-1.8-3.3-3.5l0,0c-0.1-0.3-0.1-0.7-0.1-0.9l0,0c0-0.2,0-0.5,0.1-0.6l0,0
		C80.8,101.3,78.7,102.3,77.7,102.7 M95.6,116.8c-1.2,0.5-1.9,1.7-1.9,1.7l0,0c0.2,0.1,0.8,0.5,1.4,0.9l0,0c0.8,0.7,0.7,1.4-0.2,3.4
		l0,0c-0.8,2-2,5.2-4.9,7.2l0,0c-1.1,0.8-2.5,1.4-3.3,1.7l0,0c-4.4,2.4-4.3,5.1-4.3,5.1l0,0c5,0.9,9-1.8,10.8-2.8l0,0
		c1.7-1.1,3.8-2.9,3.8-2.9l0,0c-1.1,4.5-6,7.7-8.6,9.4l0,0c-2.6,1.6-7.2,3.3-7.2,3.3l0,0c0,0,0.6,1.9,4.9,1.9l0,0
		c4-0.1,6.7-2.7,9.5-5.6l0,0c2.8-3,3-4.1,3-4.1l0,0c0.1,0.8-0.7,2.5-2.1,4.2l0,0c-1.4,1.6-4.6,4.5-4.6,4.5l0,0c0,0,1.4,0.9,1.8,0.9
		l0,0c0.2,0,1.2-0.2,2.6-1.2l0,0c1.4-0.9,3.3-2.4,3.3-2.4l0,0c0,0,0-0.3,0-2.4l0,0c0-2,0.1-6.4,0.5-6.7l0,0c0.2,0.2,0.5,4.6,0.5,6.7
		l0,0c0,2,0,2.4,0,2.4l0,0c0,0,1.8,1.4,3.3,2.4l0,0c1.4,0.9,2.4,1.2,2.6,1.2l0,0c0.5,0,1.8-0.9,1.8-0.9l0,0c0,0-3.3-2.8-4.6-4.5l0,0
		c-1.4-1.6-2.1-3.4-2.1-4.2l0,0c0,0,0.1,1,3,4.1l0,0c2.8,3,5.5,5.6,9.5,5.6l0,0c4.2,0.1,4.9-1.9,4.9-1.9l0,0c0,0-4.5-1.7-7.2-3.3
		l0,0c-2.6-1.6-7.5-4.9-8.7-9.4l0,0c0,0,2.1,1.8,3.8,2.9l0,0c1.7,1.1,5.8,3.8,10.8,2.8l0,0c0,0,0.1-2.7-4.3-5.1l0,0
		c-0.7-0.5-2-0.9-3.3-1.7l0,0c-2.8-1.9-4.1-5.1-4.9-7.2l0,0c-0.8-2-0.9-2.7-0.1-3.4l0,0c0.6-0.6,1.1-0.9,1.4-0.9l0,0
		c0,0-0.6-1.2-1.9-1.7l0,0c-1.2-0.5-2.3-0.7-4.4-0.9l0,0C97.9,116.1,96.8,116.4,95.6,116.8 M106.4,119.3c0,0-0.5,0.2-1,0.8l0,0
		c-0.3,0.2-0.5,0.5,0.5,2.4l0,0l0.1,0.2c0.8,1.9,1.9,4.9,4.5,6.7l0,0c0.3,0.2,0.7,0.5,1,0.7l0,0c0.1,0,0.1,0.1,0.1,0.1l0,0
		c-0.1-0.7-0.2-1.7-0.2-3.2l0,0v-0.1c0-2.1,0.6-4.3,1.7-6.2l0,0c-1-0.6-2.9-1.2-5.8-1.6l0,0c-0.1,0-0.1,0-0.1,0l0,0
		C107,119.1,106.8,119.2,106.4,119.3 M92.6,119.1c-2.8,0.2-4.7,1-5.8,1.6l0,0c1.1,1.9,1.7,4.1,1.7,6.2l0,0c0,0.1,0,0.1,0,0.1l0,0
		c0,1.4-0.1,2.5-0.2,3.2l0,0l0.1-0.1l0,0c0.3-0.2,0.7-0.5,1-0.7l0,0c2.6-1.7,3.8-4.6,4.5-6.7l0,0l0.1-0.2c0.8-2,0.7-2.1,0.5-2.4l0,0
		c-0.6-0.6-1-0.8-1-0.8l0,0C93.1,119.2,92.9,119.1,92.6,119.1L92.6,119.1C92.7,119.1,92.7,119.1,92.6,119.1 M134.8,121.4
		c-1.2,0-1.9,1.2-1.9,1.2l0,0c0,0-0.6-0.6-1.1-0.9l0,0c0,0,0,1.4-0.1,1.9l0,0c0,0,4.5,1.7,5.1,2l0,0c0,0-0.1,0.5-0.1,0.9l0,0
		c0,0.5,0.1,1.8,0.9,2.6l0,0c0.9,0.8,1.9,0.8,2.6,1.4l0,0c0.7,0.5,1.4,1.2,1.4,2.4l0,0c0,1-0.8,1.4-0.8,1.4l0,0
		c1.6,0.3,2.4-0.5,2.4-1.7l0,0c0.1-1.2-1.2-2.3-1.2-2.3l0,0c0,0,1.2-0.6,1.6-1.7l0,0c0.2-1-0.2-2.3-0.9-3.2l0,0
		c-0.7-0.9-2.6-1.9-2.6-1.9l0,0c-2.3,0.1-2.4-0.1-2.8-0.6l0,0C136.6,122.5,136,121.4,134.8,121.4L134.8,121.4L134.8,121.4
		 M65.2,121.4c-1.1,0-1.7,1.2-2.1,1.7l0,0c-0.5,0.5-0.6,0.7-2.8,0.6l0,0c0,0-1.9,1-2.6,1.9l0,0c-0.7,0.9-1.2,2.1-1,3.2l0,0
		c0.2,1,1.6,1.7,1.6,1.7l0,0c0,0-1.4,1-1.2,2.3l0,0c0.1,1.2,0.8,2,2.4,1.7l0,0c0,0-0.7-0.3-0.7-1.4l0,0c0-1,0.6-1.8,1.4-2.4l0,0
		c0.7-0.5,1.7-0.6,2.6-1.4l0,0c0.9-0.8,0.9-2.1,0.9-2.6l0,0c0-0.5-0.1-0.9-0.1-0.9l0,0c0.6-0.3,5.1-2,5.1-2l0,0
		c-0.1-0.6-0.1-1.9-0.1-1.9l0,0c-0.6,0.2-1.1,0.9-1.1,0.9l0,0C67.2,122.6,66.5,121.4,65.2,121.4L65.2,121.4L65.2,121.4 M121.8,143.3
		c1.8-0.1,3.6-0.1,3.7-0.1l0,0c0.1-0.1,0.2-1.2,0.5-2.1l0,0c0.2-0.9,0.5-1.2,0.7-1.2l0,0c0.2-0.1,0.9-0.1,2-0.7l0,0
		c1.2-0.6,1.2-1.5,1.2-1.5l0,0c-2,0.9-3.4,1-6.2,1.2l0,0c-2.8,0.1-5.4-1-5.4-1l0,0c0,0-4.5,0.6-8.4-1.2l0,0
		c-3.3-1.6-6.2-3.8-6.2-3.8l0,0C106.4,138.4,117.2,143.4,121.8,143.3 M90,136.4c-3.8,1.8-8.4,1.2-8.4,1.2l0,0c0,0-2.6,1.2-5.4,1l0,0
		c-2.8-0.1-4.2-0.3-6.2-1.2l0,0c0,0,0.1,0.9,1.2,1.5l0,0c1.2,0.6,1.8,0.7,2,0.7l0,0c0.2,0.1,0.5,0.2,0.7,1.2l0,0
		c0.2,0.9,0.2,2,0.5,2.1l0,0c0.1,0.1,1.9,0.1,3.7,0.1l0,0c4.7,0.1,15.4-4.9,18.1-10.7l0,0C96.2,132.5,93.2,134.9,90,136.4"/>
	<path id="path3856" inkscape:connector-curvature="0" class="st2" d="M177.4,139.2l-6.3,9l0.9,0.7l0.3-0.5c0.3-0.5,0.6-0.6,0.8-0.6
		c0.2,0,0.6,0.1,1.1,0.5l6.4,4.5c0.7,0.5,0.8,0.7,0.9,0.9s-0.1,0.6-0.2,1l-0.2,0.5l0.9,0.7l3.6-5.1l-0.9-0.7l-0.3,0.5
		c-0.5,0.6-0.7,0.7-0.9,0.7s-0.6-0.1-1.1-0.5c0,0-2.6-1.8-3-2c0.2-0.2,0.6-0.7,0.6-0.7c0.5-0.6,0.9-0.9,1.2-1c0.5-0.1,1,0.1,1.7,0.5
		l0.2,0.1l0.7-1l-5-3.5l-0.7,1l0.2,0.2c0.8,0.7,1,1.1,1,1.4v0.1c0,0.2-0.1,0.7-0.7,1.5c0,0-0.3,0.5-0.6,0.7
		c-0.5-0.2-2.1-1.6-2.1-1.6c-0.5-0.2-0.7-0.6-0.7-0.9c0-0.1,0-0.1,0-0.1c0-0.2,0.1-0.6,0.5-1l0.2-0.3c0.7-0.9,1.4-1.7,2.1-2.1
		s1.8-0.7,3-0.8h0.2l0.2-1.2l-2-0.5l-1.9-0.3L177.4,139.2z"/>
	<path id="path3860" inkscape:connector-curvature="0" class="st2" d="M182.4,126.8l-0.2,0.7c0,0,0.3,0.5,0.6,0.6
		c-1,0.7-1.9,1.8-2.4,3c-0.2,0.8-0.5,1.6-0.5,2.4c0,1,0.2,1.9,0.7,2.8c0.8,1.7,2.1,2.8,4,3.5s3.6,0.6,5.3-0.2
		c1.7-0.9,2.8-2.1,3.6-4.2c0.5-1.2,0.6-2.5,0.5-3.6c-0.2-1.1-0.7-2.3-1.6-3.3l-0.2-0.2l-1.1,1l0.2,0.2c0.6,0.7,1,1.6,1.1,2.5
		s0.1,1.8-0.2,2.6c-0.5,1.4-1.2,2.1-2.5,2.6c-1.2,0.5-2.5,0.5-4.2-0.2c-1.6-0.6-2.7-1.4-3.3-2.4c-0.7-1-0.7-2-0.3-3.3
		c0.3-1,0.9-1.7,1.7-2.1s1.9-0.8,3.5-0.9h0.2l0.5-1l-5.1-0.7L182.4,126.8z"/>
	<path id="path3864" inkscape:connector-curvature="0" class="st2" d="M14.1,125.8c-1,0.3-1.7,1-2,2c-0.2,0.6-0.2,1.4-0.2,2.4
		c0,0.7,0.1,1.5,0.1,2.4c0.1,0.7,0.1,1.4,0.1,1.9s0,0.9-0.1,1.1c-0.1,0.5-0.5,0.7-0.9,0.9c-0.7,0.2-1.4,0.1-1.9-0.3s-1-1.1-1.4-2
		c-0.3-1-0.2-2,0.1-3.2s1-2,1.9-2.9l0.2-0.2l-0.7-1.1l-4.1,2.8l0.3,1.1c0,0,0.6,0.1,0.8,0.1c-0.1,0.6-0.2,1.2-0.2,1.8
		c0,0.7,0.1,1.5,0.3,2.1c0.5,1.6,1.2,2.7,2.4,3.5s2.4,1,3.6,0.6c1-0.3,1.7-0.9,2-1.9c0.3-0.9,0.5-2.3,0.2-4.3
		c-0.1-1.7-0.2-2.9-0.1-3.5c0.1-0.6,0.5-0.8,0.9-0.9c0.5-0.1,0.9-0.1,1.4,0.2c0.5,0.3,0.8,0.9,1,1.6c0.2,0.9,0.2,1.7,0.1,2.6
		c-0.2,0.9-0.7,1.8-1.4,2.6l-0.1,0.2l0.7,0.9l3.2-2.5l-0.3-1c0,0-0.5,0-0.6-0.1c0.1-0.5,0.1-0.9,0.1-1.2c0-0.7-0.1-1.5-0.3-2.3
		c-0.5-1.4-1-2.4-2-3C16.2,125.7,15.2,125.4,14.1,125.8"/>
	<path id="path3868" inkscape:connector-curvature="0" class="st2" d="M21.1,136.3l-1.7,0.5l-2,0.5l0.3,1.2h0.2c1,0,1.9,0.1,2.6,0.5
		s1.2,0.8,1.7,1.5v0.1c0.2,0.3,0.2,0.5,0.2,0.5l0,0c0,0-0.1,0.1-0.3,0.2l-7.3,4.5c-0.7,0.5-1,0.5-1.1,0.5c-0.2,0-0.5-0.2-0.9-0.8
		l-0.3-0.5l-0.9,0.6l3.4,5.5l0.9-0.6l-0.2-0.6c-0.3-0.7-0.3-0.9-0.3-1.1c0.1-0.2,0.2-0.5,0.9-0.9l7.3-4.5c0.3-0.2,0.5-0.2,0.5-0.2
		l0,0c0,0,0.1,0.1,0.3,0.5l0.1,0.1c0.3,0.6,0.6,1.2,0.6,2c0,0.1,0,0.1,0,0.2c0,0.8-0.2,1.7-0.7,2.5l-0.1,0.2l0.9,0.9l2.6-3l-6.1-9.9
		L21.1,136.3z"/>
	<path id="path3872" inkscape:connector-curvature="0" class="st2" d="M44.2,155.2l-0.6,0.7l0.5,0.3c0.5,0.3,0.6,0.6,0.6,0.9
		c0,0.2-0.1,0.6-0.6,1l-3.6,4.6c-0.7,0.9-1.4,1.5-2.1,1.6c-0.7,0.2-1.4,0-2.1-0.6c-0.8-0.6-1.2-1.2-1.2-2c-0.1-0.7,0.2-1,0.8-1
		c0.8-0.1,1.1-0.6,1.2-0.9s0.1-0.9-0.6-1.5c-0.5-0.3-0.9-0.5-1.4-0.3c-0.5,0.1-0.9,0.3-1.2,0.8c-0.7,0.9-0.9,2-0.6,3.3
		s1,2.3,2.1,3.2c1.4,1,2.6,1.6,3.7,1.5c1.1-0.1,2.1-0.7,3.2-1.9l3.8-5c0.5-0.6,0.7-0.7,0.9-0.8c0.2-0.1,0.6,0.1,1,0.3l0.5,0.3
		l0.7-0.9l-4.7-3.7L44.2,155.2z"/>
	<path id="path3876" inkscape:connector-curvature="0" class="st2" d="M48.8,170.8c-0.2-1.2,0.1-2.5,0.9-4c0.8-1.5,1.8-2.4,3-2.8
		c1.1-0.5,2.3-0.3,3.4,0.3c1.1,0.7,1.8,1.6,2,2.8s-0.1,2.5-0.9,4c-0.8,1.5-1.8,2.4-2.9,2.8c-1.1,0.5-2.3,0.3-3.4-0.3
		C49.7,172.9,49.1,172,48.8,170.8 M51.6,162.1c-1.9,0.5-3.3,1.6-4.3,3.3c-0.6,1-0.9,2.1-0.9,3.3c0,0.7,0.1,1.4,0.3,2
		c0.6,1.8,1.7,3.3,3.5,4.3c1.8,1,3.6,1.2,5.4,0.9c1.9-0.5,3.3-1.6,4.3-3.2c1-1.7,1.2-3.5,0.7-5.3c-0.6-1.8-1.7-3.3-3.5-4.3
		C55.2,161.9,53.4,161.6,51.6,162.1"/>
	<path id="path3880" inkscape:connector-curvature="0" class="st2" d="M64.2,167.9l-0.2,0.8l0.6,0.2c0.5,0.2,0.7,0.5,0.8,0.7
		c0.1,0.1,0.1,0.6-0.2,1.2l-2.7,7.3c-0.2,0.7-0.6,1-0.7,1c-0.2,0.1-0.6,0.1-1-0.1l-0.6-0.1l-0.5,1l5.8,2.1l0.5-1l-0.6-0.2
		c-0.5-0.2-0.7-0.5-0.8-0.7c0-0.1,0-0.1,0-0.2c0-0.2,0.1-0.6,0.2-1c0,0,1.1-2.9,1.2-3.5c0.5,0.2,5.4,2,5.9,2.1
		c-0.2,0.5-1.2,3.5-1.2,3.5c-0.2,0.7-0.5,0.9-0.7,1c-0.2,0.1-0.6,0.1-1-0.1l-0.6-0.1l-0.5,1l5.8,2.1l0.5-1l-0.6-0.2
		c-0.5-0.2-0.7-0.5-0.8-0.7c-0.1-0.1-0.1-0.6,0.2-1.2l2.7-7.3c0.2-0.7,0.5-0.9,0.7-1c0.2-0.1,0.6-0.1,1,0.1l0.6,0.1l0.5-1l-5.8-2.1
		l-0.5,1l0.6,0.2c0.5,0.2,0.7,0.5,0.8,0.7c0,0.1,0,0.1,0,0.2c0,0.2-0.1,0.6-0.2,1c0,0-0.8,2.1-0.9,2.6c-0.5-0.2-5.4-2-5.9-2.1
		c0.2-0.5,0.9-2.6,0.9-2.6c0.2-0.7,0.6-0.9,0.7-1c0.2-0.1,0.6-0.1,1,0.1l0.6,0.1l0.5-1l-5.8-2.1L64.2,167.9z"/>
	<path id="path3884" inkscape:connector-curvature="0" class="st2" d="M79.5,173.2l-0.1,0.8l0.6,0.1c0.5,0.1,0.8,0.2,0.9,0.5
		c0.1,0.1,0.1,0.5,0,1.2l-1.5,7.7c-0.1,0.7-0.3,1-0.5,1.1c-0.2,0.1-0.6,0.2-1,0.1l-0.6-0.1l-0.2,1l5.3,1l0.2-1.1l-0.6-0.1
		c-0.7-0.1-0.9-0.5-1-0.6c-0.1-0.1-0.1-0.2-0.1-0.6c0-0.2,0-0.5,0.1-0.7c0,0,1.2-6.1,1.5-7.7c0.7,1.7,4.7,11.6,4.7,11.6l2.1,0.5
		l1.9-10.3c0.1-0.7,0.3-1,0.5-1.1c0.2-0.1,0.6-0.2,1-0.1l0.6,0.1l0.2-1.1l-5.3-1l-0.2,1.1l0.6,0.1c0.7,0.2,0.9,0.5,1,0.6
		c0.1,0.1,0.1,0.2,0.1,0.6c0,0.2,0,0.5-0.1,0.7c0,0-0.9,5.1-1.2,6.7c-0.7-1.6-4.2-10.4-4.2-10.4l-4.6-0.9v0.3H79.5z"/>
	<path id="path3888" inkscape:connector-curvature="0" class="st2" d="M99.6,175.5L99.6,175.5c-1.4,0-2.5,0.3-3.4,1
		c-0.9,0.7-1.4,1.6-1.4,2.7s0.5,1.9,1.4,2.5c0.8,0.6,2.3,1,4.4,1.5c1.6,0.3,2.5,0.6,2.9,0.9c0.5,0.2,0.6,0.7,0.6,1.2
		c0,0.7-0.2,1.2-0.9,1.7s-1.4,0.7-2.4,0.7c-1,0-2-0.3-3-0.9c-0.9-0.7-1.7-1.6-2.3-2.7l-0.1-0.2l-1.2,0.5l1.6,4.7h1.1
		c0,0,0.2-0.6,0.2-0.7c1.2,0.7,2.5,1,3.8,1c1.7,0,3-0.5,4.1-1.2c1-0.8,1.6-1.9,1.6-3.3c0-1.1-0.5-1.9-1.2-2.5c-0.7-0.6-2-1-4-1.4
		c-1.7-0.3-2.8-0.7-3.4-0.9c-0.5-0.2-0.7-0.6-0.7-1c0-0.5,0.2-0.9,0.7-1.2s1-0.6,1.9-0.6c0.9,0,1.7,0.2,2.5,0.7c0.8,0.5,1.6,1.2,2,2
		l0.1,0.2l1.1-0.5l-1.4-3.8h-1.1c0,0-0.1,0.3-0.2,0.6C102.1,175.7,100.8,175.5,99.6,175.5"/>
	<path id="path3892" inkscape:connector-curvature="0" class="st2" d="M118.8,173.3l-11.3,2l-0.6,4l1.2,0.1l0.1-0.2
		c0.3-0.9,0.8-1.7,1.4-2.3s1.2-0.9,2-1h0.1c0.5-0.1,0.6,0,0.6,0s0.1,0.1,0.1,0.5l1.6,8.5c0.1,0.2,0.1,0.5,0.1,0.7s-0.1,0.5-0.1,0.6
		c-0.1,0.1-0.3,0.5-1,0.6l-0.6,0.1l0.2,1.1l6.4-1.2l-0.2-1.1l-0.6,0.1c-0.7,0.1-1,0-1.2-0.1s-0.3-0.5-0.5-1.1l-1.6-8.5
		c0-0.1-0.1-0.2-0.1-0.3s0-0.1,0-0.1s0.1-0.1,0.5-0.1h0.1c0.7-0.1,1.6-0.1,2.1,0.2c0.7,0.3,1.4,0.9,2,1.6l0.1,0.2l1.1-0.6l-1.9-3.5
		H118.8z"/>
	<path id="path3896" inkscape:connector-curvature="0" class="st2" d="M125.3,178.4c-0.3-0.9-0.5-1.7-0.5-2.5c0-0.6,0.1-1.1,0.2-1.6
		c0.5-1.1,1.2-1.9,2.5-2.4c1.2-0.5,2.4-0.3,3.4,0.3c1,0.7,1.9,1.8,2.4,3.4s0.6,2.9,0.2,4.2c-0.5,1.1-1.2,1.9-2.5,2.4
		c-1.2,0.5-2.4,0.3-3.4-0.3C126.6,181.1,125.8,180.1,125.3,178.4 M127.1,170.5L127.1,170.5c-1.9,0.7-3.3,1.9-4.2,3.5
		c-0.9,1.7-1,3.5-0.5,5.3c0.7,1.9,1.9,3.2,3.6,4c1.7,0.8,3.6,0.9,5.5,0.2s3.3-1.9,4.2-3.5c0.9-1.6,1-3.5,0.3-5.3
		c-0.7-1.9-1.8-3.2-3.6-4C130.9,169.9,129,169.8,127.1,170.5"/>
	<path id="path3900" inkscape:connector-curvature="0" class="st2" d="M147.3,161l-2,1.1l-2.4,1.2l0.6,1l0.6-0.2
		c0.6-0.3,0.9-0.2,1.1-0.2c0.1,0.1,0.5,0.2,0.8,0.9c0,0,2.5,4.5,3.3,5.9c-1.6-0.9-9.7-5.4-9.7-5.4l-4.2,2.3l0.6,1l0.5-0.2
		c0.5-0.2,0.8-0.2,1-0.2c0.1,0.1,0.5,0.2,0.8,0.9l3.7,6.9c0.3,0.7,0.5,1,0.3,1.2s-0.2,0.5-0.7,0.7l-0.5,0.2l0.6,1l4.7-2.6l-0.6-1
		l-0.6,0.2c-0.6,0.3-0.9,0.2-1.1,0.2c-0.2-0.1-0.5-0.2-0.8-0.9c0,0-3-5.4-3.8-6.9c1.6,0.9,11,6,11,6l1.9-1l-5.1-9.1
		c-0.3-0.7-0.5-1-0.3-1.2s0.2-0.5,0.7-0.7l0.5-0.2l-0.6-1L147.3,161z"/>
	<path id="path3904" inkscape:connector-curvature="0" class="st2" d="M157.5,153.4l-9.1,6.9l0.7,0.9l0.5-0.3c0.5-0.2,0.7-0.5,1-0.3
		c0.1,0.1,0.5,0.2,0.9,0.8l4.6,6.2c0.5,0.6,0.6,0.9,0.6,1.1s-0.2,0.6-0.6,0.9l-0.5,0.3l0.7,0.9l9.5-7.1l-0.6-2.3l-0.6-2.4l-1.2,0.2
		v0.2c-0.1,1.6-0.3,2.8-0.8,3.8c-0.5,0.9-1.2,1.9-2.4,2.7l-0.2,0.2c-0.5,0.3-0.9,0.6-1.2,0.5c-0.3,0.1-0.7-0.1-1-0.6
		c0,0-1.8-2.4-2-2.8c0.2-0.2,0.9-0.7,0.9-0.7c0.6-0.5,1.1-0.7,1.6-0.6c0.5,0.1,0.9,0.5,1.5,0.9l0.2,0.2l1-0.7l-3.6-4.9l-1,0.7
		l0.1,0.2c0.5,0.7,0.6,1.2,0.6,1.5c0,0.1,0,0.1,0,0.1c-0.1,0.2-0.2,0.7-1,1.2c0,0-0.6,0.5-0.9,0.7c-0.2-0.5-1.6-2.1-1.6-2.1
		c-0.2-0.3-0.5-0.7-0.5-0.9c0-0.1,0-0.1,0-0.1c0.1-0.2,0.2-0.6,0.7-0.9l0.7-0.6c0.9-0.6,1.8-0.9,2.8-1.1c1-0.1,2-0.1,3,0.2l0.2,0.1
		l0.7-1l-3.5-2L157.5,153.4z"/>
	<path id="path3908" inkscape:connector-curvature="0" class="st0" d="M82.4,92.4V63.1h35.1v29.2L100,107.8L82.4,92.4z"/>
	<path id="path3912" inkscape:connector-curvature="0" class="st3" d="M116.1,64.5v27.2c-0.8,0.7-14.7,12.9-16.1,14.2
		c-1.6-1.4-15.4-13.5-16.1-14.2V64.5H116.1z"/>
	<path id="path3916" inkscape:connector-curvature="0" class="st0" d="M108.7,82.5l0.3-2l2.7-0.3l-4.7-5l0,0l0.2-0.2l0,0l0.6,0.6
		c0.1,0.1,0.3,0.1,0.5,0l1.1-1c0.1-0.1,0.1-0.3,0-0.5l-0.6-0.6l0,0l0.9-0.9c0.1-0.1,0.1-0.3,0-0.5l-1-1.1c-0.1-0.1-0.3-0.1-0.5,0
		l-0.9,0.9l0,0l-0.6-0.6c-0.1-0.1-0.3-0.1-0.5,0l-1.1,1c-0.1,0.1-0.1,0.3,0,0.5l0.6,0.6l0,0l-7.7,7.2l0,0c-0.9,0-1.7-0.1-1.9-0.1
		c-0.7-0.1-1.4-0.5-1.4-0.5s0.3,0.1,1.6,0c1.2-0.1,1.9-0.5,2.3-1c0.5-0.6,0.2-1.6-0.1-2c-0.3-0.5-0.5-0.7-0.5-0.7
		c0.2-0.2,0.5-0.7,0.2-1.2c-0.2-0.5-0.8-0.5-1-0.2c-0.2,0.1-0.6,0.6-0.6,0.6c-0.2-0.1-1.2-0.2-2-0.2c-1,0.1-1.8,0.5-1.8,0.5
		c-0.3-0.6-0.9-0.6-1.2-0.5c-0.5,0.2-0.5,0.6-0.3,1c0.1,0.5,0.5,0.8,0.7,1.2c0.2,0.5,0.5,0.7,0.5,1.1c-0.1,0.5-0.6,2-0.6,3
		c0,1.2,0.1,1.8,0.5,2.4c0,0.1,0.1,0.1,0.1,0.1v0.1c-0.1,0.1-0.1,0.1-0.2,0.2c-0.3,0.2-0.7,0.6-1,0.9c-0.5,0.6-0.6,1.1-0.6,1.9
		c0,0.1,0,0.2,0,0.5l0,0L89,89.3c-0.1,0.1-0.1,0.3,0,0.5l1,1.1c0.1,0.1,0.3,0.1,0.5,0l1.1-1l0,0c0.3,0.5,0.7,0.7,1.5,0.7
		c0.9,0,1.4-0.5,1.5-0.7c0.1-0.1,0.1-0.1,0-0.2c-0.1-0.1-0.6-0.5-0.9-0.7c-0.2-0.1-0.5-0.3-0.6-0.6l0,0l1.7-1.7l0,0
		c0.1,0.1,0.2,0.1,0.5,0.2c0.6,0.3,0.9,0.6,1.2,1.2c0.3,0.8,0.5,1.2,0.5,2c0,0.8,0,1.6-0.2,1.9c-0.1,0.3-0.5,0.7-0.1,0.9
		c0.3,0.1,1,0.2,1.7-0.2c0.6-0.5,1-0.8,1-1.9c0-1.2,0-2.6,0-3c0-0.1,0.1-0.1,0.1-0.1c0.5-0.1,2.1-0.1,3.5-0.5
		c0.2-0.1,0.5-0.1,0.6-0.2h0.1v0.1c-0.1,0.2-0.2,0.6-0.5,0.9c-0.5,0.7-1,1.4-1.4,1.9c-0.3,0.5-0.6,0.7-0.6,1.2
		c0,0.6,0.2,0.7,0.7,0.9c0.5,0.1,1.1,0,1.8-0.7c0.6-0.7,1.7-1.9,2.1-2.5c0.2-0.3,0.5-0.6,0.6-0.7c0.1-0.1,0.2-0.1,0.2,0.1
		c0.1,0.2,0.1,0.6,0.1,0.9c0,0.6-0.2,1-0.9,2.1c-0.6,0.8-0.3,1.6,0.6,1.6c0.9,0,1.6-0.9,2.1-1.9s0.5-1.6,0.1-2.4
		c-0.2-0.5-0.6-1.1-0.8-1.7c-0.1-0.6-0.2-1.4-0.2-2.3c0-0.6,0.1-0.8,0.2-1c0.1-0.1,0.1-0.1,0.1,0.1c0,0.2-0.1,0.7-0.1,1.5
		c0,1,0.2,1.6,0.6,2.3c0.3,0.6,0.5,0.6,0.9-0.2c0.5-0.9,0.6-1.9,0.6-2.7c-0.1-0.8-0.1-1.2-0.6-1.7C109.1,82.9,108.8,82.7,108.7,82.5
		L108.7,82.5z M107,81.6c-0.2-0.1-0.6-0.2-1-0.3c-1.5-0.5-3.7-0.5-4.9-0.5l0,0l2.6-2.5l0,0L107,81.6C107,81.5,107,81.6,107,81.6z"/>
	<path id="path3920" inkscape:connector-curvature="0" class="st2" d="M108.5,80.9l-0.3-1.4l0,0l1.4,0.5l0,0l0.7-0.7l-0.6-0.7l0,0
		l-1.8-0.6l0,0l-0.5-1.9l0,0l-0.6-0.7l-0.7,0.7l0,0l0.3,1.4l0,0l-1.4-0.5l0,0l-0.7,0.7l0.6,0.7h0.1l1.8,0.6l0,0l0.5,1.8l0,0l0.6,0.7
		L108.5,80.9L108.5,80.9z"/>
	<path id="path3924" inkscape:connector-curvature="0" class="st0" d="M90.1,67.7h0.6c0.5,0,0.8,0,0.8-0.6c0-0.5-0.3-0.5-0.7-0.5
		h-0.7L90.1,67.7L90.1,67.7z M88.6,65.6h2.5c1.2,0,1.7,0.9,1.7,1.6c0,1.1-0.8,1.7-1.9,1.7H90v1.5h-1.5
		C88.6,70.3,88.6,65.6,88.6,65.6z"/>
	<path id="path3928" inkscape:connector-curvature="0" class="st0" d="M93.1,65.6h4v1.2h-2.5v0.6h2.3v1.1h-2.3v0.6h2.5v1.2h-4V65.6z
		"/>
	<path id="path3932" inkscape:connector-curvature="0" class="st0" d="M99.2,67.6h0.8c0.2,0,0.7-0.1,0.7-0.5c0-0.2-0.2-0.5-0.7-0.5
		h-0.7L99.2,67.6L99.2,67.6z M97.7,65.6h2.8c0.9,0,1.6,0.5,1.6,1.4c0,0.6-0.2,1-0.7,1.2c0.5,0.1,0.7,0.6,0.7,1.2c0,0.2,0,0.8,0.1,1
		h-1.5c-0.1-0.2-0.1-0.5-0.1-0.7c-0.1-0.5-0.1-0.9-0.7-0.9h-0.8v1.7h-1.4C97.7,70.4,97.7,65.6,97.7,65.6z"/>
	<path id="path3936" inkscape:connector-curvature="0" class="st0" d="M103.8,66.9h-1.4v-1.2h4.2v1.2h-1.4v3.5h-1.5V66.9z"/>
	<path id="path3940" inkscape:connector-curvature="0" class="st0" d="M107,65.6h1.5v1.7h1.4v-1.7h1.5v4.7h-1.5v-1.9h-1.4v1.9H107
		V65.6z"/>
	<path id="path3944" inkscape:connector-curvature="0" class="st0" d="M93,96.4h-1v-0.9c0.7,0,1.4-0.2,1.4-1h1v4.6H93V96.4z"/>
	<path id="path3948" inkscape:connector-curvature="0" class="st0" d="M96.8,96.3c0.3,0,0.7-0.1,0.7-0.5c0-0.5-0.3-0.6-0.7-0.6
		c-0.3,0-0.7,0.1-0.7,0.6C96.2,96.2,96.5,96.3,96.8,96.3 M96.8,98.2c0.3,0,0.7-0.1,0.7-0.6c0-0.5-0.3-0.6-0.7-0.6
		c-0.5,0-0.7,0.1-0.7,0.6C96.2,98.1,96.5,98.2,96.8,98.2 M96.8,94.5c1.2,0,1.9,0.6,1.9,1.2c0,0.5-0.2,0.9-0.7,1l0,0
		c0.6,0.1,0.9,0.5,0.9,1c0,1.1-1.1,1.5-2,1.5c-1,0-2-0.3-2-1.5c0-0.8,0.6-0.9,0.9-1l0,0c-0.5-0.1-0.7-0.5-0.7-1
		C95,94.6,96.2,94.5,96.8,94.5"/>
	<path id="path3952" inkscape:connector-curvature="0" class="st0" d="M101.3,96.3c0.3,0,0.7-0.1,0.7-0.5c0-0.5-0.3-0.6-0.7-0.6
		c-0.3,0-0.7,0.1-0.7,0.6C100.8,96.2,101.1,96.3,101.3,96.3 M101.3,98.2c0.3,0,0.7-0.1,0.7-0.6c0-0.5-0.3-0.6-0.7-0.6
		c-0.5,0-0.7,0.1-0.7,0.6C100.7,98.1,101.1,98.2,101.3,98.2 M101.3,94.5c1.2,0,1.9,0.6,1.9,1.2c0,0.5-0.2,0.9-0.7,1l0,0
		c0.6,0.1,0.9,0.5,0.9,1c0,1.1-1.1,1.5-2,1.5c-1,0-2-0.3-2-1.5c0-0.8,0.6-0.9,0.9-1l0,0c-0.5-0.1-0.7-0.5-0.7-1
		C99.6,94.6,100.7,94.5,101.3,94.5"/>
	<path id="path3956" inkscape:connector-curvature="0" class="st0" d="M104.9,97.1h1.1v-1.4L104.9,97.1z M106,98.2h-2V97l2.1-2.5
		h1.4v2.6h0.7v1.1h-0.7v0.9h-1.4v-0.9H106z"/>
	<path id="path3960" inkscape:connector-curvature="0" class="st2" d="M94.3,78.3c0,0.1,0.2,0.5,0.7,0.5c0.3,0.1,0.7-0.1,0.7-0.2
		c0-0.1-0.3-0.5-0.7-0.5C94.5,78.1,94.3,78.2,94.3,78.3 M96.9,92.8l0.1-0.1c0.1-0.3,0.2-0.9,0.2-1.7c0-0.1,0-0.2,0-0.5
		c0-0.8-0.1-1.4-0.5-2.4c-0.5-0.9-0.9-1.2-1.4-1.5l-0.1-0.1c-0.7-0.5-1.2-0.9-2-1.9c-0.7-0.9-0.9-1.2-0.9-2.9v-0.1
		c0-0.6,0.2-1.6,0.6-2.8c0.1-0.1,0.1-0.2,0.1-0.3c0-0.5-0.2-0.8-0.5-1.1l-0.2-0.2c-0.2-0.3-0.3-0.6-0.5-0.9
		c-0.1-0.1-0.1-0.2-0.1-0.2c0-0.1,0.1-0.2,0.1-0.2c0.2-0.1,0.7,0.1,0.9,0.5c0.2,0.3,0.3,0.2,0.6,0.1c0.2-0.2,0.6-0.5,1.2-0.6
		c0.6-0.1,1.1,0,1.6,0.1S96.9,76,97,76c0.1-0.1,0.3-0.2,0.5-0.5c0.2-0.2,0.5-0.3,0.6-0.2c0.1,0.1,0.2,0.1,0.1,0.5
		c-0.1,0.3-0.2,0.5-0.2,0.7c0,0.3,0.2,0.7,0.3,0.9c0.2,0.3,0.2,1,0.1,1.4c-0.2,0.2-0.6,0.7-1.9,0.7c-1,0.1-1.4,0-1.4,0
		c-0.3-0.1-0.7-0.2-0.8-0.3c-0.1-0.1-0.2,0.1-0.1,0.3c0.1,0.3,0.2,0.9,0.9,1c0.7,0.2,1.6,0.2,3.2,0.3c1.6,0,2.8,0,5,0.1
		c1.4,0.1,2,0.1,3,0.5c1,0.5,2,0.9,2.5,1.4c0.5,0.5,0.6,1.2,0.7,1.7c0,0.5-0.1,1.5-0.2,1.9c-0.2,0.5-0.2,0.7-0.5,0.3
		c-0.1-0.5-0.5-1.6-0.5-2.4s0-1.4-0.2-1.5c-0.2-0.1-0.6,0.3-0.7,0.6c-0.1,0.2-0.3,0.7-0.3,1.2c-0.1,0.9,0.1,1.7,0.2,2.3
		c0.2,0.7,0.5,1.1,0.7,1.6c0.2,0.5,0.3,0.9,0.3,1.2c0,0.2-0.1,0.6-0.3,1c-0.6,0.9-1,1.7-1.7,1.7c-0.2,0-0.3-0.1-0.3-0.1
		c0-0.1,0-0.2,0.2-0.6c0.7-1.1,0.9-1.8,0.9-2.5s-0.2-1.4-0.7-2c-0.6-0.7-0.8-1.2-1-1.2c-0.2,0-0.3,0.1-0.7,0.2
		c-0.3,0.2-0.7,0.5-0.9,0.6c-0.2,0.1-0.6,0.2-0.8,0.3c-0.7,0.2-1.6,0.2-2.3,0.3c-0.3,0-0.6,0.1-0.8,0.1c-0.5,0.1-0.9,0.1-0.9,0.7v3
		c0,0.9-0.2,1-0.7,1.4c-0.2,0.1-0.5,0.2-0.6,0.2C97,93.1,96.9,93.1,96.9,92.8"/>
	<path id="path3964" inkscape:connector-curvature="0" class="st2" d="M93,85.8c-0.1,0.1-0.2,0.1-0.2,0.2c-0.5,0.5-0.7,1-0.7,1.7
		c0,0.1,0,0.1,0,0.1c0,0.7,0.7,1.4,1.2,1.7c0,0,0.2,0.2,0.6,0.5c-0.1,0.1-0.5,0.2-0.7,0.2c-0.7,0-0.8-0.1-1.2-0.7
		c-0.5-0.6-0.6-1.4-0.6-1.9s0.1-1,0.5-1.5c0.2-0.2,0.6-0.6,0.8-0.7c0.1-0.1,0.3,0.1,0.5,0.1C92.9,85.5,93,85.8,93,85.8"/>
	<path id="path3968" inkscape:connector-curvature="0" class="st2" d="M105.6,88.3c-0.1,0.1-0.3,0.5-0.6,0.7c-0.5,0.6-1.4,1.9-2,2.5
		c-0.6,0.6-1,0.6-1.2,0.6c-0.1,0-0.2-0.1-0.2-0.3c0-0.2,0.1-0.5,0.5-0.8l0.1-0.1l0.6-0.8l0.8-1c0.6-0.7,0.7-1.4,0.7-1.5
		c0.1-0.2,0.2-0.3,0.3-0.3c0.2,0,0.7,0.1,1.2,0.7C105.8,88,105.8,88.1,105.6,88.3"/>
	<path id="path3972" inkscape:connector-curvature="0" class="st2" d="M82.4,23.4c-0.5,0.1-0.7,0.1-0.5,0.5c0.3,0.3,0.9,0.9,1,0.9
		c0.1,0.1,1.1-0.5,1.2-0.6c0.1-0.2-0.5-1-0.7-1C83.1,23.2,82.7,23.4,82.4,23.4"/>
	<path id="path3976" inkscape:connector-curvature="0" class="st2" d="M117.6,23.4c0.5,0.1,0.7,0.1,0.5,0.5c-0.3,0.3-0.9,0.9-1,0.9
		c-0.1,0.1-1.1-0.5-1.2-0.6c0-0.2,0.5-1,0.8-1C116.9,23.2,117.3,23.4,117.6,23.4"/>
	<path id="path3980" inkscape:connector-curvature="0" class="st2" d="M19.7,153c0,0.7-0.6,1.4-1.4,1.4c-0.8,0-1.4-0.6-1.4-1.4
		c0-0.7,0.6-1.4,1.4-1.4C19.2,151.7,19.7,152.4,19.7,153"/>
	<path id="path3984" inkscape:connector-curvature="0" class="st2" d="M188.2,145.3c0,0.7-0.6,1.4-1.4,1.4c-0.7,0-1.4-0.6-1.4-1.4
		c0-0.8,0.6-1.4,1.4-1.4C187.7,143.8,188.2,144.5,188.2,145.3"/>
	<path id="path3988" inkscape:connector-curvature="0" class="st2" d="M195.1,126.9c0,0.7-0.6,1.4-1.4,1.4s-1.4-0.6-1.4-1.4
		c0-0.7,0.6-1.4,1.4-1.4S195.1,126.3,195.1,126.9"/>
</g>
</svg>
