<?xml version="1.0" encoding="utf-8"?>
<!-- Generator: Adobe Illustrator 21.1.0, SVG Export Plug-In . SVG Version: 6.00 Build 0)  -->
<svg version="1.1" id="Layer_1" xmlns="http://www.w3.org/2000/svg" xmlns:xlink="http://www.w3.org/1999/xlink" x="0px" y="0px"
	 viewBox="0 0 200 200" style="enable-background:new 0 0 200 200;" xml:space="preserve">
<style type="text/css">
	.st0{fill:#FFFFFF;}
	.st1{fill:#16874B;}
	.st2{fill:#E8252C;}
	.st3{fill:#00ADEF;}
	.st4{fill:#FAC021;}
	.st5{fill:#F8B61E;}
	.st6{fill:#231F20;}
</style>
<g id="g5741" transform="matrix(1.25,0,0,-1.25,-18.30381,563.08393)">
	<g id="g6052" transform="matrix(0.57475594,0,0,0.57475594,9.6288216,39.750143)">
		<path id="path5743" class="st0" d="M147.9,438.7c0,0,57,22.7,93,91.2c32.3,61.4,25.4,133.9,25.4,133.9s-47.6,48.5-118.4,48.5
			l-0.1,0c-70.8,0-118.4-48.5-118.4-48.5s-6.9-72.6,25.4-133.9C90.9,461.3,147.9,438.7,147.9,438.7z"/>
		<path id="path5745" class="st1" d="M147.2,439.4l-47.1,30l-32.5,39.3l-22.3,38.2L30.7,607h116.5
			C147.2,607,147.2,439.4,147.2,439.4z"/>
		<path id="path5747" class="st2" d="M51.9,537.3c-4.8,10.3-15.8,48.4-15.8,48.4c9.3-6.4,29.7-13.8,36-23.3
			c2.4-5.2,1.7-11.1,4.2-16.1c2-3.4,9.6-6.1,12.3-4.3c0.5,1.4,0.6,2.2,1.2,3.7c-2.1,0.4-3.1,2.8-6.1,1.4c2.2,3.1,4.4,4.1,6.1,4.6
			c-0.4,1.3-0.6,2.6-0.9,3.7c-1.5-1.5-3.7,1.2-7.4-2c1,2.2,3.7,6,6.4,6.3c-0.5,1.6-0.4,2.7-0.6,3.4c-1.4-0.9-2.2,2-6.2-1.5
			c1,2.4,3.1,5.7,6.2,6.5c0,0.6-0.1,1.7,0.2,2.8c-1.2,0.7-3.7-0.3-5.6-1.5c0.6,3,4.8,5.4,7,5.8c-1.5,2.2,0,3.1-5.6,5.1
			c-0.7,1.6,1.3,0.9,1.4,2.1c0.6,1.2-2.8,3.5-0.6,5.2c1.4-1.3,2.9-2.4,5-2.8c-0.2,1.6-1.2,3-0.2,4.2c3.5-2.2,9.4-3.7,9.1-7.1
			c4.3,0.6,8.4,1.4,12.9,0.5c1.8-0.4,2.1-1,2.4-2.2c6.9-0.2,14.7-3,18.6-6l0,0h-11l0,0c-0.6-1.6-1.6-2.7-3.3-4.2
			c-1-0.5-2.2,0.1-3.2,0.7c-1.8,0.7-2.9,2.2-4.6,2.6c-2.6,0.1-5.9-2.8-6-5.4c4-0.2,8.2-3,12.6-3.4c1-3,0.1-6.6-1.4-9
			c0,1.6-1.2,4.9-2.3,7.1c0.1-1.5-0.9-2.8-1.9-3.4c-0.8,1.9-1.4,3.2-2.8,4.3c-1,1-1.8,0.6-3,0.1c2.5-1.6,3-4.2,2.6-6.4
			c1.4-0.6,2.9-3.3,2.4-5.7c2.3-0.2,3.9-4.4,3-6.1c2.7-1.3,2.9-5.4,2.1-7.1c2-0.5,2.5-4.1,1.4-5.4c2.8-2.3-0.6-7.2,1.1-7.4
			c2.9,3.7,7.2,6,11.2,8.2c0.2,3.8,1.8,7.6,3.2,11.2c-2.6,1.9-4.4,3.5-5.9,6c1.5,0.2,2.5,1.3,3,3c-0.2-2.6,2.1-2.9,2.7-5.8
			c-1,4.9,1.3,4.8-0.4,9.7c1.5-1.4,2.9-1.5,4.7-1.3c-1.8-3.1-0.9-6.2-0.2-9.2c1.6,1.2,2.6,4.3,2.5,7.4c1-1.7,2.1-2.2,3.8-2.2
			c-2.3-4-1.4-10.1-3.8-14c1-2.5,2.3-5.1,3.8-7.5c-0.6-2-0.6-3.3-0.7-5.8c-1.8,2.8-2.5,7.6-5.4,10.7l0,0c-3-12.6-7.8-17-16-26.6
			c-0.7-2.4-0.2-4.3,1.3-6.5c-2.2,0.6-4.2,2.3-5,5.3c-0.7,1.2-1.3,2.3-0.8,4c-2.6-1.4-5.4-0.9-7.5,0.7c1.8-1.9,2.1-2.8,0.7-4.3
			c1.8-1.2,1.9-1.9,1.2-3.5c1.6-0.9,1.8-2.3,1.3-4.2c2.2-0.4,3.9-2.2,4.1-4.6c1.8-1,3.2-1.6,5.3-1.8c2.6,1.4,5,2.7,7.1,4.6
			c0-1.6,1.2-2.6,3.2-3c-3.4-0.2-6.1-1-8-2.8c3.1,0.2,6.2,0.7,9.3,1.3c-1.1-1.3-1.6-2.2-1.5-3.8c-0.4,1-0.8,1.4-1.9,1.5
			c-2.1-1-5,0-7.4,0c-1.3-0.5-1.6-1-0.9-1.5c3.2-1.1,4.8-1.5,8.3-1.5c-1-0.7-1.8-0.9-1.4-2.5c-1.8,1.4-5.6-0.6-7,2.3
			c-1.3-0.2-1.8,0.4-4.5,0.4c-1.4,0.3-2.6,0.9-3,2.5c-1.9-2.5-4.7-4-9.4-4.5c-8.2-4.2,0.8,2.1,0.1,2.6c3,1,5.4,0.9,7.8,2.9
			c-5.4,5.6-9,9.6-12.5,16.4c-1,1.4-2.6,3-4.1,1.5c0.4-1.1,0.8-2.2,1.3-3.3c-1.2-0.3-1.6-1.7-2.2-3c-0.8,1.8-0.7,3.2-0.8,4.8
			c-7.5,2.5-18.4,6.6-23.7,6.3c0.6-2.1,3.4-3.8,3.3-5.5c-0.2-2.3-2.1-4.2-4.2-5.6C68.3,504.6,56.7,527,51.9,537.3L51.9,537.3z"/>
		<path id="path5749" class="st3" d="M254.5,559.4L228,506.8L187.2,461l-39.5-21.6V607h116.5L254.5,559.4z"/>
		<path id="path5751" class="st0" d="M146.8,607.1V438.5h2.3v168.6H146.8z"/>
		<path id="path5753" class="st1" d="M108.8,628.6c0-4.2-1.4-7.7-4.3-10.3c-2.9-2.7-6.8-4-11.8-4c-2.9,0-5.4,0.3-7.5,0.9
			c-2.1,0.6-4.1,1.4-6,2.4V628h1c1.8-1.8,3.9-3.2,6.2-4.2c2.3-1,4.5-1.5,6.6-1.5c0.5,0,1.3,0.1,2.1,0.2c0.9,0.1,1.6,0.3,2.2,0.6
			c0.7,0.3,1.2,0.8,1.7,1.3c0.4,0.5,0.7,1.3,0.7,2.3c0,0.9-0.3,1.8-1,2.4c-0.6,0.7-1.6,1.2-2.8,1.6c-1.3,0.4-2.7,0.7-4.1,1.1
			c-1.4,0.3-2.8,0.8-4.1,1.3c-2.9,1.2-5,2.8-6.3,4.8c-1.3,2-1.9,4.5-1.9,7.5c0,4,1.4,7.3,4.3,9.8c2.9,2.5,6.6,3.8,11.1,3.8
			c2.3,0,4.5-0.3,6.8-0.8c2.2-0.6,4.1-1.2,5.8-2.1v-9.9h-1c-1.4,1.4-3.1,2.6-5.1,3.5c-2,0.9-4.1,1.4-6.2,1.4c-0.7,0-1.5-0.1-2.2-0.2
			c-0.7-0.1-1.4-0.4-2.1-0.7c-0.6-0.3-1.1-0.7-1.6-1.3c-0.4-0.6-0.6-1.2-0.6-2c0-1.1,0.3-2,1-2.6c0.7-0.6,2-1.2,3.9-1.7
			c1.3-0.3,2.5-0.6,3.7-1c1.2-0.3,2.4-0.7,3.8-1.3c2.6-1.1,4.6-2.5,5.9-4.4C108.2,634,108.8,631.6,108.8,628.6L108.8,628.6z"/>
		<path id="path5755" class="st1" d="M124.2,614.3c-0.9-0.2-2.1-0.1-3.2-0.1c-2.4,0-4.3,0.1-5.9,1.6c-1.6,1.5-2.4,3.5-2.4,5.9
			c0,1.9,0.4,3.5,1.2,4.7c0.8,1.2,2,2.2,3.5,2.9c1.5,0.7,3.4,1.2,5.6,1.5c2.2,0.3,4.5,0.5,6.9,0.7v0.1c0,1.4-0.6,2.4-1.7,3
			c-1.1,0.6-2.8,0.8-5,0.8c-1.3,0-2.8-0.2-4.3-0.7c-1.5-0.5-2.6-0.9-3.3-1.1h-0.7v6.3c0.9,0.2,2.2,0.5,4.2,0.8
			c1.9,0.3,3.9,0.5,5.8,0.5c4.6,0,7.9-0.7,10-2.2c2-1.5,3.1-3.8,3.1-6.9v-17.7h-8v12.3c-1.1-0.1-2.3-0.2-3.6-0.4
			c-1.3-0.2-2.2-0.4-2.9-0.6c-0.8-0.3-1.4-0.6-1.9-1.1c-0.4-0.5-0.6-1.2-0.6-2c0-0.5,0-1,0.1-1.3c0.1-0.3,0.3-0.7,0.7-1
			c0.3-0.3,0.8-0.5,1.2-0.7c0.5-0.1,2.5-0.2,3.5-0.2L124.2,614.3z"/>
		<path id="path5757" class="st1" d="M152.3,614.1h-8.8v25.5h8.8V614.1z"/>
		<path id="path5759" class="st1" d="M185.4,614.1h-8.6v13.1c0,1.1-0.1,2.1-0.2,3.2c-0.1,1.1-0.3,1.8-0.6,2.3
			c-0.3,0.6-0.8,1-1.4,1.3c-0.6,0.3-1.5,0.4-2.6,0.4c-0.8,0-1.6-0.1-2.4-0.4c-0.8-0.3-1.7-0.6-2.6-1.2v-18.7h-8.6v26.4h8.6v-2.9
			c1.5,1.2,3,2.1,4.4,2.7c1.4,0.6,3,0.9,4.7,0.9c2.9,0,5.2-0.8,6.8-2.5c1.6-1.7,2.4-4.1,2.4-7.4V614.1z"/>
		<path id="path5761" class="st1" d="M204.3,614.4c-1-0.1-2.2-0.2-3.7-0.2c-3.3,0-5.7,0.7-7.3,2c-1.6,1.3-2.4,3.6-2.4,6.9v12.4h-3.4
			v5.8h3.4v4.7l8.4,2.8v-7.6h6.3v-5.8h-6.3v-9.4c0-0.9,0-1.7,0-2.4c0-0.7,0.1-1.3,0.4-1.9c0.2-0.6,0.6-1,1.2-1.3
			c0.6-0.3,1.4-0.5,2.4-0.5c0.3,0,0.6,0,1,0.1L204.3,614.4L204.3,614.4z"/>
		<path id="path5763" class="st1" d="M229,623.1c0-2.6-1-4.8-3.1-6.4c-2-1.6-4.9-2.4-8.4-2.4c-2,0-3.8,0.2-5.4,0.6
			c-1.6,0.4-2.9,0.9-3.9,1.4v6.7h0.7c0.4-0.3,0.8-0.6,1.2-0.9c0.5-0.3,1.1-0.7,2-1.1c0.7-0.3,1.6-0.6,2.5-0.9c0.9-0.2,1.9-0.4,3-0.4
			c1.4,0,2.4,0.2,3.1,0.5c0.7,0.4,1,0.9,1,1.6c0,0.6-0.2,1.1-0.6,1.4c-0.4,0.3-1.1,0.6-2.3,0.8c-0.5,0.1-1.2,0.3-2.1,0.4
			c-0.9,0.2-1.7,0.4-2.5,0.6c-2,0.6-3.5,1.6-4.5,2.8c-1,1.3-1.5,2.9-1.5,4.8c0,2.5,1,4.5,3,6.1c2,1.6,4.8,2.4,8.3,2.4
			c1.7,0,3.2-0.2,4.8-0.6c1.5-0.4,2.7-0.8,3.6-1.2v-6.5h-0.6c-1.1,0.8-2.3,1.5-3.6,2c-1.4,0.5-2.7,0.8-4.1,0.8
			c-1.1,0-2.1-0.2-2.9-0.5c-0.8-0.4-1.2-0.9-1.2-1.5c0-0.6,0.2-1.1,0.5-1.4c0.4-0.3,1.2-0.6,2.5-1c0.7-0.2,1.5-0.3,2.3-0.5
			c0.8-0.2,1.7-0.4,2.5-0.6c1.9-0.6,3.3-1.4,4.1-2.7C228.5,626.4,229,624.9,229,623.1z"/>
		<path id="path5765" class="st1" d="M92.2,688.8c-2.5-1-5-2-7.5-3.2c0-6.8,0-13.6,0-20.4c-2.1-0.9-4.1-1.9-6.1-2.9
			c0,6.8,0,13.6,0,20.4c-2.5-1.2-4.9-2.5-7.3-3.8c0,1.6,0,3.2,0,4.9c6.8,3.8,13.8,7.1,20.9,9.9C92.2,692.1,92.2,690.5,92.2,688.8z"
			/>
		<path id="path5767" class="st1" d="M114.3,675.5c-2-0.5-4-1-6-1.6c0,3.2,0,6.3,0,9.5c0,0.8,0,1.5-0.1,2.3
			c-0.1,0.7-0.2,1.3-0.4,1.6c-0.2,0.4-0.5,0.6-1,0.6c-0.4,0.1-1,0-1.8-0.2c-0.5-0.2-1.1-0.4-1.6-0.8c-0.6-0.4-1.2-0.8-1.8-1.4
			c0-4.5,0-9,0-13.5c-2-0.7-4-1.3-5.9-2.1c0,8.8,0,17.6,0,26.4c2,0.7,3.9,1.4,5.9,2.1c0-3.1,0-6.3,0-9.4c1.1,1.2,2.1,2.2,3,2.9
			c1,0.8,2.1,1.3,3.3,1.6c2,0.6,3.6,0.4,4.7-0.5c1.1-0.9,1.7-2.6,1.7-5C114.3,683.7,114.3,679.6,114.3,675.5z"/>
		<path id="path5769" class="st1" d="M138.6,687.9c-4.7-0.4-9.4-1-14-1.9c0.1-1.5,0.7-2.5,1.7-3.1c1-0.6,2.6-0.8,4.6-0.5
			c1.3,0.2,2.6,0.6,3.8,1.2c1.2,0.6,2.2,1.2,2.9,1.8c0.2,0,0.5,0,0.7,0.1c0-1.6,0-3.3,0-4.9c-1.4-0.7-2.7-1.2-3.9-1.6
			c-1.2-0.4-2.6-0.7-4.1-0.9c-3.8-0.5-6.7-0.2-8.8,1.1c-2,1.3-3,3.5-3,6.7c0,3.1,1,5.8,2.9,8.1c1.9,2.2,4.5,3.6,7.9,4.1
			c3.1,0.5,5.4-0.1,7-1.5c1.6-1.4,2.3-3.6,2.3-6.5C138.6,689.3,138.6,688.6,138.6,687.9 M132.4,690.8c0,1.3-0.4,2.2-1,2.7
			c-0.6,0.6-1.5,0.8-2.8,0.6c-1.2-0.2-2.1-0.6-2.9-1.4c-0.8-0.7-1.2-1.8-1.3-3.1C127.2,690.1,129.8,690.5,132.4,690.8z"/>
		<path id="path5771" class="st1" d="M178.1,678.3c-2.1,0.3-4.2,0.6-6.3,0.8c-3.6,6.2-7.2,12.2-10.7,18.2c0-5.8,0-11.6,0-17.3
			c-2,0.1-4,0.2-6,0.2c0,8.4,0,16.8,0,25.2c2.6,0,5.2-0.1,7.8-0.3c3.1-5,6.2-10.1,9.2-15.3c0,4.8,0,9.6,0,14.5c2-0.2,4-0.5,6-0.8
			C178.1,695.1,178.1,686.7,178.1,678.3z"/>
		<path id="path5773" class="st1" d="M202.7,681c-4.6,1.4-9.2,2.6-13.8,3.6c0.1-1.5,0.7-2.8,1.7-3.8c1-1,2.6-1.8,4.6-2.3
			c1.3-0.3,2.5-0.4,3.7-0.3c1.2,0.1,2.1,0.4,2.8,0.7c0.2-0.1,0.4-0.1,0.7-0.2c0-1.6,0-3.3,0-4.9c-1.3-0.1-2.6-0.2-3.8-0.1
			c-1.2,0.1-2.5,0.3-4,0.7c-3.8,1-6.7,2.4-8.7,4.6c-2,2.1-3,4.7-3,7.9c0,3.1,1,5.5,2.9,6.9c1.9,1.5,4.5,1.8,7.8,1
			c3.1-0.8,5.3-2.2,6.9-4.2c1.5-2,2.3-4.5,2.3-7.5C202.7,682.5,202.7,681.8,202.7,681 M196.7,686.4c0,1.3-0.3,2.3-0.9,3.1
			c-0.6,0.8-1.5,1.4-2.8,1.7c-1.2,0.3-2.1,0.2-2.9-0.2c-0.8-0.4-1.2-1.3-1.3-2.6C191.5,687.7,194.1,687.1,196.7,686.4z"/>
		<path id="path5775" class="st1" d="M235.6,677.6c-1.8-5.3-3.6-10.7-5.5-16.1c-2,1-4,2-6.1,3c-1.2,4.8-2.4,9.6-3.6,14.4
			c-1.2-3.7-2.4-7.5-3.6-11.3c-2.1,0.9-4.2,1.7-6.3,2.4c-1.9,7-3.8,14-5.7,21c2.1-0.7,4.1-1.4,6.2-2.1c1-4.7,2.1-9.5,3.1-14.3
			c1.3,3.9,2.6,7.7,3.9,11.5c1.7-0.7,3.4-1.5,5.1-2.2c1.2-4.9,2.4-9.9,3.6-14.8c1,3.9,2,7.8,3,11.6
			C231.7,679.7,233.7,678.7,235.6,677.6z"/>
		<path id="path5779" class="st1" d="M148.4,671.8c-8.4,0-15.3-6.8-15.3-15.2c0-8.4,6.8-15.3,15.3-15.3c8.4,0,15.2,6.8,15.2,15.3
			C163.6,665,156.8,671.8,148.4,671.8z M147.4,671c0.1-0.3,0.2-0.7,0.3-1.2c0.1-0.6,0.2-0.9,0.2-1.3c-0.2-0.2-1.5-0.9-2.8-1.9
			c-1-0.8-1.8-1.6-2.2-2c-0.3,0-1.1,0-2,0.1c-1.4,0.1-2.1,0.3-2.3,0.3l-0.2,0.6l-0.4,1C140.3,669.1,143.7,670.8,147.4,671z
			 M148,668.1c0.4-0.1,1.3-0.4,2.6-1c0.8-0.4,1.7-1.1,2-1.4v-3l-0.1-2.6c-0.2-0.2-0.9-0.6-2.1-1.2c-1-0.5-1.7-0.8-2.1-0.9l-2.7,1
			L143,660c0,0.2,0,1.1,0,2.3c0,0.9,0,1.6,0,1.9c0.4,0.4,1.2,1.2,2.3,2C146.6,667.2,147.7,668,148,668.1L148,668.1z M157.3,668
			c2.2-1.7,3.8-4,4.7-6.6c0-0.4-0.1-0.8-0.2-1.2c-0.2-0.9-0.5-1.8-0.6-2.1c-0.4-0.2-1.2-0.5-2.3-0.8c-1.3-0.3-2.3-0.4-2.8-0.5
			c-0.3,0.2-0.9,0.8-1.7,1.5c-0.8,0.7-1.4,1.5-1.6,1.8l0.1,2.7v3c0.2,0.2,0.7,0.6,1.7,1.1C155.9,667.4,156.8,667.8,157.3,668z
			 M137.6,666.3l0.3-0.9l0.3-0.8c-0.1-0.4-0.3-1.1-0.7-2.1c-0.4-1.1-0.7-1.8-0.9-2.2l-1.5-1c-0.5-0.3-0.9-0.6-1.1-0.7
			C134.4,661.5,135.7,664.1,137.6,666.3z M136.5,659.7c0.1-0.1,0.6-0.6,1.4-1.2c0.8-0.7,1.5-1.4,1.7-1.5c0-0.3,0-1.4,0-3.1
			c0.1-1.7,0.3-3.1,0.4-3.2c-0.2-0.2-0.6-0.7-1.4-1.3c-0.5-0.4-0.6-0.5-0.7-0.6l-1.4,0.6c-0.5,0.2-0.8,0.3-1,0.4
			c-1.1,2.1-1.8,4.4-1.8,6.9c0,0.5,0,0.9,0.1,1.4c0.1,0.1,0.4,0.4,1.4,1L136.5,659.7z M142.8,659.7l2.8-0.9l2.5-1
			c0-0.3,0.1-1.4,0.2-2.6c0.1-1.1,0.2-1.9,0.2-2.3l-2.3-2l-2-1.5c-0.3,0-1.2,0.2-2,0.4c-0.8,0.2-1.7,0.7-1.9,0.8
			c0,0.1-0.3,1.5-0.4,3.2c-0.1,1.8-0.1,2.9,0,3.1c0.2,0.2,0.7,0.8,1.4,1.4C142,659,142.6,659.5,142.8,659.7z M161.3,657.7
			c0.1-0.2,0.3-0.4,0.6-0.9c0.3-0.4,0.7-1,0.8-1.3c-0.2-2.8-1.2-5.4-2.9-7.6c-0.5-0.1-1.3-0.1-2.1-0.1c-1.3,0-2,0.1-2.3,0.1l-0.7,2
			l-0.7,1.7c0.1,0.3,0.5,1.3,1,2.3c0.5,1,1.1,2.4,1.2,2.7c0.5,0.1,1.5,0.2,2.7,0.5C160.1,657.2,160.9,657.5,161.3,657.7z
			 M148.7,652.5c0.2,0,1.2-0.1,2.6-0.4c0.9-0.2,2.2-0.6,2.6-0.7l0.7-1.6l0.7-2c-0.2-0.2-0.7-0.9-1.3-1.5c-0.7-0.7-1.3-1.3-1.5-1.5
			c-0.7-0.1-2-0.2-3.7,0c-1.9,0.2-2.8,0.4-3.2,0.5c-0.1,0.2-0.3,0.8-0.5,1.9c-0.2,1.1-0.3,1.8-0.3,2.1l2,1.5L148.7,652.5
			L148.7,652.5z M135.9,649.1c0.1-0.1,0.3-0.1,0.5-0.2l1.5-0.6c0-0.4-0.1-1.1,0-1.7C137.1,647.4,136.5,648.2,135.9,649.1z
			 M145.3,644.8c0.5-0.1,1.4-0.3,3.3-0.5c1.6-0.2,2.9-0.1,3.7,0c0.1-0.2,0.1-0.5,0.2-0.9c0.1-0.2,0.1-0.5,0.1-0.6
			c-1.3-0.4-2.7-0.6-4.2-0.6c-1.5,0-2.9,0.2-4.2,0.6L145.3,644.8z"/>
		<path id="path5815" class="st0" d="M48.1,603.9h2v-5.3h3.1v-1.7h-5.1V603.9z"/>
		<path id="path5817" class="st0" d="M54,603.9h2v-5.3h3.1v-1.7H54C54,596.8,54,603.9,54,603.9z"/>
		<path id="path5819" class="st0" d="M63.9,598h-2.2l-0.3-1.2h-2l2.4,7h2.2l2.4-7h-2.1L63.9,598 M63.5,599.5l-0.7,2.5l-0.7-2.5
			C62.1,599.5,63.5,599.5,63.5,599.5z"/>
		<path id="path5821" class="st0" d="M67,603.9h1.8l2.4-3.9v3.9h1.9v-7h-1.9l-2.4,3.9v-3.9H67V603.9z"/>
		<path id="path5823" class="st0" d="M74.1,599.2l1.9,0.1c0-0.3,0.1-0.6,0.2-0.8c0.2-0.3,0.5-0.4,0.9-0.4c0.3,0,0.5,0.1,0.7,0.2
			c0.2,0.1,0.2,0.3,0.2,0.5c0,0.2-0.1,0.3-0.2,0.5c-0.1,0.1-0.5,0.3-1,0.4c-0.9,0.2-1.5,0.5-1.9,0.9c-0.4,0.4-0.6,0.8-0.6,1.4
			c0,0.4,0.1,0.7,0.3,1c0.2,0.3,0.5,0.6,0.9,0.8c0.4,0.2,0.9,0.3,1.6,0.3c0.8,0,1.4-0.2,1.9-0.5c0.4-0.3,0.7-0.9,0.8-1.6l-1.9-0.1
			c0,0.3-0.2,0.5-0.3,0.7c-0.2,0.1-0.4,0.2-0.7,0.2c-0.2,0-0.4-0.1-0.5-0.2c-0.1-0.1-0.2-0.2-0.2-0.4c0-0.1,0-0.2,0.1-0.3
			c0.1-0.1,0.3-0.2,0.7-0.3c0.9-0.2,1.5-0.4,1.9-0.6c0.4-0.2,0.6-0.5,0.8-0.8c0.2-0.3,0.3-0.7,0.3-1c0-0.5-0.1-0.9-0.3-1.2
			c-0.2-0.4-0.5-0.7-1-0.9c-0.4-0.2-0.9-0.3-1.5-0.3c-1.1,0-1.8,0.2-2.3,0.7C74.4,597.9,74.1,598.4,74.1,599.2L74.1,599.2z"/>
		<path id="path5825" class="st0" d="M84.8,598h-2.2l-0.3-1.2h-2l2.4,7h2.2l2.4-7h-2.1L84.8,598 M84.4,599.5l-0.7,2.5l-0.7-2.5H84.4
			z"/>
		<path id="path5827" class="st0" d="M87.8,603.9h1.8l2.4-3.9v3.9H94v-7h-1.9l-2.4,3.9v-3.9h-1.9V603.9z"/>
		<path id="path5829" class="st0" d="M94.8,603.9h6v-1.7h-2v-5.3h-2v5.3h-2V603.9z"/>
		<path id="path5831" class="st0" d="M101.7,603.9h4.9v-1.5h-2.9v-1.2h2.5v-1.4h-2.5v-2.9h-2V603.9z"/>
		<path id="path5833" class="st0" d="M107.7,603.9h4.9v-1.5h-2.9v-1.2h2.5v-1.4h-2.5v-2.9h-2V603.9z"/>
		<path id="path5835" class="st0" d="M113.7,596.8v7h3.3c0.6,0,1.1-0.1,1.4-0.2c0.3-0.1,0.6-0.3,0.8-0.6c0.2-0.3,0.3-0.7,0.3-1.1
			c0-0.4-0.1-0.7-0.2-1c-0.2-0.3-0.4-0.5-0.6-0.7c-0.2-0.1-0.4-0.2-0.7-0.3c0.2-0.1,0.4-0.2,0.5-0.3c0.1-0.1,0.2-0.2,0.3-0.4
			c0.1-0.2,0.2-0.3,0.3-0.4l1-2h-2.2l-1.1,2.2c-0.1,0.3-0.3,0.5-0.4,0.5c-0.1,0.1-0.3,0.2-0.5,0.2h-0.2v-2.9H113.7 M115.7,601h0.8
			c0.1,0,0.3,0,0.5,0.1c0.1,0,0.2,0.1,0.3,0.2c0.1,0.1,0.1,0.3,0.1,0.4c0,0.2-0.1,0.4-0.2,0.5c-0.1,0.1-0.4,0.2-0.7,0.2h-0.9V601
			L115.7,601z"/>
		<path id="path5837" class="st0" d="M124.5,598h-2.2l-0.3-1.2h-2l2.4,7h2.2l2.4-7h-2.1L124.5,598 M124.1,599.5l-0.7,2.5l-0.7-2.5
			H124.1L124.1,599.5z"/>
		<path id="path5839" class="st0" d="M127.6,603.9h2v-7h-2V603.9z"/>
		<path id="path5841" class="st0" d="M131.1,603.9h2.9c0.6,0,1-0.1,1.4-0.3c0.4-0.2,0.7-0.4,0.9-0.7c0.2-0.3,0.4-0.7,0.5-1.1
			c0.1-0.4,0.2-0.9,0.2-1.4c0-0.8-0.1-1.3-0.2-1.8c-0.2-0.4-0.4-0.8-0.6-1c-0.3-0.3-0.6-0.5-0.9-0.6c-0.4-0.1-0.8-0.2-1.2-0.2h-2.9
			V603.9 M133,602.3v-3.9h0.5c0.4,0,0.7,0.1,0.9,0.2c0.2,0.1,0.3,0.3,0.4,0.5c0.1,0.3,0.1,0.7,0.1,1.2c0,0.7-0.1,1.3-0.3,1.5
			c-0.2,0.3-0.6,0.4-1.1,0.4H133z"/>
		<path id="path5843" class="st0" d="M175.5,600.3c0,1.1,0.3,2,0.9,2.7c0.6,0.6,1.4,1,2.4,1c1.1,0,1.9-0.3,2.5-0.9
			c0.6-0.6,0.9-1.5,0.9-2.6c0-0.8-0.1-1.5-0.4-2c-0.3-0.5-0.6-0.9-1.1-1.2c-0.5-0.3-1.1-0.4-1.8-0.4c-0.7,0-1.3,0.1-1.8,0.4
			c-0.5,0.3-0.9,0.7-1.2,1.2C175.6,598.8,175.5,599.5,175.5,600.3 M177.4,600.3c0-0.7,0.1-1.2,0.4-1.5c0.2-0.3,0.6-0.5,1-0.5
			c0.4,0,0.8,0.2,1,0.5c0.2,0.3,0.4,0.9,0.4,1.6c0,0.7-0.1,1.1-0.4,1.5c-0.2,0.3-0.6,0.5-1,0.5c-0.4,0-0.7-0.2-1-0.5
			C177.6,601.6,177.4,601.1,177.4,600.3z"/>
		<path id="path5845" class="st0" d="M182.8,599.2l1.9,0.1c0-0.3,0.1-0.6,0.2-0.8c0.2-0.3,0.5-0.4,0.9-0.4c0.3,0,0.5,0.1,0.7,0.2
			c0.2,0.1,0.2,0.3,0.2,0.5c0,0.2-0.1,0.3-0.2,0.5c-0.1,0.1-0.5,0.3-1,0.4c-0.9,0.2-1.5,0.5-1.9,0.9c-0.4,0.4-0.6,0.8-0.6,1.4
			c0,0.4,0.1,0.7,0.3,1c0.2,0.3,0.5,0.6,0.9,0.8c0.4,0.2,0.9,0.3,1.6,0.3c0.8,0,1.4-0.2,1.9-0.5c0.4-0.3,0.7-0.9,0.8-1.6l-1.9-0.1
			c0,0.3-0.2,0.5-0.3,0.7c-0.2,0.1-0.4,0.2-0.7,0.2c-0.2,0-0.4-0.1-0.5-0.2c-0.1-0.1-0.2-0.2-0.2-0.4c0-0.1,0-0.2,0.1-0.3
			c0.1-0.1,0.3-0.2,0.7-0.3c0.9-0.2,1.5-0.4,1.9-0.6c0.4-0.2,0.6-0.5,0.8-0.8c0.2-0.3,0.3-0.7,0.3-1c0-0.5-0.1-0.9-0.3-1.2
			c-0.2-0.4-0.5-0.7-1-0.9c-0.4-0.2-0.9-0.3-1.5-0.3c-1.1,0-1.8,0.2-2.3,0.7C183.1,597.9,182.9,598.4,182.8,599.2z"/>
		<path id="path5847" class="st0" d="M189,603.9h1.9l0.7-3.9l1,3.9h1.9l1-3.9l0.7,3.9h1.9l-1.4-7h-1.9l-1.1,4.4l-1.1-4.4h-1.9
			L189,603.9z"/>
		<path id="path5849" class="st0" d="M198.6,603.9h5.3v-1.5h-3.3v-1.1h3.1v-1.4h-3.1v-1.4h3.4v-1.6h-5.4V603.9z"/>
		<path id="path5851" class="st0" d="M204.7,599.2l1.9,0.1c0-0.3,0.1-0.6,0.2-0.8c0.2-0.3,0.5-0.4,0.9-0.4c0.3,0,0.5,0.1,0.7,0.2
			c0.2,0.1,0.2,0.3,0.2,0.5c0,0.2-0.1,0.3-0.2,0.5c-0.1,0.1-0.5,0.3-1,0.4c-0.9,0.2-1.5,0.5-1.9,0.9c-0.4,0.4-0.6,0.8-0.6,1.4
			c0,0.4,0.1,0.7,0.3,1c0.2,0.3,0.5,0.6,0.9,0.8c0.4,0.2,0.9,0.3,1.6,0.3c0.8,0,1.4-0.2,1.9-0.5c0.4-0.3,0.7-0.9,0.8-1.6l-1.9-0.1
			c0,0.3-0.2,0.5-0.3,0.7c-0.2,0.1-0.4,0.2-0.7,0.2c-0.2,0-0.4-0.1-0.5-0.2c-0.1-0.1-0.2-0.2-0.2-0.4c0-0.1,0-0.2,0.1-0.3
			c0.1-0.1,0.3-0.2,0.7-0.3c0.9-0.2,1.5-0.4,1.9-0.6c0.4-0.2,0.6-0.5,0.8-0.8c0.2-0.3,0.3-0.7,0.3-1c0-0.5-0.1-0.9-0.3-1.2
			c-0.2-0.4-0.5-0.7-1-0.9c-0.4-0.2-0.9-0.3-1.5-0.3c-1.1,0-1.8,0.2-2.3,0.7C205,597.9,204.7,598.4,204.7,599.2z"/>
		<path id="path5853" class="st0" d="M211,603.9h6v-1.7h-2v-5.3h-2v5.3h-2V603.9z"/>
		<path id="path5855" class="st0" d="M218,596.8v7h3.3c0.6,0,1.1-0.1,1.4-0.2c0.3-0.1,0.6-0.3,0.8-0.6c0.2-0.3,0.3-0.7,0.3-1.1
			c0-0.4-0.1-0.7-0.2-1c-0.2-0.3-0.4-0.5-0.6-0.7c-0.2-0.1-0.4-0.2-0.7-0.3c0.2-0.1,0.4-0.2,0.5-0.3c0.1-0.1,0.2-0.2,0.3-0.4
			c0.1-0.2,0.2-0.3,0.3-0.4l1-2H222L221,599c-0.1,0.3-0.3,0.5-0.4,0.5c-0.1,0.1-0.3,0.2-0.5,0.2H220v-2.9H218 M220,601h0.8
			c0.1,0,0.3,0,0.5,0.1c0.1,0,0.2,0.1,0.3,0.2c0.1,0.1,0.1,0.3,0.1,0.4c0,0.2-0.1,0.4-0.2,0.5c-0.1,0.1-0.4,0.2-0.7,0.2H220V601z"/>
		<path id="path5857" class="st0" d="M223.9,603.9h2.2l1.3-2.4l1.3,2.4h2.2l-2.5-4.1v-3h-2v3L223.9,603.9z"/>
		<path id="path5859" class="st4" d="M225,506.4l-1-1c0,0-4.7-3.8-11.9-3.5c-3.9,0.1-5.6,0.1-6.1-1.3c-0.4-1.2,1.7-3.9,2.1-4.5
			c0.4-0.7,0.8-3.3-1.6-5.9c-2.4-2.6-6.2-3-10.7-1.6c-3,1-9.4,3.6-11.7,3.6c-2.4,0-3.9-2-5.3-0.9c-1.4,1-1.5,2.7-1.3,4.3
			c0.2,1.6,1.3,2.2,1.3,2.2s-2.8-1.8-4.1-0.2c-1.8,2.3,0.9,3.4,0.9,3.4s-1.2,0.4-0.9,1.9c0.3,1.5,2.3,2.1,2.3,2.1s-0.6,1.8,1.4,2.2
			c2,0.4,3.5-0.8,4.9-2.6c1.4-1.9,4.2-4.8,8.6-6.6c4.4-1.8,5.6-2.1,6.1-1.2c0.5,0.9,0.1,1.7-3.8,5.1c-3.9,3.4-7.3,6.7-6.3,9.3
			c0.9,2.6,4.1,4,8.6,4c4.5,0,6.7-0.6,6.7-0.6s-0.3,1.5-1.7,2c-1.4,0.5-2.6,0.2-4.1,2c-1.5,1.8-1.3,3.1-1.3,3.1s-0.9-0.8-2.2,0
			c-1.2,0.8-4.6,4.1-7.5,5.3c-2.8,1.2-6.8,2.9-11.2,3.1c-4.3,0.2-10.8,1.6-14.6,3.7c-3.8,2.1-7.2,3.4-7.4,5.3
			c-0.2,1.8,0.4,2.5,0.4,2.5s-0.6,1.2-0.1,2.5c0.5,1.2,1.7,1.3,1.7,1.3s-0.7,1.7,0.9,2.6c1.6,0.9,2.8-0.2,2.8-0.2s0.4,1.3,2.1,1
			c1.7-0.3,3.2-2.4,3.7-4.3s0.7-3.9,3.3-4.5c3.7-0.9,9.5-0.8,12.2-0.7c2.7,0.1,3.2,0.2,3.2,0.2s-0.3,2.2-3.2,4.9
			c-2.9,2.7-6.9,7.4-10.5,10.8c-3.6,3.4-5.1,3.5-5.9,4.5c-0.8,1-2,3.3-1.4,4.3c0.6,0.9,1.2,0.9,1.2,0.9s-1.3,1.9-0.9,3.5
			c0.5,1.6,2.2,1.1,2.2,1.1s-1.4,2.5-0.3,4c1.1,1.5,4,2,6.1-0.5c2.2-2.5,3.6-4.9,3.7-6.6c0.1-1.7,0-2.4,0-2.4s0.9-0.9,2.2-2.3
			c1.2-1.3,1.6-2.9,2.2-2.5c0.6,0.5,0.8,2.8,0.8,4.4s1.8,3.3,1.8,3.3s-1,2.6,0.6,5.7c1.6,3.1,3,4.7,4.3,5.2c1.2,0.5,1.8,1.3,1.8,1.3
			s0.5,1.2,1.8,2.1c1.3,0.9,2.5,0.9,2.5,0.9s-0.3,1.9-0.1,4.2c0.2,2.3,0.5,4,2.6,3.4c2.1-0.6,4.3-1.4,4.6-2c0.4-0.6,4.6-0.2,8.6-1.3
			c4-1.1,6.3-2.6,7.8-2.7c1.4-0.1,4.6,0.5,5.6-1.3s0.8-2.6-0.6-4.7c-1.1-1.8-2-2.4-1.9-3.6c0.1-1.1,1.1-2.3,2-5.1
			c0.9-2.8,1.3-6.7,0.9-7.9c-0.5-1.2-0.2-4.7-1-5.2c-0.9-0.5-2.9-1.4-3.7-2.3c-0.8-0.9-2.4-2.7-2.3-4.3c0.1-1.6-1-1.7-1.5-1.7
			c-0.5,0-1.4-0.1-1.4-0.1l-0.5,0.6c0,0,1.6-3,1.3-4.1c-0.3-1-0.6-1.5-0.6-1.5s0.5-3.7,4-9.2c7.5-11.9,17.5-12.4,17.5-12.4
			L225,506.4z"/>
		<path id="path5861" d="M211.2,571.8c0-0.7-0.6-1.3-1.2-1.3c-0.7,0-1.2,0.6-1.2,1.3c-0.1,1.1,0.6,1.3,1.2,1.3
			C210.6,573.1,211.2,572.5,211.2,571.8z"/>
		<path id="path5863" d="M198,576.1c-0.5-0.5-0.5-1.3,0-1.8c0.5-0.5,1.3-0.4,1.8,0.1c0.8,0.8,0.5,1.3,0,1.8
			C199.3,576.6,198.5,576.6,198,576.1z"/>
		<path id="path5865" class="st2" d="M198,563c0,0,0.7,0,1.8,0.3c1.1,0.3,1.6,0.5,1.6,0.5s0.7-0.9,1-1.3c0.3-0.4,0.6-0.8,0.6-0.8
			s-0.7-1.7-0.7-2.3c0-0.6,0-4.6,0-5.5c0-0.9-0.3-2.6-0.6-3.5c-0.4-0.8-1.8-1.5-3.7-1.1c-1.8,0.3-3.6,0.9-4,2.6s0.9,3.3,1.9,4.7
			c0.9,1.4,2,3.2,2,4.4C197.9,562.1,198,563,198,563z"/>
		<path id="path5867" class="st5" d="M241.5,534.3l-2.8-5c0,0-4.4,4.7-6.5,7.9c-2.1,3.2-3.9,8.4-3.1,12c1.4,6.7,5.5,8.8,10.2,8.3
			c6.1-0.6,10.3-5.2,10.3-5.2l-4.3-10c0,0-3.5,8.5-7,8.7c-3.4,0.2-4.6-3.4-3.7-7.2C235.6,540.2,241.5,534.3,241.5,534.3z"/>
		<path id="path5869" class="st0" d="M179.4,561.3c0,0-0.2-2-0.2-3.5c0-1.6,0.8-2.6,0.9-2.6l0.3,0l0.3,0.3c0.1,0.1,0.4,0.2,0.6,0.3
			c0-0.2-0.1-0.5-0.1-0.9c0-0.5,0-1.3,0.2-2.2c0.4-2.3,1.4-3.5,1.5-3.6l0.3,0l0.5,0.7c0.3,0.4,0.8,1.3,1.1,1.9c0-0.2,0-0.3,0-0.6
			c0-0.4,0-1,0-1.6c0-0.2,0-0.3,0-0.5c0-1.8,0.5-3.4,0.5-3.5l0.4,0l0.3,0.6c0,0,0.2,0.4,0.4,0.8c0.1-0.5,0.2-1.4,0.3-2.9
			c0.1-2.3,1.8-4.7,1.8-4.8l0.3,0l1,2c0.1,0.3,0.3,0.7,0.4,1.1c0-0.1,0-0.2,0-0.3c0.1-1.3,0.3-3,0.7-3.2c0.1-0.1,0.2-0.1,0.3,0
			c0.2,0.1,0.7,0.7,1,1.1c-0.1-0.6-0.2-1.5-0.2-2.6c0-2,0.8-4.5,0.8-4.6l0.3-0.1c0.1,0.1,1.7,1.6,2.6,3.1c0.6,0.9,1.1,1.9,1.4,2.6
			c0.1-0.6,0.1-1.3,0.1-1.3c0.1-1.3,0.7-2.4,0.7-2.5l0.3-0.1c0,0,2.8,2.3,4.7,4.4c1.4,1.5,2.3,3.4,2.7,4.4c0-0.2,0.1-0.5,0.1-0.9
			c0.1-1.1,0.4-2.3,0.4-2.4l0.3-0.1c0,0,2.3,1.4,4.1,3.6c1.8,2.3,1.6,4.4,1.6,4.5c0,0.1-0.1,0.2-0.2,0.2c-0.1,0-0.2-0.1-0.2-0.2
			c0,0,0,0,0,0c0,0,0-0.1,0-0.3c0-0.6-0.2-2.2-1.5-3.9c-1.4-1.8-3.1-3-3.7-3.4c-0.1,0.4-0.3,1.3-0.3,2.1c-0.1,1.1-0.2,1.6-0.2,1.6
			l-0.4,0c0,0-1-2.8-2.9-4.9c-1.6-1.7-3.8-3.7-4.4-4.2c-0.2,0.4-0.5,1.3-0.5,2.1l-0.2,2l-0.4,0c0,0-0.8-1.9-1.6-3.2
			c-0.7-1.1-1.9-2.3-2.4-2.8c-0.2,0.7-0.7,2.6-0.7,4.2c0,1.9,0.3,3.3,0.3,3.4l-0.3,0.1c-0.4-0.6-1.1-1.5-1.3-1.6
			c-0.1,0.1-0.3,1-0.5,2.9c0,0.4,0,0.7,0,1c0,0.7,0,1,0.1,1.2c0,0.1,0,0.1,0,0.1l-0.4,0.1c0,0,0-0.1,0-0.1c-0.1-0.5-0.4-2.2-0.8-2.9
			c0,0-0.6-1.3-0.8-1.7c-0.4,0.7-1.5,2.6-1.6,4.3c-0.1,2.3-0.4,3.4-0.4,3.4l-0.3,0l-0.7-1.2c0,0,0-0.1-0.1-0.1
			c-0.1,0.6-0.4,1.7-0.4,2.9c0,0.1,0,0.3,0,0.4c0,0.7,0,1.2,0,1.7c0,0.9,0,1.3,0,1.3l-0.4,0.1c0,0-0.9-1.8-1.4-2.4
			c0,0-0.2-0.3-0.3-0.4c-0.3,0.4-0.9,1.5-1.2,3.2c-0.1,0.9-0.2,1.6-0.2,2.1c0,0.7,0.1,1.1,0.1,1.1l-0.2,0.2c-0.1,0-0.7-0.1-1.1-0.4
			c0,0-0.1-0.1-0.1-0.1c-0.2,0.3-0.7,1.1-0.7,2.2c0,1.5,0.2,3.5,0.2,3.5c0,0,0,0,0,0c0,0.1-0.1,0.2-0.2,0.2
			C179.5,561.5,179.4,561.5,179.4,561.3L179.4,561.3z"/>
		<path id="path5871" class="st0" d="M197.9,522.9c-1.1-0.3-1.9-1.2-2-1.3c-0.1-0.1-0.1-0.2,0-0.3c0.1-0.1,0.2-0.1,0.3,0
			c0,0,0.8,0.8,1.8,1.1c1.8,0.6,4.3,0.4,4.3,0.4c0.1,0,0.2,0.1,0.2,0.2c0,0.1-0.1,0.2-0.2,0.2C202.3,523.4,199.8,523.5,197.9,522.9z
			"/>
		<path id="path5873" class="st0" d="M193.4,579.9c0,0-0.1-2.4-1.2-3.3c-2.7-2-4.4-4.8-4.7-7.6c-0.3-2.7,1.5-4.8,4.9-5.9
			c3.9-1.2,8.1,0.1,9,0.3c0.4-0.6,2.5-4.1,6.1-5.5c2.6-1.1,6.5-0.2,8.4,1.9c2,2.2,2.1,6.1,1.7,8.1l-0.6,2.2c-0.2,0.8-0.4,1.3-0.4,2
			c0,1.2,0.3,2.2,0.3,2.2c0,0.1,0,0.2-0.1,0.2c-0.1,0-0.2,0-0.2-0.1c0,0-0.3-1.1-0.3-2.3c0-0.7,0.2-1.3,0.4-2.1l0.6-2.2
			c0.4-2,0.4-5.7-1.6-7.8c-1.8-2-5.5-2.9-8-1.8c-3.8,1.6-5.9,5.5-6,5.5l-0.2,0.1c0,0-4.6-1.7-8.9-0.4c-3.2,1-4.8,2.9-4.6,5.5
			c0.3,2.7,2,5.4,4.6,7.3c1.3,1,1.4,3.4,1.4,3.6c0,0.1-0.1,0.2-0.2,0.2C193.5,580.1,193.4,580,193.4,579.9z"/>
		<path id="path5875" class="st0" d="M195.8,581c-0.1,0-0.2-0.1-0.2-0.2c0-0.1,0.1-0.2,0.2-0.2c0,0,2.1,0.1,3.6-0.6
			c2.2-1,2.7-2.7,3-4.2c0.2-1.2-0.1-2.5-1-3.7l-0.4-0.4c-0.7-0.9-2-2.4-1.7-3.8c0.2-0.8,0.8-1.4,1.9-1.9c1.3-0.6,2.3-0.7,2.9-0.4
			c0.8,0.4,1.1,1.3,1.4,2.3l0.3,1.7c0.1,1.1,0.2,2.1,1,3.3c1.2,1.9,2.2,3.5,5.6,3.4c2.6-0.1,3.5-0.6,3.5-0.6c0.1-0.1,0.2,0,0.3,0
			c0.1,0.1,0,0.2,0,0.3c0,0-0.9,0.6-3.7,0.7c-3.7,0.1-4.8-1.7-5.9-3.6c-0.8-1.3-0.9-2.4-1.1-3.5l-0.3-1.7c-0.2-0.9-0.5-1.7-1.2-2
			c-0.6-0.3-1.4-0.2-2.6,0.4c-1,0.4-1.5,1-1.7,1.6c-0.3,1.2,0.9,2.6,1.6,3.5l0.4,0.5c1,1.3,1.3,2.7,1.1,4c-0.2,1.2-0.7,3.3-3.2,4.5
			C197.9,581.1,195.9,581,195.8,581z"/>
		<path id="path5877" class="st0" d="M192.5,569.4c0,0-1.3-1.8,0-3.9c1.9-3.1,8-2.1,8.8-2c0.4-0.6,3.5-4.8,7.6-2.5
			c2.2,1.2,1.6,3.8,1.6,3.8c0,0.1-0.1,0.2-0.2,0.1c-0.1,0-0.2-0.1-0.1-0.2c0-0.1,0.5-2.3-1.4-3.4c-4.1-2.3-7.1,2.3-7.2,2.5l-0.2,0.1
			c-0.1,0-6.6-1.3-8.5,1.8c-1.1,1.8-0.1,3.4,0,3.5c0.1,0.1,0,0.2,0,0.3C192.7,569.5,192.6,569.5,192.5,569.4L192.5,569.4z"/>
		<path id="path5879" class="st0" d="M197.8,562.8c0,0,0-3.4-1-4.7l-0.5-0.6c-1.1-1.4-3.1-3.9-2.6-5.9c0.3-0.9,1-1.6,2.3-2.1
			c2.1-0.8,3.7-0.8,4.8-0.1c1,0.6,1.5,1.9,1.6,3.6l-0.1,3c-0.1,1.2-0.1,2.3,0,3.2c0.3,1.6,0.6,2.3,0.6,2.3c0,0.1,0,0.2-0.1,0.3
			c-0.1,0-0.2,0-0.3-0.1c0,0-0.4-0.8-0.7-2.4c-0.2-0.9-0.1-2.1-0.1-3.3l0.1-2.9c-0.1-1.6-0.5-2.7-1.4-3.3c-1-0.7-2.5-0.6-4.5,0.2
			c-1.1,0.4-1.8,1-2,1.9c-0.5,1.8,1.5,4.3,2.5,5.6l0.5,0.6c1.1,1.5,1.1,4.8,1.1,4.9c0,0.1-0.1,0.2-0.2,0.2
			C197.8,563,197.8,562.9,197.8,562.8z"/>
		<path id="path5881" class="st0" d="M214.7,573.8c0,0-2.7-0.4-4.1-0.4c-1.3,0-2.3-0.6-2.8-1.6l-0.6-1.5l0.2-0.2l0.4-0.1
			c0.6-0.1,0.8-0.1,2.1,0c1.2,0.1,1.7,0.7,2.2,1.6c0.3,0.5,0.3,0.9,0.3,1.2c0,0.1,0,0.2,0,0.3c1.2,0.1,2.3,0.3,2.4,0.3
			c0.1,0,0.2,0.1,0.2,0.2c0,0,0,0,0,0C214.9,573.8,214.8,573.9,214.7,573.8 M208,571.7c0.2,0.4,0.9,1.4,2.5,1.4c0.4,0,0.9,0,1.4,0.1
			c0,0,0-0.1,0-0.2c0-0.2-0.1-0.6-0.3-1.1c-0.5-0.9-0.9-1.3-1.9-1.4c-1.2-0.1-1.4-0.1-2,0c0,0-0.1,0-0.2,0
			C207.7,570.8,208,571.7,208,571.7L208,571.7z"/>
		<path id="path5883" class="st0" d="M195.5,579.5c0,0,0-0.1,0-0.1c0-0.1,0-0.1,0.1-0.1c0.1,0,1-0.7,1.9-1.4
			c-0.1-0.2-0.4-0.7-0.5-1.5c0-0.1,0-0.2,0-0.3c0-0.8,0.2-1.4,0.9-2.2c0.9-0.9,2.3-1.4,2.5-1.4l0.1,0.1c0,0,0.3,0.9,0.3,1.8
			c0.1,1.1-0.6,2.2-1.6,2.8c-1.2,0.7-3.4,2.4-3.4,2.4C195.7,579.6,195.6,579.6,195.5,579.5 M198.2,574.1c-0.7,0.7-0.8,1.2-0.8,1.9
			c0,0.1,0,0.2,0,0.3c0,0.7,0.3,1.1,0.4,1.3c0.4-0.3,0.9-0.6,1.2-0.8c1.3-0.7,1.5-1.8,1.5-2.3c0,0,0-0.1,0-0.1
			c0-0.6-0.2-1.2-0.3-1.5C199.9,573,198.9,573.4,198.2,574.1L198.2,574.1z"/>
		<path id="path5885" class="st0" d="M203.2,514.4c-0.1,0-0.1-0.2-0.1-0.3c0-0.1,0.6-1.3,2.4-1.3c1.4,0,3.1,0.4,3.7,0.5
			c0-0.1,0-0.2,0-0.3c0-0.5,0.1-1.3,0.6-2.3c0.6-1.2,1.9-2.6,1.9-2.7l0.3,0c0.1,0,1.2,0.9,1.4,2c0,0,0,0,0,0
			c0.3-0.7,0.8-1.9,1.7-2.2c1.4-0.4,2.6,0.7,2.9,1c0.2-0.1,2.5-0.8,2.5-0.8c0.1,0,0.2,0,0.2,0.1c0,0.1,0,0.2-0.1,0.2l-2.6,0.9
			l-0.2,0c0,0-1.3-1.3-2.6-1c-0.8,0.2-1.2,1.3-1.5,1.9c-0.2,0.4-0.3,0.6-0.4,0.6c-0.2,0-0.2-0.3-0.2-0.4c-0.1-0.9-0.9-1.6-1.2-1.8
			c-0.3,0.3-1.2,1.5-1.7,2.5c-0.5,0.9-0.6,1.7-0.6,2.1c0,0.3,0,0.5,0,0.5l-0.2,0.2c0,0-2.3-0.6-3.9-0.6c-1.6,0-2.1,1-2.1,1.1
			C203.4,514.4,203.3,514.5,203.2,514.4z"/>
		<path id="path5887" class="st0" d="M209.5,573.3c-0.7-0.2-1.2-1-0.9-1.8c0.2-0.8,1-1.3,1.7-1.2c0.7,0.2,1.2,1,0.9,1.8
			C211,573,210.3,573.5,209.5,573.3 M208.9,571.6c-0.2,0.6,0.1,1.2,0.7,1.4c0.5,0.1,1.1-0.3,1.3-0.9c0.2-0.6-0.1-1.2-0.7-1.4
			C209.7,570.5,209.1,570.9,208.9,571.6z"/>
		<path id="path5889" class="st0" d="M198.1,576.2L198.1,576.2c-0.7-0.5-0.9-1.4-0.4-2c0.5-0.6,1.4-0.7,2.1-0.2
			c0.7,0.5,0.9,1.4,0.4,2C199.7,576.7,198.8,576.8,198.1,576.2 M199.9,575.9c0.3-0.4,0.2-1.1-0.3-1.5c-0.5-0.4-1.2-0.3-1.5,0.1
			c-0.1,0.2-0.2,0.3-0.2,0.5c0,0.3,0.2,0.7,0.5,1C198.9,576.3,199.5,576.3,199.9,575.9z"/>
		<path id="path5891" class="st0" d="M200.9,560.8c0,0-0.3-0.9-0.5-2.4c-0.2-1.2,0-2.6,0-2.6c0-0.1,0.1-0.2,0.2-0.2
			c0.1,0,0.2,0.1,0.2,0.2c0,0-0.2,1.4,0,2.5c0.2,1.4,0.5,2.3,0.5,2.3c0,0.1,0,0.2-0.1,0.2C201,561,200.9,560.9,200.9,560.8
			L200.9,560.8z"/>
		<path id="path5893" class="st0" d="M199.3,561.3c0,0-0.1-1-0.6-2.6c-0.3-1.1-1-2.1-1-2.1c-0.1-0.1,0-0.2,0.1-0.3
			c0.1-0.1,0.2,0,0.3,0.1c0,0,0.7,1.1,1,2.2c0.5,1.7,0.6,2.6,0.6,2.7c0,0.1-0.1,0.2-0.2,0.2C199.4,561.5,199.4,561.4,199.3,561.3z"
			/>
		<path id="path5895" class="st2" d="M75.3,496c3,1.2,4,2.6,6.1,4.8c-0.5-2.2-0.3-3.4,1-3.8c-2.8-0.6-3.8-0.9-5.6-2.4
			c3-0.7,5.4,1.3,8.3,0.5c-1.3-0.9-1.8-1.6-1.4-2.8c0,0,0.9-0.2-1.5,0.4c-2.4,0.6-5.7,1.1-5.7,1.1L75.3,496z"/>
		<path id="path5897" class="st2" d="M81.8,500.4c2.1,0.2,4.4-0.6,5.8-1.8c-1.8,0.3-4,0-5.4-1.2C81.4,498.2,81.3,499.4,81.8,500.4
			L81.8,500.4z"/>
		<path id="path5899" class="st2" d="M85.2,494.5c1.9-0.2,3-1.2,3.7-2.6c-1.3,0.7-3,1-4.6,0.5C84.1,493.3,84.4,493.9,85.2,494.5
			L85.2,494.5L85.2,494.5z"/>
		<path id="path5901" class="st2" d="M128.9,488.6c2.5-0.5,3.6-1.4,4.5-3c-2.3,1.2-3.3,1.4-5.4,1C127.8,487.9,128,488.5,128.9,488.6
			L128.9,488.6z"/>
		<path id="path5903" class="st2" d="M131.5,491c-0.6,1.1,0,1.9,1.2,3.1c2.3-0.3,3.8-1,4.8-3.2C135,492.2,133.4,491.9,131.5,491
			L131.5,491z"/>
		<path id="path5905" class="st2" d="M128,499.4c3-0.2,5.4-1.2,7.1-3.4c-1.7,1-2.6,1-4.1,0.7C129.7,496.7,128.6,497.8,128,499.4
			L128,499.4z"/>
		<path id="path5907" class="st2" d="M128.5,554.3c-0.6,1.5-0.6,3.2,0.2,5c-3-2.2-3.5-5-2.6-7.8C127.4,552,128.4,552.5,128.5,554.3
			L128.5,554.3z"/>
		<path id="path5909" class="st2" d="M131.9,558c1.2-0.7,2.4-1.3,3.7-1c-1.3,1.8-1.4,4,1.8,5.4C133.4,562,131.8,560.2,131.9,558
			L131.9,558z"/>
		<path id="path5911" class="st2" d="M138.9,555c1.4-1.2,2.2-2.2,3-1.6c-0.6,1.9-0.3,3.3,2.8,4.3C141.6,558.2,139,557.2,138.9,555
			L138.9,555z"/>
		<path id="path5913" class="st2" d="M110.4,571.7c5.7-3,13.5-3.8,17.8-2.4c0.4,0.2,0.1,1-0.2,2.2c2.3-0.1,10.7,2.3,12.5,4.1
			c-1.7-5.7-6-10-11.6-13.5c1.3,1.5,1.7,2.6,0.9,4.2c-7.3-1.3-15.8-1.4-21.6,1.7C105.8,569.2,108.1,572.4,110.4,571.7L110.4,571.7z"
			/>
		<path id="path5915" d="M45.9,550.1c5.5-12.8,22.5-45.8,22.5-45.8c1.8,1.2,4.1,3.1,4.4,5.8c0,0.1,0,0.1,0,0.2c0,1-0.8,1.9-1.6,2.9
			c-0.6,0.7-1.2,1.4-1.5,2.2c4.5,0,12.7-2.8,19.3-5c0,0,3.3-1.1,3.6-1.2c0-0.2,0-0.5,0-0.5c0-1.4,0.1-2.6,0.8-4.2l0.3-0.6l0.6,1.2
			c0.5,1.1,0.9,2,1.8,2.2l0.3,0.1c0,0-1.2,3-1.3,3.4c0.3,0.3,0.7,0.4,1.1,0.4c0.7-0.1,1.5-0.7,2.4-1.9c3.5-6.7,7.2-10.8,12.3-16.2
			c-1.5-1.2-3-1.6-4.8-2l-3.1-0.8c0,0,0.2-0.2,0.3-0.3c-0.1-0.3-1.1-1.2-1.8-1.9c-1.2-1.1-1.8-1.7-1.8-2c0-0.1,0-0.1,0.1-0.2
			c0.2-0.3,0.6-0.4,3.8,1.3c4.3,0.4,7.2,1.8,9.2,4.2c0.5-1.4,1.8-1.9,3.1-2.2c1.4,0,2.2-0.2,2.8-0.3c0.5-0.1,1-0.2,1.5-0.1
			c0.9-1.7,2.7-1.7,4.2-1.7c1.1,0,2.1,0,2.8-0.5l0.7-0.5l-0.3,0.8c-0.1,0.3-0.1,0.5-0.1,0.7c0,0.5,0.3,0.8,0.9,1.1l1.2,0.9h-0.9
			c-3.4,0-4.9,0.4-8.2,1.5c-0.2,0.1-0.2,0.2-0.2,0.3c0,0,0,0,0,0c0,0.1,0.1,0.3,1,0.7c0.8,0,1.6-0.1,2.4-0.2
			c1.7-0.2,3.5-0.4,4.9,0.2c1-0.1,1.3-0.5,1.6-1.3l0.6-1.5l-0.1,1.6c-0.1,1.3,0.3,2.2,1.5,3.6l0.5,0.6l-0.8-0.1
			c-3.2-0.6-5.8-1-8.3-1.2c1.6,1.2,3.8,1.9,7.1,2.2l1.8,0.1l-1.8,0.4c-2,0.5-3,1.4-3,2.8v0.6l-0.5-0.4c-1.9-1.7-4.1-2.9-6.4-4.1
			c0,0-0.5-0.3-0.6-0.3c-2,0.2-3.3,0.7-5,1.7c-0.2,2.2-1.8,4.1-4,4.6c0.1,0.5,0.2,1,0.2,1.5c0,1-0.4,2-1.5,2.7
			c0.2,0.5,0.3,1,0.3,1.4c0,0.8-0.5,1.4-1.5,2.1c0.5,0.6,0.7,1.1,0.7,1.6c0,0.5-0.2,1-0.6,1.6c1.9-0.9,4.1-1,6-0.1
			c0-0.3-0.1-0.5-0.1-0.8c0-1.1,0.5-2,1-2.9c0.9-2.8,2.8-4.8,5.2-5.4l0.7-0.2l-0.4,0.6c-1,1.6-1.5,2.9-1.5,4.3
			c0,0.6,0.1,1.2,0.3,1.9c0.1,0.1,2.4,2.7,2.4,2.7c6.7,7.7,10.8,12.5,13.5,23.4c1.5-1.8,2.4-4,3.2-6.1c0.6-1.5,1.1-3,1.9-4.1
			l0.5-0.7l0,1.3c0.1,2.2,0.1,3.4,0.7,5.2l0,0.1l-0.1,0.1c-1.3,2.2-2.6,4.7-3.7,7.4c1.2,2,1.6,4.6,2,7.1c0.3,2.4,0.7,4.8,1.8,6.7
			l0.2,0.4h-0.5c-1.6,0-2.6,0.6-3.5,2.1l-0.6,0.9l0.1-1.1c0-0.2,0-0.4,0-0.6c0-2.6-0.8-5-2-6.3c0,0.2-0.1,0.3-0.1,0.3
			c-0.3,1.4-0.6,2.8-0.6,4.3c0,1.3,0.3,2.6,1,3.9l0.3,0.5l-0.6-0.1c-1.9-0.2-3.1-0.1-4.5,1.2l-0.8,0.8l0.4-1.1
			c0.5-1.4,0.6-2.4,0.6-3.2c0-0.7-0.1-1.2-0.2-1.8c-0.1-0.7-0.3-1.4-0.3-2.3c0-0.1,0-0.3,0-0.4c-0.3,0.4-0.6,0.8-0.8,1.1
			c-0.6,0.7-1.1,1.3-1.1,2.4c0,0.1,0,0.2,0,0.3l-0.5,0.1c-0.5-1.7-1.4-2.6-2.7-2.8l-0.4-0.1l0.2-0.4c1.5-2.5,3.4-4.2,5.8-5.9
			c-0.1-0.3-0.5-1.2-0.5-1.2c-1.2-3.2-2.5-6.4-2.6-9.7c-0.1-0.1-0.4-0.2-0.4-0.2c-3.9-2.2-7.8-4.4-10.6-7.9c0,0-0.1,0-0.1,0
			c-0.1,0.1-0.1,0.2-0.1,0.4c0,0.4,0.1,0.9,0.2,1.4c0.2,0.7,0.3,1.6,0.3,2.5c0,1-0.3,2-1.1,2.8c0.3,0.5,0.5,1.2,0.5,1.9
			c0,0.6-0.1,1.2-0.3,1.8c-0.3,0.9-0.9,1.6-1.6,1.9c0.2,0.6,0.4,1.3,0.4,2.1c0,0.8-0.1,1.6-0.4,2.5c-0.4,1.2-1.1,2-2,2.5
			c0.1,0.3,0.2,0.7,0.2,1.2c0,0.8-0.2,1.8-0.7,2.8c-0.6,1.3-1.5,2-2.5,2.3c0,0.3,0.1,0.5,0.1,0.8c0,2.1-1.2,4.2-2.5,4.9
			c0.1,0.4,0.1,0.8,0.1,1.2c0,2-0.9,3.8-2.5,5c0.9,0.4,1.5,0.6,2.3-0.2c1.2-1,1.9-2.2,2.7-4.2l0.1-0.3l0.3,0.2
			c0.8,0.5,1.6,1.5,1.9,2.7c1-2.2,1.9-4.8,1.9-6.1v-1l0.5,0.9c1,1.7,1.8,4.1,1.8,6.5c0,1-0.1,1.9-0.4,2.8l-0.1,0.2l-0.2,0
			c-2.1,0.2-4.2,1-6.3,1.7c-2.1,0.7-4,1.4-6,1.6c0.3,2.4,3.2,5,5.6,4.9c0.8-0.2,1.5-0.8,2.3-1.3c0.7-0.5,1.4-1,2.2-1.3
			c0.8-0.5,2.3-1.3,3.5-0.7l0,0l0,0c1.7,1.5,2.7,2.6,3.3,4.2c0.3,0,11.6,0,11.6,0l-0.7,0.5c-4.1,3.2-12.1,5.8-18.5,6
			c-0.3,1.3-0.7,1.9-2.6,2.2c-4.2,0.8-8.1,0.3-12.1-0.4c0,0-0.3,0-0.5-0.1c0,2.4-3,3.9-5.9,5.3c-1.2,0.6-2.3,1.1-3.3,1.7l-0.2,0.1
			l-0.2-0.2c-0.3-0.4-0.5-0.9-0.5-1.3c0-0.5,0.2-1.1,0.3-1.6c0.1-0.3,0.2-0.7,0.2-1c-2,0.5-3.4,1.6-4.5,2.6l-0.2,0.2l-0.2-0.1
			c-0.6-0.5-0.8-1-0.8-1.5c0-0.8,0.5-1.6,0.8-2.2c0.3-0.5,0.6-1,0.6-1.4c0-0.1,0-0.1,0-0.2l0,0l0-0.1c0-0.3-0.3-0.5-0.7-0.6
			c-0.3-0.1-0.7-0.3-0.8-0.6c0-0.1-0.1-0.2-0.1-0.3c0-0.2,0.1-0.4,0.2-0.7l0-0.1l0.1,0c3.9-1.4,4.2-2.2,4.7-3.4
			c0.1-0.4,0.3-0.8,0.6-1.3c-2.2-0.6-6.2-2.8-6.8-5.9l-0.1-0.6l0.6,0.3c1.7,1.1,4,2.1,5.1,1.6c-0.1-0.6-0.1-1.2-0.1-1.7
			c0-0.2,0-0.4,0-0.6c0,0,0-0.1,0-0.2c-3.4-1-5.4-4.9-6.1-6.6l-0.5-1.2l1,0.9c2.4,2.2,3.6,1.8,4.5,1.5c0.4-0.1,0.8-0.3,1.3-0.2
			c0-0.2,0.1-0.5,0.1-0.5c0.1-0.6,0.1-1.4,0.4-2.3c-2.7-0.5-5.2-4.1-6.3-6.4l-0.6-1.2l1,0.9c2.1,1.8,3.7,1.6,4.9,1.5
			c0.7-0.1,1.4-0.1,2.1,0.3c0.1-0.4,0.3-1.2,0.3-1.2s0.3-1.4,0.4-1.8c-1.7-0.5-3.8-1.5-6-4.6l-0.6-0.9l1,0.4
			c1.8,0.8,2.8,0.2,3.9-0.5c0.5-0.3,1.1-0.6,1.7-0.8c-0.3-0.8-0.5-1.4-0.7-2c0,0-0.4-1.1-0.4-1.3c-1-0.6-2.6-0.6-4.6-0.2
			c-3.2,0.8-6.1,2.6-7.2,4.4c-1.2,2.5-1.7,5.2-2.1,8c-0.4,2.7-0.9,5.5-2.1,8.1c-4.2,6.4-14.7,11.8-23.9,16.5
			c-4.7,2.4-9.1,4.7-12.2,6.8l-0.6,0.4l0.2-0.7c1.4-6.3,2.6-8.1,1.4-9.3C37.2,576.4,40.4,562.9,45.9,550.1 M83.8,492l0.4,0l-0.1,0.3
			c-0.4,0.9-0.1,1.5,1.3,2.5l0.5,0.3l-0.6,0.2c-1.6,0.4-3.4-0.1-5.1-0.6c-1.4-0.4-2.8-0.8-4.1-0.7c1.7,1.3,3.9,2.2,6.3,2.7l1,0.2
			l-0.9,0.3c-0.7,0.3-1,0.8-1,1.7c0,0.5,0.1,1.1,0.2,1.8l0.2,1l-0.7-0.7c-1.8-1.9-3.5-3.5-6.7-4.7l1.1-2.1l0.9-0.9
			c0,0,4.3-1.1,5.3-1.1C82.7,492.2,83.8,492,83.8,492 M64.5,516l-3.7,1l-0.6,0.5c0.2,0.8-0.8,0.5-0.4,1.1c0.4,0.5,0.9,1,1.6,1.4
			l0.4,0.3l-0.5,0.2c-1.6,0.8-2.8,2.4-3.4,4.3l-0.5,0.1l-21.1,49.9c0.7,0.7,1.1,1.8,1.1,3.5c0,1.6-0.3,3.9-1,6.8
			c3.1-2.1,7.2-4.2,11.6-6.5c9.2-4.7,19.6-10.1,23.7-16.3c1.2-2.5,1.6-5.3,2-7.9c0.4-2.8,0.9-5.6,2.2-8.2c1.3-2.3,4.9-4,7.6-4.7
			c2.2-0.5,4.1-0.4,5.1,0.3l0.1,0l0.5,1.6c0.2,0.7,0.4,1.3,0.7,2.2l0.1,0.3l-0.3,0.1c-0.7,0.1-1.2,0.5-1.8,0.9
			c-0.9,0.6-2,1.3-3.5,0.9c2,2.5,3.9,3.3,5.3,3.7l0.3,0.1l-0.6,2.3l-0.5,2.1l-0.4-0.4c-0.5-0.5-1.1-0.5-2-0.4
			c-1.1,0.1-2.5,0.3-4.3-0.9c1.2,2.2,3.4,4.8,5.6,5.1l0.3,0l-0.1,0.3c-0.3,1-0.4,1.8-0.4,2.5l-0.2,1.3l-0.4-0.2
			c-0.4-0.2-0.7-0.1-1.2,0c-0.9,0.3-2,0.7-4-0.8c1,1.8,2.8,4.5,5.4,5.2l0.2,0.1l0,0.6c0,0.2,0,0.3,0,0.5c0,0.5,0,1.2,0.2,1.8l0,0.2
			l-0.2,0.1c-1.4,0.8-3.9-0.4-5.2-1.1c1,2.5,4.6,4.5,6.5,4.9l0.4,0.1l-0.2,0.3c-0.4,0.6-0.6,1.1-0.7,1.5c-0.5,1.3-0.8,2.2-4.9,3.6
			c-0.1,0.2-0.1,0.3-0.1,0.4c0,0.1,0,0.1,0,0.1c0.1,0.1,0.3,0.2,0.5,0.3c0.4,0.1,0.9,0.4,1,1c0.1,0.1,0.1,0.3,0.1,0.5
			c0,0.5-0.3,1.1-0.7,1.6c-0.4,0.7-0.8,1.4-0.8,1.9c0,0.3,0.2,0.6,0.5,0.9c1.2-1.1,2.8-2.3,5-2.7l0.4-0.1l0,0.4
			c-0.1,0.6-0.2,1.1-0.3,1.5c-0.2,0.5-0.3,1-0.3,1.4c0,0.3,0.1,0.5,0.2,0.8c1-0.6,2-1.1,3.1-1.6c2.9-1.4,5.6-2.7,5.6-4.8
			c0-0.1,0-0.2,0-0.2l0-0.4l1.2,0.2c4,0.6,7.8,1.2,11.9,0.4c1.7-0.4,1.9-0.8,2.2-2l0.1-0.2l0.2,0c6.8-0.2,13.9-2.9,17.7-5.4
			c-1.5,0-10.2,0-10.2,0l-0.1-0.2c-0.5-1.5-1.5-2.6-3.2-4.1c-0.9-0.4-2.2,0.3-2.9,0.7c-0.8,0.3-1.5,0.8-2.1,1.3
			c-0.8,0.5-1.5,1.1-2.5,1.4l0,0l0,0c-2.9,0.1-6.2-3-6.3-5.7l0-0.3l0.3,0c2-0.1,4-0.8,6.1-1.6c2-0.7,4.1-1.5,6.2-1.7
			c0.2-0.8,0.4-1.6,0.4-2.5c0-1.9-0.6-3.8-1.3-5.4c-0.3,1.8-1.3,4.4-2.2,6.3l-0.6,1.2l0.1-1.3c0-0.1,0-0.1,0-0.2
			c0-1.3-0.8-2.3-1.5-2.8c-0.7,1.7-1.4,3-2.7,4.1c-1.1,1.1-2,0.7-3,0.3l-0.7-0.3l0.4-0.3c2.9-1.9,2.7-4.9,2.5-6.1l0-0.2l0.2-0.1
			c1.3-0.5,2.7-3.2,2.2-5.4l-0.1-0.3l0.3,0c0.9-0.1,1.7-0.8,2.3-2c0.7-1.3,0.9-2.9,0.4-3.6l-0.2-0.3l0.3-0.1c1.1-0.5,1.7-1.6,2-2.3
			c0.6-1.6,0.4-3.5,0-4.4l-0.1-0.3l0.3-0.1c0.9-0.2,1.3-1.1,1.5-1.6c0.4-1.2,0.3-2.7-0.2-3.4l-0.2-0.2l0.2-0.2
			c1.5-1.2,1.1-3.3,0.7-4.9c-0.2-1-0.4-1.8,0-2.2c0.1-0.2,0.3-0.3,0.6-0.3l0.2,0l0.1,0.1c2.7,3.5,6.7,5.7,10.6,7.9l0.7,0.4l0,0.2
			c0.1,3.2,1.4,6.5,2.6,9.7l0.6,1.6l-0.2,0.1c-2.4,1.8-4.1,3.3-5.6,5.6c1,0.3,1.8,0.9,2.3,2c0.2-0.8,0.7-1.3,1.1-1.9
			c0.6-0.7,1.2-1.4,1.5-2.7l0.5,0.1c-0.2,0.9-0.2,1.6-0.2,2.3c0,0.9,0.1,1.5,0.3,2.2c0.1,0.6,0.2,1.2,0.2,1.9c0,0.7-0.1,1.5-0.4,2.5
			c1.1-0.8,2.3-0.9,3.7-0.8c-0.6-1.2-0.9-2.5-0.9-3.7c0-1.5,0.3-3,0.7-4.4l0.3-1.2l0.3,0.3c1.5,1.1,2.5,3.9,2.6,6.8
			c0.8-1,1.8-1.5,3.1-1.6c-1-1.9-1.4-4.3-1.7-6.6c-0.4-2.5-0.7-5.1-2-7l-0.1-0.1l0.1-0.1c1.1-2.7,2.4-5.3,3.7-7.4
			c-0.5-1.6-0.6-2.9-0.7-4.6c-0.5,0.9-0.9,2-1.3,3.1c-0.9,2.3-1.8,4.8-3.6,6.7l-0.4,0.4l-0.1-0.5c-2.6-11.2-6.7-15.9-13.5-23.7
			l-2.5-2.8l0-0.1c-0.2-0.7-0.3-1.4-0.3-2.1c0-1.3,0.4-2.5,1.2-3.9c-1.9,0.8-3.4,2.4-4.1,4.8l0,0l0,0c-0.5,0.9-0.9,1.7-0.9,2.6
			c0,0.3,0.1,0.7,0.2,1.1l0.2,0.6l-0.6-0.3c-2.3-1.2-5-1-7.2,0.7l-0.4-0.4c1.8-1.9,1.9-2.6,0.7-3.9l-0.2-0.2l0.3-0.2
			c1.7-1.1,1.7-1.7,1.1-3.2l-0.1-0.2l0.2-0.1c1.3-0.7,1.7-1.9,1.1-3.9l-0.1-0.3l0.3-0.1c2.1-0.4,3.7-2.1,3.8-4.3l0-0.1l0.1-0.1
			c1.8-1,3.2-1.6,5.4-1.8l0.1,0l0.8,0.4c2.2,1.2,4.2,2.4,6.1,3.9c0.2-1.1,0.9-1.9,2.2-2.4c-3.2-0.4-5.4-1.2-7-2.7l-0.6-0.5l0.8,0.1
			c2.5,0.2,5.3,0.6,8.6,1.2c-0.6-0.7-0.9-1.5-1.1-2.4c-0.4,0.5-0.8,0.8-1.7,0.8l-0.1,0l-0.1,0c-1.3-0.6-3-0.4-4.7-0.2
			c-0.8,0.1-1.7,0.2-2.5,0.2h-0.1l0,0c-0.9-0.3-1.4-0.7-1.4-1.1c0,0,0-0.1,0-0.1c0-0.3,0.2-0.5,0.5-0.8l0,0l0,0
			c3-1.1,4.7-1.5,7.5-1.5c-0.5-0.3-0.9-0.7-0.9-1.4c0-0.1,0-0.2,0-0.3c-0.8,0.3-1.7,0.3-2.6,0.3c-1.6,0-3.1,0-3.8,1.6l-0.1,0.2
			l-0.2,0c-0.6-0.1-1,0-1.5,0.1c-0.7,0.1-1.5,0.3-2.8,0.3c-1.2,0.3-2.4,0.7-2.7,2.3l-0.1,0.6l-0.4-0.5c-2-2.6-4.8-3.9-9.2-4.4
			l-0.1,0l0,0c-1.6-0.8-2.4-1.2-2.8-1.3c0.3,0.4,0.9,0.9,1.3,1.3c1.3,1.2,1.9,1.8,2,2.2c0.3,0.1,2.4,0.6,2.4,0.6
			c1.9,0.4,3.6,0.8,5.3,2.3l0.2,0.2l-0.2,0.2c-5.4,5.6-8.9,9.5-12.4,16.4c-1,1.4-1.9,2.1-2.8,2.2c-0.6,0.1-1.1-0.2-1.7-0.6l-0.1-0.1
			c0,0,1.1-2.8,1.3-3.2c-0.9-0.4-1.4-1.4-1.8-2.4c0,0,0,0,0,0c-0.4,1.2-0.5,2.2-0.5,3.4l0,0.7l0,0.2l-4,1.3
			c-7.2,2.5-15.5,5.2-19.9,5l-0.4,0l0.1-0.3c0.3-1,1.1-1.9,1.8-2.7c0.8-0.9,1.6-1.8,1.5-2.7c-0.2-1.9-1.7-3.8-4.1-5.4L64.5,516
			 M74.7,496l0.9-0.6l-0.8,0.4c2.9,1.2,4.4,2.5,6.2,4.2c-0.1-0.3-0.1-0.7-0.1-1c0-0.8,0.2-1.5,0.8-1.9c-2.6-0.6-3.4-0.8-3.2-1.9
			l-1.8-1.2l0.8-0.6c1.6-0.4,1.2,0.3,2.9,0.8c1.5,0.4,2.9,0.8,4.1,0.7c-0.7-0.5-1.1-1.1-1.1-1.8c0-0.2,0.1-0.4,0.1-0.5 M85,582.4
			C85,582.4,85,582.3,85,582.4C85,582.3,85,582.3,85,582.4L85,582.4L85,582.4z"/>
		<path id="path5917" d="M81.8,500.7l-0.2,0l-0.1-0.1c-0.6-1.2-0.4-2.5,0.5-3.3l0.2-0.2l0.2,0.2c1.3,1,3.2,1.5,5.2,1.1l1-0.2
			l-0.8,0.7C86.3,500.1,83.9,500.8,81.8,500.7 M86.6,499c-1.6,0.1-3.2-0.4-4.3-1.2c-0.3,0.3-0.5,0.8-0.5,1.3c0,0.3,0.1,0.7,0.2,1
			C83.6,500.2,85.2,499.8,86.6,499z"/>
		<path id="path5919" d="M85.1,494.8L85.1,494.8c-1-0.7-2-1.4-1.1-2.4l0.1-0.3l0.3,0.1c1.4,0.5,3,0.3,4.3-0.5l0.8-0.5l-0.4,0.8
			c-0.9,1.7-2.1,2.6-3.9,2.7L85.1,494.8 M88.2,492.5c-1.2,0.5-2.4,0.6-3.6,0.2c0,0.1,0,0.1,0,0.2c0,0.5,0.3,0.9,0.8,1.2
			C86.5,494,87.4,493.5,88.2,492.5L88.2,492.5z"/>
		<path id="path5921" d="M128.9,488.9L128.9,488.9c-1.3-0.2-1.3-1.2-1.2-2.4l0-0.3l0.3,0.1c2.1,0.5,3,0.2,5.2-0.9l0.8-0.4l-0.4,0.8
			C132.6,487.6,131.4,488.4,128.9,488.9L128.9,488.9 M132.6,486.3c-1.6,0.8-2.7,0.9-4.4,0.6c0,0.1,0,0.2,0,0.2
			c0,0.9,0.2,1.1,0.7,1.2C130.7,488,131.8,487.4,132.6,486.3L132.6,486.3z"/>
		<path id="path5923" d="M132.6,494.5L132.6,494.5c-1.3-1.3-2.1-2.2-1.3-3.6l0.1-0.2l0.2,0.1c1.8,0.8,3.3,1.1,5.8-0.1l0.7-0.3
			l-0.3,0.7c-1,2.4-2.8,3.1-5,3.4L132.6,494.5 M136.9,491.5c-2.1,0.8-3.6,0.6-5.2-0.1c-0.1,0.2-0.1,0.3-0.1,0.5c0,0.6,0.4,1.1,1.3,2
			C134.6,493.6,136,493.1,136.9,491.5z"/>
		<path id="path5925" d="M127.6,499.7l0.1-0.4c0.6-1.7,1.9-2.8,3.3-2.9l0,0l0,0c1.4,0.3,2.3,0.3,3.9-0.7l1.3-0.8l-0.9,1.2
			c-1.7,2.2-4.1,3.4-7.3,3.5L127.6,499.7 M133.8,496.9c-1,0.3-1.8,0.3-2.8,0.1c-1,0.1-2,0.9-2.6,2.1
			C130.7,498.8,132.5,498.1,133.8,496.9z"/>
		<path id="path5927" d="M129.5,560.1l-0.9-0.7c-2.8-2-3.8-4.9-2.7-8.1l0.1-0.3l0.3,0.1c1.4,0.6,2.5,1.2,2.6,3.1l0,0.1l0,0.1
			c-0.6,1.6-0.5,3.2,0.2,4.7L129.5,560.1 M128.2,554.3c-0.1-1.5-0.8-2-1.9-2.5c-0.2,0.6-0.3,1.3-0.3,2c0,1.5,0.5,3.1,2.1,4.6
			c-0.2-0.6-0.3-1.2-0.3-1.8C127.8,555.8,127.9,555,128.2,554.3z"/>
		<path id="path5929" d="M139.3,562.9l-1.9-0.2c-5.1-0.6-5.8-3.3-5.8-4.8l0-0.2l0.1-0.1c1.2-0.7,2.5-1.3,3.9-1l0.4,0.1l-0.2,0.3
			c-0.5,0.7-1,1.7-0.7,2.7c0.2,0.9,1.1,1.7,2.4,2.3L139.3,562.9 M135.2,557.2c-1-0.1-1.9,0.3-3,0.9c0,1.9,1.3,3.1,3.7,3.7
			c-0.7-0.5-1.2-1.1-1.4-1.8c-0.1-0.2-0.1-0.5-0.1-0.8C134.5,558.6,134.7,557.9,135.2,557.2z"/>
		<path id="path5931" d="M139.6,557.1c-0.6-0.5-1-1.2-1-2.1l0-0.1l0.7-0.6c1.1-1,1.9-1.7,2.8-1.1l0.2,0.1l-0.1,0.2
			c-0.5,1.8-0.3,3,2.6,4l1.1,0.4l-1.1,0.2C142.6,558.3,140.7,558,139.6,557.1 M143.5,557.5c-1.6-0.7-2.1-1.6-2.1-2.7
			c0-0.4,0.1-0.8,0.2-1.2c-0.5-0.2-1,0.3-2,1.1c0,0-0.3,0.3-0.4,0.4c0.1,0.6,0.3,1.1,0.8,1.5C140.7,557.3,142,557.6,143.5,557.5z"/>
		<path id="path5933" d="M141.1,576.6l-0.8-0.8c-1.7-1.7-9.9-4.1-12.3-4l-0.4,0l0.3-0.9c0.1-0.4,0.3-0.9,0.3-1.2c0-0.1,0-0.1,0-0.2
			c-4.1-1.3-11.7-0.7-17.6,2.4l0,0l0,0c-1.5,0.4-2.9-0.6-3.4-1.7c-0.4-1,0-2,1-2.5c6.7-3.6,16.3-2.6,21.5-1.7
			c0.2-0.4,0.3-0.8,0.3-1.2c0-0.8-0.4-1.5-1.2-2.5l-1.2-1.4l1.5,1c6.3,4,10.2,8.5,11.7,13.7L141.1,576.6 M130,563.2
			c0.3,0.5,0.5,1,0.5,1.6c0,0.5-0.1,1-0.4,1.6l-0.1,0.2l-0.2,0c-5.1-0.9-14.8-1.9-21.4,1.6c-1.1,0.6-0.9,1.5-0.7,1.8
			c0.4,0.9,1.5,1.7,2.7,1.4c6-3.2,13.8-3.7,18-2.4l0,0l0,0c0.2,0.1,0.3,0.4,0.3,0.7c0,0.4-0.1,0.8-0.3,1.3c0,0,0,0.1-0.1,0.2
			c2.5,0.1,8.9,1.9,11.5,3.6C138.4,570.5,135.1,566.7,130,563.2L130,563.2z"/>
		<path id="path5935" class="st6" d="M118.4,575.3c1.1-0.1,2.2-0.2,2.7-1l-0.5-0.3c-0.3,0.5-1.3,0.6-2.3,0.7
			c-1.2,0.1-2.6,0.3-3.1,1.3l0.5,0.3C116.1,575.5,117.3,575.4,118.4,575.3z"/>
		<path id="path5937" d="M116,578.8c-0.9-0.9-1-2.2-0.1-4.1l-0.5-0.2c-0.6,1.4-1.2,3.3,0.2,4.7L116,578.8z"/>
		<path id="path5939" class="st6" d="M114.3,578.6l-4.8-0.4c-8.7-0.8-10.7-0.8-11-0.2c-0.1,0.4,0.3,0.6,0.4,0.7l0.3-0.5c0,0,0,0,0,0
			c1.1-0.3,6.5,0.2,10.2,0.5l4.8,0.4L114.3,578.6z"/>
		<path id="path5941" d="M111.2,578.4c0-2.1-1.9-3.9-4.3-4.1c-0.9-0.1-1.7,0.2-2.3,0.8c-0.7,0.7-1.2,1.7-1.2,2.8h0.6
			c0-0.9,0.4-1.8,1-2.3c0.4-0.3,1-0.7,1.9-0.7c2.1,0.1,3.8,1.7,3.8,3.6H111.2z"/>
		<path id="path5943" d="M110.9,578.2l-7.3-0.6l0,0.6l7.3,0.6L110.9,578.2L110.9,578.2z"/>
		<path id="path5945" d="M90.3,587c1.6,0,3.3-0.7,5.1-2.1c1-0.9,1.9-2,1.7-3.6l-0.6,0.1c0,0.1,0,0.2,0,0.4c0,1.1-0.6,1.9-1.5,2.8
			c-1.6,1.2-3.2,1.9-4.6,2c-0.1-0.5-0.2-1-0.2-1.5c0-1.3,0.4-2.7,1.1-3.6c0,0,0,0,0,0L91,581c0,0,0,0,0,0c-1.6,2.1-3.3,3-5.4,3.1
			c0.2-2.1,1.2-3.9,3.2-5.7c1.1-0.7,2.4-0.7,3.7-0.8c1.4-0.1,2.7-0.1,3.8-0.9l0.9-0.7l-1.1,0.2c-1.6,0.3-2.7,0-3.5-0.8
			c0.9-0.9,1.9-1.2,3.3-0.9l0.1-0.5c-2-0.7-3.2-1.5-3.9-2.7c1-0.3,2.2-0.1,3,0.6l0,0c0,0,0,0,0,0l0.3-0.4c0,0,0,0,0,0
			c-1.3-1-2.1-2.1-2.6-3.4c0.7-0.2,1.7,0.4,2.5,1.1l0.4-0.4c-1.6-2-2.3-3.4-2.3-3.7c1.2-0.4,2.4,0.6,3.5,1.5l0.3,0.3l0.4-0.3
			c-0.6-1.2-0.9-2.9-0.6-3.5c0.1-0.1,0.1-0.1,0.1-0.1c1.2-0.1,2.1,2.4,2.3,3.2l0.5-0.1c-0.1-1.1,0-2.4,0.5-2.9
			c0.2-0.2,0.4-0.2,0.6-0.2c0.7,0.2,0.9,1.2,1.1,2.3l0.2,0.9l0.5-0.1l-0.2-0.9c-0.3-1.2-0.5-2.3-1.6-2.7c-0.5-0.1-0.8,0.1-1.1,0.3
			c-0.4,0.4-0.6,1.1-0.7,1.8c-0.5-1.1-1.3-2.2-2.4-2.1c-0.2,0-0.4,0.1-0.6,0.4c-0.1,0.2-0.2,0.5-0.2,0.9c0,0.6,0.2,1.3,0.4,2
			c-1.1-0.9-2.4-1.7-3.7-1.1l-0.1,0l0,0.1c-0.1,0.1-0.1,0.2-0.1,0.4c0,0.6,0.6,1.8,1.4,2.9c-0.7-0.3-1.4-0.5-2-0.2l-0.2,0.1l0.1,0.2
			c0.3,1.1,0.9,2,1.7,2.8c-0.8-0.2-1.7-0.2-2.4,0.1l-0.3,0.1l0.1,0.3c0.6,1.1,1.5,2,3,2.7c-0.9,0.1-1.7,0.6-2.4,1.4l-0.2,0.2
			l0.2,0.2c0.7,0.8,1.6,1.2,2.7,1.3c-0.6,0.1-1.3,0.2-2.1,0.2c-1.4,0.1-2.8,0.1-4.1,0.9c-2.3,2.1-3.3,4.1-3.5,6.5l0,0.3h0.3
			c1.9,0,3.5-0.6,4.9-1.9c-0.2,0.7-0.3,1.4-0.3,2.1c0,0.7,0.1,1.3,0.3,1.9l0.1,0.2L90.3,587L90.3,587z"/>
		<path id="path5947" d="M100.4,556.4c3.5-10.2,7.4-21.7,3.8-31l-0.5,0.2c3.5,9.1-0.2,20.1-3.8,30.7l-1.9,5.8l0.5,0.2L100.4,556.4
			L100.4,556.4z"/>
		<path id="path5949" d="M106.4,562.2c-1.9-1.5-4.7-2.1-7.9-1.7l0.1,0.6c3.1-0.3,5.7,0.3,7.5,1.6L106.4,562.2z"/>
		<path id="path5951" d="M107.7,556.8c-1.9-1-4.1-2.1-7.1-2.1v0.6c2.8,0,5,1,6.8,2L107.7,556.8z"/>
		<path id="path5953" d="M110.2,551.2c-2.5-1.6-5-2.4-7.6-2.4v0.6c2.5,0,4.9,0.8,7.3,2.4L110.2,551.2z"/>
		<path id="path5955" d="M113.2,545.1c-3-1.6-6.2-2.2-8.9-2.4l-0.1,0.6c2.8,0.3,5.7,0.8,8.7,2.4L113.2,545.1z"/>
		<path id="path5957" d="M115.2,538c-2.4-1.4-6-1.7-10-0.7l0.1,0.5c3.9-0.9,7.3-0.6,9.6,0.7L115.2,538z"/>
		<path id="path5959" d="M116.8,532.5c-4-6.2-9-3.3-11.7-1.7l0.3,0.5c2.7-1.6,7.2-4.2,10.9,1.5L116.8,532.5z"/>
		<path id="path5961" d="M114.9,522l0.4,0.1l0.1-0.6l-0.4-0.1c-3.4-0.6-9.2-1.5-11.4,3.8l0.5,0.2C106.2,520.6,111.4,521.5,114.9,522
			L114.9,522z"/>
		<path id="path5963" d="M132.7,533.9c-3.2-7.1-9-12.3-15.6-14.1l-0.1,0.5c6.4,1.7,12.1,6.8,15.2,13.8L132.7,533.9z"/>
		<path id="path5965" d="M131.7,533.7l0.3-0.5c-0.9-0.5-2.3-0.3-3.2,0.2l0.3,0.5C129.8,533.5,131,533.2,131.7,533.7L131.7,533.7z"/>
		<path id="path5967" d="M128.9,529.5l0-0.6c-1.9-0.2-3.5,0.4-4.9,1.7l0.4,0.4C125.7,529.9,127.2,529.4,128.9,529.5z"/>
		<path id="path5969" d="M125.9,525.4l0-0.6c-2.9,0.2-4.2,1.5-5.3,3.4l0.5,0.3C122.2,526.7,123.3,525.5,125.9,525.4L125.9,525.4z"/>
		<path id="path5971" d="M110.3,498.3l-0.4-0.4c-5.8,6.6-9.7,14.4-11.7,22.9l0.5,0.1C100.7,512.5,104.6,504.9,110.3,498.3z"/>
		<path id="path5973" d="M111.4,501.2c-0.4-1.1-1.2-1.2-2.3-1.1l0,0.6c1.1-0.1,1.5,0.1,1.7,0.8L111.4,501.2z"/>
		<path id="path5975" d="M109.8,505.3l-0.2-0.5c-0.7,0.2-1.2-0.1-1.8-0.5c-0.5-0.3-1-0.6-1.6-0.4l0.2,0.5c0.3-0.1,0.6,0.1,1.1,0.4
			C108.1,505.1,108.9,505.6,109.8,505.3z"/>
		<path id="path5977" d="M108.3,510.3c-1-1.2-2.5-1.7-4.3-1.5l0.1,0.6c1.7-0.2,2.9,0.3,3.8,1.3L108.3,510.3z"/>
		<path id="path5979" d="M107.4,515c-1.3-1.2-3.5-2.1-5.5-2.2l0,0.6c1.9,0.1,4,0.9,5.2,2L107.4,515L107.4,515z"/>
		<path id="path5981" d="M105.9,519.7c-1.1-1.6-2.7-2.3-5.4-2.5l0,0.6c2.5,0.2,4,0.9,5,2.3L105.9,519.7L105.9,519.7z"/>
		<path id="path5983" class="st6" d="M70.9,506.8l-0.1-0.6"/>
		<path id="path5985" d="M71.4,513.1l-0.4-0.4c-2.7,2.5-4.6,2.6-7.7,1.8l-0.1,0.5C66.4,515.8,68.6,515.8,71.4,513.1z"/>
		<path id="path5987" d="M85.2,519.4c-0.8-3.1-0.6-5.8,0.7-7.5l-0.5-0.3c-1.3,1.9-1.6,4.8-0.8,8L85.2,519.4z"/>
		<path id="path5989" d="M77.6,520.8c-1.4-1.7-1.4-3.9,0-6.3l-0.5-0.3c-1.5,2.6-1.5,5,0,6.9L77.6,520.8L77.6,520.8z"/>
		<path id="path5991" d="M57.2,523.4c2.9,1.9,3.7,2.8,5.6,2.2c2.7-0.9,4.9-3.9,6.1-6.3l0.2-0.5l0.3,0.4c1.1,1.9,2.6,4,5,4.4
			c3.4-1.3,5.4-3.4,6.6-7l0.5,0.1c0.1,3,2,5.1,3.2,6.1c2.2-1.4,4.5-2.8,5.4-5.8l0.5,0.1c-0.1,1.4-0.2,2.9-0.2,4.4
			c0,1.7,0.1,3.3,0.6,4.8c2.9-1.8,4.4-4.3,5.7-7.7l0.5,0.2c-0.4,1.4-0.6,2.8-0.6,4.2c0,1.6,0.3,3.1,0.8,4.5c1.5-0.2,3.9-0.8,5.5-2.3
			l0.3-0.3l0.2,0.3c0.5,1.1,0.6,2,0.3,2.8l-0.5-0.2c0.1-0.2,0.1-0.5,0.1-0.7c0-0.4-0.1-0.9-0.3-1.4c-1.7,1.4-4,2-5.7,2.2l-0.2,0
			l-0.1-0.2c-0.6-1.5-0.9-3.1-0.9-4.9c0-0.6,0.1-1.3,0.1-2c-1.1,2.3-2.7,4.5-5.3,5.9l-0.3,0.2l-0.1-0.3c-0.5-1.6-0.7-3.4-0.7-5.3
			c0-1,0-1.9,0.1-2.8c-1.2,2.3-3.2,3.5-5.1,4.7l-0.2,0.1l-0.2-0.1c-1.1-0.9-2.9-2.8-3.4-5.5c-1.3,3.1-3.4,5-6.6,6.3l-0.1,0l-0.1,0
			c-2.5-0.4-4-2.3-5.2-4.3c-1.3,2.4-3.5,5.2-6.2,6.1c-2,0.6-3,0.3-5.9-1.6L57.2,523.4L57.2,523.4z"/>
		<path id="path5993" d="M102.4,550l-0.4-0.4l-6.8,7.6l0.4,0.4L102.4,550L102.4,550z"/>
		<path id="path5995" d="M104.4,542.9l-0.4-0.4l-10.2,10.9l0.4,0.4L104.4,542.9z"/>
		<path id="path5997" d="M105.1,537.9l-0.4-0.4l-10.2,10.6l0.4,0.4L105.1,537.9z"/>
		<path id="path5999" d="M105.4,531l-0.4-0.3l-11,14.1l0.4,0.3L105.4,531z"/>
		<path id="path6001" d="M99.9,558.1l-0.4-0.4l-3.4,3.8l0.4,0.4L99.9,558.1z"/>
		<path id="path6003" d="M98.5,561.7l-4.1-22.3l-0.6,0.1l4.1,22.3L98.5,561.7z"/>
		<path id="path6005" d="M100.4,556l-3.6-17.8l-0.5,0.1l3.6,17.8L100.4,556z"/>
		<path id="path6007" d="M102.2,550.9l-3.3-14.3l-0.5,0.1l3.3,14.3L102.2,550.9z"/>
		<path id="path6009" d="M104,544.6l-1.9-12.3l-0.6,0.1l1.9,12.3L104,544.6L104,544.6z"/>
		<path id="path6011" d="M105.7,536.3l-1.9-7.5l-0.5,0.1l1.9,7.5L105.7,536.3z"/>
		<path id="path6013" d="M100.4,514.8l-0.4-0.3l-9.3,11.9l0.4,0.3L100.4,514.8z"/>
		<path id="path6015" d="M101.7,511.9l-0.4-0.4l-11.1,11.9l0.4,0.4L101.7,511.9z"/>
		<path id="path6017" d="M102.7,508.7l-0.4-0.4l-12.1,9.8l0.4,0.4L102.7,508.7z"/>
		<path id="path6019" d="M100.4,514.6l-0.8-3.7l-0.5,0.1l0.8,3.7L100.4,514.6z"/>
		<path id="path6021" d="M99.2,518.4l-1.5-5.9l-0.5,0.1l1.5,5.9L99.2,518.4z"/>
		<path id="path6023" d="M96.3,520.8l-0.7-6.6l-0.6,0.1l0.7,6.6L96.3,520.8L96.3,520.8z"/>
		<path id="path6025" d="M94.5,524.3l-1.1-8.1l-0.6,0.1l1.1,8.1L94.5,524.3z"/>
		<path id="path6027" d="M91.8,526.5l-0.7-8.8l-0.6,0l0.7,8.8L91.8,526.5L91.8,526.5z"/>
		<path id="path6029" d="M41.7,561.5c7.9-1.3,15.7-2.9,23.1-4.7l0.2,0.5c-7.2,5-15.7,9.7-27.3,14.7c9.4-3.4,20.7-7.8,25.8-10.2
			c4.5-2.1,5.5-3.9,6.9-6.3c0.9-1.5,1.9-3.3,3.9-5.5l0.7-0.7l-0.2,1c-2,9.4-3.8,13.6-6.3,15c-3.8,2.7-10.2,6.5-16.3,10.3
			c-4.3,2.7-8.5,5.2-11.8,7.3c0.5-0.3,1.5-0.8,1.5-0.8c4.7-2.5,11.1-5.8,18-9.5l0.3,0.5c-6.9,3.7-13.3,7.1-18,9.5l-6.2,3.2l-0.3-0.5
			c3.4-2.4,9.6-6.2,16.2-10.3c6.1-3.7,12.4-7.6,16.3-10.3c2.2-1.3,3.9-5.2,5.8-13.5c-1.5,1.8-2.4,3.3-3.1,4.6
			c-1.4,2.5-2.5,4.4-7.2,6.6c-4.6,2.2-15.9,6.6-25,9.9l0.3-1.5c9.6-4.3,18-8.7,24.4-13c-6.9,1.6-14.1,3.1-21.5,4.3
			C41.9,562,41.7,561.5,41.7,561.5z"/>
		<path id="path6031" d="M45.6,551.2c6.7,1.3,13.8,1.9,20,1.8l1,0l-0.8,0.5c-4.1,2.7-13.9,5.2-24.1,7.3l0.5-0.7
			c9.2-1.9,18-4.2,22.4-6.6c-5.9,0-12.6-0.6-19-1.8L45.6,551.2z"/>
		<path id="path6033" d="M49.7,541c4.8,4.2,10.9,7.7,17.1,9l0.4,0.1l-0.2,0.3c-1.2,2.1-10.7,2.1-21.2,0.2l0.1-0.5
			c9.7,1.7,18.5,1.8,20.3,0.3c-6.1-1.4-12.1-4.9-16.9-9L49.7,541z"/>
		<path id="path6035" d="M50.2,539.7c6.1,4.9,12.7,8.2,16.2,7.4c1.2-0.3,2-1.1,2.3-2.4c-5-4.6-13.1-12.1-13.1-19.5
			c0-0.3,0-0.6,0-0.9l0.6,0c1.1,7.9,10.8,17.2,13.5,17.9c0.2,0.1,0.3,0,0.4,0c-0.8-4.2-1.6-8.7-1.6-14.6c0-2.5,0.1-5.1,0.5-8.1
			l0.6,0c0.2,10.8,2,19,4.1,19.1c3.9-1.9,6.3-9,7.2-21.6l0.6,0l0.1,1.4c0.1,2.4,0.2,4.5,0.2,6.4c0,4.4-0.5,7.8-2.5,11.9
			c1.3,0.7,2.5,0.8,3.4,0.4c1.8-0.9,3.2-3.9,4.2-9.5l0.6,0c0.1,1,0.1,2,0.1,2.9c0,4-0.9,6.8-2.6,8.6c8.6,0.4,12.4-2.7,18.4-11.4
			l0.5,0.3c-1.3,3.6-5.3,12.2-15.3,14.2l-0.1-0.5c8.1-1.6,12.2-7.6,14-11.6c-5.5,7.6-9.5,10.2-18.1,9.7l-0.7,0l0.5-0.4
			c1.9-1.6,2.8-4.5,2.8-8.6c0-0.2,0-0.4,0-0.6c-1,4.4-2.3,6.8-4,7.7c-1.2,0.6-2.5,0.4-4.2-0.5l-0.2-0.1l0.1-0.2
			c2-4.2,2.6-7.6,2.6-12c0-1.1,0-2.3-0.1-3.6c-1.2,10.5-3.5,16.3-7.2,18l-0.1,0h-0.1c-2.5,0-4-7-4.6-15.1c-0.1,1.2-0.1,2.4-0.1,3.5
			c0,6,0.8,10.5,1.6,14.7l0,0.1l-0.1,0.1c-0.2,0.3-0.6,0.3-1,0.2c-2.8-0.8-10.7-8.6-13.2-15.7c1.1,6.7,8.4,13.3,12.9,17.4l0.1,0.1
			l0,0.2c-0.3,1.6-1.3,2.6-2.8,2.9c-3.7,0.8-10.3-2.6-16.3-7.4L50.2,539.7L50.2,539.7z"/>
		<path id="path6037" class="st1" d="M61,690c-20.8-12.1-32.6-24.1-33.1-24.6l-0.6-0.6l-0.1-0.8c-0.1-0.7-6.6-74,25.6-135.2
			c18.8-35.8,43.4-58.9,60.7-72.1c18.8-14.3,32.9-20,33.5-20.2l0.8-0.3l0.8,0.3c0.6,0.2,14.8,6,33.5,20.2
			c17.3,13.1,41.9,36.3,60.7,72.1c32.2,61.2,25.7,134.5,25.6,135.2l-0.1,0.8l-0.6,0.6c-0.5,0.5-12.4,12.5-33.1,24.6
			c-19.2,11.2-49.8,24.6-86.9,24.6C110.8,714.6,80.2,701.2,61,690 M147.9,710c65,0,110.7-41.9,116.2-47.3c0.1-2,0.5-7.6,0.5-15.8
			c0-24.9-3.3-73.5-25.7-116c-32.9-62.5-83.9-86.7-91-89.8c-7.1,3.1-58.2,27.3-91,89.8c-22.4,42.6-25.7,91.1-25.7,116
			c0,8.3,0.4,13.9,0.5,15.8C37.2,668.1,83,710,147.9,710z"/>
	</g>
</g>
</svg>
