<?xml version="1.0" encoding="utf-8"?>
<!-- Generator: Adobe Illustrator 21.1.0, SVG Export Plug-In . SVG Version: 6.00 Build 0)  -->
<svg version="1.1" id="Layer_1" xmlns="http://www.w3.org/2000/svg" xmlns:xlink="http://www.w3.org/1999/xlink" x="0px" y="0px"
	 viewBox="0 0 200 200" style="enable-background:new 0 0 200 200;" xml:space="preserve">
<style type="text/css">
	.st0{fill:#0059AB;}
	.st1{fill:#FFCA03;}
	.st2{fill:#FFFFFF;}
</style>
<g id="_x3C_Group_x3E_">
	<path class="st0" d="M138.9,106.6V163c-1.3,2.5-2.8,4.8-4.3,7c-3.8,5.4-8.1,9.9-12.9,13.3V101c-4-0.7-8.4-1.2-13-1.5v90
		c-2.8,0.7-5.7,1.1-8.6,1.1c-2.9,0-5.8-0.4-8.6-1.1v-90c-4.7,0.3-9,0.8-13.1,1.5v82.3c-4.8-3.4-9.1-7.9-12.9-13.3
		c-1.5-2.2-3-4.5-4.3-7v-56.3c-3.7,2-7.3,4.5-10.6,7.6c0-0.7,0-1.3,0.1-2c3.6-3.2,7.4-5.7,11.4-7.6c19-9.3,57.2-9.3,76.2,0
		c4,2,7.8,4.5,11.4,7.6c0,0.7,0.1,1.3,0.1,2C146.2,111.1,142.7,108.6,138.9,106.6z M64.5,75.4c-1.3-0.5-2.5-1.1-3.7-1.6
		c0.2-0.4,0.4-0.9,0.7-1.3c1.2-2.2,2.5-4.3,3.9-6.3c3.7-5.4,8.1-9.8,12.9-13.2v25.4l-0.2,0c4.2,1,8.6,1.7,13.2,2.1V46.8
		c2.8-0.7,5.7-1.1,8.6-1.1c2.9,0,5.8,0.4,8.6,1.1v33.7c4.6-0.4,8.9-1.1,13-2.1V53c4.8,3.4,9.1,7.9,12.9,13.2c1.4,2,2.7,4.1,3.9,6.3
		l0,0c0.2,0.4,0.5,0.8,0.7,1.3c-1.2,0.6-2.5,1.1-3.7,1.6C113.5,84.6,86.5,84.6,64.5,75.4z"/>
	<path class="st1" d="M100,36.2c16.6,0,31.6,9.4,42.3,24.6c10.4,14.7,16.8,35,16.8,57.3c0,22.3-6.4,42.6-16.8,57.3
		C131.6,190.6,116.6,200,100,200c-16.7,0-31.6-9.4-42.3-24.6c-10.4-14.8-16.8-35-16.8-57.3c0-22.3,6.4-42.6,16.8-57.3
		C68.4,45.6,83.4,36.2,100,36.2z M134.6,66.2c-9-12.7-21.2-20.6-34.6-20.6c-13.4,0-25.6,7.9-34.6,20.6
		c-9.3,13.2-15.1,31.5-15.1,51.9s5.8,38.7,15.1,51.9c8.9,12.7,21.2,20.6,34.6,20.6c13.4,0,25.6-7.9,34.6-20.6
		c9.3-13.2,15-31.5,15-51.9S143.9,79.5,134.6,66.2z"/>
	<g>
		<path class="st0" d="M84,131.4c-0.2-3.8-0.4-7.6-0.7-11.3c-0.2-2.6-0.5-5.3-0.9-7.9c-0.4-2.6-1.1-5.2-1.8-7.7l-0.6-2l1.9,0.9
			c5.8,2.6,11.7,3.6,18.1,3.6c6.3,0,12.2-0.9,18-3.6l1.9-0.9l-0.6,2c-0.7,2.5-1.3,5.1-1.7,7.7c-0.4,2.6-0.7,5.3-0.9,7.9
			c-0.3,3.8-0.5,7.6-0.7,11.3v0.2l-0.1,0.2c-3.2,7.2-4.7,15.1-4.7,23c0,8.7,1.2,17.4,5.3,25.2l1.2,2.2l-2.4-0.9
			c-5-1.9-10.1-2.2-15.3-2.2c-5.3,0-10.4,0.3-15.3,2.2l-2.4,0.9l1.2-2.2c4.1-7.8,5.2-16.5,5.2-25.2c0-7.8-1.5-15.8-4.7-23l0-0.2
			L84,131.4z"/>
		<path class="st1" d="M100,178c-6,0-10.9,0.4-15.7,2.3c3.9-7.3,5.4-15.8,5.4-25.6c0-8.6-1.7-16.6-4.8-23.4
			c-0.9-13.9-0.9-18.3-3.5-27.1c5.3,2.4,11.1,3.7,18.5,3.7c7.4,0,13.1-1.2,18.5-3.7c-2.5,8.8-2.6,13.2-3.4,27.1
			c-3,6.7-4.8,14.8-4.8,23.4c0,9.8,1.5,18.3,5.4,25.6C110.9,178.4,106,178,100,178z"/>
	</g>
	<g>
		<path class="st2" d="M94.5,169.4v-2L95,167v-21l-0.6-0.4V144H95v-3.8h1.2v-6.1h0.2v-4.5H96v-1.2h0.3l3.6-6.2l0.2-0.3l0.1,0.3
			l3.6,6.2h0.3v1.2h-0.4v4.5h0.4v6.1h1.1v3.8h0.6v1.5l-0.6,0.4v21l0.5,0.4v2C101.8,169.4,98.2,169.4,94.5,169.4z M102.7,129.7h-1.1
			v4.5h1.1V129.7z M98.5,129.7h-1.1v4.5h1.1V129.7z M100.5,129.7h-1.1v4.5h1.1V129.7z"/>
		<path class="st0" d="M103.1,141.2v1.3h-3v-1.3H103.1z M104.7,144.1h-2.9v-1.4h2.9V144.1z M95.3,142.7h2.9v1.4h-2.9V142.7z
			 M95.3,141.2h1.3v1.3h-1.3V141.2z M104.7,140.9h-9.3v-0.4c3.1,0,6.2,0,9.3,0V140.9z M103.3,142.5v-1.3h1.4v1.3H103.3z M96.9,142.5
			v-1.3h3v1.3H96.9z M101.5,162.3v1.4h-3v-1.4H101.5z M101.5,145.9v1.4h-3v-1.4H101.5z M101.5,142.7v1.4h-3v-1.4H101.5z M94.7,145.1
			h10.6v-0.7c-3.5,0-7.1,0-10.6,0V145.1z M100.1,154.1v1.4h3v-1.4H100.1z M99.9,155.5v-1.4h-3v1.4H99.9z M101.1,169v-2.9
			c0-0.3-0.1-0.6-0.3-0.8l0,0c-0.2-0.2-0.5-0.3-0.8-0.3l0,0c-0.3,0-0.6,0.1-0.8,0.3l0,0c-0.2,0.2-0.3,0.5-0.3,0.8v2.9
			C99.7,169,100.4,169,101.1,169z M104.7,163.9h-1.4v1.4h1.4V163.9z M104.7,162.3h-2.9v1.4h2.9V162.3z M104.7,160.7h-1.4v1.4h1.4
			V160.7z M104.7,159h-2.9v1.4h2.9V159z M104.7,157.4h-1.4v1.4h1.4V157.4z M104.7,155.7h-2.9v1.4h2.9V155.7z M104.7,154.1h-1.4v1.4
			h1.4V154.1z M104.7,152.5h-2.9v1.4h2.9V152.5z M104.7,150.9h-1.4v1.4h1.4V150.9z M104.7,149.2h-2.9v1.4h2.9V149.2z M104.7,147.6
			h-1.4v1.4h1.4V147.6z M104.7,145.9h-2.9v1.4h2.9V145.9z M95.2,145.7h9.6l0.5-0.3v-0.1H94.7v0.1L95.2,145.7z M95.3,147.4h2.9v-1.4
			h-2.9V147.4z M95.3,149h1.3v-1.4h-1.3V149z M95.3,150.6h2.9v-1.4h-2.9V150.6z M95.3,152.2h1.3v-1.4h-1.3V152.2z M95.3,153.9h2.9
			v-1.4h-2.9V153.9z M95.3,155.5h1.3v-1.4h-1.3V155.5z M95.3,157.2h2.9v-1.4h-2.9V157.2z M95.3,158.8h1.3v-1.4h-1.3V158.8z
			 M95.3,160.4h2.9V159h-2.9V160.4z M95.3,162h1.3v-1.4h-1.3V162z M95.3,163.7h2.9v-1.4h-2.9V163.7z M95.3,165.3h1.3v-1.4h-1.3
			V165.3z M95.3,167h2.8v-1c0-0.1,0-0.3,0-0.4h-2.8V167z M94.8,167.5h3.3v-0.3h-2.9L94.8,167.5z M98.1,169v-1.3h-3.3v1.3H98.1z
			 M101.6,169v-3c0-0.4-0.2-0.9-0.5-1.1l0,0c-0.3-0.3-0.7-0.5-1.1-0.5c-0.5,0-0.9,0.2-1.2,0.5l0,0c-0.3,0.3-0.5,0.7-0.5,1.1v3h0.3
			v-2.9c0-0.4,0.1-0.7,0.4-1l0,0c0.2-0.2,0.6-0.4,1-0.4l0,0c0.4,0,0.7,0.2,0.9,0.4l0,0c0.2,0.2,0.4,0.6,0.4,1v2.9H101.6z
			 M94.5,169.4v-2L95,167v-21l-0.6-0.4V144H95v-3.8h1.2v-6.1h0.2v-4.5H96v-1.2h0.3l3.6-6.2l0.2-0.3l0.1,0.3l3.6,6.2h0.3v1.2h-0.4
			v4.5h0.4v6.1h1.1v3.8h0.6v1.5l-0.6,0.4v21l0.5,0.4v2C101.8,169.4,98.2,169.4,94.5,169.4z M105.2,167.7h-3.3v1.3h3.3V167.7z
			 M104.8,167.2h-2.9v0.3h3.3L104.8,167.2z M101.8,165.5c0,0.2,0,0.3,0,0.4v1h2.8v-1.4H101.8z M100,164.1c0.5,0,1,0.2,1.3,0.5l0,0
			c0.2,0.2,0.3,0.4,0.4,0.7h1.3v-1.4h-6.2v1.4h1.3c0.1-0.3,0.2-0.5,0.4-0.7l0,0C99,164.3,99.5,164.1,100,164.1z M99.9,161.8h-0.4
			v-1.1h-2.6v1.4h3V161.8z M100.5,160.7v1.1h-0.3v0.2h3v-1.4H100.5z M99.5,159.8h0.9v0.6h1.1V159h-3v1.4h1V159.8z M99.9,157.8h-0.4
			v-0.4h-2.6v1.4h3V157.8z M100.5,157.4v0.4h-0.3v1h3v-1.4H100.5z M99.5,155.8h0.9v1.4h1.1v-1.4h-3v1.4h1V155.8z M100.5,152.5v1.3
			h-0.9v-1.3h-1v1.4h3v-1.4H100.5z M100.1,151.8h0.3v0.4h2.6v-1.4h-3V151.8z M100.5,149.2v0.6h-0.9v-0.6h-1v1.4h3v-1.4H100.5z
			 M100.1,147.8h0.3v1.2h2.6v-1.4h-3V147.8z M99.5,147.8h0.4v-0.2h-3v1.4h2.6V147.8z M99.3,166.9c0.1,0,0.2,0.1,0.2,0.2
			c0,0.1-0.1,0.2-0.2,0.2s-0.2-0.1-0.2-0.2C99.1,167,99.2,166.9,99.3,166.9z M99.9,148.1h0.2v1.3h-0.2V148.1z M99.9,152.2h0.2v1.3
			h-0.2V152.2z M99.9,156.1h0.2v1.3h-0.2V156.1z M99.9,160.2h0.2v1.3h-0.2V160.2z M99.9,151.8v-0.9h-3v1.4h2.6v-0.4H99.9z
			 M101.4,136c-0.3-0.3-0.8-0.5-1.3-0.5c-0.5,0-1,0.2-1.3,0.5c-0.4,0.4-0.6,0.8-0.6,1.3c0,0.5,0.2,1,0.6,1.3
			c0.3,0.3,0.8,0.6,1.3,0.6c0.5,0,1-0.2,1.3-0.6c0.4-0.3,0.6-0.8,0.6-1.3C102,136.8,101.8,136.4,101.4,136z M98.5,135.9
			C98.5,135.9,98.6,135.9,98.5,135.9L98.5,135.9c0.4-0.4,0.9-0.7,1.4-0.7v-0.8h-3.2L98.5,135.9z M97.9,137.2c0-0.4,0.2-0.8,0.4-1.1
			l-1.8-1.5v2.6H97.9z M98.4,138.6c-0.2-0.3-0.4-0.7-0.4-1.1h-1.4v2.6L98.4,138.6z M99.9,139.4c-0.5,0-1-0.2-1.3-0.6h0
			c0,0,0,0,0-0.1l-1.8,1.5h3.1h0.1V139.4z M101.6,138.8C101.6,138.8,101.6,138.8,101.6,138.8L101.6,138.8c-0.4,0.4-0.9,0.7-1.5,0.7
			v0.8h0h3.2L101.6,138.8z M102.2,137.5c0,0.4-0.2,0.8-0.4,1.1l1.8,1.5v-2.6H102.2z M101.8,136.1c0.2,0.3,0.4,0.7,0.4,1.1h1.5v-2.6
			L101.8,136.1z M100.2,135.2c0.6,0,1,0.3,1.4,0.6l0,0c0,0,0,0.1,0.1,0.1l1.8-1.5h-3.3V135.2z M100.1,137.1c0,0,0.1,0,0.1,0l0.6-0.5
			c0,0,0.1,0,0.2,0c0,0,0,0.1,0,0.2l-0.7,0.5c0,0,0,0,0,0c0,0,0,0,0,0.1l0.9,0.9c0,0.1,0,0.1,0,0.2c0,0-0.1,0-0.2,0l-0.9-0.9
			c0,0,0,0-0.1,0c-0.1,0-0.2-0.1-0.2-0.2C99.9,137.2,99.9,137.1,100.1,137.1z M99.2,134.2v-4.5h-0.5v4.5H99.2z M103.4,134.2v-4.5
			h-0.5v4.5H103.4z M97.1,134.2v-4.5h-0.5v4.5H97.1z M101.3,134.2v-4.5h-0.5v4.5H101.3z M98.5,129.7h-1.1v4.5h1.1V129.7z
			 M100.5,129.7h-1.1v4.5h1.1V129.7z M102.7,129.7h-1.1v4.5h1.1V129.7z M96.3,129.4h7.4v-0.7h-7.4V129.4z M103.3,128.5l-3.3-5.7
			l-3.3,5.7H103.3z"/>
	</g>
	<g>
		<path class="st0" d="M90.6,121.4c-0.3-0.8-0.5-1.5-0.8-2.3c-0.1-0.2-0.6-0.4-0.7-0.7c-0.2-0.5-0.4-1-0.6-1.4l0-0.1l0.1,0
			c0.3-0.1,0.6-0.2,0.9-0.4l-0.8-2.3l-0.7-0.6l0,0c-0.2-0.5-0.4-0.9-0.5-1.4l0-0.1l0.1,0c0.4-0.2,0.9-0.3,1.3-0.4l0.1,0l0.2,0.9
			l0.3-0.1l-0.3-0.9h0c0.5-0.2,1-0.3,1.5-0.4l0,0L91,112l0.2-0.1l-0.2-0.8l0,0c0.4-0.1,0.9-0.2,1.3-0.3h0.1l0,0
			c0.1,0.5,0.3,0.9,0.4,1.4l0,0l-0.2,0.8l0.6,2.5c0,0,0.1,0,0.1,0h0.1l0.2,1.1l0.4-0.1l-0.2-1.1h0c0.5-0.1,1.1-0.2,1.6-0.2l0.1,0
			l0.1,1.1l0.4-0.1L96,115h0.1c0.4,0,0.9-0.1,1.3-0.1v-2.7l-0.4-0.4v-1.5h1.2v0.8h0.4v-0.8h1.2v0.8h0.3h0.3v-0.8h1.2v0.8h0.4v-0.8
			h1.2v1.5l-0.5,0.4v2.7c0.4,0,0.9,0.1,1.3,0.1h0.1l-0.2,1.1l0.4,0.1l0.2-1.1l0.1,0c0.5,0,1,0.1,1.5,0.2h0.1l-0.2,1.1l0.4,0.1
			l0.2-1.1h0.1c0,0,0.1,0,0.1,0l0.7-2.5l-0.2-0.8l0,0c0.1-0.5,0.3-0.9,0.4-1.4v0h0.1c0.4,0.1,0.9,0.2,1.3,0.3l0.1,0l-0.3,0.8
			l0.2,0.1l0.3-0.9l0.1,0c0.5,0.1,1,0.3,1.5,0.4h0.1l-0.3,0.9l0.2,0.1l0.3-0.9l0.1,0c0.4,0.2,0.9,0.3,1.3,0.4l0.1,0l0,0.1
			c-0.1,0.4-0.3,0.9-0.5,1.4l0,0l-0.6,0.6l-0.9,2.3c0.3,0.1,0.6,0.2,0.9,0.4l0,0v0.1c-0.2,0.4-0.4,0.9-0.7,1.4
			c-0.1,0.3-0.6,0.4-0.7,0.7c-0.3,0.7-0.5,1.5-0.8,2.3c0.2,0.1,0.4,0.1,0.5,0.2h0.1l0,0.1c-0.1,0.3-0.2,0.7-0.4,1v0h-0.1
			c-3-1-6.3-1.5-9.5-1.5c-3.3,0-6.5,0.4-9.6,1.5h0l0,0c-0.1-0.3-0.2-0.7-0.4-1l0-0.1h0.1C90.3,121.6,90.4,121.5,90.6,121.4z
			 M100,117.7h-0.2c-0.3,0-0.6,0.1-0.8,0.4c0,0,0,0.1-0.1,0.1c-0.1,0.2-0.2,0.3-0.2,0.5v1.3c0.4,0,0.8,0,1.2,0c0.4,0,0.8,0,1.1,0
			v-1.3c0-0.2,0-0.3-0.1-0.5c0,0-0.1-0.1-0.1-0.1c-0.2-0.2-0.5-0.4-0.8-0.4H100z"/>
		<path class="st2" d="M100,111.6h-2.9v-1.2H98v0.8h0.7v-0.8h0.9v0.8c0.2,0,0.2,0,0.4,0c0.2,0,0.2,0,0.4,0v-0.8h0.9v0.8h0.7v-0.8
			h0.9v1.2H100z M100,112.9h0.3v1.3H100h-0.3v-1.3H100z M100,120.2c0.7,0,1.4,0,2.1,0.1h0c2.2,0.2,4.4,0.5,6.5,1.1h0
			c0.3,0.1,0.7,0.2,1,0.3c-0.1,0.2-0.2,0.5-0.3,0.8c-3-1-6.1-1.4-9.3-1.4c0,0-0.1,0-0.2,0c-0.1,0-0.2,0-0.2,0
			c-3.1,0-6.3,0.4-9.3,1.4c-0.1-0.2-0.2-0.5-0.3-0.8c0.4-0.1,0.7-0.2,1.1-0.3l0,0c2.2-0.6,4.4-1,6.5-1.1h0
			C98.6,120.3,99.3,120.3,100,120.2z M101.3,112.9h0.6v1.3h-0.6V112.9z M109.9,114.2l0.5,0.2l-0.4,1.2l-0.5-0.2L109.9,114.2z
			 M108.1,113.6l0.6,0.2l-0.3,1.2l-0.6-0.2L108.1,113.6z M101.2,113H101h-0.1h-0.1v-0.9h1.6v0.9H102v-0.3h-0.8V113z M101,113.2h0.2
			v0.7H101h-0.1h-0.4h-0.1v-0.7h0.1h0.4H101z M102,113.2h0.4v0.7H102V113.2z M100,112.2h0.7v0.9h-0.3v-0.3H100h-0.4v0.3h-0.3v-0.9
			H100z M100,116.1h0.5V115c0.4,0,0.7,0,1.1,0v1.1l1,0.1v-1.1c0.4,0,0.7,0.1,1.1,0.1l-0.2,1.1l0.8,0.1l0.2-1.1
			c0.4,0.1,0.9,0.2,1.3,0.2l-0.2,1.1l0.8,0.2l0.2-1.1c0.4,0.1,0.8,0.2,1.2,0.3l-0.4,1.1l0.9,0.2l0.3-1.1c0.4,0.1,0.6,0.2,0.9,0.3
			l-0.4,1.1l0.8,0.3l0.4-1c0.3,0.1,0.5,0.2,0.8,0.3c-0.1,0.4-0.3,0.8-0.5,1.2c-0.7-0.2-1.3-0.4-2-0.7c-1-0.3-1.9-0.5-2.7-0.7
			c-1.1-0.2-2.1-0.3-3.2-0.4c-0.9-0.1-1.9-0.1-2.9-0.1c-1,0-2,0-2.9,0.1c-1.1,0.1-2.1,0.2-3.2,0.4c-0.7,0.2-1.7,0.4-2.7,0.7
			c-0.7,0.2-1.4,0.4-2,0.7c-0.2-0.4-0.3-0.8-0.5-1.2c0.3-0.1,0.5-0.2,0.8-0.3l0.4,1l0.8-0.3l-0.4-1.1c0.4-0.1,0.6-0.2,0.9-0.3
			l0.3,1.1l0.9-0.2l-0.3-1.1c0.4-0.1,0.8-0.2,1.2-0.3l0.2,1.1l0.8-0.2l-0.2-1.1c0.4-0.1,0.9-0.2,1.3-0.2l0.2,1.1l0.8-0.1l-0.2-1.1
			c0.4,0,0.7-0.1,1.1-0.1l0,1.1l0.9-0.1V115c0.4,0,0.7,0,1.1,0v1.1H100z M100,116.5c1,0,2,0,2.9,0.1c1.1,0.1,2.1,0.2,3.2,0.4
			c0.7,0.2,1.7,0.4,2.6,0.7c0.7,0.2,1.4,0.4,2,0.7l0,0c-0.1,0.2-0.4,0.3-0.6,0.5c-2.9-1.1-5.8-1.6-8.7-1.7c-0.4-0.2-0.8-0.4-1.2-0.4
			H100h-0.2c-0.5,0-0.9,0.1-1.2,0.4c-2.9,0.2-5.8,0.7-8.7,1.7c-0.2-0.2-0.5-0.3-0.6-0.5v0c0.7-0.2,1.3-0.5,2-0.7
			c1-0.3,2-0.5,2.7-0.7c1.1-0.2,2.1-0.3,3.1-0.4C98.1,116.5,99,116.5,100,116.5z M110,119C110,119,110,119.1,110,119
			c-0.1,0.3-0.2,0.5-0.2,0.7c-0.5-0.2-1-0.3-1.5-0.5l0.2-0.7C109,118.7,109.5,118.9,110,119z M108.4,118.5l-0.2,0.7
			c-0.5-0.2-1.1-0.3-1.6-0.4l0.2-0.7C107.3,118.2,107.9,118.3,108.4,118.5z M106.6,118.1l-0.2,0.7c-0.4-0.1-0.9-0.2-1.3-0.2
			c-0.2,0-0.4-0.1-0.5-0.1l0.1-0.8C105.3,117.8,106,117.9,106.6,118.1z M104.6,117.7l-0.1,0.7c-0.4-0.1-0.9-0.1-1.4-0.2l0-0.8
			C103.6,117.5,104,117.6,104.6,117.7z M102.9,117.5l0,0.7c-0.3,0-0.5,0-0.8,0c-0.1-0.3-0.2-0.6-0.5-0.8
			C102.1,117.4,102.5,117.4,102.9,117.5z M109.1,119.7c0.2,0,0.4,0.1,0.6,0.2c-0.1,0.2-0.2,0.4-0.2,0.7c-0.2-0.1-0.4-0.2-0.6-0.2
			L109.1,119.7z M107.5,119.1c0.5,0.2,1,0.3,1.5,0.5l-0.2,0.7c-0.5-0.2-1.1-0.3-1.5-0.4L107.5,119.1z M105.6,118.7
			c0.6,0.1,1.1,0.2,1.7,0.4l-0.2,0.7c-0.6-0.1-1.1-0.2-1.6-0.3L105.6,118.7z M103.8,118.4c0.4,0,0.9,0.1,1.3,0.2
			c0.2,0,0.3,0,0.4,0.1l-0.2,0.8c-0.1,0-0.2,0-0.3,0c-0.4-0.1-0.9-0.1-1.3-0.2L103.8,118.4z M102.1,118.3c0.5,0,1.1,0.1,1.5,0.2
			l-0.1,0.9c-0.5,0-0.9-0.1-1.4-0.1v-0.5C102.2,118.5,102.2,118.4,102.1,118.3z M108,120.2c0.4,0.1,0.9,0.3,1.4,0.4
			c-0.1,0.2-0.2,0.5-0.2,0.7c-0.4-0.1-0.9-0.2-1.4-0.4L108,120.2z M106.4,119.9c0.5,0.1,1,0.2,1.5,0.3l-0.2,0.8
			c-0.5-0.1-1-0.2-1.5-0.3L106.4,119.9z M104.5,119.5c0.2,0,0.3,0,0.5,0.1c0.4,0,0.8,0.1,1.2,0.2l-0.2,0.8c-0.6-0.1-1.1-0.2-1.7-0.3
			L104.5,119.5z M102.9,119.4c0.5,0,0.9,0.1,1.4,0.1l-0.1,0.8c-0.4,0-0.9-0.1-1.3-0.1L102.9,119.4z M102.2,119.3c0.2,0,0.4,0,0.7,0
			l0,0.8c-0.2,0-0.4,0-0.6,0V119.3z M100,116.9h0.2c1,0,1.8,0.8,1.8,1.7v1.5c-0.2,0-0.4,0-0.7,0v-1.3c0-0.7-0.5-1.1-1.2-1.1H100
			h-0.2c-0.7,0-1.2,0.5-1.2,1.1v1.3c-0.2,0-0.4,0-0.7,0v-1.5c0-1,0.9-1.7,1.9-1.7H100z M100,117.7h0.1c0.3,0,0.7,0.1,0.9,0.4
			c0,0,0,0,0.1,0.1c0.1,0.2,0.2,0.3,0.2,0.5v0.3v0.1v0.9c-0.4,0-0.8,0-1.2,0c-0.4,0-0.8,0-1.2,0v-0.9V119v-0.3c0-0.2,0-0.4,0.1-0.5
			c0.1-0.1,0.1-0.1,0.1-0.1c0.2-0.2,0.5-0.4,0.8-0.4H100z M100.4,114h0.3v0.8c-0.1,0-0.2,0-0.2,0v1.1H100h-0.4v-1.1
			c-0.1,0-0.2,0-0.2,0V114h0.3v0.2h0.4h0.4V114z M102.4,114v0.9v1l0,0l-0.6,0v-1.1c-0.3,0-0.7,0-1,0V114h0.2h0.2v0.3h0.8V114H102.4z
			 M102.9,111.7l-0.4,0.4H100h-2.4l-0.4-0.4h2.9H102.9z M106.9,115.5l0.2-0.8c0.2,0.1,0.4,0.1,0.6,0.2l0,0.1l0.8,0.2l0-0.2
			c0.1,0,0.2,0.1,0.4,0.1l0,0l-0.2,0.8l0,0l-0.3,1l-0.5-0.1l0.3-1.1C107.7,115.7,107.3,115.6,106.9,115.5z M110.6,115.8l-0.7,1.7
			l-0.5-0.2l0.4-1c-0.4-0.1-0.7-0.2-1.1-0.4l0.2-0.7c0.1,0,0.2,0,0.4,0.1l0,0.1l0.8,0.3l0-0.1C110.3,115.7,110.5,115.7,110.6,115.8z
			 M107.7,114.7c-0.2,0-0.4-0.1-0.6-0.2l0.2-0.9c0.2,0,0.4,0.1,0.6,0.2L107.7,114.7z M109.4,115.2c-0.2,0-0.4-0.1-0.6-0.2
			c-0.1,0-0.2-0.1-0.4-0.1l0.2-0.9c0.2,0,0.3,0.1,0.4,0.1c0.2,0.1,0.4,0.1,0.6,0.2L109.4,115.2z M111,114.8l-0.3,0.9
			c-0.2-0.1-0.3-0.1-0.4-0.2l0.2-0.9C110.6,114.7,110.8,114.8,111,114.8z M109.2,114.1L109.2,114.1c-0.2-0.1-0.3-0.1-0.4-0.2
			l0.1-0.2l-0.8-0.2l-0.1,0.3c-0.2,0-0.4-0.1-0.6-0.2l0.1-0.5c0.6,0.2,1.1,0.3,1.7,0.5c0,0,0.1,0,0.2,0L109.2,114.1z M111.2,114.2
			l-0.2,0.5c-0.2,0-0.3-0.1-0.5-0.2l0.1-0.2l-0.8-0.3l0,0.2c-0.2,0-0.2,0-0.4-0.1l0.2-0.5C110.1,113.8,110.6,114,111.2,114.2z
			 M111.8,113.6l-0.5,0.4c-0.7-0.2-1.3-0.4-2-0.7c-0.6-0.2-1.1-0.3-1.7-0.5l-0.2-0.7c0.7,0.2,1.4,0.4,2.1,0.6
			C110.3,113.1,111,113.4,111.8,113.6z M112.3,112.3c-0.1,0.4-0.3,0.8-0.4,1.2c-0.7-0.3-1.5-0.6-2.3-0.8c-0.7-0.2-1.5-0.4-2.2-0.6
			c0.1-0.4,0.2-0.8,0.4-1.2c0.3,0.1,0.7,0.2,1,0.2l-0.2,0.8l0.6,0.2l0.3-0.9c0.4,0.1,0.8,0.2,1.2,0.4l-0.2,0.9l0.6,0.2l0.3-0.8
			C111.6,112.1,111.9,112.2,112.3,112.3z M98.7,112.9h-0.6v1.3h0.6V112.9z M90.1,114.2l-0.5,0.2l0.3,1.2l0.6-0.2L90.1,114.2z
			 M91.9,113.6l-0.5,0.2l0.3,1.2l0.5-0.2L91.9,113.6z M98.8,113H99h0.1h0.1v-0.9h-1.6v0.9H98v-0.3h0.8V113z M99,113.2h-0.2v0.7H99
			h0.1h0.4h0.1v-0.7h-0.1h-0.4H99z M98,113.2h-0.4v0.7H98V113.2z M90,119C90,119,90,119.1,90,119c0.1,0.3,0.2,0.5,0.3,0.7
			c0.4-0.2,0.9-0.3,1.4-0.5l-0.2-0.7C91,118.7,90.5,118.9,90,119z M91.6,118.5l0.2,0.7c0.5-0.2,1.1-0.3,1.6-0.4l-0.1-0.7
			C92.7,118.2,92.1,118.3,91.6,118.5z M93.4,118.1l0.2,0.7c0.4-0.1,0.9-0.2,1.3-0.2c0.2,0,0.4-0.1,0.6-0.1l-0.1-0.8
			C94.7,117.8,94,117.9,93.4,118.1z M95.5,117.7l0.1,0.7c0.5-0.1,1-0.1,1.4-0.2l0-0.8C96.4,117.5,96,117.6,95.5,117.7z M97.1,117.5
			l0,0.7c0.2,0,0.5,0,0.8,0c0.1-0.3,0.2-0.6,0.4-0.8C97.9,117.4,97.5,117.4,97.1,117.5z M90.9,119.7c-0.2,0-0.4,0.1-0.6,0.2
			c0.1,0.2,0.1,0.4,0.2,0.7c0.2-0.1,0.4-0.2,0.6-0.2L90.9,119.7z M92.6,119.1c-0.5,0.2-1.1,0.3-1.6,0.5l0.2,0.7
			c0.5-0.2,1-0.3,1.5-0.4L92.6,119.1z M94.4,118.7c-0.6,0.1-1.1,0.2-1.7,0.4l0.2,0.7c0.5-0.1,1.1-0.2,1.6-0.3L94.4,118.7z
			 M96.2,118.4c-0.4,0-0.9,0.1-1.3,0.2c-0.1,0-0.2,0-0.4,0.1l0.2,0.8c0.1,0,0.2,0,0.3,0c0.4-0.1,0.9-0.1,1.3-0.2L96.2,118.4z
			 M97.9,118.3c-0.5,0-1,0.1-1.5,0.2l0.1,0.9c0.5,0,0.9-0.1,1.4-0.1v-0.5C97.8,118.5,97.8,118.4,97.9,118.3z M92,120.2
			c-0.5,0.1-1,0.3-1.5,0.4c0.1,0.2,0.2,0.5,0.2,0.7c0.5-0.1,1-0.2,1.5-0.4L92,120.2z M93.6,119.9c-0.5,0.1-1,0.2-1.5,0.3l0.2,0.8
			c0.5-0.1,1-0.2,1.4-0.3L93.6,119.9z M95.5,119.5c-0.2,0-0.4,0-0.5,0.1c-0.4,0-0.9,0.1-1.3,0.2l0.2,0.8c0.6-0.1,1.1-0.2,1.7-0.3
			L95.5,119.5z M97.1,119.4c-0.4,0-0.9,0.1-1.4,0.1l0.1,0.8c0.4,0,0.9-0.1,1.3-0.1L97.1,119.4z M97.8,119.3c-0.2,0-0.4,0-0.7,0
			l0.1,0.8c0.2,0,0.4,0,0.6,0V119.3z M97.6,114v0.9v1h0l0.6,0v-1.1c0.3,0,0.7,0,1,0V114H99h-0.2v0.3H98V114H97.6z M93.1,115.5
			l-0.2-0.8c-0.2,0.1-0.4,0.1-0.6,0.2l0,0.1l-0.8,0.2l0-0.2c-0.2,0-0.3,0.1-0.4,0.1l0,0l0.3,0.8l0,0l0.3,1l0.5-0.1l-0.3-1.1
			C92.3,115.7,92.7,115.6,93.1,115.5z M89.4,115.8l0.6,1.7l0.5-0.2l-0.3-1c0.4-0.1,0.7-0.2,1.1-0.4l-0.3-0.7c-0.1,0-0.2,0-0.3,0.1
			l0,0.1l-0.8,0.3l0-0.1C89.7,115.7,89.5,115.7,89.4,115.8z M92.3,114.7c0.2,0,0.4-0.1,0.6-0.2l-0.2-0.9c-0.2,0-0.4,0.1-0.6,0.2
			L92.3,114.7z M90.6,115.2c0.2,0,0.4-0.1,0.5-0.2c0.1,0,0.3-0.1,0.4-0.1l-0.2-0.9c-0.1,0-0.3,0.1-0.4,0.1c-0.2,0.1-0.4,0.1-0.5,0.2
			L90.6,115.2z M89,114.8l0.3,0.9c0.2-0.1,0.3-0.1,0.4-0.2l-0.2-0.9C89.4,114.7,89.2,114.8,89,114.8z M90.8,114.1L90.8,114.1
			c0.2-0.1,0.3-0.1,0.4-0.2l0-0.2l0.8-0.2l0.1,0.3c0.2,0,0.4-0.1,0.6-0.2l-0.1-0.5c-0.6,0.2-1.1,0.3-1.7,0.5c0,0-0.1,0-0.1,0
			L90.8,114.1z M88.8,114.2l0.2,0.5c0.2,0,0.3-0.1,0.5-0.2l-0.1-0.2l0.8-0.3l0.1,0.2c0.1,0,0.2,0,0.3-0.1l-0.2-0.5
			C89.9,113.8,89.4,114,88.8,114.2z M88.2,113.6l0.5,0.4c0.7-0.2,1.3-0.4,2-0.7c0.6-0.2,1.1-0.3,1.7-0.5l0.2-0.7
			c-0.7,0.2-1.4,0.4-2.2,0.6C89.7,113.1,89,113.4,88.2,113.6z M87.7,112.3c0.1,0.4,0.2,0.8,0.4,1.2c0.8-0.3,1.5-0.6,2.3-0.8
			c0.7-0.2,1.5-0.4,2.2-0.6c-0.1-0.4-0.2-0.8-0.4-1.2c-0.3,0.1-0.7,0.2-1,0.2l0.3,0.8l-0.7,0.2l-0.3-0.9c-0.4,0.1-0.8,0.2-1.2,0.4
			l0.3,0.9l-0.7,0.2l-0.3-0.8C88.4,112.1,88.1,112.2,87.7,112.3z"/>
	</g>
	<path class="st0" d="M59.6,95.4v-10h2v4.4l4.1-4.4h2.7l-3.8,3.9l4,6.1H66l-2.8-4.7l-1.6,1.7v3H59.6z M69.7,95.4v-1.9h1.9v1.9H69.7z
		 M73.6,95.4v-10h6.9v1.7h-4.9v2.4h4.2v1.7h-4.2v4.3H73.6z M80.6,95.4v-1.9h1.9v1.9H80.6z M90.7,95.4v-8.3h-3v-1.7h8v1.7h-3v8.3
		H90.7z M96.9,95.4v-10H99v10H96.9z M100.9,95.4v-10h4.3c1.1,0,1.8,0.1,2.3,0.2c0.5,0.2,0.9,0.5,1.2,1c0.3,0.5,0.4,1,0.4,1.6
		c0,0.8-0.2,1.4-0.7,1.9c-0.4,0.5-1.1,0.8-2,0.9c0.4,0.2,0.8,0.5,1.1,0.9c0.3,0.3,0.7,0.9,1.1,1.6l1.2,2h-2.4l-1.5-2.2
		c-0.5-0.8-0.9-1.3-1.1-1.5c-0.2-0.2-0.4-0.3-0.6-0.4c-0.2-0.1-0.6-0.1-1-0.1h-0.4v4.2H100.9z M102.9,89.7h1.5c1,0,1.6-0.1,1.8-0.2
		s0.4-0.2,0.6-0.4c0.2-0.2,0.2-0.4,0.2-0.8s-0.1-0.6-0.2-0.8c-0.2-0.2-0.4-0.3-0.8-0.4c-0.2,0-0.7,0-1.5,0h-1.6V89.7z M120.1,95.4
		h-2.2l-0.9-2.3H113l-0.8,2.3h-2.2l3.9-10h2.2L120.1,95.4z M116.4,91.4l-1.4-3.7l-1.3,3.7H116.4z M121.2,95.4v-10h2l4.1,6.7v-6.7
		h1.9v10h-2l-4.1-6.6v6.6H121.2z M140.5,95.4h-2.2l-0.9-2.3h-4l-0.8,2.3h-2.2l3.9-10h2.2L140.5,95.4z M136.7,91.4l-1.4-3.7l-1.4,3.7
		H136.7z"/>
	<path class="st0" d="M92.9,176.1v-0.6v-0.4v-0.5v-2.5l-0.9,0.4c-0.1,0-0.1,0-0.2,0c0,0-0.1,0-0.1,0c0,0,0-0.1,0-0.1
		c0-0.1,0-0.2,0-0.2s0-0.1,0-0.2c0,0,0-0.1,0-0.1c0,0,0,0,0,0c0,0,0,0,0.1-0.1l1.1-0.7c0,0,0,0,0.1,0c0,0,0,0,0.1,0c0,0,0.1,0,0.1,0
		s0.1,0,0.2,0c0.1,0,0.2,0,0.3,0c0,0,0.1,0,0.1,0c0,0,0.1,0,0.1,0c0,0,0,0,0,0.1v3.4v0.4v0.5v0.6v0.1v0c0,0,0,0-0.1,0
		c0,0-0.1,0-0.1,0c-0.2,0-0.4,0-0.7,0c-0.1,0-0.1,0-0.2,0c0,0,0,0,0,0c0,0,0,0,0,0V176.1z M99.5,173.5c0,0.2,0,0.4,0,0.7
		c0,0.2-0.1,0.4-0.1,0.7c-0.1,0.2-0.2,0.4-0.3,0.7c-0.1,0.2-0.2,0.4-0.4,0.5c-0.2,0.2-0.4,0.3-0.7,0.4s-0.6,0.1-0.9,0.1
		c-0.1,0-0.2,0-0.4,0c-0.1,0-0.2,0-0.3-0.1c-0.1,0-0.2,0-0.2-0.1c-0.1,0-0.1,0-0.2-0.1c0,0,0,0-0.1-0.1c0,0,0-0.1,0-0.2
		c0-0.1,0-0.2,0-0.2c0,0,0-0.1,0-0.1c0,0,0,0,0,0c0,0,0,0,0.1,0c0,0,0.1,0,0.1,0c0.1,0,0.1,0,0.2,0.1c0.1,0,0.2,0,0.3,0
		c0.1,0,0.2,0,0.4,0c0.2,0,0.4,0,0.6-0.1s0.3-0.2,0.4-0.3c0.1-0.2,0.2-0.3,0.2-0.5c0.1-0.2,0.1-0.4,0.1-0.6
		c-0.1,0.1-0.3,0.2-0.4,0.2c-0.2,0-0.4,0.1-0.7,0.1c-0.3,0-0.5,0-0.7-0.1c-0.2,0-0.4-0.2-0.5-0.3c-0.1-0.2-0.2-0.3-0.3-0.5
		c0-0.2-0.1-0.4-0.1-0.7c0-0.3,0-0.5,0.1-0.7c0.1-0.2,0.2-0.4,0.4-0.6c0.2-0.2,0.4-0.3,0.6-0.4c0.2-0.1,0.5-0.2,0.8-0.2
		c0.2,0,0.5,0,0.7,0.1c0.2,0.1,0.4,0.2,0.5,0.2c0.2,0.1,0.3,0.2,0.4,0.4c0.1,0.2,0.2,0.3,0.2,0.5c0,0.2,0.1,0.4,0.1,0.6
		C99.5,173.1,99.5,173.3,99.5,173.5z M98.4,173.4c0-0.3,0-0.5-0.1-0.7c0-0.2-0.1-0.4-0.1-0.5c-0.1-0.1-0.2-0.2-0.3-0.2
		c-0.1,0-0.2,0-0.3,0c-0.2,0-0.2,0-0.4,0c-0.1,0-0.2,0.1-0.2,0.2c0,0.1-0.1,0.2-0.1,0.3c0,0.1,0,0.2,0,0.4c0,0.1,0,0.2,0,0.4
		c0,0.1,0.1,0.2,0.1,0.3c0,0.1,0.1,0.1,0.2,0.2c0.1,0,0.2,0,0.4,0c0.2,0,0.3,0,0.4-0.1C98.2,173.5,98.3,173.5,98.4,173.4z
		 M103.8,175.9c0,0.1,0,0.2,0,0.2c0,0.1,0,0.1,0,0.2c0,0,0,0,0,0c0,0-0.1,0-0.1,0h-3.1c-0.1,0-0.1,0-0.2,0c0,0-0.1,0-0.1-0.1
		c0,0,0-0.1-0.1-0.1c0-0.1,0-0.2,0-0.2s0-0.2,0-0.2c0,0,0-0.1,0-0.2c0,0,0.1-0.1,0.1-0.1c0-0.1,0.1-0.1,0.1-0.2l0.9-1
		c0.2-0.2,0.4-0.4,0.4-0.5c0.1-0.2,0.2-0.3,0.3-0.4c0.1-0.1,0.1-0.2,0.1-0.3c0-0.1,0-0.2,0-0.3c0-0.1,0-0.2,0-0.2s-0.1-0.2-0.1-0.2
		c0-0.1-0.1-0.1-0.2-0.2c-0.1,0-0.2,0-0.3,0c-0.2,0-0.3,0-0.4,0.1c-0.1,0-0.2,0.1-0.3,0.1c-0.1,0-0.2,0.1-0.2,0.1
		c-0.1,0-0.1,0.1-0.2,0.1c0,0,0,0,0,0c0,0,0,0,0-0.1c0,0,0-0.1,0-0.1c0-0.1,0-0.2,0-0.2s0-0.1,0-0.2c0,0,0-0.1,0-0.1c0,0,0,0,0-0.1
		c0,0,0,0,0.1-0.1c0,0,0.1-0.1,0.2-0.1c0.1,0,0.2-0.1,0.3-0.2c0.2,0,0.3-0.1,0.4-0.1c0.2,0,0.4-0.1,0.5-0.1c0.3,0,0.5,0,0.7,0.1
		c0.2,0.1,0.4,0.2,0.5,0.3c0.2,0.1,0.3,0.3,0.3,0.4c0.1,0.2,0.1,0.3,0.1,0.5c0,0.2,0,0.4,0,0.5c0,0.2-0.1,0.3-0.2,0.5
		c-0.1,0.2-0.2,0.4-0.4,0.6c-0.2,0.2-0.4,0.5-0.8,0.8l-0.6,0.7h2.1c0,0,0.1,0,0.1,0c0,0,0,0,0.1,0.1c0,0,0,0.1,0,0.1
		C103.8,175.8,103.8,175.9,103.8,175.9z M108.3,173.7c0,0.4,0,0.8-0.1,1.1c-0.1,0.3-0.2,0.6-0.4,0.9c-0.2,0.2-0.4,0.4-0.6,0.6
		c-0.2,0.1-0.6,0.2-0.9,0.2c-0.4,0-0.7,0-0.9-0.2c-0.2-0.1-0.4-0.3-0.6-0.5c-0.2-0.2-0.2-0.5-0.3-0.9c-0.1-0.3-0.1-0.7-0.1-1.1
		s0-0.8,0.1-1.1c0.1-0.4,0.2-0.7,0.4-0.9c0.2-0.2,0.4-0.4,0.6-0.6c0.2-0.1,0.6-0.2,0.9-0.2s0.7,0.1,0.9,0.2c0.2,0.1,0.4,0.3,0.6,0.5
		s0.2,0.5,0.3,0.9C108.3,172.9,108.3,173.3,108.3,173.7z M107.2,173.8c0-0.2,0-0.4,0-0.7c0-0.2,0-0.4-0.1-0.5c0-0.2-0.1-0.3-0.1-0.4
		s-0.1-0.2-0.2-0.2c0,0-0.1-0.1-0.2-0.1c-0.1,0-0.2,0-0.2,0c-0.2,0-0.3,0-0.4,0.1c-0.1,0.1-0.2,0.2-0.2,0.4c0,0.1-0.1,0.3-0.1,0.6
		c0,0.2,0,0.5,0,0.8c0,0.4,0,0.7,0,0.9s0.1,0.4,0.2,0.6c0,0.1,0.1,0.2,0.2,0.3c0.1,0.1,0.2,0.1,0.4,0.1s0.2,0,0.3,0
		c0.1,0,0.2-0.1,0.2-0.2c0,0,0.1-0.1,0.2-0.2c0-0.1,0.1-0.2,0.1-0.4c0-0.1,0-0.3,0.1-0.4C107.2,174.2,107.2,174,107.2,173.8z"/>
	<path class="st1" d="M78.3,0l4.8,10.3l11.3,1.4l-8.3,7.8l2.2,11.2l-10-5.5l-10,5.5l2.1-11.2l-8.3-7.8l11.3-1.4L78.3,0z M121.7,0
		l4.8,10.3l11.3,1.4l-8.3,7.8l2.2,11.2l-10-5.5l-10,5.5l2.1-11.2l-8.3-7.8l11.3-1.4L121.7,0z"/>
</g>
</svg>
