<?xml version="1.0" encoding="utf-8"?>
<!-- Generator: Adobe Illustrator 21.1.0, SVG Export Plug-In . SVG Version: 6.00 Build 0)  -->
<svg version="1.1" id="Layer_1" xmlns="http://www.w3.org/2000/svg" xmlns:xlink="http://www.w3.org/1999/xlink" x="0px" y="0px"
	 viewBox="0 0 200 200" style="enable-background:new 0 0 200 200;" xml:space="preserve">
<style type="text/css">
	.st0{fill:#00A859;}
	.st1{fill:#373435;}
	.st2{fill:#E23236;}
	.st3{fill:#FFD326;}
	.st4{fill:#FEFEFE;}
</style>
<g>
	<path class="st0" d="M92.3,175.1c-8.3-3.7-16.3-7.8-23.9-12.4c-2.1,0.2-5.4-0.9-6.8-0.4c-4.9,1.9-9.2,4.4-14.1,1.5
		c-2.6-1.5-5.7-5.1-6.7-8.5c-0.6-1.8-1-3.5-1.9-4.8c3.4-0.2,5.7,2.4,8.1,3.2c4.1,1.4,6.4,1,8.8,2.1c1.8,0.8,3.4,3.3,5.3,3.9
		c0.6,0.2,2.4,0.6,4.2,1c-5.5-3.6-11.1-7.9-16.1-12.7c-3.1-1.3-6.3-2.7-7.8-2.8c-2.6-0.3-4.5,1.5-6.7,1.3c-5.7-0.4-9.3-3.2-12.4-7.2
		c-1.9-2.5-4.4-6-6.1-8.7c4-0.4,8.9-0.2,13,1.2c3.6,1.2,6.5,3.8,7.9,5c1.9,1.6,3.6,4.4,5.4,6c0.9,0.7,2.4,1.7,3.9,2.5
		c-6.1-6.3-11.2-13.4-14.3-21.2c-0.8-2.2-1.6-4.4-2.3-6.6c-1.6-1.4-3.5-2.8-4.6-3.6c-2.5-1.8-4.7-4.4-6.2-7.2
		c-1.6-3-2.4-6.4-1.5-10.2c0.7-3,2-6.6,2.3-9.5c2.8,1.9,5,6.1,6.1,9.9c0.8,2.5,0.8,5.2,0.8,6.6c0.1,1.2-1.1,6.4-0.5,8.4
		c0.2,0.7,1.5,1.9,2.9,3.3c-0.2-0.8-0.3-1.6-0.5-2.4c-1.7-10.2-1.3-22.3,0.8-32.5c0.6-3.1,1.4-6.1,2.3-9.1c-0.8-1.5-1.8-2.9-2.5-3.8
		c-3.6-4.2-5.3-10-1.9-14.9c2.1-3.1,4.5-5.8,6.1-8.4c2.9,4.6,1.9,13.9,0.9,16.9c-0.4,1.1-2.4,4.6-2.3,6.4c0.1,0.5,0.2,1.1,0.5,1.9
		c2.9-9.2,7.2-18.3,12.4-26.8c-1.1-2-2.8-3.9-4.1-5.9c-1.8-2.5-2.5-5.8-2.4-8.2c0.2-2.7,1.1-5.8,3.3-8.4c2-2.3,4.2-4.5,5.2-6.2
		c3.1,4.1,3.1,13.5,0.4,18.9c-0.6,1.1-2,2.4-2.4,4.5c-0.2,1-0.5,2.1,0.8,4c2.7-4.4,5.3-8.3,8.4-12.3c1.6-2.1,3.2-4.1,4.9-6.1
		c-0.4-1-0.8-1.8-1.2-2.6c-2-3.5-3.7-6.6-2.4-10.6c0.6-1.6,1.6-3.1,3.3-4.8c1.4-1.3,4.1-3.2,5.3-4.4c1.4,1.6,2.1,3.9,1.9,6.2
		c-0.3,3.4-2,7.9-4.5,10.4c-0.7,0.7-1.5,1.6-1.8,2.7c-0.2,0.6,0,1.4,0.2,2.2C66.3,13.2,73.5,6.2,81,0.2l2.4-0.4
		c-8.5,8.4-17.3,17.4-25.2,27.7c1-0.3,1.9-0.6,2.7-1c1.8-0.8,3-3.1,4.2-4.6c1.6-2,3.7-4.1,6.1-5.7c2.8-1.9,6-2.9,8.7-2
		c-0.7,0.7-0.9,1.9-1.1,2.7c-0.3,1.4-0.7,2.5-1.2,3.5c-1,2-2.9,4.5-5.1,6.1c-2.5,1.9-5,1.8-7.5,1.6c-1.5-0.1-2.9-0.2-4.4,0.1
		c-1,0.2-2.3,0.5-3.4,0.6c-1.7,2.3-3.4,4.6-5,7.1c-4.9,7.4-9.6,16.2-13.3,25c1.1-0.8,2-1.5,2.4-1.8c0.7-0.6,1.5-2.5,2.1-3.7
		c1.1-2.1,1.8-3.8,3.3-5.7c1.9-2.3,3.5-3.6,6.2-4.8c1.4-0.6,2.4-1.2,3.7-3.3c0.9,1.4,1.2,3.1,1.2,5.1c-0.2,2.5-1.1,5.2-2.9,7.3
		c-3.4,4-6.2,4.9-11.1,6.3c-0.8,0.2-2.4,0.8-4.1,1.6c-0.5,0.3-1,0.6-1.5,0.8c-1.2,3-2.3,5.9-3.2,8.8c-2.7,9-4.1,19.4-3.7,29.6
		c0.7-1,1.5-2,1.7-2.7c0.3-1.1,0.5-3.6,0.3-5.3c-0.2-1.5-0.2-5.7,0.5-7.7c0.4-1.2,1.4-2.5,2.8-4.8c1.4-2,2.6-3.7,2.5-5.1
		c2,2.5,3.2,6.2,3.6,9.5c0.3,2.9-0.5,6.1-1.5,7.5c-1.5,2.1-5.5,6.8-9.7,9.8c0.5,7,1.9,13.9,4.4,20c0.7,1.8,1.6,3.5,2.5,5.3
		c0.2-1,0.4-1.9,0.7-2.8c0.2-0.6-0.4-3.6-0.6-4.2c-0.5-2.6-1.6-5.9-1.7-8.4c-0.1-1.8,0.2-4.8,1-6.9c0.8-2.2,2.1-4.2,3.5-5.3
		c0.8,1.5,2,4.4,2.8,6.2c2.1,5,2.5,9.5,1.6,12.3c-0.5,1.5-1.1,3.2-2.1,4.4c-0.7,0.8-1.5,1-2.5,2.4c-0.5,0.7-1.2,2.6-1.4,4.6
		c2.5,4.3,5.7,8.3,9.2,11.9c0-0.8-0.1-1.5-0.4-2c-1.5-2.8-2.1-6.5-2.4-11.3c-0.3-4.5,1.1-9.5,3.8-11.1c0.4,1.3,1.4,3.5,2.1,4.5
		c0.9,1.5,1.8,2.9,2.2,4.2c1.9,5.8-0.3,9.7-3.6,12.8c-0.4,0.4-0.3,2.5-0.1,4.5c0.2,0.2,0.3,0.3,0.5,0.4c5.2,4.9,11.1,8.6,16.8,12.2
		c3.2,2,6.6,3.9,10,5.7c-0.4-1-0.7-1.9-1.1-2.4c-1.1-1.4-2.7-1.7-4.3-2.5c-3-1.5-5.4-4.3-6.7-7.3c-0.9-2.1-1.1-4.4-0.6-6.3
		c2.8,1.5,5.3,2.3,7.3,3.6c2.8,1.7,5.8,4.8,6.3,8c0.5,3.1,0.7,5.8,1,7.9c6.6,3.3,13.3,6.3,20.3,9.4c7.3,3.3,32.1,12.1,34.9,17.1
		c0.9,1.6-1.1,10.2-1.4,10.5c-1,0.2-2.5-0.2-3-1c-7.4-11.4-21-16.6-38.1-24.4L92.3,175.1z"/>
	<polygon class="st1" points="45.6,77.1 48.6,77.1 151.4,77.1 154.4,77.1 152.4,79.3 101,138.2 100,139.4 99,138.2 47.6,79.3 	"/>
	<polygon class="st2" points="71.5,78.4 60,78.4 60,91.5 71.5,104.6 	"/>
	<polygon class="st2" points="94.3,78.4 82.9,78.4 82.9,117.7 94.3,130.8 	"/>
	<polygon class="st2" points="128.6,104.6 140,91.5 140,78.4 128.6,78.4 	"/>
	<polygon class="st2" points="105.7,130.8 117.1,117.7 117.1,78.4 105.7,78.4 	"/>
	<polygon class="st3" points="60,78.4 48.6,78.4 60,91.5 	"/>
	<polygon class="st3" points="82.9,78.4 71.5,78.4 71.5,104.6 82.9,117.7 	"/>
	<polygon class="st3" points="140,91.5 151.4,78.4 140,78.4 	"/>
	<polygon class="st3" points="117.1,117.7 128.6,104.6 128.6,78.4 117.1,78.4 	"/>
	<polygon class="st3" points="100,137.4 105.7,130.8 105.7,78.4 94.3,78.4 94.3,130.8 	"/>
	<path class="st1" d="M125.8,45c0,14.2-11.6,25.8-25.8,25.8S74.3,59.2,74.3,45S85.9,19.2,100,19.2C114.2,19.2,125.8,30.8,125.8,45z"
		/>
	<path class="st4" d="M79,49.8c0.8,0.8,1.9,1.9,3.2,2.8c1,0.7,2.1,1.4,3.2,1.9c1.8-1.3,4-3,5.5-4.7v-9.6c-1.5-1.7-3.7-3.4-5.5-4.7
		c-1,0.5-2.1,1.1-3.1,1.8c-1.4,1-2.5,2-3.3,2.8C78.2,43.5,78.2,46.4,79,49.8L79,49.8z"/>
	<path class="st4" d="M117.3,36.9c-2.3,1.1-4.1,1.9-6.6,2.8c-1.2-0.8-2.9-1.8-4.6-2.8c-1.8-1-3.6-2-5-2.8v-6.8c2-1.1,4.4-2.1,6-2.8
		c0.2-0.1,0.4-0.2,0.6-0.3c2.9,1.1,5.6,3.1,9,5.1c0.1,0.9,0.2,2,0.3,3.2c0.1,1.5,0.2,3,0.3,4.5L117.3,36.9z"/>
	<path class="st4" d="M110,49.5v-9.1c-1.2-0.8-2.8-1.8-4.5-2.7c-1.8-1-3.6-2-5-2.8c-2.9,1.4-6.3,3.5-8.6,5.4v9.3
		c2.3,1.9,5.7,4,8.6,5.4c1.4-0.7,3.2-1.8,5-2.8C107.1,51.3,108.7,50.4,110,49.5L110,49.5z"/>
	<path class="st4" d="M117.3,53.1c-0.1,1.5-0.2,3-0.3,4.5c-0.1,1.2-0.2,2.3-0.3,3.2c-3.4,2-6.1,4-9,5.1c-0.2-0.1-0.4-0.2-0.6-0.3
		c-1.6-0.7-4-1.8-6-2.8v-6.8c1.4-0.7,3.2-1.8,5-2.8c1.7-1,3.3-2,4.6-2.8c2.5,0.9,4.4,1.6,6.6,2.8L117.3,53.1z"/>
	<path class="st4" d="M119.1,60.7c3.2-3.9,5.3-8.8,5.6-14.2c-0.3-0.3-0.5-0.7-0.7-1h-1.3c-1.8,3.1-3.1,5.1-4.4,7.5
		c-0.1,1.5-0.2,3.2-0.3,4.6c-0.1,1.1-0.2,2.1-0.3,2.9C118,60.6,118.5,60.6,119.1,60.7L119.1,60.7z"/>
	<path class="st4" d="M89.6,67.4c3.1,1.5,6.7,2.3,10.4,2.3c1.9,0,3.8-0.2,5.5-0.6c0.5-0.9,0.8-1.8,1.2-2.5c-0.1-0.1-0.1-0.1-0.2-0.1
		c-1.8-0.7-4.2-1.9-6.3-3.1c-3,0.3-7.5,0.3-10,0.1L89,65.3C89.1,66.1,89.4,66.7,89.6,67.4L89.6,67.4z"/>
	<path class="st4" d="M76.5,52.7c1.6,5,4.9,9.3,9.1,12.3c0.9-0.1,1.8-0.1,2.5-0.2l1.3-1.9c-1.5-2.1-3.1-5-4.2-7.5
		c-1.2-0.6-2.5-1.3-3.6-2.1c-1.2-0.8-2.2-1.8-3-2.5C77.9,51.3,77.1,52,76.5,52.7L76.5,52.7z"/>
	<path class="st4" d="M85.6,24.9c-4.2,3.1-7.4,7.4-9.1,12.3c0.7,0.7,1.4,1.4,2.1,1.8c0.8-0.8,1.9-1.7,3.1-2.5c1.1-0.8,2.3-1.5,3.5-2
		c1.1-2.4,2.7-5.4,4.2-7.5l-1.3-1.9C87.3,25,86.5,25,85.6,24.9z"/>
	<path class="st4" d="M105.5,20.9c-1.8-0.5-3.7-0.7-5.5-0.7c-3.7,0-7.3,0.8-10.4,2.3c-0.2,0.7-0.5,1.4-0.6,2.1l1.3,1.8
		c2.5-0.3,7-0.2,10,0.1c2.1-1.2,4.6-2.3,6.3-3.1c0.1-0.1,0.1-0.1,0.2-0.1C106.4,22.7,106,21.8,105.5,20.9z"/>
	<path class="st4" d="M124.7,43.5c-0.3-5.4-2.4-10.2-5.6-14.2c-0.6,0-1.1,0.1-1.5,0.1c0.1,0.9,0.2,1.9,0.3,2.9
		c0.1,1.5,0.2,3.1,0.3,4.7c1.3,2.4,2.7,4.4,4.4,7.5h1.3C124.3,44.2,124.6,43.8,124.7,43.5L124.7,43.5z"/>
	<path class="st4" d="M58.1,17.6c-0.3-3,0.1-6.3,1.2-8.2c1.2-1.9,2.9-3.8,4-6.2C63,6,61.9,8.3,60.6,10.4
		C59.3,12.4,58.4,15.2,58.1,17.6L58.1,17.6z"/>
	<path class="st4" d="M42.6,36.1c-1.2-4.1-0.9-7.5,0.2-10.1s3.2-5.1,3.9-9.2c0.5,3.1-1.2,7.3-2.2,9.7C43,29.6,42.1,31.9,42.6,36.1z"
		/>
	<path class="st4" d="M30.4,66.6c-1.1-2.3-1.3-7.4-0.8-10.7c0.5-3.4,2.5-5,3.5-9.3c0.3,4.3-1.3,7.2-2.1,10.7
		C30.5,59.5,29.9,63.7,30.4,66.6L30.4,66.6z"/>
	<path class="st4" d="M24.4,110.5c-2.4-4-3-8.3-2.9-11.1c0.1-2.8,0.2-5.4-0.5-9.3c1.5,2.6,2.1,6.7,2.1,9.7
		C23.2,102.7,23.2,106.6,24.4,110.5z"/>
	<path class="st4" d="M40.4,143.2c-6.2-1-9.2-2.3-11.4-4.4c-2.1-2.1-4.8-4-9.1-6.7c5.3,1.6,10.5,5.5,11.5,6.4
		C32.6,139.4,34.9,141.2,40.4,143.2L40.4,143.2z"/>
	<path class="st4" d="M60.2,161.2c-4.6,1-8.8,0.3-11.6-1.5c-2.8-1.8-3.8-4.7-7.3-7.4c2.8,1.2,4.8,3.7,6.8,5.4
		C51.6,160.6,55.4,160.7,60.2,161.2L60.2,161.2z"/>
	<path class="st4" d="M63.3,26.8c3.2-0.5,6.3-1.2,8.5-4.2c1.5-1.9,3.1-5,4.9-6.7c-2.9,1.6-5.3,4.9-6.7,6.5
		C68.3,24.4,66.8,25.5,63.3,26.8z"/>
	<path class="st4" d="M44.4,58.4c2.9-1,5.6-3.1,6.7-5c0.6-1,1.8-2.5,2.3-3.6c0.7-1.2,2.9-3.8,2.8-4.8c-0.8,1.5-2.1,2.4-3.2,3.6
		c-1.4,1.5-3.1,4-3.4,4.5C49.3,53.8,46.8,56.8,44.4,58.4L44.4,58.4z"/>
	<path class="st4" d="M40.2,123.9c1.4-2.8,1.9-8.1,1.5-10.3c-0.4-2.2-0.8-7.6-1-10.1c-0.7,2.3-0.9,7.4-0.6,9.9
		C40.5,116.7,40.8,120.4,40.2,123.9z"/>
	<path class="st4" d="M49.4,139.5c1-3.8,1.1-6.8,0.9-9.4c-0.2-2.8-0.6-5.3-0.8-9.1c-1.1,3.6-0.4,8.1-0.3,10.2
		C49.2,133.2,49.3,135.4,49.4,139.5z"/>
	<path class="st4" d="M77.6,159.5c-1.4-4.6-3.2-5.8-5.6-7.9c-2.3-2-3.6-2.7-5.8-5.2c1.5,3.8,5.6,6.7,6.2,7.4
		C73.1,154.4,75.4,155.8,77.6,159.5z"/>
	<path class="st4" d="M115,184.9c1.7,0.4,3.6,1.4,5.3,2.4c0.5,0.3,2,0.5,2.4,0.7c1.2,0.8,1.6,1.1,2.2,1.1c2,0.1,2.7,1.9,4.6,0
		c1.4-1.4-2.3-3.2-3.1-3.8c1.8,0.6,4.1,1.6,5.3,2.9c0.9,1,1.4,2.1,1,4.5c-0.5,2.5-0.3,7.4-1.8,5.3c-2.8-4-4.9-6-9.2-9.2
		C120.5,187.9,114.9,184.9,115,184.9L115,184.9z"/>
	<path class="st4" d="M34.2,98.3c1.7-1.7,2.9-3.9,3.6-5.9c1-2.7,1-5.7,1.5-8.5c0.3-1.7,0.7-3.9,0.2-4.9c-0.1,1.8-0.8,4-1.4,5.7
		c-0.8,2.7-1,5.5-1.8,8.3C35.8,94.6,35.1,96.7,34.2,98.3z"/>
	<path class="st0" d="M107.8,175.1c8.3-3.7,16.4-7.8,23.9-12.4c2.1,0.2,5.4-0.9,6.8-0.4c4.9,1.9,9.2,4.4,14.1,1.5
		c2.6-1.5,5.7-5.1,6.7-8.5c0.6-1.8,1-3.5,1.9-4.8c-3.4-0.2-5.7,2.4-8.1,3.2c-4.1,1.4-6.4,1-8.8,2.1c-1.8,0.8-3.4,3.3-5.3,3.9
		c-0.6,0.2-2.4,0.6-4.2,1c5.5-3.6,11.1-7.9,16.1-12.7c3.1-1.3,6.3-2.7,7.8-2.8c2.5-0.3,4.5,1.5,6.7,1.3c5.7-0.4,9.3-3.2,12.3-7.2
		c1.9-2.5,4.4-6,6.1-8.7c-4-0.4-8.9-0.2-13,1.2c-3.6,1.2-6.5,3.8-7.9,5c-1.9,1.6-3.6,4.4-5.4,6c-0.9,0.7-2.4,1.7-3.9,2.5
		c6.1-6.3,11.1-13.4,14.3-21.2c0.8-2.2,1.6-4.4,2.3-6.6c1.6-1.4,3.5-2.8,4.6-3.6c2.5-1.8,4.7-4.4,6.2-7.2c1.6-3,2.4-6.4,1.5-10.2
		c-0.7-3-2-6.6-2.3-9.5c-2.8,1.9-5,6.1-6.2,9.9c-0.7,2.5-0.8,5.2-0.8,6.6c-0.1,1.2,1,6.4,0.5,8.4c-0.2,0.7-1.6,1.9-2.9,3.3
		c0.2-0.8,0.3-1.6,0.5-2.4c1.7-10.2,1.3-22.3-0.8-32.5c-0.6-3.1-1.4-6.1-2.3-9.1c0.8-1.5,1.8-2.9,2.5-3.8c3.6-4.2,5.3-10,1.9-14.9
		c-2.1-3.1-4.5-5.8-6.1-8.4c-2.9,4.6-1.9,13.9-0.9,16.9c0.4,1.1,2.4,4.6,2.3,6.4c-0.1,0.5-0.2,1.1-0.5,1.9
		c-2.9-9.2-7.2-18.3-12.4-26.8c1.1-2,2.8-3.9,4.1-5.9c1.8-2.5,2.5-5.8,2.4-8.2c-0.2-2.7-1.1-5.8-3.3-8.4c-2-2.3-4.2-4.5-5.2-6.2
		c-3.1,4.1-3.1,13.5-0.4,18.9c0.6,1.1,2,2.4,2.4,4.5c0.2,1,0.5,2.1-0.8,4c-2.7-4.4-5.3-8.3-8.4-12.3c-1.6-2.1-3.2-4.1-4.9-6.1
		c0.4-1,0.8-1.8,1.2-2.6c2-3.5,3.7-6.6,2.4-10.6c-0.6-1.6-1.6-3.1-3.3-4.8c-1.4-1.3-4.1-3.2-5.3-4.4c-1.4,1.6-2.1,3.9-1.9,6.2
		c0.3,3.4,2,7.9,4.5,10.4c0.7,0.7,1.5,1.6,1.8,2.7c0.2,0.6,0,1.4-0.2,2.2c-6.8-8.1-13.9-15.2-21.4-21.2l-2.4-0.4
		c8.5,8.4,17.3,17.4,25.2,27.7c-1-0.3-2-0.6-2.7-1c-1.8-0.8-3-3.1-4.2-4.6c-1.6-2-3.7-4.1-6.1-5.7c-2.8-1.9-5.9-2.9-8.7-2
		c0.7,0.7,0.9,1.9,1.1,2.7c0.3,1.4,0.7,2.5,1.2,3.5c1,2,2.9,4.5,5.1,6.1c2.5,1.9,5,1.8,7.5,1.6c1.5-0.1,2.9-0.2,4.4,0.1
		c1,0.2,2.3,0.5,3.3,0.6c1.8,2.3,3.4,4.6,5,7.1c4.9,7.4,9.6,16.2,13.3,25c-1.1-0.8-2-1.5-2.4-1.8c-0.7-0.6-1.5-2.5-2.1-3.7
		c-1.1-2.1-1.8-3.8-3.3-5.7c-1.9-2.3-3.5-3.6-6.2-4.8c-1.4-0.6-2.4-1.2-3.7-3.3c-0.9,1.4-1.3,3.1-1.2,5.1c0.2,2.5,1.1,5.2,2.9,7.3
		c3.4,4,6.2,4.9,11.1,6.3c0.8,0.2,2.4,0.8,4.1,1.6c0.5,0.3,1,0.6,1.5,0.8c1.2,3,2.3,5.9,3.1,8.8c2.8,9,4.2,19.4,3.7,29.6
		c-0.7-1-1.5-2-1.7-2.7c-0.3-1.1-0.5-3.6-0.3-5.3c0.2-1.5,0.2-5.7-0.5-7.7c-0.4-1.2-1.4-2.5-2.8-4.8c-1.4-2-2.6-3.7-2.5-5.1
		c-2,2.5-3.2,6.2-3.6,9.5c-0.3,2.9,0.6,6.1,1.6,7.5c1.5,2.1,5.5,6.8,9.7,9.8c-0.5,7-1.9,13.9-4.4,20c-0.7,1.8-1.6,3.5-2.5,5.3
		c-0.2-1-0.4-1.9-0.7-2.8c-0.2-0.6,0.4-3.6,0.6-4.2c0.5-2.6,1.6-5.9,1.7-8.4c0.1-1.8-0.2-4.8-1-6.9c-0.8-2.2-2.1-4.2-3.5-5.3
		c-0.8,1.5-2,4.4-2.8,6.2c-2.1,5-2.5,9.5-1.6,12.3c0.5,1.5,1.1,3.2,2.1,4.4c0.7,0.8,1.5,1,2.5,2.4c0.5,0.7,1.2,2.6,1.4,4.6
		c-2.5,4.3-5.7,8.3-9.2,11.9c0-0.8,0.1-1.5,0.3-2c1.5-2.8,2.1-6.5,2.4-11.3c0.3-4.5-1.1-9.5-3.8-11.1c-0.4,1.3-1.4,3.5-2.1,4.5
		c-0.9,1.5-1.8,2.9-2.2,4.2c-1.9,5.8,0.3,9.7,3.6,12.8c0.4,0.4,0.3,2.5,0.1,4.5c-0.2,0.2-0.3,0.3-0.5,0.4
		c-5.2,4.9-11.1,8.6-16.8,12.2c-3.2,2-6.6,3.9-10,5.7c0.4-1,0.7-1.9,1.1-2.4c1.1-1.4,2.7-1.7,4.4-2.5c3-1.5,5.4-4.3,6.7-7.3
		c0.8-2.1,1.1-4.4,0.6-6.3c-2.8,1.5-5.3,2.3-7.3,3.6c-2.8,1.7-5.8,4.8-6.3,8c-0.5,3.1-0.7,5.8-1,7.9c-6.6,3.3-13.4,6.3-20.3,9.4
		c-7.3,3.3-32.1,12.1-34.9,17.1c-0.9,1.6,1.1,10.2,1.4,10.5c1,0.2,2.5-0.2,3-1c7.4-11.4,21-16.6,38.1-24.4L107.8,175.1z"/>
	<path class="st4" d="M142,17.6c0.3-3-0.1-6.3-1.2-8.2c-1.2-1.9-2.9-3.8-4-6.2c0.3,2.7,1.4,5.1,2.7,7.1
		C140.8,12.4,141.7,15.2,142,17.6z"/>
	<path class="st4" d="M157.5,36.1c1.2-4.1,0.9-7.5-0.2-10.1c-1.1-2.6-3.2-5.1-3.9-9.2c-0.5,3.1,1.2,7.3,2.2,9.7
		C157,29.6,157.9,31.9,157.5,36.1z"/>
	<path class="st4" d="M169.7,66.6c1.1-2.3,1.3-7.4,0.8-10.7s-2.5-5-3.6-9.3c-0.3,4.3,1.3,7.2,2.1,10.7
		C169.5,59.5,170.1,63.7,169.7,66.6z"/>
	<path class="st4" d="M175.6,110.5c2.4-4,3-8.3,2.9-11.1c-0.1-2.8-0.2-5.4,0.5-9.3c-1.5,2.6-2.1,6.7-2.1,9.7
		C176.8,102.7,176.9,106.6,175.6,110.5z"/>
	<path class="st4" d="M159.6,143.2c6.3-1,9.2-2.3,11.4-4.4c2.1-2.1,4.8-4,9.1-6.7c-5.3,1.6-10.5,5.5-11.6,6.4
		C167.4,139.4,165.1,141.2,159.6,143.2L159.6,143.2z"/>
	<path class="st4" d="M139.8,161.2c4.6,1,8.8,0.3,11.6-1.5c2.8-1.8,3.8-4.7,7.3-7.4c-2.8,1.2-4.8,3.7-6.8,5.4
		C148.5,160.6,144.7,160.7,139.8,161.2L139.8,161.2z"/>
	<path class="st4" d="M136.7,26.8c-3.2-0.5-6.3-1.2-8.5-4.2c-1.5-1.9-3.1-5-4.9-6.7c2.9,1.6,5.3,4.9,6.7,6.5
		C131.7,24.4,133.3,25.5,136.7,26.8z"/>
	<path class="st4" d="M155.6,58.4c-2.9-1-5.6-3.1-6.7-5c-0.6-1-1.8-2.5-2.3-3.6c-0.7-1.2-2.9-3.8-2.8-4.8c0.8,1.5,2.1,2.4,3.2,3.6
		c1.4,1.5,3.1,4,3.4,4.5C150.7,53.8,153.2,56.8,155.6,58.4L155.6,58.4z"/>
	<path class="st4" d="M159.9,123.9c-1.4-2.8-1.9-8.1-1.5-10.3c0.4-2.2,0.8-7.6,1-10.1c0.7,2.3,0.9,7.4,0.6,9.9
		C159.5,116.7,159.2,120.4,159.9,123.9L159.9,123.9z"/>
	<path class="st4" d="M150.7,139.5c-1-3.8-1.1-6.8-0.9-9.4c0.2-2.8,0.6-5.3,0.8-9.1c1,3.6,0.4,8.1,0.3,10.2
		C150.9,133.2,150.7,135.4,150.7,139.5z"/>
	<path class="st4" d="M122.4,159.5c1.4-4.6,3.2-5.8,5.6-7.9c2.3-2,3.6-2.7,5.8-5.2c-1.5,3.8-5.6,6.7-6.2,7.4
		C126.9,154.4,124.6,155.8,122.4,159.5z"/>
	<path class="st4" d="M85,184.9c-1.7,0.4-3.6,1.4-5.3,2.4c-0.5,0.3-2,0.5-2.4,0.7c-1.2,0.8-1.6,1.1-2.2,1.1c-2,0.1-2.7,1.9-4.6,0
		c-1.4-1.4,2.3-3.2,3.1-3.8c-1.9,0.6-4.1,1.6-5.3,2.9c-0.9,1-1.4,2.1-1,4.5c0.5,2.5,0.3,7.4,1.8,5.3c2.8-4,4.9-6,9.2-9.2
		C79.5,187.9,85.2,184.9,85,184.9L85,184.9z"/>
	<polygon class="st1" points="138.1,120.2 131.1,108.1 133.5,105.4 146.4,110.7 144.1,113.3 141.6,112.2 138.9,115.3 140.3,117.6 	
		"/>
	<path class="st4" d="M165.8,98.3c-1.7-1.7-2.9-3.9-3.6-5.9c-1-2.7-1-5.7-1.5-8.5c-0.3-1.7-0.7-3.9-0.2-4.9c0.1,1.8,0.8,4,1.4,5.7
		c0.8,2.7,1,5.5,1.8,8.3C164.2,94.6,164.9,96.7,165.8,98.3z"/>
	<polygon class="st4" points="139.3,111.1 135.1,109.3 137.5,113.2 	"/>
	<polygon class="st1" points="137.6,120.8 133,126.2 131.2,124.6 132.5,123.2 126,117.5 124.7,119 123,117.5 127.7,112.1 
		129.4,113.6 128.2,115.1 134.7,120.7 135.9,119.3 	"/>
	<polygon class="st1" points="132.3,126.9 126.5,133.6 116.5,124.9 118.7,122.5 126.8,129.5 130.4,125.3 	"/>
	<path class="st1" d="M121.4,139.9c-1.2,1.4-2.4,2.1-3.7,2.3c-1.3,0.2-2.5-0.3-3.8-1.4l-6.3-5.5l2.1-2.5l6.2,5.4
		c0.7,0.6,1.4,0.9,1.9,1c0.6,0.1,1.1-0.2,1.6-0.8c0.5-0.6,0.7-1.1,0.6-1.7c-0.1-0.6-0.5-1.1-1.2-1.8l-6.2-5.4l2.1-2.5l6.4,5.5
		c1.2,1.1,1.9,2.3,1.9,3.5C123.1,137.2,122.5,138.5,121.4,139.9L121.4,139.9z"/>
	<path class="st1" d="M113.1,143.2c0.5,0.4,0.8,0.8,1,1.3c0.3,0.5,0.4,1,0.4,1.5c0,0.6-0.1,1.2-0.4,1.8c-0.2,0.6-0.6,1.2-1.1,1.8
		c-0.4,0.5-0.8,0.8-1.1,1.2c-0.4,0.3-0.7,0.7-1,0.9l-2-1.8l0.2-0.2c0.3-0.2,0.5-0.3,0.8-0.5c0.3-0.2,0.6-0.4,0.8-0.7
		c0.4-0.5,0.6-0.8,0.7-1.2c0.1-0.4,0.1-0.7-0.1-1c-0.2-0.3-0.3-0.6-0.6-0.8s-0.6-0.6-1-0.8l-4-3.5l-2,2.3l-1.8-1.6l4.2-4.8
		L113.1,143.2L113.1,143.2z"/>
	<path class="st1" d="M84.6,146.5c-0.8-1-1.2-1.8-1.2-2.6c0.1-0.8,0.5-1.6,1.4-2.3l3.5-3.1l-0.8-0.9l1.6-1.4l0.8,0.9l2.1-1.9l2,2.3
		l-2.1,1.9l2,2.3l-1.6,1.4l-1.9-2.3l-2.7,2.3c-0.3,0.2-0.5,0.5-0.7,0.6c-0.2,0.2-0.3,0.3-0.5,0.6c-0.1,0.2-0.1,0.4-0.1,0.6
		c0.1,0.3,0.2,0.5,0.5,0.8c0.1,0.1,0.3,0.3,0.5,0.5c0.3,0.2,0.5,0.3,0.6,0.3l0.2,0.2l-1.6,1.5c-0.3-0.2-0.6-0.5-0.9-0.7
		C85.2,147.3,84.9,147,84.6,146.5L84.6,146.5z"/>
	<path class="st1" d="M77.4,138.2c-0.7-0.8-1.2-1.5-1.5-2.2c-0.3-0.7-0.6-1.4-0.8-2.1l2.4-2l0.2,0.2c0,0.9,0.2,1.7,0.5,2.5
		c0.3,0.8,0.7,1.5,1.2,2c0.2,0.2,0.3,0.3,0.6,0.5c0.2,0.2,0.5,0.4,0.7,0.5c0.2,0.1,0.5,0.2,0.7,0.2c0.3,0,0.5-0.1,0.7-0.3
		c0.2-0.2,0.4-0.5,0.3-0.8c0-0.3-0.1-0.7-0.3-1c-0.2-0.4-0.5-0.8-0.7-1.3c-0.3-0.5-0.5-0.9-0.6-1.4c-0.4-1-0.5-1.9-0.3-2.6
		c0.2-0.7,0.6-1.4,1.3-2c1-0.8,2-1.1,3.3-0.8c1.3,0.3,2.4,1,3.5,2.2c0.5,0.6,1,1.2,1.4,1.9c0.4,0.7,0.7,1.4,0.9,2l-2.3,2l-0.2-0.2
		c0-0.7-0.1-1.4-0.4-2c-0.3-0.7-0.6-1.4-1.1-1.9c-0.2-0.2-0.4-0.4-0.6-0.6c-0.2-0.2-0.4-0.3-0.7-0.4c-0.2-0.1-0.5-0.2-0.7-0.1
		c-0.2,0-0.5,0.1-0.6,0.2c-0.3,0.2-0.4,0.5-0.4,0.8c0.1,0.3,0.2,0.8,0.5,1.4c0.2,0.4,0.5,0.8,0.6,1.2c0.2,0.4,0.4,0.8,0.6,1.2
		c0.3,0.9,0.5,1.7,0.3,2.4c-0.2,0.7-0.6,1.4-1.2,1.9c-1,0.8-2.1,1.2-3.4,0.9C79.7,140.3,78.5,139.5,77.4,138.2L77.4,138.2z"/>
	<polygon class="st1" points="64,122.5 73.9,113.8 79.8,120.5 77.9,122.2 74.1,117.9 72.4,119.5 75.8,123.4 73.9,125 70.5,121.1 
		68,123.3 71.7,127.5 69.8,129.2 	"/>
	<path class="st1" d="M54.9,112.4c-1.1-1.4-1.7-2.7-1.7-4c0.1-1.3,0.7-2.5,1.9-3.6l6.3-5.5l2.2,2.5l-6.2,5.4
		c-0.7,0.6-1.1,1.2-1.2,1.8c-0.1,0.6,0.1,1.1,0.6,1.8c0.5,0.6,1,0.8,1.6,0.8s1.2-0.3,1.9-1l6.2-5.4l2.2,2.5l-6.3,5.5
		c-1.2,1.1-2.5,1.5-3.8,1.4C57.4,114.5,56.2,113.7,54.9,112.4L54.9,112.4z"/>
	<polygon class="st1" points="73.2,133.2 71.2,130.7 73.7,128.6 75.8,130.9 	"/>
	<polygon class="st1" points="62.4,120.5 60.3,118.1 62.8,116 64.9,118.3 	"/>
	<polygon class="st1" points="89.4,151.7 87.3,149.3 89.9,147.1 91.9,149.5 	"/>
</g>
</svg>
