<?xml version="1.0" encoding="utf-8"?>
<!-- Generator: Adobe Illustrator 21.1.0, SVG Export Plug-In . SVG Version: 6.00 Build 0)  -->
<svg version="1.1" id="Layer_1" xmlns="http://www.w3.org/2000/svg" xmlns:xlink="http://www.w3.org/1999/xlink" x="0px" y="0px"
	 viewBox="0 0 200 200" style="enable-background:new 0 0 200 200;" xml:space="preserve">
<style type="text/css">
	.st0{fill:#FFFFFF;}
	.st1{fill:#FFFFFF;stroke:#FFFFFF;stroke-width:2.6232;stroke-miterlimit:1;}
	.st2{fill:#FF1100;stroke:#FF1100;stroke-width:2.6244;stroke-miterlimit:1;}
</style>
<g>
	<g>
		<path class="st0" d="M29.5,177c11.4,11,24.2,11,37.6,11c0.6,0,1.1,0,1.7,0c10.5,0,21.2,0.3,31.2,6.4c10.6-6.4,21.9-6.4,32.9-6.4
			c13.4,0,26.1,0,37.6-11V4.8l-141,0V177z"/>
		<path d="M24.7,0v179l0.7,0.7c13,13.1,27.6,13.1,41.7,13c11.2,0,21.9,0,31.6,6.4l1.3,0.9l1.3-0.9c9.7-6.4,20.3-6.4,31.6-6.4
			c14.1,0,28.7,0,41.7-13l0.7-0.7V0L24.7,0z M170.5,177c-11.4,11-24.2,11-37.6,11c-11,0-22.4,0-32.9,6.4c-10-6.1-20.8-6.4-31.2-6.4
			c-0.6,0-1.1,0-1.7,0c-13.4,0-26.1,0-37.6-11V4.8l141,0V177z"/>
	</g>
	<path id="path5" d="M153.2,10.2v170.6l0,0c4.1-1.2,8.1-3.1,11.8-6.1l0,0V10.2H153.2L153.2,10.2z M129.6,10.2v172.7l0,0
		c4,0,7.9,0,11.8-0.2l0,0V10.2H129.6L129.6,10.2z M105.9,10.2v175.4l0,0c3.8-1.4,7.8-2.1,11.8-2.4l0,0v-173H105.9L105.9,10.2z
		 M94.1,10.2v175.4l0,0c-3.8-1.4-7.8-2.1-11.8-2.4l0,0v-173H94.1L94.1,10.2z M70.4,10.2v172.7l0,0c-4,0-7.9,0-11.8-0.2l0,0V10.2
		H70.4L70.4,10.2z M46.8,10.2v170.6l0,0c-4.1-1.2-8.1-3.1-11.8-6.1l0,0V10.2H46.8L46.8,10.2z"/>
	<path id="path7" class="st0" d="M100,16.2c34.2,0,62.2,27.9,62.2,62.2c0,34.2-27.9,62.2-62.2,62.2c-34.2,0-62.2-27.9-62.2-62.2
		C37.8,44.2,65.8,16.2,100,16.2L100,16.2z"/>
	<path id="path9" d="M100,19.1c32.7,0,59.3,26.6,59.3,59.3c0,32.7-26.6,59.3-59.3,59.3c-32.7,0-59.3-26.6-59.3-59.3
		C40.7,45.7,67.3,19.1,100,19.1L100,19.1z"/>
	<path id="path11" class="st0" d="M100,22c31.1,0,56.4,25.4,56.4,56.4c0,31.1-25.4,56.4-56.4,56.4c-31.1,0-56.4-25.4-56.4-56.4
		C43.6,47.3,68.9,22,100,22L100,22z"/>
	<path d="M115.1,41c-2.1-5.9-6.8-14.2-11.9-18.8l1.9-2.1c5.6,5.1,10.5,13.9,12.6,19.9L115.1,41z"/>
	<path d="M134,43.8l-1.6-2.4c1.9-1.3,5.1-2.9,8.5-3.7l0.6,2.8C138.9,41.1,136,42.4,134,43.8z"/>
	<path d="M135.1,125.4l-2.6-1.2c4.3-9,6.5-20.4,6-32.1c-0.4-10.4-2.9-19.3-6.5-23.4l2.2-1.9c4.1,4.6,6.7,14,7.2,25.1
		C141.9,104.1,139.6,116,135.1,125.4z"/>
	<path d="M64.6,123.4l-1.3-2.6C75.1,115,87,106.6,96,97.8c10.3-10.1,16.4-20.2,17.7-29.3l2.8,0.4c-1.4,9.7-7.8,20.5-18.6,31
		C88.7,109,76.8,117.4,64.6,123.4z"/>
	<path d="M43.7,76.8l-1.8-2.3c6.8-5.3,16.8-10.5,27.3-14.4c8.6-3.1,21.8-6.8,35.7-6.6l0,2.9C82.6,56.1,56.7,66.6,43.7,76.8z"/>
	<g>
		<path class="st0" d="M135.9,49.2c-2.1-4.5-5.9-8-10.4-9.7c-1.9-0.7-3.8-1-5.7-1c-2.3,0-4.5,0.5-6.6,1.5
			c-8.3,3.9-11.7,14.4-7.5,23.4c2.1,4.5,5.9,8,10.4,9.7c4.1,1.5,8.4,1.3,12.2-0.4C136.7,68.7,140.1,58.2,135.9,49.2z"/>
		<path d="M138.5,48c-2.4-5.2-6.8-9.3-12-11.2c-4.8-1.8-9.9-1.6-14.4,0.5c-9.7,4.6-13.7,16.7-8.9,27.2c2.4,5.2,6.8,9.3,12,11.2
			c2.2,0.8,4.4,1.2,6.6,1.2c2.7,0,5.3-0.6,7.8-1.7C139.4,70.6,143.4,58.4,138.5,48z M116.2,73c-4.5-1.6-8.3-5.2-10.4-9.7
			c-4.2-9-0.8-19.5,7.5-23.4c2.1-1,4.3-1.5,6.6-1.5c1.9,0,3.8,0.3,5.7,1c4.5,1.6,8.3,5.2,10.4,9.7c4.2,9,0.8,19.5-7.5,23.4
			C124.6,74.4,120.3,74.5,116.2,73z"/>
	</g>
	<path id="path25" class="st1" d="M71.2,149.2v19.2l0,0c0,1.4,0.1,2.4,0.2,2.8c0.2,0.4,0.5,0.7,1,1c0.5,0.3,1.3,0.4,2.3,0.4l0,0h0.6
		v0.6h-15v-0.6h0.8l0,0c1.2,0,2.1-0.1,2.6-0.3c0.5-0.2,0.9-0.5,1-1c0.2-0.4,0.3-1.3,0.3-2.8l0,0v-12.1l0,0c0-1.1-0.1-1.8-0.2-2
		c-0.1-0.3-0.4-0.5-0.7-0.7c-0.3-0.2-0.7-0.3-1.2-0.3c-0.7,0-1.6,0.2-2.6,0.6l0,0l-0.4-0.6l10.5-3.9L71.2,149.2L71.2,149.2z
		 M80,173.6v-0.5l0,0c2.3-0.4,4.3-1.1,5.9-1.9c1.6-0.9,2.9-1.9,3.8-3.2c0.9-1.3,1.6-2.7,2-4.3c-0.9,0.4-1.6,0.6-2.2,0.8
		c-0.6,0.1-1.2,0.2-1.9,0.2c-2.1,0-3.9-0.6-5.4-1.9c-1.4-1.3-2.1-3-2.1-5.2c0-1.5,0.4-3,1.2-4.2c0.8-1.3,1.9-2.3,3.3-3
		c1.4-0.7,2.9-1.1,4.5-1.1c1.7,0,3.2,0.4,4.7,1.2c1.5,0.8,2.7,1.9,3.5,3.4c0.9,1.5,1.3,3.2,1.3,5.1c0,2.5-0.7,4.8-2.1,7.1
		c-1.4,2.3-3.6,4.1-6.4,5.4C87.2,172.8,83.8,173.5,80,173.6L80,173.6z M92,162.3c0.1-1.3,0.2-2.4,0.2-3.4c0-2.1-0.3-4.1-0.9-5.9
		c-0.3-1-0.8-1.7-1.5-2.2c-0.3-0.3-0.8-0.4-1.4-0.4c-0.7,0-1.2,0.2-1.6,0.7c-0.5,0.7-0.8,2-0.8,3.9c0,3.2,0.5,5.4,1.4,6.6
		c0.6,0.8,1.4,1.2,2.4,1.2C90.4,162.8,91.1,162.6,92,162.3L92,162.3z M117.8,173.2h-16.7v-0.4l0,0c5.1-5,8.2-8.4,9.3-10.2
		c1.1-1.7,1.6-3.4,1.6-5.1c0-1.2-0.5-2.2-1.4-3c-0.9-0.8-2-1.2-3.3-1.2c-2.1,0-3.8,0.9-5,2.7l0,0l-0.8-0.2l0,0
		c0.8-2.2,1.9-3.8,3.4-4.9c1.5-1.1,3.3-1.6,5.3-1.6c1.4,0,2.7,0.3,3.9,0.8c1.2,0.6,2.1,1.3,2.8,2.3c0.7,1,1,1.9,1,2.7
		c0,1.5-0.5,3.1-1.5,4.7c-1.4,2.1-4.5,5.1-9.2,8.9l0,0h6.1l0,0c1.5,0,2.5-0.1,2.9-0.2c0.5-0.1,0.8-0.3,1.1-0.5
		c0.3-0.2,0.7-0.8,1.2-1.6l0,0h0.8L117.8,173.2L117.8,173.2z M122.6,164.3l13.5-15.1h2.6v15.1h2.6v3.6h-2.6v5.3h-5.8v-5.3h-10.3
		L122.6,164.3L122.6,164.3z M125,164.3h7.9v-8.7L125,164.3L125,164.3z"/>
	<path id="path27" class="st2" d="M70.5,148.6v19.2l0,0c0,1.4,0.1,2.4,0.2,2.8c0.2,0.4,0.5,0.7,1,1c0.5,0.3,1.3,0.4,2.3,0.4l0,0h0.6
		v0.6h-15v-0.6h0.8l0,0c1.2,0,2.1-0.1,2.6-0.3c0.5-0.2,0.9-0.5,1-1c0.2-0.4,0.3-1.3,0.3-2.8l0,0v-12.1l0,0c0-1.1-0.1-1.8-0.2-2
		c-0.1-0.3-0.4-0.5-0.7-0.7c-0.3-0.2-0.7-0.3-1.2-0.3c-0.7,0-1.6,0.2-2.6,0.6l0,0l-0.4-0.6l10.5-3.9H70.5L70.5,148.6z M79.3,173
		v-0.5l0,0c2.3-0.4,4.3-1.1,5.9-1.9c1.6-0.9,2.9-1.9,3.8-3.2c0.9-1.3,1.6-2.7,2-4.3c-0.9,0.4-1.6,0.6-2.2,0.8
		c-0.6,0.1-1.2,0.2-1.9,0.2c-2.1,0-3.9-0.6-5.4-1.9c-1.4-1.3-2.1-3-2.1-5.2c0-1.5,0.4-3,1.2-4.2c0.8-1.3,1.9-2.3,3.3-3
		c1.4-0.7,2.9-1.1,4.5-1.1c1.7,0,3.2,0.4,4.7,1.2c1.5,0.8,2.7,1.9,3.5,3.4c0.9,1.5,1.3,3.2,1.3,5.1c0,2.5-0.7,4.8-2.1,7.1
		c-1.4,2.3-3.6,4.1-6.4,5.4C86.5,172.2,83.2,172.9,79.3,173L79.3,173z M91.4,161.6c0.1-1.3,0.2-2.4,0.2-3.4c0-2.1-0.3-4.1-0.9-5.9
		c-0.3-1-0.8-1.7-1.5-2.2c-0.3-0.3-0.8-0.4-1.4-0.4c-0.7,0-1.2,0.2-1.6,0.7c-0.5,0.7-0.8,2-0.8,3.9c0,3.2,0.5,5.4,1.4,6.6
		c0.6,0.8,1.4,1.2,2.4,1.2C89.7,162.2,90.5,162,91.4,161.6L91.4,161.6z M117.2,172.5h-16.7v-0.4l0,0c5.1-5,8.2-8.4,9.3-10.2
		c1.1-1.7,1.6-3.4,1.6-5.1c0-1.2-0.5-2.2-1.4-3c-0.9-0.8-2-1.2-3.3-1.2c-2.1,0-3.8,0.9-5,2.7l0,0l-0.8-0.2l0,0
		c0.8-2.2,1.9-3.8,3.4-4.9c1.5-1.1,3.3-1.6,5.3-1.6c1.4,0,2.7,0.3,3.9,0.8c1.2,0.6,2.1,1.3,2.8,2.3c0.7,1,1,1.9,1,2.7
		c0,1.5-0.5,3.1-1.5,4.7c-1.4,2.1-4.5,5.1-9.2,8.9l0,0h6.1l0,0c1.5,0,2.5-0.1,2.9-0.2c0.5-0.1,0.8-0.3,1.1-0.5
		c0.3-0.2,0.7-0.8,1.2-1.6l0,0h0.8L117.2,172.5L117.2,172.5z M122,163.7l13.5-15.1h2.6v15.1h2.6v3.6H138v5.3h-5.8v-5.3H122
		L122,163.7L122,163.7z M124.4,163.7h7.9V155L124.4,163.7L124.4,163.7z"/>
	<path id="path29" d="M127.9,89.6c0,2.1,0,4.3,0,6.5c-1.2-2.9-2.1-3.8-4.8-4.8c-0.9-0.3-3.1-0.6-4.1-0.5c-2.5,0.2-5.2,1.8-5.4,4.7
		c-0.2,1.9,1.2,3.3,2.9,4.3c1.7,1,3.8,1.6,5.1,2.2c2.1,0.8,4,1.8,5.3,3.3c1.3,1.4,2.2,3.4,2.2,6.2c0,3.4-1.4,6.5-3.5,9
		c-2.2,2.5-5.2,4.4-8.5,5.1c-2.1,0.5-4.5,0.5-6.8,0.3c-2.4-0.2-4.7-0.7-6.5-1.2c0.4-3.3,0.8-6.6,1.2-9.8c0.8,3.8,2.2,5.6,3.7,6.7
		c0.9,0.6,2.3,1.1,3.9,1.4c1.5,0.3,3.1,0.3,4.2,0.1c1.7-0.4,3.4-1.1,4.6-2.3c1.3-1.1,2.1-2.7,2.2-4.6c0.1-2-0.7-3.2-1.9-4
		c-1.2-0.8-2.7-1.3-4.1-1.8c-2.7-1-5.4-2.2-7.2-4.1c-1.9-1.9-3-4.3-2.6-7.8c0.3-2.8,1.8-5.1,3.9-6.8c2-1.6,4.5-2.6,6.9-2.8
		c1.7-0.1,3.3,0,4.9,0.2C125.1,89.1,126.6,89.4,127.9,89.6L127.9,89.6z M79.8,28.4l0,1.9l0,0c9.3-1,14.3,1.7,14.3,6.2
		c0,5.6-3.5,8.4-8.4,12.1l0,0l-11.4-16l-6,4l13,18.8l5.9-4.2l0,0c6.4-4.6,9.9-8.7,9.8-14.6C96.8,27.9,86,27.6,79.8,28.4L79.8,28.4z
		 M64.6,77.9c-0.4-1.4-1.9-2.3-4.2-2.7c1.6-0.7,3.1-1.1,4.7-1.5c5.3-1.7,8.4-6.1,14.3-6.3c6.9-0.3,10.7,6,10.6,11.8
		c0,5-2.9,9.6-9,9.6c-2.1,0-4.2-0.5-5.3-1l0,0l3.9,14.3l0,0c-2.9,1.2-5.2,2.8-7.3,4.4l0,0L64.6,77.9L64.6,77.9z M71.6,73l3.5,12.6
		l0,0c1.3,0.6,2.6,0.8,3.7,0.8c4.2,0,6.1-3.2,6-6.8c0-5-3.6-9-7.8-9C75.2,70.6,73.3,71.3,71.6,73L71.6,73z"/>
</g>
</svg>
