<?xml version="1.0" encoding="utf-8"?>
<!-- Generator: Adobe Illustrator 21.1.0, SVG Export Plug-In . SVG Version: 6.00 Build 0)  -->
<svg version="1.1" id="Layer_1" xmlns="http://www.w3.org/2000/svg" xmlns:xlink="http://www.w3.org/1999/xlink" x="0px" y="0px"
	 viewBox="0 0 200 200" style="enable-background:new 0 0 200 200;" xml:space="preserve">
<style type="text/css">
	.st0{fill:#FFB300;}
	.st1{fill:#FD0014;}
	.st2{fill:#620000;}
	.st3{fill-rule:evenodd;clip-rule:evenodd;fill:#FFFFFF;}
	.st4{fill-rule:evenodd;clip-rule:evenodd;fill:#FFB300;}
	.st5{fill:#FFFFFF;}
	.st6{fill-rule:evenodd;clip-rule:evenodd;fill:url(#SVGID_1_);}
	.st7{fill:url(#SVGID_2_);}
	.st8{fill:url(#SVGID_3_);}
	.st9{fill:url(#SVGID_4_);}
	.st10{fill:url(#SVGID_5_);}
	.st11{fill:url(#SVGID_6_);}
	.st12{fill-rule:evenodd;clip-rule:evenodd;fill:url(#SVGID_7_);}
	.st13{fill:url(#SVGID_8_);}
	.st14{fill:url(#SVGID_9_);}
	.st15{fill:url(#SVGID_10_);}
	.st16{fill:url(#SVGID_11_);}
	.st17{fill:url(#SVGID_12_);}
	.st18{fill-rule:evenodd;clip-rule:evenodd;fill:url(#SVGID_13_);}
</style>
<g>
	<path d="M178.8,145.6l0.2-0.8l-0.8,0.3c-4.2,1.7-8.6,3.3-13.1,4.8c-3.2,1.1-6.5,2.1-9.8,3V77L170,61.8h-23.3c0.1,0,0.2,0,0.3,0
		c0.2,0,0.4,0,0.6-0.1c0.2,0,0.4-0.1,0.6-0.2c0.2-0.1,0.4-0.3,0.6-0.5c0.3-0.3,0.5-0.6,0.7-0.9c0.2-0.3,0.3-0.6,0.5-0.9
		c0.1-0.3,0.2-0.6,0.2-0.9c0-0.3-0.1-0.7-0.2-1c0,0,0,0,0,0c0,0,0,0,0,0c-0.1-0.2-0.3-0.5-0.7-0.7c-0.2-0.1-0.4-0.2-0.7-0.2
		c0-0.6,0.2-1.1,0.3-1.5l0,0l0,0l0,0l0,0c0,0,0,0,0,0c0-0.1,0.1-0.2,0.1-0.3c0.2-0.7,0.7-1.4,1.2-2v0l0,0c0-0.1,0.1-0.1,0.3-0.4
		c0.2-0.3,0.4-0.6,0.5-1c0.1-0.3,0.2-0.7,0.2-1.1c0-0.1,0-0.1,0-0.2c0.1,0,0.3,0,0.4,0c0.6,0,1.1-0.2,1.5-0.6
		c0.4-0.4,0.6-0.9,0.6-1.5c0-0.6-0.2-1.1-0.6-1.5c-0.1-0.1-0.3-0.3-0.5-0.4c0.3-0.4,0.6-0.8,0.9-1.1v0l0,0l0,0v0c0,0,0,0,0,0
		c0.1-0.1,0.2-0.3,0.5-0.6c0.2-0.3,0.4-0.5,0.6-0.7c0,0,0.1,0,0.1,0c0.2,0,0.5,0.2,0.9,0.4c0.1,0,0.1,0.1,0.3,0.2
		c0.1,0.1,0.3,0.1,0.4,0.2c0.3,0.1,0.7,0.2,1.1,0.3c0.4,0,0.7,0,1.1-0.1c0.3-0.1,0.6-0.3,1-0.5c0.3-0.2,0.5-0.5,0.8-0.8
		c0.3-0.4,0.4-0.8,0.5-1.2c0.1-0.4,0.1-0.9,0-1.3c-0.1-0.5-0.2-0.9-0.4-1.3c-0.2-0.4-0.5-0.8-0.8-1.2c0,0,0,0,0,0l0,0c0,0,0,0,0,0
		l0,0c-0.5-0.6-1.1-1-1.7-1.4c-0.6-0.3-1.3-0.6-2-0.6c-0.7-0.1-1.5,0-2.3,0.3c-0.7,0.3-1.4,0.7-2,1.3c0,0,0,0,0,0l0,0c0,0,0,0,0,0v0
		c-0.3,0.3-0.6,0.6-0.8,0.9c-0.3,0.3-0.5,0.7-0.7,1.1c-0.2,0.4-0.4,0.7-0.6,1.1c-0.2,0.4-0.3,0.8-0.4,1.2c-0.1,0.2-0.1,0.3-0.1,0.5
		l0,0c-0.1-0.1-0.2-0.2-0.3-0.3c-0.2-0.2-0.5-0.4-0.7-0.6h0c-0.2-0.1-0.4-0.3-0.4-0.3c0,0,0,0,0,0l0,0l0,0c0,0,0,0-0.1,0
		c-0.1-0.1-0.3-0.2-0.4-0.3c-0.2-0.1-0.3-0.2-0.5-0.2c-0.4-0.2-0.9-0.3-1.3-0.3c-0.4,0-0.9,0-1.3,0.2c-0.4,0.1-0.9,0.3-1.3,0.6
		c-0.4,0.3-0.7,0.6-1,1.1c-0.2,0.2-0.3,0.4-0.5,0.7c-0.1,0.2-0.3,0.5-0.4,0.8c0,0.1-0.1,0.1-0.1,0.2c0,0.1-0.1,0.2-0.1,0.2
		c-0.2,0.6-0.2,1.2-0.2,1.8c0.1,0.6,0.2,1.2,0.5,1.8c0.3,0.5,0.6,1,1,1.4c0.4,0.4,0.9,0.7,1.3,1c0,0,0.1,0,0.2,0.1
		c0.1,0,0.1,0,0.2,0.1c1,0.3,2.5,0.3,3.5,0.3c-0.4,0-1.2,0,0,0c0,0.1,0,0.1,0,0.2c0,0.2-0.1,0.3-0.1,0.5c0,0.1-0.1,0.3-0.2,0.4
		c-0.3,0.4-0.6,0.6-0.8,0.8c-0.2,0.1-0.4,0.2-0.5,0.3c-0.2,0-0.3,0-0.5,0c-0.2,0-0.4-0.1-0.7-0.3c-0.3-0.1-0.5-0.3-0.8-0.4
		c-0.3-0.2-0.6-0.4-0.8-0.6c-0.2-0.2-0.5-0.5-0.6-0.8c-0.2-0.3-0.3-0.6-0.4-1l0,0h0l0,0c-0.1-0.5-0.5-0.8-1-0.7
		c-0.1,0-0.3,0.1-0.4,0.2c-0.3,0.2-0.7,0.3-1.4,0.5c-0.6,0.2-1.4,0.3-2.2,0.3c-0.7,0-1.5,0-2.3,0c-0.2,0-0.5,0-0.7-0.1
		c0.5-0.1,1-0.2,1.4-0.4c0.6-0.3,1.1-0.6,1.6-1.1c0.5-0.4,0.9-0.9,1.3-1.4c0.4-0.5,0.7-0.9,1-1.4c0.3-0.5,0.5-1.1,0.5-1.6
		c0.1-0.6,0-1.2-0.2-1.8c-0.2-0.7-0.5-1.3-0.8-1.9c-0.4-0.6-0.8-1.2-1.3-1.5c-0.4-0.3-0.8-0.5-1.2-0.7c-0.4-0.1-0.8-0.2-1.2-0.3
		c-0.4,0-0.8,0-1.1,0c-0.1,0-0.2,0-0.3,0c0.1-0.2,0.2-0.4,0.3-0.6c0.3-0.7,0.4-1.5,0.5-2.2c0-0.9-0.1-1.8-0.3-2.6
		c-0.2-0.9-0.6-1.7-1-2.2c-0.3-0.4-0.6-0.6-0.9-0.8c-0.3-0.2-0.6-0.4-1-0.5c-0.3-0.1-0.6-0.2-0.9-0.2c-0.3,0-0.5,0-0.8,0
		c-0.2,0-0.3,0-0.5,0c-0.2,0-0.3,0-0.5,0c-0.7,0.1-1.3,0.3-1.9,0.6c-0.6,0.3-1.1,0.7-1.5,1.2c-0.4,0.5-0.7,1-0.8,1.6
		c-0.2,0.6-0.3,1.2-0.3,1.9c0,0.2,0,0.4,0,0.5l0,0h0c0,0.2,0,0.4,0.1,0.6c0,0.3,0.1,0.5,0.1,0.7c0,0.1,0,0.1,0,0.2
		c-0.8-0.4-1.5-0.6-2.1-0.6c-0.7-0.1-1.3,0-1.9,0.2c-0.6,0.2-1,0.4-1.4,0.7c-0.4,0.3-0.7,0.6-1,1c-0.5,0.7-0.8,1.4-1,2.2
		c-0.2,0.8-0.2,1.6,0,2.4c0.2,0.8,0.5,1.6,1,2.4c0.5,0.8,1,1.5,1.8,2.1c0,0,0,0,0,0c0.1,0.1,0,0,0,0l0,0c0,0,0,0,0,0
		c0.5,0.4,1,0.7,1.6,0.8c0.1,0,0.3,0.1,0.4,0.1c-0.1,0-0.3,0-0.4,0c-0.3,0-0.7-0.1-1-0.2c-0.3-0.1-0.7-0.2-1-0.3
		c-0.4-0.2-0.8-0.3-1.2-0.6c-0.4-0.2-0.8-0.5-1.1-0.8c-0.4-0.3-0.7-0.7-1-1c-0.3-0.4-0.5-0.7-0.6-0.9l0,0c-0.2-0.4-0.7-0.6-1.2-0.4
		c-0.1,0.1-0.2,0.1-0.3,0.2c-0.3,0.3-0.6,0.5-1,0.7c-0.4,0.3-0.9,0.5-1.5,0.7c-0.6,0.2-1.3,0.4-1.9,0.5c-0.5,0.1-0.9,0.1-1.4,0.2
		c0,0,0,0,0.1,0c0.3-0.1,0.6-0.3,0.9-0.6c0.3-0.2,0.6-0.5,0.9-0.9l0.1-0.1c0.6-0.7,1.2-1.3,1.6-2c0.5-0.7,0.8-1.5,0.8-2.5
		c0-0.5-0.1-1.1-0.3-1.6c-0.2-0.5-0.5-1.1-0.9-1.6c-0.4-0.5-0.8-1-1.2-1.5c-0.5-0.4-0.9-0.8-1.5-1.2c-0.5-0.3-1-0.5-1.4-0.5
		c-0.5-0.1-0.9,0-1.3,0.1c-0.2,0.1-0.5,0.1-0.7,0.2c0-0.1,0.1-0.2,0.1-0.2c0.2-0.6,0.3-1.2,0.3-1.8c0-0.6,0-1.2-0.2-1.8
		c-0.1-0.6-0.4-1.1-0.7-1.7c-0.2-0.4-0.5-0.7-0.8-0.9c-0.3-0.3-0.6-0.5-1-0.7c-0.4-0.2-0.7-0.3-1.1-0.4c-0.4-0.1-0.8-0.2-1.2-0.2
		c-0.4,0-0.8,0-1.2,0.2c-0.4,0.1-0.8,0.2-1.1,0.4c-0.3,0.2-0.7,0.4-1,0.7c-0.3,0.3-0.5,0.6-0.8,0.9c-0.3,0.5-0.6,1.1-0.7,1.7
		c-0.2,0.6-0.2,1.2-0.2,1.8c0,0.7,0.2,1.3,0.3,1.8c0,0.1,0.1,0.2,0.1,0.2c-0.2-0.1-0.4-0.2-0.7-0.2c-0.4-0.1-0.9-0.1-1.3-0.1
		c-0.5,0.1-0.9,0.2-1.4,0.5c-0.5,0.3-1,0.7-1.5,1.2c-0.5,0.5-0.9,1-1.2,1.5c-0.4,0.5-0.7,1.1-0.9,1.6c-0.2,0.6-0.3,1.1-0.3,1.6
		c0,1,0.3,1.8,0.8,2.5c0.4,0.7,1,1.3,1.6,2l0.1,0.1c0.3,0.3,0.6,0.6,0.9,0.9c0.3,0.2,0.6,0.4,0.9,0.6c0,0,0,0,0.1,0
		c-0.5,0-0.9-0.1-1.4-0.2c-0.7-0.1-1.3-0.3-1.9-0.5c-0.5-0.2-1-0.4-1.5-0.7c-0.4-0.2-0.7-0.5-1-0.7c-0.1-0.1-0.2-0.2-0.3-0.2
		c-0.4-0.2-1,0-1.2,0.4l0,0c-0.1,0.2-0.3,0.6-0.6,0.9c-0.3,0.3-0.6,0.7-1,1c-0.3,0.3-0.7,0.5-1.1,0.8c-0.4,0.2-0.8,0.4-1.2,0.6
		c-0.3,0.1-0.6,0.2-1,0.3c-0.3,0.1-0.7,0.1-1,0.2c-0.1,0-0.3,0-0.4,0c0.1,0,0.3,0,0.4-0.1c0.6-0.1,1.1-0.4,1.6-0.8c0,0,0,0,0,0l0,0
		c0,0-0.1,0.1,0,0c0,0,0,0,0,0c0.7-0.7,1.3-1.4,1.8-2.1c0.5-0.8,0.8-1.6,1-2.4c0.2-0.8,0.2-1.7,0-2.4c-0.2-0.8-0.5-1.5-1-2.2
		c-0.3-0.3-0.6-0.7-1-1c-0.4-0.3-0.9-0.6-1.4-0.7c-0.6-0.2-1.2-0.2-1.9-0.2c-0.6,0.1-1.4,0.3-2.1,0.6c0,0,0-0.1,0-0.2
		c0-0.2,0.1-0.5,0.1-0.7c0-0.2,0-0.4,0.1-0.6h0l0,0c0-0.2,0-0.4,0-0.5c0-0.7-0.1-1.3-0.3-1.9c-0.2-0.6-0.5-1.2-0.8-1.6
		c-0.4-0.5-0.9-0.9-1.5-1.2c-0.5-0.3-1.2-0.5-1.9-0.6c-0.1,0-0.3,0-0.5,0c-0.1,0-0.3,0-0.5,0c-0.3,0-0.5,0-0.8,0
		c-0.3,0-0.6,0.1-0.9,0.2c-0.3,0.1-0.7,0.3-1,0.5c-0.3,0.2-0.6,0.5-0.9,0.8c-0.4,0.5-0.7,1.3-1,2.2c-0.2,0.8-0.3,1.7-0.3,2.6
		c0,0.8,0.2,1.5,0.5,2.2c0.1,0.2,0.2,0.4,0.3,0.6c-0.1,0-0.2,0-0.3,0c-0.3,0-0.7,0-1.1,0c-0.4,0-0.8,0.1-1.2,0.3
		c-0.4,0.1-0.8,0.4-1.2,0.7c-0.4,0.3-0.9,0.9-1.3,1.5c-0.3,0.6-0.6,1.2-0.8,1.9C61,42.3,61,43,61,43.5c0,0.6,0.2,1.1,0.5,1.6
		c0.3,0.5,0.6,0.9,1,1.4c0.4,0.5,0.8,0.9,1.3,1.4c0.5,0.4,1,0.8,1.6,1.1c0.4,0.2,0.9,0.3,1.4,0.4c-0.2,0-0.5,0.1-0.7,0.1
		c-0.8,0.1-1.6,0.1-2.3,0c-0.8-0.1-1.6-0.2-2.2-0.3c-0.6-0.2-1.1-0.3-1.4-0.5c-0.1-0.1-0.2-0.1-0.4-0.2c-0.5-0.1-0.9,0.2-1,0.7l0,0
		h0l0,0c-0.1,0.4-0.2,0.7-0.4,1c-0.2,0.3-0.4,0.6-0.6,0.8c-0.3,0.2-0.5,0.4-0.8,0.6c-0.3,0.2-0.6,0.3-0.8,0.4
		c-0.2,0.1-0.5,0.2-0.7,0.3c-0.2,0-0.3,0-0.5,0c-0.2,0-0.3-0.1-0.5-0.3c-0.2-0.2-0.5-0.4-0.8-0.8c-0.1-0.1-0.2-0.3-0.2-0.4
		c-0.1-0.1-0.1-0.3-0.1-0.5c0-0.1,0-0.1,0-0.2c1.2,0,0.4,0,0,0c1,0,2.5,0,3.5-0.3c0.1,0,0.1,0,0.2-0.1c0.1,0,0.1-0.1,0.2-0.1
		c0.5-0.2,0.9-0.5,1.3-1c0.4-0.4,0.7-0.9,1-1.4c0.3-0.5,0.4-1.2,0.5-1.8c0.1-0.6,0-1.2-0.2-1.8c0-0.1,0-0.1-0.1-0.2
		c0-0.1-0.1-0.2-0.1-0.2c-0.1-0.3-0.2-0.5-0.4-0.8c-0.1-0.2-0.3-0.5-0.5-0.7c-0.3-0.4-0.7-0.8-1-1.1c-0.4-0.3-0.8-0.5-1.3-0.6
		c-0.4-0.1-0.9-0.2-1.3-0.2c-0.4,0-0.9,0.1-1.3,0.3c-0.2,0.1-0.3,0.1-0.5,0.2c-0.1,0.1-0.3,0.2-0.4,0.3c0,0,0,0-0.1,0l0,0l0,0
		c0,0,0,0,0,0c0,0-0.2,0.2-0.4,0.3h0c-0.2,0.2-0.5,0.4-0.7,0.6c-0.1,0.1-0.2,0.2-0.3,0.3l0,0c0-0.1-0.1-0.3-0.1-0.5
		c-0.1-0.4-0.3-0.8-0.4-1.2c-0.2-0.4-0.4-0.8-0.6-1.1c-0.2-0.4-0.5-0.7-0.7-1.1c-0.3-0.3-0.6-0.7-0.8-0.9l0,0c0,0,0,0,0,0l0,0
		c0,0,0,0,0,0c-0.7-0.6-1.4-1-2-1.3c-0.8-0.3-1.5-0.4-2.3-0.3c-0.7,0.1-1.3,0.3-2,0.6c-0.6,0.3-1.2,0.8-1.7,1.4l0,0c0,0,0,0,0,0l0,0
		c0,0,0,0,0,0c-0.3,0.4-0.6,0.7-0.8,1.2c-0.2,0.4-0.4,0.8-0.4,1.3c-0.1,0.4-0.1,0.9,0,1.3c0.1,0.4,0.3,0.8,0.5,1.2
		c0.2,0.3,0.5,0.6,0.8,0.8c0.3,0.2,0.6,0.4,1,0.5c0.4,0.1,0.7,0.2,1.1,0.1c0.4,0,0.7-0.1,1.1-0.3c0.1,0,0.2-0.1,0.4-0.2
		c0.2-0.1,0.3-0.1,0.3-0.2c0.3-0.2,0.7-0.3,0.9-0.4c0,0,0.1,0,0.1,0c0.2,0.2,0.4,0.4,0.6,0.7c0.3,0.4,0.4,0.5,0.5,0.6c0,0,0,0,0,0
		l0,0l0,0l0,0l0,0c0.3,0.4,0.6,0.7,0.9,1.1c-0.2,0.1-0.3,0.2-0.5,0.4c-0.4,0.4-0.6,0.9-0.6,1.5c0,0.6,0.2,1.1,0.6,1.5
		c0.4,0.4,0.9,0.6,1.5,0.6c0.1,0,0.3,0,0.4,0c0,0.1,0,0.1,0,0.2c0,0.4,0.1,0.7,0.2,1.1c0.1,0.4,0.3,0.7,0.5,1
		c0.2,0.3,0.2,0.3,0.3,0.4l0,0v0c0.5,0.7,1,1.3,1.2,2c0,0.1,0.1,0.2,0.1,0.3c0,0,0,0,0,0h0l0,0l0,0v0c0.1,0.4,0.3,1,0.3,1.5
		c-0.3,0-0.5,0.1-0.7,0.2c-0.4,0.2-0.5,0.5-0.7,0.7c0,0,0,0,0,0c0,0,0,0,0,0c-0.2,0.3-0.2,0.6-0.2,1c0,0.3,0.1,0.6,0.2,0.9
		c0.1,0.3,0.3,0.6,0.5,0.9c0.2,0.3,0.4,0.6,0.7,0.9c0.2,0.2,0.4,0.3,0.6,0.5c0.2,0.1,0.4,0.2,0.6,0.2c0.2,0,0.4,0.1,0.6,0.1
		c0.1,0,0.2,0,0.3,0H30L44.6,77v75.8c-3.3-0.9-6.6-1.9-9.8-3c-4.5-1.5-8.9-3.1-13.1-4.8l-0.8-0.3l0.2,0.8c0.5,1.6,2.4,4,4.4,6.5
		c1.4,1.7,2.8,3.5,3.8,5.1c-1.4,1.1-2.7,2.1-3.9,3c-1.3,1-2.5,1.9-3.6,2.8l-0.5,0.4l0.5,0.3c1,0.6,2.6,1.2,4.5,1.8
		c2.1,0.7,4.5,1.4,6.5,1.9v4.1v0.3l0.2,0.1c3.7,1.7,7.5,3.1,11.4,4.3v5.2c0,0,0,0,0,0.1c0,2.5,1.5,4.6,3.6,6.1
		c2.1,1.5,4.8,2.4,7.3,2.4h29.5c6.4,0,7.8,1.7,11.4,5.9c0.9,1.1,3.5,4,3.5,4s2.6-2.9,3.5-4c3.6-4.2,5.1-5.9,11.4-5.9h29.5
		c2.5,0,5.2-0.9,7.3-2.4c2.1-1.5,3.6-3.6,3.6-6.1c0,0,0,0,0-0.1v-5.2c3.9-1.2,7.7-2.7,11.5-4.3l0.2-0.1v-0.3v-4.1
		c2-0.5,4.4-1.2,6.5-1.9c1.9-0.6,3.5-1.3,4.5-1.8l0.5-0.3l-0.5-0.4c-1.1-0.9-2.3-1.8-3.6-2.8c-1.2-0.9-2.5-1.9-3.9-3
		c1-1.6,2.4-3.4,3.8-5.1C176.4,149.6,178.3,147.2,178.8,145.6z M53.6,61.8c0.2,0,0.4,0,0.6,0c0.2,0,0.5-0.1,0.7-0.1h0
		c0.3,0,0.6-0.1,0.8-0.1c0.2,0,0.4,0,0.4,0c0,0,0.1,0.1,0.1,0.2H53.6z M143.7,61.8c0-0.1,0.1-0.2,0.1-0.2c0.1-0.1,0.2-0.1,0.4,0
		c0.2,0,0.5,0.1,0.8,0.1h0c0.3,0,0.5,0.1,0.7,0.1c0.2,0,0.4,0,0.6,0H143.7z"/>
	<ellipse class="st0" cx="151.4" cy="47.7" rx="1.3" ry="1.3"/>
	<ellipse class="st0" cx="48.6" cy="47.7" rx="1.3" ry="1.3"/>
	<path class="st0" d="M51.9,60.5c-0.9-1.1-1.3-2-1-2.7c0.1-0.3,0.3-0.8,1.2-0.4c0.1,0.1,0.4,0,0.5-0.3c0-0.2-0.1-0.1-0.1-0.7
		c0-0.9-0.3-1.7-0.4-2.1c-0.3-1-0.9-1.8-1.6-2.7c-0.5-0.7-0.9-2-0.2-2.8c0.9-1,0-2.1-0.6-2.7c-0.5-0.4-0.8-0.1-1.2-0.5
		c-0.9-1.1-1.6-1.9-2.4-2.8c-0.1-0.1-0.1-0.2-0.2-0.2c-0.2-0.3-0.3-0.7-0.4-1c-0.1-0.5,0.1-1,0.5-1.5c0.6-0.8,1.3-1.2,2.2-1.5
		c0.1,0,0.3-0.1,0.4-0.1c0.8,0.9,1.4,2,1.8,3.4c0.4,1.4,0.2,2.2,1.3,1.2c0.5-0.5,1.3-1.1,1.7-1.4c0.3-0.2,0.6-0.4,0.9-0.5
		c0.1,0.3,0.1,0.5,0.1,0.8c0,0.2,0,0.4,0,0.6c0,0.1,0,0.3,0,0.4c0,0.2,0,0.4,0,0.6c0,0.1,0,0.2,0,0.3c0,0.2,0,0.3,0,0.5
		c0,0.2,0.1,0.4,0.1,0.5c0.3,0.9,1,1.5,1.6,2.1c0.2,0.2,0.4,0.4,0.6,0.6c0.1,0.1,0.2,0.2,0.3,0.3c0.2,0.2,0.3,0.4,0.5,0.5
		c-0.4,0.4-0.8,0.6-1.2,0.8c-0.9,0.3-2.5,0.3-3.5,0.3c-0.9,0-0.9,0.3-0.7,0.9c0.2,0.5,0.2,1.1,0.7,1.7c1.4,1.7,2.4,1.7,3.6,1.1
		c1.1-0.5,2.8-1.5,3.2-3.6c1.1,0.8,5,1.5,8.9,0.5c1.5-0.4,2.4-0.8,2.4-4c0-1.1,0.6-1.4,0-1.4c-0.7,0-0.6,0.7-0.7,1.3
		c-0.4,1.5-1.3,2.7-2.8,2.7c-0.5,0-1-0.1-1.5-0.3c0-0.1,0-0.2,0-0.3c-0.3-1.8,0-2.3,0.3-2.9l0.1-0.1c0.2-0.4,0.3-0.8,0.2-1.2
		c0-0.5-0.2-1-0.4-1.4c-0.3-0.5-0.6-0.9-1-1.3c-0.2-0.2-0.3-0.4-0.4-0.5c-0.2-0.3-0.3-0.6-0.3-0.9c0-0.2-0.1-0.5-0.1-0.8
		c1.1-0.6,2.5-0.5,3.3-0.3c0.6,0.1,0.8,0.4,1.1,0.4c0.5,0,0.2-0.7-0.1-0.9c-1.4-1.2-1.5-3.4-1.2-5.1c0.1,0,0.1,0,0.2-0.1
		c0.3-0.1,0.6-0.1,0.9-0.1c0.3,0,0.6,0,0.9,0c0.2,0,0.4,0.2,0.6,0.3c0.2,0.1,0.3,0.2,0.6,0.3c0.4,0.1,0.7,0.1,0.9,0v0
		c0.1,0,0.2-0.1,0.3-0.1c0.1,0,0.1,0,0.1,0c0.3,0,0.7,0.1,1-0.1c0.3-0.1,0.5-0.4,0.8-0.6c0.1-0.1,0.2-0.2,0.3-0.3
		c0.5-0.3,0.9-0.4,1.2-0.3c0.1,0,0.2,0.1,0.3,0.1c0.3,0.8,0.4,1.8,0.2,2.8c-0.1,1.1-0.2,1.4-0.7,2.1c-0.5,0.7,0.1,1.2,0.8,0.5
		c0.2-0.2,0.6-0.5,1-0.7c0.9-0.5,1.7-0.6,2.4-0.6c0.1,0.2,0.2,0.5,0.3,0.8c0.1,0.4,0,0.8,0,0.9l0,0l0,0l0,0l0,0l0,0
		c-0.2,0.3-0.4,0.5-0.5,0.8c-0.1,0.3-0.2,0.5-0.3,0.8c-0.1,0.4,0,0.7,0,1.1c0,0.1,0,0.1,0,0.2c0,0.3,0.2,0.6,0.3,0.9
		c0.2,0.3,0.4,0.6,0.6,0.8c0.3,0.3,0.6,0.6,0.9,1.1c0.2,0.4,0.4,0.9,0.4,1.5c0,0,0,0.1,0,0.1c-0.1,0.2-0.3,0.3-0.5,0.5
		c-1.6,1.4-3.9,0.6-5-0.7c-0.2-0.3-0.5-0.8-0.9-0.7c-0.3,0.1-0.5,0.3-0.3,0.6c0.6,1,1.1,2.1,2.8,2.8c1.6,0.7,3.3,0.4,4.6-0.1
		c2.3-0.9,3.9-2.7,4.3-3.7c1.5,1.5,4.4,2.3,7.1,2.4c1.5,0.1,3.1,0,3.9-0.7c0.8-0.6,1-1.9,1.2-2.7c0.1-0.7,0.1-1.1-0.2-1.2
		c-0.3,0-0.4,0.2-0.5,0.5c-0.2,0.3-0.3,0.6-0.7,1.2c-0.7,0.8-1.2,1.5-2.6,1.4c-0.6,0-1-0.1-1.5-0.3c-0.1-0.1-0.1-0.3-0.2-0.5
		c-0.2-0.5-0.5-1-0.5-1.5c0-0.7,0.2-1,0.5-1.3c0.2-0.3,0.5-0.6,0.7-1.2c0.3-1.1,0.1-1.9-0.3-2.8c-0.3-0.9-0.7-1.9-0.1-3.3
		c1.3-0.5,2.3,0.1,3.3,0.8c0.5,0.4,0.8,0.4,0.9,0.2c0.1-0.2,0-0.6-0.2-0.9c-0.8-1.1-1.4-3-0.8-4.8c0.1,0,0.1,0,0.1,0
		c0.5,0,0.7,0,1.4,0.2l0.2,0.2c0.2,0.2,0.4,0.4,0.7,0.6c0.4,0.2,0.9,0.1,1.3,0c0.1,0,0.1,0,0.1,0c0,0,0.1,0,0.1,0
		c0.3,0.1,0.8,0.2,1.3,0c0.3-0.1,0.5-0.4,0.7-0.6l0.2-0.2c0.7-0.3,0.9-0.3,1.4-0.2c0,0,0.1,0,0.1,0c0.6,1.9,0,3.8-0.8,4.8
		c-0.2,0.3-0.3,0.7-0.2,0.9c0.1,0.1,0.3,0.1,0.9-0.2c0.9-0.7,2-1.3,3.3-0.8c0.6,1.5,0.2,2.4-0.1,3.3c-0.3,0.9-0.6,1.7-0.3,2.8
		c0.2,0.6,0.4,0.9,0.7,1.2c0.2,0.3,0.5,0.6,0.5,1.3c0,0.5-0.3,1-0.5,1.5c-0.1,0.2-0.1,0.3-0.2,0.5c-0.5,0.2-0.9,0.3-1.5,0.3
		c-1.4,0-1.9-0.6-2.6-1.4c-0.4-0.5-0.5-0.8-0.7-1.2c-0.2-0.3-0.2-0.5-0.5-0.5c-0.3,0-0.3,0.5-0.2,1.2c0.2,0.8,0.4,2.1,1.2,2.7
		c0.8,0.7,2.4,0.7,3.9,0.7c2.7-0.2,5.7-0.9,7.1-2.4c0.5,1,2,2.9,4.3,3.7c1.3,0.5,3,0.8,4.6,0.1c1.6-0.7,2.2-1.8,2.8-2.8
		c0.2-0.3,0-0.5-0.3-0.6c-0.4-0.1-0.7,0.4-0.9,0.7c-1.1,1.2-3.4,2.1-5,0.7c-0.2-0.1-0.3-0.3-0.5-0.5c0,0,0-0.1,0-0.1
		c0.1-0.6,0.2-1.1,0.4-1.5c0.3-0.5,0.6-0.9,0.9-1.1c0.3-0.2,0.5-0.5,0.6-0.8c0.2-0.3,0.3-0.6,0.3-0.9c0-0.1,0-0.2,0-0.2
		c0.1-0.4,0.1-0.7,0-1.1c-0.1-0.3-0.2-0.5-0.3-0.8c-0.1-0.3-0.3-0.5-0.5-0.8l0,0l0,0l0,0l0,0l0,0c-0.1-0.1-0.1-0.5,0-0.9
		c0-0.3,0.1-0.6,0.3-0.8c0.7,0,1.5,0.2,2.4,0.6c0.4,0.2,0.8,0.5,1,0.7c0.7,0.7,1.3,0.2,0.8-0.5c-0.5-0.7-0.6-1-0.7-2.1
		c-0.1-1-0.1-2,0.2-2.8c0.1-0.1,0.2-0.1,0.3-0.1c0.4-0.1,0.8,0.1,1.2,0.3c0.1,0,0.2,0.2,0.3,0.3c0.2,0.2,0.4,0.5,0.8,0.6
		c0.3,0.1,0.7,0.1,1,0.1c0,0,0.1,0,0.1,0c0.1,0,0.2,0,0.3,0.1v0c0.2,0.1,0.5,0.1,0.9,0c0.2-0.1,0.4-0.2,0.6-0.3
		c0.2-0.1,0.4-0.2,0.6-0.3c0.3,0,0.6-0.1,0.9,0c0.3,0,0.6,0.1,0.9,0.1c0.1,0,0.1,0,0.2,0.1c0.3,1.7,0.2,3.9-1.2,5.1
		c-0.3,0.2-0.6,0.9-0.1,0.9c0.3,0,0.5-0.3,1.1-0.4c0.8-0.1,2.2-0.3,3.3,0.3c0,0.3,0,0.5-0.1,0.8c-0.1,0.3-0.2,0.7-0.3,0.9
		c-0.1,0.2-0.3,0.3-0.4,0.5c-0.3,0.4-0.7,0.8-1,1.3c-0.2,0.4-0.4,0.9-0.4,1.4c0,0.4,0,0.9,0.2,1.2l0.1,0.1c0.4,0.6,0.6,1.1,0.3,2.9
		c0,0.1,0,0.2,0,0.3c-0.5,0.2-1,0.3-1.5,0.3c-1.4,0-2.3-1.2-2.8-2.7c-0.2-0.6,0-1.3-0.7-1.3c-0.6,0,0,0.3,0,1.4c0,3.2,0.9,3.6,2.4,4
		c3.9,1,7.8,0.2,8.9-0.5c0.3,2.1,2.1,3,3.2,3.6c1.2,0.6,2.2,0.6,3.6-1.1c0.5-0.6,0.5-1.1,0.7-1.7c0.2-0.5,0.2-0.9-0.7-0.9
		c-0.9,0-2.6,0-3.5-0.3c-0.4-0.1-0.9-0.4-1.2-0.8c0.2-0.2,0.4-0.3,0.5-0.5c0.1-0.1,0.2-0.2,0.3-0.3c0.2-0.2,0.4-0.4,0.6-0.6
		c0.7-0.6,1.3-1.1,1.6-2.1c0.1-0.2,0.1-0.3,0.1-0.5c0-0.2,0-0.3,0-0.5c0-0.1,0-0.2,0-0.3c0-0.2,0-0.4,0-0.6c0-0.2,0-0.3,0-0.4
		c0-0.2,0-0.4,0-0.6c0-0.3,0.1-0.5,0.1-0.8c0.3,0.1,0.6,0.3,0.9,0.5c0.4,0.3,1.2,0.9,1.7,1.4c1,1,0.9,0.2,1.3-1.2
		c0.4-1.3,1-2.5,1.8-3.4c0.2,0,0.3,0.1,0.4,0.1c0.9,0.3,1.6,0.7,2.2,1.5c0.4,0.5,0.5,1,0.5,1.5c0,0.3-0.2,0.7-0.4,1
		c-0.1,0.1-0.1,0.1-0.2,0.2c-0.8,1-1.5,1.8-2.4,2.8c-0.3,0.4-0.7,0-1.2,0.5c-0.6,0.6-1.5,1.6-0.6,2.7c0.7,0.8,0.3,2.1-0.2,2.8
		c-0.7,0.9-1.3,1.7-1.6,2.7c-0.1,0.4-0.4,1.2-0.4,2.1c0,0.6-0.2,0.5-0.1,0.7c0.1,0.2,0.3,0.3,0.5,0.3c0.8-0.3,1,0.2,1.2,0.4
		c0.4,0.6,0,1.6-1,2.7c-0.4,0.4-1.1,0.4-1.6,0.4c-1.2,0-2.5-0.5-3.2,0c-4.5-3.1-10.8-5.5-17.8-7.1c-8-1.8-17-2.7-25.5-2.7
		c-8.5,0-17.5,0.8-25.5,2.7c-7,1.6-13.2,3.9-17.8,7.1c-0.7-0.5-2,0.1-3.2,0C53,60.9,52.2,60.9,51.9,60.5z"/>
	<path class="st0" d="M100,61.8H57.2c0-0.2-0.1-0.3-0.1-0.4c4.5-3.1,10.6-5.4,17.5-6.9c8-1.8,16.9-2.7,25.4-2.6
		c8.5,0,17.4,0.8,25.4,2.6c6.9,1.6,13,3.9,17.5,6.9c-0.1,0.1-0.1,0.3-0.1,0.4H100z"/>
	<path class="st1" d="M45.3,76.4L32.1,62.7h135.8l-13.2,13.7l-0.2,0.3V77v76.1c-0.8,0.2-1.6,0.4-2.4,0.7l-0.3,0.1v0.3l0,5.1
		c-5.1,1.4-10.4,2.6-15.9,3.5c-11.1,1.8-23.1,2.6-35.8,2.6c-12.8,0-24.7-0.8-35.8-2.6c-5.5-0.9-10.8-2.1-15.9-3.5l0-5.1v-0.3
		l-0.3-0.1c-0.8-0.2-1.6-0.4-2.4-0.7V77v-0.4L45.3,76.4z"/>
	<path class="st1" d="M154.5,181.5L154.5,181.5L154.5,181.5c0,2.1-1.2,4-3.3,5.5c-1.9,1.4-4.5,2.2-6.8,2.2h-29.5
		c-6.8,0-8.5,2-12.1,6.2c-0.6,0.7-2,2.3-2.8,3.2c-0.8-0.9-2.2-2.5-2.8-3.2c-3.7-4.3-5.3-6.2-12.1-6.2H55.6c-2.3,0-4.9-0.8-6.8-2.2
		c-2.1-1.5-3.2-3.4-3.3-5.4v0v0v-4.9c5.8,1.8,11.8,3.1,18.2,4.1c11,1.7,23,2.4,36.3,2.4c13.3,0,25.3-0.7,36.3-2.4
		c6.4-1,12.4-2.4,18.2-4.1V181.5z"/>
	<path class="st2" d="M122.9,125.5c0.1,0.1,0.3,0.1,0.4,0.2c0.6,0.1,1.1,0.2,1.5,0.1c0.3-0.1,0.6-0.2,0.8-0.6
		c0.1-0.1,0.2-0.3,0.3-0.6c0.1-0.2,0.1-0.5,0.1-0.8c0-0.6,0-1.1-0.2-1.7c-0.1-0.5-0.4-1.1-0.7-1.7c-0.5-0.8-1.1-1.6-1.8-2.4
		c-0.4-0.5-0.7-0.9-1.1-1.4c-0.5-0.7-1-1.4-1.6-2c-1.8-2.3-3.5-4.6-4.5-7.1l0,0c-0.1-0.2-0.2-0.4-0.2-0.5c-0.2-0.5-0.1-0.5-0.9,0
		c-0.1,0-0.1,0.1-0.2,0.1c0,0,0,0.1,0.1,0.3c0.1,0.2,0.1,0.4,0.1,0.7c0,0.5-0.1,1-0.1,1.5c-0.1,0.5-0.1,0.9-0.2,1.4
		c-0.1,0.3-0.2,0.5-0.3,0.6c-0.1,0.1-0.1,0.2-0.2,0.4c-0.1,0.6-0.1,1.1-0.1,1.7c0,0.5,0.1,1.1,0.3,1.6c0.2,0.4,0.4,0.9,0.7,1.3
		c0.2,0.3,0.4,0.6,0.5,0.9c0.2,0.4,0.4,0.8,0.5,1.1c0.2,0.4,0.3,0.7,0.5,1c0.7,1.2,1.9,2.4,2.7,3.2c0.2,0.2,0.4,0.4,0.5,0.5
		C121.7,125,121.2,124.6,122.9,125.5L122.9,125.5z M97.5,76.7c0.5-0.5,1.1-0.9,1.6-1.3c0,0,0,0,0,0c0.1,0,0.2-0.1,0.3-0.2
		c0.1-0.1,0.3-0.2,0.4-0.2c0.2-0.1,0.5-0.2,0.8-0.1c0.2,0,0.8-0.7,1-1c0.3-0.3,0.6-0.6,0.9-0.9c0.2-0.2,0.3-0.3,0.4-0.4
		c0.2-0.2,0.4-0.4,0.6-0.6c0.3-0.2,0.6-0.3,0.9-0.1c0.1,0.1,0.2,0.2,0.3,0.3c0.1,0.1,0.1,0.3,0.2,0.4c0,0.2,0.1,0.2,0.1,0.3
		c0,0.2,0,0.2,0,0.2c0,0,0.2,0,0.3,0c0.1,0,0.2,0,0.3,0c0.2,0,0.3,0,0.4,0.1v0c0,0,0-0.1,0-0.2c0-0.3,0.1-0.6,0.3-0.7
		c0.1-0.1,0.3-0.2,0.4-0.2c0.2,0,0.3,0,0.5,0c0.2,0.1,0.4,0.2,0.5,0.4c0.3,0.6,0.5,0.9,0.7,1.2c0.1,0.1,0.1,0.2,0.2,0.3
		c0.9,1.4,2.1,2.1,2.5,2.5c0.3,0.2,0.5,0.5,0.8,0.8c0.4,0.4,0.7,0.7,0.9,0.9c0.5,0.4,0.9,0.8,1.2,1.2c0.3,0.4,0.6,0.9,0.8,1.3
		c0.1,0.2,0.1,0.3,0.2,0.5c0,0.1,0.1,0.3,0.1,0.4c0.1,0.3,0.4,0.4,0.6,0.6c0.1,0.1,0.1,0.1,0.2,0.1c1.3,1.1,1.3,2.7,1.3,4.2
		c0,0.8,0,1.5,0.3,1.9c0.2,0.3,0.2,0.7,0.1,1.1c-0.1,0.4-0.3,0.8-0.5,1.1c-0.2,0.3-0.3,0.4-0.4,0.6c0,0.2,0.1,0.4,0.2,0.8
		c0.3,0.8,0.5,1.5,0.6,2.3c0.1,0.8,0.2,1.5,0.3,2.5l0,0c0,0,0,0,0,0c0,0.8-0.2,1.5-0.4,2c-0.3,0.5-0.6,0.9-0.9,1.2
		c-0.1,0.1-0.2,0.2-0.4,0.3c-0.1,0.1-0.2,0.2-0.3,0.3c0,0.1,0,0.1,0,0.2c0,0.4,0,0.9,0,1.3l0,0c0.2-0.6,0.6-1.3,1-1.8
		c0.4-0.6,1-1.2,1.6-1.7c0.6-0.5,1.2-0.8,1.8-1c1.1-0.3,2.3-0.3,3.5-0.3c0.2,0,0.4,0,0.6,0c0.6,0,1.4,0.2,2.1,0.4
		c0.2,0.1,0.5,0.1,0.5,0.1c0.1,0,0.2,0,0.3,0c0.2-0.1,0.4-0.1,0.7,0c0,0,0.1,0,0.1,0.1c0.2,0.1,0.3,0.4,0.4,0.5c0,0.1,0,0.1,0,0.1
		c0.1,0,0.1,0.1,0.2,0.1c0.5,0.3,0.8,0.4,0.5,1.2c0,0.1,0,0.2,0,0.2c0,0,0.2,0.1,0.3,0.2c0.3,0.1,0.5,0.4,0.5,0.8c0,0.3,0,0.7-0.1,1
		c-0.1,0.2,0,0.3,0.2,0.4c0.1,0.1,0.3,0.2,0.5,0.4c0.1,0.2,0.2,0.4,0.3,0.7c0.1,0.3,0.1,0.6,0.1,0.9c0,0.1,0,0.2,0.1,0.3
		c0.1,0.4,0.2,0.7-0.1,1c-0.3,0.2-0.6,0.2-0.9,0.1c-0.1,0-0.1,0-0.2,0c-0.2,0-0.3,0-0.6,0c-0.2,0-0.4,0-0.6,0c-0.1,0-0.3,0-0.4,0
		c-0.3,0-0.6,0-0.8,0c-0.2,0-0.4-0.2-0.6-0.3c-0.2-0.1-0.3-0.3-0.5-0.5c0,0-0.1,0.1-0.3,0.1c-0.4,0.1-0.9,0.2-1.3,0
		c-0.2-0.1-0.4-0.3-0.5-0.5c-0.1-0.1-0.3-0.2-0.3-0.3c0,0-0.1,0-0.2,0c-0.2,0-0.5-0.1-0.6-0.4c-0.1-0.2-0.2-0.5-0.2-0.8
		c0-0.3,0-0.6,0-0.8c0-1.2,0,0.3,0-0.2c0-0.6,0-1.1-0.1-1.2c-0.3-0.3-0.8-0.4-1.2-0.3c-0.6,0.1-1.2,0.4-1.6,0.7
		c-0.6,0.5-0.9,0.9-1.1,1.4c-0.2,0.5-0.2,1-0.2,1.7h0c0,0.4,0.3,1.3,0.7,2.3c0.6,1.3,1.3,2.7,2.1,4c0.2,0.4,0.6,0.8,0.9,1.1
		c0.2,0.2,0.4,0.4,0.6,0.7c0.6,0.8,1.5,1.8,2.3,2.7c0.4,0.4,0.8,0.8,1.2,1.3c0.1,0.1,0.2,0.2,0.4,0.4c0.6,0.6,1.5,1.4,2.4,3.1
		c0.5,0.9,0.8,2,1,3.1c0.1,1.1,0.1,2.2-0.2,3.3c-0.1,0.2-0.2,0.5-0.3,0.9c-0.2,0.4-0.4,0.8-0.4,1c0,0.2,0.1,0.5,0.2,0.7
		c0.2,0.5,0.4,0.9,0.1,1.3c-0.4,0.6-0.8,0.4-1.3,0.2c-0.1,0-0.1-0.1-0.2-0.1c-0.5,0.2-0.5,0.5-0.6,0.9c0,0.3-0.1,0.5-0.2,0.8
		c-0.1,0.1-0.1,0.3-0.2,0.3c-0.1,0.1-0.2,0.1-0.3,0.1c-0.1,0-0.2,0-0.3-0.1c-0.2-0.1-0.4-0.2-0.5-0.4c-0.1-0.1-0.2-0.3-0.3-0.4
		c0-0.1-0.1-0.1-0.1-0.2c-0.1-0.1-0.2-0.2-0.3-0.2c-0.3,0.2-0.7,0.3-1,0.3c-0.1,0-0.2,0-0.3,0.1c-1.1,0.3-0.9,0.3-0.9,1.1
		c-0.2,1.8-0.6,2.4-1.2,3.3c-0.3,0.4-0.5,0.8-0.9,1.4c-0.4,0.8-0.7,1.6-0.8,2.4c-0.1,0.8-0.2,1.5-0.2,2.3c0,0.7,0.1,1.4,0.4,1.9
		c0.2,0.6,0.6,1.1,1,1.7c0.4,0.5,0.3,0.9,0.3,1.4c0,0.1,0,0.3,0,0.4c0,0.7,0,0.9-0.1,1.1c0,0.1,0,0.1,0,0.3c0,0.1,0,0.2,0.1,0.3
		c0,0.1,0.1,0.3,0.1,0.5c0,0,0,0,0,0.1c0,0.2,0,0.4,0,0.6c0,0.3,0,0.6,0,0.9c0,0.2,0.1,0.4,0.1,0.6c0.1,0.3,0.2,0.7,0.1,1.2
		c-0.1,0.4-0.3,0.8-0.4,1.1c-0.1,0.3-0.2,0.5-0.3,0.6c0,0.4,0,0.6,0,0.9c0.1,0.6,0.1,1.3-0.4,2.4c-0.2,0.5-0.7,1.1-1.2,1.6
		c-0.5,0.5-1,1-1.5,1.2c-0.5,0.3-1,0.3-1.6,0.4c-0.3,0.1-0.7,0.1-1.1,0.2c-0.4,0.1-0.9,0.3-1.3,0.5c-0.5,0.2-0.9,0.5-1.3,0.7
		c-0.5,0.3-0.9,0.3-1.2,0.3c-0.2,0-0.4-0.1-0.5-0.3c-0.1-0.1-0.2-0.3-0.2-0.5c0-0.2,0-0.4,0.1-0.6c-0.5,0.3-0.8,0.4-1.1,0.5
		c-0.3,0.1-0.5,0-0.7-0.1c-0.2-0.1-0.3-0.3-0.4-0.6c0-0.3,0-0.7,0.2-1.1c-0.2,0.1-0.4,0.2-0.5,0.2c-0.2,0.1-0.4,0.1-0.6,0.1
		c-0.1,0-0.1,0-0.2,0c-0.3-0.1-0.5-0.3-0.6-0.5c-0.1-0.2-0.1-0.4-0.1-0.6c0-0.1,0-0.2,0-0.2c0.4-1.6,2.4-2.8,2.9-3.1
		c0,0,0.1,0,0.1-0.1c1-0.7,1.8-1,2.4-1.2c0.6-0.2,1-0.4,1.4-0.9c0-0.1,0.1-0.3,0.1-0.5c0.1-0.3,0.1-0.8,0.1-1.1c0-0.7,0.1-0.8,0.3-1
		c0,0,0-0.1,0.1-0.1c0.1-0.3,0.2-0.5,0.2-0.8c0-0.2,0-0.4,0-0.6l0,0c0,0,0,0,0,0c0-0.2,0-0.4,0-0.5c0-0.2-0.1-0.3-0.2-0.6
		c-0.1-0.4-0.4-0.9-0.7-1.3c-0.3-0.4-0.6-0.8-0.9-1c-0.3-0.3-0.7-0.6-1.1-1c-1.5-1.3-3-2.6-4.4-4.2c-0.4-0.4-0.9-1.2-1.3-1.9
		c-0.4-0.8-0.8-1.5-0.9-2c-0.1-0.2-0.1-0.4-0.1-0.6c-0.1-0.3-0.1-0.6-0.3-0.8c-0.3-0.3-0.7-0.5-1.1-0.6c0,0,0,0,0,0
		c-0.2-0.1-0.4-0.2-0.5-0.3c-0.1-0.1-0.3-0.1-0.4-0.2c-1.1-0.5-1.5-1.5-1.8-2c-0.2-0.2-0.3-0.5-0.3-0.7c0-0.2,0-0.4,0-0.7
		c0-0.4-0.6-0.4-0.9,0.1c-0.3,0.4-0.4,0.7-0.7,1.3c-0.1,0.3-0.1,0.8-0.1,1.1c0,0.3,0,0.6-0.1,0.8c-0.1,0.4-0.3,0.6-0.4,0.9
		c-0.2,0.3-0.4,0.7-0.6,1.5c-0.1,0.6-0.1,1.1-0.1,1.6c0.1,0.5,0.2,0.9,0.4,1.2c0,0,0.1,0.1,0.2,0.1c0.1,0.1,0.2,0.1,0.3,0.2
		c0.1,0.1,0.2,0.2,0.2,0.3c0.2,0.3,0.3,0.6,0.3,0.9c0,0.3-0.1,0.5-0.3,0.7c0,0-0.1,0.1-0.1,0.1c-0.2,0.1-0.4,0.3-0.6,0.4
		c-0.2,0.1-0.4,0.1-0.7,0.1c-0.4,0-0.7-0.2-1-0.3c-0.3-0.2-0.5-0.3-1.2,0c-0.5,0.3-1,0.5-1.4,0.6c-0.5,0.1-1,0.2-1.6,0.2h0
		c-1.2,0-2.6,0-3.8,0.2v0c-0.6,0.1-0.8,0.5-1,0.9c-0.1,0.3-0.3,0.5-0.5,0.8c-0.2,0.3-0.5,0.4-0.8,0.5c-0.4,0.1-0.7,0-1-0.1
		c-0.2-0.2-0.5-0.4-0.7-0.6c-0.2-0.2-0.5-0.5-0.7-0.7c-0.2-0.3-0.4-0.5-0.7-0.7c-0.2-0.1-0.3-0.2-0.5-0.3c-0.2,0-0.5,0-0.8,0
		c-0.3,0.1-0.7,0.2-1.2,0.3c-0.2,0.1-0.3,0.1-0.3,0.1c-0.7,0.2-1.6,0.5-2.1,0.2c-0.2-0.1-0.5-0.4-0.6-0.7c-0.1-0.3-0.1-0.6,0-0.9
		c0.1-0.2,0.2-0.3,0.3-0.4c-0.2,0-0.3,0-0.5,0c-0.2,0-0.4-0.1-0.6-0.2c-0.2-0.2-0.3-0.4-0.2-0.7c0-0.2,0.1-0.4,0.2-0.6
		c0.2-0.3,0.5-0.5,0.9-0.7c-0.3,0-0.5,0-0.7-0.1c-0.2-0.1-0.4-0.2-0.5-0.3c-0.2-0.2-0.3-0.4-0.2-0.7c0.1-0.2,0.2-0.5,0.6-0.7
		c0.2-0.1,0.3-0.2,0.3-0.2c1-0.7,1.9-1.3,3-1.3c1.4,0,2.7,0.5,4.1,1.1c1.3,0.5,2.6,1,3.8,1c1.2,0,2-0.3,2.5-0.6
		c0.5-0.4,0.9-0.8,1.1-1.3c0.2-0.4,0.2-0.9,0-1.3c-0.2-0.5-0.6-1.1-1.1-1.5c0,0,0,0,0,0c-0.7-0.6-1.1-1.4-1.3-2.2
		c-0.2-0.8-0.2-1.5-0.2-2.2c0-1.5,0.6-3.1,1.5-4.4c0.9-1.3,2.2-2.4,3.7-2.9l0,0c0.8-0.3,1.3-0.4,1.7-0.5c-0.2-0.2-0.3-0.4-0.4-0.7
		c-0.1-0.2-0.2-0.5-0.4-0.7c-0.2-0.3-0.4-0.5-0.6-0.7c-0.5-0.6-0.9-1.1-1.6-1.9c-0.6-0.7-0.8-0.9-1-1.2c-1.3-1.6-2.5-2.9-4.1-4.7
		l0,0c0,0,0,0,0,0c0-0.1-0.1-0.2-0.2-0.2c0,0,0,0,0,0l0,0c-0.2,0-0.4,0-1,0.1c-0.3,0.1-0.5,0.1-0.8,0.2c-0.3,0.1-0.5,0.2-0.8,0.3
		c-0.5,0.2-0.9,0.4-1.3,0.5c-0.4,0.1-0.8,0.2-1.1,0.2c-0.3,0-0.5-0.1-0.7-0.1c-0.1,0-0.3-0.1-0.5-0.1c-0.1,0-0.2,0-0.4,0.1
		c-0.1,0-0.2,0.1-0.3,0.1c-0.3,0.2-0.7,0.3-1.1,0.5c-0.4,0.1-0.9,0.3-1.4,0.3c-1.8,0.2-2,0.3-3.3,1c-0.2,0.1-0.5,0.3-0.8,0.5
		c0,0,0,0,0,0c-0.3,0.2-0.7,0.4-1.1,0.5c-0.5,0.2-1,0.3-1.4,0.3c-0.1,0-0.2,0-0.2,0c-0.4,0.1-0.8,0.1-1.1,0
		c-0.5-0.1-0.8-0.2-0.8-0.6c0,0,0,0,0,0l0,0h0l0,0c0-0.1,0-0.1,0-0.2c-0.2,0-0.4,0-0.6,0c-0.5,0-0.8-0.1-1-0.2
		c-0.1-0.1-0.2-0.2-0.3-0.4c0-0.1,0-0.3,0-0.4c-0.2,0-0.4,0.1-0.6,0.1c-1.4,0-1.6-0.4-1.2-0.9c-0.2,0-0.4,0-0.5,0
		c-0.3-0.1-0.5-0.3-0.6-0.4c0,0,0-0.1,0-0.1c-0.3-0.8,0.8-1.4,1.6-1.9c0.1-0.1,0.2-0.1,0.3-0.2c0.6-0.4,1.2-1,1.9-1.7
		c0.6-0.6,1.2-1.3,2-1.9c0,0,0,0,0,0c0.8-0.5,1.7-0.8,2.6-0.9c0.9-0.1,1.8-0.1,2.6-0.1c2.2,0,3.1-0.5,3.9-0.9
		c0.4-0.2,0.7-0.4,1.2-0.5c0.4-0.1,1-0.1,1.4-0.1c0.2,0,0.3,0,0.4,0c0.7-0.1,1.3-0.1,1.7-0.1c0,0-0.1,0-0.1-0.1
		c-0.1,0-0.1-0.1-0.2-0.1c-1.1-0.7-2.1-1.5-2.9-2.3c-0.9-0.8-1.7-1.7-2.5-2.6c-0.6-0.7-1.1-1.4-1.7-2.1c-0.5-0.7-1-1.4-1.5-2.2
		c-0.4-0.6-1-1.5-1.6-2.5c-0.3-0.4-0.5-0.8-1.1-1.7c-0.1-0.2-0.3-0.4-0.5-0.5c-0.3-0.2-0.5-0.4-0.8-0.8c-0.2-0.3-0.4-0.6-0.6-0.9
		c-0.2-0.3-0.5-0.7-0.7-1.1c-0.2-0.4-0.3-1.3-0.3-2c0-0.2,0-0.4,0-0.5l0,0l0,0c0-0.2-0.1-0.8-0.3-0.9c0,0-0.1,0-0.1,0
		c-0.4-0.1-0.9-0.2-1-0.7c0,0,0-0.1,0-0.1c0-0.4,0.2-0.6,0.5-0.8c0.2-0.1,0.5-0.2,0.7-0.2c0.1,0,0.1,0,0.2,0c-0.1,0-0.2,0-0.3,0
		c-0.3,0-0.6-0.1-0.8-0.3c-0.2-0.2-0.3-0.5-0.2-0.9c0.2-0.8,1.1-0.8,1.9-0.7L70.4,80c-0.3-0.3-0.6-0.6-0.6-1h0c0,0,0,0,0,0l0,0
		c0-0.2,0.1-0.4,0.3-0.5c0.1-0.1,0.4-0.2,0.6-0.2c0,0,0.1,0,0.1,0c0.2,0,0.4,0,0.5,0.1c0-0.1,0-0.1,0-0.2c0-0.3,0.1-0.4,0.3-0.6
		c0.1-0.1,0.3-0.1,0.5-0.1c0.5-0.1,1.2,0.1,1.5,0.3c0.3,0.2,0.5,0.4,0.9,0.7c0.3,0.3,0.7,0.7,1.1,1.1c0.7,0.7,1.4,1.5,2,2.2
		c0.5,0.6,0.9,1.1,1,1.5c0.3,0.6,0.2,1.5,0.2,2.4c0,0.7,0,1.5,0.1,2.1c0.2,0.5,0.4,1,0.6,1.5c0.2,0.4,0.5,0.8,0.8,1.2
		c2.2,2.5,5.5,4.5,7.5,5.8c0.3,0.2,0.5,0.3,0.5,0.3c0.3,0.2,0.5,0.2,0.7,0.3c0.1,0,0.2,0.1,0.3,0.1c0.1,0,0.2,0.1,0.2,0.1
		c0.1,0.1,0.3,0.1,0.5,0.1c0.1,0,0.1,0,0.2,0c0.1-0.1,0.2-0.1,0.4-0.1c0.1,0,0.2,0,0.2,0c0.1,0,0.1,0,0.2,0c0.1,0,0.2-0.1,0.3-0.1
		c0,0,0.1-0.1,0.1-0.1c0-0.1,0.1-0.2,0.2-0.2c0.1-0.1,0.2-0.2,0.3-0.2c0.8-0.1,0.9,0,1.3-0.4c0.1-0.2,0.3-0.3,0.5-0.3
		c0,0,0.1,0,0.1,0c0.3,0,0.5,0.1,0.6,0.1c0,0,0.1,0,0.1,0c0.1-0.1,0.2-0.1,0.2-0.2c0-0.1,0.1-0.2,0.1-0.4c0-0.3,0.1-0.6,0-0.8
		c0-0.1,0-0.2-0.1-0.3c0,0-0.1,0-0.3,0c-0.4,0-0.7,0-0.9-0.5c-0.1-0.3-0.1-0.5,0-0.7c0-0.1,0-0.3,0-0.3c-0.1-0.1-0.2-0.2-0.2-0.2
		c-0.1,0-0.1-0.1-0.2-0.1c-0.2,0-0.4,0.1-0.6,0.1c-0.2,0.1-0.4,0.1-0.7,0.1c-0.2,0-0.4,0-0.5-0.1c-0.1,0-0.2,0-0.3,0
		c-0.1,0-0.2,0-0.2,0c-0.2,0-0.5,0-0.7-0.1c-0.2-0.1-0.4-0.2-0.5-0.3c0,0,0,0-0.1-0.1c-0.1-0.1-0.3-0.3-0.4-0.5
		c-0.1-0.2-0.2-0.4-0.2-0.7c0,0,0-0.1,0-0.2c-0.1-0.4-0.2-0.9,0.2-1.2l0,0c0,0,0,0,0,0c0.3-0.2,0.5-0.2,0.6-0.3c0.1,0,0.1,0,0.1,0
		c0,0,0.1,0,0.1-0.1c0.1,0,0.1-0.1,0.2-0.1c0.1,0,0.2-0.1,0.3-0.1c0.1,0,0.1,0,0.2-0.1c0,0,0,0,0.1-0.1c0.1-0.1,0.2-0.2,0.5-0.3
		c0.1,0,0.2-0.1,0.3-0.1c0.3-0.2,0.7-0.3,1.7-0.3c0.3,0,0.6,0.1,0.9,0.1c0.2,0,0.3,0.1,0.5,0.1c0.2,0,0.3,0,0.4-0.1
		c0.1-0.1,0.2-0.1,0.3-0.2c0,0,0.1-0.1,0.1-0.2c-0.1,0-0.2,0-0.3,0c-0.5-0.1-1.2-0.1-1.8-0.1c-0.6,0-1.2,0-1.6,0.2
		c-0.7,0.3-1.5,0.5-2.3,0.8c-0.8,0.2-1.7,0.4-2.5,0.4c-0.4,0-0.8,0-1-0.1c-0.4-0.1-0.6-0.4-0.7-0.9c0,0,0-0.1,0-0.1
		c0-0.2,0.1-0.4,0.3-0.5c0.1-0.1,0.3-0.2,0.6-0.2c0.1,0,0.2,0,0.3,0c0.6,0,1.3,0,1.9-0.1c0.6-0.1,1.1-0.2,1.6-0.4
		c0.4-0.2,0.9-0.4,1.4-0.5c0.5-0.1,1-0.2,1.4-0.2c0.6,0,1.1,0,1.6,0.1c0.4,0.1,0.8,0.1,1.1,0.2c-0.1-0.1-0.1-0.1-0.3-0.2
		c-0.4-0.2-2-0.2-3-0.2c-0.6,0,0.9,0-0.2,0c-0.2,0-0.6,0-0.9,0c-0.3,0-0.5,0.1-0.7,0.1c-0.1,0-0.2,0.1-0.3,0.1
		c-0.1,0-0.2,0.1-0.2,0.1c-0.4,0.1-0.7,0.1-0.9-0.4l0,0l0-0.1c-0.1-0.3-0.3-0.7-0.4-1.3c0-0.1,0-0.3-0.1-0.4c0-0.1,0-0.1,0-0.2
		c0-0.1-0.1-0.2-0.1-0.3c-0.1-0.2-0.1-0.4-0.2-0.7c0-0.2,0-0.4,0.1-0.6c0-0.1,0.1-0.2,0.1-0.2c0-0.1,0-0.2,0-0.3
		c0-0.3,0-0.5,0.1-0.8c0.1-0.2,0.2-0.4,0.3-0.5c0.1-0.1,0.3-0.3,0.5-0.3c0.3-0.1,0.7-0.1,1.1-0.1c0.2,0,0.3,0,0.5,0
		c0.2,0,0.3,0,0.4-0.1c0.1,0,0.3-0.1,0.6-0.1c0.2,0,0.3,0,0.4,0c0.1,0,0.3,0,0.4,0C94.6,79.1,96.1,77.8,97.5,76.7z"/>
	<path class="st3" d="M100.5,80c-0.4-0.3-1.1-0.6-1.4-0.5C98.9,79.6,99,80,99,80.3c0,0.2,0,0.6,0.2,0.7c0.2,0.2,0.7-0.1,1-0.2
		C100.3,80.7,100.7,80.3,100.5,80z"/>
	<path class="st4" d="M112.7,112.4c-1.2-0.8-1.9-1.4-2.5-2.5c-0.5-0.8-0.7-2.2-0.1-2.6c0.5-0.3,1.3-0.1,1.5-0.3
		c0.1-0.1,0.1-0.3-0.1-0.5c-0.5-0.6-1.3-0.9-1.7-1.5c-0.3-0.4-0.4-0.7-0.4-1.2c0-0.4,0.1-0.5-0.3-0.7c-0.4-0.2-0.4,0.3-0.4,1.1
		c0,0.7,0.6,1.2,1,1.5c0.3,0.2,0.5,0.3,0.5,0.6c0,0.2-0.3,0.1-0.5,0.3c-0.1,0.1,0,0.3-0.1,0.4c-0.2,0.3-0.3,0.8-0.3,1.2
		c0,1.8,1,2.9,2.2,4.1c0.2,0.2,0.6,0.7,0.9,1c0.3,0.4,0.7,0.8,0.7,0.3C112.9,113.3,113,112.5,112.7,112.4L112.7,112.4z M91.8,82.3
		c-0.2-0.1-0.3-0.5-0.4-0.8c-0.1-0.8-0.4-0.5-0.9-0.4c-0.2,0-0.5,0-0.6,0c-0.8,0-0.4,0.4-0.7,0.9c-0.2,0.2,0,0.9,0.2,1
		c0.2,0.1,0.5,0,0.8,0c0.5-0.1,0.5-0.3,1-0.3c0.2,0,0.4,0,0.7,0C92.1,82.6,92,82.4,91.8,82.3L91.8,82.3z M90.2,106.5
		c-0.1,0.8,0.1,1.4,0.8,1.7c0.2,0.1,0.4,0.1,0.6,0.2c0.2,0.1,0.1,0.4-0.1,0.4c-0.2,0-0.4-0.1-0.7-0.2c-0.5-0.1-1-0.3-1-0.8
		c0-0.4-0.1-0.9-0.1-1.3c0-0.6-0.4-0.8-0.1-1.6c0.1-0.4,0.2-0.5,0.3-0.8c0.1-0.2,0.3-0.3,0.5-0.2c0.2,0.1,0.2,0.3,0.1,0.7
		c-0.1,0.3-0.1,0.6-0.1,0.9C90.4,105.9,90.2,106.2,90.2,106.5L90.2,106.5z M99.3,75.8c0.2-0.1,0.5-0.4,0.7-0.4
		c0.3-0.2,0.9-0.1,0.8,0.1c-0.2,0.4-0.1,0.5,0,0.6c0.3,0.2,0.4,0.1,0.4,0.6c0,0.4,0,0.9,0.2,1.1c0.2,0.4,0.5,0,0.8-0.3
		c0.3-0.3,0.6-0.3,0.6-0.9c0-0.2-0.2-0.4-0.2-0.6c0-0.3,0.1-0.3,0.4-0.3c0.7,0,0.9-0.3,0.9-0.5c0-0.1-0.6-0.2-1.4-0.2
		c-1.3,0-1-0.3-0.6-0.8c0.4-0.5,1.1-1.1,1.3-1.3c0.4-0.4,0.7-0.8,0.9-0.6c0.2,0.1,0.2,0.3,0.3,0.4c0.2,0.7,0.1,0.7,0.3,0.8
		c0.2,0.1,0.5,0,0.7,0c0.4,0,0.6,0.2,0.8,0.1c0.1-0.1,0.1-0.3,0.1-0.6c0-0.6,0.7-0.7,0.9-0.3c0.4,0.8,0.6,1.1,0.9,1.5
		c0.5,0.8,0.2,0.9-1.5,0.9c-0.5,0-1.1,0.4-1,0.6c0.2,0.3,0.6,0.1,1.3,0.1c1.2,0,1.1,0.2,1.5,0.3c1,0.2,0.3,0.8,0.3,1.6
		c0,0.4-0.1,0.7,0.1,0.7c0.1,0,0.2-0.1,0.3-0.2c0.2-0.2,0.3-0.7,0.3-1c0-1.3,0.7-1,1.2-0.5c0.6,0.6,1.3,1.4,1.7,1.7
		c0.9,0.7,1.4,1.5,1.9,2.4c0.1,0.3,0.2,0.6,0.3,0.9c0.2,0.4,0.5,0.6,0.8,0.9c1.9,1.6,0.7,4.7,1.5,6c0.3,0.4,0,1.3-0.4,1.7
		c-0.6,0.7-0.6,1-0.2,1.8c0.6,1.5,0.8,2.8,0.9,4.6c0,1.6-0.6,2.4-1.2,2.9c-0.3,0.2-0.6,0.5-0.8,0.7c-0.1,0.1,0,0.3,0,0.4
		c0.1,1.7,0,3.8,0,5.4c0,0.7-0.6,0.6-0.7,1c-0.1,0.3,0.2,0.7,0.2,1.1c0,0.9-0.1,1.9-0.3,2.8c-0.1,0.4-0.4,0.6-0.5,1
		c-0.2,1.2-0.2,2.3,0.2,3.5c0.3,0.8,0.8,1.4,1.2,2.2c0.4,0.7,0.7,1.5,1,2.1c0.9,1.6,2.6,3.1,3.3,3.8c0.6,0.6,1.5,1.9,2,3.6
		c0.2,0.7,0.2,1.5,0.2,2.3c0.1,1.1,0.3,2,0.3,2.8c-0.2,2.4-1,2.6-2,4.6c-0.9,1.7-1,3.3-1,4.9c0,1.6,0.6,2.7,1.4,3.9
		c0.4,0.5,0.2,0.9,0.2,1.6c0,1-0.1,0.9-0.1,1.3c0,0.3,0.1,0.5,0.1,0.8c0,0.4,0.1,1,0.1,1.5c0,0.7,0.4,0.9,0.2,1.7
		c-0.1,0.6-0.7,1.4-0.7,1.8c-0.1,1.2,0.4,1.6-0.4,3.3c-0.4,0.9-1.6,2.2-2.4,2.6c-0.8,0.4-1.6,0.3-2.6,0.6c-0.9,0.2-2,0.8-2.8,1.3
		c-1.1,0.6-1.6-0.2-1.1-0.7c0.2-0.2,0.5-0.5,0.7-0.8c0.4-0.6,0.3-1.2,0-0.8c-0.1,0.1-0.6,0.6-0.7,0.7c-2.2,1.7-2.5,0.8-2.1-0.4
		c0.1-0.3,0.5-0.6,0.9-1.1c0.7-1.1,0.4-1.4-0.2-0.7c-0.4,0.5-0.8,1-1.4,1.4c-0.3,0.2-0.7,0.3-0.9,0.3c-0.5-0.1-0.5-0.5-0.4-0.9
		c0.4-1.5,2.5-2.7,2.8-2.9c2.1-1.4,3.1-1,4-2.2c0.2-0.2,0.3-1.1,0.4-1.9c0-0.8,0.2-0.6,0.3-0.9c0.3-0.6,0.3-1.2,0.3-1.5
		c0-0.5,0-0.8-0.2-1.3c-0.3-0.8-0.9-1.9-1.6-2.6c-1.7-1.5-3.8-3.2-5.5-5.1c-0.7-0.8-1.9-2.9-2.2-3.8c-0.2-0.6-0.2-1.2-0.6-1.6
		c-0.5-0.4-1.2-0.7-1.8-1c-0.6-0.3-1.3-0.5-1.4-1c-0.1-0.4,0.2-0.6,0.8-0.9c1.3-0.8,1.6-1.2,1.8-1.5c0.5-0.7,1.2-1.5,1.2-3
		c0-1.7-2-3.7-3.3-4.7c-1-0.8-0.9-1.4-0.3-1.4c0.5,0,1.5,0.2,1.8-0.1c0.3-0.3,0.4-1,0.1-1.4c-0.2-0.3-0.6-0.5-1.1-0.6
		c-0.7-0.1-1.6,0.1-1.6,0.8c0,0.3-0.5,0.5-0.6,0.3c-0.2-0.4-0.6-0.8-0.6-1.4c0-0.5,0.3-1-0.1-1c-0.8,0.2-0.6,1-1.1,1.4
		c-0.1,0.1-0.3,0.3-0.3,0.5c0.1,0.6,1.2,1,2,1.9c1.1,1.1,2.4,2.7,3.7,4.1c0.6,0.7,0.5,1.6,0.5,2.3c0,1.3-0.3,1.7-1.2,2.5
		c-0.1,0.1-1.1,0.6-1.7,1.1c-0.5,0.5-0.9-0.1-0.9-0.4c0-0.6-0.1-2.1,0-3.1c0.1-0.8,0.5-0.9,0.5-1.9c0-0.5-0.1-1-0.3-1.3
		c-0.2-0.3-0.6-0.4-1.1-0.3c-0.6,0.1-0.8,0.1-1.1,0.3c-0.6,0.5-1,0.1-0.6-0.5c0.3-0.5,0.2-0.7,0.2-1c0.1-0.6,0-1.5-0.4-2.1
		c-0.2-0.3-0.4-0.6-1.1-0.7c-1.1-0.2-0.8-0.8-1.5-1.7c-0.8-1-1.2-1.5-2.1-2.7c-1.8-2.2-3-3.7-5.1-5.9c-0.1-0.1-0.3-0.4-0.5-0.4
		c-0.2,0-0.5,0-1.2,0.1c-0.6,0.1-1,0.2-1.7,0.5c-0.9,0.4-1.6,0.7-2.2,0.7c-0.6,0-0.6-0.2-1.2-0.2c-0.3,0-0.6,0.1-0.8,0.2
		c-0.6,0.3-1.3,0.7-2.3,0.8c-2.3,0.2-2,0.3-4.3,1.5c-0.7,0.4-1.8,0.7-2.3,0.8c-0.9,0.1-1.6,0.1-1.7-0.2c0-0.3,0.3-0.3,1-0.6
		c0.2-0.1,1-0.5,1.5-0.9c0.4-0.3,0.4-0.5,0-0.4c-0.3,0-0.7,0.4-1,0.5c-0.8,0.4-1.2,0.8-2.5,0.9c-0.9,0-1-0.5-0.4-0.7
		c0.6-0.2,1.4-0.6,1.8-0.8c0.5-0.2,0.8-0.4,1-0.6c0.3-0.3,0.1-0.6-0.1-0.5c-0.1,0-0.7,0.4-0.9,0.5c-0.5,0.2-1.2,0.5-1.8,0.8
		c-0.5,0.2-0.9,0.3-1.4,0.3c-1.7,0-0.1-0.9,0.6-1.3c0.4-0.2,1.3-0.8,1.2-1.1c-0.2-0.3-0.6,0.1-1,0.4c-0.4,0.3-1.1,0.6-1.5,0.9
		c-0.7,0.4-1.1,0.1-1.2-0.1c-0.2-0.5,1.1-1.2,1.7-1.5c1.3-0.8,2.4-2.5,3.9-3.6c1.4-1,3.4-1,4.9-1c3.3,0,3.9-1.1,5.2-1.5
		c0.5-0.1,1.4-0.1,1.7-0.1c1.9-0.2,2.7,0.1,2.8-0.2c0.1-0.5-0.2-0.3-0.6-0.5c-0.2-0.1-0.3-0.3-0.5-0.4c-2.2-1.4-3.7-3-5.3-4.8
		c-1.2-1.3-2.1-2.7-3.1-4.2c-0.6-0.9-1.7-2.7-2.6-4.2c-0.4-0.6-0.9-0.7-1.3-1.3c-0.4-0.7-0.9-1.3-1.3-2c-0.2-0.4-0.2-1.8-0.2-2.3
		c0-0.3-0.1-1.1-0.6-1.3c-0.3-0.1-0.7-0.1-0.8-0.4c-0.1-0.5,0.7-0.7,1.1-0.7c0.3,0,0.4,0.2,0.6,0.2c0.2,0,0.4-0.1,0.4-0.4
		c0-0.3-0.6-0.7-1.3-0.7c-0.4,0-0.6-0.2-0.5-0.7c0.1-0.5,1.1-0.4,1.8-0.4c0.6,0,0.5-0.1,0.3-0.5c-0.3-0.4-0.8-0.8-0.8-1.1
		c0-0.2,0.1-0.3,0.6-0.3c0.6,0,0.8,0.1,1.3,0.5c0.3,0.2,0.4,0.3,0.6,0.2c0.1-0.1-0.1-0.4-0.6-0.9c-1-1,0.9-0.8,1.3-0.5
		c0.5,0.4,1.1,0.9,1.9,1.8c1.2,1.2,2.6,2.8,2.9,3.5c0.4,1.1,0,3.1,0.4,4.4c0.3,1,0.8,2,1.5,2.9c2.5,2.8,6.2,5,8.1,6.2
		c0.4,0.3,0.8,0.3,1.2,0.4c0.3,0.1,0.4,0.2,0.8,0.2c0.4,0,0.4-0.2,0.6-0.2c0.2,0,0.4,0,0.5-0.1c0.3-0.1,0.5-0.2,0.6-0.4
		c0.1-0.2,0.3-0.3,0.4-0.1c0.6,0.7-0.3,1.9-1.1,2.7c-0.6,0.6-1.3,1.2-1.6,1.6c-0.4,0.4-1,1-1.3,0.9c-0.2,0-0.4-0.2-0.4-0.8
		c0-0.7-0.3-0.7-0.4-1.1c-0.1-0.2-0.1-0.4-0.2-0.7c-0.1-0.4,0-0.6-0.1-0.9c0-0.1-0.1-0.5-0.3-0.5c-0.2,0-0.2,0.4-0.3,0.7
		c0,0.3,0,0.6,0,0.8c0,0.8,0.7,1,0.9,1.9c0,0.3,0,0.6-0.1,0.8c-0.3,0.6,0.3,0.4,0.5,0.4c1,0,1.5-0.5,1.9-1c0.7-0.7,1.1-1.6,2-2.1
		c0.3-0.2,0.6-0.2,0.8-0.6c0.1-0.3,0.2-0.6,0.3-1c0.1-0.3,0.2-0.6,0.3-0.8c0.2-0.4,0.5-0.1,0.4-0.7c-0.1-0.4,0.1-0.6,0.3-0.6
		c0.5,0,0.6,0.3,1,0.1c0.4-0.2,0.5-0.5,0.5-0.9c0.1-0.6,0.1-1.2-0.1-1.4c-0.3-0.3-1,0-1.1-0.4c-0.1-0.3,0.2-0.9-0.1-1.1
		c-0.2-0.3-0.5-0.4-0.7-0.4c-0.6,0-0.9,0.2-1.3,0.2c-0.3,0-0.5-0.1-0.8-0.1c-0.3,0-0.6,0-0.8-0.1c-0.2-0.1-0.3-0.2-0.4-0.3
		c-0.2-0.2-0.5-0.5-0.5-0.9c0-0.3-0.3-0.8,0-1c0.3-0.2,0.5-0.2,0.7-0.3c0.1-0.1,0.2-0.1,0.3-0.2c0.1-0.1,0.3-0.1,0.5-0.2
		c0.1-0.1,0.2-0.2,0.4-0.3c0.4-0.1,0.6-0.4,1.8-0.4c0.5,0,0.9,0.2,1.3,0.2c0.4,0,0.9-0.2,1.1-0.5c0.2-0.3,0.3-0.9,0.2-1.6
		c0-0.3-0.1-0.7-0.6-1c-0.5-0.3-2.4-0.3-3.4-0.3c-0.5,0-1.3,0-1.7,0.2c-0.5,0.2-0.7,0.4-0.8,0.1c-0.1-0.3-0.3-0.7-0.5-1.3
		c0-0.2,0-0.3-0.1-0.5c-0.1-0.3-0.2-0.6-0.2-1c0-0.3,0.2-0.4,0.2-0.8c0-0.3,0-0.7,0.1-0.9c0.1-0.3,0.3-0.5,0.6-0.6
		c0.3-0.1,0.9-0.1,1.4-0.1c0.5,0,0.5-0.2,0.9-0.2c0.3,0,0.6,0.1,0.9,0C95.7,79.4,97.5,77,99.3,75.8L99.3,75.8z M75.2,84
		c0-0.5,0-0.6-0.3-0.9c-0.2-0.3-0.6-0.2-0.4,0.2c0.1,0.2,0.2,0.2,0.2,0.5c0,0.3,0.1,0.6,0.3,0.6C75.1,84.4,75.2,84.2,75.2,84
		L75.2,84z M81.4,96.2c0-0.1,0-0.5-0.2-0.5c-0.3,0-0.2,0.6-0.2,0.9c0,0.2,0,0.5,0.2,0.5C81.4,97,81.4,96.4,81.4,96.2L81.4,96.2z
		 M82.7,95.8c0,0.5,0,1.1,0.3,1.5c0.2,0.3,0.2,1.1,0.1,1.2c-0.2,0.3-0.3,0.3-0.4,0.6c-0.2,0.3-0.1,0.5,0.2,0.5c0.3,0,0.8-0.7,0.8-1
		c0.1-0.9-0.3-1.1-0.3-1.9c0-0.3,0.1-0.8-0.1-1.1C83,95.3,82.7,95.3,82.7,95.8L82.7,95.8z M72.3,111.6c0.3,0,0.3-0.1,0.4-0.3
		c0.5-0.6,0.2-0.6-0.3-0.8c-0.1,0-0.3-0.1-0.4-0.1c-0.1,0-0.1-0.3-0.3-0.3c-0.5-0.1,0,0.6,0,0.7C71.8,111.1,72,111.6,72.3,111.6
		L72.3,111.6z M99.2,78.9c-0.8,0-1,0.2-1.4,0.7c-0.1,0.1-0.1,0.3-0.2,0.4c-0.1,0.2-0.3,0.4-0.3,0.6c-0.1,0.6,0.1,0.7,0.7,0.8
		c0.5,0.1,1.1,0,1.7,0c0.7,0,0.7-0.2,1.2-0.4c0.9-0.4,1.8-1.1,1.5-1.4c-0.2-0.2-0.6-0.1-0.9-0.2c-0.4-0.1-0.5-0.4-1.1-0.5
		C99.9,78.9,99.6,78.9,99.2,78.9L99.2,78.9z M106.7,81.6c-0.2-0.1-0.4-0.3-0.6-0.6c-0.1-0.2-0.3-0.3-0.3-0.5c0-0.2-0.1-0.5-0.3-0.5
		c-0.4,0-0.5,0.9-0.3,1.1c0.2,0.3,0.2,0.3,0.2,0.4c0.1,0.2,0.3,0.3,0.5,0.4c0.2,0.1,0.2,0.3,0.7,0.3c0.1,0,0.3-0.1,0.3-0.2
		C107,81.8,106.8,81.7,106.7,81.6L106.7,81.6z M98.1,83.4c0.1-0.2,0-0.5-0.3-0.1c-0.1,0.1-0.1,0.4-0.2,0.6c-0.1,0.1-0.2,0.4-0.2,0.5
		c0,0.2,0.1,0.2,0.2,0.5c0,0.2,0.1,0.3,0.1,0.4c0.2,0.4,0.4,0.4,0.5,0.8c0,0.4,0.1,0.8,0.4,0.8c0.5,0,0.1-0.8,0.2-1.5
		c0-0.2,0-1,0.4-0.7c0.1,0.1,0.4,0.3,0.5,0.7c0.2,0.4,0.1,0.8,0.5,0.8c0.2,0,0.3-0.3,0.3-0.8c0-0.5,0.1-1,0.1-1.6
		c0-0.2,0.3-0.2,0.3-0.6c0-0.2-0.2-0.2-0.4-0.2c-0.5,0.1-0.7,0.4-0.4,1.1c0.2,0.5-0.1,0.7-0.2,0.7c-0.1,0-0.2-0.1-0.4-0.3
		c-0.2-0.2-0.3-0.3-0.4-0.3c-0.2-0.1-0.2,0-0.7,0.6c-0.1,0.2-0.2,0.6-0.3,0.6c0,0-0.2-0.3-0.3-0.5C97.9,84.3,97.8,83.9,98.1,83.4
		L98.1,83.4z M104.2,82.4c0.2-0.8,0.2-0.8,0.1-0.9c-0.4-0.4-0.9,0-0.9,1.4c0,0.6,0.1,1,0.5,1.1c0.4,0.1,1-0.1,1.5,0.3
		c0.2,0.2,0.3,0.6,0.4,0.9c0.8,1.4,0.6,4.7,0.7,6.5c0,0.8,0.2,1.4,0.4,2.1c0.1,0.5,0,1.1,0.3,1.1c0.2,0,0.3-0.7,0.3-1.7
		c0-1.5,0.5-2.6,0.9-3.6c0.3-0.9,0.8-1.6,0.8-3c0-1.2-0.1-1.8,0.3-1.8c0.5,0,0.5,0.4,0.8,1c0.3,0.5,0.9,1.7,1,3.7
		c0.1,1.4-0.3,1.6-0.2,2.7c0,0.5,0.1,0.9,0.2,1.3c0.1,0.8,0.2,1.2,0.8,1c0.6-0.2,1.2-0.9,1.7-1.8c0.5-0.9,0.6-2,0.8-2.6
		c0.2-0.7,0.3-1.7,0.3-2.8c0-1.4-0.4-2.7-1.1-3.6c-0.3-0.4-0.5-0.6-1.2-0.6c-0.5,0-0.7,0.1-0.7,0.3c0,0.2,0.5,0.4,0.8,0.6
		c0.9,0.6,1.1,1.1,1.3,1.6c0.9,2.2,0.1,3.1,0,4.2c0,0.5-0.4,1.5-0.8,2.4c-0.4,0.9-0.9,1.6-1.2,1.5c-0.5-0.1-0.4-0.9-0.4-1.5
		c0-0.4,0.1-1.3,0.1-2.2c0-1.1,0-2.3-0.1-2.7c-0.3-1.4-1.3-2.9-1.6-3.2c-0.3-0.5-0.4-0.7-0.7-0.8c-0.7-0.1-0.6,0.7-0.7,1.6
		c0,1,0,1.6-0.2,2.3c-0.1,0.3-0.1,0.7-0.1,1c0,0.3-0.2,0.5-0.3,0.8c-0.1,0.3-0.2,0.6-0.3,0.9c-0.1,0.2-0.2,0.3-0.3,0.4
		c-0.1,0.1-0.2,0.3-0.3,0.3c-0.2,0-0.2-0.2-0.1-0.6c0.2-1.2,0-1.9-0.1-2.5c-0.1-1.3,0-2.1-0.4-2.9c-0.5-0.8-1-0.9-1.7-1.1
		C104.1,83.4,103.9,83.4,104.2,82.4L104.2,82.4z M99.3,88.1c0.4-0.4,0.6-0.6,0.8-0.5c0.1,0,0.1,0.1-0.2,0.5
		c-0.1,0.2-0.6,0.6-0.9,0.8c-0.3,0.2-0.7,0.9-0.9,1.7c-0.2,0.5-0.2,1.1-0.1,1.3c0.3,0.4,0.5,0.1,1-0.5c0.5-0.5,1.3-1.3,1.7-2
		c0.3-0.5,0.3-0.8,0.5-1.1c0.1-0.2,0.1-0.6,0.4-0.6c0.3,0.1,0.2,0.5,0.1,0.8c-0.4,1.1-1.2,1.7-1.7,2.7c-0.1,0.2-0.3-0.2-0.2,0.8
		c0,0.6,0,1.4,0.1,2c0.1,0.3,0.3,0.4,0.3,0.6c0.1,0.5,0,0.9,0.5,0.8c0.6-0.1,0.6-1.2,0.8-2.1c0.1-0.3,0.2-0.5,0.3-0.8
		c0-0.5,0.3-1.1,0.7-1.5c0.4-0.5,0.9-0.8,1.1-1c0.2-0.2,0.4-0.4,0.4-0.6c0-0.1,0-0.2,0-0.3c0-0.1,0-0.2,0.1-0.4c0.1-0.2,0-0.6,0-0.8
		c0-0.4,0.1-0.8,0.2-1.1c0-0.2,0.1-0.4,0.3-0.4c0.1,0,0.1,0.2,0.1,0.6c0,0.5,0,1.2-0.1,1.6c0,0.4,0.1,0.8,0,1.1
		c-0.2,0.2-0.3,0.3-0.6,0.6c-0.2,0.2-0.4,0.4-0.6,0.6c-0.3,0.3-0.6,0.5-0.8,1c-0.1,0.2-0.1,0.3-0.2,0.6c-0.1,0.2-0.2,0.5-0.2,0.7
		c0,0.3-0.1,0.6-0.1,0.8c-0.1,0.3-0.2,0.4-0.3,0.6c-0.1,0.2-0.1,0.6-0.2,0.8c-0.4,0.9-0.3,1.4,0.1,2.2c0.3,0.6,0.5,1.1,0.7,1.7
		c0.2,0.4,0.5,1.1,0.5,1.4c0,0.4,0,0.9-0.2,1.3c-0.1,0.2-0.2,0.5-0.4,0.6c-0.2,0.2-0.3,0.4-0.1,0.6c0.2,0.1,0.3-0.1,0.5-0.3
		c0.2-0.2,0.5-0.4,0.7-0.8c0.2-0.4,0.3-1,0.4-1.5c0.1-0.3,0.1-0.7,0.1-0.9c-0.1-1.2,0.8-1,1.1-0.5c0.1,0.2,0.1,0.6,0.2,0.8
		c0.1,0.2,0.3,0.4,0.3,0.6c0,0.4,0.4,0.6,0.6,1.3c0.1,0.5-0.1,1.3-0.1,1.7c0.1,0.7-0.2,0.7-0.2,1.4c0,0.4,0.7,0.5,0.8,0.1
		c0.1-0.4,0.3-0.5,0.4-0.5c0.1-0.1,0.1-0.3,0.2-0.5c0.1-0.3,0.3-0.4,0.4-1.1c0-0.6,0.3-1,0.3-1.4c0.2-0.9,0.1-1.7,0.1-2.3
		c0-0.3,0.2-0.6-0.2-0.8c-0.3-0.2-0.3-0.5-0.1-0.6c0.3-0.1,0.4,0.1,0.4,0.2c0.1,0.1,0.3,0.5,0.4,0.7c0.1,0.2,0.3,0.4,0.4,0.7
		c0.2,0.3,0,0.8,0.3,1.4c0.3,0.6,0.9,0.8,0.9,0.1c0-1,0.1-3-0.1-3.8c-0.2-0.5-0.6-1-0.8-1.3c-0.4-0.6-0.6-1.3-0.3-1.5
		c0.3-0.2,0.9,0.3,1.6,1.4c0.5,0.8,0.4,1.5,0.4,2.6c0,1.9,0.2,2.6,1,2.6c0.5,0,1-0.7,1.1-1.1c0.1-0.3-0.1-0.7-0.2-1.2
		c-0.3-1.4,0.2-2,0.5-1.7c0.2,0.2,0.5,0,0.6-0.1c0.2-0.2,0.2-0.5,0.2-0.6c-0.1-0.8,0.5-0.8,0.4-0.1c0,0.2-0.1,0.8-0.2,1.1
		c-0.1,0.2-0.3,0.4-0.3,0.5c0,0.4,0.1,0.5,0,0.6c-0.3,0.3-0.9-0.6-0.5,1.6c0,0.4,0.1,1-0.2,1.2c-0.2,0.1-0.3,0.4-0.3,1
		c0,0.5-0.3,0.8-0.3,1.3c0,0.3-0.1,0.7,0,1c0.1,0.7-0.2,0.7-0.5,0c-0.4-1.1,0-1.3-0.4-1.7c-0.1-0.1-0.2-0.9-0.3-1.1
		c0-0.2-0.4-0.4-0.5-0.1c-0.1,0.3-0.1,0.4-0.2,0.6c-0.1,0.2-0.4,0.2-0.7,0.2c-0.2,0-0.5,0-0.6-0.2c-0.2-0.3-0.3-0.3-0.4-0.3
		c-0.4-0.2-0.7-0.5-0.7,0.4c0,0.2,0,0.8-0.1,1.1c-0.1,0.4-0.3,0.4-0.3,0.8c0,0.9-0.2,0.7-0.3,1c-0.1,0.2-0.2,0.5-0.3,0.7
		c-0.1,0.2-0.2,0.3-0.2,0.5c-0.1,0.2-0.1,0.5-0.2,0.7c-0.1,0.2-0.3,0.4-0.3,0.6c0,0.9-0.4,0.8-0.4,0.9c-0.1,0.2-0.1,0.3-0.4,0.3
		c-0.2,0-0.3-0.1-0.3-0.4c0-0.2,0.1-0.3,0.2-0.7c0.1-0.3-0.1-0.7-0.1-0.9c0-1-0.5-1.1-0.5-2.1c0-0.6,0-1.3,0.1-1.6
		c0.1-0.4,0.3-0.6,0.3-1c0-0.4-0.1-0.6-0.2-0.7c-0.1-0.1-0.2-0.3-0.3-0.3c-0.2,0-0.2,0.1-0.4,0.3c-0.3,0.3-0.6,0.8-0.7,1
		c-0.6,0.8-0.7,1.5-1.8,2.2c-0.8,0.5-1.2,0.3-1-0.6c0.2-0.7,0.8-2,1.2-2.7c0.3-0.5,0.4-1,0.3-1.1c-0.6-1.8-2.1-3.4-2.7-5.1
		c-0.1-0.4-0.3-0.9-0.3-1.3c0-1.1,0-1.5-0.2-1.5c-0.2,0-0.3,0.1-0.4,0.2c-0.2,0.1-0.9,0.4-1.1,0.3c-0.2-0.2-0.2-1.4-0.1-1.8
		c0-0.2,0-0.3-0.2-0.3c-0.2,0-0.5,0.2-0.8,0.3c-0.5,0.1-0.8-0.1-0.9-0.2c-0.3-0.3-0.3-0.5,0-0.6c0.2-0.1,0.4,0.1,0.8-0.1
		c0.2-0.1,0.3-0.2,0.4-0.3c0.1-0.1,0.3,0,0.4-0.1c0.2-0.1,0.2-0.3,0.3-0.3c0.2-0.1,0.4-0.1,0.5-0.2C98.6,88.8,99,88.3,99.3,88.1
		L99.3,88.1z M115.9,96.9c-0.1,0.6,0.1,0.6,0.3,0.4c0.1-0.1,0.2-0.2,0.1-0.5C116.3,96.6,116,96.6,115.9,96.9L115.9,96.9z
		 M114.1,98.5c-0.1-0.1-0.2,0-0.2,0.2c0,0.1,0.2,0.2,0.2,0.3c0.2,0.2,0.4,0.3,0.7,0.2c0.3-0.1,0.6-0.4,0.7-0.5
		c0.2-0.2,0.5-0.7,0.5-0.9c0.1-0.4-0.3-0.1-0.4,0.1c-0.1,0.3-0.3,0.4-0.6,0.5C114.9,98.5,114.4,98.7,114.1,98.5L114.1,98.5z
		 M95.7,97.8c0.1-0.3,0-0.5-0.1-0.6c-0.3-0.1-0.4,0.5-0.6,0.7c-0.4,0.6-1,1.4-1.4,2c-0.9,1.2-2.3,2.1-1.7,4.3
		c0.1,0.2,0.1,0.9,0.1,1.3c0,0.5-0.2,0.8-0.2,1c0,0.5,0.3,0.7,0.6,0.1c0.7-1.2,0.7-2.2,1.8-3.3c1.9-1.8,2.2-1.4,2.2-0.4
		c0,0.5,0.4,1.1,0.7,1.7c0.6,1.1,1.7,3.5,2.7,5.1c0.2,0.2,0.1,0.6,0.3,0.8c0.3,0.3,0.5,0.4,0.7,0.2c0.5-0.5-0.1-0.7,0.6-1.4
		c0.6-0.6,0.9-0.9,1.2-1.2c0.5-0.5,0.6-0.7,0.6-1.4c0-0.4,0-0.9,0-1.3c0-0.5-0.7,0.2-0.7,0.5c0,0.8-0.1,0.7-0.5,1.4
		c-0.2,0.4-0.6,0.6-0.8,1c-0.3,0.5-0.6,1-0.7,1.2c-0.1,0.2-0.3,0-0.4-0.1c-0.8-1.1-1.2-2.1-1.8-3.2c-0.4-0.8-0.7-1.8-0.7-3.4
		c0-1.6,0.3-3.1,0.5-3.4c0.1-0.2,0.2-0.8,0.4-1.2c0.1-0.3,0.2-0.4,0.3-0.6c0.2-0.8,0.1-1-0.1-1.1c-0.2-0.2-0.4-0.2-0.6,0
		C98.1,96.6,98,96.8,98,97c0,0.1-0.1,0.3-0.2,0.4c-0.3,1.4-0.6,2.9-1.6,3.4c-1.3,0.7-2.9,1.9-3.3,2.9c-0.1,0.2-0.1,0.4-0.2,0.6
		c-0.1,0.2-0.2,0.4-0.3,0.3c-0.1-0.1-0.1-0.1-0.2-0.1c-0.2,0-0.3-0.2-0.4-0.6c-0.2-0.8,0.4-1.8,1-2.3c1-0.9,1.6-1.7,2.3-2.7
		c0.1-0.2,0.2-0.5,0.3-0.7C95.6,98.1,95.7,98,95.7,97.8L95.7,97.8z M95.8,111.1c-0.4-0.3-0.9-0.6-1.3-1c-0.4-0.3-0.5-0.8-0.3-1.2
		c0.1-0.3,0.3-0.8,0.6-0.8c0.3,0,0.4,0.5,0.4,0.8c0,0.4,0.4,0.7,0.7,0.8c0.3,0.2,0.6,0.5,0.9,0.7c0.3,0.2,0.8,0.8,0.8,1.2
		c0.1,0.5,0.4,0.5,0.5,0.1c0-0.2,0-0.3-0.1-0.7c0-0.3,0-0.7-0.1-1.1c-0.1-0.4-0.3-0.9-0.4-1.3c-0.1-0.4-0.1-0.8-0.1-0.9
		c0.2-1.2-0.6-0.4-0.6,0c0,0.3,0,0.8,0.1,1.2c0.4,1,0,1.2-0.5,0.6c-0.4-0.4-0.9-1.4-0.9-2.1c0-0.7-0.5-0.5-1-0.3
		c-0.4,0.2-0.6-0.1-0.3-0.3c0.1-0.1,0.1-0.2,0.1-0.4c0.1-0.3,0-0.5,0.2-0.8c0.3-0.5-0.1-1.5-0.5-0.6c-0.1,0.4-0.3,0.6-0.3,0.9
		c-0.1,0.6-0.1,1.2-0.2,2c0,0.2-0.3,0.4-0.3,1.2c0,1.1,0.8,1.6,1.5,2.2c0.9,0.7,1.3,0.9,1.3,1.5c0,0.5,0.1,1.3,0.5,1.3
		c0.2,0,0.4-0.5,0.4-0.8c0.1-0.4,0.1-0.8,0.1-1c0-0.3-0.2-0.3-0.4-0.6C96.4,111.6,96,111.3,95.8,111.1L95.8,111.1z M101.3,112.7
		c-0.5,0-1.1-0.1-1.3,0.1c-0.1,0.2,0,0.2-0.2,0.4c-0.1,0.1-0.2,0.1-0.2,0.2c-0.1,0.2-0.2,0.4-0.2,0.7c0,0.5,0.4,0.4,0.6,0.2
		c0.1-0.2,0.3-0.4,0.2-0.6c-0.1-0.1,0.2-0.4,0.4-0.4c0.6,0,1.1,0.3,1.6-0.1c0.2-0.2,0-0.6,0.2-1c0.1-0.1,0.3-0.4,0.2-0.5
		c-0.1-0.1-0.2-0.2-0.4-0.1C101.9,112,102.3,112.7,101.3,112.7L101.3,112.7z M107.9,113.2c0-0.5,0.5-0.8,0.9-0.9
		c0.3,0,0.7,0.3,0.5,0.5c0,0.1-0.4,0.3-0.6,0.5c-0.2,0.2-0.5,0.5-0.8,0.3C108,113.6,107.9,113.4,107.9,113.2L107.9,113.2z
		 M116.2,139.4c0.6-2.7,3.1-5.6,3.2-8c0-2.8-1.1-5-2.6-5c1.6,1.5,2,4.5,1.4,6.5C117.6,135.1,115.7,135.1,116.2,139.4L116.2,139.4z
		 M122.5,128.6c0,0.3,0,1,0,1.6c0,0.7,0.4,0.6,0.9,0.5c0.4-0.1,0.9-0.2,1.2-0.4c0.6-0.4,0.9,0.4,1.3,1c0.2,0.3,0.5,0.4,0.6,0.1
		c0.3-0.8-0.1-1.5,1-1.9c0.4-0.2,0.9,0.6,1.2,0.1c0.3-0.4-0.5-1.1-0.4-1.8c0-0.4,0.6-1.5,0.7-1.9c0.5-2.2,0.2-4.4-0.7-6.1
		c-1.1-2-2.2-2.8-2.7-3.4c-1.1-1.3-2.6-2.7-3.5-4c-0.4-0.5-1.1-1-1.6-1.8c-1.3-2.3-2.9-5.4-2.9-6.5c0-1.5,0.2-2.4,1.5-3.5
		c1-0.8,2.4-1.2,3.4-0.4c0.3,0.2,0.3,1,0.3,1.7c0,0.5,0,1.1,0.2,1.4c0.1,0.2,0.4,0.1,0.6,0.3c0.3,0.2,0.6,0.5,0.9,0.8
		c0.5,0.3,1.4-0.4,1.7,0c0.3,0.3,0.5,0.6,0.8,0.6c0.2,0.1,0.6,0,1.1,0c0.5,0,0.8,0,1.1,0c0.2,0,0.6,0.1,0.8,0c0.2-0.2-0.1-0.6-0.1-1
		c0-0.5-0.1-1.1-0.3-1.3c-0.4-0.5-0.9-0.5-0.7-1.2c0.1-0.5,0.1-1.1-0.2-1.2c-0.4-0.2-0.7-0.3-0.5-0.9c0.2-0.5-0.1-0.6-0.6-0.8
		c-0.2-0.1-0.2-0.5-0.5-0.7c-0.3-0.1-0.6,0.1-0.9,0.1c-0.8-0.2-1.8-0.5-2.5-0.5c-1.3,0-2.8-0.1-3.9,0.3c-1.1,0.3-2.2,1.3-3.1,2.5
		c-0.7,1-1.2,2.1-1.2,3.3c0,2.2,0.2,2.3,0.8,3.7c1.2,3.1,3.7,5.9,6,9c1,1.3,2.1,2.6,2.9,3.9c0.8,1.2,1,2.3,1,3.6
		c0,0.7-0.3,1.3-0.5,1.6c-0.6,0.9-1.5,0.9-2.7,0.7c-0.5-0.1-0.9-0.5-1.1-0.3C121.7,126.1,122.5,127.1,122.5,128.6L122.5,128.6z
		 M127.5,102.1c0.1,0.2,0.2,0.5,0.1,0.6c-0.1,0.2-0.5,0.1-0.6-0.1c0-0.1-0.1-0.2-0.2-0.3c-0.1-0.1-0.3-0.1-0.5-0.2
		c-0.3-0.1-0.8-0.3-1-0.1c-0.4,0.2-0.7,0.1-1-0.2c-0.2-0.2,0.3-0.5,0.3-1.2c0-0.4-0.3-0.6-0.2-0.9c0-0.4,0.4-0.4,0.8-0.2
		c0.9,0.4,1.5,0.8,2,1.6C127,101.1,127.4,101.6,127.5,102.1L127.5,102.1z M94.1,122.3c-3,1.1-5,4.3-5,7c0,1.2,0.1,3,1.3,4.1
		c1.1,0.9,1.8,2.2,1.2,3.3c-0.4,1-1.5,2.2-4,2.2c-2.6,0-5.3-2.1-7.9-2.1c-1.1,0-1.9,0.7-3.1,1.5c-1.3,0.9,0.5,1.2,1.5,0.9
		c0.5-0.2,1.4-0.1,0.5,0.4c-0.6,0.4-1.6,0.5-2,1.1c-0.6,0.8,0.4,0.9,1.6,0.7c0.5-0.1,1-0.5,1.2-0.1c0.1,0.2-0.1,0.3-0.4,0.4
		c-0.2,0.1-0.5,0.3-0.7,0.3c-0.5,0-0.7,0.1-1,0.6c-0.2,0.4,0.1,0.8,0.4,1c0.5,0.3,1.4-0.1,2.1-0.3c1-0.3,1.6-0.5,2.2-0.4
		c0.6,0.1,0.9,0.5,1.5,1.1c0.4,0.4,0.8,0.9,1.3,1.3c0.2,0.2,0.7,0.1,1.1-0.3c0.6-0.7,0.5-1.6,1.8-1.9c1.2-0.2,2.7-0.2,3.9-0.2
		c1.3,0,1.8-0.2,2.9-0.8c1.4-0.7,1.5,0.2,2.3,0.3c0.5,0,0.9-0.2,1.1-0.4c0.3-0.2,0.4-0.7-0.2-1.3c-0.1-0.1-0.4-0.2-0.6-0.4
		c-0.5-0.6-0.7-1.8-0.4-3.1c0.3-1.5,0.8-1.6,1-2.4c0.1-0.4,0-1.3,0.2-2c0.7-1.8,1.3-1.9,2-4.5c0.6-2.1-0.4-2.2-2-1.5
		c-0.4,0.2-0.7,0.3-1.1,0.3c-0.7,0-0.9-0.4-0.6-0.5c0.3-0.1,0.6-0.4,0.7-0.5c0.2-0.5,0.4-0.8,0.6-1.4c0.1-0.5,0.1-1.3-1.2-2.2
		C96.1,121.8,95.7,121.7,94.1,122.3L94.1,122.3z M95.2,86.2c-0.6-0.1-1.6-0.3-2.7-0.3c-0.6,0-1.7,0.2-2.6,0.6
		c-1.1,0.5-2.4,0.5-3.7,0.5c-0.5,0-0.7,0.2-0.7,0.4c0.1,0.6,0.6,0.6,1.3,0.6c1.6,0,3.3-0.6,4.6-1.1c0.9-0.3,2.5-0.2,3.6-0.1
		C95.5,87,95.5,86.3,95.2,86.2z"/>
	<path class="st5" d="M26.7,164.8c-1.5-0.5-2.9-1-3.8-1.5c1-0.8,2.1-1.6,3.1-2.4c1.4-1.1,2.9-2.2,4.2-3.2l0.3-0.2l-0.2-0.3
		c-1-1.7-2.6-3.6-4-5.5c-1.6-2-3.2-4-3.9-5.5c4,1.6,8.1,3,12.3,4.4c4.2,1.4,8.5,2.7,12.9,3.8l0,4.6c-4.9-1.4-9.5-3.1-14-5.1
		l-0.6-0.2v0.6v12.4C31,166.1,28.7,165.5,26.7,164.8z"/>
	<path class="st5" d="M169.8,157.2l-0.2,0.3l0.3,0.2c1.3,1,2.8,2.1,4.2,3.2c1,0.8,2.1,1.6,3.1,2.4c-1,0.5-2.3,1-3.8,1.5
		c-2,0.7-4.3,1.4-6.3,1.9v-12.4v-0.6l-0.6,0.2c-4.4,2-9.1,3.7-14,5.1l0-4.6c4.3-1.1,8.6-2.4,12.9-3.8c4.2-1.4,8.3-2.9,12.3-4.4
		c-0.7,1.4-2.3,3.4-3.9,5.5C172.3,153.5,170.8,155.5,169.8,157.2z"/>
	<path class="st5" d="M100,166.1c-12.8,0-24.8-0.8-36-2.6c-10.9-1.8-21.1-4.6-30.3-8.6v16.5c9.3,4.1,19.2,6.9,30.1,8.6
		c11,1.7,22.9,2.4,36.2,2.4c13.3,0,25.2-0.7,36.2-2.4c10.9-1.7,20.8-4.5,30.1-8.6v-16.5c-9.2,4-19.4,6.8-30.3,8.6
		C124.8,165.3,112.8,166.1,100,166.1L100,166.1z"/>
	<path d="M150.8,172.5c0.3-0.1,0.6,0,0.9,0.2c0.3,0.2,0.4,0.5,0.5,0.8c0.1,0.3,0,0.6-0.2,0.9c-0.2,0.3-0.4,0.4-0.8,0.5
		c-0.3,0.1-0.6,0-0.9-0.2c-0.3-0.2-0.4-0.5-0.5-0.8c-0.1-0.3,0-0.6,0.2-0.9C150.2,172.7,150.5,172.5,150.8,172.5L150.8,172.5z
		 M146.8,165.1l0.6,3.4l-0.3,0c-0.4-0.9-0.8-1.5-1.5-1.9c-0.6-0.4-1.3-0.5-2-0.4c-0.6,0.1-1.1,0.4-1.5,0.8c-0.4,0.4-0.7,1-0.8,1.6
		c-0.2,0.8-0.2,1.6,0,2.5c0.1,0.9,0.4,1.7,0.7,2.4c0.3,0.7,0.8,1.2,1.3,1.5c0.5,0.3,1.1,0.4,1.9,0.3c0.6-0.1,1.1-0.3,1.6-0.7
		c0.4-0.4,0.9-0.9,1.3-1.7l0.1,0.9c-0.4,0.7-0.9,1.2-1.4,1.5c-0.5,0.4-1.2,0.6-1.9,0.7c-1,0.2-1.9,0.1-2.8-0.2
		c-0.9-0.3-1.6-0.8-2.1-1.5c-0.6-0.7-0.9-1.5-1.1-2.4c-0.2-0.9-0.1-1.9,0.3-2.8c0.3-0.9,0.9-1.7,1.6-2.3c0.7-0.6,1.5-1,2.4-1.1
		c0.7-0.1,1.4-0.1,2.2,0.1c0.5,0.1,0.7,0.1,0.9,0.1c0.1,0,0.3-0.1,0.4-0.2c0.1-0.1,0.1-0.3,0.1-0.6L146.8,165.1L146.8,165.1z
		 M136.9,174.7c0.3,0,0.6,0.1,0.9,0.3c0.3,0.2,0.4,0.5,0.4,0.8c0,0.3,0,0.6-0.3,0.9c-0.2,0.3-0.5,0.4-0.8,0.4
		c-0.3,0-0.6-0.1-0.9-0.3c-0.3-0.2-0.4-0.5-0.4-0.8c0-0.3,0-0.6,0.2-0.9C136.3,174.8,136.6,174.7,136.9,174.7L136.9,174.7z
		 M130.7,168.2l0.4,4.1l0.3,0c0.4,0,0.8-0.1,1-0.3c0.3-0.2,0.5-0.4,0.6-0.7c0.2-0.3,0.2-0.8,0.2-1.3l0.2,0l0.5,5l-0.2,0
		c-0.2-0.9-0.5-1.5-0.9-1.8c-0.4-0.3-0.9-0.4-1.4-0.3l-0.3,0l0.3,3.1c0.1,0.5,0.1,0.8,0.2,0.9c0.1,0.1,0.2,0.2,0.4,0.3
		c0.2,0.1,0.4,0.1,0.6,0.1l0.3,0l0,0.3l-5,0.5l0-0.3l0.3,0c0.3,0,0.5-0.1,0.6-0.2c0.1-0.1,0.2-0.2,0.2-0.4c0-0.1,0-0.4,0-0.9
		l-0.7-6.6c-0.1-0.5-0.1-0.8-0.2-0.9c-0.1-0.1-0.2-0.2-0.3-0.3c-0.2-0.1-0.4-0.1-0.6-0.1l-0.3,0l0-0.3l8-0.8l0.3,2.9l-0.3,0
		c-0.1-0.7-0.4-1.1-0.7-1.4c-0.3-0.3-0.7-0.5-1.2-0.6c-0.3,0-0.8,0-1.6,0.1L130.7,168.2L130.7,168.2z M120,175.2l-1.7-3.3l-1.2,3.5
		L120,175.2L120,175.2z M120.2,175.8l-3.4,0.2l-0.3,1c-0.1,0.3-0.2,0.6-0.1,0.8c0,0.3,0.1,0.5,0.4,0.6c0.1,0.1,0.4,0.1,0.9,0.1
		l0,0.3l-3.2,0.2l0-0.3c0.3-0.1,0.6-0.2,0.8-0.5c0.2-0.3,0.4-0.8,0.7-1.6l2.9-8.2l0.1,0l4,8c0.4,0.8,0.7,1.2,0.9,1.4
		c0.2,0.1,0.4,0.2,0.7,0.2l0,0.3l-4.6,0.3l0-0.3l0.2,0c0.4,0,0.6-0.1,0.8-0.2c0.1-0.1,0.1-0.2,0.1-0.4c0-0.1,0-0.2-0.1-0.3
		c0,0-0.1-0.2-0.2-0.5L120.2,175.8L120.2,175.8z M114.5,169l-8.6,0.3l0.1,2.7l0.3,0c0.1-0.7,0.3-1.3,0.7-1.7
		c0.3-0.3,0.7-0.5,1.4-0.5l0.7,0l0.3,7.7c0,0.5,0,0.8,0,0.9c-0.1,0.2-0.2,0.3-0.3,0.4c-0.2,0.1-0.4,0.2-0.7,0.2l-0.3,0l0,0.3l5-0.2
		l0-0.3l-0.3,0c-0.3,0-0.5,0-0.6-0.1c-0.2-0.1-0.3-0.2-0.3-0.3c-0.1-0.1-0.1-0.4-0.1-1l-0.3-7.7l0.7,0c0.4,0,0.8,0,0.9,0.1
		c0.3,0.2,0.6,0.4,0.8,0.6c0.2,0.3,0.4,0.7,0.5,1.3l0.3,0L114.5,169L114.5,169z M105.1,169.3v2.7h-0.3c-0.2-0.6-0.3-1.1-0.5-1.3
		c-0.2-0.3-0.4-0.5-0.8-0.7c-0.2-0.1-0.5-0.1-0.9-0.1h-0.7v7.7c0,0.5,0,0.8,0.1,1c0.1,0.1,0.2,0.2,0.3,0.3c0.2,0.1,0.4,0.1,0.6,0.1
		h0.3v0.3h-5V179h0.3c0.3,0,0.5-0.1,0.7-0.2c0.1-0.1,0.2-0.2,0.3-0.4c0.1-0.1,0.1-0.4,0.1-0.9v-7.7H99c-0.6,0-1.1,0.1-1.4,0.4
		c-0.4,0.4-0.7,1-0.8,1.7h-0.3v-2.7H105.1L105.1,169.3z M90.5,169.8l-0.1,4.1l0.2,0c0.6,0,1-0.2,1.3-0.6c0.3-0.4,0.5-1,0.6-1.8
		l0.3,0l-0.1,5.2l-0.3,0c0-0.6-0.2-1-0.3-1.4c-0.2-0.4-0.4-0.6-0.6-0.7c-0.2-0.1-0.6-0.2-1-0.2l0,2.8c0,0.6,0,0.9,0,1
		c0,0.1,0.1,0.2,0.2,0.3c0.1,0.1,0.3,0.1,0.6,0.1l0.6,0c0.9,0,1.6-0.2,2.2-0.6c0.5-0.4,0.9-1.1,1.2-2l0.3,0l-0.5,3.2l-8.3-0.1l0-0.3
		l0.3,0c0.3,0,0.5,0,0.7-0.1c0.1-0.1,0.2-0.2,0.3-0.4c0.1-0.1,0.1-0.4,0.1-0.9l0.1-6.6c0-0.5,0-0.7,0-0.8c0-0.2-0.1-0.3-0.3-0.4
		c-0.2-0.1-0.4-0.2-0.7-0.2l-0.3,0l0-0.3l8,0.1l-0.1,3l-0.3,0c-0.1-0.7-0.3-1.2-0.5-1.6c-0.2-0.3-0.6-0.6-1-0.7
		c-0.3-0.1-0.8-0.1-1.5-0.2L90.5,169.8L90.5,169.8z M85.9,175.5l-0.6,3.5l-8.5-0.6l0-0.3l0.3,0c0.3,0,0.5,0,0.7-0.1
		c0.1-0.1,0.2-0.2,0.3-0.3c0.1-0.1,0.1-0.4,0.1-0.9l0.5-6.6c0-0.5,0-0.8,0-1c0-0.1-0.1-0.3-0.3-0.4c-0.1-0.1-0.4-0.2-0.6-0.2l-0.3,0
		l0-0.3l5.1,0.4l0,0.3l-0.4,0c-0.3,0-0.5,0-0.7,0.1c-0.1,0.1-0.2,0.2-0.3,0.3c-0.1,0.1-0.1,0.4-0.1,0.9l-0.5,6.4c0,0.5,0,0.8,0,1
		c0,0.1,0.1,0.3,0.3,0.3c0.1,0.1,0.4,0.1,0.8,0.1l0.8,0.1c0.5,0,0.9,0,1.3-0.2c0.3-0.2,0.7-0.4,0.9-0.8c0.3-0.4,0.6-1,0.8-1.7
		L85.9,175.5L85.9,175.5z M62.6,174l-3.3-0.5l-0.5,0.9c-0.2,0.3-0.3,0.6-0.3,0.8c0,0.3,0,0.5,0.2,0.7c0.1,0.1,0.4,0.2,0.9,0.3l0,0.3
		l-3.1-0.4l0-0.3c0.3,0,0.6-0.1,0.9-0.3c0.3-0.2,0.6-0.7,1-1.4l4.5-7.5l0.1,0l2.3,8.6c0.2,0.8,0.4,1.3,0.6,1.6
		c0.1,0.2,0.4,0.3,0.6,0.4l0,0.3l-4.6-0.6l0-0.3l0.2,0c0.4,0.1,0.6,0,0.8-0.1c0.1-0.1,0.2-0.2,0.2-0.3c0-0.1,0-0.2,0-0.3
		c0,0,0-0.2-0.1-0.6L62.6,174L62.6,174z M62.5,173.5l-0.9-3.6l-1.9,3.2L62.5,173.5L62.5,173.5z M59.7,166.4l-3.1-0.6l-0.1,0.3
		c0.3,0.1,0.6,0.2,0.8,0.3c0.1,0.1,0.2,0.2,0.3,0.3c0.1,0.1,0.1,0.3,0,0.4c0,0.1-0.1,0.3-0.2,0.4c-0.1,0.2-0.3,0.5-0.6,1l-2.7,4
		l-1.1-5.3c-0.1-0.6-0.2-0.9-0.2-1c0-0.1,0-0.2,0-0.3c0-0.1,0.1-0.2,0.2-0.3c0.2-0.1,0.5-0.1,0.9,0l0.2,0l0.1-0.3l-4.5-0.9l-0.1,0.3
		c0.4,0.1,0.6,0.3,0.7,0.5c0.1,0.2,0.3,0.8,0.5,1.8l1.7,8.4l0.2,0l4.7-6.9c0.6-0.8,0.9-1.3,1.2-1.5c0.3-0.3,0.7-0.4,1-0.4
		L59.7,166.4L59.7,166.4z M76.3,174.9l-0.7,3.5l-8.4-0.9l0-0.3l0.3,0c0.3,0,0.5,0,0.7-0.1c0.1-0.1,0.2-0.2,0.3-0.3
		c0.1-0.1,0.1-0.4,0.2-0.9l0.7-6.6c0.1-0.5,0.1-0.8,0-1c0-0.1-0.1-0.3-0.3-0.4c-0.1-0.1-0.4-0.2-0.6-0.2l-0.3,0l0-0.3l5.1,0.6l0,0.3
		l-0.4,0c-0.3,0-0.5,0-0.7,0.1c-0.1,0.1-0.2,0.2-0.3,0.3c-0.1,0.1-0.1,0.4-0.2,0.9l-0.7,6.3c-0.1,0.5-0.1,0.8,0,1
		c0,0.1,0.1,0.3,0.3,0.3c0.1,0.1,0.4,0.1,0.8,0.2l0.8,0.1c0.5,0.1,0.9,0,1.3-0.1c0.4-0.1,0.7-0.4,1-0.8c0.3-0.4,0.6-0.9,0.9-1.7
		L76.3,174.9z"/>
	<polygon class="st4" points="79.3,0 81.6,7.1 89.1,7.1 83,11.4 85.4,18.5 79.3,14.1 73.2,18.5 75.6,11.4 69.4,7.1 77,7.1 	"/>
	<polygon class="st4" points="120.7,0 123,7.1 130.6,7.1 124.4,11.4 126.8,18.5 120.7,14.1 114.6,18.5 117,11.4 110.9,7.1 
		118.4,7.1 	"/>
	<path d="M73.9,42.3c0.4-0.4,0.6-0.9,0.6-1.4c0-0.5-0.2-1-0.6-1.4c-0.4-0.4-0.9-0.6-1.4-0.6c-0.5,0-1,0.2-1.4,0.6
		c-0.4,0.4-0.6,0.9-0.6,1.4c0,0.5,0.2,1,0.6,1.4c0.4,0.4,0.9,0.6,1.4,0.6C73,42.9,73.5,42.6,73.9,42.3z M71.2,40.9
		c0-0.7,0.6-1.3,1.3-1.3c0.7,0,1.3,0.6,1.3,1.3c0,0.7-0.6,1.3-1.3,1.3C71.8,42.2,71.2,41.6,71.2,40.9z"/>
	<path d="M100,39.2c0.5,0,1-0.2,1.4-0.6c0.4-0.4,0.6-0.9,0.6-1.4c0-0.5-0.2-1-0.6-1.4c-0.4-0.4-0.8-0.6-1.4-0.6
		c-0.5,0-1,0.2-1.4,0.6c-0.4,0.4-0.6,0.9-0.6,1.4c0,0.5,0.2,1,0.6,1.4C99,39,99.5,39.2,100,39.2z M100,35.9c0.7,0,1.3,0.6,1.3,1.3
		c0,0.7-0.6,1.3-1.3,1.3c-0.7,0-1.3-0.6-1.3-1.3C98.7,36.5,99.3,35.9,100,35.9z"/>
	<path d="M127.5,42.9c0.5,0,1-0.2,1.4-0.6c0.4-0.4,0.6-0.9,0.6-1.4c0-0.5-0.2-1-0.6-1.4c-0.4-0.4-0.9-0.6-1.4-0.6s-1,0.2-1.4,0.6
		c-0.4,0.4-0.6,0.9-0.6,1.4c0,0.5,0.2,1,0.6,1.4C126.5,42.6,127,42.9,127.5,42.9z M127.5,39.6c0.7,0,1.3,0.6,1.3,1.3
		c0,0.7-0.6,1.3-1.3,1.3c-0.7,0-1.3-0.6-1.3-1.3C126.3,40.2,126.8,39.6,127.5,39.6z"/>
	<path d="M144.5,55.8c-7-3.2-14-5.4-21.3-6.8c-7.3-1.4-14.9-2.1-23.1-2.1c-8.2,0-15.8,0.6-23.1,2.1c-7.3,1.4-14.3,3.7-21.3,6.8
		c-0.2,0.1-0.2,0.3-0.2,0.4c0.1,0.2,0.3,0.2,0.4,0.2c7-3.1,13.9-5.4,21.2-6.8c7.3-1.4,14.8-2.1,23-2.1c8.2,0,15.7,0.6,23,2.1
		c7.3,1.4,14.2,3.7,21.2,6.8c0.2,0.1,0.3,0,0.4-0.2C144.7,56,144.6,55.8,144.5,55.8z"/>
	
		<radialGradient id="SVGID_1_" cx="44.3361" cy="41.3092" r="4.0794" gradientTransform="matrix(-1 0 0 1 200.1934 0)" gradientUnits="userSpaceOnUse">
		<stop  offset="0" style="stop-color:#FFFFFF"/>
		<stop  offset="1" style="stop-color:#F7DB46"/>
	</radialGradient>
	<path class="st6" d="M152,37.9C152,37.9,151.9,37.9,152,37.9c2.3-2.3,4.9-1.5,6.7,0.4c1,1,1.5,2.5,0.6,3.9
		c-0.8,1.2-1.9,1.3-2.8,0.9c-0.6-0.3-1.1-0.6-1.6-0.7c0.1-0.3,0.2-0.5,0.2-0.8c0.1-0.7-0.1-1.4-0.6-2C153.8,38.8,153,38.3,152,37.9z
		"/>
	
		<radialGradient id="SVGID_2_" cx="57.3731" cy="45.8133" r="2.0981" gradientTransform="matrix(-1 0 0 1 200.1934 0)" gradientUnits="userSpaceOnUse">
		<stop  offset="0" style="stop-color:#FFFFFF"/>
		<stop  offset="1" style="stop-color:#F7DB46"/>
	</radialGradient>
	<path class="st7" d="M144.9,42.6c0,0.1,0,0.3,0,0.4c0,0.2,0,0.3,0,0.5c0,0.1,0,0.2,0,0.4c0,0.2,0,0.3,0,0.5c0,0.1,0,0.3-0.1,0.4
		c-0.2,0.7-0.8,1.2-1.4,1.7c-0.2,0.2-0.4,0.4-0.7,0.6c-0.1,0.1-0.2,0.2-0.3,0.3c-0.1,0.2-0.3,0.3-0.5,0.4c-0.8-1.1-1.2-2.6-0.6-4
		c0.9-2,2.3-2.9,3.7-2.8c-0.1,0.3-0.1,0.6-0.1,0.9C144.9,42.2,144.9,42.4,144.9,42.6z"/>
	
		<radialGradient id="SVGID_3_" cx="71.5551" cy="30.947" r="3.1425" gradientTransform="matrix(-1 0 0 1 200.1934 0)" gradientUnits="userSpaceOnUse">
		<stop  offset="0" style="stop-color:#FFFFFF"/>
		<stop  offset="1" style="stop-color:#F7DB46"/>
	</radialGradient>
	<path class="st8" d="M130.5,32c-0.4,0.1-0.6,0.2-0.9,0.4c-0.1,0.1-0.3,0.2-0.4,0.2c-0.2,0.1-0.3,0-0.5,0v0c-0.2,0-0.3-0.1-0.6-0.1
		c0,0-0.1,0-0.2,0c-0.2,0-0.5,0-0.6,0c-0.2-0.1-0.4-0.3-0.5-0.5c-0.2-0.2-0.3-0.3-0.5-0.4c-0.5-0.3-1-0.5-1.5-0.4
		c0.7-1.2,2-1.9,3.8-1.9c0.9,0,2,0.1,2.9,1.2c0.3,0.3,0.5,0.9,0.7,1.5c-0.3-0.1-0.5-0.1-0.8-0.1C131.2,31.9,130.8,31.9,130.5,32z"/>
	
		<radialGradient id="SVGID_4_" cx="64.3088" cy="45.3023" r="2.3424" gradientTransform="matrix(-1 0 0 1 200.1934 0)" gradientUnits="userSpaceOnUse">
		<stop  offset="0" style="stop-color:#FFFFFF"/>
		<stop  offset="1" style="stop-color:#F7DB46"/>
	</radialGradient>
	<path class="st9" d="M134.1,43.8c0-0.4,0.2-0.8,0.4-1.1c0.2-0.4,0.6-0.8,0.9-1.1c0.2-0.2,0.4-0.4,0.5-0.6c0.3-0.4,0.4-0.8,0.5-1.2
		c0-0.1,0-0.2,0-0.4c1.1,1.1,2.4,3.7,1.3,5.4c-0.7,1.1-1.6,2.4-2.9,3.2c0.3-1.9,0-2.4-0.5-3.2c-0.1-0.1,0,0-0.1-0.1
		C134.2,44.4,134.1,44.1,134.1,43.8z"/>
	
		<radialGradient id="SVGID_5_" cx="81.5684" cy="41.7874" r="2.3213" gradientTransform="matrix(-1 0 0 1 200.1934 0)" gradientUnits="userSpaceOnUse">
		<stop  offset="0" style="stop-color:#FFFFFF"/>
		<stop  offset="1" style="stop-color:#F7DB46"/>
	</radialGradient>
	<path class="st10" d="M120,38.1L120,38.1L120,38.1c0.2,0.3,0.3,0.5,0.4,0.7c0.1,0.2,0.2,0.4,0.2,0.6c0.1,0.3,0,0.5,0,0.8
		c0,0.1,0,0.2,0,0.2c0,0.2-0.1,0.4-0.2,0.6c-0.1,0.2-0.3,0.4-0.5,0.6c-0.3,0.3-0.7,0.7-1,1.3c-0.2,0.3-0.3,0.8-0.4,1.2
		c-1.7-2.2-2-4.9-0.6-6.8c0.5-0.6,1.2-1.2,2.2-1.5c-0.1,0.2-0.1,0.4-0.2,0.6C119.7,37.3,119.8,37.9,120,38.1L120,38.1z"/>
	
		<radialGradient id="SVGID_6_" cx="91.1274" cy="40.4642" r="2.7268" gradientTransform="matrix(-1 0 0 1 200.1934 0)" gradientUnits="userSpaceOnUse">
		<stop  offset="0" style="stop-color:#FFFFFF"/>
		<stop  offset="1" style="stop-color:#F7DB46"/>
	</radialGradient>
	<path class="st11" d="M107.3,39.7c-0.3-0.9,0-1.6,0.2-2.3c0.3-0.9,0.6-1.8,0.4-3c1.8,1.3,3.1,3.4,3,4.8c-0.1,1.6-1,2.6-2.2,3.9
		c-0.2,0.2-0.3,0.3-0.5,0.5c0.1-0.4,0.3-0.8,0.3-1.2c0-0.9-0.3-1.3-0.6-1.7C107.6,40.5,107.4,40.2,107.3,39.7z"/>
	<radialGradient id="SVGID_7_" cx="44.1425" cy="41.3092" r="4.0796" gradientUnits="userSpaceOnUse">
		<stop  offset="0" style="stop-color:#FFFFFF"/>
		<stop  offset="1" style="stop-color:#F7DB46"/>
	</radialGradient>
	<path class="st12" d="M48,37.9C48,37.9,48.1,37.9,48,37.9c-2.3-2.3-4.9-1.5-6.7,0.4c-1,1-1.5,2.5-0.6,3.9c0.8,1.2,1.9,1.3,2.8,0.9
		c0.6-0.3,1.1-0.6,1.6-0.7c-0.1-0.3-0.2-0.5-0.2-0.8c-0.1-0.7,0.1-1.4,0.6-2C46.2,38.8,47,38.3,48,37.9z"/>
	<radialGradient id="SVGID_8_" cx="57.1796" cy="45.8133" r="2.098" gradientUnits="userSpaceOnUse">
		<stop  offset="0" style="stop-color:#FFFFFF"/>
		<stop  offset="1" style="stop-color:#F7DB46"/>
	</radialGradient>
	<path class="st13" d="M55.1,42.6c0,0.1,0,0.3,0,0.4c0,0.2,0,0.3,0,0.5c0,0.1,0,0.2,0,0.4c0,0.2,0,0.3,0,0.5c0,0.1,0,0.3,0.1,0.4
		c0.2,0.7,0.8,1.2,1.4,1.7c0.2,0.2,0.4,0.4,0.7,0.6c0.1,0.1,0.2,0.2,0.3,0.3c0.1,0.2,0.3,0.3,0.5,0.4c0.8-1.1,1.2-2.6,0.6-4
		c-0.9-2-2.3-2.9-3.7-2.8c0.1,0.3,0.1,0.6,0.1,0.9C55.1,42.2,55.1,42.4,55.1,42.6z"/>
	<radialGradient id="SVGID_9_" cx="71.3617" cy="30.947" r="3.1425" gradientUnits="userSpaceOnUse">
		<stop  offset="0" style="stop-color:#FFFFFF"/>
		<stop  offset="1" style="stop-color:#F7DB46"/>
	</radialGradient>
	<path class="st14" d="M69.5,32c0.4,0.1,0.6,0.2,0.9,0.4c0.1,0.1,0.3,0.2,0.4,0.2c0.2,0.1,0.3,0,0.5,0l0,0c0.2,0,0.3-0.1,0.6-0.1
		c0,0,0.1,0,0.2,0c0.2,0,0.5,0,0.6,0c0.2-0.1,0.4-0.3,0.5-0.5c0.2-0.2,0.3-0.3,0.5-0.4c0.5-0.3,1-0.5,1.5-0.4
		c-0.7-1.2-2-1.9-3.8-1.9c-0.9,0-2,0.1-2.9,1.2c-0.3,0.3-0.5,0.9-0.7,1.5c0.3-0.1,0.5-0.1,0.8-0.1C68.8,31.9,69.2,31.9,69.5,32z"/>
	<radialGradient id="SVGID_10_" cx="64.1153" cy="45.3023" r="2.3424" gradientUnits="userSpaceOnUse">
		<stop  offset="0" style="stop-color:#FFFFFF"/>
		<stop  offset="1" style="stop-color:#F7DB46"/>
	</radialGradient>
	<path class="st15" d="M65.9,43.8c0-0.4-0.2-0.8-0.4-1.1c-0.2-0.4-0.6-0.8-0.9-1.1c-0.2-0.2-0.4-0.4-0.5-0.6
		c-0.3-0.4-0.4-0.8-0.5-1.2c0-0.1,0-0.2,0-0.4c-1.1,1.1-2.4,3.7-1.3,5.4c0.7,1.1,1.6,2.4,2.9,3.2c-0.3-1.9,0-2.4,0.5-3.2
		c0.1-0.1,0,0,0.1-0.1C65.8,44.4,65.9,44.1,65.9,43.8z"/>
	<radialGradient id="SVGID_11_" cx="81.3746" cy="41.7874" r="2.3214" gradientUnits="userSpaceOnUse">
		<stop  offset="0" style="stop-color:#FFFFFF"/>
		<stop  offset="1" style="stop-color:#F7DB46"/>
	</radialGradient>
	<path class="st16" d="M80,38.1L80,38.1L80,38.1c-0.2,0.3-0.3,0.5-0.4,0.7c-0.1,0.2-0.2,0.4-0.2,0.6c-0.1,0.3,0,0.5,0,0.8
		c0,0.1,0,0.2,0,0.2c0,0.2,0.1,0.4,0.2,0.6c0.1,0.2,0.3,0.4,0.5,0.6c0.3,0.3,0.7,0.7,1,1.3c0.2,0.3,0.3,0.8,0.4,1.2
		c1.7-2.2,2-4.9,0.6-6.8C81.7,37,81,36.3,80,36.1c0.1,0.2,0.1,0.4,0.2,0.6C80.3,37.3,80.2,37.9,80,38.1L80,38.1z"/>
	<radialGradient id="SVGID_12_" cx="90.9338" cy="40.4642" r="2.7267" gradientUnits="userSpaceOnUse">
		<stop  offset="0" style="stop-color:#FFFFFF"/>
		<stop  offset="1" style="stop-color:#F7DB46"/>
	</radialGradient>
	<path class="st17" d="M92.7,39.7c0.3-0.9,0-1.6-0.2-2.3c-0.3-0.9-0.6-1.8-0.4-3c-1.8,1.3-3.1,3.4-3,4.8c0.1,1.6,1,2.6,2.2,3.9
		c0.2,0.2,0.3,0.3,0.5,0.5c-0.1-0.4-0.3-0.8-0.3-1.2c0-0.9,0.3-1.3,0.6-1.7C92.4,40.5,92.6,40.2,92.7,39.7z"/>
	<radialGradient id="SVGID_13_" cx="100.0698" cy="28.1418" r="2.9544" gradientUnits="userSpaceOnUse">
		<stop  offset="0" style="stop-color:#FFFFFF"/>
		<stop  offset="1" style="stop-color:#F7DB46"/>
	</radialGradient>
	<path class="st18" d="M103.3,28c-0.8-1.3-2.1-1.8-3.3-1.8c-1.2,0-2.5,0.5-3.3,1.8c-0.1,0.1-0.1,0.2-0.2,0.4c0.5,0,0.8,0,1.5,0.3
		c0.1,0.1,0.2,0.2,0.4,0.3c0.2,0.2,0.3,0.3,0.5,0.4c0.2,0.1,0.6,0,0.8,0c0.1,0,0.2,0,0.3,0c0.1,0,0.2,0,0.3,0c0.2,0,0.6,0.1,0.8,0
		c0.2-0.1,0.4-0.3,0.5-0.4c0.1-0.1,0.3-0.3,0.4-0.3c0.7-0.3,1-0.3,1.5-0.3C103.4,28.3,103.4,28.2,103.3,28z"/>
</g>
</svg>
