<?xml version="1.0" encoding="utf-8"?>
<!-- Generator: Adobe Illustrator 21.1.0, SVG Export Plug-In . SVG Version: 6.00 Build 0)  -->
<svg version="1.1" id="Layer_1" xmlns="http://www.w3.org/2000/svg" xmlns:xlink="http://www.w3.org/1999/xlink" x="0px" y="0px"
	 viewBox="0 0 200 200" style="enable-background:new 0 0 200 200;" xml:space="preserve">
<style type="text/css">
	.st0{fill:#FFFFFF;}
	.st1{fill:#3B75B4;}
	.st2{fill:#FF0000;}
	.st3{fill:#A40A10;}
</style>
<g>
	<path class="st0" d="M100,200c-13.4-10.5-26-21.8-37.2-34.6c-20.7-23.6-36.4-51.5-44-82c-4-16.1-5.5-32.2-5.2-48.7
		c7.7-0.2,15.2-1,22.7-2.7c14.8-3.3,29.1-9.4,42.2-17.1C86.1,10.4,93.2,5.4,100,0c6.8,5.4,13.9,10.4,21.4,14.8
		c13.1,7.6,27.4,13.8,42.2,17.1c7.5,1.7,15,2.5,22.7,2.7c0.4,16.5-1.2,32.6-5.2,48.7c-7.6,30.6-23.3,58.4-44,82
		C126,178.2,113.4,189.5,100,200z"/>
	<path class="st1" d="M77.4,23c-0.8-1.3-1.6-2.7-2.2-4.2c-5.5,3-11,5.6-16.6,7.9c-14.2,5.8-28.7,9.2-43.2,9.7
		c-0.2,10.5,0.5,20.8,2,30.9L77.4,23z"/>
	<path class="st2" d="M81.9,28.4c-1.3-1.2-2.4-2.5-3.5-3.9L17.8,69.4c1.7,10.2,4.3,20.2,7.7,29.9L81.9,28.4z"/>
	<path class="st1" d="M88.2,32.7c-1.7-0.9-3.4-1.9-4.9-3.1l-57,71.8c3.2,8.8,7.2,17.4,11.8,25.8c1.9,3.3,3.8,6.7,5.8,9.9L88.2,32.7z
		"/>
	<path class="st2" d="M94.9,35c-1.8-0.4-3.5-0.9-5.1-1.5L45.1,139c8,12.4,17.5,24.2,28.5,35.4L94.9,35z"/>
	<path class="st1" d="M182.5,67.4c1.6-10.1,2.3-20.5,2-30.9c-14.5-0.4-29-3.9-43.2-9.7c-5.6-2.3-11.1-4.9-16.6-7.9
		c-0.6,1.4-1.3,2.8-2.2,4.2L182.5,67.4z"/>
	<path class="st2" d="M174.4,99.3c3.5-9.7,6-19.7,7.7-29.9l-60.6-44.9c-1,1.4-2.2,2.7-3.5,3.9L174.4,99.3z"/>
	<path class="st1" d="M156.1,137.1c2-3.3,4-6.6,5.8-9.9c4.6-8.4,8.5-17,11.8-25.8l-57-71.8c-1.5,1.2-3.1,2.2-4.9,3.1L156.1,137.1z"
		/>
	<path class="st2" d="M126.3,174.4c11.1-11.2,20.6-23,28.5-35.4L110.2,33.5c-1.6,0.7-3.3,1.2-5.1,1.5L126.3,174.4z"/>
	<path class="st1" d="M100,197.6c8.9-7,17.2-14.2,24.7-21.6L103.3,35.3c-1.1,0.1-2.2,0.2-3.3,0.2c-1.1,0-2.2-0.1-3.3-0.2L75.3,176
		C82.8,183.5,91.1,190.7,100,197.6z"/>
	<path class="st2" d="M76.9,17.9c7.8-4.4,15.5-9.5,23.1-15.5c7.6,6,15.3,11.2,23.1,15.5c-3.7,9.2-12.7,15.7-23.1,15.7
		S80.5,27.1,76.9,17.9z"/>
	<path d="M100.1,108.4c0.6,0,1.2,0,1.9,0.1c0.4-0.2,0.8-0.2,1.2-0.2c0.6-0.3,1.8-0.5,2.1,0.4c0.1,0.1,0.2,0.3,0.3,0.4
		c2.1,0.5,4.1,1.3,5.9,2.4c0.3,0.1,0.5,0.2,0.7,0.3c-0.2-0.6-0.2-1,0-1.4c-1.1,0-2.3-0.1-3.5-0.3l-0.1,0l-0.1-0.1
		c-0.7-1.2-1.5-2.5-2.3-3.7c-0.8-1.2-1.7-2.3-2.7-3.4c-0.2-0.2-0.3-0.3-0.5-0.5c-0.3-0.2-0.5-0.4-0.8-0.6c-0.3-0.3-0.6-0.6-0.9-0.9
		c-0.3-0.3-0.7-0.7-1-0.9c-0.6-0.6-1.1-0.8-1.9-0.9c0.8,0.7,1.9,1.8,1.5,2.5l0,0c0,0,0,0,0,0.1c0.3,0.2,0.5,0.5,0.7,0.8
		c-0.1,0.1-0.5,0.1-0.6,0.1c0.6,0.7,1,1.5,1.2,2.4c-0.2,0-0.3,0.1-0.5,0.1c0.5,0.8,0.7,1.7,0.8,2.6c-0.5,0.1-1,0.1-1.4,0.2
		C100,107.8,100.1,108.1,100.1,108.4L100.1,108.4z M116.7,115.7c0.4,0.5,0.8,0.9,1.2,1.4c-0.1-0.1-0.1-0.3-0.1-0.4
		c0-0.2,0-0.4,0-0.6c-0.3-0.1-0.5-0.2-0.7-0.4C117,115.7,116.8,115.7,116.7,115.7L116.7,115.7z M118.9,118.5
		c2.4,3.6,3.8,7.9,3.8,12.5c0,6.3-2.6,11.9-6.7,16.1c-4.1,4.1-9.8,6.7-16.1,6.7c-12.5,0-22.7-10.2-22.7-22.7
		c0-6.3,2.6-11.9,6.7-16.1c1.5-1.5,3.3-2.8,5.2-3.9c0-0.2,0-0.3,0.1-0.4c0.2-0.4,0.6-0.8,1.4-1c0.2-0.2,0.5-0.4,0.8-0.5
		c0.3-0.1,0.6-0.1,0.9,0c0.7-0.5,1.4-0.5,2-0.2l0,0c0.4-0.2,0.7-0.2,1-0.2c0.8-0.2,1.6-0.3,2.4-0.4c0-0.2,0-0.5,0-0.7
		c-1,0.1-1.9,0-2.9,0c-0.5-1.6-1.1-3.2-1.8-4.7c-0.6-1.4-1.3-2.8-2-4.2c-4.6-0.2-9.2-0.7-13.6-2.2c-1.6-0.5-3.2-0.9-4.9-1.3
		c-2.5-0.5-4.6-1-6.8-2.1c-1.1-0.6-2.2-0.9-3.4-1.4c-1.2,0.4-2.6-0.1-3.9,0.1c-0.4,0.2-3.1,0.3-3.1,0.1c-0.3,0.8-0.9,1.3-1.6,1.8
		c-0.4-1.3-0.8-2.8-0.6-4.2c0.2-1.1,1-2.8,2.3-3c0-1.6,0.6-2.8,1.7-3.7c1.1-1,2.6-1.7,4.1-2.2c1.6-0.6,3.3-1,4.7-1.4
		c0.4-0.1,0.8-0.2,1-0.3c0.7-0.2,1.4-0.4,2.2-0.7c0.5-0.1,0.9-0.3,1.3-0.4c-0.1-0.2-0.2-0.3-0.3-0.5l0,0c-0.1-0.3-0.2-0.5-0.2-0.8
		c-0.8,0.1-1.7,0.2-2.2-0.5c-1.4,0.2-2.3-0.5-2.9-1.7c-1.1,0.1-2.1-0.4-2.9-1.1c-1,0.2-1.9-0.3-2.7-0.8c-0.8,0.6-1.9,0.1-2.4-0.7
		c-0.9,0.7-2,0.6-2.8-0.2c-1.2,0.5-2.4,0.7-3.6-0.1c-0.6,0.1-1.1-0.1-1.4-0.7c-0.9,0.4-1.9,0.5-2.7,0c-0.9,0.2-1.9-0.1-2.6-0.6
		c-1.2,0.4-2.3,0-2.9-1.2c-1.2,0.2-2.4,0.1-3.5-0.6c-0.9,0-1.7-0.4-2.2-1.1c-0.5,0.1-0.9,0-1.3-0.3c-0.3-0.3-0.6-0.6-0.7-1.1
		c-0.3,0-0.6-0.1-0.9-0.3c-0.7,0.1-1.2-0.2-1.6-0.8c-0.8,0-1.4-0.5-1.8-1.1c-0.2,0-0.4-0.1-0.6-0.1c-0.9-0.3-1.4-1.2-1.6-2.1
		c-0.7-0.5-0.7-1.4-0.6-2.2c0.2-1.6,0.9-2.8,2.2-1.3c2.3,2.6,5.1,4.8,8.3,6.2c2.7,1.2,5.7,2,8.7,2.5c3.5,0.6,7,0.7,10.2,0.6
		c5.2-0.3,9.8-0.6,14.1,0.4c4.3,0.9,8.3,3.1,12.4,7.7c6.5-1.3,9.4-2.4,12.6-5.6c1.2-1.2,2.4-2.8,3.9-4.7c1.6-2.1,3.4-3.7,5.4-5
		c2-1.3,4.2-2.3,6.5-2.9c4.2-1.3,9.1-1.3,13.6-1.7c10.2-0.9,19.8-2,29.6-4.9c3.8-1.1,7.6-2.4,11.5-3.8c0.7-0.2,1.7-0.4,2.3-0.1
		c0.5,0.3,0.6,0.8,0.2,1.6c-0.2,0.4-0.8,0.9-1.3,1.2c0.2,1.7-0.4,2.9-2.3,3.5c-0.2,0.6-0.7,1.1-1.4,1.1c-0.2,0.4-0.4,0.7-0.8,0.9
		c-0.3,0.2-0.7,0.3-1.1,0.2c-0.3,0.5-0.7,1-1.2,1.2c0.1,0.9-0.2,1.8-0.7,2.5c-0.4,0.6-1,1.1-1.6,1.3c-0.4,0.2-0.8,0.2-1.2,0l0,0
		c0,0-0.1,0-0.1,0c-0.1,0.2-0.2,0.4-0.4,0.5c-0.5,0.3-1.3,0.4-1.9,0.2c-0.3,0.5-0.7,1-1.3,1.2c-0.2,0.6-0.6,1.3-1.1,1.7
		c-0.4,0.3-0.9,0.6-1.4,0.7c-0.4,0.1-0.7,0.1-1.1-0.1c-0.1,0.1-0.2,0.2-0.2,0.3c-0.6,0.6-1.4,0.4-2.2,0.4c-0.3,0.4-0.8,0.5-1.3,0.5
		c-0.2,0-0.4-0.1-0.6-0.2c-0.3,0.9-1.5,2-2.2,2.3c-0.4,0.2-1,0.4-1.4,0c-0.5,0.5-1.3,0.9-2,0.4c-0.3,0.3-0.5,0.5-0.8,0.6
		c-0.2,0.5-0.4,0.9-0.6,1.2c-0.4,0.6-0.8,0.9-1.3,1.2c-0.5,0.4-1,0.7-1.6,0.2c-0.4,0.7-1,1.2-2.2,0.9c0,0.2-0.1,0.5-0.2,0.7
		c-0.2,0.4-0.5,0.7-0.8,1c-0.5,0.5-1.3,0.9-2,0.6c-0.4,0.6-1.5,0.9-2.1,0.4c-0.5,1.2-1.1,1.7-2.1,2.5c-0.5,0.4-0.9,0.8-1.5,0.8
		c-0.2,0-0.5,0-0.7-0.1c-0.3,0.3-0.6,0.5-1,0.5c-0.2,1.2-1.4,1.6-2.4,2.1c-0.3,0.2-0.8,0.3-1.2,0.2l0,0c-0.1,0-0.2-0.1-0.2-0.1
		c-0.1,0.2-0.2,0.4-0.4,0.6c-0.6,0.7-1.8,1.3-2.7,0.8c-0.4,0.4-0.9,0.6-1.4,0.6c3.7,1.2,7.1,3.2,10.3,5.8
		c6.3,5.2,13.8,8.7,21.7,10.8c-0.5,1.8-1.1,2.9-2.4,3.1c-0.9,0.8-1.8,1.3-2.5,1.6c-0.8,0.3-1.4,0.2-2-0.1c-1,0.5-2,0.6-2.7-0.5
		c-0.3-0.1-0.5-0.3-0.7-0.6c-0.3,0.8-1.2,1.6-1.6,1.9l0,0c-0.1,0.1-0.1,0.1-0.2,0.1c-0.9,0.5-2.1,0.2-2.6-0.7c-0.1,0-0.1,0-0.1,0
		c-0.2,0.7-1.7,1.7-2.2,1.8c-0.7,0.2-1.4,0.1-1.9-0.3c-0.2,0.6-0.8,0.9-1.4,1c-1,0.1-1.5,0-2-0.3c-0.7,0.4-1.9,0.7-2.6,0.3
		c0,0.1-0.1,0.1-0.1,0.1l0,0c-0.4,0.5-0.7,0.3-1.2,0.3c-0.8,0-1.5,0.5-1.9-0.7l0,0c0,0,0,0,0-0.1c-0.4-0.1-0.8-0.5-0.9-0.9
		c-0.4-0.2-0.7-0.5-0.8-0.9c-0.6-0.1-1-0.6-1.3-1c0.8,1.5,1.8,3.9,2.3,5.6c-0.8,0.2-1.5,0.4-2.3,0.5c0.1,0.4,0.1,0.9,0,1.3
		c0.1,0.1,0.2,0.2,0.3,0.3l0,0c0.1,0.1,0.1,0.3,0.1,0.4c0.4,0.2,0.6,0.5,0.8,0.8c0.2,0.1,0.4,0.2,0.5,0.3c0.1,0.1,0.2,0.2,0.3,0.3
		c0.6-0.2,1,0.1,1.4,0.4c0.6,0.3,1.2,0.5,1.5,1.2c1.1,0.6,1,1.7,0.3,2.5C119.5,118.1,119.2,118.4,118.9,118.5z"/>
	<path class="st3" d="M89.3,111.7c-1.8,1-3.5,2.3-5,3.7c-4,4-6.5,9.6-6.5,15.7c0,12.2,10,22.2,22.2,22.2c6.1,0,11.7-2.5,15.7-6.5
		c4-4,6.5-9.6,6.5-15.7c0-4.6-1.4-8.8-3.8-12.3c-0.3,0.1-0.6,0.1-1,0.1c0.2-0.2,0.4-0.4,0.6-0.7c-0.6-0.8-1.3-1.7-2-2.4
		c-0.1,0-0.1-0.1-0.2-0.1c-0.6,0.1-1-0.2-1.3-0.7c-0.4,0-0.7-0.2-1-0.5c-0.5,0.2-1.1,0.3-1.7,0.1c-0.3,0.4-0.7,0.6-1.2,0.6
		c-0.3,0.5-0.8,0.7-1.4,0.6c-0.3,0.5-0.7,0.7-1.3,0.7c-0.1,0.2-0.2,0.5-0.4,0.5c-0.3,0.5-0.6,0.7-0.5,1.7c-0.8-0.5-1.2-0.9-1.4-1.8
		c0,0-0.1,0-0.1,0l0,0c-1.2-0.8,0.2-2.2,1.1-2c0.1-0.2,0.3-0.3,0.6-0.4c0.2-0.1,0.5-0.1,0.7-0.2c0.2-0.2,0.3-0.3,0.6-0.4
		c0.2-0.1,0.4-0.1,0.5-0.1c0-0.1,0-0.1,0-0.2c-0.4,0.1-0.8,0.1-1.1-0.2c-0.3,0.2-0.6,0.1-0.9,0c-0.3,0.3-0.7,0.3-1,0.5
		c-0.2,0.2-0.4,0.4-0.5,0.7c-0.3-0.5-0.5-0.8-0.4-1.3c-0.5-1.2,0.4-2.2,1.4-2.1c0.2,0,0.4,0.1,0.7,0.1c0.4-0.1,0.8-0.1,1.2,0
		c0.3-0.1,0.6,0,0.8,0c0.2,0.1,0.4,0.1,0.6,0.2c0.1-0.1,0.2-0.1,0.3-0.1c-1.4-0.8-3-1.4-4.6-1.8c0,0.2-0.1,0.5-0.1,0.6
		c-0.4-0.2-0.5-0.2-1-0.3c-0.4,0.5-1,0.5-1.4,0.3c-0.3,0.6-1,1-1.7,0.7c-0.6,0.4-1.2,0.5-1.8-0.1c-0.2-0.1-0.4-0.1-0.5-0.3
		c-0.1,0.4-0.4,0.6-0.7,0.8c-0.1,0.4-0.2,0.7-0.4,0.9l0,0c-0.3,0.2-0.6,0.3-0.9,0.4c-0.2,0.2-0.4,0.4-0.6,0.5
		c-0.2,0.2-0.5,0.2-0.8,0.2c-0.5,0.6-1,0.8-1.4,0.9c0,0.1,0,0.2,0,0.3l0,0c0,0.1,0.2,0.5,0.3,0.6c-0.6-0.2-1.1-0.3-1.2-1.1
		c-0.4-0.3-0.5-0.8-0.3-1.3c0.2-0.5,0.8-0.9,1.3-1.1c0.2-0.3,0.5-0.5,0.8-0.7c-0.2,0-0.3,0-0.5,0c-0.2,0.2-0.5,0.3-0.7,0.4
		c-0.3,0.1-0.6,0.1-0.9,0.1c-0.3,0.2-0.5,0.3-0.8,0.3l0,0c-0.3,0.1-0.6,0-0.8,0c-0.5,0.3-0.9,0.4-1.2,0.4c-0.2,0.3-0.1,0.7,0,1
		c-0.7-0.2-1-0.5-0.9-1.3C89.4,111.8,89.3,111.7,89.3,111.7z"/>
	<path class="st0" d="M60.6,90.7c1.8,0.7,3.6,1.3,5.4,2.1c1.8,0.9,3.5,1.3,5.3,1.8c-0.6-0.5-0.8-1.3-0.7-2.1c0.6,1.4,1,1.8,1.2,1.7
		c0.7-0.2,0.6-1.8-0.3-1.7c0.6-0.3,0.9,0,1,0.5c0.1,0.5,0.2,1.6-0.4,1.8c0.6,0.1,1.2,0.3,1.8,0.4c-0.5-0.4-0.7-1.4-0.8-1.9
		c-0.1-0.3-0.2-0.6-0.3-0.7c0.4,0.1,0.6,0.3,0.7,0.5c0.1,0.1,0.3,0.8,0.5,1.2c0.3,0.4,0.6,0.2,0.6-0.2c0-0.5-0.4-1.1-0.4-1.6
		c0-0.2,0.1-0.5,0.4-0.8c0,0.2,0,0.4,0,0.7c0.1,0.6,1.1,2.7-0.2,2.9c1,0.2,2,0.5,2.9,0.8c-0.3-0.3-0.5-0.8-0.6-1.2
		c-0.5,0.3-1-0.3-1.1-0.6c-0.2-0.6,0-1.3-0.5-1.9c0.9,0,0.6,1,0.9,1.7c0.4,0.8,0.8-0.9,0.4-1.4c0.5,0.3,0.6,0.7,0.6,1.3
		C77,95.6,78.5,96,78,94.5c0.6,0.3,0.8,1,1.2,1.4c0.5,0.5,0.8,0.4,0.9,0.2c0.3-0.5,0.2-0.8,0.6-1.1c0.1-0.1,0.2-0.3,0.3-0.4
		c0.2,0.1,0.3,0.5,0.6,0.8c0.5,0.5,0.7-0.7,0.7-1c0.1-0.2,0.1-0.4,0.6-0.6c-0.1,0.7,0.5,0.8,0.8,0.7c0.4-0.1,0.5-0.7,0.4-1.1
		c1,0.9-0.3,2.7-1.4,1c0,0.6,0.1,1.5-0.5,1.6c-0.7,0.2-0.9-0.2-1.1-0.7c0,0-0.1,0.1-0.1,0.1l0,0c-0.2,0.2-0.2,0.7-0.1,1
		c0.1,0.4,0.3,0.6,0.6,0.7c0.6,0.1,2,0.5,1.4-0.6c-0.2-0.3-0.4-0.6-0.3-0.6c0.5,0,0.9,0.5,1,0.7c0.2,0.2,0.4,0.3,0.4-0.2
		c0.3,0.3,0.4,0.5,0.6,0.9c0.2,0.5,1.2,0.5,1.8,0.5c0.3-0.1,0.4-0.4,0.3-0.7c-0.1-0.2-0.2-0.3-0.4-0.4c0.7-0.1,1,0.3,1.2,0.7
		c0.3,0.4,0.4,0.3,0.5,0c0.1-0.3-0.2-0.6-0.4-0.7c0.5,0,0.7,0.2,0.8,0.6c0.1,0.9,0.3,0.9,1,0.9c0.5,0,1.4,0.1,1-0.6
		c-0.1-0.2-0.3-0.5-0.4-0.6c-0.1,0.6-0.8,0.9-0.9,0.3c-0.1-0.3,0-0.6,0.7-0.6c-0.1-0.1-0.7-0.4-0.5-1c0.3,0.7,0.7,1,1.2,0.9
		c-0.1,0.5,0.4,1.4,0.9,1.5c0.4,0.1,0.5-0.7,0.3-1c0.4,0.5,1.2,0.2,1.3-0.5c0.1,0.9,0.6,1.1,0.7,0.6c0.2-0.6,0-0.8-0.2-1.1
		c-0.1-0.2-0.1-0.4,0.1-0.6c0.1,0.3,0.3,0.5,0.4,0.7c0.2,0.3,0.2,0.8,0,1.2c-0.3,0.4-0.8,0.9,0.2,0.9c0.1,0,0.4,0,0.8,0
		c0.9-0.1,0.7-0.3,0.3-1C95,97.2,94.9,97,94.9,97c0.4,0,0.5,0.9,1.1,0.6c0.2-0.1,0.3-0.2,0.3-0.4c0.1-0.4-0.2-0.7,0.1-1
		c0.3,0.2,0.6,0.3,0.8,0.7c0.2,0.4,0.4,0.7,0.7,0.7c0.3-0.4,0.2-0.6,0.1-0.9c-0.2-0.4-0.4-0.8,0.1-1.1c-0.1,0.6,0.4,0.9,0.4,1.5
		c0,0.5-0.4,0.7-0.4,1c0,0.3,0.2,0.4,0.5,0.5c0.7,0.1,1.2,0.4,1.9,1c0.9,0.8,1.7,1.7,2.6,2.5c1.3,1.1,2.3,2.5,3.3,3.9
		c0.8,1.2,1.6,2.4,2.3,3.6c2.4,0.4,5.1,0.4,7.4-0.3c-0.8-2.5-1.5-3.2-3.2-5.1c0.4,0.1,0.7,0.1,1.1,0c-0.6-0.9-3.3-4.7-4.5-5.1
		c-0.3,0.7-0.4,1.8-0.4,2.5c0.1,0.7,0.6,1.2,0.9,0.6c0.2-0.5-0.1-1.4,0.4-2c0,0.8,0.2,2.5-0.6,2.8c-0.5,0.2-1.1-0.3-1.1-1.7
		c-0.7,0-1.1-1.1-1.3-1.9c-0.2,0.3-0.2,0.6,0,1.3c0.1,0.3,0.5,1-0.2,1.1c-0.1,0.8,0,1.5,0.2,2c0.3,0.7,0.6,0.5,0.8,0.1
		c0.2-0.4,0.1-0.7,0.6-0.7c0,0.2-0.1,1.3,0.2,1.9c0.4,0.9,0.9-0.2,0.9-0.6c0.1,0.4-0.2,1.5-0.8,1.2c-0.6-0.3-0.6-0.9-0.6-1.5
		c-0.1,0.3-0.3,0.5-0.5,0.6c-0.4,0.2-0.7,0.1-1-0.4c-0.4-0.6-0.3-1.1-0.3-2c-0.5,0.1-0.9-0.4-1.1-0.9c-0.3-0.6-0.2-1.3-0.2-1.5
		c-0.2,0-0.6-0.1-0.8-0.4c-0.3-0.4-0.3-0.9-0.3-1.1c-0.3-0.2-0.5-0.5-0.4-0.9c-0.6,0.4-1,0.1-1.1,1.1c0,0.2,0,0.4,0,0.5
		c-0.6-0.6-0.6-0.9-0.4-1.3c0.1-0.3,0.1-0.5,0.1-0.7c0-0.5,0-0.8,0.5-1c0,0.7,0.2,0.7,0.3,0.7c0.2,0,0.3-0.3,0.2-1
		c0.2,0.1,0.3,0.2,0.4,0.4c0.4,0.5-0.3,0.8,0.5,0.7c0.1,0.8-0.2,1,0.7,1c-0.1,0,0.2,0.7,0.5,0.3c-0.5,0.8-0.2,1.3,0.1,1.2
		c0,0.2-0.1,0.6,0.1,1.2c0.1,0.8,0.9,1.5,1.1,0.5c0.1-0.6-0.2-1.3-0.5-1.8c-0.2-0.3-0.3-0.6-0.4-0.9l0,0c-0.1-0.4-0.2-0.8-0.3-1.2v0
		c-0.5-0.8-0.9-1.7-1.1-2.7c-0.2,0.3-0.2,0.5-0.5,0.8c-0.7-0.9-1-1.2-0.5-2.3c-0.1,0.5,0.1,1.3,0.4,1.4c0.3-0.4,0.5-1,0.8-1.4
		c-0.1,1,0.6,2.7,1.1,3.7c0.5-0.2,0.7-0.9,0.7-1.5c0.2,0.6,0.4,1.4-0.5,2c0.1,0.4,0.1,0.7,0.2,1l0,0c0.1,0.3,0.2,0.5,0.3,0.7
		c0.5-0.6,0.7-1.5,0.8-2.3c0.3,0.7,0.9,1.1,1.4,1.6c0.4-0.8,0.3-1.5,0-2.4c-0.6,1.3-1.9-1.2-1.1-2.3c-0.2,0.8,0.1,1.9,0.6,2
		c0.3-0.3,0.4-1.1,0.3-1.5c0.1,0.2,0.3,0.5,0.4,1c0.6,1,0.6,2,0.4,3c0,0,0.1,0,0.1,0l0,0c0.2-0.1,0.3-0.2,0.4-0.4
		c0.6,0.5,2.7,1,1.9-0.7c0.2-0.5-0.1-1-0.3-1.3c0.5,0.1,0.7,0.2,1.1,0.5c0.4,0.2,0.7,0.3,0.6-0.4c-0.1-0.3-0.1-0.5-0.1-0.9
		c0.4,0.6,2.1,1.1,1.5,0c-1,0.1-1.5-1.4-1.3-2c0.7,1.3,1.1,1.6,1.3,1.4c0.2-0.3,0.2-1.1,0.1-1.6c0.1,0.4,0.4,1.1,0.8,1.3
		c0.4,0.2,0.8,0.1,0.8-0.6c-0.1-1.2-0.5-1.9,0.1-3.3c-0.1,0.4,0.1,1.3,0.3,1.8c0.6-0.4,0.5-1.8,0.4-2.3c0.4,0.3,0.8,1.5,1.3,2.3
		c0.7,1,1.1,0.5,1.5-0.2c-0.2-0.2-0.8-0.9-1.1-1c1.3,0.2,2.7,1.4,3.9,2c2,1.1,4.1,1.4,5.6-0.1c-1.6-1-3.2-2.2-4.7-3.4
		c-4.4-3.6-8.5-5.7-14.1-6.5c-1.8-0.3-3.5-0.4-4.9,0.3c-0.8,0.4-1.8,0.6-2.9,0.7c0.1,0.7-0.1,1.2-0.7,1.3c-0.6,0.1-1.2-0.4-1-1
		c0,0.4,1.2,0.8,1.2,0.1c0-0.6-0.7-1-1.2-0.6c-0.2,0.1-0.2,0.3-0.2,0.5c-0.4-0.9,0.2-1.2,0.8-1.1c0.4,0.1,0.7,0.2,0.9,0.5
		c1-0.1,2-0.3,2.8-0.7c0.7-0.3,1.4-0.9,1.8-1.5c-0.7,0-1.3-0.1-2-0.3c-0.7-0.2-1.4-0.4-2.1-0.7c0.3,0.3,0.9,1.1,0.6,1.7
		c-0.2,0.4-0.7,0.5-1.4,0c0.4,0,0.6-0.1,0.7-0.2c0.4-0.4-0.6-1.5-0.9-1.9c0.7-0.2,0.6-0.6,0.5-1.3c0.4,0.3,0.6,0.5,0.9,0.5
		c0.9,0.2,0.7-1.1-0.2-1.4l0,0c-0.2-0.1-0.3-0.2-0.5-0.2c-0.1-0.7-0.9-0.9-1.2-1.4c-0.3-0.4-0.3-0.9-0.4-1.4c1.2,0.3,2.1,0.2,3-0.6
		c0.4-0.4,0.8-0.8,1-1.2c0.8-1.3,0.3-1.7-0.4-2.7c1.9,0.4,2.9,1.1,4.6-0.4c0.9-0.8,1.5-1.9,1.8-2.8c-0.5-0.1-0.8-0.4-1.1-0.8
		c0.3,0,0.4-0.1,0.5-0.4c1.5,1.3,3.8,1.1,5.2-0.3c0.8-0.8,1.2-1.8,1.4-2.9c0.5,0.3,1.1,0.7,1.2-0.1c0.1-0.2,0.1-0.6,0-0.9
		c-1.2,0.6-2.5,0.7-3.8,0.8c-1.3,0.2-2.1,0.4-2.9,0.8c-0.7,0.4-1.4,1-2.3,2.1c-0.8,0.9-1.6,1.8-2.4,2.5c-0.8,0.7-1.6,1.3-2.5,1.8
		c-0.9,1.7-1.9,3-3,4.1c-0.6,0.6-1.4,1.2-2.3,1.9c-0.8,0.7-1.3,1.7-2.1,2.3c-1.6,1.3-3.8,2.2-5.5,1.9c3.6-1.1,4.4-1.1,7.5-5.8
		c0.3-0.5,0.6-0.9,0.9-1.3c1.3-1.9,2.7-3.9,4.3-5.6c1.6-1.8,3.3-3.4,5.3-4.5c1.9-1,4.4-1.3,7.2-1.7c4.5-0.5,9-1.2,13.6-1.2
		c3.5-0.1,6.8-0.5,7.5-4.5c-4.2,0.5-8.6,0.9-12.9,1.3c-4.4,0.4-9.3,0.4-13.4,1.6c-2.3,0.7-4.4,1.6-6.3,2.9c-2,1.3-3.8,2.9-5.3,4.9
		c-2.2,2.8-5,6.4-8.2,9.2c-1.9,1.7-4,3.1-6,3.9c-1.1,0.4-2.2,1-3.1,1.8c0.7-1.3,1.9-1.7,3.1-2.4c2.1-1.1,3.7-2.3,5.6-3.7
		c-4.7,2-11.1,2.4-16.1,3.3c-1.8,0.3-3.4,0.8-5,1.3c-0.7,0.2-1.4,0.5-2.2,0.7c-0.4,0.1-0.7,0.2-1,0.3c-1.4,0.4-3.1,0.9-4.7,1.4
		c-1.5,0.6-2.9,1.2-4,2.1c-1,0.9-1.5,1.9-1.5,3.4c0.4,0.1,0.8,0.3,1,0.6c0.5,0.4,1.1,0.6,1.8,0.7c0.7,0.2,1.3,0.4,1.9,0.7
		c0.3,0.2,0.6,0.4,0.7,0.7c0.1,0.4-0.2,0.8-0.6,0.9c-0.1,0-0.2,0.1-0.3,0.1c0,0,0,0.1,0,0.1l0,0l0,0l0,0
		C60.6,90.6,60.6,90.6,60.6,90.7z"/>
	<path d="M100.5,121.1c0.7,1,3.7,2.5,5.7,2.4c1.1,0,1.9-0.7,1.8-1.7c-0.2-1.2-2.5-2.4-3-2.7c0.5-0.2,0.9-0.3,1.4-0.5
		c2.1,1.4,5.2,3.2,7.6,2.1c2.2-1,0.5-3.1-0.5-3.7c0.4-0.1,0.9-0.1,1.3-0.2c1.8,1.7,1.9,4.1-0.8,5c-1.7,0.5-3.2,0.2-4.8-0.4
		c-0.1,3.2-3.1,3.7-5.4,2.9c-1.7-0.5-3.6-1.8-4.6-2.6C99.7,121.5,100.1,121.3,100.5,121.1z"/>
	<path d="M83.5,117.7c4.2-1,6.4,0.9,5.7,5.3c3.7-3.1,9.4-2.5,8.8,3.7c-0.4-0.1-0.7-0.1-1-0.1c0.6-6-6.1-4.7-8.3-1.3
		c-0.4-0.2-0.8-0.4-1.1-0.6c1-3.7,1-7.1-3.7-6C83.7,118.4,83.6,118,83.5,117.7z"/>
	<path d="M115.5,132.5c1.1-0.6,3.4-2,2.2-3.6c-0.6-0.8-1.2-0.7-1.9-0.4c-0.5,0.2-0.9,0.6-1.4,0.8
		C114.8,130.4,115.1,131.4,115.5,132.5L115.5,132.5z M115.1,140c-0.9-3.9-1.8-7.8-3.3-11.5c0.8-0.4,1.5-0.9,2.2-1.4
		c0.4-0.3,0.9-0.5,1.3-0.6c1.4-0.6,2.9-0.3,4.1,1.2c1.3,1.8,0.7,4-0.8,5.4c1.1,0.9,1.9,2.1,2.5,3.5c-0.6,0.4-1.2,0.8-1.8,1.2
		c-0.6-1.3-1.4-2.7-2.6-3.4c-0.2,0.1-0.5,0.3-0.7,0.4c0.4,1.4,0.7,2.9,1,4.4C116.4,139.4,115.7,139.7,115.1,140z"/>
	<path d="M104.9,131.1l1.3,6.4c0.3,1.5,0.7,3.2,2.4,2.8c1.9-0.4,1.7-2.1,1.5-3.6c-0.3-2.3-1-4.5-1.7-6.6c0.7-0.3,1.3-0.5,2-0.8
		c0.7,2.3,1.5,4.7,1.8,7.2c0.4,2.8,0,5-2.9,5.7c-3,0.8-4.5-1.3-5.1-4.1l-1.3-6.6C103.5,131.4,104.2,131.2,104.9,131.1z"/>
	<path d="M98.5,131.6c0.3,3.3,0.7,6.5,1.2,9.7c1.4,0,2.8-0.1,4.2-0.3l0.3,2.1c-2.1,0.3-4.2,0.4-6.3,0.3c-0.6-4-1.3-7.9-1.6-11.9
		C97.1,131.5,97.8,131.6,98.5,131.6z"/>
	<path d="M92.5,137.3c-0.2-1.4-0.3-3-0.4-4.4c-0.6-0.2-1.2-0.4-1.9-0.6c-0.4,1.4-0.7,2.8-0.9,4.2C90.4,137,91.4,137.2,92.5,137.3
		L92.5,137.3z M86.9,141.2c0-4.1,0.6-7.8,2-11.7c1.7,0.7,3.4,1.2,5.2,1.7c0.2,4.1,0.7,8,1.7,12c-0.8-0.1-1.5-0.2-2.3-0.3
		c-0.3-1.2-0.5-2.1-0.7-3.3c-1.2-0.2-2.4-0.4-3.6-1c-0.1,1.1-0.1,2.2-0.1,3.3C88.3,141.7,87.6,141.5,86.9,141.2z"/>
	<path d="M82,124.4c-0.6,3.7,0.1,7.8,1.2,11.3c0.4-2.9,1-5.8,2-8.6c0.6,0.4,1.2,0.8,1.8,1.2c-1.4,3.8-1.9,8.1-2.1,12.1
		c-1-0.4-1.9-0.9-2.8-1.4c-1.9-5.1-3.2-11.2-1.8-16.5C80.8,123.2,81.4,123.8,82,124.4z"/>
	<path d="M57.4,84.7c2.1,0.4,4.3-1.4,6.3-1.7c-0.7,0.5-1.5,0.9-2.1,1.2c0.2,0.6,0.2,1,0,1.3c-0.6,0.9-1.9,0.4-2.3-0.4
		C58.2,85.4,57.8,85.5,57.4,84.7L57.4,84.7z M61.2,84.3c-0.4,0.2-0.9,0.4-1.3,0.5C60.5,85.8,61.6,85.5,61.2,84.3z"/>
	<path class="st0" d="M107.9,99.5c0.2,0.6,0.5,1.2,0.7,1.2c0.2-0.2,0.2-0.5,0.2-0.8c0-0.5-0.2-0.9-0.4-1.2c-0.2-0.3-0.4-0.5-0.5-0.4
		C107.6,98.5,107.8,99.2,107.9,99.5z"/>
	<path class="st0" d="M97.3,98.4c0.7,0.1-0.2-1.4-0.5-1C96,98.5,96.5,98.4,97.3,98.4z"/>
	<path class="st0" d="M92.5,97.7c-0.1-0.1-0.2-0.1-0.2-0.2c-0.1-0.1-0.2-0.1-0.4,0.2c-0.2,0.4,0,0.5,0.3,0.6
		C92.6,98.4,92.9,97.9,92.5,97.7z"/>
	<path class="st0" d="M115.6,82c0.6,0.2,1.5-0.3,1.9-0.7c0.2-0.2-0.4-0.3-0.9-0.1C116.3,81.3,115.9,81.7,115.6,82z"/>
	<path class="st0" d="M125.7,75.6c-0.2,0.2-0.6,0.3-1,0.2c-0.4-0.1-0.6,0.1-0.7,0.4c-0.1,0.6-0.3,1.3-0.7,1.7
		c0.6,0.3,1.2-0.3,1.6-0.6C125.6,76.9,126.8,76.3,125.7,75.6z"/>
	<path class="st0" d="M122.7,75.7c-0.1,0.5-0.3,1.1-0.5,1.6l0,0c-0.2,0.3-0.4,0.5-0.6,0.8c0.7,0.5,1.4-0.2,1.8-1
		c0.2-0.4,0.3-0.6,0.2-0.9C123.5,75.8,123.1,75.9,122.7,75.7z"/>
	<path class="st0" d="M121.3,75.7c-0.2,0.3-0.4,0.7-0.6,1c-0.3,0.4-0.6,0.9-1,1.3c0.2,0.2,0.7,0.1,0.9,0c0.4-0.2,0.7-0.5,0.9-0.9
		l0,0C122.1,76.3,122.4,75.6,121.3,75.7z"/>
	<path class="st0" d="M119.5,76.3c-0.3,0.4-0.7,0.7-1.2,0.9c-0.4,0.2-1,0.2-1.3-0.1c-0.6,0.5-1.4,0.6-2,0.1
		c-0.2-0.2-0.7-0.1-0.4,0.4c0.6,0.9,2.4,0.9,3.3,0.7c0.7-0.1,1.1-0.3,1.6-0.8c0.3-0.3,0.5-0.7,0.8-1.1c0.4-0.7,0.1-0.9-0.2-0.7
		C119.9,75.8,119.7,76,119.5,76.3z"/>
	<path class="st0" d="M117.8,76.1c-0.1,0.2-0.3,0.4-0.4,0.6c0.2,0.1,0.6,0.1,0.7,0c0.4-0.2,0.7-0.4,0.9-0.7
		C119.3,75.7,118.1,75.5,117.8,76.1z"/>
	<path class="st0" d="M117.1,75.1c-0.7,0.2-0.8,0.5-1.3,1.1c-0.2,0.2-0.3,0.4-0.5,0.5c0.6,0.4,1.1,0.2,1.5-0.2
		C117.7,75.7,117.4,75.6,117.1,75.1z"/>
	<path class="st0" d="M115.1,74.9c-0.6,0.4-0.7,1-1.5,1.6c0.5,0.2,1,0.3,1.4-0.1c0.1-0.1,0.3-0.3,0.4-0.5
		C116,75.2,115.9,74.3,115.1,74.9z"/>
	<path class="st0" d="M113.6,74.4c-0.1,0.3-0.3,0.4-0.6,0.6c-0.4,0.3-0.7,0.8-1.2,0.9c0,0,0.1,0.1,0.1,0.1l0,0
		c0.4,0.4,0.8,0.3,1.3,0c0.4-0.2,0.9-0.7,1.1-1.1C114.6,74.2,113.8,73.9,113.6,74.4z"/>
	<path class="st0" d="M113.1,73.4c-0.3,0.2-0.7,0.4-1.2,0.5c-0.9,0.2-1.4-0.2-1.6,0.9c-0.1,0.4-0.1,0.7,0.6,0.7c1.3,0,1-0.2,1.9-0.9
		C113,74.4,113,74.2,113.1,73.4z"/>
	<path class="st0" d="M109.1,73.9c-0.3,0-0.4,0.3-0.5,0.6c0,0.3-0.1,0.5-0.2,0.7c0.8,0.2,1.3-0.4,1.3-0.9
		C109.7,74,109.7,73.9,109.1,73.9z"/>
	<path class="st0" d="M107.2,74.2c-0.1,0.4-0.2,0.7-0.4,1c0.5,0.3,1.2,0.2,1.3-0.5c0.1-0.5-0.1-0.8-0.3-1
		C107.5,73.6,107.3,73.6,107.2,74.2z"/>
	<path class="st0" d="M105.9,73.7c-0.1,0.4-0.4,1-0.7,1.3c0.5,0.2,1.1,0,1.2-0.4c0.3-0.6,0.4-1,0.2-1.2
		C106.5,73.3,106,73.5,105.9,73.7z"/>
	<path class="st0" d="M103.6,74.2c-0.3,0.2-0.5,0.4-0.8,0.5c0.2,0.2,0.5,0.2,0.8,0.2c0.7,0,1.2-0.4,1.5-0.9c0.5-0.8,0.1-1-0.3-0.9
		C104.3,73.3,103.9,74,103.6,74.2z"/>
	<path class="st0" d="M102.4,75c-0.5,0.2-0.9,0.2-1.4,0.2c0.1,0.2,0.1,0.3,0.2,0.4C101.8,76.8,103,76.2,102.4,75z"/>
	<path class="st0" d="M104.3,79.3c0.3,0.7,1,0.6,0.9,0.1c0-0.2-0.2-0.3-0.4-0.5c-0.2-0.3-0.5-0.6-0.6-0.9c-0.1-0.4-0.4-0.4-0.6-0.6
		c-0.3-0.3-0.4-0.1-0.4,0.2C103.4,77.9,104.1,78.9,104.3,79.3z"/>
	<path class="st0" d="M103.5,79.1c-0.2,0.5-0.8,0.5-1.3,0.3c0,0.1,1.3,0.6,1.4,0.6c0.6,0.2,0.3-0.3,0.1-0.5c0-0.1,0-0.1-0.1-0.1l0,0
		C103.7,79.3,103.6,79.2,103.5,79.1z"/>
	<path class="st0" d="M106.3,81.9c2.3,0,2.1,0.5,3.7-1c0.1-0.1,0.5-0.2,0.5-0.4c0-0.5-1.5-0.1-1.8-0.1c-0.3,0.1-0.7,0.3-1,0.3
		C106.8,80.9,107.2,81,106.3,81.9z"/>
	<path class="st0" d="M109.6,82.1c1.1,0.2,1.3,0.4,2-0.7c0.7-1-0.4-0.8-0.8-0.5C110.3,81.3,110.1,81.6,109.6,82.1z"/>
	<path class="st0" d="M111.5,82.4c0.5,0.1,1.2-0.3,1.6-0.6l0,0c0.9-0.9,0.5-1.8-0.3-1.1c-0.2,0.2-0.6,0.7-0.7,1
		C112,81.9,111.8,82.2,111.5,82.4z"/>
	<path class="st0" d="M119.6,79.1c-0.2,0.2-0.6,0.8-1.1,1.3c0,0.1,0.1,0.1,0.2,0.2l0,0c0.2,0.1,0.6,0,0.8-0.1
		c1.2-0.5,1.7-0.9,1.8-1.1C121.4,78.7,119.9,78.9,119.6,79.1z"/>
	<path class="st0" d="M118,78.9c-0.5,0.1-0.7,0-0.9,0.5c-0.2,0.4-0.6,0.8-1,1.1c0.6,0.5,2.7-0.7,2.6-1.5
		C118.6,78.8,118.5,78.8,118,78.9z"/>
	<path class="st0" d="M116.7,78.9c-0.3,0-0.8-0.1-1.1,0c-0.4,0.2-0.4,0.8-1.5,1.3c0.1,0.4,0.9,0.2,1.1,0.1l0,0c0,0,0.1,0,0.1-0.1
		C115.8,80,116.6,79.5,116.7,78.9z"/>
	<path class="st0" d="M114.3,78.5c-0.4,0.6-0.9,0.8-1.6,0.8c-0.3,0-0.6,0.1-0.9,0.1c-0.4,0.1-0.9,0.1-1.2,0.1
		c0.3,0.5,1.3,1.1,1.8,0.6c0.2-0.2,0.4-0.2,0.6-0.2c0.6,0.1,0.9-0.1,1.4-0.5c0.2-0.2,0.3-0.3,0.4-0.5
		C115,78.5,114.5,78.2,114.3,78.5z"/>
	<path class="st0" d="M113.7,78.4c-0.5,0.2-1.1,0.3-1.6-0.1c-0.3-0.4-1,0.1-1.3-0.6c-0.1,0.4-0.3,0.8-0.6,1c0.3,0.3,1.1,0.2,1.3,0.1
		c0.4-0.1,0.7-0.2,1-0.2C113.1,78.8,113.4,78.7,113.7,78.4z"/>
	<path class="st0" d="M108.5,78.5c0.5,0.5,1.1,0.3,1.5-0.2c0.5-0.6,0.4-0.6,0.1-0.7c-0.3-0.1-0.5-0.2-0.6-0.2
		C109.1,77.5,109.1,77.9,108.5,78.5z"/>
	<path class="st0" d="M107.7,77.2c-0.2,0.4-0.4,0.7-0.9,0.9c0.1,0.3,0.5,0.3,0.8,0.2l0,0c0.2-0.1,0.4-0.1,0.5-0.2
		c0.5-0.6,0.8-0.8,0-1.3C108,76.7,107.9,76.9,107.7,77.2z"/>
	<path class="st0" d="M106,76.5c-0.1,0.4-0.3,0.8-0.6,1c0.2,0.1,0.4,0.2,0.6,0.2c0.4,0,0.7-0.1,0.9-0.2c0.2-0.1,0.3-0.4,0.4-0.8
		c0.3-0.7-0.1-0.7-0.5-0.8C106.5,75.7,106.2,76.1,106,76.5z"/>
	<path class="st0" d="M104.4,76.2c-0.2,0.4-0.4,0.6-0.2,0.8c0.7,0.5,1.2,0,1.3-0.5c0.2-0.5-0.1-0.4-0.3-0.6
		C105,75.8,104.7,75.6,104.4,76.2z"/>
	<path class="st0" d="M102.8,76.4c0,0.1,0,0.2,0,0.2l0,0c0.1,0.2,0.3,0.2,0.4,0.2c0.3-0.1,0.5-0.4,0.6-0.7c0.1-0.6-0.4-0.6-0.6-0.4
		C103,76,102.7,76.4,102.8,76.4z"/>
	<path class="st0" d="M108.7,76.5c0.2,0.3,0.3,0.4,0.4,0.4c0.2,0.1,0.5-0.1,0.7-0.4c0.8-0.8,0.4-0.9-0.4-0.8c-0.3,0.1-0.6-0.1-0.8,0
		C108.4,75.8,108.3,76,108.7,76.5z"/>
	<path class="st0" d="M110.7,76.1c-0.1,0.1-0.1,0.4-0.5,0.8c0.1,0.4,1,0.4,1.2-0.2C111.5,76.3,111.2,75.7,110.7,76.1z"/>
	<path class="st0" d="M112.2,76.8c-0.3,0.1-0.2,0.3-0.8,0.8c0.1,0.1,0.4,0.1,0.5,0.1c0.2,0,0.4,0.1,0.6,0.3c0.2,0.2,0.4,0.3,0.7,0.2
		c0.4-0.1,0.8-0.5,0.6-0.9C113.4,76.7,112.6,76.7,112.2,76.8z"/>
	<path class="st0" d="M107.4,78.9c-0.1,0.3-0.3,0.6-0.5,0.9c-0.1,0.1-0.1,0.2-0.2,0.2c0.7,0.5,2.1,0.1,1.6-0.9
		C108.1,78.6,107.8,78.9,107.4,78.9z"/>
	<path class="st0" d="M106.6,78.6c-0.1-0.2-0.5-0.4-0.8-0.4c-0.7-0.1-0.6,0.4-0.3,0.7c0.3,0.3,0.5,0.6,0.4,1l0,0c0,0,0,0.1,0,0.1
		c0.4,0.1,1-0.6,1-1C106.8,78.8,106.7,78.7,106.6,78.6z"/>
	<path class="st0" d="M113.2,82.4c0.6,0.4,1.6-0.2,2-0.7c0.6-0.7,0.5-0.8-0.5-0.7C114.1,81.1,113.7,81.9,113.2,82.4z"/>
	<path class="st0" d="M143.9,65.9c-0.5,0.1-1,0.1-1.4-0.3c-0.1,0.2-0.3,0.3-0.5,0.4c0,0.4-0.2,0.9-0.5,1.3c0,0.1-0.1,0.1-0.1,0.2
		c0.2,0.2,0.6,0,0.8-0.1C142.7,67.2,143.5,66.5,143.9,65.9z"/>
	<path class="st0" d="M141.5,66.3c-0.2,0.1-0.4,0.1-0.5,0.1c-0.3,0-0.5-0.1-0.8-0.2c-0.1,0.5-0.3,0.9-0.5,1.4
		c-0.1,0.2-0.2,0.3-0.3,0.5c0.6,0.4,1.4-0.5,1.7-0.9C141.3,66.8,141.5,66.5,141.5,66.3z"/>
	<path class="st0" d="M139.7,66.1c-0.3,0.2-0.6,0.2-0.9,0.2c-0.2,0-0.4-0.1-0.6-0.1c0,0.2-0.1,0.3-0.1,0.5c-0.1,0.7-0.3,1.4-0.6,2
		c0.9-0.1,1.4-0.6,1.8-1.4C139.4,66.9,139.6,66.5,139.7,66.1z"/>
	<path class="st0" d="M137.6,66.1c-0.5,0.2-0.9,0.1-1.4-0.2l0,0c0,0.5-0.2,1.1-0.5,1.8c-0.2,0.4-0.4,0.7-0.6,1.1
		c0.2,0.2,0.4,0.3,0.6,0.3c0.3,0,0.6-0.1,0.8-0.2l0,0c0.6-0.5,0.8-1.4,0.9-2.3C137.6,66.4,137.6,66.2,137.6,66.1z"/>
	<path class="st0" d="M135.7,66.1c-0.1,0.1-0.3,0.1-0.5,0.1c-0.3,0.1-0.6,0-0.9-0.1c0,0.3-0.1,0.7-0.2,1c-0.3,0.7-0.7,1.3-1.2,1.9
		c0.3,0.2,0.8,0.2,1.1,0.1c0.4-0.2,0.9-0.9,1.2-1.7C135.5,67,135.7,66.5,135.7,66.1z"/>
	<path class="st0" d="M133.8,65.8c-0.3,0.2-0.8,0.2-1.2,0.2c0,0.2-0.1,0.5-0.2,0.7c-0.4,0.8-1.5,2.2-2.3,2.6
		c0.2,0.1,0.4,0.2,0.6,0.2c0.4,0,0.7-0.1,1.1-0.2c0.9-0.4,1.5-1.3,1.8-2.2C133.8,66.5,133.9,66.1,133.8,65.8z"/>
	<path class="st0" d="M132.1,65.9c-0.3-0.1-0.5-0.2-0.7-0.4c-0.2,0.2-0.4,0.3-0.6,0.4l0,0c-0.1,0.1-0.2,0.1-0.3,0.1
		c-0.1,0.3-0.3,0.6-0.6,1c-0.5,0.6-1.3,1.1-1.6,1.2c-0.3,0.1-0.6,0.2-0.8,0.2c-0.1,0.3-0.3,0.6-0.6,0.9c0.1,0.2,0.4,0.2,0.6,0.3
		c0.4,0,0.8-0.2,1.1-0.4c0.6-0.5,0.9-0.2,1.5-0.5c0.7-0.3,1.7-1.5,2-2.3C132.1,66.2,132.1,66,132.1,65.9z"/>
	<path class="st0" d="M126.9,68.3c-0.4-0.1-0.7-0.4-0.9-0.8c-0.1,0.1-0.3,0.1-0.5,0.2c0,0.6-0.5,1.2-0.9,1.5
		c-0.1,0.1-0.2,0.1-0.3,0.2c0.2,0.4,0.7,0.4,1,0.2c0.3-0.1,0.5-0.3,0.8-0.5C126.5,68.9,126.8,68.6,126.9,68.3z"/>
	<path class="st0" d="M125,67.6c-0.1,0-0.3-0.1-0.4-0.1l0,0c-0.2-0.1-0.4-0.3-0.5-0.5c0,0,0,0,0,0c-0.1,0-0.2,0.1-0.2,0.1
		c-0.1,0.1-0.1,0.3-0.2,0.4c-0.2,0.5-1,1.5-1.5,1.8c0.4,0.6,1.6-0.2,1.9-0.5C124.5,68.6,125,68,125,67.6z"/>
	<path class="st0" d="M123.5,67c-0.1-0.1-0.3-0.2-0.4-0.2c-0.4,0.2-0.8,0.3-1.1,0.2c-0.3,0.7-1,1.5-1.4,1.8c0.1,0.2,0.4,0.3,0.6,0.3
		c0.9,0,1.8-1,2.2-1.8C123.4,67.1,123.4,67.1,123.5,67z"/>
	<path class="st0" d="M121.5,66.5c-0.1-0.1-0.2-0.3-0.2-0.4c-0.6,0.2-1.4,0-2-0.4c0,0.9,0.2,1.8-0.6,2.2c0,0.4,0.4,0.6,0.8,0.5
		C120.2,68.5,121.3,67.4,121.5,66.5z"/>
	<path class="st0" d="M118.8,65.6c-0.5,0.3-0.6,0.2-0.8,0.8c-0.1,0.3-0.2,0.7-0.4,0.9c0.2,0.3,0.6,0.3,1,0.2
		C119.1,67.3,118.8,66.1,118.8,65.6L118.8,65.6z"/>
	<path class="st0" d="M117.3,65.5c-0.4,0.3-0.6,0.3-0.8,0.8c-0.2,0.5-0.4,0.9-0.8,1.3c0.3,0.1,0.8-0.1,1.1-0.3
		C117.3,67,117.8,65.9,117.3,65.5z"/>
	<path class="st0" d="M116.2,65.8c-1-0.2-0.7-0.1-1.4,0.4c-0.5,0.4-1.1,0.7-1.8,0.8c0.1,0.5,0.7,0.8,1.2,0.8c0.9,0,1.7-0.8,1.9-1.6
		C116.1,66,116.2,65.9,116.2,65.8z"/>
	<path class="st0" d="M112.4,67c-1.5,0.1-1.5,0.3-2.3,1.6c0.1,0.2,0.3,0.3,0.4,0.4c0.4,0.2,0.8,0.1,1.1-0.1
		C112.9,67.9,112.5,67.6,112.4,67z"/>
	<path class="st0" d="M108.9,70c-0.3,0.3-0.7,0.5-1,0.7c0.4,1,1.7,0.4,2-0.2c0.2-0.4,0.3-0.6,0.3-0.8C110,69,109.1,69.8,108.9,70z"
		/>
	<path class="st0" d="M107.3,70.8c-0.4,0.1-0.8,0.2-1.2,0.1c-0.5-0.1-0.8,0.2-0.9,0.7c0,0.3-0.1,0.6-0.2,0.9
		c0.8,0.7,1.8-0.1,2.2-0.9C107.3,71.3,107.3,71.1,107.3,70.8z"/>
	<path class="st0" d="M136.7,69.4c-0.3,0.2-0.6,0.3-1,0.2c-0.5-0.1-0.6,1.1-0.8,1.6c0.4,0.4,0.7,0.2,1.1-0.1
		c0.4-0.4,0.9-0.6,1.2-1.1C137.6,69.4,137.4,69,136.7,69.4z"/>
	<path class="st0" d="M133.4,70.3c-0.3,0.4-0.4,1.1-0.7,1.7c0.9,0.3,1.4-0.1,1.7-0.6c0.1-0.2,0.4-1,0.4-1.5
		C134.7,69.1,133.6,69.9,133.4,70.3z"/>
	<path class="st0" d="M132,69.7c-0.6,0.3-0.7,0.8-1,1.5c-0.2,0.3-0.4,0.7-0.5,1c0.2,0.6,1.4,0.2,1.6-0.3c0.1-0.3,0.9-1.6,0.6-2
		C132.6,69.7,132.4,69.5,132,69.7z"/>
	<path class="st0" d="M129.8,69.9c-0.2,0.1-0.3,0.4-0.6,1c-0.2,0.5-0.4,0.9-0.7,1.2c0.2,0.2,0.4,0.3,0.6,0.3
		c0.8,0.1,1.2-0.9,1.4-1.4c0.3-0.6,0.5-1,0-1C130.4,69.9,130.1,69.8,129.8,69.9z"/>
	<path class="st0" d="M127.3,70.6c-0.1,0.3-0.3,0.6-0.4,0.9c-0.1,0.2-0.2,0.4-0.3,0.5c0.4,0.5,0.9,0.2,1.3-0.1
		c0.1-0.1,0.2-0.1,0.2-0.2c0.3-0.3,0.5-0.6,0.6-1c0.2-0.5,0.2-0.8,0-0.9C128.4,69.5,127.5,70.1,127.3,70.6z"/>
	<path class="st0" d="M126.5,69.8c-0.6,0-1,0.4-1.3,1.3c-0.2,0.3-0.3,0.7-0.6,1c0.1,0.1,0.2,0.1,0.3,0.1c1.1,0.3,1.7-1,1.9-1.9
		C126.8,70,126.8,69.8,126.5,69.8z"/>
	<path class="st0" d="M123.4,70.4c-0.1,0.5-0.4,1-0.6,1.5v0c0.2,0.2,0.4,0.2,0.6,0.2c0.3,0,0.5-0.2,0.7-0.4c0.2-0.2,0.4-0.5,0.5-0.9
		c0.1-0.3-0.2-0.5-0.4-0.7C123.9,70,123.6,69.8,123.4,70.4z"/>
	<path class="st0" d="M122,70.2c-0.1,0.3-0.2,0.6-0.4,1c-0.4,0.7-0.9,1.5-1.4,1.9c0.8,0.6,1.7-0.8,2.1-1.4c0.2-0.4,0.4-0.8,0.5-1.2
		C123.1,69.7,122.1,69.9,122,70.2z"/>
	<path class="st0" d="M120.7,69.9c-0.6,1.1-1.2,2.1-2.5,2.5c0.3,0.6,0.8,0.8,1.4,0.4c0.4-0.2,1.1-1.1,1.5-2c0.2-0.3,0.3-0.6,0.4-0.8
		C121.8,69.3,121,69.4,120.7,69.9z"/>
	<path class="st0" d="M119.1,70.1c-0.5,0.7-1.1,1.3-1.8,1.6c0.9,1.1,2.8-1.2,3-2.1c0.2-0.5-0.1-0.8-0.5-0.5
		C119.5,69.3,119.4,69.6,119.1,70.1z"/>
	<path class="st0" d="M118.1,69.1c-0.3,0.4-0.7,0.7-1.1,0.9c-0.6,0.3-1.4,0.4-2.3,0.2c0,0,0,0.1,0,0.1l0,0c0.2,0.7,0.5,1.2,1.3,1.2
		c1,0,2.1-0.9,2.6-1.7C119.3,68.9,118.5,68.6,118.1,69.1z"/>
	<path class="st0" d="M116.7,68c-0.4,0.1-0.5,0.4-0.6,0.6c-0.1,0.3-0.2,0.6-0.4,0.9c0.2,0.1,0.4,0.1,0.6,0.1c0.8,0,1.1-0.4,1.5-0.9
		C118.3,68,117.1,67.9,116.7,68z"/>
	<path class="st0" d="M114.5,68.6c-0.2,0.5-0.5,0.9-0.9,1.2c0.5,0.1,1-0.1,1.4-0.4c0.3-0.2,0.5-0.6,0.6-1
		C115.8,67.5,114.7,68,114.5,68.6z"/>
	<path class="st0" d="M113.2,68c-0.4,0.5-0.8,1-1.3,1.4c0.8,0.7,1.6-0.1,2-0.8C114.1,68.1,113.5,68.2,113.2,68z"/>
	<path class="st0" d="M115.4,72.5c-0.3,0.5-0.6,0.8-1.2,1c1,1.3,2.1-0.2,2.2-0.9C116.7,71.8,115.8,71.8,115.4,72.5z"/>
	<path class="st0" d="M113.5,72.7c0,0.2,0.1,0.3,0.1,0.4l0,0c0,0,0,0,0,0c0.9-0.1,1.6-1.2,1.4-1.4c-0.1-0.1-0.3-0.1-0.4,0
		C114.2,72,113.5,72.1,113.5,72.7z"/>
	<path class="st0" d="M114.2,70.4c-0.2-0.1-0.4-0.1-0.7,0.4c-0.2,0.3-0.3,0.6-0.4,0.8c0.2,0.4,1.1-0.1,1.3-0.4
		C114.5,70.9,114.5,70.6,114.2,70.4z"/>
	<path class="st0" d="M117,72.8c-0.2,0.4-0.6,1.1-0.9,1.4c0.1,0.3,0.4,0.4,0.7,0.4c0.6,0,0.8-0.8,1-1.2
		C118.3,72.4,117.1,72.4,117,72.8z"/>
	<path class="st0" d="M117.6,74.8c0,0.2,0.2,0.3,0.4,0.4c0.6,0.1,1.5,0.2,1.6-0.6c0-0.2,0-0.4,0-0.6c0-0.5-0.6-0.6-1-0.4
		C118.2,73.7,117.9,74.4,117.6,74.8z"/>
	<path class="st0" d="M122.3,72.7c-0.4,0.3-0.6,0.7-1,0.9c-0.4,0.2-0.8,0.2-1.2,0c0.1,0.6-0.3,1.5,0.6,1.6c0.9,0.2,1.4-0.3,1.8-1
		l0,0c0.1-0.1,0.2-0.3,0.2-0.4c0.1-0.1,0.3-0.4,0.4-0.7C123.4,72.6,122.6,72.4,122.3,72.7z"/>
	<path class="st0" d="M122.6,75c0.7,0.7,1.4,0,1.7-0.5c0.2-0.4,0.4-0.9,0.5-1.3c0.1-0.5-0.5-0.7-0.8-0.5
		C123.5,73.2,123.1,74.4,122.6,75z"/>
	<path class="st0" d="M125.3,73.1c-0.2,0.7-0.4,1.4-0.9,2.1c1.2,0.5,1.5-1,1.9-1.8C126.7,72.3,125.4,72.6,125.3,73.1z"/>
	<path class="st0" d="M126.9,73.2c-0.3,0.6-0.5,1.4-0.9,2c0.9,0.3,1.4-0.9,1.7-1.9C128,72.4,127.1,72.6,126.9,73.2z"/>
	<path class="st0" d="M128.3,73.5c-0.1,0.5-0.3,0.9-0.5,1.3c1,0.5,1.7-0.4,2-1.3c0.2-0.5,0-0.7-0.6-0.7
		C128.8,72.8,128.4,73,128.3,73.5z"/>
	<path class="st0" d="M129.9,74.3c0.5,0.2,1-0.2,1.3-0.5c0.2-0.2,0.3-0.3,0.5-0.5c0.3-0.4,0.1-0.5-0.2-0.5
		C130.3,72.8,130.3,73.5,129.9,74.3z"/>
	<path class="st0" d="M111.8,70.6c-0.1,0.3-0.2,0.5-0.4,0.7c0.3,0.4,0.9,0.1,1.3-0.2c0.5-0.5,0.3-0.9-0.3-1
		C112.1,70.2,111.9,70.4,111.8,70.6z"/>
	<path class="st0" d="M110.5,70.1c-0.2,0.4-0.3,0.8-0.6,1.1c0.5,0.8,1.5-0.6,1.4-1.2C111.4,69.6,110.7,69.7,110.5,70.1z"/>
	<path class="st0" d="M112.3,72C112.3,72,112.3,72,112.3,72L112.3,72c-1,0.2-1.2-0.3-1.7,0.7c-0.1,0.2-0.2,0.4-0.4,0.6
		c0.5,0.1,1,0.1,1.5,0.1c0.7-0.2,1.1-0.5,1.2-0.9C113,72.2,112.8,71.9,112.3,72z"/>
	<path class="st0" d="M108.1,73.3c0.8,0.5,1.6-0.1,2-0.8c0.3-0.6-0.1-0.8-0.6-0.7C108.8,71.9,108.9,73,108.1,73.3z"/>
	<path class="st0" d="M108.7,71.7c-0.6,0-0.9-0.2-1,0.1c-0.2,0.4-0.4,0.7-0.7,1C107.8,73.3,108.4,72.3,108.7,71.7z"/>
	<path class="st0" d="M165.9,50c-0.1,0.1-0.3,0.2-0.4,0.2c-0.4,0.3-0.8,0.5-1.2,0.8c0.1,0.5,0.1,1.1,0,1.6
		C165.6,52.1,166,51.2,165.9,50z"/>
	<path class="st0" d="M163.9,51.3c-0.5,0.3-1,0.6-1.4,0.9c0.1,0.2,0.2,0.4,0.3,0.6c0.2,0.3,0.3,0.6,0.2,1
		C163.8,53.7,164,52.2,163.9,51.3z"/>
	<path class="st0" d="M162,52.4c-0.3,0.2-0.6,0.4-0.9,0.5c0,0.1,0.1,0.2,0.1,0.3l0,0c0.2,0.5,0.1,1.1,0,1.7c0.2,0,0.5-0.1,0.7-0.2
		c0.7-0.4,0.7-1.1,0.4-1.7C162.1,52.8,162,52.6,162,52.4z"/>
	<path class="st0" d="M160.6,53.2c-0.4,0.3-0.9,0.5-1.3,0.7c0.4,0.6,0.4,1.7,0.2,2.2c1-0.2,1.4-1.9,1.2-2.8l0,0
		C160.6,53.3,160.6,53.2,160.6,53.2z"/>
	<path class="st0" d="M158.8,54.1c-0.4,0.2-0.8,0.4-1.1,0.6c0.1,0.1,0.1,0.2,0.1,0.4c0.2,0.6,0.4,1.2,0.3,1.8
		c0.4-0.1,0.7-0.2,0.8-0.6C159.2,55.5,159.1,54.5,158.8,54.1z"/>
	<path class="st0" d="M157.2,54.9c-0.5,0.2-0.9,0.4-1.4,0.6c0.1,0.1,0.1,0.1,0.1,0.2c0.4,0.5,0.8,1,0.6,1.8c0.3,0.1,0.5,0,0.7-0.2
		c0.5-0.5,0.3-1.3,0-2.1C157.2,55.1,157.2,55,157.2,54.9z"/>
	<path class="st0" d="M155.2,55.8c-0.3,0.1-0.5,0.2-0.8,0.3c0.1,0.4,0.1,0.8,0.1,1.2c0.1,0.2,0,0.5,0,0.8c0.1,0.9,1.3-0.2,1.4-0.8
		c0.1-0.5-0.3-0.9-0.5-1.2C155.4,56,155.3,55.9,155.2,55.8z"/>
	<path class="st0" d="M154,56.3c-0.4,0.2-0.9,0.4-1.3,0.5c0.1,0.4,0.1,0.7,0.1,1.1c0,0.5-0.1,1.1-0.1,1.1c0.2,0.1,0.5,0,0.7-0.1
		c0.8-0.4,0.7-0.8,0.7-1.6C154.1,57,154,56.6,154,56.3z"/>
	<path class="st0" d="M152.2,57c-0.6,0.2-1.1,0.4-1.7,0.6c0,0,0,0,0,0.1c0.1,0.7,0,1.4-0.3,2c0.3,0.5,1.2-0.1,1.6-0.4
		C152.4,58.7,152.2,57.9,152.2,57z"/>
	<path class="st0" d="M150,57.7c-0.1,0.1-0.2,0.1-0.3,0.1c-0.3,0.1-0.6,0.2-1,0.3c-0.1,0.5-0.2,1.1-0.4,1.6
		c-0.1,0.1-0.1,0.3-0.2,0.4c0.1,0.1,0.2,0.1,0.3,0.1l0,0C149.7,60.6,150.1,58.7,150,57.7z"/>
	<path class="st0" d="M148.2,58.3c-0.4,0.1-0.8,0.2-1.2,0.3c-0.1,0.2-0.1,0.4-0.2,0.6c-0.1,0.4-0.3,0.9-0.5,1.3
		c0.6,0.8,1.4-0.4,1.5-0.9C148,59.1,148.1,58.6,148.2,58.3z"/>
	<path class="st0" d="M146.4,58.7c-0.4,0.1-0.8,0.2-1.2,0.3c-0.1,0.7-0.4,1.3-0.7,1.9c0.1,0.4,0.9-0.1,1.1-0.3
		c0.4-0.4,0.6-1,0.8-1.6C146.3,58.9,146.3,58.8,146.4,58.7z"/>
	<path class="st0" d="M144.6,59.1c-0.5,0.1-0.9,0.2-1.4,0.2c-0.1,0.6-0.5,1.4-0.8,1.8c0.3,1,1.4-0.4,1.6-0.6
		C144.3,60,144.5,59.5,144.6,59.1z"/>
	<path class="st0" d="M142.6,59.3c-0.4,0.1-0.8,0.1-1.2,0.2c0,0.6-0.1,1.2-0.3,1.7c0,0.2,0.2,0.1,0.4,0
		C142.2,60.7,142.4,59.9,142.6,59.3z"/>
	<path class="st0" d="M140.9,59.5c-0.4,0-0.7,0.1-1.1,0.1c0,0.7-0.2,1.7-0.3,2.1c0.6-0.1,0.9-0.4,1.1-0.8
		C140.8,60.6,140.9,60,140.9,59.5z"/>
	<path class="st0" d="M139.3,59.7c-0.3,0-0.7,0.1-1,0.1c0,0.6-0.1,1.5-0.4,2.1c0.7,0.3,1.1-0.1,1.2-0.5
		C139.1,61,139.3,60.2,139.3,59.7z"/>
	<path class="st0" d="M137.7,59.8c-0.4,0-0.7,0.1-1.1,0.1c0,0.5-0.1,1.1-0.3,1.7c-0.1,0.2-0.1,0.3-0.2,0.5
		C137.3,62.6,137.6,60.9,137.7,59.8z"/>
	<path class="st0" d="M136,59.9c-0.4,0-0.8,0-1.2,0c-0.1,0.2-0.1,0.3-0.2,0.5c-0.4,1-0.8,2.2-1.8,2.8c0.3,0.2,0.6,0.3,0.9,0.2
		c0.5-0.1,1-0.4,1.4-0.7c0.3-0.3,0.6-0.8,0.7-1.3C135.9,60.9,136,60.4,136,59.9z"/>
	<path class="st0" d="M134.2,59.9c-0.5,0-0.9,0-1.4,0.1c0,0.1-0.1,0.1-0.1,0.2c0,0.1-0.1,0.3-0.2,0.4c0,0.1-0.1,0.1-0.1,0.2
		c-0.3,0.6-0.7,1.5-1.3,2c0.1,0.5,1,0.1,1.2-0.1c0.8-0.4,1.3-1.5,1.7-2.5C134.2,60.1,134.2,60,134.2,59.9z"/>
	<path class="st0" d="M132.2,60c-0.5,0-0.9,0-1.4,0c0,0.2-0.1,0.3-0.1,0.5l0,0c-0.1,0.4-0.3,0.8-0.4,1.2c-0.2,0.4-0.5,0.8-0.8,1.1
		c0.2,0.1,0.3,0.2,0.5,0.2l0,0c1,0.1,1.7-1.7,2-2.3c0-0.1,0.1-0.1,0.1-0.2C132.2,60.2,132.2,60.1,132.2,60
		C132.2,60,132.2,60,132.2,60z"/>
	<path class="st0" d="M130.3,60c-0.4,0-0.9,0-1.3,0c-0.1,0.8-0.8,1.9-1.2,2.3c-0.1,0.1-0.1,0.1-0.1,0.1c0.1,0.1,0.1,0.1,0.1,0.2l0,0
		c0.7,0.5,1.8-0.7,2-1.2c0.2-0.4,0.3-0.8,0.4-1.1v0C130.3,60.2,130.3,60.1,130.3,60z"/>
	<path class="st0" d="M128.5,60.1c-0.1,0-0.2,0-0.2,0c-0.5,0-0.9,0.1-1.4,0.1c-0.2,1-0.5,1.9-0.9,2.6c0.5,0.3,1.1-0.3,1.4-0.6
		C127.7,61.8,128.4,60.6,128.5,60.1z"/>
	<path class="st0" d="M126.4,60.2c-0.6,0-1.2,0.1-1.8,0.1c0.1,0.4,0.1,0.9,0,1.3c-0.1,0.5-0.2,0.9-0.3,1.4
		C125.5,63.5,126.1,61.3,126.4,60.2z"/>
	<path class="st0" d="M124.1,60.3c-0.4,0-0.7,0.1-1.1,0.1c0.2,0.3,0.4,0.7,0.6,1.1l0,0c0.2,0.4,0.3,0.7,0.3,1c0.1-0.3,0.2-0.6,0.2-1
		C124.1,61.1,124.1,60.7,124.1,60.3z"/>
	<path class="st0" d="M122.4,60.5c-0.2,0-0.4,0-0.6,0.1c-0.1,0.6-0.2,1.5-0.2,1.8l0,0c-0.1,0.4-0.2,0.8-0.1,1.1
		c0.2,0.4,1.4,0.4,1.7,0.3c0.5-0.3,0-1.6-0.2-1.9l0,0C122.9,61.2,122.6,60.8,122.4,60.5z"/>
	<path class="st0" d="M121.4,60.5c-0.3,0.1-0.6,0.1-0.9,0.1c-0.3,0.5-0.7,1.2-0.7,1.7c0,0.6,0.6,0.7,1,0
		C120.9,62.1,121.3,61.1,121.4,60.5z"/>
	<path class="st0" d="M119.3,60.7c-0.4,0.1-0.8,0.1-1.2,0.2c0.1,0.6,0.1,1.1,0.1,1.5c-0.1,0.2-0.1,0.4-0.3,0.6
		c0.5,0.3,1.1-0.5,1.2-1C119.3,61.5,119.3,61.1,119.3,60.7z"/>
	<path class="st0" d="M117.4,63.2c-0.6,0.1-0.6-0.1-0.8,0.5c-0.2,0.5-0.4,0.9-0.7,1.2c0.6,0.5,1.4,0.2,1.7-0.5
		C117.7,64,117.6,63.5,117.4,63.2z"/>
	<path class="st0" d="M159.2,56.7c-0.3,0.5-0.7,0.6-1.3,0.7c-0.1,0.1-0.2,0.3-0.3,0.4c-0.3,0.3-0.7,0.4-1.1,0.3c0,0.6,0,1.3-0.2,1.9
		h0l0,0c0.3,0.1,0.7,0.1,0.9,0c0.5-0.2,1-0.6,1.3-1.1C158.9,58.2,159.2,57.5,159.2,56.7z"/>
	<path class="st0" d="M155.9,58.4c-0.2,0.2-0.3,0.3-0.5,0.4c-0.2,0.1-0.4,0.2-0.7,0.1c-0.4-0.1-0.4,0.1-0.5,0.5
		c-0.1,0.4-0.1,0.8-0.3,1.1c0.3,0.2,1,0.1,1.4-0.2C155.8,60.1,155.9,59,155.9,58.4z"/>
	<path class="st0" d="M153.7,59.3c-0.3,0.2-0.7,0.3-1,0.3c-0.3-0.1-0.5,0.2-0.6,0.5c0,0.4-0.1,1-0.2,1.5c0.4,0.7,1.3-0.5,1.4-0.8
		C153.5,60.3,153.7,59.8,153.7,59.3z"/>
	<path class="st0" d="M151.6,60.1c-0.4,0.2-0.8,0.4-1.2,0.3c0,0.3,0,0.7-0.1,1.1l0,0c0,0.1,0,0.2-0.1,0.3c-0.2,0.6,0.2,0.9,0.7,0.5
		C151.5,61.8,151.6,60.7,151.6,60.1z"/>
	<path class="st0" d="M149.8,60.3c-0.3,0.3-0.7,0.5-1.1,0.5c-0.1,0.6-0.3,1.2-0.5,1.7c0.2,0.3,0.6,0.2,0.9,0.1
		c0.5-0.2,0.7-0.7,0.8-1.2l0,0C149.8,61,149.8,60.6,149.8,60.3z"/>
	<path class="st0" d="M147.5,60.9c-1,0.6-1,0.4-1.3,1.7c0.1,0.3,0.4,0.4,0.7,0.4c0.5-0.1,0.7-0.4,0.9-0.8c0.1-0.3,0.3-0.6,0.3-0.9
		C148.2,60.8,147.9,60.7,147.5,60.9z"/>
	<path class="st0" d="M145.9,60.9c-0.7,0.8-0.7,0.1-1.3,1.4c-0.1,0.2-0.2,0.4-0.3,0.6c0.3,0.4,1,0.3,1.2-0.1
		c0.1-0.3,0.2-0.6,0.3-0.9C145.9,61.5,145.9,61.2,145.9,60.9z"/>
	<path class="st0" d="M144,61.3c-0.2,0.2-0.5,0.4-0.8,0.6c-0.1,0.4-0.4,0.9-0.7,1.3c0.2,0.4,0.4,0.5,0.8,0.3
		C143.8,63,144.6,61.9,144,61.3z"/>
	<path class="st0" d="M142.6,61.9c-0.2-0.1-0.4-0.2-0.5-0.4c-0.2,0.2-0.5,0.4-0.9,0.4c-0.1,0.4-0.2,0.8-0.3,1.2l0,0c0,0,0,0.1,0,0.1
		c0,0.1,0.1,0.2,0.1,0.2l0,0c0.1,0.1,0.2,0.1,0.4,0.1C141.8,63.4,142.4,62.3,142.6,61.9z"/>
	<path class="st0" d="M140.7,61.8c-0.3,0.3-0.7,0.4-1.1,0.5c-0.1,0.3-0.2,0.6-0.4,0.9c0.1,0.1,0.2,0.2,0.3,0.2c0.5,0.2,0.8,0,1-0.5
		l0,0C140.6,62.6,140.6,62.1,140.7,61.8z"/>
	<path class="st0" d="M139.1,62.3c-0.1,0.1-0.5,0.3-1.1,0.2c-0.3-0.1-0.4,0.7-0.3,0.9C137.9,63.7,138.5,63.6,139.1,62.3z"/>
	<path class="st0" d="M137.1,62.5c-0.4,0.2-0.8,0.1-1.2-0.1c-0.2,0.3-0.4,0.6-0.7,0.8C136,64.1,136.8,63.6,137.1,62.5z"/>
	<path class="st0" d="M133.7,63.9c-0.8,0-0.8,0.1-1.1,0.5c-0.3,0.4-0.4,0.5-0.8,0.8c0.1,0.1,0.4,0.2,0.7,0.3
		c0.7,0.2,1.1-0.1,1.5-0.6C134.7,64,134.7,63.8,133.7,63.9z"/>
	<path class="st0" d="M131.4,63.5c-0.4,0-0.9,0.8-1.1,1.1c-0.2,0.3-0.5,0.6-0.7,0.8c0.3,0.3,0.7,0.2,1,0.1l0,0
		c0.2-0.1,0.4-0.3,0.6-0.4C132,64.3,132.7,63.7,131.4,63.5z"/>
	<path class="st0" d="M129.9,63.4L129.9,63.4L129.9,63.4L129.9,63.4c-0.1,0-0.2,0-0.3-0.1c-0.3-0.1-0.5,0.2-0.7,0.4
		c-0.2,0.5-0.5,0.9-0.8,1.2c0.7,0.7,1.6-0.4,1.8-0.7C130,64.1,130.4,63.4,129.9,63.4z"/>
	<path class="st0" d="M127.4,63.7c-0.2,0.4-0.5,0.8-0.8,1c0.4,0.8,1.3-0.3,1.6-0.7C128.7,63.2,127.6,63.4,127.4,63.7z"/>
	<path class="st0" d="M125.6,63.6c-0.1,0.3-0.2,0.6-0.4,0.8c0.3,0.5,1.1-0.2,1.5-0.8c0.2-0.3-0.1-0.3-0.5-0.3
		C126,63.3,125.7,63.3,125.6,63.6z"/>
	<path class="st0" d="M125.1,63.5c-0.6,0.2-0.7-0.2-1.3,0.3c-0.2,0.1-0.4,0.3-0.5,0.3C124.3,64.9,125,64.3,125.1,63.5z"/>
	<path class="st0" d="M121.7,65.9c0,0.6,0.8,0.7,1.2,0.3c0.4-0.3,0.6-0.8,0.6-1.3c-1-0.5-1.1-0.1-1.3,0.4
		C122.1,65.5,121.9,65.7,121.7,65.9z"/>
	<path class="st0" d="M121.4,64c-0.6-0.6-0.9-0.7-1.7,0.6c-0.1,0.2-0.2,0.4-0.4,0.6c0.4,0.5,1.3,0.8,1.9,0.5
		c0.1-0.1,0.2-0.1,0.3-0.2l0,0C121.9,64.9,121.9,64.4,121.4,64z"/>
	<path class="st0" d="M118.2,64c-0.1,0.4-0.2,0.8-0.4,1.1c0.6,0.5,1.3-0.4,1.5-0.8c0.4-0.8,0-1-0.4-1
		C118.2,63.5,118.3,63.5,118.2,64z"/>
	<path class="st0" d="M136.8,63.9c-0.2,0.2-0.5,0.3-0.7,0.3c-0.1,0-0.1,0-0.2,0c-0.7-0.1-0.7-0.5-1,0.3c-0.2,0.3-0.4,0.7-0.6,0.9
		c0,0,0,0,0,0.1l0,0c0.2,0.3,0.6,0.3,0.9,0.3C136.2,65.6,136.6,64.8,136.8,63.9z"/>
	<path class="st0" d="M138.6,63.8c-0.4,0.3-0.8,0.3-1.2,0.1c-0.1,0.6-0.4,1.2-0.7,1.6C137.7,66.2,138.5,64.6,138.6,63.8z"/>
	<path class="st0" d="M140.5,63.8c-0.4,0.3-0.9,0.3-1.4,0.1c-0.1,0.6-0.4,1.3-0.8,1.8c0.2,0.1,0.4,0.1,0.5,0.1
		c0.3,0,0.6-0.1,0.9-0.3l0,0c0.2-0.2,0.4-0.6,0.5-0.9C140.4,64.3,140.4,64,140.5,63.8z"/>
	<path class="st0" d="M142.1,63.6c-0.3,0.3-0.7,0.5-1.1,0.4c-0.1,0.3-0.1,0.5-0.3,0.8c-0.1,0.3-0.3,0.6-0.4,0.8
		c0.2,0.2,0.5,0.2,0.7,0.2c0.4,0,0.8-0.1,1.1-0.4c0.3-0.4,0.5-0.9,0.6-1.3C142.4,64,142.2,63.8,142.1,63.6z"/>
	<path class="st0" d="M144,63.4c-0.2,0.3-0.5,0.6-0.9,0.7c0,0.4-0.2,0.8-0.4,1.1c0.2,0.3,0.8,0.3,1.1,0.2c0.6-0.2,0.7-1.1,0.7-1.7
		C144.4,63.6,144.2,63.5,144,63.4z"/>
	<path class="st0" d="M147.8,62.9c-0.7,0.5-0.6,0.5-1,1.8c0.5,0.1,1.1,0.2,1.5-0.2c0.2-0.2,0.4-0.6,0.6-1l0,0
		c0.1-0.2,0.1-0.4,0.1-0.5c-0.2,0.1-0.3,0.1-0.5,0.1C148.3,63.2,148,63.1,147.8,62.9z"/>
	<path class="st0" d="M146.6,63.4c-0.3,0-0.5-0.1-0.7-0.3c-0.2,0.3-0.5,0.4-0.8,0.5c0,0.5-0.1,1-0.3,1.4c0.2,0.1,0.3,0.2,0.5,0.2
		C146.4,65.3,146.4,64.2,146.6,63.4z"/>
	<path class="st0" d="M149.6,63.4c0,0.1-0.1,0.3-0.1,0.4l0,0c-0.1,0.1-0.1,0.3-0.2,0.4c0.2,0.1,0.4,0.1,0.7,0
		c0.4-0.1,0.8-0.4,1.2-0.6c0.3-0.3,1.1-1,0.6-1.4c-0.2,0.4-0.4,0.6-0.7,0.7C150.1,63.1,149.8,62.4,149.6,63.4z"/>
	<path class="st0" d="M128.5,65.7c-0.4-0.1-0.8-0.5-1.2,0.1c-0.3,0.4-0.5,0.9-0.8,1.2c0.3,0.8,1,0.8,1.7,0.6c0.3-0.1,0.9-0.6,1.4-1
		c0.5-0.5,0.1-0.7-0.3-0.7C129,65.9,128.8,65.8,128.5,65.7z"/>
	<path class="st0" d="M126.1,65c-0.8,0.5-0.5,0.7-1,1.4c-0.1,0.2-0.2,0.3-0.4,0.4c0,0.3,0.4,0.4,0.6,0.4c0.6,0,1-0.7,1.3-1.2
		C126.9,65.2,126.5,65.6,126.1,65z"/>
	<path class="st0" d="M124.9,64.8c-0.3,0.2-0.5,0.2-0.8,0.2c-0.1,0.5-0.2,1-0.6,1.3c0.2,0.1,0.3,0.2,0.5,0.2
		C124.6,66.4,125.2,65.3,124.9,64.8z"/>
	<path class="st0" d="M73,77.3l-0.5-0.9c-0.6,0.3-1.3,0.3-1.8,0.1c0,0.3,0.1,0.5,0.1,0.7l0,0C71.4,77.9,72.9,77.5,73,77.3z"/>
	<path class="st0" d="M74.8,77c-0.4-0.3-0.9-0.6-1.2-1c-0.1,0.1-0.3,0.3-0.5,0.3C73.7,77.1,73.8,77.1,74.8,77z"/>
	<path class="st0" d="M75.5,76.8c2-0.3,4-0.7,6-1.1c-6.2-4.7-12.8-7.1-20.6-7c-0.8,0.4-1.6,0.6-2.4,0.8c0.9,1.4,2.9,0.7,4.2,0.1
		c0.4,0.7,0.9,1.2,1.7,1.4l0,0c0.9,0.3,1.9,0,2.8-0.3c1.4,2.4,3.3,2.8,5.8,2.3C72.8,74.9,74.1,76,75.5,76.8z"/>
	<path class="st0" d="M57.9,69.6c-0.5,0.1-0.9,0.1-1.4,0.1c0.3,1,1.4,1.9,2.3,0.8C58.4,70.4,58.1,70,57.9,69.6z"/>
	<path class="st0" d="M55.8,69.8c-1.2,0-2.4-0.2-3.6-0.4c-0.2,0.1-0.5,0.1-0.7,0.2C52.3,71.6,54.9,71.5,55.8,69.8z"/>
	<path class="st0" d="M50.3,69.8c-0.7,0.1-1.4,0.1-2-0.1c-0.3,0.4-0.6,0.7-1,0.9C48.2,71,49.4,70.4,50.3,69.8z"/>
	<path class="st0" d="M47.7,69.6c-0.3-0.1-0.6-0.1-0.8-0.2c-0.3,0.5-0.7,0.8-1.3,1C46.4,70.6,47.1,70.3,47.7,69.6z"/>
	<path class="st0" d="M46.3,69.3c-0.6-0.2-1.2-0.5-1.8-0.9c-0.4,0.1-0.8,0.1-1.2,0.1C43.8,70,45.5,70.5,46.3,69.3z"/>
	<path class="st0" d="M41.7,68.4c-0.4-0.1-0.8-0.2-1.2-0.3c-0.3-0.1-0.5-0.2-0.7-0.3c-0.1,0-0.1,0.1-0.2,0.1c-0.3,0.2-0.7,0.4-1,0.5
		C39.6,68.8,40.7,68.7,41.7,68.4z"/>
	<path class="st0" d="M38.2,67c-0.4-0.3-0.8-0.6-1.2-1c-0.5-0.1-0.9-0.2-1.3-0.3c0.2,0.6,0.5,1.3,1.1,1.5
		C37.2,67.4,37.8,67.2,38.2,67z"/>
	<path class="st0" d="M35.1,65.6c-0.1,0-0.2-0.1-0.3-0.1c-0.3,0.2-0.6,0.3-0.9,0.4c0.1,0.3,0.3,0.6,0.5,0.8c0.3,0.2,0.6,0.3,1,0.2
		C35.4,66.5,35.2,66.1,35.1,65.6z"/>
	<path class="st0" d="M34.2,65.3c-0.6-0.3-1.2-0.5-1.8-0.8c-0.1,0-0.1,0.1-0.1,0.1c-0.2,0.1-0.5,0.3-0.7,0.3c0.3,0.3,0.6,0.4,1,0.3
		h0.1l0.1,0.1c0.3,0.3,0.7,0.3,1,0.2C33.9,65.4,34.1,65.3,34.2,65.3z"/>
	<path class="st0" d="M31.9,64.1c-0.3-0.2-0.6-0.4-0.9-0.6c-0.1-0.1-0.2-0.1-0.2-0.2c-0.3,0.2-0.7,0.3-1,0.4
		C30.4,64.5,31.1,64.5,31.9,64.1z"/>
	<path class="st0" d="M30.4,63c-0.5-0.4-0.9-0.9-1.4-1.4c-0.4,0.2-0.9,0.3-1.4,0.2c0.2,0.6,0.5,1.2,1.1,1.4
		C29.3,63.4,29.9,63.2,30.4,63z"/>
	<path class="st0" d="M28.7,61.2c-0.6-0.7-1.2-1.5-1.7-2.3C26.6,60.1,26.8,61.8,28.7,61.2z"/>
	<path class="st0" d="M73.2,75.6c-0.4-0.5-0.7-1.2-0.7-1.8c-0.5,0.1-1,0.1-1.5,0.1C71.2,74.6,72.3,76.5,73.2,75.6z"/>
	<path class="st0" d="M70.2,73.7c-0.7-0.2-1.3-0.4-1.9-0.9C68.5,74.2,69.1,74.5,70.2,73.7z"/>
	<path class="st0" d="M67.7,72.3c-0.3-0.3-0.5-0.4-0.7-0.8c-0.8,0.2-1.4,0.2-2,0.1c0,0.6,0.2,1,0.5,1.3
		C66.2,73.5,67.4,73.2,67.7,72.3z"/>
	<path class="st0" d="M64.3,71.6L64.3,71.6L64.3,71.6c-0.4-0.1-0.8-0.3-1.1-0.5c-0.3,0.2-0.6,0.5-0.9,0.6
		C62.8,72.2,63.7,72.2,64.3,71.6z"/>
	<path class="st0" d="M61.3,70.7c-0.7,0.2-1.4,0.2-2,0.1c-0.4,0.6-1,0.9-1.7,0.7c0.3,0.7,1.2,1,1.8,0.3C60.4,72,60.9,71.7,61.3,70.7
		z"/>
	<path class="st0" d="M43.5,69.9c-0.3-0.4-0.6-0.8-0.8-1.2c-0.4,0.2-0.8,0.3-1.1,0.4C42.1,69.7,42.7,70.1,43.5,69.9z"/>
	<path class="st0" d="M57,71.2c-0.4-0.2-0.6-0.6-0.8-1c-0.3,0.5-0.8,0.9-1.4,1.2C55.5,71.9,56.4,71.8,57,71.2z"/>
	<path class="st0" d="M53,71.5c-0.9-0.2-1.6-0.8-1.9-1.7c-0.4,0.3-0.9,0.6-1.3,0.9c0.3,0.4,0.7,0.4,1.1,0.3
		C51.6,71.5,52.2,71.7,53,71.5z"/>
	<path class="st0" d="M60.3,72.4c0.8,0.4,1.6,0.6,2.4,0.1c-0.3-0.1-0.6-0.3-0.8-0.6C61.4,72.2,60.9,72.4,60.3,72.4z"/>
	<path class="st0" d="M71.9,76.1c-0.7-0.4-1.1-1.3-1.4-2c-0.5,0.3-0.9,0.5-1.3,0.6C69.8,75.5,70.8,76.3,71.9,76.1z"/>
	<path class="st0" d="M68.3,74.3c-0.2-0.3-0.4-0.6-0.5-1.1c-0.3,0.3-0.7,0.5-1.2,0.6c-0.2,0.2-0.4,0.3-0.7,0.4
		c0.3,0.1,0.5,0.2,0.8,0.3C67.2,74.5,67.7,74.5,68.3,74.3z"/>
	<path class="st0" d="M65.2,73.4C65.2,73.4,65.2,73.3,65.2,73.4c-0.4-0.3-0.6-0.7-0.7-1.3c-0.3,0.3-0.6,0.4-1,0.5
		c-0.2,0.2-0.4,0.4-0.6,0.5C63.6,73.4,64.4,73.6,65.2,73.4z"/>
	<path class="st0" d="M70,76.1c-0.5-0.4-1-0.9-1.3-1.3c-0.2,0.1-0.4,0.1-0.6,0.2C68.3,76.1,68.8,76.3,70,76.1z"/>
	<path class="st0" d="M67.4,75c-0.6,0-1.1-0.1-1.6-0.3c0.4,0.6,1,0.9,1.8,0.9C67.6,75.4,67.5,75.2,67.4,75z"/>
	<path class="st0" d="M96.5,98.9c-0.3,0-0.6,0-0.9,0c0.1,0.5,0,1.1,0.7,0.7c0.1,0.5,0.1,1-0.1,1.6c-1.5-2.8-1.5-2.3-4.5-2.4
		c0.7,1.3,1.3,2.6,1.9,4c0.6,1.4,1.2,2.9,1.7,4.4c0.8,0.1,1.3,0.1,1.9,0c1.2-0.1,2.5-0.3,3.7-0.4c-0.1-0.6-0.3-1.3-0.6-1.8
		c0.1,0.2,0.1,0.4,0.1,0.6c-1.2,0-1.8-0.4-2-1.6c0.1,0.4,0.7,1.1,1.3,1.1c-0.1-0.7-0.5-0.7-0.6-1.5c0.2,0.2,0.8,0.5,1,0.5l0,0
		c0.1,0.1,0.2,0.1,0.3,0.1c-0.3-1-0.6-1.6-1.7-1.7c0.1,0.1,0.1,0.8,0.1,0.9c-0.5-0.6-0.6-1.1-1.2-1.6c0.3,0.1,0.9,0.2,1.3,0.2
		c0.3,0,0.4-0.1,0-0.6c-0.2-0.2-0.3-0.3-0.2-0.6c0,0,0.4,0.3,0.6,0.2C99.1,100.2,97.3,98.9,96.5,98.9z"/>
	<path class="st0" d="M61.3,91.5l-1.3-0.5c-0.6,0.1-1.3-0.1-1.9-0.3c-0.7,0.3-1.5,0.5-2.2,0.9c0.8,0.1,1.5-0.1,2.3-0.2
		C59.3,91.3,60.3,91.6,61.3,91.5z"/>
	<path class="st0" d="M53.7,89.8c-0.1,1,0,2.1,0.4,3.3c0.3-0.3,0.6-0.8,0.8-1.2c0.7-0.4,2.1-1.3,3.3-1.6c0.4,0.2,1.5,0.5,1.9,0.4
		c0,0,0,0,0,0l0,0c0-0.1-0.2-0.4-0.3-0.5c0.1,0,0.6,0,0.9-0.1c0.6-0.1,0.2-0.5-0.1-0.7c-0.6-0.3-1.1-0.5-1.7-0.7
		c-0.6-0.2-1.1-0.2-1.7-0.2c-0.4-0.7-0.8-1.1-1.3-1.1C54.9,87.1,53.8,88.5,53.7,89.8z"/>
	<path class="st0" d="M135,59.3c4.6,0,9.5-0.4,14.5-2c5.1-1.5,10.2-4.1,15.9-7.6c0.4-0.3,1.7-0.9,1.9-1.4c0.2-0.4,0.2-0.7-0.1-0.8
		c-0.5-0.3-1.6,0-2,0.1c-4,1.5-7.6,2.6-11.4,3.7c-5.2,1.6-10.4,2.7-15.8,3.5C137.7,56.6,136.8,58.4,135,59.3z"/>
	<path class="st0" d="M125.1,94.3c2.1,1.1,3.4,2.1,4.8,2.5c1.2,0.3,3.3,0.1,4.2-0.8c-1.8-0.9-3.5-1.8-5.2-2.9
		C127.8,94.3,126.2,94.4,125.1,94.3z"/>
	<path class="st0" d="M130.9,97.4c3.4,1.7,6.9,3.2,10.3,4.5c2.2,0.9,3.3,0.3,3.9-1.9c-3.5-1-7.1-2.2-10.6-3.9
		C133.7,97.1,132.2,97.4,130.9,97.4z"/>
	<path class="st0" d="M80,74c-3.4-3.3-6.7-4.9-10.2-5.6c-4.2-0.9-8.8-0.6-14-0.4c-3.2,0.2-6.8,0-10.3-0.6c-3.1-0.5-6.1-1.3-8.9-2.6
		c-3.3-1.5-6-3.7-8.4-6.4c-0.7-0.8-1.4-0.7-0.7,0.4c1.1,1.6,2.3,3.1,3.8,4.3c1.6,1.2,4,2.3,6,2.4c1,1,2.1,1.8,3.3,2.1
		c1.2,0.4,2.7,0.5,4,0.2c1.7,1.2,4.7,1.9,7.6,1c2.9,0.5,5.8,0.7,8.5-0.6C68,68.4,73.9,69.9,80,74z"/>
	<path class="st0" d="M112.6,110.2c-0.7,0.9,0.1,1.6,1.1,2c0.3,0.1,0.7,0,0.6-0.2l0,0c-0.3-0.5-0.8-0.6-1.4-0.8
		c0.2-0.1,0.7-0.3,1.1-0.1C114.1,109.8,113.3,110.2,112.6,110.2z"/>
	<path class="st0" d="M99.4,107.6c-0.5,0-0.8,0.1-0.9,0.2c-0.3,0.3-0.3,0.9,0,1.8c-0.6-0.2-1.1-0.3-1.8-0.1c0.1,0.1,0.1,0.3,0.1,0.4
		c0.7,0,1.3,0.3,1.6,0.9c0.4-0.2,0.5-0.8,0.7-1.1c0.1,0.2,0.3,0.3,0.5,0.5c0-0.4,0.2-0.7,0.4-1l-0.6-0.2
		C99.5,108.5,99.5,108.1,99.4,107.6z"/>
	<path class="st0" d="M101.1,110.5c-0.1-0.4-0.2-0.9,0-1.3C100,109,99.6,111.3,101.1,110.5z"/>
	<path class="st0" d="M96,110.9c0.3,0.1,0.5,0.3,0.7,0.5c0.2,0.2,0.4,0.4,0.5,0.7c0.6-0.1,1.1-0.6,0.6-1.2
		C97.5,110.4,96.5,110.2,96,110.9z"/>
	<path class="st0" d="M96.1,109.5c-0.3-0.3-1-0.2-1.4-0.1c0.2,0.3,0.3,0.6,0.3,1c0.2,0,0.4,0,0.6-0.1
		C95.9,110.2,96.7,110,96.1,109.5z"/>
	<path class="st0" d="M92.8,109.6c0.3,0.4,0.5,0.8,0.6,1.3c0.2,0,0.4,0,0.6-0.1C95.1,110.4,94.2,109,92.8,109.6z"/>
	<path class="st0" d="M91.2,109.9c0.3,0.3,0.5,0.7,0.6,1.2c0.2,0.1,0.3,0.1,0.5,0l0,0C93.5,111,92.3,109.2,91.2,109.9z"/>
	<path class="st0" d="M90.4,110.3c-1.2,0.3-0.9,1.7,0.6,1.1C91.4,111.2,90.8,110.2,90.4,110.3z"/>
	<path class="st0" d="M95,111.8c0.2,0.1,0.4,0.2,0.5,0.4c0.2,0.2,0.3,0.4,0.4,0.7C97.4,112.9,95.9,110.6,95,111.8z"/>
	<path class="st0" d="M93.7,112.9c-0.2,0.4,0,0.7,0.4,0.8c0.5,0.1,1.6-0.6,1-1.2C94.6,111.9,94,112.2,93.7,112.9z"/>
	<path class="st0" d="M102.7,109.9c-0.1-0.3-0.1-0.7,0-1.1c-0.4,0-0.7,0.2-0.9,0.4c-0.3,0.3-0.4,1.2,0.2,1.3
		C102.3,110.4,102.6,110.2,102.7,109.9z"/>
	<path class="st0" d="M104.2,109.1c0.6,0.1,0.5-0.8-0.5-0.6c-0.6,0.2-0.7,0.7-0.5,1C103.6,110,104.1,109.5,104.2,109.1z"/>
	<path class="st0" d="M113.6,113.7c-0.1-0.3-1-2-1.4-1c-1.5-0.9-2.9-1.1-2.5,1.2c0.4,0.2,0.7,0.5,1,0.8c1,0,0.8-1.3-0.2-1.5
		c0.6-0.3,0.9,0,1.2,0.4c0.6,0.8,1.1,0.7,1.9,0.3c0.2,0.3,0.3,0.5,0.7,0.6c0.1-0.5,0.4-1,0.8-1.4C114.7,112.1,113.7,113,113.6,113.7
		z"/>
	<path class="st0" d="M109.4,111.8c-1.3-0.4-1.8,1.3-0.4,1.2C109.1,112.6,109.2,112.2,109.4,111.8z"/>
	<path class="st0" d="M108,111.7c-1.3-0.2-1,1.7-0.3,1.2c0-0.3,0-0.5,0.1-0.8C107.9,111.9,108,111.8,108,111.7z"/>
	<path class="st0" d="M106.8,111.7c-1.9-0.3-1.4,2.4-0.2,1.3c-0.1-0.3-0.1-0.5,0-0.8C106.6,112,106.7,111.9,106.8,111.7z"/>
	<path class="st0" d="M108.5,114.5c0.3,0.2,0.5,0.5,0.7,0.8c0.6,0,1.3-0.4,0.5-0.8C109.3,114.2,108.8,114.2,108.5,114.5z"/>
	<path class="st0" d="M107.2,115.1c0.3,0.2,0.6,0.5,0.8,0.8c0.4,0,1-0.3,0.7-0.7C108.4,114.9,107.6,114.7,107.2,115.1z"/>
	<path class="st0" d="M106,116.4c-0.1,0.2,0.1,0.5,0.4,0.6c0.4,0.2,0.6-0.1,0.7-0.5c0.9-0.1-0.1-1.1-0.7-1
		C105.8,115.6,105.4,116.3,106,116.4z"/>
	<path class="st0" d="M115.5,115.1c0.1-0.6,0.3-1,0.5-1.3C115.2,112.6,114.2,115.1,115.5,115.1z"/>
	<path class="st0" d="M116.9,115.1c0-0.4,0-0.8,0.4-1c-0.5-0.5-1.2,0.4-1.2,0.9C116.1,115.2,116.4,115.3,116.9,115.1z"/>
	<path class="st0" d="M118,115.5c0.2-0.2,0.3-0.3,0.5-0.4l0,0c0.1-0.1,0.2-0.1,0.3-0.1C117.7,113.7,116.8,115.3,118,115.5z"/>
	<path class="st0" d="M118.3,116.6c0,0.2,0.1,0.3,0.2,0.4c0.1,0,0.3-0.1,0.4-0.1c0.2,0,0.3,0.1,0.5,0.1c0.4-0.4,0.4-1,0-1.3
		c-0.2-0.1-0.4-0.2-0.7-0.1l0,0C118.3,115.8,118.2,116.1,118.3,116.6z"/>
	<path class="st0" d="M120.4,106.7c-0.2-0.2-0.4-0.5-0.6-0.7l0,0c0,0-0.1-0.1-0.1-0.1c-0.1,0.1-0.2,0.1-0.3,0.2
		c-0.4,0.3-0.9,0.6-1.3,0.7c0.3,0.5,0.8,0.3,1.3,0.2C119.9,106.9,120.3,107.2,120.4,106.7z"/>
	<path class="st0" d="M119.2,105.7c-0.3-0.2-0.5-0.5-0.6-0.8c-0.2,0.2-0.3,0.3-0.5,0.4c-0.1,0.1-0.1,0.1-0.2,0.2l0,0
		c-0.1,0.1-0.4,0.1-0.5,0.2c-0.2,0.3-0.2,0.6,0.5,0.6C118.3,106.2,118.8,105.9,119.2,105.7z"/>
	<path class="st0" d="M118.1,104.6C118.1,104.6,118.1,104.6,118.1,104.6c-0.3-0.2-0.5-0.3-0.6-0.6c-0.3,0.3-0.7,0.7-1.1,0.8
		c0.4,0.8,0.9,0.5,1.4,0C117.9,104.8,118,104.7,118.1,104.6z"/>
	<path class="st0" d="M117.3,103.4c-0.3-0.1-0.6-0.3-0.8-0.6c-0.1,0.1-0.2,0.1-0.3,0.1c-0.4,0.2-0.8,0.3-1.3,0.3
		c0.1,0.2,0.2,0.4,0.3,0.5C115.9,104.9,116.7,104.2,117.3,103.4z"/>
	<path class="st0" d="M116.3,102.4c0-0.1,0-0.1,0-0.2c-0.3-0.1-0.6-0.3-0.8-0.6c-0.2,0.3-0.6,0.7-1,0.8c0.3,0.6,1.1,0.2,1.5,0.1
		C116.1,102.5,116.2,102.4,116.3,102.4z"/>
	<path class="st0" d="M115.3,101.1c0,0,0-0.1,0.1-0.1c-0.1-0.1-0.3-0.1-0.4-0.2c-0.4,0.4-0.9,0.6-1.4,0.7c0.1,0.5,0.4,0.6,0.9,0.4
		C114.8,101.7,115.1,101.3,115.3,101.1z"/>
	<path class="st0" d="M114.6,100.5c-0.1-0.1-0.2-0.3-0.2-0.4c-0.1-0.1-0.3-0.1-0.4-0.2c-0.1,0.1-0.2,0.1-0.3,0.1
		c-0.4,0.1-0.8,0.2-1.2,0.2C112.6,101.3,113.9,101,114.6,100.5z"/>
	<path class="st0" d="M113.5,99.5c-0.2-0.3-0.3-0.5-0.3-0.8c-0.1-0.1-0.3-0.2-0.4-0.4c-0.2,0.6-0.8,0.8-1.5,0.8
		C111.3,100.2,112.8,99.8,113.5,99.5C113.5,99.5,113.5,99.5,113.5,99.5z"/>
	<path class="st0" d="M123,106.4c-0.4-0.4-0.6-0.9-1.1-1.2c-0.1,0-0.1-0.1-0.2-0.1c-0.3,0.4-0.7,0.6-1.3,0.7l0,0c0,0-0.1,0-0.1,0
		c0.2,0.3,0.4,0.6,0.7,0.8C121.4,106.9,122.4,106.7,123,106.4z"/>
	<path class="st0" d="M121.4,104.5c0-0.1,0-0.2,0-0.2c-0.3,0-0.6-0.1-0.8-0.3c-0.1,0-0.1,0.1-0.1,0.1l0,0c-0.3,0.2-0.6,0.3-0.8,0.3
		c-0.2,0-0.4,0.1-0.6,0.2c-0.1,0.5,0.4,0.8,0.8,0.8c0.3,0,0.6-0.1,0.8-0.1C121,105.1,121.3,104.8,121.4,104.5z"/>
	<path class="st0" d="M120.3,103.5c-0.1-0.1-0.1-0.2-0.1-0.3c-0.2-0.1-0.5-0.2-0.8-0.3c-0.4,0.4-0.9,0.6-1.4,0.6
		c-0.1,0.3,0.1,0.5,0.3,0.6c0.3,0.2,1-0.3,1.4-0.3c0.1,0,0.3-0.1,0.4-0.2h0C120.2,103.6,120.2,103.6,120.3,103.5z"/>
	<path class="st0" d="M118.9,102.5c-0.1-0.1-0.2-0.2-0.3-0.3c-0.2,0.1-0.5,0.2-0.8,0.3l0,0c-0.3,0-0.6,0-0.9-0.2c0,0-0.1,0-0.2,0
		c0,0.4,0.5,0.7,0.8,0.7C118.1,103,118.6,102.9,118.9,102.5z"/>
	<path class="st0" d="M118.4,101.7c0-0.1,0-0.2,0-0.2c-0.6-0.2-1.1-0.4-1.3-1h-0.1c-0.2-0.1-1,0.4-1.1,0.7l0,0l0,0
		c0,0.3,0.7,0.5,0.9,0.5c0.4,0,0.5,0.2,0.8,0.2c0.1,0,0.2,0,0.3,0l0,0l0,0l0,0C118,101.9,118.2,101.8,118.4,101.7z"/>
	<path class="st0" d="M116.4,100.1c-0.1-0.2-0.2-0.4-0.3-0.7c-0.1,0-0.1,0-0.1,0c-0.2,0.4-0.6,0.7-1,0.7
		C115.5,100.7,115.9,100.4,116.4,100.1z"/>
	<path class="st0" d="M115.5,99.2c-0.3-0.1-0.7-0.5-0.7-0.7c-0.2,0.3-0.7,0.5-1.1,0.4c0.2,0.3,0.5,0.6,0.7,0.7
		C114.9,99.7,115.3,99.6,115.5,99.2z"/>
	<path class="st0" d="M114.3,98.3c-0.3-0.2-0.5-0.5-0.6-0.9c-0.1-0.1-0.3-0.2-0.4-0.3c-0.2,0-0.5-0.1-0.7-0.2
		C112.6,97.5,113.5,98.7,114.3,98.3z"/>
	<path class="st0" d="M130.4,104.4c-0.6-0.2-1-0.6-1.2-1.2c-0.4,0-0.6-0.1-0.9-0.3c-0.2,0.3-0.5,0.6-0.6,0.7c-0.6,0.6-0.4,1-1.5,1
		c0.5,0.9,1.3,1.4,2.4,1.1C129,105.7,130.2,104.9,130.4,104.4z"/>
	<path class="st0" d="M128,102.6c-0.2-0.2-0.3-0.5-0.4-0.8c-0.2,0-0.5,0-0.7,0c-0.3,0.6-1.1,1.6-1.8,1.6c-0.2,0-0.3,0-0.5,0
		c0,0.6,0.6,0.7,1.1,0.7c1.3,0.1,1-0.1,1.6-0.8C127.5,103.3,127.8,102.8,128,102.6z"/>
	<path class="st0" d="M126.4,101.6c-0.3-0.2-0.5-0.4-0.6-0.9c-0.1,0-0.1,0-0.1,0c-0.2,0.8-1.3,1.4-2,1.6c0.1,0.6,0.9,0.6,1.4,0.6
		C125.5,102.8,126.1,102,126.4,101.6z"/>
	<path class="st0" d="M125.2,100.5c-0.1-0.1-0.1-0.1-0.2-0.2c-0.1,0-0.1-0.1-0.2-0.1c0,0,0,0,0,0l0,0c-0.5,0.6-1.1,0.3-1.7,0.2
		c-0.5-0.1-1,0.2-1.5-0.3l0,0c0-0.1-0.1-0.1-0.1-0.1c-0.1,0-0.3,0.1-0.4,0.1c0,0.4,0.6,1.1,1,1.3c0.2,0.1,0.3,0.1,0.6,0.3
		c0.2,0.1,0.4,0.2,0.6,0.2C123.8,101.8,125.3,101.2,125.2,100.5z"/>
	<path class="st0" d="M124.2,99.9c-0.2-0.1-0.4-0.3-0.4-0.6c-0.4,0-0.9-0.1-1.2-0.4c-0.1,0.2-0.4,0.6-0.7,0.7c0,0,0,0.1,0,0.1l0,0
		c0.3,0.3,0.8,0.2,1.1,0.1C123.2,99.8,123.8,100.1,124.2,99.9z"/>
	<path class="st0" d="M122.3,98.6c-0.1-0.1-0.1-0.2-0.1-0.3c-0.2,0-0.4,0-0.6-0.1c-0.3,0.5-1,0.9-1.5,1
		C120.8,100,121.7,99.2,122.3,98.6z"/>
	<path class="st0" d="M121.1,98.1c-0.2-0.1-0.3-0.3-0.4-0.4l0,0l0,0c-0.4,0.5-1.4,0.7-2,0.7c-0.1,0.1,0,0.2,0.1,0.3
		c0.3,0.2,1.1,0.2,1.7,0C120.7,98.5,120.9,98.3,121.1,98.1z"/>
	<path class="st0" d="M120.3,97.3c-0.2-0.1-0.3-0.2-0.5-0.3c-0.1-0.1-0.3-0.3-0.4-0.4c-0.2,0.7-0.6,0.7-1,0.7c-0.1,0-0.2,0-0.2,0
		l0,0c-0.1,0-0.2,0.1-0.3,0.1c-0.1,0.2,0,0.3,0.2,0.4l0,0c0.2,0.1,0.5,0.2,1,0.2C119.6,97.8,120.1,97.6,120.3,97.3z"/>
	<path class="st0" d="M118.9,96c0-0.1-0.1-0.1-0.1-0.2c-0.3,0.1-0.6,0.1-0.9-0.1c-0.2,0.3-0.5,0.6-0.8,0.7h0c0,0-0.1,0-0.1,0.1
		c0.1,0.2,0.4,0.3,0.6,0.3c0.1,0,0.2,0,0.3,0l0,0c0.1-0.1,0.3-0.1,0.4-0.1C118.6,96.7,118.9,96.7,118.9,96z"/>
	<path class="st0" d="M117.6,95.3c-0.3-0.1-0.6-0.2-0.8-0.4c-0.2,0.1-0.5,0.1-0.8-0.1c-0.2-0.1-0.3-0.3-0.5-0.4c0,0.2,0,0.4-0.1,0.6
		c0.2,0.3,0.2,0.5,0.2,0.7h0.1C115.7,96.5,117.3,96.1,117.6,95.3z"/>
	<path class="st0" d="M126.3,105.7c-0.3-0.3-0.5-0.6-0.7-1c-0.5-0.1-0.9-0.2-1.2-0.5c-0.1,0.1-0.2,0.2-0.3,0.3
		c-0.4,0.4-0.7,0.7-1.2,0.8c0.3,0.5,0.4,0.8,0.7,1c0.3,0.2,0.8,0.3,1.8,0.3c0.2,0,0.4-0.1,0.5-0.1l0,0
		C126.2,106.3,126.3,106,126.3,105.7z"/>
	<path class="st0" d="M124.2,103.7c-0.1-0.1-0.1-0.3-0.1-0.4c-0.2-0.1-0.4-0.2-0.6-0.3c-0.2,0-0.4,0.1-0.5,0.3
		c-0.1,0.1-0.1,0.1-0.1,0.2l0,0c-0.3,0.4-0.6,0.6-1,0.7c0,0.4,0.2,0.7,0.7,0.7c0.6,0,0.9-0.3,1.2-0.7
		C123.9,104,124.1,103.8,124.2,103.7z"/>
	<path class="st0" d="M123.2,102.5c0-0.1,0-0.2,0-0.2c-0.4,0-0.7-0.1-1-0.4c-0.1,0-0.2,0-0.2-0.1c-0.3,0.2-0.3,1.1-1.2,1.3
		c0.1,1,1.3,0.4,1.7-0.1l0,0c0.1-0.1,0.1-0.1,0.2-0.2C122.8,102.7,123,102.6,123.2,102.5z"/>
	<path class="st0" d="M121.5,101.7c-0.1-0.1-0.2-0.2-0.3-0.2c-0.8,0.1-1.5,0.2-2.3,0.2c0.3,0.6,1.3,1.2,1.9,1
		C121.2,102.4,121.3,102,121.5,101.7z"/>
	<path class="st0" d="M120.8,100.9c-0.2-0.3-0.3-0.6-0.4-0.9c-0.5-0.1-0.9-0.3-1-0.8c-0.4,0-0.9-0.1-1.1-0.4
		c-0.5,0.1-0.9,0.5-1.6,0.6c0,0.1,0.1,0.2,0.2,0.3l0,0c0.1,0.1,0.1,0.1,0.2,0.1c0.3,0.1,0.4,0.2,0.5,0.4
		C118,101.3,119.8,101.1,120.8,100.9z"/>
	<path class="st0" d="M118.1,98.4c0,0,0-0.1,0-0.1c-0.5-0.1-0.9-0.4-0.8-1c-0.4,0.5-1.4,1-1.8,1.1C116.2,99.5,117.4,98.7,118.1,98.4
		z"/>
	<path class="st0" d="M116.9,97.1c-0.2-0.1-0.3-0.3-0.3-0.4c-0.3,0.1-0.7,0-0.9-0.1c-0.3,0.4-0.8,0.9-1.3,0.9l0,0c0,0-0.1,0-0.1,0.1
		c0.1,0.4,0.3,0.6,0.7,0.6C115.4,98,116.6,97.5,116.9,97.1z"/>
	<path class="st0" d="M114.7,96.4c-0.2,0-0.5,0-0.7-0.1c0.1,0.3,0,0.4-0.1,0.6C114.2,97.1,114.5,96.7,114.7,96.4z"/>
	<path class="st0" d="M135,103c-0.6,0.1-1-0.4-1.2-0.9c-0.6,0.6-1.5,1.8-2.2,2.2c0.5,0.6,1.2,0.7,1.9,0.4c0.1,0,0.1-0.1,0.1-0.1l0,0
		C133.8,104.5,134.8,103.5,135,103z"/>
	<path class="st0" d="M133.2,102c-0.3-0.1-0.5-0.3-0.7-0.6c-0.7,0.8-1.6,1.6-2.7,1.8c0.2,0.5,0.8,0.9,1.4,0.7
		C131.6,103.8,132.6,102.7,133.2,102z"/>
	<path class="st0" d="M132,101.1c-0.5,0-0.9-0.3-1.1-0.7c-0.7,0.7-1.8,1.4-2.7,1.4C129,103.8,131,102.2,132,101.1z"/>
	<path class="st0" d="M130.4,100.1c-0.5-0.1-0.9-0.5-1.2-0.8c0,0,0,0,0,0c0,0.2-0.1,0.3-0.2,0.4c-0.2,0.3-0.6,0.5-1.1,0.7
		c-0.5,0.2-1,0.4-1.6,0.4c0.1,0.6,0.9,0.6,1.5,0.5C128.5,101.5,129.8,100.7,130.4,100.1z"/>
	<path class="st0" d="M128.8,99.2c-0.4-0.1-0.8-0.3-1.1-0.5c-0.6,0.5-1.9,0.7-2.6,0.4c-0.2,0.1-0.5,0.2-0.8,0.3
		c0.1,0.2,0.5,0.3,0.9,0.5c1,0.5,1.5,0.4,2.5,0c0.4-0.2,0.7-0.4,0.9-0.5c0.1-0.1,0.1-0.1,0.1-0.1L128.8,99.2z"/>
	<path class="st0" d="M127.4,98.3c-0.1-0.1-0.2-0.2-0.2-0.4c-0.5-0.1-0.9-0.4-1.3-0.8c-0.6,0.2-1.1,0-1.3-0.5
		c-0.2,0.5-0.4,0.9-0.9,1.2c0,0-0.1,0-0.2,0.1l0,0c-0.2,0.1-0.5,0.3-0.7,0.4c0.2,0.8,1.9,0.7,2.4,0.1
		C125.6,98.8,126.8,98.8,127.4,98.3z"/>
	<path class="st0" d="M124.1,96c-0.1,0-0.2-0.1-0.2-0.1c-0.1,0.2-0.2,0.4-0.4,0.6l0,0c-0.2,0.2-0.4,0.2-0.6,0.3
		c-0.3,0.3-0.9,0.6-1.5,0.7c-0.1,0-0.1,0-0.2,0c0.2,0.3,0.7,0.4,1,0.4l0,0l0,0l0,0c0.3,0,0.7-0.3,0.9-0.4l0,0c0,0,0.1-0.1,0.2-0.1
		c0.5-0.2,0.6-0.6,0.7-1C124.1,96.2,124.1,96.1,124.1,96z"/>
	<path class="st0" d="M123.4,95.8c-0.2-0.1-0.3-0.2-0.4-0.3c-0.5,0-0.9-0.2-1.4-0.8c-0.3,0.1-0.5,0-0.7-0.3
		c-0.2,0.8-0.7,1.2-1.5,1.2c0.2,0.4,0.4,0.7,0.7,0.9c0.6,0.5,2,0.4,2.5-0.3C122.8,96.3,123.2,96.2,123.4,95.8z"/>
	<path class="st0" d="M120.4,94.1c-0.2,0-0.5,0-0.8-0.2c-0.3,0.6-0.8,1.2-1.4,1.4c0.2,0.1,0.4,0.1,0.7,0
		C119.7,95,120.2,95.2,120.4,94.1C120.4,94.1,120.4,94.1,120.4,94.1z"/>
	<path class="st0" d="M119.3,93.5c-0.1-0.1-0.1-0.1-0.2-0.2c-0.1,0-0.2,0-0.3-0.1c-0.3,0.3-0.6,0.4-1,0.3c-0.2,0.2-0.4,0.2-0.6,0.2
		c0,0.3,0,0.5-0.1,0.7C117.9,95.2,118.9,94.5,119.3,93.5z"/>
	<path class="st0" d="M142.6,102.8c-0.3,0-0.7-0.1-1.1-0.3c-0.7,0.4-1.2,0.9-1.9,1.3C140.6,104.3,141.8,103.5,142.6,102.8z"/>
	<path class="st0" d="M140.8,102.4c-0.7-0.3-1.4-0.6-2.1-0.9c-0.2,0.8-0.9,2-1.8,2.3C138.1,104.7,139.9,103,140.8,102.4z"/>
	<path class="st0" d="M138.2,101.3c-0.5-0.2-0.9-0.4-1.3-0.6c-0.2,0.7-0.6,1.4-1.1,1.9c0.4,0.8,0.9,1,1.5,0.4
		C137.7,102.5,138.1,101.8,138.2,101.3z"/>
	<path class="st0" d="M136.4,100.5c-0.4-0.2-0.8-0.4-1.3-0.5c-0.1,0.6-0.4,1.3-0.9,1.7C134.9,103.5,136.2,101.4,136.4,100.5z"/>
	<path class="st0" d="M134.6,99.7c-0.3-0.1-0.6-0.3-0.9-0.4c-0.3,0.7-0.6,1.2-1,1.5C133.4,102.5,134.4,100.8,134.6,99.7z"/>
	<path class="st0" d="M133.2,99.1c-0.3-0.2-0.7-0.3-1-0.5c-0.2,0.5-0.4,1.1-1,1.3c0.2,0.5,0.6,0.8,1.1,0.4
		C132.7,100.2,133,99.8,133.2,99.1z"/>
	<path class="st0" d="M131.8,98.4c-0.4-0.2-0.7-0.4-1.1-0.5c-0.1,0.5-0.4,1-0.8,1.2c0.4,0.5,1.1,0.8,1.6,0.2
		C131.5,99.1,131.6,98.8,131.8,98.4z"/>
	<path class="st0" d="M129.5,97.3c-0.8-0.4-1.5-0.8-2.3-1.2c-0.2,0.4-0.5,0.7-0.8,0.9C127.3,97.8,128.4,97.5,129.5,97.3z"/>
	<path class="st0" d="M126.7,95.8c-0.3-0.2-0.6-0.3-0.8-0.5c-0.3,0.4-0.7,0.6-1,0.7c-0.1,0.9,1,0.6,1.4,0.3
		C126.5,96.2,126.6,96,126.7,95.8z"/>
	<path class="st0" d="M125.4,95c-0.1-0.1-0.2-0.1-0.3-0.2c-0.2,0.1-0.4,0.1-0.5,0.2c-0.3,0.1-0.5,0.2-0.8,0.3
		c0.2,0.1,0.4,0.2,0.6,0.2C124.7,95.5,125,95.4,125.4,95z"/>
	<path class="st0" d="M124.5,94.5c-0.1-0.1-0.3-0.1-0.4-0.2c0,0,0,0,0,0v0c-0.4-0.2-0.8-0.5-1.2-0.7c-0.2,0.3-0.5,0.6-0.8,0.9
		c0.7,0.7,1.4,0.4,2.2,0.1C124.4,94.5,124.4,94.5,124.5,94.5z"/>
	<path class="st0" d="M122.5,93.3c-0.3-0.2-0.5-0.3-0.7-0.5c0,0-0.1,0.1-0.1,0.1c-0.2,0.3-0.4,0.6-0.6,0.8c0.2,0.5,0.5,0.5,0.7,0.4
		C122,93.9,122.3,93.6,122.5,93.3z"/>
	<path class="st0" d="M121.3,92.6c-0.3-0.2-0.5-0.3-0.7-0.5c-0.2,0.4-0.5,0.8-0.9,1c0.5,0.4,0.8,0.4,1,0.2
		C120.9,93.2,121.1,92.9,121.3,92.6C121.3,92.7,121.3,92.6,121.3,92.6z"/>
	<path class="st0" d="M118.4,92.9c-0.2-0.3-0.4-0.7-0.6-1.1c0,0,0,0,0-0.1c-0.1,0.4-0.4,0.7-0.8,0.9c0,0.2,0.1,0.4,0.1,0.6
		c0.3,0.1,0.4-0.1,0.5-0.3C117.9,93,118.2,93.2,118.4,92.9z"/>
	<path class="st0" d="M127.8,98c0.7,0.9,2,1,2.3-0.4C129.4,97.8,128.6,98,127.8,98z"/>
	<path d="M77.7,85.5c0.1,0.4,0.4,0.6,0.7,0.9c0.3,0.2,0.4,0.5,0.4,0.8c0.2,0.8-0.5,0.9-1,0.4c-0.2-0.2-0.4-0.5-0.8-0.9
		c0,0.6,0.2,0.9,0.5,1.1c0.1,0.1,0.6,0.7,0.9,0.9c0.2,0.1,0.5-0.2,0.6-0.4c0.1-0.1,0.2-0.5,0.2-0.8c0.1-0.5-0.3-0.7-0.9-1.2
		C78.1,85.9,77.9,85.6,77.7,85.5z"/>
	<path d="M78.1,84.7c0.1,0.9,1.4,1.9,2,1.5c0.2-0.1,0.4-0.4,0.4-0.7c0.1-0.3,0-0.8-0.3-1.3c-0.3-0.4-0.7-0.7-1.3-0.6
		c0.2,0.1,0.5,0.5,0.8,0.8c0.4,0.4,0.8,0.9,0.4,1.3c-0.3,0.3-0.9,0.1-1.2-0.2c-0.2-0.1-0.2-0.3-0.3-0.4
		C78.5,84.9,78.3,84.9,78.1,84.7z"/>
	<path d="M80,83.1c0.1,0.1,0.3,0.2,0.4,0.4c0.4,0.5,0.9,1.1,1.3-0.1c0.1-0.2,0.1-0.4-0.1-0.6c-0.3-0.3-0.8-0.7-1-0.7
		c0.2,0.2,0.8,0.8,0.7,1c-0.1,0.1-0.2,0.2-0.4,0.1C80.6,83.2,80.1,83.1,80,83.1z"/>
	<path d="M77.5,88.5c0.1,0.3,0.7,0.5,0.5,1c-0.1,0.3-0.4,0.3-0.7,0.3c-0.3-0.1-0.8-0.3-1.2-0.5c-0.4-0.3-0.7-0.6-0.5-1.2
		c0,0.3,0.3,0.5,0.5,0.6c0.3,0.1,0.6,0.6,1.1,0.7C77.9,89.4,77.1,88.6,77.5,88.5z"/>
	<path d="M74.3,90.1c0.4,0.9,1.4,2.1,2.2,1.6c0.3-0.2,0.5-0.6,0.4-0.9c-0.2-0.3-0.8-0.5-1-1c-0.2,0.3,0.9,1.2,0.5,1.5
		C75.8,91.8,74.6,90.4,74.3,90.1z"/>
	<path d="M93.7,99.5c0.1,0.6,0,1,0.4,1.4c0.1,0.1,0.2,0.2,0.3,0.4c0.1-0.4,0.2-0.5,0.4-0.7C94.4,100.4,94,100,93.7,99.5z"/>
	<path d="M94.5,102.2c0.1,0.4,0.2,0.5,0.5,0.7c0.2-0.2,0.4-0.4,0.5-0.8C94.9,102.5,94.9,102.5,94.5,102.2z"/>
	<path d="M96.4,101.9c0.2,1-0.1,1.7-0.8,0.9c0,0.5,0.2,0.7,0.5,1.1C96.6,103.6,97.2,102.2,96.4,101.9z"/>
	<path d="M97,99.7c0,0.3,0.1,0.5,0.3,0.7c0.2,0.3,0.2,0.6,0.4,0.9c0.2-0.2,0.3-0.5,0.3-1C97.5,100.3,97.2,100.1,97,99.7z"/>
	<path d="M96.3,104.3c0.1,1.4,0.7,1,1.6,0.9c-0.2-0.4-0.4-0.7-0.4-1.1c0-0.2,0-0.4-0.1-0.5c-0.3,0.5-0.1,0.7,0.2,1.3
		c-0.3,0.1-0.5,0-0.6-0.2C96.8,104.5,96.6,104.3,96.3,104.3z"/>
	<path d="M95,104c0.1,0.5,0.4,1,0.7,1.4c-0.1-0.4-0.1-0.8,0.1-1.2C95.5,104.2,95.2,104.1,95,104z"/>
	<path d="M111,91.3c-0.6,0.4-0.6,0.7-0.5,1c0.1,0.3,0,0.8-0.4,0.8c-0.3,0-0.4-0.5-0.4-0.5c0,0.2,0.1,0.4,0.1,0.6
		c0.1,0.5,0.2,0.9,0.4,0.9c0.5-0.1,0.5-1.3,0.5-1.7C110.8,92.1,110.8,91.8,111,91.3z"/>
	<path d="M111.4,90.8c0.1,0.2,0.1,0.5,0.1,0.7c0.3,1.7,0.9,1.3,1.4,1.3c0.6,0,0.6-1,0.6-1.3c0-0.6-0.1-1-0.5-1.3
		c-0.3,0.5,0.6,1.6,0.1,2.2c-1,1-0.9-0.9-1.2-1.3C111.8,90.9,111.6,90.8,111.4,90.8z"/>
	<path d="M113.8,89.9c-0.1,0.7,0.2,1.5,0.5,1.8c0.2,0.3,0.2,0.6,0.2,0.7c1.5-0.5,1-2,0.9-3.1c-0.2,0-0.3,0.3-0.3,0.6
		c0,0.5,0.5,1.7-0.5,1.8c-0.3-0.3-0.2-0.8-0.3-1.1C114.3,90.2,114.2,90,113.8,89.9z"/>
	<path d="M111.1,94c-0.2,0.3,0.4,1.6,1,1.6c0.3,0,0.4-0.1,0.7-0.8c0.3-0.9-0.5-1-0.7-1.2c0.2,0.3,0.6,1.3-0.2,1.2
		C111.6,94.7,111.3,94.2,111.1,94z"/>
	<path d="M111,97.3c0.1-0.2,0.2-0.2,0.3-0.3c0.3-0.6,0.2-1-0.3-1.4c0,0.1,0,0.2,0,0.3c-0.1,0.3-0.3,0.6-0.5,0.4
		c-0.1-0.2-0.2-0.6-0.1-0.8c-0.5,0.4-0.2,1.2,0.1,1.4C110.6,97,110.8,97.2,111,97.3z"/>
	<path d="M110.5,91.2c-0.1-0.2-0.3-0.5-0.4-0.6c-0.8-1-0.9-1.3-0.8-2.5c0.1,0,0.3,0.3,0.4,0.7c0.2,0.6,0.5,1.5,1.2,1.2
		c0.4-0.2,0.3-1.2,0.3-1.5c-0.1-0.3-0.2-0.5-0.3-0.6c0.2,0,1.1,0.9,0.4,2.4C111.1,90.4,110.9,90.6,110.5,91.2z"/>
	<path d="M111.7,86.9c-0.2,0.6-0.2,1.1-0.1,1.5c0.3,0.9,0.7,1.1,1.5,1.3c0.3-0.5,0.4-1.5,0.2-2.1c-0.4,0.6-0.1,1.1-0.3,1.2
		c-0.3,0.1-0.7,0.1-0.9-0.2C111.5,88,112.4,87.6,111.7,86.9z"/>
	<path d="M110.2,103.5c0,0.5,0.2,0.7,0.4,1c0.1,0.3,0.3,0.6,0.4,1.1c0.5-0.3,1.4-1.6,1-2.2c-0.2-0.3-0.5-0.4-0.5-0.7
		c-0.1,0.2,0.1,0.4,0.2,0.7c0.1,0.2,0.1,0.6-0.2,0.9c-0.1,0.2-0.3,0.3-0.5,0.1C110.5,103.9,111,103.7,110.2,103.5z"/>
	<path d="M111.7,105.9c0.1,0.3,0.2,0.5,0.3,0.7c0.3,0.4,0.4,0.6,0.6,0.7c0.1,0,0.3,0.1,0.5-0.3c0.2-0.3,0.3-0.9,0.3-1.1
		c-0.3,0.2-0.2,0.4-0.4,0.6c-0.4,0.4-0.8-0.2-0.9-0.3C112,105.9,111.8,105.9,111.7,105.9z"/>
	<path d="M109.5,106.1c-0.1,0.6,0.4,0.3,0.4,0.6c0,0.6,0.3,0.5,0.6,0.5c0.6-0.1,0.6-1,0.5-1.1c-0.2,0.8-0.9,0.8-0.9-0.1
		C110,106.1,109.7,106.2,109.5,106.1z"/>
	<path d="M104.9,84.3c0.3-0.1,0.2,0.4,0.2,0.8c0.1,1.2,1.4,1.1,1.5,0.6c-1.2,0.4-1.2-1.3-1.2-2.1C105.2,83.5,104.9,84.1,104.9,84.3z
		"/>
	<path d="M106.3,83.8c0.1,0.3,0.3,0.7,0.4,1c0.2,0.4,0.2,0.8,0.1,0.9C107.5,85.5,106.9,83.8,106.3,83.8z"/>
	<path d="M107.8,85.2c-0.3,0.4-0.3,0.9-0.1,1.4c0.1,0.3,0.3,0.7,0.5,0.9c0.2,0.2,0.3,0.2,0.4,0.2c1.2-0.4,0.6-1.5,0.8-2.1
		c-0.2,0.2-0.2,0.5-0.3,0.8c-0.1,0.3-0.3,0.7-0.5,0.7c-0.2,0-0.4-0.4-0.5-0.8C108.1,86.1,107.9,85.5,107.8,85.2z"/>
	<path d="M105.6,86.5c-0.3,0.4-0.3,0.9-0.1,1.4c0.1,0.3,0.3,0.7,0.5,0.9c0.2,0.2,0.3,0.2,0.4,0.2c0.8-0.1,1-1.3,0.7-1.9
		c-0.1-0.2-0.3-0.4-0.3-0.7c-0.2,0.5,0.3,1.4-0.1,2.1c-0.1,0.2-0.7-0.2-0.7-0.6C105.8,87.4,106,86.9,105.6,86.5z"/>
	<path d="M102.5,85.1c-0.1,0.6,0.7,1.9,1.4,2c0.4,0,0.8-0.8,0.8-1.1c-0.1-0.4-0.3-0.7-0.5-1.3c-0.1-0.1-0.2-1-0.4-0.5
		c-0.1,0.5-0.1,0.8,0.1,1c0.2,0.4,0.5,0.7,0.1,1.1C103.3,86.9,103.2,85.3,102.5,85.1z"/>
	<path d="M100.5,86.2c-0.1,0.5,0.3,1,0.6,1.4c0.2,0.2,0.4,0.5,0.7,0.6c0.2,0.1,0.3-0.1,0.4-0.2c0.8-0.4,0.7-0.6,0.4-1.3
		c-0.2-0.5-0.5-0.9-1-1c0,0.5,0.7,1.1,0.7,1.8c0,0.2-0.7,0.4-0.9,0C101.1,87,101.1,86.3,100.5,86.2z"/>
	<path d="M106.2,93.4c-0.3-0.2-0.6-0.7-0.6-0.8c0,0.4,0.1,1.1,0.4,1.3c0.3,0.2,0.8,0.3,1.1-0.7c0-0.2,0-0.4,0-0.6
		C107,92.7,106.7,93.7,106.2,93.4z"/>
	<path d="M104.7,90.7c-0.3,0.7,0,1,0.2,1.4c0.1,0.3,0.4,0.3,0.5,0c0.1-0.1,0.1-0.5,0.2-0.6c-0.2-0.2-0.3,0-0.5,0.1
		C105,91.7,104.8,91.4,104.7,90.7z"/>
	<path d="M103.5,92.7c0.6-0.3,0.2-1,0.1-1.5c-0.3,0.4-0.1,0.6-0.1,1C103.6,92.4,103.6,92.5,103.5,92.7z"/>
	<path d="M103.1,88.5c0.1,0.1,0.2,0.1,0.3,0.2c0.3,0.3,0.1,0.8,0.4,1.1c0.2,0.2,0.5,0.3,0.9,0.3c0.1-0.1,0.1-0.5,0.2-0.8
		c0.3-0.9,0.2-1.2-0.2-1.8c-0.1,0.1-0.2,0.3-0.2,0.6c-0.1,0.3,0,0.7-0.1,1c-0.1,0.4-0.5,0.1-0.6,0c-0.1-0.1-0.1-0.4-0.1-0.7
		c0-0.4,0-0.7-0.2-0.7c-0.2,0-0.3,0.4-0.4,0.6C103.2,88.4,103.1,88.5,103.1,88.5z"/>
	<path d="M107.9,88.6c-0.4,0.4,0.1,1.3-0.2,1.6c-0.4,0.4-0.5-0.4-1-0.4c0.1,0.3,0,0.6,0.3,0.9c0.3,0.3,0.4,0.3,0.7,0.2
		c0.3-0.2,0.7-0.7,0.6-0.9C108.1,89.6,107.7,88.8,107.9,88.6z"/>
	<path d="M108.5,93.8c0-0.4,1.2-1.4,0.5-3c-0.2,1.1-0.2,1.8-0.5,2c-0.3,0.2-0.9-0.2-0.7-1c-0.1,0.1-0.2,0.2-0.2,0.5
		C107.6,93.2,108.1,93.2,108.5,93.8z"/>
	<path d="M96.9,92.8c0.2,0.1,0.3-0.3,0.3-0.4c0,0.5,0.2,0.9,0.4,1.2c0.2,0.2,0.2,0.4,0.2,0.6c0,0.2-0.2,0.5-0.4,0.7
		c-0.2,0.2-0.2,0.5-0.3,0.5c-0.2,0-0.5,0-1.2-0.7c-0.3-0.3-0.2-0.6-0.2-0.8c0,0.1,0.2,0.1,0.3,0.2c0.2,0.2,0.5,0.7,0.9,0.7
		c0.4,0.1,0.5-0.4,0.5-0.6c-0.1-0.3-0.4-0.8-0.5-1.1C96.7,93,96.5,92.7,96.9,92.8z"/>
	<path d="M99.1,91.8c-0.1-0.3-0.2-0.6-0.2-0.6c-0.1,0.2-0.1,0.6-0.1,0.9c-0.1,0.5-0.3,0.5-0.4,0.6c-0.3,0.1-0.5-0.3-0.7-0.4
		c-0.2-0.2-0.2,0.1-0.1,0.4c0.1,0.3,0.3,0.6,0.5,0.8c0.2,0.2,0.4,0.2,0.5,0.1c0-0.1,0.1-0.4,0.2-0.7c0.1-0.2,0.2-0.2,0.3-0.3
		C99.4,92.4,99.4,92.4,99.1,91.8z"/>
	<path d="M98.7,94.4c0.4,0.2,0.5,0.5,0.7,0.5c0.2,0,0.4-0.2,0.4-0.6c0.1-0.3,0.1-0.6,0.2-0.8c0,0.4,0.2,1.2-0.2,1.5
		C99,95.7,98.7,94.5,98.7,94.4z"/>
	<path d="M100.6,93.8c-0.1,1.6,0.3,1.5,0.7,2.3c0.2,0.3,0.4-0.1,0.7-0.4c0.3-0.3,0.6-0.9,0.2-1.6c-0.2,0.9-0.5,1-0.6,1
		c-0.1,0.1-0.3-0.2-0.4-0.6c-0.1-0.2-0.1-0.4-0.1-0.6C101,93.9,100.7,93.8,100.6,93.8z"/>
	<path d="M100,91.2c-0.4,1.1,0.2,1.2,0.4,1.8c0.1,0.2,0.1,0.4,0.2,0.6c1.1-0.4,1-0.8,1.4-1.5c0.2-0.4-0.1,1,0.8,1.1
		c-0.4-0.4-0.6-1.7-0.3-2.2c0.3-0.6,0.7-0.7,0.3-1.4c-0.1-0.1-0.2-0.3-0.3-0.3c0,0.8-0.1,1.3-0.4,1.3c-0.2,0.1-0.6-0.2-0.8-0.9
		c0,0.2-0.3,0.4-0.1,0.8c0.2,0.4,0.6,0.7,0.6,1.1c0,0.2-0.1,0.3-0.1,0.4c-0.2,0.3-0.2,0.2-0.3-0.1c-0.1-0.2-0.3-0.4-0.3-0.6
		c0.2,0.8-0.1,1.2-0.4,1.2C100.4,92.4,100,92,100,91.2z"/>
	<path d="M100.3,95.7c-0.3,0.4-0.2,1-0.2,1.4c0,0.5-0.7,0.4-1,0.4c0.1,0.5,0.8,0.1,1,0.3c0.3,0.2,0.5,0.7,0.6,0.8
		c0.8,0.7,1.3-0.1,1-0.9c-0.1-0.4-0.3-0.8-0.3-0.8c-0.1,0.3,0.1,1.3-0.5,0.8C100.4,97.2,100.1,95.9,100.3,95.7z"/>
	<path d="M93,95.5c0.3-0.2,0.4-0.4,0.5-0.7c0.2,0.5,0.7,1.1,0.8,1.8c0.2-0.5,0.6-0.5,0.8-0.9c0.1-0.2,0.2-1.3-0.2-1.3
		c0.1,0.9-0.3,0.6-0.6,1.2c-0.6-0.7-0.6-0.8-0.8-1.7c-0.1-0.5-0.4-1.1-0.8-1.1v0c0.7,0.9,0.2,1.3,0.4,2c-1-0.2-1-0.6-1.2-1.1
		c-0.1,0.3-0.1,0.6,0,0.8C92.4,95.3,92.8,95.2,93,95.5z"/>
	<path d="M90.8,96.4c0.3-0.3,0.5-0.6,0.6-1.1c0-0.3-0.2-0.6-0.7-0.6c0.5,0.6,0.1,1,0.1,1c-0.4-1.2-0.7-0.5-0.8-0.4
		c0.4,0,0.4,0.5,0.6,0.8C90.7,96.2,90.7,96.3,90.8,96.4z"/>
	<path d="M95.3,92.5c-0.1,0.1-0.2,0.3-0.3,0.4c-0.4,0.4-0.5-0.2-0.8-0.4c-0.1-0.1-0.2-0.2-0.4-0.3c0.3,0.4,0,1.3,0.8,1.4
		c0.4,0.1,0.6-0.2,0.7-0.5C95.4,92.9,95.4,92.7,95.3,92.5z"/>
	<path d="M95.1,91.4c0.1,0.1,0.3,0.2,0.4,0.3c0.1,0.1,0.3,0.5,0.6,0.6c0.5,0.4,0.6-0.2,0.7-0.6c0.1-0.5-0.1-0.8-0.2-1
		c0-0.3-0.1-0.5,0-0.6c-0.5,0.6,0,1.4-0.2,1.6c-0.2,0.2-0.3,0.1-0.6-0.2C95.5,91.3,95.4,91.4,95.1,91.4z"/>
	<path d="M97,90.7c0.4-0.6,0-0.9-0.1-1.4c0-0.1,0-0.2-0.1-0.3c0,0-0.3,0.4,0,1.1C96.9,90.3,97,90.5,97,90.7z"/>
	<path d="M98,88.7c0.1,0.3,0.2,0.6,0.3,0.8c0.3,0.4,0.5,0.7,0.1,0.8c-0.2,0.1-0.6,0.3-0.9,0.3c0.2,0.2,0.6,0.1,0.9,0
		c0.3-0.1,0.5-0.3,0.5-0.6c0-0.2-0.1-0.4-0.3-0.6C98.3,89.1,98.1,88.7,98,88.7z"/>
	<path d="M99.5,86.8c0.1,0.1,0.1,0.3,0.2,0.5c0,0,0.4,0.4,0.6,1c0.1,0.3,0.2,1-0.1,1.3c-0.3,0.4-0.7,0.2-0.9,0
		c-0.3-0.3-0.8-1-0.9-1.3c0.1-0.1,0.4,0.1,0.6,0.2c0.3,0.2,0.4,0.7,0.9,0.6c0.2-0.1,0.2-0.3,0.1-0.7C99.9,87.9,99.3,87.3,99.5,86.8z
		"/>
	<path d="M95.5,86.9c-0.1,0.3,0.1,0.9,0.6,1.1c0.4,0.3,0.8,0.4,1.2,0.6c0.1-0.8-0.2-1.5-0.7-2.1c0.2-0.2,0.6-1.1,0.4-1.4
		c0.2,0,0.6,0.2,0.8,0.5c0.7,0.7,0.6,1.1,0.3,0.9c-0.2-0.1-0.4-0.2-0.9,0c0.3,0.1,0.3,0.6,0.8,1.1c-0.1,0,0.6-1.3,1.3-1.5
		c0.2-0.1,0.3-0.1,0.5,0c0.2-0.3-0.1-0.9-0.4-1.4c-0.3-0.5-0.6-1-0.6-1.3c-0.2,0.5-0.2,0.6,0,1.1c0.1,0.3,0.4,0.4,0.3,0.8
		c-0.7-0.1-1.7-0.4-2.2-1c-0.6,0.8,0.1,0.9-0.1,1.6c-0.1,0.1-0.1,0.2-0.2,0.3c-0.2-0.6-1.1-0.5-1.1-1.5c-0.6,1,0.4,1.3,0.9,1.8
		c0.4,0.4,0.7,1,0.7,1.3c-0.4,0-0.8-0.2-1.1-0.4C95.7,87.3,95.6,87.1,95.5,86.9z"/>
	<path d="M94.5,87c-0.1,0.2-0.1,0.4,0,0.5c0.1,0.1,0.9,0.9,1.1,1.4c0.1,0.2,0.2,0.5-0.3,0.5c-0.4,0-1-0.3-1.1-0.4
		c0.3,0.3,0.4,0.7,0.7,0.8c0.3,0.1,0.6,0.2,0.9,0.3c0.1,0,0.2,0.2,0.3,0.1c0.2-0.2,0.1-0.7-0.1-1.2C95.9,88,95.3,87.8,94.5,87z"/>
	<path d="M92,87.6c0.3,0.5,0.4,0.7,1.1,0.8c0.3,0.1,0.6,0.1,0.6-0.4c0.1-0.7-0.1-1.2-0.8-1.2c0.4,0.2,0.4,0.7,0.3,0.9
		C93,88.1,92.6,88,92,87.6z"/>
	<path d="M94,91.5c0.3,0,0.8-1.3,0.1-1.3c0,0.2,0,0.6-0.1,0.8c-0.2,0.4-0.6,0.1-0.7-0.3c-0.3-0.9-0.7-0.5-0.7-0.5
		c0,0.1,0.1,0.1,0.1,0.2c0.1,0.2,0.4,0.6,0.7,0.9C93.6,91.5,93.9,91.5,94,91.5z"/>
	<path d="M90.7,91.5c0,0.3,0.1,0.4,0.1,0.6c0.3,0.5,0.4,0.8,1,0.7c0.2-0.1,0.6-0.7,0.7-0.9c0-0.5-0.6-0.9-0.8-0.7
		c0.3,0.2,0.4,0.6,0.2,0.9c-0.1,0.2-0.3,0.2-0.6,0C91,91.8,90.9,91.6,90.7,91.5z"/>
	<path d="M92,89.1C92,88.5,92,88,91.5,87.6c-0.3-0.2-0.5-0.4-0.7-0.4c-0.1,0.5,0.4,0.8,0.6,1c0.2,0.2,0.2,0.6,0.1,0.8
		c-0.1,0.2-0.3,0.3-0.6-0.1c-0.3-0.2-0.6-0.6-0.7-0.7c0,0.3,0.1,0.6,0.3,0.9c0.3,0.4,0.7,0.6,1,0.6C91.8,89.8,92.1,89.7,92,89.1z"/>
	<path d="M88.7,89.5c0.2,0.4,0,0.8,0.6,0.8c0.3,0,0.5-0.3,0.4-0.6c-0.1-0.3-0.2-0.5-0.3-0.7c0.2,0.1,0.3,0.1,0.5,0.2
		c0.3,0.3,0.3,0.8,0.2,1.2c-0.2,0.5-0.3,0.8-0.6,0.8c-0.3,0-0.7-0.3-0.9-0.7C88.5,90.3,88.5,89.9,88.7,89.5z"/>
	<path d="M89.7,92.3c0.4,0.5,0.4,0.4,0.3,1.1c0,0.2,0.1,0.3,0.1,0.5c0.1-0.2,0.1-0.3,0.2-0.4C90.7,92.6,90.3,92.4,89.7,92.3z"/>
	<path d="M88.5,92.6c0,0.2-0.1,0.4,0,0.5c0.2,0.5,0.5,1,1.3,1.2c-0.1-0.2-0.1-0.5-0.5-0.6c-0.3-0.1-0.4-0.3-0.5-0.5
		C88.8,93.1,88.6,92.8,88.5,92.6L88.5,92.6z"/>
	<path d="M86.3,91.3c0,0.3,0,0.5,0.1,0.6c0.4,0.5,0.5,0.7,1.1,0.6c0.3-0.1,0.4-0.2,0.5-0.5c0.1-0.3,0.3-0.8-0.1-1.1
		c-0.1-0.1-0.3-0.2-0.5-0.3c0.2,0.3,0.3,0.6,0.2,0.8c-0.1,0.5-0.3,0.7-0.8,0.4C86.7,91.6,86.5,91.4,86.3,91.3z"/>
	<path d="M84.4,92.7c0.2,0.3,0.3,0.9,0.7,1c0.3,0,0.6-0.2,0.7-0.5c0.1-0.2,0.3-0.5,0.3-0.8c0.1-0.4-0.3-0.9-0.4-1.3
		c-0.1,0.4-0.1,0.7-0.1,1.1c0,0.3-0.3,1-0.6,0.9C84.9,93.1,84.6,92.8,84.4,92.7z"/>
	<path d="M85.4,94.1c0,0.3,0.1,0.6,0.3,0.9c0.2,0.2,0.3,0.4,0.2,0.8c-0.1,0.3-0.7,0.4-0.8,0c0-0.2-0.1-0.4-0.5-0.4
		c0.2,0.3,0.2,0.5,0.4,0.8c0.1,0.2,0.2,0.5,0.4,0.7c0.4-0.4,1-0.5,1-1.5C86.3,94.9,85.7,94.4,85.4,94.1z"/>
	<path d="M86.6,94.1c0,0.8,0.9,2,1.6,1.3c0.3-0.3,0.3-1.3,0.1-1.7c-0.1-0.2-0.3-0.4-0.4-0.5c0,0.5,0.2,1.1,0.1,1.5
		c-0.1,0.5-0.5,0.3-0.9,0.1C86.8,94.6,86.7,94.2,86.6,94.1z"/>
	<path d="M94,83.4c0.1,0.1,0.4,0.3,0.7,0.5c0.3,0.2,0.7,0.4,0.9,0.3c0.3-0.2,0.4-1.1,0.7-1.4c-0.4,0-0.6,0-0.7,0.1
		c-0.2,0.1-0.2,0.6-0.3,0.6c-0.2,0.1-0.5-0.1-0.7-0.2C94.4,83.2,94.2,83.3,94,83.4z"/>
	<path d="M98.1,80.9c-0.3,0.2-0.3,0.5-0.2,0.8c0.2,0.5,0.5,1-0.4,0.8c-0.2-0.1-0.5-0.1-1-0.1c0.3,0.6,1.1,0.8,1.7,0.5
		c0.2-0.1,0.4-0.4,0.4-0.7C98.5,81.7,98.1,81.4,98.1,80.9z"/>
	<path d="M98.5,80.5c0.4,0.1,0.7,0.4,0.9,0.5c0.5,0.3,0.6,0.1,0.6-0.2c0-0.4-0.3-0.4-0.4-0.7c-0.3-0.7,0.3-0.8,0.3-0.9
		c-0.1,0.4,0.4,0.6,0.6,1c0.2,0.3,0.3,0.9,0.2,1.2c-0.1,0.3-0.3,0.3-0.6,0.3C99.4,81.8,98.5,81.3,98.5,80.5z"/>
	<path d="M98.3,76.2c-0.1,0.8,0.6,1.8,1.4,2c0.3,0.1,0.7,0,1-0.4c0.2-0.2,0.2-0.4-0.2-1.1c-0.4-0.7-0.8-1.5-0.8-1.6
		c-0.1,0.2-0.1,0.5-0.1,0.7c0.2,0.7,0.8,1.3,0.6,1.7c-0.1,0.2-0.4,0.4-0.9,0C99.2,77.4,98.3,76.3,98.3,76.2z"/>
	<path d="M97.6,77.2c0,0.1,0.3,0.5,0.5,0.5C98.6,77.8,97.8,77.2,97.6,77.2z"/>
	<path d="M96.8,78.1c-0.1,0.4,0.3,0.9,0.8,1.2c0.5,0.2,0.8,0.5,1,0.3c0.1-0.2,0.2-0.6,0.1-1.1c-0.1,0.3-0.1,0.4-0.1,0.7
		c-0.1,0.3-0.5,0-0.8-0.2C97.2,78.7,96.8,78.3,96.8,78.1z"/>
	<path d="M94.6,79.5c-0.4,1.2,0.5,1.3,0.9,1.5c0.2,0.1,0.3,0.3,0.6,0.4c0.3,0.1,0.7,0.1,0.8-0.4c0.1-0.5,0-1.3-0.5-1.7
		c-0.1-0.1-0.3-0.3-0.4-0.4c-0.1,0.2-0.1,0.4,0,0.7c0.1,0.2,0.4,0.7,0.4,0.9c-0.1,0.4-0.5,0.3-0.8-0.1c-0.2-0.2-0.4-0.2-0.5-0.4
		C94.8,79.7,94.6,79.6,94.6,79.5z"/>
	<path d="M91.8,80.6c0.2,0.1,0.3,0.5,0.4,0.7c0.3,0.3,0.7,0.7,0.8,0.8c0.2,0.2,0.4,0.3,0.6,0.3c0.3,0,0.5-0.2,0.6-0.6
		c0-0.2,0-0.4-0.1-0.5c-0.1-0.2-0.2-0.4-0.4-0.5c-0.3-0.2-0.4-0.6-0.5-0.7c0,0.3,0.3,0.8,0.4,1.2c0.1,0.3,0.1,0.4-0.3,0.2
		C92.8,81.1,92.5,80.4,91.8,80.6z"/>
	<path d="M92.5,82.4c-1.2-0.1-1.7-1.2-2.1-1.5c0,0.2,0.1,1.5,1.3,1.8C92.1,82.8,92.5,82.7,92.5,82.4z"/>
	<path d="M90.9,82.7c-0.1,0.1-0.3,0.1-0.4,0.3c-0.1,0.3-0.1,0.5,0,0.6c0.1,0.1,0.2,0.1,0.2,0.3c0.1,0.3,0.2,0.8,1.1,0.3
		c0.2-0.2,0.3-0.5,0.3-0.7c-0.3,0.1-1.1,0.4-1.1-0.3C90.9,82.8,91,82.7,90.9,82.7z"/>
	<path d="M90.3,85.4c0.3,0.5,1,1.3,0.9,0.3c0.5,0.4,0.3-0.7,0.3-0.8c0.2,0.2,0.3,0.3,0.4,0.5c0.1,0.4-0.1,0.7-0.5,0.6
		c0,0.2,0.2,0.8-0.4,0.6C90.6,86.4,90.2,85.8,90.3,85.4z"/>
	<path d="M92.7,84c-0.1,0.5,0,0.9,0.3,1.2c0.3,0.3,0.5,0.9,0.9,1.2c0.3,0.2,0.9,0,0.9,0c-0.2-0.7,0.1-1.7-0.6-2.1
		c0,0.1,0.2,0.8,0.1,1.2c0,0.4-0.2,0.6-0.5,0c-0.2-0.4-0.4-0.6-0.6-1C93,84.3,92.9,84.2,92.7,84z"/>
	<path d="M77.4,92.2c0.3,0.3,0.6,1.2,1.1,0.4c0.6-0.8,0.2-1.1,0.1-2c0,0.1-0.3,0.1-0.5,0.1c0.1,0.1,0.1,0.3,0.2,0.4
		C78.5,92.2,77.5,92.2,77.4,92.2z"/>
	<path d="M79.3,92.9c0.1,0.7,0.6,0.8,0.4,1.4c-0.1,0.1-0.2,0.3-0.5,0c-0.3-0.2-0.6-0.4-0.7-0.5c0.2,0.5,0.5,0.8,0.7,0.9
		c0.4,0.2,0.6,0.2,0.7,0c0.1-0.1,0.1-0.2,0.2-0.3c0.3-0.4,0.2-0.6-0.1-0.9C79.6,93.3,79.5,93.3,79.3,92.9z"/>
	<path d="M88,86.3c0.1,0.2,0.3,0.6,0.5,0.9c0.1,0.2,0.9,1,0.9,1.1c0.8-0.3,0.9-0.7,0.7-1.4c-0.1-0.4-0.3-0.7-0.6-0.8
		c0.1,0.5,0.4,0.9,0.1,1.4c-0.1,0.2-0.2,0.3-0.5-0.1C88.9,87,88.4,86.2,88,86.3z"/>
	<path d="M87,86.7c-0.1,0.8,0.5,1.2,0.5,1.4c0,0.3-0.2,0.5-0.4,0.4c-0.3-0.2-0.7-1.1-0.6-1.2c-0.8,0.8,0.1,1.7,1,1.8
		c0.4,0.1,0.5-0.5,0.5-0.7c0-0.5-0.5-1-0.6-1.1C87.4,87,87.1,86.8,87,86.7z"/>
	<path d="M84.5,88.7c-0.4,0.6,0.2,1.3,0.5,1.8c0.2,0.2,0.3,0.4,0.5,0.6c0.8-0.3,1-1.1,0.4-1.8c-0.2-0.2-0.4-0.7-0.3-0.9
		c-0.3,0.2-0.2,0.4-0.1,0.7c0.1,0.1,0.7,1.1-0.1,0.9C84.9,90,84.5,89.1,84.5,88.7z"/>
	<path d="M82.7,90.1c-0.7,0.7,0.5,2,1,2.4c0.9-0.3,0.9-1,0.2-1.7c-0.2-0.2-0.4-0.7-0.3-0.9c-0.3,0.2-0.2,0.4-0.1,0.7
		c0.1,0.1,1,1.2,0.2,1.1C83.4,91.6,82.7,90.6,82.7,90.1z"/>
	<path d="M80.4,93.2c0.4,0.2,1,0.7,1.5,0.3c0.3-0.2,0.5-0.7,0.3-1.1c-0.2-0.4-0.5-0.9-0.5-1.1c-0.3,0.5,0.3,1.3,0.2,1.6
		c-0.1,0.3-0.3,0.4-0.4,0.4C81,93.2,80.8,93.1,80.4,93.2z"/>
	<path d="M79.2,89c-0.3,0.3-0.1,0.9,0.3,1.5c0.5,0.7,0,1.4,0.8,2.1c0.1-0.6-0.2-1,0.3-1.3c0.6-0.5,0.7-0.8,0.2-1.7
		c-0.2-0.3-0.3-0.6-0.3-0.9c-0.6,0.5,0.1,0.7-0.1,1.3c-0.3,1.3-0.8-0.5-1-0.7C79.5,89.2,79.3,89,79.2,89z"/>
	<path d="M80.8,88.3c0.2-0.4,0.7-0.6,0.9-1c0.2-0.5-0.3-1-0.3-1.5c-0.1,0.1-0.1,0.2-0.2,0.3c-0.1,0.4,0.2,0.8-0.1,1.1
		c-0.1,0.1-0.3,0.2-0.3,0.2c0-0.2,0-0.8-0.4-0.6c-0.1,0.1-0.2,0.2-0.2,0.6C80.2,87.8,80.6,87.9,80.8,88.3z"/>
	<path d="M82,88.3c0,0.1-0.2,0.3-0.5,0.4c0.4,0.7,0.9,1,1.2,0.8c0.2-0.1,0.3-0.2,0.4-0.6c0.1-0.3-0.1-0.5-0.2-0.7
		c-0.1-0.2-0.2-0.4-0.4-0.5c-0.1,0.3-0.1,0.6-0.1,0.8c0.1,0.4-0.1,0.6-0.2,0.5C82.2,89,82.1,88.5,82,88.3z"/>
	<path d="M83.4,86.5c0,0.3,0.2,0.9,0.6,1.2c0.5,0.6,1,0.5,1.3,0.2c1-1,0.1-1.4-0.1-2.2c-0.1,0.2-0.2,0.7-0.2,1.1
		c-0.1,0.6-0.3,0.5-0.5,0.3C84.1,86.7,84.3,86.4,83.4,86.5z"/>
	<path d="M85.3,83.6c0,0.9,0.5,1.7,1.1,2.3c0.7,0.6,1.7,0.2,1.4-0.9c-0.1-0.4-0.4-1-0.4-1.3c-0.3,0.4-0.2,0.9-0.1,1.3
		c0.1,0.4-0.3,0.6-0.9,0.2C86,84.7,86.4,83.8,85.3,83.6z"/>
	<path d="M90.2,83.7c-0.1-0.5-0.3-0.9-1-1.3l0,0c0.3,0.5,0.9,1.7,0.6,2.1c-0.7,0.3-1.4-1-1.6-1.6c-0.4,0.4-0.4,0.6-0.1,1.2
		c0.5,0.8,1.3,1.3,1.8,1C90.2,84.9,90.4,84.4,90.2,83.7z"/>
	<path d="M81.6,85.1c0.3,0.1,0.9,0.6,1,0.7c0.2,0.3,0.8,0,0.9-0.6c0-0.1,0.1-0.1,0.2-0.2c0.1-0.2,0-0.3,0-0.5
		c-0.4-0.6-1.1-1.1-1.3-0.9c0.1,0.8,0.6,0.8,0.8,1.1c0.2,0.3,0.1,0.8-0.4,0.5C82.4,85.1,81.7,85,81.6,85.1z"/>
</g>
</svg>
