<?xml version="1.0" encoding="utf-8"?>
<!-- Generator: Adobe Illustrator 21.1.0, SVG Export Plug-In . SVG Version: 6.00 Build 0)  -->
<svg version="1.1" id="Layer_1" xmlns="http://www.w3.org/2000/svg" xmlns:xlink="http://www.w3.org/1999/xlink" x="0px" y="0px"
	 viewBox="0 0 200 200" style="enable-background:new 0 0 200 200;" xml:space="preserve">
<style type="text/css">
	.st0{fill:#BDA86E;}
	.st1{fill:#FFFFFF;}
	.st2{fill:#265EB4;}
	.st3{fill:#ED1A2B;}
</style>
<g>
	<path id="path12" class="st0" d="M200,100c0,55.2-44.8,100-100,100C44.8,200,0,155.2,0,100C0,44.8,44.8,0,100,0
		C155.2,0,200,44.8,200,100L200,100z"/>
	<path id="path14" class="st1" d="M161,100c0,33.7-27.3,61-61,61c-33.7,0-61-27.3-61-61c0-33.7,27.3-61,61-61
		C133.7,39,161,66.3,161,100 M100,195.6c52.7,0,95.6-42.9,95.6-95.6c0-52.7-42.9-95.6-95.6-95.6C47.3,4.4,4.4,47.3,4.4,100
		C4.4,152.7,47.3,195.6,100,195.6L100,195.6z"/>
	<path id="path16" class="st0" d="M34.5,116.7l-17.1,9.7l-0.9-4l9.7-5.1l4.4-2.2l0-0.1l-4.9-0.1l-10.9-0.5l-0.9-3.9l19.7,1.7
		L34.5,116.7L34.5,116.7z"/>
	<path id="path18" class="st0" d="M32.5,91.5l0,4.1l-4.8,1.4l0,5.5c1,0.2,3.9,1.1,4.8,1.4l0,3.9L13.6,102l0-4.8L32.5,91.5
		 M16.7,99.7l2.2,0.6l5.8,1.5l0-4.2l-5.8,1.5L16.7,99.7L16.7,99.7z"/>
	<path id="path20" class="st0" d="M29.9,81c-3.6-0.9-4.5,7.3-10.4,5.9c-3.2-0.8-4.5-4-3.6-7.6c0.4-1.9,1.2-3.3,1.9-4.4l2.9,1.3
		C20,77,19.2,78.3,18.8,80c-0.4,1.7,0.2,2.9,1.3,3.2c3.3,0.8,4.3-7.4,10.3-6c3.2,0.8,4.9,3.8,3.8,8.2c-0.4,1.8-1.4,3.8-2.2,4.8
		l-2.9-1.2c0.9-1.1,1.8-2.8,2.2-4.4C31.8,82.6,31.2,81.3,29.9,81z"/>
	<path id="path22" class="st0" d="M43.1,62.7l-1.8,3.6l-4.9-0.9l-2.5,4.9c0.8,0.6,3,2.7,3.7,3.4l-1.8,3.5L21.5,63.7l2.2-4.3
		L43.1,62.7 M25.3,63l1.7,1.5l4.5,3.9l1.9-3.8l-5.8-1.2L25.3,63L25.3,63z"/>
	<path id="path24" class="st0" d="M45.4,52.1c-2.9-2.4-7.3,4.5-11.9,0.7c-2.6-2.1-2.3-5.6,0.1-8.4c1.2-1.5,2.5-2.5,3.7-3.1l2,2.4
		c-1,0.5-2.3,1.4-3.3,2.7c-1.1,1.3-1.1,2.7-0.2,3.4c2.6,2.2,7.1-4.7,11.9-0.8c2.6,2.1,2.7,5.5-0.2,9c-1.2,1.4-2.9,2.8-4.1,3.3
		l-2.1-2.4c1.3-0.6,2.8-1.7,3.9-3C46.4,54.4,46.5,53,45.4,52.1L45.4,52.1z"/>
	<path id="path26" class="st0" d="M60.7,26.3l-6.1,3.8l2.6,4.1l5.7-3.5l1.5,2.7l-5.5,3.5l4.1,6.6l-3.2,2l-10-16l9.4-5.9L60.7,26.3z"
		/>
	<path id="path28" class="st0" d="M69,31.2l-3.6-10.7l3.6-1.2l3.7,10.9c0.9,2.7,2.7,3.9,4.8,3.2c2.2-0.8,2.9-2.6,2-5.5L75.8,17
		l3.6-1.2l3.4,10.2c1.8,5.3,0.4,8.7-4.4,10.3C74,37.7,70.7,36.2,69,31.2L69,31.2z"/>
	<path id="path30" class="st0" d="M85.6,17.7l-0.1-3.2l13.4-1.2l0.1,3.2L94.3,17l1.4,15.6l-3.8,0.3l-1.4-15.6L85.6,17.7z"/>
	<path id="path32" class="st0" d="M105,13.7c1.4,0,3.5,0.2,5.4,0.5c4.2,0.5,7,2,6.6,5.7c-0.2,1.8-1.5,3.2-3.6,3.7l0,0.1
		c1.9,0.8,3.4,2.7,3.1,5c-0.5,4.1-3.8,5-9.8,4.2c-1.7-0.2-3.1-0.5-4.1-0.7L105,13.7 M107.3,24.4l-0.7,5.5c0.5,0.1,1,0.2,1.7,0.3
		c2.3,0.3,4-0.2,4.3-2.2c0.2-1.9-1.1-3-3.1-3.2L107.3,24.4 M108.3,16.9l-0.6,4.7l1.8,0.2c2.2,0.3,3.5-0.5,3.7-2.1
		c0.2-1.6-0.8-2.5-2.6-2.7C109.5,16.9,108.9,16.9,108.3,16.9z"/>
	<path id="path34" class="st0" d="M132,39.9l-3.8-1.5l0.4-5l-5.1-2c-0.6,0.8-2.4,3.2-3,4l-3.7-1.4L129,18.5l4.5,1.7L132,39.9
		 M130,22.3l-1.3,1.9l-3.5,4.8l3.9,1.5l0.6-5.9L130,22.3L130,22.3L130,22.3z"/>
	<path id="path36" class="st0" d="M147.2,27.6l-8.8,13l6.4,4.3l-1.9,2.5l-9.3-6.3l10.5-15.6L147.2,27.6z"/>
	<path id="path38" class="st0" d="M160.6,38.4l-11.2,11l5.4,5.5l-2.4,2.1l-7.9-8L158,35.8L160.6,38.4z"/>
	<path id="path40" class="st0" d="M164.7,72c0.6,1.3,1.5,2.5,2.4,3.3l-2.6,1.7c-0.8-0.7-1.9-2.2-2.8-4c-2.6-5.5-0.2-10,4.6-12.3
		c5.3-2.5,10.5-1,13,4.2c0.9,1.8,1.3,3.6,1.3,4.6l-3,0.8c-0.1-1.2-0.4-2.5-1-3.9c-1.5-3.1-4.5-4.1-8.4-2.3
		C164.5,65.8,163.1,68.7,164.7,72L164.7,72z"/>
	<path id="path42" class="st0" d="M183.8,79.1l-15.3,3.6l1.7,7.5l-3.1,0.5l-2.5-10.9l18.3-4.3L183.8,79.1z"/>
	<path id="path44" class="st0" d="M175.1,92.7h11.3v3.8h-11.5c-2.9,0-4.6,1.3-4.6,3.5c0,2.4,1.5,3.6,4.6,3.6h11.5v3.8h-10.7
		c-5.5,0-8.4-2.4-8.4-7.4C167.3,95.3,169.8,92.7,175.1,92.7L175.1,92.7z"/>
	<path id="path46" class="st0" d="M185.2,115c-0.2,1.4-0.6,3.4-1.1,5.4c-1,4.1-2.8,6.7-6.4,5.8c-1.7-0.4-3-1.9-3.3-4l-0.1,0
		c-1,1.8-3,3.1-5.4,2.5c-4-1-4.5-4.4-3.1-10.2c0.4-1.7,0.8-3,1.2-4L185.2,115 M174.3,116.1l-5.3-1.3c-0.2,0.5-0.3,1-0.5,1.6
		c-0.6,2.3-0.3,4,1.7,4.5c1.8,0.5,3.1-0.8,3.6-2.7L174.3,116.1 M181.6,117.9l-4.6-1.2l-0.4,1.8c-0.6,2.2,0.1,3.5,1.6,3.9
		c1.6,0.4,2.6-0.6,3-2.3C181.4,119.2,181.5,118.5,181.6,117.9z"/>
	<path id="path48" class="st0" d="M46.8,145.2c1.1,0.9,2.6,2.2,4.1,3.6c3,2.9,4.4,5.8,1.8,8.5c-1.3,1.3-3.2,1.6-5.1,0.8l0,0
		c1.1,1.8,1.1,4.2-0.6,5.9c-2.9,3-6.1,1.7-10.4-2.5c-1.2-1.2-2.2-2.2-2.9-3L46.8,145.2 M42.2,155.1l-3.9,3.9
		c0.3,0.4,0.7,0.8,1.2,1.2c1.7,1.6,3.3,2.3,4.8,0.8c1.3-1.4,0.9-3-0.5-4.4L42.2,155.1 M47.5,149.7l-3.3,3.4l1.3,1.3
		c1.6,1.6,3,1.7,4.2,0.6c1.1-1.2,0.8-2.5-0.5-3.7C48.5,150.5,48,150.1,47.5,149.7L47.5,149.7z"/>
	<path id="path50" class="st0" d="M52.1,165.3l5.8-9.7l3.2,1.9l-5.9,9.8c-1.5,2.5-1.3,4.6,0.7,5.7c2,1.2,3.9,0.5,5.5-2l5.9-9.8
		l3.2,1.9l-5.5,9.2c-2.9,4.7-6.4,5.9-10.7,3.3C50.3,173.3,49.3,169.9,52.1,165.3L52.1,165.3z"/>
	<path id="path52" class="st0" d="M72.8,164.4c1.7,0.3,3.6,0.8,5.6,1.4c6.3,1.9,8.3,6.2,6.7,11.7c-1.9,6.4-6.4,8.3-13.3,6.2
		c-1.8-0.6-3.2-1.1-4.4-1.5L72.8,164.4 M75.5,168.2l-3.7,12.3c0.4,0.2,0.9,0.3,1.4,0.5c3.9,1.2,6.7,0,8-4.6c1.2-3.9-0.1-6.6-3.6-7.7
		C76.7,168.5,76,168.3,75.5,168.2L75.5,168.2z"/>
	<path id="path54" class="st0" d="M102.9,188.5l-4-0.2l-1.1-4.9l-5.5-0.3c-0.3,1-1.3,3.8-1.6,4.7l-3.9-0.2l6.8-18.5l4.8,0.3
		L102.9,188.5 M95.6,172.3l-0.7,2.2l-1.8,5.7l4.2,0.2l-1.2-5.8L95.6,172.3L95.6,172.3L95.6,172.3z"/>
	<path id="path56" class="st0" d="M111.1,180.4l1.2,7l-3.6,0.6l-3.1-18.4c1.4-0.4,3.1-0.8,5.3-1.1c3.9-0.7,7.6,0.1,8.3,4.5
		c0.7,4-1.8,6.6-5.9,7.2C113,180.1,111.4,180.4,111.1,180.4 M110.6,177.4c0.4,0,0.9-0.1,1.5-0.2c2.3-0.4,3.8-1.6,3.4-3.7
		c-0.3-2.1-1.7-2.6-3.9-2.3c-0.8,0.1-1.5,0.3-1.9,0.4L110.6,177.4z"/>
	<path id="path58" class="st0" d="M131.6,165.5l-6.8,2.7l1.6,4.2l6.3-2.5l0.9,2.9l-6.1,2.4l1.8,4.7l7.3-2.9l0.9,2.9l-10.6,4.1
		l-6.9-17.5l10.4-4.1L131.6,165.5z"/>
	<path id="path60" class="st0" d="M146.8,168.7c-2-3.1-8.3,2.1-11.5-3c-1.8-2.8-0.5-6,2.7-8c1.6-1,3.2-1.6,4.4-1.8l1.2,2.9
		c-1.1,0.2-2.6,0.6-4,1.5c-1.5,0.9-1.8,2.2-1.2,3.2c1.8,2.9,8.2-2.3,11.6,2.8c1.8,2.8,0.9,6.1-2.9,8.6c-1.6,1-3.6,1.8-4.9,1.9
		l-1.2-2.9c1.4-0.2,3.2-0.8,4.6-1.7C147.1,171.3,147.6,169.9,146.8,168.7L146.8,168.7z"/>
	<path id="path62" class="st0" d="M145.5,156.9l-2.1-2.4l9.7-9.3l2.1,2.4l-3.4,3.3l10.9,11.3l-2.7,2.6L149,153.5L145.5,156.9z"/>
	<path id="path64" class="st2" d="M154.3,84.2c1.5,5,2.2,10.3,2.2,15.8c0,31.2-25.3,56.5-56.5,56.5l0,0c-31.2,0-56.5-25.3-56.5-56.5
		c0-5.5,0.8-10.8,2.2-15.8L154.3,84.2z"/>
	<path id="path66" class="st3" d="M154.3,84.2c-6.8-23.5-28.6-40.7-54.3-40.7l0,0c-25.7,0-47.4,17.2-54.3,40.7H154.3z"/>
	<path id="path68" class="st0" d="M79.8,75.4l2-4.9h2.3l-3.4,8.1H79l-3.4-8.1h2.3L79.8,75.4z"/>
	<path id="path70" class="st0" d="M88.2,77.2l-0.6,1.4h-2.2l3.1-8.1h2.3l3,8.1h-2.2l-0.5-1.4H88.2 M89.7,73L89.7,73l-0.9,2.6h1.7
		L89.7,73L89.7,73z"/>
	<path id="path72" class="st0" d="M112.3,77.2l-0.6,1.4h-2.2l3.1-8.1h2.3l3,8.1h-2.2l-0.5-1.4H112.3 M113.8,73L113.8,73l-0.9,2.6
		h1.7L113.8,73z"/>
	<path id="path74" class="st0" d="M124.1,72.6c-0.4-0.3-0.9-0.5-1.4-0.5c-0.4,0-0.9,0.2-0.9,0.7c0,0.5,0.6,0.7,0.9,0.8l0.5,0.2
		c1.1,0.3,2,0.9,2,2.2c0,0.8-0.2,1.6-0.8,2.2c-0.6,0.5-1.5,0.8-2.3,0.8c-1,0-2-0.3-2.8-0.9l0.9-1.7c0.5,0.5,1.1,0.8,1.9,0.8
		c0.5,0,1-0.2,1-0.8c0-0.6-0.8-0.8-1.3-0.9c-1.3-0.4-2.2-0.7-2.2-2.3c0-1.6,1.2-2.7,2.8-2.7c0.8,0,1.8,0.3,2.5,0.7L124.1,72.6z"/>
	<path id="path76" class="st0" d="M115.4,127.3v-1.2h2.3v5.6h-1.5v-4.4H115.4z"/>
	<path id="path78" class="st0" d="M120.4,131.7l1.6-1.9l0,0c-0.3,0.1-0.5,0.2-0.8,0.2c-1.1,0-1.8-1-1.8-2c0-1.4,1.1-2.1,2.4-2.1
		c0.5,0,1.2,0.1,1.6,0.5c0.5,0.4,0.8,1,0.8,1.6c0,0.8-0.4,1.6-0.9,2.2l-1.2,1.6L120.4,131.7 M120.9,127.9c0,0.5,0.4,0.9,0.9,0.9
		c0.5,0,0.9-0.4,0.9-0.9c0-0.5-0.4-0.9-0.9-0.9C121.3,127,120.9,127.4,120.9,127.9z"/>
	<path id="path80" class="st0" d="M125.7,127.3v-1.2h2.3v5.6h-1.5v-4.4H125.7z"/>
	<path id="path82" class="st0" d="M130.2,127.3v-1.2h2.3v5.6H131v-4.4H130.2z"/>
	<path id="path84" class="st0" d="M97.6,51.9c-5.4,3-7.3,9.9-4.3,15.3l11.4,20.1c0.7,1.2,0.9,2.7,0.5,4.1c-0.4,1.4-1.3,2.5-2.5,3.2
		c-2.6,1.5-5.8,0.5-7.3-2l-0.3-0.5L90,95l0.3,0.5c3,5.4,9.9,7.3,15.3,4.3c2.6-1.5,4.5-3.9,5.3-6.8c0.8-2.9,0.4-5.9-1-8.5L98.4,64.3
		c-1.5-2.6-0.5-5.8,2-7.3c2.6-1.5,5.8-0.5,7.3,2l0.3,0.5l5.1-2.9l-0.3-0.5C109.8,50.8,103,48.9,97.6,51.9L97.6,51.9z"/>
	<path id="path86" class="st0" d="M86.6,112.3c-4.2,3.9-6.9,9.5-6.9,15.8c0,11.8,9.6,21.4,21.4,21.4c8.3,0,15.4-4.7,19-11.5l-5.1-3
		c-2.6,5.1-7.8,8.6-13.9,8.6c-8.6,0-15.5-7-15.5-15.5c0-4.1,1.6-7.9,4.3-10.7l0,0l9.1,14.3h6.8l33.7-61.3h-6.7l-30.5,55.5l-7.6-12
		l0.1,0c1.9-0.9,4.1-1.4,6.4-1.4c1.3,0,2.6,0.2,3.8,0.5l2.9-5.3c-2.1-0.7-4.3-1.1-6.7-1.1c-3.4,0-6.7,0.8-9.6,2.2l-0.1,0L66.9,70.4
		h-7L86.6,112.3L86.6,112.3L86.6,112.3z"/>
</g>
</svg>
