<?xml version="1.0" encoding="utf-8"?>
<!-- Generator: Adobe Illustrator 21.1.0, SVG Export Plug-In . SVG Version: 6.00 Build 0)  -->
<svg version="1.1" id="Layer_1" xmlns="http://www.w3.org/2000/svg" xmlns:xlink="http://www.w3.org/1999/xlink" x="0px" y="0px"
	 viewBox="0 0 200 200" style="enable-background:new 0 0 200 200;" xml:space="preserve">
<style type="text/css">
	.st0{fill:#E0E0E0;}
	.st1{fill:#281284;}
	.st2{fill:#EF111B;}
	.st3{fill:#FFFFFF;}
</style>
<g>
	<path class="st0" d="M40.2,0v139.8C40.2,172.2,67,200,100,200c33,0,59.8-27.8,59.8-60.2V0H40.2z"/>
	<rect x="71.9" y="7.9" class="st1" width="27.3" height="26.5"/>
	<rect x="129.5" y="7.9" class="st1" width="26.6" height="26.5"/>
	<rect x="100.7" y="7.9" class="st2" width="27.3" height="26.5"/>
	<rect x="43.9" y="7.9" class="st2" width="26.6" height="26.5"/>
	<path class="st1" d="M139.7,179.5c5.2-5.2,9.2-11.3,12-18c2.9-6.9,4.4-14.2,4.4-21.6V60.2h-26.6v127.5
		C133.2,185.3,136.6,182.6,139.7,179.5z"/>
	<rect x="100.7" y="60.2" class="st2" width="27.3" height="27.5"/>
	<rect x="71.9" y="60.2" class="st1" width="27.3" height="27.5"/>
	<rect x="71.9" y="89.2" class="st2" width="56.1" height="56.1"/>
	<path class="st2" d="M100.7,146.8v49.5c7.3-0.1,14.4-1.6,21.1-4.5c2.2-0.9,4.2-2,6.2-3.2v-41.8H100.7z"/>
	<path class="st2" d="M43.9,60.2v79.6c0,7.4,1.5,14.7,4.4,21.6c2.8,6.7,6.9,12.8,12,18c3.1,3.1,6.5,5.9,10.1,8.2V60.2H43.9z"/>
	<path class="st1" d="M71.9,146.8v41.8c2,1.2,4.1,2.3,6.2,3.2c6.7,2.9,13.8,4.4,21.1,4.5v-49.5L71.9,146.8L71.9,146.8z"/>
	<rect x="99.3" y="7.9" class="st3" width="1.5" height="26.5"/>
	<rect x="70.5" y="7.9" class="st3" width="1.5" height="26.5"/>
	<rect x="128.1" y="7.9" class="st3" width="1.5" height="26.5"/>
	<path class="st3" d="M128.1,87.7h-27.3V60.2h-1.5v27.5H71.9V60.2h-1.5v127.5c0.5,0.3,1,0.6,1.5,0.9v-41.8h27.3v49.5
		c0.2,0,0.5,0,0.7,0c0.2,0,0.5,0,0.7,0v-49.5H128v41.8c0.5-0.3,1-0.6,1.5-0.9V60.2H128L128.1,87.7L128.1,87.7z M128.1,145.3H71.9
		V89.2H128L128.1,145.3L128.1,145.3z"/>
	<path class="st2" d="M44.1,42.1h3.5l4.1,7.7l4.1-7.7h3.5l-5.7,10.4h-4L44.1,42.1z"/>
	<path class="st2" d="M60.8,42.1H64v10.4h-3.2C60.8,52.5,60.8,42.1,60.8,42.1z"/>
	<path class="st2" d="M66.2,42.1h9.6c3.2,0,4.3,1.1,4.3,3.6v3.2c0,2.6-1.1,3.6-4.3,3.6h-9.6V42.1z M69.3,49.9H75
		c1.4,0,1.9-0.4,1.9-1.9v-1.4c0-1.5-0.5-1.9-1.9-1.9h-5.6V49.9z"/>
	<path class="st2" d="M82.1,42.1h11.3v2.4h-8.2v1.7H93v2.2h-7.7V50h8.3v2.5H82.1V42.1z"/>
	<path class="st2" d="M95.6,45.8c0-3,1.7-3.8,4.6-3.8h5.1c2.9,0,4.6,0.7,4.6,3.8v3.1c0,3-1.7,3.8-4.6,3.8h-5.1
		c-2.9,0-4.6-0.7-4.6-3.8V45.8z M98.9,47.9c0,1.5,0.3,2.1,1.8,2.1h4.1c1.5,0,1.8-0.6,1.8-2.1v-1.1c0-1.3-0.3-2.1-2-2.1h-3.7
		c-1.7,0-2,0.8-2,2.1V47.9z"/>
	<path class="st1" d="M111.6,42.1H124v2.6h-4.5v7.8h-3.2v-7.8h-4.5L111.6,42.1L111.6,42.1z"/>
	<path class="st1" d="M125.4,45.8c0-3,1.7-3.8,4.6-3.8h5.1c2.9,0,4.6,0.7,4.6,3.8v3.1c0,3-1.7,3.8-4.6,3.8H130
		c-2.9,0-4.6-0.7-4.6-3.8V45.8z M128.7,47.9c0,1.5,0.3,2.1,1.8,2.1h4.1c1.5,0,1.8-0.6,1.8-2.1v-1.1c0-1.3-0.3-2.1-2-2.1h-3.7
		c-1.7,0-2,0.8-2,2.1L128.7,47.9L128.7,47.9z"/>
	<path class="st1" d="M141.8,42.1h4.9l6,7.6h0v-7.6h3.2v10.4H151l-6-7.6h0v7.6h-3.2V42.1z"/>
	<path class="st3" d="M81.4,70.6h8.5v2h-6v1.5h5.7V76h-5.7v2.8h-2.5V70.6z"/>
	<path class="st3" d="M109.1,73.5c0-2.4,1.3-2.9,3.6-2.9h2.9c3.6,0,4,0.8,4,3.1h-2.5v-0.2c0-0.6-0.4-0.8-1.2-0.8h-2.7
		c-1.3,0-1.6,0.6-1.6,1.6v0.9c0,1.2,0.2,1.6,1.4,1.6h2.7c1.1,0,1.5-0.1,1.5-1.1h2.5v0.8c0,1.4-0.5,2.5-3,2.5h-4
		c-2.2,0-3.6-0.6-3.6-2.9L109.1,73.5L109.1,73.5z"/>
	<path class="st3" d="M81.1,167.2l1.7,0v-7.4h-1.5c-0.1,0.4-0.3,0.8-0.7,1c-0.4,0.2-0.8,0.3-1.5,0.3H79v1.1h2.1L81.1,167.2
		L81.1,167.2z"/>
	<path class="st3" d="M88.7,159.6c-1.1,0-1.9,0.2-2.5,0.7c-0.6,0.5-0.9,1.1-0.9,1.9c0,0.8,0.3,1.4,0.8,1.8c0.5,0.4,1.3,0.7,2.2,0.7
		c0.4,0,0.7,0,1-0.1c0.3-0.1,0.6-0.2,0.8-0.4l0.1-0.1v0.2v0.1c0,0.6-0.1,1-0.4,1.3c-0.3,0.3-0.7,0.5-1.3,0.5c-0.4,0-0.7-0.1-0.9-0.2
		c-0.2-0.1-0.3-0.3-0.4-0.6h-1.8c0,0.6,0.3,1.1,0.8,1.5c0.5,0.4,1.2,0.6,2.1,0.6c1.2,0,2.1-0.3,2.7-1c0.6-0.7,0.9-1.7,0.9-3
		c0-1.3-0.3-2.2-0.9-2.9C90.7,159.9,89.9,159.6,88.7,159.6z M89.9,163.1c-0.3,0.2-0.7,0.3-1.1,0.3c-0.5,0-0.9-0.1-1.2-0.3
		c-0.3-0.2-0.4-0.5-0.4-0.9c0-0.4,0.2-0.7,0.5-0.9c0.3-0.2,0.7-0.3,1.2-0.3c0.5,0,0.8,0.1,1.1,0.3c0.3,0.2,0.4,0.5,0.4,0.9
		C90.3,162.5,90.1,162.8,89.9,163.1z"/>
	<path class="st3" d="M115.1,164.3h-1.2l0-4.5h-2l-3.8,4.2v1.6h4.1v1.6h1.7v-1.6h1.2V164.3L115.1,164.3z M112.2,164.3L112.2,164.3
		l-2.6,0.1l2.7-3.3L112.2,164.3z"/>
	<path class="st3" d="M119,167.2l1.7,0v-7.4h-1.5c-0.1,0.4-0.3,0.8-0.7,1c-0.4,0.2-0.8,0.3-1.5,0.3l-0.1,0v1.1h2.1L119,167.2
		L119,167.2z"/>
	<path class="st1" d="M120.5,109.4h-9.4v5.4c0,1.4-0.9,2.7-2.8,2.7c-1.9,0-2.8-1.3-2.8-2.7l0-12.5l-5.5-5.5l-5.5,5.5v12.5
		c0,1.4-0.9,2.7-2.8,2.7c-1.9,0-2.8-1.3-2.8-2.7v-5.4h-9.4v28.3h13.6v-7.1c0-4.2,2.3-8,6.9-8s6.9,3.8,6.9,8v7.1h13.6L120.5,109.4
		L120.5,109.4z"/>
</g>
</svg>
