<?xml version="1.0" encoding="utf-8"?>
<!-- Generator: Adobe Illustrator 21.1.0, SVG Export Plug-In . SVG Version: 6.00 Build 0)  -->
<svg version="1.1"
	 id="svg8" inkscape:version="0.92.0 r15299" sodipodi:docname="vikingur gota.svg" xmlns:cc="http://creativecommons.org/ns#" xmlns:dc="http://purl.org/dc/elements/1.1/" xmlns:inkscape="http://www.inkscape.org/namespaces/inkscape" xmlns:rdf="http://www.w3.org/1999/02/22-rdf-syntax-ns#" xmlns:sodipodi="http://sodipodi.sourceforge.net/DTD/sodipodi-0.dtd" xmlns:svg="http://www.w3.org/2000/svg"
	 xmlns="http://www.w3.org/2000/svg" xmlns:xlink="http://www.w3.org/1999/xlink" x="0px" y="0px" viewBox="0 0 317 317"
	 style="enable-background:new 0 0 317 317;" xml:space="preserve">
<style type="text/css">
	.st0{fill:#231F20;}
	.st1{fill:#BFD2E6;}
	.st2{fill:#FFFFFF;}
</style>
<g>
	<path id="path3875" inkscape:connector-curvature="0" class="st0" d="M158.5,1C245.5,1,316,71.5,316,158.5S245.5,316,158.5,316
		S1,245.5,1,158.5S71.5,1,158.5,1z M158.5,45.7c62.3,0,112.8,50.5,112.8,112.8s-50.5,112.8-112.8,112.8S45.7,220.8,45.7,158.5
		S96.2,45.7,158.5,45.7"/>
	<path id="path3877" inkscape:connector-curvature="0" class="st1" d="M158.5,51.9c58.9,0,106.6,47.7,106.6,106.6
		s-47.7,106.6-106.6,106.6S51.9,217.4,51.9,158.5S99.6,51.9,158.5,51.9"/>
	<path id="path3879" inkscape:connector-curvature="0" class="st0" d="M121.5,64.1c-14.7,11-23,25.3-24.3,37
		c-3,26.6,22.6,47,49.8,44.1c6.5-0.7,18.1-3.7,20.2-17.6c1.9-12.7-4.8-22.7-16.9-23.9C125.4,101.1,113.6,90.6,121.5,64.1"/>
	<path id="path3881" inkscape:connector-curvature="0" class="st0" d="M100.2,135.9l7.5,0.5c-1.7-1.5-3.3-3.2-4.8-5
		C102,133,101.1,134.5,100.2,135.9L100.2,135.9z M165.4,140.6l52.7,3.8l-0.5-17.5l-4.8-1.1c-10.9-31.8-28.5-45.9-48.6-53.6
		c-12.8,3.6-23.9,11.7-33.6,21.9c4.7,3.2,11.5,5,20.2,5.9c14.8,1.5,22.2,14,20.2,28.2C170.2,133.3,168.2,137.4,165.4,140.6"/>
	<path id="path3883" inkscape:connector-curvature="0" class="st0" d="M188.8,260.7c-5.7,1.7-12.7,3.1-18.8,3.8l-25.3-51.2
		l16.8,51.7c-1.2,0,0.1,0.1-3,0.1s-9.9-0.4-14.7-1c-6.8-17.2-11-33.3-11.2-48.1c-0.4-27.6,10.3-51,30.5-70.8
		C149.7,189,157.9,230.1,188.8,260.7"/>
	<path id="path3885" inkscape:connector-curvature="0" class="st0" d="M136.6,262.9c-7.8-1.6-15.3-4.1-22.4-7.4l4-60.2l-11.9,56.2
		c-5.8-3.2-11.2-7-16.3-11.2l20.3-49.2L83,233.8c-3.9-3.9-7.5-8.1-10.8-12.6c22.1-20.4,39.5-44.7,48.2-76.5c8.4,3.7,17.8,5.2,27,4.3
		c1.7-0.2,3.3-0.5,4.9-0.9c-16.9,20.4-25.1,38.6-26.7,58.8C124.2,224.6,127.8,244.3,136.6,262.9"/>
	<path id="path3887" inkscape:connector-curvature="0" class="st0" d="M68.4,215.5c-2.9-4.7-5.4-9.1-7.4-14.2L90.8,173l-33,20.4
		c-1.6-4.8-3-9.7-3.9-14.7c17.3-7.7,32.8-20,48.9-38.9l10.4,0.7c0.6,0.4,1.4,0.9,1.9,1.2C104.9,172.9,91.8,193.9,68.4,215.5"/>
	<path id="path3889" inkscape:connector-curvature="0" class="st0" d="M205,250.8l2.3-25.2l17.3,8l-14-16.8l11.2,2.6l-13.7-19
		l-4.9,0.7l2.1,12.5l-9.7-6.8C190.9,218.8,194.2,233.8,205,250.8"/>
	<path id="path3891" inkscape:connector-curvature="0" class="st0" d="M197.1,246.7c-9.3-12.4-11.8-23.3-10.7-32.5
		c0.8-6.6,3.6-12,7.8-16c5-4.9,10.3-7.3,19.9-7c0.6-1,1-2.1,0.9-3.7l-0.1-3.2l4.6,0.1l2.5-2.9c-2-12.2-5.2-22.3-9.1-29.3l-2.4-0.8
		c2,3.8,6.3,23.8,6.4,29h-10.8l3.6-9.2l-10.3,8.9c-16.3,1.4-28.6,11.8-29.5,26.9c-0.6,9.7,2.8,20.4,7.3,27.7l0.9-8.8
		C183.4,235.8,190.2,243.1,197.1,246.7"/>
	<path id="path3893" inkscape:connector-curvature="0" class="st2" d="M119.9,42.1l-1.5-3.7l-8.9,3.6l0.4-0.8c0.4-0.7,0.7-1.4,1-2.1
		c0.5-1,0.9-2.1,1.3-3.2c0.6-1.6,1-3.2,1.1-4.9c0.1-1.5-0.2-2.9-0.7-4.2c-0.7-1.8-1.6-3.1-3.5-3.8c-1.9-0.8-4.1-0.6-6,0.2
		c-3,1.2-4.9,4.2-5.4,7.3l3.7,0.5c0.1-0.4,0.3-1.2,0.5-1.5c0.4-0.9,0.9-1.8,1.8-2.2c0.9-0.5,2-0.5,3-0.1s1.6,1.3,1.9,2.2
		c0.4,0.9,0.5,2,0.4,3c-0.1,1.3-0.5,2.7-0.9,4c-0.5,1.3-1,2.6-1.6,3.9c-0.6,1.5-1.3,2.9-2.1,4.3l1.3,3.2L119.9,42.1"/>
	<path id="path3895" inkscape:connector-curvature="0" class="st2" d="M149.5,24.3c-0.8-5.1-4-11.7-10.2-10.6s-7.1,8.3-6.2,13.5
		c0.9,5.2,3.9,11.6,10.2,10.6C149.7,36.8,150.4,29.5,149.5,24.3z M145,25.1c0.4,2.3,1,8.4-2.3,9s-4.7-5.3-5.1-7.6
		c-0.4-2.3-0.8-8.4,2.3-9C143.1,16.9,144.6,22.9,145,25.1"/>
	<path id="path3897" inkscape:connector-curvature="0" class="st2" d="M167.8,24.5c0.8-5.1,4-11.7,10.2-10.6s7.1,8.3,6.2,13.5
		C183.3,32.6,180.3,39,174,38C167.6,36.9,166.9,29.6,167.8,24.5z M172.3,25.2c-0.4,2.3-1,8.4,2.3,9c3.3,0.6,4.7-5.3,5.1-7.6
		c0.4-2.3,0.8-8.4-2.3-9C174.2,17,172.6,23,172.3,25.2"/>
	<path id="path3899" inkscape:connector-curvature="0" class="st2" d="M204.8,45.7c4,1.6,8.3,1.1,10-3.3c1-2.5,0.1-5.6-2.2-7.9
		c2.6,0.2,4.8-0.4,5.8-3c1.5-4-1.5-7.4-4.9-8.7c-3.5-1.4-8-0.4-9.5,3.1c-0.8,2-0.5,5.4,1.6,7.1c-2.6-0.1-4.9,0.6-6.1,3.4
		C197.7,40.5,201.3,44.3,204.8,45.7L204.8,45.7z M214.1,30.1c-0.6,1.5-1.3,2-3.3,2.3c-1.3-1.2-3.5-3-2.7-5c0.6-1.6,2.7-1.8,4.1-1.3
		C213.9,26.8,214.8,28.4,214.1,30.1z M210.4,41c-0.7,1.8-2.7,2.4-4.4,1.8c-2.2-0.9-3.1-3-2.3-5.2c0.6-1.5,2.4-2.2,3.6-2.5
		c0.6,0.6,1.3,1.1,1.8,1.8C210.3,38.2,211.1,39.3,210.4,41"/>
	<path id="path3901" inkscape:connector-curvature="0" class="st0" d="M190.6,160.2l5-4.4l-15.3-1.3c-2.5-0.3-2.1-3.4,0.1-3.1
		l22.7,1.9l-12.3,10.9l-4.8-3.8c-2.1-1.5-0.5-4.3,1.9-2.5L190.6,160.2"/>
	<path id="path3903" inkscape:connector-curvature="0" class="st2" d="M40.8,234.3l1.3-0.1c0,0,0.5-0.1,1.3-0.2
		c0.8-0.1,1.8-0.3,2.9-0.5c1.1-0.2,2-0.4,2.8-0.6c0.1,0,0.5-0.1,1.4-0.3s1.6-0.3,2-0.4c0.5-0.1,1-0.2,1.6-0.4s1.4-0.5,2.4-0.9
		l0.7-0.3l0.4,0.7c0.1,0.2,0.2,0.4,0.4,0.6c0.1,0.3,0.3,0.5,0.4,0.7c0.1,0.2,0.2,0.5,0.4,0.7c0.1,0.2,0.3,0.4,0.4,0.7
		c0.2,0.2,0.3,0.5,0.5,0.6c0.1,0.2,0.2,0.3,0.3,0.4c0.1,0.1,0.1,0.2,0.2,0.2l0.7,0.9h-1.2c-0.4,0-1.1,0-1.8,0
		c-0.8,0.1-1.6,0.1-2.3,0.2c-0.8,0.1-1.8,0.2-3,0.4s-2.4,0.3-3.5,0.5c-2.3,0.3-5.7,1-10.2,2c-0.1,0-0.3,0.1-0.4,0.1
		c-0.2,0-0.3,0-0.4,0.1c-0.1,0-0.2,0.1-0.3,0.1c-0.3,0.2-0.5,0.6-0.6,1.1l-0.3,1.3l-0.7-1.3c0-0.1-0.2-0.5-0.6-1.1
		c-0.3-0.7-0.7-1.2-0.9-1.6c-0.2-0.3-0.4-0.7-0.7-1c-0.2-0.3-0.4-0.6-0.6-0.8l-0.7-0.9l1.5-1.3c0.1-0.1,0.6-0.7,1.6-1.7
		c0.9-1,2-2.3,3.3-3.8s2.2-2.6,2.8-3.3c1-1.2,1.8-2.1,2.2-2.7c0.4-0.5,0.9-1.1,1.3-1.7c0.4-0.6,0.8-1.2,1.3-2c0.4-0.8,0.8-1.5,1-2.3
		l0.2-0.8l0.7,1.1c0.3,0.5,0.5,0.9,0.7,1.2c0.2,0.4,0.4,0.7,0.5,0.9c0.5,0.9,1,1.5,1.4,2l0.4,0.6l-0.6,0.7c-2.9,3.3-4.6,5.3-5.2,5.9
		c-0.2,0.2-1,1.2-2.3,2.7c-1.3,1.6-2,2.4-2.1,2.5L40.8,234.3"/>
	<path id="path3905" inkscape:connector-curvature="0" class="st2" d="M73.8,251.9c-0.9,0.7-1.7,1.2-2.2,1.6
		c-0.8,0.6-1.5,1.3-2.4,2.2l-4.3,4.3c0,0-0.3,0.3-0.9,1s-1.2,1.4-1.8,2.1c-0.3,0.4-0.8,0.9-1.2,1.5c-0.5,0.6-0.9,1.2-1.2,1.5
		l-0.5,0.9l-0.6-0.6c-0.2-0.2-0.4-0.4-0.7-0.7c-0.3-0.3-0.5-0.5-0.8-0.8s-0.5-0.5-0.7-0.7s-0.4-0.4-0.5-0.4
		c-0.1-0.1-0.2-0.2-0.4-0.3c-0.1-0.1-0.3-0.3-0.6-0.5l-0.9-0.7l0.8-0.6c0.5-0.4,1.5-1.2,3-2.5c0.5-0.5,1-0.9,1.5-1.3s1-0.8,1.4-1.3
		s0.9-0.9,1.5-1.5l1.3-1.2c1-0.9,1.9-2.1,2.9-3.3c0.7-0.8,1.2-1.5,1.5-1.8c0.3-0.4,0.5-0.9,0.9-1.4l0.3-0.6l0.5,0.6
		c0.5,0.6,1.1,1.3,1.8,1.9c0.8,0.8,1.4,1.3,2,1.7l0.7,0.5L73.8,251.9"/>
	<path id="path3907" inkscape:connector-curvature="0" class="st2" d="M88.4,273.3c0.4-0.1,0.9-0.2,1.5-0.4c0.6-0.2,1.2-0.3,1.7-0.5
		c3.3-0.9,5.7-1.5,7.1-2c0.6-0.2,1.8-0.6,3.7-1.1l0.3,0.3c0.2,0.2,0.4,0.3,0.6,0.4s0.3,0.2,0.5,0.4c0.2,0.1,0.4,0.3,0.6,0.4
		c0.3,0.2,0.7,0.4,1.2,0.6s0.9,0.4,1.2,0.6l0.7,0.3l-0.9,0.2c-0.1,0-1.1,0.3-3,0.7c-2,0.4-3.4,0.7-4.2,0.9c-0.6,0.2-1.2,0.3-1.9,0.5
		c-0.7,0.2-1.3,0.3-1.8,0.5c-0.6,0.1-1.1,0.3-1.5,0.4l-0.7,0.2c-0.2,0-0.4,0-0.5,0c-0.2,0-0.3,0.1-0.4,0.1c-0.1,0.1-0.2,0.1-0.3,0.2
		c0,0.1-0.1,0.2-0.1,0.3c0,0.1,0,0.2,0.1,0.3c0,0.1,0.1,0.2,0.1,0.3c0,0.2,0.1,0.9,0.4,2.2c0.3,1.3,0.5,2.5,0.8,3.8
		c0.4,1.9,0.8,3.7,1.2,5.3c0.4,1.6,0.7,2.7,0.8,3.2l0.5,1.2l-1.2-0.6c-0.2-0.1-0.5-0.3-1-0.7c-0.5-0.3-1-0.6-1.4-0.9
		c-0.2-0.1-0.4-0.2-0.4-0.2c-0.1,0-0.2-0.1-0.3-0.2c-0.1-0.1-0.3-0.2-0.6-0.3L90,289l-0.2-1.1c-0.2-0.7-0.3-1.4-0.4-2
		s-0.2-1.3-0.3-2c-0.1-0.7-0.3-1.4-0.4-2s-0.3-1.2-0.4-1.8c-0.1-0.6-0.2-1.1-0.2-1.5c-0.1-0.4-0.1-0.9-0.2-1.3
		c-0.1-0.5-0.1-0.7-0.1-0.8l-0.3-1l-1.1,2c-0.6,1-1.1,2.1-1.7,3.4c-0.7,1.6-1.2,2.7-1.4,3.4l-0.1,0.7l-0.7-0.5
		c-0.3-0.2-0.5-0.3-0.8-0.5c-0.2-0.2-0.5-0.3-0.7-0.5c-0.2-0.1-0.4-0.3-0.6-0.4c-0.1-0.1-0.3-0.1-0.4-0.2c-0.2-0.1-0.4-0.2-0.6-0.3
		c-0.2-0.1-0.4-0.2-0.4-0.2l-1.1-0.5l0.6-1c0.2-0.3,0.4-0.6,0.6-1c0.2-0.3,0.4-0.7,0.6-1s0.4-0.6,0.7-1.1c0.4-0.6,0.9-1.5,1.7-2.8
		c0.8-1.3,1.4-2.3,1.8-3.1l1.4-2.5c0.7-1.3,1.4-2.6,2-3.9c0.2-0.4,0.5-1.1,0.9-2.1s0.6-1.5,0.7-1.6l0.2-0.6l0.6,0.4
		c0.9,0.6,1.6,1.1,2.1,1.4c0.2,0.1,0.5,0.3,0.8,0.4s0.6,0.3,1,0.5l1.1,0.6l-0.4,0.3c-0.3,0.3-0.6,0.6-0.8,0.9
		c-0.2,0.3-0.5,0.6-0.8,1.1c-0.3,0.4-0.7,1-1.2,1.6c-0.4,0.7-0.8,1.1-0.9,1.4c-0.2,0.3-0.4,0.6-0.7,1c-0.3,0.4-0.4,0.7-0.5,0.8
		L88.4,273.3"/>
	<path id="path3909" inkscape:connector-curvature="0" class="st2" d="M131.3,279.9c-0.6,1-1,1.9-1.2,2.4c-0.4,0.9-0.8,1.9-1.1,3
		l-2.3,7.6c0,0-0.1,0.4-0.3,1.3c-0.2,0.9-0.4,1.8-0.6,2.7c-0.1,0.5-0.3,1.2-0.4,1.9c-0.1,0.8-0.3,1.4-0.3,1.9l-0.1,1l-0.8-0.3
		c-0.3-0.1-0.6-0.2-0.9-0.3c-0.4-0.1-0.7-0.3-1.1-0.4s-0.7-0.2-0.9-0.3c-0.3-0.1-0.5-0.1-0.6-0.2c-0.1,0-0.3-0.1-0.5-0.1
		s-0.4-0.1-0.7-0.2l-1.1-0.2l0.4-0.9c0.3-0.6,0.8-1.8,1.6-3.6c0.2-0.6,0.5-1.3,0.7-1.8c0.2-0.6,0.5-1.2,0.7-1.8
		c0.2-0.6,0.4-1.3,0.7-2l1.1-3.5c0.4-1.3,0.8-2.7,1.1-4.3c0.2-1.1,0.4-1.8,0.5-2.3s0.1-1,0.1-1.6v-0.7l0.7,0.3
		c0.8,0.3,1.6,0.6,2.4,0.9c1,0.3,1.9,0.5,2.6,0.6l0.8,0.1L131.3,279.9"/>
	<path id="path3911" inkscape:connector-curvature="0" class="st2" d="M169.3,299l-0.3-9.4c0-0.8-0.1-1.5-0.2-2.2
		c-0.1-0.7-0.2-1.4-0.3-2.2c-0.1-0.5-0.2-0.9-0.3-1.2c-0.1-0.4-0.2-0.7-0.2-1.1l-0.2-0.9l1.1,0.1c0.3,0,0.5,0,0.7,0.1
		c0.2,0,0.4,0,0.7,0.1c0.3,0,0.7,0,1.1,0c0.5,0,1.5-0.1,3.1-0.3l1-0.1l-0.5,0.8c-0.2,0.1-0.5,0.5-0.8,1c-0.4,0.5-0.6,1-0.7,1.4
		c-0.3,1.4-0.4,3.5-0.3,6.1l0.3,7.9c0.1,1.7,0.3,3,0.8,4c0.2,0.5,0.4,0.8,0.5,0.9s0.3,0.3,0.5,0.6l0.7,0.6h-1.4c-0.4,0-0.9,0-1.5,0
		s-1.1,0-1.6,0c-0.9,0-1.4,0.1-1.7,0.1l-1.5,0.2l-1-1.3c-0.9-1.1-1.6-2-2.2-2.6c-0.6-0.6-1.2-1.4-1.9-2.3s-1.6-1.8-2.6-3
		c-0.8-0.9-1.8-2.1-2.9-3.4c-1.1-1.4-1.7-2.1-1.7-2.1l-1-1.1l0.1,1.5l0.4,10.6c0,0.5,0.1,1.2,0.2,1.9c0.1,0.3,0.2,0.7,0.3,1.2
		l0.2,0.9h-1c-0.4,0-0.8,0-1.4,0c-0.6,0-1.1,0-1.5,0c-0.3,0-0.6,0-1.1,0.1c-0.4,0.1-0.8,0.1-1,0.1h-1.4l0.4-0.6
		c0.1-0.2,0.4-0.5,0.8-1c0.4-0.5,0.6-0.9,0.7-1.4c0.2-1.2,0.3-3.2,0.2-5.8v-0.9l-0.2-7.6c0-1-0.1-1.7-0.2-2.3
		c-0.1-0.6-0.4-1.2-0.8-1.8c-0.1-0.2-0.2-0.4-0.4-0.6s-0.4-0.5-0.6-0.8l-0.4-0.5h0.7c-0.1,0,0.3,0,1.1,0.1s1.5,0.1,2,0.1
		c0.3,0,0.7,0,1.1-0.1c0.4-0.1,0.8-0.1,1.3-0.1l1.2-0.1l0.8,1.3c0,0,0.3,0.4,0.9,1c0.6,0.7,1.1,1.3,1.5,1.8s1.1,1.3,1.9,2.2
		c0.9,1,1.5,1.8,2,2.3c0.5,0.7,1.1,1.3,1.5,1.9c0.5,0.6,1.1,1.3,1.7,2.1c0.7,0.8,1.2,1.4,1.5,1.8s0.5,0.6,0.6,0.6L169.3,299"/>
	<path id="path3913" inkscape:connector-curvature="0" class="st2" d="M214.1,271c0.4,0.1,0.8,0.3,1.3,0.5c0.5,0.3,1,0.5,1.3,0.8
		c0.4,0.3,0.6,0.5,0.7,0.6l0.4,0.5l-0.7,0.3c-1.1,0.5-1.9,0.9-2.5,1.3c-0.9,0.5-1.5,0.8-1.9,1.2l-0.5,0.4l-0.8-0.7
		c-0.8-0.8-1.9-1.1-3.2-0.8c-0.5,0.1-1.2,0.2-2,0.4c-0.8,0.2-1.2,0.3-1.3,0.4l-0.7,0.3c-0.3,0.1-0.7,0.4-1.1,0.8
		c-0.4,0.4-0.9,0.8-1.3,1.3c-0.4,0.5-0.8,1-1.1,1.6c-0.3,0.5-0.6,1.1-0.8,1.6c-0.4,1.2-0.6,2.4-0.4,3.7c0.2,1.3,0.4,2.3,0.7,3.1
		l0.4,0.9c0.1,0.3,0.4,0.8,0.8,1.3c0.4,0.5,0.9,1,1.4,1.5c0.6,0.5,1.1,0.9,1.7,1.2c0.9,0.5,2.1,0.7,3.5,0.8c1.4,0.1,2.4,0,2.9-0.2
		l0.6-0.2c0.2-0.1,0.5-0.3,1-0.6c0.5-0.3,1-0.7,1.5-1.2s0.9-0.9,1.2-1.4c0.8-1.3,0.8-2.9,0.1-4.7l-0.7-1.7l-1.1-1.8l1.2-0.4
		c0.4-0.1,1-0.3,2-0.7c0.4-0.2,0.8-0.3,1.1-0.5c0.3-0.1,0.6-0.3,0.8-0.3l0.6-0.3l0.2,0.7c0.1,0.2,0.1,0.5,0.2,0.7
		c0,0.2,0.1,0.5,0.1,0.9s0.1,0.7,0.2,1c0.3,1.3,0.6,2.1,0.7,2.4l0.5,1.2c0.2,0.5,0.6,1.1,1.3,1.8c0.3,0.3,0.6,0.6,1.1,1
		s0.7,0.5,0.8,0.5l0.6,0.3l-0.9,0.3c-0.3,0.1-0.7,0.2-1,0.3c-0.3,0.1-0.7,0.2-1.2,0.4c-1,0.3-1.7,0.5-2,0.7l-2.6,1
		c-0.2,0.1-0.4,0.2-0.6,0.3c-0.1,0.1-0.3,0.2-0.5,0.3c-0.2,0.1-0.4,0.3-0.6,0.4c-0.2,0.1-0.4,0.2-0.6,0.4c-0.3,0.1-0.5,0.3-0.6,0.4
		c-0.2,0.1-0.3,0.2-0.3,0.2l-1.1,0.4c-0.1,0-0.2,0.1-0.4,0.1c-0.1,0-0.2,0.1-0.3,0.1s-0.2,0-0.3,0.1c-0.1,0-0.2,0.1-0.3,0.1
		c-0.4,0.1-0.8,0.4-1.3,0.7c-0.5,0.3-0.8,0.5-0.8,0.5L209,297c-1.3,0.4-2.4,0.7-3.4,0.8c-0.9,0.1-1.8,0.1-2.6-0.1
		c-0.8-0.1-1.5-0.4-2.1-0.7c-0.6-0.3-1.3-0.7-2-1.3c-0.8-0.6-1.5-1.4-2.2-2.4c-0.6-1-1-1.7-1.2-2.2l-0.5-1.2
		c-0.3-0.6-0.5-1.4-0.6-2.4s-0.1-2,0-3.1s0.4-2.2,0.8-3.1c0.4-1,1-2,1.9-2.8c0.8-0.9,1.7-1.6,2.6-2.2c0.9-0.6,1.9-1.1,2.8-1.5
		l0.8-0.3c0.1,0,0.2-0.1,0.3-0.2s0.2-0.1,0.3-0.2s0.2-0.2,0.2-0.2c0.1-0.1,0.2-0.1,0.3-0.2c0.9-0.6,1.6-1,2-1.1l2.7-1.1
		c0.5-0.2,1.3-0.4,2.3-0.5C212.3,270.7,213.3,270.8,214.1,271"/>
	<path id="path3915" inkscape:connector-curvature="0" class="st2" d="M235.9,255.9c0,0,0.2,0.4,0.6,1.2c0.5,0.8,0.8,1.5,1.2,1.9
		c0.3,0.4,0.8,0.9,1.3,1.6c0.6,0.7,1,1.3,1.4,1.7c0.4,0.5,0.6,0.7,0.6,0.7l3.5,3.8c0.3,0.3,0.8,0.8,1.5,1.4s1.3,1,2,1.2
		c1.3,0.5,2.4,0.2,3.3-0.6l1.1-1c1.3-1.2,1.7-3.1,1.3-5.9c-0.1-0.7-0.4-1.5-0.8-2.4c-0.4-0.8-0.9-1.6-1.5-2.4
		c-0.6-0.7-1.1-1.4-1.7-2c-0.2-0.3-0.4-0.4-0.4-0.5c-0.1-0.1-0.1-0.1-0.2-0.2l-0.8-0.8c-0.7-0.8-1.3-1.4-1.7-1.8
		c-0.4-0.4-0.9-0.9-1.5-1.4c-0.2-0.2-0.5-0.4-0.8-0.6c-0.3-0.2-0.5-0.4-0.7-0.5l-0.6-0.6l0.8-0.6c0.8-0.7,1.3-1.1,1.6-1.3
		c0.2-0.2,0.5-0.5,0.9-0.8c0.3-0.3,0.6-0.6,0.9-0.8l0.7-0.6l0.3,0.4c0.5,0.7,0.9,1.4,1.3,1.9c0.3,0.5,0.7,1,1,1.4
		c1.3,1.8,2.5,3.2,3.6,4.4l4.6,5.1c1,1.1,1.8,1.9,2.4,2.4c0.6,0.4,1.3,0.8,2.1,1l0.8,0.2l-1.1,0.9c-0.1,0.1-0.4,0.3-0.8,0.6
		c-0.4,0.3-0.7,0.6-1,0.8c-0.3,0.3-0.6,0.6-1,1.1c-0.4,0.4-0.6,0.6-0.5,0.6L259,266l-1-1.3c-0.3-0.3-0.4-0.4-0.6-0.3
		c-0.1,0-0.1,0.2-0.2,0.4c-0.1,0.2-0.2,0.3-0.2,0.4c0,0-0.1,0.3-0.3,0.8c-0.1,0.1-0.2,0.2-0.3,0.4c-0.1,0.2-0.2,0.3-0.4,0.5
		l-0.7,0.7c0,0-0.2,0.3-0.6,1.1c-0.4,0.7-0.7,1.3-1,1.6c0,0-0.2,0.3-0.5,0.7c-0.3,0.4-0.5,0.8-0.6,0.9c-0.1,0.2-0.3,0.4-0.6,0.6
		l-1.6,1.5c-0.4,0.4-0.9,0.7-1.6,0.9c-0.7,0.3-1.3,0.4-1.9,0.4c-0.5-0.1-1-0.2-1.6-0.5c-0.5-0.3-0.9-0.5-1.1-0.7l-10.5-11.7
		c-0.4-0.4-0.9-0.8-1.6-1.1c-0.2-0.1-0.4-0.2-0.6-0.3c-0.3-0.1-0.5-0.2-0.6-0.2l-0.8-0.4l0.9-0.6c0.9-0.7,1.6-1.2,2.2-1.7
		c0.1-0.1,0.5-0.5,1.1-1.1s0.9-0.9,0.8-0.8l0.8-0.8L235.9,255.9"/>
	<path id="path3917" inkscape:connector-curvature="0" class="st2" d="M273.5,233.8l1.2,0.7c0.3,0.1,0.8,0.4,1.8,0.9
		c0.9,0.5,1.8,0.8,2.6,1.2c0.7,0.3,1.2,0.5,1.6,0.6s0.9,0.3,1.4,0.4l0.6,0.1l-0.5,0.8c0,0-0.2,0.3-0.6,0.9c-0.4,0.6-0.7,1.1-0.9,1.5
		c-0.1,0.1-0.2,0.3-0.2,0.5c-0.1,0.2-0.1,0.4-0.2,0.5s-0.1,0.3-0.2,0.4c-0.1,0.1-0.1,0.2-0.1,0.2l-0.5,1.2l-0.5-0.4
		c-1.4-1.2-3.3-2.4-5.5-3.7c-0.7-0.4-1.2-0.7-1.6-0.9s-0.8-0.4-1.1-0.6c-0.4-0.2-0.9-0.5-1.6-0.9l-2.4-1.3c-0.1-0.1-0.3-0.2-0.4-0.3
		c-0.2-0.1-0.5-0.3-1-0.5c-1.5-0.9-2.8-1.4-3.7-1.6c-0.6-0.1-1.4-0.2-2.3-0.2h-0.8l0.5-0.7c0.3-0.5,0.7-1.1,1-1.7
		c0.3-0.6,0.7-1.1,0.9-1.6c0.3-0.5,0.6-1,0.9-1.6l0.3-0.6c0.3-0.6,0.7-1.4,1.1-2.5c0.4-1,0.9-2,1.3-2.8l0.8-1.5
		c0.5-0.8,0.9-1.5,1.4-1.9s1.1-0.7,1.9-0.9c1.2-0.3,2.3-0.1,3.3,0.4l0.9,0.5c0.6,0.4,1.2,0.8,1.6,1.2c0.4,0.5,0.8,1,1.1,1.7
		c0.2,0.4,0.3,0.9,0.4,1.3c0.1,0.5,0.2,0.9,0.2,1.3l-0.1,1c0,0.5,0.1,0.8,0.3,0.9c0.1,0.1,0.2,0.1,0.4,0c0.1,0,0.3-0.1,0.4-0.1
		c0.7-0.3,1.2-0.5,1.5-0.5c0.4-0.1,0.9-0.1,1.3-0.2c0.5,0,0.9-0.1,1.2-0.1c0.3,0,0.7,0,1.1,0s0.7,0,0.8,0h1.2c0.1,0,0.4-0.1,0.8-0.1
		c0.5-0.1,1-0.2,1.5-0.3s1-0.3,1.3-0.5c0.3-0.1,0.6-0.4,0.9-0.6c0.4-0.3,0.6-0.5,0.7-0.5l0.5-0.4l0.1,0.3c0,0.1,0,0.3-0.2,0.7
		c-0.1,0.4-0.2,0.9-0.4,1.3c-0.2,0.6-0.6,1.3-1.1,2.2l-0.5,0.9c-0.7,1.2-1.6,1.9-2.7,2.1c-0.4,0.1-0.8,0.1-1.2,0.2
		c-0.4,0-0.8,0-1.4,0s-1.1,0-1.5,0s-0.8,0-1,0l-0.9,0.1c-1.3,0-2.2,0.1-2.8,0.4c-1.1,0.5-1.9,1-2.2,1.6L273.5,233.8z M271.9,233
		l0.4-0.8c0.2-0.3,0.5-1,0.8-1.9s0.5-1.7,0.4-2.5s-0.4-1.6-0.8-2.4c-0.4-0.7-0.9-1.3-1.4-1.5l-0.8-0.4c-0.8-0.4-1.5-0.6-2.2-0.5
		c-0.4,0.1-0.8,0.2-1.1,0.5c-0.4,0.3-0.7,0.6-1,0.9c-0.3,0.3-0.4,0.5-0.5,0.5l-0.3,0.6c-0.2,0.3-0.3,0.7-0.3,1.1
		c0,0.5,0.1,1,0.4,1.5c0.4,0.7,0.7,1.2,1.1,1.6c0.4,0.4,0.6,0.6,0.8,0.7l3.5,2L271.9,233"/>
	<path id="path3919" inkscape:connector-curvature="0" class="st2" d="M71.1,243.7l0.1,2.4c2.9,0.6,6.3,2.2,8.6,3.8l-0.2-4.3
		C76.9,244,73.4,243.6,71.1,243.7"/>
</g>
</svg>
