<?xml version="1.0" encoding="utf-8"?>
<!-- Generator: Adobe Illustrator 21.1.0, SVG Export Plug-In . SVG Version: 6.00 Build 0)  -->
<svg version="1.1" id="Layer_1" xmlns="http://www.w3.org/2000/svg" xmlns:xlink="http://www.w3.org/1999/xlink" x="0px" y="0px"
	 viewBox="0 0 200 200" style="enable-background:new 0 0 200 200;" xml:space="preserve">
<style type="text/css">
	.st0{fill:#FFFFFF;}
	.st1{fill:#FF0000;}
</style>
<g>
	<rect y="33.3" class="st0" width="200" height="133.3"/>
	<path class="st1" d="M86.7,33.3v53.3H0v26.7h86.7v53.3h26.7v-53.3H200V86.7h-86.7V33.3H86.7z"/>
	<path class="st1" d="M39.4,63.2c-0.2,3.2-0.5,6.4-1.1,9.4c1.5-0.2,3.1-0.3,4.7-0.3c1.6,0,3.1,0.1,4.6,0.3c-0.6-3.1-1-6.2-1.1-9.4
		c3.2,0.2,6.3,0.5,9.4,1.1c-0.2-1.5-0.3-3-0.3-4.6c0-1.6,0.1-3.2,0.3-4.7c-3.1,0.6-6.2,1-9.4,1.1c0.2-3.2,0.5-6.4,1.1-9.4
		C46,46.9,44.5,47,43,47c-1.6,0-3.2-0.1-4.7-0.3c0.6,3.1,1,6.2,1.1,9.4C36.2,56,33,55.6,30,55c0.2,1.5,0.3,3,0.3,4.5
		c0,1.6-0.1,3.2-0.3,4.8C33,63.7,36.2,63.3,39.4,63.2z"/>
	<path class="st1" d="M153.6,63.6c-0.2,3.2-0.5,6.4-1.1,9.4c1.5-0.2,3.1-0.3,4.7-0.3c1.6,0,3.1,0.1,4.6,0.3c-0.6-3.1-1-6.2-1.1-9.4
		c3.2,0.2,6.3,0.5,9.4,1.1c-0.2-1.5-0.3-3-0.3-4.6c0-1.6,0.1-3.2,0.3-4.7c-3.1,0.6-6.2,1-9.4,1.1c0.2-3.2,0.5-6.4,1.1-9.4
		c-1.5,0.2-3,0.3-4.6,0.3c-1.6,0-3.2-0.1-4.7-0.3c0.6,3.1,1,6.2,1.1,9.4c-3.2-0.2-6.4-0.5-9.4-1.1c0.2,1.5,0.3,3,0.3,4.5
		c0,1.6-0.1,3.2-0.3,4.8C147.3,64.2,150.4,63.8,153.6,63.6z"/>
	<path class="st1" d="M39.4,143.8c-0.2,3.2-0.5,6.4-1.1,9.4c1.5-0.2,3.1-0.3,4.7-0.3c1.6,0,3.1,0.1,4.6,0.3c-0.6-3.1-1-6.2-1.1-9.4
		c3.2,0.2,6.3,0.5,9.4,1.1c-0.2-1.5-0.3-3-0.3-4.6c0-1.6,0.1-3.2,0.3-4.7c-3.1,0.6-6.2,1-9.4,1.1c0.2-3.2,0.5-6.4,1.1-9.4
		c-1.5,0.2-3,0.3-4.6,0.3c-1.6,0-3.2-0.1-4.7-0.3c0.6,3.1,1,6.2,1.1,9.4c-3.2-0.2-6.4-0.5-9.4-1.1c0.2,1.5,0.3,3,0.3,4.5
		c0,1.6-0.1,3.2-0.3,4.8C33,144.4,36.2,144,39.4,143.8z"/>
	<path class="st1" d="M153.6,144.3c-0.2,3.2-0.5,6.4-1.1,9.4c1.5-0.2,3.1-0.3,4.7-0.3c1.6,0,3.1,0.1,4.6,0.3c-0.6-3.1-1-6.2-1.1-9.4
		c3.2,0.2,6.3,0.5,9.4,1.1c-0.2-1.5-0.3-3-0.3-4.6c0-1.6,0.1-3.2,0.3-4.7c-3.1,0.6-6.2,1-9.4,1.1c0.2-3.2,0.5-6.4,1.1-9.4
		c-1.5,0.2-3,0.3-4.6,0.3c-1.6,0-3.2-0.1-4.7-0.3c0.6,3.1,1,6.2,1.1,9.4c-3.2-0.2-6.4-0.5-9.4-1.1c0.2,1.5,0.3,3,0.3,4.5
		c0,1.6-0.1,3.2-0.3,4.8C147.3,144.8,150.4,144.4,153.6,144.3z"/>
</g>
</svg>
