<?xml version="1.0" encoding="utf-8"?>
<!-- Generator: Adobe Illustrator 21.1.0, SVG Export Plug-In . SVG Version: 6.00 Build 0)  -->
<svg version="1.1" id="Layer_1" xmlns="http://www.w3.org/2000/svg" xmlns:xlink="http://www.w3.org/1999/xlink" x="0px" y="0px"
	 viewBox="0 0 200 200" style="enable-background:new 0 0 200 200;" xml:space="preserve">
<style type="text/css">
	.st0{fill:#ED1C24;}
	.st1{fill:#005DA4;}
	.st2{fill:#FFFFFF;}
	.st3{fill:#FFDD00;}
</style>
<g>
	<rect y="50" class="st0" width="200" height="100"/>
	<rect y="50" class="st1" width="200" height="66.7"/>
	<rect y="50" class="st2" width="200" height="33.3"/>
	<path class="st1" d="M61.9,85.1l1-15.5c-8.2-3.9-17.7-3.9-25.9,0l1.1,15.5C38.6,92,43.3,98,50,100C56.7,98,61.4,92,61.9,85.1"/>
	<path class="st2" d="M40.3,87.2c1.1,5.1,4.8,9.2,9.7,10.9c4.9-1.7,8.6-5.8,9.7-10.9l-4.8-6.5l-1.9,2.6L50,77.5l-2.9,5.8l-1.9-2.6
		L40.3,87.2"/>
	<path class="st1" d="M40.7,88.8c0.9,1.6,2.9,2.1,4.4,1.2l0,0c1-0.6,2.2-0.6,3.2,0s2.2,0.6,3.2,0s2.2-0.6,3.2,0
		c1.5,0.9,3.5,0.4,4.4-1.2l0,0v0.9c-0.9,1.6-2.9,2.1-4.4,1.2l0,0c-1-0.6-2.2-0.6-3.2,0s-2.2,0.6-3.2,0s-2.2-0.6-3.2,0
		c-1.5,0.9-3.5,0.4-4.4-1.2l0,0V88.8z"/>
	<path class="st1" d="M40.7,90.7c0.9,1.5,2.9,2.1,4.4,1.2l0,0c1-0.6,2.2-0.6,3.2,0c1,0.6,2.2,0.6,3.2,0c1-0.6,2.2-0.6,3.2,0
		c1.5,0.9,3.5,0.4,4.4-1.2l0,0v0.9c-0.9,1.5-2.9,2.1-4.4,1.2l0,0c-1-0.6-2.2-0.6-3.2,0c-1,0.6-2.2,0.6-3.2,0c-1-0.6-2.2-0.6-3.2,0
		c-1.5,0.9-3.5,0.4-4.4-1.2l0,0V90.7z"/>
	<path class="st3" d="M50,73l0.3,0.8l0.8-0.2l-0.6,0.6l0.6,0.6l-0.8-0.2L50,75.5l-0.3-0.8L49,74.8l0.6-0.6L49,73.6l0.8,0.2L50,73z"
		/>
	<path class="st3" d="M46.4,68.2l0.3,0.8l0.8-0.2l-0.6,0.6l0.6,0.6l-0.8-0.2l-0.3,0.8l-0.3-0.8L45.3,70l0.6-0.6l-0.6-0.6l0.8,0.2
		L46.4,68.2z"/>
	<path class="st3" d="M53.6,68.2l0.3,0.8l0.8-0.2l-0.6,0.6l0.6,0.6l-0.8-0.2l-0.3,0.8l-0.3-0.8L52.6,70l0.6-0.6l-0.6-0.6l0.8,0.2
		L53.6,68.2z"/>
	<path class="st0" d="M38,69.2L39,85c0.4,6.5,4.8,12,11,14c6.2-2,10.5-7.5,10.9-14L62,69.2c0.3,0.1,0.6,0.3,0.9,0.4l-1,15.5
		C61.4,92.1,56.6,98,50,100c-6.7-2-11.4-8-11.9-14.9L37,69.6C37.4,69.4,37.7,69.3,38,69.2"/>
</g>
</svg>
