<?xml version="1.0" encoding="utf-8"?>
<!-- Generator: Adobe Illustrator 21.1.0, SVG Export Plug-In . SVG Version: 6.00 Build 0)  -->
<svg version="1.1" id="Layer_1" xmlns="http://www.w3.org/2000/svg" xmlns:xlink="http://www.w3.org/1999/xlink" x="0px" y="0px"
	 viewBox="0 0 200 200" style="enable-background:new 0 0 200 200;" xml:space="preserve">
<style type="text/css">
	.st0{fill:#00247D;}
	.st1{fill:#FFFFFF;}
	.st2{fill:#CF142B;}
</style>
<g>
	<rect y="50.1" class="st0" width="200" height="100"/>
	<polygon class="st1" points="177.4,150.1 0,61.4 0,50.1 22.9,50.1 200,138.7 200,150.1 	"/>
	<rect x="83.4" y="50.1" class="st1" width="33.3" height="100"/>
	<polyline class="st1" points="41.4,83.5 200,83.5 200,116.8 0,116.8 0,83.5 41.4,83.5 	"/>
	<polygon class="st1" points="23.1,150.2 200,61.7 200,50.1 177.7,50.1 0,139 0,150.1 	"/>
	<rect x="90.1" y="50.1" class="st2" width="20" height="100"/>
	<rect y="90.2" class="st2" width="200" height="20"/>
	<polygon class="st2" points="51.8,83.5 0,57.6 0,50.1 0.2,50.1 66.9,83.5 	"/>
	<polygon class="st2" points="199.8,150.1 133.2,116.8 148.3,116.8 200,142.7 200,150.1 	"/>
	<polygon class="st2" points="133.7,83.5 200,50.1 185.4,50.1 118.7,83.5 	"/>
	<polygon class="st2" points="14.9,150.2 81.6,116.8 66.6,116.8 0,150.1 	"/>
</g>
</svg>
